<?xml version="1.0" encoding="UTF-8"?>
<svg width="1024px" height="1024px" viewBox="0 0 1024 1024" version="1.1" xmlns="http://www.w3.org/2000/svg" xmlns:xlink="http://www.w3.org/1999/xlink">
    <title>1 - Layer</title>
    <g id="Template---App-Icons" stroke="none" stroke-width="1" fill="none" fill-rule="evenodd">
        <g id="Group" transform="translate(192, 128)">
            <path d="M640,128 L512,256 L256,256 L256,352 L384,352 L384,480 L256,480 L256,640 L128,768 L257.61216,768 C267.31648,768 275.91264,761.75136 278.91104,752.52192 L302.07872,681.21696 C304.29312,674.39808 309.6464,669.0624 316.46528,666.84672 L334.2752,661.0592 C341.0944,658.8416 348.56544,660.0192 354.36672,664.2336 L415.00576,708.30304 C422.85632,714.0064 433.4976,714.0064 441.34816,708.30304 L495.70336,668.79744 C503.55488,663.09376 506.83808,652.99136 503.83936,643.7616 L480.67168,572.45632 C478.45408,565.63712 479.64768,558.16608 483.86208,552.3648 L494.87552,537.21728 C499.0896,531.41664 505.8128,527.97408 512.98272,527.97344 L587.95872,527.98976 C597.66368,527.99008 606.2592,521.72512 609.2576,512.49536 L630.02752,448.59872 C633.02592,439.36928 629.73952,429.24992 621.89152,423.54592 L561.23584,379.4768 C555.43488,375.26208 552.00864,368.53984 552.00864,361.36928 L552.00864,342.6336 C552.00928,335.46336 555.43456,328.72384 561.23584,324.50976 L630.77152,273.99104 C636.57344,269.77696 640,263.03808 640,255.86784 L640,128 Z" id="path8-4" fill="color(display-p3 0.255 0.561 0.871)"></path>
            <path d="M512,0 L384,128 L512,128 L512,256 L640,128 L640,0 L512,0 Z M128,512 L5.68434189e-14,640 L5.68434189e-14,768 L128,768 L256,640 L128,640 L128,512 Z" id="path7-7" fill="color(display-p3 1.000 0.345 0.365)"></path>
            <polygon id="path3-1" fill="color(display-p3 0.796 0.200 0.231)" points="128 0 0 128 0 640 128 512 128 128 384 128 512 0"></polygon>
            <polygon id="path9-4" fill="color(display-p3 1.000 1.000 1.000)" points="128 640 256 640 256 480 384 480 384 352 256 352 256 256 512 256 512 128 128 128"></polygon>
        </g>
    </g>
</svg>