DBRep_DrawableShape

CASCADE Topology V1, (c) Matra-Datavision
Locations 9
1
              1               0               0               0 
              0               1               0               0 
              0               0               1               0 
1
              1               0               0               0 
              0               1               0               0 
              0               0               1               0 
2  2 -1 0
2  1 -1 2 -1 0
1
              1               0               0               0 
              0               1               0               0 
              0               0               1               5 
2  2 1 5 -1 0
2  5 -1 0
2  1 -1 5 -1 0
2  5 1 2 -1 0
Curve2ds 14
2 0 0 1 0 -0 1 2
1 0 0 1 0 
1 0 5 1 0 
1 0 5 1 0 
1 6.2831853071795862 -0 0 1 
1 0 -0 0 1 
1 6.2831853071795862 -0 0 1 
1 0 -0 0 1 
1 0 10 1 0 
1 0 5 1 0 
1 6.2831853071795862 -0 0 1 
1 0 -0 0 1 
1 0 10 1 0 
2 0 0 1 0 -0 1 2
Curves 7
2 0 0 0 0 0 1 1 0 -0 -0 1 0 2
2 0 0 0 0 0 1 1 0 -0 -0 1 0 2
1 2 -4.898425415289509e-16 0 0 0 1 
1 2 -4.898425415289509e-16 0 0 0 1 
2 0 0 10 0 0 1 1 0 -0 -0 1 0 2
1 2 -4.898425415289509e-16 0 0 0 1 
2 0 0 10 0 0 1 1 0 -0 -0 1 0 2
Polygon3D 0
PolygonOnTriangulations 14
36 38 39 40 41 42 43 44 45 46 47 48 49 50 51 52 53 54 55 56 57 58 59 60 61 62 63 64 65 66 67 68 69 70 71 72 37 
p 0.0157727586365918 1 0 0.179519580205131 0.359039160410262 0.538558740615393 0.718078320820525 0.897597901025656 1.07711748123079 1.25663706143592 1.43615664164105 1.61567622184618 1.79519580205131 1.97471538225644 2.15423496246157 2.3337545426667 2.51327412287184 2.69279370307697 2.8723132832821 3.05183286348723 3.23135244369236 3.41087202389749 3.59039160410262 3.76991118430775 3.94943076451288 4.12895034471801 4.30846992492315 4.48798950512828 4.66750908533341 4.84702866553854 5.02654824574367 5.2060678259488 5.38558740615393 5.56510698635906 5.74462656656419 5.92414614676933 6.10366572697446 6.28318530717959 
36 1 2 3 4 5 6 7 8 9 10 11 12 13 14 15 16 17 18 19 20 21 22 23 24 25 26 27 28 29 30 31 32 33 34 35 1 
p 0.0157727586365918 1 0 0.179519580205131 0.359039160410262 0.538558740615393 0.718078320820525 0.897597901025656 1.07711748123079 1.25663706143592 1.43615664164105 1.61567622184618 1.79519580205131 1.97471538225644 2.15423496246157 2.3337545426667 2.51327412287184 2.69279370307697 2.8723132832821 3.05183286348723 3.23135244369236 3.41087202389749 3.59039160410262 3.76991118430775 3.94943076451288 4.12895034471801 4.30846992492315 4.48798950512828 4.66750908533341 4.84702866553854 5.02654824574367 5.2060678259488 5.38558740615393 5.56510698635906 5.74462656656419 5.92414614676933 6.10366572697446 6.28318530717959 
36 1 3 4 5 6 7 8 9 10 11 12 13 14 15 16 17 18 19 20 21 22 23 24 25 26 27 28 29 30 31 32 33 34 35 36 2 
p 0.0157727586365918 1 0 0.179519580205131 0.359039160410262 0.538558740615393 0.718078320820525 0.897597901025656 1.07711748123079 1.25663706143592 1.43615664164105 1.61567622184618 1.79519580205131 1.97471538225644 2.15423496246157 2.3337545426667 2.51327412287184 2.69279370307697 2.8723132832821 3.05183286348723 3.23135244369236 3.41087202389749 3.59039160410262 3.76991118430775 3.94943076451288 4.12895034471801 4.30846992492315 4.48798950512828 4.66750908533341 4.84702866553854 5.02654824574367 5.2060678259488 5.38558740615393 5.56510698635906 5.74462656656419 5.92414614676933 6.10366572697446 6.28318530717959 
36 3 4 5 6 7 8 9 10 11 12 13 14 15 16 17 18 19 20 21 22 23 24 25 26 27 28 29 30 31 32 33 34 35 36 37 1 
p 0.0157727586365918 1 0 0.179519580205131 0.359039160410262 0.538558740615393 0.718078320820525 0.897597901025656 1.07711748123079 1.25663706143592 1.43615664164105 1.61567622184618 1.79519580205131 1.97471538225644 2.15423496246157 2.3337545426667 2.51327412287184 2.69279370307697 2.8723132832821 3.05183286348723 3.23135244369236 3.41087202389749 3.59039160410262 3.76991118430775 3.94943076451288 4.12895034471801 4.30846992492315 4.48798950512828 4.66750908533341 4.84702866553854 5.02654824574367 5.2060678259488 5.38558740615393 5.56510698635906 5.74462656656419 5.92414614676933 6.10366572697446 6.28318530717959 
2 37 2 
p 0.0157727586365918 1 0 5 
2 38 1 
p 0.0157727586365918 1 0 5 
2 1 2 
p 0.0157727586365918 1 5 10 
2 3 38 
p 0.0157727586365918 1 5 10 
36 38 39 40 41 42 43 44 45 46 47 48 49 50 51 52 53 54 55 56 57 58 59 60 61 62 63 64 65 66 67 68 69 70 71 72 2 
p 0.0157727586365918 1 0 0.179519580205131 0.359039160410262 0.538558740615393 0.718078320820525 0.897597901025656 1.07711748123079 1.25663706143592 1.43615664164105 1.61567622184618 1.79519580205131 1.97471538225644 2.15423496246157 2.3337545426667 2.51327412287184 2.69279370307697 2.8723132832821 3.05183286348723 3.23135244369236 3.41087202389749 3.59039160410262 3.76991118430775 3.94943076451288 4.12895034471801 4.30846992492315 4.48798950512828 4.66750908533341 4.84702866553854 5.02654824574367 5.2060678259488 5.38558740615393 5.56510698635906 5.74462656656419 5.92414614676933 6.10366572697446 6.28318530717959 
36 3 4 5 6 7 8 9 10 11 12 13 14 15 16 17 18 19 20 21 22 23 24 25 26 27 28 29 30 31 32 33 34 35 36 37 1 
p 0.0157727586365918 1 0 0.179519580205131 0.359039160410262 0.538558740615393 0.718078320820525 0.897597901025656 1.07711748123079 1.25663706143592 1.43615664164105 1.61567622184618 1.79519580205131 1.97471538225644 2.15423496246157 2.3337545426667 2.51327412287184 2.69279370307697 2.8723132832821 3.05183286348723 3.23135244369236 3.41087202389749 3.59039160410262 3.76991118430775 3.94943076451288 4.12895034471801 4.30846992492315 4.48798950512828 4.66750908533341 4.84702866553854 5.02654824574367 5.2060678259488 5.38558740615393 5.56510698635906 5.74462656656419 5.92414614676933 6.10366572697446 6.28318530717959 
2 1 2 
p 0.0157727586365918 1 5 10 
2 3 38 
p 0.0157727586365918 1 5 10 
36 38 39 40 41 42 43 44 45 46 47 48 49 50 51 52 53 54 55 56 57 58 59 60 61 62 63 64 65 66 67 68 69 70 71 72 2 
p 0.0157727586365918 1 0 0.179519580205131 0.359039160410262 0.538558740615393 0.718078320820525 0.897597901025656 1.07711748123079 1.25663706143592 1.43615664164105 1.61567622184618 1.79519580205131 1.97471538225644 2.15423496246157 2.3337545426667 2.51327412287184 2.69279370307697 2.8723132832821 3.05183286348723 3.23135244369236 3.41087202389749 3.59039160410262 3.76991118430775 3.94943076451288 4.12895034471801 4.30846992492315 4.48798950512828 4.66750908533341 4.84702866553854 5.02654824574367 5.2060678259488 5.38558740615393 5.56510698635906 5.74462656656419 5.92414614676933 6.10366572697446 6.28318530717959 
36 1 2 3 4 5 6 7 8 9 10 11 12 13 14 15 16 17 18 19 20 21 22 23 24 25 26 27 28 29 30 31 32 33 34 35 1 
p 0.0157727586365918 1 0 0.179519580205131 0.359039160410262 0.538558740615393 0.718078320820525 0.897597901025656 1.07711748123079 1.25663706143592 1.43615664164105 1.61567622184618 1.79519580205131 1.97471538225644 2.15423496246157 2.3337545426667 2.51327412287184 2.69279370307697 2.8723132832821 3.05183286348723 3.23135244369236 3.41087202389749 3.59039160410262 3.76991118430775 3.94943076451288 4.12895034471801 4.30846992492315 4.48798950512828 4.66750908533341 4.84702866553854 5.02654824574367 5.2060678259488 5.38558740615393 5.56510698635906 5.74462656656419 5.92414614676933 6.10366572697446 6.28318530717959 
Surfaces 5
1 0 0 0 0 0 1 1 0 -0 -0 1 0 
2 0 0 0 0 0 1 1 0 -0 -0 1 0 2
2 0 0 0 0 0 1 1 0 -0 -0 1 0 2
2 0 0 0 0 0 1 1 0 -0 -0 1 0 2
1 0 0 10 0 0 1 1 0 -0 -0 1 0 
Triangulations 5
36 35 1 3.00432421995733e-16
2 -4.89842541528951e-16 0 1.96785917719726 0.357113789597274 0 1.87246974127947 0.702749648162686 0 1.71689758720373 1.02579855481181 0 1.50614293200722 1.31587745187943 0 1.24697960371747 1.56366296493606 0 0.947737324945996 1.76119106371348 0 0.618033988749893 1.90211303259031 0 0.268466531635309 1.98189952353587 0 -0.0897296607010315 1.99798613308263 0 -0.44504186791263 1.94985582436365 0 -0.786050063307849 1.8390555451029 0 -1.10179396290421 1.6691465074426 0 -1.38212529797373 1.44558972765478 0 -1.6180339887499 1.17557050458494 0 -1.80193773580484 0.867767478235115 0 -1.92792572139171 0.532073691133349 0 -1.99194858799048 0.179278617806865 0 -1.99194858799048 -0.179278617806869 0 -1.92792572139171 -0.532073691133352 0 -1.80193773580484 -0.867767478235118 0 -1.61803398874989 -1.17557050458495 0 -1.38212529797373 -1.44558972765478 0 -1.1017939629042 -1.66914650744261 0 -0.786050063307846 -1.8390555451029 0 -0.445041867912627 -1.94985582436365 0 -0.0897296607010284 -1.99798613308263 0 0.268466531635312 -1.98189952353587 0 0.618033988749896 -1.90211303259031 0 0.947737324945998 -1.76119106371348 0 1.24697960371747 -1.56366296493606 0 1.50614293200722 -1.31587745187942 0 1.71689758720373 -1.02579855481181 0 1.87246974127947 -0.702749648162684 0 1.96785917719726 -0.357113789597272 0 0.00402570600476093 -1.11022302462516e-16 0 2 0 1.96785917719726 0.357113789597273 1.87246974127947 0.702749648162686 1.71689758720373 1.02579855481181 1.50614293200722 1.31587745187943 1.24697960371747 1.56366296493606 0.947737324945996 1.76119106371348 0.618033988749893 1.90211303259031 0.268466531635309 1.98189952353587 -0.0897296607010316 1.99798613308263 -0.44504186791263 1.94985582436365 -0.786050063307849 1.8390555451029 -1.10179396290421 1.6691465074426 -1.38212529797373 1.44558972765478 -1.6180339887499 1.17557050458494 -1.80193773580484 0.867767478235115 -1.92792572139171 0.532073691133349 -1.99194858799048 0.179278617806865 -1.99194858799048 -0.179278617806869 -1.92792572139171 -0.532073691133352 -1.80193773580484 -0.867767478235117 -1.61803398874989 -1.17557050458495 -1.38212529797373 -1.44558972765478 -1.1017939629042 -1.66914650744261 -0.786050063307846 -1.8390555451029 -0.445041867912627 -1.94985582436365 -0.0897296607010285 -1.99798613308263 0.268466531635312 -1.98189952353587 0.618033988749896 -1.90211303259031 0.947737324945998 -1.76119106371348 1.24697960371747 -1.56366296493606 1.50614293200722 -1.31587745187942 1.71689758720373 -1.02579855481181 1.87246974127948 -0.702749648162684 1.96785917719726 -0.357113789597272 0.00402570600476104 0 36 25 26 36 26 27 36 27 28 36 28 29 36 29 30 36 30 31 36 31 32 36 32 33 36 33 34 36 34 35 36 35 1 36 1 2 36 2 3 36 3 4 36 4 5 36 5 6 36 6 7 36 7 8 36 8 9 36 9 10 36 10 11 36 11 12 36 12 13 36 13 14 36 14 15 36 15 16 36 16 17 36 17 18 36 18 19 36 19 20 36 20 21 36 21 22 36 22 23 36 23 24 36 24 25 
72 70 1 0.0080514120095221
2 -4.89842541528951e-16 5 2 -4.89842541528951e-16 5 1.96785917719726 0.357113789597274 5 1.87246974127947 0.702749648162686 5 1.71689758720373 1.02579855481181 5 1.50614293200722 1.31587745187943 5 1.24697960371747 1.56366296493606 5 0.947737324945996 1.76119106371348 5 0.618033988749893 1.90211303259031 5 0.268466531635309 1.98189952353587 5 -0.0897296607010315 1.99798613308263 5 -0.44504186791263 1.94985582436365 5 -0.786050063307849 1.8390555451029 5 -1.10179396290421 1.6691465074426 5 -1.38212529797373 1.44558972765478 5 -1.6180339887499 1.17557050458494 5 -1.80193773580484 0.867767478235115 5 -1.92792572139171 0.532073691133349 5 -1.99194858799048 0.179278617806865 5 -1.99194858799048 -0.179278617806869 5 -1.92792572139171 -0.532073691133352 5 -1.80193773580484 -0.867767478235118 5 -1.61803398874989 -1.17557050458495 5 -1.38212529797373 -1.44558972765478 5 -1.1017939629042 -1.66914650744261 5 -0.786050063307846 -1.8390555451029 5 -0.445041867912627 -1.94985582436365 5 -0.0897296607010284 -1.99798613308263 5 0.268466531635312 -1.98189952353587 5 0.618033988749896 -1.90211303259031 5 0.947737324945998 -1.76119106371348 5 1.24697960371747 -1.56366296493606 5 1.50614293200722 -1.31587745187942 5 1.71689758720373 -1.02579855481181 5 1.87246974127947 -0.702749648162684 5 1.96785917719726 -0.357113789597272 5 2 -4.89842541528951e-16 0 2 -4.89842541528951e-16 0 1.96785917719726 0.357113789597274 0 1.87246974127947 0.702749648162686 0 1.71689758720373 1.02579855481181 0 1.50614293200722 1.31587745187943 0 1.24697960371747 1.56366296493606 0 0.947737324945996 1.76119106371348 0 0.618033988749893 1.90211303259031 0 0.268466531635309 1.98189952353587 0 -0.0897296607010315 1.99798613308263 0 -0.44504186791263 1.94985582436365 0 -0.786050063307849 1.8390555451029 0 -1.10179396290421 1.6691465074426 0 -1.38212529797373 1.44558972765478 0 -1.6180339887499 1.17557050458494 0 -1.80193773580484 0.867767478235115 0 -1.92792572139171 0.532073691133349 0 -1.99194858799048 0.179278617806865 0 -1.99194858799048 -0.179278617806869 0 -1.92792572139171 -0.532073691133352 0 -1.80193773580484 -0.867767478235118 0 -1.61803398874989 -1.17557050458495 0 -1.38212529797373 -1.44558972765478 0 -1.1017939629042 -1.66914650744261 0 -0.786050063307846 -1.8390555451029 0 -0.445041867912627 -1.94985582436365 0 -0.0897296607010284 -1.99798613308263 0 0.268466531635312 -1.98189952353587 0 0.618033988749896 -1.90211303259031 0 0.947737324945998 -1.76119106371348 0 1.24697960371747 -1.56366296493606 0 1.50614293200722 -1.31587745187942 0 1.71689758720373 -1.02579855481181 0 1.87246974127947 -0.702749648162684 0 1.96785917719726 -0.357113789597272 0 0 5 6.28318530717959 5 0.179519580205131 5 0.359039160410262 5 0.538558740615393 5 0.718078320820525 5 0.897597901025656 5 1.07711748123079 5 1.25663706143592 5 1.43615664164105 5 1.61567622184618 5 1.79519580205131 5 1.97471538225644 5 2.15423496246157 5 2.3337545426667 5 2.51327412287184 5 2.69279370307697 5 2.8723132832821 5 3.05183286348723 5 3.23135244369236 5 3.41087202389749 5 3.59039160410262 5 3.76991118430775 5 3.94943076451288 5 4.12895034471801 5 4.30846992492315 5 4.48798950512828 5 4.66750908533341 5 4.84702866553854 5 5.02654824574367 5 5.2060678259488 5 5.38558740615393 5 5.56510698635906 5 5.74462656656419 5 5.92414614676933 5 6.10366572697446 5 6.28318530717959 0 0 0 0.179519580205131 0 0.359039160410262 0 0.538558740615393 0 0.718078320820525 0 0.897597901025656 0 1.07711748123079 0 1.25663706143592 0 1.43615664164105 0 1.61567622184618 0 1.79519580205131 0 1.97471538225644 0 2.15423496246157 0 2.3337545426667 0 2.51327412287184 0 2.69279370307697 0 2.8723132832821 0 3.05183286348723 0 3.23135244369236 0 3.41087202389749 0 3.59039160410262 0 3.76991118430775 0 3.94943076451288 0 4.12895034471801 0 4.30846992492315 0 4.48798950512828 0 4.66750908533341 0 4.84702866553854 0 5.02654824574367 0 5.2060678259488 0 5.38558740615393 0 5.56510698635906 0 5.74462656656419 0 5.92414614676933 0 6.10366572697446 0 22 21 57 22 57 58 23 22 58 23 58 59 3 38 39 3 1 38 24 59 60 24 23 59 4 39 40 4 3 39 25 60 61 25 24 60 5 40 41 5 4 40 26 61 62 26 25 61 6 41 42 6 5 41 27 62 63 27 26 62 7 42 43 7 6 42 28 63 64 28 27 63 8 43 44 8 44 45 8 7 43 29 64 65 29 28 64 9 8 45 9 45 46 30 65 66 30 29 65 10 9 46 31 66 67 31 30 66 11 10 46 11 46 47 32 67 68 32 31 67 12 11 47 12 47 48 33 68 69 33 32 68 13 12 48 13 48 49 34 33 69 34 69 70 14 13 49 14 49 50 14 50 51 35 34 70 35 70 71 15 14 51 36 35 71 36 71 72 36 72 37 16 15 51 16 51 52 2 36 37 17 16 52 17 52 53 18 17 53 18 53 54 19 18 54 19 54 55 20 19 55 20 55 56 21 20 56 21 56 57 
72 70 1 0.0080514120095221
2 -4.89842541528951e-16 5 2 -4.89842541528951e-16 10 2 -4.89842541528951e-16 5 1.96785917719726 0.357113789597274 5 1.87246974127947 0.702749648162686 5 1.71689758720373 1.02579855481181 5 1.50614293200722 1.31587745187943 5 1.24697960371747 1.56366296493606 5 0.947737324945996 1.76119106371348 5 0.618033988749893 1.90211303259031 5 0.268466531635309 1.98189952353587 5 -0.0897296607010315 1.99798613308263 5 -0.44504186791263 1.94985582436365 5 -0.786050063307849 1.8390555451029 5 -1.10179396290421 1.6691465074426 5 -1.38212529797373 1.44558972765478 5 -1.6180339887499 1.17557050458494 5 -1.80193773580484 0.867767478235115 5 -1.92792572139171 0.532073691133349 5 -1.99194858799048 0.179278617806865 5 -1.99194858799048 -0.179278617806869 5 -1.92792572139171 -0.532073691133352 5 -1.80193773580484 -0.867767478235118 5 -1.61803398874989 -1.17557050458495 5 -1.38212529797373 -1.44558972765478 5 -1.1017939629042 -1.66914650744261 5 -0.786050063307846 -1.8390555451029 5 -0.445041867912627 -1.94985582436365 5 -0.0897296607010284 -1.99798613308263 5 0.268466531635312 -1.98189952353587 5 0.618033988749896 -1.90211303259031 5 0.947737324945998 -1.76119106371348 5 1.24697960371747 -1.56366296493606 5 1.50614293200722 -1.31587745187942 5 1.71689758720373 -1.02579855481181 5 1.87246974127947 -0.702749648162684 5 1.96785917719726 -0.357113789597272 5 2 -4.89842541528951e-16 10 1.96785917719726 0.357113789597274 10 1.87246974127947 0.702749648162686 10 1.71689758720373 1.02579855481181 10 1.50614293200722 1.31587745187943 10 1.24697960371747 1.56366296493606 10 0.947737324945996 1.76119106371348 10 0.618033988749893 1.90211303259031 10 0.268466531635309 1.98189952353587 10 -0.0897296607010315 1.99798613308263 10 -0.44504186791263 1.94985582436365 10 -0.786050063307849 1.8390555451029 10 -1.10179396290421 1.6691465074426 10 -1.38212529797373 1.44558972765478 10 -1.6180339887499 1.17557050458494 10 -1.80193773580484 0.867767478235115 10 -1.92792572139171 0.532073691133349 10 -1.99194858799048 0.179278617806865 10 -1.99194858799048 -0.179278617806869 10 -1.92792572139171 -0.532073691133352 10 -1.80193773580484 -0.867767478235118 10 -1.61803398874989 -1.17557050458495 10 -1.38212529797373 -1.44558972765478 10 -1.1017939629042 -1.66914650744261 10 -0.786050063307846 -1.8390555451029 10 -0.445041867912627 -1.94985582436365 10 -0.0897296607010284 -1.99798613308263 10 0.268466531635312 -1.98189952353587 10 0.618033988749896 -1.90211303259031 10 0.947737324945998 -1.76119106371348 10 1.24697960371747 -1.56366296493606 10 1.50614293200722 -1.31587745187942 10 1.71689758720373 -1.02579855481181 10 1.87246974127947 -0.702749648162684 10 1.96785917719726 -0.357113789597272 10 6.28318530717959 5 6.28318530717959 10 0 5 0.179519580205131 5 0.359039160410262 5 0.538558740615393 5 0.718078320820525 5 0.897597901025656 5 1.07711748123079 5 1.25663706143592 5 1.43615664164105 5 1.61567622184618 5 1.79519580205131 5 1.97471538225644 5 2.15423496246157 5 2.3337545426667 5 2.51327412287184 5 2.69279370307697 5 2.8723132832821 5 3.05183286348723 5 3.23135244369236 5 3.41087202389749 5 3.59039160410262 5 3.76991118430775 5 3.94943076451288 5 4.12895034471801 5 4.30846992492315 5 4.48798950512828 5 4.66750908533341 5 4.84702866553854 5 5.02654824574367 5 5.2060678259488 5 5.38558740615393 5 5.56510698635906 5 5.74462656656419 5 5.92414614676933 5 6.10366572697446 5 0 10 0.179519580205131 10 0.359039160410262 10 0.538558740615393 10 0.718078320820525 10 0.897597901025656 10 1.07711748123079 10 1.25663706143592 10 1.43615664164105 10 1.61567622184618 10 1.79519580205131 10 1.97471538225644 10 2.15423496246157 10 2.3337545426667 10 2.51327412287184 10 2.69279370307697 10 2.8723132832821 10 3.05183286348723 10 3.23135244369236 10 3.41087202389749 10 3.59039160410262 10 3.76991118430775 10 3.94943076451288 10 4.12895034471801 10 4.30846992492315 10 4.48798950512828 10 4.66750908533341 10 4.84702866553854 10 5.02654824574367 10 5.2060678259488 10 5.38558740615393 10 5.56510698635906 10 5.74462656656419 10 5.92414614676933 10 6.10366572697446 10 58 22 23 58 57 22 59 23 24 59 58 23 39 3 4 39 38 3 60 24 25 60 59 24 40 4 5 40 39 4 61 25 26 61 60 25 41 5 6 41 40 5 62 26 27 62 61 26 42 6 7 42 41 6 63 27 28 63 62 27 43 7 8 43 42 7 64 28 29 64 63 28 44 8 9 44 9 10 44 43 8 65 29 30 65 64 29 45 44 10 45 10 11 66 30 31 66 65 30 46 45 11 67 31 32 67 66 31 47 11 12 47 46 11 68 32 33 68 67 32 48 47 12 48 12 13 69 33 34 49 13 14 69 68 33 49 48 13 70 69 34 70 34 35 50 14 15 50 15 16 50 49 14 71 70 35 71 35 36 51 50 16 72 71 36 72 36 37 52 16 17 52 51 16 2 72 37 2 37 1 53 17 18 53 52 17 54 18 19 54 53 18 55 19 20 55 54 19 56 20 21 56 55 20 57 21 22 57 56 21 
72 70 1 0.0080514120095221
2 -4.89842541528951e-16 10 2 -4.89842541528951e-16 15 2 -4.89842541528951e-16 10 1.96785917719726 0.357113789597274 10 1.87246974127947 0.702749648162686 10 1.71689758720373 1.02579855481181 10 1.50614293200722 1.31587745187943 10 1.24697960371747 1.56366296493606 10 0.947737324945996 1.76119106371348 10 0.618033988749893 1.90211303259031 10 0.268466531635309 1.98189952353587 10 -0.0897296607010315 1.99798613308263 10 -0.44504186791263 1.94985582436365 10 -0.786050063307849 1.8390555451029 10 -1.10179396290421 1.6691465074426 10 -1.38212529797373 1.44558972765478 10 -1.6180339887499 1.17557050458494 10 -1.80193773580484 0.867767478235115 10 -1.92792572139171 0.532073691133349 10 -1.99194858799048 0.179278617806865 10 -1.99194858799048 -0.179278617806869 10 -1.92792572139171 -0.532073691133352 10 -1.80193773580484 -0.867767478235118 10 -1.61803398874989 -1.17557050458495 10 -1.38212529797373 -1.44558972765478 10 -1.1017939629042 -1.66914650744261 10 -0.786050063307846 -1.8390555451029 10 -0.445041867912627 -1.94985582436365 10 -0.0897296607010284 -1.99798613308263 10 0.268466531635312 -1.98189952353587 10 0.618033988749896 -1.90211303259031 10 0.947737324945998 -1.76119106371348 10 1.24697960371747 -1.56366296493606 10 1.50614293200722 -1.31587745187942 10 1.71689758720373 -1.02579855481181 10 1.87246974127947 -0.702749648162684 10 1.96785917719726 -0.357113789597272 10 2 -4.89842541528951e-16 15 1.96785917719726 0.357113789597274 15 1.87246974127947 0.702749648162686 15 1.71689758720373 1.02579855481181 15 1.50614293200722 1.31587745187943 15 1.24697960371747 1.56366296493606 15 0.947737324945996 1.76119106371348 15 0.618033988749893 1.90211303259031 15 0.268466531635309 1.98189952353587 15 -0.0897296607010315 1.99798613308263 15 -0.44504186791263 1.94985582436365 15 -0.786050063307849 1.8390555451029 15 -1.10179396290421 1.6691465074426 15 -1.38212529797373 1.44558972765478 15 -1.6180339887499 1.17557050458494 15 -1.80193773580484 0.867767478235115 15 -1.92792572139171 0.532073691133349 15 -1.99194858799048 0.179278617806865 15 -1.99194858799048 -0.179278617806869 15 -1.92792572139171 -0.532073691133352 15 -1.80193773580484 -0.867767478235118 15 -1.61803398874989 -1.17557050458495 15 -1.38212529797373 -1.44558972765478 15 -1.1017939629042 -1.66914650744261 15 -0.786050063307846 -1.8390555451029 15 -0.445041867912627 -1.94985582436365 15 -0.0897296607010284 -1.99798613308263 15 0.268466531635312 -1.98189952353587 15 0.618033988749896 -1.90211303259031 15 0.947737324945998 -1.76119106371348 15 1.24697960371747 -1.56366296493606 15 1.50614293200722 -1.31587745187942 15 1.71689758720373 -1.02579855481181 15 1.87246974127947 -0.702749648162684 15 1.96785917719726 -0.357113789597272 15 6.28318530717959 5 6.28318530717959 10 0 5 0.179519580205131 5 0.359039160410262 5 0.538558740615393 5 0.718078320820525 5 0.897597901025656 5 1.07711748123079 5 1.25663706143592 5 1.43615664164105 5 1.61567622184618 5 1.79519580205131 5 1.97471538225644 5 2.15423496246157 5 2.3337545426667 5 2.51327412287184 5 2.69279370307697 5 2.8723132832821 5 3.05183286348723 5 3.23135244369236 5 3.41087202389749 5 3.59039160410262 5 3.76991118430775 5 3.94943076451288 5 4.12895034471801 5 4.30846992492315 5 4.48798950512828 5 4.66750908533341 5 4.84702866553854 5 5.02654824574367 5 5.2060678259488 5 5.38558740615393 5 5.56510698635906 5 5.74462656656419 5 5.92414614676933 5 6.10366572697446 5 0 10 0.179519580205131 10 0.359039160410262 10 0.538558740615393 10 0.718078320820525 10 0.897597901025656 10 1.07711748123079 10 1.25663706143592 10 1.43615664164105 10 1.61567622184618 10 1.79519580205131 10 1.97471538225644 10 2.15423496246157 10 2.3337545426667 10 2.51327412287184 10 2.69279370307697 10 2.8723132832821 10 3.05183286348723 10 3.23135244369236 10 3.41087202389749 10 3.59039160410262 10 3.76991118430775 10 3.94943076451288 10 4.12895034471801 10 4.30846992492315 10 4.48798950512828 10 4.66750908533341 10 4.84702866553854 10 5.02654824574367 10 5.2060678259488 10 5.38558740615393 10 5.56510698635906 10 5.74462656656419 10 5.92414614676933 10 6.10366572697446 10 58 22 23 58 57 22 59 23 24 59 58 23 39 3 4 39 38 3 60 24 25 60 59 24 40 4 5 40 39 4 61 25 26 61 60 25 41 5 6 41 40 5 62 26 27 62 61 26 42 6 7 42 41 6 63 27 28 63 62 27 43 7 8 43 42 7 64 28 29 64 63 28 44 8 9 44 9 10 44 43 8 65 29 30 65 64 29 45 44 10 45 10 11 66 30 31 66 65 30 46 45 11 67 31 32 67 66 31 47 11 12 47 46 11 68 32 33 68 67 32 48 47 12 48 12 13 69 33 34 49 13 14 69 68 33 49 48 13 70 69 34 70 34 35 50 14 15 50 15 16 50 49 14 71 70 35 71 35 36 51 50 16 72 71 36 72 36 37 52 16 17 52 51 16 2 72 37 2 37 1 53 17 18 53 52 17 54 18 19 54 53 18 55 19 20 55 54 19 56 20 21 56 55 20 57 21 22 57 56 21 
36 35 1 3.00432421995733e-16
2 -4.89842541528951e-16 10 1.96785917719726 0.357113789597274 10 1.87246974127947 0.702749648162686 10 1.71689758720373 1.02579855481181 10 1.50614293200722 1.31587745187943 10 1.24697960371747 1.56366296493606 10 0.947737324945996 1.76119106371348 10 0.618033988749893 1.90211303259031 10 0.268466531635309 1.98189952353587 10 -0.0897296607010315 1.99798613308263 10 -0.44504186791263 1.94985582436365 10 -0.786050063307849 1.8390555451029 10 -1.10179396290421 1.6691465074426 10 -1.38212529797373 1.44558972765478 10 -1.6180339887499 1.17557050458494 10 -1.80193773580484 0.867767478235115 10 -1.92792572139171 0.532073691133349 10 -1.99194858799048 0.179278617806865 10 -1.99194858799048 -0.179278617806869 10 -1.92792572139171 -0.532073691133352 10 -1.80193773580484 -0.867767478235118 10 -1.61803398874989 -1.17557050458495 10 -1.38212529797373 -1.44558972765478 10 -1.1017939629042 -1.66914650744261 10 -0.786050063307846 -1.8390555451029 10 -0.445041867912627 -1.94985582436365 10 -0.0897296607010284 -1.99798613308263 10 0.268466531635312 -1.98189952353587 10 0.618033988749896 -1.90211303259031 10 0.947737324945998 -1.76119106371348 10 1.24697960371747 -1.56366296493606 10 1.50614293200722 -1.31587745187942 10 1.71689758720373 -1.02579855481181 10 1.87246974127947 -0.702749648162684 10 1.96785917719726 -0.357113789597272 10 0.00402570600476093 -1.11022302462516e-16 10 2 0 1.96785917719726 0.357113789597273 1.87246974127947 0.702749648162686 1.71689758720373 1.02579855481181 1.50614293200722 1.31587745187943 1.24697960371747 1.56366296493606 0.947737324945996 1.76119106371348 0.618033988749893 1.90211303259031 0.268466531635309 1.98189952353587 -0.0897296607010316 1.99798613308263 -0.44504186791263 1.94985582436365 -0.786050063307849 1.8390555451029 -1.10179396290421 1.6691465074426 -1.38212529797373 1.44558972765478 -1.6180339887499 1.17557050458494 -1.80193773580484 0.867767478235115 -1.92792572139171 0.532073691133349 -1.99194858799048 0.179278617806865 -1.99194858799048 -0.179278617806869 -1.92792572139171 -0.532073691133352 -1.80193773580484 -0.867767478235117 -1.61803398874989 -1.17557050458495 -1.38212529797373 -1.44558972765478 -1.1017939629042 -1.66914650744261 -0.786050063307846 -1.8390555451029 -0.445041867912627 -1.94985582436365 -0.0897296607010285 -1.99798613308263 0.268466531635312 -1.98189952353587 0.618033988749896 -1.90211303259031 0.947737324945998 -1.76119106371348 1.24697960371747 -1.56366296493606 1.50614293200722 -1.31587745187942 1.71689758720373 -1.02579855481181 1.87246974127948 -0.702749648162684 1.96785917719726 -0.357113789597272 0.00402570600476104 0 36 25 26 36 26 27 36 27 28 36 28 29 36 29 30 36 30 31 36 31 32 36 32 33 36 33 34 36 34 35 36 35 1 36 1 2 36 2 3 36 3 4 36 4 5 36 5 6 36 6 7 36 7 8 36 8 9 36 9 10 36 10 11 36 11 12 36 12 13 36 13 14 36 14 15 36 15 16 36 16 17 36 17 18 36 18 19 36 19 20 36 20 21 36 21 22 36 22 23 36 23 24 36 24 25 

TShapes 25
Ve
1e-07
2 -4.89842541528951e-16 0
0 0

0101101
*
Ed
 1e-07 1 1 0
1  1 0 0 6.28318530717959
2  1 1 0 0 6.28318530717959
2  2 2 0 0 6.28318530717959
6  1 2 3
6  2 1 0
0

0101100
+25 4 -25 4 *
Wi

0101000
-24 0 *
Fa
0  1e-07 1 0
2  1
0101000
-23 0 *
Ve
1e-07
2 -4.89842541528951e-16 5
0 0

0101101
*
Ed
 1e-07 1 1 0
1  2 0 0 6.28318530717959
2  3 2 6 0 6.28318530717959
2  4 3 6 0 6.28318530717959
6  3 2 7
6  4 3 7
0

0101100
+21 8 -21 8 *
Ed
 1e-07 1 1 0
1  3 0 0 5
3  5 6CN 2 0 0 5
7  5 6 2 3
0

0101000
+25 4 -21 4 *
Wi

0101000
-20 5 +19 2 +24 2 -19 2 *
Fa
0  1e-07 2 2
2  2
0101000
+18 0 *
Ve
1e-07
2 -4.89842541528951e-16 10
0 0

0101101
*
Ed
 1e-07 1 1 0
1  4 0 5 10
3  7 8CN 3 0 5 10
7  7 8 3 3
0

0101000
+21 4 -16 4 *
Ed
 1e-07 1 1 0
1  5 0 0 6.28318530717959
2  9 3 0 0 6.28318530717959
2  10 4 9 0 6.28318530717959
6  9 3 3
6  10 4 3
0

0101100
+16 4 -16 4 *
Wi

0101000
+15 2 +20 5 -15 2 -14 2 *
Fa
0  1e-07 3 2
2  3
0101000
+13 0 *
Ve
1e-07
2 -4.89842541528951e-16 15
0 0

0101101
*
Ed
 1e-07 1 1 0
1  6 0 5 10
3  11 12CN 4 0 5 10
7  11 12 4 7
0

0101000
+16 8 -11 8 *
Ed
 1e-07 1 1 0
1  7 0 0 6.28318530717959
2  13 4 0 0 6.28318530717959
2  14 5 0 0 6.28318530717959
6  13 4 7
6  14 5 0
0

0101100
+11 8 -11 8 *
Wi

0101000
+10 5 +14 2 -10 5 -9 5 *
Fa
0  1e-07 4 5
2  4
0101000
+8 0 *
Wi

0101000
+9 0 *
Fa
0  1e-07 5 0
2  5
0101000
+6 0 *
Sh

0101000
-22 2 +17 0 +12 0 +7 0 +5 5 *
So

0100000
+4 0 *
Co

0100000
+3 0 *
Co

1100000
+2 1 *

+1 0 