DBRep_DrawableShape

CASCADE Topology V1, (c) Matra-Datavision
Locations 10
1
              1               0               0               0 
              0               1               0               0 
              0               0               1               0 
1
              1               0               0               0 
              0               1               0               0 
              0               0               1               0 
1
              1               0               0             -10 
              0               1               0              -5 
              0               0               1              -2 
1
              1               0               0               0 
              0               1               0               0 
              0               0               1               0 
2  2 -1 0
2  4 1 2 1 0
2  4 -1 0
2  2 -1 4 -1 0
1
2.22044604925031e-16               0               1               1 
              0               1               0               1 
             -1               0 2.22044604925031e-16               5 
2  9 -1 0
Curve2ds 36
8 0 10
1 4.7123889803846897 0 0 1 
8 0 10
1 2 -3 1 0 
8 0 10
1 -1.5707963267948966 0 0 1 
8 0.35316954888546093 4.6468304511145391
1 12 -2.5 0 -1 
8 0.35316954888546093 4.6468304511145391
1 0 -2.5 0 1 
8 0 10
1 2 -7 1 0 
8 0 10
1 1.5707963267948966 0 0 1 
8 0 10
1 1.5707963267948966 0 0 1 
8 0.35316954888546093 4.6468304511145391
1 2 -2.5 0 -1 
8 0.35316954888546093 4.6468304511145391
1 0 -2.5 0 1 
1 0 0 1 0 
2 0 0 1 0 -0 1 2
8 4.7123889803846897 6.2831853071795898
1 -6.2831853071795862 0 1 0 
1 0 10 1 0 
2 0 0 1 0 -0 1 2
8 4.7123889803846897 6.2831853071795898
1 -6.2831853071795862 10 1 0 
1 6.2831853071795862 -0 0 1 
1 0 -0 0 1 
2 0 0 1 0 -0 1 2
1 0 10 1 0 
8 0 1.5707963267949001
1 0 10 1 0 
1 0 0 1 0 
2 0 0 1 0 -0 1 2
8 0 1.5707963267949001
1 0 0 1 0 
7 0 0  8 30 5  1.0471975511965981 5.6812500386332125  1.0167504152567413 5.713967614092649  0.98571047930641464 5.7459433662006871  0.95397918566863471 5.7770785702083929  0.92145792378483915 5.8072324603586702  0.88803929798864745 5.8362069304973243  0.85360441720976787 5.8637430350269275  0.81800885546054114 5.8894972600295334  0.74675376679387051 5.9347307645937502  0.71140526388304559 5.954454263810808  0.67470967191151243 5.9718370828267924  0.63648872031703707 5.9863216760149403  0.59667509462624102 5.9970683678451735  0.5553294261066164 6.0030262102059195  0.51266263741370177 6.0028640912379849  0.42613170001726824 5.9880327410163305  0.38221116284603335 5.9734793542174245  0.33900642586288882 5.9507597721429972  0.29766486673009207 5.9198682367928832  0.25900034002704592 5.8816711186035793  0.22357195800743698 5.8375409335243349  0.19169536384315305 5.7891483854772154  0.11943743995320998 5.6588772166296213  0.083661437805504141 5.5722704909271661  0.05486830206244446 5.481030805174365  0.032574299948937728 5.3868785772336896  0.01620972215746995 5.291144470386218  0.0054431673477414316 5.1945964490647007  -8.5783476433411108e-16 5.0975928037287401  0 4.9999999999999822 
 0 9 0.23356403088958771 7 0.45017880299011015 7 0.66488945475593475 7 1 9
7 0 0  8 30 5  2.3202651922123754 0  2.3649582334916275 0.052735985369722189  2.4107619431636262 0.10543938842414724  2.457864557901047 0.15813352765455746  2.5064645703525539 0.21081304191602179  2.556792284186455 0.26344539790143495  2.6091156933592403 0.3159717205413185  2.6637750034457297 0.36830998162996242  2.7746314697208119 0.46863976017922038  2.8302441153438664 0.51650356890832005  2.888715864049145 0.56406218428436428  2.950529383376272 0.6111591260074426  3.0160871228399579 0.65738577358832584  3.0856703195664505 0.70211886518555955  3.1595052449986381 0.74455489306672618  3.3145747826703356 0.82280973280527137  3.3958642726603161 0.85874702066634634  3.479188595246157 0.88988377957613651  3.5630117694839667 0.91557165496538384  3.6461464582899499 0.93605113921283167  3.7275936624095074 0.95197800551431122  3.80645565177963 0.96414961595342175  3.9995934637789388 0.98766967693500252  4.1106638447310662 0.99494174172703764  4.2171590055108465 0.99838876400404764  4.3198959883564445 0.99965867656585927  4.4198369679869831 1.0000045255032937  4.5177905533523859 0.99999894743614304  4.6147961766559495 0.99999999999999978  4.7123889803847074 0.99999999999999978 
 0 9 0.23356403088958771 7 0.45017880299011015 7 0.66488945475593475 7 1 9
7 0 0  8 23 4  0 4.9999999999999831  9.3065751736350978e-16 4.8941224112066992  0.0064057756075617976 4.7878714078966862  0.019296334952456806 4.6828702547232233  0.038660124954262153 4.5812680839353703  0.064143455211081044 4.4854944479905186  0.094978086896778835 4.3980935450031176  0.12987287564899111 4.3211657385255462  0.18450888192939574 4.2244369513379745  0.20263871994409946 4.1958412388594235  0.22093962870149536 4.1701157141820353  0.23923135245905983 4.1471551468752867  0.25738034041943003 4.1267753834229071  0.2752941475358644 4.1087625829640704  0.29291235428077 4.0928980415654195  0.34034512681573348 4.0546949363196232  0.36947179487044929 4.0363242784088929  0.39753071292480441 4.0226423487765492  0.42454740104191591 4.0127688515461593  0.45057714038605912 4.0060323417426051  0.47569468105632468 4.0019096847460158  0.49999758940954042 4.0000000030658835  0.52359877559829904 4 
 0 9 0.43124700431813123 7 0.6385783453898124 7 1 9
7 0 0  8 23 4  4.7123889803847074 0.99999999999999978  4.8182665691779913 0.99999999999999978  4.9245179885449737 0.99999988838474807  5.0313253810958827 1.0000004678539347  5.1384138464637754 0.9995394963694606  5.2452403360728583 0.9976746168050179  5.3508864328877737 0.99301835412156503  5.4538730518268626 0.98450185722450489  5.5986757121612181 0.96636293333245626  5.6442974098821992 0.95963467295681348  5.6883033828590381 0.95208824887530186  5.7306015558165395 0.94378090273295712  5.7711786371575489 0.93479137576351967  5.810070407504444 0.92520454560386145  5.8473465341346893 0.91509926472071224  5.945430108411248 0.88614134095241182  6.0030939966816801 0.86638173306870747  6.0568380618756255 0.84555573812133678  6.1072119109622163 0.82390890538736605  6.1546619960570732 0.80163031380855465  6.1995766554855329 0.77885213651001051  6.2423068525598024 0.75565199198754651  6.2831853071795862 0.73205080756887686 
 0 9 0.43124700431813123 7 0.6385783453898124 7 1 9
7 0 0  8 16 3  0.52359877559829893 4  0.55887750531915947 3.9999999954171583  0.59383751978074018 4.0042672730835864  0.62791863886756483 4.0123183829036977  0.66085296264297944 4.0233906441908225  0.69252039437930946 4.0368199621524212  0.72292712253292091 4.0520605900431592  0.75219106778193801 4.0687500040304068  0.81850504441671257 4.1107793318218295  0.85467110798409784 4.1370345485950839  0.88938870342154308 4.1649031612275476  0.92284878448332486 4.1940250465857938  0.95522054070282159 4.2241231643925579  0.98664287261064221 4.2550135627198804  1.0172551453906564 4.2865747537108652  1.0471975511965976 4.3187499613667866 
 0 9 0.42744492275589169 7 1 9
7 0 0  8 16 3  0 0.73205080756887697  0.061104553830634956 0.69677208049392125  0.12023460728782887 0.65934839849255378  0.17669728657842487 0.62048486133601644  0.23034686544168803 0.58081346548771051  0.28120407780786749 0.54082760410478259  0.3294556393716217 0.50084229090136045  0.37541373649709531 0.46096339293692462  0.47859835297056463 0.36763829820730959  0.53411311494574143 0.31439982370430908  0.58684451738176602 0.26136426573940585  0.6372122580549604 0.20858462916595175  0.68557391753197372 0.15608426920952204  0.73220714727623992 0.10385907685122542  0.77737530832996793 0.0518617671506292  0.82132746137741552 0 
 0 9 0.42744492275589169 7 1 9
8 3.7119017293312759 6.2880982706687236
1 1.0471975511965972 2.220446049250316e-16 0 1 
8 3.7119017293312759 6.2880982706687236
1 5 0.73205080756887675 -1 0 
1 6.2831853071795862 -0 0 1 
1 0 -0 0 1 
1 0 0 1 0 
2 0 0 1 0 -0 1 1
Curves 15
1 0 -2 0 0 0 1 
1 0 -2.5 10 0 1 0 
1 0 2 0 0 0 1 
1 0 -2.5 0 0 1 0 
2 0 0 0 0 0 1 1 0 -0 -0 1 0 2
2 0 0 10 0 0 1 1 0 -0 -0 1 0 2
1 2 -4.898425415289509e-16 0 0 0 1 
2 0 0 10 0 0 1 1 0 -0 -0 1 0 2
2 0 0 0 0 0 1 1 0 -0 -0 1 0 2
7 0 0  8 30 5  0.99999999999999989 1.7320508075688781 5.6812500386332125  1.052735985369722 1.7016036698570189 5.713967614092649  1.1054393884241467 1.6687287751681366 5.7459433662006871  1.1581335276545588 1.6332450470454707 5.7770785702083929  1.2108130419160208 1.594947108535375 5.8072324603586702  1.2634453979014333 1.5535932600636997 5.8362069304973243  1.3159717205413199 1.5089054183912485 5.8637430350269275  1.3683099816299624 1.460545993589957 5.8894972600295334  1.46863976017922 1.3593378606171695 5.9347307645937502  1.5165035689083677 1.3072384760849933 5.954454263810808  1.5640621842842175 1.2512161277230911 5.9718370828267924  1.6111591260076397 1.1908304660846791 5.9863216760149403  1.6573857735881883 1.1257884163761545 5.9970683678451735  1.7021188651856014 1.0560363652899847 6.0030262102059195  1.7445548930667258 0.98187681679682048 6.0028640912379849  1.822809732805271 0.82751816765685005 5.9880327410163305  1.8587470206663657 0.74725281718949121 5.9734793542174245  1.8898837795760755 0.6664308717464501 5.9507597721429972  1.9155716549654649 0.58761922385071719 5.9198682367928832  1.9360511392127768 0.51290919575063476 5.8816711186035793  1.9519780055143268 0.4437907751223289 5.8375409335243349  1.9641496159534215 0.38118392088560638 5.7891483854772154  1.9876696769350022 0.23859487154814163 5.6588772166296213  1.9949417417270228 0.16727582764465709 5.5722704909271661  1.9983887640041127 0.10974162075150035 5.481030805174365  1.999658676565732 0.065145031381211749 5.3868785772336896  2.0000045255034165 0.032421103808960905 5.291144470386218  1.9999989474360937 0.010885950592602044 5.1945964490647007  2 -1.7156695286682224e-15 5.0975928037287401  2 0 4.9999999999999822 
 0 9 0.23356403088958771 7 0.45017880299011015 7 0.66488945475593475 7 1 9
7 0 0  8 23 4  2 0 4.9999999999999831  2 1.8613150347270196e-15 4.8941224112066992  1.999999888384755 0.012811372737928935 4.7878714078966862  2.0000004678539156 0.038593438168590871 4.6828702547232233  1.9995394963694815 0.077318640110322356 4.5812680839353703  1.9976746168050057 0.12828882313289569 4.4854944479905186  1.9930183541215687 0.18988799033190484 4.3980935450031176  1.984501857224505 0.25922563134005833 4.3211657385255462  1.9663629333324564 0.36698161571739174 4.2244369513379745  1.9596346729568168 0.40261883347114069 4.1958412388594235  1.9520882488752964 0.43844807710527578 4.1701157141820353  1.9437809027329582 0.47409278960757129 4.1471551468752867  1.9347913757635253 0.50927624567338214 4.1267753834229071  1.9252045456038571 0.54380989566373605 4.1087625829640704  1.9150992647207121 0.57757312880320544 4.0928980415654195  1.8861413409524115 0.66791088554114741 4.0546949363196232  1.866381733068708 0.72274997121383633 4.0363242784088929  1.8455557381213363 0.77491687627258166 4.0226423487765492  1.8239089053873665 0.82448172026807454 4.0127688515461593  1.8016303138085557 0.87158159323830919 4.0060323417426051  1.7788521365100098 0.91639105609120208 4.0019096847460158  1.7556519919875468 0.95912154538021577 4.0000000030658835  1.732050807568877 1 4 
 0 9 0.43124700431813123 7 0.6385783453898124 7 1 9
7 0 0  8 16 3  1.7320508075688772 1 4  1.6967720804939215 1.0611045538306345 3.9999999954171583  1.6593483984925013 1.1202346812283244 4.0042672730835864  1.6204848613361849 1.1763492367357016 4.0123183829036977  1.5808134654874761 1.2290517685657678 4.0233906441908225  1.5408276041049509 1.2782701282311641 4.0368199621524212  1.5008422909013079 1.3241620984714726 4.0520605900431592  1.4609633929369248 1.3670405445512275 4.0687500040304068  1.3676382982073099 1.4612774836047542 4.1107793318218295  1.3143998237043035 1.5103534942103352 4.1370345485950839  1.2613642657394299 1.5553188395494877 4.1649031612275476  1.2085846291659146 1.5966210155600447 4.1940250465857938  1.156084269209551 1.6346519175325664 4.2241231643925579  1.1038590768512166 1.6697213688004067 4.2550135627198804  1.0518617671506294 1.7021084000203088 4.2865747537108652  1.0000000000000002 1.7320508075688772 4.3187499613667866 
 0 9 0.42744492275589169 7 1 9
1 1.0000000000000011 1.7320508075688767 2.220446049250316e-16 0 0 1 
1 1 -2.4492127076447545e-16 0 0 0 1 
2 0 0 0 0 0 1 1 0 -0 -0 1 0 1
Polygon3D 0
PolygonOnTriangulations 44
2 1 2 
p 0.0137452943347953 1 0 10 
2 1 2 
p 0.0137452943347953 1 0 10 
2 1 21 
p 0.0137452943347953 1 0 10 
2 1 2 
p 0.0137452943347953 1 0 10 
2 2 3 
p 0.0137452943347953 1 0.5 4.5 
2 1 2 
p 0.0137452943347953 1 0.5 4.5 
2 1 2 
p 0.0137452943347953 1 0.5 4.5 
2 2 12 
p 0.0137452943347953 1 0 10 
2 4 3 
p 0.0137452943347953 1 0 10 
2 2 20 
p 0.0137452943347953 1 0 10 
2 12 3 
p 0.0137452943347953 1 0 10 
2 1 4 
p 0.0137452943347953 1 0.5 4.5 
2 1 2 
p 0.0137452943347953 1 0.5 4.5 
2 1 2 
p 0.0137452943347953 1 0.5 4.5 
10 1 13 14 15 16 17 18 19 20 12 
p 0.0137452943347953 1 4.71238898038469 4.88692190558412 5.06145483078356 5.23598775598299 5.41052068118242 5.58505360638186 5.75958653158129 5.93411945678073 6.10865238198016 6.28318530717959 
10 1 12 13 14 15 16 17 18 19 3 
p 0.0137452943347953 1 4.71238898038469 4.88692190558412 5.06145483078356 5.23598775598299 5.41052068118242 5.58505360638186 5.75958653158129 5.93411945678073 6.10865238198016 6.28318530717959 
10 1 4 5 6 7 8 9 10 11 3 
p 0.0137452943347953 1 4.71238898038469 4.88692190558412 5.06145483078356 5.23598775598299 5.41052068118242 5.58505360638186 5.75958653158129 5.93411945678073 6.10865238198016 6.28318530717959 
10 2 4 5 6 7 8 9 10 11 3 
p 0.0137452943347953 1 4.71238898038469 4.88692190558412 5.06145483078356 5.23598775598299 5.41052068118242 5.58505360638186 5.75958653158129 5.93411945678073 6.10865238198016 6.28318530717959 
10 1 12 13 14 15 16 17 18 19 3 
p 0.0137452943347953 1 4.71238898038469 4.88692190558412 5.06145483078356 5.23598775598299 5.41052068118242 5.58505360638186 5.75958653158129 5.93411945678073 6.10865238198016 6.28318530717959 
10 2 13 14 15 16 17 18 19 20 12 
p 0.0137452943347953 1 4.71238898038469 4.88692190558412 5.06145483078356 5.23598775598299 5.41052068118242 5.58505360638186 5.75958653158129 5.93411945678073 6.10865238198016 6.28318530717959 
2 3 21 
p 0.0137452943347953 1 0 5 
2 13 1 
p 0.0137452943347953 1 0 5 
2 21 12 
p 0.0137452943347953 1 5 10 
2 1 2 
p 0.0137452943347953 1 5 10 
10 11 13 14 15 16 17 18 19 20 12 
p 0.0137452943347953 1 0 0.174532925199433 0.349065850398867 0.5235987755983 0.698131700797733 0.872664625997167 1.0471975511966 1.22173047639603 1.39626340159547 1.5707963267949 
10 3 4 5 6 7 8 9 10 11 2 
p 0.0137452943347953 1 0 0.174532925199433 0.349065850398867 0.5235987755983 0.698131700797733 0.872664625997167 1.0471975511966 1.22173047639603 1.39626340159547 1.5707963267949 
10 2 4 5 6 7 8 9 10 11 3 
p 0.0137452943347953 1 0 0.174532925199433 0.349065850398867 0.5235987755983 0.698131700797733 0.872664625997167 1.0471975511966 1.22173047639603 1.39626340159547 1.5707963267949 
10 1 3 4 5 6 7 8 9 10 2 
p 0.0137452943347953 1 0 0.174532925199433 0.349065850398867 0.5235987755983 0.698131700797733 0.872664625997167 1.0471975511966 1.22173047639603 1.39626340159547 1.5707963267949 
10 3 4 5 6 7 8 9 10 11 2 
p 0.0137452943347953 1 0 0.174532925199433 0.349065850398867 0.5235987755983 0.698131700797733 0.872664625997167 1.0471975511966 1.22173047639603 1.39626340159547 1.5707963267949 
10 13 14 15 16 17 18 19 20 21 12 
p 0.0137452943347953 1 0 0.174532925199433 0.349065850398867 0.5235987755983 0.698131700797733 0.872664625997167 1.0471975511966 1.22173047639603 1.39626340159547 1.5707963267949 
13 22 23 24 25 26 27 28 29 30 31 32 33 1 
p 0.0137452943347953 1 0 0.133280178814704 0.241237123654614 0.340042035392087 0.422390806492424 0.49261976237292 0.55641765705301 0.61383576226509 0.687580595121945 0.773707752940066 0.865399608469326 0.932699804234663 1 
13 1 3 4 5 6 7 8 9 10 11 12 13 2 
p 0.0137452943347953 1 0 0.133280178814704 0.241237123654614 0.340042035392087 0.422390806492424 0.49261976237292 0.55641765705301 0.61383576226509 0.687580595121945 0.773707752940066 0.865399608469326 0.932699804234663 1 
10 1 35 36 37 38 39 40 41 42 34 
p 0.0137452943347953 1 0 0.10744439664062 0.21488879328124 0.32233318992186 0.42977758656248 0.5372219832031 0.676460989377689 0.837627584338619 0.918813792169309 1 
10 2 15 16 17 18 19 20 21 22 14 
p 0.0137452943347953 1 0 0.10744439664062 0.21488879328124 0.32233318992186 0.42977758656248 0.5372219832031 0.676460989377689 0.837627584338619 0.918813792169309 1 
6 34 44 45 46 47 43 
p 0.0137452943347953 1 0 0.187022385761478 0.411449248675252 0.673356028400084 0.836678014200042 1 
6 5 6 7 8 9 2 
p 0.0137452943347953 1 0 0.187022385761478 0.411449248675252 0.673356028400084 0.836678014200042 1 
2 43 22 
p 0.0137452943347953 1 4.31874996136679 5.68125003863321 
2 2 5 
p 0.0137452943347953 1 4.31874996136679 5.68125003863321 
2 23 14 
p 0.0137452943347953 1 0 0.732050807568877 
2 1 5 
p 0.0137452943347953 1 0 0.732050807568877 
17 1 24 25 26 27 28 29 30 31 32 33 34 35 36 37 38 23 
p 0.0137452943347953 1 2.32026519221238 2.56794769939783 2.81563020658328 3.06331271376873 3.31099522095418 3.55867772813963 3.80636023532508 4.05404274251053 4.30172524969598 4.54940775688143 4.79709026406688 5.04477277125233 5.29245527843778 5.54013778562323 5.78782029280868 6.03550279999413 6.28318530717959 
17 5 6 7 8 9 10 11 12 13 14 15 16 17 18 19 20 1 
p 0.0137452943347953 1 2.32026519221238 2.56794769939783 2.81563020658328 3.06331271376873 3.31099522095418 3.55867772813963 3.80636023532508 4.05404274251053 4.30172524969598 4.54940775688143 4.79709026406688 5.04477277125233 5.29245527843778 5.54013778562323 5.78782029280868 6.03550279999413 6.28318530717959 
4 1 3 4 2 
p 0.0137452943347953 1 0 0.273775820459139 0.547551640918278 0.821327461377416 
4 1 3 4 2 
p 0.0137452943347953 1 0 0.273775820459139 0.547551640918278 0.821327461377416 
Surfaces 8
1 10 0 0 1 0 -0 0 0 1 0 -1 0 
2 0 0 0 0 0 1 1 0 -0 -0 1 0 2
2 0 0 0 0 0 1 1 0 0 0 1 0 2
1 0 0 10 0 0 1 1 0 -0 -0 1 0 
2 0 0 0 0 0 1 1 0 -0 -0 1 0 2
1 0 0 0 0 0 1 1 0 -0 -0 1 0 
2 0 0 0 0 0 1 1 0 -0 -0 1 0 1
1 0 0 0 0 0 1 1 0 -0 -0 1 0 
Triangulations 13
4 2 1 2.5357526258398e-16
-3.67381906146713e-16 -2 0 -3.67381906146713e-16 -2 10 1.22460635382238e-16 2 10 1.22460635382238e-16 2 0 2 -3 12 -3 12 -7 2 -7 2 4 3 2 1 4 
20 18 1 0.00761060381650911
-3.67381906146713e-16 -2 0 -3.67381906146713e-16 -2 10 2 -4.89842541528951e-16 10 0.347296355333862 -1.96961550602442 10 0.68404028665134 -1.87938524157182 10 1 -1.73205080756888 10 1.28557521937308 -1.53208888623795 10 1.53208888623796 -1.28557521937307 10 1.73205080756888 -0.999999999999993 10 1.87938524157182 -0.684040286651329 10 1.96961550602442 -0.34729635533385 10 2 -4.89842541528951e-16 0 0.347296355333862 -1.96961550602442 0 0.68404028665134 -1.87938524157182 0 1 -1.73205080756888 0 1.28557521937308 -1.53208888623795 0 1.53208888623796 -1.28557521937307 0 1.73205080756888 -0.999999999999993 0 1.87938524157182 -0.684040286651329 0 1.96961550602442 -0.34729635533385 0 4.71238898038469 0 4.71238898038469 10 6.28318530717959 10 4.88692190558412 10 5.06145483078356 10 5.23598775598299 10 5.41052068118242 10 5.58505360638186 10 5.75958653158129 10 5.93411945678073 10 6.10865238198016 10 6.28318530717959 0 4.88692190558412 0 5.06145483078356 0 5.23598775598299 0 5.41052068118242 0 5.58505360638186 0 5.75958653158129 0 5.93411945678073 0 6.10865238198016 0 2 1 13 4 13 14 4 2 13 5 14 15 5 4 14 6 15 16 6 5 15 7 16 17 7 6 16 8 17 18 8 7 17 9 18 19 9 8 18 10 19 20 10 9 19 11 20 12 11 10 20 3 11 12 
65 65 1 0.00761060381650926
-3.67381906146713e-16 -2 0 1.22460635382238e-16 2 0 0.347296355333868 -1.96961550602441 0 0.684040286651344 -1.87938524157181 0 1.00000000000001 -1.73205080756887 0 1.28557521937308 -1.53208888623795 0 1.53208888623796 -1.28557521937307 0 1.73205080756888 -0.999999999999994 0 1.87938524157182 -0.68404028665133 0 1.96961550602442 -0.347296355333853 0 2 7.43849426498855e-15 0 1.96961550602441 0.347296355333868 0 1.87938524157181 0.684040286651344 0 1.73205080756887 1.00000000000001 0 1.53208888623795 1.28557521937308 0 1.28557521937307 1.53208888623796 0 0.999999999999994 1.73205080756888 0 0.684040286651331 1.87938524157182 0 0.347296355333853 1.96961550602442 0 1.22460635382238e-16 2 10 -3.67381906146713e-16 -2 10 0.34729635533386 -1.96961550602442 10 0.684040286651336 -1.87938524157182 10 0.999999999999999 -1.73205080756888 10 1.28557521937308 -1.53208888623796 10 1.53208888623795 -1.28557521937308 10 1.73205080756888 -1 10 1.87938524157182 -0.684040286651341 10 1.96961550602442 -0.347296355333864 10 2 -4.04255622032945e-15 10 1.96961550602442 0.347296355333856 10 1.87938524157182 0.684040286651333 10 1.73205080756888 0.999999999999995 10 1.53208888623796 1.28557521937307 10 1.28557521937308 1.53208888623795 10 1.00000000000001 1.73205080756887 10 0.684040286651344 1.87938524157181 10 0.347296355333868 1.96961550602441 10 1 1.73205080756888 4.31874996136679 1 1.73205080756888 5.68125003863321 1.73205080756888 1 4 1.60013337496175 1.19982214564076 4.02016781738018 1.43301426765703 1.39515952854561 4.08138748613269 1.23857550173601 1.57032822525004 4.17858310088266 1.11875734642046 1.6578244803034 4.24682873200189 2 -4.89842541528951e-16 5 1.9998753386975 0.0223303784430507 4.78985217576749 1.99803576865049 0.0886175024799289 4.58843962555086 1.99051127439151 0.194588934159727 4.40728336247146 1.97258491307184 0.330013273887316 4.25762692201371 1.94233349217937 0.476802488149819 4.14778854610411 1.88871343962192 0.657846118766615 4.06035605852875 1.81434243348109 0.841523336889793 4.01263727496541 1.77387317221046 0.92378242836598 4.00290879073139 1.24048229318484 1.56882239069873 5.82246039414449 1.43402993492017 1.39411554341372 5.91906090428251 1.60707971795827 1.19050190287921 5.98168682789949 1.74217597761149 0.982253969564564 5.99984252249271 1.84149963564802 0.780307046315801 5.9755690670722 1.90955431579187 0.594644697114414 5.91415921950494 1.95055722232724 0.441957613180972 5.8298124460455 1.98024710786393 0.28039532972893 5.69438404922498 1.99489132350184 0.142858859612764 5.51508163805171 1.99938875042075 0.0494419586150867 5.31054685244434 1.99996241608763 0.0122645266977549 5.15613672232847 -1.57079632679489 0 1.5707963267949 0 -1.39626340159546 0 -1.22173047639603 0 -1.04719755119659 0 -0.872664625997161 0 -0.698131700797728 0 -0.523598775598295 0 -0.349065850398862 0 -0.174532925199429 0 3.77475828372553e-15 0 0.174532925199437 0 0.349065850398869 0 0.523598775598303 0 0.698131700797735 0 0.872664625997169 0 1.0471975511966 0 1.22173047639603 0 1.39626340159547 0 1.5707963267949 10 -1.5707963267949 10 -1.39626340159546 10 -1.22173047639603 10 -1.0471975511966 10 -0.872664625997166 10 -0.698131700797733 10 -0.5235987755983 10 -0.349065850398867 10 -0.174532925199435 10 -1.77635683940025e-15 10 0.174532925199431 10 0.349065850398864 10 0.523598775598296 10 0.698131700797729 10 0.872664625997162 10 1.04719755119659 10 1.22173047639603 10 1.39626340159546 10 1.0471975511966 4.31874996136679 1.0471975511966 5.68125003863321 0.523598775598299 4 0.643389948933223 4.02016780092719 0.772014159311766 4.08138753685279 0.902961086644455 4.17858309453882 0.977160287467381 4.24682871745841 2.22044604925031e-16 4.99999999999998 0.0111654267213279 4.78985216985236 0.0443232765623132 4.58843962649861 0.097448636078624 4.40728336467662 0.165765326074273 4.2576259075142 0.240719270187781 4.14778857680432 0.335162971048532 4.06035603243524 0.434284764999167 4.01263727215907 0.480126314760647 4.00290878094013 0.901746238162991 5.82246040106638 0.771287716371716 5.91905973078786 0.637577920224154 5.98168683076011 0.513383246161581 5.99984250800983 0.400798273563099 5.97556872620425 0.301887107109011 5.9141589167632 0.222817971864201 5.82981244617987 0.140662046748933 5.69438564032578 0.071490311242403 5.51508164127231 0.0247234969078505 5.31054685613755 0.00613230313934365 5.15613671993895 54 53 14 32 31 60 32 60 59 41 54 14 22 1 3 22 21 1 23 3 4 42 14 15 23 22 3 42 41 14 33 32 59 24 4 5 33 59 58 24 23 4 57 33 58 25 5 6 25 24 5 43 42 15 16 43 15 26 6 7 26 25 6 34 57 56 27 7 8 34 33 57 27 26 7 44 43 16 28 8 9 28 27 8 45 16 17 29 9 10 45 44 16 29 28 9 35 56 55 46 29 10 35 34 56 46 10 11 47 46 11 39 45 17 18 39 17 36 35 55 48 47 11 49 11 12 49 48 11 37 40 39 37 39 18 37 36 40 30 29 46 30 64 63 38 18 19 30 65 64 30 46 65 38 37 18 20 19 2 50 49 12 20 38 19 55 40 36 51 50 12 13 51 12 31 30 63 31 62 61 31 63 62 52 51 13 60 31 61 53 13 14 53 52 13 
21 19 1 0.00761060381650911
-3.67381906146713e-16 -2 0 -3.67381906146713e-16 -2 10 2 -4.89842541528951e-16 0 0.347296355333862 -1.96961550602442 0 0.68404028665134 -1.87938524157182 0 1 -1.73205080756888 0 1.28557521937308 -1.53208888623795 0 1.53208888623796 -1.28557521937307 0 1.73205080756888 -0.999999999999993 0 1.87938524157182 -0.684040286651329 0 1.96961550602442 -0.34729635533385 0 2 -4.89842541528951e-16 10 0.347296355333862 -1.96961550602442 10 0.68404028665134 -1.87938524157182 10 1 -1.73205080756888 10 1.28557521937308 -1.53208888623795 10 1.53208888623796 -1.28557521937307 10 1.73205080756888 -0.999999999999993 10 1.87938524157182 -0.684040286651329 10 1.96961550602442 -0.34729635533385 10 2 -4.89842541528951e-16 5 4.71238898038469 0 4.71238898038469 10 6.28318530717959 0 4.88692190558412 0 5.06145483078356 0 5.23598775598299 0 5.41052068118242 0 5.58505360638186 0 5.75958653158129 0 5.93411945678073 0 6.10865238198016 0 6.28318530717959 10 4.88692190558412 10 5.06145483078356 10 5.23598775598299 10 5.41052068118242 10 5.58505360638186 10 5.75958653158129 10 5.93411945678073 10 6.10865238198016 10 6.28318530717959 5 2 1 4 13 4 5 13 2 4 14 5 6 14 13 5 15 6 7 15 14 6 16 7 8 16 15 7 17 8 9 17 16 8 18 9 10 18 17 9 19 10 11 19 18 10 20 19 11 21 11 3 21 20 11 12 20 21 
20 19 1 2.44921270764476e-16
-3.67381906146713e-16 -2 10 1.22460635382238e-16 2 10 2 -4.89842541528951e-16 10 1.96961550602442 0.347296355333861 10 1.87938524157182 0.684040286651339 10 1.73205080756888 1 10 1.53208888623795 1.28557521937308 10 1.28557521937308 1.53208888623796 10 0.999999999999996 1.73205080756888 10 0.684040286651332 1.87938524157182 10 0.347296355333854 1.96961550602442 10 0.347296355333862 -1.96961550602442 10 0.68404028665134 -1.87938524157182 10 1 -1.73205080756888 10 1.28557521937308 -1.53208888623795 10 1.53208888623796 -1.28557521937307 10 1.73205080756888 -0.999999999999993 10 1.87938524157182 -0.684040286651329 10 1.96961550602442 -0.34729635533385 10 1 0 10 0 -2 0 2 2 0 1.96961550602442 0.347296355333861 1.87938524157182 0.684040286651339 1.73205080756888 1 1.53208888623795 1.28557521937308 1.28557521937308 1.53208888623796 0.999999999999996 1.73205080756888 0.684040286651332 1.87938524157182 0.347296355333854 1.96961550602442 0.347296355333862 -1.96961550602442 0.68404028665134 -1.87938524157182 1 -1.73205080756888 1.28557521937308 -1.53208888623795 1.53208888623796 -1.28557521937307 1.73205080756888 -0.999999999999993 1.87938524157182 -0.684040286651329 1.96961550602442 -0.34729635533385 1 0 20 2 1 20 3 4 20 4 5 20 5 6 20 6 7 20 7 8 20 8 9 20 9 10 20 10 11 20 11 2 20 1 12 20 12 13 20 13 14 20 14 15 20 15 16 20 16 17 20 17 18 20 18 19 20 19 3 
20 19 1 1.66533453693773e-16
-3.67381906146713e-16 -2 10 1.22460635382238e-16 2 10 0.34729635533386 -1.96961550602442 10 0.684040286651336 -1.87938524157182 10 0.999999999999999 -1.73205080756888 10 1.28557521937308 -1.53208888623796 10 1.53208888623795 -1.28557521937308 10 1.73205080756888 -1 10 1.87938524157182 -0.684040286651341 10 1.96961550602442 -0.347296355333864 10 2 -4.04255622032945e-15 10 1.96961550602442 0.347296355333856 10 1.87938524157182 0.684040286651333 10 1.73205080756888 0.999999999999995 10 1.53208888623796 1.28557521937307 10 1.28557521937308 1.53208888623795 10 1.00000000000001 1.73205080756887 10 0.684040286651344 1.87938524157181 10 0.347296355333868 1.96961550602441 10 1 0 10 0 -2 0 2 0.34729635533386 -1.96961550602442 0.684040286651336 -1.87938524157182 0.999999999999999 -1.73205080756888 1.28557521937308 -1.53208888623796 1.53208888623795 -1.28557521937308 1.73205080756888 -1 1.87938524157182 -0.68404028665134 1.96961550602442 -0.347296355333864 2 -3.99680288865056e-15 1.96961550602442 0.347296355333856 1.87938524157182 0.684040286651333 1.73205080756888 0.999999999999996 1.53208888623796 1.28557521937307 1.28557521937308 1.53208888623795 1.00000000000001 1.73205080756887 0.684040286651344 1.87938524157181 0.347296355333868 1.96961550602441 1 0 20 2 1 20 1 3 20 3 4 20 4 5 20 5 6 20 6 7 20 7 8 20 8 9 20 9 10 20 10 11 20 11 12 20 12 13 20 13 14 20 14 15 20 15 16 20 16 17 20 17 18 20 18 19 20 19 2 
20 18 1 0.00761060381650915
2 -4.89842541528951e-16 0 1.22460635382238e-16 2 0 1.96961550602442 0.347296355333861 0 1.87938524157182 0.684040286651339 0 1.73205080756888 1 0 1.53208888623795 1.28557521937308 0 1.28557521937308 1.53208888623796 0 0.999999999999996 1.73205080756888 0 0.684040286651332 1.87938524157182 0 0.347296355333854 1.96961550602442 0 2 -4.89842541528951e-16 10 1.22460635382238e-16 2 10 1.96961550602442 0.347296355333861 10 1.87938524157182 0.684040286651339 10 1.73205080756888 1 10 1.53208888623795 1.28557521937308 10 1.28557521937308 1.53208888623796 10 0.999999999999996 1.73205080756888 10 0.684040286651332 1.87938524157182 10 0.347296355333854 1.96961550602442 10 0 0 1.5707963267949 0 0.174532925199433 0 0.349065850398867 0 0.5235987755983 0 0.698131700797733 0 0.872664625997167 0 1.0471975511966 0 1.22173047639603 0 1.39626340159547 0 0 10 1.5707963267949 10 0.174532925199433 10 0.349065850398867 10 0.5235987755983 10 0.698131700797733 10 0.872664625997167 10 1.0471975511966 10 1.22173047639603 10 1.39626340159547 10 13 1 3 13 11 1 14 3 4 14 13 3 15 4 5 15 14 4 16 5 6 16 15 5 17 6 7 17 7 8 17 16 6 18 17 8 19 8 9 19 18 8 20 9 10 20 19 9 12 10 2 12 20 10 
47 46 1 0.00761060381650921
2 -4.89842541528951e-16 5 2 -4.89842541528951e-16 10 1.22460635382238e-16 2 10 1.96961550602442 0.347296355333861 10 1.87938524157182 0.684040286651339 10 1.73205080756888 1 10 1.53208888623795 1.28557521937308 10 1.28557521937308 1.53208888623796 10 0.999999999999996 1.73205080756888 10 0.684040286651332 1.87938524157182 10 0.347296355333854 1.96961550602442 10 1.22460635382238e-16 2 0 2 -4.89842541528951e-16 0 1.96961550602442 0.347296355333861 0 1.87938524157182 0.684040286651339 0 1.73205080756888 1 0 1.53208888623795 1.28557521937308 0 1.28557521937308 1.53208888623796 0 0.999999999999996 1.73205080756888 0 0.684040286651332 1.87938524157182 0 0.347296355333854 1.96961550602442 0 1 1.73205080756888 5.68125003863321 1.24048229318484 1.56882239069873 5.82246039414449 1.43402993492017 1.39411554341372 5.91906090428251 1.60707971795827 1.19050190287921 5.98168682789949 1.74217597761149 0.982253969564564 5.99984252249271 1.84149963564802 0.780307046315801 5.9755690670722 1.90955431579187 0.594644697114414 5.91415921950494 1.95055722232724 0.441957613180972 5.8298124460455 1.98024710786393 0.28039532972893 5.69438404922498 1.99489132350184 0.142858859612764 5.51508163805171 1.99938875042075 0.0494419586150867 5.31054685244434 1.99996241608763 0.0122645266977549 5.15613672232847 1.73205080756888 1 4 1.9998753386975 0.0223303784430507 4.78985217576749 1.99803576865049 0.0886175024799289 4.58843962555086 1.99051127439151 0.194588934159727 4.40728336247146 1.97258491307184 0.330013273887316 4.25762692201371 1.94233349217937 0.476802488149819 4.14778854610411 1.88871343962192 0.657846118766615 4.06035605852875 1.81434243348109 0.841523336889793 4.01263727496541 1.77387317221046 0.92378242836598 4.00290879073139 1 1.73205080756888 4.31874996136679 1.60013337496175 1.19982214564076 4.02016781738018 1.43301426765703 1.39515952854561 4.08138748613269 1.23857550173601 1.57032822525004 4.17858310088266 1.11875734642046 1.6578244803034 4.24682873200189 0 5 0 10 1.5707963267949 10 0.174532925199433 10 0.349065850398867 10 0.5235987755983 10 0.698131700797733 10 0.872664625997167 10 1.0471975511966 10 1.22173047639603 10 1.39626340159547 10 1.5707963267949 0 0 0 0.174532925199433 0 0.349065850398867 0 0.5235987755983 0 0.698131700797733 0 0.872664625997167 0 1.0471975511966 0 1.22173047639603 0 1.39626340159547 0 1.0471975511966 5.68125003863321 0.901746239232893 5.82246039414449 0.771285826789065 5.91906090428251 0.637577919987958 5.98168682789949 0.513383048601699 5.99984252249271 0.400798324922251 5.9755690670722 0.301886946578452 5.91415921950494 0.222817972070325 5.8298124460455 0.14066104068829 5.69438404922498 0.0714903081802944 5.51508163805171 0.0247235033843023 5.31054685244434 0.00613229793193554 5.15613672232847 0.523598775598299 4 0.011165418138626 4.78985217576749 0.0443232632821499 4.58843962555086 0.0974486286823575 4.40728336247146 0.165764740454833 4.25762692201371 0.240719295648803 4.14778854610411 0.335162952689773 4.06035605852875 0.434284765172602 4.01263727496541 0.480126316592792 4.00290879073139 1.0471975511966 4.31874996136679 0.643389954488479 4.02016781738018 0.772014092536229 4.08138748613269 0.902961083743141 4.17858310088266 0.977160286387809 4.24682873200189 8 7 24 8 24 23 43 47 19 35 1 13 20 43 19 20 22 43 9 8 23 36 35 13 37 13 14 10 22 20 37 36 13 10 9 22 2 32 31 11 20 21 2 33 32 11 21 12 2 1 33 11 10 20 3 11 12 38 37 14 23 22 9 39 38 14 15 39 14 4 30 29 4 31 30 4 2 31 40 39 15 28 4 29 41 15 16 41 40 15 42 41 16 5 28 27 5 4 28 34 42 16 44 16 17 44 34 16 6 27 26 6 5 27 25 6 26 45 44 17 18 45 17 7 6 25 7 25 24 46 45 18 47 46 18 47 18 19 
20 19 1 2.44921270764476e-16
-3.67381906146713e-16 -2 0 1.22460635382238e-16 2 0 2 -4.89842541528951e-16 0 1.96961550602442 0.347296355333861 0 1.87938524157182 0.684040286651339 0 1.73205080756888 1 0 1.53208888623795 1.28557521937308 0 1.28557521937308 1.53208888623796 0 0.999999999999996 1.73205080756888 0 0.684040286651332 1.87938524157182 0 0.347296355333854 1.96961550602442 0 0.347296355333862 -1.96961550602442 0 0.68404028665134 -1.87938524157182 0 1 -1.73205080756888 0 1.28557521937308 -1.53208888623795 0 1.53208888623796 -1.28557521937307 0 1.73205080756888 -0.999999999999993 0 1.87938524157182 -0.684040286651329 0 1.96961550602442 -0.34729635533385 0 1 0 0 0 -2 0 2 2 0 1.96961550602442 0.347296355333861 1.87938524157182 0.684040286651339 1.73205080756888 1 1.53208888623795 1.28557521937308 1.28557521937308 1.53208888623796 0.999999999999996 1.73205080756888 0.684040286651332 1.87938524157182 0.347296355333854 1.96961550602442 0.347296355333862 -1.96961550602442 0.68404028665134 -1.87938524157182 1 -1.73205080756888 1.28557521937308 -1.53208888623795 1.53208888623796 -1.28557521937307 1.73205080756888 -0.999999999999993 1.87938524157182 -0.684040286651329 1.96961550602442 -0.34729635533385 1 0 20 2 1 20 3 4 20 4 5 20 5 6 20 6 7 20 7 8 20 8 9 20 9 10 20 10 11 20 11 2 20 1 12 20 12 13 20 13 14 20 14 15 20 15 16 20 16 17 20 17 18 20 18 19 20 19 3 
20 19 1 1.66533453693773e-16
-3.67381906146713e-16 -2 0 1.22460635382238e-16 2 0 0.347296355333868 -1.96961550602441 0 0.684040286651344 -1.87938524157181 0 1.00000000000001 -1.73205080756887 0 1.28557521937308 -1.53208888623795 0 1.53208888623796 -1.28557521937307 0 1.73205080756888 -0.999999999999994 0 1.87938524157182 -0.68404028665133 0 1.96961550602442 -0.347296355333853 0 2 7.43849426498855e-15 0 1.96961550602441 0.347296355333868 0 1.87938524157181 0.684040286651344 0 1.73205080756887 1.00000000000001 0 1.53208888623795 1.28557521937308 0 1.28557521937307 1.53208888623796 0 0.999999999999994 1.73205080756888 0 0.684040286651331 1.87938524157182 0 0.347296355333853 1.96961550602442 0 1 0 0 0 -2 0 2 0.347296355333868 -1.96961550602441 0.684040286651344 -1.87938524157181 1.00000000000001 -1.73205080756887 1.28557521937308 -1.53208888623795 1.53208888623796 -1.28557521937307 1.73205080756888 -0.999999999999994 1.87938524157182 -0.68404028665133 1.96961550602442 -0.347296355333853 2 7.54951656745106e-15 1.96961550602441 0.347296355333868 1.87938524157181 0.684040286651344 1.73205080756887 1.00000000000001 1.53208888623795 1.28557521937308 1.28557521937307 1.53208888623796 0.999999999999994 1.73205080756888 0.684040286651331 1.87938524157182 0.347296355333853 1.96961550602442 1 0 20 2 1 20 1 3 20 3 4 20 4 5 20 5 6 20 6 7 20 7 8 20 8 9 20 9 10 20 10 11 20 11 12 20 12 13 20 13 14 20 14 15 20 15 16 20 16 17 20 17 18 20 18 19 20 19 2 
38 36 1 0.00605301377262471
1 1.73205080756888 5.68125003863321 2 -4.89842541528951e-16 5 1.24048229318484 1.56882239069873 5.82246039414449 1.43402993492017 1.39411554341372 5.91906090428251 1.60707971795827 1.19050190287921 5.98168682789949 1.74217597761149 0.982253969564564 5.99984252249271 1.84149963564802 0.780307046315801 5.9755690670722 1.90955431579187 0.594644697114414 5.91415921950494 1.95055722232724 0.441957613180972 5.8298124460455 1.98024710786393 0.28039532972893 5.69438404922498 1.99489132350184 0.142858859612764 5.51508163805171 1.99938875042075 0.0494419586150867 5.31054685244434 1.99996241608763 0.0122645266977549 5.15613672232847 1.73205080756888 1 4 1.9998753386975 0.0223303784430507 4.78985217576749 1.99803576865049 0.0886175024799289 4.58843962555086 1.99051127439151 0.194588934159727 4.40728336247146 1.97258491307184 0.330013273887316 4.25762692201371 1.94233349217937 0.476802488149819 4.14778854610411 1.88871343962192 0.657846118766615 4.06035605852875 1.81434243348109 0.841523336889793 4.01263727496541 1.77387317221046 0.92378242836598 4.00290879073139 1 1 4 1 1.54269714773929 5.83992845280752 1 1.32022070143252 5.94734296977075 1 1.07820001767526 5.99693768974575 1 0.83140650159566 5.98568566606996 1 0.594902861687974 5.91427365079138 1 0.383123777770166 5.78706017968606 1 0.208994899822458 5.6118095549214 1 0.083143948421233 5.39921796137373 1 0.0132520661864173 5.1622606394497 1 0.00358500962953112 4.9153999588356 1 0.0547327944739489 4.6737027273222 1 0.163573684843151 4.45192060856739 1 0.323464724188162 4.26358977425473 1 0.524647179156683 4.12020474216082 1 0.7548421506857 4.03051682380787 2.32026519221238 0 4.71238898038471 1 2.53651932101137 0.240482293184836 2.73648734705961 0.43402993492017 2.94991926547433 0.60707971795827 3.15933961862768 0.742175977611485 3.363092375699 0.841499635648022 3.55896011732797 0.909554315791866 3.73361747744334 0.95055722232724 3.9448254724206 0.980247107863935 4.17128611068064 0.994891323501842 4.39662065107608 0.999388750420749 4.55561083437125 0.99996241608763 6.28318530717959 0.732050807568877 4.92411512530744 0.999875338697502 5.13655448157357 0.998035768650485 5.34681664460302 0.990511274391507 5.54899440013362 0.972584913071845 5.73258663902991 0.942333492179365 5.93397714857373 0.888713439621922 6.12403768417551 0.814342433481088 6.20689374612166 0.773873172210459 6.28318530717959 0 2.56794769939783 0 2.81563020658328 0 3.06331271376873 0 3.31099522095418 0 3.55867772813963 0 3.80636023532508 0 4.05404274251053 0 4.30172524969598 0 4.54940775688143 0 4.79709026406688 0 5.04477277125233 0 5.29245527843778 0 5.54013778562323 0 5.78782029280868 0 6.03550279999413 0 3 1 24 4 24 25 4 3 24 5 25 26 5 4 25 6 26 27 6 5 26 7 27 28 7 6 27 8 7 28 9 28 29 9 8 28 10 29 30 10 9 29 11 30 31 11 10 30 12 31 32 12 11 31 13 12 32 2 32 33 2 13 32 15 33 34 15 2 33 16 34 35 16 15 34 17 35 36 17 16 35 18 17 36 19 18 36 19 36 37 20 19 37 20 37 38 21 20 38 22 21 38 22 38 23 14 22 23 
9 7 1 0.00669485450761149
1 1 4 1 1.73205080756888 4.31874996136679 1 1.27036855254164 4.03724310140278 1 1.52059837824641 4.14619830840692 1.73205080756888 1 4 1.60013337496175 1.19982214564076 4.02016781738018 1.43301426765703 1.39515952854561 4.08138748613269 1.23857550173601 1.57032822525004 4.17858310088266 1.11875734642046 1.6578244803034 4.24682873200189 0 0 0.821327461377416 0 0.273775820459139 0 0.547551640918278 0 0 0.732050807568877 0.201176400922048 0.60013337496175 0.406241508243795 0.433014267657035 0.606905383591012 0.238575501736006 0.717926623979333 0.118757346420462 6 1 3 6 5 1 7 3 4 7 6 3 8 7 4 9 8 4 2 9 4 
21 20 1 4.30211422042248e-16
1 1 4 1 1.73205080756888 4.31874996136679 1 1.27036855254164 4.03724310140278 1 1.52059837824641 4.14619830840692 1 1.73205080756888 5.68125003863321 1 1.54269714773929 5.83992845280752 1 1.32022070143252 5.94734296977075 1 1.07820001767526 5.99693768974575 1 0.83140650159566 5.98568566606996 1 0.594902861687974 5.91427365079138 1 0.383123777770166 5.78706017968606 1 0.208994899822458 5.6118095549214 1 0.083143948421233 5.39921796137373 1 0.0132520661864173 5.1622606394497 1 0.00358500962953112 4.9153999588356 1 0.0547327944739489 4.6737027273222 1 0.163573684843151 4.45192060856739 1 0.323464724188162 4.26358977425473 1 0.524647179156683 4.12020474216082 1 0.7548421506857 4.03051682380787 1 0.867817908599204 4.99846884487287 1 0 0.681250038633213 0.732050807568877 0.962756898597222 0.270368552541635 0.853801691593082 0.520598378246409 -0.681250038633213 0.732050807568877 -0.839928452807522 0.542697147739292 -0.947342969770749 0.320220701432523 -0.996937689745748 0.0782000176752592 -0.985685666069963 -0.16859349840434 -0.914273650791385 -0.405097138312026 -0.787060179686057 -0.616876222229834 -0.611809554921397 -0.791005100177542 -0.399217961373726 -0.916856051578767 -0.1622606394497 -0.986747933813583 0.0846000411644022 -0.996414990370469 0.3262972726778 -0.945267205526051 0.548079391432606 -0.836426315156849 0.73641022574527 -0.676535275811838 0.879795257839176 -0.475352820843317 0.969483176192133 -0.2451578493143 0.00153115512712609 -0.132182091400796 21 1 3 21 3 4 21 4 2 21 5 6 21 6 7 21 7 8 21 8 9 21 9 10 21 10 11 21 11 12 21 12 13 21 13 14 21 14 15 21 15 16 21 16 17 21 17 18 21 18 19 21 19 20 21 20 1 21 2 5 

TShapes 49
Ve
2.00001e-07
-3.67381906146713e-16 -2 0
0 0

0101101
*
Ve
2.00001e-07
-3.67381906146713e-16 -2 10
0 0

0101101
*
Ed
 1e-07 1 1 0
1  1 0 0 10
2  1 2 4 0 10
2  2 1 3 0 10
6  1 2 0
6  2 1 0
2  3 3 5 0 10
6  3 3 5
6  4 4 5
0

0101000
+49 5 -48 5 *
Ve
2.00001e-07
1.22460635382238e-16 2 10
0 0

0101101
*
Ed
 1e-07 1 1 0
1  2 0 0.5 4.5
2  4 1 3 0.5 4.5
2  5 4 4 0.5 4.5
6  5 1 0
6  6 5 0
6  7 6 0
0

0101000
+48 5 -46 5 *
Ve
2.00001e-07
1.22460635382238e-16 2 0
0 0

0101101
*
Ed
 1e-07 1 1 0
1  3 0 0 10
2  6 1 3 0 10
2  7 5 4 0 10
6  8 7 0
6  9 1 0
2  8 3 5 0 10
6  10 3 5
6  11 8 5
0

0101000
+44 5 -46 5 *
Ed
 1e-07 1 1 0
1  4 0 0.5 4.5
2  9 1 3 0.5 4.5
2  10 6 4 0.5 4.5
6  12 1 0
6  13 9 0
6  14 10 0
0

0101000
+49 5 -44 5 *
Wi

0101000
-47 0 -45 0 +43 0 +42 0 *
Fa
0  1e-07 1 3
2  1
0111000
+41 0 *
Ve
1e-07
2 -4.89842541528951e-16 0
0 0

0101101
*
Ed
 1e-07 1 1 0
1  5 0 4.71238898038469 6.28318530717959
2  11 2 0 4.71238898038469 6.28318530717959
2  12 6 0 4.71238898038469 6.28318530717959
6  15 2 7
6  16 9 7
2  13 3 8 4.71238898038469 6.28318530717959
6  17 4 8
0

0101000
+49 8 -39 8 *
Ve
1e-07
2 -4.89842541528951e-16 10
0 0

0101101
*
Ed
 1e-07 1 1 0
1  6 0 4.71238898038469 6.28318530717959
2  14 2 0 4.71238898038469 6.28318530717959
2  15 4 0 4.71238898038469 6.28318530717959
6  18 2 7
6  19 5 7
2  16 3 8 4.71238898038469 6.28318530717959
6  20 4 8
0

0101000
+48 8 -37 8 *
Ve
2.00001e-07
2 -4.89842541528951e-16 5
0 0

0101101
*
Ed
 1e-07 1 1 0
1  7 0 0 5
2  17 2 0 0 5
2  18 5 0 0 5
4 CN 2 0 5 0
6  21 4 8
6  22 8 8
0

0101000
+39 8 -35 8 *
Ed
 1e-07 1 1 0
1  7 0 5 10
2  17 2 0 5 10
2  18 5 0 5 10
4 CN 2 0 5 0
6  23 4 8
6  24 8 8
0

0101000
+35 8 -37 8 *
Wi

0101000
-47 2 +38 6 -36 6 +34 6 +33 6 *
Fa
0  1e-07 2 6
2  4
0101000
+32 0 *
Ed
 1e-07 1 1 0
1  8 0 0 1.5707963267949
2  19 4 0 0 1.5707963267949
2  20 5 0 0 1.5707963267949
6  25 7 7
6  26 5 7
2  21 3 8 0 1.5707963267949
6  27 8 8
0

0101000
+37 8 -46 8 *
Wi

0101000
-45 0 +30 4 +36 4 *
Fa
0  1e-07 4 4
2  5
0101000
+29 0 *
Ed
 1e-07 1 1 0
1  9 0 0 1.5707963267949
2  22 5 0 0 1.5707963267949
2  23 6 0 0 1.5707963267949
6  28 7 7
6  29 9 7
2  24 3 8 0 1.5707963267949
6  30 8 8
0

0101000
+39 8 -44 8 *
Wi

0101000
-33 6 -30 6 +43 2 +27 6 -34 6 *
Ve
2.00001e-07
1 1.73205080756888 5.68125003863321
0 0

0101101
*
Ed
 2.00001e-07 1 1 0
1  10 0 0 1
2  25 5 6 0 1
2  26 7 9 0 1
6  31 8 0
6  32 11 0
0

0101000
+25 0 -35 0 *
Ve
2.00001e-07
1.73205080756888 1 4
0 0

0101101
*
Ed
 2.00001e-07 1 1 0
1  11 0 0 1
2  27 5 6 0 1
2  28 7 9 0 1
6  33 8 0
6  34 11 0
0

0101000
+35 0 -23 0 *
Ve
2.00001e-07
1 1.73205080756888 4.31874996136679
0 0

0101101
*
Ed
 2.00001e-07 1 1 0
1  12 0 0 1
2  29 5 6 0 1
2  30 7 9 0 1
6  35 8 0
6  36 12 0
0

0101000
+23 0 -21 0 *
Ed
 1e-07 1 1 0
1  13 0 4.31874996136679 5.68125003863321
2  31 5 6 4.31874996136679 5.68125003863321
2  32 8 9 4.31874996136679 5.68125003863321
6  37 8 0
6  38 13 0
0

0101000
+21 0 -25 0 *
Wi

0101000
-24 0 -22 0 -20 0 -19 0 *
Fa
0  1e-07 5 6
2  8
0101000
+26 0 +18 0 *
Wi

0101000
-42 0 +27 4 +38 4 *
Fa
0  1e-07 6 4
2  9
0101000
+16 0 *
Ve
1e-07
1 -2.44921270764475e-16 0
0 0

0101101
*
Ed
 1e-07 1 1 0
1  14 0 0 0.732050807568877
3  33 34CN 7 0 0 0.732050807568877
6  39 11 10
6  40 12 10
0

0101000
+14 0 -23 10 *
Ed
 1e-07 1 1 0
1  15 0 2.32026519221238 6.28318530717959
2  35 7 0 2.32026519221238 6.28318530717959
2  36 8 0 2.32026519221238 6.28318530717959
6  41 11 10
6  42 13 10
0

0101000
+25 10 -14 0 *
Wi

0101000
-24 0 -22 0 +13 9 +12 9 *
Fa
0  1e-07 7 9
2  11
0101000
+11 0 *
Ed
 1e-07 1 1 0
1  15 0 0 0.821327461377416
2  35 7 0 0 0.821327461377416
2  36 8 0 0 0.821327461377416
6  43 12 10
6  44 13 10
0

0101000
+14 0 -21 10 *
Wi

0101000
+9 9 -13 9 -20 0 *
Fa
0  1e-07 7 9
2  12
0101000
+8 0 *
Wi

0101000
+9 9 +12 9 +19 0 *
Fa
0  1e-07 8 9
2  13
0101000
+6 0 *
Sh

0101000
-40 2 +31 0 +28 2 +17 0 -15 2 -10 0 -7 0 +5 0 *
So

0100000
+4 0 *
Co

0100000
+3 0 *
Co

1100000
+2 1 *

+1 0 