DBRep_DrawableShape

CASCADE Topology V1, (c) Matra-Datavision
Locations 10
1
              1               0               0               0 
              0               1               0               0 
              0               0               1               0 
1
              1               0               0               0 
              0               1               0               0 
              0               0               1               0 
1
              1               0               0             -10 
              0               1               0              -5 
              0               0               1              -2 
1
              1               0               0               0 
              0               1               0               0 
              0               0               1               0 
2  2 -1 0
2  4 1 2 1 0
2  4 -1 0
2  2 -1 4 -1 0
1
2.22044604925031e-16               0               1               1 
              0               1               0               1 
             -1               0 2.22044604925031e-16               9 
2  9 -1 0
Curve2ds 34
8 0 10
1 4.7123889803846897 0 0 1 
8 0 10
1 2 -3 1 0 
8 0.35316954888546093 4.6468304511145391
1 12 -2.5 0 -1 
8 0.35316954888546093 4.6468304511145391
1 0 -2.5 0 1 
8 0 10
1 2 -7 1 0 
8 0 10
1 1.5707963267948966 0 0 1 
8 0.35316954888546093 4.6468304511145391
1 2 -2.5 0 -1 
8 0.35316954888546093 4.6468304511145391
1 0 -2.5 0 1 
1 0 0 1 0 
2 0 0 1 0 -0 1 2
1 0 10 1 0 
2 0 0 1 0 -0 1 2
1 6.2831853071795862 -0 0 1 
1 0 -0 0 1 
2 0 0 1 0 -0 1 2
1 0 10 1 0 
8 -2.2204460492503131e-16 1.2110633883680135
1 1 1 1 0 
8 -2.2204460492503131e-16 1.2110633883680135
1 3.1415926535897931 2.2204460492503136e-16 0 1 
7 0 0  8 16 3  1.0471975511965981 9.6812500386332108  1.0191849723756432 9.711351512321853  0.99057736649464334 9.7409253837196985  0.96126547595850964 9.7699151707934853  0.93114296736600188 9.7982239446961188  0.90009228522354834 9.82570048031174  0.86798442888468164 9.8521400402585346  0.8346593033880334 9.877267196784393  0.76967972140688579 9.9209545000122876  0.73850980596194393 9.9398650856737714  0.70604396004731318 9.957240903979887  0.67211257930387225 9.9726772455864783  0.63668047313636433 9.9855204063579261  0.59986448805037684 9.9949566487541102  0.56195141197948439 9.9999999991515285  0.52359878297260398 10 
 0 9 0.53564531288130945 7 1 9
7 0 0  8 16 3  2.3202651922123754 0  2.3613845718497992 0.048519208827660143  2.4035809325932971 0.097172428051076648  2.4470511777396444 0.14602303595999122  2.4919963470085245 0.19510311222690058  2.5386514923287358 0.24442052634171163  2.5872860189371036 0.29395994968175793  2.6382448774656471 0.34369439452827688  2.7387892375706668 0.43690810817694875  2.7874744490937378 0.48017156065832095  2.838722926183979 0.52361601339995401  2.8929447473924776 0.56715630272151318  2.9504066662164066 0.61043696323629393  3.0111777517634528 0.65287339298230529  3.0751639390561891 0.69369817069782636  3.1415926408171222 0.73205080019457225 
 0 9 0.53564531288130945 7 1 9
1 0 0 1 0 
2 0 0 1 0 -0 1 2
7 0 0  8 23 4  0 8.9999999999999858  7.4258113837806729e-16 8.8941224112057444  0.0064057756076805229 8.7878714078946292  0.019296334952808913 8.6828702547202781  0.038660124955066828 8.5812680839312669  0.06414345521223494 8.485494447986067  0.094978086898630729 8.398093544997943  0.12987287565130523 8.3211657385204365  0.18450888193235468 8.2244369513332209  0.20263871994715144 8.1958412388549924  0.22093962870467343 8.1701157141778342  0.23923135246229144 8.1471551468714143  0.25738034042269409 8.1267753834193766  0.2752941475392004 8.1087625829607841  0.2929123542841251 8.0928980415624316  0.34034512681857798 8.0546949363178335  0.36947179487287446 8.036324278407708  0.39753071292662179 8.0226423487758787  0.42454740104337996 8.0127688515457898  0.45057714038719349 8.006032341742408  0.47569468105693596 8.001909684745975  0.49999758940989447 8.0000000030658853  0.52359877559829904 8 
 0 9 0.43124700432252816 7 0.63857834539514746 7 1 9
7 0 0  8 23 4  4.7123889803847039 0.99999999999999978  4.8182665691789452 0.99999999999999978  4.9245179885469765 0.99999988838466836  5.0313253810990277 1.0000004678541856  5.1384138464679321 0.99953949636909878  5.2452403360779085 0.99767461680518021  5.3508864328940273 0.99301835412120187  5.453873051833698 0.9845018572239419  5.5986757121687232 0.96636293333137557  5.644297409889619 0.95963467295558913  5.6883033828665344 0.95208824887391807  5.7306015558239025 0.94378090273143123  5.7711786371647475 0.93479137576185645  5.8100704075116631 0.92520454560205145  5.8473465341417725 0.91509926471877523  5.9454301084168781 0.8861413409504808  6.0030939966863359 0.86638173306691801  6.0568380618789881 0.8455557381198634  6.1072119109648915 0.8239089053861095  6.1546619960591364 0.80163031380755267  6.1995766554865765 0.77885213650941021  6.2423068525604144 0.75565199198719224  6.2831853071795862 0.73205080756887686 
 0 9 0.43124700432252816 7 0.63857834539514746 7 1 9
7 0 0  8 16 3  0.52359877559829893 8  0.55887750531975944 7.9999999954171583  0.59383751978182975 8.0042672730837179  0.62791863886936161 8.0123183829041231  0.66085296264498328 8.0233906441915011  0.69252039438202728 8.0368199621535705  0.72292712253585756 8.0520605900446292  0.75219106778532008 8.0687500040323368  0.81850504441984606 8.1107793318241015  0.85467110798653878 8.1370345485970521  0.88938870342381438 8.1649031612295122  0.92284878448464824 8.194025046587031  0.95522054070417606 8.2241231643938946  0.98664287261129946 8.2550135627205492  1.0172551453910488 8.286574753711287  1.0471975511965976 8.3187499613667875 
 0 9 0.42744492276261664 7 1 9
7 0 0  8 16 3  0 0.73205080756887697  0.061104553831674124 0.69677208049332129  0.12023460728967006 0.65934839849139804  0.17669728658140738 0.62048486133391823  0.23034686544494853 0.58081346548537871  0.28120407781222934 0.54082760410128461  0.32945563937628819 0.50084229089752297  0.37541373650240661 0.46096339293231486  0.47859835297537501 0.36763829820269917  0.53411311494946911 0.31439982370059355  0.58684451738511445 0.26136426573577742  0.63721225805704318 0.20858462916387013  0.68557391753391528 0.15608426920722296  0.73220714727722225 0.10385907685012509  0.77737530833054613 0.051861767149949563  0.82132746137741819 0 
 0 9 0.42744492276261664 7 1 9
8 7.7119017293312764 10
1 1.0471975511965965 2.220446049250318e-16 0 1 
8 7.7119017293312764 10
1 9 0.73205080756887608 -1 0 
7 0 0  8 23 4  0.52359878297260398 10  0.50047270032166247 10.000000000511617  0.47667005626166731 9.9981664323901676  0.45208662070266581 9.9942131290036862  0.42663183961299694 9.9877649222323264  0.40023504943942395 9.9783344560342364  0.37284275051362237 9.9652991824742081  0.34442705168869181 9.9478465595461429  0.29771490300533954 9.9113192534485304  0.28006927396893022 9.8958683163180226  0.26211531568453528 9.8782909663278176  0.2439082848910365 9.8583643641889509  0.22553513665088951 9.8358674803661472  0.20712391555880269 9.810603961128729  0.18885032702899199 9.782450165794577  0.133341913736577 9.6863935698399786  0.097627231298003297 9.6093245810947501  0.065976640986410803 9.521323209508429  0.03977316172003105 9.4245326231193722  0.019846499628095669 9.3216123175652452  0.0065830736970027481 9.2151194566795649  -7.5278645464333113e-16 9.1073326678734077  0 8.9999999999999858 
 0 9 0.35411451882931427 7 0.56260271896423419 7 1 9
7 0 0  8 23 4  3.1415926408171226 0.73205080019457214  3.1816481907780512 0.75517688314089559  3.2234865709658784 0.77792073864154754  3.267417494770517 0.80026010460234043  3.3137683558661304 0.82212177556766797  3.3629020821404403 0.84338305213526699  3.4152356476585006 0.8638699279852553  3.4712814281069022 0.883357366568434  3.5673253520900903 0.9123040087765143  3.6044310506840986 0.92258750535687095  3.6431517689046919 0.93236158920188461  3.683565001366865 0.94154782521209623  3.7257158754773592 0.95006038385701941  3.7696027481074106 0.95781764823646331  3.8151475954008371 0.96475745840369598  3.9607326073221309 0.98364157117681739  4.0648884959317035 0.99260919432553418  4.1719182251458076 0.9975386098408463  4.2802472341904858 0.99951346077895376  4.3888945807891746 1.0000005623058816  4.4972690716078176 0.99999986892953208  4.605056312511282 0.99999999999999978  4.7123889803847039 0.99999999999999978 
 0 9 0.35411451882931427 7 0.56260271896423419 7 1 9
1 0 0 1 0 
2 0 0 1 0 -0 1 1
1 6.2831853071795862 -0 0 1 
1 0 -0 0 1 
Curves 17
1 0 -2 0 0 0 1 
1 0 -2.5 10 0 1 0 
1 0 2 0 0 0 1 
1 0 -2.5 0 0 1 0 
2 0 0 0 0 0 1 1 0 -0 -0 1 0 2
2 0 0 10 0 0 1 1 0 -0 -0 1 0 2
1 2 -4.898425415289509e-16 0 0 0 1 
2 0 0 10 0 0 1 1 0 -0 -0 1 0 2
1 1 1 10 1 0 2.2204460492503136e-16 
7 0 0  8 16 3  0.99999999999999989 1.7320508075688781 9.6812500386332108  1.04851920882766 1.70403822711761 9.711351512321853  1.0971724280510806 1.6738774656120146 9.7409253837196985  1.1460230359599839 1.6413763408939686 9.7699151707934853  1.1951031122269005 1.6063202550463507 9.7982239446961188  1.2444205263417181 1.5684506597293177 9.82570048031174  1.2939599496817531 1.5274709375065052 9.8521400402585346  1.3436943945282764 1.4830142302183067 9.877267196784393  1.4369081081769484 1.3924571328399007 9.9209545000122876  1.4801715606583103 1.3475253933581972 9.9398650856737714  1.5236160133999883 1.2991807180348958 9.957240903979887  1.5671563027214632 1.2470012334619505 9.9726772455864783  1.6104369632363285 1.1907386160532663 9.9855204063579261  1.6528733929822939 1.1304150304141567 9.9949566487541102  1.693698170697826 1.066428714533604 9.9999999991515285  1.732050800194572 1.0000000127726711 10 
 0 9 0.53564531288130945 7 1 9
2 0 0 0 0 0 1 1 0 -0 -0 1 0 2
7 0 0  8 23 4  2 0 8.9999999999999858  2 1.4851622767561346e-15 8.8941224112057444  1.9999998883846797 0.012811372738185285 8.7878714078946292  2.0000004678541514 0.038593438169234107 8.6828702547202781  1.9995394963691431 0.077318640112016612 8.5812680839312669  1.9976746168051496 0.12828882313514312 8.485494447986067  1.9930183541212121 0.18988799033562281 8.398093544997943  1.9845018572239423 0.25922563134465693 8.3211657385204365  1.9663629333313757 0.36698161572321092 8.2244369513332209  1.9596346729555918 0.402618833477142 8.1958412388549924  1.9520882488739133 0.43844807711144873 8.1701157141778342  1.9437809027314312 0.47409278961385504 8.1471551468714143  1.9347913757618618 0.50927624567973062 8.1267753834193766  1.9252045456020483 0.54380989567013815 8.1087625829607841  1.9150992647187755 0.57757312880963096 8.0928980415624316  1.8861413409504808 0.66791088554650291 8.0546949363178335  1.8663817330669177 0.72274997121833373 8.036324278407708  1.8455557381198648 0.77491687627594175 8.0226423487758787  1.8239089053861099 0.82448172027071531 8.0127688515457898  1.8016303138075516 0.87158159324030848 8.006032341742408  1.778852136509411 0.9163910560922971 8.001909684745975  1.7556519919871927 0.95912154538082939 8.0000000030658853  1.732050807568877 1 8 
 0 9 0.43124700432252816 7 0.63857834539514746 7 1 9
7 0 0  8 16 3  1.7320508075688772 1 8  1.6967720804933217 1.0611045538316737 7.9999999954171583  1.6593483984914124 1.1202346812301605 8.0042672730837179  1.6204848613338632 1.1763492367386752 8.0123183829041231  1.5808134654854706 1.2290517685689595 8.0233906441915011  1.5408276041012092 1.2782701282353948 8.0368199621535705  1.5008422908975496 1.3241620984759059 8.0520605900446292  1.4609633929323151 1.367040544556182 8.0687500040323368  1.3676382982026993 1.4612774836090079 8.1107793318241015  1.3143998237005865 1.5103534942133865 8.1370345485970521  1.2613642657357973 1.5553188395526441 8.1649031612295122  1.2085846291638478 1.5966210155610945 8.194025046587031  1.1560842692072359 1.6346519175344481 8.2241231643938946  1.1038590768501224 1.669721368800984 8.2550135627205492  1.0518617671499497 1.7021084000207012 8.286574753711287  1.0000000000000002 1.7320508075688772 8.3187499613667875 
 0 9 0.42744492276261664 7 1 9
1 1.000000000000002 1.7320508075688761 2.220446049250318e-16 0 0 1 
7 0 0  8 23 4  1.7320508001945716 1.0000000127726711 10  1.7551768831408954 0.95994446281174206 10.000000000511617  1.7779207386415474 0.91810583117132671 9.9981664323901676  1.8002601046023399 0.87427379789546689 9.9942131290036862  1.8221217755676677 0.82825187993339033 9.9877649222323264  1.8433830521352674 0.77987554204909926 9.9783344560342364  1.8638699279852551 0.72901316435367614 9.9652991824742081  1.8833573665684338 0.67559074789789419 9.9478465595461429  1.9123040087765137 0.58676399943021784 9.9113192534485304  1.9225875053568715 0.55299726392782522 9.8958683163180226  1.9323615892018839 0.51843262939387047 9.8782909663278176  1.9415478252120957 0.48317993121893554 9.8583643641889509  1.9500603838570194 0.44741602333761549 9.8358674803661472  1.9578176482364633 0.41140580704822438 9.810603961128729  1.9647574584036958 0.37551607207414872 9.782450165794577  1.9836415711768172 0.26611714123047786 9.6863935698399786  1.9926091943255446 0.19517961603964304 9.6093245810947501  1.9975386098408201 0.13195588089995156 9.521323209508429  1.9995134607789773 0.079544274847824309 9.4245326231193722  2.0000005623058756 0.039693955310272887 9.3216123175652452  1.99999986892953 0.013165928230988829 9.2151194566795649  2 -1.5055729092866621e-15 9.1073326678734077  2 0 8.9999999999999858 
 0 9 0.35411451882931427 7 0.56260271896423419 7 1 9
2 0 0 0 0 0 1 1 0 -0 -0 1 0 1
1 1 -2.4492127076447545e-16 0 0 0 1 
Polygon3D 0
PolygonOnTriangulations 50
2 1 2 
p 0.0137452943347953 1 0 10 
2 1 2 
p 0.0137452943347953 1 0 10 
2 1 2 
p 0.0138139545017056 1 0 10 
2 2 3 
p 0.0137452943347953 1 0.5 4.5 
2 1 2 
p 0.0137452943347953 1 0.5 4.5 
2 1 2 
p 0.0138139545017056 1 0.5 4.5 
2 2 12 
p 0.0137452943347953 1 0 10 
2 4 3 
p 0.0137452943347953 1 0 10 
2 12 6 
p 0.0138139545017056 1 0 10 
2 1 4 
p 0.0137452943347953 1 0.5 4.5 
2 1 2 
p 0.0137452943347953 1 0.5 4.5 
10 1 13 14 15 16 17 18 19 20 12 
p 0.0137452943347953 1 4.71238898038469 4.88692190558412 5.06145483078356 5.23598775598299 5.41052068118242 5.58505360638186 5.75958653158129 5.93411945678073 6.10865238198016 6.28318530717959 
10 1 12 13 14 15 16 17 18 19 3 
p 0.0137452943347953 1 4.71238898038469 4.88692190558412 5.06145483078356 5.23598775598299 5.41052068118242 5.58505360638186 5.75958653158129 5.93411945678073 6.10865238198016 6.28318530717959 
10 1 4 5 6 7 8 9 10 11 3 
p 0.0138139545017056 1 4.71238898038469 4.88692190558412 5.06145483078356 5.23598775598299 5.41052068118242 5.58505360638186 5.75958653158129 5.93411945678073 6.10865238198016 6.28318530717959 
10 2 4 5 6 7 8 9 10 11 3 
p 0.0137452943347953 1 4.71238898038469 4.88692190558412 5.06145483078356 5.23598775598299 5.41052068118242 5.58505360638186 5.75958653158129 5.93411945678073 6.10865238198016 6.28318530717959 
10 1 12 13 14 15 16 17 18 19 3 
p 0.0137452943347953 1 4.71238898038469 4.88692190558412 5.06145483078356 5.23598775598299 5.41052068118242 5.58505360638186 5.75958653158129 5.93411945678073 6.10865238198016 6.28318530717959 
10 2 13 14 15 16 17 18 19 20 12 
p 0.0138139545017056 1 4.71238898038469 4.88692190558412 5.06145483078356 5.23598775598299 5.41052068118242 5.58505360638186 5.75958653158129 5.93411945678073 6.10865238198016 6.28318530717959 
10 1 12 13 14 15 16 17 18 19 9 
p 0.0138139545017056 1 4.71238898038469 4.88692190558412 5.06145483078356 5.23598775598299 5.41052068118242 5.58505360638186 5.75958653158129 5.93411945678073 6.10865238198016 6.28318530717959 
2 3 21 
p 0.0138139545017056 1 0 9 
2 13 22 
p 0.0138139545017056 1 0 9 
2 21 12 
p 0.0138139545017056 1 9 10 
2 2 10 
p 0.0138139545017056 1 9 10 
7 2 7 8 9 10 11 6 
p 0.0138139545017056 1 0.523598775598299 0.698131700797732 0.872664625997166 1.0471975511966 1.22173047639603 1.39626340159547 1.5707963267949 
7 3 4 5 6 7 8 2 
p 0.0138139545017056 1 0.523598775598299 0.698131700797732 0.872664625997166 1.0471975511966 1.22173047639603 1.39626340159547 1.5707963267949 
4 10 11 12 1 
p 0.0138139545017056 1 0 0.174532925199433 0.349065850398866 0.523598775598299 
4 9 10 11 3 
p 0.0138139545017056 1 0 0.174532925199433 0.349065850398866 0.523598775598299 
2 2 5 
p 0.0138139545017056 1 -2.22044604925031e-16 0.732050807568877 
2 1 2 
p 0.0138139545017056 1 -2.22044604925031e-16 0.732050807568877 
2 20 3 
p 0.0138139545017056 1 -2.22044604925031e-16 0.732050807568877 
5 1 3 4 5 2 
p 0.0138139545017056 1 0 0.333333333333333 0.603333333333333 0.801666666666667 1 
5 1 6 7 8 5 
p 0.0138139545017056 1 0 0.333333333333333 0.603333333333333 0.801666666666667 1 
10 1 3 4 5 6 7 8 9 10 2 
p 0.0137452943347953 1 0 0.174532925199433 0.349065850398867 0.5235987755983 0.698131700797733 0.872664625997167 1.0471975511966 1.22173047639603 1.39626340159547 1.5707963267949 
10 3 4 5 6 7 8 9 10 11 2 
p 0.0137452943347953 1 0 0.174532925199433 0.349065850398867 0.5235987755983 0.698131700797733 0.872664625997167 1.0471975511966 1.22173047639603 1.39626340159547 1.5707963267949 
10 13 14 15 16 17 18 19 20 21 12 
p 0.0138139545017056 1 0 0.174532925199433 0.349065850398867 0.5235987755983 0.698131700797733 0.872664625997167 1.0471975511966 1.22173047639603 1.39626340159547 1.5707963267949 
9 22 24 25 26 27 28 29 30 23 
p 0.0138139545017056 1 0 0.107712414204458 0.215424828408916 0.323137242613374 0.430849656817832 0.53856207102229 0.678105989413049 0.839052994706525 1 
9 3 12 13 14 15 16 17 18 11 
p 0.0138139545017056 1 0 0.107712414204458 0.215424828408916 0.323137242613374 0.430849656817832 0.53856207102229 0.678105989413049 0.839052994706525 1 
6 23 32 33 34 35 31 
p 0.0138139545017056 1 0 0.187488908780393 0.412475599316864 0.675247073758471 0.837623536879236 1 
6 2 4 5 6 7 3 
p 0.0138139545017056 1 0 0.187488908780393 0.412475599316864 0.675247073758471 0.837623536879236 1 
2 31 1 
p 0.0138139545017056 1 8.31874996136679 9.68125003863321 
2 2 18 
p 0.0138139545017056 1 8.31874996136679 9.68125003863321 
9 1 3 4 5 6 7 8 9 2 
p 0.0138139545017056 1 0 0.191928772035815 0.364664666868049 0.506308221197201 0.625465878846877 0.732707770731585 0.839949662616294 0.919974831308147 1 
9 2 4 5 6 7 8 9 10 3 
p 0.0138139545017056 1 0 0.191928772035815 0.364664666868049 0.506308221197201 0.625465878846877 0.732707770731585 0.839949662616294 0.919974831308147 1 
4 1 3 4 2 
p 0.0138139545017056 1 2.32026519221238 2.59404101267152 2.86781683313065 3.14159265358979 
4 18 19 20 5 
p 0.0138139545017056 1 2.32026519221238 2.59404101267152 2.86781683313065 3.14159265358979 
2 19 11 
p 0.0138139545017056 1 0 0.732050807568877 
2 1 2 
p 0.0138139545017056 1 0 0.732050807568877 
14 1 20 21 22 23 24 25 26 27 28 29 30 31 19 
p 0.0138139545017056 1 3.14159265358979 3.38325362694285 3.62491460029591 3.86657557364898 4.10823654700204 4.3498975203551 4.59155849370816 4.83321946706122 5.07488044041428 5.31654141376734 5.5582023871204 5.79986336047346 6.04152433382652 6.28318530717959 
14 5 6 7 8 9 10 11 12 13 14 15 16 17 1 
p 0.0138139545017056 1 3.14159265358979 3.38325362694285 3.62491460029591 3.86657557364898 4.10823654700204 4.3498975203551 4.59155849370816 4.83321946706122 5.07488044041428 5.31654141376734 5.5582023871204 5.79986336047346 6.04152433382652 6.28318530717959 
4 1 8 9 3 
p 0.0138139545017056 1 0 0.273775820459139 0.547551640918278 0.821327461377416 
4 1 3 4 2 
p 0.0138139545017056 1 0 0.273775820459139 0.547551640918278 0.821327461377416 
Surfaces 7
1 10 0 0 1 0 -0 0 0 1 0 -1 0 
2 0 0 0 0 0 1 1 0 -0 -0 1 0 2
1 0 0 10 0 0 1 1 0 -0 -0 1 0 
2 0 0 0 0 0 1 1 0 -0 -0 1 0 2
1 0 0 0 0 0 1 1 0 -0 -0 1 0 
2 0 0 0 0 0 1 1 0 -0 -0 1 0 1
1 0 0 0 0 0 1 1 0 -0 -0 1 0 
Triangulations 13
4 2 1 2.5357526258398e-16
-3.67381906146713e-16 -2 0 -3.67381906146713e-16 -2 10 1.22460635382238e-16 2 10 1.22460635382238e-16 2 0 2 -3 12 -3 12 -7 2 -7 2 4 3 2 1 4 
20 18 1 0.00761060381650911
-3.67381906146713e-16 -2 0 -3.67381906146713e-16 -2 10 2 -4.89842541528951e-16 10 0.347296355333862 -1.96961550602442 10 0.68404028665134 -1.87938524157182 10 1 -1.73205080756888 10 1.28557521937308 -1.53208888623795 10 1.53208888623796 -1.28557521937307 10 1.73205080756888 -0.999999999999993 10 1.87938524157182 -0.684040286651329 10 1.96961550602442 -0.34729635533385 10 2 -4.89842541528951e-16 0 0.347296355333862 -1.96961550602442 0 0.68404028665134 -1.87938524157182 0 1 -1.73205080756888 0 1.28557521937308 -1.53208888623795 0 1.53208888623796 -1.28557521937307 0 1.73205080756888 -0.999999999999993 0 1.87938524157182 -0.684040286651329 0 1.96961550602442 -0.34729635533385 0 4.71238898038469 0 4.71238898038469 10 6.28318530717959 10 4.88692190558412 10 5.06145483078356 10 5.23598775598299 10 5.41052068118242 10 5.58505360638186 10 5.75958653158129 10 5.93411945678073 10 6.10865238198016 10 6.28318530717959 0 4.88692190558412 0 5.06145483078356 0 5.23598775598299 0 5.41052068118242 0 5.58505360638186 0 5.75958653158129 0 5.93411945678073 0 6.10865238198016 0 2 1 13 4 13 14 4 2 13 5 14 15 5 4 14 6 15 16 6 5 15 7 16 17 7 6 16 8 17 18 8 7 17 9 18 19 9 8 18 10 19 20 10 9 19 11 20 12 11 10 20 3 11 12 
21 19 1 0.00761060381650909
-3.67381906146713e-16 -2 0 -3.67381906146713e-16 -2 10 2 -4.89842541528951e-16 0 0.347296355333862 -1.96961550602442 0 0.68404028665134 -1.87938524157182 0 1 -1.73205080756888 0 1.28557521937308 -1.53208888623795 0 1.53208888623796 -1.28557521937307 0 1.73205080756888 -0.999999999999993 0 1.87938524157182 -0.684040286651329 0 1.96961550602442 -0.34729635533385 0 2 -4.89842541528951e-16 10 0.347296355333862 -1.96961550602442 10 0.68404028665134 -1.87938524157182 10 1 -1.73205080756888 10 1.28557521937308 -1.53208888623795 10 1.53208888623796 -1.28557521937307 10 1.73205080756888 -0.999999999999993 10 1.87938524157182 -0.684040286651329 10 1.96961550602442 -0.34729635533385 10 2 -4.89842541528951e-16 9 4.71238898038469 0 4.71238898038469 10 6.28318530717959 0 4.88692190558412 0 5.06145483078356 0 5.23598775598299 0 5.41052068118242 0 5.58505360638186 0 5.75958653158129 0 5.93411945678073 0 6.10865238198016 0 6.28318530717959 10 4.88692190558412 10 5.06145483078356 10 5.23598775598299 10 5.41052068118242 10 5.58505360638186 10 5.75958653158129 10 5.93411945678073 10 6.10865238198016 10 6.28318530717959 9 13 2 1 13 1 4 14 4 5 14 5 6 14 13 4 15 14 6 16 6 7 16 7 8 16 15 6 17 16 8 18 8 9 18 17 8 19 9 10 19 18 9 20 10 11 20 19 10 21 11 3 21 20 11 12 20 21 
20 19 1 2.44921270764476e-16
-3.67381906146713e-16 -2 10 1.22460635382238e-16 2 10 2 -4.89842541528951e-16 10 1.96961550602442 0.347296355333861 10 1.87938524157182 0.684040286651339 10 1.73205080756888 1 10 1.53208888623795 1.28557521937308 10 1.28557521937308 1.53208888623796 10 0.999999999999996 1.73205080756888 10 0.684040286651332 1.87938524157182 10 0.347296355333854 1.96961550602442 10 0.347296355333862 -1.96961550602442 10 0.68404028665134 -1.87938524157182 10 1 -1.73205080756888 10 1.28557521937308 -1.53208888623795 10 1.53208888623796 -1.28557521937307 10 1.73205080756888 -0.999999999999993 10 1.87938524157182 -0.684040286651329 10 1.96961550602442 -0.34729635533385 10 1 0 10 0 -2 0 2 2 0 1.96961550602442 0.347296355333861 1.87938524157182 0.684040286651339 1.73205080756888 1 1.53208888623795 1.28557521937308 1.28557521937308 1.53208888623796 0.999999999999996 1.73205080756888 0.684040286651332 1.87938524157182 0.347296355333854 1.96961550602442 0.347296355333862 -1.96961550602442 0.68404028665134 -1.87938524157182 1 -1.73205080756888 1.28557521937308 -1.53208888623795 1.53208888623796 -1.28557521937307 1.73205080756888 -0.999999999999993 1.87938524157182 -0.684040286651329 1.96961550602442 -0.34729635533385 1 0 20 2 1 20 3 4 20 4 5 20 5 6 20 6 7 20 7 8 20 8 9 20 9 10 20 10 11 20 11 2 20 1 12 20 12 13 20 13 14 20 14 15 20 15 16 20 16 17 20 17 18 20 18 19 20 19 3 
21 21 1 2.44921270764476e-16
-3.67381906146713e-16 -2 10 1.22460635382238e-16 2 10 1.73205080756888 1 10 1.53208888623796 1.28557521937308 10 1.28557521937308 1.53208888623796 10 0.999999999999997 1.73205080756888 10 0.684040286651333 1.87938524157182 10 0.347296355333855 1.96961550602442 10 2 -4.89842541528951e-16 10 1.96961550602442 0.347296355333861 10 1.87938524157182 0.684040286651337 10 0.347296355333862 -1.96961550602442 10 0.68404028665134 -1.87938524157182 10 1 -1.73205080756888 10 1.28557521937308 -1.53208888623795 10 1.53208888623796 -1.28557521937307 10 1.73205080756888 -0.999999999999993 10 1.87938524157182 -0.684040286651329 10 1.96961550602442 -0.34729635533385 10 1 1 10 1 0 10 0 -2 0 2 1.73205080756888 1 1.53208888623796 1.28557521937308 1.28557521937308 1.53208888623796 0.999999999999997 1.73205080756888 0.684040286651333 1.87938524157182 0.347296355333855 1.96961550602442 2 0 1.96961550602442 0.347296355333861 1.87938524157182 0.684040286651337 0.347296355333862 -1.96961550602442 0.68404028665134 -1.87938524157182 1 -1.73205080756888 1.28557521937308 -1.53208888623795 1.53208888623796 -1.28557521937307 1.73205080756888 -0.999999999999993 1.87938524157182 -0.684040286651329 1.96961550602442 -0.34729635533385 1 1 1 0 8 2 20 7 8 20 6 7 20 3 20 11 5 6 20 4 20 3 4 5 20 21 2 1 21 9 10 21 10 11 21 1 12 21 12 13 21 13 14 21 14 15 21 15 16 21 16 17 21 17 18 21 18 19 21 19 9 21 20 2 21 11 20 
20 18 1 0.00761060381650915
2 -4.89842541528951e-16 0 1.22460635382238e-16 2 0 1.96961550602442 0.347296355333861 0 1.87938524157182 0.684040286651339 0 1.73205080756888 1 0 1.53208888623795 1.28557521937308 0 1.28557521937308 1.53208888623796 0 0.999999999999996 1.73205080756888 0 0.684040286651332 1.87938524157182 0 0.347296355333854 1.96961550602442 0 2 -4.89842541528951e-16 10 1.22460635382238e-16 2 10 1.96961550602442 0.347296355333861 10 1.87938524157182 0.684040286651339 10 1.73205080756888 1 10 1.53208888623795 1.28557521937308 10 1.28557521937308 1.53208888623796 10 0.999999999999996 1.73205080756888 10 0.684040286651332 1.87938524157182 10 0.347296355333854 1.96961550602442 10 0 0 1.5707963267949 0 0.174532925199433 0 0.349065850398867 0 0.5235987755983 0 0.698131700797733 0 0.872664625997167 0 1.0471975511966 0 1.22173047639603 0 1.39626340159547 0 0 10 1.5707963267949 10 0.174532925199433 10 0.349065850398867 10 0.5235987755983 10 0.698131700797733 10 0.872664625997167 10 1.0471975511966 10 1.22173047639603 10 1.39626340159547 10 13 1 3 13 11 1 14 3 4 14 13 3 15 4 5 15 14 4 16 5 6 16 15 5 17 6 7 17 7 8 17 16 6 18 17 8 19 8 9 19 18 8 20 9 10 20 19 9 12 10 2 12 20 10 
35 33 1 0.00761060381650912
1 1.73205080756888 9.68125003863321 1.73205080756888 1 10 1.24356077504528 1.56638328433057 9.82414196047073 1.44411313553921 1.38366804318938 9.92347108067014 1.59184799648933 1.2107931090258 9.97753069361392 1.22460635382238e-16 2 10 1.53208888623796 1.28557521937308 10 1.28557521937308 1.53208888623796 10 0.999999999999997 1.73205080756888 10 0.684040286651333 1.87938524157182 10 0.347296355333855 1.96961550602442 10 1.22460635382238e-16 2 0 2 -4.89842541528951e-16 0 1.96961550602442 0.347296355333861 0 1.87938524157182 0.684040286651339 0 1.73205080756888 1 0 1.53208888623795 1.28557521937308 0 1.28557521937308 1.53208888623796 0 0.999999999999996 1.73205080756888 0 0.684040286651332 1.87938524157182 0 0.347296355333854 1.96961550602442 0 2 -4.89842541528951e-16 9 1.73205080756888 1 8 1.99987409110094 0.0224418334324644 8.78933432184124 1.99801638802384 0.0890533997184125 8.58747570976523 1.99042099726536 0.195510204635373 8.40603353089891 1.97234241951612 0.331459469911709 8.25632429135014 1.94188583642251 0.478622404008537 8.14667391873539 1.8880088194413 0.65986564624576 8.05962314131714 1.8136457281387 0.843023823297785 8.01239760885774 1 1.73205080756888 8.31874996136679 1.59979017704133 1.20027971251923 8.02026124258194 1.43224799832147 1.3959461567654 8.08172626942327 1.23718150592219 1.57142671786896 8.17934689877746 1.1180670165784 1.65829012972423 8.24723568687829 1.0471975511966 9.68125003863321 0.523598782972604 10 0.899782422184016 9.82414196047073 0.764025969170863 9.92347108067014 0.650264004823151 9.97753069361392 1.5707963267949 10 0.698131700797732 10 0.872664625997166 10 1.0471975511966 10 1.22173047639603 10 1.39626340159547 10 1.5707963267949 0 0 0 0.174532925199433 0 0.349065850398867 0 0.5235987755983 0 0.698131700797733 0 0.872664625997167 0 1.0471975511966 0 1.22173047639603 0 1.39626340159547 0 0 9 0.523598775598299 8 0.0112211491236271 8.78933432184124 0.0445414271711193 8.58747570976523 0.097911470294066 8.40603353089891 0.166497933186523 8.25632429135014 0.241656377503374 8.14667391873539 0.336232412997137 8.05962314131714 0.43511193781139 8.01239760885774 1.0471975511966 8.31874996136679 0.643675940617773 8.02026124258194 0.772563171913424 8.08172626942327 0.903848483101006 8.17934689877746 0.977576635015398 8.24723568687829 24 22 13 25 24 13 26 13 14 26 25 13 27 26 14 28 14 15 28 27 14 29 28 15 30 15 16 30 29 15 23 30 16 32 16 17 32 23 16 33 17 18 33 32 17 34 33 18 35 18 19 35 34 18 31 19 20 31 35 19 9 8 3 10 1 31 10 31 20 10 9 1 11 20 21 11 21 12 11 10 20 6 11 12 3 1 9 4 3 8 5 4 7 7 2 5 8 7 4 
20 19 1 2.44921270764476e-16
-3.67381906146713e-16 -2 0 1.22460635382238e-16 2 0 2 -4.89842541528951e-16 0 1.96961550602442 0.347296355333861 0 1.87938524157182 0.684040286651339 0 1.73205080756888 1 0 1.53208888623795 1.28557521937308 0 1.28557521937308 1.53208888623796 0 0.999999999999996 1.73205080756888 0 0.684040286651332 1.87938524157182 0 0.347296355333854 1.96961550602442 0 0.347296355333862 -1.96961550602442 0 0.68404028665134 -1.87938524157182 0 1 -1.73205080756888 0 1.28557521937308 -1.53208888623795 0 1.53208888623796 -1.28557521937307 0 1.73205080756888 -0.999999999999993 0 1.87938524157182 -0.684040286651329 0 1.96961550602442 -0.34729635533385 0 1 0 0 0 -2 0 2 2 0 1.96961550602442 0.347296355333861 1.87938524157182 0.684040286651339 1.73205080756888 1 1.53208888623795 1.28557521937308 1.28557521937308 1.53208888623796 0.999999999999996 1.73205080756888 0.684040286651332 1.87938524157182 0.347296355333854 1.96961550602442 0.347296355333862 -1.96961550602442 0.68404028665134 -1.87938524157182 1 -1.73205080756888 1.28557521937308 -1.53208888623795 1.53208888623796 -1.28557521937307 1.73205080756888 -0.999999999999993 1.87938524157182 -0.684040286651329 1.96961550602442 -0.34729635533385 1 0 20 2 1 20 3 4 20 4 5 20 5 6 20 6 7 20 7 8 20 8 9 20 9 10 20 10 11 20 11 2 20 1 12 20 12 13 20 13 14 20 14 15 20 15 16 20 16 17 20 17 18 20 18 19 20 19 3 
12 10 1 0.00553510651650774
1.73205080756888 1 10 2 -4.89842541528951e-16 9 1.82867673612081 0.809902076658239 9.98176514004978 1.90588728839154 0.60629501952173 9.91923685029758 1.95600397285368 0.417191143919895 9.81260927857655 1.98334665140491 0.257557886204334 9.66991022415855 1.99538385000879 0.135806133933335 9.50315898521262 1.9993889253772 0.0494359992519591 9.31052871447953 1.99996166439723 0.0123832812987782 9.15688599077136 2 -4.89842541528951e-16 10 1.96961550602442 0.347296355333861 10 1.87938524157182 0.684040286651337 10 0.523598782972604 10 4.73401438798341e-19 8.99999999999999 0.416925281655647 9.98176514004978 0.307993860323647 9.91923685029758 0.210138721729519 9.81260927857655 0.129137570453418 9.66991022415855 0.0679553542900344 9.50315898521262 0.024720518862582 9.31052871447953 0.00619167916432403 9.15688599077136 0 10 0.174532925199433 10 0.349065850398866 10 10 8 7 10 9 8 6 10 7 11 6 5 11 10 6 4 11 5 12 11 4 3 12 4 10 2 9 1 12 3 
8 6 1 0.00698675705080398
1 1.73205080756888 9.68125003863321 1 1 10 1 1.52059837824641 9.85380169159308 1 1.27036855254163 9.96275689859722 1.73205080756888 1 10 1.24356077504528 1.56638328433057 9.82414196047073 1.44411313553921 1.38366804318938 9.92347108067014 1.59184799648933 1.2107931090258 9.97753069361392 2.32026519221238 0 3.14159265358979 0 2.59404101267152 0 2.86781683313065 0 3.14159264081712 0.732050800194572 2.53948191195458 0.243560775045281 2.74782760006998 0.444113135539208 2.9292064280182 0.591847996489334 6 1 3 7 3 4 7 6 3 8 4 2 8 7 4 5 8 2 
31 29 1 0.00574004185429744
1 1 10 1.73205080756888 1 10 2 -4.89842541528951e-16 9 1.82867673612081 0.809902076658239 9.98176514004978 1.90588728839154 0.60629501952173 9.91923685029758 1.95600397285368 0.417191143919895 9.81260927857655 1.98334665140491 0.257557886204334 9.66991022415855 1.99538385000879 0.135806133933335 9.50315898521262 1.9993889253772 0.0494359992519591 9.31052871447953 1.99996166439723 0.0123832812987782 9.15688599077136 1.73205080756888 1 8 1.99987409110094 0.0224418334324644 8.78933432184124 1.99801638802384 0.0890533997184125 8.58747570976523 1.99042099726536 0.195510204635373 8.40603353089891 1.97234241951612 0.331459469911709 8.25632429135014 1.94188583642251 0.478622404008537 8.14667391873539 1.8880088194413 0.65986564624576 8.05962314131714 1.8136457281387 0.843023823297785 8.01239760885774 1 1 8 1 0.760684335712443 9.97094181742605 1 0.535276827956232 9.88545602565321 1 0.336877341759205 9.7485107481711 1 0.177016134106344 9.56806474673116 1 0.0649837573145855 9.35460488704254 1 0.00729112590194603 9.12053668025532 1 0.00729112590194569 8.87946331974468 1 0.0649837573145844 8.64539511295747 1 0.177016134106342 8.43193525326885 1 0.336877341759203 8.2514892518289 1 0.535276827956229 8.11454397434679 1 0.76068433571244 8.02905818257395 3.14159265358979 4.93038065763132e-32 3.14159265358979 0.732050807568878 4.7123889803847 1 3.33285452922313 0.828676736120809 3.54625128314393 0.905887288391544 3.76377366216794 0.956003972853683 3.97830112309655 0.983346651404907 4.18513867650964 0.995383850008792 4.39663978065854 0.999388925377198 4.55485218181589 0.999961664397228 6.28318530717959 0.732050807568877 4.92464483741872 0.99987409110094 5.13761237556875 0.99801638802384 5.34836932590852 0.990420997265357 5.55094076372226 0.972342419516118 5.73472076413548 0.941885836422513 5.93612555722863 0.888008819441296 6.12555718993006 0.813645728138699 6.28318530717959 0 3.38325362694285 0 3.62491460029591 0 3.86657557364898 0 4.10823654700204 0 4.3498975203551 0 4.59155849370816 0 4.83321946706122 0 5.07488044041428 0 5.31654141376734 0 5.5582023871204 0 5.79986336047346 0 6.04152433382652 0 4 2 1 4 1 20 5 20 21 5 4 20 6 21 22 6 5 21 7 22 23 7 6 22 8 23 24 8 7 23 9 24 25 9 8 24 10 9 25 3 25 26 3 10 25 12 26 27 12 3 26 13 27 28 13 12 27 14 28 29 14 13 28 15 14 29 16 29 30 16 15 29 17 30 31 17 16 30 18 31 19 18 17 31 11 18 19 
9 7 1 0.00670154686291069
1 1 8 1.73205080756888 1 8 1 1.73205080756888 8.31874996136679 1.59979017704133 1.20027971251923 8.02026124258194 1.43224799832147 1.3959461567654 8.08172626942327 1.23718150592219 1.57142671786896 8.17934689877746 1.1180670165784 1.65829012972423 8.24723568687829 1 1.27036855254164 8.03724310140278 1 1.52059837824641 8.14619830840692 0 0 0 0.732050807568877 0.821327461377418 2.08166817117217e-17 0.201643408141249 0.599790177041329 0.407097988151891 0.432247998321467 0.608243319816803 0.237181505922189 0.718545042716869 0.1180670165784 0.273775820459139 0 0.547551640918278 0 4 2 1 4 1 8 5 8 9 5 4 8 6 5 9 7 6 9 3 7 9 
21 20 1 8.60422844084496e-16
1 1 8 1 1.73205080756888 8.31874996136679 1 1.27036855254164 8.03724310140278 1 1.52059837824641 8.14619830840692 1 1 10 1 0.760684335712443 9.97094181742605 1 0.535276827956232 9.88545602565321 1 0.336877341759205 9.7485107481711 1 0.177016134106344 9.56806474673116 1 0.0649837573145855 9.35460488704254 1 0.00729112590194603 9.12053668025532 1 0.00729112590194569 8.87946331974468 1 0.0649837573145844 8.64539511295747 1 0.177016134106342 8.43193525326885 1 0.336877341759203 8.2514892518289 1 0.535276827956229 8.11454397434679 1 0.76068433571244 8.02905818257395 1 1.73205080756888 9.68125003863321 1 1.52059837824641 9.85380169159308 1 1.27036855254163 9.96275689859722 1 0.869670966735412 9 1 0 0.681250038633213 0.732050807568877 0.962756898597222 0.270368552541635 0.853801691593082 0.520598378246409 -1 1.11022302462516e-16 -0.970941817426052 -0.239315664287557 -0.88545602565321 -0.464723172043768 -0.748510748171102 -0.663122658240795 -0.568064746731157 -0.822983865893656 -0.354604887042537 -0.935016242685414 -0.120536680255324 -0.992708874098054 0.120536680255321 -0.992708874098054 0.354604887042534 -0.935016242685415 0.568064746731154 -0.822983865893658 0.7485107481711 -0.663122658240797 0.885456025653209 -0.464723172043771 0.970941817426051 -0.23931566428756 -0.681250038633213 0.732050807568877 -0.853801691593082 0.520598378246409 -0.962756898597222 0.270368552541635 0 -0.130329033264588 21 1 3 21 3 4 21 4 2 21 5 6 21 6 7 21 7 8 21 8 9 21 9 10 21 10 11 21 11 12 21 12 13 21 13 14 21 14 15 21 15 16 21 16 17 21 17 1 21 18 19 21 19 20 21 20 5 21 2 18 

TShapes 59
Ve
2.00001e-07
-3.67381906146713e-16 -2 0
0 0

0101101
*
Ve
2.00001e-07
-3.67381906146713e-16 -2 10
0 0

0101101
*
Ed
 1e-07 1 1 0
1  1 0 0 10
2  1 2 4 0 10
2  2 1 3 0 10
6  1 2 0
6  2 1 0
6  3 3 5
0

0101000
+59 5 -58 5 *
Ve
2.00001e-07
1.22460635382238e-16 2 10
0 0

0101101
*
Ed
 1e-07 1 1 0
1  2 0 0.5 4.5
2  3 1 3 0.5 4.5
2  4 3 4 0.5 4.5
6  4 1 0
6  5 4 0
6  6 5 5
0

0101000
+58 5 -56 5 *
Ve
2.00001e-07
1.22460635382238e-16 2 0
0 0

0101101
*
Ed
 1e-07 1 1 0
1  3 0 0 10
2  5 1 3 0 10
2  6 4 4 0 10
6  7 6 0
6  8 1 0
6  9 7 5
0

0101000
+54 5 -56 5 *
Ed
 1e-07 1 1 0
1  4 0 0.5 4.5
2  7 1 3 0.5 4.5
2  8 5 4 0.5 4.5
6  10 1 0
6  11 8 0
0

0101000
+59 5 -54 5 *
Wi

0101000
-57 0 -55 0 +53 0 +52 0 *
Fa
0  1e-07 1 3
2  1
0111000
+51 0 *
Ve
1e-07
2 -4.89842541528951e-16 0
0 0

0101101
*
Ed
 1e-07 1 1 0
1  5 0 4.71238898038469 6.28318530717959
2  9 2 0 4.71238898038469 6.28318530717959
2  10 5 0 4.71238898038469 6.28318530717959
6  12 2 7
6  13 8 7
6  14 3 8
0

0101000
+59 8 -49 8 *
Ve
1e-07
2 -4.89842541528951e-16 10
0 0

0101101
*
Ed
 1e-07 1 1 0
1  6 0 4.71238898038469 6.28318530717959
2  11 2 0 4.71238898038469 6.28318530717959
2  12 3 0 4.71238898038469 6.28318530717959
6  15 2 7
6  16 4 7
6  17 3 8
6  18 5 8
0

0101000
+58 8 -47 8 *
Ve
2.00001e-07
2 -4.89842541528951e-16 9
0 0

0101101
*
Ed
 1e-07 1 1 0
1  7 0 0 9
2  13 2 0 0 9
2  14 4 0 0 9
4 CN 2 0 4 0
6  19 3 8
6  20 7 8
0

0101000
+49 8 -45 8 *
Ed
 1e-07 1 1 0
1  7 0 9 10
2  13 2 0 9 10
2  14 4 0 9 10
4 CN 2 0 4 0
6  21 3 8
6  22 9 8
0

0101000
+45 8 -47 8 *
Wi

0101000
-57 2 +48 6 -46 6 +44 6 +43 6 *
Fa
0  1e-07 2 6
2  3
0111000
+42 0 *
Ve
2.00001e-07
1.73205080756888 1 10
0 0

0101101
*
Ed
 1e-07 1 1 0
1  8 0 0.523598775598299 1.5707963267949
2  15 3 0 0.523598775598299 1.5707963267949
2  16 4 0 0.523598775598299 1.5707963267949
6  23 7 8
6  24 5 8
0

0101000
+40 8 -56 8 *
Ed
 1e-07 1 1 0
1  8 0 0 0.523598775598299
2  15 3 0 0 0.523598775598299
2  16 4 0 0 0.523598775598299
6  25 9 8
6  26 5 8
0

0101000
+47 8 -40 8 *
Wi

0101000
-55 2 +39 6 +38 6 +46 6 *
Ve
2.00001e-07
1 1 10
0 0

0101101
*
Ed
 1e-07 1 1 0
1  9 0 -2.22044604925031e-16 0.732050807568877
2  17 3 6 -2.22044604925031e-16 0.732050807568877
2  18 6 9 -2.22044604925031e-16 0.732050807568877
6  27 10 0
6  28 11 0
6  29 5 0
0

0101000
+36 0 -40 0 *
Wi

0101000
i35 0 *
Fa
0  1e-07 3 6
2  5
0111000
+37 0 +34 0 *
Ve
2.00001e-07
1 1.73205080756888 9.68125003863321
0 0

0101101
*
Ed
 1e-07 1 1 0
1  10 0 0 1
2  19 4 6 0 1
2  20 6 9 0 1
6  30 7 0
6  31 10 0
0

0101000
+32 0 -40 0 *
Ed
 1e-07 1 1 0
1  11 0 0 1.5707963267949
2  21 4 0 0 1.5707963267949
2  22 5 0 0 1.5707963267949
6  32 6 7
6  33 8 7
6  34 7 8
0

0101000
+49 8 -54 8 *
Ve
2.00001e-07
1.73205080756888 1 8
0 0

0101101
*
Ed
 1e-07 1 1 0
1  12 0 0 1
2  23 4 6 0 1
2  24 6 9 0 1
6  35 7 0
6  36 11 0
0

0101000
+45 0 -29 0 *
Ve
2.00001e-07
1 1.73205080756888 8.31874996136679
0 0

0101101
*
Ed
 1e-07 1 1 0
1  13 0 0 1
2  25 4 6 0 1
2  26 6 9 0 1
6  37 7 0
6  38 12 0
0

0101000
+29 0 -27 0 *
Ed
 1e-07 1 1 0
1  14 0 8.31874996136679 9.68125003863321
2  27 4 6 8.31874996136679 9.68125003863321
2  28 7 9 8.31874996136679 9.68125003863321
6  39 7 0
6  40 13 0
0

0101000
+27 0 -32 0 *
Wi

0101000
-31 0 -39 6 +53 2 +30 6 -44 6 -28 0 -26 0 -25 0 *
Fa
0  1e-07 4 6
2  7
0111000
+24 0 *
Wi

0101000
-52 0 +30 4 +48 4 *
Fa
0  1e-07 5 4
2  8
0111000
+22 0 *
Ed
 1e-07 1 1 0
1  15 0 0 1
2  29 4 6 0 1
2  30 6 9 0 1
6  41 9 0
6  42 11 0
0

0101000
+40 0 -45 0 *
Wi

0101000
-20 0 -43 6 -38 6 *
Fa
0  1e-07 4 6
2  9
0111000
+19 0 *
Ed
 1e-07 1 1 0
1  16 0 2.32026519221238 3.14159265358979
2  31 6 0 2.32026519221238 3.14159265358979
2  32 7 0 2.32026519221238 3.14159265358979
6  43 10 10
6  44 13 10
0

0101000
+32 10 -36 10 *
Wi

0101000
+17 9 -31 0 +35 0 *
Fa
0  1e-07 6 9
2  10
0111000
+16 0 *
Ve
1e-07
1 -2.44921270764475e-16 0
0 0

0101101
*
Ed
 1e-07 1 1 0
1  17 0 0 0.732050807568877
3  33 34CN 6 0 0 0.732050807568877
6  45 11 10
6  46 12 10
0

0101000
+14 0 -29 10 *
Ed
 1e-07 1 1 0
1  16 0 3.14159265358979 6.28318530717959
2  31 6 0 3.14159265358979 6.28318530717959
2  32 7 0 3.14159265358979 6.28318530717959
6  47 11 10
6  48 13 10
0

0101000
+36 10 -14 0 *
Wi

0101000
-35 0 -20 0 -28 0 +13 9 +12 9 *
Fa
0  1e-07 6 9
2  11
0111000
+11 0 *
Ed
 1e-07 1 1 0
1  16 0 0 0.821327461377416
2  31 6 0 0 0.821327461377416
2  32 7 0 0 0.821327461377416
6  49 12 10
6  50 13 10
0

0101000
+14 0 -27 10 *
Wi

0101000
-13 9 -26 0 +9 9 *
Fa
0  1e-07 6 9
2  12
0111000
+8 0 *
Wi

0101000
+9 9 +12 9 +17 9 +25 0 *
Fa
0  1e-07 7 9
2  13
0111000
+6 0 *
Sh

0101000
-50 2 +41 0 +33 0 +23 0 -21 2 +18 0 -15 0 -10 0 -7 0 +5 0 
*
So

0100000
+4 0 *
Co

0100000
+3 0 *
Co

1100000
+2 1 *

+1 0 