DBRep_DrawableShape

CASCADE Topology V1, (c) Matra-Datavision
Locations 33
1
              1               0               0               0 
              0               1               0               0 
              0               0               1               0 
1
              1               0               0               0 
              0               1               0               0 
              0               0               1               0 
1
              1               0               0               0 
              0               1               0               0 
              0               0               1              11 
1
              1               0               0               0 
              0               1               0               0 
              0               0               1               0 
1
              1               0               0               0 
              0               1               0               0 
              0               0               1               0 
2  2 -1 3 1 4 1 5 -1 0
1
              1               0               0              -0 
              0               1               0               0 
              0               0               1              -0 
2  7 -1 0
2  3 -1 2 1 7 -1 0
2  5 1 4 -1 3 -1 2 1 7 -1 0
2  1 -1 5 1 4 -1 3 -1 2 1 7 -1 0
2  4 1 5 -1 0
1
              1               0               0               0 
              0              -1               0              -0 
              0               0              -1              -0 
1
              1               0               0              -0 
              0               1               0              -0 
              0               0               1               5 
2  13 1 5 -1 14 1 0
2  4 1 5 -1 14 -1 5 1 13 -1 0
2  14 -1 5 1 13 -1 0
2  1 -1 14 -1 5 1 13 -1 0
2  1 -1 0
2  7 1 2 -1 4 1 5 -1 0
2  2 1 7 -1 0
2  5 1 4 -1 2 1 7 -1 0
2  1 -1 5 1 4 -1 2 1 7 -1 0
2  5 1 4 -1 0
2  1 -1 5 1 4 -1 0
2  7 1 2 -1 3 1 4 1 5 -1 0
2  2 -1 4 1 5 -1 0
1
              1               0               0               0 
              0               1               0               0 
              0               0               1             -10 
2  13 1 5 -1 14 1 28 1 0
2  28 -1 14 -1 5 1 13 -1 0
2  13 -1 0
2  1 -1 28 -1 14 -1 5 1 13 -1 0
2  5 -1 14 1 28 1 0
Curve2ds 30
2 21.260464377513724 0 -1 0 0 1 21.260464377513724
1 0 -11 1 0 
1 6.2831853071795862 -5 -1 0 
1 6.2831853071795862 -5 -1 0 
1 1.0946098848694781 -5 0 1 
1 1.0946098848694781 -5 0 1 
1 0 0 1 0 
2 21.260464377513724 0 -1 0 0 1 21.260464377513724
1 5.3024179493290529 -5 0 1 
1 5.3024179493290529 -5 0 1 
1 12.566370614359172 -5 -1 0 
1 12.566370614359172 -5 -1 0 
1 0 0 0 -1 
1 6.2831853071795898 0 0 -1 
1 0 0 1 0 
1 6.2831853071795862 -5 -1 0 
1 0 0 0 -1 
1 6.2831853071795898 0 0 -1 
8 -28.070043404754756 8.5503350670653493
1 9.9178920028755044 -9.1293549068870803 -0.056890530719479651 -0.99838042224116963 
8 -28.070043404754756 8.5503350670653493
1 8.5503350670653493 -5 -1 0 
1 0 0 1 0 
1 12.566370614359172 -5 -1 0 
1 7.2639526650301196 0 0 -1 
1 1.7734798913714116e-15 0 0 -1 
1 0 -10 1 0 
2 -9.7456527080229165 -18.895226879879893 1 0 0 -1 21.260464377513724
1 5.1885754223101097 0 0 -1 
1 36.620378471820082 0 0 -1 
1 0 -10 1 0 
1 2.0833527664100333 -36.561068921327156 -0.056890530719479651 0.99838042224116963 
Curves 15
2 -13.845948 26.893827999999999 0 0 0 1 1 0 -0 -0 1 0 21.260464377513724
2 -13.845948000000005 -26.893827999999999 0 0 0 1 1 0 -0 -0 1 0 21.260464377513724
1 -4.1002952919771101 45.789054879879899 5 0 0 -1 
2 -13.845948 26.893827999999999 0 0 0 1 1 0 -0 -0 1 0 21.260464377513724
1 -2.0169425255670599 9.2279859585527397 5 0 0 -1 
2 -13.845948000000005 -26.893827999999999 0 0 0 1 1 0 -0 -0 1 0 21.260464377513724
1 7.4145163775137197 26.893827999999999 0 0 0 1 
2 -13.845948 26.893827999999999 0 0 0 1 1 0 -0 -0 1 0 21.260464377513724
1 7.4145163775137197 26.893827999999999 0 0 0 1 
1 -2.5033756253617812 17.764473093112919 -4.4408920985006262e-16 0.056890530719479651 -0.99838042224116963 0 
2 -13.845948 26.893827999999999 0 0 0 1 1 0 -0 -0 1 0 21.260464377513724
1 -2.0169425255670599 9.2279859585527397 5 0 0 -1 
2 -13.845948000000005 -26.893827999999999 0 0 0 1 1 0 -0 -0 1 0 21.260464377513724
1 -4.1002952919771101 45.789054879879899 5 0 0 -1 
1 -2.0169425255670554 -9.227985958552738 0 -0.056890530719479651 -0.99838042224116963 0 
Polygon3D 0
PolygonOnTriangulations 30
99 101 102 103 104 105 106 107 108 109 110 111 112 113 114 115 116 117 118 119 120 121 122 123 124 125 126 127 128 129 130 131 132 133 134 135 136 137 138 139 140 141 142 143 144 145 146 147 148 149 150 151 152 153 154 155 156 157 158 159 160 161 162 163 164 165 166 167 168 169 170 171 172 173 174 175 176 177 178 179 180 181 182 183 184 185 186 187 188 189 190 191 192 193 194 195 196 197 198 100 
p 0.0842015479250457 1 0 0.0641141357875468 0.128228271575094 0.192342407362641 0.256456543150187 0.320570678937734 0.384684814725281 0.448798950512828 0.512913086300375 0.577027222087922 0.641141357875468 0.705255493663015 0.769369629450562 0.833483765238109 0.897597901025656 0.961712036813202 1.02582617260075 1.0899403083883 1.15405444417584 1.21816857996339 1.28228271575094 1.34639685153848 1.41051098732603 1.47462512311358 1.53873925890112 1.60285339468867 1.66696753047622 1.73108166626377 1.79519580205131 1.85930993783886 1.92342407362641 1.98753820941395 2.0516523452015 2.11576648098905 2.17988061677659 2.24399475256414 2.30810888835169 2.37222302413923 2.43633715992678 2.50045129571433 2.56456543150187 2.62867956728942 2.69279370307697 2.75690783886451 2.82102197465206 2.88513611043961 2.94925024622715 3.0133643820147 3.07747851780225 3.14159265358979 3.20570678937734 3.26982092516489 3.33393506095243 3.39804919673998 3.46216333252753 3.52627746831508 3.59039160410262 3.65450573989017 3.71861987567772 3.78273401146526 3.84684814725281 3.91096228304036 3.9750764188279 4.03919055461545 4.103304690403 4.16741882619054 4.23153296197809 4.29564709776564 4.35976123355318 4.42387536934073 4.48798950512828 4.55210364091582 4.61621777670337 4.68033191249092 4.74444604827847 4.80856018406601 4.87267431985356 4.93678845564111 5.00090259142865 5.0650167272162 5.12913086300375 5.19324499879129 5.25735913457884 5.32147327036639 5.38558740615394 5.44970154194148 5.51381567772903 5.57792981351658 5.64204394930412 5.70615808509167 5.77027222087922 5.83438635666676 5.89850049245431 5.96261462824186 6.02672876402941 6.09084289981695 6.1549570356045 6.21907117139205 6.28318530717959 
99 1 2 3 4 5 6 7 8 9 10 11 12 13 14 15 16 17 18 19 20 21 22 23 24 25 26 27 28 29 30 31 32 33 34 35 36 37 38 39 40 41 42 43 44 45 46 47 48 49 50 51 52 53 54 55 56 57 58 59 60 61 62 63 64 65 66 67 68 69 70 71 72 73 74 75 76 77 78 79 80 81 82 83 84 85 86 87 88 89 90 91 92 93 94 95 96 97 98 1 
p 0.0842015479250457 1 0 0.0641141357875468 0.128228271575094 0.192342407362641 0.256456543150187 0.320570678937734 0.384684814725281 0.448798950512828 0.512913086300375 0.577027222087922 0.641141357875468 0.705255493663015 0.769369629450562 0.833483765238109 0.897597901025656 0.961712036813202 1.02582617260075 1.0899403083883 1.15405444417584 1.21816857996339 1.28228271575094 1.34639685153848 1.41051098732603 1.47462512311358 1.53873925890112 1.60285339468867 1.66696753047622 1.73108166626377 1.79519580205131 1.85930993783886 1.92342407362641 1.98753820941395 2.0516523452015 2.11576648098905 2.17988061677659 2.24399475256414 2.30810888835169 2.37222302413923 2.43633715992678 2.50045129571433 2.56456543150187 2.62867956728942 2.69279370307697 2.75690783886451 2.82102197465206 2.88513611043961 2.94925024622715 3.0133643820147 3.07747851780225 3.14159265358979 3.20570678937734 3.26982092516489 3.33393506095243 3.39804919673998 3.46216333252753 3.52627746831508 3.59039160410262 3.65450573989017 3.71861987567772 3.78273401146526 3.84684814725281 3.91096228304036 3.9750764188279 4.03919055461545 4.103304690403 4.16741882619054 4.23153296197809 4.29564709776564 4.35976123355318 4.42387536934073 4.48798950512828 4.55210364091582 4.61621777670337 4.68033191249092 4.74444604827847 4.80856018406601 4.87267431985356 4.93678845564111 5.00090259142865 5.0650167272162 5.12913086300375 5.19324499879129 5.25735913457884 5.32147327036639 5.38558740615394 5.44970154194148 5.51381567772903 5.57792981351658 5.64204394930412 5.70615808509167 5.77027222087922 5.83438635666676 5.89850049245431 5.96261462824186 6.02672876402941 6.09084289981695 6.1549570356045 6.21907117139205 6.28318530717959 
17 1 3 4 5 6 7 8 9 10 11 12 13 14 15 16 17 2 
p 0.0842015479250457 1 5.18857542231011 5.25698853996747 5.32540165762482 5.39381477528218 5.46222789293953 5.53064101059689 5.59905412825424 5.6674672459116 5.73588036356895 5.80429348122631 5.87270659888366 5.94111971654102 6.00953283419838 6.07794595185573 6.14635906951309 6.21477218717044 6.2831853048278 
17 18 20 21 22 23 24 25 26 27 28 29 30 31 32 33 34 19 
p 0.0842015479250457 1 5.18857542231011 5.25698853996747 5.32540165762482 5.39381477528218 5.46222789293953 5.53064101059689 5.59905412825424 5.6674672459116 5.73588036356895 5.80429348122631 5.87270659888366 5.94111971654102 6.00953283419838 6.07794595185573 6.14635906951309 6.21477218717044 6.2831853048278 
2 1 18 
p 0.0842015479250457 1 0 5 
2 18 2 
p 0.0842015479250457 1 0 5 
67 18 20 21 22 23 24 25 26 27 28 29 30 31 32 33 34 35 36 37 38 39 40 41 42 43 44 45 46 47 48 49 50 51 52 53 54 55 56 57 58 59 60 61 62 63 64 65 66 67 68 69 70 71 72 73 74 75 76 77 78 79 80 81 82 83 84 19 
p 0.0842015479250457 1 1.09460988486948 1.15836455251281 1.22211922015613 1.28587388779946 1.34962855544279 1.41338322308611 1.47713789072944 1.54089255837277 1.60464722601609 1.66840189365942 1.73215656130275 1.79591122894608 1.8596658965894 1.92342056423273 1.98717523187606 2.05092989951938 2.11468456716271 2.17843923480604 2.24219390244936 2.30594857009269 2.36970323773602 2.43345790537934 2.49721257302267 2.560967240666 2.62472190830932 2.68847657595265 2.75223124359598 2.8159859112393 2.87974057888263 2.94349524652596 3.00724991416928 3.07100458181261 3.13475924945594 3.19851391709926 3.26226858474259 3.32602325238592 3.38977792002924 3.45353258767257 3.5172872553159 3.58104192295922 3.64479659060255 3.70855125824588 3.7723059258892 3.83606059353253 3.89981526117586 3.96356992881918 4.02732459646251 4.09107926410584 4.15483393174916 4.21858859939249 4.28234326703582 4.34609793467914 4.40985260232247 4.4736072699658 4.53736193760912 4.60111660525245 4.66487127289578 4.7286259405391 4.79238060818243 4.85613527582576 4.91988994346908 4.98364461111241 5.04739927875574 5.11115394639906 5.17490861404239 5.23866328168572 5.30241794932905 
67 1 3 4 5 6 7 8 9 10 11 12 13 14 15 16 17 18 19 20 21 22 23 24 25 26 27 28 29 30 31 32 33 34 35 36 37 38 39 40 41 42 43 44 45 46 47 48 49 50 51 52 53 54 55 56 57 58 59 60 61 62 63 64 65 66 67 2 
p 0.0842015479250457 1 1.09460988486948 1.15836455251281 1.22211922015613 1.28587388779946 1.34962855544279 1.41338322308611 1.47713789072944 1.54089255837277 1.60464722601609 1.66840189365942 1.73215656130275 1.79591122894608 1.8596658965894 1.92342056423273 1.98717523187606 2.05092989951938 2.11468456716271 2.17843923480604 2.24219390244936 2.30594857009269 2.36970323773602 2.43345790537934 2.49721257302267 2.560967240666 2.62472190830932 2.68847657595265 2.75223124359598 2.8159859112393 2.87974057888263 2.94349524652596 3.00724991416928 3.07100458181261 3.13475924945594 3.19851391709926 3.26226858474259 3.32602325238592 3.38977792002924 3.45353258767257 3.5172872553159 3.58104192295922 3.64479659060255 3.70855125824588 3.7723059258892 3.83606059353253 3.89981526117586 3.96356992881918 4.02732459646251 4.09107926410584 4.15483393174916 4.21858859939249 4.28234326703582 4.34609793467914 4.40985260232247 4.4736072699658 4.53736193760912 4.60111660525245 4.66487127289578 4.7286259405391 4.79238060818243 4.85613527582576 4.91988994346908 4.98364461111241 5.04739927875574 5.11115394639906 5.17490861404239 5.23866328168572 5.30241794932905 
2 85 19 
p 0.0842015479250457 1 0 5 
2 3 17 
p 0.0842015479250457 1 0 5 
15 86 87 88 89 90 91 92 93 94 95 96 97 98 99 85 
p 0.0842015479250457 1 6.2831853048278 6.35324011627082 6.42329492771385 6.49334973915687 6.56340455059989 6.63345936204291 6.70351417348594 6.77356898492896 6.84362379637198 6.91367860781501 6.98373341925803 7.05378823070105 7.12384304214407 7.1938978535871 7.26395266503012 
15 2 4 5 6 7 8 9 10 11 12 13 14 15 16 3 
p 0.0842015479250457 1 6.2831853048278 6.35324011627082 6.42329492771385 6.49334973915687 6.56340455059989 6.63345936204291 6.70351417348594 6.77356898492896 6.84362379637198 6.91367860781501 6.98373341925803 7.05378823070105 7.12384304214407 7.1938978535871 7.26395266503012 
2 2 101 
p 0.0842015479250457 1 5 11 
2 86 100 
p 0.0842015479250457 1 5 11 
17 1 3 4 5 6 7 8 9 10 11 12 13 14 15 16 17 2 
p 0.0842015479250457 1 0 0.0684131178043425 0.136826235608685 0.205239353413028 0.27365247121737 0.342065589021713 0.410478706826055 0.478891824630398 0.54730494243474 0.615718060239083 0.684131178043425 0.752544295847767 0.82095741365211 0.889370531456453 0.957783649260795 1.02619676706514 1.09460988486948 
17 1 3 4 5 6 7 8 9 10 11 12 13 14 15 16 17 2 
p 0.0842015479250457 1 0 0.0684131178043425 0.136826235608685 0.205239353413028 0.27365247121737 0.342065589021713 0.410478706826055 0.478891824630398 0.54730494243474 0.615718060239083 0.684131178043425 0.752544295847767 0.82095741365211 0.889370531456453 0.957783649260795 1.02619676706514 1.09460988486948 
2 1 19 
p 0.0842015479250457 1 0 5 
2 1 2 
p 0.0842015479250457 1 0 5 
2 1 2 
p 0.0842015479250457 1 -28.0700434047548 8.55033506706535 
2 1 4 
p 0.0842015479250457 1 -28.0700434047548 8.55033506706535 
15 17 18 19 20 21 22 23 24 25 26 27 28 29 30 1 
p 0.0842015479250457 1 5.30241794932905 5.37247276060409 5.44252757187913 5.51258238315417 5.5826371944292 5.65269200570424 5.72274681697928 5.79280162825432 5.86285643952936 5.9329112508044 6.00296606207944 6.07302087335447 6.14307568462951 6.21313049590455 6.28318530717959 
15 18 19 20 21 22 23 24 25 26 27 28 29 30 31 1 
p 0.0842015479250457 1 5.30241794932905 5.37247276060409 5.44252757187913 5.51258238315417 5.5826371944292 5.65269200570424 5.72274681697928 5.79280162825432 5.86285643952936 5.9329112508044 6.00296606207944 6.07302087335447 6.14307568462951 6.21313049590455 6.28318530717959 
2 18 32 
p 0.0842015479250457 1 5 10 
2 4 3 
p 0.0842015479250457 1 5 10 
33 33 34 35 36 37 38 39 40 41 42 43 44 45 46 47 48 49 50 51 52 53 54 55 56 57 58 59 60 61 62 63 64 32 
p 0.0842015479250457 1 5.18857542231011 5.25343096114511 5.31828649998011 5.38314203881511 5.44799757765011 5.51285311648511 5.57770865532011 5.64256419415511 5.70741973299011 5.77227527182511 5.83713081066011 5.90198634949511 5.96684188833011 6.03169742716511 6.09655296600011 6.16140850483511 6.22626404367011 6.29111958250511 6.35597512134011 6.42083066017512 6.48568619901012 6.55054173784512 6.61539727668012 6.68025281551512 6.74510835435012 6.80996389318512 6.87481943202012 6.93967497085512 7.00453050969012 7.06938604852512 7.13424158736012 7.19909712619512 7.26395266503012 
33 1 3 4 5 6 7 8 9 10 11 12 13 14 15 16 17 18 19 20 21 22 23 24 25 26 27 28 29 30 31 32 33 2 
p 0.0842015479250457 1 5.18857542231011 5.25343096114511 5.31828649998011 5.38314203881511 5.44799757765011 5.51285311648511 5.57770865532011 5.64256419415511 5.70741973299011 5.77227527182511 5.83713081066011 5.90198634949511 5.96684188833011 6.03169742716511 6.09655296600011 6.16140850483511 6.22626404367011 6.29111958250511 6.35597512134011 6.42083066017512 6.48568619901012 6.55054173784512 6.61539727668012 6.68025281551512 6.74510835435012 6.80996389318512 6.87481943202012 6.93967497085512 7.00453050969012 7.06938604852512 7.13424158736012 7.19909712619512 7.26395266503012 
2 2 33 
p 0.0842015479250457 1 5 10 
2 1 2 
p 0.0842015479250457 1 5 10 
2 3 2 
p 0.0842015479250457 1 0 36.6203784718201 
2 2 1 
p 0.0842015479250457 1 0 36.6203784718201 
Surfaces 8
1 7.4145163775137242 26.893827999999999 0 -0 0 -1 -1 0 0 0 1 0 
2 -13.845948 26.893827999999999 0 -0 -0 -1 1 0 0 -0 1 -0 21.260464377513724
2 -13.845948 26.893827999999999 0 -0 -0 -1 1 0 0 -0 1 -0 21.260464377513724
1 7.4145163775137242 26.893827999999999 0 -0 0 -1 -1 0 0 0 1 0 
2 -13.845948 26.893827999999999 0 -0 -0 -1 1 0 0 -0 1 -0 21.260464377513724
2 -13.845948000000005 26.893827999999999 5 -0 -0 1 1 0 0 0 -1 -0 21.260464377513724
1 -2.0169425255670554 9.227985958552738 5 0.99838042224116963 0.056890530719479651 0 -0.056890530719479651 0.99838042224116963 0 0 -0 1 
1 -4.1002952919770888 45.789054879879892 -0 0 0 1 1 0 -0 -0 1 0 
Triangulations 8
98 96 1 9.54791801177635e-15
7.41451637751372 26.893828 0 7.37083447327247 28.2559906295594 0 7.23996825886297 29.612555840691 0 7.02245549163095 30.9579492159599 0 6.7191899781933 32.2866422454011 0 6.331417901595 33.593175044353 0 5.86073270047563 34.8721787892942 0 5.30906852128825 36.1183977794913 0 4.67869227047674 37.3267110338005 0 3.97219429927096 38.4921533338773 0 3.19247775937794 39.6099356273243 0 2.34274667330878 40.6754647069341 0 1.42649276836287 41.6843620851633 0 0.447481128371482 42.632481986277 0 -0.590265277839311 43.5159283822303 0 -1.68248212769049 44.3310710022837 0 -2.82468126786624 45.0745602505638 0 -4.01216915709863 45.7433409702715 0 -5.24006615293544 46.3346649979766 0 -6.50332656323772 46.8461024564104 0 -7.796759380011 47.2755517393535 0 -9.11504961037071 47.6212481475855 0 -10.4527801169879 47.8817711404134 0 -11.8044538782687 48.0560501729776 0 -13.1645165767947 48.1433690953507 0 -14.5273794232053 48.1433690953507 0 -15.8874421217314 48.0560501729776 0 -17.2391158830121 47.8817711404134 0 -18.5768463896293 47.6212481475855 0 -19.895136619989 47.2755517393535 0 -21.1885694367623 46.8461024564104 0 -22.4518298470646 46.3346649979766 0 -23.6797268429014 45.7433409702715 0 -24.8672147321338 45.0745602505638 0 -26.0094138723095 44.3310710022837 0 -27.1016307221607 43.5159283822303 0 -28.1393771283715 42.6324819862769 0 -29.1183887683629 41.6843620851633 0 -30.0346426733088 40.6754647069341 0 -30.884373759378 39.6099356273243 0 -31.664090299271 38.4921533338773 0 -32.3705882704768 37.3267110338004 0 -33.0009645212883 36.1183977794913 0 -33.5526287004756 34.8721787892942 0 -34.023313901595 33.593175044353 0 -34.4110859781933 32.2866422454011 0 -34.7143514916309 30.9579492159599 0 -34.931864258863 29.612555840691 0 -35.0627304732725 28.2559906295594 0 -35.1064123775137 26.893828 0 -35.0627304732725 25.5316653704406 0 -34.931864258863 24.175100159309 0 -34.7143514916309 22.8297067840401 0 -34.4110859781933 21.5010137545988 0 -34.023313901595 20.194480955647 0 -33.5526287004756 18.9154772107058 0 -33.0009645212882 17.6692582205087 0 -32.3705882704767 16.4609449661995 0 -31.664090299271 15.2955026661226 0 -30.8843737593779 14.1777203726757 0 -30.0346426733088 13.1121912930659 0 -29.1183887683629 12.1032939148367 0 -28.1393771283715 11.155174013723 0 -27.1016307221607 10.2717276177697 0 -26.0094138723095 9.45658499771629 0 -24.8672147321337 8.71309574943616 0 -23.6797268429014 8.04431502972845 0 -22.4518298470646 7.45299100202343 0 -21.1885694367623 6.94155354358955 0 -19.895136619989 6.5121042606465 0 -18.5768463896293 6.1664078524145 0 -17.2391158830121 5.90588485958661 0 -15.8874421217313 5.73160582702236 0 -14.5273794232052 5.64428690464929 0 -13.1645165767947 5.6442869046493 0 -11.8044538782686 5.73160582702236 0 -10.4527801169879 5.90588485958662 0 -9.11504961037062 6.16640785241453 0 -7.79675938001092 6.51210426064653 0 -6.50332656323764 6.94155354358957 0 -5.24006615293536 7.45299100202346 0 -4.01216915709854 8.0443150297285 0 -2.82468126786616 8.71309574943622 0 -1.68248212769042 9.45658499771634 0 -0.590265277839237 10.2717276177698 0 0.447481128371564 11.1551740137231 0 1.42649276836294 12.1032939148368 0 2.34274667330884 13.1121912930659 0 3.19247775937801 14.1777203726758 0 3.97219429927103 15.2955026661228 0 4.67869227047679 16.4609449661996 0 5.3090685212883 17.6692582205088 0 5.86073270047568 18.9154772107059 0 6.33141790159504 20.1944809556471 0 6.71918997819333 21.501013754599 0 7.02245549163097 22.8297067840402 0 7.23996825886299 24.1751001593091 0 7.37083447327247 25.5316653704407 0 0 0 0.0436819042412573 1.36216262955941 0.174548118650758 2.718727840691 0.392060885882778 4.0641212159599 0.695326399320425 5.39281424540115 1.08309847591873 6.69934704435302 1.5537836770381 7.97835078929421 2.10544785622547 9.22456977949131 2.73582410703699 10.4328830338005 3.44232207824276 11.5983253338773 4.22203861813578 12.7161076273243 5.07176970420495 13.7816367069341 5.98802360915086 14.7905340851633 6.96703524914224 15.738653986277 8.00478165535304 16.6221003822303 9.09699850520422 17.4372430022837 10.23919764538 18.1807322505638 11.4266855346124 18.8495129702715 12.6545825304492 19.4408369979766 13.9178429407514 19.9522744564104 15.2112757575247 20.3817237393535 16.5295659878844 20.7274201475855 17.8672964945017 20.9879431404134 19.2189702557824 21.1622221729776 20.5790329543085 21.2495410953507 21.941895800719 21.2495410953507 23.3019584992451 21.1622221729776 24.6536322605258 20.9879431404134 25.9913627671431 20.7274201475855 27.3096529975028 20.3817237393535 28.6030858142761 19.9522744564104 29.8663462245783 19.4408369979766 31.0942432204151 18.8495129702715 32.2817311096475 18.1807322505638 33.4239302498233 17.4372430022837 34.5161470996744 16.6221003822303 35.5538935058852 15.7386539862769 36.5329051458766 14.7905340851633 37.4491590508225 13.7816367069341 38.2988901368917 12.7161076273243 39.0786066767847 11.5983253338773 39.7851046479905 10.4328830338004 40.415480898802 9.22456977949128 40.9671450779894 7.97835078929418 41.4378302791087 6.69934704435299 41.825602355707 5.39281424540113 42.1288678691447 4.06412121595988 42.3463806363767 2.71872784069098 42.4772468507862 1.36216262955939 42.5209287550274 -1.77635683940025e-14 42.4772468507862 -1.36216262955944 42.3463806363767 -2.71872784069103 42.1288678691447 -4.06412121595991 41.825602355707 -5.39281424540116 41.4378302791087 -6.69934704435303 40.9671450779893 -7.97835078929422 40.415480898802 -9.22456977949132 39.7851046479905 -10.4328830338005 39.0786066767847 -11.5983253338774 38.2988901368917 -12.7161076273243 37.4491590508225 -13.7816367069341 36.5329051458766 -14.7905340851633 35.5538935058852 -15.738653986277 34.5161470996744 -16.6221003822303 33.4239302498232 -17.4372430022837 32.2817311096475 -18.1807322505638 31.0942432204151 -18.8495129702716 29.8663462245783 -19.4408369979766 28.603085814276 -19.9522744564105 27.3096529975027 -20.3817237393535 25.991362767143 -20.7274201475855 24.6536322605258 -20.9879431404134 23.301958499245 -21.1622221729776 21.941895800719 -21.2495410953507 20.5790329543084 -21.2495410953507 19.2189702557823 -21.1622221729776 17.8672964945016 -20.9879431404134 16.5295659878843 -20.7274201475855 15.2112757575246 -20.3817237393535 13.9178429407514 -19.9522744564104 12.6545825304491 -19.4408369979765 11.4266855346123 -18.8495129702715 10.2391976453799 -18.1807322505638 9.09699850520415 -17.4372430022837 8.00478165535296 -16.6221003822302 6.96703524914216 -15.7386539862769 5.98802360915078 -14.7905340851632 5.07176970420488 -13.781636706934 4.22203861813572 -12.7161076273242 3.4423220782427 -11.5983253338772 2.73582410703693 -10.4328830338004 2.10544785622543 -9.2245697794912 1.55378367703805 -7.97835078929409 1.08309847591869 -6.69934704435289 0.69532639932039 -5.39281424540102 0.392060885882756 -4.06412121595978 0.174548118650737 -2.71872784069087 0.0436819042412502 -1.3621626295593 69 6 70 48 50 49 68 7 6 48 51 50 68 6 69 28 25 24 28 24 22 8 7 68 28 27 25 47 22 51 47 51 48 89 87 86 89 88 87 66 9 8 66 68 67 66 8 68 10 9 66 30 29 28 90 89 86 45 47 46 64 66 65 44 47 45 82 84 83 32 31 30 82 85 84 92 91 90 62 11 10 62 12 11 62 64 63 62 10 66 34 33 32 62 66 64 14 13 12 34 32 30 14 12 62 94 90 86 41 43 42 94 85 82 41 44 43 94 92 90 94 86 85 94 93 92 60 14 62 60 62 61 40 28 22 79 81 80 40 22 47 40 30 28 40 34 30 40 47 44 40 44 41 39 35 34 17 15 14 17 16 15 96 94 82 39 34 40 96 81 79 96 82 81 18 14 60 96 95 94 38 36 35 18 17 14 38 37 36 38 35 39 18 59 58 18 60 59 76 78 77 56 58 57 20 19 18 98 97 96 75 78 76 75 79 78 54 58 56 54 56 55 22 18 58 22 21 20 22 20 18 2 1 98 73 96 79 73 98 96 73 79 75 73 2 98 73 75 74 24 23 22 51 22 58 51 58 54 51 53 52 51 54 53 71 3 2 71 2 73 71 73 72 5 4 3 5 3 71 6 5 71 27 26 25 6 71 70 
198 196 1 0.0405593746607798
-4.10029529197711 45.7890548798799 5 7.41451637751372 26.893828025 5 -2.83141970594727 45.0786434240576 5 -1.61407591520233 44.2831537732633 5 -0.453959298549357 43.4063076492758 5 0.643502504225369 42.452207402532 5 1.67317498572909 41.4253168191591 5 2.63024079290676 40.3304402370196 5 3.51022226516927 39.1727000684753 5 4.30900238326059 37.9575128350302 5 5.02284403085357 36.6905638259742 5 5.64840747875898 35.3777804995906 5 6.18276600994685 34.025304751367 5 6.62341961227841 32.6394641789568 5 6.96830667488658 31.2267424783266 5 7.21581363348315 29.7937491095937 5 7.36478251946687 28.3471883744723 5 -4.10029529197711 45.7890548798799 0 -2.01694252556706 9.22798595855274 0 -5.32393794287895 46.3715765899643 0 -6.58220791571986 46.874954733384 0 -7.86999250596846 47.2971439432697 0 -9.18205908290781 47.6364287462072 0 -10.5130763512847 47.8914305326874 0 -11.8576360138607 48.0611131587847 0 -13.2102747468435 48.1447871563005 0 -14.5654963989074 48.1421125342668 0 -15.9177943236002 48.0531001604245 0 -17.2616737543962 47.8781117170651 0 -18.5916741314758 47.6178582314139 0 -19.9023912895159 47.2733971865262 0 -21.1884994163313 46.8461282244368 0 -22.4447726931473 46.3377874590209 0 -23.6661065285696 45.7504404216756 0 -24.8475382999739 45.0864736684851 0 -25.9842675180361 44.3485850829729 0 -27.0716753324702 43.5397729138425 0 -28.1053432997144 42.6633235922506 0 -29.0810713363096 41.7227983781134 0 -29.9948947850185 40.7220188897068 0 -30.8431005243426 39.6650515753573 0 -31.6222420559783 38.5561911903196 0 -32.3291535089078 37.3999433459787 0 -32.9609625032233 36.2010062022853 0 -33.5151018214133 34.9642513778106 0 -33.9893198396896 33.6947041549914 0 -34.3816896769667 32.3975230609954 0 -34.6906170243217 31.0779789071749 0 -34.9148466231197 29.7414333722796 0 -35.0534673654818 28.3933172164486 0 -35.105915996373 27.0391082145056 0 -35.0719794022655 25.6843088982207 0 -34.9517954770789 24.3344241979769 0 -34.7458525618786 22.9949390746909 0 -34.4549874606082 21.6712962328757 0 -34.0803820399209 20.368874005402 0 -33.6235584269222 19.0929644998208 0 -33.0863728243402 17.8487520950425 0 -32.4710079682521 16.6412923757486 0 -31.7799642590139 15.4754915901304 0 -31.0160496014315 14.3560867144235 0 -30.1823679954537 13.2876262052422 0 -29.2823069237485 12.2744515179219 0 -28.3195235874089 11.3206794659658 0 -27.2979300457168 10.430185493275 0 -26.221677320347 9.60658792713024 0 -25.0951385285991 8.85323327591157 0 -23.9228911141932 8.17318263129425 0 -22.7096982478296 7.56919923017286 0 -21.4604894730873 7.04373722685332 0 -20.1803406763033 6.5989317211341 0 -18.8744534618196 6.23659008279577 0 -17.5481340164031 5.95818460774957 0 -16.2067715487173 5.76484653568536 0 -14.855816391453 5.65736145352683 0 -13.5007578550947 5.63616610337105 0 -12.1471019233095 5.70134660788257 0 -10.8003488805878 5.85263812035284 0 -9.46597096304184 6.08942590084682 0 -8.14939012317212 6.41074781406409 0 -6.85595599895088 6.81529823876501 0 -5.59092417673934 7.30143337287672 0 -4.35943483636331 7.867177912723 0 -3.16649186511787 8.51023307923822 0 -2.01694252556706 9.22798595855274 5 7.41451637751372 26.893828025 5 7.36236797170954 25.4056481749588 5 7.20617857015813 23.9247688187825 5 6.946714386494 22.4584546866466 5 6.58524826633418 21.0138990315462 5 6.12355344311789 19.5981883665722 5 5.56389483920871 18.2182677008177 5 4.90901795493337 16.8809064694566 5 4.16213540006355 15.5926653251295 5 3.32691113381311 14.3598639535484 5 2.4074424906639 13.1885500712046 5 1.40824008019564 12.0844697572689 5 0.33420565952458 11.0530392652241 5 -0.809391913098462 10.0993184525139 5 7.41451637751372 26.893828 11 7.41451637751372 26.893828 11 7.37083447327247 28.2559906295594 11 7.23996825886297 29.612555840691 11 7.02245549163095 30.9579492159599 11 6.7191899781933 32.2866422454011 11 6.331417901595 33.593175044353 11 5.86073270047563 34.8721787892942 11 5.30906852128825 36.1183977794913 11 4.67869227047674 37.3267110338005 11 3.97219429927096 38.4921533338773 11 3.19247775937794 39.6099356273243 11 2.34274667330878 40.6754647069341 11 1.42649276836287 41.6843620851633 11 0.447481128371482 42.632481986277 11 -0.590265277839311 43.5159283822303 11 -1.68248212769049 44.3310710022837 11 -2.82468126786624 45.0745602505638 11 -4.01216915709863 45.7433409702715 11 -5.24006615293544 46.3346649979766 11 -6.50332656323772 46.8461024564104 11 -7.796759380011 47.2755517393535 11 -9.11504961037071 47.6212481475855 11 -10.4527801169879 47.8817711404134 11 -11.8044538782687 48.0560501729776 11 -13.1645165767947 48.1433690953507 11 -14.5273794232053 48.1433690953507 11 -15.8874421217314 48.0560501729776 11 -17.2391158830121 47.8817711404134 11 -18.5768463896293 47.6212481475855 11 -19.895136619989 47.2755517393535 11 -21.1885694367623 46.8461024564104 11 -22.4518298470646 46.3346649979766 11 -23.6797268429014 45.7433409702715 11 -24.8672147321338 45.0745602505638 11 -26.0094138723095 44.3310710022837 11 -27.1016307221607 43.5159283822303 11 -28.1393771283715 42.6324819862769 11 -29.1183887683629 41.6843620851633 11 -30.0346426733088 40.6754647069341 11 -30.884373759378 39.6099356273243 11 -31.664090299271 38.4921533338773 11 -32.3705882704768 37.3267110338004 11 -33.0009645212883 36.1183977794913 11 -33.5526287004756 34.8721787892942 11 -34.023313901595 33.593175044353 11 -34.4110859781933 32.2866422454011 11 -34.7143514916309 30.9579492159599 11 -34.931864258863 29.612555840691 11 -35.0627304732725 28.2559906295594 11 -35.1064123775137 26.893828 11 -35.0627304732725 25.5316653704406 11 -34.931864258863 24.175100159309 11 -34.7143514916309 22.8297067840401 11 -34.4110859781933 21.5010137545988 11 -34.023313901595 20.194480955647 11 -33.5526287004756 18.9154772107058 11 -33.0009645212882 17.6692582205087 11 -32.3705882704767 16.4609449661995 11 -31.664090299271 15.2955026661226 11 -30.8843737593779 14.1777203726757 11 -30.0346426733088 13.1121912930659 11 -29.1183887683629 12.1032939148367 11 -28.1393771283715 11.155174013723 11 -27.1016307221607 10.2717276177697 11 -26.0094138723095 9.45658499771629 11 -24.8672147321337 8.71309574943616 11 -23.6797268429014 8.04431502972845 11 -22.4518298470646 7.45299100202343 11 -21.1885694367623 6.94155354358955 11 -19.895136619989 6.5121042606465 11 -18.5768463896293 6.1664078524145 11 -17.2391158830121 5.90588485958661 11 -15.8874421217313 5.73160582702236 11 -14.5273794232052 5.64428690464929 11 -13.1645165767947 5.6442869046493 11 -11.8044538782686 5.73160582702236 11 -10.4527801169879 5.90588485958662 11 -9.11504961037062 6.16640785241453 11 -7.79675938001092 6.51210426064653 11 -6.50332656323764 6.94155354358957 11 -5.24006615293536 7.45299100202346 11 -4.01216915709854 8.0443150297285 11 -2.82468126786616 8.71309574943622 11 -1.68248212769042 9.45658499771634 11 -0.590265277839237 10.2717276177698 11 0.447481128371564 11.1551740137231 11 1.42649276836294 12.1032939148368 11 2.34274667330884 13.1121912930659 11 3.19247775937801 14.1777203726758 11 3.97219429927103 15.2955026661228 11 4.67869227047679 16.4609449661996 11 5.3090685212883 17.6692582205088 11 5.86073270047568 18.9154772107059 11 6.33141790159504 20.1944809556471 11 6.71918997819333 21.501013754599 11 7.02245549163097 22.8297067840402 11 7.23996825886299 24.1751001593091 11 7.37083447327247 25.5316653704407 11 1.09460988486948 -5 2.35178632124189e-09 -5 1.02619676721212 -5 0.957783649554766 -5 0.88937053189741 -5 0.820957414240055 -5 0.752544296582699 -5 0.684131178925344 -5 0.615718061267988 -5 0.547304943610633 -5 0.478891825953277 -5 0.410478708295922 -5 0.342065590638566 -5 0.273652472981211 -5 0.205239355323855 -5 0.1368262376665 -5 0.0684131200091436 -5 1.09460988486948 0 5.30241794932905 0 1.15836455251281 0 1.22211922015613 0 1.28587388779946 0 1.34962855544279 0 1.41338322308611 0 1.47713789072944 0 1.54089255837277 0 1.60464722601609 0 1.66840189365942 0 1.73215656130275 0 1.79591122894608 0 1.8596658965894 0 1.92342056423273 0 1.98717523187606 0 2.05092989951938 0 2.11468456716271 0 2.17843923480604 0 2.24219390244936 0 2.30594857009269 0 2.36970323773602 0 2.43345790537934 0 2.49721257302267 0 2.560967240666 0 2.62472190830932 0 2.68847657595265 0 2.75223124359598 0 2.8159859112393 0 2.87974057888263 0 2.94349524652596 0 3.00724991416928 0 3.07100458181261 0 3.13475924945594 0 3.19851391709926 0 3.26226858474259 0 3.32602325238592 0 3.38977792002924 0 3.45353258767257 0 3.5172872553159 0 3.58104192295922 0 3.64479659060255 0 3.70855125824588 0 3.7723059258892 0 3.83606059353253 0 3.89981526117586 0 3.96356992881918 0 4.02732459646251 0 4.09107926410584 0 4.15483393174916 0 4.21858859939249 0 4.28234326703582 0 4.34609793467914 0 4.40985260232247 0 4.4736072699658 0 4.53736193760912 0 4.60111660525245 0 4.66487127289578 0 4.7286259405391 0 4.79238060818243 0 4.85613527582576 0 4.91988994346908 0 4.98364461111241 0 5.04739927875574 0 5.11115394639906 0 5.17490861404239 0 5.23866328168572 0 5.30241794932905 -5 6.28318530953137 -5 6.21313049808835 -5 6.14307568664533 -5 6.0730208752023 -5 6.00296606375928 -5 5.93291125231626 -5 5.86285644087324 -5 5.79280162943021 -5 5.72274681798719 -5 5.65269200654417 -5 5.58263719510114 -5 5.51258238365812 -5 5.4425275722151 -5 5.37247276077208 -5 6.28318530717959 -11 0 -11 0.0641141357875468 -11 0.128228271575094 -11 0.192342407362641 -11 0.256456543150187 -11 0.320570678937734 -11 0.384684814725281 -11 0.448798950512828 -11 0.512913086300375 -11 0.577027222087922 -11 0.641141357875468 -11 0.705255493663015 -11 0.769369629450562 -11 0.833483765238109 -11 0.897597901025656 -11 0.961712036813202 -11 1.02582617260075 -11 1.0899403083883 -11 1.15405444417584 -11 1.21816857996339 -11 1.28228271575094 -11 1.34639685153848 -11 1.41051098732603 -11 1.47462512311358 -11 1.53873925890112 -11 1.60285339468867 -11 1.66696753047622 -11 1.73108166626377 -11 1.79519580205131 -11 1.85930993783886 -11 1.92342407362641 -11 1.98753820941395 -11 2.0516523452015 -11 2.11576648098905 -11 2.17988061677659 -11 2.24399475256414 -11 2.30810888835169 -11 2.37222302413923 -11 2.43633715992678 -11 2.50045129571433 -11 2.56456543150187 -11 2.62867956728942 -11 2.69279370307697 -11 2.75690783886451 -11 2.82102197465206 -11 2.88513611043961 -11 2.94925024622715 -11 3.0133643820147 -11 3.07747851780225 -11 3.14159265358979 -11 3.20570678937734 -11 3.26982092516489 -11 3.33393506095243 -11 3.39804919673998 -11 3.46216333252753 -11 3.52627746831508 -11 3.59039160410262 -11 3.65450573989017 -11 3.71861987567772 -11 3.78273401146526 -11 3.84684814725281 -11 3.91096228304036 -11 3.9750764188279 -11 4.03919055461545 -11 4.103304690403 -11 4.16741882619054 -11 4.23153296197809 -11 4.29564709776564 -11 4.35976123355318 -11 4.42387536934073 -11 4.48798950512828 -11 4.55210364091582 -11 4.61621777670337 -11 4.68033191249092 -11 4.74444604827847 -11 4.80856018406601 -11 4.87267431985356 -11 4.93678845564111 -11 5.00090259142865 -11 5.0650167272162 -11 5.12913086300375 -11 5.19324499879129 -11 5.25735913457884 -11 5.32147327036639 -11 5.38558740615394 -11 5.44970154194148 -11 5.51381567772903 -11 5.57792981351658 -11 5.64204394930412 -11 5.70615808509167 -11 5.77027222087922 -11 5.83438635666676 -11 5.89850049245431 -11 5.96261462824186 -11 6.02672876402941 -11 6.09084289981695 -11 6.1549570356045 -11 6.21907117139205 -11 88 89 196 88 196 197 87 88 197 87 197 198 2 101 102 86 87 198 86 198 100 17 102 103 17 2 102 16 103 104 16 17 103 15 104 105 15 16 104 14 105 106 14 15 105 13 106 107 13 14 106 12 107 108 12 13 107 11 108 109 11 12 108 10 109 110 10 11 109 9 110 111 9 10 110 8 111 112 8 9 111 7 112 113 7 8 112 6 113 114 6 7 113 5 114 115 5 6 114 4 115 116 4 5 115 3 116 117 3 117 118 3 4 116 1 118 119 1 3 118 120 1 119 20 18 1 20 1 120 21 120 121 21 20 120 22 121 122 22 21 121 23 122 123 23 22 122 24 123 124 24 23 123 25 124 125 25 24 124 26 125 126 26 25 125 27 26 126 27 126 127 28 27 127 28 127 128 29 28 128 29 128 129 30 29 129 30 129 130 31 30 130 31 130 131 32 31 131 33 32 131 33 131 132 34 132 133 34 33 132 35 133 134 35 34 133 36 134 135 36 35 134 37 135 136 37 36 135 38 136 137 38 37 136 39 137 138 39 38 137 40 138 139 40 39 138 41 139 140 41 40 139 42 140 141 42 41 140 43 141 142 43 42 141 44 142 143 44 43 142 45 143 144 45 44 143 46 144 145 46 45 144 47 145 146 47 46 145 48 146 147 48 47 146 49 147 148 49 48 147 50 148 149 50 49 148 51 149 150 51 50 149 52 51 150 52 150 151 53 52 151 53 151 152 54 53 152 54 152 153 55 54 153 55 153 154 56 55 154 56 154 155 57 56 155 57 155 156 58 57 156 58 156 157 59 58 157 59 157 158 60 59 158 60 158 159 61 60 159 61 159 160 62 61 160 62 160 161 63 62 161 63 161 162 64 63 162 64 162 163 65 64 163 65 163 164 66 65 164 66 164 165 67 66 165 67 165 166 68 166 167 68 67 166 69 167 168 69 68 167 70 168 169 70 69 168 71 169 170 71 70 169 72 170 171 72 71 170 73 171 172 73 72 171 74 172 173 74 73 172 75 173 174 75 74 173 76 174 175 76 75 174 77 175 176 77 76 175 78 77 176 78 176 177 79 78 177 79 177 178 80 79 178 80 178 179 81 80 179 81 179 180 82 81 180 82 180 181 83 82 181 83 181 182 85 182 183 85 183 184 84 182 85 84 83 182 99 85 184 99 184 185 19 84 85 98 99 185 98 185 186 97 98 186 97 186 187 97 187 188 96 97 188 96 188 189 95 96 189 95 189 190 94 95 190 94 190 191 93 94 191 93 191 192 92 93 192 92 192 193 91 92 193 91 193 194 90 91 194 90 194 195 89 90 195 89 195 196 
34 32 1 0.0124371014303455
7.41451637751372 26.893828 0 -4.10029529197711 45.7890548798799 0 7.36478252267125 28.3471883277068 0 7.21581363945065 29.7937490662525 0 6.96830668316604 31.2267424385541 0 6.62341962241281 32.6394641428521 0 6.18276602147741 34.0253047189835 0 5.64840749122927 35.3777804709365 0 5.02284404381348 36.6905638010131 0 4.3090023962703 37.9575128136819 0 3.51022227780308 39.1727000506175 0 2.63024080475676 40.3304402224889 0 1.67317499640875 41.4253168077536 0 0.643502513372844 42.452207394013 0 -0.453959291268049 43.4063076433705 0 -1.61407591009038 44.2831537696674 0 -2.83141970327439 45.0786434224386 0 -4.10029529197711 45.7890548798799 5 7.41451637751372 26.893828025 5 -2.83141970594727 45.0786434240576 5 -1.61407591520233 44.2831537732633 5 -0.453959298549357 43.4063076492758 5 0.643502504225369 42.452207402532 5 1.67317498572909 41.4253168191591 5 2.63024079290676 40.3304402370196 5 3.51022226516927 39.1727000684753 5 4.30900238326059 37.9575128350302 5 5.02284403085357 36.6905638259742 5 5.64840747875898 35.3777804995906 5 6.18276600994685 34.025304751367 5 6.62341961227841 32.6394641789568 5 6.96830667488658 31.2267424783266 5 7.21581363348315 29.7937491095937 5 7.36478251946687 28.3471883744723 5 0 0 1.09460988486948 0 0.0684131178043425 0 0.136826235608685 0 0.205239353413028 0 0.27365247121737 0 0.342065589021713 0 0.410478706826055 0 0.478891824630398 0 0.54730494243474 0 0.615718060239083 0 0.684131178043425 0 0.752544295847767 0 0.82095741365211 0 0.889370531456453 0 0.957783649260795 0 1.02619676706514 0 1.09460988486948 -5 2.35178632124189e-09 -5 1.02619676721212 -5 0.957783649554766 -5 0.88937053189741 -5 0.820957414240055 -5 0.752544296582699 -5 0.684131178925344 -5 0.615718061267988 -5 0.547304943610633 -5 0.478891825953277 -5 0.410478708295922 -5 0.342065590638566 -5 0.273652472981211 -5 0.205239355323855 -5 0.1368262376665 -5 0.0684131200091436 -5 3 19 34 3 1 19 4 34 33 4 3 34 5 33 32 5 4 33 6 32 31 6 5 32 7 31 30 7 6 31 8 30 29 8 7 30 9 29 28 9 8 29 10 28 27 10 9 28 11 27 26 11 10 27 12 26 25 12 11 26 13 25 24 13 12 25 14 24 23 14 13 24 15 23 22 15 14 23 16 22 21 16 15 22 17 21 20 17 16 21 2 20 18 2 17 20 
67 65 1 1.64868119156836e-14
-4.10029529197711 45.7890548798799 0 -2.01694252556706 9.22798595855274 0 -5.32393794287895 46.3715765899643 0 -6.58220791571986 46.874954733384 0 -7.86999250596846 47.2971439432697 0 -9.18205908290781 47.6364287462072 0 -10.5130763512847 47.8914305326874 0 -11.8576360138607 48.0611131587847 0 -13.2102747468435 48.1447871563005 0 -14.5654963989074 48.1421125342668 0 -15.9177943236002 48.0531001604245 0 -17.2616737543962 47.8781117170651 0 -18.5916741314758 47.6178582314139 0 -19.9023912895159 47.2733971865262 0 -21.1884994163313 46.8461282244368 0 -22.4447726931473 46.3377874590209 0 -23.6661065285696 45.7504404216756 0 -24.8475382999739 45.0864736684851 0 -25.9842675180361 44.3485850829729 0 -27.0716753324702 43.5397729138425 0 -28.1053432997144 42.6633235922506 0 -29.0810713363096 41.7227983781134 0 -29.9948947850185 40.7220188897068 0 -30.8431005243426 39.6650515753573 0 -31.6222420559783 38.5561911903196 0 -32.3291535089078 37.3999433459787 0 -32.9609625032233 36.2010062022853 0 -33.5151018214133 34.9642513778106 0 -33.9893198396896 33.6947041549914 0 -34.3816896769667 32.3975230609954 0 -34.6906170243217 31.0779789071749 0 -34.9148466231197 29.7414333722796 0 -35.0534673654818 28.3933172164486 0 -35.105915996373 27.0391082145056 0 -35.0719794022655 25.6843088982207 0 -34.9517954770789 24.3344241979769 0 -34.7458525618786 22.9949390746909 0 -34.4549874606082 21.6712962328757 0 -34.0803820399209 20.368874005402 0 -33.6235584269222 19.0929644998208 0 -33.0863728243402 17.8487520950425 0 -32.4710079682521 16.6412923757486 0 -31.7799642590139 15.4754915901304 0 -31.0160496014315 14.3560867144235 0 -30.1823679954537 13.2876262052422 0 -29.2823069237485 12.2744515179219 0 -28.3195235874089 11.3206794659658 0 -27.2979300457168 10.430185493275 0 -26.221677320347 9.60658792713024 0 -25.0951385285991 8.85323327591157 0 -23.9228911141932 8.17318263129425 0 -22.7096982478296 7.56919923017286 0 -21.4604894730873 7.04373722685332 0 -20.1803406763033 6.5989317211341 0 -18.8744534618196 6.23659008279577 0 -17.5481340164031 5.95818460774957 0 -16.2067715487173 5.76484653568536 0 -14.855816391453 5.65736145352683 0 -13.5007578550947 5.63616610337105 0 -12.1471019233095 5.70134660788257 0 -10.8003488805878 5.85263812035284 0 -9.46597096304184 6.08942590084682 0 -8.14939012317212 6.41074781406409 0 -6.85595599895088 6.81529823876501 0 -5.59092417673934 7.30143337287672 0 -4.35943483636331 7.867177912723 0 -3.16649186511787 8.51023307923822 0 11.5148116694909 18.8952268798799 9.43145890308083 -17.6658420414473 12.7384543203927 19.4777485899643 13.9967242932336 19.981126733384 15.2845088834822 20.4033159432697 16.5965754604215 20.7426007462072 17.9275927287985 20.9976025326874 19.2721523913744 21.1672851587846 20.6247911243573 21.2509591563005 21.9800127764211 21.2482845342668 23.332310701114 21.1592721604245 24.6761901319099 20.9842837170651 26.0061905089895 20.7240302314139 27.3169076670296 20.3795691865262 28.603015793845 19.9523002244368 29.859289070661 19.4439594590209 31.0806229060834 18.8566124216756 32.2620546774876 18.1926456684851 33.3987838955499 17.4547570829729 34.4861917099839 16.6459449138426 35.5198596772281 15.7694955922506 36.4955877138233 14.8289703781134 37.4094111625322 13.8281908897068 38.2576169018564 12.7712235753573 39.036758433492 11.6623631903195 39.7436698864215 10.5061153459787 40.375478880737 9.30717820228531 40.929618198927 8.07042337781059 41.4038362172033 6.80087615499144 41.7962060544804 5.50369506099538 42.1051334018354 4.18415090717489 42.3293630006334 2.84760537227958 42.4679837429955 1.49948921644855 42.5204323738867 0.145280214505608 42.4864957797792 -1.2095191017793 42.3663118545927 -2.55940380202314 42.1603689393923 -3.89888892530912 41.869503838122 -5.22253176712433 41.4948984174346 -6.52495399459795 41.0380748044359 -7.80086350017916 40.5008892018539 -9.04507590495749 39.8855243457658 -10.2525356242514 39.1944806365277 -11.4183364098696 38.4305659789452 -12.5377412855765 37.5968843729674 -13.6062017947578 36.6968233012623 -14.6193764820781 35.7340399649227 -15.5731485340342 34.7124464232306 -16.463642506725 33.6361936978607 -17.2872400728698 32.5096549061128 -18.0405947240884 31.3374074917069 -18.7206453687058 30.1242146253433 -19.3246287698271 28.8750058506011 -19.8500907731467 27.5948570538171 -20.2948962788659 26.2889698393334 -20.6572379172042 24.9626503939169 -20.9356433922504 23.6212879262311 -21.1289814643146 22.2703327689667 -21.2364665464732 20.9152742326085 -21.2576618966289 19.5616183008233 -21.1924813921174 18.2148652581016 -21.0411898796472 16.8804873405556 -20.8044020991532 15.5639065006858 -20.4830801859359 14.2704723764646 -20.078529761235 13.0054405542531 -19.5923946271233 11.773951213877 -19.026650087277 10.5810082426316 -18.3835949207618 5 1 67 38 40 39 37 40 38 7 6 5 64 66 65 8 7 5 35 40 37 35 53 42 35 42 40 35 5 67 62 64 63 35 37 36 35 67 53 61 67 66 61 66 64 61 64 62 33 35 34 59 61 60 57 59 58 57 61 59 31 33 32 31 5 35 31 35 33 13 9 8 13 10 9 13 11 10 13 12 11 13 8 5 53 55 54 30 5 31 53 56 55 30 13 5 53 57 56 53 67 61 53 61 57 15 14 13 51 53 52 15 30 29 15 13 30 28 15 29 49 53 51 49 51 50 17 16 15 26 28 27 47 49 48 25 15 28 25 28 26 19 18 17 45 49 47 19 15 25 19 17 15 45 47 46 23 25 24 43 45 44 21 20 19 21 19 25 42 53 49 21 25 23 42 49 45 42 45 43 22 21 23 1 2 67 40 42 41 5 3 1 5 4 3 
30 28 1 0.0130411019489649
7.41451637751372 26.893828 0 7.41451637751372 26.893828025 5 -2.01694252556706 9.22798595855274 5 7.36236797170954 25.4056481749588 5 7.20617857015813 23.9247688187825 5 6.946714386494 22.4584546866466 5 6.58524826633418 21.0138990315462 5 6.12355344311789 19.5981883665722 5 5.56389483920871 18.2182677008177 5 4.90901795493337 16.8809064694566 5 4.16213540006355 15.5926653251295 5 3.32691113381311 14.3598639535484 5 2.4074424906639 13.1885500712046 5 1.40824008019564 12.0844697572689 5 0.33420565952458 11.0530392652241 5 -0.809391913098462 10.0993184525139 5 -2.01694252556706 9.22798595855274 0 -0.809391915919733 10.099318450324 0 0.334205654202526 11.05303926046 0 1.40824007273238 12.0844697495815 0 2.40744248145478 13.1885500602833 0 3.32691112328552 14.3598639391245 0 4.16213538867301 15.592665306979 0 4.90901794315925 16.8809064474027 0 5.56389482754983 18.2182676747332 0 6.12355343208789 19.5981883363811 0 6.58524825645681 21.013898997225 0 6.94671437829819 22.4584546482253 0 7.20617856417307 23.9247687763453 0 7.36236796845966 25.405648128644 0 6.28318530717959 0 6.28318530717959 -5 5.30241794932905 -5 6.21313049808835 -5 6.14307568664533 -5 6.0730208752023 -5 6.00296606375928 -5 5.93291125231626 -5 5.86285644087324 -5 5.79280162943021 -5 5.72274681798719 -5 5.65269200654417 -5 5.58263719510114 -5 5.51258238365812 -5 5.4425275722151 -5 5.37247276077208 -5 5.30241794932905 0 5.37247276060409 0 5.44252757187913 0 5.51258238315417 0 5.5826371944292 0 5.65269200570424 0 5.72274681697928 0 5.79280162825432 0 5.86285643952936 0 5.9329112508044 0 6.00296606207944 0 6.07302087335447 0 6.14307568462951 0 6.21313049590455 0 18 3 16 18 17 3 19 16 15 19 18 16 20 15 14 20 19 15 21 14 13 21 20 14 22 13 12 22 21 13 23 12 11 23 22 12 24 11 10 24 23 11 25 10 9 25 24 10 26 9 8 26 25 9 27 8 7 27 26 8 28 7 6 28 27 7 29 6 5 29 28 6 30 5 4 30 29 5 1 4 2 1 30 4 
64 62 1 0.012042800641486
7.41451637751372 26.893828 0 -4.10029529197711 45.7890548798799 0 7.36478252267125 28.3471883277068 0 7.21581363945065 29.7937490662525 0 6.96830668316604 31.2267424385541 0 6.62341962241281 32.6394641428521 0 6.18276602147741 34.0253047189835 0 5.64840749122927 35.3777804709365 0 5.02284404381348 36.6905638010131 0 4.3090023962703 37.9575128136819 0 3.51022227780308 39.1727000506175 0 2.63024080475676 40.3304402224889 0 1.67317499640875 41.4253168077536 0 0.643502513372844 42.452207394013 0 -0.453959291268049 43.4063076433705 0 -1.61407591009038 44.2831537696674 0 -2.83141970327439 45.0786434224386 0 -2.01694252556706 9.22798595855274 0 -0.809391915919733 10.099318450324 0 0.334205654202526 11.05303926046 0 1.40824007273238 12.0844697495815 0 2.40744248145478 13.1885500602833 0 3.32691112328552 14.3598639391245 0 4.16213538867301 15.592665306979 0 4.90901794315925 16.8809064474027 0 5.56389482754983 18.2182676747332 0 6.12355343208789 19.5981883363811 0 6.58524825645681 21.013898997225 0 6.94671437829819 22.4584546482253 0 7.20617856417307 23.9247687763453 0 7.36236796845966 25.405648128644 0 -2.01694252556706 9.22798595855274 -5 -4.10029529197711 45.7890548798799 -5 -2.89618318560656 45.1177133172698 -5 -1.73811228627412 44.3697445675782 -5 -0.630952011994188 43.5482936649356 -5 0.42064228652236 42.6568146187863 -5 1.41224890053212 41.6990558905838 -5 2.33969835551305 40.6790446323855 -5 3.19909094283232 39.6010697536167 -5 3.98681311711151 38.4696638872077 -5 4.69955269034211 37.289584330929 -5 5.33431275886346 36.065793044064 -5 5.88842430464371 34.8034357835277 -5 6.35955741787803 33.5078204671586 -5 6.74573109371597 32.1843948551631 -5 7.04532156192468 30.8387236435537 -5 7.25706911446413 29.4764650659006 -5 7.38008340226549 28.1033471017793 -5 7.41384717894134 26.7251433919525 -5 7.35821847568609 25.3476489615572 -5 7.21343119822166 23.9766558533761 -5 6.9800941432785 22.617928773648 -5 6.65918843874734 21.2771808528235 -5 6.25206341826524 19.9600496231834 -5 5.7604309475824 18.6720733143306 -5 5.18635822656594 17.4186675662264 -5 4.53225909710664 16.2051026576877 -5 3.80088389347683 15.0364813460939 -5 2.99530787781625 13.917717411482 -5 2.11891830937208 12.8535149952481 -5 1.17540020186385 11.8483488203297 -5 0.168720828860302 10.9064453760399 -5 -0.896886957680641 10.0317651466651 -5 6.28318530717959 -5 5.18857542231011 -5 6.21477218937524 -5 6.1463590715709 -5 6.07794595376656 -5 6.00953283596222 -5 5.94111971815787 -5 5.87270660035353 -5 5.80429348254919 -5 5.73588036474485 -5 5.6674672469405 -5 5.59905412913616 -5 5.53064101133182 -5 5.46222789352748 -5 5.39381477572313 -5 5.32540165791879 -5 5.25698854011445 -5 7.26395266503012 -5 7.19389785375508 -5 7.12384304248005 -5 7.05378823120501 -5 6.98373341992997 -5 6.91367860865493 -5 6.84362379737989 -5 6.77356898610485 -5 6.70351417482981 -5 6.63345936355478 -5 6.56340455227974 -5 6.4933497410047 -5 6.42329492972966 -5 6.35324011845462 -5 7.26395266503012 -10 5.18857542231011 -10 5.25343096114511 -10 5.31828649998011 -10 5.38314203881511 -10 5.44799757765011 -10 5.51285311648511 -10 5.57770865532011 -10 5.64256419415511 -10 5.70741973299011 -10 5.77227527182511 -10 5.83713081066011 -10 5.90198634949511 -10 5.96684188833011 -10 6.03169742716511 -10 6.09655296600011 -10 6.16140850483511 -10 6.22626404367011 -10 6.29111958250511 -10 6.35597512134011 -10 6.42083066017512 -10 6.48568619901012 -10 6.55054173784512 -10 6.61539727668012 -10 6.68025281551512 -10 6.74510835435012 -10 6.80996389318512 -10 6.87481943202012 -10 6.93967497085512 -10 7.00453050969012 -10 7.06938604852512 -10 7.13424158736012 -10 7.19909712619512 -10 31 50 51 30 31 51 30 51 52 30 52 53 2 33 34 29 30 53 29 53 54 17 34 35 17 2 34 28 54 55 28 29 54 16 35 36 16 17 35 27 28 55 27 55 56 15 36 37 15 16 36 26 56 57 14 37 38 26 27 56 14 15 37 25 57 58 25 26 57 13 38 39 13 14 38 24 58 59 24 25 58 12 39 40 12 13 39 23 59 60 23 24 59 11 40 41 22 60 61 11 12 40 22 23 60 10 41 42 21 61 62 10 11 41 21 22 61 9 10 42 20 62 63 9 42 43 20 21 62 19 63 64 19 20 63 8 9 43 8 43 44 18 64 32 18 19 64 7 8 44 7 44 45 6 7 45 6 45 46 5 6 46 5 46 47 4 5 47 4 47 48 3 4 48 3 48 49 1 3 49 1 49 50 31 1 50 
4 2 1 4.44089209850063e-15
-4.10029529197711 45.7890548798799 0 -4.10029529197711 45.7890548798799 -5 -2.01694252556706 9.22798595855274 -5 -2.01694252556706 9.22798595855274 0 36.6203784718201 -5 36.6203784718201 -10 0 -10 1.77347989137141e-15 -5 2 4 3 1 4 2 
33 31 1 1.02140518265514e-14
-4.10029529197711 45.7890548798799 0 -2.01694252556706 9.22798595855274 0 -2.89618318560656 45.1177133172698 0 -1.73811228627412 44.3697445675782 0 -0.630952011994188 43.5482936649356 0 0.42064228652236 42.6568146187863 0 1.41224890053212 41.6990558905838 0 2.33969835551305 40.6790446323855 0 3.19909094283232 39.6010697536167 0 3.98681311711151 38.4696638872077 0 4.69955269034211 37.289584330929 0 5.33431275886346 36.065793044064 0 5.88842430464371 34.8034357835277 0 6.35955741787803 33.5078204671586 0 6.74573109371597 32.1843948551631 0 7.04532156192468 30.8387236435537 0 7.25706911446413 29.4764650659006 0 7.38008340226549 28.1033471017793 0 7.41384717894134 26.7251433919525 0 7.35821847568609 25.3476489615572 0 7.21343119822166 23.9766558533761 0 6.9800941432785 22.617928773648 0 6.65918843874734 21.2771808528235 0 6.25206341826524 19.9600496231834 0 5.7604309475824 18.6720733143306 0 5.18635822656594 17.4186675662264 0 4.53225909710664 16.2051026576877 0 3.80088389347683 15.0364813460939 0 2.99530787781625 13.917717411482 0 2.11891830937208 12.8535149952481 0 1.17540020186385 11.8483488203297 0 0.168720828860302 10.9064453760399 0 -0.896886957680641 10.0317651466651 0 0 0 2.08335276641003 -36.5610689213271 1.20411210637053 -0.67134156261011 2.36218300570297 -1.4193103123017 3.4693432799829 -2.24076121494426 4.52093757849945 -3.1322402610936 5.51254419250921 -4.08999898929604 6.43999364749013 -5.11001024749442 7.29938623480941 -6.18798512626319 8.0871084090886 -7.3193909926722 8.7998479823192 -8.4994705489509 9.43460805084055 -9.72326183581587 9.9887195966208 -10.9856190963522 10.4598527098551 -12.2812344127213 10.8460263856931 -13.6046600247168 11.1456168539018 -14.9503312363262 11.3573644064412 -16.3125898139793 11.4803786942426 -17.6857077781005 11.5141424709184 -19.0639114879274 11.4585137676632 -20.4414059183227 11.3137264901987 -21.8123990265038 11.0803894352556 -23.1711261062319 10.7594837307244 -24.5118740270564 10.3523587102423 -25.8290052566965 9.86072623955949 -27.1169815655493 9.28665351854303 -28.3703873136535 8.63255438908373 -29.5839522221922 7.90117918545392 -30.752573533786 7.09560316979334 -31.8713374683979 6.21921360134916 -32.9355398846318 5.27569549384094 -33.9407060595502 4.26901612083739 -34.88260950384 3.20340833429645 -35.7572897332148 7 5 8 32 2 33 30 32 31 25 27 26 25 28 27 25 29 28 25 30 29 25 32 30 24 32 25 23 32 24 22 32 23 21 32 22 20 32 21 16 18 17 14 16 15 14 18 16 1 2 32 5 3 1 5 4 3 5 20 19 5 32 20 5 1 32 8 10 9 8 11 10 8 12 11 8 13 12 8 14 13 8 19 18 8 18 14 8 5 19 7 6 5 

TShapes 43
Ve
1e-05
7.41451637751372 26.893828 11
0 0

0101101
*
Ed
 1e-07 1 1 0
1  1 0 0 6.28318530717959
2  1 1 8 0 6.28318530717959
2  2 2 9 0 6.28318530717959
6  1 2 10
6  2 1 8
0

0101100
+43 11 -43 11 *
Wi

0101100
+42 0 *
Fa
0  1e-07 1 0
2  1
0101000
-41 7 *
Ve
1e-07
-4.10029529197711 45.7890548798799 5
0 0

0101101
*
Ve
1.25000000292152e-07
7.41451637751372 26.893828025 5
0 0

0101101
*
Ed
 1e-07 1 1 0
1  2 0 5.18857542231011 6.2831853048278
2  3 2 16 5.18857542231011 6.2831853048278
2  4 3 16 5.18857542231011 6.2831853048278
6  3 2 17
6  4 3 17
0

0101000
+39 18 -38 18 *
Ve
1.00000000888178e-07
-4.10029529197711 45.7890548798799 0
0 0

0101101
*
Ed
 1e-07 1 1 0
1  3 0 0 5
2  5 2 12 0 5
2  6 3 12 0 5
6  5 2 0
6  6 3 0
0

0101000
+39 19 -36 19 *
Ve
1.00000003580362e-07
-2.01694252556706 9.22798595855274 0
0 0

0101101
*
Ed
 1e-07 1 1 0
1  4 0 1.09460988486948 5.30241794932905
2  7 2 21 1.09460988486948 5.30241794932905
2  8 4 8 1.09460988486948 5.30241794932905
6  7 2 22
6  8 4 22
0

0101000
+36 23 -34 23 *
Ve
1.00000001790181e-07
-2.01694252556706 9.22798595855274 5
0 0

0101101
*
Ed
 1.00000001790181e-07 1 1 0
1  5 0 0 5
2  9 2 12 0 5
2  10 5 12 0 5
6  9 2 0
6  10 5 0
0

0101000
+32 19 -34 19 *
Ed
 1e-07 1 1 0
1  6 0 6.2831853048278 7.26395266503012
2  11 2 16 6.2831853048278 7.26395266503012
2  12 5 16 6.2831853048278 7.26395266503012
6  11 2 17
6  12 5 17
0

0101000
+38 18 -32 18 *
Ed
 1e-07 1 1 0
1  7 0 5 11
3  13 14CN 2 0 5 11
7  13 14 2 24
0

0101000
+38 25 -43 25 *
Wi

0101000
+37 15 -35 0 -33 20 +31 0 +30 15 -29 12 +42 26 +29 12 *
Fa
0  1e-07 2 12
2  2
0101000
+28 0 *
Ve
1e-05
7.41451637751372 26.893828 0
0 0

0101101
*
Ed
 1e-07 1 1 0
1  8 0 0 1.09460988486948
2  15 3 21 0 1.09460988486948
2  16 6 22 0 1.09460988486948
6  15 3 22
6  16 6 22
0

0101000
+26 23 -36 23 *
Ed
 1e-07 1 1 0
1  9 0 0 5
2  17 3 0 0 5
2  18 5 0 0 5
4 CN 3 0 5 0
6  17 3 24
6  18 5 24
0

0101000
+26 25 -38 25 *
Wi

0101000
-25 20 +35 0 -37 15 +24 12 *
Fa
0  1e-07 3 12
2  3
0101000
+23 0 *
Ed
 1e-07 1 1 0
1  10 0 -28.0700434047548 8.55033506706535
2  19 4 27 -28.0700434047548 8.55033506706535
2  20 7 0 -28.0700434047548 8.55033506706535
6  19 4 0
6  20 7 0
0

0101000
+36 19 -34 19 *
Wi

0101000
-33 20 +21 0 *
Fa
0  1e-07 4 27
2  4
0101000
+20 0 *
Ed
 1e-07 1 1 0
1  11 0 5.30241794932905 6.28318530717959
2  21 5 21 5.30241794932905 6.28318530717959
2  22 6 22 5.30241794932905 6.28318530717959
6  21 5 22
6  22 6 22
0

0101000
+34 23 -26 23 *
Wi

0101000
-24 12 -30 15 -31 0 -18 20 *
Fa
0  1e-07 5 12
2  5
0101000
+17 0 *
Ve
1.00000001790181e-07
-2.01694252556706 9.22798595855274 -5
0 0

0101101
*
Ed
 1.00000001790181e-07 1 1 0
1  12 0 5 10
2  23 6 0 5 10
2  24 7 0 5 10
6  23 6 0
6  24 7 0
0

0101000
+34 19 -15 19 *
Ve
1e-07
-4.10029529197711 45.7890548798799 -5
0 0

0101101
*
Ed
 1e-07 1 1 0
1  13 0 5.18857542231011 7.26395266503012
2  25 6 30 5.18857542231011 7.26395266503012
2  26 8 31 5.18857542231011 7.26395266503012
6  25 6 30
6  26 8 31
0

0101000
+13 32 -15 32 *
Ed
 1e-07 1 1 0
1  14 0 5 10
2  27 6 0 5 10
2  28 7 0 5 10
6  27 6 0
6  28 7 0
0

0101000
+36 19 -13 19 *
Wi

0101000
+25 20 +18 20 -14 0 +12 29 +11 0 *
Fa
0  1e-07 6 0
2  6
0101000
+10 0 *
Ed
 1e-07 1 1 0
1  15 0 0 36.6203784718201
2  29 7 30 0 36.6203784718201
2  30 8 31 0 36.6203784718201
6  29 7 30
6  30 8 31
0

0101000
+15 32 -13 32 *
Wi

0101000
-11 0 +8 29 +14 0 +21 0 *
Fa
0  1e-07 7 0
2  7
0101000
+7 0 *
Wi

0101100
+12 0 +8 0 *
Fa
0  1e-07 8 0
2  8
0101000
-5 13 *
Sh

0101000
-40 6 -27 0 -22 0 +19 0 -16 0 -9 0 -6 0 -4 33 *
So

0100000
+3 0 *
Co

1100000
+2 1 *

+1 0 