DBRep_DrawableShape

CASCADE Topology V1, (c) Matra-Datavision
Locations 7
1
              1               0               0               0 
              0               1               0               0 
              0               0               1               0 
1
              1               0               0               0 
              0               1               0               0 
              0               0               1               0 
2  2 -1 0
1
             -1               0    1.224646e-16               0 
              0               1               0               0 
  -1.224646e-16               0              -1               5 
2  2 1 4 -1 0
2  4 -1 0
2  4 1 2 -1 0
Curve2ds 18
1 0 10 1 0 
2 0 0 1 0 -0 1 2
1 6.2831853071795862 -0 0 1 
1 0 -0 0 1 
1 0 0 1 0 
2 0 0 1 0 -0 1 2
1 9.4247779607693793 5 -1 0 
1 3.1415926535897931 5 -1 0 
1 3.1415926535897931 5 0 -1 
1 0 0 1 0 
2 0 0 1 0 -0 1 2
1 9.4247779607693793 5 -1 0 
1 6.2831853071795862 -0 0 1 
1 0 -0 0 1 
1 3.1415926535897931 5 0 -1 
1 3.1415926535897931 5 -1 0 
1 0 10 1 0 
2 0 0 1 0 -0 1 2
Curves 6
2 0 0 10 0 0 1 1 0 -0 -0 1 0 2
1 2 -4.898425415289509e-16 0 0 0 1 
2 0 0 0 0 0 1 1 0 -0 -0 1 0 2
2 0 0 0 0 0 1 1 0 -0 -0 1 0 2
1 2 -4.898425415289509e-16 0 0 0 1 
2 0 0 10 0 0 1 1 0 -0 -0 1 0 2
Polygon3D 0
PolygonOnTriangulations 22
40 1 3 4 5 6 7 8 9 10 11 12 13 14 15 16 17 18 19 20 21 22 23 24 25 26 27 28 29 30 31 32 33 34 35 36 37 38 39 40 2 
p 0.012439425253588 1 0 0.161107315568707 0.322214631137415 0.483321946706122 0.644429262274829 0.805536577843537 0.966643893412244 1.12775120898095 1.28885852454966 1.44996584011837 1.61107315568707 1.77218047125578 1.93328778682449 2.09439510239319 2.2555024179619 2.41660973353061 2.57771704909932 2.73882436466802 2.89993168023673 3.06103899580544 3.22214631137415 3.38325362694285 3.54436094251156 3.70546825808027 3.86657557364898 4.02768288921768 4.18879020478639 4.3498975203551 4.51100483592381 4.67211215149251 4.83321946706122 4.99432678262993 5.15543409819864 5.31654141376734 5.47764872933605 5.63875604490476 5.79986336047347 5.96097067604217 6.12207799161088 6.28318530717959 
40 1 2 3 4 5 6 7 8 9 10 11 12 13 14 15 16 17 18 19 20 21 22 23 24 25 26 27 28 29 30 31 32 33 34 35 36 37 38 39 1 
p 0.012439425253588 1 0 0.161107315568707 0.322214631137415 0.483321946706122 0.644429262274829 0.805536577843537 0.966643893412244 1.12775120898095 1.28885852454966 1.44996584011837 1.61107315568707 1.77218047125578 1.93328778682449 2.09439510239319 2.2555024179619 2.41660973353061 2.57771704909932 2.73882436466802 2.89993168023673 3.06103899580544 3.22214631137415 3.38325362694285 3.54436094251156 3.70546825808027 3.86657557364898 4.02768288921768 4.18879020478639 4.3498975203551 4.51100483592381 4.67211215149251 4.83321946706122 4.99432678262993 5.15543409819864 5.31654141376734 5.47764872933605 5.63875604490476 5.79986336047347 5.96097067604217 6.12207799161088 6.28318530717959 
40 37 38 39 40 41 42 43 44 45 46 47 48 49 50 51 52 53 54 55 56 57 58 59 60 61 62 63 64 65 66 67 68 69 70 71 72 73 74 75 2 
p 0.0157727586365919 1 0 0.161107315568707 0.322214631137415 0.483321946706122 0.644429262274829 0.805536577843537 0.966643893412244 1.12775120898095 1.28885852454966 1.44996584011837 1.61107315568707 1.77218047125578 1.93328778682449 2.09439510239319 2.2555024179619 2.41660973353061 2.57771704909932 2.73882436466802 2.89993168023673 3.06103899580544 3.22214631137415 3.38325362694285 3.54436094251156 3.70546825808027 3.86657557364898 4.02768288921768 4.18879020478639 4.3498975203551 4.51100483592381 4.67211215149251 4.83321946706122 4.99432678262993 5.15543409819864 5.31654141376734 5.47764872933605 5.63875604490476 5.79986336047347 5.96097067604217 6.12207799161088 6.28318530717959 
2 1 2 
p 0.0157727586365919 1 5 10 
2 20 37 
p 0.0157727586365919 1 5 10 
18 1 4 5 6 7 8 9 10 11 12 13 14 15 16 17 18 19 3 
p 0.0157727586365919 1 3.14159265358979 3.32639222144802 3.51119178930624 3.69599135716446 3.88079092502269 4.06559049288091 4.25039006073913 4.43518962859736 4.61998919645558 4.8047887643138 4.98958833217203 5.17438790003025 5.35918746788847 5.5439870357467 5.72878660360492 5.91358617146314 6.09838573932137 6.28318530717959 
18 2 21 22 23 24 25 26 27 28 29 30 31 32 33 34 35 36 20 
p 0.0157727586365919 1 3.14159265358979 3.32639222144802 3.51119178930624 3.69599135716446 3.88079092502269 4.06559049288091 4.25039006073913 4.43518962859736 4.61998919645558 4.8047887643138 4.98958833217203 5.17438790003025 5.35918746788847 5.5439870357467 5.72878660360492 5.91358617146314 6.09838573932137 6.28318530717959 
18 3 21 22 23 24 25 26 27 28 29 30 31 32 33 34 35 36 20 
p 0.0157727586365919 1 0 0.184799567858223 0.369599135716446 0.554398703574669 0.739198271432893 0.923997839291116 1.10879740714934 1.29359697500756 1.47839654286579 1.66319611072401 1.84799567858223 2.03279524644045 2.21759481429868 2.4023943821569 2.58719395001512 2.77199351787335 2.95679308573157 3.14159265358979 
18 1 3 4 5 6 7 8 9 10 11 12 13 14 15 16 17 18 2 
p 0.0157727586365919 1 0 0.184799567858223 0.369599135716446 0.554398703574669 0.739198271432893 0.923997839291116 1.10879740714934 1.29359697500756 1.47839654286579 1.66319611072401 1.84799567858223 2.03279524644045 2.21759481429868 2.4023943821569 2.58719395001512 2.77199351787335 2.95679308573157 3.14159265358979 
2 1 2 
p 0.0157727586365919 1 0 5 
2 20 2 
p 0.0157727586365919 1 0 5 
18 3 4 5 6 7 8 9 10 11 12 13 14 15 16 17 18 19 1 
p 0.0157727586365919 1 3.14159265358979 3.32639222144802 3.51119178930624 3.69599135716446 3.88079092502269 4.06559049288091 4.25039006073913 4.43518962859736 4.61998919645558 4.8047887643138 4.98958833217203 5.17438790003025 5.35918746788847 5.5439870357467 5.72878660360492 5.91358617146314 6.09838573932137 6.28318530717959 
18 1 4 5 6 7 8 9 10 11 12 13 14 15 16 17 18 19 3 
p 0.0157727586365919 1 3.14159265358979 3.32639222144802 3.51119178930624 3.69599135716446 3.88079092502269 4.06559049288091 4.25039006073913 4.43518962859736 4.61998919645558 4.8047887643138 4.98958833217203 5.17438790003025 5.35918746788847 5.5439870357467 5.72878660360492 5.91358617146314 6.09838573932137 6.28318530717959 
2 20 3 
p 0.0157727586365919 1 0 5 
2 1 19 
p 0.0157727586365919 1 0 5 
18 20 21 22 23 24 25 26 27 28 29 30 31 32 33 34 35 36 19 
p 0.0157727586365919 1 0 0.184799567858223 0.369599135716446 0.554398703574669 0.739198271432893 0.923997839291116 1.10879740714934 1.29359697500756 1.47839654286579 1.66319611072401 1.84799567858223 2.03279524644045 2.21759481429868 2.4023943821569 2.58719395001512 2.77199351787335 2.95679308573157 3.14159265358979 
18 3 21 22 23 24 25 26 27 28 29 30 31 32 33 34 35 36 20 
p 0.0157727586365919 1 0 0.184799567858223 0.369599135716446 0.554398703574669 0.739198271432893 0.923997839291116 1.10879740714934 1.29359697500756 1.47839654286579 1.66319611072401 1.84799567858223 2.03279524644045 2.21759481429868 2.4023943821569 2.58719395001512 2.77199351787335 2.95679308573157 3.14159265358979 
2 1 2 
p 0.0157727586365919 1 5 10 
2 20 37 
p 0.0157727586365919 1 5 10 
40 1 3 4 5 6 7 8 9 10 11 12 13 14 15 16 17 18 19 20 21 22 23 24 25 26 27 28 29 30 31 32 33 34 35 36 37 38 39 40 2 
p 0.012439425253588 1 0 0.161107315568707 0.322214631137415 0.483321946706122 0.644429262274829 0.805536577843537 0.966643893412244 1.12775120898095 1.28885852454966 1.44996584011837 1.61107315568707 1.77218047125578 1.93328778682449 2.09439510239319 2.2555024179619 2.41660973353061 2.57771704909932 2.73882436466802 2.89993168023673 3.06103899580544 3.22214631137415 3.38325362694285 3.54436094251156 3.70546825808027 3.86657557364898 4.02768288921768 4.18879020478639 4.3498975203551 4.51100483592381 4.67211215149251 4.83321946706122 4.99432678262993 5.15543409819864 5.31654141376734 5.47764872933605 5.63875604490476 5.79986336047347 5.96097067604217 6.12207799161088 6.28318530717959 
40 1 2 3 4 5 6 7 8 9 10 11 12 13 14 15 16 17 18 19 20 21 22 23 24 25 26 27 28 29 30 31 32 33 34 35 36 37 38 39 1 
p 0.012439425253588 1 0 0.161107315568707 0.322214631137415 0.483321946706122 0.644429262274829 0.805536577843537 0.966643893412244 1.12775120898095 1.28885852454966 1.44996584011837 1.61107315568707 1.77218047125578 1.93328778682449 2.09439510239319 2.2555024179619 2.41660973353061 2.57771704909932 2.73882436466802 2.89993168023673 3.06103899580544 3.22214631137415 3.38325362694285 3.54436094251156 3.70546825808027 3.86657557364898 4.02768288921768 4.18879020478639 4.3498975203551 4.51100483592381 4.67211215149251 4.83321946706122 4.99432678262993 5.15543409819864 5.31654141376734 5.47764872933605 5.63875604490476 5.79986336047347 5.96097067604217 6.12207799161088 6.28318530717959 
40 37 38 39 40 41 42 43 44 45 46 47 48 49 50 51 52 53 54 55 56 57 58 59 60 61 62 63 64 65 66 67 68 69 70 71 72 73 74 75 2 
p 0.0157727586365919 1 0 0.161107315568707 0.322214631137415 0.483321946706122 0.644429262274829 0.805536577843537 0.966643893412244 1.12775120898095 1.28885852454966 1.44996584011837 1.61107315568707 1.77218047125578 1.93328778682449 2.09439510239319 2.2555024179619 2.41660973353061 2.57771704909932 2.73882436466802 2.89993168023673 3.06103899580544 3.22214631137415 3.38325362694285 3.54436094251156 3.70546825808027 3.86657557364898 4.02768288921768 4.18879020478639 4.3498975203551 4.51100483592381 4.67211215149251 4.83321946706122 4.99432678262993 5.15543409819864 5.31654141376734 5.47764872933605 5.63875604490476 5.79986336047347 5.96097067604217 6.12207799161088 6.28318530717959 
Surfaces 6
1 0 0 10 0 0 1 1 0 -0 -0 1 0 
2 0 0 0 0 0 1 1 0 -0 -0 1 0 2
2 0 0 0 0 0 1 1 0 -0 -0 1 0 2
1 0 0 0 0 0 1 1 0 -0 -0 1 0 
1 0 0 0 0 0 1 1 0 -0 -0 1 0 
1 0 0 10 0 0 1 1 0 -0 -0 1 0 
Triangulations 8
40 39 1 2.44921270764475e-16
2 -4.89842541528951e-16 10 1.97410052527583 0.32082256171552 10 1.89707288389429 0.633335987602945 10 1.77091205130642 0.929446344087537 10 1.598885526807 1.20148452847596 10 1.3854487070192 1.44240489468763 10 1.13612949346231 1.64596773178731 10 0.857385122806109 1.80690086922076 10 0.556434927832906 1.92103622326274 10 0.241073360510647 1.98541774819611 10 -0.0805318802188294 1.99837799634314 10 -0.400051387552088 1.95958130408454 10 -0.70920977408507 1.87003248537083 10 -0.999999999999999 1.73205080756888 10 -1.26489075119075 1.54920992365531 10 -1.4970214963422 1.32624531648159 10 -1.69038017108759 1.0689316522556 10 -1.83995888731765 0.78393321972015 10 -1.9418836348521 0.478631328575115 10 -1.99351461626842 0.160933137433451 10 -1.99351461626842 -0.160933137433453 10 -1.9418836348521 -0.478631328575117 10 -1.83995888731765 -0.783933219720151 10 -1.69038017108759 -1.0689316522556 10 -1.4970214963422 -1.32624531648159 10 -1.26489075119075 -1.54920992365531 10 -0.999999999999998 -1.73205080756888 10 -0.709209774085068 -1.87003248537083 10 -0.400051387552086 -1.95958130408454 10 -0.0805318802188267 -1.99837799634314 10 0.24107336051065 -1.98541774819611 10 0.556434927832909 -1.92103622326274 10 0.857385122806112 -1.80690086922076 10 1.13612949346232 -1.64596773178731 10 1.3854487070192 -1.44240489468763 10 1.59888552680701 -1.20148452847595 10 1.77091205130642 -0.929446344087532 10 1.89707288389429 -0.633335987602939 10 1.97410052527583 -0.320822561715514 10 0.00324269186578996 0 10 2 0 1.97410052527583 0.32082256171552 1.89707288389429 0.633335987602945 1.77091205130642 0.929446344087537 1.598885526807 1.20148452847596 1.3854487070192 1.44240489468763 1.13612949346231 1.64596773178731 0.857385122806109 1.80690086922076 0.556434927832906 1.92103622326274 0.241073360510647 1.98541774819611 -0.0805318802188293 1.99837799634314 -0.400051387552088 1.95958130408454 -0.70920977408507 1.87003248537083 -0.999999999999999 1.73205080756888 -1.26489075119075 1.54920992365531 -1.4970214963422 1.32624531648159 -1.69038017108759 1.0689316522556 -1.83995888731765 0.783933219720151 -1.9418836348521 0.478631328575115 -1.99351461626842 0.160933137433451 -1.99351461626842 -0.160933137433453 -1.9418836348521 -0.478631328575117 -1.83995888731765 -0.783933219720151 -1.69038017108759 -1.0689316522556 -1.4970214963422 -1.32624531648159 -1.26489075119075 -1.54920992365531 -0.999999999999998 -1.73205080756888 -0.709209774085068 -1.87003248537083 -0.400051387552086 -1.95958130408454 -0.0805318802188268 -1.99837799634314 0.24107336051065 -1.98541774819611 0.556434927832909 -1.92103622326274 0.857385122806112 -1.80690086922076 1.13612949346232 -1.64596773178731 1.3854487070192 -1.44240489468763 1.59888552680701 -1.20148452847595 1.77091205130642 -0.929446344087532 1.89707288389429 -0.633335987602939 1.97410052527583 -0.320822561715514 0.00324269186578996 0 40 1 2 40 2 3 40 3 4 40 4 5 40 5 6 40 6 7 40 7 8 40 8 9 40 9 10 40 10 11 40 11 12 40 12 13 40 13 14 40 14 15 40 15 16 40 16 17 40 17 18 40 18 19 40 19 20 40 20 21 40 21 22 40 22 23 40 23 24 40 24 25 40 25 26 40 26 27 40 27 28 40 28 29 40 29 30 40 30 31 40 31 32 40 32 33 40 33 34 40 34 35 40 35 36 40 36 37 40 37 38 40 38 39 40 39 1 
80 78 1 0.00648538373158019
2 -4.89842541528951e-16 10 2 -4.89842541528951e-16 10 1.97410052527583 0.32082256171552 10 1.89707288389429 0.633335987602945 10 1.77091205130642 0.929446344087537 10 1.598885526807 1.20148452847596 10 1.3854487070192 1.44240489468763 10 1.13612949346231 1.64596773178731 10 0.857385122806109 1.80690086922076 10 0.556434927832906 1.92103622326274 10 0.241073360510647 1.98541774819611 10 -0.0805318802188294 1.99837799634314 10 -0.400051387552088 1.95958130408454 10 -0.70920977408507 1.87003248537083 10 -0.999999999999999 1.73205080756888 10 -1.26489075119075 1.54920992365531 10 -1.4970214963422 1.32624531648159 10 -1.69038017108759 1.0689316522556 10 -1.83995888731765 0.78393321972015 10 -1.9418836348521 0.478631328575115 10 -1.99351461626842 0.160933137433451 10 -1.99351461626842 -0.160933137433453 10 -1.9418836348521 -0.478631328575117 10 -1.83995888731765 -0.783933219720151 10 -1.69038017108759 -1.0689316522556 10 -1.4970214963422 -1.32624531648159 10 -1.26489075119075 -1.54920992365531 10 -0.999999999999998 -1.73205080756888 10 -0.709209774085068 -1.87003248537083 10 -0.400051387552086 -1.95958130408454 10 -0.0805318802188267 -1.99837799634314 10 0.24107336051065 -1.98541774819611 10 0.556434927832909 -1.92103622326274 10 0.857385122806112 -1.80690086922076 10 1.13612949346232 -1.64596773178731 10 1.3854487070192 -1.44240489468763 10 1.59888552680701 -1.20148452847595 10 1.77091205130642 -0.929446344087532 10 1.89707288389429 -0.633335987602939 10 1.97410052527583 -0.320822561715514 10 2 -4.89842541528951e-16 0 2 -4.89842541528951e-16 0 1.97410052527583 0.32082256171552 0 1.89707288389429 0.633335987602945 0 1.77091205130642 0.929446344087537 0 1.598885526807 1.20148452847596 0 1.3854487070192 1.44240489468763 0 1.13612949346231 1.64596773178731 0 0.857385122806109 1.80690086922076 0 0.556434927832906 1.92103622326274 0 0.241073360510647 1.98541774819611 0 -0.0805318802188294 1.99837799634314 0 -0.400051387552088 1.95958130408454 0 -0.70920977408507 1.87003248537083 0 -0.999999999999999 1.73205080756888 0 -1.26489075119075 1.54920992365531 0 -1.4970214963422 1.32624531648159 0 -1.69038017108759 1.0689316522556 0 -1.83995888731765 0.78393321972015 0 -1.9418836348521 0.478631328575115 0 -1.99351461626842 0.160933137433451 0 -1.99351461626842 -0.160933137433453 0 -1.9418836348521 -0.478631328575117 0 -1.83995888731765 -0.783933219720151 0 -1.69038017108759 -1.0689316522556 0 -1.4970214963422 -1.32624531648159 0 -1.26489075119075 -1.54920992365531 0 -0.999999999999998 -1.73205080756888 0 -0.709209774085068 -1.87003248537083 0 -0.400051387552086 -1.95958130408454 0 -0.0805318802188267 -1.99837799634314 0 0.24107336051065 -1.98541774819611 0 0.556434927832909 -1.92103622326274 0 0.857385122806112 -1.80690086922076 0 1.13612949346232 -1.64596773178731 0 1.3854487070192 -1.44240489468763 0 1.59888552680701 -1.20148452847595 0 1.77091205130642 -0.929446344087532 0 1.89707288389429 -0.633335987602939 0 1.97410052527583 -0.320822561715514 0 0 10 6.28318530717959 10 0.161107315568707 10 0.322214631137415 10 0.483321946706122 10 0.644429262274829 10 0.805536577843537 10 0.966643893412244 10 1.12775120898095 10 1.28885852454966 10 1.44996584011837 10 1.61107315568707 10 1.77218047125578 10 1.93328778682449 10 2.09439510239319 10 2.2555024179619 10 2.41660973353061 10 2.57771704909932 10 2.73882436466802 10 2.89993168023673 10 3.06103899580544 10 3.22214631137415 10 3.38325362694285 10 3.54436094251156 10 3.70546825808027 10 3.86657557364898 10 4.02768288921768 10 4.18879020478639 10 4.3498975203551 10 4.51100483592381 10 4.67211215149251 10 4.83321946706122 10 4.99432678262993 10 5.15543409819864 10 5.31654141376734 10 5.47764872933605 10 5.63875604490476 10 5.79986336047347 10 5.96097067604217 10 6.12207799161088 10 6.28318530717959 0 0 0 0.161107315568707 0 0.322214631137415 0 0.483321946706122 0 0.644429262274829 0 0.805536577843537 0 0.966643893412244 0 1.12775120898095 0 1.28885852454966 0 1.44996584011837 0 1.61107315568707 0 1.77218047125578 0 1.93328778682449 0 2.09439510239319 0 2.2555024179619 0 2.41660973353061 0 2.57771704909932 0 2.73882436466802 0 2.89993168023673 0 3.06103899580544 0 3.22214631137415 0 3.38325362694285 0 3.54436094251156 0 3.70546825808027 0 3.86657557364898 0 4.02768288921768 0 4.18879020478639 0 4.3498975203551 0 4.51100483592381 0 4.67211215149251 0 4.83321946706122 0 4.99432678262993 0 5.15543409819864 0 5.31654141376734 0 5.47764872933605 0 5.63875604490476 0 5.79986336047347 0 5.96097067604217 0 6.12207799161088 0 22 61 62 22 62 63 22 21 61 23 22 63 24 63 64 3 42 43 24 64 65 3 1 42 24 23 63 4 43 44 25 24 65 4 44 45 4 3 43 26 65 66 26 66 67 5 45 46 26 25 65 5 4 45 6 5 46 27 26 67 28 67 68 28 68 69 7 46 47 28 27 67 7 6 46 29 28 69 8 7 47 8 47 48 8 48 49 30 69 70 30 70 71 30 29 69 9 8 49 10 9 49 10 49 50 31 30 71 32 31 71 32 71 72 11 10 50 32 72 73 11 50 51 12 11 51 33 32 73 12 51 52 34 33 73 34 73 74 34 74 75 13 12 52 13 52 53 13 53 54 35 34 75 14 13 54 36 35 75 36 75 76 15 14 54 15 54 55 37 36 76 37 76 77 16 15 55 16 55 56 38 37 77 38 77 78 17 16 56 17 56 57 17 57 58 39 38 78 39 78 79 39 79 80 18 17 58 40 39 80 19 18 58 2 40 80 19 58 59 19 59 60 2 80 41 20 19 60 21 60 61 21 20 60 
75 73 1 0.00727033463966987
2 -5.665498452323e-16 5 2 -4.89842541528951e-16 10 -2 -4.89842541528951e-16 5 1.9659461993678 -0.367499035633141 5 1.86494445880871 -0.722483332374306 5 1.70043427145923 -1.05286432575471 5 1.47801783444132 -1.34739128729311 5 1.20526927275851 -1.59603445456048 5 0.891476711553076 -1.79032658271012 5 0.547325980144165 -1.92365128634564 5 0.184536718926602 -1.99146835259007 5 -0.184536718926607 -1.99146835259007 5 -0.547325980144169 -1.92365128634564 5 -0.89147671155308 -1.79032658271012 5 -1.20526927275852 -1.59603445456048 5 -1.47801783444132 -1.34739128729311 5 -1.70043427145923 -1.05286432575471 5 -1.86494445880871 -0.722483332374299 5 -1.9659461993678 -0.367499035633133 5 2 -5.665498452323e-16 5 -1.9659461993678 0.367499035633141 5 -1.86494445880871 0.722483332374306 5 -1.70043427145923 1.05286432575471 5 -1.47801783444132 1.34739128729311 5 -1.20526927275851 1.59603445456048 5 -0.891476711553076 1.79032658271012 5 -0.547325980144165 1.92365128634564 5 -0.184536718926604 1.99146835259007 5 0.184536718926604 1.99146835259007 5 0.547325980144166 1.92365128634564 5 0.891476711553076 1.79032658271012 5 1.20526927275851 1.59603445456048 5 1.47801783444132 1.34739128729311 5 1.70043427145923 1.05286432575471 5 1.86494445880871 0.722483332374307 5 1.9659461993678 0.367499035633142 5 2 -4.89842541528951e-16 10 1.97410052527583 0.32082256171552 10 1.89707288389429 0.633335987602945 10 1.77091205130642 0.929446344087537 10 1.598885526807 1.20148452847596 10 1.3854487070192 1.44240489468763 10 1.13612949346231 1.64596773178731 10 0.857385122806109 1.80690086922076 10 0.556434927832906 1.92103622326274 10 0.241073360510647 1.98541774819611 10 -0.0805318802188294 1.99837799634314 10 -0.400051387552088 1.95958130408454 10 -0.70920977408507 1.87003248537083 10 -0.999999999999999 1.73205080756888 10 -1.26489075119075 1.54920992365531 10 -1.4970214963422 1.32624531648159 10 -1.69038017108759 1.0689316522556 10 -1.83995888731765 0.78393321972015 10 -1.9418836348521 0.478631328575115 10 -1.99351461626842 0.160933137433451 10 -1.99351461626842 -0.160933137433453 10 -1.9418836348521 -0.478631328575117 10 -1.83995888731765 -0.783933219720151 10 -1.69038017108759 -1.0689316522556 10 -1.4970214963422 -1.32624531648159 10 -1.26489075119075 -1.54920992365531 10 -0.999999999999998 -1.73205080756888 10 -0.709209774085068 -1.87003248537083 10 -0.400051387552086 -1.95958130408454 10 -0.0805318802188267 -1.99837799634314 10 0.24107336051065 -1.98541774819611 10 0.556434927832909 -1.92103622326274 10 0.857385122806112 -1.80690086922076 10 1.13612949346232 -1.64596773178731 10 1.3854487070192 -1.44240489468763 10 1.59888552680701 -1.20148452847595 10 1.77091205130642 -0.929446344087532 10 1.89707288389429 -0.633335987602939 10 1.97410052527583 -0.320822561715514 10 6.28318530717959 5 6.28318530717959 10 3.14159265358979 5 6.09838573932136 5 5.91358617146314 5 5.72878660360492 5 5.54398703574669 5 5.35918746788847 5 5.17438790003025 5 4.98958833217202 5 4.8047887643138 5 4.61998919645558 5 4.43518962859735 5 4.25039006073913 5 4.06559049288091 5 3.88079092502268 5 3.69599135716446 5 3.51119178930624 5 3.32639222144801 5 -4.44089209850063e-16 5 2.95679308573157 5 2.77199351787335 5 2.58719395001512 5 2.4023943821569 5 2.21759481429868 5 2.03279524644045 5 1.84799567858223 5 1.66319611072401 5 1.47839654286578 5 1.29359697500756 5 1.10879740714934 5 0.923997839291116 5 0.739198271432893 5 0.55439870357467 5 0.369599135716447 5 0.184799567858223 5 -4.93038065763132e-32 10 0.161107315568707 10 0.322214631137415 10 0.483321946706122 10 0.644429262274829 10 0.805536577843536 10 0.966643893412244 10 1.12775120898095 10 1.28885852454966 10 1.44996584011837 10 1.61107315568707 10 1.77218047125578 10 1.93328778682449 10 2.09439510239319 10 2.2555024179619 10 2.41660973353061 10 2.57771704909932 10 2.73882436466802 10 2.89993168023673 10 3.06103899580544 10 3.22214631137415 10 3.38325362694285 10 3.54436094251156 10 3.70546825808027 10 3.86657557364898 10 4.02768288921768 10 4.18879020478639 10 4.3498975203551 10 4.51100483592381 10 4.67211215149251 10 4.83321946706122 10 4.99432678262993 10 5.15543409819864 10 5.31654141376734 10 5.47764872933605 10 5.63875604490476 10 5.79986336047347 10 5.96097067604217 10 6.12207799161088 10 59 58 18 60 59 17 61 17 16 38 20 36 61 60 17 38 37 20 62 16 15 39 36 35 62 61 16 39 38 36 40 35 34 40 39 35 63 15 14 63 62 15 64 14 13 41 34 33 64 63 14 41 40 34 65 13 12 42 33 32 42 41 33 65 64 13 66 12 11 43 42 32 66 65 12 43 32 31 67 11 10 67 66 11 44 43 31 44 31 30 45 44 30 68 67 10 46 45 30 69 10 9 69 68 10 46 30 29 70 69 9 47 46 29 70 9 8 47 29 28 48 47 28 48 28 27 71 8 7 71 70 8 49 48 27 72 7 6 72 71 7 49 27 26 73 72 6 73 6 5 50 26 25 50 49 26 74 5 4 74 73 5 51 25 24 51 50 25 75 4 1 75 74 4 52 24 23 52 51 24 2 75 1 53 52 23 54 23 22 54 53 23 55 22 21 55 54 22 56 21 3 56 55 21 57 3 19 57 56 3 58 19 18 58 57 19 59 18 17 
36 34 1 0.00853164740993088
2 -4.89842541528951e-16 0 2 -5.665498452323e-16 5 -2 -5.665498452323e-16 0 -1.9659461993678 -0.367499035633141 0 -1.86494445880871 -0.722483332374306 0 -1.70043427145923 -1.05286432575471 0 -1.47801783444132 -1.34739128729311 0 -1.20526927275851 -1.59603445456048 0 -0.891476711553076 -1.79032658271012 0 -0.547325980144165 -1.92365128634564 0 -0.184536718926602 -1.99146835259007 0 0.184536718926607 -1.99146835259007 0 0.547325980144169 -1.92365128634564 0 0.89147671155308 -1.79032658271012 0 1.20526927275852 -1.59603445456048 0 1.47801783444132 -1.34739128729311 0 1.70043427145923 -1.05286432575471 0 1.86494445880871 -0.722483332374299 0 1.9659461993678 -0.367499035633133 0 -2 -4.89842541528951e-16 5 1.9659461993678 -0.367499035633141 5 1.86494445880871 -0.722483332374306 5 1.70043427145923 -1.05286432575471 5 1.47801783444132 -1.34739128729311 5 1.20526927275851 -1.59603445456048 5 0.891476711553076 -1.79032658271012 5 0.547325980144165 -1.92365128634564 5 0.184536718926602 -1.99146835259007 5 -0.184536718926607 -1.99146835259007 5 -0.547325980144169 -1.92365128634564 5 -0.89147671155308 -1.79032658271012 5 -1.20526927275852 -1.59603445456048 5 -1.47801783444132 -1.34739128729311 5 -1.70043427145923 -1.05286432575471 5 -1.86494445880871 -0.722483332374299 5 -1.9659461993678 -0.367499035633133 5 6.28318530717959 0 6.28318530717959 5 3.14159265358979 0 3.32639222144802 0 3.51119178930624 0 3.69599135716446 0 3.88079092502269 0 4.06559049288091 0 4.25039006073913 0 4.43518962859736 0 4.61998919645558 0 4.8047887643138 0 4.98958833217203 0 5.17438790003025 0 5.35918746788847 0 5.5439870357467 0 5.72878660360492 0 5.91358617146314 0 6.09838573932137 0 3.14159265358979 5 6.09838573932136 5 5.91358617146314 5 5.72878660360492 5 5.54398703574669 5 5.35918746788847 5 5.17438790003025 5 4.98958833217202 5 4.8047887643138 5 4.61998919645558 5 4.43518962859735 5 4.25039006073913 5 4.06559049288091 5 3.88079092502268 5 3.69599135716446 5 3.51119178930624 5 3.32639222144801 5 36 3 4 36 20 3 35 4 5 35 36 4 34 5 6 34 35 5 33 6 7 33 34 6 32 7 8 32 33 7 31 8 9 31 32 8 30 9 10 30 31 9 29 10 11 29 30 10 28 11 12 28 29 11 27 12 13 27 28 12 26 13 14 26 27 13 25 14 15 25 26 14 24 15 16 24 25 15 23 16 17 23 24 16 22 17 18 22 23 17 21 22 18 21 18 19 2 21 19 2 19 1 
36 34 1 0.00853164740993128
-2 -4.89842541528951e-16 5 2 -5.665498452323e-16 5 -1.9659461993678 0.367499035633141 5 -1.86494445880871 0.722483332374306 5 -1.70043427145923 1.05286432575471 5 -1.47801783444132 1.34739128729311 5 -1.20526927275851 1.59603445456048 5 -0.891476711553076 1.79032658271012 5 -0.547325980144165 1.92365128634564 5 -0.184536718926604 1.99146835259007 5 0.184536718926604 1.99146835259007 5 0.547325980144166 1.92365128634564 5 0.891476711553076 1.79032658271012 5 1.20526927275851 1.59603445456048 5 1.47801783444132 1.34739128729311 5 1.70043427145923 1.05286432575471 5 1.86494445880871 0.722483332374307 5 1.9659461993678 0.367499035633142 5 -2 -5.665498452323e-16 0 2 -4.89842541528951e-16 0 1.9659461993678 0.367499035633141 0 1.86494445880871 0.722483332374306 0 1.70043427145923 1.05286432575471 0 1.47801783444132 1.34739128729311 0 1.20526927275851 1.59603445456048 0 0.891476711553076 1.79032658271012 0 0.547325980144165 1.92365128634564 0 0.184536718926604 1.99146835259007 0 -0.184536718926604 1.99146835259007 0 -0.547325980144166 1.92365128634564 0 -0.891476711553076 1.79032658271012 0 -1.20526927275851 1.59603445456048 0 -1.47801783444132 1.34739128729311 0 -1.70043427145923 1.05286432575471 0 -1.86494445880871 0.722483332374307 0 -1.9659461993678 0.367499035633142 0 3.14159265358979 5 -4.44089209850063e-16 5 2.95679308573157 5 2.77199351787335 5 2.58719395001512 5 2.4023943821569 5 2.21759481429868 5 2.03279524644045 5 1.84799567858223 5 1.66319611072401 5 1.47839654286578 5 1.29359697500756 5 1.10879740714934 5 0.923997839291116 5 0.739198271432893 5 0.55439870357467 5 0.369599135716447 5 0.184799567858223 5 3.14159265358979 0 -4.93038065763132e-32 0 0.184799567858223 0 0.369599135716446 0 0.554398703574669 0 0.739198271432893 0 0.923997839291116 0 1.10879740714934 0 1.29359697500756 0 1.47839654286579 0 1.66319611072401 0 1.84799567858223 0 2.03279524644045 0 2.21759481429868 0 2.4023943821569 0 2.58719395001512 0 2.77199351787335 0 2.95679308573157 0 18 20 21 18 21 22 18 2 20 17 22 23 17 18 22 16 23 24 16 17 23 15 16 24 14 24 25 14 15 24 13 25 26 13 14 25 12 26 27 12 13 26 11 27 28 11 12 27 10 28 29 10 11 28 9 29 30 9 10 29 8 30 31 8 9 30 7 31 32 7 8 31 6 32 33 6 33 34 6 7 32 5 6 34 4 34 35 4 35 36 4 5 34 3 4 36 3 36 19 1 3 19 
75 73 1 0.00727033463967005
-2 -5.665498452323e-16 0 -2 -4.89842541528951e-16 -5 2 -4.89842541528951e-16 0 -1.9659461993678 -0.367499035633141 0 -1.86494445880871 -0.722483332374306 0 -1.70043427145923 -1.05286432575471 0 -1.47801783444132 -1.34739128729311 0 -1.20526927275851 -1.59603445456048 0 -0.891476711553076 -1.79032658271012 0 -0.547325980144165 -1.92365128634564 0 -0.184536718926602 -1.99146835259007 0 0.184536718926607 -1.99146835259007 0 0.547325980144169 -1.92365128634564 0 0.89147671155308 -1.79032658271012 0 1.20526927275852 -1.59603445456048 0 1.47801783444132 -1.34739128729311 0 1.70043427145923 -1.05286432575471 0 1.86494445880871 -0.722483332374299 0 1.9659461993678 -0.367499035633133 0 -2 -5.665498452323e-16 0 1.9659461993678 0.367499035633141 0 1.86494445880871 0.722483332374306 0 1.70043427145923 1.05286432575471 0 1.47801783444132 1.34739128729311 0 1.20526927275851 1.59603445456048 0 0.891476711553076 1.79032658271012 0 0.547325980144165 1.92365128634564 0 0.184536718926604 1.99146835259007 0 -0.184536718926604 1.99146835259007 0 -0.547325980144166 1.92365128634564 0 -0.891476711553076 1.79032658271012 0 -1.20526927275851 1.59603445456048 0 -1.47801783444132 1.34739128729311 0 -1.70043427145923 1.05286432575471 0 -1.86494445880871 0.722483332374307 0 -1.9659461993678 0.367499035633142 0 -2 -4.89842541528951e-16 -5 -1.97410052527582 0.32082256171552 -5 -1.89707288389429 0.633335987602945 -5 -1.77091205130642 0.929446344087537 -5 -1.598885526807 1.20148452847596 -5 -1.3854487070192 1.44240489468763 -5 -1.13612949346231 1.64596773178731 -5 -0.857385122806108 1.80690086922076 -5 -0.556434927832905 1.92103622326274 -5 -0.241073360510646 1.98541774819611 -5 0.0805318802188306 1.99837799634314 -5 0.400051387552089 1.95958130408454 -5 0.709209774085071 1.87003248537083 -5 1 1.73205080756888 -5 1.26489075119076 1.54920992365531 -5 1.4970214963422 1.32624531648159 -5 1.69038017108759 1.0689316522556 -5 1.83995888731765 0.78393321972015 -5 1.94188363485211 0.478631328575115 -5 1.99351461626842 0.160933137433451 -5 1.99351461626842 -0.160933137433453 -5 1.94188363485211 -0.478631328575117 -5 1.83995888731765 -0.783933219720151 -5 1.69038017108759 -1.0689316522556 -5 1.4970214963422 -1.32624531648159 -5 1.26489075119075 -1.54920992365531 -5 0.999999999999999 -1.73205080756888 -5 0.709209774085069 -1.87003248537083 -5 0.400051387552087 -1.95958130408454 -5 0.080531880218828 -1.99837799634314 -5 -0.241073360510649 -1.98541774819611 -5 -0.556434927832908 -1.92103622326274 -5 -0.857385122806111 -1.80690086922076 -5 -1.13612949346231 -1.64596773178731 -5 -1.3854487070192 -1.44240489468763 -5 -1.598885526807 -1.20148452847595 -5 -1.77091205130642 -0.929446344087532 -5 -1.89707288389429 -0.633335987602939 -5 -1.97410052527583 -0.320822561715514 -5 6.28318530717959 5 6.28318530717959 10 3.14159265358979 5 6.09838573932136 5 5.91358617146314 5 5.72878660360492 5 5.54398703574669 5 5.35918746788847 5 5.17438790003025 5 4.98958833217202 5 4.8047887643138 5 4.61998919645558 5 4.43518962859735 5 4.25039006073913 5 4.06559049288091 5 3.88079092502268 5 3.69599135716446 5 3.51119178930624 5 3.32639222144801 5 -4.44089209850063e-16 5 2.95679308573157 5 2.77199351787335 5 2.58719395001512 5 2.4023943821569 5 2.21759481429868 5 2.03279524644045 5 1.84799567858223 5 1.66319611072401 5 1.47839654286578 5 1.29359697500756 5 1.10879740714934 5 0.923997839291116 5 0.739198271432893 5 0.55439870357467 5 0.369599135716447 5 0.184799567858223 5 -4.93038065763132e-32 10 0.161107315568707 10 0.322214631137415 10 0.483321946706122 10 0.644429262274829 10 0.805536577843536 10 0.966643893412244 10 1.12775120898095 10 1.28885852454966 10 1.44996584011837 10 1.61107315568707 10 1.77218047125578 10 1.93328778682449 10 2.09439510239319 10 2.2555024179619 10 2.41660973353061 10 2.57771704909932 10 2.73882436466802 10 2.89993168023673 10 3.06103899580544 10 3.22214631137415 10 3.38325362694285 10 3.54436094251156 10 3.70546825808027 10 3.86657557364898 10 4.02768288921768 10 4.18879020478639 10 4.3498975203551 10 4.51100483592381 10 4.67211215149251 10 4.83321946706122 10 4.99432678262993 10 5.15543409819864 10 5.31654141376734 10 5.47764872933605 10 5.63875604490476 10 5.79986336047347 10 5.96097067604217 10 6.12207799161088 10 59 58 18 60 59 17 61 17 16 38 20 36 61 60 17 38 37 20 62 16 15 39 36 35 62 61 16 39 38 36 40 35 34 40 39 35 63 15 14 63 62 15 64 14 13 41 34 33 64 63 14 41 40 34 65 13 12 42 33 32 42 41 33 65 64 13 66 12 11 43 42 32 66 65 12 43 32 31 67 11 10 67 66 11 44 43 31 44 31 30 45 44 30 68 67 10 46 45 30 69 10 9 69 68 10 46 30 29 70 69 9 47 46 29 70 9 8 47 29 28 48 47 28 48 28 27 71 8 7 71 70 8 49 48 27 72 7 6 72 71 7 49 27 26 73 72 6 73 6 5 50 26 25 50 49 26 74 5 4 74 73 5 51 25 24 51 50 25 75 4 1 75 74 4 52 24 23 52 51 24 2 75 1 53 52 23 54 23 22 54 53 23 55 22 21 55 54 22 56 21 3 56 55 21 57 3 19 57 56 3 58 19 18 58 57 19 59 18 17 
80 78 1 0.00648538373158019
2 -4.89842541528951e-16 10 2 -4.89842541528951e-16 10 1.97410052527583 0.32082256171552 10 1.89707288389429 0.633335987602945 10 1.77091205130642 0.929446344087537 10 1.598885526807 1.20148452847596 10 1.3854487070192 1.44240489468763 10 1.13612949346231 1.64596773178731 10 0.857385122806109 1.80690086922076 10 0.556434927832906 1.92103622326274 10 0.241073360510647 1.98541774819611 10 -0.0805318802188294 1.99837799634314 10 -0.400051387552088 1.95958130408454 10 -0.70920977408507 1.87003248537083 10 -0.999999999999999 1.73205080756888 10 -1.26489075119075 1.54920992365531 10 -1.4970214963422 1.32624531648159 10 -1.69038017108759 1.0689316522556 10 -1.83995888731765 0.78393321972015 10 -1.9418836348521 0.478631328575115 10 -1.99351461626842 0.160933137433451 10 -1.99351461626842 -0.160933137433453 10 -1.9418836348521 -0.478631328575117 10 -1.83995888731765 -0.783933219720151 10 -1.69038017108759 -1.0689316522556 10 -1.4970214963422 -1.32624531648159 10 -1.26489075119075 -1.54920992365531 10 -0.999999999999997 -1.73205080756888 10 -0.709209774085068 -1.87003248537083 10 -0.400051387552086 -1.95958130408454 10 -0.0805318802188267 -1.99837799634314 10 0.24107336051065 -1.98541774819611 10 0.556434927832909 -1.92103622326274 10 0.857385122806113 -1.80690086922076 10 1.13612949346232 -1.64596773178731 10 1.3854487070192 -1.44240489468763 10 1.59888552680701 -1.20148452847595 10 1.77091205130642 -0.929446344087532 10 1.89707288389429 -0.633335987602939 10 1.97410052527583 -0.320822561715514 10 2 -4.89842541528951e-16 0 2 -4.89842541528951e-16 0 1.97410052527583 0.32082256171552 0 1.89707288389429 0.633335987602945 0 1.77091205130642 0.929446344087537 0 1.598885526807 1.20148452847596 0 1.3854487070192 1.44240489468763 0 1.13612949346231 1.64596773178731 0 0.857385122806109 1.80690086922076 0 0.556434927832906 1.92103622326274 0 0.241073360510647 1.98541774819611 0 -0.0805318802188294 1.99837799634314 0 -0.400051387552088 1.95958130408454 0 -0.70920977408507 1.87003248537083 0 -0.999999999999999 1.73205080756888 0 -1.26489075119075 1.54920992365531 0 -1.4970214963422 1.32624531648159 0 -1.69038017108759 1.0689316522556 0 -1.83995888731765 0.78393321972015 0 -1.9418836348521 0.478631328575115 0 -1.99351461626842 0.160933137433451 0 -1.99351461626842 -0.160933137433453 0 -1.9418836348521 -0.478631328575117 0 -1.83995888731765 -0.783933219720151 0 -1.69038017108759 -1.0689316522556 0 -1.4970214963422 -1.32624531648159 0 -1.26489075119075 -1.54920992365531 0 -0.999999999999998 -1.73205080756888 0 -0.709209774085068 -1.87003248537083 0 -0.400051387552086 -1.95958130408454 0 -0.0805318802188267 -1.99837799634314 0 0.24107336051065 -1.98541774819611 0 0.556434927832909 -1.92103622326274 0 0.857385122806112 -1.80690086922076 0 1.13612949346232 -1.64596773178731 0 1.3854487070192 -1.44240489468763 0 1.59888552680701 -1.20148452847595 0 1.77091205130642 -0.929446344087532 0 1.89707288389429 -0.633335987602939 0 1.97410052527583 -0.320822561715514 0 0 10 6.28318530717959 10 0.161107315568707 10 0.322214631137415 10 0.483321946706122 10 0.644429262274829 10 0.805536577843537 10 0.966643893412244 10 1.12775120898095 10 1.28885852454966 10 1.44996584011837 10 1.61107315568707 10 1.77218047125578 10 1.93328778682449 10 2.09439510239319 10 2.2555024179619 10 2.41660973353061 10 2.57771704909932 10 2.73882436466802 10 2.89993168023673 10 3.06103899580544 10 3.22214631137415 10 3.38325362694285 10 3.54436094251156 10 3.70546825808027 10 3.86657557364898 10 4.02768288921768 10 4.18879020478639 10 4.3498975203551 10 4.51100483592381 10 4.67211215149251 10 4.83321946706122 10 4.99432678262993 10 5.15543409819864 10 5.31654141376734 10 5.47764872933605 10 5.63875604490476 10 5.79986336047347 10 5.96097067604217 10 6.12207799161088 10 6.28318530717959 0 0 0 0.161107315568707 0 0.322214631137415 0 0.483321946706122 0 0.644429262274829 0 0.805536577843537 0 0.966643893412244 0 1.12775120898095 0 1.28885852454966 0 1.44996584011837 0 1.61107315568707 0 1.77218047125578 0 1.93328778682449 0 2.09439510239319 0 2.2555024179619 0 2.41660973353061 0 2.57771704909932 0 2.73882436466802 0 2.89993168023673 0 3.06103899580544 0 3.22214631137415 0 3.38325362694285 0 3.54436094251156 0 3.70546825808027 0 3.86657557364898 0 4.02768288921768 0 4.18879020478639 0 4.3498975203551 0 4.51100483592381 0 4.67211215149251 0 4.83321946706122 0 4.99432678262993 0 5.15543409819864 0 5.31654141376734 0 5.47764872933605 0 5.63875604490476 0 5.79986336047347 0 5.96097067604217 0 6.12207799161088 0 22 61 62 22 62 63 22 21 61 23 22 63 24 63 64 3 42 43 24 64 65 3 1 42 24 23 63 4 43 44 25 24 65 4 44 45 4 3 43 26 65 66 26 66 67 5 45 46 26 25 65 5 4 45 6 5 46 27 26 67 28 67 68 28 68 69 7 46 47 28 27 67 7 6 46 29 28 69 8 7 47 8 47 48 8 48 49 30 69 70 30 70 71 30 29 69 9 8 49 10 9 49 10 49 50 31 30 71 32 31 71 32 71 72 11 10 50 32 72 73 11 50 51 12 11 51 33 32 73 12 51 52 34 33 73 34 73 74 34 74 75 13 12 52 13 52 53 13 53 54 35 34 75 14 13 54 36 35 75 36 75 76 15 14 54 15 54 55 37 36 76 37 76 77 16 15 55 16 55 56 38 37 77 38 77 78 17 16 56 17 56 57 17 57 58 39 38 78 39 78 79 39 79 80 18 17 58 40 39 80 19 18 58 2 40 80 19 58 59 19 59 60 2 80 41 20 19 60 21 60 61 21 20 60 
40 39 1 2.44921270764475e-16
2 -4.89842541528951e-16 10 1.97410052527583 0.32082256171552 10 1.89707288389429 0.633335987602945 10 1.77091205130642 0.929446344087537 10 1.598885526807 1.20148452847596 10 1.3854487070192 1.44240489468763 10 1.13612949346231 1.64596773178731 10 0.857385122806109 1.80690086922076 10 0.556434927832906 1.92103622326274 10 0.241073360510647 1.98541774819611 10 -0.0805318802188294 1.99837799634314 10 -0.400051387552088 1.95958130408454 10 -0.70920977408507 1.87003248537083 10 -0.999999999999999 1.73205080756888 10 -1.26489075119075 1.54920992365531 10 -1.4970214963422 1.32624531648159 10 -1.69038017108759 1.0689316522556 10 -1.83995888731765 0.78393321972015 10 -1.9418836348521 0.478631328575115 10 -1.99351461626842 0.160933137433451 10 -1.99351461626842 -0.160933137433453 10 -1.9418836348521 -0.478631328575117 10 -1.83995888731765 -0.783933219720151 10 -1.69038017108759 -1.0689316522556 10 -1.4970214963422 -1.32624531648159 10 -1.26489075119075 -1.54920992365531 10 -0.999999999999997 -1.73205080756888 10 -0.709209774085068 -1.87003248537083 10 -0.400051387552086 -1.95958130408454 10 -0.0805318802188267 -1.99837799634314 10 0.24107336051065 -1.98541774819611 10 0.556434927832909 -1.92103622326274 10 0.857385122806113 -1.80690086922076 10 1.13612949346232 -1.64596773178731 10 1.3854487070192 -1.44240489468763 10 1.59888552680701 -1.20148452847595 10 1.77091205130642 -0.929446344087532 10 1.89707288389429 -0.633335987602939 10 1.97410052527583 -0.320822561715514 10 0.00324269186578996 0 10 2 0 1.97410052527583 0.32082256171552 1.89707288389429 0.633335987602945 1.77091205130642 0.929446344087537 1.598885526807 1.20148452847596 1.3854487070192 1.44240489468763 1.13612949346231 1.64596773178731 0.857385122806109 1.80690086922076 0.556434927832906 1.92103622326274 0.241073360510647 1.98541774819611 -0.0805318802188293 1.99837799634314 -0.400051387552088 1.95958130408454 -0.70920977408507 1.87003248537083 -0.999999999999999 1.73205080756888 -1.26489075119075 1.54920992365531 -1.4970214963422 1.32624531648159 -1.69038017108759 1.0689316522556 -1.83995888731765 0.783933219720151 -1.9418836348521 0.478631328575115 -1.99351461626842 0.160933137433451 -1.99351461626842 -0.160933137433453 -1.9418836348521 -0.478631328575117 -1.83995888731765 -0.783933219720151 -1.69038017108759 -1.0689316522556 -1.4970214963422 -1.32624531648159 -1.26489075119075 -1.54920992365531 -0.999999999999998 -1.73205080756888 -0.709209774085068 -1.87003248537083 -0.400051387552086 -1.95958130408454 -0.0805318802188268 -1.99837799634314 0.24107336051065 -1.98541774819611 0.556434927832909 -1.92103622326274 0.857385122806112 -1.80690086922076 1.13612949346232 -1.64596773178731 1.3854487070192 -1.44240489468763 1.59888552680701 -1.20148452847595 1.77091205130642 -0.929446344087532 1.89707288389429 -0.633335987602939 1.97410052527583 -0.320822561715514 0.00324269186578996 0 40 1 2 40 2 3 40 3 4 40 4 5 40 5 6 40 6 7 40 7 8 40 8 9 40 9 10 40 10 11 40 11 12 40 12 13 40 13 14 40 14 15 40 15 16 40 16 17 40 17 18 40 18 19 40 19 20 40 20 21 40 21 22 40 22 23 40 23 24 40 24 25 40 25 26 40 26 27 40 27 28 40 28 29 40 29 30 40 30 31 40 31 32 40 32 33 40 33 34 40 34 35 40 35 36 40 36 37 40 37 38 40 38 39 40 39 1 

TShapes 32
Ve
1e-07
2 -4.89842541528951e-16 10
0 0

0101101
*
Ed
 1e-07 1 1 0
1  1 0 0 6.28318530717959
2  1 2 0 0 6.28318530717959
2  2 1 0 0 6.28318530717959
6  1 2 0
6  2 1 0
6  3 3 3
0

0101100
+32 0 -32 0 *
Wi

0101000
+31 0 *
Fa
0  1e-07 1 0
2  1
0111000
+30 0 *
Ve
1.00000000076707e-07
2 -5.665498452323e-16 5
0 0

0101101
*
Ed
 1e-07 1 1 0
1  2 0 5 10
3  3 4CN 2 0 5 10
7  4 5 3 3
0

0101000
+28 3 -32 0 *
Ve
1e-07
2 -4.89842541528951e-16 0
0 0

0101101
*
Ed
 1e-07 1 1 0
1  3 0 3.14159265358979 6.28318530717959
2  5 3 0 3.14159265358979 6.28318530717959
2  6 4 0 3.14159265358979 6.28318530717959
2  7 2 5 3.14159265358979 6.28318530717959
6  6 3 6
6  7 4 6
0

0101000
+28 6 -26 0 *
Ed
 1e-07 1 1 0
1  3 0 0 3.14159265358979
2  5 3 0 0 3.14159265358979
2  6 4 0 0 3.14159265358979
2  8 2 5 0 3.14159265358979
6  8 3 6
6  9 5 6
0

0101000
+26 0 -28 6 *
Wi

0101000
+27 2 -25 4 -24 4 -27 2 -31 2 *
Fa
0  1e-07 2 2
2  3
0101000
+23 0 *
Ve
1e-07
2 -4.89842541528951e-16 0
0 0

0101101
*
Ed
 1e-07 1 1 0
1  2 0 0 5
3  3 4CN 2 0 0 5
2  9 3 7 0 5
6  10 4 3
6  11 5 3
0

0101000
+21 0 -28 3 *
Ve
1.00000000341786e-07
-2 -5.665498452323e-16 0
0 0

0101101
*
Ed
 1e-07 1 1 0
1  4 0 3.14159265358979 6.28318530717959
2  10 2 0 3.14159265358979 6.28318530717959
2  11 5 0 3.14159265358979 6.28318530717959
2  12 3 7 3.14159265358979 6.28318530717959
6  12 4 3
6  13 6 3
0

0101000
+19 3 -21 0 *
Ed
 1e-07 1 1 0
1  5 0 0 5
3  13 14CN 3 0 0 5
2  15 2 5 0 5
6  14 4 6
6  15 5 6
0

0101000
+26 0 -19 6 *
Wi

0101000
+20 2 +18 2 +17 4 +25 4 *
Fa
0  1e-07 2 2
2  4
0101000
+16 0 *
Ed
 1e-07 1 1 0
1  4 0 0 3.14159265358979
2  10 2 0 0 3.14159265358979
2  11 5 0 0 3.14159265358979
2  16 3 7 0 3.14159265358979
6  16 5 3
6  17 6 3
0

0101000
+21 0 -19 3 *
Wi

0101000
+24 4 -17 4 +14 2 -20 2 *
Fa
0  1e-07 2 2
2  5
0101000
+13 0 *
Ve
1e-07
2 -4.89842541528951e-16 10
0 0

0101101
*
Ed
 1e-07 1 1 0
1  5 0 5 10
3  13 14CN 3 0 5 10
7  18 19 6 6
0

0101000
+19 6 -11 0 *
Ed
 1e-07 1 1 0
1  6 0 0 6.28318530717959
2  17 3 0 0 6.28318530717959
2  18 6 0 0 6.28318530717959
6  20 7 0
6  21 8 0
6  22 6 6
0

0101100
+11 0 -11 0 *
Wi

0101000
+10 4 -18 2 -14 2 -10 4 -9 4 *
Fa
0  1e-07 3 4
2  6
0101000
+8 0 *
Wi

0101000
+9 0 *
Fa
0  1e-07 6 0
2  8
0111000
+6 0 *
Sh

0101000
+29 2 +22 0 +15 0 +12 0 +7 0 +5 4 *
So

0100000
+4 0 *
Co

0100000
+3 0 *
Co

1100000
+2 1 *

+1 0 