DBRep_DrawableShape

CASCADE Topology V1, (c) Matra-Datavision
Locations 25
1
              1               0               0               0 
              0               1               0               0 
              0               0               1               0 
1
              1               0               0               0 
              0               1               0               0 
              0               0               1               0 
1
              1               0               0               0 
              0               1               0               0 
              0               0               1               0 
1
              1               0               0               0 
              0               1               0               0 
              0               0               1               0 
2  2 1 3 1 4 1 0
2  4 -1 3 -1 2 -1 0
2  1 -1 4 -1 3 -1 2 -1 0
2  2 1 3 1 0
1
              1               0               0               0 
              0               1               0               0 
              0               0               1               0 
2  2 1 3 1 9 1 4 -1 0
2  4 -1 0
2  1 -1 4 -1 0
1
              1               0               0               0 
              0               1               0               0 
              0               0               1              10 
2  13 1 2 -1 0
2  2 1 3 1 9 1 0
2  9 -1 3 -1 2 -1 0
2  1 -1 9 -1 3 -1 2 -1 0
2  13 1 3 1 4 1 0
2  13 1 3 1 0
2  13 1 3 1 9 1 4 -1 0
2  4 -1 3 -1 13 -1 0
2  1 -1 4 -1 3 -1 13 -1 0
2  13 1 3 1 9 1 0
2  9 -1 3 -1 13 -1 0
2  1 -1 9 -1 3 -1 13 -1 0
Curve2ds 34
2 0 0 1 0 -0 1 2
1 0 0 1 0 
8 -0.14683045111453996 4.14683045111454
1 0 -2 0 1 
1 0 -2 0 1 
8 0 10
1 1.5707963267948966 0 0 1 
1 1.5707963267948966 0 0 1 
8 0 10
1 4.7123889803846897 0 0 1 
1 4.7123889803846897 0 0 1 
1 0 10 1 0 
1 0 0 1 0 
2 0 0 1 0 -0 1 2
1 0 0 1 0 
2 0 0 1 0 -0 1 2
1 0 0 1 0 
1 0 -0 0 1 
1 6.2831853071795862 -0 0 1 
1 0 10 1 0 
1 0 0 1 0 
1 0 10 1 0 
1 0 0 1 0 
8 0 10
1 1.5707963267948966 0 0 1 
1 1.5707963267948966 0 0 1 
8 0 10
1 4.7123889803846897 0 0 1 
1 4.7123889803846897 0 0 1 
1 0 10 1 0 
2 0 0 1 0 -0 1 2
1 0 -0 0 1 
1 6.2831853071795862 -0 0 1 
1 0 10 1 0 
2 0 0 1 0 -0 1 2
1 0 10 1 0 
2 0 0 1 0 -0 1 2
8 -0.14683045111453996 4.14683045111454
1 0 -2 0 1 
1 0 -2 0 1 
Curves 17
2 0 0 0 0 0 1 1 0 -0 -0 1 0 2
1 0 -2 0 0 1 0 
1 0 2 0 0 0 1 
1 0 -2 0 0 0 1 
2 0 0 10 0 0 1 1 0 -0 -0 1 0 2
2 0 0 0 0 0 1 1 0 -0 -0 1 0 2
2 0 0 0 0 0 1 1 0 -0 -0 1 0 2
1 2 -4.898425415289509e-16 0 0 0 1 
2 0 0 10 0 0 1 1 0 -0 -0 1 0 2
2 0 0 10 0 0 1 1 0 -0 -0 1 0 2
1 0 2 10 0 0 1 
1 0 -2 10 0 0 1 
2 0 0 10 0 0 1 1 0 -0 -0 1 0 2
1 2 -4.898425415289509e-16 0 0 0 1 
2 0 0 10 0 0 1 1 0 -0 -0 1 0 2
2 0 0 10 0 0 1 1 0 -0 -0 1 0 2
1 0 -2 20 0 1 0 
Polygon3D 0
PolygonOnTriangulations 34
15 1 3 4 5 6 7 8 9 10 11 12 13 14 15 2 
p 0.023882614668616 1 1.5707963267949 1.79519580205131 2.01959527730773 2.24399475256414 2.46839422782055 2.69279370307697 2.91719317833338 3.14159265358979 3.36599212884621 3.59039160410262 3.81479107935903 4.03919055461545 4.26359002987186 4.48798950512827 4.71238898038469 
15 1 3 4 5 6 7 8 9 10 11 12 13 14 15 2 
p 0.023882614668616 1 1.5707963267949 1.79519580205131 2.01959527730773 2.24399475256414 2.46839422782055 2.69279370307697 2.91719317833338 3.14159265358979 3.36599212884621 3.59039160410262 3.81479107935903 4.03919055461545 4.26359002987186 4.48798950512827 4.71238898038469 
2 2 1 
p 0.023882614668616 1 0 4 
2 1 2 
p 0.023882614668616 1 0 4 
2 1 16 
p 0.023882614668616 1 0 10 
2 2 10 
p 0.023882614668616 1 0 10 
2 2 17 
p 0.023882614668616 1 0 10 
2 1 2 
p 0.023882614668616 1 0 10 
15 16 18 19 20 21 22 23 24 25 26 27 28 29 30 17 
p 0.023882614668616 1 1.5707963267949 1.79519580205131 2.01959527730773 2.24399475256414 2.46839422782055 2.69279370307697 2.91719317833338 3.14159265358979 3.36599212884621 3.59039160410262 3.81479107935903 4.03919055461545 4.26359002987186 4.48798950512827 4.71238898038469 
15 1 3 4 5 6 7 8 9 10 11 12 13 14 15 2 
p 0.023882614668616 1 1.5707963267949 1.79519580205131 2.01959527730773 2.24399475256414 2.46839422782055 2.69279370307697 2.91719317833338 3.14159265358979 3.36599212884621 3.59039160410262 3.81479107935903 4.03919055461545 4.26359002987186 4.48798950512827 4.71238898038469 
8 1 4 5 6 7 8 9 3 
p 0.023882614668616 1 4.71238898038469 4.9367884556411 5.16118793089752 5.38558740615393 5.60998688141035 5.83438635666676 6.05878583192318 6.28318530717959 
8 1 4 5 6 7 8 9 3 
p 0.023882614668616 1 4.71238898038469 4.9367884556411 5.16118793089752 5.38558740615393 5.60998688141035 5.83438635666676 6.05878583192318 6.28318530717959 
8 1 3 4 5 6 7 8 2 
p 0.023882614668616 1 0 0.224399475256414 0.448798950512829 0.673198425769243 0.897597901025657 1.12199737628207 1.34639685153849 1.5707963267949 
8 3 10 11 12 13 14 15 2 
p 0.023882614668616 1 0 0.224399475256414 0.448798950512829 0.673198425769243 0.897597901025657 1.12199737628207 1.34639685153849 1.5707963267949 
2 1 9 
p 0.023882614668616 1 0 10 
2 3 10 
p 0.023882614668616 1 0 10 
8 9 11 12 13 14 15 16 10 
p 0.023882614668616 1 0 0.224399475256414 0.448798950512829 0.673198425769243 0.897597901025657 1.12199737628207 1.34639685153849 1.5707963267949 
8 1 3 4 5 6 7 8 2 
p 0.023882614668616 1 0 0.224399475256414 0.448798950512829 0.673198425769243 0.897597901025657 1.12199737628207 1.34639685153849 1.5707963267949 
8 2 11 12 13 14 15 16 10 
p 0.023882614668616 1 4.71238898038469 4.9367884556411 5.16118793089752 5.38558740615393 5.60998688141035 5.83438635666676 6.05878583192318 6.28318530717959 
8 1 4 5 6 7 8 9 3 
p 0.023882614668616 1 4.71238898038469 4.9367884556411 5.16118793089752 5.38558740615393 5.60998688141035 5.83438635666676 6.05878583192318 6.28318530717959 
2 1 16 
p 0.023882614668616 1 0 10 
2 2 10 
p 0.023882614668616 1 0 10 
2 2 17 
p 0.023882614668616 1 0 10 
2 1 2 
p 0.023882614668616 1 0 10 
15 16 18 19 20 21 22 23 24 25 26 27 28 29 30 17 
p 0.023882614668616 1 1.5707963267949 1.79519580205131 2.01959527730773 2.24399475256414 2.46839422782055 2.69279370307697 2.91719317833338 3.14159265358979 3.36599212884621 3.59039160410262 3.81479107935903 4.03919055461545 4.26359002987186 4.48798950512827 4.71238898038469 
15 1 3 4 5 6 7 8 9 10 11 12 13 14 15 2 
p 0.023882614668616 1 1.5707963267949 1.79519580205131 2.01959527730773 2.24399475256414 2.46839422782055 2.69279370307697 2.91719317833338 3.14159265358979 3.36599212884621 3.59039160410262 3.81479107935903 4.03919055461545 4.26359002987186 4.48798950512827 4.71238898038469 
2 1 9 
p 0.023882614668616 1 0 10 
2 3 10 
p 0.023882614668616 1 0 10 
8 9 11 12 13 14 15 16 10 
p 0.023882614668616 1 0 0.224399475256414 0.448798950512829 0.673198425769243 0.897597901025657 1.12199737628207 1.34639685153849 1.5707963267949 
8 3 10 11 12 13 14 15 2 
p 0.023882614668616 1 0 0.224399475256414 0.448798950512829 0.673198425769243 0.897597901025657 1.12199737628207 1.34639685153849 1.5707963267949 
8 2 11 12 13 14 15 16 10 
p 0.023882614668616 1 4.71238898038469 4.9367884556411 5.16118793089752 5.38558740615393 5.60998688141035 5.83438635666676 6.05878583192318 6.28318530717959 
8 1 4 5 6 7 8 9 3 
p 0.023882614668616 1 4.71238898038469 4.9367884556411 5.16118793089752 5.38558740615393 5.60998688141035 5.83438635666676 6.05878583192318 6.28318530717959 
2 2 1 
p 0.023882614668616 1 0 4 
2 1 2 
p 0.023882614668616 1 0 4 
Surfaces 10
1 0 0 0 0 0 1 1 0 -0 -0 1 0 
2 0 0 0 0 0 1 1 0 -0 -0 1 0 2
1 0 0 0 0 0 1 1 0 -0 -0 1 0 
2 0 0 0 0 0 1 1 0 -0 -0 1 0 2
2 0 0 0 0 0 1 1 0 -0 -0 1 0 2
2 0 0 0 0 0 1 1 0 -0 -0 1 0 2
2 0 0 0 0 0 1 1 0 -0 -0 1 0 2
2 0 0 0 0 0 1 1 0 -0 -0 1 0 2
1 0 0 10 0 0 1 1 0 -0 -0 1 0 
1 0 0 10 0 0 1 1 0 -0 -0 1 0 
Triangulations 10
16 15 1 3.1641356201817e-15
1.22460635382238e-16 2 0 -3.67381906146713e-16 -2 0 -0.445041867912635 1.94985582436365 0 -0.867767478235122 1.80193773580484 0 -1.24697960371747 1.56366296493606 0 -1.56366296493606 1.24697960371746 0 -1.80193773580484 0.867767478235113 0 -1.94985582436365 0.445041867912626 0 -2 -1.53143556863578e-15 0 -1.94985582436365 -0.445041867912629 0 -1.80193773580484 -0.867767478235116 0 -1.56366296493606 -1.24697960371747 0 -1.24697960371747 -1.56366296493606 0 -0.867767478235118 -1.80193773580484 0 -0.445041867912631 -1.94985582436365 0 -1 0 0 -6.88338275267597e-15 2 -4.44089209850063e-16 -2 -0.445041867912635 1.94985582436365 -0.867767478235122 1.80193773580484 -1.24697960371747 1.56366296493606 -1.56366296493606 1.24697960371746 -1.80193773580484 0.867767478235113 -1.94985582436365 0.445041867912626 -2 -1.55431223447522e-15 -1.94985582436365 -0.445041867912629 -1.80193773580484 -0.867767478235116 -1.56366296493606 -1.24697960371747 -1.24697960371747 -1.56366296493606 -0.867767478235118 -1.80193773580484 -0.445041867912631 -1.94985582436365 -1 0 16 1 3 16 3 4 16 4 5 16 5 6 16 6 7 16 7 8 16 8 9 16 9 10 16 10 11 16 11 12 16 12 13 16 13 14 16 14 15 16 15 2 16 2 1 
30 28 1 0.0125755802135152
1.22460635382238e-16 2 0 -3.67381906146713e-16 -2 0 -0.445041867912635 1.94985582436365 0 -0.867767478235122 1.80193773580484 0 -1.24697960371747 1.56366296493606 0 -1.56366296493606 1.24697960371746 0 -1.80193773580484 0.867767478235113 0 -1.94985582436365 0.445041867912626 0 -2 -1.53143556863578e-15 0 -1.94985582436365 -0.445041867912629 0 -1.80193773580484 -0.867767478235116 0 -1.56366296493606 -1.24697960371747 0 -1.24697960371747 -1.56366296493606 0 -0.867767478235118 -1.80193773580484 0 -0.445041867912631 -1.94985582436365 0 1.22460635382238e-16 2 10 -3.67381906146713e-16 -2 10 -0.445041867912635 1.94985582436365 10 -0.867767478235122 1.80193773580484 10 -1.24697960371747 1.56366296493606 10 -1.56366296493606 1.24697960371746 10 -1.80193773580484 0.867767478235113 10 -1.94985582436365 0.445041867912626 10 -2 -1.53143556863578e-15 10 -1.94985582436365 -0.445041867912629 10 -1.80193773580484 -0.867767478235116 10 -1.56366296493606 -1.24697960371747 10 -1.24697960371747 -1.56366296493606 10 -0.867767478235118 -1.80193773580484 10 -0.445041867912631 -1.94985582436365 10 1.5707963267949 0 4.71238898038469 0 1.79519580205131 0 2.01959527730773 0 2.24399475256414 0 2.46839422782055 0 2.69279370307697 0 2.91719317833338 0 3.14159265358979 0 3.36599212884621 0 3.59039160410262 0 3.81479107935903 0 4.03919055461545 0 4.26359002987186 0 4.48798950512827 0 1.5707963267949 10 4.71238898038469 10 1.79519580205131 10 2.01959527730773 10 2.24399475256414 10 2.46839422782055 10 2.69279370307697 10 2.91719317833338 10 3.14159265358979 10 3.36599212884621 10 3.59039160410262 10 3.81479107935903 10 4.03919055461545 10 4.26359002987186 10 4.48798950512827 10 18 1 3 18 3 4 18 16 1 19 4 5 19 18 4 20 19 5 21 5 6 21 20 5 22 6 7 22 7 8 22 21 6 23 8 9 23 22 8 24 23 9 25 9 10 25 10 11 25 24 9 26 25 11 27 11 12 27 12 13 27 26 11 28 13 14 28 27 13 29 14 15 29 28 14 30 15 2 30 29 15 17 30 2 
16 15 1 3.57559034463995e-15
-3.67381906146713e-16 -2 0 1.22460635382238e-16 2 0 2 -4.89842541528951e-16 0 0.44504186791263 -1.94985582436365 0 0.867767478235119 -1.80193773580484 0 1.24697960371747 -1.56366296493606 0 1.56366296493606 -1.24697960371746 0 1.80193773580484 -0.867767478235109 0 1.94985582436365 -0.445041867912619 0 1.94985582436365 0.44504186791263 0 1.80193773580484 0.867767478235118 0 1.56366296493606 1.24697960371747 0 1.24697960371746 1.56366296493606 0 0.867767478235112 1.80193773580484 0 0.445041867912623 1.94985582436365 0 1 0 0 0 -2 0 2 2 6.66133814775094e-15 0.44504186791263 -1.94985582436365 0.867767478235119 -1.80193773580484 1.24697960371747 -1.56366296493606 1.56366296493606 -1.24697960371746 1.80193773580484 -0.867767478235109 1.94985582436365 -0.445041867912619 1.94985582436365 0.44504186791263 1.80193773580484 0.867767478235118 1.56366296493606 1.24697960371747 1.24697960371746 1.56366296493606 0.867767478235112 1.80193773580484 0.445041867912623 1.94985582436365 1 0 16 2 1 16 1 4 16 4 5 16 5 6 16 6 7 16 7 8 16 8 9 16 9 3 16 3 10 16 10 11 16 11 12 16 12 13 16 13 14 16 14 15 16 15 2 
16 14 1 0.012575580213515
2 -4.89842541528951e-16 0 1.22460635382238e-16 2 0 1.94985582436365 0.44504186791263 0 1.80193773580484 0.867767478235118 0 1.56366296493606 1.24697960371747 0 1.24697960371746 1.56366296493606 0 0.867767478235112 1.80193773580484 0 0.445041867912623 1.94985582436365 0 2 -4.89842541528951e-16 10 1.22460635382238e-16 2 10 1.94985582436365 0.44504186791263 10 1.80193773580484 0.867767478235118 10 1.56366296493606 1.24697960371747 10 1.24697960371746 1.56366296493606 10 0.867767478235112 1.80193773580484 10 0.445041867912623 1.94985582436365 10 0 0 1.5707963267949 0 0.224399475256414 0 0.448798950512829 0 0.673198425769243 0 0.897597901025657 0 1.12199737628207 0 1.34639685153849 0 0 10 1.5707963267949 10 0.224399475256414 10 0.448798950512829 10 0.673198425769243 10 0.897597901025657 10 1.12199737628207 10 1.34639685153849 10 11 1 3 11 9 1 12 3 4 12 11 3 13 4 5 13 12 4 14 5 6 14 6 7 14 13 5 15 14 7 16 7 8 16 15 7 10 8 2 10 16 8 
16 14 1 0.012575580213515
-3.67381906146713e-16 -2 0 -3.67381906146713e-16 -2 10 2 -4.89842541528951e-16 0 0.44504186791263 -1.94985582436365 0 0.867767478235119 -1.80193773580484 0 1.24697960371747 -1.56366296493606 0 1.56366296493606 -1.24697960371746 0 1.80193773580484 -0.867767478235109 0 1.94985582436365 -0.445041867912619 0 2 -4.89842541528951e-16 10 0.44504186791263 -1.94985582436365 10 0.867767478235119 -1.80193773580484 10 1.24697960371747 -1.56366296493606 10 1.56366296493606 -1.24697960371746 10 1.80193773580484 -0.867767478235109 10 1.94985582436365 -0.445041867912619 10 4.71238898038469 0 4.71238898038469 10 6.28318530717959 0 4.9367884556411 0 5.16118793089752 0 5.38558740615393 0 5.60998688141035 0 5.83438635666676 0 6.05878583192318 0 6.28318530717959 10 4.9367884556411 10 5.16118793089752 10 5.38558740615393 10 5.60998688141035 10 5.83438635666676 10 6.05878583192318 10 11 2 1 11 1 4 11 4 5 12 11 5 13 5 6 13 12 5 14 6 7 14 7 8 14 13 6 15 14 8 16 8 9 16 15 8 10 9 3 10 16 9 
30 28 1 0.0125755802135152
1.22460635382238e-16 2 10 -3.67381906146713e-16 -2 10 -0.445041867912635 1.94985582436365 10 -0.867767478235122 1.80193773580484 10 -1.24697960371747 1.56366296493606 10 -1.56366296493606 1.24697960371746 10 -1.80193773580484 0.867767478235113 10 -1.94985582436365 0.445041867912626 10 -2 -1.53143556863578e-15 10 -1.94985582436365 -0.445041867912629 10 -1.80193773580484 -0.867767478235116 10 -1.56366296493606 -1.24697960371747 10 -1.24697960371747 -1.56366296493606 10 -0.867767478235118 -1.80193773580484 10 -0.445041867912631 -1.94985582436365 10 1.22460635382238e-16 2 20 -3.67381906146713e-16 -2 20 -0.445041867912635 1.94985582436365 20 -0.867767478235122 1.80193773580484 20 -1.24697960371747 1.56366296493606 20 -1.56366296493606 1.24697960371746 20 -1.80193773580484 0.867767478235113 20 -1.94985582436365 0.445041867912626 20 -2 -1.53143556863578e-15 20 -1.94985582436365 -0.445041867912629 20 -1.80193773580484 -0.867767478235116 20 -1.56366296493606 -1.24697960371747 20 -1.24697960371747 -1.56366296493606 20 -0.867767478235118 -1.80193773580484 20 -0.445041867912631 -1.94985582436365 20 1.5707963267949 0 4.71238898038469 0 1.79519580205131 0 2.01959527730773 0 2.24399475256414 0 2.46839422782055 0 2.69279370307697 0 2.91719317833338 0 3.14159265358979 0 3.36599212884621 0 3.59039160410262 0 3.81479107935903 0 4.03919055461545 0 4.26359002987186 0 4.48798950512827 0 1.5707963267949 10 4.71238898038469 10 1.79519580205131 10 2.01959527730773 10 2.24399475256414 10 2.46839422782055 10 2.69279370307697 10 2.91719317833338 10 3.14159265358979 10 3.36599212884621 10 3.59039160410262 10 3.81479107935903 10 4.03919055461545 10 4.26359002987186 10 4.48798950512827 10 18 1 3 18 3 4 18 16 1 19 4 5 19 18 4 20 19 5 21 5 6 21 20 5 22 6 7 22 7 8 22 21 6 23 8 9 23 22 8 24 23 9 25 9 10 25 10 11 25 24 9 26 25 11 27 11 12 27 12 13 27 26 11 28 13 14 28 27 13 29 14 15 29 28 14 30 15 2 30 29 15 17 30 2 
16 14 1 0.012575580213515
2 -4.89842541528951e-16 10 1.22460635382238e-16 2 10 1.94985582436365 0.44504186791263 10 1.80193773580484 0.867767478235118 10 1.56366296493606 1.24697960371747 10 1.24697960371746 1.56366296493606 10 0.867767478235112 1.80193773580484 10 0.445041867912623 1.94985582436365 10 2 -4.89842541528951e-16 20 1.22460635382238e-16 2 20 1.94985582436365 0.44504186791263 20 1.80193773580484 0.867767478235118 20 1.56366296493606 1.24697960371747 20 1.24697960371746 1.56366296493606 20 0.867767478235112 1.80193773580484 20 0.445041867912623 1.94985582436365 20 0 0 1.5707963267949 0 0.224399475256414 0 0.448798950512829 0 0.673198425769243 0 0.897597901025657 0 1.12199737628207 0 1.34639685153849 0 0 10 1.5707963267949 10 0.224399475256414 10 0.448798950512829 10 0.673198425769243 10 0.897597901025657 10 1.12199737628207 10 1.34639685153849 10 11 1 3 11 9 1 12 3 4 12 11 3 13 4 5 13 12 4 14 5 6 14 6 7 14 13 5 15 14 7 16 7 8 16 15 7 10 8 2 10 16 8 
16 14 1 0.012575580213515
-3.67381906146713e-16 -2 10 -3.67381906146713e-16 -2 20 2 -4.89842541528951e-16 10 0.44504186791263 -1.94985582436365 10 0.867767478235119 -1.80193773580484 10 1.24697960371747 -1.56366296493606 10 1.56366296493606 -1.24697960371746 10 1.80193773580484 -0.867767478235109 10 1.94985582436365 -0.445041867912619 10 2 -4.89842541528951e-16 20 0.44504186791263 -1.94985582436365 20 0.867767478235119 -1.80193773580484 20 1.24697960371747 -1.56366296493606 20 1.56366296493606 -1.24697960371746 20 1.80193773580484 -0.867767478235109 20 1.94985582436365 -0.445041867912619 20 4.71238898038469 0 4.71238898038469 10 6.28318530717959 0 4.9367884556411 0 5.16118793089752 0 5.38558740615393 0 5.60998688141035 0 5.83438635666676 0 6.05878583192318 0 6.28318530717959 10 4.9367884556411 10 5.16118793089752 10 5.38558740615393 10 5.60998688141035 10 5.83438635666676 10 6.05878583192318 10 11 2 1 11 1 4 11 4 5 12 11 5 13 5 6 13 12 5 14 6 7 14 7 8 14 13 6 15 14 8 16 8 9 16 15 8 10 9 3 10 16 9 
16 15 1 3.1641356201817e-15
1.22460635382238e-16 2 20 -3.67381906146713e-16 -2 20 -0.445041867912635 1.94985582436365 20 -0.867767478235122 1.80193773580484 20 -1.24697960371747 1.56366296493606 20 -1.56366296493606 1.24697960371746 20 -1.80193773580484 0.867767478235113 20 -1.94985582436365 0.445041867912626 20 -2 -1.53143556863578e-15 20 -1.94985582436365 -0.445041867912629 20 -1.80193773580484 -0.867767478235116 20 -1.56366296493606 -1.24697960371747 20 -1.24697960371747 -1.56366296493606 20 -0.867767478235118 -1.80193773580484 20 -0.445041867912631 -1.94985582436365 20 -1 0 20 -6.88338275267597e-15 2 -4.44089209850063e-16 -2 -0.445041867912635 1.94985582436365 -0.867767478235122 1.80193773580484 -1.24697960371747 1.56366296493606 -1.56366296493606 1.24697960371746 -1.80193773580484 0.867767478235113 -1.94985582436365 0.445041867912626 -2 -1.55431223447522e-15 -1.94985582436365 -0.445041867912629 -1.80193773580484 -0.867767478235116 -1.56366296493606 -1.24697960371747 -1.24697960371747 -1.56366296493606 -0.867767478235118 -1.80193773580484 -0.445041867912631 -1.94985582436365 -1 0 16 1 3 16 3 4 16 4 5 16 5 6 16 6 7 16 7 8 16 8 9 16 9 10 16 10 11 16 11 12 16 12 13 16 13 14 16 14 15 16 15 2 16 2 1 
16 15 1 3.57559034463995e-15
-3.67381906146713e-16 -2 20 1.22460635382238e-16 2 20 2 -4.89842541528951e-16 20 0.44504186791263 -1.94985582436365 20 0.867767478235119 -1.80193773580484 20 1.24697960371747 -1.56366296493606 20 1.56366296493606 -1.24697960371746 20 1.80193773580484 -0.867767478235109 20 1.94985582436365 -0.445041867912619 20 1.94985582436365 0.44504186791263 20 1.80193773580484 0.867767478235118 20 1.56366296493606 1.24697960371747 20 1.24697960371746 1.56366296493606 20 0.867767478235112 1.80193773580484 20 0.445041867912623 1.94985582436365 20 1 0 20 0 -2 0 2 2 6.66133814775094e-15 0.44504186791263 -1.94985582436365 0.867767478235119 -1.80193773580484 1.24697960371747 -1.56366296493606 1.56366296493606 -1.24697960371746 1.80193773580484 -0.867767478235109 1.94985582436365 -0.445041867912619 1.94985582436365 0.44504186791263 1.80193773580484 0.867767478235118 1.56366296493606 1.24697960371747 1.24697960371746 1.56366296493606 0.867767478235112 1.80193773580484 0.445041867912623 1.94985582436365 1 0 16 2 1 16 1 4 16 4 5 16 5 6 16 6 7 16 7 8 16 8 9 16 9 3 16 3 10 16 10 11 16 11 12 16 12 13 16 13 14 16 14 15 16 15 2 

TShapes 50
Ve
2.00001e-07
1.22460635382238e-16 2 0
0 0

0101101
*
Ve
2.00001e-07
-3.67381906146713e-16 -2 0
0 0

0101101
*
Ed
 1e-07 1 1 0
1  1 0 1.5707963267949 4.71238898038469
2  1 1 0 1.5707963267949 4.71238898038469
2  2 2 0 1.5707963267949 4.71238898038469
6  1 2 6
6  2 1 6
0

0101000
+50 7 -49 7 *
Ed
 1e-07 1 1 0
1  2 0 0 4
2  3 1 8 0 4
2  4 3 10 0 4
6  3 1 11
6  4 3 11
0

0101000
+49 12 -50 12 *
Wi

0101000
+48 5 +47 4 *
Fa
0  1e-07 1 5
2  1
0101000
+46 0 *
Ve
2.00001e-07
1.22460635382238e-16 2 10
0 0

0101101
*
Ed
 1e-07 1 1 0
1  3 0 0 10
2  5 2 8 0 10
2  6 4 10 0 10
6  5 2 11
6  6 4 11
0

0101000
+50 12 -44 12 *
Ve
2.00001e-07
-3.67381906146713e-16 -2 10
0 0

0101101
*
Ed
 1e-07 1 1 0
1  4 0 0 10
2  7 2 8 0 10
2  8 5 10 0 10
6  7 2 11
6  8 5 11
0

0101000
+49 12 -42 12 *
Ed
 1e-07 1 1 0
1  5 0 1.5707963267949 4.71238898038469
2  9 2 0 1.5707963267949 4.71238898038469
2  10 6 14 1.5707963267949 4.71238898038469
6  9 2 6
6  10 6 6
0

0101000
+44 7 -42 7 *
Wi

0101000
+48 5 -43 4 +41 4 -40 5 *
Fa
0  1e-07 2 5
2  2
0101000
+39 0 *
Ve
1e-07
2 -4.89842541528951e-16 0
0 0

0101101
*
Ed
 1e-07 1 1 0
1  6 0 4.71238898038469 6.28318530717959
2  11 3 0 4.71238898038469 6.28318530717959
2  12 5 0 4.71238898038469 6.28318530717959
6  11 5 16
6  12 3 16
0

0101000
+49 17 -37 17 *
Ed
 1e-07 1 1 0
1  7 0 0 1.5707963267949
2  13 3 0 0 1.5707963267949
2  14 4 0 0 1.5707963267949
6  13 4 16
6  14 3 16
0

0101000
+37 17 -50 17 *
Wi

0101000
-47 4 +36 15 +35 15 *
Fa
0  1e-07 3 15
2  3
0101000
+34 0 *
Ve
1e-07
2 -4.89842541528951e-16 10
0 0

0101101
*
Ed
 1e-07 1 1 0
1  8 0 0 10
2  15 4 0 0 10
2  16 5 0 0 10
4 CN 4 0 5 0
6  15 4 16
6  16 5 16
0

0101000
+37 17 -32 17 *
Ed
 1e-07 1 1 0
1  9 0 0 1.5707963267949
2  17 4 0 0 1.5707963267949
2  18 7 14 0 1.5707963267949
6  17 4 16
6  18 7 16
0

0101000
+32 17 -44 17 *
Wi

0101000
+35 15 -31 15 +43 4 -30 15 *
Fa
0  1e-07 4 15
2  4
0101000
+29 0 *
Ed
 1e-07 1 1 0
1  10 0 4.71238898038469 6.28318530717959
2  19 5 0 4.71238898038469 6.28318530717959
2  20 8 14 4.71238898038469 6.28318530717959
6  19 5 16
6  20 8 16
0

0101000
+42 17 -32 17 *
Wi

0101000
-41 4 +36 15 -27 15 +31 15 *
Fa
0  1e-07 5 15
2  5
0101000
+26 0 *
Ve
2.00001e-07
1.22460635382238e-16 2 20
0 0

0101101
*
Ed
 1e-07 1 1 0
1  11 0 0 10
2  21 6 19 0 10
2  22 7 20 0 10
6  21 6 11
6  22 7 11
0

0101000
+44 12 -24 12 *
Ve
2.00001e-07
-3.67381906146713e-16 -2 20
0 0

0101101
*
Ed
 1e-07 1 1 0
1  12 0 0 10
2  23 6 19 0 10
2  24 8 20 0 10
6  23 6 11
6  24 8 11
0

0101000
+42 12 -22 12 *
Ed
 1e-07 1 1 0
1  13 0 1.5707963267949 4.71238898038469
2  25 6 0 1.5707963267949 4.71238898038469
2  26 9 0 1.5707963267949 4.71238898038469
6  25 6 21
6  26 9 21
0

0101000
+24 22 -22 22 *
Wi

0101000
+40 5 -23 4 +21 4 -20 18 *
Fa
0  1e-07 6 18
2  6
0101000
+19 0 *
Ve
1e-07
2 -4.89842541528951e-16 20
0 0

0101101
*
Ed
 1e-07 1 1 0
1  14 0 0 10
2  27 7 0 0 10
2  28 8 0 0 10
4 CN 7 0 8 0
6  27 7 24
6  28 8 24
0

0101000
+32 25 -17 25 *
Ed
 1e-07 1 1 0
1  15 0 0 1.5707963267949
2  29 7 0 0 1.5707963267949
2  30 10 0 0 1.5707963267949
6  29 7 24
6  30 10 24
0

0101000
+17 25 -24 25 *
Wi

0101000
+30 15 -16 23 +23 4 -15 23 *
Fa
0  1e-07 7 23
2  7
0101000
+14 0 *
Ed
 1e-07 1 1 0
1  16 0 4.71238898038469 6.28318530717959
2  31 8 0 4.71238898038469 6.28318530717959
2  32 10 0 4.71238898038469 6.28318530717959
6  31 8 24
6  32 10 24
0

0101000
+22 25 -17 25 *
Wi

0101000
-21 4 +27 15 -12 23 +16 23 *
Fa
0  1e-07 8 23
2  8
0101000
+11 0 *
Ed
 1e-07 1 1 0
1  17 0 0 4
2  33 9 19 0 4
2  34 10 20 0 4
6  33 9 11
6  34 10 11
0

0101000
+22 12 -24 12 *
Wi

0101000
+20 18 +9 4 *
Fa
0  1e-07 9 18
2  9
0101000
+8 0 *
Wi

0101000
-9 4 +12 23 +15 23 *
Fa
0  1e-07 10 23
2  10
0101000
+6 0 *
Sh

0101000
-45 0 +38 0 -33 0 +28 0 +25 0 +18 0 +13 0 +10 0 +7 0 +5 0 
*
So

0100000
+4 0 *
Co

0100000
+3 0 *
Co

1100000
+2 1 *

+1 0 