DBRep_DrawableShape

CASCADE Topology V1, (c) Matra-Datavision
Locations 4
1
              1               0               0               0 
              0               1               0               0 
              0               0               1               0 
1
              1               0               0               0 
              0               1               0               0 
              0               0               1               0 
1
              1               0               0             -10 
              0               1               0              -5 
              0               0               1              -2 
2  2 -1 0
Curve2ds 14
8 0 10
1 4.7123889803846897 0 0 1 
8 0 10
1 2 -3 1 0 
1 0 10 1 0 
2 0 0 1 0 -0 1 2
1 6.2831853071795862 -0 0 1 
1 0 -0 0 1 
1 0 0 1 0 
2 0 0 1 0 -0 1 2
8 0.35316954888546093 4.6468304511145391
1 0 -2.5 0 1 
8 0.35316954888546093 4.6468304511145391
1 12 -2.5 0 -1 
8 0 10
1 1.5707963267948966 0 0 1 
8 0 10
1 2 -7 1 0 
8 0.35316954888546093 4.6468304511145391
1 0 -2.5 0 1 
8 0.35316954888546093 4.6468304511145391
1 2 -2.5 0 -1 
Curves 7
1 0 -2 0 0 0 1 
2 0 0 10 0 0 1 1 0 -0 -0 1 0 2
1 2 -4.898425415289509e-16 0 0 0 1 
2 0 0 0 0 0 1 1 0 -0 -0 1 0 2
1 0 -2.5 10 0 1 0 
1 0 2 0 0 0 1 
1 0 -2.5 0 0 1 0 
Polygon3D 0
PolygonOnTriangulations 18
2 1 2 
p 0.0137452943347953 1 0 10 
2 1 2 
p 0.0137452943347953 1 0 10 
10 2 4 5 6 7 8 9 10 11 3 
p 0.0137452943347953 1 4.71238898038469 4.88692190558412 5.06145483078356 5.23598775598299 5.41052068118242 5.58505360638185 5.75958653158129 5.93411945678072 6.10865238198015 6.28318530717959 
10 1 12 13 14 15 16 17 18 19 3 
p 0.0137452943347953 1 4.71238898038469 4.88692190558412 5.06145483078356 5.23598775598299 5.41052068118242 5.58505360638185 5.75958653158129 5.93411945678072 6.10865238198015 6.28318530717959 
2 12 3 
p 0.0137452943347953 1 0 10 
2 1 11 
p 0.0137452943347953 1 0 10 
10 1 13 14 15 16 17 18 19 20 12 
p 0.0137452943347953 1 4.71238898038469 4.88692190558412 5.06145483078356 5.23598775598299 5.41052068118242 5.58505360638185 5.75958653158129 5.93411945678072 6.10865238198015 6.28318530717959 
10 1 12 13 14 15 16 17 18 19 3 
p 0.0137452943347953 1 4.71238898038469 4.88692190558412 5.06145483078356 5.23598775598299 5.41052068118242 5.58505360638185 5.75958653158129 5.93411945678072 6.10865238198015 6.28318530717959 
2 2 3 
p 0.0137452943347953 1 0.5 4.5 
2 1 2 
p 0.0137452943347953 1 0.5 4.5 
2 2 12 
p 0.0137452943347953 1 0 10 
2 4 3 
p 0.0137452943347953 1 0 10 
2 1 4 
p 0.0137452943347953 1 0.5 4.5 
2 1 2 
p 0.0137452943347953 1 0.5 4.5 
10 11 13 14 15 16 17 18 19 20 12 
p 0.0137452943347953 1 0 0.174532925199433 0.349065850398866 0.523598775598299 0.698131700797732 0.872664625997165 1.0471975511966 1.22173047639603 1.39626340159546 1.5707963267949 
10 3 4 5 6 7 8 9 10 11 2 
p 0.0137452943347953 1 0 0.174532925199433 0.349065850398866 0.523598775598299 0.698131700797732 0.872664625997165 1.0471975511966 1.22173047639603 1.39626340159546 1.5707963267949 
10 1 3 4 5 6 7 8 9 10 2 
p 0.0137452943347953 1 0 0.174532925199433 0.349065850398866 0.523598775598299 0.698131700797732 0.872664625997165 1.0471975511966 1.22173047639603 1.39626340159546 1.5707963267949 
10 3 4 5 6 7 8 9 10 11 2 
p 0.0137452943347953 1 0 0.174532925199433 0.349065850398866 0.523598775598299 0.698131700797732 0.872664625997165 1.0471975511966 1.22173047639603 1.39626340159546 1.5707963267949 
Surfaces 4
2 0 0 0 0 0 1 1 0 -0 -0 1 0 2
1 10 0 0 1 0 -0 0 0 1 0 -1 0 
1 0 0 10 0 0 1 1 0 -0 -0 1 0 
1 0 0 0 0 0 1 1 0 -0 -0 1 0 
Triangulations 5
20 18 1 0.00761060381650905
-3.67381906146713e-16 -2 0 -3.67381906146713e-16 -2 10 2 -4.89842541528951e-16 10 0.34729635533386 -1.96961550602442 10 0.684040286651336 -1.87938524157182 10 0.999999999999999 -1.73205080756888 10 1.28557521937308 -1.53208888623796 10 1.53208888623795 -1.28557521937308 10 1.73205080756888 -1 10 1.87938524157182 -0.684040286651341 10 1.96961550602442 -0.347296355333864 10 2 -4.89842541528951e-16 0 0.34729635533386 -1.96961550602442 0 0.684040286651336 -1.87938524157182 0 0.999999999999999 -1.73205080756888 0 1.28557521937308 -1.53208888623796 0 1.53208888623795 -1.28557521937308 0 1.73205080756888 -1 0 1.87938524157182 -0.684040286651341 0 1.96961550602442 -0.347296355333864 0 4.71238898038469 0 4.71238898038469 10 6.28318530717959 10 4.88692190558412 10 5.06145483078356 10 5.23598775598299 10 5.41052068118242 10 5.58505360638185 10 5.75958653158129 10 5.93411945678072 10 6.10865238198015 10 6.28318530717959 0 4.88692190558412 0 5.06145483078356 0 5.23598775598299 0 5.41052068118242 0 5.58505360638185 0 5.75958653158129 0 5.93411945678072 0 6.10865238198015 0 2 1 13 4 13 14 4 2 13 5 4 14 6 14 15 6 5 14 7 15 16 7 16 17 7 6 15 8 7 17 9 17 18 9 8 17 10 18 19 10 19 20 10 9 18 11 10 20 3 20 12 3 11 20 
4 2 1 2.5357526258398e-16
-3.67381906146713e-16 -2 0 -3.67381906146713e-16 -2 10 1.22460635382238e-16 2 10 1.22460635382238e-16 2 0 2 -3 12 -3 12 -7 2 -7 2 4 3 2 1 4 
20 19 1 2.44921270764475e-16
-3.67381906146713e-16 -2 10 1.22460635382238e-16 2 10 2 -4.89842541528951e-16 10 1.96961550602442 0.347296355333861 10 1.87938524157182 0.684040286651337 10 1.73205080756888 1 10 1.53208888623796 1.28557521937308 10 1.28557521937308 1.53208888623796 10 1 1.73205080756888 10 0.684040286651338 1.87938524157182 10 0.347296355333861 1.96961550602442 10 0.34729635533386 -1.96961550602442 10 0.684040286651336 -1.87938524157182 10 0.999999999999999 -1.73205080756888 10 1.28557521937308 -1.53208888623796 10 1.53208888623795 -1.28557521937308 10 1.73205080756888 -1 10 1.87938524157182 -0.684040286651341 10 1.96961550602442 -0.347296355333864 10 1 0 10 0 -2 0 2 2 0 1.96961550602442 0.347296355333861 1.87938524157182 0.684040286651337 1.73205080756888 1 1.53208888623796 1.28557521937308 1.28557521937308 1.53208888623796 1 1.73205080756888 0.684040286651338 1.87938524157182 0.347296355333861 1.96961550602442 0.34729635533386 -1.96961550602442 0.684040286651336 -1.87938524157182 0.999999999999999 -1.73205080756888 1.28557521937308 -1.53208888623796 1.53208888623795 -1.28557521937308 1.73205080756888 -1 1.87938524157182 -0.68404028665134 1.96961550602442 -0.347296355333864 1 0 20 2 1 20 3 4 20 4 5 20 5 6 20 6 7 20 7 8 20 8 9 20 9 10 20 10 11 20 11 2 20 1 12 20 12 13 20 13 14 20 14 15 20 15 16 20 16 17 20 17 18 20 18 19 20 19 3 
20 18 1 0.00761060381650902
2 -4.89842541528951e-16 0 1.22460635382238e-16 2 0 1.96961550602442 0.347296355333861 0 1.87938524157182 0.684040286651337 0 1.73205080756888 1 0 1.53208888623796 1.28557521937308 0 1.28557521937308 1.53208888623796 0 1 1.73205080756888 0 0.684040286651338 1.87938524157182 0 0.347296355333861 1.96961550602442 0 2 -4.89842541528951e-16 10 1.22460635382238e-16 2 10 1.96961550602442 0.347296355333861 10 1.87938524157182 0.684040286651337 10 1.73205080756888 1 10 1.53208888623796 1.28557521937308 10 1.28557521937308 1.53208888623796 10 1 1.73205080756888 10 0.684040286651338 1.87938524157182 10 0.347296355333861 1.96961550602442 10 0 0 1.5707963267949 0 0.174532925199433 0 0.349065850398866 0 0.523598775598299 0 0.698131700797732 0 0.872664625997165 0 1.0471975511966 0 1.22173047639603 0 1.39626340159546 0 0 10 1.5707963267949 10 0.174532925199433 10 0.349065850398866 10 0.523598775598299 10 0.698131700797732 10 0.872664625997165 10 1.0471975511966 10 1.22173047639603 10 1.39626340159546 10 13 1 3 13 3 4 13 11 1 14 4 5 14 13 4 15 5 6 15 14 5 16 15 6 17 6 7 17 16 6 18 7 8 18 8 9 18 17 7 19 9 10 19 18 9 20 19 10 12 10 2 12 20 10 
20 19 1 2.44921270764475e-16
-3.67381906146713e-16 -2 0 1.22460635382238e-16 2 0 2 -4.89842541528951e-16 0 1.96961550602442 0.347296355333861 0 1.87938524157182 0.684040286651337 0 1.73205080756888 1 0 1.53208888623796 1.28557521937308 0 1.28557521937308 1.53208888623796 0 1 1.73205080756888 0 0.684040286651338 1.87938524157182 0 0.347296355333861 1.96961550602442 0 0.34729635533386 -1.96961550602442 0 0.684040286651336 -1.87938524157182 0 0.999999999999999 -1.73205080756888 0 1.28557521937308 -1.53208888623796 0 1.53208888623795 -1.28557521937308 0 1.73205080756888 -1 0 1.87938524157182 -0.684040286651341 0 1.96961550602442 -0.347296355333864 0 1 0 0 0 -2 0 2 2 0 1.96961550602442 0.347296355333861 1.87938524157182 0.684040286651337 1.73205080756888 1 1.53208888623796 1.28557521937308 1.28557521937308 1.53208888623796 1 1.73205080756888 0.684040286651338 1.87938524157182 0.347296355333861 1.96961550602442 0.34729635533386 -1.96961550602442 0.684040286651336 -1.87938524157182 0.999999999999999 -1.73205080756888 1.28557521937308 -1.53208888623796 1.53208888623795 -1.28557521937308 1.73205080756888 -1 1.87938524157182 -0.68404028665134 1.96961550602442 -0.347296355333864 1 0 20 2 1 20 3 4 20 4 5 20 5 6 20 6 7 20 7 8 20 8 9 20 9 10 20 10 11 20 11 2 20 1 12 20 12 13 20 13 14 20 14 15 20 15 16 20 16 17 20 17 18 20 18 19 20 19 3 

TShapes 29
Ve
2.00001e-07
-3.67381906146713e-16 -2 0
0 0

0101101
*
Ve
2.00001e-07
-3.67381906146713e-16 -2 10
0 0

0101101
*
Ed
 1e-07 1 1 0
1  1 0 0 10
2  1 1 2 0 10
2  2 2 3 0 10
6  1 1 0
6  2 2 0
0

0101000
+29 0 -28 0 *
Ve
1e-07
2 -4.89842541528951e-16 10
0 0

0101101
*
Ed
 1e-07 1 1 0
1  2 0 4.71238898038469 6.28318530717959
2  3 1 0 4.71238898038469 6.28318530717959
2  4 3 0 4.71238898038469 6.28318530717959
6  3 1 4
6  4 3 4
0

0101000
+28 4 -26 0 *
Ve
1e-07
2 -4.89842541528951e-16 0
0 0

0101101
*
Ed
 1e-07 1 1 0
1  3 0 0 10
3  5 6CN 1 0 0 10
6  5 1 4
6  6 4 4
0

0101000
-26 0 +24 0 *
Ed
 1e-07 1 1 0
1  4 0 4.71238898038469 6.28318530717959
2  7 1 0 4.71238898038469 6.28318530717959
2  8 4 0 4.71238898038469 6.28318530717959
6  7 1 4
6  8 5 4
0

0101000
+29 4 -24 0 *
Wi

0101000
-27 0 -25 2 +23 2 +22 2 *
Fa
0  1e-07 1 2
2  1
0101000
+21 0 *
Ve
2.00001e-07
1.22460635382238e-16 2 10
0 0

0101101
*
Ed
 1e-07 1 1 0
1  5 0 0.5 4.5
2  9 3 2 0.5 4.5
2  10 2 3 0.5 4.5
6  9 2 0
6  10 3 0
0

0101000
+28 0 -19 0 *
Ve
2.00001e-07
1.22460635382238e-16 2 0
0 0

0101101
*
Ed
 1e-07 1 1 0
1  6 0 0 10
2  11 1 2 0 10
2  12 2 3 0 10
6  11 4 0
6  12 2 0
0

0101000
+17 0 -19 0 *
Ed
 1e-07 1 1 0
1  7 0 0.5 4.5
2  13 4 2 0.5 4.5
2  14 2 3 0.5 4.5
6  13 2 0
6  14 5 0
0

0101000
+29 0 -17 0 *
Wi

0101000
-27 0 -18 0 +16 0 +15 0 *
Fa
0  1e-07 2 3
2  2
0101000
+14 0 *
Ed
 1e-07 1 1 0
1  2 0 0 1.5707963267949
2  3 1 0 0 1.5707963267949
2  4 3 0 0 1.5707963267949
6  15 4 4
6  16 3 4
0

0101000
+26 0 -19 4 *
Wi

0101000
-18 0 +12 2 +25 2 *
Fa
0  1e-07 3 2
2  3
0101000
+11 0 *
Ed
 1e-07 1 1 0
1  4 0 0 1.5707963267949
2  7 1 0 0 1.5707963267949
2  8 4 0 0 1.5707963267949
6  17 4 4
6  18 5 4
0

0101000
+24 0 -17 4 *
Wi

0101000
+9 2 -23 2 -12 2 +16 0 *
Fa
0  1e-07 1 2
2  4
0101000
+8 0 *
Wi

0101000
-15 0 +9 2 +22 2 *
Fa
0  1e-07 4 2
2  5
0101000
+6 0 *
Sh

0101000
+20 0 -13 0 +10 0 +7 0 -5 0 *
So

0100000
+4 0 *
Co

0100000
+3 0 *
Co

1100000
+2 1 *

+1 0 