DBRep_DrawableShape

CASCADE Topology V1, (c) Matra-Datavision
Locations 10
1
              1               0               0               0 
              0               1               0               0 
              0               0               1               0 
1
              1               0               0               0 
              0               1               0               0 
              0               0               1               0 
1
              1               0               0             -10 
              0               1               0              -5 
              0               0               1              -2 
1
              1               0               0               0 
              0               1               0               0 
              0               0               1               0 
2  2 -1 0
2  4 1 2 1 0
2  4 -1 0
2  2 -1 4 -1 0
1
2.22044604925031e-16               0               1               1 
              0               1               0               1 
             -1               0 2.22044604925031e-16              10 
2  9 -1 0
Curve2ds 32
8 0 10
1 4.7123889803846897 0 0 1 
8 0 10
1 2 -3 1 0 
8 0.35316954888546093 4.6468304511145391
1 12 -2.5 0 -1 
8 0.35316954888546093 4.6468304511145391
1 0 -2.5 0 1 
8 0 10
1 2 -7 1 0 
8 0 10
1 1.5707963267948966 0 0 1 
8 0.35316954888546093 4.6468304511145391
1 2 -2.5 0 -1 
8 0.35316954888546093 4.6468304511145391
1 0 -2.5 0 1 
1 0 0 1 0 
2 0 0 1 0 -0 1 2
1 0 10 1 0 
2 0 0 1 0 -0 1 2
1 6.2831853071795862 -0 0 1 
1 0 -0 0 1 
8 0 1.2110633883680135
1 1 1.1102230246251565e-16 1 0 
8 0 1.2110633883680135
1 4.7123889803846897 0 0 1 
2 0 0 1 0 -0 1 2
1 0 10 1 0 
8 -0.57341522555726954 1.5091341405892065
1 1 0.5 0 1 
8 -0.57341522555726954 1.5091341405892065
1 0 -0.5 0 1 
7 0 0  8 23 4  0 10  -9.7243775973680629e-18 9.8941224112056876  0.0064057756076670328 9.7878714078948743  0.019296334952849933 9.682870254719866  0.038660124954986871 9.581268083931759  0.064143455212326381 9.4854944479856904  0.094978086898561687 9.3980935449981313  0.12987287565133043 9.3211657385203921  0.18450888193236056 9.2244369513332121  0.20263871994712773 9.1958412388550101  0.22093962870470363 9.17011571417782  0.23923135246228935 9.1471551468714161  0.25738034042266433 9.1267753834193943  0.27529414753922915 9.1087625829607681  0.29291235428411566 9.0928980415624387  0.34034512681859386 9.0546949363178175  0.36947179487282711 9.0363242784077418  0.39753071292667364 9.0226423487758538  0.42454740104337957 9.0127688515457791  0.45057714038714142 9.0060323417424328  0.47569468105698359 9.0019096847459625  0.49999758940987826 9.0000000030658853  0.52359877559829904 9 
 0 9 0.43124700432228547 7 0.6385783453949937 7 1 9
7 0 0  8 23 4  4.7123889803846906 1  4.818266569179003 1  4.9245179885468735 0.99999988838472509  5.0313253810989895 1.0000004678539893  5.1384138464680396 0.99953949636939021  5.2452403360778952 0.99767461680495328  5.3508864328939252 0.99301835412128847  5.4538730518337655 0.98450185722393346  5.5986757121687383 0.96636293333137335  5.6442974098895924 0.9596346729556009  5.6883033828665557 0.95208824887389987  5.7306015558238963 0.94378090273143411  5.7711786371647253 0.93479137576187443  5.8100704075117013 0.92520454560203302  5.8473465341417521 0.915099264718781  5.945430108416911 0.88614134095047137  6.0030939966862338 0.86638173306695054  6.0568380618791142 0.84555573811982276  6.1072119109648852 0.82390890538611505  6.1546619960590059 0.80163031380759375  6.199576655486692 0.77885213650936669  6.2423068525603878 0.75565199198720856  6.2831853071795871 0.73205080756887686 
 0 9 0.43124700432228547 7 0.6385783453949937 7 1 9
7 0 0  8 16 3  0.52359877559829893 9  0.55887750531979552 8.9999999954171575  0.5938375197816782 9.0042672730837037  0.62791863886966859 9.0123183829041658  0.66085296264462379 9.0233906441914264  0.69252039438227986 9.0368199621536434  0.72292712253575808 9.0520605900445901  0.75219106778533684 9.0687500040323474  0.81850504441980754 9.1107793318240766  0.85467110798673063 9.1370345485971818  0.88938870342337972 9.1649031612291978  0.92284878448520913 9.1940250465874573  0.95522054070374707 9.2241231643935464  0.98664287261148398 9.2550135627207144  1.0172551453910139 9.2865747537112497  1.0471975511965976 9.3187499613667875 
 0 9 0.42744492276272067 7 1 9
7 0 0  8 16 3  0 0.73205080756887697  0.061104553831736297 0.69677208049328521  0.12023460728944713 0.6593483984915065  0.17669728658180794 0.62048486133375924  0.23034686544451421 0.58081346548552637  0.28120407781252776 0.54082760410117692  0.32945563937616296 0.50084229089758736  0.37541373650243237 0.46096339293229127  0.4785983529753155 0.3676382982027534  0.53411311494968938 0.31439982370037184  0.58684451738472809 0.26136426573621913  0.63721225805746151 0.2085846291633279  0.68557391753360264 0.1560842692076593  0.73220714727738656 0.10385907684990153  0.77737530833049551 0.051861767150009772  0.82132746137741819 0 
 0 9 0.42744492276272067 7 1 9
8 8.7119017293312773 10
1 1.0471975511965965 2.2204460492503185e-16 0 1 
8 8.7119017293312773 10
1 10 0.73205080756887608 -1 0 
1 0 0 1 0 
2 0 0 1 0 -0 1 2
1 6.2831853071795862 -0 0 1 
1 0 -0 0 1 
1 0 0 1 0 
2 0 0 1 0 -0 1 1
Curves 16
1 0 -2 0 0 0 1 
1 0 -2.5 10 0 1 0 
1 0 2 0 0 0 1 
1 0 -2.5 0 0 1 0 
2 0 0 0 0 0 1 1 0 -0 -0 1 0 2
2 0 0 10 0 0 1 1 0 -0 -0 1 0 2
1 2 -4.898425415289509e-16 0 0 0 1 
1 1 1.1102230246251565e-16 10 1 0 2.2204460492503136e-16 
2 0 0 10 0 0 1 1 0 -0 -0 1 0 2
1 1 0.5 10 0 1 0 
7 0 0  8 23 4  2 0 10  2 -1.9448755194736123e-17 9.8941224112056876  1.9999998883846963 0.012811372738141993 9.7878714078948743  2.0000004678540786 0.038593438169371275 9.682870254719866  1.9995394963692699 0.077318640111777026 9.581268083931759  1.9976746168050377 0.1282888231353847 9.4854944479856904  1.9930183541212625 0.18988799033546624 9.3980935449981313  1.9845018572239339 0.25922563134470661 9.3211657385203921  1.9663629333313739 0.36698161572322258 9.2244369513332121  1.9596346729555936 0.40261883347709415 9.1958412388550101  1.9520882488739111 0.43844807711151135 9.17011571417782  1.9437809027314348 0.47409278961385093 9.1471551468714161  1.9347913757618636 0.50927624567966878 9.1267753834193943  1.9252045456020399 0.54380989567019589 9.1087625829607681  1.9150992647187814 0.57757312880961287 9.0928980415624387  1.8861413409504715 0.667910885546533 9.0546949363178175  1.8663817330669514 0.72274997121824613 9.0363242784077418  1.8455557381198215 0.77491687627603545 9.0226423487758538  1.8239089053861155 0.82448172027071709 9.0127688515457791  1.8016303138075953 0.87158159324021456 9.0060323417424328  1.7788521365093655 0.91639105609237981 9.0019096847459625  1.7556519919872087 0.9591215453808013 9.0000000030658853  1.732050807568877 1 9 
 0 9 0.43124700432228547 7 0.6385783453949937 7 1 9
7 0 0  8 16 3  1.7320508075688772 1 9  1.6967720804932855 1.0611045538317361 8.9999999954171575  1.6593483984915407 1.1202346812299289 9.0042672730837037  1.620484861333654 1.1763492367391066 9.0123183829041658  1.5808134654856665 1.2290517685684821 9.0233906441914264  1.5408276041010849 1.2782701282357203 9.0368199621536434  1.5008422908976136 1.3241620984757765 9.0520605900445901  1.4609633929322916 1.3670405445562057 9.0687500040323474  1.3676382982027535 1.4612774836089533 9.1107793318240766  1.3143998237003607 1.5103534942136239 9.1370345485971818  1.2613642657362611 1.5553188395521516 9.1649031612291978  1.2085846291632651 1.5966210155616967 9.1940250465874573  1.1560842692077065 1.6346519175340029 9.2241231643935464  1.1038590768498868 1.6697213688011709 9.2550135627207144  1.0518617671500099 1.7021084000206663 9.2865747537112497  1.0000000000000002 1.7320508075688772 9.3187499613667875 
 0 9 0.42744492276272067 7 1 9
1 1.0000000000000022 1.7320508075688761 2.2204460492503185e-16 0 0 1 
2 0 0 0 0 0 1 1 0 -0 -0 1 0 2
1 1 -2.4492127076447545e-16 0 0 0 1 
2 0 0 0 0 0 1 1 0 -0 -0 1 0 1
Polygon3D 0
PolygonOnTriangulations 50
2 1 2 
p 0.0137452943347953 1 0 10 
2 1 2 
p 0.0137452943347953 1 0 10 
2 1 2 
p 0.0138139545017056 1 0 10 
2 1 2 
p 0.0137509455200675 1 0 10 
2 2 3 
p 0.0137452943347953 1 0.5 4.5 
2 1 2 
p 0.0137452943347953 1 0.5 4.5 
2 1 2 
p 0.0138139545017056 1 0.5 4.5 
2 3 12 
p 0.0137509455200675 1 0.5 4.5 
2 2 12 
p 0.0137452943347953 1 0 10 
2 4 3 
p 0.0137452943347953 1 0 10 
2 12 6 
p 0.0138139545017056 1 0 10 
2 20 17 
p 0.0137509455200675 1 0 10 
2 1 4 
p 0.0137452943347953 1 0.5 4.5 
2 1 2 
p 0.0137452943347953 1 0.5 4.5 
10 1 13 14 15 16 17 18 19 20 12 
p 0.0137452943347953 1 4.71238898038469 4.88692190558412 5.06145483078356 5.23598775598299 5.41052068118242 5.58505360638186 5.75958653158129 5.93411945678073 6.10865238198016 6.28318530717959 
10 1 12 13 14 15 16 17 18 19 3 
p 0.0137452943347953 1 4.71238898038469 4.88692190558412 5.06145483078356 5.23598775598299 5.41052068118242 5.58505360638186 5.75958653158129 5.93411945678073 6.10865238198016 6.28318530717959 
10 1 4 5 6 7 8 9 10 11 3 
p 0.0138139545017056 1 4.71238898038469 4.88692190558412 5.06145483078356 5.23598775598299 5.41052068118242 5.58505360638186 5.75958653158129 5.93411945678073 6.10865238198016 6.28318530717959 
10 1 4 5 6 7 8 9 10 11 3 
p 0.0137509455200675 1 4.71238898038469 4.88692190558412 5.06145483078356 5.23598775598299 5.41052068118242 5.58505360638186 5.75958653158129 5.93411945678073 6.10865238198016 6.28318530717959 
10 2 4 5 6 7 8 9 10 11 3 
p 0.0137452943347953 1 4.71238898038469 4.88692190558412 5.06145483078356 5.23598775598299 5.41052068118242 5.58505360638186 5.75958653158129 5.93411945678073 6.10865238198016 6.28318530717959 
10 1 12 13 14 15 16 17 18 19 3 
p 0.0137452943347953 1 4.71238898038469 4.88692190558412 5.06145483078356 5.23598775598299 5.41052068118242 5.58505360638186 5.75958653158129 5.93411945678073 6.10865238198016 6.28318530717959 
10 2 13 14 15 16 17 18 19 20 12 
p 0.0138139545017056 1 4.71238898038469 4.88692190558412 5.06145483078356 5.23598775598299 5.41052068118242 5.58505360638186 5.75958653158129 5.93411945678073 6.10865238198016 6.28318530717959 
10 1 12 13 14 15 16 17 18 19 9 
p 0.0138139545017056 1 4.71238898038469 4.88692190558412 5.06145483078356 5.23598775598299 5.41052068118242 5.58505360638186 5.75958653158129 5.93411945678073 6.10865238198016 6.28318530717959 
10 2 13 14 15 16 17 18 19 20 12 
p 0.0137509455200675 1 4.71238898038469 4.88692190558412 5.06145483078356 5.23598775598299 5.41052068118242 5.58505360638186 5.75958653158129 5.93411945678073 6.10865238198016 6.28318530717959 
10 3 4 5 6 7 8 9 10 11 2 
p 0.0137509455200675 1 4.71238898038469 4.88692190558412 5.06145483078356 5.23598775598299 5.41052068118242 5.58505360638186 5.75958653158129 5.93411945678073 6.10865238198016 6.28318530717959 
2 12 3 
p 0.0137452943347953 1 0 10 
2 1 11 
p 0.0137452943347953 1 0 10 
2 3 12 
p 0.0137509455200675 1 0 10 
2 21 1 
p 0.0137509455200675 1 0 10 
2 1 2 
p 0.0137509455200675 1 0 1 
2 1 2 
p 0.0137509455200675 1 0 1 
4 16 18 19 17 
p 0.0137509455200675 1 1.0471975511966 1.22173047639603 1.39626340159547 1.5707963267949 
4 13 14 15 12 
p 0.0137509455200675 1 1.0471975511966 1.22173047639603 1.39626340159547 1.5707963267949 
2 1 13 
p 0.0137509455200675 1 -0.5 1.23205080756888 
2 1 2 
p 0.0137509455200675 1 -0.5 1.23205080756888 
10 1 3 4 5 6 7 8 9 10 2 
p 0.0137509455200675 1 0 0.107466481500505 0.21493296300101 0.322399444501515 0.42986592600202 0.537332407502525 0.676596515630099 0.837796237880857 0.918898118940428 1 
10 2 4 5 6 7 8 9 10 11 3 
p 0.0137509455200675 1 0 0.107466481500505 0.21493296300101 0.322399444501515 0.42986592600202 0.537332407502525 0.676596515630099 0.837796237880857 0.918898118940428 1 
6 2 12 13 14 15 11 
p 0.0137509455200675 1 0 0.187060827628949 0.411533820783688 0.673511822433078 0.836755911216539 1 
6 5 6 7 8 9 2 
p 0.0137509455200675 1 0 0.187060827628949 0.411533820783688 0.673511822433078 0.836755911216539 1 
2 11 16 
p 0.0137509455200675 1 9.31874996136679 10 
2 3 2 
p 0.0137509455200675 1 9.31874996136679 10 
10 1 3 4 5 6 7 8 9 10 2 
p 0.0137452943347953 1 0 0.174532925199433 0.349065850398867 0.5235987755983 0.698131700797733 0.872664625997167 1.0471975511966 1.22173047639603 1.39626340159547 1.5707963267949 
10 3 4 5 6 7 8 9 10 11 2 
p 0.0137452943347953 1 0 0.174532925199433 0.349065850398867 0.5235987755983 0.698131700797733 0.872664625997167 1.0471975511966 1.22173047639603 1.39626340159547 1.5707963267949 
10 13 14 15 16 17 18 19 20 21 12 
p 0.0138139545017056 1 0 0.174532925199433 0.349065850398867 0.5235987755983 0.698131700797733 0.872664625997167 1.0471975511966 1.22173047639603 1.39626340159547 1.5707963267949 
10 21 22 23 24 25 26 27 28 29 20 
p 0.0137509455200675 1 0 0.174532925199433 0.349065850398867 0.5235987755983 0.698131700797733 0.872664625997167 1.0471975511966 1.22173047639603 1.39626340159547 1.5707963267949 
2 12 3 
p 0.0137509455200675 1 0 0.732050807568877 
2 1 5 
p 0.0137509455200675 1 0 0.732050807568877 
7 1 13 14 15 16 17 12 
p 0.0137509455200675 1 4.71238898038469 4.97418836818384 5.23598775598299 5.49778714378214 5.75958653158129 6.02138591938044 6.28318530717959 
7 1 7 8 9 10 11 4 
p 0.0137509455200675 1 4.71238898038469 4.97418836818384 5.23598775598299 5.49778714378214 5.75958653158129 6.02138591938044 6.28318530717959 
4 1 3 4 2 
p 0.0137509455200675 1 0 0.273775820459139 0.547551640918278 0.821327461377416 
4 4 5 6 3 
p 0.0137509455200675 1 0 0.273775820459139 0.547551640918278 0.821327461377416 
Surfaces 7
1 10 0 0 1 0 -0 0 0 1 0 -1 0 
2 0 0 0 0 0 1 1 0 -0 -0 1 0 2
1 0 0 10 0 0 1 1 0 -0 -0 1 0 
2 0 0 0 0 0 1 1 0 -0 -0 1 0 2
1 0 0 0 0 0 1 1 0 -0 -0 1 0 
2 0 0 0 0 0 1 1 0 -0 -0 1 0 1
1 0 0 0 0 0 1 1 0 -0 -0 1 0 
Triangulations 14
4 2 1 2.5357526258398e-16
-3.67381906146713e-16 -2 0 -3.67381906146713e-16 -2 10 1.22460635382238e-16 2 10 1.22460635382238e-16 2 0 2 -3 12 -3 12 -7 2 -7 2 4 3 2 1 4 
20 18 1 0.00761060381650911
-3.67381906146713e-16 -2 0 -3.67381906146713e-16 -2 10 2 -4.89842541528951e-16 10 0.347296355333862 -1.96961550602442 10 0.68404028665134 -1.87938524157182 10 1 -1.73205080756888 10 1.28557521937308 -1.53208888623795 10 1.53208888623796 -1.28557521937307 10 1.73205080756888 -0.999999999999993 10 1.87938524157182 -0.684040286651329 10 1.96961550602442 -0.34729635533385 10 2 -4.89842541528951e-16 0 0.347296355333862 -1.96961550602442 0 0.68404028665134 -1.87938524157182 0 1 -1.73205080756888 0 1.28557521937308 -1.53208888623795 0 1.53208888623796 -1.28557521937307 0 1.73205080756888 -0.999999999999993 0 1.87938524157182 -0.684040286651329 0 1.96961550602442 -0.34729635533385 0 4.71238898038469 0 4.71238898038469 10 6.28318530717959 10 4.88692190558412 10 5.06145483078356 10 5.23598775598299 10 5.41052068118242 10 5.58505360638186 10 5.75958653158129 10 5.93411945678073 10 6.10865238198016 10 6.28318530717959 0 4.88692190558412 0 5.06145483078356 0 5.23598775598299 0 5.41052068118242 0 5.58505360638186 0 5.75958653158129 0 5.93411945678073 0 6.10865238198016 0 2 1 13 4 13 14 4 2 13 5 14 15 5 4 14 6 15 16 6 5 15 7 16 17 7 6 16 8 17 18 8 7 17 9 18 19 9 8 18 10 19 20 10 9 19 11 20 12 11 10 20 3 11 12 
21 19 1 0.00761060381650909
-3.67381906146713e-16 -2 0 -3.67381906146713e-16 -2 10 2 -4.89842541528951e-16 0 0.347296355333862 -1.96961550602442 0 0.68404028665134 -1.87938524157182 0 1 -1.73205080756888 0 1.28557521937308 -1.53208888623795 0 1.53208888623796 -1.28557521937307 0 1.73205080756888 -0.999999999999993 0 1.87938524157182 -0.684040286651329 0 1.96961550602442 -0.34729635533385 0 2 -4.89842541528951e-16 10 0.347296355333862 -1.96961550602442 10 0.68404028665134 -1.87938524157182 10 1 -1.73205080756888 10 1.28557521937308 -1.53208888623795 10 1.53208888623796 -1.28557521937307 10 1.73205080756888 -0.999999999999993 10 1.87938524157182 -0.684040286651329 10 1.96961550602442 -0.34729635533385 10 2 -4.89842541528951e-16 9 4.71238898038469 0 4.71238898038469 10 6.28318530717959 0 4.88692190558412 0 5.06145483078356 0 5.23598775598299 0 5.41052068118242 0 5.58505360638186 0 5.75958653158129 0 5.93411945678073 0 6.10865238198016 0 6.28318530717959 10 4.88692190558412 10 5.06145483078356 10 5.23598775598299 10 5.41052068118242 10 5.58505360638186 10 5.75958653158129 10 5.93411945678073 10 6.10865238198016 10 6.28318530717959 9 13 2 1 13 1 4 14 4 5 14 5 6 14 13 4 15 14 6 16 6 7 16 7 8 16 15 6 17 16 8 18 8 9 18 17 8 19 9 10 19 18 9 20 10 11 20 19 10 21 11 3 21 20 11 12 20 21 
20 18 1 0.00761060381650909
-3.67381906146713e-16 -2 0 -3.67381906146713e-16 -2 10 2 -4.89842541528951e-16 0 0.347296355333862 -1.96961550602442 0 0.68404028665134 -1.87938524157182 0 1 -1.73205080756888 0 1.28557521937308 -1.53208888623795 0 1.53208888623796 -1.28557521937307 0 1.73205080756888 -0.999999999999993 0 1.87938524157182 -0.684040286651329 0 1.96961550602442 -0.34729635533385 0 2 -4.89842541528951e-16 10 0.347296355333862 -1.96961550602442 10 0.68404028665134 -1.87938524157182 10 1 -1.73205080756888 10 1.28557521937308 -1.53208888623795 10 1.53208888623796 -1.28557521937307 10 1.73205080756888 -0.999999999999993 10 1.87938524157182 -0.684040286651329 10 1.96961550602442 -0.34729635533385 10 4.71238898038469 0 4.71238898038469 10 6.28318530717959 0 4.88692190558412 0 5.06145483078356 0 5.23598775598299 0 5.41052068118242 0 5.58505360638186 0 5.75958653158129 0 5.93411945678073 0 6.10865238198016 0 6.28318530717959 10 4.88692190558412 10 5.06145483078356 10 5.23598775598299 10 5.41052068118242 10 5.58505360638186 10 5.75958653158129 10 5.93411945678073 10 6.10865238198016 10 13 2 1 13 1 4 14 4 5 14 13 4 15 5 6 15 14 5 16 6 7 16 15 6 17 7 8 17 16 7 18 8 9 18 17 8 19 9 10 19 18 9 20 10 11 20 19 10 12 11 3 12 20 11 
20 19 1 2.44921270764476e-16
-3.67381906146713e-16 -2 10 1.22460635382238e-16 2 10 2 -4.89842541528951e-16 10 1.96961550602442 0.347296355333861 10 1.87938524157182 0.684040286651339 10 1.73205080756888 1 10 1.53208888623795 1.28557521937308 10 1.28557521937308 1.53208888623796 10 0.999999999999996 1.73205080756888 10 0.684040286651332 1.87938524157182 10 0.347296355333854 1.96961550602442 10 0.347296355333862 -1.96961550602442 10 0.68404028665134 -1.87938524157182 10 1 -1.73205080756888 10 1.28557521937308 -1.53208888623795 10 1.53208888623796 -1.28557521937307 10 1.73205080756888 -0.999999999999993 10 1.87938524157182 -0.684040286651329 10 1.96961550602442 -0.34729635533385 10 1 0 10 0 -2 0 2 2 0 1.96961550602442 0.347296355333861 1.87938524157182 0.684040286651339 1.73205080756888 1 1.53208888623795 1.28557521937308 1.28557521937308 1.53208888623796 0.999999999999996 1.73205080756888 0.684040286651332 1.87938524157182 0.347296355333854 1.96961550602442 0.347296355333862 -1.96961550602442 0.68404028665134 -1.87938524157182 1 -1.73205080756888 1.28557521937308 -1.53208888623795 1.53208888623796 -1.28557521937307 1.73205080756888 -0.999999999999993 1.87938524157182 -0.684040286651329 1.96961550602442 -0.34729635533385 1 0 20 2 1 20 3 4 20 4 5 20 5 6 20 6 7 20 7 8 20 8 9 20 9 10 20 10 11 20 11 2 20 1 12 20 12 13 20 13 14 20 14 15 20 15 16 20 16 17 20 17 18 20 18 19 20 19 3 
21 21 1 2.44921270764476e-16
-3.67381906146713e-16 -2 10 1.22460635382238e-16 2 10 1.73205080756888 1 10 1.53208888623796 1.28557521937308 10 1.28557521937308 1.53208888623796 10 0.999999999999997 1.73205080756888 10 0.684040286651333 1.87938524157182 10 0.347296355333855 1.96961550602442 10 2 -4.89842541528951e-16 10 1.96961550602442 0.347296355333861 10 1.87938524157182 0.684040286651337 10 0.347296355333862 -1.96961550602442 10 0.68404028665134 -1.87938524157182 10 1 -1.73205080756888 10 1.28557521937308 -1.53208888623795 10 1.53208888623796 -1.28557521937307 10 1.73205080756888 -0.999999999999993 10 1.87938524157182 -0.684040286651329 10 1.96961550602442 -0.34729635533385 10 1 1 10 1 0 10 0 -2 0 2 1.73205080756888 1 1.53208888623796 1.28557521937308 1.28557521937308 1.53208888623796 0.999999999999997 1.73205080756888 0.684040286651333 1.87938524157182 0.347296355333855 1.96961550602442 2 0 1.96961550602442 0.347296355333861 1.87938524157182 0.684040286651337 0.347296355333862 -1.96961550602442 0.68404028665134 -1.87938524157182 1 -1.73205080756888 1.28557521937308 -1.53208888623795 1.53208888623796 -1.28557521937307 1.73205080756888 -0.999999999999993 1.87938524157182 -0.684040286651329 1.96961550602442 -0.34729635533385 1 1 1 0 8 2 20 7 8 20 6 7 20 3 20 11 5 6 20 4 20 3 4 5 20 21 2 1 21 9 10 21 10 11 21 1 12 21 12 13 21 13 14 21 14 15 21 15 16 21 16 17 21 17 18 21 18 19 21 19 9 21 20 2 21 11 20 
15 13 1 1.11022302462516e-16
1 1.11022302462516e-16 10 2 -4.89842541528951e-16 10 -3.67381906146713e-16 -2 10 0.347296355333862 -1.96961550602442 10 0.68404028665134 -1.87938524157182 10 1 -1.73205080756888 10 1.28557521937308 -1.53208888623795 10 1.53208888623796 -1.28557521937307 10 1.73205080756888 -0.999999999999993 10 1.87938524157182 -0.684040286651329 10 1.96961550602442 -0.34729635533385 10 1.22460635382238e-16 2 10 1 1.73205080756888 10 0.684040286651336 1.87938524157182 10 0.347296355333856 1.96961550602442 10 1 0 2 0 -3.67381906146713e-16 -2 0.347296355333862 -1.96961550602442 0.68404028665134 -1.87938524157182 1 -1.73205080756888 1.28557521937308 -1.53208888623795 1.53208888623796 -1.28557521937307 1.73205080756888 -0.999999999999993 1.87938524157182 -0.684040286651329 1.96961550602442 -0.34729635533385 0 2 1 1.73205080756888 0.684040286651336 1.87938524157182 0.347296355333856 1.96961550602442 1 3 4 1 4 5 1 5 6 1 6 7 1 7 8 1 8 9 10 1 9 11 1 10 12 3 1 2 1 11 15 12 1 14 15 1 13 14 1 
20 18 1 0.00761060381650915
2 -4.89842541528951e-16 0 1.22460635382238e-16 2 0 1.96961550602442 0.347296355333861 0 1.87938524157182 0.684040286651339 0 1.73205080756888 1 0 1.53208888623795 1.28557521937308 0 1.28557521937308 1.53208888623796 0 0.999999999999996 1.73205080756888 0 0.684040286651332 1.87938524157182 0 0.347296355333854 1.96961550602442 0 2 -4.89842541528951e-16 10 1.22460635382238e-16 2 10 1.96961550602442 0.347296355333861 10 1.87938524157182 0.684040286651339 10 1.73205080756888 1 10 1.53208888623795 1.28557521937308 10 1.28557521937308 1.53208888623796 10 0.999999999999996 1.73205080756888 10 0.684040286651332 1.87938524157182 10 0.347296355333854 1.96961550602442 10 0 0 1.5707963267949 0 0.174532925199433 0 0.349065850398867 0 0.5235987755983 0 0.698131700797733 0 0.872664625997167 0 1.0471975511966 0 1.22173047639603 0 1.39626340159547 0 0 10 1.5707963267949 10 0.174532925199433 10 0.349065850398867 10 0.5235987755983 10 0.698131700797733 10 0.872664625997167 10 1.0471975511966 10 1.22173047639603 10 1.39626340159547 10 13 1 3 13 11 1 14 3 4 14 13 3 15 4 5 15 14 4 16 5 6 16 15 5 17 6 7 17 7 8 17 16 6 18 17 8 19 8 9 19 18 8 20 9 10 20 19 9 12 10 2 12 20 10 
35 33 1 0.00761060381650912
1 1.73205080756888 9.68125003863321 1.73205080756888 1 10 1.24356077504528 1.56638328433057 9.82414196047073 1.44411313553921 1.38366804318938 9.92347108067014 1.59184799648933 1.2107931090258 9.97753069361392 1.22460635382238e-16 2 10 1.53208888623796 1.28557521937308 10 1.28557521937308 1.53208888623796 10 0.999999999999997 1.73205080756888 10 0.684040286651333 1.87938524157182 10 0.347296355333855 1.96961550602442 10 1.22460635382238e-16 2 0 2 -4.89842541528951e-16 0 1.96961550602442 0.347296355333861 0 1.87938524157182 0.684040286651339 0 1.73205080756888 1 0 1.53208888623795 1.28557521937308 0 1.28557521937308 1.53208888623796 0 0.999999999999996 1.73205080756888 0 0.684040286651332 1.87938524157182 0 0.347296355333854 1.96961550602442 0 2 -4.89842541528951e-16 9 1.73205080756888 1 8 1.99987409110094 0.0224418334324644 8.78933432184124 1.99801638802384 0.0890533997184125 8.58747570976523 1.99042099726536 0.195510204635373 8.40603353089891 1.97234241951612 0.331459469911709 8.25632429135014 1.94188583642251 0.478622404008537 8.14667391873539 1.8880088194413 0.65986564624576 8.05962314131714 1.8136457281387 0.843023823297785 8.01239760885774 1 1.73205080756888 8.31874996136679 1.59979017704133 1.20027971251923 8.02026124258194 1.43224799832147 1.3959461567654 8.08172626942327 1.23718150592219 1.57142671786896 8.17934689877746 1.1180670165784 1.65829012972423 8.24723568687829 1.0471975511966 9.68125003863321 0.523598782972604 10 0.899782422184016 9.82414196047073 0.764025969170863 9.92347108067014 0.650264004823151 9.97753069361392 1.5707963267949 10 0.698131700797732 10 0.872664625997166 10 1.0471975511966 10 1.22173047639603 10 1.39626340159547 10 1.5707963267949 0 0 0 0.174532925199433 0 0.349065850398867 0 0.5235987755983 0 0.698131700797733 0 0.872664625997167 0 1.0471975511966 0 1.22173047639603 0 1.39626340159547 0 0 9 0.523598775598299 8 0.0112211491236271 8.78933432184124 0.0445414271711193 8.58747570976523 0.097911470294066 8.40603353089891 0.166497933186523 8.25632429135014 0.241656377503374 8.14667391873539 0.336232412997137 8.05962314131714 0.43511193781139 8.01239760885774 1.0471975511966 8.31874996136679 0.643675940617773 8.02026124258194 0.772563171913424 8.08172626942327 0.903848483101006 8.17934689877746 0.977576635015398 8.24723568687829 24 22 13 25 24 13 26 13 14 26 25 13 27 26 14 28 14 15 28 27 14 29 28 15 30 15 16 30 29 15 23 30 16 32 16 17 32 23 16 33 17 18 33 32 17 34 33 18 35 18 19 35 34 18 31 19 20 31 35 19 9 8 3 10 1 31 10 31 20 10 9 1 11 20 21 11 21 12 11 10 20 6 11 12 3 1 9 4 3 8 5 4 7 7 2 5 8 7 4 
29 27 1 0.00761060381650913
2 -4.89842541528951e-16 10 1.73205080756888 1 9 1.99987523624578 0.0223395520067707 9.7898095021718 1.99803417695096 0.0886533829575376 9.58836017903088 1.99050385798473 0.194664783921575 9.40718030809096 1.97256498027803 0.330132395829614 9.25751943260492 1.94229666432695 0.476952487440466 9.14769647533098 1.88865543996888 0.658012615446287 9.06029544857059 1.81426002823504 0.841700981685414 9.01260877850726 1.77383037868552 0.923864596988277 9.00290251315512 1 1.73205080756888 9.31874996136679 1.60010509669307 1.19985985780586 9.02017550896718 1.43295112634321 1.39522438012761 9.08141538606319 1.23846065134292 1.5704188051504 9.17864599995806 1.11870047211312 1.65786285964092 9.24686225446853 1 1.73205080756888 10 1.22460635382238e-16 2 10 0.684040286651336 1.87938524157182 10 0.347296355333856 1.96961550602442 10 1.22460635382238e-16 2 0 2 -4.89842541528951e-16 0 1.96961550602442 0.347296355333861 0 1.87938524157182 0.684040286651339 0 1.73205080756888 1 0 1.53208888623795 1.28557521937308 0 1.28557521937308 1.53208888623796 0 0.999999999999996 1.73205080756888 0 0.684040286651332 1.87938524157182 0 0.347296355333854 1.96961550602442 0 0 10 0.523598775598299 9 0.0111700052064358 9.7898095021718 0.0443412211608221 9.58836017903088 0.0974867344254273 9.40718030809096 0.165825129516517 9.25751943260492 0.240796522712668 9.14769647533098 0.335251107531939 9.06029544857059 0.434382678786069 9.01260877850726 0.480172638742751 9.00290251315512 1.0471975511966 9.31874996136679 0.643413522835291 9.02017550896718 0.772059348897633 9.08141538606319 0.903034219457019 9.17864599995806 0.977194592584853 9.24686225446853 1.0471975511966 10 1.5707963267949 10 1.22173047639603 10 1.39626340159547 10 1.5707963267949 0 0 0 0.174532925199433 0 0.349065850398867 0 0.5235987755983 0 0.698131700797733 0 0.872664625997167 0 1.0471975511966 0 1.22173047639603 0 1.39626340159547 0 3 1 21 4 3 21 5 21 22 5 4 21 6 5 22 7 22 23 7 6 22 8 7 23 9 23 24 9 8 23 10 9 24 2 10 24 12 24 25 12 2 24 13 25 26 13 12 25 14 13 26 15 26 27 15 14 26 11 27 28 11 15 27 18 16 11 18 11 28 19 28 29 19 29 20 19 18 28 17 19 20 
20 19 1 2.44921270764476e-16
-3.67381906146713e-16 -2 0 1.22460635382238e-16 2 0 2 -4.89842541528951e-16 0 1.96961550602442 0.347296355333861 0 1.87938524157182 0.684040286651339 0 1.73205080756888 1 0 1.53208888623795 1.28557521937308 0 1.28557521937308 1.53208888623796 0 0.999999999999996 1.73205080756888 0 0.684040286651332 1.87938524157182 0 0.347296355333854 1.96961550602442 0 0.347296355333862 -1.96961550602442 0 0.68404028665134 -1.87938524157182 0 1 -1.73205080756888 0 1.28557521937308 -1.53208888623795 0 1.53208888623796 -1.28557521937307 0 1.73205080756888 -0.999999999999993 0 1.87938524157182 -0.684040286651329 0 1.96961550602442 -0.34729635533385 0 1 0 0 0 -2 0 2 2 0 1.96961550602442 0.347296355333861 1.87938524157182 0.684040286651339 1.73205080756888 1 1.53208888623795 1.28557521937308 1.28557521937308 1.53208888623796 0.999999999999996 1.73205080756888 0.684040286651332 1.87938524157182 0.347296355333854 1.96961550602442 0.347296355333862 -1.96961550602442 0.68404028665134 -1.87938524157182 1 -1.73205080756888 1.28557521937308 -1.53208888623795 1.53208888623796 -1.28557521937307 1.73205080756888 -0.999999999999993 1.87938524157182 -0.684040286651329 1.96961550602442 -0.34729635533385 1 0 20 2 1 20 3 4 20 4 5 20 5 6 20 6 7 20 7 8 20 8 9 20 9 10 20 10 11 20 11 2 20 1 12 20 12 13 20 13 14 20 14 15 20 15 16 20 16 17 20 17 18 20 18 19 20 19 3 
17 15 1 0.00642942848935936
1 1.11022302462516e-16 10 2 -4.89842541528951e-16 10 1.73205080756888 1 9 1.99987523624578 0.0223395520067707 9.7898095021718 1.99803417695096 0.0886533829575376 9.58836017903088 1.99050385798473 0.194664783921575 9.40718030809096 1.97256498027803 0.330132395829614 9.25751943260492 1.94229666432695 0.476952487440466 9.14769647533098 1.88865543996888 0.658012615446287 9.06029544857059 1.81426002823504 0.841700981685414 9.01260877850726 1.77383037868552 0.923864596988277 9.00290251315512 1 1 9 1 0.0340741737109315 9.74118095489748 1 0.133974596215561 9.5 1 0.292893218813452 9.29289321881345 1 0.499999999999999 9.13397459621556 1 0.741180954897478 9.03407417371093 4.71238898038469 0 4.71238898038469 1 6.28318530717959 0.732050807568877 4.92415877379089 0.999875236245783 5.13664165470711 0.998034176950957 5.34694460317156 0.990503857984729 5.54915484954815 0.972564980278033 5.73276264134943 0.94229666432695 5.93415433408826 0.888655439968882 6.12421759997208 0.814260028235043 6.20697615425511 0.773830378685517 6.28318530717959 0 4.97418836818384 0 5.23598775598299 0 5.49778714378214 0 5.75958653158129 0 6.02138591938044 0 4 2 1 4 1 13 5 13 14 5 4 13 6 14 15 6 5 14 7 15 16 7 6 15 8 7 16 9 16 17 9 8 16 10 9 17 11 17 12 11 10 17 3 11 12 
12 11 1 8.40036148998055e-16
1 1.11022302462516e-16 10 1 1.73205080756888 10 1 1.73205080756888 9.31874996136679 1 1 9 1 1.27036855254164 9.03724310140278 1 1.52059837824641 9.14619830840692 1 0.0340741737109315 9.74118095489748 1 0.133974596215561 9.5 1 0.292893218813452 9.29289321881345 1 0.499999999999999 9.13397459621556 1 0.741180954897478 9.03407417371093 1 0.866025403784439 9.5 0 -1 0 0.732050807568877 0.681250038633213 0.732050807568876 1 0 0.962756898597222 0.270368552541635 0.853801691593082 0.520598378246409 0.25881904510252 -0.965925826289068 0.499999999999999 -0.866025403784439 0.707106781186547 -0.707106781186548 0.866025403784438 -0.500000000000001 0.965925826289068 -0.258819045102522 0.5 -0.133974596215561 12 2 1 12 3 2 12 4 5 12 5 6 12 6 3 12 1 7 12 7 8 12 8 9 12 9 10 12 10 11 12 11 4 
9 7 1 0.00669540423217571
1 1 9 1 1.73205080756888 9.31874996136679 1 1.27036855254164 9.03724310140278 1 1.52059837824641 9.14619830840692 1.73205080756888 1 9 1.60010509669307 1.19985985780586 9.02017550896718 1.43295112634321 1.39522438012761 9.08141538606319 1.23846065134292 1.5704188051504 9.17864599995806 1.11870047211312 1.65786285964092 9.24686225446853 0 0 0.821327461377416 0 0.273775820459139 0 0.547551640918278 0 0 0.732050807568877 0.201214889466525 0.600105096693067 0.40631210662822 0.432951126343211 0.607015660564445 0.238460651342922 0.717977582097307 0.11870047211312 6 1 3 6 5 1 7 3 4 7 6 3 8 7 4 9 8 4 2 9 4 

TShapes 48
Ve
2.00001e-07
-3.67381906146713e-16 -2 0
0 0

0101101
*
Ve
2.00001e-07
-3.67381906146713e-16 -2 10
0 0

0101101
*
Ed
 1e-07 1 1 0
1  1 0 0 10
2  1 2 4 0 10
2  2 1 3 0 10
6  1 2 0
6  2 1 0
6  3 3 5
6  4 4 5
0

0101000
+48 5 -47 5 *
Ve
2.00001e-07
1.22460635382238e-16 2 10
0 0

0101101
*
Ed
 1e-07 1 1 0
1  2 0 0.5 4.5
2  3 1 3 0.5 4.5
2  4 3 4 0.5 4.5
6  5 1 0
6  6 5 0
6  7 6 5
6  8 7 5
0

0101000
+47 5 -45 5 *
Ve
2.00001e-07
1.22460635382238e-16 2 0
0 0

0101101
*
Ed
 1e-07 1 1 0
1  3 0 0 10
2  5 1 3 0 10
2  6 4 4 0 10
6  9 8 0
6  10 1 0
6  11 9 5
6  12 10 5
0

0101000
+43 5 -45 5 *
Ed
 1e-07 1 1 0
1  4 0 0.5 4.5
2  7 1 3 0.5 4.5
2  8 5 4 0.5 4.5
6  13 1 0
6  14 11 0
0

0101000
+48 5 -43 5 *
Wi

0101000
-46 0 -44 0 +42 0 +41 0 *
Fa
0  1e-07 1 3
2  1
0111000
+40 0 *
Ve
1e-07
2 -4.89842541528951e-16 0
0 0

0101101
*
Ed
 1e-07 1 1 0
1  5 0 4.71238898038469 6.28318530717959
2  9 2 0 4.71238898038469 6.28318530717959
2  10 5 0 4.71238898038469 6.28318530717959
6  15 2 7
6  16 11 7
6  17 3 8
6  18 4 8
0

0101000
+48 8 -38 8 *
Ve
3.00000999953116e-07
2 -4.89842541528951e-16 10
0 0

0101101
*
Ed
 1e-07 1 1 0
1  6 0 4.71238898038469 6.28318530717959
2  11 2 0 4.71238898038469 6.28318530717959
2  12 3 0 4.71238898038469 6.28318530717959
6  19 2 7
6  20 5 7
6  21 3 8
6  22 6 8
6  23 4 8
6  24 7 8
0

0101000
+47 8 -36 8 *
Ed
 1e-07 1 1 0
1  7 0 0 10
2  13 2 0 0 10
2  14 4 0 0 10
4 CN 2 0 4 0
6  25 2 7
6  26 8 7
6  27 4 8
6  28 10 8
0

0101000
-36 8 +38 8 *
Wi

0101000
-46 2 +37 6 -35 6 +34 6 *
Fa
0  1e-07 2 6
2  4
0101000
+33 0 *
Ve
2.00001e-07
1 1.11022302462516e-16 10
0 0

0101101
*
Ed
 1e-07 1 1 0
1  8 0 0 1
2  15 3 6 0 1
2  16 6 9 0 1
6  29 12 0
6  30 7 0
0

0101000
+31 0 -36 0 *
Ve
2.00001e-07
1 1.73205080756888 10
0 0

0101101
*
Ed
 1e-07 1 1 0
1  9 0 1.0471975511966 1.5707963267949
2  17 3 0 1.0471975511966 1.5707963267949
2  18 4 0 1.0471975511966 1.5707963267949
6  31 10 8
6  32 7 8
0

0101000
+29 8 -45 8 *
Ed
 1e-07 1 1 0
1  10 0 -0.5 1.23205080756888
2  19 3 6 -0.5 1.23205080756888
2  20 7 9 -0.5 1.23205080756888
6  33 7 0
6  34 13 0
0

0101000
+31 0 -29 0 *
Wi

0101000
-30 0 +35 6 -44 2 +28 6 +27 0 *
Fa
0  1e-07 3 6
2  7
0101000
+26 0 *
Ve
2.00001e-07
1.73205080756888 1 9
0 0

0101101
*
Ed
 1e-07 1 1 0
1  11 0 0 1
2  21 4 6 0 1
2  22 6 9 0 1
6  35 10 0
6  36 12 0
0

0101000
+36 0 -24 0 *
Ve
2.00001e-07
1 1.73205080756888 9.31874996136679
0 0

0101101
*
Ed
 1e-07 1 1 0
1  12 0 0 1
2  23 4 6 0 1
2  24 6 9 0 1
6  37 10 0
6  38 14 0
0

0101000
+24 0 -22 0 *
Ed
 1e-07 1 1 0
1  13 0 9.31874996136679 10
2  25 4 6 9.31874996136679 10
2  26 7 9 9.31874996136679 10
6  39 10 0
6  40 13 0
0

0101000
+22 0 -29 0 *
Ed
 1e-07 1 1 0
1  14 0 0 1.5707963267949
2  27 4 0 0 1.5707963267949
2  28 5 0 0 1.5707963267949
6  41 8 7
6  42 11 7
6  43 9 8
6  44 10 8
0

0101000
+38 8 -43 8 *
Wi

0101000
-23 0 -21 0 -20 0 -28 6 +42 2 +19 6 -34 6 *
Fa
0  1e-07 4 6
2  10
0101000
+18 0 *
Wi

0101000
-41 0 +19 4 +37 4 *
Fa
0  1e-07 5 4
2  11
0111000
+16 0 *
Ve
1e-07
1 -2.44921270764475e-16 0
0 0

0101101
*
Ed
 1e-07 1 1 0
1  15 0 0 0.732050807568877
3  29 30CN 6 0 0 0.732050807568877
6  45 12 10
6  46 14 10
0

0101000
+14 0 -24 10 *
Ed
 1e-07 1 1 0
1  16 0 4.71238898038469 6.28318530717959
2  31 6 0 4.71238898038469 6.28318530717959
2  32 7 0 4.71238898038469 6.28318530717959
6  47 12 10
6  48 13 10
0

0101000
+31 10 -14 0 *
Wi

0101000
-30 0 -23 0 +13 9 +12 9 *
Fa
0  1e-07 6 9
2  12
0101000
+11 0 *
Ed
 1e-07 1 1 0
1  16 0 0 0.821327461377416
2  31 6 0 0 0.821327461377416
2  32 7 0 0 0.821327461377416
6  49 14 10
6  50 13 10
0

0101000
+14 0 -22 10 *
Wi

0101000
-27 0 +20 0 +9 9 +12 9 *
Fa
0  1e-07 7 9
2  13
0101000
+8 0 *
Wi

0101000
+9 9 -13 9 -21 0 *
Fa
0  1e-07 6 9
2  14
0101000
+6 0 *
Sh

0101000
-39 2 +32 0 +25 0 +17 0 -15 2 -10 0 +7 0 -5 0 *
So

0100000
+4 0 *
Co

0100000
+3 0 *
Co

1100000
+2 1 *

+1 0 