DBRep_DrawableShape

CASCADE Topology V1, (c) Matra-Datavision
Locations 10
1
              1               0               0               0 
              0               1               0               0 
              0               0               1               0 
1
              1               0               0               0 
              0               1               0               0 
              0               0               1               0 
1
              1               0               0             -10 
              0               1               0              -5 
              0               0               1              -2 
1
              1               0               0               0 
              0               1               0               0 
              0               0               1               0 
2  2 -1 0
2  4 1 2 1 0
1
              1               0               0               1 
              0               1               0              -1 
              0               0               1               3 
2  2 -1 4 -1 0
2  4 -1 0
2  7 -1 0
Curve2ds 42
8 0 10
1 4.7123889803846897 0 0 1 
8 0 10
1 2 -3 1 0 
8 0.35316954888546093 4.6468304511145391
1 0 -2.5 0 1 
8 0.35316954888546093 4.6468304511145391
1 12 -2.5 0 -1 
8 0 10
1 1.5707963267948966 0 0 1 
8 0 10
1 2 -7 1 0 
8 0.35316954888546093 4.6468304511145391
1 0 -2.5 0 1 
8 0.35316954888546093 4.6468304511145391
1 2 -2.5 0 -1 
1 4.7123889803846897 3 1 0 
2 -1 1 0 -1 1 0 2
1 6.2831853071795862 -0 0 1 
1 0 -0 0 1 
1 0 0 1 0 
2 0 0 1 0 -0 1 2
1 0 10 1 0 
2 0 0 1 0 -0 1 2
1 4.7123889803846897 6 1 0 
2 -1 1 0 -1 1 0 2
8 2.7000000000000002 6.2999999999999998
1 5.7595865315812871 0 0 1 
8 2.7000000000000002 6.2999999999999998
1 -3 0.73205080756887719 1 0 
8 2.7000000000000002 6.2999999999999998
1 0.52359877559829893 0 0 1 
8 2.7000000000000002 6.2999999999999998
1 -3 0.73205080756887719 1 0 
1 -1.5707963267948966 6 1 0 
2 -1 1 0 -1 1 0 2
1 -1.5707963267948966 3 1 0 
2 -1 1 0 -1 1 0 2
1 0 0 0 1 
1 0 0 1 0 
1 0 0 0 -1 
1 0 0 0 1 
1 0 0 0 1 
1 0 2 1 0 
1 3 0 0 1 
1 0 0 1 0 
1 3 0 0 -1 
1 0 0 0 1 
1 3 0 0 1 
1 0 2 1 0 
1 0 0 1 0 
1 0 0 1 0 
1 0 -2 1 0 
1 0 0 1 0 
Curves 21
1 0 -2 0 0 0 1 
1 0 -2.5 10 0 1 0 
1 0 2 0 0 0 1 
1 0 -2.5 0 0 1 0 
2 0 0 3 0 0 1 0 -1 0 1 0 -0 2
1 2 -4.898425415289509e-16 0 0 0 1 
2 0 0 0 0 0 1 1 0 -0 -0 1 0 2
2 0 0 10 0 0 1 1 0 -0 -0 1 0 2
2 0 0 6 0 0 1 0 -1 0 1 0 -0 2
1 1.7320508075688772 -1 0 0 0 1 
1 1.7320508075688772 1 0 0 0 1 
2 0 0 6 0 0 1 0 -1 0 1 0 -0 2
2 0 0 3 0 0 1 0 -1 0 1 0 -0 2
1 0 0 0 1 0 -0 
1 0 0 0 -0 1 0 
1 0 2 0 1 0 -0 
1 0 0 3 1 0 -0 
1 0 0 3 -0 1 0 
1 0 2 3 1 0 -0 
1 0 0 0 0 0 1 
1 0 2 0 0 0 1 
Polygon3D 0
PolygonOnTriangulations 58
2 1 2 
p 0.0137452943347953 1 0 10 
2 1 2 
p 0.0137452943347953 1 0 10 
2 6 15 
p 0.0137452943347953 1 0 10 
2 2 3 
p 0.0137452943347953 1 0.5 4.5 
2 1 2 
p 0.0137452943347953 1 0.5 4.5 
2 2 12 
p 0.0137452943347953 1 0 10 
2 4 3 
p 0.0137452943347953 1 0 10 
2 16 7 
p 0.0137452943347953 1 0 10 
2 1 4 
p 0.0137452943347953 1 0.5 4.5 
2 1 2 
p 0.0137452943347953 1 0.5 4.5 
4 1 3 4 2 
p 0.0137452943347953 1 1.0471975511966 1.22173047639603 1.39626340159546 1.5707963267949 
4 2 8 9 5 
p 0.0137452943347953 1 1.0471975511966 1.22173047639603 1.39626340159546 1.5707963267949 
2 5 2 
p 0.0137452943347953 1 0 3 
2 17 26 
p 0.0137452943347953 1 0 3 
10 1 13 14 15 16 17 18 19 20 12 
p 0.0137452943347953 1 4.71238898038469 4.88692190558412 5.06145483078356 5.23598775598299 5.41052068118242 5.58505360638185 5.75958653158129 5.93411945678072 6.10865238198015 6.28318530717959 
10 1 12 13 14 15 16 17 18 19 3 
p 0.0137452943347953 1 4.71238898038469 4.88692190558412 5.06145483078356 5.23598775598299 5.41052068118242 5.58505360638185 5.75958653158129 5.93411945678072 6.10865238198015 6.28318530717959 
10 6 7 8 9 10 11 12 13 14 5 
p 0.0137452943347953 1 4.71238898038469 4.88692190558412 5.06145483078356 5.23598775598299 5.41052068118242 5.58505360638185 5.75958653158129 5.93411945678072 6.10865238198015 6.28318530717959 
10 2 4 5 6 7 8 9 10 11 3 
p 0.0137452943347953 1 4.71238898038469 4.88692190558412 5.06145483078356 5.23598775598299 5.41052068118242 5.58505360638185 5.75958653158129 5.93411945678072 6.10865238198015 6.28318530717959 
10 1 12 13 14 15 16 17 18 19 3 
p 0.0137452943347953 1 4.71238898038469 4.88692190558412 5.06145483078356 5.23598775598299 5.41052068118242 5.58505360638185 5.75958653158129 5.93411945678072 6.10865238198015 6.28318530717959 
10 15 17 18 19 20 21 22 23 24 16 
p 0.0137452943347953 1 4.71238898038469 4.88692190558412 5.06145483078356 5.23598775598299 5.41052068118242 5.58505360638185 5.75958653158129 5.93411945678072 6.10865238198015 6.28318530717959 
2 25 16 
p 0.0137452943347953 1 6 10 
2 3 6 
p 0.0137452943347953 1 6 10 
4 26 27 28 25 
p 0.0137452943347953 1 1.0471975511966 1.22173047639603 1.39626340159546 1.5707963267949 
4 2 8 9 5 
p 0.0137452943347953 1 1.0471975511966 1.22173047639603 1.39626340159546 1.5707963267949 
2 1 26 
p 0.0137452943347953 1 3 6 
2 1 2 
p 0.0137452943347953 1 3 6 
10 11 13 14 15 16 17 18 19 20 12 
p 0.0137452943347953 1 0 0.174532925199433 0.349065850398866 0.523598775598299 0.698131700797732 0.872664625997165 1.0471975511966 1.22173047639603 1.39626340159546 1.5707963267949 
10 3 4 5 6 7 8 9 10 11 2 
p 0.0137452943347953 1 0 0.174532925199433 0.349065850398866 0.523598775598299 0.698131700797732 0.872664625997165 1.0471975511966 1.22173047639603 1.39626340159546 1.5707963267949 
10 6 8 9 10 11 12 13 14 15 7 
p 0.0137452943347953 1 0 0.174532925199433 0.349065850398866 0.523598775598299 0.698131700797732 0.872664625997165 1.0471975511966 1.22173047639603 1.39626340159546 1.5707963267949 
2 1 2 
p 0.0137452943347953 1 3 6 
2 1 2 
p 0.0137452943347953 1 3 6 
4 3 4 5 2 
p 0.0137452943347953 1 1.5707963267949 1.74532925199433 1.91986217719376 2.0943951023932 
4 5 6 7 4 
p 0.0137452943347953 1 1.5707963267949 1.74532925199433 1.91986217719376 2.0943951023932 
10 1 3 4 5 6 7 8 9 10 2 
p 0.0137452943347953 1 0 0.174532925199433 0.349065850398866 0.523598775598299 0.698131700797732 0.872664625997165 1.0471975511966 1.22173047639603 1.39626340159546 1.5707963267949 
10 3 4 5 6 7 8 9 10 11 2 
p 0.0137452943347953 1 0 0.174532925199433 0.349065850398866 0.523598775598299 0.698131700797732 0.872664625997165 1.0471975511966 1.22173047639603 1.39626340159546 1.5707963267949 
10 17 18 19 20 21 22 23 24 25 16 
p 0.0137452943347953 1 0 0.174532925199433 0.349065850398866 0.523598775598299 0.698131700797732 0.872664625997165 1.0471975511966 1.22173047639603 1.39626340159546 1.5707963267949 
4 26 27 28 1 
p 0.0137452943347953 1 1.5707963267949 1.74532925199433 1.91986217719376 2.0943951023932 
4 5 6 7 4 
p 0.0137452943347953 1 1.5707963267949 1.74532925199433 1.91986217719376 2.0943951023932 
2 1 2 
p 0.0137452943347953 1 0 0.732050807568877 
2 4 1 
p 0.0137452943347953 1 0 0.732050807568877 
2 1 4 
p 0.00833333333333333 1 0 2 
2 1 2 
p 0.00833333333333333 1 0 2 
2 1 3 
p 0.0137452943347953 1 0 2 
2 3 4 
p 0.0137452943347953 1 0 0.732050807568877 
2 4 1 
p 0.0137452943347953 1 0 0.732050807568877 
2 1 2 
p 0.0137452943347953 1 0 0.732050807568877 
2 3 2 
p 0.0137452943347953 1 0 0.732050807568877 
2 2 3 
p 0.00833333333333333 1 0 2 
2 1 2 
p 0.00833333333333333 1 0 2 
2 1 3 
p 0.0137452943347953 1 0 2 
2 3 4 
p 0.0137452943347953 1 0 0.732050807568877 
2 3 2 
p 0.0137452943347953 1 0 0.732050807568877 
2 1 2 
p 0.00833333333333333 1 0 3 
2 1 4 
p 0.00833333333333333 1 0 3 
2 4 3 
p 0.0137452943347953 1 0 3 
2 4 3 
p 0.00833333333333333 1 0 3 
2 1 4 
p 0.00833333333333333 1 0 3 
2 4 3 
p 0.0137452943347953 1 0 3 
Surfaces 9
1 10 0 0 1 0 -0 0 0 1 0 -1 0 
2 0 0 0 0 0 1 1 0 -0 -0 1 0 2
1 0 0 10 0 0 1 1 0 -0 -0 1 0 
1 0 0 0 0 0 1 1 0 -0 -0 1 0 
1 0 0 0 0 0 1 1 0 -0 -0 1 0 
1 0 0 3 0 0 1 1 0 -0 -0 1 0 
1 0 0 0 -0 1 0 0 0 1 1 0 -0 
1 0 2 0 -0 1 0 0 0 1 1 0 -0 
1 0 0 0 1 0 -0 0 0 1 0 -1 0 
Triangulations 16
4 2 1 2.5357526258398e-16
-3.67381906146713e-16 -2 0 -3.67381906146713e-16 -2 10 1.22460635382238e-16 2 10 1.22460635382238e-16 2 0 2 -3 12 -3 12 -7 2 -7 2 4 3 2 1 4 
20 18 1 0.00761060381650905
-3.67381906146713e-16 -2 0 -3.67381906146713e-16 -2 10 2 -4.89842541528951e-16 10 0.34729635533386 -1.96961550602442 10 0.684040286651336 -1.87938524157182 10 0.999999999999999 -1.73205080756888 10 1.28557521937308 -1.53208888623796 10 1.53208888623795 -1.28557521937308 10 1.73205080756888 -1 10 1.87938524157182 -0.684040286651341 10 1.96961550602442 -0.347296355333864 10 2 -4.89842541528951e-16 0 0.34729635533386 -1.96961550602442 0 0.684040286651336 -1.87938524157182 0 0.999999999999999 -1.73205080756888 0 1.28557521937308 -1.53208888623796 0 1.53208888623795 -1.28557521937308 0 1.73205080756888 -1 0 1.87938524157182 -0.684040286651341 0 1.96961550602442 -0.347296355333864 0 4.71238898038469 0 4.71238898038469 10 6.28318530717959 10 4.88692190558412 10 5.06145483078356 10 5.23598775598299 10 5.41052068118242 10 5.58505360638185 10 5.75958653158129 10 5.93411945678072 10 6.10865238198015 10 6.28318530717959 0 4.88692190558412 0 5.06145483078356 0 5.23598775598299 0 5.41052068118242 0 5.58505360638185 0 5.75958653158129 0 5.93411945678072 0 6.10865238198015 0 2 1 13 4 13 14 4 2 13 5 4 14 6 14 15 6 5 14 7 15 16 7 16 17 7 6 15 8 7 17 9 17 18 9 8 17 10 18 19 10 19 20 10 9 18 11 10 20 3 20 12 3 11 20 
28 26 1 0.00761060381650908
1.73205080756888 -1 3 2 -4.89842541528951e-16 3 1.87938524157182 -0.684040286651338 3 1.96961550602442 -0.347296355333861 3 2 -4.89842541528951e-16 0 -3.67381906146713e-16 -2 0 0.34729635533386 -1.96961550602442 0 0.684040286651336 -1.87938524157182 0 0.999999999999999 -1.73205080756888 0 1.28557521937308 -1.53208888623796 0 1.53208888623795 -1.28557521937308 0 1.73205080756888 -1 0 1.87938524157182 -0.684040286651341 0 1.96961550602442 -0.347296355333864 0 -3.67381906146713e-16 -2 10 2 -4.89842541528951e-16 10 0.34729635533386 -1.96961550602442 10 0.684040286651336 -1.87938524157182 10 0.999999999999999 -1.73205080756888 10 1.28557521937308 -1.53208888623796 10 1.53208888623795 -1.28557521937308 10 1.73205080756888 -1 10 1.87938524157182 -0.684040286651341 10 1.96961550602442 -0.347296355333864 10 2 -4.89842541528951e-16 6 1.73205080756888 -1 6 1.87938524157182 -0.684040286651338 6 1.96961550602442 -0.347296355333861 6 5.75958653158129 3 6.28318530717959 3 5.93411945678072 3 6.10865238198015 3 6.28318530717959 0 4.71238898038469 0 4.88692190558412 0 5.06145483078356 0 5.23598775598299 0 5.41052068118242 0 5.58505360638185 0 5.75958653158129 0 5.93411945678072 0 6.10865238198015 0 4.71238898038469 10 6.28318530717959 10 4.88692190558412 10 5.06145483078356 10 5.23598775598299 10 5.41052068118242 10 5.58505360638185 10 5.75958653158129 10 5.93411945678072 10 6.10865238198015 10 6.28318530717959 6 5.75958653158129 6 5.93411945678072 6 6.10865238198015 6 15 6 7 17 7 8 17 15 7 18 17 8 19 8 9 19 18 8 20 9 10 20 10 11 20 19 9 21 20 11 1 11 12 26 11 1 26 21 11 13 1 12 22 21 26 3 1 13 14 3 13 23 26 27 23 22 26 4 3 14 5 4 14 24 27 28 24 23 27 2 4 5 16 28 25 16 24 28 
20 19 1 2.44921270764475e-16
-3.67381906146713e-16 -2 10 1.22460635382238e-16 2 10 2 -4.89842541528951e-16 10 1.96961550602442 0.347296355333861 10 1.87938524157182 0.684040286651337 10 1.73205080756888 1 10 1.53208888623796 1.28557521937308 10 1.28557521937308 1.53208888623796 10 1 1.73205080756888 10 0.684040286651338 1.87938524157182 10 0.347296355333861 1.96961550602442 10 0.34729635533386 -1.96961550602442 10 0.684040286651336 -1.87938524157182 10 0.999999999999999 -1.73205080756888 10 1.28557521937308 -1.53208888623796 10 1.53208888623795 -1.28557521937308 10 1.73205080756888 -1 10 1.87938524157182 -0.684040286651341 10 1.96961550602442 -0.347296355333864 10 1 0 10 0 -2 0 2 2 0 1.96961550602442 0.347296355333861 1.87938524157182 0.684040286651337 1.73205080756888 1 1.53208888623796 1.28557521937308 1.28557521937308 1.53208888623796 1 1.73205080756888 0.684040286651338 1.87938524157182 0.347296355333861 1.96961550602442 0.34729635533386 -1.96961550602442 0.684040286651336 -1.87938524157182 0.999999999999999 -1.73205080756888 1.28557521937308 -1.53208888623796 1.53208888623795 -1.28557521937308 1.73205080756888 -1 1.87938524157182 -0.68404028665134 1.96961550602442 -0.347296355333864 1 0 20 2 1 20 3 4 20 4 5 20 5 6 20 6 7 20 7 8 20 8 9 20 9 10 20 10 11 20 11 2 20 1 12 20 12 13 20 13 14 20 14 15 20 15 16 20 16 17 20 17 18 20 18 19 20 19 3 
20 18 1 0.00761060381650902
2 -4.89842541528951e-16 0 1.22460635382238e-16 2 0 1.96961550602442 0.347296355333861 0 1.87938524157182 0.684040286651337 0 1.73205080756888 1 0 1.53208888623796 1.28557521937308 0 1.28557521937308 1.53208888623796 0 1 1.73205080756888 0 0.684040286651338 1.87938524157182 0 0.347296355333861 1.96961550602442 0 2 -4.89842541528951e-16 10 1.22460635382238e-16 2 10 1.96961550602442 0.347296355333861 10 1.87938524157182 0.684040286651337 10 1.73205080756888 1 10 1.53208888623796 1.28557521937308 10 1.28557521937308 1.53208888623796 10 1 1.73205080756888 10 0.684040286651338 1.87938524157182 10 0.347296355333861 1.96961550602442 10 0 0 1.5707963267949 0 0.174532925199433 0 0.349065850398866 0 0.523598775598299 0 0.698131700797732 0 0.872664625997165 0 1.0471975511966 0 1.22173047639603 0 1.39626340159546 0 0 10 1.5707963267949 10 0.174532925199433 10 0.349065850398866 10 0.523598775598299 10 0.698131700797732 10 0.872664625997165 10 1.0471975511966 10 1.22173047639603 10 1.39626340159546 10 13 1 3 13 3 4 13 11 1 14 4 5 14 13 4 15 5 6 15 14 5 16 15 6 17 6 7 17 16 6 18 7 8 18 8 9 18 17 7 19 9 10 19 18 9 20 19 10 12 10 2 12 20 10 
28 26 1 0.00761060381650902
1.73205080756888 1 3 1.73205080756888 1 6 2 -4.89842541528951e-16 6 1.96961550602442 0.347296355333861 6 1.87938524157182 0.684040286651337 6 2 -4.89842541528951e-16 10 1.22460635382238e-16 2 10 1.96961550602442 0.347296355333861 10 1.87938524157182 0.684040286651337 10 1.73205080756888 1 10 1.53208888623796 1.28557521937308 10 1.28557521937308 1.53208888623796 10 1 1.73205080756888 10 0.684040286651338 1.87938524157182 10 0.347296355333861 1.96961550602442 10 1.22460635382238e-16 2 0 2 -4.89842541528951e-16 0 1.96961550602442 0.347296355333861 0 1.87938524157182 0.684040286651337 0 1.73205080756888 1 0 1.53208888623796 1.28557521937308 0 1.28557521937308 1.53208888623796 0 1 1.73205080756888 0 0.684040286651338 1.87938524157182 0 0.347296355333861 1.96961550602442 0 2 -4.89842541528951e-16 3 1.96961550602442 0.347296355333861 3 1.87938524157182 0.684040286651337 3 0.523598775598299 3 0.523598775598299 6 0 6 0.174532925199433 6 0.349065850398866 6 0 10 1.5707963267949 10 0.174532925199433 10 0.349065850398866 10 0.523598775598299 10 0.698131700797732 10 0.872664625997165 10 1.0471975511966 10 1.22173047639603 10 1.39626340159546 10 1.5707963267949 0 0 0 0.174532925199433 0 0.349065850398866 0 0.523598775598299 0 0.698131700797732 0 0.872664625997165 0 1.0471975511966 0 1.22173047639603 0 1.39626340159546 0 0 3 0.174532925199433 3 0.349065850398866 3 18 26 17 27 26 18 19 27 18 8 3 4 8 6 3 28 27 19 20 28 19 9 4 5 9 8 4 1 28 20 21 2 1 21 1 20 10 5 2 10 9 5 11 2 21 11 10 2 12 21 22 12 11 21 13 22 23 13 23 24 13 12 22 14 24 25 14 13 24 15 14 25 7 25 16 7 15 25 
20 19 1 2.44921270764475e-16
-3.67381906146713e-16 -2 0 1.22460635382238e-16 2 0 2 -4.89842541528951e-16 0 1.96961550602442 0.347296355333861 0 1.87938524157182 0.684040286651337 0 1.73205080756888 1 0 1.53208888623796 1.28557521937308 0 1.28557521937308 1.53208888623796 0 1 1.73205080756888 0 0.684040286651338 1.87938524157182 0 0.347296355333861 1.96961550602442 0 0.34729635533386 -1.96961550602442 0 0.684040286651336 -1.87938524157182 0 0.999999999999999 -1.73205080756888 0 1.28557521937308 -1.53208888623796 0 1.53208888623795 -1.28557521937308 0 1.73205080756888 -1 0 1.87938524157182 -0.684040286651341 0 1.96961550602442 -0.347296355333864 0 1 0 0 0 -2 0 2 2 0 1.96961550602442 0.347296355333861 1.87938524157182 0.684040286651337 1.73205080756888 1 1.53208888623796 1.28557521937308 1.28557521937308 1.53208888623796 1 1.73205080756888 0.684040286651338 1.87938524157182 0.347296355333861 1.96961550602442 0.34729635533386 -1.96961550602442 0.684040286651336 -1.87938524157182 0.999999999999999 -1.73205080756888 1.28557521937308 -1.53208888623796 1.53208888623795 -1.28557521937308 1.73205080756888 -1 1.87938524157182 -0.68404028665134 1.96961550602442 -0.347296355333864 1 0 20 2 1 20 3 4 20 4 5 20 5 6 20 6 7 20 7 8 20 8 9 20 9 10 20 10 11 20 11 2 20 1 12 20 12 13 20 13 14 20 14 15 20 15 16 20 16 17 20 17 18 20 18 19 20 19 3 
10 9 1 2.44921270764475e-16
1 -1 3 1.73205080756888 -1 3 1 1 3 1.73205080756888 1 3 2 -4.89842541528951e-16 3 1.96961550602442 0.347296355333861 3 1.87938524157182 0.684040286651337 3 1.87938524157182 -0.684040286651338 3 1.96961550602442 -0.347296355333861 3 1.5 0 3 0 0 0.732050807568877 0 0 2 0.732050807568877 2 1 1 0.969615506024416 1.34729635533386 0.879385241571817 1.68404028665134 0.879385241571817 0.315959713348662 0.969615506024416 0.652703644666139 0.5 1 8 1 2 4 3 7 10 3 1 10 5 6 10 6 7 10 8 9 10 9 5 10 1 8 10 7 3 
10 9 1 2.44921270764475e-16
1 -1 6 1.73205080756888 -1 6 1 1 6 1.73205080756888 1 6 2 -4.89842541528951e-16 6 1.96961550602442 0.347296355333861 6 1.87938524157182 0.684040286651337 6 1.87938524157182 -0.684040286651338 6 1.96961550602442 -0.347296355333861 6 1.5 0 6 0 0 0.732050807568877 0 0 2 0.732050807568877 2 1 1 0.969615506024416 1.34729635533386 0.879385241571817 1.68404028665134 0.879385241571817 0.315959713348662 0.969615506024416 0.652703644666139 0.5 1 8 1 2 4 3 7 10 3 1 10 5 6 10 6 7 10 8 9 10 9 5 10 1 8 10 7 3 
4 2 1 0
1.73205080756888 -1 3 1.73205080756888 -1 6 1 -1 6 1 -1 3 0 0.732050807568877 3 0.732050807568877 3 0 0 0 2 4 3 2 1 4 
4 2 1 0
1.73205080756888 1 3 1.73205080756888 1 6 1 1 6 1 1 3 0 0.732050807568877 3 0.732050807568877 3 0 0 0 2 4 3 2 1 4 
4 2 1 0
0 0 0 0 0 3 0 2 3 0 2 0 0 0 3 0 3 -2 0 -2 2 4 3 2 1 4 
4 2 1 1.11022302462516e-16
0 0 0 0 2 0 5 2 0 5 0 0 0 0 0 2 5 2 5 0 3 2 1 3 1 4 
4 2 1 1.11022302462516e-16
0 0 3 0 2 3 5 2 3 5 0 3 0 0 0 2 5 2 5 0 3 2 1 3 1 4 
4 2 1 0
0 0 0 5 0 0 5 0 3 0 0 3 0 0 0 5 3 5 3 0 3 2 1 3 1 4 
4 2 1 0
0 2 0 5 2 0 5 2 3 0 2 3 0 0 0 5 3 5 3 0 3 2 1 3 1 4 

TShapes 64
Ve
2.00001e-07
-3.67381906146713e-16 -2 0
0 0

0101101
*
Ve
2.00001e-07
-3.67381906146713e-16 -2 10
0 0

0101101
*
Ed
 1e-07 1 1 0
1  1 0 0 10
2  1 2 4 0 10
2  2 1 3 0 10
6  1 2 0
6  2 1 0
6  3 3 5
0

0101000
+64 0 -63 0 *
Ve
2.00001e-07
1.22460635382238e-16 2 10
0 0

0101101
*
Ed
 1e-07 1 1 0
1  2 0 0.5 4.5
2  3 3 4 0.5 4.5
2  4 1 3 0.5 4.5
6  4 1 0
6  5 4 0
0

0101000
+63 0 -61 0 *
Ve
2.00001e-07
1.22460635382238e-16 2 0
0 0

0101101
*
Ed
 1e-07 1 1 0
1  3 0 0 10
2  5 2 4 0 10
2  6 1 3 0 10
6  6 5 0
6  7 1 0
6  8 6 5
0

0101000
+59 0 -61 0 *
Ed
 1e-07 1 1 0
1  4 0 0.5 4.5
2  7 4 4 0.5 4.5
2  8 1 3 0.5 4.5
6  9 1 0
6  10 7 0
0

0101000
+64 0 -59 0 *
Wi

0101000
-62 0 -60 0 +58 0 +57 0 *
Fa
0  1e-07 1 3
2  1
0111000
+56 0 *
Ve
2.00001e-07
1.73205080756888 -1 3
0 0

0101101
*
Ve
2.00001e-07
2 -4.89842541528951e-16 3
0 0

0101101
*
Ed
 1e-07 1 1 0
1  5 0 1.0471975511966 1.5707963267949
2  9 2 6 1.0471975511966 1.5707963267949
2  10 5 7 1.0471975511966 1.5707963267949
6  11 3 0
6  12 8 0
0

0101000
+54 0 -53 0 *
Ve
1e-07
2 -4.89842541528951e-16 0
0 0

0101101
*
Ed
 1e-07 1 1 0
1  6 0 0 3
3  11 12CN 2 0 0 3
6  13 3 8
6  14 6 8
0

0101000
+51 0 -53 8 *
Ed
 1e-07 1 1 0
1  7 0 4.71238898038469 6.28318530717959
2  13 2 0 4.71238898038469 6.28318530717959
2  14 4 0 4.71238898038469 6.28318530717959
6  15 2 9
6  16 7 9
6  17 3 8
0

0101000
+64 9 -51 0 *
Ve
1e-07
2 -4.89842541528951e-16 10
0 0

0101101
*
Ed
 1e-07 1 1 0
1  8 0 4.71238898038469 6.28318530717959
2  15 2 0 4.71238898038469 6.28318530717959
2  16 3 0 4.71238898038469 6.28318530717959
6  18 2 9
6  19 4 9
6  20 3 8
0

0101000
+63 9 -48 0 *
Ve
2.00001e-07
2 -4.89842541528951e-16 6
0 0

0101101
*
Ed
 1e-07 1 1 0
1  6 0 6 10
3  11 12CN 2 0 6 10
6  21 3 8
6  22 6 8
0

0101000
+46 8 -48 0 *
Ve
2.00001e-07
1.73205080756888 -1 6
0 0

0101101
*
Ed
 1e-07 1 1 0
1  9 0 1.0471975511966 1.5707963267949
2  17 2 6 1.0471975511966 1.5707963267949
2  18 6 7 1.0471975511966 1.5707963267949
6  23 3 0
6  24 9 0
0

0101000
+44 0 -46 0 *
Ed
 1e-07 1 1 0
1  10 0 3 6
2  19 2 6 3 6
2  20 7 7 3 6
6  25 3 0
6  26 10 0
0

0101000
+54 0 -44 0 *
Wi

0101000
-52 0 +50 6 +49 6 -62 2 -47 6 +45 6 +43 0 +42 0 *
Fa
0  1e-07 2 6
2  3
0101000
+41 0 *
Ed
 1e-07 1 1 0
1  8 0 0 1.5707963267949
2  15 2 0 0 1.5707963267949
2  16 3 0 0 1.5707963267949
6  27 5 9
6  28 4 9
6  29 6 8
0

0101000
+48 0 -61 9 *
Wi

0101000
-60 0 +39 4 +47 4 *
Fa
0  1e-07 3 4
2  4
0101000
+38 0 *
Ve
2.00001e-07
1.73205080756888 1 3
0 0

0101101
*
Ve
2.00001e-07
1.73205080756888 1 6
0 0

0101101
*
Ed
 1e-07 1 1 0
1  11 0 3 6
2  21 2 6 3 6
2  22 8 7 3 6
6  30 6 0
6  31 11 0
0

0101000
+36 0 -35 0 *
Ed
 1e-07 1 1 0
1  12 0 1.5707963267949 2.0943951023932
2  23 2 6 1.5707963267949 2.0943951023932
2  24 6 7 1.5707963267949 2.0943951023932
6  32 6 0
6  33 9 0
0

0101000
+46 0 -35 0 *
Ed
 1e-07 1 1 0
1  7 0 0 1.5707963267949
2  13 2 0 0 1.5707963267949
2  14 4 0 0 1.5707963267949
6  34 5 9
6  35 7 9
6  36 6 8
0

0101000
+51 0 -59 9 *
Ed
 1e-07 1 1 0
1  13 0 1.5707963267949 2.0943951023932
2  25 2 6 1.5707963267949 2.0943951023932
2  26 5 7 1.5707963267949 2.0943951023932
6  37 6 0
6  38 8 0
0

0101000
+53 0 -36 0 *
Wi

0101000
-34 0 +33 0 -45 6 -39 6 +58 2 +32 6 -50 6 -31 0 *
Fa
0  1e-07 2 6
2  6
0101000
+30 0 *
Wi

0101000
-57 0 +32 4 +49 4 *
Fa
0  1e-07 4 4
2  7
0101000
+28 0 *
Ve
1e-07
0 0 0
0 0

0101101
*
Ed
 1e-07 1 1 0
1  14 0 0 0.732050807568877
2  27 7 0 0 0.732050807568877
2  28 5 0 0 0.732050807568877
6  39 8 10
6  40 10 10
0

0101000
+26 0 -54 10 *
Ve
1e-07
0 2 0
0 0

0101101
*
Ed
 1e-07 1 1 0
1  15 0 0 2
2  29 9 0 0 2
2  30 5 0 0 2
6  41 12 0
6  42 13 0
6  43 8 10
0

0101000
-24 0 +26 0 *
Ed
 1e-07 1 1 0
1  16 0 0 0.732050807568877
2  31 8 0 0 0.732050807568877
2  32 5 0 0 0.732050807568877
6  44 8 10
6  45 11 10
0

0101000
+24 0 -36 10 *
Wi

0101000
+25 7 -23 7 -22 7 +31 0 +52 0 *
Fa
0  1e-07 5 7
2  8
0101000
+21 0 *
Ve
1e-07
0 0 3
0 0

0101101
*
Ed
 1e-07 1 1 0
1  17 0 0 0.732050807568877
2  33 7 0 0 0.732050807568877
2  34 6 0 0 0.732050807568877
6  46 9 10
6  47 10 10
0

0101000
+19 0 -44 10 *
Ve
1e-07
0 2 3
0 0

0101101
*
Ed
 1e-07 1 1 0
1  18 0 0 2
2  35 9 0 0 2
2  36 6 0 0 2
6  48 12 0
6  49 14 0
6  50 9 10
0

0101000
-17 0 +19 0 *
Ed
 1e-07 1 1 0
1  19 0 0 0.732050807568877
2  37 8 0 0 0.732050807568877
2  38 6 0 0 0.732050807568877
6  51 9 10
6  52 11 10
0

0101000
+17 0 -35 10 *
Wi

0101000
+18 7 -16 7 -15 7 +33 0 +43 0 *
Fa
0  1e-07 6 7
2  9
0101000
+14 0 *
Ed
 1e-07 1 1 0
1  20 0 0 3
2  39 9 0 0 3
2  40 7 0 0 3
6  53 12 0
6  54 15 0
6  55 10 10
0

0101000
-19 0 +26 0 *
Wi

0101000
-42 0 +18 7 +12 7 -25 7 *
Fa
0  1e-07 7 7
2  10
0101000
+11 0 *
Ed
 1e-07 1 1 0
1  21 0 0 3
2  41 9 0 0 3
2  42 8 0 0 3
6  56 12 0
6  57 16 0
6  58 11 10
0

0101000
-17 0 +24 0 *
Wi

0101000
-34 0 +15 7 +9 7 -22 7 *
Fa
0  1e-07 8 7
2  11
0101000
+8 0 *
Wi

0101000
-12 0 -16 0 +9 0 +23 0 *
Fa
0  1e-07 9 0
2  12
0111000
+6 0 *
Sh

0101000
-55 2 +40 0 +37 2 +29 0 -27 2 +20 0 -13 0 +10 0 -7 0 +5 7 
*
So

0100000
+4 0 *
Co

0100000
+3 0 *
Co

1100000
+2 1 *

+1 0 