DBRep_DrawableShape

CASCADE Topology V1, (c) Matra-Datavision
Locations 31
1
              1               0               0               0 
              0               1               0               0 
              0               0               1               0 
1
              1               0               0               0 
              0               1               0               0 
              0               0               1               0 
1
              1               0               0               0 
              0               1               0               0 
              0               0               1               0 
1
              1               0               0               0 
              0               1               0               0 
              0               0               1               0 
1
              1               0               0               0 
              0               1               0               0 
              0               0               1               0 
2  3 1 4 1 5 1 0
2  5 -1 4 -1 3 -1 0
2  2 -1 5 -1 4 -1 3 -1 0
2  3 1 4 1 0
1
              1               0               0               0 
              0               1               0               0 
              0               0               1               0 
2  3 1 4 1 10 1 5 -1 0
2  5 -1 0
2  2 -1 5 -1 0
1
              1               0               0               0 
              0               1               0               0 
              0               0               1              10 
2  14 1 3 -1 0
2  3 1 4 1 10 1 0
2  10 -1 4 -1 3 -1 0
2  2 -1 10 -1 4 -1 3 -1 0
2  3 1 4 1 10 1 2 1 0
1
              1               0               0               1 
              0               1               0              -4 
              0               0               1               4 
2  5 1 2 1 0
2  14 1 4 1 5 1 0
2  14 1 4 1 0
2  14 1 4 1 10 1 5 -1 0
2  5 -1 4 -1 14 -1 0
2  2 -1 5 -1 4 -1 14 -1 0
2  20 -1 0
2  14 1 4 1 10 1 2 1 0
2  2 -1 10 -1 4 -1 14 -1 0
2  10 -1 4 -1 14 -1 0
2  14 1 4 1 10 1 0
Curve2ds 54
2 0 0 1 0 -0 1 2
1 0 0 1 0 
8 -0.14683045111453996 4.14683045111454
1 0 -2 0 1 
1 0 -2 0 1 
8 0 10
1 1.5707963267948966 0 0 1 
1 1.5707963267948966 0 0 1 
8 0 10
1 4.7123889803846897 0 0 1 
1 4.7123889803846897 0 0 1 
1 0 10 1 0 
1 0 0 1 0 
2 0 0 1 0 -0 1 2
1 0 0 1 0 
2 0 0 1 0 -0 1 2
1 0 0 1 0 
8 3 10
1 1.0471975511965976 0 0 1 
8 3 10
1 -4 -5.7320508075688767 1 0 
1 0 10 1 0 
1 0 0 1 0 
1 0 -0 0 1 
1 6.2831853071795862 -0 0 1 
1 -1.5707963267948966 4 1 0 
2 -1 4 0 -1 1 0 2
1 4.7123889803846897 4 1 0 
2 -1 4 0 -1 1 0 2
1 0 10 1 0 
1 0 0 1 0 
8 3 10
1 5.2359877559829888 0 0 1 
8 3 10
1 -4 -2.2679491924311228 1 0 
8 0 10
1 1.5707963267948966 0 0 1 
1 1.5707963267948966 0 0 1 
8 0 10
1 4.7123889803846897 0 0 1 
1 4.7123889803846897 0 0 1 
1 0 10 1 0 
2 0 0 1 0 -0 1 2
1 0 0 0 -1 
1 0 0 0 1 
8 0 5
1 5.2359877559829888 0 0 1 
8 0 5
1 6 -2.2679491924311228 1 0 
1 10 0 0 -1 
1 0 0 0 1 
8 0 5
1 1.0471975511965976 0 0 1 
8 0 5
1 6 -5.7320508075688767 1 0 
1 -1.5707963267948966 4 1 0 
2 -1 4 0 -1 1 0 2
1 0 -0 0 1 
1 6.2831853071795862 -0 0 1 
1 0 10 1 0 
2 0 0 1 0 -0 1 2
1 0 10 1 0 
2 0 0 1 0 -0 1 2
1 4.7123889803846897 4 1 0 
2 -1 4 0 -1 1 0 2
8 -0.14683045111453996 4.14683045111454
1 0 -2 0 1 
1 0 -2 0 1 
Curves 27
2 0 0 0 0 0 1 1 0 -0 -0 1 0 2
1 0 -2 0 0 1 0 
1 0 2 0 0 0 1 
1 0 -2 0 0 0 1 
2 0 0 10 0 0 1 1 0 -0 -0 1 0 2
2 0 0 0 0 0 1 1 0 -0 -0 1 0 2
2 0 0 0 0 0 1 1 0 -0 -0 1 0 2
1 1 1.7320508075688772 0 0 0 1 
2 0 0 10 0 0 1 1 0 -0 -0 1 0 2
1 2 -4.898425415289509e-16 0 0 0 1 
2 0 0 4 0 0 1 0 -1 0 1 0 -0 2
2 0 0 4 0 0 1 0 -1 0 1 0 -0 2
2 0 0 10 0 0 1 1 0 -0 -0 1 0 2
1 1 -1.7320508075688772 0 0 0 1 
1 0 2 10 0 0 1 
1 0 -2 10 0 0 1 
2 0 0 10 0 0 1 1 0 -0 -0 1 0 2
1 0 0 0 -0 1 0 
1 1 -1.7320508075688772 10 0 0 1 
1 0 0 10 -0 1 0 
1 1 1.7320508075688772 10 0 0 1 
2 0 0 14 0 0 1 0 -1 0 1 0 -0 2
1 2 -4.898425415289509e-16 0 0 0 1 
2 0 0 10 0 0 1 1 0 -0 -0 1 0 2
2 0 0 10 0 0 1 1 0 -0 -0 1 0 2
2 0 0 14 0 0 1 0 -1 0 1 0 -0 2
1 0 -2 20 0 1 0 
Polygon3D 0
PolygonOnTriangulations 62
15 1 3 4 5 6 7 8 9 10 11 12 13 14 15 2 
p 0.023882614668616 1 1.5707963267949 1.79519580205131 2.01959527730773 2.24399475256414 2.46839422782055 2.69279370307697 2.91719317833338 3.14159265358979 3.36599212884621 3.59039160410262 3.81479107935903 4.03919055461545 4.26359002987186 4.48798950512827 4.71238898038469 
15 1 3 4 5 6 7 8 9 10 11 12 13 14 15 2 
p 0.023882614668616 1 1.5707963267949 1.79519580205131 2.01959527730773 2.24399475256414 2.46839422782055 2.69279370307697 2.91719317833338 3.14159265358979 3.36599212884621 3.59039160410262 3.81479107935903 4.03919055461545 4.26359002987186 4.48798950512827 4.71238898038469 
2 2 1 
p 0.023882614668616 1 0 4 
2 1 2 
p 0.023882614668616 1 0 4 
2 1 16 
p 0.023882614668616 1 0 10 
2 2 10 
p 0.023882614668616 1 0 10 
2 6 3 
p 0.0237452943347953 1 0 10 
2 2 17 
p 0.023882614668616 1 0 10 
2 1 2 
p 0.023882614668616 1 0 10 
2 7 14 
p 0.0237452943347953 1 0 10 
15 16 18 19 20 21 22 23 24 25 26 27 28 29 30 17 
p 0.023882614668616 1 1.5707963267949 1.79519580205131 2.01959527730773 2.24399475256414 2.46839422782055 2.69279370307697 2.91719317833338 3.14159265358979 3.36599212884621 3.59039160410262 3.81479107935903 4.03919055461545 4.26359002987186 4.48798950512827 4.71238898038469 
15 1 3 4 5 6 7 8 9 10 11 12 13 14 15 2 
p 0.023882614668616 1 1.5707963267949 1.79519580205131 2.01959527730773 2.24399475256414 2.46839422782055 2.69279370307697 2.91719317833338 3.14159265358979 3.36599212884621 3.59039160410262 3.81479107935903 4.03919055461545 4.26359002987186 4.48798950512827 4.71238898038469 
8 1 4 5 6 7 8 9 3 
p 0.023882614668616 1 4.71238898038469 4.9367884556411 5.16118793089752 5.38558740615393 5.60998688141035 5.83438635666676 6.05878583192318 6.28318530717959 
8 1 4 5 6 7 8 9 3 
p 0.023882614668616 1 4.71238898038469 4.9367884556411 5.16118793089752 5.38558740615393 5.60998688141035 5.83438635666676 6.05878583192318 6.28318530717959 
8 7 8 9 10 11 12 13 6 
p 0.0237452943347953 1 4.71238898038469 4.9367884556411 5.16118793089752 5.38558740615393 5.60998688141035 5.83438635666676 6.05878583192318 6.28318530717959 
8 1 3 4 5 6 7 8 2 
p 0.023882614668616 1 0 0.224399475256414 0.448798950512829 0.673198425769243 0.897597901025657 1.12199737628207 1.34639685153849 1.5707963267949 
8 3 10 11 12 13 14 15 2 
p 0.023882614668616 1 0 0.224399475256414 0.448798950512829 0.673198425769243 0.897597901025657 1.12199737628207 1.34639685153849 1.5707963267949 
8 7 8 9 10 11 12 13 6 
p 0.0237452943347953 1 0 0.224399475256414 0.448798950512829 0.673198425769243 0.897597901025657 1.12199737628207 1.34639685153849 1.5707963267949 
2 1 2 
p 0.0237452943347953 1 4 10 
2 2 6 
p 0.0237452943347953 1 4 10 
4 2 4 5 3 
p 0.0237452943347953 1 1.0471975511966 1.22173047639603 1.39626340159547 1.5707963267949 
4 1 16 17 15 
p 0.0237452943347953 1 1.0471975511966 1.22173047639603 1.39626340159547 1.5707963267949 
2 7 14 
p 0.0237452943347953 1 0 4 
2 6 2 
p 0.0237452943347953 1 0 4 
5 14 15 16 17 1 
p 0.0237452943347953 1 1.5707963267949 1.83259571459405 2.0943951023932 2.35619449019234 2.61799387799149 
5 2 7 8 9 6 
p 0.0237452943347953 1 1.5707963267949 1.83259571459405 2.0943951023932 2.35619449019234 2.61799387799149 
5 1 3 4 5 2 
p 0.0237452943347953 1 0.523598775598299 0.785398163397449 1.0471975511966 1.30899693899575 1.5707963267949 
5 1 3 4 5 2 
p 0.0237452943347953 1 0.523598775598299 0.785398163397449 1.0471975511966 1.30899693899575 1.5707963267949 
4 14 16 17 15 
p 0.0237452943347953 1 4.71238898038469 4.88692190558412 5.06145483078356 5.23598775598299 
4 1 3 4 2 
p 0.0237452943347953 1 4.71238898038469 4.88692190558412 5.06145483078356 5.23598775598299 
2 1 15 
p 0.0237452943347953 1 4 10 
2 1 3 
p 0.0237452943347953 1 4 10 
2 1 16 
p 0.023882614668616 1 0 10 
2 2 10 
p 0.023882614668616 1 0 10 
2 15 8 
p 0.0237452943347953 1 0 10 
2 2 17 
p 0.023882614668616 1 0 10 
2 1 2 
p 0.023882614668616 1 0 10 
2 1 5 
p 0.0237452943347953 1 0 10 
15 16 18 19 20 21 22 23 24 25 26 27 28 29 30 17 
p 0.023882614668616 1 1.5707963267949 1.79519580205131 2.01959527730773 2.24399475256414 2.46839422782055 2.69279370307697 2.91719317833338 3.14159265358979 3.36599212884621 3.59039160410262 3.81479107935903 4.03919055461545 4.26359002987186 4.48798950512827 4.71238898038469 
15 1 3 4 5 6 7 8 9 10 11 12 13 14 15 2 
p 0.023882614668616 1 1.5707963267949 1.79519580205131 2.01959527730773 2.24399475256414 2.46839422782055 2.69279370307697 2.91719317833338 3.14159265358979 3.36599212884621 3.59039160410262 3.81479107935903 4.03919055461545 4.26359002987186 4.48798950512827 4.71238898038469 
2 1 2 
p 0.0237452943347953 1 2.26794919243112 5.73205080756888 
2 1 6 
p 0.0237452943347953 1 2.26794919243112 5.73205080756888 
2 2 14 
p 0.0237452943347953 1 0 4 
2 3 4 
p 0.0237452943347953 1 0 4 
2 4 5 
p 0.0237452943347953 1 2.26794919243112 5.73205080756888 
2 1 6 
p 0.0237452943347953 1 2.26794919243112 5.73205080756888 
2 1 2 
p 0.0237452943347953 1 0 4 
2 6 5 
p 0.0237452943347953 1 0 4 
5 3 4 5 6 2 
p 0.0237452943347953 1 1.5707963267949 1.83259571459405 2.0943951023932 2.35619449019234 2.61799387799149 
5 2 7 8 9 6 
p 0.0237452943347953 1 1.5707963267949 1.83259571459405 2.0943951023932 2.35619449019234 2.61799387799149 
2 3 7 
p 0.0237452943347953 1 4 10 
2 13 6 
p 0.0237452943347953 1 4 10 
8 9 11 12 13 14 15 16 10 
p 0.023882614668616 1 0 0.224399475256414 0.448798950512829 0.673198425769243 0.897597901025657 1.12199737628207 1.34639685153849 1.5707963267949 
8 3 10 11 12 13 14 15 2 
p 0.023882614668616 1 0 0.224399475256414 0.448798950512829 0.673198425769243 0.897597901025657 1.12199737628207 1.34639685153849 1.5707963267949 
8 7 9 10 11 12 13 14 8 
p 0.0237452943347953 1 0 0.224399475256414 0.448798950512829 0.673198425769243 0.897597901025657 1.12199737628207 1.34639685153849 1.5707963267949 
8 2 11 12 13 14 15 16 10 
p 0.023882614668616 1 4.71238898038469 4.9367884556411 5.16118793089752 5.38558740615393 5.60998688141035 5.83438635666676 6.05878583192318 6.28318530717959 
8 1 4 5 6 7 8 9 3 
p 0.023882614668616 1 4.71238898038469 4.9367884556411 5.16118793089752 5.38558740615393 5.60998688141035 5.83438635666676 6.05878583192318 6.28318530717959 
8 5 7 8 9 10 11 12 6 
p 0.0237452943347953 1 4.71238898038469 4.9367884556411 5.16118793089752 5.38558740615393 5.60998688141035 5.83438635666676 6.05878583192318 6.28318530717959 
5 14 15 16 17 13 
p 0.0237452943347953 1 0.523598775598299 0.785398163397449 1.0471975511966 1.30899693899575 1.5707963267949 
5 1 3 4 5 2 
p 0.0237452943347953 1 0.523598775598299 0.785398163397449 1.0471975511966 1.30899693899575 1.5707963267949 
2 2 1 
p 0.023882614668616 1 0 4 
2 1 2 
p 0.023882614668616 1 0 4 
Surfaces 13
1 0 0 0 0 0 1 1 0 -0 -0 1 0 
2 0 0 0 0 0 1 1 0 -0 -0 1 0 2
1 0 0 0 0 0 1 1 0 -0 -0 1 0 
2 0 0 0 0 0 1 1 0 -0 -0 1 0 2
2 0 0 0 0 0 1 1 0 -0 -0 1 0 2
2 0 0 0 0 0 1 1 0 -0 -0 1 0 2
1 0 0 0 1 0 -0 0 0 1 0 -1 0 
2 0 0 0 0 0 1 1 0 -0 -0 1 0 2
1 0 0 0 0 0 1 1 0 -0 -0 1 0 
2 0 0 0 0 0 1 1 0 -0 -0 1 0 2
1 0 0 10 0 0 1 1 0 -0 -0 1 0 
1 0 0 10 0 0 1 1 0 -0 -0 1 0 
1 0 0 10 0 0 1 1 0 -0 -0 1 0 
Triangulations 17
16 15 1 3.1641356201817e-15
1.22460635382238e-16 2 0 -3.67381906146713e-16 -2 0 -0.445041867912635 1.94985582436365 0 -0.867767478235122 1.80193773580484 0 -1.24697960371747 1.56366296493606 0 -1.56366296493606 1.24697960371746 0 -1.80193773580484 0.867767478235113 0 -1.94985582436365 0.445041867912626 0 -2 -1.53143556863578e-15 0 -1.94985582436365 -0.445041867912629 0 -1.80193773580484 -0.867767478235116 0 -1.56366296493606 -1.24697960371747 0 -1.24697960371747 -1.56366296493606 0 -0.867767478235118 -1.80193773580484 0 -0.445041867912631 -1.94985582436365 0 -1 0 0 -6.88338275267597e-15 2 -4.44089209850063e-16 -2 -0.445041867912635 1.94985582436365 -0.867767478235122 1.80193773580484 -1.24697960371747 1.56366296493606 -1.56366296493606 1.24697960371746 -1.80193773580484 0.867767478235113 -1.94985582436365 0.445041867912626 -2 -1.55431223447522e-15 -1.94985582436365 -0.445041867912629 -1.80193773580484 -0.867767478235116 -1.56366296493606 -1.24697960371747 -1.24697960371747 -1.56366296493606 -0.867767478235118 -1.80193773580484 -0.445041867912631 -1.94985582436365 -1 0 16 1 3 16 3 4 16 4 5 16 5 6 16 6 7 16 7 8 16 8 9 16 9 10 16 10 11 16 11 12 16 12 13 16 13 14 16 14 15 16 15 2 16 2 1 
30 28 1 0.0125755802135152
1.22460635382238e-16 2 0 -3.67381906146713e-16 -2 0 -0.445041867912635 1.94985582436365 0 -0.867767478235122 1.80193773580484 0 -1.24697960371747 1.56366296493606 0 -1.56366296493606 1.24697960371746 0 -1.80193773580484 0.867767478235113 0 -1.94985582436365 0.445041867912626 0 -2 -1.53143556863578e-15 0 -1.94985582436365 -0.445041867912629 0 -1.80193773580484 -0.867767478235116 0 -1.56366296493606 -1.24697960371747 0 -1.24697960371747 -1.56366296493606 0 -0.867767478235118 -1.80193773580484 0 -0.445041867912631 -1.94985582436365 0 1.22460635382238e-16 2 10 -3.67381906146713e-16 -2 10 -0.445041867912635 1.94985582436365 10 -0.867767478235122 1.80193773580484 10 -1.24697960371747 1.56366296493606 10 -1.56366296493606 1.24697960371746 10 -1.80193773580484 0.867767478235113 10 -1.94985582436365 0.445041867912626 10 -2 -1.53143556863578e-15 10 -1.94985582436365 -0.445041867912629 10 -1.80193773580484 -0.867767478235116 10 -1.56366296493606 -1.24697960371747 10 -1.24697960371747 -1.56366296493606 10 -0.867767478235118 -1.80193773580484 10 -0.445041867912631 -1.94985582436365 10 1.5707963267949 0 4.71238898038469 0 1.79519580205131 0 2.01959527730773 0 2.24399475256414 0 2.46839422782055 0 2.69279370307697 0 2.91719317833338 0 3.14159265358979 0 3.36599212884621 0 3.59039160410262 0 3.81479107935903 0 4.03919055461545 0 4.26359002987186 0 4.48798950512827 0 1.5707963267949 10 4.71238898038469 10 1.79519580205131 10 2.01959527730773 10 2.24399475256414 10 2.46839422782055 10 2.69279370307697 10 2.91719317833338 10 3.14159265358979 10 3.36599212884621 10 3.59039160410262 10 3.81479107935903 10 4.03919055461545 10 4.26359002987186 10 4.48798950512827 10 18 1 3 18 3 4 18 16 1 19 4 5 19 18 4 20 19 5 21 5 6 21 20 5 22 6 7 22 7 8 22 21 6 23 8 9 23 22 8 24 23 9 25 9 10 25 10 11 25 24 9 26 25 11 27 11 12 27 12 13 27 26 11 28 13 14 28 27 13 29 14 15 29 28 14 30 15 2 30 29 15 17 30 2 
16 15 1 3.57559034463995e-15
-3.67381906146713e-16 -2 0 1.22460635382238e-16 2 0 2 -4.89842541528951e-16 0 0.44504186791263 -1.94985582436365 0 0.867767478235119 -1.80193773580484 0 1.24697960371747 -1.56366296493606 0 1.56366296493606 -1.24697960371746 0 1.80193773580484 -0.867767478235109 0 1.94985582436365 -0.445041867912619 0 1.94985582436365 0.44504186791263 0 1.80193773580484 0.867767478235118 0 1.56366296493606 1.24697960371747 0 1.24697960371746 1.56366296493606 0 0.867767478235112 1.80193773580484 0 0.445041867912623 1.94985582436365 0 1 0 0 0 -2 0 2 2 6.66133814775094e-15 0.44504186791263 -1.94985582436365 0.867767478235119 -1.80193773580484 1.24697960371747 -1.56366296493606 1.56366296493606 -1.24697960371746 1.80193773580484 -0.867767478235109 1.94985582436365 -0.445041867912619 1.94985582436365 0.44504186791263 1.80193773580484 0.867767478235118 1.56366296493606 1.24697960371747 1.24697960371746 1.56366296493606 0.867767478235112 1.80193773580484 0.445041867912623 1.94985582436365 1 0 16 2 1 16 1 4 16 4 5 16 5 6 16 6 7 16 7 8 16 8 9 16 9 3 16 3 10 16 10 11 16 11 12 16 12 13 16 13 14 16 14 15 16 15 2 
16 14 1 0.012575580213515
2 -4.89842541528951e-16 0 1.22460635382238e-16 2 0 1.94985582436365 0.44504186791263 0 1.80193773580484 0.867767478235118 0 1.56366296493606 1.24697960371747 0 1.24697960371746 1.56366296493606 0 0.867767478235112 1.80193773580484 0 0.445041867912623 1.94985582436365 0 2 -4.89842541528951e-16 10 1.22460635382238e-16 2 10 1.94985582436365 0.44504186791263 10 1.80193773580484 0.867767478235118 10 1.56366296493606 1.24697960371747 10 1.24697960371746 1.56366296493606 10 0.867767478235112 1.80193773580484 10 0.445041867912623 1.94985582436365 10 0 0 1.5707963267949 0 0.224399475256414 0 0.448798950512829 0 0.673198425769243 0 0.897597901025657 0 1.12199737628207 0 1.34639685153849 0 0 10 1.5707963267949 10 0.224399475256414 10 0.448798950512829 10 0.673198425769243 10 0.897597901025657 10 1.12199737628207 10 1.34639685153849 10 11 1 3 11 9 1 12 3 4 12 11 3 13 4 5 13 12 4 14 5 6 14 6 7 14 13 5 15 14 7 16 7 8 16 15 7 10 8 2 10 16 8 
17 15 1 0.0133474916789034
1 1.73205080756888 4 1 1.73205080756888 10 1.22460635382238e-16 2 10 0.684040286651336 1.87938524157182 10 0.347296355333856 1.96961550602442 10 1.22460635382238e-16 2 0 2 -4.89842541528951e-16 0 1.94985582436365 0.44504186791263 0 1.80193773580484 0.867767478235118 0 1.56366296493606 1.24697960371747 0 1.24697960371746 1.56366296493606 0 0.867767478235112 1.80193773580484 0 0.445041867912623 1.94985582436365 0 2 -4.89842541528951e-16 4 1.93185165257814 0.517638090205041 4 1.73205080756888 1 4 1.4142135623731 1.41421356237309 4 1.0471975511966 4 1.0471975511966 10 1.5707963267949 10 1.22173047639603 10 1.39626340159547 10 1.5707963267949 0 0 0 0.224399475256414 0 0.448798950512829 0 0.673198425769243 0 0.897597901025657 0 1.12199737628207 0 1.34639685153849 0 0 4 0.261799387799149 4 0.523598775598299 4 0.785398163397448 4 8 14 7 15 14 8 9 15 8 16 15 9 10 16 9 17 10 11 17 16 10 1 11 12 1 17 11 4 2 1 4 12 13 4 1 12 5 13 6 5 4 13 3 5 6 
16 14 1 0.012575580213515
-3.67381906146713e-16 -2 0 -3.67381906146713e-16 -2 10 2 -4.89842541528951e-16 0 0.44504186791263 -1.94985582436365 0 0.867767478235119 -1.80193773580484 0 1.24697960371747 -1.56366296493606 0 1.56366296493606 -1.24697960371746 0 1.80193773580484 -0.867767478235109 0 1.94985582436365 -0.445041867912619 0 2 -4.89842541528951e-16 10 0.44504186791263 -1.94985582436365 10 0.867767478235119 -1.80193773580484 10 1.24697960371747 -1.56366296493606 10 1.56366296493606 -1.24697960371746 10 1.80193773580484 -0.867767478235109 10 1.94985582436365 -0.445041867912619 10 4.71238898038469 0 4.71238898038469 10 6.28318530717959 0 4.9367884556411 0 5.16118793089752 0 5.38558740615393 0 5.60998688141035 0 5.83438635666676 0 6.05878583192318 0 6.28318530717959 10 4.9367884556411 10 5.16118793089752 10 5.38558740615393 10 5.60998688141035 10 5.83438635666676 10 6.05878583192318 10 11 2 1 11 1 4 11 4 5 12 11 5 13 5 6 13 12 5 14 6 7 14 7 8 14 13 6 15 14 8 16 8 9 16 15 8 10 9 3 10 16 9 
17 15 1 0.0133474916789028
1 -1.73205080756888 4 2 -4.89842541528951e-16 4 1.4142135623731 -1.41421356237309 4 1.73205080756888 -0.999999999999997 4 1.93185165257814 -0.517638090205036 4 2 -4.89842541528951e-16 0 -3.67381906146713e-16 -2 0 0.44504186791263 -1.94985582436365 0 0.867767478235119 -1.80193773580484 0 1.24697960371747 -1.56366296493606 0 1.56366296493606 -1.24697960371746 0 1.80193773580484 -0.867767478235109 0 1.94985582436365 -0.445041867912619 0 -3.67381906146713e-16 -2 10 1 -1.73205080756888 10 0.34729635533386 -1.96961550602442 10 0.684040286651336 -1.87938524157182 10 5.23598775598299 4 6.28318530717959 4 5.49778714378214 4 5.75958653158129 4 6.02138591938044 4 6.28318530717959 0 4.71238898038469 0 4.9367884556411 0 5.16118793089752 0 5.38558740615393 0 5.60998688141035 0 5.83438635666676 0 6.05878583192318 0 4.71238898038469 10 5.23598775598299 10 4.88692190558412 10 5.06145483078356 10 16 7 8 16 14 7 17 8 9 17 16 8 17 9 1 10 1 9 15 17 1 3 10 11 3 1 10 4 11 12 4 3 11 5 12 13 5 4 12 2 13 6 2 5 13 
30 28 1 0.0125755802135152
1.22460635382238e-16 2 10 -3.67381906146713e-16 -2 10 -0.445041867912635 1.94985582436365 10 -0.867767478235122 1.80193773580484 10 -1.24697960371747 1.56366296493606 10 -1.56366296493606 1.24697960371746 10 -1.80193773580484 0.867767478235113 10 -1.94985582436365 0.445041867912626 10 -2 -1.53143556863578e-15 10 -1.94985582436365 -0.445041867912629 10 -1.80193773580484 -0.867767478235116 10 -1.56366296493606 -1.24697960371747 10 -1.24697960371747 -1.56366296493606 10 -0.867767478235118 -1.80193773580484 10 -0.445041867912631 -1.94985582436365 10 1.22460635382238e-16 2 20 -3.67381906146713e-16 -2 20 -0.445041867912635 1.94985582436365 20 -0.867767478235122 1.80193773580484 20 -1.24697960371747 1.56366296493606 20 -1.56366296493606 1.24697960371746 20 -1.80193773580484 0.867767478235113 20 -1.94985582436365 0.445041867912626 20 -2 -1.53143556863578e-15 20 -1.94985582436365 -0.445041867912629 20 -1.80193773580484 -0.867767478235116 20 -1.56366296493606 -1.24697960371747 20 -1.24697960371747 -1.56366296493606 20 -0.867767478235118 -1.80193773580484 20 -0.445041867912631 -1.94985582436365 20 1.5707963267949 0 4.71238898038469 0 1.79519580205131 0 2.01959527730773 0 2.24399475256414 0 2.46839422782055 0 2.69279370307697 0 2.91719317833338 0 3.14159265358979 0 3.36599212884621 0 3.59039160410262 0 3.81479107935903 0 4.03919055461545 0 4.26359002987186 0 4.48798950512827 0 1.5707963267949 10 4.71238898038469 10 1.79519580205131 10 2.01959527730773 10 2.24399475256414 10 2.46839422782055 10 2.69279370307697 10 2.91719317833338 10 3.14159265358979 10 3.36599212884621 10 3.59039160410262 10 3.81479107935903 10 4.03919055461545 10 4.26359002987186 10 4.48798950512827 10 18 1 3 18 3 4 18 16 1 19 4 5 19 18 4 20 19 5 21 5 6 21 20 5 22 6 7 22 7 8 22 21 6 23 8 9 23 22 8 24 23 9 25 9 10 25 10 11 25 24 9 26 25 11 27 11 12 27 12 13 27 26 11 28 13 14 28 27 13 29 14 15 29 28 14 30 15 2 30 29 15 17 30 2 
7 6 1 2.22044604925031e-16
1 -1.73205080756888 4 1 1.73205080756888 4 1 -1.73205080756888 10 1 -1.73205080756888 14 1 1.73205080756888 14 1 1.73205080756888 10 1 0 9 0 -2.26794919243112 0 -5.73205080756888 6 -2.26794919243112 10 -2.26794919243112 10 -5.73205080756888 6 -5.73205080756888 5 -4 4 6 5 4 3 6 7 1 2 7 3 1 7 2 6 7 6 3 
17 15 1 0.0133475079301661
1 1.73205080756888 10 1 1.73205080756888 14 2 -4.89842541528951e-16 14 1.93185165257814 0.517638090205041 14 1.73205080756888 1 14 1.4142135623731 1.41421356237309 14 2 -4.89842541528951e-16 20 1.22460635382238e-16 2 20 1.94985582436365 0.44504186791263 20 1.80193773580484 0.867767478235118 20 1.56366296493606 1.24697960371747 20 1.24697960371746 1.56366296493606 20 0.867767478235112 1.80193773580484 20 0.445041867912623 1.94985582436365 20 1.22460635382238e-16 2 10 0.684040286651336 1.87938524157182 10 0.347296355333856 1.96961550602442 10 1.0471975511966 0 1.0471975511966 4 0 4 0.261799387799149 4 0.523598775598299 4 0.785398163397448 4 0 10 1.5707963267949 10 0.224399475256414 10 0.448798950512829 10 0.673198425769243 10 0.897597901025657 10 1.12199737628207 10 1.34639685153849 10 1.5707963267949 0 1.22173047639603 0 1.39626340159547 0 9 3 4 9 7 3 10 4 5 10 9 4 11 5 6 11 10 5 12 6 2 12 11 6 16 2 1 13 2 16 13 12 2 14 16 17 14 13 16 8 17 15 8 14 17 
10 9 1 3.79763494956498e-15
1 -1.73205080756888 4 2 -4.89842541528951e-16 4 1.4142135623731 -1.41421356237309 4 1.73205080756888 -0.999999999999997 4 1.93185165257814 -0.517638090205036 4 1 1.73205080756888 4 1.93185165257814 0.517638090205041 4 1.73205080756888 1 4 1.4142135623731 1.41421356237309 4 1.5 0 4 2.22044604925031e-16 2.26794919243112 1 4.00000000000001 0.414213562373096 2.58578643762691 0.732050807568879 3 0.931851652578138 3.48236190979496 0 5.73205080756888 0.931851652578137 4.51763809020504 0.732050807568877 5 0.414213562373095 5.41421356237309 0.5 4 10 1 3 10 3 4 10 4 5 10 5 2 10 6 1 10 2 7 10 7 8 10 8 9 10 9 6 
17 15 1 0.0133475079301655
-3.67381906146713e-16 -2 10 1 -1.73205080756888 10 0.34729635533386 -1.96961550602442 10 0.684040286651336 -1.87938524157182 10 -3.67381906146713e-16 -2 20 2 -4.89842541528951e-16 20 0.44504186791263 -1.94985582436365 20 0.867767478235119 -1.80193773580484 20 1.24697960371747 -1.56366296493606 20 1.56366296493606 -1.24697960371746 20 1.80193773580484 -0.867767478235109 20 1.94985582436365 -0.445041867912619 20 2 -4.89842541528951e-16 14 1 -1.73205080756888 14 1.4142135623731 -1.41421356237309 14 1.73205080756888 -0.999999999999997 14 1.93185165257814 -0.517638090205036 14 4.71238898038469 0 5.23598775598299 0 4.88692190558412 0 5.06145483078356 0 4.71238898038469 10 6.28318530717959 10 4.9367884556411 10 5.16118793089752 10 5.38558740615393 10 5.60998688141035 10 5.83438635666676 10 6.05878583192318 10 6.28318530717959 4 5.23598775598299 4 5.49778714378214 4 5.75958653158129 4 6.02138591938044 4 5 1 3 7 3 4 7 5 3 14 4 2 8 7 4 8 4 14 9 14 15 9 8 14 10 15 16 10 9 15 11 10 16 17 11 16 12 11 17 13 12 17 6 12 13 
16 14 1 0.012575580213515
2 -4.89842541528951e-16 10 1.22460635382238e-16 2 10 1.94985582436365 0.44504186791263 10 1.80193773580484 0.867767478235118 10 1.56366296493606 1.24697960371747 10 1.24697960371746 1.56366296493606 10 0.867767478235112 1.80193773580484 10 0.445041867912623 1.94985582436365 10 2 -4.89842541528951e-16 20 1.22460635382238e-16 2 20 1.94985582436365 0.44504186791263 20 1.80193773580484 0.867767478235118 20 1.56366296493606 1.24697960371747 20 1.24697960371746 1.56366296493606 20 0.867767478235112 1.80193773580484 20 0.445041867912623 1.94985582436365 20 0 0 1.5707963267949 0 0.224399475256414 0 0.448798950512829 0 0.673198425769243 0 0.897597901025657 0 1.12199737628207 0 1.34639685153849 0 0 10 1.5707963267949 10 0.224399475256414 10 0.448798950512829 10 0.673198425769243 10 0.897597901025657 10 1.12199737628207 10 1.34639685153849 10 11 1 3 11 9 1 12 3 4 12 11 3 13 4 5 13 12 4 14 5 6 14 6 7 14 13 5 15 14 7 16 7 8 16 15 7 10 8 2 10 16 8 
16 14 1 0.012575580213515
-3.67381906146713e-16 -2 10 -3.67381906146713e-16 -2 20 2 -4.89842541528951e-16 10 0.44504186791263 -1.94985582436365 10 0.867767478235119 -1.80193773580484 10 1.24697960371747 -1.56366296493606 10 1.56366296493606 -1.24697960371746 10 1.80193773580484 -0.867767478235109 10 1.94985582436365 -0.445041867912619 10 2 -4.89842541528951e-16 20 0.44504186791263 -1.94985582436365 20 0.867767478235119 -1.80193773580484 20 1.24697960371747 -1.56366296493606 20 1.56366296493606 -1.24697960371746 20 1.80193773580484 -0.867767478235109 20 1.94985582436365 -0.445041867912619 20 4.71238898038469 0 4.71238898038469 10 6.28318530717959 0 4.9367884556411 0 5.16118793089752 0 5.38558740615393 0 5.60998688141035 0 5.83438635666676 0 6.05878583192318 0 6.28318530717959 10 4.9367884556411 10 5.16118793089752 10 5.38558740615393 10 5.60998688141035 10 5.83438635666676 10 6.05878583192318 10 11 2 1 11 1 4 11 4 5 12 11 5 13 5 6 13 12 5 14 6 7 14 7 8 14 13 6 15 14 8 16 8 9 16 15 8 10 9 3 10 16 9 
16 15 1 3.1641356201817e-15
1.22460635382238e-16 2 20 -3.67381906146713e-16 -2 20 -0.445041867912635 1.94985582436365 20 -0.867767478235122 1.80193773580484 20 -1.24697960371747 1.56366296493606 20 -1.56366296493606 1.24697960371746 20 -1.80193773580484 0.867767478235113 20 -1.94985582436365 0.445041867912626 20 -2 -1.53143556863578e-15 20 -1.94985582436365 -0.445041867912629 20 -1.80193773580484 -0.867767478235116 20 -1.56366296493606 -1.24697960371747 20 -1.24697960371747 -1.56366296493606 20 -0.867767478235118 -1.80193773580484 20 -0.445041867912631 -1.94985582436365 20 -1 0 20 -6.88338275267597e-15 2 -4.44089209850063e-16 -2 -0.445041867912635 1.94985582436365 -0.867767478235122 1.80193773580484 -1.24697960371747 1.56366296493606 -1.56366296493606 1.24697960371746 -1.80193773580484 0.867767478235113 -1.94985582436365 0.445041867912626 -2 -1.55431223447522e-15 -1.94985582436365 -0.445041867912629 -1.80193773580484 -0.867767478235116 -1.56366296493606 -1.24697960371747 -1.24697960371747 -1.56366296493606 -0.867767478235118 -1.80193773580484 -0.445041867912631 -1.94985582436365 -1 0 16 1 3 16 3 4 16 4 5 16 5 6 16 6 7 16 7 8 16 8 9 16 9 10 16 10 11 16 11 12 16 12 13 16 13 14 16 14 15 16 15 2 16 2 1 
10 9 1 3.79763494956498e-15
1 -1.73205080756888 14 2 -4.89842541528951e-16 14 1.4142135623731 -1.41421356237309 14 1.73205080756888 -0.999999999999997 14 1.93185165257814 -0.517638090205036 14 1 1.73205080756888 14 1.93185165257814 0.517638090205041 14 1.73205080756888 1 14 1.4142135623731 1.41421356237309 14 1.5 0 14 2.22044604925031e-16 2.26794919243112 1 4.00000000000001 0.414213562373096 2.58578643762691 0.732050807568879 3 0.931851652578138 3.48236190979496 0 5.73205080756888 0.931851652578137 4.51763809020504 0.732050807568877 5 0.414213562373095 5.41421356237309 0.5 4 10 1 3 10 3 4 10 4 5 10 5 2 10 6 1 10 2 7 10 7 8 10 8 9 10 9 6 
16 15 1 3.57559034463995e-15
-3.67381906146713e-16 -2 20 1.22460635382238e-16 2 20 2 -4.89842541528951e-16 20 0.44504186791263 -1.94985582436365 20 0.867767478235119 -1.80193773580484 20 1.24697960371747 -1.56366296493606 20 1.56366296493606 -1.24697960371746 20 1.80193773580484 -0.867767478235109 20 1.94985582436365 -0.445041867912619 20 1.94985582436365 0.44504186791263 20 1.80193773580484 0.867767478235118 20 1.56366296493606 1.24697960371747 20 1.24697960371746 1.56366296493606 20 0.867767478235112 1.80193773580484 20 0.445041867912623 1.94985582436365 20 1 0 20 0 -2 0 2 2 6.66133814775094e-15 0.44504186791263 -1.94985582436365 0.867767478235119 -1.80193773580484 1.24697960371747 -1.56366296493606 1.56366296493606 -1.24697960371746 1.80193773580484 -0.867767478235109 1.94985582436365 -0.445041867912619 1.94985582436365 0.44504186791263 1.80193773580484 0.867767478235118 1.56366296493606 1.24697960371747 1.24697960371746 1.56366296493606 0.867767478235112 1.80193773580484 0.445041867912623 1.94985582436365 1 0 16 2 1 16 1 4 16 4 5 16 5 6 16 6 7 16 7 8 16 8 9 16 9 3 16 3 10 16 10 11 16 11 12 16 12 13 16 13 14 16 14 15 16 15 2 

TShapes 73
Ve
2.00001e-07
1.22460635382238e-16 2 0
0 0

0101101
*
Ve
2.00001e-07
-3.67381906146713e-16 -2 0
0 0

0101101
*
Ed
 1e-07 1 1 0
1  1 0 1.5707963267949 4.71238898038469
2  1 1 0 1.5707963267949 4.71238898038469
2  2 2 0 1.5707963267949 4.71238898038469
6  1 2 7
6  2 1 7
0

0101000
+73 8 -72 8 *
Ed
 1e-07 1 1 0
1  2 0 0 4
2  3 1 9 0 4
2  4 3 11 0 4
6  3 1 12
6  4 3 12
0

0101000
+72 13 -73 13 *
Wi

0101000
+71 6 +70 5 *
Fa
0  1e-07 1 6
2  1
0111000
+69 0 *
Ve
2.00001e-07
1.22460635382238e-16 2 10
0 0

0101101
*
Ed
 1e-07 1 1 0
1  3 0 0 10
2  5 2 9 0 10
2  6 4 11 0 10
6  5 2 12
6  6 4 12
6  7 5 13
0

0101000
+73 13 -67 13 *
Ve
2.00001e-07
-3.67381906146713e-16 -2 10
0 0

0101101
*
Ed
 1e-07 1 1 0
1  4 0 0 10
2  7 2 9 0 10
2  8 5 11 0 10
6  8 2 12
6  9 6 12
6  10 7 13
0

0101000
+72 13 -65 13 *
Ed
 1e-07 1 1 0
1  5 0 1.5707963267949 4.71238898038469
2  9 2 0 1.5707963267949 4.71238898038469
2  10 6 15 1.5707963267949 4.71238898038469
6  11 2 7
6  12 8 7
0

0101000
+67 8 -65 8 *
Wi

0101000
+71 6 -66 5 +64 5 -63 6 *
Fa
0  1e-07 2 6
2  2
0111000
+62 0 *
Ve
1e-05
2 -4.89842541528951e-16 0
0 0

0101101
*
Ed
 1e-07 1 1 0
1  6 0 4.71238898038469 6.28318530717959
2  11 3 0 4.71238898038469 6.28318530717959
2  12 5 0 4.71238898038469 6.28318530717959
6  13 6 17
6  14 3 17
6  15 7 18
0

0101000
+72 18 -60 18 *
Ed
 1e-07 1 1 0
1  7 0 0 1.5707963267949
2  13 3 0 0 1.5707963267949
2  14 4 0 0 1.5707963267949
6  16 4 17
6  17 3 17
6  18 5 18
0

0101000
+60 18 -73 18 *
Wi

0101000
-70 5 +59 16 +58 16 *
Fa
0  1e-07 3 16
2  3
0111000
+57 0 *
Ve
2.00001e-07
1 1.73205080756888 4
0 0

0101101
*
Ve
2.00001e-07
1 1.73205080756888 10
0 0

0101101
*
Ed
 1e-07 1 1 0
1  8 0 4 10
2  15 4 19 4 10
2  16 7 20 4 10
6  19 5 0
6  20 9 0
0

0101000
+55 0 -54 0 *
Ed
 1e-07 1 1 0
1  9 0 1.0471975511966 1.5707963267949
2  17 4 0 1.0471975511966 1.5707963267949
2  18 8 15 1.0471975511966 1.5707963267949
6  21 5 18
6  22 10 18
0

0101000
+54 18 -67 18 *
Ve
2.00001e-07
2 -4.89842541528951e-16 4
0 0

0101101
*
Ed
 1e-07 1 1 0
1  10 0 0 4
2  19 4 0 0 4
2  20 5 0 0 4
4 CN 4 0 5 0
6  23 5 18
6  24 7 18
0

0101000
+60 18 -51 18 *
Ed
 1e-07 1 1 0
1  11 0 1.5707963267949 2.61799387799149
2  21 4 19 1.5707963267949 2.61799387799149
2  22 9 20 1.5707963267949 2.61799387799149
6  25 5 0
6  26 11 0
0

0101000
+51 0 -55 0 *
Wi

0101000
-53 0 -52 19 +66 21 +58 19 -50 19 -49 0 *
Fa
0  1e-07 4 19
2  5
0111000
+48 0 *
Ve
2.00001e-07
1 -1.73205080756888 4
0 0

0101101
*
Ed
 1e-07 1 1 0
1  12 0 0.523598775598299 1.5707963267949
2  23 5 19 0.523598775598299 1.5707963267949
2  24 9 20 0.523598775598299 1.5707963267949
6  27 7 0
6  28 11 0
0

0101000
+46 0 -51 0 *
Ve
2.00001e-07
1 -1.73205080756888 10
0 0

0101101
*
Ed
 1e-07 1 1 0
1  13 0 4.71238898038469 5.23598775598299
2  25 5 0 4.71238898038469 5.23598775598299
2  26 10 15 4.71238898038469 5.23598775598299
6  29 7 18
6  30 12 18
0

0101000
+65 18 -44 18 *
Ed
 1e-07 1 1 0
1  14 0 4 10
2  27 5 19 4 10
2  28 7 20 4 10
6  31 7 0
6  32 9 0
0

0101000
+46 0 -44 0 *
Wi

0101000
-45 0 +50 19 +59 19 -64 21 -43 19 +42 0 *
Fa
0  1e-07 5 19
2  7
0111000
+41 0 *
Ve
2.00001e-07
1.22460635382238e-16 2 20
0 0

0101101
*
Ed
 1e-07 1 1 0
1  15 0 0 10
2  29 6 23 0 10
2  30 8 24 0 10
6  33 8 12
6  34 13 12
6  35 10 13
0

0101000
+67 13 -39 13 *
Ve
2.00001e-07
-3.67381906146713e-16 -2 20
0 0

0101101
*
Ed
 1e-07 1 1 0
1  16 0 0 10
2  31 6 23 0 10
2  32 10 24 0 10
6  36 8 12
6  37 14 12
6  38 12 13
0

0101000
+65 13 -37 13 *
Ed
 1e-07 1 1 0
1  17 0 1.5707963267949 4.71238898038469
2  33 6 0 1.5707963267949 4.71238898038469
2  34 11 0 1.5707963267949 4.71238898038469
6  39 8 25
6  40 15 25
0

0101000
+39 26 -37 26 *
Wi

0101000
+63 6 -38 5 +36 5 -35 22 *
Fa
0  1e-07 6 22
2  8
0111000
+34 0 *
Ed
 1e-07 1 1 0
1  18 0 2.26794919243112 5.73205080756888
2  35 7 0 2.26794919243112 5.73205080756888
2  36 9 0 2.26794919243112 5.73205080756888
6  41 9 27
6  42 11 27
0

0101000
+46 27 -55 27 *
Ve
2.00001e-07
1 -1.73205080756888 14
0 0

0101101
*
Ed
 1e-07 1 1 0
1  19 0 0 4
2  37 10 28 0 4
2  38 7 20 0 4
6  43 12 0
6  44 9 0
0

0101000
+44 0 -31 0 *
Ve
2.00001e-07
1 1.73205080756888 14
0 0

0101101
*
Ed
 1e-07 1 1 0
1  20 0 2.26794919243112 5.73205080756888
2  39 7 0 2.26794919243112 5.73205080756888
2  40 12 0 2.26794919243112 5.73205080756888
6  45 9 27
6  46 16 27
0

0101000
+31 27 -29 27 *
Ed
 1e-07 1 1 0
1  21 0 0 4
2  41 8 28 0 4
2  42 7 20 0 4
6  47 10 0
6  48 9 0
0

0101000
+54 0 -29 0 *
Wi

0101000
+32 20 -42 0 -30 0 -28 20 +27 0 +53 0 *
Fa
0  1e-07 7 20
2  9
0111000
+26 0 *
Ve
2.00001e-07
2 -4.89842541528951e-16 14
0 0

0101101
*
Ed
 1e-07 1 1 0
1  22 0 1.5707963267949 2.61799387799149
2  43 8 28 1.5707963267949 2.61799387799149
2  44 12 20 1.5707963267949 2.61799387799149
6  49 10 0
6  50 16 0
0

0101000
+24 0 -29 0 *
Ve
1e-05
2 -4.89842541528951e-16 20
0 0

0101101
*
Ed
 1e-07 1 1 0
1  23 0 4 10
2  45 8 0 4 10
2  46 10 0 4 10
4 CN 8 0 10 0
6  51 10 29
6  52 12 29
0

0101000
+24 29 -22 29 *
Ed
 1e-07 1 1 0
1  24 0 0 1.5707963267949
2  47 8 0 0 1.5707963267949
2  48 13 0 0 1.5707963267949
6  53 13 30
6  54 17 30
6  55 10 29
0

0101000
+22 29 -39 29 *
Wi

0101000
-27 0 +23 0 -21 28 -20 28 +38 21 +52 19 *
Fa
0  1e-07 8 28
2  10
0111000
+19 0 *
Wi

0101000
+45 0 -32 20 +49 0 *
Fa
0  1e-07 9 20
2  11
0111000
+17 0 *
Ed
 1e-07 1 1 0
1  25 0 4.71238898038469 6.28318530717959
2  49 10 0 4.71238898038469 6.28318530717959
2  50 13 0 4.71238898038469 6.28318530717959
6  56 14 30
6  57 17 30
6  58 12 29
0

0101000
+37 29 -22 29 *
Ed
 1e-07 1 1 0
1  26 0 0.523598775598299 1.5707963267949
2  51 10 28 0.523598775598299 1.5707963267949
2  52 12 20 0.523598775598299 1.5707963267949
6  59 12 0
6  60 16 0
0

0101000
+31 0 -24 0 *
Wi

0101000
+43 19 -36 21 -15 28 +21 28 +14 0 +30 0 *
Fa
0  1e-07 10 28
2  12
0111000
+13 0 *
Ed
 1e-07 1 1 0
1  27 0 0 4
2  53 11 23 0 4
2  54 13 24 0 4
6  61 15 12
6  62 17 12
0

0101000
+37 13 -39 13 *
Wi

0101000
+35 22 +11 5 *
Fa
0  1e-07 11 22
2  15
0111000
+10 0 *
Wi

0101000
+14 0 -28 20 +23 0 *
Fa
0  1e-07 12 20
2  16
0111000
+8 0 *
Wi

0101000
-11 5 +15 31 +20 31 *
Fa
0  1e-07 13 31
2  17
0111000
+6 0 *
Sh

0101000
-68 2 +61 2 -56 2 +47 0 +40 0 +33 2 +25 0 +18 0 +16 0 +12 0 
+9 2 -7 0 +5 2 *
So

0100000
+4 0 *
Co

0100000
+3 0 *
Co

1100000
+2 1 *

+1 0 