DBRep_DrawableShape

CASCADE Topology V1, (c) Matra-Datavision
Locations 18
1
              1               0               0               0 
              0               1               0               0 
              0               0               1               0 
1
              1               0               0               0 
              0               1               0               0 
              0               0               1               0 
1
              1               0               0               0 
              0               1               0               0 
              0               0               1               0 
2  2 1 3 1 0
2  2 -1 0
2  1 -1 3 -1 2 -1 0
1
              1               0               0               0 
              0               1               0               0 
              0               0               1               5 
2  2 1 7 -1 0
2  7 -1 0
2  3 -1 7 -1 0
2  1 -1 3 -1 7 -1 0
1
              1               0               0            -6.5 
              0               1               0              -8 
              0               0               1               6 
2  1 -1 0
2  7 1 3 1 0
2  3 -1 2 -1 0
2  7 1 2 -1 0
2  12 -1 0
2  1 -1 12 -1 0
Curve2ds 32
2 0 0 1 0 -0 1 2
1 0 0 1 0 
1 0 5 1 0 
1 0 5 1 0 
1 6.2831853071795862 -0 0 1 
1 0 -0 0 1 
8 5.75 8.75
1 4.6498482185881986 0 0 1 
8 5.75 8.75
1 -6 -6.0039100721660859 1 0 
1 -1.5707963267948966 8.5 1 0 
2 6.5 8 0 -1 1 0 2
8 5.75 8.75
1 3.2041334153862846 0 0 1 
8 5.75 8.75
1 -6 4.5039100721660859 1 0 
1 -1.5707963267948966 6 1 0 
2 6.5 8 0 -1 1 0 2
1 6.2831853071795862 -0 0 1 
1 0 -0 0 1 
1 0 10 1 0 
1 0 5 1 0 
1 2.5 0 0 -1 
1 6.375 0 0 1 
1 0 -7.875 1 0 
1 0 6.375 1 0 
1 0 0 0 -1 
1 6.375 0 0 1 
1 0 7.875 1 0 
1 2.5 0 0 1 
1 0 0 0 1 
1 0 7.875 1 0 
1 6.2831853071795862 -0 0 1 
1 0 -0 0 1 
1 0 10 1 0 
2 0 0 1 0 -0 1 2
Curves 16
2 0 0 0 0 0 1 1 0 -0 -0 1 0 2
2 0 0 0 0 0 1 1 0 -0 -0 1 0 2
1 2 -4.898425415289509e-16 0 0 0 1 
1 -0.125 -1.9960899278339139 0 0 0 1 
2 0 0 8.5 0 0 1 0 -1 0 1 0 -0 2
1 -1.9960899278339139 -0.125 0 0 0 1 
2 0 0 6 0 0 1 0 -1 0 1 0 -0 2
1 2 -4.898425415289509e-16 0 0 0 1 
2 0 0 10 0 0 1 1 0 -0 -0 1 0 2
1 6.375 0 2.5 0 1 0 
1 6.375 7.875 0 0 0 1 
1 6.375 0 0 -0 1 0 
1 0 7.875 2.5 1 0 -0 
1 0 7.875 0 1 0 -0 
1 2 -4.898425415289509e-16 0 0 0 1 
2 0 0 10 0 0 1 1 0 -0 -0 1 0 2
Polygon3D 0
PolygonOnTriangulations 32
26 28 29 30 31 32 33 34 35 36 37 38 39 40 41 42 43 44 45 46 47 48 49 50 51 52 27 
p 0.0394318960038986 1 0 0.251327412287184 0.502654824574367 0.753982236861551 1.00530964914873 1.25663706143592 1.5079644737231 1.75929188601029 2.01061929829747 2.26194671058465 2.51327412287184 2.76460153515902 3.0159289474462 3.26725635973339 3.51858377202057 3.76991118430776 4.02123859659494 4.27256600888212 4.52389342116931 4.77522083345649 5.02654824574367 5.27787565803086 5.52920307031804 5.78053048260523 6.03185789489241 6.28318530717959 
26 1 2 3 4 5 6 7 8 9 10 11 12 13 14 15 16 17 18 19 20 21 22 23 24 25 1 
p 0.0394318960038986 1 0 0.251327412287184 0.502654824574367 0.753982236861551 1.00530964914873 1.25663706143592 1.5079644737231 1.75929188601029 2.01061929829747 2.26194671058465 2.51327412287184 2.76460153515902 3.0159289474462 3.26725635973339 3.51858377202057 3.76991118430776 4.02123859659494 4.27256600888212 4.52389342116931 4.77522083345649 5.02654824574367 5.27787565803086 5.52920307031804 5.78053048260523 6.03185789489241 6.28318530717959 
26 1 3 4 5 6 7 8 9 10 11 12 13 14 15 16 17 18 19 20 21 22 23 24 25 26 2 
p 0.0394318960038986 1 0 0.251327412287184 0.502654824574367 0.753982236861551 1.00530964914873 1.25663706143592 1.5079644737231 1.75929188601029 2.01061929829747 2.26194671058465 2.51327412287184 2.76460153515902 3.0159289474462 3.26725635973339 3.51858377202057 3.76991118430776 4.02123859659494 4.27256600888212 4.52389342116931 4.77522083345649 5.02654824574367 5.27787565803086 5.52920307031804 5.78053048260523 6.03185789489241 6.28318530717959 
26 13 15 16 17 18 19 20 21 22 23 24 25 26 27 28 29 30 31 32 33 34 35 36 37 38 14 
p 0.0394318960038986 1 0 0.251327412287184 0.502654824574367 0.753982236861551 1.00530964914873 1.25663706143592 1.5079644737231 1.75929188601029 2.01061929829747 2.26194671058465 2.51327412287184 2.76460153515902 3.0159289474462 3.26725635973339 3.51858377202057 3.76991118430776 4.02123859659494 4.27256600888212 4.52389342116931 4.77522083345649 5.02654824574367 5.27787565803086 5.52920307031804 5.78053048260523 6.03185789489241 6.28318530717959 
2 27 2 
p 0.0394318960038986 1 0 5 
2 28 1 
p 0.0394318960038986 1 0 5 
2 1 2 
p 0.0394318960038986 1 6 8.5 
2 1 2 
p 0.0394318960038986 1 6 8.5 
6 3 4 5 6 7 2 
p 0.0394318960038986 1 4.77492974218118 5.06407270282156 5.35321566346194 5.64235862410233 5.93150158474271 6.22064454538309 
6 1 4 5 6 7 3 
p 0.0394318960038986 1 4.77492974218118 5.06407270282156 5.35321566346194 5.64235862410233 5.93150158474271 6.22064454538309 
2 8 3 
p 0.0394318960038986 1 6 8.5 
2 1 4 
p 0.0394318960038986 1 6 8.5 
6 8 9 10 11 12 1 
p 0.0394318960038986 1 4.77492974218118 5.06407270282156 5.35321566346194 5.64235862410233 5.93150158474271 6.22064454538309 
6 1 4 5 6 7 3 
p 0.0394318960038986 1 4.77492974218118 5.06407270282156 5.35321566346194 5.64235862410233 5.93150158474271 6.22064454538309 
2 14 40 
p 0.0394318960038986 1 5 10 
2 13 39 
p 0.0394318960038986 1 5 10 
26 39 41 42 43 44 45 46 47 48 49 50 51 52 53 54 55 56 57 58 59 60 61 62 63 64 40 
p 0.0394318960038986 1 0 0.251327412287184 0.502654824574367 0.753982236861551 1.00530964914873 1.25663706143592 1.5079644737231 1.75929188601029 2.01061929829747 2.26194671058465 2.51327412287184 2.76460153515902 3.0159289474462 3.26725635973339 3.51858377202057 3.76991118430776 4.02123859659494 4.27256600888212 4.52389342116931 4.77522083345649 5.02654824574367 5.27787565803086 5.52920307031804 5.78053048260523 6.03185789489241 6.28318530717959 
26 3 4 5 6 7 8 9 10 11 12 13 14 15 16 17 18 19 20 21 22 23 24 25 26 27 1 
p 0.0394318960038986 1 0 0.251327412287184 0.502654824574367 0.753982236861551 1.00530964914873 1.25663706143592 1.5079644737231 1.75929188601029 2.01061929829747 2.26194671058465 2.51327412287184 2.76460153515902 3.0159289474462 3.26725635973339 3.51858377202057 3.76991118430776 4.02123859659494 4.27256600888212 4.52389342116931 4.77522083345649 5.02654824574367 5.27787565803086 5.52920307031804 5.78053048260523 6.03185789489241 6.28318530717959 
2 2 3 
p 0.0394318960038986 1 6.00391007216609 7.875 
2 3 2 
p 0.0394318960038986 1 6.00391007216609 7.875 
2 4 3 
p 0.0394318960038986 1 0 2.5 
2 2 3 
p 0.0394318960038986 1 0 2.5 
2 1 4 
p 0.0394318960038986 1 6.00391007216609 7.875 
2 3 2 
p 0.0394318960038986 1 6.00391007216609 7.875 
2 1 2 
p 0.0394318960038986 1 4.50391007216609 6.375 
2 4 3 
p 0.0394318960038986 1 4.50391007216609 6.375 
2 1 2 
p 0.0394318960038986 1 4.50391007216609 6.375 
2 1 2 
p 0.0394318960038986 1 4.50391007216609 6.375 
2 1 2 
p 0.0394318960038986 1 5 10 
2 3 28 
p 0.0394318960038986 1 5 10 
26 28 29 30 31 32 33 34 35 36 37 38 39 40 41 42 43 44 45 46 47 48 49 50 51 52 2 
p 0.0394318960038986 1 0 0.251327412287184 0.502654824574367 0.753982236861551 1.00530964914873 1.25663706143592 1.5079644737231 1.75929188601029 2.01061929829747 2.26194671058465 2.51327412287184 2.76460153515902 3.0159289474462 3.26725635973339 3.51858377202057 3.76991118430776 4.02123859659494 4.27256600888212 4.52389342116931 4.77522083345649 5.02654824574367 5.27787565803086 5.52920307031804 5.78053048260523 6.03185789489241 6.28318530717959 
26 1 2 3 4 5 6 7 8 9 10 11 12 13 14 15 16 17 18 19 20 21 22 23 24 25 1 
p 0.0394318960038986 1 0 0.251327412287184 0.502654824574367 0.753982236861551 1.00530964914873 1.25663706143592 1.5079644737231 1.75929188601029 2.01061929829747 2.26194671058465 2.51327412287184 2.76460153515902 3.0159289474462 3.26725635973339 3.51858377202057 3.76991118430776 4.02123859659494 4.27256600888212 4.52389342116931 4.77522083345649 5.02654824574367 5.27787565803086 5.52920307031804 5.78053048260523 6.03185789489241 6.28318530717959 
Surfaces 9
1 0 0 0 0 0 1 1 0 -0 -0 1 0 
2 0 0 0 0 0 1 1 0 -0 -0 1 0 2
2 0 0 0 0 0 1 1 0 -0 -0 1 0 2
1 6.375 0 0 1 0 -0 0 0 1 0 -1 0 
1 0 0 2.5 0 0 1 1 0 -0 -0 1 0 
1 0 7.875 0 -0 1 0 0 0 1 1 0 -0 
1 0 0 0 0 0 1 1 0 -0 -0 1 0 
2 0 0 0 0 0 1 1 0 -0 -0 1 0 2
1 0 0 10 0 0 1 1 0 -0 -0 1 0 
Triangulations 9
26 25 1 2.22044604925031e-16
2 -4.89842541528951e-16 0 1.93716632225726 0.49737977432971 0 1.75261336008773 0.963507348203431 0 1.45793725484282 1.36909421185738 0 1.07165358995799 1.68865585100403 0 0.618033988749894 1.90211303259031 0 0.125581039058625 1.99605345685654 0 -0.374762629171451 1.96457450145738 0 -0.851558583130147 1.80965410493204 0 -1.27484797949738 1.54102648555158 0 -1.6180339887499 1.17557050458494 0 -1.8595529717765 0.736249105369352 0 -1.98422940262896 0.250666467128604 0 -1.98422940262896 -0.250666467128614 0 -1.8595529717765 -0.736249105369362 0 -1.61803398874989 -1.17557050458495 0 -1.27484797949737 -1.54102648555158 0 -0.851558583130138 -1.80965410493204 0 -0.374762629171441 -1.96457450145738 0 0.125581039058636 -1.99605345685654 0 0.618033988749905 -1.9021130325903 0 1.071653589958 -1.68865585100402 0 1.45793725484283 -1.36909421185737 0 1.75261336008773 -0.96350734820342 0 1.93716632225727 -0.497379774329697 0 0.0078852986855219 3.33066907387547e-16 0 2 0 1.93716632225726 0.49737977432971 1.75261336008773 0.963507348203431 1.45793725484282 1.36909421185738 1.07165358995799 1.68865585100403 0.618033988749894 1.90211303259031 0.125581039058625 1.99605345685654 -0.374762629171451 1.96457450145738 -0.851558583130147 1.80965410493204 -1.27484797949738 1.54102648555158 -1.6180339887499 1.17557050458494 -1.8595529717765 0.736249105369352 -1.98422940262896 0.250666467128604 -1.98422940262896 -0.250666467128614 -1.8595529717765 -0.736249105369362 -1.61803398874989 -1.17557050458495 -1.27484797949737 -1.54102648555158 -0.851558583130138 -1.80965410493204 -0.374762629171441 -1.96457450145738 0.125581039058636 -1.99605345685654 0.618033988749904 -1.9021130325903 1.071653589958 -1.68865585100402 1.45793725484283 -1.36909421185737 1.75261336008773 -0.96350734820342 1.93716632225727 -0.497379774329697 0.00788529868552179 2.22044604925031e-16 26 1 2 26 2 3 26 3 4 26 4 5 26 5 6 26 6 7 26 7 8 26 8 9 26 9 10 26 10 11 26 11 12 26 12 13 26 13 14 26 14 15 26 15 16 26 16 17 26 17 18 26 18 19 26 19 20 26 20 21 26 21 22 26 22 23 26 23 24 26 24 25 26 25 1 
52 50 1 0.0157705973710445
2 -4.89842541528951e-16 5 2 -4.89842541528951e-16 5 1.93716632225726 0.49737977432971 5 1.75261336008773 0.963507348203431 5 1.45793725484282 1.36909421185738 5 1.07165358995799 1.68865585100403 5 0.618033988749894 1.90211303259031 5 0.125581039058625 1.99605345685654 5 -0.374762629171451 1.96457450145738 5 -0.851558583130147 1.80965410493204 5 -1.27484797949738 1.54102648555158 5 -1.6180339887499 1.17557050458494 5 -1.8595529717765 0.736249105369352 5 -1.98422940262896 0.250666467128604 5 -1.98422940262896 -0.250666467128614 5 -1.8595529717765 -0.736249105369362 5 -1.61803398874989 -1.17557050458495 5 -1.27484797949737 -1.54102648555158 5 -0.851558583130138 -1.80965410493204 5 -0.374762629171441 -1.96457450145738 5 0.125581039058636 -1.99605345685654 5 0.618033988749905 -1.9021130325903 5 1.071653589958 -1.68865585100402 5 1.45793725484283 -1.36909421185737 5 1.75261336008773 -0.96350734820342 5 1.93716632225727 -0.497379774329697 5 2 -4.89842541528951e-16 0 2 -4.89842541528951e-16 0 1.93716632225726 0.49737977432971 0 1.75261336008773 0.963507348203431 0 1.45793725484282 1.36909421185738 0 1.07165358995799 1.68865585100403 0 0.618033988749894 1.90211303259031 0 0.125581039058625 1.99605345685654 0 -0.374762629171451 1.96457450145738 0 -0.851558583130147 1.80965410493204 0 -1.27484797949738 1.54102648555158 0 -1.6180339887499 1.17557050458494 0 -1.8595529717765 0.736249105369352 0 -1.98422940262896 0.250666467128604 0 -1.98422940262896 -0.250666467128614 0 -1.8595529717765 -0.736249105369362 0 -1.61803398874989 -1.17557050458495 0 -1.27484797949737 -1.54102648555158 0 -0.851558583130138 -1.80965410493204 0 -0.374762629171441 -1.96457450145738 0 0.125581039058636 -1.99605345685654 0 0.618033988749905 -1.9021130325903 0 1.071653589958 -1.68865585100402 0 1.45793725484283 -1.36909421185737 0 1.75261336008773 -0.96350734820342 0 1.93716632225727 -0.497379774329697 0 0 5 6.28318530717959 5 0.251327412287184 5 0.502654824574367 5 0.753982236861551 5 1.00530964914873 5 1.25663706143592 5 1.5079644737231 5 1.75929188601029 5 2.01061929829747 5 2.26194671058465 5 2.51327412287184 5 2.76460153515902 5 3.0159289474462 5 3.26725635973339 5 3.51858377202057 5 3.76991118430776 5 4.02123859659494 5 4.27256600888212 5 4.52389342116931 5 4.77522083345649 5 5.02654824574367 5 5.27787565803086 5 5.52920307031804 5 5.78053048260523 5 6.03185789489241 5 6.28318530717959 0 0 0 0.251327412287184 0 0.502654824574367 0 0.753982236861551 0 1.00530964914873 0 1.25663706143592 0 1.5079644737231 0 1.75929188601029 0 2.01061929829747 0 2.26194671058465 0 2.51327412287184 0 2.76460153515902 0 3.0159289474462 0 3.26725635973339 0 3.51858377202057 0 3.76991118430776 0 4.02123859659494 0 4.27256600888212 0 4.52389342116931 0 4.77522083345649 0 5.02654824574367 0 5.27787565803086 0 5.52920307031804 0 5.78053048260523 0 6.03185789489241 0 22 21 47 22 47 48 22 48 49 1 28 29 23 22 49 3 29 30 3 1 29 24 23 49 24 49 50 4 3 30 25 50 51 25 24 50 25 51 52 5 30 31 5 31 32 5 4 30 26 52 27 26 25 52 2 26 27 6 5 32 7 32 33 7 6 32 8 33 34 8 7 33 9 34 35 9 8 34 10 35 36 10 36 37 10 9 35 11 10 37 12 37 38 12 38 39 12 11 37 13 12 39 14 39 40 14 13 39 15 14 40 15 40 41 16 15 41 16 41 42 17 16 42 17 42 43 17 43 44 18 17 44 19 18 44 19 44 45 20 19 45 20 45 46 21 20 46 21 46 47 
64 64 1 0.0173770792535486
-0.125 -1.99608992783391 6 -0.125 -1.99608992783391 8.5 -1.99608992783391 -0.125 8.5 -1.87758807372937 -0.688957927154656 8.5 -1.60320358499452 -1.19571663242622 8.5 -1.19571663242623 -1.60320358499452 8.5 -0.688957927154665 -1.87758807372936 8.5 -1.99608992783391 -0.125 6 -1.87758807372937 -0.688957927154656 6 -1.60320358499452 -1.19571663242622 6 -1.19571663242623 -1.60320358499452 6 -0.688957927154665 -1.87758807372936 6 2 -4.89842541528951e-16 5 2 -4.89842541528951e-16 5 1.93716632225726 0.49737977432971 5 1.75261336008773 0.963507348203431 5 1.45793725484282 1.36909421185738 5 1.07165358995799 1.68865585100403 5 0.618033988749894 1.90211303259031 5 0.125581039058625 1.99605345685654 5 -0.374762629171451 1.96457450145738 5 -0.851558583130147 1.80965410493204 5 -1.27484797949738 1.54102648555158 5 -1.6180339887499 1.17557050458494 5 -1.8595529717765 0.736249105369352 5 -1.98422940262896 0.250666467128604 5 -1.98422940262896 -0.250666467128614 5 -1.8595529717765 -0.736249105369362 5 -1.61803398874989 -1.17557050458495 5 -1.27484797949737 -1.54102648555158 5 -0.851558583130138 -1.80965410493204 5 -0.374762629171441 -1.96457450145738 5 0.125581039058636 -1.99605345685654 5 0.618033988749905 -1.9021130325903 5 1.071653589958 -1.68865585100402 5 1.45793725484283 -1.36909421185737 5 1.75261336008773 -0.96350734820342 5 1.93716632225727 -0.497379774329697 5 2 -4.89842541528951e-16 10 2 -4.89842541528951e-16 10 1.93716632225726 0.49737977432971 10 1.75261336008773 0.963507348203431 10 1.45793725484282 1.36909421185738 10 1.07165358995799 1.68865585100403 10 0.618033988749894 1.90211303259031 10 0.125581039058625 1.99605345685654 10 -0.374762629171451 1.96457450145738 10 -0.851558583130147 1.80965410493204 10 -1.27484797949738 1.54102648555158 10 -1.6180339887499 1.17557050458494 10 -1.8595529717765 0.736249105369352 10 -1.98422940262896 0.250666467128604 10 -1.98422940262896 -0.250666467128614 10 -1.8595529717765 -0.736249105369362 10 -1.61803398874989 -1.17557050458495 10 -1.27484797949737 -1.54102648555158 10 -0.851558583130138 -1.80965410493204 10 -0.374762629171441 -1.96457450145738 10 0.125581039058636 -1.99605345685654 10 0.618033988749905 -1.9021130325903 10 1.071653589958 -1.68865585100402 10 1.45793725484283 -1.36909421185737 10 1.75261336008773 -0.96350734820342 10 1.93716632225727 -0.497379774329697 10 4.6498482185882 6 4.6498482185882 8.5 3.20413341538628 8.5 3.49327637602667 8.5 3.78241933666705 8.5 4.07156229730743 8.5 4.36070525794781 8.5 3.20413341538628 6 3.49327637602667 6 3.78241933666705 6 4.07156229730743 6 4.36070525794781 6 0 5 6.28318530717959 5 0.251327412287184 5 0.502654824574367 5 0.753982236861551 5 1.00530964914873 5 1.25663706143592 5 1.5079644737231 5 1.75929188601029 5 2.01061929829747 5 2.26194671058465 5 2.51327412287184 5 2.76460153515902 5 3.0159289474462 5 3.26725635973339 5 3.51858377202057 5 3.76991118430776 5 4.02123859659494 5 4.27256600888212 5 4.52389342116931 5 4.77522083345649 5 5.02654824574367 5 5.27787565803086 5 5.52920307031804 5 5.78053048260523 5 6.03185789489241 5 0 10 6.28318530717959 10 0.251327412287184 10 0.502654824574367 10 0.753982236861551 10 1.00530964914873 10 1.25663706143592 10 1.5079644737231 10 1.75929188601029 10 2.01061929829747 10 2.26194671058465 10 2.51327412287184 10 2.76460153515902 10 3.0159289474462 10 3.26725635973339 10 3.51858377202057 10 3.76991118430776 10 4.02123859659494 10 4.27256600888212 10 4.52389342116931 10 4.77522083345649 10 5.02654824574367 10 5.27787565803086 10 5.52920307031804 10 5.78053048260523 10 6.03185789489241 10 56 5 6 56 55 5 39 13 15 12 11 31 41 15 16 41 39 15 32 12 31 42 41 16 57 6 7 57 56 6 43 16 17 43 17 18 43 42 16 1 12 32 33 1 32 58 57 7 44 43 18 45 18 19 2 1 33 45 44 18 2 58 7 46 19 20 59 2 33 46 45 19 59 58 2 60 33 34 47 20 21 60 34 35 60 59 33 47 46 20 48 21 22 61 60 35 48 22 23 48 47 21 62 35 36 49 48 23 62 61 35 63 36 37 63 37 38 50 49 23 63 62 36 50 23 24 50 24 25 64 38 14 64 63 38 51 50 25 40 64 14 8 26 27 52 51 25 52 25 26 3 26 8 3 52 26 9 8 27 9 27 28 53 52 3 4 53 3 10 28 29 10 9 28 54 53 4 30 10 29 5 54 4 11 10 30 55 54 5 31 11 30 
4 2 1 1.66533453693773e-15
-0.125 -1.99608992783391 6 -0.125 -1.99608992783391 8.5 -0.125 -0.125 8.5 -0.125 -0.125 6 0 -6.00391007216609 2.5 -6.00391007216609 2.5 -7.875 0 -7.875 2 4 3 2 1 4 
8 7 1 4.9960036108132e-16
-1.99608992783391 -0.125 8.5 -0.125 -0.125 8.5 -0.125 -1.99608992783391 8.5 -1.87758807372937 -0.688957927154656 8.5 -1.60320358499452 -1.19571663242622 8.5 -1.19571663242623 -1.60320358499452 8.5 -0.688957927154665 -1.87758807372936 8.5 -1.06054496391696 -1.06054496391696 8.5 4.50391007216609 7.875 6.375 7.875 6.375 6.00391007216609 4.62241192627063 7.31104207284534 4.89679641500548 6.80428336757378 5.30428336757377 6.39679641500548 5.81104207284533 6.12241192627063 5.43945503608304 6.93945503608304 8 2 1 8 3 2 8 1 4 8 4 5 8 5 6 8 6 7 8 7 3 
4 2 1 3.33066907387547e-16
-1.99608992783391 -0.125 6 -0.125 -0.125 6 -0.125 -0.125 8.5 -1.99608992783391 -0.125 8.5 0 4.50391007216609 0 6.375 2.5 6.375 2.5 4.50391007216609 3 2 1 3 1 4 
8 7 1 4.9960036108132e-16
-1.99608992783391 -0.125 6 -0.125 -0.125 6 -0.125 -1.99608992783391 6 -1.87758807372937 -0.688957927154656 6 -1.60320358499452 -1.19571663242622 6 -1.19571663242623 -1.60320358499452 6 -0.688957927154665 -1.87758807372936 6 -1.06054496391696 -1.06054496391696 6 4.50391007216609 7.875 6.375 7.875 6.375 6.00391007216609 4.62241192627063 7.31104207284534 4.89679641500548 6.80428336757378 5.30428336757377 6.39679641500548 5.81104207284533 6.12241192627063 5.43945503608304 6.93945503608304 8 2 1 8 3 2 8 1 4 8 4 5 8 5 6 8 6 7 8 7 3 
52 50 1 0.0157705973710445
2 -4.89842541528951e-16 10 2 -4.89842541528951e-16 15 2 -4.89842541528951e-16 10 1.93716632225726 0.49737977432971 10 1.75261336008773 0.963507348203431 10 1.45793725484282 1.36909421185738 10 1.07165358995799 1.68865585100403 10 0.618033988749894 1.90211303259031 10 0.125581039058625 1.99605345685654 10 -0.374762629171451 1.96457450145738 10 -0.851558583130147 1.80965410493204 10 -1.27484797949738 1.54102648555158 10 -1.6180339887499 1.17557050458494 10 -1.8595529717765 0.736249105369352 10 -1.98422940262896 0.250666467128604 10 -1.98422940262896 -0.250666467128614 10 -1.8595529717765 -0.736249105369362 10 -1.61803398874989 -1.17557050458495 10 -1.27484797949737 -1.54102648555158 10 -0.851558583130138 -1.80965410493204 10 -0.374762629171441 -1.96457450145738 10 0.125581039058636 -1.99605345685654 10 0.618033988749905 -1.9021130325903 10 1.071653589958 -1.68865585100402 10 1.45793725484283 -1.36909421185737 10 1.75261336008773 -0.96350734820342 10 1.93716632225727 -0.497379774329697 10 2 -4.89842541528951e-16 15 1.93716632225726 0.49737977432971 15 1.75261336008773 0.963507348203431 15 1.45793725484282 1.36909421185738 15 1.07165358995799 1.68865585100403 15 0.618033988749894 1.90211303259031 15 0.125581039058625 1.99605345685654 15 -0.374762629171451 1.96457450145738 15 -0.851558583130147 1.80965410493204 15 -1.27484797949738 1.54102648555158 15 -1.6180339887499 1.17557050458494 15 -1.8595529717765 0.736249105369352 15 -1.98422940262896 0.250666467128604 15 -1.98422940262896 -0.250666467128614 15 -1.8595529717765 -0.736249105369362 15 -1.61803398874989 -1.17557050458495 15 -1.27484797949737 -1.54102648555158 15 -0.851558583130138 -1.80965410493204 15 -0.374762629171441 -1.96457450145738 15 0.125581039058636 -1.99605345685654 15 0.618033988749905 -1.9021130325903 15 1.071653589958 -1.68865585100402 15 1.45793725484283 -1.36909421185737 15 1.75261336008773 -0.96350734820342 15 1.93716632225727 -0.497379774329697 15 6.28318530717959 5 6.28318530717959 10 0 5 0.251327412287184 5 0.502654824574367 5 0.753982236861551 5 1.00530964914873 5 1.25663706143592 5 1.5079644737231 5 1.75929188601029 5 2.01061929829747 5 2.26194671058465 5 2.51327412287184 5 2.76460153515902 5 3.0159289474462 5 3.26725635973339 5 3.51858377202057 5 3.76991118430776 5 4.02123859659494 5 4.27256600888212 5 4.52389342116931 5 4.77522083345649 5 5.02654824574367 5 5.27787565803086 5 5.52920307031804 5 5.78053048260523 5 6.03185789489241 5 0 10 0.251327412287184 10 0.502654824574367 10 0.753982236861551 10 1.00530964914873 10 1.25663706143592 10 1.5079644737231 10 1.75929188601029 10 2.01061929829747 10 2.26194671058465 10 2.51327412287184 10 2.76460153515902 10 3.0159289474462 10 3.26725635973339 10 3.51858377202057 10 3.76991118430776 10 4.02123859659494 10 4.27256600888212 10 4.52389342116931 10 4.77522083345649 10 5.02654824574367 10 5.27787565803086 10 5.52920307031804 10 5.78053048260523 10 6.03185789489241 10 48 22 23 48 23 24 48 47 22 28 3 4 49 48 24 29 4 5 29 28 4 50 24 25 50 49 24 30 29 5 51 25 26 51 26 27 51 50 25 31 5 6 31 6 7 52 27 1 31 30 5 52 51 27 2 52 1 32 31 7 33 7 8 33 32 7 34 8 9 34 33 8 35 9 10 35 34 9 36 10 11 36 11 12 36 35 10 37 36 12 38 12 13 38 13 14 38 37 12 39 38 14 40 14 15 40 39 14 41 40 15 41 15 16 42 41 16 42 16 17 43 42 17 43 17 18 43 18 19 44 43 19 45 19 20 45 44 19 46 20 21 46 45 20 47 21 22 47 46 21 
26 25 1 2.22044604925031e-16
2 -4.89842541528951e-16 10 1.93716632225726 0.49737977432971 10 1.75261336008773 0.963507348203431 10 1.45793725484282 1.36909421185738 10 1.07165358995799 1.68865585100403 10 0.618033988749894 1.90211303259031 10 0.125581039058625 1.99605345685654 10 -0.374762629171451 1.96457450145738 10 -0.851558583130147 1.80965410493204 10 -1.27484797949738 1.54102648555158 10 -1.6180339887499 1.17557050458494 10 -1.8595529717765 0.736249105369352 10 -1.98422940262896 0.250666467128604 10 -1.98422940262896 -0.250666467128614 10 -1.8595529717765 -0.736249105369362 10 -1.61803398874989 -1.17557050458495 10 -1.27484797949737 -1.54102648555158 10 -0.851558583130138 -1.80965410493204 10 -0.374762629171441 -1.96457450145738 10 0.125581039058636 -1.99605345685654 10 0.618033988749905 -1.9021130325903 10 1.071653589958 -1.68865585100402 10 1.45793725484283 -1.36909421185737 10 1.75261336008773 -0.96350734820342 10 1.93716632225727 -0.497379774329697 10 0.0078852986855219 3.33066907387547e-16 10 2 0 1.93716632225726 0.49737977432971 1.75261336008773 0.963507348203431 1.45793725484282 1.36909421185738 1.07165358995799 1.68865585100403 0.618033988749894 1.90211303259031 0.125581039058625 1.99605345685654 -0.374762629171451 1.96457450145738 -0.851558583130147 1.80965410493204 -1.27484797949738 1.54102648555158 -1.6180339887499 1.17557050458494 -1.8595529717765 0.736249105369352 -1.98422940262896 0.250666467128604 -1.98422940262896 -0.250666467128614 -1.8595529717765 -0.736249105369362 -1.61803398874989 -1.17557050458495 -1.27484797949737 -1.54102648555158 -0.851558583130138 -1.80965410493204 -0.374762629171441 -1.96457450145738 0.125581039058636 -1.99605345685654 0.618033988749904 -1.9021130325903 1.071653589958 -1.68865585100402 1.45793725484283 -1.36909421185737 1.75261336008773 -0.96350734820342 1.93716632225727 -0.497379774329697 0.00788529868552179 2.22044604925031e-16 26 1 2 26 2 3 26 3 4 26 4 5 26 5 6 26 6 7 26 7 8 26 8 9 26 9 10 26 10 11 26 11 12 26 12 13 26 13 14 26 14 15 26 15 16 26 16 17 26 17 18 26 18 19 26 19 20 26 20 21 26 21 22 26 22 23 26 23 24 26 24 25 26 25 1 

TShapes 49
Ve
1e-07
2 -4.89842541528951e-16 0
0 0

0101101
*
Ed
 1e-07 1 1 0
1  1 0 0 6.28318530717959
2  1 1 0 0 6.28318530717959
2  2 2 0 0 6.28318530717959
6  1 2 5
6  2 1 0
0

0101100
+49 6 -49 6 *
Wi

0101000
-48 0 *
Fa
0  1e-07 1 0
2  1
0101000
-47 0 *
Ve
1e-07
2 -4.89842541528951e-16 5
0 0

0101101
*
Ed
 1e-07 1 1 0
1  2 0 0 6.28318530717959
2  3 2 8 0 6.28318530717959
2  4 3 8 0 6.28318530717959
6  3 2 9
6  4 3 10
0

0101100
+45 11 -45 11 *
Ed
 1e-07 1 1 0
1  3 0 0 5
3  5 6CN 2 0 0 5
7  5 6 2 5
0

0101000
+49 6 -45 6 *
Wi

0101000
-44 7 +43 2 +48 2 -43 2 *
Fa
0  1e-07 2 2
2  2
0101000
+42 0 *
Ve
2.00001e-07
-0.125 -1.99608992783391 6
0 0

0101101
*
Ve
2.00001e-07
-0.125 -1.99608992783391 8.5
0 0

0101101
*
Ed
 1e-07 1 1 0
1  4 0 6 8.5
2  7 3 4 6 8.5
2  8 4 12 6 8.5
6  7 3 0
6  8 4 0
0

0101000
+40 13 -39 13 *
Ve
2.00001e-07
-1.99608992783391 -0.125 8.5
0 0

0101101
*
Ed
 1e-07 1 1 0
1  5 0 4.77492974218118 6.22064454538309
2  9 3 4 4.77492974218118 6.22064454538309
2  10 5 12 4.77492974218118 6.22064454538309
6  9 3 0
6  10 5 0
0

0101000
+37 13 -39 13 *
Ve
2.00001e-07
-1.99608992783391 -0.125 6
0 0

0101101
*
Ed
 1e-07 1 1 0
1  6 0 6 8.5
2  11 3 4 6 8.5
2  12 6 12 6 8.5
6  11 3 0
6  12 6 0
0

0101000
+35 13 -37 13 *
Ed
 1e-07 1 1 0
1  7 0 4.77492974218118 6.22064454538309
2  13 3 4 4.77492974218118 6.22064454538309
2  14 7 12 4.77492974218118 6.22064454538309
6  13 3 0
6  14 7 0
0

0101000
+35 13 -40 13 *
Wi

0101000
-38 0 +36 0 +34 0 -33 0 *
Ve
1e-07
2 -4.89842541528951e-16 10
0 0

0101101
*
Ed
 1e-07 1 1 0
1  8 0 5 10
3  15 16CN 3 0 5 10
7  15 16 3 15
0

0101000
+45 6 -31 6 *
Ed
 1e-07 1 1 0
1  9 0 0 6.28318530717959
2  17 3 0 0 6.28318530717959
2  18 8 16 0 6.28318530717959
6  17 3 15
6  18 8 5
0

0101100
+31 6 -31 6 *
Wi

0101000
+44 14 -30 4 -29 4 +30 4 *
Fa
0  1e-07 3 4
2  3
0101000
+32 0 +28 0 *
Ve
1e-07
-0.125 -0.125 8.5
0 0

0101101
*
Ed
 1e-07 1 1 0
1  10 0 6.00391007216609 7.875
2  19 4 0 6.00391007216609 7.875
2  20 5 0 6.00391007216609 7.875
6  19 4 17
6  20 5 17
0

0101000
+39 18 -26 18 *
Ve
1e-07
-0.125 -0.125 6
0 0

0101101
*
Ed
 1e-07 1 1 0
1  11 0 0 2.5
2  21 4 0 0 2.5
2  22 6 0 0 2.5
6  21 4 17
6  22 6 17
0

0101000
-26 18 +24 18 *
Ed
 1e-07 1 1 0
1  12 0 6.00391007216609 7.875
2  23 4 0 6.00391007216609 7.875
2  24 7 0 6.00391007216609 7.875
6  23 4 17
6  24 7 17
0

0101000
+40 18 -24 18 *
Wi

0101000
-38 0 -25 12 +23 12 +22 12 *
Fa
0  1e-07 4 12
2  4
0101000
+21 0 *
Ed
 1e-07 1 1 0
1  13 0 4.50391007216609 6.375
2  25 5 0 4.50391007216609 6.375
2  26 6 0 4.50391007216609 6.375
6  25 5 17
6  26 6 17
0

0101000
+37 18 -26 18 *
Wi

0101000
-19 12 +25 12 +36 0 *
Fa
0  1e-07 5 12
2  5
0101000
+18 0 *
Ed
 1e-07 1 1 0
1  14 0 4.50391007216609 6.375
2  27 6 0 4.50391007216609 6.375
2  28 7 0 4.50391007216609 6.375
6  27 6 17
6  28 7 17
0

0101000
+35 18 -24 18 *
Wi

0101000
-16 12 -23 12 +19 12 +34 0 *
Fa
0  1e-07 6 12
2  6
0101000
+15 0 *
Wi

0101000
-16 12 +22 12 +33 0 *
Fa
0  1e-07 7 12
2  7
0101000
+13 0 *
Ve
1e-07
2 -4.89842541528951e-16 15
0 0

0101101
*
Ed
 1e-07 1 1 0
1  15 0 5 10
3  29 30CN 8 0 5 10
7  29 30 8 9
0

0101000
+31 11 -11 11 *
Ed
 1e-07 1 1 0
1  16 0 0 6.28318530717959
2  31 8 0 0 6.28318530717959
2  32 9 0 0 6.28318530717959
6  31 8 9
6  32 9 0
0

0101100
+11 11 -11 11 *
Wi

0101000
+10 7 +29 2 -10 7 -9 7 *
Fa
0  1e-07 8 7
2  8
0101000
+8 0 *
Wi

0101000
+9 0 *
Fa
0  1e-07 9 0
2  9
0101000
+6 0 *
Sh

0101000
-46 4 +41 3 +27 0 -20 0 -17 0 -14 0 +12 0 +7 3 +5 14 *
So

0100000
+4 0 *
Co

0100000
+3 0 *
Co

1100000
+2 1 *

+1 0 