DBRep_DrawableShape

CASCADE Topology V1, (c) Matra-Datavision
Locations 19
1
              1               0               0               0 
              0               1               0               0 
              0               0               1               0 
1
              1               0               0               0 
              0               1               0               0 
              0               0               1               0 
1
              1               0               0               0 
              0               1               0               0 
              0               0               1               0 
2  2 1 3 1 0
2  2 -1 0
2  3 -1 2 -1 0
2  1 -1 3 -1 2 -1 0
2  3 -1 0
2  1 -1 3 -1 0
1
              1               0               0               0 
              0               1               0               0 
              0               0               1               7 
2  2 1 10 1 0
2  2 1 3 1 10 -1 2 -1 0
2  10 -1 2 -1 0
2  1 -1 10 -1 2 -1 0
2  3 1 10 -1 0
2  10 -1 0
2  1 -1 10 -1 0
2  2 1 10 1 3 -1 2 -1 0
2  10 1 3 -1 0
Curve2ds 70
1 0 0 0 1 
1 0 0 0 -1 
2 0.99999999999999978 0.99999999999999978 0 -1 1 0 1
1 -4.7123889803846897 0 1 0 
1 0 10 1 0 
1 0 0 0 1 
1 0 0 1 0 
1 0 0 0 1 
1 10 0 0 1 
1 0 0 0 -1 
1 7 0 0 -1 
1 7 0 0 -1 
1 0 -10 1 0 
1 0 0 1 0 
1 0 -0.99999999999999978 1 0 
1 0 0 0 1 
1 -4.7123889803846897 7 1 0 
1 -4.7123889803846897 7 1 0 
1 1.5707963267948966 0 0 1 
1 0 0.99999999999999967 1 0 
1 0 10 1 0 
1 0 -10 1 0 
1 7 0 0 1 
1 7 0 0 1 
1 0 10 1 0 
1 0 0 1 0 
1 7 0 0 1 
1 7 0 0 1 
1 7 0 0 -1 
1 7 0 0 -1 
1 10 0 0 -1 
1 3 0 0 -1 
1 0 -10 1 0 
1 0 0 1 0 
1 0 -0.99999999999999978 1 0 
1 0 0 0 1 
1 -4.7123889803846897 10 1 0 
1 -4.7123889803846897 3 1 0 
1 1.5707963267948966 0 0 1 
1 0 0.99999999999999967 1 0 
1 0 10 1 0 
1 0 -10 1 0 
1 10 0 0 1 
1 3 0 0 1 
1 0 10 1 0 
1 0 0 1 0 
1 10 0 0 1 
1 3 0 0 1 
1 10 0 0 -1 
1 3 0 0 -1 
1 10 0 0 -1 
1 0 0 0 1 
1 0 -10 1 0 
1 0 0 1 0 
1 0 -0.99999999999999978 1 0 
1 0 0 0 1 
1 -4.7123889803846897 10 1 0 
2 0.99999999999999978 0.99999999999999978 0 -1 1 0 1
1 1.5707963267948966 0 0 1 
1 0 0.99999999999999967 1 0 
1 0 10 1 0 
1 0 -10 1 0 
1 10 0 0 1 
1 0 10 1 0 
1 0 10 1 0 
1 0 0 1 0 
1 10 0 0 1 
1 0 0 1 0 
1 10 0 0 -1 
1 10 0 0 1 
Curves 35
1 0 0 0 -0 1 0 
8 4.7123889803846897 6.2831853071795862
2 0.99999999999999978 0.99999999999999978 0 0 0 1 0 -1 0 1 0 -0 1
1 0 10 0 1 0 -0 
1 0 0 0 1 0 -0 
1 10 0 0 -0 1 0 
1 0 0 0 -0 1 0 
1 0 10 0 0 0 1 
1 -2.2204460492503131e-16 0.99999999999999978 0 0 0 1 
8 4.7123889803846897 6.2831853071795862
2 0.99999999999999978 0.99999999999999978 0 0 0 1 0 -1 0 1 0 -0 1
1 0.99999999999999967 -2.2204460492503131e-16 0 0 0 1 
1 10 10 0 0 0 1 
1 0 10 0 1 0 -0 
1 10 0 0 0 0 1 
1 0 0 0 1 0 -0 
1 10 0 0 -0 1 0 
1 0 0 10 -0 1 0 
1 0 10 0 0 0 1 
1 -2.2204460492503131e-16 0.99999999999999978 0 0 0 1 
8 4.7123889803846897 6.2831853071795862
2 0.99999999999999978 0.99999999999999978 10 0 0 1 0 -1 0 1 0 -0 1
1 0.99999999999999967 -2.2204460492503131e-16 0 0 0 1 
1 10 10 0 0 0 1 
1 0 10 10 1 0 -0 
1 10 0 0 0 0 1 
1 0 0 10 1 0 -0 
1 10 0 10 0 1 0 
1 0 0 10 -0 1 0 
1 0 10 0 0 0 1 
1 -2.2204460492503131e-16 0.99999999999999978 0 0 0 1 
8 4.7123889803846897 6.2831853071795862
2 0.99999999999999978 0.99999999999999978 10 0 0 1 0 -1 0 1 0 -0 1
1 0.99999999999999967 -2.2204460492503131e-16 0 0 0 1 
1 10 10 0 0 0 1 
1 0 10 10 1 0 -0 
1 10 0 0 0 0 1 
1 0 0 10 1 0 -0 
1 10 0 10 0 1 0 
Polygon3D 0
PolygonOnTriangulations 70
2 1 2 
p 0.061941307334308 1 1 10 
2 4 3 
p 0.061941307334308 1 1 10 
7 1 10 11 12 13 14 9 
p 0.061941307334308 1 4.71238898038469 4.97418836818384 5.23598775598299 5.49778714378214 5.75958653158129 6.02138591938044 6.28318530717959 
7 1 4 5 6 7 8 3 
p 0.061941307334308 1 4.71238898038469 4.97418836818384 5.23598775598299 5.49778714378214 5.75958653158129 6.02138591938044 6.28318530717959 
2 2 9 
p 0.061941307334308 1 0 10 
2 4 1 
p 0.061941307334308 1 0 10 
2 3 10 
p 0.061941307334308 1 1 10 
2 1 2 
p 0.061941307334308 1 1 10 
2 10 9 
p 0.061941307334308 1 0 10 
2 1 4 
p 0.061941307334308 1 0 10 
2 1 2 
p 0.061941307334308 1 1 10 
2 4 3 
p 0.061941307334308 1 1 10 
2 3 2 
p 0.061941307334308 1 0 7 
2 4 3 
p 0.061941307334308 1 0 7 
2 1 2 
p 0.061941307334308 1 0 7 
2 4 1 
p 0.061941307334308 1 0 7 
7 2 4 5 6 7 8 3 
p 0.061941307334308 1 4.71238898038469 4.97418836818384 5.23598775598299 5.49778714378214 5.75958653158129 6.02138591938044 6.28318530717959 
7 1 10 11 12 13 14 9 
p 0.061941307334308 1 4.71238898038469 4.97418836818384 5.23598775598299 5.49778714378214 5.75958653158129 6.02138591938044 6.28318530717959 
2 9 3 
p 0.061941307334308 1 0 7 
2 1 4 
p 0.061941307334308 1 0 7 
2 1 2 
p 0.061941307334308 1 0 7 
2 4 3 
p 0.061941307334308 1 0 7 
2 3 2 
p 0.061941307334308 1 0 10 
2 4 1 
p 0.061941307334308 1 0 10 
2 2 3 
p 0.061941307334308 1 0 7 
2 1 2 
p 0.061941307334308 1 0 7 
2 4 3 
p 0.061941307334308 1 1 10 
2 1 2 
p 0.061941307334308 1 1 10 
2 2 3 
p 0.061941307334308 1 0 10 
2 1 4 
p 0.061941307334308 1 0 10 
2 1 2 
p 0.061941307334308 1 1 10 
2 4 3 
p 0.061941307334308 1 1 10 
2 3 2 
p 0.061941307334308 1 7 10 
2 4 3 
p 0.061941307334308 1 7 10 
2 1 2 
p 0.061941307334308 1 7 10 
2 4 1 
p 0.061941307334308 1 7 10 
7 2 4 5 6 7 8 3 
p 0.061941307334308 1 4.71238898038469 4.97418836818384 5.23598775598299 5.49778714378214 5.75958653158129 6.02138591938044 6.28318530717959 
7 1 10 11 12 13 14 9 
p 0.061941307334308 1 4.71238898038469 4.97418836818384 5.23598775598299 5.49778714378214 5.75958653158129 6.02138591938044 6.28318530717959 
2 9 3 
p 0.061941307334308 1 7 10 
2 1 4 
p 0.061941307334308 1 7 10 
2 1 2 
p 0.061941307334308 1 7 10 
2 4 3 
p 0.061941307334308 1 7 10 
2 3 2 
p 0.061941307334308 1 0 10 
2 4 1 
p 0.061941307334308 1 0 10 
2 2 3 
p 0.061941307334308 1 7 10 
2 1 2 
p 0.061941307334308 1 7 10 
2 4 3 
p 0.061941307334308 1 1 10 
2 1 2 
p 0.061941307334308 1 1 10 
2 2 3 
p 0.061941307334308 1 0 10 
2 1 4 
p 0.061941307334308 1 0 10 
2 1 2 
p 0.061941307334308 1 1 10 
2 1 2 
p 0.061941307334308 1 1 10 
2 3 2 
p 0.061941307334308 1 3 10 
2 4 3 
p 0.061941307334308 1 3 10 
2 1 2 
p 0.061941307334308 1 3 10 
2 4 1 
p 0.061941307334308 1 3 10 
7 2 4 5 6 7 8 3 
p 0.061941307334308 1 4.71238898038469 4.97418836818384 5.23598775598299 5.49778714378214 5.75958653158129 6.02138591938044 6.28318530717959 
7 1 4 5 6 7 8 3 
p 0.061941307334308 1 4.71238898038469 4.97418836818384 5.23598775598299 5.49778714378214 5.75958653158129 6.02138591938044 6.28318530717959 
2 9 3 
p 0.061941307334308 1 3 10 
2 1 4 
p 0.061941307334308 1 3 10 
2 1 2 
p 0.061941307334308 1 3 10 
2 4 3 
p 0.061941307334308 1 3 10 
2 3 2 
p 0.061941307334308 1 0 10 
2 2 9 
p 0.061941307334308 1 0 10 
2 2 3 
p 0.061941307334308 1 3 10 
2 1 2 
p 0.061941307334308 1 3 10 
2 4 3 
p 0.061941307334308 1 1 10 
2 3 10 
p 0.061941307334308 1 1 10 
2 2 3 
p 0.061941307334308 1 0 10 
2 10 9 
p 0.061941307334308 1 0 10 
Surfaces 17
1 0 0 0 0 0 1 1 0 -0 -0 1 0 
1 0 0 0 1 0 -0 0 0 1 0 -1 0 
2 0.99999999999999978 0.99999999999999978 0 0 0 1 -1 -0 0 0 -1 0 1
1 0 10 0 -0 1 0 0 0 1 1 0 -0 
1 0 0 0 -0 1 0 0 0 1 1 0 -0 
1 10 0 0 1 0 -0 0 0 1 0 -1 0 
1 0 0 0 1 0 -0 0 0 1 0 -1 0 
2 0.99999999999999978 0.99999999999999978 0 0 0 1 -1 -0 0 0 -1 0 1
1 0 10 0 -0 1 0 0 0 1 1 0 -0 
1 0 0 0 -0 1 0 0 0 1 1 0 -0 
1 10 0 0 1 0 -0 0 0 1 0 -1 0 
1 0 0 0 1 0 -0 0 0 1 0 -1 0 
2 0.99999999999999978 0.99999999999999978 0 0 0 1 -1 -0 0 0 -1 0 1
1 0 10 0 -0 1 0 0 0 1 1 0 -0 
1 0 0 0 -0 1 0 0 0 1 1 0 -0 
1 10 0 0 1 0 -0 0 0 1 0 -1 0 
1 0 0 10 0 0 1 1 0 -0 -0 1 0 
Triangulations 17
11 10 1 1.33226762955019e-15
-2.22044604925031e-16 1 0 0 10 0 1 -2.22044604925031e-16 0 0.0340741737109316 0.741180954897479 0 0.133974596215562 0.499999999999999 0 0.292893218813453 0.292893218813451 0 0.500000000000002 0.13397459621556 0 0.741180954897482 0.0340741737109308 0 10 10 0 10 0 0 5 5 0 0 1 0 10 1 -2.22044604925031e-16 0.0340741737109316 0.741180954897479 0.133974596215562 0.499999999999999 0.292893218813453 0.292893218813451 0.500000000000002 0.13397459621556 0.741180954897482 0.0340741737109308 10 10 10 0 5 5 7 5 6 1 4 5 1 7 8 1 5 7 3 1 8 11 2 1 11 9 2 11 3 10 11 10 9 11 1 3 
4 2 1 4.57756679852224e-16
-2.22044604925031e-16 1 7 0 10 7 0 10 0 -2.22044604925031e-16 1 0 7 -1 7 -10 0 -10 0 -1 4 3 2 1 4 2 
14 12 1 0.00855513862618964
-2.22044604925031e-16 1 0 -2.22044604925031e-16 1 7 1 -2.22044604925031e-16 7 0.0340741737109316 0.741180954897479 7 0.133974596215562 0.499999999999999 7 0.292893218813453 0.292893218813451 7 0.500000000000002 0.13397459621556 7 0.741180954897482 0.0340741737109308 7 1 -2.22044604925031e-16 0 0.0340741737109316 0.741180954897479 0 0.133974596215562 0.499999999999999 0 0.292893218813453 0.292893218813451 0 0.500000000000002 0.13397459621556 0 0.741180954897482 0.0340741737109308 0 0 0 0 7 1.5707963267949 7 0.26179938779915 7 0.5235987755983 7 0.78539816339745 7 1.0471975511966 7 1.30899693899575 7 1.5707963267949 0 0.26179938779915 0 0.5235987755983 0 0.78539816339745 0 1.0471975511966 0 1.30899693899575 0 4 2 1 4 1 10 4 10 11 5 11 12 5 4 11 6 12 13 6 5 12 7 13 14 7 6 13 8 14 9 8 7 14 3 8 9 
4 2 1 0
10 10 0 10 10 7 0 10 7 0 10 0 0 10 7 10 7 0 0 0 2 4 3 2 1 4 
4 2 1 4.57756679852224e-16
1 -2.22044604925031e-16 0 10 0 0 10 0 7 1 -2.22044604925031e-16 7 0 1 0 10 7 10 7 1 3 2 1 3 1 4 
4 2 1 0
10 0 0 10 0 7 10 10 7 10 10 0 0 0 7 0 7 -10 0 -10 2 4 3 2 1 4 
4 2 1 2.48253415324727e-16
-2.22044604925031e-16 1 10 0 10 10 0 10 7 -2.22044604925031e-16 1 7 10 -1 10 -10 7 -10 7 -1 4 3 2 1 4 2 
14 12 1 0.00855513862618964
-2.22044604925031e-16 1 7 -2.22044604925031e-16 1 10 1 -2.22044604925031e-16 10 0.0340741737109316 0.741180954897479 10 0.133974596215562 0.499999999999999 10 0.292893218813453 0.292893218813451 10 0.500000000000002 0.13397459621556 10 0.741180954897482 0.0340741737109308 10 1 -2.22044604925031e-16 7 0.0340741737109316 0.741180954897479 7 0.133974596215562 0.499999999999999 7 0.292893218813453 0.292893218813451 7 0.500000000000002 0.13397459621556 7 0.741180954897482 0.0340741737109308 7 0 7 0 10 1.5707963267949 10 0.26179938779915 10 0.5235987755983 10 0.78539816339745 10 1.0471975511966 10 1.30899693899575 10 1.5707963267949 7 0.26179938779915 7 0.5235987755983 7 0.78539816339745 7 1.0471975511966 7 1.30899693899575 7 4 2 1 4 1 10 5 10 11 5 4 10 6 11 12 6 5 11 7 12 13 7 6 12 8 13 14 8 14 9 8 7 13 3 8 9 
4 2 1 0
10 10 7 10 10 10 0 10 10 0 10 7 7 10 10 10 10 0 7 0 2 4 3 2 1 4 
4 2 1 2.48253415324727e-16
1 -2.22044604925031e-16 7 10 0 7 10 0 10 1 -2.22044604925031e-16 10 7 1 7 10 10 10 10 1 3 2 1 3 1 4 
4 2 1 0
10 0 7 10 0 10 10 10 10 10 10 7 7 0 10 0 10 -10 7 -10 2 4 3 2 1 4 
4 2 1 4.57756679852224e-16
-2.22044604925031e-16 1 17 0 10 17 0 10 10 -2.22044604925031e-16 1 10 10 -1 10 -10 3 -10 3 -1 1 3 2 1 4 3 
14 12 1 0.00855513862618964
-2.22044604925031e-16 1 10 -2.22044604925031e-16 1 17 1 -2.22044604925031e-16 17 0.0340741737109316 0.741180954897479 17 0.133974596215562 0.499999999999999 17 0.292893218813453 0.292893218813451 17 0.500000000000002 0.13397459621556 17 0.741180954897482 0.0340741737109308 17 1 -2.22044604925031e-16 10 0.0340741737109316 0.741180954897479 10 0.133974596215562 0.499999999999999 10 0.292893218813453 0.292893218813451 10 0.500000000000002 0.13397459621556 10 0.741180954897482 0.0340741737109308 10 0 3 0 10 1.5707963267949 10 0.26179938779915 10 0.5235987755983 10 0.78539816339745 10 1.0471975511966 10 1.30899693899575 10 1.5707963267949 3 0.26179938779915 3 0.5235987755983 3 0.78539816339745 3 1.0471975511966 3 1.30899693899575 3 2 1 10 4 10 11 4 2 10 5 4 11 6 11 12 6 5 11 7 12 13 7 13 14 7 6 12 8 14 9 8 7 14 3 8 9 
4 2 1 0
10 10 10 10 10 17 0 10 17 0 10 10 3 10 10 10 10 0 3 0 2 4 3 2 1 4 
4 2 1 4.57756679852224e-16
1 -2.22044604925031e-16 10 10 0 10 10 0 17 1 -2.22044604925031e-16 17 3 1 3 10 10 10 10 1 3 2 1 3 1 4 
4 2 1 0
10 0 10 10 0 17 10 10 17 10 10 10 3 0 10 0 10 -10 3 -10 2 4 3 2 1 4 
11 10 1 1.33226762955019e-15
-2.22044604925031e-16 1 10 0 10 10 1 -2.22044604925031e-16 10 0.0340741737109316 0.741180954897479 10 0.133974596215562 0.499999999999999 10 0.292893218813453 0.292893218813451 10 0.500000000000002 0.13397459621556 10 0.741180954897482 0.0340741737109308 10 10 10 10 10 0 10 5 5 10 0 1 0 10 1 -2.22044604925031e-16 0.0340741737109316 0.741180954897479 0.133974596215562 0.499999999999999 0.292893218813453 0.292893218813451 0.500000000000002 0.13397459621556 0.741180954897482 0.0340741737109308 10 10 10 0 5 5 7 5 6 1 4 5 1 7 8 1 5 7 3 1 8 11 2 1 11 9 2 11 3 10 11 10 9 11 1 3 

TShapes 93
Ve
1e-07
-2.22044604925031e-16 1 0
0 0

0101101
*
Ve
1e-07
0 10 0
0 0

0101101
*
Ed
 1e-07 1 1 0
1  1 0 1 10
2  1 1 0 1 10
2  2 2 0 1 10
6  1 1 0
6  2 2 6
0

0101000
+93 7 -92 7 *
Ve
1e-07
1 -2.22044604925031e-16 0
0 0

0101101
*
Ed
 1e-07 1 1 0
1  2 0 4.71238898038469 6.28318530717959
2  3 1 2 4.71238898038469 6.28318530717959
2  4 3 0 4.71238898038469 6.28318530717959
6  3 3 8
6  4 1 2
0

0101000
+93 9 -90 9 *
Ve
1e-07
10 10 0
0 0

0101101
*
Ed
 1e-07 1 1 0
1  3 0 0 10
2  5 1 0 0 10
2  6 4 0 0 10
6  5 1 0
6  6 4 6
0

0101000
-88 7 +92 7 *
Ve
1e-07
10 0 0
0 0

0101101
*
Ed
 1e-07 1 1 0
1  4 0 1 10
2  7 1 0 1 10
2  8 5 0 1 10
6  7 1 0
6  8 5 6
0

0101000
+90 7 -86 7 *
Ed
 1e-07 1 1 0
1  5 0 0 10
2  9 1 0 0 10
2  10 6 0 0 10
6  9 1 0
6  10 6 6
0

0101000
-88 7 +86 7 *
Wi

0101100
-91 2 +89 0 -87 2 +85 2 +84 2 *
Fa
0  1e-07 1 0
2  1
0101000
+83 5 *
Ve
1e-07
-2.22044604925031e-16 1 7
0 0

0101101
*
Ve
1e-07
0 10 7
0 0

0101101
*
Ed
 1e-07 1 1 0
1  6 0 1 10
2  11 2 12 1 10
2  12 7 12 1 10
6  11 2 13
6  12 7 13
0

0101000
+81 14 -80 14 *
Ed
 1e-07 1 1 0
1  7 0 0 7
2  13 2 0 0 7
2  14 4 0 0 7
6  13 2 6
6  14 4 6
0

0101000
+92 7 -80 7 *
Ed
 1e-07 1 1 0
1  8 0 0 7
2  15 2 2 0 7
2  16 3 0 0 7
4 G1 2 2 3 0
6  15 3 8
6  16 2 8
0

0101000
+93 9 -81 9 *
Wi

0101000
-79 11 +78 4 +91 4 -77 3 *
Fa
0  1e-07 2 4
2  2
0101000
+76 0 *
Ve
1e-07
1 -2.22044604925031e-16 7
0 0

0101101
*
Ed
 1e-07 1 1 0
1  9 0 4.71238898038469 6.28318530717959
2  17 3 15 4.71238898038469 6.28318530717959
2  18 8 15 4.71238898038469 6.28318530717959
6  17 3 16
6  18 8 16
0

0101000
+81 17 -74 17 *
Ed
 1e-07 1 1 0
1  10 0 0 7
2  19 3 0 0 7
2  20 5 2 0 7
4 G1 3 0 5 2
6  19 3 8
6  20 5 8
0

0101000
+90 9 -74 9 *
Wi

0101000
-77 3 -73 10 +72 3 +89 3 *
Fa
0  1e-07 3 3
2  3
0101000
+71 0 *
Ve
1e-07
10 10 7
0 0

0101101
*
Ed
 1e-07 1 1 0
1  11 0 0 7
2  21 4 0 0 7
2  22 6 0 0 7
6  21 4 6
6  22 6 6
0

0101000
+88 7 -69 7 *
Ed
 1e-07 1 1 0
1  12 0 0 10
2  23 4 12 0 10
2  24 9 12 0 10
6  23 4 13
6  24 9 13
0

0101000
-69 14 +80 14 *
Wi

0101000
-68 4 +67 11 +78 4 -87 4 *
Fa
0  1e-07 4 4
2  4
0101000
+66 0 *
Ve
1e-07
10 0 7
0 0

0101101
*
Ed
 1e-07 1 1 0
1  13 0 0 7
2  25 5 0 0 7
2  26 6 0 0 7
6  25 5 6
6  26 6 6
0

0101000
+86 7 -64 7 *
Ed
 1e-07 1 1 0
1  14 0 1 10
2  27 5 12 1 10
2  28 10 12 1 10
6  27 5 13
6  28 10 13
0

0101000
+74 14 -64 14 *
Wi

0101000
-85 4 -63 4 +62 11 +72 3 *
Fa
0  1e-07 5 4
2  5
0101000
+61 0 *
Ed
 1e-07 1 1 0
1  15 0 0 10
2  29 6 12 0 10
2  30 11 12 0 10
6  29 6 13
6  30 11 13
0

0101000
-69 14 +64 14 *
Wi

0101000
-63 4 -59 11 +68 4 +84 4 *
Fa
0  1e-07 6 4
2  6
0101000
+58 0 *
Ve
1e-07
-2.22044604925031e-16 1 10
0 0

0101101
*
Ve
1e-07
0 10 10
0 0

0101101
*
Ed
 1e-07 1 1 0
1  16 0 1 10
2  31 7 0 1 10
2  32 12 18 1 10
6  31 7 6
6  32 12 6
0

0101000
+56 7 -55 7 *
Ed
 1e-07 1 1 0
1  17 0 7 10
2  33 7 0 7 10
2  34 9 0 7 10
6  33 7 6
6  34 9 6
0

0101000
+80 7 -55 7 *
Ed
 1e-07 1 1 0
1  18 0 7 10
2  35 7 2 7 10
2  36 8 0 7 10
4 G1 7 2 8 0
6  35 8 8
6  36 7 8
0

0101000
+81 9 -56 9 *
Wi

0101000
-54 4 +53 4 +79 11 -52 3 *
Fa
0  1e-07 7 4
2  7
0101000
+51 0 *
Ve
1e-07
1 -2.22044604925031e-16 10
0 0

0101101
*
Ed
 1e-07 1 1 0
1  19 0 4.71238898038469 6.28318530717959
2  37 8 0 4.71238898038469 6.28318530717959
2  38 13 19 4.71238898038469 6.28318530717959
6  37 8 8
6  38 13 8
0

0101000
+56 9 -49 9 *
Ed
 1e-07 1 1 0
1  20 0 7 10
2  39 8 0 7 10
2  40 10 2 7 10
4 G1 8 0 10 2
6  39 8 8
6  40 10 8
0

0101000
+74 9 -49 9 *
Wi

0101000
-52 3 -48 3 +47 3 +73 10 *
Fa
0  1e-07 8 3
2  8
0101000
+46 0 *
Ve
1e-07
10 10 10
0 0

0101101
*
Ed
 1e-07 1 1 0
1  21 0 7 10
2  41 9 0 7 10
2  42 11 0 7 10
6  41 9 6
6  42 11 6
0

0101000
+69 7 -44 7 *
Ed
 1e-07 1 1 0
1  22 0 0 10
2  43 9 0 0 10
2  44 14 18 0 10
6  43 9 6
6  44 14 6
0

0101000
-44 7 +55 7 *
Wi

0101000
-43 4 +42 4 +53 4 -67 11 *
Fa
0  1e-07 9 4
2  9
0101000
+41 0 *
Ve
1e-07
10 0 10
0 0

0101101
*
Ed
 1e-07 1 1 0
1  23 0 7 10
2  45 10 0 7 10
2  46 11 0 7 10
6  45 10 6
6  46 11 6
0

0101000
+64 7 -39 7 *
Ed
 1e-07 1 1 0
1  24 0 1 10
2  47 10 0 1 10
2  48 15 18 1 10
6  47 10 6
6  48 15 6
0

0101000
+49 7 -39 7 *
Wi

0101000
-62 11 -38 4 +37 4 +47 3 *
Fa
0  1e-07 10 4
2  10
0101000
+36 0 *
Ed
 1e-07 1 1 0
1  25 0 0 10
2  49 11 0 0 10
2  50 16 18 0 10
6  49 11 6
6  50 16 6
0

0101000
-44 7 +39 7 *
Wi

0101000
-38 4 -34 4 +43 4 +59 11 *
Fa
0  1e-07 11 4
2  11
0101000
+33 0 *
Ve
1e-07
-2.22044604925031e-16 1 17
0 0

0101101
*
Ve
1e-07
0 10 17
0 0

0101101
*
Ed
 1e-07 1 1 0
1  26 0 1 10
2  51 12 0 1 10
2  52 17 0 1 10
6  51 12 13
6  52 17 0
0

0101000
+31 14 -30 14 *
Ed
 1e-07 1 1 0
1  27 0 3 10
2  53 12 0 3 10
2  54 14 0 3 10
6  53 12 13
6  54 14 13
0

0101000
+55 14 -30 14 *
Ed
 1e-07 1 1 0
1  28 0 3 10
2  55 12 2 3 10
2  56 13 0 3 10
4 G1 12 2 13 0
6  55 13 16
6  56 12 16
0

0101000
+56 17 -31 17 *
Wi

0101000
-29 11 +28 11 +54 4 -27 10 *
Fa
0  1e-07 12 11
2  12
0101000
+26 0 *
Ve
1e-07
1 -2.22044604925031e-16 17
0 0

0101101
*
Ed
 1e-07 1 1 0
1  29 0 4.71238898038469 6.28318530717959
2  57 13 0 4.71238898038469 6.28318530717959
2  58 17 2 4.71238898038469 6.28318530717959
6  57 13 16
6  58 17 2
0

0101000
+31 17 -24 17 *
Ed
 1e-07 1 1 0
1  30 0 3 10
2  59 13 0 3 10
2  60 15 2 3 10
4 G1 13 0 15 2
6  59 13 16
6  60 15 16
0

0101000
+49 17 -24 17 *
Wi

0101000
-27 10 -23 10 +22 10 +48 3 *
Fa
0  1e-07 13 10
2  13
0101000
+21 0 *
Ve
1e-07
10 10 17
0 0

0101101
*
Ed
 1e-07 1 1 0
1  31 0 3 10
2  61 14 0 3 10
2  62 16 0 3 10
6  61 14 13
6  62 16 13
0

0101000
+44 14 -19 14 *
Ed
 1e-07 1 1 0
1  32 0 0 10
2  63 14 0 0 10
2  64 17 0 0 10
6  63 14 13
6  64 17 0
0

0101000
-19 14 +30 14 *
Wi

0101000
-18 11 +17 11 +28 11 -42 4 *
Fa
0  1e-07 14 11
2  14
0101000
+16 0 *
Ve
1e-07
10 0 17
0 0

0101101
*
Ed
 1e-07 1 1 0
1  33 0 3 10
2  65 15 0 3 10
2  66 16 0 3 10
6  65 15 13
6  66 16 13
0

0101000
+39 14 -14 14 *
Ed
 1e-07 1 1 0
1  34 0 1 10
2  67 15 0 1 10
2  68 17 0 1 10
6  67 15 13
6  68 17 0
0

0101000
+24 14 -14 14 *
Wi

0101000
-37 4 -13 11 +12 11 +22 10 *
Fa
0  1e-07 15 11
2  15
0101000
+11 0 *
Ed
 1e-07 1 1 0
1  35 0 0 10
2  69 16 0 0 10
2  70 17 0 0 10
6  69 16 13
6  70 17 0
0

0101000
-19 14 +14 14 *
Wi

0101000
-13 11 -9 11 +18 11 +34 4 *
Fa
0  1e-07 16 11
2  16
0101000
+8 0 *
Wi

0101100
-29 2 +23 0 -17 2 +12 2 +9 2 *
Fa
0  1e-07 17 0
2  17
0101000
+6 5 *
Sh

0101000
-82 4 -75 0 +70 0 +65 0 -60 0 +57 0 -50 0 +45 0 +40 0 -35 0 
+32 0 -25 0 +20 0 +15 0 -10 0 +7 0 +5 11 *
So

0100000
+4 0 *
Co

0100000
+3 0 *
Co

1100000
+2 1 *

+1 0 