DBRep_DrawableShape

CASCADE Topology V1, (c) Matra-Datavision
Locations 57
1
              1               0               0               0 
              0               1               0               0 
              0               0               1               0 
1
              1               0               0               0 
              0               1               0               0 
              0               0               1               0 
1
              1               0               0               0 
              0               1               0               0 
              0               0               1               0 
1
              1               0               0               0 
              0               1               0               0 
              0               0               1               0 
1
              1               0               0               0 
              0               1               0               0 
              0               0               1               0 
1
              1               0               0               0 
              0               1               0               0 
              0               0               1               0 
1
              1               0               0               0 
              0               1               0               0 
              0               0               1               0 
2  2 1 3 1 4 1 5 1 6 1 7 1 0
2  4 -1 3 -1 2 -1 0
2  1 -1 7 -1 6 -1 5 -1 4 -1 3 -1 2 -1 0
2  2 -1 0
2  7 -1 6 -1 5 -1 4 -1 3 -1 2 -1 0
2  5 1 6 1 7 1 0
2  2 1 3 1 4 1 0
2  2 1 3 1 0
1
              1               0               0               2 
              0               1               0              -8 
              0               0               1               2 
2  4 -1 0
2  1 -1 7 -1 6 -1 5 -1 4 -1 0
1
              1               0               0               4 
              0               1               0               0 
              0               0               1               4 
2  19 1 3 1 4 1 0
2  2 1 19 -1 0
2  4 -1 3 -1 19 -1 0
2  1 -1 7 -1 6 -1 5 -1 4 -1 3 -1 19 -1 0
2  3 1 4 1 5 1 6 1 7 1 0
2  1 -1 7 -1 6 -1 5 -1 4 -1 3 -1 0
2  2 1 3 1 4 1 5 1 6 1 0
1
              1               0               0               1 
              0               1               0               7 
              0               0               1               1 
2  7 -1 0
2  1 -1 7 -1 0
2  19 1 3 1 4 1 5 1 6 1 7 1 0
2  7 -1 6 -1 5 -1 4 -1 3 -1 19 -1 0
2  4 1 5 1 6 1 7 1 0
2  16 -1 0
2  1 -1 7 -1 6 -1 5 -1 4 -1 16 -1 0
2  19 1 2 -1 0
1
              1               0               0               8 
              0               1               0              -8 
              0               0               1               7 
2  1 -1 7 -1 6 -1 5 -1 0
2  19 -1 0
2  27 -1 0
2  1 -1 7 -1 27 -1 0
1
              1               0               0               6 
              0               1               0               7 
              0               0               1               6 
2  1 -1 0
2  16 1 4 1 5 1 6 1 7 1 0
2  36 -1 0
2  1 -1 7 -1 6 -1 5 -1 36 -1 0
2  6 1 7 1 0
2  19 1 3 1 4 1 5 1 0
1
              1               0               0              11 
              0               1               0               7 
              0               0               1              11 
2  7 -1 6 -1 0
2  1 -1 7 -1 6 -1 0
2  27 1 7 1 0
2  41 -1 0
2  1 -1 41 -1 0
2  36 1 5 1 6 1 7 1 0
2  48 -1 0
2  1 -1 7 -1 6 -1 48 -1 0
2  48 1 6 1 7 1 0
Curve2ds 192
1 0 0 1 0 
1 0 0 1 0 
1 10 0 0 -1 
1 0 0 0 1 
1 0 -10 1 0 
1 0 0 1 0 
1 0 0 0 -1 
1 0 0 0 1 
8 1 5
1 6 1 0 1 
8 1 5
1 -1 8 1 0 
8 -5 -1
1 1 2 -1 0 
8 -5 -1
1 -1 -8 -1 0 
1 4 4 1 0 
1 4 4 1 0 
8 1 5
1 2 1 0 1 
8 1 5
1 -1 8 1 0 
1 10 0 0 1 
1 0 0 1 0 
8 -5 -1
1 1 6 -1 0 
8 -5 -1
1 -1 -8 -1 0 
1 4 4 0 1 
1 4 4 0 1 
1 0 0 0 1 
1 0 0 1 0 
1 0 10 1 0 
1 0 0 1 0 
1 0 10 1 0 
1 10 0 0 1 
8 0 10
1 4 0 0 1 
8 0 10
1 6 0 0 -1 
8 0.5 2.5
1 3 0.5 0 1 
8 0.5 2.5
1 -0.5 3 1 0 
8 -2.5 -0.5
1 0.5 1 -1 0 
8 -2.5 -0.5
1 -0.5 -3 -1 0 
8 -2.5 -0.5
1 0.5 3 -1 0 
8 -2.5 -0.5
1 -0.5 -3 -1 0 
8 0.5 2.5
1 1 0.5 0 1 
8 0.5 2.5
1 -0.5 3 1 0 
1 0 10 1 0 
1 0 -10 1 0 
1 0 0 0 1 
1 0 10 1 0 
1 4 4 0 1 
1 4 4 0 1 
1 4 4 1 0 
1 4 4 1 0 
1 10 0 0 1 
1 0 0 0 -1 
1 0 0 0 1 
1 4 0 0 -1 
1 0 12 1 0 
1 4 0 0 1 
1 4 0 0 1 
1 4 0 0 -1 
8 3 5
1 -1 8 1 0 
8 3 5
1 6 1 0 1 
1 0 -12 1 0 
1 0 0 1 0 
1 0 0 0 -1 
1 0 0 0 1 
1 10 0 0 1 
1 6 -4 0 1 
8 -5 -3
1 1 6 -1 0 
8 -5 -3
1 -1 -8 -1 0 
1 0 10 1 0 
1 -4 6 1 0 
8 4 6
1 7 4 0 1 
8 4 6
1 -4 8 1 0 
8 -6.5 -3.5
1 3.5 8 -1 0 
8 -6.5 -3.5
1 -3.5 -8 -1 0 
1 0 12 1 0 
1 0 0 0 1 
1 4 0 0 1 
1 0 0 0 -1 
1 0 -12 1 0 
1 0 4 1 0 
8 -10 0
1 4 0 0 1 
8 -10 0
1 6 0 0 -1 
1 0 0 1 0 
1 0 0 1 0 
1 10 0 0 -1 
1 0 0 0 1 
1 0 -10 1 0 
1 0 0 1 0 
1 2 0 0 1 
1 2 0 0 -1 
1 0 0 1 0 
1 2 0 0 1 
1 0 0 0 1 
1 2 0 0 -1 
1 0 0 0 -1 
1 0 0 0 1 
1 0 0 1 0 
1 0 0 1 0 
1 0 0 0 -1 
1 2 0 0 1 
1 0 0 1 0 
1 0 2 1 0 
1 0 0 1 0 
1 0 0 0 1 
8 3 5
1 8 3 0 1 
8 3 5
1 -3 3 1 0 
8 -5 -3
1 3 8 -1 0 
8 -5 -3
1 -3 -3 -1 0 
8 3 5
1 6 3 0 1 
8 3 5
1 -3 3 1 0 
8 -5 -3
1 3 6 -1 0 
8 -5 -3
1 -3 -3 -1 0 
1 0 10 1 0 
1 -4 6 1 0 
1 10 0 0 1 
1 6 -4 0 1 
8 2 6
1 7 2 0 1 
8 2 6
1 -2 8 1 0 
8 -5.5 -1.5
1 1.5 8 -1 0 
8 -5.5 -1.5
1 -1.5 -8 -1 0 
8 2 6
1 3 2 0 1 
8 2 6
1 -2 8 1 0 
1 0 0 0 1 
1 0 0 1 0 
1 0 10 1 0 
1 0 0 1 0 
1 10 0 0 1 
1 0 0 1 0 
8 -5.5 -1.5
1 1.5 4 -1 0 
8 -5.5 -1.5
1 -1.5 -8 -1 0 
1 0 0 0 1 
1 0 0 0 -1 
1 0 12 1 0 
1 0 0 0 1 
1 4 0 0 1 
1 0 0 0 -1 
1 4 0 0 -1 
1 0 0 0 1 
1 0 -12 1 0 
1 0 0 1 0 
1 0 10 1 0 
1 0 0 0 1 
1 10 0 0 1 
1 0 0 0 -1 
1 0 10 1 0 
1 10 0 0 1 
1 10 0 0 1 
1 10 0 0 -1 
8 3.5 5.5
1 9 3.5 0 1 
8 3.5 5.5
1 -3.5 3 1 0 
8 -5.5 -3.5
1 3.5 7 -1 0 
8 -5.5 -3.5
1 -3.5 -3 -1 0 
8 -5.5 -3.5
1 3.5 9 -1 0 
8 -5.5 -3.5
1 -3.5 -3 -1 0 
8 3.5 5.5
1 7 3.5 0 1 
8 3.5 5.5
1 -3.5 3 1 0 
1 0 10 1 0 
1 0 -10 1 0 
1 2 0 0 1 
1 2 0 0 -1 
1 0 0 1 0 
1 2 0 0 1 
1 0 0 0 1 
1 2 0 0 -1 
1 0 0 0 -1 
1 2 0 0 1 
1 0 0 1 0 
1 0 2 1 0 
1 0 0 1 0 
1 0 0 0 1 
1 0 0 0 1 
1 0 0 0 -1 
1 0 0 1 0 
1 0 0 1 0 
1 0 12 1 0 
1 4 0 0 1 
1 4 0 0 1 
1 4 0 0 -1 
1 0 -12 1 0 
1 0 4 1 0 
1 2 0 0 1 
1 2 0 0 -1 
1 0 0 1 0 
1 2 0 0 1 
1 0 0 0 1 
1 2 0 0 -1 
1 0 0 0 -1 
1 0 0 0 1 
1 0 0 1 0 
1 0 0 1 0 
1 0 0 0 -1 
1 2 0 0 1 
1 0 0 1 0 
1 0 2 1 0 
1 0 0 1 0 
1 0 0 0 1 
Curves 96
1 0 0 0 0 0 1 
1 0 0 10 -0 1 0 
1 0 10 0 0 0 1 
1 0 0 0 -0 1 0 
1 1 0 6 1 0 0 
1 2 0 1 0 0 -1 
1 0 0 0 0 0 1 
1 1 0 2 1 0 0 
1 0 0 10 1 0 -0 
1 6 0 1 0 0 -1 
1 0 0 0 1 0 -0 
1 0 0 0 1 0 -0 
1 10 0 0 0 0 1 
1 0 10 10 1 0 -0 
1 4 0 10 0 1 0 
1 0.5 10 3 1 0 0 
1 1 10 0.5 0 0 -1 
1 3 10 0.5 0 0 -1 
1 0.5 10 1 1 0 0 
1 10 10 0 0 0 1 
1 0 10 0 1 0 -0 
1 0 10 0 1 0 -0 
1 0 10 0 0 0 1 
1 10 0 0 -0 1 0 
1 0 0 4 -0 1 0 
1 0 12 4 1 0 -0 
1 4 0 4 0 1 0 
1 1 0 6 1 0 0 
1 0 12 0 0 0 1 
1 0 0 0 -0 1 0 
1 0 0 10 1 0 -0 
1 6 0 1 0 0 -1 
1 10 0 0 0 0 1 
1 4 0 7 1 0 0 
1 8 0 3.5 0 0 -1 
1 0 12 0 1 0 -0 
1 4 0 0 -0 1 0 
1 4 12 0 0 0 1 
1 10 0 4 0 -1 0 
1 0 0 0 0 0 1 
1 0 0 10 -0 1 0 
1 0 10 0 0 0 1 
1 2 0 2 0 1 0 
1 0 0 2 1 0 -0 
1 0 0 2 -0 1 0 
1 0 0 0 -0 1 0 
1 0 0 0 0 0 1 
1 2 0 0 -0 1 0 
1 2 0 0 0 0 1 
1 0 0 0 1 0 -0 
1 3 10 8 1 0 0 
1 8 10 3 0 0 -1 
1 3 10 6 1 0 0 
1 6 10 3 0 0 -1 
1 10 10 0 0 0 1 
1 0 10 10 1 0 -0 
1 6 0 11 1 0 0 
1 12 0 5.5 0 0 -1 
1 6 0 7 1 0 0 
1 0 0 0 1 0 -0 
1 10 0 0 0 0 1 
1 0 0 10 1 0 -0 
1 8 0 5.5 0 0 -1 
1 0 0 0 -0 1 0 
1 0 12 0 1 0 -0 
1 4 0 0 -0 1 0 
1 0 0 4 -0 1 0 
1 0 12 0 0 0 1 
1 0 10 0 1 0 -0 
1 10 0 0 -0 1 0 
1 0 10 10 1 0 -0 
1 10 0 10 0 1 0 
1 7.5 10 13 1 0 0 
1 11 10 7.5 0 0 -1 
1 13 10 7.5 0 0 -1 
1 7.5 10 11 1 0 0 
1 10 10 0 0 0 1 
1 2 0 2 0 1 0 
1 0 0 2 1 0 -0 
1 0 0 2 -0 1 0 
1 2 0 0 -0 1 0 
1 2 0 0 0 0 1 
1 0 0 0 1 0 -0 
1 0 0 0 -0 1 0 
1 0 0 0 0 0 1 
1 0 12 4 1 0 -0 
1 4 0 4 0 1 0 
1 4 12 0 0 0 1 
1 2 0 2 0 1 0 
1 0 0 2 1 0 -0 
1 0 0 2 -0 1 0 
1 0 0 0 -0 1 0 
1 0 0 0 0 0 1 
1 2 0 0 -0 1 0 
1 2 0 0 0 0 1 
1 0 0 0 1 0 -0 
Polygon3D 0
PolygonOnTriangulations 192
2 1 2 
p 0.0633333333333333 1 0 10 
2 8 6 
p 0.0633333333333333 1 0 10 
2 2 3 
p 0.0633333333333333 1 0 10 
2 1 3 
p 0.0633333333333333 1 0 10 
2 4 3 
p 0.0633333333333333 1 0 10 
2 7 9 
p 0.0633333333333333 1 0 10 
2 1 4 
p 0.0633333333333333 1 0 10 
2 1 2 
p 0.0633333333333333 1 0 10 
2 1 2 
p 0.0633333333333333 1 1 3 
2 1 5 
p 0.0633333333333333 1 1 3 
2 1 3 
p 0.0633333333333333 1 -5 -1 
2 1 4 
p 0.0633333333333333 1 -5 -1 
2 2 4 
p 0.0633333333333333 1 2 6 
2 3 1 
p 0.0633333333333333 1 2 6 
2 3 5 
p 0.0633333333333333 1 1 5 
2 1 4 
p 0.0633333333333333 1 1 5 
2 6 4 
p 0.0633333333333333 1 0 4 
2 1 2 
p 0.0633333333333333 1 0 4 
2 7 5 
p 0.0633333333333333 1 -3 -1 
2 2 5 
p 0.0633333333333333 1 -3 -1 
2 7 9 
p 0.0633333333333333 1 2 6 
2 5 6 
p 0.0633333333333333 1 2 6 
2 8 10 
p 0.0633333333333333 1 0 10 
2 1 4 
p 0.0633333333333333 1 0 10 
2 10 9 
p 0.0633333333333333 1 0 4 
2 3 4 
p 0.0633333333333333 1 0 4 
2 3 4 
p 0.0633333333333333 1 0 4 
2 9 10 
p 0.0633333333333333 1 0 4 
2 2 4 
p 0.0633333333333333 1 0 10 
2 1 4 
p 0.0633333333333333 1 0 10 
2 1 2 
p 0.0633333333333333 1 0.5 2.5 
2 1 2 
p 0.0633333333333333 1 0.5 2.5 
2 1 3 
p 0.0633333333333333 1 -2.5 -0.5 
2 1 2 
p 0.0633333333333333 1 -2.5 -0.5 
2 2 4 
p 0.0633333333333333 1 -2.5 -0.5 
2 1 2 
p 0.0633333333333333 1 -2.5 -0.5 
2 3 4 
p 0.0633333333333333 1 0.5 2.5 
2 1 2 
p 0.0633333333333333 1 0.5 2.5 
2 5 6 
p 0.0633333333333333 1 0 4 
2 1 2 
p 0.0633333333333333 1 0 4 
2 7 5 
p 0.0633333333333333 1 0 10 
2 2 3 
p 0.0633333333333333 1 0 10 
2 8 6 
p 0.0633333333333333 1 0 6 
2 7 5 
p 0.0633333333333333 1 0 6 
2 8 10 
p 0.0633333333333333 1 0 6 
2 7 8 
p 0.0633333333333333 1 0 6 
2 4 3 
p 0.0633333333333333 1 0 10 
2 3 1 
p 0.0633333333333333 1 0 10 
2 1 2 
p 0.0633333333333333 1 8 12 
2 1 2 
p 0.0633333333333333 1 8 12 
2 2 3 
p 0.0633333333333333 1 0 4 
2 4 3 
p 0.0633333333333333 1 0 4 
2 4 3 
p 0.0633333333333333 1 8 12 
2 1 3 
p 0.0633333333333333 1 8 12 
2 5 4 
p 0.0633333333333333 1 3 5 
2 3 4 
p 0.0633333333333333 1 3 5 
2 3 2 
p 0.0633333333333333 1 0 4 
2 1 4 
p 0.0633333333333333 1 0 4 
2 4 3 
p 0.0633333333333333 1 8 12 
2 1 2 
p 0.0633333333333333 1 8 12 
2 1 2 
p 0.0633333333333333 1 4 8 
2 9 10 
p 0.0633333333333333 1 4 8 
2 4 5 
p 0.0633333333333333 1 -5 -3 
2 1 2 
p 0.0633333333333333 1 -5 -3 
2 6 7 
p 0.0633333333333333 1 4 7 
2 5 4 
p 0.0633333333333333 1 4 7 
2 8 7 
p 0.0633333333333333 1 4 6 
2 1 5 
p 0.0633333333333333 1 4 6 
2 2 8 
p 0.0633333333333333 1 -6.5 -3.5 
2 2 5 
p 0.0633333333333333 1 -6.5 -3.5 
2 2 3 
p 0.0633333333333333 1 0 4 
2 1 2 
p 0.0633333333333333 1 0 4 
2 4 3 
p 0.0633333333333333 1 8 12 
2 5 4 
p 0.0633333333333333 1 8 12 
2 4 3 
p 0.0633333333333333 1 0 4 
2 2 3 
p 0.0633333333333333 1 0 4 
2 2 4 
p 0.0633333333333333 1 -10 0 
2 1 4 
p 0.0633333333333333 1 -10 0 
2 1 2 
p 0.0633333333333333 1 6 10 
2 9 8 
p 0.0633333333333333 1 6 10 
2 2 3 
p 0.0633333333333333 1 0 10 
2 1 2 
p 0.0633333333333333 1 0 10 
2 4 3 
p 0.0633333333333333 1 6 10 
2 9 10 
p 0.0633333333333333 1 6 10 
2 3 2 
p 0.0633333333333333 1 0 3 
2 4 1 
p 0.0633333333333333 1 0 3 
2 4 3 
p 0.0633333333333333 1 0 2 
2 4 3 
p 0.0633333333333333 1 0 2 
2 4 1 
p 0.0633333333333333 1 0 3 
2 4 1 
p 0.0633333333333333 1 0 3 
2 3 2 
p 0.0633333333333333 1 0 3 
2 4 1 
p 0.0633333333333333 1 0 3 
2 3 4 
p 0.0633333333333333 1 0 2 
2 1 4 
p 0.0633333333333333 1 0 2 
2 3 2 
p 0.0633333333333333 1 0 3 
2 3 2 
p 0.0633333333333333 1 0 3 
2 3 4 
p 0.0633333333333333 1 0 2 
2 2 3 
p 0.0633333333333333 1 0 2 
2 4 3 
p 0.0633333333333333 1 0 2 
2 1 2 
p 0.0633333333333333 1 0 2 
2 1 2 
p 0.0633333333333333 1 3 5 
2 1 2 
p 0.0633333333333333 1 3 5 
2 2 3 
p 0.0633333333333333 1 -5 -3 
2 1 2 
p 0.0633333333333333 1 -5 -3 
2 4 3 
p 0.0633333333333333 1 3 5 
2 1 2 
p 0.0633333333333333 1 3 5 
2 1 4 
p 0.0633333333333333 1 -5 -3 
2 1 2 
p 0.0633333333333333 1 -5 -3 
2 5 6 
p 0.0633333333333333 1 4 10 
2 5 7 
p 0.0633333333333333 1 4 10 
2 8 6 
p 0.0633333333333333 1 4 10 
2 9 7 
p 0.0633333333333333 1 4 10 
2 1 2 
p 0.0633333333333333 1 2 6 
2 1 4 
p 0.0633333333333333 1 2 6 
2 2 3 
p 0.0633333333333333 1 -5.5 -1.5 
2 1 4 
p 0.0633333333333333 1 -5.5 -1.5 
2 4 3 
p 0.0633333333333333 1 4 6 
2 5 4 
p 0.0633333333333333 1 4 6 
2 5 6 
p 0.0633333333333333 1 6 10 
2 4 3 
p 0.0633333333333333 1 6 10 
2 6 7 
p 0.0633333333333333 1 0 10 
2 1 2 
p 0.0633333333333333 1 0 10 
2 8 7 
p 0.0633333333333333 1 0 10 
2 1 4 
p 0.0633333333333333 1 0 10 
2 1 10 
p 0.0633333333333333 1 -5.5 -4.5 
2 1 2 
p 0.0633333333333333 1 -5.5 -4.5 
2 1 2 
p 0.0633333333333333 1 8 12 
2 5 4 
p 0.0633333333333333 1 8 12 
2 2 3 
p 0.0633333333333333 1 0 4 
2 1 2 
p 0.0633333333333333 1 0 4 
2 4 3 
p 0.0633333333333333 1 8 12 
2 4 3 
p 0.0633333333333333 1 8 12 
2 1 3 
p 0.0633333333333333 1 8 12 
2 1 2 
p 0.0633333333333333 1 8 12 
2 4 3 
p 0.0633333333333333 1 0 4 
2 1 4 
p 0.0633333333333333 1 0 4 
2 1 2 
p 0.0633333333333333 1 6 10 
2 5 6 
p 0.0633333333333333 1 6 10 
2 3 2 
p 0.0633333333333333 1 0 10 
2 1 4 
p 0.0633333333333333 1 0 10 
2 2 3 
p 0.0633333333333333 1 0 10 
2 10 8 
p 0.0633333333333333 1 0 10 
2 4 3 
p 0.0633333333333333 1 0 10 
2 2 3 
p 0.0633333333333333 1 0 10 
2 1 2 
p 0.0633333333333333 1 3.5 5.5 
2 1 2 
p 0.0633333333333333 1 3.5 5.5 
2 1 3 
p 0.0633333333333333 1 -5.5 -3.5 
2 1 2 
p 0.0633333333333333 1 -5.5 -3.5 
2 2 4 
p 0.0633333333333333 1 -5.5 -3.5 
2 1 2 
p 0.0633333333333333 1 -5.5 -3.5 
2 3 4 
p 0.0633333333333333 1 3.5 5.5 
2 1 2 
p 0.0633333333333333 1 3.5 5.5 
2 6 8 
p 0.0633333333333333 1 0 10 
2 4 3 
p 0.0633333333333333 1 0 10 
2 3 2 
p 0.0633333333333333 1 0 3 
2 4 1 
p 0.0633333333333333 1 0 3 
2 4 3 
p 0.0633333333333333 1 0 2 
2 4 3 
p 0.0633333333333333 1 0 2 
2 4 1 
p 0.0633333333333333 1 0 3 
2 4 1 
p 0.0633333333333333 1 0 3 
2 3 2 
p 0.0633333333333333 1 0 3 
2 3 2 
p 0.0633333333333333 1 0 3 
2 3 4 
p 0.0633333333333333 1 0 2 
2 2 3 
p 0.0633333333333333 1 0 2 
2 4 3 
p 0.0633333333333333 1 0 2 
2 1 2 
p 0.0633333333333333 1 0 2 
2 4 1 
p 0.0633333333333333 1 0 3 
2 3 2 
p 0.0633333333333333 1 0 3 
2 3 4 
p 0.0633333333333333 1 0 2 
2 1 4 
p 0.0633333333333333 1 0 2 
2 2 3 
p 0.0633333333333333 1 0 4 
2 4 3 
p 0.0633333333333333 1 0 4 
2 4 3 
p 0.0633333333333333 1 8 12 
2 1 2 
p 0.0633333333333333 1 8 12 
2 3 2 
p 0.0633333333333333 1 0 4 
2 2 3 
p 0.0633333333333333 1 0 4 
2 3 2 
p 0.0633333333333333 1 0 3 
2 4 1 
p 0.0633333333333333 1 0 3 
2 4 3 
p 0.0633333333333333 1 0 2 
2 4 3 
p 0.0633333333333333 1 0 2 
2 4 1 
p 0.0633333333333333 1 0 3 
2 4 1 
p 0.0633333333333333 1 0 3 
2 3 2 
p 0.0633333333333333 1 0 3 
2 4 1 
p 0.0633333333333333 1 0 3 
2 3 4 
p 0.0633333333333333 1 0 2 
2 1 4 
p 0.0633333333333333 1 0 2 
2 3 2 
p 0.0633333333333333 1 0 3 
2 3 2 
p 0.0633333333333333 1 0 3 
2 3 4 
p 0.0633333333333333 1 0 2 
2 2 3 
p 0.0633333333333333 1 0 2 
2 4 3 
p 0.0633333333333333 1 0 2 
2 1 2 
p 0.0633333333333333 1 0 2 
Surfaces 39
1 0 0 0 1 0 -0 0 0 1 0 -1 0 
1 0 0 0 -0 1 0 0 0 1 1 0 -0 
1 0 0 10 0 0 1 1 0 -0 -0 1 0 
1 0 10 0 -0 1 0 0 0 1 1 0 -0 
1 0 0 0 0 0 1 1 0 -0 -0 1 0 
1 0 0 4 0 0 1 1 0 -0 -0 1 0 
1 0 0 0 1 0 -0 0 0 1 0 -1 0 
1 0 0 0 -0 1 0 0 0 1 1 0 -0 
1 0 0 0 0 0 1 1 0 -0 -0 1 0 
1 4 0 0 1 0 -0 0 0 1 0 -1 0 
1 10 0 0 1 0 -0 0 0 1 0 -1 0 
1 0 0 0 1 0 -0 0 0 1 0 -1 0 
1 0 0 2 0 0 1 1 0 -0 -0 1 0 
1 0 0 0 1 0 -0 0 0 1 0 -1 0 
1 2 0 0 1 0 -0 0 0 1 0 -1 0 
1 0 0 0 0 0 1 1 0 -0 -0 1 0 
1 0 10 0 -0 1 0 0 0 1 1 0 -0 
1 0 12 0 -0 1 0 0 0 1 1 0 -0 
1 0 0 0 -0 1 0 0 0 1 1 0 -0 
1 0 0 0 0 0 1 1 0 -0 -0 1 0 
1 0 0 0 1 0 -0 0 0 1 0 -1 0 
1 0 0 0 0 0 1 1 0 -0 -0 1 0 
1 0 0 10 0 0 1 1 0 -0 -0 1 0 
1 0 10 0 -0 1 0 0 0 1 1 0 -0 
1 0 0 0 -0 1 0 0 0 1 1 0 -0 
1 0 0 2 0 0 1 1 0 -0 -0 1 0 
1 2 0 0 1 0 -0 0 0 1 0 -1 0 
1 0 0 0 0 0 1 1 0 -0 -0 1 0 
1 0 0 0 1 0 -0 0 0 1 0 -1 0 
1 0 0 4 0 0 1 1 0 -0 -0 1 0 
1 4 0 0 1 0 -0 0 0 1 0 -1 0 
1 10 0 0 1 0 -0 0 0 1 0 -1 0 
1 0 12 0 -0 1 0 0 0 1 1 0 -0 
1 0 0 2 0 0 1 1 0 -0 -0 1 0 
1 0 0 0 1 0 -0 0 0 1 0 -1 0 
1 2 0 0 1 0 -0 0 0 1 0 -1 0 
1 0 0 0 0 0 1 1 0 -0 -0 1 0 
1 0 0 0 -0 1 0 0 0 1 1 0 -0 
1 0 0 0 -0 1 0 0 0 1 1 0 -0 
Triangulations 39
4 2 1 0
0 0 0 0 0 10 0 10 10 0 10 0 0 0 10 0 10 -10 0 -10 2 4 3 2 1 4 
10 8 1 0
2 0 6 4 0 6 2 0 2 4 0 10 6 0 2 0 0 10 6 0 4 0 0 0 10 0 4 10 0 0 6 2 6 4 2 2 10 4 2 6 10 0 4 6 0 0 4 10 0 10 5 8 3 1 3 8 6 1 8 10 8 5 9 5 7 9 10 5 4 2 1 4 1 6 
4 2 1 2.22044604925031e-16
0 0 10 4 0 10 0 10 10 4 10 10 0 0 4 0 0 10 4 10 4 1 2 4 3 1 
10 10 1 5.55111512312578e-17
1 10 3 3 10 3 1 10 1 3 10 1 10 10 0 10 10 4 0 10 0 4 10 4 0 10 10 4 10 10 3 1 3 3 1 1 1 3 0 10 4 10 0 0 4 4 10 0 10 4 1 3 7 4 7 3 8 2 1 8 4 2 5 7 4 5 4 8 9 1 7 9 8 1 6 5 8 10 8 9 
4 2 1 0
0 0 0 0 10 0 10 10 0 10 0 0 0 0 0 10 10 10 10 0 3 2 1 3 1 4 
5 3 1 0
2 0 6 2 4 6 6 4 6 6 0 6 4 0 6 0 8 0 12 4 12 4 8 2 8 2 1 5 3 5 4 3 2 5 
4 2 1 0
2 0 6 2 4 6 2 4 2 2 0 2 4 -8 4 -12 0 -12 0 -8 1 3 2 1 4 3 
8 6 1 0
4 0 10 8 0 10 4 0 6 6 0 6 6 0 4 10 0 4 10 0 7 8 0 7 10 4 10 8 6 4 6 6 4 6 4 10 7 10 7 8 1 4 3 8 5 4 8 6 5 7 6 8 2 4 1 2 8 4 
4 2 1 0
2 0 2 2 4 2 6 4 2 6 0 2 0 8 0 12 4 12 4 8 3 2 1 3 1 4 
5 3 1 0
6 0 6 6 0 4 6 4 6 6 4 2 6 0 2 4 -8 2 -8 4 -12 0 -12 0 -8 2 4 3 2 5 4 1 2 3 
4 2 1 2.22044604925031e-16
10 10 0 10 10 4 10 0 0 10 0 4 0 -10 4 -10 0 0 4 0 4 1 2 4 3 1 
4 2 1 2.22044604925031e-16
4 0 10 4 0 14 4 10 14 4 10 10 6 0 10 0 10 -10 6 -10 1 4 3 2 1 3 
4 2 1 0
1 10 3 3 10 3 3 7 3 1 7 3 0 3 2 3 2 0 0 0 1 4 3 2 1 3 
4 2 1 0
1 10 3 1 10 1 1 7 1 1 7 3 2 -3 0 -3 0 0 2 0 3 2 1 4 3 1 
4 2 1 0
3 10 3 3 10 1 3 7 1 3 7 3 2 -3 0 -3 0 0 2 0 3 2 1 4 3 1 
4 2 1 0
1 10 1 3 10 1 3 7 1 1 7 1 0 3 2 3 2 0 0 0 1 4 3 2 1 3 
8 8 1 0
6 10 8 8 10 8 8 10 6 6 10 6 10 10 4 10 10 10 4 10 4 4 10 10 8 6 8 8 6 8 6 6 4 10 10 10 4 4 10 4 3 5 7 3 7 4 8 1 4 8 4 7 6 2 1 6 3 2 6 5 3 6 1 8 
4 2 1 0
0 12 0 4 12 0 4 12 4 0 12 4 0 0 0 4 4 4 4 0 3 2 1 3 1 4 
10 8 1 2.22044604925031e-16
8 0 11 12 0 11 12 0 7 10 0 7 10 0 4 14 0 4 14 0 14 4 0 14 4 0 10 8 0 10 7 4 7 8 3 8 3 6 0 6 0 10 10 10 10 0 6 0 6 4 3 5 4 3 6 5 1 9 8 1 10 9 7 2 1 7 1 8 7 6 3 7 3 2 
5 3 1 0
8 0 7 8 4 7 12 4 7 12 0 7 10 0 7 0 8 0 12 4 12 4 8 2 8 2 1 5 3 5 4 3 2 5 
5 3 1 2.22044604925031e-16
8 0 11 8 0 10 8 4 11 8 4 7 8 0 7 4 -8 3 -8 4 -12 0 -12 0 -8 2 4 3 2 5 4 1 2 3 
4 2 1 2.22044604925031e-16
10 10 4 14 10 4 14 0 4 10 0 4 6 10 10 10 10 0 6 0 1 4 3 2 1 3 
4 2 1 0
0 0 10 0 10 10 10 10 10 10 0 10 0 0 0 10 10 10 10 0 3 2 1 3 1 4 
10 10 1 5.55111512312578e-17
11 10 13 13 10 13 11 10 11 13 10 11 10 10 4 14 10 4 10 10 10 14 10 14 4 10 10 4 10 14 9 7 9 9 7 7 7 9 0 6 0 10 6 6 10 10 6 0 10 0 7 6 5 7 9 10 4 6 7 4 7 3 1 7 10 1 3 7 8 2 1 8 4 2 8 1 10 8 6 4 
4 2 1 0
0 0 0 2 0 0 2 0 2 0 0 2 0 0 0 2 2 2 2 0 3 2 1 3 1 4 
4 2 1 0
6 10 8 8 10 8 8 7 8 6 7 8 0 3 2 3 2 0 0 0 1 4 3 2 1 3 
4 2 1 0
8 10 8 8 10 6 8 7 6 8 7 8 2 -3 0 -3 0 0 2 0 4 2 1 4 3 2 
4 2 1 0
6 10 6 8 10 6 8 7 6 6 7 6 0 3 2 3 2 0 0 0 1 4 3 2 1 3 
4 2 1 0
6 10 8 6 10 6 6 7 6 6 7 8 2 -3 0 -3 0 0 2 0 4 2 1 4 3 2 
4 2 1 0
8 0 11 8 4 11 12 4 11 12 0 11 0 8 0 12 4 12 4 8 4 2 1 3 2 4 
4 2 1 0
12 0 11 12 4 11 12 4 7 12 0 7 4 -8 4 -12 0 -12 0 -8 2 4 3 1 4 2 
4 2 1 0
10 0 0 10 0 10 10 10 10 10 10 0 0 0 10 0 10 -10 0 -10 2 4 3 2 1 4 
4 2 1 0
0 12 0 4 12 0 4 12 4 0 12 4 0 0 0 4 4 4 4 0 3 2 1 3 1 4 
4 2 1 0
11 10 13 13 10 13 13 7 13 11 7 13 0 3 2 3 2 0 0 0 1 4 3 2 1 3 
4 2 1 0
11 10 13 11 10 11 11 7 11 11 7 13 2 -3 0 -3 0 0 2 0 4 2 1 4 3 2 
4 2 1 0
13 10 13 13 10 11 13 7 11 13 7 13 2 -3 0 -3 0 0 2 0 4 2 1 4 3 2 
4 2 1 0
11 10 11 13 10 11 13 7 11 11 7 11 0 3 2 3 2 0 0 0 1 4 3 2 1 3 
4 2 1 0
0 0 0 2 0 0 2 0 2 0 0 2 0 0 0 2 2 2 2 0 3 2 1 3 1 4 
4 2 1 0
0 0 0 2 0 0 2 0 2 0 0 2 0 0 0 2 2 2 2 0 3 2 1 3 1 4 

TShapes 243
Ve
1e-07
0 0 10
0 0

0101101
*
Ve
1e-07
0 0 0
0 0

0101101
*
Ed
 1e-07 1 1 0
1  1 0 0 10
2  1 1 0 0 10
2  2 2 0 0 10
6  1 1 0
6  2 2 9
0

0101000
-243 10 +242 10 *
Ve
1e-07
0 10 10
0 0

0101101
*
Ed
 1e-07 1 1 0
1  2 0 0 10
2  3 1 0 0 10
2  4 3 0 0 10
6  3 1 0
6  4 3 11
0

0101000
-240 10 +243 10 *
Ve
1e-07
0 10 0
0 0

0101101
*
Ed
 1e-07 1 1 0
1  3 0 0 10
2  5 1 0 0 10
2  6 4 0 0 10
6  5 1 0
6  6 4 12
0

0101000
-240 10 +238 10 *
Ed
 1e-07 1 1 0
1  4 0 0 10
2  7 1 0 0 10
2  8 5 0 0 10
6  7 1 0
6  8 5 0
0

0101000
-238 10 +242 10 *
Wi

0101000
-241 0 -239 0 +237 0 +236 0 *
Fa
0  1e-07 1 0
2  1
0101000
+235 0 *
Ve
2.00001e-07
2 0 6
0 0

0101101
*
Ve
2.00001e-07
4 0 6
0 0

0101101
*
Ed
 1e-07 1 1 0
1  5 0 1 3
2  9 2 15 1 3
2  10 6 16 1 3
6  9 2 17
6  10 6 0
0

0101000
+233 18 -232 18 *
Ve
2.00001e-07
2 0 2
0 0

0101101
*
Ed
 1e-07 1 1 0
1  6 0 -5 -1
2  11 2 15 -5 -1
2  12 7 16 -5 -1
6  11 2 17
6  12 7 0
0

0101000
+233 18 -230 18 *
Ve
1e-07
4 0 10
0 0

0101101
*
Ed
 1e-07 1 1 0
1  7 0 2 6
2  13 2 21 2 6
2  14 8 21 2 6
6  13 2 22
6  14 8 22
0

0101000
+232 23 -228 23 *
Ve
2.00001e-07
6 0 2
0 0

0101101
*
Ed
 1e-07 1 1 0
1  8 0 1 5
2  15 2 15 1 5
2  16 9 16 1 5
6  15 2 17
6  16 9 0
0

0101000
+230 18 -226 18 *
Ed
 1e-07 1 1 0
1  9 0 0 4
2  17 2 0 0 4
2  18 3 0 0 4
6  17 2 9
6  18 3 11
0

0101000
+243 10 -228 10 *
Ve
2.00001e-07
6 0 4
0 0

0101101
*
Ed
 1e-07 1 1 0
1  10 0 -3 -1
2  19 2 15 -3 -1
2  20 10 16 -3 -1
6  19 2 17
6  20 10 0
0

0101000
+223 18 -226 18 *
Ve
1e-07
10 0 4
0 0

0101101
*
Ed
 1e-07 1 1 0
1  11 0 2 6
2  21 2 21 2 6
2  22 8 21 2 6
6  21 2 22
6  22 8 22
0

0101000
+223 23 -221 23 *
Ve
1e-07
10 0 0
0 0

0101101
*
Ed
 1e-07 1 1 0
1  12 0 0 10
2  23 2 0 0 10
2  24 5 0 0 10
6  23 2 9
6  24 5 0
0

0101000
-219 10 +242 10 *
Ed
 1e-07 1 1 0
1  13 0 0 4
2  25 2 0 0 4
2  26 11 0 0 4
6  25 2 9
6  26 11 11
0

0101000
+219 10 -221 10 *
Wi

0101000
-231 4 +229 4 -227 20 +225 4 +224 14 -222 4 +241 14 +220 20 -218 14 -217 14 
*
Fa
0  1e-07 2 14
2  2
0101000
+216 0 *
Ve
1e-07
4 10 10
0 0

0101101
*
Ed
 1e-07 1 1 0
1  14 0 0 4
2  27 3 0 0 4
2  28 4 0 0 4
6  27 3 11
6  28 4 12
0

0101000
+240 10 -214 10 *
Ed
 1e-07 1 1 0
1  15 0 0 10
2  29 3 2 0 10
2  30 12 19 0 10
6  29 3 0
6  30 12 0
0

0101000
+228 25 -214 25 *
Wi

0101000
+224 2 -239 2 -213 2 +212 0 *
Fa
0  1e-07 3 2
2  3
0101000
+211 0 *
Ve
2.00001e-07
1 10 3
0 0

0101101
*
Ve
2.00001e-07
3 10 3
0 0

0101101
*
Ed
 1e-07 1 1 0
1  16 0 0.5 2.5
2  31 4 26 0.5 2.5
2  32 13 27 0.5 2.5
6  31 4 28
6  32 13 0
0

0101000
+209 29 -208 29 *
Ve
2.00001e-07
1 10 1
0 0

0101101
*
Ed
 1e-07 1 1 0
1  17 0 -2.5 -0.5
2  33 4 26 -2.5 -0.5
2  34 14 27 -2.5 -0.5
6  33 4 28
6  34 14 0
0

0101000
+209 29 -206 29 *
Ve
2.00001e-07
3 10 1
0 0

0101101
*
Ed
 1e-07 1 1 0
1  18 0 -2.5 -0.5
2  35 4 26 -2.5 -0.5
2  36 15 27 -2.5 -0.5
6  35 4 28
6  36 15 0
0

0101000
+208 29 -204 29 *
Ed
 1e-07 1 1 0
1  19 0 0.5 2.5
2  37 4 26 0.5 2.5
2  38 16 27 0.5 2.5
6  37 4 28
6  38 16 0
0

0101000
+206 29 -204 29 *
Wi

0101000
-207 7 +205 7 -203 7 +202 7 *
Ve
1e-07
10 10 0
0 0

0101101
*
Ve
1e-07
10 10 4
0 0

0101101
*
Ed
 1e-07 1 1 0
1  20 0 0 4
2  39 4 0 0 4
2  40 11 0 0 4
6  39 4 12
6  40 11 11
0

0101000
+200 10 -199 10 *
Ed
 1e-07 1 1 0
1  21 0 0 10
2  41 4 0 0 10
2  42 5 0 0 10
6  41 4 12
6  42 5 0
0

0101000
-200 10 +238 10 *
Ve
1e-07
4 10 4
0 0

0101101
*
Ed
 1e-07 1 1 0
1  22 0 0 6
2  43 4 21 0 6
2  44 17 21 0 6
6  43 4 31
6  44 17 31
0

0101000
+196 23 -199 23 *
Ed
 1e-07 1 1 0
1  23 0 0 6
2  45 4 21 0 6
2  46 17 21 0 6
6  45 4 31
6  46 17 31
0

0101000
+196 23 -214 23 *
Wi

0101000
-198 8 -197 8 +195 30 +237 8 -194 30 +213 8 *
Fa
0  1e-07 4 8
2  4
0101000
+201 0 +193 0 *
Ed
 1e-07 1 1 0
1  24 0 0 10
2  47 5 0 0 10
2  48 11 0 0 10
6  47 5 0
6  48 11 11
0

0101000
-200 10 +219 10 *
Wi

0101000
-236 0 -197 0 +191 0 +218 0 *
Fa
0  1e-07 5 0
2  5
0101000
+190 0 *
Ve
1e-07
2 4 6
0 0

0101101
*
Ed
 1e-07 1 1 0
1  25 0 8 12
2  49 6 0 8 12
2  50 7 0 8 12
6  49 6 33
6  50 7 33
0

0101000
+233 34 -188 34 *
Ve
1e-07
6 4 6
0 0

0101101
*
Ed
 1e-07 1 1 0
1  26 0 0 4
2  51 6 0 0 4
2  52 18 0 0 4
6  51 6 33
6  52 18 0
0

0101000
-186 34 +188 34 *
Ve
2.00001e-07
6 0 6
0 0

0101101
*
Ed
 1e-07 1 1 0
1  27 0 8 12
2  53 6 0 8 12
2  54 10 0 8 12
6  53 6 33
6  54 10 33
0

0101000
+184 34 -186 34 *
Ed
 1e-07 1 1 0
1  28 0 3 5
2  55 6 16 3 5
2  56 8 15 3 5
6  55 6 0
6  56 8 17
0

0101000
+232 18 -184 18 *
Wi

0101000
-187 16 -185 16 +183 16 +182 0 +231 0 *
Fa
0  1e-07 6 16
2  6
0101000
+181 0 *
Ve
1e-07
2 4 2
0 0

0101101
*
Ed
 1e-07 1 1 0
1  29 0 0 4
2  57 7 0 0 4
2  58 18 0 0 4
6  57 7 33
6  58 18 0
0

0101000
-188 34 +179 34 *
Ed
 1e-07 1 1 0
1  30 0 8 12
2  59 7 0 8 12
2  60 9 0 8 12
6  59 7 33
6  60 9 33
0

0101000
+230 34 -179 34 *
Wi

0101000
-187 16 +178 16 +177 16 +229 0 *
Fa
0  1e-07 7 16
2  7
0101000
+176 0 *
Ve
2.00001e-07
8 0 10
0 0

0101101
*
Ed
 1e-07 1 1 0
1  31 0 4 8
2  61 8 0 4 8
2  62 19 35 4 8
6  61 8 9
6  62 19 9
0

0101000
+228 10 -174 10 *
Ed
 1e-07 1 1 0
1  32 0 -5 -3
2  63 8 15 -5 -3
2  64 10 16 -5 -3
6  63 8 17
6  64 10 0
0

0101000
+184 18 -223 18 *
Ve
2.00001e-07
10 0 7
0 0

0101101
*
Ed
 1e-07 1 1 0
1  33 0 4 7
2  65 8 0 4 7
2  66 19 35 4 7
6  65 8 9
6  66 19 9
0

0101000
+221 10 -171 10 *
Ve
2.00001e-07
8 0 7
0 0

0101101
*
Ed
 1e-07 1 1 0
1  34 0 4 6
2  67 8 14 4 6
2  68 20 36 4 6
6  67 8 0
6  68 20 0
0

0101000
+169 37 -171 37 *
Ed
 1e-07 1 1 0
1  35 0 -6.5 -3.5
2  69 8 14 -6.5 -3.5
2  70 21 36 -6.5 -3.5
6  69 8 0
6  70 21 0
0

0101000
+174 37 -169 37 *
Wi

0101000
+173 14 +227 20 -182 4 -172 4 -220 20 -170 14 +168 0 +167 0 *
Fa
0  1e-07 8 14
2  8
0101000
+166 0 *
Ve
1e-07
6 4 2
0 0

0101101
*
Ed
 1e-07 1 1 0
1  36 0 0 4
2  71 9 0 0 4
2  72 18 0 0 4
6  71 9 33
6  72 18 0
0

0101000
-164 34 +179 34 *
Ed
 1e-07 1 1 0
1  37 0 8 12
2  73 9 0 8 12
2  74 10 0 8 12
6  73 9 33
6  74 10 33
0

0101000
+226 34 -164 34 *
Wi

0101000
-177 16 -163 16 +162 16 +225 0 *
Fa
0  1e-07 9 16
2  9
0101000
+161 0 *
Ed
 1e-07 1 1 0
1  38 0 0 4
2  75 10 0 0 4
2  76 18 0 0 4
6  75 10 33
6  76 18 0
0

0101000
-186 34 +164 34 *
Wi

0101000
+172 0 -183 16 +159 16 +162 16 +222 0 *
Fa
0  1e-07 10 16
2  10
0101000
+158 0 *
Ed
 1e-07 1 1 0
1  39 0 -10 0
2  77 11 2 -10 0
2  78 22 19 -10 0
6  77 11 0
6  78 22 0
0

0101000
+199 25 -221 25 *
Wi

0101000
+198 2 +191 2 -217 2 +156 0 *
Fa
0  1e-07 11 2
2  11
0101000
+155 0 *
Ve
1e-07
4 0 14
0 0

0101101
*
Ed
 1e-07 1 1 0
1  40 0 6 10
2  79 12 0 6 10
2  80 19 0 6 10
6  79 12 38
6  80 19 22
0

0101000
+228 23 -153 23 *
Ve
1e-07
4 10 14
0 0

0101101
*
Ed
 1e-07 1 1 0
1  41 0 0 10
2  81 12 0 0 10
2  82 23 0 0 10
6  81 12 38
6  82 23 0
0

0101000
-151 23 +153 23 *
Ed
 1e-07 1 1 0
1  42 0 6 10
2  83 12 0 6 10
2  84 24 0 6 10
6  83 12 38
6  84 24 31
0

0101000
+214 23 -151 23 *
Wi

0101000
-152 19 -150 19 +149 19 +212 0 *
Fa
0  1e-07 12 19
2  12
0101000
+148 0 *
Ve
1e-07
3 7 3
0 0

0101101
*
Ed
 1e-07 1 1 0
1  43 0 0 3
2  85 13 0 0 3
2  86 15 0 0 3
6  85 13 39
6  86 15 39
0

0101000
+146 40 -208 40 *
Ve
1e-07
1 7 3
0 0

0101101
*
Ed
 1e-07 1 1 0
1  44 0 0 2
2  87 13 0 0 2
2  88 25 0 0 2
6  87 13 39
6  88 25 0
0

0101000
-146 40 +144 40 *
Ed
 1e-07 1 1 0
1  45 0 0 3
2  89 13 0 0 3
2  90 14 0 0 3
6  89 13 39
6  90 14 39
0

0101000
+144 40 -209 40 *
Wi

0101000
-207 0 +145 27 +143 27 -142 27 *
Fa
0  1e-07 13 27
2  13
0101000
+141 0 *
Ve
1e-07
1 7 1
0 0

0101101
*
Ed
 1e-07 1 1 0
1  46 0 0 3
2  91 14 0 0 3
2  92 16 0 0 3
6  91 14 39
6  92 16 39
0

0101000
+139 40 -206 40 *
Ed
 1e-07 1 1 0
1  47 0 0 2
2  93 14 0 0 2
2  94 25 0 0 2
6  93 14 39
6  94 25 0
0

0101000
-144 40 +139 40 *
Wi

0101000
-205 0 +138 27 -137 27 -142 27 *
Fa
0  1e-07 14 27
2  14
0101000
+136 0 *
Ve
1e-07
3 7 1
0 0

0101101
*
Ed
 1e-07 1 1 0
1  48 0 0 3
2  95 15 0 0 3
2  96 16 0 0 3
6  95 15 39
6  96 16 39
0

0101000
+134 40 -204 40 *
Ed
 1e-07 1 1 0
1  49 0 0 2
2  97 15 0 0 2
2  98 25 0 0 2
6  97 15 39
6  98 25 0
0

0101000
-146 40 +134 40 *
Wi

0101000
-203 0 +133 27 -132 27 -145 27 *
Fa
0  1e-07 15 27
2  15
0101000
+131 0 *
Ed
 1e-07 1 1 0
1  50 0 0 2
2  99 16 0 0 2
2  100 25 0 0 2
6  99 16 39
6  100 25 0
0

0101000
-134 40 +139 40 *
Wi

0101000
-202 0 +133 27 +129 27 -138 27 *
Fa
0  1e-07 16 27
2  16
0101000
+128 0 *
Ve
2.00001e-07
6 10 8
0 0

0101101
*
Ve
2.00001e-07
8 10 8
0 0

0101101
*
Ed
 1e-07 1 1 0
1  51 0 3 5
2  101 17 8 3 5
2  102 26 41 3 5
6  101 17 0
6  102 26 0
0

0101000
+126 42 -125 42 *
Ve
2.00001e-07
8 10 6
0 0

0101101
*
Ed
 1e-07 1 1 0
1  52 0 -5 -3
2  103 17 8 -5 -3
2  104 27 41 -5 -3
6  103 17 0
6  104 27 0
0

0101000
+125 42 -123 42 *
Ve
2.00001e-07
6 10 6
0 0

0101101
*
Ed
 1e-07 1 1 0
1  53 0 3 5
2  105 17 8 3 5
2  106 28 41 3 5
6  105 17 0
6  106 28 0
0

0101000
+121 42 -123 42 *
Ed
 1e-07 1 1 0
1  54 0 -5 -3
2  107 17 8 -5 -3
2  108 29 41 -5 -3
6  107 17 0
6  108 29 0
0

0101000
+126 42 -121 42 *
Wi

0101000
-124 0 -122 0 +120 0 +119 0 *
Ve
1e-07
10 10 10
0 0

0101101
*
Ed
 1e-07 1 1 0
1  55 0 4 10
2  109 17 0 4 10
2  110 24 35 4 10
6  109 17 12
6  110 24 12
0

0101000
+199 10 -117 10 *
Ed
 1e-07 1 1 0
1  56 0 4 10
2  111 17 0 4 10
2  112 24 35 4 10
6  111 17 12
6  112 24 12
0

0101000
+214 10 -117 10 *
Wi

0101000
-116 8 -195 30 +115 8 +194 30 *
Fa
0  1e-07 17 8
2  17
0101000
+118 0 +114 0 *
Wi

0101000
-163 0 -159 0 +185 0 +178 0 *
Fa
0  1e-07 18 0
2  18
0101000
+112 0 *
Ve
2.00001e-07
8 0 11
0 0

0101101
*
Ve
2.00001e-07
12 0 11
0 0

0101101
*
Ed
 1e-07 1 1 0
1  57 0 2 6
2  113 19 20 2 6
2  114 30 36 2 6
6  113 19 0
6  114 30 0
0

0101000
+110 37 -109 37 *
Ve
2.00001e-07
12 0 7
0 0

0101101
*
Ed
 1e-07 1 1 0
1  58 0 -5.5 -1.5
2  115 19 20 -5.5 -1.5
2  116 31 36 -5.5 -1.5
6  115 19 0
6  116 31 0
0

0101000
+109 37 -107 37 *
Ed
 1e-07 1 1 0
1  59 0 4 6
2  117 19 20 4 6
2  118 20 36 4 6
6  117 19 0
6  118 20 0
0

0101000
+171 37 -107 37 *
Ve
1e-07
14 0 4
0 0

0101101
*
Ed
 1e-07 1 1 0
1  60 0 6 10
2  119 19 0 6 10
2  120 22 0 6 10
6  119 19 22
6  120 22 38
0

0101000
+221 23 -104 23 *
Ve
1e-07
14 0 14
0 0

0101101
*
Ed
 1e-07 1 1 0
1  61 0 0 10
2  121 19 0 0 10
2  122 32 0 0 10
6  121 19 22
6  122 32 0
0

0101000
-102 23 +104 23 *
Ed
 1e-07 1 1 0
1  62 0 0 10
2  123 19 0 0 10
2  124 23 0 0 10
6  123 19 22
6  124 23 0
0

0101000
-102 23 +153 23 *
Ed
 1e-07 1 1 0
1  63 0 -5.5 -4.5
2  125 19 20 -5.5 -4.5
2  126 21 36 -5.5 -4.5
6  125 19 0
6  126 21 0
0

0101000
+110 37 -174 37 *
Wi

0101000
-108 0 -106 0 +105 0 +170 14 -103 20 -101 20 +100 20 +152 20 -173 14 +99 0 
*
Fa
0  1e-07 19 20
2  19
0101000
+98 0 *
Ve
1e-07
8 4 7
0 0

0101101
*
Ed
 1e-07 1 1 0
1  64 0 8 12
2  127 20 0 8 12
2  128 21 0 8 12
6  127 20 44
6  128 21 44
0

0101000
+169 45 -96 45 *
Ve
1e-07
12 4 7
0 0

0101101
*
Ed
 1e-07 1 1 0
1  65 0 0 4
2  129 20 0 0 4
2  130 33 0 0 4
6  129 20 44
6  130 33 0
0

0101000
-94 45 +96 45 *
Ed
 1e-07 1 1 0
1  66 0 8 12
2  131 20 0 8 12
2  132 31 0 8 12
6  131 20 44
6  132 31 44
0

0101000
+107 45 -94 45 *
Wi

0101000
-95 36 -93 36 +92 36 +105 0 +168 0 *
Fa
0  1e-07 20 36
2  20
0101000
+91 0 *
Ve
1e-07
8 4 11
0 0

0101101
*
Ed
 1e-07 1 1 0
1  67 0 8 12
2  133 21 0 8 12
2  134 30 0 8 12
6  133 21 44
6  134 30 44
0

0101000
+110 45 -89 45 *
Ed
 1e-07 1 1 0
1  68 0 0 4
2  135 21 0 0 4
2  136 33 0 0 4
6  135 21 44
6  136 33 0
0

0101000
-89 45 +96 45 *
Wi

0101000
+99 0 -88 36 +87 36 +95 36 +167 0 *
Fa
0  1e-07 21 36
2  21
0101000
+86 0 *
Ve
1e-07
14 10 4
0 0

0101101
*
Ed
 1e-07 1 1 0
1  69 0 6 10
2  137 22 0 6 10
2  138 24 0 6 10
6  137 22 38
6  138 24 31
0

0101000
+199 23 -84 23 *
Ed
 1e-07 1 1 0
1  70 0 0 10
2  139 22 0 0 10
2  140 32 0 0 10
6  139 22 38
6  140 32 0
0

0101000
-84 23 +104 23 *
Wi

0101000
-83 19 +82 19 +103 19 +156 0 *
Fa
0  1e-07 22 19
2  22
0101000
+81 0 *
Ve
1e-07
14 10 14
0 0

0101101
*
Ed
 1e-07 1 1 0
1  71 0 0 10
2  141 23 0 0 10
2  142 24 0 0 10
6  141 23 0
6  142 24 31
0

0101000
-79 23 +151 23 *
Ed
 1e-07 1 1 0
1  72 0 0 10
2  143 23 0 0 10
2  144 32 0 0 10
6  143 23 0
6  144 32 0
0

0101000
-79 23 +102 23 *
Wi

0101000
-150 0 -78 0 +77 0 +100 0 *
Fa
0  1e-07 23 0
2  23
0101000
+76 0 *
Ve
2.00001e-07
11 10 13
0 0

0101101
*
Ve
2.00001e-07
13 10 13
0 0

0101101
*
Ed
 1e-07 1 1 0
1  73 0 3.5 5.5
2  145 24 47 3.5 5.5
2  146 34 48 3.5 5.5
6  145 24 49
6  146 34 0
0

0101000
+74 50 -73 50 *
Ve
2.00001e-07
11 10 11
0 0

0101101
*
Ed
 1e-07 1 1 0
1  74 0 -5.5 -3.5
2  147 24 47 -5.5 -3.5
2  148 35 48 -5.5 -3.5
6  147 24 49
6  148 35 0
0

0101000
+74 50 -71 50 *
Ve
2.00001e-07
13 10 11
0 0

0101101
*
Ed
 1e-07 1 1 0
1  75 0 -5.5 -3.5
2  149 24 47 -5.5 -3.5
2  150 36 48 -5.5 -3.5
6  149 24 49
6  150 36 0
0

0101000
+73 50 -69 50 *
Ed
 1e-07 1 1 0
1  76 0 3.5 5.5
2  151 24 47 3.5 5.5
2  152 37 48 3.5 5.5
6  151 24 49
6  152 37 0
0

0101000
+71 50 -69 50 *
Wi

0101000
-72 46 +70 46 -68 46 +67 46 *
Ed
 1e-07 1 1 0
1  77 0 0 10
2  153 24 0 0 10
2  154 32 0 0 10
6  153 24 31
6  154 32 0
0

0101000
-79 23 +84 23 *
Wi

0101000
-83 30 +116 8 -65 30 -115 8 +78 30 +149 30 *
Fa
0  1e-07 24 30
2  24
0101000
+66 0 +64 0 *
Wi

0101000
-129 0 -132 0 +143 0 +137 0 *
Fa
0  1e-07 25 0
2  25
0101000
+62 0 *
Ve
1e-07
8 7 8
0 0

0101101
*
Ed
 1e-07 1 1 0
1  78 0 0 3
2  155 26 0 0 3
2  156 27 0 0 3
6  155 26 52
6  156 27 52
0

0101000
+60 53 -125 53 *
Ve
1e-07
6 7 8
0 0

0101101
*
Ed
 1e-07 1 1 0
1  79 0 0 2
2  157 26 0 0 2
2  158 38 0 0 2
6  157 26 52
6  158 38 0
0

0101000
-60 53 +58 53 *
Ed
 1e-07 1 1 0
1  80 0 0 3
2  159 26 0 0 3
2  160 29 0 0 3
6  159 26 52
6  160 29 52
0

0101000
+58 53 -126 53 *
Wi

0101000
-124 0 +59 41 +57 41 -56 41 *
Fa
0  1e-07 26 41
2  26
0101000
+55 0 *
Ve
1e-07
8 7 6
0 0

0101101
*
Ed
 1e-07 1 1 0
1  81 0 0 3
2  161 27 0 0 3
2  162 28 0 0 3
6  161 27 52
6  162 28 52
0

0101000
+53 53 -123 53 *
Ed
 1e-07 1 1 0
1  82 0 0 2
2  163 27 0 0 2
2  164 38 0 0 2
6  163 27 52
6  164 38 0
0

0101000
-60 53 +53 53 *
Wi

0101000
-122 0 +52 41 -51 41 -59 41 *
Fa
0  1e-07 27 41
2  27
0101000
+50 0 *
Ve
1e-07
6 7 6
0 0

0101101
*
Ed
 1e-07 1 1 0
1  83 0 0 2
2  165 28 0 0 2
2  166 38 0 0 2
6  165 28 52
6  166 38 0
0

0101000
-53 53 +48 53 *
Ed
 1e-07 1 1 0
1  84 0 0 3
2  167 28 0 0 3
2  168 29 0 0 3
6  167 28 52
6  168 29 52
0

0101000
+48 53 -121 53 *
Wi

0101000
-120 0 +52 41 +47 41 -46 41 *
Fa
0  1e-07 28 41
2  28
0101000
+45 0 *
Ed
 1e-07 1 1 0
1  85 0 0 2
2  169 29 0 0 2
2  170 38 0 0 2
6  169 29 52
6  170 38 0
0

0101000
-58 53 +48 53 *
Wi

0101000
-119 0 +46 41 -43 41 -56 41 *
Fa
0  1e-07 29 41
2  29
0101000
+42 0 *
Ve
1e-07
12 4 11
0 0

0101101
*
Ed
 1e-07 1 1 0
1  86 0 0 4
2  171 30 0 0 4
2  172 33 0 0 4
6  171 30 44
6  172 33 0
0

0101000
-40 45 +89 45 *
Ed
 1e-07 1 1 0
1  87 0 8 12
2  173 30 0 8 12
2  174 31 0 8 12
6  173 30 44
6  174 31 44
0

0101000
+109 45 -40 45 *
Wi

0101000
-88 36 -39 36 +38 36 +108 0 *
Fa
0  1e-07 30 36
2  30
0101000
+37 0 *
Ed
 1e-07 1 1 0
1  88 0 0 4
2  175 31 0 0 4
2  176 33 0 0 4
6  175 31 44
6  176 33 0
0

0101000
-40 45 +94 45 *
Wi

0101000
-38 36 +35 36 +92 36 +106 0 *
Fa
0  1e-07 31 36
2  31
0101000
+34 0 *
Wi

0101000
-101 0 -77 0 +65 0 +82 0 *
Fa
0  1e-07 32 0
2  32
0101000
+32 0 *
Wi

0101000
-93 0 -35 0 +39 0 +87 0 *
Fa
0  1e-07 33 0
2  33
0101000
+30 0 *
Ve
1e-07
13 7 13
0 0

0101101
*
Ed
 1e-07 1 1 0
1  89 0 0 3
2  177 34 0 0 3
2  178 36 0 0 3
6  177 34 55
6  178 36 55
0

0101000
+28 56 -73 56 *
Ve
1e-07
11 7 13
0 0

0101101
*
Ed
 1e-07 1 1 0
1  90 0 0 2
2  179 34 0 0 2
2  180 39 0 0 2
6  179 34 55
6  180 39 0
0

0101000
-28 56 +26 56 *
Ed
 1e-07 1 1 0
1  91 0 0 3
2  181 34 0 0 3
2  182 35 0 0 3
6  181 34 55
6  182 35 55
0

0101000
+26 56 -74 56 *
Wi

0101000
-72 0 +27 48 +25 48 -24 48 *
Fa
0  1e-07 34 48
2  34
0101000
+23 0 *
Ve
1e-07
11 7 11
0 0

0101101
*
Ed
 1e-07 1 1 0
1  92 0 0 3
2  183 35 0 0 3
2  184 37 0 0 3
6  183 35 55
6  184 37 55
0

0101000
+21 56 -71 56 *
Ed
 1e-07 1 1 0
1  93 0 0 2
2  185 35 0 0 2
2  186 39 0 0 2
6  185 35 55
6  186 39 0
0

0101000
-26 56 +21 56 *
Wi

0101000
-70 0 +20 48 -19 48 -24 48 *
Fa
0  1e-07 35 48
2  35
0101000
+18 0 *
Ve
1e-07
13 7 11
0 0

0101101
*
Ed
 1e-07 1 1 0
1  94 0 0 3
2  187 36 0 0 3
2  188 37 0 0 3
6  187 36 55
6  188 37 55
0

0101000
+16 56 -69 56 *
Ed
 1e-07 1 1 0
1  95 0 0 2
2  189 36 0 0 2
2  190 39 0 0 2
6  189 36 55
6  190 39 0
0

0101000
-28 56 +16 56 *
Wi

0101000
-68 0 +15 48 -14 48 -27 48 *
Fa
0  1e-07 36 48
2  36
0101000
+13 0 *
Ed
 1e-07 1 1 0
1  96 0 0 2
2  191 37 0 0 2
2  192 39 0 0 2
6  191 37 55
6  192 39 0
0

0101000
-16 56 +21 56 *
Wi

0101000
-67 0 +15 48 +11 48 -20 48 *
Fa
0  1e-07 37 48
2  37
0101000
+10 0 *
Wi

0101000
-47 0 -51 0 +57 0 +43 0 *
Fa
0  1e-07 38 0
2  38
0101000
+8 0 *
Wi

0101000
-11 0 -14 0 +25 0 +19 0 *
Fa
0  1e-07 39 0
2  39
0101000
+6 0 *
Sh

0101000
-234 8 -215 13 +210 24 +192 0 -189 8 -180 32 +175 32 -165 13 +160 32 -157 32 
+154 24 -147 24 -140 7 +135 7 -130 7 +127 7 +113 0 -111 43 -97 13 +90 13 
+85 13 -80 24 +75 30 +63 0 +61 51 -54 0 -49 0 +44 0 +41 0 -36 13 
-33 13 +31 30 -29 54 -22 46 +17 46 -12 46 +9 46 +7 41 +5 57 *
So

0100000
+4 0 *
Co

0100000
+3 0 *
Co

1100000
+2 1 *

+1 0 