DBRep_DrawableShape

CASCADE Topology V1, (c) Matra-Datavision
Locations 24
1
              1               0               0               0 
              0               1               0               0 
              0               0               1               0 
1
              1               0               0               0 
              0               1               0               0 
              0               0               1               0 
1
              1               0               0               5 
              0               1               0               0 
              0               0               1               0 
2  3 -1 0
2  2 -1 3 -1 0
2  1 -1 2 -1 3 -1 0
1
              1               0               0               0 
              0               1               0               0 
              0               0               1               0 
1
              1               0               0               0 
              0               1               0               0 
              0               0               1               0 
2  7 1 8 1 0
2  2 -1 0
2  1 -1 2 -1 0
2  3 1 2 1 0
1
              1               0               0               0 
              0               1               0               0 
              0               0               1               0 
1
              1               0               0               0 
              0               1               0               0 
              0               0               1               0 
2  13 1 14 1 2 -1 3 -1 0
2  7 1 8 1 2 1 0
2  7 1 8 1 14 1 2 -1 0
2  13 1 14 1 0
2  14 -1 13 -1 0
2  1 -1 14 -1 13 -1 0
2  13 -1 0
2  14 -1 0
2  1 -1 14 -1 0
2  7 1 8 1 14 1 0
Curve2ds 40
1 0 0 1 0 
1 0 5 1 0 
7 0 0  4 8 3  6.4372286951655289 0  6.477655052278779 -1.2264444938000587  6.5170864661860932 -2.468151359293894  6.5554469820834766 -3.7257382226217302  6.6284583896486087 -6.2264960470250541  6.6631939997614218 -7.4684636093053767  6.6967666022802952 -8.7261779784543734  6.7290752130886906 -10 
 0 5 0.50945770884725361 3 1 5
7 0 0  4 8 3  13.124390270853777 0.083333333333333356  13.240561199818627 0.18553704115000491  13.35839305491629 0.28901261327449124  13.477958177787993 0.39381151855181074  13.716187674910781 0.60220800391875451  13.834720188519432 0.70570530077544824  13.954985958027775 0.81051483153786452  14.077035382601977 0.91666666666666674 
 0 5 0.50945770884725361 3 1 5
1 0 -10 1 0 
1 0 5 1 0 
1 0 0 0 -1 
1 5 0 0 1 
1 0 0 0 1 
1 0 0 1 0 
1 0 0 1 0 
1 0 5 1 0 
7 0 0  8 37 6  6.437228695165528 5  6.5802399564650447 4.7634038851144851  6.7223554075999825 4.5169034403959696  6.8635605126092383 4.2590206936169075  7.0037144891836149 3.9879459040154792  7.1425672018511133 3.701673248001569  7.2796857279501062 3.3971540622075569  7.4145039990282759 3.0708384420456039  7.6031400219363325 2.5604140943057487  7.6576936023946365 2.4055441529113333  7.7096950304017113 2.2503248967939129  7.7591443059575598 2.0947563259534858  7.8060414290621756 1.9388384403900583  7.8503863997155658 1.7825712401036231  7.8921792179177279 1.6259547250941804  7.9706605494195903 1.312023065629278  8.0073490627192925 1.1547079211738236  8.0414854235677655 0.99704346199536253  8.0730696319650104 0.83902968809389478  8.102101687911027 0.68066659946941943  8.1285815914058173 0.52195419612193827  8.1525093424493775 0.36289247805145131  8.2111102650563108 -0.074130773254121429  8.244097204596061 -0.37890923989126968  8.2694580659650967 -0.70498433054120291  8.2843990363723989 -1.0459159535635236  8.2871194767263141 -1.3942383010357964  8.2774250261743134 -1.7411068103260807  8.2571586101864938 -2.0759736855430173  8.1931717896650298 -2.8083642612334541  8.1428700727682752 -3.1936141077828033  8.0838976261588193 -3.5492434036513925  8.0190686020268132 -3.8778952694395175  7.9505897116124089 -4.1835660466578766  7.8795415381116287 -4.4695747639269898  7.8063236005014556 -4.7401755462791373  7.730463901340765 -5.0000000000000009 
 0 9 0.27373090199251832 7 0.39257503879511935 7 0.51141917559771621 7 0.71838467790183647 7 1 9
7 0 0  8 37 6  13.12439027085378 0.083333333333333301  12.855460786367491 0.083333333333333301  12.576262374087399 0.083333333333333301  12.285245535549379 0.083333333333333301  11.980530619135894 0.083333333333333301  11.66004783654985 0.083333333333333301  11.320658882335294 0.083333333333333301  10.958718375346596 0.083333333333333301  10.395766090930428 0.083333333333333301  10.225343695997138 0.083333333333333301  10.054921301063848 0.083333333333333301  9.8844989061305615 0.083333333333333301  9.7140765111972787 0.083333333333333301  9.5436541162639976 0.083333333333333301  9.3732317213307166 0.083333333333333301  9.0323869314641367 0.083333333333333301  8.8619645365308486 0.083333333333333301  8.6915421415975676 0.083333333333333301  8.5211197466642812 0.083333333333333301  8.3506973517309913 0.083333333333333301  8.1802749567977013 0.083333333333333301  8.0098525618644132 0.083333333333333301  7.5426418059720639 0.083333333333333301  7.2179431044415008 0.083333333333333301  6.8719828113462551 0.083333333333333301  6.5119232235848106 0.083333333333333301  6.1458607362003219 0.083333333333333301  5.7831083692556344 0.083333333333333301  5.4344744773751534 0.083333333333333301  4.6747991101991682 0.083333333333333301  4.2775884800360551 0.083333333333333301  3.912719620304534 0.083333333333333301  3.5770134022220104 0.083333333333333301  3.2659573567497064 0.083333333333333301  2.9759118743151745 0.083333333333333301  2.7023535343128775 0.083333333333333301  2.4404878596461925 0.083333333333333301 
 0 9 0.27373090199251832 7 0.39257503879511935 7 0.51141917559771621 7 0.71838467790183647 7 1 9
7 0 0  4 101 34  7.622158738743968 0.083333333333333315  7.6287903479993719 0.089551623150515944  7.6354243102982631 0.095771502266611977  7.6420606283814543 0.1019929722663182  7.6553661245311275 0.11446547823966971  7.662035322636692 0.12071652774360417  7.6687069020912055 0.12696918485113284  7.6820496816411996 0.13947289356918813  7.6887208780603347 0.14572394269830621  7.6953944577147011 0.15197660015535097  7.7087412375859659 0.16448030885544079  7.7154144341219633 0.17073135761485206  7.7220900157704326 0.1769840154163394  7.7354407995632348 0.18948772409852452  7.7421159980221521 0.19573877249339852  7.7487935834615946 0.20199143063419156  7.7621483747816047 0.21449513929853206  7.7688255769722803 0.22074618733410067  7.7755051680022076 0.22699884580900023  7.7888639704605129 0.23950255445555985  7.7955431781945537 0.24575360213711395  7.8022247766171233 0.25200626094086592  7.8155875938302382 0.26450996956970957  7.8222688089220398 0.27076101690259768  7.8289524165420588 0.27701367602988924  7.8423192521319356 0.28951738464108034  7.8490024763986828 0.2957684316307157  7.8556880950236101 0.30202109107617159  7.8690589526176522 0.31452479966977681  7.875744187879322 0.32077584632162998  7.8824318193192777 0.32702850607981432  7.8958067025503489 0.33953221465589872  7.9024939506297267 0.34578326097550605  7.9091835966974884 0.35203592104092057  7.9225625092039236 0.36453962959954933  7.9292517719266034 0.37079067559250489  7.9359434344376272 0.37704333595959449  7.9493263798632485 0.38954704450083588  7.9560176590576397 0.39579809017280199  7.9627113398300473 0.40205075083594372  7.9760983218241739 0.41455445935986812  7.9827916193215156 0.42080550471657052  7.9894873201761065 0.42705816567007876  8.0028783423935614 0.43956187417675419  8.0095736600279093 0.4458129192239782  8.0162713827881795 0.45206558046210754  8.0296664488893068 0.46456928895160177  8.0363637884975603 0.47082033369520521  8.0430635349896811 0.47707299521213836  8.056462648640359 0.48957670368452588  8.0631620120622536 0.49582774813042252  8.0698637841151069 0.50208040992028813  8.0832669489867488 0.51458411837563633  8.089968338064871 0.5208351625298121  8.0966721375100246 0.52708782458666614  8.1100793572796057 0.53959153302505014  8.1167827738594056 0.54584257689355664  8.1234886025311326 0.55209523921139225  8.1368998808811934 0.56459894763288454  8.1436053268109738 0.57084999122184032  8.1503131865462652 0.5771026537945827  8.1637285271649187 0.58960636219925711  8.1704360042958477 0.59585740551484301  8.1771458969344124 0.6021100683363525  8.1905653035153669 0.6146137767242833  8.1972748137014868 0.62086481977275398  8.2039867410857514 0.62711748283682622  8.2174102173283181 0.63962119120809302  8.2241217624265666 0.64587223399576632  8.2308357264016756 0.65212489729612766  8.2442632760107717 0.66462860565080106  8.2509768578809748 0.67087964818407997  8.257692860294803 0.67713231171437449  8.2711244869809804 0.68963602005253599  8.2778401074858419 0.69588706233787512  8.2845581501890138 0.70213972609169584  8.2979938576684589 0.71464343441342471  8.3047115186735958 0.72089447645735194  8.3114316035194697 0.72714714042822048  8.3248713955140126 0.73965084873359233  8.3315910988879498 0.74590189054271427  8.3383132277326322 0.75215455472407111  8.351757107969771 0.76465826301316697  8.3584788555839484 0.77090930459416285  8.365203030286299 0.77716196897938217  8.3786510024992076 0.78966567725228698  8.3853747962279783 0.79591671861189484  8.3921010186496137 0.80216938319428432  8.4055530865771413 0.81467309145107469  8.4122789282978108 0.82092413259612385  8.4190072003031027 0.82717679736890959  8.4324633676898078 0.83968050560967122  8.4391912592825911 0.84593154654704861  8.4459215827386913 0.85218421150339341  8.4593818533348362 0.86468791972820858  8.4661117966829096 0.8709389604648845  8.472844173459734 0.87719162559787467  8.488517637993521 0.89174680471830958  8.4974605809466635 0.90005055685553259  8.5064078214598577 0.90835717637842894  8.5153593657944882 0.91666666666666674 
 0 5 0.030234557493974881 3 0.060597286445280771 3 0.090936596633282865 3 0.12125249565790397 3 0.15154499127834578 3 0.18181409141430263 3 0.21205980414722203 3 0.2422821377215349 3 0.27248110054592906 3 0.30265670119461291 3 0.33280894840858338 3 0.36293785109691401 3 0.39304341833807271 3 0.42312565938118518 3 0.45318458364736725 3 0.48322020073105881 3 0.51323252040132428 3 0.54322155260323224 3 0.57318730745918511 3 0.60312979527026811 3 0.6330490265176264 3 0.66294501186387034 3 0.6928177621544428 3 0.72266728841898542 3 0.75249360187278869 3 0.7822967139182162 3 0.81207663614611747 3 0.84183338033725519 3 0.87156695846375176 3 0.90127738269056612 3 0.93096466537694156 3 0.9606288190779263 3 1 5
7 0 0  4 5 2  7.622158739621324 0.083333334156006508  7.8414974765327088 0.28900164086619462  8.0634102103575174 0.49640844854394217  8.2879964897490481 0.70561150605131573  8.5153593648850361 0.91666666582244605 
 0 5 1 5
7 0 0  8 23 4  14.077035382601977 0.91666666666666674  13.791479368343392 0.91666666666666674  13.495998661053251 0.91666666666666674  13.189249298512053 0.91666666666666674  12.869769135047301 0.91666666666666674  12.535691188255909 0.91666666666666674  12.184777226416207 0.91666666666666674  11.814049742479412 0.91666666666666674  11.137468208370755 0.91666666666666663  10.845021339158478 0.91666666666666663  10.538377659295854 0.91666666666666663  10.214903923480056 0.91666666666666663  9.8720772199945515 0.91666666666666663  9.5066796613292119 0.91666666666666663  9.115465736001692 0.91666666666666663  8.1099825131120706 0.91666666666666663  7.4104014956003432 0.91666666666666663  6.6501251935008359 0.91666666666666663  5.8744040321910234 0.91666666666666663  5.1205016702360586 0.91666666666666663  4.4191322177531109 0.91666666666666663  3.7977895161410729 0.91666666666666663  3.2841425768869628 0.91666666666666663 
 0 9 0.3727009732137162 7 0.63717764686443723 7 1 9
7 0 0  8 23 4  6.7290752130886906 5  6.9018443751761218 4.7516391818202628  7.0734554866507064 4.4936660433777895  7.2438347686065141 4.2247902884154485  7.4128036400551842 3.943594700098334  7.5800462108593258 3.648257638698885  7.7451135336014296 3.3365856174169561  7.9073871903615736 3.0056577534236819  8.1784265011699588 2.3982738725587938  8.2886493748022332 2.1347883850961242  8.3966357506175271 1.8574735421163151  8.5019810085105476 1.5637656517180476  8.6038911473950606 1.2511528260027021  8.7009895757694462 0.91638143480188106  8.7914801193463727 0.55611410602980094  8.9834718854019755 -0.3753860493370107  9.0873350369782955 -1.0275597126632792  9.151948259549096 -1.7429211426139406  9.1580249343991085 -2.4810065866256337  9.1071226421494202 -3.2061071689724283  9.0128189491748252 -3.8871076367528006  8.896311352435653 -4.4949172757906384  8.7808322101092102 -5 
 0 9 0.3727009732137162 7 0.63717764686443723 7 1 9
1 0 0 0 1 
1 0 10 1 0 
1 0 0 1 0 
1 0 5 1 0 
1 0 0 0 1 
1 5 0 0 1 
1 0 0 0 1 
1 0 0 1 0 
1 0 0 1 0 
1 0 0 1 0 
7 0 0  8 37 6  6.437228695165528 10  6.5802399564650447 9.7634038851144851  6.7223554075999825 9.5169034403959696  6.8635605126092383 9.2590206936169075  7.0037144891836149 8.9879459040154792  7.1425672018511133 8.701673248001569  7.2796857279501062 8.3971540622075569  7.4145039990282759 8.0708384420456039  7.6031400219363325 7.5604140943057487  7.6576936023946365 7.4055441529113333  7.7096950304017113 7.2503248967939129  7.7591443059575598 7.0947563259534858  7.8060414290621756 6.9388384403900583  7.8503863997155658 6.7825712401036231  7.8921792179177279 6.6259547250941804  7.9706605494195903 6.312023065629278  8.0073490627192925 6.1547079211738236  8.0414854235677655 5.9970434619953625  8.0730696319650104 5.8390296880938948  8.102101687911027 5.6806665994694194  8.1285815914058173 5.5219541961219383  8.1525093424493775 5.3628924780514513  8.2111102650563108 4.9258692267458786  8.244097204596061 4.6210907601087303  8.2694580659650967 4.2950156694587971  8.2843990363723989 3.9540840464364764  8.2871194767263141 3.6057616989642036  8.2774250261743134 3.2588931896739193  8.2571586101864938 2.9240263144569827  8.1931717896650298 2.1916357387665459  8.1428700727682752 1.8063858922171965  8.0838976261588193 1.4507565963486075  8.0190686020268132 1.1221047305604828  7.9505897116124089 0.8164339533421231  7.8795415381116287 0.53042523607301029  7.8063236005014556 0.25982445372086305  7.730463901340765 -5.8286708792820718e-16 
 0 9 0.27373090199251832 7 0.39257503879511935 7 0.51141917559771621 7 0.71838467790183647 7 1 9
7 0 0  8 37 6  13.12439027085378 0.083333333333333301  12.855460786367491 0.083333333333333301  12.576262374087399 0.083333333333333301  12.285245535549379 0.083333333333333301  11.980530619135894 0.083333333333333301  11.66004783654985 0.083333333333333301  11.320658882335294 0.083333333333333301  10.958718375346596 0.083333333333333301  10.395766090930428 0.083333333333333301  10.225343695997138 0.083333333333333301  10.054921301063848 0.083333333333333301  9.8844989061305615 0.083333333333333301  9.7140765111972787 0.083333333333333301  9.5436541162639976 0.083333333333333301  9.3732317213307166 0.083333333333333301  9.0323869314641367 0.083333333333333301  8.8619645365308486 0.083333333333333301  8.6915421415975676 0.083333333333333301  8.5211197466642812 0.083333333333333301  8.3506973517309913 0.083333333333333301  8.1802749567977013 0.083333333333333301  8.0098525618644132 0.083333333333333301  7.5426418059720639 0.083333333333333301  7.2179431044415008 0.083333333333333301  6.8719828113462551 0.083333333333333301  6.5119232235848106 0.083333333333333301  6.1458607362003219 0.083333333333333301  5.7831083692556344 0.083333333333333301  5.4344744773751534 0.083333333333333301  4.6747991101991682 0.083333333333333301  4.2775884800360551 0.083333333333333301  3.912719620304534 0.083333333333333301  3.5770134022220104 0.083333333333333301  3.2659573567497064 0.083333333333333301  2.9759118743151745 0.083333333333333301  2.7023535343128775 0.083333333333333301  2.4404878596461925 0.083333333333333301 
 0 9 0.27373090199251832 7 0.39257503879511935 7 0.51141917559771621 7 0.71838467790183647 7 1 9
7 0 0  4 8 3  2.4404878596461939 0.083333333333333356  2.5450888297416361 0.18711894764996326  2.6500963377183311 0.29115440486504285  2.7555160078847276 0.39544260101036011  2.9664272559309222 0.6037756671511344  3.071912820930963 0.70781685854858356  3.1778159885606878 0.81211289873083758  3.2841425768869645 0.91666666666666674 
 0 5 0.50181117457624846 3 1 5
7 0 0  4 8 3  7.7304639013407659 0  7.8645513035242356 -1.2454273717995588  7.9978846309840721 -2.4938528583805146  8.1304487961135017 -3.7453112121243204  8.3930555744108695 -6.2453080058136132  8.5231094793314384 -7.4938023025830045  8.6523738838317215 -8.7453547847700506  8.7808322101092102 -10 
 0 5 0.50181117457624846 3 1 5
7 0 0  8 23 4  14.077035382601977 0.91666666666666674  13.791479368343392 0.91666666666666674  13.495998661053251 0.91666666666666674  13.189249298512053 0.91666666666666674  12.869769135047301 0.91666666666666674  12.535691188255909 0.91666666666666674  12.184777226416207 0.91666666666666674  11.814049742479412 0.91666666666666674  11.137468208370755 0.91666666666666663  10.845021339158478 0.91666666666666663  10.538377659295854 0.91666666666666663  10.214903923480056 0.91666666666666663  9.8720772199945515 0.91666666666666663  9.5066796613292119 0.91666666666666663  9.115465736001692 0.91666666666666663  8.1099825131120706 0.91666666666666663  7.4104014956003432 0.91666666666666663  6.6501251935008359 0.91666666666666663  5.8744040321910234 0.91666666666666663  5.1205016702360586 0.91666666666666663  4.4191322177531109 0.91666666666666663  3.7977895161410729 0.91666666666666663  3.2841425768869628 0.91666666666666663 
 0 9 0.3727009732137162 7 0.63717764686443723 7 1 9
7 0 0  8 23 4  6.7290752130886906 10  6.9018443751761218 9.7516391818202628  7.0734554866507064 9.4936660433777895  7.2438347686065141 9.2247902884154485  7.4128036400551842 8.943594700098334  7.5800462108593258 8.648257638698885  7.7451135336014296 8.3365856174169561  7.9073871903615736 8.0056577534236819  8.1784265011699588 7.3982738725587938  8.2886493748022332 7.1347883850961242  8.3966357506175271 6.8574735421163151  8.5019810085105476 6.5637656517180476  8.6038911473950606 6.2511528260027021  8.7009895757694462 5.9163814348018811  8.7914801193463727 5.5561141060298009  8.9834718854019755 4.6246139506629893  9.0873350369782955 3.9724402873367208  9.151948259549096 3.2570788573860594  9.1580249343991085 2.5189934133743663  9.1071226421494202 1.7938928310275717  9.0128189491748252 1.1128923632471994  8.896311352435653 0.50508272420936162  8.7808322101092102 -3.3306690738754701e-16 
 0 9 0.3727009732137162 7 0.63717764686443723 7 1 9
1 0 0 0 1 
1 0 10 1 0 
1 0 0 1 0 
1 0 -10 1 0 
1 0 0 0 1 
1 0 0 0 -1 
Curves 20
1 5 0 0 0 0 1 
7 0 0  4 8 3  10.000000000000002 0 6.4372286951655289  10.000000000000002 1.2264444938000587 6.477655052278779  10.000000000000002 2.468151359293894 6.5170864661860932  10.000000000000002 3.7257382226217302 6.5554469820834766  10.000000000000002 6.2264960470250541 6.6284583896486087  10 7.4684636093053767 6.6631939997614218  10.000000000000002 8.7261779784543734 6.6967666022802952  10.000000000000002 10 6.7290752130886906 
 0 5 0.50945770884725361 3 1 5
1 5 10 0 0 0 1 
1 5 0 0 -0 1 0 
1 0 0 0 1 0 -0 
1 0 0 0 0 0 1 
7 0 0  8 37 6  10 0 6.437228695165528  9.7634038851144851 0 6.5802399564650447  9.5169034403959696 0 6.7223554075999825  9.2590206936169075 0 6.8635605126092383  8.9879459040154792 0 7.0037144891836149  8.701673248001569 0 7.1425672018511133  8.3971540622075569 0 7.2796857279501062  8.0708384420456039 0 7.4145039990282759  7.5604140943057487 0 7.6031400219363325  7.4055441529113333 0 7.6576936023946365  7.2503248967939129 0 7.7096950304017113  7.0947563259534858 0 7.7591443059575598  6.9388384403900583 0 7.8060414290621756  6.7825712401036231 0 7.8503863997155658  6.6259547250941804 0 7.8921792179177279  6.312023065629278 0 7.9706605494195903  6.1547079211738236 0 8.0073490627192925  5.9970434619953625 0 8.0414854235677655  5.8390296880938948 0 8.0730696319650104  5.6806665994694194 0 8.102101687911027  5.5219541961219383 0 8.1285815914058173  5.3628924780514513 0 8.1525093424493775  4.9258692267458786 0 8.2111102650563108  4.6210907601087303 0 8.244097204596061  4.2950156694587971 0 8.2694580659650967  3.9540840464364764 0 8.2843990363723989  3.6057616989642036 0 8.2871194767263141  3.2588931896739193 0 8.2774250261743134  2.9240263144569827 0 8.2571586101864938  2.1916357387665459 0 8.1931717896650298  1.8063858922171965 0 8.1428700727682752  1.4507565963486075 0 8.0838976261588193  1.1221047305604828 0 8.0190686020268132  0.8164339533421231 0 7.9505897116124089  0.53042523607301029 0 7.8795415381116287  0.25982445372086305 0 7.8063236005014556  -5.8286708792820718e-16 0 7.730463901340765 
 0 9 0.27373090199251832 7 0.39257503879511935 7 0.51141917559771621 7 0.71838467790183647 7 1 9
7 0 0  4 101 34  5 0 8.1993218486267256  5 0.074619477806193046 8.2048191399574861  5 0.14925802719934111 8.2103132561999264  5 0.22391566719581846 8.2158041914419506  5 0.37358573887603796 8.2268029519060626  5 0.44859833292325213 8.232310750050436  5 0.52363021821359368 8.2378153281555129  5 0.67367472283025798 8.2488137889961717  5 0.74868731237967623 8.2543076767063894  5 0.82371920186421299 8.259798337266103  5 0.97376370626528974 8.2707689576063927  5 1.0487762913782213 8.2762489223748261  5 1.1238081849960739 8.281725652859917  5 1.273852689182295 8.2926684076441841  5 1.348865269920779 8.2981344369444514  5 1.4238971676102992 8.3035972248068486  5 1.5739416715823857 8.314512088941834  5 1.6489542480092094 8.3199641702287543  5 1.7239861497080042 8.3254130029015396  5 1.8740306534667184 8.3362999512563007  5 1.9490432256453669 8.3417380719658638  5 2.02407513129039 8.3471729368632239  5 2.174119634836515 8.358031944269058  5 2.2491322028311735 8.3634560918183798  5 2.3241641123586723 8.3688769763355761  5 2.474208615692965 8.3797080175859318  5 2.5492211795685922 8.3851181793732152  5 2.6242530929140599 8.3905250708865378  5 2.7742975960373215 8.4013281207369452  5 2.8493101558595564 8.406724284141438  5 2.9243420729577716 8.4121171700081696  5 3.0743865758707845 8.4228922031761577  5 3.1493991317060734 8.4282743555581074  5 3.2244310524910471 8.4336532231164831  5 3.3744755551945929 8.4444002142814938  5 3.4494881071100583 8.4497683429821269  5 3.5245200315151335 8.4551331795512823  5 3.6745645340100301 8.4658521033545977  5 3.7495770820736229 8.4712061956960625  5 3.8246090100313248 8.4765569885760179  5 3.9746535123184179 8.4872478196206789  5 4.0496660565988476 8.4925878629059994  5 4.1246979880409445 8.4979245993776047  5 4.2747424901210502 8.5085873122283235  5 4.3497550306877377 8.5139132937413731  5 4.4247869655452901 8.5192359610662596  5 4.5748314674192221 8.5298705302493438  5 4.6498440043424605 8.5351824372548073  5 4.724875942545661 8.540491022675365  5 4.874920444214311 8.5510974226786391  5 4.9499329775650729 8.5563952424219494  5 5.0249649190434589 8.5616897331612751  5 5.1750094205076369 8.5722679384339919  5 5.2500219503577457 8.5775516581413189  5 5.3250538950399937 8.582832041403174  5 5.4750983963006012 8.5933820263559397  5 5.5501109227226788 8.5986516332341267  5 5.6251428705367053 8.6039178962029048  5 5.7751873715946136 8.6144396352075923  5 5.8501998946620821 8.6196951164441256  5 5.9252318455349924 8.6249472462848065  5 6.075276346391087 8.6354407136744769  5 6.1502888661781174 8.6406820564374343  5 6.2253208200362282 8.6459200402955467  5 6.3753653206913992 8.6563852103643608  5 6.4503778372730478 8.661612401802385  5 6.5254097940419147 8.6668362268039587  5 6.6754542944971167 8.6772730738071076  5 6.7504668079491932 8.6824861010493528  5 6.8254987675535324 8.6876957543008899  5 6.9755432678096128 8.6981042524544918  5 7.0505557782089561 8.7033031026105903  5 7.1255877405724943 8.7084985711990015  5 7.2756322406304328 8.7188786946800381  5 7.3506447480544956 8.7240633548400517  5 7.4256767131003514 8.7292446258326404  5 7.5757212129610974 8.7395963487788642  5 7.6507337174882215 8.7447668060132404  5 7.7257656851386454 8.7499338664576509  5 7.8758101848031075 8.7602571629675019  5 7.9508226865125682 8.76541340432704  5 8.0258546566888533 8.7705662412512115  5 8.1758991561580032 8.7808610853837337  5 8.2509116551299471 8.7860030978995471  5 8.3259436277525847 8.7911416983116712  5 8.4759881270274438 8.8014080640864378  5 8.5510006233427358 8.8065358347698837  5 8.6260325983314097 8.8116601856583756  5 8.7760770974128963 8.8218980470553863  5 8.8510895911534835 8.827011562898063  5 8.9261215684269146 8.8321216512315068  5 9.0761660673160556 8.84233098219112  5 9.1511785585645828 8.8474302301647949  5 9.2262105380407213 8.8525260428919026  5 9.3762550367385042 8.8627068173147432  5 9.4512675255786132 8.8677917843713274  5 9.5262995071744943 8.8728733084209033  5 9.7009616566197128 8.8846911601230865  5 9.8006066822663911 8.8914248607658717  5 9.900286116541146 8.8981524694060798  5 10 8.9048739705394819 
 0 5 0.030234557493974881 3 0.060597286445280771 3 0.090936596633282865 3 0.12125249565790397 3 0.15154499127834578 3 0.18181409141430263 3 0.21205980414722203 3 0.2422821377215349 3 0.27248110054592906 3 0.30265670119461291 3 0.33280894840858338 3 0.36293785109691401 3 0.39304341833807271 3 0.42312565938118518 3 0.45318458364736725 3 0.48322020073105881 3 0.51323252040132428 3 0.54322155260323224 3 0.57318730745918511 3 0.60312979527026811 3 0.6330490265176264 3 0.66294501186387034 3 0.6928177621544428 3 0.72266728841898542 3 0.75249360187278869 3 0.7822967139182162 3 0.81207663614611747 3 0.84183338033725519 3 0.87156695846375176 3 0.90127738269056612 3 0.93096466537694156 3 0.9606288190779263 3 1 5
7 0 0  8 23 4  10 10 6.7290752130886906  9.7516391818202628 10 6.9018443751761218  9.4936660433777895 10 7.0734554866507064  9.2247902884154485 10 7.2438347686065141  8.943594700098334 10 7.4128036400551842  8.648257638698885 10 7.5800462108593258  8.3365856174169561 10 7.7451135336014296  8.0056577534236819 10 7.9073871903615736  7.3982738725587938 10 8.1784265011699588  7.1347883850961242 10 8.2886493748022332  6.8574735421163151 10 8.3966357506175271  6.5637656517180476 10 8.5019810085105476  6.2511528260027021 10 8.6038911473950606  5.9163814348018811 10 8.7009895757694462  5.5561141060298009 10 8.7914801193463727  4.6246139506629893 10 8.9834718854019755  3.9724402873367208 10 9.0873350369782955  3.2570788573860594 10 9.151948259549096  2.5189934133743663 10 9.1580249343991085  1.7938928310275717 10 9.1071226421494202  1.1128923632471994 10 9.0128189491748252  0.50508272420936162 10 8.896311352435653  -3.3306690738754701e-16 10 8.7808322101092102 
 0 9 0.3727009732137162 7 0.63717764686443723 7 1 9
1 0 10 0 1 0 -0 
1 0 10 0 0 0 1 
1 0 0 0 -0 1 0 
1 0 0 0 1 0 -0 
1 0 0 0 0 0 1 
7 0 0  8 37 6  10 0 6.437228695165528  9.7634038851144851 0 6.5802399564650447  9.5169034403959696 0 6.7223554075999825  9.2590206936169075 0 6.8635605126092383  8.9879459040154792 0 7.0037144891836149  8.701673248001569 0 7.1425672018511133  8.3971540622075569 0 7.2796857279501062  8.0708384420456039 0 7.4145039990282759  7.5604140943057487 0 7.6031400219363325  7.4055441529113333 0 7.6576936023946365  7.2503248967939129 0 7.7096950304017113  7.0947563259534858 0 7.7591443059575598  6.9388384403900583 0 7.8060414290621756  6.7825712401036231 0 7.8503863997155658  6.6259547250941804 0 7.8921792179177279  6.312023065629278 0 7.9706605494195903  6.1547079211738236 0 8.0073490627192925  5.9970434619953625 0 8.0414854235677655  5.8390296880938948 0 8.0730696319650104  5.6806665994694194 0 8.102101687911027  5.5219541961219383 0 8.1285815914058173  5.3628924780514513 0 8.1525093424493775  4.9258692267458786 0 8.2111102650563108  4.6210907601087303 0 8.244097204596061  4.2950156694587971 0 8.2694580659650967  3.9540840464364764 0 8.2843990363723989  3.6057616989642036 0 8.2871194767263141  3.2588931896739193 0 8.2774250261743134  2.9240263144569827 0 8.2571586101864938  2.1916357387665459 0 8.1931717896650298  1.8063858922171965 0 8.1428700727682752  1.4507565963486075 0 8.0838976261588193  1.1221047305604828 0 8.0190686020268132  0.8164339533421231 0 7.9505897116124089  0.53042523607301029 0 7.8795415381116287  0.25982445372086305 0 7.8063236005014556  -5.8286708792820718e-16 0 7.730463901340765 
 0 9 0.27373090199251832 7 0.39257503879511935 7 0.51141917559771621 7 0.71838467790183647 7 1 9
7 0 0  4 8 3  -1.6653345369377348e-16 0 7.7304639013407659  -1.6653345369377348e-16 1.2454273717995588 7.8645513035242356  -4.3417514303589922e-16 2.4938528583805146 7.9978846309840721  5.5511151231257827e-16 3.7453112121243204 8.1304487961135017  5.5511151231257827e-16 6.2453080058136132 8.3930555744108695  -7.8668779101260155e-16 7.4938023025830045 8.5231094793314384  1.1102230246251565e-16 8.7453547847700506 8.6523738838317215  1.1102230246251565e-16 10 8.7808322101092102 
 0 5 0.50181117457624846 3 1 5
7 0 0  8 23 4  10 10 6.7290752130886906  9.7516391818202628 10 6.9018443751761218  9.4936660433777895 10 7.0734554866507064  9.2247902884154485 10 7.2438347686065141  8.943594700098334 10 7.4128036400551842  8.648257638698885 10 7.5800462108593258  8.3365856174169561 10 7.7451135336014296  8.0056577534236819 10 7.9073871903615736  7.3982738725587938 10 8.1784265011699588  7.1347883850961242 10 8.2886493748022332  6.8574735421163151 10 8.3966357506175271  6.5637656517180476 10 8.5019810085105476  6.2511528260027021 10 8.6038911473950606  5.9163814348018811 10 8.7009895757694462  5.5561141060298009 10 8.7914801193463727  4.6246139506629893 10 8.9834718854019755  3.9724402873367208 10 9.0873350369782955  3.2570788573860594 10 9.151948259549096  2.5189934133743663 10 9.1580249343991085  1.7938928310275717 10 9.1071226421494202  1.1128923632471994 10 9.0128189491748252  0.50508272420936162 10 8.896311352435653  -3.3306690738754701e-16 10 8.7808322101092102 
 0 9 0.3727009732137162 7 0.63717764686443723 7 1 9
1 0 10 0 1 0 -0 
1 0 10 0 0 0 1 
1 0 0 0 -0 1 0 
Polygon3D 0
PolygonOnTriangulations 40
2 1 2 
p 0.0338312033466741 1 0 6.43722869516553 
2 2 4 
p 0.0338312033466741 1 0 6.43722869516553 
2 3 8 
p 0.0338312033466741 1 0 1 
2 2 3 
p 0.0338312033466741 1 0 1 
2 4 3 
p 0.0338312033466741 1 0 6.72907521308869 
2 2 4 
p 0.0338312033466741 1 0 6.72907521308869 
2 1 4 
p 0.0338312033466741 1 0 10 
2 3 4 
p 0.0338312033466741 1 0 10 
2 1 2 
p 0.0338312033466741 1 0 5 
2 1 3 
p 0.0338312033466741 1 0 5 
2 1 3 
p 0.0338312033466741 1 0 8.19932191205508 
2 2 4 
p 0.0338312033466741 1 0 8.19932191205508 
6 3 4 5 6 7 1 
p 0.0338312033466741 1 0 0.157797308768117 0.262995514613529 0.370177138528419 0.450009477679368 0.529841816830316 
6 4 5 6 7 8 3 
p 0.0338312033466741 1 0 0.157797308768117 0.262995514613529 0.370177138528419 0.450009477679368 0.529841816830316 
2 1 2 
p 0.0338312033466741 1 0 1 
2 1 7 
p 0.0338312033466741 1 0 1 
6 8 9 10 11 12 2 
p 0.0338312033466741 1 0 0.195173449568337 0.370829554179841 0.513971444527479 0.582274804877635 0.650578165227791 
6 4 5 6 7 8 3 
p 0.0338312033466741 1 0 0.195173449568337 0.370829554179841 0.513971444527479 0.582274804877635 0.650578165227791 
2 1 2 
p 0.0338312033466741 1 0 5 
2 2 4 
p 0.0338312033466741 1 0 5 
2 1 3 
p 0.0338312033466741 1 0 8.90487399647337 
2 2 4 
p 0.0338312033466741 1 0 8.90487399647337 
2 1 2 
p 0.0338312033466741 1 0 10 
2 3 4 
p 0.0338312033466741 1 0 10 
2 1 2 
p 0.0338312033466741 1 0 5 
2 1 3 
p 0.0338312033466741 1 0 5 
2 1 3 
p 0.0338312033466741 1 0 7.73046390134076 
2 1 2 
p 0.0338312033466741 1 0 7.73046390134076 
6 1 3 4 5 6 2 
p 0.0338312033466741 1 0.529841816830316 0.628062724786546 0.726283632742775 0.835843917500507 0.917921958750254 1 
6 4 5 6 7 8 3 
p 0.0338312033466741 1 0.529841816830316 0.628062724786546 0.726283632742775 0.835843917500507 0.917921958750254 1 
2 2 8 
p 0.0338312033466741 1 0 1 
2 2 3 
p 0.0338312033466741 1 0 1 
6 7 9 10 11 12 8 
p 0.0338312033466741 1 0.650578165227791 0.730099239003302 0.809620312778812 0.890856928335456 0.945428464167728 1 
6 4 5 6 7 8 3 
p 0.0338312033466741 1 0.650578165227791 0.730099239003302 0.809620312778812 0.890856928335456 0.945428464167728 1 
2 1 2 
p 0.0338312033466741 1 0 5 
2 2 4 
p 0.0338312033466741 1 0 5 
2 1 3 
p 0.0338312033466741 1 0 8.78083221010921 
2 4 3 
p 0.0338312033466741 1 0 8.78083221010921 
2 1 2 
p 0.0338312033466741 1 0 10 
2 1 4 
p 0.0338312033466741 1 0 10 
Surfaces 10
1 5 0 0 1 0 -0 0 0 1 0 -1 0 
1 0 0 0 -0 1 0 0 0 1 1 0 -0 
9 0 0 0 0 2 1 3 2 2 2 -2.3694708347320557 -1 6.7111740112304688  -3.3694708347320557 11 7.7111740112304688  
6.3040766849920349 -1 10.778600889711969  5.3040766849920349 11 11.778600889711969  
13.449372291564941 -1 3.6803607940673828  12.449372291564941 11 4.6803607940673828  

0 3
17.042239493328594 3

0 2
1 2

1 0 10 0 -0 1 0 0 0 1 1 0 -0 
1 0 0 0 0 0 1 1 0 -0 -0 1 0 
1 0 0 0 -0 1 0 0 0 1 1 0 -0 
9 0 0 0 0 2 1 3 2 2 2 -2.3694708347320557 -1 6.7111740112304688  -3.3694708347320557 11 7.7111740112304688  
6.3040766849920349 -1 10.778600889711969  5.3040766849920349 11 11.778600889711969  
13.449372291564941 -1 3.6803607940673828  12.449372291564941 11 4.6803607940673828  

0 3
17.042239493328594 3

0 2
1 2

1 0 10 0 -0 1 0 0 0 1 1 0 -0 
1 0 0 0 0 0 1 1 0 -0 -0 1 0 
1 0 0 0 1 0 -0 0 0 1 0 -1 0 
Triangulations 10
4 2 1 0
10 0 0 10 0 6.43722869516553 10 10 6.72907521308869 10 10 0 0 0 6.43722869516553 0 6.72907521308869 -10 0 -10 2 4 3 2 1 4 
8 6 1 2.22044604925031e-16
5 0 0 10 0 0 5.00000000000002 0 8.19932191205528 10 0 6.43722869516553 8.79807665874094 0 7.08728891199801 7.82535091371973 0 7.50462831121173 6.70530137909227 0 7.86971791782177 5.85984283785007 0 8.06644234183498 0 0 0 5 8.19932191205508 0 6.43722869516553 5 7.08728891199801 3.79807665874094 7.50462831121173 2.82535091371973 7.86971791782177 1.70530137909227 8.06644234183498 0.859842837850067 8 1 3 7 1 8 6 1 7 5 1 6 4 2 1 4 1 5 
12 10 1 0.0122249921359919
5.00000000000002 0 8.19932191205528 4.99999999999997 10 8.90487399647323 10 0 6.43722869516553 8.79807665874094 0 7.08728891199801 7.82535091371973 0 7.50462831121173 6.70530137909227 0 7.86971791782177 5.85984283785007 0 8.06644234183498 10 10 6.72907521308869 8.87417445028259 10 7.44277729236561 7.66463804731309 10 8.05955372364287 6.46057738942126 10 8.52630210854639 5.7795158176413 10 8.72781711637771 7.62215873874397 0.0833333333333333 8.51535936579449 0.916666666666667 13.1243902708538 0.0833333333333333 11.7691957308136 0.0833333333333333 10.6880538277913 0.0833333333333333 9.45975789164423 0.0833333333333333 8.5439218194732 0.0833333333333333 14.077035382602 0.916666666666667 12.7925843494021 0.916666666666667 11.4341800330082 0.916666666666667 10.1030814108977 0.916666666666667 9.35914224644899 0.916666666666667 2 1 7 12 7 6 12 2 7 11 6 5 11 12 6 10 5 4 10 11 5 9 4 3 9 10 4 8 9 3 
8 6 1 4.44089209850063e-16
5 10 0 10 10 0 4.99999999999997 10 8.90487399647323 10 10 6.72907521308869 8.87417445028259 10 7.44277729236561 7.66463804731309 10 8.05955372364287 6.46057738942126 10 8.52630210854639 5.7795158176413 10 8.72781711637771 0 0 0 5 8.90487399647337 0 6.72907521308869 5 7.44277729236561 3.87417445028259 8.05955372364287 2.66463804731309 8.52630210854639 1.46057738942126 8.72781711637771 0.779515817641305 8 1 3 7 1 8 6 1 7 5 1 6 4 2 1 4 1 5 
4 2 1 0
5 0 0 5 10 0 10 0 0 10 10 0 0 0 0 10 5 0 5 10 4 2 1 4 1 3 
8 6 1 2.22044604925031e-16
0 0 0 5 0 0 -5.82867087928207e-16 0 7.73046390134076 5.00000000000002 0 8.19932191205528 3.77443736973052 0 8.27566756640225 2.51986035017387 0 8.22148773529173 1.36192938573186 0 8.05753010162796 0.63764217906072 0 7.90128547279649 0 0 0 5 7.73046390134076 0 8.19932191205508 5 8.27566756640225 3.77443736973052 8.22148773529173 2.51986035017387 8.05753010162796 1.36192938573186 7.90128547279649 0.63764217906072 8 1 3 7 2 1 7 1 8 6 2 7 5 2 6 4 2 5 
12 10 1 0.012025438274462
5.00000000000002 0 8.19932191205528 -5.82867087928207e-16 0 7.73046390134076 3.77443736973052 0 8.27566756640225 2.51986035017387 0 8.22148773529173 1.36192938573186 0 8.05753010162796 0.63764217906072 0 7.90128547279649 4.99999999999997 10 8.90487399647323 -3.33066907387547e-16 10 8.78083221010921 3.89582285547283 10 9.06081109709954 2.67016640430995 10 9.1084382001843 1.43067453360871 10 9.02784798225935 0.667197672048854 10 8.91610573114779 7.62215872963008 0.0833333333333333 2.44048785964619 0.0833333333333333 6.3245833085434 0.0833333333333333 5.01530328036068 0.0833333333333333 3.82325679635101 0.0833333333333333 3.08534474061398 0.0833333333333333 8.51535936488504 0.916666665822446 3.28414257688696 0.916666666666667 7.33377907026458 0.916666666666667 6.04023166324346 0.916666666666667 4.75058299799029 0.916666666666667 3.96513487565986 0.916666666666667 8 6 5 8 2 6 12 8 5 11 5 4 11 12 5 10 4 3 10 11 4 9 3 1 9 10 3 7 9 1 
8 6 1 4.44089209850063e-16
0 10 0 5 10 0 -3.33066907387547e-16 10 8.78083221010921 4.99999999999997 10 8.90487399647323 3.89582285547283 10 9.06081109709954 2.67016640430995 10 9.1084382001843 1.43067453360871 10 9.02784798225935 0.667197672048854 10 8.91610573114779 0 0 0 5 8.78083221010921 0 8.90487399647337 5 9.06081109709954 3.89582285547283 9.1084382001843 2.67016640430995 9.02784798225935 1.43067453360871 8.91610573114779 0.667197672048854 8 1 3 7 1 8 6 2 1 6 1 7 5 2 6 4 2 5 
4 2 1 0
0 0 0 0 10 0 5 0 0 5 10 0 0 0 0 10 5 0 5 10 4 2 1 4 1 3 
4 2 1 5.31176747281665e-16
0 0 0 -5.82867087928207e-16 0 7.73046390134076 -3.33066907387547e-16 10 8.78083221010921 0 10 0 0 0 7.73046390134076 0 8.78083221010921 -10 0 -10 2 4 3 2 1 4 

TShapes 56
Ve
1.77597436356193e-07
10 0 0
0 0

0101101
*
Ve
1.36493352600187e-07
10 0 6.43722869516553
0 0

0101101
*
Ed
 1.36493352600187e-07 1 1 0
1  1 0 0 6.43722869516553
2  1 1 0 0 6.43722869516553
2  2 2 0 0 6.43722869516553
6  1 1 4
6  2 2 5
0

0101000
+56 6 -55 6 *
Ve
4.54456527409946e-05
10 10 6.72907521308869
0 0

0101101
*
Ed
 1e-07 1 1 0
1  2 0 0 1
2  3 1 3 0 1
2  4 3 9 0 1
6  3 3 10
6  4 1 0
0

0101000
+55 11 -53 11 *
Ve
1.77597436356193e-07
10 10 0
0 0

0101101
*
Ed
 1.77597436356193e-07 1 1 0
1  3 0 0 6.72907521308869
2  5 1 0 0 6.72907521308869
2  6 4 0 0 6.72907521308869
6  5 1 4
6  6 4 5
0

0101000
+51 6 -53 6 *
Ed
 1.77597436356193e-07 1 1 0
1  4 0 0 10
2  7 1 0 0 10
2  8 5 0 0 10
6  7 1 4
6  8 5 5
0

0101000
+56 6 -51 6 *
Wi

0101000
-54 3 -52 0 +50 3 +49 3 *
Fa
0  1e-07 1 3
2  1
0101000
+48 0 *
Ve
1.77597436356193e-07
5 0 0
0 0

0101101
*
Ed
 1.77597436356193e-07 1 1 0
1  5 0 0 5
2  9 2 0 0 5
2  10 5 0 0 5
6  9 2 5
6  10 5 5
0

0101000
+46 6 -56 6 *
Ve
5e-06
5.00000000000002 0 8.19932191205528
0 0

0101101
*
Ed
 1e-07 1 1 0
1  6 0 0 8.19932191205508
2  11 2 0 0 8.19932191205508
2  12 6 15 0 8.19932191205508
6  11 2 5
6  12 6 5
0

0101000
+46 6 -44 6 *
Ed
 1.36493352600187e-07 1 1 0
1  7 0 0 0.529841816830316
2  13 2 3 0 0.529841816830316
2  14 3 9 0 0.529841816830316
6  13 3 10
6  14 2 10
0

0101000
+55 11 -44 11 *
Wi

0101000
-45 12 +43 12 -54 12 -42 2 *
Fa
0  1e-07 2 12
2  2
0101000
+41 0 *
Ve
5e-06
4.99999999999997 10 8.90487399647323
0 0

0101101
*
Ed
 5e-06 1 1 0
1  8 0 0 1
2  15 3 9 0 1
2  16 7 17 0 1
6  15 3 10
6  16 7 10
0

0101000
+44 11 -39 11 *
Ed
 1.77597436356193e-07 1 1 0
1  9 0 0 0.650578165227791
2  17 3 9 0 0.650578165227791
2  18 4 3 0 0.650578165227791
6  17 3 10
6  18 4 10
0

0101000
+53 11 -39 11 *
Wi

0101000
-38 2 -42 2 +37 2 +52 2 *
Fa
0  1e-07 3 16
2  3
0101000
+36 0 *
Ve
1.77597436356193e-07
5 10 0
0 0

0101101
*
Ed
 1.77597436356193e-07 1 1 0
1  10 0 0 5
2  19 4 0 0 5
2  20 5 0 0 5
6  19 4 5
6  20 5 5
0

0101000
+34 6 -51 6 *
Ed
 1e-07 1 1 0
1  11 0 0 8.90487399647337
2  21 4 0 0 8.90487399647337
2  22 8 15 0 8.90487399647337
6  21 4 5
6  22 8 5
0

0101000
+34 6 -39 6 *
Wi

0101000
-33 12 +32 12 -50 12 -37 2 *
Fa
0  1e-07 4 12
2  4
0101000
+31 0 *
Ed
 1e-07 1 1 0
1  12 0 0 10
2  23 5 0 0 10
2  24 9 15 0 10
6  23 5 5
6  24 9 5
0

0101000
+46 6 -34 6 *
Wi

0101000
-29 12 +45 12 -33 12 +49 12 *
Fa
0  1e-07 5 12
2  5
0101000
+28 0 *
Ve
1.77597436356193e-07
0 0 0
0 0

0101101
*
Ed
 1.77597436356193e-07 1 1 0
1  13 0 0 5
2  25 6 0 0 5
2  26 9 0 0 5
6  25 6 19
6  26 9 19
0

0101000
+26 20 -46 20 *
Ve
1.36496072480688e-07
-5.82867087928207e-16 0 7.73046390134076
0 0

0101101
*
Ed
 1.36493352600187e-07 1 1 0
1  14 0 0 7.73046390134076
2  27 6 0 0 7.73046390134076
2  28 10 0 0 7.73046390134076
6  27 6 19
6  28 10 21
0

0101000
+26 20 -24 20 *
Ed
 1.36496072480688e-07 1 1 0
1  15 0 0.529841816830316 1
2  29 6 13 0.529841816830316 1
2  30 7 9 0.529841816830316 1
6  29 7 22
6  30 6 22
0

0101000
+44 23 -24 23 *
Wi

0101000
-25 18 +23 18 -43 12 -22 14 *
Fa
0  1e-07 6 18
2  6
0101000
+21 0 *
Ve
4.54456527409946e-05
-3.33066907387547e-16 10 8.78083221010921
0 0

0101101
*
Ed
 1e-07 1 1 0
1  16 0 0 1
2  31 7 9 0 1
2  32 10 13 0 1
6  31 7 22
6  32 10 0
0

0101000
+24 23 -19 23 *
Ed
 1.77597436356193e-07 1 1 0
1  17 0 0.650578165227791 1
2  33 7 9 0.650578165227791 1
2  34 8 13 0.650578165227791 1
6  33 7 22
6  34 8 22
0

0101000
+39 23 -19 23 *
Wi

0101000
-22 14 +38 2 -18 14 +17 14 *
Fa
0  1e-07 7 24
2  7
0101000
+16 0 *
Ve
1.77597436356193e-07
0 10 0
0 0

0101101
*
Ed
 1.77597436356193e-07 1 1 0
1  18 0 0 5
2  35 8 0 0 5
2  36 9 0 0 5
6  35 8 19
6  36 9 19
0

0101000
+14 20 -34 20 *
Ed
 1.77597436356193e-07 1 1 0
1  19 0 0 8.78083221010921
2  37 8 0 0 8.78083221010921
2  38 10 0 0 8.78083221010921
6  37 8 19
6  38 10 21
0

0101000
+14 20 -19 20 *
Wi

0101000
-13 18 +12 18 -32 12 -17 14 *
Fa
0  1e-07 8 18
2  8
0101000
+11 0 *
Ed
 1.77597436356193e-07 1 1 0
1  20 0 0 10
2  39 9 0 0 10
2  40 10 0 0 10
6  39 9 19
6  40 10 21
0

0101000
+26 20 -14 20 *
Wi

0101000
-9 18 +25 18 -13 18 +29 12 *
Fa
0  1e-07 9 18
2  9
0101000
+8 0 *
Wi

0101000
-23 13 -18 0 +12 13 +9 13 *
Fa
0  1e-07 10 13
2  10
0101000
+6 0 *
Sh

0101000
+47 2 -40 0 +35 0 +30 0 -27 0 -20 0 +15 0 +10 0 -7 0 -5 14 
*
So

0100000
+4 0 *
Co

0100000
+3 0 *
Co

1100000
+2 1 *

+1 0 