<?xml version="1.0" encoding="UTF-8" standalone="no"?>
<!-- Created with Inkscape (http://www.inkscape.org/) -->
<svg xmlns:dc="http://purl.org/dc/elements/1.1/" xmlns:cc="http://creativecommons.org/ns#" xmlns:rdf="http://www.w3.org/1999/02/22-rdf-syntax-ns#" xmlns:svg="http://www.w3.org/2000/svg" xmlns="http://www.w3.org/2000/svg" xmlns:xlink="http://www.w3.org/1999/xlink" xmlns:sodipodi="http://sodipodi.sourceforge.net/DTD/sodipodi-0.dtd" xmlns:inkscape="http://www.inkscape.org/namespaces/inkscape" width="64px" height="64px" id="svg2383" sodipodi:version="0.32" inkscape:version="0.48.5 r10040" sodipodi:docname="Raytrace_Export.svg" inkscape:output_extension="org.inkscape.output.svg.inkscape" version="1.1">
  <defs id="defs2385">
    <linearGradient id="linearGradient3837">
      <stop style="stop-color:#d3d7cf;stop-opacity:1" offset="0" id="stop3839"/>
      <stop style="stop-color:#ffffff;stop-opacity:1" offset="1" id="stop3841"/>
    </linearGradient>
    <linearGradient id="linearGradient3829">
      <stop id="stop3831" offset="0" style="stop-color:#d3d7cf;stop-opacity:1"/>
      <stop id="stop3833" offset="1" style="stop-color:#ffffff;stop-opacity:1;"/>
    </linearGradient>
    <linearGradient id="linearGradient3362">
      <stop id="stop3364" offset="0" style="stop-color:#729fcf;stop-opacity:1"/>
      <stop id="stop3366" offset="1" style="stop-color:#204a87;stop-opacity:1"/>
    </linearGradient>
    <linearGradient id="linearGradient3193">
      <stop id="stop3195" offset="0" style="stop-color:#68ff00;stop-opacity:1;"/>
      <stop id="stop3197" offset="1" style="stop-color:#078b00;stop-opacity:1;"/>
    </linearGradient>
    <linearGradient id="linearGradient3185">
      <stop style="stop-color:#ffffff;stop-opacity:1;" offset="0" id="stop3187"/>
      <stop style="stop-color:#ffffff;stop-opacity:0;" offset="1" id="stop3189"/>
    </linearGradient>
    <linearGradient id="linearGradient3175">
      <stop style="stop-color:#ababab;stop-opacity:1;" offset="0" id="stop3177"/>
      <stop style="stop-color:#ffffff;stop-opacity:1;" offset="1" id="stop3179"/>
    </linearGradient>
    <inkscape:perspective sodipodi:type="inkscape:persp3d" inkscape:vp_x="0 : 32 : 1" inkscape:vp_y="0 : 1000 : 0" inkscape:vp_z="64 : 32 : 1" inkscape:persp3d-origin="32 : 21.333333 : 1" id="perspective2391"/>
    <linearGradient inkscape:collect="always" xlink:href="#linearGradient3175" id="linearGradient3181" x1="52.736828" y1="49.86422" x2="17.93952" y2="9.8805466" gradientUnits="userSpaceOnUse" gradientTransform="translate(-1.6287944,-3.3426866)"/>
    <linearGradient inkscape:collect="always" xlink:href="#linearGradient3806" id="linearGradient3012" gradientUnits="userSpaceOnUse" gradientTransform="matrix(1.4500001,0,0,1.4705882,-27.45,-15.05882)" x1="39.263832" y1="20.978374" x2="43.478561" y2="42.076672"/>
    <linearGradient id="linearGradient3806">
      <stop style="stop-color:#8ae234;stop-opacity:1" offset="0" id="stop3808"/>
      <stop style="stop-color:#4e9a06;stop-opacity:1" offset="1" id="stop3810"/>
    </linearGradient>
    <linearGradient inkscape:collect="always" xlink:href="#linearGradient3837" id="linearGradient3835" gradientUnits="userSpaceOnUse" gradientTransform="translate(-1.6287944,-3.3426866)" x1="52.736828" y1="49.86422" x2="18.24375" y2="17.304836"/>
    <linearGradient inkscape:collect="always" xlink:href="#linearGradient3362" id="linearGradient3843" x1="26" y1="14" x2="40" y2="40" gradientUnits="userSpaceOnUse"/>
    <linearGradient inkscape:collect="always" xlink:href="#linearGradient3362-6" id="linearGradient3843-3" x1="26" y1="14" x2="40" y2="40" gradientUnits="userSpaceOnUse"/>
    <linearGradient id="linearGradient3362-6">
      <stop id="stop3364-7" offset="0" style="stop-color:#729fcf;stop-opacity:1"/>
      <stop id="stop3366-5" offset="1" style="stop-color:#204a87;stop-opacity:1"/>
    </linearGradient>
  </defs>
  <sodipodi:namedview id="base" pagecolor="#ffffff" bordercolor="#666666" borderopacity="1.0" inkscape:pageopacity="0.0" inkscape:pageshadow="2" inkscape:zoom="2.876362" inkscape:cx="35.537102" inkscape:cy="30.880697" inkscape:current-layer="layer1" showgrid="true" inkscape:document-units="px" inkscape:grid-bbox="true" inkscape:window-width="800" inkscape:window-height="837" inkscape:window-x="0" inkscape:window-y="27" inkscape:snap-global="true" inkscape:snap-bbox="true" inkscape:snap-nodes="true" inkscape:window-maximized="0">
    <inkscape:grid type="xygrid" id="grid3024" empspacing="2" visible="true" enabled="true" snapvisiblegridlinesonly="true"/>
  </sodipodi:namedview>
  <metadata id="metadata2388">
    <rdf:RDF>
      <cc:Work rdf:about="">
        <dc:format>image/svg+xml</dc:format>
        <dc:type rdf:resource="http://purl.org/dc/dcmitype/StillImage"/>
        <dc:creator>
          <cc:Agent>
            <dc:title>$committer</dc:title>
          </cc:Agent>
        </dc:creator>
        <dc:title>Raytrace_Export</dc:title>
        <dc:date>2011-10-10</dc:date>
        <dc:relation>http://www.freecadweb.org/wiki/index.php?title=Artwork</dc:relation>
        <dc:publisher>
          <cc:Agent>
            <dc:title>FreeCAD</dc:title>
          </cc:Agent>
        </dc:publisher>
        <dc:identifier>FreeCAD/src/Mod/Raytracing/Gui/Resources/icons/Raytrace_Export.svg</dc:identifier>
        <dc:rights>
          <cc:Agent>
            <dc:title>FreeCAD LGPL2+</dc:title>
          </cc:Agent>
        </dc:rights>
        <cc:license>https://www.gnu.org/copyleft/lesser.html</cc:license>
        <dc:contributor>
          <cc:Agent>
            <dc:title>[agryson] Alexander Gryson</dc:title>
          </cc:Agent>
        </dc:contributor>
      </cc:Work>
    </rdf:RDF>
  </metadata>
  <g id="layer1" inkscape:label="Layer 1" inkscape:groupmode="layer">
    <g id="g3370" transform="matrix(1.1009599,0,0,1.1009599,-2.2923986,-2.3717661)"/>
    <g id="g3824">
      <path sodipodi:nodetypes="cccccc" inkscape:connector-curvature="0" style="fill:url(#linearGradient3835);fill-opacity:1;fill-rule:nonzero;stroke:#2e3436;stroke-width:1.81659663000000005;stroke-linecap:butt;stroke-linejoin:round;stroke-miterlimit:4;stroke-opacity:1;stroke-dasharray:none;stroke-dashoffset:0;marker:none;visibility:visible;display:inline;overflow:visible;enable-background:accumulate" d="M 35.689219,4.879166 4.8070766,15.778746 32.056025,53.927274 53.855185,46.660888 57.488378,33.944711 z" id="rect3163" transform="matrix(1.1009599,0,0,1.1009599,-2.2923986,-2.3717661)"/>
      <path sodipodi:nodetypes="cccccc" inkscape:connector-curvature="0" id="path3802" d="M 6.1565615,15.965209 36.278332,5.3479144 58.826043,35.382706 55.617294,47.374262 33.826043,54.695829 z" style="fill:none;stroke:#ffffff;stroke-width:2;stroke-linecap:butt;stroke-linejoin:miter;stroke-opacity:1"/>
      <path sodipodi:nodetypes="cccc" inkscape:connector-curvature="0" style="fill:#888a85;fill-opacity:1;fill-rule:nonzero;stroke:#2e3436;stroke-width:2;stroke-linecap:butt;stroke-linejoin:round;stroke-miterlimit:4;stroke-opacity:1;stroke-dasharray:none;stroke-dashoffset:0;marker:none;visibility:visible;display:inline;overflow:visible;enable-background:accumulate" d="M 61,35 52.999999,41 57,49.000001 z" id="path3173"/>
    </g>
    <path style="fill:url(#linearGradient3843);fill-opacity:1;fill-rule:evenodd;stroke:#0b1521;stroke-width:2;stroke-linecap:butt;stroke-linejoin:round;stroke-miterlimit:4;stroke-opacity:1;stroke-dasharray:none;stroke-dashoffset:0;marker:none;visibility:visible;display:inline;overflow:visible;enable-background:accumulate" d="m 21.090017,16.486524 c -3.338244,4.842373 -3.898916,10.58764 -1.90021,14.735837 -0.685541,-3.044295 0.05654,-6.777753 2.314983,-10.053788 3.669966,-5.323556 9.94252,-7.401766 13.962591,-4.630402 3.193616,2.201622 4.027141,6.817507 2.391589,11.288762 l -0.76434,-2.03416 c -0.216406,0.529252 -0.475094,1.053551 -0.812849,1.54349 -1.373063,1.991727 -3.496819,3.16876 -5.725794,3.431928 l 2.873017,3.393641 c -1.351793,1.137282 -2.85173,1.964438 -4.347761,2.43507 1.692992,-0.171619 3.407061,-0.699785 5.044366,-1.578033 l 8.47057,8.537073 L 39,31 c 0.381629,-0.451503 0.752334,-0.909122 1.097616,-1.409979 C 44.646238,22.991906 44.074375,14.68428 38.82972,11.068709 33.585065,7.4531386 25.638636,9.8884153 21.090017,16.486524 z m 5.333859,4.242281 c -1.532868,2.22354 -0.988631,5.284603 1.234911,6.817473 2.223541,1.532869 5.299281,0.967349 6.832148,-1.256189 1.532865,-2.223542 0.95267,-5.277995 -1.27087,-6.810863 -2.22354,-1.53287 -5.26332,-0.973962 -6.796188,1.249582 z" id="path2570" sodipodi:nodetypes="ccssccsccccccssccsssc" inkscape:connector-curvature="0"/>
    <g style="display:inline" inkscape:label="Layer 1" id="layer1-3" transform="matrix(0.4908891,0,0,0.58014166,1.5273327,25.83856)">
      <path inkscape:export-ydpi="4.1683898" inkscape:export-xdpi="4.1683898" inkscape:export-filename="/home/yorik/Documents/Lab/Draft/icons/changeprop.png" sodipodi:nodetypes="cccccccc" id="path3343" d="m 35.907323,8.8968626 0,14.1031384 -32.907323,0 10e-8,23.505231 32.9073229,0 0,14.103138 L 64.1136,34.752616 z" style="fill:url(#linearGradient3012);fill-opacity:1;fill-rule:evenodd;stroke:#172a04;stroke-width:3.74775577;stroke-linecap:butt;stroke-linejoin:round;stroke-miterlimit:4;stroke-opacity:1;stroke-dasharray:none" inkscape:connector-curvature="0"/>
      <path inkscape:export-ydpi="4.1683898" inkscape:export-xdpi="4.1683898" inkscape:export-filename="/home/yorik/Documents/Lab/Draft/icons/changeprop.png" sodipodi:nodetypes="cccccccc" id="path3343-2" d="m 39.668159,17.515447 0,8.618585 -32.5939196,0 0,17.237169 32.5939196,0 0,8.618585 18.33408,-17.23717 z" style="fill:none;stroke:#8ae234;stroke-width:3.74775577;stroke-linecap:butt;stroke-linejoin:miter;stroke-miterlimit:4;stroke-opacity:1;stroke-dasharray:none" inkscape:connector-curvature="0"/>
    </g>
    <path sodipodi:type="arc" style="fill:none;stroke:#729fcf;stroke-width:2.22290229999999989;stroke-linecap:round;stroke-linejoin:round;stroke-miterlimit:4;stroke-opacity:1;stroke-dasharray:none;stroke-dashoffset:0.59999999999999998" id="path3845" sodipodi:cx="29.988941" sodipodi:cy="23.580124" sodipodi:rx="3.2227654" sodipodi:ry="3.2227654" d="m 33.211707,23.580124 a 3.2227654,3.2227654 0 1 1 -6.445531,0 3.2227654,3.2227654 0 1 1 6.445531,0 z" transform="matrix(0.89972465,0,0,0.89972465,3.486877,2.2674856)"/>
    <path style="fill:none;stroke:#729fcf;stroke-width:2;stroke-linecap:butt;stroke-linejoin:miter;stroke-miterlimit:5.30000019;stroke-opacity:1;stroke-dasharray:none" d="m 36.58208,29.92725 c -0.457674,0.38629 -1.759806,1.421741 -3.075159,1.968101 l 5.190867,5.043258 z" id="path3847" inkscape:connector-curvature="0" sodipodi:nodetypes="cccc"/>
    <path style="fill:none;stroke:#729fcf;stroke-width:2;stroke-linecap:butt;stroke-linejoin:miter;stroke-opacity:1" d="m 19.188448,23.174255 c 8.315588,-13.167316 15.275759,-9.64984 17.448079,-8.267463 2.172319,1.382377 7.474864,8.618259 0.572885,15.807698 3.850481,-4.659641 6.410231,-14.176127 0.418221,-18.09423 -5.992011,-3.9181026 -14.639464,1.638268 -18.439185,10.553995 z" id="path3849" inkscape:connector-curvature="0" sodipodi:nodetypes="czczc"/>
    <path style="fill:none;stroke:#0b1521;stroke-width:2;stroke-linecap:butt;stroke-linejoin:round;stroke-miterlimit:4;stroke-opacity:1;stroke-dasharray:none;stroke-dashoffset:0;marker:none;visibility:visible;display:inline;overflow:visible;enable-background:accumulate" d="m 20.964408,16.467655 c -3.338244,4.842373 -3.898916,10.58764 -1.90021,14.735837 -0.685541,-3.044295 0.05654,-6.777753 2.314983,-10.053788 3.669966,-5.323556 9.94252,-7.401766 13.962591,-4.630402 3.193616,2.201622 4.027141,6.817507 2.391589,11.288762 l -0.76434,-2.03416 c -0.216406,0.529252 -0.475094,1.053551 -0.812849,1.54349 -1.373063,1.991727 -3.496819,3.16876 -5.725794,3.431928 l 2.873017,3.393641 c -1.351793,1.137282 -2.85173,1.964438 -4.347761,2.43507 C 30.648626,36.406414 32.362695,35.878248 34,35 l 8.47057,8.537073 -3.596179,-12.555942 C 39.25602,30.529628 39.626725,30.072009 39.972007,29.571152 44.520629,22.973037 43.948766,14.665411 38.704111,11.04984 33.459456,7.4342696 25.513027,9.8695459 20.964408,16.467655 z m 5.333859,4.242281 c -1.532868,2.22354 -0.988631,5.284603 1.234911,6.817473 2.223541,1.532869 5.299281,0.967349 6.832148,-1.256189 1.532865,-2.223542 0.95267,-5.277995 -1.27087,-6.810863 -2.22354,-1.53287 -5.26332,-0.973962 -6.796188,1.249582 z" id="path2570-3" sodipodi:nodetypes="ccssccsccccccssccsssc" inkscape:connector-curvature="0"/>
  </g>
</svg>
