/* XPM */
static char * headerButtonFold_xpm[] = {
"16 16 91 1",
" 	c None",
".	c #00736A",
"+	c #007269",
"@	c #007268",
"#	c #007168",
"$	c #006E65",
"%	c #117D74",
"&	c #7FB9B6",
"*	c #7BB8B4",
"=	c #75B4B0",
"-	c #7CB8B6",
";	c #8EC3C1",
">	c #91C5C3",
",	c #147F77",
"'	c #00675D",
")	c #00665C",
"!	c #006B62",
"~	c #09776E",
"{	c #429691",
"]	c #8ABCBA",
"^	c #86BAB7",
"/	c #98C6C4",
"(	c #ABD2D2",
"_	c #4B9C96",
":	c #0A7269",
"<	c #84BFBC",
"[	c #52A29D",
"}	c #00746B",
"|	c #007167",
"1	c #006A60",
"2	c #358982",
"3	c #73AEAB",
"4	c #7FB7B4",
"5	c #489691",
"6	c #00685E",
"7	c #006055",
"8	c #84BFBD",
"9	c #F3FEFF",
"0	c #97C9C7",
"a	c #006F66",
"b	c #0A7970",
"c	c #22867F",
"d	c #006358",
"e	c #55A19D",
"f	c #53A09B",
"g	c #006156",
"h	c #1E7D75",
"i	c #8AC2C0",
"j	c #D6EEEF",
"k	c #88C1BE",
"l	c #026A60",
"m	c #4C9E99",
"n	c #B3D9D9",
"o	c #097970",
"p	c #05736A",
"q	c #087970",
"r	c #A3D1D0",
"s	c #C4E3E4",
"t	c #C8E5E6",
"u	c #006960",
"v	c #55A29D",
"w	c #BBDEDF",
"x	c #BADDDD",
"y	c #A0CECD",
"z	c #B1D8D7",
"A	c #21867F",
"B	c #B7DCDC",
"C	c #BBDDDE",
"D	c #68AFAB",
"E	c #D4ECEE",
"F	c #B9DCDC",
"G	c #C2E2E2",
"H	c #CAE7E7",
"I	c #90C5C3",
"J	c #B9DDDD",
"K	c #B5DADA",
"L	c #92BFB7",
"M	c #97CBC9",
"N	c #6BB0AC",
"O	c #DEF2F4",
"P	c #C6E4E5",
"Q	c #D5EDEE",
"R	c #93BFB8",
"S	c #A1CFCE",
"T	c #499790",
"U	c #006B61",
"V	c #499C97",
"W	c #97CAC8",
"X	c #99CBCA",
"Y	c #3D9690",
"Z	c #006157",
"................",
"................",
"................",
"................",
".....++++@@.....",
".....######.....",
"...$%&*=-;>,')!.",
"...#~{]^/(_:_<[.",
"..}|11234567890.",
"..abc#defg#hijk.",
"..lmnop++pqrstk.",
".uvwxyzAAzyBCtk.",
".'DEFGHIIHGJKLM.",
".'NOttPQQPttRST.",
".UVWkkkkkkkkXYZ.",
"................"};
