<?xml version="1.0" encoding="UTF-8" standalone="no"?>
<svg width="140" height="40" viewBox="0 0 140 40" fill="none" version="1.1" id="svg5" sodipodi:docname="logo-freecad.svg" inkscape:version="1.3.2 (091e20e, 2023-11-25)" xmlns:inkscape="http://www.inkscape.org/namespaces/inkscape" xmlns:sodipodi="http://sodipodi.sourceforge.net/DTD/sodipodi-0.dtd" xmlns="http://www.w3.org/2000/svg" xmlns:svg="http://www.w3.org/2000/svg" xmlns:rdf="http://www.w3.org/1999/02/22-rdf-syntax-ns#" xmlns:cc="http://creativecommons.org/ns#" xmlns:dc="http://purl.org/dc/elements/1.1/">
  <sodipodi:namedview id="namedview1" pagecolor="#ffffff" bordercolor="#666666" borderopacity="1.0" inkscape:showpageshadow="2" inkscape:pageopacity="0.0" inkscape:pagecheckerboard="0" inkscape:deskcolor="#d1d1d1" inkscape:zoom="3.6064496" inkscape:cx="96.632433" inkscape:cy="27.589461" inkscape:window-width="1392" inkscape:window-height="1212" inkscape:window-x="849" inkscape:window-y="667" inkscape:window-maximized="0" inkscape:current-layer="svg5"/>
  <title id="title1">FreeCAD-wordmark-light</title>
  <defs id="defs5"/>
  <metadata id="metadata1">
    <rdf:RDF>
      <cc:Work rdf:about="">
        <dc:title>FreeCAD-wordmark-light</dc:title>
        <dc:date>2024-06-01</dc:date>
        <dc:creator>
          <cc:Agent>
            <dc:title>Sebastian Tabares Amaya (sytabaresa), Max Wilfinger (maxwxyz)</dc:title>
          </cc:Agent>
        </dc:creator>
        <dc:publisher>
          <cc:Agent>
            <dc:title>The FreeCAD project association AISBL (FPA)</dc:title>
          </cc:Agent>
        </dc:publisher>
      </cc:Work>
    </rdf:RDF>
  </metadata>
  <g id="g1" transform="matrix(0.07083333,0,0,0.07083333,7.206253,3.0000008)">
    <path d="M 503.256,353 V 126.866 h 114.75 v 20.502 H 525.9 v 81.702 h 88.74 v 20.502 H 525.9 V 353 Z m 141.252,0 V 185.618 h 22.644 v 23.868 c 8.874,-18.36 23.256,-26.622 47.43,-27.846 v 22.338 c -31.518,3.06 -47.43,20.196 -47.43,51.408 V 353 Z M 895.57,276.806 H 744.1 c 1.836,33.048 30.6,59.364 65.178,59.364 25.398,0 48.96,-15.3 58.446,-38.25 h 23.562 c -12.24,35.19 -44.982,59.058 -81.396,59.058 -49.572,0 -88.434,-38.862 -88.434,-88.434 0,-48.654 38.25,-86.904 86.598,-86.904 33.048,0 62.73,17.442 77.418,45.594 7.344,14.076 10.098,27.234 10.098,49.572 z M 744.712,256.304 h 128.214 c -7.65,-33.354 -32.436,-53.856 -64.872,-53.856 -31.824,0 -57.222,21.726 -63.342,53.856 z m 349.878,20.502 H 943.119 c 1.836,33.048 30.6,59.364 65.181,59.364 25.4,0 48.96,-15.3 58.44,-38.25 h 23.57 c -12.24,35.19 -44.99,59.058 -81.4,59.058 -49.573,0 -88.435,-38.862 -88.435,-88.434 0,-48.654 38.25,-86.904 86.595,-86.904 33.05,0 62.73,17.442 77.42,45.594 7.35,14.076 10.1,27.234 10.1,49.572 z M 943.731,256.304 h 128.219 c -7.65,-33.354 -32.44,-53.856 -64.88,-53.856 -31.821,0 -57.219,21.726 -63.339,53.856 z m 348.039,33.66 h 49.27 c -17.75,41.31 -57.84,67.014 -104.35,67.014 -66.09,0 -119.03,-52.326 -119.03,-117.81 0,-63.954 52.32,-116.28 116.28,-116.28 28.46,0 55.69,9.792 76.8,27.54 14.39,12.24 21.73,22.338 30.3,41.31 h -46.82 c -15.3,-19.89 -33.05,-28.458 -59.36,-28.458 -23.26,0 -42.54,8.568 -56.31,24.786 -11.63,13.464 -18.66,33.048 -18.66,51.408 0,42.228 33.96,77.112 75.88,77.112 21.73,0 37.34,-7.344 56,-26.622 z M 1345.76,353 1440,126.866 h 33.05 L 1567.91,353 h -46.2 l -24.18,-58.446 h -80.48 L 1391.96,353 Z m 86.59,-98.532 h 48.35 l -24.17,-68.544 z M 1591.85,353 V 126.866 h 51.72 c 37.02,0 64.26,5.814 82.62,17.748 29.98,19.278 46.81,53.856 46.81,95.778 0,46.818 -21.42,84.15 -57.22,100.98 -18.05,8.262 -37.94,11.628 -71.3,11.628 z m 41.92,-40.086 h 9.18 c 25.1,0 42.54,-3.366 55.08,-10.098 20.2,-11.016 32.75,-35.19 32.75,-62.424 0,-29.682 -13.77,-54.162 -36.11,-65.178 -12.85,-6.12 -26.62,-8.262 -52.63,-8.262 h -8.27 z" fill="#212529" id="path5" style="fill:#ffffff;fill-opacity:1;stroke:none"/>
    <g id="g2" style="stroke:none">
      <path d="m 400,80 -80,80 H 160 v 60 h 80 v 80 h -80 v 100 l -80,80 h 81.0076 c 6.0652,0 11.4378,-3.9054 13.3118,-9.6738 l 14.4798,-44.5656 c 1.384,-4.2618 4.7298,-7.5966 8.9916,-8.9814 l 11.1312,-3.6172 c 4.262,-1.386 8.9314,-0.65 12.5572,1.984 l 37.8994,27.5434 c 4.9066,3.5646 11.5574,3.5646 16.464,0 l 33.972,-24.691 c 4.9072,-3.5648 6.9592,-9.8788 5.085,-15.6474 l -14.4798,-44.5658 c -1.386,-4.262 -0.64,-8.9314 1.994,-12.5572 l 6.8834,-9.4672 c 2.6338,-3.6254 6.8358,-5.777 11.317,-5.7774 l 46.86,0.0102 c 6.0656,2e-4 11.4378,-3.9154 13.3118,-9.684 l 12.9812,-39.9354 c 1.874,-5.7684 -0.18,-12.093 -5.085,-15.658 L 350.7724,237.173 c -3.6256,-2.6342 -5.767,-6.8356 -5.767,-11.3172 V 214.146 c 4e-4,-4.4814 2.1412,-8.6936 5.767,-11.3274 l 43.4598,-31.5742 C 397.8584,168.6106 400,164.3988 400,159.9174 Z" style="fill:#418fde;fill-opacity:1;fill-rule:evenodd;stroke:none;stroke-width:2.64566;stroke-linecap:square" id="path8-4-4"/>
      <path id="path7-7-2" style="display:inline;fill:#ff585d;fill-opacity:1;fill-rule:evenodd;stroke:none;stroke-width:2.64566;stroke-linecap:square" d="m 320,0 -80,80 h 80 v 80 L 400,80 V 0 Z M 80,320 0,400 v 80 h 80 l 80,-80 H 80 Z"/>
      <path d="M 80,0 0,80 V 400 L 80,320 V 80 H 240 L 320,0 Z" style="fill:#cb333b;fill-rule:evenodd;stroke:none;stroke-width:2.64566;stroke-linecap:square" id="path3-1-7"/>
      <path d="m 80,400 h 80 V 300 h 80 V 220 H 160 V 160 H 320 V 80 H 80 Z" style="fill:#ffffff;fill-opacity:1;fill-rule:evenodd;stroke:none;stroke-width:2.64566;stroke-linecap:square" id="path9-4-0"/>
    </g>
  </g>
</svg>