<?xml version="1.0" encoding="UTF-8" standalone="no"?>
<svg xmlns:dc="http://purl.org/dc/elements/1.1/" xmlns:cc="http://creativecommons.org/ns#" xmlns:rdf="http://www.w3.org/1999/02/22-rdf-syntax-ns#" xmlns:svg="http://www.w3.org/2000/svg" xmlns="http://www.w3.org/2000/svg" xmlns:xlink="http://www.w3.org/1999/xlink" xmlns:sodipodi="http://sodipodi.sourceforge.net/DTD/sodipodi-0.dtd" xmlns:inkscape="http://www.inkscape.org/namespaces/inkscape" width="64px" height="64px" id="svg2860" version="1.1" inkscape:version="0.48.5 r10040" sodipodi:docname="CAM_Speed.svg">
  <sodipodi:namedview pagecolor="#ffffff" bordercolor="#666666" borderopacity="1" objecttolerance="10" gridtolerance="10" guidetolerance="10" inkscape:pageopacity="0" inkscape:pageshadow="2" inkscape:window-width="1920" inkscape:window-height="1137" id="namedview15" showgrid="true" inkscape:zoom="7.375" inkscape:cx="45.362691" inkscape:cy="36.097476" inkscape:window-x="0" inkscape:window-y="27" inkscape:window-maximized="1" inkscape:current-layer="layer1" inkscape:snap-bbox="false" inkscape:snap-nodes="true">
    <inkscape:grid type="xygrid" id="grid2992" empspacing="2" visible="true" enabled="true" snapvisiblegridlinesonly="true"/>
  </sodipodi:namedview>
  <defs id="defs2862">
    <linearGradient inkscape:collect="always" id="linearGradient3948">
      <stop style="stop-color:#888a85;stop-opacity:1" offset="0" id="stop3950"/>
      <stop style="stop-color:#d3d7cf;stop-opacity:1" offset="1" id="stop3952"/>
    </linearGradient>
    <linearGradient inkscape:collect="always" id="linearGradient3882">
      <stop style="stop-color:#888a85;stop-opacity:1" offset="0" id="stop3884"/>
      <stop style="stop-color:#d3d7cf;stop-opacity:1" offset="1" id="stop3886"/>
    </linearGradient>
    <linearGradient inkscape:collect="always" id="linearGradient3838">
      <stop style="stop-color:#888a85;stop-opacity:1" offset="0" id="stop3840"/>
      <stop style="stop-color:#d3d7cf;stop-opacity:1" offset="1" id="stop3842"/>
    </linearGradient>
    <linearGradient id="linearGradient4513">
      <stop id="stop4515" offset="0" style="stop-color:#ffffff;stop-opacity:1;"/>
      <stop id="stop4517" offset="1" style="stop-color:#999999;stop-opacity:1;"/>
    </linearGradient>
    <radialGradient xlink:href="#linearGradient4513" id="radialGradient4285" cx="32" cy="48.100151" fx="32" fy="48.100151" r="29.100386" gradientTransform="matrix(1.0175302,0,0,2.509614,-0.56096266,-71.712811)" gradientUnits="userSpaceOnUse"/>
    <radialGradient xlink:href="#linearGradient4513" id="radialGradient4293" cx="32" cy="15.899899" fx="32" fy="15.899899" r="14.484803" gradientTransform="matrix(0.9362755,0,0,3.1827795,2.0391841,-35.555771)" gradientUnits="userSpaceOnUse"/>
    <radialGradient xlink:href="#linearGradient4513" id="radialGradient4301" cx="32" cy="31.999899" fx="32" fy="31.999899" r="21.792595" gradientTransform="matrix(0.9909122,0,0,2.7445472,0.2908087,-56.309559)" gradientUnits="userSpaceOnUse"/>
    <radialGradient xlink:href="#linearGradient4513-6" id="radialGradient4285-3" cx="32" cy="48.100151" fx="32" fy="48.100151" r="29.100386" gradientTransform="matrix(1.0175302,0,0,2.509614,-0.56096266,-71.712811)" gradientUnits="userSpaceOnUse"/>
    <linearGradient id="linearGradient4513-6">
      <stop id="stop4515-7" offset="0" style="stop-color:#ffffff;stop-opacity:1;"/>
      <stop id="stop4517-5" offset="1" style="stop-color:#999999;stop-opacity:1;"/>
    </linearGradient>
    <linearGradient inkscape:collect="always" xlink:href="#linearGradient3838" id="linearGradient3844" x1="31" y1="54" x2="30" y2="44" gradientUnits="userSpaceOnUse"/>
    <linearGradient inkscape:collect="always" xlink:href="#linearGradient3882" id="linearGradient3888" x1="32" y1="36" x2="31" y2="26" gradientUnits="userSpaceOnUse"/>
    <radialGradient xlink:href="#linearGradient4513-1" id="radialGradient4293-0" cx="32" cy="15.899899" fx="32" fy="15.899899" r="14.484803" gradientTransform="matrix(0.9362755,0,0,3.1827795,2.0391841,-35.555771)" gradientUnits="userSpaceOnUse"/>
    <linearGradient id="linearGradient4513-1">
      <stop id="stop4515-0" offset="0" style="stop-color:#ffffff;stop-opacity:1;"/>
      <stop id="stop4517-2" offset="1" style="stop-color:#999999;stop-opacity:1;"/>
    </linearGradient>
    <linearGradient inkscape:collect="always" xlink:href="#linearGradient3948" id="linearGradient3954" x1="34" y1="18" x2="31" y2="8" gradientUnits="userSpaceOnUse"/>
  </defs>
  <metadata id="metadata2865">
    <rdf:RDF>
      <cc:Work rdf:about="">
        <dc:format>image/svg+xml</dc:format>
        <dc:type rdf:resource="http://purl.org/dc/dcmitype/StillImage"/>
        <dc:title/>
        <dc:title>CAM_Speed</dc:title>
        <dc:date>2016-05-15</dc:date>
        <dc:relation>https://www.freecad.org/wiki/index.php?title=Artwork</dc:relation>
        <dc:publisher>
          <cc:Agent>
            <dc:title>FreeCAD</dc:title>
          </cc:Agent>
        </dc:publisher>
        <dc:identifier>FreeCAD/src/Mod/CAM/Gui/Resources/icons/CAM_Speed.svg</dc:identifier>
        <dc:rights>
          <cc:Agent>
            <dc:title>FreeCAD LGPL2+</dc:title>
          </cc:Agent>
        </dc:rights>
        <cc:license>https://www.gnu.org/copyleft/lesser.html</cc:license>
        <dc:contributor>
          <cc:Agent>
            <dc:title>[agryson] Alexander Gryson</dc:title>
          </cc:Agent>
        </dc:contributor>
      </cc:Work>
    </rdf:RDF>
  </metadata>
  <g id="layer1">
    <path style="fill:url(#linearGradient3954);stroke:#2e3436;stroke-width:2;stroke-linecap:butt;stroke-linejoin:round;stroke-miterlimit:4;stroke-opacity:1;stroke-dasharray:none;fill-opacity:1" d="m 19,21 0,-2 6,-4 0,-4 -6,-4 -1e-6,-2 L 45,5 l 0,2 -6,4 0,4 6,4 0,2 z" id="path4257-1" inkscape:connector-curvature="0" sodipodi:nodetypes="ccccccccccccc"/>
    <path style="fill:none;stroke:#d3d7cf;stroke-width:2;stroke-linecap:butt;stroke-linejoin:round;stroke-miterlimit:4;stroke-opacity:1;stroke-dasharray:none" d="m 20,19 4,-1 3,-2 0,-6 -3,-2 -4,-1 24,0 -4,1 -3,2 0,6 3,2 4,1 z" id="path4257-5" inkscape:connector-curvature="0" sodipodi:nodetypes="ccccccccccccc"/>
    <path id="path4253-6" d="m 53,36.999999 -6,-4 0,-4 6,-4 0,-1.918439 -42,0 0,1.91844 6,4 0,4 -6,4 0,2.08156 42,0 z" style="fill:url(#linearGradient3888);stroke:#2e3436;stroke-width:1.99999988000000006;stroke-linecap:butt;stroke-linejoin:round;stroke-miterlimit:4;stroke-opacity:1;stroke-dasharray:none;fill-opacity:1" inkscape:connector-curvature="0" sodipodi:nodetypes="ccccccccccccc"/>
    <path id="path4253-7" d="m 48,36 -3,-2 0,-6 3,-2 4,-1 -40,0 4,1 3,2 0,6 -3,2 -4,1 40,0 z" style="fill:none;stroke:#d3d7cf;stroke-width:1.99999975999999990;stroke-linecap:butt;stroke-linejoin:round;stroke-miterlimit:4;stroke-opacity:1;stroke-dasharray:none" inkscape:connector-curvature="0" sodipodi:nodetypes="ccccccccccccc"/>
    <path style="fill:url(#linearGradient3844);stroke:#2e3436;stroke-width:2;stroke-linecap:butt;stroke-linejoin:round;stroke-miterlimit:4;stroke-opacity:1;stroke-dasharray:none;fill-opacity:1" d="m 3,57 0,-2 6,-4 0,-4 -6,-4 0,-2 58.000002,0 -2e-6,2 -6,4 0,4 6,4 2e-6,2 z" id="path4263-0" inkscape:connector-curvature="0" sodipodi:nodetypes="ccccccccccccc"/>
    <path style="fill:none;stroke:#d3d7cf;stroke-width:2;stroke-linecap:round;stroke-linejoin:round;stroke-miterlimit:4;stroke-opacity:1;stroke-dasharray:none" d="M 4,55 8,54 11,52 11,46 8,44 3.6779662,43 60,43 l -4,1 -3,2 0,6 3,2 4,1 z" id="path4263-3" inkscape:connector-curvature="0" sodipodi:nodetypes="ccccccccccccc"/>
    <path id="path4253" d="m 53,36.918439 -6,-4 0,-4 6,-4 L 53,23 l -42,0 0,1.91844 6,4 0,4 -6,4 L 11,39 53,39 z" style="fill:none;stroke:#2e3436;stroke-width:1.99999988;stroke-linecap:butt;stroke-linejoin:round;stroke-miterlimit:4;stroke-opacity:1;stroke-dasharray:none" inkscape:connector-curvature="0" sodipodi:nodetypes="ccccccccccccc"/>
    <path style="fill:none;fill-opacity:1;fill-rule:evenodd;stroke:#2e3436;stroke-width:2;stroke-linecap:butt;stroke-linejoin:round;stroke-miterlimit:4;stroke-opacity:1;stroke-dasharray:none" d="m 19,21 0,-2 6,-4 0,-4 -6,-4 -1e-6,-2 L 45,5 l 0,2 -6,4 0,4 6,4 0,2 z" id="path4257" inkscape:connector-curvature="0" sodipodi:nodetypes="ccccccccccccc"/>
    <path style="fill:none;fill-opacity:1;fill-rule:evenodd;stroke:#2e3436;stroke-width:2;stroke-linecap:butt;stroke-linejoin:round;stroke-miterlimit:4;stroke-opacity:1;stroke-dasharray:none" d="M 3.0000001,57 3,55 9,51 9,47 3,43 l 10e-8,-2 58.0000019,0 -2e-6,2 -6,4 0,4 6,4 2e-6,2 z" id="path4263" inkscape:connector-curvature="0" sodipodi:nodetypes="ccccccccccccc"/>
    <path style="fill:none;stroke:#d3d7cf;stroke-width:2;stroke-linecap:butt;stroke-linejoin:miter;stroke-opacity:1" d="m 11,49 42,0" id="path3894" inkscape:connector-curvature="0"/>
    <path style="fill:none;stroke:#d3d7cf;stroke-width:2;stroke-linecap:butt;stroke-linejoin:miter;stroke-opacity:1" d="m 27,13 10,0" id="path3956" inkscape:connector-curvature="0"/>
    <path style="fill:none;stroke:#d3d7cf;stroke-width:2;stroke-linecap:butt;stroke-linejoin:miter;stroke-opacity:1" d="m 19,31 26,0" id="path3958" inkscape:connector-curvature="0"/>
  </g>
</svg>
