/* XPM */
static char * PartFeature_xpm[] = {
"16 16 21 1",
" 	c None",
".	c #192D05",
"+	c #172A04",
"@	c #233C09",
"#	c #558D1E",
"$	c #89E134",
"%	c #8AE234",
"&	c #172A03",
"*	c #7DCE2E",
"=	c #31530F",
"-	c #396012",
";	c #82D731",
">	c #172904",
",	c #172B04",
"'	c #88DF33",
")	c #4C7F1A",
"!	c #28450B",
"~	c #75C12C",
"{	c #172A05",
"]	c #61A022",
"^	c #182C04",
"                ",
" .++++++++      ",
" +@#$%%%%+&&    ",
" +*=-;%%%+ >,   ",
" +%')!~%%+  >{  ",
" +%%%]^++++++++ ",
" +%%%%+%%%%%%%+ ",
" +%%%%+%%%%%%%+ ",
" +%%%%+%%%%%%%+ ",
" +%%%%+%%%%%%%+ ",
" ++++++%%%%%%%+ ",
"  &&  +%%%%%%%+ ",
"   >, +%%%%%%%+ ",
"    >{+%%%%%%%+ ",
"      ++++++++. ",
"                "};
