/* XPM */
static char * PartFeatureImport_xpm[] = {
"16 16 30 1",
" 	c None",
".	c #141010",
"+	c #729FCF",
"@	c #192D05",
"#	c #172A04",
"$	c #FCE94F",
"%	c #233C09",
"&	c #558D1E",
"*	c #7DCE2E",
"=	c #31530F",
"-	c #010200",
";	c #020300",
">	c #8AE234",
",	c #1C2E0A",
"'	c #88E033",
")	c #89E133",
"!	c #000000",
"~	c #020400",
"{	c #100C0C",
"]	c #88E134",
"^	c #89E134",
"/	c #080A03",
"(	c #88DF33",
"_	c #162903",
":	c #87E035",
"<	c #172B04",
"[	c #88E035",
"}	c #172A03",
"|	c #172904",
"1	c #172A05",
"        ........",
"   ......++..+..",
"@##.$$$$.++..++.",
"#%&.$$$$.++..++.",
"#*=.$$-;.++++++.",
"#>..$$,'.++..++.",
"#)!$$$$~{++..++.",
"#)].$$,'.++++++.",
"#^>>/!^^........",
"#^^)(_'>)(>>>#  ",
"#^:'><:[^>>>>#  ",
"######>>>>>>>#  ",
" }}  #>>>>>>>#  ",
"  |< #>>>>>>>#  ",
"   |1#>>>>>>>#  ",
"     ########@  "};
