/* XPM */
static char * PartFeatureImport_xpm[] = {
"16 16 6 1",
" 	c None",
".	c #141010",
"+	c #615BD2",
"@	c #C39D55",
"#	c #000000",
"$	c #57C355",
"        ........",
"   ......++..+..",
"   .@@@@.++..++.",
"   .@@@@.++..++.",
"   .@@  .++++++.",
"  ..@@  .++..++.",
"###@@@@ .++..++.",
"##$.@@$#.++++++.",
"#$#$.$$$........",
"#$$#######      ",
"#$$#$$$$$#      ",
"#$$#$$$$$#      ",
"#$$#$$$$$#      ",
" #$#$$$$$#      ",
"  ##$$$$$#      ",
"   #######      "};
