/* XPM */
static char * PartFeature_xpm[] = {
"16 16 13 1",
" 	c None",
".	c #000000",
"+	c #001200",
"@	c #00BD00",
"#	c #00F600",
"$	c #00AF00",
"%	c #001400",
"&	c #00C900",
"*	c #00FE00",
"=	c #00AB00",
"-	c #001500",
";	c #009C00",
">	c #00EF00",
"                ",
" .........      ",
" .+@#####..     ",
" .$%&****. .    ",
" .#=-&###.  .   ",
" .#*;.........  ",
" .#*#.******#.  ",
" .#*#.******#.  ",
" .#*#.******#.  ",
" .#*#.******#.  ",
" .....******#.  ",
"  .  .******#.  ",
"   . .******#.  ",
"    ..######>.  ",
"     .........  ",
"                "};
