<?xml version="1.0" encoding="UTF-8" standalone="no"?>
<!-- Created with Inkscape (http://www.inkscape.org/) -->

<svg
   width="64"
   height="64"
   viewBox="0 0 64 64"
   version="1.1"
   id="svg1"
   inkscape:version="1.3.2 (091e20ef0f, 2023-11-25, custom)"
   sodipodi:docname="TextWorkBench.svg"
   xmlns:inkscape="http://www.inkscape.org/namespaces/inkscape"
   xmlns:sodipodi="http://sodipodi.sourceforge.net/DTD/sodipodi-0.dtd"
   xmlns:xlink="http://www.w3.org/1999/xlink"
   xmlns="http://www.w3.org/2000/svg"
   xmlns:svg="http://www.w3.org/2000/svg">
  <sodipodi:namedview
     id="namedview1"
     pagecolor="#ffffff"
     bordercolor="#000000"
     borderopacity="0.25"
     inkscape:showpageshadow="2"
     inkscape:pageopacity="0.0"
     inkscape:pagecheckerboard="0"
     inkscape:deskcolor="#d1d1d1"
     inkscape:document-units="px"
     inkscape:zoom="10.871767"
     inkscape:cx="28.19229"
     inkscape:cy="25.570821"
     inkscape:window-width="1366"
     inkscape:window-height="696"
     inkscape:window-x="0"
     inkscape:window-y="0"
     inkscape:window-maximized="1"
     inkscape:current-layer="layer1" />
  <defs
     id="defs1">
    <linearGradient
       id="linearGradient2"
       inkscape:collect="always">
      <stop
         style="stop-color:#fce94f;stop-opacity:1;"
         offset="0"
         id="stop2" />
      <stop
         style="stop-color:#c4a000;stop-opacity:1"
         offset="1"
         id="stop3" />
    </linearGradient>
    <linearGradient
       inkscape:collect="always"
       xlink:href="#linearGradient2"
       id="linearGradient3"
       x1="33.091591"
       y1="6.343987"
       x2="32.768341"
       y2="61.463196"
       gradientUnits="userSpaceOnUse"
       gradientTransform="translate(0.38399574,-1.3439868)" />
  </defs>
  <g
     inkscape:label="Layer 1"
     inkscape:groupmode="layer"
     id="layer1">
    <path
       style="color:#000000;-inkscape-font-specification:'Noto Serif Italic';fill:url(#linearGradient3);-inkscape-stroke:none"
       d="m 9.0799993,61.119999 0.72,-3.36 h 1.8399997 q 2.64,0 4.72,-0.88 2.16,-0.88 2.96,-4.48 l 9.44,-44.4000001 h -7.68 q -3.52,0 -5.36,2 -1.76,1.9200001 -2.64,4.5600001 l -1.12,3.44 H 7.7999993 L 11.159999,3.9999989 h 45.04 l -2.56,14.0000001 h -4.16 q 0.08,-0.48 0.16,-1.52 0.08,-1.12 0.16,-2.08 0.08,-1.04 0.08,-1.28 0,-2.08 -1.12,-3.6000001 -1.12,-1.52 -4.16,-1.52 h -7.76 l -9.44,44.3200001 q -0.32,1.28 -0.32,2.24 0,2 1.6,2.64 1.68,0.56 4.16,0.56 h 1.84 l -0.72,3.36 z"
       id="path14" />
    <path
       id="path13"
       style="color:#000000;-inkscape-font-specification:'Noto Serif Italic';fill:#fce94f;fill-opacity:1;-inkscape-stroke:none"
       d="M 11.160156,4 7.8007812,18 h 4.1601568 l 1.11914,-3.439453 C 13.666744,12.800549 14.547371,11.279999 15.720703,10 16.947369,8.666668 18.733414,8 21.080078,8 h 7.679688 l -9.439454,44.400391 c -0.533332,2.399997 -1.520938,3.893802 -2.960937,4.480468 -1.386665,0.586666 -2.958752,0.878907 -4.71875,0.878907 H 9.8007812 L 9.0800781,61.119141 H 33.960938 l 0.71875,-3.359375 h -1.839844 c -1.653332,0 -3.040158,-0.187214 -4.160156,-0.560547 -1.066666,-0.426666 -1.59961,-1.30534 -1.59961,-2.638672 0,-0.639999 0.10698,-1.386902 0.320313,-2.240235 L 36.839844,8 h 7.759765 c 2.026665,0 3.413491,0.5061989 4.160157,1.5195312 0.746666,1.0133328 1.121093,2.2129438 1.121093,3.5996098 0,0.159999 -0.02674,0.587917 -0.08008,1.28125 -0.05333,0.639999 -0.106823,1.333412 -0.160156,2.080078 C 49.587292,17.173801 49.533802,17.68 49.480469,18 h 4.160156 L 56.199219,4 Z m 2.365235,3 h 1.449218 c -0.480236,0.3379955 -1.059355,0.5301237 -1.46289,0.96875 l -0.002,0.00195 -0.002,0.00195 C 13.385231,8.1064907 13.305014,8.2739611 13.1875,8.4121094 Z m 18.513671,0 h 1.947266 l -9.521484,44.695312 0.02539,-0.103515 c -0.256132,1.024533 -0.410156,1.995419 -0.410156,2.96875 0,1.210278 0.491105,2.494427 1.263672,3.558594 h -5.677734 c 1.294201,-1.315392 2.145761,-3.105149 2.582031,-5.06836 l 0.0039,-0.01367 z m 18.386719,0 h 2.175781 L 52.121094,9.625 C 51.856033,8.9706084 51.595758,8.3102028 51.175781,7.7402344 50.959228,7.4463416 50.680887,7.2398296 50.425781,7 Z m -32.896484,52.642578 -0.03711,0.01563 c 0.0053,-0.0022 0.0083,-0.0076 0.01367,-0.0098 0.0074,-0.0031 0.01608,-0.0027 0.02344,-0.0059 z" />
    <path
       style="color:#000000;-inkscape-font-specification:'Noto Serif Italic';fill:#302b00;-inkscape-stroke:none"
       d="M 10.371094,3 6.53125,19 h 6.154297 l 1.34375,-4.123047 C 14.575716,13.237696 15.38187,11.848684 16.457031,10.675781 17.468498,9.5775635 18.924099,9 21.080078,9 h 6.445313 l -9.183594,43.191406 c -0.495972,2.224298 -1.322197,3.339165 -2.359375,3.761719 l -0.0059,0.0039 -0.0059,0.002 c -1.246845,0.527512 -2.681191,0.800782 -4.330078,0.800782 H 8.9921875 L 7.84375,62.119141 h 26.923828 l 1.148438,-5.359375 h -3.076172 c -1.563669,0 -2.832051,-0.182852 -3.808594,-0.503907 -0.710652,-0.291027 -0.951172,-0.642715 -0.951172,-1.695312 0,-0.528888 0.09195,-1.201782 0.291016,-1.998047 L 28.375,52.544922 37.650391,9 h 6.949218 c 1.859999,0 2.86511,0.4477944 3.355469,1.113281 0.617447,0.837965 0.925781,1.798681 0.925781,3.00586 0,0.04889 -0.02524,0.51761 -0.07813,1.205078 -0.05352,0.642577 -0.10678,1.336728 -0.160156,2.083984 -0.05208,0.67541 -0.105645,1.170982 -0.148437,1.427734 L 48.298828,19 h 6.175781 L 57.400391,3 Z m 1.578125,2 h 43.052734 l -2.195312,12 h -2.216797 c 0.015,-0.16742 0.03187,-0.248349 0.04687,-0.443359 v -0.002 -0.0039 c 0.05309,-0.74329 0.107205,-1.432942 0.160156,-2.068359 v -0.002 -0.0039 c 0.05378,-0.699198 0.08398,-1.086312 0.08398,-1.357422 0,-1.566153 -0.440521,-3.002706 -1.316406,-4.1914066 C 48.56148,7.5665566 46.792941,7 44.599609,7 H 36.03125 l -9.601563,45.078125 c -0.227599,0.9104 -0.349609,1.731312 -0.349609,2.482422 0,1.599998 0.828346,3.008291 2.228516,3.568359 l 0.02734,0.0098 0.02734,0.0098 c 1.260043,0.420015 2.747962,0.611329 4.476563,0.611329 h 0.603515 L 33.152337,60.11921 H 10.318359 l 0.291016,-1.359375 h 1.03125 c 1.867238,0 3.575516,-0.311967 5.099609,-0.955079 1.838989,-0.751228 2.986117,-2.620139 3.556641,-5.1875 v -0.0039 L 29.994141,7 H 21.080078 C 18.54402,7 16.426165,7.7551025 14.984375,9.3222656 v 0.00195 h -0.002 C 13.710872,10.71131 12.757726,12.363398 12.130812,14.244138 v 0.0039 L 11.234375,17 H 9.0683594 Z"
       id="path15" />
  </g>
</svg>
