<?xml version="1.0" encoding="UTF-8" standalone="no"?>
<svg
   xmlns:dc="http://purl.org/dc/elements/1.1/"
   xmlns:cc="http://creativecommons.org/ns#"
   xmlns:rdf="http://www.w3.org/1999/02/22-rdf-syntax-ns#"
   xmlns:svg="http://www.w3.org/2000/svg"
   xmlns="http://www.w3.org/2000/svg"
   xmlns:sodipodi="http://sodipodi.sourceforge.net/DTD/sodipodi-0.dtd"
   xmlns:inkscape="http://www.inkscape.org/namespaces/inkscape"
   id="svg8"
   version="1.1"
   viewBox="0 0 210 297.00001"
   height="297mm"
   width="210mm"
   sodipodi:docname="endmill.svg"
   inkscape:version="1.0.1 (3bc2e813f5, 2020-09-07)">
  <sodipodi:namedview
     pagecolor="#ffffff"
     bordercolor="#666666"
     borderopacity="1"
     objecttolerance="10"
     gridtolerance="10"
     guidetolerance="10"
     inkscape:pageopacity="0"
     inkscape:pageshadow="2"
     inkscape:window-width="958"
     inkscape:window-height="1031"
     id="namedview71"
     showgrid="false"
     inkscape:zoom="0.7349537"
     inkscape:cx="396.85039"
     inkscape:cy="561.25984"
     inkscape:window-x="0"
     inkscape:window-y="25"
     inkscape:window-maximized="0"
     inkscape:current-layer="layer1" />
  <defs
     id="defs2">
    <marker
       style="overflow:visible"
       id="marker1185"
       refX="0"
       refY="0"
       orient="auto">
      <path
         transform="matrix(-1.1,0,0,-1.1,-1.1,0)"
         d="M 8.7185878,4.0337352 -2.2072895,0.01601326 8.7185884,-4.0017078 c -1.7454984,2.3720609 -1.7354408,5.6174519 -6e-7,8.035443 z"
         style="fill:#000000;fill-opacity:1;fill-rule:evenodd;stroke:#000000;stroke-width:0.625;stroke-linejoin:round;stroke-opacity:1"
         id="path1183" />
    </marker>
    <marker
       style="overflow:visible"
       id="marker1181"
       refX="0"
       refY="0"
       orient="auto">
      <path
         transform="matrix(1.1,0,0,1.1,1.1,0)"
         d="M 8.7185878,4.0337352 -2.2072895,0.01601326 8.7185884,-4.0017078 c -1.7454984,2.3720609 -1.7354408,5.6174519 -6e-7,8.035443 z"
         style="fill:#000000;fill-opacity:1;fill-rule:evenodd;stroke:#000000;stroke-width:0.625;stroke-linejoin:round;stroke-opacity:1"
         id="path1179" />
    </marker>
    <marker
       style="overflow:visible"
       id="marker1177"
       refX="0"
       refY="0"
       orient="auto">
      <path
         transform="matrix(-1.1,0,0,-1.1,-1.1,0)"
         d="M 8.7185878,4.0337352 -2.2072895,0.01601326 8.7185884,-4.0017078 c -1.7454984,2.3720609 -1.7354408,5.6174519 -6e-7,8.035443 z"
         style="fill:#000000;fill-opacity:1;fill-rule:evenodd;stroke:#000000;stroke-width:0.625;stroke-linejoin:round;stroke-opacity:1"
         id="path1175" />
    </marker>
    <marker
       style="overflow:visible"
       id="marker1173"
       refX="0"
       refY="0"
       orient="auto">
      <path
         transform="matrix(1.1,0,0,1.1,1.1,0)"
         d="M 8.7185878,4.0337352 -2.2072895,0.01601326 8.7185884,-4.0017078 c -1.7454984,2.3720609 -1.7354408,5.6174519 -6e-7,8.035443 z"
         style="fill:#000000;fill-opacity:1;fill-rule:evenodd;stroke:#000000;stroke-width:0.625;stroke-linejoin:round;stroke-opacity:1"
         id="path1171" />
    </marker>
    <marker
       style="overflow:visible"
       id="Arrow2Lend"
       refX="0"
       refY="0"
       orient="auto">
      <path
         transform="matrix(-1.1,0,0,-1.1,-1.1,0)"
         d="M 8.7185878,4.0337352 -2.2072895,0.01601326 8.7185884,-4.0017078 c -1.7454984,2.3720609 -1.7354408,5.6174519 -6e-7,8.035443 z"
         style="fill:#000000;fill-opacity:1;fill-rule:evenodd;stroke:#000000;stroke-width:0.625;stroke-linejoin:round;stroke-opacity:1"
         id="path920" />
    </marker>
    <marker
       style="overflow:visible"
       id="Arrow2Lstart"
       refX="0"
       refY="0"
       orient="auto">
      <path
         transform="matrix(1.1,0,0,1.1,1.1,0)"
         d="M 8.7185878,4.0337352 -2.2072895,0.01601326 8.7185884,-4.0017078 c -1.7454984,2.3720609 -1.7354408,5.6174519 -6e-7,8.035443 z"
         style="fill:#000000;fill-opacity:1;fill-rule:evenodd;stroke:#000000;stroke-width:0.625;stroke-linejoin:round;stroke-opacity:1"
         id="path917" />
    </marker>
    <marker
       style="overflow:visible"
       id="Arrow1Lstart"
       refX="0"
       refY="0"
       orient="auto">
      <path
         transform="matrix(0.8,0,0,0.8,10,0)"
         style="fill:#000000;fill-opacity:1;fill-rule:evenodd;stroke:#000000;stroke-width:1.00000003pt;stroke-opacity:1"
         d="M 0,0 5,-5 -12.5,0 5,5 Z"
         id="path899" />
    </marker>
    <marker
       style="overflow:visible"
       id="Arrow2Mstart"
       refX="0"
       refY="0"
       orient="auto">
      <path
         transform="scale(0.6)"
         d="M 8.7185878,4.0337352 -2.2072895,0.01601326 8.7185884,-4.0017078 c -1.7454984,2.3720609 -1.7354408,5.6174519 -6e-7,8.035443 z"
         style="fill:#000000;fill-opacity:1;fill-rule:evenodd;stroke:#000000;stroke-width:0.625;stroke-linejoin:round;stroke-opacity:1"
         id="path923" />
    </marker>
    <marker
       style="overflow:visible"
       id="Arrow1Mend"
       refX="0"
       refY="0"
       orient="auto">
      <path
         transform="matrix(-0.4,0,0,-0.4,-4,0)"
         style="fill:#000000;fill-opacity:1;fill-rule:evenodd;stroke:#000000;stroke-width:1.00000003pt;stroke-opacity:1"
         d="M 0,0 5,-5 -12.5,0 5,5 Z"
         id="path908" />
    </marker>
    <marker
       style="overflow:visible"
       id="marker7497"
       refX="0"
       refY="0"
       orient="auto">
      <path
         transform="scale(-0.6)"
         d="M 8.7185878,4.0337352 -2.2072895,0.01601326 8.7185884,-4.0017078 c -1.7454984,2.3720609 -1.7354408,5.6174519 -6e-7,8.035443 z"
         style="fill:#000025;fill-opacity:1;fill-rule:evenodd;stroke:#000025;stroke-width:0.625;stroke-linejoin:round;stroke-opacity:1"
         id="path7495" />
    </marker>
    <marker
       style="overflow:visible"
       id="marker7379"
       refX="0"
       refY="0"
       orient="auto">
      <path
         transform="matrix(0.4,0,0,0.4,4,0)"
         style="fill:#000025;fill-opacity:1;fill-rule:evenodd;stroke:#000025;stroke-width:1.00000003pt;stroke-opacity:1"
         d="M 0,0 5,-5 -12.5,0 5,5 Z"
         id="path7377" />
    </marker>
    <marker
       orient="auto"
       refY="0"
       refX="0"
       id="marker5480"
       style="overflow:visible">
      <path
         id="path5478"
         style="fill:#000000;fill-opacity:1;fill-rule:evenodd;stroke:#000000;stroke-width:0.625;stroke-linejoin:round;stroke-opacity:1"
         d="M 8.7185878,4.0337352 -2.2072895,0.01601326 8.7185884,-4.0017078 c -1.7454984,2.3720609 -1.7354408,5.6174519 -6e-7,8.035443 z"
         transform="scale(-0.6)" />
    </marker>
    <marker
       orient="auto"
       refY="0"
       refX="0"
       id="marker5470"
       style="overflow:visible">
      <path
         id="path5468"
         style="fill:#000000;fill-opacity:1;fill-rule:evenodd;stroke:#000000;stroke-width:0.625;stroke-linejoin:round;stroke-opacity:1"
         d="M 8.7185878,4.0337352 -2.2072895,0.01601326 8.7185884,-4.0017078 c -1.7454984,2.3720609 -1.7354408,5.6174519 -6e-7,8.035443 z"
         transform="scale(-0.6)" />
    </marker>
    <marker
       orient="auto"
       refY="0"
       refX="0"
       id="marker5220"
       style="overflow:visible">
      <path
         id="path5218"
         d="M 0,0 5,-5 -12.5,0 5,5 Z"
         style="fill:#000000;fill-opacity:1;fill-rule:evenodd;stroke:#000000;stroke-width:1.00000003pt;stroke-opacity:1"
         transform="matrix(0.4,0,0,0.4,4,0)" />
    </marker>
    <marker
       orient="auto"
       refY="0"
       refX="0"
       id="marker5210"
       style="overflow:visible">
      <path
         id="path5208"
         d="M 0,0 5,-5 -12.5,0 5,5 Z"
         style="fill:#000000;fill-opacity:1;fill-rule:evenodd;stroke:#000000;stroke-width:1.00000003pt;stroke-opacity:1"
         transform="matrix(0.4,0,0,0.4,4,0)" />
    </marker>
    <marker
       orient="auto"
       refY="0"
       refX="0"
       id="marker5072"
       style="overflow:visible">
      <path
         id="path5070"
         d="M 0,0 5,-5 -12.5,0 5,5 Z"
         style="fill:#000000;fill-opacity:1;fill-rule:evenodd;stroke:#000000;stroke-width:1.00000003pt;stroke-opacity:1"
         transform="matrix(-0.8,0,0,-0.8,-10,0)" />
    </marker>
    <marker
       orient="auto"
       refY="0"
       refX="0"
       id="marker5014"
       style="overflow:visible">
      <path
         id="path5012"
         d="M 0,0 5,-5 -12.5,0 5,5 Z"
         style="fill:#000000;fill-opacity:1;fill-rule:evenodd;stroke:#000000;stroke-width:1.00000003pt;stroke-opacity:1"
         transform="matrix(-0.8,0,0,-0.8,-10,0)" />
    </marker>
    <marker
       orient="auto"
       refY="0"
       refX="0"
       id="marker4968"
       style="overflow:visible">
      <path
         id="path4966"
         d="M 0,0 5,-5 -12.5,0 5,5 Z"
         style="fill:#000000;fill-opacity:1;fill-rule:evenodd;stroke:#000000;stroke-width:1.00000003pt;stroke-opacity:1"
         transform="matrix(-0.8,0,0,-0.8,-10,0)" />
    </marker>
    <marker
       orient="auto"
       refY="0"
       refX="0"
       id="marker4884"
       style="overflow:visible">
      <path
         id="path4882"
         d="M 0,0 5,-5 -12.5,0 5,5 Z"
         style="fill:#000000;fill-opacity:1;fill-rule:evenodd;stroke:#000000;stroke-width:1.00000003pt;stroke-opacity:1"
         transform="matrix(0.8,0,0,0.8,10,0)" />
    </marker>
    <marker
       orient="auto"
       refY="0"
       refX="0"
       id="marker4856"
       style="overflow:visible">
      <path
         id="path4854"
         d="M 0,0 5,-5 -12.5,0 5,5 Z"
         style="fill:#000000;fill-opacity:1;fill-rule:evenodd;stroke:#000000;stroke-width:1.00000003pt;stroke-opacity:1"
         transform="matrix(0.8,0,0,0.8,10,0)" />
    </marker>
    <marker
       orient="auto"
       refY="0"
       refX="0"
       id="marker4834"
       style="overflow:visible">
      <path
         id="path4832"
         d="M 0,0 5,-5 -12.5,0 5,5 Z"
         style="fill:#000000;fill-opacity:1;fill-rule:evenodd;stroke:#000000;stroke-width:1.00000003pt;stroke-opacity:1"
         transform="matrix(0.8,0,0,0.8,10,0)" />
    </marker>
    <marker
       orient="auto"
       refY="0"
       refX="0"
       id="marker5220-5"
       style="overflow:visible">
      <path
         id="path5218-3"
         d="M 0,0 5,-5 -12.5,0 5,5 Z"
         style="fill:#000000;fill-opacity:1;fill-rule:evenodd;stroke:#000000;stroke-width:1.00000003pt;stroke-opacity:1"
         transform="matrix(0.4,0,0,0.4,4,0)" />
    </marker>
    <marker
       orient="auto"
       refY="0"
       refX="0"
       id="marker5480-5"
       style="overflow:visible">
      <path
         id="path5478-7"
         style="fill:#000000;fill-opacity:1;fill-rule:evenodd;stroke:#000000;stroke-width:0.625;stroke-linejoin:round;stroke-opacity:1"
         d="M 8.7185878,4.0337352 -2.2072895,0.01601326 8.7185884,-4.0017078 c -1.7454984,2.3720609 -1.7354408,5.6174519 -6e-7,8.035443 z"
         transform="scale(-0.6)" />
    </marker>
  </defs>
  <metadata
     id="metadata5">
    <rdf:RDF>
      <cc:Work
         rdf:about="">
        <dc:format>image/svg+xml</dc:format>
        <dc:type
           rdf:resource="http://purl.org/dc/dcmitype/StillImage" />
        <dc:title />
      </cc:Work>
    </rdf:RDF>
  </metadata>
  <g
     transform="translate(0.19510138,82.181594)"
     id="layer1">
    <path
       id="path4538"
       d="m 118.43165,191.92376 v -39.1469"
       style="fill:none;stroke:#000000;stroke-width:0.823854;stroke-linecap:butt;stroke-linejoin:miter;stroke-miterlimit:4;stroke-dasharray:none;stroke-opacity:1" />
    <path
       id="path4542"
       d="M 57.313954,-48.540717 H 116.35772"
       style="fill:none;stroke:#000000;stroke-width:0.736568;stroke-linecap:butt;stroke-linejoin:miter;stroke-miterlimit:4;stroke-dasharray:none;stroke-opacity:1;marker-start:url(#marker1181);marker-end:url(#marker1185)" />
    <path
       id="path4548"
       d="M 54.177906,179.67926 H 117.83609"
       style="fill:none;stroke:#000000;stroke-width:0.540802;stroke-linecap:butt;stroke-linejoin:miter;stroke-miterlimit:4;stroke-dasharray:none;stroke-opacity:1;marker-start:url(#marker1173);marker-end:url(#marker1177)" />
    <text
       transform="scale(0.97131606,1.029531)"
       id="text5680"
       y="-35.19606"
       x="126.37565"
       style="font-style:normal;font-variant:normal;font-weight:normal;font-stretch:normal;font-size:35.7707px;line-height:1.25;font-family:'URW Bookman L';-inkscape-font-specification:'URW Bookman L, Normal';font-variant-ligatures:normal;font-variant-caps:normal;font-variant-numeric:normal;font-feature-settings:normal;text-align:start;letter-spacing:0px;word-spacing:0px;writing-mode:lr-tb;text-anchor:start;fill:#000000;fill-opacity:1;stroke:none;stroke-width:3.35351"
       xml:space="preserve"><tspan
         style="font-style:normal;font-variant:normal;font-weight:normal;font-stretch:normal;font-size:35.7707px;font-family:'URW Bookman L';-inkscape-font-specification:'URW Bookman L, Normal';font-variant-ligatures:normal;font-variant-caps:normal;font-variant-numeric:normal;font-feature-settings:normal;text-align:start;writing-mode:lr-tb;text-anchor:start;stroke-width:3.35351"
         y="-35.19606"
         x="126.37565"
         id="tspan5678">S</tspan></text>
    <text
       transform="scale(0.97131606,1.029531)"
       id="text5692"
       y="204.05394"
       x="75.031937"
       style="font-style:normal;font-variant:normal;font-weight:normal;font-stretch:normal;font-size:35.7707px;line-height:1.25;font-family:'URW Bookman L';-inkscape-font-specification:'URW Bookman L, Normal';font-variant-ligatures:normal;font-variant-caps:normal;font-variant-numeric:normal;font-feature-settings:normal;text-align:start;letter-spacing:0px;word-spacing:0px;writing-mode:lr-tb;text-anchor:start;fill:#000000;fill-opacity:1;stroke:none;stroke-width:3.35351"
       xml:space="preserve"><tspan
         style="font-style:normal;font-variant:normal;font-weight:normal;font-stretch:normal;font-size:35.7707px;font-family:'URW Bookman L';-inkscape-font-specification:'URW Bookman L, Normal';font-variant-ligatures:normal;font-variant-caps:normal;font-variant-numeric:normal;font-feature-settings:normal;text-align:start;writing-mode:lr-tb;text-anchor:start;stroke-width:3.35351"
         y="204.05394"
         x="75.031937"
         id="tspan5690">D</tspan></text>
    <text
       transform="scale(0.97131606,1.029531)"
       id="text5692-8"
       y="101.32485"
       x="141.7326"
       style="font-style:normal;font-variant:normal;font-weight:normal;font-stretch:normal;font-size:35.7707px;line-height:1.25;font-family:'URW Bookman L';-inkscape-font-specification:'URW Bookman L, Normal';font-variant-ligatures:normal;font-variant-caps:normal;font-variant-numeric:normal;font-feature-settings:normal;text-align:start;letter-spacing:0px;word-spacing:0px;writing-mode:lr-tb;text-anchor:start;fill:#000000;fill-opacity:1;stroke:none;stroke-width:3.35351"
       xml:space="preserve"><tspan
         style="stroke-width:3.35351"
         y="101.32485"
         x="141.7326"
         id="tspan10475">H</tspan><tspan
         style="stroke-width:3.35351"
         id="tspan895"
         y="146.03827"
         x="141.7326" /></text>
    <path
       id="path4538-8"
       d="m 53.656636,194.48411 v -39.1469"
       style="fill:none;stroke:#000000;stroke-width:0.823854;stroke-linecap:butt;stroke-linejoin:miter;stroke-miterlimit:4;stroke-dasharray:none;stroke-opacity:1" />
    <path
       id="path897"
       d="M 131.26491,22.267499 V 170.59241"
       style="fill:none;stroke:#000000;stroke-width:1.13395;stroke-linecap:butt;stroke-linejoin:miter;stroke-miterlimit:4;stroke-dasharray:none;stroke-opacity:1;marker-start:url(#Arrow2Lstart);marker-end:url(#Arrow2Lend)" />
    <path
       id="path1187"
       d="m 114.72832,19.499193 h 24.62222"
       style="fill:none;stroke:#000000;stroke-width:0.823854;stroke-linecap:butt;stroke-linejoin:miter;stroke-miterlimit:4;stroke-dasharray:none;stroke-opacity:1" />
    <path
       id="path1189"
       d="m 116.57691,171.93303 h 24.62222"
       style="fill:none;stroke:#000000;stroke-width:0.823854;stroke-linecap:butt;stroke-linejoin:miter;stroke-miterlimit:4;stroke-dasharray:none;stroke-opacity:1" />
    <path
       id="path14"
       style="fill:#000000;stroke-width:0.20776"
       d="m 72.888356,172.78619 c -6.142817,-1.36503 -16.123011,2.39642 -20.11178,-2.13054 0.40064,-5.14239 2.18485,-10.17158 0.88006,-15.31844 -1.588751,-19.58191 0.0027,-39.30403 0.02698,-58.938496 0.05844,-10.53663 0.64552,-21.073554 1.872995,-31.4853 -1.980409,-19.37481 -0.07282,-38.915321 -0.191006,-58.3625281 0.466592,-24.3896819 0.827148,-48.7902739 1.39658,-73.1725739 2.627646,1.6639 -0.05709,10.28668 0.735798,14.41472 -0.288177,23.161035 -1.186069,46.4073779 -1.025575,69.519399 1.264441,2.901228 -0.852146,12.507754 0.890528,3.268666 0.729604,-7.738366 2.018685,-3.234881 1.377728,-0.424902 2.177229,-8.781627 11.896959,-5.929465 12.151941,-1.774892 1.168699,-4.145107 5.69858,-10.5032841 2.201312,-2.353936 C 63.331661,38.168923 54.813211,62.036211 54.932664,87.429639 54.665525,99.303193 54.558046,111.18148 54.236971,123.0533 60.146946,86.273199 79.099415,55.246324 96.459008,24.834909 c 3.49221,-6.339073 14.458052,-15.2632431 18.269312,-5.335716 0.22689,4.158798 3.12969,-7.449075 1.67123,0.969399 -5.1166,22.785502 -17.507734,41.907994 -27.999385,61.556907 -15.051218,27.358481 -30.99425,55.927381 -34.584568,89.018501 5.184964,0.81955 10.677698,0.21812 15.995347,0.39476 14.571324,-30.82177 34.229696,-58.56807 44.314756,-92.134586 5.05588,-16.546097 3.83742,-34.483163 3.19249,-51.624181 0.86264,-28.40220106 0.20893,-56.846945 0.32604,-85.268551 -0.005,-3.05935 -0.01,-6.11871 -0.0149,-9.17806 2.31075,5.8843 0.4612,15.41551 1.08367,22.71994 -0.0124,35.1402779 0.33335,70.299571 -0.13964,105.427791 -0.39982,6.088428 -2.82138,11.972526 -0.68425,17.957846 2.04274,17.421427 0.80508,35.105571 1.16079,52.642051 -0.0793,11.92696 0.3521,23.94444 -1.6353,35.71111 2.81312,6.56778 -1.96352,5.38289 -5.48863,5.30694 -13.012668,-0.0332 -26.025195,-0.11495 -39.037614,-0.21287 z m 20.399545,-1.0649 c 0.699951,-16.93927 2.714476,-33.82831 3.884022,-50.75239 -4.080667,5.53225 -2.089385,13.31347 -3.342361,20.23985 -0.41858,4.77169 -0.790066,12.31732 -0.03776,3.15039 0.15928,-5.39793 1.880047,-17.50524 1.258359,-8.38539 -0.830944,12.01636 -1.78547,24.02014 -2.690445,36.02893 -3.294527,-0.59019 -6.191173,0.42851 -9.693322,-0.40408 -0.693944,1.41455 4.253094,0.48108 5.972153,0.74251 1.33109,-0.40803 4.082225,0.82284 4.649379,-0.61982 z m 1.720998,-41.44965 c 0.168508,-1.87075 0.119134,2.15316 0,0 z m 0.3827,0 c 0.168379,-1.87076 0.119582,2.15321 0,0 z m -0.19396,-2.36852 c 0.146546,-1.81023 0.146546,1.81024 0,0 z m 0.382713,0 c 0.146533,-1.81022 0.146533,1.81023 0,0 z m -0.199086,-2.4813 c 0.153917,-1.41173 0.153917,1.41173 0,0 z m 0.382714,0 c 0.153882,-1.41172 0.153882,1.41172 0,0 z m 21.70137,46.58361 c -0.91415,-6.28525 -0.96815,0.92607 -0.88844,-0.0724 -1.48047,-2.6288 -0.28113,2.3321 0.88844,0.0724 z m -57.624183,-0.0455 c -3.339496,-0.33615 -9.58622,0.11474 -2.524113,0.11062 0.811408,-0.26238 1.716486,0.20382 2.524113,-0.11062 z m 10.675464,-0.29565 c 0.195493,-1.60369 -0.766722,1.611 0,0 z m 5.624459,-0.0423 c -0.328113,-0.38782 0.165239,1.26114 0,0 z m 8.136831,-14.39438 c 0.293968,-2.93846 2.737108,-15.40962 1.799824,-13.49219 -1.767164,9.22152 -3.523052,18.44888 -5.092222,27.72015 2.382709,-0.0436 1.315856,-5.58823 2.293638,-7.8412 0.33292,-2.12891 0.66584,-4.25783 0.99876,-6.38676 z m -0.03946,14.33502 c 1.415443,-11.06664 2.899263,-22.12243 4.330721,-33.18522 -2.254801,10.9075 -3.665301,22.16324 -5.367301,33.2077 l 0.449628,0.0792 z m 2.104864,-0.23112 c 1.270998,-12.04047 2.62169,-24.06988 3.944481,-36.10205 -1.838681,11.9967 -3.601505,24.30875 -4.770468,36.3459 0.248696,0.11327 0.750924,0.19807 0.825987,-0.24385 z m 3.577437,-18.38979 c 0.403603,-4.62534 1.938275,-19.88326 1.546571,-17.90646 -1.431668,12.17688 -2.749476,24.3844 -4.092879,36.56732 2.216093,-4.62214 1.490343,-13.06412 2.546308,-18.66086 z m -0.133109,18.28832 c 0.709573,-9.50947 1.602379,-18.99924 2.276213,-28.51241 -0.833955,9.59912 -2.375623,19.5706 -2.563244,28.94666 z m 25.824197,-0.4318 c 3.93522,-19.52045 1.85359,-39.73778 2.22644,-59.58993 -0.0617,-5.70229 -1.58507,7.45039 -2.71243,9.79212 -4.87831,18.05826 -13.04433,34.51355 -21.298175,50.66386 7.195435,0 14.390885,0 21.586325,0 l 0.11127,-0.48707 z m -41.638869,-0.43099 c 1.172848,-4.0044 3.599743,-13.81219 0.825168,-4.32414 -0.07155,0.32291 -2.492033,7.99196 -0.825168,4.32414 z m 2.016424,-0.67672 c 0.7686,-3.70802 3.406155,-13.34273 2.933211,-13.21251 -0.265857,1.20676 -5.980594,19.86118 -2.933211,13.21251 z m 3.807148,-8.46069 c 0.684764,-3.01899 3.448545,-16.23719 0.84744,-6.20448 -0.653832,4.90452 -4.221613,12.99165 -3.138894,16.18899 1.023169,-3.23129 1.522033,-6.66298 2.291454,-9.98451 z m 0.135048,9.70135 c 1.52562,-8.22597 3.017312,-16.46239 4.398623,-24.7237 -2.10704,8.18182 -4.012818,16.87375 -5.30181,25.19749 0.340534,0.1581 0.789863,-0.0422 0.903187,-0.47379 z m 11.141485,-1.46315 c -0.282706,0.51858 0.271743,2.47525 0,0 z m 0.567453,1.0261 c -0.328113,-0.38783 0.165233,1.26112 0,0 z m -38.270297,-0.22558 c -0.328106,-0.38783 0.165206,1.26115 0,0 z m 18.32235,-0.007 c 4.220868,-8.88298 -2.435831,1.26274 0,0 z m 18.79984,-1.12086 c -0.328113,-0.38783 0.16524,1.26113 0,0 z m 6.527481,-6.27378 c 11.975057,-23.96397 23.584537,-51.02979 20.272707,-79.685236 -0.3463,-4.311171 -1.22471,-9.994157 -2.42057,-2.318266 -4.12143,14.491533 -11.09607,27.624432 -17.242201,40.887072 -1.35219,15.9234 -2.62255,31.85741 -4.054279,47.77069 1.212505,-2.17075 2.31444,-4.4237 3.444342,-6.65442 z m -5.192017,5.1318 c -0.334887,0.22545 0.310565,1.2422 0,0 z m -0.565731,-0.9023 c -0.293107,0.44018 0.287818,2.25043 0,0 z m -0.578376,-0.21148 c -0.328106,-0.38782 0.165199,1.26116 0,0 z m 1.335463,-1.36752 c -0.334906,0.22543 0.310566,1.24216 0,0 z m -0.565439,-0.6741 c -0.295337,0.4092 0.278001,1.97803 0,0 z m -0.578688,-0.2141 c -0.328052,-0.38782 0.165206,1.26109 0,0 z m -15.686528,-1.87524 c 1.246244,-5.09096 -2.229822,5.11953 0,0 z m 17.027178,0.16918 c -0.307779,0.33544 0.297778,1.74716 0,0 z m -0.57405,-0.45114 c -0.307786,0.33544 0.297771,1.74714 0,0 z m -0.579224,-0.1128 c -0.334961,0.22543 0.31062,1.24221 0,0 z m 1.348061,-1.80194 c -0.295337,0.40918 0.277999,1.97799 0,0 z m -0.582667,-0.22822 c -0.334907,0.22545 0.310579,1.24221 0,0 z m -0.568172,-0.33407 c -0.31736,0.28875 0.283296,1.48676 0,0 z m -36.219078,-0.56799 c -0.420547,-3.22275 -0.482355,3.08871 0,0 z m 37.561274,-1.35082 c -0.295331,0.40921 0.277999,1.97803 0,0 z m -14.899783,0.5613 c 2.453372,-6.39336 -1.049679,-1.45724 0,0 z m 13.748944,-0.89799 c -0.31734,0.28873 0.283228,1.48675 0,0 z m 0.572158,0.34815 c -0.328072,-0.38778 0.165219,1.26113 0,0 z m 0.769731,-2.4954 c -0.293037,0.4402 0.287744,2.25043 0,0 z m -37.281217,-1.12786 c 4.10171,-17.73 11.519823,-34.06408 19.283683,-49.85963 6.592539,-24.752823 13.394992,-49.463857 19.802036,-74.256893 -16.88273,29.8923 -35.388955,60.731898 -39.788918,97.144733 -1.116267,9.6172 -1.065633,19.46202 0.137753,29.05835 l 0.214335,-0.61292 z m 62.722678,1.35344 c -0.33496,0.22543 0.31061,1.2422 0,0 z m -26.592007,-0.33407 c -0.317312,0.28877 0.283242,1.48675 0,0 z m 0.572172,0.12259 c -0.328113,-0.38782 0.165219,1.26107 0,0 z m 0.771995,-2.37951 c -0.282652,0.51857 0.271743,2.47518 0,0 z m -1.153509,-0.22867 c -0.307786,0.33544 0.297772,1.74714 0,0 z m 0.572871,0.35244 c -0.328106,-0.3878 0.165219,1.26115 0,0 z m 26.025698,-0.57373 c -0.31734,0.28873 0.28322,1.48675 0,0 z m -37.665804,-0.58308 c 0.449613,-3.21088 -1.728626,3.37419 0,0 z m -26.821555,0.25453 c -0.328092,-0.38786 0.165192,1.26112 0,0 z m 39.233405,-1.7059 c -0.28238,0.54307 0.279201,2.75291 0,0 z m -1.153258,0 c -0.30784,0.33544 0.297846,1.74714 0,0 z m -38.275483,-0.7895 c -0.334961,0.22543 0.310613,1.24216 0,0 z m 38.46682,-1.46624 c -0.307779,0.33546 0.297778,1.7472 0,0 z m -1.340651,0.12689 c -0.328072,-0.38779 0.16522,1.26113 0,0 z m -7.320912,-2.18572 c -1.276896,0.62171 -0.8375,3.80288 0,0 z m -29.988003,-0.0815 c -0.295331,0.40918 0.277993,1.97803 0,0 z m 38.840923,-0.1154 c -0.30778,0.33544 0.297776,1.74714 0,0 z m -1.340651,0.35244 c -0.328106,-0.3878 0.16524,1.26111 0,0 z m -7.019377,-1.08556 c 0.469194,-1.60103 -0.909757,1.61873 0,0 z m 8.55451,-1.63539 c -0.293039,0.4402 0.287742,2.25043 0,0 z m -1.343769,0.69081 c -0.328113,-0.38781 0.165219,1.26113 0,0 z m 2.870269,0 c -0.328106,-0.38781 0.165219,1.26113 0,0 z m -8.288502,-2.39067 c -1.69168,0.87012 -0.488722,3.82502 0,0 z m 5.609569,0.36051 c -0.328072,-0.38779 0.16522,1.26113 0,0 z m 1.343788,-0.91639 c -0.293037,0.4402 0.287744,2.25043 0,0 z m 1.531112,0.2282 c -0.295331,0.4092 0.278001,1.97803 0,0 z m -2.104875,-1.12785 c -0.295338,0.40918 0.278,1.97798 0,0 z m -5.153163,-0.39739 c 3.119606,-5.21039 -2.005107,0.9532 0,0 z m 4.574495,0.18327 c -0.328106,-0.38779 0.16524,1.26111 0,0 z m 1.343788,-1.14197 c -0.293107,0.44019 0.287818,2.25043 0,0 z m 1.530807,0 c -0.293039,0.4402 0.287744,2.25043 0,0 z m -2.108001,-0.7895 c -0.30778,0.33544 0.297776,1.74716 0,0 z m -0.575237,-0.0987 c -0.328106,-0.3878 0.165219,1.26115 0,0 z m -37.849336,-8.38092 c -0.120565,-10.91727 -0.895139,16.56234 -0.188984,2.28317 l 0.09845,-1.30443 z m 39.19311,7.01339 c -0.293039,0.4402 0.287744,2.25045 0,0 z m 1.533085,-0.10968 c -0.282652,0.51858 0.271743,2.47519 0,0 z m -2.10956,-0.44995 c -0.317346,0.28873 0.283219,1.48675 0,0 z m -3.056862,-1.32737 c -1.601585,1.19259 0.115189,3.32882 0,0 z m 2.480906,1.22438 c -0.328072,-0.38782 0.165219,1.26111 0,0 z m 1.346066,-1.70279 c -0.282706,0.51858 0.271742,2.4752 0,0 z m 1.530807,-0.22557 c -0.282706,0.51857 0.271743,2.4752 0,0 z m -2.115448,-0.1159 c -0.334959,0.22545 0.31062,1.2422 0,0 z m -0.570068,0.0141 c -0.328113,-0.38782 0.16524,1.2611 0,0 z m 1.346045,-1.92837 c -0.282651,0.51858 0.271743,2.4752 0,0 z m -2.437775,0.56084 c 0.145706,-2.75835 -0.847955,2.74123 0,0 z m 0.70903,-0.66263 c -0.328106,-0.38783 0.165206,1.26113 0,0 z m 0.574057,0 c -0.328106,-0.38783 0.165199,1.26113 0,0 z m 0.574055,0 c -0.328111,-0.38783 0.165199,1.26113 0,0 z m 0.77199,-2.15394 c -0.282699,0.51858 0.271743,2.47521 0,0 z m -1.293804,0.49833 c 1.137989,-2.64342 -1.924735,1.25915 0,0 z m 0.71315,-0.60012 c -0.328072,-0.38781 0.165219,1.26111 0,0 z m 0.930918,-3.28949 c -1.572334,1.31771 0.272678,3.57136 0,0 z m -40.339692,-3.71138 c -0.259233,0.83109 0.254765,3.97433 0,0 z m 0.191357,-10.15079 c -0.259206,0.83107 0.25469,3.97433 0,0 z m 0.191106,-10.60791 c -0.260081,0.84758 0.25903,4.25855 0,0 z m 22.335534,0.52909 c -1.148019,-1.05132 -1.702867,4.86829 0,0 z m 41.956364,-5.209734 c 0.004,-3.862674 0.003,-7.329139 -0.12357,-1.49339 -0.42835,3.500266 -0.0627,12.341354 0.11607,3.692644 l 0.006,-1.075273 0.002,-1.123981 z m -40.999634,3.357734 c -0.512215,-2.940624 2.984863,-10.545441 2.479903,-9.636018 0.928659,-2.407768 0.982962,0.883343 -0.41271,5.509773 4.888844,-6.660865 4.483722,-15.712849 7.04121,-23.820542 0.600005,-2.647894 4.657335,-20.576937 3.334462,-15.237301 -1.88282,7.21976 -3.791283,17.355153 -5.540893,22.79558 0.664776,-6.678112 3.790585,-17.431244 5.38659,-25.62358 1.695213,-7.71651 3.550307,-15.385248 5.178558,-23.121208 -5.99323,22.209528 -12.133375,44.393526 -17.793633,66.713128 0.107839,-0.837529 -0.735655,5.976408 0.326513,2.420168 z m 2.223836,-9.128646 c 0.123067,-0.869379 0.194204,1.026765 0,0 z m 0.765413,-1.598159 c -1.01329,-3.231062 0.504439,0.594126 0,0 z m 0.574051,-0.883143 c 0.123039,-0.869364 0.194177,1.026733 0,0 z m -0.191357,-0.902294 c 0.123067,-0.869379 0.194204,1.026765 0,0 z m 0.3827,0 c 0.123074,-0.869371 0.194198,1.026757 0,0 z M 83.48816,84.46149 c 0.123067,-0.869372 0.194197,1.026757 0,0 z m -0.191344,-0.902294 c 0.12304,-0.869364 0.194178,1.026733 0,0 z m 0.203148,-0.770709 c 0.228329,-3.796862 0.450136,0.425894 0,0 z M 84.06221,81.98018 c 0.123074,-0.869372 0.194198,1.026765 0,0 z m -0.191337,-0.902294 c 0.12304,-0.869356 0.194178,1.026733 0,0 z m -7.071368,18.794015 c -0.636007,-0.583831 0.605083,1.230369 0,0 z m 2.062041,-1.579943 c 1.128363,-3.82554 -2.248516,3.752692 0,0 z m -0.04156,-1.785797 c -0.328065,-0.387825 0.16522,1.261104 0,0 z M 79.2027,94.927145 c -0.328099,-0.387833 0.165206,1.261128 0,0 z M 54.33567,92.318957 c -0.266386,0.746452 0.264949,3.75685 0,0 z m 25.24972,1.029171 c -0.328106,-0.387816 0.16524,1.261105 0,0 z m 38.85096,-3.056229 c -0.28268,0.518554 0.27172,2.475196 0,0 z M 86.198608,84.818646 c 3.276885,-5.225766 6.986601,-13.430639 9.625837,-17.308804 -0.940071,-1.072017 1.079383,-0.556185 0.0398,-1.841138 -2.949348,5.6187 -6.260023,11.214341 -8.888554,17.236885 -2.302425,2.422171 -4.853634,9.770029 -1.294186,2.843286 l 0.517117,-0.930229 z m 32.035822,1.748191 c -0.33496,0.225436 0.31061,1.242186 0,0 z M 84.785627,84.818646 c -0.610704,0.201258 -0.173769,2.017211 0,0 z M 54.524932,83.299128 c -0.282652,0.518578 0.271742,2.475196 0,0 z m 30.418307,0.574927 c -0.328099,-0.387825 0.165213,1.261128 0,0 z m 0.3827,-1.579009 c -0.328106,-0.387824 0.165233,1.261097 0,0 z m 0.416438,-1.536718 c -0.610663,0.201233 -0.173782,2.017219 0,0 z m 0.157619,-0.944592 c -0.328113,-0.387816 0.165233,1.261097 0,0 z M 54.705705,79.348494 c -0.3349,0.225443 0.310572,1.242194 0,0 z m 29.85482,0.01415 c -0.328065,-0.387824 0.16522,1.261105 0,0 z m 0.191357,-0.902298 c -0.328106,-0.387819 0.16524,1.261101 0,0 z m 1.530807,-0.225571 c -0.328065,-0.387822 0.16522,1.261108 0,0 z m -1.33945,-0.67672 c -0.328099,-0.387834 0.165206,1.261124 0,0 z m 1.530807,-0.225574 c -0.328106,-0.387822 0.16524,1.261101 0,0 z M 54.901048,76.881293 c -0.328106,-0.387826 0.165233,1.261096 0,0 z m 31.955698,-1.127868 c -0.328065,-0.387816 0.16522,1.261107 0,0 z m 0.382714,-1.579012 c -0.328099,-0.387835 0.165206,1.261125 0,0 z m 29.18548,-0.116201 c -0.80671,-1.226455 -0.27781,1.651494 0,0 z M 87.813517,71.693106 c -0.328106,-0.387828 0.165206,1.261126 0,0 z M 56.340899,63.876789 c -0.754911,2.417817 0.300125,3.66723 0,0 z M 99.524298,46.471198 c 2.049252,-5.267417 3.115632,-12.765487 5.886412,-16.721428 -2.20557,9.962614 -5.835805,19.447359 -8.485714,29.270743 3.416464,-9.718156 6.501474,-19.594279 9.901354,-29.320539 0.74625,5.516544 -4.512,14.702094 -6.04229,21.602808 -2.718523,8.432197 2.80012,-7.196482 3.83898,-10.026249 0.64337,-3.40156 7.02912,-17.686025 3.77225,-7.212755 -1.30864,3.936603 -5.04951,15.192809 -4.82624,13.86021 2.9181,-5.675494 4.3583,-14.32051 8.13961,-18.304793 -0.90071,3.338174 -5.67659,14.93853 -1.82277,5.983102 3.4816,-5.17752 7.84488,-19.412701 -1.44259,-19.206694 -4.99952,1.690219 -12.300146,6.547284 -11.483806,13.381319 2.7135,-2.578971 -1.811337,11.912225 -2.526883,16.224259 -0.911113,3.79767 -3.17798,13.938108 -0.87812,4.62281 2.154264,-6.869138 3.052122,-16.100228 6.068044,-21.515851 -1.926762,11.187778 -5.299674,21.993365 -7.671899,33.071314 3.088482,-10.770758 5.52411,-21.802329 8.808754,-32.489637 0.66903,5.575329 -4.080019,16.759677 -5.459364,24.403316 -1.077071,4.054932 -3.277384,12.656153 -0.842552,3.999925 2.799866,-9.352975 5.144626,-18.910013 8.215676,-28.141411 0.93896,4.223115 -3.80177,14.645539 -5.032256,21.117253 -0.942579,3.289678 -5.317104,18.705067 -2.177981,8.623364 1.363276,-4.402966 2.710903,-8.812634 4.061385,-13.221066 z m -7.658679,16.241274 c -0.610649,0.201267 -0.173755,2.017205 0,0 z m 6.517745,-1.527579 c 2.324816,-6.446387 -2.908071,5.776349 0,0 z M 57.48367,56.960354 c 3.378164,-7.707876 2.868797,-15.597051 -0.857915,-22.947979 -1.319029,9.178373 -1.017982,18.654717 -0.308939,27.910589 0.515897,-1.604893 0.736985,-3.324328 1.166854,-4.96261 z m 60.56341,4.581955 c -0.3281,-0.387819 0.16524,1.261099 0,0 z m -62.380598,-1.57901 c -0.328099,-0.387835 0.165206,1.261123 0,0 z M 96.861825,59.44166 c -0.670552,0.306674 -0.155889,1.260039 0,0 z m 21.378495,-0.503247 c -0.31734,0.288758 0.28324,1.486768 0,0 z M 91.640565,58.158711 c -0.328106,-0.38782 0.16524,1.261099 0,0 z M 55.471146,57.467894 c -0.334961,0.225435 0.310613,1.242186 0,0 z m 43.686893,-0.958688 c -0.670545,0.306677 -0.155889,1.260038 0,0 z m -6.909672,-0.563931 c -0.61071,0.201251 -0.173783,2.017215 0,0 z m -1.623485,-0.902294 c 0.401447,-2.735665 -1.002686,4.290338 0,0 z m 8.915878,0.33836 c -0.670553,0.306674 -0.155897,1.260039 0,0 z m 3.03567,-2.193811 c 2.59697,-7.025857 -2.982826,5.427584 0,0 z M 55.2884,53.635778 c -0.295331,0.409193 0.277993,1.978018 0,0 z m 35.586751,0.01146 c -0.328072,-0.387821 0.16522,1.261105 0,0 z m 0.416445,-1.53671 c -0.610669,0.201282 -0.173762,2.0172 0,0 z m 27.147294,-1.867785 c -0.20655,2.891024 0.17238,2.499911 0,0 z m -26.989682,0.923198 c -0.328072,-0.387821 0.16522,1.261106 0,0 z m 0.191357,-0.902294 c -0.328106,-0.387821 0.16524,1.261102 0,0 z m 12.926095,0.08048 c 1.31353,-1.434048 -1.35929,0.354916 0,0 z m -1.39793,-1.27884 c -0.83826,0.885147 -0.37115,1.650027 0,0 z m 3.76598,-3.270811 c 1.41059,-3.050882 8.06649,-18.360088 5.94986,-15.563765 -1.64459,4.060185 -9.64981,21.453474 -7.28705,18.272042 l 0.56553,-1.086682 z m -14.911445,2.890156 c -0.328072,-0.387815 0.16522,1.261108 0,0 z m 0.191357,-0.902291 c -0.328113,-0.387826 0.16524,1.261096 0,0 z M 61.145388,45.061366 c -0.890766,-0.527077 0.212389,1.994677 0,0 z M 55.705394,36.658764 C 55.57019,24.967087 54.835687,53.85907 55.50946,39.278936 l 0.100828,-1.468427 z m 3.99002,0.832822 c -1.827159,-3.809336 -1.714896,-10.421709 0.428452,-2.506075 0.983587,4.907021 2.97175,7.577671 1.090083,1.016244 -1.867009,-3.909082 -0.281933,-7.368359 0.72501,-1.54233 2.789492,10.711999 -1.270292,-11.529888 2.124419,0.2558 -0.06563,-5.314486 6.853148,-10.130389 4.960062,-17.733163 -5.953154,-6.206937 -11.589556,6.589555 -11.97684,12.916483 0.725933,4.59874 2.537999,9.276762 4.117874,13.634971 -0.188374,-2.099902 -0.954499,-4.040531 -1.46906,-6.04193 z m 2.408263,5.05431 c -0.554096,-1.51777 -0.658158,1.057726 0,0 z m 45.282493,-0.924522 c -0.67056,0.306677 -0.15589,1.260037 0,0 z M 62.960833,39.28575 c -0.826008,0.189704 0.415672,1.483041 0,0 z m 1.167648,-3.158025 c -0.880982,-0.03371 0.329062,1.161568 0,0 z M 95.658948,35.60139 c -0.328113,-0.387826 0.16524,1.261096 0,0 z M 65.226265,32.892674 c -0.912557,-0.262008 0.571779,1.852923 0,0 z m 31.006733,0.227408 c -0.328106,-0.38782 0.16524,1.261099 0,0 z M 55.471146,32.203691 c -0.334961,0.225437 0.310613,1.242191 0,0 z M 118.17083,28.51046 c -0.0538,-6.859122 -0.37691,-1.644229 -0.51513,2.372192 0.91639,4.897554 0.49304,-1.106577 0.51513,-2.372192 z m -62.311106,3.359164 c -0.317339,0.288738 0.283221,1.486758 0,0 z m 40.789719,-0.286258 c -0.61067,0.201227 -0.173796,2.017227 0,0 z M 56.66866,31.549856 c -0.272278,-3.726361 -0.795125,1.687737 0,0 z m 40.138395,-0.91108 c -0.328106,-0.387822 0.16524,1.261101 0,0 z M 56.01063,25.267313 c 0.884054,-3.326105 -0.142607,-11.218149 -0.334337,-3.011095 -0.0177,3.775585 -0.120951,12.089954 0.334337,3.011095 z m 0.608623,3.552779 c -0.334961,0.225436 0.31062,1.242191 0,0 z m 0.191343,-1.127866 c -0.3349,0.225443 0.310566,1.242189 0,0 z m 39.439414,-0.8459 c 0.438575,-2.944473 -1.465101,2.962965 0,0 z M 57.831982,22.986577 c -1.731548,3.847651 -0.253165,4.958327 0,0 z m 56.579418,3.140734 c -0.32812,-0.387825 0.16523,1.261097 0,0 z m 0.67481,-3.065968 c -1.27092,1.717319 -0.25561,4.209547 0,0 z m -45.317947,-0.43709 c 1.235042,-4.517209 -1.520603,2.583769 -0.74047,1.633855 z M 118.24479,22.16568 c -0.2824,0.543061 0.2792,2.752919 0,0 z m -3.64204,-0.324261 c -0.3281,-0.387822 0.16524,1.261101 0,0 z M 62.137388,16.469956 c 0.978908,-1.613368 -1.427993,1.640492 0,0 z m 6.984324,-0.761887 c -0.646571,-0.915052 -0.904834,-0.623056 0,0 z m 39.749298,-0.05111 c -0.70443,-0.255838 -0.35154,0.39284 0,0 z M 66.299282,14.290408 c -1.053754,-0.366116 -0.191242,0.394797 0,0 z M 55.867223,9.4207959 c -0.260081,0.8475751 0.25903,4.2585471 0,0 z M 56.05858,-0.95557406 c -0.260142,0.847575 0.259097,4.25854896 0,0 z M 56.249923,-11.331944 c -0.260081,0.847576 0.25903,4.2585509 0,0 z m 62.001237,-29.324524 c -0.089,0.378 -0.0713,18.227612 0,16.354062 0.0296,-5.451259 0.0296,-10.902803 0,-16.354062 z m -61.80988,18.948156 c -0.260081,0.847574 0.25903,4.258546 0,0 z m 0.191587,-10.144835 c -0.259226,0.831085 0.254765,3.974328 0,0 z m 0.191357,-10.376371 c -0.259206,0.83107 0.254697,3.97433 0,0 z m 61.418516,-8.57775 c -0.29298,0.4402 0.28769,2.25043 0,0 z m -61.227403,-1.80459 c -0.260081,0.84757 0.25903,4.25856 0,0 z m 0.191587,-9.91926 c -0.259233,0.83108 0.254765,3.97433 0,0 z" />
  </g>
</svg>
