<?xml version="1.0" encoding="UTF-8" standalone="no"?>
<svg
   xmlns:dc="http://purl.org/dc/elements/1.1/"
   xmlns:cc="http://creativecommons.org/ns#"
   xmlns:rdf="http://www.w3.org/1999/02/22-rdf-syntax-ns#"
   xmlns:svg="http://www.w3.org/2000/svg"
   xmlns="http://www.w3.org/2000/svg"
   xmlns:sodipodi="http://sodipodi.sourceforge.net/DTD/sodipodi-0.dtd"
   xmlns:inkscape="http://www.inkscape.org/namespaces/inkscape"
   id="svg8"
   version="1.1"
   viewBox="0 0 210 297.00001"
   height="297mm"
   width="210mm"
   sodipodi:docname="reamer.svg"
   inkscape:version="1.0.1 (3bc2e813f5, 2020-09-07)">
  <sodipodi:namedview
     pagecolor="#ffffff"
     bordercolor="#666666"
     borderopacity="1"
     objecttolerance="10"
     gridtolerance="10"
     guidetolerance="10"
     inkscape:pageopacity="0"
     inkscape:pageshadow="2"
     inkscape:window-width="958"
     inkscape:window-height="1031"
     id="namedview71"
     showgrid="false"
     inkscape:zoom="0.7349537"
     inkscape:cx="396.85039"
     inkscape:cy="561.25984"
     inkscape:window-x="0"
     inkscape:window-y="25"
     inkscape:window-maximized="0"
     inkscape:current-layer="layer1"
     inkscape:document-rotation="0" />
  <defs
     id="defs2">
    <marker
       style="overflow:visible"
       id="marker1185"
       refX="0"
       refY="0"
       orient="auto">
      <path
         transform="matrix(-1.1,0,0,-1.1,-1.1,0)"
         d="M 8.7185878,4.0337352 -2.2072895,0.01601326 8.7185884,-4.0017078 c -1.7454984,2.3720609 -1.7354408,5.6174519 -6e-7,8.035443 z"
         style="fill:#000000;fill-opacity:1;fill-rule:evenodd;stroke:#000000;stroke-width:0.625;stroke-linejoin:round;stroke-opacity:1"
         id="path1183" />
    </marker>
    <marker
       style="overflow:visible"
       id="marker1181"
       refX="0"
       refY="0"
       orient="auto">
      <path
         transform="matrix(1.1,0,0,1.1,1.1,0)"
         d="M 8.7185878,4.0337352 -2.2072895,0.01601326 8.7185884,-4.0017078 c -1.7454984,2.3720609 -1.7354408,5.6174519 -6e-7,8.035443 z"
         style="fill:#000000;fill-opacity:1;fill-rule:evenodd;stroke:#000000;stroke-width:0.625;stroke-linejoin:round;stroke-opacity:1"
         id="path1179" />
    </marker>
    <marker
       style="overflow:visible"
       id="marker1177"
       refX="0"
       refY="0"
       orient="auto">
      <path
         transform="matrix(-1.1,0,0,-1.1,-1.1,0)"
         d="M 8.7185878,4.0337352 -2.2072895,0.01601326 8.7185884,-4.0017078 c -1.7454984,2.3720609 -1.7354408,5.6174519 -6e-7,8.035443 z"
         style="fill:#000000;fill-opacity:1;fill-rule:evenodd;stroke:#000000;stroke-width:0.625;stroke-linejoin:round;stroke-opacity:1"
         id="path1175" />
    </marker>
    <marker
       style="overflow:visible"
       id="marker1173"
       refX="0"
       refY="0"
       orient="auto">
      <path
         transform="matrix(1.1,0,0,1.1,1.1,0)"
         d="M 8.7185878,4.0337352 -2.2072895,0.01601326 8.7185884,-4.0017078 c -1.7454984,2.3720609 -1.7354408,5.6174519 -6e-7,8.035443 z"
         style="fill:#000000;fill-opacity:1;fill-rule:evenodd;stroke:#000000;stroke-width:0.625;stroke-linejoin:round;stroke-opacity:1"
         id="path1171" />
    </marker>
    <marker
       style="overflow:visible"
       id="Arrow2Lend"
       refX="0"
       refY="0"
       orient="auto">
      <path
         transform="matrix(-1.1,0,0,-1.1,-1.1,0)"
         d="M 8.7185878,4.0337352 -2.2072895,0.01601326 8.7185884,-4.0017078 c -1.7454984,2.3720609 -1.7354408,5.6174519 -6e-7,8.035443 z"
         style="fill:#000000;fill-opacity:1;fill-rule:evenodd;stroke:#000000;stroke-width:0.625;stroke-linejoin:round;stroke-opacity:1"
         id="path920" />
    </marker>
    <marker
       style="overflow:visible"
       id="Arrow2Lstart"
       refX="0"
       refY="0"
       orient="auto">
      <path
         transform="matrix(1.1,0,0,1.1,1.1,0)"
         d="M 8.7185878,4.0337352 -2.2072895,0.01601326 8.7185884,-4.0017078 c -1.7454984,2.3720609 -1.7354408,5.6174519 -6e-7,8.035443 z"
         style="fill:#000000;fill-opacity:1;fill-rule:evenodd;stroke:#000000;stroke-width:0.625;stroke-linejoin:round;stroke-opacity:1"
         id="path917" />
    </marker>
    <marker
       style="overflow:visible"
       id="Arrow1Lstart"
       refX="0"
       refY="0"
       orient="auto">
      <path
         transform="matrix(0.8,0,0,0.8,10,0)"
         style="fill:#000000;fill-opacity:1;fill-rule:evenodd;stroke:#000000;stroke-width:1.00000003pt;stroke-opacity:1"
         d="M 0,0 5,-5 -12.5,0 5,5 Z"
         id="path899" />
    </marker>
    <marker
       style="overflow:visible"
       id="Arrow2Mstart"
       refX="0"
       refY="0"
       orient="auto">
      <path
         transform="scale(0.6)"
         d="M 8.7185878,4.0337352 -2.2072895,0.01601326 8.7185884,-4.0017078 c -1.7454984,2.3720609 -1.7354408,5.6174519 -6e-7,8.035443 z"
         style="fill:#000000;fill-opacity:1;fill-rule:evenodd;stroke:#000000;stroke-width:0.625;stroke-linejoin:round;stroke-opacity:1"
         id="path923" />
    </marker>
    <marker
       style="overflow:visible"
       id="Arrow1Mend"
       refX="0"
       refY="0"
       orient="auto">
      <path
         transform="matrix(-0.4,0,0,-0.4,-4,0)"
         style="fill:#000000;fill-opacity:1;fill-rule:evenodd;stroke:#000000;stroke-width:1.00000003pt;stroke-opacity:1"
         d="M 0,0 5,-5 -12.5,0 5,5 Z"
         id="path908" />
    </marker>
    <marker
       style="overflow:visible"
       id="marker7497"
       refX="0"
       refY="0"
       orient="auto">
      <path
         transform="scale(-0.6)"
         d="M 8.7185878,4.0337352 -2.2072895,0.01601326 8.7185884,-4.0017078 c -1.7454984,2.3720609 -1.7354408,5.6174519 -6e-7,8.035443 z"
         style="fill:#000025;fill-opacity:1;fill-rule:evenodd;stroke:#000025;stroke-width:0.625;stroke-linejoin:round;stroke-opacity:1"
         id="path7495" />
    </marker>
    <marker
       style="overflow:visible"
       id="marker7379"
       refX="0"
       refY="0"
       orient="auto">
      <path
         transform="matrix(0.4,0,0,0.4,4,0)"
         style="fill:#000025;fill-opacity:1;fill-rule:evenodd;stroke:#000025;stroke-width:1.00000003pt;stroke-opacity:1"
         d="M 0,0 5,-5 -12.5,0 5,5 Z"
         id="path7377" />
    </marker>
    <marker
       orient="auto"
       refY="0"
       refX="0"
       id="marker5480"
       style="overflow:visible">
      <path
         id="path5478"
         style="fill:#000000;fill-opacity:1;fill-rule:evenodd;stroke:#000000;stroke-width:0.625;stroke-linejoin:round;stroke-opacity:1"
         d="M 8.7185878,4.0337352 -2.2072895,0.01601326 8.7185884,-4.0017078 c -1.7454984,2.3720609 -1.7354408,5.6174519 -6e-7,8.035443 z"
         transform="scale(-0.6)" />
    </marker>
    <marker
       orient="auto"
       refY="0"
       refX="0"
       id="marker5470"
       style="overflow:visible">
      <path
         id="path5468"
         style="fill:#000000;fill-opacity:1;fill-rule:evenodd;stroke:#000000;stroke-width:0.625;stroke-linejoin:round;stroke-opacity:1"
         d="M 8.7185878,4.0337352 -2.2072895,0.01601326 8.7185884,-4.0017078 c -1.7454984,2.3720609 -1.7354408,5.6174519 -6e-7,8.035443 z"
         transform="scale(-0.6)" />
    </marker>
    <marker
       orient="auto"
       refY="0"
       refX="0"
       id="marker5220"
       style="overflow:visible">
      <path
         id="path5218"
         d="M 0,0 5,-5 -12.5,0 5,5 Z"
         style="fill:#000000;fill-opacity:1;fill-rule:evenodd;stroke:#000000;stroke-width:1.00000003pt;stroke-opacity:1"
         transform="matrix(0.4,0,0,0.4,4,0)" />
    </marker>
    <marker
       orient="auto"
       refY="0"
       refX="0"
       id="marker5210"
       style="overflow:visible">
      <path
         id="path5208"
         d="M 0,0 5,-5 -12.5,0 5,5 Z"
         style="fill:#000000;fill-opacity:1;fill-rule:evenodd;stroke:#000000;stroke-width:1.00000003pt;stroke-opacity:1"
         transform="matrix(0.4,0,0,0.4,4,0)" />
    </marker>
    <marker
       orient="auto"
       refY="0"
       refX="0"
       id="marker5072"
       style="overflow:visible">
      <path
         id="path5070"
         d="M 0,0 5,-5 -12.5,0 5,5 Z"
         style="fill:#000000;fill-opacity:1;fill-rule:evenodd;stroke:#000000;stroke-width:1.00000003pt;stroke-opacity:1"
         transform="matrix(-0.8,0,0,-0.8,-10,0)" />
    </marker>
    <marker
       orient="auto"
       refY="0"
       refX="0"
       id="marker5014"
       style="overflow:visible">
      <path
         id="path5012"
         d="M 0,0 5,-5 -12.5,0 5,5 Z"
         style="fill:#000000;fill-opacity:1;fill-rule:evenodd;stroke:#000000;stroke-width:1.00000003pt;stroke-opacity:1"
         transform="matrix(-0.8,0,0,-0.8,-10,0)" />
    </marker>
    <marker
       orient="auto"
       refY="0"
       refX="0"
       id="marker4968"
       style="overflow:visible">
      <path
         id="path4966"
         d="M 0,0 5,-5 -12.5,0 5,5 Z"
         style="fill:#000000;fill-opacity:1;fill-rule:evenodd;stroke:#000000;stroke-width:1.00000003pt;stroke-opacity:1"
         transform="matrix(-0.8,0,0,-0.8,-10,0)" />
    </marker>
    <marker
       orient="auto"
       refY="0"
       refX="0"
       id="marker4884"
       style="overflow:visible">
      <path
         id="path4882"
         d="M 0,0 5,-5 -12.5,0 5,5 Z"
         style="fill:#000000;fill-opacity:1;fill-rule:evenodd;stroke:#000000;stroke-width:1.00000003pt;stroke-opacity:1"
         transform="matrix(0.8,0,0,0.8,10,0)" />
    </marker>
    <marker
       orient="auto"
       refY="0"
       refX="0"
       id="marker4856"
       style="overflow:visible">
      <path
         id="path4854"
         d="M 0,0 5,-5 -12.5,0 5,5 Z"
         style="fill:#000000;fill-opacity:1;fill-rule:evenodd;stroke:#000000;stroke-width:1.00000003pt;stroke-opacity:1"
         transform="matrix(0.8,0,0,0.8,10,0)" />
    </marker>
    <marker
       orient="auto"
       refY="0"
       refX="0"
       id="marker4834"
       style="overflow:visible">
      <path
         id="path4832"
         d="M 0,0 5,-5 -12.5,0 5,5 Z"
         style="fill:#000000;fill-opacity:1;fill-rule:evenodd;stroke:#000000;stroke-width:1.00000003pt;stroke-opacity:1"
         transform="matrix(0.8,0,0,0.8,10,0)" />
    </marker>
    <marker
       orient="auto"
       refY="0"
       refX="0"
       id="marker5220-5"
       style="overflow:visible">
      <path
         id="path5218-3"
         d="M 0,0 5,-5 -12.5,0 5,5 Z"
         style="fill:#000000;fill-opacity:1;fill-rule:evenodd;stroke:#000000;stroke-width:1.00000003pt;stroke-opacity:1"
         transform="matrix(0.4,0,0,0.4,4,0)" />
    </marker>
    <marker
       orient="auto"
       refY="0"
       refX="0"
       id="marker5480-5"
       style="overflow:visible">
      <path
         id="path5478-7"
         style="fill:#000000;fill-opacity:1;fill-rule:evenodd;stroke:#000000;stroke-width:0.625;stroke-linejoin:round;stroke-opacity:1"
         d="M 8.7185878,4.0337352 -2.2072895,0.01601326 8.7185884,-4.0017078 c -1.7454984,2.3720609 -1.7354408,5.6174519 -6e-7,8.035443 z"
         transform="scale(-0.6)" />
    </marker>
    <marker
       style="overflow:visible"
       id="marker1181-3"
       refX="0"
       refY="0"
       orient="auto">
      <path
         transform="matrix(1.1,0,0,1.1,1.1,0)"
         d="M 8.7185878,4.0337352 -2.2072895,0.01601326 8.7185884,-4.0017078 c -1.7454984,2.3720609 -1.7354408,5.6174519 -6e-7,8.035443 z"
         style="fill:#000000;fill-opacity:1;fill-rule:evenodd;stroke:#000000;stroke-width:0.625;stroke-linejoin:round;stroke-opacity:1"
         id="path1179-6" />
    </marker>
    <marker
       style="overflow:visible"
       id="marker1185-7"
       refX="0"
       refY="0"
       orient="auto">
      <path
         transform="matrix(-1.1,0,0,-1.1,-1.1,0)"
         d="M 8.7185878,4.0337352 -2.2072895,0.01601326 8.7185884,-4.0017078 c -1.7454984,2.3720609 -1.7354408,5.6174519 -6e-7,8.035443 z"
         style="fill:#000000;fill-opacity:1;fill-rule:evenodd;stroke:#000000;stroke-width:0.625;stroke-linejoin:round;stroke-opacity:1"
         id="path1183-5" />
    </marker>
    <marker
       style="overflow:visible"
       id="Arrow2Lstart-3"
       refX="0"
       refY="0"
       orient="auto">
      <path
         transform="matrix(1.1,0,0,1.1,1.1,0)"
         d="M 8.7185878,4.0337352 -2.2072895,0.01601326 8.7185884,-4.0017078 c -1.7454984,2.3720609 -1.7354408,5.6174519 -6e-7,8.035443 z"
         style="fill:#000000;fill-opacity:1;fill-rule:evenodd;stroke:#000000;stroke-width:0.625;stroke-linejoin:round;stroke-opacity:1"
         id="path917-5" />
    </marker>
    <marker
       style="overflow:visible"
       id="Arrow2Lend-6"
       refX="0"
       refY="0"
       orient="auto">
      <path
         transform="matrix(-1.1,0,0,-1.1,-1.1,0)"
         d="M 8.7185878,4.0337352 -2.2072895,0.01601326 8.7185884,-4.0017078 c -1.7454984,2.3720609 -1.7354408,5.6174519 -6e-7,8.035443 z"
         style="fill:#000000;fill-opacity:1;fill-rule:evenodd;stroke:#000000;stroke-width:0.625;stroke-linejoin:round;stroke-opacity:1"
         id="path920-2" />
    </marker>
  </defs>
  <metadata
     id="metadata5">
    <rdf:RDF>
      <cc:Work
         rdf:about="">
        <dc:format>image/svg+xml</dc:format>
        <dc:type
           rdf:resource="http://purl.org/dc/dcmitype/StillImage" />
        <dc:title></dc:title>
      </cc:Work>
    </rdf:RDF>
  </metadata>
  <g
     transform="translate(0.19510138,82.181594)"
     id="layer1">
    <path
       id="path75"
       style="fill:#000000;stroke-width:0.287251"
       d="m 66.87431,149.00827 c -9.611768,-1.04372 -19.546548,0.22648 -29.015484,-1.24264 -5.915062,-0.72118 -12.166812,-1.16668 -12.841579,-7.91737 -0.238545,-35.31047 1.464696,-70.596539 2.905951,-105.86615 -1.166161,-29.9310247 -2.753561,-59.894534 -2.12151,-89.847446 4.658814,-1.233592 10.171583,-1.477402 11.748317,-5.34589 9.58972,-0.484923 19.203426,-0.351416 28.793129,-0.864125 5.161108,-3.732636 15.224769,1.972741 22.295654,1.477566 4.947987,0.589441 11.629182,-3.019438 11.548812,4.02353 2.38816,2.484858 9.85545,-1.660241 9.06375,3.130008 0.62275,38.207776 -0.6842,76.43548 -2.5502,114.601012 1.6176,26.442197 2.66603,52.933445 2.85478,79.421695 -0.6188,6.6957 -7.32496,4.85835 -11.485977,7.39917 -10.12984,0.0779 -20.240849,0.8306 -30.355906,1.21407 l -0.840309,-0.18341 z m 0.869346,-1.85618 c -1.165141,-2.68859 4.564588,-6.58013 0.838719,-4.38006 1.148706,-8.91652 2.325511,-17.92575 4.355673,-26.67373 1.11975,-0.18795 -1.206296,10.58576 -1.587377,15.25682 -1.1211,9.20381 1.196785,-5.71316 1.630162,-8.46309 1.859304,-12.03238 3.972365,-24.424194 5.488737,-36.272298 0.801637,-2.920817 0.233203,-4.189117 -0.09863,-4.036239 0.430297,-4.445443 2.568733,-17.171436 2.198704,-17.151208 -1.081081,5.563058 -1.957525,13.862044 -3.110393,17.866729 0.460453,-7.697163 -1.239384,4.346382 -1.86219,7.546206 -0.570504,5.01101 -0.781742,-2.096358 -1.321552,3.583123 -0.548388,5.670657 -1.834984,12.154987 -2.465712,18.338217 -1.494801,11.85147 -3.246273,23.69845 -4.53173,35.55739 l 0.230346,0.15407 0.235109,-1.32593 z m 5.227977,-33.00779 c 0.237717,-1.74699 0.237717,1.74698 0,0 z m 0.591178,0 c 0.237676,-1.74699 0.237676,1.74698 0,0 z m -0.317508,-1.954 c 0.258669,-1.25821 0.258669,1.25821 0,0 z m 0.591176,0 c 0.258669,-1.25821 0.258669,1.25821 0,0 z m 0.602156,-14.375839 c 0.133164,-1.591876 0.285956,1.723723 0,0 z M 74.74517,95.72087 c 0.237717,-1.746977 0.237717,1.746977 0,0 z m 2.615075,-6.583117 c 0.19014,-1.075826 0.299993,1.270608 0,0 z m 0.329889,-1.930735 c 0.133164,-1.591862 0.28608,1.723724 0,0 z m 0.306535,-2.093577 c 0.237717,-1.746976 0.237717,1.746991 0,0 z m -5.459694,63.173639 c -2.531275,-0.11484 -0.792387,0.33969 0,0 z m 4.128706,-0.256 c -1.088249,-0.31657 -0.543027,0.48617 0,0 z m -19.355182,-0.31886 c -3.193178,-0.1502 -10.464913,0.10895 -3.325411,0.089 -0.06174,-0.0707 5.008507,0.10924 3.325411,-0.089 z m 23.056232,0.0238 c -1.627747,-0.45308 -0.295396,0.48859 0,0 z M 39.420985,147.4731 c -1.088228,-0.31657 -0.543052,0.48611 0,0 z m 37.479278,-0.22962 c 4.476928,-0.78371 10.646935,0.0936 14.329571,-1.24448 5.169469,-61.264027 8.58768,-122.682098 8.825996,-184.152995 -0.746599,-5.15967 1.69901,-13.68819 -1.356469,-16.95101 C 91.469604,11.338232 80.951826,77.40782 70.53831,143.45691 c -6.711947,6.39652 2.427683,3.64894 6.36197,3.78654 z m 8.639335,0.20586 c -2.289483,-0.43438 -0.439546,0.44902 0,0 z m 11.006314,-0.43564 c -0.697425,-1.12044 -1.347211,2.05858 0,0 z m -4.066767,0.11483 c -2.771173,-0.5149 -1.847329,0.81133 0,0 z M 67.684254,138.49975 C 76.117611,72.813369 84.868067,7.1265356 90.638592,-58.823898 83.568936,-59.407102 76.6354,-60.905819 69.611842,-61.768658 58.228283,5.888516 47.802086,73.718325 39.403665,141.76805 c -3.03606,8.57398 10.657819,4.1225 15.85084,5.26899 3.771632,0.0158 7.543261,0.0312 11.314847,0.0462 0.371628,-2.86122 0.743263,-5.72243 1.114902,-8.58364 z m -29.069975,8.02535 c -0.729023,-0.99438 -0.357467,1.02061 0,0 z m 57.812657,-1.954 c 1.784399,-4.25757 0.815022,-9.1138 1.443861,-13.62258 1.414259,-25.29024 2.528163,-50.657514 4.173283,-75.892731 3.258,4.13152 -0.14828,13.249001 0.46563,19.297574 -0.46268,10.058592 -1.21128,20.120252 -1.39936,30.180277 4.9709,-52.849989 6.87674,-105.9405468 6.67256,-158.991408 -2.30832,0.506867 -7.30076,-1.538303 -6.13297,2.273587 -0.0406,49.4867307 -1.43796,98.975389 -4.982514,148.355486 -1.229714,16.779235 -2.336694,33.574865 -4.010211,50.319375 1.768388,0.21088 3.549169,0.35225 3.769721,-1.91958 z m 3.023727,1.28935 c 0.428463,-0.80454 -1.828122,1.50474 0,0 z m -62.394407,0.49602 c -1.088228,-0.31662 -0.543047,0.4861 0,0 z m 60.967635,-0.45944 c -0.228237,-1.46206 -0.864341,2.04115 0,0 z m -64.360787,0.16405 c -1.627798,-0.45308 -0.295439,0.48855 0,0 z m 58.35364,-0.72233 c -0.517358,0.27896 0.479741,1.53718 0,0 z m -61.759116,0.45944 c -1.088223,-0.31657 -0.543047,0.48611 0,0 z m 7.003431,-0.87811 c -1.08366,-7.82994 1.473093,-15.78849 1.905709,-23.65531 C 46.624883,60.491936 56.353535,-0.00556072 66.022781,-60.489854 57.022223,-60.02718 48.005965,-60.031477 38.99408,-60.040576 31.395971,6.3824635 27.107286,73.151066 26.71975,139.9653 c 1.395633,1.97448 1.245347,5.96945 4.715719,5.2323 1.515664,-0.24804 5.794912,1.4605 5.82559,-0.2775 z m 62.745791,-1.11128 c -0.507318,-0.32456 0.36661,2.29529 0,0 z m 6.83537,-1.26146 c 1.81695,-3.72922 -0.0141,-8.01998 0.14973,-12.00346 -0.90759,-11.73438 -1.63558,-23.48331 -2.65857,-35.207858 -1.42641,16.063208 -3.22614,32.138378 -2.39211,48.277068 -0.37337,1.85507 5.5373,1.39646 4.90108,-1.06575 z m -7.72509,1.13402 c -0.506864,-0.47994 0.255231,1.56059 0,0 z m -61.082428,-1.62263 c -1.021294,-2.05456 -0.404297,2.14627 0,0 z m 54.277657,-0.0698 c -0.517357,0.27897 0.479732,1.53719 0,0 z m 7.026443,-0.1994 c 0.36989,-3.97786 0.819378,-8.53168 1.297078,-6.90692 0.64333,-15.20182 2.06925,-30.38696 3.46772,-45.550012 0.76862,2.112084 1.28883,8.364558 1.6072,13.664982 0.38297,4.13965 0.57912,9.90733 1.14331,13.09743 -0.42164,-12.28958 -2.00195,-24.563208 -2.20008,-36.844099 0.33672,-3.102683 0.38343,-10.265804 1.10421,-10.862666 0.55816,1.927136 0.16249,-9.509282 0.38389,-12.00448 0.80615,-17.81936 1.72672,-35.639337 1.89312,-53.4777739 -1.39174,42.2203009 -4.16177,84.3986889 -8.379045,126.4517189 -0.288561,-6.60968 -0.616347,-0.12242 -1.101614,3.22021 0.523514,1.29915 -1.972661,13.22595 0.784221,9.21161 z m -61.113773,-0.8997 c -0.547048,-0.56862 0.296722,1.63383 0,0 z m 0.591179,0 c -0.506791,-0.47993 0.255191,1.56056 0,0 z m 31.335758,-0.70998 c -0.507235,-0.32453 0.366659,2.29527 0,0 z m 30.147554,0.15169 c -0.50686,-0.47994 0.25523,1.5606 0,0 z m 8.4291,-7.20537 c -0.36037,-2.58945 0.10571,-16.66922 -0.55415,-7.67643 -0.11519,5.15543 -0.99938,-2.4435 -0.50508,4.0742 0.1561,3.57874 1.07453,16.89842 1.16384,6.52154 l -0.0433,-1.36693 -0.0613,-1.55238 z m -82.622909,6.92624 c -0.547043,-0.56864 0.296722,1.63381 0,0 z m 66.502254,-1.41323 c -0.517437,0.27895 0.479831,1.53718 0,0 z M 70.44757,138.22579 c -0.507313,-0.32452 0.3667,2.29528 0,0 z m -31.335758,0.1517 c -0.547047,-0.56862 0.296681,1.63382 0,0 z M 26.765646,94.88358 c 1.215732,-41.830514 4.397651,-83.579746 8.141185,-125.265418 0.173619,-3.741684 0.809746,-6.565802 0.84473,-10.395082 1.81923,-5.707558 1.233231,-15.309623 2.546361,-19.194025 1.363016,-1.335058 9.986935,-0.415749 10.438192,-0.77 -4.120668,-0.06232 -12.426772,-0.799191 -11.583086,1.956358 -0.91677,-0.241498 -1.167248,11.485436 -1.745939,15.216968 -0.350924,4.872879 -0.538431,8.222502 -1.24087,12.233465 -1.949298,19.523473 -3.326123,39.1055614 -4.905197,58.648241 -0.653219,-7.657736 -0.47377,8.780978 -0.697947,11.815549 -1.611027,30.996004 -2.667368,62.017824 -2.574322,93.055144 -0.0095,2.16312 -0.06008,8.22221 0.007,2.81911 0.195608,-13.37441 0.365293,-26.74971 0.769586,-40.12031 z M 70.74317,136.2718 c -0.507264,-0.32456 0.366617,2.29528 0,0 z m -32.518141,-0.12745 c -0.547048,-0.56862 0.296722,1.63383 0,0 z m 1.182363,-0.27915 c -0.547049,-0.56862 0.296721,1.63383 0,0 z m 53.496149,-0.85486 c -0.517358,0.27903 0.479731,1.53718 0,0 z m -54.382933,-1.37823 c -0.547047,-0.56863 0.296722,1.63382 0,0 z m 54.687593,-2.10572 c -0.507304,-0.32449 0.366742,2.29527 0,0 z m -54.391993,-0.40658 c -0.506791,-0.47994 0.255191,1.56055 0,0 z m 1.182358,0 c -0.547043,-0.56862 0.296722,1.63384 0,0 z m 0.295604,-2.51229 c -0.547043,-0.56862 0.296722,1.63383 0,0 z m 53.209637,-0.70998 c -0.507264,-0.3245 0.366662,2.29529 0,0 z m -54.096415,-1.52327 c -0.547049,-0.56863 0.296721,1.63383 0,0 z m 59.719942,-2.66548 c -0.436688,0.64171 0.419748,3.06303 0,0 z m -5.327931,0.55978 c -0.507304,-0.32457 0.366662,2.29527 0,0 z m 5.902793,0.13418 c -0.517458,0.27895 0.479834,1.53719 0,0 z m 7.704944,-2.09356 c -0.33771,2.74259 0.2749,2.80008 0,0 z m -67.704149,1.55271 c -0.506792,-0.47994 0.25519,1.56058 0,0 z m 1.182358,0 c -0.547047,-0.56862 0.296722,1.63384 0,0 z m 31.031103,-0.29657 c -0.517438,0.27895 0.479823,1.53719 0,0 z m 36.068448,0.29657 c -0.50683,-0.47994 0.25523,1.5606 0,0 z m -0.007,-1.41315 c -0.51734,0.27896 0.47975,1.53718 0,0 z m -35.766738,-0.83743 c -0.517337,0.27895 0.479758,1.5372 0,0 z M 39.99872,121.34961 c -0.547068,-0.56862 0.296722,1.63384 0,0 z m 54.087384,-0.85486 c -0.517337,0.27896 0.479752,1.53718 0,0 z m 13.025636,-2.37271 c -0.33763,2.7426 0.27489,2.80006 0,0 z m -34.596009,1.39571 c -0.47555,0.41513 0.460052,2.16208 0,0 z m 26.907289,-1.39189 c -0.436688,0.64171 0.419748,3.06302 0,0 z m -57.946437,0.99065 c -0.506813,-0.47994 0.255191,1.56055 0,0 z m 31.334649,-1.55276 c -0.475455,0.41514 0.460001,2.1621 0,0 z m 21.579383,-0.8321 c -0.507314,-0.32449 0.366661,2.2953 0,0 z m -52.618457,0.15173 c -0.547044,-0.56862 0.296723,1.63384 0,0 z m -1.182398,-0.2791 c -0.506792,-0.47996 0.255191,1.56055 0,0 z m 59.128366,-4.34418 c -0.436238,0.67204 0.431324,3.40669 0,0 z m -5.031945,0.56359 c -0.507314,-0.32456 0.366611,2.29528 0,0 z m 13.606239,-1.5406 c -0.42281,0.7982 0.41959,4.028 0,0 z m -67.111477,0.57569 c -0.547047,-0.56863 0.296722,1.63381 0,0 z m 59.414117,0 c -0.50679,-0.47988 0.25532,1.56055 0,0 z m 6.80156,-1.82657 c -0.50729,-0.32453 0.36674,2.29526 0,0 z m -64.737719,-0.12744 c -0.547043,-0.56862 0.296722,1.63382 0,0 z m -1.182358,-0.27912 c -0.506813,-0.47994 0.255191,1.56056 0,0 z m 53.505193,-0.70998 c -0.507294,-0.32449 0.366742,2.29529 0,0 z m 5.031964,-2.23845 c -0.436236,0.67202 0.43131,3.40669 0,0 z m 0.88719,0.28299 c -0.43669,0.64169 0.41975,3.06301 0,0 z m -57.946385,0.71146 c -0.547072,-0.56863 0.296722,1.63383 0,0 z m 64.107425,-6.29816 c -0.34468,-8.817469 -0.84189,-17.629552 -1.13147,-26.448788 -1.10707,10.431384 0.64507,20.964022 1.21723,31.403558 0.0679,-1.65203 -0.0319,-3.30392 -0.0858,-4.95477 z m -63.811845,4.06501 c -0.506793,-0.47994 0.255191,1.56057 0,0 z m 52.026178,-0.71526 c -0.475444,0.41512 0.459983,2.16209 0,0 z m 12.718457,-2.23315 c -0.43624,0.67204 0.43132,3.40669 0,0 z m -64.449035,0.7153 c -0.547049,-0.56862 0.296722,1.63383 0,0 z m -1.182384,-0.55827 c -0.506787,-0.47994 0.255191,1.56056 0,0 z m 57.942879,-1.41316 c -0.452668,0.54474 0.44449,2.78485 0,0 z m -4.734331,-0.69787 c -0.475454,0.41514 0.459983,2.1621 0,0 z m -51.730585,0.43619 c -0.547048,-0.56862 0.296722,1.63383 0,0 z m -1.182334,-0.55828 c -0.547043,-0.568626 0.296722,1.63382 0,0 z m 1.477966,-1.674848 c -0.506791,-0.479953 0.255191,1.560548 0,0 z m -1.182362,-0.558284 c -0.547072,-0.568621 0.296722,1.633826 0,0 z m 52.912921,-1.831889 c -0.475444,0.41514 0.459993,2.162088 0,0 z m 4.734815,-0.415427 c -0.49485,-0.297886 0.39175,3.004372 0,0 z m 7.09723,-0.976406 c -0.43659,0.641705 0.41968,3.063001 0,0 z m -64.449405,0.990599 c -0.506789,-0.479938 0.255191,1.560552 0,0 z m 0.295604,-2.233151 c -0.547044,-0.568621 0.296722,1.633852 0,0 z M 96.16413,92.167208 c -0.507264,-0.32458 0.366612,2.295268 0,0 z M 43.841274,91.481491 c -0.547044,-0.568635 0.296722,1.633823 0,0 z M 100.89785,90.35073 c -0.4948,-0.297929 0.39175,3.004324 0,0 z M 45.31924,90.085788 c -0.547022,-0.568621 0.296722,1.633837 0,0 z m 29.559306,-0.55827 c -0.506862,-0.479938 0.255191,1.560624 0,0 z m 0.593,-0.71532 c -0.47545,0.41514 0.459986,2.162102 0,0 z m -31.334669,0.436199 c -0.506791,-0.479938 0.255191,1.560567 0,0 z m 63.264013,-1.130761 c -0.49487,-0.297958 0.39176,3.004367 0,0 z M 96.458616,87.416523 c -0.475453,0.415126 0.460004,2.162103 0,0 z m -20.69038,-0.832115 c -0.507309,-0.324536 0.366699,2.295269 0,0 z m 25.425214,-1.816491 c -0.49488,-0.297958 0.39175,3.004352 0,0 z m -25.723725,0.01434 c -0.506858,-0.479953 0.255233,1.560581 0,0 z m 0.585009,-0.296568 c -0.517342,0.279035 0.479757,1.537185 0,0 z M 46.206018,83.665713 c -0.547043,-0.568635 0.296723,1.633823 0,0 z m 50.548194,-0.715478 c -0.475444,0.415126 0.460014,2.162088 0,0 z M 75.765324,82.549187 c -0.506857,-0.479938 0.255191,1.560624 0,0 z m 31.339966,-0.851611 c -0.49479,-0.297887 0.39176,3.004324 0,0 z M 79.018651,80.717055 c -0.475452,0.415111 0.460009,2.162088 0,0 z M 45.31924,80.595056 c -0.547022,-0.568634 0.296722,1.633809 0,0 z m 56.16981,-1.40991 c -0.49487,-0.297886 0.39176,3.004353 0,0 z M 79.314255,78.76301 c -0.475451,0.415112 0.460005,2.162074 0,0 z m 17.74089,-0.694604 c -0.494852,-0.297973 0.391746,3.004352 0,0 z M 78.131892,77.367278 c -0.475451,0.41514 0.459986,2.162088 0,0 z m -1.775384,0.436128 c -0.506862,-0.479938 0.255232,1.560595 0,0 z m 3.254435,-0.989122 c -0.507259,-0.32458 0.36662,2.295269 0,0 z M 106.8044,75.971532 c -0.47546,0.415125 0.45997,2.162088 0,0 z M 78.427492,75.413248 c -0.475447,0.415139 0.459985,2.162102 0,0 z m -1.775384,0.157078 c -0.506862,-0.479938 0.255191,1.560624 0,0 z m 3.25441,-0.709987 c -0.507238,-0.324494 0.366661,2.295269 0,0 z m 21.878092,-1.258207 c -0.49477,-0.297886 0.39174,3.004338 0,0 z m -55.578592,0.572491 c -0.547043,-0.56862 0.296723,1.633823 0,0 z m 31.924027,0 c -0.506833,-0.479924 0.255232,1.560595 0,0 z M 78.72416,73.7438 c -0.50726,-0.324566 0.366617,2.295254 0,0 z m 18.621234,-0.563603 c -0.475444,0.41514 0.460003,2.162088 0,0 z M 76.947667,73.058055 c -0.506792,-0.479939 0.255232,1.560595 0,0 z m 3.245372,-0.296568 c -0.517361,0.278949 0.479731,1.537185 0,0 z M 79.01068,71.644904 c -0.51743,0.278949 0.479827,1.537185 0,0 z M 47.979586,71.104081 c -0.547049,-0.568635 0.296721,1.633823 0,0 z m 32.509059,-0.296582 c -0.517368,0.278963 0.479731,1.537185 0,0 z m 26.020145,-0.418738 c -0.47545,0.415126 0.45998,2.162088 0,0 z m -29.265523,0.436128 c -0.506838,-0.479938 0.255232,1.560581 0,0 z M 46.797223,69.987427 c -0.506813,-0.479924 0.255191,1.560566 0,0 z m 32.509036,-0.296568 c -0.517359,0.278949 0.479728,1.537199 0,0 z m 18.340058,-1.671598 c -0.494842,-0.297929 0.391756,3.004353 0,0 z m 4.433903,0 c -0.49486,-0.297929 0.39176,3.004353 0,0 z m -23.063391,0.01434 c -0.506833,-0.479938 0.255232,1.560595 0,0 z m 0.585033,-0.296568 c -0.517366,0.278949 0.479727,1.537199 0,0 z m -31.031098,-0.82022 c -0.506792,-0.479952 0.255191,1.560553 0,0 z M 77.834449,66.07938 c -0.506791,-0.479938 0.255232,1.560595 0,0 z M 47.388402,65.800173 c -0.547047,-0.56862 0.296722,1.633824 0,0 z m 30.741643,-2.233137 c -0.506833,-0.479938 0.255232,1.560581 0,0 z M 97.941922,62.71541 c -0.494851,-0.297929 0.391756,3.004353 0,0 z m 4.433908,-0.279163 c -0.49486,-0.297915 0.39175,3.004367 0,0 z M 81.087822,62.014254 c -0.475454,0.415126 0.459983,2.162103 0,0 z m -1.184213,-0.122142 c -0.50686,-0.479938 0.255231,1.560595 0,0 z M 47.979586,61.612991 c -0.547049,-0.56862 0.296721,1.633824 0,0 z m 30.446063,-0.279149 c -0.506837,-0.479953 0.255191,1.56061 0,0 z m 2.957749,-1.27359 c -0.475454,0.415126 0.459983,2.162088 0,0 z m -2.66217,-1.238696 c -0.506787,-0.479953 0.255233,1.560595 0,0 z m 2.957765,-0.71532 c -0.475453,0.415126 0.459984,2.162088 0,0 z m 16.558036,-1.256028 c -0.452678,0.544751 0.444493,2.784869 0,0 z m 4.434351,0.0029 c -0.49477,-0.297915 0.39176,3.004324 0,0 z m -20.696781,-0.97996 c -0.475454,0.415118 0.459984,2.162086 0,0 z m -1.184202,-0.122114 c -0.506864,-0.479938 0.255231,1.560594 0,0 z M 48.866368,55.471965 c -0.547047,-0.568614 0.296722,1.633824 0,0 z M 82.270175,53.91923 c -0.475444,0.415132 0.459984,2.162101 0,0 z m -2.957742,0.156999 c -0.506838,-0.479941 0.255191,1.560622 0,0 z m 3.253348,-2.111005 c -0.475454,0.415119 0.459983,2.162065 0,0 z m 15.966853,-0.976902 c -0.452678,0.544757 0.444494,2.784861 0,0 z m -18.924622,0.575737 c -0.506788,-0.47995 0.255232,1.560589 0,0 z m 0.886779,0 c -0.506854,-0.47995 0.255231,1.560589 0,0 z m 3.5471,-0.558283 c -0.506834,-0.47995 0.255231,1.56059 0,0 z M 50.929356,50.430039 c -0.517363,0.278955 0.479757,1.537208 0,0 z m 31.93311,-0.413373 c -0.507284,-0.32457 0.366622,2.295267 0,0 z m -2.078225,-0.703277 c -0.517358,0.279035 0.479741,1.537198 0,0 z m 0.892934,0.296576 c -0.506855,-0.479938 0.255231,1.56059 0,0 z M 51.23402,48.620836 c -0.507243,-0.324571 0.366617,2.295203 0,0 z m 31.914948,-0.424037 c -0.517348,0.278956 0.479751,1.537189 0,0 z m 0.193699,-7.118142 c 4.748152,-33.1755038 9.510985,-66.363679 13.114031,-99.668988 -7.025993,-2.805971 -3.891696,11.048832 -5.57089,15.757203 -2.927726,30.392052 -6.463563,60.727296 -10.001639,91.060028 2.56822,1.218669 1.641867,-5.932915 2.458498,-7.148243 z m -33.293828,6.298168 c -0.547049,-0.568633 0.296722,1.633824 0,0 z m 1.479808,-0.994452 c -0.475455,0.415123 0.460027,2.16209 0,0 z m 28.670678,0.436181 c -0.50686,-0.47993 0.255191,1.560634 0,0 z m 18.632523,-2.107181 c -0.436618,0.641716 0.419659,3.063014 0,0 z M 51.824247,44.428371 c -0.475475,0.415119 0.460006,2.162077 0,0 z m 28.670664,-0.122113 c -0.506864,-0.479938 0.255231,1.560589 0,0 z M 52.119826,42.474377 c -0.475446,0.415131 0.460035,2.162088 0,0 z m 33.104569,0.436129 c -0.506834,-0.479943 0.255231,1.560585 0,0 z m -4.433888,-1.116567 c -0.506854,-0.479941 0.255231,1.560591 0,0 z m -28.374108,-1.26822 c -0.507234,-0.32457 0.366617,2.2952 0,0 z m 46.710535,-2.796736 c -0.436238,0.672031 0.431312,3.406677 0,0 z m -46.41602,0.55828 c -0.475472,0.415122 0.460011,2.162083 0,0 z m 31.922159,-0.122114 c -0.506784,-0.479878 0.255271,1.560558 0,0 z m -31.62658,-1.83185 c -0.475451,0.415123 0.460031,2.162088 0,0 z m 28.375076,0.715302 c -0.506855,-0.479937 0.255241,1.560586 0,0 z m 4.729493,-0.279154 c -0.506864,-0.479934 0.255231,1.560591 0,0 z M 53.302093,34.379285 c -0.475471,0.415122 0.460006,2.162085 0,0 z m 28.375082,0.156999 c -0.506855,-0.479942 0.255231,1.560583 0,0 z M 53.597698,32.425258 c -0.475476,0.415132 0.460005,2.16209 0,0 z M 81.97273,32.023971 c -0.506794,-0.47988 0.255271,1.560562 0,0 z m 17.44981,-1.552735 c -0.436238,0.672027 0.431311,3.406694 0,0 z m -45.529263,0 c -0.475455,0.415123 0.460005,2.162092 0,0 z m 33.104573,0.156999 c -0.506864,-0.479942 0.255231,1.560591 0,0 z m -1.182393,-0.558283 c -0.506855,-0.479937 0.255231,1.560595 0,0 z m -3.547121,-0.558274 c -0.506834,-0.479947 0.255271,1.560585 0,0 z M 60.235045,-9.2369179 c 1.426257,-8.2014711 2.568032,-17.6394691 3.80569,-25.1228591 0.536352,-4.195359 -1.555729,4.072175 -0.607924,-0.991434 0.425021,-4.150806 2.596131,-16.318647 2.000856,-15.926367 -2.53395,15.349161 -5.155269,31.420125 -7.260551,46.3963766 -0.736947,1.7041611 -0.337672,6.2426378 0.473063,0.7519312 C 57.386521,6.8039685 55.5136,17.66767 54.121069,28.586936 56.316724,16.006521 58.167581,3.365865 60.235045,-9.2369179 Z m -1.451872,3.9079968 c 0.237717,-1.7469768 0.237717,1.7469824 0,0 z m 0.2737,-1.9539934 c 0.258669,-1.2582103 0.258669,1.2582046 0,0 z m 0.27225,-2.1168352 c 0.190141,-1.0758053 0.299787,1.2705321 0,0 z m 3.274845,-20.4937433 c 0.258669,-1.258206 0.258669,1.258209 0,0 z m 0.306535,-1.814421 c 0.133165,-1.591872 0.285957,1.723742 0,0 z m 19.653409,58.707231 c -0.506844,-0.479938 0.255271,1.56059 0,0 z m 5.02509,-0.55828 c -0.506864,-0.479934 0.255231,1.560587 0,0 z m -59.111404,-1.96819 c -0.494774,-0.297961 0.39171,3.004254 0,0 z m 54.38191,0.01419 c -0.506784,-0.479875 0.255321,1.560563 0,0 z m 16.860707,-2.250593 c -0.422797,0.798202 0.419585,4.028019 0,0 z m -13.017971,1.692399 c -0.506864,-0.479937 0.255231,1.560591 0,0 z m -3.54713,-1.953998 c -0.506834,-0.479943 0.255231,1.560585 0,0 z M 30.047633,7.3720843 c 1.609492,-21.2714573 3.642232,-42.5194783 5.750047,-63.7456413 -6.1745,0.08458 -10.723879,1.886302 -8.641773,8.400529 0.326368,22.639671 0.658328,45.2985352 1.912514,67.906548 0.358999,-4.184759 0.659203,-8.373901 0.979212,-12.5614357 z M 28.182019,18.331699 c -0.4948,-0.297962 0.391668,3.004248 0,0 z m 55.268701,0.851619 c -0.506845,-0.479941 0.255231,1.560586 0,0 z m 0.295566,-2.512285 c -0.506795,-0.479879 0.255231,1.56057 0,0 z m 5.320665,-0.837429 c -0.506784,-0.479878 0.255241,1.560571 0,0 z m 10.950369,-2.948446 c -0.33763,2.742609 0.27486,2.800063 0,0 z m -15.975429,1.273589 c -0.506834,-0.479941 0.255231,1.560591 0,0 z M 27.889472,11.493441 c -0.436641,0.641654 0.4197,3.062979 0,0 z m 56.448025,0.153199 c -0.506834,-0.479939 0.255231,1.560589 0,0 z m 4.138282,-0.279154 c -0.506834,-0.479934 0.255271,1.560583 0,0 z M 56.250026,9.9543239 c -0.517367,0.2789561 0.479758,1.5372011 0,0 z M 84.633073,8.8551997 c -0.506784,-0.4798739 0.255271,1.5605663 0,0 z M 56.545626,8.0002261 c -0.517363,0.2789558 0.479753,1.5371858 0,0 z M 89.066961,7.1802409 c -0.506784,-0.4798824 0.255281,1.560558 0,0 z m 1.182384,0 c -0.506835,-0.4799427 0.255231,1.5605895 0,0 z M 56.85029,5.9119653 c -0.507243,-0.3245698 0.366617,2.2952029 0,0 z m 28.078389,0.4308263 c -0.506834,-0.479934 0.255231,1.560591 0,0 z M 27.59349,3.9526333 c -0.436188,0.6720312 0.431266,3.4066892 0,0 z m 62.95146,0.9944506 c -0.506844,-0.4799455 0.255231,1.5605867 0,0 z m 9.76862,-3.0964438 c -0.319076,3.5776093 0.26625,3.0935809 0,0 z M 57.145889,3.9579462 c -0.507239,-0.3245699 0.366618,2.2952 0,0 z m 28.07224,-0.4240397 c -0.517368,0.2789557 0.479761,1.5371933 0,0 z m 5.622397,-0.8199824 c -0.506784,-0.4798781 0.255231,1.5605666 0,0 z M 57.441469,2.00396 c -0.507243,-0.3245698 0.366617,2.2951957 0,0 z m 50.858041,-9.2012761 c -0.25388,0.355534 0.012,11.4075388 0.0385,3.2454301 l -0.01,-1.7192253 z M 85.519861,1.039103 c -0.506795,-0.47994122 0.255231,1.5605551 0,0 z M 57.73598,0.04465228 c -0.475451,0.4151227 0.460031,2.16208372 0,0 z m 33.400142,0.436188 c -0.506854,-0.4799384017 0.255231,1.56058952 0,0 z M 90.249345,-1.4731545 c -0.506835,-0.4799427 0.255231,1.56057808 0,0 z m -4.433888,-0.2791536 c -0.506855,-0.4799427 0.255231,1.56058666 0,0 z m 5.616271,0 c -0.506854,-0.4799427 0.255231,1.56058666 0,0 z M 27.300396,-4.5562115 c -0.422164,0.7723398 0.410218,3.68048401 0,0 z m 63.244554,0.8498814 c -0.506844,-0.4799384 0.255231,1.5605895 0,0 z m 1.182364,-0.2791536 c -0.506794,-0.4799384 0.255231,1.5605623 0,0 z m -5.616252,-0.2791536 c -0.506864,-0.4799383 0.255231,1.5605896 0,0 z m 5.31452,-1.9714445 c -0.517368,0.2789558 0.479761,1.5371891 0,0 z m 0.597328,0.017418 c -0.506865,-0.4799384 0.255231,1.5605896 0,0 z m -5.616272,-0.837465 c -0.506794,-0.4798739 0.255271,1.5605666 0,0 z m 5.31454,-1.4131574 c -0.517428,0.2789557 0.479831,1.5371933 0,0 z m 0.597338,0.017418 c -0.506865,-0.4799412 0.255231,1.560591 0,0 z m 8.293524,-4.4837328 c -0.30476,4.6062749 0.2491,4.6346931 0,0 z m -13.909796,3.088018 c -0.506864,-0.479943 0.255231,1.5605852 0,0 z m 5.31452,-0.854895 c -0.517368,0.278956 0.479731,1.5371965 0,0 z m -65.010863,-4.047248 c -0.337674,2.742609 0.27486,2.800067 0,0 z m 59.991949,2.11102 c -0.506864,-0.479938 0.255231,1.560591 0,0 z m 4.723328,-0.296576 c -0.517428,0.278956 0.479831,1.537182 0,0 z m 0.597338,0.296576 c -0.506865,-0.479938 0.255231,1.560591 0,0 z m 16.276634,-11.881021 c -0.25117,1.189451 0.0191,13.182447 0.0377,3.838216 0,-1.279476 -0.01,-2.558985 -0.0377,-3.838216 z m -16.570421,9.490859 c -0.475454,0.415131 0.459983,2.162092 0,0 z m 0.596528,-0.136249 c -0.494852,-0.297922 0.391746,3.00436 0,0 z m -5.333967,-0.282401 c -0.517428,0.278956 0.479831,1.537185 0,0 z m 5.918003,0.01742 c -0.506854,-0.479946 0.255231,1.560586 0,0 z m -0.884959,-1.831876 c -0.475453,0.415127 0.459984,2.162092 0,0 z m 0.525403,-0.758344 c -1.125149,-5.544532 0.514929,5.857538 0,0 z m -5.262891,-0.21865 c -0.517328,0.278956 0.479761,1.537201 0,0 z m 6.030943,-1.589092 c 1.521902,-11.654666 2.991616,-24.3766 4.514887,-36.458047 2.034854,-1.373661 -1.863629,-7.539819 -0.998658,-1.461358 -1.088762,12.297871 -3.296456,24.534151 -4.059871,36.832057 -0.629568,-2.28994 -0.04097,4.55715 0.543642,1.087348 z m -0.25722,-3.784405 c 0.132667,-1.591915 0.286861,1.723739 0,0 z m 0.284633,-2.093575 c 0.258668,-1.258209 0.258668,1.25821 0,0 z m -5.756604,4.693095 c -0.506855,-0.479945 0.255241,1.560587 0,0 z m 0.295566,-2.791435 c -0.506785,-0.479879 0.255271,1.560566 0,0 z m -61.467262,-4.484091 c -0.31548,3.862834 0.257634,3.898997 0,0 z m 61.762877,1.692307 c -0.506834,-0.479941 0.255271,1.560582 0,0 z m 0.28944,-3.088026 c -0.517348,0.278956 0.479751,1.537189 0,0 z m 15.903091,-25.332212 c 3.91532,-2.467455 4.22797,4.504834 3.87873,1.846051 0.89345,-3.520011 -4.13267,-1.500927 -6.34867,-2.111382 -3.186504,-0.322868 -0.72155,4.775127 -1.47004,6.790801 0.034,5.873466 0.0679,11.746929 0.10194,17.620383 0.0535,-8.048609 0.10692,-16.097232 0.16058,-24.145853 1.22581,0 2.45204,0 3.67759,0 z m -15.601349,22.558231 c -0.506794,-0.479879 0.255231,1.560562 0,0 z m 0.28943,-3.088011 c -0.517338,0.279035 0.479761,1.537189 0,0 z m -25.117379,-2.372717 c -0.475451,0.415127 0.459985,2.162085 0,0 z m 25.419131,-0.401288 c -0.506834,-0.479946 0.255241,1.560579 0,0 z m -25.122442,-1.547286 c -0.50726,-0.324491 0.366617,2.295259 0,0 z m 0.588247,-0.127504 c -0.506833,-0.479938 0.255191,1.560618 0,0 z m -0.301733,-1.692311 c -0.517428,0.278956 0.479832,1.537189 0,0 z m 25.131534,0.296576 c -0.506795,-0.479878 0.255271,1.560567 0,0 z m -24.835954,-2.250563 c -0.517338,0.278956 0.479761,1.537193 0,0 z m -38.551586,-7.929517 c -0.314319,-11.556495 -0.446242,13.515202 -0.05205,2.461817 l 0.02567,-1.153074 z m 63.676989,7.092112 c -0.517367,0.279035 0.479751,1.537201 0,0 z m 0.295596,-3.070572 c -0.517357,0.278955 0.479761,1.537201 0,0 z m 0.301732,-3.053123 c -0.506784,-0.479874 0.255281,1.560566 0,0 z m -24.827935,-3.785862 c -0.475456,0.415127 0.45998,2.162084 0,0 z m 25.117375,0.418741 c -0.517358,0.278956 0.479761,1.537182 0,0 z m -24.821771,-2.37272 c -0.475547,0.415127 0.460051,2.162088 0,0 z m 25.117377,-0.697852 c -0.517358,0.278995 0.479761,1.537192 0,0 z m -24.821823,-1.256147 c -0.475451,0.415123 0.460006,2.162092 0,0 z m 0.296681,-1.669547 c -0.507289,-0.324531 0.36674,2.295279 0,0 z m 23.953698,0.314552 c -1.088242,-0.316611 -0.542992,0.486111 0,0 z m -2.660303,-0.279152 c -1.088282,-0.316612 -0.543032,0.486107 0,0 z M 60.70985,-61.070703 c -2.289505,-0.434383 -0.439572,0.448966 0,0 z m 6.542641,-0.57523 c -1.50206,-0.380916 -3.577255,1.280408 0,0 z m 1.589882,-1.256146 c -2.623233,-1.693139 0.707453,4.293299 0,0 z" />
    <text
       xml:space="preserve"
       style="font-size:47.4289px;line-height:1.25;font-family:sans-serif;letter-spacing:0px;word-spacing:0px;stroke-width:1.18572"
       x="46.05183"
       y="201.73468"
       id="text16"
       transform="scale(1.0169499,0.98333262)"><tspan
         sodipodi:role="line"
         id="tspan14"
         x="46.05183"
         y="201.73468"
         style="font-style:normal;font-variant:normal;font-weight:normal;font-stretch:normal;font-size:47.4289px;font-family:'URW Bookman';-inkscape-font-specification:'URW Bookman, Normal';font-variant-ligatures:normal;font-variant-caps:normal;font-variant-numeric:normal;font-variant-east-asian:normal;stroke-width:1.18572">D</tspan></text>
    <text
       xml:space="preserve"
       style="font-size:48.3825px;line-height:1.25;font-family:sans-serif;letter-spacing:0px;word-spacing:0px;stroke-width:1.20955"
       x="146.6002"
       y="56.738522"
       id="text20"
       transform="scale(0.98359239,1.0166813)"><tspan
         sodipodi:role="line"
         id="tspan18"
         x="146.6002"
         y="56.738522"
         style="font-style:normal;font-variant:normal;font-weight:normal;font-stretch:normal;font-size:48.3825px;font-family:'URW Bookman';-inkscape-font-specification:'URW Bookman, Normal';font-variant-ligatures:normal;font-variant-caps:normal;font-variant-numeric:normal;font-variant-east-asian:normal;stroke-width:1.20955">H</tspan></text>
    <path
       id="path4542"
       d="M 27.398927,159.21021 H 106.71271"
       style="fill:none;stroke:#000000;stroke-width:0.849025;stroke-linecap:butt;stroke-linejoin:miter;stroke-miterlimit:4;stroke-dasharray:none;stroke-opacity:1;marker-start:url(#marker1181-3);marker-end:url(#marker1185-7)" />
    <path
       id="path4538"
       d="M 109.01273,166.9238 V 128.20403"
       style="fill:none;stroke:#000000;stroke-width:0.838537;stroke-linecap:butt;stroke-linejoin:miter;stroke-miterlimit:4;stroke-dasharray:none;stroke-opacity:1" />
    <path
       id="path4538-1"
       d="M 25.674276,165.79086 V 127.0711"
       style="fill:none;stroke:#000000;stroke-width:0.838537;stroke-linecap:butt;stroke-linejoin:miter;stroke-miterlimit:4;stroke-dasharray:none;stroke-opacity:1" />
    <path
       id="path1187"
       d="m 108.34598,-55.016286 h 25.78869"
       style="fill:none;stroke:#000000;stroke-width:0.838537;stroke-linecap:butt;stroke-linejoin:miter;stroke-miterlimit:4;stroke-dasharray:none;stroke-opacity:1" />
    <path
       id="path1187-4"
       d="m 105.95427,144.57089 h 25.78874"
       style="fill:none;stroke:#000000;stroke-width:0.838537;stroke-linecap:butt;stroke-linejoin:miter;stroke-miterlimit:4;stroke-dasharray:none;stroke-opacity:1" />
    <path
       id="path897"
       d="M 123.92269,-52.071894 V 142.43761"
       style="fill:none;stroke:#000000;stroke-width:1.32896;stroke-linecap:butt;stroke-linejoin:miter;stroke-miterlimit:4;stroke-dasharray:none;stroke-opacity:1;marker-start:url(#Arrow2Lstart-3);marker-end:url(#Arrow2Lend-6)" />
  </g>
</svg>
