<?xml version="1.0" encoding="UTF-8" standalone="no"?>
<!-- Created with Inkscape (http://www.inkscape.org/) -->

<svg
   xmlns:dc="http://purl.org/dc/elements/1.1/"
   xmlns:cc="http://creativecommons.org/ns#"
   xmlns:rdf="http://www.w3.org/1999/02/22-rdf-syntax-ns#"
   xmlns:svg="http://www.w3.org/2000/svg"
   xmlns="http://www.w3.org/2000/svg"
   xmlns:xlink="http://www.w3.org/1999/xlink"
   xmlns:sodipodi="http://sodipodi.sourceforge.net/DTD/sodipodi-0.dtd"
   xmlns:inkscape="http://www.inkscape.org/namespaces/inkscape"
   id="svg97"
   height="64"
   width="64"
   version="1.0"
   inkscape:version="0.91 r13725"
   sodipodi:docname="PartDesign_Group.svg">
  <metadata
     id="metadata57">
    <rdf:RDF>
      <cc:Work
         rdf:about="">
        <dc:format>image/svg+xml</dc:format>
        <dc:type
           rdf:resource="http://purl.org/dc/dcmitype/StillImage" />
        <dc:title></dc:title>
      </cc:Work>
    </rdf:RDF>
  </metadata>
  <sodipodi:namedview
     pagecolor="#ffffff"
     bordercolor="#666666"
     borderopacity="1"
     objecttolerance="10"
     gridtolerance="10"
     guidetolerance="10"
     inkscape:pageopacity="0"
     inkscape:pageshadow="2"
     inkscape:window-width="1301"
     inkscape:window-height="744"
     id="namedview55"
     showgrid="false"
     inkscape:zoom="4.9166667"
     inkscape:cx="28.828247"
     inkscape:cy="33.655123"
     inkscape:window-x="65"
     inkscape:window-y="24"
     inkscape:window-maximized="1"
     inkscape:current-layer="svg97" />
  <defs
     id="defs3">
    <radialGradient
       id="radialGradient6719"
       xlink:href="#linearGradient5060"
       gradientUnits="userSpaceOnUse"
       cy="486.64999"
       cx="605.71002"
       gradientTransform="matrix(-2.7744,0,0,1.9697,112.76,-872.89)"
       r="117.14" />
    <linearGradient
       id="linearGradient5060">
      <stop
         id="stop5062"
         offset="0" />
      <stop
         id="stop5064"
         stop-opacity="0"
         offset="1" />
    </linearGradient>
    <radialGradient
       id="radialGradient6717"
       xlink:href="#linearGradient5060"
       gradientUnits="userSpaceOnUse"
       cy="486.64999"
       cx="605.71002"
       gradientTransform="matrix(2.7744,0,0,1.9697,-1891.6,-872.89)"
       r="117.14" />
    <linearGradient
       id="linearGradient6715"
       y2="609.51001"
       gradientUnits="userSpaceOnUse"
       x2="302.85999"
       gradientTransform="matrix(2.7744,0,0,1.9697,-1892.2,-872.89)"
       y1="366.64999"
       x1="302.85999">
      <stop
         id="stop5050"
         stop-opacity="0"
         offset="0" />
      <stop
         id="stop5056"
         offset=".5" />
      <stop
         id="stop5052"
         stop-opacity="0"
         offset="1" />
    </linearGradient>
    <radialGradient
       id="radialGradient238"
       gradientUnits="userSpaceOnUse"
       cy="37.518002"
       cx="20.705999"
       gradientTransform="matrix(1.055,-0.027345,0.1777,1.1909,-3.5722,-7.1253)"
       r="30.905001">
      <stop
         id="stop1790"
         stop-color="#202020"
         offset="0" />
      <stop
         id="stop1791"
         stop-color="#b9b9b9"
         offset="1" />
    </radialGradient>
    <linearGradient
       id="linearGradient491"
       y2="66.834"
       gradientUnits="userSpaceOnUse"
       x2="9.8980999"
       gradientTransform="matrix(1.5168,0,0,0.70898,-0.87957,-1.3182)"
       y1="13.773"
       x1="6.2298002">
      <stop
         id="stop3984"
         stop-color="#fff"
         stop-opacity=".87629"
         offset="0" />
      <stop
         id="stop3985"
         stop-color="#fffffe"
         stop-opacity="0"
         offset="1" />
    </linearGradient>
    <linearGradient
       id="linearGradient322"
       y2="46.688999"
       gradientUnits="userSpaceOnUse"
       x2="12.854"
       gradientTransform="matrix(1.3175,0,0,0.81626,-0.87957,-1.3182)"
       y1="32.567001"
       x1="13.036">
      <stop
         id="stop320"
         stop-color="#fff"
         offset="0" />
      <stop
         id="stop321"
         stop-color="#fff"
         stop-opacity="0"
         offset="1" />
    </linearGradient>
    <linearGradient
       id="linearGradient3104"
       y2="6.1803002"
       gradientUnits="userSpaceOnUse"
       x2="15.515"
       y1="31.368"
       x1="18.113001">
      <stop
         id="stop3098"
         stop-color="#424242"
         offset="0" />
      <stop
         id="stop3100"
         stop-color="#777"
         offset="1" />
    </linearGradient>
    <linearGradient
       id="linearGradient9772"
       y2="32.049999"
       gradientUnits="userSpaceOnUse"
       x2="22.065001"
       y1="36.987999"
       x1="22.176001">
      <stop
         id="stop9768"
         stop-color="#6194cb"
         offset="0" />
      <stop
         id="stop9770"
         stop-color="#729fcf"
         offset="1" />
    </linearGradient>
    <linearGradient
       id="linearGradient3836-0-6-92-4-2-6-9">
      <stop
         style="stop-color:#a40000;stop-opacity:1"
         offset="0"
         id="stop3838-2-7-06-8-0-7-2" />
      <stop
         style="stop-color:#ef2929;stop-opacity:1"
         offset="1"
         id="stop3840-5-5-8-7-23-5-0" />
    </linearGradient>
  </defs>
  <g
     id="layer1"
     transform="matrix(1.4651691,0,0,1.4651691,-2.4689739,-0.63606738)">
    <g
       id="g6707"
       transform="matrix(0.022624,0,0,0.020868,43.383,36.37)" />
    <path
       id="path216"
       d="m 4.5218,38.687 c 0.0218,0.417 0.4599,0.833 0.8762,0.833 l 31.327,0 c 0.416,0 0.811,-0.416 0.789,-0.833 L 36.578,11.461 c -0.022,-0.417 -0.46,-0.833 -0.877,-0.833 l -13.27,0 c -0.486,0 -1.235,-0.316 -1.402,-1.1066 L 20.417,6.6284 C 20.262,5.8927 19.535,5.5905 19.119,5.5905 l -14.779,0 c -0.4162,0 -0.8107,0.4163 -0.7889,0.8326 l 0.9707,32.264 z"
       style="fill:url(#radialGradient238);stroke:url(#linearGradient3104);stroke-linecap:round;stroke-linejoin:round"
       inkscape:connector-curvature="0" />
    <path
       id="path9788"
       d="m 5.2266,22.562 30.265,0"
       inkscape:connector-curvature="0"
       style="opacity:0.11363998;fill:#729fcf;stroke:#000000;stroke-linecap:round;stroke-linejoin:round" />
    <path
       id="path9784"
       d="m 5.0422,18.562 30.447,0"
       inkscape:connector-curvature="0"
       style="opacity:0.11363998;fill:#729fcf;stroke:#000000;stroke-linecap:round;stroke-linejoin:round" />
    <path
       id="path9778"
       d="m 4.9807,12.562 30.507,0"
       inkscape:connector-curvature="0"
       style="opacity:0.11363998;fill:#729fcf;stroke:#000000;stroke-linecap:round;stroke-linejoin:round" />
    <path
       id="path9798"
       d="m 5.3862,32.562 30.109,0"
       inkscape:connector-curvature="0"
       style="opacity:0.11363998;fill:#729fcf;stroke:#000000;stroke-linecap:round;stroke-linejoin:round" />
    <path
       id="path9800"
       d="m 5.5091,34.562 29.988,0"
       inkscape:connector-curvature="0"
       style="opacity:0.11363998;fill:#729fcf;stroke:#000000;stroke-linecap:round;stroke-linejoin:round" />
    <path
       id="path9782"
       d="m 5.0422,16.562 30.447,0"
       inkscape:connector-curvature="0"
       style="opacity:0.11363998;fill:#729fcf;stroke:#000000;stroke-linecap:round;stroke-linejoin:round" />
    <path
       id="path9780"
       d="m 5.0114,14.562 30.478,0"
       inkscape:connector-curvature="0"
       style="opacity:0.11363998;fill:#729fcf;stroke:#000000;stroke-linecap:round;stroke-linejoin:round" />
    <path
       id="path9776"
       d="m 4.9221,10.562 15.281,0"
       inkscape:connector-curvature="0"
       style="opacity:0.11363998;fill:#729fcf;stroke:#000000;stroke-linecap:round;stroke-linejoin:round" />
    <path
       id="path9774"
       d="m 4.8738,8.5625 14.783,0"
       inkscape:connector-curvature="0"
       style="opacity:0.11363998;fill:#729fcf;stroke:#000000;stroke-linecap:round;stroke-linejoin:round" />
    <path
       id="path9794"
       d="m 5.3247,28.562 30.169,0"
       inkscape:connector-curvature="0"
       style="opacity:0.11363998;fill:#729fcf;stroke:#000000;stroke-linecap:round;stroke-linejoin:round" />
    <path
       id="path9792"
       d="m 5.2881,26.562 30.205,0"
       inkscape:connector-curvature="0"
       style="opacity:0.11363998;fill:#729fcf;stroke:#000000;stroke-linecap:round;stroke-linejoin:round" />
    <path
       id="path9790"
       d="m 5.2266,24.562 30.265,0"
       inkscape:connector-curvature="0"
       style="opacity:0.11363998;fill:#729fcf;stroke:#000000;stroke-linecap:round;stroke-linejoin:round" />
    <path
       id="path9786"
       d="m 5.1959,20.562 30.296,0"
       inkscape:connector-curvature="0"
       style="opacity:0.11363998;fill:#729fcf;stroke:#000000;stroke-linecap:round;stroke-linejoin:round" />
    <path
       id="path9796"
       d="m 5.3247,30.562 30.169,0"
       inkscape:connector-curvature="0"
       style="opacity:0.11363998;fill:#729fcf;stroke:#000000;stroke-linecap:round;stroke-linejoin:round" />
    <path
       id="path9802"
       d="m 5.5091,36.562 29.988,0"
       inkscape:connector-curvature="0"
       style="opacity:0.11363998;fill:#729fcf;stroke:#000000;stroke-linecap:round;stroke-linejoin:round" />
    <path
       id="path219"
       d="M 6.0683,38.864 C 6.0847,39.176 5.8874,39.384 5.5698,39.28 5.2521,39.176 5.033,38.968 5.0167,38.656 L 4.069,6.591 C 4.0526,6.2792 4.2341,6.0906 4.5464,6.0906 l 14.422,-0.0477 c 0.313,0 0.932,0.3005 1.133,1.3222 l 0.574,2.8159 c -0.427,-0.4656 -0.419,-0.48 -0.638,-1.1571 l -0.406,-1.2592 c -0.219,-0.7276 -0.698,-0.8319 -1.01,-0.8319 l -12.888,0 c -0.3122,0 -0.5095,0.2082 -0.4931,0.5204 l 0.938,31.515 -0.1096,-0.104 z"
       display="block"
       style="display:block;opacity:0.45143002;fill:url(#linearGradient491)"
       inkscape:connector-curvature="0" />
    <g
       id="g220"
       transform="matrix(1.0408,0,0.054493,1.0408,-8.6702,2.6706)"
       style="fill:#ffffff;fill-opacity:0.75705997">
      <path
         id="path221"
         d="M 42.417,8.5152 C 42.422,8.4181 42.289,8.2682 42.182,8.2682 L 29.151,8.2661 c 0,0 0.911,0.5879 2.201,0.5962 l 11.054,0.071 c 0.011,-0.2117 0.003,-0.256 0.011,-0.4181 z"
         inkscape:connector-curvature="0"
         style="fill:#ffffff;fill-opacity:0.50847" />
    </g>
    <path
       id="path233"
       d="m 39.784,39.511 c 1.143,-0.044 1.963,-1.097 2.047,-2.321 0.791,-11.549 1.659,-21.232 1.659,-21.232 0.072,-0.248 -0.168,-0.495 -0.48,-0.495 l -34.371,0 c -4e-4,0 -1.8507,21.867 -1.8507,21.867 -0.1145,0.982 -0.466,1.804 -1.5498,2.183 l 34.546,-0.002 z"
       display="block"
       style="display:block;fill:url(#linearGradient9772);stroke:#3465a4;stroke-linejoin:round"
       inkscape:connector-curvature="0" />
    <path
       id="path304"
       d="m 9.6202,16.464 32.791,0.065 -1.574,20.002 c -0.084,1.071 -0.45,1.428 -1.872,1.428 -1.872,0 -28.678,-0.032 -31.395,-0.032 0.2335,-0.321 0.3337,-0.989 0.335,-1.005 L 9.6204,16.464 Z"
       style="opacity:0.46591001;fill:none;stroke:url(#linearGradient322);stroke-width:1px;stroke-linecap:round"
       inkscape:connector-curvature="0" />
    <path
       id="path323"
       d="M 9.6202,16.223 8.4536,31.866 c 0,0 8.2964,-4.148 18.666,-4.148 10.3696,0 15.555,-11.495 15.555,-11.495 l -33.055,0 z"
       inkscape:connector-curvature="0"
       style="fill:#ffffff;fill-opacity:0.089286;fill-rule:evenodd" />
  </g>
</svg>
