<?xml version="1.0" encoding="UTF-8" standalone="no"?>
<!-- Created with Inkscape (http://www.inkscape.org/) -->

<svg
   xmlns:dc="http://purl.org/dc/elements/1.1/"
   xmlns:cc="http://creativecommons.org/ns#"
   xmlns:rdf="http://www.w3.org/1999/02/22-rdf-syntax-ns#"
   xmlns:svg="http://www.w3.org/2000/svg"
   xmlns="http://www.w3.org/2000/svg"
   xmlns:xlink="http://www.w3.org/1999/xlink"
   xmlns:sodipodi="http://sodipodi.sourceforge.net/DTD/sodipodi-0.dtd"
   xmlns:inkscape="http://www.inkscape.org/namespaces/inkscape"
   width="64"
   height="64"
   viewBox="0 0 64.000001 64.000001"
   id="svg2"
   version="1.1"
   inkscape:version="0.91 r13725"
   sodipodi:docname="PartDesign_Overlay.svg">
  <defs
     id="defs4">
    <linearGradient
       id="linearGradient4218"
       inkscape:collect="always">
      <stop
         id="stop4220"
         offset="0"
         style="stop-color:#000000;stop-opacity:0.59942365" />
      <stop
         id="stop4222"
         offset="1"
         style="stop-color:#000000;stop-opacity:0" />
    </linearGradient>
    <linearGradient
       inkscape:collect="always"
       xlink:href="#linearGradient4218"
       id="linearGradient4216"
       x1="46"
       y1="1034.3622"
       x2="26"
       y2="1002.3622"
       gradientUnits="userSpaceOnUse"
       gradientTransform="matrix(1.3022906,0,0,1.3022906,-18.41346,-307.21091)" />
  </defs>
  <sodipodi:namedview
     id="base"
     pagecolor="#ffffff"
     bordercolor="#666666"
     borderopacity="1.0"
     inkscape:pageopacity="0.0"
     inkscape:pageshadow="2"
     inkscape:zoom="7.9195959"
     inkscape:cx="31.131353"
     inkscape:cy="32.669752"
     inkscape:document-units="px"
     inkscape:current-layer="layer1"
     showgrid="true"
     units="px"
     inkscape:window-width="1301"
     inkscape:window-height="744"
     inkscape:window-x="65"
     inkscape:window-y="24"
     inkscape:window-maximized="1">
    <inkscape:grid
       units="px"
       spacingx="0.50000001"
       spacingy="0.50000001"
       empspacing="2"
       empcolor="#000081"
       empopacity="0.25098039"
       type="xygrid"
       id="grid4136" />
  </sodipodi:namedview>
  <metadata
     id="metadata7">
    <rdf:RDF>
      <cc:Work
         rdf:about="">
        <dc:format>image/svg+xml</dc:format>
        <dc:type
           rdf:resource="http://purl.org/dc/dcmitype/StillImage" />
        <dc:title />
      </cc:Work>
    </rdf:RDF>
  </metadata>
  <g
     inkscape:label="Layer 1"
     inkscape:groupmode="layer"
     id="layer1"
     transform="translate(0,-988.36216)">
    <path
       inkscape:connector-curvature="0"
       style="fill:#ffffff;fill-opacity:1;stroke:none;stroke-width:2.30589652;stroke-linecap:butt;stroke-linejoin:round;stroke-opacity:1"
       d="m 12.612123,994.01065 -6.9344314,6.93215 0,15.2548 30.5072654,30.5073 22.186886,-22.187 -30.507263,-30.50725 -15.252457,0 z m 2.081269,4.96122 a 3.6081587,3.6081588 0 0 1 3.608158,3.60823 3.6081587,3.6081588 0 0 1 -3.608158,3.608 3.6081587,3.6081588 0 0 1 -3.608159,-3.608 3.6081587,3.6081588 0 0 1 3.608159,-3.60823 z"
       id="path3199-5" />
    <path
       style="opacity:1;fill:url(#linearGradient4216);fill-opacity:1;stroke:none;stroke-width:2;stroke-linecap:butt;stroke-linejoin:miter;stroke-opacity:1"
       d="m 53.315984,1024.5441 -17.190241,17.1901 -26.045806,-26.0457 0,-12.3717 4.948705,-4.81856 12.241531,0 z"
       id="path3199-6"
       inkscape:connector-curvature="0"
       sodipodi:nodetypes="ccccccc" />
    <path
       style="opacity:1;fill:#f0f0f0;fill-opacity:1;stroke:#2e3436;stroke-width:2.30589652;stroke-linecap:butt;stroke-linejoin:round;stroke-opacity:1"
       d="m 35.416806,1034.8723 11.093385,-11.0933 -16.640079,-16.6401 -11.093387,11.0934 z"
       id="path3989"
       inkscape:connector-curvature="0"
       sodipodi:nodetypes="ccccc" />
    <path
       style="opacity:1;fill:none;fill-opacity:1;stroke:#fefefe;stroke-width:3;stroke-linecap:butt;stroke-linejoin:miter;stroke-miterlimit:4;stroke-dasharray:none;stroke-opacity:0.50196081"
       d="m 54.897062,1024.5386 -18.837311,18.8372 -28.5413672,-28.5412 0,-13.5572 5.4228612,-5.2803 13.414445,0 z"
       id="path3199-6-8"
       inkscape:connector-curvature="0"
       sodipodi:nodetypes="ccccccc" />
    <path
       inkscape:connector-curvature="0"
       style="fill:none;fill-opacity:1;stroke:#271903;stroke-width:2.30589652;stroke-linecap:butt;stroke-linejoin:round;stroke-opacity:1"
       d="m 12.587379,994.01509 -6.9344306,6.93211 0,15.2548 30.5072646,30.5073 22.186886,-22.187 -30.507263,-30.50721 -15.252457,0 z m 2.081269,4.96122 a 3.6081587,3.6081588 0 0 1 3.608158,3.60819 3.6081587,3.6081588 0 0 1 -3.608158,3.6081 3.6081587,3.6081588 0 0 1 -3.608159,-3.6081 3.6081587,3.6081588 0 0 1 3.608159,-3.60819 z"
       id="path3199" />
  </g>
</svg>
