<?xml version="1.0" encoding="UTF-8" standalone="no"?>
<!-- Created with Inkscape (http://www.inkscape.org/) -->

<svg
   width="64"
   height="64"
   id="svg2869"
   version="1.1"
   viewBox="0 0 64 64"
   xmlns:xlink="http://www.w3.org/1999/xlink"
   xmlns="http://www.w3.org/2000/svg"
   xmlns:svg="http://www.w3.org/2000/svg"
   xmlns:rdf="http://www.w3.org/1999/02/22-rdf-syntax-ns#"
   xmlns:cc="http://creativecommons.org/ns#"
   xmlns:dc="http://purl.org/dc/elements/1.1/">
  <defs
     id="defs2871">
    <linearGradient
       id="linearGradient33">
      <stop
         style="stop-color:#edd400;stop-opacity:1;"
         offset="0"
         id="stop33" />
      <stop
         style="stop-color:#f9e947;stop-opacity:1;"
         offset="1"
         id="stop34" />
    </linearGradient>
    <linearGradient
       id="linearGradient5">
      <stop
         style="stop-color:#ef2929;stop-opacity:1;"
         offset="0"
         id="stop19" />
      <stop
         style="stop-color:#ef2929;stop-opacity:0;"
         offset="1"
         id="stop20" />
    </linearGradient>
    <linearGradient
       id="swatch18">
      <stop
         style="stop-color:#ef2929;stop-opacity:1;"
         offset="0"
         id="stop18" />
    </linearGradient>
    <linearGradient
       id="swatch15">
      <stop
         style="stop-color:#3d0000;stop-opacity:1;"
         offset="0"
         id="stop15" />
    </linearGradient>
    <linearGradient
       id="linearGradient5-1">
      <stop
         style="stop-color:#ef2929;stop-opacity:1;"
         offset="0"
         id="stop5" />
      <stop
         style="stop-color:#ef2929;stop-opacity:0;"
         offset="1"
         id="stop6" />
    </linearGradient>
    <linearGradient
       id="linearGradient3836-9">
      <stop
         style="stop-color:#a40000;stop-opacity:1"
         offset="0"
         id="stop3838-8" />
      <stop
         style="stop-color:#ef2929;stop-opacity:1"
         offset="1"
         id="stop3840-1" />
    </linearGradient>
    <linearGradient
       id="linearGradient3836-9-3">
      <stop
         style="stop-color:#a40000;stop-opacity:1"
         offset="0"
         id="stop3838-8-5" />
      <stop
         style="stop-color:#ef2929;stop-opacity:1"
         offset="1"
         id="stop3840-1-6" />
    </linearGradient>
    <linearGradient
       y2="5"
       x2="-22"
       y1="18"
       x1="-18"
       gradientUnits="userSpaceOnUse"
       id="linearGradient3082"
       xlink:href="#linearGradient3836-9-3" />
    <linearGradient
       id="linearGradient3836-9-7">
      <stop
         style="stop-color:#a40000;stop-opacity:1"
         offset="0"
         id="stop3838-8-0" />
      <stop
         style="stop-color:#ef2929;stop-opacity:1"
         offset="1"
         id="stop3840-1-9" />
    </linearGradient>
    <linearGradient
       y2="5"
       x2="-22"
       y1="18"
       x1="-18"
       gradientUnits="userSpaceOnUse"
       id="linearGradient3082-3"
       xlink:href="#linearGradient3836-9-7" />
    <linearGradient
       xlink:href="#linearGradient3836-9-3"
       id="linearGradient3801-1-3"
       gradientUnits="userSpaceOnUse"
       x1="-18"
       y1="18"
       x2="-22"
       y2="5"
       gradientTransform="matrix(0.76342439,0,0,0.75750425,-4.596389,2.7525637)" />
    <linearGradient
       xlink:href="#linearGradient3836-9-3"
       id="linearGradient3801-1-3-2"
       gradientUnits="userSpaceOnUse"
       x1="-18"
       y1="18"
       x2="-22"
       y2="5"
       gradientTransform="matrix(0.84956703,0,0,0.84301394,-2.927337,1.7790378)" />
    <linearGradient
       xlink:href="#linearGradient3838"
       id="linearGradient3844"
       x1="36"
       y1="1039.3622"
       x2="32"
       y2="1003.3622"
       gradientUnits="userSpaceOnUse"
       gradientTransform="translate(2.0563921e-6,-988.36218)" />
    <linearGradient
       id="linearGradient3838">
      <stop
         style="stop-color:#d3d7cf;stop-opacity:1;"
         offset="0"
         id="stop3840" />
      <stop
         style="stop-color:#ffffff;stop-opacity:1;"
         offset="1"
         id="stop3842" />
    </linearGradient>
    <linearGradient
       xlink:href="#linearGradient3830"
       id="linearGradient3836"
       x1="36"
       y1="1037.3622"
       x2="32"
       y2="1005.3622"
       gradientUnits="userSpaceOnUse"
       gradientTransform="translate(2.0563921e-6,-988.36218)" />
    <linearGradient
       id="linearGradient3830">
      <stop
         style="stop-color:#ffffff;stop-opacity:1;"
         offset="0"
         id="stop3832" />
      <stop
         style="stop-color:#d3d7cf;stop-opacity:1;"
         offset="1"
         id="stop3834" />
    </linearGradient>
    <linearGradient
       x1="10.504496"
       y1="16.48678"
       x2="5.9349072"
       y2="1.6356685"
       id="linearGradient-1"
       gradientTransform="scale(0.99999018,1.0000098)"
       gradientUnits="userSpaceOnUse">
      <stop
         stop-color="#A40000"
         offset="0%"
         id="stop6-9" />
      <stop
         stop-color="#EF2929"
         offset="100%"
         id="stop8" />
    </linearGradient>
    <linearGradient
       xlink:href="#linearGradient3815"
       id="linearGradient3856"
       gradientUnits="userSpaceOnUse"
       x1="80"
       y1="58"
       x2="79"
       y2="42" />
    <linearGradient
       id="linearGradient3815">
      <stop
         style="stop-color:#3465a4;stop-opacity:1"
         offset="0"
         id="stop3817" />
      <stop
         style="stop-color:#729fcf;stop-opacity:1"
         offset="1"
         id="stop3819" />
    </linearGradient>
    <linearGradient
       xlink:href="#linearGradient3841"
       id="linearGradient3858"
       gradientUnits="userSpaceOnUse"
       x1="109"
       y1="51"
       x2="105"
       y2="38" />
    <linearGradient
       id="linearGradient3841">
      <stop
         style="stop-color:#204a87;stop-opacity:1"
         offset="0"
         id="stop3843" />
      <stop
         style="stop-color:#3465a4;stop-opacity:1"
         offset="1"
         id="stop3845" />
    </linearGradient>
    <linearGradient
       y2="5"
       x2="-22"
       y1="18"
       x1="-18"
       gradientTransform="matrix(0.77114848,0,0,0.77113937,-4.4090973,2.5859051)"
       gradientUnits="userSpaceOnUse"
       id="linearGradient3898"
       xlink:href="#linearGradient3836-9-3" />
    <linearGradient
       xlink:href="#linearGradient3815"
       id="linearGradient3978"
       gradientUnits="userSpaceOnUse"
       x1="-15"
       y1="37"
       x2="-19"
       y2="37"
       gradientTransform="rotate(135.18861,5.7426909,37.969029)" />
    <linearGradient
       xlink:href="#linearGradient17"
       id="linearGradient3898-0"
       x1="37.429146"
       y1="41.590584"
       x2="24.483221"
       y2="4.9104676"
       gradientUnits="userSpaceOnUse" />
    <linearGradient
       id="linearGradient17">
      <stop
         style="stop-color:#ffffff;stop-opacity:1;"
         offset="0"
         id="stop16" />
      <stop
         style="stop-color:#ffffff;stop-opacity:0"
         offset="1"
         id="stop17" />
    </linearGradient>
    <linearGradient
       xlink:href="#linearGradient17"
       id="linearGradient3856-9"
       x1="22.84341"
       y1="4.8241611"
       x2="30.783579"
       y2="28.644661"
       gradientUnits="userSpaceOnUse" />
    <linearGradient
       id="linearGradient2">
      <stop
         style="stop-color:#73d216;stop-opacity:1;"
         offset="0"
         id="stop1" />
      <stop
         style="stop-color:#8ae234;stop-opacity:1;"
         offset="1"
         id="stop2" />
    </linearGradient>
    <linearGradient
       xlink:href="#linearGradient33"
       id="linearGradient34"
       x1="33.337086"
       y1="47.292957"
       x2="17.514544"
       y2="6.8110929"
       gradientUnits="userSpaceOnUse" />
  </defs>
  <metadata
     id="metadata2874">
    <rdf:RDF>
      <cc:Work
         rdf:about="">
        <dc:format>image/svg+xml</dc:format>
        <dc:type
           rdf:resource="http://purl.org/dc/dcmitype/StillImage" />
        <dc:creator>
          <cc:Agent>
            <dc:title>[maxwxyz]</dc:title>
          </cc:Agent>
        </dc:creator>
        <dc:relation>https://www.freecad.org/wiki/index.php?title=Artwork</dc:relation>
        <dc:publisher>
          <cc:Agent>
            <dc:title>FreeCAD</dc:title>
          </cc:Agent>
        </dc:publisher>
        <dc:identifier>FreeCAD/src/Mod/Sketcher/Gui/Resources/icons/Sketcher_CreateArc.svg</dc:identifier>
        <dc:rights>
          <cc:Agent>
            <dc:title>FreeCAD LGPL2+</dc:title>
          </cc:Agent>
        </dc:rights>
        <dc:date>2023-12-19</dc:date>
      </cc:Work>
    </rdf:RDF>
  </metadata>
  <g
     id="layer3"
     style="display:inline">
    <g
       id="g34"
       transform="rotate(15,32,32)"
       style="display:inline">
      <path
         d="m 54.922907,50.479827 -9.698793,5.598446 c -0.276284,0.457845 -0.576706,0.8875 -0.899214,1.287873 l 9.698792,-5.600213 c 0.322603,-0.400374 0.622972,-0.828398 0.899215,-1.286106 z"
         style="fill:#fce94f;fill-rule:evenodd;stroke:#231f0b;stroke-width:2;stroke-linecap:round;stroke-linejoin:round;stroke-dasharray:none;stroke-opacity:1"
         id="path31" />
      <path
         d="m 41.171468,45.547399 c -0.08547,0.0069 -0.164729,0.02658 -0.234962,0.06713 -0.147845,0.08537 -0.250803,0.241458 -0.296793,0.450491 -0.08448,0.388027 -0.186138,0.763528 -0.302094,1.123575 -0.176526,0.552896 0.127478,1.426278 0.687218,1.978625 l 3.176399,-1.833761 0.03887,0.01236 C 43.800433,47.18245 43.527916,47.019833 43.427453,46.953635 L 42.256178,46.080921 41.918751,45.83006 c -0.08482,-0.06708 -0.170092,-0.120334 -0.254394,-0.164297 -0.01818,-0.0095 -0.03664,-0.01455 -0.05477,-0.02296 -0.0497,-0.02304 -0.09825,-0.04012 -0.146631,-0.05477 -0.01036,-0.0032 -0.02152,-0.0079 -0.0318,-0.0106 -0.06505,-0.01732 -0.126867,-0.02315 -0.187262,-0.02473 -0.02411,-6.14e-4 -0.04915,-0.0072 -0.07243,-0.0053 z"
         style="fill:#c4a000;fill-rule:evenodd;stroke:#231f0b;stroke-width:2;stroke-linecap:round;stroke-linejoin:round;stroke-dasharray:none;stroke-opacity:1"
         id="path30" />
      <path
         d="m 17.754803,8.5029598 c -0.533274,0.013853 -1.053404,0.062294 -1.559932,0.1448635 -0.09505,1.6472807 0.09572,3.0038017 0.310926,3.9484157 0.18393,0.793328 0.370642,1.257096 0.438124,1.411536 l 0.945147,1.929159 c 0.08989,0.173555 0.151948,0.34631 0.196096,0.515855 0.01268,0.04845 0.01407,0.09056 0.02297,0.137798 0.0214,0.113613 0.03924,0.225007 0.03887,0.328592 -4.2e-4,0.113184 -0.01074,0.219806 -0.0371,0.314461 -0.0076,0.02703 -0.01681,0.05251 -0.0265,0.07773 -0.01151,0.03 -0.02261,0.05941 -0.0371,0.08656 -0.01187,0.02229 -0.02674,0.04156 -0.04063,0.06183 -0.01798,0.02622 -0.03519,0.05348 -0.05653,0.07596 -0.0034,0.0036 -0.0053,0.0089 -0.0089,0.01236 -0.02483,0.02496 -0.05273,0.04617 -0.08126,0.06537 l -0.02297,0.01414 c -0.0025,0.0015 -0.0045,0.0038 -0.0071,0.0053 -0.01042,0.0061 -0.02097,0.01246 -0.0318,0.01767 -0.142645,0.06913 -0.281669,0.143455 -0.418691,0.222595 -0.137022,0.079 -0.271667,0.161983 -0.402792,0.250862 -0.01001,0.0069 -0.01961,0.0134 -0.03003,0.01943 -0.407908,0.235439 -1.061093,-0.111127 -1.499865,-0.796785 l -1.197713,-1.782486 c -0.09999,-0.135651 -0.408449,-0.530572 -1.003445,-1.086477 -0.710485,-0.658775 -1.789826,-1.500886 -3.2682637,-2.245385 -0.3225981,0.400367 -0.6229757,0.830172 -0.8992141,1.287872 0.6547974,1.907059 1.3592518,3.28267 1.9008928,4.181611 0.456877,0.752646 0.773055,1.136066 0.881548,1.259606 l 1.416836,1.469835 c 0.118713,0.117139 0.224182,0.257343 0.321526,0.404557 0.02483,0.03757 0.04961,0.07268 0.07243,0.111298 0.01226,0.02069 0.02714,0.03901 0.03887,0.06007 0.07267,0.130564 0.131325,0.26304 0.17843,0.395725 0.0092,0.02585 0.01298,0.05013 0.0212,0.07596 0.04326,0.136173 0.07219,0.268837 0.08656,0.397491 0.0067,0.05949 0.01391,0.117946 0.01414,0.174896 1.36e-4,0.02804 -3.02e-4,0.05585 -0.0017,0.08303 -0.0053,0.09736 -0.01714,0.192735 -0.04417,0.277362 -0.116036,0.360056 -0.217603,0.733841 -0.302094,1.121808 -0.04595,0.208977 -0.148936,0.365123 -0.296794,0.450491 -0.257309,0.148598 -0.624398,0.06754 -0.982245,-0.215529 l -1.508746,-1.123574 c -0.120288,-0.07936 -0.482669,-0.296636 -1.0900096,-0.487589 -0.7228283,-0.222417 -1.750776,-0.384558 -2.983836,-0.148397 -0.025374,0.679582 -0.024447,1.376179 0.00354,2.086389 1.2290824,1.655743 2.2574744,2.682444 2.9803027,3.294762 0.6073399,0.510287 0.9697219,0.708902 1.0900099,0.768485 l 1.508701,0.618319 c 0.583886,0.212459 1.148327,0.969241 1.279039,1.713631 0.08449,0.485511 0.186057,0.975884 0.302094,1.469835 0.03352,0.143757 0.04585,0.278076 0.04593,0.404557 4.7e-5,0.03791 -0.0077,0.0699 -0.0106,0.105998 -0.0069,0.08589 -0.01767,0.167525 -0.04063,0.240262 -0.0046,0.01453 -0.0036,0.03372 -0.0089,0.0477 -0.01292,0.0346 -0.03466,0.05958 -0.05123,0.0901 -0.01483,0.02741 -0.02639,0.05715 -0.04417,0.08126 -0.0466,0.06318 -0.0996,0.118139 -0.164297,0.155463 -0.11631,0.06718 -0.258264,0.08787 -0.413391,0.06183 l -1.416774,-0.166059 c -0.108493,-0.0017 -0.424671,0.01686 -0.881548,0.242028 -0.05467,0.02761 -0.117139,0.07219 -0.174896,0.105997 -0.514514,0.301144 -1.1367038,0.84613 -1.7277628,1.883227 0.2787073,0.776691 0.5814879,1.552472 0.9062806,2.324883 1.4740482,0.960841 2.5524792,1.364712 3.2629632,1.526367 0.594997,0.131221 0.903457,0.09279 1.003445,0.07243 l 1.197775,-0.399258 c 0.451802,-0.184328 1.127064,0.25107 1.5299,0.987546 0.262249,0.480879 0.536192,0.956327 0.821483,1.423903 0.43644,0.717081 0.477282,1.520579 0.09187,1.819627 l -0.945147,0.837382 c -0.06749,0.07636 -0.254194,0.32533 -0.438124,0.906281 -0.215203,0.696109 -0.405429,1.831515 -0.310926,3.593323 0.508037,0.665632 1.028957,1.313885 1.563466,1.941524 1.189056,0.0075 1.971112,-0.260147 2.489179,-0.554721 0.05886,-0.03347 0.130175,-0.06502 0.181963,-0.09893 0.423397,-0.282959 0.597382,-0.548276 0.65012,-0.643053 l 0.565321,-1.309072 c 0.05499,-0.147309 0.143343,-0.257851 0.259694,-0.32506 0.06609,-0.03817 0.142578,-0.05886 0.222595,-0.06713 0.02508,-0.0026 0.05168,0.0014 0.07773,0.0018 0.03766,4.93e-4 0.07336,-0.0049 0.113065,0.0018 0.01596,0.0027 0.03332,0.01401 0.04947,0.01766 0.06646,0.01504 0.133974,0.04282 0.203163,0.0742 0.04211,0.01907 0.08311,0.03173 0.12543,0.05653 0.106998,0.06273 0.214526,0.13992 0.31976,0.238495 0.369795,0.347424 0.74358,0.680501 1.121809,0.996378 0.579333,0.485407 0.952434,1.352488 0.844449,1.964491 l -0.219061,1.616466 c -0.0086,0.134005 -0.01637,0.545618 0.121896,1.326739 0.168843,0.932132 0.542749,2.338368 1.363838,4.236375 0.601182,0.376228 1.204437,0.722368 1.805494,1.037012 0.819375,-0.946124 1.193229,-1.918013 1.362072,-2.655244 0.13827,-0.621468 0.130456,-1.043157 0.121896,-1.187174 l -0.219066,-1.869176 c -0.06618,-0.451391 0.04825,-0.810737 0.305627,-0.95928 0.147858,-0.08545 0.334839,-0.0964 0.538822,-0.0318 0.37823,0.120837 0.752013,0.220775 1.121809,0.300327 0.08745,0.01906 0.175592,0.05613 0.263228,0.100698 0.02317,0.01177 0.04577,0.02543 0.0689,0.03887 0.05062,0.02941 0.09888,0.06578 0.148396,0.102464 0.102916,0.07594 0.201607,0.164493 0.296794,0.268527 0.01882,0.02059 0.03822,0.0368 0.05653,0.0583 0.09154,0.107297 0.179296,0.224847 0.256161,0.353326 0.01407,0.02352 0.02379,0.04856 0.0371,0.07243 0.01862,0.03331 0.034,0.06651 0.05123,0.100697 0.08096,0.160705 0.149674,0.324952 0.192563,0.489357 l 0.565321,1.960958 c 0.05274,0.155675 0.226723,0.621938 0.650119,1.39387 0.507667,0.918417 1.347004,2.216099 2.674676,3.74172 0.533289,-0.01386 1.053405,-0.06229 1.559934,-0.144864 0.09506,-1.647281 -0.0957,-3.002034 -0.310927,-3.946648 -0.183903,-0.793329 -0.370546,-1.258999 -0.438124,-1.413303 l -0.945146,-1.927393 c -0.374431,-0.722828 -0.347805,-1.462228 0.06007,-1.69773 0.01042,-0.0061 0.02097,-0.01232 0.0318,-0.01767 0.142646,-0.06899 0.281683,-0.141688 0.418692,-0.220829 0.136994,-0.07915 0.271667,-0.163611 0.402791,-0.252628 0.01,-0.0067 0.01961,-0.0134 0.03003,-0.01943 0.01042,-0.0061 0.02097,-0.01232 0.0318,-0.01766 0.03092,-0.01509 0.06497,-0.02628 0.09893,-0.03533 0.0045,-0.0012 0.0096,-6.63e-4 0.01414,-0.0018 0.02722,-0.0065 0.0563,-0.008 0.0848,-0.0106 0.0298,-0.0028 0.0592,-0.0049 0.0901,-0.0035 0.02505,0.0011 0.05028,0.0051 0.07596,0.0089 0.03158,0.0045 0.06311,0.011 0.0954,0.01943 0.09464,0.02476 0.190339,0.06759 0.287961,0.123664 0.08217,0.04717 0.161566,0.112995 0.242028,0.180197 0.04553,0.03799 0.09176,0.06551 0.13603,0.10953 0.122707,0.121852 0.238938,0.261819 0.342727,0.423991 l 1.197773,1.782528 c 0.09992,0.135651 0.408368,0.530572 1.003446,1.086477 0.708087,0.656579 1.783239,1.495791 3.25413,2.238319 0.0049,0.0024 0.0092,0.0046 0.01414,0.0071 0.322502,-0.400367 0.622934,-0.830036 0.899213,-1.287873 -0.654742,-1.906922 -1.359264,-3.282806 -1.900892,-4.18161 -0.456795,-0.752729 -0.773055,-1.136163 -0.881548,-1.259606 l -1.416836,-1.469836 c -0.559732,-0.552339 -0.863742,-1.425735 -0.687218,-1.978624 0.115954,-0.360042 0.217617,-0.735552 0.302093,-1.123575 0.04599,-0.209031 0.14895,-0.365123 0.296794,-0.450491 0.0705,-0.0407 0.150391,-0.06024 0.234962,-0.06713 0.02318,-0.0019 0.04835,0.0047 0.07243,0.0053 0.06118,0.0015 0.121915,0.0072 0.187263,0.02473 0.01472,0.0039 0.02749,5.75e-4 0.04239,0.0053 0.04469,0.01416 0.09064,0.039 0.136031,0.06007 0.01827,0.0085 0.03638,0.01338 0.05477,0.02296 0.08502,0.04433 0.170282,0.09776 0.254395,0.164297 l 1.508701,1.123576 c 0.120318,0.07928 0.482688,0.298428 1.09001,0.489356 0.722884,0.222473 1.750639,0.382818 2.983836,0.14663 0.02524,-0.679623 0.02445,-1.374453 -0.0035,-2.084622 -1.229082,-1.655743 -2.257419,-2.68421 -2.980303,-3.296529 -0.607312,-0.510287 -0.969694,-0.708902 -1.09001,-0.768484 l -1.508729,-0.618346 c -0.583981,-0.21246 -1.148394,-0.969255 -1.279039,-1.713631 -0.08447,-0.485515 -0.186139,-0.975883 -0.302093,-1.469835 -0.122113,-0.523481 -0.01669,-0.955843 0.273827,-1.123575 0.116353,-0.06718 0.258292,-0.08965 0.413391,-0.0636 l 1.416836,0.166064 c 0.108493,0.0017 0.424754,-0.0151 0.881549,-0.240262 0.05416,-0.02735 0.115928,-0.07256 0.173129,-0.105997 0.514812,-0.300926 1.137874,-0.845061 1.729529,-1.883227 -0.278679,-0.776691 -0.579734,-1.55248 -0.904514,-2.324883 -1.474102,-0.96084 -2.554273,-1.364714 -3.26473,-1.526367 -0.595078,-0.131221 -0.903524,-0.09277 -1.003445,-0.07243 l -1.197773,0.399258 C 38.40367,31.047514 37.728326,30.610331 37.325517,29.87387 37.063242,29.392977 36.789353,28.917543 36.504034,28.449967 36.06765,27.7329 36.026657,26.929401 36.412174,26.630339 l 0.945147,-0.837382 c 0.06758,-0.07636 0.25422,-0.323563 0.438123,-0.904514 0.21523,-0.696096 0.405443,-1.833309 0.310927,-3.595089 -0.507996,-0.665675 -1.028931,-1.312119 -1.563467,-1.939758 -0.03727,-2.39e-4 -0.07482,-2.91e-4 -0.111297,0 -1.130776,0.009 -1.881419,0.26831 -2.383182,0.554721 -0.0571,0.0326 -0.126249,0.06417 -0.176663,0.09717 -0.423397,0.283013 -0.597378,0.548234 -0.65012,0.643052 l -0.565321,1.309072 c -0.05499,0.147337 -0.143337,0.259646 -0.259694,0.326826 -0.290516,0.167718 -0.718927,0.04245 -1.11121,-0.325059 -0.3698,-0.347403 -0.743583,-0.680467 -1.121813,-0.996385 -0.579333,-0.485337 -0.952434,-1.352515 -0.844449,-1.964492 l 0.219062,-1.616465 c 0.0086,-0.133867 0.01637,-0.545617 -0.121897,-1.326738 -0.168843,-0.932132 -0.542748,-2.336602 -1.363838,-4.234609 -0.601181,-0.376228 -1.204435,-0.722368 -1.805494,-1.037012 -0.819375,0.946124 -1.193228,1.918014 -1.362071,2.655244 l -0.121897,1.187175 0.219062,1.869093 c 0.01521,0.103722 0.01774,0.201118 0.01414,0.295027 -0.0012,0.03127 -0.0056,0.05857 -0.0089,0.08834 -0.0045,0.0414 -0.0057,0.08517 -0.01414,0.123664 -0.003,0.01356 -0.01067,0.02222 -0.01414,0.03533 -0.01657,0.06305 -0.0415,0.117165 -0.0689,0.169596 -0.01347,0.02574 -0.02294,0.0549 -0.03887,0.07773 -0.04808,0.06911 -0.104892,0.127428 -0.174897,0.16783 -0.147844,0.08545 -0.334838,0.09654 -0.538822,0.0318 -0.378229,-0.120699 -0.752014,-0.220775 -1.121808,-0.300327 -0.567044,-0.12358 -1.172435,-0.821941 -1.370904,-1.582899 l -0.565278,-1.962723 c -0.0527,-0.155682 -0.226687,-0.621946 -0.650084,-1.393877 -0.507653,-0.918555 -1.346976,-2.2161 -2.674676,-3.7417202 z"
         style="fill:#fce94f;fill-rule:evenodd;stroke:#231f0b;stroke-width:2;stroke-linecap:round;stroke-linejoin:round;stroke-dasharray:none;stroke-opacity:1"
         id="path29" />
      <path
         d="M 57.196557,39.904787 47.497765,45.505 c 0.02798,0.71018 0.02877,1.404988 0.0035,2.084622 l 9.698793,-5.598447 c 0.02537,-0.679593 0.02445,-1.376167 -0.0035,-2.086388 z"
         style="fill:#fce94f;fill-rule:evenodd;stroke:#231f0b;stroke-width:2;stroke-linecap:round;stroke-linejoin:round;stroke-dasharray:none;stroke-opacity:1"
         id="path28" />
      <path
         d="m 51.617544,35.221454 -9.698793,5.600214 1.508702,0.618319 c 0.120317,0.05958 0.48269,0.258191 1.090009,0.768484 0.722894,0.612328 1.751204,1.640763 2.980303,3.296529 l 9.698792,-5.600213 c -1.229099,-1.655766 -2.257464,-2.682434 -2.980302,-3.294762 -0.607347,-0.510294 -0.96972,-0.710668 -1.090011,-0.770251 z"
         style="fill:#edd400;fill-rule:evenodd;stroke:#231f0b;stroke-width:2;stroke-linecap:round;stroke-linejoin:round;stroke-dasharray:none;stroke-opacity:1"
         id="path27" />
      <path
         d="m 50.130042,32.453146 -6.65489,3.840652 -0.15193,0.08303 c -0.4568,0.225163 -0.773054,0.24199 -0.881548,0.240261 l -0.279127,-0.0318 -1.13771,-0.134265 c -0.155101,-0.02605 -0.297037,-0.0036 -0.41339,0.0636 -0.29052,0.167734 -0.395942,0.600088 -0.273828,1.123575 0.115956,0.493957 0.217617,0.984314 0.302094,1.469835 0.130646,0.744387 0.695049,1.501168 1.279038,1.713631 l 9.698793,-5.60021 c -0.583894,-0.212463 -1.148325,-0.967464 -1.27904,-1.711864 -0.0608,-0.349348 -0.13139,-0.702472 -0.208462,-1.056445 z"
         style="fill:#edd400;fill-rule:evenodd;stroke:#231f0b;stroke-width:2;stroke-linecap:round;stroke-linejoin:round;stroke-dasharray:none;stroke-opacity:1"
         id="path26" />
      <path
         d="m 54.924673,28.787392 -9.698792,5.600213 c -0.59166,1.038174 -1.214713,1.582299 -1.72953,1.883227 l -0.0212,0.02297 6.65489,-3.842418 3.043902,-1.756029 -0.15193,0.08126 c 0.54165,-0.273493 1.245245,-0.835698 1.90266,-1.989225 z"
         style="fill:#fce94f;fill-rule:evenodd;stroke:#231f0b;stroke-width:2;stroke-linecap:round;stroke-linejoin:round;stroke-dasharray:none;stroke-opacity:1"
         id="path25" />
      <path
         d="m 47.805159,15.694906 -9.698792,5.598447 c 0.09452,1.761801 -0.09569,2.898985 -0.310927,3.595089 -0.183904,0.580959 -0.370545,0.828157 -0.438123,0.904514 l -0.945147,0.837382 9.698792,-5.598447 0.945146,-0.837382 c 0.06749,-0.07636 0.254191,-0.325322 0.438124,-0.90628 0.215206,-0.696118 0.405431,-1.831493 0.310927,-3.593323 z"
         style="fill:#edd400;fill-rule:evenodd;stroke:#231f0b;stroke-width:2;stroke-linecap:round;stroke-linejoin:round;stroke-dasharray:none;stroke-opacity:1"
         id="path24" />
      <path
         d="m 49.956913,24.84251 c -0.100244,0.0028 -0.167433,0.01357 -0.204929,0.0212 l -1.197774,0.399259 -9.698792,5.600213 1.197773,-0.399258 c 0.09992,-0.02034 0.40836,-0.05879 1.003446,0.07243 0.710465,0.161657 1.790609,0.565516 3.26473,1.526367 l 9.697026,-5.600208 c -1.474067,-0.960852 -2.552472,-1.364709 -3.262964,-1.526367 -0.371877,-0.08201 -0.631444,-0.09833 -0.798516,-0.09363 z"
         style="fill:#fce94f;fill-rule:evenodd;stroke:#231f0b;stroke-width:2;stroke-linecap:round;stroke-linejoin:round;stroke-dasharray:none;stroke-opacity:1"
         id="path23" />
      <path
         d="m 46.110962,21.031891 -9.698792,5.598447 c -0.385517,0.299066 -0.344526,1.102552 0.09186,1.819628 0.285322,0.467581 0.559204,0.943003 0.821483,1.423903 0.402814,0.736472 1.078147,1.173646 1.529901,0.989312 l 9.698792,-5.600213 C 48.102397,25.447298 47.427147,25.010142 47.024305,24.273656 46.762054,23.79277 46.488117,23.3191 46.202823,22.851519 45.766377,22.13443 45.725536,21.330944 46.110962,21.031891 Z"
         style="fill:#fce94f;fill-rule:evenodd;stroke:#231f0b;stroke-width:2;stroke-linecap:round;stroke-linejoin:round;stroke-dasharray:none;stroke-opacity:1"
         id="path22" />
      <path
         d="m 39.017947,13.400055 -9.698792,5.598446 c -0.107986,0.611985 0.26511,1.479149 0.844449,1.964492 0.378234,0.315922 0.752008,0.648978 1.121809,0.996379 0.392289,0.367509 0.820689,0.49278 1.11121,0.325059 0.116358,-0.06718 0.204702,-0.179488 0.259694,-0.326826 l 0.454023,-1.051144 0.111298,-0.257928 c 0.05274,-0.09482 0.226718,-0.360035 0.65012,-0.643052 l 0.146629,-0.0901 6.654891,-3.842418 c -0.268395,-0.244144 -0.538289,-0.48073 -0.810882,-0.708417 -0.579339,-0.485411 -0.952435,-1.35248 -0.844449,-1.964491 z"
         style="fill:#fce94f;fill-rule:evenodd;stroke:#231f0b;stroke-width:2;stroke-linecap:round;stroke-linejoin:round;stroke-dasharray:none;stroke-opacity:1"
         id="path21" />
      <path
         d="m 24.932616,16.076498 -1.916792,1.107676 c 0.369799,0.07955 0.743574,0.179626 1.121809,0.300327 0.203986,0.06474 0.390976,0.05365 0.538821,-0.0318 0.06928,-0.03998 0.126586,-0.09858 0.174897,-0.16783 0.01583,-0.02277 0.02552,-0.0522 0.03887,-0.07773 0.02722,-0.05201 0.05225,-0.106523 0.0689,-0.169596 0.0025,-0.0095 0.0031,-0.02035 0.0053,-0.03003 0.0096,-0.04159 0.01805,-0.08356 0.02297,-0.128965 0.0032,-0.02953 0.0077,-0.05748 0.0089,-0.08834 0.0034,-0.09279 0.0011,-0.190915 -0.01414,-0.295027 z"
         style="fill:#fce94f;fill-rule:evenodd;stroke:#231f0b;stroke-width:2;stroke-linecap:round;stroke-linejoin:round;stroke-dasharray:none;stroke-opacity:1"
         id="path20" />
      <path
         d="m 40.673278,16.072964 -6.654891,3.842418 0.03003,-0.0071 c 0.517952,-0.295652 1.301809,-0.562357 2.49448,-0.554722 l 9.698792,-5.600213 c -1.324155,-0.0083 -2.163482,0.319544 -2.671143,0.651886 l 0.146631,-0.0901 z"
         style="fill:#fce94f;fill-rule:evenodd;stroke:#231f0b;stroke-width:2;stroke-linecap:round;stroke-linejoin:round;stroke-dasharray:none;stroke-opacity:1"
         id="path19" />
      <path
         d="m 54.018393,26.462509 -9.697026,5.600213 c 0.324784,0.772416 0.62583,1.54818 0.904514,2.324883 l 9.698792,-5.600213 c -0.278711,-0.776703 -0.581483,-1.55246 -0.90628,-2.324883 z"
         style="fill:#edd400;fill-rule:evenodd;stroke:#231f0b;stroke-width:2;stroke-linecap:round;stroke-linejoin:round;stroke-dasharray:none;stroke-opacity:1"
         id="path18" />
      <path
         d="M 46.241692,13.753381 36.5429,19.353595 c 0.534545,0.627649 1.055463,1.274073 1.563467,1.939758 l 9.698792,-5.598447 C 47.297113,15.029263 46.77621,14.381031 46.241692,13.753381 Z"
         style="fill:#fce94f;fill-rule:evenodd;stroke:#231f0b;stroke-width:2;stroke-linecap:round;stroke-linejoin:round;stroke-dasharray:none;stroke-opacity:1"
         id="path17" />
      <path
         d="m 37.751275,6.2204754 -9.698793,5.6002136 c 0.8211,1.89803 1.194993,3.302465 1.363838,4.234609 0.138271,0.78113 0.130456,1.192869 0.121897,1.326738 l -0.219062,1.616465 9.698792,-5.598446 0.219063,-1.616465 c 0.0086,-0.134007 0.01637,-0.547375 -0.121898,-1.328505 C 38.946267,9.5229404 38.572374,8.1185053 37.751275,6.2204754 Z"
         style="fill:#fce94f;fill-rule:evenodd;stroke:#231f0b;stroke-width:2;stroke-linecap:round;stroke-linejoin:round;stroke-dasharray:none;stroke-opacity:1"
         id="path16" />
      <path
         d="m 30.81019,8.1496341 -4.563202,2.6340429 c 0.601068,0.314648 1.204303,0.660779 1.805494,1.037012 L 37.751275,6.2204754 C 37.150083,5.844242 36.546848,5.4981122 35.94578,5.1834643 Z"
         style="fill:#fce94f;fill-rule:evenodd;stroke:#231f0b;stroke-width:2;stroke-linecap:round;stroke-linejoin:round;stroke-dasharray:none;stroke-opacity:1"
         id="path15" />
      <path
         d="m 27.453595,2.9045131 c -0.533294,0.013854 -1.053398,0.062293 -1.559933,0.1448636 l -6.213233,3.5862564 h -0.0018 l -3.483758,2.0121902 c 0.506534,-0.08257 1.026652,-0.1310103 1.559932,-0.1448635 l 2.522746,-1.4557021 0.07067,-0.040633 z"
         style="fill:#fce94f;fill-rule:evenodd;stroke:#231f0b;stroke-width:2;stroke-linecap:round;stroke-linejoin:round;stroke-dasharray:none;stroke-opacity:1"
         id="path14" />
      <path
         d="m 27.453595,2.9045131 -7.105381,4.1021121 -0.07067,0.040633 -2.522745,1.4557021 c 1.32771,1.5256327 2.167018,2.8231577 2.674676,3.7417207 0.423399,0.771936 0.597381,1.238192 0.650119,1.393869 l 0.565321,1.962725 c 0.198471,0.760967 0.803855,1.459317 1.370904,1.582899 l 1.916793,-1.107676 -0.169597,-1.450402 c -0.0058,-0.09745 0.006,-0.360933 0.04593,-0.688986 0.01905,-0.156317 0.03134,-0.297669 0.07596,-0.498189 0.168845,-0.737237 0.542688,-1.70911 1.362071,-2.655243 l 4.563211,-2.6340435 -0.0318,-0.1095311 C 30.725645,7.8844262 30.551668,7.4181704 30.128267,6.6462329 29.620596,5.7278085 28.781274,4.4301456 27.453592,2.9045131 Z"
         style="fill:#fce94f;fill-rule:evenodd;stroke:#231f0b;stroke-width:2;stroke-linecap:round;stroke-linejoin:round;stroke-dasharray:none;stroke-opacity:1"
         id="path13" />
      <path
         d="M 19.675129,6.6338665 9.9763369,12.232314 c 1.4784491,0.744505 2.5577741,1.586604 3.2682631,2.245385 0.595001,0.55591 0.903456,0.950825 1.003445,1.086477 l 1.197775,1.782528 c 0.438777,0.685666 1.091952,1.032227 1.499868,0.79675 0.01042,-0.0061 0.02002,-0.01257 0.03003,-0.01943 0.131125,-0.08888 0.265767,-0.171857 0.402791,-0.250862 l 0.102465,-0.0583 c 0.103592,-0.05754 0.20924,-0.11245 0.316226,-0.164297 0.01084,-0.0052 0.02137,-0.01163 0.0318,-0.01767 0.0025,-0.0014 0.0045,-0.0038 0.0071,-0.0053 0.03081,-0.01848 0.0567,-0.04304 0.08303,-0.06713 0.0096,-0.0088 0.02103,-0.01525 0.03003,-0.02473 0.02142,-0.02262 0.03852,-0.04969 0.05653,-0.07596 0.01378,-0.0201 0.02883,-0.0397 0.04063,-0.06183 0.01438,-0.027 0.02569,-0.05683 0.0371,-0.08656 0.0097,-0.02537 0.01891,-0.05048 0.0265,-0.07773 0.02651,-0.09488 0.0367,-0.201475 0.0371,-0.314461 3.85e-4,-0.103428 -0.01741,-0.214731 -0.03887,-0.328593 -0.0088,-0.04654 -0.01056,-0.09016 -0.02297,-0.137797 -0.04401,-0.168147 -0.106252,-0.34234 -0.196093,-0.515832 l -0.945166,-1.929197 c -0.06748,-0.154442 -0.254192,-0.618202 -0.438124,-1.411536 -0.215204,-0.944623 -0.405978,-2.301122 -0.310926,-3.9484157 l 3.483791,-2.0121902 c -0.0013,-6.209e-4 -0.0023,-0.00115 -0.0035,-0.00176 z"
         style="fill:#fce94f;fill-rule:evenodd;stroke:#231f0b;stroke-width:2;stroke-linecap:round;stroke-linejoin:round;stroke-dasharray:none;stroke-opacity:1"
         id="path12" />
      <path
         d="m 11.937295,19.042668 -5.1373566,2.966169 c 1.2330723,-0.236162 2.2610004,-0.07403 2.983836,0.148397 0.6073466,0.190955 0.9697206,0.408229 1.0900096,0.487589 l 1.508701,1.123577 c 0.357853,0.283073 0.724932,0.364129 0.982247,0.215528 0.147859,-0.08537 0.250844,-0.241511 0.296793,-0.45049 0.04321,-0.198582 0.09166,-0.393318 0.143097,-0.584754 0.04924,-0.182534 0.102349,-0.361325 0.158996,-0.537055 0.02682,-0.084 0.03887,-0.179013 0.04417,-0.277361 0.0014,-0.02708 0.0019,-0.05519 0.0017,-0.08304 -2.73e-4,-0.05624 -0.0075,-0.115778 -0.01414,-0.174896 -0.01456,-0.129411 -0.04361,-0.262446 -0.08656,-0.397491 -0.0081,-0.02553 -0.0121,-0.05035 -0.0212,-0.07596 -0.04719,-0.132741 -0.116126,-0.262224 -0.187261,-0.390426 -0.01181,-0.02129 -0.0176,-0.04433 -0.03003,-0.06537 -0.02274,-0.0384 -0.04798,-0.07432 -0.07243,-0.111298 -0.09522,-0.144073 -0.199674,-0.284314 -0.321527,-0.404554 l -0.180195,-0.187262 z"
         style="fill:#edd400;fill-rule:evenodd;stroke:#231f0b;stroke-width:2;stroke-linecap:round;stroke-linejoin:round;stroke-dasharray:none;stroke-opacity:1"
         id="path11" />
      <path
         d="m 13.869987,31.552166 -2.891972,1.671231 c 0.456883,-0.225166 0.773054,-0.243762 0.881548,-0.242028 l 1.416836,0.166063 c 0.15513,0.02604 0.297079,0.0053 0.413392,-0.06183 0.06541,-0.03776 0.118134,-0.09281 0.164296,-0.155464 0.01757,-0.02383 0.02938,-0.05403 0.04417,-0.08126 0.01359,-0.02514 0.02427,-0.05355 0.03533,-0.08126 0.0077,-0.0193 0.01827,-0.03605 0.02473,-0.05653 0.02298,-0.07298 0.03386,-0.155087 0.04063,-0.240261 0.0028,-0.0358 0.01063,-0.06824 0.0106,-0.105999 -1.58e-4,-0.127344 -0.01273,-0.262331 -0.04593,-0.404557 -0.01331,-0.05684 -0.02774,-0.112851 -0.04063,-0.169596 -0.01811,-0.07931 -0.03572,-0.159378 -0.053,-0.238495 z"
         style="fill:#fce94f;fill-rule:evenodd;stroke:#231f0b;stroke-width:2;stroke-linecap:round;stroke-linejoin:round;stroke-dasharray:none;stroke-opacity:1"
         id="path10" />
      <path
         d="m 22.127209,47.248663 c -0.07926,0.0082 -0.155754,0.02854 -0.222595,0.06713 -0.116353,0.06721 -0.204707,0.177749 -0.259694,0.325059 l -0.565321,1.309073 c -0.05274,0.09478 -0.226719,0.360089 -0.65012,0.643052 l -0.14663,0.09186 3.043901,-1.757796 c -0.0013,-0.0013 -0.0023,-0.0024 -0.0035,-0.0035 -0.05989,-0.05459 -0.120546,-0.10902 -0.180197,-0.164297 -0.04268,-0.03963 -0.08465,-0.08021 -0.127197,-0.12013 -0.104415,-0.09784 -0.211792,-0.175222 -0.31976,-0.238495 -0.04232,-0.02481 -0.08356,-0.03754 -0.12543,-0.05653 -0.06849,-0.03102 -0.136691,-0.05915 -0.203163,-0.0742 -0.02304,-0.0052 -0.04457,-0.0039 -0.06713,-0.0071 -0.03215,-0.0046 -0.06441,-0.01193 -0.0954,-0.01236 -0.0259,-3.38e-4 -0.05293,-0.0043 -0.07773,-0.0018 z"
         style="fill:#fce94f;fill-rule:evenodd;stroke:#231f0b;stroke-width:2;stroke-linecap:round;stroke-linejoin:round;stroke-dasharray:none;stroke-opacity:1"
         id="path9" />
      <path
         d="m 37.629377,51.386107 c -0.01499,7.05e-4 -0.02939,0.0022 -0.04417,0.0035 -0.02871,0.0026 -0.0573,0.004 -0.0848,0.0106 -0.01162,0.0028 -0.02221,0.0089 -0.03357,0.01236 l -0.544121,0.314459 c -0.137011,0.07915 -0.276043,0.151837 -0.418692,0.220829 -0.01084,0.0053 -0.02137,0.01163 -0.0318,0.01767 -0.407875,0.235506 -0.434502,0.974893 -0.06007,1.697731 l 0.945147,1.927392 c 0.06758,0.154306 0.254219,0.619967 0.438123,1.413303 0.215233,0.944626 0.405993,2.299349 0.310927,3.946649 l 6.213233,-3.586257 c -1.475853,-0.743734 -2.553323,-1.5856 -3.262963,-2.243619 -0.595085,-0.55591 -0.903524,-0.950825 -1.003446,-1.086477 l -1.197773,-1.782528 c -0.103956,-0.162454 -0.220836,-0.302789 -0.342727,-0.423991 -0.04376,-0.04345 -0.09094,-0.07187 -0.13603,-0.10953 -0.08024,-0.06695 -0.160358,-0.133289 -0.242028,-0.180197 -0.09717,-0.05577 -0.193323,-0.09895 -0.287961,-0.123664 -0.03234,-0.0085 -0.06383,-0.01485 -0.0954,-0.01943 -0.02534,-0.0036 -0.05121,-0.0078 -0.07596,-0.0089 -0.01537,-6.64e-4 -0.03094,-7.05e-4 -0.04593,0 z"
         style="fill:#c4a000;fill-rule:evenodd;stroke:#231f0b;stroke-width:2;stroke-linecap:round;stroke-linejoin:round;stroke-dasharray:none;stroke-opacity:1"
         id="path4" />
      <path
         d="m 29.873877,52.073326 c -0.09073,0.0053 -0.175165,0.02971 -0.249095,0.07243 -0.257383,0.148544 -0.371807,0.507881 -0.305627,0.959278 l 0.219062,1.869093 c 0.0086,0.144018 0.01637,0.5657 -0.121897,1.187174 -0.168845,0.737239 -0.542687,1.709108 -1.362071,2.655243 l 5.13559,-2.96617 -0.46109,-1.602331 -0.07243,-0.249095 c -0.04404,-0.168859 -0.113327,-0.332192 -0.192563,-0.489357 -0.01698,-0.03369 -0.03275,-0.06756 -0.05123,-0.100698 -0.01345,-0.02407 -0.0318,-0.04358 -0.04593,-0.06713 -0.07568,-0.12616 -0.155637,-0.251057 -0.247328,-0.358625 -0.01825,-0.02139 -0.03784,-0.03786 -0.05653,-0.0583 -0.09406,-0.102897 -0.193707,-0.192172 -0.296794,-0.268528 -0.04929,-0.03638 -0.09839,-0.07343 -0.148396,-0.102464 -0.02293,-0.01332 -0.04584,-0.02714 -0.0689,-0.03887 -0.08795,-0.04467 -0.17695,-0.08189 -0.263228,-0.100698 -0.180481,-0.03881 -0.361469,-0.08204 -0.544121,-0.13073 -0.191548,-0.05116 -0.384086,-0.107736 -0.577688,-0.169596 -0.101993,-0.0323 -0.199003,-0.04598 -0.289728,-0.04063 z"
         style="fill:#c4a000;fill-rule:evenodd;stroke:#231f0b;stroke-width:2;stroke-linecap:round;stroke-linejoin:round;stroke-dasharray:none;stroke-opacity:1"
         id="path3" />
      <path
         d="m 52.062734,44.957345 -4.561436,2.632277 c -1.233211,0.236191 -2.260943,0.07584 -2.983836,-0.14663 l -0.316226,-0.109531 -3.176399,1.833761 1.416837,1.469835 c 0.108494,0.123444 0.424748,0.506869 0.881548,1.259606 0.541635,0.898816 1.246141,2.274662 1.900892,4.18161 l 9.698793,-5.598446 C 54.2681,48.572741 53.563663,47.195403 53.022014,46.29645 52.565131,45.543794 52.24896,45.160384 52.140466,45.036844 Z"
         style="fill:#c4a000;fill-rule:evenodd;stroke:#231f0b;stroke-width:2;stroke-linecap:round;stroke-linejoin:round;stroke-dasharray:none;stroke-opacity:1"
         id="path2" />
      <path
         d="m 42.383602,34.607168 0.0056,6.61e-4 c 0.0129,-0.0059 0.03266,-0.01603 0.03266,-0.01603 l 0.01758,-0.0078 c -0.01643,0.0081 -0.01571,0.0099 -0.02539,0.01563 l -1.15625,-0.134765 0.09961,0.01367 c -0.557082,-0.09357 -1.176791,-0.02402 -1.746094,0.304687 -1.327867,0.766653 -1.449313,2.33249 -1.220703,3.3125 0.108732,0.463187 0.202045,0.913409 0.279297,1.357422 0.227448,1.295929 1.194203,2.749532 2.564453,3.248047 l -0.07227,-0.02734 1.402344,0.572266 c 0.02925,0.01629 0.243125,0.137894 0.660156,0.488281 0.409162,0.34658 0.983196,0.907968 1.669922,1.714844 -0.194649,-0.07795 -0.319498,-0.138382 -0.341797,-0.152344 l -1.441406,-1.072266 0.04687,0.03711 c -0.193443,-0.153022 -0.383225,-0.271592 -0.570312,-0.369141 -0.222398,-0.115855 -0.135146,-0.06372 -0.136719,-0.06445 -0.0052,-0.0024 -0.192607,-0.09517 -0.373047,-0.152344 -0.585039,-0.185524 -0.239761,-0.06671 -0.148852,-0.03596 -0.27646,-0.08662 -0.188651,-0.05445 -0.09155,-0.02083 -0.193667,-0.04357 -0.362493,-0.05975 -0.502717,-0.06501 0.01876,-0.0046 0.0316,-0.0096 0.0065,-0.01093 0.03804,-0.01004 0.03596,-0.02045 -0.331696,0.0097 -0.311419,0.02537 -0.689534,0.109126 -1.072266,0.330078 -0.741055,0.4279 -1.109208,1.107042 -1.251953,1.75586 -0.07046,0.323639 -0.153941,0.639008 -0.251953,0.943359 -0.340713,1.067143 -0.04554,2.218521 0.498047,3.121094 -0.162573,-0.08154 -0.34819,-0.164453 -0.578125,-0.224609 -0.09249,-0.02415 -0.197578,-0.04615 -0.308594,-0.0625 -0.06584,-0.0097 -0.167702,-0.02245 -0.279297,-0.02734 -0.116533,-0.0053 -0.234399,-0.0041 -0.361328,0.0078 -0.01742,0.0016 -0.109801,0.0089 -0.229962,0.02997 0.0076,-0.0023 0.0068,-0.0023 -0.0075,0.0013 -0.04139,0.0074 -0.08589,0.01637 -0.131642,0.02729 -0.0072,0.0019 -0.01433,0.0039 -0.02148,0.0059 0,0 0.393957,-0.106748 -0.04297,0.0098 -0.08855,0.0236 -0.268055,0.07586 -0.46875,0.173828 -0.09126,0.045 -0.15625,0.08398 -0.15625,0.08398 -0.125615,0.07341 -0.132812,0.08398 -0.132812,0.08398 -0.0033,0.0026 -0.0065,0.0052 -0.0098,0.0078 -0.0828,0.05621 -0.175683,0.112836 -0.28125,0.173829 -0.09002,0.052 -0.185739,0.102371 -0.289063,0.152343 l -0.002,0.002 c -0.0046,0.0019 -0.0091,0.0039 -0.01367,0.0059 -0.08407,0.04153 -0.136704,0.07338 -0.144531,0.07813 -0.0016,9.37e-4 -0.0023,0.003 -0.0039,0.0039 -1.56e-4,9.5e-5 -0.0059,0.002 -0.0059,0.002 -0.908013,0.528963 -1.253916,1.364766 -1.296875,2.210938 -0.0041,-0.0076 -0.0035,-0.008 -0.0078,-0.01563 0,0 0.05812,0.08316 -0.06641,-0.125 -0.14258,-0.238321 -0.299111,-0.447102 -0.449219,-0.623047 -0.184222,-0.216317 -0.104789,-0.108632 -0.105469,-0.109375 -0.175065,-0.191336 -0.366817,-0.369987 -0.580078,-0.527344 -0.05282,-0.03914 -0.190832,-0.138351 -0.335937,-0.222656 -0.0039,-0.0022 -0.08969,-0.05498 -0.166016,-0.09375 -0.15473,-0.07869 -0.425478,-0.202714 -0.75,-0.273438 -0.301822,-0.06493 -0.611829,-0.147914 -0.9375,-0.251953 -0.6351,-0.201132 -1.399702,-0.222291 -2.142578,0.207031 -1.210836,0.698824 -1.41964,2.065154 -1.285156,2.982422 l -0.0078,-0.05664 0.210938,1.779297 c 5.28e-4,0.02396 -0.01204,0.165029 -0.04297,0.375 -0.354582,-0.99886 -0.551632,-1.775237 -0.646484,-2.298829 -0.0957,-0.540655 -0.09235,-0.784606 -0.0918,-0.820312 l 0.203125,-1.507813 -0.01367,0.08008 c 0.253207,-1.435045 -0.520934,-2.999508 -1.533203,-3.847657 -0.344661,-0.287842 -0.687727,-0.593513 -1.035157,-0.919922 -0.228481,-0.214023 -0.456148,-0.375141 -0.675781,-0.503906 -0.264971,-0.155276 -0.311572,-0.154762 -0.310547,-0.154297 -0.0871,-0.0395 -0.285691,-0.123072 -0.495639,-0.180094 0.0898,0.01225 0.18345,0.02354 -0.02363,-0.01324 0.117128,0.01639 0.29559,0.03952 -0.226828,-0.04886 -0.403538,-0.06809 -0.41859,-0.02936 -0.414063,-0.0293 0,0 0.0737,-0.03243 -0.314453,0.0078 -0.302561,0.03127 -0.668466,0.124544 -1.017578,0.326172 -0.579793,0.334912 -0.937683,0.834704 -1.132813,1.357422 l 0.03711,-0.09375 -0.455078,1.056641 c -0.0036,7.2e-5 -0.0089,5.77e-4 -0.09375,0.04883 -0.102367,0.05821 -0.309819,0.144398 -0.613282,0.208984 -0.15545,-0.191689 -0.311321,-0.38235 -0.464843,-0.578125 -0.0129,-1.169147 0.117652,-1.899958 0.230468,-2.269531 l 0.0039,-0.01367 c 0.03162,-0.102686 0.04245,-0.148566 0.04102,-0.164062 l 0.75586,-0.669922 -0.09766,0.08203 C 20.659248,43.3508 20.198655,41.248907 19.503906,40.107422 19.237241,39.670373 18.98013,39.22342 18.730469,38.765625 18.089623,37.594013 16.496768,36.14741 14.689453,36.884766 l 0.121094,-0.04492 -0.964844,0.322265 c -0.01383,-0.0089 -0.05529,-0.02345 -0.158203,-0.04687 l -0.01172,-0.0039 c -0.375627,-0.0867 -1.072656,-0.33723 -2.078125,-0.933594 -0.0937,-0.231565 -0.180252,-0.463692 -0.269531,-0.695312 0.208279,-0.231774 0.384749,-0.36747 0.484375,-0.425781 0.07502,-0.04391 0.101484,-0.06077 0.106029,-0.0651 l -0.0028,-3.24e-4 c -0.0095,0.0035 -0.03491,0.01659 -0.03491,0.01659 0.0067,-0.0037 0.0089,-0.0068 0.01367,-0.0098 l 1.148438,0.134765 -0.09961,-0.01367 c 0.523668,0.0879 1.147295,0.04508 1.746094,-0.300782 0.382444,-0.220633 0.638144,-0.517741 0.773438,-0.701172 0.203775,-0.276323 0.194743,-0.315054 0.193359,-0.3125 0,0 0.02062,0.04632 0.164063,-0.33789 0.210483,-0.5552 0.05341,-0.169986 0.04707,-0.154752 0.07672,-0.205431 0.05355,-0.154279 0.02544,-0.08726 0.06592,-0.243796 0.09102,-0.49003 0.09937,-0.593923 0,0 0.01801,0.08231 0.01758,-0.267578 -1.71e-4,-0.269874 -0.02829,-0.553519 -0.09961,-0.859375 -0.10721,-0.456377 -0.19905,-0.909485 -0.277343,-1.359375 -0.228067,-1.29881 -1.200032,-2.74891 -2.566407,-3.246094 l 0.07617,0.0293 -1.398437,-0.574218 c -0.02308,-0.01265 -0.246828,-0.134459 -0.667969,-0.488282 -0.409502,-0.346895 -0.985297,-0.906752 -1.6718751,-1.71289 0.2017459,0.07972 0.3331326,0.142286 0.3496094,0.152343 l 1.4355467,1.06836 -0.04687,-0.03711 c 0.720378,0.569844 2.005751,1.083632 3.222656,0.38086 0.753488,-0.435037 1.109906,-1.111773 1.251954,-1.757813 0.07117,-0.326791 0.15301,-0.636521 0.25,-0.9375 0.09503,-0.297521 0.128248,-0.591571 0.138671,-0.783203 0.0033,-0.06329 0.0042,-0.131868 0.0039,-0.195312 -6.92e-4,-0.17126 -0.01941,-0.335601 -0.02539,-0.388672 -0.03125,-0.279798 -0.09457,-0.546018 -0.169922,-0.783203 0,0 0.03712,0.08635 -0.04297,-0.138672 -0.08153,-0.229649 -0.183299,-0.461626 -0.314453,-0.697266 -0.119958,-0.215373 -0.06569,-0.10756 -0.06445,-0.105469 -0.0086,-0.01459 -0.01423,-0.0203 -0.02344,-0.03516 0.758234,0.388984 1.660993,0.507872 2.578125,-0.02148 0.03509,-0.0203 0.0983,-0.05818 0.164062,-0.103516 l -0.01172,0.0098 c 0.08094,-0.05486 0.170531,-0.111118 0.279297,-0.173828 0.102179,-0.05902 0.198047,-0.110119 0.285156,-0.152344 0.103012,-0.04956 0.157037,-0.0835 0.164063,-0.08789 l 0.0059,-0.0039 c 0.05165,-0.02992 0.02199,-0.0127 0.0098,-0.0059 l 0.02148,-0.01367 0.04297,-0.02539 c 0.02297,-0.01403 0.04576,-0.02835 0.06836,-0.04297 0.09072,-0.06105 0.231403,-0.164213 0.38086,-0.314453 0.398664,-0.38401 0.04625,-0.05034 0.04297,-0.04687 0.02194,-0.02312 0.04262,-0.04586 0.06198,-0.06791 0.115733,-0.112294 0.07907,-0.07924 0.02489,-0.02882 0.108303,-0.127377 0.168689,-0.225104 0.168991,-0.225544 0,0 0.01893,0.0042 0.154297,-0.25 0.08599,-0.161113 0.136587,-0.301976 0.140625,-0.3125 0.02996,-0.07798 0.05591,-0.155985 0.08398,-0.25586 0.06194,-0.222425 0.08566,-0.437702 0.09766,-0.628906 0.511375,0.924191 1.36583,1.757009 2.462891,1.996094 0.301474,0.06486 0.610781,0.148318 0.935547,0.251953 0.624736,0.198277 1.390355,0.230817 2.144531,-0.205078 0.381024,-0.2199 0.643615,-0.507486 0.816406,-0.75586 0.219596,-0.314712 0.19159,-0.309839 0.176968,-0.300507 5.34e-4,-0.0028 3.67e-4,-0.0046 -2.59e-4,-0.0056 0.05569,-0.107326 0.129733,-0.263673 0.191366,-0.461982 -0.0064,0.0348 -0.007,0.04395 0.01298,-0.04304 0.0066,-0.02272 0.0131,-0.04595 0.01934,-0.06968 0,0 -0.07843,0.38544 0.0332,-0.119141 0.03242,-0.147872 0.05019,-0.32464 0.05078,-0.330078 0.0021,-0.01868 0.01358,-0.128251 0.01758,-0.232422 0.0068,-0.17852 0.005,-0.401672 -0.0332,-0.662109 l -0.185546,-1.589844 0.04687,-0.449218 c 0.339907,0.967006 0.532235,1.724262 0.625,2.236328 0.09585,0.541468 0.09413,0.782664 0.09375,0.820312 l -0.205079,1.503906 0.01367,-0.07617 c -0.253225,1.435086 0.520952,2.999644 1.533203,3.847656 0.344754,0.287957 0.687859,0.593661 1.035157,0.919922 0.73296,0.686671 2.143299,1.370444 3.478515,0.599609 0.596514,-0.344403 0.946019,-0.860845 1.132813,-1.361328 l -0.03711,0.09375 0.458985,-1.064453 c 0.01067,-0.0058 0.01338,-0.0056 0.03125,-0.01758 l -0.01563,0.01172 c 0,0 -0.105602,0.06751 0.07422,-0.03516 0.100622,-0.05744 0.30796,-0.142466 0.613281,-0.207031 0.155285,0.1912 0.311738,0.381151 0.464844,0.576172 0.01313,1.181477 -0.120774,1.917747 -0.234375,2.285156 -0.03128,0.101647 -0.04062,0.147086 -0.03906,0.162109 l -0.759766,0.673829 0.09961,-0.08398 c -1.541554,1.195849 -1.082656,3.299101 -0.388672,4.439453 0.268719,0.440372 0.527675,0.887602 0.775391,1.341797 0.639228,1.16871 2.229492,2.620934 4.039062,1.882813 l -0.125,0.04687 0.96875,-0.322266 c 0.01489,0.0095 0.0491,0.02414 0.169922,0.05078 0.377586,0.08713 1.077196,0.337934 2.080078,0.931641 0.09311,0.230674 0.180668,0.462116 0.269531,0.693359 -0.210024,0.233775 -0.388033,0.37109 -0.488281,0.429688 -0.06256,0.03657 -0.09186,0.05463 -0.102726,0.06225 z M 19.326583,47.926226 c 0.0098,-0.0063 0.01272,-0.0076 0.02107,-0.01216 l 0.0039,-0.0059 c -0.0076,0.0051 -0.01758,0.01172 -0.01758,0.01172 l -0.01075,0.0081 c 0.0012,-6.1e-4 0.0023,-0.0012 0.0034,-0.0018 z"
         style="fill:url(#linearGradient34);fill-rule:evenodd;stroke:#fce94f;stroke-width:2;stroke-linecap:round;stroke-linejoin:round;stroke-dasharray:none;stroke-opacity:1"
         id="path32" />
    </g>
  </g>
  <g
     id="layer1" />
</svg>
