<?xml version="1.0" encoding="UTF-8" standalone="no"?>
<!-- Created with Inkscape (http://www.inkscape.org/) -->
<svg xmlns:dc="http://purl.org/dc/elements/1.1/" xmlns:cc="http://creativecommons.org/ns#" xmlns:rdf="http://www.w3.org/1999/02/22-rdf-syntax-ns#" xmlns:svg="http://www.w3.org/2000/svg" xmlns="http://www.w3.org/2000/svg" xmlns:sodipodi="http://sodipodi.sourceforge.net/DTD/sodipodi-0.dtd" xmlns:inkscape="http://www.inkscape.org/namespaces/inkscape" width="64" height="64" id="svg3087" version="1.1" inkscape:version="0.48.5 r10040" sodipodi:docname="PartDesign_InvoluteGear.svg">
  <defs id="defs3089"/>
  <sodipodi:namedview id="base" pagecolor="#ffffff" bordercolor="#666666" borderopacity="1.0" inkscape:pageopacity="0.0" inkscape:pageshadow="2" inkscape:zoom="4.9497475" inkscape:cx="35.263214" inkscape:cy="35.501928" inkscape:current-layer="layer1-1" showgrid="true" inkscape:grid-bbox="true" inkscape:document-units="px" inkscape:window-width="746" inkscape:window-height="606" inkscape:window-x="57" inkscape:window-y="137" inkscape:window-maximized="0" inkscape:snap-bbox="true" inkscape:snap-nodes="false">
    <inkscape:grid type="xygrid" id="grid2986" empspacing="2" visible="true" enabled="true" snapvisiblegridlinesonly="true"/>
  </sodipodi:namedview>
  <metadata id="metadata3092">
    <rdf:RDF>
      <cc:Work rdf:about="">
        <dc:format>image/svg+xml</dc:format>
        <dc:type rdf:resource="http://purl.org/dc/dcmitype/StillImage"/>
        <dc:title/>
        <dc:creator>
          <cc:Agent>
            <dc:title>[jriegel]</dc:title>
          </cc:Agent>
        </dc:creator>
        <dc:title>PartDesign_InvoluteGear</dc:title>
        <dc:date>2014-02-16</dc:date>
        <dc:relation>http://www.freecad.org/wiki/index.php?title=Artwork</dc:relation>
        <dc:publisher>
          <cc:Agent>
            <dc:title>FreeCAD</dc:title>
          </cc:Agent>
        </dc:publisher>
        <dc:identifier>FreeCAD/src/Mod/PartDesign/Gui/Resources/icons/PartDesign_InvoluteGear.svg</dc:identifier>
        <dc:rights>
          <cc:Agent>
            <dc:title>FreeCAD LGPL2+</dc:title>
          </cc:Agent>
        </dc:rights>
        <cc:license>https://www.gnu.org/copyleft/lesser.html</cc:license>
        <dc:contributor>
          <cc:Agent>
            <dc:title>[agryson] Alexander Gryson</dc:title>
          </cc:Agent>
        </dc:contributor>
      </cc:Work>
    </rdf:RDF>
  </metadata>
  <g id="layer1" inkscape:label="Layer 1" inkscape:groupmode="layer" transform="translate(0,16)">
    <g transform="matrix(0.04814141,0,0,0.04814141,-0.04814054,-0.04809916)" id="g3077">
      <title id="title3079">Layer 1</title>
      <g externalResourcesRequired="false" id="layer1-1">
        <path style="fill:#d3d7cf;stroke:#2e3436;stroke-width:41.54427719;stroke-linecap:round;stroke-linejoin:round;stroke-miterlimit:4;stroke-dashoffset:0" d="m 592,-125.75 c -3.22987,3.48248 -10.78549,2.6225 -15.8125,4.28125 -25.17337,4.95584 -50.00428,12.00014 -74.03125,21.09375 -3.79373,-0.80203 -5.26478,-4.98347 -9.31134,-9.12181 -28.34413,-33.85523 -56.68827,-67.71046 -85.03241,-101.56569 -28.20833,16.29167 -56.41667,32.58333 -84.625,48.875 16.375,44.90625 32.75,89.8125 49.125,134.71875 -0.46449,4.566552 -7.53736,7.264677 -10.67476,11.051583 C 341.97181,0.64516998 323.73304,19.571887 307.25,39.625 298.86921,39.395434 290.93366,34.049191 282.70579,31.86647 245.19969,18.181814 207.6936,4.4971568 170.1875,-9.1875 153.88542,19.03125 137.58333,47.25 121.28125,75.46875 c 36.66667,30.71875 73.33333,61.4375 110,92.15625 1.12738,5.44353 -3.52767,10.97738 -4.52834,16.51337 -8.15676,24.12127 -14.32053,48.8096 -18.40916,73.95538 -2.64274,2.87424 -7.10464,2.02681 -12.58418,3.46525 -43.48236,7.63658 -86.96471,15.27317 -130.44707,22.90975 0,32.59375 0,65.1875 0,97.78125 47.09375,8.27083 94.1875,16.54167 141.28125,24.8125 3.52349,2.86743 2.48521,10.18432 4.13809,14.89949 4.87498,25.49937 12.00543,50.57155 21.14316,74.88176 -1.86041,5.48092 -8.94213,8.13874 -12.85669,12.49593 -32.57902,27.30344 -65.15804,54.60688 -97.73706,81.91032 16.30208,28.20833 32.60417,56.41667 48.90625,84.625 C 215.09375,659.5 260,643.125 304.90625,626.75 c 4.55899,0.44703 7.25847,7.36943 11.02033,10.58101 16.98866,19.60525 35.92039,38.04143 56.01092,54.51274 0.96514,4.1559 -2.22552,7.92492 -3.73599,13.58635 -15.00467,41.1483 -30.00934,82.2966 -45.01401,123.4449 28.20833,16.30208 56.41667,32.60417 84.625,48.90625 30.69792,-36.66667 61.39583,-73.33333 92.09375,-110 4.87891,-1.2673 11.08523,3.32854 16.51229,4.43787 24.13247,8.19188 48.85954,14.39589 74.01896,18.49963 2.87614,2.6528 2.02436,7.04517 3.46484,12.55301 7.63672,43.49274 15.27344,86.98549 22.91016,130.47824 32.5625,0 65.125,0 97.6875,0 8.27083,-47.10417 16.54167,-94.20833 24.8125,-141.3125 3.54425,-3.57219 11.43889,-2.6813 16.79093,-4.45656 24.80493,-4.87609 49.35205,-11.87063 73.11532,-20.79344 5.48081,1.8605 8.1373,8.94334 12.49388,12.8584 27.29371,32.57845 54.58741,65.1569 81.88112,97.73535 C 951.8125,861.47917 980.03125,845.17708 1008.25,828.875 991.83333,783.96875 975.41667,739.0625 959,694.15625 c 1.85256,-5.25234 8.53037,-7.85577 12.28109,-12.13037 19.47099,-16.76419 36.93601,-35.96642 53.80461,-55.12168 12.9858,3.24611 25.9337,9.23792 38.9041,13.5379 32.4201,11.81097 64.8401,23.62193 97.2602,35.4329 16.2604,-28.20833 32.5208,-56.41667 48.7812,-84.625 -36.6354,-30.72917 -73.2708,-61.45833 -109.9062,-92.1875 -1.0854,-5.41689 3.4872,-11.01636 4.5316,-16.51229 8.1953,-24.10392 14.4196,-48.79506 18.5309,-73.92521 4.3098,-3.86923 11.8203,-2.58948 17.3856,-4.41374 41.8402,-7.32042 83.6804,-14.64084 125.5207,-21.96126 0,-32.59375 -1e-4,-65.1875 0,-97.78125 -47.0938,-8.27083 -94.1876,-16.54167 -141.2813,-24.8125 -3.631,-4.24967 -2.5159,-11.46039 -4.3836,-16.85558 -4.9182,-24.81001 -11.9598,-49.2144 -20.8977,-72.92567 1.8348,-5.51408 8.9383,-8.16272 12.8541,-12.53028 32.5487,-27.29199 65.0973,-54.58398 97.6459,-81.87597 C 1193.7708,47.25 1177.5104,19.03125 1161.25,-9.1875 c -44.9479,16.3854167 -89.8958,32.770833 -134.8438,49.15625 -5.2414,-1.80258 -7.914,-8.614932 -12.1052,-12.275632 C 997.53211,8.6295851 979.19605,-9.1414433 959.59375,-25.25 c -1.12602,-5.672192 3.68359,-11.517768 4.89988,-17.246059 14.58546,-39.897147 29.17091,-79.794291 43.75637,-119.691441 -28.21875,-16.29167 -56.4375,-32.58333 -84.65625,-48.875 -30.71875,36.66667 -61.4375,73.33333 -92.15625,110 -5.42765,1.146184 -11.01465,-3.50955 -16.54354,-4.53162 -24.19406,-8.20766 -48.88339,-14.29292 -74.01896,-18.43713 -2.87607,-2.65281 -2.02462,-7.04512 -3.46525,-12.55293 -7.63658,-43.48236 -15.27317,-86.96471 -22.90975,-130.44707 -32.5625,0 -65.125,0 -97.6875,0 -8.27083,47.09375 -16.54167,94.1875 -24.8125,141.28125 z m 78.3125,100.875 c 93.51095,0.692921 185.70683,40.142474 250.89155,107.038533 65.96477,66.365947 103.87245,159.510477 102.84495,253.180167 0.01,93.36022 -38.71005,185.72052 -104.95525,251.3438 C 853.59917,652.76757 761.46208,691.43493 668.31255,691.60736 574.97425,692.77603 482.11576,655.3225 415.64512,589.91798 348.49125,525.03817 308.61268,433.06617 307.50129,339.59437 305.44627,247.83374 340.64764,156.14531 403.40625,89.28125 465.7647,21.829822 554.79352,-20.050507 646.68151,-24.40635 c 7.86798,-0.425117 15.75249,-0.549247 23.63099,-0.46865 z" id="path4050" inkscape:connector-curvature="0"/>
      </g>
    </g>
  </g>
</svg>
