<?xml version="1.0" encoding="UTF-8" standalone="no"?>
<!-- Created with Inkscape (http://www.inkscape.org/) -->

<svg
   xmlns:dc="http://purl.org/dc/elements/1.1/"
   xmlns:cc="http://creativecommons.org/ns#"
   xmlns:rdf="http://www.w3.org/1999/02/22-rdf-syntax-ns#"
   xmlns:svg="http://www.w3.org/2000/svg"
   xmlns="http://www.w3.org/2000/svg"
   xmlns:sodipodi="http://sodipodi.sourceforge.net/DTD/sodipodi-0.dtd"
   xmlns:inkscape="http://www.inkscape.org/namespaces/inkscape"
   width="48px"
   height="48px"
   id="svg3017"
   version="1.1"
   inkscape:version="0.48.0 r9654"
   sodipodi:docname="PartDesign_InternalExternalGear.svg">
  <defs
     id="defs3019" />
  <sodipodi:namedview
     id="base"
     pagecolor="#ffffff"
     bordercolor="#666666"
     borderopacity="1.0"
     inkscape:pageopacity="0.0"
     inkscape:pageshadow="2"
     inkscape:zoom="3.5"
     inkscape:cx="24"
     inkscape:cy="35.428571"
     inkscape:current-layer="layer1"
     showgrid="true"
     inkscape:grid-bbox="true"
     inkscape:document-units="px"
     inkscape:window-width="874"
     inkscape:window-height="683"
     inkscape:window-x="175"
     inkscape:window-y="175"
     inkscape:window-maximized="0" />
  <metadata
     id="metadata3022">
    <rdf:RDF>
      <cc:Work
         rdf:about="">
        <dc:format>image/svg+xml</dc:format>
        <dc:type
           rdf:resource="http://purl.org/dc/dcmitype/StillImage" />
        <dc:title />
      </cc:Work>
    </rdf:RDF>
  </metadata>
  <g
     id="layer1"
     inkscape:label="Layer 1"
     inkscape:groupmode="layer">
    <g
       id="g7529"
       transform="matrix(0.06983396,0,0,0.06983396,24.393406,-57.803314)">
      <path
         style="fill:#ffbf00;fill-opacity:1"
         d="m -32.15103,1508.3054 c -25.54035,-0.9515 -34.52561,-2.8965 -52.5,-11.3643 -37.85774,-17.835 -72.81746,-55.4933 -97.08345,-104.5775 -24.15826,-48.8663 -39.01655,-104.3005 -45.56586,-170 -1.70678,-17.1215 -1.73216,-83.2827 -0.0391,-102 11.99443,-132.60426 66.98166,-239.31957 141.44076,-274.49818 23.17336,-10.94838 31.54476,-12.26721 78.74767,-12.40588 36.64562,-0.10766 45.77252,0.5236 58.84716,4.07014 40.9545,11.10904 82.20158,48.99293 112.77637,103.58084 28.13306,50.22848 46.86387,115.31788 51.29593,178.25308 6.06041,86.0578 -4.17025,165.1304 -30.57823,236.3387 -18.00253,48.5433 -39.35646,83.2519 -68.15478,110.7786 -16.59517,15.8624 -31.5271,25.7485 -51.22674,33.916 -12.53934,5.1989 -21.9331,6.9143 -43.63299,7.968 -21.42991,1.0406 -24.9003,1.0368 -54.32672,-0.06 z M -9.0801,1380.652 c -0.8702,-5.7169 -0.90252,-9.6502 -0.1215,-14.7884 0.5852,-3.85 1.34419,-8.8909 1.68662,-11.2019 l 0.62262,-4.2019 -26.37934,-0.2981 c -14.50863,-0.164 -26.91133,0.069 -27.56155,0.5181 -1.37109,0.9466 -5.31778,16.946 -5.31778,21.5576 l 0,3.1262 16.92734,0 16.92733,0 6.32267,3.3 c 3.47746,1.815 8.77283,4.9524 11.76749,6.9718 2.99466,2.0195 5.63986,3.4768 5.87823,3.2385 0.23837,-0.2384 -0.10009,-3.9382 -0.75213,-8.2219 z m 89.30846,-5.589 c 2.81953,-2.6131 4.32788,-7.1443 2.71088,-8.1436 -0.61932,-0.3828 -1.76047,0.9432 -2.70311,3.1409 -0.89723,2.0918 -2.0302,4.5908 -2.51772,5.5533 -1.1969,2.363 -0.45939,2.2012 2.50995,-0.5506 z m -141.06487,-60.1028 c 2.63544,-7.9698 6.02581,-16.1468 7.59027,-18.3065 1.58979,-2.1946 5.84154,-5.6937 9.71349,-7.994 10.33876,-6.1422 10.81861,-6.8947 11.23974,-17.628 0.44297,-11.2897 -1.15011,-19.1582 -4.29619,-21.2195 -1.25519,-0.8225 -5.49707,-2.108 -9.42639,-2.8567 -4.46359,-0.8505 -8.38026,-2.304 -10.4384,-3.8738 -3.87345,-2.9544 -17.69704,-27.9751 -17.69704,-32.0316 0,-4.068 2.063,-12.9714 3.55179,-15.3286 0.75086,-1.1889 4.15543,-3.1698 7.65057,-4.4515 5.58613,-2.0486 8.67022,-2.3714 27.29764,-2.8579 l 21,-0.5485 -0.1752,-4 c -0.0964,-2.2 -1.82725,-8.275 -3.84642,-13.5 -5.89358,-15.2508 -6.52336,-20.8866 -4.72372,-42.2722 1.67461,-19.8999 1.87974,-20.4781 8.4555,-23.8342 3.38818,-1.7293 6.22608,-1.8936 32.70023,-1.8936 l 28.99007,0 3.49406,4.25 c 1.92173,2.3375 4.37874,5.375 5.46002,6.75 1.92343,2.4459 2.30318,2.5073 17.55268,2.8397 18.19141,0.3964 17.67278,0.7243 15.1705,-9.5909 -0.90043,-3.7118 -2.5149,-11.9073 -3.5877,-18.2122 -1.74854,-10.2762 -1.79425,-11.6744 -0.44135,-13.5 6.2244,-8.3994 10.04853,-15.4529 14.48415,-26.7156 2.8179,-7.155 5.37217,-14.5418 5.67616,-16.4151 l 0.5527,-3.4059 -19.59358,0 -19.59358,0 -3.86918,-5.75 c -5.00566,-7.4389 -13.08029,-21.9036 -13.7771,-24.67992 -0.29855,-1.1895 0.13348,-4.16688 0.96007,-6.61641 2.24591,-6.65558 4.97716,-21.5589 4.28266,-23.36874 -0.5213,-1.35847 -2.97917,-1.58494 -17.20151,-1.58494 -15.72327,0 -16.87678,-0.1341 -21.9996,-2.55758 -5.3944,-2.55196 -17.67141,-11.00357 -18.30319,-12.60008 -0.46388,-1.17223 -31.90814,-1.06966 -32.63502,0.10645 -0.57871,0.93637 0.96816,12.58416 2.04331,15.38595 0.65102,1.69653 -12.70081,18.01284 -18.49618,22.60287 l -3.86659,3.06239 -17.54708,0 c -9.65089,0 -17.79223,0.39666 -18.09186,0.88148 -1.03059,1.66753 6.50391,26.59283 9.9138,32.79633 l 3.41387,6.2108 -3.82582,11.3057 c -5.71365,16.8845 -9.10112,24.7493 -11.12677,25.8333 -0.99927,0.5348 -9.66633,0.9724 -19.26014,0.9724 -14.22884,0 -17.67105,0.2744 -18.6792,1.4892 -0.81579,0.9829 -1.09369,3.7873 -0.81754,8.25 0.39834,6.4372 0.81764,7.4069 8.76122,20.2608 9.08912,14.7076 12.78154,19.233 17.17862,21.0544 l 2.86871,1.1882 0,9.7728 c 0,9.0963 -1.42876,27.8451 -2.47955,32.5378 -0.338,1.5094 -1.84568,2.4083 -5.69308,3.3944 -4.51354,1.1568 -6.58484,2.6527 -15.0598,10.8765 -13.06685,12.6795 -14.09221,14.4248 -13.59926,23.1488 0.46786,8.28 1.18338,9.2173 12.24841,16.0447 7.95122,4.906 8.19955,4.9824 16.20667,4.9824 5.3222,0 8.49321,0.4356 9.178,1.2607 1.09433,1.3186 8.19861,34.7101 8.19861,38.5351 0,1.2108 -2.02308,4.8067 -4.49573,7.9907 -3.23818,4.1699 -6.45495,10.6602 -11.5,23.2029 -3.85235,9.5775 -7.00427,17.7729 -7.00427,18.2121 0,0.4392 8.79545,0.7985 19.54545,0.7985 22.40003,0 21.05239,-0.5026 27.48301,10.25 1.89134,3.1625 3.90778,5.75 4.48098,5.75 0.57319,0 3.18548,-6.4815 5.80508,-14.4034 z m 168.51591,-38.5206 c 2.38174,-0.4603 4.83424,-1.3407 5.45,-1.9564 0.82609,-0.8261 -2.20955,-1.1196 -11.58043,-1.1196 -8.06431,0 -12.7,0.3768 -12.7,1.0322 0,2.6395 10.08446,3.734 18.83043,2.0438 z m 20.56258,-129.6578 c 0.89367,-2.3288 0.70959,-10.708 -0.26916,-12.2521 -1.3051,-2.0588 -2.12385,0.9927 -2.12385,7.9157 0,5.6716 1.10928,7.6818 2.39301,4.3364 z"
         id="path7533"
         inkscape:connector-curvature="0" />
      <path
         style="fill:#7a5500;fill-opacity:1"
         d="m 5.5,827.46875 c -31.985382,0.36354 -66.7281,-2.76487 -95.488177,13.75971 -47.636153,23.62578 -80.123763,69.00924 -101.972293,116.27618 -30.84792,66.97676 -43.79519,141.37496 -42.72703,215.02656 -0.59286,41.6183 3.61286,83.2472 13.15625,123.7188 13.61244,60.0221 37.66389,119.5133 79.75,165.1875 22.84753,24.0748 51.601328,44.8828 84.927449,50.7039 29.27849,4.0329 59.0477538,3.1236 88.506181,1.8332 21.26764,-1.3702 42.015345,-8.0972 59.697061,-19.9398 47.647369,-29.5716 77.907419,-79.8011 97.523359,-131.1417 32.81633,-85.5128 40.89266,-179.5137 30.12004,-270.1656 C 209.82308,1023.3836 186.51961,954.54939 143.62333,898.82225 118.89163,867.15185 86.337509,838.66951 46.1875,830.0625 32.805072,827.45109 19.10258,827.21721 5.5,827.46875 z m -41.28125,15.59375 c 38.3245992,-0.0106 72.17805,23.69852 97.03125,50.96875 42.386,46.8361 66.24106,107.78805 79.28125,168.84375 11.28604,57.0395 11.62312,115.9334 5.44504,173.6493 -6.58258,53.6972 -20.72408,106.8539 -44.37052,155.492 -21.120657,41.0707 -51.727995,80.0817 -95.3179932,98.1925 -28.8241298,11.9883 -62.9076108,11.1494 -90.4634538,-3.906 -40.259563,-21.1776 -68.765893,-58.7332 -89.011823,-98.459 -26.32423,-52.9205 -39.07328,-111.365 -44.5,-169.9376 -7.54065,-88.9754 5.361,-180.6814 43.53125,-261.56245 20.61484,-42.08314 50.9225,-81.63001 93.913009,-102.59544 13.932001,-6.472 28.998956,-10.38596 44.461991,-10.68581 z m 62.625,0.15625 c 25.325855,1.48948 49.29088,12.59185 68.660871,28.71214 42.338419,33.68448 68.929249,83.12848 86.932879,133.41291 27.08701,77.1664 30.41523,161.1263 19.96875,241.7812 -8.11263,55.0968 -23.70664,109.6918 -50.75,158.5312 -19.75661,34.8343 -47.53026,66.5529 -84.34375,83.625 -12.296805,5.9174 -26.426897,8.5976 -39.625,9.2813 47.486909,-26.4811 78.74621,-74.0554 99.21875,-123.125 34.13464,-81.1689 43.86493,-171.0191 37.72414,-258.4648 C 158.08891,1039.3692 134.02076,961.59507 87.023406,898.9203 69.873026,876.861 49.489509,856.74713 24.96875,843.09375 l 0.997785,0.0665 z m -43.75,32.15625 c -10.865751,1.56782 -13.608624,14.019 -17,22.59375 -5.515038,12.9094 -7.591639,27.38186 -11.375,40.4375 -3.079478,0.66943 -7.893993,2.53104 -9.826323,0.68367 -4.347995,-17.03615 -13.12595,-32.81581 -23.329927,-46.96492 -9.285526,-7.46302 -23.98187,2.20559 -23.03559,13.4916 -2.14721,18.42193 -2.33779,37.41599 -0.58941,55.8209 2.27844,6.40174 -5.09526,9.5026 -7.75,14.125 -2.02759,3.74968 -3.96124,1.08785 -5.84375,-1.15625 -8.78032,-8.65166 -19.07476,-16.81002 -31.09375,-20.09375 -11.11249,0.10806 -16.52968,13.13198 -14.625,22.78125 0.76763,19.58163 7.75534,38.02225 13.5625,56.40625 -0.0619,1.4654 -7.14134,23.5893 -6.18872,30.8147 0.9881,7.4945 10.07332,0.088 13.68723,0.9952 1.94689,0.4889 4.86212,-22.7235 7.82169,-22.533 14.6156,0.9407 41.279656,-2.3488 40.265692,1.5609 -0.148335,5.2128 -0.332456,8.4457 -4.662154,14.79 -2.406876,3.5269 -47.694508,0.4734 -50.903018,-0.3011 -5.67375,-1.3697 -11.73302,-3.121 -12.77072,-2.7637 -12.0181,-1.6438 -26.41399,-0.7422 -35.15625,8.5 -7.9581,10.7402 -3.268,25.4281 3.375,35.4687 5.6451,10.4328 12.44169,20.7103 21.3125,28.5313 -1.03962,10.464 0.64286,21.3011 -2.4375,31.4687 -10.68745,4.124 -18.01591,13.1385 -25.9375,20.875 -9.08526,8.6568 -11.9286,23.8226 -4.21875,34.1563 6.65513,8.7805 17.22969,13.8041 27.46875,17.2813 2.50063,1.4318 7.1287,0.046 8.39972,2.4615 1.80882,8.4596 4.57273,16.9721 5.10028,25.5697 -1.82192,7.961 -8.1803,13.9824 -10.78694,21.6856 -4.73289,11.5994 -10.32884,23.3778 -11.49431,35.9394 0.25176,8.4555 4.98728,18.4069 13.59375,20.625 8.30786,-0.4681 16.47684,-3.1236 24.3125,-5.625 3.41601,-1.2811 6.69063,-2.8763 9.75,-4.8125 5.18389,7.4675 12.19014,16.2823 8.07889,25.8614 -4.09378,20.4345 -7.05883,41.8146 -3.23514,62.4823 3.44517,8.7727 16.79752,12.0545 22.75044,4.024 9.753237,-9.3841 18.236144,-20.2092 24.65581,-32.1802 5.121815,2.2696 12.062977,5.9315 10.633432,12.7162 1.543908,19.6973 2.527296,40.0881 10.116568,58.4713 4.224056,7.8247 16.533525,9.3722 21.5625,1.4687 4.833452,-8.1471 7.844402,-17.3313 11.0625,-26.25 3.488562,-10.1546 4.858585,-21.4146 8.125,-31.2812 2.839719,-0.6154 7.516014,-2.4951 9.404243,-0.5915 6.5980049,17.4241 12.5554911,36.6707 27.127007,48.9977 10.052892,4.5958 20.578851,-6.549 19.639848,-16.494 2.092308,-19.6655 3.191362,-39.7172 0.328902,-59.3184 3.464109,-4.0161 6.696662,-8.2602 10.6875,-11.7813 9.357819,10.7713 21.524219,20.8553 36.03125,22.9063 10.739795,-1.1215 14.753491,-14.3799 12.726612,-23.6526 -1.43587,-19.3069 -7.569778,-37.858 -14.289112,-55.7537 2.229818,-6.4008 4.908424,-12.5833 6.4375,-19.2187 0.618804,-2.2076 1.531994,-5.0812 4.15625,-3 11.68329,3.078 24.8445,1.0247 35.1875,-4.5938 7.95313,-7.2165 6.71935,-19.3117 5.875,-28.9375 -8.27004,-13.5666 -15.78691,-28.0305 -28,-38.4687 1.20955,-10.4254 -0.67975,-21.9415 2.9375,-31.625 13.06943,-7.603 24.97244,-18.0068 32.25,-31.3438 4.42275,-10.809 1.21239,-24.825 -9.43522,-30.6174 -8.50585,-6.1148 -18.68699,-11.0662 -28.90853,-11.9451 -1.656332,-9.698 -4.840446,-19.2396 -5.03125,-29.1875 11.31955,-16.2736 19.269,-35.2619 22.15625,-54.9062 0.61756,-9.9553 -7.15609,-21.817 -18.21875,-19.6563 -10.410932,0.8831 -20.43623,4.4574 -29.34375,9.6563 -4.409769,-7.5915 -12.258589,-15.84411 -8.28125,-25.18755 C 64.337326,968.50642 67.38731,947.29944 64.25,926.625 61.509059,918.0936 48.927006,912.98115 42.40625,920.4375 31.229092,929.18009 23.266318,942.13665 15.5625,953.21875 11.440338,950.77876 4.5253047,948.69954 5.6595321,942.50175 4.1988544,922.33463 3.090074,901.41497 -4.78125,882.65625 c -2.6222174,-4.13143 -6.969318,-7.61515 -12.125,-7.28125 z m 0.84375,22.59375 c 2.795114,14.34993 6.008842,28.97164 5,43.625 -1.485475,2.50284 -6.444481,0.0438 -9.3125,1.21875 -5.23274,0.0945 -8.839988,7.00164 -3.78125,10.125 6.280798,3.80111 14.893536,0.12828 20.3125,6.03125 8.3775928,6.33232 17.943742,14.54087 29.15625,12.84375 5.162736,-0.30253 5.702689,-5.85371 4.34375,-9.6875 5.138486,-9.36287 11.262334,-19.01825 19.375,-26.375 0.363768,7.90187 0.322759,16.31712 -0.8125,23.9375 -4.299467,0.27893 -11.606409,0.33209 -12.3125,5.875 1.240536,4.9203 7.430849,5.6679 11.625,6.28125 -0.877795,10.94856 -8.770372,22.76045 -2.46875,33.53125 4.545641,9.2636 9.878218,18.4825 16.625,26.3125 4.676539,4.3211 13.843364,3.2308 15.0625,-3.8125 3.192773,-3.9428 9.568072,-4.3453 14.25,-6.125 2.66249,-0.4896 9.46468,-3.8221 8.625,1.4375 -1.910561,10.467 -4.259141,21.2758 -9.71875,30.625 -3.332071,7.7954 -9.906512,14.226 -12.03125,22.4063 -1.452875,11.961 4.344452,23.4244 5.0625,35.125 -5.503402,2.7355 -3.179516,11.655 2.8125,11.8437 8.602264,2.7096 20.13006,-0.7802 25.875,7.8437 1.77515,1.9284 6.312,0.6029 7.09375,2.9376 0.71219,8.3347 1.16378,18.8166 -7.2179,23.5711 -5.10007,5.399 -11.42801,9.507 -18.4071,11.7413 -7.767504,8.2388 -4.640314,20.5828 -6.96875,30.7188 -0.614735,2.2445 1.448755,6.9784 -0.9375,8.0938 -8.436724,-0.1201 -16.382396,5.1659 -22.9375,8.4374 -2.459231,-6.3786 -5.710334,-13.0844 -3,-20.125 3.770832,-8.3136 9.506791,-15.6867 11.78125,-24.75 4.490915,-12.7272 2.453432,-26.4575 4.34375,-39.6562 0.767094,-5.5262 -0.749344,-10.7015 -4.875,-14.5 -2.340594,-3.4647 -4.45273,-6.3679 -8.59375,-7.4375 -6.044365,-2.5928 -7.636438,-10.5092 -13.6875,-12.75 -3.212709,-1.2268 -46.720844,-0.6374 -48.12744661,2.2221 -0.36801562,0.7482 -6.17305159,4.6995 3.69325681,5.8638 9.9757268,1.1772 35.6294168,-0.4319 36.2466898,0.4454 3.008967,3.2898 6.560661,6.1866 8.6875,10.2187 -9.383397,9.3356 -19.318,19.7953 -21.0625,33.5625 -1.849235,6.8463 -1.29933,14.9489 -5.53125,20.5938 -5.215097,-0.2966 -5.482812,-6.6442 -5.4721,-10.6203 -0.868514,-15.0108 -1.376937,-31.0614 -10.87165,-43.5047 -1.8393936,-2.5975 2.8087055,-12.1022 1.4478153,-14.9769 -1.5058231,-3.1809 -5.9141157,-2.3014 -11.4415389,-3.9919 -9.0364004,-1.6589 -17.9468024,2.3491 -21.8500264,9.9062 -4.179092,10.0995 -2.543576,21.3784 -4.28125,32 -0.957351,14.6058 3.737408,28.753 8.9375,42 1.482542,2.9583 -3.63726,0.4715 -5.155306,1.356 -15.719377,0.4854 -33.79545,-1.9308 -47.094694,8.0503 -5.784123,5.9024 -6.490849,15.1559 -6.03125,22.9687 2.40525,9.8277 8.784625,18.0847 13.438337,26.9513 4.291496,7.1503 11.647939,12.1763 20.092913,12.58 4.015194,0.3065 8.237222,2.4995 7.4375,7.125 0.558848,6.2687 1.87383,13.8852 -1.875,19.2813 -7.476174,5.9225 -17.576442,9.8394 -20.681455,19.7458 -2.728481,5.7157 -4.554158,12.1336 -6.599795,17.9416 -3.886907,-6.7759 -11.518112,-10.6791 -19.280613,-9.6294 -7.528749,-0.2513 -15.076627,0.3204 -22.594387,-0.2768 5.04757,-14.1144 11.302599,-27.8548 19.65625,-40.25 2.68757,-9.3718 -2.727102,-18.5137 -3.53125,-27.7188 -1.618335,-6.7859 -1.746955,-15.4703 -7.5,-20.0937 -7.85387,-3.6568 -18.10982,0.8906 -24.625,-6 -4.52737,-2.3074 -10.38937,-5.5629 -9.5,-11.625 -0.99305,-8.625 8.43611,-12.815 12.75,-18.7813 4.84137,-5.399 11.39749,-8.8777 18.03125,-11.2187 7.163889,-6.2798 3.92657,-16.8425 5.787552,-25.0914 0.625484,-9.3623 0.599697,-18.7495 0.524948,-28.1273 -13.58995,-2.4402 -17.28911,-17.7152 -24.875,-27.125 -2.60717,-4.3338 -4.45315,-9.2745 -4.0625,-14.375 12.21712,-1.6375 25.63913,1.9699 37.0625,-3.0313 8.910358,-10.7929 10.529111,-25.2931 16.0625,-37.7813 1.602351,-8.7004 -6.181802,-15.205 -7.65625,-23.4062 -1.585577,-4.6122 -2.757314,-9.2361 -3.96875,-13.96875 10.747468,-0.84946 22.019226,1.33557 32.4375,-1.5 9.892343,-8.26411 20.266876,-17.62273 24.40625,-30.1875 -0.416186,-6.8486 -4.395743,-14.84977 0.46875,-20.78125 1.455056,-5.73599 -0.374531,-11.72571 1.9375,-17.375 2.220432,-11.04769 5.740119,-21.78911 9.90625,-32.3125 l 0.229039,0.97342 z m -69.53125,13.0625 c 8.523159,14.05834 14.908624,29.40377 18.25,45.59375 7.361383,0.99954 14.93617,-0.27426 22.1875,1.0625 2.561544,4.90417 -4.724666,1.77872 -7.374965,2.6369 -11.038049,-0.008 -22.276335,0.40882 -33.187535,-0.6369 -2.68662,-15.9499 -1.380833,-33.03951 0.125,-48.65625 z m -58.5,61.9375 c 9.6145,5.90959 18.67296,13.1465 24.09375,23.09375 5.12774,5.0186 12.67795,2.53599 19.03125,3.40625 2.067551,8.31225 5.341437,16.45515 7.65625,24.59375 -13.17069,0.4591 -26.36118,0.556 -39.53125,0.031 -7.76977,-15.268 -10.20113,-32.69357 -12.8125,-49.4063 0.32198,-0.88384 -0.31116,-3.88542 1.5625,-1.71875 z m 80.3125,3.40625 c 2.397711,0.94133 12.744931,-1.85874 9.6875,1.75 -2.457979,4.18268 -6.968225,6.49394 -11.75,5.21875 -9.72919,-0.0233 -19.459133,0.11366 -29.1875,-0.0625 2.997758,-3.85002 6.241967,-8.77071 11.937481,-6.88117 6.437385,-0.0325 12.875159,-0.0823 19.312519,-0.0251 z m -104.25,95 c 8.88521,0.7838 17.62486,6.9093 26.4375,6.0938 -1.18567,13.9193 9.08452,25.1946 15.93754,36.2846 2.30591,3.2376 -4.68769,0.7819 -6.96879,1.3716 -9.49685,0.1773 -19.51115,0.8899 -28.78125,-0.375 -9.30187,-9.8146 -17.69247,-21.4585 -21.78125,-34.5625 -1.09641,-3.75 1.16424,-7.7571 5.375,-7.4375 3.22831,-0.8629 6.47525,-1.0975 9.78125,-1.375 z m 155.84375,46 c 7.9309713,10.8206 12.57473078,23.8529 12.1875,37.3125 0.48860041,11.0177 2.0419718,25.9377 14.21875,30.0937 8.878673,3.9367 21.14878,0.3182 23.75,-9.7187 5.609701,-13.802 3.685713,-31.8016 16.75,-41.5937 1.1441,-0.7395 3.022564,-4.7656 4,-3.7188 -0.133847,8.7879 -0.125657,17.7635 -0.96875,26.5 -1.009346,10.9854 -6.117539,20.858 -11.625,30.1875 -4.8053,9.3234 -5.665534,20.7192 -0.839523,30.2396 1.984803,8.328 8.517952,18.2345 18.339523,16.3854 7.608215,-0.5535 13.137589,-8.7463 20.728019,-7.7852 6.149784,2.4335 13.865184,6.8827 12.803231,14.7227 0.992224,7.9593 -7.700411,12.119 -11.5625,18.125 -2.889535,4.1077 -7.900188,3.2456 -12.125,2.0312 -7.194213,-2.0099 -16.272267,-0.3355 -19.40625,7.2188 -5.147778,9.6327 -7.26289,21.4759 -5.25,32.1875 4.212308,14.178 20.363586,22.1736 20.875,37.875 1.620922,8.7499 5.005134,18.4583 2.59375,27.125 -12.826904,-4.578 -17.522382,-19.3352 -21.603226,-31.2184 -2.022969,-9.7823 -13.969274,-16.5731 -22.865524,-10.9379 -9.92042,3.826 -15.699665,14.4484 -14.40625,24.8438 -1.016894,13.2399 2.044117,27.3352 -2.03125,39.9688 -1.9614708,4.7888 -3.5723232,9.7127 -5.8125,14.3437 -3.9665464,-15.4432 -7.7772745,-31.9383 -2.6934008,-47.6042 2.5778945,-11.8165 4.1091052,-26.2718 -5.3378492,-35.5833 -4.7793481,-6.8768 -15.923337,-12.1483 -22.78125,-5.2188 -9.026323,7.4913 -10.731781,23.0946 -23.34375,26.0938 -2.071238,-0.156 -6.470581,3.0072 -6.1875,-0.9688 -3.153853,-10.758 4.854186,-20.516 6.84375,-30.7812 5.022488,-11.4564 20.637752,-13.3488 24.40625,-25.7188 2.574892,-7.6826 0.612546,-15.9361 0.5,-23.875 -0.48339,-9.0855 -6.402831,-18.4635 -16.03125,-19.4687 -6.069022,-0.8767 -13.17896,-2.8336 -15.28125,-9.375 -4.17418,-7.7829 -12.336573,-16.6544 -8.34375,-26 4.321264,-4.5212 13.328217,-6.3557 17.625,-0.875 5.73551,6.4085 12.066515,15.7225 22.03125,13.7813 9.209376,-2.3633 13.8987575,-12.3365 16.65625,-20.6563 6.14532645,-19.7056 -11.314044,-37.1635 -8,-56.9687 0.997635,-6.8435 0.678472,-14.7278 2.1875,-20.9688 z m -114.5625,14 c 4.41855,0.6577 9.94175,-0.9227 13.65625,0.8125 0.0433,8.7543 -0.63418,17.4948 -1.625,26.1875 -13.77041,-0.051 -27.54287,0.1493 -41.3125,-0.094 0.56108,-8.7924 0.18034,-18.4482 2.75,-26.5624 8.83832,-0.3999 17.68736,-0.2524 26.53125,-0.3438 z m -8.6875,44.1875 c -8.69803,7.9535 -17.70511,19.2656 -13.96875,31.8437 0.68749,3.2426 2.20676,6.2693 4.1875,8.9063 -9.65066,0.062 -20.34435,2.8 -29.40625,-0.9687 -6.12674,-3.6462 -16.35917,-5.8004 -17.125,-14.25 1.28466,-8.6179 10.38087,-12.6624 14.90625,-19.4376 8.64507,-8.9047 21.97445,-5.211 32.99996,-6.1649 2.6364,0.051 6.3983,-0.2152 8.40629,0.071 z m 110.46875,21.2187 c -0.96151,3.6256 -5.344102,-2.3298 -0.3125,-0.375 0.30679,0.033 1.011225,-0.2528 0.3125,0.375 z m -85.4375,34.5313 c 1.20673,3.316 1.20498,7.555 2.5179,10.9787 1.03958,4.8555 2.00416,9.7293 2.70085,14.6463 -13.78285,0.5408 -27.59814,0.7897 -41.375,-0.031 -1.57856,-8.1638 -3.38959,-16.2904 -4.53125,-24.5312 13.54528,-0.816 27.14886,-0.3882 40.6875,-1.0625 z M 111.375,1253.25 c 2.13708,2.1298 4.44432,6.101 3.1875,8.875 -3.73729,0.4419 -7.92959,0.091 -11.40625,0.2188 3.03717,-2.7335 5.0314,-6.6255 8.21875,-9.0938 z m -222.90625,20 c 1.59202,0.3001 -2.09776,3.2573 -1.79406,4.6267 -4.50207,9.306 -8.09087,19.4315 -12.51844,28.5608 -8.19933,-0.057 -16.65019,2.5179 -21.9375,8.9375 -5.95162,3.5943 -12.99488,5.1356 -19.78125,6 -1.89077,-8.5188 3.77834,-16.4767 5.79936,-24.6214 3.25581,-7.7708 5.93746,-17.1187 12.70064,-22.3786 12.31841,-1.4462 25.07831,-0.2486 37.53125,-1.125 z m 179.71875,3.0312 c 1.342562,0.3618 5.685816,-0.2756 3.25,2.0626 -2.126764,5.6329 -4.239891,12.1459 -6.375,17.25 -1.564814,-6.3935 0.450673,-13.7117 3.125,-19.3126 z m -160.96875,46.0626 c 5.171485,0.054 11.627935,-0.7877 13.574501,5.2458 1.981973,3.06 3.726477,6.2301 5.362999,9.4729 -13.047254,0.3812 -26.126753,0.7003 -39.15625,-0.2813 -2.38013,-4.4762 -6.55233,-10.1917 -7.5625,-14.125 9.25591,-0.4721 18.52379,0 27.78125,-0.3124 z m 76.59375,4.0624 c 7.0975375,5.1522 7.5184196,15.5515 3.387131,22.8151 -2.047385,9.35 -2.944262,19.1369 -2.762131,28.7475 -8.281368,-6.2231 -18.494258,-10.3078 -28.999688,-8.6813 -4.896123,-0.2759 -10.87644,0.9013 -15.156562,-0.35 0.872947,-4.1057 1.286284,-9.4851 3.46875,-12.625 12.85931,1.2103 25.413986,-5.669 31.361169,-17.0432 2.74936,-4.3419 4.917246,-9.3781 8.701331,-12.8631 z m 51.125,11 c 1.676919,3.6455 5.458089,9.0933 1.09375,12.125 -2.205259,1.5555 -7.460227,10.354 -6.96875,3.6563 -0.688025,-5.4669 -0.751548,-14.4234 5.875,-15.7813 z M -72.78125,1354.25 c 3.357962,-0.5793 -0.375347,3.05 0.03125,4.6562 -1.021373,3.3027 0.519705,10.6247 -5.1875,9.4688 -7.212462,-0.032 -17.791786,-0.3318 -19.9375,8.4688 -5.02083,10.8186 -11.91502,20.581 -20.21875,29.0937 0.64808,-17.0777 0.53719,-34.6591 5.75,-51.0625 13.190329,-0.4853 26.430561,0.095 39.5625,-0.625 z M -43.5,1383.1875 c 7.032789,0.04 -15.456865,1.4257 -20.337895,1.3684 -1.958184,-1.5782 -14.002993,-6.2804 -3.289732,-8.071 3.74091,-0.6252 16.302466,0.3774 24.726222,0.2422 1.083454,-0.017 10.501786,6.4959 11.584807,6.4609 z m -12.28125,15.5313 c 5.103821,0.1075 10.228361,-0.023 15.3125,0.5 -2.251174,15.5529 -6.175919,30.7845 -11.8125,45.3437 -4.435511,-14.8379 -5.526793,-30.4653 -5.90625,-45.9063 0.802083,0.021 1.604167,0.042 2.40625,0.063 z M 19,1413.0625 c -0.200606,7.3426 -0.333514,14.7202 -1.75,21.9063 -2.298915,-4.2116 -6.248627,-9.0854 -6.9375,-13.0938 5.395557,-0.7332 8.053051,-5.955 8.71875,-10.8125 l -0.01562,0.9999 -0.01562,0.9999 z"
         id="path7531"
         inkscape:connector-curvature="0"
         sodipodi:nodetypes="cccccccccccccccccccccccccccccccccccccccccccccccccccssscsscccccccccccccccccccccccccccccccccccccccccccccccccccccccccccccccccccccccccccccccccccccssccccccsccccccccccccccccccccccccccccccccccccccccccccccccccccccccccccccccccccccccccccccccccccccccccccccccccccccccccccccccccccccccccccccccccccccccccccccccccccccccccccccccccccccccccccccscccccccccscccccs" />
    </g>
  </g>
</svg>
