<?xml version="1.0" encoding="UTF-8" standalone="no"?>
<!-- Created with Inkscape (http://www.inkscape.org/) -->

<svg
   width="64"
   height="64"
   id="svg2869"
   version="1.1"
   viewBox="0 0 64 64"
   xmlns:xlink="http://www.w3.org/1999/xlink"
   xmlns="http://www.w3.org/2000/svg"
   xmlns:svg="http://www.w3.org/2000/svg"
   xmlns:rdf="http://www.w3.org/1999/02/22-rdf-syntax-ns#"
   xmlns:cc="http://creativecommons.org/ns#"
   xmlns:dc="http://purl.org/dc/elements/1.1/">
  <defs
     id="defs2871">
    <linearGradient
       id="linearGradient293">
      <stop
         style="stop-color:#edd400;stop-opacity:1;"
         offset="0"
         id="stop292" />
      <stop
         style="stop-color:#b49306;stop-opacity:1;"
         offset="1"
         id="stop293" />
    </linearGradient>
    <linearGradient
       id="linearGradient33">
      <stop
         style="stop-color:#edd400;stop-opacity:1;"
         offset="0"
         id="stop33" />
      <stop
         style="stop-color:#f9e947;stop-opacity:1;"
         offset="1"
         id="stop34" />
    </linearGradient>
    <linearGradient
       id="linearGradient5">
      <stop
         style="stop-color:#ef2929;stop-opacity:1;"
         offset="0"
         id="stop19" />
      <stop
         style="stop-color:#ef2929;stop-opacity:0;"
         offset="1"
         id="stop20" />
    </linearGradient>
    <linearGradient
       id="swatch18">
      <stop
         style="stop-color:#ef2929;stop-opacity:1;"
         offset="0"
         id="stop18" />
    </linearGradient>
    <linearGradient
       id="swatch15">
      <stop
         style="stop-color:#3d0000;stop-opacity:1;"
         offset="0"
         id="stop15" />
    </linearGradient>
    <linearGradient
       id="linearGradient5-1">
      <stop
         style="stop-color:#ef2929;stop-opacity:1;"
         offset="0"
         id="stop5" />
      <stop
         style="stop-color:#ef2929;stop-opacity:0;"
         offset="1"
         id="stop6" />
    </linearGradient>
    <linearGradient
       id="linearGradient3836-9">
      <stop
         style="stop-color:#a40000;stop-opacity:1"
         offset="0"
         id="stop3838-8" />
      <stop
         style="stop-color:#ef2929;stop-opacity:1"
         offset="1"
         id="stop3840-1" />
    </linearGradient>
    <linearGradient
       id="linearGradient3836-9-3">
      <stop
         style="stop-color:#a40000;stop-opacity:1"
         offset="0"
         id="stop3838-8-5" />
      <stop
         style="stop-color:#ef2929;stop-opacity:1"
         offset="1"
         id="stop3840-1-6" />
    </linearGradient>
    <linearGradient
       y2="5"
       x2="-22"
       y1="18"
       x1="-18"
       gradientUnits="userSpaceOnUse"
       id="linearGradient3082"
       xlink:href="#linearGradient3836-9-3" />
    <linearGradient
       id="linearGradient3836-9-7">
      <stop
         style="stop-color:#a40000;stop-opacity:1"
         offset="0"
         id="stop3838-8-0" />
      <stop
         style="stop-color:#ef2929;stop-opacity:1"
         offset="1"
         id="stop3840-1-9" />
    </linearGradient>
    <linearGradient
       y2="5"
       x2="-22"
       y1="18"
       x1="-18"
       gradientUnits="userSpaceOnUse"
       id="linearGradient3082-3"
       xlink:href="#linearGradient3836-9-7" />
    <linearGradient
       xlink:href="#linearGradient3836-9-3"
       id="linearGradient3801-1-3"
       gradientUnits="userSpaceOnUse"
       x1="-18"
       y1="18"
       x2="-22"
       y2="5"
       gradientTransform="matrix(0.76342439,0,0,0.75750425,-4.596389,2.7525637)" />
    <linearGradient
       xlink:href="#linearGradient3836-9-3"
       id="linearGradient3801-1-3-2"
       gradientUnits="userSpaceOnUse"
       x1="-18"
       y1="18"
       x2="-22"
       y2="5"
       gradientTransform="matrix(0.84956703,0,0,0.84301394,-2.927337,1.7790378)" />
    <linearGradient
       xlink:href="#linearGradient3838"
       id="linearGradient3844"
       x1="36"
       y1="1039.3622"
       x2="32"
       y2="1003.3622"
       gradientUnits="userSpaceOnUse"
       gradientTransform="translate(2.0563921e-6,-988.36218)" />
    <linearGradient
       id="linearGradient3838">
      <stop
         style="stop-color:#d3d7cf;stop-opacity:1;"
         offset="0"
         id="stop3840" />
      <stop
         style="stop-color:#ffffff;stop-opacity:1;"
         offset="1"
         id="stop3842" />
    </linearGradient>
    <linearGradient
       xlink:href="#linearGradient3830"
       id="linearGradient3836"
       x1="36"
       y1="1037.3622"
       x2="32"
       y2="1005.3622"
       gradientUnits="userSpaceOnUse"
       gradientTransform="translate(2.0563921e-6,-988.36218)" />
    <linearGradient
       id="linearGradient3830">
      <stop
         style="stop-color:#ffffff;stop-opacity:1;"
         offset="0"
         id="stop3832" />
      <stop
         style="stop-color:#d3d7cf;stop-opacity:1;"
         offset="1"
         id="stop3834" />
    </linearGradient>
    <linearGradient
       x1="10.504496"
       y1="16.48678"
       x2="5.9349072"
       y2="1.6356685"
       id="linearGradient-1"
       gradientTransform="scale(0.99999018,1.0000098)"
       gradientUnits="userSpaceOnUse">
      <stop
         stop-color="#A40000"
         offset="0%"
         id="stop6-9" />
      <stop
         stop-color="#EF2929"
         offset="100%"
         id="stop8" />
    </linearGradient>
    <linearGradient
       xlink:href="#linearGradient3815"
       id="linearGradient3856"
       gradientUnits="userSpaceOnUse"
       x1="80"
       y1="58"
       x2="79"
       y2="42" />
    <linearGradient
       id="linearGradient3815">
      <stop
         style="stop-color:#3465a4;stop-opacity:1"
         offset="0"
         id="stop3817" />
      <stop
         style="stop-color:#729fcf;stop-opacity:1"
         offset="1"
         id="stop3819" />
    </linearGradient>
    <linearGradient
       xlink:href="#linearGradient3841"
       id="linearGradient3858"
       gradientUnits="userSpaceOnUse"
       x1="109"
       y1="51"
       x2="105"
       y2="38" />
    <linearGradient
       id="linearGradient3841">
      <stop
         style="stop-color:#204a87;stop-opacity:1"
         offset="0"
         id="stop3843" />
      <stop
         style="stop-color:#3465a4;stop-opacity:1"
         offset="1"
         id="stop3845" />
    </linearGradient>
    <linearGradient
       y2="5"
       x2="-22"
       y1="18"
       x1="-18"
       gradientTransform="matrix(0.77114848,0,0,0.77113937,-4.4090973,2.5859051)"
       gradientUnits="userSpaceOnUse"
       id="linearGradient3898"
       xlink:href="#linearGradient3836-9-3" />
    <linearGradient
       xlink:href="#linearGradient3815"
       id="linearGradient3978"
       gradientUnits="userSpaceOnUse"
       x1="-15"
       y1="37"
       x2="-19"
       y2="37"
       gradientTransform="rotate(135.18861,5.7426909,37.969029)" />
    <linearGradient
       xlink:href="#linearGradient17"
       id="linearGradient3898-0"
       x1="37.429146"
       y1="41.590584"
       x2="24.483221"
       y2="4.9104676"
       gradientUnits="userSpaceOnUse" />
    <linearGradient
       id="linearGradient17">
      <stop
         style="stop-color:#ffffff;stop-opacity:1;"
         offset="0"
         id="stop16" />
      <stop
         style="stop-color:#ffffff;stop-opacity:0"
         offset="1"
         id="stop17" />
    </linearGradient>
    <linearGradient
       xlink:href="#linearGradient17"
       id="linearGradient3856-9"
       x1="22.84341"
       y1="4.8241611"
       x2="30.783579"
       y2="28.644661"
       gradientUnits="userSpaceOnUse" />
    <linearGradient
       id="linearGradient2">
      <stop
         style="stop-color:#73d216;stop-opacity:1;"
         offset="0"
         id="stop1" />
      <stop
         style="stop-color:#8ae234;stop-opacity:1;"
         offset="1"
         id="stop2" />
    </linearGradient>
    <linearGradient
       xlink:href="#linearGradient33"
       id="linearGradient290"
       x1="27.691408"
       y1="52.216793"
       x2="24.470142"
       y2="3.7211301"
       gradientUnits="userSpaceOnUse" />
    <linearGradient
       xlink:href="#linearGradient293"
       id="linearGradient292"
       x1="26.869656"
       y1="43.405773"
       x2="25.056751"
       y2="28.595715"
       gradientUnits="userSpaceOnUse" />
  </defs>
  <metadata
     id="metadata2874">
    <rdf:RDF>
      <cc:Work
         rdf:about="">
        <dc:format>image/svg+xml</dc:format>
        <dc:type
           rdf:resource="http://purl.org/dc/dcmitype/StillImage" />
        <dc:creator>
          <cc:Agent>
            <dc:title>[maxwxyz]</dc:title>
          </cc:Agent>
        </dc:creator>
        <dc:relation>https://www.freecad.org/wiki/index.php?title=Artwork</dc:relation>
        <dc:publisher>
          <cc:Agent>
            <dc:title>FreeCAD</dc:title>
          </cc:Agent>
        </dc:publisher>
        <dc:identifier>FreeCAD/src/Mod/Sketcher/Gui/Resources/icons/Sketcher_CreateArc.svg</dc:identifier>
        <dc:rights>
          <cc:Agent>
            <dc:title>FreeCAD LGPL2+</dc:title>
          </cc:Agent>
        </dc:rights>
        <dc:date>2023-12-19</dc:date>
      </cc:Work>
    </rdf:RDF>
  </metadata>
  <g
     id="layer3"
     style="display:inline">
    <g
       id="g288"
       style="display:inline">
      <path
         d="M 39.021293,3.8583037 28.220014,6.7707121 c 0.573226,1.2162132 0.933602,2.5916952 1.029692,3.9303889 l 0.0534,0.746383 c 0.05525,0.769916 0.166716,1.552114 0.33263,2.330917 0.245581,1.153032 0.780111,2.213413 1.460075,2.895415 0.610043,0.612064 1.284312,0.866379 1.874279,0.70728 0.06473,-0.0175 0.128288,-0.04015 0.19016,-0.06738 0.424565,-0.186492 0.819064,-0.460578 1.176056,-0.816796 l 0.346623,-0.345191 c 0.315437,-0.314869 0.676426,-0.529526 1.068839,-0.635311 0.375184,-0.101157 0.774841,-0.102156 1.184833,-0.0023 L 47.737882,12.60175 c -0.410046,-0.09973 -0.809649,-0.0989 -1.184833,0.0023 l -4.57681,1.233737 c -0.02642,-0.025 -0.05233,-0.04995 -0.07846,-0.07615 -0.679918,-0.68218 -1.214497,-1.742431 -1.460078,-2.895464 C 40.271787,10.08737 40.159669,9.304857 40.104388,8.5350735 l -0.0534,-0.7463822 C 39.9549,6.4499978 39.594481,5.0746476 39.021293,3.8583018 Z"
         style="fill:#fce94f;fill-rule:evenodd;stroke:#231f0b;stroke-width:2;stroke-linecap:round;stroke-linejoin:round;stroke-dasharray:none;stroke-opacity:1"
         id="path288" />
      <path
         d="m 55.267725,40.880642 -10.801277,2.912409 c -0.305474,0.292733 -0.651924,0.49315 -1.027094,0.594311 l 6.224469,-1.678674 4.57681,-1.233734 c 0.375174,-0.101174 0.721617,-0.301578 1.027092,-0.594312 z m -11.828371,3.50672 c -0.392428,0.105808 -0.811467,0.101852 -1.241048,-0.01207 l -0.47184,-0.12498 c -0.486215,-0.128935 -0.964555,-0.167803 -1.424924,-0.115733 -0.06708,0.0076 -0.132818,0.02003 -0.197528,0.03748 -0.589958,0.159072 -1.047239,0.718694 -1.271497,1.555636 -0.249942,0.932797 -0.186652,2.119563 0.173563,3.241608 l 0.870174,2.186092 c 0.112514,0.220171 0.221016,0.444786 0.324842,0.673582 0.581969,1.207604 0.95337,2.580228 1.061251,3.92194 l 3.82474,-1.031731 6.976537,-1.880678 C 51.955761,51.496731 51.584355,50.12429 51.002375,48.91657 50.89858,48.687768 50.790029,48.463111 50.67753,48.242987 l -0.869489,-2.185909 c -0.360178,-1.122077 -0.42419,-2.308994 -0.174248,-3.241789 0.0095,-0.0356 0.01943,-0.07123 0.02984,-0.105934 z"
         style="fill:#edd400;fill-rule:evenodd;stroke:#231f0b;stroke-width:2;stroke-linecap:round;stroke-linejoin:round;stroke-dasharray:none;stroke-opacity:1"
         id="path287" />
      <path
         d="m 36.202558,52.186455 c -0.246517,-0.05995 -0.488339,-0.06029 -0.716597,0.0013 -0.194371,0.05232 -0.37677,0.149175 -0.541261,0.287157 -0.556424,0.466774 -0.878705,1.377364 -0.881013,2.487156 l 0.164777,2.301379 c 0.0418,0.252425 0.07829,0.505276 0.108488,0.756731 0.193583,1.355722 0.120467,2.65564 -0.208104,3.714855 l 10.80146,-2.913096 c 0.3286,-1.059205 0.401515,-2.358585 0.207924,-3.714168 -0.01553,-0.128974 -0.0328,-0.258522 -0.05133,-0.387876 l -3.824556,1.031044 c -0.187631,-0.01941 -0.378672,-0.06737 -0.570105,-0.129972 -0.03156,-0.01032 -0.06278,-0.019 -0.09437,-0.03046 -0.02501,-0.0091 -0.04989,-0.01393 -0.07491,-0.0238 -0.164758,-0.06454 -0.329073,-0.147611 -0.492429,-0.242198 -0.03481,-0.02016 -0.06879,-0.04593 -0.103506,-0.06743 -0.154807,-0.09585 -0.307911,-0.205125 -0.459526,-0.32673 -0.05028,-0.04033 -0.100196,-0.08015 -0.150061,-0.123269 -0.181463,-0.1569 -0.360845,-0.325191 -0.534424,-0.517321 l -0.434837,-0.481736 c -3.79e-4,-4.07e-4 -8.07e-4,-6.31e-4 -0.0012,-0.0011 C 38.122984,53.55912 37.892821,53.328709 37.65942,53.11776 37.425799,52.906644 37.188521,52.714694 36.94786,52.542686 36.700361,52.365712 36.449098,52.246321 36.202567,52.186428 Z"
         style="fill:#c4a000;fill-rule:evenodd;stroke:#231f0b;stroke-width:2;stroke-linecap:round;stroke-linejoin:round;stroke-dasharray:none;stroke-opacity:1"
         id="path286" />
      <path
         d="m 28.917058,54.146049 c -0.03192,-0.0081 -0.06383,-0.01493 -0.09559,-0.02044 -0.211064,-0.03665 -0.416174,-0.02863 -0.610581,0.02382 -0.456482,0.123037 -0.837221,0.487045 -1.090112,1.042691 l -0.583444,1.800268 c -0.04014,0.217103 -0.08671,0.429438 -0.138249,0.63623 -0.246635,1.140336 -0.743385,2.020228 -1.420405,2.513149 l 6.980681,-1.882511 -0.137881,-0.346383 c -0.130523,-0.328045 -0.273089,-0.646606 -0.421055,-0.959557 -0.04281,-0.09053 -0.0875,-0.179134 -0.131708,-0.268289 -0.05461,-0.110126 -0.113876,-0.214921 -0.170564,-0.322804 -0.09212,-0.175312 -0.179433,-0.355752 -0.276841,-0.524743 l -5.12e-4,-8.9e-4 c -0.124672,-0.216261 -0.260782,-0.409976 -0.401317,-0.590437 -0.02568,-0.03298 -0.05052,-0.06743 -0.07668,-0.0992 -0.137093,-0.166357 -0.280545,-0.314491 -0.427422,-0.443814 -0.0295,-0.02597 -0.05965,-0.04879 -0.0895,-0.07323 -0.05746,-0.04702 -0.116789,-0.07869 -0.175182,-0.119709 -0.06104,-0.04287 -0.121524,-0.08875 -0.183331,-0.124833 -0.06218,-0.03626 -0.123984,-0.07896 -0.186373,-0.108007 -0.02515,-0.01171 -0.05045,-0.02149 -0.07564,-0.03203 -0.09628,-0.04026 -0.192569,-0.07509 -0.288307,-0.0993 z"
         style="fill:#c4a000;fill-rule:evenodd;stroke:#231f0b;stroke-width:2;stroke-linecap:round;stroke-linejoin:round;stroke-dasharray:none;stroke-opacity:1"
         id="path285" />
      <path
         d="m 20.862994,49.519795 c -0.05756,-0.01398 -0.114965,-0.0248 -0.171636,-0.02908 -0.0038,-2.91e-4 -0.0076,-0.0013 -0.0113,-0.0016 -0.03585,-0.0025 -0.07072,-1.6e-5 -0.106245,1.98e-4 -0.04396,2.73e-4 -0.08809,-6.2e-4 -0.131368,0.0038 -0.01473,0.0015 -0.02909,0.0054 -0.04372,0.0074 l -0.360779,0.09737 -1.176241,0.817482 c -0.111314,0.123643 -0.226486,0.238704 -0.345939,0.345374 -0.315443,0.314868 -0.676429,0.529525 -1.068838,0.635312 l 4.566823,-1.231998 c -0.10323,-0.09687 -0.207846,-0.185528 -0.313583,-0.261897 -0.01402,-0.01007 -0.02704,-0.02551 -0.04108,-0.03526 -0.02214,-0.01535 -0.04482,-0.02774 -0.06705,-0.04222 -0.06075,-0.03956 -0.121748,-0.06408 -0.182797,-0.09676 -0.03592,-0.01925 -0.07204,-0.03932 -0.107995,-0.05613 -0.08872,-0.04144 -0.177107,-0.07693 -0.265236,-0.103412 -0.05776,-0.01734 -0.115453,-0.03456 -0.173015,-0.04853 z"
         style="fill:#fce94f;fill-rule:evenodd;stroke:#231f0b;stroke-width:2;stroke-linecap:round;stroke-linejoin:round;stroke-dasharray:none;stroke-opacity:1"
         id="path284" />
      <path
         d="m 14.326163,21.293092 -4.5666405,1.231316 c 0.3924265,-0.105796 0.8112285,-0.101182 1.2408635,0.01276 l 0.471157,0.124797 c 0.48627,0.128949 0.964552,0.167812 1.424925,0.115733 l 0.368716,-0.09966 c 0.0096,-0.0041 0.01971,-0.0063 0.0292,-0.01055 0.04922,-0.0221 0.09635,-0.05038 0.143327,-0.07846 0.02229,-0.01334 0.04571,-0.02388 0.06745,-0.03853 0.0048,-0.0033 0.0091,-0.0077 0.01392,-0.01097 0.09147,-0.06319 0.172422,-0.1492 0.253366,-0.234936 0.06527,-0.06913 0.126538,-0.145919 0.184438,-0.22915 0.02198,-0.03163 0.04186,-0.0665 0.06269,-0.100068 0.03633,-0.05851 0.07697,-0.109978 0.109667,-0.174214 0.01247,-0.02453 0.02591,-0.0476 0.03785,-0.07292 0.0071,-0.01508 0.01151,-0.03408 0.01843,-0.04946 0.05376,-0.119589 0.09934,-0.249509 0.140693,-0.385668 z"
         style="fill:#fce94f;fill-rule:evenodd;stroke:#231f0b;stroke-width:2;stroke-linecap:round;stroke-linejoin:round;stroke-dasharray:none;stroke-opacity:1"
         id="path283" />
      <path
         d="m 18.91307,9.2801573 -6.976719,1.8813637 c 0.831159,0.08631 1.698482,0.597307 2.478673,1.460914 l 0.435685,0.481308 c 0.44868,0.496657 0.918434,0.921659 1.400134,1.266 0.495016,0.353883 1.005498,0.477331 1.462073,0.354274 0.194321,-0.05245 0.376003,-0.148631 0.540393,-0.286656 0.09706,-0.08137 0.18495,-0.181493 0.268066,-0.289798 0.01974,-0.02574 0.0395,-0.05132 0.05837,-0.07845 0.03652,-0.0525 0.06656,-0.115401 0.09986,-0.173166 0.03707,-0.06437 0.06755,-0.137323 0.100297,-0.207594 0.03068,-0.06586 0.06712,-0.123873 0.09389,-0.194612 0.01353,-0.03583 0.02801,-0.07052 0.04052,-0.10748 0.06269,-0.185258 0.112349,-0.385291 0.14838,-0.597498 0.0071,-0.04184 0.01222,-0.08546 0.01823,-0.128153 0.03185,-0.226301 0.05357,-0.461076 0.05409,-0.71023 l -3.2e-4,-0.0015 -0.04248,-0.587633 -0.122483,-1.7130585 c -0.02038,-0.1228033 -0.03906,-0.2453629 -0.05666,-0.3679881 z"
         style="fill:#fce94f;fill-rule:evenodd;stroke:#231f0b;stroke-width:2;stroke-linecap:round;stroke-linejoin:round;stroke-dasharray:none;stroke-opacity:1"
         id="path282" />
      <path
         d="M 29.871122,2.2650174 19.069162,5.177243 c 0.810792,0.7520468 1.519794,1.8415556 2.02571,3.1131282 l 0.282335,0.7092331 c 0.291011,0.731252 0.626821,1.4277797 1.000668,2.0762597 0.553405,0.960009 1.28574,1.585914 1.999525,1.710322 0.211065,0.03665 0.41599,0.02931 0.610398,-0.02314 0.456484,-0.123037 0.837218,-0.487043 1.090112,-1.042689 l 0.583261,-1.7995841 3.62e-4,-0.00135 c 0.04017,-0.2172355 0.08601,-0.4296207 0.137573,-0.6364098 0.05482,-0.2534797 0.126648,-0.4888834 0.205739,-0.7159005 0.02211,-0.063603 0.04556,-0.1243953 0.06953,-0.1857023 0.06964,-0.1781314 0.146558,-0.3465505 0.231187,-0.504749 0.02088,-0.039006 0.0394,-0.081146 0.06115,-0.1188582 0.09419,-0.1634243 0.194257,-0.3174545 0.304466,-0.4557135 0.01662,-0.020858 0.03522,-0.037823 0.05217,-0.058055 0.0221,-0.026379 0.04576,-0.04968 0.06844,-0.075013 0.134483,-0.1502239 0.275663,-0.2872136 0.42823,-0.3982955 L 32.040605,5.7408242 31.896335,5.3772911 C 31.39037,4.1058485 30.681982,3.0170959 29.871123,2.2650322 Z"
         style="fill:#fce94f;fill-rule:evenodd;stroke:#231f0b;stroke-width:2;stroke-linecap:round;stroke-linejoin:round;stroke-dasharray:none;stroke-opacity:1"
         id="path281" />
      <path
         d="m 53.683945,26.152917 -10.801277,2.912409 c -0.258025,1.129991 -0.764816,1.994294 -1.448982,2.469477 l -0.38228,0.265075 c -0.393448,0.273255 -0.751078,0.630574 -1.066823,1.0651 -0.467419,0.643257 -0.666405,1.678066 -0.54289,2.826925 0.123517,1.148852 0.557047,2.29406 1.183243,3.127738 l 1.341517,1.484762 c 0.153104,0.128826 0.304285,0.265682 0.453927,0.410491 0.814396,0.736131 1.530648,1.813477 2.046068,3.078157 l 10.801277,-2.912409 c -0.515418,-1.264678 -1.231026,-2.341864 -2.045385,-3.077974 -0.149681,-0.14482 -0.301495,-0.281836 -0.454608,-0.410672 l -1.34152,-1.484764 c -0.626217,-0.833694 -1.059134,-1.978727 -1.182558,-3.127555 -0.123554,-1.148876 0.07478,-2.183843 0.542207,-2.827108 0.315823,-0.434494 0.674134,-0.791627 1.067506,-1.064916 l 0.381598,-0.265258 c 0.684134,-0.475177 1.19098,-1.339466 1.44898,-2.469478 z"
         style="fill:#edd400;fill-rule:evenodd;stroke:#231f0b;stroke-width:2;stroke-linecap:round;stroke-linejoin:round;stroke-dasharray:none;stroke-opacity:1"
         id="path280" />
      <path
         d="m 47.737882,12.60175 -10.801278,2.912408 c 0.181975,1.354591 0.09641,2.647976 -0.243113,3.695185 l -0.188649,0.583767 c -0.195256,0.602248 -0.337921,1.260662 -0.424441,1.961213 -0.128071,1.037063 0.06595,2.246172 0.529817,3.303255 0.463885,1.057086 1.150334,1.85406 1.874757,2.175964 l 1.453814,0.385096 c 0.15266,0.003 0.306179,0.01567 0.461546,0.03767 0.828624,0.06728 1.697395,0.560178 2.482339,1.408973 L 53.68395,26.152873 c -0.784874,-0.848776 -1.653046,-1.3415 -2.481654,-1.40879 -0.155378,-0.022 -0.309687,-0.03487 -0.462228,-0.03785 L 49.286254,24.321134 C 48.56187,23.99924 47.875368,23.202252 47.411497,22.14517 c -0.463872,-1.057083 -0.657914,-2.266142 -0.529818,-3.303255 0.0865,-0.7005 0.229186,-1.358979 0.424442,-1.961213 l 0.189508,-0.584272 c 0.339515,-1.047167 0.424208,-2.340095 0.242246,-3.694682 z"
         style="fill:#fce94f;fill-rule:evenodd;stroke:#231f0b;stroke-width:2;stroke-linecap:round;stroke-linejoin:round;stroke-dasharray:none;stroke-opacity:1"
         id="path279" />
      <path
         d="m 25.916889,25.484431 c -0.48917,-0.112738 -0.973436,-0.111558 -1.436816,0.01338 -2.530961,0.682409 -3.633958,4.798851 -2.463579,9.194204 1.170361,4.395359 4.171168,7.405044 6.702126,6.722622 1.215405,-0.327699 2.157302,-1.480521 2.619308,-3.204753 C 32.0425,35.580391 31.523296,32.051329 30.022107,29.268689 28.896225,27.181716 27.3844,25.82266 25.916889,25.484431 Z"
         style="fill:url(#linearGradient292);fill-rule:evenodd;stroke:#231f0b;stroke-width:2;stroke-linecap:round;stroke-linejoin:round;stroke-dasharray:none;stroke-opacity:1"
         id="path35" />
      <path
         d="m 34.128848,61.735029 c 0.328571,-1.059215 0.401687,-2.359129 0.208104,-3.714855 -0.0302,-0.251455 -0.06669,-0.504305 -0.108488,-0.756731 l -0.164777,-2.301379 c 0.0023,-1.109798 0.324586,-2.020379 0.881013,-2.487156 0.164493,-0.137983 0.346889,-0.234839 0.541261,-0.287157 0.456521,-0.123171 0.966889,0.001 1.461889,0.35496 0.240663,0.172009 0.477939,0.363956 0.711561,0.575073 0.233781,0.211294 0.464398,0.44195 0.688757,0.690241 l 0.434818,0.481811 c 0.173879,0.192424 0.353252,0.360678 0.534424,0.51732 0.04973,0.04299 0.09987,0.08301 0.150061,0.123269 0.151749,0.121692 0.30499,0.231052 0.459527,0.326728 0.03465,0.02146 0.06874,0.04729 0.103505,0.06743 0.188309,0.109012 0.378014,0.197176 0.567359,0.26595 0.03155,0.01146 0.06287,0.02016 0.09437,0.03046 0.190702,0.06237 0.381687,0.110452 0.570104,0.129973 -0.107883,-1.341724 -0.47928,-2.714328 -1.061253,-3.921941 -0.103826,-0.228796 -0.212328,-0.45341 -0.324843,-0.673582 l -0.870173,-2.186092 c -0.360218,-1.122052 -0.423507,-2.308806 -0.173564,-3.241607 0.22426,-0.836948 0.681535,-1.396564 1.271497,-1.555637 0.06471,-0.01746 0.130446,-0.0299 0.197528,-0.03748 0.460373,-0.05207 0.938709,-0.01321 1.424924,0.115733 l 0.471841,0.12498 c 0.429573,0.113965 0.848616,0.117881 1.241048,0.01207 0.375171,-0.101159 0.721618,-0.301576 1.027093,-0.59431 -0.515408,-1.26473 -1.231657,-2.342074 -2.046054,-3.078205 -0.149644,-0.144809 -0.300822,-0.281665 -0.453928,-0.41049 L 40.624936,38.81964 c -0.626201,-0.833685 -1.059725,-1.978876 -1.183243,-3.127739 -0.123516,-1.148868 0.07547,-2.183663 0.542891,-2.826924 0.315747,-0.43453 0.673371,-0.791842 1.066822,-1.0651 l 0.38228,-0.265075 c 0.684175,-0.475189 1.190954,-1.339473 1.448983,-2.469477 -0.784946,-0.848797 -1.653713,-1.341694 -2.482338,-1.408973 -0.155368,-0.022 -0.308885,-0.03466 -0.461547,-0.03767 L 38.48497,27.233585 c -0.724429,-0.321906 -1.410869,-1.118868 -1.874757,-2.175963 -0.463875,-1.057091 -0.657889,-2.266183 -0.529817,-3.303254 0.08652,-0.70056 0.229181,-1.35896 0.424442,-1.961213 l 0.188648,-0.583768 c 0.33952,-1.047222 0.425091,-2.340578 0.243113,-3.695185 -0.409989,-0.09992 -0.809649,-0.0989 -1.184833,0.0023 -0.392415,0.105786 -0.7534,0.320442 -1.068839,0.635311 L 34.33631,16.49696 c -0.356994,0.35622 -0.75149,0.630304 -1.176056,0.816797 -0.06188,0.02723 -0.125439,0.04988 -0.19016,0.06738 -0.58997,0.159098 -1.264234,-0.09521 -1.87428,-0.707281 -0.679966,-0.682004 -1.214492,-1.742377 -1.460074,-2.895415 -0.165915,-0.778808 -0.277385,-1.560996 -0.33263,-2.330916 l -0.0534,-0.746384 C 29.15362,9.3624369 28.79325,7.9869751 28.220019,6.7707523 28.0668,6.8823096 27.92577,7.0193695 27.79179,7.1690469 c -0.02261,0.02525 -0.04638,0.048694 -0.06844,0.075013 -0.129073,0.1540632 -0.248234,0.3257428 -0.35664,0.5137651 -0.02171,0.037665 -0.04032,0.079928 -0.06115,0.1188582 -0.08451,0.1579352 -0.161467,0.3264637 -0.231186,0.504749 -0.02394,0.061128 -0.04745,0.122354 -0.06953,0.1857023 -0.07896,0.2266204 -0.150824,0.4620041 -0.205739,0.7159015 -0.05158,0.2067839 -0.0974,0.4191733 -0.137572,0.6364087 l -0.583629,1.8009573 c -0.252894,0.555646 -0.633626,0.919651 -1.090112,1.042689 -0.194408,0.05245 -0.399331,0.05978 -0.610398,0.02314 C 23.663608,12.66182 22.931276,12.03592 22.377869,11.075909 22.004022,10.427426 21.668213,9.730904 21.377201,8.9996486 l -0.282335,-0.709233 c -0.505919,-1.2715797 -1.214913,-2.361077 -2.025711,-3.1131285 -0.3286,1.0592082 -0.401012,2.3594544 -0.207421,3.715039 0.03023,0.2516043 0.06622,0.5034423 0.107989,0.755864 L 19.135,11.950393 c -5.31e-4,0.247908 -0.02213,0.483035 -0.05409,0.71023 -0.006,0.04297 -0.01109,0.08614 -0.01823,0.128154 -0.03588,0.211717 -0.08537,0.411229 -0.14838,0.597497 -0.01255,0.03718 -0.02693,0.07151 -0.04052,0.107481 -0.02375,0.06274 -0.04403,0.12917 -0.07095,0.188262 -0.03601,0.07905 -0.0821,0.142594 -0.123241,0.213941 -0.03337,0.05795 -0.06308,0.12029 -0.09986,0.173166 -0.01896,0.02725 -0.03858,0.05265 -0.05837,0.07845 -0.08277,0.107878 -0.170447,0.207917 -0.268066,0.289798 -0.164391,0.138025 -0.346073,0.23421 -0.540394,0.286655 -0.456575,0.123056 -0.967055,-3.92e-4 -1.462073,-0.354274 -0.481702,-0.344341 -0.951452,-0.769341 -1.400134,-1.266 L 14.415006,12.62244 c -0.780196,-0.863612 -1.647509,-1.374605 -2.478673,-1.460913 0.107862,1.341788 0.47945,2.713524 1.061433,3.921255 0.103797,0.228802 0.211477,0.453958 0.323976,0.674084 l 0.870173,2.186091 c 0.36018,1.122086 0.424191,2.308989 0.174248,3.241791 -0.0096,0.03584 -0.01936,0.07101 -0.02983,0.105933 -0.04076,0.135879 -0.08848,0.26468 -0.142055,0.385305 -0.0083,0.01854 -0.01866,0.03409 -0.02718,0.05225 -0.012,0.02545 -0.02531,0.04828 -0.03785,0.07292 -0.02883,0.05667 -0.05584,0.116008 -0.08759,0.168369 -0.02504,0.0413 -0.05807,0.06753 -0.08477,0.105912 -0.05797,0.08338 -0.118904,0.159734 -0.184438,0.22915 -0.08118,0.08599 -0.161889,0.171799 -0.253365,0.234937 -0.0048,0.0033 -0.0091,0.0077 -0.01392,0.01097 -0.02176,0.01464 -0.04516,0.0252 -0.06745,0.03853 -0.047,0.02811 -0.094,0.0563 -0.143328,0.07846 -0.0035,0.0015 -0.0067,0.0038 -0.01023,0.0053 -0.06184,0.02718 -0.124848,0.05009 -0.189477,0.06757 -0.06476,0.01744 -0.13113,0.02971 -0.198212,0.0373 -0.460373,0.05208 -0.938655,0.01323 -1.424924,-0.115732 L 11.000375,22.537157 C 10.57075,22.423178 10.151939,22.418604 9.7595115,22.524399 9.384337,22.625573 9.037892,22.825976 8.7324181,23.11871 c 0.5154208,1.264682 1.2310235,2.341862 2.0453839,3.077974 0.149684,0.144821 0.301496,0.281836 0.454612,0.410672 l 1.341516,1.484764 c 0.626225,0.833701 1.059134,1.978718 1.182559,3.127555 0.123554,1.148885 -0.07478,2.183838 -0.542206,2.827108 -0.315825,0.434499 -0.674315,0.79231 -1.06769,1.065602 l -0.381596,0.265258 c -0.684145,0.475183 -1.191478,1.338583 -1.449483,2.468607 0.784879,0.84878 1.653546,1.342372 2.482154,1.40966 0.155382,0.02201 0.309872,0.03419 0.462414,0.03717 l 1.453633,0.385773 c 0.724388,0.321896 1.411065,1.118187 1.874941,2.175278 0.463875,1.057091 0.657731,2.266819 0.529633,3.30394 -0.0865,0.700507 -0.229001,1.358288 -0.424258,1.960527 l -0.189517,0.584268 c -0.339519,1.047179 -0.42421,2.340078 -0.242245,3.694682 0.410046,0.09973 0.809464,0.09959 1.184648,-0.0016 0.392411,-0.105786 0.753395,-0.320443 1.068838,-0.635312 0.119449,-0.106671 0.234623,-0.221732 0.34594,-0.345374 l 1.176241,-0.817482 c 0.06188,-0.02723 0.125238,-0.04919 0.189976,-0.0667 0.06473,-0.0175 0.131315,-0.03036 0.198395,-0.03798 0.0053,-6.38e-4 0.01083,4.17e-4 0.01614,-1.27e-4 0.0434,-0.0044 0.08734,-0.0035 0.131367,-0.0038 0.0355,-2.21e-4 0.07037,-0.0026 0.106246,-1.99e-4 0.0038,2.56e-4 0.0075,0.0013 0.0113,0.0016 0.113349,0.0086 0.228725,0.04283 0.344643,0.07765 0.08857,0.02663 0.176307,0.06183 0.265236,0.103411 0.04345,0.02034 0.08661,0.02642 0.130068,0.05029 0.0539,0.02956 0.107227,0.06777 0.160724,0.102605 0.02234,0.01458 0.04477,0.02675 0.06705,0.04222 0.01683,0.01165 0.03381,0.02047 0.05057,0.03266 0.106402,0.07744 0.211419,0.164971 0.314266,0.262081 0.02642,0.025 0.05215,0.05063 0.07828,0.07684 0.679917,0.682134 1.214676,1.741692 1.460258,2.894729 0.165915,0.778807 0.277348,1.561131 0.332629,2.330918 l 0.0539,0.74725 c 0.09609,1.338704 0.456499,2.714035 1.029691,3.93039 0.677022,-0.492922 1.173774,-1.372809 1.420405,-2.513149 0.05158,-0.206786 0.09812,-0.419124 0.13825,-0.636231 l 0.583443,-1.800267 c 0.252893,-0.555649 0.633627,-0.919653 1.090112,-1.04269 0.194408,-0.05245 0.399515,-0.06047 0.610582,-0.02382 0.12783,0.02225 0.256046,0.06623 0.383889,0.119769 0.02524,0.01059 0.05041,0.02024 0.07564,0.03203 0.06287,0.02927 0.124018,0.0716 0.186374,0.108007 0.06853,0.03996 0.137465,0.07042 0.205403,0.118987 0.05202,0.03719 0.102001,0.08372 0.15311,0.125556 0.02999,0.02455 0.05981,0.04709 0.0895,0.07323 0.147722,0.130034 0.290633,0.27779 0.427422,0.443813 0.02623,0.03183 0.05089,0.06607 0.07669,0.0992 0.141101,0.181186 0.277255,0.375236 0.401317,0.590437 0,0 5.11e-4,8.9e-4 5.11e-4,8.9e-4 0.09826,0.170555 0.194166,0.344522 0.287195,0.521636 0.05574,0.106196 0.10649,0.217577 0.160211,0.325911 0.04428,0.08929 0.08882,0.17759 0.131708,0.26829 0.148061,0.313138 0.290568,0.631528 0.421054,0.959556 l 0.281652,0.709048 c 0.505968,1.271452 1.214848,2.361061 2.025711,3.113129 z M 25.916889,25.484431 c 1.467512,0.338225 2.979336,1.697285 4.105218,3.784258 1.501189,2.78264 2.020393,6.311702 1.315821,8.941199 -0.462006,1.724232 -1.403903,2.877054 -2.619308,3.204753 -2.530958,0.682422 -5.531765,-2.327263 -6.702126,-6.722622 -1.170379,-4.395353 -0.06738,-8.511795 2.463579,-9.194204 0.46338,-0.124942 0.947647,-0.126125 1.436816,-0.01338 z"
         style="fill:#fce94f;fill-rule:evenodd;stroke:#231f0b;stroke-width:2;stroke-linecap:round;stroke-linejoin:round;stroke-dasharray:none;stroke-opacity:1"
         id="path34" />
      <path
         d="m 22.128218,47.843669 c -0.02458,-0.02092 -0.03111,-0.03829 0.266313,0.125081 0.121405,0.06658 0.256194,0.158285 0.289063,0.179687 0.0017,0.0011 0.05633,0.03527 0.115234,0.07617 -0.0024,-0.0016 -0.145151,-0.111436 0.08594,0.05664 0.187457,0.136433 0.359563,0.282114 0.511718,0.425781 0.04317,0.04085 0.08216,0.08009 0.121094,0.119141 0.995293,0.998538 1.693905,2.444302 2.001953,3.890625 0.06774,0.317965 0.116607,0.63777 0.167969,0.957031 0.456018,-0.668887 1.108951,-1.215813 2.003906,-1.457031 0.498835,-0.134583 0.991292,-0.146085 1.472656,-0.0625 0.330879,0.05759 0.629752,0.168743 0.814454,0.246094 0.0012,5.16e-4 0.0018,-0.005 0.15039,0.06445 0.16822,0.07832 0.328283,0.183188 0.345703,0.193359 0.0086,0.005 0.196005,0.100565 0.361328,0.21875 0.116874,0.08355 0.231423,0.183476 0.257813,0.205078 0.01805,0.01477 0.08609,0.06769 0.144531,0.119141 0.228928,0.201516 0.444898,0.426789 0.648438,0.673828 0.06111,0.07416 0.107396,0.137529 0.111328,0.142578 0.03837,0.04928 0.07658,0.106089 0.115234,0.158203 0.135629,-1.212629 0.592318,-2.433613 1.546875,-3.234375 0.374992,-0.314558 0.807936,-0.551313 1.306641,-0.685547 0.915875,-0.247106 1.771975,-0.0821 2.513672,0.28711 l -0.357422,-0.898438 -0.02148,-0.06445 c -0.451552,-1.406552 -0.566238,-3.006693 -0.201171,-4.369141 0.344226,-1.284666 1.188164,-2.568013 2.68164,-2.970703 0.169777,-0.04581 0.334542,-0.07572 0.494141,-0.09375 C 40.384867,42.11157 40.692862,42.109001 41,42.125 40.890899,42.020544 40.784066,41.923762 40.679687,41.835937 l -0.105468,-0.08789 -1.494141,-1.654297 -0.05469,-0.07227 c -0.855728,-1.139263 -1.415414,-2.658279 -1.572266,-4.117187 -0.152052,-1.414289 0.116325,-3.117003 0.914062,-4.214844 0.43193,-0.59442 0.944848,-1.115845 1.542969,-1.53125 l 0.382813,-0.265625 c 0.04911,-0.03411 0.11016,-0.09941 0.175781,-0.181641 -0.09203,-0.03477 -0.172935,-0.05588 -0.230469,-0.06055 l -0.05859,-0.0059 -0.06055,-0.0078 c -0.07455,-0.01056 -0.146625,-0.01616 -0.21875,-0.01758 l -0.240235,-0.0059 -1.841797,-0.486328 -0.146484,-0.06445 c -1.242355,-0.552051 -2.323215,-1.899272 -2.894531,-3.201172 -0.589468,-1.343296 -0.856293,-2.939262 -0.681641,-4.353516 0.100266,-0.811865 0.267217,-1.595975 0.505859,-2.332031 l 0.150391,-0.460937 c -0.249625,0.161624 -0.509598,0.309742 -0.787109,0.43164 -0.161043,0.07087 -0.31982,0.12469 -0.472657,0.166016 -1.49217,0.402396 -2.871999,-0.28294 -3.8125,-1.226563 -0.99527,-0.998253 -1.69392,-2.444373 -2.001953,-3.890624 -0.06746,-0.31667 -0.116739,-0.635139 -0.167968,-0.953125 -0.455902,0.667233 -1.10861,1.212339 -2.001954,1.453125 -0.498901,0.1346 -0.991408,0.146041 -1.472656,0.0625 -1.225149,-0.21354 -2.229015,-1.040928 -2.951172,-2.021485 -0.0079,0.0672 -0.01453,0.139778 -0.02344,0.203125 -0.0022,0.01541 -0.01043,0.09752 -0.02539,0.185547 -0.05167,0.304888 -0.126801,0.607433 -0.226562,0.902344 -0.02916,0.08638 -0.06191,0.167107 -0.06445,0.173828 -0.007,0.01862 -0.05438,0.16411 -0.121094,0.310547 -0.08387,0.184123 -0.20039,0.366474 -0.210938,0.384765 -0.0082,0.01428 -0.08957,0.170858 -0.189453,0.314454 -0.03804,0.05468 -0.07645,0.106281 -0.113281,0.154296 -0.131753,0.17172 -0.321977,0.39717 -0.570313,0.605469 -0.375639,0.315393 -0.808298,0.551577 -1.304687,0.685547 -0.917987,0.247416 -1.773413,0.08419 -2.515625,-0.285156 l 0.355469,0.896484 0.02148,0.06445 c 0.451654,1.40706 0.566405,3.008025 0.201172,4.371094 -0.0091,0.03393 -0.02556,0.09754 -0.04492,0.162109 -0.06617,0.220573 -0.144138,0.428673 -0.230469,0.623047 -0.04479,0.100061 -0.04297,0.08984 -0.04297,0.08984 -0.08797,0.186578 -0.06641,0.128906 -0.06641,0.128906 -0.01736,0.03413 -0.08773,0.179385 -0.160156,0.298828 -0.178925,0.295112 -0.16506,0.245359 -0.155784,0.221292 -0.0047,0.0059 -0.008,0.0094 -0.01024,0.01116 -0.112452,0.159693 -0.232143,0.304672 -0.359362,0.439427 -0.07618,0.0807 -0.292884,0.316328 -0.570313,0.507813 -0.02312,0.01572 0.0069,-0.0037 -0.02734,0.01953 -0.212346,0.142884 -0.164062,0.101563 -0.164062,0.101563 -0.04432,0.02651 -0.191378,0.114463 -0.34961,0.185546 l -0.01563,0.0078 -0.01758,0.0059 c -0.329849,0.141364 -0.01758,0.0059 -0.01758,0.0059 l 0.02344,-0.0098 c -0.125679,0.05524 -0.288221,0.118085 -0.472657,0.167969 -0.171139,0.04609 -0.334429,0.07763 -0.49414,0.0957 -0.308795,0.03493 -0.616646,0.03748 -0.923828,0.02148 0.104848,0.100173 0.211942,0.196234 0.322265,0.289063 l 0.105469,0.08789 1.494141,1.654297 0.05469,0.07227 c 0.855984,1.139582 1.413746,2.65792 1.570313,4.115234 0.151919,1.412646 -0.112387,3.116222 -0.91211,4.216797 -0.432048,0.594394 -0.947128,1.117894 -1.544922,1.533203 l -0.382812,0.265625 c -0.04903,0.03406 -0.11059,0.09822 -0.175781,0.179688 0.09219,0.03518 0.173552,0.05593 0.230468,0.06055 l 0.05859,0.0059 0.06055,0.0078 c 0.07381,0.01046 0.147277,0.01614 0.220703,0.01758 l 0.242188,0.0059 1.839843,0.488281 0.144532,0.06445 c 1.24026,0.551135 2.322937,1.896657 2.894531,3.199219 0.588717,1.341586 0.858547,2.937038 0.683594,4.353516 -0.100685,0.815376 -0.270363,1.599653 -0.507813,2.332031 l -0.179687,0.552734 0.638671,-0.443359 0.177735,-0.07813 c 0.171419,-0.07543 0.335522,-0.128396 0.474609,-0.166016 0.133417,-0.03607 0.300215,-0.0739 0.492188,-0.0957 0.116975,-0.01343 0.04102,-0.0039 0.04102,-0.0039 0.04447,-0.0045 0.09466,-0.0075 0.142029,-0.0095 0.05977,-0.0069 0.04824,-0.0052 0.0132,-5.39e-4 0.07939,-0.0031 0.148339,-0.0035 0.165082,-0.0036 0.0012,-7e-6 0.133722,-0.004 0.251953,0.0039 0.394881,0.0266 0.03711,0.0039 0.03711,0.0039 0.334832,0.0254 0.648196,0.122149 0.761719,0.15625 0.187369,0.05633 0.358122,0.124958 0.503736,0.191592 -0.0024,-0.0037 1.85e-4,-0.005 0.01315,-2.67e-4 z m 3.04561,-24.441325 c -0.405834,0.0031 -0.813331,0.0558 -1.214844,0.164062 -4.11499,1.109503 -5.187644,6.716377 -3.876953,11.638672 1.31069,4.92237 5.042722,9.250282 9.158203,8.140625 2.117203,-0.570843 3.447291,-2.44706 4.029297,-4.619141 0.839103,-3.131572 0.195702,-7.284779 -1.488281,-10.40625 -1.285909,-2.383603 -3.204477,-4.275451 -5.416016,-4.785156 -0.389367,-0.08974 -0.785987,-0.135886 -1.191406,-0.132812 z"
         style="fill:url(#linearGradient290);fill-rule:evenodd;stroke:#fce94f;stroke-width:2;stroke-linecap:round;stroke-linejoin:round;stroke-dasharray:none;stroke-opacity:1"
         id="path289" />
    </g>
  </g>
  <g
     id="layer1" />
</svg>
