<?xml version="1.0"?><svg width="1000" height="1000" xmlns="http://www.w3.org/2000/svg">
 <title>High Resolution Gear</title>
 <metadata id="metadata4083">image/svg+xml</metadata>
 <g>
  <title>Layer 1</title>
  <g externalResourcesRequired="false" id="layer1">
   <path d="m457.674194,1l-20.76886,118.302437l0.079987,0.079193c-25.386719,4.14814 -49.948639,10.796745 -73.40979,19.650475l0,-0.079178l-77.084137,-92.101566l-72.451248,41.857128l41.13826,112.790565l0.159546,0.079254c-19.642059,16.123276 -37.644791,34.189743 -53.759094,53.839432l-0.079803,-0.240234l-112.790565,-41.138397l-41.857117,72.45134l92.101555,77.164093c-8.839218,23.441681 -15.428467,47.966858 -19.570518,73.329895l-0.079956,-0.079315l-118.302452,20.768799l0,83.714264l118.302452,20.768799l0.079956,-0.079224c4.141754,25.362976 10.7313,49.888 19.570518,73.329773l-92.101555,77.164185l41.857117,72.450989l112.790565,-41.138062l0.079803,-0.240295c16.114304,19.649048 34.116806,37.716187 53.759094,53.838806l-0.159546,0.079285l-41.13826,112.790588l72.451248,41.857178l77.084137,-92.10083l0,-0.079834c23.461151,8.853882 48.023071,15.502441 73.40979,19.650452l-0.079987,0.079285l20.76886,118.302307l83.634155,0l20.76886,-118.302307l-0.079773,-0.079285c25.381592,-4.136658 49.950745,-10.72998 73.409912,-19.570618l77.163757,92.101685l72.451294,-41.857117l-41.218018,-112.790527c19.597717,-16.082031 37.591675,-34.086304 53.679321,-53.679382l112.8703,41.138245l41.777466,-72.451233l-92.02179,-77.164124c8.841187,-23.444763 15.507629,-47.963196 19.650513,-73.329834l118.302429,-20.688782l0,-83.714233l-118.302429,-20.768768c-4.143738,-25.339447 -10.818176,-49.828888 -19.650513,-73.250153l92.02179,-77.164093l-41.777466,-72.451157l-112.8703,41.138214c-16.088074,-19.593384 -34.080933,-37.597275 -53.679321,-53.679367l41.218018,-112.790497l-72.451294,-41.857121l-77.163757,92.101475c-23.459167,-8.83992 -48.02832,-15.433525 -73.409912,-19.570435l0.079773,-0.079254l-20.76886,-118.302377l-83.634155,0l0,-0.00054zm41.857117,203.693954c162.853027,0 294.916931,131.984085 294.916931,294.837265c0,162.852997 -132.063904,294.836945 -294.916931,294.836945c-162.852936,0 -294.836975,-131.983948 -294.836975,-294.836945c0,-162.85318 131.984039,-294.837265 294.836975,-294.837265z" id="path4050" stroke-dashoffset="0" stroke-miterlimit="4" stroke-linejoin="round" stroke-linecap="round" stroke-width="2" fill="#3f3f3f"/>
  </g>
 </g>
</svg>