<?xml version="1.0" encoding="UTF-8" standalone="no"?>

<svg
   width="841mm"
   height="594mm"
   viewBox="0 0 841 594"
   version="1.1"
   id="svg"
   xmlns="http://www.w3.org/2000/svg"
   xmlns:svg="http://www.w3.org/2000/svg"
   xmlns:rdf="http://www.w3.org/1999/02/22-rdf-syntax-ns#"
   xmlns:cc="http://creativecommons.org/ns#"
   xmlns:dc="http://purl.org/dc/elements/1.1/"
   xmlns:freecad="https://www.freecad.org/wiki/index.php?title=Svg_Namespace">
  <title id="title">Drawing sheet ISO 5457 - A1T</title>
  <metadata id="metadata">
    <rdf:RDF>
      <cc:Work rdf:about="">
        <cc:license rdf:resource="http://creativecommons.org/publicdomain/zero/1.0/" />
        <dc:title>Drawing sheet ISO 5457 - A1T</dc:title>
      </cc:Work>
      <cc:License rdf:about="http://creativecommons.org/publicdomain/zero/1.0/">
        <cc:permits rdf:resource="http://creativecommons.org/ns#Reproduction" />
        <cc:permits rdf:resource="http://creativecommons.org/ns#Distribution" />
        <cc:permits rdf:resource="http://creativecommons.org/ns#DerivativeWorks" />
      </cc:License>
    </rdf:RDF>
  </metadata>
  <rect id="drawing_space_frame" x="20" y="10" width="811" height="574" style="fill:none;stroke:#000000;stroke-width:0.7;stroke-linecap:round;stroke-linejoin:round" />
  <g id="centring_marks" style="fill:none;stroke:#000000;stroke-width:0.7;stroke-linecap:round">
    <path id="top_centering" d="m 420.5,5 v 10" />
    <path id="right_centering" d="m 836,297 h -10" />
    <path id="bottom_centering" d="m 420.5,589 v -10" />
    <path id="left_centering" d="m 15,297 h 10" />
  </g>
  <g id="grid_reference_system">
    <g id="grid_reference_borders" style="fill:none;stroke:#000000;stroke-width:0.35;stroke-linecap:round;stroke-linejoin:round">
      <rect id="grid_reference_border"  x="15" y="5" width="821" height="584" />
      <path id="upper_border_1" d="m 70.5,5 v 5"/>
      <path id="upper_border_2" d="m 120.5,5 v 5"/>
      <path id="upper_border_3" d="m 170.5,5 v 5"/>
      <path id="upper_border_4" d="m 220.5,5 v 5"/>
      <path id="upper_border_5" d="m 270.5,5 v 5"/>
      <path id="upper_border_6" d="m 320.5,5 v 5"/>
      <path id="upper_border_7" d="m 370.5,5 v 5"/>
      <path id="upper_border_9" d="m 470.5,5 v 5"/>
      <path id="upper_border_10" d="m 520.5,5 v 5"/>
      <path id="upper_border_11" d="m 570.5,5 v 5"/>
      <path id="upper_border_12" d="m 620.5,5 v 5"/>
      <path id="upper_border_13" d="m 670.5,5 v 5"/>
      <path id="upper_border_14" d="m 720.5,5 v 5"/>
      <path id="upper_border_15" d="m 770.5,5 v 5"/>
      <path id="right_border_1" d="m 836,47 h -5"/>
      <path id="right_border_2" d="m 836,97 h -5"/>
      <path id="right_border_3" d="m 836,147 h -5"/>
      <path id="right_border_4" d="m 836,197 h -5"/>
      <path id="right_border_5" d="m 836,247 h -5"/>
      <path id="right_border_7" d="m 836,347 h -5"/>
      <path id="right_border_8" d="m 836,397 h -5"/>
      <path id="right_border_9" d="m 836,447 h -5"/>
      <path id="right_border_10" d="m 836,497 h -5"/>
      <path id="right_border_11" d="m 836,547 h -5"/>
      <path id="lower_border_1" d="m 70.5,589 v -5"/>
      <path id="lower_border_2" d="m 120.5,589 v -5"/>
      <path id="lower_border_3" d="m 170.5,589 v -5"/>
      <path id="lower_border_4" d="m 220.5,589 v -5"/>
      <path id="lower_border_5" d="m 270.5,589 v -5"/>
      <path id="lower_border_6" d="m 320.5,589 v -5"/>
      <path id="lower_border_7" d="m 370.5,589 v -5"/>
      <path id="lower_border_9" d="m 470.5,589 v -5"/>
      <path id="lower_border_10" d="m 520.5,589 v -5"/>
      <path id="lower_border_11" d="m 570.5,589 v -5"/>
      <path id="lower_border_12" d="m 620.5,589 v -5"/>
      <path id="lower_border_13" d="m 670.5,589 v -5"/>
      <path id="lower_border_14" d="m 720.5,589 v -5"/>
      <path id="lower_border_15" d="m 770.5,589 v -5"/>
      <path id="left_border_1" d="m 15,47 h 5"/>
      <path id="left_border_2" d="m 15,97 h 5"/>
      <path id="left_border_3" d="m 15,147 h 5"/>
      <path id="left_border_4" d="m 15,197 h 5"/>
      <path id="left_border_5" d="m 15,247 h 5"/>
      <path id="left_border_7" d="m 15,347 h 5"/>
      <path id="left_border_8" d="m 15,397 h 5"/>
      <path id="left_border_9" d="m 15,447 h 5"/>
      <path id="left_border_10" d="m 15,497 h 5"/>
      <path id="left_border_11" d="m 15,547 h 5"/>
    </g>
    <g id="grid_reference_markers" style="font-size:3.5px;font-family:osifont;text-align:center;text-anchor:middle;fill:#000000;stroke:none">
      <text id="upper_marker_1" x="45.5" y="8.8">1</text>
      <text id="upper_marker_2" x="95.5" y="8.8">2</text>
      <text id="upper_marker_3" x="145.5" y="8.8">3</text>
      <text id="upper_marker_4" x="195.5" y="8.8">4</text>
      <text id="upper_marker_5" x="245.5" y="8.8">5</text>
      <text id="upper_marker_6" x="295.5" y="8.8">6</text>
      <text id="upper_marker_7" x="345.5" y="8.8">7</text>
      <text id="upper_marker_8" x="395.5" y="8.8">8</text>
      <text id="upper_marker_9" x="445.5" y="8.8">9</text>
      <text id="upper_marker_10" x="495.5" y="8.8">10</text>
      <text id="upper_marker_11" x="545.5" y="8.8">11</text>
      <text id="upper_marker_12" x="595.5" y="8.8">12</text>
      <text id="upper_marker_13" x="645.5" y="8.8">13</text>
      <text id="upper_marker_14" x="695.5" y="8.8">14</text>
      <text id="upper_marker_15" x="745.5" y="8.8">15</text>
      <text id="upper_marker_16" x="795.5" y="8.8">16</text>
      <text id="right_marker_1" x="833.5" y="23.3">A</text>
      <text id="right_marker_2" x="833.5" y="73.3">B</text>
      <text id="right_marker_3" x="833.5" y="123.3">C</text>
      <text id="right_marker_4" x="833.5" y="173.3">D</text>
      <text id="right_marker_5" x="833.5" y="223.3">E</text>
      <text id="right_marker_6" x="833.5" y="273.3">F</text>
      <text id="right_marker_7" x="833.5" y="323.3">G</text>
      <text id="right_marker_8" x="833.5" y="373.3">H</text>
      <text id="right_marker_9" x="833.5" y="423.3">J</text>
      <text id="right_marker_10" x="833.5" y="473.3">K</text>
      <text id="right_marker_11" x="833.5" y="523.3">L</text>
      <text id="right_marker_12" x="833.5" y="573.3">M</text>
      <text id="lower_marker_1" x="45.5" y="587.8">1</text>
      <text id="lower_marker_2" x="95.5" y="587.8">2</text>
      <text id="lower_marker_3" x="145.5" y="587.8">3</text>
      <text id="lower_marker_4" x="195.5" y="587.8">4</text>
      <text id="lower_marker_5" x="245.5" y="587.8">5</text>
      <text id="lower_marker_6" x="295.5" y="587.8">6</text>
      <text id="lower_marker_7" x="345.5" y="587.8">7</text>
      <text id="lower_marker_8" x="395.5" y="587.8">8</text>
      <text id="lower_marker_9" x="445.5" y="587.8">9</text>
      <text id="lower_marker_10" x="495.5" y="587.8">10</text>
      <text id="lower_marker_11" x="545.5" y="587.8">11</text>
      <text id="lower_marker_12" x="595.5" y="587.8">12</text>
      <text id="lower_marker_13" x="645.5" y="587.8">13</text>
      <text id="lower_marker_14" x="695.5" y="587.8">14</text>
      <text id="lower_marker_15" x="745.5" y="587.8">15</text>
      <text id="lower_marker_16" x="795.5" y="587.8">A1</text>
      <text id="left_marker_1" x="17.5" y="23.3">A</text>
      <text id="left_marker_2" x="17.5" y="73.3">B</text>
      <text id="left_marker_3" x="17.5" y="123.3">C</text>
      <text id="left_marker_4" x="17.5" y="173.3">D</text>
      <text id="left_marker_5" x="17.5" y="223.3">E</text>
      <text id="left_marker_6" x="17.5" y="273.3">F</text>
      <text id="left_marker_7" x="17.5" y="323.3">G</text>
      <text id="left_marker_8" x="17.5" y="373.3">H</text>
      <text id="left_marker_9" x="17.5" y="423.3">J</text>
      <text id="left_marker_10" x="17.5" y="473.3">K</text>
      <text id="left_marker_11" x="17.5" y="523.3">L</text>
      <text id="left_marker_12" x="17.5" y="573.3">M</text>
    </g>
  </g>
  <g id="trimming_marks" style="fill:#000000;stroke:none">
    <path id="top_left_trimming" d="m 0,0 h 10 v 5 h -5 v 5 h -5 z" />
    <path id="top_right_trimming" d="m 841,0 h -10 v 5 h 5 v 5 h 5 z" />
    <path id="bottom_right_trimming" d="m 841,594 h -10 v -5 h 5 v -5 h 5 z" />
    <path id="bottom_left_trimming" d="m 0,594 h 10 v -5 h -5 v -5 h -5 z" />
  </g>
</svg>
