<?xml version="1.0" encoding="UTF-8" standalone="no"?>
<!-- Created with Inkscape (http://www.inkscape.org/) -->

<svg
   width="841mm"
   height="594mm"
   viewBox="0 0 841 594"
   version="1.1"
   id="svg1"
   xmlns="http://www.w3.org/2000/svg"
   xmlns:svg="http://www.w3.org/2000/svg"
   xmlns:rdf="http://www.w3.org/1999/02/22-rdf-syntax-ns#"
   xmlns:cc="http://creativecommons.org/ns#"
   xmlns:dc="http://purl.org/dc/elements/1.1/"
   xmlns:freecad="https://www.freecadweb.org/wiki/index.php?title=Svg_Namespace">
  <title
     id="title1">Drawing sheet ISO 5457 - A1T</title>
  <metadata
     id="metadata1">
    <rdf:RDF>
      <cc:Work
         rdf:about="">
        <dc:title>Drawing sheet ISO 5457 - A1T</dc:title>
        <cc:license
           rdf:resource="http://creativecommons.org/publicdomain/zero/1.0/" />
      </cc:Work>
      <cc:License
         rdf:about="http://creativecommons.org/publicdomain/zero/1.0/">
        <cc:permits
           rdf:resource="http://creativecommons.org/ns#Reproduction" />
        <cc:permits
           rdf:resource="http://creativecommons.org/ns#Distribution" />
        <cc:permits
           rdf:resource="http://creativecommons.org/ns#DerivativeWorks" />
      </cc:License>
    </rdf:RDF>
  </metadata>
  <defs
     id="defs1" />
  <!-- Put title block here -->
  <rect
     style="fill:none;stroke:#000000;stroke-width:0.7;stroke-linecap:round;stroke-linejoin:round;stroke-dasharray:none"
     id="Drawing space frame"
     width="811"
     height="574"
     x="20"
     y="10" />
  <g
     id="Centring marks">
    <path
       style="fill:none;stroke:#000000;stroke-width:0.7;stroke-linecap:round;stroke-linejoin:round;stroke-dasharray:none"
       d="m 420.5,5 0,10"
       id="Top" />
    <path
       style="fill:none;stroke:#000000;stroke-width:0.7;stroke-linecap:round;stroke-linejoin:round;stroke-dasharray:none"
       d="m 836,297 -10,0"
       id="Right" />
    <path
       style="fill:none;stroke:#000000;stroke-width:0.7;stroke-linecap:round;stroke-linejoin:round;stroke-dasharray:none"
       d="m 420.5,589 0,-10"
       id="Bottom" />
    <path
       style="fill:none;stroke:#000000;stroke-width:0.7;stroke-linecap:round;stroke-linejoin:round;stroke-dasharray:none"
       d="m 15,297 10,0"
       id="Left" />
  </g>
  <g
     id="Grid reference system">
    <g
       id="Grid reference borders">
      <rect
         style="fill:none;stroke:#000000;stroke-width:0.35;stroke-linecap:round;stroke-linejoin:round;stroke-dasharray:none"
         id="rect12"
         width="821"
         height="584"
         x="15"
         y="5" />
      <path
         style="fill:none;stroke:#000000;stroke-width:0.35;stroke-linecap:round;stroke-linejoin:round;stroke-dasharray:none"
         d="m 15.000002,246.99998 h 4.999997"
         id="path17" />
      <path
         style="fill:none;stroke:#000000;stroke-width:0.35;stroke-linecap:round;stroke-linejoin:round;stroke-dasharray:none"
         d="m 15.000002,196.99996 h 4.999997"
         id="path18" />
      <path
         style="fill:none;stroke:#000000;stroke-width:0.35;stroke-linecap:round;stroke-linejoin:round;stroke-dasharray:none"
         d="m 15.000002,146.99997 h 4.999997"
         id="path19" />
      <path
         style="fill:none;stroke:#000000;stroke-width:0.35;stroke-linecap:round;stroke-linejoin:round;stroke-dasharray:none"
         d="m 15.000002,96.999949 h 4.999997"
         id="path20" />
      <path
         style="fill:none;stroke:#000000;stroke-width:0.35;stroke-linecap:round;stroke-linejoin:round;stroke-dasharray:none"
         d="m 15.000002,46.999962 h 4.999997"
         id="path21" />
      <path
         style="fill:none;stroke:#000000;stroke-width:0.35;stroke-linecap:round;stroke-linejoin:round;stroke-dasharray:none"
         d="m 14.999998,547.00003 h 4.999997"
         id="path22" />
      <path
         style="fill:none;stroke:#000000;stroke-width:0.35;stroke-linecap:round;stroke-linejoin:round;stroke-dasharray:none"
         d="m 14.999998,497.00001 h 4.999997"
         id="path23" />
      <path
         style="fill:none;stroke:#000000;stroke-width:0.35;stroke-linecap:round;stroke-linejoin:round;stroke-dasharray:none"
         d="m 14.999998,447.00002 h 4.999997"
         id="path24" />
      <path
         style="fill:none;stroke:#000000;stroke-width:0.35;stroke-linecap:round;stroke-linejoin:round;stroke-dasharray:none"
         d="m 14.999998,397 h 4.999997"
         id="path25" />
      <path
         style="fill:none;stroke:#000000;stroke-width:0.35;stroke-linecap:round;stroke-linejoin:round;stroke-dasharray:none"
         d="m 14.999998,347.00001 h 4.999997"
         id="path26" />
      <path
         style="fill:none;stroke:#000000;stroke-width:0.35;stroke-linecap:round;stroke-linejoin:round;stroke-dasharray:none"
         d="m 830.99999,246.99998 h 4.99999"
         id="path28" />
      <path
         style="fill:none;stroke:#000000;stroke-width:0.35;stroke-linecap:round;stroke-linejoin:round;stroke-dasharray:none"
         d="m 830.99999,196.99996 h 4.99999"
         id="path30" />
      <path
         style="fill:none;stroke:#000000;stroke-width:0.35;stroke-linecap:round;stroke-linejoin:round;stroke-dasharray:none"
         d="m 830.99999,146.99997 h 4.99999"
         id="path32" />
      <path
         style="fill:none;stroke:#000000;stroke-width:0.35;stroke-linecap:round;stroke-linejoin:round;stroke-dasharray:none"
         d="m 830.99999,96.999949 h 4.99999"
         id="path34" />
      <path
         style="fill:none;stroke:#000000;stroke-width:0.35;stroke-linecap:round;stroke-linejoin:round;stroke-dasharray:none"
         d="m 830.99999,46.999962 h 4.99999"
         id="path36" />
      <path
         style="fill:none;stroke:#000000;stroke-width:0.35;stroke-linecap:round;stroke-linejoin:round;stroke-dasharray:none"
         d="m 830.99998,547.00003 h 5"
         id="path39" />
      <path
         style="fill:none;stroke:#000000;stroke-width:0.35;stroke-linecap:round;stroke-linejoin:round;stroke-dasharray:none"
         d="m 830.99998,497.00001 h 5"
         id="path40" />
      <path
         style="fill:none;stroke:#000000;stroke-width:0.35;stroke-linecap:round;stroke-linejoin:round;stroke-dasharray:none"
         d="m 830.99998,447.00002 h 5"
         id="path42" />
      <path
         style="fill:none;stroke:#000000;stroke-width:0.35;stroke-linecap:round;stroke-linejoin:round;stroke-dasharray:none"
         d="m 830.99998,397 h 5"
         id="path44" />
      <path
         style="fill:none;stroke:#000000;stroke-width:0.35;stroke-linecap:round;stroke-linejoin:round;stroke-dasharray:none"
         d="m 830.99998,347.00001 h 5"
         id="path46" />
      <path
         style="fill:none;stroke:#000000;stroke-width:0.35;stroke-linecap:round;stroke-linejoin:round;stroke-dasharray:none"
         d="M 370.50001,4.9999804 V 9.9999603"
         id="path50" />
      <path
         style="fill:none;stroke:#000000;stroke-width:0.35;stroke-linecap:round;stroke-linejoin:round;stroke-dasharray:none"
         d="M 320.50001,4.9999804 V 9.9999603"
         id="path51" />
      <path
         style="fill:none;stroke:#000000;stroke-width:0.35;stroke-linecap:round;stroke-linejoin:round;stroke-dasharray:none"
         d="M 270.50002,4.9999804 V 9.9999603"
         id="path52" />
      <path
         style="fill:none;stroke:#000000;stroke-width:0.35;stroke-linecap:round;stroke-linejoin:round;stroke-dasharray:none"
         d="M 220.50002,4.9999804 V 9.9999603"
         id="path53" />
      <path
         style="fill:none;stroke:#000000;stroke-width:0.35;stroke-linecap:round;stroke-linejoin:round;stroke-dasharray:none"
         d="M 170.50003,4.9999804 V 9.9999603"
         id="path54" />
      <path
         style="fill:none;stroke:#000000;stroke-width:0.35;stroke-linecap:round;stroke-linejoin:round;stroke-dasharray:none"
         d="M 120.50003,4.9999804 V 9.9999603"
         id="path55" />
      <path
         style="fill:none;stroke:#000000;stroke-width:0.35;stroke-linecap:round;stroke-linejoin:round;stroke-dasharray:none"
         d="M 70.500035,4.9999804 V 9.9999603"
         id="path56" />
      <path
         style="fill:none;stroke:#000000;stroke-width:0.35;stroke-linecap:round;stroke-linejoin:round;stroke-dasharray:none"
         d="m 770.49998,4.9999774 v 4.99998"
         id="path57" />
      <path
         style="fill:none;stroke:#000000;stroke-width:0.35;stroke-linecap:round;stroke-linejoin:round;stroke-dasharray:none"
         d="m 720.49998,4.9999774 v 4.99998"
         id="path58" />
      <path
         style="fill:none;stroke:#000000;stroke-width:0.35;stroke-linecap:round;stroke-linejoin:round;stroke-dasharray:none"
         d="m 670.49999,4.9999774 v 4.99998"
         id="path59" />
      <path
         style="fill:none;stroke:#000000;stroke-width:0.35;stroke-linecap:round;stroke-linejoin:round;stroke-dasharray:none"
         d="m 620.49999,4.9999774 v 4.99998"
         id="path60" />
      <path
         style="fill:none;stroke:#000000;stroke-width:0.35;stroke-linecap:round;stroke-linejoin:round;stroke-dasharray:none"
         d="m 570.5,4.9999774 v 4.99998"
         id="path61" />
      <path
         style="fill:none;stroke:#000000;stroke-width:0.35;stroke-linecap:round;stroke-linejoin:round;stroke-dasharray:none"
         d="m 520.5,4.9999774 v 4.99998"
         id="path62" />
      <path
         style="fill:none;stroke:#000000;stroke-width:0.35;stroke-linecap:round;stroke-linejoin:round;stroke-dasharray:none"
         d="m 470.5,4.9999774 v 4.99998"
         id="path63" />
      <path
         style="fill:none;stroke:#000000;stroke-width:0.35;stroke-linecap:round;stroke-linejoin:round;stroke-dasharray:none"
         d="m 370.50001,584 v 4.99998"
         id="path65" />
      <path
         style="fill:none;stroke:#000000;stroke-width:0.35;stroke-linecap:round;stroke-linejoin:round;stroke-dasharray:none"
         d="m 320.50001,584 v 4.99998"
         id="path67" />
      <path
         style="fill:none;stroke:#000000;stroke-width:0.35;stroke-linecap:round;stroke-linejoin:round;stroke-dasharray:none"
         d="m 270.50002,584 v 4.99998"
         id="path69" />
      <path
         style="fill:none;stroke:#000000;stroke-width:0.35;stroke-linecap:round;stroke-linejoin:round;stroke-dasharray:none"
         d="m 220.50002,584 v 4.99998"
         id="path71" />
      <path
         style="fill:none;stroke:#000000;stroke-width:0.35;stroke-linecap:round;stroke-linejoin:round;stroke-dasharray:none"
         d="m 170.50003,584 v 4.99998"
         id="path73" />
      <path
         style="fill:none;stroke:#000000;stroke-width:0.35;stroke-linecap:round;stroke-linejoin:round;stroke-dasharray:none"
         d="m 120.50003,584 v 4.99998"
         id="path75" />
      <path
         style="fill:none;stroke:#000000;stroke-width:0.35;stroke-linecap:round;stroke-linejoin:round;stroke-dasharray:none"
         d="m 70.500035,584 v 4.99998"
         id="path77" />
      <path
         style="fill:none;stroke:#000000;stroke-width:0.35;stroke-linecap:round;stroke-linejoin:round;stroke-dasharray:none"
         d="m 770.49998,584 v 4.99998"
         id="path80" />
      <path
         style="fill:none;stroke:#000000;stroke-width:0.35;stroke-linecap:round;stroke-linejoin:round;stroke-dasharray:none"
         d="m 720.49998,584 v 4.99998"
         id="path81" />
      <path
         style="fill:none;stroke:#000000;stroke-width:0.35;stroke-linecap:round;stroke-linejoin:round;stroke-dasharray:none"
         d="m 670.49999,584 v 4.99998"
         id="path83" />
      <path
         style="fill:none;stroke:#000000;stroke-width:0.35;stroke-linecap:round;stroke-linejoin:round;stroke-dasharray:none"
         d="m 620.49999,584 v 4.99998"
         id="path85" />
      <path
         style="fill:none;stroke:#000000;stroke-width:0.35;stroke-linecap:round;stroke-linejoin:round;stroke-dasharray:none"
         d="m 570.5,584 v 4.99998"
         id="path87" />
      <path
         style="fill:none;stroke:#000000;stroke-width:0.35;stroke-linecap:round;stroke-linejoin:round;stroke-dasharray:none"
         d="m 520.5,584 v 4.99998"
         id="path89" />
      <path
         style="fill:none;stroke:#000000;stroke-width:0.35;stroke-linecap:round;stroke-linejoin:round;stroke-dasharray:none"
         d="m 470.5,584 v 4.99998"
         id="path92" />
    </g>
    <g
       id="Grid reference markers">
      <path
         d="m 17.152222,271.98376 v 1.15699 q 0,0.14013 -0.128174,0.14013 -0.124756,0 -0.124756,-0.14184 0,0 0,-2.3208 0,-0.11963 0.133301,-0.11963 0,0 1.018554,0 0.13501,0 0.13501,0.12305 0,0.12304 -0.133301,0.12304 h -0.898925 v 0.78955 h 0.898925 q 0.133301,0 0.133301,0.12476 0,0.12475 -0.13501,0.12475 z"
         id="text17"
         style="font-size:3.5px;line-height:1;font-family:osifont;-inkscape-font-specification:osifont;text-align:center;word-spacing:0px;text-orientation:sideways;text-anchor:middle;stroke-width:2;stroke-linejoin:round"
         aria-label="F" />
      <path
         d="m 17.145386,223.03307 h 0.910888 q 0.126465,0 0.126465,0.12304 0,0.12305 -0.121338,0.12305 h -1.049316 q -0.112793,0 -0.112793,-0.12817 v -2.3191 q 0,-0.1333 0.1521,-0.1333 h 0.996337 q 0.138428,0 0.138428,0.12476 0,0.12305 -0.138428,0.12305 h -0.902343 v 0.79638 h 0.659668 q 0.124756,0 0.124756,0.12305 0,0.11621 -0.121338,0.11621 h -0.663086 z"
         id="text18"
         style="font-size:3.5px;line-height:1;font-family:osifont;-inkscape-font-specification:osifont;text-align:center;word-spacing:0px;text-orientation:sideways;text-anchor:middle;stroke-width:2;stroke-linejoin:round"
         aria-label="E" />
      <path
         d="m 16.977905,173.04161 q 0,0 0.593018,0 0.229004,0 0.341797,-0.11792 0.114502,-0.11963 0.114502,-0.29224 v -1.28344 q 0,-0.1521 -0.111084,-0.27344 -0.111084,-0.12134 -0.293946,-0.12134 h -0.644287 z m -0.25122,-2.19434 q 0,-0.14013 0.141845,-0.14013 h 0.801514 q 0.23584,0 0.418701,0.18457 0.18457,0.18457 0.18457,0.4187 v 1.37915 q 0,0.23413 -0.18457,0.41699 -0.18457,0.18115 -0.394775,0.18115 h -0.852783 q -0.114502,0 -0.114502,-0.1521 z"
         id="text19"
         style="font-size:3.5px;line-height:1;font-family:osifont;-inkscape-font-specification:osifont;text-align:center;word-spacing:0px;text-orientation:sideways;text-anchor:middle;stroke-width:2;stroke-linejoin:round"
         aria-label="D" />
      <path
         d="m 17.530762,120.69859 q 0,0 0.522949,0 0.126465,0 0.126465,0.12817 0,0.12988 -0.136719,0.12988 h -0.514404 q -0.143555,0 -0.278565,0.12476 -0.102539,0.0957 -0.102539,0.25635 v 1.30566 q 0,0.16064 0.107666,0.27686 0.112793,0.11962 0.234131,0.11962 h 0.574219 q 0.123047,0 0.123047,0.12476 0,0.11792 -0.124756,0.11792 h -0.582764 q -0.23584,0 -0.440918,-0.2273 -0.140137,-0.15551 -0.140137,-0.39819 v -1.33813 q 0,-0.25635 0.201661,-0.44605 0.18457,-0.17431 0.430664,-0.17431 z"
         id="text20"
         style="font-size:3.5px;line-height:1;font-family:osifont;-inkscape-font-specification:osifont;text-align:center;word-spacing:0px;text-orientation:sideways;text-anchor:middle;stroke-width:2;stroke-linejoin:round"
         aria-label="C" />
      <path
         d="m 18.296387,72.501564 q 0,0.375977 -0.239258,0.581055 -0.237549,0.205078 -0.449463,0.205078 h -0.750244 q -0.119629,0 -0.119629,-0.155518 v -2.264404 q 0,-0.160645 0.158936,-0.160645 h 0.533203 q 0.324707,0 0.473388,0.129883 0.259766,0.227295 0.259766,0.516114 0,0.314453 -0.239258,0.502441 0.158936,0.09228 0.264893,0.264893 0.107666,0.172607 0.107666,0.381103 z m -1.29541,-0.492187 v 1.040771 h 0.533203 q 0.232422,0 0.372558,-0.160645 0.140137,-0.160644 0.140137,-0.355468 0,-0.194824 -0.131592,-0.360596 -0.129883,-0.164062 -0.375976,-0.164062 z m 0,-1.047608 v 0.781006 h 0.52124 q 0.196533,0 0.293945,-0.105957 0.09912,-0.107666 0.09912,-0.266602 0,-0.160644 -0.104248,-0.283691 -0.104248,-0.124756 -0.295654,-0.124756 z"
         id="text21"
         style="font-size:3.5px;line-height:1;font-family:osifont;-inkscape-font-specification:osifont;text-align:center;word-spacing:0px;text-orientation:sideways;text-anchor:middle;stroke-width:2;stroke-linejoin:round"
         aria-label="B" />
      <path
         d="m 17.388916,20.801117 q 0.03076,-0.09399 0.119629,-0.09399 0.08545,0 0.116211,0.09399 l 0.763916,2.296875 q 0.01538,0.04614 0.01538,0.07519 0,0.10083 -0.123047,0.114502 -0.09058,0 -0.128174,-0.112793 0,0 -0.174316,-0.540039 h -0.946778 l -0.186279,0.553711 q -0.03589,0.104248 -0.116211,0.104248 -0.133301,0 -0.133301,-0.124756 0,-0.01709 0.0376,-0.128174 z m 0.112793,0.425537 -0.393066,1.167236 h 0.787841 z"
         id="text22"
         style="font-size:3.5px;line-height:1;font-family:osifont;-inkscape-font-specification:osifont;text-align:center;word-spacing:0px;text-orientation:sideways;text-anchor:middle;stroke-width:2;stroke-linejoin:round"
         aria-label="A" />
      <path
         d="m 17.143677,520.83875 v 2.20117 h 0.890381 q 0.155517,0 0.155517,0.12475 0,0.12305 -0.160644,0.12305 h -1.011719 q -0.121338,0 -0.121338,-0.1521 v -2.29687 q 0,-0.1316 0.123047,-0.1316 0.124756,0 0.124756,0.1316 z"
         id="text24"
         style="font-size:3.5px;line-height:1;font-family:osifont;-inkscape-font-specification:osifont;text-align:center;word-spacing:0px;text-orientation:sideways;text-anchor:middle;stroke-width:2;stroke-linejoin:round"
         aria-label="L" />
      <path
         d="m 16.887329,473.28262 q -0.11792,0 -0.11792,-0.15893 v -2.30371 q 0,-0.1128 0.11792,-0.1128 0.128174,0 0.128174,0.12818 v 1.09033 l 1.05957,-1.16211 q 0.05982,-0.0649 0.111084,-0.0649 0.05127,0 0.08887,0.0427 0.03589,0.041 0.03589,0.0889 0,0.0444 -0.06152,0.11279 l -0.710938,0.78785 0.745117,1.34497 q 0.03247,0.0581 0.03247,0.0854 0,0.053 -0.04614,0.0923 -0.03931,0.0342 -0.08887,0.0342 -0.06323,0 -0.105957,-0.0769 L 17.362433,471.92402 17.018927,472.3 v 0.8186 q 0,0.16406 -0.131592,0.16406 z"
         id="text25"
         style="font-size:3.5px;line-height:1;font-family:osifont;-inkscape-font-specification:osifont;text-align:center;word-spacing:0px;text-orientation:sideways;text-anchor:middle;stroke-width:2;stroke-linejoin:round"
         aria-label="K" />
      <path
         d="m 17.723022,420.84048 q 0,-0.1333 0.123047,-0.1333 0.121338,0 0.121338,0.1316 v 1.82348 q 0,0.25464 -0.18457,0.44092 -0.182861,0.18457 -0.446045,0.18457 h -0.263184 q -0.126464,0 -0.126464,-0.12646 0,-0.12647 0.148681,-0.12647 h 0.25293 q 0.160644,0 0.266601,-0.11621 0.107666,-0.11792 0.107666,-0.26318 z"
         id="text26"
         style="font-size:3.5px;line-height:1;font-family:osifont;-inkscape-font-specification:osifont;text-align:center;word-spacing:0px;text-orientation:sideways;text-anchor:middle;stroke-width:2;stroke-linejoin:round"
         aria-label="J" />
      <path
         d="m 18.169922,570.77209 q 0.04102,-0.0649 0.109375,-0.0649 0.129883,0 0.129883,0.13672 v 2.27466 q 0,0.16919 -0.126465,0.16919 -0.126465,0 -0.126465,-0.16919 v -1.83374 l -0.533203,0.86816 q -0.06494,0.10767 -0.129883,0.10767 -0.06494,0 -0.126465,-0.10425 l -0.522949,-0.86816 v 1.83887 q 0,0.16064 -0.131592,0.16064 -0.121338,0 -0.121338,-0.15723 v -2.28833 q 0,-0.13501 0.129883,-0.13501 0.06665,0 0.105957,0.0598 l 0.659668,1.11255 z"
         id="text23"
         style="font-size:3.5px;line-height:1;font-family:osifont;-inkscape-font-specification:osifont;text-align:center;word-spacing:0px;text-orientation:sideways;text-anchor:middle;stroke-width:2;stroke-linejoin:round"
         aria-label="M" />
      <path
         d="m 18.034912,371.98892 h -1.061279 v 1.16724 q 0,0.13159 -0.126465,0.13159 -0.124756,0 -0.124756,-0.12988 v -2.30542 q 0,-0.14527 0.124756,-0.14527 0.126465,0 0.126465,0.14527 v 0.89038 h 1.061279 v -0.90064 q 0,-0.12817 0.121338,-0.12817 0.121338,0 0.121338,0.12646 v 2.31055 q 0,0.13672 -0.121338,0.13672 -0.121338,0 -0.121338,-0.1333 z"
         id="text27"
         style="font-size:3.5px;line-height:1;font-family:osifont;-inkscape-font-specification:osifont;text-align:center;word-spacing:0px;text-orientation:sideways;text-anchor:middle;stroke-width:2;stroke-linejoin:round"
         aria-label="H" />
      <path
         d="m 18.042603,323.03311 v -1.04931 h -0.268311 q -0.121338,0 -0.121338,-0.12134 0,-0.12305 0.116211,-0.12305 h 0.408447 q 0.109375,0 0.109375,0.16235 v 1.22876 q 0,0.14869 -0.141845,0.14869 h -0.830567 q -0.186279,0 -0.379394,-0.16749 -0.193116,-0.16918 -0.193116,-0.53491 v -1.27319 q 0,-0.24097 0.194825,-0.42212 0.196533,-0.18286 0.449463,-0.18286 h 0.755371 q 0.15039,0 0.15039,0.12305 0,0.12304 -0.148681,0.12304 h -0.729737 q -0.187988,0 -0.307617,0.12305 -0.119629,0.12305 -0.119629,0.29907 v 1.23731 q 0,0.18969 0.111084,0.30932 0.111084,0.11963 0.247803,0.11963 z"
         id="text28"
         style="font-size:3.5px;line-height:1;font-family:osifont;-inkscape-font-specification:osifont;text-align:center;word-spacing:0px;text-orientation:sideways;text-anchor:middle;stroke-width:2;stroke-linejoin:round"
         aria-label="G" />
      <path
         d="m 833.15221,271.98376 v 1.15699 q 0,0.14013 -0.12818,0.14013 -0.12475,0 -0.12475,-0.14184 0,0 0,-2.3208 0,-0.11963 0.1333,-0.11963 0,0 1.01855,0 0.13501,0 0.13501,0.12305 0,0.12304 -0.1333,0.12304 h -0.89892 v 0.78955 h 0.89892 q 0.1333,0 0.1333,0.12476 0,0.12475 -0.13501,0.12475 z"
         id="path29"
         style="font-size:3.5px;line-height:1;font-family:osifont;-inkscape-font-specification:osifont;text-align:center;word-spacing:0px;text-orientation:sideways;text-anchor:middle;stroke-width:2;stroke-linejoin:round"
         aria-label="F" />
      <path
         d="m 833.14537,223.03307 h 0.91089 q 0.12646,0 0.12646,0.12304 0,0.12305 -0.12133,0.12305 h -1.04932 q -0.11279,0 -0.11279,-0.12817 v -2.3191 q 0,-0.1333 0.1521,-0.1333 h 0.99633 q 0.13843,0 0.13843,0.12476 0,0.12305 -0.13843,0.12305 h -0.90234 v 0.79638 h 0.65967 q 0.12475,0 0.12475,0.12305 0,0.11621 -0.12133,0.11621 h -0.66309 z"
         id="path31"
         style="font-size:3.5px;line-height:1;font-family:osifont;-inkscape-font-specification:osifont;text-align:center;word-spacing:0px;text-orientation:sideways;text-anchor:middle;stroke-width:2;stroke-linejoin:round"
         aria-label="E" />
      <path
         d="m 832.97789,173.04161 q 0,0 0.59302,0 0.229,0 0.34179,-0.11792 0.11451,-0.11963 0.11451,-0.29224 v -1.28344 q 0,-0.1521 -0.11109,-0.27344 -0.11108,-0.12134 -0.29394,-0.12134 h -0.64429 z m -0.25122,-2.19434 q 0,-0.14013 0.14184,-0.14013 h 0.80152 q 0.23584,0 0.4187,0.18457 0.18457,0.18457 0.18457,0.4187 v 1.37915 q 0,0.23413 -0.18457,0.41699 -0.18457,0.18115 -0.39478,0.18115 h -0.85278 q -0.1145,0 -0.1145,-0.1521 z"
         id="path33"
         style="font-size:3.5px;line-height:1;font-family:osifont;-inkscape-font-specification:osifont;text-align:center;word-spacing:0px;text-orientation:sideways;text-anchor:middle;stroke-width:2;stroke-linejoin:round"
         aria-label="D" />
      <path
         d="m 833.53075,120.69859 q 0,0 0.52295,0 0.12646,0 0.12646,0.12817 0,0.12988 -0.13672,0.12988 h -0.5144 q -0.14356,0 -0.27857,0.12476 -0.10254,0.0957 -0.10254,0.25635 v 1.30566 q 0,0.16064 0.10767,0.27686 0.11279,0.11962 0.23413,0.11962 h 0.57422 q 0.12305,0 0.12305,0.12476 0,0.11792 -0.12476,0.11792 h -0.58276 q -0.23584,0 -0.44092,-0.2273 -0.14014,-0.15551 -0.14014,-0.39819 v -1.33813 q 0,-0.25635 0.20166,-0.44605 0.18457,-0.17431 0.43067,-0.17431 z"
         id="path35"
         style="font-size:3.5px;line-height:1;font-family:osifont;-inkscape-font-specification:osifont;text-align:center;word-spacing:0px;text-orientation:sideways;text-anchor:middle;stroke-width:2;stroke-linejoin:round"
         aria-label="C" />
      <path
         d="m 834.29637,72.501564 q 0,0.375977 -0.23926,0.581055 -0.23755,0.205078 -0.44946,0.205078 h -0.75024 q -0.11963,0 -0.11963,-0.155518 v -2.264404 q 0,-0.160645 0.15893,-0.160645 h 0.53321 q 0.3247,0 0.47338,0.129883 0.25977,0.227295 0.25977,0.516114 0,0.314453 -0.23926,0.502441 0.15894,0.09228 0.2649,0.264893 0.10766,0.172607 0.10766,0.381103 z m -1.29541,-0.492187 v 1.040771 h 0.5332 q 0.23243,0 0.37256,-0.160645 0.14014,-0.160644 0.14014,-0.355468 0,-0.194824 -0.13159,-0.360596 -0.12989,-0.164062 -0.37598,-0.164062 z m 0,-1.047608 v 0.781006 h 0.52124 q 0.19653,0 0.29395,-0.105957 0.0991,-0.107666 0.0991,-0.266602 0,-0.160644 -0.10425,-0.283691 -0.10425,-0.124756 -0.29566,-0.124756 z"
         id="path37"
         style="font-size:3.5px;line-height:1;font-family:osifont;-inkscape-font-specification:osifont;text-align:center;word-spacing:0px;text-orientation:sideways;text-anchor:middle;stroke-width:2;stroke-linejoin:round"
         aria-label="B" />
      <path
         d="m 833.3889,20.801117 q 0.0308,-0.09399 0.11963,-0.09399 0.0855,0 0.11621,0.09399 l 0.76392,2.296875 q 0.0154,0.04614 0.0154,0.07519 0,0.10083 -0.12305,0.114502 -0.0906,0 -0.12817,-0.112793 0,0 -0.17432,-0.540039 h -0.94678 l -0.18628,0.553711 q -0.0359,0.104248 -0.11621,0.104248 -0.1333,0 -0.1333,-0.124756 0,-0.01709 0.0376,-0.128174 z m 0.11279,0.425537 -0.39306,1.167236 h 0.78784 z"
         id="path38"
         style="font-size:3.5px;line-height:1;font-family:osifont;-inkscape-font-specification:osifont;text-align:center;word-spacing:0px;text-orientation:sideways;text-anchor:middle;stroke-width:2;stroke-linejoin:round"
         aria-label="A" />
      <path
         d="m 833.14366,520.83875 v 2.20117 h 0.89038 q 0.15552,0 0.15552,0.12475 0,0.12305 -0.16064,0.12305 h -1.01172 q -0.12134,0 -0.12134,-0.1521 v -2.29687 q 0,-0.1316 0.12305,-0.1316 0.12475,0 0.12475,0.1316 z"
         id="path41"
         style="font-size:3.5px;line-height:1;font-family:osifont;-inkscape-font-specification:osifont;text-align:center;word-spacing:0px;text-orientation:sideways;text-anchor:middle;stroke-width:2;stroke-linejoin:round"
         aria-label="L" />
      <path
         d="m 832.88731,473.28262 q -0.11792,0 -0.11792,-0.15893 v -2.30371 q 0,-0.1128 0.11792,-0.1128 0.12818,0 0.12818,0.12818 v 1.09033 l 1.05957,-1.16211 q 0.0598,-0.0649 0.11108,-0.0649 0.0513,0 0.0889,0.0427 0.0359,0.041 0.0359,0.0889 0,0.0444 -0.0615,0.11279 l -0.71094,0.78785 0.74512,1.34497 q 0.0325,0.0581 0.0325,0.0854 0,0.053 -0.0461,0.0923 -0.0393,0.0342 -0.0889,0.0342 -0.0632,0 -0.10596,-0.0769 l -0.71264,-1.28687 -0.34351,0.37598 v 0.8186 q 0,0.16406 -0.13159,0.16406 z"
         id="path43"
         style="font-size:3.5px;line-height:1;font-family:osifont;-inkscape-font-specification:osifont;text-align:center;word-spacing:0px;text-orientation:sideways;text-anchor:middle;stroke-width:2;stroke-linejoin:round"
         aria-label="K" />
      <path
         d="m 833.72301,420.84048 q 0,-0.1333 0.12304,-0.1333 0.12134,0 0.12134,0.1316 v 1.82348 q 0,0.25464 -0.18457,0.44092 -0.18286,0.18457 -0.44604,0.18457 h -0.26319 q -0.12646,0 -0.12646,-0.12646 0,-0.12647 0.14868,-0.12647 h 0.25293 q 0.16064,0 0.2666,-0.11621 0.10767,-0.11792 0.10767,-0.26318 z"
         id="path45"
         style="font-size:3.5px;line-height:1;font-family:osifont;-inkscape-font-specification:osifont;text-align:center;word-spacing:0px;text-orientation:sideways;text-anchor:middle;stroke-width:2;stroke-linejoin:round"
         aria-label="J" />
      <path
         d="m 834.16991,570.77209 q 0.041,-0.0649 0.10937,-0.0649 0.12988,0 0.12988,0.13672 v 2.27466 q 0,0.16919 -0.12646,0.16919 -0.12647,0 -0.12647,-0.16919 v -1.83374 l -0.5332,0.86816 q -0.0649,0.10767 -0.12988,0.10767 -0.0649,0 -0.12647,-0.10425 l -0.52295,-0.86816 v 1.83887 q 0,0.16064 -0.13159,0.16064 -0.12134,0 -0.12134,-0.15723 v -2.28833 q 0,-0.13501 0.12989,-0.13501 0.0666,0 0.10595,0.0598 l 0.65967,1.11255 z"
         id="path47"
         style="font-size:3.5px;line-height:1;font-family:osifont;-inkscape-font-specification:osifont;text-align:center;word-spacing:0px;text-orientation:sideways;text-anchor:middle;stroke-width:2;stroke-linejoin:round"
         aria-label="M" />
      <path
         d="m 834.0349,371.98892 h -1.06128 v 1.16724 q 0,0.13159 -0.12647,0.13159 -0.12475,0 -0.12475,-0.12988 v -2.30542 q 0,-0.14527 0.12475,-0.14527 0.12647,0 0.12647,0.14527 v 0.89038 h 1.06128 v -0.90064 q 0,-0.12817 0.12133,-0.12817 0.12134,0 0.12134,0.12646 v 2.31055 q 0,0.13672 -0.12134,0.13672 -0.12133,0 -0.12133,-0.1333 z"
         id="path48"
         style="font-size:3.5px;line-height:1;font-family:osifont;-inkscape-font-specification:osifont;text-align:center;word-spacing:0px;text-orientation:sideways;text-anchor:middle;stroke-width:2;stroke-linejoin:round"
         aria-label="H" />
      <path
         d="m 834.04259,323.03311 v -1.04931 h -0.26831 q -0.12134,0 -0.12134,-0.12134 0,-0.12305 0.11621,-0.12305 h 0.40845 q 0.10937,0 0.10937,0.16235 v 1.22876 q 0,0.14869 -0.14184,0.14869 h -0.83057 q -0.18628,0 -0.37939,-0.16749 -0.19312,-0.16918 -0.19312,-0.53491 v -1.27319 q 0,-0.24097 0.19482,-0.42212 0.19654,-0.18286 0.44947,-0.18286 h 0.75537 q 0.15039,0 0.15039,0.12305 0,0.12304 -0.14868,0.12304 h -0.72974 q -0.18799,0 -0.30762,0.12305 -0.11963,0.12305 -0.11963,0.29907 v 1.23731 q 0,0.18969 0.11109,0.30932 0.11108,0.11963 0.2478,0.11963 z"
         id="path49"
         style="font-size:3.5px;line-height:1;font-family:osifont;-inkscape-font-specification:osifont;text-align:center;word-spacing:0px;text-orientation:sideways;text-anchor:middle;stroke-width:2;stroke-linejoin:round"
         aria-label="G" />
      <path
         d="m 395.4938,7.4865443 q -0.18397,0 -0.32453,0.1322916 -0.15296,0.1446939 -0.15296,0.3307289 v 0.3762041 q 0,0.1529621 0.17983,0.3224607 0.10749,0.1012857 0.29973,0.1012857 0.16743,0 0.33279,-0.1343586 0.14676,-0.1198892 0.14676,-0.3389971 V 7.9681683 q 0,-0.1756997 -0.14883,-0.3451983 -0.11988,-0.1364257 -0.33279,-0.1364257 z M 395.16927,6.355865 q -0.15089,0.1570962 -0.15089,0.3327959 0,0.1653644 0.10542,0.3183266 0.11989,0.1736326 0.36586,0.1736326 0.23772,0 0.36587,-0.1446939 0.12609,-0.148828 0.12609,-0.3327959 0,-0.1901691 -0.16329,-0.3389971 -0.1447,-0.1302245 -0.3328,-0.1302245 -0.19844,0 -0.31626,0.1219563 z m -0.13849,0.9756502 q -0.31213,-0.2418455 -0.31213,-0.6717931 0,-0.3431312 0.27906,-0.5539709 0.23771,-0.1798338 0.50642,-0.1798338 0.22325,0 0.38448,0.099219 0.3886,0.2397784 0.3886,0.6779942 0,0.409277 -0.31212,0.634586 0.31626,0.2521808 0.31626,0.6180497 v 0.3534665 q 0,0.299723 -0.26665,0.5498367 -0.20257,0.1901691 -0.50436,0.1901691 -0.34314,0 -0.5209,-0.1756997 -0.27079,-0.2666501 -0.27079,-0.5519038 V 7.9392295 q 0,-0.33693 0.31213,-0.6077143 z"
         id="text50"
         style="font-size:4.23333px;line-height:1;font-family:osifont;-inkscape-font-specification:osifont;text-align:center;word-spacing:0px;text-orientation:sideways;text-anchor:middle;stroke-width:2;stroke-linejoin:round"
         aria-label="8" />
      <path
         d="m 346.06947,5.9362527 q 0.17364,0 0.17364,0.1446939 0,0.045475 -0.0434,0.2418455 0,0 -0.57258,2.5900206 -0.031,0.1446939 -0.14262,0.1446939 -0.15917,0 -0.15917,-0.1364257 0,-0.028939 0.006,-0.057878 l 0.58291,-2.6230935 h -0.92604 q 0,0 0,0.1550292 0,0.146761 -0.15089,0.146761 -0.14263,0 -0.14263,-0.1529622 0,0 0,-0.3141924 0,-0.1384927 0.16537,-0.1384927 z"
         id="text51"
         style="font-size:4.23333px;line-height:1;font-family:osifont;-inkscape-font-specification:osifont;text-align:center;word-spacing:0px;text-orientation:sideways;text-anchor:middle;stroke-width:2;stroke-linejoin:round"
         aria-label="7" />
      <path
         d="m 295.04008,7.1930225 q 0,0 0.45682,0 0.34726,0 0.57877,0.2583819 0.20258,0.2253091 0.20258,0.4795569 0,0 0,0.4175452 0,0.2666502 -0.25839,0.5167639 -0.19843,0.1922362 -0.56017,0.1922362 -0.29145,0 -0.51676,-0.2191079 -0.22118,-0.2149738 -0.22118,-0.4898922 v -1.079003 q 0,-0.4712887 0.36174,-0.895035 0.22117,-0.258382 0.58704,-0.4051429 0.0827,-0.033073 0.14056,-0.033073 0.14883,0 0.14883,0.1612303 0,0.095085 -0.13022,0.1405598 -0.29146,0.1012857 -0.45889,0.2687172 -0.28525,0.2831866 -0.33073,0.6862626 z m -0.0227,1.1244782 q 0,0.1777668 0.17364,0.33693 0.12195,0.111621 0.31212,0.111621 0.14469,0 0.339,-0.1467609 0.13642,-0.1033528 0.13642,-0.3100583 V 7.99504 q 0,-0.2046385 -0.14056,-0.3555335 -0.13436,-0.1446939 -0.33693,-0.1446939 h -0.48369 z"
         id="text52"
         style="font-size:4.23333px;line-height:1;font-family:osifont;-inkscape-font-specification:osifont;text-align:center;word-spacing:0px;text-orientation:sideways;text-anchor:middle;stroke-width:2;stroke-linejoin:round"
         aria-label="6" />
      <path
         d="m 244.7166,6.0933489 q 0,-0.1570962 0.17984,-0.1570962 0,0 1.21542,0 0.17157,0 0.17157,0.148828 0,0.148828 -0.1633,0.148828 h -1.09967 v 0.9570467 h 0.45888 q 0.39895,0 0.64079,0.297656 0.16123,0.1984373 0.16123,0.4754228 v 0.3327959 q 0,0.3307289 -0.22531,0.5395015 -0.23771,0.221175 -0.52503,0.221175 h -0.64492 q -0.15916,0 -0.15916,-0.1446939 0,-0.146761 0.17363,-0.146761 h 0.57464 q 0.26045,0 0.39894,-0.1777667 0.10336,-0.1322916 0.10336,-0.3121254 V 7.9640342 q 0,-0.186035 -0.12196,-0.3224607 -0.13643,-0.1529621 -0.41755,-0.1529621 h -0.5705 q -0.1509,0 -0.1509,-0.1756997 z"
         id="text53"
         style="font-size:4.23333px;line-height:1;font-family:osifont;-inkscape-font-specification:osifont;text-align:center;word-spacing:0px;text-orientation:sideways;text-anchor:middle;stroke-width:2;stroke-linejoin:round"
         aria-label="5" />
      <path
         d="m 195.24473,6.0416725 q 0.0331,-0.1157551 0.15297,-0.1157551 0.14262,0 0.14262,0.1426268 0,0.03514 -0.0145,0.082682 l -0.5643,1.9678368 h 0.75447 V 7.6684452 q 0,-0.1736326 0.1509,-0.1736326 0.14676,0 0.14676,0.186035 v 0.4402828 q 0,0 0.31833,0 0.15089,0 0.15089,0.1632974 0,0.1322915 -0.1571,0.1322915 h -0.31212 v 0.4671546 q 0,0.1674315 -0.15296,0.1674315 -0.1447,0 -0.1447,-0.1612303 V 8.4229205 h -0.94878 q -0.14676,0 -0.14676,-0.1384927 0,-0.045475 0.0289,-0.148828 z"
         id="text54"
         style="font-size:4.23333px;line-height:1;font-family:osifont;-inkscape-font-specification:osifont;text-align:center;word-spacing:0px;text-orientation:sideways;text-anchor:middle;stroke-width:2;stroke-linejoin:round"
         aria-label="4" />
      <path
         d="m 144.89023,5.9259174 q 0,0 0.64699,0 0.28112,0 0.50436,0.2418455 0.20671,0.223242 0.20671,0.5229651 0,0.3762041 -0.32246,0.6428542 0.31419,0.2273761 0.31419,0.5601721 0,0 0,0.4547522 0,0.2666502 -0.22944,0.4960933 -0.20257,0.2025715 -0.52917,0.2025715 0,0 -0.61598,0 -0.1757,0 -0.1757,-0.1529621 0,-0.1384927 0.18603,-0.1384927 0,0 0.54571,0 0.25011,0 0.3948,-0.148828 0.13436,-0.1384928 0.13436,-0.3617348 V 7.9764365 q 0,-0.2108397 -0.12402,-0.3410642 -0.1509,-0.1591632 -0.32246,-0.1591632 h -0.31419 q -0.17157,0 -0.17157,-0.1550292 0,-0.1364257 0.17363,-0.1364257 h 0.27906 q 0.1943,0 0.33279,-0.1405597 0.14676,-0.148828 0.14676,-0.3389972 0,-0.1943032 -0.11782,-0.3141924 -0.16123,-0.1632974 -0.33073,-0.1632974 h -0.61185 q -0.19223,0 -0.19223,-0.1550292 0,-0.1467609 0.19223,-0.1467609 z"
         id="text55"
         style="font-size:4.23333px;line-height:1;font-family:osifont;-inkscape-font-specification:osifont;text-align:center;word-spacing:0px;text-orientation:sideways;text-anchor:middle;stroke-width:2;stroke-linejoin:round"
         aria-label="3" />
      <path
         d="m 94.880932,6.7031303 q -0.16123,0 -0.16123,-0.1446939 0,-0.045475 0.03721,-0.1198892 0.130224,-0.2563149 0.299723,-0.3658689 0.21084,-0.1364256 0.444417,-0.1364256 0.39274,0 0.615982,0.299723 0.163298,0.2191079 0.163298,0.4712887 0,0.2211749 -0.136426,0.4423499 l -1.002522,1.6185045 h 0.979784 q 0.15503,0 0.15503,0.1550292 0,0.1343586 -0.169499,0.1343586 H 94.90574 q -0.183968,0 -0.183968,-0.1322916 0,-0.057878 0.02687,-0.1012857 l 1.112075,-1.7921372 q 0.113689,-0.1839679 0.113689,-0.3245277 0,-0.1777668 -0.113689,-0.3100583 -0.138492,-0.1612304 -0.370002,-0.1612304 -0.287321,0 -0.465088,0.3389971 -0.06821,0.1281575 -0.144694,0.1281575 z"
         id="text56"
         style="font-size:4.23333px;line-height:1;font-family:osifont;-inkscape-font-specification:osifont;text-align:center;word-spacing:0px;text-orientation:sideways;text-anchor:middle;stroke-width:2;stroke-linejoin:round"
         aria-label="2" />
      <path
         d="m 45.508299,6.0023985 q 0.07028,-0.066146 0.146761,-0.066146 0.155029,0 0.155029,0.1715656 v 2.7636533 q 0,0.1756997 -0.148828,0.1756997 -0.152962,0 -0.152962,-0.1777668 0,0 0,-2.4370585 l -0.359668,0.3596677 q -0.05581,0.05581 -0.111621,0.05581 -0.157096,0 -0.157096,-0.1384927 0,-0.07028 0.05994,-0.1302245 z"
         id="text57"
         style="font-size:4.23333px;line-height:1;font-family:osifont;-inkscape-font-specification:osifont;text-align:center;word-spacing:0px;text-orientation:sideways;text-anchor:middle;stroke-width:2;stroke-linejoin:round"
         aria-label="1" />
      <path
         d="m 744.45614,6.0023965 q 0.0703,-0.066146 0.14676,-0.066146 0.15503,0 0.15503,0.1715656 v 2.7636533 q 0,0.1756997 -0.14883,0.1756997 -0.15296,0 -0.15296,-0.1777668 0,0 0,-2.4370585 l -0.35967,0.3596677 q -0.0558,0.05581 -0.11162,0.05581 -0.1571,0 -0.1571,-0.1384928 0,-0.07028 0.0599,-0.1302245 z m 0.98392,0.09095 q 0,-0.1570962 0.17983,-0.1570962 0,0 1.21543,0 0.17156,0 0.17156,0.148828 0,0.148828 -0.16329,0.148828 h -1.09968 V 7.190953 h 0.45889 q 0.39894,0 0.64079,0.297656 0.16123,0.1984373 0.16123,0.4754228 v 0.3327959 q 0,0.3307289 -0.22531,0.5395015 -0.23771,0.221175 -0.52503,0.221175 h -0.64493 q -0.15916,0 -0.15916,-0.1446939 0,-0.146761 0.17363,-0.146761 h 0.57464 q 0.26045,0 0.39895,-0.1777668 0.10335,-0.1322915 0.10335,-0.3121253 V 7.9640323 q 0,-0.186035 -0.12196,-0.3224607 -0.13642,-0.1529621 -0.41754,-0.1529621 h -0.57051 q -0.15089,0 -0.15089,-0.1756997 z"
         id="text59"
         style="font-size:4.23333px;line-height:1;font-family:osifont;-inkscape-font-specification:osifont;text-align:center;word-spacing:0px;text-orientation:sideways;text-anchor:middle;stroke-width:2;stroke-linejoin:round"
         aria-label="15" />
      <path
         d="m 694.42203,6.0023965 q 0.0703,-0.066146 0.14676,-0.066146 0.15503,0 0.15503,0.1715656 v 2.7636533 q 0,0.1756997 -0.14883,0.1756997 -0.15296,0 -0.15296,-0.1777668 0,0 0,-2.4370585 l -0.35967,0.3596677 q -0.0558,0.05581 -0.11162,0.05581 -0.15709,0 -0.15709,-0.1384928 0,-0.07028 0.0599,-0.1302245 z m 1.54616,0.039274 q 0.0331,-0.1157551 0.15296,-0.1157551 0.14263,0 0.14263,0.1426268 0,0.03514 -0.0145,0.082682 L 695.685,8.1190614 h 0.75448 V 7.6684433 q 0,-0.1736326 0.15089,-0.1736326 0.14676,0 0.14676,0.186035 v 0.4402828 q 0,0 0.31833,0 0.15089,0 0.15089,0.1632974 0,0.1322915 -0.15709,0.1322915 h -0.31213 V 8.883872 q 0,0.1674315 -0.15296,0.1674315 -0.14469,0 -0.14469,-0.1612303 V 8.4229186 h -0.94878 q -0.14676,0 -0.14676,-0.1384927 0,-0.045475 0.0289,-0.148828 z"
         id="text60"
         style="font-size:4.23333px;line-height:1;font-family:osifont;-inkscape-font-specification:osifont;text-align:center;word-spacing:0px;text-orientation:sideways;text-anchor:middle;stroke-width:2;stroke-linejoin:round"
         aria-label="14" />
      <path
         d="m 644.49128,6.0023965 q 0.0703,-0.066146 0.14676,-0.066146 0.15503,0 0.15503,0.1715656 v 2.7636533 q 0,0.1756997 -0.14883,0.1756997 -0.15296,0 -0.15296,-0.1777668 0,0 0,-2.4370585 l -0.35967,0.3596677 q -0.0558,0.05581 -0.11162,0.05581 -0.1571,0 -0.1571,-0.1384928 0,-0.07028 0.0599,-0.1302245 z m 1.12241,-0.076481 q 0,0 0.64699,0 0.28112,0 0.50436,0.2418455 0.2067,0.223242 0.2067,0.522965 0,0.3762042 -0.32246,0.6428543 0.3142,0.2273761 0.3142,0.5601721 0,0 0,0.4547522 0,0.2666502 -0.22945,0.4960933 -0.20257,0.2025715 -0.52916,0.2025715 0,0 -0.61599,0 -0.1757,0 -0.1757,-0.1529621 0,-0.1384928 0.18604,-0.1384928 0,0 0.5457,0 0.25012,0 0.39481,-0.148828 0.13436,-0.1384927 0.13436,-0.3617347 V 7.9764346 q 0,-0.2108397 -0.12403,-0.3410642 -0.15089,-0.1591632 -0.32246,-0.1591632 h -0.31419 q -0.17156,0 -0.17156,-0.1550292 0,-0.1364257 0.17363,-0.1364257 h 0.27905 q 0.1943,0 0.3328,-0.1405598 0.14676,-0.148828 0.14676,-0.3389971 0,-0.1943032 -0.11782,-0.3141924 -0.16123,-0.1632974 -0.33073,-0.1632974 h -0.61185 q -0.19224,0 -0.19224,-0.1550292 0,-0.1467609 0.19224,-0.1467609 z"
         id="text61"
         style="font-size:4.23333px;line-height:1;font-family:osifont;-inkscape-font-specification:osifont;text-align:center;word-spacing:0px;text-orientation:sideways;text-anchor:middle;stroke-width:2;stroke-linejoin:round"
         aria-label="13" />
      <path
         d="m 594.52125,6.0023965 q 0.0703,-0.066146 0.14676,-0.066146 0.15503,0 0.15503,0.1715656 v 2.7636533 q 0,0.1756997 -0.14883,0.1756997 -0.15296,0 -0.15296,-0.1777668 0,0 0,-2.4370585 l -0.35967,0.3596677 q -0.0558,0.05581 -0.11162,0.05581 -0.1571,0 -0.1571,-0.1384928 0,-0.07028 0.0599,-0.1302245 z m 1.08314,0.7007319 q -0.16123,0 -0.16123,-0.1446939 0,-0.045475 0.0372,-0.1198892 0.13023,-0.2563149 0.29973,-0.3658689 0.21084,-0.1364256 0.44441,-0.1364256 0.39274,0 0.61599,0.299723 0.16329,0.2191079 0.16329,0.4712887 0,0.2211749 -0.13642,0.4423499 l -1.00252,1.6185045 h 0.97978 q 0.15503,0 0.15503,0.1550291 0,0.1343587 -0.1695,0.1343587 h -1.20096 q -0.18397,0 -0.18397,-0.1322916 0,-0.057878 0.0269,-0.1012857 l 1.11208,-1.7921372 q 0.11369,-0.1839679 0.11369,-0.3245277 0,-0.1777668 -0.11369,-0.3100583 -0.13849,-0.1612304 -0.37,-0.1612304 -0.28732,0 -0.46509,0.3389971 -0.0682,0.1281575 -0.14469,0.1281575 z"
         id="text62"
         style="font-size:4.23333px;line-height:1;font-family:osifont;-inkscape-font-specification:osifont;text-align:center;word-spacing:0px;text-orientation:sideways;text-anchor:middle;stroke-width:2;stroke-linejoin:round"
         aria-label="12" />
      <path
         d="m 544.7848,6.0023965 q 0.0703,-0.066146 0.14676,-0.066146 0.15503,0 0.15503,0.1715656 v 2.7636533 q 0,0.1756997 -0.14883,0.1756997 -0.15296,0 -0.15296,-0.1777668 0,0 0,-2.4370585 l -0.35967,0.3596677 q -0.0558,0.05581 -0.11162,0.05581 -0.1571,0 -0.1571,-0.1384928 0,-0.07028 0.0599,-0.1302245 z m 1.44694,0 q 0.0703,-0.066146 0.14676,-0.066146 0.15503,0 0.15503,0.1715656 v 2.7636533 q 0,0.1756997 -0.14883,0.1756997 -0.15296,0 -0.15296,-0.1777668 0,0 0,-2.4370585 l -0.35967,0.3596677 q -0.0558,0.05581 -0.11162,0.05581 -0.1571,0 -0.1571,-0.1384928 0,-0.07028 0.06,-0.1302245 z"
         id="text63"
         style="font-size:4.23333px;line-height:1;font-family:osifont;-inkscape-font-specification:osifont;text-align:center;word-spacing:0px;text-orientation:sideways;text-anchor:middle;stroke-width:2;stroke-linejoin:round"
         aria-label="11" />
      <path
         d="m 794.4613,6.0023965 q 0.0703,-0.066146 0.14677,-0.066146 0.15502,0 0.15502,0.1715656 v 2.7636533 q 0,0.1756997 -0.14882,0.1756997 -0.15297,0 -0.15297,-0.1777668 0,0 0,-2.4370585 l -0.35966,0.3596677 q -0.0558,0.05581 -0.11162,0.05581 -0.1571,0 -0.1571,-0.1384928 0,-0.07028 0.0599,-0.1302245 z m 1.30225,1.190624 q 0,0 0.45682,0 0.34726,0 0.57877,0.258382 0.20258,0.225309 0.20258,0.4795569 0,0 0,0.4175452 0,0.2666502 -0.25839,0.5167639 -0.19843,0.1922362 -0.56017,0.1922362 -0.29145,0 -0.51676,-0.2191079 -0.22118,-0.2149738 -0.22118,-0.4898922 v -1.079003 q 0,-0.4712887 0.36174,-0.8950351 0.22117,-0.2583819 0.58704,-0.4051428 0.0827,-0.033073 0.14056,-0.033073 0.14883,0 0.14883,0.1612303 0,0.095085 -0.13023,0.1405598 -0.29145,0.1012857 -0.45888,0.2687172 -0.28526,0.2831866 -0.33073,0.6862625 z m -0.0227,1.1244783 q 0,0.1777667 0.17363,0.33693 0.12196,0.111621 0.31213,0.111621 0.14469,0 0.339,-0.1467609 0.13642,-0.1033528 0.13642,-0.3100584 V 7.9950381 q 0,-0.2046385 -0.14056,-0.3555336 -0.13436,-0.1446938 -0.33693,-0.1446938 h -0.48369 z"
         id="text58"
         style="font-size:4.23333px;line-height:1;font-family:osifont;-inkscape-font-specification:osifont;text-align:center;word-spacing:0px;text-orientation:sideways;text-anchor:middle;stroke-width:2;stroke-linejoin:round"
         aria-label="16" />
      <path
         d="m 494.51812,6.0023965 q 0.0703,-0.066146 0.14676,-0.066146 0.15503,0 0.15503,0.1715656 v 2.7636533 q 0,0.1756997 -0.14883,0.1756997 -0.15296,0 -0.15296,-0.1777668 0,0 0,-2.4370585 l -0.35967,0.3596677 q -0.0558,0.05581 -0.11162,0.05581 -0.1571,0 -0.1571,-0.1384928 0,-0.07028 0.06,-0.1302245 z m 1.70118,0.2315103 q -0.14055,0 -0.20257,0.1240233 -0.16123,0.3183266 -0.23564,0.7296706 -0.0351,0.1922362 -0.0351,0.3906735 0,0.1446939 0.0186,0.2873207 0.06,0.4671546 0.20464,0.7937494 0.0868,0.1963702 0.24805,0.1963702 0.15503,0 0.24804,-0.1777667 0.13643,-0.2625161 0.20464,-0.7214024 0.0289,-0.1963703 0.0289,-0.3803382 0,-0.183968 -0.0289,-0.3555336 -0.0744,-0.4361487 -0.24391,-0.7668776 -0.062,-0.1198892 -0.20671,-0.1198892 z m 0.0103,-0.297656 q 0.28319,0 0.43201,0.2191079 0.22945,0.33693 0.31833,0.9487785 0.0269,0.1839679 0.0269,0.37207 0,0.1984373 -0.0289,0.3948076 -0.0889,0.6077143 -0.30799,0.9508455 -0.15089,0.2356444 -0.44648,0.2356444 -0.29146,0 -0.44649,-0.2439126 -0.19016,-0.297656 -0.30385,-0.9322421 -0.0331,-0.1839679 -0.0331,-0.3762041 0,-0.2005044 0.0351,-0.4030758 0.10956,-0.6304519 0.28526,-0.9115715 0.15709,-0.2542478 0.46922,-0.2542478 z"
         id="text64"
         style="font-size:4.23333px;line-height:1;font-family:osifont;-inkscape-font-specification:osifont;text-align:center;word-spacing:0px;text-orientation:sideways;text-anchor:middle;stroke-width:2;stroke-linejoin:round"
         aria-label="10" />
      <path
         d="m 445.01421,8.9045425 q 0,-0.1054198 0.14676,-0.1529621 0.20464,-0.066146 0.35554,-0.1901691 0.3638,-0.3038571 0.42374,-0.7565423 h -0.50229 q -0.26252,0 -0.47542,-0.183968 -0.25839,-0.2273761 -0.25839,-0.5270991 0,0 0,-0.4361487 0,-0.3451983 0.33693,-0.5911779 0.17777,-0.1302245 0.45682,-0.1302245 0.29559,0 0.53744,0.2356443 0.2191,0.2129067 0.2191,0.5436356 0,0 0,0.9508456 0,0.3059242 -0.10748,0.5436356 -0.1757,0.3844723 -0.40721,0.5643061 -0.37207,0.2831867 -0.57671,0.2831867 -0.14883,0 -0.14883,-0.1529622 z m 0.93431,-2.1704083 q 0,-0.2087726 -0.12609,-0.3431312 -0.14263,-0.1508951 -0.34933,-0.1508951 -0.17984,0 -0.3266,0.1260904 -0.14883,0.1281575 -0.14883,0.3431312 v 0.334863 q 0,0.2087727 0.1695,0.3493324 0.13436,0.111621 0.39068,0.111621 h 0.39067 z"
         id="text65"
         style="font-size:4.23333px;line-height:1;font-family:osifont;-inkscape-font-specification:osifont;text-align:center;word-spacing:0px;text-orientation:sideways;text-anchor:middle;stroke-width:2;stroke-linejoin:round"
         aria-label="9" />
      <path
         d="m 395.4938,586.48657 q -0.18397,0 -0.32453,0.13229 -0.15296,0.14469 -0.15296,0.33073 v 0.3762 q 0,0.15296 0.17983,0.32246 0.10749,0.10129 0.29973,0.10129 0.16743,0 0.33279,-0.13436 0.14676,-0.11989 0.14676,-0.339 v -0.30799 q 0,-0.1757 -0.14883,-0.3452 -0.11988,-0.13642 -0.33279,-0.13642 z m -0.32453,-1.13068 q -0.15089,0.15709 -0.15089,0.33279 0,0.16537 0.10542,0.31833 0.11989,0.17363 0.36586,0.17363 0.23772,0 0.36587,-0.14469 0.12609,-0.14883 0.12609,-0.3328 0,-0.19017 -0.16329,-0.339 -0.1447,-0.13022 -0.3328,-0.13022 -0.19844,0 -0.31626,0.12196 z m -0.13849,0.97565 q -0.31213,-0.24185 -0.31213,-0.6718 0,-0.34313 0.27906,-0.55397 0.23771,-0.17983 0.50642,-0.17983 0.22325,0 0.38448,0.0992 0.3886,0.23978 0.3886,0.67799 0,0.40928 -0.31212,0.63459 0.31626,0.25218 0.31626,0.61805 v 0.35347 q 0,0.29972 -0.26665,0.54983 -0.20257,0.19017 -0.50436,0.19017 -0.34314,0 -0.5209,-0.1757 -0.27079,-0.26665 -0.27079,-0.5519 v -0.38241 q 0,-0.33693 0.31213,-0.60771 z"
         id="path66"
         style="font-size:4.23333px;line-height:1;font-family:osifont;-inkscape-font-specification:osifont;text-align:center;word-spacing:0px;text-orientation:sideways;text-anchor:middle;stroke-width:2;stroke-linejoin:round"
         aria-label="8" />
      <path
         d="m 346.06947,584.93627 q 0.17364,0 0.17364,0.1447 0,0.0455 -0.0434,0.24184 0,0 -0.57258,2.59003 -0.031,0.14469 -0.14262,0.14469 -0.15917,0 -0.15917,-0.13643 0,-0.0289 0.006,-0.0579 l 0.58291,-2.62309 h -0.92604 q 0,0 0,0.15503 0,0.14676 -0.15089,0.14676 -0.14263,0 -0.14263,-0.15296 0,0 0,-0.3142 0,-0.13849 0.16537,-0.13849 z"
         id="path68"
         style="font-size:4.23333px;line-height:1;font-family:osifont;-inkscape-font-specification:osifont;text-align:center;word-spacing:0px;text-orientation:sideways;text-anchor:middle;stroke-width:2;stroke-linejoin:round"
         aria-label="7" />
      <path
         d="m 295.04008,586.19304 q 0,0 0.45682,0 0.34726,0 0.57877,0.25839 0.20258,0.22531 0.20258,0.47955 0,0 0,0.41755 0,0.26665 -0.25839,0.51676 -0.19843,0.19224 -0.56017,0.19224 -0.29145,0 -0.51676,-0.21911 -0.22118,-0.21497 -0.22118,-0.48989 v -1.079 q 0,-0.47129 0.36174,-0.89504 0.22117,-0.25838 0.58704,-0.40514 0.0827,-0.0331 0.14056,-0.0331 0.14883,0 0.14883,0.16123 0,0.0951 -0.13022,0.14056 -0.29146,0.10128 -0.45889,0.26871 -0.28525,0.28319 -0.33073,0.68627 z m -0.0227,1.12448 q 0,0.17777 0.17364,0.33693 0.12195,0.11162 0.31212,0.11162 0.14469,0 0.339,-0.14676 0.13642,-0.10335 0.13642,-0.31006 v -0.31419 q 0,-0.20464 -0.14056,-0.35553 -0.13436,-0.1447 -0.33693,-0.1447 h -0.48369 z"
         id="path70"
         style="font-size:4.23333px;line-height:1;font-family:osifont;-inkscape-font-specification:osifont;text-align:center;word-spacing:0px;text-orientation:sideways;text-anchor:middle;stroke-width:2;stroke-linejoin:round"
         aria-label="6" />
      <path
         d="m 244.7166,585.09337 q 0,-0.1571 0.17984,-0.1571 0,0 1.21542,0 0.17157,0 0.17157,0.14883 0,0.14883 -0.1633,0.14883 h -1.09967 v 0.95705 h 0.45888 q 0.39895,0 0.64079,0.29765 0.16123,0.19844 0.16123,0.47543 v 0.33279 q 0,0.33073 -0.22531,0.5395 -0.23771,0.22118 -0.52503,0.22118 h -0.64492 q -0.15916,0 -0.15916,-0.14469 0,-0.14677 0.17363,-0.14677 h 0.57464 q 0.26045,0 0.39894,-0.17776 0.10336,-0.13229 0.10336,-0.31213 v -0.31212 q 0,-0.18604 -0.12196,-0.32246 -0.13643,-0.15297 -0.41755,-0.15297 h -0.5705 q -0.1509,0 -0.1509,-0.1757 z"
         id="path72"
         style="font-size:4.23333px;line-height:1;font-family:osifont;-inkscape-font-specification:osifont;text-align:center;word-spacing:0px;text-orientation:sideways;text-anchor:middle;stroke-width:2;stroke-linejoin:round"
         aria-label="5" />
      <path
         d="m 195.24473,585.04169 q 0.0331,-0.11575 0.15297,-0.11575 0.14262,0 0.14262,0.14263 0,0.0351 -0.0145,0.0827 l -0.5643,1.96783 h 0.75447 v -0.45061 q 0,-0.17364 0.1509,-0.17364 0.14676,0 0.14676,0.18604 v 0.44028 q 0,0 0.31833,0 0.15089,0 0.15089,0.1633 0,0.13229 -0.1571,0.13229 h -0.31212 v 0.46716 q 0,0.16743 -0.15296,0.16743 -0.1447,0 -0.1447,-0.16123 v -0.46716 h -0.94878 q -0.14676,0 -0.14676,-0.13849 0,-0.0455 0.0289,-0.14883 z"
         id="path74"
         style="font-size:4.23333px;line-height:1;font-family:osifont;-inkscape-font-specification:osifont;text-align:center;word-spacing:0px;text-orientation:sideways;text-anchor:middle;stroke-width:2;stroke-linejoin:round"
         aria-label="4" />
      <path
         d="m 144.89023,584.92594 q 0,0 0.64699,0 0.28112,0 0.50436,0.24184 0.20671,0.22325 0.20671,0.52297 0,0.3762 -0.32246,0.64285 0.31419,0.22738 0.31419,0.56018 0,0 0,0.45475 0,0.26665 -0.22944,0.49609 -0.20257,0.20257 -0.52917,0.20257 0,0 -0.61598,0 -0.1757,0 -0.1757,-0.15296 0,-0.13849 0.18603,-0.13849 0,0 0.54571,0 0.25011,0 0.3948,-0.14883 0.13436,-0.13849 0.13436,-0.36173 v -0.26872 q 0,-0.21084 -0.12402,-0.34107 -0.1509,-0.15916 -0.32246,-0.15916 h -0.31419 q -0.17157,0 -0.17157,-0.15503 0,-0.13642 0.17363,-0.13642 h 0.27906 q 0.1943,0 0.33279,-0.14056 0.14676,-0.14883 0.14676,-0.339 0,-0.1943 -0.11782,-0.31419 -0.16123,-0.1633 -0.33073,-0.1633 h -0.61185 q -0.19223,0 -0.19223,-0.15503 0,-0.14676 0.19223,-0.14676 z"
         id="path76"
         style="font-size:4.23333px;line-height:1;font-family:osifont;-inkscape-font-specification:osifont;text-align:center;word-spacing:0px;text-orientation:sideways;text-anchor:middle;stroke-width:2;stroke-linejoin:round"
         aria-label="3" />
      <path
         d="m 94.880932,585.70315 q -0.16123,0 -0.16123,-0.14469 0,-0.0455 0.03721,-0.11989 0.130224,-0.25632 0.299723,-0.36587 0.21084,-0.13643 0.444417,-0.13643 0.39274,0 0.615982,0.29973 0.163298,0.2191 0.163298,0.47129 0,0.22117 -0.136426,0.44235 l -1.002522,1.6185 h 0.979784 q 0.15503,0 0.15503,0.15503 0,0.13436 -0.169499,0.13436 H 94.90574 q -0.183968,0 -0.183968,-0.13229 0,-0.0579 0.02687,-0.10129 l 1.112075,-1.79214 q 0.113689,-0.18396 0.113689,-0.32452 0,-0.17777 -0.113689,-0.31006 -0.138492,-0.16123 -0.370002,-0.16123 -0.287321,0 -0.465088,0.33899 -0.06821,0.12816 -0.144695,0.12816 z"
         id="path78"
         style="font-size:4.23333px;line-height:1;font-family:osifont;-inkscape-font-specification:osifont;text-align:center;word-spacing:0px;text-orientation:sideways;text-anchor:middle;stroke-width:2;stroke-linejoin:round"
         aria-label="2" />
      <path
         d="m 45.508299,585.00242 q 0.07028,-0.0661 0.146761,-0.0661 0.155029,0 0.155029,0.17157 v 2.76365 q 0,0.1757 -0.148828,0.1757 -0.152962,0 -0.152962,-0.17777 0,0 0,-2.43706 l -0.359668,0.35967 q -0.05581,0.0558 -0.111621,0.0558 -0.157096,0 -0.157096,-0.13849 0,-0.0703 0.05994,-0.13023 z"
         id="path79"
         style="font-size:4.23333px;line-height:1;font-family:osifont;-inkscape-font-specification:osifont;text-align:center;word-spacing:0px;text-orientation:sideways;text-anchor:middle;stroke-width:2;stroke-linejoin:round"
         aria-label="1" />
      <path
         d="m 744.45614,585.00242 q 0.0703,-0.0661 0.14676,-0.0661 0.15503,0 0.15503,0.17156 v 2.76366 q 0,0.1757 -0.14883,0.1757 -0.15296,0 -0.15296,-0.17777 0,0 0,-2.43706 l -0.35967,0.35967 q -0.0558,0.0558 -0.11162,0.0558 -0.1571,0 -0.1571,-0.13849 0,-0.0703 0.0599,-0.13023 z m 0.98392,0.091 q 0,-0.1571 0.17983,-0.1571 0,0 1.21543,0 0.17156,0 0.17156,0.14883 0,0.14883 -0.16329,0.14883 h -1.09968 v 0.95704 h 0.45889 q 0.39894,0 0.64079,0.29766 0.16123,0.19844 0.16123,0.47542 v 0.3328 q 0,0.33073 -0.22531,0.5395 -0.23771,0.22118 -0.52503,0.22118 h -0.64493 q -0.15916,0 -0.15916,-0.1447 0,-0.14676 0.17363,-0.14676 h 0.57464 q 0.26045,0 0.39895,-0.17776 0.10335,-0.1323 0.10335,-0.31213 v -0.31213 q 0,-0.18603 -0.12196,-0.32246 -0.13642,-0.15296 -0.41754,-0.15296 h -0.57051 q -0.15089,0 -0.15089,-0.1757 z"
         id="path82"
         style="font-size:4.23333px;line-height:1;font-family:osifont;-inkscape-font-specification:osifont;text-align:center;word-spacing:0px;text-orientation:sideways;text-anchor:middle;stroke-width:2;stroke-linejoin:round"
         aria-label="15" />
      <path
         d="m 694.42203,585.00242 q 0.0703,-0.0661 0.14676,-0.0661 0.15503,0 0.15503,0.17156 v 2.76366 q 0,0.1757 -0.14883,0.1757 -0.15296,0 -0.15296,-0.17777 0,0 0,-2.43706 l -0.35967,0.35967 q -0.0558,0.0558 -0.11162,0.0558 -0.15709,0 -0.15709,-0.13849 0,-0.0703 0.0599,-0.13023 z m 1.54616,0.0393 q 0.0331,-0.11576 0.15296,-0.11576 0.14263,0 0.14263,0.14263 0,0.0351 -0.0145,0.0827 l -0.56428,1.96784 h 0.75448 v -0.45062 q 0,-0.17363 0.15089,-0.17363 0.14676,0 0.14676,0.18603 v 0.44028 q 0,0 0.31833,0 0.15089,0 0.15089,0.1633 0,0.13229 -0.15709,0.13229 h -0.31213 v 0.46716 q 0,0.16743 -0.15296,0.16743 -0.14469,0 -0.14469,-0.16123 v -0.46715 h -0.94878 q -0.14676,0 -0.14676,-0.1385 0,-0.0455 0.0289,-0.14883 z"
         id="path84"
         style="font-size:4.23333px;line-height:1;font-family:osifont;-inkscape-font-specification:osifont;text-align:center;word-spacing:0px;text-orientation:sideways;text-anchor:middle;stroke-width:2;stroke-linejoin:round"
         aria-label="14" />
      <path
         d="m 644.49128,585.00242 q 0.0703,-0.0661 0.14676,-0.0661 0.15503,0 0.15503,0.17156 v 2.76366 q 0,0.1757 -0.14883,0.1757 -0.15296,0 -0.15296,-0.17777 0,0 0,-2.43706 l -0.35967,0.35967 q -0.0558,0.0558 -0.11162,0.0558 -0.1571,0 -0.1571,-0.13849 0,-0.0703 0.0599,-0.13023 z m 1.12241,-0.0765 q 0,0 0.64699,0 0.28112,0 0.50436,0.24184 0.2067,0.22325 0.2067,0.52297 0,0.3762 -0.32246,0.64285 0.3142,0.22738 0.3142,0.56018 0,0 0,0.45475 0,0.26665 -0.22945,0.49609 -0.20257,0.20257 -0.52916,0.20257 0,0 -0.61599,0 -0.1757,0 -0.1757,-0.15296 0,-0.13849 0.18604,-0.13849 0,0 0.5457,0 0.25012,0 0.39481,-0.14883 0.13436,-0.13849 0.13436,-0.36173 v -0.26872 q 0,-0.21084 -0.12403,-0.34107 -0.15089,-0.15916 -0.32246,-0.15916 h -0.31419 q -0.17156,0 -0.17156,-0.15503 0,-0.13643 0.17363,-0.13643 h 0.27905 q 0.1943,0 0.3328,-0.14055 0.14676,-0.14883 0.14676,-0.339 0,-0.19431 -0.11782,-0.31419 -0.16123,-0.1633 -0.33073,-0.1633 h -0.61185 q -0.19224,0 -0.19224,-0.15503 0,-0.14676 0.19224,-0.14676 z"
         id="path86"
         style="font-size:4.23333px;line-height:1;font-family:osifont;-inkscape-font-specification:osifont;text-align:center;word-spacing:0px;text-orientation:sideways;text-anchor:middle;stroke-width:2;stroke-linejoin:round"
         aria-label="13" />
      <path
         d="m 594.52125,585.00242 q 0.0703,-0.0661 0.14676,-0.0661 0.15503,0 0.15503,0.17156 v 2.76366 q 0,0.1757 -0.14883,0.1757 -0.15296,0 -0.15296,-0.17777 0,0 0,-2.43706 l -0.35967,0.35967 q -0.0558,0.0558 -0.11162,0.0558 -0.1571,0 -0.1571,-0.13849 0,-0.0703 0.0599,-0.13023 z m 1.08314,0.70073 q -0.16123,0 -0.16123,-0.14469 0,-0.0455 0.0372,-0.11989 0.13023,-0.25632 0.29973,-0.36587 0.21084,-0.13643 0.44441,-0.13643 0.39274,0 0.61599,0.29972 0.16329,0.21911 0.16329,0.47129 0,0.22118 -0.13642,0.44235 l -1.00252,1.61851 h 0.97978 q 0.15503,0 0.15503,0.15503 0,0.13436 -0.1695,0.13436 h -1.20096 q -0.18397,0 -0.18397,-0.13229 0,-0.0579 0.0269,-0.10129 l 1.11208,-1.79214 q 0.11369,-0.18397 0.11369,-0.32453 0,-0.17776 -0.11369,-0.31005 -0.13849,-0.16124 -0.37,-0.16124 -0.28732,0 -0.46509,0.339 -0.0682,0.12816 -0.14469,0.12816 z"
         id="path88"
         style="font-size:4.23333px;line-height:1;font-family:osifont;-inkscape-font-specification:osifont;text-align:center;word-spacing:0px;text-orientation:sideways;text-anchor:middle;stroke-width:2;stroke-linejoin:round"
         aria-label="12" />
      <path
         d="m 544.7848,585.00242 q 0.0703,-0.0661 0.14676,-0.0661 0.15503,0 0.15503,0.17156 v 2.76366 q 0,0.1757 -0.14883,0.1757 -0.15296,0 -0.15296,-0.17777 0,0 0,-2.43706 l -0.35967,0.35967 q -0.0558,0.0558 -0.11162,0.0558 -0.1571,0 -0.1571,-0.13849 0,-0.0703 0.0599,-0.13023 z m 1.44694,0 q 0.0703,-0.0661 0.14676,-0.0661 0.15503,0 0.15503,0.17156 v 2.76366 q 0,0.1757 -0.14883,0.1757 -0.15296,0 -0.15296,-0.17777 0,0 0,-2.43706 l -0.35967,0.35967 q -0.0558,0.0558 -0.11162,0.0558 -0.1571,0 -0.1571,-0.13849 0,-0.0703 0.06,-0.13023 z"
         id="path90"
         style="font-size:4.23333px;line-height:1;font-family:osifont;-inkscape-font-specification:osifont;text-align:center;word-spacing:0px;text-orientation:sideways;text-anchor:middle;stroke-width:2;stroke-linejoin:round"
         aria-label="11" />
      <path
         d="m 794.4613,585.00242 q 0.0703,-0.0661 0.14677,-0.0661 0.15502,0 0.15502,0.17156 v 2.76366 q 0,0.1757 -0.14882,0.1757 -0.15297,0 -0.15297,-0.17777 0,0 0,-2.43706 l -0.35966,0.35967 q -0.0558,0.0558 -0.11162,0.0558 -0.1571,0 -0.1571,-0.13849 0,-0.0703 0.0599,-0.13023 z m 1.30225,1.19062 q 0,0 0.45682,0 0.34726,0 0.57877,0.25838 0.20258,0.22531 0.20258,0.47956 0,0 0,0.41755 0,0.26665 -0.25839,0.51676 -0.19843,0.19224 -0.56017,0.19224 -0.29145,0 -0.51676,-0.21911 -0.22118,-0.21497 -0.22118,-0.48989 v -1.07901 q 0,-0.47129 0.36174,-0.89503 0.22117,-0.25838 0.58704,-0.40515 0.0827,-0.0331 0.14056,-0.0331 0.14883,0 0.14883,0.16124 0,0.0951 -0.13023,0.14055 -0.29145,0.10129 -0.45888,0.26872 -0.28526,0.28319 -0.33073,0.68627 z m -0.0227,1.12448 q 0,0.17777 0.17363,0.33693 0.12196,0.11162 0.31213,0.11162 0.14469,0 0.339,-0.14676 0.13642,-0.10335 0.13642,-0.31006 v -0.31419 q 0,-0.20464 -0.14056,-0.35553 -0.13436,-0.1447 -0.33693,-0.1447 h -0.48369 z"
         id="path91"
         style="font-size:4.23333px;line-height:1;font-family:osifont;-inkscape-font-specification:osifont;text-align:center;word-spacing:0px;text-orientation:sideways;text-anchor:middle;stroke-width:2;stroke-linejoin:round"
         aria-label="16" />
      <path
         d="m 494.51812,585.00242 q 0.0703,-0.0661 0.14676,-0.0661 0.15503,0 0.15503,0.17156 v 2.76366 q 0,0.1757 -0.14883,0.1757 -0.15296,0 -0.15296,-0.17777 0,0 0,-2.43706 l -0.35967,0.35967 q -0.0558,0.0558 -0.11162,0.0558 -0.1571,0 -0.1571,-0.13849 0,-0.0703 0.06,-0.13023 z m 1.70118,0.23151 q -0.14055,0 -0.20257,0.12402 -0.16123,0.31833 -0.23564,0.72967 -0.0351,0.19224 -0.0351,0.39068 0,0.14469 0.0186,0.28732 0.06,0.46715 0.20464,0.79375 0.0868,0.19637 0.24805,0.19637 0.15503,0 0.24804,-0.17777 0.13643,-0.26252 0.20464,-0.7214 0.0289,-0.19637 0.0289,-0.38034 0,-0.18397 -0.0289,-0.35553 -0.0744,-0.43615 -0.24391,-0.76688 -0.062,-0.11989 -0.20671,-0.11989 z m 0.0103,-0.29766 q 0.28319,0 0.43201,0.21911 0.22945,0.33693 0.31833,0.94878 0.0269,0.18397 0.0269,0.37207 0,0.19844 -0.0289,0.39481 -0.0889,0.60771 -0.30799,0.95084 -0.15089,0.23565 -0.44648,0.23565 -0.29146,0 -0.44649,-0.24392 -0.19016,-0.29765 -0.30385,-0.93224 -0.0331,-0.18397 -0.0331,-0.3762 0,-0.20051 0.0351,-0.40308 0.10956,-0.63045 0.28526,-0.91157 0.15709,-0.25425 0.46922,-0.25425 z"
         id="path93"
         style="font-size:4.23333px;line-height:1;font-family:osifont;-inkscape-font-specification:osifont;text-align:center;word-spacing:0px;text-orientation:sideways;text-anchor:middle;stroke-width:2;stroke-linejoin:round"
         aria-label="10" />
      <path
         d="m 445.01421,587.90457 q 0,-0.10542 0.14676,-0.15297 0.20464,-0.0662 0.35554,-0.19017 0.3638,-0.30385 0.42374,-0.75654 h -0.50229 q -0.26252,0 -0.47542,-0.18397 -0.25839,-0.22737 -0.25839,-0.5271 0,0 0,-0.43615 0,-0.34519 0.33693,-0.59117 0.17777,-0.13023 0.45682,-0.13023 0.29559,0 0.53744,0.23565 0.2191,0.2129 0.2191,0.54363 0,0 0,0.95085 0,0.30592 -0.10748,0.54363 -0.1757,0.38448 -0.40721,0.56431 -0.37207,0.28319 -0.57671,0.28319 -0.14883,0 -0.14883,-0.15296 z m 0.93431,-2.17041 q 0,-0.20878 -0.12609,-0.34314 -0.14263,-0.15089 -0.34933,-0.15089 -0.17984,0 -0.3266,0.12609 -0.14883,0.12816 -0.14883,0.34313 v 0.33486 q 0,0.20878 0.1695,0.34934 0.13436,0.11162 0.39068,0.11162 h 0.39067 z"
         id="path94"
         style="font-size:4.23333px;line-height:1;font-family:osifont;-inkscape-font-specification:osifont;text-align:center;word-spacing:0px;text-orientation:sideways;text-anchor:middle;stroke-width:2;stroke-linejoin:round"
         aria-label="9" />
    </g>
  </g>
  <g
     id="Trimming marks">
    <path
       style="fill:#000000;stroke:none;stroke-width:0.5;stroke-linecap:round;stroke-linejoin:round"
       d="m 0,0 h 10 v 5 h -5 v 5 h -5 z"
       id="Top left" />
    <path
       style="fill:#000000;stroke:none;stroke-width:0.499999;stroke-linecap:round;stroke-linejoin:round"
       d="m 841,0 h -10 v 5 h 5 v 5 h 5 z"
       id="Top right" />
    <path
       style="fill:#000000;stroke:none;stroke-width:0.5;stroke-linecap:round;stroke-linejoin:round;stroke-dasharray:none"
       d="m 841,594 h -10 v -5 h 5 v -5 h 5 z"
       id="Bottom right" />
    <path
       style="fill:#000000;stroke:none;stroke-width:0.5;stroke-linecap:round;stroke-linejoin:round"
       d="M 0,594 h 10 v -5 h -5 v -5 h -5 z"
       id="Bottom left" />
  </g>
</svg>
