<?xml version="1.0" encoding="UTF-8" standalone="no"?>

<svg
   width="420mm"
   height="297mm"
   viewBox="0 0 420 297"
   version="1.1"
   id="svg1"
   xmlns="http://www.w3.org/2000/svg"
   xmlns:svg="http://www.w3.org/2000/svg"
   xmlns:rdf="http://www.w3.org/1999/02/22-rdf-syntax-ns#"
   xmlns:cc="http://creativecommons.org/ns#"
   xmlns:dc="http://purl.org/dc/elements/1.1/"
   xmlns:freecad="https://www.freecadweb.org/wiki/index.php?title=Svg_Namespace">
  <title id="title1">Drawing sheet ISO 5457 - A3T</title>
  <metadata id="metadata1">
    <rdf:RDF>
      <cc:Work rdf:about="">
        <dc:title>Drawing sheet ISO 5457 - A3T</dc:title>
        <cc:license rdf:resource="http://creativecommons.org/publicdomain/zero/1.0/" />
      </cc:Work>
      <cc:License rdf:about="http://creativecommons.org/publicdomain/zero/1.0/">
        <cc:permits rdf:resource="http://creativecommons.org/ns#Reproduction" />
        <cc:permits rdf:resource="http://creativecommons.org/ns#Distribution" />
        <cc:permits rdf:resource="http://creativecommons.org/ns#DerivativeWorks" />
      </cc:License>
    </rdf:RDF>
  </metadata>
  <rect id="Drawing space frame" x="20" y="10" width="390" height="277" style="fill:none;stroke:#000000;stroke-width:0.7;stroke-linecap:round;stroke-linejoin:round" />
  <g id="Centring marks" style="fill:none;stroke:#000000;stroke-width:0.7;stroke-linecap:round">
    <path id="Top"    d="m 210,5 v 10" />
    <path id="Right"  d="m 415,148.5 h -10" />
    <path id="Bottom" d="m 210,292 v -10" />
    <path id="Left"   d="m 15,148.5 h 10" />
  </g>
  <g id="Grid reference system">
    <g id="Grid reference borders" style="fill:none;stroke:#000000;stroke-width:0.35;stroke-linecap:round;stroke-linejoin:round">
      <rect id="rect30" x="15" y="5" width="400" height="287" />
      <path id="path31" d="m 260,5 v 5" />
      <path id="path32" d="m 310,5 v 5" />
      <path id="path33" d="m 360,5 v 5" />
      <path id="path35" d="m 160,5 v 5" />
      <path id="path36" d="m 110,5 v 5" />
      <path id="path37" d="m 60,5 v 5" />
      <path id="path38" d="m 260,287 v 5" />
      <path id="path39" d="m 310,287 v 5" />
      <path id="path40" d="m 360,287 v 5" />
      <path id="path42" d="m 160,287 v 5" />
      <path id="path43" d="m 110,287 v 5" />
      <path id="path44" d="m 60,287 v 5" />
      <path id="path46" d="m 15,98.5 h 5" />
      <path id="path47" d="m 15,48.5 h 5" />
      <path id="path49" d="m 15,198.5 h 5" />
      <path id="path50" d="m 15,248.5 h 5" />
      <path id="path53" d="m 410,98.5 h 5" />
      <path id="path54" d="m 410,48.5 h 5" />
      <path id="path55" d="m 410,198.5 h 5" />
      <path id="path56"  d="m 410,248.5 h 5" />
    </g>
    <g id="Grid reference markers" style="font-size:3.5px;font-family:osifont;text-align:center;text-anchor:middle;fill:#000000;stroke:none">
      <text id="upper_marker_1" x="35" y="8.8">1</text>
      <text id="upper_marker_2" x="85" y="8.8">2</text>
      <text id="upper_marker_3" x="135" y="8.8">3</text>
      <text id="upper_marker_4" x="185" y="8.8">4</text>
      <text id="upper_marker_5" x="235" y="8.8">5</text>
      <text id="upper_marker_6" x="285" y="8.8">6</text>
      <text id="upper_marker_7" x="335" y="8.8">7</text>
      <text id="upper_marker_8" x="385" y="8.8">8</text>
      <text id="right_marker_1" x="412.5" y="24.8">A</text>
      <text id="right_marker_2" x="412.5" y="74.8">B</text>
      <text id="right_marker_3" x="412.5" y="124.8">C</text>
      <text id="right_marker_4" x="412.5" y="174.8">D</text>
      <text id="right_marker_5" x="412.5" y="224.8">E</text>
      <text id="right_marker_6" x="412.5" y="274.8">F</text>
      <text id="lower_marker_1" x="35" y="290.8">1</text>
      <text id="lower_marker_2" x="85" y="290.8">2</text>
      <text id="lower_marker_3" x="135" y="290.8">3</text>
      <text id="lower_marker_4" x="185" y="290.8">4</text>
      <text id="lower_marker_5" x="235" y="290.8">5</text>
      <text id="lower_marker_6" x="285" y="290.8">6</text>
      <text id="lower_marker_7" x="335" y="290.8">7</text>
      <text id="lower_marker_8" x="385" y="290.8">A3</text>
      <text id="left_marker_1" x="17.5" y="24.8">A</text>
      <text id="left_marker_2" x="17.5" y="74.8">B</text>
      <text id="left_marker_3" x="17.5" y="124.8">C</text>
      <text id="left_marker_4" x="17.5" y="174.8">D</text>
      <text id="left_marker_5" x="17.5" y="224.8">E</text>
      <text id="left_marker_6" x="17.5" y="274.8">F</text>
    </g>
  </g>
  <g id="Trimming marks" style="fill:#000000;stroke:none">>
    <path id="Top left"     d="m 0,0 h 10 v 5 h -5 v 5 h -5 z" />
    <path id="Top right"    d="m 420,0 h -10 v 5 h 5 v 5 h 5 z" />
    <path id="Bottom right" d="m 420,297 h -10 v -5 h 5 v -5 h 5 z" />
    <path id="Bottom left"  d="m 0,297 h 10 v -5 h -5 v -5 h -5 z" />
  </g>
</svg>
