<?xml version="1.0" encoding="UTF-8" standalone="no"?>

<svg
   width="420mm"
   height="297mm"
   viewBox="0 0 420 297"
   version="1.1"
   id="svg"
   xmlns="http://www.w3.org/2000/svg"
   xmlns:svg="http://www.w3.org/2000/svg"
   xmlns:rdf="http://www.w3.org/1999/02/22-rdf-syntax-ns#"
   xmlns:cc="http://creativecommons.org/ns#"
   xmlns:dc="http://purl.org/dc/elements/1.1/"
   xmlns:freecad="https://www.freecad.org/wiki/index.php?title=Svg_Namespace">
  <title id="title">Drawing sheet ISO 5457 - A3T</title>
  <metadata id="metadata">
    <rdf:RDF>
      <cc:Work rdf:about="">
        <cc:license rdf:resource="http://creativecommons.org/publicdomain/zero/1.0/" />
        <dc:title>Drawing sheet ISO 5457 - A3T</dc:title>
      </cc:Work>
      <cc:License rdf:about="http://creativecommons.org/publicdomain/zero/1.0/">
        <cc:permits rdf:resource="http://creativecommons.org/ns#Reproduction" />
        <cc:permits rdf:resource="http://creativecommons.org/ns#Distribution" />
        <cc:permits rdf:resource="http://creativecommons.org/ns#DerivativeWorks" />
      </cc:License>
    </rdf:RDF>
  </metadata>
  <rect id="drawing_space_frame" x="20" y="10" width="390" height="277" style="fill:none;stroke:#000000;stroke-width:0.7;stroke-linecap:round;stroke-linejoin:round" />
  <g id="centring_marks" style="fill:none;stroke:#000000;stroke-width:0.7;stroke-linecap:round">
    <path id="top_centering" d="m 210,5 v 10" />
    <path id="right_centering" d="m 415,148.5 h -10" />
    <path id="bottom_centering" d="m 210,292 v -10" />
    <path id="left_centering" d="m 15,148.5 h 10" />
  </g>
  <g id="grid_reference_system">
    <g id="grid_reference_borders" style="fill:none;stroke:#000000;stroke-width:0.35;stroke-linecap:round;stroke-linejoin:round">
      <rect id="grid_reference_border"  x="15" y="5" width="400" height="287" />
      <path id="upper_border_1" d="m 60,5 v 5"/>
      <path id="upper_border_2" d="m 110,5 v 5"/>
      <path id="upper_border_3" d="m 160,5 v 5"/>
      <path id="upper_border_5" d="m 260,5 v 5"/>
      <path id="upper_border_6" d="m 310,5 v 5"/>
      <path id="upper_border_7" d="m 360,5 v 5"/>
      <path id="right_border_1" d="m 415,48.5 h -5"/>
      <path id="right_border_2" d="m 415,98.5 h -5"/>
      <path id="right_border_4" d="m 415,198.5 h -5"/>
      <path id="right_border_5" d="m 415,248.5 h -5"/>
      <path id="lower_border_1" d="m 60,292 v -5"/>
      <path id="lower_border_2" d="m 110,292 v -5"/>
      <path id="lower_border_3" d="m 160,292 v -5"/>
      <path id="lower_border_5" d="m 260,292 v -5"/>
      <path id="lower_border_6" d="m 310,292 v -5"/>
      <path id="lower_border_7" d="m 360,292 v -5"/>
      <path id="left_border_1" d="m 15,48.5 h 5"/>
      <path id="left_border_2" d="m 15,98.5 h 5"/>
      <path id="left_border_4" d="m 15,198.5 h 5"/>
      <path id="left_border_5" d="m 15,248.5 h 5"/>
    </g>
    <g id="grid_reference_markers" style="font-size:3.5px;font-family:osifont;text-align:center;text-anchor:middle;fill:#000000;stroke:none">
      <text id="upper_marker_1" x="35" y="8.8">1</text>
      <text id="upper_marker_2" x="85" y="8.8">2</text>
      <text id="upper_marker_3" x="135" y="8.8">3</text>
      <text id="upper_marker_4" x="185" y="8.8">4</text>
      <text id="upper_marker_5" x="235" y="8.8">5</text>
      <text id="upper_marker_6" x="285" y="8.8">6</text>
      <text id="upper_marker_7" x="335" y="8.8">7</text>
      <text id="upper_marker_8" x="385" y="8.8">8</text>
      <text id="right_marker_1" x="412.5" y="24.8">A</text>
      <text id="right_marker_2" x="412.5" y="74.8">B</text>
      <text id="right_marker_3" x="412.5" y="124.8">C</text>
      <text id="right_marker_4" x="412.5" y="174.8">D</text>
      <text id="right_marker_5" x="412.5" y="224.8">E</text>
      <text id="right_marker_6" x="412.5" y="274.8">F</text>
      <text id="lower_marker_1" x="35" y="290.8">1</text>
      <text id="lower_marker_2" x="85" y="290.8">2</text>
      <text id="lower_marker_3" x="135" y="290.8">3</text>
      <text id="lower_marker_4" x="185" y="290.8">4</text>
      <text id="lower_marker_5" x="235" y="290.8">5</text>
      <text id="lower_marker_6" x="285" y="290.8">6</text>
      <text id="lower_marker_7" x="335" y="290.8">7</text>
      <text id="lower_marker_8" x="385" y="290.8">A3</text>
      <text id="left_marker_1" x="17.5" y="24.8">A</text>
      <text id="left_marker_2" x="17.5" y="74.8">B</text>
      <text id="left_marker_3" x="17.5" y="124.8">C</text>
      <text id="left_marker_4" x="17.5" y="174.8">D</text>
      <text id="left_marker_5" x="17.5" y="224.8">E</text>
      <text id="left_marker_6" x="17.5" y="274.8">F</text>
    </g>
  </g>
  <g id="trimming_marks" style="fill:#000000;stroke:none">>
    <path id="top_left_trimming" d="m 0,0 h 10 v 5 h -5 v 5 h -5 z" />
    <path id="top_right_trimming" d="m 420,0 h -10 v 5 h 5 v 5 h 5 z" />
    <path id="bottom_right_trimming" d="m 420,297 h -10 v -5 h 5 v -5 h 5 z" />
    <path id="bottom_left_trimming" d="m 0,297 h 10 v -5 h -5 v -5 h -5 z" />
  </g>
</svg>
