<?xml version="1.0" encoding="UTF-8" standalone="no"?>

<svg
   width="297mm"
   height="210mm"
   viewBox="0 0 297 210"
   version="1.1"
   id="svg1"
   xmlns="http://www.w3.org/2000/svg"
   xmlns:svg="http://www.w3.org/2000/svg"
   xmlns:rdf="http://www.w3.org/1999/02/22-rdf-syntax-ns#"
   xmlns:cc="http://creativecommons.org/ns#"
   xmlns:dc="http://purl.org/dc/elements/1.1/"
   xmlns:freecad="https://www.freecadweb.org/wiki/index.php?title=Svg_Namespace">
  <title id="title1">Drawing sheet ISO 5457 - A4T</title>
  <metadata id="metadata1">
    <rdf:RDF>
      <cc:License rdf:about="http://creativecommons.org/publicdomain/zero/1.0/">
        <cc:permits rdf:resource="http://creativecommons.org/ns#Reproduction" />
        <cc:permits rdf:resource="http://creativecommons.org/ns#Distribution" />
        <cc:permits rdf:resource="http://creativecommons.org/ns#DerivativeWorks" />
      </cc:License>
      <cc:Work rdf:about="">
        <cc:license rdf:resource="http://creativecommons.org/publicdomain/zero/1.0/" />
        <dc:title>Drawing sheet ISO 5457 - A4T</dc:title>
      </cc:Work>
    </rdf:RDF>
  </metadata>
  <rect id="Drawing space frame" x="20" y="10" width="267" height="190" style="fill:none;stroke:#000000;stroke-width:0.7;stroke-linecap:round;stroke-linejoin:round" />
  <g id="Centring marks" style="fill:none;stroke:#000000;stroke-width:0.7;stroke-linecap:round">
    <path id="Top"    d="m 148.5,5 v 10" />
    <path id="Right"  d="m 292,105 h -10" />
    <path id="Bottom" d="m 148.5,205 v -10" />
    <path id="Left"   d="m 15,105 h 10" />
  </g>
  <g id="Grid reference system">
    <g id="Grid reference borders" style="fill:none;stroke:#000000;stroke-width:0.35;stroke-linecap:round;stroke-linejoin:round">
      <rect id="Grid reference border" x="15" y="5" width="277" height="200" />
      <path id="path18" d="m 198.5,5 v 5" />
      <path id="path19" d="m 248.5,5 v 5" />
      <path id="path20" d="m 48.5,5 v 5" />
      <path id="path21" d="m 98.5,5 v 5" />
      <path id="path23" d="m 287,55 h 5" />
      <path id="path25" d="m 287,155 h 5" />
      <path id="path26" d="m 15,55 h 5" />
      <path id="path27" d="m 15,155 h 5" />
      <path id="path28" d="m 198.5,200 v 5" />
      <path id="path29" d="m 248.5,200 v 5" />
      <path id="path30" d="m 48.5,200 v 5" />
      <path id="path31" d="m 98.5,200 v 5" />
    </g>
    <g id="Grid reference markers" style="font-size:3.5px;font-family:osifont;text-align:center;text-anchor:middle;fill:#000000;stroke:none">
      <text id="upper_marker_1" x="23.5" y="8.8">1</text>
      <text id="upper_marker_2" x="73.5" y="8.8">2</text>
      <text id="upper_marker_3" x="123.5" y="8.8">3</text>
      <text id="upper_marker_4" x="173.5" y="8.8">4</text>
      <text id="upper_marker_5" x="223.5" y="8.8">5</text>
      <text id="upper_marker_6" x="273.5" y="8.8">6</text>
      <text id="right_marker_1" x="289.5" y="31.3">A</text>
      <text id="right_marker_2" x="289.5" y="81.3">B</text>
      <text id="right_marker_3" x="289.5" y="131.3">C</text>
      <text id="right_marker_4" x="289.5" y="181.3">D</text>
      <text id="lower_marker_6" x="273.5" y="203.8">A4</text>
    </g>
  </g>
  <g id="Trimming marks" style="fill:#000000;stroke:none">
    <path id="Top left"     d="m 0,0 h 10 v 5 h -5 v 5 h -5 z" />
    <path id="Top right"    d="m 297,0 h -10 v 5 h 5 v 5 h 5 z" />
    <path id="Bottom right" d="m 297,210 h -10 v -5 h 5 v -5 h 5 z" />
    <path id="Bottom left"  d="m 0,210 h 10 v -5 h -5 v -5 h -5 z" />
  </g>
</svg>
