<?xml version="1.0" encoding="UTF-8" standalone="no"?>
<!-- Created with Inkscape (http://www.inkscape.org/) -->

<svg
   xmlns:dc="http://purl.org/dc/elements/1.1/"
   xmlns:cc="http://creativecommons.org/ns#"
   xmlns:rdf="http://www.w3.org/1999/02/22-rdf-syntax-ns#"
   xmlns:svg="http://www.w3.org/2000/svg"
   xmlns="http://www.w3.org/2000/svg"
   xmlns:xlink="http://www.w3.org/1999/xlink"
   xmlns:sodipodi="http://sodipodi.sourceforge.net/DTD/sodipodi-0.dtd"
   xmlns:inkscape="http://www.inkscape.org/namespaces/inkscape"
   width="64px"
   height="64px"
   id="svg10944"
   sodipodi:version="0.32"
   inkscape:version="0.48.1 "
   sodipodi:docname="import-gdmlwrite.svg"
   inkscape:output_extension="org.inkscape.output.svg.inkscape"
   version="1.1">
  <defs
     id="defs10946">
    <linearGradient
       inkscape:collect="always"
       id="linearGradient2788">
      <stop
         style="stop-color: rgb(136, 138, 133); stop-opacity: 1;"
         offset="0"
         id="stop2790" />
      <stop
         style="stop-color: rgb(136, 138, 133); stop-opacity: 0;"
         offset="1"
         id="stop2792" />
    </linearGradient>
    <linearGradient
       inkscape:collect="always"
       xlink:href="#linearGradient2788"
       id="linearGradient22385"
       gradientUnits="userSpaceOnUse"
       gradientTransform="translate(0, -3)"
       x1="12.9375"
       y1="3.25"
       x2="11.6875"
       y2="1.25" />
    <linearGradient
       id="linearGradient2798">
      <stop
         id="stop2800"
         offset="0"
         style="stop-color: white; stop-opacity: 1;" />
      <stop
         id="stop2802"
         offset="1"
         style="stop-color: rgb(211, 215, 207); stop-opacity: 0;" />
    </linearGradient>
    <linearGradient
       inkscape:collect="always"
       xlink:href="#linearGradient2798"
       id="linearGradient22383"
       gradientUnits="userSpaceOnUse"
       gradientTransform="translate(0, -3)"
       x1="13.5"
       y1="3.3125"
       x2="13.125"
       y2="1.75" />
    <linearGradient
       inkscape:collect="always"
       id="linearGradient2828">
      <stop
         style="stop-color: black; stop-opacity: 1;"
         offset="0"
         id="stop2830" />
      <stop
         style="stop-color: black; stop-opacity: 0;"
         offset="1"
         id="stop2832" />
    </linearGradient>
    <linearGradient
       inkscape:collect="always"
       xlink:href="#linearGradient2828"
       id="linearGradient22381"
       gradientUnits="userSpaceOnUse"
       gradientTransform="translate(0, -3)"
       x1="14.40625"
       y1="5.078125"
       x2="13.828125"
       y2="6.453125" />
    <linearGradient
       inkscape:collect="always"
       id="linearGradient2874">
      <stop
         style="stop-color: white; stop-opacity: 1;"
         offset="0"
         id="stop2876" />
      <stop
         style="stop-color: white; stop-opacity: 0;"
         offset="1"
         id="stop2878" />
    </linearGradient>
    <linearGradient
       inkscape:collect="always"
       xlink:href="#linearGradient2874"
       id="linearGradient22379"
       gradientUnits="userSpaceOnUse"
       gradientTransform="translate(-4, -3)"
       x1="9"
       y1="5.125"
       x2="18.625"
       y2="34.4375" />
    <linearGradient
       id="linearGradient2778">
      <stop
         style="stop-color: rgb(238, 238, 236); stop-opacity: 1;"
         offset="0"
         id="stop2780" />
      <stop
         style="stop-color: rgb(211, 215, 207); stop-opacity: 1;"
         offset="1"
         id="stop2782" />
    </linearGradient>
    <radialGradient
       inkscape:collect="always"
       xlink:href="#linearGradient2778"
       id="radialGradient22377"
       gradientUnits="userSpaceOnUse"
       gradientTransform="matrix(2.23185, 0, 0, 2.45668, -7.15925, -11.0169)"
       cx="4.8879852"
       cy="5.044178"
       fx="4.8879852"
       fy="5.044178"
       r="11" />
    <linearGradient
       id="linearGradient10735">
      <stop
         style="stop-color: rgb(192, 192, 192); stop-opacity: 0;"
         offset="0"
         id="stop10737" />
      <stop
         style="stop-color: rgb(192, 192, 192); stop-opacity: 0;"
         offset="1"
         id="stop10739" />
    </linearGradient>
    <radialGradient
       inkscape:collect="always"
       xlink:href="#linearGradient10735"
       id="radialGradient11007"
       gradientUnits="userSpaceOnUse"
       gradientTransform="translate(18, 73)"
       cx="391"
       cy="279"
       fx="391"
       fy="279"
       r="8" />
    <inkscape:perspective
       sodipodi:type="inkscape:persp3d"
       inkscape:vp_x="0 : 32 : 1"
       inkscape:vp_y="0 : 1000 : 0"
       inkscape:vp_z="64 : 32 : 1"
       inkscape:persp3d-origin="32 : 21.333333 : 1"
       id="perspective10952" />
  </defs>
  <sodipodi:namedview
     id="base"
     pagecolor="#ffffff"
     bordercolor="#666666"
     borderopacity="1.0"
     inkscape:pageopacity="0.0"
     inkscape:pageshadow="2"
     inkscape:zoom="5.5"
     inkscape:cx="76.261364"
     inkscape:cy="32"
     inkscape:current-layer="file_import"
     showgrid="true"
     inkscape:document-units="px"
     inkscape:grid-bbox="true"
     inkscape:window-width="1362"
     inkscape:window-height="1002"
     inkscape:window-x="107"
     inkscape:window-y="10"
     inkscape:window-maximized="0" />
  <metadata
     id="metadata10949">
    <rdf:RDF>
      <cc:Work
         rdf:about="">
        <dc:format>image/svg+xml</dc:format>
        <dc:type
           rdf:resource="http://purl.org/dc/dcmitype/StillImage" />
      </cc:Work>
    </rdf:RDF>
  </metadata>
  <g
     id="layer1"
     inkscape:label="Layer 1"
     inkscape:groupmode="layer">
    <g
       style="display: inline;"
       id="file_import"
       transform="matrix(3.51136, 0, 0, 3.51136, 3.81818, 3.81818)"
       inkscape:label="#g8490">
      <rect
         ry="0.065059662"
         rx="0.068212733"
         y="-5.8336281e-16"
         x="0"
         height="16"
         width="16"
         id="rect8488"
         style="overflow: visible; marker: none; opacity: 1; fill: url(#radialGradient11007) rgb(0, 0, 0); fill-opacity: 1; fill-rule: evenodd; stroke: none; stroke-width: 0.867886; stroke-linecap: square; stroke-linejoin: round; stroke-miterlimit: 0; stroke-dasharray: none; stroke-dashoffset: 0pt; stroke-opacity: 1; visibility: visible; display: inline;" />
      <rect
         y="11"
         x="3"
         height="1"
         width="1"
         id="rect2838"
         style="opacity: 1; fill: rgb(255, 255, 255); fill-opacity: 1; stroke: none; stroke-width: 1; stroke-linecap: round; stroke-linejoin: miter; stroke-miterlimit: 4; stroke-dasharray: none; stroke-dashoffset: 0pt; stroke-opacity: 1;" />
      <rect
         y="5"
         x="3"
         height="1"
         width="1"
         id="rect2840"
         style="opacity: 1; fill: rgb(255, 255, 255); fill-opacity: 1; stroke: none; stroke-width: 1; stroke-linecap: round; stroke-linejoin: miter; stroke-miterlimit: 4; stroke-dasharray: none; stroke-dashoffset: 0pt; stroke-opacity: 1;" />
      <text
         xml:space="preserve"
         style="font-size:11.39159775px;font-style:normal;font-weight:normal;line-height:125%;letter-spacing:0px;word-spacing:0px;fill:#000000;fill-opacity:1;stroke:none;font-family:Sans"
         x="-0.41423944"
         y="4.8673201"
         id="text3085"
         sodipodi:linespacing="125%"><tspan
           sodipodi:role="line"
           id="tspan3087"
           x="-0.41423944"
           y="4.8673201"
           style="font-size:5.69579887px">GDML</tspan></text>
      <path
         style="fill:#ff0000"
         id="path3025"
         d="m 5.0103556,29.835358 c -0.046343,1.265096 -0.037771,2.531522 -0.039711,3.79727 0.028081,1.397477 0.089548,2.794231 0.2046375,4.187261 0.099075,0.984924 0.3274091,1.950657 0.5874395,2.903812 0.2634585,0.991146 0.5390331,1.978562 0.8204818,2.96471 0.2189435,0.850828 0.4931167,1.684802 0.7519563,2.523671 0.024837,0.0909 0.047171,0.18253 0.074512,0.272712 0.00727,0.02397 0.091085,0.293304 0.1352246,0.337981 0.010936,0.01107 0.053427,-0.03183 0.039537,-0.02482 -2.3290319,1.176152 -3.0545977,1.662526 -2.2390404,1.121423 0.3081328,-0.680592 0.5921249,-1.371952 0.9069404,-2.049853 0.7622678,-1.618677 1.4696351,-3.261217 2.1472531,-4.91692 0.5578165,-1.395843 1.1549335,-2.778202 1.5193472,-4.239877 0.1447756,-0.599712 0.1739256,-1.215351 0.1754646,-1.829413 -0.01135,-0.362306 0.0019,-0.72617 -0.02195,-1.087982 0.801284,-0.355481 1.571938,-0.790139 2.40385,-1.066445 0.08601,-0.02857 -0.0083,0.181085 -0.01095,0.271682 -0.0032,0.111884 -0.0044,0.223816 -0.0065,0.335727 -0.0086,0.464949 -0.01272,0.929815 -0.01574,1.394831 -0.02182,1.228908 0.01236,2.456767 0.05978,3.684645 0.04159,0.941212 0.09851,1.881679 0.1339,2.823163 0.01297,0.498279 0.01178,0.996928 0.01432,1.495386 0.0057,0.411587 0.05086,0.829217 0.140896,1.231272 0.06443,0.266045 0.159775,0.524035 0.424899,0.63381 0.04632,-0.01587 0.09262,-0.03178 0.138953,-0.04761 0.317387,-0.108392 0.116202,-0.02417 0.440674,-0.205312 0.0955,-0.05332 0.383836,-0.209949 0.288505,-0.156323 -2.112633,1.188413 -2.544043,1.567787 -1.640057,0.836455 0.84296,-0.68488 1.426226,-1.571883 1.910033,-2.530279 0.560237,-1.314386 0.862228,-2.717741 1.252577,-4.087827 0.329679,-1.1918 0.583023,-2.406973 1.030194,-3.562214 0.219676,-0.606254 0.557762,-1.155951 0.846827,-1.728751 0.02522,-0.05973 0.05044,-0.119471 0.07566,-0.179207 0,0 2.437449,-1.131533 2.437449,-1.131533 l 0,0 c -0.02338,0.06699 -0.04675,0.133983 -0.07013,0.200974 -0.27275,0.59372 -0.673739,1.122269 -0.90316,1.73823 -0.502827,1.13751 -0.74772,2.363093 -1.085419,3.555746 -0.399748,1.374891 -0.691263,2.784161 -1.215896,4.119314 -0.468997,1.014961 -0.975611,1.865859 -1.826523,2.612231 -1.039216,0.940775 -0.282279,0.292245 -2.887486,1.822354 -0.322243,0.189262 -0.686065,0.343517 -1.055999,0.215851 -0.290443,-0.19956 -0.452791,-0.48713 -0.528674,-0.830923 -0.09968,-0.418721 -0.149299,-0.859333 -0.164104,-1.288251 0.003,-0.498887 0.0035,-0.997728 -4.3e-5,-1.496603 -0.002,-0.952938 -0.0167,-1.905881 -0.05321,-2.858176 -0.05422,-1.224273 -0.135643,-2.446906 -0.105482,-3.67338 -0.0036,-0.57007 -0.0065,-1.140345 -0.01991,-1.710296 -0.0021,-0.08793 -0.08121,-0.213869 -0.0087,-0.263717 0.76291,-0.524798 1.604896,-0.924169 2.407343,-1.386254 -0.01211,0.367687 0.01042,0.735847 0.0041,1.103672 -0.0069,0.640342 -0.03889,1.283655 -0.188494,1.909037 -0.401349,1.492702 -1.036057,2.89776 -1.621316,4.325036 -0.655815,1.636265 -1.315106,3.269882 -2.0363922,4.878575 C 8.3378392,45.445972 8.0400029,46.117559 7.8091155,46.810845 7.6224014,47.80165 5.7732851,49.067146 5.1958931,48.146147 5.0753926,47.953936 5.0633993,47.697824 4.9966876,47.487996 4.7656396,46.637493 4.5033836,45.795646 4.2775039,44.943579 4.0065626,43.954965 3.7062043,42.974366 3.45187,41.981135 3.1777401,41.011582 2.9474574,40.027335 2.8623562,39.020745 2.7632334,37.617718 2.7144307,36.212719 2.6657195,34.807046 c -0.00192,-1.252252 0.00713,-2.505228 -0.039711,-3.756802 0,0 2.3843476,-1.214886 2.3843476,-1.214886 z"
         inkscape:connector-curvature="0"
         transform="matrix(0.28478994,0,0,0.28478994,-1.0873792,-1.0873792)" />
      <path
         style="fill:#ff0000"
         id="path3027"
         d="m 23.379701,32.676295 c -0.04932,1.154115 -0.0397,2.309583 -0.04148,3.464448 -0.01124,1.288548 0.0024,2.577059 0.01056,3.865571 0.0086,0.698465 0.01999,1.396849 0.02504,2.095346 0.0096,0.57979 -3e-6,1.159391 -0.01898,1.738857 -0.02893,1.098394 -0.02237,2.197257 -0.0095,3.295818 0,0 -2.327065,1.185699 -2.327065,1.185699 l 0,0 c 0.01268,-1.095332 0.01977,-2.190981 -0.0095,-3.28614 -0.01941,-0.573012 -0.02847,-1.146166 -0.01898,-1.719516 0.0051,-0.707001 0.0165,-1.413892 0.02504,-2.120862 0.0081,-1.2921 0.02179,-2.5842 0.01056,-3.876336 -0.0018,-1.140769 0.0085,-2.282193 -0.04148,-3.422182 0,0 2.395765,-1.220703 2.395765,-1.220703 z"
         inkscape:connector-curvature="0"
         transform="matrix(0.28478994,0,0,0.28478994,-1.0873792,-1.0873792)" />
      <path
         style="fill:#ff0000"
         id="path3029"
         d="m 21.583174,34.961235 c 0.589604,-0.403569 1.173383,-0.816819 1.766223,-1.215873 1.23719,-0.800259 2.151419,-1.570773 3.526559,-1.634363 0.05835,0.01046 0.121802,0.0053 0.175047,0.03136 0.424627,0.207788 0.621836,0.757842 0.769612,1.163524 0.195861,0.65668 0.240048,1.344378 0.274358,2.025019 0.02103,0.469356 0.01692,0.939245 0.01212,1.408886 -0.01119,0.534359 0.02386,1.071166 -0.06323,1.600203 -0.07186,0.210241 -0.185249,0.427867 -0.386288,0.545516 -1.47466,0.86298 -1.767404,1.312224 -2.953363,1.504994 -0.337195,0.113841 -0.695722,0.160539 -1.003903,0.345188 0.146346,-0.133349 -0.624089,0.328544 -0.411703,0.207696 3.282508,-1.867766 2.74217,-1.737155 2.00016,-1.095513 -0.278451,0.264916 -0.01512,0.575726 0.147861,0.833698 0.273283,0.379551 0.563137,0.744259 0.859115,1.106561 0.442786,0.534204 0.832379,1.103709 1.197142,1.692595 0.37885,0.58924 0.735318,1.195355 1.064568,1.813761 0.310609,0.503691 0.530453,1.047418 0.750273,1.594323 0.09276,0.344371 0.28444,0.64031 0.452945,0.949051 0.131309,0.288966 0.278592,0.568109 0.433538,0.844702 0,0 -2.334108,1.341883 -2.334108,1.341883 l 0,0 c -0.15144,-0.277413 -0.297544,-0.556504 -0.433117,-0.84218 -0.184542,-0.315653 -0.367848,-0.631523 -0.459229,-0.98977 -0.20386,-0.543275 -0.419085,-1.077617 -0.719395,-1.576604 -0.321626,-0.615837 -0.679917,-1.213436 -1.05408,-1.798703 -0.357005,-0.5776 -0.739456,-1.137094 -1.183626,-1.652339 -0.323293,-0.357835 -0.611073,-0.739945 -0.89025,-1.132762 -0.210622,-0.329186 -0.524125,-0.739306 -0.322028,-1.137788 0.688831,-0.955646 1.960463,-1.329839 3.01107,-1.83628 0.338007,-0.118057 0.683728,-0.211054 1.03282,-0.290429 0.945717,-0.25217 1.79364,-0.988447 -1.684134,1.095564 -0.03095,0.01855 0.496601,-0.26016 0.469689,-0.359868 0.152437,-0.503377 0.0746,-1.02859 0.09094,-1.54793 -6.08e-4,-0.467689 0.0052,-0.935374 8.27e-4,-1.403051 -0.01543,-0.6567 -0.04329,-1.320619 -0.228055,-1.955439 -0.132241,-0.364007 -0.306626,-0.915551 -0.780301,-0.887051 -1.089277,0.122524 -2.630046,1.233537 1.125804,-0.932088 -0.601063,0.363685 -1.150382,0.808043 -1.748183,1.177953 0,0 -2.505683,1.00555 -2.505683,1.00555 z"
         inkscape:connector-curvature="0"
         transform="matrix(0.28478994,0,0,0.28478994,-1.0873792,-1.0873792)" />
      <path
         style="fill:#ff0000"
         id="path3031"
         d="m 33.383507,31.176313 c -0.06145,1.474911 -0.06778,2.95176 -0.08012,4.427745 -0.03367,2.551526 -0.02398,5.102986 -0.01321,7.654658 0.0079,2.092965 0.01048,4.185924 0.0294,6.278826 0.01037,0.861271 0.03103,1.722362 0.04852,2.583504 0,0 -2.372545,1.208872 -2.372545,1.208872 l 0,0 c 0.01746,-0.877624 0.03803,-1.755197 0.04852,-2.632945 0.01883,-2.102889 0.02158,-4.205835 0.0294,-6.308787 0.0107,-2.547184 0.0206,-5.09416 -0.01321,-7.641194 -0.01222,-1.448759 -0.01781,-2.898468 -0.08012,-4.346097 0,0 2.403377,-1.224582 2.403377,-1.224582 z"
         inkscape:connector-curvature="0"
         transform="matrix(0.28478994,0,0,0.28478994,-1.0873792,-1.0873792)" />
      <path
         style="fill:#ff0000"
         id="path3033"
         d="m 41.379701,34.13084 c -0.04622,1.298511 -0.05176,2.598249 -0.0594,3.897463 -0.0278,2.051858 -0.02242,4.103661 -0.0036,6.155569 0.0089,1.194164 0.0302,2.388188 0.04395,3.582293 0.01,0.737773 3.21e-4,1.475609 0.0045,2.213433 0,0 -2.366686,1.205887 -2.366686,1.205887 l 0,0 c 0.0041,-0.739344 -0.0055,-1.4787 0.0045,-2.217994 0.01376,-1.209032 0.03496,-2.417985 0.04395,-3.627075 0.01868,-2.0507 0.02447,-4.101297 -0.0036,-6.151944 -0.0076,-1.27903 -0.01261,-2.558631 -0.0594,-3.836929 0,0 2.395765,-1.220703 2.395765,-1.220703 z"
         inkscape:connector-curvature="0"
         transform="matrix(0.28478994,0,0,0.28478994,-1.0873792,-1.0873792)" />
      <path
         style="fill:#ff0000"
         id="path3035"
         d="m 38.162429,36.44609 c 1.369312,-0.328108 2.644516,-0.940523 3.904142,-1.553874 1.604427,-0.804025 3.300743,-1.38221 5.006709,-1.92497 0.842222,-0.25747 1.673606,-0.54357 2.497007,-0.855192 0,0 -2.033212,1.589118 -2.033212,1.589118 l 0,0 c -0.815054,0.287971 -1.63569,0.55793 -2.461143,0.814859 -1.711605,0.561537 -3.410497,1.164924 -5.020992,1.980643 -1.305468,0.624024 -2.63364,1.236722 -4.05121,1.559193 0,0 2.158699,-1.609777 2.158699,-1.609777 z"
         inkscape:connector-curvature="0"
         transform="matrix(0.28478994,0,0,0.28478994,-1.0873792,-1.0873792)" />
      <path
         style="fill:#ff0000"
         id="path3037"
         d="m 52.628769,34.846609 c -0.441497,2.0549 -0.765297,4.133393 -1.07486,6.211622 -0.406746,2.81792 -0.780422,5.640365 -1.127372,8.466275 -0.05738,0.850563 -0.238979,1.962157 0.444607,2.6412 0.246946,0.245304 0.449212,0.281203 0.764853,0.39858 0.759387,0.195339 1.546218,0.171529 2.322921,0.148417 0.465145,-0.05893 0.918502,-0.181004 1.379068,-0.261194 0.89909,-0.110813 1.808333,-0.10365 2.712912,-0.12508 0.393528,2.33e-4 0.774573,-0.08961 1.155756,-0.174044 0,0 -2.123993,1.606618 -2.123993,1.606618 l 0,0 c -0.382812,0.06458 -0.766824,0.120777 -1.156599,0.117714 -0.909037,0.01478 -1.825654,0.02178 -2.722113,0.189963 -0.459619,0.102029 -0.924116,0.19693 -1.395907,0.215223 -0.795824,0.0077 -1.599937,0.0012 -2.363791,-0.25479 -0.367178,-0.170659 -0.562036,-0.215096 -0.839218,-0.529825 -0.691716,-0.785417 -0.520829,-1.928306 -0.411963,-2.871655 0.402999,-2.826212 0.791744,-5.654354 1.161141,-8.485152 0.16821,-1.263866 0.344821,-2.525885 0.536331,-3.786454 0.03406,-0.224212 0.234592,-1.47983 0.266751,-1.772579 0.02108,-0.191927 0.02402,-0.385415 0.03603,-0.578122 0,0 2.435441,-1.156717 2.435441,-1.156717 z"
         inkscape:connector-curvature="0"
         transform="matrix(0.28478994,0,0,0.28478994,-1.0873792,-1.0873792)" />
      <path
         style="fill:#ff0000"
         id="path3039"
         d="m 53.280961,45.990961 c -0.573805,-0.205504 -1.142049,-0.424537 -1.703276,-0.663593 -0.448824,-0.190876 -0.886009,-0.39235 -1.366735,-0.486973 -0.354931,-0.124819 -0.723735,-0.183953 -1.097135,-0.213939 -0.05949,-0.0031 -0.118984,-0.0061 -0.178475,-0.0092 0,0 2.188712,-1.56667 2.188712,-1.56667 l 0,0 c 0.06117,0.0055 0.122331,0.01096 0.183497,0.01644 0.378771,0.04794 0.74763,0.135318 1.113539,0.244095 0.477584,0.12918 0.919689,0.343946 1.374,0.536564 0.560263,0.233426 1.122892,0.462601 1.71038,0.619807 0,0 -2.224507,1.523462 -2.224507,1.523462 z"
         inkscape:connector-curvature="0"
         transform="matrix(0.28478994,0,0,0.28478994,-1.0873792,-1.0873792)" />
      <path
         style="fill:#ff0000"
         id="path3041"
         d="m 52.686416,36.261111 c 0.840752,-0.209921 1.68019,-0.425566 2.520252,-0.639974 0.97146,-0.247893 1.944742,-0.512081 2.875681,-0.887656 0.434584,-0.158165 0.854893,-0.353439 1.295781,-0.493529 0,0 -2.118384,1.648336 -2.118384,1.648336 l 0,0 c -0.422977,0.155247 -0.840692,0.324771 -1.263583,0.480381 -0.934834,0.33686 -1.895243,0.597742 -2.859089,0.837327 -0.869427,0.225891 -1.731885,0.482642 -2.609919,0.671214 0,0 2.159261,-1.616099 2.159261,-1.616099 z"
         inkscape:connector-curvature="0"
         transform="matrix(0.28478994,0,0,0.28478994,-1.0873792,-1.0873792)" />
    </g>
  </g>
</svg>
