<?xml version="1.0" encoding="UTF-8" standalone="no"?>
<!-- Created with Inkscape (http://www.inkscape.org/) -->

<svg
   xmlns:dc="http://purl.org/dc/elements/1.1/"
   xmlns:cc="http://creativecommons.org/ns#"
   xmlns:rdf="http://www.w3.org/1999/02/22-rdf-syntax-ns#"
   xmlns:svg="http://www.w3.org/2000/svg"
   xmlns="http://www.w3.org/2000/svg"
   xmlns:xlink="http://www.w3.org/1999/xlink"
   xmlns:sodipodi="http://sodipodi.sourceforge.net/DTD/sodipodi-0.dtd"
   xmlns:inkscape="http://www.inkscape.org/namespaces/inkscape"
   width="64px"
   height="64px"
   id="svg10944"
   sodipodi:version="0.32"
   inkscape:version="0.48.1 "
   sodipodi:docname="import-gdmlread.svg"
   inkscape:output_extension="org.inkscape.output.svg.inkscape"
   version="1.1">
  <defs
     id="defs10946">
    <linearGradient
       inkscape:collect="always"
       id="linearGradient2788">
      <stop
         style="stop-color: rgb(136, 138, 133); stop-opacity: 1;"
         offset="0"
         id="stop2790" />
      <stop
         style="stop-color: rgb(136, 138, 133); stop-opacity: 0;"
         offset="1"
         id="stop2792" />
    </linearGradient>
    <linearGradient
       inkscape:collect="always"
       xlink:href="#linearGradient2788"
       id="linearGradient22385"
       gradientUnits="userSpaceOnUse"
       gradientTransform="translate(0, -3)"
       x1="12.9375"
       y1="3.25"
       x2="11.6875"
       y2="1.25" />
    <linearGradient
       id="linearGradient2798">
      <stop
         id="stop2800"
         offset="0"
         style="stop-color: white; stop-opacity: 1;" />
      <stop
         id="stop2802"
         offset="1"
         style="stop-color: rgb(211, 215, 207); stop-opacity: 0;" />
    </linearGradient>
    <linearGradient
       inkscape:collect="always"
       xlink:href="#linearGradient2798"
       id="linearGradient22383"
       gradientUnits="userSpaceOnUse"
       gradientTransform="translate(0, -3)"
       x1="13.5"
       y1="3.3125"
       x2="13.125"
       y2="1.75" />
    <linearGradient
       inkscape:collect="always"
       id="linearGradient2828">
      <stop
         style="stop-color: black; stop-opacity: 1;"
         offset="0"
         id="stop2830" />
      <stop
         style="stop-color: black; stop-opacity: 0;"
         offset="1"
         id="stop2832" />
    </linearGradient>
    <linearGradient
       inkscape:collect="always"
       xlink:href="#linearGradient2828"
       id="linearGradient22381"
       gradientUnits="userSpaceOnUse"
       gradientTransform="translate(0, -3)"
       x1="14.40625"
       y1="5.078125"
       x2="13.828125"
       y2="6.453125" />
    <linearGradient
       inkscape:collect="always"
       id="linearGradient2874">
      <stop
         style="stop-color: white; stop-opacity: 1;"
         offset="0"
         id="stop2876" />
      <stop
         style="stop-color: white; stop-opacity: 0;"
         offset="1"
         id="stop2878" />
    </linearGradient>
    <linearGradient
       inkscape:collect="always"
       xlink:href="#linearGradient2874"
       id="linearGradient22379"
       gradientUnits="userSpaceOnUse"
       gradientTransform="translate(-4, -3)"
       x1="9"
       y1="5.125"
       x2="18.625"
       y2="34.4375" />
    <linearGradient
       id="linearGradient2778">
      <stop
         style="stop-color: rgb(238, 238, 236); stop-opacity: 1;"
         offset="0"
         id="stop2780" />
      <stop
         style="stop-color: rgb(211, 215, 207); stop-opacity: 1;"
         offset="1"
         id="stop2782" />
    </linearGradient>
    <radialGradient
       inkscape:collect="always"
       xlink:href="#linearGradient2778"
       id="radialGradient22377"
       gradientUnits="userSpaceOnUse"
       gradientTransform="matrix(2.23185, 0, 0, 2.45668, -7.15925, -11.0169)"
       cx="4.8879852"
       cy="5.044178"
       fx="4.8879852"
       fy="5.044178"
       r="11" />
    <linearGradient
       id="linearGradient10735">
      <stop
         style="stop-color: rgb(192, 192, 192); stop-opacity: 0;"
         offset="0"
         id="stop10737" />
      <stop
         style="stop-color: rgb(192, 192, 192); stop-opacity: 0;"
         offset="1"
         id="stop10739" />
    </linearGradient>
    <radialGradient
       inkscape:collect="always"
       xlink:href="#linearGradient10735"
       id="radialGradient11007"
       gradientUnits="userSpaceOnUse"
       gradientTransform="translate(18, 73)"
       cx="391"
       cy="279"
       fx="391"
       fy="279"
       r="8" />
    <inkscape:perspective
       sodipodi:type="inkscape:persp3d"
       inkscape:vp_x="0 : 32 : 1"
       inkscape:vp_y="0 : 1000 : 0"
       inkscape:vp_z="64 : 32 : 1"
       inkscape:persp3d-origin="32 : 21.333333 : 1"
       id="perspective10952" />
  </defs>
  <sodipodi:namedview
     id="base"
     pagecolor="#ffffff"
     bordercolor="#666666"
     borderopacity="1.0"
     inkscape:pageopacity="0.0"
     inkscape:pageshadow="2"
     inkscape:zoom="5.5"
     inkscape:cx="76.261364"
     inkscape:cy="32"
     inkscape:current-layer="file_import"
     showgrid="true"
     inkscape:document-units="px"
     inkscape:grid-bbox="true"
     inkscape:window-width="1362"
     inkscape:window-height="1002"
     inkscape:window-x="107"
     inkscape:window-y="10"
     inkscape:window-maximized="0" />
  <metadata
     id="metadata10949">
    <rdf:RDF>
      <cc:Work
         rdf:about="">
        <dc:format>image/svg+xml</dc:format>
        <dc:type
           rdf:resource="http://purl.org/dc/dcmitype/StillImage" />
      </cc:Work>
    </rdf:RDF>
  </metadata>
  <g
     id="layer1"
     inkscape:label="Layer 1"
     inkscape:groupmode="layer">
    <g
       style="display: inline;"
       id="file_import"
       transform="matrix(3.51136, 0, 0, 3.51136, 3.81818, 3.81818)"
       inkscape:label="#g8490">
      <rect
         ry="0.065059662"
         rx="0.068212733"
         y="-5.8336281e-16"
         x="0"
         height="16"
         width="16"
         id="rect8488"
         style="overflow: visible; marker: none; opacity: 1; fill: url(#radialGradient11007) rgb(0, 0, 0); fill-opacity: 1; fill-rule: evenodd; stroke: none; stroke-width: 0.867886; stroke-linecap: square; stroke-linejoin: round; stroke-miterlimit: 0; stroke-dasharray: none; stroke-dashoffset: 0pt; stroke-opacity: 1; visibility: visible; display: inline;" />
      <rect
         y="11"
         x="3"
         height="1"
         width="1"
         id="rect2838"
         style="opacity: 1; fill: rgb(255, 255, 255); fill-opacity: 1; stroke: none; stroke-width: 1; stroke-linecap: round; stroke-linejoin: miter; stroke-miterlimit: 4; stroke-dasharray: none; stroke-dashoffset: 0pt; stroke-opacity: 1;" />
      <rect
         y="5"
         x="3"
         height="1"
         width="1"
         id="rect2840"
         style="opacity: 1; fill: rgb(255, 255, 255); fill-opacity: 1; stroke: none; stroke-width: 1; stroke-linecap: round; stroke-linejoin: miter; stroke-miterlimit: 4; stroke-dasharray: none; stroke-dashoffset: 0pt; stroke-opacity: 1;" />
      <text
         xml:space="preserve"
         style="font-size:11.39159775px;font-style:normal;font-weight:normal;line-height:125%;letter-spacing:0px;word-spacing:0px;fill:#000000;fill-opacity:1;stroke:none;font-family:Sans"
         x="-0.41423944"
         y="4.8673201"
         id="text3085"
         sodipodi:linespacing="125%"><tspan
           sodipodi:role="line"
           id="tspan3087"
           x="-0.41423944"
           y="4.8673201"
           style="font-size:5.69579887px">GDML</tspan></text>
      <path
         id="path3089"
         d="m 8.6508341,49.710288 c 0.5868189,-0.988024 1.0554082,-2.040978 1.5324509,-3.084766 0.494325,-1.199364 1.063048,-2.371124 1.474408,-3.602885 0.202238,-0.587472 0.243964,-1.20141 0.260792,-1.816702 0.0021,-0.510415 0.02645,-1.022829 -0.0586,-1.527742 -0.03737,-0.273935 -0.144574,-0.527196 -0.330041,-0.732392 -0.178799,-0.215527 -0.396439,-0.394854 -0.584166,-0.603387 -0.226066,-0.277073 -0.44828,-0.552455 -0.696446,-0.810472 C 9.9930182,37.234033 9.7035341,36.971141 9.4505526,36.669755 9.1897552,36.320973 8.9761984,35.940324 8.7799697,35.55242 8.5731654,35.147875 8.344439,34.760773 8.1745113,34.338671 8.037903,33.913402 7.905003,33.485039 7.8099711,33.048163 7.7354647,32.674881 7.7219549,32.293945 7.7139183,31.914579 7.699547,31.535824 7.69013,31.168901 7.8383382,30.814916 c 0.032864,-0.05146 0.06109,-0.106194 0.098592,-0.154378 0.067836,-0.08716 0.1727373,-0.181295 0.2679757,-0.236999 1.159782,-0.678348 1.7385627,-1.26979 2.8196831,-1.512349 0.299265,-0.15503 0.627628,-0.202173 0.958782,-0.229413 0.355641,-0.02119 0.712137,-0.01888 1.06825,-0.01854 0.422578,-0.01043 0.838482,-0.0026 1.240457,0.13806 0.29321,0.108636 0.555654,0.285966 0.825365,0.442007 0.246909,0.22652 0.450612,0.499992 0.665727,0.757831 0.211322,0.266352 0.512024,0.418125 0.782591,0.60989 0.119273,0.08453 0.395946,0.321843 0.501615,0.410837 0.424925,0.40983 0.829807,0.822948 1.069945,1.368086 0.147952,0.381378 0.169306,0.733904 -0.06386,1.07775 -0.806461,0.841004 0.405732,-0.399637 -2.564122,1.559155 -0.692418,0.456691 2.879247,-1.648582 2.155959,-1.242548 -0.598563,0.336017 -1.823142,1.139588 -2.74313,1.561187 -0.985711,0.562379 1.325109,-0.766483 1.991923,-1.142231 0.04988,-0.0281 -0.09352,0.06606 -0.139916,0.0996 -0.126348,0.09131 -0.242426,0.193102 -0.36477,0.289563 -0.04561,0.02916 -0.08995,0.06041 -0.136826,0.08749 -0.814447,0.470445 -1.625888,0.946267 -2.446994,1.40499 -0.05013,0.02801 -0.111279,0.03019 -0.163742,0.05353 -0.0482,0.02145 -0.08969,0.05577 -0.136511,0.08009 -0.04613,0.02396 -0.186936,0.09061 -0.141961,0.06455 0.72558,-0.420466 1.456257,-0.832073 2.184386,-1.248109 -0.984937,0.759168 -2.016866,1.257475 -3.122506,1.701261 0.744013,-0.42162 1.491728,-0.836775 2.232041,-1.26486 0.01301,-0.0075 -0.106043,0.01765 -0.09971,0.02074 0.03246,0.01581 0.07034,0.01633 0.105584,0.02419 0.222445,0.172525 0.508244,0.167659 0.761518,0.259525 0.288556,0.06498 0.559123,0.176518 0.842508,0.258119 0.25908,0.146945 0.547526,0.225075 0.828879,0.317517 0.35,0.03406 0.632246,0.230197 0.94858,0.359579 0.311244,0.139847 0.639787,0.228043 0.960636,0.343356 0.558739,0.210234 1.08387,0.489424 1.618304,0.751277 0.574676,0.367939 1.163917,0.709441 1.7572,1.046412 0.546508,0.332285 0.918651,0.850154 1.229704,1.395872 0.34901,0.599126 0.558178,1.256205 0.710694,1.928565 0.101975,0.573537 0.130246,1.15697 0.195039,1.735677 0.06569,0.563251 0.08791,1.130769 0.09883,1.697409 0.0088,0.455758 0.0124,0.911586 0.01421,1.367416 0.0117,0.323676 -0.116789,0.604924 -0.24393,0.892347 -0.137001,0.274287 -0.325443,0.511298 -0.544478,0.723724 -0.787806,0.705728 -1.762492,1.187581 -2.737078,1.572593 -0.149388,0.05902 -0.27742,0.130694 -0.434101,0.176255 -0.160752,0.04037 -0.325808,0.05341 -0.4903,0.06744 0,0 2.153553,-1.606914 2.153553,-1.606914 l 0,0 c 0.155509,-0.02689 0.311083,-0.05407 0.458109,-0.114374 0.141892,-0.05943 0.286206,-0.117393 0.426304,-0.180605 0.04992,-0.02252 0.193803,-0.101903 0.146657,-0.07404 -0.714856,0.422429 -1.433383,0.838614 -2.150075,1.257922 0.046,-0.02726 0.09201,-0.05453 0.138009,-0.08179 0.221052,-0.186089 0.442435,-0.379671 0.571833,-0.6432 0.165505,-0.22238 0.267125,-0.502956 0.318472,-0.773406 0.0027,-0.456928 0.0076,-0.913877 0.0037,-1.370812 -0.0096,-0.560912 -0.02099,-1.122195 -0.0801,-1.680618 -0.05841,-0.571334 -0.12188,-1.141464 -0.183829,-1.712051 -0.123524,-0.654187 -0.319106,-1.283601 -0.669911,-1.855394 -0.292736,-0.506759 -0.634545,-0.985817 -1.159223,-1.275084 -0.584218,-0.342382 -1.151827,-0.71401 -1.748229,-1.033672 -0.520355,-0.266625 -1.045136,-0.524036 -1.60155,-0.709293 -0.344275,-0.08926 -0.668644,-0.2163 -0.995047,-0.356767 -0.304502,-0.141097 -0.603006,-0.274235 -0.935249,-0.339539 -0.280598,-0.09518 -0.562206,-0.183729 -0.83061,-0.310604 -0.278216,-0.09449 -0.559274,-0.173731 -0.84114,-0.256687 -0.276828,-0.06716 -0.549695,-0.135581 -0.793625,-0.290458 -1.157826,-0.765532 1.487237,-2.400686 2.139934,-1.928561 0.143183,-0.0512 0.275494,-0.113411 0.41071,-0.182866 0.04644,-0.02385 0.184697,-0.09733 0.139623,-0.07098 -3.037078,1.775444 -2.855454,1.667597 -2.058921,1.191373 0.809427,-0.467949 1.617333,-0.938537 2.42828,-1.403846 0.122639,-0.07037 0.155859,-0.07117 0.285076,-0.130918 0.05014,-0.02318 0.195834,-0.102152 0.148183,-0.07421 -2.648527,1.553358 -2.832139,1.667953 -2.018146,1.167014 0.199111,-0.102315 0.325985,-0.266976 0.515392,-0.379726 0.810504,-0.482473 1.623297,-0.961106 2.43735,-1.437566 0.053,-0.03102 0.109047,-0.05649 0.163571,-0.08474 0.178086,-0.0991 0.369731,-0.205949 0.299081,-0.16483 -0.718764,0.418327 -2.87663,1.670593 -2.158644,1.250932 8.118362,-4.745163 -1.467926,0.880911 0.439165,-0.239376 0.303772,-0.266222 0.331875,-0.419731 0.204982,-0.815726 -0.200242,-0.512647 -0.576905,-0.90108 -0.97632,-1.270961 -0.446004,-0.348886 -0.947061,-0.630457 -1.335501,-1.046259 -0.20173,-0.231225 -0.398557,-0.479446 -0.635177,-0.673558 -0.247182,-0.151943 -0.499987,-0.3068 -0.778585,-0.392462 -0.393526,-0.09235 -0.794224,-0.08214 -1.196324,-0.07373 -0.351075,0.0021 -0.703429,0.0024 -1.0523861,0.04577 -0.3212261,0.0511 -0.6230653,0.153976 -0.9288561,0.262395 -0.8537252,0.313148 -2.0804467,1.159913 1.8045142,-1.102974 0.270237,-0.157405 -0.7059441,0.357792 -0.415542,0.270666 -0.228043,0.317547 -0.198019,0.598179 -0.186362,0.975721 0.0042,0.364678 0.0097,0.730968 0.06929,1.091711 0.08052,0.424952 0.20977,0.838429 0.332283,1.252518 0.167266,0.413187 0.400145,0.793113 0.59544,1.193179 0.187282,0.368564 0.400585,0.725772 0.645666,1.058949 0.252866,0.293394 0.541465,0.550192 0.791131,0.846454 0.251923,0.258254 0.470718,0.541071 0.710033,0.810351 0.195145,0.207042 0.416173,0.38901 0.59403,0.611332 0.201541,0.252635 0.347627,0.540451 0.387115,0.865225 0.08613,0.524893 0.05604,1.053367 0.05819,1.583832 -0.0099,0.644304 -0.02922,1.291965 -0.254661,1.904444 -0.440319,1.251227 -1.064546,2.425504 -1.546957,3.660631 -0.43586,1.025009 -0.900212,2.035983 -1.368062,3.046477 0,0 -2.4651869,1.092607 -2.4651869,1.092607 z"
         inkscape:connector-curvature="0"
         transform="matrix(0.28478994,0,0,0.28478994,-1.0873792,-1.0873792)"
         style="fill:#ffff00" />
      <path
         id="path3091"
         d="m 28.33161,28.241939 c 0.385754,0.201789 0.800032,0.357638 1.217447,0.481964 0.372331,0.101266 0.758323,0.11718 1.141738,0.12593 0.369826,0.0049 0.739674,-1.32e-4 1.109512,0.0016 0.414262,0.03584 0.812136,-0.03537 1.217986,-0.10156 0.347336,-0.01345 0.663379,-0.151179 1.002418,-0.211612 0.345211,-0.02942 0.680976,-0.05403 1.019917,-0.124664 0.361634,-0.0734 0.730404,-0.09327 1.098237,-0.105542 0.288665,-0.02835 0.535382,-0.170286 0.806041,-0.258909 0,0 -2.120291,1.652682 -2.120291,1.652682 l 0,0 c -0.274555,0.103155 -0.552253,0.188042 -0.849058,0.193259 -0.361494,0.0214 -0.721437,0.05965 -1.076028,0.135788 -0.338854,0.0571 -0.684829,0.05421 -1.020523,0.132971 -0.33199,0.08235 -0.661061,0.165555 -1.003508,0.1948 -0.412285,0.06315 -0.824041,0.07937 -1.241173,0.06747 -0.373189,0.0039 -0.746607,0.0055 -1.119633,-0.0079 -0.398081,-0.02141 -0.796243,-0.06252 -1.176304,-0.190997 -0.432351,-0.149416 -0.863251,-0.311492 -1.270693,-0.520393 0,0 2.263915,-1.464795 2.263915,-1.464795 z"
         inkscape:connector-curvature="0"
         transform="matrix(0.28478994,0,0,0.28478994,-1.0873792,-1.0873792)"
         style="fill:#00ff00" />
      <path
         id="path3093"
         d="m 29.203241,30.041116 c -0.01683,0.451971 -0.01374,0.904472 -0.01676,1.356698 -6.6e-4,0.562072 -0.0041,1.124123 -0.002,1.686198 0.03255,0.445126 0.06714,0.897988 0.239193,1.314023 0.140987,0.331673 0.306819,0.652443 0.426302,0.992463 0.171539,0.535442 0.347503,1.069826 0.479781,1.616566 0.09658,0.41283 0.124482,0.835796 0.13753,1.258116 0.01235,0.38707 -0.0076,0.774374 0.0133,1.161002 0.08513,0.622869 0.1013,1.252115 0.129426,1.87952 -0.01685,0.691594 -0.08653,1.38035 -0.119605,2.071252 -0.02107,0.512293 -0.02726,1.024943 -0.02717,1.537612 0.01273,0.400955 0.0097,0.796328 -0.08025,1.188485 -0.0714,0.294793 -0.251644,0.527395 -0.429453,0.763667 -0.156381,0.251398 -0.358494,0.470698 -0.546201,0.698723 -0.179345,0.206301 -0.377735,0.394377 -0.561677,0.59619 -0.281438,0.27775 -0.561946,0.553514 -0.819865,0.854607 -0.242502,0.335138 -0.232741,0.450457 0.137915,0.621849 0.406927,0.116291 0.833564,0.120356 1.253463,0.127571 0.618355,0.04196 1.235276,0.11421 1.856106,0.147593 0.67889,0.03127 1.358627,0.03298 2.038083,0.03117 0.365329,0.0047 0.747604,0.06229 1.096151,0.176655 0.175922,0.06285 0.360858,0.08907 0.544352,0.11825 0,0 -2.193498,1.53555 -2.193498,1.53555 l 0,0 c -0.190291,-0.03711 -0.380406,-0.07525 -0.56584,-0.132934 -0.342142,-0.07264 -0.687202,-0.14525 -1.039155,-0.132166 -0.671691,-0.01219 -1.343161,-0.03369 -2.014334,-0.06287 -0.629573,-0.03196 -1.256756,-0.09589 -1.886466,-0.11749 -0.453837,-0.01664 -0.918601,-0.03483 -1.338714,-0.22654 -0.425929,-0.273982 -0.607039,-0.554727 -0.34253,-1.038588 0.233846,-0.310038 0.485656,-0.617445 0.794834,-0.854676 0.176697,-0.215011 0.375008,-0.399498 0.555985,-0.608786 0.215556,-0.191038 0.367379,-0.43735 0.567255,-0.644639 0.128971,-0.257088 0.369839,-0.431079 0.463863,-0.708631 0.154229,-0.355573 0.127858,-0.740795 0.12831,-1.121127 0.0058,-0.519806 0.01055,-1.03987 0.04183,-1.558917 0.03857,-0.684891 0.100735,-1.367853 0.135052,-2.052897 -0.01712,-0.620526 -0.04852,-1.240631 -0.146213,-1.854585 -0.04854,-0.389329 -0.0272,-0.780149 -0.03159,-1.171957 -0.0059,-0.40779 -0.01913,-0.817038 -0.09782,-1.21855 -0.11378,-0.539682 -0.282142,-1.065104 -0.470643,-1.583042 -0.126584,-0.333466 -0.300699,-0.646549 -0.429869,-0.979474 -0.180148,-0.451205 -0.228258,-0.934648 -0.266712,-1.415998 0.0021,-0.561381 -0.0014,-1.122739 -0.002,-1.684118 -0.003,-0.446528 2.38e-4,-0.893351 -0.01676,-1.339614 0,0 2.406482,-1.226163 2.406482,-1.226163 z"
         inkscape:connector-curvature="0"
         transform="matrix(0.28478994,0,0,0.28478994,-1.0873792,-1.0873792)"
         style="fill:#00ff00" />
      <path
         id="path3095"
         d="m 31.746717,39.02442 c 0.411199,0.01145 0.822672,0.0081 1.233989,0.0073 0.353534,-0.01607 0.689423,0.08745 1.011199,0.220064 0.124771,0.08026 0.241106,0.158561 0.350743,0.25823 0,0 -2.286575,1.428089 -2.286575,1.428089 l 0,0 c -0.09425,-0.07166 -0.190679,-0.139897 -0.300459,-0.186514 -0.300466,-0.112821 -0.618688,-0.159642 -0.939784,-0.146995 -0.418041,-8.43e-4 -0.836221,-0.0039 -1.254152,0.0073 0,0 2.185039,-1.587524 2.185039,-1.587524 z"
         inkscape:connector-curvature="0"
         transform="matrix(0.28478994,0,0,0.28478994,-1.0873792,-1.0873792)"
         style="fill:#00ff00" />
      <path
         id="path3097"
         d="m 36.95849,50.519293 c -0.170212,-0.563517 -0.384825,-1.111441 -0.526076,-1.683382 -0.110813,-0.473602 -0.15125,-0.958225 -0.170041,-1.44292 -0.0124,-0.401063 -0.0038,-0.802281 -0.0024,-1.203424 -0.0066,-0.399185 0.05947,-0.797063 0.136026,-1.187797 0.07192,-0.293188 0.164522,-0.578015 0.329239,-0.832461 0.164544,-0.256164 0.34982,-0.497833 0.497761,-0.764111 0.211642,-0.353954 0.401623,-0.720192 0.597841,-1.082798 0.187415,-0.344685 0.390143,-0.675964 0.537959,-1.04002 0.216929,-0.424024 0.336267,-0.881592 0.446942,-1.341852 0.149921,-0.529354 0.258156,-1.066639 0.323059,-1.612611 0.04128,-0.452177 0.04488,-0.906792 0.04723,-1.360524 -4.21e-4,-0.408675 -0.004,-0.817337 -0.0058,-1.226006 -0.01993,-0.317392 -0.127772,-0.616201 -0.216531,-0.91837 -0.140818,-0.394176 -0.208514,-0.806042 -0.297964,-1.212914 -0.05815,-0.348153 -0.200517,-0.670774 -0.292584,-1.009462 -0.0706,-0.460095 -0.138054,-0.921233 -0.197616,-1.383071 -0.05985,-0.446705 -0.0746,-0.896771 -0.08179,-1.346754 -0.0033,-0.427419 0.151825,-0.805504 0.390614,-1.151339 0.777352,-0.938699 1.92083,-1.685676 3.136455,-1.852134 0.400601,-0.03152 0.803526,-0.02484 1.205153,-0.0239 0.381616,0.0017 0.763232,0.0031 1.144851,0.0038 0.387039,-3.61e-4 0.77405,6.7e-4 1.16107,0.0043 0.443535,-0.0048 0.879396,-0.01955 1.315411,0.06639 0.337475,0.110164 0.651111,0.271345 0.916325,0.508311 0.232092,0.300295 0.503694,0.569352 0.70536,0.891787 0.173178,0.26584 0.357128,0.523892 0.526461,0.793022 0.220592,0.292721 0.392331,0.600634 0.500997,0.950861 0.120855,0.380699 0.06039,0.764371 0.0073,1.14964 -0.02628,0.374395 -0.134643,0.734539 -0.19795,1.102935 -0.03072,0.314901 -0.206349,0.578876 -0.305889,0.870884 -0.09366,0.378454 -0.194692,0.753431 -0.24931,1.139876 -0.0098,0.386626 -0.127424,0.746942 -0.250769,1.108328 -0.0772,0.32646 -0.214277,0.63004 -0.363676,0.928521 -0.18276,0.246202 -0.248972,0.541172 -0.35146,0.823095 -0.09186,0.336294 -0.207392,0.660381 -0.340903,0.982278 -0.155835,0.348202 -0.282101,0.708161 -0.426008,1.061252 -0.163357,0.331791 -0.247406,0.685935 -0.292085,1.050573 -0.03512,0.414528 -0.03879,0.831108 -0.03925,1.246894 -0.01355,0.457263 0.0067,0.908203 0.0928,1.357549 0.162552,0.515168 0.347699,1.022607 0.50307,1.54016 0.158447,0.59516 0.422663,1.152591 0.642088,1.725701 0.100558,0.411339 0.211259,0.815715 0.362512,1.211501 0.134693,0.383182 0.168774,0.787424 0.214846,1.187594 0.0046,0.02815 0.0091,0.05631 0.01368,0.08446 0,0 -2.400908,1.247557 -2.400908,1.247557 l 0,0 c -1.63e-4,-0.03089 -3.27e-4,-0.06178 -4.9e-4,-0.09267 -0.01381,-0.379434 -0.05124,-0.761045 -0.171381,-1.123377 -0.150251,-0.399204 -0.265424,-0.803591 -0.35032,-1.221976 -0.203354,-0.584884 -0.459271,-1.1511 -0.632457,-1.746838 -0.164165,-0.521377 -0.366774,-1.029889 -0.530215,-1.551807 -0.109186,-0.464166 -0.14545,-0.929779 -0.120633,-1.40646 -5.81e-4,-0.421718 -0.01524,-0.843926 0.01376,-1.265073 0.03331,-0.386803 0.09308,-0.771409 0.259372,-1.126603 0.160858,-0.343387 0.261983,-0.709164 0.427212,-1.050455 0.120042,-0.324369 0.289504,-0.624183 0.335723,-0.972682 0.0328,-0.08996 0.07889,-0.175002 0.107537,-0.266369 0.06476,-0.206556 0.08389,-0.428111 0.225047,-0.605638 0.186859,-0.255328 0.312354,-0.570018 0.393655,-0.8738 0.107553,-0.352902 0.280277,-0.689322 0.281605,-1.066881 0.04231,-0.398712 0.129792,-0.782261 0.221967,-1.17105 0.01973,-0.08805 0.05245,-0.25186 0.08689,-0.337958 0.06885,-0.17213 0.210934,-0.309624 0.233402,-0.504242 0.05067,-0.371623 0.168168,-0.727003 0.208572,-1.098418 0.03623,-0.351395 0.135388,-0.700245 0.0371,-1.050168 -0.09167,-0.332891 -0.260338,-0.611113 -0.471808,-0.882896 -0.168283,-0.270045 -0.347707,-0.531153 -0.5232,-0.796097 -0.184034,-0.298868 -0.428725,-0.557838 -0.661626,-0.818846 -0.246111,-0.191081 -0.528657,-0.330705 -0.835665,-0.392039 -0.422914,-0.06273 -0.851074,-0.03028 -1.277266,-0.03713 -0.390395,0.0034 -0.780781,0.0045 -1.17119,0.0021 -0.380194,-0.0016 -0.760378,-0.0046 -1.140571,-0.006 -0.393164,7.55e-4 -0.791835,-0.0081 -1.178125,0.07574 -0.852472,0.263448 -2.182116,1.228732 1.860044,-1.147709 0.04634,-0.02725 -0.09701,0.04728 -0.141312,0.07772 -0.122645,0.08427 -0.151433,0.134215 -0.248154,0.248191 -0.268494,0.263138 -0.442728,0.605505 -0.478148,0.98247 0.0057,0.44212 0.01601,0.884843 0.06165,1.324959 0.05187,0.449822 0.136938,0.893396 0.201043,1.341123 0.08458,0.343991 0.230907,0.6689 0.287049,1.0206 0.09645,0.399376 0.135212,0.813782 0.297669,1.196268 0.09348,0.32692 0.219458,0.644375 0.247538,0.987035 -2.61e-4,0.410415 -7.26e-4,0.82083 -0.0014,1.231245 -5.7e-4,0.462909 -0.0014,0.926233 -0.04128,1.387873 -0.05121,0.556554 -0.160404,1.105904 -0.316629,1.642704 -0.09417,0.468844 -0.188698,0.942579 -0.403621,1.373979 -0.07343,0.171526 -0.125267,0.351012 -0.212643,0.51637 -0.190809,0.361107 -0.0091,-0.01672 -0.219844,0.346621 -0.03914,0.06748 -0.06972,0.139579 -0.104573,0.209369 -0.201853,0.354943 -0.372574,0.727183 -0.582215,1.075682 -0.149118,0.269926 -0.295042,0.532735 -0.48431,0.777012 -0.154589,0.243561 -0.321556,0.464718 -0.372362,0.760652 -0.124267,0.355574 -0.152487,0.757229 -0.175382,1.130351 -0.0014,0.398331 2.02e-4,0.796659 7.09e-4,1.194989 0.0076,0.470548 0.02797,0.942549 0.123801,1.404864 0.130181,0.564408 0.322153,1.111602 0.549153,1.644259 0,0 -2.359662,1.299569 -2.359662,1.299569 z"
         inkscape:connector-curvature="0"
         transform="matrix(0.28478994,0,0,0.28478994,-1.0873792,-1.0873792)"
         style="fill:#0000ff" />
      <path
         id="path3099"
         d="m 42.335995,38.741802 c 0.437257,0.122952 0.828944,0.338241 1.211283,0.576259 0.292922,0.137829 0.5717,0.303524 0.888277,0.381217 0.32438,0.05892 0.655639,0.058 0.984188,0.0608 0.23974,-0.08182 0.500127,-0.08405 0.728987,-0.190903 0,0 -2.127483,1.649508 -2.127483,1.649508 l 0,0 c -0.25619,0.05058 -0.512749,0.120322 -0.775613,0.115358 -0.346383,-0.0087 -0.697272,-0.01812 -1.031791,-0.118365 -0.321173,-0.114038 -0.621706,-0.28071 -0.918009,-0.447464 -0.368053,-0.233502 -0.76304,-0.412328 -1.189027,-0.513928 0,0 2.229188,-1.512482 2.229188,-1.512482 z"
         inkscape:connector-curvature="0"
         transform="matrix(0.28478994,0,0,0.28478994,-1.0873792,-1.0873792)"
         style="fill:#0000ff" />
      <path
         id="path3101"
         d="m 52.303332,27.83579 c 0.06336,0.423185 0.09007,0.849264 0.194576,1.264904 0.143734,0.445073 0.250666,0.897286 0.290812,1.363261 0.01465,0.557148 0.08972,1.11155 0.208824,1.655504 0.101066,0.405311 0.154832,0.81856 0.18243,1.234633 0.02537,0.428744 0.09518,0.853618 0.137249,1.281287 0.0513,0.526348 0.04381,1.055528 0.04632,1.5836 0.007,0.501819 -0.01781,1.002738 0.06737,1.498713 0.126494,0.654783 0.262921,1.307053 0.405913,1.958383 0.13646,0.626671 0.203173,1.264401 0.244457,1.903449 0.02586,0.55418 0.09589,1.10551 0.141348,1.65865 0.04755,0.501787 0.06569,1.00165 0.01114,1.502921 -0.04933,0.444481 -0.136483,0.887794 -0.279775,1.311849 -0.07771,0.307864 -0.244253,0.571577 -0.401518,0.841898 -0.221969,0.367767 -0.491095,0.702689 -0.75275,1.042441 -0.282673,0.376787 -0.618872,0.706412 -0.930057,1.057921 -0.198344,0.280553 -0.360849,0.583089 -0.560982,0.862664 -0.102652,0.08022 -0.450471,0.660615 -0.542151,0.665268 0.0027,-0.01145 -0.0019,-0.02831 0.0082,-0.03435 0.05469,-0.0327 0.127604,-5.58e-4 0.191053,-0.0064 0.210174,-0.01946 0.425285,-0.09577 0.629818,-0.143469 0.465207,-0.114615 0.939804,-0.174759 1.417164,-0.204744 0.33573,-0.02209 0.656758,-0.127063 0.993231,-0.164236 0.354661,-0.03039 0.71102,-0.03241 1.066733,-0.03093 0.394341,-0.05665 0.760349,-0.212733 1.133475,-0.344916 0.411896,-0.175697 0.820345,-0.350693 1.223949,-0.54331 -4.156808,2.213831 -2.149009,1.381871 -1.378531,0.697192 0.233919,-0.233899 0.483767,-0.43652 0.678076,-0.706137 0.235186,-0.334858 0.413708,-0.693824 0.565878,-1.072264 0.169007,-0.372289 0.299627,-0.754101 0.368884,-1.156948 0.05767,-0.392522 0.03608,-0.789383 0.09373,-1.181603 0.07438,-0.359326 0.109183,-0.723361 0.126631,-1.089296 -0.0042,-0.477937 0.06718,-0.950546 0.120774,-1.424149 0.0262,-0.454734 0.106941,-0.902331 0.173697,-1.352041 0.07557,-0.498082 0.0666,-1.002913 0.10559,-1.503875 0.05835,-0.499877 0.113191,-0.999611 0.139384,-1.502298 -0.01056,-0.413138 0.05789,-0.817881 0.119621,-1.224328 0.05968,-0.393907 0.07182,-0.792215 0.0788,-1.189841 0.0051,-0.392882 2.63e-4,-0.785793 0.0039,-1.178677 0.0013,-0.411038 -0.0011,-0.822076 -0.0023,-1.233112 -0.0049,-0.406034 0.0022,-0.811959 0.0051,-1.217945 0.02236,-0.456568 -0.0035,-0.904407 -0.07782,-1.354384 -0.0751,-0.344809 -0.06431,-0.700554 -0.117947,-1.047411 -0.07983,-0.285594 -0.08414,-0.587972 -0.204222,-0.860533 -0.127618,-0.27451 -0.246798,-0.558091 -0.444058,-0.790861 -0.22277,-0.182023 -0.502741,-0.26709 -0.749251,-0.407326 -0.325406,-0.127766 -0.649424,-0.265834 -0.983106,-0.375386 -0.428742,-0.148165 -0.839978,-0.329711 -1.244287,-0.533404 -0.304579,-0.148234 -0.639631,-0.174462 -0.972292,-0.19084 -0.356499,-0.011 -0.713251,-0.0073 -1.069861,-0.0059 -0.297712,0.02756 -0.641834,0.06443 -0.916669,0.192021 -0.04424,0.01678 -0.09153,0.02705 -0.13272,0.05033 -0.347666,0.196595 0.143922,-0.02438 -0.21888,0.150548 -0.13214,0.06371 -0.259513,0.08061 -0.386413,0.157118 4.146792,-2.345885 2.243202,-1.702954 1.829686,-0.763167 -0.08599,0.263502 -0.209354,0.511435 -0.380085,0.729806 -0.02723,0.03617 -0.05446,0.07235 -0.08169,0.108521 0,0 -2.48773,1.03912 -2.48773,1.03912 l 0,0 c 0.03158,-0.02623 0.06315,-0.05247 0.09473,-0.0787 0.149008,-0.214453 0.333975,-0.397591 0.417943,-0.653963 0.293465,-1.194633 1.717056,-1.516683 2.714362,-2.060288 0.261486,-0.09486 0.486646,-0.260672 0.758603,-0.328499 0.31728,-0.0622 0.632671,-0.143049 0.959141,-0.120619 0.361206,-6.85e-4 0.722985,-0.004 1.083507,0.02181 0.358819,0.03573 0.710998,0.103027 1.029878,0.281397 0.389766,0.204169 0.797973,0.364925 1.214942,0.505356 0.345383,0.120333 0.694753,0.239238 1.023716,0.399346 0.284934,0.136554 0.578503,0.27363 0.803241,0.501773 0.202473,0.258026 0.34602,0.549482 0.479134,0.848053 0.140086,0.293223 0.157732,0.609306 0.236407,0.922216 0.06699,0.347396 0.0423,0.706507 0.112494,1.05486 0.07218,0.464492 0.110193,0.926544 0.08684,1.397595 0.0029,0.404189 0.01,0.808317 0.0053,1.212556 -9.5e-4,0.411456 -0.0029,0.82292 -5.53e-4,1.234374 0.0045,0.394321 0.0018,0.788693 -0.0021,1.183012 -0.0062,0.406617 -0.0069,0.81488 -0.05915,1.21882 -0.0572,0.401966 -0.155014,0.797822 -0.14078,1.206764 -0.0264,0.507611 -0.06981,1.013203 -0.144865,1.516226 -0.05145,0.501932 -0.0221,1.008024 -0.08395,1.509713 -0.06468,0.449336 -0.165299,0.892629 -0.183047,1.347534 -0.05455,0.466694 -0.136572,0.931388 -0.122608,1.402869 -0.01238,0.374527 -0.02173,0.750934 -0.104364,1.118227 -0.08047,0.390527 -0.07302,0.7801 -0.09956,1.177155 -0.0551,0.421553 -0.158745,0.830805 -0.351534,1.21267 -0.141702,0.389858 -0.286608,0.773265 -0.53223,1.111421 -0.16454,0.314257 -0.379864,0.549546 -0.661665,0.762178 -0.819764,0.986458 -2.384454,0.988121 -3.189958,2.001819 -0.404142,0.19179 -0.822995,0.352023 -1.237636,0.519351 -0.385121,0.137945 -0.776396,0.276849 -1.190916,0.276624 -0.351847,0.0079 -0.705134,0.01202 -1.053877,0.06462 -0.33082,0.05614 -0.656491,0.145807 -0.994851,0.144134 -0.466121,0.04089 -0.927702,0.114943 -1.382339,0.227148 -0.380605,0.08181 -0.845662,0.212807 -1.106393,-0.16305 -0.01327,-0.04652 -0.03891,-0.0912 -0.03982,-0.139566 -0.0044,-0.235453 0.405244,-0.531379 0.516586,-0.730705 0.216077,-0.270602 0.397632,-0.563928 0.559049,-0.869368 0.278979,-0.386817 0.672284,-0.674823 0.944618,-1.070722 0.377609,-0.416393 -0.0085,0.03314 0.317422,-0.421046 0.139336,-0.194151 0.321304,-0.360606 0.420707,-0.583324 0.297403,-0.390536 -0.119028,0.173748 0.157273,-0.262713 0.105103,-0.166027 0.240066,-0.31894 0.276424,-0.523085 0.156708,-0.406519 0.277614,-0.827176 0.322465,-1.262836 0.05717,-0.487788 0.0618,-0.972384 0.02032,-1.463002 -0.03756,-0.555569 -0.125334,-1.105572 -0.151393,-1.661074 -0.02143,-0.629465 -0.06962,-1.25887 -0.201203,-1.876253 -0.14266,-0.649888 -0.290265,-1.298508 -0.431066,-1.948793 -0.121566,-0.511843 -0.08368,-1.027242 -0.0812,-1.550554 -0.0041,-0.518924 -0.01401,-1.038319 -0.04967,-1.556153 -0.03721,-0.430573 -0.119884,-0.854541 -0.153202,-1.283868 -0.01856,-0.405275 -0.05781,-0.809234 -0.149163,-1.205467 -0.115813,-0.554707 -0.194594,-1.116627 -0.226037,-1.682913 -0.04219,-0.449547 -0.120889,-0.892582 -0.268316,-1.321002 -0.124034,-0.416138 -0.144423,-0.84275 -0.231689,-1.266736 0,0 2.381349,-1.273178 2.381349,-1.273178 z"
         inkscape:connector-curvature="0"
         transform="matrix(0.28478994,0,0,0.28478994,-1.0873792,-1.0873792)"
         style="fill:#ff2a2a" />
      <path
         style="fill:#0000ff"
         d="m 36.681312,49.245455 c -0.140971,-0.575 -0.256312,-1.74091 -0.256312,-2.59091 0,-1.658057 -0.02936,-1.573009 1.508055,-4.36869 1.358795,-2.470875 1.668309,-5.460984 0.874629,-8.449491 -0.580332,-2.18517 -0.743202,-3.728531 -0.478205,-4.53148 0.229747,-0.69614 1.225057,-1.586021 2.255464,-2.016552 0.763419,-0.318977 5.736858,-0.386828 6.299079,-0.08594 0.602813,0.322616 2.024478,2.495142 2.111821,3.227193 0.106891,0.895891 -0.928588,4.81133 -1.9588,7.406776 -0.723616,1.82303 -0.793085,2.136749 -0.785094,3.545454 0.0077,1.357952 0.112484,1.844573 0.863636,4.01088 0.470179,1.355984 0.853899,2.624166 0.852713,2.818182 -0.0015,0.241556 -0.339207,0.537864 -1.071368,0.939967 l -1.069211,0.587213 -0.126736,-0.675562 c -0.0697,-0.371558 -0.487589,-1.750131 -0.928632,-3.063493 -0.627258,-1.867883 -0.801896,-2.650475 -0.801896,-3.593468 l 0,-1.205537 -0.863636,-0.0022 c -0.578824,-0.0015 -1.119122,-0.148264 -1.638343,-0.445128 l -0.774707,-0.442938 -0.241916,0.399673 c -0.133054,0.219821 -0.602618,1.01331 -1.043475,1.76331 l -0.801559,1.363637 0.02378,1.909091 c 0.01515,1.216429 0.125401,2.18303 0.303871,2.664114 l 0.280094,0.755024 -1.056593,0.563158 c -0.581127,0.309736 -1.093437,0.563158 -1.138468,0.563158 -0.04503,0 -0.197214,-0.470454 -0.338186,-1.045454 z m 5.042434,-9.936991 0.64309,-0.436991 0.999429,0.457553 c 0.549686,0.251655 1.057956,0.386937 1.12949,0.300627 0.514506,-0.62078 1.826617,-4.822454 2.248006,-7.198616 0.178971,-1.009196 0.165631,-1.07321 -0.427641,-2.052104 -0.336806,-0.555726 -0.843877,-1.23242 -1.126825,-1.503764 -0.499592,-0.479101 -0.575827,-0.493351 -2.639373,-0.493351 l -2.124922,0 0.0527,1.268376 c 0.02899,0.697607 0.253987,2.062434 0.5,3.032949 0.290737,1.146952 0.445741,2.262149 0.442852,3.18617 -0.0039,1.256572 -0.0736,1.787413 -0.455036,3.467051 -0.116837,0.514486 -0.03557,0.511496 0.758226,-0.0279 l 0,0 z"
         id="path3020"
         inkscape:connector-curvature="0"
         transform="matrix(0.28478994,0,0,0.28478994,-1.0873792,-1.0873792)" />
      <path
         style="fill:#0000ff"
         d="m 29.120267,51.355916 c -3.943023,-0.236647 -4.172239,-0.442201 -2.505454,-2.246825 1.638243,-1.773722 1.594254,-1.598584 1.598878,-6.365795 l 0.0041,-4.183977 -0.669102,-1.937519 c -0.579152,-1.677051 -0.669102,-2.159006 -0.669102,-3.585073 l 0,-1.647553 0.954545,-0.547426 c 0.846302,-0.48535 0.898264,-0.54762 0.458225,-0.549133 -0.272976,-9.45e-4 -0.82912,-0.134866 -1.235875,-0.297617 l -0.739554,-0.295911 0.936622,-0.630757 c 0.723958,-0.487542 1.04585,-0.603257 1.417692,-0.509638 1.771675,0.446057 2.918545,0.497976 4.614447,0.208899 0.951417,-0.162175 1.997138,-0.294864 2.323824,-0.294864 l 0.593976,0 -0.763989,0.604567 c -0.674705,0.533913 -1.002065,0.640154 -2.801164,0.90909 -1.120447,0.167489 -2.38362,0.304525 -2.807053,0.304525 l -0.769878,0 0.0043,1.5 c 0.0047,1.633403 0.09541,2.099114 0.800014,4.108326 0.340861,0.971983 0.468375,1.702104 0.468375,2.681818 0,1.459153 0.103375,1.577334 0.859478,0.982583 0.339009,-0.266664 0.734546,-0.362893 1.483224,-0.360852 1.559247,0.0043 1.650076,0.198267 0.443478,0.947288 -0.838725,0.520656 -1.128612,0.616226 -1.472536,0.485466 -1.079075,-0.410263 -1.083566,-0.400928 -1.211788,2.519007 -0.07113,1.619896 -0.216171,2.904745 -0.366281,3.244804 -0.136683,0.309642 -0.714601,1.066415 -1.284263,1.681718 -0.60128,0.649453 -0.994865,1.225273 -0.938284,1.372718 0.114245,0.29772 0.964319,0.41511 4.169397,0.575762 1.275333,0.06393 2.356831,0.177786 2.403329,0.25302 0.0465,0.07524 -0.273968,0.394255 -0.712147,0.708931 -0.551107,0.395775 -0.983689,0.563966 -1.40333,0.545624 -0.333652,-0.01458 -1.766498,-0.09613 -3.184101,-0.181206 l 0,0 z"
         id="path3022"
         inkscape:connector-curvature="0"
         transform="matrix(0.28478994,0,0,0.28478994,-1.0873792,-1.0873792)" />
      <path
         style="fill:#0000ff"
         d="m 48.515909,51.72176 c 0,-0.138798 0.451322,-0.82434 1.002938,-1.523424 1.478398,-1.873632 2.073279,-2.814863 2.295455,-3.631903 0.262017,-0.963556 0.06018,-4.222775 -0.398875,-6.44085 -0.194735,-0.94093 -0.355343,-2.331839 -0.356907,-3.09091 -0.0027,-1.326919 -0.515045,-5.462924 -0.874028,-7.056223 l -0.172812,-0.767004 0.976633,-0.551178 c 0.537148,-0.303147 1.044935,-0.551177 1.128415,-0.551177 0.246107,0 0.963689,4.79068 1.130212,7.545454 0.08463,1.4 0.276167,3.159091 0.425641,3.909091 0.149474,0.75 0.32835,2.142115 0.397502,3.093589 0.174036,2.39458 -0.07793,3.487395 -1.116178,4.840955 -1.929368,2.51532 -2.284896,3.006435 -2.221966,3.069364 0.03661,0.03661 0.391612,-0.0051 0.7889,-0.09277 0.397289,-0.08763 1.458707,-0.244494 2.358707,-0.348591 0.9,-0.104096 1.840909,-0.246096 2.090909,-0.315558 0.439002,-0.121972 0.43584,-0.110412 -0.09245,0.338026 -0.83496,0.708754 -1.830928,1.062494 -3.725732,1.32328 -0.95,0.130749 -2.156818,0.297231 -2.681818,0.369956 -0.756546,0.104804 -0.954546,0.07989 -0.954546,-0.120129 z"
         id="path3024"
         inkscape:connector-curvature="0"
         transform="matrix(0.28478994,0,0,0.28478994,-1.0873792,-1.0873792)" />
      <path
         style="fill:#0000ff"
         d="m 56.782002,49.101569 c 0.862393,-1.270807 0.94702,-1.749158 1.645785,-9.302812 0.477662,-5.163528 0.310923,-9.812207 -0.390334,-10.88246 -0.360448,-0.550113 -3.19399,-1.756138 -4.366279,-1.858395 -0.81403,-0.07101 -0.950587,-0.03454 -1.050599,0.280574 -0.07063,0.222539 -0.481019,0.502705 -1.064356,0.726622 -0.52217,0.200438 -0.975888,0.340846 -1.008262,0.312018 -0.03237,-0.02883 0.06919,-0.300037 0.225697,-0.602688 0.204716,-0.395878 0.699026,-0.757722 1.761733,-1.289624 2.270012,-1.136177 3.59569,-1.04254 6.853228,0.484064 0.368029,0.172472 0.749927,0.570233 0.987848,1.028879 0.343736,0.662629 0.396998,1.127322 0.468096,4.083936 0.04419,1.837746 -0.01524,4.369345 -0.132311,5.636364 -0.841203,9.103735 -0.878447,9.302544 -1.98479,10.595057 -0.562432,0.657076 -1.752571,1.432351 -2.198826,1.432351 -0.10097,0 0.01305,-0.289748 0.25337,-0.643886 z"
         id="path3026"
         inkscape:connector-curvature="0"
         transform="matrix(0.28478994,0,0,0.28478994,-1.0873792,-1.0873792)" />
      <path
         style="fill:#0000ff"
         d="M 21.627019,49.383471 22.389803,48.657853 22.28467,46.06309 c -0.169629,-4.186547 -0.809077,-5.34045 -3.77287,-6.808251 -1.407458,-0.697035 -4.397401,-1.873021 -4.762155,-1.873021 -0.08316,0 -0.01709,0.204698 0.146842,0.454885 0.242095,0.369483 0.281893,0.787638 0.211981,2.227273 -0.08494,1.749021 -0.105684,1.816733 -1.57365,5.136024 l -1.487578,3.363636 -0.930881,0.410542 c -0.5119839,0.225798 -0.9595433,0.38188 -0.994576,0.346847 -0.035033,-0.03503 0.2582819,-0.751594 0.6518105,-1.59236 1.7481525,-3.734892 2.0619725,-4.690232 2.1523885,-6.55236 l 0.08502,-1.750968 -1.197892,-1.339941 C 8.8400197,35.878332 7.7963243,33.716658 7.7907947,31.82566 c -0.00265,-0.904622 0.1802175,-1.149289 1.4523875,-1.94327 1.3806998,-0.861716 2.0189858,-1.046133 3.6180408,-1.045347 1.056796,5.2e-4 1.520995,0.08545 1.972868,0.360964 0.325,0.198157 0.590909,0.440724 0.590909,0.53904 0,0.09831 0.440656,0.504287 0.979235,0.902158 1.742954,1.287596 2.202859,2.654118 1.061204,3.153172 -0.272241,0.119005 -0.954909,0.525313 -1.51704,0.902907 -0.562131,0.377594 -1.119233,0.686534 -1.238004,0.686534 -0.423619,0 0.002,0.33788 0.580327,0.460742 1.072009,0.227725 4.750903,1.7415 5.973445,2.457927 2.358336,1.382018 3.01995,2.697485 3.194757,6.35204 0.129301,2.703177 0.06503,3.056911 -0.693183,3.815124 -0.478703,0.478704 -2.460534,1.64144 -2.797757,1.64144 -0.05706,0 0.239503,-0.326529 0.659035,-0.72562 l 0,0 z M 13.859463,35.184849 c 0.801172,-0.06012 1.094347,-0.150947 1.527684,-0.473265 0.899351,-0.66894 0.767858,-1.027792 -0.993092,-2.710209 -1.684169,-1.609061 -2.228869,-1.889429 -3.674358,-1.89127 l -0.7962117,-0.001 0.1227867,1.136364 c 0.135473,1.253776 1.012427,3.316849 1.811766,4.262258 l 0.490759,0.580439 0.654383,-0.444076 c 0.359911,-0.244242 0.745238,-0.450894 0.856283,-0.459227 l 0,0 z"
         id="path3028"
         inkscape:connector-curvature="0"
         transform="matrix(0.28478994,0,0,0.28478994,-1.0873792,-1.0873792)" />
    </g>
  </g>
</svg>
