<svg width="24" height="24" viewBox="0 0 24 24" fill="none" xmlns="http://www.w3.org/2000/svg">
  <rect x="3" y="3" width="18" height="18" rx="2" stroke="#ffffff" stroke-width="2"/>
  <path d="M11.8429 17.117C11.1843 17.117 10.5906 16.9913 10.0619 16.74C9.53327 16.4887 9.11727 16.1463 8.81393 15.713C8.51927 15.271 8.37193 14.777 8.37193 14.231C8.37193 13.867 8.5236 13.6113 8.82693 13.464C9.13893 13.3167 9.57227 13.243 10.1269 13.243C10.1009 13.399 10.0879 13.5983 10.0879 13.841C10.0879 14.4043 10.2353 14.8377 10.5299 15.141C10.8333 15.4443 11.2709 15.596 11.8429 15.596C12.4063 15.596 12.8396 15.4357 13.1429 15.115C13.4463 14.7857 13.5979 14.3177 13.5979 13.711V9.408H12.2849C11.8776 9.408 11.5743 9.28667 11.3749 9.044C11.1756 8.79267 11.0759 8.41133 11.0759 7.9H14.4949C14.7289 7.9 14.9283 7.978 15.0929 8.134C15.2576 8.28133 15.3399 8.46767 15.3399 8.693V13.711C15.3399 14.361 15.1883 14.946 14.8849 15.466C14.5903 15.9773 14.1743 16.3803 13.6369 16.675C13.1083 16.9697 12.5103 17.117 11.8429 17.117Z" fill="#ffffff"/>
</svg>
