<svg width="24" height="24" viewBox="0 0 24 24" fill="none" xmlns="http://www.w3.org/2000/svg">
<rect x="3" y="3" width="18" height="18" rx="2" stroke="#ffffff" stroke-width="2"/>
<path d="M7.51749 9.083C7.51749 8.68433 7.67349 8.368 7.98549 8.134C8.29749 7.89133 8.72216 7.77 9.25949 7.77L11.9895 14.634L11.6905 15.453L11.8205 15.505L14.7455 7.783C15.2742 7.783 15.6945 7.90433 16.0065 8.147C16.3272 8.381 16.4875 8.69733 16.4875 9.096V17.117C15.3522 17.117 14.7845 16.6923 14.7845 15.843V11.683L15.2265 10.487L15.0835 10.435L12.7045 16.649C12.6438 16.7877 12.5485 16.9003 12.4185 16.987C12.2972 17.0737 12.1585 17.117 12.0025 17.117C11.8465 17.117 11.7035 17.0737 11.5735 16.987C11.4522 16.9003 11.3612 16.7833 11.3005 16.636L8.92149 10.422L8.77849 10.474L9.20749 11.67V15.843C9.20749 16.6923 8.64416 17.117 7.51749 17.117V9.083Z" fill="#ffffff"/>
</svg>
