<svg width="24" height="24" viewBox="0 0 24 24" fill="none" xmlns="http://www.w3.org/2000/svg">
  <rect x="3" y="3" width="18" height="18" rx="2" stroke="#ffffff" stroke-width="2"/>
  <path d="M12.0048 17.117C11.2768 17.117 10.6181 16.9697 10.0288 16.675C9.44811 16.3803 8.99311 15.973 8.66377 15.453C8.33444 14.933 8.16977 14.3437 8.16977 13.685V9.07C8.16977 8.654 8.31711 8.33767 8.61177 8.121C8.90644 7.89567 9.33977 7.783 9.91177 7.783V13.685C9.91177 14.2657 10.1024 14.7293 10.4838 15.076C10.8651 15.4227 11.3721 15.596 12.0048 15.596C12.6374 15.596 13.1444 15.4227 13.5258 15.076C13.9071 14.7293 14.0978 14.2657 14.0978 13.685V9.07C14.0978 8.64533 14.2451 8.32467 14.5398 8.108C14.8344 7.89133 15.2678 7.783 15.8398 7.783V13.685C15.8398 14.3437 15.6751 14.933 15.3458 15.453C15.0164 15.973 14.5571 16.3803 13.9678 16.675C13.3871 16.9697 12.7328 17.117 12.0048 17.117Z" fill="#ffffff"/>
</svg>
