999
dxfrw 0.5.11
0
SECTION
2
HEADER
9
$ACADVER
1
AC1015
9
$HANDSEED
5
20000
9
$DWGCODEPAGE
3
ANSI_1250
9
$INSBASE
10
0
20
0
30
0
9
$EXTMIN
10
0
20
-841
30
0
9
$EXTMAX
10
1189
20
0
30
0
9
$LIMMIN
10
0
20
0
9
$LIMMAX
10
420
20
297
9
$ORTHOMODE
70
0
9
$LTSCALE
40
1
9
$TEXTSTYLE
7
STANDARD
9
$CLAYER
8
DIMENSIONS
9
$DIMASZ
40
5
9
$DIMLFAC
40
1
9
$DIMSCALE
40
1
9
$DIMEXO
40
0
9
$DIMEXE
40
2
9
$DIMTXT
40
5
9
$DIMTSZ
40
0
9
$DIMAUNIT
70
0
9
$DIMADEC
70
2
9
$DIMLUNIT
70
2
9
$DIMSTYLE
2
Standard
9
$DIMGAP
40
1
9
$DIMTIH
70
0
9
$LUNITS
70
2
9
$LUPREC
70
2
9
$AUNITS
70
0
9
$AUPREC
70
2
9
$SPLINESEGS
70
8
9
$GRIDMODE
70
0
9
$SNAPSTYLE
70
0
9
$GRIDUNIT
10
0
20
0
9
$PINSBASE
10
0
20
841
30
0
9
$PLIMMIN
10
0
20
0
9
$PLIMMAX
10
1189
20
841
9
$INSUNITS
70
4
9
$PSVPSCALE
40
1
0
ENDSEC
0
SECTION
2
CLASSES
0
ENDSEC
0
SECTION
2
TABLES
0
TABLE
2
VPORT
5
8
330
0
100
AcDbSymbolTable
70
1
0
VPORT
5
31
330
2
100
AcDbSymbolTableRecord
100
AcDbViewportTableRecord
2
*ACTIVE
70
0
10
0
20
0
11
1
21
1
12
600.99726776
22
28.5879781421
13
0
23
0
14
10
24
10
15
10
25
10
16
0
26
0
36
1
17
0
27
0
37
0
40
953.798907104
41
1.27384196185
42
50
43
0
44
0
50
0
51
0
71
0
72
100
73
1
74
3
75
0
76
0
77
0
78
0
281
0
65
1
110
0
120
0
130
0
111
1
121
0
131
0
112
0
122
1
132
0
79
0
146
0
0
ENDTAB
0
TABLE
2
LTYPE
5
5
330
0
100
AcDbSymbolTable
70
4
0
LTYPE
5
14
330
5
100
AcDbSymbolTableRecord
100
AcDbLinetypeTableRecord
2
ByBlock
70
0
3

72
65
73
0
40
0
0
LTYPE
5
15
330
5
100
AcDbSymbolTableRecord
100
AcDbLinetypeTableRecord
2
ByLayer
70
0
3

72
65
73
0
40
0
0
LTYPE
5
16
330
5
100
AcDbSymbolTableRecord
100
AcDbLinetypeTableRecord
2
Continuous
70
0
3
Solid line
72
65
73
0
40
0
0
LTYPE
5
32
330
5
100
AcDbSymbolTableRecord
100
AcDbLinetypeTableRecord
2
DOT
70
0
3
Dot . . . . . . . . . . . . . . . . . . . . . .
72
65
73
2
40
6.35
49
0
74
0
49
-6.35
74
0
0
LTYPE
5
33
330
5
100
AcDbSymbolTableRecord
100
AcDbLinetypeTableRecord
2
DOT2
70
0
3
Dot (.5x) .....................................
72
65
73
2
40
3.175
49
0
74
0
49
-3.175
74
0
0
LTYPE
5
34
330
5
100
AcDbSymbolTableRecord
100
AcDbLinetypeTableRecord
2
DOTX2
70
0
3
Dot (2x) .  .  .  .  .  .  .  .  .  .  .  .  .
72
65
73
2
40
12.7
49
0
74
0
49
-12.7
74
0
0
LTYPE
5
35
330
5
100
AcDbSymbolTableRecord
100
AcDbLinetypeTableRecord
2
DASHED
70
0
3
Dot . . . . . . . . . . . . . . . . . . . . . .
72
65
73
2
40
19.05
49
12.7
74
0
49
-6.35
74
0
0
LTYPE
5
36
330
5
100
AcDbSymbolTableRecord
100
AcDbLinetypeTableRecord
2
DASHED2
70
0
3
Dashed (.5x) _ _ _ _ _ _ _ _ _ _ _ _ _ _ _ _ _
72
65
73
2
40
9.525
49
6.35
74
0
49
-3.175
74
0
0
LTYPE
5
37
330
5
100
AcDbSymbolTableRecord
100
AcDbLinetypeTableRecord
2
DASHEDX2
70
0
3
Dashed (2x) ____  ____  ____  ____  ____  ___
72
65
73
2
40
38.1
49
25.4
74
0
49
-12.7
74
0
0
LTYPE
5
38
330
5
100
AcDbSymbolTableRecord
100
AcDbLinetypeTableRecord
2
DASHDOT
70
0
3
Dash dot __ . __ . __ . __ . __ . __ . __ . __
72
65
73
4
40
25.4
49
12.7
74
0
49
-6.35
74
0
49
0
74
0
49
-6.35
74
0
0
LTYPE
5
39
330
5
100
AcDbSymbolTableRecord
100
AcDbLinetypeTableRecord
2
DASHDOT2
70
0
3
Dash dot (.5x) _._._._._._._._._._._._._._._.
72
65
73
4
40
12.7
49
6.35
74
0
49
-3.175
74
0
49
0
74
0
49
-3.175
74
0
0
LTYPE
5
3A
330
5
100
AcDbSymbolTableRecord
100
AcDbLinetypeTableRecord
2
DASHDOTX2
70
0
3
Dash dot (2x) ____  .  ____  .  ____  .  ___
72
65
73
4
40
50.8
49
25.4
74
0
49
-12.7
74
0
49
0
74
0
49
-12.7
74
0
0
LTYPE
5
3B
330
5
100
AcDbSymbolTableRecord
100
AcDbLinetypeTableRecord
2
DIVIDE
70
0
3
Divide ____ . . ____ . . ____ . . ____ . . ____
72
65
73
6
40
31.75
49
12.7
74
0
49
-6.35
74
0
49
0
74
0
49
-6.35
74
0
49
0
74
0
49
-6.35
74
0
0
LTYPE
5
3C
330
5
100
AcDbSymbolTableRecord
100
AcDbLinetypeTableRecord
2
DIVIDE2
70
0
3
Divide (.5x) __..__..__..__..__..__..__..__.._
72
65
73
6
40
15.875
49
6.35
74
0
49
-3.175
74
0
49
0
74
0
49
-3.175
74
0
49
0
74
0
49
-3.175
74
0
0
LTYPE
5
3D
330
5
100
AcDbSymbolTableRecord
100
AcDbLinetypeTableRecord
2
DIVIDEX2
70
0
3
Divide (2x) ________  .  .  ________  .  .  _
72
65
73
6
40
63.5
49
25.4
74
0
49
-12.7
74
0
49
0
74
0
49
-12.7
74
0
49
0
74
0
49
-12.7
74
0
0
LTYPE
5
3E
330
5
100
AcDbSymbolTableRecord
100
AcDbLinetypeTableRecord
2
BORDER
70
0
3
Border __ __ . __ __ . __ __ . __ __ . __ __ .
72
65
73
6
40
44.45
49
12.7
74
0
49
-6.35
74
0
49
12.7
74
0
49
-6.35
74
0
49
0
74
0
49
-6.35
74
0
0
LTYPE
5
3F
330
5
100
AcDbSymbolTableRecord
100
AcDbLinetypeTableRecord
2
BORDER2
70
0
3
Border (.5x) __.__.__.__.__.__.__.__.__.__.__.
72
65
73
6
40
22.225
49
6.35
74
0
49
-3.175
74
0
49
6.35
74
0
49
-3.175
74
0
49
0
74
0
49
-3.175
74
0
0
LTYPE
5
40
330
5
100
AcDbSymbolTableRecord
100
AcDbLinetypeTableRecord
2
BORDERX2
70
0
3
Border (2x) ____  ____  .  ____  ____  .  ___
72
65
73
6
40
88.9
49
25.4
74
0
49
-12.7
74
0
49
25.4
74
0
49
-12.7
74
0
49
0
74
0
49
-12.7
74
0
0
LTYPE
5
41
330
5
100
AcDbSymbolTableRecord
100
AcDbLinetypeTableRecord
2
CENTER
70
0
3
Center ____ _ ____ _ ____ _ ____ _ ____ _ ____
72
65
73
4
40
50.8
49
31.75
74
0
49
-6.35
74
0
49
6.35
74
0
49
-6.35
74
0
0
LTYPE
5
42
330
5
100
AcDbSymbolTableRecord
100
AcDbLinetypeTableRecord
2
CENTER2
70
0
3
Center (.5x) ___ _ ___ _ ___ _ ___ _ ___ _ ___
72
65
73
4
40
28.575
49
19.05
74
0
49
-3.175
74
0
49
3.175
74
0
49
-3.175
74
0
0
LTYPE
5
43
330
5
100
AcDbSymbolTableRecord
100
AcDbLinetypeTableRecord
2
CENTERX2
70
0
3
Center (2x) ________  __  ________  __  _____
72
65
73
4
40
101.6
49
63.5
74
0
49
-12.7
74
0
49
12.7
74
0
49
-12.7
74
0
0
ENDTAB
0
TABLE
2
LAYER
5
2
330
0
100
AcDbSymbolTable
70
1
0
LAYER
5
10
330
2
100
AcDbSymbolTableRecord
100
AcDbLayerTableRecord
2
0
70
0
62
7
6
CONTINUOUS
370
70
390
F
0
LAYER
5
44
330
2
100
AcDbSymbolTableRecord
100
AcDbLayerTableRecord
2
DIMENSIONS
70
0
62
7
6
CONTINUOUS
370
35
390
F
0
LAYER
5
45
330
2
100
AcDbSymbolTableRecord
100
AcDbLayerTableRecord
2
LOGO
70
0
62
7
6
CONTINUOUS
370
70
390
F
0
LAYER
5
46
330
2
100
AcDbSymbolTableRecord
100
AcDbLayerTableRecord
2
PAPERSIZE
70
0
62
136
6
CONTINUOUS
370
0
390
F
0
ENDTAB
0
TABLE
2
STYLE
5
3
330
0
100
AcDbSymbolTable
70
3
0
STYLE
5
47
330
2
100
AcDbSymbolTableRecord
100
AcDbTextStyleTableRecord
2
Standard
70
0
40
0
41
1
50
0
71
0
42
1
3
txt
4

0
ENDTAB
0
TABLE
2
VIEW
5
6
330
0
100
AcDbSymbolTable
70
0
0
ENDTAB
0
TABLE
2
UCS
5
7
330
0
100
AcDbSymbolTable
70
0
0
ENDTAB
0
TABLE
2
APPID
5
9
330
0
100
AcDbSymbolTable
70
1
0
APPID
5
12
330
9
100
AcDbSymbolTableRecord
100
AcDbRegAppTableRecord
2
ACAD
70
0
0
ENDTAB
0
TABLE
2
DIMSTYLE
5
A
330
0
100
AcDbSymbolTable
70
1
100
AcDbDimStyleTable
71
1
0
DIMSTYLE
105
48
330
A
100
AcDbSymbolTableRecord
100
AcDbDimStyleTableRecord
2
Standard
70
0
40
1
41
5
42
0
43
0.38
44
2
45
0
46
0
47
0
48
0
140
5
141
0.09
142
0
143
25.4
144
1
145
0
146
1
147
1
148
0
71
0
72
0
73
0
74
1
75
0
76
0
77
0
78
0
79
0
170
0
171
2
172
0
173
0
174
0
175
0
176
0
177
0
178
0
179
0
271
4
272
4
273
2
274
2
275
0
276
0
277
2
278
46
279
0
280
0
281
0
282
0
283
1
284
0
285
0
286
0
288
0
289
3
340
Standard
341

371
-2
372
-2
0
ENDTAB
0
TABLE
2
BLOCK_RECORD
5
1
330
0
100
AcDbSymbolTable
70
2
0
BLOCK_RECORD
5
1F
330
1
100
AcDbSymbolTableRecord
100
AcDbBlockTableRecord
2
*Model_Space
0
BLOCK_RECORD
5
1E
330
1
100
AcDbSymbolTableRecord
100
AcDbBlockTableRecord
2
*Paper_Space
0
ENDTAB
0
ENDSEC
0
SECTION
2
BLOCKS
0
BLOCK
5
20
330
1F
100
AcDbEntity
8
0
100
AcDbBlockBegin
2
*Model_Space
70
0
10
0
20
0
30
0
3
*Model_Space
1

0
ENDBLK
5
21
330
1F
100
AcDbEntity
8
0
100
AcDbBlockEnd
0
BLOCK
5
1C
330
1B
100
AcDbEntity
8
0
100
AcDbBlockBegin
2
*Paper_Space
70
0
10
0
20
0
30
0
3
*Paper_Space
1

0
ENDBLK
5
1D
330
1F
100
AcDbEntity
8
0
100
AcDbBlockEnd
999
$blocks
0
ENDSEC
0
SECTION
2
ENTITIES
0
LINE
5
49
100
AcDbEntity
8
PAPERSIZE
6
ByLayer
62
256
370
-1
100
AcDbLine
10
0
20
0
11
5
21
0
0
LINE
5
4A
100
AcDbEntity
8
PAPERSIZE
6
ByLayer
62
256
370
-1
100
AcDbLine
10
0
20
0
11
0
21
-5
0
LINE
5
4B
100
AcDbEntity
8
PAPERSIZE
6
ByLayer
62
256
370
-1
100
AcDbLine
10
1189
20
0
11
1184
21
0
0
LINE
5
4C
100
AcDbEntity
8
PAPERSIZE
6
ByLayer
62
256
370
-1
100
AcDbLine
10
1189
20
0
11
1189
21
-5
0
LINE
5
4D
100
AcDbEntity
8
PAPERSIZE
6
ByLayer
62
256
370
-1
100
AcDbLine
10
0
20
-841
11
5
21
-841
0
LINE
5
4E
100
AcDbEntity
8
PAPERSIZE
6
ByLayer
62
256
370
-1
100
AcDbLine
10
0
20
-841
11
0
21
-836
0
LINE
5
4F
100
AcDbEntity
8
PAPERSIZE
6
ByLayer
62
256
370
-1
100
AcDbLine
10
1189
20
-841
11
1184
21
-841
0
LINE
5
50
100
AcDbEntity
8
PAPERSIZE
6
ByLayer
62
256
370
-1
100
AcDbLine
10
1189
20
-841
11
1189
21
-836
0
LINE
5
51
100
AcDbEntity
8
LOGO
6
ByLayer
62
7
370
-1
100
AcDbLine
10
1131.68433
20
-786.68355
11
1131.68433
21
-786.68505
0
LINE
5
52
100
AcDbEntity
8
LOGO
6
ByLayer
62
7
370
-1
100
AcDbLine
10
1171.158171
20
-798.53766
11
1171.158
21
-798.5376
0
LINE
5
53
100
AcDbEntity
8
LOGO
6
ByLayer
62
7
370
-1
100
AcDbLine
10
1163.43264
20
-806.99607
11
1163.4327
21
-806.9961
0
LINE
5
54
100
AcDbEntity
8
LOGO
6
ByLayer
62
1
370
-1
100
AcDbLine
10
1156
20
-786.706
11
1131.68
21
-786.684
0
LINE
5
55
100
AcDbEntity
8
LOGO
6
ByLayer
62
1
370
-1
100
AcDbLine
10
1156
20
-798.132
11
1156
21
-786.706
0
LINE
5
56
100
AcDbEntity
8
LOGO
6
ByLayer
62
1
370
-1
100
AcDbLine
10
1140.55
20
-798.132
11
1156
21
-798.132
0
LINE
5
57
100
AcDbEntity
8
LOGO
6
ByLayer
62
1
370
-1
100
AcDbLine
10
1140.55
20
-804.755
11
1140.55
21
-798.132
0
LINE
5
58
100
AcDbEntity
8
LOGO
6
ByLayer
62
1
370
-1
100
AcDbLine
10
1146.82
20
-804.755
11
1140.55
21
-804.755
0
LINE
5
59
100
AcDbEntity
8
LOGO
6
ByLayer
62
1
370
-1
100
AcDbLine
10
1146.82
20
-810.89
11
1146.82
21
-804.755
0
LINE
5
5A
100
AcDbEntity
8
LOGO
6
ByLayer
62
1
370
-1
100
AcDbLine
10
1140.55
20
-810.89
11
1146.82
21
-810.89
0
LINE
5
5B
100
AcDbEntity
8
LOGO
6
ByLayer
62
1
370
-1
100
AcDbLine
10
1140.55
20
-826.453
11
1140.55
21
-810.89
0
LINE
5
5C
100
AcDbEntity
8
LOGO
6
ByLayer
62
1
370
-1
100
AcDbLine
10
1131.68
20
-826.453
11
1140.55
21
-826.453
0
LINE
5
5D
100
AcDbEntity
8
LOGO
6
ByLayer
62
1
370
-1
100
AcDbLine
10
1131.68
20
-786.685
11
1131.68
21
-826.453
0
LINE
5
5E
100
AcDbEntity
8
LOGO
6
ByLayer
62
5
370
-1
100
AcDbLine
10
1171.158
20
-798.5376
11
1166.0001
21
-801.49695
0
LINE
5
5F
100
AcDbEntity
8
LOGO
6
ByLayer
62
5
370
-1
100
AcDbLine
10
1166.0001
20
-801.49695
11
1163.72235
21
-800.70651
0
LINE
5
60
100
AcDbEntity
8
LOGO
6
ByLayer
62
5
370
-1
100
AcDbLine
10
1163.72235
20
-800.70651
11
1161.54918
21
-795.15261
0
LINE
5
61
100
AcDbEntity
8
LOGO
6
ByLayer
62
5
370
-1
100
AcDbLine
10
1161.54918
20
-795.15261
11
1158.13068
21
-795.33225
0
LINE
5
62
100
AcDbEntity
8
LOGO
6
ByLayer
62
5
370
-1
100
AcDbLine
10
1158.13068
20
-795.33225
11
1156.5714
21
-801.07545
0
LINE
5
63
100
AcDbEntity
8
LOGO
6
ByLayer
62
5
370
-1
100
AcDbLine
10
1156.5714
20
-801.07545
11
1154.38911
21
-802.1205
0
LINE
5
64
100
AcDbEntity
8
LOGO
6
ByLayer
62
5
370
-1
100
AcDbLine
10
1154.38911
20
-802.1205
11
1148.94621
21
-799.73949
0
LINE
5
65
100
AcDbEntity
8
LOGO
6
ByLayer
62
5
370
-1
100
AcDbLine
10
1148.94621
20
-799.73949
11
1146.64725
21
-802.29417
0
LINE
5
66
100
AcDbEntity
8
LOGO
6
ByLayer
62
5
370
-1
100
AcDbLine
10
1146.64725
20
-802.29417
11
1149.6066
21
-807.45207
0
LINE
5
67
100
AcDbEntity
8
LOGO
6
ByLayer
62
5
370
-1
100
AcDbLine
10
1149.6066
20
-807.45207
11
1148.79789
21
-809.72313
0
LINE
5
68
100
AcDbEntity
8
LOGO
6
ByLayer
62
5
370
-1
100
AcDbLine
10
1148.79789
20
-809.72313
11
1143.24399
21
-811.8963
0
LINE
5
69
100
AcDbEntity
8
LOGO
6
ByLayer
62
5
370
-1
100
AcDbLine
10
1143.24399
20
-811.8963
11
1143.441891
21
-815.3214
0
LINE
5
6A
100
AcDbEntity
8
LOGO
6
ByLayer
62
5
370
-1
100
AcDbLine
10
1143.441891
20
-815.3214
11
1149.185091
21
-816.88068
0
LINE
5
6B
100
AcDbEntity
8
LOGO
6
ByLayer
62
5
370
-1
100
AcDbLine
10
1149.185091
20
-816.88068
11
1150.230141
21
-819.06297
0
LINE
5
6C
100
AcDbEntity
8
LOGO
6
ByLayer
62
5
370
-1
100
AcDbLine
10
1150.230141
20
-819.06297
11
1147.830861
21
-824.49927
0
LINE
5
6D
100
AcDbEntity
8
LOGO
6
ByLayer
62
5
370
-1
100
AcDbLine
10
1147.830861
20
-824.49927
11
1150.385541
21
-826.79823
0
LINE
5
6E
100
AcDbEntity
8
LOGO
6
ByLayer
62
5
370
-1
100
AcDbLine
10
1150.385541
20
-826.79823
11
1155.543441
21
-823.83888
0
LINE
5
6F
100
AcDbEntity
8
LOGO
6
ByLayer
62
5
370
-1
100
AcDbLine
10
1155.543441
20
-823.83888
11
1157.832771
21
-824.65425
0
LINE
5
70
100
AcDbEntity
8
LOGO
6
ByLayer
62
5
370
-1
100
AcDbLine
10
1157.832771
20
-824.65425
11
1159.987671
21
-830.20155
0
LINE
5
71
100
AcDbEntity
8
LOGO
6
ByLayer
62
5
370
-1
100
AcDbLine
10
1159.987671
20
-830.20155
11
1163.431071
21
-830.0103
0
LINE
5
72
100
AcDbEntity
8
LOGO
6
ByLayer
62
5
370
-1
100
AcDbLine
10
1163.431071
20
-830.0103
11
1164.972081
21
-824.2605
0
LINE
5
73
100
AcDbEntity
8
LOGO
6
ByLayer
62
5
370
-1
100
AcDbLine
10
1164.972081
20
-824.2605
11
1167.154371
21
-823.21545
0
LINE
5
74
100
AcDbEntity
8
LOGO
6
ByLayer
62
5
370
-1
100
AcDbLine
10
1167.154371
20
-823.21545
11
1172.608971
21
-825.62139
0
LINE
5
75
100
AcDbEntity
8
LOGO
6
ByLayer
62
5
370
-1
100
AcDbLine
10
1172.608971
20
-825.62139
11
1174.907931
21
-823.06671
0
LINE
5
76
100
AcDbEntity
8
LOGO
6
ByLayer
62
5
370
-1
100
AcDbLine
10
1174.907931
20
-823.06671
11
1171.948581
21
-817.90881
0
LINE
5
77
100
AcDbEntity
8
LOGO
6
ByLayer
62
5
370
-1
100
AcDbLine
10
1171.948581
20
-817.90881
11
1172.745681
21
-815.61282
0
LINE
5
78
100
AcDbEntity
8
LOGO
6
ByLayer
62
5
370
-1
100
AcDbLine
10
1172.745681
20
-815.61282
11
1178.292981
21
-813.45792
0
LINE
5
79
100
AcDbEntity
8
LOGO
6
ByLayer
62
5
370
-1
100
AcDbLine
10
1178.292981
20
-813.45792
11
1178.120001
21
-810.02112
0
LINE
5
7A
100
AcDbEntity
8
LOGO
6
ByLayer
62
5
370
-1
100
AcDbLine
10
1178.120001
20
-810.02112
11
1172.370201
21
-808.48011
0
LINE
5
7B
100
AcDbEntity
8
LOGO
6
ByLayer
62
5
370
-1
100
AcDbLine
10
1172.370201
20
-808.48011
11
1171.325151
21
-806.29782
0
LINE
5
7C
100
AcDbEntity
8
LOGO
6
ByLayer
62
5
370
-1
100
AcDbLine
10
1171.325151
20
-806.29782
11
1173.712851
21
-800.83662
0
LINE
5
7D
100
AcDbEntity
8
LOGO
6
ByLayer
62
5
370
-1
100
AcDbLine
10
1173.712851
20
-800.83662
11
1171.158171
21
-798.53766
0
LINE
5
7E
100
AcDbEntity
8
LOGO
6
ByLayer
62
5
370
-1
100
AcDbLine
10
1163.4327
20
-806.9961
11
1164.49155
21
-807.61044
0
LINE
5
7F
100
AcDbEntity
8
LOGO
6
ByLayer
62
5
370
-1
100
AcDbLine
10
1164.49155
20
-807.61044
11
1165.40892
21
-808.44219
0
LINE
5
80
100
AcDbEntity
8
LOGO
6
ByLayer
62
5
370
-1
100
AcDbLine
10
1165.40892
20
-808.44219
11
1166.14335
21
-809.4348
0
LINE
5
81
100
AcDbEntity
8
LOGO
6
ByLayer
62
5
370
-1
100
AcDbLine
10
1166.67168
20
-810.53841
11
1166.9823
21
-811.72809
0
LINE
5
82
100
AcDbEntity
8
LOGO
6
ByLayer
62
5
370
-1
100
AcDbLine
10
1167.03375
20
-812.94729
11
1166.85765
21
-814.16619
0
LINE
5
83
100
AcDbEntity
8
LOGO
6
ByLayer
62
5
370
-1
100
AcDbLine
10
1166.85765
20
-814.16619
11
1166.45577
21
-815.32332
0
LINE
5
84
100
AcDbEntity
8
LOGO
6
ByLayer
62
5
370
-1
100
AcDbLine
10
1166.45577
20
-815.32332
11
1165.81647
21
-816.39375
0
LINE
5
85
100
AcDbEntity
8
LOGO
6
ByLayer
62
5
370
-1
100
AcDbLine
10
1165.81647
20
-816.39375
11
1165.00965
21
-817.29951
0
LINE
5
86
100
AcDbEntity
8
LOGO
6
ByLayer
62
5
370
-1
100
AcDbLine
10
1165.00965
20
-817.29951
11
1164.01704
21
-818.03394
0
LINE
5
87
100
AcDbEntity
8
LOGO
6
ByLayer
62
5
370
-1
100
AcDbLine
10
1164.01704
20
-818.03394
11
1162.91343
21
-818.56227
0
LINE
5
88
100
AcDbEntity
8
LOGO
6
ByLayer
62
5
370
-1
100
AcDbLine
10
1162.91343
20
-818.56227
11
1161.72375
21
-818.87289
0
LINE
5
89
100
AcDbEntity
8
LOGO
6
ByLayer
62
5
370
-1
100
AcDbLine
10
1161.72375
20
-818.87289
11
1160.49786
21
-818.94264
0
LINE
5
8A
100
AcDbEntity
8
LOGO
6
ByLayer
62
5
370
-1
100
AcDbLine
10
1160.49786
20
-818.94264
11
1159.27896
21
-818.76654
0
LINE
5
8B
100
AcDbEntity
8
LOGO
6
ByLayer
62
5
370
-1
100
AcDbLine
10
1159.27896
20
-818.76654
11
1158.12183
21
-818.36466
0
LINE
5
8C
100
AcDbEntity
8
LOGO
6
ByLayer
62
5
370
-1
100
AcDbLine
10
1158.12183
20
-818.36466
11
1157.0514
21
-817.72536
0
LINE
5
8D
100
AcDbEntity
8
LOGO
6
ByLayer
62
5
370
-1
100
AcDbLine
10
1157.0514
20
-817.72536
11
1156.1523
21
-816.90027
0
LINE
5
8E
100
AcDbEntity
8
LOGO
6
ByLayer
62
5
370
-1
100
AcDbLine
10
1156.1523
20
-816.90027
11
1155.41121
21
-815.92593
0
LINE
5
8F
100
AcDbEntity
8
LOGO
6
ByLayer
62
5
370
-1
100
AcDbLine
10
1155.41121
20
-815.92593
11
1154.88288
21
-814.82232
0
LINE
5
90
100
AcDbEntity
8
LOGO
6
ByLayer
62
5
370
-1
100
AcDbLine
10
1154.88288
20
-814.82232
11
1154.57892
21
-813.6144
0
LINE
5
91
100
AcDbEntity
8
LOGO
6
ByLayer
62
5
370
-1
100
AcDbLine
10
1154.57892
20
-813.6144
11
1154.5092
21
-812.38851
0
LINE
5
92
100
AcDbEntity
8
LOGO
6
ByLayer
62
5
370
-1
100
AcDbLine
10
1154.5092
20
-812.38851
11
1154.68527
21
-811.16961
0
LINE
5
93
100
AcDbEntity
8
LOGO
6
ByLayer
62
5
370
-1
100
AcDbLine
10
1154.68527
20
-811.16961
11
1155.08715
21
-810.01248
0
LINE
5
94
100
AcDbEntity
8
LOGO
6
ByLayer
62
5
370
-1
100
AcDbLine
10
1155.08715
20
-810.01248
11
1155.71976
21
-808.96032
0
LINE
5
95
100
AcDbEntity
8
LOGO
6
ByLayer
62
5
370
-1
100
AcDbLine
10
1155.71976
20
-808.96032
11
1156.53324
21
-808.03629
0
LINE
5
96
100
AcDbEntity
8
LOGO
6
ByLayer
62
5
370
-1
100
AcDbLine
10
1156.53324
20
-808.03629
11
1157.52585
21
-807.30186
0
LINE
5
97
100
AcDbEntity
8
LOGO
6
ByLayer
62
5
370
-1
100
AcDbLine
10
1157.52585
20
-807.30186
11
1158.62946
21
-806.77353
0
LINE
5
98
100
AcDbEntity
8
LOGO
6
ByLayer
62
5
370
-1
100
AcDbLine
10
1158.62946
20
-806.77353
11
1159.83738
21
-806.46957
0
LINE
5
99
100
AcDbEntity
8
LOGO
6
ByLayer
62
5
370
-1
100
AcDbLine
10
1159.83738
20
-806.46957
11
1161.05661
21
-806.41812
0
LINE
5
9A
100
AcDbEntity
8
LOGO
6
ByLayer
62
5
370
-1
100
AcDbLine
10
1161.05661
20
-806.41812
11
1162.27551
21
-806.59419
0
LINE
5
9B
100
AcDbEntity
8
LOGO
6
ByLayer
62
5
370
-1
100
AcDbLine
10
1162.27551
20
-806.59419
11
1163.43264
21
-806.99607
0
LINE
5
9C
100
AcDbEntity
8
LOGO
6
ByLayer
62
5
370
-1
100
AcDbLine
10
1166.98
20
-811.728
11
1167.03
21
-812.947
0
LINE
5
9D
100
AcDbEntity
8
LOGO
6
ByLayer
62
5
370
-1
100
AcDbLine
10
1166.14
20
-809.435
11
1166.67
21
-810.538
999
$entities
0
ENDSEC
0
SECTION
2
OBJECTS
0
DICTIONARY
5
C
330
0
100
AcDbDictionary
281
1
3
ACAD_GROUP
350
D
0
DICTIONARY
5
D
330
C
100
AcDbDictionary
281
1
0
ENDSEC
0
EOF
