999
dxfrw 0.5.11
0
SECTION
2
HEADER
9
$ACADVER
1
AC1015
9
$HANDSEED
5
20000
9
$DWGCODEPAGE
3
ANSI_1250
9
$INSBASE
10
0
20
0
30
0
9
$EXTMIN
10
0
20
-1189
30
0
9
$EXTMAX
10
841
20
0
30
0
9
$LIMMIN
10
0
20
0
9
$LIMMAX
10
420
20
297
9
$ORTHOMODE
70
0
9
$LTSCALE
40
1
9
$TEXTSTYLE
7
STANDARD
9
$CLAYER
8
DIMENSIONS
9
$DIMASZ
40
5
9
$DIMLFAC
40
1
9
$DIMSCALE
40
1
9
$DIMEXO
40
0
9
$DIMEXE
40
2
9
$DIMTXT
40
5
9
$DIMTSZ
40
0
9
$DIMAUNIT
70
0
9
$DIMADEC
70
2
9
$DIMLUNIT
70
2
9
$DIMSTYLE
2
Standard
9
$DIMGAP
40
1
9
$DIMTIH
70
0
9
$LUNITS
70
2
9
$LUPREC
70
2
9
$AUNITS
70
0
9
$AUPREC
70
2
9
$SPLINESEGS
70
8
9
$GRIDMODE
70
0
9
$SNAPSTYLE
70
0
9
$GRIDUNIT
10
0
20
0
9
$PINSBASE
10
0
20
1189
30
0
9
$PLIMMIN
10
0
20
0
9
$PLIMMAX
10
841
20
1189
9
$INSUNITS
70
4
9
$PSVPSCALE
40
1
0
ENDSEC
0
SECTION
2
CLASSES
0
ENDSEC
0
SECTION
2
TABLES
0
TABLE
2
VPORT
5
8
330
0
100
AcDbSymbolTable
70
1
0
VPORT
5
31
330
2
100
AcDbSymbolTableRecord
100
AcDbViewportTableRecord
2
*ACTIVE
70
0
10
0
20
0
11
1
21
1
12
600.328431373
22
8.32633053221
13
0
23
0
14
10
24
10
15
10
25
10
16
0
26
0
36
1
17
0
27
0
37
0
40
1222.30532213
41
1.27384196185
42
50
43
0
44
0
50
0
51
0
71
0
72
100
73
1
74
3
75
0
76
0
77
0
78
0
281
0
65
1
110
0
120
0
130
0
111
1
121
0
131
0
112
0
122
1
132
0
79
0
146
0
0
ENDTAB
0
TABLE
2
LTYPE
5
5
330
0
100
AcDbSymbolTable
70
4
0
LTYPE
5
14
330
5
100
AcDbSymbolTableRecord
100
AcDbLinetypeTableRecord
2
ByBlock
70
0
3

72
65
73
0
40
0
0
LTYPE
5
15
330
5
100
AcDbSymbolTableRecord
100
AcDbLinetypeTableRecord
2
ByLayer
70
0
3

72
65
73
0
40
0
0
LTYPE
5
16
330
5
100
AcDbSymbolTableRecord
100
AcDbLinetypeTableRecord
2
Continuous
70
0
3
Solid line
72
65
73
0
40
0
0
LTYPE
5
32
330
5
100
AcDbSymbolTableRecord
100
AcDbLinetypeTableRecord
2
DOT
70
0
3
Dot . . . . . . . . . . . . . . . . . . . . . .
72
65
73
2
40
6.35
49
0
74
0
49
-6.35
74
0
0
LTYPE
5
33
330
5
100
AcDbSymbolTableRecord
100
AcDbLinetypeTableRecord
2
DOT2
70
0
3
Dot (.5x) .....................................
72
65
73
2
40
3.175
49
0
74
0
49
-3.175
74
0
0
LTYPE
5
34
330
5
100
AcDbSymbolTableRecord
100
AcDbLinetypeTableRecord
2
DOTX2
70
0
3
Dot (2x) .  .  .  .  .  .  .  .  .  .  .  .  .
72
65
73
2
40
12.7
49
0
74
0
49
-12.7
74
0
0
LTYPE
5
35
330
5
100
AcDbSymbolTableRecord
100
AcDbLinetypeTableRecord
2
DASHED
70
0
3
Dot . . . . . . . . . . . . . . . . . . . . . .
72
65
73
2
40
19.05
49
12.7
74
0
49
-6.35
74
0
0
LTYPE
5
36
330
5
100
AcDbSymbolTableRecord
100
AcDbLinetypeTableRecord
2
DASHED2
70
0
3
Dashed (.5x) _ _ _ _ _ _ _ _ _ _ _ _ _ _ _ _ _
72
65
73
2
40
9.525
49
6.35
74
0
49
-3.175
74
0
0
LTYPE
5
37
330
5
100
AcDbSymbolTableRecord
100
AcDbLinetypeTableRecord
2
DASHEDX2
70
0
3
Dashed (2x) ____  ____  ____  ____  ____  ___
72
65
73
2
40
38.1
49
25.4
74
0
49
-12.7
74
0
0
LTYPE
5
38
330
5
100
AcDbSymbolTableRecord
100
AcDbLinetypeTableRecord
2
DASHDOT
70
0
3
Dash dot __ . __ . __ . __ . __ . __ . __ . __
72
65
73
4
40
25.4
49
12.7
74
0
49
-6.35
74
0
49
0
74
0
49
-6.35
74
0
0
LTYPE
5
39
330
5
100
AcDbSymbolTableRecord
100
AcDbLinetypeTableRecord
2
DASHDOT2
70
0
3
Dash dot (.5x) _._._._._._._._._._._._._._._.
72
65
73
4
40
12.7
49
6.35
74
0
49
-3.175
74
0
49
0
74
0
49
-3.175
74
0
0
LTYPE
5
3A
330
5
100
AcDbSymbolTableRecord
100
AcDbLinetypeTableRecord
2
DASHDOTX2
70
0
3
Dash dot (2x) ____  .  ____  .  ____  .  ___
72
65
73
4
40
50.8
49
25.4
74
0
49
-12.7
74
0
49
0
74
0
49
-12.7
74
0
0
LTYPE
5
3B
330
5
100
AcDbSymbolTableRecord
100
AcDbLinetypeTableRecord
2
DIVIDE
70
0
3
Divide ____ . . ____ . . ____ . . ____ . . ____
72
65
73
6
40
31.75
49
12.7
74
0
49
-6.35
74
0
49
0
74
0
49
-6.35
74
0
49
0
74
0
49
-6.35
74
0
0
LTYPE
5
3C
330
5
100
AcDbSymbolTableRecord
100
AcDbLinetypeTableRecord
2
DIVIDE2
70
0
3
Divide (.5x) __..__..__..__..__..__..__..__.._
72
65
73
6
40
15.875
49
6.35
74
0
49
-3.175
74
0
49
0
74
0
49
-3.175
74
0
49
0
74
0
49
-3.175
74
0
0
LTYPE
5
3D
330
5
100
AcDbSymbolTableRecord
100
AcDbLinetypeTableRecord
2
DIVIDEX2
70
0
3
Divide (2x) ________  .  .  ________  .  .  _
72
65
73
6
40
63.5
49
25.4
74
0
49
-12.7
74
0
49
0
74
0
49
-12.7
74
0
49
0
74
0
49
-12.7
74
0
0
LTYPE
5
3E
330
5
100
AcDbSymbolTableRecord
100
AcDbLinetypeTableRecord
2
BORDER
70
0
3
Border __ __ . __ __ . __ __ . __ __ . __ __ .
72
65
73
6
40
44.45
49
12.7
74
0
49
-6.35
74
0
49
12.7
74
0
49
-6.35
74
0
49
0
74
0
49
-6.35
74
0
0
LTYPE
5
3F
330
5
100
AcDbSymbolTableRecord
100
AcDbLinetypeTableRecord
2
BORDER2
70
0
3
Border (.5x) __.__.__.__.__.__.__.__.__.__.__.
72
65
73
6
40
22.225
49
6.35
74
0
49
-3.175
74
0
49
6.35
74
0
49
-3.175
74
0
49
0
74
0
49
-3.175
74
0
0
LTYPE
5
40
330
5
100
AcDbSymbolTableRecord
100
AcDbLinetypeTableRecord
2
BORDERX2
70
0
3
Border (2x) ____  ____  .  ____  ____  .  ___
72
65
73
6
40
88.9
49
25.4
74
0
49
-12.7
74
0
49
25.4
74
0
49
-12.7
74
0
49
0
74
0
49
-12.7
74
0
0
LTYPE
5
41
330
5
100
AcDbSymbolTableRecord
100
AcDbLinetypeTableRecord
2
CENTER
70
0
3
Center ____ _ ____ _ ____ _ ____ _ ____ _ ____
72
65
73
4
40
50.8
49
31.75
74
0
49
-6.35
74
0
49
6.35
74
0
49
-6.35
74
0
0
LTYPE
5
42
330
5
100
AcDbSymbolTableRecord
100
AcDbLinetypeTableRecord
2
CENTER2
70
0
3
Center (.5x) ___ _ ___ _ ___ _ ___ _ ___ _ ___
72
65
73
4
40
28.575
49
19.05
74
0
49
-3.175
74
0
49
3.175
74
0
49
-3.175
74
0
0
LTYPE
5
43
330
5
100
AcDbSymbolTableRecord
100
AcDbLinetypeTableRecord
2
CENTERX2
70
0
3
Center (2x) ________  __  ________  __  _____
72
65
73
4
40
101.6
49
63.5
74
0
49
-12.7
74
0
49
12.7
74
0
49
-12.7
74
0
0
ENDTAB
0
TABLE
2
LAYER
5
2
330
0
100
AcDbSymbolTable
70
1
0
LAYER
5
10
330
2
100
AcDbSymbolTableRecord
100
AcDbLayerTableRecord
2
0
70
0
62
7
6
CONTINUOUS
370
70
390
F
0
LAYER
5
44
330
2
100
AcDbSymbolTableRecord
100
AcDbLayerTableRecord
2
DIMENSIONS
70
0
62
7
6
CONTINUOUS
370
35
390
F
0
LAYER
5
45
330
2
100
AcDbSymbolTableRecord
100
AcDbLayerTableRecord
2
LOGO
70
0
62
7
6
CONTINUOUS
370
70
390
F
0
LAYER
5
46
330
2
100
AcDbSymbolTableRecord
100
AcDbLayerTableRecord
2
PAPERSIZE
70
0
62
136
6
CONTINUOUS
370
0
390
F
0
ENDTAB
0
TABLE
2
STYLE
5
3
330
0
100
AcDbSymbolTable
70
3
0
STYLE
5
47
330
2
100
AcDbSymbolTableRecord
100
AcDbTextStyleTableRecord
2
Standard
70
0
40
0
41
1
50
0
71
0
42
1
3
txt
4

0
ENDTAB
0
TABLE
2
VIEW
5
6
330
0
100
AcDbSymbolTable
70
0
0
ENDTAB
0
TABLE
2
UCS
5
7
330
0
100
AcDbSymbolTable
70
0
0
ENDTAB
0
TABLE
2
APPID
5
9
330
0
100
AcDbSymbolTable
70
1
0
APPID
5
12
330
9
100
AcDbSymbolTableRecord
100
AcDbRegAppTableRecord
2
ACAD
70
0
0
ENDTAB
0
TABLE
2
DIMSTYLE
5
A
330
0
100
AcDbSymbolTable
70
1
100
AcDbDimStyleTable
71
1
0
DIMSTYLE
105
48
330
A
100
AcDbSymbolTableRecord
100
AcDbDimStyleTableRecord
2
Standard
70
0
40
1
41
5
42
0
43
0.38
44
2
45
0
46
0
47
0
48
0
140
5
141
0.09
142
0
143
25.4
144
1
145
0
146
1
147
1
148
0
71
0
72
0
73
0
74
1
75
0
76
0
77
0
78
0
79
0
170
0
171
2
172
0
173
0
174
0
175
0
176
0
177
0
178
0
179
0
271
4
272
4
273
2
274
2
275
0
276
0
277
2
278
46
279
0
280
0
281
0
282
0
283
1
284
0
285
0
286
0
288
0
289
3
340
Standard
341

371
-2
372
-2
0
ENDTAB
0
TABLE
2
BLOCK_RECORD
5
1
330
0
100
AcDbSymbolTable
70
2
0
BLOCK_RECORD
5
1F
330
1
100
AcDbSymbolTableRecord
100
AcDbBlockTableRecord
2
*Model_Space
0
BLOCK_RECORD
5
1E
330
1
100
AcDbSymbolTableRecord
100
AcDbBlockTableRecord
2
*Paper_Space
0
ENDTAB
0
ENDSEC
0
SECTION
2
BLOCKS
0
BLOCK
5
20
330
1F
100
AcDbEntity
8
0
100
AcDbBlockBegin
2
*Model_Space
70
0
10
0
20
0
30
0
3
*Model_Space
1

0
ENDBLK
5
21
330
1F
100
AcDbEntity
8
0
100
AcDbBlockEnd
0
BLOCK
5
1C
330
1B
100
AcDbEntity
8
0
100
AcDbBlockBegin
2
*Paper_Space
70
0
10
0
20
0
30
0
3
*Paper_Space
1

0
ENDBLK
5
1D
330
1F
100
AcDbEntity
8
0
100
AcDbBlockEnd
999
$blocks
0
ENDSEC
0
SECTION
2
ENTITIES
0
LINE
5
49
100
AcDbEntity
8
PAPERSIZE
6
ByLayer
62
256
370
-1
100
AcDbLine
10
0
20
0
11
5
21
0
0
LINE
5
4A
100
AcDbEntity
8
PAPERSIZE
6
ByLayer
62
256
370
-1
100
AcDbLine
10
0
20
0
11
0
21
-5
0
LINE
5
4B
100
AcDbEntity
8
PAPERSIZE
6
ByLayer
62
256
370
-1
100
AcDbLine
10
0
20
-1189
11
5
21
-1189
0
LINE
5
4C
100
AcDbEntity
8
PAPERSIZE
6
ByLayer
62
256
370
-1
100
AcDbLine
10
0
20
-1189
11
0
21
-1184
0
LINE
5
4D
100
AcDbEntity
8
PAPERSIZE
6
ByLayer
62
256
370
-1
100
AcDbLine
10
841
20
-1189
11
836
21
-1189
0
LINE
5
4E
100
AcDbEntity
8
PAPERSIZE
6
ByLayer
62
256
370
-1
100
AcDbLine
10
841
20
-1189
11
841
21
-1184
0
LINE
5
4F
100
AcDbEntity
8
PAPERSIZE
6
ByLayer
62
256
370
-1
100
AcDbLine
10
841
20
0
11
836
21
0
0
LINE
5
50
100
AcDbEntity
8
PAPERSIZE
6
ByLayer
62
256
370
-1
100
AcDbLine
10
841
20
0
11
841
21
-5
0
LINE
5
51
100
AcDbEntity
8
LOGO
6
ByLayer
62
5
370
-1
100
AcDbLine
10
823.158
20
-1146.5376
11
818.0001
21
-1149.49695
0
LINE
5
52
100
AcDbEntity
8
LOGO
6
ByLayer
62
5
370
-1
100
AcDbLine
10
818.0001
20
-1149.49695
11
815.72235
21
-1148.70651
0
LINE
5
53
100
AcDbEntity
8
LOGO
6
ByLayer
62
5
370
-1
100
AcDbLine
10
815.72235
20
-1148.70651
11
813.54918
21
-1143.15261
0
LINE
5
54
100
AcDbEntity
8
LOGO
6
ByLayer
62
5
370
-1
100
AcDbLine
10
813.54918
20
-1143.15261
11
810.13068
21
-1143.33225
0
LINE
5
55
100
AcDbEntity
8
LOGO
6
ByLayer
62
5
370
-1
100
AcDbLine
10
810.13068
20
-1143.33225
11
808.5714
21
-1149.07545
0
LINE
5
56
100
AcDbEntity
8
LOGO
6
ByLayer
62
5
370
-1
100
AcDbLine
10
808.5714
20
-1149.07545
11
806.38911
21
-1150.1205
0
LINE
5
57
100
AcDbEntity
8
LOGO
6
ByLayer
62
5
370
-1
100
AcDbLine
10
806.38911
20
-1150.1205
11
800.94621
21
-1147.73949
0
LINE
5
58
100
AcDbEntity
8
LOGO
6
ByLayer
62
5
370
-1
100
AcDbLine
10
800.94621
20
-1147.73949
11
798.64725
21
-1150.29417
0
LINE
5
59
100
AcDbEntity
8
LOGO
6
ByLayer
62
5
370
-1
100
AcDbLine
10
798.64725
20
-1150.29417
11
801.6066
21
-1155.45207
0
LINE
5
5A
100
AcDbEntity
8
LOGO
6
ByLayer
62
5
370
-1
100
AcDbLine
10
801.6066
20
-1155.45207
11
800.79789
21
-1157.72313
0
LINE
5
5B
100
AcDbEntity
8
LOGO
6
ByLayer
62
5
370
-1
100
AcDbLine
10
795.24399
20
-1159.8963
11
795.441891
21
-1163.3214
0
LINE
5
5C
100
AcDbEntity
8
LOGO
6
ByLayer
62
5
370
-1
100
AcDbLine
10
795.441891
20
-1163.3214
11
801.185091
21
-1164.88068
0
LINE
5
5D
100
AcDbEntity
8
LOGO
6
ByLayer
62
5
370
-1
100
AcDbLine
10
801.185091
20
-1164.88068
11
802.230141
21
-1167.06297
0
LINE
5
5E
100
AcDbEntity
8
LOGO
6
ByLayer
62
5
370
-1
100
AcDbLine
10
802.230141
20
-1167.06297
11
799.830861
21
-1172.49927
0
LINE
5
5F
100
AcDbEntity
8
LOGO
6
ByLayer
62
5
370
-1
100
AcDbLine
10
799.830861
20
-1172.49927
11
802.385541
21
-1174.79823
0
LINE
5
60
100
AcDbEntity
8
LOGO
6
ByLayer
62
5
370
-1
100
AcDbLine
10
802.385541
20
-1174.79823
11
807.543441
21
-1171.83888
0
LINE
5
61
100
AcDbEntity
8
LOGO
6
ByLayer
62
5
370
-1
100
AcDbLine
10
807.543441
20
-1171.83888
11
809.832771
21
-1172.65425
0
LINE
5
62
100
AcDbEntity
8
LOGO
6
ByLayer
62
5
370
-1
100
AcDbLine
10
809.832771
20
-1172.65425
11
811.987671
21
-1178.20155
0
LINE
5
63
100
AcDbEntity
8
LOGO
6
ByLayer
62
5
370
-1
100
AcDbLine
10
811.987671
20
-1178.20155
11
815.431071
21
-1178.0103
0
LINE
5
64
100
AcDbEntity
8
LOGO
6
ByLayer
62
5
370
-1
100
AcDbLine
10
815.431071
20
-1178.0103
11
816.972081
21
-1172.2605
0
LINE
5
65
100
AcDbEntity
8
LOGO
6
ByLayer
62
5
370
-1
100
AcDbLine
10
816.972081
20
-1172.2605
11
819.154371
21
-1171.21545
0
LINE
5
66
100
AcDbEntity
8
LOGO
6
ByLayer
62
5
370
-1
100
AcDbLine
10
819.154371
20
-1171.21545
11
824.608971
21
-1173.62139
0
LINE
5
67
100
AcDbEntity
8
LOGO
6
ByLayer
62
5
370
-1
100
AcDbLine
10
824.608971
20
-1173.62139
11
826.907931
21
-1171.06671
0
LINE
5
68
100
AcDbEntity
8
LOGO
6
ByLayer
62
5
370
-1
100
AcDbLine
10
826.907931
20
-1171.06671
11
823.948581
21
-1165.90881
0
LINE
5
69
100
AcDbEntity
8
LOGO
6
ByLayer
62
5
370
-1
100
AcDbLine
10
823.948581
20
-1165.90881
11
824.745681
21
-1163.61282
0
LINE
5
6A
100
AcDbEntity
8
LOGO
6
ByLayer
62
5
370
-1
100
AcDbLine
10
824.745681
20
-1163.61282
11
830.292981
21
-1161.45792
0
LINE
5
6B
100
AcDbEntity
8
LOGO
6
ByLayer
62
5
370
-1
100
AcDbLine
10
830.292981
20
-1161.45792
11
830.120001
21
-1158.02112
0
LINE
5
6C
100
AcDbEntity
8
LOGO
6
ByLayer
62
5
370
-1
100
AcDbLine
10
830.120001
20
-1158.02112
11
824.370201
21
-1156.48011
0
LINE
5
6D
100
AcDbEntity
8
LOGO
6
ByLayer
62
5
370
-1
100
AcDbLine
10
824.370201
20
-1156.48011
11
823.325151
21
-1154.29782
0
LINE
5
6E
100
AcDbEntity
8
LOGO
6
ByLayer
62
5
370
-1
100
AcDbLine
10
823.325151
20
-1154.29782
11
825.712851
21
-1148.83662
0
LINE
5
6F
100
AcDbEntity
8
LOGO
6
ByLayer
62
5
370
-1
100
AcDbLine
10
825.712851
20
-1148.83662
11
823.158171
21
-1146.53766
0
LINE
5
70
100
AcDbEntity
8
LOGO
6
ByLayer
62
5
370
-1
100
AcDbLine
10
823.158171
20
-1146.53766
11
823.158
21
-1146.5376
0
LINE
5
71
100
AcDbEntity
8
LOGO
6
ByLayer
62
5
370
-1
100
AcDbLine
10
815.4327
20
-1154.9961
11
816.49155
21
-1155.61044
0
LINE
5
72
100
AcDbEntity
8
LOGO
6
ByLayer
62
5
370
-1
100
AcDbLine
10
816.49155
20
-1155.61044
11
817.40892
21
-1156.44219
0
LINE
5
73
100
AcDbEntity
8
LOGO
6
ByLayer
62
5
370
-1
100
AcDbLine
10
817.40892
20
-1156.44219
11
818.14335
21
-1157.4348
0
LINE
5
74
100
AcDbEntity
8
LOGO
6
ByLayer
62
5
370
-1
100
AcDbLine
10
818.14335
20
-1157.4348
11
818.67168
21
-1158.53841
0
LINE
5
75
100
AcDbEntity
8
LOGO
6
ByLayer
62
5
370
-1
100
AcDbLine
10
818.67168
20
-1158.53841
11
818.9823
21
-1159.72809
0
LINE
5
76
100
AcDbEntity
8
LOGO
6
ByLayer
62
5
370
-1
100
AcDbLine
10
818.9823
20
-1159.72809
11
819.03375
21
-1160.94729
0
LINE
5
77
100
AcDbEntity
8
LOGO
6
ByLayer
62
5
370
-1
100
AcDbLine
10
819.03375
20
-1160.94729
11
818.85765
21
-1162.16619
0
LINE
5
78
100
AcDbEntity
8
LOGO
6
ByLayer
62
5
370
-1
100
AcDbLine
10
818.85765
20
-1162.16619
11
818.45577
21
-1163.32332
0
LINE
5
79
100
AcDbEntity
8
LOGO
6
ByLayer
62
5
370
-1
100
AcDbLine
10
818.45577
20
-1163.32332
11
817.81647
21
-1164.39375
0
LINE
5
7A
100
AcDbEntity
8
LOGO
6
ByLayer
62
5
370
-1
100
AcDbLine
10
817.81647
20
-1164.39375
11
817.00965
21
-1165.29951
0
LINE
5
7B
100
AcDbEntity
8
LOGO
6
ByLayer
62
5
370
-1
100
AcDbLine
10
817.00965
20
-1165.29951
11
816.01704
21
-1166.03394
0
LINE
5
7C
100
AcDbEntity
8
LOGO
6
ByLayer
62
5
370
-1
100
AcDbLine
10
816.01704
20
-1166.03394
11
814.91343
21
-1166.56227
0
LINE
5
7D
100
AcDbEntity
8
LOGO
6
ByLayer
62
5
370
-1
100
AcDbLine
10
814.91343
20
-1166.56227
11
813.72375
21
-1166.87289
0
LINE
5
7E
100
AcDbEntity
8
LOGO
6
ByLayer
62
5
370
-1
100
AcDbLine
10
813.72375
20
-1166.87289
11
812.49786
21
-1166.94264
0
LINE
5
7F
100
AcDbEntity
8
LOGO
6
ByLayer
62
5
370
-1
100
AcDbLine
10
812.49786
20
-1166.94264
11
811.27896
21
-1166.76654
0
LINE
5
80
100
AcDbEntity
8
LOGO
6
ByLayer
62
5
370
-1
100
AcDbLine
10
811.27896
20
-1166.76654
11
810.12183
21
-1166.36466
0
LINE
5
81
100
AcDbEntity
8
LOGO
6
ByLayer
62
5
370
-1
100
AcDbLine
10
810.12183
20
-1166.36466
11
809.0514
21
-1165.72536
0
LINE
5
82
100
AcDbEntity
8
LOGO
6
ByLayer
62
5
370
-1
100
AcDbLine
10
809.0514
20
-1165.72536
11
808.1523
21
-1164.90027
0
LINE
5
83
100
AcDbEntity
8
LOGO
6
ByLayer
62
5
370
-1
100
AcDbLine
10
808.1523
20
-1164.90027
11
807.41121
21
-1163.92593
0
LINE
5
84
100
AcDbEntity
8
LOGO
6
ByLayer
62
5
370
-1
100
AcDbLine
10
807.41121
20
-1163.92593
11
806.88288
21
-1162.82232
0
LINE
5
85
100
AcDbEntity
8
LOGO
6
ByLayer
62
5
370
-1
100
AcDbLine
10
806.88288
20
-1162.82232
11
806.57892
21
-1161.6144
0
LINE
5
86
100
AcDbEntity
8
LOGO
6
ByLayer
62
5
370
-1
100
AcDbLine
10
806.57892
20
-1161.6144
11
806.5092
21
-1160.38851
0
LINE
5
87
100
AcDbEntity
8
LOGO
6
ByLayer
62
5
370
-1
100
AcDbLine
10
806.5092
20
-1160.38851
11
806.68527
21
-1159.16961
0
LINE
5
88
100
AcDbEntity
8
LOGO
6
ByLayer
62
5
370
-1
100
AcDbLine
10
806.68527
20
-1159.16961
11
807.08715
21
-1158.01248
0
LINE
5
89
100
AcDbEntity
8
LOGO
6
ByLayer
62
5
370
-1
100
AcDbLine
10
807.08715
20
-1158.01248
11
807.71976
21
-1156.96032
0
LINE
5
8A
100
AcDbEntity
8
LOGO
6
ByLayer
62
5
370
-1
100
AcDbLine
10
807.71976
20
-1156.96032
11
808.53324
21
-1156.03629
0
LINE
5
8B
100
AcDbEntity
8
LOGO
6
ByLayer
62
5
370
-1
100
AcDbLine
10
808.53324
20
-1156.03629
11
809.52585
21
-1155.30186
0
LINE
5
8C
100
AcDbEntity
8
LOGO
6
ByLayer
62
5
370
-1
100
AcDbLine
10
809.52585
20
-1155.30186
11
810.62946
21
-1154.77353
0
LINE
5
8D
100
AcDbEntity
8
LOGO
6
ByLayer
62
5
370
-1
100
AcDbLine
10
810.62946
20
-1154.77353
11
811.83738
21
-1154.46957
0
LINE
5
8E
100
AcDbEntity
8
LOGO
6
ByLayer
62
5
370
-1
100
AcDbLine
10
811.83738
20
-1154.46957
11
813.05661
21
-1154.41812
0
LINE
5
8F
100
AcDbEntity
8
LOGO
6
ByLayer
62
5
370
-1
100
AcDbLine
10
813.05661
20
-1154.41812
11
814.27551
21
-1154.59419
0
LINE
5
90
100
AcDbEntity
8
LOGO
6
ByLayer
62
5
370
-1
100
AcDbLine
10
814.27551
20
-1154.59419
11
815.43264
21
-1154.99607
0
LINE
5
91
100
AcDbEntity
8
LOGO
6
ByLayer
62
5
370
-1
100
AcDbLine
10
815.43264
20
-1154.99607
11
815.4327
21
-1154.9961
0
LINE
5
92
100
AcDbEntity
8
LOGO
6
ByLayer
62
1
370
-1
100
AcDbLine
10
783.68433
20
-1134.68505
11
783.68433
21
-1174.45305
0
LINE
5
93
100
AcDbEntity
8
LOGO
6
ByLayer
62
1
370
-1
100
AcDbLine
10
783.68433
20
-1174.45305
11
792.55173
21
-1174.45305
0
LINE
5
94
100
AcDbEntity
8
LOGO
6
ByLayer
62
1
370
-1
100
AcDbLine
10
792.55173
20
-1174.45305
11
792.55173
21
-1158.89025
0
LINE
5
95
100
AcDbEntity
8
LOGO
6
ByLayer
62
1
370
-1
100
AcDbLine
10
792.55173
20
-1158.89025
11
798.82173
21
-1158.89025
0
LINE
5
96
100
AcDbEntity
8
LOGO
6
ByLayer
62
1
370
-1
100
AcDbLine
10
798.82173
20
-1158.89025
11
798.82173
21
-1152.75465
0
LINE
5
97
100
AcDbEntity
8
LOGO
6
ByLayer
62
1
370
-1
100
AcDbLine
10
798.82173
20
-1152.75465
11
792.55173
21
-1152.75465
0
LINE
5
98
100
AcDbEntity
8
LOGO
6
ByLayer
62
1
370
-1
100
AcDbLine
10
792.55173
20
-1152.75465
11
792.55173
21
-1146.13215
0
LINE
5
99
100
AcDbEntity
8
LOGO
6
ByLayer
62
1
370
-1
100
AcDbLine
10
792.55173
20
-1146.13215
11
807.99753
21
-1146.13215
0
LINE
5
9A
100
AcDbEntity
8
LOGO
6
ByLayer
62
1
370
-1
100
AcDbLine
10
807.99753
20
-1146.13215
11
807.99753
21
-1134.70605
0
LINE
5
9B
100
AcDbEntity
8
LOGO
6
ByLayer
62
1
370
-1
100
AcDbLine
10
807.99753
20
-1134.70605
11
783.68433
21
-1134.68355
0
LINE
5
9C
100
AcDbEntity
8
LOGO
6
ByLayer
62
1
370
-1
100
AcDbLine
10
783.68433
20
-1134.68355
11
783.68433
21
-1134.68505
0
LINE
5
9D
100
AcDbEntity
8
LOGO
6
ByLayer
62
5
370
-1
100
AcDbLine
10
800.798
20
-1157.72
11
795.244
21
-1159.9
999
$entities
0
ENDSEC
0
SECTION
2
OBJECTS
0
DICTIONARY
5
C
330
0
100
AcDbDictionary
281
1
3
ACAD_GROUP
350
D
0
DICTIONARY
5
D
330
C
100
AcDbDictionary
281
1
0
ENDSEC
0
EOF
