999
dxfrw 0.5.11
0
SECTION
2
HEADER
9
$ACADVER
1
AC1015
9
$HANDSEED
5
20000
9
$DWGCODEPAGE
3
ANSI_1250
9
$INSBASE
10
0
20
0
30
0
9
$EXTMIN
10
0
20
-594
30
0
9
$EXTMAX
10
841
20
0
30
0
9
$LIMMIN
10
0
20
0
9
$LIMMAX
10
420
20
297
9
$ORTHOMODE
70
0
9
$LTSCALE
40
1
9
$TEXTSTYLE
7
STANDARD
9
$CLAYER
8
DIMENSIONS
9
$DIMASZ
40
5
9
$DIMLFAC
40
1
9
$DIMSCALE
40
1
9
$DIMEXO
40
0
9
$DIMEXE
40
2
9
$DIMTXT
40
5
9
$DIMTSZ
40
0
9
$DIMAUNIT
70
0
9
$DIMADEC
70
2
9
$DIMLUNIT
70
2
9
$DIMSTYLE
2
Standard
9
$DIMGAP
40
1
9
$DIMTIH
70
0
9
$LUNITS
70
2
9
$LUPREC
70
2
9
$AUNITS
70
0
9
$AUPREC
70
2
9
$SPLINESEGS
70
8
9
$GRIDMODE
70
0
9
$SNAPSTYLE
70
0
9
$GRIDUNIT
10
2.12199999991e-314
20
1.58101006669e-322
9
$PINSBASE
10
0
20
594
30
0
9
$PLIMMIN
10
0
20
0
9
$PLIMMAX
10
841
20
594
9
$INSUNITS
70
4
9
$PSVPSCALE
40
1
0
ENDSEC
0
SECTION
2
CLASSES
0
ENDSEC
0
SECTION
2
TABLES
0
TABLE
2
VPORT
5
8
330
0
100
AcDbSymbolTable
70
1
0
VPORT
5
31
330
2
100
AcDbSymbolTableRecord
100
AcDbViewportTableRecord
2
*ACTIVE
70
0
10
0
20
0
11
1
21
1
12
425.095628415
22
20.2207650273
13
0
23
0
14
10
24
10
15
10
25
10
16
0
26
0
36
1
17
0
27
0
37
0
40
674.638251366
41
1.27384196185
42
50
43
0
44
0
50
0
51
0
71
0
72
100
73
1
74
3
75
0
76
0
77
0
78
0
281
0
65
1
110
0
120
0
130
0
111
1
121
0
131
0
112
0
122
1
132
0
79
0
146
0
0
ENDTAB
0
TABLE
2
LTYPE
5
5
330
0
100
AcDbSymbolTable
70
4
0
LTYPE
5
14
330
5
100
AcDbSymbolTableRecord
100
AcDbLinetypeTableRecord
2
ByBlock
70
0
3

72
65
73
0
40
0
0
LTYPE
5
15
330
5
100
AcDbSymbolTableRecord
100
AcDbLinetypeTableRecord
2
ByLayer
70
0
3

72
65
73
0
40
0
0
LTYPE
5
16
330
5
100
AcDbSymbolTableRecord
100
AcDbLinetypeTableRecord
2
Continuous
70
0
3
Solid line
72
65
73
0
40
0
0
LTYPE
5
32
330
5
100
AcDbSymbolTableRecord
100
AcDbLinetypeTableRecord
2
DOT
70
0
3
Dot . . . . . . . . . . . . . . . . . . . . . .
72
65
73
2
40
6.35
49
0
74
0
49
-6.35
74
0
0
LTYPE
5
33
330
5
100
AcDbSymbolTableRecord
100
AcDbLinetypeTableRecord
2
DOT2
70
0
3
Dot (.5x) .....................................
72
65
73
2
40
3.175
49
0
74
0
49
-3.175
74
0
0
LTYPE
5
34
330
5
100
AcDbSymbolTableRecord
100
AcDbLinetypeTableRecord
2
DOTX2
70
0
3
Dot (2x) .  .  .  .  .  .  .  .  .  .  .  .  .
72
65
73
2
40
12.7
49
0
74
0
49
-12.7
74
0
0
LTYPE
5
35
330
5
100
AcDbSymbolTableRecord
100
AcDbLinetypeTableRecord
2
DASHED
70
0
3
Dot . . . . . . . . . . . . . . . . . . . . . .
72
65
73
2
40
19.05
49
12.7
74
0
49
-6.35
74
0
0
LTYPE
5
36
330
5
100
AcDbSymbolTableRecord
100
AcDbLinetypeTableRecord
2
DASHED2
70
0
3
Dashed (.5x) _ _ _ _ _ _ _ _ _ _ _ _ _ _ _ _ _
72
65
73
2
40
9.525
49
6.35
74
0
49
-3.175
74
0
0
LTYPE
5
37
330
5
100
AcDbSymbolTableRecord
100
AcDbLinetypeTableRecord
2
DASHEDX2
70
0
3
Dashed (2x) ____  ____  ____  ____  ____  ___
72
65
73
2
40
38.1
49
25.4
74
0
49
-12.7
74
0
0
LTYPE
5
38
330
5
100
AcDbSymbolTableRecord
100
AcDbLinetypeTableRecord
2
DASHDOT
70
0
3
Dash dot __ . __ . __ . __ . __ . __ . __ . __
72
65
73
4
40
25.4
49
12.7
74
0
49
-6.35
74
0
49
0
74
0
49
-6.35
74
0
0
LTYPE
5
39
330
5
100
AcDbSymbolTableRecord
100
AcDbLinetypeTableRecord
2
DASHDOT2
70
0
3
Dash dot (.5x) _._._._._._._._._._._._._._._.
72
65
73
4
40
12.7
49
6.35
74
0
49
-3.175
74
0
49
0
74
0
49
-3.175
74
0
0
LTYPE
5
3A
330
5
100
AcDbSymbolTableRecord
100
AcDbLinetypeTableRecord
2
DASHDOTX2
70
0
3
Dash dot (2x) ____  .  ____  .  ____  .  ___
72
65
73
4
40
50.8
49
25.4
74
0
49
-12.7
74
0
49
0
74
0
49
-12.7
74
0
0
LTYPE
5
3B
330
5
100
AcDbSymbolTableRecord
100
AcDbLinetypeTableRecord
2
DIVIDE
70
0
3
Divide ____ . . ____ . . ____ . . ____ . . ____
72
65
73
6
40
31.75
49
12.7
74
0
49
-6.35
74
0
49
0
74
0
49
-6.35
74
0
49
0
74
0
49
-6.35
74
0
0
LTYPE
5
3C
330
5
100
AcDbSymbolTableRecord
100
AcDbLinetypeTableRecord
2
DIVIDE2
70
0
3
Divide (.5x) __..__..__..__..__..__..__..__.._
72
65
73
6
40
15.875
49
6.35
74
0
49
-3.175
74
0
49
0
74
0
49
-3.175
74
0
49
0
74
0
49
-3.175
74
0
0
LTYPE
5
3D
330
5
100
AcDbSymbolTableRecord
100
AcDbLinetypeTableRecord
2
DIVIDEX2
70
0
3
Divide (2x) ________  .  .  ________  .  .  _
72
65
73
6
40
63.5
49
25.4
74
0
49
-12.7
74
0
49
0
74
0
49
-12.7
74
0
49
0
74
0
49
-12.7
74
0
0
LTYPE
5
3E
330
5
100
AcDbSymbolTableRecord
100
AcDbLinetypeTableRecord
2
BORDER
70
0
3
Border __ __ . __ __ . __ __ . __ __ . __ __ .
72
65
73
6
40
44.45
49
12.7
74
0
49
-6.35
74
0
49
12.7
74
0
49
-6.35
74
0
49
0
74
0
49
-6.35
74
0
0
LTYPE
5
3F
330
5
100
AcDbSymbolTableRecord
100
AcDbLinetypeTableRecord
2
BORDER2
70
0
3
Border (.5x) __.__.__.__.__.__.__.__.__.__.__.
72
65
73
6
40
22.225
49
6.35
74
0
49
-3.175
74
0
49
6.35
74
0
49
-3.175
74
0
49
0
74
0
49
-3.175
74
0
0
LTYPE
5
40
330
5
100
AcDbSymbolTableRecord
100
AcDbLinetypeTableRecord
2
BORDERX2
70
0
3
Border (2x) ____  ____  .  ____  ____  .  ___
72
65
73
6
40
88.9
49
25.4
74
0
49
-12.7
74
0
49
25.4
74
0
49
-12.7
74
0
49
0
74
0
49
-12.7
74
0
0
LTYPE
5
41
330
5
100
AcDbSymbolTableRecord
100
AcDbLinetypeTableRecord
2
CENTER
70
0
3
Center ____ _ ____ _ ____ _ ____ _ ____ _ ____
72
65
73
4
40
50.8
49
31.75
74
0
49
-6.35
74
0
49
6.35
74
0
49
-6.35
74
0
0
LTYPE
5
42
330
5
100
AcDbSymbolTableRecord
100
AcDbLinetypeTableRecord
2
CENTER2
70
0
3
Center (.5x) ___ _ ___ _ ___ _ ___ _ ___ _ ___
72
65
73
4
40
28.575
49
19.05
74
0
49
-3.175
74
0
49
3.175
74
0
49
-3.175
74
0
0
LTYPE
5
43
330
5
100
AcDbSymbolTableRecord
100
AcDbLinetypeTableRecord
2
CENTERX2
70
0
3
Center (2x) ________  __  ________  __  _____
72
65
73
4
40
101.6
49
63.5
74
0
49
-12.7
74
0
49
12.7
74
0
49
-12.7
74
0
0
ENDTAB
0
TABLE
2
LAYER
5
2
330
0
100
AcDbSymbolTable
70
1
0
LAYER
5
10
330
2
100
AcDbSymbolTableRecord
100
AcDbLayerTableRecord
2
0
70
0
62
7
6
CONTINUOUS
370
50
390
F
0
LAYER
5
44
330
2
100
AcDbSymbolTableRecord
100
AcDbLayerTableRecord
2
DIMENSIONS
70
0
62
7
6
CONTINUOUS
370
25
390
F
0
LAYER
5
45
330
2
100
AcDbSymbolTableRecord
100
AcDbLayerTableRecord
2
LOGO
70
0
62
7
6
CONTINUOUS
370
50
390
F
0
LAYER
5
46
330
2
100
AcDbSymbolTableRecord
100
AcDbLayerTableRecord
2
PAPERSIZE
70
0
62
136
6
CONTINUOUS
370
0
390
F
0
ENDTAB
0
TABLE
2
STYLE
5
3
330
0
100
AcDbSymbolTable
70
3
0
STYLE
5
47
330
2
100
AcDbSymbolTableRecord
100
AcDbTextStyleTableRecord
2
Standard
70
0
40
0
41
1
50
0
71
0
42
1
3
txt
4

0
ENDTAB
0
TABLE
2
VIEW
5
6
330
0
100
AcDbSymbolTable
70
0
0
ENDTAB
0
TABLE
2
UCS
5
7
330
0
100
AcDbSymbolTable
70
0
0
ENDTAB
0
TABLE
2
APPID
5
9
330
0
100
AcDbSymbolTable
70
1
0
APPID
5
12
330
9
100
AcDbSymbolTableRecord
100
AcDbRegAppTableRecord
2
ACAD
70
0
0
ENDTAB
0
TABLE
2
DIMSTYLE
5
A
330
0
100
AcDbSymbolTable
70
1
100
AcDbDimStyleTable
71
1
0
DIMSTYLE
105
48
330
A
100
AcDbSymbolTableRecord
100
AcDbDimStyleTableRecord
2
Standard
70
0
40
1
41
5
42
0
43
0.38
44
2
45
0
46
0
47
0
48
0
140
5
141
0.09
142
0
143
25.4
144
1
145
0
146
1
147
1
148
0
71
0
72
0
73
0
74
1
75
0
76
0
77
0
78
0
79
0
170
0
171
2
172
0
173
0
174
0
175
0
176
0
177
0
178
0
179
0
271
4
272
4
273
2
274
2
275
0
276
0
277
2
278
46
279
0
280
0
281
0
282
0
283
1
284
0
285
0
286
0
288
0
289
3
340
Standard
341

371
-2
372
-2
0
ENDTAB
0
TABLE
2
BLOCK_RECORD
5
1
330
0
100
AcDbSymbolTable
70
2
0
BLOCK_RECORD
5
1F
330
1
100
AcDbSymbolTableRecord
100
AcDbBlockTableRecord
2
*Model_Space
0
BLOCK_RECORD
5
1E
330
1
100
AcDbSymbolTableRecord
100
AcDbBlockTableRecord
2
*Paper_Space
0
ENDTAB
0
ENDSEC
0
SECTION
2
BLOCKS
0
BLOCK
5
20
330
1F
100
AcDbEntity
8
0
100
AcDbBlockBegin
2
*Model_Space
70
0
10
0
20
0
30
0
3
*Model_Space
1

0
ENDBLK
5
21
330
1F
100
AcDbEntity
8
0
100
AcDbBlockEnd
0
BLOCK
5
1C
330
1B
100
AcDbEntity
8
0
100
AcDbBlockBegin
2
*Paper_Space
70
0
10
0
20
0
30
0
3
*Paper_Space
1

0
ENDBLK
5
1D
330
1F
100
AcDbEntity
8
0
100
AcDbBlockEnd
999
$blocks
0
ENDSEC
0
SECTION
2
ENTITIES
0
LINE
5
49
100
AcDbEntity
8
PAPERSIZE
6
ByLayer
62
256
370
-1
100
AcDbLine
10
0
20
0
11
0
21
-5
0
LINE
5
4A
100
AcDbEntity
8
PAPERSIZE
6
ByLayer
62
256
370
-1
100
AcDbLine
10
0
20
0
11
5
21
0
0
LINE
5
4B
100
AcDbEntity
8
PAPERSIZE
6
ByLayer
62
256
370
-1
100
AcDbLine
10
0
20
-594
11
5
21
-594
0
LINE
5
4C
100
AcDbEntity
8
PAPERSIZE
6
ByLayer
62
256
370
-1
100
AcDbLine
10
0
20
-594
11
0
21
-589
0
LINE
5
4D
100
AcDbEntity
8
PAPERSIZE
6
ByLayer
62
256
370
-1
100
AcDbLine
10
841
20
-594
11
836
21
-594
0
LINE
5
4E
100
AcDbEntity
8
PAPERSIZE
6
ByLayer
62
256
370
-1
100
AcDbLine
10
841
20
-594
11
841
21
-589
0
LINE
5
4F
100
AcDbEntity
8
PAPERSIZE
6
ByLayer
62
256
370
-1
100
AcDbLine
10
841
20
0
11
836
21
0
0
LINE
5
50
100
AcDbEntity
8
PAPERSIZE
6
ByLayer
62
256
370
-1
100
AcDbLine
10
841
20
0
11
841
21
-5
0
LINE
5
51
100
AcDbEntity
8
LOGO
6
ByLayer
62
5
370
-1
100
AcDbLine
10
824.465
20
-556.448
11
820.16675
21
-558.914125
0
LINE
5
52
100
AcDbEntity
8
LOGO
6
ByLayer
62
5
370
-1
100
AcDbLine
10
820.16675
20
-558.914125
11
818.268625
21
-558.255425
0
LINE
5
53
100
AcDbEntity
8
LOGO
6
ByLayer
62
5
370
-1
100
AcDbLine
10
818.268625
20
-558.255425
11
816.45765
21
-553.627175
0
LINE
5
54
100
AcDbEntity
8
LOGO
6
ByLayer
62
5
370
-1
100
AcDbLine
10
816.45765
20
-553.627175
11
813.6089
21
-553.776875
0
LINE
5
55
100
AcDbEntity
8
LOGO
6
ByLayer
62
5
370
-1
100
AcDbLine
10
813.6089
20
-553.776875
11
812.3095
21
-558.562875
0
LINE
5
56
100
AcDbEntity
8
LOGO
6
ByLayer
62
5
370
-1
100
AcDbLine
10
812.3095
20
-558.562875
11
810.490925
21
-559.43375
0
LINE
5
57
100
AcDbEntity
8
LOGO
6
ByLayer
62
5
370
-1
100
AcDbLine
10
810.490925
20
-559.43375
11
805.955175
21
-557.449575
0
LINE
5
58
100
AcDbEntity
8
LOGO
6
ByLayer
62
5
370
-1
100
AcDbLine
10
805.955175
20
-557.449575
11
804.039375
21
-559.578475
0
LINE
5
59
100
AcDbEntity
8
LOGO
6
ByLayer
62
5
370
-1
100
AcDbLine
10
804.039375
20
-559.578475
11
806.5055
21
-563.876725
0
LINE
5
5A
100
AcDbEntity
8
LOGO
6
ByLayer
62
5
370
-1
100
AcDbLine
10
806.5055
20
-563.876725
11
805.831575
21
-565.769275
0
LINE
5
5B
100
AcDbEntity
8
LOGO
6
ByLayer
62
5
370
-1
100
AcDbLine
10
801.203325
20
-567.58025
11
801.368242
21
-570.4345
0
LINE
5
5C
100
AcDbEntity
8
LOGO
6
ByLayer
62
5
370
-1
100
AcDbLine
10
801.368242
20
-570.4345
11
806.154243
21
-571.7339
0
LINE
5
5D
100
AcDbEntity
8
LOGO
6
ByLayer
62
5
370
-1
100
AcDbLine
10
806.154243
20
-571.7339
11
807.025117
21
-573.552475
0
LINE
5
5E
100
AcDbEntity
8
LOGO
6
ByLayer
62
5
370
-1
100
AcDbLine
10
807.025117
20
-573.552475
11
805.025718
21
-578.082725
0
LINE
5
5F
100
AcDbEntity
8
LOGO
6
ByLayer
62
5
370
-1
100
AcDbLine
10
805.025718
20
-578.082725
11
807.154617
21
-579.998525
0
LINE
5
60
100
AcDbEntity
8
LOGO
6
ByLayer
62
5
370
-1
100
AcDbLine
10
807.154617
20
-579.998525
11
811.452868
21
-577.5324
0
LINE
5
61
100
AcDbEntity
8
LOGO
6
ByLayer
62
5
370
-1
100
AcDbLine
10
811.452868
20
-577.5324
11
813.360643
21
-578.211875
0
LINE
5
62
100
AcDbEntity
8
LOGO
6
ByLayer
62
5
370
-1
100
AcDbLine
10
813.360643
20
-578.211875
11
815.156393
21
-582.834625
0
LINE
5
63
100
AcDbEntity
8
LOGO
6
ByLayer
62
5
370
-1
100
AcDbLine
10
815.156393
20
-582.834625
11
818.025892
21
-582.67525
0
LINE
5
64
100
AcDbEntity
8
LOGO
6
ByLayer
62
5
370
-1
100
AcDbLine
10
818.025892
20
-582.67525
11
819.310067
21
-577.88375
0
LINE
5
65
100
AcDbEntity
8
LOGO
6
ByLayer
62
5
370
-1
100
AcDbLine
10
819.310067
20
-577.88375
11
821.128642
21
-577.012875
0
LINE
5
66
100
AcDbEntity
8
LOGO
6
ByLayer
62
5
370
-1
100
AcDbLine
10
821.128642
20
-577.012875
11
825.674143
21
-579.017825
0
LINE
5
67
100
AcDbEntity
8
LOGO
6
ByLayer
62
5
370
-1
100
AcDbLine
10
825.674143
20
-579.017825
11
827.589943
21
-576.888925
0
LINE
5
68
100
AcDbEntity
8
LOGO
6
ByLayer
62
5
370
-1
100
AcDbLine
10
827.589943
20
-576.888925
11
825.123817
21
-572.590675
0
LINE
5
69
100
AcDbEntity
8
LOGO
6
ByLayer
62
5
370
-1
100
AcDbLine
10
825.123817
20
-572.590675
11
825.788068
21
-570.67735
0
LINE
5
6A
100
AcDbEntity
8
LOGO
6
ByLayer
62
5
370
-1
100
AcDbLine
10
825.788068
20
-570.67735
11
830.410818
21
-568.8816
0
LINE
5
6B
100
AcDbEntity
8
LOGO
6
ByLayer
62
5
370
-1
100
AcDbLine
10
830.410818
20
-568.8816
11
830.266668
21
-566.0176
0
LINE
5
6C
100
AcDbEntity
8
LOGO
6
ByLayer
62
5
370
-1
100
AcDbLine
10
830.266668
20
-566.0176
11
825.475167
21
-564.733425
0
LINE
5
6D
100
AcDbEntity
8
LOGO
6
ByLayer
62
5
370
-1
100
AcDbLine
10
825.475167
20
-564.733425
11
824.604293
21
-562.91485
0
LINE
5
6E
100
AcDbEntity
8
LOGO
6
ByLayer
62
5
370
-1
100
AcDbLine
10
824.604293
20
-562.91485
11
826.594043
21
-558.36385
0
LINE
5
6F
100
AcDbEntity
8
LOGO
6
ByLayer
62
5
370
-1
100
AcDbLine
10
826.594043
20
-558.36385
11
824.465142
21
-556.44805
0
LINE
5
70
100
AcDbEntity
8
LOGO
6
ByLayer
62
5
370
-1
100
AcDbLine
10
824.465142
20
-556.44805
11
824.465
21
-556.448
0
LINE
5
71
100
AcDbEntity
8
LOGO
6
ByLayer
62
5
370
-1
100
AcDbLine
10
818.02725
20
-563.49675
11
818.909625
21
-564.0087
0
LINE
5
72
100
AcDbEntity
8
LOGO
6
ByLayer
62
5
370
-1
100
AcDbLine
10
818.909625
20
-564.0087
11
819.6741
21
-564.701825
0
LINE
5
73
100
AcDbEntity
8
LOGO
6
ByLayer
62
5
370
-1
100
AcDbLine
10
819.6741
20
-564.701825
11
820.286125
21
-565.529
0
LINE
5
74
100
AcDbEntity
8
LOGO
6
ByLayer
62
5
370
-1
100
AcDbLine
10
820.286125
20
-565.529
11
820.7264
21
-566.448675
0
LINE
5
75
100
AcDbEntity
8
LOGO
6
ByLayer
62
5
370
-1
100
AcDbLine
10
820.7264
20
-566.448675
11
820.98525
21
-567.440075
0
LINE
5
76
100
AcDbEntity
8
LOGO
6
ByLayer
62
5
370
-1
100
AcDbLine
10
820.98525
20
-567.440075
11
821.028125
21
-568.456075
0
LINE
5
77
100
AcDbEntity
8
LOGO
6
ByLayer
62
5
370
-1
100
AcDbLine
10
821.028125
20
-568.456075
11
820.881375
21
-569.471825
0
LINE
5
78
100
AcDbEntity
8
LOGO
6
ByLayer
62
5
370
-1
100
AcDbLine
10
820.881375
20
-569.471825
11
820.546475
21
-570.4361
0
LINE
5
79
100
AcDbEntity
8
LOGO
6
ByLayer
62
5
370
-1
100
AcDbLine
10
820.546475
20
-570.4361
11
820.013725
21
-571.328125
0
LINE
5
7A
100
AcDbEntity
8
LOGO
6
ByLayer
62
5
370
-1
100
AcDbLine
10
820.013725
20
-571.328125
11
819.341375
21
-572.082925
0
LINE
5
7B
100
AcDbEntity
8
LOGO
6
ByLayer
62
5
370
-1
100
AcDbLine
10
819.341375
20
-572.082925
11
818.5142
21
-572.69495
0
LINE
5
7C
100
AcDbEntity
8
LOGO
6
ByLayer
62
5
370
-1
100
AcDbLine
10
818.5142
20
-572.69495
11
817.594525
21
-573.135225
0
LINE
5
7D
100
AcDbEntity
8
LOGO
6
ByLayer
62
5
370
-1
100
AcDbLine
10
817.594525
20
-573.135225
11
816.603125
21
-573.394075
0
LINE
5
7E
100
AcDbEntity
8
LOGO
6
ByLayer
62
5
370
-1
100
AcDbLine
10
816.603125
20
-573.394075
11
815.58155
21
-573.4522
0
LINE
5
7F
100
AcDbEntity
8
LOGO
6
ByLayer
62
5
370
-1
100
AcDbLine
10
815.58155
20
-573.4522
11
814.5658
21
-573.30545
0
LINE
5
80
100
AcDbEntity
8
LOGO
6
ByLayer
62
5
370
-1
100
AcDbLine
10
814.5658
20
-573.30545
11
813.601525
21
-572.97055
0
LINE
5
81
100
AcDbEntity
8
LOGO
6
ByLayer
62
5
370
-1
100
AcDbLine
10
813.601525
20
-572.97055
11
812.7095
21
-572.4378
0
LINE
5
82
100
AcDbEntity
8
LOGO
6
ByLayer
62
5
370
-1
100
AcDbLine
10
812.7095
20
-572.4378
11
811.96025
21
-571.750225
0
LINE
5
83
100
AcDbEntity
8
LOGO
6
ByLayer
62
5
370
-1
100
AcDbLine
10
811.96025
20
-571.750225
11
811.342675
21
-570.938275
0
LINE
5
84
100
AcDbEntity
8
LOGO
6
ByLayer
62
5
370
-1
100
AcDbLine
10
811.342675
20
-570.938275
11
810.9024
21
-570.0186
0
LINE
5
85
100
AcDbEntity
8
LOGO
6
ByLayer
62
5
370
-1
100
AcDbLine
10
810.9024
20
-570.0186
11
810.6491
21
-569.012
0
LINE
5
86
100
AcDbEntity
8
LOGO
6
ByLayer
62
5
370
-1
100
AcDbLine
10
810.6491
20
-569.012
11
810.591
21
-567.990425
0
LINE
5
87
100
AcDbEntity
8
LOGO
6
ByLayer
62
5
370
-1
100
AcDbLine
10
810.591
20
-567.990425
11
810.737725
21
-566.974675
0
LINE
5
88
100
AcDbEntity
8
LOGO
6
ByLayer
62
5
370
-1
100
AcDbLine
10
810.737725
20
-566.974675
11
811.072625
21
-566.0104
0
LINE
5
89
100
AcDbEntity
8
LOGO
6
ByLayer
62
5
370
-1
100
AcDbLine
10
811.072625
20
-566.0104
11
811.5998
21
-565.1336
0
LINE
5
8A
100
AcDbEntity
8
LOGO
6
ByLayer
62
5
370
-1
100
AcDbLine
10
811.5998
20
-565.1336
11
812.2777
21
-564.363575
0
LINE
5
8B
100
AcDbEntity
8
LOGO
6
ByLayer
62
5
370
-1
100
AcDbLine
10
812.2777
20
-564.363575
11
813.104875
21
-563.75155
0
LINE
5
8C
100
AcDbEntity
8
LOGO
6
ByLayer
62
5
370
-1
100
AcDbLine
10
813.104875
20
-563.75155
11
814.02455
21
-563.311275
0
LINE
5
8D
100
AcDbEntity
8
LOGO
6
ByLayer
62
5
370
-1
100
AcDbLine
10
814.02455
20
-563.311275
11
815.03115
21
-563.057975
0
LINE
5
8E
100
AcDbEntity
8
LOGO
6
ByLayer
62
5
370
-1
100
AcDbLine
10
815.03115
20
-563.057975
11
816.047175
21
-563.0151
0
LINE
5
8F
100
AcDbEntity
8
LOGO
6
ByLayer
62
5
370
-1
100
AcDbLine
10
816.047175
20
-563.0151
11
817.062925
21
-563.161825
0
LINE
5
90
100
AcDbEntity
8
LOGO
6
ByLayer
62
5
370
-1
100
AcDbLine
10
817.062925
20
-563.161825
11
818.0272
21
-563.496725
0
LINE
5
91
100
AcDbEntity
8
LOGO
6
ByLayer
62
5
370
-1
100
AcDbLine
10
818.0272
20
-563.496725
11
818.02725
21
-563.49675
0
LINE
5
92
100
AcDbEntity
8
LOGO
6
ByLayer
62
1
370
-1
100
AcDbLine
10
791.570275
20
-546.570875
11
791.570275
21
-579.710875
0
LINE
5
93
100
AcDbEntity
8
LOGO
6
ByLayer
62
1
370
-1
100
AcDbLine
10
791.570275
20
-579.710875
11
798.959775
21
-579.710875
0
LINE
5
94
100
AcDbEntity
8
LOGO
6
ByLayer
62
1
370
-1
100
AcDbLine
10
798.959775
20
-579.710875
11
798.959775
21
-566.741875
0
LINE
5
95
100
AcDbEntity
8
LOGO
6
ByLayer
62
1
370
-1
100
AcDbLine
10
798.959775
20
-566.741875
11
804.184775
21
-566.741875
0
LINE
5
96
100
AcDbEntity
8
LOGO
6
ByLayer
62
1
370
-1
100
AcDbLine
10
804.184775
20
-566.741875
11
804.184775
21
-561.628875
0
LINE
5
97
100
AcDbEntity
8
LOGO
6
ByLayer
62
1
370
-1
100
AcDbLine
10
804.184775
20
-561.628875
11
798.959775
21
-561.628875
0
LINE
5
98
100
AcDbEntity
8
LOGO
6
ByLayer
62
1
370
-1
100
AcDbLine
10
798.959775
20
-561.628875
11
798.959775
21
-556.110125
0
LINE
5
99
100
AcDbEntity
8
LOGO
6
ByLayer
62
1
370
-1
100
AcDbLine
10
798.959775
20
-556.110125
11
811.831275
21
-556.110125
0
LINE
5
9A
100
AcDbEntity
8
LOGO
6
ByLayer
62
1
370
-1
100
AcDbLine
10
811.831275
20
-556.110125
11
811.831275
21
-546.588375
0
LINE
5
9B
100
AcDbEntity
8
LOGO
6
ByLayer
62
1
370
-1
100
AcDbLine
10
811.831275
20
-546.588375
11
791.570275
21
-546.569625
0
LINE
5
9C
100
AcDbEntity
8
LOGO
6
ByLayer
62
1
370
-1
100
AcDbLine
10
791.570275
20
-546.569625
11
791.570275
21
-546.570875
0
LINE
5
9D
100
AcDbEntity
8
LOGO
6
ByLayer
62
5
370
-1
100
AcDbLine
10
805.832
20
-565.769
11
801.203
21
-567.58
999
$entities
0
ENDSEC
0
SECTION
2
OBJECTS
0
DICTIONARY
5
C
330
0
100
AcDbDictionary
281
1
3
ACAD_GROUP
350
D
0
DICTIONARY
5
D
330
C
100
AcDbDictionary
281
1
0
ENDSEC
0
EOF
