999
dxfrw 0.5.11
0
SECTION
2
HEADER
9
$ACADVER
1
AC1015
9
$HANDSEED
5
20000
9
$DWGCODEPAGE
3
ANSI_1250
9
$INSBASE
10
0
20
0
30
0
9
$EXTMIN
10
0
20
-594
30
0
9
$EXTMAX
10
841
20
0
30
0
9
$LIMMIN
10
0
20
0
9
$LIMMAX
10
420
20
297
9
$ORTHOMODE
70
0
9
$LTSCALE
40
1
9
$TEXTSTYLE
7
STANDARD
9
$CLAYER
8
DIMENSIONS
9
$DIMASZ
40
5
9
$DIMLFAC
40
1
9
$DIMSCALE
40
1
9
$DIMEXO
40
0
9
$DIMEXE
40
2
9
$DIMTXT
40
5
9
$DIMTSZ
40
0
9
$DIMAUNIT
70
0
9
$DIMADEC
70
2
9
$DIMLUNIT
70
2
9
$DIMSTYLE
2
STANDARD
9
$DIMGAP
40
1
9
$DIMTIH
70
0
9
$LUNITS
70
2
9
$LUPREC
70
2
9
$AUNITS
70
0
9
$AUPREC
70
2
9
$SPLINESEGS
70
8
9
$GRIDMODE
70
0
9
$SNAPSTYLE
70
0
9
$GRIDUNIT
10
0
20
0
9
$PINSBASE
10
0
20
594
30
0
9
$PLIMMIN
10
0
20
0
9
$PLIMMAX
10
841
20
594
9
$INSUNITS
70
4
9
$PSVPSCALE
40
1
0
ENDSEC
0
SECTION
2
CLASSES
0
ENDSEC
0
SECTION
2
TABLES
0
TABLE
2
VPORT
5
8
330
0
100
AcDbSymbolTable
70
1
0
VPORT
5
31
330
2
100
AcDbSymbolTableRecord
100
AcDbViewportTableRecord
2
*ACTIVE
70
0
10
0
20
0
11
1
21
1
12
425.095628415
22
17.4633879781
13
0
23
0
14
10
24
10
15
10
25
10
16
0
26
0
36
1
17
0
27
0
37
0
40
662.689617486
41
1.29680998613
42
50
43
0
44
0
50
0
51
0
71
0
72
100
73
1
74
3
75
0
76
0
77
0
78
0
281
0
65
1
110
0
120
0
130
0
111
1
121
0
131
0
112
0
122
1
132
0
79
0
146
0
0
ENDTAB
0
TABLE
2
LTYPE
5
5
330
0
100
AcDbSymbolTable
70
4
0
LTYPE
5
14
330
5
100
AcDbSymbolTableRecord
100
AcDbLinetypeTableRecord
2
ByBlock
70
0
3

72
65
73
0
40
0
0
LTYPE
5
15
330
5
100
AcDbSymbolTableRecord
100
AcDbLinetypeTableRecord
2
ByLayer
70
0
3

72
65
73
0
40
0
0
LTYPE
5
16
330
5
100
AcDbSymbolTableRecord
100
AcDbLinetypeTableRecord
2
Continuous
70
0
3
Solid line
72
65
73
0
40
0
0
LTYPE
5
32
330
5
100
AcDbSymbolTableRecord
100
AcDbLinetypeTableRecord
2
DOT
70
0
3
Dot . . . . . . . . . . . . . . . . . . . . . .
72
65
73
2
40
6.35
49
0
74
0
49
-6.35
74
0
0
LTYPE
5
33
330
5
100
AcDbSymbolTableRecord
100
AcDbLinetypeTableRecord
2
DOT2
70
0
3
Dot (.5x) .....................................
72
65
73
2
40
3.175
49
0
74
0
49
-3.175
74
0
0
LTYPE
5
34
330
5
100
AcDbSymbolTableRecord
100
AcDbLinetypeTableRecord
2
DOTX2
70
0
3
Dot (2x) .  .  .  .  .  .  .  .  .  .  .  .  .
72
65
73
2
40
12.7
49
0
74
0
49
-12.7
74
0
0
LTYPE
5
35
330
5
100
AcDbSymbolTableRecord
100
AcDbLinetypeTableRecord
2
DASHED
70
0
3
Dot . . . . . . . . . . . . . . . . . . . . . .
72
65
73
2
40
19.05
49
12.7
74
0
49
-6.35
74
0
0
LTYPE
5
36
330
5
100
AcDbSymbolTableRecord
100
AcDbLinetypeTableRecord
2
DASHED2
70
0
3
Dashed (.5x) _ _ _ _ _ _ _ _ _ _ _ _ _ _ _ _ _
72
65
73
2
40
9.525
49
6.35
74
0
49
-3.175
74
0
0
LTYPE
5
37
330
5
100
AcDbSymbolTableRecord
100
AcDbLinetypeTableRecord
2
DASHEDX2
70
0
3
Dashed (2x) ____  ____  ____  ____  ____  ___
72
65
73
2
40
38.1
49
25.4
74
0
49
-12.7
74
0
0
LTYPE
5
38
330
5
100
AcDbSymbolTableRecord
100
AcDbLinetypeTableRecord
2
DASHDOT
70
0
3
Dash dot __ . __ . __ . __ . __ . __ . __ . __
72
65
73
4
40
25.4
49
12.7
74
0
49
-6.35
74
0
49
0
74
0
49
-6.35
74
0
0
LTYPE
5
39
330
5
100
AcDbSymbolTableRecord
100
AcDbLinetypeTableRecord
2
DASHDOT2
70
0
3
Dash dot (.5x) _._._._._._._._._._._._._._._.
72
65
73
4
40
12.7
49
6.35
74
0
49
-3.175
74
0
49
0
74
0
49
-3.175
74
0
0
LTYPE
5
3A
330
5
100
AcDbSymbolTableRecord
100
AcDbLinetypeTableRecord
2
DASHDOTX2
70
0
3
Dash dot (2x) ____  .  ____  .  ____  .  ___
72
65
73
4
40
50.8
49
25.4
74
0
49
-12.7
74
0
49
0
74
0
49
-12.7
74
0
0
LTYPE
5
3B
330
5
100
AcDbSymbolTableRecord
100
AcDbLinetypeTableRecord
2
DIVIDE
70
0
3
Divide ____ . . ____ . . ____ . . ____ . . ____
72
65
73
6
40
31.75
49
12.7
74
0
49
-6.35
74
0
49
0
74
0
49
-6.35
74
0
49
0
74
0
49
-6.35
74
0
0
LTYPE
5
3C
330
5
100
AcDbSymbolTableRecord
100
AcDbLinetypeTableRecord
2
DIVIDE2
70
0
3
Divide (.5x) __..__..__..__..__..__..__..__.._
72
65
73
6
40
15.875
49
6.35
74
0
49
-3.175
74
0
49
0
74
0
49
-3.175
74
0
49
0
74
0
49
-3.175
74
0
0
LTYPE
5
3D
330
5
100
AcDbSymbolTableRecord
100
AcDbLinetypeTableRecord
2
DIVIDEX2
70
0
3
Divide (2x) ________  .  .  ________  .  .  _
72
65
73
6
40
63.5
49
25.4
74
0
49
-12.7
74
0
49
0
74
0
49
-12.7
74
0
49
0
74
0
49
-12.7
74
0
0
LTYPE
5
3E
330
5
100
AcDbSymbolTableRecord
100
AcDbLinetypeTableRecord
2
BORDER
70
0
3
Border __ __ . __ __ . __ __ . __ __ . __ __ .
72
65
73
6
40
44.45
49
12.7
74
0
49
-6.35
74
0
49
12.7
74
0
49
-6.35
74
0
49
0
74
0
49
-6.35
74
0
0
LTYPE
5
3F
330
5
100
AcDbSymbolTableRecord
100
AcDbLinetypeTableRecord
2
BORDER2
70
0
3
Border (.5x) __.__.__.__.__.__.__.__.__.__.__.
72
65
73
6
40
22.225
49
6.35
74
0
49
-3.175
74
0
49
6.35
74
0
49
-3.175
74
0
49
0
74
0
49
-3.175
74
0
0
LTYPE
5
40
330
5
100
AcDbSymbolTableRecord
100
AcDbLinetypeTableRecord
2
BORDERX2
70
0
3
Border (2x) ____  ____  .  ____  ____  .  ___
72
65
73
6
40
88.9
49
25.4
74
0
49
-12.7
74
0
49
25.4
74
0
49
-12.7
74
0
49
0
74
0
49
-12.7
74
0
0
LTYPE
5
41
330
5
100
AcDbSymbolTableRecord
100
AcDbLinetypeTableRecord
2
CENTER
70
0
3
Center ____ _ ____ _ ____ _ ____ _ ____ _ ____
72
65
73
4
40
50.8
49
31.75
74
0
49
-6.35
74
0
49
6.35
74
0
49
-6.35
74
0
0
LTYPE
5
42
330
5
100
AcDbSymbolTableRecord
100
AcDbLinetypeTableRecord
2
CENTER2
70
0
3
Center (.5x) ___ _ ___ _ ___ _ ___ _ ___ _ ___
72
65
73
4
40
28.575
49
19.05
74
0
49
-3.175
74
0
49
3.175
74
0
49
-3.175
74
0
0
LTYPE
5
43
330
5
100
AcDbSymbolTableRecord
100
AcDbLinetypeTableRecord
2
CENTERX2
70
0
3
Center (2x) ________  __  ________  __  _____
72
65
73
4
40
101.6
49
63.5
74
0
49
-12.7
74
0
49
12.7
74
0
49
-12.7
74
0
0
ENDTAB
0
TABLE
2
LAYER
5
2
330
0
100
AcDbSymbolTable
70
1
0
LAYER
5
10
330
2
100
AcDbSymbolTableRecord
100
AcDbLayerTableRecord
2
0
70
0
62
7
6
CONTINUOUS
370
50
390
F
0
LAYER
5
44
330
2
100
AcDbSymbolTableRecord
100
AcDbLayerTableRecord
2
BORDER
70
0
62
7
6
CONTINUOUS
370
50
390
F
0
LAYER
5
45
330
2
100
AcDbSymbolTableRecord
100
AcDbLayerTableRecord
2
DIMENSIONS
70
0
62
7
6
CONTINUOUS
370
25
390
F
0
LAYER
5
46
330
2
100
AcDbSymbolTableRecord
100
AcDbLayerTableRecord
2
LOGO
70
0
62
7
6
CONTINUOUS
370
35
390
F
0
LAYER
5
47
330
2
100
AcDbSymbolTableRecord
100
AcDbLayerTableRecord
2
PAPERSIZE
70
0
62
136
6
CONTINUOUS
370
0
390
F
0
LAYER
5
48
330
2
100
AcDbSymbolTableRecord
100
AcDbLayerTableRecord
2
TITLEBLOCK
70
0
62
7
6
CONTINUOUS
370
35
390
F
0
ENDTAB
0
TABLE
2
STYLE
5
3
330
0
100
AcDbSymbolTable
70
3
0
STYLE
5
49
330
2
100
AcDbSymbolTableRecord
100
AcDbTextStyleTableRecord
2
standard
70
0
40
0
41
1
50
0
71
0
42
1
3
standard
4

0
ENDTAB
0
TABLE
2
VIEW
5
6
330
0
100
AcDbSymbolTable
70
0
0
ENDTAB
0
TABLE
2
UCS
5
7
330
0
100
AcDbSymbolTable
70
0
0
ENDTAB
0
TABLE
2
APPID
5
9
330
0
100
AcDbSymbolTable
70
1
0
APPID
5
12
330
9
100
AcDbSymbolTableRecord
100
AcDbRegAppTableRecord
2
ACAD
70
0
0
ENDTAB
0
TABLE
2
DIMSTYLE
5
A
330
0
100
AcDbSymbolTable
70
1
100
AcDbDimStyleTable
71
1
0
DIMSTYLE
105
4A
330
A
100
AcDbSymbolTableRecord
100
AcDbDimStyleTableRecord
2
Standard
70
0
40
1
41
5
42
0
43
0.38
44
2
45
0
46
0
47
0
48
0
140
5
141
0.09
142
0
143
25.4
144
1
145
0
146
1
147
1
148
0
71
0
72
0
73
0
74
1
75
0
76
0
77
0
78
0
79
0
170
0
171
2
172
0
173
0
174
0
175
0
176
0
177
0
178
0
179
0
271
4
272
4
273
2
274
2
275
0
276
0
277
2
278
46
279
0
280
0
281
0
282
0
283
1
284
0
285
0
286
0
288
0
289
3
340
Standard
341

371
-2
372
-2
0
ENDTAB
0
TABLE
2
BLOCK_RECORD
5
1
330
0
100
AcDbSymbolTable
70
2
0
BLOCK_RECORD
5
1F
330
1
100
AcDbSymbolTableRecord
100
AcDbBlockTableRecord
2
*Model_Space
0
BLOCK_RECORD
5
1E
330
1
100
AcDbSymbolTableRecord
100
AcDbBlockTableRecord
2
*Paper_Space
0
ENDTAB
0
ENDSEC
0
SECTION
2
BLOCKS
0
BLOCK
5
20
330
1F
100
AcDbEntity
8
0
100
AcDbBlockBegin
2
*Model_Space
70
0
10
0
20
0
30
0
3
*Model_Space
1

0
ENDBLK
5
21
330
1F
100
AcDbEntity
8
0
100
AcDbBlockEnd
0
BLOCK
5
1C
330
1B
100
AcDbEntity
8
0
100
AcDbBlockBegin
2
*Paper_Space
70
0
10
0
20
0
30
0
3
*Paper_Space
1

0
ENDBLK
5
1D
330
1F
100
AcDbEntity
8
0
100
AcDbBlockEnd
999
$blocks
0
ENDSEC
0
SECTION
2
ENTITIES
0
LINE
5
4B
100
AcDbEntity
8
PAPERSIZE
6
ByLayer
62
256
370
-1
100
AcDbLine
10
0
20
-5
11
0
21
0
0
LINE
5
4C
100
AcDbEntity
8
PAPERSIZE
6
ByLayer
62
256
370
-1
100
AcDbLine
10
0
20
0
11
5
21
0
0
LINE
5
4D
100
AcDbEntity
8
PAPERSIZE
6
ByLayer
62
256
370
-1
100
AcDbLine
10
0
20
-589
11
0
21
-594
0
LINE
5
4E
100
AcDbEntity
8
PAPERSIZE
6
ByLayer
62
256
370
-1
100
AcDbLine
10
0
20
-594
11
5
21
-594
0
LINE
5
4F
100
AcDbEntity
8
PAPERSIZE
6
ByLayer
62
256
370
-1
100
AcDbLine
10
836
20
-594
11
841
21
-594
0
LINE
5
50
100
AcDbEntity
8
PAPERSIZE
6
ByLayer
62
256
370
-1
100
AcDbLine
10
841
20
-594
11
841
21
-589
0
LINE
5
51
100
AcDbEntity
8
PAPERSIZE
6
ByLayer
62
256
370
-1
100
AcDbLine
10
836
20
0
11
841
21
0
0
LINE
5
52
100
AcDbEntity
8
PAPERSIZE
6
ByLayer
62
256
370
-1
100
AcDbLine
10
841
20
0
11
841
21
-5
0
LINE
5
53
100
AcDbEntity
8
BORDER
6
ByLayer
62
7
370
-1
100
AcDbLine
10
20
20
-10
11
831
21
-10
0
LINE
5
54
100
AcDbEntity
8
BORDER
6
ByLayer
62
7
370
-1
100
AcDbLine
10
831
20
-10
11
831
21
-584
0
LINE
5
55
100
AcDbEntity
8
BORDER
6
ByLayer
62
7
370
-1
100
AcDbLine
10
831
20
-584
11
20
21
-584
0
LINE
5
56
100
AcDbEntity
8
BORDER
6
ByLayer
62
7
370
-1
100
AcDbLine
10
20
20
-584
11
20
21
-10
0
LINE
5
57
100
AcDbEntity
8
TITLEBLOCK
6
ByLayer
62
7
370
-1
100
AcDbLine
10
651
20
-524
11
831
21
-524
0
LINE
5
58
100
AcDbEntity
8
TITLEBLOCK
6
ByLayer
62
7
370
-1
100
AcDbLine
10
831
20
-524
11
831
21
-584
0
LINE
5
59
100
AcDbEntity
8
TITLEBLOCK
6
ByLayer
62
7
370
-1
100
AcDbLine
10
831
20
-584
11
651
21
-584
0
LINE
5
5A
100
AcDbEntity
8
TITLEBLOCK
6
ByLayer
62
7
370
-1
100
AcDbLine
10
651
20
-584
11
651
21
-524
0
LINE
5
5B
100
AcDbEntity
8
TITLEBLOCK
6
ByLayer
62
7
370
-1
100
AcDbLine
10
651
20
-536
11
831
21
-536
0
LINE
5
5C
100
AcDbEntity
8
TITLEBLOCK
6
ByLayer
62
7
370
-1
100
AcDbLine
10
711
20
-524
11
711
21
-536
0
LINE
5
5D
100
AcDbEntity
8
TITLEBLOCK
6
ByLayer
62
7
370
-1
100
AcDbLine
10
771
20
-536
11
771
21
-584
0
LINE
5
5E
100
AcDbEntity
8
TITLEBLOCK
6
ByLayer
62
7
370
-1
100
AcDbLine
10
791
20
-536
11
791
21
-548
0
LINE
5
5F
100
AcDbEntity
8
TITLEBLOCK
6
ByLayer
62
7
370
-1
100
AcDbLine
10
811
20
-536
11
811
21
-548
0
LINE
5
60
100
AcDbEntity
8
TITLEBLOCK
6
ByLayer
62
7
370
-1
100
AcDbLine
10
771
20
-548
11
831
21
-548
0
LINE
5
61
100
AcDbEntity
8
TITLEBLOCK
6
ByLayer
62
7
370
-1
100
AcDbLine
10
771
20
-572
11
831
21
-572
0
LINE
5
62
100
AcDbEntity
8
TITLEBLOCK
6
ByLayer
62
7
370
-1
100
AcDbLine
10
811
20
-572
11
811
21
-584
0
LINE
5
63
100
AcDbEntity
8
LOGO
6
ByLayer
62
7
370
-1
100
AcDbLine
10
759.6524
20
-573.15254
11
759.6524
21
-582.00744
0
LINE
5
64
100
AcDbEntity
8
LOGO
6
ByLayer
62
7
370
-1
100
AcDbLine
10
759.6524
20
-582.00744
11
761.6268
21
-582.00744
0
LINE
5
65
100
AcDbEntity
8
LOGO
6
ByLayer
62
7
370
-1
100
AcDbLine
10
761.6268
20
-582.00744
11
761.6268
21
-578.54224
0
LINE
5
66
100
AcDbEntity
8
LOGO
6
ByLayer
62
7
370
-1
100
AcDbLine
10
761.6268
20
-578.54224
11
763.0228
21
-578.54224
0
LINE
5
67
100
AcDbEntity
8
LOGO
6
ByLayer
62
7
370
-1
100
AcDbLine
10
763.0228
20
-578.54224
11
763.0228
21
-577.17614
0
LINE
5
68
100
AcDbEntity
8
LOGO
6
ByLayer
62
7
370
-1
100
AcDbLine
10
763.0228
20
-577.17614
11
761.6268
21
-577.17614
0
LINE
5
69
100
AcDbEntity
8
LOGO
6
ByLayer
62
7
370
-1
100
AcDbLine
10
761.6268
20
-577.17614
11
761.6268
21
-575.70164
0
LINE
5
6A
100
AcDbEntity
8
LOGO
6
ByLayer
62
7
370
-1
100
AcDbLine
10
761.6268
20
-575.70164
11
765.0659
21
-575.70164
0
LINE
5
6B
100
AcDbEntity
8
LOGO
6
ByLayer
62
7
370
-1
100
AcDbLine
10
765.0659
20
-575.70164
11
765.0659
21
-573.15754
0
LINE
5
6C
100
AcDbEntity
8
LOGO
6
ByLayer
62
7
370
-1
100
AcDbLine
10
765.0659
20
-573.15754
11
759.6524
21
-573.15254
0
LINE
5
6D
100
AcDbEntity
8
LOGO
6
ByLayer
62
7
370
-1
100
AcDbLine
10
759.6524
20
-573.15254
11
759.6524
21
-573.15254
0
LINE
5
6E
100
AcDbEntity
8
LOGO
6
ByLayer
62
7
370
-1
100
AcDbLine
10
767.2927
20
-576.4504
11
766.78555
21
-576.2744
0
LINE
5
6F
100
AcDbEntity
8
LOGO
6
ByLayer
62
7
370
-1
100
AcDbLine
10
766.78555
20
-576.2744
11
766.30168
21
-575.0378
0
LINE
5
70
100
AcDbEntity
8
LOGO
6
ByLayer
62
7
370
-1
100
AcDbLine
10
766.30168
20
-575.0378
11
765.54053
21
-575.0778
0
LINE
5
71
100
AcDbEntity
8
LOGO
6
ByLayer
62
7
370
-1
100
AcDbLine
10
765.54053
20
-575.0778
11
765.19335
21
-576.3565
0
LINE
5
72
100
AcDbEntity
8
LOGO
6
ByLayer
62
7
370
-1
100
AcDbLine
10
765.19335
20
-576.3565
11
764.70745
21
-576.58919
0
LINE
5
73
100
AcDbEntity
8
LOGO
6
ByLayer
62
7
370
-1
100
AcDbLine
10
764.70745
20
-576.58919
11
763.49555
21
-576.05904
0
LINE
5
74
100
AcDbEntity
8
LOGO
6
ByLayer
62
7
370
-1
100
AcDbLine
10
763.49555
20
-576.05904
11
762.98367
21
-576.62786
0
LINE
5
75
100
AcDbEntity
8
LOGO
6
ByLayer
62
7
370
-1
100
AcDbLine
10
762.98367
20
-576.62786
11
763.64259
21
-577.77636
0
LINE
5
76
100
AcDbEntity
8
LOGO
6
ByLayer
62
7
370
-1
100
AcDbLine
10
763.64259
20
-577.77636
11
763.46253
21
-578.28203
0
LINE
5
77
100
AcDbEntity
8
LOGO
6
ByLayer
62
7
370
-1
100
AcDbLine
10
763.46253
20
-578.28203
11
762.22593
21
-578.7659
0
LINE
5
78
100
AcDbEntity
8
LOGO
6
ByLayer
62
7
370
-1
100
AcDbLine
10
762.22593
20
-578.7659
11
762.269994
21
-579.52853
0
LINE
5
79
100
AcDbEntity
8
LOGO
6
ByLayer
62
7
370
-1
100
AcDbLine
10
762.269994
20
-579.52853
11
763.548694
21
-579.87571
0
LINE
5
7A
100
AcDbEntity
8
LOGO
6
ByLayer
62
7
370
-1
100
AcDbLine
10
763.548694
20
-579.87571
11
763.781384
21
-580.36161
0
LINE
5
7B
100
AcDbEntity
8
LOGO
6
ByLayer
62
7
370
-1
100
AcDbLine
10
763.781384
20
-580.36161
11
763.247174
21
-581.57201
0
LINE
5
7C
100
AcDbEntity
8
LOGO
6
ByLayer
62
7
370
-1
100
AcDbLine
10
763.247174
20
-581.57201
11
763.815994
21
-582.08389
0
LINE
5
7D
100
AcDbEntity
8
LOGO
6
ByLayer
62
7
370
-1
100
AcDbLine
10
763.815994
20
-582.08389
11
764.964494
21
-581.42498
0
LINE
5
7E
100
AcDbEntity
8
LOGO
6
ByLayer
62
7
370
-1
100
AcDbLine
10
764.964494
20
-581.42498
11
765.474224
21
-581.60653
0
LINE
5
7F
100
AcDbEntity
8
LOGO
6
ByLayer
62
7
370
-1
100
AcDbLine
10
765.474224
20
-581.60653
11
765.954024
21
-582.84163
0
LINE
5
80
100
AcDbEntity
8
LOGO
6
ByLayer
62
7
370
-1
100
AcDbLine
10
765.954024
20
-582.84163
11
766.720724
21
-582.79905
0
LINE
5
81
100
AcDbEntity
8
LOGO
6
ByLayer
62
7
370
-1
100
AcDbLine
10
766.720724
20
-582.79905
11
767.063834
21
-581.51885
0
LINE
5
82
100
AcDbEntity
8
LOGO
6
ByLayer
62
7
370
-1
100
AcDbLine
10
767.063834
20
-581.51885
11
767.549734
21
-581.28616
0
LINE
5
83
100
AcDbEntity
8
LOGO
6
ByLayer
62
7
370
-1
100
AcDbLine
10
767.549734
20
-581.28616
11
768.764234
21
-581.82186
0
LINE
5
84
100
AcDbEntity
8
LOGO
6
ByLayer
62
7
370
-1
100
AcDbLine
10
768.764234
20
-581.82186
11
769.276114
21
-581.25304
0
LINE
5
85
100
AcDbEntity
8
LOGO
6
ByLayer
62
7
370
-1
100
AcDbLine
10
769.276114
20
-581.25304
11
768.617204
21
-580.10454
0
LINE
5
86
100
AcDbEntity
8
LOGO
6
ByLayer
62
7
370
-1
100
AcDbLine
10
768.617204
20
-580.10454
11
768.794684
21
-579.59332
0
LINE
5
87
100
AcDbEntity
8
LOGO
6
ByLayer
62
7
370
-1
100
AcDbLine
10
768.794684
20
-579.59332
11
770.029784
21
-579.11352
0
LINE
5
88
100
AcDbEntity
8
LOGO
6
ByLayer
62
7
370
-1
100
AcDbLine
10
770.029784
20
-579.11352
11
769.991274
21
-578.34831
0
LINE
5
89
100
AcDbEntity
8
LOGO
6
ByLayer
62
7
370
-1
100
AcDbLine
10
769.991274
20
-578.34831
11
768.711074
21
-578.0052
0
LINE
5
8A
100
AcDbEntity
8
LOGO
6
ByLayer
62
7
370
-1
100
AcDbLine
10
768.711074
20
-578.0052
11
768.478384
21
-577.5193
0
LINE
5
8B
100
AcDbEntity
8
LOGO
6
ByLayer
62
7
370
-1
100
AcDbLine
10
768.478384
20
-577.5193
11
769.010014
21
-576.3033
0
LINE
5
8C
100
AcDbEntity
8
LOGO
6
ByLayer
62
7
370
-1
100
AcDbLine
10
769.010014
20
-576.3033
11
768.441204
21
-575.79146
0
LINE
5
8D
100
AcDbEntity
8
LOGO
6
ByLayer
62
7
370
-1
100
AcDbLine
10
768.441204
20
-575.79146
11
767.2927
21
-576.4504
0
LINE
5
8E
100
AcDbEntity
8
LOGO
6
ByLayer
62
7
370
-1
100
AcDbLine
10
766.7212
20
-577.6748
11
766.95696
21
-577.81159
0
LINE
5
8F
100
AcDbEntity
8
LOGO
6
ByLayer
62
7
370
-1
100
AcDbLine
10
766.95696
20
-577.81159
11
767.16122
21
-577.99678
0
LINE
5
90
100
AcDbEntity
8
LOGO
6
ByLayer
62
7
370
-1
100
AcDbLine
10
767.16122
20
-577.99678
11
767.32475
21
-578.21779
0
LINE
5
91
100
AcDbEntity
8
LOGO
6
ByLayer
62
7
370
-1
100
AcDbLine
10
767.32475
20
-578.21779
11
767.44238
21
-578.46351
0
LINE
5
92
100
AcDbEntity
8
LOGO
6
ByLayer
62
7
370
-1
100
AcDbLine
10
767.44238
20
-578.46351
11
767.51154
21
-578.7284
0
LINE
5
93
100
AcDbEntity
8
LOGO
6
ByLayer
62
7
370
-1
100
AcDbLine
10
767.51154
20
-578.7284
11
767.523
21
-578.99986
0
LINE
5
94
100
AcDbEntity
8
LOGO
6
ByLayer
62
7
370
-1
100
AcDbLine
10
767.523
20
-578.99986
11
767.48379
21
-579.27125
0
LINE
5
95
100
AcDbEntity
8
LOGO
6
ByLayer
62
7
370
-1
100
AcDbLine
10
767.48379
20
-579.27125
11
767.39431
21
-579.52889
0
LINE
5
96
100
AcDbEntity
8
LOGO
6
ByLayer
62
7
370
-1
100
AcDbLine
10
767.39431
20
-579.52889
11
767.25197
21
-579.76723
0
LINE
5
97
100
AcDbEntity
8
LOGO
6
ByLayer
62
7
370
-1
100
AcDbLine
10
767.25197
20
-579.76723
11
767.07233
21
-579.9689
0
LINE
5
98
100
AcDbEntity
8
LOGO
6
ByLayer
62
7
370
-1
100
AcDbLine
10
767.07233
20
-579.9689
11
766.85132
21
-580.13243
0
LINE
5
99
100
AcDbEntity
8
LOGO
6
ByLayer
62
7
370
-1
100
AcDbLine
10
766.85132
20
-580.13243
11
766.6056
21
-580.25006
0
LINE
5
9A
100
AcDbEntity
8
LOGO
6
ByLayer
62
7
370
-1
100
AcDbLine
10
766.6056
20
-580.25006
11
766.34071
21
-580.31922
0
LINE
5
9B
100
AcDbEntity
8
LOGO
6
ByLayer
62
7
370
-1
100
AcDbLine
10
766.34071
20
-580.31922
11
766.06776
21
-580.33475
0
LINE
5
9C
100
AcDbEntity
8
LOGO
6
ByLayer
62
7
370
-1
100
AcDbLine
10
766.06776
20
-580.33475
11
765.79586
21
-580.29475
0
LINE
5
9D
100
AcDbEntity
8
LOGO
6
ByLayer
62
7
370
-1
100
AcDbLine
10
765.79586
20
-580.29475
11
765.53826
21
-580.20575
0
LINE
5
9E
100
AcDbEntity
8
LOGO
6
ByLayer
62
7
370
-1
100
AcDbLine
10
765.53826
20
-580.20575
11
765.29996
21
-580.06275
0
LINE
5
9F
100
AcDbEntity
8
LOGO
6
ByLayer
62
7
370
-1
100
AcDbLine
10
765.29996
20
-580.06275
11
765.09976
21
-579.87975
0
LINE
5
A0
100
AcDbEntity
8
LOGO
6
ByLayer
62
7
370
-1
100
AcDbLine
10
765.09976
20
-579.87975
11
764.93476
21
-579.66275
0
LINE
5
A1
100
AcDbEntity
8
LOGO
6
ByLayer
62
7
370
-1
100
AcDbLine
10
764.93476
20
-579.66275
11
764.81706
21
-579.41675
0
LINE
5
A2
100
AcDbEntity
8
LOGO
6
ByLayer
62
7
370
-1
100
AcDbLine
10
764.81706
20
-579.41675
11
764.74946
21
-579.14775
0
LINE
5
A3
100
AcDbEntity
8
LOGO
6
ByLayer
62
7
370
-1
100
AcDbLine
10
764.74946
20
-579.14775
11
764.73386
21
-578.87475
0
LINE
5
A4
100
AcDbEntity
8
LOGO
6
ByLayer
62
7
370
-1
100
AcDbLine
10
764.73386
20
-578.87475
11
764.773066
21
-578.60335
0
LINE
5
A5
100
AcDbEntity
8
LOGO
6
ByLayer
62
7
370
-1
100
AcDbLine
10
764.773066
20
-578.60335
11
764.86255
21
-578.34571
0
LINE
5
A6
100
AcDbEntity
8
LOGO
6
ByLayer
62
7
370
-1
100
AcDbLine
10
764.86255
20
-578.34571
11
765.0034
21
-578.11144
0
LINE
5
A7
100
AcDbEntity
8
LOGO
6
ByLayer
62
7
370
-1
100
AcDbLine
10
765.0034
20
-578.11144
11
765.18453
21
-577.9057
0
LINE
5
A8
100
AcDbEntity
8
LOGO
6
ByLayer
62
7
370
-1
100
AcDbLine
10
765.18453
20
-577.9057
11
765.40554
21
-577.74218
0
LINE
5
A9
100
AcDbEntity
8
LOGO
6
ByLayer
62
7
370
-1
100
AcDbLine
10
765.40554
20
-577.74218
11
765.65126
21
-577.62455
0
LINE
5
AA
100
AcDbEntity
8
LOGO
6
ByLayer
62
7
370
-1
100
AcDbLine
10
765.65126
20
-577.62455
11
765.92021
21
-577.55687
0
LINE
5
AB
100
AcDbEntity
8
LOGO
6
ByLayer
62
7
370
-1
100
AcDbLine
10
765.92021
20
-577.55687
11
766.19168
21
-577.54541
0
LINE
5
AC
100
AcDbEntity
8
LOGO
6
ByLayer
62
7
370
-1
100
AcDbLine
10
766.19168
20
-577.54541
11
766.46307
21
-577.58462
0
LINE
5
AD
100
AcDbEntity
8
LOGO
6
ByLayer
62
7
370
-1
100
AcDbLine
10
766.46307
20
-577.58462
11
766.72071
21
-577.6741
0
LINE
5
AE
100
AcDbEntity
8
LOGO
6
ByLayer
62
7
370
-1
100
AcDbLine
10
766.72071
20
-577.6741
11
766.7212
21
-577.6748
0
TEXT
5
AF
100
AcDbEntity
8
TITLEBLOCK
6
ByLayer
62
256
370
20
100
AcDbText
10
652
20
-527
30
0
40
2.2
1
Created by:
50
0
41
1
51
0
7
standard
71
0
210
0
220
0
230
1
100
AcDbText
0
TEXT
5
B0
100
AcDbEntity
8
TITLEBLOCK
6
ByLayer
62
256
370
20
100
AcDbText
10
652
20
-539
30
0
40
2.2
1
Supplementary information:
50
0
41
1
51
0
7
standard
71
0
210
0
220
0
230
1
100
AcDbText
0
TEXT
5
B1
100
AcDbEntity
8
TITLEBLOCK
6
ByLayer
62
256
370
20
100
AcDbText
10
712
20
-527
30
0
40
2.2
1
Title:
50
0
41
1
51
0
7
standard
71
0
210
0
220
0
230
1
100
AcDbText
0
TEXT
5
B2
100
AcDbEntity
8
TITLEBLOCK
6
ByLayer
62
256
370
20
100
AcDbText
10
772
20
-539
30
0
40
2.2
1
Size:
50
0
41
1
51
0
7
standard
71
0
210
0
220
0
230
1
100
AcDbText
0
TEXT
5
B3
100
AcDbEntity
8
TITLEBLOCK
6
ByLayer
62
256
370
20
100
AcDbText
10
792
20
-539
30
0
40
2.2
1
Sheet:
50
0
41
1
51
0
7
standard
71
0
210
0
220
0
230
1
100
AcDbText
0
TEXT
5
B4
100
AcDbEntity
8
TITLEBLOCK
6
ByLayer
62
256
370
20
100
AcDbText
10
812
20
-539
30
0
40
2.2
1
Scale:
50
0
41
1
51
0
7
standard
71
0
210
0
220
0
230
1
100
AcDbText
0
TEXT
5
B5
100
AcDbEntity
8
TITLEBLOCK
6
ByLayer
62
256
370
20
100
AcDbText
10
772
20
-551
30
0
40
2.2
1
Part number:
50
0
41
1
51
0
7
standard
71
0
210
0
220
0
230
1
100
AcDbText
0
TEXT
5
B6
100
AcDbEntity
8
TITLEBLOCK
6
ByLayer
62
256
370
20
100
AcDbText
10
772
20
-563
30
0
40
2.2
1
Drawing number:
50
0
41
1
51
0
7
standard
71
0
210
0
220
0
230
1
100
AcDbText
0
TEXT
5
B7
100
AcDbEntity
8
TITLEBLOCK
6
ByLayer
62
256
370
20
100
AcDbText
10
772
20
-575
30
0
40
2.2
1
Date:
50
0
41
1
51
0
7
standard
71
0
210
0
220
0
230
1
100
AcDbText
0
TEXT
5
B8
100
AcDbEntity
8
TITLEBLOCK
6
ByLayer
62
256
370
20
100
AcDbText
10
812
20
-575
30
0
40
2.2
1
Revision:
50
0
41
1
51
0
7
standard
71
0
210
0
220
0
230
1
100
AcDbText
0
TEXT
5
B9
100
AcDbEntity
8
TITLEBLOCK
6
ByLayer
62
256
370
35
100
AcDbText
10
681
20
-533
30
0
40
3.7
1
AUTHOR NAME
50
0
41
1
51
0
7
standard
71
0
72
1
11
681
21
-533
31
0
210
0
220
0
230
1
100
AcDbText
0
TEXT
5
BA
100
AcDbEntity
8
TITLEBLOCK
6
ByLayer
62
256
370
35
100
AcDbText
10
771
20
-533
30
0
40
3.7
1
DRAWING TITLE
50
0
41
1
51
0
7
standard
71
0
72
1
11
771
21
-533
31
0
210
0
220
0
230
1
100
AcDbText
0
TEXT
5
BB
100
AcDbEntity
8
TITLEBLOCK
6
ByLayer
62
256
370
35
100
AcDbText
10
711
20
-545
30
0
40
3.7
1
SI-1
50
0
41
1
51
0
7
standard
71
0
72
1
11
711
21
-545
31
0
210
0
220
0
230
1
100
AcDbText
0
TEXT
5
BC
100
AcDbEntity
8
TITLEBLOCK
6
ByLayer
62
256
370
35
100
AcDbText
10
711
20
-552
30
0
40
3.7
1
SI-2
50
0
41
1
51
0
7
standard
71
0
72
1
11
711
21
-552
31
0
210
0
220
0
230
1
100
AcDbText
0
TEXT
5
BD
100
AcDbEntity
8
TITLEBLOCK
6
ByLayer
62
256
370
35
100
AcDbText
10
711
20
-559
30
0
40
3.7
1
FreeCAD DRAWING
50
0
41
1
51
0
7
standard
71
0
72
1
11
711
21
-559
31
0
210
0
220
0
230
1
100
AcDbText
0
TEXT
5
BE
100
AcDbEntity
8
TITLEBLOCK
6
ByLayer
62
256
370
35
100
AcDbText
10
711
20
-566
30
0
40
3.7
1
SI-4
50
0
41
1
51
0
7
standard
71
0
72
1
11
711
21
-566
31
0
210
0
220
0
230
1
100
AcDbText
0
TEXT
5
BF
100
AcDbEntity
8
TITLEBLOCK
6
ByLayer
62
256
370
35
100
AcDbText
10
711
20
-573
30
0
40
3.7
1
SI-5
50
0
41
1
51
0
7
standard
71
0
72
1
11
711
21
-573
31
0
210
0
220
0
230
1
100
AcDbText
0
TEXT
5
C0
100
AcDbEntity
8
TITLEBLOCK
6
ByLayer
62
256
370
35
100
AcDbText
10
711
20
-580
30
0
40
3.7
1
SI-6
50
0
41
1
51
0
7
standard
71
0
72
1
11
711
21
-580
31
0
210
0
220
0
230
1
100
AcDbText
0
TEXT
5
C1
100
AcDbEntity
8
TITLEBLOCK
6
ByLayer
62
256
370
35
100
AcDbText
10
801
20
-557
30
0
40
3.7
1
PN
50
0
41
1
51
0
7
standard
71
0
72
1
11
801
21
-557
31
0
210
0
220
0
230
1
100
AcDbText
0
TEXT
5
C2
100
AcDbEntity
8
TITLEBLOCK
6
ByLayer
62
256
370
35
100
AcDbText
10
801
20
-569
30
0
40
3.7
1
DN
50
0
41
1
51
0
7
standard
71
0
72
1
11
801
21
-569
31
0
210
0
220
0
230
1
100
AcDbText
0
TEXT
5
C3
100
AcDbEntity
8
TITLEBLOCK
6
ByLayer
62
256
370
35
100
AcDbText
10
781
20
-545
30
0
40
3.7
1
FC-SI
50
0
41
1
51
0
7
standard
71
0
72
1
11
781
21
-545
31
0
210
0
220
0
230
1
100
AcDbText
0
TEXT
5
C4
100
AcDbEntity
8
TITLEBLOCK
6
ByLayer
62
256
370
35
100
AcDbText
10
801
20
-545
30
0
40
3.7
1
FC-SH
50
0
41
1
51
0
7
standard
71
0
72
1
11
801
21
-545
31
0
210
0
220
0
230
1
100
AcDbText
0
TEXT
5
C5
100
AcDbEntity
8
TITLEBLOCK
6
ByLayer
62
256
370
35
100
AcDbText
10
821
20
-545
30
0
40
3.7
1
FC-SC
50
0
41
1
51
0
7
standard
71
0
72
1
11
821
21
-545
31
0
210
0
220
0
230
1
100
AcDbText
0
TEXT
5
C6
100
AcDbEntity
8
TITLEBLOCK
6
ByLayer
62
256
370
35
100
AcDbText
10
791
20
-581
30
0
40
3.7
1
FC-DATE
50
0
41
1
51
0
7
standard
71
0
72
1
11
791
21
-581
31
0
210
0
220
0
230
1
100
AcDbText
0
TEXT
5
C7
100
AcDbEntity
8
TITLEBLOCK
6
ByLayer
62
256
370
35
100
AcDbText
10
821
20
-581
30
0
40
3.7
1
FC-REV
50
0
41
1
51
0
7
standard
71
0
72
1
11
821
21
-581
31
0
210
0
220
0
230
1
100
AcDbText
999
$entities
0
ENDSEC
0
SECTION
2
OBJECTS
0
DICTIONARY
5
C
330
0
100
AcDbDictionary
281
1
3
ACAD_GROUP
350
D
0
DICTIONARY
5
D
330
C
100
AcDbDictionary
281
1
0
ENDSEC
0
EOF
