999
dxfrw 0.5.11
0
SECTION
2
HEADER
9
$ACADVER
1
AC1015
9
$HANDSEED
5
20000
9
$DWGCODEPAGE
3
ANSI_1250
9
$INSBASE
10
0
20
0
30
0
9
$EXTMIN
10
0
20
-420
30
0
9
$EXTMAX
10
594
20
0
30
0
9
$LIMMIN
10
0
20
0
9
$LIMMAX
10
420
20
297
9
$ORTHOMODE
70
0
9
$LTSCALE
40
1
9
$TEXTSTYLE
7
STANDARD
9
$CLAYER
8
DIMENSIONS
9
$DIMASZ
40
3.5
9
$DIMLFAC
40
1
9
$DIMSCALE
40
1
9
$DIMEXO
40
0
9
$DIMEXE
40
2
9
$DIMTXT
40
3.5
9
$DIMTSZ
40
0
9
$DIMAUNIT
70
0
9
$DIMADEC
70
2
9
$DIMLUNIT
70
2
9
$DIMSTYLE
2
Standard
9
$DIMGAP
40
1
9
$DIMTIH
70
0
9
$LUNITS
70
2
9
$LUPREC
70
2
9
$AUNITS
70
0
9
$AUPREC
70
2
9
$SPLINESEGS
70
8
9
$GRIDMODE
70
0
9
$SNAPSTYLE
70
0
9
$GRIDUNIT
10
0
20
0
9
$PINSBASE
10
0
20
420
30
0
9
$PLIMMIN
10
0
20
0
9
$PLIMMAX
10
594
20
420
9
$INSUNITS
70
4
9
$PSVPSCALE
40
1
0
ENDSEC
0
SECTION
2
CLASSES
0
ENDSEC
0
SECTION
2
TABLES
0
TABLE
2
VPORT
5
8
330
0
100
AcDbSymbolTable
70
1
0
VPORT
5
31
330
2
100
AcDbSymbolTableRecord
100
AcDbViewportTableRecord
2
*ACTIVE
70
0
10
0
20
0
11
1
21
1
12
300.245901639
22
14.2819672131
13
0
23
0
14
10
24
10
15
10
25
10
16
0
26
0
36
1
17
0
27
0
37
0
40
476.498360656
41
1.27384196185
42
50
43
0
44
0
50
0
51
0
71
0
72
100
73
1
74
3
75
0
76
0
77
0
78
0
281
0
65
1
110
0
120
0
130
0
111
1
121
0
131
0
112
0
122
1
132
0
79
0
146
0
0
ENDTAB
0
TABLE
2
LTYPE
5
5
330
0
100
AcDbSymbolTable
70
4
0
LTYPE
5
14
330
5
100
AcDbSymbolTableRecord
100
AcDbLinetypeTableRecord
2
ByBlock
70
0
3

72
65
73
0
40
0
0
LTYPE
5
15
330
5
100
AcDbSymbolTableRecord
100
AcDbLinetypeTableRecord
2
ByLayer
70
0
3

72
65
73
0
40
0
0
LTYPE
5
16
330
5
100
AcDbSymbolTableRecord
100
AcDbLinetypeTableRecord
2
Continuous
70
0
3
Solid line
72
65
73
0
40
0
0
LTYPE
5
32
330
5
100
AcDbSymbolTableRecord
100
AcDbLinetypeTableRecord
2
DOT
70
0
3
Dot . . . . . . . . . . . . . . . . . . . . . .
72
65
73
2
40
6.35
49
0
74
0
49
-6.35
74
0
0
LTYPE
5
33
330
5
100
AcDbSymbolTableRecord
100
AcDbLinetypeTableRecord
2
DOT2
70
0
3
Dot (.5x) .....................................
72
65
73
2
40
3.175
49
0
74
0
49
-3.175
74
0
0
LTYPE
5
34
330
5
100
AcDbSymbolTableRecord
100
AcDbLinetypeTableRecord
2
DOTX2
70
0
3
Dot (2x) .  .  .  .  .  .  .  .  .  .  .  .  .
72
65
73
2
40
12.7
49
0
74
0
49
-12.7
74
0
0
LTYPE
5
35
330
5
100
AcDbSymbolTableRecord
100
AcDbLinetypeTableRecord
2
DASHED
70
0
3
Dot . . . . . . . . . . . . . . . . . . . . . .
72
65
73
2
40
19.05
49
12.7
74
0
49
-6.35
74
0
0
LTYPE
5
36
330
5
100
AcDbSymbolTableRecord
100
AcDbLinetypeTableRecord
2
DASHED2
70
0
3
Dashed (.5x) _ _ _ _ _ _ _ _ _ _ _ _ _ _ _ _ _
72
65
73
2
40
9.525
49
6.35
74
0
49
-3.175
74
0
0
LTYPE
5
37
330
5
100
AcDbSymbolTableRecord
100
AcDbLinetypeTableRecord
2
DASHEDX2
70
0
3
Dashed (2x) ____  ____  ____  ____  ____  ___
72
65
73
2
40
38.1
49
25.4
74
0
49
-12.7
74
0
0
LTYPE
5
38
330
5
100
AcDbSymbolTableRecord
100
AcDbLinetypeTableRecord
2
DASHDOT
70
0
3
Dash dot __ . __ . __ . __ . __ . __ . __ . __
72
65
73
4
40
25.4
49
12.7
74
0
49
-6.35
74
0
49
0
74
0
49
-6.35
74
0
0
LTYPE
5
39
330
5
100
AcDbSymbolTableRecord
100
AcDbLinetypeTableRecord
2
DASHDOT2
70
0
3
Dash dot (.5x) _._._._._._._._._._._._._._._.
72
65
73
4
40
12.7
49
6.35
74
0
49
-3.175
74
0
49
0
74
0
49
-3.175
74
0
0
LTYPE
5
3A
330
5
100
AcDbSymbolTableRecord
100
AcDbLinetypeTableRecord
2
DASHDOTX2
70
0
3
Dash dot (2x) ____  .  ____  .  ____  .  ___
72
65
73
4
40
50.8
49
25.4
74
0
49
-12.7
74
0
49
0
74
0
49
-12.7
74
0
0
LTYPE
5
3B
330
5
100
AcDbSymbolTableRecord
100
AcDbLinetypeTableRecord
2
DIVIDE
70
0
3
Divide ____ . . ____ . . ____ . . ____ . . ____
72
65
73
6
40
31.75
49
12.7
74
0
49
-6.35
74
0
49
0
74
0
49
-6.35
74
0
49
0
74
0
49
-6.35
74
0
0
LTYPE
5
3C
330
5
100
AcDbSymbolTableRecord
100
AcDbLinetypeTableRecord
2
DIVIDE2
70
0
3
Divide (.5x) __..__..__..__..__..__..__..__.._
72
65
73
6
40
15.875
49
6.35
74
0
49
-3.175
74
0
49
0
74
0
49
-3.175
74
0
49
0
74
0
49
-3.175
74
0
0
LTYPE
5
3D
330
5
100
AcDbSymbolTableRecord
100
AcDbLinetypeTableRecord
2
DIVIDEX2
70
0
3
Divide (2x) ________  .  .  ________  .  .  _
72
65
73
6
40
63.5
49
25.4
74
0
49
-12.7
74
0
49
0
74
0
49
-12.7
74
0
49
0
74
0
49
-12.7
74
0
0
LTYPE
5
3E
330
5
100
AcDbSymbolTableRecord
100
AcDbLinetypeTableRecord
2
BORDER
70
0
3
Border __ __ . __ __ . __ __ . __ __ . __ __ .
72
65
73
6
40
44.45
49
12.7
74
0
49
-6.35
74
0
49
12.7
74
0
49
-6.35
74
0
49
0
74
0
49
-6.35
74
0
0
LTYPE
5
3F
330
5
100
AcDbSymbolTableRecord
100
AcDbLinetypeTableRecord
2
BORDER2
70
0
3
Border (.5x) __.__.__.__.__.__.__.__.__.__.__.
72
65
73
6
40
22.225
49
6.35
74
0
49
-3.175
74
0
49
6.35
74
0
49
-3.175
74
0
49
0
74
0
49
-3.175
74
0
0
LTYPE
5
40
330
5
100
AcDbSymbolTableRecord
100
AcDbLinetypeTableRecord
2
BORDERX2
70
0
3
Border (2x) ____  ____  .  ____  ____  .  ___
72
65
73
6
40
88.9
49
25.4
74
0
49
-12.7
74
0
49
25.4
74
0
49
-12.7
74
0
49
0
74
0
49
-12.7
74
0
0
LTYPE
5
41
330
5
100
AcDbSymbolTableRecord
100
AcDbLinetypeTableRecord
2
CENTER
70
0
3
Center ____ _ ____ _ ____ _ ____ _ ____ _ ____
72
65
73
4
40
50.8
49
31.75
74
0
49
-6.35
74
0
49
6.35
74
0
49
-6.35
74
0
0
LTYPE
5
42
330
5
100
AcDbSymbolTableRecord
100
AcDbLinetypeTableRecord
2
CENTER2
70
0
3
Center (.5x) ___ _ ___ _ ___ _ ___ _ ___ _ ___
72
65
73
4
40
28.575
49
19.05
74
0
49
-3.175
74
0
49
3.175
74
0
49
-3.175
74
0
0
LTYPE
5
43
330
5
100
AcDbSymbolTableRecord
100
AcDbLinetypeTableRecord
2
CENTERX2
70
0
3
Center (2x) ________  __  ________  __  _____
72
65
73
4
40
101.6
49
63.5
74
0
49
-12.7
74
0
49
12.7
74
0
49
-12.7
74
0
0
ENDTAB
0
TABLE
2
LAYER
5
2
330
0
100
AcDbSymbolTable
70
1
0
LAYER
5
10
330
2
100
AcDbSymbolTableRecord
100
AcDbLayerTableRecord
2
0
70
0
62
7
6
CONTINUOUS
370
35
390
F
0
LAYER
5
44
330
2
100
AcDbSymbolTableRecord
100
AcDbLayerTableRecord
2
DIMENSIONS
70
0
62
7
6
CONTINUOUS
370
18
390
F
0
LAYER
5
45
330
2
100
AcDbSymbolTableRecord
100
AcDbLayerTableRecord
2
LOGO
70
0
62
7
6
CONTINUOUS
370
35
390
F
0
LAYER
5
46
330
2
100
AcDbSymbolTableRecord
100
AcDbLayerTableRecord
2
PAPERSIZE
70
0
62
136
6
CONTINUOUS
370
0
390
F
0
ENDTAB
0
TABLE
2
STYLE
5
3
330
0
100
AcDbSymbolTable
70
3
0
STYLE
5
47
330
2
100
AcDbSymbolTableRecord
100
AcDbTextStyleTableRecord
2
Standard
70
0
40
0
41
1
50
0
71
0
42
1
3
txt
4

0
ENDTAB
0
TABLE
2
VIEW
5
6
330
0
100
AcDbSymbolTable
70
0
0
ENDTAB
0
TABLE
2
UCS
5
7
330
0
100
AcDbSymbolTable
70
0
0
ENDTAB
0
TABLE
2
APPID
5
9
330
0
100
AcDbSymbolTable
70
1
0
APPID
5
12
330
9
100
AcDbSymbolTableRecord
100
AcDbRegAppTableRecord
2
ACAD
70
0
0
ENDTAB
0
TABLE
2
DIMSTYLE
5
A
330
0
100
AcDbSymbolTable
70
1
100
AcDbDimStyleTable
71
1
0
DIMSTYLE
105
48
330
A
100
AcDbSymbolTableRecord
100
AcDbDimStyleTableRecord
2
Standard
70
0
40
1
41
3.5
42
0
43
0.38
44
2
45
0
46
0
47
0
48
0
140
3.5
141
0.09
142
0
143
25.4
144
1
145
0
146
1
147
1
148
0
71
0
72
0
73
0
74
1
75
0
76
0
77
0
78
0
79
0
170
0
171
2
172
0
173
0
174
0
175
0
176
0
177
0
178
0
179
0
271
4
272
4
273
2
274
2
275
0
276
0
277
2
278
46
279
0
280
0
281
0
282
0
283
1
284
0
285
0
286
0
288
0
289
3
340
Standard
341

371
-2
372
-2
0
ENDTAB
0
TABLE
2
BLOCK_RECORD
5
1
330
0
100
AcDbSymbolTable
70
2
0
BLOCK_RECORD
5
1F
330
1
100
AcDbSymbolTableRecord
100
AcDbBlockTableRecord
2
*Model_Space
0
BLOCK_RECORD
5
1E
330
1
100
AcDbSymbolTableRecord
100
AcDbBlockTableRecord
2
*Paper_Space
0
ENDTAB
0
ENDSEC
0
SECTION
2
BLOCKS
0
BLOCK
5
20
330
1F
100
AcDbEntity
8
0
100
AcDbBlockBegin
2
*Model_Space
70
0
10
0
20
0
30
0
3
*Model_Space
1

0
ENDBLK
5
21
330
1F
100
AcDbEntity
8
0
100
AcDbBlockEnd
0
BLOCK
5
1C
330
1B
100
AcDbEntity
8
0
100
AcDbBlockBegin
2
*Paper_Space
70
0
10
0
20
0
30
0
3
*Paper_Space
1

0
ENDBLK
5
1D
330
1F
100
AcDbEntity
8
0
100
AcDbBlockEnd
999
$blocks
0
ENDSEC
0
SECTION
2
ENTITIES
0
LINE
5
49
100
AcDbEntity
8
PAPERSIZE
6
ByLayer
62
256
370
-1
100
AcDbLine
10
0
20
0
11
5
21
0
0
LINE
5
4A
100
AcDbEntity
8
PAPERSIZE
6
ByLayer
62
256
370
-1
100
AcDbLine
10
0
20
0
11
0
21
-5
0
LINE
5
4B
100
AcDbEntity
8
PAPERSIZE
6
ByLayer
62
256
370
-1
100
AcDbLine
10
0
20
-420
11
5
21
-420
0
LINE
5
4C
100
AcDbEntity
8
PAPERSIZE
6
ByLayer
62
256
370
-1
100
AcDbLine
10
0
20
-420
11
0
21
-415
0
LINE
5
4D
100
AcDbEntity
8
PAPERSIZE
6
ByLayer
62
256
370
-1
100
AcDbLine
10
594
20
-420
11
589
21
-420
0
LINE
5
4E
100
AcDbEntity
8
PAPERSIZE
6
ByLayer
62
256
370
-1
100
AcDbLine
10
594
20
-420
11
594
21
-415
0
LINE
5
4F
100
AcDbEntity
8
PAPERSIZE
6
ByLayer
62
256
370
-1
100
AcDbLine
10
594
20
0
11
589
21
0
0
LINE
5
50
100
AcDbEntity
8
PAPERSIZE
6
ByLayer
62
256
370
-1
100
AcDbLine
10
594
20
0
11
594
21
-5
0
LINE
5
51
100
AcDbEntity
8
LOGO
6
ByLayer
62
5
370
-1
100
AcDbLine
10
578.772
20
-388.3584
11
575.3334
21
-390.3313
0
LINE
5
52
100
AcDbEntity
8
LOGO
6
ByLayer
62
5
370
-1
100
AcDbLine
10
575.3334
20
-390.3313
11
573.8149
21
-389.80434
0
LINE
5
53
100
AcDbEntity
8
LOGO
6
ByLayer
62
5
370
-1
100
AcDbLine
10
573.8149
20
-389.80434
11
572.36612
21
-386.10174
0
LINE
5
54
100
AcDbEntity
8
LOGO
6
ByLayer
62
5
370
-1
100
AcDbLine
10
572.36612
20
-386.10174
11
570.08712
21
-386.2215
0
LINE
5
55
100
AcDbEntity
8
LOGO
6
ByLayer
62
5
370
-1
100
AcDbLine
10
570.08712
20
-386.2215
11
569.0476
21
-390.0503
0
LINE
5
56
100
AcDbEntity
8
LOGO
6
ByLayer
62
5
370
-1
100
AcDbLine
10
569.0476
20
-390.0503
11
567.59274
21
-390.747
0
LINE
5
57
100
AcDbEntity
8
LOGO
6
ByLayer
62
5
370
-1
100
AcDbLine
10
567.59274
20
-390.747
11
563.96414
21
-389.15966
0
LINE
5
58
100
AcDbEntity
8
LOGO
6
ByLayer
62
5
370
-1
100
AcDbLine
10
563.96414
20
-389.15966
11
562.4315
21
-390.86278
0
LINE
5
59
100
AcDbEntity
8
LOGO
6
ByLayer
62
5
370
-1
100
AcDbLine
10
562.4315
20
-390.86278
11
564.4044
21
-394.30138
0
LINE
5
5A
100
AcDbEntity
8
LOGO
6
ByLayer
62
5
370
-1
100
AcDbLine
10
564.4044
20
-394.30138
11
563.86526
21
-395.81542
0
LINE
5
5B
100
AcDbEntity
8
LOGO
6
ByLayer
62
5
370
-1
100
AcDbLine
10
560.16266
20
-397.2642
11
560.294594
21
-399.5476
0
LINE
5
5C
100
AcDbEntity
8
LOGO
6
ByLayer
62
5
370
-1
100
AcDbLine
10
560.294594
20
-399.5476
11
564.123394
21
-400.58712
0
LINE
5
5D
100
AcDbEntity
8
LOGO
6
ByLayer
62
5
370
-1
100
AcDbLine
10
564.123394
20
-400.58712
11
564.820094
21
-402.04198
0
LINE
5
5E
100
AcDbEntity
8
LOGO
6
ByLayer
62
5
370
-1
100
AcDbLine
10
564.820094
20
-402.04198
11
563.220574
21
-405.66618
0
LINE
5
5F
100
AcDbEntity
8
LOGO
6
ByLayer
62
5
370
-1
100
AcDbLine
10
563.220574
20
-405.66618
11
564.923694
21
-407.19882
0
LINE
5
60
100
AcDbEntity
8
LOGO
6
ByLayer
62
5
370
-1
100
AcDbLine
10
564.923694
20
-407.19882
11
568.362294
21
-405.22592
0
LINE
5
61
100
AcDbEntity
8
LOGO
6
ByLayer
62
5
370
-1
100
AcDbLine
10
568.362294
20
-405.22592
11
569.888514
21
-405.7695
0
LINE
5
62
100
AcDbEntity
8
LOGO
6
ByLayer
62
5
370
-1
100
AcDbLine
10
569.888514
20
-405.7695
11
571.325114
21
-409.4677
0
LINE
5
63
100
AcDbEntity
8
LOGO
6
ByLayer
62
5
370
-1
100
AcDbLine
10
571.325114
20
-409.4677
11
573.620714
21
-409.3402
0
LINE
5
64
100
AcDbEntity
8
LOGO
6
ByLayer
62
5
370
-1
100
AcDbLine
10
573.620714
20
-409.3402
11
574.648054
21
-405.507
0
LINE
5
65
100
AcDbEntity
8
LOGO
6
ByLayer
62
5
370
-1
100
AcDbLine
10
574.648054
20
-405.507
11
576.102914
21
-404.8103
0
LINE
5
66
100
AcDbEntity
8
LOGO
6
ByLayer
62
5
370
-1
100
AcDbLine
10
576.102914
20
-404.8103
11
579.739314
21
-406.41426
0
LINE
5
67
100
AcDbEntity
8
LOGO
6
ByLayer
62
5
370
-1
100
AcDbLine
10
579.739314
20
-406.41426
11
581.271954
21
-404.71114
0
LINE
5
68
100
AcDbEntity
8
LOGO
6
ByLayer
62
5
370
-1
100
AcDbLine
10
581.271954
20
-404.71114
11
579.299054
21
-401.27254
0
LINE
5
69
100
AcDbEntity
8
LOGO
6
ByLayer
62
5
370
-1
100
AcDbLine
10
579.299054
20
-401.27254
11
579.830454
21
-399.74188
0
LINE
5
6A
100
AcDbEntity
8
LOGO
6
ByLayer
62
5
370
-1
100
AcDbLine
10
579.830454
20
-399.74188
11
583.528654
21
-398.30528
0
LINE
5
6B
100
AcDbEntity
8
LOGO
6
ByLayer
62
5
370
-1
100
AcDbLine
10
583.528654
20
-398.30528
11
583.413334
21
-396.01408
0
LINE
5
6C
100
AcDbEntity
8
LOGO
6
ByLayer
62
5
370
-1
100
AcDbLine
10
583.413334
20
-396.01408
11
579.580134
21
-394.98674
0
LINE
5
6D
100
AcDbEntity
8
LOGO
6
ByLayer
62
5
370
-1
100
AcDbLine
10
579.580134
20
-394.98674
11
578.883434
21
-393.53188
0
LINE
5
6E
100
AcDbEntity
8
LOGO
6
ByLayer
62
5
370
-1
100
AcDbLine
10
578.883434
20
-393.53188
11
580.475234
21
-389.89108
0
LINE
5
6F
100
AcDbEntity
8
LOGO
6
ByLayer
62
5
370
-1
100
AcDbLine
10
580.475234
20
-389.89108
11
578.772114
21
-388.35844
0
LINE
5
70
100
AcDbEntity
8
LOGO
6
ByLayer
62
5
370
-1
100
AcDbLine
10
578.772114
20
-388.35844
11
578.772
21
-388.3584
0
LINE
5
71
100
AcDbEntity
8
LOGO
6
ByLayer
62
5
370
-1
100
AcDbLine
10
573.6218
20
-393.9974
11
574.3277
21
-394.40696
0
LINE
5
72
100
AcDbEntity
8
LOGO
6
ByLayer
62
5
370
-1
100
AcDbLine
10
574.3277
20
-394.40696
11
574.93928
21
-394.96146
0
LINE
5
73
100
AcDbEntity
8
LOGO
6
ByLayer
62
5
370
-1
100
AcDbLine
10
574.93928
20
-394.96146
11
575.4289
21
-395.6232
0
LINE
5
74
100
AcDbEntity
8
LOGO
6
ByLayer
62
5
370
-1
100
AcDbLine
10
575.4289
20
-395.6232
11
575.78112
21
-396.35894
0
LINE
5
75
100
AcDbEntity
8
LOGO
6
ByLayer
62
5
370
-1
100
AcDbLine
10
575.78112
20
-396.35894
11
575.9882
21
-397.15206
0
LINE
5
76
100
AcDbEntity
8
LOGO
6
ByLayer
62
5
370
-1
100
AcDbLine
10
575.9882
20
-397.15206
11
576.0225
21
-397.96486
0
LINE
5
77
100
AcDbEntity
8
LOGO
6
ByLayer
62
5
370
-1
100
AcDbLine
10
576.0225
20
-397.96486
11
575.9051
21
-398.77746
0
LINE
5
78
100
AcDbEntity
8
LOGO
6
ByLayer
62
5
370
-1
100
AcDbLine
10
575.9051
20
-398.77746
11
575.63718
21
-399.54888
0
LINE
5
79
100
AcDbEntity
8
LOGO
6
ByLayer
62
5
370
-1
100
AcDbLine
10
575.63718
20
-399.54888
11
575.21098
21
-400.2625
0
LINE
5
7A
100
AcDbEntity
8
LOGO
6
ByLayer
62
5
370
-1
100
AcDbLine
10
575.21098
20
-400.2625
11
574.6731
21
-400.86634
0
LINE
5
7B
100
AcDbEntity
8
LOGO
6
ByLayer
62
5
370
-1
100
AcDbLine
10
574.6731
20
-400.86634
11
574.01136
21
-401.35596
0
LINE
5
7C
100
AcDbEntity
8
LOGO
6
ByLayer
62
5
370
-1
100
AcDbLine
10
574.01136
20
-401.35596
11
573.27562
21
-401.70818
0
LINE
5
7D
100
AcDbEntity
8
LOGO
6
ByLayer
62
5
370
-1
100
AcDbLine
10
573.27562
20
-401.70818
11
572.4825
21
-401.91526
0
LINE
5
7E
100
AcDbEntity
8
LOGO
6
ByLayer
62
5
370
-1
100
AcDbLine
10
572.4825
20
-401.91526
11
571.66524
21
-401.96176
0
LINE
5
7F
100
AcDbEntity
8
LOGO
6
ByLayer
62
5
370
-1
100
AcDbLine
10
571.66524
20
-401.96176
11
570.85264
21
-401.84436
0
LINE
5
80
100
AcDbEntity
8
LOGO
6
ByLayer
62
5
370
-1
100
AcDbLine
10
570.85264
20
-401.84436
11
570.08122
21
-401.57644
0
LINE
5
81
100
AcDbEntity
8
LOGO
6
ByLayer
62
5
370
-1
100
AcDbLine
10
570.08122
20
-401.57644
11
569.3676
21
-401.15024
0
LINE
5
82
100
AcDbEntity
8
LOGO
6
ByLayer
62
5
370
-1
100
AcDbLine
10
569.3676
20
-401.15024
11
568.7682
21
-400.60018
0
LINE
5
83
100
AcDbEntity
8
LOGO
6
ByLayer
62
5
370
-1
100
AcDbLine
10
568.7682
20
-400.60018
11
568.27414
21
-399.95062
0
LINE
5
84
100
AcDbEntity
8
LOGO
6
ByLayer
62
5
370
-1
100
AcDbLine
10
568.27414
20
-399.95062
11
567.92192
21
-399.21488
0
LINE
5
85
100
AcDbEntity
8
LOGO
6
ByLayer
62
5
370
-1
100
AcDbLine
10
567.92192
20
-399.21488
11
567.71928
21
-398.4096
0
LINE
5
86
100
AcDbEntity
8
LOGO
6
ByLayer
62
5
370
-1
100
AcDbLine
10
567.71928
20
-398.4096
11
567.6728
21
-397.59234
0
LINE
5
87
100
AcDbEntity
8
LOGO
6
ByLayer
62
5
370
-1
100
AcDbLine
10
567.6728
20
-397.59234
11
567.79018
21
-396.77974
0
LINE
5
88
100
AcDbEntity
8
LOGO
6
ByLayer
62
5
370
-1
100
AcDbLine
10
567.79018
20
-396.77974
11
568.0581
21
-396.00832
0
LINE
5
89
100
AcDbEntity
8
LOGO
6
ByLayer
62
5
370
-1
100
AcDbLine
10
568.0581
20
-396.00832
11
568.47984
21
-395.30688
0
LINE
5
8A
100
AcDbEntity
8
LOGO
6
ByLayer
62
5
370
-1
100
AcDbLine
10
568.47984
20
-395.30688
11
569.02216
21
-394.69086
0
LINE
5
8B
100
AcDbEntity
8
LOGO
6
ByLayer
62
5
370
-1
100
AcDbLine
10
569.02216
20
-394.69086
11
569.6839
21
-394.20124
0
LINE
5
8C
100
AcDbEntity
8
LOGO
6
ByLayer
62
5
370
-1
100
AcDbLine
10
569.6839
20
-394.20124
11
570.41964
21
-393.84902
0
LINE
5
8D
100
AcDbEntity
8
LOGO
6
ByLayer
62
5
370
-1
100
AcDbLine
10
570.41964
20
-393.84902
11
571.22492
21
-393.64638
0
LINE
5
8E
100
AcDbEntity
8
LOGO
6
ByLayer
62
5
370
-1
100
AcDbLine
10
571.22492
20
-393.64638
11
572.03774
21
-393.61208
0
LINE
5
8F
100
AcDbEntity
8
LOGO
6
ByLayer
62
5
370
-1
100
AcDbLine
10
572.03774
20
-393.61208
11
572.85034
21
-393.72946
0
LINE
5
90
100
AcDbEntity
8
LOGO
6
ByLayer
62
5
370
-1
100
AcDbLine
10
572.85034
20
-393.72946
11
573.62176
21
-393.99738
0
LINE
5
91
100
AcDbEntity
8
LOGO
6
ByLayer
62
5
370
-1
100
AcDbLine
10
573.62176
20
-393.99738
11
573.6218
21
-393.9974
0
LINE
5
92
100
AcDbEntity
8
LOGO
6
ByLayer
62
1
370
-1
100
AcDbLine
10
552.45622
20
-380.4567
11
552.45622
21
-406.9687
0
LINE
5
93
100
AcDbEntity
8
LOGO
6
ByLayer
62
1
370
-1
100
AcDbLine
10
552.45622
20
-406.9687
11
558.36782
21
-406.9687
0
LINE
5
94
100
AcDbEntity
8
LOGO
6
ByLayer
62
1
370
-1
100
AcDbLine
10
558.36782
20
-406.9687
11
558.36782
21
-396.5935
0
LINE
5
95
100
AcDbEntity
8
LOGO
6
ByLayer
62
1
370
-1
100
AcDbLine
10
558.36782
20
-396.5935
11
562.54782
21
-396.5935
0
LINE
5
96
100
AcDbEntity
8
LOGO
6
ByLayer
62
1
370
-1
100
AcDbLine
10
562.54782
20
-396.5935
11
562.54782
21
-392.5031
0
LINE
5
97
100
AcDbEntity
8
LOGO
6
ByLayer
62
1
370
-1
100
AcDbLine
10
562.54782
20
-392.5031
11
558.36782
21
-392.5031
0
LINE
5
98
100
AcDbEntity
8
LOGO
6
ByLayer
62
1
370
-1
100
AcDbLine
10
558.36782
20
-392.5031
11
558.36782
21
-388.0881
0
LINE
5
99
100
AcDbEntity
8
LOGO
6
ByLayer
62
1
370
-1
100
AcDbLine
10
558.36782
20
-388.0881
11
568.66502
21
-388.0881
0
LINE
5
9A
100
AcDbEntity
8
LOGO
6
ByLayer
62
1
370
-1
100
AcDbLine
10
568.66502
20
-388.0881
11
568.66502
21
-380.4707
0
LINE
5
9B
100
AcDbEntity
8
LOGO
6
ByLayer
62
1
370
-1
100
AcDbLine
10
568.66502
20
-380.4707
11
552.45622
21
-380.4557
0
LINE
5
9C
100
AcDbEntity
8
LOGO
6
ByLayer
62
1
370
-1
100
AcDbLine
10
552.45622
20
-380.4557
11
552.45622
21
-380.4567
0
LINE
5
9D
100
AcDbEntity
8
LOGO
6
ByLayer
62
5
370
-1
100
AcDbLine
10
563.865
20
-395.815
11
560.163
21
-397.264
999
$entities
0
ENDSEC
0
SECTION
2
OBJECTS
0
DICTIONARY
5
C
330
0
100
AcDbDictionary
281
1
3
ACAD_GROUP
350
D
0
DICTIONARY
5
D
330
C
100
AcDbDictionary
281
1
0
ENDSEC
0
EOF
