999
dxfrw 0.5.11
0
SECTION
2
HEADER
9
$ACADVER
1
AC1015
9
$HANDSEED
5
20000
9
$DWGCODEPAGE
3
ANSI_1250
9
$INSBASE
10
0
20
0
30
0
9
$EXTMIN
10
0
20
-297
30
0
9
$EXTMAX
10
420
20
0
30
0
9
$LIMMIN
10
0
20
0
9
$LIMMAX
10
420
20
297
9
$ORTHOMODE
70
0
9
$LTSCALE
40
1
9
$TEXTSTYLE
7
STANDARD
9
$CLAYER
8
DIMENSIONS
9
$DIMASZ
40
3.5
9
$DIMLFAC
40
1
9
$DIMSCALE
40
1
9
$DIMEXO
40
0
9
$DIMEXE
40
2
9
$DIMTXT
40
3.5
9
$DIMTSZ
40
0
9
$DIMAUNIT
70
0
9
$DIMADEC
70
2
9
$DIMLUNIT
70
2
9
$DIMSTYLE
2
Standard
9
$DIMGAP
40
1
9
$DIMTIH
70
0
9
$LUNITS
70
2
9
$LUPREC
70
2
9
$AUNITS
70
0
9
$AUPREC
70
2
9
$SPLINESEGS
70
8
9
$GRIDMODE
70
0
9
$SNAPSTYLE
70
0
9
$GRIDUNIT
10
0
20
0
9
$PINSBASE
10
0
20
297
30
0
9
$PLIMMIN
10
0
20
0
9
$PLIMMAX
10
420
20
297
9
$INSUNITS
70
4
9
$PSVPSCALE
40
1
0
ENDSEC
0
SECTION
2
CLASSES
0
ENDSEC
0
SECTION
2
TABLES
0
TABLE
2
VPORT
5
8
330
0
100
AcDbSymbolTable
70
1
0
VPORT
5
31
330
2
100
AcDbSymbolTableRecord
100
AcDbViewportTableRecord
2
*ACTIVE
70
0
10
0
20
0
11
1
21
1
12
212.295081967
22
10.0983606557
13
0
23
0
14
10
24
10
15
10
25
10
16
0
26
0
36
1
17
0
27
0
37
0
40
336.918032787
41
1.27384196185
42
50
43
0
44
0
50
0
51
0
71
0
72
100
73
1
74
3
75
0
76
0
77
0
78
0
281
0
65
1
110
0
120
0
130
0
111
1
121
0
131
0
112
0
122
1
132
0
79
0
146
0
0
ENDTAB
0
TABLE
2
LTYPE
5
5
330
0
100
AcDbSymbolTable
70
4
0
LTYPE
5
14
330
5
100
AcDbSymbolTableRecord
100
AcDbLinetypeTableRecord
2
ByBlock
70
0
3

72
65
73
0
40
0
0
LTYPE
5
15
330
5
100
AcDbSymbolTableRecord
100
AcDbLinetypeTableRecord
2
ByLayer
70
0
3

72
65
73
0
40
0
0
LTYPE
5
16
330
5
100
AcDbSymbolTableRecord
100
AcDbLinetypeTableRecord
2
Continuous
70
0
3
Solid line
72
65
73
0
40
0
0
LTYPE
5
32
330
5
100
AcDbSymbolTableRecord
100
AcDbLinetypeTableRecord
2
DOT
70
0
3
Dot . . . . . . . . . . . . . . . . . . . . . .
72
65
73
2
40
6.35
49
0
74
0
49
-6.35
74
0
0
LTYPE
5
33
330
5
100
AcDbSymbolTableRecord
100
AcDbLinetypeTableRecord
2
DOT2
70
0
3
Dot (.5x) .....................................
72
65
73
2
40
3.175
49
0
74
0
49
-3.175
74
0
0
LTYPE
5
34
330
5
100
AcDbSymbolTableRecord
100
AcDbLinetypeTableRecord
2
DOTX2
70
0
3
Dot (2x) .  .  .  .  .  .  .  .  .  .  .  .  .
72
65
73
2
40
12.7
49
0
74
0
49
-12.7
74
0
0
LTYPE
5
35
330
5
100
AcDbSymbolTableRecord
100
AcDbLinetypeTableRecord
2
DASHED
70
0
3
Dot . . . . . . . . . . . . . . . . . . . . . .
72
65
73
2
40
19.05
49
12.7
74
0
49
-6.35
74
0
0
LTYPE
5
36
330
5
100
AcDbSymbolTableRecord
100
AcDbLinetypeTableRecord
2
DASHED2
70
0
3
Dashed (.5x) _ _ _ _ _ _ _ _ _ _ _ _ _ _ _ _ _
72
65
73
2
40
9.525
49
6.35
74
0
49
-3.175
74
0
0
LTYPE
5
37
330
5
100
AcDbSymbolTableRecord
100
AcDbLinetypeTableRecord
2
DASHEDX2
70
0
3
Dashed (2x) ____  ____  ____  ____  ____  ___
72
65
73
2
40
38.1
49
25.4
74
0
49
-12.7
74
0
0
LTYPE
5
38
330
5
100
AcDbSymbolTableRecord
100
AcDbLinetypeTableRecord
2
DASHDOT
70
0
3
Dash dot __ . __ . __ . __ . __ . __ . __ . __
72
65
73
4
40
25.4
49
12.7
74
0
49
-6.35
74
0
49
0
74
0
49
-6.35
74
0
0
LTYPE
5
39
330
5
100
AcDbSymbolTableRecord
100
AcDbLinetypeTableRecord
2
DASHDOT2
70
0
3
Dash dot (.5x) _._._._._._._._._._._._._._._.
72
65
73
4
40
12.7
49
6.35
74
0
49
-3.175
74
0
49
0
74
0
49
-3.175
74
0
0
LTYPE
5
3A
330
5
100
AcDbSymbolTableRecord
100
AcDbLinetypeTableRecord
2
DASHDOTX2
70
0
3
Dash dot (2x) ____  .  ____  .  ____  .  ___
72
65
73
4
40
50.8
49
25.4
74
0
49
-12.7
74
0
49
0
74
0
49
-12.7
74
0
0
LTYPE
5
3B
330
5
100
AcDbSymbolTableRecord
100
AcDbLinetypeTableRecord
2
DIVIDE
70
0
3
Divide ____ . . ____ . . ____ . . ____ . . ____
72
65
73
6
40
31.75
49
12.7
74
0
49
-6.35
74
0
49
0
74
0
49
-6.35
74
0
49
0
74
0
49
-6.35
74
0
0
LTYPE
5
3C
330
5
100
AcDbSymbolTableRecord
100
AcDbLinetypeTableRecord
2
DIVIDE2
70
0
3
Divide (.5x) __..__..__..__..__..__..__..__.._
72
65
73
6
40
15.875
49
6.35
74
0
49
-3.175
74
0
49
0
74
0
49
-3.175
74
0
49
0
74
0
49
-3.175
74
0
0
LTYPE
5
3D
330
5
100
AcDbSymbolTableRecord
100
AcDbLinetypeTableRecord
2
DIVIDEX2
70
0
3
Divide (2x) ________  .  .  ________  .  .  _
72
65
73
6
40
63.5
49
25.4
74
0
49
-12.7
74
0
49
0
74
0
49
-12.7
74
0
49
0
74
0
49
-12.7
74
0
0
LTYPE
5
3E
330
5
100
AcDbSymbolTableRecord
100
AcDbLinetypeTableRecord
2
BORDER
70
0
3
Border __ __ . __ __ . __ __ . __ __ . __ __ .
72
65
73
6
40
44.45
49
12.7
74
0
49
-6.35
74
0
49
12.7
74
0
49
-6.35
74
0
49
0
74
0
49
-6.35
74
0
0
LTYPE
5
3F
330
5
100
AcDbSymbolTableRecord
100
AcDbLinetypeTableRecord
2
BORDER2
70
0
3
Border (.5x) __.__.__.__.__.__.__.__.__.__.__.
72
65
73
6
40
22.225
49
6.35
74
0
49
-3.175
74
0
49
6.35
74
0
49
-3.175
74
0
49
0
74
0
49
-3.175
74
0
0
LTYPE
5
40
330
5
100
AcDbSymbolTableRecord
100
AcDbLinetypeTableRecord
2
BORDERX2
70
0
3
Border (2x) ____  ____  .  ____  ____  .  ___
72
65
73
6
40
88.9
49
25.4
74
0
49
-12.7
74
0
49
25.4
74
0
49
-12.7
74
0
49
0
74
0
49
-12.7
74
0
0
LTYPE
5
41
330
5
100
AcDbSymbolTableRecord
100
AcDbLinetypeTableRecord
2
CENTER
70
0
3
Center ____ _ ____ _ ____ _ ____ _ ____ _ ____
72
65
73
4
40
50.8
49
31.75
74
0
49
-6.35
74
0
49
6.35
74
0
49
-6.35
74
0
0
LTYPE
5
42
330
5
100
AcDbSymbolTableRecord
100
AcDbLinetypeTableRecord
2
CENTER2
70
0
3
Center (.5x) ___ _ ___ _ ___ _ ___ _ ___ _ ___
72
65
73
4
40
28.575
49
19.05
74
0
49
-3.175
74
0
49
3.175
74
0
49
-3.175
74
0
0
LTYPE
5
43
330
5
100
AcDbSymbolTableRecord
100
AcDbLinetypeTableRecord
2
CENTERX2
70
0
3
Center (2x) ________  __  ________  __  _____
72
65
73
4
40
101.6
49
63.5
74
0
49
-12.7
74
0
49
12.7
74
0
49
-12.7
74
0
0
ENDTAB
0
TABLE
2
LAYER
5
2
330
0
100
AcDbSymbolTable
70
1
0
LAYER
5
10
330
2
100
AcDbSymbolTableRecord
100
AcDbLayerTableRecord
2
0
70
0
62
7
6
CONTINUOUS
370
35
390
F
0
LAYER
5
44
330
2
100
AcDbSymbolTableRecord
100
AcDbLayerTableRecord
2
DIMENSIONS
70
0
62
7
6
CONTINUOUS
370
18
390
F
0
LAYER
5
45
330
2
100
AcDbSymbolTableRecord
100
AcDbLayerTableRecord
2
LOGO
70
0
62
7
6
CONTINUOUS
370
35
390
F
0
LAYER
5
46
330
2
100
AcDbSymbolTableRecord
100
AcDbLayerTableRecord
2
PAPERSIZE
70
0
62
136
6
CONTINUOUS
370
0
390
F
0
ENDTAB
0
TABLE
2
STYLE
5
3
330
0
100
AcDbSymbolTable
70
3
0
STYLE
5
47
330
2
100
AcDbSymbolTableRecord
100
AcDbTextStyleTableRecord
2
Standard
70
0
40
0
41
1
50
0
71
0
42
1
3
txt
4

0
ENDTAB
0
TABLE
2
VIEW
5
6
330
0
100
AcDbSymbolTable
70
0
0
ENDTAB
0
TABLE
2
UCS
5
7
330
0
100
AcDbSymbolTable
70
0
0
ENDTAB
0
TABLE
2
APPID
5
9
330
0
100
AcDbSymbolTable
70
1
0
APPID
5
12
330
9
100
AcDbSymbolTableRecord
100
AcDbRegAppTableRecord
2
ACAD
70
0
0
ENDTAB
0
TABLE
2
DIMSTYLE
5
A
330
0
100
AcDbSymbolTable
70
1
100
AcDbDimStyleTable
71
1
0
DIMSTYLE
105
48
330
A
100
AcDbSymbolTableRecord
100
AcDbDimStyleTableRecord
2
Standard
70
0
40
1
41
3.5
42
0
43
0.38
44
2
45
0
46
0
47
0
48
0
140
3.5
141
0.09
142
0
143
25.4
144
1
145
0
146
1
147
1
148
0
71
0
72
0
73
0
74
1
75
0
76
0
77
0
78
0
79
0
170
0
171
2
172
0
173
0
174
0
175
0
176
0
177
0
178
0
179
0
271
4
272
4
273
2
274
2
275
0
276
0
277
2
278
46
279
0
280
0
281
0
282
0
283
1
284
0
285
0
286
0
288
0
289
3
340
Standard
341

371
-2
372
-2
0
ENDTAB
0
TABLE
2
BLOCK_RECORD
5
1
330
0
100
AcDbSymbolTable
70
2
0
BLOCK_RECORD
5
1F
330
1
100
AcDbSymbolTableRecord
100
AcDbBlockTableRecord
2
*Model_Space
0
BLOCK_RECORD
5
1E
330
1
100
AcDbSymbolTableRecord
100
AcDbBlockTableRecord
2
*Paper_Space
0
ENDTAB
0
ENDSEC
0
SECTION
2
BLOCKS
0
BLOCK
5
20
330
1F
100
AcDbEntity
8
0
100
AcDbBlockBegin
2
*Model_Space
70
0
10
0
20
0
30
0
3
*Model_Space
1

0
ENDBLK
5
21
330
1F
100
AcDbEntity
8
0
100
AcDbBlockEnd
0
BLOCK
5
1C
330
1B
100
AcDbEntity
8
0
100
AcDbBlockBegin
2
*Paper_Space
70
0
10
0
20
0
30
0
3
*Paper_Space
1

0
ENDBLK
5
1D
330
1F
100
AcDbEntity
8
0
100
AcDbBlockEnd
999
$blocks
0
ENDSEC
0
SECTION
2
ENTITIES
0
LINE
5
49
100
AcDbEntity
8
PAPERSIZE
6
ByLayer
62
256
370
-1
100
AcDbLine
10
0
20
0
11
5
21
0
0
LINE
5
4A
100
AcDbEntity
8
PAPERSIZE
6
ByLayer
62
256
370
-1
100
AcDbLine
10
0
20
0
11
0
21
-5
0
LINE
5
4B
100
AcDbEntity
8
PAPERSIZE
6
ByLayer
62
256
370
-1
100
AcDbLine
10
0
20
-297
11
5
21
-297
0
LINE
5
4C
100
AcDbEntity
8
PAPERSIZE
6
ByLayer
62
256
370
-1
100
AcDbLine
10
0
20
-297
11
0
21
-292
0
LINE
5
4D
100
AcDbEntity
8
PAPERSIZE
6
ByLayer
62
256
370
-1
100
AcDbLine
10
420
20
-297
11
415
21
-297
0
LINE
5
4E
100
AcDbEntity
8
PAPERSIZE
6
ByLayer
62
256
370
-1
100
AcDbLine
10
420
20
-297
11
420
21
-292
0
LINE
5
4F
100
AcDbEntity
8
PAPERSIZE
6
ByLayer
62
256
370
-1
100
AcDbLine
10
420
20
0
11
415
21
0
0
LINE
5
50
100
AcDbEntity
8
PAPERSIZE
6
ByLayer
62
256
370
-1
100
AcDbLine
10
420
20
0
11
420
21
-5
0
LINE
5
51
100
AcDbEntity
8
LOGO
6
ByLayer
62
5
370
-1
100
AcDbLine
10
406.079
20
-270.2688
11
403.50005
21
-271.748475
0
LINE
5
52
100
AcDbEntity
8
LOGO
6
ByLayer
62
5
370
-1
100
AcDbLine
10
403.50005
20
-271.748475
11
402.361175
21
-271.353255
0
LINE
5
53
100
AcDbEntity
8
LOGO
6
ByLayer
62
5
370
-1
100
AcDbLine
10
402.361175
20
-271.353255
11
401.27459
21
-268.576305
0
LINE
5
54
100
AcDbEntity
8
LOGO
6
ByLayer
62
5
370
-1
100
AcDbLine
10
401.27459
20
-268.576305
11
399.56534
21
-268.666125
0
LINE
5
55
100
AcDbEntity
8
LOGO
6
ByLayer
62
5
370
-1
100
AcDbLine
10
399.56534
20
-268.666125
11
398.7857
21
-271.537725
0
LINE
5
56
100
AcDbEntity
8
LOGO
6
ByLayer
62
5
370
-1
100
AcDbLine
10
398.7857
20
-271.537725
11
397.694555
21
-272.06025
0
LINE
5
57
100
AcDbEntity
8
LOGO
6
ByLayer
62
5
370
-1
100
AcDbLine
10
397.694555
20
-272.06025
11
394.973105
21
-270.869745
0
LINE
5
58
100
AcDbEntity
8
LOGO
6
ByLayer
62
5
370
-1
100
AcDbLine
10
394.973105
20
-270.869745
11
393.823625
21
-272.147085
0
LINE
5
59
100
AcDbEntity
8
LOGO
6
ByLayer
62
5
370
-1
100
AcDbLine
10
393.823625
20
-272.147085
11
395.3033
21
-274.726035
0
LINE
5
5A
100
AcDbEntity
8
LOGO
6
ByLayer
62
5
370
-1
100
AcDbLine
10
395.3033
20
-274.726035
11
394.898945
21
-275.861565
0
LINE
5
5B
100
AcDbEntity
8
LOGO
6
ByLayer
62
5
370
-1
100
AcDbLine
10
392.121995
20
-276.94815
11
392.220945
21
-278.6607
0
LINE
5
5C
100
AcDbEntity
8
LOGO
6
ByLayer
62
5
370
-1
100
AcDbLine
10
392.220945
20
-278.6607
11
395.092545
21
-279.44034
0
LINE
5
5D
100
AcDbEntity
8
LOGO
6
ByLayer
62
5
370
-1
100
AcDbLine
10
395.092545
20
-279.44034
11
395.615071
21
-280.531485
0
LINE
5
5E
100
AcDbEntity
8
LOGO
6
ByLayer
62
5
370
-1
100
AcDbLine
10
395.615071
20
-280.531485
11
394.415431
21
-283.249635
0
LINE
5
5F
100
AcDbEntity
8
LOGO
6
ByLayer
62
5
370
-1
100
AcDbLine
10
394.415431
20
-283.249635
11
395.69277
21
-284.399115
0
LINE
5
60
100
AcDbEntity
8
LOGO
6
ByLayer
62
5
370
-1
100
AcDbLine
10
395.69277
20
-284.399115
11
398.271721
21
-282.91944
0
LINE
5
61
100
AcDbEntity
8
LOGO
6
ByLayer
62
5
370
-1
100
AcDbLine
10
398.271721
20
-282.91944
11
399.416385
21
-283.327125
0
LINE
5
62
100
AcDbEntity
8
LOGO
6
ByLayer
62
5
370
-1
100
AcDbLine
10
399.416385
20
-283.327125
11
400.493835
21
-286.100775
0
LINE
5
63
100
AcDbEntity
8
LOGO
6
ByLayer
62
5
370
-1
100
AcDbLine
10
400.493835
20
-286.100775
11
402.215535
21
-286.00515
0
LINE
5
64
100
AcDbEntity
8
LOGO
6
ByLayer
62
5
370
-1
100
AcDbLine
10
402.215535
20
-286.00515
11
402.986041
21
-283.13025
0
LINE
5
65
100
AcDbEntity
8
LOGO
6
ByLayer
62
5
370
-1
100
AcDbLine
10
402.986041
20
-283.13025
11
404.077185
21
-282.607725
0
LINE
5
66
100
AcDbEntity
8
LOGO
6
ByLayer
62
5
370
-1
100
AcDbLine
10
404.077185
20
-282.607725
11
406.804485
21
-283.810695
0
LINE
5
67
100
AcDbEntity
8
LOGO
6
ByLayer
62
5
370
-1
100
AcDbLine
10
406.804485
20
-283.810695
11
407.953965
21
-282.533355
0
LINE
5
68
100
AcDbEntity
8
LOGO
6
ByLayer
62
5
370
-1
100
AcDbLine
10
407.953965
20
-282.533355
11
406.47429
21
-279.954405
0
LINE
5
69
100
AcDbEntity
8
LOGO
6
ByLayer
62
5
370
-1
100
AcDbLine
10
406.47429
20
-279.954405
11
406.87284
21
-278.80641
0
LINE
5
6A
100
AcDbEntity
8
LOGO
6
ByLayer
62
5
370
-1
100
AcDbLine
10
406.87284
20
-278.80641
11
409.646491
21
-277.72896
0
LINE
5
6B
100
AcDbEntity
8
LOGO
6
ByLayer
62
5
370
-1
100
AcDbLine
10
409.646491
20
-277.72896
11
409.560001
21
-276.01056
0
LINE
5
6C
100
AcDbEntity
8
LOGO
6
ByLayer
62
5
370
-1
100
AcDbLine
10
409.560001
20
-276.01056
11
406.6851
21
-275.240055
0
LINE
5
6D
100
AcDbEntity
8
LOGO
6
ByLayer
62
5
370
-1
100
AcDbLine
10
406.6851
20
-275.240055
11
406.162576
21
-274.14891
0
LINE
5
6E
100
AcDbEntity
8
LOGO
6
ByLayer
62
5
370
-1
100
AcDbLine
10
406.162576
20
-274.14891
11
407.356426
21
-271.41831
0
LINE
5
6F
100
AcDbEntity
8
LOGO
6
ByLayer
62
5
370
-1
100
AcDbLine
10
407.356426
20
-271.41831
11
406.079086
21
-270.26883
0
LINE
5
70
100
AcDbEntity
8
LOGO
6
ByLayer
62
5
370
-1
100
AcDbLine
10
406.079086
20
-270.26883
11
406.079
21
-270.2688
0
LINE
5
71
100
AcDbEntity
8
LOGO
6
ByLayer
62
5
370
-1
100
AcDbLine
10
402.21635
20
-274.49805
11
402.745775
21
-274.80522
0
LINE
5
72
100
AcDbEntity
8
LOGO
6
ByLayer
62
5
370
-1
100
AcDbLine
10
402.745775
20
-274.80522
11
403.20446
21
-275.221095
0
LINE
5
73
100
AcDbEntity
8
LOGO
6
ByLayer
62
5
370
-1
100
AcDbLine
10
403.20446
20
-275.221095
11
403.571675
21
-275.7174
0
LINE
5
74
100
AcDbEntity
8
LOGO
6
ByLayer
62
5
370
-1
100
AcDbLine
10
403.571675
20
-275.7174
11
403.83584
21
-276.269205
0
LINE
5
75
100
AcDbEntity
8
LOGO
6
ByLayer
62
5
370
-1
100
AcDbLine
10
403.83584
20
-276.269205
11
403.99115
21
-276.864045
0
LINE
5
76
100
AcDbEntity
8
LOGO
6
ByLayer
62
5
370
-1
100
AcDbLine
10
403.99115
20
-276.864045
11
404.016875
21
-277.473645
0
LINE
5
77
100
AcDbEntity
8
LOGO
6
ByLayer
62
5
370
-1
100
AcDbLine
10
404.016875
20
-277.473645
11
403.928825
21
-278.083095
0
LINE
5
78
100
AcDbEntity
8
LOGO
6
ByLayer
62
5
370
-1
100
AcDbLine
10
403.928825
20
-278.083095
11
403.727885
21
-278.66166
0
LINE
5
79
100
AcDbEntity
8
LOGO
6
ByLayer
62
5
370
-1
100
AcDbLine
10
403.727885
20
-278.66166
11
403.408235
21
-279.196875
0
LINE
5
7A
100
AcDbEntity
8
LOGO
6
ByLayer
62
5
370
-1
100
AcDbLine
10
403.408235
20
-279.196875
11
403.004825
21
-279.649755
0
LINE
5
7B
100
AcDbEntity
8
LOGO
6
ByLayer
62
5
370
-1
100
AcDbLine
10
403.004825
20
-279.649755
11
402.50852
21
-280.01697
0
LINE
5
7C
100
AcDbEntity
8
LOGO
6
ByLayer
62
5
370
-1
100
AcDbLine
10
402.50852
20
-280.01697
11
401.956715
21
-280.281135
0
LINE
5
7D
100
AcDbEntity
8
LOGO
6
ByLayer
62
5
370
-1
100
AcDbLine
10
401.956715
20
-280.281135
11
401.361875
21
-280.436445
0
LINE
5
7E
100
AcDbEntity
8
LOGO
6
ByLayer
62
5
370
-1
100
AcDbLine
10
401.361875
20
-280.436445
11
400.74893
21
-280.47132
0
LINE
5
7F
100
AcDbEntity
8
LOGO
6
ByLayer
62
5
370
-1
100
AcDbLine
10
400.74893
20
-280.47132
11
400.13948
21
-280.38327
0
LINE
5
80
100
AcDbEntity
8
LOGO
6
ByLayer
62
5
370
-1
100
AcDbLine
10
400.13948
20
-280.38327
11
399.560915
21
-280.18233
0
LINE
5
81
100
AcDbEntity
8
LOGO
6
ByLayer
62
5
370
-1
100
AcDbLine
10
399.560915
20
-280.18233
11
399.0257
21
-279.86268
0
LINE
5
82
100
AcDbEntity
8
LOGO
6
ByLayer
62
5
370
-1
100
AcDbLine
10
399.0257
20
-279.86268
11
398.57615
21
-279.450135
0
LINE
5
83
100
AcDbEntity
8
LOGO
6
ByLayer
62
5
370
-1
100
AcDbLine
10
398.57615
20
-279.450135
11
398.205605
21
-278.962965
0
LINE
5
84
100
AcDbEntity
8
LOGO
6
ByLayer
62
5
370
-1
100
AcDbLine
10
398.205605
20
-278.962965
11
397.94144
21
-278.41116
0
LINE
5
85
100
AcDbEntity
8
LOGO
6
ByLayer
62
5
370
-1
100
AcDbLine
10
397.94144
20
-278.41116
11
397.78946
21
-277.8072
0
LINE
5
86
100
AcDbEntity
8
LOGO
6
ByLayer
62
5
370
-1
100
AcDbLine
10
397.78946
20
-277.8072
11
397.7546
21
-277.194255
0
LINE
5
87
100
AcDbEntity
8
LOGO
6
ByLayer
62
5
370
-1
100
AcDbLine
10
397.7546
20
-277.194255
11
397.842635
21
-276.584805
0
LINE
5
88
100
AcDbEntity
8
LOGO
6
ByLayer
62
5
370
-1
100
AcDbLine
10
397.842635
20
-276.584805
11
398.043575
21
-276.00624
0
LINE
5
89
100
AcDbEntity
8
LOGO
6
ByLayer
62
5
370
-1
100
AcDbLine
10
398.043575
20
-276.00624
11
398.35988
21
-275.48016
0
LINE
5
8A
100
AcDbEntity
8
LOGO
6
ByLayer
62
5
370
-1
100
AcDbLine
10
398.35988
20
-275.48016
11
398.76662
21
-275.018145
0
LINE
5
8B
100
AcDbEntity
8
LOGO
6
ByLayer
62
5
370
-1
100
AcDbLine
10
398.76662
20
-275.018145
11
399.262925
21
-274.65093
0
LINE
5
8C
100
AcDbEntity
8
LOGO
6
ByLayer
62
5
370
-1
100
AcDbLine
10
399.262925
20
-274.65093
11
399.81473
21
-274.386765
0
LINE
5
8D
100
AcDbEntity
8
LOGO
6
ByLayer
62
5
370
-1
100
AcDbLine
10
399.81473
20
-274.386765
11
400.41869
21
-274.234785
0
LINE
5
8E
100
AcDbEntity
8
LOGO
6
ByLayer
62
5
370
-1
100
AcDbLine
10
400.41869
20
-274.234785
11
401.028305
21
-274.20906
0
LINE
5
8F
100
AcDbEntity
8
LOGO
6
ByLayer
62
5
370
-1
100
AcDbLine
10
401.028305
20
-274.20906
11
401.637755
21
-274.297095
0
LINE
5
90
100
AcDbEntity
8
LOGO
6
ByLayer
62
5
370
-1
100
AcDbLine
10
401.637755
20
-274.297095
11
402.21632
21
-274.498035
0
LINE
5
91
100
AcDbEntity
8
LOGO
6
ByLayer
62
5
370
-1
100
AcDbLine
10
402.21632
20
-274.498035
11
402.21635
21
-274.49805
0
LINE
5
92
100
AcDbEntity
8
LOGO
6
ByLayer
62
1
370
-1
100
AcDbLine
10
386.342165
20
-264.342525
11
386.342165
21
-284.226525
0
LINE
5
93
100
AcDbEntity
8
LOGO
6
ByLayer
62
1
370
-1
100
AcDbLine
10
386.342165
20
-284.226525
11
390.775865
21
-284.226525
0
LINE
5
94
100
AcDbEntity
8
LOGO
6
ByLayer
62
1
370
-1
100
AcDbLine
10
390.775865
20
-284.226525
11
390.775865
21
-276.445125
0
LINE
5
95
100
AcDbEntity
8
LOGO
6
ByLayer
62
1
370
-1
100
AcDbLine
10
390.775865
20
-276.445125
11
393.910865
21
-276.445125
0
LINE
5
96
100
AcDbEntity
8
LOGO
6
ByLayer
62
1
370
-1
100
AcDbLine
10
393.910865
20
-276.445125
11
393.910865
21
-273.377325
0
LINE
5
97
100
AcDbEntity
8
LOGO
6
ByLayer
62
1
370
-1
100
AcDbLine
10
393.910865
20
-273.377325
11
390.775865
21
-273.377325
0
LINE
5
98
100
AcDbEntity
8
LOGO
6
ByLayer
62
1
370
-1
100
AcDbLine
10
390.775865
20
-273.377325
11
390.775865
21
-270.066075
0
LINE
5
99
100
AcDbEntity
8
LOGO
6
ByLayer
62
1
370
-1
100
AcDbLine
10
390.775865
20
-270.066075
11
398.498765
21
-270.066075
0
LINE
5
9A
100
AcDbEntity
8
LOGO
6
ByLayer
62
1
370
-1
100
AcDbLine
10
398.498765
20
-270.066075
11
398.498765
21
-264.353025
0
LINE
5
9B
100
AcDbEntity
8
LOGO
6
ByLayer
62
1
370
-1
100
AcDbLine
10
398.498765
20
-264.353025
11
386.342165
21
-264.341775
0
LINE
5
9C
100
AcDbEntity
8
LOGO
6
ByLayer
62
1
370
-1
100
AcDbLine
10
386.342165
20
-264.341775
11
386.342165
21
-264.342525
0
LINE
5
9D
100
AcDbEntity
8
LOGO
6
ByLayer
62
5
370
-1
100
AcDbLine
10
394.899
20
-275.862
11
392.122
21
-276.948
999
$entities
0
ENDSEC
0
SECTION
2
OBJECTS
0
DICTIONARY
5
C
330
0
100
AcDbDictionary
281
1
3
ACAD_GROUP
350
D
0
DICTIONARY
5
D
330
C
100
AcDbDictionary
281
1
0
ENDSEC
0
EOF
