  0
SECTION
  2
HEADER
  9
$ACADVER
  1
AC1009
  9
$DWGCODEPAGE
  3
ansi_1252
  9
$INSBASE
 10
0.0
 20
0.0
 30
0.0
  9
$EXTMIN
 10
0.0
 20
-297.0
 30
0.0
  9
$EXTMAX
 10
420.0
 20
0.0
 30
0.0
  9
$LIMMIN
 10
0.0
 20
0.0
  9
$LIMMAX
 10
12.0
 20
9.0
  9
$ORTHOMODE
 70
     1
  9
$REGENMODE
 70
     1
  9
$FILLMODE
 70
     1
  9
$QTEXTMODE
 70
     0
  9
$MIRRTEXT
 70
     1
  9
$DRAGMODE
 70
     2
  9
$LTSCALE
 40
1.0
  9
$OSMODE
 70
   511
  9
$ATTMODE
 70
     1
  9
$TEXTSIZE
 40
2.5
  9
$TRACEWID
 40
0.05
  9
$TEXTSTYLE
  7
STANDARD
  9
$CLAYER
  8
0
  9
$CELTYPE
  6
BYBLOCK
  9
$CECOLOR
 62
   256
  9
$DIMSCALE
 40
1.0
  9
$DIMASZ
 40
0.18
  9
$DIMEXO
 40
0.0625
  9
$DIMDLI
 40
0.38
  9
$DIMRND
 40
0.0
  9
$DIMDLE
 40
0.0
  9
$DIMEXE
 40
0.18
  9
$DIMTP
 40
0.0
  9
$DIMTM
 40
0.0
  9
$DIMTXT
 40
0.18
  9
$DIMCEN
 40
0.09
  9
$DIMTSZ
 40
0.0
  9
$DIMTOL
 70
     0
  9
$DIMLIM
 70
     0
  9
$DIMTIH
 70
     1
  9
$DIMTOH
 70
     1
  9
$DIMSE1
 70
     0
  9
$DIMSE2
 70
     0
  9
$DIMTAD
 70
     0
  9
$DIMZIN
 70
     0
  9
$DIMBLK
  1

  9
$DIMASO
 70
     1
  9
$DIMSHO
 70
     1
  9
$DIMPOST
  1

  9
$DIMAPOST
  1

  9
$DIMALT
 70
     0
  9
$DIMALTD
 70
     2
  9
$DIMALTF
 40
25.4
  9
$DIMLFAC
 40
1.0
  9
$DIMTOFL
 70
     0
  9
$DIMTVP
 40
0.0
  9
$DIMTIX
 70
     0
  9
$DIMSOXD
 70
     0
  9
$DIMSAH
 70
     0
  9
$DIMBLK1
  1

  9
$DIMBLK2
  1

  9
$DIMSTYLE
  2
ISO-25
  9
$DIMCLRD
 70
     0
  9
$DIMCLRE
 70
     0
  9
$DIMCLRT
 70
     0
  9
$DIMTFAC
 40
1.0
  9
$DIMGAP
 40
0.09
  9
$LUNITS
 70
     2
  9
$LUPREC
 70
     4
  9
$SKETCHINC
 40
0.1
  9
$FILLETRAD
 40
0.5
  9
$AUNITS
 70
     0
  9
$AUPREC
 70
     0
  9
$MENU
  1
.
  9
$ELEVATION
 40
0.0
  9
$PELEVATION
 40
0.0
  9
$THICKNESS
 40
0.0
  9
$LIMCHECK
 70
     0
  9
$CHAMFERA
 40
0.0
  9
$CHAMFERB
 40
0.0
  9
$SKPOLY
 70
     0
  9
$TDCREATE
 40
0.0
  9
$TDUPDATE
 40
2456884.945335636
  9
$TDINDWG
 40
0.0000115741
  9
$TDUSRTIMER
 40
2456885.060972222
  9
$USRTIMER
 70
     1
  9
$ANGBASE
 50
0.0
  9
$ANGDIR
 70
     0
  9
$PDMODE
 70
     0
  9
$PDSIZE
 40
0.0
  9
$PLINEWID
 40
0.0
  9
$COORDS
 70
     1
  9
$SPLFRAME
 70
     0
  9
$SPLINETYPE
 70
     6
  9
$SPLINESEGS
 70
     8
  9
$ATTDIA
 70
     0
  9
$ATTREQ
 70
     1
  9
$HANDLING
 70
     1
  9
$HANDSEED
  5
1178E
  9
$SURFTAB1
 70
     6
  9
$SURFTAB2
 70
     6
  9
$SURFTYPE
 70
     6
  9
$SURFU
 70
     6
  9
$SURFV
 70
     6
  9
$UCSNAME
  2

  9
$UCSORG
 10
0.0
 20
0.0
 30
0.0
  9
$UCSXDIR
 10
1.0
 20
0.0
 30
0.0
  9
$UCSYDIR
 10
0.0
 20
1.0
 30
0.0
  9
$PUCSNAME
  2

  9
$PUCSORG
 10
0.0
 20
0.0
 30
0.0
  9
$PUCSXDIR
 10
1.0
 20
0.0
 30
0.0
  9
$PUCSYDIR
 10
0.0
 20
1.0
 30
0.0
  9
$USERI1
 70
     0
  9
$USERI2
 70
     0
  9
$USERI3
 70
     0
  9
$USERI4
 70
     0
  9
$USERI5
 70
     0
  9
$USERR1
 40
0.0
  9
$USERR2
 40
0.0
  9
$USERR3
 40
0.0
  9
$USERR4
 40
0.0
  9
$USERR5
 40
0.0
  9
$WORLDVIEW
 70
     1
  9
$SHADEDGE
 70
     3
  9
$SHADEDIF
 70
    70
  9
$TILEMODE
 70
     1
  9
$MAXACTVP
 70
    64
  9
$PLIMCHECK
 70
     0
  9
$PEXTMIN
 10
1.000000000000000E+20
 20
1.000000000000000E+20
 30
1.000000000000000E+20
  9
$PEXTMAX
 10
-1.000000000000000E+20
 20
-1.000000000000000E+20
 30
-1.000000000000000E+20
  9
$PLIMMIN
 10
0.0
 20
0.0
  9
$PLIMMAX
 10
0.0
 20
0.0
  9
$UNITMODE
 70
     0
  9
$VISRETAIN
 70
     1
  9
$PLINEGEN
 70
     0
  9
$PSLTSCALE
 70
     1
  0
ENDSEC
  0
SECTION
  2
TABLES
  0
TABLE
  2
VPORT
 70
     1
  0
VPORT
  2
*ACTIVE
 70
     0
 10
0.0
 20
0.0
 11
1.0
 21
1.0
 12
210.0
 22
-148.5
 13
0.0
 23
0.0
 14
10.0
 24
10.0
 15
10.0
 25
10.0
 16
0.0
 26
0.0
 36
1.0
 17
0.0
 27
0.0
 37
0.0
 40
302.94
 41
1.728222996515679
 42
50.0
 43
0.0
 44
0.0
 50
0.0
 51
0.0
 71
    16
 72
   100
 73
     1
 74
     3
 75
     0
 76
     0
 77
     0
 78
     0
  0
ENDTAB
  0
TABLE
  2
LTYPE
 70
     1
  0
LTYPE
  2
CONTINUOUS
 70
     0
  3
Solid line
 72
    65
 73
     0
 40
0.0
  0
ENDTAB
  0
TABLE
  2
LAYER
 70
     1
  0
LAYER
  2
0
 70
     0
 62
     7
  6
CONTINUOUS
  0
ENDTAB
  0
TABLE
  2
STYLE
 70
     1
  0
STYLE
  2
STANDARD
 70
     0
 40
0.0
 41
1.0
 50
0.0
 71
     0
 42
2.5
  3
Arial.ttf
  4

  0
ENDTAB
  0
TABLE
  2
VIEW
 70
     0
  0
ENDTAB
  0
TABLE
  2
UCS
 70
     0
  0
ENDTAB
  0
TABLE
  2
APPID
 70
     1
  0
APPID
  2
ACAD
 70
     0
  0
ENDTAB
  0
TABLE
  2
DIMSTYLE
 70
     1
  0
DIMSTYLE
  2
ISO-25
 70
     0
  3

  4

  5

  6

  7

 40
1.0
 41
2.5
 42
0.625
 43
3.75
 44
1.25
 45
0.0
 46
0.0
 47
0.0
 48
0.0
140
2.5
141
2.5
142
0.0
143
0.03937007874016
144
1.0
145
0.0
146
1.0
147
0.625
 71
     0
 72
     0
 73
     0
 74
     0
 75
     0
 76
     0
 77
     1
 78
     8
170
     0
171
     3
172
     1
173
     0
174
     0
175
     0
176
     0
177
     0
178
     0
  0
ENDTAB
  0
ENDSEC
  0
SECTION
  2
BLOCKS
  0
BLOCK
  8
0
  2
$MODEL_SPACE
 70
     0
 10
0.0
 20
0.0
 30
0.0
  3
$MODEL_SPACE
  1

  0
ENDBLK
  5
21
  8
0
  0
BLOCK
 67
     1
  8
0
  2
$PAPER_SPACE
 70
     0
 10
0.0
 20
0.0
 30
0.0
  3
$PAPER_SPACE
  1

  0
ENDBLK
  5
1D
 67
     1
  8
0
  0
BLOCK
  8
0
  2
*U0
 70
     1
 10
0.0
 20
0.0
 30
0.0
  3
*U0
  1

  0
SOLID
  5
11393
  8
0
  6
BYBLOCK
 62
     1
 10
371.93153
 20
28.99782400000015
 30
0.0
 11
371.93153
 21
38.9774000000001
 31
0.0
 12
374.156706
 22
28.99782400000015
 32
0.0
 13
374.156706
 23
28.99782400000015
 33
0.0
  0
SOLID
  5
11394
  8
0
  6
BYBLOCK
 62
     1
 10
374.156706
 20
28.99782400000015
 30
0.0
 11
371.93153
 21
38.9774000000001
 31
0.0
 12
374.156706
 22
38.97535063803038
 32
0.0
 13
374.156706
 23
38.97535063803038
 33
0.0
  0
SOLID
  5
11395
  8
0
  6
BYBLOCK
 62
     1
 10
374.156706
 20
32.90312000000006
 30
0.0
 11
374.156706
 21
34.44276200000013
 31
0.0
 12
375.4763210054591
 22
32.90312000000006
 32
0.0
 13
375.4763210054591
 23
32.90312000000006
 33
0.0
  0
SOLID
  5
11396
  8
0
  6
BYBLOCK
 62
     1
 10
375.4763210054591
 20
32.90312000000006
 30
0.0
 11
374.156706
 21
34.44276200000013
 31
0.0
 12
375.4763210054591
 22
34.44276200000013
 32
0.0
 13
375.4763210054591
 23
34.44276200000013
 33
0.0
  0
SOLID
  5
11397
  8
0
  6
BYBLOCK
 62
     1
 10
374.156706
 20
36.1045640000001
 30
0.0
 11
374.156706
 21
38.97535063803038
 31
0.0
 12
375.4763210054591
 22
36.1045640000001
 32
0.0
 13
375.4763210054591
 23
36.1045640000001
 33
0.0
  0
SOLID
  5
11398
  8
0
  6
BYBLOCK
 62
     1
 10
375.4763210054591
 20
36.1045640000001
 30
0.0
 11
374.156706
 21
38.97535063803038
 31
0.0
 12
375.4763210054591
 22
38.97413528751121
 32
0.0
 13
375.4763210054591
 23
38.97413528751121
 33
0.0
  0
SOLID
  5
11399
  8
0
  6
BYBLOCK
 62
     1
 10
375.4763210054591
 20
32.90312000000006
 30
0.0
 11
375.4763210054591
 21
34.44276200000013
 31
0.0
 12
375.730062
 22
33.00240502276863
 32
0.0
 13
375.730062
 23
33.00240502276863
 33
0.0
  0
SOLID
  5
1139A
  8
0
  6
BYBLOCK
 62
     1
 10
375.730062
 20
33.00240502276863
 30
0.0
 11
375.4763210054591
 21
34.44276200000013
 31
0.0
 12
375.730062
 22
34.44276200000013
 32
0.0
 13
375.730062
 23
34.44276200000013
 33
0.0
  0
SOLID
  5
1139B
  8
0
  6
BYBLOCK
 62
     1
 10
375.4763210054591
 20
36.1045640000001
 30
0.0
 11
375.4763210054591
 21
38.97413528751121
 31
0.0
 12
375.730062
 22
36.1045640000001
 32
0.0
 13
375.730062
 23
36.1045640000001
 33
0.0
  0
SOLID
  5
1139C
  8
0
  6
BYBLOCK
 62
     1
 10
375.730062
 20
36.1045640000001
 30
0.0
 11
375.4763210054591
 21
38.97413528751121
 31
0.0
 12
375.730062
 22
38.97390159492044
 32
0.0
 13
375.730062
 23
38.97390159492044
 33
0.0
  0
SOLID
  5
1139D
  8
0
  6
BYBLOCK
 62
     1
 10
375.730062
 20
36.1045640000001
 30
0.0
 11
375.730062
 21
38.97390159492044
 31
0.0
 12
378.032582
 22
36.1045640000001
 32
0.0
 13
378.032582
 23
36.1045640000001
 33
0.0
  0
SOLID
  5
1139E
  8
0
  6
BYBLOCK
 62
     1
 10
378.032582
 20
36.1045640000001
 30
0.0
 11
375.730062
 21
38.97390159492044
 31
0.0
 12
378.032582
 22
38.97178100000008
 32
0.0
 13
378.032582
 23
38.97178100000008
 33
0.0
  0
ENDBLK
  5
11499
  8
0
  0
BLOCK
  8
0
  2
*U1
 70
     1
 10
0.0
 20
0.0
 30
0.0
  3
*U1
  1

  0
SOLID
  5
113A0
  8
0
  6
BYBLOCK
 62
     5
 10
374.881604
 20
31.79149000000007
 30
0.0
 11
374.831944
 21
32.65098500000011
 31
0.0
 12
374.881604
 22
32.67041620873957
 32
0.0
 13
374.881604
 23
32.67041620873957
 33
0.0
  0
SOLID
  5
113A1
  8
0
  6
BYBLOCK
 62
     5
 10
374.881604
 20
31.79149000000007
 30
0.0
 11
374.881604
 21
32.67041620873957
 31
0.0
 12
375.4763210054591
 22
31.63002296378241
 32
0.0
 13
375.4763210054591
 23
31.63002296378241
 33
0.0
  0
SOLID
  5
113A2
  8
0
  6
BYBLOCK
 62
     5
 10
375.4763210054591
 20
31.63002296378241
 30
0.0
 11
374.881604
 21
32.67041620873957
 31
0.0
 12
375.4763210054591
 22
32.90312000000006
 32
0.0
 13
375.4763210054591
 23
32.90312000000006
 33
0.0
  0
SOLID
  5
113A3
  8
0
  6
BYBLOCK
 62
     5
 10
375.4763210054591
 20
31.63002296378241
 30
0.0
 11
375.4763210054591
 21
32.90312000000006
 31
0.0
 12
375.685945
 22
31.5731095666407
 32
0.0
 13
375.685945
 23
31.5731095666407
 33
0.0
  0
SOLID
  5
113A4
  8
0
  6
BYBLOCK
 62
     5
 10
375.685945
 20
31.5731095666407
 30
0.0
 11
375.4763210054591
 21
32.90312000000006
 31
0.0
 12
375.685945
 22
32.90312000000006
 32
0.0
 13
375.685945
 23
32.90312000000006
 33
0.0
  0
SOLID
  5
113A5
  8
0
  6
BYBLOCK
 62
     5
 10
375.685945
 20
31.5731095666407
 30
0.0
 11
375.685945
 21
32.90312000000006
 31
0.0
 12
375.730062
 22
31.56113169956877
 32
0.0
 13
375.730062
 23
31.56113169956877
 33
0.0
  0
SOLID
  5
113A6
  8
0
  6
BYBLOCK
 62
     5
 10
375.730062
 20
31.56113169956877
 30
0.0
 11
375.685945
 21
32.90312000000006
 31
0.0
 12
375.730062
 22
32.90312000000006
 32
0.0
 13
375.730062
 23
32.90312000000006
 33
0.0
  0
SOLID
  5
113A7
  8
0
  6
BYBLOCK
 62
     5
 10
375.730062
 20
34.98364179189947
 30
0.0
 11
375.685945
 21
35.06053600000007
 31
0.0
 12
375.730062
 22
35.10956037798348
 32
0.0
 13
375.730062
 23
35.10956037798348
 33
0.0
  0
SOLID
  5
113A8
  8
0
  6
BYBLOCK
 62
     5
 10
375.730062
 20
31.56113169956877
 30
0.0
 11
375.730062
 21
33.00240502276863
 31
0.0
 12
375.982928
 22
31.49247799838748
 32
0.0
 13
375.982928
 23
31.49247799838748
 33
0.0
  0
SOLID
  5
113A9
  8
0
  6
BYBLOCK
 62
     5
 10
375.982928
 20
31.49247799838748
 30
0.0
 11
375.730062
 21
33.00240502276863
 31
0.0
 12
375.982928
 22
33.10134767337513
 32
0.0
 13
375.982928
 23
33.10134767337513
 33
0.0
  0
SOLID
  5
113AA
  8
0
  6
BYBLOCK
 62
     5
 10
375.730062
 20
34.98364179189947
 30
0.0
 11
375.730062
 21
35.10956037798348
 31
0.0
 12
375.982928
 22
34.54290622906473
 32
0.0
 13
375.982928
 23
34.54290622906473
 33
0.0
  0
SOLID
  5
113AB
  8
0
  6
BYBLOCK
 62
     5
 10
375.982928
 20
34.54290622906473
 30
0.0
 11
375.730062
 21
35.10956037798348
 31
0.0
 12
375.982928
 22
35.39055406212255
 32
0.0
 13
375.982928
 23
35.39055406212255
 33
0.0
  0
SOLID
  5
113AC
  8
0
  6
BYBLOCK
 62
     5
 10
376.225619
 20
29.27004059386059
 30
0.0
 11
375.982928
 21
29.48843800000009
 31
0.0
 12
376.225619
 22
30.03833105240975
 32
0.0
 13
376.225619
 23
30.03833105240975
 33
0.0
  0
SOLID
  5
113AD
  8
0
  6
BYBLOCK
 62
     5
 10
375.982928
 20
31.49247799838748
 30
0.0
 11
375.982928
 21
33.10134767337513
 31
0.0
 12
376.225619
 22
31.42658683313243
 32
0.0
 13
376.225619
 23
31.42658683313243
 33
0.0
  0
SOLID
  5
113AE
  8
0
  6
BYBLOCK
 62
     5
 10
376.225619
 20
31.42658683313243
 30
0.0
 11
375.982928
 21
33.10134767337513
 31
0.0
 12
376.225619
 22
33.19630900000004
 32
0.0
 13
376.225619
 23
33.19630900000004
 33
0.0
  0
SOLID
  5
113AF
  8
0
  6
BYBLOCK
 62
     5
 10
375.982928
 20
34.54290622906473
 30
0.0
 11
375.982928
 21
35.39055406212255
 31
0.0
 12
376.225619
 22
34.11990529386623
 32
0.0
 13
376.225619
 23
34.11990529386623
 33
0.0
  0
SOLID
  5
113B0
  8
0
  6
BYBLOCK
 62
     5
 10
376.225619
 20
34.11990529386623
 30
0.0
 11
375.982928
 21
35.39055406212255
 31
0.0
 12
376.225619
 22
35.66024092471925
 32
0.0
 13
376.225619
 23
35.66024092471925
 33
0.0
  0
SOLID
  5
113B1
  8
0
  6
BYBLOCK
 62
     5
 10
376.225619
 20
29.27004059386059
 30
0.0
 11
376.225619
 21
30.03833105240975
 31
0.0
 12
376.262838
 22
29.23654725022978
 32
0.0
 13
376.262838
 23
29.23654725022978
 33
0.0
  0
SOLID
  5
113B2
  8
0
  6
BYBLOCK
 62
     5
 10
376.262838
 20
29.23654725022978
 30
0.0
 11
376.225619
 21
30.03833105240975
 31
0.0
 12
376.262838
 22
30.12266244301605
 32
0.0
 13
376.262838
 23
30.12266244301605
 33
0.0
  0
SOLID
  5
113B3
  8
0
  6
BYBLOCK
 62
     5
 10
376.225619
 20
31.42658683313243
 30
0.0
 11
376.225619
 21
33.19630900000004
 31
0.0
 12
376.262838
 22
31.41648178894197
 32
0.0
 13
376.262838
 23
31.41648178894197
 33
0.0
  0
SOLID
  5
113B4
  8
0
  6
BYBLOCK
 62
     5
 10
376.262838
 20
31.41648178894197
 30
0.0
 11
376.225619
 21
33.19630900000004
 31
0.0
 12
376.262838
 22
33.30083024764333
 32
0.0
 13
376.262838
 23
33.30083024764333
 33
0.0
  0
SOLID
  5
113B5
  8
0
  6
BYBLOCK
 62
     5
 10
376.225619
 20
34.11990529386623
 30
0.0
 11
376.225619
 21
35.66024092471925
 31
0.0
 12
376.262838
 22
34.05503403037829
 32
0.0
 13
376.262838
 23
34.05503403037829
 33
0.0
  0
SOLID
  5
113B6
  8
0
  6
BYBLOCK
 62
     5
 10
376.262838
 20
34.05503403037829
 30
0.0
 11
376.225619
 21
35.66024092471925
 31
0.0
 12
376.262838
 22
35.7016000000001
 32
0.0
 13
376.262838
 23
35.7016000000001
 33
0.0
  0
SOLID
  5
113B7
  8
0
  6
BYBLOCK
 62
     5
 10
376.262838
 20
29.23654725022978
 30
0.0
 11
376.262838
 21
30.12266244301605
 31
0.0
 12
376.3227519999999
 22
29.18263069711727
 32
0.0
 13
376.3227519999999
 23
29.18263069711727
 33
0.0
  0
SOLID
  5
113B8
  8
0
  6
BYBLOCK
 62
     5
 10
376.3227519999999
 20
29.18263069711727
 30
0.0
 11
376.262838
 21
30.12266244301605
 31
0.0
 12
376.3227519999999
 22
30.25841651853611
 32
0.0
 13
376.3227519999999
 23
30.25841651853611
 33
0.0
  0
SOLID
  5
113B9
  8
0
  6
BYBLOCK
 62
     5
 10
376.262838
 20
31.41648178894197
 30
0.0
 11
376.262838
 21
33.30083024764333
 31
0.0
 12
376.3227519999999
 22
31.40021500000012
 32
0.0
 13
376.3227519999999
 23
31.40021500000012
 33
0.0
  0
SOLID
  5
113BA
  8
0
  6
BYBLOCK
 62
     5
 10
376.3227519999999
 20
31.40021500000012
 30
0.0
 11
376.262838
 21
33.30083024764333
 31
0.0
 12
376.3227519999999
 22
33.46908533325269
 32
0.0
 13
376.3227519999999
 23
33.46908533325269
 33
0.0
  0
SOLID
  5
113BB
  8
0
  6
BYBLOCK
 62
     5
 10
376.262838
 20
34.05503403037829
 30
0.0
 11
376.262838
 21
35.7016000000001
 31
0.0
 12
376.3227519999999
 22
33.95060626819734
 32
0.0
 13
376.3227519999999
 23
33.95060626819734
 33
0.0
  0
SOLID
  5
113BC
  8
0
  6
BYBLOCK
 62
     5
 10
376.3227519999999
 20
33.95060626819734
 30
0.0
 11
376.262838
 21
35.7016000000001
 31
0.0
 12
376.3227519999999
 22
35.6753907449772
 32
0.0
 13
376.3227519999999
 23
35.6753907449772
 33
0.0
  0
SOLID
  5
113BD
  8
0
  6
BYBLOCK
 62
     5
 10
376.3227519999999
 20
29.18263069711727
 30
0.0
 11
376.3227519999999
 21
30.25841651853611
 31
0.0
 12
376.428552
 22
29.08742137510045
 32
0.0
 13
376.428552
 23
29.08742137510045
 33
0.0
  0
SOLID
  5
113BE
  8
0
  6
BYBLOCK
 62
     5
 10
376.428552
 20
29.08742137510045
 30
0.0
 11
376.3227519999999
 21
30.25841651853611
 31
0.0
 12
376.428552
 22
30.49813980841914
 32
0.0
 13
376.428552
 23
30.49813980841914
 33
0.0
  0
SOLID
  5
113BF
  8
0
  6
BYBLOCK
 62
     5
 10
376.3227519999999
 20
31.40021500000012
 30
0.0
 11
376.3227519999999
 21
33.46908533325269
 31
0.0
 12
376.428552
 22
31.17928286226351
 32
0.0
 13
376.428552
 23
31.17928286226351
 33
0.0
  0
SOLID
  5
113C0
  8
0
  6
BYBLOCK
 62
     5
 10
376.428552
 20
31.17928286226351
 30
0.0
 11
376.3227519999999
 21
33.46908533325269
 31
0.0
 12
376.428552
 22
33.76620100000014
 32
0.0
 13
376.428552
 23
33.76620100000014
 33
0.0
  0
SOLID
  5
113C1
  8
0
  6
BYBLOCK
 62
     5
 10
376.3227519999999
 20
33.95060626819734
 30
0.0
 11
376.3227519999999
 21
35.6753907449772
 31
0.0
 12
376.428552
 22
33.76620100000014
 32
0.0
 13
376.428552
 23
33.76620100000014
 33
0.0
  0
SOLID
  5
113C2
  8
0
  6
BYBLOCK
 62
     5
 10
376.428552
 20
33.76620100000014
 30
0.0
 11
376.3227519999999
 21
35.6753907449772
 31
0.0
 12
376.428552
 22
35.62910875443362
 32
0.0
 13
376.428552
 23
35.62910875443362
 33
0.0
  0
SOLID
  5
113C3
  8
0
  6
BYBLOCK
 62
     5
 10
376.428552
 20
29.08742137510045
 30
0.0
 11
376.428552
 21
30.49813980841914
 31
0.0
 12
376.584992
 22
28.94664116398236
 32
0.0
 13
376.584992
 23
28.94664116398236
 33
0.0
  0
SOLID
  5
113C4
  8
0
  6
BYBLOCK
 62
     5
 10
376.584992
 20
28.94664116398236
 30
0.0
 11
376.428552
 21
30.49813980841914
 31
0.0
 12
376.584992
 22
30.85260400000004
 32
0.0
 13
376.584992
 23
30.85260400000004
 33
0.0
  0
SOLID
  5
113C5
  8
0
  6
BYBLOCK
 62
     5
 10
376.428552
 20
31.17928286226351
 30
0.0
 11
376.428552
 21
35.62910875443362
 31
0.0
 12
376.584992
 22
30.85260400000004
 32
0.0
 13
376.584992
 23
30.85260400000004
 33
0.0
  0
SOLID
  5
113C6
  8
0
  6
BYBLOCK
 62
     5
 10
376.584992
 20
30.85260400000004
 30
0.0
 11
376.428552
 21
35.62910875443362
 31
0.0
 12
376.584992
 22
35.56067440093051
 32
0.0
 13
376.584992
 23
35.56067440093051
 33
0.0
  0
SOLID
  5
113C7
  8
0
  6
BYBLOCK
 62
     5
 10
376.584992
 20
28.94664116398236
 30
0.0
 11
376.584992
 21
35.56067440093051
 31
0.0
 12
376.623991
 22
28.91154600000004
 32
0.0
 13
376.623991
 23
28.91154600000004
 33
0.0
  0
SOLID
  5
113C8
  8
0
  6
BYBLOCK
 62
     5
 10
376.623991
 20
28.91154600000004
 30
0.0
 11
376.584992
 21
35.56067440093051
 31
0.0
 12
376.623991
 22
35.54361436927449
 32
0.0
 13
376.623991
 23
35.54361436927449
 33
0.0
  0
SOLID
  5
113C9
  8
0
  6
BYBLOCK
 62
     5
 10
376.623991
 20
28.91154600000004
 30
0.0
 11
376.623991
 21
35.54361436927449
 31
0.0
 12
377.628676
 22
29.4879688368898
 32
0.0
 13
377.628676
 23
29.4879688368898
 33
0.0
  0
SOLID
  5
113CA
  8
0
  6
BYBLOCK
 62
     5
 10
377.628676
 20
29.4879688368898
 30
0.0
 11
376.623991
 21
35.54361436927449
 31
0.0
 12
377.628676
 22
35.10411700000009
 32
0.0
 13
377.628676
 23
35.10411700000009
 33
0.0
  0
SOLID
  5
113CB
  8
0
  6
BYBLOCK
 62
     5
 10
377.628676
 20
29.4879688368898
 30
0.0
 11
377.628676
 21
35.10411700000009
 31
0.0
 12
377.658877
 22
29.50529620427055
 32
0.0
 13
377.658877
 23
29.50529620427055
 33
0.0
  0
SOLID
  5
113CC
  8
0
  6
BYBLOCK
 62
     5
 10
377.658877
 20
29.50529620427055
 30
0.0
 11
377.628676
 21
35.10411700000009
 31
0.0
 12
377.658877
 22
35.11857963091396
 32
0.0
 13
377.658877
 23
35.11857963091396
 33
0.0
  0
SOLID
  5
113CD
  8
0
  6
BYBLOCK
 62
     5
 10
377.658877
 20
29.50529620427055
 30
0.0
 11
377.658877
 21
32.52746100000013
 31
0.0
 12
377.676372
 22
29.51533369615246
 32
0.0
 13
377.676372
 23
29.51533369615246
 33
0.0
  0
SOLID
  5
113CE
  8
0
  6
BYBLOCK
 62
     5
 10
377.676372
 20
29.51533369615246
 30
0.0
 11
377.658877
 21
32.52746100000013
 31
0.0
 12
377.676372
 22
32.21984400000008
 32
0.0
 13
377.676372
 23
32.21984400000008
 33
0.0
  0
SOLID
  5
113CF
  8
0
  6
BYBLOCK
 62
     5
 10
377.658877
 20
32.52746100000013
 30
0.0
 11
377.658877
 21
35.11857963091396
 31
0.0
 12
377.676372
 22
32.64856789543995
 32
0.0
 13
377.676372
 23
32.64856789543995
 33
0.0
  0
SOLID
  5
113D0
  8
0
  6
BYBLOCK
 62
     5
 10
377.676372
 20
32.64856789543995
 30
0.0
 11
377.658877
 21
35.11857963091396
 31
0.0
 12
377.676372
 22
35.12695762263073
 32
0.0
 13
377.676372
 23
35.12695762263073
 33
0.0
  0
SOLID
  5
113D1
  8
0
  6
BYBLOCK
 62
     5
 10
377.676372
 20
29.51533369615246
 30
0.0
 11
377.676372
 21
32.21984400000008
 31
0.0
 12
377.7030619999999
 22
29.53064668033809
 32
0.0
 13
377.7030619999999
 23
29.53064668033809
 33
0.0
  0
SOLID
  5
113D2
  8
0
  6
BYBLOCK
 62
     5
 10
377.7030619999999
 20
29.53064668033809
 30
0.0
 11
377.676372
 21
32.21984400000008
 31
0.0
 12
377.7030619999999
 22
32.11377337472997
 32
0.0
 13
377.7030619999999
 23
32.11377337472997
 33
0.0
  0
SOLID
  5
113D3
  8
0
  6
BYBLOCK
 62
     5
 10
377.676372
 20
32.64856789543995
 30
0.0
 11
377.676372
 21
35.12695762263073
 31
0.0
 12
377.7030619999999
 22
32.83332600000006
 32
0.0
 13
377.7030619999999
 23
32.83332600000006
 33
0.0
  0
SOLID
  5
113D4
  8
0
  6
BYBLOCK
 62
     5
 10
377.7030619999999
 20
32.83332600000006
 30
0.0
 11
377.676372
 21
35.12695762263073
 31
0.0
 12
377.7030619999999
 22
35.13973890865071
 32
0.0
 13
377.7030619999999
 23
35.13973890865071
 33
0.0
  0
SOLID
  5
113D5
  8
0
  6
BYBLOCK
 62
     5
 10
377.7030619999999
 20
29.53064668033809
 30
0.0
 11
377.7030619999999
 21
32.11377337472997
 31
0.0
 12
377.752643
 22
29.55909302986641
 32
0.0
 13
377.752643
 23
29.55909302986641
 33
0.0
  0
SOLID
  5
113D6
  8
0
  6
BYBLOCK
 62
     5
 10
377.752643
 20
29.55909302986641
 30
0.0
 11
377.7030619999999
 21
32.11377337472997
 31
0.0
 12
377.752643
 22
31.91673000000014
 32
0.0
 13
377.752643
 23
31.91673000000014
 33
0.0
  0
SOLID
  5
113D7
  8
0
  6
BYBLOCK
 62
     5
 10
377.7030619999999
 20
32.83332600000006
 30
0.0
 11
377.7030619999999
 21
35.13973890865071
 31
0.0
 12
377.752643
 22
32.97608038175895
 32
0.0
 13
377.752643
 23
32.97608038175895
 33
0.0
  0
SOLID
  5
113D8
  8
0
  6
BYBLOCK
 62
     5
 10
377.752643
 20
32.97608038175895
 30
0.0
 11
377.7030619999999
 21
35.13973890865071
 31
0.0
 12
377.752643
 22
35.16348221858551
 32
0.0
 13
377.752643
 23
35.16348221858551
 33
0.0
  0
SOLID
  5
113D9
  8
0
  6
BYBLOCK
 62
     5
 10
377.752643
 20
29.55909302986641
 30
0.0
 11
377.752643
 21
31.91673000000014
 31
0.0
 12
377.803911
 22
29.58850727015237
 32
0.0
 13
377.803911
 23
29.58850727015237
 33
0.0
  0
SOLID
  5
113DA
  8
0
  6
BYBLOCK
 62
     5
 10
377.803911
 20
29.58850727015237
 30
0.0
 11
377.752643
 21
31.91673000000014
 31
0.0
 12
377.803911
 22
31.80963982633621
 32
0.0
 13
377.803911
 23
31.80963982633621
 33
0.0
  0
SOLID
  5
113DB
  8
0
  6
BYBLOCK
 62
     5
 10
377.752643
 20
32.97608038175895
 30
0.0
 11
377.752643
 21
35.16348221858551
 31
0.0
 12
377.803911
 22
33.12369200000012
 32
0.0
 13
377.803911
 23
33.12369200000012
 33
0.0
  0
SOLID
  5
113DC
  8
0
  6
BYBLOCK
 62
     5
 10
377.803911
 20
33.12369200000012
 30
0.0
 11
377.752643
 21
35.16348221858551
 31
0.0
 12
377.803911
 22
35.18803339774158
 32
0.0
 13
377.803911
 23
35.18803339774158
 33
0.0
  0
SOLID
  5
113DD
  8
0
  6
BYBLOCK
 62
     5
 10
377.803911
 20
29.58850727015237
 30
0.0
 11
377.803911
 21
31.80963982633621
 31
0.0
 12
377.885221
 22
29.63515765397166
 32
0.0
 13
377.885221
 23
29.63515765397166
 33
0.0
  0
SOLID
  5
113DE
  8
0
  6
BYBLOCK
 62
     5
 10
377.885221
 20
29.63515765397166
 30
0.0
 11
377.803911
 21
31.80963982633621
 31
0.0
 12
377.885221
 22
31.63979700000004
 32
0.0
 13
377.885221
 23
31.63979700000004
 33
0.0
  0
SOLID
  5
113DF
  8
0
  6
BYBLOCK
 62
     5
 10
377.803911
 20
33.12369200000012
 30
0.0
 11
377.803911
 21
35.18803339774158
 31
0.0
 12
377.885221
 22
33.25892712636548
 32
0.0
 13
377.885221
 23
33.25892712636548
 33
0.0
  0
SOLID
  5
113E0
  8
0
  6
BYBLOCK
 62
     5
 10
377.885221
 20
33.25892712636548
 30
0.0
 11
377.803911
 21
35.18803339774158
 31
0.0
 12
377.885221
 22
35.22697106601765
 32
0.0
 13
377.885221
 23
35.22697106601765
 33
0.0
  0
SOLID
  5
113E1
  8
0
  6
BYBLOCK
 62
     5
 10
377.885221
 20
29.63515765397166
 30
0.0
 11
377.885221
 21
31.63979700000004
 31
0.0
 12
377.918324
 22
29.65415000000007
 32
0.0
 13
377.918324
 23
29.65415000000007
 33
0.0
  0
SOLID
  5
113E2
  8
0
  6
BYBLOCK
 62
     5
 10
377.918324
 20
29.65415000000007
 30
0.0
 11
377.885221
 21
31.63979700000004
 31
0.0
 12
377.918324
 22
31.59627491686079
 32
0.0
 13
377.918324
 23
31.59627491686079
 33
0.0
  0
SOLID
  5
113E3
  8
0
  6
BYBLOCK
 62
     5
 10
377.885221
 20
33.25892712636548
 30
0.0
 11
377.885221
 21
35.22697106601765
 31
0.0
 12
377.918324
 22
33.31398417209259
 32
0.0
 13
377.918324
 23
33.31398417209259
 33
0.0
  0
SOLID
  5
113E4
  8
0
  6
BYBLOCK
 62
     5
 10
377.918324
 20
33.31398417209259
 30
0.0
 11
377.885221
 21
35.22697106601765
 31
0.0
 12
377.918324
 22
35.2428234043886
 32
0.0
 13
377.918324
 23
35.2428234043886
 33
0.0
  0
SOLID
  5
113E5
  8
0
  6
BYBLOCK
 62
     5
 10
377.918324
 20
29.65415000000007
 30
0.0
 11
377.918324
 21
31.59627491686079
 31
0.0
 12
377.962657
 22
29.6383604149253
 32
0.0
 13
377.962657
 23
29.6383604149253
 33
0.0
  0
SOLID
  5
113E6
  8
0
  6
BYBLOCK
 62
     5
 10
377.962657
 20
29.6383604149253
 30
0.0
 11
377.918324
 21
31.59627491686079
 31
0.0
 12
377.962657
 22
31.53798822043407
 32
0.0
 13
377.962657
 23
31.53798822043407
 33
0.0
  0
SOLID
  5
113E7
  8
0
  6
BYBLOCK
 62
     5
 10
377.918324
 20
33.31398417209259
 30
0.0
 11
377.918324
 21
35.2428234043886
 31
0.0
 12
377.962657
 22
33.38771900000006
 32
0.0
 13
377.962657
 23
33.38771900000006
 33
0.0
  0
SOLID
  5
113E8
  8
0
  6
BYBLOCK
 62
     5
 10
377.962657
 20
33.38771900000006
 30
0.0
 11
377.918324
 21
35.2428234043886
 31
0.0
 12
377.962657
 22
35.26405355624794
 32
0.0
 13
377.962657
 23
35.26405355624794
 33
0.0
  0
SOLID
  5
113E9
  8
0
  6
BYBLOCK
 62
     5
 10
377.962657
 20
29.6383604149253
 30
0.0
 11
377.962657
 21
31.53798822043407
 31
0.0
 12
378.071186
 22
29.59970686387799
 32
0.0
 13
378.071186
 23
29.59970686387799
 33
0.0
  0
SOLID
  5
113EA
  8
0
  6
BYBLOCK
 62
     5
 10
378.071186
 20
29.59970686387799
 30
0.0
 11
377.962657
 21
31.53798822043407
 31
0.0
 12
378.071186
 22
31.39530000000013
 32
0.0
 13
378.071186
 23
31.39530000000013
 33
0.0
  0
SOLID
  5
113EB
  8
0
  6
BYBLOCK
 62
     5
 10
377.962657
 20
33.38771900000006
 30
0.0
 11
377.962657
 21
35.26405355624794
 31
0.0
 12
378.071186
 22
33.51099513741544
 32
0.0
 13
378.071186
 23
33.51099513741544
 33
0.0
  0
SOLID
  5
113EC
  8
0
  6
BYBLOCK
 62
     5
 10
378.071186
 20
33.51099513741544
 30
0.0
 11
377.962657
 21
35.26405355624794
 31
0.0
 12
378.071186
 22
35.31602583764428
 32
0.0
 13
378.071186
 23
35.31602583764428
 33
0.0
  0
SOLID
  5
113ED
  8
0
  6
BYBLOCK
 62
     5
 10
378.071186
 20
29.59970686387799
 30
0.0
 11
378.071186
 21
31.39530000000013
 31
0.0
 12
378.16679
 22
29.56565666444442
 32
0.0
 13
378.16679
 23
29.56565666444442
 33
0.0
  0
SOLID
  5
113EE
  8
0
  6
BYBLOCK
 62
     5
 10
378.16679
 20
29.56565666444442
 30
0.0
 11
378.071186
 21
31.39530000000013
 31
0.0
 12
378.16679
 22
31.30756783485448
 32
0.0
 13
378.16679
 23
31.30756783485448
 33
0.0
  0
SOLID
  5
113EF
  8
0
  6
BYBLOCK
 62
     5
 10
378.071186
 20
33.51099513741544
 30
0.0
 11
378.071186
 21
35.31602583764428
 31
0.0
 12
378.16679
 22
33.61959000000013
 32
0.0
 13
378.16679
 23
33.61959000000013
 33
0.0
  0
SOLID
  5
113F0
  8
0
  6
BYBLOCK
 62
     5
 10
378.16679
 20
33.61959000000013
 30
0.0
 11
378.071186
 21
35.31602583764428
 31
0.0
 12
378.16679
 22
35.36180860529728
 32
0.0
 13
378.16679
 23
35.36180860529728
 33
0.0
  0
SOLID
  5
113F1
  8
0
  6
BYBLOCK
 62
     5
 10
378.16679
 20
29.56565666444442
 30
0.0
 11
378.16679
 21
31.30756783485448
 31
0.0
 12
378.176288
 22
29.56227386880595
 32
0.0
 13
378.176288
 23
29.56227386880595
 33
0.0
  0
SOLID
  5
113F2
  8
0
  6
BYBLOCK
 62
     5
 10
378.176288
 20
29.56227386880595
 30
0.0
 11
378.16679
 21
31.30756783485448
 31
0.0
 12
378.176288
 22
31.29885188045347
 32
0.0
 13
378.176288
 23
31.29885188045347
 33
0.0
  0
SOLID
  5
113F3
  8
0
  6
BYBLOCK
 62
     5
 10
378.16679
 20
33.61959000000013
 30
0.0
 11
378.16679
 21
35.36180860529728
 31
0.0
 12
378.176288
 22
33.62661763533015
 32
0.0
 13
378.176288
 23
33.62661763533015
 33
0.0
  0
SOLID
  5
113F4
  8
0
  6
BYBLOCK
 62
     5
 10
378.176288
 20
33.62661763533015
 30
0.0
 11
378.16679
 21
35.36180860529728
 31
0.0
 12
378.176288
 22
35.36635700000011
 32
0.0
 13
378.176288
 23
35.36635700000011
 33
0.0
  0
SOLID
  5
113F5
  8
0
  6
BYBLOCK
 62
     5
 10
378.176288
 20
29.56227386880595
 30
0.0
 11
378.176288
 21
31.29885188045347
 31
0.0
 12
378.296805
 22
29.51935068687699
 32
0.0
 13
378.296805
 23
29.51935068687699
 33
0.0
  0
SOLID
  5
113F6
  8
0
  6
BYBLOCK
 62
     5
 10
378.296805
 20
29.51935068687699
 30
0.0
 11
378.176288
 21
31.29885188045347
 31
0.0
 12
378.296805
 22
31.18825800000013
 32
0.0
 13
378.296805
 23
31.18825800000013
 33
0.0
  0
SOLID
  5
113F7
  8
0
  6
BYBLOCK
 62
     5
 10
378.176288
 20
33.62661763533015
 30
0.0
 11
378.176288
 21
35.36635700000011
 31
0.0
 12
378.296805
 22
33.71578899004351
 32
0.0
 13
378.296805
 23
33.71578899004351
 33
0.0
  0
SOLID
  5
113F8
  8
0
  6
BYBLOCK
 62
     5
 10
378.296805
 20
33.71578899004351
 30
0.0
 11
378.176288
 21
35.36635700000011
 31
0.0
 12
378.296805
 22
35.81024580578129
 32
0.0
 13
378.296805
 23
35.81024580578129
 33
0.0
  0
SOLID
  5
113F9
  8
0
  6
BYBLOCK
 62
     5
 10
378.296805
 20
29.51935068687699
 30
0.0
 11
378.296805
 21
31.18825800000013
 31
0.0
 12
378.41587
 22
29.4769446474272
 32
0.0
 13
378.41587
 23
29.4769446474272
 33
0.0
  0
SOLID
  5
113FA
  8
0
  6
BYBLOCK
 62
     5
 10
378.41587
 20
29.4769446474272
 30
0.0
 11
378.296805
 21
31.18825800000013
 31
0.0
 12
378.41587
 22
31.11714985308397
 32
0.0
 13
378.41587
 23
31.11714985308397
 33
0.0
  0
SOLID
  5
113FB
  8
0
  6
BYBLOCK
 62
     5
 10
378.296805
 20
33.71578899004351
 30
0.0
 11
378.296805
 21
35.81024580578129
 31
0.0
 12
378.41587
 22
33.80388600000015
 32
0.0
 13
378.41587
 23
33.80388600000015
 33
0.0
  0
SOLID
  5
113FC
  8
0
  6
BYBLOCK
 62
     5
 10
378.41587
 20
33.80388600000015
 30
0.0
 11
378.296805
 21
35.81024580578129
 31
0.0
 12
378.41587
 22
36.24878659803735
 32
0.0
 13
378.41587
 23
36.24878659803735
 33
0.0
  0
SOLID
  5
113FD
  8
0
  6
BYBLOCK
 62
     5
 10
378.41587
 20
29.4769446474272
 30
0.0
 11
378.41587
 21
31.11714985308397
 31
0.0
 12
378.492801
 22
29.44954500000006
 32
0.0
 13
378.492801
 23
29.44954500000006
 33
0.0
  0
SOLID
  5
113FE
  8
0
  6
BYBLOCK
 62
     5
 10
378.492801
 20
29.44954500000006
 30
0.0
 11
378.41587
 21
31.11714985308397
 31
0.0
 12
378.492801
 22
31.07120502588531
 32
0.0
 13
378.492801
 23
31.07120502588531
 33
0.0
  0
SOLID
  5
113FF
  8
0
  6
BYBLOCK
 62
     5
 10
378.41587
 20
33.80388600000015
 30
0.0
 11
378.41587
 21
36.24878659803735
 31
0.0
 12
378.492801
 22
33.84071471749759
 32
0.0
 13
378.492801
 23
33.84071471749759
 33
0.0
  0
SOLID
  5
11400
  8
0
  6
BYBLOCK
 62
     5
 10
378.492801
 20
33.84071471749759
 30
0.0
 11
378.41587
 21
36.24878659803735
 31
0.0
 12
378.492801
 22
36.53213923474048
 32
0.0
 13
378.492801
 23
36.53213923474048
 33
0.0
  0
SOLID
  5
11401
  8
0
  6
BYBLOCK
 62
     5
 10
378.492801
 20
29.44954500000006
 30
0.0
 11
378.492801
 21
31.07120502588531
 31
0.0
 12
378.565414
 22
29.26262153444166
 32
0.0
 13
378.565414
 23
29.26262153444166
 33
0.0
  0
SOLID
  5
11402
  8
0
  6
BYBLOCK
 62
     5
 10
378.565414
 20
29.26262153444166
 30
0.0
 11
378.492801
 21
31.07120502588531
 31
0.0
 12
378.565414
 22
31.02783900000009
 32
0.0
 13
378.565414
 23
31.02783900000009
 33
0.0
  0
SOLID
  5
11403
  8
0
  6
BYBLOCK
 62
     5
 10
378.492801
 20
33.84071471749759
 30
0.0
 11
378.492801
 21
36.53213923474048
 31
0.0
 12
378.565414
 22
33.87547630468144
 32
0.0
 13
378.565414
 23
33.87547630468144
 33
0.0
  0
SOLID
  5
11404
  8
0
  6
BYBLOCK
 62
     5
 10
378.565414
 20
33.87547630468144
 30
0.0
 11
378.492801
 21
36.53213923474048
 31
0.0
 12
378.565414
 22
36.79958779265499
 32
0.0
 13
378.565414
 23
36.79958779265499
 33
0.0
  0
SOLID
  5
11405
  8
0
  6
BYBLOCK
 62
     5
 10
378.565414
 20
29.26262153444166
 30
0.0
 11
378.565414
 21
31.02783900000009
 31
0.0
 12
378.567563
 22
29.25708948745999
 32
0.0
 13
378.567563
 23
29.25708948745999
 33
0.0
  0
SOLID
  5
11406
  8
0
  6
BYBLOCK
 62
     5
 10
378.567563
 20
29.25708948745999
 30
0.0
 11
378.565414
 21
31.02783900000009
 31
0.0
 12
378.567563
 22
31.02709262095303
 32
0.0
 13
378.567563
 23
31.02709262095303
 33
0.0
  0
SOLID
  5
11407
  8
0
  6
BYBLOCK
 62
     5
 10
378.565414
 20
33.87547630468144
 30
0.0
 11
378.565414
 21
36.79958779265499
 31
0.0
 12
378.567563
 22
33.87650508259803
 32
0.0
 13
378.567563
 23
33.87650508259803
 33
0.0
  0
SOLID
  5
11408
  8
0
  6
BYBLOCK
 62
     5
 10
378.567563
 20
33.87650508259803
 30
0.0
 11
378.565414
 21
36.79958779265499
 31
0.0
 12
378.567563
 22
36.80750300000011
 32
0.0
 13
378.567563
 23
36.80750300000011
 33
0.0
  0
SOLID
  5
11409
  8
0
  6
BYBLOCK
 62
     5
 10
378.567563
 20
29.25708948745999
 30
0.0
 11
378.567563
 21
31.02709262095303
 31
0.0
 12
378.6928019999999
 22
28.93469393978858
 32
0.0
 13
378.6928019999999
 23
28.93469393978858
 33
0.0
  0
SOLID
  5
1140A
  8
0
  6
BYBLOCK
 62
     5
 10
378.6928019999999
 20
28.93469393978858
 30
0.0
 11
378.567563
 21
31.02709262095303
 31
0.0
 12
378.6928019999999
 22
30.98359528941513
 32
0.0
 13
378.6928019999999
 23
30.98359528941513
 33
0.0
  0
SOLID
  5
1140B
  8
0
  6
BYBLOCK
 62
     5
 10
378.567563
 20
33.87650508259803
 30
0.0
 11
378.567563
 21
36.80750300000011
 31
0.0
 12
378.6928019999999
 22
33.93646000000012
 32
0.0
 13
378.6928019999999
 23
33.93646000000012
 33
0.0
  0
SOLID
  5
1140C
  8
0
  6
BYBLOCK
 62
     5
 10
378.6928019999999
 20
33.93646000000012
 30
0.0
 11
378.567563
 21
36.80750300000011
 31
0.0
 12
378.6928019999999
 22
36.81408436804573
 32
0.0
 13
378.6928019999999
 23
36.81408436804573
 33
0.0
  0
SOLID
  5
1140D
  8
0
  6
BYBLOCK
 62
     5
 10
378.6928019999999
 20
28.93469393978858
 30
0.0
 11
378.6928019999999
 21
30.98359528941513
 31
0.0
 12
378.855779
 22
28.51515163129936
 32
0.0
 13
378.855779
 23
28.51515163129936
 33
0.0
  0
SOLID
  5
1140E
  8
0
  6
BYBLOCK
 62
     5
 10
378.855779
 20
28.51515163129936
 30
0.0
 11
378.6928019999999
 21
30.98359528941513
 31
0.0
 12
378.855779
 22
30.92699100000004
 32
0.0
 13
378.855779
 23
30.92699100000004
 33
0.0
  0
SOLID
  5
1140F
  8
0
  6
BYBLOCK
 62
     5
 10
378.6928019999999
 20
33.93646000000012
 30
0.0
 11
378.6928019999999
 21
36.81408436804573
 31
0.0
 12
378.855779
 22
33.97746972820051
 32
0.0
 13
378.855779
 23
33.97746972820051
 33
0.0
  0
SOLID
  5
11410
  8
0
  6
BYBLOCK
 62
     5
 10
378.855779
 20
33.97746972820051
 30
0.0
 11
378.6928019999999
 21
36.81408436804573
 31
0.0
 12
378.855779
 22
36.82264888564784
 32
0.0
 13
378.855779
 23
36.82264888564784
 33
0.0
  0
SOLID
  5
11411
  8
0
  6
BYBLOCK
 62
     5
 10
378.855779
 20
28.51515163129936
 30
0.0
 11
378.855779
 21
30.92699100000004
 31
0.0
 12
378.995915
 22
28.15440759415033
 32
0.0
 13
378.995915
 23
28.15440759415033
 33
0.0
  0
SOLID
  5
11412
  8
0
  6
BYBLOCK
 62
     5
 10
378.995915
 20
28.15440759415033
 30
0.0
 11
378.855779
 21
30.92699100000004
 31
0.0
 12
378.995915
 22
30.90674661343736
 32
0.0
 13
378.995915
 23
30.90674661343736
 33
0.0
  0
SOLID
  5
11413
  8
0
  6
BYBLOCK
 62
     5
 10
378.855779
 20
33.97746972820051
 30
0.0
 11
378.855779
 21
36.82264888564784
 31
0.0
 12
378.995915
 22
34.01273200000014
 32
0.0
 13
378.995915
 23
34.01273200000014
 33
0.0
  0
SOLID
  5
11414
  8
0
  6
BYBLOCK
 62
     5
 10
378.995915
 20
34.01273200000014
 30
0.0
 11
378.855779
 21
36.82264888564784
 31
0.0
 12
378.995915
 22
36.83001309801333
 32
0.0
 13
378.995915
 23
36.83001309801333
 33
0.0
  0
SOLID
  5
11415
  8
0
  6
BYBLOCK
 62
     5
 10
378.995915
 20
28.15440759415033
 30
0.0
 11
378.995915
 21
30.90674661343736
 31
0.0
 12
379.033543
 22
28.05754400000012
 32
0.0
 13
379.033543
 23
28.05754400000012
 33
0.0
  0
SOLID
  5
11416
  8
0
  6
BYBLOCK
 62
     5
 10
379.033543
 20
28.05754400000012
 30
0.0
 11
378.995915
 21
30.90674661343736
 31
0.0
 12
379.033543
 22
30.90131078126304
 32
0.0
 13
379.033543
 23
30.90131078126304
 33
0.0
  0
SOLID
  5
11417
  8
0
  6
BYBLOCK
 62
     5
 10
378.995915
 20
34.01273200000014
 30
0.0
 11
378.995915
 21
36.83001309801333
 31
0.0
 12
379.033543
 22
34.01432028545013
 32
0.0
 13
379.033543
 23
34.01432028545013
 33
0.0
  0
SOLID
  5
11418
  8
0
  6
BYBLOCK
 62
     5
 10
379.033543
 20
34.01432028545013
 30
0.0
 11
378.995915
 21
36.83001309801333
 31
0.0
 12
379.033543
 22
36.83199046701836
 32
0.0
 13
379.033543
 23
36.83199046701836
 33
0.0
  0
SOLID
  5
11419
  8
0
  6
BYBLOCK
 62
     5
 10
379.033543
 20
28.05754400000012
 30
0.0
 11
379.033543
 21
30.90131078126304
 31
0.0
 12
379.161644
 22
28.06465846549737
 32
0.0
 13
379.161644
 23
28.06465846549737
 33
0.0
  0
SOLID
  5
1141A
  8
0
  6
BYBLOCK
 62
     5
 10
379.161644
 20
28.06465846549737
 30
0.0
 11
379.033543
 21
30.90131078126304
 31
0.0
 12
379.161644
 22
30.88280500000008
 32
0.0
 13
379.161644
 23
30.88280500000008
 33
0.0
  0
SOLID
  5
1141B
  8
0
  6
BYBLOCK
 62
     5
 10
379.033543
 20
34.01432028545013
 30
0.0
 11
379.033543
 21
36.83199046701836
 31
0.0
 12
379.161644
 22
34.01972745443145
 32
0.0
 13
379.161644
 23
34.01972745443145
 33
0.0
  0
SOLID
  5
1141C
  8
0
  6
BYBLOCK
 62
     5
 10
379.161644
 20
34.01972745443145
 30
0.0
 11
379.033543
 21
36.83199046701836
 31
0.0
 12
379.161644
 22
36.83872223450302
 32
0.0
 13
379.161644
 23
36.83872223450302
 33
0.0
  0
SOLID
  5
1141D
  8
0
  6
BYBLOCK
 62
     5
 10
379.161644
 20
28.06465846549737
 30
0.0
 11
379.161644
 21
30.88280500000008
 31
0.0
 12
379.3018599999999
 22
28.07244577312309
 32
0.0
 13
379.3018599999999
 23
28.07244577312309
 33
0.0
  0
SOLID
  5
1141E
  8
0
  6
BYBLOCK
 62
     5
 10
379.3018599999999
 20
28.07244577312309
 30
0.0
 11
379.161644
 21
30.88280500000008
 31
0.0
 12
379.3018599999999
 22
30.89078079975173
 32
0.0
 13
379.3018599999999
 23
30.89078079975173
 33
0.0
  0
SOLID
  5
1141F
  8
0
  6
BYBLOCK
 62
     5
 10
379.161644
 20
34.01972745443145
 30
0.0
 11
379.161644
 21
36.83872223450302
 31
0.0
 12
379.3018599999999
 22
34.02564600000005
 32
0.0
 13
379.3018599999999
 23
34.02564600000005
 33
0.0
  0
SOLID
  5
11420
  8
0
  6
BYBLOCK
 62
     5
 10
379.3018599999999
 20
34.02564600000005
 30
0.0
 11
379.161644
 21
36.83872223450302
 31
0.0
 12
379.3018599999999
 22
36.84609065090594
 32
0.0
 13
379.3018599999999
 23
36.84609065090594
 33
0.0
  0
SOLID
  5
11421
  8
0
  6
BYBLOCK
 62
     5
 10
379.3018599999999
 20
28.07244577312309
 30
0.0
 11
379.3018599999999
 21
30.89078079975173
 31
0.0
 12
379.425386
 22
28.07930615255037
 32
0.0
 13
379.425386
 23
28.07930615255037
 33
0.0
  0
SOLID
  5
11422
  8
0
  6
BYBLOCK
 62
     5
 10
379.425386
 20
28.07930615255037
 30
0.0
 11
379.3018599999999
 21
30.89078079975173
 31
0.0
 12
379.425386
 22
30.89780723496686
 32
0.0
 13
379.425386
 23
30.89780723496686
 33
0.0
  0
SOLID
  5
11423
  8
0
  6
BYBLOCK
 62
     5
 10
379.3018599999999
 20
34.02564600000005
 30
0.0
 11
379.3018599999999
 21
36.84609065090594
 31
0.0
 12
379.425386
 22
34.00780147985385
 32
0.0
 13
379.425386
 23
34.00780147985385
 33
0.0
  0
SOLID
  5
11424
  8
0
  6
BYBLOCK
 62
     5
 10
379.425386
 20
34.00780147985385
 30
0.0
 11
379.3018599999999
 21
36.84609065090594
 31
0.0
 12
379.425386
 22
36.8525820000001
 32
0.0
 13
379.425386
 23
36.8525820000001
 33
0.0
  0
SOLID
  5
11425
  8
0
  6
BYBLOCK
 62
     5
 10
379.425386
 20
28.07930615255037
 30
0.0
 11
379.425386
 21
30.89780723496686
 31
0.0
 12
379.469262
 22
28.08174293515283
 32
0.0
 13
379.469262
 23
28.08174293515283
 33
0.0
  0
SOLID
  5
11426
  8
0
  6
BYBLOCK
 62
     5
 10
379.469262
 20
28.08174293515283
 30
0.0
 11
379.425386
 21
30.89780723496686
 31
0.0
 12
379.469262
 22
30.90030300000012
 32
0.0
 13
379.469262
 23
30.90030300000012
 33
0.0
  0
SOLID
  5
11427
  8
0
  6
BYBLOCK
 62
     5
 10
379.425386
 20
34.00780147985385
 30
0.0
 11
379.425386
 21
36.8525820000001
 31
0.0
 12
379.469262
 22
34.00146316916675
 32
0.0
 13
379.469262
 23
34.00146316916675
 33
0.0
  0
SOLID
  5
11428
  8
0
  6
BYBLOCK
 62
     5
 10
379.469262
 20
34.00146316916675
 30
0.0
 11
379.425386
 21
36.8525820000001
 31
0.0
 12
379.469262
 22
36.74044874975388
 32
0.0
 13
379.469262
 23
36.74044874975388
 33
0.0
  0
SOLID
  5
11429
  8
0
  6
BYBLOCK
 62
     5
 10
379.469262
 20
28.08174293515283
 30
0.0
 11
379.469262
 21
30.90030300000012
 31
0.0
 12
379.607724
 22
28.08943282923391
 32
0.0
 13
379.607724
 23
28.08943282923391
 33
0.0
  0
SOLID
  5
1142A
  8
0
  6
BYBLOCK
 62
     5
 10
379.607724
 20
28.08943282923391
 30
0.0
 11
379.469262
 21
30.90030300000012
 31
0.0
 12
379.607724
 22
30.93645500060978
 32
0.0
 13
379.607724
 23
30.93645500060978
 33
0.0
  0
SOLID
  5
1142B
  8
0
  6
BYBLOCK
 62
     5
 10
379.469262
 20
34.00146316916675
 30
0.0
 11
379.469262
 21
36.74044874975388
 31
0.0
 12
379.607724
 22
33.98146100000008
 32
0.0
 13
379.607724
 23
33.98146100000008
 33
0.0
  0
SOLID
  5
1142C
  8
0
  6
BYBLOCK
 62
     5
 10
379.607724
 20
33.98146100000008
 30
0.0
 11
379.469262
 21
36.74044874975388
 31
0.0
 12
379.607724
 22
36.38658344535995
 32
0.0
 13
379.607724
 23
36.38658344535995
 33
0.0
  0
SOLID
  5
1142D
  8
0
  6
BYBLOCK
 62
     5
 10
379.607724
 20
28.08943282923391
 30
0.0
 11
379.607724
 21
30.93645500060978
 31
0.0
 12
379.767791
 22
28.0983226204826
 32
0.0
 13
379.767791
 23
28.0983226204826
 33
0.0
  0
SOLID
  5
1142E
  8
0
  6
BYBLOCK
 62
     5
 10
379.767791
 20
28.0983226204826
 30
0.0
 11
379.607724
 21
30.93645500060978
 31
0.0
 12
379.767791
 22
30.97824800000012
 32
0.0
 13
379.767791
 23
30.97824800000012
 33
0.0
  0
SOLID
  5
1142F
  8
0
  6
BYBLOCK
 62
     5
 10
379.607724
 20
33.98146100000008
 30
0.0
 11
379.607724
 21
36.38658344535995
 31
0.0
 12
379.767791
 22
33.92586765901716
 32
0.0
 13
379.767791
 23
33.92586765901716
 33
0.0
  0
SOLID
  5
11430
  8
0
  6
BYBLOCK
 62
     5
 10
379.767791
 20
33.92586765901716
 30
0.0
 11
379.607724
 21
36.38658344535995
 31
0.0
 12
379.767791
 22
35.97750255906327
 32
0.0
 13
379.767791
 23
35.97750255906327
 33
0.0
  0
SOLID
  5
11431
  8
0
  6
BYBLOCK
 62
     5
 10
379.767791
 20
28.0983226204826
 30
0.0
 11
379.767791
 21
30.97824800000012
 31
0.0
 12
379.897619
 22
28.10553300000015
 32
0.0
 13
379.897619
 23
28.10553300000015
 33
0.0
  0
SOLID
  5
11432
  8
0
  6
BYBLOCK
 62
     5
 10
379.897619
 20
28.10553300000015
 30
0.0
 11
379.767791
 21
30.97824800000012
 31
0.0
 12
379.897619
 22
31.04039933306865
 32
0.0
 13
379.897619
 23
31.04039933306865
 33
0.0
  0
SOLID
  5
11433
  8
0
  6
BYBLOCK
 62
     5
 10
379.767791
 20
33.92586765901716
 30
0.0
 11
379.767791
 21
35.97750255906327
 31
0.0
 12
379.897619
 22
33.88077671414324
 32
0.0
 13
379.897619
 23
33.88077671414324
 33
0.0
  0
SOLID
  5
11434
  8
0
  6
BYBLOCK
 62
     5
 10
379.897619
 20
33.88077671414324
 30
0.0
 11
379.767791
 21
35.97750255906327
 31
0.0
 12
379.897619
 22
35.64570304194763
 32
0.0
 13
379.897619
 23
35.64570304194763
 33
0.0
  0
SOLID
  5
11435
  8
0
  6
BYBLOCK
 62
     5
 10
379.897619
 20
28.10553300000015
 30
0.0
 11
379.897619
 21
31.04039933306865
 31
0.0
 12
379.8980923640335
 22
28.10729920373635
 32
0.0
 13
379.8980923640335
 23
28.10729920373635
 33
0.0
  0
SOLID
  5
11436
  8
0
  6
BYBLOCK
 62
     5
 10
379.8980923640335
 20
28.10729920373635
 30
0.0
 11
379.897619
 21
31.04039933306865
 31
0.0
 12
379.8980923640335
 22
31.04062594216456
 32
0.0
 13
379.8980923640335
 23
31.04062594216456
 33
0.0
  0
SOLID
  5
11437
  8
0
  6
BYBLOCK
 62
     5
 10
379.897619
 20
33.88077671414324
 30
0.0
 11
379.897619
 21
35.64570304194763
 31
0.0
 12
379.8980923640335
 22
33.88061230868727
 32
0.0
 13
379.8980923640335
 23
33.88061230868727
 33
0.0
  0
SOLID
  5
11438
  8
0
  6
BYBLOCK
 62
     5
 10
379.8980923640335
 20
33.88061230868727
 30
0.0
 11
379.897619
 21
35.64570304194763
 31
0.0
 12
379.8980923640335
 22
35.64449327242399
 32
0.0
 13
379.8980923640335
 23
35.64449327242399
 33
0.0
  0
SOLID
  5
11439
  8
0
  6
BYBLOCK
 62
     5
 10
379.8980923640335
 20
28.10729920373635
 30
0.0
 11
379.8980923640335
 21
31.04062594216456
 31
0.0
 12
379.970709
 22
28.37824453268881
 32
0.0
 13
379.970709
 23
28.37824453268881
 33
0.0
  0
SOLID
  5
1143A
  8
0
  6
BYBLOCK
 62
     5
 10
379.970709
 20
28.37824453268881
 30
0.0
 11
379.8980923640335
 21
31.04062594216456
 31
0.0
 12
379.970709
 22
31.07538901891435
 32
0.0
 13
379.970709
 23
31.07538901891435
 33
0.0
  0
SOLID
  5
1143B
  8
0
  6
BYBLOCK
 62
     5
 10
379.8980923640335
 20
33.88061230868727
 30
0.0
 11
379.8980923640335
 21
35.64449327242399
 31
0.0
 12
379.970709
 22
33.83847921276121
 32
0.0
 13
379.970709
 23
33.83847921276121
 33
0.0
  0
SOLID
  5
1143C
  8
0
  6
BYBLOCK
 62
     5
 10
379.970709
 20
33.83847921276121
 30
0.0
 11
379.8980923640335
 21
35.64449327242399
 31
0.0
 12
379.970709
 22
35.45890800000006
 32
0.0
 13
379.970709
 23
35.45890800000006
 33
0.0
  0
SOLID
  5
1143D
  8
0
  6
BYBLOCK
 62
     5
 10
379.970709
 20
28.37824453268881
 30
0.0
 11
379.970709
 21
31.07538901891435
 31
0.0
 12
380.044725
 22
28.65441113281874
 32
0.0
 13
380.044725
 23
28.65441113281874
 33
0.0
  0
SOLID
  5
1143E
  8
0
  6
BYBLOCK
 62
     5
 10
380.044725
 20
28.65441113281874
 30
0.0
 11
379.970709
 21
31.07538901891435
 31
0.0
 12
380.044725
 22
31.1108220000001
 32
0.0
 13
380.044725
 23
31.1108220000001
 33
0.0
  0
SOLID
  5
1143F
  8
0
  6
BYBLOCK
 62
     5
 10
379.970709
 20
33.83847921276121
 30
0.0
 11
379.970709
 21
35.45890800000006
 31
0.0
 12
380.044725
 22
33.79553418802196
 32
0.0
 13
380.044725
 23
33.79553418802196
 33
0.0
  0
SOLID
  5
11440
  8
0
  6
BYBLOCK
 62
     5
 10
380.044725
 20
33.79553418802196
 30
0.0
 11
379.970709
 21
35.45890800000006
 31
0.0
 12
380.044725
 22
35.43322234355033
 32
0.0
 13
380.044725
 23
35.43322234355033
 33
0.0
  0
SOLID
  5
11441
  8
0
  6
BYBLOCK
 62
     5
 10
380.044725
 20
28.65441113281874
 30
0.0
 11
380.044725
 21
31.1108220000001
 31
0.0
 12
380.163792
 22
29.09867086824961
 32
0.0
 13
380.163792
 23
29.09867086824961
 33
0.0
  0
SOLID
  5
11442
  8
0
  6
BYBLOCK
 62
     5
 10
380.163792
 20
29.09867086824961
 30
0.0
 11
380.044725
 21
31.1108220000001
 31
0.0
 12
380.163792
 22
31.19891978238501
 32
0.0
 13
380.163792
 23
31.19891978238501
 33
0.0
  0
SOLID
  5
11443
  8
0
  6
BYBLOCK
 62
     5
 10
380.044725
 20
33.79553418802196
 30
0.0
 11
380.044725
 21
35.43322234355033
 31
0.0
 12
380.163792
 22
33.72645000000011
 32
0.0
 13
380.163792
 23
33.72645000000011
 33
0.0
  0
SOLID
  5
11444
  8
0
  6
BYBLOCK
 62
     5
 10
380.163792
 20
33.72645000000011
 30
0.0
 11
380.044725
 21
35.43322234355033
 31
0.0
 12
380.163792
 22
35.39190270919426
 32
0.0
 13
380.163792
 23
35.39190270919426
 33
0.0
  0
SOLID
  5
11445
  8
0
  6
BYBLOCK
 62
     5
 10
380.163792
 20
29.09867086824961
 30
0.0
 11
380.163792
 21
31.19891978238501
 31
0.0
 12
380.284312
 22
29.54835200000014
 32
0.0
 13
380.284312
 23
29.54835200000014
 33
0.0
  0
SOLID
  5
11446
  8
0
  6
BYBLOCK
 62
     5
 10
380.284312
 20
29.54835200000014
 30
0.0
 11
380.163792
 21
31.19891978238501
 31
0.0
 12
380.284312
 22
31.28809264080112
 32
0.0
 13
380.284312
 23
31.28809264080112
 33
0.0
  0
SOLID
  5
11447
  8
0
  6
BYBLOCK
 62
     5
 10
380.163792
 20
33.72645000000011
 30
0.0
 11
380.163792
 21
35.39190270919426
 31
0.0
 12
380.284312
 22
33.61717840768218
 32
0.0
 13
380.284312
 23
33.61717840768218
 33
0.0
  0
SOLID
  5
11448
  8
0
  6
BYBLOCK
 62
     5
 10
380.284312
 20
33.61717840768218
 30
0.0
 11
380.163792
 21
35.39190270919426
 31
0.0
 12
380.284312
 22
35.35007884252596
 32
0.0
 13
380.284312
 23
35.35007884252596
 33
0.0
  0
SOLID
  5
11449
  8
0
  6
BYBLOCK
 62
     5
 10
380.284312
 20
29.54835200000014
 30
0.0
 11
380.284312
 21
31.28809264080112
 31
0.0
 12
380.293807
 22
29.55289894976211
 32
0.0
 13
380.293807
 23
29.55289894976211
 33
0.0
  0
SOLID
  5
1144A
  8
0
  6
BYBLOCK
 62
     5
 10
380.293807
 20
29.55289894976211
 30
0.0
 11
380.284312
 21
31.28809264080112
 31
0.0
 12
380.293807
 22
31.29511800000012
 32
0.0
 13
380.293807
 23
31.29511800000012
 33
0.0
  0
SOLID
  5
1144B
  8
0
  6
BYBLOCK
 62
     5
 10
380.284312
 20
33.61717840768218
 30
0.0
 11
380.284312
 21
35.35007884252596
 31
0.0
 12
380.293807
 22
33.60856959778291
 32
0.0
 13
380.293807
 23
33.60856959778291
 33
0.0
  0
SOLID
  5
1144C
  8
0
  6
BYBLOCK
 62
     5
 10
380.293807
 20
33.60856959778291
 30
0.0
 11
380.284312
 21
35.35007884252596
 31
0.0
 12
380.293807
 22
35.34678380756068
 32
0.0
 13
380.293807
 23
35.34678380756068
 33
0.0
  0
SOLID
  5
1144D
  8
0
  6
BYBLOCK
 62
     5
 10
380.293807
 20
29.55289894976211
 30
0.0
 11
380.293807
 21
31.29511800000012
 31
0.0
 12
380.393991
 22
29.60087489657125
 32
0.0
 13
380.393991
 23
29.60087489657125
 33
0.0
  0
SOLID
  5
1144E
  8
0
  6
BYBLOCK
 62
     5
 10
380.393991
 20
29.60087489657125
 30
0.0
 11
380.293807
 21
31.29511800000012
 31
0.0
 12
380.393991
 22
31.4075898887271
 32
0.0
 13
380.393991
 23
31.4075898887271
 33
0.0
  0
SOLID
  5
1144F
  8
0
  6
BYBLOCK
 62
     5
 10
380.293807
 20
33.60856959778291
 30
0.0
 11
380.293807
 21
35.34678380756068
 31
0.0
 12
380.393991
 22
33.51773600000013
 32
0.0
 13
380.393991
 23
33.51773600000013
 33
0.0
  0
SOLID
  5
11450
  8
0
  6
BYBLOCK
 62
     5
 10
380.393991
 20
33.51773600000013
 30
0.0
 11
380.293807
 21
35.34678380756068
 31
0.0
 12
380.393991
 22
35.31201711109289
 32
0.0
 13
380.393991
 23
35.31201711109289
 33
0.0
  0
SOLID
  5
11451
  8
0
  6
BYBLOCK
 62
     5
 10
380.393991
 20
29.60087489657125
 30
0.0
 11
380.393991
 21
31.4075898887271
 31
0.0
 12
380.496264
 22
29.64985122021583
 32
0.0
 13
380.496264
 23
29.64985122021583
 33
0.0
  0
SOLID
  5
11452
  8
0
  6
BYBLOCK
 62
     5
 10
380.496264
 20
29.64985122021583
 30
0.0
 11
380.393991
 21
31.4075898887271
 31
0.0
 12
380.496264
 22
31.52240700000004
 32
0.0
 13
380.496264
 23
31.52240700000004
 33
0.0
  0
SOLID
  5
11453
  8
0
  6
BYBLOCK
 62
     5
 10
380.393991
 20
33.51773600000013
 30
0.0
 11
380.393991
 21
35.31201711109289
 31
0.0
 12
380.496264
 22
33.37951184516224
 32
0.0
 13
380.496264
 23
33.37951184516224
 33
0.0
  0
SOLID
  5
11454
  8
0
  6
BYBLOCK
 62
     5
 10
380.496264
 20
33.37951184516224
 30
0.0
 11
380.393991
 21
35.31201711109289
 31
0.0
 12
380.496264
 22
35.27652547222992
 32
0.0
 13
380.496264
 23
35.27652547222992
 33
0.0
  0
SOLID
  5
11455
  8
0
  6
BYBLOCK
 62
     5
 10
380.496264
 20
29.64985122021583
 30
0.0
 11
380.496264
 21
31.52240700000004
 31
0.0
 12
380.542276
 22
29.67188537002601
 32
0.0
 13
380.542276
 23
29.67188537002601
 33
0.0
  0
SOLID
  5
11456
  8
0
  6
BYBLOCK
 62
     5
 10
380.542276
 20
29.67188537002601
 30
0.0
 11
380.496264
 21
31.52240700000004
 31
0.0
 12
380.542276
 22
31.59944999531244
 32
0.0
 13
380.542276
 23
31.59944999531244
 33
0.0
  0
SOLID
  5
11457
  8
0
  6
BYBLOCK
 62
     5
 10
380.496264
 20
33.37951184516224
 30
0.0
 11
380.496264
 21
35.27652547222992
 31
0.0
 12
380.542276
 22
33.31732563949305
 32
0.0
 13
380.542276
 23
33.31732563949305
 33
0.0
  0
SOLID
  5
11458
  8
0
  6
BYBLOCK
 62
     5
 10
380.542276
 20
33.31732563949305
 30
0.0
 11
380.496264
 21
35.27652547222992
 31
0.0
 12
380.542276
 22
35.26055800000006
 32
0.0
 13
380.542276
 23
35.26055800000006
 33
0.0
  0
SOLID
  5
11459
  8
0
  6
BYBLOCK
 62
     5
 10
380.542276
 20
29.67188537002601
 30
0.0
 11
380.542276
 21
31.59944999531244
 31
0.0
 12
380.578287
 22
29.68913025763823
 32
0.0
 13
380.578287
 23
29.68913025763823
 33
0.0
  0
SOLID
  5
1145A
  8
0
  6
BYBLOCK
 62
     5
 10
380.578287
 20
29.68913025763823
 30
0.0
 11
380.542276
 21
31.59944999531244
 31
0.0
 12
380.578287
 22
31.65974720700051
 32
0.0
 13
380.578287
 23
31.65974720700051
 33
0.0
  0
SOLID
  5
1145B
  8
0
  6
BYBLOCK
 62
     5
 10
380.542276
 20
33.31732563949305
 30
0.0
 11
380.542276
 21
35.26055800000006
 31
0.0
 12
380.578287
 22
33.26865600000008
 32
0.0
 13
380.578287
 23
33.26865600000008
 33
0.0
  0
SOLID
  5
1145C
  8
0
  6
BYBLOCK
 62
     5
 10
380.578287
 20
33.26865600000008
 30
0.0
 11
380.542276
 21
35.26055800000006
 31
0.0
 12
380.578287
 22
35.28121876298258
 32
0.0
 13
380.578287
 23
35.28121876298258
 33
0.0
  0
SOLID
  5
1145D
  8
0
  6
BYBLOCK
 62
     5
 10
380.578287
 20
29.68913025763823
 30
0.0
 11
380.578287
 21
31.65974720700051
 31
0.0
 12
380.6566839999999
 22
29.72667288222891
 32
0.0
 13
380.6566839999999
 23
29.72667288222891
 33
0.0
  0
SOLID
  5
1145E
  8
0
  6
BYBLOCK
 62
     5
 10
380.6566839999999
 20
29.72667288222891
 30
0.0
 11
380.578287
 21
31.65974720700051
 31
0.0
 12
380.6566839999999
 22
31.79101600000013
 32
0.0
 13
380.6566839999999
 23
31.79101600000013
 33
0.0
  0
SOLID
  5
1145F
  8
0
  6
BYBLOCK
 62
     5
 10
380.578287
 20
33.26865600000008
 30
0.0
 11
380.578287
 21
35.28121876298258
 31
0.0
 12
380.6566839999999
 22
33.10489240534369
 32
0.0
 13
380.6566839999999
 23
33.10489240534369
 33
0.0
  0
SOLID
  5
11460
  8
0
  6
BYBLOCK
 62
     5
 10
380.6566839999999
 20
33.10489240534369
 30
0.0
 11
380.578287
 21
35.28121876298258
 31
0.0
 12
380.6566839999999
 22
35.32619784813824
 32
0.0
 13
380.6566839999999
 23
35.32619784813824
 33
0.0
  0
SOLID
  5
11461
  8
0
  6
BYBLOCK
 62
     5
 10
380.6566839999999
 20
29.72667288222891
 30
0.0
 11
380.6566839999999
 21
31.79101600000013
 31
0.0
 12
380.710861
 22
29.75261707361958
 32
0.0
 13
380.710861
 23
29.75261707361958
 33
0.0
  0
SOLID
  5
11462
  8
0
  6
BYBLOCK
 62
     5
 10
380.710861
 20
29.75261707361958
 30
0.0
 11
380.6566839999999
 21
31.79101600000013
 31
0.0
 12
380.710861
 22
31.94700843360203
 32
0.0
 13
380.710861
 23
31.94700843360203
 33
0.0
  0
SOLID
  5
11463
  8
0
  6
BYBLOCK
 62
     5
 10
380.6566839999999
 20
33.10489240534369
 30
0.0
 11
380.6566839999999
 21
35.32619784813824
 31
0.0
 12
380.710861
 22
32.9917220000001
 32
0.0
 13
380.710861
 23
32.9917220000001
 33
0.0
  0
SOLID
  5
11464
  8
0
  6
BYBLOCK
 62
     5
 10
380.710861
 20
32.9917220000001
 30
0.0
 11
380.6566839999999
 21
35.32619784813824
 31
0.0
 12
380.710861
 22
35.3572810770435
 32
0.0
 13
380.710861
 23
35.3572810770435
 33
0.0
  0
SOLID
  5
11465
  8
0
  6
BYBLOCK
 62
     5
 10
380.710861
 20
29.75261707361958
 30
0.0
 11
380.710861
 21
31.94700843360203
 31
0.0
 12
380.75753
 22
29.77496584649382
 32
0.0
 13
380.75753
 23
29.77496584649382
 33
0.0
  0
SOLID
  5
11466
  8
0
  6
BYBLOCK
 62
     5
 10
380.75753
 20
29.77496584649382
 30
0.0
 11
380.710861
 21
31.94700843360203
 31
0.0
 12
380.75753
 22
32.08138300000007
 32
0.0
 13
380.75753
 23
32.08138300000007
 33
0.0
  0
SOLID
  5
11467
  8
0
  6
BYBLOCK
 62
     5
 10
380.710861
 20
32.9917220000001
 30
0.0
 11
380.710861
 21
35.3572810770435
 31
0.0
 12
380.75753
 22
32.81298332835157
 32
0.0
 13
380.75753
 23
32.81298332835157
 33
0.0
  0
SOLID
  5
11468
  8
0
  6
BYBLOCK
 62
     5
 10
380.75753
 20
32.81298332835157
 30
0.0
 11
380.710861
 21
35.3572810770435
 31
0.0
 12
380.75753
 22
35.38405670525795
 32
0.0
 13
380.75753
 23
35.38405670525795
 33
0.0
  0
SOLID
  5
11469
  8
0
  6
BYBLOCK
 62
     5
 10
380.75753
 20
29.77496584649382
 30
0.0
 11
380.75753
 21
32.08138300000007
 31
0.0
 12
380.788808
 22
29.7899442029609
 32
0.0
 13
380.788808
 23
29.7899442029609
 33
0.0
  0
SOLID
  5
1146A
  8
0
  6
BYBLOCK
 62
     5
 10
380.788808
 20
29.7899442029609
 30
0.0
 11
380.75753
 21
32.08138300000007
 31
0.0
 12
380.788808
 22
32.29788553897016
 32
0.0
 13
380.788808
 23
32.29788553897016
 33
0.0
  0
SOLID
  5
1146B
  8
0
  6
BYBLOCK
 62
     5
 10
380.75753
 20
32.81298332835157
 30
0.0
 11
380.75753
 21
35.38405670525795
 31
0.0
 12
380.788808
 22
32.69319100000007
 32
0.0
 13
380.788808
 23
32.69319100000007
 33
0.0
  0
SOLID
  5
1146C
  8
0
  6
BYBLOCK
 62
     5
 10
380.788808
 20
32.69319100000007
 30
0.0
 11
380.75753
 21
35.38405670525795
 31
0.0
 12
380.788808
 22
35.40200198155044
 32
0.0
 13
380.788808
 23
35.40200198155044
 33
0.0
  0
SOLID
  5
1146D
  8
0
  6
BYBLOCK
 62
     5
 10
380.788808
 20
29.7899442029609
 30
0.0
 11
380.788808
 21
32.29788553897016
 31
0.0
 12
380.801718
 22
29.7961265222265
 32
0.0
 13
380.801718
 23
29.7961265222265
 33
0.0
  0
SOLID
  5
1146E
  8
0
  6
BYBLOCK
 62
     5
 10
380.801718
 20
29.7961265222265
 30
0.0
 11
380.788808
 21
32.29788553897016
 31
0.0
 12
380.801718
 22
32.38724700000012
 32
0.0
 13
380.801718
 23
32.38724700000012
 33
0.0
  0
SOLID
  5
1146F
  8
0
  6
BYBLOCK
 62
     5
 10
380.788808
 20
32.69319100000007
 30
0.0
 11
380.788808
 21
35.40200198155044
 31
0.0
 12
380.801718
 22
32.38724700000012
 32
0.0
 13
380.801718
 23
32.38724700000012
 33
0.0
  0
SOLID
  5
11470
  8
0
  6
BYBLOCK
 62
     5
 10
380.801718
 20
32.38724700000012
 30
0.0
 11
380.788808
 21
35.40200198155044
 31
0.0
 12
380.801718
 22
35.40940889749568
 32
0.0
 13
380.801718
 23
35.40940889749568
 33
0.0
  0
SOLID
  5
11471
  8
0
  6
BYBLOCK
 62
     5
 10
380.801718
 20
29.7961265222265
 30
0.0
 11
380.801718
 21
35.40940889749568
 31
0.0
 12
380.831925
 22
29.81059200000004
 32
0.0
 13
380.831925
 23
29.81059200000004
 33
0.0
  0
SOLID
  5
11472
  8
0
  6
BYBLOCK
 62
     5
 10
380.831925
 20
29.81059200000004
 30
0.0
 11
380.801718
 21
35.40940889749568
 31
0.0
 12
380.831925
 22
35.42673970384413
 32
0.0
 13
380.831925
 23
35.42673970384413
 33
0.0
  0
SOLID
  5
11473
  8
0
  6
BYBLOCK
 62
     5
 10
380.831925
 20
29.81059200000004
 30
0.0
 11
380.831925
 21
35.42673970384413
 31
0.0
 12
381.836611
 22
29.36743558959934
 32
0.0
 13
381.836611
 23
29.36743558959934
 33
0.0
  0
SOLID
  5
11474
  8
0
  6
BYBLOCK
 62
     5
 10
381.836611
 20
29.36743558959934
 30
0.0
 11
380.831925
 21
35.42673970384413
 31
0.0
 12
381.836611
 22
36.00316300000009
 32
0.0
 13
381.836611
 23
36.00316300000009
 33
0.0
  0
SOLID
  5
11475
  8
0
  6
BYBLOCK
 62
     5
 10
381.836611
 20
29.36743558959934
 30
0.0
 11
381.836611
 21
36.00316300000009
 31
0.0
 12
381.878516
 22
29.34895173556153
 32
0.0
 13
381.878516
 23
29.34895173556153
 33
0.0
  0
SOLID
  5
11476
  8
0
  6
BYBLOCK
 62
     5
 10
381.878516
 20
29.34895173556153
 30
0.0
 11
381.836611
 21
36.00316300000009
 31
0.0
 12
381.878516
 22
35.96545254629132
 32
0.0
 13
381.878516
 23
35.96545254629132
 33
0.0
  0
SOLID
  5
11477
  8
0
  6
BYBLOCK
 62
     5
 10
381.878516
 20
29.34895173556153
 30
0.0
 11
381.878516
 21
34.05584900000008
 31
0.0
 12
382.034958
 22
29.27994681745187
 32
0.0
 13
382.034958
 23
29.27994681745187
 33
0.0
  0
SOLID
  5
11478
  8
0
  6
BYBLOCK
 62
     5
 10
382.034958
 20
29.27994681745187
 30
0.0
 11
381.878516
 21
34.05584900000008
 31
0.0
 12
382.034958
 22
33.72916845278795
 32
0.0
 13
382.034958
 23
33.72916845278795
 33
0.0
  0
SOLID
  5
11479
  8
0
  6
BYBLOCK
 62
     5
 10
381.878516
 20
34.05584900000008
 30
0.0
 11
381.878516
 21
35.96545254629132
 31
0.0
 12
382.034958
 22
34.41367134022872
 32
0.0
 13
382.034958
 23
34.41367134022872
 33
0.0
  0
SOLID
  5
1147A
  8
0
  6
BYBLOCK
 62
     5
 10
382.034958
 20
34.41367134022872
 30
0.0
 11
381.878516
 21
35.96545254629132
 31
0.0
 12
382.034958
 22
35.82466985212334
 32
0.0
 13
382.034958
 23
35.82466985212334
 33
0.0
  0
SOLID
  5
1147B
  8
0
  6
BYBLOCK
 62
     5
 10
382.034958
 20
29.27994681745187
 30
0.0
 11
382.034958
 21
31.1422510000001
 31
0.0
 12
382.140758
 22
29.23327955203722
 32
0.0
 13
382.140758
 23
29.23327955203722
 33
0.0
  0
SOLID
  5
1147C
  8
0
  6
BYBLOCK
 62
     5
 10
382.140758
 20
29.23327955203722
 30
0.0
 11
382.034958
 21
31.1422510000001
 31
0.0
 12
382.140758
 22
30.95784537763021
 32
0.0
 13
382.140758
 23
30.95784537763021
 33
0.0
  0
SOLID
  5
1147D
  8
0
  6
BYBLOCK
 62
     5
 10
382.034958
 20
31.1422510000001
 30
0.0
 11
382.034958
 21
33.72916845278795
 31
0.0
 12
382.140758
 22
31.44700029857723
 32
0.0
 13
382.140758
 23
31.44700029857723
 33
0.0
  0
SOLID
  5
1147E
  8
0
  6
BYBLOCK
 62
     5
 10
382.140758
 20
31.44700029857723
 30
0.0
 11
382.034958
 21
33.72916845278795
 31
0.0
 12
382.140758
 22
33.50823800000012
 32
0.0
 13
382.140758
 23
33.50823800000012
 33
0.0
  0
SOLID
  5
1147F
  8
0
  6
BYBLOCK
 62
     5
 10
382.034958
 20
34.41367134022872
 30
0.0
 11
382.034958
 21
35.82466985212334
 31
0.0
 12
382.140758
 22
34.65566264432979
 32
0.0
 13
382.140758
 23
34.65566264432979
 33
0.0
  0
SOLID
  5
11480
  8
0
  6
BYBLOCK
 62
     5
 10
382.140758
 20
34.65566264432979
 30
0.0
 11
382.034958
 21
35.82466985212334
 31
0.0
 12
382.140758
 22
35.72946006803102
 32
0.0
 13
382.140758
 23
35.72946006803102
 33
0.0
  0
SOLID
  5
11481
  8
0
  6
BYBLOCK
 62
     5
 10
382.140758
 20
29.23327955203722
 30
0.0
 11
382.140758
 21
30.95784537763021
 31
0.0
 12
382.20067
 22
29.20685300000014
 32
0.0
 13
382.20067
 23
29.20685300000014
 33
0.0
  0
SOLID
  5
11482
  8
0
  6
BYBLOCK
 62
     5
 10
382.20067
 20
29.20685300000014
 30
0.0
 11
382.140758
 21
30.95784537763021
 31
0.0
 12
382.20067
 22
30.85342090081144
 32
0.0
 13
382.20067
 23
30.85342090081144
 33
0.0
  0
SOLID
  5
11483
  8
0
  6
BYBLOCK
 62
     5
 10
382.140758
 20
31.44700029857723
 30
0.0
 11
382.140758
 21
33.50823800000012
 31
0.0
 12
382.20067
 22
31.61957251007396
 32
0.0
 13
382.20067
 23
31.61957251007396
 33
0.0
  0
SOLID
  5
11484
  8
0
  6
BYBLOCK
 62
     5
 10
382.20067
 20
31.61957251007396
 30
0.0
 11
382.140758
 21
33.50823800000012
 31
0.0
 12
382.20067
 22
33.49218086812227
 32
0.0
 13
382.20067
 23
33.49218086812227
 33
0.0
  0
SOLID
  5
11485
  8
0
  6
BYBLOCK
 62
     5
 10
382.140758
 20
34.65566264432979
 30
0.0
 11
382.140758
 21
35.72946006803102
 31
0.0
 12
382.20067
 22
34.79269651022114
 32
0.0
 13
382.20067
 23
34.79269651022114
 33
0.0
  0
SOLID
  5
11486
  8
0
  6
BYBLOCK
 62
     5
 10
382.20067
 20
34.79269651022114
 30
0.0
 11
382.140758
 21
35.72946006803102
 31
0.0
 12
382.20067
 22
35.67554505305429
 32
0.0
 13
382.20067
 23
35.67554505305429
 33
0.0
  0
SOLID
  5
11487
  8
0
  6
BYBLOCK
 62
     5
 10
382.20067
 20
29.20685300000014
 30
0.0
 11
382.20067
 21
30.85342090081144
 31
0.0
 12
382.23498
 22
29.24497949111721
 32
0.0
 13
382.23498
 23
29.24497949111721
 33
0.0
  0
SOLID
  5
11488
  8
0
  6
BYBLOCK
 62
     5
 10
382.23498
 20
29.24497949111721
 30
0.0
 11
382.20067
 21
30.85342090081144
 31
0.0
 12
382.23498
 22
30.7936197958633
 32
0.0
 13
382.23498
 23
30.7936197958633
 33
0.0
  0
SOLID
  5
11489
  8
0
  6
BYBLOCK
 62
     5
 10
382.20067
 20
31.61957251007396
 30
0.0
 11
382.20067
 21
33.49218086812227
 31
0.0
 12
382.23498
 22
31.71840000000009
 32
0.0
 13
382.23498
 23
31.71840000000009
 33
0.0
  0
SOLID
  5
1148A
  8
0
  6
BYBLOCK
 62
     5
 10
382.23498
 20
31.71840000000009
 30
0.0
 11
382.20067
 21
33.49218086812227
 31
0.0
 12
382.23498
 22
33.48298537815817
 32
0.0
 13
382.23498
 23
33.48298537815817
 33
0.0
  0
SOLID
  5
1148B
  8
0
  6
BYBLOCK
 62
     5
 10
382.20067
 20
34.79269651022114
 30
0.0
 11
382.20067
 21
35.67554505305429
 31
0.0
 12
382.23498
 22
34.87117214012388
 32
0.0
 13
382.23498
 23
34.87117214012388
 33
0.0
  0
SOLID
  5
1148C
  8
0
  6
BYBLOCK
 62
     5
 10
382.23498
 20
34.87117214012388
 30
0.0
 11
382.20067
 21
35.67554505305429
 31
0.0
 12
382.23498
 22
35.64466936598238
 32
0.0
 13
382.23498
 23
35.64466936598238
 33
0.0
  0
SOLID
  5
1148D
  8
0
  6
BYBLOCK
 62
     5
 10
382.23498
 20
29.24497949111721
 30
0.0
 11
382.23498
 21
30.7936197958633
 31
0.0
 12
382.477672
 22
29.51466746494939
 32
0.0
 13
382.477672
 23
29.51466746494939
 33
0.0
  0
SOLID
  5
1148E
  8
0
  6
BYBLOCK
 62
     5
 10
382.477672
 20
29.51466746494939
 30
0.0
 11
382.23498
 21
30.7936197958633
 31
0.0
 12
382.477672
 22
30.37061630527545
 32
0.0
 13
382.477672
 23
30.37061630527545
 33
0.0
  0
SOLID
  5
1148F
  8
0
  6
BYBLOCK
 62
     5
 10
382.23498
 20
31.71840000000009
 30
0.0
 11
382.23498
 21
33.48298537815817
 31
0.0
 12
382.477672
 22
31.81267705688726
 32
0.0
 13
382.477672
 23
31.81267705688726
 33
0.0
  0
SOLID
  5
11490
  8
0
  6
BYBLOCK
 62
     5
 10
382.477672
 20
31.81267705688726
 30
0.0
 11
382.23498
 21
33.48298537815817
 31
0.0
 12
382.477672
 22
33.41794102227455
 32
0.0
 13
382.477672
 23
33.41794102227455
 33
0.0
  0
SOLID
  5
11491
  8
0
  6
BYBLOCK
 62
     5
 10
382.23498
 20
34.87117214012388
 30
0.0
 11
382.23498
 21
35.64466936598238
 31
0.0
 12
382.477672
 22
35.42627000000005
 32
0.0
 13
382.477672
 23
35.42627000000005
 33
0.0
  0
SOLID
  5
11492
  8
0
  6
BYBLOCK
 62
     5
 10
382.477672
 20
29.51466746494939
 30
0.0
 11
382.477672
 21
30.37061630527545
 31
0.0
 12
382.777563
 22
29.84791700000005
 32
0.0
 13
382.777563
 23
29.84791700000005
 33
0.0
  0
SOLID
  5
11493
  8
0
  6
BYBLOCK
 62
     5
 10
382.477672
 20
31.81267705688726
 30
0.0
 11
382.477672
 21
33.41794102227455
 31
0.0
 12
382.777563
 22
31.92917385475019
 32
0.0
 13
382.777563
 23
31.92917385475019
 33
0.0
  0
SOLID
  5
11494
  8
0
  6
BYBLOCK
 62
     5
 10
382.777563
 20
31.92917385475019
 30
0.0
 11
382.477672
 21
33.41794102227455
 31
0.0
 12
382.777563
 22
33.33756665093023
 32
0.0
 13
382.777563
 23
33.33756665093023
 33
0.0
  0
SOLID
  5
11495
  8
0
  6
BYBLOCK
 62
     5
 10
382.777563
 20
31.92917385475019
 30
0.0
 11
382.777563
 21
33.33756665093023
 31
0.0
 12
383.583578
 22
32.24228150562833
 32
0.0
 13
383.583578
 23
32.24228150562833
 33
0.0
  0
SOLID
  5
11496
  8
0
  6
BYBLOCK
 62
     5
 10
383.583578
 20
32.24228150562833
 30
0.0
 11
382.777563
 21
33.33756665093023
 31
0.0
 12
383.583578
 22
33.12154500000008
 32
0.0
 13
383.583578
 23
33.12154500000008
 33
0.0
  0
SOLID
  5
11497
  8
0
  6
BYBLOCK
 62
     5
 10
383.583578
 20
32.24228150562833
 30
0.0
 11
383.583578
 21
33.12154500000009
 31
0.0
 12
383.626981
 22
32.25914200000011
 32
0.0
 13
383.626981
 23
32.25914200000011
 33
0.0
  0
ENDBLK
  5
1149B
  8
0
$blocks
  0
ENDSEC
  0
SECTION
  2
ENTITIES
  0
POLYLINE
  5
100
  8
0
 62
     7
 66
     1
 10
0.0
 20
0.0
 30
0.0
  0
VERTEX
  5
11663
  8
0
 62
     7
 10
10.0
 20
-286.9999999999999
 30
0.0
  0
VERTEX
  5
11664
  8
0
 62
     7
 10
410.0
 20
-286.9999999999999
 30
0.0
  0
VERTEX
  5
11665
  8
0
 62
     7
 10
410.0
 20
-10.0
 30
0.0
  0
VERTEX
  5
11666
  8
0
 62
     7
 10
10.0
 20
-10.0
 30
0.0
  0
VERTEX
  5
11667
  8
0
 62
     7
 10
10.0
 20
-286.9999999999999
 30
0.0
  0
SEQEND
  5
1174A
  8
0
 62
     7
  0
POLYLINE
  5
101
  8
0
 62
     7
 66
     1
 10
0.0
 20
0.0
 30
0.0
  0
VERTEX
  5
11668
  8
0
 62
     7
 10
210.0
 20
-10.0
 30
0.0
  0
VERTEX
  5
11669
  8
0
 62
     7
 10
210.0
 20
0.0
 30
0.0
  0
SEQEND
  5
1174B
  8
0
 62
     7
  0
POLYLINE
  5
102
  8
0
 62
     7
 66
     1
 10
0.0
 20
0.0
 30
0.0
  0
VERTEX
  5
1166A
  8
0
 62
     7
 10
210.0
 20
-286.9999999999999
 30
0.0
  0
VERTEX
  5
1166B
  8
0
 62
     7
 10
210.0
 20
-296.9999999999999
 30
0.0
  0
SEQEND
  5
1174C
  8
0
 62
     7
  0
POLYLINE
  5
103
  8
0
 62
     7
 66
     1
 10
0.0
 20
0.0
 30
0.0
  0
VERTEX
  5
1166C
  8
0
 62
     7
 10
10.0
 20
-148.4999999999999
 30
0.0
  0
VERTEX
  5
1166D
  8
0
 62
     7
 10
0.0
 20
-148.4999999999999
 30
0.0
  0
SEQEND
  5
1174D
  8
0
 62
     7
  0
POLYLINE
  5
104
  8
0
 62
     7
 66
     1
 10
0.0
 20
0.0
 30
0.0
  0
VERTEX
  5
1166E
  8
0
 62
     7
 10
410.0
 20
-148.4999999999999
 30
0.0
  0
VERTEX
  5
1166F
  8
0
 62
     7
 10
420.0
 20
-148.4999999999999
 30
0.0
  0
SEQEND
  5
1174E
  8
0
 62
     7
  0
POLYLINE
  5
105
  8
0
 62
     7
 66
     1
 10
0.0
 20
0.0
 30
0.0
  0
VERTEX
  5
11670
  8
0
 62
     7
 10
367.5
 20
-286.9999999999999
 30
0.0
  0
VERTEX
  5
11671
  8
0
 62
     7
 10
367.5
 20
-294.4999999999999
 30
0.0
  0
SEQEND
  5
1174F
  8
0
 62
     7
  0
POLYLINE
  5
106
  8
0
 62
     7
 66
     1
 10
0.0
 20
0.0
 30
0.0
  0
VERTEX
  5
11672
  8
0
 62
     7
 10
52.5
 20
-286.9999999999999
 30
0.0
  0
VERTEX
  5
11673
  8
0
 62
     7
 10
52.5
 20
-294.4999999999999
 30
0.0
  0
SEQEND
  5
11750
  8
0
 62
     7
  0
POLYLINE
  5
107
  8
0
 62
     7
 66
     1
 10
0.0
 20
0.0
 30
0.0
  0
VERTEX
  5
11674
  8
0
 62
     7
 10
315.0
 20
-286.9999999999999
 30
0.0
  0
VERTEX
  5
11675
  8
0
 62
     7
 10
315.0
 20
-294.4999999999999
 30
0.0
  0
SEQEND
  5
11751
  8
0
 62
     7
  0
POLYLINE
  5
108
  8
0
 62
     7
 66
     1
 10
0.0
 20
0.0
 30
0.0
  0
VERTEX
  5
11676
  8
0
 62
     7
 10
105.0
 20
-286.9999999999999
 30
0.0
  0
VERTEX
  5
11677
  8
0
 62
     7
 10
105.0
 20
-294.4999999999999
 30
0.0
  0
SEQEND
  5
11752
  8
0
 62
     7
  0
POLYLINE
  5
109
  8
0
 62
     7
 66
     1
 10
0.0
 20
0.0
 30
0.0
  0
VERTEX
  5
11678
  8
0
 62
     7
 10
262.5
 20
-10.0
 30
0.0
  0
VERTEX
  5
11679
  8
0
 62
     7
 10
262.5
 20
-2.5
 30
0.0
  0
SEQEND
  5
11753
  8
0
 62
     7
  0
POLYLINE
  5
10A
  8
0
 62
     7
 66
     1
 10
0.0
 20
0.0
 30
0.0
  0
VERTEX
  5
1167A
  8
0
 62
     7
 10
157.5
 20
-10.0
 30
0.0
  0
VERTEX
  5
1167B
  8
0
 62
     7
 10
157.5
 20
-2.5
 30
0.0
  0
SEQEND
  5
11754
  8
0
 62
     7
  0
POLYLINE
  5
10B
  8
0
 62
     7
 66
     1
 10
0.0
 20
0.0
 30
0.0
  0
VERTEX
  5
1167C
  8
0
 62
     7
 10
315.0
 20
-10.0
 30
0.0
  0
VERTEX
  5
1167D
  8
0
 62
     7
 10
315.0
 20
-2.5
 30
0.0
  0
SEQEND
  5
11755
  8
0
 62
     7
  0
POLYLINE
  5
10C
  8
0
 62
     7
 66
     1
 10
0.0
 20
0.0
 30
0.0
  0
VERTEX
  5
1167E
  8
0
 62
     7
 10
105.0
 20
-10.0
 30
0.0
  0
VERTEX
  5
1167F
  8
0
 62
     7
 10
105.0
 20
-2.5
 30
0.0
  0
SEQEND
  5
11756
  8
0
 62
     7
  0
POLYLINE
  5
10D
  8
0
 62
     7
 66
     1
 10
0.0
 20
0.0
 30
0.0
  0
VERTEX
  5
11680
  8
0
 62
     7
 10
367.5
 20
-10.0
 30
0.0
  0
VERTEX
  5
11681
  8
0
 62
     7
 10
367.5
 20
-2.5
 30
0.0
  0
SEQEND
  5
11757
  8
0
 62
     7
  0
POLYLINE
  5
10E
  8
0
 62
     7
 66
     1
 10
0.0
 20
0.0
 30
0.0
  0
VERTEX
  5
11682
  8
0
 62
     7
 10
52.5
 20
-10.0
 30
0.0
  0
VERTEX
  5
11683
  8
0
 62
     7
 10
52.5
 20
-2.5
 30
0.0
  0
SEQEND
  5
11758
  8
0
 62
     7
  0
POLYLINE
  5
10F
  8
0
 62
     7
 66
     1
 10
0.0
 20
0.0
 30
0.0
  0
VERTEX
  5
11684
  8
0
 62
     7
 10
10.0
 20
-74.30000000000001
 30
0.0
  0
VERTEX
  5
11685
  8
0
 62
     7
 10
2.5
 20
-74.30000000000001
 30
0.0
  0
SEQEND
  5
11759
  8
0
 62
     7
  0
POLYLINE
  5
110
  8
0
 62
     7
 66
     1
 10
0.0
 20
0.0
 30
0.0
  0
VERTEX
  5
11686
  8
0
 62
     7
 10
10.0
 20
-222.6999999999999
 30
0.0
  0
VERTEX
  5
11687
  8
0
 62
     7
 10
2.5
 20
-222.6999999999999
 30
0.0
  0
SEQEND
  5
1175A
  8
0
 62
     7
  0
POLYLINE
  5
111
  8
0
 62
     7
 66
     1
 10
0.0
 20
0.0
 30
0.0
  0
VERTEX
  5
11688
  8
0
 62
     7
 10
410.0
 20
-74.30000000000001
 30
0.0
  0
VERTEX
  5
11689
  8
0
 62
     7
 10
417.5
 20
-74.30000000000001
 30
0.0
  0
SEQEND
  5
1175B
  8
0
 62
     7
  0
POLYLINE
  5
112
  8
0
 62
     7
 66
     1
 10
0.0
 20
0.0
 30
0.0
  0
VERTEX
  5
1168A
  8
0
 62
     7
 10
410.0
 20
-222.6999999999999
 30
0.0
  0
VERTEX
  5
1168B
  8
0
 62
     7
 10
417.5
 20
-222.6999999999999
 30
0.0
  0
SEQEND
  5
1175C
  8
0
 62
     7
  0
POLYLINE
  5
113
  8
0
 62
     7
 66
     1
 10
0.0
 20
0.0
 30
0.0
  0
VERTEX
  5
1168C
  8
0
 62
     7
 10
110.0
 20
-289.4999999999999
 30
0.0
  0
VERTEX
  5
1168D
  8
0
 62
     7
 10
310.0
 20
-289.4999999999999
 30
0.0
  0
SEQEND
  5
1175D
  8
0
 62
     7
  0
POLYLINE
  5
114
  8
0
 62
     7
 66
     1
 10
0.0
 20
0.0
 30
0.0
  0
VERTEX
  5
1168E
  8
0
 62
     7
 10
160.0
 20
-286.9999999999999
 30
0.0
  0
VERTEX
  5
1168F
  8
0
 62
     7
 10
160.0
 20
-291.9999999999999
 30
0.0
  0
SEQEND
  5
1175E
  8
0
 62
     7
  0
POLYLINE
  5
115
  8
0
 62
     7
 66
     1
 10
0.0
 20
0.0
 30
0.0
  0
VERTEX
  5
11690
  8
0
 62
     7
 10
260.0
 20
-286.9999999999999
 30
0.0
  0
VERTEX
  5
11691
  8
0
 62
     7
 10
260.0
 20
-291.9999999999999
 30
0.0
  0
SEQEND
  5
1175F
  8
0
 62
     7
  0
POLYLINE
  5
116
  8
0
 62
     7
 66
     1
 10
0.0
 20
0.0
 30
0.0
  0
VERTEX
  5
11692
  8
0
 62
     7
 10
170.0
 20
-286.9999999999999
 30
0.0
  0
VERTEX
  5
11693
  8
0
 62
     7
 10
170.0
 20
-289.4999999999999
 30
0.0
  0
SEQEND
  5
11760
  8
0
 62
     7
  0
POLYLINE
  5
117
  8
0
 62
     7
 66
     1
 10
0.0
 20
0.0
 30
0.0
  0
VERTEX
  5
11694
  8
0
 62
     7
 10
250.0
 20
-286.9999999999999
 30
0.0
  0
VERTEX
  5
11695
  8
0
 62
     7
 10
250.0
 20
-289.4999999999999
 30
0.0
  0
SEQEND
  5
11761
  8
0
 62
     7
  0
POLYLINE
  5
118
  8
0
 62
     7
 66
     1
 10
0.0
 20
0.0
 30
0.0
  0
VERTEX
  5
11696
  8
0
 62
     7
 10
180.0
 20
-286.9999999999999
 30
0.0
  0
VERTEX
  5
11697
  8
0
 62
     7
 10
180.0
 20
-289.4999999999999
 30
0.0
  0
SEQEND
  5
11762
  8
0
 62
     7
  0
POLYLINE
  5
119
  8
0
 62
     7
 66
     1
 10
0.0
 20
0.0
 30
0.0
  0
VERTEX
  5
11698
  8
0
 62
     7
 10
240.0
 20
-286.9999999999999
 30
0.0
  0
VERTEX
  5
11699
  8
0
 62
     7
 10
240.0
 20
-289.4999999999999
 30
0.0
  0
SEQEND
  5
11763
  8
0
 62
     7
  0
POLYLINE
  5
11A
  8
0
 62
     7
 66
     1
 10
0.0
 20
0.0
 30
0.0
  0
VERTEX
  5
1169A
  8
0
 62
     7
 10
190.0
 20
-286.9999999999999
 30
0.0
  0
VERTEX
  5
1169B
  8
0
 62
     7
 10
190.0
 20
-289.4999999999999
 30
0.0
  0
SEQEND
  5
11764
  8
0
 62
     7
  0
POLYLINE
  5
11B
  8
0
 62
     7
 66
     1
 10
0.0
 20
0.0
 30
0.0
  0
VERTEX
  5
1169C
  8
0
 62
     7
 10
230.0
 20
-286.9999999999999
 30
0.0
  0
VERTEX
  5
1169D
  8
0
 62
     7
 10
230.0
 20
-289.4999999999999
 30
0.0
  0
SEQEND
  5
11765
  8
0
 62
     7
  0
POLYLINE
  5
11C
  8
0
 62
     7
 66
     1
 10
0.0
 20
0.0
 30
0.0
  0
VERTEX
  5
1169E
  8
0
 62
     7
 10
200.0
 20
-286.9999999999999
 30
0.0
  0
VERTEX
  5
1169F
  8
0
 62
     7
 10
200.0
 20
-289.4999999999999
 30
0.0
  0
SEQEND
  5
11766
  8
0
 62
     7
  0
POLYLINE
  5
11D
  8
0
 62
     7
 66
     1
 10
0.0
 20
0.0
 30
0.0
  0
VERTEX
  5
116A0
  8
0
 62
     7
 10
220.0
 20
-286.9999999999999
 30
0.0
  0
VERTEX
  5
116A1
  8
0
 62
     7
 10
220.0
 20
-289.4999999999999
 30
0.0
  0
SEQEND
  5
11767
  8
0
 62
     7
  0
POLYLINE
  5
11E
  8
0
 62
     7
 66
     1
 10
0.0
 20
0.0
 30
0.0
  0
VERTEX
  5
116A2
  8
0
 62
     7
 10
110.0
 20
-286.9999999999999
 30
0.0
  0
VERTEX
  5
116A3
  8
0
 62
     7
 10
110.0
 20
-291.9999999999999
 30
0.0
  0
SEQEND
  5
11768
  8
0
 62
     7
  0
POLYLINE
  5
11F
  8
0
 62
     7
 66
     1
 10
0.0
 20
0.0
 30
0.0
  0
VERTEX
  5
116A4
  8
0
 62
     7
 10
310.0
 20
-286.9999999999999
 30
0.0
  0
VERTEX
  5
116A5
  8
0
 62
     7
 10
310.0
 20
-291.9999999999999
 30
0.0
  0
SEQEND
  5
11769
  8
0
 62
     7
  0
POLYLINE
  5
120
  8
0
 62
     7
 66
     1
 10
0.0
 20
0.0
 30
0.0
  0
VERTEX
  5
116A6
  8
0
 62
     7
 10
120.0
 20
-286.9999999999999
 30
0.0
  0
VERTEX
  5
116A7
  8
0
 62
     7
 10
120.0
 20
-289.4999999999999
 30
0.0
  0
SEQEND
  5
1176A
  8
0
 62
     7
  0
POLYLINE
  5
121
  8
0
 62
     7
 66
     1
 10
0.0
 20
0.0
 30
0.0
  0
VERTEX
  5
116A8
  8
0
 62
     7
 10
300.0
 20
-286.9999999999999
 30
0.0
  0
VERTEX
  5
116A9
  8
0
 62
     7
 10
300.0
 20
-289.4999999999999
 30
0.0
  0
SEQEND
  5
1176B
  8
0
 62
     7
  0
POLYLINE
  5
122
  8
0
 62
     7
 66
     1
 10
0.0
 20
0.0
 30
0.0
  0
VERTEX
  5
116AA
  8
0
 62
     7
 10
130.0
 20
-286.9999999999999
 30
0.0
  0
VERTEX
  5
116AB
  8
0
 62
     7
 10
130.0
 20
-289.4999999999999
 30
0.0
  0
SEQEND
  5
1176C
  8
0
 62
     7
  0
POLYLINE
  5
123
  8
0
 62
     7
 66
     1
 10
0.0
 20
0.0
 30
0.0
  0
VERTEX
  5
116AC
  8
0
 62
     7
 10
290.0
 20
-286.9999999999999
 30
0.0
  0
VERTEX
  5
116AD
  8
0
 62
     7
 10
290.0
 20
-289.4999999999999
 30
0.0
  0
SEQEND
  5
1176D
  8
0
 62
     7
  0
POLYLINE
  5
124
  8
0
 62
     7
 66
     1
 10
0.0
 20
0.0
 30
0.0
  0
VERTEX
  5
116AE
  8
0
 62
     7
 10
140.0
 20
-286.9999999999999
 30
0.0
  0
VERTEX
  5
116AF
  8
0
 62
     7
 10
140.0
 20
-289.4999999999999
 30
0.0
  0
SEQEND
  5
1176E
  8
0
 62
     7
  0
POLYLINE
  5
125
  8
0
 62
     7
 66
     1
 10
0.0
 20
0.0
 30
0.0
  0
VERTEX
  5
116B0
  8
0
 62
     7
 10
280.0
 20
-286.9999999999999
 30
0.0
  0
VERTEX
  5
116B1
  8
0
 62
     7
 10
280.0
 20
-289.4999999999999
 30
0.0
  0
SEQEND
  5
1176F
  8
0
 62
     7
  0
POLYLINE
  5
126
  8
0
 62
     7
 66
     1
 10
0.0
 20
0.0
 30
0.0
  0
VERTEX
  5
116B2
  8
0
 62
     7
 10
150.0
 20
-286.9999999999999
 30
0.0
  0
VERTEX
  5
116B3
  8
0
 62
     7
 10
150.0
 20
-289.4999999999999
 30
0.0
  0
SEQEND
  5
11770
  8
0
 62
     7
  0
POLYLINE
  5
127
  8
0
 62
     7
 66
     1
 10
0.0
 20
0.0
 30
0.0
  0
VERTEX
  5
116B4
  8
0
 62
     7
 10
270.0
 20
-286.9999999999999
 30
0.0
  0
VERTEX
  5
116B5
  8
0
 62
     7
 10
270.0
 20
-289.4999999999999
 30
0.0
  0
SEQEND
  5
11771
  8
0
 62
     7
  0
POLYLINE
  5
128
  8
0
 62
     7
 66
     1
 10
0.0
 20
0.0
 30
0.0
  0
VERTEX
  5
116B6
  8
0
 62
     7
 10
220.0
 20
-286.9999999999999
 30
0.0
  0
VERTEX
  5
116B7
  8
0
 62
     7
 10
410.0
 20
-286.9999999999999
 30
0.0
  0
SEQEND
  5
11772
  8
0
 62
     7
  0
POLYLINE
  5
129
  8
0
 62
     7
 66
     1
 10
0.0
 20
0.0
 30
0.0
  0
VERTEX
  5
116B8
  8
0
 62
     7
 10
220.0
 20
-286.9999999999999
 30
0.0
  0
VERTEX
  5
116B9
  8
0
 62
     7
 10
220.0
 20
-226.9999999999999
 30
0.0
  0
VERTEX
  5
116BA
  8
0
 62
     7
 10
410.0
 20
-226.9999999999999
 30
0.0
  0
VERTEX
  5
116BB
  8
0
 62
     7
 10
410.0
 20
-286.9999999999999
 30
0.0
  0
SEQEND
  5
11773
  8
0
 62
     7
  0
POLYLINE
  5
12A
  8
0
 62
     7
 66
     1
 10
0.0
 20
0.0
 30
0.0
  0
VERTEX
  5
116BC
  8
0
 62
     7
 10
220.0
 20
-282.9999999999999
 30
0.0
  0
VERTEX
  5
116BD
  8
0
 62
     7
 10
385.0
 20
-282.9999999999999
 30
0.0
  0
SEQEND
  5
11774
  8
0
 62
     7
  0
POLYLINE
  5
12B
  8
0
 62
     7
 66
     1
 10
0.0
 20
0.0
 30
0.0
  0
VERTEX
  5
116BE
  8
0
 62
     7
 10
220.0
 20
-269.9999999999999
 30
0.0
  0
VERTEX
  5
116BF
  8
0
 62
     7
 10
385.0
 20
-269.9999999999999
 30
0.0
  0
SEQEND
  5
11775
  8
0
 62
     7
  0
POLYLINE
  5
12C
  8
0
 62
     7
 66
     1
 10
0.0
 20
0.0
 30
0.0
  0
VERTEX
  5
116C0
  8
0
 62
     7
 10
220.0
 20
-256.9999999999999
 30
0.0
  0
VERTEX
  5
116C1
  8
0
 62
     7
 10
385.0
 20
-256.9999999999999
 30
0.0
  0
SEQEND
  5
11776
  8
0
 62
     7
  0
POLYLINE
  5
12D
  8
0
 62
     7
 66
     1
 10
0.0
 20
0.0
 30
0.0
  0
VERTEX
  5
116C2
  8
0
 62
     7
 10
220.0
 20
-241.9999999999999
 30
0.0
  0
VERTEX
  5
116C3
  8
0
 62
     7
 10
265.0
 20
-241.9999999999999
 30
0.0
  0
SEQEND
  5
11777
  8
0
 62
     7
  0
POLYLINE
  5
12E
  8
0
 62
     7
 66
     1
 10
0.0
 20
0.0
 30
0.0
  0
VERTEX
  5
116C4
  8
0
 62
     7
 10
385.0
 20
-280.3329999999999
 30
0.0
  0
VERTEX
  5
116C5
  8
0
 62
     7
 10
410.0
 20
-280.3329999999999
 30
0.0
  0
SEQEND
  5
11778
  8
0
 62
     7
  0
POLYLINE
  5
12F
  8
0
 62
     7
 66
     1
 10
0.0
 20
0.0
 30
0.0
  0
VERTEX
  5
116C6
  8
0
 62
     7
 10
385.0
 20
-273.6669999999999
 30
0.0
  0
VERTEX
  5
116C7
  8
0
 62
     7
 10
410.0
 20
-273.6669999999999
 30
0.0
  0
SEQEND
  5
11779
  8
0
 62
     7
  0
POLYLINE
  5
130
  8
0
 62
     7
 66
     1
 10
0.0
 20
0.0
 30
0.0
  0
VERTEX
  5
116C8
  8
0
 62
     7
 10
385.0
 20
-266.9999999999999
 30
0.0
  0
VERTEX
  5
116C9
  8
0
 62
     7
 10
410.0
 20
-266.9999999999999
 30
0.0
  0
SEQEND
  5
1177A
  8
0
 62
     7
  0
POLYLINE
  5
131
  8
0
 62
     7
 66
     1
 10
0.0
 20
0.0
 30
0.0
  0
VERTEX
  5
116CA
  8
0
 62
     7
 10
385.0
 20
-260.3329999999999
 30
0.0
  0
VERTEX
  5
116CB
  8
0
 62
     7
 10
410.0
 20
-260.3329999999999
 30
0.0
  0
SEQEND
  5
1177B
  8
0
 62
     7
  0
POLYLINE
  5
132
  8
0
 62
     7
 66
     1
 10
0.0
 20
0.0
 30
0.0
  0
VERTEX
  5
116CC
  8
0
 62
     7
 10
385.0
 20
-253.6669999999999
 30
0.0
  0
VERTEX
  5
116CD
  8
0
 62
     7
 10
410.0
 20
-253.6669999999999
 30
0.0
  0
SEQEND
  5
1177C
  8
0
 62
     7
  0
POLYLINE
  5
133
  8
0
 62
     7
 66
     1
 10
0.0
 20
0.0
 30
0.0
  0
VERTEX
  5
116CE
  8
0
 62
     7
 10
385.0
 20
-246.9999999999999
 30
0.0
  0
VERTEX
  5
116CF
  8
0
 62
     7
 10
410.0
 20
-246.9999999999999
 30
0.0
  0
SEQEND
  5
1177D
  8
0
 62
     7
  0
POLYLINE
  5
134
  8
0
 62
     7
 66
     1
 10
0.0
 20
0.0
 30
0.0
  0
VERTEX
  5
116D0
  8
0
 62
     7
 10
385.0
 20
-240.3329999999999
 30
0.0
  0
VERTEX
  5
116D1
  8
0
 62
     7
 10
410.0
 20
-240.3329999999999
 30
0.0
  0
SEQEND
  5
1177E
  8
0
 62
     7
  0
POLYLINE
  5
135
  8
0
 62
     7
 66
     1
 10
0.0
 20
0.0
 30
0.0
  0
VERTEX
  5
116D2
  8
0
 62
     7
 10
385.0
 20
-233.6669999999999
 30
0.0
  0
VERTEX
  5
116D3
  8
0
 62
     7
 10
410.0
 20
-233.6669999999999
 30
0.0
  0
SEQEND
  5
1177F
  8
0
 62
     7
  0
POLYLINE
  5
136
  8
0
 62
     7
 66
     1
 10
0.0
 20
0.0
 30
0.0
  0
VERTEX
  5
116D4
  8
0
 62
     7
 10
240.0
 20
-282.9999999999999
 30
0.0
  0
VERTEX
  5
116D5
  8
0
 62
     7
 10
240.0
 20
-256.9999999999999
 30
0.0
  0
SEQEND
  5
11780
  8
0
 62
     7
  0
POLYLINE
  5
137
  8
0
 62
     7
 66
     1
 10
0.0
 20
0.0
 30
0.0
  0
VERTEX
  5
116D6
  8
0
 62
     7
 10
265.0
 20
-282.9999999999999
 30
0.0
  0
VERTEX
  5
116D7
  8
0
 62
     7
 10
265.0
 20
-226.9999999999999
 30
0.0
  0
SEQEND
  5
11781
  8
0
 62
     7
  0
POLYLINE
  5
138
  8
0
 62
     7
 66
     1
 10
0.0
 20
0.0
 30
0.0
  0
VERTEX
  5
116D8
  8
0
 62
     7
 10
365.0
 20
-282.9999999999999
 30
0.0
  0
VERTEX
  5
116D9
  8
0
 62
     7
 10
365.0
 20
-269.9999999999999
 30
0.0
  0
SEQEND
  5
11782
  8
0
 62
     7
  0
POLYLINE
  5
139
  8
0
 62
     7
 66
     1
 10
0.0
 20
0.0
 30
0.0
  0
VERTEX
  5
116DA
  8
0
 62
     7
 10
385.0
 20
-286.9999999999999
 30
0.0
  0
VERTEX
  5
116DB
  8
0
 62
     7
 10
385.0
 20
-226.9999999999999
 30
0.0
  0
SEQEND
  5
11783
  8
0
 62
     7
  0
POLYLINE
  5
13A
  8
0
 62
     7
 66
     1
 10
0.0
 20
0.0
 30
0.0
  0
VERTEX
  5
116DC
  8
0
 62
     7
 10
390.0
 20
-286.9999999999999
 30
0.0
  0
VERTEX
  5
116DD
  8
0
 62
     7
 10
390.0
 20
-226.9999999999999
 30
0.0
  0
SEQEND
  5
11784
  8
0
 62
     7
  0
POLYLINE
  5
13B
  8
0
 62
     7
 66
     1
 10
0.0
 20
0.0
 30
0.0
  0
VERTEX
  5
116DE
  8
0
 62
     7
 10
242.0
 20
-263.4999999999999
 30
0.0
  0
VERTEX
  5
116DF
  8
0
 62
     7
 10
263.0
 20
-263.4999999999999
 30
0.0
  0
SEQEND
  5
11785
  8
0
 62
     7
  0
POLYLINE
  5
13C
  8
0
 62
     7
 66
     1
 10
0.0
 20
0.0
 30
0.0
  0
VERTEX
  5
116E0
  8
0
 62
     7
 10
257.5
 20
-268.9999999999999
 30
0.0
  0
VERTEX
  5
116E1
  8
0
 62
     7
 10
257.5
 20
-257.9999999999999
 30
0.0
  0
SEQEND
  5
11786
  8
0
 62
     7
  0
POLYLINE
  5
13D
  8
0
 62
     7
 66
     1
 10
0.0
 20
0.0
 30
0.0
  0
VERTEX
  5
116E2
  8
0
 62
     7
 10
243.5
 20
-265.4999999999999
 30
0.0
  0
VERTEX
  5
116E3
  8
0
 62
     7
 10
243.5
 20
-261.4999999999999
 30
0.0
  0
VERTEX
  5
116E4
  8
0
 62
     7
 10
251.5
 20
-259.4999999999999
 30
0.0
  0
VERTEX
  5
116E5
  8
0
 62
     7
 10
251.5
 20
-267.4999999999999
 30
0.0
  0
VERTEX
  5
116E6
  8
0
 62
     7
 10
243.5
 20
-265.4999999999999
 30
0.0
  0
SEQEND
  5
11787
  8
0
 62
     7
  0
POLYLINE
  5
13E
  8
0
 62
     7
 66
     1
 10
0.0
 20
0.0
 30
0.0
 70
     1
  0
VERTEX
  5
116E7
  8
0
 62
     7
 10
392.217
 20
-293.8329999999999
 30
0.0
  0
VERTEX
  5
116E8
  8
0
 62
     7
 10
392.681
 20
-293.8329999999999
 30
0.0
  0
VERTEX
  5
116E9
  8
0
 62
     7
 10
393.049
 20
-292.8039999999999
 30
0.0
  0
VERTEX
  5
116EA
  8
0
 62
     7
 10
394.446
 20
-292.8039999999999
 30
0.0
  0
VERTEX
  5
116EB
  8
0
 62
     7
 10
394.814
 20
-293.8329999999999
 30
0.0
  0
VERTEX
  5
116EC
  8
0
 62
     7
 10
395.288
 20
-293.8329999999999
 30
0.0
  0
VERTEX
  5
116ED
  8
0
 62
     7
 10
394.007
 20
-290.3279999999999
 30
0.0
  0
VERTEX
  5
116EE
  8
0
 62
     7
 10
393.493
 20
-290.3279999999999
 30
0.0
  0
VERTEX
  5
116EF
  8
0
 62
     7
 10
392.217
 20
-293.8329999999999
 30
0.0
  0
VERTEX
  5
116F0
  8
0
 62
     7
 10
392.217
 20
-293.8329999999999
 30
0.0
  0
SEQEND
  5
11788
  8
0
 62
     7
  0
POLYLINE
  5
13F
  8
0
 62
     7
 66
     1
 10
0.0
 20
0.0
 30
0.0
 70
     1
  0
VERTEX
  5
116F1
  8
0
 62
     7
 10
393.21
 20
-292.3759999999999
 30
0.0
  0
VERTEX
  5
116F2
  8
0
 62
     7
 10
393.75
 20
-290.8319999999999
 30
0.0
  0
VERTEX
  5
116F3
  8
0
 62
     7
 10
394.29
 20
-292.3759999999999
 30
0.0
  0
VERTEX
  5
116F4
  8
0
 62
     7
 10
393.21
 20
-292.3759999999999
 30
0.0
  0
VERTEX
  5
116F5
  8
0
 62
     7
 10
393.21
 20
-292.3759999999999
 30
0.0
  0
SEQEND
  5
11789
  8
0
 62
     7
  0
POLYLINE
  5
24A
  8
0
 62
     1
 66
     1
 10
0.0
 20
0.0
 30
0.0
 70
     1
  0
VERTEX
  5
116F6
  8
0
 62
     1
 10
371.93153
 20
-258.0225999999999
 30
0.0
  0
VERTEX
  5
116F7
  8
0
 62
     1
 10
371.93153
 20
-268.0021759999998
 30
0.0
  0
VERTEX
  5
116F8
  8
0
 62
     1
 10
374.156706
 20
-268.0021759999998
 30
0.0
  0
VERTEX
  5
116F9
  8
0
 62
     1
 10
374.156706
 20
-264.0968799999999
 30
0.0
  0
VERTEX
  5
116FA
  8
0
 62
     1
 10
375.730062
 20
-264.0968799999999
 30
0.0
  0
VERTEX
  5
116FB
  8
0
 62
     1
 10
375.730062
 20
-262.5572379999999
 30
0.0
  0
VERTEX
  5
116FC
  8
0
 62
     1
 10
374.156706
 20
-262.5572379999999
 30
0.0
  0
VERTEX
  5
116FD
  8
0
 62
     1
 10
374.156706
 20
-260.8954359999999
 30
0.0
  0
VERTEX
  5
116FE
  8
0
 62
     1
 10
378.032582
 20
-260.8954359999999
 30
0.0
  0
VERTEX
  5
116FF
  8
0
 62
     1
 10
378.032582
 20
-258.0282189999999
 30
0.0
  0
VERTEX
  5
11700
  8
0
 62
     1
 10
371.93153
 20
-258.0225999999999
 30
0.0
  0
VERTEX
  5
11701
  8
0
 62
     1
 10
371.93153
 20
-258.0225999999999
 30
0.0
  0
SEQEND
  5
1178A
  8
0
 62
     1
  0
POLYLINE
  5
24B
  8
0
 62
     5
 66
     1
 10
0.0
 20
0.0
 30
0.0
 70
     1
  0
VERTEX
  5
11702
  8
0
 62
     5
 10
381.836611
 20
-260.9968369999999
 30
0.0
  0
VERTEX
  5
11703
  8
0
 62
     5
 10
380.542276
 20
-261.7394419999999
 30
0.0
  0
VERTEX
  5
11704
  8
0
 62
     5
 10
379.970709
 20
-261.5410919999999
 30
0.0
  0
VERTEX
  5
11705
  8
0
 62
     5
 10
379.425386
 20
-260.1474179999999
 30
0.0
  0
VERTEX
  5
11706
  8
0
 62
     5
 10
378.567563
 20
-260.1924969999999
 30
0.0
  0
VERTEX
  5
11707
  8
0
 62
     5
 10
378.176288
 20
-261.6336429999999
 30
0.0
  0
VERTEX
  5
11708
  8
0
 62
     5
 10
377.628676
 20
-261.8958829999999
 30
0.0
  0
VERTEX
  5
11709
  8
0
 62
     5
 10
376.262838
 20
-261.2983999999999
 30
0.0
  0
VERTEX
  5
1170A
  8
0
 62
     5
 10
375.685945
 20
-261.9394639999999
 30
0.0
  0
VERTEX
  5
1170B
  8
0
 62
     5
 10
376.428552
 20
-263.2337989999999
 30
0.0
  0
VERTEX
  5
1170C
  8
0
 62
     5
 10
376.225619
 20
-263.803691
 30
0.0
  0
VERTEX
  5
1170D
  8
0
 62
     5
 10
374.831944
 20
-264.3490149999999
 30
0.0
  0
VERTEX
  5
1170E
  8
0
 62
     5
 10
374.881604
 20
-265.2085099999999
 30
0.0
  0
VERTEX
  5
1170F
  8
0
 62
     5
 10
376.322752
 20
-265.5997849999999
 30
0.0
  0
VERTEX
  5
11710
  8
0
 62
     5
 10
376.584992
 20
-266.147396
 30
0.0
  0
VERTEX
  5
11711
  8
0
 62
     5
 10
375.982928
 20
-267.5115619999999
 30
0.0
  0
VERTEX
  5
11712
  8
0
 62
     5
 10
376.623991
 20
-268.088454
 30
0.0
  0
VERTEX
  5
11713
  8
0
 62
     5
 10
377.918324
 20
-267.3458499999999
 30
0.0
  0
VERTEX
  5
11714
  8
0
 62
     5
 10
378.492801
 20
-267.5504549999999
 30
0.0
  0
VERTEX
  5
11715
  8
0
 62
     5
 10
379.033543
 20
-268.9424559999999
 30
0.0
  0
VERTEX
  5
11716
  8
0
 62
     5
 10
379.897619
 20
-268.8944669999998
 30
0.0
  0
VERTEX
  5
11717
  8
0
 62
     5
 10
380.284312
 20
-267.4516479999999
 30
0.0
  0
VERTEX
  5
11718
  8
0
 62
     5
 10
380.831925
 20
-267.189408
 30
0.0
  0
VERTEX
  5
11719
  8
0
 62
     5
 10
382.20067
 20
-267.7931469999999
 30
0.0
  0
VERTEX
  5
1171A
  8
0
 62
     5
 10
382.777563
 20
-267.1520829999999
 30
0.0
  0
VERTEX
  5
1171B
  8
0
 62
     5
 10
382.034958
 20
-265.8577489999999
 30
0.0
  0
VERTEX
  5
1171C
  8
0
 62
     5
 10
382.23498
 20
-265.2815999999999
 30
0.0
  0
VERTEX
  5
1171D
  8
0
 62
     5
 10
383.626981
 20
-264.7408579999999
 30
0.0
  0
VERTEX
  5
1171E
  8
0
 62
     5
 10
383.583578
 20
-263.8784549999999
 30
0.0
  0
VERTEX
  5
1171F
  8
0
 62
     5
 10
382.140758
 20
-263.4917619999999
 30
0.0
  0
VERTEX
  5
11720
  8
0
 62
     5
 10
381.878516
 20
-262.9441509999999
 30
0.0
  0
VERTEX
  5
11721
  8
0
 62
     5
 10
382.477672
 20
-261.57373
 30
0.0
  0
VERTEX
  5
11722
  8
0
 62
     5
 10
381.836611
 20
-260.9968369999999
 30
0.0
  0
VERTEX
  5
11723
  8
0
 62
     5
 10
381.836611
 20
-260.9968369999999
 30
0.0
  0
SEQEND
  5
1178B
  8
0
 62
     5
  0
POLYLINE
  5
24C
  8
0
 62
     5
 66
     1
 10
0.0
 20
0.0
 30
0.0
 70
     1
  0
VERTEX
  5
11724
  8
0
 62
     5
 10
379.898092
 20
-263.1193869999998
 30
0.0
  0
VERTEX
  5
11725
  8
0
 62
     5
 10
380.163792
 20
-263.2735499999999
 30
0.0
  0
VERTEX
  5
11726
  8
0
 62
     5
 10
380.393991
 20
-263.4822639999999
 30
0.0
  0
VERTEX
  5
11727
  8
0
 62
     5
 10
380.578287
 20
-263.7313439999999
 30
0.0
  0
VERTEX
  5
11728
  8
0
 62
     5
 10
380.710861
 20
-264.0082779999999
 30
0.0
  0
VERTEX
  5
11729
  8
0
 62
     5
 10
380.788808
 20
-264.3068089999999
 30
0.0
  0
VERTEX
  5
1172A
  8
0
 62
     5
 10
380.801718
 20
-264.6127529999999
 30
0.0
  0
VERTEX
  5
1172B
  8
0
 62
     5
 10
380.75753
 20
-264.9186169999999
 30
0.0
  0
VERTEX
  5
1172C
  8
0
 62
     5
 10
380.656684
 20
-265.2089839999999
 30
0.0
  0
VERTEX
  5
1172D
  8
0
 62
     5
 10
380.496264
 20
-265.477593
 30
0.0
  0
VERTEX
  5
1172E
  8
0
 62
     5
 10
380.293807
 20
-265.7048819999999
 30
0.0
  0
VERTEX
  5
1172F
  8
0
 62
     5
 10
380.044725
 20
-265.8891779999999
 30
0.0
  0
VERTEX
  5
11730
  8
0
 62
     5
 10
379.767791
 20
-266.0217519999999
 30
0.0
  0
VERTEX
  5
11731
  8
0
 62
     5
 10
379.469262
 20
-266.0996969999999
 30
0.0
  0
VERTEX
  5
11732
  8
0
 62
     5
 10
379.161644
 20
-266.1171949999999
 30
0.0
  0
VERTEX
  5
11733
  8
0
 62
     5
 10
378.855779
 20
-266.073009
 30
0.0
  0
VERTEX
  5
11734
  8
0
 62
     5
 10
378.565414
 20
-265.9721609999999
 30
0.0
  0
VERTEX
  5
11735
  8
0
 62
     5
 10
378.296805
 20
-265.8117419999999
 30
0.0
  0
VERTEX
  5
11736
  8
0
 62
     5
 10
378.071186
 20
-265.6046999999999
 30
0.0
  0
VERTEX
  5
11737
  8
0
 62
     5
 10
377.885221
 20
-265.360203
 30
0.0
  0
VERTEX
  5
11738
  8
0
 62
     5
 10
377.752643
 20
-265.0832699999999
 30
0.0
  0
VERTEX
  5
11739
  8
0
 62
     5
 10
377.676372
 20
-264.7801559999999
 30
0.0
  0
VERTEX
  5
1173A
  8
0
 62
     5
 10
377.658877
 20
-264.4725389999999
 30
0.0
  0
VERTEX
  5
1173B
  8
0
 62
     5
 10
377.703062
 20
-264.1666739999999
 30
0.0
  0
VERTEX
  5
1173C
  8
0
 62
     5
 10
377.803911
 20
-263.8763079999999
 30
0.0
  0
VERTEX
  5
1173D
  8
0
 62
     5
 10
377.962657
 20
-263.6122809999999
 30
0.0
  0
VERTEX
  5
1173E
  8
0
 62
     5
 10
378.16679
 20
-263.3804099999999
 30
0.0
  0
VERTEX
  5
1173F
  8
0
 62
     5
 10
378.41587
 20
-263.1961139999999
 30
0.0
  0
VERTEX
  5
11740
  8
0
 62
     5
 10
378.692802
 20
-263.0635399999999
 30
0.0
  0
VERTEX
  5
11741
  8
0
 62
     5
 10
378.995915
 20
-262.9872679999999
 30
0.0
  0
VERTEX
  5
11742
  8
0
 62
     5
 10
379.30186
 20
-262.9743539999999
 30
0.0
  0
VERTEX
  5
11743
  8
0
 62
     5
 10
379.607724
 20
-263.0185389999999
 30
0.0
  0
VERTEX
  5
11744
  8
0
 62
     5
 10
379.89809
 20
-263.119388
 30
0.0
  0
VERTEX
  5
11745
  8
0
 62
     5
 10
379.898092
 20
-263.1193869999998
 30
0.0
  0
SEQEND
  5
1178C
  8
0
 62
     5
  0
POLYLINE
  5
10046
  8
0
  6
BYBLOCK
 66
     1
 10
0.0
 20
0.0
 30
0.0
 70
     1
  0
VERTEX
  5
11746
  8
0
  6
BYBLOCK
 10
0.0
 20
-297.0
 30
0.0
  0
VERTEX
  5
11747
  8
0
  6
BYBLOCK
 10
0.0
 20
0.0
 30
0.0
  0
VERTEX
  5
11748
  8
0
  6
BYBLOCK
 10
420.0
 20
0.0
 30
0.0
  0
VERTEX
  5
11749
  8
0
  6
BYBLOCK
 10
420.0
 20
-297.0
 30
0.0
  0
SEQEND
  5
1178D
  8
0
  6
BYBLOCK
  0
INSERT
  5
1004A
  8
0
  6
BYBLOCK
 62
     1
  2
*U0
 10
0.0
 20
-297.0
 30
0.0
  0
INSERT
  5
1004B
  8
0
  6
BYBLOCK
 62
     5
  2
*U1
 10
0.0
 20
-297.0
 30
0.0
  0
TEXT
  5
1004C
  8
0
  6
CONTINUOUS
 10
386.9730559345157
 20
-231.5834999999999
 30
0.0
 40
2.5
  1
I
  0
TEXT
  5
10053
  8
0
  6
CONTINUOUS
 10
386.2039563437926
 20
-238.2494999999998
 30
0.0
 40
2.5
  1
H
  0
TEXT
  5
10054
  8
0
  6
CONTINUOUS
 10
386.1221009549795
 20
-244.9182053206001
 30
0.0
 40
2.5
  1
G
  0
TEXT
  5
10055
  8
0
  6
CONTINUOUS
 10
386.3352660300136
 20
-251.5834999999999
 30
0.0
 40
2.5
  1
F
  0
TEXT
  5
10056
  8
0
  6
CONTINUOUS
 10
386.2568212824011
 20
-258.2494999999998
 30
0.0
 40
2.5
  1
E
  0
TEXT
  5
10057
  8
0
  6
CONTINUOUS
 10
386.1630286493861
 20
-264.9164999999999
 30
0.0
 40
2.5
  1
D
  0
TEXT
  5
10058
  8
0
  6
CONTINUOUS
 10
386.1869031377899
 20
-271.5852053206002
 30
0.0
 40
2.5
  1
C
  0
TEXT
  5
10059
  8
0
  6
CONTINUOUS
 10
386.2670532060027
 20
-278.2494999999998
 30
0.0
 40
2.5
  1
B
  0
TEXT
  5
1005A
  8
0
  6
CONTINUOUS
 10
386.2977489768076
 20
-284.9164999999999
 30
0.0
 40
2.5
  1
A
  0
TEXT
  5
1005B
  8
0
  6
CONTINUOUS
 10
398.7577805252387
 20
-231.2356145975442
 30
0.0
 40
2.5
  1
_
  0
TEXT
  5
1005C
  8
0
  6
CONTINUOUS
 10
398.7577805252387
 20
-237.9016145975442
 30
0.0
 40
2.5
  1
_
  0
TEXT
  5
1005D
  8
0
  6
CONTINUOUS
 10
398.7577805252387
 20
-244.5686145975442
 30
0.0
 40
2.5
  1
_
  0
TEXT
  5
1005E
  8
0
  6
CONTINUOUS
 10
398.7577805252387
 20
-251.2356145975442
 30
0.0
 40
2.5
  1
_
  0
TEXT
  5
1005F
  8
0
  6
CONTINUOUS
 10
398.7577805252387
 20
-257.9016145975442
 30
0.0
 40
2.5
  1
_
  0
TEXT
  5
10060
  8
0
  6
CONTINUOUS
 10
398.7577805252387
 20
-264.5686145975442
 30
0.0
 40
2.5
  1
_
  0
TEXT
  5
10061
  8
0
  6
CONTINUOUS
 10
398.7577805252387
 20
-271.2356145975442
 30
0.0
 40
2.5
  1
_
  0
TEXT
  5
10062
  8
0
  6
CONTINUOUS
 10
398.7577805252387
 20
-277.9016145975442
 30
0.0
 40
2.5
  1
_
  0
TEXT
  5
10063
  8
0
  6
CONTINUOUS
 10
398.7577805252387
 20
-284.5686145975442
 30
0.0
 40
2.5
  1
_
  0
TEXT
  5
10064
  8
0
  6
CONTINUOUS
 10
413.5720948449149
 20
-261.6568445502108
 30
0.0
 40
3.5
  1
1
  0
TEXT
  5
10065
  8
0
  6
CONTINUOUS
 10
413.4503349540554
 20
-187.4568445502108
 30
0.0
 40
3.5
  1
2
  0
TEXT
  5
10066
  8
0
  6
CONTINUOUS
 10
413.4001985284074
 20
-113.2281951641262
 30
0.0
 40
3.5
  1
3
  0
TEXT
  5
10067
  8
0
  6
CONTINUOUS
 10
413.4813717889804
 20
-38.94968220368969
 30
0.0
 40
3.5
  1
4
  0
TEXT
  5
1163D
  8
0
  6
CONTINUOUS
 10
392.217
 20
-293.8329999999999
 30
0.0
 40
3.5
  1
A
  0
TEXT
  5
1163E
  8
0
  6
CONTINUOUS
 10
339.717
 20
-293.8329999999999
 30
0.0
 40
3.5
  1
B
  0
TEXT
  5
11640
  8
0
  6
CONTINUOUS
 10
77.21699999999998
 20
-293.8329999999999
 30
0.0
 40
3.5
  1
G
  0
TEXT
  5
11641
  8
0
  6
CONTINUOUS
 10
24.71699999999998
 20
-293.8329999999999
 30
0.0
 40
3.5
  1
H
  0
TEXT
  5
11642
  8
0
  6
CONTINUOUS
 10
6.825726041884025
 20
-38.56508146460578
 30
0.0
 40
3.5
  1
4
 50
90.0
  0
TEXT
  5
11643
  8
0
  6
CONTINUOUS
 10
6.744552781310972
 20
-112.8435944250423
 30
0.0
 40
3.5
  1
3
 50
90.0
  0
TEXT
  5
11644
  8
0
  6
CONTINUOUS
 10
6.794689206958992
 20
-187.0722438111269
 30
0.0
 40
3.5
  1
2
 50
90.0
  0
TEXT
  5
11645
  8
0
  6
CONTINUOUS
 10
6.916449097818486
 20
-261.2722438111269
 30
0.0
 40
3.5
  1
1
 50
90.0
  0
TEXT
  5
11646
  8
0
  6
CONTINUOUS
 10
28.15419497451044
 20
-6.849331957620848
 30
0.0
 40
3.5
  1
H
 50
90.0
  0
TEXT
  5
11647
  8
0
  6
CONTINUOUS
 10
80.65419497451045
 20
-6.849331957620848
 30
0.0
 40
3.5
  1
G
 50
90.0
  0
TEXT
  5
11648
  8
0
  6
CONTINUOUS
 10
133.1541949745104
 20
-6.849331957620848
 30
0.0
 40
3.5
  1
F
 50
90.0
  0
TEXT
  5
11649
  8
0
  6
CONTINUOUS
 10
185.6541949745104
 20
-6.849331957620848
 30
0.0
 40
3.5
  1
E
 50
90.0
  0
TEXT
  5
1164A
  8
0
  6
CONTINUOUS
 10
238.1541949745104
 20
-6.849331957620848
 30
0.0
 40
3.5
  1
D
 50
90.0
  0
TEXT
  5
1164B
  8
0
  6
CONTINUOUS
 10
290.6541949745105
 20
-6.849331957620848
 30
0.0
 40
3.5
  1
C
 50
90.0
  0
TEXT
  5
1164C
  8
0
  6
CONTINUOUS
 10
343.1541949745105
 20
-6.849331957620848
 30
0.0
 40
3.5
  1
B
 50
90.0
  0
TEXT
  5
1164D
  8
0
  6
CONTINUOUS
 10
395.6541949745105
 20
-6.849331957620848
 30
0.0
 40
3.5
  1
A
 50
90.0
  0
TEXT
  5
1164E
  8
0
  6
CONTINUOUS
 10
365.9189074058273
 20
-272.0541078439737
 30
0.0
 40
1.5
  1
SHEET
  0
TEXT
  5
1164F
  8
0
  6
CONTINUOUS
 10
265.9189074058273
 20
-272.0541078439737
 30
0.0
 40
1.5
  1
DRAWING NUMBER
  0
TEXT
  5
11650
  8
0
  6
CONTINUOUS
 10
240.9189074058273
 20
-272.0541078439737
 30
0.0
 40
1.5
  1
WEIGHT (kg)
  0
TEXT
  5
11651
  8
0
  6
CONTINUOUS
 10
220.9189074058273
 20
-272.0541078439737
 30
0.0
 40
1.5
  1
SCALE
  0
TEXT
  5
11652
  8
0
  6
CONTINUOUS
 10
220.9189074058273
 20
-285.8202931223257
 30
0.0
 40
1.5
  1
This drawing is our property; it can't be reproduced or communicated without our written agreement.
  0
TEXT
  5
11653
  8
0
  6
CONTINUOUS
 10
220.9189074058273
 20
-259.0541078439737
 30
0.0
 40
1.5
  1
SIZE
  0
TEXT
  5
11654
  8
0
  6
CONTINUOUS
 10
220.9189074058273
 20
-251.5962062314749
 30
0.0
 40
1.5
  1
DATE:
  0
TEXT
  5
11655
  8
0
  6
CONTINUOUS
 10
220.9189074058273
 20
-244.0541078439737
 30
0.0
 40
1.5
  1
CHECKED BY:
  0
TEXT
  5
11656
  8
0
  6
CONTINUOUS
 10
220.9189074058273
 20
-229.0541078439737
 30
0.0
 40
1.5
  1
DESIGNED BY:
  0
TEXT
  5
11657
  8
0
  6
CONTINUOUS
 10
220.9189074058273
 20
-236.5962062314749
 30
0.0
 40
1.5
  1
DATE:
  0
TEXT
  5
11658
  8
0
  6
CONTINUOUS
 10
225.4912667359689
 20
-266.2858969205978
 30
0.0
 40
5.0
  1
A3
  0
TEXT
  5
11659
  8
0
  6
CONTINUOUS
 10
220.9189074058273
 20
-233.2126074177822
 30
0.0
 40
3.0
  1
AuthorName
  0
TEXT
  5
1165A
  8
0
  6
CONTINUOUS
 10
220.9189074058273
 20
-240.7547058052834
 30
0.0
 40
3.0
  1
CreationDate
  0
TEXT
  5
1165B
  8
0
  6
CONTINUOUS
 10
220.9189074058273
 20
-255.7547058052834
 30
0.0
 40
3.0
  1
CheckDate
  0
TEXT
  5
1165C
  8
0
  6
CONTINUOUS
 10
220.9189074058273
 20
-248.2126074177822
 30
0.0
 40
3.0
  1
SupervisorName
  0
TEXT
  5
1165D
  8
0
  6
CONTINUOUS
 10
220.9189074058273
 20
-278.6786962387326
 30
0.0
 40
3.0
  1
Scale
  0
TEXT
  5
1165E
  8
0
  6
CONTINUOUS
 10
240.9189074058273
 20
-278.6786962387326
 30
0.0
 40
3.0
  1
Weight
  0
TEXT
  5
1165F
  8
0
  6
CONTINUOUS
 10
265.9189074058273
 20
-278.6786962387326
 30
0.0
 40
3.0
  1
DrawingNumber
  0
TEXT
  5
11660
  8
0
  6
CONTINUOUS
 10
365.9189074058273
 20
-278.6786962387326
 30
0.0
 40
3.0
  1
SheetNumber
  0
TEXT
  5
11661
  8
0
  6
CONTINUOUS
 10
268.7221127577437
 20
-247.9204320746521
 30
0.0
 40
3.0
  1
Subtitle
  0
TEXT
  5
11662
  8
0
  6
CONTINUOUS
 10
268.7221127577437
 20
-243.0156948171302
 30
0.0
 40
5.0
  1
Title
$entities
  0
ENDSEC
  0
EOF
