  0
SECTION
  2
HEADER
  9
$ACADVER
  1
AC1009
  9
$DWGCODEPAGE
  3
ansi_1252
  9
$INSBASE
 10
0.0
 20
0.0
 30
0.0
  9
$EXTMIN
 10
0.1749980000000004
 20
534.247568
 30
0.0
  9
$EXTMAX
 10
296.83092
 20
743.951929
 30
0.0
  9
$LIMMIN
 10
0.0
 20
0.0
  9
$LIMMAX
 10
12.0
 20
9.0
  9
$ORTHOMODE
 70
     0
  9
$REGENMODE
 70
     1
  9
$FILLMODE
 70
     1
  9
$QTEXTMODE
 70
     0
  9
$MIRRTEXT
 70
     1
  9
$DRAGMODE
 70
     2
  9
$LTSCALE
 40
1.0
  9
$OSMODE
 70
   511
  9
$ATTMODE
 70
     1
  9
$TEXTSIZE
 40
2.5
  9
$TRACEWID
 40
0.05
  9
$TEXTSTYLE
  7
STANDARD
  9
$CLAYER
  8
0
  9
$CELTYPE
  6
BYBLOCK
  9
$CECOLOR
 62
   256
  9
$DIMSCALE
 40
1.0
  9
$DIMASZ
 40
0.18
  9
$DIMEXO
 40
0.0625
  9
$DIMDLI
 40
0.38
  9
$DIMRND
 40
0.0
  9
$DIMDLE
 40
0.0
  9
$DIMEXE
 40
0.18
  9
$DIMTP
 40
0.0
  9
$DIMTM
 40
0.0
  9
$DIMTXT
 40
0.18
  9
$DIMCEN
 40
0.09
  9
$DIMTSZ
 40
0.0
  9
$DIMTOL
 70
     0
  9
$DIMLIM
 70
     0
  9
$DIMTIH
 70
     1
  9
$DIMTOH
 70
     1
  9
$DIMSE1
 70
     0
  9
$DIMSE2
 70
     0
  9
$DIMTAD
 70
     0
  9
$DIMZIN
 70
     0
  9
$DIMBLK
  1

  9
$DIMASO
 70
     1
  9
$DIMSHO
 70
     1
  9
$DIMPOST
  1

  9
$DIMAPOST
  1

  9
$DIMALT
 70
     0
  9
$DIMALTD
 70
     2
  9
$DIMALTF
 40
25.4
  9
$DIMLFAC
 40
1.0
  9
$DIMTOFL
 70
     0
  9
$DIMTVP
 40
0.0
  9
$DIMTIX
 70
     0
  9
$DIMSOXD
 70
     0
  9
$DIMSAH
 70
     0
  9
$DIMBLK1
  1

  9
$DIMBLK2
  1

  9
$DIMSTYLE
  2
ISO-25
  9
$DIMCLRD
 70
     0
  9
$DIMCLRE
 70
     0
  9
$DIMCLRT
 70
     0
  9
$DIMTFAC
 40
1.0
  9
$DIMGAP
 40
0.09
  9
$LUNITS
 70
     2
  9
$LUPREC
 70
     4
  9
$SKETCHINC
 40
0.1
  9
$FILLETRAD
 40
0.5
  9
$AUNITS
 70
     0
  9
$AUPREC
 70
     0
  9
$MENU
  1
.
  9
$ELEVATION
 40
0.0
  9
$PELEVATION
 40
0.0
  9
$THICKNESS
 40
0.0
  9
$LIMCHECK
 70
     0
  9
$CHAMFERA
 40
0.0
  9
$CHAMFERB
 40
0.0
  9
$SKPOLY
 70
     0
  9
$TDCREATE
 40
0.0
  9
$TDUPDATE
 40
2456884.957870359
  9
$TDINDWG
 40
0.0
  9
$TDUSRTIMER
 40
2456885.08275463
  9
$USRTIMER
 70
     1
  9
$ANGBASE
 50
0.0
  9
$ANGDIR
 70
     0
  9
$PDMODE
 70
     0
  9
$PDSIZE
 40
0.0
  9
$PLINEWID
 40
0.0
  9
$COORDS
 70
     1
  9
$SPLFRAME
 70
     0
  9
$SPLINETYPE
 70
     6
  9
$SPLINESEGS
 70
     8
  9
$ATTDIA
 70
     0
  9
$ATTREQ
 70
     1
  9
$HANDLING
 70
     1
  9
$HANDSEED
  5
10450
  9
$SURFTAB1
 70
     6
  9
$SURFTAB2
 70
     6
  9
$SURFTYPE
 70
     6
  9
$SURFU
 70
     6
  9
$SURFV
 70
     6
  9
$UCSNAME
  2

  9
$UCSORG
 10
0.0
 20
0.0
 30
0.0
  9
$UCSXDIR
 10
1.0
 20
0.0
 30
0.0
  9
$UCSYDIR
 10
0.0
 20
1.0
 30
0.0
  9
$PUCSNAME
  2

  9
$PUCSORG
 10
0.0
 20
0.0
 30
0.0
  9
$PUCSXDIR
 10
1.0
 20
0.0
 30
0.0
  9
$PUCSYDIR
 10
0.0
 20
1.0
 30
0.0
  9
$USERI1
 70
     0
  9
$USERI2
 70
     0
  9
$USERI3
 70
     0
  9
$USERI4
 70
     0
  9
$USERI5
 70
     0
  9
$USERR1
 40
0.0
  9
$USERR2
 40
0.0
  9
$USERR3
 40
0.0
  9
$USERR4
 40
0.0
  9
$USERR5
 40
0.0
  9
$WORLDVIEW
 70
     1
  9
$SHADEDGE
 70
     3
  9
$SHADEDIF
 70
    70
  9
$TILEMODE
 70
     1
  9
$MAXACTVP
 70
    64
  9
$PLIMCHECK
 70
     0
  9
$PEXTMIN
 10
1.000000000000000E+20
 20
1.000000000000000E+20
 30
1.000000000000000E+20
  9
$PEXTMAX
 10
-1.000000000000000E+20
 20
-1.000000000000000E+20
 30
-1.000000000000000E+20
  9
$PLIMMIN
 10
0.0
 20
0.0
  9
$PLIMMAX
 10
0.0
 20
0.0
  9
$UNITMODE
 70
     0
  9
$VISRETAIN
 70
     1
  9
$PLINEGEN
 70
     0
  9
$PSLTSCALE
 70
     1
  0
ENDSEC
  0
SECTION
  2
TABLES
  0
TABLE
  2
VPORT
 70
     1
  0
VPORT
  2
*ACTIVE
 70
     0
 10
0.0
 20
0.0
 11
1.0
 21
1.0
 12
150.7496646337809
 22
-106.0340222572597
 13
0.0
 23
0.0
 14
10.0
 24
10.0
 15
10.0
 25
10.0
 16
0.0
 26
0.0
 36
1.0
 17
0.0
 27
0.0
 37
0.0
 40
218.2399999999993
 41
1.728222996515679
 42
50.0
 43
0.0
 44
0.0
 50
0.0
 51
0.0
 71
    16
 72
   100
 73
     1
 74
     3
 75
     0
 76
     0
 77
     0
 78
     0
  0
ENDTAB
  0
TABLE
  2
LTYPE
 70
     1
  0
LTYPE
  2
CONTINUOUS
 70
     0
  3
Solid line
 72
    65
 73
     0
 40
0.0
  0
ENDTAB
  0
TABLE
  2
LAYER
 70
     1
  0
LAYER
  2
0
 70
     0
 62
     7
  6
CONTINUOUS
  0
ENDTAB
  0
TABLE
  2
STYLE
 70
     1
  0
STYLE
  2
STANDARD
 70
     0
 40
0.0
 41
1.0
 50
0.0
 71
     0
 42
2.5
  3
Arial.ttf
  4

  0
ENDTAB
  0
TABLE
  2
VIEW
 70
     0
  0
ENDTAB
  0
TABLE
  2
UCS
 70
     0
  0
ENDTAB
  0
TABLE
  2
APPID
 70
     1
  0
APPID
  2
ACAD
 70
     0
  0
ENDTAB
  0
TABLE
  2
DIMSTYLE
 70
     1
  0
DIMSTYLE
  2
ISO-25
 70
     0
  3

  4

  5

  6

  7

 40
1.0
 41
2.5
 42
0.625
 43
3.75
 44
1.25
 45
0.0
 46
0.0
 47
0.0
 48
0.0
140
2.5
141
2.5
142
0.0
143
0.03937007874016
144
1.0
145
0.0
146
1.0
147
0.625
 71
     0
 72
     0
 73
     0
 74
     0
 75
     0
 76
     0
 77
     1
 78
     8
170
     0
171
     3
172
     1
173
     0
174
     0
175
     0
176
     0
177
     0
178
     0
  0
ENDTAB
  0
ENDSEC
  0
SECTION
  2
BLOCKS
  0
BLOCK
  8
0
  2
$MODEL_SPACE
 70
     0
 10
0.0
 20
0.0
 30
0.0
  3
$MODEL_SPACE
  1

  0
ENDBLK
  5
21
  8
0
  0
BLOCK
 67
     1
  8
0
  2
$PAPER_SPACE
 70
     0
 10
0.0
 20
0.0
 30
0.0
  3
$PAPER_SPACE
  1

  0
ENDBLK
  5
1D
 67
     1
  8
0
  0
BLOCK
  8
0
  2
*U1
 70
     1
 10
0.0
 20
0.0
 30
0.0
  3
*U1
  1

  0
SOLID
  5
10074
  8
0
  6
BYBLOCK
 62
     1
 10
371.93153
 20
28.99782400000015
 30
0.0
 11
371.93153
 21
38.9774000000001
 31
0.0
 12
374.156706
 22
28.99782400000015
 32
0.0
 13
374.156706
 23
28.99782400000015
 33
0.0
  0
SOLID
  5
10075
  8
0
  6
BYBLOCK
 62
     1
 10
374.156706
 20
28.99782400000015
 30
0.0
 11
371.93153
 21
38.9774000000001
 31
0.0
 12
374.156706
 22
38.97535063803038
 32
0.0
 13
374.156706
 23
38.97535063803038
 33
0.0
  0
SOLID
  5
10076
  8
0
  6
BYBLOCK
 62
     1
 10
374.156706
 20
32.90312000000006
 30
0.0
 11
374.156706
 21
34.44276200000013
 31
0.0
 12
375.4763210054591
 22
32.90312000000006
 32
0.0
 13
375.4763210054591
 23
32.90312000000006
 33
0.0
  0
SOLID
  5
10077
  8
0
  6
BYBLOCK
 62
     1
 10
375.4763210054591
 20
32.90312000000006
 30
0.0
 11
374.156706
 21
34.44276200000013
 31
0.0
 12
375.4763210054591
 22
34.44276200000013
 32
0.0
 13
375.4763210054591
 23
34.44276200000013
 33
0.0
  0
SOLID
  5
10078
  8
0
  6
BYBLOCK
 62
     1
 10
374.156706
 20
36.1045640000001
 30
0.0
 11
374.156706
 21
38.97535063803038
 31
0.0
 12
375.4763210054591
 22
36.1045640000001
 32
0.0
 13
375.4763210054591
 23
36.1045640000001
 33
0.0
  0
SOLID
  5
10079
  8
0
  6
BYBLOCK
 62
     1
 10
375.4763210054591
 20
36.1045640000001
 30
0.0
 11
374.156706
 21
38.97535063803038
 31
0.0
 12
375.4763210054591
 22
38.97413528751121
 32
0.0
 13
375.4763210054591
 23
38.97413528751121
 33
0.0
  0
SOLID
  5
1007A
  8
0
  6
BYBLOCK
 62
     1
 10
375.4763210054591
 20
32.90312000000006
 30
0.0
 11
375.4763210054591
 21
34.44276200000013
 31
0.0
 12
375.730062
 22
33.00240502276863
 32
0.0
 13
375.730062
 23
33.00240502276863
 33
0.0
  0
SOLID
  5
1007B
  8
0
  6
BYBLOCK
 62
     1
 10
375.730062
 20
33.00240502276863
 30
0.0
 11
375.4763210054591
 21
34.44276200000013
 31
0.0
 12
375.730062
 22
34.44276200000013
 32
0.0
 13
375.730062
 23
34.44276200000013
 33
0.0
  0
SOLID
  5
1007C
  8
0
  6
BYBLOCK
 62
     1
 10
375.4763210054591
 20
36.1045640000001
 30
0.0
 11
375.4763210054591
 21
38.97413528751121
 31
0.0
 12
375.730062
 22
36.1045640000001
 32
0.0
 13
375.730062
 23
36.1045640000001
 33
0.0
  0
SOLID
  5
1007D
  8
0
  6
BYBLOCK
 62
     1
 10
375.730062
 20
36.1045640000001
 30
0.0
 11
375.4763210054591
 21
38.97413528751121
 31
0.0
 12
375.730062
 22
38.97390159492044
 32
0.0
 13
375.730062
 23
38.97390159492044
 33
0.0
  0
SOLID
  5
1007E
  8
0
  6
BYBLOCK
 62
     1
 10
375.730062
 20
36.1045640000001
 30
0.0
 11
375.730062
 21
38.97390159492044
 31
0.0
 12
378.032582
 22
36.1045640000001
 32
0.0
 13
378.032582
 23
36.1045640000001
 33
0.0
  0
SOLID
  5
1007F
  8
0
  6
BYBLOCK
 62
     1
 10
378.032582
 20
36.1045640000001
 30
0.0
 11
375.730062
 21
38.97390159492044
 31
0.0
 12
378.032582
 22
38.97178100000008
 32
0.0
 13
378.032582
 23
38.97178100000008
 33
0.0
  0
ENDBLK
  5
10080
  8
0
  0
BLOCK
  8
0
  2
*U2
 70
     1
 10
0.0
 20
0.0
 30
0.0
  3
*U2
  1

  0
SOLID
  5
10084
  8
0
  6
BYBLOCK
 62
     5
 10
374.881604
 20
31.79149000000007
 30
0.0
 11
374.831944
 21
32.65098500000011
 31
0.0
 12
374.881604
 22
32.67041620873957
 32
0.0
 13
374.881604
 23
32.67041620873957
 33
0.0
  0
SOLID
  5
10085
  8
0
  6
BYBLOCK
 62
     5
 10
374.881604
 20
31.79149000000007
 30
0.0
 11
374.881604
 21
32.67041620873957
 31
0.0
 12
375.4763210054591
 22
31.63002296378241
 32
0.0
 13
375.4763210054591
 23
31.63002296378241
 33
0.0
  0
SOLID
  5
10086
  8
0
  6
BYBLOCK
 62
     5
 10
375.4763210054591
 20
31.63002296378241
 30
0.0
 11
374.881604
 21
32.67041620873957
 31
0.0
 12
375.4763210054591
 22
32.90312000000006
 32
0.0
 13
375.4763210054591
 23
32.90312000000006
 33
0.0
  0
SOLID
  5
10087
  8
0
  6
BYBLOCK
 62
     5
 10
375.4763210054591
 20
31.63002296378241
 30
0.0
 11
375.4763210054591
 21
32.90312000000006
 31
0.0
 12
375.685945
 22
31.5731095666407
 32
0.0
 13
375.685945
 23
31.5731095666407
 33
0.0
  0
SOLID
  5
10088
  8
0
  6
BYBLOCK
 62
     5
 10
375.685945
 20
31.5731095666407
 30
0.0
 11
375.4763210054591
 21
32.90312000000006
 31
0.0
 12
375.685945
 22
32.90312000000006
 32
0.0
 13
375.685945
 23
32.90312000000006
 33
0.0
  0
SOLID
  5
10089
  8
0
  6
BYBLOCK
 62
     5
 10
375.685945
 20
31.5731095666407
 30
0.0
 11
375.685945
 21
32.90312000000006
 31
0.0
 12
375.730062
 22
31.56113169956877
 32
0.0
 13
375.730062
 23
31.56113169956877
 33
0.0
  0
SOLID
  5
1008A
  8
0
  6
BYBLOCK
 62
     5
 10
375.730062
 20
31.56113169956877
 30
0.0
 11
375.685945
 21
32.90312000000006
 31
0.0
 12
375.730062
 22
32.90312000000006
 32
0.0
 13
375.730062
 23
32.90312000000006
 33
0.0
  0
SOLID
  5
1008B
  8
0
  6
BYBLOCK
 62
     5
 10
375.730062
 20
34.98364179189947
 30
0.0
 11
375.685945
 21
35.06053600000007
 31
0.0
 12
375.730062
 22
35.10956037798348
 32
0.0
 13
375.730062
 23
35.10956037798348
 33
0.0
  0
SOLID
  5
1008C
  8
0
  6
BYBLOCK
 62
     5
 10
375.730062
 20
31.56113169956877
 30
0.0
 11
375.730062
 21
33.00240502276863
 31
0.0
 12
375.982928
 22
31.49247799838748
 32
0.0
 13
375.982928
 23
31.49247799838748
 33
0.0
  0
SOLID
  5
1008D
  8
0
  6
BYBLOCK
 62
     5
 10
375.982928
 20
31.49247799838748
 30
0.0
 11
375.730062
 21
33.00240502276863
 31
0.0
 12
375.982928
 22
33.10134767337513
 32
0.0
 13
375.982928
 23
33.10134767337513
 33
0.0
  0
SOLID
  5
1008E
  8
0
  6
BYBLOCK
 62
     5
 10
375.730062
 20
34.98364179189947
 30
0.0
 11
375.730062
 21
35.10956037798348
 31
0.0
 12
375.982928
 22
34.54290622906473
 32
0.0
 13
375.982928
 23
34.54290622906473
 33
0.0
  0
SOLID
  5
1008F
  8
0
  6
BYBLOCK
 62
     5
 10
375.982928
 20
34.54290622906473
 30
0.0
 11
375.730062
 21
35.10956037798348
 31
0.0
 12
375.982928
 22
35.39055406212255
 32
0.0
 13
375.982928
 23
35.39055406212255
 33
0.0
  0
SOLID
  5
10090
  8
0
  6
BYBLOCK
 62
     5
 10
376.225619
 20
29.27004059386059
 30
0.0
 11
375.982928
 21
29.48843800000009
 31
0.0
 12
376.225619
 22
30.03833105240975
 32
0.0
 13
376.225619
 23
30.03833105240975
 33
0.0
  0
SOLID
  5
10091
  8
0
  6
BYBLOCK
 62
     5
 10
375.982928
 20
31.49247799838748
 30
0.0
 11
375.982928
 21
33.10134767337513
 31
0.0
 12
376.225619
 22
31.42658683313243
 32
0.0
 13
376.225619
 23
31.42658683313243
 33
0.0
  0
SOLID
  5
10092
  8
0
  6
BYBLOCK
 62
     5
 10
376.225619
 20
31.42658683313243
 30
0.0
 11
375.982928
 21
33.10134767337513
 31
0.0
 12
376.225619
 22
33.19630900000004
 32
0.0
 13
376.225619
 23
33.19630900000004
 33
0.0
  0
SOLID
  5
10093
  8
0
  6
BYBLOCK
 62
     5
 10
375.982928
 20
34.54290622906473
 30
0.0
 11
375.982928
 21
35.39055406212255
 31
0.0
 12
376.225619
 22
34.11990529386623
 32
0.0
 13
376.225619
 23
34.11990529386623
 33
0.0
  0
SOLID
  5
10094
  8
0
  6
BYBLOCK
 62
     5
 10
376.225619
 20
34.11990529386623
 30
0.0
 11
375.982928
 21
35.39055406212255
 31
0.0
 12
376.225619
 22
35.66024092471925
 32
0.0
 13
376.225619
 23
35.66024092471925
 33
0.0
  0
SOLID
  5
10095
  8
0
  6
BYBLOCK
 62
     5
 10
376.225619
 20
29.27004059386059
 30
0.0
 11
376.225619
 21
30.03833105240975
 31
0.0
 12
376.262838
 22
29.23654725022978
 32
0.0
 13
376.262838
 23
29.23654725022978
 33
0.0
  0
SOLID
  5
10096
  8
0
  6
BYBLOCK
 62
     5
 10
376.262838
 20
29.23654725022978
 30
0.0
 11
376.225619
 21
30.03833105240975
 31
0.0
 12
376.262838
 22
30.12266244301605
 32
0.0
 13
376.262838
 23
30.12266244301605
 33
0.0
  0
SOLID
  5
10097
  8
0
  6
BYBLOCK
 62
     5
 10
376.225619
 20
31.42658683313243
 30
0.0
 11
376.225619
 21
33.19630900000004
 31
0.0
 12
376.262838
 22
31.41648178894197
 32
0.0
 13
376.262838
 23
31.41648178894197
 33
0.0
  0
SOLID
  5
10098
  8
0
  6
BYBLOCK
 62
     5
 10
376.262838
 20
31.41648178894197
 30
0.0
 11
376.225619
 21
33.19630900000004
 31
0.0
 12
376.262838
 22
33.30083024764333
 32
0.0
 13
376.262838
 23
33.30083024764333
 33
0.0
  0
SOLID
  5
10099
  8
0
  6
BYBLOCK
 62
     5
 10
376.225619
 20
34.11990529386623
 30
0.0
 11
376.225619
 21
35.66024092471925
 31
0.0
 12
376.262838
 22
34.05503403037829
 32
0.0
 13
376.262838
 23
34.05503403037829
 33
0.0
  0
SOLID
  5
1009A
  8
0
  6
BYBLOCK
 62
     5
 10
376.262838
 20
34.05503403037829
 30
0.0
 11
376.225619
 21
35.66024092471925
 31
0.0
 12
376.262838
 22
35.7016000000001
 32
0.0
 13
376.262838
 23
35.7016000000001
 33
0.0
  0
SOLID
  5
1009B
  8
0
  6
BYBLOCK
 62
     5
 10
376.262838
 20
29.23654725022978
 30
0.0
 11
376.262838
 21
30.12266244301605
 31
0.0
 12
376.3227519999999
 22
29.18263069711727
 32
0.0
 13
376.3227519999999
 23
29.18263069711727
 33
0.0
  0
SOLID
  5
1009C
  8
0
  6
BYBLOCK
 62
     5
 10
376.3227519999999
 20
29.18263069711727
 30
0.0
 11
376.262838
 21
30.12266244301605
 31
0.0
 12
376.3227519999999
 22
30.25841651853611
 32
0.0
 13
376.3227519999999
 23
30.25841651853611
 33
0.0
  0
SOLID
  5
1009D
  8
0
  6
BYBLOCK
 62
     5
 10
376.262838
 20
31.41648178894197
 30
0.0
 11
376.262838
 21
33.30083024764333
 31
0.0
 12
376.3227519999999
 22
31.40021500000012
 32
0.0
 13
376.3227519999999
 23
31.40021500000012
 33
0.0
  0
SOLID
  5
1009E
  8
0
  6
BYBLOCK
 62
     5
 10
376.3227519999999
 20
31.40021500000012
 30
0.0
 11
376.262838
 21
33.30083024764333
 31
0.0
 12
376.3227519999999
 22
33.46908533325269
 32
0.0
 13
376.3227519999999
 23
33.46908533325269
 33
0.0
  0
SOLID
  5
1009F
  8
0
  6
BYBLOCK
 62
     5
 10
376.262838
 20
34.05503403037829
 30
0.0
 11
376.262838
 21
35.7016000000001
 31
0.0
 12
376.3227519999999
 22
33.95060626819734
 32
0.0
 13
376.3227519999999
 23
33.95060626819734
 33
0.0
  0
SOLID
  5
100A0
  8
0
  6
BYBLOCK
 62
     5
 10
376.3227519999999
 20
33.95060626819734
 30
0.0
 11
376.262838
 21
35.7016000000001
 31
0.0
 12
376.3227519999999
 22
35.6753907449772
 32
0.0
 13
376.3227519999999
 23
35.6753907449772
 33
0.0
  0
SOLID
  5
100A1
  8
0
  6
BYBLOCK
 62
     5
 10
376.3227519999999
 20
29.18263069711727
 30
0.0
 11
376.3227519999999
 21
30.25841651853611
 31
0.0
 12
376.428552
 22
29.08742137510045
 32
0.0
 13
376.428552
 23
29.08742137510045
 33
0.0
  0
SOLID
  5
100A2
  8
0
  6
BYBLOCK
 62
     5
 10
376.428552
 20
29.08742137510045
 30
0.0
 11
376.3227519999999
 21
30.25841651853611
 31
0.0
 12
376.428552
 22
30.49813980841914
 32
0.0
 13
376.428552
 23
30.49813980841914
 33
0.0
  0
SOLID
  5
100A3
  8
0
  6
BYBLOCK
 62
     5
 10
376.3227519999999
 20
31.40021500000012
 30
0.0
 11
376.3227519999999
 21
33.46908533325269
 31
0.0
 12
376.428552
 22
31.17928286226351
 32
0.0
 13
376.428552
 23
31.17928286226351
 33
0.0
  0
SOLID
  5
100A4
  8
0
  6
BYBLOCK
 62
     5
 10
376.428552
 20
31.17928286226351
 30
0.0
 11
376.3227519999999
 21
33.46908533325269
 31
0.0
 12
376.428552
 22
33.76620100000014
 32
0.0
 13
376.428552
 23
33.76620100000014
 33
0.0
  0
SOLID
  5
100A5
  8
0
  6
BYBLOCK
 62
     5
 10
376.3227519999999
 20
33.95060626819734
 30
0.0
 11
376.3227519999999
 21
35.6753907449772
 31
0.0
 12
376.428552
 22
33.76620100000014
 32
0.0
 13
376.428552
 23
33.76620100000014
 33
0.0
  0
SOLID
  5
100A6
  8
0
  6
BYBLOCK
 62
     5
 10
376.428552
 20
33.76620100000014
 30
0.0
 11
376.3227519999999
 21
35.6753907449772
 31
0.0
 12
376.428552
 22
35.62910875443362
 32
0.0
 13
376.428552
 23
35.62910875443362
 33
0.0
  0
SOLID
  5
100A7
  8
0
  6
BYBLOCK
 62
     5
 10
376.428552
 20
29.08742137510045
 30
0.0
 11
376.428552
 21
30.49813980841914
 31
0.0
 12
376.584992
 22
28.94664116398236
 32
0.0
 13
376.584992
 23
28.94664116398236
 33
0.0
  0
SOLID
  5
100A8
  8
0
  6
BYBLOCK
 62
     5
 10
376.584992
 20
28.94664116398236
 30
0.0
 11
376.428552
 21
30.49813980841914
 31
0.0
 12
376.584992
 22
30.85260400000004
 32
0.0
 13
376.584992
 23
30.85260400000004
 33
0.0
  0
SOLID
  5
100A9
  8
0
  6
BYBLOCK
 62
     5
 10
376.428552
 20
31.17928286226351
 30
0.0
 11
376.428552
 21
35.62910875443362
 31
0.0
 12
376.584992
 22
30.85260400000004
 32
0.0
 13
376.584992
 23
30.85260400000004
 33
0.0
  0
SOLID
  5
100AA
  8
0
  6
BYBLOCK
 62
     5
 10
376.584992
 20
30.85260400000004
 30
0.0
 11
376.428552
 21
35.62910875443362
 31
0.0
 12
376.584992
 22
35.56067440093051
 32
0.0
 13
376.584992
 23
35.56067440093051
 33
0.0
  0
SOLID
  5
100AB
  8
0
  6
BYBLOCK
 62
     5
 10
376.584992
 20
28.94664116398236
 30
0.0
 11
376.584992
 21
35.56067440093051
 31
0.0
 12
376.623991
 22
28.91154600000004
 32
0.0
 13
376.623991
 23
28.91154600000004
 33
0.0
  0
SOLID
  5
100AC
  8
0
  6
BYBLOCK
 62
     5
 10
376.623991
 20
28.91154600000004
 30
0.0
 11
376.584992
 21
35.56067440093051
 31
0.0
 12
376.623991
 22
35.54361436927449
 32
0.0
 13
376.623991
 23
35.54361436927449
 33
0.0
  0
SOLID
  5
100AD
  8
0
  6
BYBLOCK
 62
     5
 10
376.623991
 20
28.91154600000004
 30
0.0
 11
376.623991
 21
35.54361436927449
 31
0.0
 12
377.628676
 22
29.4879688368898
 32
0.0
 13
377.628676
 23
29.4879688368898
 33
0.0
  0
SOLID
  5
100AE
  8
0
  6
BYBLOCK
 62
     5
 10
377.628676
 20
29.4879688368898
 30
0.0
 11
376.623991
 21
35.54361436927449
 31
0.0
 12
377.628676
 22
35.10411700000009
 32
0.0
 13
377.628676
 23
35.10411700000009
 33
0.0
  0
SOLID
  5
100AF
  8
0
  6
BYBLOCK
 62
     5
 10
377.628676
 20
29.4879688368898
 30
0.0
 11
377.628676
 21
35.10411700000009
 31
0.0
 12
377.658877
 22
29.50529620427055
 32
0.0
 13
377.658877
 23
29.50529620427055
 33
0.0
  0
SOLID
  5
100B0
  8
0
  6
BYBLOCK
 62
     5
 10
377.658877
 20
29.50529620427055
 30
0.0
 11
377.628676
 21
35.10411700000009
 31
0.0
 12
377.658877
 22
35.11857963091396
 32
0.0
 13
377.658877
 23
35.11857963091396
 33
0.0
  0
SOLID
  5
100B1
  8
0
  6
BYBLOCK
 62
     5
 10
377.658877
 20
29.50529620427055
 30
0.0
 11
377.658877
 21
32.52746100000013
 31
0.0
 12
377.676372
 22
29.51533369615246
 32
0.0
 13
377.676372
 23
29.51533369615246
 33
0.0
  0
SOLID
  5
100B2
  8
0
  6
BYBLOCK
 62
     5
 10
377.676372
 20
29.51533369615246
 30
0.0
 11
377.658877
 21
32.52746100000013
 31
0.0
 12
377.676372
 22
32.21984400000008
 32
0.0
 13
377.676372
 23
32.21984400000008
 33
0.0
  0
SOLID
  5
100B3
  8
0
  6
BYBLOCK
 62
     5
 10
377.658877
 20
32.52746100000013
 30
0.0
 11
377.658877
 21
35.11857963091396
 31
0.0
 12
377.676372
 22
32.64856789543995
 32
0.0
 13
377.676372
 23
32.64856789543995
 33
0.0
  0
SOLID
  5
100B4
  8
0
  6
BYBLOCK
 62
     5
 10
377.676372
 20
32.64856789543995
 30
0.0
 11
377.658877
 21
35.11857963091396
 31
0.0
 12
377.676372
 22
35.12695762263073
 32
0.0
 13
377.676372
 23
35.12695762263073
 33
0.0
  0
SOLID
  5
100B5
  8
0
  6
BYBLOCK
 62
     5
 10
377.676372
 20
29.51533369615246
 30
0.0
 11
377.676372
 21
32.21984400000008
 31
0.0
 12
377.7030619999999
 22
29.53064668033809
 32
0.0
 13
377.7030619999999
 23
29.53064668033809
 33
0.0
  0
SOLID
  5
100B6
  8
0
  6
BYBLOCK
 62
     5
 10
377.7030619999999
 20
29.53064668033809
 30
0.0
 11
377.676372
 21
32.21984400000008
 31
0.0
 12
377.7030619999999
 22
32.11377337472997
 32
0.0
 13
377.7030619999999
 23
32.11377337472997
 33
0.0
  0
SOLID
  5
100B7
  8
0
  6
BYBLOCK
 62
     5
 10
377.676372
 20
32.64856789543995
 30
0.0
 11
377.676372
 21
35.12695762263073
 31
0.0
 12
377.7030619999999
 22
32.83332600000006
 32
0.0
 13
377.7030619999999
 23
32.83332600000006
 33
0.0
  0
SOLID
  5
100B8
  8
0
  6
BYBLOCK
 62
     5
 10
377.7030619999999
 20
32.83332600000006
 30
0.0
 11
377.676372
 21
35.12695762263073
 31
0.0
 12
377.7030619999999
 22
35.13973890865071
 32
0.0
 13
377.7030619999999
 23
35.13973890865071
 33
0.0
  0
SOLID
  5
100B9
  8
0
  6
BYBLOCK
 62
     5
 10
377.7030619999999
 20
29.53064668033809
 30
0.0
 11
377.7030619999999
 21
32.11377337472997
 31
0.0
 12
377.752643
 22
29.55909302986641
 32
0.0
 13
377.752643
 23
29.55909302986641
 33
0.0
  0
SOLID
  5
100BA
  8
0
  6
BYBLOCK
 62
     5
 10
377.752643
 20
29.55909302986641
 30
0.0
 11
377.7030619999999
 21
32.11377337472997
 31
0.0
 12
377.752643
 22
31.91673000000014
 32
0.0
 13
377.752643
 23
31.91673000000014
 33
0.0
  0
SOLID
  5
100BB
  8
0
  6
BYBLOCK
 62
     5
 10
377.7030619999999
 20
32.83332600000006
 30
0.0
 11
377.7030619999999
 21
35.13973890865071
 31
0.0
 12
377.752643
 22
32.97608038175895
 32
0.0
 13
377.752643
 23
32.97608038175895
 33
0.0
  0
SOLID
  5
100BC
  8
0
  6
BYBLOCK
 62
     5
 10
377.752643
 20
32.97608038175895
 30
0.0
 11
377.7030619999999
 21
35.13973890865071
 31
0.0
 12
377.752643
 22
35.16348221858551
 32
0.0
 13
377.752643
 23
35.16348221858551
 33
0.0
  0
SOLID
  5
100BD
  8
0
  6
BYBLOCK
 62
     5
 10
377.752643
 20
29.55909302986641
 30
0.0
 11
377.752643
 21
31.91673000000014
 31
0.0
 12
377.803911
 22
29.58850727015237
 32
0.0
 13
377.803911
 23
29.58850727015237
 33
0.0
  0
SOLID
  5
100BE
  8
0
  6
BYBLOCK
 62
     5
 10
377.803911
 20
29.58850727015237
 30
0.0
 11
377.752643
 21
31.91673000000014
 31
0.0
 12
377.803911
 22
31.80963982633621
 32
0.0
 13
377.803911
 23
31.80963982633621
 33
0.0
  0
SOLID
  5
100BF
  8
0
  6
BYBLOCK
 62
     5
 10
377.752643
 20
32.97608038175895
 30
0.0
 11
377.752643
 21
35.16348221858551
 31
0.0
 12
377.803911
 22
33.12369200000012
 32
0.0
 13
377.803911
 23
33.12369200000012
 33
0.0
  0
SOLID
  5
100C0
  8
0
  6
BYBLOCK
 62
     5
 10
377.803911
 20
33.12369200000012
 30
0.0
 11
377.752643
 21
35.16348221858551
 31
0.0
 12
377.803911
 22
35.18803339774158
 32
0.0
 13
377.803911
 23
35.18803339774158
 33
0.0
  0
SOLID
  5
100C1
  8
0
  6
BYBLOCK
 62
     5
 10
377.803911
 20
29.58850727015237
 30
0.0
 11
377.803911
 21
31.80963982633621
 31
0.0
 12
377.885221
 22
29.63515765397166
 32
0.0
 13
377.885221
 23
29.63515765397166
 33
0.0
  0
SOLID
  5
100C2
  8
0
  6
BYBLOCK
 62
     5
 10
377.885221
 20
29.63515765397166
 30
0.0
 11
377.803911
 21
31.80963982633621
 31
0.0
 12
377.885221
 22
31.63979700000004
 32
0.0
 13
377.885221
 23
31.63979700000004
 33
0.0
  0
SOLID
  5
100C3
  8
0
  6
BYBLOCK
 62
     5
 10
377.803911
 20
33.12369200000012
 30
0.0
 11
377.803911
 21
35.18803339774158
 31
0.0
 12
377.885221
 22
33.25892712636548
 32
0.0
 13
377.885221
 23
33.25892712636548
 33
0.0
  0
SOLID
  5
100C4
  8
0
  6
BYBLOCK
 62
     5
 10
377.885221
 20
33.25892712636548
 30
0.0
 11
377.803911
 21
35.18803339774158
 31
0.0
 12
377.885221
 22
35.22697106601765
 32
0.0
 13
377.885221
 23
35.22697106601765
 33
0.0
  0
SOLID
  5
100C5
  8
0
  6
BYBLOCK
 62
     5
 10
377.885221
 20
29.63515765397166
 30
0.0
 11
377.885221
 21
31.63979700000004
 31
0.0
 12
377.918324
 22
29.65415000000007
 32
0.0
 13
377.918324
 23
29.65415000000007
 33
0.0
  0
SOLID
  5
100C6
  8
0
  6
BYBLOCK
 62
     5
 10
377.918324
 20
29.65415000000007
 30
0.0
 11
377.885221
 21
31.63979700000004
 31
0.0
 12
377.918324
 22
31.59627491686079
 32
0.0
 13
377.918324
 23
31.59627491686079
 33
0.0
  0
SOLID
  5
100C7
  8
0
  6
BYBLOCK
 62
     5
 10
377.885221
 20
33.25892712636548
 30
0.0
 11
377.885221
 21
35.22697106601765
 31
0.0
 12
377.918324
 22
33.31398417209259
 32
0.0
 13
377.918324
 23
33.31398417209259
 33
0.0
  0
SOLID
  5
100C8
  8
0
  6
BYBLOCK
 62
     5
 10
377.918324
 20
33.31398417209259
 30
0.0
 11
377.885221
 21
35.22697106601765
 31
0.0
 12
377.918324
 22
35.2428234043886
 32
0.0
 13
377.918324
 23
35.2428234043886
 33
0.0
  0
SOLID
  5
100C9
  8
0
  6
BYBLOCK
 62
     5
 10
377.918324
 20
29.65415000000007
 30
0.0
 11
377.918324
 21
31.59627491686079
 31
0.0
 12
377.962657
 22
29.6383604149253
 32
0.0
 13
377.962657
 23
29.6383604149253
 33
0.0
  0
SOLID
  5
100CA
  8
0
  6
BYBLOCK
 62
     5
 10
377.962657
 20
29.6383604149253
 30
0.0
 11
377.918324
 21
31.59627491686079
 31
0.0
 12
377.962657
 22
31.53798822043407
 32
0.0
 13
377.962657
 23
31.53798822043407
 33
0.0
  0
SOLID
  5
100CB
  8
0
  6
BYBLOCK
 62
     5
 10
377.918324
 20
33.31398417209259
 30
0.0
 11
377.918324
 21
35.2428234043886
 31
0.0
 12
377.962657
 22
33.38771900000006
 32
0.0
 13
377.962657
 23
33.38771900000006
 33
0.0
  0
SOLID
  5
100CC
  8
0
  6
BYBLOCK
 62
     5
 10
377.962657
 20
33.38771900000006
 30
0.0
 11
377.918324
 21
35.2428234043886
 31
0.0
 12
377.962657
 22
35.26405355624794
 32
0.0
 13
377.962657
 23
35.26405355624794
 33
0.0
  0
SOLID
  5
100CD
  8
0
  6
BYBLOCK
 62
     5
 10
377.962657
 20
29.6383604149253
 30
0.0
 11
377.962657
 21
31.53798822043407
 31
0.0
 12
378.071186
 22
29.59970686387799
 32
0.0
 13
378.071186
 23
29.59970686387799
 33
0.0
  0
SOLID
  5
100CE
  8
0
  6
BYBLOCK
 62
     5
 10
378.071186
 20
29.59970686387799
 30
0.0
 11
377.962657
 21
31.53798822043407
 31
0.0
 12
378.071186
 22
31.39530000000013
 32
0.0
 13
378.071186
 23
31.39530000000013
 33
0.0
  0
SOLID
  5
100CF
  8
0
  6
BYBLOCK
 62
     5
 10
377.962657
 20
33.38771900000006
 30
0.0
 11
377.962657
 21
35.26405355624794
 31
0.0
 12
378.071186
 22
33.51099513741544
 32
0.0
 13
378.071186
 23
33.51099513741544
 33
0.0
  0
SOLID
  5
100D0
  8
0
  6
BYBLOCK
 62
     5
 10
378.071186
 20
33.51099513741544
 30
0.0
 11
377.962657
 21
35.26405355624794
 31
0.0
 12
378.071186
 22
35.31602583764428
 32
0.0
 13
378.071186
 23
35.31602583764428
 33
0.0
  0
SOLID
  5
100D1
  8
0
  6
BYBLOCK
 62
     5
 10
378.071186
 20
29.59970686387799
 30
0.0
 11
378.071186
 21
31.39530000000013
 31
0.0
 12
378.16679
 22
29.56565666444442
 32
0.0
 13
378.16679
 23
29.56565666444442
 33
0.0
  0
SOLID
  5
100D2
  8
0
  6
BYBLOCK
 62
     5
 10
378.16679
 20
29.56565666444442
 30
0.0
 11
378.071186
 21
31.39530000000013
 31
0.0
 12
378.16679
 22
31.30756783485448
 32
0.0
 13
378.16679
 23
31.30756783485448
 33
0.0
  0
SOLID
  5
100D3
  8
0
  6
BYBLOCK
 62
     5
 10
378.071186
 20
33.51099513741544
 30
0.0
 11
378.071186
 21
35.31602583764428
 31
0.0
 12
378.16679
 22
33.61959000000013
 32
0.0
 13
378.16679
 23
33.61959000000013
 33
0.0
  0
SOLID
  5
100D4
  8
0
  6
BYBLOCK
 62
     5
 10
378.16679
 20
33.61959000000013
 30
0.0
 11
378.071186
 21
35.31602583764428
 31
0.0
 12
378.16679
 22
35.36180860529728
 32
0.0
 13
378.16679
 23
35.36180860529728
 33
0.0
  0
SOLID
  5
100D5
  8
0
  6
BYBLOCK
 62
     5
 10
378.16679
 20
29.56565666444442
 30
0.0
 11
378.16679
 21
31.30756783485448
 31
0.0
 12
378.176288
 22
29.56227386880595
 32
0.0
 13
378.176288
 23
29.56227386880595
 33
0.0
  0
SOLID
  5
100D6
  8
0
  6
BYBLOCK
 62
     5
 10
378.176288
 20
29.56227386880595
 30
0.0
 11
378.16679
 21
31.30756783485448
 31
0.0
 12
378.176288
 22
31.29885188045347
 32
0.0
 13
378.176288
 23
31.29885188045347
 33
0.0
  0
SOLID
  5
100D7
  8
0
  6
BYBLOCK
 62
     5
 10
378.16679
 20
33.61959000000013
 30
0.0
 11
378.16679
 21
35.36180860529728
 31
0.0
 12
378.176288
 22
33.62661763533015
 32
0.0
 13
378.176288
 23
33.62661763533015
 33
0.0
  0
SOLID
  5
100D8
  8
0
  6
BYBLOCK
 62
     5
 10
378.176288
 20
33.62661763533015
 30
0.0
 11
378.16679
 21
35.36180860529728
 31
0.0
 12
378.176288
 22
35.36635700000011
 32
0.0
 13
378.176288
 23
35.36635700000011
 33
0.0
  0
SOLID
  5
100D9
  8
0
  6
BYBLOCK
 62
     5
 10
378.176288
 20
29.56227386880595
 30
0.0
 11
378.176288
 21
31.29885188045347
 31
0.0
 12
378.296805
 22
29.51935068687699
 32
0.0
 13
378.296805
 23
29.51935068687699
 33
0.0
  0
SOLID
  5
100DA
  8
0
  6
BYBLOCK
 62
     5
 10
378.296805
 20
29.51935068687699
 30
0.0
 11
378.176288
 21
31.29885188045347
 31
0.0
 12
378.296805
 22
31.18825800000013
 32
0.0
 13
378.296805
 23
31.18825800000013
 33
0.0
  0
SOLID
  5
100DB
  8
0
  6
BYBLOCK
 62
     5
 10
378.176288
 20
33.62661763533015
 30
0.0
 11
378.176288
 21
35.36635700000011
 31
0.0
 12
378.296805
 22
33.71578899004351
 32
0.0
 13
378.296805
 23
33.71578899004351
 33
0.0
  0
SOLID
  5
100DC
  8
0
  6
BYBLOCK
 62
     5
 10
378.296805
 20
33.71578899004351
 30
0.0
 11
378.176288
 21
35.36635700000011
 31
0.0
 12
378.296805
 22
35.81024580578129
 32
0.0
 13
378.296805
 23
35.81024580578129
 33
0.0
  0
SOLID
  5
100DD
  8
0
  6
BYBLOCK
 62
     5
 10
378.296805
 20
29.51935068687699
 30
0.0
 11
378.296805
 21
31.18825800000013
 31
0.0
 12
378.41587
 22
29.4769446474272
 32
0.0
 13
378.41587
 23
29.4769446474272
 33
0.0
  0
SOLID
  5
100DE
  8
0
  6
BYBLOCK
 62
     5
 10
378.41587
 20
29.4769446474272
 30
0.0
 11
378.296805
 21
31.18825800000013
 31
0.0
 12
378.41587
 22
31.11714985308397
 32
0.0
 13
378.41587
 23
31.11714985308397
 33
0.0
  0
SOLID
  5
100DF
  8
0
  6
BYBLOCK
 62
     5
 10
378.296805
 20
33.71578899004351
 30
0.0
 11
378.296805
 21
35.81024580578129
 31
0.0
 12
378.41587
 22
33.80388600000015
 32
0.0
 13
378.41587
 23
33.80388600000015
 33
0.0
  0
SOLID
  5
100E0
  8
0
  6
BYBLOCK
 62
     5
 10
378.41587
 20
33.80388600000015
 30
0.0
 11
378.296805
 21
35.81024580578129
 31
0.0
 12
378.41587
 22
36.24878659803735
 32
0.0
 13
378.41587
 23
36.24878659803735
 33
0.0
  0
SOLID
  5
100E1
  8
0
  6
BYBLOCK
 62
     5
 10
378.41587
 20
29.4769446474272
 30
0.0
 11
378.41587
 21
31.11714985308397
 31
0.0
 12
378.492801
 22
29.44954500000006
 32
0.0
 13
378.492801
 23
29.44954500000006
 33
0.0
  0
SOLID
  5
100E2
  8
0
  6
BYBLOCK
 62
     5
 10
378.492801
 20
29.44954500000006
 30
0.0
 11
378.41587
 21
31.11714985308397
 31
0.0
 12
378.492801
 22
31.07120502588531
 32
0.0
 13
378.492801
 23
31.07120502588531
 33
0.0
  0
SOLID
  5
100E3
  8
0
  6
BYBLOCK
 62
     5
 10
378.41587
 20
33.80388600000015
 30
0.0
 11
378.41587
 21
36.24878659803735
 31
0.0
 12
378.492801
 22
33.84071471749759
 32
0.0
 13
378.492801
 23
33.84071471749759
 33
0.0
  0
SOLID
  5
100E4
  8
0
  6
BYBLOCK
 62
     5
 10
378.492801
 20
33.84071471749759
 30
0.0
 11
378.41587
 21
36.24878659803735
 31
0.0
 12
378.492801
 22
36.53213923474048
 32
0.0
 13
378.492801
 23
36.53213923474048
 33
0.0
  0
SOLID
  5
100E5
  8
0
  6
BYBLOCK
 62
     5
 10
378.492801
 20
29.44954500000006
 30
0.0
 11
378.492801
 21
31.07120502588531
 31
0.0
 12
378.565414
 22
29.26262153444166
 32
0.0
 13
378.565414
 23
29.26262153444166
 33
0.0
  0
SOLID
  5
100E6
  8
0
  6
BYBLOCK
 62
     5
 10
378.565414
 20
29.26262153444166
 30
0.0
 11
378.492801
 21
31.07120502588531
 31
0.0
 12
378.565414
 22
31.02783900000009
 32
0.0
 13
378.565414
 23
31.02783900000009
 33
0.0
  0
SOLID
  5
100E7
  8
0
  6
BYBLOCK
 62
     5
 10
378.492801
 20
33.84071471749759
 30
0.0
 11
378.492801
 21
36.53213923474048
 31
0.0
 12
378.565414
 22
33.87547630468144
 32
0.0
 13
378.565414
 23
33.87547630468144
 33
0.0
  0
SOLID
  5
100E8
  8
0
  6
BYBLOCK
 62
     5
 10
378.565414
 20
33.87547630468144
 30
0.0
 11
378.492801
 21
36.53213923474048
 31
0.0
 12
378.565414
 22
36.79958779265499
 32
0.0
 13
378.565414
 23
36.79958779265499
 33
0.0
  0
SOLID
  5
100E9
  8
0
  6
BYBLOCK
 62
     5
 10
378.565414
 20
29.26262153444166
 30
0.0
 11
378.565414
 21
31.02783900000009
 31
0.0
 12
378.567563
 22
29.25708948745999
 32
0.0
 13
378.567563
 23
29.25708948745999
 33
0.0
  0
SOLID
  5
100EA
  8
0
  6
BYBLOCK
 62
     5
 10
378.567563
 20
29.25708948745999
 30
0.0
 11
378.565414
 21
31.02783900000009
 31
0.0
 12
378.567563
 22
31.02709262095303
 32
0.0
 13
378.567563
 23
31.02709262095303
 33
0.0
  0
SOLID
  5
100EB
  8
0
  6
BYBLOCK
 62
     5
 10
378.565414
 20
33.87547630468144
 30
0.0
 11
378.565414
 21
36.79958779265499
 31
0.0
 12
378.567563
 22
33.87650508259803
 32
0.0
 13
378.567563
 23
33.87650508259803
 33
0.0
  0
SOLID
  5
100EC
  8
0
  6
BYBLOCK
 62
     5
 10
378.567563
 20
33.87650508259803
 30
0.0
 11
378.565414
 21
36.79958779265499
 31
0.0
 12
378.567563
 22
36.80750300000011
 32
0.0
 13
378.567563
 23
36.80750300000011
 33
0.0
  0
SOLID
  5
100ED
  8
0
  6
BYBLOCK
 62
     5
 10
378.567563
 20
29.25708948745999
 30
0.0
 11
378.567563
 21
31.02709262095303
 31
0.0
 12
378.6928019999999
 22
28.93469393978858
 32
0.0
 13
378.6928019999999
 23
28.93469393978858
 33
0.0
  0
SOLID
  5
100EE
  8
0
  6
BYBLOCK
 62
     5
 10
378.6928019999999
 20
28.93469393978858
 30
0.0
 11
378.567563
 21
31.02709262095303
 31
0.0
 12
378.6928019999999
 22
30.98359528941513
 32
0.0
 13
378.6928019999999
 23
30.98359528941513
 33
0.0
  0
SOLID
  5
100EF
  8
0
  6
BYBLOCK
 62
     5
 10
378.567563
 20
33.87650508259803
 30
0.0
 11
378.567563
 21
36.80750300000011
 31
0.0
 12
378.6928019999999
 22
33.93646000000012
 32
0.0
 13
378.6928019999999
 23
33.93646000000012
 33
0.0
  0
SOLID
  5
100F0
  8
0
  6
BYBLOCK
 62
     5
 10
378.6928019999999
 20
33.93646000000012
 30
0.0
 11
378.567563
 21
36.80750300000011
 31
0.0
 12
378.6928019999999
 22
36.81408436804573
 32
0.0
 13
378.6928019999999
 23
36.81408436804573
 33
0.0
  0
SOLID
  5
100F1
  8
0
  6
BYBLOCK
 62
     5
 10
378.6928019999999
 20
28.93469393978858
 30
0.0
 11
378.6928019999999
 21
30.98359528941513
 31
0.0
 12
378.855779
 22
28.51515163129936
 32
0.0
 13
378.855779
 23
28.51515163129936
 33
0.0
  0
SOLID
  5
100F2
  8
0
  6
BYBLOCK
 62
     5
 10
378.855779
 20
28.51515163129936
 30
0.0
 11
378.6928019999999
 21
30.98359528941513
 31
0.0
 12
378.855779
 22
30.92699100000004
 32
0.0
 13
378.855779
 23
30.92699100000004
 33
0.0
  0
SOLID
  5
100F3
  8
0
  6
BYBLOCK
 62
     5
 10
378.6928019999999
 20
33.93646000000012
 30
0.0
 11
378.6928019999999
 21
36.81408436804573
 31
0.0
 12
378.855779
 22
33.97746972820051
 32
0.0
 13
378.855779
 23
33.97746972820051
 33
0.0
  0
SOLID
  5
100F4
  8
0
  6
BYBLOCK
 62
     5
 10
378.855779
 20
33.97746972820051
 30
0.0
 11
378.6928019999999
 21
36.81408436804573
 31
0.0
 12
378.855779
 22
36.82264888564784
 32
0.0
 13
378.855779
 23
36.82264888564784
 33
0.0
  0
SOLID
  5
100F5
  8
0
  6
BYBLOCK
 62
     5
 10
378.855779
 20
28.51515163129936
 30
0.0
 11
378.855779
 21
30.92699100000004
 31
0.0
 12
378.995915
 22
28.15440759415033
 32
0.0
 13
378.995915
 23
28.15440759415033
 33
0.0
  0
SOLID
  5
100F6
  8
0
  6
BYBLOCK
 62
     5
 10
378.995915
 20
28.15440759415033
 30
0.0
 11
378.855779
 21
30.92699100000004
 31
0.0
 12
378.995915
 22
30.90674661343736
 32
0.0
 13
378.995915
 23
30.90674661343736
 33
0.0
  0
SOLID
  5
100F7
  8
0
  6
BYBLOCK
 62
     5
 10
378.855779
 20
33.97746972820051
 30
0.0
 11
378.855779
 21
36.82264888564784
 31
0.0
 12
378.995915
 22
34.01273200000014
 32
0.0
 13
378.995915
 23
34.01273200000014
 33
0.0
  0
SOLID
  5
100F8
  8
0
  6
BYBLOCK
 62
     5
 10
378.995915
 20
34.01273200000014
 30
0.0
 11
378.855779
 21
36.82264888564784
 31
0.0
 12
378.995915
 22
36.83001309801333
 32
0.0
 13
378.995915
 23
36.83001309801333
 33
0.0
  0
SOLID
  5
100F9
  8
0
  6
BYBLOCK
 62
     5
 10
378.995915
 20
28.15440759415033
 30
0.0
 11
378.995915
 21
30.90674661343736
 31
0.0
 12
379.033543
 22
28.05754400000012
 32
0.0
 13
379.033543
 23
28.05754400000012
 33
0.0
  0
SOLID
  5
100FA
  8
0
  6
BYBLOCK
 62
     5
 10
379.033543
 20
28.05754400000012
 30
0.0
 11
378.995915
 21
30.90674661343736
 31
0.0
 12
379.033543
 22
30.90131078126304
 32
0.0
 13
379.033543
 23
30.90131078126304
 33
0.0
  0
SOLID
  5
100FB
  8
0
  6
BYBLOCK
 62
     5
 10
378.995915
 20
34.01273200000014
 30
0.0
 11
378.995915
 21
36.83001309801333
 31
0.0
 12
379.033543
 22
34.01432028545013
 32
0.0
 13
379.033543
 23
34.01432028545013
 33
0.0
  0
SOLID
  5
100FC
  8
0
  6
BYBLOCK
 62
     5
 10
379.033543
 20
34.01432028545013
 30
0.0
 11
378.995915
 21
36.83001309801333
 31
0.0
 12
379.033543
 22
36.83199046701836
 32
0.0
 13
379.033543
 23
36.83199046701836
 33
0.0
  0
SOLID
  5
100FD
  8
0
  6
BYBLOCK
 62
     5
 10
379.033543
 20
28.05754400000012
 30
0.0
 11
379.033543
 21
30.90131078126304
 31
0.0
 12
379.161644
 22
28.06465846549737
 32
0.0
 13
379.161644
 23
28.06465846549737
 33
0.0
  0
SOLID
  5
100FE
  8
0
  6
BYBLOCK
 62
     5
 10
379.161644
 20
28.06465846549737
 30
0.0
 11
379.033543
 21
30.90131078126304
 31
0.0
 12
379.161644
 22
30.88280500000008
 32
0.0
 13
379.161644
 23
30.88280500000008
 33
0.0
  0
SOLID
  5
100FF
  8
0
  6
BYBLOCK
 62
     5
 10
379.033543
 20
34.01432028545013
 30
0.0
 11
379.033543
 21
36.83199046701836
 31
0.0
 12
379.161644
 22
34.01972745443145
 32
0.0
 13
379.161644
 23
34.01972745443145
 33
0.0
  0
SOLID
  5
10100
  8
0
  6
BYBLOCK
 62
     5
 10
379.161644
 20
34.01972745443145
 30
0.0
 11
379.033543
 21
36.83199046701836
 31
0.0
 12
379.161644
 22
36.83872223450302
 32
0.0
 13
379.161644
 23
36.83872223450302
 33
0.0
  0
SOLID
  5
10101
  8
0
  6
BYBLOCK
 62
     5
 10
379.161644
 20
28.06465846549737
 30
0.0
 11
379.161644
 21
30.88280500000008
 31
0.0
 12
379.3018599999999
 22
28.07244577312309
 32
0.0
 13
379.3018599999999
 23
28.07244577312309
 33
0.0
  0
SOLID
  5
10102
  8
0
  6
BYBLOCK
 62
     5
 10
379.3018599999999
 20
28.07244577312309
 30
0.0
 11
379.161644
 21
30.88280500000008
 31
0.0
 12
379.3018599999999
 22
30.89078079975173
 32
0.0
 13
379.3018599999999
 23
30.89078079975173
 33
0.0
  0
SOLID
  5
10103
  8
0
  6
BYBLOCK
 62
     5
 10
379.161644
 20
34.01972745443145
 30
0.0
 11
379.161644
 21
36.83872223450302
 31
0.0
 12
379.3018599999999
 22
34.02564600000005
 32
0.0
 13
379.3018599999999
 23
34.02564600000005
 33
0.0
  0
SOLID
  5
10104
  8
0
  6
BYBLOCK
 62
     5
 10
379.3018599999999
 20
34.02564600000005
 30
0.0
 11
379.161644
 21
36.83872223450302
 31
0.0
 12
379.3018599999999
 22
36.84609065090594
 32
0.0
 13
379.3018599999999
 23
36.84609065090594
 33
0.0
  0
SOLID
  5
10105
  8
0
  6
BYBLOCK
 62
     5
 10
379.3018599999999
 20
28.07244577312309
 30
0.0
 11
379.3018599999999
 21
30.89078079975173
 31
0.0
 12
379.425386
 22
28.07930615255037
 32
0.0
 13
379.425386
 23
28.07930615255037
 33
0.0
  0
SOLID
  5
10106
  8
0
  6
BYBLOCK
 62
     5
 10
379.425386
 20
28.07930615255037
 30
0.0
 11
379.3018599999999
 21
30.89078079975173
 31
0.0
 12
379.425386
 22
30.89780723496686
 32
0.0
 13
379.425386
 23
30.89780723496686
 33
0.0
  0
SOLID
  5
10107
  8
0
  6
BYBLOCK
 62
     5
 10
379.3018599999999
 20
34.02564600000005
 30
0.0
 11
379.3018599999999
 21
36.84609065090594
 31
0.0
 12
379.425386
 22
34.00780147985385
 32
0.0
 13
379.425386
 23
34.00780147985385
 33
0.0
  0
SOLID
  5
10108
  8
0
  6
BYBLOCK
 62
     5
 10
379.425386
 20
34.00780147985385
 30
0.0
 11
379.3018599999999
 21
36.84609065090594
 31
0.0
 12
379.425386
 22
36.8525820000001
 32
0.0
 13
379.425386
 23
36.8525820000001
 33
0.0
  0
SOLID
  5
10109
  8
0
  6
BYBLOCK
 62
     5
 10
379.425386
 20
28.07930615255037
 30
0.0
 11
379.425386
 21
30.89780723496686
 31
0.0
 12
379.469262
 22
28.08174293515283
 32
0.0
 13
379.469262
 23
28.08174293515283
 33
0.0
  0
SOLID
  5
1010A
  8
0
  6
BYBLOCK
 62
     5
 10
379.469262
 20
28.08174293515283
 30
0.0
 11
379.425386
 21
30.89780723496686
 31
0.0
 12
379.469262
 22
30.90030300000012
 32
0.0
 13
379.469262
 23
30.90030300000012
 33
0.0
  0
SOLID
  5
1010B
  8
0
  6
BYBLOCK
 62
     5
 10
379.425386
 20
34.00780147985385
 30
0.0
 11
379.425386
 21
36.8525820000001
 31
0.0
 12
379.469262
 22
34.00146316916675
 32
0.0
 13
379.469262
 23
34.00146316916675
 33
0.0
  0
SOLID
  5
1010C
  8
0
  6
BYBLOCK
 62
     5
 10
379.469262
 20
34.00146316916675
 30
0.0
 11
379.425386
 21
36.8525820000001
 31
0.0
 12
379.469262
 22
36.74044874975388
 32
0.0
 13
379.469262
 23
36.74044874975388
 33
0.0
  0
SOLID
  5
1010D
  8
0
  6
BYBLOCK
 62
     5
 10
379.469262
 20
28.08174293515283
 30
0.0
 11
379.469262
 21
30.90030300000012
 31
0.0
 12
379.607724
 22
28.08943282923391
 32
0.0
 13
379.607724
 23
28.08943282923391
 33
0.0
  0
SOLID
  5
1010E
  8
0
  6
BYBLOCK
 62
     5
 10
379.607724
 20
28.08943282923391
 30
0.0
 11
379.469262
 21
30.90030300000012
 31
0.0
 12
379.607724
 22
30.93645500060978
 32
0.0
 13
379.607724
 23
30.93645500060978
 33
0.0
  0
SOLID
  5
1010F
  8
0
  6
BYBLOCK
 62
     5
 10
379.469262
 20
34.00146316916675
 30
0.0
 11
379.469262
 21
36.74044874975388
 31
0.0
 12
379.607724
 22
33.98146100000008
 32
0.0
 13
379.607724
 23
33.98146100000008
 33
0.0
  0
SOLID
  5
10110
  8
0
  6
BYBLOCK
 62
     5
 10
379.607724
 20
33.98146100000008
 30
0.0
 11
379.469262
 21
36.74044874975388
 31
0.0
 12
379.607724
 22
36.38658344535995
 32
0.0
 13
379.607724
 23
36.38658344535995
 33
0.0
  0
SOLID
  5
10111
  8
0
  6
BYBLOCK
 62
     5
 10
379.607724
 20
28.08943282923391
 30
0.0
 11
379.607724
 21
30.93645500060978
 31
0.0
 12
379.767791
 22
28.0983226204826
 32
0.0
 13
379.767791
 23
28.0983226204826
 33
0.0
  0
SOLID
  5
10112
  8
0
  6
BYBLOCK
 62
     5
 10
379.767791
 20
28.0983226204826
 30
0.0
 11
379.607724
 21
30.93645500060978
 31
0.0
 12
379.767791
 22
30.97824800000012
 32
0.0
 13
379.767791
 23
30.97824800000012
 33
0.0
  0
SOLID
  5
10113
  8
0
  6
BYBLOCK
 62
     5
 10
379.607724
 20
33.98146100000008
 30
0.0
 11
379.607724
 21
36.38658344535995
 31
0.0
 12
379.767791
 22
33.92586765901716
 32
0.0
 13
379.767791
 23
33.92586765901716
 33
0.0
  0
SOLID
  5
10114
  8
0
  6
BYBLOCK
 62
     5
 10
379.767791
 20
33.92586765901716
 30
0.0
 11
379.607724
 21
36.38658344535995
 31
0.0
 12
379.767791
 22
35.97750255906327
 32
0.0
 13
379.767791
 23
35.97750255906327
 33
0.0
  0
SOLID
  5
10115
  8
0
  6
BYBLOCK
 62
     5
 10
379.767791
 20
28.0983226204826
 30
0.0
 11
379.767791
 21
30.97824800000012
 31
0.0
 12
379.897619
 22
28.10553300000015
 32
0.0
 13
379.897619
 23
28.10553300000015
 33
0.0
  0
SOLID
  5
10116
  8
0
  6
BYBLOCK
 62
     5
 10
379.897619
 20
28.10553300000015
 30
0.0
 11
379.767791
 21
30.97824800000012
 31
0.0
 12
379.897619
 22
31.04039933306865
 32
0.0
 13
379.897619
 23
31.04039933306865
 33
0.0
  0
SOLID
  5
10117
  8
0
  6
BYBLOCK
 62
     5
 10
379.767791
 20
33.92586765901716
 30
0.0
 11
379.767791
 21
35.97750255906327
 31
0.0
 12
379.897619
 22
33.88077671414324
 32
0.0
 13
379.897619
 23
33.88077671414324
 33
0.0
  0
SOLID
  5
10118
  8
0
  6
BYBLOCK
 62
     5
 10
379.897619
 20
33.88077671414324
 30
0.0
 11
379.767791
 21
35.97750255906327
 31
0.0
 12
379.897619
 22
35.64570304194763
 32
0.0
 13
379.897619
 23
35.64570304194763
 33
0.0
  0
SOLID
  5
10119
  8
0
  6
BYBLOCK
 62
     5
 10
379.897619
 20
28.10553300000015
 30
0.0
 11
379.897619
 21
31.04039933306865
 31
0.0
 12
379.8980923640335
 22
28.10729920373635
 32
0.0
 13
379.8980923640335
 23
28.10729920373635
 33
0.0
  0
SOLID
  5
1011A
  8
0
  6
BYBLOCK
 62
     5
 10
379.8980923640335
 20
28.10729920373635
 30
0.0
 11
379.897619
 21
31.04039933306865
 31
0.0
 12
379.8980923640335
 22
31.04062594216456
 32
0.0
 13
379.8980923640335
 23
31.04062594216456
 33
0.0
  0
SOLID
  5
1011B
  8
0
  6
BYBLOCK
 62
     5
 10
379.897619
 20
33.88077671414324
 30
0.0
 11
379.897619
 21
35.64570304194763
 31
0.0
 12
379.8980923640335
 22
33.88061230868727
 32
0.0
 13
379.8980923640335
 23
33.88061230868727
 33
0.0
  0
SOLID
  5
1011C
  8
0
  6
BYBLOCK
 62
     5
 10
379.8980923640335
 20
33.88061230868727
 30
0.0
 11
379.897619
 21
35.64570304194763
 31
0.0
 12
379.8980923640335
 22
35.64449327242399
 32
0.0
 13
379.8980923640335
 23
35.64449327242399
 33
0.0
  0
SOLID
  5
1011D
  8
0
  6
BYBLOCK
 62
     5
 10
379.8980923640335
 20
28.10729920373635
 30
0.0
 11
379.8980923640335
 21
31.04062594216456
 31
0.0
 12
379.970709
 22
28.37824453268881
 32
0.0
 13
379.970709
 23
28.37824453268881
 33
0.0
  0
SOLID
  5
1011E
  8
0
  6
BYBLOCK
 62
     5
 10
379.970709
 20
28.37824453268881
 30
0.0
 11
379.8980923640335
 21
31.04062594216456
 31
0.0
 12
379.970709
 22
31.07538901891435
 32
0.0
 13
379.970709
 23
31.07538901891435
 33
0.0
  0
SOLID
  5
1011F
  8
0
  6
BYBLOCK
 62
     5
 10
379.8980923640335
 20
33.88061230868727
 30
0.0
 11
379.8980923640335
 21
35.64449327242399
 31
0.0
 12
379.970709
 22
33.83847921276121
 32
0.0
 13
379.970709
 23
33.83847921276121
 33
0.0
  0
SOLID
  5
10120
  8
0
  6
BYBLOCK
 62
     5
 10
379.970709
 20
33.83847921276121
 30
0.0
 11
379.8980923640335
 21
35.64449327242399
 31
0.0
 12
379.970709
 22
35.45890800000006
 32
0.0
 13
379.970709
 23
35.45890800000006
 33
0.0
  0
SOLID
  5
10121
  8
0
  6
BYBLOCK
 62
     5
 10
379.970709
 20
28.37824453268881
 30
0.0
 11
379.970709
 21
31.07538901891435
 31
0.0
 12
380.044725
 22
28.65441113281874
 32
0.0
 13
380.044725
 23
28.65441113281874
 33
0.0
  0
SOLID
  5
10122
  8
0
  6
BYBLOCK
 62
     5
 10
380.044725
 20
28.65441113281874
 30
0.0
 11
379.970709
 21
31.07538901891435
 31
0.0
 12
380.044725
 22
31.1108220000001
 32
0.0
 13
380.044725
 23
31.1108220000001
 33
0.0
  0
SOLID
  5
10123
  8
0
  6
BYBLOCK
 62
     5
 10
379.970709
 20
33.83847921276121
 30
0.0
 11
379.970709
 21
35.45890800000006
 31
0.0
 12
380.044725
 22
33.79553418802196
 32
0.0
 13
380.044725
 23
33.79553418802196
 33
0.0
  0
SOLID
  5
10124
  8
0
  6
BYBLOCK
 62
     5
 10
380.044725
 20
33.79553418802196
 30
0.0
 11
379.970709
 21
35.45890800000006
 31
0.0
 12
380.044725
 22
35.43322234355033
 32
0.0
 13
380.044725
 23
35.43322234355033
 33
0.0
  0
SOLID
  5
10125
  8
0
  6
BYBLOCK
 62
     5
 10
380.044725
 20
28.65441113281874
 30
0.0
 11
380.044725
 21
31.1108220000001
 31
0.0
 12
380.163792
 22
29.09867086824961
 32
0.0
 13
380.163792
 23
29.09867086824961
 33
0.0
  0
SOLID
  5
10126
  8
0
  6
BYBLOCK
 62
     5
 10
380.163792
 20
29.09867086824961
 30
0.0
 11
380.044725
 21
31.1108220000001
 31
0.0
 12
380.163792
 22
31.19891978238501
 32
0.0
 13
380.163792
 23
31.19891978238501
 33
0.0
  0
SOLID
  5
10127
  8
0
  6
BYBLOCK
 62
     5
 10
380.044725
 20
33.79553418802196
 30
0.0
 11
380.044725
 21
35.43322234355033
 31
0.0
 12
380.163792
 22
33.72645000000011
 32
0.0
 13
380.163792
 23
33.72645000000011
 33
0.0
  0
SOLID
  5
10128
  8
0
  6
BYBLOCK
 62
     5
 10
380.163792
 20
33.72645000000011
 30
0.0
 11
380.044725
 21
35.43322234355033
 31
0.0
 12
380.163792
 22
35.39190270919426
 32
0.0
 13
380.163792
 23
35.39190270919426
 33
0.0
  0
SOLID
  5
10129
  8
0
  6
BYBLOCK
 62
     5
 10
380.163792
 20
29.09867086824961
 30
0.0
 11
380.163792
 21
31.19891978238501
 31
0.0
 12
380.284312
 22
29.54835200000014
 32
0.0
 13
380.284312
 23
29.54835200000014
 33
0.0
  0
SOLID
  5
1012A
  8
0
  6
BYBLOCK
 62
     5
 10
380.284312
 20
29.54835200000014
 30
0.0
 11
380.163792
 21
31.19891978238501
 31
0.0
 12
380.284312
 22
31.28809264080112
 32
0.0
 13
380.284312
 23
31.28809264080112
 33
0.0
  0
SOLID
  5
1012B
  8
0
  6
BYBLOCK
 62
     5
 10
380.163792
 20
33.72645000000011
 30
0.0
 11
380.163792
 21
35.39190270919426
 31
0.0
 12
380.284312
 22
33.61717840768218
 32
0.0
 13
380.284312
 23
33.61717840768218
 33
0.0
  0
SOLID
  5
1012C
  8
0
  6
BYBLOCK
 62
     5
 10
380.284312
 20
33.61717840768218
 30
0.0
 11
380.163792
 21
35.39190270919426
 31
0.0
 12
380.284312
 22
35.35007884252596
 32
0.0
 13
380.284312
 23
35.35007884252596
 33
0.0
  0
SOLID
  5
1012D
  8
0
  6
BYBLOCK
 62
     5
 10
380.284312
 20
29.54835200000014
 30
0.0
 11
380.284312
 21
31.28809264080112
 31
0.0
 12
380.293807
 22
29.55289894976211
 32
0.0
 13
380.293807
 23
29.55289894976211
 33
0.0
  0
SOLID
  5
1012E
  8
0
  6
BYBLOCK
 62
     5
 10
380.293807
 20
29.55289894976211
 30
0.0
 11
380.284312
 21
31.28809264080112
 31
0.0
 12
380.293807
 22
31.29511800000012
 32
0.0
 13
380.293807
 23
31.29511800000012
 33
0.0
  0
SOLID
  5
1012F
  8
0
  6
BYBLOCK
 62
     5
 10
380.284312
 20
33.61717840768218
 30
0.0
 11
380.284312
 21
35.35007884252596
 31
0.0
 12
380.293807
 22
33.60856959778291
 32
0.0
 13
380.293807
 23
33.60856959778291
 33
0.0
  0
SOLID
  5
10130
  8
0
  6
BYBLOCK
 62
     5
 10
380.293807
 20
33.60856959778291
 30
0.0
 11
380.284312
 21
35.35007884252596
 31
0.0
 12
380.293807
 22
35.34678380756068
 32
0.0
 13
380.293807
 23
35.34678380756068
 33
0.0
  0
SOLID
  5
10131
  8
0
  6
BYBLOCK
 62
     5
 10
380.293807
 20
29.55289894976211
 30
0.0
 11
380.293807
 21
31.29511800000012
 31
0.0
 12
380.393991
 22
29.60087489657125
 32
0.0
 13
380.393991
 23
29.60087489657125
 33
0.0
  0
SOLID
  5
10132
  8
0
  6
BYBLOCK
 62
     5
 10
380.393991
 20
29.60087489657125
 30
0.0
 11
380.293807
 21
31.29511800000012
 31
0.0
 12
380.393991
 22
31.4075898887271
 32
0.0
 13
380.393991
 23
31.4075898887271
 33
0.0
  0
SOLID
  5
10133
  8
0
  6
BYBLOCK
 62
     5
 10
380.293807
 20
33.60856959778291
 30
0.0
 11
380.293807
 21
35.34678380756068
 31
0.0
 12
380.393991
 22
33.51773600000013
 32
0.0
 13
380.393991
 23
33.51773600000013
 33
0.0
  0
SOLID
  5
10134
  8
0
  6
BYBLOCK
 62
     5
 10
380.393991
 20
33.51773600000013
 30
0.0
 11
380.293807
 21
35.34678380756068
 31
0.0
 12
380.393991
 22
35.31201711109289
 32
0.0
 13
380.393991
 23
35.31201711109289
 33
0.0
  0
SOLID
  5
10135
  8
0
  6
BYBLOCK
 62
     5
 10
380.393991
 20
29.60087489657125
 30
0.0
 11
380.393991
 21
31.4075898887271
 31
0.0
 12
380.496264
 22
29.64985122021583
 32
0.0
 13
380.496264
 23
29.64985122021583
 33
0.0
  0
SOLID
  5
10136
  8
0
  6
BYBLOCK
 62
     5
 10
380.496264
 20
29.64985122021583
 30
0.0
 11
380.393991
 21
31.4075898887271
 31
0.0
 12
380.496264
 22
31.52240700000004
 32
0.0
 13
380.496264
 23
31.52240700000004
 33
0.0
  0
SOLID
  5
10137
  8
0
  6
BYBLOCK
 62
     5
 10
380.393991
 20
33.51773600000013
 30
0.0
 11
380.393991
 21
35.31201711109289
 31
0.0
 12
380.496264
 22
33.37951184516224
 32
0.0
 13
380.496264
 23
33.37951184516224
 33
0.0
  0
SOLID
  5
10138
  8
0
  6
BYBLOCK
 62
     5
 10
380.496264
 20
33.37951184516224
 30
0.0
 11
380.393991
 21
35.31201711109289
 31
0.0
 12
380.496264
 22
35.27652547222992
 32
0.0
 13
380.496264
 23
35.27652547222992
 33
0.0
  0
SOLID
  5
10139
  8
0
  6
BYBLOCK
 62
     5
 10
380.496264
 20
29.64985122021583
 30
0.0
 11
380.496264
 21
31.52240700000004
 31
0.0
 12
380.542276
 22
29.67188537002601
 32
0.0
 13
380.542276
 23
29.67188537002601
 33
0.0
  0
SOLID
  5
1013A
  8
0
  6
BYBLOCK
 62
     5
 10
380.542276
 20
29.67188537002601
 30
0.0
 11
380.496264
 21
31.52240700000004
 31
0.0
 12
380.542276
 22
31.59944999531244
 32
0.0
 13
380.542276
 23
31.59944999531244
 33
0.0
  0
SOLID
  5
1013B
  8
0
  6
BYBLOCK
 62
     5
 10
380.496264
 20
33.37951184516224
 30
0.0
 11
380.496264
 21
35.27652547222992
 31
0.0
 12
380.542276
 22
33.31732563949305
 32
0.0
 13
380.542276
 23
33.31732563949305
 33
0.0
  0
SOLID
  5
1013C
  8
0
  6
BYBLOCK
 62
     5
 10
380.542276
 20
33.31732563949305
 30
0.0
 11
380.496264
 21
35.27652547222992
 31
0.0
 12
380.542276
 22
35.26055800000006
 32
0.0
 13
380.542276
 23
35.26055800000006
 33
0.0
  0
SOLID
  5
1013D
  8
0
  6
BYBLOCK
 62
     5
 10
380.542276
 20
29.67188537002601
 30
0.0
 11
380.542276
 21
31.59944999531244
 31
0.0
 12
380.578287
 22
29.68913025763823
 32
0.0
 13
380.578287
 23
29.68913025763823
 33
0.0
  0
SOLID
  5
1013E
  8
0
  6
BYBLOCK
 62
     5
 10
380.578287
 20
29.68913025763823
 30
0.0
 11
380.542276
 21
31.59944999531244
 31
0.0
 12
380.578287
 22
31.65974720700051
 32
0.0
 13
380.578287
 23
31.65974720700051
 33
0.0
  0
SOLID
  5
1013F
  8
0
  6
BYBLOCK
 62
     5
 10
380.542276
 20
33.31732563949305
 30
0.0
 11
380.542276
 21
35.26055800000006
 31
0.0
 12
380.578287
 22
33.26865600000008
 32
0.0
 13
380.578287
 23
33.26865600000008
 33
0.0
  0
SOLID
  5
10140
  8
0
  6
BYBLOCK
 62
     5
 10
380.578287
 20
33.26865600000008
 30
0.0
 11
380.542276
 21
35.26055800000006
 31
0.0
 12
380.578287
 22
35.28121876298258
 32
0.0
 13
380.578287
 23
35.28121876298258
 33
0.0
  0
SOLID
  5
10141
  8
0
  6
BYBLOCK
 62
     5
 10
380.578287
 20
29.68913025763823
 30
0.0
 11
380.578287
 21
31.65974720700051
 31
0.0
 12
380.6566839999999
 22
29.72667288222891
 32
0.0
 13
380.6566839999999
 23
29.72667288222891
 33
0.0
  0
SOLID
  5
10142
  8
0
  6
BYBLOCK
 62
     5
 10
380.6566839999999
 20
29.72667288222891
 30
0.0
 11
380.578287
 21
31.65974720700051
 31
0.0
 12
380.6566839999999
 22
31.79101600000013
 32
0.0
 13
380.6566839999999
 23
31.79101600000013
 33
0.0
  0
SOLID
  5
10143
  8
0
  6
BYBLOCK
 62
     5
 10
380.578287
 20
33.26865600000008
 30
0.0
 11
380.578287
 21
35.28121876298258
 31
0.0
 12
380.6566839999999
 22
33.10489240534369
 32
0.0
 13
380.6566839999999
 23
33.10489240534369
 33
0.0
  0
SOLID
  5
10144
  8
0
  6
BYBLOCK
 62
     5
 10
380.6566839999999
 20
33.10489240534369
 30
0.0
 11
380.578287
 21
35.28121876298258
 31
0.0
 12
380.6566839999999
 22
35.32619784813824
 32
0.0
 13
380.6566839999999
 23
35.32619784813824
 33
0.0
  0
SOLID
  5
10145
  8
0
  6
BYBLOCK
 62
     5
 10
380.6566839999999
 20
29.72667288222891
 30
0.0
 11
380.6566839999999
 21
31.79101600000013
 31
0.0
 12
380.710861
 22
29.75261707361958
 32
0.0
 13
380.710861
 23
29.75261707361958
 33
0.0
  0
SOLID
  5
10146
  8
0
  6
BYBLOCK
 62
     5
 10
380.710861
 20
29.75261707361958
 30
0.0
 11
380.6566839999999
 21
31.79101600000013
 31
0.0
 12
380.710861
 22
31.94700843360203
 32
0.0
 13
380.710861
 23
31.94700843360203
 33
0.0
  0
SOLID
  5
10147
  8
0
  6
BYBLOCK
 62
     5
 10
380.6566839999999
 20
33.10489240534369
 30
0.0
 11
380.6566839999999
 21
35.32619784813824
 31
0.0
 12
380.710861
 22
32.9917220000001
 32
0.0
 13
380.710861
 23
32.9917220000001
 33
0.0
  0
SOLID
  5
10148
  8
0
  6
BYBLOCK
 62
     5
 10
380.710861
 20
32.9917220000001
 30
0.0
 11
380.6566839999999
 21
35.32619784813824
 31
0.0
 12
380.710861
 22
35.3572810770435
 32
0.0
 13
380.710861
 23
35.3572810770435
 33
0.0
  0
SOLID
  5
10149
  8
0
  6
BYBLOCK
 62
     5
 10
380.710861
 20
29.75261707361958
 30
0.0
 11
380.710861
 21
31.94700843360203
 31
0.0
 12
380.75753
 22
29.77496584649382
 32
0.0
 13
380.75753
 23
29.77496584649382
 33
0.0
  0
SOLID
  5
1014A
  8
0
  6
BYBLOCK
 62
     5
 10
380.75753
 20
29.77496584649382
 30
0.0
 11
380.710861
 21
31.94700843360203
 31
0.0
 12
380.75753
 22
32.08138300000007
 32
0.0
 13
380.75753
 23
32.08138300000007
 33
0.0
  0
SOLID
  5
1014B
  8
0
  6
BYBLOCK
 62
     5
 10
380.710861
 20
32.9917220000001
 30
0.0
 11
380.710861
 21
35.3572810770435
 31
0.0
 12
380.75753
 22
32.81298332835157
 32
0.0
 13
380.75753
 23
32.81298332835157
 33
0.0
  0
SOLID
  5
1014C
  8
0
  6
BYBLOCK
 62
     5
 10
380.75753
 20
32.81298332835157
 30
0.0
 11
380.710861
 21
35.3572810770435
 31
0.0
 12
380.75753
 22
35.38405670525795
 32
0.0
 13
380.75753
 23
35.38405670525795
 33
0.0
  0
SOLID
  5
1014D
  8
0
  6
BYBLOCK
 62
     5
 10
380.75753
 20
29.77496584649382
 30
0.0
 11
380.75753
 21
32.08138300000007
 31
0.0
 12
380.788808
 22
29.7899442029609
 32
0.0
 13
380.788808
 23
29.7899442029609
 33
0.0
  0
SOLID
  5
1014E
  8
0
  6
BYBLOCK
 62
     5
 10
380.788808
 20
29.7899442029609
 30
0.0
 11
380.75753
 21
32.08138300000007
 31
0.0
 12
380.788808
 22
32.29788553897016
 32
0.0
 13
380.788808
 23
32.29788553897016
 33
0.0
  0
SOLID
  5
1014F
  8
0
  6
BYBLOCK
 62
     5
 10
380.75753
 20
32.81298332835157
 30
0.0
 11
380.75753
 21
35.38405670525795
 31
0.0
 12
380.788808
 22
32.69319100000007
 32
0.0
 13
380.788808
 23
32.69319100000007
 33
0.0
  0
SOLID
  5
10150
  8
0
  6
BYBLOCK
 62
     5
 10
380.788808
 20
32.69319100000007
 30
0.0
 11
380.75753
 21
35.38405670525795
 31
0.0
 12
380.788808
 22
35.40200198155044
 32
0.0
 13
380.788808
 23
35.40200198155044
 33
0.0
  0
SOLID
  5
10151
  8
0
  6
BYBLOCK
 62
     5
 10
380.788808
 20
29.7899442029609
 30
0.0
 11
380.788808
 21
32.29788553897016
 31
0.0
 12
380.801718
 22
29.7961265222265
 32
0.0
 13
380.801718
 23
29.7961265222265
 33
0.0
  0
SOLID
  5
10152
  8
0
  6
BYBLOCK
 62
     5
 10
380.801718
 20
29.7961265222265
 30
0.0
 11
380.788808
 21
32.29788553897016
 31
0.0
 12
380.801718
 22
32.38724700000012
 32
0.0
 13
380.801718
 23
32.38724700000012
 33
0.0
  0
SOLID
  5
10153
  8
0
  6
BYBLOCK
 62
     5
 10
380.788808
 20
32.69319100000007
 30
0.0
 11
380.788808
 21
35.40200198155044
 31
0.0
 12
380.801718
 22
32.38724700000012
 32
0.0
 13
380.801718
 23
32.38724700000012
 33
0.0
  0
SOLID
  5
10154
  8
0
  6
BYBLOCK
 62
     5
 10
380.801718
 20
32.38724700000012
 30
0.0
 11
380.788808
 21
35.40200198155044
 31
0.0
 12
380.801718
 22
35.40940889749568
 32
0.0
 13
380.801718
 23
35.40940889749568
 33
0.0
  0
SOLID
  5
10155
  8
0
  6
BYBLOCK
 62
     5
 10
380.801718
 20
29.7961265222265
 30
0.0
 11
380.801718
 21
35.40940889749568
 31
0.0
 12
380.831925
 22
29.81059200000004
 32
0.0
 13
380.831925
 23
29.81059200000004
 33
0.0
  0
SOLID
  5
10156
  8
0
  6
BYBLOCK
 62
     5
 10
380.831925
 20
29.81059200000004
 30
0.0
 11
380.801718
 21
35.40940889749568
 31
0.0
 12
380.831925
 22
35.42673970384413
 32
0.0
 13
380.831925
 23
35.42673970384413
 33
0.0
  0
SOLID
  5
10157
  8
0
  6
BYBLOCK
 62
     5
 10
380.831925
 20
29.81059200000004
 30
0.0
 11
380.831925
 21
35.42673970384413
 31
0.0
 12
381.836611
 22
29.36743558959934
 32
0.0
 13
381.836611
 23
29.36743558959934
 33
0.0
  0
SOLID
  5
10158
  8
0
  6
BYBLOCK
 62
     5
 10
381.836611
 20
29.36743558959934
 30
0.0
 11
380.831925
 21
35.42673970384413
 31
0.0
 12
381.836611
 22
36.00316300000009
 32
0.0
 13
381.836611
 23
36.00316300000009
 33
0.0
  0
SOLID
  5
10159
  8
0
  6
BYBLOCK
 62
     5
 10
381.836611
 20
29.36743558959934
 30
0.0
 11
381.836611
 21
36.00316300000009
 31
0.0
 12
381.878516
 22
29.34895173556153
 32
0.0
 13
381.878516
 23
29.34895173556153
 33
0.0
  0
SOLID
  5
1015A
  8
0
  6
BYBLOCK
 62
     5
 10
381.878516
 20
29.34895173556153
 30
0.0
 11
381.836611
 21
36.00316300000009
 31
0.0
 12
381.878516
 22
35.96545254629132
 32
0.0
 13
381.878516
 23
35.96545254629132
 33
0.0
  0
SOLID
  5
1015B
  8
0
  6
BYBLOCK
 62
     5
 10
381.878516
 20
29.34895173556153
 30
0.0
 11
381.878516
 21
34.05584900000008
 31
0.0
 12
382.034958
 22
29.27994681745187
 32
0.0
 13
382.034958
 23
29.27994681745187
 33
0.0
  0
SOLID
  5
1015C
  8
0
  6
BYBLOCK
 62
     5
 10
382.034958
 20
29.27994681745187
 30
0.0
 11
381.878516
 21
34.05584900000008
 31
0.0
 12
382.034958
 22
33.72916845278795
 32
0.0
 13
382.034958
 23
33.72916845278795
 33
0.0
  0
SOLID
  5
1015D
  8
0
  6
BYBLOCK
 62
     5
 10
381.878516
 20
34.05584900000008
 30
0.0
 11
381.878516
 21
35.96545254629132
 31
0.0
 12
382.034958
 22
34.41367134022872
 32
0.0
 13
382.034958
 23
34.41367134022872
 33
0.0
  0
SOLID
  5
1015E
  8
0
  6
BYBLOCK
 62
     5
 10
382.034958
 20
34.41367134022872
 30
0.0
 11
381.878516
 21
35.96545254629132
 31
0.0
 12
382.034958
 22
35.82466985212334
 32
0.0
 13
382.034958
 23
35.82466985212334
 33
0.0
  0
SOLID
  5
1015F
  8
0
  6
BYBLOCK
 62
     5
 10
382.034958
 20
29.27994681745187
 30
0.0
 11
382.034958
 21
31.1422510000001
 31
0.0
 12
382.140758
 22
29.23327955203722
 32
0.0
 13
382.140758
 23
29.23327955203722
 33
0.0
  0
SOLID
  5
10160
  8
0
  6
BYBLOCK
 62
     5
 10
382.140758
 20
29.23327955203722
 30
0.0
 11
382.034958
 21
31.1422510000001
 31
0.0
 12
382.140758
 22
30.95784537763021
 32
0.0
 13
382.140758
 23
30.95784537763021
 33
0.0
  0
SOLID
  5
10161
  8
0
  6
BYBLOCK
 62
     5
 10
382.034958
 20
31.1422510000001
 30
0.0
 11
382.034958
 21
33.72916845278795
 31
0.0
 12
382.140758
 22
31.44700029857723
 32
0.0
 13
382.140758
 23
31.44700029857723
 33
0.0
  0
SOLID
  5
10162
  8
0
  6
BYBLOCK
 62
     5
 10
382.140758
 20
31.44700029857723
 30
0.0
 11
382.034958
 21
33.72916845278795
 31
0.0
 12
382.140758
 22
33.50823800000012
 32
0.0
 13
382.140758
 23
33.50823800000012
 33
0.0
  0
SOLID
  5
10163
  8
0
  6
BYBLOCK
 62
     5
 10
382.034958
 20
34.41367134022872
 30
0.0
 11
382.034958
 21
35.82466985212334
 31
0.0
 12
382.140758
 22
34.65566264432979
 32
0.0
 13
382.140758
 23
34.65566264432979
 33
0.0
  0
SOLID
  5
10164
  8
0
  6
BYBLOCK
 62
     5
 10
382.140758
 20
34.65566264432979
 30
0.0
 11
382.034958
 21
35.82466985212334
 31
0.0
 12
382.140758
 22
35.72946006803102
 32
0.0
 13
382.140758
 23
35.72946006803102
 33
0.0
  0
SOLID
  5
10165
  8
0
  6
BYBLOCK
 62
     5
 10
382.140758
 20
29.23327955203722
 30
0.0
 11
382.140758
 21
30.95784537763021
 31
0.0
 12
382.20067
 22
29.20685300000014
 32
0.0
 13
382.20067
 23
29.20685300000014
 33
0.0
  0
SOLID
  5
10166
  8
0
  6
BYBLOCK
 62
     5
 10
382.20067
 20
29.20685300000014
 30
0.0
 11
382.140758
 21
30.95784537763021
 31
0.0
 12
382.20067
 22
30.85342090081144
 32
0.0
 13
382.20067
 23
30.85342090081144
 33
0.0
  0
SOLID
  5
10167
  8
0
  6
BYBLOCK
 62
     5
 10
382.140758
 20
31.44700029857723
 30
0.0
 11
382.140758
 21
33.50823800000012
 31
0.0
 12
382.20067
 22
31.61957251007396
 32
0.0
 13
382.20067
 23
31.61957251007396
 33
0.0
  0
SOLID
  5
10168
  8
0
  6
BYBLOCK
 62
     5
 10
382.20067
 20
31.61957251007396
 30
0.0
 11
382.140758
 21
33.50823800000012
 31
0.0
 12
382.20067
 22
33.49218086812227
 32
0.0
 13
382.20067
 23
33.49218086812227
 33
0.0
  0
SOLID
  5
10169
  8
0
  6
BYBLOCK
 62
     5
 10
382.140758
 20
34.65566264432979
 30
0.0
 11
382.140758
 21
35.72946006803102
 31
0.0
 12
382.20067
 22
34.79269651022114
 32
0.0
 13
382.20067
 23
34.79269651022114
 33
0.0
  0
SOLID
  5
1016A
  8
0
  6
BYBLOCK
 62
     5
 10
382.20067
 20
34.79269651022114
 30
0.0
 11
382.140758
 21
35.72946006803102
 31
0.0
 12
382.20067
 22
35.67554505305429
 32
0.0
 13
382.20067
 23
35.67554505305429
 33
0.0
  0
SOLID
  5
1016B
  8
0
  6
BYBLOCK
 62
     5
 10
382.20067
 20
29.20685300000014
 30
0.0
 11
382.20067
 21
30.85342090081144
 31
0.0
 12
382.23498
 22
29.24497949111721
 32
0.0
 13
382.23498
 23
29.24497949111721
 33
0.0
  0
SOLID
  5
1016C
  8
0
  6
BYBLOCK
 62
     5
 10
382.23498
 20
29.24497949111721
 30
0.0
 11
382.20067
 21
30.85342090081144
 31
0.0
 12
382.23498
 22
30.7936197958633
 32
0.0
 13
382.23498
 23
30.7936197958633
 33
0.0
  0
SOLID
  5
1016D
  8
0
  6
BYBLOCK
 62
     5
 10
382.20067
 20
31.61957251007396
 30
0.0
 11
382.20067
 21
33.49218086812227
 31
0.0
 12
382.23498
 22
31.71840000000009
 32
0.0
 13
382.23498
 23
31.71840000000009
 33
0.0
  0
SOLID
  5
1016E
  8
0
  6
BYBLOCK
 62
     5
 10
382.23498
 20
31.71840000000009
 30
0.0
 11
382.20067
 21
33.49218086812227
 31
0.0
 12
382.23498
 22
33.48298537815817
 32
0.0
 13
382.23498
 23
33.48298537815817
 33
0.0
  0
SOLID
  5
1016F
  8
0
  6
BYBLOCK
 62
     5
 10
382.20067
 20
34.79269651022114
 30
0.0
 11
382.20067
 21
35.67554505305429
 31
0.0
 12
382.23498
 22
34.87117214012388
 32
0.0
 13
382.23498
 23
34.87117214012388
 33
0.0
  0
SOLID
  5
10170
  8
0
  6
BYBLOCK
 62
     5
 10
382.23498
 20
34.87117214012388
 30
0.0
 11
382.20067
 21
35.67554505305429
 31
0.0
 12
382.23498
 22
35.64466936598238
 32
0.0
 13
382.23498
 23
35.64466936598238
 33
0.0
  0
SOLID
  5
10171
  8
0
  6
BYBLOCK
 62
     5
 10
382.23498
 20
29.24497949111721
 30
0.0
 11
382.23498
 21
30.7936197958633
 31
0.0
 12
382.477672
 22
29.51466746494939
 32
0.0
 13
382.477672
 23
29.51466746494939
 33
0.0
  0
SOLID
  5
10172
  8
0
  6
BYBLOCK
 62
     5
 10
382.477672
 20
29.51466746494939
 30
0.0
 11
382.23498
 21
30.7936197958633
 31
0.0
 12
382.477672
 22
30.37061630527545
 32
0.0
 13
382.477672
 23
30.37061630527545
 33
0.0
  0
SOLID
  5
10173
  8
0
  6
BYBLOCK
 62
     5
 10
382.23498
 20
31.71840000000009
 30
0.0
 11
382.23498
 21
33.48298537815817
 31
0.0
 12
382.477672
 22
31.81267705688726
 32
0.0
 13
382.477672
 23
31.81267705688726
 33
0.0
  0
SOLID
  5
10174
  8
0
  6
BYBLOCK
 62
     5
 10
382.477672
 20
31.81267705688726
 30
0.0
 11
382.23498
 21
33.48298537815817
 31
0.0
 12
382.477672
 22
33.41794102227455
 32
0.0
 13
382.477672
 23
33.41794102227455
 33
0.0
  0
SOLID
  5
10175
  8
0
  6
BYBLOCK
 62
     5
 10
382.23498
 20
34.87117214012388
 30
0.0
 11
382.23498
 21
35.64466936598238
 31
0.0
 12
382.477672
 22
35.42627000000005
 32
0.0
 13
382.477672
 23
35.42627000000005
 33
0.0
  0
SOLID
  5
10176
  8
0
  6
BYBLOCK
 62
     5
 10
382.477672
 20
29.51466746494939
 30
0.0
 11
382.477672
 21
30.37061630527545
 31
0.0
 12
382.777563
 22
29.84791700000005
 32
0.0
 13
382.777563
 23
29.84791700000005
 33
0.0
  0
SOLID
  5
10177
  8
0
  6
BYBLOCK
 62
     5
 10
382.477672
 20
31.81267705688726
 30
0.0
 11
382.477672
 21
33.41794102227455
 31
0.0
 12
382.777563
 22
31.92917385475019
 32
0.0
 13
382.777563
 23
31.92917385475019
 33
0.0
  0
SOLID
  5
10178
  8
0
  6
BYBLOCK
 62
     5
 10
382.777563
 20
31.92917385475019
 30
0.0
 11
382.477672
 21
33.41794102227455
 31
0.0
 12
382.777563
 22
33.33756665093023
 32
0.0
 13
382.777563
 23
33.33756665093023
 33
0.0
  0
SOLID
  5
10179
  8
0
  6
BYBLOCK
 62
     5
 10
382.777563
 20
31.92917385475019
 30
0.0
 11
382.777563
 21
33.33756665093023
 31
0.0
 12
383.583578
 22
32.24228150562833
 32
0.0
 13
383.583578
 23
32.24228150562833
 33
0.0
  0
SOLID
  5
1017A
  8
0
  6
BYBLOCK
 62
     5
 10
383.583578
 20
32.24228150562833
 30
0.0
 11
382.777563
 21
33.33756665093023
 31
0.0
 12
383.583578
 22
33.12154500000008
 32
0.0
 13
383.583578
 23
33.12154500000008
 33
0.0
  0
SOLID
  5
1017B
  8
0
  6
BYBLOCK
 62
     5
 10
383.583578
 20
32.24228150562833
 30
0.0
 11
383.583578
 21
33.12154500000009
 31
0.0
 12
383.626981
 22
32.25914200000011
 32
0.0
 13
383.626981
 23
32.25914200000011
 33
0.0
  0
ENDBLK
  5
1017C
  8
0
$blocks
  0
ENDSEC
  0
SECTION
  2
ENTITIES
  0
POLYLINE
  5
100
  8
0
 62
     7
 66
     1
 10
0.0
 20
0.0
 30
0.0
  0
VERTEX
  5
1022E
  8
0
 62
     7
 10
9.850271500000018
 20
-200.1453575
 30
0.0
  0
VERTEX
  5
1022F
  8
0
 62
     7
 10
286.5591885
 20
-200.1453575
 30
0.0
  0
SEQEND
  5
10406
  8
0
 62
     7
  0
POLYLINE
  5
101
  8
0
 62
     7
 66
     1
 10
0.0
 20
0.0
 30
0.0
  0
VERTEX
  5
10230
  8
0
 62
     7
 10
286.9995585
 20
-200.0002074999999
 30
0.0
  0
VERTEX
  5
10231
  8
0
 62
     7
 10
286.9995585
 20
-9.840280499999864
 30
0.0
  0
SEQEND
  5
10407
  8
0
 62
     7
  0
POLYLINE
  5
102
  8
0
 62
     7
 66
     1
 10
0.0
 20
0.0
 30
0.0
  0
VERTEX
  5
10232
  8
0
 62
     7
 10
287.0589985
 20
-9.999792499999927
 30
0.0
  0
VERTEX
  5
10233
  8
0
 62
     7
 10
10.00044150000002
 20
-9.999792499999927
 30
0.0
  0
SEQEND
  5
10408
  8
0
 62
     7
  0
POLYLINE
  5
103
  8
0
 62
     7
 66
     1
 10
0.0
 20
0.0
 30
0.0
  0
VERTEX
  5
10234
  8
0
 62
     7
 10
9.99956250000002
 20
-9.850302499999913
 30
0.0
  0
VERTEX
  5
10235
  8
0
 62
     7
 10
9.99956250000002
 20
-200.0003274999999
 30
0.0
  0
SEQEND
  5
10409
  8
0
 62
     7
  0
POLYLINE
  5
104
  8
0
 62
     7
 66
     1
 10
0.0
 20
0.0
 30
0.0
  0
VERTEX
  5
10236
  8
0
 62
     7
 10
148.5022685
 20
-10.00279749999996
 30
0.0
  0
VERTEX
  5
10237
  8
0
 62
     7
 10
148.5022685
 20
-0.2879164999999659
 30
0.0
  0
SEQEND
  5
1040A
  8
0
 62
     7
  0
POLYLINE
  5
105
  8
0
 62
     7
 66
     1
 10
0.0
 20
0.0
 30
0.0
  0
VERTEX
  5
10238
  8
0
 62
     7
 10
148.5297185
 20
-202.7984374999999
 30
0.0
  0
VERTEX
  5
10239
  8
0
 62
     7
 10
148.5297185
 20
-209.9922774999999
 30
0.0
  0
SEQEND
  5
1040B
  8
0
 62
     7
  0
POLYLINE
  5
106
  8
0
 62
     7
 66
     1
 10
0.0
 20
0.0
 30
0.0
  0
VERTEX
  5
1023A
  8
0
 62
     7
 10
10.02385350000002
 20
-104.9733374999999
 30
0.0
  0
VERTEX
  5
1023B
  8
0
 62
     7
 10
0.0297165000000184
 20
-104.9733374999999
 30
0.0
  0
SEQEND
  5
1040C
  8
0
 62
     7
  0
POLYLINE
  5
107
  8
0
 62
     7
 66
     1
 10
0.0
 20
0.0
 30
0.0
  0
VERTEX
  5
1023C
  8
0
 62
     7
 10
287.0237985
 20
-104.9703574999999
 30
0.0
  0
VERTEX
  5
1023D
  8
0
 62
     7
 10
296.6856385
 20
-104.9703574999999
 30
0.0
  0
SEQEND
  5
1040D
  8
0
 62
     7
  0
POLYLINE
  5
108
  8
0
 62
     7
 66
     1
 10
0.0
 20
0.0
 30
0.0
  0
VERTEX
  5
1023E
  8
0
 62
     7
 10
240.8627185
 20
-202.5896174999999
 30
0.0
  0
VERTEX
  5
1023F
  8
0
 62
     7
 10
240.8627185
 20
-207.7010874999999
 30
0.0
  0
SEQEND
  5
1040E
  8
0
 62
     7
  0
POLYLINE
  5
109
  8
0
 62
     7
 66
     1
 10
0.0
 20
0.0
 30
0.0
  0
VERTEX
  5
10240
  8
0
 62
     7
 10
56.19671850000002
 20
-200.1453575
 30
0.0
  0
VERTEX
  5
10241
  8
0
 62
     7
 10
56.19671850000002
 20
-207.6453575
 30
0.0
  0
SEQEND
  5
1040F
  8
0
 62
     7
  0
POLYLINE
  5
10A
  8
0
 62
     7
 66
     1
 10
0.0
 20
0.0
 30
0.0
  0
VERTEX
  5
10242
  8
0
 62
     7
 10
194.6967185
 20
-202.5896274999999
 30
0.0
  0
VERTEX
  5
10243
  8
0
 62
     7
 10
194.6967185
 20
-207.7010874999999
 30
0.0
  0
SEQEND
  5
10410
  8
0
 62
     7
  0
POLYLINE
  5
10B
  8
0
 62
     7
 66
     1
 10
0.0
 20
0.0
 30
0.0
  0
VERTEX
  5
10244
  8
0
 62
     7
 10
102.3627185
 20
-200.1453575
 30
0.0
  0
VERTEX
  5
10245
  8
0
 62
     7
 10
102.3627185
 20
-207.6453575
 30
0.0
  0
SEQEND
  5
10411
  8
0
 62
     7
  0
POLYLINE
  5
10C
  8
0
 62
     7
 66
     1
 10
0.0
 20
0.0
 30
0.0
  0
VERTEX
  5
10246
  8
0
 62
     7
 10
102.3352685
 20
-9.997808499999934
 30
0.0
  0
VERTEX
  5
10247
  8
0
 62
     7
 10
102.3352685
 20
-2.45663249999987
 30
0.0
  0
SEQEND
  5
10412
  8
0
 62
     7
  0
POLYLINE
  5
10D
  8
0
 62
     7
 66
     1
 10
0.0
 20
0.0
 30
0.0
  0
VERTEX
  5
10248
  8
0
 62
     7
 10
194.6692685
 20
-9.997808499999934
 30
0.0
  0
VERTEX
  5
10249
  8
0
 62
     7
 10
194.6692685
 20
-2.45663249999987
 30
0.0
  0
SEQEND
  5
10413
  8
0
 62
     7
  0
POLYLINE
  5
10E
  8
0
 62
     7
 66
     1
 10
0.0
 20
0.0
 30
0.0
  0
VERTEX
  5
1024A
  8
0
 62
     7
 10
56.16926750000002
 20
-9.997808499999934
 30
0.0
  0
VERTEX
  5
1024B
  8
0
 62
     7
 10
56.16926750000002
 20
-2.45663249999987
 30
0.0
  0
SEQEND
  5
10414
  8
0
 62
     7
  0
POLYLINE
  5
10F
  8
0
 62
     7
 66
     1
 10
0.0
 20
0.0
 30
0.0
  0
VERTEX
  5
1024C
  8
0
 62
     7
 10
240.8352685
 20
-9.997808499999934
 30
0.0
  0
VERTEX
  5
1024D
  8
0
 62
     7
 10
240.8352685
 20
-2.45663249999987
 30
0.0
  0
SEQEND
  5
10415
  8
0
 62
     7
  0
POLYLINE
  5
110
  8
0
 62
     7
 66
     1
 10
0.0
 20
0.0
 30
0.0
  0
VERTEX
  5
1024E
  8
0
 62
     7
 10
9.854718500000018
 20
-57.47035749999989
 30
0.0
  0
VERTEX
  5
1024F
  8
0
 62
     7
 10
2.354718500000018
 20
-57.47035749999989
 30
0.0
  0
SEQEND
  5
10416
  8
0
 62
     7
  0
POLYLINE
  5
111
  8
0
 62
     7
 66
     1
 10
0.0
 20
0.0
 30
0.0
  0
VERTEX
  5
10250
  8
0
 62
     7
 10
9.854718500000018
 20
-152.4703574999999
 30
0.0
  0
VERTEX
  5
10251
  8
0
 62
     7
 10
2.354718500000018
 20
-152.4703574999999
 30
0.0
  0
SEQEND
  5
10417
  8
0
 62
     7
  0
POLYLINE
  5
112
  8
0
 62
     7
 66
     1
 10
0.0
 20
0.0
 30
0.0
  0
VERTEX
  5
10252
  8
0
 62
     7
 10
287.0297185000001
 20
-57.47035749999989
 30
0.0
  0
VERTEX
  5
10253
  8
0
 62
     7
 10
294.5297185000001
 20
-57.47035749999989
 30
0.0
  0
SEQEND
  5
10418
  8
0
 62
     7
  0
POLYLINE
  5
113
  8
0
 62
     7
 66
     1
 10
0.0
 20
0.0
 30
0.0
  0
VERTEX
  5
10254
  8
0
 62
     7
 10
287.0297185000001
 20
-152.4703574999999
 30
0.0
  0
VERTEX
  5
10255
  8
0
 62
     7
 10
294.5297185000001
 20
-152.4703574999999
 30
0.0
  0
SEQEND
  5
10419
  8
0
 62
     7
  0
POLYLINE
  5
114
  8
0
 62
     7
 66
     1
 10
0.0
 20
0.0
 30
0.0
  0
VERTEX
  5
10256
  8
0
 62
     7
 10
137.0064485
 20
-202.6453575
 30
0.0
  0
VERTEX
  5
10257
  8
0
 62
     7
 10
287.0529785
 20
-202.6453575
 30
0.0
  0
SEQEND
  5
1041A
  8
0
 62
     7
  0
POLYLINE
  5
115
  8
0
 62
     7
 66
     1
 10
0.0
 20
0.0
 30
0.0
  0
VERTEX
  5
10258
  8
0
 62
     7
 10
187.0297185
 20
-200.1453575
 30
0.0
  0
VERTEX
  5
10259
  8
0
 62
     7
 10
187.0297185
 20
-205.1453575
 30
0.0
  0
SEQEND
  5
1041B
  8
0
 62
     7
  0
POLYLINE
  5
116
  8
0
 62
     7
 66
     1
 10
0.0
 20
0.0
 30
0.0
  0
VERTEX
  5
1025A
  8
0
 62
     7
 10
237.0297185
 20
-200.1453575
 30
0.0
  0
VERTEX
  5
1025B
  8
0
 62
     7
 10
237.0297185
 20
-205.1453575
 30
0.0
  0
SEQEND
  5
1041C
  8
0
 62
     7
  0
POLYLINE
  5
117
  8
0
 62
     7
 66
     1
 10
0.0
 20
0.0
 30
0.0
  0
VERTEX
  5
1025C
  8
0
 62
     7
 10
257.0297185000001
 20
-200.1453575
 30
0.0
  0
VERTEX
  5
1025D
  8
0
 62
     7
 10
257.0297185000001
 20
-202.6453575
 30
0.0
  0
SEQEND
  5
1041D
  8
0
 62
     7
  0
POLYLINE
  5
118
  8
0
 62
     7
 66
     1
 10
0.0
 20
0.0
 30
0.0
  0
VERTEX
  5
1025E
  8
0
 62
     7
 10
247.0297185
 20
-200.1453575
 30
0.0
  0
VERTEX
  5
1025F
  8
0
 62
     7
 10
247.0297185
 20
-202.6453575
 30
0.0
  0
SEQEND
  5
1041E
  8
0
 62
     7
  0
POLYLINE
  5
119
  8
0
 62
     7
 66
     1
 10
0.0
 20
0.0
 30
0.0
  0
VERTEX
  5
10260
  8
0
 62
     7
 10
227.0297185
 20
-200.1453575
 30
0.0
  0
VERTEX
  5
10261
  8
0
 62
     7
 10
227.0297185
 20
-202.6453575
 30
0.0
  0
SEQEND
  5
1041F
  8
0
 62
     7
  0
POLYLINE
  5
11A
  8
0
 62
     7
 66
     1
 10
0.0
 20
0.0
 30
0.0
  0
VERTEX
  5
10262
  8
0
 62
     7
 10
207.0297185
 20
-200.1453575
 30
0.0
  0
VERTEX
  5
10263
  8
0
 62
     7
 10
207.0297185
 20
-202.6453575
 30
0.0
  0
SEQEND
  5
10420
  8
0
 62
     7
  0
POLYLINE
  5
11B
  8
0
 62
     7
 66
     1
 10
0.0
 20
0.0
 30
0.0
  0
VERTEX
  5
10264
  8
0
 62
     7
 10
217.0297185
 20
-200.1453575
 30
0.0
  0
VERTEX
  5
10265
  8
0
 62
     7
 10
217.0297185
 20
-202.6453575
 30
0.0
  0
SEQEND
  5
10421
  8
0
 62
     7
  0
POLYLINE
  5
11C
  8
0
 62
     7
 66
     1
 10
0.0
 20
0.0
 30
0.0
  0
VERTEX
  5
10266
  8
0
 62
     7
 10
137.0297185
 20
-200.1453575
 30
0.0
  0
VERTEX
  5
10267
  8
0
 62
     7
 10
137.0297185
 20
-205.1453575
 30
0.0
  0
SEQEND
  5
10422
  8
0
 62
     7
  0
POLYLINE
  5
11D
  8
0
 62
     7
 66
     1
 10
0.0
 20
0.0
 30
0.0
  0
VERTEX
  5
10268
  8
0
 62
     7
 10
286.9797185
 20
-200.1453575
 30
0.0
  0
VERTEX
  5
10269
  8
0
 62
     7
 10
286.9797185
 20
-205.1453575
 30
0.0
  0
SEQEND
  5
10423
  8
0
 62
     7
  0
POLYLINE
  5
11E
  8
0
 62
     7
 66
     1
 10
0.0
 20
0.0
 30
0.0
  0
VERTEX
  5
1026A
  8
0
 62
     7
 10
177.0297185
 20
-200.1453575
 30
0.0
  0
VERTEX
  5
1026B
  8
0
 62
     7
 10
177.0297185
 20
-202.6453575
 30
0.0
  0
SEQEND
  5
10424
  8
0
 62
     7
  0
POLYLINE
  5
11F
  8
0
 62
     7
 66
     1
 10
0.0
 20
0.0
 30
0.0
  0
VERTEX
  5
1026C
  8
0
 62
     7
 10
167.0297185
 20
-200.1453575
 30
0.0
  0
VERTEX
  5
1026D
  8
0
 62
     7
 10
167.0297185
 20
-202.6453575
 30
0.0
  0
SEQEND
  5
10425
  8
0
 62
     7
  0
POLYLINE
  5
120
  8
0
 62
     7
 66
     1
 10
0.0
 20
0.0
 30
0.0
  0
VERTEX
  5
1026E
  8
0
 62
     7
 10
197.0297185
 20
-200.1453575
 30
0.0
  0
VERTEX
  5
1026F
  8
0
 62
     7
 10
197.0297185
 20
-202.6453575
 30
0.0
  0
SEQEND
  5
10426
  8
0
 62
     7
  0
POLYLINE
  5
121
  8
0
 62
     7
 66
     1
 10
0.0
 20
0.0
 30
0.0
  0
VERTEX
  5
10270
  8
0
 62
     7
 10
147.0297185
 20
-200.1453575
 30
0.0
  0
VERTEX
  5
10271
  8
0
 62
     7
 10
147.0297185
 20
-202.6453575
 30
0.0
  0
SEQEND
  5
10427
  8
0
 62
     7
  0
POLYLINE
  5
122
  8
0
 62
     7
 66
     1
 10
0.0
 20
0.0
 30
0.0
  0
VERTEX
  5
10272
  8
0
 62
     7
 10
277.0297185000001
 20
-200.1453575
 30
0.0
  0
VERTEX
  5
10273
  8
0
 62
     7
 10
277.0297185000001
 20
-202.6453575
 30
0.0
  0
SEQEND
  5
10428
  8
0
 62
     7
  0
POLYLINE
  5
123
  8
0
 62
     7
 66
     1
 10
0.0
 20
0.0
 30
0.0
  0
VERTEX
  5
10274
  8
0
 62
     7
 10
157.0297185
 20
-200.1453575
 30
0.0
  0
VERTEX
  5
10275
  8
0
 62
     7
 10
157.0297185
 20
-202.6453575
 30
0.0
  0
SEQEND
  5
10429
  8
0
 62
     7
  0
POLYLINE
  5
124
  8
0
 62
     7
 66
     1
 10
0.0
 20
0.0
 30
0.0
  0
VERTEX
  5
10276
  8
0
 62
     7
 10
267.0297185000001
 20
-200.1453575
 30
0.0
  0
VERTEX
  5
10277
  8
0
 62
     7
 10
267.0297185000001
 20
-202.6453575
 30
0.0
  0
SEQEND
  5
1042A
  8
0
 62
     7
  0
POLYLINE
  5
125
  8
0
 62
     7
 66
     1
 10
0.0
 20
0.0
 30
0.0
 70
     1
  0
VERTEX
  5
10278
  8
0
 62
     7
 10
123.5217185
 20
-5.980387499999921
 30
0.0
  0
VERTEX
  5
10279
  8
0
 62
     7
 10
123.5217185
 20
-7.14535749999996
 30
0.0
  0
VERTEX
  5
1027A
  8
0
 62
     7
 10
127.0217185
 20
-7.14535749999996
 30
0.0
  0
VERTEX
  5
1027B
  8
0
 62
     7
 10
127.0217185
 20
-5.980387499999921
 30
0.0
  0
VERTEX
  5
1027C
  8
0
 62
     7
 10
126.9107185
 20
-5.430667499999942
 30
0.0
  0
VERTEX
  5
1027D
  8
0
 62
     7
 10
126.5727185
 20
-5.022157499999963
 30
0.0
  0
VERTEX
  5
1027E
  8
0
 62
     7
 10
126.0237185
 20
-4.76999749999996
 30
0.0
  0
VERTEX
  5
1027F
  8
0
 62
     7
 10
125.2717185
 20
-4.679237499999914
 30
0.0
  0
VERTEX
  5
10280
  8
0
 62
     7
 10
124.5057185
 20
-4.759927499999918
 30
0.0
  0
VERTEX
  5
10281
  8
0
 62
     7
 10
124.2027185
 20
-4.86078749999993
 30
0.0
  0
VERTEX
  5
10282
  8
0
 62
     7
 10
123.9607185
 20
-5.001987499999956
 30
0.0
  0
VERTEX
  5
10283
  8
0
 62
     7
 10
123.6327185
 20
-5.410497499999934
 30
0.0
  0
VERTEX
  5
10284
  8
0
 62
     7
 10
123.5517185
 20
-5.677797499999912
 30
0.0
  0
VERTEX
  5
10285
  8
0
 62
     7
 10
123.5217185
 20
-5.980387499999921
 30
0.0
  0
VERTEX
  5
10286
  8
0
 62
     7
 10
123.5217185
 20
-5.980387499999921
 30
0.0
  0
SEQEND
  5
1042B
  8
0
 62
     7
  0
POLYLINE
  5
126
  8
0
 62
     7
 66
     1
 10
0.0
 20
0.0
 30
0.0
 70
     1
  0
VERTEX
  5
10287
  8
0
 62
     7
 10
123.9407185
 20
-6.015687499999927
 30
0.0
  0
VERTEX
  5
10288
  8
0
 62
     7
 10
124.0157185
 20
-5.632387499999965
 30
0.0
  0
VERTEX
  5
10289
  8
0
 62
     7
 10
124.2477185
 20
-5.37015749999992
 30
0.0
  0
VERTEX
  5
1028A
  8
0
 62
     7
 10
124.6617185
 20
-5.213807499999945
 30
0.0
  0
VERTEX
  5
1028B
  8
0
 62
     7
 10
125.2717185
 20
-5.163367499999964
 30
0.0
  0
VERTEX
  5
1028C
  8
0
 62
     7
 10
125.8617185
 20
-5.218847499999953
 30
0.0
  0
VERTEX
  5
1028D
  8
0
 62
     7
 10
126.2757185
 20
-5.375187499999953
 30
0.0
  0
VERTEX
  5
1028E
  8
0
 62
     7
 10
126.5227185
 20
-5.64248749999993
 30
0.0
  0
VERTEX
  5
1028F
  8
0
 62
     7
 10
126.6037185
 20
-6.015687499999927
 30
0.0
  0
VERTEX
  5
10290
  8
0
 62
     7
 10
126.6037185
 20
-6.67633749999996
 30
0.0
  0
VERTEX
  5
10291
  8
0
 62
     7
 10
123.9407185
 20
-6.67633749999996
 30
0.0
  0
VERTEX
  5
10292
  8
0
 62
     7
 10
123.9407185
 20
-6.015687499999927
 30
0.0
  0
VERTEX
  5
10293
  8
0
 62
     7
 10
123.9407185
 20
-6.015687499999927
 30
0.0
  0
SEQEND
  5
1042C
  8
0
 62
     7
  0
POLYLINE
  5
127
  8
0
 62
     7
 66
     1
 10
0.0
 20
0.0
 30
0.0
 70
     1
  0
VERTEX
  5
10294
  8
0
 62
     7
 10
80.85471850000002
 20
-7.14535749999996
 30
0.0
  0
VERTEX
  5
10295
  8
0
 62
     7
 10
80.85471850000002
 20
-4.92633749999996
 30
0.0
  0
VERTEX
  5
10296
  8
0
 62
     7
 10
80.43171850000002
 20
-4.92633749999996
 30
0.0
  0
VERTEX
  5
10297
  8
0
 62
     7
 10
80.43171850000002
 20
-6.68136749999988
 30
0.0
  0
VERTEX
  5
10298
  8
0
 62
     7
 10
79.24571850000002
 20
-6.68136749999988
 30
0.0
  0
VERTEX
  5
10299
  8
0
 62
     7
 10
79.24571850000002
 20
-5.117957499999903
 30
0.0
  0
VERTEX
  5
1029A
  8
0
 62
     7
 10
78.82771850000002
 20
-5.117957499999903
 30
0.0
  0
VERTEX
  5
1029B
  8
0
 62
     7
 10
78.82771850000002
 20
-6.68136749999988
 30
0.0
  0
VERTEX
  5
1029C
  8
0
 62
     7
 10
77.77871850000002
 20
-6.68136749999988
 30
0.0
  0
VERTEX
  5
1029D
  8
0
 62
     7
 10
77.77871850000002
 20
-4.966677499999861
 30
0.0
  0
VERTEX
  5
1029E
  8
0
 62
     7
 10
77.35471850000002
 20
-4.966677499999861
 30
0.0
  0
VERTEX
  5
1029F
  8
0
 62
     7
 10
77.35471850000002
 20
-7.14535749999996
 30
0.0
  0
VERTEX
  5
102A0
  8
0
 62
     7
 10
80.85471850000002
 20
-7.14535749999996
 30
0.0
  0
VERTEX
  5
102A1
  8
0
 62
     7
 10
80.85471850000002
 20
-7.14535749999996
 30
0.0
  0
SEQEND
  5
1042D
  8
0
 62
     7
  0
POLYLINE
  5
128
  8
0
 62
     7
 66
     1
 10
0.0
 20
0.0
 30
0.0
 70
     1
  0
VERTEX
  5
102A2
  8
0
 62
     7
 10
171.9827185
 20
-5.077637499999952
 30
0.0
  0
VERTEX
  5
102A3
  8
0
 62
     7
 10
172.4067185
 20
-5.178497499999963
 30
0.0
  0
VERTEX
  5
102A4
  8
0
 62
     7
 10
172.7087185
 20
-5.344947499999904
 30
0.0
  0
VERTEX
  5
102A5
  8
0
 62
     7
 10
172.8957185
 20
-5.576907499999862
 30
0.0
  0
VERTEX
  5
102A6
  8
0
 62
     7
 10
172.9557185
 20
-5.849247499999962
 30
0.0
  0
VERTEX
  5
102A7
  8
0
 62
     7
 10
172.8657185
 20
-6.177067499999936
 30
0.0
  0
VERTEX
  5
102A8
  8
0
 62
     7
 10
172.5927185
 20
-6.434267499999947
 30
0.0
  0
VERTEX
  5
102A9
  8
0
 62
     7
 10
172.1487185
 20
-6.605747499999922
 30
0.0
  0
VERTEX
  5
102AA
  8
0
 62
     7
 10
171.5337185
 20
-6.66122749999991
 30
0.0
  0
VERTEX
  5
102AB
  8
0
 62
     7
 10
170.9237185
 20
-6.605747499999922
 30
0.0
  0
VERTEX
  5
102AC
  8
0
 62
     7
 10
170.4747185
 20
-6.439307499999956
 30
0.0
  0
VERTEX
  5
102AD
  8
0
 62
     7
 10
170.2027185
 20
-6.182107499999944
 30
0.0
  0
VERTEX
  5
102AE
  8
0
 62
     7
 10
170.1067185
 20
-5.849247499999962
 30
0.0
  0
VERTEX
  5
102AF
  8
0
 62
     7
 10
170.1567185
 20
-5.607177499999949
 30
0.0
  0
VERTEX
  5
102B0
  8
0
 62
     7
 10
170.2987185
 20
-5.400397499999968
 30
0.0
  0
VERTEX
  5
102B1
  8
0
 62
     7
 10
170.5257185
 20
-5.23901749999996
 30
0.0
  0
VERTEX
  5
102B2
  8
0
 62
     7
 10
170.8377185
 20
-5.128087499999907
 30
0.0
  0
VERTEX
  5
102B3
  8
0
 62
     7
 10
170.8377185
 20
-4.648957499999966
 30
0.0
  0
VERTEX
  5
102B4
  8
0
 62
     7
 10
170.3587185
 20
-4.800267499999933
 30
0.0
  0
VERTEX
  5
102B5
  8
0
 62
     7
 10
169.9957185
 20
-5.062507499999953
 30
0.0
  0
VERTEX
  5
102B6
  8
0
 62
     7
 10
169.7687185
 20
-5.4205974999999
 30
0.0
  0
VERTEX
  5
102B7
  8
0
 62
     7
 10
169.6877185
 20
-5.849247499999962
 30
0.0
  0
VERTEX
  5
102B8
  8
0
 62
     7
 10
169.8137185
 20
-6.383857499999891
 30
0.0
  0
VERTEX
  5
102B9
  8
0
 62
     7
 10
170.1667185
 20
-6.792327499999971
 30
0.0
  0
VERTEX
  5
102BA
  8
0
 62
     7
 10
170.7467185
 20
-7.054597499999915
 30
0.0
  0
VERTEX
  5
102BB
  8
0
 62
     7
 10
171.5337185
 20
-7.14535749999996
 30
0.0
  0
VERTEX
  5
102BC
  8
0
 62
     7
 10
172.3207185
 20
-7.054597499999915
 30
0.0
  0
VERTEX
  5
102BD
  8
0
 62
     7
 10
172.9007185
 20
-6.792327499999971
 30
0.0
  0
VERTEX
  5
102BE
  8
0
 62
     7
 10
173.2587185
 20
-6.383857499999891
 30
0.0
  0
VERTEX
  5
102BF
  8
0
 62
     7
 10
173.3797185
 20
-5.849247499999962
 30
0.0
  0
VERTEX
  5
102C0
  8
0
 62
     7
 10
173.2837185
 20
-5.380227499999961
 30
0.0
  0
VERTEX
  5
102C1
  8
0
 62
     7
 10
173.0167185
 20
-5.001987499999956
 30
0.0
  0
VERTEX
  5
102C2
  8
0
 62
     7
 10
172.5777185
 20
-4.734717499999903
 30
0.0
  0
VERTEX
  5
102C3
  8
0
 62
     7
 10
171.9827185
 20
-4.593477499999864
 30
0.0
  0
VERTEX
  5
102C4
  8
0
 62
     7
 10
171.9827185
 20
-5.077637499999952
 30
0.0
  0
VERTEX
  5
102C5
  8
0
 62
     7
 10
171.9827185
 20
-5.077637499999952
 30
0.0
  0
SEQEND
  5
1042E
  8
0
 62
     7
  0
POLYLINE
  5
129
  8
0
 62
     7
 66
     1
 10
0.0
 20
0.0
 30
0.0
 70
     1
  0
VERTEX
  5
102C6
  8
0
 62
     7
 10
34.68771850000002
 20
-7.14535749999996
 30
0.0
  0
VERTEX
  5
102C7
  8
0
 62
     7
 10
34.68771850000002
 20
-6.67633749999996
 30
0.0
  0
VERTEX
  5
102C8
  8
0
 62
     7
 10
33.07871850000002
 20
-6.67633749999996
 30
0.0
  0
VERTEX
  5
102C9
  8
0
 62
     7
 10
33.07871850000002
 20
-5.203707499999865
 30
0.0
  0
VERTEX
  5
102CA
  8
0
 62
     7
 10
32.66071850000002
 20
-5.203707499999865
 30
0.0
  0
VERTEX
  5
102CB
  8
0
 62
     7
 10
32.66071850000002
 20
-6.67633749999996
 30
0.0
  0
VERTEX
  5
102CC
  8
0
 62
     7
 10
31.61171850000002
 20
-6.67633749999996
 30
0.0
  0
VERTEX
  5
102CD
  8
0
 62
     7
 10
31.61171850000002
 20
-4.865817499999963
 30
0.0
  0
VERTEX
  5
102CE
  8
0
 62
     7
 10
31.18771850000002
 20
-4.865817499999963
 30
0.0
  0
VERTEX
  5
102CF
  8
0
 62
     7
 10
31.18771850000002
 20
-7.14535749999996
 30
0.0
  0
VERTEX
  5
102D0
  8
0
 62
     7
 10
34.68771850000002
 20
-7.14535749999996
 30
0.0
  0
VERTEX
  5
102D1
  8
0
 62
     7
 10
34.68771850000002
 20
-7.14535749999996
 30
0.0
  0
SEQEND
  5
1042F
  8
0
 62
     7
  0
POLYLINE
  5
12A
  8
0
 62
     7
 66
     1
 10
0.0
 20
0.0
 30
0.0
 70
     1
  0
VERTEX
  5
102D2
  8
0
 62
     7
 10
217.4637185
 20
-5.349977499999937
 30
0.0
  0
VERTEX
  5
102D3
  8
0
 62
     7
 10
217.1717185
 20
-4.996947499999948
 30
0.0
  0
VERTEX
  5
102D4
  8
0
 62
     7
 10
216.9747185
 20
-4.906157499999864
 30
0.0
  0
VERTEX
  5
102D5
  8
0
 62
     7
 10
216.7327185
 20
-4.875887499999891
 30
0.0
  0
VERTEX
  5
102D6
  8
0
 62
     7
 10
216.3537185
 20
-4.941467499999959
 30
0.0
  0
VERTEX
  5
102D7
  8
0
 62
     7
 10
216.0817185
 20
-5.138157499999949
 30
0.0
  0
VERTEX
  5
102D8
  8
0
 62
     7
 10
215.9157185
 20
-5.455867499999869
 30
0.0
  0
VERTEX
  5
102D9
  8
0
 62
     7
 10
215.8547185
 20
-5.899687499999942
 30
0.0
  0
VERTEX
  5
102DA
  8
0
 62
     7
 10
215.8547185
 20
-7.14535749999996
 30
0.0
  0
VERTEX
  5
102DB
  8
0
 62
     7
 10
219.3547185
 20
-7.14535749999996
 30
0.0
  0
VERTEX
  5
102DC
  8
0
 62
     7
 10
219.3547185
 20
-5.829067499999866
 30
0.0
  0
VERTEX
  5
102DD
  8
0
 62
     7
 10
219.2847185
 20
-5.360047499999865
 30
0.0
  0
VERTEX
  5
102DE
  8
0
 62
     7
 10
219.0777185
 20
-5.012057499999884
 30
0.0
  0
VERTEX
  5
102DF
  8
0
 62
     7
 10
218.7497185
 20
-4.795197499999887
 30
0.0
  0
VERTEX
  5
102E0
  8
0
 62
     7
 10
218.3057185
 20
-4.719547499999891
 30
0.0
  0
VERTEX
  5
102E1
  8
0
 62
     7
 10
218.0087185
 20
-4.764957499999952
 30
0.0
  0
VERTEX
  5
102E2
  8
0
 62
     7
 10
217.7617185
 20
-4.88598749999997
 30
0.0
  0
VERTEX
  5
102E3
  8
0
 62
     7
 10
217.5797185
 20
-5.082667499999872
 30
0.0
  0
VERTEX
  5
102E4
  8
0
 62
     7
 10
217.4637185
 20
-5.349977499999937
 30
0.0
  0
VERTEX
  5
102E5
  8
0
 62
     7
 10
217.4637185
 20
-5.349977499999937
 30
0.0
  0
SEQEND
  5
10430
  8
0
 62
     7
  0
POLYLINE
  5
12B
  8
0
 62
     7
 66
     1
 10
0.0
 20
0.0
 30
0.0
 70
     1
  0
VERTEX
  5
102E6
  8
0
 62
     7
 10
217.3077185
 20
-5.995487499999882
 30
0.0
  0
VERTEX
  5
102E7
  8
0
 62
     7
 10
217.3077185
 20
-6.68136749999988
 30
0.0
  0
VERTEX
  5
102E8
  8
0
 62
     7
 10
216.2737185
 20
-6.68136749999988
 30
0.0
  0
VERTEX
  5
102E9
  8
0
 62
     7
 10
216.2737185
 20
-5.955137499999893
 30
0.0
  0
VERTEX
  5
102EA
  8
0
 62
     7
 10
216.3037185
 20
-5.682827499999945
 30
0.0
  0
VERTEX
  5
102EB
  8
0
 62
     7
 10
216.3947185
 20
-5.491177499999964
 30
0.0
  0
VERTEX
  5
102EC
  8
0
 62
     7
 10
216.5507185
 20
-5.375187499999953
 30
0.0
  0
VERTEX
  5
102ED
  8
0
 62
     7
 10
216.7827185
 20
-5.334837499999963
 30
0.0
  0
VERTEX
  5
102EE
  8
0
 62
     7
 10
217.0147185
 20
-5.380217499999873
 30
0.0
  0
VERTEX
  5
102EF
  8
0
 62
     7
 10
217.1767185
 20
-5.501247499999891
 30
0.0
  0
VERTEX
  5
102F0
  8
0
 62
     7
 10
217.2767185
 20
-5.708037499999961
 30
0.0
  0
VERTEX
  5
102F1
  8
0
 62
     7
 10
217.3077185
 20
-5.995487499999882
 30
0.0
  0
VERTEX
  5
102F2
  8
0
 62
     7
 10
217.3077185
 20
-5.995487499999882
 30
0.0
  0
SEQEND
  5
10431
  8
0
 62
     7
  0
POLYLINE
  5
12C
  8
0
 62
     7
 66
     1
 10
0.0
 20
0.0
 30
0.0
 70
     1
  0
VERTEX
  5
102F3
  8
0
 62
     7
 10
218.9367185
 20
-5.884547499999968
 30
0.0
  0
VERTEX
  5
102F4
  8
0
 62
     7
 10
218.9367185
 20
-6.68136749999988
 30
0.0
  0
VERTEX
  5
102F5
  8
0
 62
     7
 10
217.7307185
 20
-6.68136749999988
 30
0.0
  0
VERTEX
  5
102F6
  8
0
 62
     7
 10
217.7307185
 20
-5.929927499999877
 30
0.0
  0
VERTEX
  5
102F7
  8
0
 62
     7
 10
217.7667185
 20
-5.612217499999957
 30
0.0
  0
VERTEX
  5
102F8
  8
0
 62
     7
 10
217.8717185
 20
-5.385257499999881
 30
0.0
  0
VERTEX
  5
102F9
  8
0
 62
     7
 10
218.0537185
 20
-5.249087499999888
 30
0.0
  0
VERTEX
  5
102FA
  8
0
 62
     7
 10
218.3157185
 20
-5.203707499999865
 30
0.0
  0
VERTEX
  5
102FB
  8
0
 62
     7
 10
218.5937185
 20
-5.249087499999888
 30
0.0
  0
VERTEX
  5
102FC
  8
0
 62
     7
 10
218.7847185
 20
-5.375187499999953
 30
0.0
  0
VERTEX
  5
102FD
  8
0
 62
     7
 10
218.9007185
 20
-5.587007499999942
 30
0.0
  0
VERTEX
  5
102FE
  8
0
 62
     7
 10
218.9367185
 20
-5.884547499999968
 30
0.0
  0
VERTEX
  5
102FF
  8
0
 62
     7
 10
218.9367185
 20
-5.884547499999968
 30
0.0
  0
SEQEND
  5
10432
  8
0
 62
     7
  0
POLYLINE
  5
12D
  8
0
 62
     7
 66
     1
 10
0.0
 20
0.0
 30
0.0
 70
     1
  0
VERTEX
  5
10300
  8
0
 62
     7
 10
265.5267185
 20
-7.14535749999996
 30
0.0
  0
VERTEX
  5
10301
  8
0
 62
     7
 10
265.5267185
 20
-6.68136749999988
 30
0.0
  0
VERTEX
  5
10302
  8
0
 62
     7
 10
264.4977185
 20
-6.313207499999891
 30
0.0
  0
VERTEX
  5
10303
  8
0
 62
     7
 10
264.4977185
 20
-4.91623749999988
 30
0.0
  0
VERTEX
  5
10304
  8
0
 62
     7
 10
265.5267185
 20
-4.548067499999917
 30
0.0
  0
VERTEX
  5
10305
  8
0
 62
     7
 10
265.5267185
 20
-4.074007499999908
 30
0.0
  0
VERTEX
  5
10306
  8
0
 62
     7
 10
262.0217185
 20
-5.355017499999946
 30
0.0
  0
VERTEX
  5
10307
  8
0
 62
     7
 10
262.0217185
 20
-5.869417499999969
 30
0.0
  0
VERTEX
  5
10308
  8
0
 62
     7
 10
265.5267185
 20
-7.14535749999996
 30
0.0
  0
VERTEX
  5
10309
  8
0
 62
     7
 10
265.5267185
 20
-7.14535749999996
 30
0.0
  0
SEQEND
  5
10433
  8
0
 62
     7
  0
POLYLINE
  5
12E
  8
0
 62
     7
 66
     1
 10
0.0
 20
0.0
 30
0.0
 70
     1
  0
VERTEX
  5
1030A
  8
0
 62
     7
 10
264.0697185
 20
-6.151827499999882
 30
0.0
  0
VERTEX
  5
1030B
  8
0
 62
     7
 10
262.5257185
 20
-5.612217499999957
 30
0.0
  0
VERTEX
  5
1030C
  8
0
 62
     7
 10
264.0697185
 20
-5.072577499999881
 30
0.0
  0
VERTEX
  5
1030D
  8
0
 62
     7
 10
264.0697185
 20
-6.151827499999882
 30
0.0
  0
VERTEX
  5
1030E
  8
0
 62
     7
 10
264.0697185
 20
-6.151827499999882
 30
0.0
  0
SEQEND
  5
10434
  8
0
 62
     7
  0
POLYLINE
  5
12F
  8
0
 62
     7
 66
     1
 10
0.0
 20
0.0
 30
0.0
 70
     1
  0
VERTEX
  5
1030F
  8
0
 62
     7
 10
5.588508500000018
 20
-82.59535749999989
 30
0.0
  0
VERTEX
  5
10310
  8
0
 62
     7
 10
5.623808500000019
 20
-82.59535749999989
 30
0.0
  0
VERTEX
  5
10311
  8
0
 62
     7
 10
6.107958500000018
 20
-82.51435749999987
 30
0.0
  0
VERTEX
  5
10312
  8
0
 62
     7
 10
6.471068500000018
 20
-82.27735749999991
 30
0.0
  0
VERTEX
  5
10313
  8
0
 62
     7
 10
6.703058500000019
 20
-81.90435749999986
 30
0.0
  0
VERTEX
  5
10314
  8
0
 62
     7
 10
6.788798500000018
 20
-81.41035749999995
 30
0.0
  0
VERTEX
  5
10315
  8
0
 62
     7
 10
6.703058500000019
 20
-80.88535749999997
 30
0.0
  0
VERTEX
  5
10316
  8
0
 62
     7
 10
6.481158500000018
 20
-80.49235749999994
 30
0.0
  0
VERTEX
  5
10317
  8
0
 62
     7
 10
6.128138500000018
 20
-80.24035749999987
 30
0.0
  0
VERTEX
  5
10318
  8
0
 62
     7
 10
5.674238500000018
 20
-80.14935749999987
 30
0.0
  0
VERTEX
  5
10319
  8
0
 62
     7
 10
5.376688500000018
 20
-80.18935749999994
 30
0.0
  0
VERTEX
  5
1031A
  8
0
 62
     7
 10
5.134618500000018
 20
-80.30035749999993
 30
0.0
  0
VERTEX
  5
1031B
  8
0
 62
     7
 10
4.948018500000019
 20
-80.48235749999995
 30
0.0
  0
VERTEX
  5
1031C
  8
0
 62
     7
 10
4.811848500000019
 20
-80.72435749999991
 30
0.0
  0
VERTEX
  5
1031D
  8
0
 62
     7
 10
4.539518500000018
 20
-80.39635749999994
 30
0.0
  0
VERTEX
  5
1031E
  8
0
 62
     7
 10
4.105798500000018
 20
-80.28035749999995
 30
0.0
  0
VERTEX
  5
1031F
  8
0
 62
     7
 10
3.712428500000018
 20
-80.35635749999986
 30
0.0
  0
VERTEX
  5
10320
  8
0
 62
     7
 10
3.414878500000019
 20
-80.57335749999996
 30
0.0
  0
VERTEX
  5
10321
  8
0
 62
     7
 10
3.228278500000018
 20
-80.92635749999991
 30
0.0
  0
VERTEX
  5
10322
  8
0
 62
     7
 10
3.162718500000018
 20
-81.41035749999995
 30
0.0
  0
VERTEX
  5
10323
  8
0
 62
     7
 10
3.243408500000018
 20
-81.8643574999999
 30
0.0
  0
VERTEX
  5
10324
  8
0
 62
     7
 10
3.465308500000019
 20
-82.21235749999997
 30
0.0
  0
VERTEX
  5
10325
  8
0
 62
     7
 10
3.818338500000019
 20
-82.43935749999994
 30
0.0
  0
VERTEX
  5
10326
  8
0
 62
     7
 10
4.287358500000019
 20
-82.51435749999987
 30
0.0
  0
VERTEX
  5
10327
  8
0
 62
     7
 10
4.322658500000018
 20
-82.51435749999987
 30
0.0
  0
VERTEX
  5
10328
  8
0
 62
     7
 10
4.322658500000018
 20
-82.06535749999992
 30
0.0
  0
VERTEX
  5
10329
  8
0
 62
     7
 10
3.999888500000019
 20
-82.02535749999996
 30
0.0
  0
VERTEX
  5
1032A
  8
0
 62
     7
 10
3.767898500000018
 20
-81.89435749999987
 30
0.0
  0
VERTEX
  5
1032B
  8
0
 62
     7
 10
3.626688500000018
 20
-81.68235749999988
 30
0.0
  0
VERTEX
  5
1032C
  8
0
 62
     7
 10
3.576258500000018
 20
-81.38535749999997
 30
0.0
  0
VERTEX
  5
1032D
  8
0
 62
     7
 10
3.616608500000019
 20
-81.12235749999994
 30
0.0
  0
VERTEX
  5
1032E
  8
0
 62
     7
 10
3.722518500000018
 20
-80.9313574999999
 30
0.0
  0
VERTEX
  5
1032F
  8
0
 62
     7
 10
3.893988500000019
 20
-80.81535749999992
 30
0.0
  0
VERTEX
  5
10330
  8
0
 62
     7
 10
4.125968500000019
 20
-80.76935749999987
 30
0.0
  0
VERTEX
  5
10331
  8
0
 62
     7
 10
4.373088500000018
 20
-80.81535749999992
 30
0.0
  0
VERTEX
  5
10332
  8
0
 62
     7
 10
4.539518500000018
 20
-80.9363574999999
 30
0.0
  0
VERTEX
  5
10333
  8
0
 62
     7
 10
4.640378500000018
 20
-81.14735749999991
 30
0.0
  0
VERTEX
  5
10334
  8
0
 62
     7
 10
4.670638500000019
 20
-81.43535749999992
 30
0.0
  0
VERTEX
  5
10335
  8
0
 62
     7
 10
4.665598500000018
 20
-81.63235749999993
 30
0.0
  0
VERTEX
  5
10336
  8
0
 62
     7
 10
5.064008500000019
 20
-81.63235749999993
 30
0.0
  0
VERTEX
  5
10337
  8
0
 62
     7
 10
5.053928500000018
 20
-81.38535749999997
 30
0.0
  0
VERTEX
  5
10338
  8
0
 62
     7
 10
5.099318500000019
 20
-81.06735749999987
 30
0.0
  0
VERTEX
  5
10339
  8
0
 62
     7
 10
5.220348500000019
 20
-80.8303574999999
 30
0.0
  0
VERTEX
  5
1033A
  8
0
 62
     7
 10
5.417038500000018
 20
-80.68935749999994
 30
0.0
  0
VERTEX
  5
1033B
  8
0
 62
     7
 10
5.674238500000018
 20
-80.6383574999999
 30
0.0
  0
VERTEX
  5
1033C
  8
0
 62
     7
 10
5.966748500000018
 20
-80.69435749999994
 30
0.0
  0
VERTEX
  5
1033D
  8
0
 62
     7
 10
6.183608500000019
 20
-80.8403574999999
 30
0.0
  0
VERTEX
  5
1033E
  8
0
 62
     7
 10
6.319778500000019
 20
-81.07235749999987
 30
0.0
  0
VERTEX
  5
1033F
  8
0
 62
     7
 10
6.365168500000018
 20
-81.37935749999988
 30
0.0
  0
VERTEX
  5
10340
  8
0
 62
     7
 10
6.314728500000018
 20
-81.69735749999987
 30
0.0
  0
VERTEX
  5
10341
  8
0
 62
     7
 10
6.163438500000018
 20
-81.92935749999995
 30
0.0
  0
VERTEX
  5
10342
  8
0
 62
     7
 10
5.921358500000018
 20
-82.07535749999991
 30
0.0
  0
VERTEX
  5
10343
  8
0
 62
     7
 10
5.588508500000018
 20
-82.13135749999995
 30
0.0
  0
VERTEX
  5
10344
  8
0
 62
     7
 10
5.588508500000018
 20
-82.59535749999989
 30
0.0
  0
VERTEX
  5
10345
  8
0
 62
     7
 10
5.588508500000018
 20
-82.59535749999989
 30
0.0
  0
SEQEND
  5
10435
  8
0
 62
     7
  0
POLYLINE
  5
130
  8
0
 62
     7
 66
     1
 10
0.0
 20
0.0
 30
0.0
 70
     1
  0
VERTEX
  5
10346
  8
0
 62
     7
 10
6.687928500000019
 20
-130.0953574999999
 30
0.0
  0
VERTEX
  5
10347
  8
0
 62
     7
 10
6.687928500000019
 20
-127.6893574999999
 30
0.0
  0
VERTEX
  5
10348
  8
0
 62
     7
 10
6.254218500000018
 20
-127.6893574999999
 30
0.0
  0
VERTEX
  5
10349
  8
0
 62
     7
 10
6.254218500000018
 20
-129.5903574999999
 30
0.0
  0
VERTEX
  5
1034A
  8
0
 62
     7
 10
6.017178500000019
 20
-129.4843574999999
 30
0.0
  0
VERTEX
  5
1034B
  8
0
 62
     7
 10
5.820498500000018
 20
-129.3033574999999
 30
0.0
  0
VERTEX
  5
1034C
  8
0
 62
     7
 10
5.462428500000018
 20
-128.7433574999999
 30
0.0
  0
VERTEX
  5
1034D
  8
0
 62
     7
 10
5.311128500000018
 20
-128.4453574999999
 30
0.0
  0
VERTEX
  5
1034E
  8
0
 62
     7
 10
5.094268500000019
 20
-128.1133574999999
 30
0.0
  0
VERTEX
  5
1034F
  8
0
 62
     7
 10
4.842108500000019
 20
-127.8763575
 30
0.0
  0
VERTEX
  5
10350
  8
0
 62
     7
 10
4.544558500000019
 20
-127.7393574999999
 30
0.0
  0
VERTEX
  5
10351
  8
0
 62
     7
 10
4.206658500000018
 20
-127.6893574999999
 30
0.0
  0
VERTEX
  5
10352
  8
0
 62
     7
 10
3.783028500000019
 20
-127.7753575
 30
0.0
  0
VERTEX
  5
10353
  8
0
 62
     7
 10
3.450178500000018
 20
-128.0123574999999
 30
0.0
  0
VERTEX
  5
10354
  8
0
 62
     7
 10
3.238358500000019
 20
-128.3753574999999
 30
0.0
  0
VERTEX
  5
10355
  8
0
 62
     7
 10
3.162708500000019
 20
-128.8443574999999
 30
0.0
  0
VERTEX
  5
10356
  8
0
 62
     7
 10
3.248448500000019
 20
-129.3283575
 30
0.0
  0
VERTEX
  5
10357
  8
0
 62
     7
 10
3.485478500000018
 20
-129.6963574999999
 30
0.0
  0
VERTEX
  5
10358
  8
0
 62
     7
 10
3.863718500000019
 20
-129.9333575
 30
0.0
  0
VERTEX
  5
10359
  8
0
 62
     7
 10
4.362998500000018
 20
-130.0143574999999
 30
0.0
  0
VERTEX
  5
1035A
  8
0
 62
     7
 10
4.433608500000019
 20
-130.0143574999999
 30
0.0
  0
VERTEX
  5
1035B
  8
0
 62
     7
 10
4.433608500000019
 20
-129.5553574999999
 30
0.0
  0
VERTEX
  5
1035C
  8
0
 62
     7
 10
4.393258500000019
 20
-129.5553574999999
 30
0.0
  0
VERTEX
  5
1035D
  8
0
 62
     7
 10
4.050318500000018
 20
-129.5103575
 30
0.0
  0
VERTEX
  5
1035E
  8
0
 62
     7
 10
3.798158500000018
 20
-129.3733574999999
 30
0.0
  0
VERTEX
  5
1035F
  8
0
 62
     7
 10
3.636778500000018
 20
-129.1573574999999
 30
0.0
  0
VERTEX
  5
10360
  8
0
 62
     7
 10
3.581298500000018
 20
-128.8693574999999
 30
0.0
  0
VERTEX
  5
10361
  8
0
 62
     7
 10
3.631728500000019
 20
-128.5773574999999
 30
0.0
  0
VERTEX
  5
10362
  8
0
 62
     7
 10
3.757808500000019
 20
-128.3603574999999
 30
0.0
  0
VERTEX
  5
10363
  8
0
 62
     7
 10
3.954498500000018
 20
-128.2183574999999
 30
0.0
  0
VERTEX
  5
10364
  8
0
 62
     7
 10
4.201618500000018
 20
-128.1683574999999
 30
0.0
  0
VERTEX
  5
10365
  8
0
 62
     7
 10
4.433608500000019
 20
-128.2033575
 30
0.0
  0
VERTEX
  5
10366
  8
0
 62
     7
 10
4.630288500000018
 20
-128.2993575
 30
0.0
  0
VERTEX
  5
10367
  8
0
 62
     7
 10
4.801758500000019
 20
-128.4613574999999
 30
0.0
  0
VERTEX
  5
10368
  8
0
 62
     7
 10
4.953058500000019
 20
-128.6823574999999
 30
0.0
  0
VERTEX
  5
10369
  8
0
 62
     7
 10
5.114438500000018
 20
-128.9803574999999
 30
0.0
  0
VERTEX
  5
1036A
  8
0
 62
     7
 10
5.427118500000018
 20
-129.4743574999999
 30
0.0
  0
VERTEX
  5
1036B
  8
0
 62
     7
 10
5.759978500000019
 20
-129.8223574999999
 30
0.0
  0
VERTEX
  5
1036C
  8
0
 62
     7
 10
6.163438500000018
 20
-130.0293574999999
 30
0.0
  0
VERTEX
  5
1036D
  8
0
 62
     7
 10
6.672798500000019
 20
-130.0953574999999
 30
0.0
  0
VERTEX
  5
1036E
  8
0
 62
     7
 10
6.687928500000019
 20
-130.0953574999999
 30
0.0
  0
VERTEX
  5
1036F
  8
0
 62
     7
 10
6.687928500000019
 20
-130.0953574999999
 30
0.0
  0
SEQEND
  5
10436
  8
0
 62
     7
  0
POLYLINE
  5
133
  8
0
 62
     7
 66
     1
 10
0.0
 20
0.0
 30
0.0
 70
     1
  0
VERTEX
  5
10370
  8
0
 62
     7
 10
6.687928500000019
 20
-33.55715749999993
 30
0.0
  0
VERTEX
  5
10371
  8
0
 62
     7
 10
6.687928500000019
 20
-33.10325749999996
 30
0.0
  0
VERTEX
  5
10372
  8
0
 62
     7
 10
5.820498500000018
 20
-33.10325749999996
 30
0.0
  0
VERTEX
  5
10373
  8
0
 62
     7
 10
5.820498500000018
 20
-32.60405749999987
 30
0.0
  0
VERTEX
  5
10374
  8
0
 62
     7
 10
5.417038500000018
 20
-32.60405749999987
 30
0.0
  0
VERTEX
  5
10375
  8
0
 62
     7
 10
5.417038500000018
 20
-33.10325749999996
 30
0.0
  0
VERTEX
  5
10376
  8
0
 62
     7
 10
3.263568500000019
 20
-33.10325749999996
 30
0.0
  0
VERTEX
  5
10377
  8
0
 62
     7
 10
3.263568500000019
 20
-33.5622574999999
 30
0.0
  0
VERTEX
  5
10378
  8
0
 62
     7
 10
5.376688500000018
 20
-35.09535749999989
 30
0.0
  0
VERTEX
  5
10379
  8
0
 62
     7
 10
5.820498500000018
 20
-35.09535749999989
 30
0.0
  0
VERTEX
  5
1037A
  8
0
 62
     7
 10
5.820498500000018
 20
-33.55715749999993
 30
0.0
  0
VERTEX
  5
1037B
  8
0
 62
     7
 10
6.687928500000019
 20
-33.55715749999993
 30
0.0
  0
VERTEX
  5
1037C
  8
0
 62
     7
 10
6.687928500000019
 20
-33.55715749999993
 30
0.0
  0
SEQEND
  5
10437
  8
0
 62
     7
  0
POLYLINE
  5
134
  8
0
 62
     7
 66
     1
 10
0.0
 20
0.0
 30
0.0
 70
     1
  0
VERTEX
  5
1037D
  8
0
 62
     7
 10
5.417038500000018
 20
-34.67175749999993
 30
0.0
  0
VERTEX
  5
1037E
  8
0
 62
     7
 10
3.848588500000018
 20
-33.55715749999993
 30
0.0
  0
VERTEX
  5
1037F
  8
0
 62
     7
 10
5.417038500000018
 20
-33.55715749999993
 30
0.0
  0
VERTEX
  5
10380
  8
0
 62
     7
 10
5.417038500000018
 20
-34.67175749999993
 30
0.0
  0
VERTEX
  5
10381
  8
0
 62
     7
 10
5.417038500000018
 20
-34.67175749999993
 30
0.0
  0
SEQEND
  5
10438
  8
0
 62
     7
  0
POLYLINE
  5
135
  8
0
 62
     7
 66
     1
 10
0.0
 20
0.0
 30
0.0
 70
     1
  0
VERTEX
  5
10382
  8
0
 62
     7
 10
6.687928500000019
 20
-176.2163574999999
 30
0.0
  0
VERTEX
  5
10383
  8
0
 62
     7
 10
6.687928500000019
 20
-175.7573574999999
 30
0.0
  0
VERTEX
  5
10384
  8
0
 62
     7
 10
3.162718500000018
 20
-175.7573574999999
 30
0.0
  0
VERTEX
  5
10385
  8
0
 62
     7
 10
3.162718500000018
 20
-176.1003574999999
 30
0.0
  0
VERTEX
  5
10386
  8
0
 62
     7
 10
3.470358500000018
 20
-176.1913574999999
 30
0.0
  0
VERTEX
  5
10387
  8
0
 62
     7
 10
3.677128500000018
 20
-176.3723574999999
 30
0.0
  0
VERTEX
  5
10388
  8
0
 62
     7
 10
3.798168500000018
 20
-176.6503575
 30
0.0
  0
VERTEX
  5
10389
  8
0
 62
     7
 10
3.838508500000018
 20
-177.0333574999999
 30
0.0
  0
VERTEX
  5
1038A
  8
0
 62
     7
 10
4.196578500000018
 20
-177.0333574999999
 30
0.0
  0
VERTEX
  5
1038B
  8
0
 62
     7
 10
4.196578500000018
 20
-176.2163574999999
 30
0.0
  0
VERTEX
  5
1038C
  8
0
 62
     7
 10
6.687928500000019
 20
-176.2163574999999
 30
0.0
  0
VERTEX
  5
1038D
  8
0
 62
     7
 10
6.687928500000019
 20
-176.2163574999999
 30
0.0
  0
SEQEND
  5
10439
  8
0
 62
     7
  0
POLYLINE
  5
13D
  8
0
 62
     7
 66
     1
 10
0.0
 20
0.0
 30
0.0
  0
VERTEX
  5
1038E
  8
0
 62
     7
 10
146.9476785
 20
-200.1522114999999
 30
0.0
  0
VERTEX
  5
1038F
  8
0
 62
     7
 10
287.0394485
 20
-200.1522114999999
 30
0.0
  0
SEQEND
  5
1043A
  8
0
 62
     7
  0
POLYLINE
  5
13E
  8
0
 62
     7
 66
     1
 10
0.0
 20
0.0
 30
0.0
  0
VERTEX
  5
10390
  8
0
 62
     7
 10
146.9936485
 20
-200.1909214999999
 30
0.0
  0
VERTEX
  5
10391
  8
0
 62
     7
 10
146.9936485
 20
-153.5006014999999
 30
0.0
  0
SEQEND
  5
1043B
  8
0
 62
     7
  0
POLYLINE
  5
13F
  8
0
 62
     7
 66
     1
 10
0.0
 20
0.0
 30
0.0
  0
VERTEX
  5
10392
  8
0
 62
     7
 10
146.9476785
 20
-153.4969415
 30
0.0
  0
VERTEX
  5
10393
  8
0
 62
     7
 10
287.0394485
 20
-153.4969415
 30
0.0
  0
SEQEND
  5
1043C
  8
0
 62
     7
  0
POLYLINE
  5
140
  8
0
 62
     7
 66
     1
 10
0.0
 20
0.0
 30
0.0
  0
VERTEX
  5
10394
  8
0
 62
     7
 10
286.9934785
 20
-153.4635014999999
 30
0.0
  0
VERTEX
  5
10395
  8
0
 62
     7
 10
286.9934785
 20
-200.1909214999999
 30
0.0
  0
SEQEND
  5
1043D
  8
0
 62
     7
  0
POLYLINE
  5
141
  8
0
 62
     7
 66
     1
 10
0.0
 20
0.0
 30
0.0
  0
VERTEX
  5
10396
  8
0
 62
     7
 10
146.9433785
 20
-196.1522114999999
 30
0.0
  0
VERTEX
  5
10397
  8
0
 62
     7
 10
266.0098585000001
 20
-196.1522114999999
 30
0.0
  0
SEQEND
  5
1043E
  8
0
 62
     7
  0
POLYLINE
  5
142
  8
0
 62
     7
 66
     1
 10
0.0
 20
0.0
 30
0.0
  0
VERTEX
  5
10398
  8
0
 62
     7
 10
146.9435085
 20
-183.1522114999999
 30
0.0
  0
VERTEX
  5
10399
  8
0
 62
     7
 10
266.0099985000001
 20
-183.1522114999999
 30
0.0
  0
SEQEND
  5
1043F
  8
0
 62
     7
  0
POLYLINE
  5
143
  8
0
 62
     7
 66
     1
 10
0.0
 20
0.0
 30
0.0
  0
VERTEX
  5
1039A
  8
0
 62
     7
 10
146.9435085
 20
-170.1522114999999
 30
0.0
  0
VERTEX
  5
1039B
  8
0
 62
     7
 10
266.0099985000001
 20
-170.1522114999999
 30
0.0
  0
SEQEND
  5
10440
  8
0
 62
     7
  0
POLYLINE
  5
144
  8
0
 62
     7
 66
     1
 10
0.0
 20
0.0
 30
0.0
  0
VERTEX
  5
1039C
  8
0
 62
     7
 10
265.9658985
 20
-193.4852114999999
 30
0.0
  0
VERTEX
  5
1039D
  8
0
 62
     7
 10
287.0210885
 20
-193.4852114999999
 30
0.0
  0
SEQEND
  5
10441
  8
0
 62
     7
  0
POLYLINE
  5
145
  8
0
 62
     7
 66
     1
 10
0.0
 20
0.0
 30
0.0
  0
VERTEX
  5
1039E
  8
0
 62
     7
 10
265.9658985
 20
-186.8192115
 30
0.0
  0
VERTEX
  5
1039F
  8
0
 62
     7
 10
287.0210885
 20
-186.8192115
 30
0.0
  0
SEQEND
  5
10442
  8
0
 62
     7
  0
POLYLINE
  5
146
  8
0
 62
     7
 66
     1
 10
0.0
 20
0.0
 30
0.0
  0
VERTEX
  5
103A0
  8
0
 62
     7
 10
265.9658985
 20
-180.1522114999999
 30
0.0
  0
VERTEX
  5
103A1
  8
0
 62
     7
 10
287.0210885
 20
-180.1522114999999
 30
0.0
  0
SEQEND
  5
10443
  8
0
 62
     7
  0
POLYLINE
  5
147
  8
0
 62
     7
 66
     1
 10
0.0
 20
0.0
 30
0.0
  0
VERTEX
  5
103A2
  8
0
 62
     7
 10
265.9658985
 20
-173.4852114999999
 30
0.0
  0
VERTEX
  5
103A3
  8
0
 62
     7
 10
287.0210885
 20
-173.4852114999999
 30
0.0
  0
SEQEND
  5
10444
  8
0
 62
     7
  0
POLYLINE
  5
148
  8
0
 62
     7
 66
     1
 10
0.0
 20
0.0
 30
0.0
  0
VERTEX
  5
103A4
  8
0
 62
     7
 10
265.9658985
 20
-166.8192115
 30
0.0
  0
VERTEX
  5
103A5
  8
0
 62
     7
 10
287.0210885
 20
-166.8192115
 30
0.0
  0
SEQEND
  5
10445
  8
0
 62
     7
  0
POLYLINE
  5
149
  8
0
 62
     7
 66
     1
 10
0.0
 20
0.0
 30
0.0
  0
VERTEX
  5
103A6
  8
0
 62
     7
 10
265.9658985
 20
-160.1522114999999
 30
0.0
  0
VERTEX
  5
103A7
  8
0
 62
     7
 10
287.0210885
 20
-160.1522114999999
 30
0.0
  0
SEQEND
  5
10446
  8
0
 62
     7
  0
POLYLINE
  5
14A
  8
0
 62
     7
 66
     1
 10
0.0
 20
0.0
 30
0.0
  0
VERTEX
  5
103A8
  8
0
 62
     7
 10
164.4936285
 20
-196.1522114999999
 30
0.0
  0
VERTEX
  5
103A9
  8
0
 62
     7
 10
164.4936285
 20
-170.1522114999999
 30
0.0
  0
SEQEND
  5
10447
  8
0
 62
     7
  0
POLYLINE
  5
14B
  8
0
 62
     7
 66
     1
 10
0.0
 20
0.0
 30
0.0
  0
VERTEX
  5
103AA
  8
0
 62
     7
 10
184.9935985
 20
-196.1935914999999
 30
0.0
  0
VERTEX
  5
103AB
  8
0
 62
     7
 10
184.9935985
 20
-153.3982114999999
 30
0.0
  0
SEQEND
  5
10448
  8
0
 62
     7
  0
POLYLINE
  5
14C
  8
0
 62
     7
 66
     1
 10
0.0
 20
0.0
 30
0.0
  0
VERTEX
  5
103AC
  8
0
 62
     7
 10
246.9935285
 20
-196.1522114999999
 30
0.0
  0
VERTEX
  5
103AD
  8
0
 62
     7
 10
246.9935285
 20
-183.1522114999999
 30
0.0
  0
SEQEND
  5
10449
  8
0
 62
     7
  0
POLYLINE
  5
14D
  8
0
 62
     7
 66
     1
 10
0.0
 20
0.0
 30
0.0
  0
VERTEX
  5
103AE
  8
0
 62
     7
 10
265.9935085
 20
-200.1909214999999
 30
0.0
  0
VERTEX
  5
103AF
  8
0
 62
     7
 10
265.9935085
 20
-153.4635014999999
 30
0.0
  0
SEQEND
  5
1044A
  8
0
 62
     7
  0
POLYLINE
  5
10046
  8
0
  6
BYBLOCK
 66
     1
 10
0.0
 20
0.0
 30
0.0
 70
     1
  0
VERTEX
  5
103B0
  8
0
  6
BYBLOCK
 10
0.0
 20
-209.9999999999998
 30
0.0
  0
VERTEX
  5
103B1
  8
0
  6
BYBLOCK
 10
0.0
 20
0.0
 30
0.0
  0
VERTEX
  5
103B2
  8
0
  6
BYBLOCK
 10
297.0
 20
0.0
 30
0.0
  0
VERTEX
  5
103B3
  8
0
  6
BYBLOCK
 10
297.0
 20
-209.9999999999998
 30
0.0
  0
SEQEND
  5
1044B
  8
0
  6
BYBLOCK
  0
POLYLINE
  5
10180
  8
0
 62
     1
 66
     1
 10
0.0
 20
0.0
 30
0.0
 70
     1
  0
VERTEX
  5
103B4
  8
0
 62
     1
 10
252.9415285000001
 20
-171.1748114999999
 30
0.0
  0
VERTEX
  5
103B5
  8
0
 62
     1
 10
252.9415285000001
 20
-181.1543874999998
 30
0.0
  0
VERTEX
  5
103B6
  8
0
 62
     1
 10
255.1667045
 20
-181.1543874999998
 30
0.0
  0
VERTEX
  5
103B7
  8
0
 62
     1
 10
255.1667045
 20
-177.2490914999999
 30
0.0
  0
VERTEX
  5
103B8
  8
0
 62
     1
 10
256.7400605
 20
-177.2490914999999
 30
0.0
  0
VERTEX
  5
103B9
  8
0
 62
     1
 10
256.7400605
 20
-175.7094495
 30
0.0
  0
VERTEX
  5
103BA
  8
0
 62
     1
 10
255.1667045
 20
-175.7094495
 30
0.0
  0
VERTEX
  5
103BB
  8
0
 62
     1
 10
255.1667045
 20
-174.0476475
 30
0.0
  0
VERTEX
  5
103BC
  8
0
 62
     1
 10
259.0425805
 20
-174.0476475
 30
0.0
  0
VERTEX
  5
103BD
  8
0
 62
     1
 10
259.0425805
 20
-171.1804305
 30
0.0
  0
VERTEX
  5
103BE
  8
0
 62
     1
 10
252.9415285000001
 20
-171.1748114999999
 30
0.0
  0
VERTEX
  5
103BF
  8
0
 62
     1
 10
252.9415285000001
 20
-171.1748114999999
 30
0.0
  0
SEQEND
  5
1044C
  8
0
 62
     1
  0
POLYLINE
  5
10181
  8
0
 62
     5
 66
     1
 10
0.0
 20
0.0
 30
0.0
 70
     1
  0
VERTEX
  5
103C0
  8
0
 62
     5
 10
262.8466095000001
 20
-174.1490485
 30
0.0
  0
VERTEX
  5
103C1
  8
0
 62
     5
 10
261.5522745000001
 20
-174.8916534999999
 30
0.0
  0
VERTEX
  5
103C2
  8
0
 62
     5
 10
260.9807075000001
 20
-174.6933034999999
 30
0.0
  0
VERTEX
  5
103C3
  8
0
 62
     5
 10
260.4353845000001
 20
-173.2996295
 30
0.0
  0
VERTEX
  5
103C4
  8
0
 62
     5
 10
259.5775615000001
 20
-173.3447084999999
 30
0.0
  0
VERTEX
  5
103C5
  8
0
 62
     5
 10
259.1862865000001
 20
-174.7858544999999
 30
0.0
  0
VERTEX
  5
103C6
  8
0
 62
     5
 10
258.6386745
 20
-175.0480945
 30
0.0
  0
VERTEX
  5
103C7
  8
0
 62
     5
 10
257.2728365
 20
-174.4506115
 30
0.0
  0
VERTEX
  5
103C8
  8
0
 62
     5
 10
256.6959435000001
 20
-175.0916754999999
 30
0.0
  0
VERTEX
  5
103C9
  8
0
 62
     5
 10
257.4385505000001
 20
-176.3860105
 30
0.0
  0
VERTEX
  5
103CA
  8
0
 62
     5
 10
257.2356175
 20
-176.9559025000001
 30
0.0
  0
VERTEX
  5
103CB
  8
0
 62
     5
 10
255.8419425000001
 20
-177.5012264999999
 30
0.0
  0
VERTEX
  5
103CC
  8
0
 62
     5
 10
255.8916025
 20
-178.3607214999999
 30
0.0
  0
VERTEX
  5
103CD
  8
0
 62
     5
 10
257.3327505
 20
-178.7519964999999
 30
0.0
  0
VERTEX
  5
103CE
  8
0
 62
     5
 10
257.5949905000001
 20
-179.2996075000001
 30
0.0
  0
VERTEX
  5
103CF
  8
0
 62
     5
 10
256.9929265000001
 20
-180.6637735
 30
0.0
  0
VERTEX
  5
103D0
  8
0
 62
     5
 10
257.6339895
 20
-181.2406655000001
 30
0.0
  0
VERTEX
  5
103D1
  8
0
 62
     5
 10
258.9283225
 20
-180.4980615
 30
0.0
  0
VERTEX
  5
103D2
  8
0
 62
     5
 10
259.5027995
 20
-180.7026664999999
 30
0.0
  0
VERTEX
  5
103D3
  8
0
 62
     5
 10
260.0435415000001
 20
-182.0946674999999
 30
0.0
  0
VERTEX
  5
103D4
  8
0
 62
     5
 10
260.9076175000001
 20
-182.0466784999998
 30
0.0
  0
VERTEX
  5
103D5
  8
0
 62
     5
 10
261.2943105000001
 20
-180.6038595
 30
0.0
  0
VERTEX
  5
103D6
  8
0
 62
     5
 10
261.8419235000001
 20
-180.3416195000001
 30
0.0
  0
VERTEX
  5
103D7
  8
0
 62
     5
 10
263.2106685000001
 20
-180.9453585
 30
0.0
  0
VERTEX
  5
103D8
  8
0
 62
     5
 10
263.7875615
 20
-180.3042944999999
 30
0.0
  0
VERTEX
  5
103D9
  8
0
 62
     5
 10
263.0449565000001
 20
-179.0099604999999
 30
0.0
  0
VERTEX
  5
103DA
  8
0
 62
     5
 10
263.2449785000001
 20
-178.4338115
 30
0.0
  0
VERTEX
  5
103DB
  8
0
 62
     5
 10
264.6369795000001
 20
-177.8930694999999
 30
0.0
  0
VERTEX
  5
103DC
  8
0
 62
     5
 10
264.5935765
 20
-177.0306665
 30
0.0
  0
VERTEX
  5
103DD
  8
0
 62
     5
 10
263.1507565000001
 20
-176.6439734999999
 30
0.0
  0
VERTEX
  5
103DE
  8
0
 62
     5
 10
262.8885145
 20
-176.0963625
 30
0.0
  0
VERTEX
  5
103DF
  8
0
 62
     5
 10
263.4876705
 20
-174.7259415000001
 30
0.0
  0
VERTEX
  5
103E0
  8
0
 62
     5
 10
262.8466095000001
 20
-174.1490485
 30
0.0
  0
VERTEX
  5
103E1
  8
0
 62
     5
 10
262.8466095000001
 20
-174.1490485
 30
0.0
  0
SEQEND
  5
1044D
  8
0
 62
     5
  0
POLYLINE
  5
10182
  8
0
 62
     5
 66
     1
 10
0.0
 20
0.0
 30
0.0
 70
     1
  0
VERTEX
  5
103E2
  8
0
 62
     5
 10
260.9080905000001
 20
-176.2715984999998
 30
0.0
  0
VERTEX
  5
103E3
  8
0
 62
     5
 10
261.1737905000001
 20
-176.4257614999999
 30
0.0
  0
VERTEX
  5
103E4
  8
0
 62
     5
 10
261.4039895000001
 20
-176.6344754999999
 30
0.0
  0
VERTEX
  5
103E5
  8
0
 62
     5
 10
261.5882855
 20
-176.8835555
 30
0.0
  0
VERTEX
  5
103E6
  8
0
 62
     5
 10
261.7208595000001
 20
-177.1604895
 30
0.0
  0
VERTEX
  5
103E7
  8
0
 62
     5
 10
261.7988065000001
 20
-177.4590204999999
 30
0.0
  0
VERTEX
  5
103E8
  8
0
 62
     5
 10
261.8117165
 20
-177.7649644999999
 30
0.0
  0
VERTEX
  5
103E9
  8
0
 62
     5
 10
261.7675285
 20
-178.0708285
 30
0.0
  0
VERTEX
  5
103EA
  8
0
 62
     5
 10
261.6666825
 20
-178.3611954999999
 30
0.0
  0
VERTEX
  5
103EB
  8
0
 62
     5
 10
261.5062625
 20
-178.6298045000001
 30
0.0
  0
VERTEX
  5
103EC
  8
0
 62
     5
 10
261.3038055000001
 20
-178.8570934999999
 30
0.0
  0
VERTEX
  5
103ED
  8
0
 62
     5
 10
261.0547235000001
 20
-179.0413895
 30
0.0
  0
VERTEX
  5
103EE
  8
0
 62
     5
 10
260.7777895
 20
-179.1739634999999
 30
0.0
  0
VERTEX
  5
103EF
  8
0
 62
     5
 10
260.4792605000001
 20
-179.2519084999999
 30
0.0
  0
VERTEX
  5
103F0
  8
0
 62
     5
 10
260.1716425000001
 20
-179.2694065
 30
0.0
  0
VERTEX
  5
103F1
  8
0
 62
     5
 10
259.8657775
 20
-179.2252205000001
 30
0.0
  0
VERTEX
  5
103F2
  8
0
 62
     5
 10
259.5754125
 20
-179.1243725
 30
0.0
  0
VERTEX
  5
103F3
  8
0
 62
     5
 10
259.3068035000001
 20
-178.9639535
 30
0.0
  0
VERTEX
  5
103F4
  8
0
 62
     5
 10
259.0811845000001
 20
-178.7569115
 30
0.0
  0
VERTEX
  5
103F5
  8
0
 62
     5
 10
258.8952195000001
 20
-178.5124145000001
 30
0.0
  0
VERTEX
  5
103F6
  8
0
 62
     5
 10
258.7626415
 20
-178.2354815
 30
0.0
  0
VERTEX
  5
103F7
  8
0
 62
     5
 10
258.6863705000001
 20
-177.9323675
 30
0.0
  0
VERTEX
  5
103F8
  8
0
 62
     5
 10
258.6688755000001
 20
-177.6247505
 30
0.0
  0
VERTEX
  5
103F9
  8
0
 62
     5
 10
258.7130605
 20
-177.3188854999999
 30
0.0
  0
VERTEX
  5
103FA
  8
0
 62
     5
 10
258.8139095000001
 20
-177.0285194999999
 30
0.0
  0
VERTEX
  5
103FB
  8
0
 62
     5
 10
258.9726555
 20
-176.7644924999999
 30
0.0
  0
VERTEX
  5
103FC
  8
0
 62
     5
 10
259.1767885
 20
-176.5326215
 30
0.0
  0
VERTEX
  5
103FD
  8
0
 62
     5
 10
259.4258685
 20
-176.3483255
 30
0.0
  0
VERTEX
  5
103FE
  8
0
 62
     5
 10
259.7028005
 20
-176.2157514999999
 30
0.0
  0
VERTEX
  5
103FF
  8
0
 62
     5
 10
260.0059135000001
 20
-176.1394795
 30
0.0
  0
VERTEX
  5
10400
  8
0
 62
     5
 10
260.3118585
 20
-176.1265654999999
 30
0.0
  0
VERTEX
  5
10401
  8
0
 62
     5
 10
260.6177225000001
 20
-176.1707505
 30
0.0
  0
VERTEX
  5
10402
  8
0
 62
     5
 10
260.9080885000001
 20
-176.2715995000001
 30
0.0
  0
VERTEX
  5
10403
  8
0
 62
     5
 10
260.9080905000001
 20
-176.2715984999998
 30
0.0
  0
SEQEND
  5
1044E
  8
0
 62
     5
  0
INSERT
  5
10183
  8
0
  6
BYBLOCK
 62
     1
  2
*U1
 10
-118.9900014999999
 20
-210.1522115
 30
0.0
  0
INSERT
  5
10184
  8
0
  6
BYBLOCK
 62
     5
  2
*U2
 10
-118.9900014999999
 20
-210.1522115
 30
0.0
  0
POLYLINE
  5
101D3
  8
0
 62
     7
 66
     1
 10
0.0
 20
0.0
 30
0.0
  0
VERTEX
  5
10404
  8
0
 62
     7
 10
271.0099985000001
 20
-200.1522114999999
 30
0.0
  0
VERTEX
  5
10405
  8
0
 62
     7
 10
271.0099985000001
 20
-153.4969415
 30
0.0
  0
SEQEND
  5
1044F
  8
0
 62
     7
  0
TEXT
  5
101D6
  8
0
  6
CONTINUOUS
 10
267.1320994549795
 20
-158.0704168206001
 30
0.0
 40
2.5
  1
G
  0
TEXT
  5
101D7
  8
0
  6
CONTINUOUS
 10
267.3452645300137
 20
-164.7357115
 30
0.0
 40
2.5
  1
F
  0
TEXT
  5
101D8
  8
0
  6
CONTINUOUS
 10
267.2668197824012
 20
-171.4017114999998
 30
0.0
 40
2.5
  1
E
  0
TEXT
  5
101D9
  8
0
  6
CONTINUOUS
 10
267.1730271493861
 20
-178.0687115
 30
0.0
 40
2.5
  1
D
  0
TEXT
  5
101DA
  8
0
  6
CONTINUOUS
 10
267.1969016377899
 20
-184.7374168206003
 30
0.0
 40
2.5
  1
C
  0
TEXT
  5
101DB
  8
0
  6
CONTINUOUS
 10
267.2770517060027
 20
-191.4017114999998
 30
0.0
 40
2.5
  1
B
  0
TEXT
  5
101DC
  8
0
  6
CONTINUOUS
 10
267.3077474768077
 20
-198.0687115
 30
0.0
 40
2.5
  1
A
  0
TEXT
  5
101DF
  8
0
  6
CONTINUOUS
 10
279.7677790252387
 20
-157.7208260975443
 30
0.0
 40
2.5
  1
_
  0
TEXT
  5
101E0
  8
0
  6
CONTINUOUS
 10
279.7677790252387
 20
-164.3878260975443
 30
0.0
 40
2.5
  1
_
  0
TEXT
  5
101E1
  8
0
  6
CONTINUOUS
 10
279.7677790252387
 20
-171.0538260975443
 30
0.0
 40
2.5
  1
_
  0
TEXT
  5
101E2
  8
0
  6
CONTINUOUS
 10
279.7677790252387
 20
-177.7208260975442
 30
0.0
 40
2.5
  1
_
  0
TEXT
  5
101E3
  8
0
  6
CONTINUOUS
 10
279.7677790252387
 20
-184.3878260975443
 30
0.0
 40
2.5
  1
_
  0
TEXT
  5
101E4
  8
0
  6
CONTINUOUS
 10
279.7677790252387
 20
-191.0538260975443
 30
0.0
 40
2.5
  1
_
  0
TEXT
  5
101E5
  8
0
  6
CONTINUOUS
 10
279.7677790252387
 20
-197.7208260975442
 30
0.0
 40
2.5
  1
_
  0
TEXT
  5
101E6
  8
0
  6
CONTINUOUS
 10
247.4188015483425
 20
-185.2063193439738
 30
0.0
 40
1.5
  1
SHEET
  0
TEXT
  5
101E7
  8
0
  6
CONTINUOUS
 10
247.4188015483425
 20
-191.8309077387326
 30
0.0
 40
3.0
  1
Sheet
  0
TEXT
  5
101E8
  8
0
  6
CONTINUOUS
 10
185.4688915483426
 20
-191.8309077387326
 30
0.0
 40
3.0
  1
Drawing number
  0
TEXT
  5
101E9
  8
0
  6
CONTINUOUS
 10
185.4688915483426
 20
-185.2063193439738
 30
0.0
 40
1.5
  1
DRAWING NUMBER
  0
TEXT
  5
101EA
  8
0
  6
CONTINUOUS
 10
147.7145933204614
 20
-198.9725046223258
 30
0.0
 40
1.5
  1
This drawing is our property; it can't be reproduced or communicated without our written consent.
  0
TEXT
  5
101EB
  8
0
  6
CONTINUOUS
 10
165.177027182907
 20
-185.2063193439738
 30
0.0
 40
1.5
  1
WEIGHT (kg)
  0
TEXT
  5
101EC
  8
0
  6
CONTINUOUS
 10
165.177027182907
 20
-191.8309077387326
 30
0.0
 40
3.0
  1
Weight
  0
TEXT
  5
101ED
  8
0
  6
CONTINUOUS
 10
147.5690957498756
 20
-185.2063193439738
 30
0.0
 40
1.5
  1
SCALE
  0
TEXT
  5
101EE
  8
0
  6
CONTINUOUS
 10
147.5690957498756
 20
-191.8309077387326
 30
0.0
 40
3.0
  1
Scale
  0
TEXT
  5
101EF
  8
0
  6
CONTINUOUS
 10
152.1539137704702
 20
-179.4381084205978
 30
0.0
 40
5.0
  1
A4
  0
TEXT
  5
101F0
  8
0
  6
CONTINUOUS
 10
147.5815544403285
 20
-172.2063193439738
 30
0.0
 40
1.5
  1
SIZE
  0
TEXT
  5
101F5
  8
0
  6
CONTINUOUS
 10
147.5815544403285
 20
-167.8606506126005
 30
0.0
 40
3.0
  1
Date
  0
TEXT
  5
101F6
  8
0
  6
CONTINUOUS
 10
147.5815544403285
 20
-163.702151038792
 30
0.0
 40
1.5
  1
DATE:
  0
TEXT
  5
101F7
  8
0
  6
CONTINUOUS
 10
147.5815544403285
 20
-160.3185522250993
 30
0.0
 40
3.0
  1
Designed by Name
  0
TEXT
  5
101F8
  8
0
  6
CONTINUOUS
 10
147.5815544403285
 20
-156.1600526512908
 30
0.0
 40
1.5
  1
DESIGNED BY:
  0
TEXT
  5
101F9
  8
0
  6
CONTINUOUS
 10
186.6636764751717
 20
-166.5544673739553
 30
0.0
 40
3.0
  1
Subtitle
  0
TEXT
  5
101FA
  8
0
  6
CONTINUOUS
 10
186.6636764751717
 20
-161.6497301164334
 30
0.0
 40
5.0
  1
Title
  0
TEXT
  5
101FB
  8
0
  6
CONTINUOUS
 10
123.0331740083374
 20
-206.0802122254968
 30
0.0
 40
3.5
  1
D
  0
TEXT
  5
101FC
  8
0
  6
CONTINUOUS
 10
273.2269985
 20
-206.9852115
 30
0.0
 40
3.5
  1
A
  0
TEXT
  5
10200
  8
0
  6
CONTINUOUS
 10
76.86717400833741
 20
-206.0802122254968
 30
0.0
 40
3.5
  1
E
  0
TEXT
  5
10201
  8
0
  6
CONTINUOUS
 10
30.67001800833742
 20
-205.9351822254968
 30
0.0
 40
3.5
  1
F
  0
TEXT
  5
1022A
  8
0
  6
CONTINUOUS
 10
289.7962517730629
 20
-177.6450329298633
 30
0.0
 40
3.5
  1
1
  0
TEXT
  5
1022B
  8
0
  6
CONTINUOUS
 10
289.6744918822034
 20
-130.1066304992013
 30
0.0
 40
3.5
  1
2
  0
TEXT
  5
1022C
  8
0
  6
CONTINUOUS
 10
289.6243554565554
 20
-82.51206989393445
 30
0.0
 40
3.5
  1
3
  0
TEXT
  5
1022D
  8
0
  6
CONTINUOUS
 10
289.7055287171285
 20
-35.0933473505615
 30
0.0
 40
3.5
  1
4
$entities
  0
ENDSEC
  0
EOF
