999
dxfrw 0.5.11
0
SECTION
2
HEADER
9
$ACADVER
1
AC1015
9
$HANDSEED
5
20000
9
$DWGCODEPAGE
3
ANSI_1252
9
$INSBASE
10
0
20
0
30
0
9
$EXTMIN
10
0
20
-210
30
0
9
$EXTMAX
10
297
20
0
30
0
9
$LIMMIN
10
0
20
0
9
$LIMMAX
10
12
20
9
9
$ORTHOMODE
70
0
9
$LTSCALE
40
1
9
$TEXTSTYLE
7
STANDARD
9
$CLAYER
8
DIMENSIONS
9
$DIMASZ
40
3.5
9
$DIMLFAC
40
1
9
$DIMSCALE
40
1
9
$DIMEXO
40
0
9
$DIMEXE
40
2
9
$DIMTXT
40
3.5
9
$DIMTSZ
40
0
9
$DIMAUNIT
70
0
9
$DIMADEC
70
0
9
$DIMLUNIT
70
2
9
$DIMSTYLE
2
ISO-25
9
$DIMGAP
40
1
9
$DIMTIH
70
0
9
$LUNITS
70
2
9
$LUPREC
70
2
9
$AUNITS
70
0
9
$AUPREC
70
0
9
$SPLINESEGS
70
8
9
$GRIDMODE
70
0
9
$SNAPSTYLE
70
0
9
$GRIDUNIT
10
0
20
0
9
$PINSBASE
10
0
20
210
30
0
9
$PLIMMIN
10
0
20
0
9
$PLIMMAX
10
297
20
210
9
$INSUNITS
70
4
9
$PSVPSCALE
40
1
0
ENDSEC
0
SECTION
2
CLASSES
0
ENDSEC
0
SECTION
2
TABLES
0
TABLE
2
VPORT
5
8
330
0
100
AcDbSymbolTable
70
1
0
VPORT
5
31
330
2
100
AcDbSymbolTableRecord
100
AcDbViewportTableRecord
2
*ACTIVE
70
0
10
0
20
0
11
1
21
1
12
150.12295082
22
6.16721311475
13
0
23
0
14
10
24
10
15
10
25
10
16
0
26
0
36
1
17
0
27
0
37
0
40
234.029508197
41
1.29680998613
42
50
43
0
44
0
50
0
51
0
71
0
72
100
73
1
74
3
75
0
76
0
77
0
78
0
281
0
65
1
110
0
120
0
130
0
111
1
121
0
131
0
112
0
122
1
132
0
79
0
146
0
0
ENDTAB
0
TABLE
2
LTYPE
5
5
330
0
100
AcDbSymbolTable
70
4
0
LTYPE
5
14
330
5
100
AcDbSymbolTableRecord
100
AcDbLinetypeTableRecord
2
ByBlock
70
0
3

72
65
73
0
40
0
0
LTYPE
5
15
330
5
100
AcDbSymbolTableRecord
100
AcDbLinetypeTableRecord
2
ByLayer
70
0
3

72
65
73
0
40
0
0
LTYPE
5
16
330
5
100
AcDbSymbolTableRecord
100
AcDbLinetypeTableRecord
2
Continuous
70
0
3
Solid line
72
65
73
0
40
0
0
LTYPE
5
32
330
5
100
AcDbSymbolTableRecord
100
AcDbLinetypeTableRecord
2
DOT
70
0
3
Dot . . . . . . . . . . . . . . . . . . . . . .
72
65
73
2
40
6.35
49
0
74
0
49
-6.35
74
0
0
LTYPE
5
33
330
5
100
AcDbSymbolTableRecord
100
AcDbLinetypeTableRecord
2
DOT2
70
0
3
Dot (.5x) .....................................
72
65
73
2
40
3.175
49
0
74
0
49
-3.175
74
0
0
LTYPE
5
34
330
5
100
AcDbSymbolTableRecord
100
AcDbLinetypeTableRecord
2
DOTX2
70
0
3
Dot (2x) .  .  .  .  .  .  .  .  .  .  .  .  .
72
65
73
2
40
12.7
49
0
74
0
49
-12.7
74
0
0
LTYPE
5
35
330
5
100
AcDbSymbolTableRecord
100
AcDbLinetypeTableRecord
2
DASHED
70
0
3
Dot . . . . . . . . . . . . . . . . . . . . . .
72
65
73
2
40
19.05
49
12.7
74
0
49
-6.35
74
0
0
LTYPE
5
36
330
5
100
AcDbSymbolTableRecord
100
AcDbLinetypeTableRecord
2
DASHED2
70
0
3
Dashed (.5x) _ _ _ _ _ _ _ _ _ _ _ _ _ _ _ _ _
72
65
73
2
40
9.525
49
6.35
74
0
49
-3.175
74
0
0
LTYPE
5
37
330
5
100
AcDbSymbolTableRecord
100
AcDbLinetypeTableRecord
2
DASHEDX2
70
0
3
Dashed (2x) ____  ____  ____  ____  ____  ___
72
65
73
2
40
38.1
49
25.4
74
0
49
-12.7
74
0
0
LTYPE
5
38
330
5
100
AcDbSymbolTableRecord
100
AcDbLinetypeTableRecord
2
DASHDOT
70
0
3
Dash dot __ . __ . __ . __ . __ . __ . __ . __
72
65
73
4
40
25.4
49
12.7
74
0
49
-6.35
74
0
49
0
74
0
49
-6.35
74
0
0
LTYPE
5
39
330
5
100
AcDbSymbolTableRecord
100
AcDbLinetypeTableRecord
2
DASHDOT2
70
0
3
Dash dot (.5x) _._._._._._._._._._._._._._._.
72
65
73
4
40
12.7
49
6.35
74
0
49
-3.175
74
0
49
0
74
0
49
-3.175
74
0
0
LTYPE
5
3A
330
5
100
AcDbSymbolTableRecord
100
AcDbLinetypeTableRecord
2
DASHDOTX2
70
0
3
Dash dot (2x) ____  .  ____  .  ____  .  ___
72
65
73
4
40
50.8
49
25.4
74
0
49
-12.7
74
0
49
0
74
0
49
-12.7
74
0
0
LTYPE
5
3B
330
5
100
AcDbSymbolTableRecord
100
AcDbLinetypeTableRecord
2
DIVIDE
70
0
3
Divide ____ . . ____ . . ____ . . ____ . . ____
72
65
73
6
40
31.75
49
12.7
74
0
49
-6.35
74
0
49
0
74
0
49
-6.35
74
0
49
0
74
0
49
-6.35
74
0
0
LTYPE
5
3C
330
5
100
AcDbSymbolTableRecord
100
AcDbLinetypeTableRecord
2
DIVIDE2
70
0
3
Divide (.5x) __..__..__..__..__..__..__..__.._
72
65
73
6
40
15.875
49
6.35
74
0
49
-3.175
74
0
49
0
74
0
49
-3.175
74
0
49
0
74
0
49
-3.175
74
0
0
LTYPE
5
3D
330
5
100
AcDbSymbolTableRecord
100
AcDbLinetypeTableRecord
2
DIVIDEX2
70
0
3
Divide (2x) ________  .  .  ________  .  .  _
72
65
73
6
40
63.5
49
25.4
74
0
49
-12.7
74
0
49
0
74
0
49
-12.7
74
0
49
0
74
0
49
-12.7
74
0
0
LTYPE
5
3E
330
5
100
AcDbSymbolTableRecord
100
AcDbLinetypeTableRecord
2
BORDER
70
0
3
Border __ __ . __ __ . __ __ . __ __ . __ __ .
72
65
73
6
40
44.45
49
12.7
74
0
49
-6.35
74
0
49
12.7
74
0
49
-6.35
74
0
49
0
74
0
49
-6.35
74
0
0
LTYPE
5
3F
330
5
100
AcDbSymbolTableRecord
100
AcDbLinetypeTableRecord
2
BORDER2
70
0
3
Border (.5x) __.__.__.__.__.__.__.__.__.__.__.
72
65
73
6
40
22.225
49
6.35
74
0
49
-3.175
74
0
49
6.35
74
0
49
-3.175
74
0
49
0
74
0
49
-3.175
74
0
0
LTYPE
5
40
330
5
100
AcDbSymbolTableRecord
100
AcDbLinetypeTableRecord
2
BORDERX2
70
0
3
Border (2x) ____  ____  .  ____  ____  .  ___
72
65
73
6
40
88.9
49
25.4
74
0
49
-12.7
74
0
49
25.4
74
0
49
-12.7
74
0
49
0
74
0
49
-12.7
74
0
0
LTYPE
5
41
330
5
100
AcDbSymbolTableRecord
100
AcDbLinetypeTableRecord
2
CENTER
70
0
3
Center ____ _ ____ _ ____ _ ____ _ ____ _ ____
72
65
73
4
40
50.8
49
31.75
74
0
49
-6.35
74
0
49
6.35
74
0
49
-6.35
74
0
0
LTYPE
5
42
330
5
100
AcDbSymbolTableRecord
100
AcDbLinetypeTableRecord
2
CENTER2
70
0
3
Center (.5x) ___ _ ___ _ ___ _ ___ _ ___ _ ___
72
65
73
4
40
28.575
49
19.05
74
0
49
-3.175
74
0
49
3.175
74
0
49
-3.175
74
0
0
LTYPE
5
43
330
5
100
AcDbSymbolTableRecord
100
AcDbLinetypeTableRecord
2
CENTERX2
70
0
3
Center (2x) ________  __  ________  __  _____
72
65
73
4
40
101.6
49
63.5
74
0
49
-12.7
74
0
49
12.7
74
0
49
-12.7
74
0
0
ENDTAB
0
TABLE
2
LAYER
5
2
330
0
100
AcDbSymbolTable
70
1
0
LAYER
5
10
330
2
100
AcDbSymbolTableRecord
100
AcDbLayerTableRecord
2
0
70
0
62
7
6
CONTINUOUS
370
35
390
F
0
LAYER
5
44
330
2
100
AcDbSymbolTableRecord
100
AcDbLayerTableRecord
2
BORDER
70
0
62
7
6
CONTINUOUS
370
35
390
F
0
LAYER
5
45
330
2
100
AcDbSymbolTableRecord
100
AcDbLayerTableRecord
2
DIMENSIONS
70
0
62
7
6
CONTINUOUS
370
18
390
F
0
LAYER
5
46
330
2
100
AcDbSymbolTableRecord
100
AcDbLayerTableRecord
2
LOGO
70
0
62
7
6
CONTINUOUS
370
35
390
F
0
LAYER
5
47
330
2
100
AcDbSymbolTableRecord
100
AcDbLayerTableRecord
2
PAPERSIZE
70
0
62
136
6
CONTINUOUS
370
0
390
F
0
LAYER
5
48
330
2
100
AcDbSymbolTableRecord
100
AcDbLayerTableRecord
2
TITLEBLOCK
70
0
62
7
6
CONTINUOUS
370
35
390
F
0
ENDTAB
0
TABLE
2
STYLE
5
3
330
0
100
AcDbSymbolTable
70
3
0
STYLE
5
49
330
2
100
AcDbSymbolTableRecord
100
AcDbTextStyleTableRecord
2
standard
70
0
40
0
41
1
50
0
71
0
42
1
3
standard
4

0
ENDTAB
0
TABLE
2
VIEW
5
6
330
0
100
AcDbSymbolTable
70
0
0
ENDTAB
0
TABLE
2
UCS
5
7
330
0
100
AcDbSymbolTable
70
0
0
ENDTAB
0
TABLE
2
APPID
5
9
330
0
100
AcDbSymbolTable
70
1
0
APPID
5
12
330
9
100
AcDbSymbolTableRecord
100
AcDbRegAppTableRecord
2
ACAD
70
0
0
ENDTAB
0
TABLE
2
DIMSTYLE
5
A
330
0
100
AcDbSymbolTable
70
1
100
AcDbDimStyleTable
71
1
0
DIMSTYLE
105
4A
330
A
100
AcDbSymbolTableRecord
100
AcDbDimStyleTableRecord
2
Standard
70
0
40
1
41
3.5
42
0
43
0.38
44
2
45
0
46
0
47
0
48
0
140
3.5
141
0.09
142
0
143
25.4
144
1
145
0
146
1
147
1
148
0
71
0
72
0
73
0
74
1
75
0
76
0
77
0
78
0
79
0
170
0
171
2
172
0
173
0
174
0
175
0
176
0
177
0
178
0
179
0
271
4
272
4
273
2
274
2
275
0
276
0
277
2
278
46
279
0
280
0
281
0
282
0
283
1
284
0
285
0
286
0
288
0
289
3
340
Standard
341

371
-2
372
-2
0
ENDTAB
0
TABLE
2
BLOCK_RECORD
5
1
330
0
100
AcDbSymbolTable
70
2
0
BLOCK_RECORD
5
1F
330
1
100
AcDbSymbolTableRecord
100
AcDbBlockTableRecord
2
*Model_Space
0
BLOCK_RECORD
5
1E
330
1
100
AcDbSymbolTableRecord
100
AcDbBlockTableRecord
2
*Paper_Space
0
ENDTAB
0
ENDSEC
0
SECTION
2
BLOCKS
0
BLOCK
5
20
330
1F
100
AcDbEntity
8
0
100
AcDbBlockBegin
2
*Model_Space
70
0
10
0
20
0
30
0
3
*Model_Space
1

0
ENDBLK
5
21
330
1F
100
AcDbEntity
8
0
100
AcDbBlockEnd
0
BLOCK
5
1C
330
1B
100
AcDbEntity
8
0
100
AcDbBlockBegin
2
*Paper_Space
70
0
10
0
20
0
30
0
3
*Paper_Space
1

0
ENDBLK
5
1D
330
1F
100
AcDbEntity
8
0
100
AcDbBlockEnd
999
$blocks
0
ENDSEC
0
SECTION
2
ENTITIES
0
LWPOLYLINE
5
4B
100
AcDbEntity
8
BORDER
6
ByLayer
62
7
370
-1
100
AcDbPolyline
90
2
70
0
43
0
10
9.8502715
20
-200.1453575
10
286.5591885
20
-200.1453575
0
LWPOLYLINE
5
4C
100
AcDbEntity
8
BORDER
6
ByLayer
62
7
370
-1
100
AcDbPolyline
90
2
70
0
43
0
10
286.9995585
20
-200.0002075
10
286.9995585
20
-9.8402805
0
LWPOLYLINE
5
4D
100
AcDbEntity
8
BORDER
6
ByLayer
62
7
370
-1
100
AcDbPolyline
90
2
70
0
43
0
10
287.0589985
20
-9.9997925
10
10.0004415
20
-9.9997925
0
LWPOLYLINE
5
4E
100
AcDbEntity
8
BORDER
6
ByLayer
62
7
370
-1
100
AcDbPolyline
90
2
70
0
43
0
10
9.9995625
20
-9.8503025
10
9.9995625
20
-200.0003275
0
LWPOLYLINE
5
4F
100
AcDbEntity
8
BORDER
6
ByLayer
62
7
370
-1
100
AcDbPolyline
90
2
70
0
43
0
10
148.5022685
20
-10.0027975
10
148.5022685
20
-0.2879165
0
LWPOLYLINE
5
50
100
AcDbEntity
8
BORDER
6
ByLayer
62
7
370
-1
100
AcDbPolyline
90
2
70
0
43
0
10
148.5297185
20
-202.7984375
10
148.5297185
20
-209.9922775
0
LWPOLYLINE
5
51
100
AcDbEntity
8
BORDER
6
ByLayer
62
7
370
-1
100
AcDbPolyline
90
2
70
0
43
0
10
10.0238535
20
-104.9733375
10
0.0297165
20
-104.9733375
0
LWPOLYLINE
5
52
100
AcDbEntity
8
BORDER
6
ByLayer
62
7
370
-1
100
AcDbPolyline
90
2
70
0
43
0
10
287.0237985
20
-104.9703575
10
296.6856385
20
-104.9703575
0
LWPOLYLINE
5
53
100
AcDbEntity
8
BORDER
6
ByLayer
62
7
370
-1
100
AcDbPolyline
90
2
70
0
43
0
10
240.8627185
20
-202.5896175
10
240.8627185
20
-207.7010875
0
LWPOLYLINE
5
54
100
AcDbEntity
8
BORDER
6
ByLayer
62
7
370
-1
100
AcDbPolyline
90
2
70
0
43
0
10
56.1967185
20
-200.1453575
10
56.1967185
20
-207.6453575
0
LWPOLYLINE
5
55
100
AcDbEntity
8
BORDER
6
ByLayer
62
7
370
-1
100
AcDbPolyline
90
2
70
0
43
0
10
194.6967185
20
-202.5896275
10
194.6967185
20
-207.7010875
0
LWPOLYLINE
5
56
100
AcDbEntity
8
BORDER
6
ByLayer
62
7
370
-1
100
AcDbPolyline
90
2
70
0
43
0
10
102.3627185
20
-200.1453575
10
102.3627185
20
-207.6453575
0
LWPOLYLINE
5
57
100
AcDbEntity
8
BORDER
6
ByLayer
62
7
370
-1
100
AcDbPolyline
90
2
70
0
43
0
10
102.3352685
20
-9.9978085
10
102.3352685
20
-2.4566325
0
LWPOLYLINE
5
58
100
AcDbEntity
8
BORDER
6
ByLayer
62
7
370
-1
100
AcDbPolyline
90
2
70
0
43
0
10
194.6692685
20
-9.9978085
10
194.6692685
20
-2.4566325
0
LWPOLYLINE
5
59
100
AcDbEntity
8
BORDER
6
ByLayer
62
7
370
-1
100
AcDbPolyline
90
2
70
0
43
0
10
56.1692675
20
-9.9978085
10
56.1692675
20
-2.4566325
0
LWPOLYLINE
5
5A
100
AcDbEntity
8
BORDER
6
ByLayer
62
7
370
-1
100
AcDbPolyline
90
2
70
0
43
0
10
240.8352685
20
-9.9978085
10
240.8352685
20
-2.4566325
0
LWPOLYLINE
5
5B
100
AcDbEntity
8
BORDER
6
ByLayer
62
7
370
-1
100
AcDbPolyline
90
2
70
0
43
0
10
9.8547185
20
-57.4703575
10
2.3547185
20
-57.4703575
0
LWPOLYLINE
5
5C
100
AcDbEntity
8
BORDER
6
ByLayer
62
7
370
-1
100
AcDbPolyline
90
2
70
0
43
0
10
9.8547185
20
-152.4703575
10
2.3547185
20
-152.4703575
0
LWPOLYLINE
5
5D
100
AcDbEntity
8
BORDER
6
ByLayer
62
7
370
-1
100
AcDbPolyline
90
2
70
0
43
0
10
287.0297185
20
-57.4703575
10
294.5297185
20
-57.4703575
0
LWPOLYLINE
5
5E
100
AcDbEntity
8
BORDER
6
ByLayer
62
7
370
-1
100
AcDbPolyline
90
2
70
0
43
0
10
287.0297185
20
-152.4703575
10
294.5297185
20
-152.4703575
0
LWPOLYLINE
5
5F
100
AcDbEntity
8
BORDER
6
ByLayer
62
7
370
-1
100
AcDbPolyline
90
2
70
0
43
0
10
137.0064485
20
-202.6453575
10
287.0529785
20
-202.6453575
0
LWPOLYLINE
5
60
100
AcDbEntity
8
BORDER
6
ByLayer
62
7
370
-1
100
AcDbPolyline
90
2
70
0
43
0
10
187.0297185
20
-200.1453575
10
187.0297185
20
-205.1453575
0
LWPOLYLINE
5
61
100
AcDbEntity
8
BORDER
6
ByLayer
62
7
370
-1
100
AcDbPolyline
90
2
70
0
43
0
10
237.0297185
20
-200.1453575
10
237.0297185
20
-205.1453575
0
LWPOLYLINE
5
62
100
AcDbEntity
8
BORDER
6
ByLayer
62
7
370
-1
100
AcDbPolyline
90
2
70
0
43
0
10
257.0297185
20
-200.1453575
10
257.0297185
20
-202.6453575
0
LWPOLYLINE
5
63
100
AcDbEntity
8
BORDER
6
ByLayer
62
7
370
-1
100
AcDbPolyline
90
2
70
0
43
0
10
247.0297185
20
-200.1453575
10
247.0297185
20
-202.6453575
0
LWPOLYLINE
5
64
100
AcDbEntity
8
BORDER
6
ByLayer
62
7
370
-1
100
AcDbPolyline
90
2
70
0
43
0
10
227.0297185
20
-200.1453575
10
227.0297185
20
-202.6453575
0
LWPOLYLINE
5
65
100
AcDbEntity
8
BORDER
6
ByLayer
62
7
370
-1
100
AcDbPolyline
90
2
70
0
43
0
10
207.0297185
20
-200.1453575
10
207.0297185
20
-202.6453575
0
LWPOLYLINE
5
66
100
AcDbEntity
8
BORDER
6
ByLayer
62
7
370
-1
100
AcDbPolyline
90
2
70
0
43
0
10
217.0297185
20
-200.1453575
10
217.0297185
20
-202.6453575
0
LWPOLYLINE
5
67
100
AcDbEntity
8
BORDER
6
ByLayer
62
7
370
-1
100
AcDbPolyline
90
2
70
0
43
0
10
137.0297185
20
-200.1453575
10
137.0297185
20
-205.1453575
0
LWPOLYLINE
5
68
100
AcDbEntity
8
BORDER
6
ByLayer
62
7
370
-1
100
AcDbPolyline
90
2
70
0
43
0
10
286.9797185
20
-200.1453575
10
286.9797185
20
-205.1453575
0
LWPOLYLINE
5
69
100
AcDbEntity
8
BORDER
6
ByLayer
62
7
370
-1
100
AcDbPolyline
90
2
70
0
43
0
10
177.0297185
20
-200.1453575
10
177.0297185
20
-202.6453575
0
LWPOLYLINE
5
6A
100
AcDbEntity
8
BORDER
6
ByLayer
62
7
370
-1
100
AcDbPolyline
90
2
70
0
43
0
10
167.0297185
20
-200.1453575
10
167.0297185
20
-202.6453575
0
LWPOLYLINE
5
6B
100
AcDbEntity
8
BORDER
6
ByLayer
62
7
370
-1
100
AcDbPolyline
90
2
70
0
43
0
10
197.0297185
20
-200.1453575
10
197.0297185
20
-202.6453575
0
LWPOLYLINE
5
6C
100
AcDbEntity
8
BORDER
6
ByLayer
62
7
370
-1
100
AcDbPolyline
90
2
70
0
43
0
10
147.0297185
20
-200.1453575
10
147.0297185
20
-202.6453575
0
LWPOLYLINE
5
6D
100
AcDbEntity
8
BORDER
6
ByLayer
62
7
370
-1
100
AcDbPolyline
90
2
70
0
43
0
10
277.0297185
20
-200.1453575
10
277.0297185
20
-202.6453575
0
LWPOLYLINE
5
6E
100
AcDbEntity
8
BORDER
6
ByLayer
62
7
370
-1
100
AcDbPolyline
90
2
70
0
43
0
10
157.0297185
20
-200.1453575
10
157.0297185
20
-202.6453575
0
LWPOLYLINE
5
6F
100
AcDbEntity
8
BORDER
6
ByLayer
62
7
370
-1
100
AcDbPolyline
90
2
70
0
43
0
10
267.0297185
20
-200.1453575
10
267.0297185
20
-202.6453575
0
LWPOLYLINE
5
70
100
AcDbEntity
8
TITLEBLOCK
6
ByLayer
62
7
370
-1
100
AcDbPolyline
90
2
70
0
43
0
10
146.9476785
20
-200.1522115
10
287.0394485
20
-200.1522115
0
LWPOLYLINE
5
71
100
AcDbEntity
8
TITLEBLOCK
6
ByLayer
62
7
370
-1
100
AcDbPolyline
90
2
70
0
43
0
10
146.9936485
20
-200.1909215
10
146.9936485
20
-153.5006015
0
LWPOLYLINE
5
72
100
AcDbEntity
8
TITLEBLOCK
6
ByLayer
62
7
370
-1
100
AcDbPolyline
90
2
70
0
43
0
10
146.9476785
20
-153.4969415
10
287.0394485
20
-153.4969415
0
LWPOLYLINE
5
73
100
AcDbEntity
8
TITLEBLOCK
6
ByLayer
62
7
370
-1
100
AcDbPolyline
90
2
70
0
43
0
10
286.9934785
20
-153.4635015
10
286.9934785
20
-200.1909215
0
LWPOLYLINE
5
74
100
AcDbEntity
8
TITLEBLOCK
6
ByLayer
62
7
370
-1
100
AcDbPolyline
90
2
70
0
43
0
10
146.9433785
20
-196.1522115
10
266.0098585
20
-196.1522115
0
LWPOLYLINE
5
75
100
AcDbEntity
8
TITLEBLOCK
6
ByLayer
62
7
370
-1
100
AcDbPolyline
90
2
70
0
43
0
10
146.9435085
20
-183.1522115
10
266.0099985
20
-183.1522115
0
LWPOLYLINE
5
76
100
AcDbEntity
8
TITLEBLOCK
6
ByLayer
62
7
370
-1
100
AcDbPolyline
90
2
70
0
43
0
10
146.9435085
20
-170.1522115
10
266.0099985
20
-170.1522115
0
LWPOLYLINE
5
77
100
AcDbEntity
8
TITLEBLOCK
6
ByLayer
62
7
370
-1
100
AcDbPolyline
90
2
70
0
43
0
10
265.9658985
20
-193.4852115
10
287.0210885
20
-193.4852115
0
LWPOLYLINE
5
78
100
AcDbEntity
8
TITLEBLOCK
6
ByLayer
62
7
370
-1
100
AcDbPolyline
90
2
70
0
43
0
10
265.9658985
20
-186.8192115
10
287.0210885
20
-186.8192115
0
LWPOLYLINE
5
79
100
AcDbEntity
8
TITLEBLOCK
6
ByLayer
62
7
370
-1
100
AcDbPolyline
90
2
70
0
43
0
10
265.9658985
20
-180.1522115
10
287.0210885
20
-180.1522115
0
LWPOLYLINE
5
7A
100
AcDbEntity
8
TITLEBLOCK
6
ByLayer
62
7
370
-1
100
AcDbPolyline
90
2
70
0
43
0
10
265.9658985
20
-173.4852115
10
287.0210885
20
-173.4852115
0
LWPOLYLINE
5
7B
100
AcDbEntity
8
TITLEBLOCK
6
ByLayer
62
7
370
-1
100
AcDbPolyline
90
2
70
0
43
0
10
265.9658985
20
-166.8192115
10
287.0210885
20
-166.8192115
0
LWPOLYLINE
5
7C
100
AcDbEntity
8
TITLEBLOCK
6
ByLayer
62
7
370
-1
100
AcDbPolyline
90
2
70
0
43
0
10
265.9658985
20
-160.1522115
10
287.0210885
20
-160.1522115
0
LWPOLYLINE
5
7D
100
AcDbEntity
8
TITLEBLOCK
6
ByLayer
62
7
370
-1
100
AcDbPolyline
90
2
70
0
43
0
10
164.4936285
20
-196.1522115
10
164.4936285
20
-170.1522115
0
LWPOLYLINE
5
7E
100
AcDbEntity
8
TITLEBLOCK
6
ByLayer
62
7
370
-1
100
AcDbPolyline
90
2
70
0
43
0
10
184.9935985
20
-196.1935915
10
184.9935985
20
-153.3982115
0
LWPOLYLINE
5
7F
100
AcDbEntity
8
TITLEBLOCK
6
ByLayer
62
7
370
-1
100
AcDbPolyline
90
2
70
0
43
0
10
246.9935285
20
-196.1522115
10
246.9935285
20
-183.1522115
0
LWPOLYLINE
5
80
100
AcDbEntity
8
TITLEBLOCK
6
ByLayer
62
7
370
-1
100
AcDbPolyline
90
2
70
0
43
0
10
265.9935085
20
-200.1909215
10
265.9935085
20
-153.4635015
0
LWPOLYLINE
5
81
100
AcDbEntity
8
LOGO
6
ByLayer
62
1
370
-1
100
AcDbPolyline
90
12
70
1
43
0
10
252.9415285
20
-171.1748115
10
252.9415285
20
-181.1543875
10
255.1667045
20
-181.1543875
10
255.1667045
20
-177.2490915
10
256.7400605
20
-177.2490915
10
256.7400605
20
-175.7094495
10
255.1667045
20
-175.7094495
10
255.1667045
20
-174.0476475
10
259.0425805
20
-174.0476475
10
259.0425805
20
-171.1804305
10
252.9415285
20
-171.1748115
10
252.9415285
20
-171.1748115
0
LWPOLYLINE
5
82
100
AcDbEntity
8
LOGO
6
ByLayer
62
5
370
-1
100
AcDbPolyline
90
34
70
1
43
0
10
262.8466095
20
-174.1490485
10
261.5522745
20
-174.8916535
10
260.9807075
20
-174.6933035
10
260.4353845
20
-173.2996295
10
259.5775615
20
-173.3447085
10
259.1862865
20
-174.7858545
10
258.6386745
20
-175.0480945
10
257.2728365
20
-174.4506115
10
256.6959435
20
-175.0916755
10
257.4385505
20
-176.3860105
10
257.2356175
20
-176.9559025
10
255.8419425
20
-177.5012265
10
255.8916025
20
-178.3607215
10
257.3327505
20
-178.7519965
10
257.5949905
20
-179.2996075
10
256.9929265
20
-180.6637735
10
257.6339895
20
-181.2406655
10
258.9283225
20
-180.4980615
10
259.5027995
20
-180.7026665
10
260.0435415
20
-182.0946675
10
260.9076175
20
-182.0466785
10
261.2943105
20
-180.6038595
10
261.8419235
20
-180.3416195
10
263.2106685
20
-180.9453585
10
263.7875615
20
-180.3042945
10
263.0449565
20
-179.0099605
10
263.2449785
20
-178.4338115
10
264.6369795
20
-177.8930695
10
264.5935765
20
-177.0306665
10
263.1507565
20
-176.6439735
10
262.8885145
20
-176.0963625
10
263.4876705
20
-174.7259415
10
262.8466095
20
-174.1490485
10
262.8466095
20
-174.1490485
0
LWPOLYLINE
5
83
100
AcDbEntity
8
LOGO
6
ByLayer
62
5
370
-1
100
AcDbPolyline
90
34
70
1
43
0
10
260.9080905
20
-176.2715985
10
261.1737905
20
-176.4257615
10
261.4039895
20
-176.6344755
10
261.5882855
20
-176.8835555
10
261.7208595
20
-177.1604895
10
261.7988065
20
-177.4590205
10
261.8117165
20
-177.7649645
10
261.7675285
20
-178.0708285
10
261.6666825
20
-178.3611955
10
261.5062625
20
-178.6298045
10
261.3038055
20
-178.8570935
10
261.0547235
20
-179.0413895
10
260.7777895
20
-179.1739635
10
260.4792605
20
-179.2519085
10
260.1716425
20
-179.2694065
10
259.8657775
20
-179.2252205
10
259.5754125
20
-179.1243725
10
259.3068035
20
-178.9639535
10
259.0811845
20
-178.7569115
10
258.8952195
20
-178.5124145
10
258.7626415
20
-178.2354815
10
258.6863705
20
-177.9323675
10
258.6688755
20
-177.6247505
10
258.7130605
20
-177.3188855
10
258.8139095
20
-177.0285195
10
258.9726555
20
-176.7644925
10
259.1767885
20
-176.5326215
10
259.4258685
20
-176.3483255
10
259.7028005
20
-176.2157515
10
260.0059135
20
-176.1394795
10
260.3118585
20
-176.1265655
10
260.6177225
20
-176.1707505
10
260.9080885
20
-176.2715995
10
260.9080905
20
-176.2715985
0
LWPOLYLINE
5
84
100
AcDbEntity
8
TITLEBLOCK
6
ByLayer
62
7
370
-1
100
AcDbPolyline
90
2
70
0
43
0
10
271.0099985
20
-200.1522115
10
271.0099985
20
-153.4969415
0
LINE
5
85
100
AcDbEntity
8
PAPERSIZE
6
ByLayer
62
256
370
-1
100
AcDbLine
10
297
20
-5
11
297
21
0
0
LINE
5
86
100
AcDbEntity
8
PAPERSIZE
6
ByLayer
62
256
370
-1
100
AcDbLine
10
297
20
0
11
292
21
0
0
LINE
5
87
100
AcDbEntity
8
PAPERSIZE
6
ByLayer
62
256
370
-1
100
AcDbLine
10
292
20
-210
11
297
21
-210
0
LINE
5
88
100
AcDbEntity
8
PAPERSIZE
6
ByLayer
62
256
370
-1
100
AcDbLine
10
297
20
-210
11
297
21
-205
0
LINE
5
89
100
AcDbEntity
8
PAPERSIZE
6
ByLayer
62
256
370
-1
100
AcDbLine
10
0
20
-205
11
0
21
-210
0
LINE
5
8A
100
AcDbEntity
8
PAPERSIZE
6
ByLayer
62
256
370
-1
100
AcDbLine
10
0
20
-210
11
5
21
-210
0
TEXT
5
8B
100
AcDbEntity
8
BORDER
6
CONTINUOUS
62
256
370
-1
100
AcDbText
10
290
20
-35
30
0
40
3.5
1
4
50
0
41
1
51
0
7
standard
71
0
210
0
220
0
230
1
100
AcDbText
0
TEXT
5
8C
100
AcDbEntity
8
BORDER
6
CONTINUOUS
62
256
370
-1
100
AcDbText
10
290
20
-82.5
30
0
40
3.5
1
3
50
0
41
1
51
0
7
standard
71
0
210
0
220
0
230
1
100
AcDbText
0
TEXT
5
8D
100
AcDbEntity
8
BORDER
6
CONTINUOUS
62
256
370
-1
100
AcDbText
10
290
20
-130
30
0
40
3.5
1
2
50
0
41
1
51
0
7
standard
71
0
210
0
220
0
230
1
100
AcDbText
0
TEXT
5
8E
100
AcDbEntity
8
BORDER
6
CONTINUOUS
62
256
370
-1
100
AcDbText
10
290
20
-177.5
30
0
40
3.5
1
1
50
0
41
1
51
0
7
standard
71
0
210
0
220
0
230
1
100
AcDbText
0
TEXT
5
8F
100
AcDbEntity
8
BORDER
6
ByLayer
62
256
370
-1
100
AcDbText
10
3.3
20
-177.5
30
0
40
3.5
1
1
50
90
41
1
51
0
7
standard
71
0
11
3.3
21
-177.5
31
0
210
0
220
0
230
1
100
AcDbText
73
3
0
TEXT
5
90
100
AcDbEntity
8
BORDER
6
ByLayer
62
256
370
-1
100
AcDbText
10
3.3
20
-130
30
0
40
3.5
1
2
50
90
41
1
51
0
7
standard
71
0
11
3.3
21
-130
31
0
210
0
220
0
230
1
100
AcDbText
73
3
0
TEXT
5
91
100
AcDbEntity
8
BORDER
6
ByLayer
62
256
370
-1
100
AcDbText
10
3.3
20
-82.5
30
0
40
3.5
1
3
50
90
41
1
51
0
7
standard
71
0
11
3.3
21
-82.5
31
0
210
0
220
0
230
1
100
AcDbText
73
3
0
TEXT
5
92
100
AcDbEntity
8
BORDER
6
ByLayer
62
256
370
-1
100
AcDbText
10
3.3
20
-35
30
0
40
3.5
1
4
50
90
41
1
51
0
7
standard
71
0
11
3.3
21
-35
31
0
210
0
220
0
230
1
100
AcDbText
73
3
0
TEXT
5
93
100
AcDbEntity
8
BORDER
6
ByLayer
62
256
370
-1
100
AcDbText
10
31
20
-7
30
0
40
3.5
1
F
50
90
41
1
51
0
7
standard
71
0
11
31
21
-7
31
0
210
0
220
0
230
1
100
AcDbText
73
3
0
TEXT
5
94
100
AcDbEntity
8
BORDER
6
ByLayer
62
256
370
-1
100
AcDbText
10
77.5
20
-7
30
0
40
3.5
1
E
50
90
41
1
51
0
7
standard
71
0
11
77.5
21
-7
31
0
210
0
220
0
230
1
100
AcDbText
73
3
0
TEXT
5
95
100
AcDbEntity
8
BORDER
6
ByLayer
62
256
370
-1
100
AcDbText
10
123.5
20
-7
30
0
40
3.5
1
D
50
90
41
1
51
0
7
standard
71
0
11
123.5
21
-7
31
0
210
0
220
0
230
1
100
AcDbText
73
3
0
TEXT
5
96
100
AcDbEntity
8
BORDER
6
ByLayer
62
256
370
-1
100
AcDbText
10
170
20
-7
30
0
40
3.5
1
C
50
90
41
1
51
0
7
standard
71
0
11
170
21
-7
31
0
210
0
220
0
230
1
100
AcDbText
73
3
0
TEXT
5
97
100
AcDbEntity
8
BORDER
6
ByLayer
62
256
370
-1
100
AcDbText
10
216
20
-7
30
0
40
3.5
1
B
50
90
41
1
51
0
7
standard
71
0
11
216
21
-7
31
0
210
0
220
0
230
1
100
AcDbText
73
3
0
TEXT
5
98
100
AcDbEntity
8
BORDER
6
ByLayer
62
256
370
-1
100
AcDbText
10
262
20
-7
30
0
40
3.5
1
A
50
90
41
1
51
0
7
standard
71
0
11
262
21
-7
31
0
210
0
220
0
230
1
100
AcDbText
73
3
0
TEXT
5
99
100
AcDbEntity
8
BORDER
6
CONTINUOUS
62
256
370
-1
100
AcDbText
10
31
20
-206
30
0
40
3.5
1
F
50
0
41
1
51
0
7
standard
71
0
210
0
220
0
230
1
100
AcDbText
0
TEXT
5
9A
100
AcDbEntity
8
BORDER
6
CONTINUOUS
62
256
370
-1
100
AcDbText
10
77.5
20
-206
30
0
40
3.5
1
E
50
0
41
1
51
0
7
standard
71
0
210
0
220
0
230
1
100
AcDbText
0
TEXT
5
9B
100
AcDbEntity
8
BORDER
6
CONTINUOUS
62
256
370
-1
100
AcDbText
10
123.5
20
-206
30
0
40
3.5
1
D
50
0
41
1
51
0
7
standard
71
0
210
0
220
0
230
1
100
AcDbText
0
LINE
5
9C
100
AcDbEntity
8
PAPERSIZE
6
ByLayer
62
256
370
-1
100
AcDbLine
10
0
20
-5
11
0
21
0
0
LINE
5
9D
100
AcDbEntity
8
PAPERSIZE
6
ByLayer
62
256
370
-1
100
AcDbLine
10
0
20
0
11
5
21
0
0
TEXT
5
9E
100
AcDbEntity
8
TITLEBLOCK
6
CONTINUOUS
62
256
370
13
100
AcDbText
10
277
20
-157.7
30
0
40
2.5
1
_
50
0
41
1
51
0
7
standard
71
0
210
0
220
0
230
1
100
AcDbText
0
TEXT
5
9F
100
AcDbEntity
8
TITLEBLOCK
6
CONTINUOUS
62
256
370
13
100
AcDbText
10
277
20
-164.3
30
0
40
2.5
1
_
50
0
41
1
51
0
7
standard
71
0
210
0
220
0
230
1
100
AcDbText
0
TEXT
5
A0
100
AcDbEntity
8
TITLEBLOCK
6
CONTINUOUS
62
256
370
13
100
AcDbText
10
277
20
-171.1
30
0
40
2.5
1
_
50
0
41
1
51
0
7
standard
71
0
210
0
220
0
230
1
100
AcDbText
0
TEXT
5
A1
100
AcDbEntity
8
TITLEBLOCK
6
CONTINUOUS
62
256
370
13
100
AcDbText
10
277
20
-177.7
30
0
40
2.5
1
_
50
0
41
1
51
0
7
standard
71
0
210
0
220
0
230
1
100
AcDbText
0
TEXT
5
A2
100
AcDbEntity
8
TITLEBLOCK
6
CONTINUOUS
62
256
370
13
100
AcDbText
10
277
20
-184.4
30
0
40
2.5
1
_
50
0
41
1
51
0
7
standard
71
0
210
0
220
0
230
1
100
AcDbText
0
TEXT
5
A3
100
AcDbEntity
8
TITLEBLOCK
6
CONTINUOUS
62
256
370
13
100
AcDbText
10
277
20
-191.1
30
0
40
2.5
1
_
50
0
41
1
51
0
7
standard
71
0
210
0
220
0
230
1
100
AcDbText
0
TEXT
5
A4
100
AcDbEntity
8
TITLEBLOCK
6
CONTINUOUS
62
256
370
13
100
AcDbText
10
277
20
-197.7
30
0
40
2.5
1
_
50
0
41
1
51
0
7
standard
71
0
210
0
220
0
230
1
100
AcDbText
0
TEXT
5
A5
100
AcDbEntity
8
TITLEBLOCK
6
CONTINUOUS
62
256
370
18
100
AcDbText
10
267.7
20
-158
30
0
40
2.5
1
G
50
0
41
1
51
0
7
standard
71
0
210
0
220
0
230
1
100
AcDbText
0
TEXT
5
A6
100
AcDbEntity
8
TITLEBLOCK
6
CONTINUOUS
62
256
370
18
100
AcDbText
10
267.913165075
20
-164.665294679
30
0
40
2.5
1
F
50
0
41
1
51
0
7
standard
71
0
210
0
220
0
230
1
100
AcDbText
0
TEXT
5
A7
100
AcDbEntity
8
TITLEBLOCK
6
CONTINUOUS
62
256
370
18
100
AcDbText
10
267.834720327
20
-171.331294679
30
0
40
2.5
1
E
50
0
41
1
51
0
7
standard
71
0
210
0
220
0
230
1
100
AcDbText
0
TEXT
5
A8
100
AcDbEntity
8
TITLEBLOCK
6
CONTINUOUS
62
256
370
18
100
AcDbText
10
267.740927694
20
-177.998294679
30
0
40
2.5
1
D
50
0
41
1
51
0
7
standard
71
0
210
0
220
0
230
1
100
AcDbText
0
TEXT
5
A9
100
AcDbEntity
8
TITLEBLOCK
6
CONTINUOUS
62
256
370
18
100
AcDbText
10
267.764802183
20
-184.667
30
0
40
2.5
1
C
50
0
41
1
51
0
7
standard
71
0
210
0
220
0
230
1
100
AcDbText
0
TEXT
5
AA
100
AcDbEntity
8
TITLEBLOCK
6
CONTINUOUS
62
256
370
18
100
AcDbText
10
267.844952251
20
-191.331294679
30
0
40
2.5
1
B
50
0
41
1
51
0
7
standard
71
0
210
0
220
0
230
1
100
AcDbText
0
TEXT
5
AB
100
AcDbEntity
8
TITLEBLOCK
6
CONTINUOUS
62
256
370
18
100
AcDbText
10
267.875648022
20
-197.998294679
30
0
40
2.5
1
A
50
0
41
1
51
0
7
standard
71
0
210
0
220
0
230
1
100
AcDbText
0
TEXT
5
AC
100
AcDbEntity
8
TITLEBLOCK
6
CONTINUOUS
62
256
370
9
100
AcDbText
10
148
20
-156
30
0
40
1.5
1
DESIGNED BY:
50
0
41
1
51
0
7
standard
71
0
210
0
220
0
230
1
100
AcDbText
0
TEXT
5
AD
100
AcDbEntity
8
TITLEBLOCK
6
CONTINUOUS
62
256
370
20
100
AcDbText
10
148
20
-161
30
0
40
3
1
Designed by Name
50
0
41
1
51
0
7
standard
71
0
210
0
220
0
230
1
100
AcDbText
0
TEXT
5
AE
100
AcDbEntity
8
TITLEBLOCK
6
CONTINUOUS
62
256
370
9
100
AcDbText
10
148
20
-164.5
30
0
40
1.5
1
DATE:
50
0
41
1
51
0
7
standard
71
0
210
0
220
0
230
1
100
AcDbText
0
TEXT
5
AF
100
AcDbEntity
8
TITLEBLOCK
6
CONTINUOUS
62
256
370
9
100
AcDbText
10
148
20
-172.2
30
0
40
1.5
1
SIZE
50
0
41
1
51
0
7
standard
71
0
210
0
220
0
230
1
100
AcDbText
0
TEXT
5
B0
100
AcDbEntity
8
TITLEBLOCK
6
CONTINUOUS
62
256
370
35
100
AcDbText
10
151
20
-179.5
30
0
40
5
1
A4
50
0
41
1
51
0
7
standard
71
0
210
0
220
0
230
1
100
AcDbText
0
TEXT
5
B1
100
AcDbEntity
8
TITLEBLOCK
6
CONTINUOUS
62
256
370
9
100
AcDbText
10
148
20
-198.8
30
0
40
1.5
1
This drawing is our property; it can't be reproduced or communicated without our written consent.
50
0
41
1
51
0
7
standard
71
0
210
0
220
0
230
1
100
AcDbText
0
TEXT
5
B2
100
AcDbEntity
8
TITLEBLOCK
6
CONTINUOUS
62
256
370
9
100
AcDbText
10
148
20
-185.4
30
0
40
1.5
1
SCALE
50
0
41
1
51
0
7
standard
71
0
210
0
220
0
230
1
100
AcDbText
0
TEXT
5
B3
100
AcDbEntity
8
TITLEBLOCK
6
CONTINUOUS
62
256
370
9
100
AcDbText
10
166
20
-185.4
30
0
40
1.5
1
WEIGHT (kg)
50
0
41
1
51
0
7
standard
71
0
210
0
220
0
230
1
100
AcDbText
0
TEXT
5
B4
100
AcDbEntity
8
TITLEBLOCK
6
CONTINUOUS
62
256
370
9
100
AcDbText
10
186
20
-185.4
30
0
40
1.5
1
DRAWING NUMBER
50
0
41
1
51
0
7
standard
71
0
210
0
220
0
230
1
100
AcDbText
0
TEXT
5
B5
100
AcDbEntity
8
TITLEBLOCK
6
CONTINUOUS
62
256
370
9
100
AcDbText
10
248.5
20
-185.4
30
0
40
1.5
1
SHEET
50
0
41
1
51
0
7
standard
71
0
210
0
220
0
230
1
100
AcDbText
0
TEXT
5
B6
100
AcDbEntity
8
TITLEBLOCK
6
CONTINUOUS
62
256
370
20
100
AcDbText
10
168
20
-191.5
30
0
40
3
1
Weight
50
0
41
1
51
0
7
standard
71
0
210
0
220
0
230
1
100
AcDbText
0
TEXT
5
B7
100
AcDbEntity
8
TITLEBLOCK
6
CONTINUOUS
62
256
370
20
100
AcDbText
10
186
20
-191.5
30
0
40
3
1
Drawing number
50
0
41
1
51
0
7
standard
71
0
210
0
220
0
230
1
100
AcDbText
0
TEXT
5
B8
100
AcDbEntity
8
TITLEBLOCK
6
CONTINUOUS
62
256
370
20
100
AcDbText
10
186.2
20
-165.8
30
0
40
3
1
Subtitle
50
0
41
1
51
0
7
standard
71
0
210
0
220
0
230
1
100
AcDbText
0
TEXT
5
B9
100
AcDbEntity
8
TITLEBLOCK
6
CONTINUOUS
62
256
370
20
100
AcDbText
10
148
20
-168.6
30
0
40
3
1
FC-Date
50
0
41
1
51
0
7
standard
71
0
210
0
220
0
230
1
100
AcDbText
0
TEXT
5
BA
100
AcDbEntity
8
TITLEBLOCK
6
CONTINUOUS
62
256
370
30
100
AcDbText
10
186.2
20
-159.3
30
0
40
4.2
1
FC-Title
50
0
41
1
51
0
7
standard
71
0
210
0
220
0
230
1
100
AcDbText
0
TEXT
5
BB
100
AcDbEntity
8
TITLEBLOCK
6
CONTINUOUS
62
256
370
20
100
AcDbText
10
149.7
20
-191.5
30
0
40
3
1
FC-SC
50
0
41
1
51
0
7
standard
71
0
210
0
220
0
230
1
100
AcDbText
0
TEXT
5
BC
100
AcDbEntity
8
TITLEBLOCK
6
CONTINUOUS
62
256
370
20
100
AcDbText
10
248.5
20
-191.5
30
0
40
3
1
FC-SH
50
0
41
1
51
0
7
standard
71
0
210
0
220
0
230
1
100
AcDbText
999
$entities
0
ENDSEC
0
SECTION
2
OBJECTS
0
DICTIONARY
5
C
330
0
100
AcDbDictionary
281
1
3
ACAD_GROUP
350
D
0
DICTIONARY
5
D
330
C
100
AcDbDictionary
281
1
0
ENDSEC
0
EOF
