ISO-10303-21;
HEADER;
/* Generated by software containing HOOPS Exchange Step
 * from HOOPS Exchange, Inc. (www.tiangong.cloud) 
 */

FILE_DESCRIPTION(
/* description */ ('Unknown'),
/* implementation_level */ '2;1');

FILE_NAME(
/* name */ 'QC_T604-2022B\X2\578B53616263\X0\',
/* time_stamp */ '2026-07-03T09:00:46+08:00',
/* author */ ('Unknown'),
/* organization */ ('Unknown'),
/* preprocessor_version */ 'ST-DEVELOPER v19.4',
/* originating_system */ 'TianGong',
/* authorisation */ 'Unknown');

FILE_SCHEMA (('AUTOMOTIVE_DESIGN {1 0 10303 214 3 1 1}'));
ENDSEC;

DATA;
#10=PROPERTY_DEFINITION_REPRESENTATION(#14,#12);
#11=PROPERTY_DEFINITION_REPRESENTATION(#15,#13);
#12=REPRESENTATION('',(#16),#263);
#13=REPRESENTATION('',(#17),#263);
#14=PROPERTY_DEFINITION('pmi validation property','',#268);
#15=PROPERTY_DEFINITION('pmi validation property','',#268);
#16=VALUE_REPRESENTATION_ITEM('number of annotations',COUNT_MEASURE(0.));
#17=VALUE_REPRESENTATION_ITEM('number of views',COUNT_MEASURE(0.));
#18=SHAPE_REPRESENTATION_RELATIONSHIP('','',#154,#19);
#19=ADVANCED_BREP_SHAPE_REPRESENTATION('',(#152),#263);
#20=CYLINDRICAL_SURFACE('',#167,7.);
#21=CYLINDRICAL_SURFACE('',#171,3.);
#22=CYLINDRICAL_SURFACE('',#178,1.25);
#23=TOROIDAL_SURFACE('',#165,5.,2.);
#24=CONICAL_SURFACE('',#162,4.25,0.383972435438752);
#25=CONICAL_SURFACE('',#175,4.25,0.383972435438752);
#26=PLANE('',#159);
#27=PLANE('',#169);
#28=PLANE('',#173);
#29=ORIENTED_EDGE('',*,*,#51,.T.);
#30=ORIENTED_EDGE('',*,*,#52,.T.);
#31=ORIENTED_EDGE('',*,*,#53,.T.);
#32=ORIENTED_EDGE('',*,*,#54,.T.);
#33=ORIENTED_EDGE('',*,*,#55,.T.);
#34=ORIENTED_EDGE('',*,*,#54,.F.);
#35=ORIENTED_EDGE('',*,*,#55,.F.);
#36=ORIENTED_EDGE('',*,*,#56,.T.);
#37=ORIENTED_EDGE('',*,*,#51,.F.);
#38=ORIENTED_EDGE('',*,*,#57,.T.);
#39=ORIENTED_EDGE('',*,*,#56,.F.);
#40=ORIENTED_EDGE('',*,*,#58,.T.);
#41=ORIENTED_EDGE('',*,*,#57,.F.);
#42=ORIENTED_EDGE('',*,*,#59,.T.);
#43=ORIENTED_EDGE('',*,*,#58,.F.);
#44=ORIENTED_EDGE('',*,*,#60,.T.);
#45=ORIENTED_EDGE('',*,*,#59,.F.);
#46=ORIENTED_EDGE('',*,*,#53,.F.);
#47=ORIENTED_EDGE('',*,*,#60,.F.);
#48=ORIENTED_EDGE('',*,*,#61,.T.);
#49=ORIENTED_EDGE('',*,*,#52,.F.);
#50=ORIENTED_EDGE('',*,*,#61,.F.);
#51=EDGE_CURVE('',#62,#62,#73,.T.);
#52=EDGE_CURVE('',#63,#63,#74,.T.);
#53=EDGE_CURVE('',#64,#64,#75,.F.);
#54=EDGE_CURVE('',#65,#65,#76,.T.);
#55=EDGE_CURVE('',#66,#66,#77,.T.);
#56=EDGE_CURVE('',#67,#67,#78,.T.);
#57=EDGE_CURVE('',#68,#68,#79,.T.);
#58=EDGE_CURVE('',#69,#69,#80,.T.);
#59=EDGE_CURVE('',#70,#70,#81,.T.);
#60=EDGE_CURVE('',#71,#71,#82,.T.);
#61=EDGE_CURVE('',#72,#72,#83,.T.);
#62=VERTEX_POINT('',#230);
#63=VERTEX_POINT('',#232);
#64=VERTEX_POINT('',#235);
#65=VERTEX_POINT('',#237);
#66=VERTEX_POINT('',#240);
#67=VERTEX_POINT('',#244);
#68=VERTEX_POINT('',#247);
#69=VERTEX_POINT('',#250);
#70=VERTEX_POINT('',#253);
#71=VERTEX_POINT('',#256);
#72=VERTEX_POINT('',#260);
#73=CIRCLE('',#157,5.43478260869565);
#74=CIRCLE('',#158,1.25);
#75=CIRCLE('',#160,2.22986887082422);
#76=CIRCLE('',#161,4.25);
#77=CIRCLE('',#163,1.39906111045);
#78=CIRCLE('',#166,7.);
#79=CIRCLE('',#168,7.);
#80=CIRCLE('',#170,3.);
#81=CIRCLE('',#172,3.);
#82=CIRCLE('',#174,4.25);
#83=CIRCLE('',#177,1.25);
#84=EDGE_LOOP('',(#29));
#85=EDGE_LOOP('',(#30));
#86=EDGE_LOOP('',(#31));
#87=EDGE_LOOP('',(#32));
#88=EDGE_LOOP('',(#33));
#89=EDGE_LOOP('',(#34));
#90=EDGE_LOOP('',(#35));
#91=EDGE_LOOP('',(#36));
#92=EDGE_LOOP('',(#37));
#93=EDGE_LOOP('',(#38));
#94=EDGE_LOOP('',(#39));
#95=EDGE_LOOP('',(#40));
#96=EDGE_LOOP('',(#41));
#97=EDGE_LOOP('',(#42));
#98=EDGE_LOOP('',(#43));
#99=EDGE_LOOP('',(#44));
#100=EDGE_LOOP('',(#45));
#101=EDGE_LOOP('',(#46));
#102=EDGE_LOOP('',(#47));
#103=EDGE_LOOP('',(#48));
#104=EDGE_LOOP('',(#49));
#105=EDGE_LOOP('',(#50));
#106=FACE_BOUND('',#84,.T.);
#107=FACE_BOUND('',#85,.T.);
#108=FACE_BOUND('',#86,.T.);
#109=FACE_BOUND('',#87,.T.);
#110=FACE_BOUND('',#88,.T.);
#111=FACE_BOUND('',#89,.T.);
#112=FACE_BOUND('',#90,.T.);
#113=FACE_BOUND('',#91,.T.);
#114=FACE_BOUND('',#92,.T.);
#115=FACE_BOUND('',#93,.T.);
#116=FACE_BOUND('',#94,.T.);
#117=FACE_BOUND('',#95,.T.);
#118=FACE_BOUND('',#96,.T.);
#119=FACE_BOUND('',#97,.T.);
#120=FACE_BOUND('',#98,.T.);
#121=FACE_BOUND('',#99,.T.);
#122=FACE_BOUND('',#100,.T.);
#123=FACE_BOUND('',#101,.T.);
#124=FACE_BOUND('',#102,.T.);
#125=FACE_BOUND('',#103,.T.);
#126=FACE_BOUND('',#104,.T.);
#127=FACE_BOUND('',#105,.T.);
#128=SPHERICAL_SURFACE('',#156,25.);
#129=SPHERICAL_SURFACE('',#164,1.50893601474941);
#130=SPHERICAL_SURFACE('',#176,1.25);
#131=ADVANCED_FACE('',(#106,#107),#128,.T.);
#132=ADVANCED_FACE('',(#108,#109),#26,.T.);
#133=ADVANCED_FACE('',(#110,#111),#24,.T.);
#134=ADVANCED_FACE('',(#112),#129,.T.);
#135=ADVANCED_FACE('',(#113,#114),#23,.T.);
#136=ADVANCED_FACE('',(#115,#116),#20,.T.);
#137=ADVANCED_FACE('',(#117,#118),#27,.T.);
#138=ADVANCED_FACE('',(#119,#120),#21,.T.);
#139=ADVANCED_FACE('',(#121,#122),#28,.T.);
#140=ADVANCED_FACE('',(#123,#124),#25,.T.);
#141=ADVANCED_FACE('',(#125),#130,.F.);
#142=ADVANCED_FACE('',(#126,#127),#22,.F.);
#143=CLOSED_SHELL('',(#131,#132,#133,#134,#135,#136,#137,#138,#139,#140,
#141,#142));
#144=STYLED_ITEM('',(#145),#152);
#145=PRESENTATION_STYLE_ASSIGNMENT((#146));
#146=SURFACE_STYLE_USAGE(.BOTH.,#147);
#147=SURFACE_SIDE_STYLE('',(#148));
#148=SURFACE_STYLE_FILL_AREA(#149);
#149=FILL_AREA_STYLE('',(#150));
#150=FILL_AREA_STYLE_COLOUR('',#151);
#151=COLOUR_RGB('',0.506983280181885,0.531564235687256,0.550000011920929);
#152=MANIFOLD_SOLID_BREP('',#143);
#153=SHAPE_DEFINITION_REPRESENTATION(#268,#154);
#154=SHAPE_REPRESENTATION('QC_T604-2022B\X2\578B53616263\X0\',(#155),#263);
#155=AXIS2_PLACEMENT_3D('',#227,#179,#180);
#156=AXIS2_PLACEMENT_3D('',#228,#181,#182);
#157=AXIS2_PLACEMENT_3D('',#229,#183,#184);
#158=AXIS2_PLACEMENT_3D('',#231,#185,#186);
#159=AXIS2_PLACEMENT_3D('',#233,#187,#188);
#160=AXIS2_PLACEMENT_3D('',#234,#189,#190);
#161=AXIS2_PLACEMENT_3D('',#236,#191,#192);
#162=AXIS2_PLACEMENT_3D('',#238,#193,#194);
#163=AXIS2_PLACEMENT_3D('',#239,#195,#196);
#164=AXIS2_PLACEMENT_3D('',#241,#197,#198);
#165=AXIS2_PLACEMENT_3D('',#242,#199,#200);
#166=AXIS2_PLACEMENT_3D('',#243,#201,#202);
#167=AXIS2_PLACEMENT_3D('',#245,#203,#204);
#168=AXIS2_PLACEMENT_3D('',#246,#205,#206);
#169=AXIS2_PLACEMENT_3D('',#248,#207,#208);
#170=AXIS2_PLACEMENT_3D('',#249,#209,#210);
#171=AXIS2_PLACEMENT_3D('',#251,#211,#212);
#172=AXIS2_PLACEMENT_3D('',#252,#213,#214);
#173=AXIS2_PLACEMENT_3D('',#254,#215,#216);
#174=AXIS2_PLACEMENT_3D('',#255,#217,#218);
#175=AXIS2_PLACEMENT_3D('',#257,#219,#220);
#176=AXIS2_PLACEMENT_3D('',#258,#221,#222);
#177=AXIS2_PLACEMENT_3D('',#259,#223,#224);
#178=AXIS2_PLACEMENT_3D('',#261,#225,#226);
#179=DIRECTION('',(0.,0.,1.));
#180=DIRECTION('',(1.,0.,0.));
#181=DIRECTION('',(-1.,0.,0.));
#182=DIRECTION('',(0.,0.,-1.));
#183=DIRECTION('',(-1.,0.,0.));
#184=DIRECTION('',(0.,0.,1.));
#185=DIRECTION('',(1.,0.,-1.53080849893419E-16));
#186=DIRECTION('',(-1.53080849893419E-16,0.,-1.));
#187=DIRECTION('',(-1.,0.,-2.30989207572628E-17));
#188=DIRECTION('',(-2.30989207572628E-17,0.,1.));
#189=DIRECTION('',(-1.,0.,-2.30989207572628E-17));
#190=DIRECTION('',(-2.30989207572628E-17,0.,1.));
#191=DIRECTION('',(-1.,0.,-2.30989207572628E-17));
#192=DIRECTION('',(-2.30989207572628E-17,0.,1.));
#193=DIRECTION('',(-1.,0.,-2.30989207572628E-17));
#194=DIRECTION('',(-2.30989207572628E-17,0.,1.));
#195=DIRECTION('',(-1.,0.,-2.30989207572628E-17));
#196=DIRECTION('',(-2.30989207572628E-17,0.,1.));
#197=DIRECTION('',(-1.,0.,-2.30989207572628E-17));
#198=DIRECTION('',(-2.30989207572628E-17,0.,1.));
#199=DIRECTION('',(-1.,0.,0.));
#200=DIRECTION('',(0.,0.,1.));
#201=DIRECTION('',(-1.,0.,0.));
#202=DIRECTION('',(0.,0.,1.));
#203=DIRECTION('',(-1.,0.,0.));
#204=DIRECTION('',(0.,0.,1.));
#205=DIRECTION('',(-1.,0.,0.));
#206=DIRECTION('',(0.,0.,1.));
#207=DIRECTION('',(1.,0.,0.));
#208=DIRECTION('',(0.,0.,-1.));
#209=DIRECTION('',(-1.,0.,0.));
#210=DIRECTION('',(0.,0.,1.));
#211=DIRECTION('',(-1.,0.,0.));
#212=DIRECTION('',(0.,0.,1.));
#213=DIRECTION('',(-1.,0.,0.));
#214=DIRECTION('',(0.,0.,1.));
#215=DIRECTION('',(-1.,0.,-2.30989207572628E-17));
#216=DIRECTION('',(-2.30989207572628E-17,0.,1.));
#217=DIRECTION('',(-1.,0.,-2.30989207572628E-17));
#218=DIRECTION('',(-2.30989207572628E-17,0.,1.));
#219=DIRECTION('',(-1.,0.,-2.30989207572628E-17));
#220=DIRECTION('',(-2.30989207572628E-17,0.,1.));
#221=DIRECTION('',(-1.,0.,1.53080849893419E-16));
#222=DIRECTION('',(-1.53080849893419E-16,0.,-1.));
#223=DIRECTION('',(-1.,0.,1.53080849893419E-16));
#224=DIRECTION('',(1.53080849893419E-16,0.,1.));
#225=DIRECTION('',(-1.,0.,1.53080849893419E-16));
#226=DIRECTION('',(1.53080849893419E-16,0.,1.));
#227=CARTESIAN_POINT('',(0.,0.,0.));
#228=CARTESIAN_POINT('',(21.,0.,0.));
#229=CARTESIAN_POINT('',(-3.40211339200397,0.,0.));
#230=CARTESIAN_POINT('',(-3.40211339200397,0.,5.43478260869565));
#231=CARTESIAN_POINT('',(-3.96873044429772,0.,3.05683022770569E-15));
#232=CARTESIAN_POINT('',(-3.96873044429772,0.,-1.24999999999999));
#233=CARTESIAN_POINT('',(7.,0.,3.));
#234=CARTESIAN_POINT('',(7.,0.,1.15494603786314E-16));
#235=CARTESIAN_POINT('',(7.,0.,2.22986887082422));
#236=CARTESIAN_POINT('',(7.,0.,-4.81482486096809E-32));
#237=CARTESIAN_POINT('',(7.,0.,4.25));
#238=CARTESIAN_POINT('',(7.,0.,-4.81482486096809E-32));
#239=CARTESIAN_POINT('',(14.0563213654185,0.,1.62993408057581E-16));
#240=CARTESIAN_POINT('',(14.0563213654185,0.,1.39906111045));
#241=CARTESIAN_POINT('',(13.4910639852506,0.,0.));
#242=CARTESIAN_POINT('',(-1.44994432064365,0.,0.));
#243=CARTESIAN_POINT('',(-1.44994432064365,0.,0.));
#244=CARTESIAN_POINT('',(-1.44994432064365,0.,7.));
#245=CARTESIAN_POINT('',(2.,0.,0.));
#246=CARTESIAN_POINT('',(0.,0.,0.));
#247=CARTESIAN_POINT('',(0.,0.,7.));
#248=CARTESIAN_POINT('',(0.,0.,7.));
#249=CARTESIAN_POINT('',(0.,0.,0.));
#250=CARTESIAN_POINT('',(0.,0.,3.));
#251=CARTESIAN_POINT('',(2.,0.,0.));
#252=CARTESIAN_POINT('',(2.,0.,0.));
#253=CARTESIAN_POINT('',(2.,0.,3.));
#254=CARTESIAN_POINT('',(2.,0.,3.));
#255=CARTESIAN_POINT('',(2.,0.,-4.81482486096809E-32));
#256=CARTESIAN_POINT('',(2.,0.,4.25));
#257=CARTESIAN_POINT('',(2.,0.,-4.81482486096809E-32));
#258=CARTESIAN_POINT('',(9.75,0.,1.84455193265997E-15));
#259=CARTESIAN_POINT('',(9.75,0.,9.56755311833869E-16));
#260=CARTESIAN_POINT('',(9.75,0.,1.25));
#261=CARTESIAN_POINT('',(-4.,0.,3.06161699786838E-15));
#262=MECHANICAL_DESIGN_GEOMETRIC_PRESENTATION_REPRESENTATION('',(#144),
#263);
#263=(
GEOMETRIC_REPRESENTATION_CONTEXT(3)
GLOBAL_UNCERTAINTY_ASSIGNED_CONTEXT((#264))
GLOBAL_UNIT_ASSIGNED_CONTEXT((#267,#266,#265))
REPRESENTATION_CONTEXT('QC_T604-2022B\X2\578B53616263\X0\',
'TOP_LEVEL_ASSEMBLY_PART')
);
#264=UNCERTAINTY_MEASURE_WITH_UNIT(LENGTH_MEASURE(0.005),#267,
'DISTANCE_ACCURACY_VALUE','Maximum Tolerance applied to model');
#265=(
NAMED_UNIT(*)
SI_UNIT($,.STERADIAN.)
SOLID_ANGLE_UNIT()
);
#266=(
NAMED_UNIT(*)
PLANE_ANGLE_UNIT()
SI_UNIT($,.RADIAN.)
);
#267=(
LENGTH_UNIT()
NAMED_UNIT(*)
SI_UNIT(.MILLI.,.METRE.)
);
#268=PRODUCT_DEFINITION_SHAPE('','',#269);
#269=PRODUCT_DEFINITION('','',#271,#270);
#270=PRODUCT_DEFINITION_CONTEXT('',#277,'design');
#271=PRODUCT_DEFINITION_FORMATION_WITH_SPECIFIED_SOURCE('','',#273,
 .NOT_KNOWN.);
#272=PRODUCT_RELATED_PRODUCT_CATEGORY('','',(#273));
#273=PRODUCT('QC_T604-2022B\X2\578B53616263\X0\',
'QC_T604-2022B\X2\578B53616263\X0\','QC_T604-2022B\X2\578B53616263\X0\',
(#275));
#274=PRODUCT_CATEGORY('','');
#275=PRODUCT_CONTEXT('',#277,'mechanical');
#276=APPLICATION_PROTOCOL_DEFINITION('international standard',
'automotive_design',2010,#277);
#277=APPLICATION_CONTEXT(
'core data for automotive mechanical design processes');
ENDSEC;
END-ISO-10303-21;
