ISO-10303-21;
HEADER;
/* Generated by software containing HOOPS Exchange Step
 * from HOOPS Exchange, Inc. (www.tiangong.cloud) 
 */

FILE_DESCRIPTION(
/* description */ ('Unknown'),
/* implementation_level */ '2;1');

FILE_NAME(
/* name */ 'H\X2\578B53616263\X0\',
/* time_stamp */ '2026-07-03T09:06:07+08:00',
/* author */ ('Unknown'),
/* organization */ ('Unknown'),
/* preprocessor_version */ 'ST-DEVELOPER v19.4',
/* originating_system */ 'TianGong',
/* authorisation */ 'Unknown');

FILE_SCHEMA (('AUTOMOTIVE_DESIGN {1 0 10303 214 3 1 1}'));
ENDSEC;

DATA;
#10=PROPERTY_DEFINITION_REPRESENTATION(#14,#12);
#11=PROPERTY_DEFINITION_REPRESENTATION(#15,#13);
#12=REPRESENTATION('',(#16),#223);
#13=REPRESENTATION('',(#17),#223);
#14=PROPERTY_DEFINITION('pmi validation property','',#228);
#15=PROPERTY_DEFINITION('pmi validation property','',#228);
#16=VALUE_REPRESENTATION_ITEM('number of annotations',COUNT_MEASURE(0.));
#17=VALUE_REPRESENTATION_ITEM('number of views',COUNT_MEASURE(0.));
#18=SHAPE_REPRESENTATION_RELATIONSHIP('','',#132,#19);
#19=ADVANCED_BREP_SHAPE_REPRESENTATION('',(#130),#223);
#20=PLANE('',#146);
#21=PLANE('',#150);
#22=CONICAL_SURFACE('',#144,0.866025403784438,0.523598775598299);
#23=CYLINDRICAL_SURFACE('',#139,3.);
#24=CYLINDRICAL_SURFACE('',#148,4.85);
#25=CYLINDRICAL_SURFACE('',#152,11.);
#26=SPHERICAL_SURFACE('',#137,25.);
#27=SPHERICAL_SURFACE('',#141,3.);
#28=SPHERICAL_SURFACE('',#142,1.);
#29=ORIENTED_EDGE('',*,*,#47,.F.);
#30=ORIENTED_EDGE('',*,*,#48,.T.);
#31=ORIENTED_EDGE('',*,*,#49,.F.);
#32=ORIENTED_EDGE('',*,*,#47,.T.);
#33=ORIENTED_EDGE('',*,*,#50,.F.);
#34=ORIENTED_EDGE('',*,*,#49,.T.);
#35=ORIENTED_EDGE('',*,*,#50,.T.);
#36=ORIENTED_EDGE('',*,*,#51,.F.);
#37=ORIENTED_EDGE('',*,*,#52,.F.);
#38=ORIENTED_EDGE('',*,*,#51,.T.);
#39=ORIENTED_EDGE('',*,*,#53,.F.);
#40=ORIENTED_EDGE('',*,*,#52,.T.);
#41=ORIENTED_EDGE('',*,*,#54,.F.);
#42=ORIENTED_EDGE('',*,*,#53,.T.);
#43=ORIENTED_EDGE('',*,*,#55,.F.);
#44=ORIENTED_EDGE('',*,*,#54,.T.);
#45=ORIENTED_EDGE('',*,*,#48,.F.);
#46=ORIENTED_EDGE('',*,*,#55,.T.);
#47=EDGE_CURVE('',#56,#56,#65,.T.);
#48=EDGE_CURVE('',#57,#57,#66,.T.);
#49=EDGE_CURVE('',#58,#58,#67,.T.);
#50=EDGE_CURVE('',#59,#59,#68,.T.);
#51=EDGE_CURVE('',#60,#60,#69,.T.);
#52=EDGE_CURVE('',#61,#61,#70,.T.);
#53=EDGE_CURVE('',#62,#62,#71,.T.);
#54=EDGE_CURVE('',#63,#63,#72,.T.);
#55=EDGE_CURVE('',#64,#64,#73,.T.);
#56=VERTEX_POINT('',#196);
#57=VERTEX_POINT('',#198);
#58=VERTEX_POINT('',#201);
#59=VERTEX_POINT('',#204);
#60=VERTEX_POINT('',#208);
#61=VERTEX_POINT('',#211);
#62=VERTEX_POINT('',#214);
#63=VERTEX_POINT('',#217);
#64=VERTEX_POINT('',#220);
#65=CIRCLE('',#135,9.78260869565217);
#66=CIRCLE('',#136,11.);
#67=CIRCLE('',#138,3.);
#68=CIRCLE('',#140,3.);
#69=CIRCLE('',#143,0.866025403784438);
#70=CIRCLE('',#145,6.5);
#71=CIRCLE('',#147,4.85);
#72=CIRCLE('',#149,4.85);
#73=CIRCLE('',#151,11.);
#74=EDGE_LOOP('',(#29));
#75=EDGE_LOOP('',(#30));
#76=EDGE_LOOP('',(#31));
#77=EDGE_LOOP('',(#32));
#78=EDGE_LOOP('',(#33));
#79=EDGE_LOOP('',(#34));
#80=EDGE_LOOP('',(#35));
#81=EDGE_LOOP('',(#36));
#82=EDGE_LOOP('',(#37));
#83=EDGE_LOOP('',(#38));
#84=EDGE_LOOP('',(#39));
#85=EDGE_LOOP('',(#40));
#86=EDGE_LOOP('',(#41));
#87=EDGE_LOOP('',(#42));
#88=EDGE_LOOP('',(#43));
#89=EDGE_LOOP('',(#44));
#90=EDGE_LOOP('',(#45));
#91=EDGE_LOOP('',(#46));
#92=FACE_BOUND('',#74,.T.);
#93=FACE_BOUND('',#75,.T.);
#94=FACE_BOUND('',#76,.T.);
#95=FACE_BOUND('',#77,.T.);
#96=FACE_BOUND('',#78,.T.);
#97=FACE_BOUND('',#79,.T.);
#98=FACE_BOUND('',#80,.T.);
#99=FACE_BOUND('',#81,.T.);
#100=FACE_BOUND('',#82,.T.);
#101=FACE_BOUND('',#83,.T.);
#102=FACE_BOUND('',#84,.T.);
#103=FACE_BOUND('',#85,.T.);
#104=FACE_BOUND('',#86,.T.);
#105=FACE_BOUND('',#87,.T.);
#106=FACE_BOUND('',#88,.T.);
#107=FACE_BOUND('',#89,.T.);
#108=FACE_BOUND('',#90,.T.);
#109=FACE_BOUND('',#91,.T.);
#110=TOROIDAL_SURFACE('',#134,9.,2.);
#111=ADVANCED_FACE('',(#92,#93),#110,.T.);
#112=ADVANCED_FACE('',(#94,#95),#26,.T.);
#113=ADVANCED_FACE('',(#96,#97),#23,.F.);
#114=ADVANCED_FACE('',(#98),#27,.F.);
#115=ADVANCED_FACE('',(#99),#28,.T.);
#116=ADVANCED_FACE('',(#100,#101),#22,.T.);
#117=ADVANCED_FACE('',(#102,#103),#20,.F.);
#118=ADVANCED_FACE('',(#104,#105),#24,.T.);
#119=ADVANCED_FACE('',(#106,#107),#21,.F.);
#120=ADVANCED_FACE('',(#108,#109),#25,.T.);
#121=CLOSED_SHELL('',(#111,#112,#113,#114,#115,#116,#117,#118,#119,#120));
#122=STYLED_ITEM('',(#123),#130);
#123=PRESENTATION_STYLE_ASSIGNMENT((#124));
#124=SURFACE_STYLE_USAGE(.BOTH.,#125);
#125=SURFACE_SIDE_STYLE('',(#126));
#126=SURFACE_STYLE_FILL_AREA(#127);
#127=FILL_AREA_STYLE('',(#128));
#128=FILL_AREA_STYLE_COLOUR('',#129);
#129=COLOUR_RGB('',0.506983280181885,0.531564235687256,0.550000011920929);
#130=MANIFOLD_SOLID_BREP('',#121);
#131=SHAPE_DEFINITION_REPRESENTATION(#228,#132);
#132=SHAPE_REPRESENTATION('H\X2\578B53616263\X0\',(#133),#223);
#133=AXIS2_PLACEMENT_3D('',#193,#153,#154);
#134=AXIS2_PLACEMENT_3D('',#194,#155,#156);
#135=AXIS2_PLACEMENT_3D('',#195,#157,#158);
#136=AXIS2_PLACEMENT_3D('',#197,#159,#160);
#137=AXIS2_PLACEMENT_3D('',#199,#161,#162);
#138=AXIS2_PLACEMENT_3D('',#200,#163,#164);
#139=AXIS2_PLACEMENT_3D('',#202,#165,#166);
#140=AXIS2_PLACEMENT_3D('',#203,#167,#168);
#141=AXIS2_PLACEMENT_3D('',#205,#169,#170);
#142=AXIS2_PLACEMENT_3D('',#206,#171,#172);
#143=AXIS2_PLACEMENT_3D('',#207,#173,#174);
#144=AXIS2_PLACEMENT_3D('',#209,#175,#176);
#145=AXIS2_PLACEMENT_3D('',#210,#177,#178);
#146=AXIS2_PLACEMENT_3D('',#212,#179,#180);
#147=AXIS2_PLACEMENT_3D('',#213,#181,#182);
#148=AXIS2_PLACEMENT_3D('',#215,#183,#184);
#149=AXIS2_PLACEMENT_3D('',#216,#185,#186);
#150=AXIS2_PLACEMENT_3D('',#218,#187,#188);
#151=AXIS2_PLACEMENT_3D('',#219,#189,#190);
#152=AXIS2_PLACEMENT_3D('',#221,#191,#192);
#153=DIRECTION('',(0.,0.,1.));
#154=DIRECTION('',(1.,0.,0.));
#155=DIRECTION('',(-1.,0.,-5.1026949964473E-18));
#156=DIRECTION('',(-5.1026949964473E-18,0.,1.));
#157=DIRECTION('',(-1.,0.,-5.1026949964473E-18));
#158=DIRECTION('',(-5.1026949964473E-18,0.,1.));
#159=DIRECTION('',(-1.,0.,-5.1026949964473E-18));
#160=DIRECTION('',(-5.1026949964473E-18,0.,1.));
#161=DIRECTION('',(-1.,0.,-5.1026949964473E-18));
#162=DIRECTION('',(-5.1026949964473E-18,0.,1.));
#163=DIRECTION('',(-1.,0.,-5.1026949964473E-18));
#164=DIRECTION('',(-5.1026949964473E-18,0.,1.));
#165=DIRECTION('',(-1.,0.,-5.1026949964473E-18));
#166=DIRECTION('',(-5.1026949964473E-18,0.,1.));
#167=DIRECTION('',(-1.,0.,-5.1026949964473E-18));
#168=DIRECTION('',(-5.1026949964473E-18,0.,1.));
#169=DIRECTION('',(-1.,0.,-5.1026949964473E-18));
#170=DIRECTION('',(-5.1026949964473E-18,0.,1.));
#171=DIRECTION('',(-1.,0.,-5.1026949964473E-18));
#172=DIRECTION('',(5.1026949964473E-18,0.,-1.));
#173=DIRECTION('',(-1.,0.,-5.1026949964473E-18));
#174=DIRECTION('',(-5.1026949964473E-18,0.,1.));
#175=DIRECTION('',(-1.,0.,-5.1026949964473E-18));
#176=DIRECTION('',(-5.1026949964473E-18,0.,1.));
#177=DIRECTION('',(-1.,0.,-5.1026949964473E-18));
#178=DIRECTION('',(-5.1026949964473E-18,0.,1.));
#179=DIRECTION('',(1.,0.,5.1026949964473E-18));
#180=DIRECTION('',(5.1026949964473E-18,0.,-1.));
#181=DIRECTION('',(-1.,0.,-5.1026949964473E-18));
#182=DIRECTION('',(-5.1026949964473E-18,0.,1.));
#183=DIRECTION('',(-1.,0.,-5.1026949964473E-18));
#184=DIRECTION('',(-5.1026949964473E-18,0.,1.));
#185=DIRECTION('',(-1.,0.,-5.1026949964473E-18));
#186=DIRECTION('',(-5.1026949964473E-18,0.,1.));
#187=DIRECTION('',(-1.,0.,-5.1026949964473E-18));
#188=DIRECTION('',(-5.1026949964473E-18,0.,1.));
#189=DIRECTION('',(-1.,0.,-5.1026949964473E-18));
#190=DIRECTION('',(-5.1026949964473E-18,0.,1.));
#191=DIRECTION('',(-1.,0.,-5.1026949964473E-18));
#192=DIRECTION('',(-5.1026949964473E-18,0.,1.));
#193=CARTESIAN_POINT('',(0.,0.,0.));
#194=CARTESIAN_POINT('',(-0.166010488516719,0.,0.));
#195=CARTESIAN_POINT('',(-2.00653313969209,0.,1.01720533736767E-17));
#196=CARTESIAN_POINT('',(-2.00653313969209,0.,9.78260869565217));
#197=CARTESIAN_POINT('',(-0.166010488516719,0.,1.95636790966771E-17));
#198=CARTESIAN_POINT('',(-0.166010488516719,0.,11.));
#199=CARTESIAN_POINT('',(21.,0.,0.));
#200=CARTESIAN_POINT('',(-3.81934729198171,0.,9.21815669299565E-19));
#201=CARTESIAN_POINT('',(-3.81934729198171,0.,3.));
#202=CARTESIAN_POINT('',(-3.99999999999999,0.,0.));
#203=CARTESIAN_POINT('',(20.,0.,1.22464679914735E-16));
#204=CARTESIAN_POINT('',(20.,0.,3.));
#205=CARTESIAN_POINT('',(20.,0.,0.));
#206=CARTESIAN_POINT('',(28.,0.,0.));
#207=CARTESIAN_POINT('',(28.5,0.,1.65837587384537E-16));
#208=CARTESIAN_POINT('',(28.5,0.,0.866025403784438));
#209=CARTESIAN_POINT('',(28.5,0.,1.65837587384537E-16));
#210=CARTESIAN_POINT('',(18.7416697508023,0.,1.16043804448276E-16));
#211=CARTESIAN_POINT('',(18.7416697508023,0.,6.5));
#212=CARTESIAN_POINT('',(18.7416697508023,0.,4.85));
#213=CARTESIAN_POINT('',(18.7416697508023,0.,1.16043804448276E-16));
#214=CARTESIAN_POINT('',(18.7416697508023,0.,4.85));
#215=CARTESIAN_POINT('',(-3.99999999999999,0.,0.));
#216=CARTESIAN_POINT('',(0.,0.,2.04107799857892E-17));
#217=CARTESIAN_POINT('',(-2.47480707327694E-17,0.,4.85));
#218=CARTESIAN_POINT('',(1.28396170700335E-18,0.,4.85));
#219=CARTESIAN_POINT('',(0.,0.,2.04107799857892E-17));
#220=CARTESIAN_POINT('',(-5.61296449609204E-17,0.,11.));
#221=CARTESIAN_POINT('',(-3.99999999999999,0.,0.));
#222=MECHANICAL_DESIGN_GEOMETRIC_PRESENTATION_REPRESENTATION('',(#122),
#223);
#223=(
GEOMETRIC_REPRESENTATION_CONTEXT(3)
GLOBAL_UNCERTAINTY_ASSIGNED_CONTEXT((#224))
GLOBAL_UNIT_ASSIGNED_CONTEXT((#227,#226,#225))
REPRESENTATION_CONTEXT('H\X2\578B53616263\X0\',
'TOP_LEVEL_ASSEMBLY_PART')
);
#224=UNCERTAINTY_MEASURE_WITH_UNIT(LENGTH_MEASURE(0.005),#227,
'DISTANCE_ACCURACY_VALUE','Maximum Tolerance applied to model');
#225=(
NAMED_UNIT(*)
SI_UNIT($,.STERADIAN.)
SOLID_ANGLE_UNIT()
);
#226=(
NAMED_UNIT(*)
PLANE_ANGLE_UNIT()
SI_UNIT($,.RADIAN.)
);
#227=(
LENGTH_UNIT()
NAMED_UNIT(*)
SI_UNIT(.MILLI.,.METRE.)
);
#228=PRODUCT_DEFINITION_SHAPE('','',#229);
#229=PRODUCT_DEFINITION('','',#231,#230);
#230=PRODUCT_DEFINITION_CONTEXT('',#237,'design');
#231=PRODUCT_DEFINITION_FORMATION_WITH_SPECIFIED_SOURCE('','',#233,
 .NOT_KNOWN.);
#232=PRODUCT_RELATED_PRODUCT_CATEGORY('','',(#233));
#233=PRODUCT('H\X2\578B53616263\X0\','H\X2\578B53616263\X0\',
'H\X2\578B53616263\X0\',(#235));
#234=PRODUCT_CATEGORY('','');
#235=PRODUCT_CONTEXT('',#237,'mechanical');
#236=APPLICATION_PROTOCOL_DEFINITION('international standard',
'automotive_design',2010,#237);
#237=APPLICATION_CONTEXT(
'core data for automotive mechanical design processes');
ENDSEC;
END-ISO-10303-21;
