DBRep_DrawableShape

CASCADE Topology V1, (c) Matra-Datavision
Locations 2
1
              1               0               0               0 
              0               1               0               0 
              0               0               1               0 
1
              1               0               0               0 
              0               1               0               0 
              0               0               1               0 
Curve2ds 24
1 0 0 0 1 
1 6539.0750965993975 1.2935e-13 1.2e-16 1 
1 0 0 1 0 
1 930.57949835178874 0 0 1 
1 0 0 -1.2e-16 1 
1 0 8430 1 0 
1 0 0 1 0 
1 7642.4530155618904 2.28e-15 0 1 
1 0 0 1.7e-16 1 
1 5.6599999999999997e-15 8430 1 0 
1 0 0 1 0 
1 7642.4530155618895 -2.28e-15 0 1 
1 0 0 9.9999999999999998e-17 1 
1 -2.4998999999999998e-13 8430 1 0 
1 0 0 1 0 
1 930.57949835178988 0 0 1 
1 0 0 -1.2e-16 1 
1 -0 8430 1 0 
1 0 0 1 0 
1 6539.0750965993966 -1.2935e-13 0 1 
1 -0 0 1.7e-16 1 
1 -8.8357000000000004e-13 8430 1 0 
1 -0 0 1 -0 
1 -2.4998999999999998e-13 8430 1 -0 
Curves 18
1 -300.00000000000136 8130 1400 0 -1 0 
1 -300.00000000000136 8130 1400 -1 0 0 
1 -1230.5794983517901 8130 1400 0 -1 0 
1 -300.00000000000136 -300 1400 -1 0 0 
1 -1230.5794983517901 8130 1400 0.84339144581288572 1.2e-16 0.537299608346824 
1 5215 8130.0000000000009 5506.2870120704065 9.9999999999999998e-17 -1 6.0000000000000001e-17 
1 -1230.5794983517892 -300 1400.0000000000005 0.84339144581288572 1.2e-16 0.537299608346824 
1 5214.9999999999991 8130.0000000000009 5506.2870120704056 0.84339144581288572 -1.2e-16 -0.53729960834682378 
1 11660.57949835179 8130 1400 -9.9999999999999998e-17 -1 6.0000000000000001e-17 
1 5214.9999999999982 -299.99999999999909 5506.2870120704065 0.84339144581288572 -1.2e-16 -0.53729960834682378 
1 11660.57949835179 8130 1400 -1 0 9.7999999999999995e-16 
1 10730 8130 1400.0000000000009 -0 -1 0 
1 11660.57949835179 -300 1400 -1 0 9.7999999999999995e-16 
1 10730 8130 1400.0000000000009 -0.84339144581288572 1.2e-16 0.53729960834682378 
1 5214.9999999999991 8130.0000000000009 4913.4424883533266 -9.9999999999999998e-17 -1 6.0000000000000001e-17 
1 10730 -300 1400.0000000000014 -0.84339144581288572 1.2e-16 0.53729960834682378 
1 5214.9999999999991 8130.0000000000009 4913.4424883533266 -0.84339144581288572 -1.2e-16 -0.537299608346824 
1 5215 -299.99999999999909 4913.4424883533275 -0.84339144581288572 -1.2e-16 -0.537299608346824 
Polygon3D 0
PolygonOnTriangulations 0
Surfaces 8
1 -300.00000000000136 8130 1400 0 0 1 -1 0 0 0 -1 0 
1 5214.9999999999991 8130.0000000000009 4913.4424883533266 -0.537299608346824 0 0.84339144581288572 -0.84339144581288572 -1.2e-16 -0.537299608346824 1.0120697349754627e-16 -1 6.4475953001618867e-17 
1 -1230.5794983517901 8130 1400 0.537299608346824 0 -0.84339144581288572 0.84339144581288572 1.2e-16 0.537299608346824 1.0120697349754627e-16 -1 6.4475953001618867e-17 
1 5214.9999999999991 8130.0000000000009 5506.2870120704056 -0.53729960834682378 -0 -0.84339144581288572 0.84339144581288572 -1.2e-16 -0.53729960834682378 -1.0120697349754629e-16 -1 6.4475953001618854e-17 
1 11660.57949835179 8130 1400 9.7999999999999995e-16 0 1 -1 0 9.7999999999999995e-16 0 -1 0 
1 10730 8130 1400.0000000000009 0.53729960834682378 0 0.84339144581288572 -0.84339144581288572 1.2e-16 0.53729960834682378 -1.0120697349754629e-16 -1 6.4475953001618854e-17 
1 5215 8130.0000000000036 3198.450991682691 0 1 -2.2999999999999999e-16 0 2.2999999999999999e-16 1 1 -0 0 
1 5215 -299.99999999999966 3198.450991682691 0 1 -2.2e-16 0 2.2e-16 1 1 -0 0 
Triangulations 0

TShapes 49
Ve
1.01e-07
-300.000000000001 8130 1400
0 0

0101101
*
Ve
1.01e-07
-300 -299.999999999999 1400
0 0

0101101
*
Ed
 1e-07 1 1 0
1  1 0 0 8430
2  1 1 0 0 8430
2  2 2 0 0 8430
0

0101000
+49 0 -48 0 *
Ve
1.01e-07
-1230.57949835179 8130 1400
0 0

0101101
*
Ed
 1e-07 1 1 0
1  2 0 0 930.579498351789
2  3 1 0 0 930.579498351789
0

0101000
+49 0 -46 0 *
Ve
1.01e-07
-1230.57949835179 -300 1400
0 0

0101101
*
Ed
 1e-07 1 1 0
1  3 0 0 8430
2  4 1 0 0 8430
2  5 3 0 0 8430
0

0101000
+46 0 -44 0 *
Ed
 1e-07 1 1 0
1  4 0 0 930.579498351789
2  6 1 0 0 930.579498351789
0

0101000
+48 0 -44 0 *
Wi

0101100
-47 0 +45 0 +43 0 -42 0 *
Fa
0  1e-07 1 0

0101000
+41 0 *
Ve
1.01e-07
5215 8130 5506.28701207041
0 0

0101101
*
Ed
 1e-07 1 1 0
1  5 0 0 7642.45301556189
2  7 3 0 0 7642.45301556189
0

0101000
+46 0 -39 0 *
Ve
1.01e-07
5215 -299.999999999999 5506.28701207041
0 0

0101101
*
Ed
 1e-07 1 1 0
1  6 0 0 8430
2  8 3 0 0 8430
2  9 4 0 0 8430
0

0101000
+39 0 -37 0 *
Ed
 1e-07 1 1 0
1  7 0 0 7642.45301556189
2  10 3 0 0 7642.45301556189
0

0101000
+44 0 -37 0 *
Wi

0101100
-43 0 +38 0 +36 0 -35 0 *
Fa
0  1e-07 3 0

0101000
+34 0 *
Ve
1.01e-07
11660.5794983518 8130 1400
0 0

0101101
*
Ed
 1e-07 1 1 0
1  8 0 0 7642.45301556189
2  11 4 0 0 7642.45301556189
0

0101000
+39 0 -32 0 *
Ve
1.01e-07
11660.5794983518 -300 1400
0 0

0101101
*
Ed
 1e-07 1 1 0
1  9 0 0 8430
2  12 4 0 0 8430
2  13 5 0 0 8430
0

0101000
+32 0 -30 0 *
Ed
 1e-07 1 1 0
1  10 0 0 7642.45301556189
2  14 4 0 0 7642.45301556189
0

0101000
+37 0 -30 0 *
Wi

0101100
-36 0 +31 0 +29 0 -28 0 *
Fa
0  1e-07 4 0

0101000
+27 0 *
Ve
1.01e-07
10730 8130 1400
0 0

0101101
*
Ed
 1e-07 1 1 0
1  11 0 0 930.57949835179
2  15 5 0 0 930.57949835179
0

0101000
+32 0 -25 0 *
Ve
1.01e-07
10730 -300 1400
0 0

0101101
*
Ed
 1e-07 1 1 0
1  12 0 0 8430
2  16 5 0 0 8430
2  17 6 0 0 8430
0

0101000
+25 0 -23 0 *
Ed
 1e-07 1 1 0
1  13 0 0 930.57949835179
2  18 5 0 0 930.57949835179
0

0101000
+30 0 -23 0 *
Wi

0101100
-29 0 +24 0 +22 0 -21 0 *
Fa
0  1e-07 5 0

0101000
+20 0 *
Ve
1.01e-07
5215 8130 4913.44248835333
0 0

0101101
*
Ed
 1e-07 1 1 0
1  14 0 0 6539.0750965994
2  19 6 0 0 6539.0750965994
0

0101000
+25 0 -18 0 *
Ve
1.01e-07
5215 -299.999999999999 4913.44248835333
0 0

0101101
*
Ed
 1e-07 1 1 0
1  15 0 0 8430
2  20 6 0 0 8430
2  21 2 0 0 8430
0

0101000
+18 0 -16 0 *
Ed
 1e-07 1 1 0
1  16 0 0 6539.0750965994
2  22 6 0 0 6539.0750965994
0

0101000
+23 0 -16 0 *
Wi

0101100
-22 0 +17 0 +15 0 -14 0 *
Fa
0  1e-07 6 0

0101000
+13 0 *
Ed
 1e-07 1 1 0
1  17 0 0 6539.0750965994
2  23 2 0 0 6539.0750965994
0

0101000
+18 0 -49 0 *
Ed
 1e-07 1 1 0
1  18 0 0 6539.0750965994
2  24 2 0 0 6539.0750965994
0

0101000
+16 0 -48 0 *
Wi

0101100
-15 0 +11 0 +47 0 -10 0 *
Fa
0  1e-07 2 0

0101000
+9 0 *
Wi

0101100
+45 0 +38 0 +31 0 +24 0 +17 0 +11 0 *
Fa
0  1e-07 7 0

0101000
+7 0 *
Wi

0101100
+42 0 +35 0 +28 0 +21 0 +14 0 +10 0 *
Fa
0  1e-07 8 0

0101000
+5 0 *
Sh

0101100
+40 0 +33 0 +26 0 +19 0 +12 0 +8 0 -6 0 +4 0 *
So

0100000
-3 2 *
Co

1100000
+2 1 *

+1 0 