<?xml version="1.0" encoding="UTF-8"?>
<!-- 2021-09-01 14:12:14 Generated by QCAD 3.26.4.5 SVG Exporter -->
<svg width="31.2483mm" height="13.4966mm" viewBox="-24.5 -6.7483 31.2483 13.4966" version="1.1" xmlns="http://www.w3.org/2000/svg" style="stroke-linecap:round;stroke-linejoin:round;fill:none">
    <g transform="scale(1,-1)">
        <!-- Circle -->
        <circle cx="0" cy="0" r="5" style="stroke:#000000;stroke-width:0.3;"/>
        <!-- Line -->
        <path d="M0,5.7483 L0,1.7145 M0,0.5715 L0,-0.5715 M0,-1.7145 L0,-5.7483 " style="stroke:#000000;stroke-width:0.18;"/>
        <!-- Line -->
        <path d="M-12.5,5 L-12.5,-5 " style="stroke:#000000;stroke-width:0.3;"/>
        <!-- Line -->
        <path d="M-22.5,2.3205 L-22.5,-2.3205 " style="stroke:#000000;stroke-width:0.3;"/>
        <!-- Line -->
        <path d="M-23.5,0 L-22.9,0 M-22.36,0 L-22.36,0 M-21.82,0 L-19.66,0 M-19.12,0 L-19.12,0 M-18.58,0 L-16.42,0 M-15.88,0 L-15.88,0 M-15.34,0 L-13.18,0 M-12.64,0 L-12.64,0 M-12.1,0 L-11.5,0 " style="stroke:#000000;stroke-width:0.18;"/>
        <!-- Line -->
        <path d="M-12.5,5 L-22.5,2.3205 " style="stroke:#000000;stroke-width:0.3;"/>
        <!-- Line -->
        <path d="M-12.5,-5 L-22.5,-2.3205 " style="stroke:#000000;stroke-width:0.3;"/>
        <!-- Line -->
        <path d="M-5.7483,0 L-1.7145,0 M-0.5715,0 L0.5715,0 M1.7145,0 L5.7483,0 " style="stroke:#000000;stroke-width:0.18;"/>
        <!-- Circle -->
        <circle cx="0" cy="0" r="2.320508075688771" style="stroke:#000000;stroke-width:0.3;"/>
        <!-- Line -->
        <path d="M-15.9438,0 L-15.8347,0 " style="stroke:#000000;stroke-width:0.18;"/>
        <!-- Line -->
        <path d="M-12.6961,0 L-12.587,0 " style="stroke:#000000;stroke-width:0.18;"/>
        <!-- Line -->
        <path d="M-19.1721,0 L-19.063,0 " style="stroke:#000000;stroke-width:0.18;"/>
        <!-- Line -->
        <path d="M-22.4247,0 L-22.3156,0 " style="stroke:#000000;stroke-width:0.18;"/>
    </g>
</svg>
