<?xml version="1.0" encoding="UTF-8"?>
<!-- 2021-09-01 14:12:32 Generated by QCAD 3.26.4.5 SVG Exporter -->
<svg width="31.2483mm" height="13.4966mm" viewBox="-6.7483 -6.7483 31.2483 13.4966" version="1.1" xmlns="http://www.w3.org/2000/svg" style="stroke-linecap:round;stroke-linejoin:round;fill:none">
    <g transform="scale(1,-1)">
        <!-- Circle -->
        <circle cx="0" cy="0" r="5" style="stroke:#000000;stroke-width:0.3;"/>
        <!-- Line -->
        <path d="M0,5.7483 L0,1.7145 M0,0.5715 L0,-0.5715 M0,-1.7145 L0,-5.7483 " style="stroke:#000000;stroke-width:0.18;"/>
        <!-- Line -->
        <path d="M22.5,5 L22.5,-5 " style="stroke:#000000;stroke-width:0.3;"/>
        <!-- Line -->
        <path d="M12.5,2.3205 L12.5,-2.3205 " style="stroke:#000000;stroke-width:0.3;"/>
        <!-- Line -->
        <path d="M11.5,0 L12.1,0 M12.64,0 L12.64,0 M13.18,0 L15.34,0 M15.88,0 L15.88,0 M16.42,0 L18.58,0 M19.12,0 L19.12,0 M19.66,0 L21.82,0 M22.36,0 L22.36,0 M22.9,0 L23.5,0 " style="stroke:#000000;stroke-width:0.18;"/>
        <!-- Line -->
        <path d="M22.5,5 L12.5,2.3205 " style="stroke:#000000;stroke-width:0.3;"/>
        <!-- Line -->
        <path d="M22.5,-5 L12.5,-2.3205 " style="stroke:#000000;stroke-width:0.3;"/>
        <!-- Line -->
        <path d="M-5.7483,0 L-1.7145,0 M-0.5715,0 L0.5715,0 M1.7145,0 L5.7483,0 " style="stroke:#000000;stroke-width:0.18;"/>
        <!-- Circle -->
        <circle cx="0" cy="0" r="2.3205080756887706" style="stroke:#000000;stroke-width:0.3;"/>
        <!-- Line -->
        <path d="M15.8211,0 L15.9302,0 " style="stroke:#000000;stroke-width:0.18;"/>
        <!-- Line -->
        <path d="M19.0587,0 L19.1678,0 " style="stroke:#000000;stroke-width:0.18;"/>
        <!-- Line -->
        <path d="M22.3111,0 L22.4202,0 " style="stroke:#000000;stroke-width:0.18;"/>
        <!-- Line -->
        <path d="M12.5775,0 L12.6866,0 " style="stroke:#000000;stroke-width:0.18;"/>
    </g>
</svg>
