<?xml version="1.0" encoding="UTF-8"?>
<!-- 2021-08-30 14:08:41 Generated by QCAD 3.26.4.5 SVG Exporter -->
<svg width="57.0981mm" height="51.8309mm" viewBox="-1 -36 57.0981 51.8309" version="1.1" xmlns="http://www.w3.org/2000/svg" style="stroke-linecap:round;stroke-linejoin:round;fill:none">
    <g transform="scale(1,-1)">
        <!-- Polyline -->
        <path d="M38.5453,0 L5,0 A5,5 0 0 0 0,5 L0,30 A5,5 0 0 0 5,35 L45,35 A5,5 0 0 0 50,30 L50,5 A5,5 0 0 0 45,0" style="stroke:#000000;stroke-width:0.2;"/>
        <!-- Arc -->
        <path d="M45,0 A22.1492,22.1492 0 0,1 55.0981,-14.8309" style="stroke:#000000;stroke-width:0.2;"/>
        <!-- Arc -->
        <path d="M55.0981,-14.8309 A23.47,23.47 0 0,0 38.5453,0" style="stroke:#000000;stroke-width:0.2;"/>
    </g>
</svg>
