<?xml version="1.0" encoding="UTF-8"?>
<!-- 2021-08-30 14:08:23 Generated by QCAD 3.26.4.5 SVG Exporter -->
<svg width="57.0981mm" height="51.8309mm" viewBox="-6.0981 -36 57.0981 51.8309" version="1.1" xmlns="http://www.w3.org/2000/svg" style="stroke-linecap:round;stroke-linejoin:round;fill:none">
    <g transform="scale(1,-1)">
        <!-- Polyline -->
        <path d="M11.4547,0 L45,0 A5,5 0 0 1 50,5 L50,30 A5,5 0 0 1 45,35 L5,35 A5,5 0 0 1 0,30 L0,5 A5,5 0 0 1 5,0" style="stroke:#000000;stroke-width:0.2;"/>
        <!-- Arc -->
        <path d="M5,0 A22.1492,22.1492 0 0,0 -5.0981,-14.8309" style="stroke:#000000;stroke-width:0.2;"/>
        <!-- Arc -->
        <path d="M-5.0981,-14.8309 A23.47,23.47 0 0,1 11.4547,0" style="stroke:#000000;stroke-width:0.2;"/>
    </g>
</svg>
