<?xml version="1.0" encoding="UTF-8"?>
<!-- 2021-08-30 14:11:37 Generated by QCAD 3.26.4.5 SVG Exporter -->
<svg width="53.5387mm" height="42.2065mm" viewBox="-1.8138 -43.3806 53.5387 42.2065" version="1.1" xmlns="http://www.w3.org/2000/svg" style="stroke-linecap:round;stroke-linejoin:round;fill:none">
    <g transform="scale(1,-1)">
        <!-- Arc -->
        <path d="M20.7988,37.4201 A10.7817,10.7817 0 0,1 5.729,25.6581" style="stroke:#000000;stroke-width:0.2;"/>
        <!-- Arc -->
        <path d="M5.729,25.6581 A8.8229,8.8229 0 0,1 8.8845,8.3556" style="stroke:#000000;stroke-width:0.2;"/>
        <!-- Arc -->
        <path d="M8.8845,8.3556 A8.0442,8.0442 0 0,1 23.8495,6.5119" style="stroke:#000000;stroke-width:0.2;"/>
        <!-- Arc -->
        <path d="M23.8495,6.5119 A9.1688,9.1688 0 0,1 39.9186,10.9566" style="stroke:#000000;stroke-width:0.2;"/>
        <!-- Arc -->
        <path d="M39.9186,10.9566 A8.3549,8.3549 0 1,1 44.7906,26.9402" style="stroke:#000000;stroke-width:0.2;"/>
        <!-- Arc -->
        <path d="M44.7906,26.9402 A7.1418,7.1418 0 0,1 35.4739,35.744" style="stroke:#000000;stroke-width:0.2;"/>
        <!-- Arc -->
        <path d="M35.4739,35.744 A7.606,7.606 0 0,1 20.7988,37.4201" style="stroke:#000000;stroke-width:0.2;"/>
    </g>
</svg>
