<?xml version="1.0" encoding="UTF-8"?>
<!-- 2021-08-31 17:08:23 Generated by QCAD 3.26.4.5 SVG Exporter -->
<svg width="14.5667mm" height="24.5882mm" viewBox="-12.5817 -12.3007 14.5667 24.5882" version="1.1" xmlns="http://www.w3.org/2000/svg" style="stroke-linecap:round;stroke-linejoin:round;fill:none">
    <g transform="scale(1,-1)">
        <!-- Arc -->
        <path d="M-7.1081,2.6918 A3.9182,3.9182 0 0,1 -6.759,3.3483" style="stroke:#000000;stroke-width:0.25;"/>
        <!-- Arc -->
        <path d="M-6.759,3.3483 A6.4326,6.4326 0 0,1 -6.2907,5.7578" style="stroke:#000000;stroke-width:0.25;"/>
        <!-- Arc -->
        <path d="M-6.2907,5.7578 A6.4326,6.4326 0 0,1 -6.759,8.1673" style="stroke:#000000;stroke-width:0.25;"/>
        <!-- Arc -->
        <path d="M-6.759,8.1673 A3.9182,3.9182 0 0,1 -7.1081,8.8238" style="stroke:#000000;stroke-width:0.25;"/>
        <!-- Arc -->
        <path d="M-7.1081,8.8238 A3.1751,3.1751 0 0,1 -7.3946,9.2049" style="stroke:#000000;stroke-width:0.25;"/>
        <!-- Arc -->
        <path d="M-7.3946,9.2049 A2.6752,2.6752 0 0,1 -7.6465,9.4613" style="stroke:#000000;stroke-width:0.25;"/>
        <!-- Arc -->
        <path d="M-7.6465,9.4613 A2.3121,2.3121 0 0,1 -7.8821,9.6484" style="stroke:#000000;stroke-width:0.25;"/>
        <!-- Arc -->
        <path d="M-7.8821,9.6484 A2.0337,2.0337 0 0,1 -8.1185,9.792" style="stroke:#000000;stroke-width:0.25;"/>
        <!-- Arc -->
        <path d="M-8.1185,9.792 A1.7844,1.7844 0 0,1 -8.3841,9.9063" style="stroke:#000000;stroke-width:0.25;"/>
        <!-- Arc -->
        <path d="M-8.3841,9.9063 A1.6796,1.6796 0 0,1 -8.9371,10" style="stroke:#000000;stroke-width:0.25;"/>
        <!-- Arc -->
        <path d="M-10.7248,-2.6053 A3.1749,3.1749 0 0,1 -10.7652,-2.6661" style="stroke:#000000;stroke-width:0.25;"/>
        <!-- Arc -->
        <path d="M-10.7652,-2.6661 A3.9182,3.9182 0 0,1 -11.1142,-3.3228" style="stroke:#000000;stroke-width:0.25;"/>
        <!-- Arc -->
        <path d="M-11.1142,-3.3228 A6.4326,6.4326 0 0,1 -11.5817,-5.7324" style="stroke:#000000;stroke-width:0.25;"/>
        <!-- Arc -->
        <path d="M-11.5817,-5.7324 A6.4326,6.4326 0 0,1 -11.1125,-8.1417" style="stroke:#000000;stroke-width:0.25;"/>
        <!-- Arc -->
        <path d="M-11.1125,-8.1417 A3.9182,3.9182 0 0,1 -10.7632,-8.7982" style="stroke:#000000;stroke-width:0.25;"/>
        <!-- Arc -->
        <path d="M-10.7632,-8.7982 A3.1751,3.1751 0 0,1 -10.4766,-9.1791" style="stroke:#000000;stroke-width:0.25;"/>
        <!-- Arc -->
        <path d="M-10.4766,-9.1791 A2.6752,2.6752 0 0,1 -10.2246,-9.4355" style="stroke:#000000;stroke-width:0.25;"/>
        <!-- Arc -->
        <path d="M-10.2246,-9.4355 A2.3121,2.3121 0 0,1 -9.9889,-9.6224" style="stroke:#000000;stroke-width:0.25;"/>
        <!-- Arc -->
        <path d="M-9.9889,-9.6224 A2.0337,2.0337 0 0,1 -9.7524,-9.7659" style="stroke:#000000;stroke-width:0.25;"/>
        <!-- Arc -->
        <path d="M-9.7524,-9.7659 A1.7844,1.7844 0 0,1 -9.4868,-9.8802" style="stroke:#000000;stroke-width:0.25;"/>
        <!-- Arc -->
        <path d="M-9.4868,-9.8802 A1.6796,1.6796 0 0,1 -8.9338,-9.9737" style="stroke:#000000;stroke-width:0.25;"/>
        <!-- Arc -->
        <path d="M-8.9371,-9.9737 A1.6796,1.6796 0 0,1 -8.3808,-9.8799" style="stroke:#000000;stroke-width:0.25;"/>
        <!-- Arc -->
        <path d="M-8.3808,-9.8799 A1.7844,1.7844 0 0,1 -8.1152,-9.7654" style="stroke:#000000;stroke-width:0.25;"/>
        <!-- Arc -->
        <path d="M-8.1152,-9.7654 A2.0337,2.0337 0 0,1 -7.8789,-9.6217" style="stroke:#000000;stroke-width:0.25;"/>
        <!-- Arc -->
        <path d="M-7.8789,-9.6217 A2.3121,2.3121 0 0,1 -7.6433,-9.4346" style="stroke:#000000;stroke-width:0.25;"/>
        <!-- Arc -->
        <path d="M-7.6433,-9.4346 A2.6752,2.6752 0 0,1 -7.3915,-9.1781" style="stroke:#000000;stroke-width:0.25;"/>
        <!-- Arc -->
        <path d="M-7.3915,-9.1781 A3.1751,3.1751 0 0,1 -7.1052,-8.7969" style="stroke:#000000;stroke-width:0.25;"/>
        <!-- Arc -->
        <path d="M-7.1052,-8.7969 A3.9182,3.9182 0 0,1 -6.7562,-8.1403" style="stroke:#000000;stroke-width:0.25;"/>
        <!-- Arc -->
        <path d="M-6.7562,-8.1403 A6.4326,6.4326 0 0,1 -6.2887,-5.7306" style="stroke:#000000;stroke-width:0.25;"/>
        <!-- Arc -->
        <path d="M-6.2887,-5.7306 A6.4326,6.4326 0 0,1 -6.7578,-3.3213" style="stroke:#000000;stroke-width:0.25;"/>
        <!-- Arc -->
        <path d="M-6.7578,-3.3213 A3.9182,3.9182 0 0,1 -7.1072,-2.6648" style="stroke:#000000;stroke-width:0.25;"/>
        <!-- Arc -->
        <path d="M-7.1072,-2.6648 A3.1747,3.1747 0 0,1 -7.2511,-2.46" style="stroke:#000000;stroke-width:0.25;"/>
        <!-- Line -->
        <path d="M-7.1081,2.6918 L-9.0241,-0.1144 " style="stroke:#000000;stroke-width:0.25;"/>
        <!-- Line -->
        <path d="M-9.0241,-0.1144 L-7.2511,-2.46 " style="stroke:#000000;stroke-width:0.25;"/>
        <!-- Line -->
        <path d="M-10.7652,-2.6661 L-9.0241,-0.1144 " style="stroke:#000000;stroke-width:0.25;"/>
        <!-- Hatch -->
        <path d="M0.9851,11.3007 L-8.9371,11.3007 L-8.9371,10.2 A2.1078,2.1078 0 0 0 -7.5129,9.6102 A5.15382,5.15382 0 0 0 -6.0907,5.7578 A6.10364,6.10364 0 0 0 -6.9412,2.5815 L-8.7779,-0.1085 L-6.9398,-2.5555 A4.11817,4.11817 0 0 0 -6.5732,-3.2445 A6.63251,6.63251 0 0 0 -6.5708,-8.2151 A3.41462,3.41462 0 0 0 -8.3148,-10.0687 A1.87959,1.87959 0 0 0 -8.9371,-10.1737 L-8.9371,-11.2876 L0.9851,-11.2876 Z" style="fill:#fefefe;fill-rule:evenodd;"/>
    </g>
</svg>
