<?xml version="1.0" encoding="UTF-8"?>
<!-- 2021-08-30 14:07:30 Generated by QCAD 3.26.4.5 SVG Exporter -->
<svg width="12.3608mm" height="12.3608mm" viewBox="-6.1804 -6.1804 12.3608 12.3608" version="1.1" xmlns="http://www.w3.org/2000/svg" style="stroke-linecap:round;stroke-linejoin:round;fill:none">
    <g transform="scale(1,-1)">
        <!-- Arc -->
        <path d="M0,-3.5 A3.5,3.5 0 0,1 3.5,0" style="stroke:#000000;stroke-width:0.2;"/>
        <!-- Arc -->
        <path d="M-3.5,0 A3.5,3.5 0 0,1 0,-3.5" style="stroke:#000000;stroke-width:0.2;"/>
        <!-- Arc -->
        <path d="M0,3.5 A3.5,3.5 0 0,1 -3.5,0" style="stroke:#000000;stroke-width:0.2;"/>
        <!-- Arc -->
        <path d="M3.5,0 A3.5,3.5 0 0,1 0,3.5" style="stroke:#000000;stroke-width:0.2;"/>
        <!-- Line -->
        <path d="M0,-3.5 L0,0 " style="stroke:#000000;stroke-width:0.2;"/>
        <!-- Line -->
        <path d="M0,0 L3.5,0 " style="stroke:#000000;stroke-width:0.2;"/>
        <!-- Line -->
        <path d="M3.5,0 L5.1804,0 " style="stroke:#000000;stroke-width:0.2;"/>
        <!-- Line -->
        <path d="M0,3.5 L0,5.1804 " style="stroke:#000000;stroke-width:0.2;"/>
        <!-- Line -->
        <path d="M0,-3.5 L0,-5.1804 " style="stroke:#000000;stroke-width:0.2;"/>
        <!-- Line -->
        <path d="M-3.5,0 L-5.1804,0 " style="stroke:#000000;stroke-width:0.2;"/>
        <!-- Line -->
        <path d="M0,0 L0,3.5 " style="stroke:#000000;stroke-width:0.2;"/>
        <!-- Line -->
        <path d="M0,0 L-3.5,0 " style="stroke:#000000;stroke-width:0.2;"/>
        <!-- Hatch -->
        <path d="M0,0 L0,3.5 A3.5,3.5 0 0 1 -3.5,0 L0,0 L3.5,0 A3.5,3.5 0 0 0 0,-3.5 Z" style="fill:#000000;fill-rule:evenodd;"/>
    </g>
</svg>
