<?xml version="1.0" encoding="UTF-8" standalone="no"?>
<!-- Created with Inkscape (http://www.inkscape.org/) -->
<svg xmlns:dc="http://purl.org/dc/elements/1.1/" xmlns:cc="http://creativecommons.org/ns#" xmlns:rdf="http://www.w3.org/1999/02/22-rdf-syntax-ns#" xmlns:svg="http://www.w3.org/2000/svg" xmlns="http://www.w3.org/2000/svg" xmlns:xlink="http://www.w3.org/1999/xlink" xmlns:sodipodi="http://sodipodi.sourceforge.net/DTD/sodipodi-0.dtd" xmlns:inkscape="http://www.inkscape.org/namespaces/inkscape" width="64px" height="64px" id="svg2860" sodipodi:version="0.32" inkscape:version="0.48.5 r10040" sodipodi:docname="fem-solver.svg" inkscape:output_extension="org.inkscape.output.svg.inkscape" version="1.1">
  <defs id="defs2862">
    <radialGradient inkscape:collect="always" xlink:href="#linearGradient3377" id="radialGradient3692" cx="45.883327" cy="28.869568" fx="45.883327" fy="28.869568" r="19.467436" gradientUnits="userSpaceOnUse"/>
    <radialGradient inkscape:collect="always" xlink:href="#linearGradient3377" id="radialGradient3703" gradientUnits="userSpaceOnUse" cx="135.38333" cy="97.369568" fx="135.38333" fy="97.369568" r="19.467436" gradientTransform="matrix(0.97435,0.2250379,-0.4623105,2.0016728,48.487554,-127.99883)"/>
    <linearGradient id="linearGradient3377">
      <stop id="stop3379" offset="0" style="stop-color:#faff2b;stop-opacity:1;"/>
      <stop id="stop3381" offset="1" style="stop-color:#ffaa00;stop-opacity:1;"/>
    </linearGradient>
    <radialGradient inkscape:collect="always" xlink:href="#linearGradient3377" id="radialGradient3705" gradientUnits="userSpaceOnUse" cx="148.88333" cy="81.869568" fx="148.88333" fy="81.869568" r="19.467436" gradientTransform="matrix(1.3852588,-5.1367833e-2,3.7056289e-2,0.9993132,-60.392403,7.7040438)"/>
    <inkscape:perspective sodipodi:type="inkscape:persp3d" inkscape:vp_x="0 : 32 : 1" inkscape:vp_y="0 : 1000 : 0" inkscape:vp_z="64 : 32 : 1" inkscape:persp3d-origin="32 : 21.333333 : 1" id="perspective2868"/>
  </defs>
  <sodipodi:namedview id="base" pagecolor="#ffffff" bordercolor="#666666" borderopacity="1.0" inkscape:pageopacity="0.0" inkscape:pageshadow="2" inkscape:zoom="7.7781746" inkscape:cx="34.210747" inkscape:cy="27.02159" inkscape:current-layer="layer1" showgrid="true" inkscape:document-units="px" inkscape:grid-bbox="true" inkscape:window-width="1600" inkscape:window-height="837" inkscape:window-x="0" inkscape:window-y="27" inkscape:window-maximized="1" inkscape:snap-bbox="true" inkscape:snap-nodes="false">
    <inkscape:grid type="xygrid" id="grid2992" empspacing="2" visible="true" enabled="true" snapvisiblegridlinesonly="true"/>
  </sodipodi:namedview>
  <metadata id="metadata2865">
    <rdf:RDF>
      <cc:Work rdf:about="">
        <dc:format>image/svg+xml</dc:format>
        <dc:type rdf:resource="http://purl.org/dc/dcmitype/StillImage"/>
        <dc:title/>
        <dc:creator>
          <cc:Agent>
            <dc:title>[Author qingfengxia]</dc:title>
          </cc:Agent>
        </dc:creator>
        <dc:title>fem-solver</dc:title>
        <dc:date>2015-11-15</dc:date>
        <dc:relation>http://www.freecadweb.org/wiki/index.php?title=Artwork</dc:relation>
        <dc:publisher>
          <cc:Agent>
            <dc:title>FreeCAD</dc:title>
          </cc:Agent>
        </dc:publisher>
        <dc:identifier>FreeCAD/src/Mod/</dc:identifier>
        <dc:rights>
          <cc:Agent>
            <dc:title>FreeCAD LGPL2+</dc:title>
          </cc:Agent>
        </dc:rights>
        <cc:license>https://www.gnu.org/copyleft/lesser.html</cc:license>
        <dc:contributor>
          <cc:Agent>
            <dc:title>[agryson] Alexander Gryson</dc:title>
          </cc:Agent>
        </dc:contributor>
      </cc:Work>
    </rdf:RDF>
  </metadata>
  <g id="layer1" inkscape:label="Layer 1" inkscape:groupmode="layer">
    <path style="fill:#ef2929;stroke:#a40000;stroke-width:2" d="M 9.5853994,52.969889 C 7.8119758,52.734768 5.5919913,51.832563 3.6314778,50.550207 l -0.5449363,-0.356437 0,-2.957551 c 0,-1.626652 0.021355,-2.957549 0.047474,-2.957549 0.026108,0 0.3435608,0.289788 0.7054508,0.643973 2.4045363,2.353345 4.8898276,3.462166 7.2798287,3.247919 2.641541,-0.236792 4.21308,-1.81833 4.901949,-4.93314 0.244882,-1.107266 0.264466,-1.32649 0.259815,-2.908519 -0.0064,-2.174628 -0.205953,-3.405591 -0.755837,-4.662261 C 14.742584,33.878051 13.600076,32.975152 10.71564,31.865737 7.0154122,30.442549 5.4410637,29.154477 4.2521677,26.577565 3.381847,24.691161 3,22.471707 3,19.299446 3,16.247302 3.3687842,13.965369 4.1875098,11.951471 5.5145334,8.687262 7.6155831,6.931873 10.583118,6.608057 c 2.010358,-0.21937 5.510565,0.785493 7.337775,2.106577 l 0.262376,0.189699 0,2.854983 0,2.854984 -0.349774,-0.333744 c -0.70581,-0.673464 -2.39694,-1.809398 -3.411502,-2.29151 -0.957699,-0.455093 -1.186272,-0.75243 -2.818311,-0.752893 -1.389134,-3.95e-4 -1.8912926,0.32161 -2.3048856,0.55491 -1.6915579,0.954172 -2.6569284,2.501128 -3.0302,4.855736 -0.1470268,0.927451 -0.1616274,3.31541 -0.025881,4.233836 0.2430549,1.644524 0.7350548,2.663733 1.6877046,3.496192 0.687143,0.600449 1.546576,1.032095 3.996191,2.00707 3.513965,1.398598 4.920908,2.609783 6.174398,5.315307 0.598145,1.29103 0.898516,2.323881 1.195778,4.111766 0.272711,1.64022 0.340722,4.936071 0.142737,6.916995 -0.544819,5.451141 -2.707706,8.890726 -6.221214,9.893445 -0.953042,0.271991 -2.842667,0.453248 -3.6329106,0.348479 z" id="path2995" inkscape:connector-curvature="0" sodipodi:nodetypes="sscssssssssssssscccsssssssssssss"/>
    <g transform="matrix(0.83223191,0,0,1.3845358,-3.4336331,-4.9881479)" style="font-size:55.9948082px;font-style:normal;font-weight:normal;line-height:125%;letter-spacing:0px;word-spacing:0px;fill:#ef2929;fill-opacity:1;stroke:#a40000;stroke-width:0.93159199;font-family:Bitstream Vera Sans" id="text2992">
      <path d="m 34.894055,32.483054 c -0.944188,10e-6 -1.690602,0.370027 -2.239245,1.110053 -0.54865,0.733664 -0.822974,1.741642 -0.822971,3.023939 -3e-6,1.282307 0.271131,2.293475 0.813401,3.033507 0.548643,0.733658 1.298247,1.100486 2.248815,1.100484 0.937797,2e-6 1.681022,-0.370016 2.229676,-1.110053 0.548639,-0.740032 0.822962,-1.748011 0.822971,-3.023938 -9e-6,-1.269537 -0.274332,-2.274326 -0.822971,-3.014369 -0.548654,-0.746406 -1.291879,-1.119613 -2.229676,-1.119623 m 0,-1.49283 c 1.531101,1.1e-5 2.733657,0.49762 3.607674,1.49283 0.873997,0.995229 1.311,2.373225 1.311011,4.133992 -1.1e-5,1.754398 -0.437014,3.132394 -1.311011,4.133991 -0.874017,0.995221 -2.076573,1.49283 -3.607674,1.492831 -1.537492,-10e-7 -2.743238,-0.49761 -3.617242,-1.492831 -0.86763,-1.001597 -1.301443,-2.379593 -1.301442,-4.133991 -10e-7,-1.760767 0.433812,-3.138763 1.301442,-4.133992 0.874004,-0.99521 2.07975,-1.492819 3.617242,-1.49283" style="font-size:19.59818268px;fill:#ef2929;stroke:#a40000;stroke-width:0.93159199" id="path2996" inkscape:connector-curvature="0"/>
      <path d="m 42.721845,27.076329 1.760774,0 0,14.890025 -1.760774,0 0,-14.890025" style="font-size:19.59818268px;fill:#ef2929;stroke:#a40000;stroke-width:0.93159199" id="path2998" inkscape:connector-curvature="0"/>
      <path d="m 46.894114,31.248598 1.866038,0 3.349299,8.99526 3.349298,-8.99526 1.866038,0 -4.019158,10.717756 -2.392356,0 -4.019159,-10.717756" style="font-size:19.59818268px;fill:#ef2929;stroke:#a40000;stroke-width:0.93159199" id="path3000" inkscape:connector-curvature="0"/>
      <path d="m 68.92293,36.167283 0,0.861248 -8.095734,0 c 0.07655,1.212131 0.440191,2.137174 1.090915,2.775133 0.657096,0.631584 1.56938,0.947375 2.736855,0.947373 0.676232,2e-6 1.330142,-0.08293 1.961733,-0.248805 0.637952,-0.165868 1.269533,-0.414673 1.894746,-0.746415 l 0,1.66508 c -0.631592,0.267944 -1.279123,0.472092 -1.942594,0.612443 -0.663488,0.140352 -1.336537,0.210527 -2.019148,0.210528 -1.709743,-10e-7 -3.06541,-0.49761 -4.067006,-1.492831 -0.995222,-0.995218 -1.492831,-2.341315 -1.49283,-4.038297 -10e-7,-1.754388 0.47209,-3.145143 1.416275,-4.172269 0.950559,-1.033488 2.229671,-1.550236 3.837339,-1.550247 1.441786,1.1e-5 2.580546,0.465722 3.416285,1.397136 0.842099,0.925053 1.263153,2.185026 1.263164,3.779923 m -1.760774,-0.516749 c -0.01277,-0.963315 -0.283902,-1.732058 -0.813401,-2.306232 -0.523137,-0.574156 -1.218514,-0.861238 -2.086135,-0.861248 -0.982466,10e-6 -1.770348,0.277523 -2.363648,0.83254 -0.586928,0.555035 -0.925048,1.336537 -1.014359,2.344509 l 6.277543,-0.0096" style="font-size:19.59818268px;fill:#ef2929;stroke:#a40000;stroke-width:0.93159199" id="path3002" inkscape:connector-curvature="0"/>
      <path d="m 77.372733,32.645734 c -0.229674,-0.05741 -0.484858,-0.08611 -0.765554,-0.08612 -0.995226,10e-6 -1.760779,0.32537 -2.296662,0.976082 -0.529512,0.644349 -0.794266,1.572582 -0.794263,2.784703 l 0,5.64596 -1.770343,0 0,-10.717756 1.770343,0 0,1.66508 c 0.370014,-0.650711 0.851675,-1.132372 1.444984,-1.444983 0.593298,-0.31897 1.314194,-0.47846 2.16269,-0.478471 0.121205,1.1e-5 0.255177,0.0096 0.401916,0.02871 0.146723,0.01277 0.309403,0.0351 0.48804,0.06699 l 0.0096,1.808616 c -0.197791,-0.11483 -0.414698,-0.197765 -0.650736,-0.248811 z" style="font-size:19.59818268px;fill:#ef2929;stroke:#a40000;stroke-width:0.93159199" id="path3004" inkscape:connector-curvature="0" sodipodi:nodetypes="cccsccccccccccc"/>
    </g>
  </g>
</svg>
