<?xml version="1.0" encoding="UTF-8" standalone="no"?>
<!-- Created with Inkscape (http://www.inkscape.org/) -->
<svg xmlns:dc="http://purl.org/dc/elements/1.1/" xmlns:cc="http://creativecommons.org/ns#" xmlns:rdf="http://www.w3.org/1999/02/22-rdf-syntax-ns#" xmlns:svg="http://www.w3.org/2000/svg" xmlns="http://www.w3.org/2000/svg" xmlns:sodipodi="http://sodipodi.sourceforge.net/DTD/sodipodi-0.dtd" xmlns:inkscape="http://www.inkscape.org/namespaces/inkscape" width="64" height="64" id="svg2" version="1.1" inkscape:version="0.48.5 r10040" sodipodi:docname="New document 1">
  <defs id="defs4"/>
  <sodipodi:namedview id="base" pagecolor="#ffffff" bordercolor="#666666" borderopacity="1.0" inkscape:pageopacity="0.0" inkscape:pageshadow="2" inkscape:zoom="15.839192" inkscape:cx="32.478812" inkscape:cy="29.015136" inkscape:document-units="px" inkscape:current-layer="layer1" showgrid="true" inkscape:snap-bbox="true" inkscape:snap-nodes="true" inkscape:window-width="1600" inkscape:window-height="837" inkscape:window-x="0" inkscape:window-y="27" inkscape:window-maximized="1">
    <inkscape:grid type="xygrid" id="grid2985" empspacing="2" visible="true" enabled="true" snapvisiblegridlinesonly="true"/>
  </sodipodi:namedview>
  <metadata id="metadata7">
    <rdf:RDF>
      <cc:Work rdf:about="">
        <dc:format>image/svg+xml</dc:format>
        <dc:type rdf:resource="http://purl.org/dc/dcmitype/StillImage"/>
        <dc:title/>
        <dc:creator>
          <cc:Agent>
            <dc:title>[Alexander Gryson]</dc:title>
          </cc:Agent>
        </dc:creator>
        <dc:title>fem-DataAlongLine</dc:title>
        <dc:date>2017-03-11</dc:date>
        <dc:relation>http://www.freecadweb.org/wiki/index.php?title=Artwork</dc:relation>
        <dc:publisher>
          <cc:Agent>
            <dc:title>FreeCAD</dc:title>
          </cc:Agent>
        </dc:publisher>
        <dc:identifier>FreeCAD/src/Mod/</dc:identifier>
        <dc:rights>
          <cc:Agent>
            <dc:title>FreeCAD LGPL2+</dc:title>
          </cc:Agent>
        </dc:rights>
        <cc:license>https://www.gnu.org/copyleft/lesser.html</cc:license>
        <dc:contributor>
          <cc:Agent>
            <dc:title>[agryson] Alexander Gryson</dc:title>
          </cc:Agent>
        </dc:contributor>
      </cc:Work>
    </rdf:RDF>
  </metadata>
  <g inkscape:label="Layer 1" inkscape:groupmode="layer" id="layer1" transform="translate(0,-988.36218)">
    <path style="fill:#8ae234;stroke:#172a04;stroke-width:2;stroke-linecap:butt;stroke-linejoin:round;stroke-opacity:1" d="M 49,61 60,23 9,9 5,58 z" id="path2987" inkscape:connector-curvature="0" transform="translate(0,988.36218)" sodipodi:nodetypes="ccccc"/>
    <path style="fill:none;stroke:#0b1521;stroke-width:6;stroke-linecap:round;stroke-linejoin:miter;stroke-opacity:1" d="M 9,54.99996 55,22.99998" id="path3757" inkscape:connector-curvature="0" transform="translate(0,988.36218)" sodipodi:nodetypes="cc"/>
    <path sodipodi:type="arc" style="fill:#729fcf;fill-opacity:1;stroke:#0b1521;stroke-width:1.83333349;stroke-linecap:round;stroke-linejoin:round;stroke-miterlimit:4;stroke-dasharray:none;stroke-dashoffset:9.6" id="path4221-6" sodipodi:cx="6.5" sodipodi:cy="57.5" sodipodi:rx="5.5" sodipodi:ry="5.5" d="m 12,57.5 a 5.5,5.5 0 1 1 -11,0 5.5,5.5 0 1 1 11,0 z" transform="matrix(1.0909091,0,0,1.0909088,47.909091,948.63493)"/>
    <path sodipodi:type="arc" style="fill:#729fcf;fill-opacity:1;stroke:#0b1521;stroke-width:1.83333349;stroke-linecap:round;stroke-linejoin:round;stroke-miterlimit:4;stroke-dasharray:none;stroke-dashoffset:9.6" id="path4221-6-7" sodipodi:cx="6.5" sodipodi:cy="57.5" sodipodi:rx="5.5" sodipodi:ry="5.5" d="m 12,57.5 a 5.5,5.5 0 1 1 -11,0 5.5,5.5 0 1 1 11,0 z" transform="matrix(1.0909091,0,0,1.0909088,1.9090908,980.63493)"/>
    <path style="fill:none;stroke:#729fcf;stroke-width:2;stroke-linecap:round;stroke-linejoin:miter;stroke-opacity:1" d="m 9,1043.3622 46,-32" id="path3757-3" inkscape:connector-curvature="0" sodipodi:nodetypes="cc"/>
    <path style="fill:none;stroke:#0b1521;stroke-width:6;stroke-linecap:round;stroke-linejoin:round;stroke-opacity:1" d="m 8,44 2,-7 6,3 -2,-11 11,9 -6,-15 12,11 -6,-13 10,8 -3,-10 8,5 -1,-5 4,0" id="path4300" inkscape:connector-curvature="0" transform="translate(0,988.36218)" sodipodi:nodetypes="ccccccccccccc"/>
    <path style="fill:none;stroke:#729fcf;stroke-width:2;stroke-linecap:round;stroke-linejoin:round;stroke-opacity:1" d="m 8,1032.3622 2,-7 6,3 -2,-11 11,9 -6,-15 12,11 -6,-13 10,8 -3,-10 8,5 -1,-5 4,0" id="path4300-6" inkscape:connector-curvature="0" sodipodi:nodetypes="ccccccccccccc"/>
    <path style="fill:none;stroke:#2e3436;stroke-width:6;stroke-linecap:round;stroke-linejoin:miter;stroke-opacity:1" d="M 13,52 5,40" id="path4259" inkscape:connector-curvature="0" transform="translate(0,988.36218)" sodipodi:nodetypes="cc"/>
    <path style="fill:none;stroke:#d3d7cf;stroke-width:2;stroke-linecap:round;stroke-linejoin:miter;stroke-opacity:1" d="m 13,1040.3622 -8,-12" id="path4259-5" inkscape:connector-curvature="0" sodipodi:nodetypes="cc"/>
    <path style="fill:none;stroke:#2e3436;stroke-width:6;stroke-linecap:round;stroke-linejoin:miter;stroke-opacity:1" d="m 50,1014.3622 -8,-12" id="path4259-3" inkscape:connector-curvature="0" sodipodi:nodetypes="cc"/>
    <path style="fill:none;stroke:#d3d7cf;stroke-width:2;stroke-linecap:round;stroke-linejoin:miter;stroke-opacity:1" d="m 50,1014.3622 -8,-12" id="path4259-5-5" inkscape:connector-curvature="0" sodipodi:nodetypes="cc"/>
  </g>
</svg>
