<?xml version="1.0" encoding="UTF-8" standalone="no"?>
<!-- Created with Inkscape (http://www.inkscape.org/) -->

<svg
   xmlns:dc="http://purl.org/dc/elements/1.1/"
   xmlns:cc="http://creativecommons.org/ns#"
   xmlns:rdf="http://www.w3.org/1999/02/22-rdf-syntax-ns#"
   xmlns:svg="http://www.w3.org/2000/svg"
   xmlns="http://www.w3.org/2000/svg"
   xmlns:xlink="http://www.w3.org/1999/xlink"
   xmlns:sodipodi="http://sodipodi.sourceforge.net/DTD/sodipodi-0.dtd"
   xmlns:inkscape="http://www.inkscape.org/namespaces/inkscape"
   width="64px"
   height="64px"
   id="svg2860"
   sodipodi:version="0.32"
   inkscape:version="0.91 r13725"
   sodipodi:docname="fem-constraint-Heatflux.svg"
   inkscape:output_extension="org.inkscape.output.svg.inkscape"
   version="1.1">
  <defs
     id="defs2862">
    <radialGradient
       inkscape:collect="always"
       xlink:href="#linearGradient3377"
       id="radialGradient3703"
       gradientUnits="userSpaceOnUse"
       cx="135.38333"
       cy="97.369568"
       fx="135.38333"
       fy="97.369568"
       r="19.467436"
       gradientTransform="matrix(0.97435,0.2250379,-0.4623105,2.0016728,48.487554,-127.99883)" />
    <linearGradient
       id="linearGradient3377">
      <stop
         id="stop3379"
         offset="0"
         style="stop-color:#faff2b;stop-opacity:1;" />
      <stop
         id="stop3381"
         offset="1"
         style="stop-color:#ffaa00;stop-opacity:1;" />
    </linearGradient>
    <radialGradient
       inkscape:collect="always"
       xlink:href="#linearGradient3377"
       id="radialGradient3705"
       gradientUnits="userSpaceOnUse"
       cx="148.88333"
       cy="81.869568"
       fx="148.88333"
       fy="81.869568"
       r="19.467436"
       gradientTransform="matrix(1.3852588,-0.05136783,0.03705629,0.9993132,-60.392403,7.7040438)" />
    <inkscape:perspective
       sodipodi:type="inkscape:persp3d"
       inkscape:vp_x="0 : 32 : 1"
       inkscape:vp_y="0 : 1000 : 0"
       inkscape:vp_z="64 : 32 : 1"
       inkscape:persp3d-origin="32 : 21.333333 : 1"
       id="perspective2868" />
    <radialGradient
       inkscape:collect="always"
       xlink:href="#linearGradient3377-4"
       id="radialGradient3703-8"
       gradientUnits="userSpaceOnUse"
       cx="135.38333"
       cy="97.369568"
       fx="135.38333"
       fy="97.369568"
       r="19.467436"
       gradientTransform="matrix(0.97435,0.2250379,-0.4623105,2.0016728,48.487554,-127.99883)" />
    <linearGradient
       id="linearGradient3377-4">
      <stop
         id="stop3379-3"
         offset="0"
         style="stop-color:#faff2b;stop-opacity:1;" />
      <stop
         id="stop3381-0"
         offset="1"
         style="stop-color:#ffaa00;stop-opacity:1;" />
    </linearGradient>
  </defs>
  <sodipodi:namedview
     id="base"
     pagecolor="#ffffff"
     bordercolor="#666666"
     borderopacity="1.0"
     inkscape:pageopacity="0.0"
     inkscape:pageshadow="2"
     inkscape:zoom="9.03125"
     inkscape:cx="32"
     inkscape:cy="32"
     inkscape:current-layer="layer1"
     showgrid="true"
     inkscape:document-units="px"
     inkscape:grid-bbox="true"
     inkscape:window-width="1920"
     inkscape:window-height="1018"
     inkscape:window-x="-8"
     inkscape:window-y="-8"
     inkscape:window-maximized="1" />
  <metadata
     id="metadata2865">
    <rdf:RDF>
      <cc:Work
         rdf:about="">
        <dc:format>image/svg+xml</dc:format>
        <dc:type
           rdf:resource="http://purl.org/dc/dcmitype/StillImage" />
        <dc:title />
      </cc:Work>
    </rdf:RDF>
  </metadata>
  <g
     id="layer1"
     inkscape:label="Layer 1"
     inkscape:groupmode="layer">
    <g
       id="g3618"
       transform="matrix(0.51498391,0,0,0.49033246,-43.844928,-28.337883)">
      <path
         style="fill:url(#radialGradient3705);fill-opacity:1;fill-rule:evenodd;stroke:#7b5600;stroke-width:2.80832386;stroke-linecap:butt;stroke-linejoin:round;stroke-miterlimit:4;stroke-opacity:1;stroke-dasharray:none;stroke-dashoffset:0;marker:none;visibility:visible;display:inline;overflow:visible;enable-background:accumulate"
         d="m 181.23365,60.447364 -42.39814,17.845743 23.4378,11.550566 3.43562,36.434747 33.18065,-22.82637 c 8.77297,-10.605473 11.81226,-24.974574 2.14058,-36.620683 -5.76166,-5.245683 -10.14552,-7.612661 -19.79651,-6.384003 z"
         id="rect3522"
         sodipodi:nodetypes="ccccccc"
         inkscape:connector-curvature="0" />
      <path
         style="fill:url(#radialGradient3703);fill-opacity:1;fill-rule:evenodd;stroke:#ff2600;stroke-width:2.80792084999999991;stroke-linecap:butt;stroke-linejoin:round;stroke-miterlimit:4;stroke-opacity:1;stroke-dasharray:none;stroke-dashoffset:0;marker:none;visibility:visible;display:inline;overflow:visible;enable-background:accumulate"
         d="m 132.82272,84.89331 c 10.75418,-10.005637 21.38515,-6.127815 31.80315,7.238395 8.01928,12.601795 7.83274,24.767805 -0.57918,32.709415 -9.97656,5.54633 -24.96587,2.99222 -33.00616,-9.97927 -5.69827,-10.29304 -6.15159,-21.332455 1.78219,-29.96854 z"
         id="rect3520"
         sodipodi:nodetypes="ccccc"
         inkscape:connector-curvature="0" />
    </g>
    <path
       style="fill:none;stroke:#ff2600;stroke-width:0.80000001;stroke-linecap:butt;stroke-linejoin:miter;stroke-miterlimit:4;stroke-opacity:1;stroke-dasharray:none"
       d="m 28.785325,11.12855 0.0052,21.515011"
       id="path2390"
       inkscape:connector-curvature="0"
       sodipodi:nodetypes="cc" />
    <path
       style="fill:none;stroke:#ff2600;stroke-width:0.80000001;stroke-linecap:butt;stroke-linejoin:miter;stroke-miterlimit:4;stroke-opacity:1;stroke-dasharray:none"
       d="M 36.737378,12.499439 36.570635,34.269187"
       id="path2400"
       inkscape:connector-curvature="0"
       sodipodi:nodetypes="cc" />
    <path
       style="fill:none;stroke:#000000;stroke-width:0.47040084;stroke-linecap:butt;stroke-linejoin:miter;stroke-miterlimit:4;stroke-opacity:1;stroke-dasharray:none"
       d="M 56.372527,2.2112135 C 53.300162,3.7484279 42.030558,9.6577034 37.508693,11.937876"
       id="path2412"
       sodipodi:nodetypes="cc"
       inkscape:connector-curvature="0" />
    <path
       style="fill:none;stroke:#000000;stroke-width:0.47040084;stroke-linecap:butt;stroke-linejoin:miter;stroke-miterlimit:4;stroke-opacity:1;stroke-dasharray:none"
       d="M 61.760695,7.7936612 C 61.631216,7.9303412 44.705244,18.808995 43.484215,19.363048"
       id="path2414"
       sodipodi:nodetypes="cc"
       inkscape:connector-curvature="0" />
    <path
       style="fill:none;stroke:#000000;stroke-width:0.47040084;stroke-linecap:butt;stroke-linejoin:miter;stroke-miterlimit:4;stroke-opacity:1;stroke-dasharray:none"
       d="M 62.133726,14.965487 C 60.200318,16.337892 48.065848,24.254341 45.201584,26.047638"
       id="path2418"
       sodipodi:nodetypes="cc"
       inkscape:connector-curvature="0" />
    <path
       style="fill:none;stroke:#ff2600;stroke-width:0.80000001;stroke-linecap:butt;stroke-linejoin:miter;stroke-miterlimit:4;stroke-opacity:1;stroke-dasharray:none"
       d="m 22.13757,16.880244 20.65028,3.300552"
       id="path2424"
       inkscape:connector-curvature="0"
       sodipodi:nodetypes="cc" />
    <path
       style="fill:none;stroke:#ff2600;stroke-width:0.80000001;stroke-linecap:butt;stroke-linejoin:miter;stroke-miterlimit:4;stroke-opacity:1;stroke-dasharray:none"
       d="M 43.362992,26.815464 21.955804,23.581992"
       id="path2432"
       inkscape:connector-curvature="0"
       sodipodi:nodetypes="cc" />
    <path
       style="fill:none;stroke:#000000;stroke-width:0.47040084;stroke-linecap:butt;stroke-linejoin:miter;stroke-miterlimit:4;stroke-opacity:1;stroke-dasharray:none"
       d="m 36.760204,6.6140955 c 3.744727,-0.8760285 8.074643,2.1679342 10.645421,4.7788175 1.703939,2.222352 7.189786,9.318075 0.702143,17.606975"
       id="path2424-3"
       inkscape:connector-curvature="0"
       sodipodi:nodetypes="ccc" />
    <path
       style="fill:none;stroke:#000000;stroke-width:0.47040084;stroke-linecap:butt;stroke-linejoin:miter;stroke-miterlimit:4;stroke-opacity:1;stroke-dasharray:none"
       d="m 43.384578,3.9792341 c 6.180714,-0.100942 7.410283,1.0606677 10.423967,3.893004 C 55.512484,10.09459 60.998331,16.3045 54.510688,24.5934"
       id="path2424-3-5"
       inkscape:connector-curvature="0"
       sodipodi:nodetypes="ccc" />
    <path
       style="fill:none;stroke:#7b5600;stroke-width:0.92551678;stroke-linecap:butt;stroke-linejoin:round;stroke-miterlimit:4;stroke-opacity:1;stroke-dasharray:none;stroke-dashoffset:0;marker:none;visibility:visible;display:inline;overflow:visible;enable-background:accumulate"
       d="m 23.825095,12.352013 c 6.041975,-5.3755328 12.014726,-3.2921713 17.867828,3.888831 4.505436,6.77032 4.400633,13.306515 -0.3254,17.573147 -5.605087,2.979768 -14.026467,1.607572 -18.543708,-5.361367 -3.201435,-5.52994 -3.456121,-11.46087 1.00128,-16.100611 z"
       id="rect3520-8"
       sodipodi:nodetypes="ccccc"
       inkscape:connector-curvature="0" />
    <path
       style="fill:#000000"
       id="path3365"
       sodipodi:type="arc"
       sodipodi:cx="14.948097"
       sodipodi:cy="50.048443"
       sodipodi:rx="5.647059"
       sodipodi:ry="0.66435987"
       sodipodi:start="0"
       sodipodi:end="0.10673561"
       sodipodi:open="true"
       d="m 20.595156,50.048443 a 5.647059,0.66435987 0 0 1 -0.03214,0.07078" />
    <path
       style="fill:#008000"
       id="path3367"
       sodipodi:type="arc"
       sodipodi:cx="17.716263"
       sodipodi:cy="49.162628"
       sodipodi:rx="7.9723182"
       sodipodi:ry="8.083045"
       sodipodi:start="0"
       sodipodi:end="0.10673561"
       sodipodi:open="true"
       d="m 25.688581,49.162628 a 7.9723182,8.083045 0 0 1 -0.04537,0.861112" />
    <ellipse
       style="fill:#000000"
       id="path3373"
       cx="10.297578"
       cy="54.865051"
       rx="2.9896195"
       ry="2.9342561" />
    <rect
       style="fill:#000000"
       id="rect3377"
       width="3.4325259"
       height="16.387543"
       x="8.6366787"
       y="37.093426" />
    <rect
       style="fill:#ff0000"
       id="rect3386"
       width="1.9930793"
       height="16.941177"
       x="9.4117651"
       y="37.757786" />
    <ellipse
       style="fill:#ff0000"
       id="path3388"
       cx="10.297578"
       cy="54.809685"
       rx="2.1038063"
       ry="1.8823528" />
    <rect
       style="fill:#ffffff"
       id="rect3390"
       width="2.1038063"
       height="3.8754325"
       x="9.3010378"
       y="37.536331" />
    <rect
       style="fill:#000000"
       id="rect3395"
       width="1.6608996"
       height="0.88581318"
       x="9.9653997"
       y="42.408306" />
    <rect
       style="fill:#000000"
       id="rect3395-2"
       width="1.6608996"
       height="0.88581318"
       x="10.02076"
       y="48.387543" />
    <rect
       style="fill:#000000"
       id="rect3395-7"
       width="1.6608996"
       height="0.88581318"
       x="10.020762"
       y="44.512112" />
    <rect
       style="fill:#000000"
       id="rect3395-4"
       width="1.6608996"
       height="0.88581318"
       x="10.020761"
       y="46.394463" />
    <rect
       style="fill:#000000"
       id="rect3395-47"
       width="1.6608996"
       height="0.88581318"
       x="10.020761"
       y="50.159172" />
    <path
       style="fill:#000000"
       id="path3414"
       d="m 15.706203,39.916806 c 0.336224,-0.426464 0.680269,-0.846093 0.994687,-1.289302 0.208033,-0.278974 0.388908,-0.575913 0.579193,-0.86664 0.129138,-0.194369 0.25329,-0.393368 0.396955,-0.577416 0.145982,-0.187464 0.309198,-0.360122 0.499821,-0.502079 0.233727,-0.140505 0.506398,-0.179987 0.75719,-0.281964 0.252241,-0.100614 0.514339,-0.171467 0.785186,-0.192142 0.693176,-0.03429 1.271059,-0.151865 1.724816,0.356405 0.184875,0.202749 0.30086,0.448686 0.415999,0.693967 0.125381,0.227916 0.276548,0.439669 0.384817,0.67682 0.125878,0.249055 0.234963,0.505162 0.372155,0.749204 0.136188,0.272338 0.310942,0.522275 0.458654,0.788083 0.110343,0.238986 0.233282,0.478402 0.39388,0.687178 0.180244,0.202118 0.397532,0.376671 0.638252,0.501321 0.203964,0.128777 0.432378,0.182521 0.668663,0.209395 0.437303,0.02722 1.501448,0.02317 -0.39898,0.0076 0.259505,-0.0402 0.503562,-0.142721 0.733436,-0.266353 0.245354,-0.129262 0.470151,-0.288899 0.695692,-0.448989 0.233208,-0.136327 0.442421,-0.299489 0.641128,-0.481322 0.225934,-0.209369 0.416771,-0.458036 0.599556,-0.70574 0.175947,-0.222619 0.353157,-0.444075 0.539528,-0.658054 0.114773,-0.150247 0.270882,-0.254996 0.407764,-0.381109 0.122035,-0.158131 0.268834,-0.294313 0.398447,-0.445609 0.144874,-0.188617 0.315781,-0.353198 0.489075,-0.514955 0.156071,-0.178079 0.34135,-0.296797 0.566726,-0.363685 0.584876,-0.09702 1.208256,-0.139336 1.781703,0.02548 0.208753,0.09318 0.407751,0.212044 0.569639,0.374677 0.143585,0.126507 0.277213,0.264784 0.381679,0.42593 0.09874,0.201106 0.199551,0.401425 0.2749,0.612696 0.05606,0.24448 0.16921,0.461992 0.304102,0.670376 0.175068,0.164125 0.296235,0.353335 0.404589,0.564611 0.128107,0.212873 0.271022,0.415608 0.374321,0.642317 0.08883,0.199619 0.266142,0.283168 0.448899,0.376074 0.201015,0.138192 0.404886,0.251883 0.641888,0.312998 0.243698,0.02719 0.47032,0.124176 0.698308,0.212606 0.233547,0.105748 0.491175,0.114329 0.735819,0.1743 0,0 -1.097042,0.15013 -1.097042,0.15013 l 0,0 c -0.250639,-0.04572 -0.501824,-0.08905 -0.737887,-0.190278 -0.229475,-0.08177 -0.456139,-0.165855 -0.697428,-0.205587 -0.232156,-0.07981 -0.434675,-0.208349 -0.644352,-0.333743 -0.197104,-0.105382 -0.362354,-0.236909 -0.454396,-0.447739 -0.108735,-0.222233 -0.253809,-0.422571 -0.374138,-0.638344 -0.107892,-0.207405 -0.252154,-0.377795 -0.404063,-0.554537 -0.13585,-0.216027 -0.241578,-0.446105 -0.305202,-0.694283 -0.07609,-0.201303 -0.16923,-0.396683 -0.273568,-0.584844 -0.10971,-0.148929 -0.241365,-0.279119 -0.37992,-0.40136 -0.166937,-0.139866 -0.353227,-0.256971 -0.563626,-0.319132 -0.409734,-0.0827 -0.965819,-0.04021 0.733845,-0.04843 0.304136,-0.0015 -0.621217,-0.0043 -0.320626,0.02321 -0.22286,0.04174 -0.412301,0.126735 -0.560514,0.30587 -0.166216,0.16273 -0.345394,0.312866 -0.487896,0.498957 -0.118152,0.164515 -0.284354,0.287071 -0.399171,0.455786 -0.119161,0.143048 -0.294791,0.223147 -0.407386,0.375965 -0.181292,0.215019 -0.363956,0.428349 -0.538923,0.649005 -0.181673,0.255774 -0.379893,0.507579 -0.601222,0.728526 -0.201606,0.182154 -0.397159,0.368934 -0.642279,0.494207 -0.226343,0.163266 -0.449523,0.329317 -0.696815,0.460174 -0.230286,0.139531 -0.478818,0.242919 -0.739245,0.312211 -0.590966,0.0089 -1.199378,0.05248 -1.792373,-0.01211 -0.239826,-0.04198 -0.466398,-0.119129 -0.673726,-0.249934 -0.241367,-0.146522 -0.466809,-0.326167 -0.64227,-0.548877 -0.151611,-0.221089 -0.282282,-0.456113 -0.394593,-0.69965 -0.151664,-0.263771 -0.321226,-0.517183 -0.458702,-0.789035 -0.135012,-0.247349 -0.245303,-0.505374 -0.372496,-0.756379 -0.114221,-0.233819 -0.267206,-0.445112 -0.38483,-0.677139 -0.11019,-0.235764 -0.230385,-0.467921 -0.413744,-0.656806 -0.426204,-0.393359 -1.190927,-0.281354 0.473556,-0.273898 -0.27024,0.0043 -0.526499,0.06002 -0.780035,0.154281 -0.07768,0.03252 -0.153157,0.07043 -0.232092,0.09975 -0.171581,0.06375 -0.361941,0.06514 -0.522693,0.160003 -0.197474,0.118958 -0.354238,0.291121 -0.497167,0.470319 -0.151671,0.173232 -0.266472,0.376897 -0.39626,0.566591 -0.197722,0.286058 -0.36568,0.593143 -0.579334,0.86897 -0.310833,0.44568 -0.6524,0.867444 -0.994672,1.289053 0,0 -1.105202,-0.06758 -1.105202,-0.06758 z"
       inkscape:connector-curvature="0" />
    <path
       style="fill:#000000"
       id="path3414-2"
       d="m 14.955704,46.098834 c 0.336224,-0.426464 0.680269,-0.846093 0.994687,-1.289302 0.208033,-0.278974 0.388908,-0.575913 0.579193,-0.86664 0.129138,-0.194369 0.25329,-0.393368 0.396955,-0.577416 0.145982,-0.187464 0.309198,-0.360122 0.499821,-0.502079 0.233727,-0.140505 0.506398,-0.179987 0.75719,-0.281964 0.252241,-0.100614 0.514339,-0.171467 0.785186,-0.192142 0.693176,-0.03429 1.271059,-0.151865 1.724816,0.356405 0.184875,0.202749 0.30086,0.448686 0.415999,0.693967 0.125381,0.227916 0.276548,0.439669 0.384817,0.67682 0.125878,0.249055 0.234963,0.505162 0.372155,0.749204 0.136188,0.272338 0.310942,0.522275 0.458654,0.788083 0.110343,0.238986 0.233282,0.478402 0.39388,0.687178 0.180244,0.202118 0.397532,0.376671 0.638252,0.501321 0.203964,0.128777 0.432378,0.182521 0.668663,0.209395 0.437303,0.02722 1.501448,0.02317 -0.39898,0.0076 0.259505,-0.0402 0.503562,-0.142721 0.733436,-0.266353 0.245354,-0.129262 0.470151,-0.288899 0.695692,-0.448989 0.233208,-0.136327 0.442421,-0.299489 0.641128,-0.481322 0.225934,-0.209369 0.416771,-0.458036 0.599556,-0.70574 0.175947,-0.222619 0.353157,-0.444075 0.539528,-0.658054 0.114773,-0.150247 0.270882,-0.254996 0.407764,-0.381109 0.122035,-0.158131 0.268834,-0.294313 0.398447,-0.445609 0.144874,-0.188617 0.315781,-0.353198 0.489075,-0.514955 0.156071,-0.178079 0.34135,-0.296797 0.566726,-0.363685 0.584876,-0.09702 1.208256,-0.139336 1.781703,0.02548 0.208753,0.09318 0.407751,0.212044 0.569639,0.374677 0.143585,0.126507 0.277213,0.264784 0.381679,0.42593 0.09874,0.201106 0.199551,0.401425 0.2749,0.612696 0.05606,0.24448 0.16921,0.461992 0.304102,0.670376 0.175068,0.164125 0.296235,0.353335 0.404589,0.564611 0.128107,0.212873 0.271022,0.415608 0.374321,0.642317 0.08883,0.199619 0.266142,0.283168 0.448899,0.376074 0.201015,0.138192 0.404886,0.251883 0.641888,0.312998 0.243698,0.02719 0.47032,0.124176 0.698308,0.212606 0.233547,0.105748 0.491175,0.114329 0.735819,0.1743 0,0 -1.097042,0.15013 -1.097042,0.15013 l 0,0 c -0.250639,-0.04572 -0.501824,-0.08905 -0.737887,-0.190278 -0.229475,-0.08177 -0.456139,-0.165855 -0.697428,-0.205587 -0.232156,-0.07981 -0.434675,-0.208349 -0.644352,-0.333743 -0.197104,-0.105382 -0.362354,-0.236909 -0.454396,-0.447739 -0.108735,-0.222233 -0.253809,-0.422571 -0.374138,-0.638344 -0.107892,-0.207405 -0.252154,-0.377795 -0.404063,-0.554537 -0.13585,-0.216027 -0.241578,-0.446105 -0.305202,-0.694283 -0.07609,-0.201303 -0.16923,-0.396683 -0.273568,-0.584844 -0.10971,-0.148929 -0.241365,-0.279119 -0.37992,-0.40136 -0.166937,-0.139866 -0.353227,-0.256971 -0.563626,-0.319132 -0.409734,-0.0827 -0.965819,-0.04021 0.733845,-0.04843 0.304136,-0.0015 -0.621217,-0.0043 -0.320626,0.02321 -0.22286,0.04174 -0.412301,0.126735 -0.560514,0.30587 -0.166216,0.16273 -0.345394,0.312866 -0.487896,0.498957 -0.118152,0.164515 -0.284354,0.287071 -0.399171,0.455786 -0.119161,0.143048 -0.294791,0.223147 -0.407386,0.375965 -0.181292,0.215019 -0.363956,0.428349 -0.538923,0.649005 -0.181673,0.255774 -0.379893,0.507579 -0.601222,0.728526 -0.201606,0.182154 -0.397159,0.368934 -0.642279,0.494207 -0.226343,0.163266 -0.449523,0.329317 -0.696815,0.460174 -0.230286,0.139531 -0.478818,0.242919 -0.739245,0.312211 -0.590966,0.0089 -1.199378,0.05248 -1.792373,-0.01211 -0.239826,-0.04198 -0.466398,-0.119129 -0.673726,-0.249934 -0.241367,-0.146522 -0.466809,-0.326167 -0.64227,-0.548877 -0.151611,-0.221089 -0.282282,-0.456113 -0.394593,-0.69965 -0.151664,-0.263771 -0.321226,-0.517183 -0.458702,-0.789035 -0.135012,-0.247349 -0.245303,-0.505374 -0.372496,-0.756379 -0.114221,-0.233819 -0.267206,-0.445112 -0.38483,-0.677139 -0.11019,-0.235764 -0.230385,-0.467921 -0.413744,-0.656806 -0.426204,-0.393359 -1.190927,-0.281354 0.473556,-0.273898 -0.27024,0.0043 -0.526499,0.06002 -0.780035,0.154281 -0.07768,0.03252 -0.153157,0.07043 -0.232092,0.09975 -0.171581,0.06375 -0.361941,0.06514 -0.522693,0.160003 -0.197474,0.118958 -0.354238,0.291121 -0.497167,0.470319 -0.151671,0.173232 -0.266472,0.376897 -0.39626,0.566591 -0.197722,0.286058 -0.36568,0.593143 -0.579334,0.86897 -0.310833,0.44568 -0.6524,0.867444 -0.994672,1.289053 0,0 -1.105202,-0.06758 -1.105202,-0.06758 z"
       inkscape:connector-curvature="0" />
    <path
       style="fill:#000000"
       id="path3414-0"
       d="m 14.955704,52.299526 c 0.336224,-0.426464 0.680269,-0.846093 0.994687,-1.289302 0.208033,-0.278974 0.388908,-0.575913 0.579193,-0.86664 0.129138,-0.194369 0.25329,-0.393368 0.396955,-0.577416 0.145982,-0.187464 0.309198,-0.360122 0.499821,-0.502079 0.233727,-0.140505 0.506398,-0.179987 0.75719,-0.281964 0.252241,-0.100614 0.514339,-0.171467 0.785186,-0.192142 0.693176,-0.03429 1.271059,-0.151865 1.724816,0.356405 0.184875,0.202749 0.30086,0.448686 0.415999,0.693967 0.125381,0.227916 0.276548,0.439669 0.384817,0.67682 0.125878,0.249055 0.234963,0.505162 0.372155,0.749204 0.136188,0.272338 0.310942,0.522275 0.458654,0.788083 0.110343,0.238986 0.233282,0.478402 0.39388,0.687178 0.180244,0.202118 0.397532,0.376671 0.638252,0.501321 0.203964,0.128777 0.432378,0.182521 0.668663,0.209395 0.437303,0.02722 1.501448,0.02317 -0.39898,0.0076 0.259505,-0.0402 0.503562,-0.142721 0.733436,-0.266353 0.245354,-0.129262 0.470151,-0.288899 0.695692,-0.448989 0.233208,-0.136327 0.442421,-0.299489 0.641128,-0.481322 0.225934,-0.209369 0.416771,-0.458036 0.599556,-0.70574 0.175947,-0.222619 0.353157,-0.444075 0.539528,-0.658054 0.114773,-0.150247 0.270882,-0.254996 0.407764,-0.381109 0.122035,-0.158131 0.268834,-0.294313 0.398447,-0.445609 0.144874,-0.188617 0.315781,-0.353198 0.489075,-0.514955 0.156071,-0.178079 0.34135,-0.296797 0.566726,-0.363685 0.584876,-0.09702 1.208256,-0.139336 1.781703,0.02548 0.208753,0.09318 0.407751,0.212044 0.569639,0.374677 0.143585,0.126507 0.277213,0.264784 0.381679,0.42593 0.09874,0.201106 0.199551,0.401425 0.2749,0.612696 0.05606,0.24448 0.16921,0.461992 0.304102,0.670376 0.175068,0.164125 0.296235,0.353335 0.404589,0.564611 0.128107,0.212873 0.271022,0.415608 0.374321,0.642317 0.08883,0.199619 0.266142,0.283168 0.448899,0.376074 0.201015,0.138192 0.404886,0.251883 0.641888,0.312998 0.243698,0.02719 0.47032,0.124176 0.698308,0.212606 0.233547,0.105748 0.491175,0.114329 0.735819,0.1743 0,0 -1.097042,0.15013 -1.097042,0.15013 l 0,0 c -0.250639,-0.04572 -0.501824,-0.08905 -0.737887,-0.190278 -0.229475,-0.08177 -0.456139,-0.165855 -0.697428,-0.205587 -0.232156,-0.07981 -0.434675,-0.208349 -0.644352,-0.333743 -0.197104,-0.105382 -0.362354,-0.236909 -0.454396,-0.447739 -0.108735,-0.222233 -0.253809,-0.422571 -0.374138,-0.638344 -0.107892,-0.207405 -0.252154,-0.377795 -0.404063,-0.554537 -0.13585,-0.216027 -0.241578,-0.446105 -0.305202,-0.694283 -0.07609,-0.201303 -0.16923,-0.396683 -0.273568,-0.584844 -0.10971,-0.148929 -0.241365,-0.279119 -0.37992,-0.40136 -0.166937,-0.139866 -0.353227,-0.256971 -0.563626,-0.319132 -0.409734,-0.0827 -0.965819,-0.04021 0.733845,-0.04843 0.304136,-0.0015 -0.621217,-0.0043 -0.320626,0.02321 -0.22286,0.04174 -0.412301,0.126735 -0.560514,0.30587 -0.166216,0.16273 -0.345394,0.312866 -0.487896,0.498957 -0.118152,0.164515 -0.284354,0.287071 -0.399171,0.455786 -0.119161,0.143048 -0.294791,0.223147 -0.407386,0.375965 -0.181292,0.215019 -0.363956,0.428349 -0.538923,0.649005 -0.181673,0.255774 -0.379893,0.507579 -0.601222,0.728526 -0.201606,0.182154 -0.397159,0.368934 -0.642279,0.494207 -0.226343,0.163266 -0.449523,0.329317 -0.696815,0.460174 -0.230286,0.139531 -0.478818,0.242919 -0.739245,0.312211 -0.590966,0.0089 -1.199378,0.05248 -1.792373,-0.01211 -0.239826,-0.04198 -0.466398,-0.119129 -0.673726,-0.249934 -0.241367,-0.146522 -0.466809,-0.326167 -0.64227,-0.548877 -0.151611,-0.221089 -0.282282,-0.456113 -0.394593,-0.69965 -0.151664,-0.263771 -0.321226,-0.517183 -0.458702,-0.789035 -0.135012,-0.247349 -0.245303,-0.505374 -0.372496,-0.756379 -0.114221,-0.233819 -0.267206,-0.445112 -0.38483,-0.677139 -0.11019,-0.235764 -0.230385,-0.467921 -0.413744,-0.656806 -0.426204,-0.393359 -1.190927,-0.281354 0.473556,-0.273898 -0.27024,0.0043 -0.526499,0.06002 -0.780035,0.154281 -0.07768,0.03252 -0.153157,0.07043 -0.232092,0.09975 -0.171581,0.06375 -0.361941,0.06514 -0.522693,0.160003 -0.197474,0.118958 -0.354238,0.291121 -0.497167,0.470319 -0.151671,0.173232 -0.266472,0.376897 -0.39626,0.566591 -0.197722,0.286058 -0.36568,0.593143 -0.579334,0.86897 -0.310833,0.44568 -0.6524,0.867444 -0.994672,1.289053 0,0 -1.105202,-0.06758 -1.105202,-0.06758 z"
       inkscape:connector-curvature="0" />
  </g>
</svg>
