<?xml version="1.0" encoding="UTF-8" standalone="no"?>
<!-- Created with Inkscape (http://www.inkscape.org/) -->

<svg
   xmlns:dc="http://purl.org/dc/elements/1.1/"
   xmlns:cc="http://creativecommons.org/ns#"
   xmlns:rdf="http://www.w3.org/1999/02/22-rdf-syntax-ns#"
   xmlns:svg="http://www.w3.org/2000/svg"
   xmlns="http://www.w3.org/2000/svg"
   xmlns:sodipodi="http://sodipodi.sourceforge.net/DTD/sodipodi-0.dtd"
   xmlns:inkscape="http://www.inkscape.org/namespaces/inkscape"
   version="1.1"
   width="100%"
   height="100%"
   viewBox="0 0 512 512"
   id="svg2"
   xml:space="preserve"
   inkscape:version="0.48.4 r9939"
   sodipodi:docname="ParaViewStripes.svg"><sodipodi:namedview
     pagecolor="#ffffff"
     bordercolor="#666666"
     borderopacity="1"
     objecttolerance="10"
     gridtolerance="10"
     guidetolerance="10"
     inkscape:pageopacity="0"
     inkscape:pageshadow="2"
     inkscape:window-width="1920"
     inkscape:window-height="1172"
     id="namedview37"
     showgrid="false"
     inkscape:zoom="1"
     inkscape:cx="501.62781"
     inkscape:cy="267"
     inkscape:window-x="0"
     inkscape:window-y="0"
     inkscape:window-maximized="1"
     inkscape:current-layer="svg2" /><metadata
     id="metadata87"><rdf:RDF><cc:Work
         rdf:about=""><dc:format>image/svg+xml</dc:format><dc:type
           rdf:resource="http://purl.org/dc/dcmitype/StillImage" /><dc:title></dc:title></cc:Work></rdf:RDF></metadata><defs
     id="defs85" /><g
     transform="translate(-59.05,22.9)"
     id="g23"><polygon
       points="270.3,66.9 182.4,399.3 75.5,399.3 163.4,66.9 "
       id="polygon25"
       style="fill:#be2128;stroke:#000000;stroke-width:7;stroke-miterlimit:10" /><polygon
       points="412.4,66.9 324.5,399.3 217.7,399.3 305.5,66.9 "
       id="polygon27"
       style="fill:#249847;stroke:#000000;stroke-width:7;stroke-miterlimit:10" /><polygon
       points="554.6,66.9 466.7,399.3 359.8,399.3 447.7,66.9 "
       id="polygon29"
       style="fill:#064f8c;stroke:#000000;stroke-width:7;stroke-miterlimit:10" /></g><g
     id="PVCINEMA"
     style="display:none"
     transform="translate(0,-22)"><rect
       width="316.89999"
       height="5.9000001"
       x="-137.7"
       y="315.20001"
       transform="matrix(0.2065,0.9784,-0.9784,0.2065,327.7365,232.0397)"
       id="rect32"
       style="fill:#010101;display:inline" /><rect
       width="316.89999"
       height="5.9000001"
       x="340.10001"
       y="212"
       transform="matrix(0.2065,0.9784,-0.9784,0.2065,605.9442,-317.2492)"
       id="rect34"
       style="fill:#010101;display:inline" /><path
       d="m 466,59.7 c -5.5,1.2 -10.5,-1 -11.3,-4.7 l -4.5,-21.1 c -0.8,-3.8 3,-7.8 8.5,-8.9 l 2.7,-0.6 -2.8,-13.1 -484,102.1 2.8,13.1 2.7,-0.6 c 5.5,-1.2 10.5,1 11.3,4.7 l 4.5,21.1 c 0.8,3.8 -3,7.8 -8.5,8.9 l -2.7,0.6 2.8,13.1 484,-102.1 -2.8,-13.1 -2.7,0.6 z m -424.8,89.6 -5.4,1.1 c -5.5,1.2 -10.5,-1 -11.3,-4.7 L 20,124.6 c -0.8,-3.8 3,-7.8 8.5,-8.9 l 5.4,-1.1 c 5.5,-1.2 10.5,1 11.3,4.7 l 4.5,21.1 c 0.8,3.8 -3,7.8 -8.5,8.9 z M 95,138 l -5.4,1.1 c -5.5,1.2 -10.5,-1 -11.3,-4.7 l -4.5,-21.1 c -0.8,-3.8 3,-7.8 8.5,-8.9 l 5.4,-1.1 c 5.5,-1.2 10.5,1 11.3,4.7 l 4.5,21.1 c 0.7,3.7 -3,7.7 -8.5,8.9 z m 53.8,-11.4 -5.4,1.1 c -5.5,1.2 -10.5,-1 -11.3,-4.7 l -4.5,-21.1 c -0.8,-3.8 3,-7.8 8.5,-8.9 l 5.4,-1.1 c 5.5,-1.2 10.5,1 11.3,4.7 l 4.5,21.1 c 0.7,3.8 -3.1,7.8 -8.5,8.9 z m 53.7,-11.3 -5.4,1.1 c -5.5,1.2 -10.5,-1 -11.3,-4.7 l -4.5,-21.1 c -0.8,-3.8 3,-7.8 8.5,-8.9 l 5.4,-1.1 c 5.5,-1.2 10.5,1 11.3,4.7 l 4.5,21.1 c 0.8,3.7 -3,7.7 -8.5,8.9 z m 53.8,-11.4 -5.4,1.1 c -5.5,1.2 -10.5,-1 -11.3,-4.7 l -4.5,-21.1 c -0.8,-3.8 3,-7.8 8.5,-8.9 l 5.4,-1.1 c 5.5,-1.2 10.5,1 11.3,4.7 l 4.5,21.1 c 0.8,3.8 -3,7.8 -8.5,8.9 z m 53.8,-11.3 -5.4,1.1 c -5.5,1.2 -10.5,-1 -11.3,-4.7 l -4.5,-21.1 c -0.8,-3.8 3,-7.8 8.5,-8.9 l 5.4,-1.1 c 5.5,-1.2 10.5,1 11.3,4.7 l 4.5,21.1 c 0.7,3.7 -3.1,7.7 -8.5,8.9 z m 53.8,-11.4 -5.4,1.1 c -5.5,1.2 -10.5,-1 -11.3,-4.7 l -4.5,-21.1 c -0.8,-3.8 3,-7.8 8.5,-8.9 l 5.4,-1.1 c 5.5,-1.2 10.5,1 11.3,4.7 l 4.5,21.1 c 0.7,3.8 -3.1,7.8 -8.5,8.9 z m 53.7,-11.3 -5.4,1.1 c -5.5,1.2 -10.5,-1 -11.3,-4.7 l -4.5,-21.1 c -0.8,-3.8 3,-7.8 8.5,-8.9 l 5.4,-1.1 c 5.5,-1.2 10.5,1 11.3,4.7 l 4.5,21.1 c 0.8,3.7 -3,7.7 -8.5,8.9 z"
       id="path36"
       style="fill:#010101;display:inline"
       inkscape:connector-curvature="0" /><path
       d="m 539.9,409.8 c -5.5,1.2 -10.5,-1 -11.3,-4.7 L 524.1,384 c -0.8,-3.8 3,-7.8 8.5,-8.9 l 2.7,-0.6 -2.8,-13.1 -484,102.1 2.8,13.1 2.7,-0.6 c 5.5,-1.2 10.5,1 11.3,4.7 l 4.5,21.1 c 0.8,3.8 -3,7.8 -8.5,8.9 l -2.7,0.6 2.8,13.1 484,-102.1 -2.8,-13.1 -2.7,0.6 z m -424.8,89.6 -5.4,1.1 c -5.5,1.2 -10.5,-1 -11.3,-4.7 l -4.5,-21.1 c -0.8,-3.8 3,-7.8 8.5,-8.9 l 5.4,-1.1 c 5.5,-1.2 10.5,1 11.3,4.7 l 4.5,21.1 c 0.8,3.8 -3,7.8 -8.5,8.9 z m 53.8,-11.3 -5.4,1.1 c -5.5,1.2 -10.5,-1 -11.3,-4.7 l -4.5,-21.1 c -0.8,-3.8 3,-7.8 8.5,-8.9 l 5.4,-1.1 c 5.5,-1.2 10.5,1 11.3,4.7 l 4.5,21.1 c 0.7,3.7 -3.1,7.7 -8.5,8.9 z m 53.7,-11.4 -5.4,1.1 c -5.5,1.2 -10.5,-1 -11.3,-4.7 L 201.4,452 c -0.8,-3.8 3,-7.8 8.5,-8.9 l 5.4,-1.1 c 5.5,-1.2 10.5,1 11.3,4.7 l 4.5,21.1 c 0.8,3.8 -3,7.8 -8.5,8.9 z m 53.8,-11.3 -5.4,1.1 c -5.5,1.2 -10.5,-1 -11.3,-4.7 l -4.5,-21.1 c -0.8,-3.8 3,-7.8 8.5,-8.9 l 5.4,-1.1 c 5.5,-1.2 10.5,1 11.3,4.7 l 4.5,21.1 c 0.8,3.7 -3,7.7 -8.5,8.9 z m 53.8,-11.4 -5.4,1.1 c -5.5,1.2 -10.5,-1 -11.3,-4.7 L 309,429.3 c -0.8,-3.8 3,-7.8 8.5,-8.9 l 5.4,-1.1 c 5.5,-1.2 10.5,1 11.3,4.7 l 4.5,21.1 c 0.8,3.8 -3,7.8 -8.5,8.9 z m 53.8,-11.3 -5.4,1.1 c -5.5,1.2 -10.5,-1 -11.3,-4.7 L 362.8,418 c -0.8,-3.8 3,-7.8 8.5,-8.9 l 5.4,-1.1 c 5.5,-1.2 10.5,1 11.3,4.7 l 4.5,21.1 c 0.7,3.7 -3.1,7.7 -8.5,8.9 z m 53.7,-11.4 -5.4,1.1 c -5.5,1.2 -10.5,-1 -11.3,-4.7 l -4.5,-21.1 c -0.8,-3.8 3,-7.8 8.5,-8.9 l 5.4,-1.1 c 5.5,-1.2 10.5,1 11.3,4.7 l 4.5,21.1 c 0.8,3.8 -3,7.8 -8.5,8.9 z m 53.8,-11.3 -5.4,1.1 c -5.5,1.2 -10.5,-1 -11.3,-4.7 l -4.5,-21.1 c -0.8,-3.8 3,-7.8 8.5,-8.9 l 5.4,-1.1 c 5.5,-1.2 10.5,1 11.3,4.7 l 4.5,21.1 c 0.8,3.7 -3,7.7 -8.5,8.9 z"
       id="path38"
       style="fill:#010101;display:inline"
       inkscape:connector-curvature="0" /><g
       id="g40"
       style="display:inline"><polygon
         points="187.2,412.8 107.3,429.6 120.5,167.4 200.4,150.6 "
         id="polygon42"
         style="fill:#be2128" /><path
         d="m 188.7,414 -83,17.5 L 119,166.2 202,148.7 188.7,414 z m -79.7,13.7 76.7,-16.2 13,-259 -76.7,16.2 -13,259 z"
         id="path44"
         inkscape:connector-curvature="0" /></g><g
       id="g46"
       style="display:inline"><polygon
         points="293.4,390.4 213.5,407.2 226.7,145 306.6,128.2 "
         id="polygon48"
         style="fill:#249847" /><path
         d="m 294.9,391.6 -83,17.5 13.4,-265.4 83,-17.5 -13.4,265.4 z m -79.7,13.7 76.7,-16.2 13,-259 -76.7,16.2 -13,259 z"
         id="path50"
         inkscape:connector-curvature="0" /></g><g
       id="g52"
       style="display:inline"><polygon
         points="399.6,367.9 319.7,384.8 332.9,122.6 412.8,105.7 "
         id="polygon54"
         style="fill:#064f8c" /><path
         d="m 401.1,369.2 -83,17.5 13.4,-265.4 83,-17.5 -13.4,265.4 z m -79.7,13.7 76.7,-16.2 13,-259 -76.7,16.2 -13,259 z"
         id="path56"
         inkscape:connector-curvature="0" /></g></g><g
     id="PV"
     style="display:none"
     transform="translate(0,-22)"><polygon
       points="95,426.7 -11.9,426.7 76,94.2 182.9,94.2 "
       id="polygon59"
       style="fill:#be2128;stroke:#000000;stroke-width:7;stroke-miterlimit:10;display:inline" /><polygon
       points="237.2,426.7 130.3,426.7 218.1,94.2 325,94.2 "
       id="polygon61"
       style="fill:#249847;stroke:#000000;stroke-width:7;stroke-miterlimit:10;display:inline" /><polygon
       points="379.3,426.7 272.4,426.7 360.3,94.2 467.2,94.2 "
       id="polygon63"
       style="fill:#064f8c;stroke:#000000;stroke-width:7;stroke-miterlimit:10;display:inline" /></g><g
     id="PVWEB"
     style="display:none"
     transform="translate(0,-22)"><g
       id="g66"
       style="display:inline"><polygon
         points="83.6,444.6 34.1,444.6 61.1,98 176.6,98 "
         id="polygon68"
         style="fill:#be2128" /><polygon
         points="230,444.6 114.5,444.6 253.9,98 270.5,98 "
         id="polygon70"
         style="fill:#269847" /><polygon
         points="309.6,444.6 260.1,444.6 353.1,98 468.6,98 "
         id="polygon72"
         style="fill:#054f8c" /></g><g
       id="g74"
       style="display:inline"><polygon
         points="83.6,444.6 34.1,444.6 61.1,98 176.6,98 "
         id="polygon76"
         style="fill:none;stroke:#010101;stroke-width:7;stroke-miterlimit:10" /><polygon
         points="230,444.6 114.5,444.6 253.9,98 270.5,98 "
         id="polygon78"
         style="fill:none;stroke:#010101;stroke-width:7;stroke-miterlimit:10" /><polygon
         points="309.6,444.6 260.1,444.6 353.1,98 468.6,98 "
         id="polygon80"
         style="fill:none;stroke:#010101;stroke-width:7;stroke-miterlimit:10" /></g></g><g
     id="PVCATA"
     transform="translate(0,-22)" /></svg>