<?xml version="1.0" encoding="UTF-8" standalone="no"?>
<!-- Created with Inkscape (http://www.inkscape.org/) -->

<svg
   xmlns:dc="http://purl.org/dc/elements/1.1/"
   xmlns:cc="http://creativecommons.org/ns#"
   xmlns:rdf="http://www.w3.org/1999/02/22-rdf-syntax-ns#"
   xmlns:svg="http://www.w3.org/2000/svg"
   xmlns="http://www.w3.org/2000/svg"
   xmlns:xlink="http://www.w3.org/1999/xlink"
   xmlns:sodipodi="http://sodipodi.sourceforge.net/DTD/sodipodi-0.dtd"
   xmlns:inkscape="http://www.inkscape.org/namespaces/inkscape"
   sodipodi:docname="fem-frequency-analysis.svg"
   inkscape:version="0.48.4 r"
   version="1.1"
   id="svg2816"
   height="64px"
   width="64px">
  <sodipodi:namedview
     id="base"
     pagecolor="#ffffff"
     bordercolor="#666666"
     borderopacity="1.0"
     inkscape:pageopacity="0.0"
     inkscape:pageshadow="2"
     inkscape:zoom="4.092302"
     inkscape:cx="43.082373"
     inkscape:cy="94.296486"
     inkscape:current-layer="layer1"
     showgrid="true"
     inkscape:document-units="px"
     inkscape:grid-bbox="true"
     inkscape:snap-bbox="true"
     inkscape:bbox-paths="true"
     inkscape:bbox-nodes="true"
     inkscape:snap-bbox-edge-midpoints="true"
     inkscape:snap-bbox-midpoints="true"
     inkscape:object-paths="true"
     inkscape:object-nodes="true"
     inkscape:window-width="1280"
     inkscape:window-height="1002"
     inkscape:window-x="1272"
     inkscape:window-y="-8"
     inkscape:window-maximized="1" />
  <defs
     id="defs2818">
    <linearGradient
       id="linearGradient3808">
      <stop
         style="stop-color:#000000;stop-opacity:0;"
         offset="0"
         id="stop3810" />
      <stop
         id="stop3818"
         offset="0.76605743"
         style="stop-color:#000000;stop-opacity:0.26050422;" />
      <stop
         style="stop-color:#000000;stop-opacity:1;"
         offset="1"
         id="stop3812" />
    </linearGradient>
    <linearGradient
       id="linearGradient3681">
      <stop
         style="stop-color:#fff110;stop-opacity:1;"
         offset="0"
         id="stop3697" />
      <stop
         id="stop3685"
         offset="1"
         style="stop-color:#cf7008;stop-opacity:1;" />
    </linearGradient>
    <inkscape:perspective
       id="perspective2824"
       inkscape:persp3d-origin="32 : 21.333333 : 1"
       inkscape:vp_z="64 : 32 : 1"
       inkscape:vp_y="0 : 1000 : 0"
       inkscape:vp_x="0 : 32 : 1"
       sodipodi:type="inkscape:persp3d" />
    <inkscape:perspective
       sodipodi:type="inkscape:persp3d"
       inkscape:vp_x="0 : 0.5 : 1"
       inkscape:vp_y="0 : 1000 : 0"
       inkscape:vp_z="1 : 0.5 : 1"
       inkscape:persp3d-origin="0.5 : 0.33333333 : 1"
       id="perspective3622" />
    <inkscape:perspective
       sodipodi:type="inkscape:persp3d"
       inkscape:vp_x="0 : 0.5 : 1"
       inkscape:vp_y="0 : 1000 : 0"
       inkscape:vp_z="1 : 0.5 : 1"
       inkscape:persp3d-origin="0.5 : 0.33333333 : 1"
       id="perspective3622-9" />
    <inkscape:perspective
       sodipodi:type="inkscape:persp3d"
       inkscape:vp_x="0 : 0.5 : 1"
       inkscape:vp_y="0 : 1000 : 0"
       inkscape:vp_z="1 : 0.5 : 1"
       inkscape:persp3d-origin="0.5 : 0.33333333 : 1"
       id="perspective3653" />
    <inkscape:perspective
       sodipodi:type="inkscape:persp3d"
       inkscape:vp_x="0 : 0.5 : 1"
       inkscape:vp_y="0 : 1000 : 0"
       inkscape:vp_z="1 : 0.5 : 1"
       inkscape:persp3d-origin="0.5 : 0.33333333 : 1"
       id="perspective3675" />
    <inkscape:perspective
       sodipodi:type="inkscape:persp3d"
       inkscape:vp_x="0 : 0.5 : 1"
       inkscape:vp_y="0 : 1000 : 0"
       inkscape:vp_z="1 : 0.5 : 1"
       inkscape:persp3d-origin="0.5 : 0.33333333 : 1"
       id="perspective3697" />
    <inkscape:perspective
       sodipodi:type="inkscape:persp3d"
       inkscape:vp_x="0 : 0.5 : 1"
       inkscape:vp_y="0 : 1000 : 0"
       inkscape:vp_z="1 : 0.5 : 1"
       inkscape:persp3d-origin="0.5 : 0.33333333 : 1"
       id="perspective3720" />
    <inkscape:perspective
       sodipodi:type="inkscape:persp3d"
       inkscape:vp_x="0 : 0.5 : 1"
       inkscape:vp_y="0 : 1000 : 0"
       inkscape:vp_z="1 : 0.5 : 1"
       inkscape:persp3d-origin="0.5 : 0.33333333 : 1"
       id="perspective3742" />
    <inkscape:perspective
       sodipodi:type="inkscape:persp3d"
       inkscape:vp_x="0 : 0.5 : 1"
       inkscape:vp_y="0 : 1000 : 0"
       inkscape:vp_z="1 : 0.5 : 1"
       inkscape:persp3d-origin="0.5 : 0.33333333 : 1"
       id="perspective3764" />
    <inkscape:perspective
       sodipodi:type="inkscape:persp3d"
       inkscape:vp_x="0 : 0.5 : 1"
       inkscape:vp_y="0 : 1000 : 0"
       inkscape:vp_z="1 : 0.5 : 1"
       inkscape:persp3d-origin="0.5 : 0.33333333 : 1"
       id="perspective3785" />
    <inkscape:perspective
       sodipodi:type="inkscape:persp3d"
       inkscape:vp_x="0 : 0.5 : 1"
       inkscape:vp_y="0 : 1000 : 0"
       inkscape:vp_z="1 : 0.5 : 1"
       inkscape:persp3d-origin="0.5 : 0.33333333 : 1"
       id="perspective3806" />
    <inkscape:perspective
       sodipodi:type="inkscape:persp3d"
       inkscape:vp_x="0 : 0.5 : 1"
       inkscape:vp_y="0 : 1000 : 0"
       inkscape:vp_z="1 : 0.5 : 1"
       inkscape:persp3d-origin="0.5 : 0.33333333 : 1"
       id="perspective3806-3" />
    <inkscape:perspective
       sodipodi:type="inkscape:persp3d"
       inkscape:vp_x="0 : 0.5 : 1"
       inkscape:vp_y="0 : 1000 : 0"
       inkscape:vp_z="1 : 0.5 : 1"
       inkscape:persp3d-origin="0.5 : 0.33333333 : 1"
       id="perspective3835" />
    <inkscape:perspective
       sodipodi:type="inkscape:persp3d"
       inkscape:vp_x="0 : 0.5 : 1"
       inkscape:vp_y="0 : 1000 : 0"
       inkscape:vp_z="1 : 0.5 : 1"
       inkscape:persp3d-origin="0.5 : 0.33333333 : 1"
       id="perspective3614" />
    <inkscape:perspective
       sodipodi:type="inkscape:persp3d"
       inkscape:vp_x="0 : 0.5 : 1"
       inkscape:vp_y="0 : 1000 : 0"
       inkscape:vp_z="1 : 0.5 : 1"
       inkscape:persp3d-origin="0.5 : 0.33333333 : 1"
       id="perspective3614-8" />
    <inkscape:perspective
       sodipodi:type="inkscape:persp3d"
       inkscape:vp_x="0 : 0.5 : 1"
       inkscape:vp_y="0 : 1000 : 0"
       inkscape:vp_z="1 : 0.5 : 1"
       inkscape:persp3d-origin="0.5 : 0.33333333 : 1"
       id="perspective3643" />
    <inkscape:perspective
       sodipodi:type="inkscape:persp3d"
       inkscape:vp_x="0 : 0.5 : 1"
       inkscape:vp_y="0 : 1000 : 0"
       inkscape:vp_z="1 : 0.5 : 1"
       inkscape:persp3d-origin="0.5 : 0.33333333 : 1"
       id="perspective3643-3" />
    <inkscape:perspective
       sodipodi:type="inkscape:persp3d"
       inkscape:vp_x="0 : 0.5 : 1"
       inkscape:vp_y="0 : 1000 : 0"
       inkscape:vp_z="1 : 0.5 : 1"
       inkscape:persp3d-origin="0.5 : 0.33333333 : 1"
       id="perspective3672" />
    <inkscape:perspective
       sodipodi:type="inkscape:persp3d"
       inkscape:vp_x="0 : 0.5 : 1"
       inkscape:vp_y="0 : 1000 : 0"
       inkscape:vp_z="1 : 0.5 : 1"
       inkscape:persp3d-origin="0.5 : 0.33333333 : 1"
       id="perspective3672-5" />
    <inkscape:perspective
       sodipodi:type="inkscape:persp3d"
       inkscape:vp_x="0 : 0.5 : 1"
       inkscape:vp_y="0 : 1000 : 0"
       inkscape:vp_z="1 : 0.5 : 1"
       inkscape:persp3d-origin="0.5 : 0.33333333 : 1"
       id="perspective3701" />
    <inkscape:perspective
       sodipodi:type="inkscape:persp3d"
       inkscape:vp_x="0 : 0.5 : 1"
       inkscape:vp_y="0 : 1000 : 0"
       inkscape:vp_z="1 : 0.5 : 1"
       inkscape:persp3d-origin="0.5 : 0.33333333 : 1"
       id="perspective3701-8" />
    <inkscape:perspective
       sodipodi:type="inkscape:persp3d"
       inkscape:vp_x="0 : 0.5 : 1"
       inkscape:vp_y="0 : 1000 : 0"
       inkscape:vp_z="1 : 0.5 : 1"
       inkscape:persp3d-origin="0.5 : 0.33333333 : 1"
       id="perspective3746" />
    <pattern
       inkscape:collect="always"
       xlink:href="#Strips1_1-4"
       id="pattern5231"
       patternTransform="matrix(0.67643728,-0.81829155,2.4578314,1.8844554,-26.450606,18.294947)" />
    <inkscape:perspective
       sodipodi:type="inkscape:persp3d"
       inkscape:vp_x="0 : 0.5 : 1"
       inkscape:vp_y="0 : 1000 : 0"
       inkscape:vp_z="1 : 0.5 : 1"
       inkscape:persp3d-origin="0.5 : 0.33333333 : 1"
       id="perspective5224" />
    <pattern
       inkscape:collect="always"
       patternUnits="userSpaceOnUse"
       width="2"
       height="1"
       patternTransform="matrix(0.66772843,-1.0037085,2.4261878,2.3114548,3.4760987,3.534923)"
       id="Strips1_1-4"
       inkscape:stockid="Stripes 1:1">
      <rect
         style="fill:black;stroke:none"
         x="0"
         y="-0.5"
         width="1"
         height="2"
         id="rect4483-4" />
    </pattern>
    <inkscape:perspective
       sodipodi:type="inkscape:persp3d"
       inkscape:vp_x="0 : 0.5 : 1"
       inkscape:vp_y="0 : 1000 : 0"
       inkscape:vp_z="1 : 0.5 : 1"
       inkscape:persp3d-origin="0.5 : 0.33333333 : 1"
       id="perspective5224-9" />
    <pattern
       inkscape:collect="always"
       xlink:href="#Strips1_1-6"
       id="pattern5231-4"
       patternTransform="matrix(0.66772843,-1.0037085,2.4261878,2.3114548,39.618381,8.9692804)" />
    <inkscape:perspective
       sodipodi:type="inkscape:persp3d"
       inkscape:vp_x="0 : 0.5 : 1"
       inkscape:vp_y="0 : 1000 : 0"
       inkscape:vp_z="1 : 0.5 : 1"
       inkscape:persp3d-origin="0.5 : 0.33333333 : 1"
       id="perspective5224-3" />
    <pattern
       inkscape:collect="always"
       patternUnits="userSpaceOnUse"
       width="2"
       height="1"
       patternTransform="matrix(0.66772843,-1.0037085,2.4261878,2.3114548,3.4760987,3.534923)"
       id="Strips1_1-6"
       inkscape:stockid="Stripes 1:1">
      <rect
         style="fill:black;stroke:none"
         x="0"
         y="-0.5"
         width="1"
         height="2"
         id="rect4483-0" />
    </pattern>
    <pattern
       inkscape:collect="always"
       xlink:href="#pattern5231-3"
       id="pattern5296"
       patternTransform="matrix(0.66513382,-1.0631299,2.4167603,2.4482973,-49.762569,2.9546807)" />
    <inkscape:perspective
       sodipodi:type="inkscape:persp3d"
       inkscape:vp_x="0 : 0.5 : 1"
       inkscape:vp_y="0 : 1000 : 0"
       inkscape:vp_z="1 : 0.5 : 1"
       inkscape:persp3d-origin="0.5 : 0.33333333 : 1"
       id="perspective5288" />
    <pattern
       inkscape:collect="always"
       xlink:href="#Strips1_1-4-3"
       id="pattern5231-3"
       patternTransform="matrix(0.66772843,-1.0037085,2.4261878,2.3114548,-26.336284,10.887197)" />
    <pattern
       inkscape:collect="always"
       patternUnits="userSpaceOnUse"
       width="2"
       height="1"
       patternTransform="matrix(0.66772843,-1.0037085,2.4261878,2.3114548,3.4760987,3.534923)"
       id="Strips1_1-4-3"
       inkscape:stockid="Stripes 1:1">
      <rect
         style="fill:black;stroke:none"
         x="0"
         y="-0.5"
         width="1"
         height="2"
         id="rect4483-4-6" />
    </pattern>
    <pattern
       inkscape:collect="always"
       xlink:href="#Strips1_1-9"
       id="pattern5330"
       patternTransform="matrix(0.42844886,-0.62155849,1.5567667,1.431396,27.948414,13.306456)" />
    <inkscape:perspective
       sodipodi:type="inkscape:persp3d"
       inkscape:vp_x="0 : 0.5 : 1"
       inkscape:vp_y="0 : 1000 : 0"
       inkscape:vp_z="1 : 0.5 : 1"
       inkscape:persp3d-origin="0.5 : 0.33333333 : 1"
       id="perspective5323" />
    <pattern
       inkscape:collect="always"
       patternUnits="userSpaceOnUse"
       width="2"
       height="1"
       patternTransform="matrix(0.66772843,-1.0037085,2.4261878,2.3114548,3.4760987,3.534923)"
       id="Strips1_1-9"
       inkscape:stockid="Stripes 1:1">
      <rect
         style="fill:black;stroke:none"
         x="0"
         y="-0.5"
         width="1"
         height="2"
         id="rect4483-3" />
    </pattern>
    <inkscape:perspective
       sodipodi:type="inkscape:persp3d"
       inkscape:vp_x="0 : 0.5 : 1"
       inkscape:vp_y="0 : 1000 : 0"
       inkscape:vp_z="1 : 0.5 : 1"
       inkscape:persp3d-origin="0.5 : 0.33333333 : 1"
       id="perspective5361" />
    <inkscape:perspective
       sodipodi:type="inkscape:persp3d"
       inkscape:vp_x="0 : 0.5 : 1"
       inkscape:vp_y="0 : 1000 : 0"
       inkscape:vp_z="1 : 0.5 : 1"
       inkscape:persp3d-origin="0.5 : 0.33333333 : 1"
       id="perspective5383" />
    <inkscape:perspective
       sodipodi:type="inkscape:persp3d"
       inkscape:vp_x="0 : 0.5 : 1"
       inkscape:vp_y="0 : 1000 : 0"
       inkscape:vp_z="1 : 0.5 : 1"
       inkscape:persp3d-origin="0.5 : 0.33333333 : 1"
       id="perspective5411" />
    <linearGradient
       gradientUnits="userSpaceOnUse"
       y2="40.168594"
       x2="4.0605712"
       y1="41.087898"
       x1="37.89756"
       id="linearGradient3687"
       xlink:href="#linearGradient3681"
       inkscape:collect="always" />
    <linearGradient
       gradientTransform="matrix(0.24227019,-0.62451792,0.66563096,0.22730625,-0.3950942,44.273138)"
       gradientUnits="userSpaceOnUse"
       y2="54.041203"
       x2="68.442062"
       y1="40.24213"
       x1="31.777767"
       id="linearGradient3695"
       xlink:href="#linearGradient3681"
       inkscape:collect="always" />
    <radialGradient
       r="14.375"
       fy="125"
       fx="55"
       cy="125"
       cx="55"
       gradientUnits="userSpaceOnUse"
       id="radialGradient278"
       xlink:href="#linearGradient12512"
       inkscape:collect="always" />
    <linearGradient
       id="linearGradient12512">
      <stop
         id="stop12513"
         offset="0.0000000"
         style="stop-color:#ffffff;stop-opacity:1.0000000;" />
      <stop
         id="stop12517"
         offset="0.50000000"
         style="stop-color:#fff520;stop-opacity:0.89108908;" />
      <stop
         id="stop12514"
         offset="1.0000000"
         style="stop-color:#fff300;stop-opacity:0.0000000;" />
    </linearGradient>
    <radialGradient
       inkscape:collect="always"
       xlink:href="#linearGradient12512"
       id="radialGradient4227"
       gradientUnits="userSpaceOnUse"
       cx="55"
       cy="125"
       fx="55"
       fy="125"
       r="14.375" />
    <radialGradient
       inkscape:collect="always"
       xlink:href="#linearGradient3808"
       id="radialGradient3816"
       cx="32"
       cy="32"
       fx="32"
       fy="32"
       r="30.617113"
       gradientTransform="matrix(-0.58740583,0,0,-1.0060624,50.796987,64.193997)"
       gradientUnits="userSpaceOnUse"
       spreadMethod="pad" />
  </defs>
  <metadata
     id="metadata2821">
    <rdf:RDF>
      <cc:Work
         rdf:about="">
        <dc:format>image/svg+xml</dc:format>
        <dc:type
           rdf:resource="http://purl.org/dc/dcmitype/StillImage" />
        <dc:title />
      </cc:Work>
    </rdf:RDF>
  </metadata>
  <g
     style="opacity:1"
     inkscape:groupmode="layer"
     inkscape:label="Layer 1"
     id="layer1">
    <path
       sodipodi:nodetypes="ccccc"
       inkscape:connector-curvature="0"
       id="path2896"
       d="m 23.767856,11.989093 20.682738,-0.0056 -0.252462,43.084776 -20.468489,0.09746 z"
       style="fill:url(#linearGradient3695);fill-opacity:1;stroke:#3e2806;stroke-width:2;stroke-linecap:butt;stroke-linejoin:round;stroke-miterlimit:4;stroke-opacity:1;stroke-dasharray:none;opacity:0.639" />
    <path
       inkscape:export-ydpi="33.852203"
       inkscape:export-xdpi="33.852203"
       inkscape:export-filename="/home/jimmac/ximian_art/icons/nautilus/suse93/stock_new-16.png"
       transform="matrix(1.1459283,0,0,1.0794812,-22.78836,-119.69393)"
       d="m 69.375,125 a 14.375,14.375 0 1 1 -28.75,0 14.375,14.375 0 1 1 28.75,0 z"
       sodipodi:ry="14.375"
       sodipodi:rx="14.375"
       sodipodi:cy="125"
       sodipodi:cx="55"
       id="path12511"
       style="color:#000000;fill:url(#radialGradient4227);fill-opacity:1;fill-rule:nonzero;stroke:none;stroke-width:1.25000024;marker:none;visibility:visible;display:block;opacity:0.639"
       sodipodi:type="arc" />
    <path
       sodipodi:nodetypes="ccscc"
       inkscape:connector-curvature="0"
       id="path3863"
       d="M 23.729643,55.165756 C 23.746484,36.137259 7.627876,11.488494 7.627876,11.488494 c 0,0 14.854331,0.500945 16.13998,0.500599 9.513178,-0.0026 20.430276,43.079207 20.430276,43.079207 z"
       style="fill:none;stroke:#000000;stroke-width:2;stroke-linecap:butt;stroke-linejoin:miter;stroke-miterlimit:4;stroke-opacity:1;stroke-dasharray:8, 4;stroke-dashoffset:0;opacity:0.639" />
    <path
       inkscape:connector-curvature="0"
       style="opacity:1;fill:url(#radialGradient3816);fill-opacity:1;stroke:none;stroke-width:1.67799996999999990;stroke-linecap:round;stroke-linejoin:round;stroke-miterlimit:4;stroke-dasharray:none;stroke-opacity:1"
       d="m 1.3828866,53.639937 c 0.04091,-0.09676 0.081809,0.07661 0.1227141,-0.02014 0.04091,-0.09677 0.081809,0.03645 0.1227139,-0.06029 0.04091,-0.09673 0.081809,-0.0032 0.1227141,-0.09997 0.04091,-0.0967 0.081809,-0.04224 0.122714,-0.13889 0.040898,-0.09663 0.081809,-0.0802 0.122714,-0.176765 0.040898,-0.09657 0.081809,-0.116821 0.122714,-0.213303 0.040898,-0.09649 0.081809,-0.15184 0.122714,-0.248224 0.040901,-0.09638 0.081809,-0.184986 0.122714,-0.281253 0.040898,-0.09627 0.081809,-0.216008 0.1227141,-0.312142 0.040898,-0.09613 0.081809,-0.244656 0.1227139,-0.340647 0.040898,-0.096 0.081809,-0.270704 0.1227129,-0.366533 0.04091,-0.09582 0.081809,-0.293943 0.1227139,-0.389599 0.04091,-0.09567 0.081808,-0.314185 0.1227141,-0.409644 0.04091,-0.09547 0.081809,-0.331256 0.122714,-0.426512 0.04091,-0.09526 0.081809,-0.345003 0.122714,-0.440034 0.04091,-0.09503 0.081808,-0.355299 0.122714,-0.450094 0.04091,-0.0948 0.081809,-0.362043 0.122714,-0.456584 0.04091,-0.09453 0.081809,-0.365149 0.122714,-0.459421 0.04091,-0.09428 0.081809,-0.364557 0.1227141,-0.458544 0.04091,-0.09399 0.081809,-0.36024 0.1227139,-0.453934 0.04091,-0.0937 0.081809,-0.352183 0.1227141,-0.445561 0.04091,-0.09338 0.081809,-0.340415 0.122714,-0.433468 0.04091,-0.09306 0.081809,-0.324968 0.122714,-0.41768 0.04091,-0.09269 0.081809,-0.30592 0.1227152,-0.398274 0.04091,-0.09235 0.081809,-0.283362 0.1227141,-0.375345 0.040898,-0.09198 0.081808,-0.257405 0.1227139,-0.349002 0.040898,-0.09159 0.081809,-0.228207 0.1227141,-0.319399 0.040898,-0.09121 0.081809,-0.195918 0.1227145,-0.286698 0.040893,-0.09078 0.081808,-0.160732 0.1227132,-0.251079 0.040904,-0.09035 0.081808,-0.12286 0.1227143,-0.212758 0.040904,-0.08991 0.081808,-0.08252 0.1227143,-0.171968 0.040904,-0.08944 0.081819,-0.03997 0.1227165,-0.128943 0.040904,-0.08899 0.081819,0.0046 0.1227165,-0.08396 0.040915,-0.0885 0.081819,0.05068 0.1227165,-0.03729 0.040915,-0.08799 0.081819,0.09822 0.1227166,0.01076 0.040915,-0.08747 0.081819,0.146817 0.1227165,0.05988 0.040915,-0.08693 0.081819,0.196159 0.1227165,0.109751 0.040915,-0.0864 0.081819,0.245921 0.1227154,0.160082 0.040915,-0.08584 0.081819,0.295764 0.1227165,0.210499 0.040915,-0.08528 0.081819,0.345353 0.1227166,0.26067 0.040915,-0.08468 0.081819,0.394345 0.1227165,0.310259 0.040915,-0.08409 0.081819,0.442398 0.1227165,0.358924 0.040915,-0.08347 0.081819,0.489167 0.1227165,0.406316 0.040915,-0.08285 0.081819,0.534321 0.1227166,0.45211 0.040915,-0.08222 0.081819,0.577514 0.1227165,0.495953 0.040915,-0.08155 0.081819,0.618441 0.1227165,0.537541 0.040915,-0.08091 0.081819,0.656767 0.1227165,0.576546 0.040904,-0.08022 0.081819,0.69219 0.1227166,0.61266 0.040904,-0.07952 0.081819,0.724431 0.1227165,0.645606 0.040904,-0.07884 0.081819,0.753203 0.1227165,0.67509 0.040904,-0.07812 0.081819,0.778255 0.1227165,0.700868 0.040904,-0.0774 0.081819,0.799341 0.1227165,0.722693 0.040904,-0.07666 0.081819,0.816241 0.1227166,0.740343 0.040904,-0.0759 0.081819,0.828754 0.1227165,0.753623 0.040904,-0.07513 0.081819,0.836713 0.1227165,0.762356 0.040915,-0.07436 0.081819,0.83996 0.1227165,0.766392 0.040915,-0.07357 0.081819,0.838368 0.1227166,0.765601 0.040915,-0.07276 0.081819,0.831841 0.1227165,0.759882 0.040915,-0.07196 0.081819,0.820307 0.1227165,0.749172 0.040915,-0.07114 0.081819,0.803721 0.1227165,0.733419 0.040915,-0.07031 0.081819,0.782061 0.1227154,0.712602 0.040915,-0.06946 0.081819,0.755346 0.1227166,0.686742 0.040915,-0.0686 0.081819,0.723607 0.1227165,0.655878 0.040915,-0.06773 0.081819,0.686922 0.1227165,0.620064 0.040915,-0.06685 0.081819,0.645392 0.1227165,0.579421 0.040915,-0.06597 0.081819,0.599131 0.1227166,0.534063 0.040915,-0.06507 0.081819,0.548303 0.1227165,0.484142 0.040915,-0.06415 0.081819,0.493083 0.1227165,0.429841 0.040915,-0.06324 0.081819,0.433682 0.1227165,0.37137 0.040904,-0.06232 0.081819,0.370328 0.1227166,0.308958 0.040902,-0.06136 0.081817,0.303286 0.1227165,0.242864 0.0409,-0.06041 0.08182,0.232831 0.122716,0.17337 0.0409,-0.05948 0.08182,0.159262 0.122717,0.100761 0.0409,-0.0585 0.08182,0.0829 0.122716,0.02538 0.0409,-0.05752 0.08182,0.0042 0.122717,-0.05242 0.04092,-0.05653 0.08182,-0.0768 0.122717,-0.132327 0.04092,-0.05554 0.08182,-0.159408 0.122716,-0.213938 0.04092,-0.05453 0.08182,-0.243358 0.122716,-0.296872 0.04092,-0.05352 0.08182,-0.328251 0.122717,-0.380741 0.04092,-0.05248 0.08182,-0.413672 0.122716,-0.465137 0.04092,-0.05145 0.08182,-0.499219 0.122717,-0.549641 0.04092,-0.05042 0.08182,-0.584475 0.122716,-0.633854 0.04092,-0.04937 0.08182,-0.669014 0.122717,-0.717338 0.04092,-0.04833 0.08182,-0.752433 0.122716,-0.799692 0.04092,-0.04727 0.08182,-0.834303 0.122716,-0.880493 0.04092,-0.04619 0.08182,-0.914215 0.122716,-0.959327 0.04092,-0.04513 0.08182,-0.991771 0.122717,-1.0358 0.04092,-0.04402 0.08182,-1.066564 0.122716,-1.109501 0.04092,-0.04294 0.08182,-1.138222 0.122717,-1.180059 0.04092,-0.04185 0.08182,-1.206365 0.122716,-1.247102 0.04092,-0.04073 0.08182,-1.270644 0.122717,-1.310266 0.0409,-0.03962 0.08182,-1.330714 0.122716,-1.369219 0.0409,-0.0385 0.08182,-1.386264 0.122717,-1.423645 0.0409,-0.03739 0.08182,-1.436985 0.122716,-1.473238 0.04091,-0.03625 0.08182,-1.482612 0.122717,-1.517727 0.0409,-0.03513 0.08182,-1.522894 0.122717,-1.556868 0.0409,-0.03398 0.08182,-1.557596 0.122716,-1.590424 0.0409,-0.03283 0.08182,-1.586526 0.122717,-1.618203 0.04092,-0.03169 0.08182,-1.609519 0.122716,-1.640036 0.04092,-0.03052 0.08182,-1.626427 0.122717,-1.655784 0.04092,-0.02935 0.08182,-1.637137 0.122716,-1.665332 0.04092,-0.0282 0.08182,-1.641577 0.122717,-1.668598 0.04092,-0.02702 0.08182,-1.639698 0.122716,-1.665546 0.04092,-0.02584 0.08182,-1.631479 0.122717,-1.656147 0.04092,-0.02466 0.08182,-1.616942 0.122716,-1.640426 0.04092,-0.0235 0.08182,-1.596125 0.122717,-1.618421 0.0409,-0.0223 0.08182,-1.569113 0.122716,-1.590219 0.0409,-0.02111 0.08182,-1.536017 0.122716,-1.555932 0.04092,-0.01991 0.08182,-1.496971 0.122716,-1.515687 0.04092,-0.01871 0.08182,-1.45216 0.122717,-1.469676 0.04092,-0.01751 0.08182,-1.401773 0.122716,-1.418085 0.04092,-0.01631 0.08182,-1.346047 0.122717,-1.361153 0.0409,-0.01512 0.08182,-1.285234 0.122716,-1.299136 0.0409,-0.01389 0.08182,-1.219619 0.122717,-1.232307 0.0409,-0.01273 0.08182,-1.14951 0.122716,-1.160988 0.0409,-0.01149 0.08182,-1.075238 0.122717,-1.085504 0.0409,-0.01021 0.08182,-0.997155 0.122716,-1.006202 0.0409,-0.0091 0.08182,-0.915637 0.122717,-0.923466 0.0409,-0.0078 0.08182,-0.831067 0.122716,-0.837679 0.0409,-0.0067 0.08182,-0.7438496 0.122717,-0.749239 0.0409,-0.00533 0.08182,-0.6544054 0.122717,-0.6585806 0.04092,-0.00422 0.08182,-0.5631645 0.122716,-0.5661177 0.04092,-0.003 0.08182,-0.4705684 0.122717,-0.4722986 0.04092,-0.00178 0.08182,-0.3770645 0.122716,-0.3775706 0.04092,-5.282e-4 0.08182,-0.2830921 0.122717,-0.2823807 0.04092,7.003e-4 0.08182,-0.1891121 0.122716,-0.1871777 0.04092,0.002 0.08182,-0.095578 0.122717,-0.092415 0.04091,0.00311 0.08182,-0.003 0.122716,0.00144 0.04092,0.00444 0.08182,0.088364 0.122717,0.093969 0.04092,0.00555 0.08182,0.177894 0.122716,0.1847083 0.04091,0.00677 0.08182,0.2652185 0.122716,0.2732514 0.04091,0.00799 0.08182,0.3499214 0.122716,0.3591707 0.04091,0.00921 0.08182,0.4316002 0.122717,0.4420658 0.04092,0.010543 0.08182,0.5098707 0.122716,0.5215483 0.0409,0.011731 0.08182,0.584361 0.122717,0.5972528 0.0409,0.012874 0.08182,0.6547206 0.122716,0.6688216 0.0409,0.01411 0.08182,0.720636 0.122717,0.73594 0.0409,0.01532 0.08182,0.781783 0.122716,0.798295 0.0409,0.01651 0.08182,0.837896 0.122717,0.855611 0.0409,0.01771 0.08182,0.888713 0.122716,0.90763 0.0409,0.01891 0.08182,0.934022 0.122717,0.954133 0.0409,0.02011 0.08182,0.973614 0.122716,0.994919 0.04092,0.02131 0.08182,1.007328 0.122717,1.029821 0.04092,0.02251 0.08182,1.035029 0.122716,1.058708 0.04092,0.0237 0.08182,1.056606 0.122717,1.081469 0.04091,0.02485 0.08182,1.071983 0.122716,1.098024 0.04092,0.02604 0.08182,1.081128 0.122717,1.108343 0.04092,0.02722 0.08182,1.084024 0.122717,1.112409 0.04091,0.02838 0.08182,1.08069 0.122716,1.110243 0.04091,0.02954 0.08182,1.071185 0.122717,1.101899 0.04092,0.03072 0.08182,1.055591 0.122716,1.087459 0.04092,0.03187 0.08182,1.034028 0.122717,1.067051 0.04091,0.03302 0.08182,1.006626 0.122716,1.040792 0.0409,0.03417 0.08182,0.973581 0.122716,1.008887 0.0409,0.0353 0.08182,0.935078 0.122716,0.971519 0.04092,0.03644 0.08182,0.891354 0.122717,0.928923 0.0409,0.03756 0.08182,0.842662 0.122716,0.881355 0.0409,0.0387 0.08182,0.789278 0.122717,0.829086 0.0409,0.03982 0.08182,0.73151 0.122716,0.772429 0.0409,0.04092 0.08182,0.66967 0.122717,0.711693 0.0409,0.04202 0.08182,0.604111 0.122716,0.647229 0.0409,0.04312 0.08182,0.535183 0.122717,0.579391 0.0409,0.0442 0.08182,0.463257 0.122716,0.508548 0.04091,0.0453 0.08182,0.388723 0.122717,0.435088 0.04091,0.04637 0.08182,0.311973 0.122716,0.359412 0.04092,0.04743 0.08182,0.23342 0.122717,0.281919 0.0409,0.0485 0.08182,0.153472 0.122716,0.203023 0.0409,0.04955 0.08182,0.07254 0.122717,0.123143 0.04092,0.0506 0.08182,-0.009 0.122716,0.04268 0.04092,0.05163 0.08182,-0.09058 0.122717,-0.03792 0.04091,0.05265 0.08182,-0.17195 0.122716,-0.118266 0.04092,0.05368 0.08182,-0.252636 0.122717,-0.197942 0.04092,0.05469 0.08182,-0.332239 0.122716,-0.276543 0.04092,0.05569 0.08182,-0.410369 0.122717,-0.353676 0.04091,0.05669 0.08182,-0.486638 0.122717,-0.42896 0.04092,0.05767 0.08182,-0.560682 0.122716,-0.50203 0.04092,0.05864 0.08182,-0.632146 0.122717,-0.572523 0.0409,0.05962 0.08182,-0.700695 0.122715,-0.640116 0.0409,0.06057 0.08182,-0.766006 0.122716,-0.704477 0.0409,0.06153 0.08182,-0.827786 0.122717,-0.76532 0.0409,0.06246 0.08182,-0.885758 0.122717,-0.822362 0.0409,0.06339 0.08182,-0.939669 0.122716,-0.875355 0.0409,0.06431 0.08182,-0.98929 0.122717,-0.924071 0.0409,0.06521 0.08182,-1.034421 0.122716,-0.968305 0.0409,0.0661 0.08182,-1.074889 0.122717,-1.007885 0.04091,0.06701 0.08182,-1.110541 0.122716,-1.042661 0.04091,0.06789 0.08182,-1.141256 0.122717,-1.07251 0.04092,0.06875 0.08182,-1.166946 0.122716,-1.097348 0.04092,0.06959 0.08182,-1.187541 0.122717,-1.117099 0.04091,0.07044 0.08182,-1.20301 0.122716,-1.131739 0.04091,0.07127 0.08182,-1.21335 0.122717,-1.141255 0.04092,0.07209 0.08182,-1.218576 0.122716,-1.145674 0.04091,0.07292 0.08182,-1.218745 0.122717,-1.145042 0.04091,0.0737 0.08182,-1.213931 0.122716,-1.139445 0.04092,0.07448 0.08182,-1.204235 0.122717,-1.128977 0.04091,0.07526 0.08182,-1.189799 0.122716,-1.113779 0.04092,0.07602 0.08182,-1.170774 0.122717,-1.094005 0.04092,0.07678 0.08182,-1.147334 0.122716,-1.069825 0.04092,0.0775 0.08182,-1.119696 0.122717,-1.041462 0.0409,0.07823 0.08182,-1.088073 0.122716,-1.009126 0.0409,0.07894 0.08182,-1.052712 0.122716,-0.973066 0.0409,0.07964 0.08182,-1.0138761 0.122716,-0.9335447 0.0409,0.080329 0.08182,-0.9718478 0.122717,-0.8908405 0.0409,0.081006 0.08182,-0.926921 0.122716,-0.8452545 0.0409,0.081672 0.08182,-0.8794016 0.122717,-0.7970836 0.0409,0.082327 0.08182,-0.8296059 0.122717,-0.7466531 0.0409,0.082959 0.08182,-0.7778674 0.122716,-0.694292 0.04091,0.08358 0.08182,-0.7245198 0.122717,-0.6403347 0.04092,0.084189 0.08182,-0.6698944 0.122716,-0.585114 0.04092,0.084775 0.08182,-0.6143441 0.122717,-0.5289793 0.04091,0.08536 0.08182,-0.5582109 0.122716,-0.4722813 0.04091,0.085933 0.08182,-0.5018323 0.122717,-0.4153465 0.04092,0.086491 0.08182,-0.4455545 0.122716,-0.3585255 0.0409,0.087025 0.08182,-0.3897085 0.122717,-0.3021529 0.0409,0.087556 0.08182,-0.334619 0.122716,-0.2465527 0.04091,0.088065 0.08182,-0.2806069 0.122717,-0.1920401 0.04092,0.088571 0.08182,-0.2279754 0.122716,-0.1389251 0.04091,0.089051 0.08182,-0.1770243 0.122717,-0.087504 0.04091,0.08952 0.08182,-0.1280337 0.122716,-0.038059 0.04092,0.089975 0.08182,-0.081253 0.122717,0.00922 0.04092,0.090415 0.08182,-0.036954 0.122716,0.053904 0.0409,0.090846 0.08182,0.00468 0.122717,0.095929 0.0409,0.091262 0.08182,0.043388 0.122716,0.1350451 0.0409,0.091665 0.08182,0.079017 0.122716,0.1710635 0.0409,0.092041 0.08182,0.1114083 0.122716,0.2038153 0.0409,0.092405 0.08182,0.1404028 0.122717,0.233168 0.0409,0.092769 0.08182,0.1659018 0.122716,0.2590102 0.0409,0.093108 0.08182,0.1878053 0.122717,0.2812413 0.04092,0.093432 0.08182,0.2060523 0.122716,0.2997964 0.04092,0.093744 0.08182,0.2206053 0.122717,0.314647 0.04092,0.094043 0.08182,0.2314416 0.122716,0.3257589 0.04092,0.094315 0.08182,0.2385768 0.122717,0.3331606 0.04091,0.094589 0.08182,0.2420473 0.122717,0.3368805 0.04092,0.094837 0.08182,0.2419071 0.122716,0.3369743 0.04092,0.09507 0.08182,0.2382479 0.122717,0.3335362 0.04091,0.095291 0.08182,0.2311703 0.122716,0.3266652 0.04091,0.095498 0.08182,0.220812 0.122717,0.3164954 0.04092,0.095681 0.08182,0.207321 0.122716,0.3031794 0.04092,0.095867 0.08182,0.1908789 0.122717,0.2868977 0.04091,0.096022 0.08182,0.1716701 0.122716,0.2678298 0.04091,0.096155 0.08182,0.1499164 0.122717,0.2462049 0.04092,0.096288 0.08182,0.1258376 0.122716,0.2222349 0.0409,0.096388 0.08182,0.099673 0.122717,0.1961728 0.0409,0.096499 0.08182,0.071695 0.122716,0.1682785 0.0409,0.096577 0.08182,0.042173 0.122717,0.1388137 0.0409,0.096666 0.08182,0.011365 0.122716,0.1080748 0.04092,0.096699 0.08182,-0.020421 0.122717,0.076312 0.0409,0.096732 0.08182,-0.052894 0.122715,0.043871 0.0409,0.096755 0.08182,-0.085745 0.122717,0.010987 0.0409,0.096766 0.08182,-0.1186959 0.122716,-0.02193 0.04092,0.096755 0.08182,-0.1514236 0.122717,-0.054703 0.04091,0.096721 0.08182,-0.1836306 0.122716,-0.086944 0.04092,0.096688 0.08182,-0.2150232 0.122717,-0.1183874 0.04087,0.096622 0.08184,-0.245307 0.122716,-0.148751 0.04087,0.096555 0.08184,-0.2741892 0.122705,-0.1777198 0.04087,0.096477 0.08184,-0.3014054 0.122716,-0.2050381 0.04087,0.096366 0.08184,-0.3266828 0.122704,-0.2304342 0.04086,0.096255 0.08184,-0.3497661 0.122717,-0.2536519 0.04087,0.096111 0.08184,-0.3704199 0.122716,-0.2744521 0.04086,0.095967 0.08184,-0.3884188 0.122705,-0.2926196 0.04086,0.095798 0.08184,-0.4035609 0.122716,-0.3079359 0.04086,0.095629 0.08184,-0.4156546 0.122704,-0.3202273 0.04086,0.095434 0.08184,-0.4245336 0.122717,-0.3293156 0.04086,0.095213 0.08184,-0.4300566 0.122717,-0.3350635 0.04086,0.094992 0.08184,-0.4320935 0.122704,-0.3373382 0.04086,0.094745 0.08184,-0.4305505 0.122716,-0.3360539 0.04086,0.094498 0.08184,-0.4253418 0.122703,-0.3311147 0.04086,0.094225 0.08184,-0.4164287 0.122717,-0.3224857 0.04087,0.093939 0.08184,-0.4037741 0.122716,-0.3101314 0.04087,0.093639 0.08184,-0.3873755 0.122705,-0.2940499 0.04087,0.093329 0.08184,-0.3672643 0.122716,-0.2742664 0.04087,0.09299 0.08184,-0.3434825 0.122705,-0.2508316 0.04087,0.092652 0.08184,-0.316104 0.122716,-0.2238146 0.04087,0.092289 0.08184,-0.285233 0.122717,-0.1933152 0.04087,0.091911 0.08184,-0.2509928 0.122704,-0.1594624 0.04087,0.091535 0.08184,-0.2135277 0.122716,-0.1224048 0.04087,0.091131 0.08184,-0.1730039 0.122705,-0.082292 0.04086,0.090716 0.08184,-0.1296195 0.122716,-0.039347 0.04086,0.090274 0.08184,-0.08358 0.122717,0.00624 0.04086,0.089831 0.08184,-0.035135 0.122704,0.054229 0.04086,0.089363 0.08184,0.015468 0.122716,0.1043636 0.04086,0.088896 0.08184,0.067981 0.122705,0.1563779 0.04086,0.088401 0.08184,0.1220935 0.122716,0.2099856 0.04086,0.087895 0.08184,0.1775184 0.122717,0.2648984 0.04086,0.087375 0.08184,0.2339429 0.122703,0.32079 0.04087,0.086855 0.08184,0.2910472 0.122716,0.3773511 0.04087,0.086309 0.08184,0.3484985 0.122705,0.4342422 0.04087,0.08575 0.08184,0.4059651 0.122716,0.491138 0.04087,0.085166 0.08184,0.4631049 0.122717,0.5476891 0.04086,0.08458 0.08184,0.5195724 0.122704,0.6035586 0.04087,0.083982 0.08184,0.5750246 0.122716,0.6583933 0.04087,0.083372 0.08184,0.6291181 0.122705,0.7118634 0.04087,0.082749 0.08184,0.6815163 0.122716,0.7636201 0.04087,0.082116 0.08184,0.7318813 0.122704,0.8133337 0.04087,0.08145 0.08184,0.7798968 0.122717,0.8606799 0.04086,0.080795 0.08184,0.8252421 0.122716,0.9053493 0.04086,0.080107 0.08184,0.8676093 0.122705,0.9470273 0.04086,0.07942 0.08184,0.906716 0.122716,0.985427 0.04086,0.0787 0.08184,0.942287 0.122705,1.020283 0.04086,0.07799 0.08184,0.974062 0.122716,1.051325 0.04086,0.07726 0.08184,1.001802 0.122717,1.078328 0.04086,0.07651 0.08184,1.02529 0.122704,1.101059 0.04086,0.07577 0.08184,1.044335 0.122715,1.119337 0.04087,0.075 0.08184,1.058759 0.122704,1.132987 0.04087,0.07421 0.08184,1.068405 0.122717,1.141847 0.04087,0.07344 0.08184,1.07317 0.122717,1.145808 0.04086,0.07264 0.08184,1.072946 0.122704,1.144768 0.04087,0.07182 0.08184,1.067668 0.122716,1.138667 0.04087,0.07099 0.08184,1.057283 0.122717,1.127447 0.04087,0.07016 0.08184,1.041792 0.122704,1.111109 0.04087,0.06931 0.08184,1.021209 0.122717,1.089665 0.04087,0.06846 0.08184,0.995568 0.122704,1.06316 0.04087,0.06759 0.08184,0.964951 0.122716,1.03166 0.04086,0.06671 0.08184,0.929458 0.122717,0.995276 0.04086,0.06582 0.08184,0.889218 0.122704,0.954135 0.04086,0.06493 0.08184,0.844384 0.122717,0.908391 0.04086,0.064 0.08184,0.795148 0.122704,0.858234 0.04086,0.06308 0.08184,0.741715 0.122716,0.803867 0.04086,0.06216 0.08184,0.684327 0.122705,0.745542 0.04086,0.06122 0.08184,0.623231 0.122716,0.683493 0.04086,0.06026 0.08184,0.558728 0.122716,0.618027 0.04087,0.0593 0.08184,0.491108 0.122704,0.549438 0.04087,0.05833 0.08184,0.420697 0.122716,0.47805 0.04086,0.05734 0.08184,0.347843 0.122705,0.404207 0.04087,0.05636 0.08184,0.272898 0.122716,0.328264 0.04087,0.05537 0.08184,0.196245 0.122717,0.250602 0.04087,0.05436 0.08184,0.118265 0.122704,0.171603 0.04087,0.05335 0.08184,0.03932 0.122716,0.09165 0.04087,0.05232 0.08184,-0.04011 0.122705,0.01112 0.04087,0.0513 0.08184,-0.119674 0.122716,-0.06943 0.04086,0.05024 0.08184,-0.198939 0.122717,-0.149736 0.04086,0.0492 0.08184,-0.277478 0.122704,-0.229334 0.04086,0.04814 0.08184,-0.354892 0.122717,-0.307809 0.04086,0.04708 0.08184,-0.430757 0.122704,-0.384746 0.04086,0.04601 0.08184,-0.504664 0.122716,-0.459731 0.04086,0.04494 0.08184,-0.576214 0.122717,-0.532367 0.04086,0.04385 0.08184,-0.645009 0.122704,-0.602251 0.04086,0.04275 0.08184,-0.710675 0.122717,-0.669016 0.04086,0.04166 0.08184,-0.77283 0.122703,-0.732279 0.04087,0.04055 0.08184,-0.831137 0.122716,-0.7917 0.04086,0.03944 0.08184,-0.885253 0.122717,-0.846933 0.04087,0.03831 0.08184,-0.93487 0.122704,-0.897676 0.04087,0.0372 0.08184,-0.979687 0.122717,-0.943623 0.04087,0.03607 0.08184,-1.019438 0.122704,-0.984509 0.04087,0.03493 0.08184,-1.053875 0.122716,-1.020091 0.04087,0.03378 0.08184,-1.08278 0.122717,-1.050141 0.04087,0.03263 0.08184,-1.10596 0.122704,-1.074477 0.04086,0.03149 0.08184,-1.123248 0.122717,-1.092921 0.04087,0.03032 0.08184,-1.134513 0.122704,-1.105349 0.04086,0.02918 0.08184,-1.139646 0.122716,-1.111647 0.04086,0.028 0.08184,-1.13858 0.122717,-1.111755 0.04086,0.02683 0.08184,-1.131262 0.122704,-1.105611 0.04086,0.02565 0.08184,-1.117694 0.122717,-1.093221 0.04086,0.02448 0.08184,-1.097887 0.122704,-1.0746 0.04086,0.02329 0.08184,-1.071896 0.122716,-1.049796 0.04086,0.0221 0.08184,-1.039809 0.122717,-1.018903 0.04086,0.02091 0.08184,-1.001742 0.122703,-0.982026 0.04086,0.0197 0.08184,-0.957845 0.122717,-0.939328 0.04087,0.01852 0.08184,-0.908286 0.122704,-0.890969 0.04087,0.01731 0.08184,-0.853276 0.122716,-0.837164 0.04087,0.01612 0.08184,-0.793055 0.122705,-0.778148 0.04087,0.01491 0.08184,-0.727882 0.122716,-0.714183 0.04087,0.0137 0.08184,-0.6580379 0.122717,-0.645548 0.04087,0.012475 0.08184,-0.5838505 0.122704,-0.5725724 0.04086,0.011365 0.08184,-0.5056345 0.122716,-0.4955728 0.04087,0.00999 0.08184,-0.4237626 0.122705,-0.4149184 0.04087,0.00888 0.08184,-0.3386023 0.122716,-0.3309756 0.04086,0.00766 0.08184,-0.2505476 0.122717,-0.2441395 0.04086,0.00644 0.08184,-0.1600091 0.122704,-0.1548196 0.04086,0.00522 0.08184,-0.067411 0.122717,-0.063438 0.04086,0.00411 0.08184,0.026825 0.122716,0.029577 0.04086,0.00266 0.08184,0.1222673 0.122704,0.1237967 0.04086,0.00155 0.08184,0.218437 0.122717,0.2187422 0.04086,3.507e-4 0.08184,0.3149064 0.122704,0.313993 0.04086,-9.122e-4 0.08184,0.4112172 0.122715,0.4090808 0.04087,-0.00211 0.08184,0.5069129 0.122705,0.5035546 0.04087,-0.00333 0.08184,0.6015533 0.122716,0.5969731 0.04087,-0.00455 0.08184,0.6946839 0.122717,0.6888879 0.04087,-0.0058 0.08184,0.785871 0.122704,0.778856 0.04087,-0.007 0.08184,0.874691 0.122717,0.866459 0.04087,-0.0081 0.08184,0.96073 0.122704,0.951281 0.04086,-0.0095 0.08184,1.043584 0.122716,1.032917 0.04087,-0.01065 0.08184,1.122873 0.122717,1.110992 0.04087,-0.01185 0.08184,1.198227 0.122704,1.185135 0.04087,-0.0131 0.08184,1.269298 0.122717,1.254996 0.04086,-0.01431 0.08184,1.335768 0.122704,1.320263 0.04086,-0.0155 0.08184,1.397333 0.122716,1.380625 0.04086,-0.01671 0.08184,1.453723 0.122717,1.435807 0.04086,-0.01791 0.08184,1.504687 0.122704,1.485575 0.04086,-0.01911 0.08184,1.550002 0.122717,1.529691 0.04086,-0.02031 0.08184,1.589479 0.122704,1.567976 0.04086,-0.02151 0.08184,1.622953 0.122716,1.60026 0.04086,-0.02269 0.08184,1.650292 0.122716,1.626415 0.04087,-0.02387 0.08184,1.671402 0.122704,1.646342 0.04087,-0.02506 0.08184,1.686205 0.122717,1.659969 0.04087,-0.02625 0.08184,1.69467 0.122704,1.667261 0.04087,-0.02742 0.08184,1.696798 0.122716,1.668217 0.04087,-0.02858 0.08184,1.692598 0.122717,1.662852 0.04087,-0.02974 0.08184,1.682147 0.122704,1.65124 0.04087,-0.03091 0.08184,1.665521 0.122717,1.63346 0.04087,-0.03205 0.08184,1.642845 0.122704,1.609638 0.04087,-0.03322 0.08184,1.614271 0.122716,1.579917 0.04087,-0.03435 0.08184,1.579982 0.122717,1.544489 0.04086,-0.0355 0.08184,1.540174 0.122704,1.503544 0.04086,-0.03663 0.08184,1.495089 0.122717,1.457337 0.04086,-0.03776 0.08184,1.44498 0.122704,1.406103 0.04086,-0.03889 0.08184,1.390137 0.122717,1.350145 0.04086,-0.04 0.08184,1.330857 0.122716,1.289752 0.04086,-0.04111 0.08184,1.267474 0.122704,1.225268 0.04086,-0.04221 0.08184,1.200319 0.122717,1.157017 0.04086,-0.0433 0.08184,1.129763 0.122703,1.085373 0.04087,-0.04439 0.08184,1.05618 0.122717,1.01071 0.04087,-0.04547 0.08184,0.979953 0.122716,0.93341 0.04086,-0.04656 0.08184,0.901491 0.122704,0.853875 0.04087,-0.04761 0.08184,0.82119 0.122717,0.772515 0.04087,-0.04867 0.08184,0.739467 0.122704,0.689744 0.04087,-0.04971 0.08184,0.656735 0.122717,0.605964 0.04087,-0.05077 0.08184,0.573418 0.122716,0.521613 0.04087,-0.05182 0.08184,0.489927 0.122704,0.437096 0.04087,-0.05283 0.08184,0.406685 0.122717,0.352832 0.04087,-0.05385 0.08184,0.324093 0.122704,0.269229 0.04086,-0.05487 0.08184,0.242554 0.122717,0.186689 0.04086,-0.05587 0.08184,0.162461 0.122716,0.1056 0.04086,-0.05686 0.08184,0.08419 0.122704,0.02636 0.04086,-0.05784 0.08184,0.008 0.122717,-0.05069 0.04086,-0.05882 0.08184,-0.0654 0.122704,-0.125187 0.04086,-0.05979 0.08184,-0.136049 0.122717,-0.196788 0.04086,-0.06074 0.08184,-0.203503 0.122716,-0.26519 0.04086,-0.06168 0.08184,-0.267468 0.122703,-0.33009 0.04087,-0.06262 0.08184,-0.327674 0.122717,-0.391223 0.04086,-0.06355 0.08184,-0.38387 0.122704,-0.448333 0.04087,-0.06446 0.08184,-0.435835 0.122717,-0.501201 0.04087,-0.06537 0.08184,-0.483363 0.122716,-0.549628 0.04087,-0.06627 0.08184,-0.526293 0.122704,-0.593443 0.04087,-0.06716 0.08184,-0.564464 0.122717,-0.63249 0.04087,-0.06802 0.08184,-0.597783 0.122704,-0.666668 0.04087,-0.0689 0.08184,-0.626144 0.122717,-0.695881 0.04087,-0.06974 0.08184,-0.649494 0.122716,-0.720071 0.04087,-0.07057 0.08184,-0.667796 0.122705,-0.739209 0.04086,-0.07142 0.08184,-0.681054 0.122716,-0.753283 0.04086,-0.07223 0.08184,-0.689294 0.122704,-0.762333 0.04086,-0.07304 0.08184,-0.692573 0.122717,-0.766404 0.04086,-0.07384 0.08184,-0.690964 0.122716,-0.765581 0.04086,-0.07461 0.08184,-0.684583 0.122705,-0.75997 0.04086,-0.07539 0.08184,-0.673569 0.122716,-0.749716 0.04086,-0.07615 0.08184,-0.658065 0.122704,-0.734959 0.04086,-0.0769 0.08184,-0.638274 0.122716,-0.715902 0.04086,-0.07763 0.08184,-0.614391 0.122716,-0.692741 0.04087,-0.07835 0.08184,-0.586643 0.122705,-0.665705 0.04087,-0.07907 0.08184,-0.555283 0.122716,-0.635041 0.04087,-0.07975 0.08184,-0.52057 0.122704,-0.601015 0.04087,-0.08044 0.08184,-0.48279 0.122717,-0.563906 0.04087,-0.08113 0.08184,-0.442234 0.122704,-0.524014 0.04087,-0.08178 0.08184,-0.399213 0.122717,-0.48164 0.04087,-0.08242 0.08184,-0.354053 0.122716,-0.437109 0.04087,-0.08306 0.08184,-0.307075 0.122704,-0.390754 0.04086,-0.08367 0.08184,-0.258613 0.122717,-0.342897 0.04086,-0.08428 0.08184,-0.209012 0.122704,-0.293891 0.04086,-0.08488 0.08184,-0.158608 0.122717,-0.244068 0.04086,-0.08545 0.08184,-0.107753 0.122716,-0.193778 0.04086,-0.08602 0.08184,-0.05678 0.122704,-0.143355 0.04086,-0.08659 0.08184,-0.0059 0.122717,-0.09315 0.04086,-0.08711 0.08184,0.04417 0.122704,-0.04347 0.04086,-0.08763 0.08184,0.09349 0.122717,0.0053 0.04086,-0.08815 0.08184,0.141598 0.122715,0.05295 0.04087,-0.08864 0.08184,0.188218 0.122704,0.09909 0.04087,-0.08913 0.08184,0.233049 0.122717,0.143452 0.04087,-0.0896 0.08184,0.275812 0.122704,0.185761 0.04087,-0.09005 0.08184,0.316255 0.122717,0.225762 0.04087,-0.09049 0.08184,0.354125 0.122716,0.263208 0.04087,-0.09091 0.08184,0.389211 0.122704,0.297881 0.04087,-0.09133 0.08184,0.421301 0.122717,0.329578 0.04087,-0.09174 0.08184,0.45022 0.122704,0.358112 0.04086,-0.0921 0.08184,0.475814 0.122717,0.383337 0.04087,-0.09247 0.08184,0.497937 0.122716,0.405113 0.04086,-0.09282 0.08184,0.516486 0.122705,0.42332 0.04086,-0.09316 0.08184,0.53138 0.122716,0.437896 0.04086,-0.09349 0.08184,0.542548 0.122704,0.448756 0.04086,-0.0938 0.08184,0.549961 0.122717,0.455876 0.04086,-0.09408 0.08184,0.553617 0.122716,0.459249 0.04086,-0.09437 0.08184,0.553514 0.122705,0.45889 0.04086,-0.09462 0.08184,0.549706 0.122716,0.454833 0.04086,-0.09487 0.08184,0.542252 0.122703,0.447148 0.04087,-0.09511 0.08184,0.531248 0.122717,0.435921 0.04087,-0.09532 0.08184,0.516805 0.122716,0.421279 0.04087,-0.09552 0.08184,0.499052 0.122705,0.403336 0.04087,-0.09571 0.08184,0.478157 0.122716,0.382269 0.04087,-0.09589 0.08184,0.454287 0.122704,0.358246 0.04087,-0.09604 0.08184,0.427652 0.122717,0.331466 0.04087,-0.09619 0.08184,0.398457 0.122716,0.302146 0.04087,-0.0963 0.08184,0.366937 0.122705,0.270519 0.04087,-0.09643 0.08184,0.333344 0.122716,0.236829 0.04087,-0.09651 0.08184,0.29794 0.122704,0.201347 0.04086,-0.09659 0.08184,0.26099 0.122717,0.164332 0.04086,-0.09665 0.08184,0.222781 0.122716,0.12607 0.04086,-0.09671 0.08184,0.183607 0.122705,0.08687 0.04086,-0.09673 0.08184,0.143753 0.122716,0.047 0.04086,-0.09677 0.08184,0.103524 0.122704,0.0068 0.04086,-0.09677 0.08184,0.06325 0.122717,-0.03349"
       title="sin(x)*sin(x*5)-cos(x)"
       id="path6164" />
  </g>
</svg>
