<?xml version="1.0" encoding="UTF-8" standalone="no"?>
<svg
   xmlns:dc="http://purl.org/dc/elements/1.1/"
   xmlns:cc="http://creativecommons.org/ns#"
   xmlns:rdf="http://www.w3.org/1999/02/22-rdf-syntax-ns#"
   xmlns:svg="http://www.w3.org/2000/svg"
   xmlns="http://www.w3.org/2000/svg"
   xmlns:xlink="http://www.w3.org/1999/xlink"
   xmlns:sodipodi="http://sodipodi.sourceforge.net/DTD/sodipodi-0.dtd"
   xmlns:inkscape="http://www.inkscape.org/namespaces/inkscape"
   width="48"
   height="48"
   overflow="visible"
   enable-background="new 0 0 128 129.396"
   xml:space="preserve"
   id="svg2"
   sodipodi:version="0.32"
   inkscape:version="0.91 r13725"
   sodipodi:docname="applications-inp-editor.svg"
   version="1.0"
   inkscape:export-filename="/home/tigert/My Downloads/go-home.png"
   inkscape:export-xdpi="90.000000"
   inkscape:export-ydpi="90.000000"><metadata
     id="metadata367"><rdf:RDF><cc:Work
         rdf:about=""><dc:format>image/svg+xml</dc:format><dc:type
           rdf:resource="http://purl.org/dc/dcmitype/StillImage" /><cc:license
           rdf:resource="http://creativecommons.org/licenses/by-sa/2.0/" /><dc:title></dc:title><dc:creator><cc:Agent><dc:title>jakub Steiner</dc:title></cc:Agent></dc:creator><dc:source>http://jimmac.musichall.cz</dc:source><dc:subject><rdf:Bag><rdf:li>home</rdf:li><rdf:li>return</rdf:li><rdf:li>go</rdf:li><rdf:li>default</rdf:li><rdf:li>user</rdf:li><rdf:li>directory</rdf:li></rdf:Bag></dc:subject></cc:Work><cc:License
         rdf:about="http://creativecommons.org/licenses/by-sa/2.0/"><cc:permits
           rdf:resource="http://web.resource.org/cc/Reproduction" /><cc:permits
           rdf:resource="http://web.resource.org/cc/Distribution" /><cc:requires
           rdf:resource="http://web.resource.org/cc/Notice" /><cc:requires
           rdf:resource="http://web.resource.org/cc/Attribution" /><cc:permits
           rdf:resource="http://web.resource.org/cc/DerivativeWorks" /><cc:requires
           rdf:resource="http://web.resource.org/cc/ShareAlike" /></cc:License></rdf:RDF></metadata><defs
     id="defs365"><linearGradient
       inkscape:collect="always"
       id="linearGradient3099"><stop
         style="stop-color:#ffffff;stop-opacity:1;"
         offset="0"
         id="stop3101" /><stop
         style="stop-color:#ffffff;stop-opacity:0;"
         offset="1"
         id="stop3103" /></linearGradient><linearGradient
       y2="27.836672"
       x2="74.587158"
       y1="21.424805"
       x1="68.175293"
       gradientUnits="userSpaceOnUse"
       id="XMLID_45_"><stop
         id="stop695"
         style="stop-color:#BABDB6"
         offset="0" /><stop
         id="stop697"
         style="stop-color:#EEEEEC"
         offset="1" /></linearGradient><radialGradient
       gradientUnits="userSpaceOnUse"
       gradientTransform="matrix(1.000000,0.000000,0.000000,1.010300,1.007969e-18,-0.159801)"
       r="7.2848282"
       cy="23.333008"
       cx="165.06104"
       id="XMLID_52_"><stop
         id="stop812"
         style="stop-color:#EF3535"
         offset="0" /><stop
         offset="0"
         style="stop-color:#c91a1a;stop-opacity:1;"
         id="stop2239" /><stop
         id="stop814"
         style="stop-color:#ff4c4c;stop-opacity:1;"
         offset="1" /></radialGradient><linearGradient
       gradientTransform="matrix(2.051000,0.000000,0.167200,-0.989000,-799.2049,221.0724)"
       y2="-79.574341"
       x2="1420.6542"
       y1="-50.919434"
       x1="1420.5474"
       gradientUnits="userSpaceOnUse"
       id="path3311_1_"><stop
         id="stop4970"
         style="stop-color:#C4A000"
         offset="0" /><stop
         id="stop4972"
         style="stop-color:#957A00"
         offset="1" /></linearGradient><linearGradient
       gradientTransform="matrix(1.213800,0.000000,0.282500,-1.671200,46.72625,447.9442)"
       y2="175.78883"
       x2="1679.5989"
       y1="185.30176"
       x1="1668.7646"
       gradientUnits="userSpaceOnUse"
       id="path3230_2_"><stop
         id="stop4977"
         style="stop-color:#FFFFFF"
         offset="0" /><stop
         id="stop4979"
         style="stop-color:#CFCFCF"
         offset="1" /></linearGradient><linearGradient
       y2="10.711433"
       x2="296.93979"
       y1="4.7592773"
       x1="292.97168"
       gradientUnits="userSpaceOnUse"
       id="XMLID_897_"><stop
         id="stop45093"
         style="stop-color:#EEEEEC"
         offset="0" /><stop
         id="stop45095"
         style="stop-color:#ffffff;stop-opacity:1;"
         offset="1" /></linearGradient><radialGradient
       id="radialGradient16850"
       cx="165.06104"
       cy="23.333008"
       r="7.2848282"
       gradientTransform="matrix(1.000000,0.000000,0.000000,1.010300,1.007969e-18,-0.159801)"
       gradientUnits="userSpaceOnUse"><stop
         offset="0"
         style="stop-color:#EF3535"
         id="stop16852" /><stop
         offset="1"
         style="stop-color:#a40000;stop-opacity:0"
         id="stop16854" /></radialGradient><linearGradient
       id="linearGradient2229"><stop
         id="stop2231"
         offset="0"
         style="stop-color:#e2e2e2;stop-opacity:1;" /><stop
         id="stop2233"
         offset="1"
         style="stop-color:#d8d8d8;stop-opacity:1;" /></linearGradient><linearGradient
       id="linearGradient2269"
       inkscape:collect="always"><stop
         id="stop2271"
         offset="0"
         style="stop-color:#000000;stop-opacity:1;" /><stop
         id="stop2273"
         offset="1"
         style="stop-color:#000000;stop-opacity:0;" /></linearGradient><linearGradient
       inkscape:collect="always"
       xlink:href="#path3230_2_"
       id="linearGradient1890"
       gradientUnits="userSpaceOnUse"
       gradientTransform="matrix(1.213781,0,0.282495,-1.671173,-1834.231,751.0328)"
       x1="1668.7646"
       y1="185.30176"
       x2="1679.5989"
       y2="175.78883" /><linearGradient
       inkscape:collect="always"
       xlink:href="#path3230_2_"
       id="linearGradient1893"
       gradientUnits="userSpaceOnUse"
       gradientTransform="matrix(1.213781,0,0.282495,-1.671173,-1774.231,387.0328)"
       x1="1668.7646"
       y1="185.30176"
       x2="1679.5989"
       y2="175.78883" /><linearGradient
       inkscape:collect="always"
       xlink:href="#path3311_1_"
       id="linearGradient1896"
       gradientUnits="userSpaceOnUse"
       gradientTransform="matrix(2.050967,0,0.167197,-0.988984,-2791.942,99.82423)"
       x1="1420.5474"
       y1="-50.919434"
       x2="1420.6542"
       y2="-79.574341" /><linearGradient
       inkscape:collect="always"
       xlink:href="#linearGradient3099"
       id="linearGradient3105"
       x1="28.835155"
       y1="11.913623"
       x2="52.131729"
       y2="70.073158"
       gradientUnits="userSpaceOnUse" /><radialGradient
       inkscape:collect="always"
       xlink:href="#linearGradient2269"
       id="radialGradient3253"
       gradientUnits="userSpaceOnUse"
       gradientTransform="matrix(1,0,0,0.32526,2.34556e-13,28.08607)"
       cx="25.1875"
       cy="41.625"
       fx="25.1875"
       fy="41.625"
       r="18.0625" /></defs><sodipodi:namedview
     inkscape:cy="24"
     inkscape:cx="24"
     inkscape:zoom="8.8541667"
     inkscape:window-height="701"
     inkscape:window-width="1181"
     inkscape:pageshadow="2"
     inkscape:pageopacity="0.0"
     borderopacity="0.21568627"
     bordercolor="#666666"
     pagecolor="#ffffff"
     id="base"
     inkscape:showpageshadow="false"
     inkscape:window-x="115"
     inkscape:window-y="27"
     inkscape:current-layer="svg2"
     fill="#2e3436"
     showgrid="true"
     stroke="#c4a000"
     showguides="true"
     inkscape:guide-bbox="true"
     inkscape:window-maximized="0"><inkscape:grid
       id="GridFromPre046Settings"
       type="xygrid"
       originx="0px"
       originy="0px"
       spacingx="1px"
       spacingy="1px"
       color="#3f3fff"
       empcolor="#3f3fff"
       opacity="0.03921569"
       empopacity="0.10196078"
       empspacing="5" /></sodipodi:namedview><path
     transform="matrix(0.968858,0,0,0.465206,6.096886,24.90272)"
     d="M 43.25 41.625 A 18.0625 5.875 0 1 1  7.125,41.625 A 18.0625 5.875 0 1 1  43.25 41.625 z"
     sodipodi:ry="5.875"
     sodipodi:rx="18.0625"
     sodipodi:cy="41.625"
     sodipodi:cx="25.1875"
     id="path3251"
     style="opacity:0.26704544;color:#000000;fill:url(#radialGradient3253);fill-opacity:1;fill-rule:evenodd;stroke:none;stroke-width:1;stroke-linecap:butt;stroke-linejoin:miter;marker:none;marker-start:none;marker-mid:none;marker-end:none;stroke-miterlimit:4;stroke-dasharray:none;stroke-dashoffset:0;stroke-opacity:1;visibility:visible;display:inline;overflow:visible"
     sodipodi:type="arc"
     inkscape:r_cx="true"
     inkscape:r_cy="true" /><path
     style="fill:none;fill-opacity:0.75;fill-rule:evenodd;stroke:url(#linearGradient3105);stroke-width:1px;stroke-linecap:butt;stroke-linejoin:miter;stroke-opacity:1;opacity:0.63874346"
     d="M 43.5,43.5 L 43.5,6.8437499 L 18.375,43.4375 L 43.5,43.5 z "
     id="path3006"
     inkscape:r_cx="true"
     inkscape:r_cy="true"
     sodipodi:nodetypes="cccc" /><g
     style="display:inline"
     id="g4579"
     transform="matrix(0.10226308,0,0,0.10226308,-15.383911,-24.743495)"><path
       style="fill:#e00934"
       d="m 474.77774,665.11892 c -2.22718,-1.91573 -2.79689,-3.42372 -3.30577,-8.75 -0.61483,-6.43536 -0.61483,-6.43536 -22.73286,-18.45339 -12.16491,-6.60991 -22.85241,-12.62751 -23.75,-13.37244 -0.89766,-0.745 -1.63197,-2.81906 -1.63197,-4.60953 0,-1.79031 -0.5625,-3.70644 -1.25,-4.25807 -0.6875,-0.55163 -40.72988,-22.47946 -88.98307,-48.72851 -87.73307,-47.72554 -87.73307,-47.72554 -117.46742,-31.9829 -29.73435,15.74264 -29.73435,15.74264 -36.09174,12.35606 -3.49656,-1.86262 -6.77372,-4.1445 -7.28257,-5.07084 -1.1289,-2.05507 -1.24159,-178.7695 -0.11514,-180.54265 0.42869,-0.6748 12.9093,-7.68 27.73469,-15.56712 83.74735,-44.55363 124.15015,-65.70281 125.46916,-65.67785 0.81735,0.0155 4.18609,1.47796 7.48609,3.25 6,3.22188 6,3.22188 6.26448,34.63686 0.17366,20.62808 0.63498,31.86141 1.3435,32.71512 0.59346,0.71508 9.92444,6.06979 20.73552,11.89935 10.81107,5.82956 20.5565,11.59765 21.6565,12.81797 1.1,1.22033 11.60274,18.96638 23.33943,39.43568 13.21487,23.04733 21.91308,37.2169 22.84617,37.2169 0.82871,0 12.12872,-5.625 25.11115,-12.5 12.98242,-6.875 23.99354,-12.5 24.46914,-12.5 0.4756,0 10.07214,4.99403 21.32563,11.09784 19.88537,10.78568 20.52949,11.05289 22.8995,9.5 1.34124,-0.87881 3.32376,-1.59784 4.40561,-1.59784 1.08185,0 12.36381,5.67502 25.07102,12.61116 23.10403,12.61117 23.10403,12.61117 27.16054,9.8 4.85814,-3.36669 10.01736,-3.71006 12.87081,-0.85661 2.26108,2.26109 16.001,27.91938 16.001,29.8807 0,1.68344 -2.31195,2.1012 -20.28377,3.66519 -14.78378,1.28656 -14.78378,1.28656 -17.39458,-1.32425 -2.05222,-2.05222 -2.74034,-3.94409 -3.21623,-8.84252 -0.60542,-6.23172 -0.60542,-6.23172 -20.54092,-17.02707 -10.96452,-5.93744 -20.30202,-10.56882 -20.75,-10.29196 -0.44797,0.27687 -0.8145,7.46596 -0.8145,15.97576 0,17.57077 0.34172,18.28805 6.66542,13.99099 3.96669,-2.69544 8.1595,-3.28064 11.33369,-1.58187 1.02719,0.54974 5.03522,6.96224 8.90674,14.25 7.03912,13.25048 7.03912,13.25048 15.17784,17.55942 8.13872,4.30893 8.13872,4.30893 11.80236,1.77003 2.015,-1.3964 5.09693,-2.82557 6.84873,-3.17593 4.54827,-0.90965 7.47124,2.44569 15.56393,17.86612 6.318,12.03881 7.70297,15.70429 5.95129,15.75072 -0.4125,0.0109 -6.825,0.67699 -14.25,1.48012 -18.10175,1.958 -19.41093,1.91076 -22.5794,-0.81464 -2.22116,-1.91056 -2.79827,-3.42925 -3.30577,-8.69922 -0.61483,-6.38458 -0.61483,-6.38458 -14.11483,-13.7456 -13.32343,-7.26474 -13.58038,-7.35531 -19.64561,-6.92431 -3.38009,0.24019 -6.64259,0.74385 -7.25,1.11926 -0.70201,0.43386 -1.10439,4.86244 -1.10439,12.15491 0,13.15351 0.55743,14.0069 6.51047,9.96706 4.49503,-3.05041 10.42233,-3.42717 12.70321,-0.80746 0.83801,0.9625 4.28331,6.96825 7.65621,13.34611 3.3729,6.37787 6.9195,12.26688 7.88133,13.0867 0.96183,0.81983 4.7851,3.12991 8.49616,5.13353 6.74738,3.64294 6.74738,3.64294 11.44578,0.6633 9.09748,-5.76945 11.23318,-4.36217 20.72622,13.65716 7.59482,14.41618 8.66181,17.34601 6.33062,17.38308 -0.6875,0.0109 -7.325,0.67699 -14.75,1.48012 -17.73424,1.91824 -18.4329,1.89187 -21.5794,-0.81464 -2.22451,-1.91344 -2.7975,-3.42618 -3.30577,-8.72736 -0.61483,-6.41273 -0.61483,-6.41273 -13.61483,-13.61246 -13,-7.19974 -13,-7.19974 -21.25,-7.27264 -9.60756,-0.0849 -11.80921,-1.46418 -12.86374,-8.05883 -0.35303,-2.20774 -1.14751,-4.01407 -1.76551,-4.01407 -1.37794,0 -16.37326,7.79054 -17.02495,8.84499 -0.25774,0.41704 1.90269,5.23502 4.80095,10.70663 5.20516,9.8268 5.36021,9.99951 12.68641,14.13198 4.07926,2.30099 7.95936,4.21349 8.62243,4.25 0.66308,0.0365 2.86337,-1.0586 4.88955,-2.4336 4.40935,-2.99226 10.34174,-3.3438 12.65688,-0.75 1.89797,2.12641 15.74798,28.49165 15.74798,29.97826 0,0.58177 -0.60203,1.28878 -1.33784,1.57114 -2.71593,1.0422 -31.33668,2.99911 -34.01863,2.32598 -3.39142,-0.85119 -5.64353,-5.63509 -5.64353,-11.98792 0,-4.42677 0,-4.42677 -13.25,-11.74667 -13.25,-7.3199 -13.25,-7.3199 -20.84661,-7.09076 -9.28662,0.2801 -12.52981,-1.61163 -13.5345,-7.89458 -0.34738,-2.17238 -0.99325,-4.17329 -1.43528,-4.44648 -1.14867,-0.70992 -29.93361,14.79623 -29.93361,16.12493 0,1.15616 35.14422,20.68048 38.22425,21.23542 0.97476,0.17563 3.14414,-0.65751 4.82085,-1.85143 4.41771,-3.14569 9.91815,-3.64208 12.57386,-1.13473 2.45474,2.31761 16.38104,28.36528 16.38104,30.63901 0,0.84031 -0.7875,1.53678 -1.75,1.54771 -0.9625,0.0109 -7.825,0.67699 -15.25,1.48012 -17.50192,1.89311 -17.42805,1.89604 -20.5794,-0.81464 z"
       id="path4589"
       inkscape:connector-curvature="0" /><path
       style="fill:#0909d5"
       d="m 475.57965,665.87686 c -2.72459,-1.90838 -3.05671,-6.44088 -0.47251,-6.44839 6.47889,-0.0188 30.25648,3.48746 29.95031,4.41653 -0.1973,0.59871 -5.04808,1.60876 -10.77952,2.24456 -14.3404,1.5908 -16.15285,1.57019 -18.69828,-0.2127 z m 22.96922,-19.26312 c -5.60545,-6.69321 -10.19173,-12.79439 -10.19173,-13.55819 0,-0.7638 0.94529,-1.63593 2.10065,-1.93806 4.38334,-1.14627 6.73755,1.31014 12.96818,13.53112 3.33435,6.54011 5.89419,12.39589 5.68854,13.01284 -0.20565,0.61696 -4.96019,-4.35451 -10.56564,-11.04771 z m -51.12116,-9.48617 c -12.33619,-6.74883 -22.61614,-12.83072 -22.84433,-13.5153 -0.2282,-0.68458 -0.14748,-1.94156 0.17936,-2.7933 0.51411,-1.33974 1.06669,-1.25664 4.09686,0.61611 1.92643,1.1906 12.38896,7.02038 23.25007,12.95508 15.06449,8.23149 19.82325,11.29464 20.06702,12.91688 0.18957,1.26154 -0.21719,2.11933 -1,2.10883 -0.72575,-0.01 -11.41279,-5.53946 -23.74898,-12.2883 z m 75.58442,2.47725 c -0.91025,-1.00581 -1.65499,-2.84536 -1.65499,-4.0879 0,-2.04904 0.34877,-2.20416 3.75,-1.66779 2.0625,0.32525 8.025,1.04882 13.25,1.60793 18.96222,2.0291 20.30267,3.23344 5.48778,4.93052 -13.65378,1.56407 -18.88688,1.36745 -20.83279,-0.78276 z m -66.65499,-10.35345 c -20.29778,-11.13575 -27.13479,-14.07307 -30.68374,-13.18234 -1.28823,0.32333 -2.89889,0.14232 -3.57925,-0.40224 -1.85358,-1.4836 -172.83951,-94.4343 -175.74072,-95.53547 -2.17763,-0.82654 -6.26981,1.04679 -31.4211,14.3841 -28.9174,15.3344 -28.9174,15.3344 -35.49629,11.74034 -6.5789,-3.59405 -6.5789,-3.59405 -6.5789,-94.41438 0,-90.82032 0,-90.82032 76.23183,-131.2103 76.23182,-40.38998 76.23182,-40.38998 82.75,-36.74481 6.51817,3.64517 6.51817,3.64517 6.51817,33.87372 0,25.204 0.24845,30.58327 1.49473,32.36258 0.8221,1.17372 10.3846,6.92779 21.25,12.78684 10.8654,5.85904 20.65527,11.65125 21.75527,12.87157 1.1,1.22033 11.60274,18.96638 23.33943,39.43568 13.21487,23.04733 21.91308,37.2169 22.84617,37.2169 0.82871,0 12.12872,-5.625 25.11115,-12.5 12.98242,-6.875 23.98482,-12.5 24.44977,-12.5 0.46495,0 10.26194,5.0625 21.77109,11.25 17.6228,9.47429 20.93021,11.60514 20.95406,13.5 0.0156,1.2375 0.4438,2.25 0.9516,2.25 0.50781,0 2.19531,1.06618 3.75,2.36929 1.5547,1.30311 11.71423,7.20511 22.57673,13.11554 14.87799,8.09532 19.75,11.21112 19.75,12.63071 0,1.03645 -0.6302,1.88446 -1.40046,1.88446 -0.77025,0 -10.09184,-4.71841 -20.71465,-10.48535 -11.25349,-6.10932 -19.68484,-10.1147 -20.20228,-9.59726 -0.48845,0.48845 -0.72935,8.57706 -0.53535,17.97469 0.28576,13.84201 0.0908,17.18703 -1.02647,17.61546 -0.75857,0.29087 -9.98357,-4.13704 -20.5,-9.83981 -26.09931,-14.15293 -28.60805,-15.29774 -29.71004,-13.55756 -0.48407,0.76441 -0.88702,1.70571 -0.89544,2.09179 -0.0277,1.27015 8.23718,6.3342 24.98469,15.30859 22.86464,12.25234 21.99682,11.55038 22.01531,17.80754 0.008,2.85005 0.35937,5.72319 0.77988,6.38476 0.44037,0.69281 7.53638,2.0846 16.73469,3.28229 8.78357,1.14369 16.75762,2.32023 17.72012,2.61453 2.50818,0.76694 2.15751,2.08124 -0.75,2.81097 -1.375,0.34511 -2.49956,0.95639 -2.49901,1.35841 5.4e-4,0.40202 3.60054,2.67408 8,5.04902 5.74832,3.1031 7.99901,4.86167 7.99901,6.25 0,1.06256 -0.57654,1.93193 -1.28119,1.93193 -0.70466,0 -7.11716,-3.17526 -14.25,-7.05613 -12.74801,-6.93599 -13.07344,-7.04876 -19.11442,-6.62353 -3.38009,0.23793 -6.68088,0.76341 -7.33509,1.16773 -0.84574,0.5227 -1.1045,4.47745 -0.89544,13.68538 0.2355,10.37214 0.01,13.12581 -1.13292,13.83215 -2.0662,1.27698 -10.5573,-3.62168 -12.84503,-7.41052 -1.02786,-1.70229 -4.06868,-5.62222 -6.75737,-8.71095 -2.6887,-3.08872 -7.57429,-8.82622 -10.85686,-12.75 -6.66254,-7.96394 -8.27151,-8.51496 -13.53168,-4.63413 -1.86371,1.375 -4.02429,2.5 -4.80129,2.5 -0.77701,0 -9.60209,-4.47849 -19.61129,-9.9522 -20.3335,-11.11972 -27.31197,-14.36748 -29.26286,-13.61885 -1.90912,0.7326 -1.62982,3.52556 0.42544,4.25443 0.9625,0.34134 2.4625,1.22909 3.33334,1.97278 0.87084,0.74369 10.54584,6.21592 21.5,12.16051 19.91666,10.80835 19.91666,10.80835 20.21412,16.98606 0.22208,4.61199 0.72897,6.39457 2,7.03338 1.59265,0.80044 11.4953,2.31515 24.20254,3.70201 7.01973,0.76613 12.17948,2.36246 11.45019,3.54247 -0.31252,0.50568 -1.41511,0.91941 -2.45019,0.91941 -4.17419,0 -2.54489,1.93914 5.07537,6.04057 8.02212,4.31771 8.02212,4.31771 7.72337,8.37462 -0.29414,3.99437 -0.43025,4.12649 -8.83072,8.57086 -4.69259,2.48267 -9.05945,4.86525 -9.70413,5.29462 -0.83337,0.55504 0.26954,3.72878 3.81597,10.98086 4.98813,10.20019 4.98813,10.20019 12.95413,14.55448 4.38131,2.39485 7.96601,4.78009 7.96601,5.30052 0,3.66249 -10.33296,0.14175 -13.66084,-4.65465 -1.01154,-1.45791 -3.86416,-5.00329 -6.33916,-7.87862 -2.475,-2.87532 -7.81623,-9.13283 -11.8694,-13.90556 -4.05317,-4.77274 -7.69795,-8.6777 -8.09952,-8.6777 -0.40157,0 -2.71033,1.34181 -5.1306,2.9818 -2.42026,1.63999 -4.98025,2.98999 -5.68887,3 -0.70861,0.01 -9.1065,-4.26356 -18.66198,-9.49683 -20.94205,-11.46937 -28.15396,-14.85078 -30.08965,-14.10799 -4.41721,1.69504 -0.42126,4.55009 27.46449,19.62302 17.57553,9.5 17.57553,9.5 17.87371,13.55937 0.29819,4.05937 0.29819,4.05937 -11.5,10.17953 -17.80924,9.23832 -20.28096,10.67221 -20.28993,11.77055 -0.009,1.14897 0.96261,1.80389 9.99175,6.73239 3.575,1.95139 9.65215,5.28277 13.50479,7.40307 3.85263,2.1203 8.69013,4.74492 10.75,5.83249 3.96988,2.09603 4.77051,3.91518 2.16342,4.91561 -0.86998,0.33385 -1.65748,0.59963 -1.75,0.59063 -0.0925,-0.009 -8.49321,-4.58362 -18.66821,-10.16583 z M 219.30198,517.30966 c 7.39467,-1.14057 14.46412,-2.46129 15.7099,-2.93493 2.26506,-0.86118 2.26506,-0.86118 0.42195,-6.15117 -1.01371,-2.9095 -4.56625,-11.0275 -7.89452,-18.04 -4.95529,-10.44053 -6.43669,-12.75 -8.17846,-12.75 -3.23761,0 -16.83753,6.97328 -19.026,9.75547 -6.14362,7.81035 -10.1312,22.45114 -8.02735,29.47319 1.20215,4.01242 1.20215,4.01242 7.3759,3.36681 3.39555,-0.35508 12.22392,-1.5788 19.61858,-2.71937 z m -3.07201,-56.41073 c 9.55505,-1.38956 18.20937,-2.97418 19.23182,-3.52138 1.79142,-0.95874 1.77335,-1.22118 -0.49707,-7.21945 -1.29584,-3.4235 -4.85646,-11.51204 -7.91249,-17.97454 -4.29149,-9.0751 -5.99972,-11.75 -7.50373,-11.75 -1.07102,0 -5.70688,1.9125 -10.30191,4.25 -7.03849,3.58049 -8.75813,4.9589 -10.9161,8.75 -5.60952,9.85473 -7.99638,20.37018 -5.9981,26.42502 1.45122,4.39724 0.9612,4.37591 23.89758,1.04035 z m 6.43297,-57.95551 c 7.59318,-1.25846 14.06201,-2.54434 14.37518,-2.8575 1.27524,-1.27525 -16.15103,-39.23502 -18.40958,-40.10171 -4.00508,-1.53689 -15.44549,8.04035 -20.92654,17.51848 -4.74608,8.20716 -7.36067,21.06426 -5.29684,26.04681 1.27925,3.08837 1.27925,3.08837 8.86561,2.38521 4.1725,-0.38674 13.79898,-1.73282 21.39217,-2.99129 z m 41.1942,-24.48406 c 7.7,-1.08279 15.70921,-2.45869 17.79824,-3.05758 4.46325,-1.27951 4.52151,-0.79851 -1.8128,-14.96822 -7.67198,-17.16203 -11.77256,-25.17295 -13.15739,-25.70436 -4.09911,-1.57297 -15.30027,7.41672 -20.44471,16.40826 -3.03924,5.31204 -3.08881,5.61411 -2.72459,16.60329 0.20403,6.15605 0.72936,11.75696 1.16739,12.44648 0.43804,0.68952 1.78135,1.02578 2.98515,0.74725 1.20379,-0.27853 8.48871,-1.39234 16.18871,-2.47512 z m 52.57167,-26.06379 c 10.68107,-1.73153 16.92833,-3.324 16.92833,-4.31514 0,-2.44118 -17.13287,-38.48388 -18.55218,-39.02852 -2.34793,-0.90098 -10.90683,4.24112 -14.7884,8.88473 -7.52492,9.00222 -8.63398,11.91124 -8.64737,22.68182 -0.007,5.3267 0.43907,10.87144 0.99044,12.32165 0.96742,2.5445 1.20355,2.61391 6.75,1.98406 3.16113,-0.35898 10.95476,-1.49685 17.31918,-2.5286 z M 546.1797,620.6808 c -5.32259,-6.46098 -9.79178,-12.19724 -9.93152,-12.74724 -0.13975,-0.55 0.91772,-1.4121 2.34994,-1.91579 4.21971,-1.48399 6.77913,1.17414 13.02541,13.52777 8.65243,17.11239 7.85518,17.27865 -5.44383,1.13526 z m -40.32256,-3.47411 c -13,-7.20974 -13,-7.20974 -20.40748,-6.97961 -8.5348,0.26516 -12.09252,-1.29902 -12.09252,-5.31657 0,-3.07675 1.15136,-3.10734 20.34396,-0.54052 15.00842,2.00722 17.80174,3.11993 12.48501,4.97335 -3.32256,1.15825 -3.32256,1.15825 4.17424,5.2188 4.12323,2.2333 8.05929,4.5231 8.74679,5.08843 1.34786,1.10835 1.73326,4.78851 0.5,4.77443 -0.4125,-0.005 -6.6,-3.25294 -13.75,-7.21831 z m 65.72251,-2.32983 c -1.32135,-0.92551 -2.22251,-2.60412 -2.22251,-4.13991 0,-2.52314 0.12205,-2.56973 5.25,-2.00381 2.8875,0.31867 9.975,1.09984 15.75,1.73595 16.33065,1.79881 15.76877,3.05554 -2.21059,4.94434 -12.74772,1.33919 -13.9442,1.30044 -16.5669,-0.53657 z m 22.88157,-19.31969 c -6.34799,-7.53953 -10.06981,-12.77053 -9.72516,-13.66867 0.75511,-1.96778 6.07808,-1.85508 8.10476,0.17159 2.22186,2.22187 12.7109,23.28972 12.26349,24.63195 -0.19779,0.59338 -4.98718,-4.41731 -10.64309,-11.13487 z M 553.03381,591.425 c -12.75743,-6.95551 -12.86326,-6.99144 -20.59501,-6.99144 -6.25909,0 -8.09379,-0.35593 -9.42667,-1.82874 -1.66432,-1.83905 -2.30333,-6.18519 -0.90499,-6.15515 2.39279,0.0514 31.9279,4.06427 33.43571,4.54283 2.4808,0.78738 2.28374,2.23288 -0.35738,2.62151 -4.09926,0.60318 -2.77461,2.32576 4.94269,6.42747 5.47205,2.90837 7.82229,4.73342 8.04853,6.25 0.18967,1.27145 -0.21677,2.1386 -1,2.13352 -0.72575,-0.005 -7.09005,-3.15471 -14.14288,-7 z m 13.10757,-5.53977 c -2.59367,-1.35036 -5.24911,-3.45177 -5.90097,-4.66979 -0.65187,-1.21802 -4.24651,-5.82973 -7.98809,-10.24823 -17.8704,-21.10349 -17.02761,-19.92305 -15.19581,-21.28365 4.71685,-3.50353 7.4409,-0.95766 15.25935,14.26125 6.54128,12.73285 6.54128,12.73285 13.04128,16.20018 7.54062,4.02244 9.50064,5.66949 8.55931,7.19261 -0.98021,1.586 -2.47582,1.30663 -7.77507,-1.45237 z m 5.43827,-28.00837 c -1.31728,-0.92266 -2.22251,-2.60448 -2.22251,-4.12917 0,-2.56822 0.0103,-2.57124 6.25,-1.82867 3.4375,0.40908 10.65216,1.2547 16.03258,1.87916 5.38042,0.62446 9.7826,1.58538 9.78262,2.13538 2e-5,0.98027 -15.6462,3.24438 -23.59269,3.41402 -2.21513,0.0473 -5.02763,-0.61454 -6.25,-1.47072 z m 30.20447,-10.65197 c -8.63064,-9.3274 -17.55351,-21.01921 -17.04755,-22.33773 0.31527,-0.82156 1.85374,-1.4536 3.53829,-1.4536 2.19474,0 3.62466,0.85681 5.4239,3.25 3.12882,4.16169 11.86702,21.62408 11.4487,22.87905 -0.17483,0.52448 -1.68833,-0.52749 -3.36334,-2.33772 z m -36.19526,-18.47636 c -3.57593,-2.08191 -8.59937,-8.31497 -6.70131,-8.31497 1.17727,0 13.01349,6.16068 14.33791,7.4628 1.63964,1.61202 0.6809,3.57667 -1.67734,3.43717 -0.93004,-0.055 -3.61171,-1.21826 -5.95926,-2.585 z m -20.08535,-22.56497 c -9.07273,-10.95939 -9.96327,-12.3817 -8.45264,-13.5 2.33718,-1.73019 4.72122,-1.56274 7.11864,0.5 1.86333,1.6032 13.18763,22.59849 13.18763,24.44989 0,2.24071 -2.59484,-0.26575 -11.85363,-11.44989 z m 25.50862,-5.57874 c -1.83315,-2.0256 -2.2452,-6.17126 -0.61339,-6.17126 1.94893,0 27.44751,3.06593 29.85304,3.5895 4.3106,0.93823 0.79034,2.13138 -9.68048,3.2811 -14.37775,1.5787 -17.6019,1.46342 -19.55917,-0.69934 z m 29.81244,-11.4158 c -12.0693,-13.50682 -17.31686,-20.50603 -16.20655,-21.61634 2.28095,-2.28095 6.51967,-1.29563 9.08074,2.11088 3.20219,4.25928 11.86259,21.63738 11.4299,22.93544 -0.18516,0.55549 -2.12201,-0.988 -4.30409,-3.42998 z m -49.73369,-25.25468 c -10.32145,-5.69338 -20.44645,-11.17267 -22.5,-12.17619 -3.94657,-1.92859 -4.94358,-4.56421 -1.94501,-5.14168 2.04556,-0.39394 3.70057,0.42609 27.21127,13.48262 3.3,1.83264 8.25,4.47897 11,5.88074 2.75,1.40178 6.07722,3.36557 7.39382,4.36399 2.53704,1.92392 2.14912,4.14041 -0.70284,4.01594 -0.93004,-0.0406 -10.1358,-4.73203 -20.45724,-10.42542 z"
       id="path4587"
       inkscape:connector-curvature="0" /><path
       style="fill:#a00b29"
       d="m 475.57965,665.87686 c -2.72459,-1.90838 -3.05671,-6.44088 -0.47251,-6.44839 6.47889,-0.0188 30.25648,3.48746 29.95031,4.41653 -0.1973,0.59871 -5.04808,1.60876 -10.77952,2.24456 -14.3404,1.5908 -16.15285,1.57019 -18.69828,-0.2127 z m 22.96922,-19.26312 c -5.60545,-6.69321 -10.19173,-12.79439 -10.19173,-13.55819 0,-0.7638 0.94529,-1.63593 2.10065,-1.93806 4.38334,-1.14627 6.73755,1.31014 12.96818,13.53112 3.33435,6.54011 5.89419,12.39589 5.68854,13.01284 -0.20565,0.61696 -4.96019,-4.35451 -10.56564,-11.04771 z m -51.12116,-9.48617 c -12.33619,-6.74883 -22.61614,-12.83072 -22.84433,-13.5153 -0.2282,-0.68458 -0.14748,-1.94156 0.17936,-2.7933 0.51411,-1.33974 1.06669,-1.25664 4.09686,0.61611 1.92643,1.1906 12.38896,7.02038 23.25007,12.95508 15.06449,8.23149 19.82325,11.29464 20.06702,12.91688 0.18957,1.26154 -0.21719,2.11933 -1,2.10883 -0.72575,-0.01 -11.41279,-5.53946 -23.74898,-12.2883 z m 75.58442,2.47725 c -0.91025,-1.00581 -1.65499,-2.84536 -1.65499,-4.0879 0,-2.04904 0.34877,-2.20416 3.75,-1.66779 2.0625,0.32525 8.025,1.04882 13.25,1.60793 18.96222,2.0291 20.30267,3.23344 5.48778,4.93052 -13.65378,1.56407 -18.88688,1.36745 -20.83279,-0.78276 z m -66.65499,-10.35345 c -20.29778,-11.13575 -27.13479,-14.07307 -30.68374,-13.18234 -1.28823,0.32333 -2.89889,0.14232 -3.57925,-0.40224 -1.85358,-1.4836 -172.83951,-94.4343 -175.74072,-95.53547 -2.17763,-0.82654 -6.26981,1.04679 -31.4211,14.3841 -28.9174,15.3344 -28.9174,15.3344 -35.49629,11.74034 -6.5789,-3.59405 -6.5789,-3.59405 -6.5789,-94.41438 0,-90.82032 0,-90.82032 76.23183,-131.2103 76.23182,-40.38998 76.23182,-40.38998 82.75,-36.74481 6.51817,3.64517 6.51817,3.64517 6.51817,33.87372 0,25.204 0.24845,30.58327 1.49473,32.36258 0.8221,1.17372 10.3846,6.92779 21.25,12.78684 10.8654,5.85904 20.65527,11.65125 21.75527,12.87157 1.1,1.22033 11.60274,18.96638 23.33943,39.43568 13.21487,23.04733 21.91308,37.2169 22.84617,37.2169 0.82871,0 12.12872,-5.625 25.11115,-12.5 12.98242,-6.875 23.98482,-12.5 24.44977,-12.5 0.46495,0 10.26194,5.0625 21.77109,11.25 17.6228,9.47429 20.93021,11.60514 20.95406,13.5 0.0156,1.2375 0.4438,2.25 0.9516,2.25 0.50781,0 2.19531,1.06618 3.75,2.36929 1.5547,1.30311 11.71423,7.20511 22.57673,13.11554 14.87799,8.09532 19.75,11.21112 19.75,12.63071 0,1.03645 -0.6302,1.88446 -1.40046,1.88446 -0.77025,0 -10.09184,-4.71841 -20.71465,-10.48535 -11.25349,-6.10932 -19.68484,-10.1147 -20.20228,-9.59726 -0.48845,0.48845 -0.72935,8.57706 -0.53535,17.97469 0.28576,13.84201 0.0908,17.18703 -1.02647,17.61546 -0.75857,0.29087 -9.98357,-4.13704 -20.5,-9.83981 -26.09931,-14.15293 -28.60805,-15.29774 -29.71004,-13.55756 -0.48407,0.76441 -0.88702,1.70571 -0.89544,2.09179 -0.0277,1.27015 8.23718,6.3342 24.98469,15.30859 22.86464,12.25234 21.99682,11.55038 22.01531,17.80754 0.008,2.85005 0.35937,5.72319 0.77988,6.38476 0.44037,0.69281 7.53638,2.0846 16.73469,3.28229 8.78357,1.14369 16.75762,2.32023 17.72012,2.61453 2.50818,0.76694 2.15751,2.08124 -0.75,2.81097 -1.375,0.34511 -2.49956,0.95639 -2.49901,1.35841 5.4e-4,0.40202 3.60054,2.67408 8,5.04902 5.74832,3.1031 7.99901,4.86167 7.99901,6.25 0,1.06256 -0.57654,1.93193 -1.28119,1.93193 -0.70466,0 -7.11716,-3.17526 -14.25,-7.05613 -12.74801,-6.93599 -13.07344,-7.04876 -19.11442,-6.62353 -3.38009,0.23793 -6.68088,0.76341 -7.33509,1.16773 -0.84574,0.5227 -1.1045,4.47745 -0.89544,13.68538 0.2355,10.37214 0.01,13.12581 -1.13292,13.83215 -2.0662,1.27698 -10.5573,-3.62168 -12.84503,-7.41052 -1.02786,-1.70229 -4.06868,-5.62222 -6.75737,-8.71095 -2.6887,-3.08872 -7.57429,-8.82622 -10.85686,-12.75 -6.66254,-7.96394 -8.27151,-8.51496 -13.53168,-4.63413 -1.86371,1.375 -4.02429,2.5 -4.80129,2.5 -0.77701,0 -9.60209,-4.47849 -19.61129,-9.9522 -20.3335,-11.11972 -27.31197,-14.36748 -29.26286,-13.61885 -1.90912,0.7326 -1.62982,3.52556 0.42544,4.25443 0.9625,0.34134 2.4625,1.22909 3.33334,1.97278 0.87084,0.74369 10.54584,6.21592 21.5,12.16051 19.91666,10.80835 19.91666,10.80835 20.21412,16.98606 0.22208,4.61199 0.72897,6.39457 2,7.03338 1.59265,0.80044 11.4953,2.31515 24.20254,3.70201 7.01973,0.76613 12.17948,2.36246 11.45019,3.54247 -0.31252,0.50568 -1.41511,0.91941 -2.45019,0.91941 -4.17419,0 -2.54489,1.93914 5.07537,6.04057 8.02212,4.31771 8.02212,4.31771 7.72337,8.37462 -0.29414,3.99437 -0.43025,4.12649 -8.83072,8.57086 -4.69259,2.48267 -9.05945,4.86525 -9.70413,5.29462 -0.83337,0.55504 0.26954,3.72878 3.81597,10.98086 4.98813,10.20019 4.98813,10.20019 12.95413,14.55448 4.38131,2.39485 7.96601,4.78009 7.96601,5.30052 0,3.66249 -10.33296,0.14175 -13.66084,-4.65465 -1.01154,-1.45791 -3.86416,-5.00329 -6.33916,-7.87862 -2.475,-2.87532 -7.81623,-9.13283 -11.8694,-13.90556 -4.05317,-4.77274 -7.69795,-8.6777 -8.09952,-8.6777 -0.40157,0 -2.71033,1.34181 -5.1306,2.9818 -2.42026,1.63999 -4.98025,2.98999 -5.68887,3 -0.70861,0.01 -9.1065,-4.26356 -18.66198,-9.49683 -20.94205,-11.46937 -28.15396,-14.85078 -30.08965,-14.10799 -4.41721,1.69504 -0.42126,4.55009 27.46449,19.62302 17.57553,9.5 17.57553,9.5 17.87371,13.55937 0.29819,4.05937 0.29819,4.05937 -11.5,10.17953 -17.80924,9.23832 -20.28096,10.67221 -20.28993,11.77055 -0.009,1.14897 0.96261,1.80389 9.99175,6.73239 3.575,1.95139 9.65215,5.28277 13.50479,7.40307 3.85263,2.1203 8.69013,4.74492 10.75,5.83249 3.96988,2.09603 4.77051,3.91518 2.16342,4.91561 -0.86998,0.33385 -1.65748,0.59963 -1.75,0.59063 -0.0925,-0.009 -8.49321,-4.58362 -18.66821,-10.16583 z M 219.30198,517.30966 c 7.39467,-1.14057 14.46412,-2.46129 15.7099,-2.93493 2.26506,-0.86118 2.26506,-0.86118 0.42195,-6.15117 -1.01371,-2.9095 -4.56625,-11.0275 -7.89452,-18.04 -4.95529,-10.44053 -6.43669,-12.75 -8.17846,-12.75 -3.23761,0 -16.83753,6.97328 -19.026,9.75547 -6.14362,7.81035 -10.1312,22.45114 -8.02735,29.47319 1.20215,4.01242 1.20215,4.01242 7.3759,3.36681 3.39555,-0.35508 12.22392,-1.5788 19.61858,-2.71937 z m 148.55516,-31.03961 c 8.8,-5.75999 24.93952,-15.16707 35.86561,-20.9046 10.92608,-5.73754 20.05812,-10.91984 20.29341,-11.51623 0.53216,-1.34882 -40.70199,-73.48939 -42.37357,-74.13404 -1.70013,-0.65565 -91.28398,46.93111 -91.28479,48.4903 -5.9e-4,1.13839 41.90552,74.99396 44.21824,77.93047 1.00215,1.27247 0.82281,1.37952 33.2811,-19.8659 z M 216.22997,460.89893 c 9.55505,-1.38956 18.20937,-2.97418 19.23182,-3.52138 1.79142,-0.95874 1.77335,-1.22118 -0.49707,-7.21945 -1.29584,-3.4235 -4.85646,-11.51204 -7.91249,-17.97454 -4.29149,-9.0751 -5.99972,-11.75 -7.50373,-11.75 -1.07102,0 -5.70688,1.9125 -10.30191,4.25 -7.03849,3.58049 -8.75813,4.9589 -10.9161,8.75 -5.60952,9.85473 -7.99638,20.37018 -5.9981,26.42502 1.45122,4.39724 0.9612,4.37591 23.89758,1.04035 z m 6.43297,-57.95551 c 7.59318,-1.25846 14.06201,-2.54434 14.37518,-2.8575 1.27524,-1.27525 -16.15103,-39.23502 -18.40958,-40.10171 -4.00508,-1.53689 -15.44549,8.04035 -20.92654,17.51848 -4.74608,8.20716 -7.36067,21.06426 -5.29684,26.04681 1.27925,3.08837 1.27925,3.08837 8.86561,2.38521 4.1725,-0.38674 13.79898,-1.73282 21.39217,-2.99129 z m 41.1942,-24.48406 c 7.7,-1.08279 15.70921,-2.45869 17.79824,-3.05758 4.46325,-1.27951 4.52151,-0.79851 -1.8128,-14.96822 -7.67198,-17.16203 -11.77256,-25.17295 -13.15739,-25.70436 -4.09911,-1.57297 -15.30027,7.41672 -20.44471,16.40826 -3.03924,5.31204 -3.08881,5.61411 -2.72459,16.60329 0.20403,6.15605 0.72936,11.75696 1.16739,12.44648 0.43804,0.68952 1.78135,1.02578 2.98515,0.74725 1.20379,-0.27853 8.48871,-1.39234 16.18871,-2.47512 z m 52.57167,-26.06379 c 10.68107,-1.73153 16.92833,-3.324 16.92833,-4.31514 0,-2.44118 -17.13287,-38.48388 -18.55218,-39.02852 -2.34793,-0.90098 -10.90683,4.24112 -14.7884,8.88473 -7.52492,9.00222 -8.63398,11.91124 -8.64737,22.68182 -0.007,5.3267 0.43907,10.87144 0.99044,12.32165 0.96742,2.5445 1.20355,2.61391 6.75,1.98406 3.16113,-0.35898 10.95476,-1.49685 17.31918,-2.5286 z M 546.1797,620.6808 c -5.32259,-6.46098 -9.79178,-12.19724 -9.93152,-12.74724 -0.13975,-0.55 0.91772,-1.4121 2.34994,-1.91579 4.21971,-1.48399 6.77913,1.17414 13.02541,13.52777 8.65243,17.11239 7.85518,17.27865 -5.44383,1.13526 z m -40.32256,-3.47411 c -13,-7.20974 -13,-7.20974 -20.40748,-6.97961 -8.5348,0.26516 -12.09252,-1.29902 -12.09252,-5.31657 0,-3.07675 1.15136,-3.10734 20.34396,-0.54052 15.00842,2.00722 17.80174,3.11993 12.48501,4.97335 -3.32256,1.15825 -3.32256,1.15825 4.17424,5.2188 4.12323,2.2333 8.05929,4.5231 8.74679,5.08843 1.34786,1.10835 1.73326,4.78851 0.5,4.77443 -0.4125,-0.005 -6.6,-3.25294 -13.75,-7.21831 z m 65.72251,-2.32983 c -1.32135,-0.92551 -2.22251,-2.60412 -2.22251,-4.13991 0,-2.52314 0.12205,-2.56973 5.25,-2.00381 2.8875,0.31867 9.975,1.09984 15.75,1.73595 16.33065,1.79881 15.76877,3.05554 -2.21059,4.94434 -12.74772,1.33919 -13.9442,1.30044 -16.5669,-0.53657 z m 22.88157,-19.31969 c -6.34799,-7.53953 -10.06981,-12.77053 -9.72516,-13.66867 0.75511,-1.96778 6.07808,-1.85508 8.10476,0.17159 2.22186,2.22187 12.7109,23.28972 12.26349,24.63195 -0.19779,0.59338 -4.98718,-4.41731 -10.64309,-11.13487 z M 553.03381,591.425 c -12.75743,-6.95551 -12.86326,-6.99144 -20.59501,-6.99144 -6.25909,0 -8.09379,-0.35593 -9.42667,-1.82874 -1.66432,-1.83905 -2.30333,-6.18519 -0.90499,-6.15515 2.39279,0.0514 31.9279,4.06427 33.43571,4.54283 2.4808,0.78738 2.28374,2.23288 -0.35738,2.62151 -4.09926,0.60318 -2.77461,2.32576 4.94269,6.42747 5.47205,2.90837 7.82229,4.73342 8.04853,6.25 0.18967,1.27145 -0.21677,2.1386 -1,2.13352 -0.72575,-0.005 -7.09005,-3.15471 -14.14288,-7 z m 13.10757,-5.53977 c -2.59367,-1.35036 -5.24911,-3.45177 -5.90097,-4.66979 -0.65187,-1.21802 -4.24651,-5.82973 -7.98809,-10.24823 -17.8704,-21.10349 -17.02761,-19.92305 -15.19581,-21.28365 4.71685,-3.50353 7.4409,-0.95766 15.25935,14.26125 6.54128,12.73285 6.54128,12.73285 13.04128,16.20018 7.54062,4.02244 9.50064,5.66949 8.55931,7.19261 -0.98021,1.586 -2.47582,1.30663 -7.77507,-1.45237 z m 5.43827,-28.00837 c -1.31728,-0.92266 -2.22251,-2.60448 -2.22251,-4.12917 0,-2.56822 0.0103,-2.57124 6.25,-1.82867 3.4375,0.40908 10.65216,1.2547 16.03258,1.87916 5.38042,0.62446 9.7826,1.58538 9.78262,2.13538 2e-5,0.98027 -15.6462,3.24438 -23.59269,3.41402 -2.21513,0.0473 -5.02763,-0.61454 -6.25,-1.47072 z m 30.20447,-10.65197 c -8.63064,-9.3274 -17.55351,-21.01921 -17.04755,-22.33773 0.31527,-0.82156 1.85374,-1.4536 3.53829,-1.4536 2.19474,0 3.62466,0.85681 5.4239,3.25 3.12882,4.16169 11.86702,21.62408 11.4487,22.87905 -0.17483,0.52448 -1.68833,-0.52749 -3.36334,-2.33772 z m -36.19526,-18.47636 c -3.57593,-2.08191 -8.59937,-8.31497 -6.70131,-8.31497 1.17727,0 13.01349,6.16068 14.33791,7.4628 1.63964,1.61202 0.6809,3.57667 -1.67734,3.43717 -0.93004,-0.055 -3.61171,-1.21826 -5.95926,-2.585 z m -20.08535,-22.56497 c -9.07273,-10.95939 -9.96327,-12.3817 -8.45264,-13.5 2.33718,-1.73019 4.72122,-1.56274 7.11864,0.5 1.86333,1.6032 13.18763,22.59849 13.18763,24.44989 0,2.24071 -2.59484,-0.26575 -11.85363,-11.44989 z m 25.50862,-5.57874 c -1.83315,-2.0256 -2.2452,-6.17126 -0.61339,-6.17126 1.94893,0 27.44751,3.06593 29.85304,3.5895 4.3106,0.93823 0.79034,2.13138 -9.68048,3.2811 -14.37775,1.5787 -17.6019,1.46342 -19.55917,-0.69934 z m 29.81244,-11.4158 c -12.0693,-13.50682 -17.31686,-20.50603 -16.20655,-21.61634 2.28095,-2.28095 6.51967,-1.29563 9.08074,2.11088 3.20219,4.25928 11.86259,21.63738 11.4299,22.93544 -0.18516,0.55549 -2.12201,-0.988 -4.30409,-3.42998 z m -49.73369,-25.25468 c -10.32145,-5.69338 -20.44645,-11.17267 -22.5,-12.17619 -3.94657,-1.92859 -4.94358,-4.56421 -1.94501,-5.14168 2.04556,-0.39394 3.70057,0.42609 27.21127,13.48262 3.3,1.83264 8.25,4.47897 11,5.88074 2.75,1.40178 6.07722,3.36557 7.39382,4.36399 2.53704,1.92392 2.14912,4.14041 -0.70284,4.01594 -0.93004,-0.0406 -10.1358,-4.73203 -20.45724,-10.42542 z"
       id="path4585"
       inkscape:connector-curvature="0" /><path
       style="fill:#09099b"
       d="m 343.85714,572.82689 c -42.9,-23.39408 -83.4,-45.40774 -90,-48.91924 -6.6,-3.51151 -12.76398,-6.9672 -13.69773,-7.67932 -1.35486,-1.03328 -2.02234,-4.78189 -3.30501,-18.56119 -1.45397,-15.6194 -1.45895,-17.41474 -0.0523,-18.82143 2.06547,-2.06546 2.07758,-17.3989 0.0306,-38.71318 -1.35788,-14.13891 -1.35752,-16.02946 0.003,-17.97251 1.07819,-1.53934 1.52096,-4.70287 1.52096,-10.86718 0,-4.78264 0.28116,-9.42839 0.62479,-10.32388 0.34364,-0.8955 2.70614,-2.75782 5.25,-4.13848 2.54387,-1.38067 6.87521,-3.84895 9.62521,-5.48508 2.75,-1.63613 10.98821,-5.92458 18.30712,-9.5299 12.13082,-5.97566 18.27288,-9.28322 29.69288,-15.98986 4.46981,-2.625 26.2848,-13.33175 31.12297,-15.27509 3.01608,-1.21146 3.88887,-0.83856 25.5,10.89494 12.30737,6.68214 23.27703,13.14045 24.37703,14.3518 1.1,1.21135 11.60274,18.95007 23.33943,39.41937 13.21535,23.04733 21.91356,37.2169 22.84665,37.2169 0.82871,0 12.12872,-5.625 25.11115,-12.5 12.98242,-6.875 23.99354,-12.5 24.46914,-12.5 0.4756,0 10.07244,4.99419 21.32631,11.09821 20.46158,11.09821 20.46158,11.09821 19.798,14.63537 -0.5895,3.14232 -0.28553,3.88484 2.72311,6.65179 3.38669,3.11463 3.38669,3.11463 3.09004,19.86463 -0.16315,9.2125 -0.70423,16.75 -1.20239,16.75 -0.49816,0 -10.7932,-5.4 -22.87787,-12 -12.08467,-6.6 -22.83635,-12 -23.89262,-12 -3.68492,0 -7.62415,7.58813 -5.5076,10.60927 0.42742,0.61011 10.90213,6.63593 23.27713,13.39073 12.375,6.7548 22.83061,12.78062 23.23469,13.39073 0.40408,0.6101 0.74158,2.81122 0.75,4.89139 0.0198,4.88217 2.32642,10.36458 4.67402,11.10912 1.6904,0.5361 1.81269,1.67078 1.49228,13.84636 -0.19196,7.29432 -0.48392,13.40436 -0.64881,13.57788 -0.16489,0.17351 -3.01613,-1.05573 -6.33609,-2.73164 -6.84441,-3.45505 -8.64621,-5.57385 -16.65376,-19.58384 -3.14358,-5.5 -6.41461,-10.7875 -7.26895,-11.75 -2.20973,-2.48947 -7.16855,-2.16489 -11.45819,0.75 -2.0235,1.375 -4.35209,2.5 -5.17466,2.5 -0.82256,0 -11.91298,-5.68185 -24.64537,-12.62632 -23.1498,-12.62633 -23.1498,-12.62633 -25.80748,-10.64786 -3.31542,2.46812 -4.984,6.74064 -3.53166,9.04307 0.57707,0.91485 9.80831,6.40361 20.51387,12.19724 29.10726,15.75226 26.52757,13.7598 27.04311,20.88709 0.65873,9.10687 2.00575,10.14678 13.14325,10.14678 6.26822,0 9.49745,0.42322 10.59501,1.38856 0.86831,0.76371 6.39216,3.97642 12.27523,7.13935 5.88306,3.16294 10.94395,6.39568 11.24641,7.18388 1.03145,2.68792 -1.37028,5.02752 -9.65901,9.40914 -4.55614,2.40849 -8.77788,4.51137 -9.38164,4.67307 -0.60376,0.1617 -2.31416,-1.3008 -3.80089,-3.25 -3.35745,-4.40184 -7.56096,-4.73926 -13.00622,-1.044 -2.02618,1.375 -4.25675,2.5 -4.95683,2.5 -0.70008,0 -11.64512,-5.625 -24.32231,-12.5 -12.6772,-6.875 -23.51942,-12.5 -24.09383,-12.5 -2.10941,0 -6.33351,6.23237 -6.02512,8.88965 0.26547,2.28743 3.08635,4.13164 22.80295,14.90792 12.375,6.76366 23.10875,12.90098 23.85278,13.63849 2.71073,2.68698 0.20351,5.1425 -11.60905,11.36962 -6.45905,3.40497 -13.87391,7.38827 -16.47746,8.85179 -4.73373,2.66095 -4.73373,2.66095 -8.7804,0.83616 -3.9965,-1.80217 -4.08298,-1.79795 -6.97578,0.34079 -1.61101,1.19107 -3.28483,2.14939 -3.7196,2.12959 -0.43477,-0.0198 -35.89049,-19.1766 -78.79049,-42.57068 z m 24,-86.55684 c 8.8,-5.75999 24.93952,-15.16707 35.86561,-20.9046 10.92608,-5.73754 20.05812,-10.91984 20.29341,-11.51623 0.53216,-1.34882 -40.70199,-73.48939 -42.37357,-74.13404 -1.70013,-0.65565 -91.28398,46.93111 -91.28479,48.4903 -5.9e-4,1.13839 41.90552,74.99396 44.21824,77.93047 1.00215,1.27247 0.82281,1.37952 33.2811,-19.8659 z m -157.5,43.34872 c 0,-0.78709 3.9918,-2.95138 10.75,-5.82847 4.69319,-1.99797 4.00499,-0.91831 -1.98665,3.11669 -4.95294,3.3355 -8.76335,4.51462 -8.76335,2.71178 z m 1.03571,-57.63709 c 1.76161,-1.74668 13.3489,-6.97944 12.53347,-5.66005 -1.15281,1.86528 -9.97224,7.11193 -11.95491,7.11193 -1.79146,0 -1.86266,-0.17866 -0.57856,-1.45188 z m -0.50279,-56.60139 c 0.74458,-1.20475 11.57282,-6.17432 12.16437,-5.58278 0.21442,0.21442 -1.73191,1.79525 -4.32516,3.51295 -4.55907,3.01981 -9.18045,4.24001 -7.83921,2.06983 z m 26.18899,-33.46315 c -1.16602,-4.12184 -1.89894,-15.71103 -0.95677,-15.12873 1.65033,1.01996 3.4716,11.89993 2.4488,14.62873 -0.85965,2.29349 -0.97384,2.33176 -1.49203,0.5 z m 47.92586,-25.16207 c -1.33993,-6.96823 -1.79455,-15.32151 -0.83385,-15.32151 1.26026,0 2.52051,7.04681 2.31269,12.93161 -0.18812,5.32697 -0.74196,6.222 -1.47884,2.3899 z m 48.09819,-25.82151 c -1.51272,-8.80148 -1.97611,-16.00218 -0.9653,-15 1.58509,1.57156 2.79467,9.55527 2.19684,14.5 -0.54406,4.5 -0.54406,4.5 -1.23154,0.5 z"
       id="path4583"
       inkscape:connector-curvature="0" /><path
       style="fill:#3b1351"
       d="m 343.85714,572.82689 c -42.9,-23.39408 -83.4,-45.40774 -90,-48.91924 -6.6,-3.51151 -12.76398,-6.9672 -13.69773,-7.67932 -1.35486,-1.03328 -2.02234,-4.78189 -3.30501,-18.56119 -1.45397,-15.6194 -1.45895,-17.41474 -0.0523,-18.82143 2.06547,-2.06546 2.07758,-17.3989 0.0306,-38.71318 -1.35788,-14.13891 -1.35752,-16.02946 0.003,-17.97251 1.07819,-1.53934 1.52096,-4.70287 1.52096,-10.86718 0,-4.78264 0.28116,-9.42839 0.62479,-10.32388 0.34364,-0.8955 2.70614,-2.75782 5.25,-4.13848 2.54387,-1.38067 6.87521,-3.84895 9.62521,-5.48508 2.75,-1.63613 10.98821,-5.92458 18.30712,-9.5299 12.13082,-5.97566 18.27288,-9.28322 29.69288,-15.98986 4.46981,-2.625 26.2848,-13.33175 31.12297,-15.27509 3.01608,-1.21146 3.88887,-0.83856 25.5,10.89494 12.30737,6.68214 23.27703,13.14045 24.37703,14.3518 1.1,1.21135 11.60274,18.95007 23.33943,39.41937 13.21535,23.04733 21.91356,37.2169 22.84665,37.2169 0.82871,0 12.12872,-5.625 25.11115,-12.5 12.98242,-6.875 23.99354,-12.5 24.46914,-12.5 0.4756,0 10.07244,4.99419 21.32631,11.09821 20.46158,11.09821 20.46158,11.09821 19.798,14.63537 -0.5895,3.14232 -0.28553,3.88484 2.72311,6.65179 3.38669,3.11463 3.38669,3.11463 3.09004,19.86463 -0.16315,9.2125 -0.70423,16.75 -1.20239,16.75 -0.49816,0 -10.7932,-5.4 -22.87787,-12 -12.08467,-6.6 -22.83635,-12 -23.89262,-12 -3.68492,0 -7.62415,7.58813 -5.5076,10.60927 0.42742,0.61011 10.90213,6.63593 23.27713,13.39073 12.375,6.7548 22.83061,12.78062 23.23469,13.39073 0.40408,0.6101 0.74158,2.81122 0.75,4.89139 0.0198,4.88217 2.32642,10.36458 4.67402,11.10912 1.6904,0.5361 1.81269,1.67078 1.49228,13.84636 -0.19196,7.29432 -0.48392,13.40436 -0.64881,13.57788 -0.16489,0.17351 -3.01613,-1.05573 -6.33609,-2.73164 -6.84441,-3.45505 -8.64621,-5.57385 -16.65376,-19.58384 -3.14358,-5.5 -6.41461,-10.7875 -7.26895,-11.75 -2.20973,-2.48947 -7.16855,-2.16489 -11.45819,0.75 -2.0235,1.375 -4.35209,2.5 -5.17466,2.5 -0.82256,0 -11.91298,-5.68185 -24.64537,-12.62632 -23.1498,-12.62633 -23.1498,-12.62633 -25.80748,-10.64786 -3.31542,2.46812 -4.984,6.74064 -3.53166,9.04307 0.57707,0.91485 9.80831,6.40361 20.51387,12.19724 29.10726,15.75226 26.52757,13.7598 27.04311,20.88709 0.65873,9.10687 2.00575,10.14678 13.14325,10.14678 6.26822,0 9.49745,0.42322 10.59501,1.38856 0.86831,0.76371 6.39216,3.97642 12.27523,7.13935 5.88306,3.16294 10.94395,6.39568 11.24641,7.18388 1.03145,2.68792 -1.37028,5.02752 -9.65901,9.40914 -4.55614,2.40849 -8.77788,4.51137 -9.38164,4.67307 -0.60376,0.1617 -2.31416,-1.3008 -3.80089,-3.25 -3.35745,-4.40184 -7.56096,-4.73926 -13.00622,-1.044 -2.02618,1.375 -4.25675,2.5 -4.95683,2.5 -0.70008,0 -11.64512,-5.625 -24.32231,-12.5 -12.6772,-6.875 -23.51942,-12.5 -24.09383,-12.5 -2.10941,0 -6.33351,6.23237 -6.02512,8.88965 0.26547,2.28743 3.08635,4.13164 22.80295,14.90792 12.375,6.76366 23.10875,12.90098 23.85278,13.63849 2.71073,2.68698 0.20351,5.1425 -11.60905,11.36962 -6.45905,3.40497 -13.87391,7.38827 -16.47746,8.85179 -4.73373,2.66095 -4.73373,2.66095 -8.7804,0.83616 -3.9965,-1.80217 -4.08298,-1.79795 -6.97578,0.34079 -1.61101,1.19107 -3.28483,2.14939 -3.7196,2.12959 -0.43477,-0.0198 -35.89049,-19.1766 -78.79049,-42.57068 z m 82.46482,38.67241 c 0.61149,-1.14258 1.03518,-9.87103 1.03518,-21.32568 0,-19.39123 -3e-5,-19.39146 -2.5,-21.74006 -1.67176,-1.57054 -2.5,-3.425 -2.5,-5.59759 0,-2.0066 0.95597,-4.38506 2.5,-6.22004 2.48367,-2.95167 2.5,-3.10128 2.5,-22.90241 0,-19.93133 0,-19.93133 -2.5,-22.27996 -1.80219,-1.69307 -2.5,-3.39232 -2.5,-6.0878 0,-3.73916 0,-3.73916 -17.25,-13.02242 -23.99408,-12.91266 -22.30657,-12.17471 -24.9632,-10.91639 -1.83208,0.86777 -1.72761,0.63178 0.52541,-1.18682 1.54672,-1.24848 8.97172,-5.46734 16.5,-9.37525 24.91957,-12.93566 28.43692,-14.89698 28.90549,-16.11805 0.73662,-1.91958 -42.71418,-77.29327 -44.55738,-77.29327 -1.50884,0 -89.24474,46.06474 -91.99652,48.30174 -0.85988,0.69901 -1.12587,2.17564 -0.74616,4.14225 0.59004,3.05601 0.59004,3.05601 -1.94012,-0.13501 -2.59704,-3.27537 -41.67491,-25.30898 -44.88692,-25.30898 -1.43463,0 -1.5906,5.33205 -1.5906,54.37756 0,49.28562 0.15433,54.50607 1.64811,55.75 2.94753,2.45452 179.79984,98.6558 181.56671,98.76574 0.94315,0.0587 2.18065,-0.76372 2.75,-1.82756 z M 332.60797,508.69504 c -3.95355,-5.74097 -14.6698,-25.26148 -13.86789,-25.26148 0.23887,0 3.26932,5.0439 6.73434,11.20866 3.46502,6.16476 7.13741,12.04603 8.16086,13.06948 1.64521,1.64521 2.11348,1.69795 4.04134,0.45515 1.19929,-0.77312 3.53052,-2.20146 5.18052,-3.17408 3,-1.7684 3,-1.7684 0.26535,0.61152 -1.50406,1.30896 -4.05724,3.16119 -5.67373,4.11608 -2.91211,1.72022 -2.95653,1.71081 -4.84079,-1.02533 z m 16.18616,-7.44001 c 1.61534,-1.27681 4.76534,-3.36613 7,-4.64294 4.06301,-2.32146 4.06301,-2.32146 1.12602,0 -1.61534,1.27681 -4.76534,3.36613 -7,4.64294 -4.06301,2.32146 -4.06301,2.32146 -1.12602,0 z m 17.92472,-11.59771 c 0.36172,-0.58527 3.01581,-2.46585 5.89798,-4.17906 3.76513,-2.23805 4.47049,-2.46451 2.50566,-0.80448 -3.5017,2.95849 -9.26403,6.37568 -8.40364,4.98354 z m -50.86171,-10.22376 c -0.85325,-1.65 -1.32636,-3 -1.05136,-3 0.275,0 1.19811,1.35 2.05136,3 0.85325,1.65 1.32636,3 1.05136,3 -0.275,0 -1.19811,-1.35 -2.05136,-3 z m -4,-7 c -0.85325,-1.65 -1.32636,-3 -1.05136,-3 0.275,0 1.19811,1.35 2.05136,3 0.85325,1.65 1.32636,3 1.05136,3 -0.275,0 -1.19811,-1.35 -2.05136,-3 z m -3.96489,-6.58676 c -0.9322,-1.42272 -1.46714,-2.81454 -1.18875,-3.09293 0.27839,-0.2784 1.2259,0.88565 2.10558,2.58676 1.94454,3.76031 1.40906,4.05593 -0.91683,0.50617 z M 303.5,458.2907 c -0.70479,-1.12854 -1.06172,-2.27162 -0.79317,-2.54017 0.26855,-0.26854 1.01119,0.48882 1.65031,1.68303 0.63912,1.19421 0.99605,2.33729 0.79317,2.54017 -0.20289,0.20288 -0.94552,-0.55448 -1.65031,-1.68303 z m -4,-7 c -0.70479,-1.12854 -1.06172,-2.27162 -0.79317,-2.54017 0.26855,-0.26854 1.01119,0.48882 1.65031,1.68303 0.63912,1.19421 0.99605,2.33729 0.79317,2.54017 -0.20289,0.20288 -0.94552,-0.55448 -1.65031,-1.68303 z m -3.9986,-7.60714 c -1.0912,-2.55004 -1.06651,-2.60886 0.33949,-0.80887 0.83394,1.06762 1.51625,2.30512 1.51625,2.75 0,1.51991 -0.67833,0.81036 -1.85574,-1.94113 z M 291.5,437.2907 c -0.70479,-1.12854 -1.06172,-2.27162 -0.79317,-2.54017 0.26855,-0.26854 1.01119,0.48882 1.65031,1.68303 0.63912,1.19421 0.99605,2.33729 0.79317,2.54017 -0.20289,0.20288 -0.94552,-0.55448 -1.65031,-1.68303 z m 162.38697,165.90347 c 8.50859,-4.53167 15.47017,-8.73655 15.47017,-9.34419 0,-1.15683 -35.14447,-20.68091 -38.22597,-21.23597 -1.64487,-0.29629 -1.77403,0.99185 -1.77403,17.6933 0,17.48034 0.0657,18.05886 2.22251,19.56955 1.22237,0.85618 3.2608,1.5567 4.52983,1.5567 1.26902,0 9.2689,-3.70773 17.77749,-8.23939 z m 30.07689,-27.81675 c 6.58995,-3.46651 9.3003,-3.31617 13.57926,0.75322 2.68599,2.55444 2.68599,2.55444 11,-1.94209 4.57271,-2.47309 8.31402,-5.08574 8.31402,-5.80588 0,-0.72014 -5.625,-4.38136 -12.5,-8.13603 -12.5,-6.82667 -12.5,-6.82667 -20.22452,-6.56988 -7.16643,0.23825 -7.9137,0.0678 -10.34319,-2.35913 -1.99992,-1.99781 -2.78905,-4.06081 -3.3397,-8.73087 -0.39656,-3.36323 -0.91712,-6.3092 -1.1568,-6.54661 -1.94553,-1.92708 -38.07887,-20.63619 -38.88862,-20.13574 -0.66827,0.41301 -1.03247,7.04832 -1.00655,18.33817 0.0406,17.69098 0.0406,17.69098 24.25,30.85606 13.31516,7.2408 24.27618,13.2033 24.35783,13.25 0.0816,0.0467 2.76287,-1.29034 5.95827,-2.97122 z m 39.39328,-35.89945 c 0,-10.03691 -0.20964,-11.26451 -2.5,-14.63955 -1.79655,-2.64736 -2.5,-5.01714 -2.5,-8.42196 0,-2.60591 -0.5625,-5.19835 -1.25,-5.76098 -0.6875,-0.56263 -10.475,-6.0632 -21.75,-12.22349 -11.275,-6.16029 -21.76582,-11.94255 -23.31292,-12.84948 -2.78588,-1.63309 -2.95164,-1.57683 -17.2379,5.85105 -7.93373,4.125 -14.41647,7.95 -14.40607,8.5 0.0104,0.55 8.524,5.59586 18.91913,11.21302 18.90023,10.21302 18.90023,10.21302 24.87059,7.13387 9.68528,-4.99509 11.18589,-3.85285 22.53466,17.15311 4.55997,8.44026 5.69027,9.80416 10.13251,12.22664 2.75,1.49965 5.3375,2.73715 5.75,2.75 0.4125,0.0129 0.75,-4.90666 0.75,-10.93223 z m -96.92486,-41.63495 c 1.0417,-1.25517 2.42007,-1.45309 6.53717,-0.93869 5.10423,0.63773 5.55322,0.47285 20.74461,-7.61807 14.07642,-7.49708 15.69181,-8.63436 17.28608,-12.16983 2.5757,-5.71187 5.45124,-7.30192 10.30706,-5.69935 3.83107,1.26437 3.96811,1.215 19.20427,-6.91795 17.0933,-9.12428 18.79551,-10.36273 17.32872,-12.60765 -1.14338,-1.74995 -37.22164,-21.45792 -39.28178,-21.45792 -0.76217,0 -8.88175,3.99032 -18.04352,8.86737 -9.16176,4.87706 -22.50775,11.89646 -29.65775,15.59867 -32.75143,16.95841 -43.55184,23.02035 -43.28217,24.29296 0.31606,1.49158 33.3633,20.05087 35.90973,20.16686 0.89515,0.0408 2.22156,-0.6416 2.94758,-1.5164 z m 96.92486,-19.84137 c 0,-15.4319 0,-15.4319 -2.99085,-17.56158 -2.99086,-2.12967 -2.99086,-2.12967 -17.54999,5.53194 -8.00753,4.21389 -14.41537,8.09292 -14.23965,8.62007 0.36824,1.10474 31.64852,18.58704 33.53049,18.73993 0.95039,0.0772 1.25,-3.59734 1.25,-15.33036 z m -227,-58.00236 c 34.28872,-17.87329 81.4198,-43.33249 81.66939,-44.11606 0.16637,-0.52232 -9.16047,-6.05611 -20.72631,-12.29732 -15.11606,-8.15699 -21.6494,-11.18905 -23.23595,-10.7836 -2.49562,0.63778 -88.62398,46.1481 -90.06781,47.59193 -1.08041,1.08041 0.33887,1.9739 23.32382,14.68324 9.09527,5.02916 17.43686,9.19086 18.53686,9.24822 1.1,0.0574 5.825,-1.88952 10.5,-4.32641 z m -86,109.61948 c 0,-0.78709 3.9918,-2.95138 10.75,-5.82847 4.69319,-1.99797 4.00499,-0.91831 -1.98665,3.11669 -4.95294,3.3355 -8.76335,4.51462 -8.76335,2.71178 z m 1.03571,-57.63709 c 1.76161,-1.74668 13.3489,-6.97944 12.53347,-5.66005 -1.15281,1.86528 -9.97224,7.11193 -11.95491,7.11193 -1.79146,0 -1.86266,-0.17866 -0.57856,-1.45188 z m -0.50279,-56.60139 c 0.74458,-1.20475 11.57282,-6.17432 12.16437,-5.58278 0.21442,0.21442 -1.73191,1.79525 -4.32516,3.51295 -4.55907,3.01981 -9.18045,4.24001 -7.83921,2.06983 z m 26.18899,-33.46315 c -1.16602,-4.12184 -1.89894,-15.71103 -0.95677,-15.12873 1.65033,1.01996 3.4716,11.89993 2.4488,14.62873 -0.85965,2.29349 -0.97384,2.33176 -1.49203,0.5 z m 47.92586,-25.16207 c -1.33993,-6.96823 -1.79455,-15.32151 -0.83385,-15.32151 1.26026,0 2.52051,7.04681 2.31269,12.93161 -0.18812,5.32697 -0.74196,6.222 -1.47884,2.3899 z m 48.09819,-25.82151 c -1.51272,-8.80148 -1.97611,-16.00218 -0.9653,-15 1.58509,1.57156 2.79467,9.55527 2.19684,14.5 -0.54406,4.5 -0.54406,4.5 -1.23154,0.5 z"
       id="path4581"
       inkscape:connector-curvature="0" /></g></svg>