<?xml version="1.0" encoding="UTF-8" standalone="no"?>
<svg width="64px" height="64px" id="svg2816" version="1.1" xmlns:xlink="http://www.w3.org/1999/xlink" xmlns="http://www.w3.org/2000/svg" xmlns:svg="http://www.w3.org/2000/svg" xmlns:rdf="http://www.w3.org/1999/02/22-rdf-syntax-ns#" xmlns:cc="http://creativecommons.org/ns#" xmlns:dc="http://purl.org/dc/elements/1.1/">
  <defs id="defs2818">
    <linearGradient id="linearGradient4466">
      <stop style="stop-color:#555753;stop-opacity:0" offset="0" id="stop4468" />
      <stop style="stop-color:#555753;stop-opacity:1" offset="1" id="stop4470" />
    </linearGradient>
    <linearGradient id="linearGradient3075">
      <stop style="stop-color:#c4a000;stop-opacity:1" offset="0" id="stop3077" />
      <stop id="stop3079" offset="1" style="stop-color:#fce94f;stop-opacity:1" />
    </linearGradient>
    <linearGradient id="linearGradient3681">
      <stop id="stop3697" offset="0" style="stop-color:#fff110;stop-opacity:1" />
      <stop style="stop-color:#cf7008;stop-opacity:1" offset="1" id="stop3685" />
    </linearGradient>
    <pattern patternTransform="matrix(0.67643728,-0.81829155,2.4578314,1.8844554,-26.450606,18.294947)" id="pattern5231" xlink:href="#Strips1_1-4" />
    <pattern id="Strips1_1-4" patternTransform="matrix(0.66772843,-1.0037085,2.4261878,2.3114548,3.4760987,3.534923)" height="1" width="2" patternUnits="userSpaceOnUse">
      <rect id="rect4483-4" height="2" width="1" y="-0.5" x="0" style="fill:black;stroke:none" />
    </pattern>
    <pattern patternTransform="matrix(0.66772843,-1.0037085,2.4261878,2.3114548,39.618381,8.9692804)" id="pattern5231-4" xlink:href="#Strips1_1-6" />
    <pattern id="Strips1_1-6" patternTransform="matrix(0.66772843,-1.0037085,2.4261878,2.3114548,3.4760987,3.534923)" height="1" width="2" patternUnits="userSpaceOnUse">
      <rect id="rect4483-0" height="2" width="1" y="-0.5" x="0" style="fill:black;stroke:none" />
    </pattern>
    <pattern patternTransform="matrix(0.66513382,-1.0631299,2.4167603,2.4482973,-49.762569,2.9546807)" id="pattern5296" xlink:href="#pattern5231-3" />
    <pattern patternTransform="matrix(0.66772843,-1.0037085,2.4261878,2.3114548,-26.336284,10.887197)" id="pattern5231-3" xlink:href="#Strips1_1-4-3" />
    <pattern id="Strips1_1-4-3" patternTransform="matrix(0.66772843,-1.0037085,2.4261878,2.3114548,3.4760987,3.534923)" height="1" width="2" patternUnits="userSpaceOnUse">
      <rect id="rect4483-4-6" height="2" width="1" y="-0.5" x="0" style="fill:black;stroke:none" />
    </pattern>
    <pattern patternTransform="matrix(0.42844886,-0.62155849,1.5567667,1.431396,27.948414,13.306456)" id="pattern5330" xlink:href="#Strips1_1-9" />
    <pattern id="Strips1_1-9" patternTransform="matrix(0.66772843,-1.0037085,2.4261878,2.3114548,3.4760987,3.534923)" height="1" width="2" patternUnits="userSpaceOnUse">
      <rect id="rect4483-3" height="2" width="1" y="-0.5" x="0" style="fill:black;stroke:none" />
    </pattern>
    <linearGradient xlink:href="#linearGradient3681" id="linearGradient3687" x1="37.89756" y1="41.087898" x2="4.0605712" y2="40.168594" gradientUnits="userSpaceOnUse" />
    <radialGradient xlink:href="#linearGradient12512" id="radialGradient278" gradientUnits="userSpaceOnUse" cx="55" cy="125" fx="55" fy="125" r="14.375" />
    <linearGradient id="linearGradient12512">
      <stop style="stop-color:#ffffff;stop-opacity:1" offset="0.0000000" id="stop12513" />
      <stop style="stop-color:#fff520;stop-opacity:0.89108908" offset="0.50000000" id="stop12517" />
      <stop style="stop-color:#fff300;stop-opacity:0" offset="1.0000000" id="stop12514" />
    </linearGradient>
    <radialGradient r="14.375" fy="125" fx="55" cy="125" cx="55" gradientUnits="userSpaceOnUse" id="radialGradient4227" xlink:href="#linearGradient12512" />
    <linearGradient xlink:href="#linearGradient3681-6" id="linearGradient3695-3" x1="31.777767" y1="40.24213" x2="68.442062" y2="54.041203" gradientUnits="userSpaceOnUse" gradientTransform="matrix(0.35076121,-0.80989332,0.9637072,0.29477747,-15.928037,46.874167)" />
    <linearGradient id="linearGradient3681-6">
      <stop id="stop3697-7" offset="0" style="stop-color:#fff110;stop-opacity:1" />
      <stop style="stop-color:#cf7008;stop-opacity:1" offset="1" id="stop3685-5" />
    </linearGradient>
    <linearGradient y2="24.271881" x2="59.207855" y1="55.155106" x1="3.962956" gradientTransform="matrix(0.25722491,-0.63634476,0.70671865,0.23161085,-2.6138957,43.901131)" gradientUnits="userSpaceOnUse" id="linearGradient3056" xlink:href="#linearGradient3075" />
    <radialGradient xlink:href="#linearGradient4466" id="radialGradient4472" cx="32" cy="32.000038" fx="32" fy="32.000038" r="30" gradientTransform="matrix(0.73333333,-1.7021032e-6,2.1663171e-6,0.93333504,8.533264,2.1333488)" gradientUnits="userSpaceOnUse" />
  </defs>
  <metadata id="metadata2821">
    <rdf:RDF>
      <cc:Work rdf:about="">
        <dc:format>image/svg+xml</dc:format>
        <dc:type rdf:resource="http://purl.org/dc/dcmitype/StillImage" />
        <dc:creator>
          <cc:Agent>
            <dc:title>[Przemo Firszt]</dc:title>
          </cc:Agent>
        </dc:creator>
        <dc:title>fem-frequency-analysis</dc:title>
        <dc:date>2015-09-05</dc:date>
        <dc:relation>http://www.freecad.org/wiki/index.php?title=Artwork</dc:relation>
        <dc:publisher>
          <cc:Agent>
            <dc:title>FreeCAD</dc:title>
          </cc:Agent>
        </dc:publisher>
        <dc:identifier>FreeCAD/src/Mod/</dc:identifier>
        <dc:rights>
          <cc:Agent>
            <dc:title>FreeCAD LGPL2+</dc:title>
          </cc:Agent>
        </dc:rights>
        <cc:license>https://www.gnu.org/copyleft/lesser.html</cc:license>
        <dc:contributor>
          <cc:Agent>
            <dc:title>[agryson] Alexander Gryson</dc:title>
          </cc:Agent>
        </dc:contributor>
      </cc:Work>
    </rdf:RDF>
  </metadata>
  <g id="layer1">
    <path style="fill:#fce94f;fill-opacity:1;stroke:#302b00;stroke-width:2;stroke-linecap:butt;stroke-linejoin:round;stroke-miterlimit:4;stroke-opacity:1;stroke-dasharray:none" d="m 21,9.0000001 26,0 L 47,57 21,57 z" id="path2896" />
    <path style="fill:url(#linearGradient3056);fill-opacity:1;stroke:#fce94f;stroke-width:2;stroke-linecap:butt;stroke-linejoin:miter;stroke-miterlimit:4;stroke-opacity:1;stroke-dasharray:none" d="m 23,11 22,0 0,44 -22,0 z" id="path2896-3" />
    <path style="color:#000000;fill:url(#radialGradient4227);fill-opacity:1;fill-rule:nonzero;stroke:none;stroke-width:1.25000024;marker:none;visibility:visible;display:block" id="path12511" d="m 69.375,125 a 14.375,14.375 0 1 1 -28.75,0 14.375,14.375 0 1 1 28.75,0 z" transform="matrix(1.0434783,0,0,1.0434783,-8.3913071,-115.43479)" />
    <path style="fill:url(#radialGradient4472);stroke:#2e3436;stroke-width:6;stroke-linecap:round;stroke-linejoin:round;fill-opacity:1" d="m 5,50.968398 c 0.036067,-0.08482 0.072136,0.06715 0.108213,-0.01766 0.036067,-0.08483 0.072136,0.03195 0.1082219,-0.05284 0.036067,-0.08479 0.072136,-0.0028 0.108213,-0.08762 0.036067,-0.08476 0.072136,-0.03703 0.1082129,-0.121742 0.036068,-0.0847 0.072136,-0.0703 0.1082219,-0.154944 0.036067,-0.08466 0.072136,-0.102398 0.108213,-0.18697 0.036067,-0.08459 0.072136,-0.133095 0.1082219,-0.217579 0.036067,-0.08449 0.072136,-0.162148 0.1082129,-0.246531 0.036068,-0.08437 0.072136,-0.18934 0.1082131,-0.273606 0.036068,-0.08426 0.072136,-0.214452 0.1082218,-0.298593 0.036068,-0.08415 0.072136,-0.237284 0.1082131,-0.321282 0.036067,-0.084 0.072136,-0.257655 0.1082217,-0.341502 0.036067,-0.08385 0.072136,-0.275396 0.1082131,-0.359069 0.036067,-0.08369 0.072136,-0.290362 0.108213,-0.373859 0.036067,-0.0835 0.072136,-0.302411 0.1082218,-0.385709 0.036067,-0.08329 0.072136,-0.311435 0.1082131,-0.394528 0.036067,-0.08309 0.072136,-0.317346 0.1082218,-0.400215 0.036067,-0.08286 0.072136,-0.320071 0.1082131,-0.402703 0.036067,-0.08265 0.072136,-0.319551 0.1082129,-0.401935 0.036067,-0.08239 0.072136,-0.315768 0.108222,-0.397894 0.036067,-0.08214 0.072136,-0.308704 0.1082128,-0.390555 0.036068,-0.08185 0.072136,-0.298387 0.108222,-0.379954 0.036067,-0.08157 0.072136,-0.284849 0.1082129,-0.366114 0.036068,-0.08124 0.072136,-0.268153 0.108213,-0.349105 0.036067,-0.08094 0.072136,-0.248381 0.1082219,-0.329009 0.036068,-0.08061 0.072136,-0.225625 0.108213,-0.305914 0.036067,-0.08029 0.072136,-0.200034 0.1082219,-0.279968 0.036068,-0.07995 0.072136,-0.171731 0.108213,-0.251304 0.036067,-0.07957 0.072136,-0.140888 0.108213,-0.220082 0.036067,-0.0792 0.072136,-0.107692 0.1082218,-0.186491 0.036067,-0.0788 0.072136,-0.07233 0.108213,-0.150738 0.036067,-0.0784 0.072136,-0.03503 0.1082218,-0.113024 0.036067,-0.07802 0.072136,0.0041 0.1082218,-0.07359 0.036067,-0.07758 0.072136,0.04442 0.1082131,-0.03269 0.036067,-0.07713 0.072136,0.0861 0.1082218,0.0095 0.036067,-0.07667 0.072136,0.12869 0.1082219,0.05249 0.036068,-0.07621 0.072136,0.171941 0.108213,0.0962 0.036067,-0.07573 0.072136,0.215561 0.1082219,0.14032 0.036068,-0.07524 0.072136,0.259251 0.1082129,0.184511 0.036067,-0.07474 0.072136,0.302718 0.1082219,0.228489 0.036068,-0.07424 0.072136,0.345662 0.1082218,0.271956 0.036067,-0.0737 0.072136,0.387782 0.1082157,0.314614 0.036084,-0.07317 0.072155,0.428776 0.1082191,0.356153 0.036076,-0.07262 0.072155,0.468357 0.1082192,0.396295 0.036076,-0.07206 0.072155,0.506216 0.1082187,0.434725 0.036084,-0.07148 0.072157,0.542091 0.1082189,0.471179 0.036074,-0.07092 0.072157,0.575686 0.1082182,0.505368 0.03606,-0.07031 0.07216,0.606735 0.10822,0.537024 0.03606,-0.06971 0.07216,0.634996 0.108218,0.565904 0.03606,-0.06911 0.07216,0.660216 0.108218,0.591746 0.03607,-0.06847 0.07216,0.682175 0.108219,0.614341 0.03607,-0.06786 0.07216,0.70066 0.108219,0.633474 0.03606,-0.06721 0.07216,0.715471 0.108218,0.648943 0.03606,-0.06652 0.07216,0.726441 0.10822,0.660585 0.03606,-0.06586 0.07216,0.733417 0.108218,0.66824 0.03608,-0.06519 0.07216,0.736262 0.108219,0.671776 0.03607,-0.06448 0.07216,0.734868 0.108219,0.671084 0.03607,-0.06379 0.07216,0.729146 0.108219,0.666072 0.03608,-0.06308 0.07216,0.719034 0.108218,0.656681 0.03607,-0.06236 0.07216,0.704498 0.108219,0.642876 0.03607,-0.06164 0.07215,0.685511 0.108217,0.624627 0.03607,-0.06089 0.07216,0.662094 0.108219,0.60196 0.03607,-0.06012 0.07216,0.634273 0.108219,0.574907 0.03607,-0.05937 0.07216,0.602118 0.108219,0.543513 0.03607,-0.05859 0.07216,0.565715 0.108218,0.50789 0.03607,-0.05783 0.07216,0.525164 0.108219,0.468128 0.03607,-0.05703 0.07216,0.480614 0.10822,0.424374 0.03607,-0.05623 0.07216,0.432209 0.108219,0.376775 0.03607,-0.05545 0.07216,0.380141 0.108218,0.325521 0.03606,-0.05462 0.07216,0.324611 0.108218,0.270816 0.03607,-0.05379 0.07216,0.265844 0.108218,0.212882 0.03607,-0.05295 0.07216,0.204088 0.108221,0.151966 0.03606,-0.05214 0.07216,0.139601 0.108219,0.08832 0.03606,-0.05128 0.07216,0.07267 0.108218,0.02223 0.03606,-0.05041 0.07216,0.0037 0.108219,-0.04595 0.03608,-0.04955 0.07216,-0.06732 0.10822,-0.11599 0.03608,-0.04868 0.07216,-0.139728 0.108219,-0.187527 0.03608,-0.0478 0.07216,-0.213315 0.108218,-0.26022 0.03608,-0.04691 0.07216,-0.287729 0.108218,-0.333738 0.03608,-0.04601 0.07216,-0.362603 0.108218,-0.407714 0.03608,-0.0451 0.07216,-0.437587 0.108219,-0.481785 0.03608,-0.04419 0.07216,-0.512318 0.108217,-0.555601 0.03608,-0.04329 0.07216,-0.58642 0.10822,-0.628779 0.03608,-0.04237 0.07216,-0.659541 0.108219,-0.700965 0.03608,-0.04145 0.07216,-0.731304 0.108218,-0.771792 0.03608,-0.04049 0.07216,-0.80135 0.108218,-0.840893 0.03608,-0.03955 0.07216,-0.869331 0.108219,-0.907926 0.03608,-0.03859 0.07216,-0.93489 0.10822,-0.972527 0.03608,-0.03765 0.07216,-0.997703 0.108218,-1.034374 0.03608,-0.03668 0.07216,-1.057434 0.108218,-1.093141 0.03608,-0.03571 0.07216,-1.113777 0.108218,-1.148507 0.03607,-0.03472 0.07216,-1.166431 0.108219,-1.200182 0.03606,-0.03375 0.07216,-1.215122 0.10822,-1.247889 0.03606,-0.03279 0.07216,-1.259581 0.108218,-1.291359 0.03607,-0.03178 0.07216,-1.299577 0.108219,-1.330357 0.03606,-0.03079 0.07216,-1.334883 0.108219,-1.364663 0.03606,-0.02979 0.07216,-1.365304 0.108219,-1.394078 0.03606,-0.02877 0.07216,-1.390662 0.108219,-1.418428 0.03608,-0.02778 0.07216,-1.410816 0.108218,-1.437565 0.03608,-0.02675 0.07216,-1.425636 0.108218,-1.451368 0.03608,-0.02573 0.07216,-1.435025 0.108219,-1.459739 0.03608,-0.02472 0.07216,-1.438916 0.108219,-1.462601 0.03608,-0.02369 0.07216,-1.437269 0.108218,-1.459926 0.03608,-0.02265 0.07216,-1.430064 0.10822,-1.451688 0.03608,-0.02161 0.07216,-1.417322 0.108219,-1.437907 0.03608,-0.0206 0.07216,-1.399074 0.108219,-1.418619 0.03606,-0.01955 0.07216,-1.375396 0.108218,-1.393898 0.03606,-0.0185 0.07216,-1.346387 0.108218,-1.363845 0.03608,-0.01744 0.07216,-1.312161 0.10822,-1.328567 0.03608,-0.01639 0.07216,-1.272883 0.108218,-1.288236 0.03608,-0.01535 0.07216,-1.228716 0.108218,-1.243017 0.03608,-0.01429 0.07216,-1.179869 0.108219,-1.193111 0.03606,-0.01325 0.07216,-1.126565 0.108219,-1.13875 0.03606,-0.01217 0.07216,-1.069052 0.10822,-1.080173 0.03606,-0.01117 0.07216,-1.007596 0.108218,-1.017658 0.03606,-0.01009 0.07216,-0.942494 0.108219,-0.951494 0.03606,-0.009 0.07216,-0.874048 0.108219,-0.881979 0.03606,-0.0079 0.07216,-0.802598 0.108218,-0.80946 0.03607,-0.0068 0.07216,-0.728468 0.108218,-0.734263 0.03607,-0.0059 0.07216,-0.65202 0.108219,-0.656742 0.03606,-0.0045 0.07216,-0.573615 0.108219,-0.577276 0.03608,-0.0037 0.07216,-0.493638 0.108219,-0.496226 0.03608,-0.0026 0.07216,-0.412476 0.108219,-0.413992 0.03608,-0.0016 0.07216,-0.330513 0.108218,-0.330958 0.03608,-4.63e-4 0.07216,-0.248143 0.10822,-0.247519 0.03608,6.14e-4 0.07216,-0.165765 0.108219,-0.164069 0.03608,0.0017 0.07216,-0.08378 0.108219,-0.081 0.03607,0.0028 0.07216,-0.0026 0.108217,0.0012 0.03608,0.0039 0.07216,0.07746 0.108219,0.08237 0.03608,0.0049 0.07216,0.155931 0.108219,0.161904 0.03607,0.0059 0.07216,0.232477 0.108218,0.239518 0.03607,0.007 0.07216,0.306721 0.108218,0.314828 0.03607,0.008 0.07216,0.378318 0.108219,0.387491 0.03608,0.0093 0.07216,0.446926 0.108219,0.457162 0.03606,0.01028 0.07216,0.512219 0.108219,0.523518 0.03606,0.01128 0.07216,0.573892 0.108219,0.586253 0.03606,0.01236 0.07216,0.631669 0.108219,0.645084 0.03606,0.01342 0.07216,0.685269 0.108218,0.699742 0.03607,0.01447 0.07216,0.734454 0.108219,0.749982 0.03607,0.01552 0.07216,0.778996 0.108217,0.795577 0.03607,0.01659 0.07216,0.818712 0.10822,0.836342 0.03606,0.01764 0.07216,0.853415 0.108219,0.872092 0.03608,0.01869 0.07216,0.882966 0.108219,0.902683 0.03608,0.01973 0.07216,0.907249 0.108218,0.928006 0.03608,0.02077 0.07216,0.92616 0.108219,0.947956 0.03607,0.02178 0.07216,0.939641 0.10822,0.962465 0.03608,0.02281 0.07216,0.947657 0.108218,0.971513 0.03608,0.02386 0.07216,0.950195 0.108219,0.975077 0.03607,0.02488 0.07216,0.947273 0.108218,0.973178 0.03607,0.02589 0.07216,0.938941 0.108218,0.965862 0.03608,0.02693 0.07216,0.925275 0.108221,0.953208 0.03608,0.02794 0.07216,0.906372 0.108219,0.935318 0.03607,0.02895 0.07216,0.882353 0.108218,0.912301 0.03606,0.02997 0.07216,0.853388 0.108218,0.884335 0.03606,0.03093 0.07216,0.819637 0.108219,0.85158 0.03608,0.03194 0.07216,0.781312 0.108219,0.814243 0.03606,0.03292 0.07216,0.738631 0.108218,0.772547 0.03607,0.03393 0.07216,0.691837 0.108219,0.726732 0.03607,0.03491 0.07216,0.641201 0.108219,0.677068 0.03607,0.03586 0.07216,0.586996 0.108218,0.623831 0.03607,0.03684 0.07216,0.52953 0.108218,0.567324 0.03606,0.03779 0.07216,0.469112 0.10822,0.507864 0.03606,0.03875 0.07216,0.406064 0.108219,0.445764 0.03607,0.03971 0.07216,0.340732 0.108219,0.381374 0.03607,0.04063 0.07216,0.273459 0.108218,0.315041 0.03608,0.04157 0.07216,0.204604 0.108219,0.247114 0.03606,0.04252 0.07216,0.134526 0.108219,0.177959 0.03607,0.04344 0.07216,0.06358 0.108219,0.10794 0.03608,0.04436 0.07216,-0.0078 0.108218,0.03741 0.03608,0.04526 0.07216,-0.07939 0.108218,-0.03324 0.03607,0.04615 0.07216,-0.150727 0.108219,-0.103671 0.03608,0.04706 0.07216,-0.221447 0.108219,-0.173503 0.03608,0.04795 0.07216,-0.291223 0.108219,-0.242405 0.03608,0.04882 0.07216,-0.359706 0.108219,-0.310012 0.03607,0.04969 0.07216,-0.42656 0.108219,-0.376002 0.03608,0.05055 0.07216,-0.491463 0.108219,-0.440052 0.03608,0.05139 0.07216,-0.554105 0.108218,-0.501842 0.03607,0.05226 0.07216,-0.614191 0.108218,-0.561092 0.03607,0.05308 0.07216,-0.671437 0.108218,-0.617505 0.03607,0.05392 0.07216,-0.725592 0.108219,-0.670837 0.03607,0.05475 0.07216,-0.776407 0.108219,-0.720838 0.03606,0.05556 0.07216,-0.823661 0.108218,-0.767287 0.03606,0.05637 0.07216,-0.867157 0.10822,-0.809989 0.03606,0.05716 0.07216,-0.906717 0.108219,-0.848764 0.03606,0.05793 0.07216,-0.942189 0.108219,-0.883456 0.03607,0.05874 0.07216,-0.973439 0.108218,-0.913938 0.03607,0.0595 0.07216,-1.000362 0.108218,-0.940104 0.03608,0.06027 0.07216,-1.02288 0.10822,-0.961876 0.03608,0.06101 0.07216,-1.040932 0.108218,-0.979186 0.03607,0.06173 0.07216,-1.054492 0.108219,-0.992021 0.03607,0.06248 0.07216,-1.063555 0.108219,-1.000361 0.03608,0.0632 0.07216,-1.068137 0.108219,-1.004234 0.03607,0.06391 0.07216,-1.068284 0.108219,-1.003681 0.03607,0.0646 0.07216,-1.064064 0.108219,-0.998775 0.03608,0.06528 0.07216,-1.055565 0.108219,-0.989599 0.03607,0.06597 0.07216,-1.042912 0.108218,-0.976277 0.03608,0.06662 0.07216,-1.026236 0.108219,-0.958944 0.03608,0.0673 0.07216,-1.00569 0.108218,-0.93775 0.03608,0.06793 0.07216,-0.981464 0.108219,-0.912889 0.03606,0.06857 0.07216,-0.953744 0.108218,-0.884543 0.03606,0.0692 0.07216,-0.92275 0.108219,-0.852936 0.03606,0.0698 0.07216,-0.888707 0.108218,-0.818295 0.03606,0.07041 0.07216,-0.851869 0.108219,-0.780862 0.03606,0.071 0.07216,-0.812488 0.108219,-0.740904 0.03606,0.07159 0.07216,-0.7708338 0.10822,-0.6986784 0.03606,0.072165 0.07216,-0.727187 0.108218,-0.6544749 0.03606,0.072718 0.07216,-0.6818361 0.108218,-0.6085785 0.03607,0.073262 0.07216,-0.635074 0.108219,-0.561282 0.03608,0.073796 0.07216,-0.5871926 0.108218,-0.5128787 0.03608,0.07431 0.07216,-0.5385003 0.10822,-0.4636741 0.03607,0.074821 0.07216,-0.489297 0.108218,-0.4139759 0.03607,0.075324 0.07216,-0.4398785 0.108219,-0.3640697 0.03608,0.075813 0.07216,-0.3905485 0.108219,-0.3142637 0.03606,0.076281 0.07216,-0.341597 0.108219,-0.2648506 0.03606,0.076747 0.07216,-0.2933085 0.108219,-0.2161146 0.03607,0.077193 0.07216,-0.2459644 0.108218,-0.1683317 0.03608,0.077636 0.07216,-0.1998307 0.108219,-0.121774 0.03607,0.078059 0.07216,-0.1551697 0.108219,-0.0767 0.03607,0.078469 0.07216,-0.1122274 0.108217,-0.033361 0.03608,0.078868 0.07216,-0.071222 0.10822,0.00809 0.03608,0.079253 0.07216,-0.032392 0.108219,0.047249 0.03606,0.079631 0.07216,0.0041 0.108219,0.084087 0.03606,0.079995 0.07216,0.03803 0.108218,0.1183729 0.03606,0.080348 0.07216,0.069263 0.108218,0.149945 0.03606,0.080678 0.07216,0.097654 0.108219,0.1786533 0.03606,0.080997 0.07216,0.1230693 0.108219,0.2043821 0.03607,0.081315 0.07216,0.1454203 0.108218,0.2270341 0.03607,0.081613 0.07216,0.1646197 0.108219,0.2465206 0.03608,0.081898 0.07216,0.1806139 0.108218,0.262785 0.03608,0.082172 0.07216,0.1933704 0.10822,0.2758021 0.03608,0.082432 0.07216,0.202869 0.108219,0.2855423 0.03608,0.082672 0.07216,0.2091234 0.108219,0.2920301 0.03607,0.082911 0.07216,0.2121655 0.108219,0.295291 0.03608,0.083128 0.07216,0.2120427 0.108219,0.2953732 0.03608,0.083333 0.07216,0.208835 0.108218,0.2923595 0.03607,0.083527 0.07216,0.2026312 0.108219,0.2863366 0.03607,0.083708 0.07216,0.1935518 0.108219,0.2774221 0.03608,0.083868 0.07216,0.1817262 0.108218,0.265751 0.03608,0.084034 0.07216,0.167314 0.108219,0.2514788 0.03607,0.084166 0.07216,0.1504765 0.108218,0.2347642 0.03607,0.08428 0.07216,0.1314091 0.10822,0.2158097 0.03608,0.084403 0.07216,0.1103027 0.108219,0.1947982 0.03606,0.08449 0.07216,0.08737 0.108219,0.171956 0.03606,0.08459 0.07216,0.06284 0.108218,0.147503 0.03606,0.08466 0.07216,0.03696 0.108218,0.121676 0.03606,0.08474 0.07216,0.01 0.108219,0.09474 0.03608,0.08476 0.07216,-0.0179 0.10822,0.06689 0.03606,0.08479 0.07216,-0.04636 0.108217,0.03845 0.03606,0.08481 0.07216,-0.07516 0.108218,0.0097 0.03606,0.08482 0.07216,-0.104043 0.108218,-0.01923 0.03608,0.08481 0.07216,-0.13273 0.10822,-0.04795 0.03607,0.08478 0.07216,-0.160962 0.108219,-0.07621 0.03608,0.08475 0.07216,-0.188477 0.108219,-0.103772 0.03603,0.08469 0.07218,-0.215022 0.108218,-0.130387 0.03604,0.08464 0.07218,-0.240339 0.108209,-0.155779 0.03603,0.08457 0.07218,-0.2641957 0.108218,-0.1797247 0.03603,0.084473 0.07218,-0.2863524 0.108207,-0.2019866 0.03603,0.084367 0.07218,-0.3065857 0.10822,-0.2223366 0.03603,0.084245 0.07218,-0.3246898 0.108218,-0.2405703 0.03604,0.084122 0.07218,-0.3404659 0.108208,-0.2564935 0.03603,0.083973 0.07218,-0.3537396 0.108218,-0.26992 0.03603,0.083823 0.07218,-0.3643398 0.108209,-0.2806936 0.03604,0.083653 0.07218,-0.3721228 0.10822,-0.28866 0.03604,0.083459 0.07218,-0.3769638 0.108218,-0.293698 0.03603,0.083265 0.07218,-0.3787495 0.108207,-0.2956922 0.03604,0.083048 0.07218,-0.3773969 0.108219,-0.2945663 0.03604,0.082831 0.07218,-0.3728312 0.108207,-0.2902369 0.03603,0.082592 0.07218,-0.3650185 0.10822,-0.2826732 0.03603,0.082342 0.07218,-0.3539262 0.108217,-0.2718441 0.03604,0.082079 0.07218,-0.3395521 0.10821,-0.257748 0.03603,0.081806 0.07218,-0.3219237 0.108218,-0.2404068 0.03603,0.081509 0.07218,-0.3010778 0.108207,-0.219865 0.03603,0.081214 0.07218,-0.2770795 0.10822,-0.1961836 0.03603,0.080896 0.07218,-0.2500195 0.108219,-0.1694494 0.03603,0.080563 0.07218,-0.2200064 0.108207,-0.1397761 0.03605,0.080235 0.07218,-0.1871665 0.108218,-0.1072932 0.03605,0.079879 0.07218,-0.1516457 0.10821,-0.072133 0.03603,0.079516 0.07218,-0.1136171 0.108218,-0.03449 0.03603,0.079129 0.07218,-0.073261 0.108219,0.00548 0.03603,0.078741 0.07218,-0.030797 0.108207,0.047534 0.03604,0.078331 0.07218,0.013558 0.108219,0.09148 0.03604,0.077921 0.07218,0.059588 0.108208,0.1370722 0.03604,0.077488 0.07218,0.1070205 0.108218,0.1840618 0.03604,0.077044 0.07218,0.1556029 0.10822,0.2321953 0.03604,0.076587 0.07218,0.2050614 0.108208,0.2811867 0.03604,0.076132 0.07218,0.2551161 0.108217,0.3307653 0.03604,0.075654 0.07218,0.3054745 0.108208,0.3806327 0.03603,0.075163 0.07218,0.3558467 0.108219,0.4305045 0.03605,0.074652 0.07218,0.4059322 0.10822,0.4800742 0.03603,0.074137 0.07218,0.4554285 0.108207,0.5290462 0.03605,0.073613 0.07218,0.5040349 0.108218,0.5771117 0.03605,0.073077 0.07218,0.5514502 0.108208,0.6239799 0.03605,0.072534 0.07218,0.5973794 0.108218,0.6693476 0.03605,0.07198 0.07218,0.641526 0.108209,0.712923 0.03604,0.07139 0.07218,0.683615 0.108219,0.754425 0.03604,0.07082 0.07218,0.723363 0.108218,0.793579 0.03603,0.07022 0.07218,0.760499 0.108209,0.830112 0.03604,0.06962 0.07218,0.794776 0.108218,0.863771 0.03604,0.06899 0.07218,0.825956 0.108209,0.894323 0.03603,0.06836 0.07218,0.853808 0.108218,0.921535 0.03604,0.06772 0.07218,0.878123 0.108219,0.945202 0.03604,0.06706 0.07218,0.898713 0.108208,0.965127 0.03603,0.06641 0.07218,0.915408 0.108218,0.981151 0.03604,0.06575 0.07218,0.928047 0.108207,0.993113 0.03604,0.06506 0.07218,0.936505 0.10822,1.00088 0.03605,0.06437 0.07218,0.940682 0.108219,1.004353 0.03604,0.06366 0.07218,0.940485 0.108207,1.003439 0.03605,0.06296 0.07218,0.93586 0.108218,0.998094 0.03603,0.06223 0.07218,0.926755 0.108219,0.988257 0.03605,0.06149 0.07218,0.913178 0.108208,0.973938 0.03605,0.06076 0.07218,0.895134 0.10822,0.95514 0.03605,0.06001 0.07218,0.87266 0.108208,0.931906 0.03604,0.05926 0.07218,0.845824 0.108218,0.904296 0.03603,0.05847 0.07218,0.814714 0.108218,0.872405 0.03604,0.05769 0.07218,0.77944 0.108208,0.836343 0.03603,0.05691 0.07218,0.74014 0.10822,0.796245 0.03604,0.05609 0.07218,0.696983 0.108208,0.752281 0.03603,0.05528 0.07218,0.650145 0.108218,0.704626 0.03604,0.05449 0.07218,0.599843 0.108209,0.653501 0.03604,0.05366 0.07218,0.546288 0.108218,0.599112 0.03603,0.05282 0.07218,0.48975 0.108218,0.541729 0.03604,0.05197 0.07218,0.430476 0.108208,0.481606 0.03604,0.05113 0.07218,0.36876 0.108218,0.419033 0.03604,0.05026 0.07218,0.304899 0.108208,0.354305 0.03604,0.04941 0.07218,0.239207 0.108218,0.287738 0.03605,0.04853 0.07218,0.172017 0.108221,0.219664 0.03604,0.04765 0.07218,0.103664 0.108208,0.150419 0.03603,0.04677 0.07218,0.03446 0.108217,0.08033 0.03605,0.04586 0.07218,-0.03516 0.108209,0.0097 0.03604,0.04496 0.07218,-0.104899 0.108218,-0.06086 0.03603,0.04404 0.07218,-0.174378 0.108219,-0.13125 0.03603,0.04312 0.07218,-0.243222 0.108208,-0.201021 0.03603,0.0422 0.07218,-0.311079 0.10822,-0.269807 0.03604,0.04127 0.07218,-0.377579 0.108207,-0.337248 0.03603,0.04034 0.07218,-0.442362 0.108218,-0.402975 0.03603,0.03939 0.07218,-0.505078 0.108218,-0.466645 0.03604,0.03845 0.07218,-0.56538 0.10821,-0.527899 0.03603,0.03747 0.07218,-0.622938 0.108219,-0.586422 0.03603,0.03652 0.07218,-0.67742 0.108206,-0.641877 0.03604,0.03554 0.07218,-0.728528 0.108218,-0.693959 0.03603,0.03458 0.07218,-0.775964 0.10822,-0.742376 0.03605,0.03358 0.07218,-0.819455 0.108207,-0.786852 0.03605,0.0326 0.07218,-0.85874 0.108219,-0.827129 0.03605,0.0316 0.07218,-0.893584 0.108209,-0.862967 0.03603,0.03062 0.07218,-0.923767 0.108218,-0.894155 0.03603,0.02961 0.07218,-0.949105 0.108218,-0.920495 0.03605,0.0286 0.07218,-0.969424 0.108208,-0.941827 0.03604,0.0276 0.07218,-0.984578 0.108221,-0.957995 0.03605,0.02657 0.07218,-0.994452 0.108206,-0.968889 0.03604,0.02557 0.07218,-0.998949 0.108218,-0.974407 0.03604,0.02454 0.07218,-0.998017 0.108219,-0.974504 0.03603,0.02351 0.07218,-0.991602 0.108209,-0.969117 0.03603,0.02249 0.07218,-0.979708 0.108219,-0.958257 0.03604,0.02147 0.07218,-0.962348 0.108208,-0.941936 0.03603,0.02041 0.07218,-0.939564 0.108218,-0.920193 0.03603,0.01936 0.07218,-0.911439 0.10822,-0.893114 0.03603,0.01832 0.07218,-0.878072 0.108205,-0.860789 0.03603,0.01726 0.07218,-0.839595 0.10822,-0.823363 0.03604,0.01624 0.07218,-0.796154 0.108209,-0.780975 0.03603,0.01518 0.07218,-0.747934 0.108217,-0.733813 0.03605,0.01414 0.07218,-0.695147 0.108209,-0.682081 0.03605,0.01307 0.07218,-0.638021 0.108218,-0.626013 0.03605,0.012 0.07218,-0.5768 0.10822,-0.565852 0.03603,0.01094 0.07218,-0.51177 0.108207,-0.501886 0.03604,0.01 0.07218,-0.443211 0.108218,-0.434391 0.03605,0.0088 0.07218,-0.371448 0.108209,-0.363694 0.03604,0.0078 0.07218,-0.296801 0.108218,-0.290115 0.03604,0.0067 0.07218,-0.219617 0.108219,-0.214 0.03604,0.0056 0.07218,-0.140256 0.108209,-0.135706 0.03603,0.0046 0.07218,-0.05908 0.108218,-0.05561 0.03604,0.0036 0.07218,0.02351 0.108219,0.02593 0.03604,0.0023 0.07218,0.107173 0.108207,0.108515 0.03604,0.0013 0.07218,0.191469 0.108219,0.191736 0.03603,3.07e-4 0.07218,0.27603 0.108209,0.275229 0.03604,-7.99e-4 0.07218,0.360451 0.108217,0.358578 0.03605,-0.0018 0.07218,0.444331 0.108208,0.441388 0.03603,-0.0029 0.07218,0.527288 0.108219,0.523273 0.03605,-0.0041 0.07218,0.608922 0.108219,0.603843 0.03604,-0.0051 0.07218,0.688849 0.108207,0.682701 0.03604,-0.0062 0.07218,0.766707 0.10822,0.759491 0.03603,-0.0071 0.07218,0.842123 0.108207,0.833841 0.03604,-0.0083 0.07218,0.914749 0.108219,0.905397 0.03605,-0.0094 0.07218,0.984249 0.108219,0.973835 0.03604,-0.01038 0.07218,1.050299 0.108207,1.038823 0.03604,-0.01147 0.07218,1.112598 0.108219,1.10006 0.03604,-0.01254 0.07218,1.170862 0.108209,1.157271 0.03603,-0.01359 0.07218,1.224824 0.108218,1.210179 0.03604,-0.01465 0.07218,1.274254 0.108218,1.258549 0.03604,-0.01571 0.07218,1.318925 0.108209,1.302174 0.03603,-0.01675 0.07218,1.358647 0.10822,1.340843 0.03603,-0.01781 0.07218,1.39325 0.108207,1.374402 0.03603,-0.01885 0.07218,1.422591 0.108217,1.402698 0.03603,-0.01988 0.07218,1.446557 0.108219,1.425627 0.03605,-0.02094 0.07218,1.46506 0.108208,1.443093 0.03603,-0.02197 0.07218,1.478033 0.108219,1.455036 0.03605,-0.02301 0.07218,1.485455 0.108208,1.461429 0.03604,-0.02404 0.07218,1.487321 0.108219,1.462268 0.03604,-0.02504 0.07218,1.483638 0.108219,1.457563 0.03603,-0.02606 0.07218,1.474478 0.108206,1.447387 0.03605,-0.0271 0.07218,1.459903 0.108219,1.431801 0.03604,-0.0281 0.07218,1.440028 0.10821,1.41092 0.03603,-0.02912 0.07218,1.414981 0.108217,1.384867 0.03604,-0.03011 0.07218,1.384926 0.108219,1.353815 0.03604,-0.03113 0.07218,1.350032 0.108209,1.317924 0.03603,-0.03211 0.07218,1.310513 0.108219,1.277421 0.03604,-0.03309 0.07218,1.26659 0.108207,1.232511 0.03604,-0.03409 0.07218,1.218519 0.108219,1.183465 0.03603,-0.03506 0.07218,1.166555 0.108219,1.130524 0.03603,-0.03604 0.07218,1.110999 0.108208,1.074003 0.03603,-0.03699 0.07218,1.052133 0.108218,1.014178 0.03603,-0.03795 0.07218,0.990288 0.108207,0.951378 0.03604,-0.03891 0.07218,0.925789 0.108221,0.885932 0.03603,-0.03986 0.07218,0.858972 0.108218,0.818176 0.03603,-0.04082 0.07218,0.790196 0.108206,0.74846 0.03605,-0.04173 0.07218,0.71981 0.108219,0.677143 0.03604,-0.04266 0.07218,0.648178 0.108208,0.604593 0.03605,-0.04358 0.07218,0.575657 0.10822,0.531154 0.03604,-0.0445 0.07218,0.502627 0.108218,0.457217 0.03604,-0.04543 0.07218,0.429443 0.108209,0.383135 0.03603,-0.04632 0.07218,0.356477 0.108218,0.309273 0.03604,-0.0472 0.07218,0.284081 0.108207,0.235991 0.03603,-0.0481 0.07218,0.21261 0.10822,0.163642 0.03603,-0.04898 0.07218,0.142403 0.108219,0.09256 0.03603,-0.04984 0.07218,0.0738 0.108207,0.02311 0.03603,-0.0507 0.07218,0.007 0.108219,-0.04442 0.03603,-0.05156 0.07218,-0.05733 0.108207,-0.109731 0.03603,-0.0524 0.07218,-0.119253 0.10822,-0.172494 0.03603,-0.05325 0.07218,-0.17838 0.108218,-0.232451 0.03603,-0.05407 0.07218,-0.234449 0.108207,-0.289338 0.03604,-0.05489 0.07218,-0.287222 0.108219,-0.342927 0.03603,-0.05571 0.07218,-0.336478 0.108208,-0.392983 0.03605,-0.05651 0.07218,-0.382027 0.108219,-0.439324 0.03604,-0.0573 0.07218,-0.42369 0.108219,-0.481774 0.03604,-0.05809 0.07218,-0.46132 0.108207,-0.52018 0.03604,-0.05886 0.07218,-0.494778 0.108219,-0.554405 0.03604,-0.05962 0.07218,-0.523984 0.108208,-0.584366 0.03603,-0.06039 0.07218,-0.548842 0.108219,-0.60997 0.03605,-0.06113 0.07218,-0.56931 0.108219,-0.631175 0.03604,-0.06186 0.07218,-0.585353 0.108209,-0.647949 0.03604,-0.06259 0.07218,-0.596974 0.108218,-0.660287 0.03603,-0.06331 0.07218,-0.604196 0.108207,-0.668218 0.03603,-0.06403 0.07218,-0.607072 0.108219,-0.671788 0.03604,-0.06473 0.07218,-0.605662 0.108218,-0.671065 0.03604,-0.0654 0.07218,-0.600069 0.10821,-0.66615 0.03604,-0.06608 0.07218,-0.590412 0.108218,-0.657158 0.03603,-0.06676 0.07218,-0.576825 0.108208,-0.644225 0.03604,-0.06741 0.07218,-0.559476 0.108218,-0.627521 0.03604,-0.06805 0.07218,-0.538541 0.108218,-0.607219 0.03604,-0.06868 0.07218,-0.514219 0.108209,-0.58352 0.03604,-0.0693 0.07218,-0.486731 0.108218,-0.55664 0.03604,-0.06991 0.07218,-0.456305 0.108208,-0.526819 0.03604,-0.07052 0.07218,-0.423186 0.108218,-0.494288 0.03605,-0.07112 0.07218,-0.387639 0.108209,-0.459322 0.03603,-0.07168 0.07218,-0.349928 0.10822,-0.422179 0.03604,-0.07224 0.07218,-0.310342 0.108217,-0.383146 0.03604,-0.07281 0.07218,-0.269165 0.108207,-0.342513 0.03603,-0.07335 0.07218,-0.226687 0.10822,-0.300565 0.03603,-0.07387 0.07218,-0.183208 0.108208,-0.257607 0.03603,-0.07441 0.07218,-0.139028 0.108219,-0.213938 0.03603,-0.07491 0.07218,-0.09445 0.108218,-0.169856 0.03603,-0.07541 0.07218,-0.04977 0.108209,-0.125656 0.03603,-0.0759 0.07218,-0.0052 0.108219,-0.08164 0.03603,-0.07635 0.07218,0.03872 0.108206,-0.0381 0.03604,-0.07681 0.07218,0.08195 0.10822,0.0046 0.03603,-0.07727 0.07218,0.124117 0.108218,0.04641 0.03603,-0.07769 0.07218,0.164982 0.108207,0.08685 0.03604,-0.07814 0.07218,0.204278 0.108219,0.125741 0.03605,-0.07853 0.07218,0.241762 0.108208,0.162829 0.03604,-0.07894 0.07218,0.277211 0.108218,0.19789 0.03604,-0.07932 0.07218,0.310406 0.10822,0.230715 0.03604,-0.07969 0.07218,0.341159 0.108207,0.261105 0.03605,-0.08006 0.07218,0.36929 0.10822,0.288889 0.03604,-0.08041 0.07218,0.394639 0.108208,0.313902 0.03603,-0.08072 0.07218,0.417073 0.108218,0.336013 0.03605,-0.08106 0.07218,0.436464 0.108219,0.355098 0.03603,-0.08137 0.07218,0.452724 0.108209,0.37106 0.03603,-0.08165 0.07218,0.465778 0.108218,0.383837 0.03603,-0.08196 0.07218,0.475566 0.108207,0.393354 0.03603,-0.08221 0.07218,0.482065 0.10822,0.399596 0.03603,-0.08247 0.07218,0.485269 0.108218,0.40255 0.03603,-0.08273 0.07218,0.485181 0.108209,0.402239 0.03604,-0.08295 0.07218,0.481842 0.108218,0.398681 0.03603,-0.08315 0.07218,0.475309 0.108206,0.391945 0.03604,-0.08336 0.07218,0.465664 0.108219,0.382106 0.03604,-0.08356 0.07218,0.453002 0.108218,0.369269 0.03604,-0.08373 0.07218,0.437442 0.10821,0.353542 0.03604,-0.08389 0.07218,0.419127 0.108218,0.335077 0.03605,-0.08406 0.07218,0.398203 0.108208,0.314018 0.03604,-0.08418 0.07218,0.374857 0.108219,0.290545 0.03603,-0.08431 0.07218,0.349265 0.108218,0.264843 0.03603,-0.0844 0.07218,0.321638 0.108209,0.237124 0.03604,-0.08452 0.07218,0.292191 0.108218,0.20759 0.03605,-0.08461 0.07218,0.26116 0.108208,0.17649 0.03603,-0.08467 0.07218,0.228769 0.10822,0.144044 0.03604,-0.08471 0.07218,0.195279 0.108218,0.110507 0.03603,-0.08477 0.07218,0.16094 0.108208,0.07615 0.03603,-0.08479 0.07218,0.126005 0.108219,0.04119 0.03603,-0.08483 0.07218,0.09075 0.108207,0.006 0.03604,-0.08483 0.07218,0.05546 0.108219,-0.02935" title="sin(x)*sin(x*5)-cos(x)" id="path6164-5" />
    <path style="fill:none;stroke:#d3d7cf;stroke-width:2;stroke-linecap:round;stroke-linejoin:round;opacity:1" d="m 5,50.968398 c 0.036067,-0.08482 0.072136,0.06715 0.108213,-0.01766 0.036067,-0.08483 0.072136,0.03195 0.1082219,-0.05284 0.036067,-0.08479 0.072136,-0.0028 0.108213,-0.08762 0.036067,-0.08476 0.072136,-0.03703 0.1082129,-0.121742 0.036068,-0.0847 0.072136,-0.0703 0.1082219,-0.154944 0.036067,-0.08466 0.072136,-0.102398 0.108213,-0.18697 0.036067,-0.08459 0.072136,-0.133095 0.1082219,-0.217579 0.036067,-0.08449 0.072136,-0.162148 0.1082129,-0.246531 0.036068,-0.08437 0.072136,-0.18934 0.1082131,-0.273606 0.036068,-0.08426 0.072136,-0.214452 0.1082218,-0.298593 0.036068,-0.08415 0.072136,-0.237284 0.1082131,-0.321282 0.036067,-0.084 0.072136,-0.257655 0.1082217,-0.341502 0.036067,-0.08385 0.072136,-0.275396 0.1082131,-0.359069 0.036067,-0.08369 0.072136,-0.290362 0.108213,-0.373859 0.036067,-0.0835 0.072136,-0.302411 0.1082218,-0.385709 0.036067,-0.08329 0.072136,-0.311435 0.1082131,-0.394528 0.036067,-0.08309 0.072136,-0.317346 0.1082218,-0.400215 0.036067,-0.08286 0.072136,-0.320071 0.1082131,-0.402703 0.036067,-0.08265 0.072136,-0.319551 0.1082129,-0.401935 0.036067,-0.08239 0.072136,-0.315768 0.108222,-0.397894 0.036067,-0.08214 0.072136,-0.308704 0.1082128,-0.390555 0.036068,-0.08185 0.072136,-0.298387 0.108222,-0.379954 0.036067,-0.08157 0.072136,-0.284849 0.1082129,-0.366114 0.036068,-0.08124 0.072136,-0.268153 0.108213,-0.349105 0.036067,-0.08094 0.072136,-0.248381 0.1082219,-0.329009 0.036068,-0.08061 0.072136,-0.225625 0.108213,-0.305914 0.036067,-0.08029 0.072136,-0.200034 0.1082219,-0.279968 0.036068,-0.07995 0.072136,-0.171731 0.108213,-0.251304 0.036067,-0.07957 0.072136,-0.140888 0.108213,-0.220082 0.036067,-0.0792 0.072136,-0.107692 0.1082218,-0.186491 0.036067,-0.0788 0.072136,-0.07233 0.108213,-0.150738 0.036067,-0.0784 0.072136,-0.03503 0.1082218,-0.113024 0.036067,-0.07802 0.072136,0.0041 0.1082218,-0.07359 0.036067,-0.07758 0.072136,0.04442 0.1082131,-0.03269 0.036067,-0.07713 0.072136,0.0861 0.1082218,0.0095 0.036067,-0.07667 0.072136,0.12869 0.1082219,0.05249 0.036068,-0.07621 0.072136,0.171941 0.108213,0.0962 0.036067,-0.07573 0.072136,0.215561 0.1082219,0.14032 0.036068,-0.07524 0.072136,0.259251 0.1082129,0.184511 0.036067,-0.07474 0.072136,0.302718 0.1082219,0.228489 0.036068,-0.07424 0.072136,0.345662 0.1082218,0.271956 0.036067,-0.0737 0.072136,0.387782 0.1082157,0.314614 0.036084,-0.07317 0.072155,0.428776 0.1082191,0.356153 0.036076,-0.07262 0.072155,0.468357 0.1082192,0.396295 0.036076,-0.07206 0.072155,0.506216 0.1082187,0.434725 0.036084,-0.07148 0.072157,0.542091 0.1082189,0.471179 0.036074,-0.07092 0.072157,0.575686 0.1082182,0.505368 0.03606,-0.07031 0.07216,0.606735 0.10822,0.537024 0.03606,-0.06971 0.07216,0.634996 0.108218,0.565904 0.03606,-0.06911 0.07216,0.660216 0.108218,0.591746 0.03607,-0.06847 0.07216,0.682175 0.108219,0.614341 0.03607,-0.06786 0.07216,0.70066 0.108219,0.633474 0.03606,-0.06721 0.07216,0.715471 0.108218,0.648943 0.03606,-0.06652 0.07216,0.726441 0.10822,0.660585 0.03606,-0.06586 0.07216,0.733417 0.108218,0.66824 0.03608,-0.06519 0.07216,0.736262 0.108219,0.671776 0.03607,-0.06448 0.07216,0.734868 0.108219,0.671084 0.03607,-0.06379 0.07216,0.729146 0.108219,0.666072 0.03608,-0.06308 0.07216,0.719034 0.108218,0.656681 0.03607,-0.06236 0.07216,0.704498 0.108219,0.642876 0.03607,-0.06164 0.07215,0.685511 0.108217,0.624627 0.03607,-0.06089 0.07216,0.662094 0.108219,0.60196 0.03607,-0.06012 0.07216,0.634273 0.108219,0.574907 0.03607,-0.05937 0.07216,0.602118 0.108219,0.543513 0.03607,-0.05859 0.07216,0.565715 0.108218,0.50789 0.03607,-0.05783 0.07216,0.525164 0.108219,0.468128 0.03607,-0.05703 0.07216,0.480614 0.10822,0.424374 0.03607,-0.05623 0.07216,0.432209 0.108219,0.376775 0.03607,-0.05545 0.07216,0.380141 0.108218,0.325521 0.03606,-0.05462 0.07216,0.324611 0.108218,0.270816 0.03607,-0.05379 0.07216,0.265844 0.108218,0.212882 0.03607,-0.05295 0.07216,0.204088 0.108221,0.151966 0.03606,-0.05214 0.07216,0.139601 0.108219,0.08832 0.03606,-0.05128 0.07216,0.07267 0.108218,0.02223 0.03606,-0.05041 0.07216,0.0037 0.108219,-0.04595 0.03608,-0.04955 0.07216,-0.06732 0.10822,-0.11599 0.03608,-0.04868 0.07216,-0.139728 0.108219,-0.187527 0.03608,-0.0478 0.07216,-0.213315 0.108218,-0.26022 0.03608,-0.04691 0.07216,-0.287729 0.108218,-0.333738 0.03608,-0.04601 0.07216,-0.362603 0.108218,-0.407714 0.03608,-0.0451 0.07216,-0.437587 0.108219,-0.481785 0.03608,-0.04419 0.07216,-0.512318 0.108217,-0.555601 0.03608,-0.04329 0.07216,-0.58642 0.10822,-0.628779 0.03608,-0.04237 0.07216,-0.659541 0.108219,-0.700965 0.03608,-0.04145 0.07216,-0.731304 0.108218,-0.771792 0.03608,-0.04049 0.07216,-0.80135 0.108218,-0.840893 0.03608,-0.03955 0.07216,-0.869331 0.108219,-0.907926 0.03608,-0.03859 0.07216,-0.93489 0.10822,-0.972527 0.03608,-0.03765 0.07216,-0.997703 0.108218,-1.034374 0.03608,-0.03668 0.07216,-1.057434 0.108218,-1.093141 0.03608,-0.03571 0.07216,-1.113777 0.108218,-1.148507 0.03607,-0.03472 0.07216,-1.166431 0.108219,-1.200182 0.03606,-0.03375 0.07216,-1.215122 0.10822,-1.247889 0.03606,-0.03279 0.07216,-1.259581 0.108218,-1.291359 0.03607,-0.03178 0.07216,-1.299577 0.108219,-1.330357 0.03606,-0.03079 0.07216,-1.334883 0.108219,-1.364663 0.03606,-0.02979 0.07216,-1.365304 0.108219,-1.394078 0.03606,-0.02877 0.07216,-1.390662 0.108219,-1.418428 0.03608,-0.02778 0.07216,-1.410816 0.108218,-1.437565 0.03608,-0.02675 0.07216,-1.425636 0.108218,-1.451368 0.03608,-0.02573 0.07216,-1.435025 0.108219,-1.459739 0.03608,-0.02472 0.07216,-1.438916 0.108219,-1.462601 0.03608,-0.02369 0.07216,-1.437269 0.108218,-1.459926 0.03608,-0.02265 0.07216,-1.430064 0.10822,-1.451688 0.03608,-0.02161 0.07216,-1.417322 0.108219,-1.437907 0.03608,-0.0206 0.07216,-1.399074 0.108219,-1.418619 0.03606,-0.01955 0.07216,-1.375396 0.108218,-1.393898 0.03606,-0.0185 0.07216,-1.346387 0.108218,-1.363845 0.03608,-0.01744 0.07216,-1.312161 0.10822,-1.328567 0.03608,-0.01639 0.07216,-1.272883 0.108218,-1.288236 0.03608,-0.01535 0.07216,-1.228716 0.108218,-1.243017 0.03608,-0.01429 0.07216,-1.179869 0.108219,-1.193111 0.03606,-0.01325 0.07216,-1.126565 0.108219,-1.13875 0.03606,-0.01217 0.07216,-1.069052 0.10822,-1.080173 0.03606,-0.01117 0.07216,-1.007596 0.108218,-1.017658 0.03606,-0.01009 0.07216,-0.942494 0.108219,-0.951494 0.03606,-0.009 0.07216,-0.874048 0.108219,-0.881979 0.03606,-0.0079 0.07216,-0.802598 0.108218,-0.80946 0.03607,-0.0068 0.07216,-0.728468 0.108218,-0.734263 0.03607,-0.0059 0.07216,-0.65202 0.108219,-0.656742 0.03606,-0.0045 0.07216,-0.573615 0.108219,-0.577276 0.03608,-0.0037 0.07216,-0.493638 0.108219,-0.496226 0.03608,-0.0026 0.07216,-0.412476 0.108219,-0.413992 0.03608,-0.0016 0.07216,-0.330513 0.108218,-0.330958 0.03608,-4.63e-4 0.07216,-0.248143 0.10822,-0.247519 0.03608,6.14e-4 0.07216,-0.165765 0.108219,-0.164069 0.03608,0.0017 0.07216,-0.08378 0.108219,-0.081 0.03607,0.0028 0.07216,-0.0026 0.108217,0.0012 0.03608,0.0039 0.07216,0.07746 0.108219,0.08237 0.03608,0.0049 0.07216,0.155931 0.108219,0.161904 0.03607,0.0059 0.07216,0.232477 0.108218,0.239518 0.03607,0.007 0.07216,0.306721 0.108218,0.314828 0.03607,0.008 0.07216,0.378318 0.108219,0.387491 0.03608,0.0093 0.07216,0.446926 0.108219,0.457162 0.03606,0.01028 0.07216,0.512219 0.108219,0.523518 0.03606,0.01128 0.07216,0.573892 0.108219,0.586253 0.03606,0.01236 0.07216,0.631669 0.108219,0.645084 0.03606,0.01342 0.07216,0.685269 0.108218,0.699742 0.03607,0.01447 0.07216,0.734454 0.108219,0.749982 0.03607,0.01552 0.07216,0.778996 0.108217,0.795577 0.03607,0.01659 0.07216,0.818712 0.10822,0.836342 0.03606,0.01764 0.07216,0.853415 0.108219,0.872092 0.03608,0.01869 0.07216,0.882966 0.108219,0.902683 0.03608,0.01973 0.07216,0.907249 0.108218,0.928006 0.03608,0.02077 0.07216,0.92616 0.108219,0.947956 0.03607,0.02178 0.07216,0.939641 0.10822,0.962465 0.03608,0.02281 0.07216,0.947657 0.108218,0.971513 0.03608,0.02386 0.07216,0.950195 0.108219,0.975077 0.03607,0.02488 0.07216,0.947273 0.108218,0.973178 0.03607,0.02589 0.07216,0.938941 0.108218,0.965862 0.03608,0.02693 0.07216,0.925275 0.108221,0.953208 0.03608,0.02794 0.07216,0.906372 0.108219,0.935318 0.03607,0.02895 0.07216,0.882353 0.108218,0.912301 0.03606,0.02997 0.07216,0.853388 0.108218,0.884335 0.03606,0.03093 0.07216,0.819637 0.108219,0.85158 0.03608,0.03194 0.07216,0.781312 0.108219,0.814243 0.03606,0.03292 0.07216,0.738631 0.108218,0.772547 0.03607,0.03393 0.07216,0.691837 0.108219,0.726732 0.03607,0.03491 0.07216,0.641201 0.108219,0.677068 0.03607,0.03586 0.07216,0.586996 0.108218,0.623831 0.03607,0.03684 0.07216,0.52953 0.108218,0.567324 0.03606,0.03779 0.07216,0.469112 0.10822,0.507864 0.03606,0.03875 0.07216,0.406064 0.108219,0.445764 0.03607,0.03971 0.07216,0.340732 0.108219,0.381374 0.03607,0.04063 0.07216,0.273459 0.108218,0.315041 0.03608,0.04157 0.07216,0.204604 0.108219,0.247114 0.03606,0.04252 0.07216,0.134526 0.108219,0.177959 0.03607,0.04344 0.07216,0.06358 0.108219,0.10794 0.03608,0.04436 0.07216,-0.0078 0.108218,0.03741 0.03608,0.04526 0.07216,-0.07939 0.108218,-0.03324 0.03607,0.04615 0.07216,-0.150727 0.108219,-0.103671 0.03608,0.04706 0.07216,-0.221447 0.108219,-0.173503 0.03608,0.04795 0.07216,-0.291223 0.108219,-0.242405 0.03608,0.04882 0.07216,-0.359706 0.108219,-0.310012 0.03607,0.04969 0.07216,-0.42656 0.108219,-0.376002 0.03608,0.05055 0.07216,-0.491463 0.108219,-0.440052 0.03608,0.05139 0.07216,-0.554105 0.108218,-0.501842 0.03607,0.05226 0.07216,-0.614191 0.108218,-0.561092 0.03607,0.05308 0.07216,-0.671437 0.108218,-0.617505 0.03607,0.05392 0.07216,-0.725592 0.108219,-0.670837 0.03607,0.05475 0.07216,-0.776407 0.108219,-0.720838 0.03606,0.05556 0.07216,-0.823661 0.108218,-0.767287 0.03606,0.05637 0.07216,-0.867157 0.10822,-0.809989 0.03606,0.05716 0.07216,-0.906717 0.108219,-0.848764 0.03606,0.05793 0.07216,-0.942189 0.108219,-0.883456 0.03607,0.05874 0.07216,-0.973439 0.108218,-0.913938 0.03607,0.0595 0.07216,-1.000362 0.108218,-0.940104 0.03608,0.06027 0.07216,-1.02288 0.10822,-0.961876 0.03608,0.06101 0.07216,-1.040932 0.108218,-0.979186 0.03607,0.06173 0.07216,-1.054492 0.108219,-0.992021 0.03607,0.06248 0.07216,-1.063555 0.108219,-1.000361 0.03608,0.0632 0.07216,-1.068137 0.108219,-1.004234 0.03607,0.06391 0.07216,-1.068284 0.108219,-1.003681 0.03607,0.0646 0.07216,-1.064064 0.108219,-0.998775 0.03608,0.06528 0.07216,-1.055565 0.108219,-0.989599 0.03607,0.06597 0.07216,-1.042912 0.108218,-0.976277 0.03608,0.06662 0.07216,-1.026236 0.108219,-0.958944 0.03608,0.0673 0.07216,-1.00569 0.108218,-0.93775 0.03608,0.06793 0.07216,-0.981464 0.108219,-0.912889 0.03606,0.06857 0.07216,-0.953744 0.108218,-0.884543 0.03606,0.0692 0.07216,-0.92275 0.108219,-0.852936 0.03606,0.0698 0.07216,-0.888707 0.108218,-0.818295 0.03606,0.07041 0.07216,-0.851869 0.108219,-0.780862 0.03606,0.071 0.07216,-0.812488 0.108219,-0.740904 0.03606,0.07159 0.07216,-0.7708335 0.10822,-0.6986781 0.03606,0.072165 0.07216,-0.727187 0.108218,-0.6544749 0.03606,0.072718 0.07216,-0.6818361 0.108218,-0.6085785 0.03607,0.073262 0.07216,-0.635074 0.108219,-0.561282 0.03608,0.073796 0.07216,-0.5871926 0.108218,-0.5128787 0.03608,0.07431 0.07216,-0.5385003 0.10822,-0.4636741 0.03607,0.074821 0.07216,-0.489297 0.108218,-0.4139759 0.03607,0.075324 0.07216,-0.4398785 0.108219,-0.3640697 0.03608,0.075813 0.07216,-0.3905485 0.108219,-0.3142637 0.03606,0.076281 0.07216,-0.341597 0.108219,-0.2648506 0.03606,0.076747 0.07216,-0.2933085 0.108219,-0.2161146 0.03607,0.077193 0.07216,-0.2459644 0.108218,-0.1683317 0.03608,0.077636 0.07216,-0.1998307 0.108219,-0.121774 0.03607,0.078059 0.07216,-0.1551697 0.108219,-0.0767 0.03607,0.078469 0.07216,-0.1122274 0.108217,-0.033361 0.03608,0.078868 0.07216,-0.071222 0.10822,0.00809 0.03608,0.079253 0.07216,-0.032392 0.108219,0.047249 0.03606,0.079631 0.07216,0.0041 0.108219,0.084087 0.03606,0.079995 0.07216,0.03803 0.108218,0.1183729 0.03606,0.080348 0.07216,0.069263 0.108218,0.149945 0.03606,0.080678 0.07216,0.097654 0.108219,0.1786533 0.03606,0.080997 0.07216,0.1230693 0.108219,0.2043821 0.03607,0.081315 0.07216,0.1454203 0.108218,0.2270341 0.03607,0.081613 0.07216,0.1646197 0.108219,0.2465206 0.03608,0.081898 0.07216,0.1806139 0.108218,0.262785 0.03608,0.082172 0.07216,0.1933704 0.10822,0.2758021 0.03608,0.082432 0.07216,0.202869 0.108219,0.2855423 0.03608,0.082672 0.07216,0.2091234 0.108219,0.2920301 0.03607,0.082911 0.07216,0.2121655 0.108219,0.295291 0.03608,0.083128 0.07216,0.2120427 0.108219,0.2953732 0.03608,0.083333 0.07216,0.208835 0.108218,0.2923595 0.03607,0.083527 0.07216,0.2026312 0.108219,0.2863366 0.03607,0.083708 0.07216,0.1935518 0.108219,0.2774221 0.03608,0.083868 0.07216,0.1817262 0.108218,0.265751 0.03608,0.084034 0.07216,0.167314 0.108219,0.2514788 0.03607,0.084166 0.07216,0.1504765 0.108218,0.2347642 0.03607,0.08428 0.07216,0.1314091 0.10822,0.2158097 0.03608,0.084403 0.07216,0.1103027 0.108219,0.1947979 0.03606,0.08449 0.07216,0.08737 0.108219,0.171956 0.03606,0.08459 0.07216,0.06284 0.108218,0.147503 0.03606,0.08466 0.07216,0.03696 0.108218,0.121676 0.03606,0.08474 0.07216,0.01 0.108219,0.09474 0.03608,0.08476 0.07216,-0.0179 0.10822,0.06689 0.03606,0.08479 0.07216,-0.04636 0.108217,0.03845 0.03606,0.08481 0.07216,-0.07516 0.108218,0.0097 0.03606,0.08482 0.07216,-0.104043 0.108218,-0.01923 0.03608,0.08481 0.07216,-0.13273 0.10822,-0.04795 0.03607,0.08478 0.07216,-0.160962 0.108219,-0.07621 0.03608,0.08475 0.07216,-0.188477 0.108219,-0.103772 0.03603,0.08469 0.07218,-0.215022 0.108218,-0.130387 0.03604,0.08464 0.07218,-0.240339 0.108209,-0.155779 0.03603,0.08457 0.07218,-0.2641954 0.108218,-0.1797244 0.03603,0.084473 0.07218,-0.2863524 0.108207,-0.2019866 0.03603,0.084367 0.07218,-0.3065857 0.10822,-0.2223366 0.03603,0.084245 0.07218,-0.3246898 0.108218,-0.2405703 0.03604,0.084122 0.07218,-0.3404659 0.108208,-0.2564935 0.03603,0.083973 0.07218,-0.3537396 0.108218,-0.26992 0.03603,0.083823 0.07218,-0.3643398 0.108209,-0.2806936 0.03604,0.083653 0.07218,-0.3721228 0.10822,-0.28866 0.03604,0.083459 0.07218,-0.3769638 0.108218,-0.293698 0.03603,0.083265 0.07218,-0.3787495 0.108207,-0.2956922 0.03604,0.083048 0.07218,-0.3773969 0.108219,-0.2945663 0.03604,0.082831 0.07218,-0.3728312 0.108207,-0.2902369 0.03603,0.082592 0.07218,-0.3650185 0.10822,-0.2826732 0.03603,0.082342 0.07218,-0.3539262 0.108217,-0.2718441 0.03604,0.082079 0.07218,-0.3395521 0.10821,-0.257748 0.03603,0.081806 0.07218,-0.3219237 0.108218,-0.2404068 0.03603,0.081509 0.07218,-0.3010778 0.108207,-0.219865 0.03603,0.081214 0.07218,-0.2770795 0.10822,-0.1961836 0.03603,0.080896 0.07218,-0.2500195 0.108219,-0.1694494 0.03603,0.080563 0.07218,-0.2200064 0.108207,-0.1397761 0.03605,0.080235 0.07218,-0.1871665 0.108218,-0.1072932 0.03605,0.079879 0.07218,-0.1516457 0.10821,-0.072133 0.03603,0.079516 0.07218,-0.1136171 0.108218,-0.03449 0.03603,0.079129 0.07218,-0.073261 0.108219,0.00548 0.03603,0.078741 0.07218,-0.030797 0.108207,0.047534 0.03604,0.078331 0.07218,0.013558 0.108219,0.09148 0.03604,0.077921 0.07218,0.059588 0.108208,0.1370722 0.03604,0.077488 0.07218,0.1070205 0.108218,0.1840618 0.03604,0.077044 0.07218,0.1556029 0.10822,0.2321953 0.03604,0.076587 0.07218,0.2050614 0.108208,0.2811867 0.03604,0.076132 0.07218,0.2551161 0.108217,0.3307653 0.03604,0.075654 0.07218,0.3054745 0.108208,0.3806327 0.03603,0.075163 0.07218,0.3558467 0.108219,0.4305045 0.03605,0.074652 0.07218,0.4059322 0.10822,0.4800742 0.03603,0.074137 0.07218,0.4554285 0.108207,0.5290462 0.03605,0.073613 0.07218,0.5040349 0.108218,0.5771117 0.03605,0.073077 0.07218,0.5514502 0.108208,0.6239799 0.03605,0.072534 0.07218,0.5973794 0.108218,0.6693473 0.03605,0.07198 0.07218,0.641526 0.108209,0.712923 0.03604,0.07139 0.07218,0.683615 0.108219,0.754425 0.03604,0.07082 0.07218,0.723363 0.108218,0.793579 0.03603,0.07022 0.07218,0.760499 0.108209,0.830112 0.03604,0.06962 0.07218,0.794776 0.108218,0.863771 0.03604,0.06899 0.07218,0.825956 0.108209,0.894323 0.03603,0.06836 0.07218,0.853808 0.108218,0.921535 0.03604,0.06772 0.07218,0.878123 0.108219,0.945202 0.03604,0.06706 0.07218,0.898713 0.108208,0.965127 0.03603,0.06641 0.07218,0.915408 0.108218,0.981151 0.03604,0.06575 0.07218,0.928047 0.108207,0.993113 0.03604,0.06506 0.07218,0.936505 0.10822,1.00088 0.03605,0.06437 0.07218,0.940682 0.108219,1.004353 0.03604,0.06366 0.07218,0.940485 0.108207,1.003439 0.03605,0.06296 0.07218,0.93586 0.108218,0.998094 0.03603,0.06223 0.07218,0.926755 0.108219,0.988257 0.03605,0.06149 0.07218,0.913178 0.108208,0.973938 0.03605,0.06076 0.07218,0.895134 0.10822,0.95514 0.03605,0.06001 0.07218,0.87266 0.108208,0.931906 0.03604,0.05926 0.07218,0.845824 0.108218,0.904296 0.03603,0.05847 0.07218,0.814714 0.108218,0.872405 0.03604,0.05769 0.07218,0.77944 0.108208,0.836343 0.03603,0.05691 0.07218,0.74014 0.10822,0.796245 0.03604,0.05609 0.07218,0.696983 0.108208,0.752281 0.03603,0.05528 0.07218,0.650145 0.108218,0.704626 0.03604,0.05449 0.07218,0.599843 0.108209,0.653501 0.03604,0.05366 0.07218,0.546288 0.108218,0.599112 0.03603,0.05282 0.07218,0.48975 0.108218,0.541729 0.03604,0.05197 0.07218,0.430476 0.108208,0.481606 0.03604,0.05113 0.07218,0.36876 0.108218,0.419033 0.03604,0.05026 0.07218,0.304899 0.108208,0.354305 0.03604,0.04941 0.07218,0.239207 0.108218,0.287738 0.03605,0.04853 0.07218,0.172017 0.108221,0.219664 0.03604,0.04765 0.07218,0.103664 0.108208,0.150419 0.03603,0.04677 0.07218,0.03446 0.108217,0.08033 0.03605,0.04586 0.07218,-0.03516 0.108209,0.0097 0.03604,0.04496 0.07218,-0.104899 0.108218,-0.06086 0.03603,0.04404 0.07218,-0.174378 0.108219,-0.13125 0.03603,0.04312 0.07218,-0.243222 0.108208,-0.201021 0.03603,0.0422 0.07218,-0.311079 0.10822,-0.269807 0.03604,0.04127 0.07218,-0.377579 0.108207,-0.337248 0.03603,0.04034 0.07218,-0.442362 0.108218,-0.402975 0.03603,0.03939 0.07218,-0.505078 0.108218,-0.466645 0.03604,0.03845 0.07218,-0.56538 0.10821,-0.527899 0.03603,0.03747 0.07218,-0.622938 0.108219,-0.586422 0.03603,0.03652 0.07218,-0.67742 0.108206,-0.641877 0.03604,0.03554 0.07218,-0.728528 0.108218,-0.693959 0.03603,0.03458 0.07218,-0.775964 0.10822,-0.742376 0.03605,0.03358 0.07218,-0.819455 0.108207,-0.786852 0.03605,0.0326 0.07218,-0.85874 0.108219,-0.827129 0.03605,0.0316 0.07218,-0.893584 0.108209,-0.862967 0.03603,0.03062 0.07218,-0.923767 0.108218,-0.894155 0.03603,0.02961 0.07218,-0.949105 0.108218,-0.920495 0.03605,0.0286 0.07218,-0.969424 0.108208,-0.941827 0.03604,0.0276 0.07218,-0.984578 0.108221,-0.957995 0.03605,0.02657 0.07218,-0.994452 0.108206,-0.968889 0.03604,0.02557 0.07218,-0.998949 0.108218,-0.974407 0.03604,0.02454 0.07218,-0.998017 0.108219,-0.974504 0.03603,0.02351 0.07218,-0.991602 0.108209,-0.969117 0.03603,0.02249 0.07218,-0.979708 0.108219,-0.958257 0.03604,0.02147 0.07218,-0.962348 0.108208,-0.941936 0.03603,0.02041 0.07218,-0.939564 0.108218,-0.920193 0.03603,0.01936 0.07218,-0.911439 0.10822,-0.893114 0.03603,0.01832 0.07218,-0.878072 0.108205,-0.860789 0.03603,0.01726 0.07218,-0.839595 0.10822,-0.823363 0.03604,0.01624 0.07218,-0.796154 0.108209,-0.780975 0.03603,0.01518 0.07218,-0.747934 0.108217,-0.733813 0.03605,0.01414 0.07218,-0.695147 0.108209,-0.682081 0.03605,0.01307 0.07218,-0.638021 0.108218,-0.626013 0.03605,0.012 0.07218,-0.5768 0.10822,-0.565852 0.03603,0.01094 0.07218,-0.51177 0.108207,-0.501886 0.03604,0.01 0.07218,-0.443211 0.108218,-0.434391 0.03605,0.0088 0.07218,-0.371448 0.108209,-0.363694 0.03604,0.0078 0.07218,-0.296801 0.108218,-0.290115 0.03604,0.0067 0.07218,-0.219617 0.108219,-0.214 0.03604,0.0056 0.07218,-0.140256 0.108209,-0.135706 0.03603,0.0046 0.07218,-0.05908 0.108218,-0.05561 0.03604,0.0036 0.07218,0.02351 0.108219,0.02593 0.03604,0.0023 0.07218,0.107173 0.108207,0.108515 0.03604,0.0013 0.07218,0.191469 0.108219,0.191736 0.03603,3.07e-4 0.07218,0.27603 0.108209,0.275229 0.03604,-7.99e-4 0.07218,0.360451 0.108217,0.358578 0.03605,-0.0018 0.07218,0.444331 0.108208,0.441388 0.03603,-0.0029 0.07218,0.527288 0.108219,0.523273 0.03605,-0.0041 0.07218,0.608922 0.108219,0.603843 0.03604,-0.0051 0.07218,0.688849 0.108207,0.682701 0.03604,-0.0062 0.07218,0.766707 0.10822,0.759491 0.03603,-0.0071 0.07218,0.842123 0.108207,0.833841 0.03604,-0.0083 0.07218,0.914749 0.108219,0.905397 0.03605,-0.0094 0.07218,0.984249 0.108219,0.973835 0.03604,-0.01038 0.07218,1.050299 0.108207,1.038823 0.03604,-0.01147 0.07218,1.112598 0.108219,1.10006 0.03604,-0.01254 0.07218,1.170862 0.108209,1.157271 0.03603,-0.01359 0.07218,1.224824 0.108218,1.210179 0.03604,-0.01465 0.07218,1.274254 0.108218,1.258549 0.03604,-0.01571 0.07218,1.318925 0.108209,1.302174 0.03603,-0.01675 0.07218,1.358647 0.10822,1.340843 0.03603,-0.01781 0.07218,1.39325 0.108207,1.374402 0.03603,-0.01885 0.07218,1.422591 0.108217,1.402698 0.03603,-0.01988 0.07218,1.446557 0.108219,1.425627 0.03605,-0.02094 0.07218,1.46506 0.108208,1.443093 0.03603,-0.02197 0.07218,1.478033 0.108219,1.455036 0.03605,-0.02301 0.07218,1.485455 0.108208,1.461429 0.03604,-0.02404 0.07218,1.487321 0.108219,1.462268 0.03604,-0.02504 0.07218,1.483638 0.108219,1.457563 0.03603,-0.02606 0.07218,1.474478 0.108206,1.447387 0.03605,-0.0271 0.07218,1.459903 0.108219,1.431801 0.03604,-0.0281 0.07218,1.440028 0.10821,1.41092 0.03603,-0.02912 0.07218,1.414981 0.108217,1.384867 0.03604,-0.03011 0.07218,1.384926 0.108219,1.353815 0.03604,-0.03113 0.07218,1.350032 0.108209,1.317924 0.03603,-0.03211 0.07218,1.310513 0.108219,1.277421 0.03604,-0.03309 0.07218,1.26659 0.108207,1.232511 0.03604,-0.03409 0.07218,1.218519 0.108219,1.183465 0.03603,-0.03506 0.07218,1.166555 0.108219,1.130524 0.03603,-0.03604 0.07218,1.110999 0.108208,1.074003 0.03603,-0.03699 0.07218,1.052133 0.108218,1.014178 0.03603,-0.03795 0.07218,0.990288 0.108207,0.951378 0.03604,-0.03891 0.07218,0.925789 0.108221,0.885932 0.03603,-0.03986 0.07218,0.858972 0.108218,0.818176 0.03603,-0.04082 0.07218,0.790196 0.108206,0.74846 0.03605,-0.04173 0.07218,0.71981 0.108219,0.677143 0.03604,-0.04266 0.07218,0.648178 0.108208,0.604593 0.03605,-0.04358 0.07218,0.575657 0.10822,0.531154 0.03604,-0.0445 0.07218,0.502627 0.108218,0.457217 0.03604,-0.04543 0.07218,0.429443 0.108209,0.383135 0.03603,-0.04632 0.07218,0.356477 0.108218,0.309273 0.03604,-0.0472 0.07218,0.284081 0.108207,0.235991 0.03603,-0.0481 0.07218,0.21261 0.10822,0.163642 0.03603,-0.04898 0.07218,0.142403 0.108219,0.09256 0.03603,-0.04984 0.07218,0.0738 0.108207,0.02311 0.03603,-0.0507 0.07218,0.007 0.108219,-0.04442 0.03603,-0.05156 0.07218,-0.05733 0.108207,-0.109731 0.03603,-0.0524 0.07218,-0.119253 0.10822,-0.172494 0.03603,-0.05325 0.07218,-0.17838 0.108218,-0.232451 0.03603,-0.05407 0.07218,-0.234449 0.108207,-0.289338 0.03604,-0.05489 0.07218,-0.287222 0.108219,-0.342927 0.03603,-0.05571 0.07218,-0.336478 0.108208,-0.392983 0.03605,-0.05651 0.07218,-0.382027 0.108219,-0.439324 0.03604,-0.0573 0.07218,-0.42369 0.108219,-0.481774 0.03604,-0.05809 0.07218,-0.46132 0.108207,-0.52018 0.03604,-0.05886 0.07218,-0.494778 0.108219,-0.554405 0.03604,-0.05962 0.07218,-0.523984 0.108208,-0.584366 0.03603,-0.06039 0.07218,-0.548842 0.108219,-0.60997 0.03605,-0.06113 0.07218,-0.56931 0.108219,-0.631175 0.03604,-0.06186 0.07218,-0.585353 0.108209,-0.647949 0.03604,-0.06259 0.07218,-0.596974 0.108218,-0.660287 0.03603,-0.06331 0.07218,-0.604196 0.108207,-0.668218 0.03603,-0.06403 0.07218,-0.607072 0.108219,-0.671788 0.03604,-0.06473 0.07218,-0.605662 0.108218,-0.671065 0.03604,-0.0654 0.07218,-0.600069 0.10821,-0.66615 0.03604,-0.06608 0.07218,-0.590412 0.108218,-0.657158 0.03603,-0.06676 0.07218,-0.576825 0.108208,-0.644225 0.03604,-0.06741 0.07218,-0.559476 0.108218,-0.627521 0.03604,-0.06805 0.07218,-0.538541 0.108218,-0.607219 0.03604,-0.06868 0.07218,-0.514219 0.108209,-0.58352 0.03604,-0.0693 0.07218,-0.486731 0.108218,-0.55664 0.03604,-0.06991 0.07218,-0.456305 0.108208,-0.526819 0.03604,-0.07052 0.07218,-0.423186 0.108218,-0.494288 0.03605,-0.07112 0.07218,-0.387639 0.108209,-0.459322 0.03603,-0.07168 0.07218,-0.349928 0.10822,-0.422179 0.03604,-0.07224 0.07218,-0.310342 0.108217,-0.383146 0.03604,-0.07281 0.07218,-0.269165 0.108207,-0.342513 0.03603,-0.07335 0.07218,-0.226687 0.10822,-0.300565 0.03603,-0.07387 0.07218,-0.183208 0.108208,-0.257607 0.03603,-0.07441 0.07218,-0.139028 0.108219,-0.213938 0.03603,-0.07491 0.07218,-0.09445 0.108218,-0.169856 0.03603,-0.07541 0.07218,-0.04977 0.108209,-0.125656 0.03603,-0.0759 0.07218,-0.0052 0.108219,-0.08164 0.03603,-0.07635 0.07218,0.03872 0.108206,-0.0381 0.03604,-0.07681 0.07218,0.08195 0.10822,0.0046 0.03603,-0.07727 0.07218,0.124117 0.108218,0.04641 0.03603,-0.07769 0.07218,0.164982 0.108207,0.08685 0.03604,-0.07814 0.07218,0.204278 0.108219,0.125741 0.03605,-0.07853 0.07218,0.241762 0.108208,0.162829 0.03604,-0.07894 0.07218,0.277211 0.108218,0.19789 0.03604,-0.07932 0.07218,0.310406 0.10822,0.230715 0.03604,-0.07969 0.07218,0.341159 0.108207,0.261105 0.03605,-0.08006 0.07218,0.36929 0.10822,0.288889 0.03604,-0.08041 0.07218,0.394639 0.108208,0.313902 0.03603,-0.08072 0.07218,0.417073 0.108218,0.336013 0.03605,-0.08106 0.07218,0.436464 0.108219,0.355098 0.03603,-0.08137 0.07218,0.452724 0.108209,0.37106 0.03603,-0.08165 0.07218,0.465778 0.108218,0.383837 0.03603,-0.08196 0.07218,0.475566 0.108207,0.393354 0.03603,-0.08221 0.07218,0.482065 0.10822,0.399596 0.03603,-0.08247 0.07218,0.485269 0.108218,0.40255 0.03603,-0.08273 0.07218,0.485181 0.108209,0.402239 0.03604,-0.08295 0.07218,0.481842 0.108218,0.398681 0.03603,-0.08315 0.07218,0.475309 0.108206,0.391945 0.03604,-0.08336 0.07218,0.465664 0.108219,0.382106 0.03604,-0.08356 0.07218,0.453002 0.108218,0.369269 0.03604,-0.08373 0.07218,0.437442 0.10821,0.353542 0.03604,-0.08389 0.07218,0.419127 0.108218,0.335077 0.03605,-0.08406 0.07218,0.398203 0.108208,0.314018 0.03604,-0.08418 0.07218,0.374857 0.108219,0.290545 0.03603,-0.08431 0.07218,0.349265 0.108218,0.264843 0.03603,-0.0844 0.07218,0.321638 0.108209,0.237124 0.03604,-0.08452 0.07218,0.292191 0.108218,0.20759 0.03605,-0.08461 0.07218,0.26116 0.108208,0.17649 0.03603,-0.08467 0.07218,0.228769 0.10822,0.144044 0.03604,-0.08471 0.07218,0.195279 0.108218,0.110507 0.03603,-0.08477 0.07218,0.16094 0.108208,0.07615 0.03603,-0.08479 0.07218,0.126005 0.108219,0.04119 0.03603,-0.08483 0.07218,0.09075 0.108207,0.006 0.03604,-0.08483 0.07218,0.05546 0.108219,-0.02935" title="sin(x)*sin(x*5)-cos(x)" id="path6164-5-6" />
    <path style="fill:none;stroke:#302b00;stroke-width:6;stroke-linecap:round;stroke-linejoin:round;stroke-miterlimit:4;stroke-opacity:1;stroke-dasharray:6, 12;stroke-dashoffset:9.6" d="m 5,9 26,0 c 8,8 16,32 16,48 L 21,57 C 21,41 13,17 5,9 z" id="path2896-6" />
    <path style="fill:none;stroke:#fce94f;stroke-width:2;stroke-linecap:round;stroke-linejoin:round;stroke-miterlimit:4;stroke-opacity:1;stroke-dasharray:6, 12;stroke-dashoffset:9.6" d="m 5,9 26,0 c 8,8 16,32 16,48 L 21,57 C 21,41 13,17 5,9 z" id="path2896-6-2" />
  </g>
</svg>
