<?xml version="1.0" encoding="UTF-8" standalone="no"?>
<!-- Created with Inkscape (http://www.inkscape.org/) -->

<svg width="64px" height="64px" id="svg2860" version="1.1" xmlns:xlink="http://www.w3.org/1999/xlink" xmlns="http://www.w3.org/2000/svg" xmlns:svg="http://www.w3.org/2000/svg" xmlns:rdf="http://www.w3.org/1999/02/22-rdf-syntax-ns#" xmlns:cc="http://creativecommons.org/ns#" xmlns:dc="http://purl.org/dc/elements/1.1/">
  <defs id="defs2862">
    <linearGradient id="linearGradient3791">
      <stop style="stop-color:#a40000;stop-opacity:1" offset="0" id="stop3793" />
      <stop style="stop-color:#ef2929;stop-opacity:1" offset="1" id="stop3795" />
    </linearGradient>
    <radialGradient xlink:href="#linearGradient3377" id="radialGradient3692" cx="45.883327" cy="28.869568" fx="45.883327" fy="28.869568" r="19.467436" gradientUnits="userSpaceOnUse" />
    <radialGradient xlink:href="#linearGradient3377" id="radialGradient3703" gradientUnits="userSpaceOnUse" cx="135.38333" cy="97.369568" fx="135.38333" fy="97.369568" r="19.467436" gradientTransform="matrix(0.97435,0.2250379,-0.4623105,2.0016728,48.487554,-127.99883)" />
    <linearGradient id="linearGradient3377">
      <stop id="stop3379" offset="0" style="stop-color:#faff2b;stop-opacity:1" />
      <stop id="stop3381" offset="1" style="stop-color:#ffaa00;stop-opacity:1" />
    </linearGradient>
    <radialGradient xlink:href="#linearGradient3377" id="radialGradient3705" gradientUnits="userSpaceOnUse" cx="148.88333" cy="81.869568" fx="148.88333" fy="81.869568" r="19.467436" gradientTransform="matrix(1.3852588,-0.05136783,0.03705629,0.9993132,-60.392403,7.7040438)" />
    <linearGradient gradientTransform="translate(0,-4)" xlink:href="#linearGradient3767" id="linearGradient3773" x1="22.116516" y1="55.717518" x2="17.328547" y2="21.31134" gradientUnits="userSpaceOnUse" />
    <linearGradient id="linearGradient3767">
      <stop style="stop-color:#edd400;stop-opacity:1" offset="0" id="stop3769" />
      <stop style="stop-color:#fce94f;stop-opacity:1" offset="1" id="stop3771" />
    </linearGradient>
    <linearGradient gradientTransform="translate(0,-4)" xlink:href="#linearGradient3777" id="linearGradient3783" x1="53.896763" y1="51.179787" x2="47.502235" y2="21.83742" gradientUnits="userSpaceOnUse" />
    <linearGradient id="linearGradient3777">
      <stop style="stop-color:#c4a000;stop-opacity:1" offset="0" id="stop3779" />
      <stop style="stop-color:#edd400;stop-opacity:1" offset="1" id="stop3781" />
    </linearGradient>
    <linearGradient xlink:href="#linearGradient3791" id="linearGradient3797" x1="51.912434" y1="25.924324" x2="47.845406" y2="2.8778379" gradientUnits="userSpaceOnUse" />
  </defs>
  <metadata id="metadata2865">
    <rdf:RDF>
      <cc:Work rdf:about="">
        <dc:format>image/svg+xml</dc:format>
        <dc:type rdf:resource="http://purl.org/dc/dcmitype/StillImage" />
        <dc:creator>
          <cc:Agent>
            <dc:title>[Bernd Hahnebach]</dc:title>
          </cc:Agent>
        </dc:creator>
        <dc:title>fem-femmesh-gmsh-from-shape</dc:title>
        <dc:date>2016-11-28</dc:date>
        <dc:relation>http://www.freecad.org/wiki/index.php?title=Artwork</dc:relation>
        <dc:publisher>
          <cc:Agent>
            <dc:title>FreeCAD</dc:title>
          </cc:Agent>
        </dc:publisher>
        <dc:identifier>FreeCAD/src/Mod/</dc:identifier>
        <dc:rights>
          <cc:Agent>
            <dc:title>FreeCAD LGPL2+</dc:title>
          </cc:Agent>
        </dc:rights>
        <cc:license>https://www.gnu.org/copyleft/lesser.html</cc:license>
        <dc:contributor>
          <cc:Agent>
            <dc:title>[agryson] Alexander Gryson</dc:title>
          </cc:Agent>
        </dc:contributor>
      </cc:Work>
    </rdf:RDF>
  </metadata>
  <g id="layer1">
    <path style="fill:none;stroke:#000000;stroke-width:1px;stroke-linecap:butt;stroke-linejoin:miter;stroke-opacity:1" d="m 55.818182,23.636364 c 0.242424,0 0.242424,0 0,0 z" id="path2422" />
    <path style="fill:#fce94f;stroke:#302b00;stroke-width:2;stroke-linecap:butt;stroke-linejoin:round;stroke-opacity:1" d="M 3,13 37,19 61,11 31,7 z" id="path2993" />
    <path style="fill:url(#linearGradient3783);fill-opacity:1;stroke:#302b00;stroke-width:2;stroke-linecap:butt;stroke-linejoin:round;stroke-opacity:1" d="M 61,11 61,47 37,57 37,19 z" id="path2995" />
    <path id="path3825" d="M 3,13 37,19 37,57 3,51 z" style="fill:url(#linearGradient3773);fill-opacity:1;fill-rule:evenodd;stroke:#302b00;stroke-width:2;stroke-linecap:butt;stroke-linejoin:round;stroke-miterlimit:4;stroke-opacity:1;stroke-dasharray:none;stroke-dashoffset:0;marker:none;visibility:visible;display:inline;overflow:visible;enable-background:accumulate" />
    <path style="fill:none;stroke:#fce94f;stroke-width:2;stroke-linecap:butt;stroke-linejoin:miter;stroke-opacity:1" d="m 5,15.42772 0.00867,33.919116 30.008671,5.268799 -0.0087,-33.933614 z" id="path3765" />
    <path style="fill:none;stroke:#edd400;stroke-width:2;stroke-linecap:butt;stroke-linejoin:miter;stroke-opacity:1" d="m 39.01243,20.433833 -0.01226,33.535301 20.001105,-8.300993 3.6e-4,-31.867363 z" id="path3775" />
    <path style="fill:none;stroke:#302b00;stroke-width:2;stroke-linecap:round;stroke-linejoin:miter;stroke-opacity:1" d="M 25,54 25,17" id="path3051" />
    <path style="fill:none;stroke:#302b00;stroke-width:2;stroke-linecap:round;stroke-linejoin:miter;stroke-opacity:1" d="M 13,52 13,15" id="path3051-3" />
    <path style="fill:none;stroke:#302b00;stroke-width:2;stroke-linecap:round;stroke-linejoin:miter;stroke-opacity:1" d="M 47,51.999998 47,16" id="path3051-6" />
    <path style="fill:none;stroke:#302b00;stroke-width:2;stroke-linecap:round;stroke-linejoin:miter;stroke-opacity:1" d="M 55,49.5 55,13" id="path3051-7" />
    <path style="fill:none;stroke:#302b00;stroke-width:2;stroke-linecap:round;stroke-linejoin:miter;stroke-opacity:1" d="M 24.363636,8.5909091 55,13" id="path3853" />
    <path style="fill:none;stroke:#302b00;stroke-width:2;stroke-linecap:round;stroke-linejoin:miter;stroke-opacity:1" d="M 13.75,10.875 47,16" id="path3873" />
    <path style="fill:none;stroke:#302b00;stroke-width:2;stroke-linecap:round;stroke-linejoin:miter;stroke-opacity:1" d="M 13.049334,14.759655 40.369369,8.1385643" id="path3875" />
    <path style="fill:none;stroke:#302b00;stroke-width:2;stroke-linecap:round;stroke-linejoin:miter;stroke-opacity:1" d="M 25.745115,16.848834 50.365288,9.5849195" id="path3875-3" />
    <path style="fill:none;stroke:#302b00;stroke-width:2;stroke-linecap:butt;stroke-linejoin:miter;stroke-opacity:1" d="m 3,25 34,6" id="path3895" />
    <path style="fill:none;stroke:#302b00;stroke-width:2;stroke-linecap:butt;stroke-linejoin:miter;stroke-opacity:1" d="m 3,39 34,6" id="path3895-5" />
    <path style="fill:none;stroke:#302b00;stroke-width:2;stroke-linecap:butt;stroke-linejoin:miter;stroke-opacity:1" d="M 37,45 61,35" id="path3915" />
    <path style="fill:none;stroke:#302b00;stroke-width:2;stroke-linecap:butt;stroke-linejoin:miter;stroke-opacity:1" d="M 37,31 61,23" id="path3915-6" />
    <g style="font-size:40px;font-style:normal;font-weight:normal;line-height:125%;letter-spacing:0px;word-spacing:0px;fill:url(#linearGradient3797);fill-opacity:1;stroke:#280000;font-family:Sans;stroke-width:1.35567568" id="text3016" transform="matrix(1.4752791,0,0,1.4752791,-30.585327,-0.24561401)">
      <path d="M 55.96,3.48 C 54.040002,2.6400008 52.239998,2.2 50.36,2.2 43.680007,2.2 39,7.5600068 39,14.4 c 0,7.199993 4.600007,12.2 11.48,12.2 4.039996,0 7.360001,-1.040001 8.44,-1.68 0.639999,-0.4 0.68,-0.640001 0.68,-1.36 0,-0.08 0,-0.16 0,-0.24 l 0,-4.64 c 0.12,0 0.2,0 0.32,0 1.399999,0 2.16,-0.760001 2.16,-2.16 0,-1.679998 -0.840002,-2.12 -2.48,-2.12 l -7.04,0 c -1.639998,0 -2.44,0.520002 -2.44,2.16 0,1.639998 0.800002,2.16 2.44,2.16 l 2.2,0 0,3.04 c -1.479999,0.44 -2.720001,0.68 -3.72,0.68 -3.999996,0 -6.4,-2.840005 -6.4,-8.04 0,-5.1999948 2.240004,-7.92 6.2,-7.92 2.879997,0 4.040001,1.2000023 4.68,3.48 0.36,1.239999 0.840001,1.84 2.04,1.84 1.639998,0 2.04,-0.600002 2.04,-2.28 L 59.56,4.44 c 0,-1.6799983 -0.560001,-2.2 -1.8,-2.2 -0.879999,0 -1.32,0.3600009 -1.8,1.24" style="font-variant:normal;font-weight:bold;font-stretch:normal;fill:url(#linearGradient3797);stroke:#280000;stroke-width:1.35567568;font-family:Courier 10 Pitch;-inkscape-font-specification:Courier 10 Pitch Bold;fill-opacity:1" id="path3021" />
    </g>
  </g>
</svg>
