<?xml version="1.0" encoding="UTF-8" standalone="no"?>
<svg
   width="16"
   height="16"
   fill="currentColor"
   class="bi bi-table"
   viewBox="0 0 16 16"
   version="1.1"
   id="svg1"
   sodipodi:docname="FEM_PostSpreadsheet.svg"
   inkscape:version="1.4 (e7c3feb100, 2024-10-09)"
   xmlns:inkscape="http://www.inkscape.org/namespaces/inkscape"
   xmlns:sodipodi="http://sodipodi.sourceforge.net/DTD/sodipodi-0.dtd"
   xmlns="http://www.w3.org/2000/svg"
   xmlns:svg="http://www.w3.org/2000/svg">
  <defs
     id="defs1" />
  <sodipodi:namedview
     id="namedview1"
     pagecolor="#505050"
     bordercolor="#eeeeee"
     borderopacity="1"
     inkscape:showpageshadow="0"
     inkscape:pageopacity="0"
     inkscape:pagecheckerboard="0"
     inkscape:deskcolor="#505050"
     inkscape:zoom="97.6875"
     inkscape:cx="8"
     inkscape:cy="8"
     inkscape:window-width="3132"
     inkscape:window-height="1772"
     inkscape:window-x="0"
     inkscape:window-y="0"
     inkscape:window-maximized="1"
     inkscape:current-layer="svg1" />
  <path
     d="M0 2a2 2 0 0 1 2-2h12a2 2 0 0 1 2 2v12a2 2 0 0 1-2 2H2a2 2 0 0 1-2-2zm15 2h-4v3h4zm0 4h-4v3h4zm0 4h-4v3h3a1 1 0 0 0 1-1zm-5 3v-3H6v3zm-5 0v-3H1v2a1 1 0 0 0 1 1zm-4-4h4V8H1zm0-4h4V4H1zm5-3v3h4V4zm4 4H6v3h4z"
     id="path1"
     style="fill:#800080;fill-opacity:1" />
</svg>
