<?xml version="1.0" encoding="UTF-8" standalone="no"?>
<!-- Created with Inkscape (http://www.inkscape.org/) -->

<svg
   version="1.1"
   id="svg2"
   width="64"
   height="64"
   viewBox="0 0 64 64"
   xml:space="preserve"
   xmlns="http://www.w3.org/2000/svg"
   xmlns:svg="http://www.w3.org/2000/svg"
   xmlns:rdf="http://www.w3.org/1999/02/22-rdf-syntax-ns#"
   xmlns:cc="http://creativecommons.org/ns#"
   xmlns:dc="http://purl.org/dc/elements/1.1/"><metadata
     id="metadata8"><rdf:RDF><cc:Work
         rdf:about=""><dc:format>image/svg+xml</dc:format><dc:type
           rdf:resource="http://purl.org/dc/dcmitype/StillImage" /></cc:Work></rdf:RDF></metadata><defs
     id="defs6" /><path
     style="color:#000000;fill:#cc0000;stroke:#230b0b;stroke-width:2;stroke-linecap:round;stroke-linejoin:round;stroke-dasharray:none;stroke-opacity:1;paint-order:normal"
     d="M 6.9214802,12.838864 A 4.4771156,4.4852335 0 0 0 3.996782,17.04554 v 29.908786 a 4.476668,4.484785 0 0 0 4.4766684,4.484786 4.476668,4.484785 0 0 0 4.4766676,-4.484786 V 29.194752 l 15.646479,18.3355 a 4.4771156,4.4852335 0 0 0 6.806809,0 l 15.646479,-18.3355 v 17.759574 a 4.476668,4.484785 0 0 0 4.476668,4.484786 4.476668,4.484785 0 0 0 4.476668,-4.484786 V 17.04554 A 4.4771156,4.4852335 0 0 0 52.125335,14.130868 L 32.000002,37.713216 11.874668,14.130868 A 4.4771156,4.4852335 0 0 0 6.9214802,12.838864 Z"
     id="path2" /><path
     style="color:#000000;display:inline;fill:#781b1d;stroke:#cc0000;stroke-width:1.78542;stroke-linecap:round;stroke-linejoin:round;stroke-dasharray:none;stroke-opacity:1;paint-order:normal"
     d="m 10.875,16.449219 c 0.666456,-0.0307 1.331697,0.243316 1.785156,0.773437 l 17.982422,21.033203 c 0.71272,0.834159 2.002124,0.834159 2.714844,0 l 17.980469,-21.03125 c 1.331983,-1.555591 3.89728,-0.609427 3.898437,1.4375 v 26.675782 c 0,1.214063 -1.000781,2.214843 -2.214844,2.214843 -1.214063,0 -2.214843,-1.00078 -2.214843,-2.214843 V 29.498047 c 3.2e-5,-1.658801 -2.064735,-2.421058 -3.142579,-1.160156 L 33.683594,44.691406 c -0.862852,1.009552 -2.5042,1.009711 -3.367188,0 L 16.335937,28.337891 c -1.077843,-1.260902 -3.14261,-0.498645 -3.142578,1.160156 v 15.839844 c 0,1.214063 -1.00078,2.214843 -2.214843,2.214843 -1.2140635,0 -2.2148441,-1.00078 -2.2148441,-2.214843 V 18.662109 c 5.98e-5,-0.92146 0.5835546,-1.756875 1.4472661,-2.076172 0.219428,-0.08103 0.443155,-0.126542 0.664062,-0.136718 z"
     id="path3"
     transform="matrix(1.119167,0,0,1.1211963,-3.8133424,-3.8783472)" /></svg>
