<?xml version="1.0" encoding="UTF-8" standalone="no"?>
<!-- Created with Inkscape (http://www.inkscape.org/) -->

<svg width="64px" height="64px" id="svg2816" version="1.1" xmlns:xlink="http://www.w3.org/1999/xlink" xmlns="http://www.w3.org/2000/svg" xmlns:svg="http://www.w3.org/2000/svg" xmlns:rdf="http://www.w3.org/1999/02/22-rdf-syntax-ns#" xmlns:cc="http://creativecommons.org/ns#" xmlns:dc="http://purl.org/dc/elements/1.1/">
  <title id="title923">fem_material_reinforced</title>
  <defs id="defs2818">
    <linearGradient id="linearGradient4432">
      <stop style="stop-color:#ffffff;stop-opacity:1" offset="0" id="stop4434" />
      <stop style="stop-color:#ffffff;stop-opacity:0" offset="1" id="stop4436" />
    </linearGradient>
    <linearGradient id="linearGradient4044">
      <stop style="stop-color:#000000;stop-opacity:1" offset="0" id="stop4046" />
      <stop style="stop-color:#000000;stop-opacity:0" offset="1" id="stop4048" />
    </linearGradient>
    <linearGradient id="linearGradient3681">
      <stop id="stop3697" offset="0" style="stop-color:#fff110;stop-opacity:1" />
      <stop style="stop-color:#cf7008;stop-opacity:1" offset="1" id="stop3685" />
    </linearGradient>
    <pattern patternTransform="matrix(0.67643728,-0.81829155,2.4578314,1.8844554,-26.450606,18.294947)" id="pattern5231" xlink:href="#Strips1_1-4" />
    <pattern id="Strips1_1-4" patternTransform="matrix(0.66772843,-1.0037085,2.4261878,2.3114548,3.4760987,3.534923)" height="1" width="2" patternUnits="userSpaceOnUse">
      <rect id="rect4483-4" height="2" width="1" y="-0.5" x="0" style="fill:black;stroke:none" />
    </pattern>
    <pattern patternTransform="matrix(0.66772843,-1.0037085,2.4261878,2.3114548,39.618381,8.9692804)" id="pattern5231-4" xlink:href="#Strips1_1-6" />
    <pattern id="Strips1_1-6" patternTransform="matrix(0.66772843,-1.0037085,2.4261878,2.3114548,3.4760987,3.534923)" height="1" width="2" patternUnits="userSpaceOnUse">
      <rect id="rect4483-0" height="2" width="1" y="-0.5" x="0" style="fill:black;stroke:none" />
    </pattern>
    <pattern patternTransform="matrix(0.66513382,-1.0631299,2.4167603,2.4482973,-49.762569,2.9546807)" id="pattern5296" xlink:href="#pattern5231-3" />
    <pattern patternTransform="matrix(0.66772843,-1.0037085,2.4261878,2.3114548,-26.336284,10.887197)" id="pattern5231-3" xlink:href="#Strips1_1-4-3" />
    <pattern id="Strips1_1-4-3" patternTransform="matrix(0.66772843,-1.0037085,2.4261878,2.3114548,3.4760987,3.534923)" height="1" width="2" patternUnits="userSpaceOnUse">
      <rect id="rect4483-4-6" height="2" width="1" y="-0.5" x="0" style="fill:black;stroke:none" />
    </pattern>
    <pattern patternTransform="matrix(0.42844886,-0.62155849,1.5567667,1.431396,27.948414,13.306456)" id="pattern5330" xlink:href="#Strips1_1-9" />
    <pattern id="Strips1_1-9" patternTransform="matrix(0.66772843,-1.0037085,2.4261878,2.3114548,3.4760987,3.534923)" height="1" width="2" patternUnits="userSpaceOnUse">
      <rect id="rect4483-3" height="2" width="1" y="-0.5" x="0" style="fill:black;stroke:none" />
    </pattern>
    <linearGradient xlink:href="#linearGradient3681" id="linearGradient3687" x1="37.89756" y1="41.087898" x2="4.0605712" y2="40.168594" gradientUnits="userSpaceOnUse" />
    <linearGradient xlink:href="#linearGradient3681" id="linearGradient3695" x1="31.777767" y1="40.24213" x2="68.442062" y2="54.041203" gradientUnits="userSpaceOnUse" gradientTransform="matrix(0.25023482,-0.66040068,0.68751357,0.24036653,-8.7488565,43.149938)" />
    <radialGradient xlink:href="#linearGradient12512" id="radialGradient278" gradientUnits="userSpaceOnUse" cx="55" cy="125" fx="55" fy="125" r="14.375" />
    <linearGradient id="linearGradient12512">
      <stop style="stop-color:#ffffff;stop-opacity:1" offset="0.0000000" id="stop12513" />
      <stop style="stop-color:#fff520;stop-opacity:0.89108908" offset="0.50000000" id="stop12517" />
      <stop style="stop-color:#fff300;stop-opacity:0" offset="1.0000000" id="stop12514" />
    </linearGradient>
    <radialGradient r="14.375" fy="125" fx="55" cy="125" cx="55" gradientUnits="userSpaceOnUse" id="radialGradient4017" xlink:href="#linearGradient12512" />
    <linearGradient xlink:href="#linearGradient4044" id="linearGradient4060" x1="15.78776" y1="50.394047" x2="27.641447" y2="39.95837" gradientUnits="userSpaceOnUse" />
    <radialGradient xlink:href="#linearGradient12512-2" id="radialGradient278-5" gradientUnits="userSpaceOnUse" cx="55" cy="125" fx="55" fy="125" r="14.375" />
    <linearGradient id="linearGradient12512-2">
      <stop style="stop-color:#ffffff;stop-opacity:1" offset="0.0000000" id="stop12513-3" />
      <stop style="stop-color:#fff520;stop-opacity:0.89108908" offset="0.50000000" id="stop12517-1" />
      <stop style="stop-color:#fff300;stop-opacity:0" offset="1.0000000" id="stop12514-6" />
    </linearGradient>
    <radialGradient r="14.375" fy="125" fx="55" cy="125" cx="55" gradientUnits="userSpaceOnUse" id="radialGradient4078" xlink:href="#linearGradient12512-2" />
    <linearGradient xlink:href="#linearGradient3960" id="linearGradient3966" x1="37.758171" y1="57.301327" x2="21.860462" y2="22.615412" gradientUnits="userSpaceOnUse" />
    <linearGradient id="linearGradient3960">
      <stop style="stop-color:#c4a000;stop-opacity:1" offset="0" id="stop3962" />
      <stop style="stop-color:#fce94f;stop-opacity:1" offset="1" id="stop3964" />
    </linearGradient>
    <radialGradient xlink:href="#linearGradient4432" id="radialGradient4440" cx="55" cy="125" fx="55" fy="125" r="20.367043" gradientTransform="matrix(0.41658223,-0.00547178,0.00729572,0.55544286,-40.222685,-44.926056)" gradientUnits="userSpaceOnUse" />
    <linearGradient xlink:href="#linearGradient3960" id="linearGradient994" gradientUnits="userSpaceOnUse" gradientTransform="matrix(-1.383847,0,0,1.383847,-73.93028,-42.387182)" x1="18.969967" y1="58.615189" x2="36.991264" y2="23.429474" />
    <linearGradient xlink:href="#linearGradient3960" id="linearGradient1087" gradientUnits="userSpaceOnUse" gradientTransform="matrix(-1.383847,0,0,1.383847,-73.93028,-42.387182)" x1="18.969967" y1="58.615189" x2="36.991264" y2="23.429474" />
    <linearGradient xlink:href="#linearGradient3960" id="linearGradient1221" gradientUnits="userSpaceOnUse" gradientTransform="matrix(-1.383847,0,0,1.383847,-73.93028,-42.387182)" x1="18.969967" y1="58.615189" x2="36.991264" y2="23.429474" />
    <linearGradient xlink:href="#linearGradient3960" id="linearGradient1223" gradientUnits="userSpaceOnUse" gradientTransform="matrix(-1.383847,0,0,1.383847,-73.93028,-42.387182)" x1="18.969967" y1="58.615189" x2="36.991264" y2="23.429474" />
  </defs>
  <metadata id="metadata2821">
    <rdf:RDF>
      <cc:Work rdf:about="">
        <dc:format>image/svg+xml</dc:format>
        <dc:type rdf:resource="http://purl.org/dc/dcmitype/StillImage" />
        <dc:title>fem_material_reinforced</dc:title>
        <dc:creator>
          <cc:Agent>
            <dc:title />
          </cc:Agent>
        </dc:creator>
        <dc:title>fem-material</dc:title>
        <dc:date>2019-06-18</dc:date>
        <dc:relation />
        <dc:publisher>
          <cc:Agent>
            <dc:title>FreeCAD</dc:title>
          </cc:Agent>
        </dc:publisher>
        <dc:identifier>FreeCAD/src/Mod/</dc:identifier>
        <dc:rights>
          <cc:Agent>
            <dc:title>FreeCAD LGPL2+</dc:title>
          </cc:Agent>
        </dc:rights>
        <cc:license>https://www.gnu.org/copyleft/lesser.html</cc:license>
        <dc:contributor>
          <cc:Agent>
            <dc:title>[agryson] Alexander Gryson
[Bitacovir] Rafael Moya</dc:title>
          </cc:Agent>
        </dc:contributor>
      </cc:Work>
    </rdf:RDF>
  </metadata>
  <g id="layer1">
    <g id="g1219" transform="translate(144.17746,19.107954)">
      <path id="path1195" d="m -123.98828,-13.552738 a 29,29 0 0 0 -17.19336,26.460937 29,29 0 0 0 29,29 A 29,29 0 0 0 -87.619141,28.25 c -0.07264,-0.07107 -0.137007,-0.150831 -0.183593,-0.248047 -0.1478,-0.171567 -0.317372,-0.317045 -0.470704,-0.486328 -0.175846,-0.19414 -0.287428,-0.442009 -0.496093,-0.609375 -0.09365,-0.126317 -0.598426,-0.752447 -0.59375,-0.902344 9.6e-5,-0.0031 0.0087,0.0058 0.0098,0.0039 -0.03409,-0.02029 -0.05242,-0.04079 -0.300781,-0.27539 -0.0064,-0.01047 -0.007,-0.01677 -0.01953,-0.03125 -0.02457,-0.01063 -0.04059,-0.01702 -0.05664,-0.02734 -0.46977,-0.113927 -1.186085,-0.341867 -0.410156,-0.273437 -0.06142,-0.100201 -0.130684,-0.195835 -0.183594,-0.300782 -0.0094,-0.01873 -0.0221,-0.06252 -0.0332,-0.08789 -1.066813,-0.836135 -0.852458,-0.684465 -1.990234,-1.507813 -0.307514,-0.222532 -0.628409,-0.42424 -0.925782,-0.660156 -0.662986,-0.525971 -1.196854,-1.155557 -1.724609,-1.810547 -0.369751,-0.364264 -0.485446,-0.496212 -0.871094,-0.814453 -0.366745,-0.302642 -0.770557,-0.562314 -1.134765,-0.867188 -0.153908,-0.128834 -0.295563,-0.270444 -0.44336,-0.40625 -0.29741,-0.289646 -0.485856,-0.472043 -0.716796,-0.746093 -0.0088,-0.0033 -0.01858,-0.0043 -0.02734,-0.0078 -0.34495,-0.139792 -0.643157,-0.396103 -0.998047,-0.517578 -0.363977,-0.155744 -0.457584,-0.177687 -0.777344,-0.373047 -0.03733,-0.02281 -0.06276,-0.06183 -0.101567,-0.08203 -0.49131,-0.255716 -0.42166,-0.100133 -0.73242,-0.490234 -0.0798,-0.06292 -0.15182,-0.126274 -0.21289,-0.230469 -0.0167,-0.02847 0.1041,0.07735 0.0801,0.05469 -0.19278,-0.181985 -0.4353,-0.307627 -0.58203,-0.539062 0.0172,-4.15e-4 0.0641,0.0108 0.0508,0 -0.05,-0.04041 -0.10792,-0.07073 -0.15235,-0.117188 -0.0196,-0.02044 0.10045,0.05163 0.0762,0.03711 -0.51543,-0.308118 -0.10745,-0.02242 -0.71093,-0.490235 -0.11452,-0.133837 -0.23719,-0.260132 -0.34375,-0.40039 -0.01,-0.01307 -0.0147,-0.02424 -0.0234,-0.03711 -0.18244,-0.04781 -0.42286,-0.100411 -0.43359,-0.199218 -0.22606,-0.162756 -0.43481,-0.330636 -0.64063,-0.517579 -0.31082,-0.282319 -0.55836,-0.493834 -0.76367,-0.86914 -0.0328,-0.04408 -0.0645,-0.08903 -0.0977,-0.132813 -0.24932,0.09692 -0.49842,0.178614 -0.74414,0.111329 -0.11251,-0.03081 -0.13465,-0.14942 -0.13476,-0.28711 -0.0128,-0.0085 -0.0342,-0.03353 -0.10743,-0.117187 -0.0499,-0.08761 -0.10694,-0.169852 -0.14843,-0.261719 -0.17036,-0.377135 0.10139,3.59e-4 -0.18164,-0.46875 -0.33731,-0.559091 -0.79575,-1.040292 -1.13868,-1.595703 -0.12043,-0.232085 -0.25633,-0.4578 -0.36132,-0.6972659 -0.0592,-0.1349443 -0.10028,-0.2772047 -0.14453,-0.4179687 -0.022,-0.026824 -0.0423,-0.055381 -0.0684,-0.078125 -0.0964,-0.084221 -0.20662,-0.1533336 -0.29688,-0.2441406 -0.19014,-0.1912896 -0.29796,-0.4564863 -0.46875,-0.6621094 -0.0152,-0.038878 -0.0505,-0.09211 -0.0684,-0.1328125 -0.2152,-0.2431541 -0.41972,-0.4952215 -0.65234,-0.7226563 -0.0825,-0.1132615 -0.15946,-0.2312621 -0.24805,-0.3398437 -0.48369,-0.5928236 -1.07471,-1.0832986 -1.48437,-1.7382813 -0.0226,-0.036077 -0.029,-0.080912 -0.043,-0.1210937 -0.18217,-0.1318051 -0.34937,-0.2844454 -0.53516,-0.4101563 -0.0902,-0.061021 -0.18653,-0.1121423 -0.27344,-0.1777344 -0.0857,-0.064649 -0.14162,-0.1654218 -0.23437,-0.2226562 -0.27355,-0.2247516 -0.64395,-0.4895519 -0.66992,-0.875 -0.54936,-0.5388131 0.40543,0.3839367 -0.58594,-0.484375 -0.16136,-0.1413349 -0.32009,-0.2857573 -0.45899,-0.4492188 -0.27589,-0.3246696 -0.42576,-0.7141671 -0.66796,-1.0585937 -0.22581,-0.2047569 -0.44205,-0.388826 -0.64454,-0.6171875 -0.24412,-0.27531415 -0.45351,-0.5795252 -0.65625,-0.88671875 -0.0577,-0.0539308 -0.11911,-0.10342471 -0.17382,-0.16015625 -0.0292,-0.0303124 -0.0689,-0.06336 -0.0684,-0.10546875 3.2e-4,-0.02798491 0.0454,0.03091919 0.0684,0.046875 -0.0536,-0.04788611 -0.10654,-0.09469201 -0.16016,-0.14257813 -0.13589,-0.01934317 -0.19635,-0.0408239 -0.47656,-0.3125 -0.0189,-0.0183102 -0.0401,-0.0440302 -0.0391,-0.0703125 6.6e-4,-0.0154644 0.0273,0.0160922 0.041,0.0234375 -0.24816,-0.22617146 -0.44276,-0.4502213 -0.60156,-0.75000002 -0.0218,-0.041166 -0.0249,-0.090914 -0.0488,-0.1308593 -0.50318,-0.8385418 -0.016,0.092641 -0.38867,-0.6464844 -0.14492,-0.2625937 -0.31229,-0.5143918 -0.44531,-0.7832032 -0.12035,-0.2431838 -0.20447,-0.5011773 -0.27735,-0.7636718 -0.2129,-0.2181003 -0.43581,-0.4322713 -0.5957,-0.6230469 -0.4063,-0.4847912 -1.24074,-1.6152458 -1.54883,-2.1191406 -0.44539,-0.7284457 -1.0935,-2.0776929 -1.4707,-2.8378907 -0.62797,-1.2498242 -1.28419,-2.4852162 -1.86524,-3.7578122 -0.11538,-0.252716 -0.22248,-0.486084 -0.32226,-0.722657 -0.0239,-0.0171 1.4e-4,0.0022 -0.0273,-0.01758 -0.005,-0.0038 -0.0103,-0.0079 -0.0156,-0.01172 z" style="fill:url(#linearGradient1221);fill-opacity:1;stroke:#302b00;stroke-width:2;stroke-miterlimit:4;stroke-dasharray:none;stroke-dashoffset:0" />
      <path id="path1181" d="m -115.85547,-0.01953525 c 0.0126,0.0063088 0.0236,0.01546976 0.0371,0.01953125 0.008,0.00246765 0.0136,0.00139851 0.0254,0.00390625 -0.003,-0.004376989 -0.005,-0.0092969 -0.008,-0.01367188 -0.0186,-0.00289288 -0.0395,-0.00764062 -0.0547,-0.00976562 z" style="fill:url(#linearGradient1223);fill-opacity:1;stroke:#302b00;stroke-width:2;stroke-miterlimit:4;stroke-dasharray:none;stroke-dashoffset:0" />
      <path id="path1171" d="m -105.2168,13.041016 c -0.0695,-0.0058 -0.0831,0.01165 -0.11132,0.02344 0.007,0.02067 0.006,0.0394 0.0625,0.07813 0.0818,0.05643 0.17051,0.120702 0.26953,0.128906 0.11786,0.0098 0.45665,-0.03716 0.3457,-0.07813 -0.28085,-0.103697 -0.45553,-0.143098 -0.56641,-0.152343 z" style="fill:url(#linearGradient1087);fill-opacity:1;stroke:#302b00;stroke-width:2;stroke-miterlimit:4;stroke-dasharray:none;stroke-dashoffset:0" />
      <path id="path1165" d="m -123.11719,-11.755859 c -9.75933,4.3231864 -16.05565,13.9900583 -16.06445,24.664062 0,14.911688 12.08831,27 27,27 9.53722,-0.01273 18.360231,-5.056035 23.210937,-13.267578 -0.180163,-0.236803 -0.395847,-0.531939 -0.392578,-0.636719 9.6e-5,-0.0031 0.0087,0.0058 0.0098,0.0039 -0.03409,-0.02029 -0.05242,-0.04079 -0.300781,-0.27539 -0.0064,-0.01047 -0.007,-0.01677 -0.01953,-0.03125 -0.02457,-0.01063 -0.04059,-0.01702 -0.05664,-0.02734 -0.46977,-0.113927 -1.186085,-0.341867 -0.410156,-0.273437 -0.06142,-0.100201 -0.130684,-0.195835 -0.183594,-0.300782 -0.07886,-0.156421 -0.225108,-0.57563 -0.28125,-0.732421 -0.03802,-0.106174 -0.07536,-0.212153 -0.113281,-0.31836 -0.01623,-0.04545 -0.02261,-0.09621 -0.04883,-0.136719 -0.04429,-0.06844 -0.107258,-0.123518 -0.160156,-0.185547 -0.03355,-0.04888 -0.06941,-0.09546 -0.09961,-0.146484 -0.0023,-0.0039 0.01629,0.0037 0.01367,0 -0.0161,-0.02267 -0.03299,-0.04489 -0.05078,-0.06641 -0.197576,0.01037 -0.383747,0.004 -0.59375,-0.101563 -0.06532,-0.03284 -0.138134,-0.07665 -0.179688,-0.134765 -0.02905,-0.02101 -0.05748,-0.0438 -0.08789,-0.06055 -0.07119,-0.08631 0.04897,0.05467 -0.158203,-0.113281 -0.133505,-0.108233 -0.272062,-0.215422 -0.390625,-0.339844 -0.459315,-0.482012 0.686054,0.240105 -0.294922,-0.333984 -0.05793,-0.05709 -0.122158,-0.109066 -0.173828,-0.171876 -0.0064,-0.0078 0.01771,-0.0231 0.0098,-0.0293 -0.690294,-0.538297 0.286503,0.331627 -0.568359,-0.388672 -0.02432,-0.01345 -0.04941,-0.0229 -0.07422,-0.03516 -0.328661,-0.320455 -0.468678,-0.434353 -0.550781,-0.908204 -0.0161,-0.09293 -0.05907,-0.186044 -0.04492,-0.279296 0.01968,-0.129759 0.06941,-0.252642 0.113281,-0.376954 -0.239545,-0.124551 -0.481854,-0.244191 -0.697265,-0.404296 -0.836163,-1.067182 -0.13157,-0.170761 -0.126953,-0.15625 0.02099,0.06599 -0.11138,-0.08479 -0.152344,-0.140626 -0.01537,-0.02095 0.08597,0.05332 0.07227,0.03125 -0.07955,-0.128126 -0.375545,-0.06179 -0.40625,-0.201171 -0.167071,-0.07962 -0.341105,-0.143387 -0.5,-0.238282 -0.13636,-0.08144 -0.261169,-0.184657 -0.380859,-0.289062 -0.05078,-0.04429 -0.04344,-0.114554 -0.109375,-0.144531 -0.106974,-0.04863 -0.439864,-0.124218 -0.521484,-0.144532 -0.137388,-0.05739 -0.280724,-0.101822 -0.41211,-0.171875 -0.204002,-0.108771 -0.28759,-0.231718 -0.478515,-0.347656 -0.219164,-0.133088 -0.496983,-0.209014 -0.677735,-0.398437 -0.392606,-0.13587 -0.798014,-0.292934 -1.15625,-0.50586 -0.395306,-0.23497 -0.717066,-0.580617 -1.082026,-0.855468 -0.50437,-0.319033 -1.0372,-0.589515 -1.51758,-0.94336 -0.0779,-0.06419 -0.16036,-0.124721 -0.23437,-0.193359 -0.0152,-0.0141 -0.0389,-0.03342 -0.0312,-0.05274 0.006,-0.01601 0.0564,0.02021 0.0508,0.0039 -0.0296,-0.086 -0.61614,-0.127756 -0.63281,-0.28125 -0.22606,-0.162756 -0.43481,-0.330636 -0.64063,-0.517579 -0.31083,-0.282318 -0.55836,-0.493834 -0.76368,-0.86914 -0.0328,-0.04408 -0.0645,-0.08903 -0.0977,-0.132813 -0.24932,0.09692 -0.49842,0.178613 -0.74414,0.111329 -0.11251,-0.03081 -0.13464,-0.14942 -0.13476,-0.28711 -0.0128,-0.0085 -0.0342,-0.03353 -0.10742,-0.117187 -0.0499,-0.08761 -0.10694,-0.169852 -0.14844,-0.261719 -0.17036,-0.377135 0.10139,3.59e-4 -0.18164,-0.46875 -0.33731,-0.559091 -0.79576,-1.040292 -1.13867,-1.595703 -0.12043,-0.232085 -0.25634,-0.4578 -0.36133,-0.6972659 -0.0592,-0.1349443 -0.10028,-0.2772047 -0.14453,-0.4179687 -0.022,-0.026824 -0.0423,-0.055381 -0.0684,-0.078125 -0.0964,-0.084221 -0.20662,-0.1533337 -0.29688,-0.2441406 -0.19014,-0.1912896 -0.29796,-0.4564863 -0.46875,-0.6621094 -0.0152,-0.038878 -0.0505,-0.09211 -0.0684,-0.1328125 -0.2152,-0.2431541 -0.41973,-0.4952215 -0.65233,-0.7226563 -0.0825,-0.1132615 -0.15946,-0.2312621 -0.24806,-0.3398437 -0.48369,-0.5928236 -1.07471,-1.0832986 -1.48437,-1.7382813 -0.0226,-0.036077 -0.029,-0.080912 -0.043,-0.1210937 -0.18217,-0.1318051 -0.34937,-0.2844454 -0.53516,-0.4101563 -0.0902,-0.061021 -0.18653,-0.1121422 -0.27344,-0.1777344 -0.0857,-0.064649 -0.14162,-0.1654218 -0.23437,-0.2226562 -0.27355,-0.2247516 -0.64395,-0.4895519 -0.66992,-0.875 -0.54936,-0.5388131 0.40543,0.3839367 -0.58594,-0.484375 -0.16136,-0.1413349 -0.32008,-0.2857573 -0.45899,-0.4492188 -0.27589,-0.3246696 -0.42576,-0.7141671 -0.66796,-1.0585937 -0.2258,-0.2047569 -0.44204,-0.388826 -0.64454,-0.6171875 -0.24412,-0.27531415 -0.45351,-0.5795252 -0.65625,-0.88671875 -0.0577,-0.0539308 -0.11911,-0.10342471 -0.17382,-0.16015625 -0.0292,-0.0303124 -0.0689,-0.06336 -0.0684,-0.10546875 3.2e-4,-0.02798491 0.0454,0.03091919 0.0684,0.046875 -0.0536,-0.04788611 -0.10654,-0.094692 -0.16016,-0.14257813 -0.13589,-0.01934316 -0.19635,-0.04082389 -0.47656,-0.3125 -0.0189,-0.0183102 -0.0401,-0.0440302 -0.0391,-0.0703125 6.6e-4,-0.0154644 0.0273,0.0160922 0.041,0.0234375 -0.24816,-0.22617145 -0.44276,-0.45022128 -0.60156,-0.75000002 -0.0218,-0.041166 -0.0249,-0.090914 -0.0488,-0.1308593 -0.50318,-0.8385418 -0.016,0.092641 -0.38867,-0.6464844 -0.14492,-0.2625937 -0.31229,-0.5143917 -0.44531,-0.7832032 -0.12035,-0.2431838 -0.20447,-0.5011773 -0.27735,-0.7636718 -0.2129,-0.2181003 -0.43581,-0.4322713 -0.5957,-0.6230469 -0.4063,-0.4847912 -1.24074,-1.6152458 -1.54883,-2.1191406 -0.44539,-0.7284457 -1.0935,-2.0776928 -1.4707,-2.8378907 -0.4541,-0.9037778 -0.91484,-1.8046812 -1.35938,-2.7128902 z" style="fill:none;stroke:#fce94f;stroke-width:2;stroke-miterlimit:4;stroke-dasharray:none;stroke-dashoffset:0" />
      <path id="path1161" d="m -115.85547,-0.01953125 c 0.0126,0.0063088 0.0236,0.01546976 0.0371,0.01953125 0.008,0.00246765 0.0136,0.00139851 0.0254,0.00390625 -0.003,-0.004376989 -0.005,-0.00929689 -0.008,-0.01367188 -0.0186,-0.00289288 -0.0395,-0.00764062 -0.0547,-0.00976562 z" style="fill:none;stroke:#fce94f;stroke-width:2;stroke-miterlimit:4;stroke-dasharray:none;stroke-dashoffset:0" />
      <path id="path1145" d="m -105.2168,13.041021 c -0.0695,-0.0058 -0.0831,0.01165 -0.11132,0.02344 0.007,0.02067 0.006,0.03939 0.0625,0.07813 0.0818,0.05643 0.17051,0.120702 0.26953,0.128906 0.11786,0.0098 0.45665,-0.03715 0.3457,-0.07813 -0.28085,-0.103697 -0.45553,-0.143098 -0.56641,-0.152343 z" style="fill:none;stroke:#fce94f;stroke-width:2;stroke-miterlimit:4;stroke-dasharray:none;stroke-dashoffset:0" />
      <g id="g1204">
        <path style="fill:none;stroke:#302b00;stroke-width:2;stroke-miterlimit:4;stroke-dasharray:none;stroke-dashoffset:0" d="m -123.96094,-13.566406 a 29,29 0 0 0 -17.2207,26.474609 29,29 0 0 0 29,29 29,29 0 0 0 24.582031,-13.642578 c -0.08006,-0.07545 -0.152718,-0.158483 -0.203125,-0.263672 -0.1478,-0.171567 -0.317372,-0.317045 -0.470704,-0.486328 -0.175846,-0.19414 -0.287428,-0.442009 -0.496093,-0.609375 -0.09365,-0.126317 -0.598426,-0.752447 -0.59375,-0.902344 9.6e-5,-0.0031 0.0087,0.0058 0.0098,0.0039 -0.03409,-0.02029 -0.05242,-0.04079 -0.300781,-0.27539 -0.0064,-0.01047 -0.007,-0.01677 -0.01953,-0.03125 -0.02457,-0.01063 -0.04059,-0.01702 -0.05664,-0.02734 -0.46977,-0.113927 -1.186085,-0.341867 -0.410156,-0.273437 -0.06142,-0.100201 -0.130684,-0.195835 -0.183594,-0.300782 -0.07886,-0.156421 -0.225108,-0.57563 -0.28125,-0.732421 -0.03802,-0.106174 -0.07536,-0.212153 -0.113281,-0.31836 -0.01623,-0.04545 -0.02261,-0.09621 -0.04883,-0.136719 -0.04429,-0.06844 -0.107258,-0.123518 -0.160156,-0.185547 -0.03355,-0.04888 -0.06941,-0.09546 -0.09961,-0.146484 -0.0023,-0.0039 0.01629,0.0037 0.01367,0 -0.0161,-0.02267 -0.03299,-0.04489 -0.05078,-0.06641 -0.197576,0.01037 -0.383747,0.004 -0.59375,-0.101563 -0.06532,-0.03284 -0.138134,-0.07665 -0.179688,-0.134765 -0.02905,-0.02101 -0.05748,-0.0438 -0.08789,-0.06055 -0.07119,-0.08631 0.04897,0.05467 -0.158203,-0.113281 -0.133505,-0.108233 -0.272062,-0.215422 -0.390625,-0.339844 -0.459315,-0.482012 0.686054,0.240104 -0.294922,-0.333984 -0.05793,-0.05709 -0.122158,-0.109066 -0.173828,-0.171876 -0.0064,-0.0078 0.01767,-0.0231 0.0098,-0.0293 -0.690294,-0.538297 0.286503,0.331627 -0.568359,-0.388672 -0.02432,-0.01345 -0.04941,-0.0229 -0.07422,-0.03516 -0.230123,-0.224378 -0.365047,-0.352049 -0.455078,-0.56836 -0.08781,-0.03455 -0.197377,-0.06568 -0.287109,-0.109375 -0.04555,-0.0105 -0.101485,-0.03274 -0.15625,-0.05469 -0.0012,-4.89e-4 -0.0027,4.95e-4 -0.0039,0 -0.192648,-0.01478 -0.28139,-0.03726 -0.107422,-0.04102 -0.05093,-0.02332 -0.146616,-0.07076 -0.214843,-0.103516 -0.187607,-0.04963 -0.375571,-0.09603 -0.550781,-0.177734 -0.142342,-0.06638 -0.590222,-0.358564 -0.761719,-0.556641 -0.01012,-0.01169 0.05711,0.02124 0.04492,0.01172 -0.173355,-0.135539 -0.36818,-0.243104 -0.53125,-0.392578 -0.0964,-0.06431 -0.204137,-0.146048 -0.31836,-0.240234 -0.291161,-0.142224 -0.488701,-0.236998 -0.74414,-0.410157 -0.462577,-0.294261 -0.906715,-0.63073 -1.271485,-1.042968 -0.066,-0.07341 -0.127195,-0.151169 -0.197265,-0.220703 -0.259906,-0.257917 -0.581988,-0.445942 -0.865235,-0.675782 -0.376599,-0.263087 -0.747699,-0.5295 -1.097659,-0.828125 -0.0601,-0.05125 -0.11241,-0.110161 -0.17187,-0.162109 -0.0592,-0.05174 -0.12541,-0.09556 -0.1836,-0.148438 -0.004,-0.0035 0.005,-0.01074 0.006,-0.01563 -0.1205,-0.07196 -0.25026,-0.129028 -0.36133,-0.214843 -0.10794,-0.0834 -0.20506,-0.180007 -0.30469,-0.273438 -0.2486,-0.08456 -0.46934,-0.198757 -0.82812,-0.539062 -0.002,-0.0016 -0.002,-0.0042 -0.004,-0.0059 0.0597,0.05649 -0.30612,-0.266247 -0.33984,-0.324218 -0.0761,-0.07235 -0.15245,-0.144453 -0.22852,-0.216797 0.0142,0.02103 0.0187,0.02464 0.0215,0.0293 0,0 0,0.002 0,0.002 0.004,0.0063 -0.003,8.22e-4 -0.0352,-0.02734 -0.0111,-0.01023 -0.0153,-0.01493 -0.0332,-0.03125 -0.0566,-0.04817 -0.1133,-0.09637 -0.16992,-0.144531 -0.41404,-0.233079 -0.54477,-0.485752 -0.91406,-1.007813 0.0743,0.14137 0.0648,0.13535 -0.0176,0.0098 -0.001,-0.0019 -8.2e-4,-0.002 -0.002,-0.0039 -0.21396,0.07722 -0.42769,0.135896 -0.63867,0.07813 -0.11251,-0.03081 -0.13465,-0.14942 -0.13476,-0.28711 -0.0128,-0.0085 -0.0342,-0.03353 -0.10743,-0.117187 -0.0499,-0.08761 -0.10694,-0.169852 -0.14843,-0.261719 -0.17036,-0.377135 0.10139,3.59e-4 -0.18164,-0.46875 -0.33731,-0.559091 -0.79575,-1.040292 -1.13868,-1.595703 -0.12043,-0.232085 -0.25633,-0.4578 -0.36132,-0.6972659 -0.0592,-0.1349443 -0.10028,-0.2772047 -0.14453,-0.4179687 -0.022,-0.026824 -0.0423,-0.055381 -0.0684,-0.078125 -0.0964,-0.084221 -0.20662,-0.1533337 -0.29688,-0.2441406 -0.19014,-0.1912896 -0.29796,-0.4564863 -0.46875,-0.6621094 -0.0152,-0.038878 -0.0505,-0.09211 -0.0684,-0.1328125 -0.2152,-0.2431541 -0.41972,-0.4952215 -0.65234,-0.7226563 -0.0518,-0.071088 -0.10459,-0.1415691 -0.15625,-0.2128906 -0.007,-0.00831 -0.0142,-0.017062 -0.0215,-0.025391 -0.0932,-0.1129331 -0.18854,-0.2241449 -0.2832,-0.3359375 -0.25956,-0.2910982 -0.527,-0.5746322 -0.7832,-0.8671875 -0.1444,-0.1473037 -0.2721,-0.2902297 -0.4375,-0.4609375 -0.20281,-0.2412433 -0.26673,-0.3350212 -0.35157,-0.4941407 -0.091,-0.073009 -0.181,-0.1477039 -0.27734,-0.2128906 -0.0902,-0.061021 -0.18653,-0.1121421 -0.27344,-0.1777344 -0.0857,-0.064649 -0.14162,-0.1654218 -0.23437,-0.2226562 -0.27355,-0.2247516 -0.64395,-0.4895519 -0.66992,-0.875 -0.54936,-0.5388131 0.40543,0.3839367 -0.58594,-0.484375 -0.16136,-0.1413349 -0.32009,-0.2857573 -0.45899,-0.4492188 -0.27589,-0.3246696 -0.42576,-0.7141671 -0.66796,-1.0585937 -0.22581,-0.2047569 -0.44205,-0.388826 -0.64454,-0.6171875 -0.24412,-0.27531415 -0.45351,-0.5795252 -0.65625,-0.88671875 -0.0577,-0.0539308 -0.11911,-0.10342471 -0.17382,-0.16015625 -0.0292,-0.0303124 -0.0689,-0.06336 -0.0684,-0.10546875 3.2e-4,-0.02798491 0.0454,0.03091919 0.0684,0.046875 -0.0536,-0.04788611 -0.10654,-0.094692 -0.16016,-0.14257813 -0.13589,-0.01934315 -0.19635,-0.04082388 -0.47656,-0.3125 -0.0189,-0.0183102 -0.0401,-0.0440302 -0.0391,-0.0703125 6.6e-4,-0.0154644 0.0273,0.0160922 0.041,0.0234375 -0.24816,-0.22617145 -0.44276,-0.45022126 -0.60156,-0.75000002 -0.0218,-0.041166 -0.0249,-0.090914 -0.0488,-0.1308593 -0.50318,-0.8385418 -0.016,0.092641 -0.38867,-0.6464844 -0.14492,-0.2625937 -0.31229,-0.5143917 -0.44531,-0.7832032 -0.12035,-0.2431838 -0.20447,-0.5011773 -0.27735,-0.7636718 -0.2129,-0.2181003 -0.43581,-0.4322713 -0.5957,-0.6230469 -0.4063,-0.4847912 -1.24074,-1.6152458 -1.54883,-2.1191406 -0.44539,-0.7284457 -1.0935,-2.0776927 -1.4707,-2.8378907 -0.62797,-1.2498238 -1.28419,-2.4852158 -1.86524,-3.7578118 -0.12208,-0.267376 -0.23336,-0.514967 -0.33789,-0.765625 z" id="path1141" />
      </g>
      <path id="path1139" d="m -103.28125,14.710938 c 0.11177,0.106296 0.22417,0.212063 0.33594,0.318359 -0.0538,-0.05287 -0.0931,-0.11857 -0.13477,-0.181641 0.15059,0.105156 0.31931,0.182929 0.49024,0.25586 -0.0814,-0.05021 -0.19987,-0.119942 -0.29883,-0.179688 -0.053,-0.0193 -0.085,-0.04305 -0.11328,-0.06836 -0.0502,-0.02998 -0.0765,-0.04761 -0.13477,-0.08203 0.016,0.02655 0.0377,0.0485 0.0547,0.07422 -0.0177,-0.0124 -0.0384,-0.05337 -0.0586,-0.07617 -0.0838,-0.04946 -0.0974,-0.0611 -0.19336,-0.117187 -0.0221,-0.01289 0.0472,0.04717 0.0527,0.05664 z" style="fill:none;stroke:#302b00;stroke-width:2;stroke-miterlimit:4;stroke-dasharray:none;stroke-dashoffset:0" />
      <path id="path1137" d="m -103.14062,14.771488 c 0.002,9.53e-4 0.002,10e-4 0.004,0.002 -0.0144,-0.02395 -0.0307,-0.04629 -0.0449,-0.07031 0.0268,0.03792 0.0141,0.03799 0.041,0.06836 z" style="fill:none;stroke:#302b00;stroke-width:2;stroke-miterlimit:4;stroke-dasharray:none;stroke-dashoffset:0" />
      <path id="path1133" d="m -115.85547,-0.01952725 c 0.0126,0.0063088 0.0236,0.01546976 0.0371,0.01953125 0.008,0.00246765 0.0136,0.00139851 0.0254,0.00390625 -0.003,-0.004376989 -0.005,-0.00929689 -0.008,-0.01367188 -0.0186,-0.00289288 -0.0395,-0.00764062 -0.0547,-0.00976562 z" style="fill:none;stroke:#302b00;stroke-width:2;stroke-miterlimit:4;stroke-dasharray:none;stroke-dashoffset:0" />
      <path id="path1131" d="m -105.2168,13.041016 c -0.0695,-0.0058 -0.0831,0.01165 -0.11132,0.02344 0.007,0.02067 0.006,0.03938 0.0625,0.07813 0.0818,0.05643 0.17051,0.120702 0.26953,0.128906 0.0695,0.0058 0.20735,-0.0085 0.29297,-0.0293 -0.0172,-0.0294 -0.0254,-0.05001 -0.0391,-0.07422 -0.2073,-0.07012 -0.38173,-0.11921 -0.47461,-0.126953 z" style="fill:none;stroke:#302b00;stroke-width:2;stroke-miterlimit:4;stroke-dasharray:none;stroke-dashoffset:0" />
      <path id="path4042-3-2-8" d="m -97.238281,19.302734 c -0.04176,-0.03525 -0.02863,-0.02013 0.08203,0.08594 0.02278,0.01426 0.04552,0.02879 0.06836,0.04297 -0.05616,-0.04811 -0.125613,-0.107995 -0.15039,-0.128907 z" style="fill:none;stroke:#302b00;stroke-width:2;stroke-miterlimit:4;stroke-dasharray:none;stroke-dashoffset:0" />
    </g>
    <ellipse cy="24.203362" cx="-16.398699" style="color:#000000;display:block;visibility:visible;fill:url(#radialGradient4440);fill-opacity:1;fill-rule:nonzero;stroke:none;stroke-width:0.85062206;marker:none" id="path12511" transform="matrix(-0.99872946,-0.05039302,-0.05039302,0.99872946,0,0)" rx="8" ry="11.961311" />
    <ellipse ry="5.8596506" rx="27.434761" cy="-11.644531" cx="-45.06081" style="fill:#fce94f;stroke:#302b00;stroke-width:2.1268518;stroke-linecap:round;stroke-linejoin:round;stroke-miterlimit:4.5;stroke-dasharray:none;stroke-dashoffset:20.39999962;stroke-opacity:1" id="path2994" transform="matrix(-0.66077367,-0.75058521,-0.75058521,0.66077367,0,0)" />
    <g id="g929" transform="translate(1.7844006,-0.37678835)">
      <path id="path2672" d="M 29.13582,18.494191 42.26632,6.9348259 47.145866,12.477594 33.796524,24.229615 C 31.270776,23.145378 29.410249,21.35914 29.13582,18.494191 Z" style="fill:#729fcf;stroke:#0b1521;stroke-width:2;stroke-linecap:butt;stroke-linejoin:round;stroke-miterlimit:4;stroke-dasharray:none;stroke-opacity:1" />
      <ellipse transform="matrix(-0.66077367,-0.75058521,-0.75058521,0.66077367,0,0)" ry="2.3864655" rx="3.6330051" cy="-27.219051" cx="-36.860275" id="path2725" style="opacity:1;fill:#729fcf;fill-opacity:1;fill-rule:nonzero;stroke:#0b1521;stroke-width:2;stroke-linejoin:round;stroke-miterlimit:4;stroke-dasharray:none" />
      <path id="path2727" d="m 38.051112,16.763386 1.269735,-4.485794 -3.928998,0.919075" style="fill:none;stroke:#0b1521;stroke-width:2;stroke-linecap:round;stroke-linejoin:round;stroke-miterlimit:4;stroke-dasharray:none;stroke-opacity:1" />
      <path id="path2727-5" d="m 33.289904,21.032974 1.269732,-4.485794 -3.928998,0.919076" style="fill:none;stroke:#0b1521;stroke-width:2;stroke-linecap:round;stroke-linejoin:round;stroke-miterlimit:4;stroke-dasharray:none;stroke-opacity:1" />
      <path id="path2672-0" d="M 39.632328,28.739999 52.526725,17.388486 57.125796,22.612657 44.016493,34.153362 C 41.715452,33.03536 39.914754,31.527247 39.632328,28.739999 Z" style="fill:#729fcf;stroke:#0b1521;stroke-width:2;stroke-linecap:butt;stroke-linejoin:round;stroke-miterlimit:4;stroke-dasharray:none;stroke-opacity:1" />
      <ellipse transform="matrix(-0.66077367,-0.75058521,-0.75058521,0.66077367,0,0)" ry="2.330615" rx="3.4292362" cy="-27.36412" cx="-51.272247" id="path2725-7" style="opacity:1;fill:#729fcf;fill-opacity:1;fill-rule:nonzero;stroke:#0b1521;stroke-width:2;stroke-linejoin:round;stroke-miterlimit:4;stroke-dasharray:none" />
      <path id="path2727-3" d="m 48.267466,26.904181 1.312881,-4.330186 -3.808594,0.959064" style="fill:none;stroke:#0b1521;stroke-width:2;stroke-linecap:round;stroke-linejoin:round;stroke-miterlimit:4;stroke-dasharray:none;stroke-opacity:1" />
      <path id="path2727-5-4" d="m 43.59034,31.095258 1.312882,-4.330187 -3.808597,0.959067" style="fill:none;stroke:#0b1521;stroke-width:2;stroke-linecap:round;stroke-linejoin:round;stroke-miterlimit:4;stroke-dasharray:none;stroke-opacity:1" />
    </g>
    <path style="fill:none;stroke:#fce94f;stroke-width:2;stroke-linecap:butt;stroke-linejoin:miter;stroke-miterlimit:4;stroke-dasharray:none;stroke-opacity:1" d="M 53.432979,48.750319 C 45.75619,46.435326 23.315662,25.197958 17.744599,8.2386998" id="path3485" />
  </g>
</svg>
