<?xml version="1.0" encoding="UTF-8" standalone="no"?>
<!-- Created with Inkscape (http://www.inkscape.org/) -->

<svg width="64px" height="64px" id="svg2860" version="1.1" xmlns:xlink="http://www.w3.org/1999/xlink" xmlns="http://www.w3.org/2000/svg" xmlns:svg="http://www.w3.org/2000/svg" xmlns:rdf="http://www.w3.org/1999/02/22-rdf-syntax-ns#" xmlns:cc="http://creativecommons.org/ns#" xmlns:dc="http://purl.org/dc/elements/1.1/">
  <defs id="defs2862">
    <linearGradient id="linearGradient3377">
      <stop id="stop3379" offset="0" style="stop-color:#faff2b;stop-opacity:1" />
      <stop id="stop3381" offset="1" style="stop-color:#ffaa00;stop-opacity:1" />
    </linearGradient>
    <radialGradient xlink:href="#linearGradient3377" id="radialGradient3796" gradientUnits="userSpaceOnUse" gradientTransform="matrix(1.3852588,-0.05136783,0.03705629,0.9993132,-60.392403,7.7040438)" cx="148.88333" cy="81.869568" fx="148.88333" fy="81.869568" r="19.467436" />
    <radialGradient xlink:href="#linearGradient3377" id="radialGradient3798" gradientUnits="userSpaceOnUse" gradientTransform="matrix(0.97435,0.2250379,-0.4623105,2.0016728,48.487554,-127.99883)" cx="135.38333" cy="97.369568" fx="135.38333" fy="97.369568" r="19.467436" />
    <radialGradient xlink:href="#linearGradient3377" id="radialGradient3800" gradientUnits="userSpaceOnUse" cx="45.883327" cy="28.869568" fx="45.883327" fy="28.869568" r="19.467436" />
  </defs>
  <metadata id="metadata2865">
    <rdf:RDF>
      <cc:Work rdf:about="">
        <dc:format>image/svg+xml</dc:format>
        <dc:type rdf:resource="http://purl.org/dc/dcmitype/StillImage" />
      </cc:Work>
    </rdf:RDF>
  </metadata>
  <g id="layer1">
    <g id="g3618" transform="matrix(1.0397292,0,0,1.0404622,-134.8923,-73.969969)">
      <path style="opacity:0.66523605;fill:#000000;fill-opacity:1;fill-rule:evenodd;stroke:none;stroke-width:1.07586193;marker:none;visibility:visible;display:inline;overflow:visible;enable-background:accumulate" d="m 164.25407,125.89934 21.50437,-5.36633 5.55806,-5.36631 -9.85894,-1.43102 -17.20349,12.16366 z" id="path3546" />
      <path style="fill:url(#radialGradient3796);fill-opacity:1;fill-rule:evenodd;stroke:#7b5600;stroke-width:2.20000005;stroke-linecap:butt;stroke-linejoin:round;stroke-miterlimit:4;stroke-opacity:1;stroke-dasharray:none;stroke-dashoffset:0;marker:none;visibility:visible;display:inline;overflow:visible;enable-background:accumulate" d="m 152.88222,77.612314 -19.81441,7.17921 30.49556,4.148871 0.42548,35.773095 16.10976,-10.59033 0.57587,-34.384848 -27.79226,-2.125998 z" id="rect3522" />
      <path style="fill:url(#radialGradient3798);fill-opacity:1;fill-rule:evenodd;stroke:#7b5600;stroke-width:2.20000005;stroke-linecap:butt;stroke-linejoin:round;stroke-miterlimit:4;stroke-opacity:1;stroke-dasharray:none;stroke-dashoffset:0;marker:none;visibility:visible;display:inline;overflow:visible;enable-background:accumulate" d="m 133.33785,84.998317 30.70884,3.365615 0,36.477188 -31.12383,-5.06478 0.41499,-34.778023 z" id="rect3520" />
      <path style="fill:url(#radialGradient3800);fill-opacity:1;fill-rule:evenodd;stroke:#7b5600;stroke-width:2.20000005;stroke-linecap:butt;stroke-linejoin:round;stroke-miterlimit:4;stroke-opacity:1;stroke-dasharray:none;stroke-dashoffset:0;marker:none;visibility:visible;display:inline;overflow:visible;enable-background:accumulate" d="m 163.81279,88.408895 16.72598,-8.4088" id="path3536" />
    </g>
    <path style="fill:#ff0000;fill-opacity:1" d="m 25.636638,28.300774 -2.17233,-0.278369 0.0497,-2.035061 c 0.02734,-1.119284 0.06668,-2.052038 0.08743,-2.072787 0.02075,-0.02075 1.059006,0.07188 2.307237,0.20584 l 2.26951,0.243567 -0.02661,1.186681 c -0.04622,2.061388 -0.123643,3.051273 -0.237717,3.039408 -0.05769,-0.006 -1.082437,-0.136175 -2.277218,-0.289279 z" id="path3413" />
    <path style="fill:#ff0000;fill-opacity:1" d="m 30.308967,28.884782 -1.136363,-0.147455 0.03421,-2.090909 c 0.01882,-1.15 0.04678,-2.10524 0.06215,-2.122755 0.0428,-0.04879 2.293489,0.191043 2.397799,0.25551 0.131638,0.08136 0.01127,4.280364 -0.122251,4.2647 -0.05455,-0.0064 -0.610548,-0.07799 -1.235548,-0.159091 z" id="path3415" />
    <path style="fill:#ff0000;fill-opacity:1" d="m 33.627149,29.282781 -0.818182,-0.09091 0.01093,-2.116989 c 0.006,-1.164344 0.03241,-2.138472 0.05867,-2.164728 0.04399,-0.04399 1.535473,0.12921 1.591022,0.184759 0.0135,0.01351 0.01357,0.981755 1.55e-4,2.151666 l -0.02441,2.12711 -0.818182,-0.09091 z" id="path3417" />
    <path style="fill:#ff0000;fill-opacity:1" d="m 33.508637,36.736684 c -0.465182,-0.06334 -0.868981,-0.138365 -0.89733,-0.166715 -0.09909,-0.09909 0.07771,-6.241733 0.179652,-6.241733 0.05313,0 0.457329,0.04626 0.898215,0.102802 l 0.801612,0.102803 0,3.169925 c 0,1.743458 -0.03068,3.165011 -0.06818,3.159007 -0.0375,-0.006 -0.448785,-0.06274 -0.913967,-0.126089 z" id="path3419" />
    <path style="fill:#ff0000;fill-opacity:1" d="m 31.508508,34.555508 c 0.0019,-0.15 0.02223,-0.200357 0.04528,-0.111906 0.02305,0.08845 0.02153,0.211179 -0.0034,0.272728 -0.0249,0.06155 -0.04376,-0.01082 -0.04191,-0.160822 z" id="path3421" />
    <path style="fill:#ff0000;fill-opacity:1" d="m 30.172604,36.337669 -1.181818,-0.147595 -0.02604,-0.680919 c -0.0314,-0.821235 0.116544,-5.529 0.175612,-5.588069 0.02297,-0.02297 0.581667,0.02526 1.241549,0.107176 l 1.199787,0.148939 0,0.969887 c 0,1.717791 -0.118303,5.363356 -0.173632,5.350571 -0.0295,-0.0068 -0.585459,-0.07881 -1.235459,-0.15999 z" id="path3423" />
    <path style="fill:#ff0000;fill-opacity:1" d="m 25.494748,35.769749 c -1.172821,-0.146807 -2.14949,-0.28401 -2.170376,-0.304896 -0.02089,-0.02089 -0.0076,-1.454305 0.02947,-3.185375 l 0.06744,-3.147399 0.193844,0.04497 c 0.106614,0.02473 1.149285,0.160287 2.317046,0.301234 l 2.123203,0.256268 -0.05388,1.001389 c -0.02963,0.550764 -0.08023,1.972981 -0.112442,3.160481 -0.04083,1.505285 -0.08935,2.156238 -0.160232,2.149671 -0.05592,-0.0052 -1.06125,-0.129534 -2.234071,-0.27634 z" id="path3425" />
    <path style="fill:#ff0000;fill-opacity:1" d="" id="path3427" />
    <path style="fill:#ff0000;fill-opacity:1" d="m 25.854422,23.05005 c -1.225,-0.140624 -2.243638,-0.258288 -2.26364,-0.261474 -0.03689,-0.0059 0.07122,-2.207314 0.110322,-2.246416 0.01169,-0.01169 1.04302,0.0894 2.291836,0.224662 l 2.270573,0.245924 -0.0045,0.339563 c -0.01883,1.40679 -0.05035,1.974369 -0.10909,1.964674 -0.0375,-0.0062 -1.070455,-0.126309 -2.295455,-0.266933 z" id="path3429" />
    <path style="fill:#ff0000;fill-opacity:1" d="m 30.854422,23.594759 c -0.325,-0.04073 -0.805682,-0.09985 -1.068182,-0.131377 l -0.477273,-0.05732 0.0014,-1.016186 c 7.65e-4,-0.558902 0.03571,-1.070313 0.07766,-1.136469 0.06311,-0.09954 0.275362,-0.09735 1.231013,0.01271 0.635112,0.07315 1.175599,0.153841 1.201083,0.179325 0.02548,0.02548 0.01738,0.541355 -0.01801,1.146383 -0.05444,0.930727 -0.08685,1.098275 -0.210556,1.088521 -0.08042,-0.0063 -0.412122,-0.04485 -0.737122,-0.08559 z" id="path3431" />
    <path style="fill:#ff0000;fill-opacity:1" d="m 33.627149,23.902359 c -0.780905,-0.06803 -0.772727,-0.06063 -0.772727,-0.698883 0,-0.316713 0.02648,-0.829224 0.05885,-1.138912 0.05708,-0.546121 0.06597,-0.561744 0.295454,-0.519 0.130131,0.02424 0.471829,0.07002 0.759329,0.101731 l 0.522728,0.05766 0,1.129822 0,1.129822 -0.25,-0.01528 c -0.1375,-0.0084 -0.413637,-0.02954 -0.613637,-0.04696 z" id="path3433" />
    <path style="fill:#ff0000;fill-opacity:1" d="m 33.139559,54.323338 c -0.518174,-0.09199 -0.958794,-0.18391 -0.979155,-0.204272 -0.04131,-0.0413 0.339271,-16.272086 0.382743,-16.3232 0.01514,-0.0178 0.459555,0.01883 0.987585,0.08141 l 0.960054,0.113779 0,8.2595 0,8.259501 -0.204546,-0.0097 c -0.1125,-0.0054 -0.628506,-0.08499 -1.146681,-0.176983 z" id="path3435" />
    <path style="fill:#ff0000;fill-opacity:1" d="m 29.656015,53.751295 c -0.634124,-0.107683 -1.179229,-0.22271 -1.211345,-0.255617 -0.05337,-0.05468 0.396582,-16.087621 0.453189,-16.148441 0.03472,-0.03731 2.447941,0.261626 2.496291,0.309223 0.04274,0.04207 -0.233297,12.62551 -0.327331,14.921776 -0.03794,0.926509 -0.09012,1.383458 -0.157312,1.377604 -0.0553,-0.0048 -0.619368,-0.09686 -1.253492,-0.204545 z" id="path3437" />
    <path style="fill:#ff0000;fill-opacity:1" d="m 24.929066,52.97975 c -1.083946,-0.183332 -1.996815,-0.359837 -2.028597,-0.392232 -0.04707,-0.04798 0.269744,-14.527493 0.341912,-15.626564 l 0.02113,-0.321827 2.227273,0.265274 c 1.225,0.145901 2.244754,0.280932 2.266121,0.30007 0.04003,0.03585 -0.314976,12.770881 -0.415893,14.919219 -0.05408,1.151177 -0.0651,1.20421 -0.24886,1.196969 -0.105752,-0.0042 -1.079142,-0.157576 -2.163088,-0.340909 z" id="path3439" />
    <path style="fill:#ff0000;fill-opacity:1" d="m 10.354422,18.004338 c -2.85,-0.316215 -5.2590349,-0.577244 -5.3534109,-0.580065 -0.1597863,-0.0048 -0.1671578,-0.05978 -0.1071372,-0.799506 0.03545,-0.436908 0.073804,-0.803727 0.08523,-0.815153 0.017319,-0.01732 10.9827768,1.168732 11.0258728,1.192585 0.0078,0.0043 0.05068,0.365809 0.09527,0.803309 l 0.08108,0.795455 -0.322541,-0.01084 c -0.177398,-0.006 -2.65436,-0.269566 -5.50436,-0.585781 z" id="path3441" />
    <path style="fill:#ff0000;fill-opacity:1" d="m 19.990786,19.04926 c -1.25,-0.141276 -2.344319,-0.259028 -2.431819,-0.261672 -0.139456,-0.0042 -0.15909,-0.10647 -0.15909,-0.828559 l 0,-0.823752 0.386363,0.05232 c 0.739768,0.100183 4.439329,0.504271 4.616775,0.504271 0.164398,0 0.17868,0.0654 0.17868,0.818182 0,0.722826 -0.01854,0.816893 -0.159091,0.807126 -0.0875,-0.0061 -1.181818,-0.126645 -2.431818,-0.26792 z" id="path3443" />
    <path style="fill:#ff0000;fill-opacity:1" d="m 25.899877,19.689094 c -1.2,-0.138868 -2.192046,-0.256416 -2.204546,-0.261218 -0.0125,-0.0048 -0.02273,-0.356458 -0.02273,-0.781458 0,-0.674804 0.02016,-0.772901 0.159091,-0.774095 0.163683,-0.0014 4.518397,0.469925 4.528191,0.490108 0.003,0.0062 -0.01142,0.369214 -0.03206,0.806714 -0.02479,0.525487 -0.07292,0.791548 -0.141828,0.783945 -0.05737,-0.0063 -1.086125,-0.125128 -2.286125,-0.263996 z" id="path3445" />
    <path style="fill:#ff0000;fill-opacity:1" d="m 30.490786,20.187732 c -0.525,-0.06332 -0.985228,-0.118978 -1.022728,-0.123678 -0.0375,-0.0047 -0.06818,-0.356273 -0.06818,-0.781273 0,-0.900664 -0.152802,-0.829183 1.421673,-0.665063 l 1.032872,0.107665 0,0.801426 c 0,0.927033 0.167911,0.845651 -1.363636,0.660923 z" id="path3447" />
    <path style="fill:#ff0000;fill-opacity:1" d="m 33.445331,20.518499 -0.454545,-0.0539 -0.02646,-0.808795 -0.02646,-0.808795 0.562524,0.05879 c 0.309388,0.03234 0.658796,0.05879 0.776461,0.05879 0.208797,0 0.213938,0.01966 0.213938,0.818182 l 0,0.818182 -0.295455,-0.01428 c -0.1625,-0.0079 -0.5,-0.03854 -0.75,-0.06818 z" id="path3449" />
    <path style="fill:#ff0000;fill-opacity:1" d="m 31.12862,54.12369 c 8.18e-4,-0.5125 0.08197,-4.081818 0.180347,-7.931818 0.09838,-3.85 0.179539,-7.368954 0.180348,-7.819899 l 0.0015,-0.819899 -1.333602,-0.157106 c -0.733481,-0.08641 -1.341217,-0.146998 -1.350526,-0.134646 -0.01891,0.0251 -0.504829,16.398342 -0.500464,16.863368 l 0.0028,0.295455 -0.477928,0 -0.477927,0 0.02209,-0.386364 c 0.0897,-1.568916 0.488166,-16.816812 0.440702,-16.864275 -0.06319,-0.06319 -3.896055,-0.556969 -4.375307,-0.563666 l -0.27746,-0.0039 -0.157808,6.477273 c -0.08679,3.5625 -0.18322,7.367045 -0.214279,8.454545 l -0.05647,1.977273 -0.486062,0 -0.486063,0 0.04773,-0.75 c 0.06392,-1.004276 0.431641,-16.256556 0.392868,-16.295225 -0.03623,-0.03613 -5.286285,-0.684789 -5.311598,-0.65626 -0.02002,0.02256 -0.404609,14.796302 -0.402235,15.451485 l 0.0016,0.431818 -0.477273,7e-5 -0.477273,7.1e-5 0.02422,-0.84098 c 0.16613,-5.768129 0.377384,-15.106041 0.342536,-15.140889 -0.02471,-0.02471 -2.653705,-0.363636 -5.842207,-0.753164 -3.1885025,-0.389528 -5.8075044,-0.710802 -5.8200044,-0.713943 -0.04281,-0.01076 -0.02275,-0.437413 0.033878,-0.720553 0.046219,-0.231096 0.092088,-0.274823 0.25,-0.238326 0.1063674,0.02459 2.586577,0.33109 5.5115768,0.681121 2.925,0.350031 5.447235,0.657831 5.604966,0.683999 l 0.286783,0.04758 0.05205,-0.843402 c 0.02863,-0.463871 0.07693,-1.928198 0.107324,-3.254061 l 0.05527,-2.410658 -5.757744,-0.708456 C 7.218134,27.090631 4.5094707,26.749448 4.3656413,26.722098 4.1095706,26.673405 4.105259,26.662866 4.1582728,26.215248 c 0.029777,-0.251419 0.065637,-0.466429 0.07969,-0.477801 0.014053,-0.01137 2.6735723,0.308652 5.9100434,0.711168 3.236471,0.402515 5.916017,0.700365 5.954546,0.661889 0.07686,-0.07676 0.188968,-4.056046 0.115506,-4.099872 -0.025,-0.01491 -2.653331,-0.307509 -5.840737,-0.650211 L 4.5820391,21.737327 4.5818669,21.403853 c -2.435e-4,-0.471688 0.068159,-0.59949 0.2998369,-0.560208 0.3089153,0.05238 11.0880852,1.211476 11.2681732,1.211682 0.143541,1.63e-4 0.15909,-0.117875 0.15909,-1.207724 l 0,-1.207905 -5.65909,-0.61237 C 7.5373765,18.690524 4.8966023,18.4159 4.7814893,18.417051 c -0.1955854,0.002 -0.2074962,-0.02917 -0.1818182,-0.475179 0.025826,-0.448578 0.041142,-0.475853 0.2547509,-0.453657 0.125,0.01299 2.6818182,0.28909 5.681818,0.613558 3,0.324468 5.546591,0.589978 5.659091,0.590021 0.202471,7.7e-5 0.204546,-0.01295 0.204546,-1.284013 l 0,-1.284091 0.28409,0.05682 c 0.15625,0.03125 0.380048,0.05682 0.497327,0.05682 l 0.213235,0 -0.05603,1.297397 -0.05604,1.297398 2.399619,0.254766 c 1.31979,0.140121 2.532572,0.276754 2.695072,0.303629 l 0.295455,0.04886 0,-1.055572 c 0,-1.180177 -0.02417,-1.14677 0.721705,-0.997595 l 0.289888,0.05798 -0.06316,1.025576 -0.06316,1.025576 0.398269,0.05269 c 0.219047,0.02898 1.175541,0.134333 2.125541,0.234119 0.95,0.09979 1.860227,0.199541 2.022727,0.221677 l 0.295455,0.04025 0,-0.903375 0,-0.903375 0.494903,0 0.494904,0 -0.05406,0.954545 c -0.04436,0.783318 -0.03121,0.954687 0.07328,0.955336 0.07003,4.36e-4 0.638697,0.06144 1.263697,0.135573 0.625,0.07413 1.167045,0.135139 1.204545,0.135574 0.0375,4.34e-4 0.06818,-0.387847 0.06818,-0.862847 l 0,-0.863636 0.480486,0 0.480486,0 -0.03603,0.897081 -0.03603,0.89708 0.305546,0.05347 c 0.16805,0.02941 0.604399,0.08123 0.969664,0.115162 0.52657,0.04891 0.653664,0.08893 0.613637,0.193245 -0.02777,0.07236 -0.05048,0.276199 -0.05048,0.452984 l 0,0.321427 -0.704546,-0.06314 c -0.3875,-0.03473 -0.791171,-0.08352 -0.897046,-0.108422 -0.186163,-0.04379 -0.194678,-0.0059 -0.258603,1.149919 -0.03636,0.65736 -0.04855,1.212752 -0.02709,1.234206 0.02145,0.02145 0.473638,0.08646 1.004854,0.144467 l 0.965849,0.10546 -0.05451,0.417166 c -0.02998,0.229441 -0.06826,0.433261 -0.08505,0.452933 -0.0168,0.01967 -0.428511,-0.0094 -0.914925,-0.06469 -0.486413,-0.05525 -0.895623,-0.08922 -0.909355,-0.07549 -0.05197,0.05197 -0.145998,4.4226 -0.09515,4.4226 0.07891,0 1.431156,0.176846 1.75512,0.229533 0.254543,0.0414 0.27646,0.07178 0.245071,0.339783 -0.08586,0.733052 0.0017,0.686651 -1.041275,0.552067 -0.511582,-0.06602 -0.957767,-0.08965 -0.991524,-0.05252 -0.03376,0.03713 -0.08995,1.489095 -0.124882,3.226595 -0.05228,2.600516 -0.04211,3.1596 0.05751,3.161971 0.06656,0.0016 0.550559,0.06165 1.075559,0.133484 0.525,0.07183 1.009521,0.131899 1.076713,0.133483 0.09478,0.0022 0.10776,0.109869 0.0579,0.480153 -0.03535,0.2625 -0.07063,0.484856 -0.07841,0.494125 -0.0078,0.0093 -0.500954,-0.04316 -1.095938,-0.116511 -0.594984,-0.07335 -1.109637,-0.101388 -1.143673,-0.06231 -0.03404,0.03908 -0.130728,3.118784 -0.214869,6.843784 -0.08414,3.725 -0.178544,7.601136 -0.209784,8.613636 l -0.0568,1.840909 -0.440296,0 -0.440297,0 0.0015,-0.931818 -2e-6,0 z m 0.49545,-20.758918 c 0.03688,-1.729904 0.03221,-3.176053 -0.01038,-3.213662 -0.08213,-0.07251 -2.499866,-0.385303 -2.554666,-0.330502 -0.05323,0.05323 -0.234883,6.325827 -0.184651,6.37606 0.06413,0.06413 1.749663,0.28955 2.263165,0.30267 l 0.419475,0.01072 0.06706,-3.145282 z m -3.700501,2.092582 c 0.09555,-2.537133 0.176656,-5.726777 0.146446,-5.759263 -0.06024,-0.06477 -4.679618,-0.610253 -4.710005,-0.556184 -0.01544,0.02748 -0.05707,1.483378 -0.09249,3.235327 l -0.06441,3.185363 2.257478,0.279151 c 1.241613,0.153533 2.298387,0.271405 2.348387,0.261938 0.05,-0.0095 0.101571,-0.300317 0.114602,-0.646332 z M 22.255322,35.12369 c 0.02503,-0.1625 0.07105,-1.609608 0.10228,-3.215795 l 0.05678,-2.92034 -0.302706,-0.05232 c -0.665624,-0.115042 -4.993357,-0.628437 -5.025178,-0.596132 -0.04625,0.04695 -0.176559,6.441614 -0.131471,6.451581 0.154408,0.03413 4.817765,0.609085 5.008915,0.617559 0.210501,0.0093 0.252428,-0.03161 0.291383,-0.284555 z m 9.530441,-8.269073 0.04309,-2.155438 -0.37358,-0.04813 c -1.232874,-0.158818 -2.170028,-0.238494 -2.219796,-0.188726 -0.05714,0.05714 -0.21284,4.246248 -0.159792,4.299296 0.06211,0.06211 2.555667,0.349799 2.609219,0.30103 0.03177,-0.02893 0.07715,-1.022547 0.100855,-2.208037 z m -3.615824,0.450891 c 0.03406,-0.7625 0.0486,-1.752623 0.0323,-2.200274 l -0.02963,-0.813911 -2.311843,-0.253034 c -1.271514,-0.139168 -2.323793,-0.241085 -2.338397,-0.22648 -0.0146,0.0146 -0.03791,0.984828 -0.05179,2.156053 l -0.02524,2.129501 2.227273,0.286421 c 1.225,0.157531 2.274102,0.291295 2.331338,0.297254 0.07168,0.0075 0.12334,-0.420653 0.165997,-1.37553 z m -5.672861,-1.477272 c 0.02846,-1.15 0.04181,-2.104837 0.02966,-2.12186 -0.04799,-0.06724 -5.219742,-0.588287 -5.276433,-0.531596 -0.03332,0.03332 -0.08028,0.981477 -0.104348,2.107018 -0.03645,1.704304 -0.02268,2.04714 0.08235,2.050643 0.06936,0.0023 1.1693,0.141694 2.4443,0.309735 1.275,0.168041 2.420454,0.299102 2.545454,0.291249 l 0.227273,-0.01428 0.05175,-2.090909 z m 9.378859,-3.25 c 0.02511,-0.6625 0.04076,-1.211223 0.03479,-1.219384 -0.02918,-0.03989 -2.542298,-0.302202 -2.575657,-0.268843 -0.0212,0.0212 -0.06214,0.568865 -0.09096,1.217026 l -0.05241,1.178474 1.081362,0.108784 c 0.59475,0.05983 1.142727,0.121973 1.217727,0.138091 0.075,0.01612 0.18207,0.03405 0.237933,0.03985 0.06821,0.0071 0.116564,-0.385096 0.147218,-1.194 z m -3.548648,-0.409091 c 0.02036,-0.6375 0.02761,-1.173094 0.01611,-1.190209 -0.0227,-0.03379 -4.703197,-0.560783 -4.724169,-0.531911 -0.007,0.0097 -0.0403,0.55962 -0.07395,1.22212 -0.05677,1.117716 -0.04947,1.204915 0.101252,1.209669 0.08934,0.0028 0.960159,0.10022 1.935159,0.21645 0.975,0.116229 1.983293,0.216196 2.240652,0.222148 l 0.467925,0.01082 0.03702,-1.159091 z m -5.727518,-0.590909 c 0.01998,-0.6625 0.03008,-1.215607 0.02243,-1.229126 -0.03154,-0.05576 -5.23139,-0.587565 -5.279044,-0.53991 -0.02852,0.02852 -0.0581,0.576285 -0.06575,1.217261 l -0.0139,1.165411 2.545454,0.284776 c 1.4,0.156627 2.592483,0.289582 2.649962,0.295455 0.07239,0.0074 0.115672,-0.359458 0.140842,-1.193867 z" id="path3451" />
    <path style="fill:#ff0000;fill-opacity:1" d="m 19.990786,22.412896 c -1.25,-0.141275 -2.364773,-0.259028 -2.477273,-0.261671 -0.1998,-0.0047 -0.204513,-0.02854 -0.203153,-1.027535 7.65e-4,-0.5625 0.03864,-1.081596 0.08417,-1.153546 0.07125,-0.112606 0.432149,-0.09221 2.59208,0.146502 1.380118,0.152527 2.52522,0.293237 2.544672,0.312689 0.08822,0.08822 -0.07349,2.261848 -0.167505,2.251481 -0.05514,-0.0061 -1.122987,-0.126645 -2.372987,-0.26792 z" id="path3453" />
    <path style="fill:#ff0000;fill-opacity:1" d="m 10.354422,21.368367 c -2.85,-0.316643 -5.2534091,-0.577936 -5.3409091,-0.58065 -0.1427671,-0.0044 -0.1590909,-0.121535 -0.1590909,-1.141299 0,-1.021228 0.016119,-1.136475 0.1590909,-1.13746 0.1738248,-0.0012 11.2488811,1.195601 11.2517841,1.215896 9.81e-4,0.0069 -0.01267,0.513609 -0.03034,1.126109 l -0.03213,1.113636 -0.333295,-0.01026 c -0.183313,-0.0056 -2.665114,-0.269331 -5.515114,-0.585974 z" id="path3455" />
    <path style="fill:#ff0000;fill-opacity:1" d="m 12.354422,26.648137 c -1.65,-0.213745 -2.9433874,-0.393618 -2.8741942,-0.399719 0.1775645,-0.01566 0.085467,-2.572489 -0.1195688,-3.319483 -0.080866,-0.294615 -0.1288288,-0.553865 -0.1065836,-0.57611 0.034889,-0.03489 6.9134926,0.694127 6.9214816,0.73356 0.0016,0.008 -0.01883,0.894123 -0.04545,1.969123 l -0.04841,1.954546 -0.363637,0.01336 c -0.2,0.0073 -1.713636,-0.161527 -3.363636,-0.375272 z" id="path3457" />
    <path style="fill:#ff0000;fill-opacity:1" d="m 19.627149,27.55079 c -1.3,-0.166791 -2.376774,-0.305553 -2.392831,-0.30836 -0.06411,-0.01121 0.03405,-3.904251 0.10011,-3.970141 0.07145,-0.07126 4.911231,0.413318 5.054872,0.506115 0.04242,0.02741 0.05648,0.960059 0.03124,2.072559 -0.04509,1.987075 -0.04928,2.022554 -0.237825,2.012905 -0.105561,-0.0054 -1.255566,-0.146287 -2.555566,-0.313078 z" id="path3459" />
    <path style="fill:#ff0000;fill-opacity:1" d="m 6.8285624,25.967795 c -1.0892228,-0.138537 -2.0014542,-0.272934 -2.027181,-0.298661 -0.025727,-0.02573 -0.01805,-0.890226 0.017059,-1.92111 0.057175,-1.678775 0.079967,-1.874334 0.2184492,-1.874334 0.2046626,0 3.5115047,0.350637 3.8703874,0.410392 0.2511351,0.04181 0.2923937,0.09591 0.3986351,0.522671 0.065179,0.261815 0.1382425,1.140801 0.1623636,1.953301 l 0.043857,1.477273 -0.3515827,-0.0088 C 8.9671796,26.22365 7.9177852,26.106331 6.8285624,25.967795 Z" id="path3461" />
  </g>
  <g id="layer4" style="display:inline" />
  <g id="layer3" style="display:inline">
    <path style="fill:none;stroke:#000000;stroke-width:1.0072062px;stroke-linecap:butt;stroke-linejoin:miter;stroke-opacity:1" d="M 31.557819,55.095516 32.442182,18.691233" id="path3827" />
  </g>
  <g id="layer2" style="display:inline">
    <path style="fill:none;stroke:#000000;stroke-width:1.01197171px;stroke-linecap:butt;stroke-linejoin:miter;stroke-opacity:1" d="M 16.90909,16.163532 15.999999,51.727273" id="path2390" />
    <path style="fill:none;stroke:#000000;stroke-width:1.01808px;stroke-linecap:butt;stroke-linejoin:miter;stroke-opacity:1" d="M 22.272727,53.521224 23.181818,17.338415" id="path2398" />
    <path style="fill:none;stroke:#000000;stroke-width:1.00094008px;stroke-linecap:butt;stroke-linejoin:miter;stroke-opacity:1" d="m 28.909091,18.214435 -1.09091,36.249871" id="path2400" />
    <path style="fill:none;stroke:#000000;stroke-width:0.93599999;stroke-linecap:butt;stroke-linejoin:miter;stroke-miterlimit:0;stroke-dasharray:none;stroke-opacity:1" d="M 51.857946,14.331466 C 51.620885,14.590284 35.874364,21.33264 36.4291,21.759444" id="path2414" />
    <path style="fill:none;stroke:#000000;stroke-width:0.96665049px;stroke-linecap:butt;stroke-linejoin:miter;stroke-opacity:1" d="m 52.296995,17.437871 c -0.239377,0.273576 -16.139686,7.40039 -15.579532,7.851532" id="path2416" />
    <path style="fill:none;stroke:#000000;stroke-width:0.92296326px;stroke-linecap:butt;stroke-linejoin:miter;stroke-opacity:1" d="m 52.046111,23.1433 c -0.230278,0.25926 -15.526268,7.013139 -14.987404,7.440673" id="path2418" />
    <path style="fill:none;stroke:#000000;stroke-width:0.95033991px;stroke-linecap:butt;stroke-linejoin:miter;stroke-opacity:1" d="M 51.486969,29.97517 C 51.261297,30.25565 36.271306,37.562305 36.79939,38.024831" id="path2420" />
    <path style="fill:none;stroke:#000000;stroke-width:0.98783958px;stroke-linecap:butt;stroke-linejoin:miter;stroke-opacity:1" d="M 4.5653466,21.272728 34.727273,24.545455" id="path2424" />
    <path style="fill:none;stroke:#000000;stroke-width:1.06396651px;stroke-linecap:butt;stroke-linejoin:miter;stroke-opacity:1" d="M 34.698111,29.99195 4.1260284,26.202236" id="path2432" />
    <path style="fill:none;stroke:#000000;stroke-width:1.06554103px;stroke-linecap:butt;stroke-linejoin:miter;stroke-opacity:1" d="M 34.830866,37.467229 4.2145887,33.760044" id="path2434" />
    <path style="fill:none;stroke:#000000;stroke-width:0.60029513px;stroke-linecap:butt;stroke-linejoin:miter;stroke-opacity:1" d="M 42.798109,50.359792 43.110982,13.808155" id="path3804" />
    <path id="path3814" d="M 43.513369,13.695189 15.499714,10.759357" style="fill:none;stroke:#000000;stroke-width:0.88814163px;stroke-linecap:butt;stroke-linejoin:miter;stroke-opacity:1" />
    <path style="display:inline;fill:none;stroke:#000000;stroke-width:0.99922836px;stroke-linecap:butt;stroke-linejoin:miter;stroke-opacity:1" d="M 34.909476,7.5450689 C 34.667999,7.8348527 17.580397,14.060776 17.272341,14.72766" id="path2408" />
    <path style="display:inline;fill:none;stroke:#000000;stroke-width:0.98783958px;stroke-linecap:butt;stroke-linejoin:miter;stroke-opacity:1" d="M 4.5554003,17.909091 34.717327,21.181818" id="path2424-3" />
    <path style="display:inline;fill:none;stroke:#000000;stroke-width:0.99922836px;stroke-linecap:butt;stroke-linejoin:miter;stroke-opacity:1" d="M 40.489801,8.1757939 C 40.248324,8.4655777 23.160723,14.691501 22.852667,15.358385" id="path2408-6" />
    <path style="display:inline;fill:none;stroke:#000000;stroke-width:1.01097918px;stroke-linecap:butt;stroke-linejoin:miter;stroke-opacity:1" d="M 46.666997,8.7262375 C 46.425646,9.023032 29.346966,15.399578 29.03907,16.082595" id="path2408-7" />
  </g>
</svg>
