<?xml version="1.0" encoding="UTF-8" standalone="no"?>
<svg width="150.19606mm" height="81.688591mm" viewBox="0 0 150.19606 81.688591" version="1.1" id="svg8" xmlns="http://www.w3.org/2000/svg" xmlns:svg="http://www.w3.org/2000/svg" xmlns:rdf="http://www.w3.org/1999/02/22-rdf-syntax-ns#" xmlns:cc="http://creativecommons.org/ns#" xmlns:dc="http://purl.org/dc/elements/1.1/">
  <defs id="defs2" />
  <metadata id="metadata5">
    <rdf:RDF>
      <cc:Work rdf:about="">
        <dc:format>image/svg+xml</dc:format>
        <dc:type rdf:resource="http://purl.org/dc/dcmitype/StillImage" />
      </cc:Work>
    </rdf:RDF>
  </metadata>
  <g id="layer1" transform="translate(-42.830543,-130.66761)">
    <g id="g3870" transform="matrix(0.60450333,0,0,0.60450333,-48.822136,-76.035117)">
      <g id="g4675">
        <g id="g3848">
          <path style="fill:#ffffff;fill-rule:nonzero" id="path84" d="m 187.10108,400.20227 0.42449,-21.43063 v 0 l -0.23386,0.002 -0.2661,-3.5e-4 -0.22571,-0.003 -0.22146,0.0358 -0.21827,0.0329 -0.17893,0.0298 -0.17646,0.0269 -0.20976,0.0652 -0.1715,0.0198 -0.16973,0.0585 -0.16759,0.096 -0.20339,0.051 -0.16583,0.0886 -0.20126,0.085 -0.20161,0.0804 -0.20091,0.11799 -0.20126,0.15591 -0.20161,0.15094 -0.23917,0.14634 -0.20374,0.18319 -0.20516,0.17823 -0.24272,0.21578 -0.24519,0.25158 -0.21083,0.24661 -0.21366,0.28311 -0.2165,0.3189 -0.21933,0.27142 -0.18638,0.34937 -0.18992,0.34299 -0.15803,0.33662 -0.16228,0.3724 -0.13004,0.36531 17.44157,7.7152 -0.23138,0.64453 -0.27283,0.63885 -0.27709,0.59032 -0.31819,0.58394 -0.32173,0.57826 -0.36248,0.48827 -0.36531,0.52441 -0.36886,0.47658 -0.37169,0.42944 -0.41032,0.42378 -0.4128,0.37666 -0.37807,0.32917 -0.37948,0.32421 -0.41776,0.27744 -0.38161,0.27284 -0.38197,0.26787 -0.38303,0.22146 -0.38304,0.17468 -0.38267,0.17079 -0.34512,0.16654 -0.38126,0.12047 -0.34335,0.15839 -0.34193,0.11303 -0.34015,0.0666 -0.37418,0.1063 -0.3359,0.0602 -0.33272,0.0574 -0.36638,0.0542 -0.36319,0.0514 -0.35964,0.007 -0.39225,0.004 -0.35149,10e-4 v 0 z m -10.46799,-12.95611 18.6548,0.31323 v 0 l -0.001,-0.12543 0.001,-0.12933 0.004,-0.21756 -0.0301,-0.2211 0.01,-0.22536 -0.0613,-0.27106 -0.022,-0.27532 -0.0556,-0.27885 -0.09,-0.36709 -0.12331,-0.37063 -0.0843,-0.37453 -0.15484,-0.42059 -0.18886,-0.42378 -0.22252,-0.47019 -0.21969,-0.43193 -0.29055,-0.43512 -0.32385,-0.43902 -0.32138,-0.44326 -0.39189,-0.44646 -0.4252,-0.40854 -0.42272,-0.37028 -0.41952,-0.2902 -0.45319,-0.29374 -0.41351,-0.25582 -0.44752,-0.21756 -0.44468,-0.17965 -0.405,-0.14173 -0.40287,-0.10347 -0.39898,-0.0652 -0.36036,-0.0698 -0.32066,-0.0315 -0.28134,0.006 -0.42449,21.43063 -0.45,-0.002 -0.48437,-0.0478 -0.51839,-0.0932 -0.55204,-0.0971 -0.54957,-0.14315 -0.54744,-0.18921 -0.58075,-0.23492 -0.57862,-0.28063 -0.53965,-0.3267 -0.57366,-0.3724 -0.53433,-0.37665 -0.53185,-0.46453 -0.52937,-0.51059 -0.49039,-0.55701 -0.41422,-0.5609 -0.41173,-0.56516 -0.37205,-0.56906 -0.29622,-0.57366 -0.29409,-0.61972 -0.25406,-0.58181 -0.21508,-0.58571 -0.13889,-0.54815 -0.17292,-0.55205 -0.13322,-0.5563 -0.0939,-0.47657 -0.0546,-0.48083 -0.0882,-0.48437 -0.0117,-0.44646 -0.0464,-0.4507 -0.006,-0.45496 -0.004,-0.37453 -7.1e-4,-0.37914 v 0 z m 7.47035,-22.73917 16.57276,9.82063 v 0 l -0.35611,0.83303 -0.37984,0.81319 -0.33094,0.83516 -0.35504,0.77244 -0.30685,0.7526 -0.33059,0.7324 -0.2817,0.7122 -0.30614,0.65056 -0.25724,0.67181 -0.28134,0.65161 -0.23244,0.63142 -0.2204,0.56905 -0.24448,0.54922 -0.19524,0.57082 -0.18354,0.50847 -0.17079,0.48862 -0.15874,0.46807 -0.14634,0.40571 -0.13394,0.42732 -0.12153,0.36496 -0.10949,0.34512 -0.0971,0.28276 -0.0847,0.2622 -0.0361,0.24201 -0.0602,0.17929 -0.0117,0.11728 -0.0354,0.0971 0.0128,-0.007 -0.011,-0.0276 0.0369,-0.13252 0.0131,-0.23669 -0.012,-0.29835 -18.6548,-0.31323 0.007,-0.7937 0.0563,-0.77244 0.10559,-0.70866 0.0819,-0.64488 0.1304,-0.66579 0.107,-0.60165 0.15556,-0.62185 0.13181,-0.60024 0.18071,-0.57862 0.15696,-0.59882 0.16866,-0.61937 0.18178,-0.5974 0.19382,-0.61795 0.20622,-0.59599 0.21862,-0.65799 0.23102,-0.63673 0.24307,-0.65658 0.25583,-0.67712 0.26823,-0.65516 0.24378,-0.71717 0.29267,-0.73771 0.30544,-0.71575 0.28134,-0.73595 0.32952,-0.75614 0.30544,-0.8185 0.35468,-0.79654 0.33059,-0.81673 0.37914,-0.83693 0.35504,-0.85677 0.40393,-0.83516 0.37984,-0.89752 0.42839,-0.91736 v 0 z m 18.64772,-22.56838 -0.42449,21.43063 v 0 l 1.52397,-0.12225 1.25504,-0.33803 0.87768,-0.38516 0.61016,-0.39153 0.41598,-0.27142 0.25937,-0.2374 0.13784,-0.16016 0.0549,-0.0425 0.007,-0.009 -0.0765,0.0673 -0.0861,0.14209 -0.13323,0.17539 -0.17964,0.25016 -0.18992,0.32527 -0.19949,0.31536 -0.24555,0.38941 -0.25547,0.42165 -0.26469,0.45319 -0.31039,0.52724 -0.28276,0.55843 -0.32846,0.58961 -0.33768,0.62078 -0.34618,0.65162 -0.35433,0.68208 -0.36319,0.71256 -0.37134,0.78484 -0.37984,0.77245 -0.38729,0.84472 -0.43228,0.87449 -0.40323,0.86173 -0.41067,0.93295 -0.4546,0.96201 -16.57276,-9.82063 0.45461,-1.04634 0.48366,-1.01728 0.47551,-1.03039 0.43157,-0.95811 0.46028,-0.92906 0.45213,-0.9411 0.44433,-0.86918 0.43547,-0.88122 0.42732,-0.85074 0.41847,-0.81957 0.40996,-0.78945 0.40075,-0.75827 0.42874,-0.72708 0.38267,-0.69591 0.40996,-0.70618 0.40075,-0.67465 0.39083,-0.6424 0.41775,-0.65267 0.40819,-0.57827 0.39792,-0.58748 0.42378,-0.59776 0.45035,-0.56445 0.44008,-0.5733 0.50209,-0.58252 0.5283,-0.54922 0.58996,-0.60023 0.68882,-0.60874 0.82347,-0.57544 0.99567,-0.6261 1.2398,-0.55169 1.59449,-0.43441 1.84004,-0.14917 v 0 z m 10.92047,7.32685 -16.93417,9.00496 v 0 l 0.36283,0.82771 0.46488,0.79087 0.45673,0.66968 0.4865,0.59067 0.44327,0.42839 0.40039,0.39083 0.39544,0.31181 0.35326,0.23244 0.34902,0.19453 0.27248,0.15732 0.23244,0.11941 0.22961,0.0808 0.19098,0.0854 0.15272,0.0468 0.15165,0.05 0.11445,0.0539 0.11445,0.0145 0.078,0.0177 0.0797,0.0198 0.0439,0.023 0.0464,-0.0167 0.0489,0.0273 0.0521,-0.0124 0.0184,-0.0106 0.0234,0.0333 -0.009,-0.007 0.0326,-0.006 0.002,-0.005 0.008,-0.004 0.0152,-0.003 -0.0149,-0.002 -0.007,-0.001 0.42449,-21.43063 0.0797,7e-4 0.0879,0.002 0.13145,0.002 0.13819,0.003 0.14457,0.004 0.18638,0.005 0.15555,0.006 0.1963,0.0496 0.20055,0.009 0.24059,0.011 0.24449,0.0549 0.24626,0.0152 0.24874,0.0592 0.28665,0.0616 0.28772,0.0645 0.32492,0.067 0.32492,0.11197 0.36142,0.11515 0.35964,0.11835 0.39579,0.16335 0.42945,0.16724 0.42732,0.21295 0.46098,0.25867 0.53044,0.30437 0.52689,0.35078 0.55913,0.43937 0.55417,0.5276 0.585,0.57437 0.61619,0.74729 0.57366,0.83692 0.56622,0.96804 0.44929,1.01622 v 0 z m -2.78575,14.18563 -15.04772,-12.68646 v 0 l 0.49571,-0.7076 0.25158,-0.33768 0.1885,-0.22004 0.0875,-0.14421 0.13217,-0.11055 0.0663,-0.0755 0.0723,-0.0826 0.0415,-0.0468 0.0461,-0.0532 0.05,-0.0585 0.0528,-0.0638 0.0188,-0.0262 0.0202,-0.0305 0.0209,0.008 -0.0156,0.005 -0.017,0.002 -0.0181,0.0429 -0.0213,0.0404 -0.0602,0.0818 -0.10169,0.12295 -0.0695,0.16512 -0.11161,0.20693 -0.15449,0.29268 -0.16122,0.37771 -0.16973,0.46347 -0.17787,0.59173 -0.18709,0.72071 -0.1233,0.93331 -0.0609,1.14696 0.0368,1.27666 0.28099,1.48996 0.48685,1.49386 16.93417,-9.00496 0.55063,1.6937 0.31712,1.69972 0.0475,1.49634 -0.0751,1.37445 -0.16016,1.16929 -0.2452,0.96236 -0.25512,0.83906 -0.26468,0.71575 -0.27319,0.63283 -0.28134,0.55063 -0.25122,0.46701 -0.22039,0.42519 -0.26256,0.38304 -0.23032,0.3398 -0.197,0.29693 -0.19949,0.29516 -0.20197,0.25086 -0.20268,0.24839 -0.16618,0.24484 -0.16547,0.19913 -0.16477,0.19489 -0.12578,0.14811 -0.12225,0.1435 -0.11905,0.13748 -0.11445,0.1311 -0.0723,0.0826 -0.0663,0.0755 0.0138,0.0255 -0.0152,-0.0245 0.10275,-0.11729 0.18497,-0.25334 0.44964,-0.6424 v 0 z m -6.77197,-10.87725 -0.35149,21.43063 v 0 l -0.80115,-0.0145 -0.84755,-0.11515 -0.85784,-0.17327 -0.94181,-0.23102 -0.99035,-0.37205 -1.03996,-0.51272 -1.08993,-0.69449 -1.0683,-0.91807 -1.0102,-1.09984 -0.9163,-1.23839 -0.75012,-1.4198 -0.54744,-1.47401 -0.38161,-1.44355 -0.21685,-1.37055 -0.0528,-1.2972 0.002,-1.09595 0.0911,-1.02083 0.18071,-0.94535 0.15874,-0.8263 0.20941,-0.79122 0.22358,-0.71327 0.23563,-0.63425 0.24803,-0.59775 0.22252,-0.55949 0.26894,-0.56374 0.24272,-0.4826 0.25122,-0.48508 0.22287,-0.44504 0.26681,-0.44646 0.23634,-0.44716 0.27957,-0.40571 0.24767,-0.405 15.04772,12.68646 -0.1024,0.152 -0.0606,0.15272 -0.0918,0.10984 -0.0486,0.10914 -0.0783,0.10842 -0.033,0.0634 -0.0251,0.0609 0.0209,-0.0259 -0.005,-0.0301 0.0418,-0.0762 0.0535,-0.12331 0.0656,-0.21295 0.0783,-0.30296 0.056,-0.35149 0.1063,-0.48473 0.0485,-0.57649 -0.009,-0.66862 -0.0294,-0.8876 -0.15874,-0.98008 -0.28665,-1.07362 -0.41422,-1.12536 -0.5772,-1.09382 -0.70158,-0.9372 -0.75366,-0.82276 -0.76712,-0.66791 -0.74339,-0.47126 -0.64594,-0.31784 -0.54815,-0.20763 -0.4493,-0.0971 -0.31358,-0.0719 -0.25086,-0.0464 -0.14918,0.0195 v 0 z m 7.5965,-1.42582 2.86653,21.24354 v 0 l -0.53149,0.096 -0.51662,0.0928 -0.53822,0.09 -0.4865,0.0861 -0.47126,0.0833 -0.45638,0.0797 -0.47728,0.0769 -0.42555,0.0737 -0.40961,0.0702 -0.39437,0.0673 -0.41528,0.0638 -0.36318,0.0609 -0.34689,0.0577 -0.36815,0.0549 -0.31536,0.0517 -0.29941,0.0485 -0.3196,0.0454 -0.26681,0.0422 -0.25052,0.0393 -0.2707,0.0365 -0.21756,0.0333 -0.23776,0.0723 -0.18425,0.0273 -0.20445,0.0248 -0.18744,0.0213 -0.17079,0.0188 -0.15378,0.0156 -0.17327,0.0131 -0.15626,0.01 -0.21153,0.0496 -0.37772,0.005 -0.61653,0.005 0.35149,-21.43063 -0.55417,0.002 -0.28063,-0.002 -0.0804,0.0361 0.01,-0.009 0.0273,-0.0124 0.0801,-0.0149 0.0978,-0.0181 0.11445,-0.0213 0.13146,-0.0241 0.18425,-0.0273 0.16476,0.012 0.21756,-0.0333 0.19772,-0.0358 0.25051,-0.0393 0.26681,-0.0422 0.24661,-0.0453 0.29941,-0.0485 0.31536,-0.0517 0.29445,-0.0542 0.34689,-0.0577 0.36319,-0.0609 0.34228,-0.0638 0.39437,-0.0673 0.40961,-0.0702 0.42555,-0.0737 0.40429,-0.0762 0.45638,-0.0797 0.47126,-0.0833 0.48649,-0.0861 0.46524,-0.0893 0.51661,-0.0928 0.5315,-0.096 v 0 z m 21.52488,-0.88689 -0.42449,21.43063 v 0 l -0.7813,-0.0216 -0.75578,-0.022 -0.76784,-0.0216 -0.70902,-0.0216 -0.68811,-0.0213 -0.63177,-0.0206 -0.65055,-0.0188 -0.63425,-0.0174 -0.58252,-0.0152 -0.56906,-0.0131 -0.55736,-0.0106 -0.54708,-0.007 -0.53823,-0.005 -0.49394,-3.5e-4 -0.52547,0.003 -0.52087,0.008 -0.48153,0.0124 -0.48083,0.0174 -0.44433,0.0223 -0.48295,0.0287 -0.48615,0.034 -0.45496,0.0408 -0.49748,0.0475 -0.50598,0.0546 -0.47906,0.0199 -0.52618,0.0698 -0.50244,0.0776 -0.55346,0.0861 -0.56906,0.0528 -0.58641,0.10417 -0.60449,0.11339 -0.6254,0.12295 -2.86653,-21.24354 0.77138,-0.12437 0.75118,-0.1141 0.7324,-0.10488 0.71504,-0.13784 0.69945,-0.0868 0.72212,-0.079 0.67288,-0.0705 0.69803,-0.10489 0.65197,-0.0553 0.64417,-0.0489 0.67394,-0.0415 0.63283,-0.0354 0.62894,-0.0294 0.66401,-0.0237 0.62682,-0.0181 0.62822,-0.0131 0.59386,-0.008 0.59847,-0.004 0.64063,-3.5e-4 0.61122,0.004 0.62008,0.007 0.63035,0.01 0.64276,0.0124 0.65551,0.0152 0.63425,0.0174 0.65055,0.0188 0.70476,0.0199 0.68811,0.0213 0.70902,0.0216 0.69484,0.0223 0.75579,0.022 0.7813,0.0216 v 0 z m 18.26716,18.6548 -18.6548,-0.31323 v 0 l -0.008,0.53114 0.0673,0.58252 0.10736,0.50811 0.11267,0.47693 0.15556,0.44504 0.16405,0.32988 0.13819,0.29941 0.14953,0.22642 0.09,0.15449 0.10559,0.12401 0.0489,0.0524 0.0312,0.0227 0.0152,0.0358 -0.0361,-0.0354 -0.0485,-0.0223 -0.0595,-0.0514 -0.0691,-0.0794 -0.11304,-0.0237 -0.11941,-0.0935 -0.1233,-0.0794 -0.12614,-0.0652 -0.1265,-0.0503 -0.12579,-0.0358 -0.1233,-0.0624 -0.11941,-0.0471 -0.11304,-0.0319 -0.0691,-0.0159 h -0.0595 l -0.0117,-0.0262 0.0372,0.0322 0.0517,0.007 0.14031,-0.0188 0.42449,-21.43063 0.73701,0.0138 0.68031,0.0726 0.69485,0.13217 0.67074,0.1063 0.64559,0.16441 0.65445,0.18106 0.6261,0.19701 0.63178,0.21224 0.63637,0.22748 0.63886,0.28453 0.63957,0.29976 0.63921,0.31394 0.63638,0.32882 0.63248,0.34299 0.62681,0.44043 0.65587,0.41244 0.6463,0.46808 0.63602,0.52334 0.62291,0.53575 0.64595,0.63319 0.63,0.64559 0.61228,0.70016 0.63,0.79582 0.5726,0.8504 0.58677,0.94571 0.52583,1.04137 0.49996,1.09453 0.43618,1.23236 0.33378,1.28552 0.2661,1.33795 0.16016,1.43291 0.0159,1.40209 v 0 z m -31.48795,45.86598 -13.8848,-14.37378 v 0 l 0.62079,-0.7533 0.62575,-0.74304 0.73098,-0.85287 0.79264,-0.9124 0.84508,-0.9652 0.92586,-1.05236 0.99815,-1.17425 1.06229,-1.16362 1.11755,-1.27063 1.16504,-1.32874 1.16717,-1.33725 1.23378,-1.42264 1.2196,-1.41661 1.23343,-1.44461 1.23839,-1.46657 1.23519,-1.4804 1.22351,-1.48712 1.16752,-1.4439 1.17567,-1.4361 1.10232,-1.42016 1.05732,-1.39783 0.96697,-1.3252 0.90602,-1.24547 0.83551,-1.20118 0.72036,-1.10658 0.59705,-0.96272 0.46523,-0.85358 0.36248,-0.61157 0.14067,-0.40323 0.0216,-0.0198 -0.14209,0.58039 -0.0939,1.31315 18.6548,0.31323 -0.25476,2.8063 -0.57791,2.28047 -0.67217,1.87299 -0.79405,1.66748 -0.79689,1.62213 -0.90177,1.52823 -0.96059,1.55303 -1.01091,1.52823 -1.05378,1.5385 -1.12358,1.5835 -1.18595,1.57819 -1.2026,1.5665 -1.2483,1.58953 -1.24796,1.60476 -1.31279,1.61256 -1.2965,1.57146 -1.30819,1.56472 -1.31137,1.55091 -1.30571,1.52964 -1.2926,1.50095 -1.23378,1.42263 -1.24016,1.42158 -1.16504,1.32874 -1.11756,1.27063 -1.06157,1.24724 -0.99886,1.09063 -0.92587,1.05236 -0.84507,0.9652 -0.71965,0.82807 -0.58571,0.68351 -0.47976,0.57437 -0.25654,0.33094 v 0 z m -16.0037,19.22421 -15.04771,-12.68645 v 0 l 0.56941,-0.87272 0.59421,-0.88299 0.58039,-0.84933 0.60059,-0.81496 0.61902,-0.86209 0.63567,-0.82488 0.64949,-0.82701 0.66153,-0.78626 0.63532,-0.82772 0.64275,-0.78342 0.68563,-0.8224 0.65268,-0.77528 0.65374,-0.7689 0.65374,-0.76074 0.61512,-0.70902 0.64665,-0.7402 0.63957,-0.72744 0.59456,-0.67145 0.62044,-0.69803 0.57082,-0.63851 0.55595,-0.62008 0.53894,-0.59953 0.51945,-0.57826 0.49818,-0.55488 0.47481,-0.53044 0.41315,-0.46169 0.38515,-0.47587 0.3926,-0.405 0.28772,-0.332 0.25405,-0.29906 0.21792,-0.26575 0.10736,-0.14563 13.8848,14.37378 -0.39862,0.48366 -0.3639,0.43441 -0.39933,0.46843 -0.4337,0.50067 -0.39189,0.48862 -0.45815,0.47657 -0.48614,0.54603 -0.4748,0.53043 -0.49819,0.55488 -0.51945,0.57827 -0.53894,0.59953 -0.55594,0.62008 -0.57083,0.6385 -0.54744,0.6137 -0.59457,0.67146 -0.56728,0.64311 -0.57366,0.65586 -0.61512,0.70902 -0.58075,0.67642 -0.58145,0.68386 -0.57969,0.69094 -0.53965,0.65374 -0.57047,0.69909 -0.56232,0.65906 -0.51555,0.70122 -0.50421,0.65835 -0.48969,0.65551 -0.47374,0.6098 -0.45531,0.64559 -0.43512,0.59634 -0.37595,0.54567 z m 0.75296,-8.67507 4.83944,20.72834 v 0 l -1.60795,0.46878 -1.51689,0.40996 -1.46409,0.39508 -1.37729,0.29693 -1.36559,0.24307 -1.31917,0.19063 -1.27488,0.13961 -1.26921,0.0482 -1.22953,-3.6e-4 -1.3011,-0.0875 -1.30252,-0.2165 -1.4152,-0.34299 -1.45701,-0.55275 -1.53886,-0.84473 -1.51193,-1.2196 -1.45098,-1.55126 -1.24654,-1.88221 -0.8961,-2.08665 -0.5113,-2.12173 -0.23775,-1.98603 -0.002,-1.76527 0.19488,-1.62638 0.24272,-1.44319 0.36283,-1.25929 0.40571,-1.1987 0.41103,-1.09524 0.4507,-1.03145 0.48792,-0.96733 0.48649,-0.98504 0.51981,-0.917 0.55063,-0.88973 0.54319,-0.86102 15.04771,12.68645 -0.32492,0.5237 -0.25937,0.46808 -0.22925,0.41102 -0.19665,0.3111 -0.12508,0.29268 -0.0886,0.18957 -0.0496,0.0847 0.028,-0.0641 0.0709,-0.17221 0.0422,-0.40712 0.0886,-0.64418 -0.008,-0.83976 -0.14138,-1.12075 -0.3072,-1.31882 -0.58075,-1.35035 -0.81496,-1.21536 -0.89965,-0.95598 -0.83657,-0.69945 -0.73453,-0.40323 -0.52087,-0.19205 -0.34228,-0.0666 -0.0886,-0.028 0.0574,0.011 0.2785,0.005 0.39189,-0.0432 0.54355,-0.051 0.66082,-0.10276 0.78095,-0.15591 0.93862,-0.21047 1.02614,-0.22429 1.15122,-0.3235 1.243,-0.38303 v 0 z m -0.40926,-0.85536 15.04843,12.77079 v 0 l -0.20268,0.28382 -0.16866,0.24236 -0.20799,0.28488 -0.17362,0.28382 -0.2126,0.28382 -0.17823,0.28205 -0.2165,0.28133 -0.21862,0.27957 -0.21968,0.27744 -0.22146,0.27496 -0.22252,0.31429 -0.22358,0.26894 -0.22465,0.26575 -0.26185,0.30401 -0.22571,0.2576 -0.26291,0.29516 -0.26327,0.2902 -0.26327,0.28523 -0.29976,0.23741 -0.29941,0.31606 -0.29906,0.26716 -0.33484,0.30296 -0.33449,0.25405 -0.33307,0.28843 -0.40571,0.28134 -0.36744,0.27283 -0.43937,0.26504 -0.47445,0.29835 -0.50917,0.24696 -0.5074,0.27993 -0.57791,0.22854 -0.64985,0.21862 -4.83944,-20.72834 -0.37347,0.12366 -0.29799,0.11232 -0.22252,0.14457 -0.22075,0.0932 -0.18248,0.12543 -0.14457,0.0744 -0.0698,0.0659 -0.10524,0.0581 -0.0312,0.0496 -0.0305,3.5e-4 -0.0294,0.0351 0.008,-0.0135 0.008,0.022 0.008,-0.068 0.045,-0.0315 0.0443,-0.0372 0.0446,-0.0415 0.0804,-0.0889 0.0436,-0.0503 0.0787,-0.0971 0.0783,-0.10028 0.0772,-0.0613 0.0755,-0.1056 0.0744,-0.10878 0.0726,-0.1109 0.0712,-0.11197 0.10523,-0.11409 0.0673,-0.11445 0.10133,-0.11587 0.062,-0.11551 0.0964,-0.15803 0.0567,-0.11516 v 0 z m 12.28855,-8.3948 -0.3515,21.43063 v 0 l 0.18673,-0.002 0.26788,0.01 0.27567,-0.0213 0.28311,-0.0524 0.32669,-0.084 0.33307,-0.11516 0.30331,-0.10559 0.34547,-0.18035 0.2785,-0.12827 0.28347,-0.16193 0.25193,-0.19453 0.25653,-0.18708 0.1878,-0.13642 0.15519,-0.17043 0.1591,-0.12225 0.12543,-0.15661 0.0549,-0.0659 0.0581,-0.10169 0.0599,-0.0542 -0.011,-0.006 0.0269,0.0404 -0.0454,0.003 -0.0443,0.05 -0.0439,0.0957 -0.0801,0.14173 -0.0811,0.10241 -0.11764,0.18992 -0.0822,0.1924 -0.15696,0.19453 -0.12189,0.23846 -0.16087,0.24024 -0.16299,0.28311 -15.04843,-12.77079 0.0907,-0.11445 0.0879,-0.1559 0.12259,-0.15414 0.0833,-0.19453 0.15591,-0.1924 0.11764,-0.18992 0.15342,-0.27106 0.15307,-0.22606 0.18921,-0.26433 0.18957,-0.30296 0.18992,-0.34051 0.26504,-0.29409 0.22925,-0.33095 0.30366,-0.36815 0.30615,-0.40429 0.30862,-0.35646 0.38409,-0.43441 0.42414,-0.38586 0.42803,-0.42059 0.46842,-0.3717 0.54567,-0.40606 0.55028,-0.39791 0.59244,-0.3476 0.5974,-0.29693 0.67642,-0.32988 0.6463,-0.23599 0.68952,-0.22641 0.69662,-0.17398 0.6672,-0.12118 0.67465,-0.068 0.68315,-0.0152 0.61831,-0.003 v 0 z m 10.05236,13.33346 -18.6548,-0.2289 v 0 l 0.002,-0.16511 0.001,-0.1637 0.002,-0.079 0.002,-0.11906 0.002,-0.0337 7.1e-4,-0.0733 -0.0362,-0.0294 0.0362,0.0142 -0.002,0.0167 -0.002,0.10347 -0.005,0.14811 0.0305,0.15094 -0.008,0.23776 0.0627,0.28311 0.0237,0.28665 0.0943,0.41563 0.0918,0.41953 0.16193,0.54921 0.19488,0.55311 0.30153,0.64099 0.33414,0.68705 0.44008,0.69129 0.54531,0.73737 0.6137,0.65799 0.68174,0.62114 0.71291,0.49996 0.74445,0.46311 0.77456,0.34264 0.65906,0.22358 0.65232,0.14528 0.60945,0.0677 0.53008,0.033 0.3515,-21.43063 0.71362,0.0443 0.78094,0.0925 0.81177,0.18213 0.80646,0.27248 0.91063,0.40358 0.86917,0.5361 0.82772,0.58358 0.78662,0.7154 0.70866,0.76287 0.63177,0.85217 0.51732,0.81602 0.40358,0.82098 0.36248,0.78414 0.24945,0.70476 0.2087,0.70937 0.13217,0.58748 0.12898,0.59138 0.0528,0.46949 0.0868,0.47232 0.0106,0.43406 0.0454,0.35291 0.006,0.35575 0.005,0.31677 0.003,0.23563 0.0383,0.2374 -0.0361,0.19807 -7.1e-4,0.15768 -0.001,0.20161 -0.002,0.11906 -0.002,0.16264 -0.002,0.0801 -0.002,0.0808 v 0 z m -3.26799,10.44248 -15.193,-12.43346 v 0 l -0.0815,0.10488 -0.0804,0.13961 -0.007,0.0482 -0.0429,0.0425 -0.007,0.0369 -0.006,-0.0103 0.0305,-0.0152 -0.007,-0.0191 0.0294,-0.023 0.0284,-0.0677 -0.008,-0.028 0.0262,-0.0719 0.0259,-0.0315 0.0237,-0.0744 0.023,-0.0326 0.0202,-0.0744 0.0191,-0.0319 0.0163,-0.0723 0.0149,-0.0283 0.0117,-0.0262 0.009,-0.0234 -0.0305,-0.0195 0.004,0.0262 v 0.0305 l -0.003,0.0358 -0.0432,0.0833 -0.0103,0.1311 -0.0145,0.17965 -0.0549,0.2296 -0.022,0.27886 -0.0631,0.45532 0.006,0.5896 18.6548,0.2289 -3.6e-4,0.75473 -0.0794,0.63815 -0.0475,0.47799 -0.0889,0.44362 -0.0563,0.40854 -0.0606,0.37347 -0.10134,0.33768 -0.0684,0.30082 -0.0723,0.30614 -0.0751,0.3104 -0.1148,0.27248 -0.0815,0.27567 -0.084,0.27921 -0.0865,0.28063 -0.0893,0.24094 -0.0907,0.28418 -0.0932,0.24307 -0.0946,0.28488 -0.0967,0.24307 -0.0974,0.28382 -0.0992,0.24059 -0.13677,0.28098 -0.10063,0.23634 -0.1017,0.27532 -0.13854,0.27212 -0.10205,0.26752 -0.13889,0.26327 -0.13855,0.30047 -0.17539,0.29481 -0.13748,0.28842 -0.21012,0.36638 -0.20976,0.31677 v 0 z m -10.35426,27.18851 -17.44086,-7.54654 v 0 l 0.33413,-1.12996 0.36248,-1.07291 0.35575,-1.09985 0.34937,-1.04385 0.34335,-1.07079 0.33803,-1.05662 0.33413,-1.04244 0.33024,-1.02862 0.32705,-1.05661 0.32527,-1.00134 0.36036,-1.03004 0.32244,-1.01693 0.32315,-1.00417 0.35964,-1.03288 0.32492,-0.97866 0.36319,-1.00842 0.36603,-0.99567 0.36956,-0.98433 0.37382,-0.97229 0.37843,-1.0024 0.38445,-0.94925 0.42732,-0.98008 0.3972,-0.96874 0.44185,-1.00028 0.45071,-0.94748 0.45957,-0.93685 0.46913,-0.96838 0.48012,-0.95847 0.52795,-0.94889 0.50351,-0.93863 0.55275,-0.92941 0.56622,-0.92019 15.193,12.43346 -0.34796,0.58288 -0.33448,0.59208 -0.35894,0.60201 -0.30969,0.61087 -0.33484,0.62185 -0.32457,0.63177 -0.31429,0.68386 -0.30543,0.69449 -0.29658,0.66295 -0.32563,0.71645 -0.28204,0.72709 -0.31146,0.78059 -0.30685,0.75012 -0.30083,0.80362 -0.29728,0.81567 -0.29374,0.82772 -0.29091,0.83976 -0.32492,0.89433 -0.28736,0.86492 -0.32315,0.91985 -0.32315,0.93259 -0.28736,0.94571 -0.32528,1.00134 -0.32775,0.97299 -0.33024,1.02863 -0.33413,1.04244 -0.33803,1.05661 -0.34335,1.07079 -0.34866,1.12748 -0.35575,1.09984 -0.36248,1.15724 z m -12.01287,10.02614 0.42449,-21.43063 h -0.0365 l -0.76925,0.003 -0.61653,0.0776 -0.53823,0.11197 -0.46028,0.14598 -0.34618,0.0957 -0.26858,0.1304 -0.2654,0.12366 -0.18885,0.11622 -0.18674,0.0673 -0.14704,0.10311 -0.14528,0.0967 -0.10736,0.0904 -0.10595,0.0425 -0.10523,0.12082 -0.0687,0.0308 -0.068,0.10984 -0.0687,0.0627 -0.1063,0.0996 -0.0716,0.0524 -0.0723,0.0904 -0.0748,0.0858 -0.0772,0.12295 -0.0801,0.0772 -0.0833,0.11586 -0.0868,0.15343 -0.0907,0.15023 -0.13216,0.18886 -0.10028,0.18496 -0.10559,0.18284 -0.0744,0.26327 -0.11728,0.26114 -0.0868,0.30047 17.44086,7.54654 -0.20161,0.62574 -0.24555,0.58146 -0.21473,0.57862 -0.25724,0.49181 -0.26256,0.48898 -0.30437,0.48579 -0.27212,0.44008 -0.27674,0.43689 -0.28027,0.39082 -0.28418,0.34512 -0.28629,0.38303 -0.28949,0.33662 -0.29126,0.332 -0.29339,0.28559 -0.33094,0.3228 -0.29552,0.27602 -0.29551,0.31252 -0.29622,0.22288 -0.33201,0.30224 -0.332,0.21189 -0.32989,0.24839 -0.36566,0.242 -0.36319,0.23634 -0.39792,0.1878 -0.39508,0.22323 -0.46452,0.2172 -0.46134,0.20977 -0.53043,0.16157 -0.63603,0.1963 -0.70405,0.1474 -0.77244,0.0981 -0.91382,0.007 h -0.0365 z m -9.50031,-21.29599 17.44157,7.63087 v 0 l 0.1226,-0.30791 0.007,-0.15095 0.0383,-0.039 -0.003,-0.0127 -0.006,0.0531 -0.009,0.0326 -0.01,0.0942 -0.0478,0.0702 -0.0106,0.085 -0.009,0.0985 -0.007,0.10984 -0.003,0.0769 -0.0358,0.0415 0.006,0.0468 0.0124,0.007 -0.0163,0.008 -0.009,-0.0776 7.1e-4,-0.0815 0.011,-0.17079 -0.0149,-0.26291 -0.0758,-0.3561 -0.0631,-0.45248 -0.15839,-0.59209 -0.2537,-0.69165 -0.38374,-0.83551 -0.54992,-0.93933 -0.75047,-0.96024 -0.95067,-0.9 -1.0761,-0.75791 -1.19977,-0.53398 -1.10267,-0.27142 -0.96945,-0.0953 -0.42449,21.43063 -1.44567,-0.1428 -1.53283,-0.38551 -1.58528,-0.71043 -1.41838,-0.99248 -1.25256,-1.18843 -1.0141,-1.29827 -0.77598,-1.322 -0.57579,-1.26 -0.41244,-1.153 -0.28736,-1.08602 -0.16229,-0.97476 -0.14882,-0.90319 -0.0631,-0.82914 -0.0145,-0.7533 -0.004,-0.67536 0.005,-0.67854 0.0142,-0.59599 0.0585,-0.59563 0.0648,-0.55133 0.0337,-0.54603 0.0748,-0.49712 0.0783,-0.44646 0.0811,-0.43512 0.0822,-0.42165 0.0464,-0.40606 0.0822,-0.34725 0.0808,-0.36921 0.0783,-0.30543 0.0744,-0.32386 0.1063,-0.29764 0.0645,-0.35362 0.16654,-0.45036 v 0 z m 8.83346,5.87268 1.96087,-21.35551 v 0 l 1.88256,0.42165 2.03208,0.96662 1.89071,1.51051 1.49421,1.88468 0.98894,1.96264 0.63071,1.82693 0.31075,1.64657 0.10204,1.378 0.005,1.14945 -0.0532,1.04244 -0.10913,0.93366 -0.12756,0.82134 -0.14244,0.79086 -0.15733,0.71504 -0.16901,0.63673 -0.17965,0.63922 -0.18779,0.59775 -0.15804,0.55276 -0.19913,0.54744 -0.16547,0.49713 -0.16654,0.48614 -0.16618,0.47232 -0.16299,0.41386 -0.15909,0.39472 -0.15272,0.3724 -0.14457,0.34796 -0.0981,0.27779 -0.12331,0.24768 -0.073,0.17256 -0.0585,0.0946 0.0319,-0.0705 0.23173,-0.61724 -17.44157,-7.63087 0.27496,-0.72992 0.11338,-0.26681 0.0578,-0.17823 0.073,-0.17256 0.0503,-0.16334 0.0988,-0.19418 0.0723,-0.17929 0.0797,-0.20374 0.0868,-0.22606 0.0907,-0.24591 0.0939,-0.21933 0.0943,-0.23386 0.0939,-0.24484 0.0539,-0.21012 0.0865,-0.21614 0.0432,-0.17681 0.0351,-0.13464 0.0252,-0.13146 0.0135,-0.0418 v 0.0503 l -0.0156,0.10347 -0.0319,0.24413 -0.0142,0.38622 0.002,0.5315 0.0531,0.80539 0.21224,1.12358 0.47977,1.35993 0.7813,1.55657 1.22634,1.54524 1.55834,1.24263 1.63311,0.77741 1.41201,0.31535 v 0 z m -1.89815,-0.0889 -2.0622,-21.33283 v 0 l 0.3646,-0.0475 0.40642,-0.0422 0.34051,-0.0365 0.31252,-0.0319 0.32244,-0.0695 0.29693,-0.0223 0.2739,-0.0181 0.28878,-0.0145 0.30508,-0.0106 0.32279,-0.007 0.30544,-0.004 0.29019,-3.6e-4 0.38551,0.002 0.44646,0.0461 0.50847,0.0482 0.5361,0.0928 0.6013,0.17788 0.59492,0.18035 0.55417,0.22358 0.44079,0.1839 0.29268,0.14386 0.073,0.0617 -0.0358,-0.0209 -0.17929,-0.10347 -0.32102,-0.14421 -0.35185,-0.14457 -0.30721,-0.10275 -0.33484,-0.10276 -0.28701,-0.0616 -0.23811,-0.0631 -0.15095,-0.0227 -0.1357,-0.0237 -1.96087,21.35551 -0.37665,-0.0571 -0.36142,-0.0588 -0.42095,-0.10133 -0.44503,-0.10205 -0.47091,-0.14457 -0.42555,-0.14527 -0.4539,-0.18709 -0.41173,-0.18744 -0.26079,-0.14599 -0.1109,-0.0627 7e-4,0.022 0.2204,0.10559 0.36496,0.14775 0.47197,0.19028 0.5035,0.14988 0.49713,0.15165 0.41563,0.0702 0.36956,0.0305 0.28559,0.034 0.19985,-0.005 0.0755,-0.002 0.0602,10e-4 0.0429,0.005 -0.0124,0.009 -0.0691,0.0131 -0.12791,0.0174 -0.15094,0.0216 -0.17646,-0.0156 -0.23882,0.0312 -0.26752,0.0365 -0.26043,0.0414 -0.36461,0.0475 v 0 z m -31.56945,6.3613 -4.40149,-20.89913 v 0 l 0.99212,-0.26362 1.03359,-0.26044 1.0024,-0.25653 1.007,-0.29516 1.01197,-0.24945 1.01658,-0.2459 1.02153,-0.24201 1.02615,-0.23882 1.03074,-0.27673 1.03536,-0.23103 1.04031,-0.22748 1.04386,-0.22393 1.04847,-0.21969 1.05271,-0.25795 1.05662,-0.2126 1.06086,-0.20835 1.06512,-0.2048 1.06866,-0.2009 1.03606,-0.19666 1.07611,-0.19311 1.08,-0.23102 1.08354,-0.18532 1.08744,-0.18141 1.09028,-0.17717 1.09452,-0.17327 1.09737,-0.16901 1.10055,-0.16548 1.10374,-0.20303 1.10657,-0.15732 1.10977,-0.15272 1.11295,-0.14917 1.11579,-0.14492 2.0622,21.33283 -1.04209,0.14422 -1.03996,0.14846 -1.03677,0.15272 -1.03358,0.15661 -1.03075,0.1187 -1.02756,0.16477 -1.02437,0.16901 -1.02082,0.17256 -1.01729,0.17717 -1.01445,0.1807 -1.01055,0.18461 -1.00701,0.14669 -1.00311,0.19311 -1.03606,0.19666 -0.99567,0.20019 -0.99142,0.2041 -0.98787,0.20835 -0.98362,0.21188 -0.97973,0.17363 -0.97547,0.21968 -0.97086,0.22323 -0.96662,0.22677 -0.96236,0.23103 -0.95776,0.1924 -0.95315,0.23811 -0.94854,0.2413 -0.94358,0.2459 -0.93898,0.24874 -0.93401,0.21083 -0.92941,0.25583 -0.88689,0.25972 z m -15.30921,-11.9746 18.6548,0.31322 v 0 l 3.6e-4,-0.19346 0.0127,-0.34902 -0.0847,-0.45956 -0.10949,-0.61229 -0.1722,-0.76358 -0.30756,-0.87094 -0.44398,-0.93508 -0.65409,-1.03996 -0.79087,-0.97583 -0.92764,-0.82665 -0.99248,-0.71859 -0.98362,-0.44149 -0.94004,-0.33201 -0.82276,-0.13748 -0.67039,-0.068 -0.51874,0.002 -0.44043,0.0326 -0.36355,0.022 -0.2498,0.0546 -0.13713,0.0457 -0.135,0.039 -0.0234,0.033 0.0145,-0.0138 0.0517,-0.0174 0.0886,-0.0195 0.12402,-0.0627 0.19665,-0.0627 0.19453,-0.10346 0.26645,-0.10134 0.29941,-0.0974 0.36922,-0.135 0.40252,-0.12933 4.40149,20.89913 0.10914,-0.0422 0.0687,-0.0351 -0.007,0.0117 -0.0468,0.0156 -0.12224,0.0191 -0.12295,0.0627 -0.19772,0.0627 -0.23457,0.10453 -0.2707,0.1024 -0.3065,0.0996 -0.34158,0.13713 -0.44964,0.13252 -0.44752,0.12579 -0.55382,0.11834 -0.66047,0.068 -0.72957,0.0581 -0.79795,0.005 -0.93969,-0.0907 -1.08071,-0.1878 -1.18452,-0.41208 -1.21465,-0.55418 -1.20862,-0.86527 -1.12819,-1.0102 -0.9737,-1.19905 -0.8185,-1.3043 -0.58926,-1.24405 -0.43228,-1.22528 -0.27496,-1.16681 -0.18957,-1.06653 -0.14067,-0.96768 -0.0177,-0.91169 -0.005,-0.81496 v 0 z m 12.38705,-27.7891 15.04771,12.68646 v 0 l -0.64665,1.03216 -0.62185,0.96449 -0.59669,0.98114 -0.5726,0.95563 -0.54851,0.88796 -0.52405,0.9046 -0.50067,0.83693 -0.47693,0.81142 -0.45319,0.82772 -0.39366,0.76004 -0.40748,0.73417 -0.38445,0.70831 -0.36248,0.68315 -0.30331,0.61476 -0.31748,0.63106 -0.25972,0.56268 -0.27461,0.53752 -0.21649,0.5113 -0.23209,0.48543 -0.17433,0.41669 -0.15378,0.39118 -0.13323,0.36497 -0.11303,0.29692 -0.0932,0.27071 -0.0368,0.20233 -0.0542,0.13429 -0.0344,0.0659 0.0209,-0.002 0.003,-0.11303 0.0585,-0.22323 0.003,-0.33307 0.0206,-0.48579 -18.6548,-0.31322 0.0461,-1.02721 0.0649,-0.92764 0.15696,-0.87023 0.13961,-0.81248 0.19524,-0.75508 0.17823,-0.73914 0.19807,-0.72318 0.2537,-0.7076 0.23775,-0.69166 0.2576,-0.71787 0.27851,-0.70228 0.29834,-0.7278 0.31961,-0.75401 0.30437,-0.73772 0.36177,-0.76429 0.34618,-0.78981 0.405,-0.81566 0.39047,-0.79973 0.44859,-0.86776 0.43476,-0.8511 0.45673,-0.87697 0.47977,-0.90283 0.53964,-0.9287 0.52618,-0.91205 0.54921,-0.98008 0.57296,-1.00559 0.59704,-0.98893 0.62079,-1.05662 0.64559,-1.03996 0.66969,-1.06547 0.69413,-1.13315 0.71965,-1.1165 v 0 z m 28.37197,-37.27984 13.08401,15.30284 v 0 l -1.06476,1.21039 -1.0474,1.20224 -1.02969,1.19481 -1.01303,1.1863 -0.99602,1.17885 -0.97902,1.17071 -0.99921,1.16256 -0.94571,1.19693 -0.93012,1.14661 -0.91346,1.13811 -0.89752,1.12997 -0.88158,1.12181 -0.86669,1.1133 -0.8504,1.10516 -0.87165,1.09665 -0.82063,1.08815 -0.80504,1.08 -0.79016,1.07115 -0.77563,1.06228 -0.76145,1.05378 -0.78307,1.04527 -0.7324,1.03642 -0.71894,1.02756 -0.70441,1.0187 -0.69095,1.00984 -0.71397,1.00134 -0.66402,0.99142 -0.65055,0.98291 -0.63815,0.9737 -0.62468,0.96485 -0.64843,0.95527 -0.59953,0.94642 -15.04771,-12.68646 0.67181,-1.03075 0.64842,-1.0396 0.69768,-1.04918 0.71043,-1.05803 0.72355,-1.06724 0.737,-1.07646 0.71327,-1.08496 0.76394,-1.09417 0.7774,-1.10303 0.79122,-1.1126 0.8054,-1.12075 0.78307,-1.1289 0.83374,-1.13882 0.84862,-1.14661 0.86315,-1.15547 0.87803,-1.16433 0.89291,-1.17248 0.87166,-1.18099 0.92338,-1.18949 0.93898,-1.19763 0.95457,-1.20614 0.97051,-1.215 0.98645,-1.22245 1.00241,-1.23094 1.0194,-1.19693 0.99851,-1.24689 1.05201,-1.25504 1.06901,-1.26319 1.08532,-1.27134 1.10267,-1.27913 1.1204,-1.28657 z m 9.66011,-1.09594 -2.0622,-21.33284 v 0 l 2.52425,-0.30366 2.36657,-0.15272 2.14725,-0.0482 2.08594,0.05 1.99949,0.22677 2.03599,0.48224 2.15681,0.81461 2.32724,1.43681 2.29146,2.39031 1.79256,3.42532 0.79015,3.78567 -0.1311,3.29952 -0.6385,2.638 -0.80469,2.05334 -0.88512,1.67244 -0.917,1.45453 -0.9365,1.31492 -0.94358,1.21181 -0.97689,1.14591 -0.99673,1.07398 -0.9691,1.08106 -1.0024,1.04138 -1.02472,0.99567 -0.96095,0.94393 -0.99638,0.93012 -0.90992,0.86811 -0.88476,0.84295 -0.81177,0.76961 -0.72603,0.73453 -0.62964,0.60803 -0.52122,0.51945 -0.36461,0.4252 -13.08401,-15.30284 0.80185,-0.84756 0.81248,-0.85748 0.84862,-0.86173 0.87201,-0.81886 0.88405,-0.85464 0.88476,-0.84296 0.90993,-0.86811 0.85039,-0.84508 0.88866,-0.8596 0.80575,-0.8263 0.78413,-0.78768 0.75083,-0.74374 0.63248,-0.73594 0.53965,-0.63922 0.43476,-0.53645 0.28169,-0.38658 0.11764,-0.18957 -0.0588,0.0978 -0.2087,0.55736 -0.29693,1.23272 -0.0666,1.99559 0.55275,2.59299 1.23059,2.35595 1.38154,1.45417 1.04669,0.64453 0.48083,0.17823 -0.0588,0.011 -0.5361,-0.0673 -0.91524,-0.0563 -1.34291,0.0432 -1.63524,0.14846 -2.0126,0.21721 v 0 z m -3.50681,1.6611 -17.44157,-7.7152 v 0 l 0.31819,-0.89327 0.32456,-0.86315 0.36851,-0.87555 0.37523,-0.84649 0.41953,-0.81886 0.42662,-0.8341 0.50775,-0.80787 0.47906,-0.78272 0.5609,-0.75897 0.56906,-0.73524 0.61512,-0.71327 0.62362,-0.64948 0.66968,-0.6293 0.67961,-0.60909 0.68917,-0.54886 0.69945,-0.48862 0.70972,-0.4298 0.72036,-0.41315 0.73098,-0.35681 0.70548,-0.34158 0.68031,-0.2863 0.69201,-0.23173 0.6672,-0.22004 0.67855,-0.20941 0.65445,-0.15732 0.6307,-0.14882 0.64276,-0.14032 0.61937,-0.13322 0.59598,-0.0854 0.60945,-0.0801 0.62256,-0.11763 0.60024,-0.0723 2.0622,21.33284 -0.45354,0.0709 -0.40358,0.0326 -0.38977,0.0787 -0.377,0.084 -0.3267,0.0475 -0.27779,0.0546 -0.26504,0.0624 -0.21579,0.0709 -0.1676,0.0386 -0.15555,0.0492 -0.10736,0.0602 -0.0964,0.0305 -0.0485,0.002 -0.001,0.016 0.01,-0.0106 0.0202,0.005 0.0298,-0.0202 0.04,-0.0436 0.0496,-0.067 0.0588,-0.0475 0.0319,-0.0266 0.0404,-0.0464 0.0128,-0.0245 0.0216,-7.1e-4 -0.0439,0.0237 0.002,0.0489 -0.0645,0.0758 -0.056,0.14421 -0.0854,0.17256 -0.0787,0.20161 -0.10772,0.27355 -0.10134,0.30437 v 0 z m 92.63976,-8.94685 -18.6548,-0.31323 v 0 l -0.002,-0.33343 -0.0294,-0.27885 -0.0202,-0.22323 -0.011,-0.25264 -0.0383,-0.19665 -0.0655,-0.18284 -0.0188,-0.16795 -0.0457,-0.15343 -0.0726,-0.18 -0.0259,-0.12259 -0.0886,-0.14847 -0.0414,-0.13287 -0.0684,-0.11516 -0.0935,-0.14102 -0.0833,-0.12331 -0.10878,-0.10524 -0.13429,-0.17114 -0.12295,-0.11055 -0.14811,-0.17575 -0.17362,-0.11445 -0.19843,-0.17893 -0.18638,-0.15874 -0.24803,-0.18036 -0.27248,-0.15909 -0.29657,-0.13855 -0.32067,-0.15838 -0.34512,-0.17858 -0.40571,-0.15626 -0.42874,-0.13359 -0.41598,-0.15307 -0.47658,-0.12897 -0.53575,-0.10524 3.49796,-21.11244 1.04881,0.27035 1.06193,0.2941 1.07504,0.31677 1.01551,0.38232 0.99178,0.405 1.00417,0.42732 0.98043,0.49075 0.95705,0.55453 0.93224,0.57579 0.9078,0.59634 0.92055,0.65905 0.8589,0.67925 0.83409,0.78272 0.80929,0.76039 0.78414,0.86315 0.72248,0.84012 0.69767,0.94217 0.67146,0.96023 0.60945,0.97796 0.58358,1.03712 0.55736,1.05414 0.45851,1.07043 0.46878,1.1289 0.36886,1.10267 0.34263,1.15973 0.31571,1.17496 0.21579,1.18984 0.1885,1.20437 0.16122,1.17602 0.0974,1.23166 0.033,1.20295 0.005,1.1739 v 0 z m -17.02488,17.93586 -16.12204,10.8489 4.94716,-15.53244 0.4135,-0.19417 0.41067,-0.1878 0.44292,-0.22181 0.4376,-0.25618 0.43122,-0.28878 0.45956,-0.32102 0.41386,-0.30969 0.47587,-0.34051 0.42767,-0.36957 0.41422,-0.39791 0.43582,-0.4252 0.42024,-0.41031 0.36602,-0.47799 0.42059,-0.41882 0.36355,-0.48473 0.34228,-0.4663 0.31996,-0.48791 0.33201,-0.50988 0.30685,-0.53008 0.27992,-0.5074 0.25193,-0.48437 0.22287,-0.50244 0.22855,-0.51945 0.19594,-0.5354 0.16335,-0.46629 0.12827,-0.523 0.12826,-0.49464 0.0914,-0.50705 0.0889,-0.47657 0.0492,-0.48792 0.0439,-0.45567 0.0379,-0.50669 18.6548,0.31323 -0.0337,1.51512 -0.11267,1.54842 -0.19099,1.49705 -0.23138,1.48571 -0.30685,1.43256 -0.34441,1.42015 -0.4174,1.36489 -0.45177,1.39252 -0.48579,1.29366 -0.51767,1.277 -0.58571,1.26071 -0.61477,1.24264 -0.64275,1.18205 -0.6704,1.12039 -0.69555,1.1002 -0.75579,1.07894 -0.77881,1.05661 -0.80079,0.99142 -0.78414,1.00913 -0.87626,0.90106 -0.85677,0.91701 -0.87307,0.84827 -0.92445,0.82098 -0.93791,0.79264 -0.91311,0.76288 -0.9978,0.73346 -0.9698,0.65976 -1.01516,0.62823 -1.02153,0.59563 -1.02685,0.56197 -1.0676,0.52724 -1.07043,0.45 4.94716,-15.53244 z m -16.12204,10.8489 -5.68808,-11.17913 10.63524,-4.35331 z m 19.54311,1.13599 -18.57048,2.45976 v 0 l -0.0223,-0.13181 -0.0237,-0.17504 0.0121,-0.13358 -0.0262,-0.1343 -0.028,-0.1357 0.007,-0.13713 -0.0319,-0.096 -0.034,-0.13926 3.6e-4,-0.0992 -0.039,-0.10063 -0.005,-0.1024 -0.008,-0.10417 -0.011,-0.0641 -0.0514,-0.10807 -0.0177,-0.068 -0.022,-0.11232 -0.0255,-0.0726 0.007,-0.11728 -0.034,-0.0772 -0.0379,-0.0801 -0.006,-0.0826 -0.0478,-0.12755 -0.0528,-0.0882 -0.0213,-0.0914 -0.0269,-0.13642 -0.0687,-0.0974 -0.0379,-0.10098 -0.0439,-0.14599 -0.0868,-0.14952 -0.056,-0.11126 -0.0631,-0.15662 -0.0694,-0.1187 16.12204,-10.8489 0.21685,0.4539 0.21047,0.40819 0.2041,0.44646 0.16051,0.4011 0.19134,0.39756 0.18602,0.43618 0.14315,0.43264 0.17433,0.38799 0.16867,0.42661 0.1272,0.42414 0.12224,0.37913 0.15378,0.41776 0.11303,0.41598 0.10843,0.41315 0.14032,0.36815 0.0999,0.40854 0.0964,0.3639 0.0921,0.40394 0.0521,0.35964 0.0854,0.40004 0.0826,0.35575 0.0794,0.35398 0.0397,0.35291 0.0741,0.35079 0.0347,0.3072 0.0326,0.34831 0.067,0.30508 0.0287,0.30366 0.0269,0.30224 0.0624,0.30154 0.0237,0.25866 0.023,0.29977 v 0 z m 0.23031,8.85933 -18.6548,-0.2289 v 0 l 0.002,-0.21154 0.002,-0.21685 0.002,-0.17929 0.002,-0.22571 0.002,-0.22925 10e-4,-0.19098 7.1e-4,-0.23599 10e-4,-0.19701 v -0.24165 l -3.5e-4,-0.20197 -0.0372,-0.24519 0.0351,-0.24768 -10e-4,-0.20587 -0.003,-0.20728 -0.003,-0.20729 -0.004,-0.2498 -0.005,-0.20764 -0.005,-0.20657 -0.006,-0.20587 -0.007,-0.2048 -0.008,-0.20268 -0.008,-0.15909 -0.01,-0.19878 -0.0106,-0.1963 -0.0117,-0.15095 -0.0124,-0.14775 -0.0142,-0.18602 -0.0149,-0.13997 -0.0159,-0.1357 0.0198,-0.13111 -0.0184,-0.0836 -0.0199,-0.12047 18.57048,-2.45976 0.0205,0.28842 0.0191,0.33591 0.0546,0.29905 0.0166,0.30366 0.0156,0.30792 0.0142,0.27035 0.0131,0.31571 0.0124,0.3189 0.0106,0.27992 0.0103,0.28311 0.009,0.32705 0.008,0.287 0.007,0.28843 0.006,0.2902 0.006,0.2909 0.005,0.29126 0.004,0.2498 0.004,0.29162 0.003,0.2909 0.002,0.2902 0.0379,0.24697 -0.0358,0.2459 3.6e-4,0.28559 v 0.24166 l -3.6e-4,0.28134 -7.1e-4,0.23598 -10e-4,0.27532 -0.002,0.22925 -0.002,0.22571 -0.002,0.26291 -0.002,0.21685 -0.002,0.21154 v 0 z m -2.13059,17.89263 -18.01843,-5.61047 v 0 l 0.0854,-0.39685 0.0801,-0.4376 0.11197,-0.39543 0.0698,-0.43547 0.10205,-0.43477 0.0609,-0.39012 0.0928,-0.43086 0.051,-0.42839 0.0836,-0.42626 0.0794,-0.42378 0.0383,-0.37878 0.0709,-0.41775 0.0301,-0.41386 0.0627,-0.41102 0.0588,-0.40713 0.0549,-0.40252 0.0145,-0.44079 0.0475,-0.39437 0.0443,-0.38976 0.0404,-0.38445 0.0376,-0.37949 -0.002,-0.37382 0.0305,-0.41031 0.0276,-0.36248 0.0248,-0.35681 0.022,-0.35008 0.0188,-0.38516 0.0163,-0.33697 0.0138,-0.32953 0.0106,-0.36425 0.009,-0.315 0.006,-0.3072 18.6548,0.2289 -0.006,0.47515 -0.008,0.48296 -0.0106,0.44858 -0.0131,0.49748 -0.0156,0.50492 -0.0181,0.46949 -0.0213,0.51803 -0.0241,0.52476 -0.0269,0.53044 -0.0305,0.49464 -0.0698,0.54248 -0.0368,0.54744 -0.0397,0.55241 -0.0436,0.55771 -0.0468,0.56232 -0.0875,0.52512 -0.0542,0.57118 -0.0581,0.57508 -0.062,0.57898 -0.1024,0.58252 -0.0702,0.58571 -0.11055,0.63106 -0.0787,0.59173 -0.0829,0.59421 -0.12402,0.59705 -0.0921,0.59882 -0.13252,0.64311 -0.10133,0.60272 -0.1428,0.60413 -0.11055,0.64701 -0.15236,0.60626 -0.15768,0.64913 v 0 z m -2.77158,9.31713 -17.22472,-8.38843 v 0 l 0.0886,-0.19913 0.0879,-0.19949 0.0503,-0.19913 0.0857,-0.15697 0.0478,-0.19949 0.0836,-0.19984 0.0457,-0.19984 0.0815,-0.19985 0.0808,-0.20019 0.0429,-0.20055 0.0787,-0.20126 0.0411,-0.20126 0.0765,-0.20197 0.0762,-0.20233 0.0383,-0.20303 0.0744,-0.20374 0.0365,-0.20374 0.0723,-0.20515 0.0716,-0.20552 0.0344,-0.20622 0.0702,-0.20728 0.0691,-0.20799 0.0322,-0.16654 0.0673,-0.25193 0.067,-0.21082 0.0298,-0.21154 0.0659,-0.21295 0.0645,-0.21366 0.0645,-0.21544 0.0273,-0.21614 0.0631,-0.21756 0.0624,-0.21862 18.01843,5.61047 -0.0624,0.30296 -0.0624,0.30189 -0.10028,0.30047 -0.0638,0.29905 -0.0645,0.298 -0.0652,0.29657 -0.10275,0.29657 -0.067,0.29445 -0.0673,0.25193 -0.10453,0.3352 -0.0691,0.29232 -0.0695,0.29091 -0.10737,0.29055 -0.0709,0.28984 -0.0723,0.28878 -0.10949,0.28878 -0.0737,0.28736 -0.11126,0.28737 -0.0755,0.28665 -0.0765,0.28559 -0.1141,0.2863 -0.0779,0.28488 -0.11587,0.28488 -0.0801,0.28453 -0.0815,0.28417 -0.1187,0.28418 -0.0829,0.28346 -0.12083,0.28382 -0.085,0.32563 -0.12331,0.28346 -0.0872,0.28311 -0.0886,0.28347 v 0 z m -6.27661,10.98106 -14.32063,-13.69913 v 0 l 0.10063,-0.14811 0.10595,-0.15768 0.11126,-0.16724 0.11586,-0.17646 0.11941,-0.18461 0.12331,-0.19275 0.12685,-0.19984 0.16618,-0.16477 0.13146,-0.2126 0.13322,-0.21826 0.135,-0.22359 0.13536,-0.22783 0.13571,-0.23209 0.13606,-0.23527 0.13571,-0.19595 0.13429,-0.24059 0.13358,-0.2002 0.13111,-0.24378 0.12933,-0.20196 0.12614,-0.20197 0.12331,-0.20197 0.11905,-0.20091 0.079,-0.19878 0.11055,-0.19736 0.0694,-0.15236 0.0999,-0.14917 0.0577,-0.14563 0.051,-0.14103 0.0446,-0.0939 0.0372,-0.0889 0.0294,-0.0407 -0.0152,-0.034 17.22472,8.38843 -0.20232,0.45567 -0.17397,0.46169 -0.18178,0.42555 -0.18992,0.43122 -0.1963,0.39402 -0.20303,0.39862 -0.1722,0.40146 -0.21473,0.40535 -0.18283,0.36532 -0.22429,0.36815 -0.19205,0.36956 -0.19559,0.36992 -0.19843,0.37063 -0.20161,0.37063 -0.20409,0.32811 -0.20587,0.36886 -0.20728,0.32492 -0.208,0.36461 -0.20905,0.31961 -0.2087,0.31641 -0.20835,0.31217 -0.20728,0.30791 -0.20622,0.3026 -0.20445,0.29764 -0.16547,0.33272 -0.19914,0.28417 -0.1963,0.27709 -0.1924,0.26893 -0.18886,0.26079 -0.18354,0.25228 -0.17894,0.24201 -0.17362,0.23244 v 0 z m -48.69708,2.22201 14.50204,-13.52835 v 0 l 0.36815,0.47693 0.3841,0.46524 0.43228,0.37027 0.43972,0.36284 0.44469,0.35646 0.51768,0.26822 0.51448,0.26611 0.58146,0.2661 0.60662,0.1839 0.62893,0.1885 0.64736,0.10984 0.73524,0.11764 0.70937,0.0443 0.79016,0.0138 0.79299,-0.056 0.79335,-0.0819 0.82523,-0.14741 0.7813,-0.16901 0.80646,-0.18886 0.82736,-0.24839 0.77244,-0.30578 0.78626,-0.31961 0.72284,-0.37275 0.72992,-0.38233 0.6959,-0.43122 0.65835,-0.43724 0.58039,-0.43937 0.5726,-0.48331 0.5237,-0.44043 0.43441,-0.47977 0.41492,-0.47409 0.35575,-0.42555 14.32063,13.69913 -1.08283,1.43823 -1.14343,1.31882 -1.2359,1.24016 -1.25221,1.20082 -1.3011,1.07575 -1.38331,1.03252 -1.38756,0.94536 -1.42582,0.8557 -1.45914,0.80681 -1.52645,0.71363 -1.51619,0.65976 -1.57606,0.56232 -1.55799,0.50492 -1.61008,0.4454 -1.65862,0.34193 -1.62957,0.23669 -1.67067,0.17043 -1.67102,0.0609 -1.66748,-0.009 -1.7341,-0.12224 -1.68626,-0.1963 -1.74578,-0.35575 -1.72737,-0.4337 -1.70574,-0.59776 -1.67989,-0.67996 -1.68732,-0.84791 -1.61823,-1.01799 -1.61822,-1.10622 -1.54099,-1.28056 -1.46055,-1.45736 -1.41236,-1.55161 -1.32484,-1.73197 v 0 z m -7.63016,-22.21087 18.6548,0.31323 v 0 0.19347 l 0.0184,0.18992 0.0351,0.18708 0.0156,0.22536 -0.005,0.17964 0.0471,0.21721 0.0613,0.25476 0.039,0.20764 0.0524,0.28701 0.0645,0.23917 0.0769,0.27567 0.0875,0.26965 0.0982,0.26291 0.10807,0.2987 0.0804,0.29162 0.12508,0.28452 0.13288,0.27674 0.14031,0.31145 0.10949,0.26114 0.15165,0.29445 0.15662,0.32776 0.16086,0.27708 0.16441,0.30969 0.16689,0.25795 0.16937,0.2902 0.17044,0.27992 0.17114,0.31181 0.17149,0.25902 0.17044,0.24767 0.16901,0.27815 0.16725,0.26717 0.2009,0.25476 -14.50204,13.52835 -0.27461,-0.42201 -0.31394,-0.43441 -0.31642,-0.44539 -0.31783,-0.49925 -0.31819,-0.50989 -0.31854,-0.47905 -0.31784,-0.5315 -0.31677,-0.54106 -0.31429,-0.59386 -0.31181,-0.56055 -0.30827,-0.61228 -0.30401,-0.57933 -0.29977,-0.62965 -0.33059,-0.67996 -0.28772,-0.64665 -0.28098,-0.69626 -0.27319,-0.70335 -0.30153,-0.71114 -0.25618,-0.71752 -0.24626,-0.76677 -0.23634,-0.7728 -0.225,-0.77882 -0.21331,-0.82665 -0.20055,-0.79016 -0.1878,-0.87945 -0.13712,-0.84224 -0.12296,-0.88902 -0.14421,-0.93507 -0.0914,-0.89717 -0.0386,-0.94323 -0.0213,-0.94677 -0.003,-0.94961 v 0 z m 5.11086,-26.49295 16.64504,9.65197 v 0 l -0.14563,0.42449 -0.17362,0.43193 -0.16476,0.39649 -0.1924,0.44575 -0.1467,0.45213 -0.13889,0.45886 -0.16619,0.46523 -0.12189,0.47126 -0.14988,0.47799 -0.14102,0.48367 -0.13323,0.48968 -0.12508,0.49535 -0.11693,0.54284 -0.10913,0.50669 -0.10063,0.55347 -0.0932,0.51697 -0.085,0.56409 -0.11445,0.52724 -0.0698,0.57367 -0.0985,0.57897 -0.0553,0.54071 -0.084,0.58748 -0.04,0.59173 -0.0691,0.59563 -0.0624,0.59953 -0.0184,0.60378 -0.0478,0.60697 -0.0415,0.61086 -0.034,0.65658 -0.0269,0.6176 -0.0209,0.62078 -0.0138,0.66579 -18.6548,-0.31323 0.0131,-0.83374 0.0195,-0.87307 0.0262,-0.86917 0.0333,-0.82453 0.04,-0.86315 0.0471,-0.85925 0.0907,-0.85606 0.0609,-0.85181 0.0684,-0.84792 0.11232,-0.84401 0.0826,-0.83977 0.12685,-0.87732 0.0978,-0.83055 0.14208,-0.82665 0.11303,-0.86315 0.15733,-0.81638 0.16476,-0.85358 0.17291,-0.80646 0.18071,-0.8426 0.18922,-0.79583 0.19665,-0.83196 0.2048,-0.8263 0.21331,-0.82028 0.22146,-0.8139 0.26645,-0.80858 0.23847,-0.80185 0.28346,-0.79547 0.29197,-0.78945 0.26398,-0.78236 0.30933,-0.81744 0.31819,-0.76855 0.36389,-0.76181 v 0 z m 23.33481,-23.26393 6.95763,19.87582 0.0365,-3.5e-4 -0.72815,0.33555 -0.70937,0.33626 -0.69094,0.33768 -0.63638,0.34051 -0.61902,0.34441 -0.56551,0.30756 -0.54921,0.31393 -0.53256,0.32174 -0.51732,0.33023 -0.46524,0.29835 -0.45071,0.30862 -0.43618,0.32138 -0.42236,0.33484 -0.4089,0.30685 -0.35929,0.32244 -0.38303,0.3398 -0.33485,0.31571 -0.35893,0.3352 -0.31146,0.35469 -0.33697,0.377 -0.32704,0.39969 -0.31642,0.3809 -0.30721,0.44823 -0.33484,0.43299 -0.28949,0.45957 -0.31712,0.53079 -0.31004,0.51803 -0.33874,0.59102 -0.33201,0.62363 -0.32492,0.65586 -0.31961,0.69059 -0.35008,0.72638 -16.64504,-9.65197 0.49465,-1.14732 0.53717,-1.11225 0.54318,-1.07751 0.54957,-1.04457 0.5563,-1.01268 0.60059,-1.02401 0.60839,-0.95245 0.65303,-0.96626 0.62539,-0.93826 0.67075,-0.87059 0.68067,-0.8876 0.69059,-0.82205 0.70122,-0.79866 0.7487,-0.77776 0.72319,-0.75756 0.77138,-0.73807 0.74799,-0.67783 0.79654,-0.66118 0.77314,-0.64559 0.78733,-0.58855 0.80114,-0.57578 0.81496,-0.56303 0.8302,-0.55205 0.80929,-0.50032 0.82453,-0.4911 0.84118,-0.48401 0.85748,-0.47693 0.83799,-0.43016 0.85535,-0.42555 0.83693,-0.42272 0.85536,-0.4213 0.87413,-0.41988 z m 1.35637,11.25885 16.56496,-9.84259 v 0 l 0.77138,2.2507 0.36532,2.62559 -0.14882,2.66493 -0.66189,2.32653 -0.88087,1.90169 -0.91452,1.39252 -0.90851,1.00878 -0.8263,0.79264 -0.74197,0.57685 -0.69059,0.44469 -0.60059,0.39685 -0.5811,0.3072 -0.55913,0.30154 -0.53398,0.21189 -0.47091,0.20622 -0.47763,0.20055 -0.48225,0.15342 -0.41102,0.1474 -0.44752,0.14209 -0.37134,0.13642 -0.40216,0.1311 -0.35788,0.0833 -0.3111,0.12012 -0.33449,0.0723 -0.28346,0.0663 -0.2289,0.0609 -0.20835,0.0553 -0.14882,0.05 -0.0879,0.002 0.0493,-0.004 0.22606,-0.0528 0.69626,-0.31288 -6.95763,-19.87582 0.83728,-0.36815 0.43157,-0.11941 0.31571,-0.0815 0.23386,-0.0868 0.22252,-0.05 0.20835,-0.0553 0.2289,-0.0609 0.20976,-0.0663 0.1885,-0.0716 0.23811,-0.0351 0.21189,-0.0825 0.18319,-0.0461 0.22536,-0.0514 0.15484,-0.0563 0.19205,-0.0624 0.11657,-0.067 0.11268,-0.0305 0.10594,-0.0361 0.023,-0.0411 -0.0248,0.0379 -0.0758,0.033 -0.12933,0.11125 -0.25759,0.14918 -0.35221,0.27 -0.48472,0.47516 -0.62079,0.68066 -0.68492,1.05378 -0.71433,1.55233 -0.5641,1.96653 -0.1233,2.29429 0.31287,2.24433 0.63531,1.85882 v 0 z m -3.48696,-16.92815 18.6548,0.31323 v 0 l -0.003,0.16477 0.002,0.17043 0.007,0.2172 0.011,0.17965 0.0163,0.18425 0.0205,0.1878 0.0259,0.19169 -0.006,0.23776 0.0361,0.19842 0.004,0.20162 0.0461,0.2459 0.0142,0.20693 0.0556,0.25051 0.0245,0.21083 0.0294,0.21224 0.0716,0.25547 0.04,0.21437 0.045,0.21544 0.051,0.25795 0.056,0.21579 0.0613,0.21614 0.067,0.21579 0.0361,0.25689 0.0779,0.21437 0.0836,0.21295 0.0521,0.21189 0.095,0.20976 0.0641,0.20835 0.0695,0.20587 0.0755,0.20338 0.0815,0.20055 0.0868,0.19737 -16.56496,9.84259 -0.23492,-0.53256 -0.22889,-0.53574 -0.22288,-0.53859 -0.21756,-0.54106 -0.21153,-0.54354 -0.16937,-0.54567 -0.2002,-0.54709 -0.15803,-0.54886 -0.15236,-0.54956 -0.18355,-0.50847 -0.14137,-0.55169 -0.13571,-0.55134 -0.1304,-0.55169 -0.12543,-0.50953 -0.11941,-0.55134 -0.11445,-0.55027 -0.073,-0.50705 -0.10382,-0.54815 -0.0989,-0.54673 -0.057,-0.5028 -0.0886,-0.54212 -0.0468,-0.49819 -0.0787,-0.53752 -0.0368,-0.53433 -0.0684,-0.48933 -0.0273,-0.5276 -0.022,-0.52441 -0.0177,-0.52016 -0.0124,-0.51555 -0.008,-0.46949 -0.003,-0.50634 0.001,-0.50138 v 0 z m 11.3563,-24.43925 12.42779,15.9789 v 0 l -0.29055,0.29126 -0.28772,0.34405 -0.28417,0.31146 -0.27992,0.32173 -0.27532,0.33059 -0.27,0.33981 -0.26362,0.30579 -0.25724,0.35645 -0.24981,0.32209 -0.242,0.37098 -0.23315,0.33626 -0.2243,0.34264 -0.21437,0.34866 -0.20409,0.31252 -0.19311,0.36 -0.14457,0.32244 -0.16901,0.3274 -0.15626,0.28949 -0.14315,0.29303 -0.12827,0.29693 -0.11374,0.29906 -0.0989,0.26043 -0.0826,0.26221 -0.1024,0.22216 -0.0485,0.22323 -0.0312,0.18248 -0.0489,0.18283 -0.0298,0.18355 -0.0103,0.14102 -0.0262,0.0989 -0.006,0.0974 -0.0205,0.0967 -18.6548,-0.31323 0.0163,-1.02082 0.0751,-1.02225 0.0957,-1.02366 0.15343,-0.9822 0.17291,-0.9404 0.19205,-0.94039 0.24732,-0.94004 0.2654,-0.89646 0.24625,-0.89539 0.29941,-0.85181 0.31571,-0.84933 0.3313,-0.80504 0.34583,-0.80221 0.36,-0.7983 0.37382,-0.79477 0.38657,-0.74905 0.43583,-0.7441 0.41138,-0.69732 0.42165,-0.73417 0.43264,-0.68599 0.44185,-0.67996 0.45142,-0.67358 0.46027,-0.62468 0.46807,-0.65941 0.47551,-0.60945 0.48189,-0.64382 0.48827,-0.5928 0.49358,-0.58429 0.49819,-0.57472 0.50315,-0.56516 0.50599,-0.51272 0.50953,-0.54496 v 0 z m 24.11787,-8.46708 -0.42449,21.43063 v 0 l -0.33449,-0.009 -0.42201,10e-4 -0.36212,0.0124 -0.41067,0.0227 -0.42165,0.0344 -0.43123,0.045 -0.43972,0.0567 -0.44716,0.0259 -0.45284,0.0797 -0.45779,0.0496 -0.46134,0.10311 -0.46311,0.0737 -0.42839,0.0858 -0.46417,0.0981 -0.46311,0.1109 -0.42414,0.12331 -0.42023,0.13642 -0.41492,0.14917 -0.4089,0.12047 -0.40181,0.13359 -0.35611,0.14704 -0.34653,0.16087 -0.3352,0.17468 -0.2863,0.14599 -0.27283,0.16051 -0.25866,0.13287 -0.24201,0.1467 -0.18886,0.11976 -0.17008,0.13394 -0.11409,0.10701 -0.0935,0.0797 -0.0716,0.0531 -12.42779,-15.9789 0.72708,-0.72921 0.74906,-0.67146 0.77031,-0.61511 0.75402,-0.55772 0.77208,-0.54284 0.75296,-0.48614 0.76889,-0.47161 0.78378,-0.41563 0.79796,-0.4011 0.77315,-0.34548 0.78448,-0.33094 0.79477,-0.31784 0.76677,-0.30366 0.77386,-0.29055 0.78059,-0.23563 0.7852,-0.22216 0.7898,-0.20977 0.75508,-0.19665 0.75685,-0.1839 0.79334,-0.17149 0.75579,-0.15945 0.75402,-0.10524 0.74976,-0.13535 0.74551,-0.0812 0.73914,-0.11161 0.7324,-0.0581 0.7239,-0.0471 0.71433,-0.0358 0.70334,-0.0248 0.7278,-0.0138 0.64169,-0.003 0.70016,0.007 v 0 z m 10.61043,12.6372 -18.6548,-0.31323 v 0 l 0.001,0.18709 -0.001,0.31677 -0.005,0.23634 0.0294,0.32315 0.0631,0.36815 0.0602,0.37169 0.0935,0.37488 0.0907,0.42024 0.12472,0.46559 0.15803,0.46843 0.1917,0.4298 0.22535,0.51661 0.29551,0.47764 0.29232,0.48118 0.28914,0.44256 0.35929,0.44504 0.3561,0.40677 0.42626,0.40925 0.38622,0.32918 0.41953,0.28984 0.37984,0.29338 0.41386,0.25441 0.40961,0.17434 0.33413,0.17716 0.40358,0.13854 0.29055,0.0999 0.32422,0.0617 0.28452,0.0645 0.28134,0.0262 0.2413,0.0294 0.20197,0.0329 0.19878,-0.006 0.42449,-21.43063 0.38657,0.002 0.38339,0.0478 0.41705,0.0507 0.4507,0.0539 0.44752,0.0992 0.48154,0.10205 0.4415,0.1474 0.54885,0.1924 0.47233,0.23811 0.54283,0.24095 0.54,0.32811 0.50032,0.37346 0.53433,0.37701 0.49464,0.42201 0.52831,0.50988 0.45248,0.51307 0.44929,0.55843 0.37347,0.56232 0.37027,0.60732 0.3678,0.61087 0.29126,0.65693 0.25122,0.57578 0.2126,0.62221 0.1722,0.62504 0.13252,0.58677 0.12969,0.5485 0.09,0.5517 0.0872,0.55523 0.0471,0.51662 0.007,0.43618 0.005,0.5237 10e-4,0.4011 v 0 z m -9.34618,12.13406 -4.83945,-20.72835 v 0 l 0.0202,0.0131 -0.0142,-0.0305 0.0248,0.009 -0.0103,0.008 -0.009,0.005 -0.008,0.004 -0.007,0.002 h -0.0432 l -0.0436,0.0397 -0.0439,-0.004 -0.0446,0.0361 -0.0457,0.0337 -0.084,0.0322 -0.0858,0.0305 -0.12366,0.11233 -0.12685,0.0687 -0.12934,0.0663 -0.16866,0.14881 -0.20905,0.14705 -0.2126,0.18638 -0.2165,0.22713 -0.29445,0.26681 -0.2987,0.34901 -0.30437,0.34725 -0.30862,0.47055 -0.35114,0.59527 -0.32102,0.63461 -0.3267,0.75862 -0.26043,0.84012 -0.23067,0.92197 -0.16512,0.9613 -0.0266,1.00027 18.6548,0.31323 -0.0372,1.18453 -0.19205,1.14201 -0.27319,1.09771 -0.31713,1.01162 -0.39826,0.92657 -0.40465,0.7976 -0.44823,0.75402 -0.41775,0.62574 -0.42414,0.49748 -0.42909,0.49571 -0.43477,0.40925 -0.36602,0.36461 -0.37063,0.32102 -0.37417,0.27674 -0.34158,0.27425 -0.30862,0.18815 -0.3111,0.18638 -0.31358,0.22641 -0.27993,0.13961 -0.28098,0.13783 -0.24626,0.13571 -0.24732,0.13394 -0.24803,0.0897 -0.24839,0.12968 -0.24874,0.0857 -0.21153,0.0836 -0.21154,0.0815 -0.21012,0.0797 -0.2087,0.0779 -0.17079,0.0755 -0.20551,0.0319 -0.16618,0.0719 v 0 z m -2.85342,-20.10579 -3.49796,21.11244 -1.47437,-20.62169 0.0496,-0.0365 0.0794,-0.034 3.5e-4,0.0103 0.0677,-0.0298 0.0627,-0.0276 0.0585,-0.0259 0.0181,-0.0237 0.051,0.0191 0.0482,-0.0634 0.0461,-0.0206 0.0811,-0.0202 0.11587,-0.0609 0.0794,-0.0184 0.079,-0.0602 0.11587,-0.0181 0.11728,-0.0602 0.11906,-0.0184 0.12082,-0.0606 0.0868,-0.0191 0.12685,-0.062 0.1304,-0.0627 0.0985,-0.022 0.13961,-0.0648 0.0723,-0.0241 0.1513,-0.0266 0.0847,-0.0273 0.12862,-0.0298 0.13535,-0.0737 0.10772,-0.034 0.15307,-0.0368 0.12579,-0.039 0.13535,-0.0422 4.83945,20.72835 -0.13535,0.0422 -0.12579,0.039 -0.0794,0.0361 -0.10772,0.034 -0.0631,-0.0106 -0.0549,0.0298 -0.0847,0.0273 -0.005,0.0252 -0.0723,0.0241 0.006,-0.0195 -0.0255,0.0213 0.0156,-0.0223 0.0191,-0.0223 -0.0138,0.0184 0.0252,-0.0245 0.0276,0.0177 0.0287,-0.0248 0.0301,0.0174 -0.006,-0.0241 -0.006,0.0177 0.0301,-0.0234 -0.008,0.0195 -0.0461,0.0205 -0.0482,-0.0209 -0.051,0.0652 -0.0911,0.0245 -0.0585,0.0259 -0.0627,0.0276 -0.0677,0.0298 -0.14634,0.074 -0.0794,0.034 -0.12259,0.0372 -1.47437,-20.62169 z m -3.49796,21.11244 -33.04523,-7.22516 31.57086,-13.39653 z m -23.02405,56.67626 -18.26929,4.55882 v 0 l -0.16229,-1.01941 -0.14279,-0.98646 -0.0865,-0.95279 -0.0315,-0.9606 -0.0138,-0.96661 0.005,-0.88831 0.0216,-0.93508 0.0748,-0.93826 0.0911,-0.85748 0.1063,-0.90107 0.12154,-0.85996 0.17291,-0.85996 0.15024,-0.85854 0.2002,-0.85677 0.2133,-0.81177 0.22607,-0.80788 0.23811,-0.80327 0.2498,-0.79724 0.29693,-0.79087 0.27106,-0.78236 0.31748,-0.73275 0.32705,-0.765 0.29976,-0.75437 0.38091,-0.70158 0.35256,-0.73063 0.36,-0.67571 0.40323,-0.7037 0.40996,-0.68846 0.45212,-0.67252 0.45744,-0.65551 0.46276,-0.63745 0.5035,-0.61901 13.66583,14.54315 -0.067,0.11232 -0.0985,0.13146 -0.0939,0.14882 -0.0886,0.16653 -0.11941,0.18248 -0.11268,0.19772 -0.14244,0.25405 -0.135,0.22536 -0.0904,0.27992 -0.15519,0.24909 -0.10949,0.25973 -0.0999,0.3111 -0.12721,0.2778 -0.0794,0.28559 -0.10523,0.29197 -0.0942,0.29799 -0.0815,0.3033 -0.0694,0.3065 -0.0563,0.26787 -0.0794,0.26965 -0.029,0.27106 -0.0507,0.27107 -0.0361,0.22854 -0.0202,0.26858 -0.005,0.18213 -0.0245,0.17823 -0.007,0.21649 0.0103,0.12614 0.028,0.12012 0.01,0.11303 -0.007,0.0631 0.0121,0.0117 v 0 z m 0.60236,2.63693 -16.34315,10.43008 v 0 l -0.14173,-0.30969 -0.13925,-0.31217 -0.13784,-0.27177 -0.0996,-0.31641 -0.13465,-0.31819 -0.13287,-0.27815 -0.095,-0.3228 -0.0935,-0.24094 -0.0925,-0.3267 -0.1272,-0.287 -0.0893,-0.28878 -0.0882,-0.29126 -0.0503,-0.25122 -0.0857,-0.25335 -0.0854,-0.29728 -0.0836,-0.2576 -0.0464,-0.25937 -0.0818,-0.26114 -0.045,-0.22181 -0.0804,-0.2654 -0.0432,-0.26752 -0.079,-0.26929 -0.0422,-0.22961 -0.0411,-0.23137 -0.0776,-0.23315 -0.0408,-0.2778 -0.04,-0.19523 -0.0397,-0.23918 -0.04,-0.2413 -0.0758,-0.24307 -0.0393,-0.24484 -0.0393,-0.2048 18.26929,-4.55882 0.0393,0.2048 0.0386,0.16122 0.003,0.15945 0.0393,0.15697 0.0397,0.15555 0.04,0.19524 0.04,0.10913 0.004,0.14953 0.0411,0.14775 0.0415,0.14528 0.005,0.10205 0.0425,0.0996 0.007,0.0974 0.0443,0.13748 0.008,0.0939 0.0457,0.0914 0.01,0.0896 0.011,0.0457 0.0121,0.0854 0.0496,0.0833 0.0138,0.0397 0.0156,0.0372 -0.0202,0.0354 0.0181,-0.009 0.0191,0.073 0.0206,-0.0131 -0.0145,0.0273 -0.0128,-0.017 0.0251,-0.0195 -0.01,0.0209 -0.008,-0.0237 -0.006,-0.0255 v 0 z m -1.46657,-1.49422 -6.50126,20.12103 v 0 l -0.30189,-0.1513 -0.3352,-0.15378 -0.3313,-0.15591 -0.32776,-0.15838 -0.32456,-0.20303 -0.32103,-0.16335 -0.31748,-0.20764 -0.31464,-0.21047 -0.3111,-0.21225 -0.30827,-0.21507 -0.30508,-0.21721 -0.30225,-0.26149 -0.2987,-0.22217 -0.29622,-0.2661 -0.29303,-0.26894 -0.25405,-0.27106 -0.28772,-0.27319 -0.24839,-0.27602 -0.2824,-0.27745 -0.24307,-0.32279 -0.24059,-0.28276 -0.20161,-0.28488 -0.23599,-0.32917 -0.23315,-0.28949 -0.19488,-0.33378 -0.19205,-0.29409 -0.18992,-0.29622 -0.225,-0.34016 -0.14882,-0.30154 -0.18389,-0.3026 -0.14563,-0.34724 -0.17965,-0.3072 16.34315,-10.43008 -0.0407,-0.0273 -0.002,-0.0723 -0.0372,-0.0319 0.001,-0.0344 -0.0698,-0.078 -0.0305,-0.039 -0.0291,-0.0404 -0.0262,-0.085 -0.0609,-0.045 -0.0581,-0.0897 -0.0195,-0.0496 -0.0535,-0.0517 -0.051,-0.096 -0.0847,-0.0563 -0.0457,-0.0585 -0.0794,-0.0606 -0.04,-0.0634 -0.0741,-0.0656 -0.0709,-0.0677 -0.0677,-0.028 -0.0648,-0.0723 -0.062,-0.033 -0.0588,-0.0351 -0.0553,-0.0372 -0.0524,-0.0397 -0.0489,-0.0425 -0.0454,-0.002 -0.0425,-0.0471 -0.0386,-0.007 -0.0351,-0.01 -0.0312,-0.012 0.009,-0.0152 v 0 z m -0.33378,-0.11657 13.37456,14.9648 v 0 l -0.41953,0.48437 -0.42413,0.47445 -0.42838,0.42272 -0.46914,0.45531 -0.47303,0.44433 -0.47728,0.43406 -0.51803,0.38126 -0.52229,0.41208 -0.52583,0.35894 -0.56692,0.3476 -0.57048,0.37701 -0.61157,0.3235 -0.57933,0.26858 -0.65587,0.29871 -0.62397,0.24342 -0.66367,0.22996 -0.66862,0.17469 -0.67216,0.16122 -0.67571,0.14704 -0.68032,0.0904 -0.72071,0.0762 -0.68775,0.0195 -0.65516,0.004 -0.7324,-0.0106 -0.69945,-0.0691 -0.70335,-0.0843 -0.70724,-0.1428 -0.71114,-0.11692 -0.67819,-0.21827 -0.68173,-0.1924 -0.64949,-0.25229 -0.68917,-0.26964 6.50126,-20.12103 0.0301,0.0209 0.0627,0.004 0.0227,0.0287 0.0191,-0.0305 -0.0209,0.0376 -0.0248,-0.0216 -0.0287,0.005 -0.0319,-0.011 -0.0726,0.0156 -0.003,-3.5e-4 -0.0436,-0.0152 -0.0836,0.0124 -0.051,-0.002 -0.0549,0.0252 -0.0585,0.0117 -0.0627,-0.002 -0.0663,0.0259 -0.0337,0.0124 -0.074,0.0422 -0.005,-0.0135 -0.0454,0.0167 -0.0128,0.0461 -0.017,-0.008 0.0156,-0.0195 0.0113,0.011 0.008,-0.0425 0.04,-0.011 0.0358,-0.022 0.0319,-0.0322 0.0641,-0.0847 0.0599,-0.0521 0.056,-0.062 v 0 z m 2.90232,-7.21488 18.16157,4.93795 v 0 l -0.13039,0.56728 -0.0989,0.56622 -0.13996,0.60662 -0.14492,0.56303 -0.14953,0.56091 -0.15449,0.55913 -0.15874,0.5563 -0.16334,0.55346 -0.16796,0.5928 -0.20941,0.54744 -0.17752,0.54354 -0.18212,0.54036 -0.22252,0.57791 -0.19134,0.5315 -0.23209,0.56941 -0.23669,0.52228 -0.24059,0.55878 -0.24555,0.55417 -0.2498,0.5478 -0.25441,0.50031 -0.25902,0.53646 -0.26291,0.52937 -0.30402,0.52335 -0.30862,0.5159 -0.31252,0.55134 -0.31713,0.50138 -0.32137,0.49393 -0.36213,0.52796 -0.32988,0.47763 -0.37063,0.5113 -0.41173,0.46063 -0.37914,0.49323 -13.37456,-14.9648 0.0879,-0.0716 0.0475,-0.12259 0.0794,-0.0897 0.11232,-0.13961 0.0709,-0.1063 0.10382,-0.15661 0.0989,-0.16405 0.095,-0.12969 0.0904,-0.17858 0.0857,-0.18603 0.11835,-0.19275 0.11374,-0.19914 0.10913,-0.24732 0.10524,-0.21118 0.10027,-0.21685 0.096,-0.22217 0.0914,-0.26929 0.0868,-0.23208 0.11906,-0.27922 0.0779,-0.24129 0.10984,-0.28737 0.10524,-0.29126 0.0641,-0.29445 0.0964,-0.25618 0.0911,-0.30118 0.0872,-0.30401 0.0822,-0.30615 0.0772,-0.30862 0.0726,-0.31075 0.0684,-0.27 0.0996,-0.31393 0.0588,-0.315 v 0 z m 0.0967,-8.1117 18.19488,-4.89401 v 0 l 0.10418,0.50846 0.10063,0.51485 0.0606,0.52122 0.0932,0.48508 0.0893,0.53255 0.0489,0.53823 0.0811,0.5439 0.04,0.50669 0.0365,0.51201 0.0684,0.55807 0.0276,0.56303 0.0227,0.52477 0.0181,0.57153 0.0135,0.53292 0.009,0.57897 0.003,0.49855 -10e-4,0.58535 -0.006,0.58854 -0.012,0.54922 -0.017,0.59421 -0.0223,0.55453 -0.0283,0.59882 -0.0698,0.60059 -0.0393,0.5609 -0.0818,0.60413 -0.0507,0.60556 -0.0935,0.60696 -0.0996,0.60804 -0.0691,0.60874 -0.11232,0.56763 -0.11835,0.60981 -0.12508,0.6098 -18.16157,-4.93795 0.0528,-0.27319 0.0468,-0.27319 0.04,-0.31465 0.0705,-0.27283 0.028,-0.27142 0.022,-0.27035 0.0521,-0.26965 0.01,-0.26752 0.0408,-0.30862 -0.002,-0.26468 0.0291,-0.26221 0.0237,-0.30224 0.0184,-0.25831 0.0127,-0.29693 0.008,-0.25264 0.002,-0.24945 -0.002,-0.33059 -0.007,-0.24236 -0.012,-0.28134 -0.0174,-0.23492 -0.0213,-0.27319 -0.0262,-0.22642 0.006,-0.22287 -0.0351,-0.25972 -0.0393,-0.25441 -0.007,-0.208 -0.0475,-0.20232 -0.0149,-0.19665 -0.0188,-0.23351 -0.0592,-0.18531 -0.0262,-0.17894 -0.0298,-0.17327 v 0 z m 5.49496,2.50619 -2.2089,-21.33142 v 0 l 0.75579,-0.0716 0.78484,-0.0131 0.77741,0.003 0.80716,0.0606 0.80008,0.1598 0.82949,0.21721 0.82346,0.27354 0.77988,0.33024 0.77351,0.38693 0.73063,0.44291 0.68775,0.49854 0.64524,0.51166 0.60236,0.56693 0.5602,0.58003 0.48047,0.55063 0.47551,0.60414 0.39614,0.61689 0.39119,0.58571 0.34901,0.59704 0.30685,0.56587 0.26575,0.57614 0.29693,0.58642 0.21898,0.55453 0.21401,0.56409 0.17291,0.53114 0.20516,0.53965 0.16406,0.54815 0.12366,0.51484 0.1559,0.52228 0.11516,0.52973 0.11162,0.49535 0.10771,0.50209 -18.19488,4.89401 -0.0333,-0.16618 -0.0365,-0.15945 -0.0408,-0.11019 -0.008,-0.10276 -0.0485,-0.0953 -0.0159,-0.045 0.0166,-0.0365 -0.0248,-0.028 0.008,0.0234 0.003,0.0323 0.0716,0.084 0.0298,0.0942 0.0616,0.10382 0.0932,0.15696 0.12401,0.1676 0.11906,0.22075 0.18638,0.23209 0.18071,0.20197 0.24838,0.25547 0.2785,0.26858 0.30863,0.23882 0.3398,0.25193 0.36921,0.22323 0.39933,0.19488 0.39225,0.16724 0.42236,0.1389 0.41492,0.11232 0.37134,0.0854 0.36354,0.0166 0.32032,-0.009 0.31216,0.007 0.26823,-0.0184 v 0 z m -5.1711,4.92484 -13.66583,-14.54315 v 0 l 0.41847,-0.55453 0.45035,-0.54071 0.40925,-0.48472 0.44115,-0.51343 0.43653,-0.4996 0.43299,-0.48544 0.42874,-0.47267 0.46205,-0.50032 0.4585,-0.44504 0.45567,-0.43157 0.45213,-0.46028 0.44965,-0.4461 0.48401,-0.43299 0.48154,-0.41953 0.47941,-0.40606 0.51413,-0.3926 0.47657,-0.37914 0.5113,-0.36602 0.54638,-0.35291 0.54603,-0.38126 0.54531,-0.32599 0.54461,-0.31287 0.5811,-0.29976 0.5811,-0.28595 0.6176,-0.27354 0.58181,-0.25973 0.61902,-0.2048 0.65657,-0.19205 0.62114,-0.17823 0.62221,-0.16547 0.66047,-0.15236 0.66224,-0.0974 2.2089,21.33142 -0.005,0.01 -0.003,-0.0191 -0.0376,-0.006 -0.0365,0.007 0.001,0.0206 -0.0344,0.0333 -0.0709,0.005 -0.0337,0.0177 -0.0702,0.0315 -0.0702,0.0446 -0.10666,0.0578 -0.10736,0.0716 -0.10807,0.0425 -0.10913,0.0985 -0.14634,0.11162 -0.18461,0.12543 -0.14988,0.13819 -0.18744,0.15236 -0.19028,0.16583 -0.19205,0.17929 -0.23137,0.19311 -0.23386,0.20658 -0.23669,0.2622 -0.24024,0.27567 -0.24307,0.24732 -0.28347,0.30331 -0.287,0.31677 -0.29126,0.33095 -0.29587,0.34405 -0.33626,0.40039 -0.30437,0.37205 -0.34618,0.38587 v 0 z m 21.18543,-40.1726 4.74307,-20.78362 v 0 l 0.97583,0.35079 0.89894,0.45283 0.82169,0.46914 0.74445,0.52795 0.66649,0.54248 0.5889,0.55701 0.54815,0.57011 0.50634,0.58252 0.42839,0.55205 0.38728,0.56268 0.34512,0.5726 0.30366,0.53929 0.2987,0.50492 0.25689,0.55382 0.25122,0.51803 0.20941,0.52299 0.20409,0.48543 0.19843,0.53079 0.1559,0.49146 0.18709,0.49287 0.14421,0.53575 0.1389,0.49358 0.0964,0.49288 0.1265,0.49039 0.0843,0.53008 0.0776,0.48437 0.10808,0.52157 0.0655,0.51662 0.0223,0.59421 0.0521,0.54496 0.009,0.57898 0.003,0.57012 -18.6548,-0.2289 7.1e-4,0.18602 -0.006,0.17717 0.0237,0.12685 -0.0195,0.16193 0.0103,0.0716 0.0408,0.0659 -0.002,0.0195 -0.009,0.0574 0.0216,0.0128 -0.0213,0.011 0.01,0.01 0.004,0.0517 0.0347,0.0103 -0.008,0.0117 0.0234,0.0567 0.0177,0.017 0.0124,0.0638 0.0436,0.0687 0.0386,0.11657 0.0698,0.0811 0.0648,0.1311 0.0964,0.18142 0.12791,0.19063 0.1598,0.20055 0.22855,0.2537 0.26043,0.2654 0.29197,0.2785 0.36106,0.29162 0.4298,0.30614 0.49784,0.27921 0.56728,0.29551 0.63567,0.22819 v 0 z m 0.14032,-0.45744 -16.86048,9.25654 v 0 l -0.53503,-1.44532 -0.47871,-1.48287 -0.38763,-1.51831 -0.29693,-1.55268 -0.17185,-1.58492 -0.0843,-1.53071 0.001,-1.5176 0.0858,-1.54346 0.20516,-1.48429 0.32244,-1.50732 0.36637,-1.44426 0.51768,-1.37905 0.55807,-1.35425 0.63284,-1.32697 0.74445,-1.21465 0.77952,-1.14201 0.88689,-1.10976 0.9567,-1.03287 0.98822,-0.91276 1.05449,-0.87449 1.11933,-0.75047 1.14662,-0.6665 1.20826,-0.58074 1.26851,-0.49288 1.25504,-0.40287 1.31173,-0.27 1.33157,-0.17575 1.31315,-0.0383 1.32945,0.0163 1.34433,0.15839 1.35744,0.25866 1.33264,0.31996 -4.74307,20.78362 -0.16122,-0.0748 -0.11303,-0.0142 -0.0999,0.003 -0.0857,-0.0241 -0.0695,0.0312 -0.0156,7.1e-4 0.004,0.01 -0.0128,-0.0245 0.0461,-0.0188 0.0326,-0.0145 0.0213,-0.0124 0.0478,-0.0127 0.039,-0.056 0.0322,-0.0177 0.0631,-0.0649 0.0592,-0.0723 0.0198,-0.0393 0.0556,-0.0503 0.0191,-0.10523 0.0216,-0.078 0.0613,-0.0524 -0.006,-0.0709 0.0369,-0.0914 0.008,-0.0294 -0.0191,-0.0532 -0.007,0.005 0.005,0.0191 0.0188,-0.011 -0.001,0.0418 0.0156,0.0918 0.0344,0.14067 0.0914,0.18744 v 0 z m -4.81217,-3.85689 1.11189,21.42213 v 0 l -0.33768,0.0103 -0.33803,0.007 -0.30118,0.0457 -0.33768,-0.0422 -0.33732,-0.003 -0.37382,-0.007 -0.3724,-0.0113 -0.37205,-0.0574 -0.40748,-0.0617 -0.44256,-0.0663 -0.40535,-0.11338 -0.43972,-0.0765 -0.43831,-0.12331 -0.47268,-0.17078 -0.47126,-0.17646 -0.46842,-0.18248 -0.46666,-0.23032 -0.50067,-0.2785 -0.49748,-0.28453 -0.495,-0.29161 -0.49216,-0.38268 -0.48827,-0.38976 -0.48543,-0.3965 -0.4454,-0.48862 -0.47763,-0.45354 -0.40146,-0.54603 -0.43299,-0.51201 -0.39331,-0.60448 -0.35114,-0.57083 -0.3104,-0.58004 -0.30578,-0.63035 -0.30048,-0.63992 16.86048,-9.25654 -0.14244,-0.28205 -0.13713,-0.2909 -0.13181,-0.25831 -0.16406,-0.2661 -0.1963,-0.31677 -0.22818,-0.24059 -0.18745,-0.29091 -0.25653,-0.21402 -0.21579,-0.26397 -0.24874,-0.18744 -0.2452,-0.19418 -0.242,-0.20196 -0.23847,-0.12437 -0.23527,-0.13075 -0.2328,-0.13748 -0.19311,-0.10205 -0.19063,-0.0663 -0.1885,-0.0716 -0.18638,-0.0779 -0.14776,-0.0411 -0.14563,-0.004 -0.10771,-0.0517 -0.1428,-0.0145 -0.10488,-0.0191 -0.0673,-0.0241 -0.0663,0.0135 -0.0656,0.01 -0.0283,0.005 -0.028,-0.04 0.008,0.04 -0.0276,-0.005 -0.028,-0.008 v 0 z m 0.66508,0.0351 18.6548,0.2289 v 0 l -0.0181,1.20543 -0.11905,1.15618 -0.14492,1.14803 -0.24343,1.09772 -0.26823,1.08886 -0.29197,1.03677 -0.38728,0.98468 -0.37276,0.97406 -0.4298,0.96272 -0.48614,0.86669 -0.46807,0.85394 -0.52264,0.84118 -0.5765,0.74338 -0.55488,0.77138 -0.60697,0.71468 -0.58393,0.65693 -0.63355,0.6417 -0.68244,0.58323 -0.65657,0.60767 -0.6665,0.5067 -0.7122,0.53078 -0.72071,0.46985 -0.7278,0.40889 -0.73346,0.43087 -0.77599,0.36886 -0.77952,0.34795 -0.81992,0.28488 -0.78555,0.26256 -0.85997,0.19878 -0.82381,0.21721 -0.89682,0.10984 -0.85854,0.0857 -1.11189,-21.42213 -0.0188,0.004 -0.0542,-0.0206 0.0202,0.0393 -0.0167,-0.0251 0.0549,-0.007 0.0163,-0.0276 0.0496,-0.008 0.0453,-0.0287 0.0772,-0.007 0.0709,-0.0687 0.0638,-0.0461 0.056,-0.0227 0.0833,-0.0829 0.0733,-0.0167 0.0262,-0.0751 0.051,-0.05 0.0744,-0.0659 0.0244,-0.0393 0.0461,-0.0117 -0.006,-0.068 0.0138,0.002 0.033,-0.0113 -0.0227,-0.0234 -0.005,0.0485 0.0113,0.0365 -0.0471,0.0259 0.004,0.0574 -0.0195,0.0897 -0.0443,0.0801 0.004,0.11339 -0.0227,0.10523 0.0237,0.1389 v 0 z m 76.5411,1.16468 -18.6548,-0.31322 v 0 l -0.003,-0.28985 -0.0326,-0.23244 -0.0255,-0.21685 -0.0177,-0.15945 -0.0106,-0.14315 -0.039,-0.12685 -0.0312,-0.11055 -0.0227,-0.13642 -0.0503,-0.0776 -0.0415,-0.10241 -0.0319,-0.12755 -0.0588,-0.0684 -0.0861,-0.135 -0.0755,-0.0751 -0.0652,-0.14173 -0.12756,-0.12331 -0.11657,-0.10523 -0.14174,-0.17079 -0.16689,-0.15272 -0.19169,-0.13323 -0.21579,-0.19842 -0.27637,-0.13748 -0.26398,-0.20232 -0.28665,-0.14032 -0.34725,-0.2048 -0.36921,-0.1428 -0.3926,-0.16476 -0.41457,-0.18673 -0.47303,-0.12402 -0.495,-0.14528 -0.51626,-0.16653 -0.53681,-0.10382 3.49795,-21.11244 1.04989,0.26894 1.02862,0.24803 1.00736,0.31039 0.9861,0.37276 1.00063,0.35185 0.97866,0.4135 0.95599,0.47516 0.93331,0.45354 0.94712,0.55701 0.92374,0.53469 0.86315,0.63779 0.87626,0.61512 0.85217,0.71787 0.82736,0.73666 0.80291,0.75543 0.77776,0.85783 0.71575,0.87591 0.72708,0.89433 0.66437,0.99638 0.6013,0.97193 0.57543,1.07397 0.5478,1.04882 0.48437,1.1087 0.42024,1.16752 0.39259,1.14272 0.32811,1.20118 0.26292,1.21819 0.23457,1.23449 0.16866,1.25079 0.10275,1.22456 0.0369,1.24087 0.006,1.21464 v 0 z m -19.55516,16.83178 -16.12204,10.84889 4.94716,-15.53244 0.54532,-0.23882 0.59067,-0.26468 0.59811,-0.29126 0.60271,-0.31713 0.60591,-0.30047 0.56941,-0.3685 0.60484,-0.3515 0.60095,-0.37665 0.55842,-0.40146 0.58713,-0.38445 0.54035,-0.45106 0.52795,-0.43264 0.54992,-0.41528 0.49678,-0.48082 0.44114,-0.42024 0.45673,-0.48614 0.4337,-0.46736 0.37169,-0.44823 0.3437,-0.47091 0.3515,-0.45177 0.28276,-0.43228 0.24874,-0.41244 0.24945,-0.43477 0.21082,-0.41456 0.17044,-0.39402 0.12791,-0.37346 0.11941,-0.39544 0.10949,-0.33236 0.0599,-0.35291 0.0453,-0.37382 0.0283,-0.35256 0.0457,-0.37346 18.6548,0.31322 -0.04,1.7178 -0.16937,1.6976 -0.25937,1.63594 -0.3476,1.61504 -0.39649,1.59449 -0.48083,1.48961 -0.56232,1.46834 -0.60555,1.40528 -0.64595,1.34149 -0.68457,1.27737 -0.75755,1.25574 -0.79158,1.19126 -0.78732,1.12642 -0.85394,1.06264 -0.88122,1.03925 -0.87024,0.97406 -0.89397,0.9085 -0.95138,0.92764 -0.93402,0.81956 -0.91417,0.83764 -0.9652,0.77138 -0.9783,0.70547 -0.95138,0.72248 -0.99638,0.65587 -0.9659,0.63106 -0.9691,0.60591 -1.00807,0.53858 -0.97016,0.55488 -0.96838,0.48721 -0.96307,0.46134 -0.95563,0.43547 -0.98327,0.4089 4.94716,-15.53244 z m -16.12204,10.84889 -5.68914,-11.17913 10.6363,-4.35331 z m 23.05063,11.8513 -18.65481,-0.31323 v 0 l 7.1e-4,-0.20905 -0.0142,-0.20551 -0.0298,-0.20233 -0.007,-0.19913 -0.0216,-0.19595 -0.0358,-0.23563 -0.0489,-0.23314 -0.0252,-0.23174 -0.0748,-0.22996 -0.05,-0.27035 -0.0624,-0.27 -0.0734,-0.31075 -0.12118,-0.31039 -0.0953,-0.31075 -0.10559,-0.3111 -0.11481,-0.35363 -0.16157,-0.35397 -0.13358,-0.39756 -0.17894,-0.35717 -0.1513,-0.44291 -0.19488,-0.40287 -0.20268,-0.44717 -0.20976,-0.45035 -0.21579,-0.45319 -0.22252,-0.45674 -0.22819,-0.50244 -0.27071,-0.50669 -0.23882,-0.51094 -0.28027,-0.5152 -0.24768,-0.56268 -0.28807,-0.52547 -0.29161,-0.57331 16.12204,-10.84889 0.29162,0.5733 0.28878,0.60981 0.32067,0.56196 0.28027,0.59953 0.31252,0.59457 0.27071,0.59031 0.30189,0.58607 0.29622,0.62468 0.2902,0.62043 0.28346,0.61831 0.27638,0.61512 0.26929,0.65445 0.29799,0.61016 0.25335,0.69236 0.28098,0.64913 0.23599,0.68988 0.26291,0.68882 0.2537,0.72992 0.24272,0.73028 0.1963,0.72992 0.22146,0.73028 0.21047,0.77315 0.19878,0.77421 0.14988,0.81744 0.17398,0.81921 0.12472,0.82063 0.11091,0.82382 0.0974,0.86776 0.084,0.87094 0.0319,0.87414 0.017,0.87803 0.002,0.88157 v 0 z m -34.8137,50.9935 -4.10882,-20.90055 v 0 l 1.1583,-0.36425 1.1576,-0.39189 1.08142,-0.41634 1.07858,-0.4826 1.03855,-0.54602 0.99708,-0.56693 0.95563,-0.58571 0.91347,-0.68704 0.90708,-0.66083 0.86315,-0.75898 0.81851,-0.77208 0.81035,-0.78237 0.76465,-0.87661 0.71787,-0.8837 0.7076,-0.89043 0.65941,-0.97902 0.61122,-0.9822 0.59811,-1.02579 0.585,-1.06795 0.53468,-1.108 0.48296,-1.1048 0.43122,-1.18417 0.45142,-1.1778 0.36106,-1.25397 0.34405,-1.24406 0.28985,-1.27524 0.27,-1.34645 0.21437,-1.33229 0.19417,-1.3585 0.13606,-1.42476 0.0783,-1.40599 0.056,-1.46941 18.65481,0.31323 -0.0524,2.22555 -0.14847,2.24646 -0.20622,2.18161 -0.26362,2.19898 -0.35752,2.17346 -0.41315,2.10402 -0.50528,2.11642 -0.56019,2.08594 -0.65091,2.01154 -0.66756,2.01968 -0.79334,1.94244 -0.84579,1.9474 -0.89681,1.86626 -0.94784,1.82623 -1.03393,1.78476 -1.12004,1.74118 -1.16894,1.65437 -1.21642,1.64941 -1.30039,1.55976 -1.34717,1.46764 -1.39287,1.45843 -1.47473,1.36381 -1.51937,1.26709 -1.5633,1.25256 -1.64268,1.11154 -1.68555,1.09452 -1.72701,0.99071 -1.76846,0.88689 -1.80851,0.82276 -1.88504,0.7572 -1.88752,0.64772 -1.96263,0.53716 v 0 z m -27.60166,-8.19885 14.50205,-13.52835 v 0 l 0.0337,0.0262 0.0542,0.0858 0.0372,0.0616 0.0563,0.0372 0.11055,0.0978 0.0553,0.0319 0.14563,0.0918 0.12473,0.0694 0.14067,0.0882 0.15519,0.10736 0.20587,0.0847 0.18284,0.10453 0.23244,0.0822 0.24448,0.0606 0.29197,0.0808 0.3026,0.0592 0.27673,0.0804 0.35859,0.0592 0.33059,0.0386 0.37523,0.0177 0.38303,0.04 0.38871,0.0202 0.43192,-3.5e-4 0.40004,-0.0195 0.44115,-0.0386 0.44539,-0.0581 0.44823,-0.0347 0.45071,-0.0532 0.45248,-0.0716 0.49004,-0.13181 0.45389,-0.0659 0.4904,-0.12508 4.10882,20.90055 -0.85536,0.21154 -0.89256,0.23598 -0.85571,0.13394 -0.89114,0.15803 -0.88937,0.14032 -0.88689,0.12118 -0.88405,0.0602 -0.87981,0.0415 -0.9124,0.0223 -0.87059,0.002 -0.90106,-0.0167 -0.89469,-0.0372 -0.88759,-0.0992 -0.91666,-0.11941 -0.87094,-0.13996 -0.93508,-0.16051 -0.88866,-0.22429 -0.87803,-0.2452 -0.90355,-0.30862 -0.89149,-0.33094 -0.91559,-0.35256 -0.86563,-0.41705 -0.88796,-0.43902 -0.87413,-0.50421 -0.85819,-0.56905 -0.8061,-0.5928 -0.86244,-0.69945 -0.77173,-0.68173 -0.79052,-0.7898 -0.77208,-0.81355 -0.7154,-0.83834 -0.69626,-0.94677 v 0 z m -5.75822,-19.78725 18.6548,0.2289 v 0 l -0.004,0.34724 0.003,0.34087 0.008,0.25051 0.0156,0.28595 0.0223,0.23882 0.029,0.27425 -7.1e-4,0.18531 0.0432,0.22217 0.0135,0.21685 0.0209,0.21224 0.0283,0.16548 0.0361,0.20267 0.0436,0.15662 0.0152,0.15271 0.0595,0.14847 0.0308,0.14527 0.0397,0.14138 0.0478,0.13819 0.0199,0.135 0.0652,0.13252 0.0737,0.17114 0.0461,0.12756 0.0556,0.12472 0.0645,0.16477 0.0737,0.12047 0.0836,0.16122 0.0928,0.15945 0.10276,0.15839 0.0758,0.15696 0.12296,0.19843 0.13287,0.19736 0.14315,0.19701 -14.50205,13.52835 -0.36354,-0.5315 -0.35398,-0.53256 -0.34334,-0.53291 -0.37063,-0.57579 -0.32386,-0.5772 -0.31394,-0.57827 -0.30472,-0.58004 -0.29551,-0.62362 -0.28559,-0.58359 -0.27674,-0.62787 -0.26787,-0.63 -0.22181,-0.59067 -0.21331,-0.63567 -0.24165,-0.63815 -0.19595,-0.64134 -0.18779,-0.64523 -0.17965,-0.64843 -0.13464,-0.65232 -0.16335,-0.65587 -0.1187,-0.66047 -0.11126,-0.6222 -0.10347,-0.66934 -0.096,-0.63177 -0.0886,-0.63708 -0.0446,-0.6417 -0.0744,-0.68917 -0.0305,-0.61087 -0.0237,-0.65834 -0.017,-0.62256 -0.0106,-0.67075 -0.004,-0.59244 0.002,-0.59953 v 0 z m 2.00126,-16.26059 18.09141,5.52614 v 0 l -0.10736,0.38516 -0.0673,0.3848 -0.10028,0.343 -0.0595,0.38445 -0.0925,0.38374 -0.0524,0.38232 -0.0854,0.38126 -0.0819,0.37984 -0.0415,0.37736 -0.0744,0.4174 -0.0712,0.37311 -0.0312,0.36993 -0.0645,0.36708 -0.0609,0.3639 -0.0209,0.35965 -0.0542,0.35574 -0.0507,0.39402 -0.0478,0.34689 -0.008,0.34228 -0.0415,0.33697 -0.0379,0.3313 -0.0351,0.36815 -0.0319,0.31996 0.007,0.31323 -0.0259,0.30685 -0.023,0.29976 -0.0202,0.29233 -0.0174,0.28523 -0.0142,0.27744 -0.0117,0.26929 -0.009,0.26079 -0.006,0.21012 -18.6548,-0.2289 0.005,-0.4624 0.008,-0.42874 0.011,-0.43724 0.0135,-0.4454 0.0167,-0.45319 0.0195,-0.46098 0.0223,-0.46772 0.0252,-0.4748 0.0648,-0.48189 0.0312,-0.48791 0.0351,-0.45177 0.0372,-0.49997 0.0408,-0.50492 0.0804,-0.51023 0.0471,-0.51555 0.0507,-0.47764 0.0535,-0.5237 0.0932,-0.52831 0.0602,-0.53185 0.0638,-0.53504 0.10346,-0.53858 0.0705,-0.54106 0.0744,-0.50174 0.11374,-0.54602 0.0812,-0.5478 0.0847,-0.54921 0.12473,-0.55098 0.0918,-0.5517 0.13252,-0.55311 0.0989,-0.59456 0.1396,-0.55347 0.10666,-0.55311 v 0 z m 6.19228,-16.44413 14.97543,12.77079 v 0 l -0.0372,0.12047 -0.0712,0.0882 -0.0687,0.0982 -0.0656,0.14988 -0.10027,0.15945 -0.0606,0.1676 -0.0942,0.17645 -0.0921,0.22713 -0.12614,0.19311 -0.0872,0.24271 -0.0843,0.25052 -0.1187,0.2576 -0.11657,0.26468 -0.0772,0.27071 -0.11126,0.27779 -0.10913,0.32563 -0.10665,0.28949 -0.10418,0.33662 -0.13854,0.34228 -0.0992,0.34689 -0.0974,0.3515 -0.0953,0.3561 -0.12933,0.36035 -0.0911,0.36425 -0.12473,0.36709 -0.0865,0.4128 -0.12083,0.37382 -0.0818,0.37594 -0.11658,0.42094 -0.078,0.38056 -0.11197,0.42484 -0.0737,0.4259 -18.09141,-5.52614 0.14669,-0.51023 0.11197,-0.50918 0.15023,-0.54921 0.11587,-0.50457 0.15484,-0.5446 0.12012,-0.54177 0.15874,-0.49713 0.12472,-0.53575 0.16335,-0.5322 0.12862,-0.52831 0.1676,-0.52476 0.16973,-0.52016 0.1722,-0.51555 0.13783,-0.51024 0.17646,-0.50527 0.17894,-0.54178 0.18142,-0.49429 0.18354,-0.53008 0.22252,-0.5237 0.18815,-0.51697 0.19098,-0.51059 0.22961,-0.50279 0.23244,-0.49571 0.19772,-0.52972 0.2374,-0.48012 0.23953,-0.51378 0.27885,-0.50492 0.24485,-0.49607 0.28382,-0.4872 0.28629,-0.5198 0.28878,-0.50989 0.32847,-0.45779 v 0 z m 27.55488,-22.9376 6.30071,20.21598 v 0 l -0.74906,0.3189 -0.70653,0.29303 -0.70016,0.35008 -0.69343,0.32386 -0.68669,0.33945 -0.6796,0.35433 -0.67182,0.41244 -0.66507,0.38587 -0.65693,0.4011 -0.64914,0.37453 -0.67677,0.43228 -0.63212,0.44752 -0.62327,0.46276 -0.61406,0.43618 -0.60484,0.49358 -0.59528,0.4663 -0.58535,0.48224 -0.61228,0.49784 -0.56516,0.51236 -0.55417,0.52795 -0.5439,0.54284 -0.56906,0.55842 -0.52122,0.57366 -0.50988,0.54638 -0.53433,0.60414 -0.48614,0.57649 -0.50988,0.59209 -0.46099,0.64913 -0.48472,0.62221 -0.43512,0.63708 -0.45815,0.65233 -0.44504,0.62504 -14.97543,-12.77079 0.6626,-1.04669 0.67641,-0.98965 0.72638,-0.97512 0.70299,-0.95953 0.75225,-0.90283 0.72815,-0.92941 0.7774,-0.91453 0.7526,-0.85712 0.80114,-0.88441 0.81319,-0.82736 0.78732,-0.81142 0.83516,-0.79725 0.84614,-0.78165 0.85642,-0.76606 0.83055,-0.75083 0.87732,-0.73594 0.88654,-0.72071 0.89681,-0.66296 0.90602,-0.68988 0.91453,-0.63283 0.92409,-0.61689 0.89575,-0.60166 0.9411,-0.62822 0.94819,-0.57118 0.95705,-0.55524 0.96449,-0.49819 0.97157,-0.52441 0.97866,-0.50882 0.9854,-0.49393 0.99212,-0.43583 0.99851,-0.4624 z m -6.33118,11.31697 16.56496,-9.8426 v 0 l 0.14598,0.27957 0.10099,0.25937 0.13039,0.23917 0.0858,0.2204 0.11445,0.20196 0.10736,0.22607 0.0634,0.16759 0.0925,0.19312 0.0854,0.17751 0.11445,0.16229 0.0709,0.19098 0.0645,0.17752 0.1304,0.20658 0.0875,0.2374 0.11763,0.30933 0.14741,0.29905 0.17822,0.45745 0.17221,0.57472 0.20338,0.73417 0.23493,1.10481 0.12047,1.43504 -0.0308,1.72381 -0.4011,2.05689 -0.84508,2.18056 -1.10906,1.75854 -1.15299,1.29331 -0.9783,0.78626 -0.76536,0.48862 -0.51555,0.27673 -0.41173,0.19205 -0.19772,0.0645 -0.0935,0.0663 -6.30071,-20.21598 0.0206,0.0188 -0.0942,0.0206 -0.31819,0.14882 -0.43335,0.2328 -0.69378,0.44397 -0.91807,0.73736 -1.10409,1.24087 -1.0715,1.69902 -0.81956,2.11464 -0.38693,1.98106 -0.0287,1.63808 0.11055,1.33653 0.21224,0.99354 0.16795,0.60804 0.12473,0.43228 0.11728,0.29728 0.0737,0.11977 0.0305,0.10948 -0.0131,0.0149 0.0163,-0.0393 -0.0638,-0.0939 -0.0709,-0.10666 -0.0415,-0.16299 -0.0854,-0.17752 -0.0925,-0.19311 -0.13642,-0.25122 -0.10736,-0.22606 -0.11516,-0.28559 -0.15945,-0.30402 -0.13039,-0.3235 -0.17469,-0.34299 -0.14598,-0.3639 v 0 z m 7.13834,-37.89248 12.4278,15.9789 v 0 l -0.28028,0.27638 -0.26397,0.34405 -0.24662,0.32634 -0.26504,0.34972 -0.2459,0.3724 -0.26327,0.35044 -0.24272,0.41279 -0.22145,0.38906 -0.19914,0.44787 -0.2133,0.42201 -0.18992,0.39472 -0.16548,0.45 -0.14067,0.42095 -0.1513,0.43157 -0.12437,0.4415 -0.0974,0.45 -0.10559,0.41563 -0.0769,0.42201 -0.0471,0.42661 -0.0532,0.3887 -0.022,0.43299 -0.0266,0.3926 0.006,0.3926 0.04,0.34937 0.0376,0.3476 0.0358,0.3437 0.0354,0.3391 0.0719,0.33342 0.10913,0.28347 0.0748,0.31783 0.11339,0.30827 0.11693,0.29728 -16.56496,9.8426 -0.55984,-1.30287 -0.48331,-1.31457 -0.44469,-1.32414 -0.33307,-1.3748 -0.29586,-1.34043 -0.25866,-1.3461 -0.18674,-1.35142 -0.1148,-1.35532 -0.0436,-1.35779 -0.0103,-1.31669 0.023,-1.3167 0.0914,-1.27417 0.1226,-1.3135 0.19027,-1.2678 0.21934,-1.26319 0.24874,-1.25681 0.31358,-1.20756 0.34122,-1.19905 0.36744,-1.18914 0.4298,-1.1785 0.45532,-1.12394 0.47976,-1.15299 0.50315,-1.09595 0.56268,-1.03818 0.58429,-1.063 0.60626,-1.00311 0.6261,-1.02508 0.68244,-0.96271 0.70158,-0.94075 0.75614,-0.91736 0.7735,-0.85146 0.79051,-0.8674 v 0 z m 24.34819,-10.78831 -0.42448,21.43063 v 0 l -0.33733,-0.007 -0.3033,0.0131 -0.34264,0.0333 -0.34406,0.0528 -0.34547,0.0301 -0.38303,0.0489 -0.34689,0.0673 -0.38303,0.0854 -0.38268,0.10347 -0.38126,0.0783 -0.37984,0.13748 -0.37772,0.11268 -0.37524,0.12827 -0.40818,0.18638 -0.405,0.1598 -0.3639,0.17539 -0.3965,0.14776 -0.39082,0.20445 -0.38552,0.21826 -0.37913,0.23209 -0.40961,0.20303 -0.36602,0.25831 -0.35823,0.22925 -0.35043,0.24059 -0.37807,0.25299 -0.33272,0.26434 -0.32315,0.27531 -0.34972,0.28595 -0.3026,0.25476 -0.32847,0.30649 -0.28063,0.2739 -0.30472,0.28347 -12.4278,-15.9789 0.59599,-0.6215 0.64488,-0.61193 0.61973,-0.56019 0.66685,-0.5928 0.64169,-0.53964 0.6874,-0.52973 0.69768,-0.51874 0.67004,-0.50669 0.71468,-0.495 0.72319,-0.48295 0.73098,-0.42839 0.70087,-0.45744 0.7448,-0.40217 0.75048,-0.38834 0.75578,-0.37453 0.76075,-0.40216 0.80256,-0.34548 0.76996,-0.32988 0.77386,-0.27283 0.81319,-0.29906 0.81567,-0.28275 0.8185,-0.22394 0.81992,-0.2491 0.82063,-0.18992 0.8217,-0.17185 0.85854,-0.15449 0.82169,-0.13535 0.85713,-0.11728 0.85642,-0.0556 0.85429,-0.0362 0.88866,-0.0166 0.84968,0.004 v 0 z m 10.88079,13.0004 -18.6548,-0.2289 v 0 l 10e-4,0.31216 -0.003,0.43937 0.0287,0.39827 0.0617,0.39969 0.0935,0.4011 0.0896,0.40252 0.0854,0.405 0.11799,0.36461 0.1148,0.36637 0.14705,0.36851 0.18036,0.37098 0.17645,0.3313 0.20977,0.37595 0.20622,0.2948 0.20303,0.34016 0.23634,0.30047 0.27035,0.30401 0.26681,0.2654 0.26398,0.26929 0.29799,0.27213 0.2948,0.23421 0.32918,0.23846 0.32669,0.24236 0.36035,0.16264 0.32174,0.16725 0.39259,0.17114 0.35398,0.13429 0.38835,0.13925 0.38622,0.0599 0.38409,0.0648 0.38268,0.0709 0.38091,-0.008 0.42448,-21.43063 0.57012,0.002 0.56906,0.0921 0.56693,0.0974 0.56551,0.1024 0.56409,0.19169 0.52547,0.19666 0.55985,0.24342 0.48472,0.24874 0.5191,0.25264 0.48047,0.34087 0.47799,0.34547 0.43866,0.34972 0.43618,0.39544 0.39721,0.39968 0.39437,0.40288 0.39153,0.44858 0.35185,0.45213 0.31217,0.49748 0.30898,0.4585 0.30614,0.54531 0.26574,0.50634 0.26256,0.55099 0.22217,0.55346 0.18213,0.5563 0.17822,0.55807 0.13784,0.60272 0.13429,0.60449 0.12968,0.6059 0.0893,0.60803 0.0485,0.60945 0.007,0.65268 0.002,0.52831 v 0 z m -12.06461,-8.7052 -3.49795,21.11244 -1.47437,-20.62169 0.45496,-0.20551 0.39685,-0.12225 0.30118,-0.0808 0.24059,-0.0815 0.25158,-0.0829 0.18886,-0.0418 0.19807,-0.0429 0.20551,-0.045 0.1761,-0.0457 0.14492,-0.0471 0.18567,-0.0493 0.15237,-0.0507 0.11834,-0.0524 0.11906,-0.0117 0.1187,-0.056 0.11764,-0.0156 0.0783,-0.0174 0.0383,-0.0191 -0.004,-0.0209 -0.009,0.0188 -0.0528,0.017 -0.0974,0.0567 -0.14315,0.0967 -0.26397,0.095 -0.31146,0.21933 -0.39721,0.30082 -0.55665,0.46701 -0.68102,0.67571 -0.8054,1.05165 -0.82133,1.55304 -0.69166,2.0537 -0.27035,2.46862 18.6548,0.2289 -0.29374,2.66067 -0.75402,2.24007 -0.92126,1.73445 -0.94074,1.2274 -0.84898,0.84579 -0.75508,0.63284 -0.62397,0.46098 -0.56374,0.37453 -0.53965,0.2452 -0.44079,0.24271 -0.4135,0.19843 -0.38516,0.15378 -0.3561,0.1513 -0.36213,0.10736 -0.33023,0.10488 -0.298,0.1024 -0.26362,0.10063 -0.26468,0.0567 -0.26504,0.0967 -0.26433,0.0532 -0.22607,0.0507 -0.18567,0.0493 -0.21791,0.0478 -0.1761,0.0457 -0.13252,0.0443 -0.12437,0.0429 -0.11587,0.0411 -0.0326,-0.002 -0.0216,-0.004 0.0645,-0.006 0.18779,-0.0492 0.27496,-0.13465 -1.47437,-20.62169 z m -3.49795,21.11244 -33.05303,-7.22657 31.57866,-13.39512 z m -24.25393,56.26559 11.48102,16.90866 v 0 l -1.93358,1.64126 -1.96867,1.42583 -2.00409,1.26248 -2.00161,1.02366 -2.10863,0.79441 -2.17948,0.53362 -2.24894,0.19701 -2.28225,-0.13004 -2.27834,-0.4904 -2.2376,-0.96661 -2.01331,-1.30925 -1.7883,-1.64232 -1.48926,-1.88256 -1.22598,-1.98709 -0.92551,-2.08205 -0.69662,-2.08417 -0.46878,-2.11783 -0.31216,-2.05867 -0.11906,-2.1157 0.001,-2.03705 0.1226,-2.03351 0.28028,-2.06185 0.40216,-2.03952 0.52476,-2.04945 0.64808,-2.00835 0.77137,-1.95697 0.8954,-1.9396 1.05626,-1.91197 1.14448,-1.87512 1.30713,-1.78689 1.43327,-1.68945 1.55976,-1.6246 11.91827,16.56992 -0.54,0.52618 -0.4865,0.59173 -0.43405,0.60555 -0.41882,0.61016 -0.32988,0.64771 -0.315,0.67536 -0.26469,0.69413 -0.21437,0.66118 -0.16476,0.61867 -0.11587,0.60944 -0.067,0.54815 -0.0553,0.52052 -0.009,0.44043 0.039,0.26752 0.0117,0.21118 0.0209,0.0202 -0.0432,-0.0971 -0.10842,-0.26433 -0.24662,-0.35787 -0.34901,-0.45957 -0.48792,-0.4454 -0.55417,-0.35681 -0.62043,-0.27708 -0.50386,-0.0822 -0.35185,-0.023 -0.16406,-0.0149 0.0599,-0.017 0.28311,-0.11197 0.54178,-0.25901 0.69023,-0.41422 0.87449,-0.6633 1.0591,-0.88016 v 0 z m 3.46393,-10.22244 18.6548,0.2289 v 0 l -0.0142,0.92303 -0.0283,0.8876 -0.079,0.93472 -0.0567,0.89787 -0.10701,0.90107 -0.12083,0.90354 -0.13464,0.90532 -0.14882,0.86385 -0.19807,0.90603 -0.1754,0.9046 -0.18886,0.86032 -0.23846,0.89929 -0.25157,0.89539 -0.26469,0.84792 -0.2778,0.88441 -0.32704,0.87732 -0.30296,0.86882 -0.3522,0.86102 -0.36496,0.85075 -0.37701,0.83976 -0.42626,0.82843 -0.40181,0.81531 -0.4872,0.84437 -0.46241,0.78733 -0.51094,0.81389 -0.52299,0.75544 -0.57083,0.78023 -0.58287,0.76217 -0.63036,0.74232 -0.64204,0.72213 -0.69024,0.65905 -0.70122,0.6789 -11.48102,-16.90866 0.1187,-0.0872 0.107,-0.15165 0.13252,-0.1311 0.12083,-0.1513 0.14634,-0.17114 0.13429,-0.18922 0.15945,-0.24944 0.1474,-0.22359 0.17185,-0.28134 0.12366,-0.25405 0.18425,-0.31004 0.13571,-0.32244 0.16016,-0.33449 0.1474,-0.34547 0.13465,-0.35504 0.15909,-0.36425 0.10949,-0.37205 0.13323,-0.37913 0.12012,-0.42697 0.10771,-0.39012 0.0939,-0.39472 0.11728,-0.43937 0.10453,-0.40004 0.0542,-0.40075 0.0772,-0.44362 0.0631,-0.40075 0.05,-0.39898 0.0361,-0.39649 0.0588,-0.39331 0.008,-0.34654 0.0305,-0.38303 0.0163,-0.33484 v 0 z m -0.19984,6.69827 -11.91827,-16.56992 v 0 l 0.56764,-0.51308 0.6378,-0.57259 0.63177,-0.54248 0.6587,-0.59209 0.71929,-0.55276 0.73984,-0.59279 0.79441,-0.58606 0.80858,-0.57437 0.85642,-0.59989 0.86457,-0.5361 0.94216,-0.5524 0.94359,-0.52158 1.01586,-0.48578 1.0839,-0.44575 1.1126,-0.40039 1.2111,-0.35044 1.30713,-0.25405 1.43574,-0.15307 1.48855,-0.005 1.64834,0.23244 1.73126,0.47374 1.77591,0.80504 1.70646,1.14095 1.56118,1.48322 1.30252,1.66181 1.07645,1.84571 0.77457,1.90843 0.61476,1.89106 0.37843,1.87902 0.24909,1.87122 0.11693,1.91055 0.0174,1.82764 -18.6548,-0.2289 -0.0124,-0.73559 -0.0376,-0.39827 -0.023,-0.19169 -0.005,0.0514 0.12579,0.28948 0.18637,0.523 0.39686,0.6672 0.53574,0.68032 0.71575,0.68881 0.78732,0.52512 0.78945,0.35646 0.68528,0.18461 0.54709,0.0914 0.34051,-0.006 0.2459,-0.0248 0.0818,-0.006 -0.0418,0.008 -0.16299,0.0588 -0.20799,0.10417 -0.28524,0.14563 -0.36035,0.18213 -0.35823,0.21295 -0.42662,0.2817 -0.41846,0.26114 -0.44433,0.31996 -0.42945,0.33165 -0.44858,0.3391 -0.42733,0.38338 -0.44043,0.33839 -0.41279,0.37311 -0.34583,0.3189 -0.34937,0.3437 v 0 z m 17.95783,-46.21571 15.01725,-12.69142 h 0.0365 l 0.20233,0.35681 0.19948,0.35929 0.23315,0.36142 0.19311,0.40642 0.18957,0.36673 0.18673,0.41138 0.18319,0.37134 0.18,0.41598 0.17575,0.4174 0.13642,0.42059 0.16901,0.46418 0.12827,0.42413 0.12473,0.42662 0.12082,0.42803 0.11729,0.47232 0.0762,0.47409 0.10913,0.43335 0.068,0.47764 0.0638,0.47905 0.0599,0.48083 0.0549,0.48224 0.0145,0.48402 0.01,0.48508 0.005,0.48685 3.6e-4,0.4461 -0.004,0.48898 -0.009,0.5322 -0.0507,0.49181 -0.0556,0.45071 -0.0599,0.53575 -0.0656,0.49465 -0.0705,0.45354 -18.30614,-4.43268 -3.6e-4,0.051 -0.005,0.0942 -0.0103,0.13677 -0.0159,0.0539 -0.0202,0.0971 0.0117,0.13961 0.007,0.0992 0.002,0.0585 -0.003,0.10134 -0.007,0.10311 -0.0117,0.10417 0.0202,0.10524 0.0159,0.10736 0.012,0.10842 0.007,0.11055 0.0397,0.0698 -10e-4,0.11338 0.0315,0.11516 0.028,0.0751 0.0234,0.0772 0.0198,0.079 0.0528,0.1226 0.0124,0.0833 0.0453,0.085 0.0418,0.0872 0.0379,0.0475 0.0351,0.0918 0.0315,0.0521 0.028,0.0967 0.0616,0.0567 0.0216,0.0595 0.0188,0.062 h 0.0365 z m 4.08189,1.73551 -13.66582,-14.62748 v 0 l 0.61689,-0.71468 0.63673,-0.62363 0.61866,-0.61547 0.63602,-0.52264 0.65268,-0.47161 0.63036,-0.46099 0.64346,-0.40818 0.65587,-0.35398 0.66649,-0.34228 0.67571,-0.28701 0.68386,-0.31536 0.72709,-0.2583 0.69626,-0.20126 0.737,-0.18532 0.7402,-0.16831 0.74091,-0.15094 0.77846,-0.0907 0.77705,-0.0298 0.77527,-0.01 0.84437,0.01 0.87591,0.0734 0.86988,0.13748 0.89929,0.20197 0.92729,0.26752 0.91665,0.37559 0.94252,0.44256 0.96661,0.55169 0.91595,0.66295 0.93756,0.77351 0.88441,0.88618 0.7937,0.95704 0.73807,1.07079 -15.01725,12.69142 0.29233,0.43583 0.30897,0.3809 0.36426,0.36744 0.38338,0.31075 0.3313,0.25476 0.35362,0.19666 0.30331,0.13854 0.25547,0.12189 0.24484,0.062 0.19914,0.0439 0.15484,0.0248 0.14811,0.005 0.10665,-0.0156 0.0298,0.005 0.0273,0.0248 0.0259,0.002 -0.0103,-0.0213 -0.009,-0.004 -0.006,0.0131 -0.0386,0.0291 0.004,0.002 -0.0269,-0.0248 -0.0188,0.0312 -0.01,0.002 0.002,0.0145 0.0128,-0.0156 0.0259,-0.0471 0.0772,-0.0372 0.0925,-0.0698 0.10984,-0.14492 0.16477,-0.13677 0.18389,-0.21437 v 0 z m -0.30508,-0.76039 -18.64913,1.11543 v 0 l -0.008,-0.54035 -0.002,-0.54142 0.004,-0.54355 0.01,-0.5446 0.0521,-0.54709 0.0578,-0.54815 0.0638,-0.50704 0.10665,-0.55134 0.0755,-0.51059 0.11835,-0.51166 0.12437,-0.51307 0.1311,-0.51449 0.13642,-0.51519 0.17929,-0.47445 0.14917,-0.47551 0.19205,-0.47658 0.16122,-0.47728 0.2041,-0.43618 0.21047,-0.47941 0.2172,-0.43796 0.22323,-0.43901 0.22961,-0.43902 0.23634,-0.39791 0.24236,-0.44079 0.24909,-0.39933 0.25512,-0.39933 0.26185,-0.40004 0.26859,-0.40039 0.27496,-0.4011 0.28169,-0.35894 0.28807,-0.4011 0.29516,-0.35965 13.66582,14.62748 -0.0762,0.10595 -0.0705,0.0638 -0.0627,0.10595 -0.0574,0.0631 -0.0503,0.0631 -0.0436,0.0627 -0.0376,0.062 -0.0308,0.062 -0.0248,0.0191 -0.0181,0.0606 -0.012,0.0181 -0.005,0.0174 3.5e-4,0.0163 0.007,-0.0259 0.0135,0.0152 -0.0174,-0.028 0.0255,-0.0287 -0.005,-0.0298 0.0376,-0.0308 0.007,-0.0737 0.0135,-0.0751 0.0195,-0.0758 0.0255,-0.0772 -0.005,-0.0783 0.0372,-0.12189 0.007,-0.0811 0.0124,-0.12437 0.0188,-0.12614 -0.0124,-0.12721 -0.006,-0.12897 -7.1e-4,-0.1304 0.005,-0.13216 v 0 z m -0.52476,-0.22111 -15.31134,12.2726 v 0 l -0.25724,-0.41775 -0.21721,-0.42166 -0.21401,-0.42413 -0.21118,-0.38551 -0.17185,-0.43158 -0.16866,-0.39153 -0.12934,-0.39544 -0.1637,-0.39791 -0.12366,-0.40146 -0.12153,-0.36141 -0.11906,-0.36496 -0.0801,-0.40961 -0.11409,-0.37028 -0.0751,-0.33094 -0.073,-0.33343 -0.0709,-0.33626 -0.0695,-0.33838 -0.0301,-0.34158 -0.0652,-0.34334 -0.0262,-0.30402 -0.0613,-0.30614 -0.023,-0.30862 -0.0581,-0.31075 -0.0198,-0.27071 -0.0184,-0.31535 -0.017,-0.27496 -0.0524,-0.31855 -0.0145,-0.2374 -0.0135,-0.28063 -0.012,-0.28275 -0.0113,-0.28453 -0.01,-0.24449 18.64913,-1.11543 0.01,0.16015 0.0106,0.11658 0.0113,0.1148 0.0128,0.11268 0.0138,0.15307 -0.022,0.067 0.0163,0.10701 0.0177,0.0631 0.0191,0.10275 -0.0163,0.0592 0.0223,0.0563 -0.0131,0.0546 0.0255,0.0517 -0.009,0.008 0.0287,0.005 -0.006,0.003 -0.004,3.6e-4 -10e-4,-0.002 7.1e-4,-0.004 -0.034,-0.0493 0.005,-0.0942 -0.0291,-0.0546 -0.0266,-0.0574 -0.0245,-0.1024 -0.0581,-0.10453 -0.0188,-0.10842 -0.0532,-0.11091 -0.05,-0.1559 -0.0836,-0.11693 -0.0808,-0.16193 -0.0776,-0.16512 -0.11126,-0.16831 v 0 z m -3.95539,-3.2283 1.76953,21.33425 v 0 l -0.26717,0.0549 -0.31075,0.0117 -0.28063,0.009 -0.28665,0.007 -0.25547,0.005 -0.26008,0.002 h -0.30083 l -0.30472,-0.002 -0.30792,-0.006 -0.31004,-0.008 -0.31216,-0.0117 -0.31394,-0.0574 -0.35114,-0.0184 -0.3515,-0.0645 -0.35114,-0.0684 -0.38728,-0.0723 -0.38587,-0.0765 -0.38409,-0.0808 -0.41811,-0.1272 -0.41528,-0.13182 -0.48472,-0.13641 -0.44433,-0.18355 -0.47622,-0.23102 -0.50776,-0.23634 -0.53929,-0.32563 -0.5687,-0.33094 -0.56268,-0.4213 -0.59173,-0.46878 -0.62114,-0.6013 -0.61229,-0.64949 -0.60413,-0.73984 -0.55772,-0.87343 15.31134,-12.2726 -0.39898,-0.63389 -0.42555,-0.51449 -0.41598,-0.43689 -0.40713,-0.40146 -0.36212,-0.28169 -0.31819,-0.24626 -0.31075,-0.16795 -0.26787,-0.17398 -0.225,-0.096 -0.18355,-0.10134 -0.14173,-0.0652 -0.17433,-0.0273 -0.0978,-0.0333 -0.0942,-0.0379 -0.0553,-7.1e-4 -0.0535,-0.005 -0.0521,-0.009 -0.0145,-0.0138 -0.0149,-0.0177 -0.0145,0.0206 0.0213,-0.0248 0.0195,0.0131 0.0174,0.0106 0.0152,0.007 0.012,0.005 0.008,10e-4 0.0411,-10e-4 0.0358,-0.004 -0.006,-0.005 -0.012,-0.008 -0.0549,-0.01 -0.0248,0.0308 v 0 z m 0.13748,-0.37028 18.30614,4.43268 v 0 l -0.22323,0.9613 -0.24342,0.92161 -0.26221,0.88122 -0.31677,0.83977 -0.29799,0.79724 -0.35079,0.75437 -0.36709,0.75224 -0.38197,0.7076 -0.39649,0.66154 -0.40996,0.65728 -0.45886,0.65162 -0.43441,0.60378 -0.44504,0.59633 -0.45602,0.54674 -0.50174,0.58004 -0.47409,0.52795 -0.51839,0.51768 -0.52547,0.50669 -0.5322,0.49429 -0.57402,0.48154 -0.57897,0.42555 -0.58288,0.45319 -0.62256,0.43759 -0.62539,0.37914 -0.66366,0.36177 -0.66402,0.38587 -0.73771,0.32527 -0.73701,0.26362 -0.77209,0.28524 -0.80646,0.22146 -0.84011,0.19948 -0.87307,0.0928 -1.76953,-21.33425 -0.22394,-0.002 -0.18319,0.0585 -0.14315,0.0358 -0.10453,0.0556 -0.0666,-0.006 -0.0659,0.0156 0.008,0.0379 0.007,-0.0223 0.0415,-0.0397 0.0393,-0.0138 0.0719,-0.0301 0.0687,-0.0861 0.0638,-0.0585 0.095,-0.0719 0.0882,-0.0836 0.0811,-0.0953 0.10984,-0.10559 0.0652,-0.0734 0.0918,-0.12437 0.0815,-0.0904 0.0709,-0.0971 0.0223,-0.0613 0.0464,-0.067 0.033,-0.0712 0.0191,-0.033 0.004,0.006 -0.0113,0.004 0.009,0.0446 -0.0453,0.0865 -0.0262,0.12933 -0.045,0.17256 -0.0645,0.21649 v 0 z" class="fil8" />
          <path style="fill:#1f1a17;fill-rule:evenodd" d="m 189.80816,387.58455 c -0.51236,1.52433 -1.8907,1.9187 -2.49484,1.9024 -0.91488,-0.0241 -1.37197,-0.71079 -1.35283,-2.08417 0.0347,-2.53169 2.18055,-8.5415 6.42933,-17.98547 4.88834,-10.86555 8.52661,-16.80626 10.14909,-16.76339 0.41953,0.0106 2.24859,0.079 2.66563,1.11402 0.4167,1.035 -1.65366,3.04405 -1.84252,3.33992 -1.89141,2.96787 -3.04724,6.09378 0.57614,6.1813 0.23882,0.005 3.4565,-0.47729 9.20552,-1.51937 7.56212,-1.37162 11.40342,-1.02012 19.87937,-0.79335 3.08941,0.0826 9.21472,3.08445 9.152,7.78287 -0.0971,7.3839 -25.06464,33.70394 -29.10295,38.83571 -2.48811,3.1624 -11.8102,12.61772 -16.58516,20.06788 -4.7746,7.44909 -5.00244,12.89303 10.69654,8.03232 1.4602,-0.45213 3.32646,-2.7078 4.69524,-4.83414 1.36842,-2.12669 2.24078,-4.1237 4.58858,-4.06488 1.01516,0.0259 0.91594,1.1863 0.90071,2.5037 -0.01,0.83233 -0.85926,3.24957 -1.53709,4.3402 -4.95071,7.96571 -7.48098,17.49756 -11.47819,29.63197 -0.57614,1.74791 -2.34106,3.10287 -3.0802,3.08409 -2.66952,-0.0691 -1.18877,-6.17492 -0.99177,-6.76523 0.12402,-0.37205 3.79843,-8.28567 1.09311,-8.62052 -1.3748,-0.16972 0.15201,-0.61334 -3.90968,-0.0776 -11.52532,1.52007 -22.57512,3.74811 -32.7391,6.57815 -1.54098,0.42874 -3.82783,2.1033 -3.78106,-1.36843 0.0376,-2.74677 3.16417,-10.00878 10.58351,-21.60248 6.71563,-10.49386 15.55192,-22.57087 27.39011,-35.97165 5.73272,-6.48992 27.75473,-22.79729 2.08701,-19.41378 -5.69516,0.75083 -8.99433,1.91445 -11.1965,8.46992 z m 78.93213,-21.21803 c 8.57445,1.87476 13.21051,7.8672 13.10102,15.97216 -0.14705,10.82941 -7.83602,20.2741 -15.7585,23.51693 1.56366,3.07311 1.96016,5.49177 2.19685,7.79032 0.22146,2.15078 0.21579,5.28449 0.18815,7.515 -0.0517,4.13043 -0.49004,9.62114 -1.8124,15.20185 -0.66118,2.78929 -1.42299,5.35393 -2.37473,7.92815 -0.95173,2.57456 -3.39342,6.35315 -4.82456,8.3257 -7.33855,10.11827 -25.54548,14.61083 -34.28575,2.30741 -2.51858,-3.5465 -5.63634,-9.17788 -5.55378,-15.29008 0.10772,-8.01355 1.34114,-15.53563 4.10598,-21.82358 4.47803,-10.18559 9.84473,-14.12044 18.49111,-18.15201 0.56905,-0.26469 7.11389,-1.48288 6.16003,-3.60036 -1.74826,-3.87708 -2.48952,-8.32464 -2.44204,-11.85023 0.0797,-5.95063 3.96283,-12.20563 8.24279,-16.60642 4.13646,-4.25303 12.25559,-5.88543 17.69173,-5.74122 1.018,0.0273 1.51087,0.60697 1.49528,1.76528 -0.0138,0.99567 -1.45772,1.62319 -2.4385,1.92649 -1.49882,0.46418 -1.22741,0.40925 -2.18268,0.81461 z m -29.48102,53.09149 c -3.06248,3.79524 -5.46307,10.97469 -4.42666,16.4204 0.41776,2.19578 0.83481,4.06913 1.56544,5.57256 0.73133,1.50307 1.77767,2.63692 3.45437,3.35126 3.85653,1.64374 7.08944,0.26822 9.60413,-2.69469 2.51468,-2.96398 4.3122,-7.51713 5.29583,-12.22831 0.98433,-4.71118 0.8472,-9.42767 0.11338,-13.02767 -0.73346,-3.59965 -2.0661,-6.08315 -4.70693,-5.71252 -3.56634,0.50067 -6.79393,3.23043 -10.89956,8.31897 z m 33.33897,-37.06582 c 0.0255,-1.99736 -1.1126,-5.66929 -2.94909,-6.22701 -8.02488,-2.43673 -14.31142,5.83866 -10.66146,14.56264 0.81709,1.9559 2.52319,2.33929 4.17402,2.2259 4.46633,-0.3072 9.36354,-4.83661 9.43653,-10.56153 z m 44.38453,-14.56512 c 8.5748,1.87476 13.61197,7.35307 13.50177,15.45874 -0.15307,11.25886 -10.1948,19.1002 -18.28878,22.41283 3.12803,6.14658 5.7398,11.27906 5.6622,17.11914 -0.26255,19.81417 -10.69263,36.26362 -27.5407,40.69984 -7.17449,1.89 -14.51445,0.81035 -18.29622,-4.51276 -2.75918,-3.88417 -3.74705,-7.82504 -3.68185,-12.90862 0.045,-3.53834 0.55594,-8.61059 1.71956,-13.61197 1.16327,-5.00137 2.67059,-9.79193 4.63429,-12.82181 5.83371,-8.99716 14.02867,-15.43748 23.21752,-19.215 0.63567,-0.26149 0.40004,-0.1676 -1.19905,-3.71232 -3.82358,-8.47311 -0.72638,-19.0226 5.06976,-24.98173 4.73988,-4.87276 11.60929,-8.23075 17.92205,-8.06244 1.01835,0.0266 1.78051,1.01338 1.76563,2.17063 -0.0131,1.0396 -3.60992,1.59378 -4.48618,1.96547 z m -28.69795,55.01268 c -11.68052,11.09019 -7.91823,34.89448 8.43555,20.26346 4.4309,-3.96354 6.96508,-11.89134 7.05082,-18.56232 0.18355,-14.36811 -10.78724,-6.16323 -15.48637,-1.70114 z m 32.50417,-38.55898 c 0.40216,-2.15114 -0.0822,-4.1602 -1.07858,-5.71748 -2.26985,-3.5465 -8.06174,-1.93819 -10.25965,0.76748 -2.0165,2.48315 -2.89772,4.94504 -2.79673,7.11106 0.10134,2.16674 0.34937,4.04363 1.14413,5.35748 0.79441,1.31351 3.33319,1.44036 4.58504,1.30252 3.43984,-0.37878 7.6663,-4.86425 8.40579,-8.82106 z" class="fil9" id="1" />
          <ellipse transform="matrix(3.543307,0,0,3.543307,95.512616,296.07156)" class="fil10" cx="41.9865" cy="37.797699" rx="1.49269" ry="1.55123" id="ellipse87" style="fill:#ffffff;fill-rule:evenodd" />
          <ellipse transform="matrix(3.543307,0,0,3.543307,95.512616,296.07156)" class="fil10" cx="30.542101" cy="37.864399" rx="1.4396" ry="1.49605" id="ellipse89" style="fill:#ffffff;fill-rule:evenodd" />
          <ellipse transform="matrix(3.543307,0,0,3.543307,95.512616,296.07156)" class="fil10" cx="29.665701" cy="25.4788" rx="1.73703" ry="1.80514" id="ellipse91" style="fill:#ffffff;fill-rule:evenodd" />
          <ellipse transform="matrix(3.543307,0,0,3.543307,95.512616,296.07156)" class="fil10" cx="47.4832" cy="24.797199" rx="1.38484" ry="1.43914" id="ellipse93" style="fill:#ffffff;fill-rule:evenodd" />
          <ellipse transform="matrix(3.543307,0,0,3.543307,95.512616,296.07156)" class="fil10" cx="61.3433" cy="25.1306" rx="1.21768" ry="1.26543" id="ellipse95" style="fill:#ffffff;fill-rule:evenodd" />
          <ellipse transform="matrix(3.543307,0,0,3.543307,95.512616,296.07156)" class="fil10" cx="47.955299" cy="17.395" rx="2.1126001" ry="1.15855" id="ellipse97" style="fill:#ffffff;fill-rule:evenodd" />
        </g>
        <g id="g3863">
          <text xml:space="preserve" style="font-style:normal;font-variant:normal;font-weight:bold;font-stretch:normal;font-size:59.4278px;line-height:125%;font-family:'Courier New';-inkscape-font-specification:'Courier New Bold';letter-spacing:0px;word-spacing:0px;fill:black;fill-opacity:1;stroke:white;stroke-width:18;stroke-linejoin:round;stroke-miterlimit:4;stroke-dasharray:none" x="323.35165" y="467.20099" id="text3065"><tspan id="tspan3067" x="323.35165" y="467.20099">OS</tspan></text>
          <text id="text3061" y="467.20099" x="323.35165" style="font-style:normal;font-variant:normal;font-weight:bold;font-stretch:normal;font-size:59.4278px;line-height:125%;font-family:'Courier New';-inkscape-font-specification:'Courier New Bold';letter-spacing:0px;word-spacing:0px;fill:black;fill-opacity:1;stroke:none" xml:space="preserve"><tspan y="467.20099" x="323.35165" id="tspan3063">OS</tspan></text>
          <ellipse style="fill:#ffffff;fill-rule:evenodd" id="ellipse3839" ry="1.15855" rx="2.1126001" cy="17.395" cx="47.955299" class="fil10" transform="matrix(3.543307,0,0,5.7782435,171.67453,349.15435)" />
        </g>
      </g>
    </g>
  </g>
</svg>
