<?xml version="1.0" encoding="UTF-8" standalone="no"?>
<!-- Created with Inkscape (http://www.inkscape.org/) -->

<svg version="1.1" id="svg2" width="32" height="32" viewBox="0 0 32 32" xmlns="http://www.w3.org/2000/svg" xmlns:svg="http://www.w3.org/2000/svg" xmlns:rdf="http://www.w3.org/1999/02/22-rdf-syntax-ns#" xmlns:cc="http://creativecommons.org/ns#" xmlns:dc="http://purl.org/dc/elements/1.1/">
  <metadata id="metadata8">
    <rdf:RDF>
      <cc:Work rdf:about="">
        <dc:format>image/svg+xml</dc:format>
        <dc:type rdf:resource="http://purl.org/dc/dcmitype/StillImage" />
      </cc:Work>
    </rdf:RDF>
  </metadata>
  <defs id="defs6" />
  <g id="g893">
    <path style="fill:#eafefe" d="M 8.9210963,29.68829 C 5.5625993,28.260024 4.4856113,24.193006 4.8547453,14.332576 5.1493993,6.461708 5.4442133,5.2842813 7.5464253,3.5825763 10.626118,1.0896173 21.142476,0.90238531 24.537107,3.2800773 c 2.11988,1.484822 2.275552,2.234589 2.024358,9.7499997 -0.149666,4.477816 0.05246,9.091265 0.44918,10.252109 0.48586,1.421696 0.104537,2.872294 -1.168233,4.444099 -1.561468,1.928331 -2.997869,2.384828 -8.273152,2.629259 -3.51099,0.162683 -7.402664,-0.137582 -8.6481637,-0.667254 z" id="path961" />
    <path style="fill:#d8fdfe" d="m 7.6609286,27.413105 c -1.719298,-1.719298 -2,-3.333333 -2,-11.5 0,-12.0821747 1.057145,-13.4999997 10.0657404,-13.4999997 9.447742,0 9.995438,0.57373 9.827421,10.2945457 -0.078,4.513 0.180728,9.17635 0.57496,10.363 0.508744,1.531332 0.109465,2.764867 -1.375668,4.25 -2.975537,2.975537 -14.148932,3.035975 -17.0924534,0.09245 z" id="path959" />
    <path style="fill:#c7fdfe" d="M 8.1650022,26.928571 C 6.1831772,24.946747 5.8768912,6.6166817 7.7935732,4.7 8.5066672,3.986906 11.94131,3.5 16.258389,3.5 c 8.771572,0 9.32663,0.663052 8.371266,10 -0.378741,3.701504 -0.233049,7.649464 0.338394,9.169833 C 26.617971,27.059575 24.536335,28.5 16.542557,28.5 11.688502,28.5 9.2857272,28.049297 8.1650022,26.928571 Z" id="path957" />
    <path style="fill:#b9fdfe" d="M 8.831181,26.379823 C 6.953348,24.50199 6.771257,23.348968 7.081181,15.298609 7.487186,4.7525383 8.470231,3.4757413 16.18397,3.4757413 c 7.64162,0 8.715493,0.988891 8.235266,7.5835607 -0.223005,3.062398 -0.66827,6.396025 -0.989478,7.408061 -0.321207,1.012035 -0.115709,2.129492 0.456664,2.483238 2.124059,1.312741 1.141023,5.53649 -1.524423,6.549891 -4.580257,1.741411 -11.218544,1.191605 -13.530818,-1.120669 z" id="path955" />
    <path style="fill:#a6fdfe" d="M 8.8545552,26.301371 C 7.0182752,24.46509 7.1626502,7.0809152 9.0270312,5.5336175 9.8766552,4.8284925 12.965627,4.4807555 16.777031,4.6611725 l 6.33731,0.299984 0.117409,5.9999995 c 0.06458,3.3 -0.335031,6.570941 -0.888012,7.268758 -0.707487,0.892788 -0.458407,1.873201 0.840553,3.308535 1.410849,1.558972 1.59556,2.438482 0.783618,3.731243 -1.346443,2.143784 -13.192599,2.952434 -15.1133538,1.031679 z" id="path953" />
    <path style="fill:#98fcfe" d="M 10.815572,26.902545 C 8.6436042,26.325649 7.9931132,23.574033 7.9766022,14.893536 7.9597922,6.0564077 9.1068012,4.572107 15.952588,4.572107 c 2.665731,0 5.558588,0.273145 6.428572,0.606989 1.871458,0.7181457 2.075897,3.4989007 0.381787,5.193011 -0.933333,0.933333 -0.933333,1.466667 0,2.4 1.998385,1.998385 1.355579,4.404173 -1.55,5.801081 l -2.75,1.32211 2.75,1.031446 c 3.493248,1.310217 3.810588,5.127874 0.5,6.015077 -2.480833,0.664838 -8.325756,0.643772 -10.897375,-0.03928 z" id="path951" />
    <path style="fill:#88fcfe" d="M 8.5000002,16 V 5.5 H 16 c 6.284102,0 7.5,0.2658367 7.5,1.6397577 0,0.901866 -0.7875,2.251866 -1.75,3.0000003 -1.666667,1.295469 -1.666667,1.425015 0,2.720485 2.653876,2.062809 2.101691,4.248124 -1.325332,5.245097 -4.105923,1.194475 -4.194453,2.820439 -0.174668,3.208018 2.69173,0.259532 3.25,0.731914 3.25,2.75 C 23.5,26.428957 23.281329,26.5 16,26.5 H 8.5000002 Z" id="path949" />
    <path style="fill:#72fbfe" d="M 8.5000002,16 V 5.5 H 16 c 6.833333,0 7.5,0.177778 7.5,1.9999997 0,1.40287 -0.671771,2.004572 -2.25,2.015313 -1.2375,0.0084 -2.925,0.458422 -3.75,1.0000003 -1.333333,0.875277 -1.333333,1.094097 0,1.969374 0.825,0.541578 2.5125,0.991578 3.75,1 1.554729,0.01058 2.25,0.614678 2.25,1.954948 0,1.518624 -0.812158,2.007001 -3.741683,2.25 -2.614951,0.216905 -3.841551,0.837342 -4.073325,2.060365 -0.271856,1.434529 0.402655,1.75 3.741684,1.75 3.678212,0 4.073324,0.2425 4.073324,2.5 0,2.444444 -0.166667,2.5 -7.5,2.5 H 8.5000002 Z" id="path947" />
    <path style="fill:#1f2222" d="M 8.4999995,16 V 5.5000001 H 16 23.5 v 2 2 H 19 14.5 V 11.5 v 2 h 4 4 v 2 2 h -4 -4 v 2.5 2.5 h 4.5 4.5 v 2 2 H 16 8.4999995 Z" id="path1070" />
  </g>
</svg>
