<?xml version="1.0" encoding="UTF-8" standalone="no"?>
<svg
   xmlns:dc="http://purl.org/dc/elements/1.1/"
   xmlns:cc="http://creativecommons.org/ns#"
   xmlns:rdf="http://www.w3.org/1999/02/22-rdf-syntax-ns#"
   xmlns:svg="http://www.w3.org/2000/svg"
   xmlns="http://www.w3.org/2000/svg"
   xmlns:sodipodi="http://sodipodi.sourceforge.net/DTD/sodipodi-0.dtd"
   xmlns:inkscape="http://www.inkscape.org/namespaces/inkscape"
   id="svg8"
   version="1.1"
   viewBox="0 0 64 64"
   height="64"
   width="64"
   sodipodi:docname="FEM_ConstraintElectrostaticPotential.svg"
   inkscape:version="1.0.1 (3bc2e813f5, 2020-09-07)">
  <sodipodi:namedview
     pagecolor="#ffffff"
     bordercolor="#666666"
     borderopacity="1"
     objecttolerance="10"
     gridtolerance="10"
     guidetolerance="10"
     inkscape:pageopacity="0"
     inkscape:pageshadow="2"
     inkscape:window-width="3840"
     inkscape:window-height="2095"
     id="namedview10"
     showgrid="false"
     inkscape:zoom="2.6074563"
     inkscape:cx="138.09696"
     inkscape:cy="-37.662513"
     inkscape:window-x="0"
     inkscape:window-y="0"
     inkscape:window-maximized="1"
     inkscape:current-layer="layer1"
     inkscape:document-rotation="0" />
  <defs
     id="defs2" />
  <metadata
     id="metadata5">
    <rdf:RDF>
      <cc:Work
         rdf:about="">
        <dc:format>image/svg+xml</dc:format>
        <dc:type
           rdf:resource="http://purl.org/dc/dcmitype/StillImage" />
        <dc:title />
      </cc:Work>
    </rdf:RDF>
  </metadata>
  <g
     transform="matrix(15.229651,0,0,15.229651,-3.9499368,-4458.0565)"
     id="layer1"
     style="stroke-width:0.06566139">
    <g
       aria-label="Pes"
       id="text6140"
       style="font-style:normal;font-variant:normal;font-weight:bold;font-stretch:normal;font-size:2.61281px;line-height:1.25;font-family:'DejaVu Sans';-inkscape-font-specification:'DejaVu Sans Bold';letter-spacing:0px;word-spacing:0px;fill:#000000;fill-opacity:1;stroke:none;stroke-width:0.00428902">
      <path
         d="M 0.59289825,293.63026 H 1.4081256 q 0.363599,0 0.5575185,0.16202 0.1951952,0.16075 0.1951952,0.45928 0,0.29981 -0.1951952,0.46184 -0.1939195,0.16075 -0.5575185,0.16075 H 1.0840759 V 295.535 H 0.59289825 Z m 0.49117765,0.35594 v 0.532 h 0.2717424 q 0.1428881,0 0.220711,-0.0689 0.077823,-0.0702 0.077823,-0.19775 0,-0.12758 -0.077823,-0.19647 -0.077823,-0.0689 -0.220711,-0.0689 z"
         style="font-style:normal;font-variant:normal;font-weight:bold;font-stretch:normal;font-family:'DejaVu Sans';-inkscape-font-specification:'DejaVu Sans Bold';stroke-width:0.00428902"
         id="path835" />
      <path
         d="m 3.3377543,295.59069 v 0.0846 H 2.6436614 q 0.01078,0.10448 0.075463,0.15673 0.064682,0.0522 0.1807793,0.0522 0.093707,0 0.1915596,-0.0274 0.098682,-0.0282 0.2023402,-0.0846 v 0.22888 q -0.1053164,0.0398 -0.2106328,0.0597 -0.1053163,0.0207 -0.2106327,0.0207 -0.2520959,0 -0.3922413,-0.1277 -0.1393161,-0.12854 -0.1393161,-0.3599 0,-0.22722 0.1368283,-0.35741 0.1376576,-0.1302 0.3781438,-0.1302 0.2189254,0 0.3499489,0.13185 0.1318528,0.13186 0.1318528,0.35244 z m -0.3051687,-0.0987 q 0,-0.0846 -0.049756,-0.136 -0.048927,-0.0522 -0.1285357,-0.0522 -0.086243,0 -0.1401454,0.0489 -0.053902,0.0481 -0.06717,0.13932 z"
         style="font-size:1.69833px;baseline-shift:sub;stroke-width:0.00428902"
         id="path837" />
      <path
         d="m 4.2880894,295.15782 v 0.22556 q -0.095365,-0.0398 -0.1840964,-0.0597 -0.088731,-0.0199 -0.167511,-0.0199 -0.084585,0 -0.126048,0.0216 -0.040634,0.0207 -0.040634,0.0647 0,0.0357 0.030683,0.0547 0.031512,0.0191 0.1119505,0.0282 l 0.052244,0.007 q 0.2280473,0.029 0.3068272,0.0954 0.07878,0.0663 0.07878,0.20815 0,0.14844 -0.1094627,0.22307 -0.1094627,0.0746 -0.3267295,0.0746 -0.092048,0 -0.1907304,-0.0149 -0.097853,-0.0141 -0.2015109,-0.0431 v -0.22556 q 0.088731,0.0431 0.1816086,0.0647 0.093707,0.0216 0.1899011,0.0216 0.087073,0 0.1310235,-0.024 0.043951,-0.0241 0.043951,-0.0713 0,-0.0398 -0.030683,-0.0589 -0.029853,-0.0199 -0.1202431,-0.0307 l -0.052243,-0.007 q -0.1981938,-0.0249 -0.277803,-0.0921 -0.079609,-0.0672 -0.079609,-0.204 0,-0.14761 0.10117,-0.21892 0.1011701,-0.0713 0.3101443,-0.0713 0.082097,0 0.1724866,0.0124 0.09039,0.0124 0.1965353,0.039 z"
         style="font-size:1.69833px;baseline-shift:sub;stroke-width:0.00428902"
         id="path839" />
    </g>
    <text
       id="text6144"
       y="291.55859"
       x="2.7012193"
       style="font-style:normal;font-weight:normal;font-size:10.5833px;line-height:1.25;font-family:sans-serif;letter-spacing:0px;word-spacing:0px;fill:#000000;fill-opacity:1;stroke:none;stroke-width:0.0173729"
       xml:space="preserve"><tspan
         style="stroke-width:0.0173729"
         y="301.09158"
         x="2.7012193"
         id="tspan6142" /></text>
  </g>
</svg>
