<?xml version="1.0" encoding="UTF-8" standalone="no"?>
<svg
   xmlns:dc="http://purl.org/dc/elements/1.1/"
   xmlns:cc="http://creativecommons.org/ns#"
   xmlns:rdf="http://www.w3.org/1999/02/22-rdf-syntax-ns#"
   xmlns:svg="http://www.w3.org/2000/svg"
   xmlns="http://www.w3.org/2000/svg"
   xmlns:sodipodi="http://sodipodi.sourceforge.net/DTD/sodipodi-0.dtd"
   xmlns:inkscape="http://www.inkscape.org/namespaces/inkscape"
   id="svg3880"
   version="1.1"
   inkscape:version="0.48.3.1 r9886"
   width="64"
   height="64"
   sodipodi:docname="concrete.svg">
  <metadata
     id="metadata3920">
    <rdf:RDF>
      <cc:Work
         rdf:about="">
        <dc:format>image/svg+xml</dc:format>
        <dc:type
           rdf:resource="http://purl.org/dc/dcmitype/StillImage" />
      </cc:Work>
    </rdf:RDF>
  </metadata>
  <sodipodi:namedview
     pagecolor="#ffffff"
     bordercolor="#666666"
     borderopacity="1"
     objecttolerance="10"
     gridtolerance="10"
     guidetolerance="10"
     inkscape:pageopacity="0"
     inkscape:pageshadow="2"
     inkscape:window-width="1920"
     inkscape:window-height="1057"
     id="namedview3918"
     showgrid="true"
     inkscape:snap-nodes="false"
     inkscape:zoom="5.0743655"
     inkscape:cx="58.310384"
     inkscape:cy="6.0346181"
     inkscape:window-x="0"
     inkscape:window-y="0"
     inkscape:window-maximized="1"
     inkscape:current-layer="svg3880">
    <inkscape:grid
       type="xygrid"
       id="grid3922"
       empspacing="5"
       visible="true"
       enabled="true"
       snapvisiblegridlinesonly="true"
       spacingx="8px"
       spacingy="8px" />
  </sodipodi:namedview>
  <defs
     id="defs3882">
    <pattern
       id="concrete"
       patternUnits="userSpaceOnUse"
       x="0"
       y="0"
       width=".5"
       height=".5">
      <g
         style="fill:none; stroke:#000000; stroke-width:.5"
         transform="scale(.01)"
         id="g3401">
        <path
           d="m 5.3571428,3.5228946 a 1.3392857,1.3392857 0 1 1 -2.6785715,0 1.3392857,1.3392857 0 1 1 2.6785715,0 z"
           id="path3886" />
        <path
           d="m 14.107143,6.8264661 a 3.2142856,3.2142856 0 1 1 -6.4285711,0 3.2142856,3.2142856 0 1 1 6.4285711,0 z"
           id="path3888" />
        <path
           d="m 14.821428,30.933609 a 0.71428573,0.71428573 0 1 1 -1.428571,0 0.71428573,0.71428573 0 1 1 1.428571,0 z"
           id="path3890" />
        <path
           d="m 28.571428,16.201466 a 2.2321429,2.2321429 0 1 1 -4.464286,0 2.2321429,2.2321429 0 1 1 4.464286,0 z"
           id="path3892" />
        <path
           d="m 6.2500002,20.085394 a 0.49107143,0.49107143 0 1 1 -0.9821429,0 0.49107143,0.49107143 0 1 1 0.9821429,0 z"
           id="path3894" />
        <path
           d="m 34.732144,27.527725 a 0.26785713,0.43340197 0 1 1 -0.535714,0 0.26785713,0.43340197 0 1 1 0.535714,0 z"
           id="path3896" />
        <path
           d="m 40.178572,9.3711081 a 0.13392857,0.22321428 0 1 1 -0.267857,0 0.13392857,0.22321428 0 1 1 0.267857,0 z"
           id="path3898" />
        <path
           d="m 40.982144,38.746109 a 0.22321428,0.22321428 0 1 1 -0.446428,0 0.22321428,0.22321428 0 1 1 0.446428,0 z"
           id="path3900" />
        <path
           d="m 31.160715,40.576466 a 3.9285715,3.9285715 0 1 1 -7.857143,0 3.9285715,3.9285715 0 1 1 7.857143,0 z"
           id="path3902" />
        <path
           d="m 22.232143,38.255035 a 1.6071428,1.6071428 0 1 1 -3.214286,0 1.6071428,1.6071428 0 1 1 3.214286,0 z"
           id="path3904" />
        <path
           d="m 41.964287,11.647895 a 0.89285713,0.89285713 0 1 1 -1.785714,0 0.89285713,0.89285713 0 1 1 1.785714,0 z"
           id="path3906" />
        <path
           d="m 36.07143,25.755037 a 0.35714287,0.35714287 0 1 1 -0.714286,0 0.35714287,0.35714287 0 1 1 0.714286,0 z"
           id="path3908" />
        <path
           d="m 6.25,42.987179 a 0.625,0.625 0 1 1 -1.25,0 0.625,0.625 0 1 1 1.25,0 z"
           id="path3910" />
        <path
           d="m 17.321428,19.951466 a 1.3392857,1.3392857 0 1 1 -2.678571,0 1.3392857,1.3392857 0 1 1 2.678571,0 z"
           id="path3912" />
        <path
           d="m 11.964286,18.165752 a 0.44642857,0.44642857 0 1 1 -0.892857,0 0.44642857,0.44642857 0 1 1 0.892857,0 z"
           id="path3914" />
        <path
           d="m 16.607143,7.8978949 a 0.53571427,0.53571427 0 1 1 -1.071429,0 0.53571427,0.53571427 0 1 1 1.071429,0 z"
           id="path3916" />
      </g>
    </pattern>
  </defs>
  <g
     id="g4092"
     transform="matrix(1.4548802,0,0,-1.4548802,-0.3104243,65.764647)"
     style="fill:none;stroke:#000000;stroke-width:0.5">
    <path
       id="path4094"
       d="m 5.3571428,3.5228946 a 1.3392857,1.3392857 0 1 1 -2.6785715,0 1.3392857,1.3392857 0 1 1 2.6785715,0 z"
       inkscape:connector-curvature="0" />
    <path
       id="path4096"
       d="m 14.107143,6.8264661 a 3.2142856,3.2142856 0 1 1 -6.4285711,0 3.2142856,3.2142856 0 1 1 6.4285711,0 z"
       inkscape:connector-curvature="0" />
    <path
       id="path4098"
       d="m 14.821428,30.933609 a 0.71428573,0.71428573 0 1 1 -1.428571,0 0.71428573,0.71428573 0 1 1 1.428571,0 z"
       inkscape:connector-curvature="0" />
    <path
       id="path4100"
       d="m 28.571428,16.201466 a 2.232143,2.232143 0 1 1 -4.464286,0 2.232143,2.232143 0 1 1 4.464286,0 z"
       inkscape:connector-curvature="0" />
    <path
       id="path4102"
       d="m 6.2500002,20.085394 a 0.49107145,0.49107145 0 1 1 -0.9821429,0 0.49107145,0.49107145 0 1 1 0.9821429,0 z"
       inkscape:connector-curvature="0" />
    <path
       id="path4104"
       d="m 34.732144,27.527725 a 0.26785713,0.43340197 0 1 1 -0.535714,0 0.26785713,0.43340197 0 1 1 0.535714,0 z"
       inkscape:connector-curvature="0" />
    <path
       id="path4106"
       d="m 40.178572,9.3711081 a 0.13392857,0.22321428 0 1 1 -0.267857,0 0.13392857,0.22321428 0 1 1 0.267857,0 z"
       inkscape:connector-curvature="0" />
    <path
       id="path4108"
       d="m 40.982144,38.746109 a 0.22321428,0.22321428 0 1 1 -0.446428,0 0.22321428,0.22321428 0 1 1 0.446428,0 z"
       inkscape:connector-curvature="0" />
    <path
       id="path4110"
       d="m 31.160715,40.576466 a 3.9285715,3.9285715 0 1 1 -7.857143,0 3.9285715,3.9285715 0 1 1 7.857143,0 z"
       inkscape:connector-curvature="0" />
    <path
       id="path4112"
       d="m 22.232143,38.255035 a 1.607143,1.607143 0 1 1 -3.214286,0 1.607143,1.607143 0 1 1 3.214286,0 z"
       inkscape:connector-curvature="0" />
    <path
       id="path4114"
       d="m 41.964287,11.647895 a 0.89285713,0.89285713 0 1 1 -1.785714,0 0.89285713,0.89285713 0 1 1 1.785714,0 z"
       inkscape:connector-curvature="0" />
    <path
       id="path4116"
       d="m 36.07143,25.755037 a 0.357143,0.357143 0 1 1 -0.714286,0 0.357143,0.357143 0 1 1 0.714286,0 z"
       inkscape:connector-curvature="0" />
    <path
       id="path4118"
       d="m 6.25,42.987179 a 0.625,0.625 0 1 1 -1.25,0 0.625,0.625 0 1 1 1.25,0 z"
       inkscape:connector-curvature="0" />
    <path
       id="path4120"
       d="m 17.321428,19.951466 a 1.3392857,1.3392857 0 1 1 -2.678571,0 1.3392857,1.3392857 0 1 1 2.678571,0 z"
       inkscape:connector-curvature="0" />
    <path
       id="path4122"
       d="m 11.964286,18.165752 a 0.44642857,0.44642857 0 1 1 -0.892857,0 0.44642857,0.44642857 0 1 1 0.892857,0 z"
       inkscape:connector-curvature="0" />
    <path
       id="path4124"
       d="m 16.607143,7.8978949 a 0.5357145,0.5357145 0 1 1 -1.071429,0 0.5357145,0.5357145 0 1 1 1.071429,0 z"
       inkscape:connector-curvature="0" />
  </g>
</svg>
