<svg>
  <defs>
    <pattern
       id="concrete"
       patternUnits="userSpaceOnUse"
       x="0"
       y="0"
       width=".5"
       height=".5">
      <g
         style="fill:none; stroke:#000000; stroke-width:.5"
         transform="scale(.01)"
         id="g3401">
        <path
           d="m 5.3571428,3.5228946 a 1.3392857,1.3392857 0 1 1 -2.6785715,0 1.3392857,1.3392857 0 1 1 2.6785715,0 z"
           id="path2840" />
        <path
           d="m 14.107143,6.8264661 a 3.2142856,3.2142856 0 1 1 -6.4285711,0 3.2142856,3.2142856 0 1 1 6.4285711,0 z"
           id="path2842" />
        <path
           d="m 14.821428,30.933609 a 0.71428573,0.71428573 0 1 1 -1.428571,0 0.71428573,0.71428573 0 1 1 1.428571,0 z"
           id="path2844" />
        <path
           d="m 28.571428,16.201466 a 2.2321429,2.2321429 0 1 1 -4.464286,0 2.2321429,2.2321429 0 1 1 4.464286,0 z"
           id="path2846" />
        <path
           d="m 6.2500002,20.085394 a 0.49107143,0.49107143 0 1 1 -0.9821429,0 0.49107143,0.49107143 0 1 1 0.9821429,0 z"
           id="path2848" />
        <path
           d="m 34.732144,27.527725 a 0.26785713,0.43340197 0 1 1 -0.535714,0 0.26785713,0.43340197 0 1 1 0.535714,0 z"
           id="path2850" />
        <path
           d="m 40.178572,9.3711081 a 0.13392857,0.22321428 0 1 1 -0.267857,0 0.13392857,0.22321428 0 1 1 0.267857,0 z"
           id="path2852" />
        <path
           d="m 40.982144,38.746109 a 0.22321428,0.22321428 0 1 1 -0.446428,0 0.22321428,0.22321428 0 1 1 0.446428,0 z"
           id="path2854" />
        <path
           d="m 31.160715,40.576466 a 3.9285715,3.9285715 0 1 1 -7.857143,0 3.9285715,3.9285715 0 1 1 7.857143,0 z"
           id="path2856" />
        <path
           d="m 22.232143,38.255035 a 1.6071428,1.6071428 0 1 1 -3.214286,0 1.6071428,1.6071428 0 1 1 3.214286,0 z"
           id="path2858" />
        <path
           d="m 41.964287,11.647895 a 0.89285713,0.89285713 0 1 1 -1.785714,0 0.89285713,0.89285713 0 1 1 1.785714,0 z"
           id="path2860" />
        <path
           d="m 36.07143,25.755037 a 0.35714287,0.35714287 0 1 1 -0.714286,0 0.35714287,0.35714287 0 1 1 0.714286,0 z"
           id="path2862" />
        <path
           d="m 6.25,42.987179 a 0.625,0.625 0 1 1 -1.25,0 0.625,0.625 0 1 1 1.25,0 z"
           id="path2864" />
        <path
           d="m 17.321428,19.951466 a 1.3392857,1.3392857 0 1 1 -2.678571,0 1.3392857,1.3392857 0 1 1 2.678571,0 z"
           id="path2866" />
        <path
           d="m 11.964286,18.165752 a 0.44642857,0.44642857 0 1 1 -0.892857,0 0.44642857,0.44642857 0 1 1 0.892857,0 z"
           id="path2868" />
        <path
           d="m 16.607143,7.8978949 a 0.53571427,0.53571427 0 1 1 -1.071429,0 0.53571427,0.53571427 0 1 1 1.071429,0 z"
           id="path2870" />
        <path
           d="m 30.535714,13.612181 a 0.53571427,0.53571427 0 1 1 -1.071428,0 0.53571427,0.53571427 0 1 1 1.071428,0 z"
           id="path2872" />
        <path
           d="m 34.285716,42.719322 a 0.71428573,0.71428573 0 1 1 -1.428572,0 0.71428573,0.71428573 0 1 1 1.428572,0 z"
           id="path2874" />
        <path
           d="m 40.535714,28.522894 a 1.5178572,1.5178572 0 1 1 -3.035715,0 1.5178572,1.5178572 0 1 1 3.035715,0 z"
           id="path2876" />
        <path
           d="m 39.821427,22.005037 a 1.7857143,1.7857143 0 1 1 -3.571428,0 1.7857143,1.7857143 0 1 1 3.571428,0 z"
           id="path2878" />
        <path
           d="m 27.857144,28.522894 a 2.9464285,2.9464285 0 1 1 -5.892857,0 2.9464285,2.9464285 0 1 1 5.892857,0 z"
           id="path2880" />
        <path
           d="m 6.2500002,28.969324 a 1.4285715,1.4285715 0 1 1 -2.8571429,0 1.4285715,1.4285715 0 1 1 2.8571429,0 z"
           id="path2882" />
        <path
           d="m 3.0357143,33.880039 a 0.8035714,0.8035714 0 1 1 -1.6071428,0 0.8035714,0.8035714 0 1 1 1.6071428,0 z"
           id="path2884" />
        <path
           d="m 48.57143,18.969324 a 1.6071428,1.6071428 0 1 1 -3.214286,0 1.6071428,1.6071428 0 1 1 3.214286,0 z"
           id="path2886" />
        <path
           d="m 33.57143,6.0228949 a 0.98214287,0.98214287 0 1 1 -1.964286,0 0.98214287,0.98214287 0 1 1 1.964286,0 z"
           id="path2888" />
        <path
           d="m 25.714285,1.558609 a 0.44642857,0.44642857 0 1 1 -0.892857,0 0.44642857,0.44642857 0 1 1 0.892857,0 z"
           id="path2890" />
        <path
           d="m 23.571428,4.058609 a 0.98214287,0.98214287 0 1 1 -1.964286,0 0.98214287,0.98214287 0 1 1 1.964286,0 z"
           id="path2892" />
        <path
           d="m 28.035715,19.505037 a 0.35714287,0.35714287 0 1 1 -0.714286,0 0.35714287,0.35714287 0 1 1 0.714286,0 z"
           id="path2894" />
        <path
           d="m 32.048595,35.933609 a 0.5778693,0.35714287 0 1 1 -1.155738,0 0.5778693,0.35714287 0 1 1 1.155738,0 z"
           id="path2896" />
        <path
           d="m 47.5,45.040752 a 1.25,1.25 0 1 1 -2.5,0 1.25,1.25 0 1 1 2.5,0 z"
           id="path2898" />
        <path
           d="m 44.821429,3.7907519 a 0.71428573,0.71428573 0 1 1 -1.428571,0 0.71428573,0.71428573 0 1 1 1.428571,0 z"
           id="path2900" />
        <path
           d="m 8.7499996,43.701466 a 0.26785713,0.26785713 0 1 1 -0.5357143,0 0.26785713,0.26785713 0 1 1 0.5357143,0 z"
           id="path2902" />
      </g>
    </pattern>
  </defs>
</svg>