<svg>
  <defs>
    <pattern
       id="concrete"
       patternUnits="userSpaceOnUse"
       x="0"
       y="0"
       width=".5"
       height=".5">
      <g
         style="fill:none; stroke:#000000; stroke-width:.5"
         transform="scale(.01)"
         id="g3401">
        <path d="m 5.3571428,3.5228946 a 1.3392857,1.3392857 0 1 1 -2.6785715,0 1.3392857,1.3392857 0 1 1 2.6785715,0 z"/>
        <path d="m 14.107143,6.8264661 a 3.2142856,3.2142856 0 1 1 -6.4285711,0 3.2142856,3.2142856 0 1 1 6.4285711,0 z"/>
        <path d="m 14.821428,30.933609 a 0.71428573,0.71428573 0 1 1 -1.428571,0 0.71428573,0.71428573 0 1 1 1.428571,0 z"/>
        <path d="m 28.571428,16.201466 a 2.2321429,2.2321429 0 1 1 -4.464286,0 2.2321429,2.2321429 0 1 1 4.464286,0 z"/>
        <path d="m 6.2500002,20.085394 a 0.49107143,0.49107143 0 1 1 -0.9821429,0 0.49107143,0.49107143 0 1 1 0.9821429,0 z"/>
        <path d="m 34.732144,27.527725 a 0.26785713,0.43340197 0 1 1 -0.535714,0 0.26785713,0.43340197 0 1 1 0.535714,0 z"/>
        <path d="m 40.178572,9.3711081 a 0.13392857,0.22321428 0 1 1 -0.267857,0 0.13392857,0.22321428 0 1 1 0.267857,0 z"/>
        <path d="m 40.982144,38.746109 a 0.22321428,0.22321428 0 1 1 -0.446428,0 0.22321428,0.22321428 0 1 1 0.446428,0 z"/>
        <path d="m 31.160715,40.576466 a 3.9285715,3.9285715 0 1 1 -7.857143,0 3.9285715,3.9285715 0 1 1 7.857143,0 z"/>
        <path d="m 22.232143,38.255035 a 1.6071428,1.6071428 0 1 1 -3.214286,0 1.6071428,1.6071428 0 1 1 3.214286,0 z"/>
        <path d="m 41.964287,11.647895 a 0.89285713,0.89285713 0 1 1 -1.785714,0 0.89285713,0.89285713 0 1 1 1.785714,0 z"/>
        <path d="m 36.07143,25.755037 a 0.35714287,0.35714287 0 1 1 -0.714286,0 0.35714287,0.35714287 0 1 1 0.714286,0 z"/>
        <path d="m 6.25,42.987179 a 0.625,0.625 0 1 1 -1.25,0 0.625,0.625 0 1 1 1.25,0 z"/>
        <path d="m 17.321428,19.951466 a 1.3392857,1.3392857 0 1 1 -2.678571,0 1.3392857,1.3392857 0 1 1 2.678571,0 z"/>
        <path d="m 11.964286,18.165752 a 0.44642857,0.44642857 0 1 1 -0.892857,0 0.44642857,0.44642857 0 1 1 0.892857,0 z"/>
        <path d="m 16.607143,7.8978949 a 0.53571427,0.53571427 0 1 1 -1.071429,0 0.53571427,0.53571427 0 1 1 1.071429,0 z"/>
      </g>
    </pattern>
  </defs>
</svg>