<?xml version="1.0" encoding="UTF-8" standalone="no"?>
<!-- Created with Inkscape (http://www.inkscape.org/) -->
<svg xmlns:dc="http://purl.org/dc/elements/1.1/" xmlns:cc="http://creativecommons.org/ns#" xmlns:rdf="http://www.w3.org/1999/02/22-rdf-syntax-ns#" xmlns:svg="http://www.w3.org/2000/svg" xmlns="http://www.w3.org/2000/svg" xmlns:xlink="http://www.w3.org/1999/xlink" xmlns:sodipodi="http://sodipodi.sourceforge.net/DTD/sodipodi-0.dtd" xmlns:inkscape="http://www.inkscape.org/namespaces/inkscape" width="64px" height="64px" id="svg2980" sodipodi:version="0.32" inkscape:version="0.48.5 r10040" sodipodi:docname="Arch_Component_Clone.svg" inkscape:output_extension="org.inkscape.output.svg.inkscape" version="1.1">
  <defs id="defs2982">
    <linearGradient inkscape:collect="always" id="linearGradient3805">
      <stop style="stop-color:#4e9a06;stop-opacity:1" offset="0" id="stop3807"/>
      <stop style="stop-color:#8ae234;stop-opacity:1" offset="1" id="stop3809"/>
    </linearGradient>
    <linearGradient inkscape:collect="always" id="linearGradient3777">
      <stop style="stop-color:#888a85;stop-opacity:1" offset="0" id="stop3779"/>
      <stop style="stop-color:#babdb6;stop-opacity:1" offset="1" id="stop3781"/>
    </linearGradient>
    <linearGradient inkscape:collect="always" id="linearGradient3767">
      <stop style="stop-color:#babdb6;stop-opacity:1" offset="0" id="stop3769"/>
      <stop style="stop-color:#d3d7cf;stop-opacity:1" offset="1" id="stop3771"/>
    </linearGradient>
    <linearGradient id="linearGradient3864">
      <stop id="stop3866" offset="0" style="stop-color:#71b2f8;stop-opacity:1;"/>
      <stop id="stop3868" offset="1" style="stop-color:#002795;stop-opacity:1;"/>
    </linearGradient>
    <radialGradient inkscape:collect="always" xlink:href="#linearGradient3864" id="radialGradient3850" gradientUnits="userSpaceOnUse" gradientTransform="matrix(0.6028459,1.0471639,-1.9794021,1.1395295,127.9588,-74.456907)" cx="51.328892" cy="31.074146" fx="51.328892" fy="31.074146" r="19.571428"/>
    <inkscape:perspective sodipodi:type="inkscape:persp3d" inkscape:vp_x="0 : 32 : 1" inkscape:vp_y="0 : 1000 : 0" inkscape:vp_z="64 : 32 : 1" inkscape:persp3d-origin="32 : 21.333333 : 1" id="perspective2988"/>
    <linearGradient inkscape:collect="always" xlink:href="#linearGradient3767" id="linearGradient3773" x1="22.116516" y1="55.717518" x2="17.328547" y2="21.31134" gradientUnits="userSpaceOnUse"/>
    <linearGradient inkscape:collect="always" xlink:href="#linearGradient3777" id="linearGradient3783" x1="53.896763" y1="51.179787" x2="47.502235" y2="21.83742" gradientUnits="userSpaceOnUse"/>
    <linearGradient inkscape:collect="always" xlink:href="#linearGradient3805" id="linearGradient3811" x1="49.058823" y1="60.823528" x2="34.941177" y2="23.17647" gradientUnits="userSpaceOnUse"/>
    <linearGradient gradientTransform="matrix(0.4997413,0,0,0.49975224,1.4938821,30.479188)" y2="9" x2="26" y1="56" x1="42" gradientUnits="userSpaceOnUse" id="linearGradient3033" xlink:href="#linearGradient3797" inkscape:collect="always"/>
    <linearGradient id="linearGradient3797">
      <stop style="stop-color:#3465a4;stop-opacity:1;" offset="0" id="stop3799"/>
      <stop style="stop-color:#729fcf;stop-opacity:1;" offset="1" id="stop3801"/>
    </linearGradient>
    <linearGradient gradientTransform="translate(-0.00826352,-0.02205)" inkscape:collect="always" xlink:href="#linearGradient3962" id="linearGradient3968" x1="30" y1="48" x2="29" y2="39" gradientUnits="userSpaceOnUse"/>
    <linearGradient inkscape:collect="always" id="linearGradient3962">
      <stop style="stop-color:#babdb6;stop-opacity:1" offset="0" id="stop3964"/>
      <stop style="stop-color:#d3d7cf;stop-opacity:1" offset="1" id="stop3966"/>
    </linearGradient>
    <linearGradient gradientTransform="translate(-0.00826352,-0.02205)" inkscape:collect="always" xlink:href="#linearGradient3978" id="linearGradient3984" x1="26" y1="50" x2="25" y2="38" gradientUnits="userSpaceOnUse"/>
    <linearGradient inkscape:collect="always" id="linearGradient3978">
      <stop style="stop-color:#d3d7cf;stop-opacity:1" offset="0" id="stop3980"/>
      <stop style="stop-color:#ffffff;stop-opacity:1" offset="1" id="stop3982"/>
    </linearGradient>
    <linearGradient inkscape:collect="always" xlink:href="#linearGradient3930" id="linearGradient3936" x1="22" y1="52" x2="19" y2="38" gradientUnits="userSpaceOnUse"/>
    <linearGradient inkscape:collect="always" id="linearGradient3930">
      <stop style="stop-color:#babdb6;stop-opacity:1" offset="0" id="stop3932"/>
      <stop style="stop-color:#d3d7cf;stop-opacity:1" offset="1" id="stop3934"/>
    </linearGradient>
    <linearGradient gradientTransform="translate(-0.00826352,-0.02205)" y2="38" x2="19" y1="52" x1="22" gradientUnits="userSpaceOnUse" id="linearGradient3214" xlink:href="#linearGradient3930" inkscape:collect="always"/>
  </defs>
  <sodipodi:namedview id="base" pagecolor="#ffffff" bordercolor="#666666" borderopacity="1.0" inkscape:pageopacity="0.0" inkscape:pageshadow="2" inkscape:zoom="7.1304038" inkscape:cx="-7.0999676" inkscape:cy="24.875079" inkscape:current-layer="layer1" showgrid="true" inkscape:document-units="px" inkscape:grid-bbox="true" inkscape:window-width="1600" inkscape:window-height="837" inkscape:window-x="0" inkscape:window-y="27" inkscape:window-maximized="1" inkscape:snap-global="true" inkscape:snap-bbox="true">
    <inkscape:grid type="xygrid" id="grid2991" empspacing="2" visible="true" enabled="true" snapvisiblegridlinesonly="true"/>
  </sodipodi:namedview>
  <metadata id="metadata2985">
    <rdf:RDF>
      <cc:Work rdf:about="">
        <dc:format>image/svg+xml</dc:format>
        <dc:type rdf:resource="http://purl.org/dc/dcmitype/StillImage"/>
        <dc:title/>
        <dc:creator>
          <cc:Agent>
            <dc:title>[Yorik van Havre]</dc:title>
          </cc:Agent>
        </dc:creator>
        <dc:title>Arch_Component</dc:title>
        <dc:date>2015-04-08</dc:date>
        <dc:relation>http://www.freecadweb.org/wiki/index.php?title=Artwork</dc:relation>
        <dc:publisher>
          <cc:Agent>
            <dc:title>FreeCAD</dc:title>
          </cc:Agent>
        </dc:publisher>
        <dc:identifier>FreeCAD/src/Mod/Arch/Resources/icons/Arch_Component.svg</dc:identifier>
        <dc:rights>
          <cc:Agent>
            <dc:title>FreeCAD LGPL2+</dc:title>
          </cc:Agent>
        </dc:rights>
        <cc:license>https://www.gnu.org/copyleft/lesser.html</cc:license>
        <dc:contributor>
          <cc:Agent>
            <dc:title>[agryson] Alexander Gryson, [agryson] Alexander Gryson</dc:title>
          </cc:Agent>
        </dc:contributor>
      </cc:Work>
    </rdf:RDF>
  </metadata>
  <g id="layer1" inkscape:label="Layer 1" inkscape:groupmode="layer">
    <path style="fill:#ffffff;stroke:#2e3436;stroke-width:2;stroke-linecap:butt;stroke-linejoin:round;stroke-opacity:1" d="M 3,17 37,23 61,15 31,11 z" id="path2993" inkscape:connector-curvature="0" sodipodi:nodetypes="ccccc"/>
    <path style="fill:url(#linearGradient3783);stroke:#2e3436;stroke-width:2;stroke-linecap:butt;stroke-linejoin:round;stroke-opacity:1;fill-opacity:1" d="M 61,15 61,51 37,61 37,23 z" id="path2995" inkscape:connector-curvature="0"/>
    <path inkscape:connector-curvature="0" sodipodi:nodetypes="ccccc" id="path3825" d="M 3,17 37,23 37,61 3,55 z" style="fill:url(#linearGradient3773);fill-opacity:1;fill-rule:evenodd;stroke:#2e3436;stroke-width:2;stroke-linecap:butt;stroke-linejoin:round;stroke-miterlimit:4;stroke-opacity:1;stroke-dasharray:none;stroke-dashoffset:0;marker:none;visibility:visible;display:inline;overflow:visible;enable-background:accumulate"/>
    <path style="fill:none;stroke:#d3d7cf;stroke-width:2;stroke-linecap:butt;stroke-linejoin:miter;stroke-opacity:1" d="m 5,19.42772 0.00867,33.919116 30.0086711,5.268799 -0.0087,-33.933614 z" id="path3765" inkscape:connector-curvature="0" sodipodi:nodetypes="ccccc"/>
    <path style="fill:none;stroke:#babdb6;stroke-width:2;stroke-linecap:butt;stroke-linejoin:miter;stroke-opacity:1" d="m 39.01243,24.433833 -0.01226,33.535301 20.001105,-8.300993 3.6e-4,-31.867363 z" id="path3775" inkscape:connector-curvature="0" sodipodi:nodetypes="ccccc"/>
    <path style="fill:url(#linearGradient3214);fill-opacity:1;stroke:#2e3436;stroke-width:2;stroke-linecap:butt;stroke-linejoin:round;stroke-miterlimit:4;stroke-opacity:1;stroke-dasharray:none" d="m 16.991737,56.97795 5.999999,-4 0,-16 -5.999999,-2 z" id="path3908" inkscape:connector-curvature="0"/>
    <path style="fill:url(#linearGradient3984);fill-opacity:1;stroke:#2e3436;stroke-width:2;stroke-linecap:butt;stroke-linejoin:round;stroke-miterlimit:4;stroke-opacity:1;stroke-dasharray:none" d="m 26.991736,50.97795 0,-14 -4,-1 0,14 z" id="path3910" inkscape:connector-curvature="0"/>
    <path id="path3004-1" style="fill:url(#linearGradient3033);fill-opacity:1;stroke:#0b1521;stroke-width:2;stroke-linecap:round;stroke-linejoin:round;stroke-miterlimit:4;stroke-opacity:1;stroke-dasharray:none" d="m 15.695965,59.268504 c 0,0 1.054056,-0.0895 -2.108113,1.253014 C 10.425682,61.864035 8.1498795,59.850261 7,59 5.884379,58.175071 5.083534,56.270216 5.059578,54.793448 3.909699,54.614445 2.5681731,51.929413 3.143112,50.586896 3.718052,49.24438 5.538695,48.617872 6.4011047,45.932839 7.263514,43.247806 7.0718678,38.68325 7.263514,37.967242 c 0.1916463,-0.71601 1.1498796,-5.996575 10.232235,-5.996575 9.082356,0 10.040589,5.280565 10.232236,5.996575 0.191646,0.716009 0,5.280564 0.862409,7.965597 0.86241,2.685033 2.683052,3.311542 3.257992,4.654058 0.574941,1.342517 -0.766585,4.027549 -1.916465,4.206552 -0.02396,1.476768 -0.824801,3.381622 -1.940422,4.206551 -1.149879,0.850261 -3.425683,2.864035 -6.587851,1.521519 -3.16217,-1.342516 -2.108113,-1.253015 -2.108113,-1.253015 z" inkscape:connector-curvature="0" sodipodi:nodetypes="csscssscssscsscc"/>
    <path style="fill:#0b1521;fill-opacity:1;stroke:#0b1521;stroke-width:2;stroke-linecap:round;stroke-linejoin:round;stroke-opacity:1" d="m 9.9973995,53.202734 c 0,0 1.7955675,-0.569582 3.1507145,-1.708745 1.355146,-1.139162 1.795569,-2.531473 4.099318,-2.531473 2.303746,0 2.778048,1.550527 4.404223,2.816264 1.573676,1.224875 2.981322,1.423954 2.981322,1.423954 0,0 -2.202113,0.316435 -3.760531,-0.569582 -1.558418,-0.886015 -1.355146,-2.056822 -3.591136,-1.993535 -2.235991,0.06329 -2.608656,1.360666 -4.234831,1.993535 -1.626177,0.632869 -3.0490795,0.569582 -3.0490795,0.569582 z" id="path3814" inkscape:connector-curvature="0" sodipodi:nodetypes="cssscsssc"/>
    <path id="path3004-1-3" style="fill:none;stroke:#729fcf;stroke-width:1.99999988;stroke-linecap:round;stroke-linejoin:round;stroke-miterlimit:4;stroke-opacity:1;stroke-dasharray:none" d="m 16.192109,57.26057 c 0,0 0.230003,0.143587 -2.446389,1.300574 C 11.069326,59.718131 9.3638428,58.070938 8.3906093,57.338179 7.4463709,56.627251 6.8568361,54.831134 6.8365606,53.558447 5.7529724,53.470397 4.6243052,51.191791 5.1041495,50.573307 5.8803303,49.572868 7.4407128,48.479097 8.1706388,46.165122 8.9005632,43.851147 8.738358,39.211088 8.9005632,38.594028 9.0627693,37.976967 10.006222,33.977949 17.693338,33.97795 c 7.687114,0 8.255363,4.285953 8.41757,4.903014 0.162204,0.617059 0,5.014327 0.729925,7.328302 0.729925,2.313975 2.270877,3.118766 2.956133,4.12125 0.7083,1.036196 -0.670893,3.11781 -1.644128,3.272076 -0.02028,1.272687 -0.521526,3.046731 -1.465765,3.757659 -0.973233,0.732759 -2.502149,2.512384 -5.178542,1.355397 -2.676393,-1.156987 -2.269822,-1.455078 -2.269822,-1.455078 z" inkscape:connector-curvature="0" sodipodi:nodetypes="csscssscssscsscc"/>
    <path sodipodi:type="arc" style="color:#000000;fill:#0b1521;fill-opacity:1;fill-rule:evenodd;stroke:#0b1521;stroke-width:1.96330416;stroke-linecap:round;stroke-linejoin:round;stroke-miterlimit:4;stroke-opacity:1;stroke-dasharray:none;stroke-dashoffset:0;marker:none;visibility:visible;display:inline;overflow:visible;enable-background:accumulate" id="path3836" sodipodi:cx="20.227272" sodipodi:cy="55.409092" sodipodi:rx="2.0454545" sodipodi:ry="2.0454545" d="m 22.272727,55.409092 a 2.0454545,2.0454545 0 1 1 -4.090909,0 2.0454545,2.0454545 0 1 1 4.090909,0 z" transform="matrix(0.52702813,0,0,0.49225601,1.0350001,30.449149)"/>
    <path style="fill:#0b1521;fill-opacity:1;stroke:#0b1521;stroke-width:1;stroke-linecap:butt;stroke-linejoin:round;stroke-opacity:1" d="m 8.6422531,42.443972 6.8434879,-0.253147 c 0,0 -0.271029,1.39231 -1.964962,2.341612 -1.693934,0.949304 -3.320109,0.886016 -3.320109,0.886016 0,0 -0.4065432,-0.126573 -1.016358,-1.329024 C 8.5744962,42.88698 8.6422531,42.443972 8.6422531,42.443972 z" id="path3794" inkscape:connector-curvature="0"/>
    <path style="fill:#0b1521;fill-opacity:1;stroke:#0b1521;stroke-width:1;stroke-linecap:butt;stroke-linejoin:round;stroke-opacity:1" d="m 26.024063,42.443972 -6.843487,-0.253147 c 0,0 0.271029,1.39231 1.964962,2.341612 1.693932,0.949304 3.320107,0.886016 3.320107,0.886016 0,0 0.406544,-0.126573 1.01636,-1.329024 0.609815,-1.202449 0.542058,-1.645457 0.542058,-1.645457 z" id="path3794-0" inkscape:connector-curvature="0"/>
    <path style="fill:#0b1521;fill-opacity:1;stroke:#0b1521;stroke-width:1;stroke-linecap:round;stroke-linejoin:round;stroke-opacity:1" d="m 7.7614076,45.798174 1.6581311,1.947062 -1.2696587,1.61102 c 0,0 -0.3114258,-0.559381 -0.359338,-1.432017 -0.04791,-0.872636 -0.029135,-2.126065 -0.029135,-2.126065 z" id="path3816" inkscape:connector-curvature="0"/>
    <path style="fill:#0b1521;fill-opacity:1;stroke:#0b1521;stroke-width:1;stroke-linecap:round;stroke-linejoin:round;stroke-opacity:1" d="m 26.999487,45.798174 -1.658131,1.947062 1.269659,1.61102 c 0,0 0.311426,-0.559381 0.359338,-1.432017 0.04791,-0.872636 0.02914,-2.126065 0.02914,-2.126065 z" id="path3816-2" inkscape:connector-curvature="0" inkscape:transform-center-x="-0.81449848"/>
    <path style="fill:#204a87;fill-opacity:1;stroke:#0b1521;stroke-width:2;stroke-linecap:round;stroke-linejoin:round;stroke-miterlimit:4;stroke-opacity:1;stroke-dasharray:none" d="m 15.98638,58.965066 c 0,0 -0.999482,0 -0.999482,-0.999504 0,-1.499257 0.24987,-3.498266 2.29881,-3.498266 2.048938,0 2.19886,1.999009 2.19886,3.498266 0,0.999504 -0.999482,0.999504 -0.999482,0.999504 z" id="path3856" inkscape:connector-curvature="0" sodipodi:nodetypes="cszscc"/>
    <path sodipodi:type="arc" style="color:#000000;fill:#0b1521;fill-opacity:1;fill-rule:evenodd;stroke:#0b1521;stroke-width:1.96330416;stroke-linecap:round;stroke-linejoin:round;stroke-miterlimit:4;stroke-opacity:1;stroke-dasharray:none;stroke-dashoffset:0;marker:none;visibility:visible;display:inline;overflow:visible;enable-background:accumulate" id="path3836-8" sodipodi:cx="20.227272" sodipodi:cy="55.409092" sodipodi:rx="2.0454545" sodipodi:ry="2.0454545" d="m 22.272727,55.409092 a 2.0454545,2.0454545 0 1 1 -4.090909,0 2.0454545,2.0454545 0 1 1 4.090909,0 z" transform="matrix(0.52702813,0,0,0.49225601,12.366106,30.247771)"/>
    <path style="fill:none;stroke:#0b1521;stroke-width:2;stroke-linecap:butt;stroke-linejoin:miter;stroke-miterlimit:4;stroke-opacity:1;stroke-dasharray:none" d="m 6.9910366,40.973985 c 0,0 5.3681654,-0.584393 10.4945674,-0.499752 4.795163,0.07917 10.494566,0.499752 10.494566,0.499752" id="path3858" inkscape:connector-curvature="0" sodipodi:nodetypes="csc"/>
  </g>
</svg>
