/* XPM */
static char * Sim_xpm[] = {
"32 32 301 2",
"  	c None",
". 	c #CCCCCC",
"+ 	c #A9A9A9",
"@ 	c #989898",
"# 	c #A1A1A1",
"$ 	c #C3C3C3",
"% 	c #C1C0C1",
"& 	c #BFBFBF",
"* 	c #A7A7A7",
"= 	c #808080",
"- 	c #5C5C5C",
"; 	c #565655",
"> 	c #4E4E4E",
", 	c #676767",
"' 	c #898989",
") 	c #B6B5B6",
"! 	c #BABABA",
"~ 	c #B9B9B9",
"{ 	c #A5A5A5",
"] 	c #7E7E7E",
"^ 	c #595A59",
"/ 	c #575656",
"( 	c #535353",
"_ 	c #505050",
": 	c #4D4D4C",
"< 	c #474747",
"[ 	c #404040",
"} 	c #4D4D4D",
"| 	c #787878",
"1 	c #B8B7B8",
"2 	c #B6B6B6",
"3 	c #888888",
"4 	c #7C7C7C",
"5 	c #575657",
"6 	c #535354",
"7 	c #4E4D4E",
"8 	c #4A4A4A",
"9 	c #444444",
"0 	c #414141",
"a 	c #3E3E3E",
"b 	c #393938",
"c 	c #313131",
"d 	c #393939",
"e 	c #636363",
"f 	c #ABABAB",
"g 	c #B3B3B3",
"h 	c #848484",
"i 	c #787979",
"j 	c #545454",
"k 	c #515151",
"l 	c #4B4B4B",
"m 	c #484748",
"n 	c #3B3B3B",
"o 	c #383838",
"p 	c #353535",
"q 	c #323232",
"r 	c #2F2F2E",
"s 	c #2A2A2A",
"t 	c #222323",
"u 	c #252625",
"v 	c #AFAFAF",
"w 	c #767676",
"x 	c #484848",
"y 	c #454545",
"z 	c #424242",
"A 	c #3F3F3E",
"B 	c #3B3B3C",
"C 	c #393838",
"D 	c #2F2F2F",
"E 	c #2C2C2C",
"F 	c #292929",
"G 	c #262626",
"H 	c #222222",
"I 	c #1F1F20",
"J 	c #171716",
"K 	c #959595",
"L 	c #747474",
"M 	c #4E4E4F",
"N 	c #4C4B4C",
"O 	c #484849",
"P 	c #424243",
"Q 	c #282828",
"R 	c #525251",
"S 	c #373737",
"T 	c #353636",
"U 	c #333233",
"V 	c #30302F",
"W 	c #2C2D2D",
"X 	c #232323",
"Y 	c #201F20",
"Z 	c #1D1D1D",
"` 	c #151414",
" .	c #717272",
"..	c #4C4C4C",
"+.	c #484949",
"@.	c #464545",
"#.	c #424343",
"$.	c #3A3A3A",
"%.	c #5D4A49",
"&.	c #7E7E86",
"*.	c #56569F",
"=.	c #3E3E41",
"-.	c #757575",
";.	c #575757",
">.	c #222221",
",.	c #262627",
"'.	c #242423",
").	c #212020",
"!.	c #1A1A1A",
"~.	c #121212",
"{.	c #939493",
"].	c #6F6F6F",
"^.	c #494949",
"/.	c #464646",
"(.	c #434343",
"_.	c #554545",
":.	c #686863",
"<.	c #939394",
"[.	c #BDBDBD",
"}.	c #202021",
"|.	c #1E1E1E",
"1.	c #171718",
"2.	c #0F0F0F",
"3.	c #929292",
"4.	c #6C6D6D",
"5.	c #464746",
"6.	c #525F73",
"7.	c #444648",
"8.	c #3D3D3D",
"9.	c #2D2C2A",
"0.	c #A1A2A2",
"a.	c #AAACAC",
"b.	c #A6A7A7",
"c.	c #A8AAAA",
"d.	c #AFB0B0",
"e.	c #777676",
"f.	c #9A9A9A",
"g.	c #1B1B1B",
"h.	c #181818",
"i.	c #0C0C0C",
"j.	c #909090",
"k.	c #6B6A6B",
"l.	c #55657E",
"m.	c #6990FB",
"n.	c #6483CD",
"o.	c #5871B2",
"p.	c #434E7E",
"q.	c #A97C76",
"r.	c #AB7777",
"s.	c #AC7070",
"t.	c #A26565",
"u.	c #805C5C",
"v.	c #848686",
"w.	c #424342",
"x.	c #151515",
"y.	c #0A0909",
"z.	c #8F8F8F",
"A.	c #676868",
"B.	c #3B3A3A",
"C.	c #383738",
"D.	c #353534",
"E.	c #45525F",
"F.	c #6367AC",
"G.	c #804682",
"H.	c #942A39",
"I.	c #991312",
"J.	c #540901",
"K.	c #393742",
"L.	c #1C1C1C",
"M.	c #191919",
"N.	c #161515",
"O.	c #121313",
"P.	c #070707",
"Q.	c #8D8E8D",
"R.	c #656566",
"S.	c #3E3F3F",
"T.	c #2F2E2F",
"U.	c #353838",
"V.	c #35496A",
"W.	c #3E4D88",
"X.	c #354889",
"Y.	c #5573D7",
"Z.	c #5D80FB",
"`.	c #374899",
" +	c #293338",
".+	c #101010",
"++	c #0D0D0D",
"@+	c #040404",
"#+	c #8C8C8C",
"$+	c #8B8B8B",
"%+	c #4B4A4B",
"&+	c #303030",
"*+	c #333232",
"=+	c #2F2F30",
"-+	c #232223",
";+	c #1A1919",
">+	c #2E3949",
",+	c #5C7BA3",
"'+	c #36467D",
")+	c #536F93",
"!+	c #0A0A0A",
"~+	c #010101",
"{+	c #C1C1C1",
"]+	c #B8B8B8",
"^+	c #A0A0A0",
"/+	c #3F3F3F",
"(+	c #222122",
"_+	c #202020",
":+	c #161717",
"<+	c #141414",
"[+	c #111011",
"}+	c #0D0E0E",
"|+	c #0B0B0A",
"1+	c #000000",
"2+	c #525252",
"3+	c #686868",
"4+	c #ADADAD",
"5+	c #9E9F9F",
"6+	c #6D6D6D",
"7+	c #3C3C3C",
"8+	c #131414",
"9+	c #111111",
"0+	c #0E0E0E",
"a+	c #0B0B0B",
"b+	c #080708",
"c+	c #050504",
"d+	c #4C4D4C",
"e+	c #4D4C4D",
"f+	c #494A4A",
"g+	c #454444",
"h+	c #9D9D9D",
"i+	c #9E9E9E",
"j+	c #AEAEAE",
"k+	c #BEBEBF",
"l+	c #BEBDBD",
"m+	c #979797",
"n+	c #6A6B6A",
"o+	c #3F3F40",
"p+	c #020202",
"q+	c #030303",
"r+	c #878787",
"s+	c #69696A",
"t+	c #868685",
"u+	c #646464",
"v+	c #474647",
"w+	c #656565",
"x+	c #9E9F9E",
"y+	c #A8A8A8",
"z+	c #AFAFAE",
"A+	c #A4A4A4",
"B+	c #7A7A7A",
"C+	c #969696",
"D+	c #363636",
"E+	c #777776",
"F+	c #8C8D8D",
"G+	c #7D7D7D",
"H+	c #5E5E5E",
"I+	c #4F4F50",
"J+	c #808181",
"K+	c #707070",
"L+	c #909191",
"M+	c #9C9C9C",
"N+	c #787877",
"O+	c #696969",
"P+	c #616161",
"Q+	c #6E6E6E",
"R+	c #7C7B7C",
"S+	c #777677",
"T+	c #6F6E6E",
"U+	c #595959",
"V+	c #717171",
"W+	c #8D8D8D",
"X+	c #515051",
"Y+	c #49494A",
"Z+	c #4B4A4A",
"`+	c #606060",
" @	c #6A6A6A",
".@	c #616162",
"+@	c #6C6D6C",
"@@	c #767777",
"#@	c #727272",
"$@	c #6B6B6B",
"%@	c #828283",
"&@	c #757475",
"*@	c #444545",
"=@	c #565656",
"-@	c #5A595A",
";@	c #666666",
">@	c #878687",
",@	c #8A8A8A",
"'@	c #797979",
")@	c #444344",
"!@	c #7F8080",
"~@	c #737373",
"{@	c #484747",
"]@	c #707170",
"^@	c #7F7F7F",
"/@	c #676867",
"(@	c #4D4C4C",
"_@	c #5F5F5F",
":@	c #434444",
"                                                                ",
"                                                                ",
"            . +                                                 ",
"            @ # $ % & *                                         ",
"            = - ; > , ' ) ! ~ {                                 ",
"            ] ^ / ( _ : < [ } | # 1 2 # 3                       ",
"            4 5 6 _ 7 8 < 9 0 a b c d e ' f g + h               ",
"            i j k 7 l m 9 0 a n o p q r s t u < | v             ",
"            w k > l x y z A B C p q D E F G H I J K             ",
"            L M N O y P Q R S T U V W F G X Y Z ` K             ",
"             ...+.@.#.$.%.&.*.=.-.;.>.,.'.).Z !.~.{.            ",
"            ].^./.(.[ c _._ :.<.[.$ ' /.}.|.!.1.2.3.            ",
"            4.5.6.7.8.9.# 0.a.b.c.d.e.f.g.g.h.` i.j.            ",
"            k.9 l.m.n.o.p.q.r.s.t.u.v.w.g.h.x.~.y.z.            ",
"            A.0 a B.C.D.E.F.G.H.I.J.K.L.M.N.O.2.P.Q.            ",
"            R.S.n o p q T.E U.V.W.X.Y.Z.`. +.+++@+#+            ",
"            $+%+&+q *+=+E F G -+I Z ;+>+,+'+)+!+~+$+            ",
"              {+]+^+w /+H (+X _+Z !.:+<+[+}+|+P.1+'             ",
"            k 2+_ > 3+z.4+5+6+7+x.~.8+9+0+a+b+c+1+3             ",
"        %+..d+e+..f+< g+h+i+j+k+l+m+n+o+P.p+q+p+1+r+            ",
"    s+t+u+< (.< v+y 9 (.w+x+y+z+y+h+A+B+C+K ].D+1+h             ",
"    E+i+F+f.j.G+H+9 [ (.z I+J+m+f.j.K+z 9 9 9 K+L+r+/.9 (.      ",
"    L M+N+O+u+P+Q+R+S+T+U+y 8 - ;...9 9 9 9 9 9 9 9 (.(.k w+    ",
"    V+m+' W+r+] , X+Y+(.: r+L P+k 9 z (.9 9 9 9 (.(.Z+;.- `+    ",
"    ].C+w  @u+.@+@@@#@$@j %@B+&@#@L $@H+2+/.0 (.*@+.} 2+=@-@    ",
"      ;@| >@,@'@u+k 8 )@..!@| ~@V+#@#@#@#@L 6+..(.9 {@.._ (     ",
"              e ]@^@] /@k G+w #@#@#@#@#@V+ @$@_ 9 9 9 /.Y+(@    ",
"                      - R.T+L ~@#@#@#@#@]._ _@_ 9 9 9 (.9 x     ",
"                              =@_@O+L ~@#@~@L _ 9 9 :@          ",
"                                      ;.H+ @-._ (.              ",
"                                                                ",
"                                                                "};
