/* XPM */
static char * ControlPoints_xpm[] = {
"32 32 3 1",
" 	c None",
".	c #20B0AB",
"+	c #0000FF",
"                                ",
"                                ",
"       ..                       ",
"        ..                      ",
"                                ",
"                                ",
"        ..                      ",
"         .                      ",
"                                ",
"          .                     ",
"         ..                     ",
"          .                     ",
"                                ",
"           .                    ",
"          ..                    ",
"          .                     ",
"       +++++++++++              ",
"       +++++++++++              ",
"       ++       ++              ",
"       ++       ++            . ",
"       ++       ++    ..  ..  . ",
"       ++       ++..  ..  ..    ",
"       ++       ++..            ",
"       ++       ++              ",
"       ++       ++              ",
"       +++++++++++              ",
"       +++++++++++              ",
"                                ",
"                                ",
"                                ",
"                                ",
"                                "};
