<?xml version="1.0" encoding="UTF-8" standalone="no"?>
<!-- Created with Inkscape (http://www.inkscape.org/) -->

<svg
   width="200"
   height="187"
   id="svg2"
   version="1.1"
   viewBox="0 0 200 187"
   xmlns:xlink="http://www.w3.org/1999/xlink"
   xmlns="http://www.w3.org/2000/svg"
   xmlns:svg="http://www.w3.org/2000/svg"
   xmlns:rdf="http://www.w3.org/1999/02/22-rdf-syntax-ns#"
   xmlns:cc="http://creativecommons.org/ns#"
   xmlns:dc="http://purl.org/dc/elements/1.1/">
  <defs
     id="defs4">
    <linearGradient
       id="linearGradient3864">
      <stop
         style="stop-color:#71b2f8;stop-opacity:1;"
         offset="0"
         id="stop3866" />
      <stop
         style="stop-color:#002795;stop-opacity:1;"
         offset="1"
         id="stop3868" />
    </linearGradient>
    <linearGradient
       id="linearGradient3682">
      <stop
         id="stop3684"
         offset="0"
         style="stop-color:#ff6d0f;stop-opacity:1;" />
      <stop
         id="stop3686"
         offset="1"
         style="stop-color:#ff1000;stop-opacity:1;" />
    </linearGradient>
    <linearGradient
       id="linearGradient3864-9">
      <stop
         id="stop3866-1"
         offset="0"
         style="stop-color:#204a87;stop-opacity:1" />
      <stop
         id="stop3868-1"
         offset="1"
         style="stop-color:#729fcf;stop-opacity:1" />
    </linearGradient>
    <linearGradient
       id="linearGradient3682-0">
      <stop
         style="stop-color:#a40000;stop-opacity:1"
         offset="0"
         id="stop3684-0" />
      <stop
         style="stop-color:#ef2929;stop-opacity:1"
         offset="1"
         id="stop3686-0" />
    </linearGradient>
    <radialGradient
       xlink:href="#linearGradient3682-0-6"
       id="radialGradient3817-5-3"
       gradientUnits="userSpaceOnUse"
       gradientTransform="matrix(1.2361257,0.30001695,-0.83232803,3.3883821,-499.9452,-167.33108)"
       cx="270.58316"
       cy="33.899986"
       fx="270.58316"
       fy="33.899986"
       r="19.571428" />
    <linearGradient
       id="linearGradient3682-0-6">
      <stop
         style="stop-color:#ff390f;stop-opacity:1"
         offset="0"
         id="stop3684-0-7" />
      <stop
         style="stop-color:#ff1000;stop-opacity:1;"
         offset="1"
         id="stop3686-0-5" />
    </linearGradient>
  </defs>
  <metadata
     id="metadata7">
    <rdf:RDF>
      <cc:Work
         rdf:about="">
        <dc:format>image/svg+xml</dc:format>
        <dc:type
           rdf:resource="http://purl.org/dc/dcmitype/StillImage" />
        <dc:creator>
          <cc:Agent>
            <dc:title>Pablo Gil</dc:title>
          </cc:Agent>
        </dc:creator>
        <dc:subject>
          <rdf:Bag>
            <rdf:li>SVG</rdf:li>
            <rdf:li>template</rdf:li>
          </rdf:Bag>
        </dc:subject>
      </cc:Work>
    </rdf:RDF>
  </metadata>
  <g
     id="layer1"
     transform="translate(-1074.0664,-169.59799)">
    <path
       style="display:inline;overflow:visible;visibility:visible;opacity:1;fill:#ffffff;fill-opacity:0.11764706;fill-rule:evenodd;stroke:none;stroke-width:5.87311602;stroke-linecap:butt;stroke-linejoin:miter;stroke-miterlimit:4;stroke-dasharray:none;stroke-dashoffset:0;stroke-opacity:1;marker:none;marker-start:none;marker-mid:none;marker-end:none;enable-background:accumulate"
       d="m 1074.0658,169.729 v 170.65847 h 38.0522 v -66.78358 h 26.9056 v -26.32907 h -26.9056 v -28.4181 h 66.2805 v -49.03163 z"
       id="rect3663" />
    <path
       style="display:inline;overflow:visible;visibility:visible;opacity:1;fill:#ffffff;fill-opacity:0.11764706;fill-rule:evenodd;stroke:none;stroke-width:5.87311602;stroke-linecap:butt;stroke-linejoin:miter;stroke-miterlimit:4;stroke-dasharray:none;stroke-dashoffset:0;stroke-opacity:1;marker:none;marker-start:none;marker-mid:none;marker-end:none;enable-background:accumulate"
       d="M 128.15039 36.466797 L 113.48047 37.238281 L 106.78906 61.882812 L 97.425781 66.367188 L 74.068359 56.150391 L 64.203125 67.113281 L 76.902344 89.246094 L 73.431641 98.992188 L 64.957031 102.30859 L 64.957031 104.00586 L 60.619141 104.00586 L 49.599609 108.31836 L 50.447266 123.01562 L 75.091797 129.70703 L 79.578125 139.07227 L 69.28125 162.40039 L 80.244141 172.26562 L 102.37891 159.56641 L 112.20312 163.06445 L 121.44922 186.86914 L 136.22656 186.04883 L 142.83789 161.375 L 152.20312 156.89062 L 175.60938 167.21484 L 185.47461 156.25195 L 172.77539 134.11719 L 176.19727 124.26562 L 200 115.01758 L 199.25781 100.27148 L 174.58594 93.658203 L 170.09961 84.292969 L 180.3457 60.857422 L 169.38477 50.992188 L 147.25 63.691406 L 137.47656 60.300781 L 128.15039 36.466797 z M 126.03711 84.810547 L 131.26758 85.566406 L 136.23438 87.289062 L 140.77734 89.925781 L 144.71484 93.496094 L 147.86523 97.755859 L 150.13281 102.49023 L 151.46484 107.5957 L 151.68555 112.82812 L 150.93164 118.05859 L 149.20703 123.02344 L 146.46289 127.61719 L 143 131.50391 L 138.74219 134.65625 L 134.00586 136.92188 L 128.90039 138.25586 L 123.64062 138.55469 L 118.41016 137.79883 L 113.44336 136.07422 L 108.84961 133.33203 L 104.99219 129.79102 L 101.8125 125.60938 L 99.544922 120.87305 L 98.240234 115.69141 L 97.941406 110.42969 L 98.697266 105.19922 L 100.42188 100.23438 L 103.13672 95.71875 L 106.62695 91.753906 L 110.88672 88.601562 L 115.62305 86.335938 L 120.80664 85.03125 L 126.03711 84.810547 z "
       transform="translate(1074.0664,169.59799)"
       id="path3659" />
  </g>
</svg>
