<?xml version="1.0" encoding="UTF-8" standalone="no"?>
<!-- Created with Inkscape (http://www.inkscape.org/) -->

<svg
   xmlns:dc="http://purl.org/dc/elements/1.1/"
   xmlns:cc="http://creativecommons.org/ns#"
   xmlns:rdf="http://www.w3.org/1999/02/22-rdf-syntax-ns#"
   xmlns:svg="http://www.w3.org/2000/svg"
   xmlns="http://www.w3.org/2000/svg"
   xmlns:sodipodi="http://sodipodi.sourceforge.net/DTD/sodipodi-0.dtd"
   xmlns:inkscape="http://www.inkscape.org/namespaces/inkscape"
   width="11"
   height="11"
   id="svg2"
   version="1.1"
   inkscape:version="0.92.2 (5c3e80d, 2017-08-06)"
   sodipodi:docname="more_dark2.svg"
   viewBox="0 0 11 11">
  <defs
     id="defs4" />
  <sodipodi:namedview
     id="base"
     pagecolor="#ffffff"
     bordercolor="#c0c0c0"
     borderopacity="1"
     inkscape:pageopacity="0"
     inkscape:pageshadow="2"
     inkscape:zoom="37.597544"
     inkscape:cx="7.6278703"
     inkscape:cy="6.7258085"
     inkscape:document-units="mm"
     inkscape:current-layer="layer1"
     showgrid="true"
     showguides="true"
     inkscape:guide-bbox="true"
     inkscape:object-nodes="true"
     guidecolor="#0092ff"
     guideopacity="0.49803922"
     guidehicolor="#ff5200"
     guidehiopacity="0.49803922"
     fit-margin-top="0"
     fit-margin-left="0"
     fit-margin-right="0"
     fit-margin-bottom="0"
     inkscape:snap-global="true"
     inkscape:window-width="1680"
     inkscape:window-height="939"
     inkscape:window-x="0"
     inkscape:window-y="23"
     inkscape:window-maximized="0"
     borderlayer="true"
     units="px">
    <inkscape:grid
       type="xygrid"
       id="grid2242"
       originx="-1.25e-05"
       originy="3.8867188e-06"
       enabled="true"
       spacingx="0.5"
       spacingy="0.49999999"
       empspacing="2"
       color="#c63fff"
       opacity="0.0627451" />
  </sodipodi:namedview>
  <metadata
     id="metadata7">
    <rdf:RDF>
      <cc:Work
         rdf:about="">
        <dc:format>image/svg+xml</dc:format>
        <dc:type
           rdf:resource="http://purl.org/dc/dcmitype/StillImage" />
        <dc:title></dc:title>
        <dc:creator>
          <cc:Agent>
            <dc:title>Pablo Gil</dc:title>
          </cc:Agent>
        </dc:creator>
        <dc:subject>
          <rdf:Bag>
            <rdf:li>SVG</rdf:li>
            <rdf:li>template</rdf:li>
          </rdf:Bag>
        </dc:subject>
      </cc:Work>
    </rdf:RDF>
  </metadata>
  <g
     inkscape:label="Capa 1"
     inkscape:groupmode="layer"
     id="layer1"
     transform="translate(-1070.0664,-345.59799)">
    <path
       style="opacity:1;vector-effect:none;fill:#050505;fill-opacity:0.35294119;fill-rule:evenodd;stroke:none;stroke-width:3.77952766;stroke-linecap:butt;stroke-linejoin:miter;stroke-miterlimit:4;stroke-dasharray:none;stroke-dashoffset:0;stroke-opacity:1"
       d="M 2 0 C 0.8920031 0 0 0.8920031 0 2 L 0 9 C 0 10.107997 0.8920031 11 2 11 L 9 11 C 10.107997 11 11 10.107997 11 9 L 11 2 C 11 0.8920031 10.107997 0 9 0 L 2 0 z M 5.4921875 1.9941406 A 0.50005 0.50005 0 0 1 6 2.5 L 6 5 L 8.5 5 A 0.50005 0.50005 0 1 1 8.5 6 L 6 6 L 6 8.5 A 0.50005 0.50005 0 1 1 5 8.5 L 5 6 L 2.5 6 A 0.50005 0.50005 0 1 1 2.5 5 L 5 5 L 5 2.5 A 0.50005 0.50005 0 0 1 5.4921875 1.9941406 z "
       transform="translate(1070.0664,345.59799)"
       id="rect6655" />
  </g>
</svg>
