<?xml version="1.0" encoding="UTF-8" standalone="no"?>
<svg
	xmlns="http://www.w3.org/2000/svg" version="1.1"
	xmlns:freecad="http://www.freecadweb.org/wiki/index.php?title=Svg_Namespace"
	width="1189" height="841" viewBox="0 0 1189 841">
	<g id="orientation-border" style="fill:none;stroke:#000000;stroke-width:0.25;stroke-linecap:miter;stroke-miterlimit:4">
		<path d="m 6,6,h 1177" />
		<path d="m 6,5.875,v 829.25" />
		<path d="m 1183,5.875,v 829.25" />
		<path d="m 6,835,h 515.0625" />
		<path d="m 668.0625,835,h 515.0625" />
    <!-- orientation separators top -->
    <path d="m 79.5625,6 v 4" />
    <path d="m 153.125,6 v 4" />
    <path d="m 226.6875,6 v 4" />
    <path d="m 300.25,6 v 4" />
    <path d="m 373.8125,6 v 4" />
    <path d="m 447.375,6 v 4" />
    <path d="m 520.9375,6 v 4" />
    <path d="m 594.5,6 v 4" />
    <path d="m 668.0625,6 v 4" />
    <path d="m 741.625,6 v 4" />
    <path d="m 815.1875,6 v 4" />
    <path d="m 888.75,6 v 4" />
    <path d="m 962.3125,6 v 4" />
    <path d="m 1035.875,6 v 4" />
    <path d="m 1109.4375,6 v 4" />
    <!-- orientation separators left -->
    <path d="m 6,75.0835 h 4" />
    <path d="m 6,144.1668 h 4" />
    <path d="m 6,213.2501 h 4" />
    <path d="m 6,282.3334 h 4" />
    <path d="m 6,351.4167 h 4" />
    <path d="m 6,420.5 h 4" />
    <path d="m 6,489.5833 h 4" />
    <path d="m 6,558.6666 h 4" />
    <path d="m 6,627.7499 h 4" />
    <path d="m 6,696.8332 h 4" />
    <path d="m 6,765.9165 h 4" />
    <!-- orientation separators right -->
    <path d="m 1179,75.0835 h 4" />
    <path d="m 1179,144.1668 h 4" />
    <path d="m 1179,213.2501 h 4" />
    <path d="m 1179,282.3334 h 4" />
    <path d="m 1179,351.4167 h 4" />
    <path d="m 1179,420.5 h 4" />
    <path d="m 1179,489.5833 h 4" />
    <path d="m 1179,558.6666 h 4" />
    <path d="m 1179,627.7499 h 4" />
    <path d="m 1179,696.8332 h 4" />
    <path d="m 1179,765.9165 h 4" />
    <!-- orientation separators bottom -->
    <path d="m 79.5625,831 v 4" />
    <path d="m 153.125,831 v 4" />
    <path d="m 226.6875,831 v 4" />
    <path d="m 300.25,831 v 4" />
    <path d="m 373.8125,831 v 4" />
    <path d="m 447.375,831 v 4" />
    <path d="m 520.9375,831 v 4" />
    <path d="m 594.5,831 v 4" />
    <path d="m 668.0625,831 v 4" />
    <path d="m 741.625,831 v 4" />
    <path d="m 815.1875,831 v 4" />
    <path d="m 888.75,831 v 4" />
    <path d="m 962.3125,831 v 4" />
    <path d="m 1035.875,831 v 4" />
    <path d="m 1109.4375,831 v 4" />
  </g>
  <g id="orientation-text" style="font-size:3.5;text-anchor:start;fill:#000000;font-family:tahoma" xml:space="preserve">
    <!-- orientation char top -->
    <text x="42.7813" y="9">1</text>
    <text x="116.3438" y="9">2</text>
    <text x="189.9063" y="9">3</text>
    <text x="263.4688" y="9">4</text>
    <text x="337.0313" y="9">5</text>
    <text x="410.5938" y="9">6</text>
    <text x="484.1563" y="9">7</text>
    <text x="557.7188" y="9">8</text>
    <text x="631.2813" y="9">9</text>
    <text x="704.8438" y="9">10</text>
    <text x="778.4063" y="9">11</text>
    <text x="851.9688" y="9">12</text>
    <text x="925.5313" y="9">13</text>
    <text x="999.0938" y="9">14</text>
    <text x="1072.6563" y="9">15</text>
    <text x="1146.2188" y="9">16</text>
    <!-- orientation char left -->
    <text x="7" y="40.5417">A</text>
    <text x="7" y="109.625">B</text>
    <text x="7" y="178.7083">C</text>
    <text x="7" y="247.7916">D</text>
    <text x="7" y="316.8749">E</text>
    <text x="7" y="385.9582">F</text>
    <text x="7" y="455.0415">G</text>
    <text x="7" y="524.1248">H</text>
    <text x="7" y="593.2081">I</text>
    <text x="7" y="662.2914">J</text>
    <text x="7" y="731.3747">K</text>
    <text x="7" y="800.458">L</text>
    <!-- orientation char right -->
    <text x="1180" y="40.5417">A</text>
    <text x="1180" y="109.625">B</text>
    <text x="1180" y="178.7083">C</text>
    <text x="1180" y="247.7916">D</text>
    <text x="1180" y="316.8749">E</text>
    <text x="1180" y="385.9582">F</text>
    <text x="1180" y="455.0415">G</text>
    <text x="1180" y="524.1248">H</text>
    <text x="1180" y="593.2081">I</text>
    <text x="1180" y="662.2914">J</text>
    <text x="1180" y="731.3747">K</text>
    <text x="1180" y="800.458">L</text>
    <!-- orientation char bottom -->
    <text x="42.7813" y="834">1</text>
    <text x="116.3438" y="834">2</text>
    <text x="189.9063" y="834">3</text>
    <text x="263.4688" y="834">4</text>
    <text x="337.0313" y="834">5</text>
    <text x="410.5938" y="834">6</text>
    <text x="484.1563" y="834">7</text>
    <text x="704.8438" y="834">10</text>
    <text x="778.4063" y="834">11</text>
    <text x="851.9688" y="834">12</text>
    <text x="925.5313" y="834">13</text>
    <text x="999.0938" y="834">14</text>
    <text x="1072.6563" y="834">15</text>
    <text x="1146.2188" y="834">16</text>
  </g>
  <g id="drawing-border" style="fill:none;stroke:#000000;stroke-width:0.5;stroke-linecap:miter;stroke-miterlimit:4">
		<rect width="1169" height="821" x="10" y="10" />
  </g>
    <g id="titleblock-structure" style="fill:none;stroke:#000000;stroke-width:0.5;stroke-linecap:miter;stroke-miterlimit:4">
    <rect width="180" height="56" x="999" y="775" />
 		<path d="m 999,782 h 80" /> <!-- left up 1st horizon line  Titleblock -->
                <path d="m 999,789 h 80" /> <!-- left up 2nd horizon line  Titleblock -->
                <path d="m 999,796 h 80" /> <!-- left up 3rd horizon line  Titleblock -->
                <path d="m 999,803 h 130" /> <!-- left up 4th horizon line  Titleblock -->
                <path d="m 999,810 h 80" /> <!-- left up 5th horizon line  Titleblock -->
                <path d="m 999,817 h 80" /> <!-- left up 6th horizon line  Titleblock -->
                <path d="m 999,824 h 80" /> <!-- left up 7th horizon line  Titleblock -->
                <path d="m 1009,775 v 28" /> <!-- left up 1st vertical line  Titleblock -->
                <path d="m 1019,775 v 28" /> <!-- left up 2nd vertical line  Titleblock -->
                <path d="m 1035,775 v 28" /> <!-- left up 3th vertical line  Titleblock -->
                <path d="m 1051,775 v 56" /> <!-- left up 4th vertical line  Titleblock -->
                <path d="m 1063,775 v 56" /> <!-- left up 5th vertical line  Titleblock -->
                <path d="m 1079,775 v 56" /> <!-- left up 6th vertical line  Titleblock -->
                <path d="m 1129,775 v 56" /> <!-- left up 7th vertical line  Titleblock -->
                <path d="m 1011,803 v 28" /> <!-- left down 1st vertical line  Titleblock -->
                <path d="m 1023,803 v 28" /> <!-- left down 2nd vertical line  Titleblock -->
                <path d="m 1039,803 v 28" /> <!-- left down 3rd vertical line  Titleblock -->
                <path d="m 1079,813 h 50" /> <!-- middle up 2nd horizon line  Titleblock -->
                <path d="m 1079,822 h 50" /> <!-- middle up 3rd horizon line  Titleblock -->
                <path d="m 1129,790 h 50" /> <!-- right up 1st horizon line  Titleblock -->
                <path d="m 1129,811 h 50" /> <!-- right up 2nd horizon line  Titleblock -->
                <path d="m 1085,813 v 9" /> <!-- middle down 1st vertical line  Titleblock -->
                <path d="m 1092,813 v 9" /> <!-- middle down 2nd vertical line  Titleblock -->
                <path d="m 1098,813 v 9" /> <!-- middle down 3rd vertical line  Titleblock -->
                <path d="m 1105,803 v 19" /> <!-- middle down 4th vertical line  Titleblock -->
                <path d="m 1117,803 v 19" /> <!-- middle down 5th vertical line  Titleblock -->
	</g>
	<g id="titleblock-text-non-editable" style="font-size:5;text-anchor:start;fill:#000000;font-family:HYSWLongFangSong" xml:space="preserv
e">
        	<text x="1001" y="808">设计</text>
                <text x="1012" y="808">(签名)</text>
                <text x="1024" y="808">(年月日)</text>
                <text x="1040" y="808">标准化</text>
                <text x="1052" y="808">(签名)</text>
                <text x="1064" y="808">(年月日)</text>
                <text x="1041.5" y="822">制图</text>
                <text x="1001" y="822">审核</text>
                <text x="1001" y="829">工艺</text>
                <text x="1041.5" y="829">批准</text>
                <text x="1084" y="809">阶段标记</text>
                <text x="1107" y="809">重量</text>
                <text x="1119" y="809">比例</text>
                <text x="1084" y="828">共</text>
                <text x="1096" y="828">张</text>
                <text x="1104" y="828">第</text>
                <text x="1118" y="828">张</text>
                <text x="1000.5" y="801">标记</text>
                <text x="1010.5" y="801">处数</text>
                <text x="1023" y="801">分区</text>
                <text x="1035" y="801">更</text>
                <text x="1038" y="801">改</text>
                <text x="1041" y="801">文</text>
                <text x="1044" y="801">件</text>
                <text x="1047" y="801">号</text>
                <text x="1053.5" y="801">签名</text>
                <text x="1064" y="801">(年月日)</text>
                <text x="1130" y="821" style="font-size:3.5;word-spacing:-0.5;kerning:-0.5;">图纸幅面: A0</text>
                <text x="1130" y="825" style="font-size:3.5;word-spacing:-0.5;kerning:-0.5;">中国国标图纸贡献者</text>
                <text x="1130" y="829" style="font-size:3.5;word-spacing:-0.5;kerning:-0.5;">李峰 felix@95839.com</text>

	</g>
        <g id="titleblock-text-editable" style="font-size:5;text-anchor:start;fill:#000000;font-family:HYSWLongFangSong" xml:space="preserve">
                <text freecad:editable="AUTHOR_NAME" x="993" y="815"><tspan>设计人</tspan></text>
                <text freecad:editable="DRAWING_NAME" x="1045" y="822"><tspan>制图人</tspan></text>
                <text freecad:editable="APPROVER_NAME" x="1045" y="829"><tspan>批准人</tspan></text>
                <text freecad:editable="CRAFTS_NAME" x="1005" y="829"><tspan>评审人</tspan></text>
                <text freecad:editable="CHECKED_NAME" x="1005" y="822"><tspan>审核人</tspan></text>
                <text freecad:editable="TOTAL_SHEETS" x="1081" y="828"><tspan> 99 </tspan></text>
                <text freecad:editable="OF_SHEET" x="1103" y="828"><tspan> 1 </tspan></text>
                <text freecad:editable="SCALE" x="1111" y="819"><tspan>M x:x</tspan></text>
                <text freecad:editable="WEIGHT" x="1099" y="819"><tspan>重量</tspan></text>
                <text freecad:editable="DATE-1" x="1059" y="815"  style="font-size:3.5;text-anchor:start;text-align:center;fill:#000000;font-family:HYSWLongFangSong"><tspan>YYYY-MM-DD</tspan></text>
                <text freecad:editable="DATE-2" x="1019" y="815" style="font-size:3.5;text-anchor:start;text-align:center;fill:#000000;font-family:HYSWLongFangSong" ><tspan>YYYY-MM-DD</tspan></text>
                <text freecad:editable="COMPANYNAME" x="1123" y="779.5"><tspan>(单位名称/单位代号)</tspan></text>
                <text freecad:editable="COMPANYADDR" x="1123" y="784.5"><tspan>(单位地址)</tspan></text>
                <text freecad:editable="COMPANYPHONE" x="1123" y="789.5"><tspan>(单位电话/电邮)</tspan></text>
                <text freecad:editable="MATERIALMARK" x="1085" y="789" ><tspan>(材料标记)</tspan></text>
                <text freecad:editable="PROJECT_TITLE" x="1123" y="795"><tspan>(项目标题)</tspan></text>
                <text freecad:editable="SUBTITLE" x="1123" y="800"><tspan>(子项目标题)</tspan></text>
                <text freecad:editable="PARTNAME" x="1123" y="805"><tspan>(零件名称)</tspan></text>
                <text freecad:editable="VERSION" x="1123" y="810"><tspan>(版本号)</tspan></text>
                <text freecad:editable="PART_CODE_NAME" x="1123" y="816"><tspan>(图样代号)</tspan></text>
                <text freecad:editable="COPYRIGHT" x="992" y="773"><tspan>未经图纸所有人允许，请勿向第三方透漏此图纸任何信息！本图纸内容受《中华人民共和国版权法》保护。</tspan></text>
        </g>

	<g style="stroke:#000000;stroke-width:0.25;">
                <line x1="1157" y1="826" x2="1167" y2="826" stroke-dasharray="2.75,0.25,0.25,0.25,2.75,0.25,0.25,0.25" />
                <line x1="1169" y1="826" x2="1179" y2="826" stroke-dasharray="2.75,0.25,0.25,0.25,2.75,0.25,0.25,0.25" />
                <line x1="1174" y1="821" x2="1174" y2="831" stroke-dasharray="2.75,0.25,0.25,0.25,2.75,0.25,0.25,0.25" />
	</g>
	<g stroke="black" stroke-width="0.25" fill="none" >
                <polygon points="1158,824 1166,822 1166,831 1158,828" />
                <circle cx="1174" cy="826" r="2" />
                <circle cx="1174" cy="826" r="4" />
</g>
	<g id="center-line" style="stroke:#000000;stroke-width:0.5;">
                <line x1="594.5" y1="826" x2="594.5" y2="835" />
                <line x1="594.5" y1="6" x2="594.5" y2="15" />
                <line x1="6" y1="420.5" x2="15" y2="420.5" />
                <line x1="1174" y1="420.5" x2="1183" y2="420.5" />
</g>
	<g id="cut-marker" stroke="black" stroke-width="2" fill="#000000" >
		<line x1="0" y1="0" x2="10" y2="0" />
		<line x1="0" y1="0" x2="0" y2="10" />
		<line x1="1179" y1="0" x2="1189" y2="0" />
		<line x1="1189" y1="0" x2="1189" y2="10" />
		<line x1="0" y1="831" x2="0" y2="841" />
		<line x1="0" y1="841" x2="10" y2="841" />
		<line x1="1179" y1="841" x2="1189" y2="841" />
		<line x1="1189" y1="831" x2="1189" y2="841" />
</g>
<g id="metric-marker"  style="stroke:#000000;stroke-width:0.5;">
        <line x1="594.5" y1="831" x2="594.5" y2="841" />
        <line x1="544.5" y1="835" x2="644.5" y2="835" />
        <line x1="544.5" y1="831" x2="544.5" y2="835.25" />
        <line x1="554.5" y1="831" x2="554.5" y2="835.25" />
        <line x1="564.5" y1="831" x2="564.5" y2="835.25" />
        <line x1="574.5" y1="831" x2="574.5" y2="835.25" />
        <line x1="584.5" y1="831" x2="584.5" y2="835.25" />
        <line x1="604.5" y1="831" x2="604.5" y2="835.25" />
        <line x1="614.5" y1="831" x2="614.5" y2="835.25" />
        <line x1="624.5" y1="831" x2="624.5" y2="835.25" />
        <line x1="634.5" y1="831" x2="634.5" y2="835.25" />
        <line x1="644.5" y1="831" x2="644.5" y2="835.25" />
</g>
<g id="direction-marker"  style="fill:none;stroke:#000000;stroke-width:0.5;">
        <polygon points="590,828 599,828 594.5,834" />
</g>
</svg>
