<?xml version="1.0" encoding="UTF-8" standalone="no"?>
<!-- Created with Inkscape (http://www.inkscape.org/) -->

<svg
   width="64px"
   height="64px"
   id="svg3057"
   version="1.1"
   inkscape:version="1.1.2 (0a00cf5339, 2022-02-04, custom)"
   sodipodi:docname="AddonManager.svg"
   xmlns:inkscape="http://www.inkscape.org/namespaces/inkscape"
   xmlns:sodipodi="http://sodipodi.sourceforge.net/DTD/sodipodi-0.dtd"
   xmlns:xlink="http://www.w3.org/1999/xlink"
   xmlns="http://www.w3.org/2000/svg"
   xmlns:svg="http://www.w3.org/2000/svg"
   xmlns:rdf="http://www.w3.org/1999/02/22-rdf-syntax-ns#"
   xmlns:cc="http://creativecommons.org/ns#"
   xmlns:dc="http://purl.org/dc/elements/1.1/">
  <defs
     id="defs3059">
    <linearGradient
       id="linearGradient3816"
       inkscape:collect="always">
      <stop
         id="stop3818"
         offset="0"
         style="stop-color:#000000;stop-opacity:1" />
      <stop
         id="stop3820"
         offset="1"
         style="stop-color:#2e3436;stop-opacity:0;" />
    </linearGradient>
    <linearGradient
       id="linearGradient3878">
      <stop
         style="stop-color:#000000;stop-opacity:1;"
         offset="0"
         id="stop3880" />
      <stop
         style="stop-color:#000000;stop-opacity:1;"
         offset="1"
         id="stop3882" />
    </linearGradient>
    <linearGradient
       id="linearGradient3870">
      <stop
         style="stop-color:#000000;stop-opacity:1;"
         offset="0"
         id="stop3872" />
      <stop
         style="stop-color:#000000;stop-opacity:1;"
         offset="1"
         id="stop3874" />
    </linearGradient>
    <linearGradient
       id="linearGradient3858">
      <stop
         style="stop-color:#000000;stop-opacity:1;"
         offset="0"
         id="stop3868" />
      <stop
         style="stop-color:#000000;stop-opacity:1;"
         offset="1"
         id="stop3862" />
    </linearGradient>
    <linearGradient
       id="linearGradient3839">
      <stop
         style="stop-color:#73d216;stop-opacity:0;"
         offset="0"
         id="stop3841" />
      <stop
         style="stop-color:#73d216;stop-opacity:0;"
         offset="1"
         id="stop3843" />
    </linearGradient>
    <linearGradient
       inkscape:collect="always"
       xlink:href="#linearGradient3839"
       id="linearGradient3856"
       gradientUnits="userSpaceOnUse"
       x1="46.097534"
       y1="44.755539"
       x2="8.6358585"
       y2="30.117304" />
    <linearGradient
       inkscape:collect="always"
       xlink:href="#linearGradient3858"
       id="linearGradient3864"
       x1="9.78771"
       y1="39.660793"
       x2="47.374119"
       y2="39.660793"
       gradientUnits="userSpaceOnUse" />
    <linearGradient
       inkscape:collect="always"
       xlink:href="#linearGradient3870"
       id="linearGradient3876"
       x1="9.923306"
       y1="34.257634"
       x2="46.865743"
       y2="34.257634"
       gradientUnits="userSpaceOnUse" />
    <linearGradient
       inkscape:collect="always"
       xlink:href="#linearGradient3878"
       id="linearGradient3884"
       x1="28.433661"
       y1="48.904176"
       x2="29.433661"
       y2="48.904176"
       gradientUnits="userSpaceOnUse" />
    <radialGradient
       inkscape:collect="always"
       xlink:href="#linearGradient3887"
       id="radialGradient3893"
       cx="32.5"
       cy="52"
       fx="32.5"
       fy="52"
       r="28.5"
       gradientTransform="matrix(0.96428571,-4.7464116e-8,3.0929704e-8,0.24561404,1.1607127,39.228072)"
       gradientUnits="userSpaceOnUse" />
    <linearGradient
       inkscape:collect="always"
       id="linearGradient3887">
      <stop
         style="stop-color:#2e3436;stop-opacity:1;"
         offset="0"
         id="stop3889" />
      <stop
         style="stop-color:#2e3436;stop-opacity:0;"
         offset="1"
         id="stop3891" />
    </linearGradient>
    <linearGradient
       gradientTransform="matrix(0.8782269,0,0,0.88301047,5.1375817,6.0680873)"
       inkscape:collect="always"
       xlink:href="#linearGradient3863"
       id="linearGradient3869"
       x1="22"
       y1="35"
       x2="20"
       y2="15"
       gradientUnits="userSpaceOnUse" />
    <linearGradient
       inkscape:collect="always"
       id="linearGradient3863">
      <stop
         style="stop-color:#271903;stop-opacity:1"
         offset="0"
         id="stop3865" />
      <stop
         style="stop-color:#c17d11;stop-opacity:1"
         offset="1"
         id="stop3867" />
    </linearGradient>
    <linearGradient
       gradientTransform="matrix(0.8782269,0,0,0.88301047,5.1375817,6.0680873)"
       inkscape:collect="always"
       xlink:href="#linearGradient3873"
       id="linearGradient3879"
       x1="39"
       y1="27"
       x2="38"
       y2="17"
       gradientUnits="userSpaceOnUse" />
    <linearGradient
       inkscape:collect="always"
       id="linearGradient3873">
      <stop
         style="stop-color:#8f5902;stop-opacity:1"
         offset="0"
         id="stop3875" />
      <stop
         style="stop-color:#e9b96e;stop-opacity:1"
         offset="1"
         id="stop3877" />
    </linearGradient>
    <linearGradient
       inkscape:collect="always"
       xlink:href="#linearGradient3813"
       id="linearGradient3835"
       gradientUnits="userSpaceOnUse"
       x1="19"
       y1="22"
       x2="22"
       y2="48" />
    <linearGradient
       inkscape:collect="always"
       id="linearGradient3813">
      <stop
         style="stop-color:#e9b96e;stop-opacity:1"
         offset="0"
         id="stop3815" />
      <stop
         style="stop-color:#c17d11;stop-opacity:1"
         offset="1"
         id="stop3817" />
    </linearGradient>
    <linearGradient
       gradientTransform="matrix(0.8782269,0,0,0.88301047,5.1375817,6.0680873)"
       inkscape:collect="always"
       xlink:href="#linearGradient3827"
       id="linearGradient3833"
       x1="22.181818"
       y1="24.545454"
       x2="23.272728"
       y2="33.772724"
       gradientUnits="userSpaceOnUse" />
    <linearGradient
       inkscape:collect="always"
       id="linearGradient3827">
      <stop
         style="stop-color:#e9b96e;stop-opacity:1"
         offset="0"
         id="stop3829" />
      <stop
         style="stop-color:#c17d11;stop-opacity:1"
         offset="1"
         id="stop3831" />
    </linearGradient>
    <linearGradient
       inkscape:collect="always"
       xlink:href="#linearGradient3839-1"
       id="linearGradient3881"
       gradientUnits="userSpaceOnUse"
       x1="47"
       y1="23"
       x2="53"
       y2="47" />
    <linearGradient
       inkscape:collect="always"
       id="linearGradient3839-1">
      <stop
         style="stop-color:#c17d11;stop-opacity:1"
         offset="0"
         id="stop3841-7" />
      <stop
         style="stop-color:#8f5902;stop-opacity:1"
         offset="1"
         id="stop3843-4" />
    </linearGradient>
    <linearGradient
       gradientTransform="matrix(0.8782269,0,0,0.88301047,5.1375817,6.0680873)"
       inkscape:collect="always"
       xlink:href="#linearGradient3853"
       id="linearGradient3859"
       x1="51.5"
       y1="32.5"
       x2="45.5"
       y2="24.636364"
       gradientUnits="userSpaceOnUse" />
    <linearGradient
       inkscape:collect="always"
       id="linearGradient3853">
      <stop
         style="stop-color:#8f5902;stop-opacity:1"
         offset="0"
         id="stop3855" />
      <stop
         style="stop-color:#c17d11;stop-opacity:1"
         offset="1"
         id="stop3857" />
    </linearGradient>
    <radialGradient
       r="28.5"
       fy="52"
       fx="32.5"
       cy="52"
       cx="32.5"
       gradientTransform="matrix(0.96428571,-4.7464116e-8,3.0929704e-8,0.24561404,1.1607127,39.228072)"
       gradientUnits="userSpaceOnUse"
       id="radialGradient3079"
       xlink:href="#linearGradient3816"
       inkscape:collect="always" />
    <linearGradient
       id="linearGradient3864-3">
      <stop
         style="stop-color:#71b2f8;stop-opacity:1;"
         offset="0"
         id="stop3866" />
      <stop
         style="stop-color:#002795;stop-opacity:1;"
         offset="1"
         id="stop3868-6" />
    </linearGradient>
    <linearGradient
       id="linearGradient3682">
      <stop
         id="stop3684"
         offset="0"
         style="stop-color:#ff6d0f;stop-opacity:1;" />
      <stop
         id="stop3686"
         offset="1"
         style="stop-color:#ff1000;stop-opacity:1;" />
    </linearGradient>
    <inkscape:perspective
       id="perspective3148"
       inkscape:persp3d-origin="32 : 21.333333 : 1"
       inkscape:vp_z="64 : 32 : 1"
       inkscape:vp_y="0 : 1000 : 0"
       inkscape:vp_x="0 : 32 : 1"
       sodipodi:type="inkscape:persp3d" />
    <linearGradient
       id="linearGradient3864-9">
      <stop
         id="stop3866-1"
         offset="0"
         style="stop-color:#204a87;stop-opacity:1" />
      <stop
         id="stop3868-1"
         offset="1"
         style="stop-color:#729fcf;stop-opacity:1" />
    </linearGradient>
    <linearGradient
       id="linearGradient3682-0">
      <stop
         style="stop-color:#a40000;stop-opacity:1"
         offset="0"
         id="stop3684-0" />
      <stop
         style="stop-color:#ef2929;stop-opacity:1"
         offset="1"
         id="stop3686-0" />
    </linearGradient>
    <inkscape:perspective
       sodipodi:type="inkscape:persp3d"
       inkscape:vp_x="0 : 32 : 1"
       inkscape:vp_y="0 : 1000 : 0"
       inkscape:vp_z="64 : 32 : 1"
       inkscape:persp3d-origin="32 : 21.333333 : 1"
       id="perspective3148-5" />
    <radialGradient
       inkscape:collect="always"
       xlink:href="#linearGradient3682-0-6"
       id="radialGradient3817-5-3"
       gradientUnits="userSpaceOnUse"
       gradientTransform="matrix(1.2361257,0.30001695,-0.83232803,3.3883821,-499.9452,-167.33108)"
       cx="270.58316"
       cy="33.899986"
       fx="270.58316"
       fy="33.899986"
       r="19.571428" />
    <linearGradient
       id="linearGradient3682-0-6">
      <stop
         style="stop-color:#ff390f;stop-opacity:1"
         offset="0"
         id="stop3684-0-7" />
      <stop
         style="stop-color:#ff1000;stop-opacity:1;"
         offset="1"
         id="stop3686-0-5" />
    </linearGradient>
    <inkscape:path-effect
       effect="perspective-envelope"
       up_left_point="0.18667156,-2.0095438"
       up_right_point="13.951624,1.2451148"
       down_left_point="0.18667343,10.781609"
       down_right_point="13.88176,14.158378"
       id="path-effect2433"
       is_visible="true"
       lpeversion="1"
       deform_type="perspective"
       horizontal_mirror="false"
       vertical_mirror="false"
       overflow_perspective="false" />
    <linearGradient
       id="linearGradient15218">
      <stop
         style="stop-color:#f0f0ef;stop-opacity:1.0000000;"
         offset="0.0000000"
         id="stop15220" />
      <stop
         id="stop2269"
         offset="0.59928656"
         style="stop-color:#e8e8e8;stop-opacity:1;" />
      <stop
         id="stop2267"
         offset="0.82758623"
         style="stop-color:#ffffff;stop-opacity:1;" />
      <stop
         style="stop-color:#d8d8d3;stop-opacity:1.0000000;"
         offset="1.0000000"
         id="stop15222" />
    </linearGradient>
    <linearGradient
       id="linearGradient2224">
      <stop
         style="stop-color:#7c7c7c;stop-opacity:1;"
         offset="0"
         id="stop2226" />
      <stop
         style="stop-color:#b8b8b8;stop-opacity:1;"
         offset="1"
         id="stop2228" />
    </linearGradient>
    <inkscape:perspective
       id="perspective3148-1"
       inkscape:persp3d-origin="32 : 21.333333 : 1"
       inkscape:vp_z="64 : 32 : 1"
       inkscape:vp_y="0 : 1000 : 0"
       inkscape:vp_x="0 : 32 : 1"
       sodipodi:type="inkscape:persp3d" />
    <inkscape:perspective
       sodipodi:type="inkscape:persp3d"
       inkscape:vp_x="0 : 32 : 1"
       inkscape:vp_y="0 : 1000 : 0"
       inkscape:vp_z="64 : 32 : 1"
       inkscape:persp3d-origin="32 : 21.333333 : 1"
       id="perspective3148-5-8" />
    <radialGradient
       inkscape:collect="always"
       xlink:href="#linearGradient3682-0-6"
       id="radialGradient3817-5-3-5"
       gradientUnits="userSpaceOnUse"
       gradientTransform="matrix(1.2361257,0.30001695,-0.83232803,3.3883821,-499.9452,-167.33108)"
       cx="270.58316"
       cy="33.899986"
       fx="270.58316"
       fy="33.899986"
       r="19.571428" />
    <linearGradient
       id="linearGradient5060"
       inkscape:collect="always">
      <stop
         id="stop5062"
         offset="0"
         style="stop-color:black;stop-opacity:1;" />
      <stop
         id="stop5064"
         offset="1"
         style="stop-color:black;stop-opacity:0;" />
    </linearGradient>
    <linearGradient
       id="linearGradient5048">
      <stop
         id="stop5050"
         offset="0"
         style="stop-color:black;stop-opacity:0;" />
      <stop
         style="stop-color:black;stop-opacity:1;"
         offset="0.5"
         id="stop5056" />
      <stop
         id="stop5052"
         offset="1"
         style="stop-color:black;stop-opacity:0;" />
    </linearGradient>
    <linearGradient
       id="linearGradient15662">
      <stop
         style="stop-color:#ffffff;stop-opacity:1.0000000;"
         offset="0.0000000"
         id="stop15664" />
      <stop
         style="stop-color:#f8f8f8;stop-opacity:1.0000000;"
         offset="1.0000000"
         id="stop15666" />
    </linearGradient>
    <radialGradient
       gradientUnits="userSpaceOnUse"
       fy="64.5679"
       fx="20.8921"
       r="5.257"
       cy="64.5679"
       cx="20.8921"
       id="aigrd3">
      <stop
         id="stop15573"
         style="stop-color:#F0F0F0"
         offset="0" />
      <stop
         id="stop15575"
         style="stop-color:#9a9a9a;stop-opacity:1.0000000;"
         offset="1.0000000" />
    </radialGradient>
    <radialGradient
       gradientUnits="userSpaceOnUse"
       fy="114.5684"
       fx="20.8921"
       r="5.256"
       cy="114.5684"
       cx="20.8921"
       id="aigrd2">
      <stop
         id="stop15566"
         style="stop-color:#F0F0F0"
         offset="0" />
      <stop
         id="stop15568"
         style="stop-color:#9a9a9a;stop-opacity:1.0000000;"
         offset="1.0000000" />
    </radialGradient>
    <linearGradient
       id="linearGradient269">
      <stop
         style="stop-color:#a3a3a3;stop-opacity:1.0000000;"
         offset="0.0000000"
         id="stop270" />
      <stop
         style="stop-color:#4c4c4c;stop-opacity:1.0000000;"
         offset="1.0000000"
         id="stop271" />
    </linearGradient>
    <linearGradient
       id="linearGradient259">
      <stop
         style="stop-color:#fafafa;stop-opacity:1.0000000;"
         offset="0.0000000"
         id="stop260" />
      <stop
         style="stop-color:#bbbbbb;stop-opacity:1.0000000;"
         offset="1.0000000"
         id="stop261" />
    </linearGradient>
    <radialGradient
       gradientUnits="userSpaceOnUse"
       gradientTransform="matrix(1.000000,0.000000,0.000000,0.284916,0.000000,30.08928)"
       r="15.821514"
       fy="42.07798"
       fx="24.306795"
       cy="42.07798"
       cx="24.306795"
       id="radialGradient4548"
       xlink:href="#linearGradient5060"
       inkscape:collect="always" />
    <radialGradient
       r="29.036913"
       fy="132.28575"
       fx="61.518883"
       cy="132.28575"
       cx="61.518883"
       gradientTransform="matrix(0,-0.1143588,0.5026551,1.8070519e-7,-11.472507,114.13954)"
       gradientUnits="userSpaceOnUse"
       id="radialGradient3023"
       xlink:href="#linearGradient2795"
       inkscape:collect="always" />
    <linearGradient
       id="linearGradient2795">
      <stop
         id="stop2797"
         offset="0"
         style="stop-color:#b8b8b8;stop-opacity:0.49803922" />
      <stop
         id="stop2799"
         offset="1"
         style="stop-color:#7f7f7f;stop-opacity:0" />
    </linearGradient>
    <linearGradient
       id="linearGradient4671">
      <stop
         id="stop4673"
         offset="0"
         style="stop-color:#ffd43b;stop-opacity:1" />
      <stop
         id="stop4675"
         offset="1"
         style="stop-color:#ffe873;stop-opacity:1" />
    </linearGradient>
    <linearGradient
       y2="114.39767"
       x2="135.66525"
       y1="20.603781"
       x1="26.648937"
       gradientTransform="matrix(0.562541,0,0,0.567972,-9.399749,-5.305317)"
       gradientUnits="userSpaceOnUse"
       id="linearGradient3030"
       xlink:href="#linearGradient4689"
       inkscape:collect="always" />
    <linearGradient
       id="linearGradient4689">
      <stop
         id="stop4691"
         offset="0"
         style="stop-color:#5a9fd4;stop-opacity:1" />
      <stop
         id="stop4693"
         offset="1"
         style="stop-color:#306998;stop-opacity:1" />
    </linearGradient>
    <radialGradient
       gradientUnits="userSpaceOnUse"
       gradientTransform="matrix(0.96428571,-4.7464116e-8,3.0929704e-8,0.24561404,1.1607127,39.228072)"
       r="28.5"
       fy="52"
       fx="32.5"
       cy="52"
       cx="32.5"
       id="radialGradient3893-5"
       xlink:href="#linearGradient3887"
       inkscape:collect="always" />
    <inkscape:perspective
       sodipodi:type="inkscape:persp3d"
       inkscape:vp_x="0 : 32 : 1"
       inkscape:vp_y="0 : 1000 : 0"
       inkscape:vp_z="64 : 32 : 1"
       inkscape:persp3d-origin="32 : 21.333333 : 1"
       id="perspective3148-3" />
    <inkscape:perspective
       id="perspective3148-5-6"
       inkscape:persp3d-origin="32 : 21.333333 : 1"
       inkscape:vp_z="64 : 32 : 1"
       inkscape:vp_y="0 : 1000 : 0"
       inkscape:vp_x="0 : 32 : 1"
       sodipodi:type="inkscape:persp3d" />
    <radialGradient
       r="19.571428"
       fy="33.899986"
       fx="270.58316"
       cy="33.899986"
       cx="270.58316"
       gradientTransform="matrix(1.2361257,0.30001695,-0.83232803,3.3883821,-499.9452,-167.33108)"
       gradientUnits="userSpaceOnUse"
       id="radialGradient3817-5-3-1"
       xlink:href="#linearGradient3682-0-6"
       inkscape:collect="always" />
    <inkscape:path-effect
       effect="fillet_chamfer"
       id="path-effect21669"
       is_visible="true"
       lpeversion="1"
       satellites_param="F,0,0,1,0,0.026458333,0,1 @ F,0,0,1,0,0.026458333,0,1 @ F,0,0,1,0,0.026458333,0,1 @ F,0,0,1,0,0.026458333,0,1 @ F,0,0,1,0,0.026458333,0,1 @ F,0,0,1,0,0.026458333,0,1 @ F,0,0,1,0,0.026458333,0,1 @ F,0,0,1,0,0.026458333,0,1 @ F,0,0,1,0,0.026458333,0,1 @ F,0,0,1,0,0.026458333,0,1 @ F,0,0,1,0,0.026458333,0,1 @ F,0,0,1,0,0.026458333,0,1 @ F,0,0,1,0,0.026458333,0,1 @ F,0,0,1,0,0.026458333,0,1 @ F,0,0,1,0,0.026458333,0,1 @ F,0,0,1,0,0.026458333,0,1 @ F,0,0,1,0,0.026458333,0,1 @ F,0,0,1,0,0.026458333,0,1 @ F,0,0,1,0,0.026458333,0,1 @ F,0,0,1,0,0.026458333,0,1 @ F,0,0,1,0,0.026458333,0,1 @ F,0,0,1,0,0.026458333,0,1 @ F,0,0,1,0,0.026458333,0,1 @ F,0,0,1,0,0.026458333,0,1 @ F,0,0,1,0,0.026458333,0,1 @ F,0,0,1,0,0.026458333,0,1 @ F,0,0,1,0,0.026458333,0,1 @ F,0,0,1,0,0.026458333,0,1 @ F,0,0,1,0,0.026458333,0,1 @ F,0,0,1,0,0.026458333,0,1 @ F,0,0,1,0,0.026458333,0,1 @ F,0,0,1,0,0.026458333,0,1 @ F,0,0,1,0,0.026458333,0,1 @ F,0,0,1,0,0.026458333,0,1 @ F,0,0,1,0,0.026458333,0,1 @ F,0,0,1,0,0.026458333,0,1 @ F,0,0,1,0,0.026458333,0,1 @ F,0,0,1,0,0.026458333,0,1 @ F,0,0,1,0,0.026458333,0,1 @ F,0,0,1,0,0.026458333,0,1 @ F,0,0,1,0,0.026458333,0,1 @ F,0,0,1,0,0.026458333,0,1 @ F,0,0,1,0,0.026458333,0,1 @ F,0,0,1,0,0.026458333,0,1 @ F,0,0,1,0,0.026458333,0,1 @ F,0,0,1,0,0.026458333,0,1 @ F,0,0,1,0,0.026458333,0,1 @ F,0,0,1,0,0.026458333,0,1 @ F,0,0,1,0,0.026458333,0,1 @ F,0,0,1,0,0.026458333,0,1 @ F,0,0,1,0,0.026458333,0,1 @ F,0,0,1,0,0.026458333,0,1 @ F,0,0,1,0,0.026458333,0,1 @ F,0,0,1,0,0.026458333,0,1 @ F,0,0,1,0,0.026458333,0,1 @ F,0,0,1,0,0.026458333,0,1 @ F,0,0,1,0,0.026458333,0,1 @ F,0,0,1,0,0.026458333,0,1 @ F,0,0,1,0,0.026458333,0,1 @ F,0,0,1,0,0.026458333,0,1 @ F,0,0,1,0,0.026458333,0,1 @ F,0,0,1,0,0.026458333,0,1 @ F,0,0,1,0,0.026458333,0,1 @ F,0,0,1,0,0.026458333,0,1 @ F,0,0,1,0,0.026458333,0,1 @ F,0,0,1,0,0.026458333,0,1 @ F,0,0,1,0,0.026458333,0,1 @ F,0,0,1,0,0.026458333,0,1 @ F,0,0,1,0,0.026458333,0,1 @ F,0,0,1,0,0.026458333,0,1 @ F,0,0,1,0,0.026458333,0,1 @ F,0,0,1,0,0.026458333,0,1 @ F,0,0,1,0,0.026458333,0,1"
       unit="px"
       method="auto"
       mode="F"
       radius="0.1"
       chamfer_steps="1"
       flexible="false"
       use_knot_distance="true"
       apply_no_radius="true"
       apply_with_radius="true"
       only_selected="false"
       hide_knots="false" />
    <inkscape:path-effect
       effect="offset"
       id="path-effect21663"
       is_visible="true"
       lpeversion="1"
       linejoin_type="miter"
       unit="mm"
       offset="-0.1"
       miter_limit="4"
       attempt_force_join="false"
       update_on_knot_move="true" />
    <inkscape:path-effect
       effect="offset"
       id="path-effect21342"
       is_visible="true"
       lpeversion="1"
       linejoin_type="miter"
       unit="mm"
       offset="-0.1"
       miter_limit="4"
       attempt_force_join="false"
       update_on_knot_move="true" />
    <inkscape:path-effect
       effect="offset"
       id="path-effect20814"
       is_visible="true"
       lpeversion="1"
       linejoin_type="miter"
       unit="mm"
       offset="0"
       miter_limit="4"
       attempt_force_join="false"
       update_on_knot_move="true" />
    <inkscape:path-effect
       effect="fillet_chamfer"
       id="path-effect16392"
       is_visible="true"
       lpeversion="1"
       satellites_param="F,0,0,1,0,0.13229167,0,1 @ F,0,0,1,0,0.13229167,0,1 @ F,0,0,1,0,0.13229167,0,1 @ F,0,0,1,0,0.13229167,0,1 @ F,0,0,1,0,0.13229167,0,1 @ F,0,0,1,0,0.13229167,0,1 @ F,0,0,1,0,0.13229167,0,1 @ F,0,0,1,0,0.13229167,0,1 @ F,0,0,1,0,0.13229167,0,1 @ F,0,0,1,0,0.13229167,0,1"
       unit="px"
       method="auto"
       mode="F"
       radius="0.5"
       chamfer_steps="1"
       flexible="false"
       use_knot_distance="true"
       apply_no_radius="true"
       apply_with_radius="true"
       only_selected="false"
       hide_knots="false" />
    <inkscape:path-effect
       effect="offset"
       id="path-effect20814-4"
       is_visible="true"
       lpeversion="1"
       linejoin_type="miter"
       unit="mm"
       offset="0"
       miter_limit="4"
       attempt_force_join="false"
       update_on_knot_move="true" />
    <inkscape:path-effect
       effect="fillet_chamfer"
       id="path-effect16392-9"
       is_visible="true"
       lpeversion="1"
       satellites_param="F,0,0,1,0,0.13229167,0,1 @ F,0,0,1,0,0.13229167,0,1 @ F,0,0,1,0,0.13229167,0,1 @ F,0,0,1,0,0.13229167,0,1 @ F,0,0,1,0,0.13229167,0,1 @ F,0,0,1,0,0.13229167,0,1 @ F,0,0,1,0,0.13229167,0,1 @ F,0,0,1,0,0.13229167,0,1 @ F,0,0,1,0,0.13229167,0,1 @ F,0,0,1,0,0.13229167,0,1"
       unit="px"
       method="auto"
       mode="F"
       radius="0.5"
       chamfer_steps="1"
       flexible="false"
       use_knot_distance="true"
       apply_no_radius="true"
       apply_with_radius="true"
       only_selected="false"
       hide_knots="false" />
    <inkscape:path-effect
       effect="perspective-envelope"
       up_left_point="0.18667156,-2.0095438"
       up_right_point="13.951624,1.2451148"
       down_left_point="0.18667343,10.781609"
       down_right_point="13.88176,14.158378"
       id="path-effect2433-1"
       is_visible="true"
       lpeversion="1"
       deform_type="perspective"
       horizontal_mirror="false"
       vertical_mirror="false"
       overflow_perspective="false" />
    <inkscape:path-effect
       effect="fillet_chamfer"
       id="path-effect21669-4"
       is_visible="true"
       lpeversion="1"
       satellites_param="F,0,0,1,0,0.026458333,0,1 @ F,0,0,1,0,0.026458333,0,1 @ F,0,0,1,0,0.026458333,0,1 @ F,0,0,1,0,0.026458333,0,1 @ F,0,0,1,0,0.026458333,0,1 @ F,0,0,1,0,0.026458333,0,1 @ F,0,0,1,0,0.026458333,0,1 @ F,0,0,1,0,0.026458333,0,1 @ F,0,0,1,0,0.026458333,0,1 @ F,0,0,1,0,0.026458333,0,1 @ F,0,0,1,0,0.026458333,0,1 @ F,0,0,1,0,0.026458333,0,1 @ F,0,0,1,0,0.026458333,0,1 @ F,0,0,1,0,0.026458333,0,1 @ F,0,0,1,0,0.026458333,0,1 @ F,0,0,1,0,0.026458333,0,1 @ F,0,0,1,0,0.026458333,0,1 @ F,0,0,1,0,0.026458333,0,1 @ F,0,0,1,0,0.026458333,0,1 @ F,0,0,1,0,0.026458333,0,1 @ F,0,0,1,0,0.026458333,0,1 @ F,0,0,1,0,0.026458333,0,1 @ F,0,0,1,0,0.026458333,0,1 @ F,0,0,1,0,0.026458333,0,1 @ F,0,0,1,0,0.026458333,0,1 @ F,0,0,1,0,0.026458333,0,1 @ F,0,0,1,0,0.026458333,0,1 @ F,0,0,1,0,0.026458333,0,1 @ F,0,0,1,0,0.026458333,0,1 @ F,0,0,1,0,0.026458333,0,1 @ F,0,0,1,0,0.026458333,0,1 @ F,0,0,1,0,0.026458333,0,1 @ F,0,0,1,0,0.026458333,0,1 @ F,0,0,1,0,0.026458333,0,1 @ F,0,0,1,0,0.026458333,0,1 @ F,0,0,1,0,0.026458333,0,1 @ F,0,0,1,0,0.026458333,0,1 @ F,0,0,1,0,0.026458333,0,1 @ F,0,0,1,0,0.026458333,0,1 @ F,0,0,1,0,0.026458333,0,1 @ F,0,0,1,0,0.026458333,0,1 @ F,0,0,1,0,0.026458333,0,1 @ F,0,0,1,0,0.026458333,0,1 @ F,0,0,1,0,0.026458333,0,1 @ F,0,0,1,0,0.026458333,0,1 @ F,0,0,1,0,0.026458333,0,1 @ F,0,0,1,0,0.026458333,0,1 @ F,0,0,1,0,0.026458333,0,1 @ F,0,0,1,0,0.026458333,0,1 @ F,0,0,1,0,0.026458333,0,1 @ F,0,0,1,0,0.026458333,0,1 @ F,0,0,1,0,0.026458333,0,1 @ F,0,0,1,0,0.026458333,0,1 @ F,0,0,1,0,0.026458333,0,1 @ F,0,0,1,0,0.026458333,0,1 @ F,0,0,1,0,0.026458333,0,1 @ F,0,0,1,0,0.026458333,0,1 @ F,0,0,1,0,0.026458333,0,1 @ F,0,0,1,0,0.026458333,0,1 @ F,0,0,1,0,0.026458333,0,1 @ F,0,0,1,0,0.026458333,0,1 @ F,0,0,1,0,0.026458333,0,1 @ F,0,0,1,0,0.026458333,0,1 @ F,0,0,1,0,0.026458333,0,1 @ F,0,0,1,0,0.026458333,0,1 @ F,0,0,1,0,0.026458333,0,1 @ F,0,0,1,0,0.026458333,0,1 @ F,0,0,1,0,0.026458333,0,1 @ F,0,0,1,0,0.026458333,0,1 @ F,0,0,1,0,0.026458333,0,1 @ F,0,0,1,0,0.026458333,0,1 @ F,0,0,1,0,0.026458333,0,1 @ F,0,0,1,0,0.026458333,0,1"
       unit="px"
       method="auto"
       mode="F"
       radius="0.1"
       chamfer_steps="1"
       flexible="false"
       use_knot_distance="true"
       apply_no_radius="true"
       apply_with_radius="true"
       only_selected="false"
       hide_knots="false" />
    <inkscape:path-effect
       effect="fillet_chamfer"
       id="path-effect16392-8"
       is_visible="true"
       lpeversion="1"
       satellites_param="F,0,0,1,0,0.13229167,0,1 @ F,0,0,1,0,0.13229167,0,1 @ F,0,0,1,0,0.13229167,0,1 @ F,0,0,1,0,0.13229167,0,1 @ F,0,0,1,0,0.13229167,0,1 @ F,0,0,1,0,0.13229167,0,1 @ F,0,0,1,0,0.13229167,0,1 @ F,0,0,1,0,0.13229167,0,1 @ F,0,0,1,0,0.13229167,0,1 @ F,0,0,1,0,0.13229167,0,1"
       unit="px"
       method="auto"
       mode="F"
       radius="0.5"
       chamfer_steps="1"
       flexible="false"
       use_knot_distance="true"
       apply_no_radius="true"
       apply_with_radius="true"
       only_selected="false"
       hide_knots="false" />
    <radialGradient
       inkscape:collect="always"
       xlink:href="#linearGradient6475"
       id="radialGradient31462"
       cx="6.8946376"
       cy="6.2583103"
       fx="6.8946376"
       fy="6.2583103"
       r="4.5834169"
       gradientTransform="matrix(1,0,0,1.1137475,0,-0.90935024)"
       gradientUnits="userSpaceOnUse" />
    <linearGradient
       inkscape:collect="always"
       id="linearGradient6475">
      <stop
         style="stop-color:#226ca2;stop-opacity:1;"
         offset="0"
         id="stop6471" />
      <stop
         style="stop-color:#464c75;stop-opacity:1"
         offset="1"
         id="stop6473" />
    </linearGradient>
    <linearGradient
       inkscape:collect="always"
       xlink:href="#linearGradient7447"
       id="linearGradient7449"
       x1="13.685"
       y1="16.671478"
       x2="117.0837"
       y2="665.84442"
       gradientUnits="userSpaceOnUse"
       gradientTransform="matrix(0.02095362,0,0,0.02076322,0.7991877,0.11284921)" />
    <linearGradient
       inkscape:collect="always"
       id="linearGradient7447">
      <stop
         style="stop-color:#db5b52;stop-opacity:1"
         offset="0"
         id="stop7443" />
      <stop
         style="stop-color:#6c464f;stop-opacity:1"
         offset="1"
         id="stop7445" />
    </linearGradient>
  </defs>
  <sodipodi:namedview
     id="base"
     pagecolor="#ffffff"
     bordercolor="#666666"
     borderopacity="1.0"
     inkscape:pageopacity="0.0"
     inkscape:pageshadow="2"
     inkscape:zoom="11.391268"
     inkscape:cx="33.841711"
     inkscape:cy="32.788273"
     inkscape:current-layer="g3851"
     showgrid="true"
     inkscape:document-units="px"
     inkscape:grid-bbox="true"
     inkscape:window-width="1920"
     inkscape:window-height="1017"
     inkscape:window-x="-8"
     inkscape:window-y="-8"
     inkscape:window-maximized="1"
     inkscape:pagecheckerboard="1">
    <inkscape:grid
       type="xygrid"
       id="grid3015"
       empspacing="2"
       visible="true"
       enabled="true"
       snapvisiblegridlinesonly="true" />
  </sodipodi:namedview>
  <metadata
     id="metadata3062">
    <rdf:RDF>
      <cc:Work
         rdf:about="">
        <dc:format>image/svg+xml</dc:format>
        <dc:type
           rdf:resource="http://purl.org/dc/dcmitype/StillImage" />
        <dc:title />
      </cc:Work>
    </rdf:RDF>
  </metadata>
  <g
     id="layer1"
     inkscape:label="Layer 1"
     inkscape:groupmode="layer">
    <g
       id="g3851"
       transform="matrix(1.1386579,0,0,1.1324894,-5.849948,-6.8720445)">
      <path
         sodipodi:type="arc"
         style="fill:url(#radialGradient3079);fill-opacity:1;stroke:none"
         id="path3885"
         sodipodi:cx="32.5"
         sodipodi:cy="52"
         sodipodi:rx="28.5"
         sodipodi:ry="7"
         d="M 61,52 A 28.5,7 0 1 1 4,52 28.5,7 0 1 1 61,52 z"
         transform="matrix(0.98607933,0,0,0.88301034,1.1932644,6.9511055)" />
      <g
         transform="matrix(0.8782269,0,0,0.88301047,5.1375817,7.8341081)"
         id="g3821">
        <path
           sodipodi:nodetypes="ccccc"
           inkscape:connector-curvature="0"
           id="path2995"
           d="M 37,55 3,47 3,15 37,23 z"
           style="fill:url(#linearGradient3835);fill-opacity:1;stroke:#271903;stroke-width:2;stroke-linecap:butt;stroke-linejoin:round;stroke-opacity:1" />
        <path
           sodipodi:nodetypes="ccccc"
           inkscape:connector-curvature="0"
           id="path3811"
           d="m 5,17.6 0,27.9 30,6.9 0,-27.9 z"
           style="fill:none;stroke:#e9b96e;stroke-width:2;stroke-linecap:butt;stroke-linejoin:miter;stroke-opacity:1" />
      </g>
      <g
         transform="matrix(0.8782269,0,0,0.88301047,5.1375817,7.8341081)"
         id="g3847">
        <path
           sodipodi:nodetypes="ccccc"
           inkscape:connector-curvature="0"
           id="path2997"
           d="m 37,23 24,-8 0,32 -24,8 z"
           style="fill:url(#linearGradient3881);fill-opacity:1;stroke:#271903;stroke-width:2;stroke-linecap:butt;stroke-linejoin:round;stroke-opacity:1" />
        <path
           sodipodi:nodetypes="ccccc"
           inkscape:connector-curvature="0"
           id="path3837"
           d="M 39,24.3 39,52 59,45.9 59,18 z"
           style="fill:none;stroke:#c17d11;stroke-width:2;stroke-linecap:butt;stroke-linejoin:miter;stroke-opacity:1" />
      </g>
      <path
         style="fill:#e9b96e;stroke:#271903;stroke-width:1.76123083;stroke-linecap:butt;stroke-linejoin:round;stroke-opacity:1"
         d="M 7.7722624,21.079265 28.849708,14.015182 58.709423,21.079265 37.631977,28.143349 z"
         id="path3044"
         inkscape:connector-curvature="0" />
      <path
         style="fill:none;stroke:#271903;stroke-width:1.76123083;stroke-linecap:round;stroke-linejoin:miter;stroke-opacity:1"
         d="m 18.310985,17.547223 28.981488,7.064084"
         id="path3814"
         inkscape:connector-curvature="0" />
      <g
         id="g14435"
         style="stroke-width:0.720655;stroke-miterlimit:4;stroke-dasharray:none;paint-order:stroke fill markers"
         transform="matrix(1.6099422,0,0,1.6187113,11.261784,29.249901)">
        <g
           id="g18464"
           transform="rotate(0.03325942,65.979368,632.98598)">
          <path
             id="polygon832"
             style="fill:url(#radialGradient31462);fill-opacity:1;stroke:#121520;stroke-width:1.01041;stroke-linecap:round;stroke-miterlimit:4;stroke-dasharray:none;stroke-opacity:1;paint-order:stroke markers fill"
             d="m 3.9201508,7.8093739 0.8706747,0.1466646 c 0.019066,0.00321 0.036672,0.017654 0.042195,0.034613 l 0.2290631,0.7033936 c 0.0063,0.019351 0.014643,0.038626 0.024904,0.057546 l 0.3729603,0.6877005 c 0.00899,0.01658 0.00491,0.033386 -0.00978,0.040277 L 4.7791684,9.7942585 c -0.014855,0.00697 -0.019531,0.023586 -0.011407,0.040535 l 0.4035941,0.8420045 c 0.00888,0.01852 0.024439,0.03535 0.043783,0.04736 l 0.8319549,0.516503 c 0.017802,0.01105 0.038675,0.01204 0.051221,0.0024 l 0.5643259,-0.432424 c 0.012357,-0.0095 0.033298,-0.0078 0.050187,0.0041 l 0.7008792,0.490882 c 0.019292,0.01351 0.039558,0.02563 0.060505,0.03617 l 0.7617466,0.383491 c 0.018374,0.0092 0.030288,0.02721 0.028553,0.04305 l -0.079256,0.723456 c -0.00176,0.01609 0.00952,0.03438 0.027701,0.04488 l 0.9191501,0.531126 c 0.019691,0.01138 0.041634,0.01651 0.061141,0.0143 l 0.8434538,-0.09569 c 0.01817,-0.0021 0.02936,-0.01501 0.0277,-0.03207 L 9.9905378,12.19218 c -0.00162,-0.01668 0.010443,-0.02878 0.028905,-0.02899 l 0.766284,-0.0088 c 0.0211,-2.43e-4 0.04153,-0.0024 0.06099,-0.0064 l 0.707869,-0.146446 c 0.01708,-0.0035 0.03815,0.0051 0.05051,0.02066 l 0.564893,0.71194 c 0.01265,0.01594 0.03366,0.02554 0.05203,0.02377 l 0.923341,-0.08899 c 0.01968,-0.0019 0.03519,-0.01145 0.04279,-0.02635 l 0.338426,-0.663533 c 0.0071,-0.01402 0.0018,-0.03316 -0.01345,-0.04771 L 12.83723,11.284299 c -0.01478,-0.01415 -0.01878,-0.03303 -0.0096,-0.04525 l 0.382066,-0.507088 c 0.0085,-0.01124 0.0016,-0.02947 -0.01486,-0.03925 L 11.190903,9.499823 c -0.01736,-0.010334 -0.03741,-0.00913 -0.04634,0.00278 l -0.172499,0.2299049 c -0.01047,0.013952 -0.02282,0.026539 -0.03687,0.037579 l -0.23143,0.1818341 c -0.01404,0.011034 -0.02972,0.020469 -0.04681,0.028168 l -0.281398,0.126807 c -0.01708,0.0077 -0.03547,0.01362 -0.05493,0.01768 l -0.320479,0.06696 c -0.019446,0.0041 -0.039858,0.0062 -0.060941,0.0065 l -0.3472104,0.0046 c -0.021069,2.79e-4 -0.042706,-0.0014 -0.0646,-0.0049 l -0.3605834,-0.05786 c -0.02188,-0.0035 -0.043912,-0.0089 -0.065777,-0.01606 L 8.7409192,10.005844 C 8.7190662,9.998684 8.6974852,9.989763 8.6764872,9.97922 L 8.3306376,9.8055723 c -0.020988,-0.010538 -0.041292,-0.02265 -0.06062,-0.036162 L 7.9516565,9.5468505 C 7.9323361,9.533344 7.9140843,9.5185029 7.8971641,9.5025411 L 7.6184557,9.2396196 C 7.6015406,9.2236626 7.5860382,9.2066618 7.5721716,9.1888621 L 7.343749,8.8956481 C 7.329885,8.8778516 7.3177233,8.8593418 7.307439,8.8403854 L 7.138016,8.5280963 C 7.127732,8.5091413 7.119375,8.4898303 7.113066,8.4704413 L 7.0091154,8.1510136 c -0.00631,-0.01939 -0.010543,-0.038764 -0.012637,-0.057844 L 6.9619777,7.7788113 c -0.00209,-0.019083 -0.00204,-0.03778 1.627e-4,-0.055822 l 0.036293,-0.2972672 c 0.0022,-0.018047 0.00654,-0.035351 0.012961,-0.051664 L 7.1171277,7.105262 c 0.00642,-0.016319 0.014884,-0.031568 0.025272,-0.045526 L 7.3135752,6.8297209 c 0.010393,-0.013965 0.02266,-0.026573 0.036624,-0.037641 L 7.5803151,6.6096906 c 0.013972,-0.011074 0.029574,-0.020555 0.046583,-0.028305 L 7.9071832,6.4536637 c 0.017019,-0.00776 0.035361,-0.013742 0.054764,-0.017874 l 0.3197507,-0.068094 c 0.019415,-0.00413 0.039796,-0.00639 0.060851,-0.00675 l 0.3469649,-0.00579 c 0.021068,-3.514e-4 0.042706,0.00121 0.064604,0.00466 l 0.3608627,0.056811 c 0.021911,0.00345 0.043975,0.00877 0.065874,0.015888 L 9.541732,6.5498042 c 0.021911,0.00712 0.043551,0.016004 0.064608,0.026521 l 0.3469765,0.173296 c 0.021067,0.010522 0.041448,0.022627 0.060849,0.03614 l 0.319682,0.2226683 c 0.01941,0.013519 0.03774,0.02838 0.05474,0.044371 l 0.280028,0.2634772 c 0.017,0.015995 0.03258,0.033042 0.04651,0.050894 l 0.229531,0.2941287 c 0.01393,0.017855 0.02615,0.036429 0.03648,0.055453 l 0.170153,0.3134242 c 0.0088,0.016234 0.02881,0.027159 0.04624,0.02526 l 2.012709,-0.2193765 c 0.01651,-0.0018 0.0236,-0.016668 0.01526,-0.032021 L 12.853351,7.1187794 c -0.0065,-0.012063 -0.01309,-0.024121 -0.01968,-0.036172 l 0.707986,-0.3312129 c 0.01535,-0.00718 0.02096,-0.023727 0.01397,-0.041238 L 13.22455,5.8806156 c -0.0074,-0.018644 -0.02285,-0.03577 -0.04251,-0.047248 L 12.259343,5.2946668 c -0.01836,-0.010721 -0.03948,-0.011319 -0.0523,-0.00148 l -0.572041,0.4391864 c -0.01251,0.0096 -0.03367,0.00799 -0.05072,-0.00386 l -0.70677,-0.4913678 c -0.01944,-0.013513 -0.03986,-0.025614 -0.06096,-0.036128 L 10.049768,4.8190905 c -0.01848,-0.0092 -0.03045,-0.027218 -0.02869,-0.043176 l 0.08027,-0.7295613 c 0.0018,-0.016341 -0.0093,-0.034804 -0.02748,-0.045734 L 9.2297179,3.4932171 C 9.2101905,3.4814796 9.1881649,3.47594 9.1683493,3.4777821 l -0.9247491,0.085967 c -0.018287,0.0017 -0.029717,0.01458 -0.028061,0.031621 l 0.074409,0.765536 c 0.00163,0.016747 -0.010425,0.028982 -0.028885,0.029322 l -0.7651969,0.0141 c -0.021039,3.877e-4 -0.041404,0.00268 -0.060804,0.00686 L 6.7304584,4.5626923 c -0.016975,0.00365 -0.037948,-0.00485 -0.050266,-0.020365 L 6.1174111,3.8333299 c -0.012518,-0.01577 -0.033431,-0.024944 -0.05132,-0.022513 L 5.2302862,3.9244092 c -0.019429,0.00264 -0.035092,0.011969 -0.044064,0.026242 L 4.7784969,4.5993064 c -0.0082,0.01305 -0.00359,0.031996 0.011252,0.046211 L 5.459887,5.2874001 c 0.014669,0.01405 0.018675,0.032877 0.0096,0.045121 L 5.0933217,5.8400989 c -0.010344,0.013958 -0.01877,0.029203 -0.025156,0.045515 L 4.836158,6.4782331 c -0.00559,0.014281 -0.023249,0.020178 -0.04232,0.014134 L 3.922883,6.2163482 C 3.903606,6.2102382 3.885578,6.2156686 3.878928,6.2295862 L 3.5591491,6.8988821 c -0.00727,0.015223 -0.0073,0.033841 -8.27e-5,0.052581 L 3.8763047,7.774861 c 0.00659,0.017111 0.024576,0.031267 0.043846,0.034513 z"
             sodipodi:nodetypes="cccccccccccccccccccccccccccccccccccccccccccccccccccccccccccccccccccccccccc" />
          <path
             style="color:#000000;fill:#fdfdfd;fill-opacity:0.65;stroke-linecap:round;stroke-linejoin:round;-inkscape-stroke:none;paint-order:normal"
             d="m 9.1647213,3.4839941 -0.8785173,0.08155 c -0.040518,0.00301 -0.066475,0.030678 -0.063782,0.067993 l 0.073164,0.7581733 c -0.2756836,0.00534 -0.5499254,0.010681 -0.8253993,0.016182 -0.00334,4.337e-4 -0.0066,0.00103 -0.00976,0.00182 -0.026018,0.00333 -0.045099,0.00729 -0.056147,0.00939 -1.22e-5,6.887e-4 -1.44e-5,0.00138 -6.4e-6,0.00207 L 6.7016226,4.5723816 6.140863,3.8688719 C 6.1129115,3.8351733 6.0676502,3.8159223 6.0289906,3.8212877 L 5.2356797,3.9277912 c -0.021194,0.00269 -0.038456,0.012527 -0.048679,0.027732 L 4.8018148,4.5700244 c -0.018394,0.029026 -0.00856,0.071164 0.024071,0.1032 L 5.4901902,5.3119777 5.0905237,5.849563 c -0.00298,0.0039 -0.00543,0.00817 -0.00731,0.012731 -0.037161,0.093205 -0.07325,0.1871145 -0.109866,0.2799167 L 4.8293755,6.5048088 3.9641605,6.2312483 c -0.042679,-0.012712 -0.082145,-3.849e-4 -0.096974,0.030297 L 3.5658304,6.8975336 c -0.00823,0.016653 -0.00826,0.037199 -9.1e-5,0.057832 l 0.2989507,0.781224 c 0.014706,0.037808 0.054072,0.069241 0.096733,0.077235 l 0.8649382,0.1463381 c 0.082789,0.253378 0.165224,0.5055509 0.2482195,0.7590045 0.00143,0.00317 0.00304,0.00633 0.00484,0.00944 0.011124,0.024754 0.021054,0.043318 0.026565,0.054003 8.069e-4,2.052e-4 0.00161,4.02e-4 0.00242,5.901e-4 L 5.4805012,9.4690693 4.815316,9.7834816 C 4.782645,9.7995726 4.772674,9.8367406 4.790893,9.8745186 L 5.1721563,10.67165 c 0.010121,0.02005 0.027271,0.03815 0.048374,0.05107 l 0.7896734,0.488947 c 0.038472,0.02399 0.083643,0.02677 0.111652,0.0068 L 6.6841633,10.7905 7.4268125,11.311544 c 0.00542,0.0039 0.011115,0.0074 0.017001,0.01042 0.1201829,0.06103 0.2400253,0.120835 0.3596685,0.181286 0.155675,0.0785 0.3111092,0.158061 0.4668567,0.2366 l -0.07797,0.71679 c -0.00329,0.03507 0.021231,0.07458 0.060557,0.09758 0.290951,0.168778 0.5820115,0.337614 0.8731822,0.506516 0.024115,0.01462 0.05136,0.02134 0.075543,0.01861 0.265253,-0.03046 0.5306336,-0.06095 0.7961441,-0.09144 0.038578,-0.0045 0.062322,-0.03203 0.058913,-0.06828 L 9.986539,12.161197 c 0.276308,-0.0037 0.552438,-0.0083 0.829019,-0.01196 l -0.01468,-0.0015 c 0.0477,0.0053 0.06122,-0.0048 0.04651,-0.0031 0.0025,-1.6e-5 0.0049,-1.71e-4 0.0073,-3.2e-4 l 0.72804,-0.153209 0.567743,0.709697 c 0.02708,0.03341 0.07132,0.05344 0.110116,0.04985 0.290461,-0.02758 0.581077,-0.05517 0.87185,-0.08278 0.0251,-0.0028 0.04475,-0.01521 0.05424,-0.03445 0.106789,-0.209868 0.213626,-0.419812 0.320497,-0.629828 0.01571,-0.02901 0.005,-0.0692 -0.02651,-0.100003 -0.224138,-0.21485 -0.448278,-0.429674 -0.672364,-0.644432 l 0.361344,-0.479286 c 0.02821,-0.03657 0.0056,-0.09649 -0.04848,-0.12827 L 11.243771,9.5334971 c -0.04601,-0.027003 -0.0988,-0.02374 -0.122594,0.00757 l -0.16026,0.2164641 -0.275272,0.2132334 -0.333568,0.1531874 -0.3794754,0.07545 -0.4131399,0.007 -0.424769,-0.06638 L 8.7080501,9.9985921 8.2965415,9.7904533 7.9292798,9.5372562 7.9268515,9.534593 C 7.8175981,9.4299042 7.7052002,9.3265536 7.5964824,9.2221317 l -0.00485,-0.0074 c -0.00221,-0.00213 -0.00508,-0.00379 -0.00729,-0.00592 L 7.3174807,8.8704907 7.1189304,8.5012048 6.9958878,8.1212865 6.9531538,7.7483969 6.99801,7.3966574 7.1231659,7.0787407 7.3237911,6.8058731 7.5999397,6.5904932 7.9297443,6.4377026 l 0.3786166,-0.078873 0.4128485,-0.00841 0.4275363,0.067797 0.4251119,0.1378752 0.4128538,0.2077257 0.3785546,0.2619042 0.331929,0.3131216 0.273029,0.3488793 0.158063,0.2940714 c 0.02347,0.042826 0.07615,0.0717 0.122325,0.067047 l 1.885594,-0.208223 c 0.05431,-0.00554 0.07756,-0.054439 0.04978,-0.1046957 C 13.06882,7.520573 12.952406,7.305952 12.835017,7.0905028 c -0.0015,-0.00321 -0.0031,-0.00639 -0.0049,-0.00951 l -0.0025,-0.00269 0.681267,-0.3156458 c 0.03189,-0.015507 0.04297,-0.050573 0.02759,-0.087265 l -0.31346,-0.7870482 c -0.0093,-0.023927 -0.0288,-0.045993 -0.05387,-0.06094 L 12.2979,5.3199948 c -0.03878,-0.022492 -0.08324,-0.02393 -0.11067,-0.00358 L 11.612386,5.751947 10.865926,5.2309531 c -0.0092,-0.0063 -0.01912,-0.01149 -0.02938,-0.015381 8.25e-4,3.225e-4 -0.01049,-0.00642 -0.02938,-0.01538 l -0.0024,-5.871e-4 -0.79036,-0.3958033 0.07899,-0.7269509 c 0.0037,-0.034776 -0.01984,-0.074003 -0.05844,-0.097339 L 9.2381063,3.5015244 c -0.023497,-0.013751 -0.049827,-0.020041 -0.073385,-0.01753 z m 0.028722,0.1735085 0.698918,0.4171167 -0.078937,0.7351454 c -0.00349,0.037731 0.024794,0.079926 0.068184,0.1017277 l 0.8684937,0.4333451 c 7.98e-4,8.972e-4 0.0016,0.00178 0.0024,0.00267 0.0027,0.00125 0.01744,0.00796 0.02693,0.012715 l 0.809987,0.5633792 c 0.04021,0.028084 0.0902,0.032308 0.120322,0.010159 l 0.579855,-0.4384037 0.765607,0.4445563 0.274606,0.6899395 -0.695861,0.3225663 c -0.03846,0.018351 -0.04613,0.06425 -0.01776,0.1061954 l 0.05126,0.076973 c 0.09885,0.1814487 0.196084,0.3626337 0.294846,0.5442478 L 11.258806,7.8677712 11.137191,7.642806 c -0.0028,-0.00507 -0.0061,-0.01005 -0.0097,-0.014838 L 10.842167,7.2636113 c -0.0043,-0.00564 -0.0093,-0.011012 -0.01464,-0.016019 L 10.480882,6.9205044 c -0.0046,-0.00425 -0.0095,-0.00822 -0.01465,-0.011854 L 10.070508,6.6342928 c -0.0055,-0.00386 -0.01118,-0.00733 -0.0171,-0.010365 l -0.4300196,-0.21599 c -0.00633,-0.00348 -0.012875,-0.00646 -0.019544,-0.00887 L 9.1591463,6.2544413 c -0.0065,-0.00213 -0.013046,-0.0037 -0.019547,-0.00471 L 8.692502,6.1793548 C 8.685832,6.1785544 8.679286,6.1783708 8.672955,6.1788019 l -0.4299333,0.00851 c -0.00591,1.794e-4 -0.011642,8.821e-4 -0.017099,0.00211 L 7.8302459,6.272524 c -0.00516,0.00114 -0.010077,0.00273 -0.014655,0.00476 l -0.344402,0.1596847 c -0.00539,0.0024 -0.010303,0.00538 -0.014657,0.00891 L 7.1682383,6.6707822 c -0.00369,0.00299 -0.00697,0.00636 -0.00977,0.010081 L 6.9481258,6.965884 c -0.00299,0.0039 -0.00545,0.00817 -0.00734,0.012734 L 6.8107816,7.309836 c -0.00231,0.00481 -0.00395,0.00996 -0.00492,0.015386 l -0.047294,0.3676729 c -6.684e-4,0.00535 -6.841e-4,0.010896 -4.69e-5,0.01656 l 0.045133,0.389982 c 0.00109,0.00522 0.0027,0.010453 0.00483,0.015669 L 6.936336,8.5106292 c 0.00171,0.00614 0.00414,0.012288 0.00725,0.018327 l 0.2081994,0.3860766 c 0.00264,0.00574 0.00589,0.011387 0.00968,0.016851 l 0.2862196,0.359576 c 0.00368,0.00465 0.00774,0.00911 0.012141,0.013316 0.1143335,0.109888 0.2282505,0.2204577 0.3424214,0.3298788 0.00532,0.00454 0.011025,0.00871 0.017016,0.012431 l 0.3939387,0.2721418 c 0.00543,0.00386 0.011135,0.00733 0.017031,0.010371 l 0.4284917,0.2164606 c 0.00631,0.0035 0.012837,0.0065 0.019486,0.0089 l 0.4461023,0.148312 c 0.00649,0.0021 0.013025,0.0037 0.019515,0.0048 l 0.4442847,0.06913 c 0.00667,8.22e-4 0.013215,0.001 0.019546,6.24e-4 l 0.4302652,-0.0069 c 0.0059,-1.58e-4 0.01166,-8.38e-4 0.01713,-0.002 l 0.396653,-0.07951 c 0.0052,-0.0011 0.01011,-0.0027 0.01471,-0.0047 l 0.348345,-0.159928 c 0.0054,-0.0024 0.01036,-0.0054 0.01473,-0.0089 l 0.287633,-0.2226667 c 0.0037,-0.00299 0.007,-0.00635 0.0098,-0.010063 l 0.123309,-0.1652184 1.69596,1.0095861 -0.348799,0.461474 c -0.02321,0.02896 -0.01417,0.07477 0.02154,0.109139 0.227141,0.21771 0.454766,0.435149 0.682012,0.652949 -0.0931,0.183031 -0.187561,0.365223 -0.280603,0.548146 -0.255615,0.02431 -0.510841,0.04925 -0.766218,0.07354 L 11.681403,11.85766 c -0.02976,-0.03654 -0.07957,-0.0565 -0.119861,-0.04804 l -0.791741,0.164673 c -0.02943,0.0034 -0.02962,0.0011 0.0024,0.0047 -0.0049,-8.23e-4 -0.0099,-0.0014 -0.01468,-0.0015 -0.301737,0.004 -0.603314,0.0081 -0.9047315,0.01214 -0.043361,6.92e-4 -0.071846,0.02891 -0.068677,0.06804 l 0.07262,0.765103 c -0.2322283,0.02667 -0.4639333,0.05432 -0.6959553,0.081 C 8.9052475,12.755555 8.649969,12.606922 8.3945433,12.458782 L 8.47262,11.735666 C 8.47607,11.698196 8.44791,11.656116 8.404731,11.634197 8.2239205,11.54305 8.043112,11.451608 7.8623832,11.360493 7.7446622,11.301031 7.6268885,11.242408 7.5099507,11.183074 c -0.00244,-0.0012 -0.00485,-0.0026 -0.00729,-0.0039 l -0.7961465,-0.55892 c -0.039853,-0.02802 -0.089328,-0.03246 -0.1190722,-0.01057 L 6.0227699,11.041292 5.3323077,10.613886 4.9968333,9.9124834 5.6646515,9.5966594 c 0.034266,-0.016858 0.04344,-0.056691 0.022078,-0.095853 L 5.280731,8.7507711 5.278311,8.7481211 C 5.270701,8.7335921 5.265308,8.7245321 5.261395,8.7171291 l 4.6e-6,-0.00206 C 5.1710902,8.4392966 5.0792475,8.1619954 4.9890418,7.8860207 4.9758511,7.8461199 4.9346656,7.8120948 4.8897514,7.803991 L 4.0198208,7.6586337 3.7569949,6.9728475 4.0220019,6.414835 4.8920838,6.6917536 c 0.044922,0.013699 0.086227,-3.326e-4 0.099581,-0.033826 l 0.1660131,-0.423526 c 0.036039,-0.091304 0.071347,-0.1815753 0.1074706,-0.2722393 7.585e-4,-0.00191 0.00169,-0.00372 0.00244,-0.00563 L 5.6966691,5.3803991 C 5.7182321,5.3515431 5.7092459,5.307168 5.6750476,5.273605 L 5.0081395,4.6320948 5.3471416,4.0914606 6.0407116,3.998495 6.6037943,4.7066695 c 0.029653,0.036396 0.0792,0.056068 0.1192464,0.047343 l 0.7685407,-0.1643453 0.00244,-0.00149 c 0.015851,-0.00312 0.026537,-0.00487 0.034181,-0.00634 0.299745,-0.00594 0.6009515,-0.012879 0.9012009,-0.01868 0.04338,-9.771e-4 0.071868,-0.029518 0.068679,-0.068811 L 8.4225343,3.7292697 Z"
             id="polygon832-6" />
        </g>
        <g
           id="g21667"
           transform="matrix(1,0,0,0.99292694,0,0.08853049)">
          <path
             id="polygon830"
             style="fill:url(#linearGradient7449);stroke:#121520;stroke-width:1.014;stroke-linecap:round;stroke-linejoin:round;stroke-miterlimit:4;stroke-dasharray:none;stroke-opacity:1;paint-order:stroke markers fill"
             d="m 5.7647559,4.8967318 -0.00363,1.6644439 c -1.687e-4,0.077418 -0.073908,0.122213 -0.1646892,0.1000597 L 2.6701407,5.9471348 c -0.09035,-0.022048 -0.163641,0.022692 -0.163711,0.099924 l -0.00468,5.1577862 c -6.98e-5,0.07691 -0.073196,0.12112 -0.16332,0.09874 L 0.3493143,10.809638 C 0.25948592,10.787331 0.18667499,10.707002 0.18667497,10.63021 l -3.39e-6,-12.6027976 c -2e-8,-0.077557 0.0731783,-0.1230063 0.16346012,-0.1015075 l 7.7102346,1.83603529 c 0.0914,0.021765 0.1653055,0.10263966 0.1650609,0.18063146 l -0.00521,1.66162555 c -2.443e-4,0.077886 -0.07449,0.1232754 -0.1658197,0.1013873 L 2.6755105,0.41648262 c -0.090546,-0.0217002 -0.1639957,0.0235932 -0.164066,0.10115864 l -0.003,3.30890254 c -7.01e-5,0.077361 0.073163,0.1578427 0.1635816,0.1797689 L 5.6005524,4.716467 c 0.090851,0.022031 0.1643724,0.1027413 0.1642035,0.1802648 z"
             sodipodi:nodetypes="ccccccccccc" />
          <path
             id="polygon830-9"
             style="fill:none;stroke:#ffffff;stroke-width:0.155642;stroke-linecap:round;stroke-linejoin:round;stroke-miterlimit:4;stroke-dasharray:none;stroke-opacity:0.65;paint-order:stroke fill markers"
             d="m 0.34964342,-1.9872987 c -0.0381529,-0.010141 -0.0669996,0.015087 -0.0627505,0.047318 L 0.28640271,10.655475 c -0.001464,0.0317 0.0359045,0.06377 0.07104,0.06896 l 1.98061169,0.491698 c 0.036798,0.01071 0.067117,-0.01145 0.062691,-0.04322 l 0.00447,-5.1513404 c -4.067e-4,-0.063283 0.03315,-0.1171131 0.089078,-0.1446939 0.051361,-0.027673 0.1214185,-0.031709 0.1908322,-0.012101 l 2.9106225,0.7100775 c 0.038371,0.010417 0.067414,-0.014557 0.06323,-0.046754 l 0.00355,-1.6565921 c 0.00131,-0.032466 -0.036242,-0.066327 -0.072814,-0.071567 L 2.6727771,4.0924058 C 2.5494981,4.0637312 2.432548,3.953416 2.4115571,3.8441027 c -0.00703,-0.036807 -0.00358,-0.071684 -0.00436,-0.1073194 l 0.00281,-3.2430748 c -9.527e-4,-0.0971744 0.079156,-0.16971072 0.1868741,-0.17249817 0.049821,-0.002874 0.1026962,0.0145896 0.1543595,0.0261254 L 8.0538803,1.6177971 c 0.038602,0.010311 0.067851,-0.014941 0.063672,-0.047314 l 0.00511,-1.65202114 c 0.00135,-0.03266745 -0.036406,-0.06656899 -0.073202,-0.07167949 L 0.34964317,-1.9873021 Z"
             sodipodi:nodetypes="ccccccccccc" />
        </g>
      </g>
    </g>
  </g>
</svg>
