<?xml version="1.0" encoding="UTF-8" standalone="no"?>
<svg
   width="64"
   height="64"
   overflow="visible"
   enable-background="new 0 0 128 129.396"
   xml:space="preserve"
   id="svg2"
   version="1.0"
   xmlns:xlink="http://www.w3.org/1999/xlink"
   xmlns="http://www.w3.org/2000/svg"
   xmlns:svg="http://www.w3.org/2000/svg"
   xmlns:rdf="http://www.w3.org/1999/02/22-rdf-syntax-ns#"
   xmlns:cc="http://creativecommons.org/ns#"
   xmlns:dc="http://purl.org/dc/elements/1.1/"><metadata
   id="metadata367"><rdf:RDF><cc:Work
       rdf:about=""><dc:format>image/svg+xml</dc:format><dc:type
         rdf:resource="http://purl.org/dc/dcmitype/StillImage" /><cc:license
         rdf:resource="http://creativecommons.org/licenses/by-sa/2.0/" /><dc:creator><cc:Agent><dc:title>jakub Steiner</dc:title></cc:Agent></dc:creator><dc:source>http://jimmac.musichall.cz</dc:source><dc:subject><rdf:Bag><rdf:li>home</rdf:li><rdf:li>return</rdf:li><rdf:li>go</rdf:li><rdf:li>default</rdf:li><rdf:li>user</rdf:li><rdf:li>directory</rdf:li></rdf:Bag></dc:subject></cc:Work><cc:License
       rdf:about="http://creativecommons.org/licenses/by-sa/2.0/"><cc:permits
         rdf:resource="http://web.resource.org/cc/Reproduction" /><cc:permits
         rdf:resource="http://web.resource.org/cc/Distribution" /><cc:requires
         rdf:resource="http://web.resource.org/cc/Notice" /><cc:requires
         rdf:resource="http://web.resource.org/cc/Attribution" /><cc:permits
         rdf:resource="http://web.resource.org/cc/DerivativeWorks" /><cc:requires
         rdf:resource="http://web.resource.org/cc/ShareAlike" /></cc:License></rdf:RDF></metadata><defs
   id="defs365"><linearGradient
     id="linearGradient2"><stop
       style="stop-color:#c4a000;stop-opacity:1;"
       offset="0"
       id="stop2" /><stop
       style="stop-color:#edd400;stop-opacity:1;"
       offset="1"
       id="stop3" /></linearGradient><linearGradient
     xlink:href="#linearGradient2"
     id="linearGradient10"
     gradientUnits="userSpaceOnUse"
     x1="14.931397"
     y1="23.198523"
     x2="45.2611"
     y2="23.198523" /></defs>
	
<g
   id="g1"
   transform="matrix(1.1223723,0,0,1.3589564,5.2034963,0.53227175)"><g
     id="g1903"
     transform="matrix(0.827925,0,0,0.827925,-628.8636,-425.078)"
     style="display:inline"><g
       id="g10"
       transform="matrix(1.2078389,0,0,1.2078389,759.5659,513.42573)"><path
         style="display:inline;fill:url(#linearGradient10);fill-opacity:1;fill-rule:evenodd;stroke:#302b00;stroke-width:1.61942;stroke-linecap:butt;stroke-linejoin:miter;stroke-dasharray:none;stroke-opacity:1"
         d="M 44.46875,3.6875 16.4375,44.46875 h 28.03125 z"
         id="path1465" /><path
         style="display:inline;fill:none;fill-opacity:1;fill-rule:evenodd;stroke:#fce94f;stroke-width:1.61942;stroke-linecap:butt;stroke-linejoin:miter;stroke-dasharray:none;stroke-opacity:1"
         d="M 42.849609,8.9023438 V 42.849609 H 19.515625 Z"
         id="path1" /><path
         style="display:inline;fill:#ffffff;fill-opacity:1;fill-rule:evenodd;stroke:#302b00;stroke-width:1.61942;stroke-linecap:butt;stroke-linejoin:miter;stroke-dasharray:none;stroke-opacity:1"
         d="m 38.53125,23.5 v 14 H 29.5 Z"
         id="path8" /><g
         id="g2"
         style="stroke-width:0.999945;stroke-dasharray:none"
         transform="translate(0.17782306,2.4643654e-4)"><path
           id="path3022"
           d="m 43.506026,40.61612 h -0.75843"
           style="opacity:1;fill:#2e3436;fill-opacity:0.75;fill-rule:evenodd;stroke:#c4a000;stroke-width:1.61942;stroke-linecap:square;stroke-linejoin:miter;stroke-dasharray:none;stroke-opacity:1" /><path
           id="path3046"
           d="m 43.506026,36.61612 h -0.75843"
           style="opacity:1;fill:#2e3436;fill-opacity:0.75;fill-rule:evenodd;stroke:#c4a000;stroke-width:1.61942;stroke-linecap:square;stroke-linejoin:miter;stroke-dasharray:none;stroke-opacity:1" /><path
           id="path3050"
           d="m 43.506026,32.61612 h -0.75843"
           style="opacity:1;fill:#2e3436;fill-opacity:0.75;fill-rule:evenodd;stroke:#c4a000;stroke-width:1.61942;stroke-linecap:square;stroke-linejoin:miter;stroke-dasharray:none;stroke-opacity:1" /><path
           id="path3054"
           d="m 43.506026,28.61612 h -0.75843"
           style="opacity:1;fill:#2e3436;fill-opacity:0.75;fill-rule:evenodd;stroke:#c4a000;stroke-width:1.61942;stroke-linecap:square;stroke-linejoin:miter;stroke-dasharray:none;stroke-opacity:1" /><path
           id="path3058"
           d="m 43.506026,24.61612 h -0.75843"
           style="opacity:1;fill:#2e3436;fill-opacity:0.75;fill-rule:evenodd;stroke:#c4a000;stroke-width:1.61942;stroke-linecap:square;stroke-linejoin:miter;stroke-dasharray:none;stroke-opacity:1" /><path
           id="path3062"
           d="m 43.506026,20.61612 h -0.75843"
           style="opacity:1;fill:#2e3436;fill-opacity:0.75;fill-rule:evenodd;stroke:#c4a000;stroke-width:1.61942;stroke-linecap:square;stroke-linejoin:miter;stroke-dasharray:none;stroke-opacity:1" /><path
           id="path3066"
           d="m 43.506026,16.61612 h -0.75843"
           style="display:inline;opacity:1;fill:#2e3436;fill-opacity:0.75;fill-rule:evenodd;stroke:#c4a000;stroke-width:1.61942;stroke-linecap:square;stroke-linejoin:miter;stroke-dasharray:none;stroke-opacity:1" /><path
           id="path3070"
           d="m 43.506026,12.61612 h -0.75843"
           style="display:inline;opacity:1;fill:#2e3436;fill-opacity:0.75;fill-rule:evenodd;stroke:#c4a000;stroke-width:1.61942;stroke-linecap:square;stroke-linejoin:miter;stroke-dasharray:none;stroke-opacity:1" /></g></g><path
       id="path16717"
       d="m 793.19801,517.78 c 0.21195,0.0685 0.41726,0.14466 0.62398,0.2175 0.65142,2.197 3.67149,4.41872 2.52306,6.60663 -3.82584,6.38039 -7.62433,12.84544 -11.42159,19.27614 -0.74575,0.1469 -1.49803,0.22691 -2.25177,0.24469 -1.58639,0.0402 -3.21493,-0.19449 -4.72056,-0.73407 5.05087,-8.55127 10.10387,-17.12141 15.24688,-25.61089 z"
       style="font-variation-settings:normal;display:inline;opacity:1;fill:#d3d7cf;fill-opacity:1;stroke:#2e3436;stroke-width:1.91394;stroke-linecap:round;stroke-linejoin:round;stroke-miterlimit:4;stroke-dasharray:none;stroke-dashoffset:0;stroke-opacity:1;stop-color:#000000;stop-opacity:1" /><polygon
       transform="matrix(3.637893,0,0,3.470375,-297.0923,500.1478)"
       points="294.73242,13.672852 295.74658,11.960449 297.04443,12.300293 296.39941,13.384766 295.13281,14.71875 "
       id="polygon45129"
       style="display:inline;fill:#ef2929;fill-opacity:1;stroke:#280000;stroke-width:0.55049793;stroke-linecap:butt;stroke-linejoin:miter;stroke-miterlimit:4;stroke-dasharray:none;stroke-opacity:1;font-variation-settings:normal;opacity:1;vector-effect:none;stroke-dashoffset:0;-inkscape-stroke:none;stop-color:#000000;stop-opacity:1" /><path
       id="polygon45097"
       d="m 771.9838,517.78 c -0.20813,0.0685 -0.40975,0.14466 -0.61275,0.2175 -0.63968,2.197 -3.60536,4.41872 -2.47762,6.60663 3.75695,6.38039 7.48703,12.84544 11.21591,19.27614 0.73232,0.1469 1.47105,0.22691 2.21121,0.24469 1.55783,0.0402 3.15704,-0.19449 4.63556,-0.73407 -4.95992,-8.55127 -9.92192,-17.12141 -14.97231,-25.61089 z"
       style="display:inline;fill:#eeeeec;stroke:#2e3436;stroke-width:1.956;stroke-linecap:round;stroke-linejoin:round;stroke-miterlimit:4;stroke-dasharray:none;stroke-opacity:1" /><path
       d="m 776.72409,546.44193 c 3.23501,1.72665 3.49584,6.61292 0.57795,10.91436 -2.91786,4.30396 -7.90449,6.39518 -11.14096,4.67613 -3.2365,-1.72665 -3.49583,-6.61039 -0.57794,-10.91182 2.91637,-4.30143 7.90448,-6.39266 11.14095,-4.67867 z m -1.85512,2.74215 c -1.43653,-0.76363 -4.50746,0.54052 -6.46634,3.43403 -1.96291,2.8935 -1.8229,5.91351 -0.38773,6.67484 1.43515,0.76823 4.50879,-0.54052 6.46767,-3.43403 1.96426,-2.8935 1.82289,-5.91121 0.3864,-6.67484 z"
       style="display:inline;fill:#ef2929;fill-opacity:1;stroke:#280000;stroke-width:1.956;stroke-dasharray:none;stroke-opacity:1"
       id="path45138" /><polygon
       transform="matrix(3.624438,0,0,3.624438,-294.89831,499.30781)"
       points="296.95605,12.300293 297.6001,13.384766 298.86719,14.71875 299.26807,13.672852 298.25391,11.960449 "
       id="polygon45101"
       style="display:inline;fill:#ef2929;fill-opacity:1;stroke:#280000;stroke-width:0.53966987;stroke-linecap:butt;stroke-linejoin:miter;stroke-miterlimit:4;stroke-dasharray:none;stroke-opacity:1;font-variation-settings:normal;opacity:1;vector-effect:none;stroke-dashoffset:0;-inkscape-stroke:none;stop-color:#000000;stop-opacity:1" /><path
       id="path11967"
       style="font-variation-settings:normal;display:inline;opacity:1;vector-effect:none;fill:#ef2929;fill-opacity:1;stroke:#280000;stroke-width:1.956;stroke-linecap:butt;stroke-linejoin:miter;stroke-miterlimit:4;stroke-dasharray:none;stroke-dashoffset:0;stroke-opacity:1;-inkscape-stroke:none;stop-color:#000000;stop-opacity:1"
       d="m 788.61251,546.44166 c -3.23501,1.72665 -3.49583,6.61292 -0.57794,10.91436 2.91786,4.30396 7.90449,6.39518 11.14096,4.67613 3.2365,-1.72665 3.49583,-6.61039 0.57794,-10.91182 -2.91637,-4.30143 -7.90449,-6.39266 -11.14096,-4.67867 z m 1.85513,2.74215 c 1.43652,-0.76363 4.50746,0.54052 6.46634,3.43403 1.96291,2.8935 1.8229,5.91351 0.38773,6.67484 -1.43515,0.76823 -4.50879,-0.54052 -6.46767,-3.43403 -1.96426,-2.8935 -1.8229,-5.91121 -0.3864,-6.67484 z"
       transform="translate(4.1962968e-6)" /></g></g></svg>
