<?xml version="1.0" encoding="UTF-8" standalone="no"?>
<svg
   xmlns:dc="http://purl.org/dc/elements/1.1/"
   xmlns:cc="http://web.resource.org/cc/"
   xmlns:rdf="http://www.w3.org/1999/02/22-rdf-syntax-ns#"
   xmlns:svg="http://www.w3.org/2000/svg"
   xmlns="http://www.w3.org/2000/svg"
   xmlns:xlink="http://www.w3.org/1999/xlink"
   xmlns:sodipodi="http://inkscape.sourceforge.net/DTD/sodipodi-0.dtd"
   xmlns:inkscape="http://www.inkscape.org/namespaces/inkscape"
   width="48"
   height="48"
   overflow="visible"
   enable-background="new 0 0 128 129.396"
   xml:space="preserve"
   id="svg2"
   sodipodi:version="0.32"
   inkscape:version="0.43+devel"
   sodipodi:docname="applications-accessories.svg"
   sodipodi:docbase="/home/tigert/cvs/freedesktop.org/tango-icon-theme/scalable/categories"
   version="1.0"
   inkscape:export-filename="/home/tigert/My Downloads/go-home.png"
   inkscape:export-xdpi="90.000000"
   inkscape:export-ydpi="90.000000"><metadata
   id="metadata367"><rdf:RDF><cc:Work
       rdf:about=""><dc:format>image/svg+xml</dc:format><dc:type
         rdf:resource="http://purl.org/dc/dcmitype/StillImage" /><cc:license
         rdf:resource="http://creativecommons.org/licenses/by-sa/2.0/" /><dc:title>Go Home</dc:title><dc:creator><cc:Agent><dc:title>jakub Steiner</dc:title></cc:Agent></dc:creator><dc:source>http://jimmac.musichall.cz</dc:source><dc:subject><rdf:Bag><rdf:li>home</rdf:li><rdf:li>return</rdf:li><rdf:li>go</rdf:li><rdf:li>default</rdf:li><rdf:li>user</rdf:li><rdf:li>directory</rdf:li></rdf:Bag></dc:subject></cc:Work><cc:License
       rdf:about="http://creativecommons.org/licenses/by-sa/2.0/"><cc:permits
         rdf:resource="http://web.resource.org/cc/Reproduction" /><cc:permits
         rdf:resource="http://web.resource.org/cc/Distribution" /><cc:requires
         rdf:resource="http://web.resource.org/cc/Notice" /><cc:requires
         rdf:resource="http://web.resource.org/cc/Attribution" /><cc:permits
         rdf:resource="http://web.resource.org/cc/DerivativeWorks" /><cc:requires
         rdf:resource="http://web.resource.org/cc/ShareAlike" /></cc:License></rdf:RDF></metadata><defs
   id="defs365"><linearGradient
     inkscape:collect="always"
     id="linearGradient3099"><stop
       style="stop-color:#ffffff;stop-opacity:1;"
       offset="0"
       id="stop3101" /><stop
       style="stop-color:#ffffff;stop-opacity:0;"
       offset="1"
       id="stop3103" /></linearGradient><linearGradient
     inkscape:collect="always"
     id="linearGradient3078"><stop
       style="stop-color:#c4a000"
       offset="0"
       id="stop3080" /><stop
       style="stop-color:#fce94f"
       offset="1"
       id="stop3082" /></linearGradient><linearGradient
     y2="27.836672"
     x2="74.587158"
     y1="21.424805"
     x1="68.175293"
     gradientUnits="userSpaceOnUse"
     id="XMLID_45_"><stop
       id="stop695"
       style="stop-color:#BABDB6"
       offset="0" /><stop
       id="stop697"
       style="stop-color:#EEEEEC"
       offset="1" /></linearGradient><radialGradient
     gradientUnits="userSpaceOnUse"
     gradientTransform="matrix(1.000000,0.000000,0.000000,1.010300,1.007969e-18,-0.159801)"
     r="7.2848282"
     cy="23.333008"
     cx="165.06104"
     id="XMLID_52_"><stop
       id="stop812"
       style="stop-color:#EF3535"
       offset="0" /><stop
       offset="0"
       style="stop-color:#c91a1a;stop-opacity:1;"
       id="stop2239" /><stop
       id="stop814"
       style="stop-color:#ff4c4c;stop-opacity:1;"
       offset="1" /></radialGradient><linearGradient
     gradientTransform="matrix(2.051000,0.000000,0.167200,-0.989000,-799.2049,221.0724)"
     y2="-79.574341"
     x2="1420.6542"
     y1="-50.919434"
     x1="1420.5474"
     gradientUnits="userSpaceOnUse"
     id="path3311_1_"><stop
       id="stop4970"
       style="stop-color:#C4A000"
       offset="0" /><stop
       id="stop4972"
       style="stop-color:#957A00"
       offset="1" /></linearGradient><linearGradient
     gradientTransform="matrix(1.213800,0.000000,0.282500,-1.671200,46.72625,447.9442)"
     y2="175.78883"
     x2="1679.5989"
     y1="185.30176"
     x1="1668.7646"
     gradientUnits="userSpaceOnUse"
     id="path3230_2_"><stop
       id="stop4977"
       style="stop-color:#FFFFFF"
       offset="0" /><stop
       id="stop4979"
       style="stop-color:#CFCFCF"
       offset="1" /></linearGradient><linearGradient
     y2="10.711433"
     x2="296.93979"
     y1="4.7592773"
     x1="292.97168"
     gradientUnits="userSpaceOnUse"
     id="XMLID_897_"><stop
       id="stop45093"
       style="stop-color:#EEEEEC"
       offset="0" /><stop
       id="stop45095"
       style="stop-color:#ffffff;stop-opacity:1;"
       offset="1" /></linearGradient><radialGradient
     id="radialGradient16850"
     cx="165.06104"
     cy="23.333008"
     r="7.2848282"
     gradientTransform="matrix(1.000000,0.000000,0.000000,1.010300,1.007969e-18,-0.159801)"
     gradientUnits="userSpaceOnUse"><stop
       offset="0"
       style="stop-color:#EF3535"
       id="stop16852" /><stop
       offset="1"
       style="stop-color:#a40000;stop-opacity:0"
       id="stop16854" /></radialGradient><linearGradient
     id="linearGradient2229"><stop
       id="stop2231"
       offset="0"
       style="stop-color:#e2e2e2;stop-opacity:1;" /><stop
       id="stop2233"
       offset="1"
       style="stop-color:#d8d8d8;stop-opacity:1;" /></linearGradient><linearGradient
     id="linearGradient2251"
     inkscape:collect="always"><stop
       id="stop2253"
       offset="0"
       style="stop-color:#df2a2a;stop-opacity:1;" /><stop
       id="stop2255"
       offset="1"
       style="stop-color:#df2a2a;stop-opacity:0;" /></linearGradient><linearGradient
     id="linearGradient2259"
     inkscape:collect="always"><stop
       id="stop2261"
       offset="0"
       style="stop-color:#9a0c00;stop-opacity:1;" /><stop
       id="stop2263"
       offset="1"
       style="stop-color:#9a0c00;stop-opacity:0;" /></linearGradient><linearGradient
     id="linearGradient2269"
     inkscape:collect="always"><stop
       id="stop2271"
       offset="0"
       style="stop-color:#000000;stop-opacity:1;" /><stop
       id="stop2273"
       offset="1"
       style="stop-color:#000000;stop-opacity:0;" /></linearGradient><linearGradient
     inkscape:collect="always"
     xlink:href="#path3230_2_"
     id="linearGradient1890"
     gradientUnits="userSpaceOnUse"
     gradientTransform="matrix(1.213781,0,0.282495,-1.671173,-1834.231,751.0328)"
     x1="1668.7646"
     y1="185.30176"
     x2="1679.5989"
     y2="175.78883" /><linearGradient
     inkscape:collect="always"
     xlink:href="#path3230_2_"
     id="linearGradient1893"
     gradientUnits="userSpaceOnUse"
     gradientTransform="matrix(1.213781,0,0.282495,-1.671173,-1774.231,387.0328)"
     x1="1668.7646"
     y1="185.30176"
     x2="1679.5989"
     y2="175.78883" /><linearGradient
     inkscape:collect="always"
     xlink:href="#path3311_1_"
     id="linearGradient1896"
     gradientUnits="userSpaceOnUse"
     gradientTransform="matrix(2.050967,0,0.167197,-0.988984,-2791.942,99.82423)"
     x1="1420.5474"
     y1="-50.919434"
     x2="1420.6542"
     y2="-79.574341" /><linearGradient
     inkscape:collect="always"
     xlink:href="#XMLID_897_"
     id="linearGradient2975"
     gradientUnits="userSpaceOnUse"
     gradientTransform="matrix(-4.127761,0,0,4.136601,2003.489,504.25)"
     x1="292.97168"
     y1="4.7592773"
     x2="296.93979"
     y2="10.711433" /><linearGradient
     inkscape:collect="always"
     xlink:href="#linearGradient2229"
     id="linearGradient2977"
     gradientUnits="userSpaceOnUse"
     gradientTransform="translate(759.0237,516.155)"
     x1="20.288025"
     y1="6.4603648"
     x2="24.32597"
     y2="23.942537" /><linearGradient
     inkscape:collect="always"
     xlink:href="#XMLID_52_"
     id="linearGradient2979"
     gradientUnits="userSpaceOnUse"
     x1="294.59497"
     y1="12.187603"
     x2="297.18515"
     y2="13.3396" /><linearGradient
     inkscape:collect="always"
     xlink:href="#XMLID_52_"
     id="linearGradient2981"
     gradientUnits="userSpaceOnUse"
     gradientTransform="matrix(3.637893,0,0,3.470375,-297.0923,500.1478)"
     x1="296.48611"
     y1="15.506916"
     x2="296.52905"
     y2="9.8769522" /><linearGradient
     inkscape:collect="always"
     xlink:href="#XMLID_897_"
     id="linearGradient2983"
     gradientUnits="userSpaceOnUse"
     gradientTransform="matrix(4.053427,0,0,4.136601,-416.5113,504.25)"
     x1="292.97168"
     y1="4.7592773"
     x2="296.93979"
     y2="10.711433" /><linearGradient
     inkscape:collect="always"
     xlink:href="#linearGradient2229"
     id="linearGradient2985"
     gradientUnits="userSpaceOnUse"
     gradientTransform="translate(759.0237,516.155)"
     x1="20.288025"
     y1="6.4603648"
     x2="24.32597"
     y2="23.942537" /><linearGradient
     inkscape:collect="always"
     xlink:href="#XMLID_45_"
     id="linearGradient2987"
     gradientUnits="userSpaceOnUse"
     x1="22.225399"
     y1="23.843431"
     x2="24.190449"
     y2="22.860907" /><linearGradient
     inkscape:collect="always"
     xlink:href="#XMLID_52_"
     id="linearGradient2989"
     gradientUnits="userSpaceOnUse"
     gradientTransform="matrix(1.161878,0,0,0.992497,756.5929,516.4208)"
     x1="7.184845"
     y1="31.056622"
     x2="25.152235"
     y2="50.774887" /><linearGradient
     inkscape:collect="always"
     xlink:href="#XMLID_52_"
     id="linearGradient2991"
     gradientUnits="userSpaceOnUse"
     gradientTransform="matrix(1.161878,0,0,0.992497,756.3567,516.219)"
     x1="13.82536"
     y1="40.068752"
     x2="7.6700611"
     y2="2.3262277" /><radialGradient
     inkscape:collect="always"
     xlink:href="#XMLID_52_"
     id="radialGradient2993"
     gradientUnits="userSpaceOnUse"
     gradientTransform="matrix(1,0,0,1.060381,759.0237,513.8555)"
     cx="34.376091"
     cy="37.50008"
     fx="34.376091"
     fy="37.50008"
     r="8.3887873" /><linearGradient
     inkscape:collect="always"
     xlink:href="#linearGradient2251"
     id="linearGradient2995"
     gradientUnits="userSpaceOnUse"
     x1="298.47852"
     y1="13.599585"
     x2="298.86948"
     y2="13.802949" /><linearGradient
     inkscape:collect="always"
     xlink:href="#linearGradient2259"
     id="linearGradient2997"
     gradientUnits="userSpaceOnUse"
     x1="298.47852"
     y1="13.599585"
     x2="298.86948"
     y2="13.802949" /><linearGradient
     inkscape:collect="always"
     xlink:href="#XMLID_52_"
     id="linearGradient2999"
     gradientUnits="userSpaceOnUse"
     gradientTransform="matrix(3.624438,0,0,3.624438,-294.1553,499.3078)"
     x1="296.76199"
     y1="12.012225"
     x2="297.79822"
     y2="10.946587" /><linearGradient
     inkscape:collect="always"
     xlink:href="#radialGradient16850"
     id="linearGradient3001"
     gradientUnits="userSpaceOnUse"
     gradientTransform="matrix(1.161878,0,0,0.992497,753.9116,516.219)"
     x1="39.619942"
     y1="44.540932"
     x2="-3.532515"
     y2="-11.889042" /><radialGradient
     inkscape:collect="always"
     xlink:href="#linearGradient2269"
     id="radialGradient3003"
     gradientUnits="userSpaceOnUse"
     gradientTransform="matrix(1,0,0,0.32526,2.352345e-13,28.08607)"
     cx="25.1875"
     cy="41.625"
     fx="25.1875"
     fy="41.625"
     r="18.0625" /><linearGradient
     inkscape:collect="always"
     xlink:href="#linearGradient3078"
     id="linearGradient3084"
     x1="42.426411"
     y1="58.076275"
     x2="32.350136"
     y2="16.35697"
     gradientUnits="userSpaceOnUse" /><linearGradient
     inkscape:collect="always"
     xlink:href="#linearGradient3099"
     id="linearGradient3105"
     x1="28.835155"
     y1="11.913623"
     x2="52.131729"
     y2="70.073158"
     gradientUnits="userSpaceOnUse" /><radialGradient
     inkscape:collect="always"
     xlink:href="#linearGradient2269"
     id="radialGradient3253"
     gradientUnits="userSpaceOnUse"
     gradientTransform="matrix(1,0,0,0.32526,2.34556e-13,28.08607)"
     cx="25.1875"
     cy="41.625"
     fx="25.1875"
     fy="41.625"
     r="18.0625" /></defs><sodipodi:namedview
   inkscape:cy="-250.34036"
   inkscape:cx="161.37069"
   inkscape:zoom="1"
   inkscape:window-height="1070"
   inkscape:window-width="1181"
   inkscape:pageshadow="2"
   inkscape:pageopacity="0.0"
   borderopacity="0.21568627"
   bordercolor="#666666"
   pagecolor="#ffffff"
   id="base"
   inkscape:showpageshadow="false"
   inkscape:window-x="115"
   inkscape:window-y="25"
   inkscape:current-layer="svg2"
   fill="#2e3436"
   showgrid="true"
   stroke="#c4a000"
   showguides="true"
   inkscape:guide-bbox="true"
   gridcolor="#3f3fff"
   gridopacity="0.03921569"
   gridempcolor="#3f3fff"
   gridempopacity="0.10196078" />
	
<path
   transform="matrix(0.968858,0,0,0.465206,6.096886,24.90272)"
   d="M 43.25 41.625 A 18.0625 5.875 0 1 1  7.125,41.625 A 18.0625 5.875 0 1 1  43.25 41.625 z"
   sodipodi:ry="5.875"
   sodipodi:rx="18.0625"
   sodipodi:cy="41.625"
   sodipodi:cx="25.1875"
   id="path3251"
   style="opacity:0.26704544;color:#000000;fill:url(#radialGradient3253);fill-opacity:1;fill-rule:evenodd;stroke:none;stroke-width:1;stroke-linecap:butt;stroke-linejoin:miter;marker:none;marker-start:none;marker-mid:none;marker-end:none;stroke-miterlimit:4;stroke-dasharray:none;stroke-dashoffset:0;stroke-opacity:1;visibility:visible;display:inline;overflow:visible"
   sodipodi:type="arc"
   inkscape:r_cx="true"
   inkscape:r_cy="true" /><path
   style="fill:url(#linearGradient3084);fill-opacity:1.0;fill-rule:evenodd;stroke:#c4a000;stroke-width:1.02738464px;stroke-linecap:butt;stroke-linejoin:miter;stroke-opacity:1"
   d="M 44.46875 3.6875 L 16.4375 44.46875 L 44.46875 44.46875 L 44.46875 3.6875 z M 38.53125 23.5 L 38.53125 37.5 L 29.5 37.5 L 38.53125 23.5 z "
   id="path1465" /><path
   style="fill:none;fill-opacity:0.75;fill-rule:evenodd;stroke:url(#linearGradient3105);stroke-width:1px;stroke-linecap:butt;stroke-linejoin:miter;stroke-opacity:1;opacity:0.63874346"
   d="M 43.5,43.5 L 43.5,6.8437499 L 18.375,43.4375 L 43.5,43.5 z "
   id="path3006"
   inkscape:r_cx="true"
   inkscape:r_cy="true"
   sodipodi:nodetypes="cccc" /><g
   id="g1903"
   transform="matrix(0.827925,0,0,0.827925,-628.8636,-425.078)"
   inkscape:r_cx="true"
   inkscape:r_cy="true"><path
     id="path16717"
     d="M 793.19801,517.78 C 793.40996,517.84854 793.61527,517.92466 793.82199,517.9975 C 794.47341,520.1945 797.49348,522.41622 796.34505,524.60413 C 792.51921,530.98452 788.72072,537.44957 784.92346,543.88027 C 784.17771,544.02717 783.42543,544.10718 782.67169,544.12496 C 781.0853,544.16517 779.45676,543.93047 777.95113,543.39089 C 783.002,534.83962 788.055,526.26948 793.19801,517.78 z "
     style="fill:url(#linearGradient2975);stroke:#888a85;stroke-width:1.2078383;stroke-linecap:round;stroke-linejoin:round;stroke-miterlimit:4;stroke-dasharray:none;stroke-opacity:1"
     inkscape:r_cx="true"
     inkscape:r_cy="true" /><path
     id="path16719"
     d="M 793.31252,520.405 C 793.0814,520.71245 792.86291,521.27594 792.62649,521.56125 C 788.57964,528.31398 784.46448,535.05533 780.40268,541.78 C 780.34213,542.03312 779.58875,542.79229 780.39063,542.72296 C 781.50219,542.92084 782.66238,543.07357 783.77046,542.78 C 787.52945,536.56279 791.21634,530.29758 794.96675,524.07818 C 795.30922,523.6909 795.37586,523.15292 795.0161,522.7662 C 794.48609,521.94959 793.94916,521.09148 793.40607,520.31125 L 793.33551,520.38196 L 793.31252,520.405 z "
     style="fill:url(#linearGradient2977);fill-opacity:1;stroke:none;stroke-width:1.25;stroke-linecap:round;stroke-linejoin:round;stroke-miterlimit:4;stroke-dasharray:none;stroke-opacity:1"
     inkscape:r_cx="true"
     inkscape:r_cy="true" /><polygon
     transform="matrix(3.637893,0,0,3.470375,-297.0923,500.1478)"
     points="297.04443,12.300293 296.39941,13.384766 295.13281,14.71875 294.73242,13.672852 295.74658,11.960449 297.04443,12.300293 "
     id="polygon45129"
     style="fill:url(#linearGradient2979);fill-opacity:1;stroke:#9a0c00;stroke-width:0.33993483;stroke-linecap:round;stroke-linejoin:round;stroke-miterlimit:4;stroke-dasharray:none;stroke-opacity:1"
     inkscape:r_cx="true"
     inkscape:r_cy="true" /><path
     id="polygon16896"
     d="M 779.42995,543.12375 C 778.2076,543.61047 778.21593,545.15893 777.50497,546.08776 C 777.16265,546.80356 776.56118,547.43399 776.30495,548.18625 C 776.29527,548.70164 776.7529,549.54647 777.3362,549.0925 C 778.72118,547.94617 779.90057,546.55382 780.78042,544.96563 C 781.01279,544.4756 781.57618,544.07147 781.6487,543.56125 C 781.11013,542.99044 780.13588,543.02823 779.42995,543.12375 z "
     style="fill:url(#linearGradient2981);fill-opacity:1;stroke:none;stroke-width:1.00000012;stroke-linecap:round;stroke-linejoin:round;stroke-miterlimit:4;stroke-dasharray:none;stroke-opacity:1"
     inkscape:r_cx="true"
     inkscape:r_cy="true" /><path
     id="polygon45097"
     d="M 771.9838,517.78 C 771.77567,517.84854 771.57405,517.92466 771.37105,517.9975 C 770.73137,520.1945 767.76569,522.41622 768.89343,524.60413 C 772.65038,530.98452 776.38046,537.44957 780.10934,543.88027 C 780.84166,544.02717 781.58039,544.10718 782.32055,544.12496 C 783.87838,544.16517 785.47759,543.93047 786.95611,543.39089 C 781.99619,534.83962 777.03419,526.26948 771.9838,517.78 z "
     style="fill:url(#linearGradient2983);stroke:#888a85;stroke-width:1.2078383;stroke-linecap:round;stroke-linejoin:round;stroke-miterlimit:4;stroke-dasharray:none;stroke-opacity:1"
     inkscape:r_cx="true"
     inkscape:r_cy="true" /><path
     id="path16635"
     d="M 771.74337,520.405 C 771.36033,521.53168 770.29371,522.36096 770.02855,523.56125 C 773.73708,529.95536 777.4995,536.33038 781.20546,542.7175 C 782.40382,542.9758 783.6339,542.81066 784.81881,542.56125 C 784.63004,541.82081 784.08061,541.23032 783.78883,540.5317 C 779.89423,533.96117 775.96513,527.39787 772.11083,520.81125 C 772.09617,520.65964 771.89412,520.32712 771.74337,520.405 z "
     style="fill:url(#linearGradient2985);fill-opacity:1;stroke:none;stroke-width:1.25;stroke-linecap:round;stroke-linejoin:round;stroke-miterlimit:4;stroke-dasharray:none;stroke-opacity:1"
     inkscape:r_cx="true"
     inkscape:r_cy="true" /><path
     transform="matrix(0.979893,0,0,1,759.3351,516.329)"
     d="M 24.190449 23.843431 A 0.98252523 0.98252523 0 1 1  22.225399,23.843431 A 0.98252523 0.98252523 0 1 1  24.190449 23.843431 z"
     sodipodi:ry="0.98252523"
     sodipodi:rx="0.98252523"
     sodipodi:cy="23.843431"
     sodipodi:cx="23.207924"
     id="path16731"
     style="color:#000000;fill:url(#linearGradient2987);fill-opacity:1;fill-rule:nonzero;stroke:none;stroke-width:1.25;stroke-linecap:round;stroke-linejoin:round;marker:none;marker-start:none;marker-mid:none;marker-end:none;stroke-miterlimit:4;stroke-dasharray:none;stroke-dashoffset:0;stroke-opacity:1;visibility:visible;display:inline;overflow:visible"
     sodipodi:type="arc"
     inkscape:r_cx="true"
     inkscape:r_cy="true" /><path
     d="M 776.72409,546.44193 C 779.9591,548.16858 780.21993,553.05485 777.30204,557.35629 C 774.38418,561.66025 769.39755,563.75147 766.16108,562.03242 C 762.92458,560.30577 762.66525,555.42203 765.58314,551.1206 C 768.49951,546.81917 773.48762,544.72794 776.72409,546.44193 z M 774.86897,549.18408 C 773.43244,548.42045 770.36151,549.7246 768.40263,552.61811 C 766.43972,555.51161 766.57973,558.53162 768.0149,559.29295 C 769.45005,560.06118 772.52369,558.75243 774.48257,555.85892 C 776.44683,552.96542 776.30546,549.94771 774.86897,549.18408 z "
     style="fill:url(#linearGradient2989);fill-opacity:1;stroke:#a40000;stroke-opacity:1"
     id="path45138"
     inkscape:r_cx="true"
     inkscape:r_cy="true" /><path
     id="path16771"
     d="M 773.3492,546.73829 C 771.42407,547.12551 769.71474,548.19231 768.30229,549.21953 C 767.55053,549.91443 767.05873,550.66945 766.38664,551.47374 C 764.67832,553.8258 763.96241,556.91717 765.31381,559.54341 C 765.93326,560.99651 767.95644,561.59085 769.68202,561.22254 C 771.13394,560.97408 772.36334,560.06147 773.49443,559.42364 C 774.41534,558.63286 775.04845,557.79713 775.82733,556.83236 C 777.63669,554.35796 778.61924,551.08369 777.1253,548.32008 C 776.4016,547.17795 774.89066,546.57329 773.3492,546.73829 z M 773.82121,547.69977 C 775.83772,547.95012 777.17819,549.73258 776.94376,551.42163 C 776.96453,553.70857 775.79774,555.86573 774.22061,557.65576 C 772.8034,559.05774 770.87199,560.38403 768.55645,560.29208 C 767.1976,560.28921 766.12388,559.37978 765.74063,558.33162 C 765.12399,555.79969 765.93535,553.06639 767.70683,550.99362 C 769.06507,549.47031 770.90168,548.10652 773.17434,547.75193 C 773.39003,547.73665 773.60522,547.70943 773.82121,547.69977 z "
     style="fill:url(#linearGradient2991);fill-opacity:1;stroke:none;stroke-opacity:1"
     inkscape:r_cx="true"
     inkscape:r_cy="true" /><path
     id="path11967"
     style="fill:url(#radialGradient2993);fill-opacity:1;stroke:#a40000;stroke-opacity:1"
     d="M 789.35546,546.44193 C 786.12045,548.16858 785.85963,553.05485 788.77752,557.35629 C 791.69538,561.66025 796.68201,563.75147 799.91848,562.03242 C 803.15498,560.30577 803.41431,555.42203 800.49642,551.1206 C 797.58005,546.81917 792.59193,544.72794 789.35546,546.44193 z M 791.21059,549.18408 C 792.64711,548.42045 795.71805,549.7246 797.67693,552.61811 C 799.63984,555.51161 799.49983,558.53162 798.06466,559.29295 C 796.62951,560.06118 793.55587,558.75243 791.59699,555.85892 C 789.63273,552.96542 789.77409,549.94771 791.21059,549.18408 z "
     inkscape:r_cx="true"
     inkscape:r_cy="true" /><polygon
     transform="matrix(3.624438,0,0,3.624438,-294.1553,499.3078)"
     points="296.95605,12.300293 297.6001,13.384766 298.86719,14.71875 299.26807,13.672852 298.25391,11.960449 296.95605,12.300293 "
     id="polygon45101"
     style="fill:url(#linearGradient2995);fill-opacity:1;stroke:url(#linearGradient2997);stroke-width:0.3332485;stroke-linecap:round;stroke-linejoin:round;stroke-miterlimit:4;stroke-dasharray:none;stroke-opacity:1"
     inkscape:r_cx="true"
     inkscape:r_cy="true" /><path
     id="polygon16860"
     d="M 785.17995,544.0925 C 784.7532,544.29132 784.16314,544.29398 783.8362,544.5925 C 784.78622,545.99389 785.72611,547.50716 786.68708,548.80508 C 787.35563,549.55962 788.04289,550.3053 788.80495,550.9675 C 789.54023,549.57608 788.94011,547.90629 787.99245,546.78 C 787.38991,545.88031 787.16263,544.66704 786.1487,544.18625 C 785.84465,544.06784 785.49808,544.00837 785.17995,544.0925 z "
     style="fill:url(#linearGradient2999);fill-opacity:1;stroke:none;stroke-width:0.27590489;stroke-linecap:round;stroke-linejoin:round;stroke-miterlimit:4;stroke-dasharray:none;stroke-opacity:1"
     inkscape:r_cx="true"
     inkscape:r_cy="true" /><path
     id="path16795"
     d="M 791.30379,546.60409 C 789.7834,546.83384 788.40884,547.68975 788.06334,548.99206 C 786.93219,551.38751 787.84846,554.10557 789.34312,556.21891 C 790.44504,557.56411 791.28319,559.14882 792.9827,559.99288 C 794.45335,560.9165 796.32384,561.88345 798.20034,561.29377 C 799.71366,560.86032 800.57101,559.6132 800.88051,558.32191 C 801.48494,556.01188 800.58482,553.64595 799.17355,551.68543 C 798.51487,550.77172 797.84056,549.80222 797.06023,548.99078 C 795.86567,548.08733 794.42231,547.33925 792.97139,546.75843 C 792.43729,546.64802 791.85616,546.52569 791.30379,546.60409 z M 791.73949,547.8137 C 793.4968,547.74692 794.974,548.55316 796.11586,549.58266 C 797.14816,550.55179 798.13752,551.38787 798.77837,552.58154 C 799.85556,554.40211 800.16623,556.5615 799.61848,558.54507 C 799.0901,559.86958 797.39232,560.51711 795.82736,560.16152 C 793.84548,559.93269 792.61002,558.4905 791.30079,557.35316 C 789.79504,555.92177 788.86017,553.87453 788.79021,551.87078 C 788.80432,550.85311 788.76374,549.69236 789.48835,548.83721 C 789.90063,548.29406 790.86836,547.78289 791.73949,547.8137 z "
     style="fill:url(#linearGradient3001);fill-opacity:1;stroke:none;stroke-opacity:1"
     inkscape:r_cx="true"
     inkscape:r_cy="true" /><path
     transform="matrix(1.256055,0,0,0.819149,751.8243,525.2454)"
     d="M 43.25 41.625 A 18.0625 5.875 0 1 1  7.125,41.625 A 18.0625 5.875 0 1 1  43.25 41.625 z"
     sodipodi:ry="5.875"
     sodipodi:rx="18.0625"
     sodipodi:cy="41.625"
     sodipodi:cx="25.1875"
     id="path2267"
     style="opacity:0.26704544;color:#000000;fill:url(#radialGradient3003);fill-opacity:1;fill-rule:evenodd;stroke:none;stroke-width:1;stroke-linecap:butt;stroke-linejoin:miter;marker:none;marker-start:none;marker-mid:none;marker-end:none;stroke-miterlimit:4;stroke-dasharray:none;stroke-dashoffset:0;stroke-opacity:1;visibility:visible;display:inline;overflow:visible"
     sodipodi:type="arc"
     inkscape:r_cx="true"
     inkscape:r_cy="true" /></g><path
   inkscape:r_cy="true"
   inkscape:r_cx="true"
   id="path3022"
   d="M 43.506026,40.61612 L 42.747596,40.61612"
   style="opacity:1;fill:#2e3436;fill-opacity:0.75;fill-rule:evenodd;stroke:#c4a000;stroke-width:0.99999964px;stroke-linecap:square;stroke-linejoin:miter;stroke-opacity:1" /><path
   inkscape:r_cy="true"
   inkscape:r_cx="true"
   id="path3046"
   d="M 43.506026,36.61612 L 42.747596,36.61612"
   style="opacity:1;fill:#2e3436;fill-opacity:0.75;fill-rule:evenodd;stroke:#c4a000;stroke-width:0.99999964px;stroke-linecap:square;stroke-linejoin:miter;stroke-opacity:1" /><path
   inkscape:r_cy="true"
   inkscape:r_cx="true"
   id="path3050"
   d="M 43.506026,32.61612 L 42.747596,32.61612"
   style="opacity:1;fill:#2e3436;fill-opacity:0.75;fill-rule:evenodd;stroke:#c4a000;stroke-width:0.99999964px;stroke-linecap:square;stroke-linejoin:miter;stroke-opacity:1" /><path
   inkscape:r_cy="true"
   inkscape:r_cx="true"
   id="path3054"
   d="M 43.506026,28.61612 L 42.747596,28.61612"
   style="opacity:1;fill:#2e3436;fill-opacity:0.75;fill-rule:evenodd;stroke:#c4a000;stroke-width:0.99999964px;stroke-linecap:square;stroke-linejoin:miter;stroke-opacity:1" /><path
   inkscape:r_cy="true"
   inkscape:r_cx="true"
   id="path3058"
   d="M 43.506026,24.61612 L 42.747596,24.61612"
   style="opacity:1;fill:#2e3436;fill-opacity:0.75;fill-rule:evenodd;stroke:#c4a000;stroke-width:0.99999964px;stroke-linecap:square;stroke-linejoin:miter;stroke-opacity:1" /><path
   inkscape:r_cy="true"
   inkscape:r_cx="true"
   id="path3062"
   d="M 43.506026,20.61612 L 42.747596,20.61612"
   style="opacity:1;fill:#2e3436;fill-opacity:0.75;fill-rule:evenodd;stroke:#c4a000;stroke-width:0.99999964px;stroke-linecap:square;stroke-linejoin:miter;stroke-opacity:1" /><path
   inkscape:r_cy="true"
   inkscape:r_cx="true"
   id="path3066"
   d="M 43.506026,16.61612 L 42.747596,16.61612"
   style="opacity:1;fill:#2e3436;fill-opacity:0.75;fill-rule:evenodd;stroke:#c4a000;stroke-width:0.99999964px;stroke-linecap:square;stroke-linejoin:miter;stroke-opacity:1" /><path
   inkscape:r_cy="true"
   inkscape:r_cx="true"
   id="path3070"
   d="M 43.506026,12.61612 L 42.747596,12.61612"
   style="opacity:1;fill:#2e3436;fill-opacity:0.75;fill-rule:evenodd;stroke:#c4a000;stroke-width:0.99999964px;stroke-linecap:square;stroke-linejoin:miter;stroke-opacity:1" /></svg>