<?xml version="1.0" encoding="UTF-8" standalone="no"?>
<!-- Created with Inkscape (http://www.inkscape.org/) -->

<svg
   width="64px"
   height="64px"
   id="svg4069"
   version="1.1"
   xmlns:xlink="http://www.w3.org/1999/xlink"
   xmlns="http://www.w3.org/2000/svg"
   xmlns:svg="http://www.w3.org/2000/svg"
   xmlns:rdf="http://www.w3.org/1999/02/22-rdf-syntax-ns#"
   xmlns:cc="http://creativecommons.org/ns#"
   xmlns:dc="http://purl.org/dc/elements/1.1/">
  <defs
     id="defs4071">
    <linearGradient
       id="linearGradient3773">
      <stop
         style="stop-color:#729fcf;stop-opacity:1"
         offset="0"
         id="stop3775" />
      <stop
         style="stop-color:#204a87;stop-opacity:1"
         offset="1"
         id="stop3777" />
    </linearGradient>
    <radialGradient
       xlink:href="#linearGradient3773"
       id="radialGradient3781"
       cx="289.44443"
       cy="468.01019"
       fx="289.44443"
       fy="468.01019"
       r="70.982175"
       gradientTransform="matrix(1.1588002,1.0842138,-1.4117079,1.2249776,614.72984,-415.72507)"
       gradientUnits="userSpaceOnUse" />
  </defs>
  <metadata
     id="metadata4074">
    <rdf:RDF>
      <cc:Work
         rdf:about="">
        <dc:format>image/svg+xml</dc:format>
        <dc:type
           rdf:resource="http://purl.org/dc/dcmitype/StillImage" />
      </cc:Work>
    </rdf:RDF>
  </metadata>
  <g
     id="layer1">
    <path
       style="fill:#729fcf;fill-opacity:1;stroke:#0b1521;stroke-width:4.48897981999999995;stroke-linejoin:round;stroke-miterlimit:4.19999980999999956;stroke-opacity:1;stroke-dasharray:none"
       id="path2985"
       d="m 393.57143,503.43362 a 68.571426,61.785713 0 1 1 -137.14286,0 68.571426,61.785713 0 1 1 137.14286,0 z"
       transform="matrix(0.42291666,0,0,0.46936416,-105.44791,-204.2937)" />
    <path
       style="fill:url(#radialGradient3781);fill-opacity:1;stroke:#729fcf;stroke-width:4.82149696000000016;stroke-linejoin:round;stroke-miterlimit:4.19999980999999956;stroke-opacity:1;stroke-dasharray:none"
       id="path2985-3"
       d="m 393.57143,503.43362 a 68.571426,61.785713 0 1 1 -137.14286,0 68.571426,61.785713 0 1 1 137.14286,0 z"
       transform="matrix(0.39374997,0,0,0.43699422,-95.968737,-187.99758)" />
    <g
       style="font-style:normal;font-variant:normal;font-weight:normal;font-stretch:normal;font-size:35.8209px;line-height:125%;font-family:FreeSerif;-inkscape-font-specification:FreeSerif;text-align:center;letter-spacing:0px;word-spacing:0px;writing-mode:lr-tb;text-anchor:middle;fill:#eeeeec;fill-opacity:1;stroke:#eeeeec;stroke-width:1.0706;stroke-linecap:round;stroke-linejoin:round;stroke-dasharray:none;stroke-opacity:1;paint-order:markers stroke fill"
       id="text3755"
       transform="matrix(0.93478261,0,0,0.93333333,2.0869597,1.2242464)">
      <path
         id="path3802"
         style="font-style:italic;font-family:FreeSerif;-inkscape-font-specification:'FreeSerif Italic';fill:#eeeeec;stroke:#204a87;stroke-width:2.1412;stroke-linecap:round;stroke-linejoin:round;stroke-dasharray:none;paint-order:markers stroke fill"
         d="m 24.28806,16.999996 c -0.735562,2.3e-5 -1.417142,0.191316 -2.047602,0.575474 -0.630482,0.361605 -1.157184,0.802793 -1.577489,1.322545 -0.420323,0.519794 -0.82927,1.208785 -1.228561,2.067522 -0.378291,0.858773 -0.671573,1.593391 -0.881722,2.203544 -0.189149,0.610183 -0.42048,1.379545 -0.693678,2.306082 h -2.900072 l -0.221476,1.083985 h 2.837391 l -2.774709,14.238281 c -0.693521,3.661007 -1.711772,5.491065 -3.056777,5.491071 -0.420316,-6e-6 -0.630995,-0.180415 -0.630996,-0.541992 1e-6,-0.0904 0.05163,-0.227279 0.156705,-0.408064 0.08405,-0.158197 0.127453,-0.327724 0.127452,-0.50851 0,-0.361584 -0.115665,-0.665899 -0.346838,-0.914481 -0.252187,-0.248589 -0.54756,-0.372491 -0.883812,-0.372488 -0.3362507,-3e-6 -0.608882,0.13478 -0.8190408,0.405971 -0.2311717,0.271181 -0.3468366,0.599351 -0.3468386,0.983537 2e-6,0.564967 0.2416566,1.049686 0.7250182,1.456474 0.4833622,0.406772 1.0720162,0.611041 1.7655342,0.611049 1.408054,-8e-6 2.647308,-0.825877 3.719113,-2.475586 1.071799,-1.627121 1.933082,-3.998406 2.584575,-7.117048 l 2.271167,-10.848214 h 3.434956 l 0.190134,-1.083985 h -3.405705 c 0.462338,-2.666647 0.999364,-4.622697 1.60883,-5.865653 0.609446,-1.242916 1.355064,-1.864517 2.237737,-1.864537 0.462333,2e-5 0.693663,0.136899 0.693677,0.408064 -1.4e-5,0.04522 -0.05373,0.180005 -0.158794,0.405971 -0.105089,0.226011 -0.156716,0.44116 -0.156704,0.644531 -1.2e-5,0.4068 0.105327,0.73497 0.315498,0.983538 0.210143,0.248608 0.4931,0.372508 0.850381,0.372489 0.357253,1.9e-5 0.662948,-0.136858 0.915153,-0.408064 0.27319,-0.271166 0.409505,-0.586362 0.40952,-0.947963 -1.5e-5,-0.632747 -0.262321,-1.152211 -0.787699,-1.559012 -0.504393,-0.429355 -1.14676,-0.644508 -1.924328,-0.644531 z m 10.235919,0 c -0.122111,0.09414 -0.318509,0.258591 -0.587118,0.493861 -1.07449,0.917667 -2.001636,1.776054 -2.783067,2.576033 -0.757028,0.776489 -1.673074,1.883644 -2.747547,3.318917 -1.074483,1.411779 -1.917664,3.046327 -2.528162,4.905134 -0.586081,1.858833 -0.877545,3.84637 -0.877543,5.964007 -2e-6,2.494119 0.280362,4.672289 0.842024,6.53111 0.561657,1.858819 1.488804,3.928583 2.783066,6.210938 L 29.28588,46.78864 c -0.659346,-1.788237 -1.122918,-3.34056 -1.391534,-4.658203 -0.244205,-1.317645 -0.367736,-2.823879 -0.367732,-4.517997 -4e-6,-4.564694 0.916042,-8.977078 2.747547,-13.23591 0.586073,-1.388217 1.221756,-2.56555 1.905523,-3.530273 0.683751,-0.988213 1.624085,-2.093275 2.820676,-3.316825 z m 16.848837,0 -0.695766,0.175781 c 1.196572,2.756201 1.794777,5.84205 1.794785,9.257812 -8e-6,2.261495 -0.29147,4.689001 -0.877543,7.280274 -0.561667,2.591284 -1.294504,4.828604 -2.198038,6.71317 -0.927963,2.002352 -2.39364,4.017611 -4.396076,6.043526 l 0.476381,0.529437 c 3.174596,-2.661957 5.554227,-5.311522 7.141533,-7.949917 1.587291,-2.661949 2.381895,-5.713836 2.381905,-9.15318 -1e-5,-2.520598 -0.304664,-4.769933 -0.915153,-6.748745 -0.586089,-1.978779 -1.491036,-4.027996 -2.712028,-6.148158 z m -12.055777,8.000139 c -0.734183,1.6e-5 -2.216292,0.341044 -4.444132,1.025391 l -0.417878,0.142299 0.152526,0.531529 c 1.164552,-0.259574 1.873828,-0.389217 2.126998,-0.38923 0.481007,1.3e-5 0.823354,0.141633 1.02589,0.424805 0.202526,0.283198 0.43006,0.955368 0.683231,2.017299 l 1.101108,4.354771 -3.11528,4.141323 c -0.860762,1.132743 -1.506486,1.69922 -1.936864,1.699218 -0.202533,2e-6 -0.542789,-0.107781 -1.023801,-0.320173 -0.481011,-0.235984 -0.874618,-0.353652 -1.178415,-0.353655 -0.35443,3e-6 -0.65781,0.117671 -0.910974,0.353655 -0.253165,0.23599 -0.380268,0.531203 -0.380269,0.885185 10e-7,0.448378 0.178366,0.815449 0.532794,1.098632 0.329115,0.259586 0.784184,0.389229 1.366461,0.38923 0.734175,-10e-7 1.507004,-0.379044 2.317133,-1.134207 0.835438,-0.75516 2.379011,-2.58214 4.632177,-5.484794 l 1.138717,4.245954 c 0.253156,0.920354 0.53195,1.54671 0.835756,1.877093 0.303787,0.330381 0.760944,0.495953 1.36855,0.495954 0.734164,-10e-7 1.416769,-0.271261 2.049691,-0.814034 0.632897,-0.566369 1.493866,-1.641535 2.582485,-3.222657 l -0.532794,-0.282505 c -0.303813,0.330385 -0.60719,0.661529 -0.910974,0.991908 -0.278493,0.330388 -0.481443,0.565721 -0.608012,0.707311 -0.126594,0.141593 -0.251611,0.271237 -0.37818,0.38923 -0.126594,0.117996 -0.241411,0.201823 -0.342659,0.249023 -0.101279,0.02359 -0.214003,0.03348 -0.340571,0.03348 -0.531658,1e-6 -0.925262,-0.482643 -1.178416,-1.450195 -1.012666,-3.681403 -1.518996,-5.793715 -1.518986,-6.336496 1.74682,-2.855441 2.987014,-4.283609 3.721203,-4.283621 0.227835,1.2e-5 0.545594,0.105704 0.950672,0.31808 0.405048,0.188805 0.733012,0.284612 0.986192,0.284598 0.405047,1.4e-5 0.722808,-0.117653 0.950672,-0.353655 0.253147,-0.235975 0.378163,-0.543166 0.37818,-0.920759 -1.7e-5,-0.377566 -0.151707,-0.684755 -0.455487,-0.920759 -0.278497,-0.259571 -0.645429,-0.389214 -1.101108,-0.38923 -0.835458,1.6e-5 -1.669749,0.37697 -2.505178,1.132115 -0.835455,0.731576 -1.911664,2.042078 -3.228107,3.929967 l -0.417878,-1.94615 c -0.278489,-1.203524 -0.557283,-2.019403 -0.835756,-2.444196 -0.253173,-0.448362 -0.632396,-0.67172 -1.138717,-0.671736 z" />
      <path
         id="path4"
         style="font-style:italic;font-family:FreeSerif;-inkscape-font-specification:'FreeSerif Italic';fill:#eeeeec;stroke:#eeeeec;stroke-width:1.0706;stroke-linecap:round;stroke-linejoin:round;stroke-dasharray:none;paint-order:markers stroke fill"
         d="m 24.28806,16.999996 c -0.735562,2.3e-5 -1.417142,0.191316 -2.047602,0.575474 -0.630482,0.361605 -1.157184,0.802793 -1.577489,1.322545 -0.420323,0.519794 -0.82927,1.208785 -1.228561,2.067522 -0.378291,0.858773 -0.671573,1.593391 -0.881722,2.203544 -0.189149,0.610183 -0.42048,1.379545 -0.693678,2.306082 h -2.900072 l -0.221476,1.083985 h 2.837391 l -2.774709,14.238281 c -0.693521,3.661007 -1.711772,5.491065 -3.056777,5.491071 -0.420316,-6e-6 -0.630995,-0.180415 -0.630996,-0.541992 1e-6,-0.0904 0.05163,-0.227279 0.156705,-0.408064 0.08405,-0.158197 0.127453,-0.327724 0.127452,-0.50851 0,-0.361584 -0.115665,-0.665899 -0.346838,-0.914481 -0.252187,-0.248589 -0.54756,-0.372491 -0.883812,-0.372488 -0.3362507,-3e-6 -0.608882,0.13478 -0.8190408,0.405971 -0.2311717,0.271181 -0.3468366,0.599351 -0.3468386,0.983537 2e-6,0.564967 0.2416566,1.049686 0.7250182,1.456474 0.4833622,0.406772 1.0720162,0.611041 1.7655342,0.611049 1.408054,-8e-6 2.647308,-0.825877 3.719113,-2.475586 1.071799,-1.627121 1.933082,-3.998406 2.584575,-7.117048 l 2.271167,-10.848214 h 3.434956 l 0.190134,-1.083985 h -3.405705 c 0.462338,-2.666647 0.999364,-4.622697 1.60883,-5.865653 0.609446,-1.242916 1.355064,-1.864517 2.237737,-1.864537 0.462333,2e-5 0.693663,0.136899 0.693677,0.408064 -1.4e-5,0.04522 -0.05373,0.180005 -0.158794,0.405971 -0.105089,0.226011 -0.156716,0.44116 -0.156704,0.644531 -1.2e-5,0.4068 0.105327,0.73497 0.315498,0.983538 0.210143,0.248608 0.4931,0.372508 0.850381,0.372489 0.357253,1.9e-5 0.662948,-0.136858 0.915153,-0.408064 0.27319,-0.271166 0.409505,-0.586362 0.40952,-0.947963 -1.5e-5,-0.632747 -0.262321,-1.152211 -0.787699,-1.559012 -0.504393,-0.429355 -1.14676,-0.644508 -1.924328,-0.644531 z m 10.235919,0 c -0.122111,0.09414 -0.318509,0.258591 -0.587118,0.493861 -1.07449,0.917667 -2.001636,1.776054 -2.783067,2.576033 -0.757028,0.776489 -1.673074,1.883644 -2.747547,3.318917 -1.074483,1.411779 -1.917664,3.046327 -2.528162,4.905134 -0.586081,1.858833 -0.877545,3.84637 -0.877543,5.964007 -2e-6,2.494119 0.280362,4.672289 0.842024,6.53111 0.561657,1.858819 1.488804,3.928583 2.783066,6.210938 L 29.28588,46.78864 c -0.659346,-1.788237 -1.122918,-3.34056 -1.391534,-4.658203 -0.244205,-1.317645 -0.367736,-2.823879 -0.367732,-4.517997 -4e-6,-4.564694 0.916042,-8.977078 2.747547,-13.23591 0.586073,-1.388217 1.221756,-2.56555 1.905523,-3.530273 0.683751,-0.988213 1.624085,-2.093275 2.820676,-3.316825 z m 16.848837,0 -0.695766,0.175781 c 1.196572,2.756201 1.794777,5.84205 1.794785,9.257812 -8e-6,2.261495 -0.29147,4.689001 -0.877543,7.280274 -0.561667,2.591284 -1.294504,4.828604 -2.198038,6.71317 -0.927963,2.002352 -2.39364,4.017611 -4.396076,6.043526 l 0.476381,0.529437 c 3.174596,-2.661957 5.554227,-5.311522 7.141533,-7.949917 1.587291,-2.661949 2.381895,-5.713836 2.381905,-9.15318 -1e-5,-2.520598 -0.304664,-4.769933 -0.915153,-6.748745 -0.586089,-1.978779 -1.491036,-4.027996 -2.712028,-6.148158 z m -12.055777,8.000139 c -0.734183,1.6e-5 -2.216292,0.341044 -4.444132,1.025391 l -0.417878,0.142299 0.152526,0.531529 c 1.164552,-0.259574 1.873828,-0.389217 2.126998,-0.38923 0.481007,1.3e-5 0.823354,0.141633 1.02589,0.424805 0.202526,0.283198 0.43006,0.955368 0.683231,2.017299 l 1.101108,4.354771 -3.11528,4.141323 c -0.860762,1.132743 -1.506486,1.69922 -1.936864,1.699218 -0.202533,2e-6 -0.542789,-0.107781 -1.023801,-0.320173 -0.481011,-0.235984 -0.874618,-0.353652 -1.178415,-0.353655 -0.35443,3e-6 -0.65781,0.117671 -0.910974,0.353655 -0.253165,0.23599 -0.380268,0.531203 -0.380269,0.885185 10e-7,0.448378 0.178366,0.815449 0.532794,1.098632 0.329115,0.259586 0.784184,0.389229 1.366461,0.38923 0.734175,-10e-7 1.507004,-0.379044 2.317133,-1.134207 0.835438,-0.75516 2.379011,-2.58214 4.632177,-5.484794 l 1.138717,4.245954 c 0.253156,0.920354 0.53195,1.54671 0.835756,1.877093 0.303787,0.330381 0.760944,0.495953 1.36855,0.495954 0.734164,-10e-7 1.416769,-0.271261 2.049691,-0.814034 0.632897,-0.566369 1.493866,-1.641535 2.582485,-3.222657 l -0.532794,-0.282505 c -0.303813,0.330385 -0.60719,0.661529 -0.910974,0.991908 -0.278493,0.330388 -0.481443,0.565721 -0.608012,0.707311 -0.126594,0.141593 -0.251611,0.271237 -0.37818,0.38923 -0.126594,0.117996 -0.241411,0.201823 -0.342659,0.249023 -0.101279,0.02359 -0.214003,0.03348 -0.340571,0.03348 -0.531658,1e-6 -0.925262,-0.482643 -1.178416,-1.450195 -1.012666,-3.681403 -1.518996,-5.793715 -1.518986,-6.336496 1.74682,-2.855441 2.987014,-4.283609 3.721203,-4.283621 0.227835,1.2e-5 0.545594,0.105704 0.950672,0.31808 0.405048,0.188805 0.733012,0.284612 0.986192,0.284598 0.405047,1.4e-5 0.722808,-0.117653 0.950672,-0.353655 0.253147,-0.235975 0.378163,-0.543166 0.37818,-0.920759 -1.7e-5,-0.377566 -0.151707,-0.684755 -0.455487,-0.920759 -0.278497,-0.259571 -0.645429,-0.389214 -1.101108,-0.38923 -0.835458,1.6e-5 -1.669749,0.37697 -2.505178,1.132115 -0.835455,0.731576 -1.911664,2.042078 -3.228107,3.929967 l -0.417878,-1.94615 c -0.278489,-1.203524 -0.557283,-2.019403 -0.835756,-2.444196 -0.253173,-0.448362 -0.632396,-0.67172 -1.138717,-0.671736 z" />
    </g>
  </g>
</svg>
