<?xml version="1.0" encoding="UTF-8" standalone="no"?>
<!-- Created with Inkscape (http://www.inkscape.org/) -->

<svg
   width="64"
   height="64"
   viewBox="0 0 64 64.000001"
   version="1.1"
   id="svg5"
   xml:space="preserve"
   inkscape:version="1.2.2 (b0a8486541, 2022-12-01)"
   sodipodi:docname="bound-expression-unset.svg"
   inkscape:export-filename="hole_counterbore.png"
   inkscape:export-xdpi="96"
   inkscape:export-ydpi="96"
   xmlns:inkscape="http://www.inkscape.org/namespaces/inkscape"
   xmlns:sodipodi="http://sodipodi.sourceforge.net/DTD/sodipodi-0.dtd"
   xmlns="http://www.w3.org/2000/svg"
   xmlns:svg="http://www.w3.org/2000/svg"
   xmlns:rdf="http://www.w3.org/1999/02/22-rdf-syntax-ns#"
   xmlns:cc="http://creativecommons.org/ns#"
   xmlns:dc="http://purl.org/dc/elements/1.1/"><sodipodi:namedview
     id="namedview7"
     pagecolor="#2d2d2d"
     bordercolor="#000000"
     borderopacity="0.25"
     inkscape:showpageshadow="2"
     inkscape:pageopacity="1"
     inkscape:pagecheckerboard="0"
     inkscape:deskcolor="#d1d1d1"
     inkscape:document-units="px"
     showgrid="false"
     inkscape:zoom="4"
     inkscape:cx="-3.25"
     inkscape:cy="42.625"
     inkscape:window-width="1600"
     inkscape:window-height="824"
     inkscape:window-x="0"
     inkscape:window-y="0"
     inkscape:window-maximized="1"
     inkscape:current-layer="g1241"
     showguides="true" /><defs
     id="defs2" /><g
     inkscape:label="Capa 1"
     inkscape:groupmode="layer"
     id="layer1"
     transform="translate(-151.0101,-239.86056)"><g
       id="g1241"
       transform="translate(-0.18870399,0.37210001)"><rect
         style="font-variation-settings:normal;fill:#eeeeec;fill-opacity:1;stroke:#204a87;stroke-width:4;stroke-linecap:butt;stroke-linejoin:round;stroke-miterlimit:4.2;stroke-dasharray:none;stroke-dashoffset:0;stroke-opacity:1;stop-color:#000000"
         id="rect583-3"
         width="60"
         height="60"
         x="153.19881"
         y="241.48846"
         rx="10"
         ry="10" /><g
         id="g629"
         transform="matrix(0.72505882,0,0,0.72533645,158.284,248.27769)"
         style="fill:#204a87;fill-opacity:1;stroke:#204a87;stroke-width:1.37894;stroke-opacity:1"><path
           id="path340"
           d="M 47.483371,25.344656 33.785316,25.804688 H 16.0568 l -0.447265,2.048828 H 33.40055 l 9.73126,-0.139719 c 0.807616,-0.07023 1.387184,0.255579 1.728516,0.767578 0.34133,0.511999 0.723723,1.728444 1.15039,3.648438 l 1.857423,7.871095 -5.248047,7.488284 c -1.450663,2.04799 -2.53834,3.072265 -3.263671,3.072265 -0.341333,0 -0.917852,-0.192189 -1.728516,-0.576174 -0.810664,-0.426679 -1.472376,-0.640623 -1.984375,-0.640623 -0.597331,0 -1.108491,0.213959 -1.535156,0.640623 -0.426667,0.426667 -0.640625,0.959614 -0.640625,1.599609 0,0.810667 0.299153,1.472379 0.896484,1.984377 0.554665,0.469327 1.321404,0.703124 2.302734,0.703124 1.23733,0 2.538968,-0.681547 3.904297,-2.046875 1.407998,-1.365331 4.011271,-4.671938 7.808593,-9.919922 l 1.919921,7.679687 c 0.426667,1.663997 0.896209,2.795248 1.408206,3.392579 0.511998,0.597339 1.278735,0.894531 2.302734,0.894531 1.237327,0 2.39037,-0.489377 3.457032,-1.470701 1.066662,-1.023999 2.516901,-2.965561 4.351559,-5.824222 l -0.896481,-0.511717 -1.535157,1.791016 c -0.469323,0.597331 -0.810085,1.023311 -1.02344,1.279298 -0.213316,0.255987 -0.427268,0.491724 -0.640622,0.705078 -0.213354,0.213317 -0.405528,0.361928 -0.576174,0.447266 -0.170646,0.04282 -0.362835,0.06444 -0.57617,0.06444 -0.895998,0 -1.55771,-0.873721 -1.984377,-2.623049 -1.706661,-6.655981 -2.558593,-10.475701 -2.558593,-11.457031 2.943988,-5.162652 5.034154,-7.744141 6.271484,-7.744141 0.384,0 0.916944,0.192173 1.599609,0.576172 0.682663,0.341333 1.237395,0.511719 1.664062,0.511719 0.682666,0 1.21561,-0.212006 1.59961,-0.638673 0.426682,-0.426655 0.640626,-0.981387 0.640626,-1.664052 0,-0.682665 -0.255572,-1.237397 -0.767577,-1.664062 -0.46933,-0.469331 -1.089426,-0.705078 -1.857422,-0.705078 -1.407999,0 -2.81466,0.683499 -4.222659,2.048828 -1.407995,1.322662 -3.220792,3.690192 -5.43945,7.103515 l -0.705079,-3.519531 c -0.46933,-2.175993 -0.938868,-3.648018 -1.408203,-4.416015 -0.426667,-0.810665 -1.066594,-1.216797 -1.919925,-1.216797 z"
           sodipodi:nodetypes="ccccccscccscssscscccsscccccccsccscscscsccccc"
           style="font-style:italic;font-size:16.9333px;font-family:FreeSerif;-inkscape-font-specification:'FreeSerif Italic';font-variation-settings:normal;opacity:1;vector-effect:none;fill:#204a87;fill-opacity:1;stroke:#204a87;stroke-width:2.75787;stroke-linecap:round;stroke-linejoin:round;stroke-miterlimit:4;stroke-dasharray:none;stroke-dashoffset:0;stroke-opacity:1;-inkscape-stroke:none;paint-order:markers stroke fill;stop-color:#000000;stop-opacity:1" /><path
           id="text396"
           style="font-style:italic;font-variant:normal;font-weight:normal;font-stretch:normal;font-size:13.9275px;font-family:FreeSerif;-inkscape-font-specification:'FreeSerif Italic';font-variation-settings:normal;opacity:1;vector-effect:none;fill:#204a87;fill-opacity:1;stroke:#204a87;stroke-width:0.729686;stroke-linecap:round;stroke-linejoin:round;stroke-miterlimit:4;stroke-dasharray:none;stroke-dashoffset:0;stroke-opacity:1;-inkscape-stroke:none;paint-order:markers stroke fill;stop-color:#000000;stop-opacity:1"
           sodipodi:type="inkscape:offset"
           inkscape:radius="0"
           inkscape:original="M 10.169922 0.7734375 C 9.4271219 0.7734375 8.7363681 1.09371 8.0957031 1.734375 C 7.4550381 2.365755 7.0172812 3.1086706 6.7851562 3.9628906 L 4.265625 12.904297 C 3.727095 14.826292 3.0105006 15.787109 2.1191406 15.787109 C 1.7477406 15.787109 1.4752431 15.691079 1.2988281 15.496094 C 1.5030981 15.477524 1.6688381 15.388314 1.7988281 15.230469 C 1.9381031 15.072624 2.0078125 14.909317 2.0078125 14.742188 C 2.0078125 14.612198 1.9619906 14.51178 1.8691406 14.4375 C 1.7855756 14.372505 1.683205 14.339844 1.5625 14.339844 C 1.348945 14.339844 1.1680912 14.418327 1.0195312 14.576172 C 0.86168625 14.734017 0.78320313 14.938758 0.78320312 15.189453 C 0.78320313 15.468003 0.90750813 15.685905 1.1582031 15.84375 C 1.3996131 16.01088 1.6935644 16.09375 2.0371094 16.09375 C 2.7799094 16.09375 3.4662763 15.773477 4.0976562 15.132812 C 4.7383212 14.501433 5.180465 13.758517 5.421875 12.904297 L 7.9414062 3.9628906 C 8.4706512 2.0408957 9.1852925 1.0800781 10.085938 1.0800781 C 10.457337 1.0800781 10.731788 1.1780619 10.908203 1.3730469 C 10.694648 1.3916169 10.522568 1.4788738 10.392578 1.6367188 C 10.262588 1.7945637 10.197266 1.9622569 10.197266 2.1386719 C 10.197266 2.3986519 10.347411 2.5292969 10.644531 2.5292969 C 10.867371 2.5292969 11.052612 2.4488606 11.201172 2.2910156 C 11.349732 2.1331706 11.423828 1.9303825 11.423828 1.6796875 C 11.423828 1.4011375 11.29757 1.1832356 11.046875 1.0253906 C 10.805465 0.85826063 10.513467 0.7734375 10.169922 0.7734375 z "
           d="m 10.169922,0.7734375 c -0.7428001,0 -1.4335539,0.3202725 -2.0742189,0.9609375 -0.640665,0.63138 -1.0784219,1.3742956 -1.3105469,2.2285156 L 4.265625,12.904297 c -0.53853,1.921995 -1.2551244,2.882812 -2.1464844,2.882812 -0.3714,0 -0.6438975,-0.09603 -0.8203125,-0.291015 0.20427,-0.01857 0.37001,-0.10778 0.5,-0.265625 0.139275,-0.157845 0.2089844,-0.321152 0.2089844,-0.488281 0,-0.12999 -0.045822,-0.230408 -0.1386719,-0.304688 -0.083565,-0.06499 -0.1859356,-0.09766 -0.3066406,-0.09766 -0.213555,0 -0.3944088,0.07848 -0.5429688,0.236328 -0.15784495,0.157845 -0.23632807,0.362586 -0.23632808,0.613281 10e-9,0.27855 0.12430501,0.496452 0.37499998,0.654297 0.24141,0.16713 0.5353613,0.25 0.8789063,0.25 0.7428,0 1.4291669,-0.320273 2.0605468,-0.960938 0.640665,-0.631379 1.0828088,-1.374295 1.3242188,-2.228515 L 7.9414062,3.9628906 c 0.529245,-1.9219949 1.2438863,-2.8828125 2.1445318,-2.8828125 0.371399,0 0.64585,0.097984 0.822265,0.2929688 -0.213555,0.01857 -0.385635,0.1058269 -0.515625,0.2636719 -0.12999,0.1578449 -0.195312,0.3255381 -0.195312,0.5019531 0,0.25998 0.150145,0.390625 0.447265,0.390625 0.22284,0 0.408081,-0.080436 0.556641,-0.2382813 0.14856,-0.157845 0.222656,-0.3606331 0.222656,-0.6113281 0,-0.27855 -0.126258,-0.4964519 -0.376953,-0.6542969 -0.24141,-0.16712997 -0.533408,-0.2519531 -0.876953,-0.2519531 z"
           transform="matrix(3.7795276,0,0,3.7795276,1.9610975,0.12499965)" /></g></g></g><metadata
     id="metadata1294"><rdf:RDF><cc:Work
         rdf:about=""><dc:creator><cc:Agent><dc:title>Alfredo Monclus</dc:title></cc:Agent></dc:creator><dc:rights><cc:Agent><dc:title>FreeCAD LGPL2+</dc:title></cc:Agent></dc:rights><dc:publisher><cc:Agent><dc:title>FreeCAD</dc:title></cc:Agent></dc:publisher></cc:Work></rdf:RDF></metadata></svg>
