/* XPM */
static char * bulb_xpm[] = {
"32 32 379 2",
"  	c None",
". 	c #3B3503",
"+ 	c #3C3502",
"@ 	c #342E01",
"# 	c #3B3502",
"$ 	c #3C3702",
"% 	c #6A6214",
"& 	c #D3C339",
"* 	c #F6E349",
"= 	c #FBE84E",
"- 	c #D3C338",
"; 	c #696113",
"> 	c #3C3501",
", 	c #3C3604",
"' 	c #D8C73A",
") 	c #FBE84D",
"! 	c #FAE644",
"~ 	c #A79A2A",
"{ 	c #171505",
"] 	c #181605",
"^ 	c #A79926",
"/ 	c #F9E43D",
"( 	c #FBE84C",
"_ 	c #D6C536",
": 	c #3E3803",
"< 	c #3E3704",
"[ 	c #EDDB45",
"} 	c #FBE747",
"| 	c #F9E43E",
"1 	c #F9E541",
"2 	c #181606",
"3 	c #000000",
"4 	c #191705",
"5 	c #F6E02D",
"6 	c #F5DF28",
"7 	c #F9E43F",
"8 	c #ECD93F",
"9 	c #3D3703",
"0 	c #3D3602",
"a 	c #F9E53F",
"b 	c #FAE645",
"c 	c #FBE748",
"d 	c #161406",
"e 	c #151304",
"f 	c #F5DF2B",
"g 	c #F4DE24",
"h 	c #F2DC1D",
"i 	c #F8E43C",
"j 	c #D4C331",
"k 	c #3B3500",
"l 	c #6B6214",
"m 	c #FBE84B",
"n 	c #564F17",
"o 	c #574F11",
"p 	c #F3DD20",
"q 	c #F2DB19",
"r 	c #F1DA15",
"s 	c #FAE749",
"t 	c #675F0F",
"u 	c #D4C439",
"v 	c #F9E540",
"w 	c #FAE646",
"x 	c #9E9128",
"y 	c #9D8F1B",
"z 	c #F4DD23",
"A 	c #F2DB1C",
"B 	c #F1D915",
"C 	c #F0D80E",
"D 	c #F5DF2A",
"E 	c #CFBE2C",
"F 	c #F6E449",
"G 	c #F8E43D",
"H 	c #F9E53E",
"I 	c #E1CE33",
"J 	c #010100",
"K 	c #DCC820",
"L 	c #F3DC1E",
"M 	c #F1DA17",
"N 	c #F0D810",
"O 	c #EFD609",
"P 	c #EFD810",
"Q 	c #F4E141",
"R 	c #342F01",
"S 	c #F7E338",
"T 	c #F8E33A",
"U 	c #F8E43B",
"V 	c #F8E339",
"W 	c #F7E235",
"X 	c #F6E130",
"Y 	c #231F06",
"Z 	c #252206",
"` 	c #F1DA18",
" .	c #F0D811",
"..	c #EFD70A",
"+.	c #EED503",
"@.	c #EED504",
"#.	c #FBE74B",
"$.	c #342F00",
"%.	c #F7E234",
"&.	c #F6E131",
"*.	c #F6E02E",
"=.	c #F5DF29",
"-.	c #463F0A",
";.	c #484209",
">.	c #F0D911",
",.	c #EFD70B",
"'.	c #EDD400",
").	c #FAE74B",
"!.	c #352F00",
"~.	c #F5E348",
"{.	c #F5E02C",
"].	c #F4DE26",
"^.	c #F3DD21",
"/.	c #675E0C",
"(.	c #695F0A",
"_.	c #EFD80F",
":.	c #F5E142",
"<.	c #293413",
"[.	c #D3C337",
"}.	c #F8E33B",
"|.	c #F4DE25",
"1.	c #F3DD22",
"2.	c #F2DB1A",
"3.	c #F0D80F",
"4.	c #EFD709",
"5.	c #F5DE27",
"6.	c #323408",
"7.	c #093B3B",
"8.	c #36A89E",
"9.	c #69651A",
"0.	c #F4DD21",
"a.	c #F1DA16",
"b.	c #EED712",
"c.	c #9D8D09",
"d.	c #9C8C05",
"e.	c #EBD302",
"f.	c #EED605",
"g.	c #FAE748",
"h.	c #646116",
"i.	c #154034",
"j.	c #063030",
"k.	c #0B4343",
"l.	c #3CDBDD",
"m.	c #77E9EA",
"n.	c #615C33",
"o.	c #D6C535",
"p.	c #F0D912",
"q.	c #807405",
"r.	c #7D7000",
"s.	c #EDD401",
"t.	c #F7E236",
"u.	c #D3C12E",
"v.	c #4D5B30",
"w.	c #3BDFE1",
"x.	c #136262",
"y.	c #063434",
"z.	c #063232",
"A.	c #0F5252",
"B.	c #3BDFE0",
"C.	c #85EAEC",
"D.	c #F8F9F8",
"E.	c #DBDAD3",
"F.	c #46400F",
"G.	c #ECD93D",
"H.	c #F0D80D",
"I.	c #EED607",
"J.	c #5C5301",
"K.	c #574E00",
"L.	c #EBD83A",
"M.	c #45400F",
"N.	c #CFD1C6",
"O.	c #AAE6E4",
"P.	c #3CE0E1",
"Q.	c #1D8787",
"R.	c #063333",
"S.	c #136566",
"T.	c #A5EEEE",
"U.	c #F7F8F6",
"V.	c #F6F7F5",
"W.	c #F5F6F4",
"X.	c #C5C3B8",
"Y.	c #464110",
"Z.	c #D3C231",
"`.	c #CAB70D",
" +	c #332E01",
".+	c #353001",
"++	c #CAB60D",
"@+	c #45400E",
"#+	c #BBBBAE",
"$+	c #E6E8E4",
"%+	c #E5E7E3",
"&+	c #BDE4E2",
"*+	c #40E0E2",
"=+	c #2BB0B1",
"-+	c #073333",
";+	c #187778",
">+	c #3CE1E2",
",+	c #B9F0F0",
"'+	c #F6F6F5",
")+	c #F4F5F3",
"!+	c #F3F4F1",
"~+	c #F2F3F0",
"{+	c #D5D5CC",
"]+	c #3B370D",
"^+	c #665D10",
"/+	c #D0BF2C",
"(+	c #685F12",
"_+	c #CCCDC3",
":+	c #E4E7E2",
"<+	c #E3E6E1",
"[+	c #E2E5E0",
"}+	c #E1E4DF",
"|+	c #CBE2DE",
"1+	c #3AE0E2",
"2+	c #23A1A2",
"3+	c #063031",
"4+	c #146465",
"5+	c #3BE0E2",
"6+	c #A0ECEC",
"7+	c #F3F4F2",
"8+	c #F2F3F1",
"9+	c #F1F2F0",
"0+	c #F0F1EF",
"a+	c #EFF1EE",
"b+	c #EEF0ED",
"c+	c #494F50",
"d+	c #494A3F",
"e+	c #393716",
"f+	c #3E3909",
"g+	c #363003",
"h+	c #363103",
"i+	c #433E0E",
"j+	c #575431",
"k+	c #646558",
"l+	c #494E4F",
"m+	c #E3E5E0",
"n+	c #E2E5DF",
"o+	c #E1E4DE",
"p+	c #E0E3DD",
"q+	c #DDE2DC",
"r+	c #70E0DF",
"s+	c #3AD8DA",
"t+	c #0A3C3C",
"u+	c #0D4B4B",
"v+	c #3BDBDE",
"w+	c #79E6E7",
"x+	c #ECF0ED",
"y+	c #EFF0ED",
"z+	c #EEEFEC",
"A+	c #EDEEEB",
"B+	c #ECEDEA",
"C+	c #5F6464",
"D+	c #646865",
"E+	c #7E807C",
"F+	c #626563",
"G+	c #484D4D",
"H+	c #3D4242",
"I+	c #32393A",
"J+	c #2E3436",
"K+	c #5D6362",
"L+	c #E0E3DE",
"M+	c #DFE2DD",
"N+	c #DEE1DB",
"O+	c #DBE0DA",
"P+	c #6CE0DF",
"Q+	c #39D7D8",
"R+	c #083C3C",
"S+	c #083B3B",
"T+	c #38D2D3",
"U+	c #5DE3E4",
"V+	c #DFEDE9",
"W+	c #EBEDE9",
"X+	c #EAECE8",
"Y+	c #E9EBE7",
"Z+	c #6D7372",
"`+	c #33393A",
" @	c #5A5E5D",
".@	c #888A85",
"+@	c #626664",
"@@	c #747977",
"#@	c #DDE0DA",
"$@	c #D8DFD9",
"%@	c #63DFDF",
"&@	c #38D5D6",
"*@	c #093939",
"=@	c #083434",
"-@	c #2EB7B9",
";@	c #46E1E2",
">@	c #CCE9E5",
",@	c #E7EAE5",
"'@	c #E6E9E4",
")@	c #8D9290",
"!@	c #555A59",
"~@	c #525756",
"{@	c #363C3C",
"]@	c #3F4345",
"^@	c #4C5151",
"/@	c #565A58",
"(@	c #585C5B",
"_@	c #434848",
":@	c #8A8F8C",
"<@	c #DBDFD8",
"[@	c #D5DED7",
"}@	c #60DFDF",
"|@	c #37D2D5",
"1@	c #073737",
"2@	c #249D9E",
"3@	c #3CE0E2",
"4@	c #B7E5E2",
"5@	c #E4E6E1",
"6@	c #A2A5A2",
"7@	c #4E5252",
"8@	c #878984",
"9@	c #767874",
"0@	c #696C6A",
"a@	c #606463",
"b@	c #5E6260",
"c@	c #414647",
"d@	c #9CA19D",
"e@	c #D2DDD6",
"f@	c #59DFDF",
"g@	c #36D0D1",
"h@	c #073636",
"i@	c #197677",
"j@	c #3BE0E1",
"k@	c #97E2E0",
"l@	c #ADB1AE",
"m@	c #313738",
"n@	c #555A58",
"o@	c #7C7F7A",
"p@	c #484D4E",
"q@	c #A8B3B0",
"r@	c #52DFE0",
"s@	c #34CCCD",
"t@	c #053232",
"u@	c #115858",
"v@	c #3ADDDF",
"w@	c #6BCBCC",
"x@	c #3B4142",
"y@	c #565A59",
"z@	c #363D3E",
"A@	c #3D4243",
"B@	c #4C5150",
"C@	c #555958",
"D@	c #353A3C",
"E@	c #4CCBCB",
"F@	c #33C9CA",
"G@	c #0A3C3E",
"H@	c #38D3D5",
"I@	c #323E40",
"J@	c #797B77",
"K@	c #757875",
"L@	c #696D69",
"M@	c #585D5B",
"N@	c #30393B",
"O@	c #31C1C3",
"P@	c #073232",
"Q@	c #32B5B9",
"R@	c #3D8586",
"S@	c #3E4546",
"T@	c #343A3B",
"U@	c #3E4446",
"V@	c #3C8586",
"W@	c #30B6BA",
"X@	c #27A9AA",
"Y@	c #3DE0E1",
"Z@	c #A6D1CD",
"`@	c #B8D0CA",
" #	c #44DFE0",
".#	c #2CB9BB",
"+#	c #063131",
"@#	c #1D8788",
"##	c #3ADFE1",
"$#	c #3FDFE1",
"%#	c #2AB4B6",
"&#	c #146567",
"*#	c #23A1A1",
"=#	c #063233",
"-#	c #053133",
"                                                                ",
"                          . + @ @ # .                           ",
"                      $ % & * = = * - ; >                       ",
"                    , ' ) ! ~ { ] ^ / ( _ :                     ",
"                  < [ } | 1 2 3 3 4 5 6 7 8 9                   ",
"                0 ' } a b c d 3 3 e f g h i j k                 ",
"                l ( | ! m m n 3 3 o 6 p q r s t                 ",
"              . u ! v w c b x 3 3 y z A B C D E k               ",
"              + F G H 1 1 / I J J K L M N O P Q k               ",
"              R ) S T U V W X Y Z L `  ...+.@.#.$.              ",
"              R ) %.%.%.&.*.=.-.;.` >.,.@.'.@.).!.              ",
"              . ~.%.5 {.D ].^./.(. ...@.'.'._.:.k               ",
"              <.[.}.].|.1.L 2.B 3.4.@.'.'.'.5.E 6.              ",
"            7.8.9.m 0.h 2.a.b.c.d.e.'.'.'.f.g.h.i.j.            ",
"          k.l.m.n.o.i r p.C q.3 3 r.'.'.s.t.u.v.w.x.y.          ",
"      z.A.B.C.D.E.F.G.V H.I.J.3 3 K.'.f.t.L.M.N.O.P.Q.y.        ",
"    R.S.P.T.U.V.W.X.Y.Z.g.5.`. +.+++5.g.u.@+#+$+%+&+*+=+z.      ",
"  -+;+>+,+'+W.)+!+~+{+]+^+/+Q m m Q E (+]+_+:+<+[+}+|+1+2+3+    ",
"  R.4+5+6+7+8+9+0+a+b+c+d+e+f+g+h+i+j+k+l+m+n+o+p+q+r+s+t+      ",
"      u+v+w+x+y+z+A+B+C+D+E+F+G+H+I+J+J+K+L+M+N+O+P+Q+R+        ",
"        S+T+U+V+W+X+Y+Z+`+ @E+.@.@.@.@+@@@N+#@$@%@&@*@          ",
"          =@-@;@>@,@'@)@!@~@{@]@^@/@(@_@:@<@[@}@|@1@            ",
"            y.2@3@4@5@6@7@.@8@9@0@a@b@c@d@e@f@g@h@              ",
"              -+i@j@k@l@m@n@o@.@.@.@.@p@q@r@s@y.                ",
"                t@u@v@w@x@y@z@A@B@C@(@D@E@F@R.                  ",
"                    G@H@I@y@J@K@L@M@_@N@O@z.                    ",
"                      P@Q@R@S@T@T@U@V@W@z.                      ",
"                        t@X@Y@Z@`@ #.#+#                        ",
"                          R.@###$#%#P@                          ",
"                            -+&#*#=#                            ",
"                              -#+#                              ",
"                                                                "};
