/* XPM */
static char * bulb_xpm[] = {
"26 32 8 1",
". c None",
"d c #000000",
"e c #00ffff",
"# c #808000",
"c c #808080",
"f c #c0c0c0",
"a c #ffff00",
"b c #ffffff",
"..........#####...........",
"........##aaaaa##.........",
".......#ababababa#........",
"......#abbbcdcbaaad.......",
".....#abbbbdddababad......",
".....#bbbbbdddbabaad......",
"....#abbbbbdddababa#d.....",
"....#abbbbbcdcbabaa#d.....",
"....#babbbbbdbababa#d.....",
"....#aaababadababaa#d.....",
"....#aababababababa#d.....",
".....daaaabcdcbaaa#d......",
".....d#aabadddabab#d......",
"......d#aaacdcaaa#d.......",
"......ed#aababab#ded......",
".....ebd#aaaaaaa#dbed.....",
"....ebbbd##aaa##dbbbed....",
"...ebbbbcdd###dddbbbbed...",
".debbbbbcbbdddffdbbbbbed..",
"..debbbbccdbffdddbbbbed...",
"...debbbbcbdddfdbbbbed....",
"....debbbccbffddbbbed.....",
".....debbbdddddbbbed......",
"......debbbdddbbbed.......",
".......debbbbbbbed........",
"........debbbbbed.........",
".........debbbed..........",
"..........debed...........",
"...........ded............",
"............d.............",
"..........................",
".........................."};
