/* XPM */
static char * button_right_xpm[] = {
"16 16 99 2",
"  	c None",
". 	c #37506B",
"+ 	c #2A4055",
"@ 	c #567BA1",
"# 	c #6D98C6",
"$ 	c #39516D",
"% 	c #557AA0",
"& 	c #6995C7",
"* 	c #6996C6",
"= 	c #4B6C92",
"- 	c #1C2B3E",
"; 	c #53759A",
"> 	c #51759A",
", 	c #51749A",
"' 	c #507499",
") 	c #507399",
"! 	c #507298",
"~ 	c #6893C1",
"{ 	c #5F8CBF",
"] 	c #5D89BC",
"^ 	c #608DC0",
"/ 	c #577EA8",
"( 	c #213145",
"_ 	c #1E3043",
": 	c #6D9BCB",
"< 	c #6693C5",
"[ 	c #6490C2",
"} 	c #618DC0",
"| 	c #5E8ABD",
"1 	c #5B87BB",
"2 	c #5985B9",
"3 	c #5682B6",
"4 	c #537FB4",
"5 	c #507CB1",
"6 	c #527DB2",
"7 	c #5D87B6",
"8 	c #28405A",
"9 	c #1D2E41",
"0 	c #6996C7",
"a 	c #5A86BA",
"b 	c #5783B8",
"c 	c #5580B5",
"d 	c #527EB3",
"e 	c #4F7BB0",
"f 	c #4C78AE",
"g 	c #4A75AC",
"h 	c #4772A9",
"i 	c #446FA7",
"j 	c #426EA5",
"k 	c #5682B4",
"l 	c #375273",
"m 	c #1B2B40",
"n 	c #6491C3",
"o 	c #517CB2",
"p 	c #4E7AAF",
"q 	c #4B77AD",
"r 	c #4874AA",
"s 	c #4671A8",
"t 	c #436EA6",
"u 	c #406BA3",
"v 	c #3D68A1",
"w 	c #3B669E",
"x 	c #39639D",
"y 	c #507BAE",
"z 	c #3B587C",
"A 	c #1A293E",
"B 	c #4773A9",
"C 	c #4470A7",
"D 	c #426DA5",
"E 	c #3F6AA2",
"F 	c #3C67A0",
"G 	c #39649D",
"H 	c #37619B",
"I 	c #345F98",
"J 	c #35619A",
"K 	c #527AAD",
"L 	c #283F5C",
"M 	c #152438",
"N 	c #50769E",
"O 	c #50759E",
"P 	c #50759C",
"Q 	c #4F749C",
"R 	c #4F749B",
"S 	c #4E739B",
"T 	c #628DBC",
"U 	c #305A95",
"V 	c #2D5893",
"W 	c #3A659D",
"X 	c #4E75A0",
"Y 	c #1B2D46",
"Z 	c #476C94",
"` 	c #26518D",
" .	c #426CA3",
"..	c #41638D",
"+.	c #466A92",
"@.	c #4C76A9",
"#.	c #294463",
"$.	c #2C4664",
"%.	c #1B2F4A",
"                                ",
"                                ",
"              . +               ",
"              @ # $             ",
"              % & * =           ",
"- ; > , ' ) ! ~ { ] ^ / (       ",
"_ : < [ } | 1 2 3 4 5 6 7 8     ",
"9 0 ] a b c d e f g h i j k l   ",
"m n 4 o p q r s t u v w x y z   ",
"A { g B C D E F G H I J K L     ",
"M N O P Q R S T U V W X Y       ",
"              Z `  ...          ",
"              +.@.#.            ",
"              $.%.              ",
"                                ",
"                                "};
