/* XPM */
static char * button_left_xpm[] = {
"16 16 99 2",
"  	c None",
". 	c #293E53",
"+ 	c #374F6B",
"@ 	c #37516B",
"# 	c #6B98C4",
"$ 	c #567BA1",
"% 	c #4A698C",
"& 	c #709DCC",
"* 	c #729FCF",
"= 	c #24344A",
"- 	c #5E85AF",
"; 	c #6F9CCC",
"> 	c #6C99CA",
", 	c #6A96C8",
"' 	c #6994C2",
") 	c #507398",
"! 	c #4F7298",
"~ 	c #4F7198",
"{ 	c #4F7197",
"] 	c #4E7197",
"^ 	c #4E6F96",
"/ 	c #17263B",
"( 	c #2C435B",
"_ 	c #6690BD",
": 	c #6894C6",
"< 	c #6491C3",
"[ 	c #628EC1",
"} 	c #608CBF",
"| 	c #5E8ABD",
"1 	c #5B88BB",
"2 	c #5985B9",
"3 	c #5783B7",
"4 	c #5581B5",
"5 	c #537EB3",
"6 	c #618EC1",
"7 	c #1A293E",
"8 	c #3E5A7A",
"9 	c #6692C2",
"0 	c #5D89BC",
"a 	c #5A87BA",
"b 	c #5884B8",
"c 	c #5682B6",
"d 	c #5480B5",
"e 	c #527DB3",
"f 	c #4F7BB1",
"g 	c #4D79AF",
"h 	c #4B77AD",
"i 	c #4974AB",
"j 	c #5C89BC",
"k 	c #16283D",
"l 	c #426081",
"m 	c #618CBC",
"n 	c #5581B7",
"o 	c #537FB4",
"p 	c #517CB2",
"q 	c #4E7AB0",
"r 	c #4C78AE",
"s 	c #4A76AC",
"t 	c #4873AA",
"u 	c #4671A8",
"v 	c #436FA6",
"w 	c #416CA4",
"x 	c #3F6AA2",
"y 	c #5784B8",
"z 	c #15263B",
"A 	c #2C435E",
"B 	c #5C86B3",
"C 	c #4C78AF",
"D 	c #4772A9",
"E 	c #4570A7",
"F 	c #426EA5",
"G 	c #406BA3",
"H 	c #3E69A1",
"I 	c #3C67A0",
"J 	c #3A659E",
"K 	c #38629C",
"L 	c #35609A",
"M 	c #527FB4",
"N 	c #132339",
"O 	c #1E3047",
"P 	c #537AA5",
"Q 	c #3B669F",
"R 	c #39649D",
"S 	c #638EBD",
"T 	c #4E739B",
"U 	c #4E729B",
"V 	c #4D729A",
"W 	c #4C729A",
"X 	c #4C7199",
"Y 	c #101F32",
"Z 	c #405F85",
"` 	c #4D78AD",
" .	c #2F5A94",
"..	c #496C94",
"+.	c #2A4663",
"@.	c #4E77AB",
"#.	c #466B93",
"$.	c #1B2F48",
"%.	c #2C4563",
"                                ",
"                                ",
"              . +               ",
"            @ # $               ",
"          % & * $               ",
"      = - ; > , ' ) ! ~ { ] ^ / ",
"    ( _ : < [ } | 1 2 3 4 5 6 7 ",
"  8 9 } 0 a b c d e f g h i j k ",
"  l m n o p q r s t u v w x y z ",
"    A B C D E F G H I J K L M N ",
"      O P i Q R S T U V V W X Y ",
"          Z `  ...              ",
"            +.@.#.              ",
"              $.%.              ",
"                                ",
"                                "};
