/* XPM */
static char * button_up_xpm[] = {
"16 16 93 2",
"  	c None",
". 	c #415E7E",
"+ 	c #476587",
"@ 	c #2E475D",
"# 	c #6D9AC8",
"$ 	c #6E99C7",
"% 	c #354F6A",
"& 	c #223448",
"* 	c #6792BE",
"= 	c #6B98C9",
"- 	c #6A97C8",
"; 	c #6691BF",
"> 	c #273D50",
", 	c #5C83AD",
"' 	c #6894C5",
") 	c #6591C3",
"! 	c #6490C2",
"~ 	c #6390C2",
"{ 	c #5D85B0",
"] 	c #4A6B8E",
"^ 	c #6692C4",
"/ 	c #608CBF",
"( 	c #5E8BBE",
"_ 	c #5D89BD",
": 	c #5C88BC",
"< 	c #4A6B8F",
"[ 	c #324C69",
"} 	c #6490C1",
"| 	c #5B87BA",
"1 	c #5985B9",
"2 	c #5884B8",
"3 	c #5783B7",
"4 	c #5682B6",
"5 	c #5480B5",
"6 	c #5E8BBC",
"7 	c #364F6E",
"8 	c #24374E",
"9 	c #618DBC",
"0 	c #5581B6",
"a 	c #537FB4",
"b 	c #527EB3",
"c 	c #517CB2",
"d 	c #4F7BB1",
"e 	c #4E7AB0",
"f 	c #4D79AE",
"g 	c #5D88B9",
"h 	c #253B53",
"i 	c #36506D",
"j 	c #5479A1",
"k 	c #5478A0",
"l 	c #6792C0",
"m 	c #4D78AE",
"n 	c #4C77AD",
"o 	c #4A76AC",
"p 	c #4975AB",
"q 	c #6590BF",
"r 	c #51779F",
"s 	c #51769F",
"t 	c #35506E",
"u 	c #4E729A",
"v 	c #4672A9",
"w 	c #4571A8",
"x 	c #446FA7",
"y 	c #436EA5",
"z 	c #4D7199",
"A 	c #406BA3",
"B 	c #3F6AA2",
"C 	c #3E69A1",
"D 	c #3C67A0",
"E 	c #4C6F98",
"F 	c #3A659E",
"G 	c #39639D",
"H 	c #37629B",
"I 	c #36619A",
"J 	c #4B6E96",
"K 	c #335E98",
"L 	c #325D97",
"M 	c #315C96",
"N 	c #305A95",
"O 	c #496D95",
"P 	c #2D5893",
"Q 	c #2C5691",
"R 	c #2B5590",
"S 	c #29548F",
"T 	c #476C94",
"U 	c #476B94",
"V 	c #4A75AC",
"W 	c #4975AC",
"X 	c #4874AB",
"Y 	c #4873AB",
"Z 	c #466A93",
"` 	c #0F1E32",
" .	c #0F1E35",
"                                ",
"              . +               ",
"            @ # $ %             ",
"          & * = - ; >           ",
"          , ' ) ! ~ {           ",
"        ] ^ / ( _ : / <         ",
"      [ } | 1 2 3 4 5 6 7       ",
"    8 9 0 5 a b c d e f g h     ",
"    i j k l m n o p q r s t     ",
"          u v w x y z           ",
"          z A B C D E           ",
"          E F G H I J           ",
"          J K L M N O           ",
"          O P Q R S T           ",
"          U V W X Y Z           ",
"          `  . . . .`           "};
