/* XPM */
static char * button_down_xpm[] = {
"16 16 93 2",
"  	c None",
". 	c #203042",
"+ 	c #233548",
"@ 	c #567BA1",
"# 	c #729FCF",
"$ 	c #729FCE",
"% 	c #557AA1",
"& 	c #557AA0",
"* 	c #6D9ACB",
"= 	c #6C99CA",
"- 	c #6B97C9",
"; 	c #6996C7",
"> 	c #54799F",
", 	c #6693C4",
"' 	c #6591C3",
") 	c #6390C2",
"! 	c #628FC1",
"~ 	c #53779E",
"{ 	c #53769E",
"] 	c #5F8BBE",
"^ 	c #5E8ABD",
"/ 	c #5C88BC",
"( 	c #5B87BB",
"_ 	c #51759D",
": 	c #5884B8",
"< 	c #5682B7",
"[ 	c #5581B6",
"} 	c #5480B4",
"| 	c #50749C",
"1 	c #507CB1",
"2 	c #4F7BB0",
"3 	c #4E79AF",
"4 	c #4D78AE",
"5 	c #4F729B",
"6 	c #2F4661",
"7 	c #4B6D95",
"8 	c #4B6D94",
"9 	c #648FBD",
"0 	c #4975AB",
"a 	c #4873AA",
"b 	c #4772A9",
"c 	c #4571A8",
"d 	c #638DBC",
"e 	c #496B92",
"f 	c #2D4561",
"g 	c #21354B",
"h 	c #5B86B6",
"i 	c #4471A7",
"j 	c #436EA6",
"k 	c #426DA5",
"l 	c #416CA4",
"m 	c #3F6AA3",
"n 	c #3E69A1",
"o 	c #3D68A0",
"p 	c #3C679F",
"q 	c #5480B2",
"r 	c #21364F",
"s 	c #2C4562",
"t 	c #527DB2",
"u 	c #3C67A0",
"v 	c #3B669E",
"w 	c #39649D",
"x 	c #38639C",
"y 	c #37629B",
"z 	c #36609A",
"A 	c #4D78AD",
"B 	c #304969",
"C 	c #3E5E83",
"D 	c #4670A8",
"E 	c #335E98",
"F 	c #325D97",
"G 	c #315C96",
"H 	c #305A95",
"I 	c #3D68A1",
"J 	c #3F6187",
"K 	c #4B739F",
"L 	c #345E99",
"M 	c #2B5591",
"N 	c #2A548F",
"O 	c #2D5893",
"P 	c #4C72A0",
"Q 	c #16283D",
"R 	c #5078A9",
"S 	c #26508C",
"T 	c #234D8A",
"U 	c #4E77AA",
"V 	c #192E44",
"W 	c #1F364F",
"X 	c #4872A7",
"Y 	c #466FA5",
"Z 	c #243D59",
"` 	c #304C6E",
" .	c #385579",
"          . + + + + .           ",
"          @ # # # $ %           ",
"          & * = - ; >           ",
"          > , ' ) ! ~           ",
"          { ] ^ / ( _           ",
"          _ : < [ } |           ",
"          | 1 2 3 4 5           ",
"    6 7 8 9 0 a b c d e e f     ",
"    g h i j k l m n o p q r     ",
"      s t u v w x y z A B       ",
"        C D E F G H I J         ",
"          K L M N O P           ",
"          Q R S T U V           ",
"            W X Y Z             ",
"              `  .              ",
"                                "};
