/* XPM */
static const char *button_left[]={
"16 16 46 1",
". c None",
"R c #083cff",
"N c #1038ee",
"O c #1044ff",
"F c #183cff",
"H c #1840f6",
"J c #184cff",
"A c #203cd5",
"C c #2044ff",
"y c #2955ff",
"s c #3155de",
"E c #3161ff",
"I c #3950d5",
"G c #3969ff",
"x c #4175ff",
"M c #4a61c5",
"P c #4a65cd",
"Q c #4a7dff",
"L c #526dcd",
"K c #5285ff",
"D c #5a89ff",
"B c #6275bd",
"o c #6295ff",
"z c #6a99f6",
"v c #6a9dff",
"# c #7389c5",
"n c #73a5ff",
"h c #73aaff",
"d c #7b8dbd",
"l c #7ba1ee",
"k c #7baeff",
"j c #7bb2ff",
"w c #83b2f6",
"r c #83b6ff",
"a c #8ba5ee",
"i c #94c6ff",
"u c #94caff",
"f c #9cc6f6",
"g c #9cd6ff",
"p c #bde6ff",
"q c #c5e6ff",
"m c #cddeff",
"b c #dee2ff",
"c c #e6eaff",
"t c #e6faff",
"e c #eeffff",
"................",
".....#a.........",
"....abca........",
"...dcef.........",
"..deeghd........",
".#eeijk#.ada#al#",
"dmeinknolfppqprs",
"ftuknnvkiiwrhnxy",
"zrjnnvvvoovvooxA",
"BCDnvvnEFCyEGxEH",
".IJKovvLddMIANHM",
"..LOxovd......d.",
"...PFQK.........",
"....BRJ#........",
".....BN#........",
"................"};
