/* XPM */
static const char *button_up[]={
"16 16 45 1",
". c None",
"P c #1034ee",
"D c #1038ee",
"O c #183cf6",
"G c #1840ff",
"v c #295dff",
"p c #315dff",
"s c #3165ff",
"I c #3955d5",
"C c #3965ff",
"N c #396dff",
"F c #416dee",
"f c #4175ff",
"E c #4a65cd",
"K c #4a79ff",
"Q c #526dcd",
"L c #5271cd",
"M c #5285ff",
"g c #5a71c5",
"B c #5a89f6",
"q c #6279c5",
"J c #628dff",
"A c #6295ff",
"z c #6299ff",
"l c #6a79bd",
"w c #6a89d5",
"H c #6a99f6",
"o c #6a9dff",
"# c #7385bd",
"n c #73a5ff",
"y c #73aaff",
"b c #7ba1f6",
"k c #7baeff",
"j c #8bbeff",
"m c #94c6ff",
"u c #94ceff",
"i c #9ccaff",
"e c #9cd2ff",
"a c #b4c6f6",
"x c #bde6ff",
"t c #d5e2ff",
"d c #defaff",
"c c #e6eaff",
"h c #e6ffff",
"r c #ffffff",
"......#ab#......",
".....#cdefg.....",
"....#chijkfl....",
"...#chmknnopq...",
"..#rhjnnoooosl..",
".#thunnoooooovl.",
".wxiynoooozABCD.",
".#.#.#fooCE.b##.",
"......FyzG#.....",
"......BkAv#.....",
".....#Hkopg.....",
".....#kyACI.....",
".....#jnAfD.....",
".....wkAJKD.....",
".....LMNssO#....",
".....#DDDPQ....."};
