<?xml version="1.0" encoding="UTF-8" standalone="no"?>
<!-- Created with Inkscape (http://www.inkscape.org/) -->

<svg
   width="64px"
   height="64px"
   id="svg2816"
   version="1.1"
   xmlns:xlink="http://www.w3.org/1999/xlink"
   xmlns="http://www.w3.org/2000/svg"
   xmlns:svg="http://www.w3.org/2000/svg"
   xmlns:rdf="http://www.w3.org/1999/02/22-rdf-syntax-ns#"
   xmlns:cc="http://creativecommons.org/ns#"
   xmlns:dc="http://purl.org/dc/elements/1.1/">
  <defs
     id="defs2818">
    <linearGradient
       id="linearGradient3825">
      <stop
         style="stop-color:#4e9a06;stop-opacity:1;"
         offset="0"
         id="stop3827" />
      <stop
         style="stop-color:#8ae234;stop-opacity:1"
         offset="1"
         id="stop3829" />
    </linearGradient>
    <linearGradient
       id="linearGradient3817">
      <stop
         style="stop-color:#a40000;stop-opacity:1"
         offset="0"
         id="stop3819" />
      <stop
         style="stop-color:#ef2929;stop-opacity:1"
         offset="1"
         id="stop3821" />
    </linearGradient>
    <linearGradient
       id="linearGradient3809">
      <stop
         style="stop-color:#204a87;stop-opacity:1"
         offset="0"
         id="stop3811" />
      <stop
         style="stop-color:#729fcf;stop-opacity:1"
         offset="1"
         id="stop3813" />
    </linearGradient>
    <linearGradient
       id="linearGradient3767">
      <stop
         style="stop-color:#c17d11;stop-opacity:1"
         offset="0"
         id="stop3769" />
      <stop
         style="stop-color:#e9b96e;stop-opacity:1"
         offset="1"
         id="stop3771" />
    </linearGradient>
    <linearGradient
       id="linearGradient3691">
      <stop
         style="stop-color:#ffffff;stop-opacity:1;"
         offset="0"
         id="stop3693" />
      <stop
         style="stop-color:#ffffff;stop-opacity:0;"
         offset="1"
         id="stop3695" />
    </linearGradient>
    <linearGradient
       id="linearGradient3614">
      <stop
         style="stop-color:#ff9100;stop-opacity:1;"
         offset="0"
         id="stop3616" />
      <stop
         style="stop-color:#ffcb00;stop-opacity:1;"
         offset="1"
         id="stop3618" />
    </linearGradient>
    <linearGradient
       xlink:href="#linearGradient3691"
       id="linearGradient3697"
       x1="31.066811"
       y1="17.542589"
       x2="26.010498"
       y2="24.832104"
       gradientUnits="userSpaceOnUse"
       gradientTransform="translate(-0.37824909,-2.8753906)" />
    <linearGradient
       xlink:href="#linearGradient3767"
       id="linearGradient3773"
       x1="38"
       y1="56"
       x2="23"
       y2="11"
       gradientUnits="userSpaceOnUse"
       gradientTransform="matrix(0.99798248,0,0,0.9977536,0.06453419,0.06953601)" />
    <linearGradient
       xlink:href="#linearGradient3767-7"
       id="linearGradient3773-1"
       x1="38"
       y1="56"
       x2="23"
       y2="11"
       gradientUnits="userSpaceOnUse" />
    <linearGradient
       id="linearGradient3767-7">
      <stop
         style="stop-color:#8f5902;stop-opacity:1"
         offset="0"
         id="stop3769-4" />
      <stop
         style="stop-color:#e9b96e;stop-opacity:1"
         offset="1"
         id="stop3771-0" />
    </linearGradient>
    <linearGradient
       xlink:href="#linearGradient3809"
       id="linearGradient3815"
       x1="49"
       y1="40"
       x2="43"
       y2="29"
       gradientUnits="userSpaceOnUse"
       gradientTransform="translate(0,-2.4542148)" />
    <linearGradient
       xlink:href="#linearGradient3817"
       id="linearGradient3823"
       x1="42"
       y1="52"
       x2="36"
       y2="35"
       gradientUnits="userSpaceOnUse"
       gradientTransform="translate(0,-2.1378748)" />
    <linearGradient
       xlink:href="#linearGradient3825"
       id="linearGradient3831"
       x1="31"
       y1="48"
       x2="27"
       y2="36"
       gradientUnits="userSpaceOnUse"
       gradientTransform="translate(-1.6458232,-0.37807782)" />
  </defs>
  <metadata
     id="metadata2821">
    <rdf:RDF>
      <cc:Work
         rdf:about="">
        <dc:format>image/svg+xml</dc:format>
        <dc:type
           rdf:resource="http://purl.org/dc/dcmitype/StillImage" />
      </cc:Work>
    </rdf:RDF>
  </metadata>
  <g
     id="layer1"
     transform="matrix(0.99998247,0,0,0.88887803,8.3664749e-5,4.4437883)">
    <path
       style="display:inline;fill:#e9b96e;fill-opacity:1;stroke:#271903;stroke-width:2.12135;stroke-linecap:butt;stroke-linejoin:miter;stroke-miterlimit:4;stroke-dasharray:none;stroke-opacity:1"
       d="M 14.407536,5.111996 C 7.9183056,6.0034495 2.8018731,13.531071 3.0684437,21.9623 3.4069874,32.669916 20.676377,54.17228 31.610562,56.476147 42.544744,58.780011 54.451956,52.147116 58.241229,44.993217 62.030505,37.839318 62.489348,24.121737 55.305017,18.738404 48.120687,13.35507 38.621879,17.419002 32.133479,16.062452 25.64508,14.705901 20.896766,4.2205424 14.407536,5.111996 Z m 3.984881,13.56482 c 3.439045,0.07108 6.831605,3.436943 6.771059,6.993851 -0.990514,10.2652 -15.4598627,1.005742 -10.107991,-5.855318 1.026608,-0.825066 2.190585,-1.162223 3.336932,-1.138533 z"
       id="path2840" />
    <path
       style="display:inline;fill:url(#linearGradient3773);fill-opacity:1;stroke:#e9b96e;stroke-width:2.12135;stroke-linecap:butt;stroke-linejoin:miter;stroke-miterlimit:4;stroke-dasharray:none;stroke-opacity:1"
       d="m 15.078125,7.1816406 c 5.034929,-0.1580777 9.391808,9.4455804 16.621094,10.9570314 7.242015,1.514111 15.837116,-2.571333 22.333984,2.296875 6.12035,4.586075 5.754245,17.109184 2.333984,23.566406 C 53.032852,50.29696 42.152156,56.529191 32.048828,54.400391 22.061734,52.296079 5.4977312,31.646846 5.1894531,21.896484 4.9476968,14.250093 9.4737167,7.930472 14.697266,7.2128906 c 0.128157,-0.017605 0.254715,-0.027289 0.380859,-0.03125 z m 3.357422,9.3750004 c -1.617164,-0.03342 -3.265858,0.443701 -4.708984,1.603515 l -0.19336,0.154297 -0.15039,0.195313 c -1.455091,1.865415 -1.87057,3.92872 -1.515625,5.908203 1.492976,8.326142 14.403193,11.870504 15.408203,1.455078 l 0.0078,-0.08398 0.002,-0.08398 c 0.08097,-4.756725 -4.226037,-9.052875 -8.849609,-9.148437 z"
       id="path1" />
    <g
       id="g1">
      <path
         style="fill:url(#linearGradient3831);fill-opacity:1;stroke:#4e9a06;stroke-width:2.12135;stroke-linecap:butt;stroke-linejoin:miter;stroke-dasharray:none;stroke-opacity:1"
         d="m 24.83854,35.594781 c -3.430345,1.49337 -1.427147,5.521391 -0.995166,8.148201 0.07684,2.825426 3.049863,6.651994 6.009348,4.612197 2.725914,-2.617267 2.01049,-6.876427 0.925458,-10.088285 -0.847269,-2.556979 -3.463456,-3.681919 -5.93964,-2.672113 z"
         id="path3644" />
      <path
         style="fill:url(#linearGradient3823);fill-opacity:1;stroke:#a40000;stroke-width:2.12135;stroke-linecap:butt;stroke-linejoin:miter;stroke-dasharray:none;stroke-opacity:1"
         d="m 36.730494,47.633169 c 0.526463,0.878063 1.097031,1.827625 2.013469,2.339827 1.295182,0.687126 3.044551,0.542866 4.059789,-0.573318 1.649455,-1.632946 2.102305,-4.363465 1.071235,-6.439563 -0.760845,-1.232935 -2.036005,-2.003223 -3.125803,-2.914563 -1.34932,-1.039951 -2.730874,-2.328706 -2.998644,-4.099852 -0.174498,-1.08408 0.399099,-2.293989 -0.293445,-3.274314 -0.386666,-0.62077 -1.189858,-0.870965 -2.045192,-0.650761 -1.140152,0.34623 -1.250695,1.982836 -0.939932,2.868838 1.107744,2.513425 -0.579146,7.602443 2.258523,12.743706 z"
         id="path3654" />
      <path
         style="fill:url(#linearGradient3815);fill-opacity:1;stroke:#204a87;stroke-width:2.12135;stroke-linecap:butt;stroke-linejoin:miter;stroke-dasharray:none;stroke-opacity:1"
         d="m 35.998163,27.60466 c 2.8139,0.725202 5.667849,2.68437 6.055182,5.780259 -0.324522,2.843364 2.643122,3.395323 4.816063,3.564547 2.43744,-0.225527 2.724431,4.475957 5.109502,2.908887 2.027846,-2.172623 1.204782,-5.559781 -0.180215,-7.835537 -1.508283,-2.056753 -2.407321,-5.923481 -5.708611,-4.517942 -3.157474,0.569068 -5.221518,-3.223984 -8.46863,-1.937175 -0.898837,0.220429 -2.117867,0.917831 -1.623291,2.036961 z"
         id="path3666" />
    </g>
  </g>
</svg>
