/* XPM */
static const char * Document_xpm[] = {
"16 16 5 1",
" 	c None",
".	c #141010",
"+	c #FFFFFF",
"@	c #66D1DB",
"#	c #BB66DB",
"   ........     ",
"   .++++++..    ",
"   .+....+.+.   ",
"   .++++++....  ",
"   .+....++++.  ",
"   .+++++++++.  ",
"   .+.......+.  ",
"   .+++++++++.  ",
"   .+++..++++.  ",
"   .++.@......  ",
"   .+.@@.###..  ",
"   .+.@@.###..  ",
"   .+.@@......  ",
"   .++.@@.+++.  ",
"   .+++..++++.  ",
"   ...........  "};
