<?xml version="1.0" encoding="UTF-8" standalone="no"?>
<!-- Created with Inkscape (http://www.inkscape.org/) -->

<svg
   width="64"
   height="64"
   id="svg4025"
   version="1.1"
   xmlns:xlink="http://www.w3.org/1999/xlink"
   xmlns="http://www.w3.org/2000/svg"
   xmlns:svg="http://www.w3.org/2000/svg"
   xmlns:rdf="http://www.w3.org/1999/02/22-rdf-syntax-ns#"
   xmlns:cc="http://creativecommons.org/ns#"
   xmlns:dc="http://purl.org/dc/elements/1.1/">
  <defs
     id="defs4027">
    <linearGradient
       id="linearGradient3799">
      <stop
         style="stop-color:#204a87;stop-opacity:1;"
         offset="0"
         id="stop3801" />
      <stop
         style="stop-color:#3465a4;stop-opacity:1"
         offset="1"
         id="stop3803" />
    </linearGradient>
    <linearGradient
       id="linearGradient3791">
      <stop
         style="stop-color:#3465a4;stop-opacity:1;"
         offset="0"
         id="stop3793" />
      <stop
         style="stop-color:#729fcf;stop-opacity:1"
         offset="1"
         id="stop3795" />
    </linearGradient>
    <linearGradient
       xlink:href="#linearGradient4095"
       id="linearGradient3999"
       gradientUnits="userSpaceOnUse"
       x1="901.1875"
       y1="1190.875"
       x2="1267.9062"
       y2="1190.875"
       gradientTransform="matrix(0.10456791,0,0,0.10456791,420.90006,31.02362)" />
    <linearGradient
       id="linearGradient4095">
      <stop
         style="stop-color:#0044be;stop-opacity:1;"
         offset="0"
         id="stop4097" />
      <stop
         style="stop-color:#2b90cc;stop-opacity:1;"
         offset="1"
         id="stop4099" />
    </linearGradient>
    <linearGradient
       xlink:href="#linearGradient4095"
       id="linearGradient2979"
       gradientUnits="userSpaceOnUse"
       gradientTransform="matrix(0.13878644,0,0,0.1266123,-61.41255,-154.04118)"
       x1="901.1875"
       y1="1190.875"
       x2="1267.9062"
       y2="1190.875" />
    <linearGradient
       xlink:href="#linearGradient3791"
       id="linearGradient3797"
       x1="448.72443"
       y1="115.0061"
       x2="434.47638"
       y2="78.006104"
       gradientUnits="userSpaceOnUse" />
    <linearGradient
       xlink:href="#linearGradient3799"
       id="linearGradient3805"
       x1="444.65356"
       y1="117.0061"
       x2="429.38779"
       y2="86.006104"
       gradientUnits="userSpaceOnUse" />
  </defs>
  <metadata
     id="metadata4030">
    <rdf:RDF>
      <cc:Work
         rdf:about="">
        <dc:format>image/svg+xml</dc:format>
        <dc:type
           rdf:resource="http://purl.org/dc/dcmitype/StillImage" />
        <dc:title />
      </cc:Work>
    </rdf:RDF>
  </metadata>
  <g
     id="layer1"
     transform="translate(0,32)">
    <g
       id="g3973"
       transform="matrix(0.98259094,0,0,1,-413.91255,-100.0061)">
      <path
         id="path3969"
         d="m 479.25595,111.0061 4.07087,18 -18.31892,-4 -2.03543,-4 12.21261,-12 z"
         style="fill:#ffffff;stroke:#0b1521;stroke-width:2.01763964;stroke-linecap:butt;stroke-linejoin:round;stroke-opacity:1" />
      <path
         id="path3843"
         d="m 438.54725,71.006094 -4.07087,4 40.7087,40.000006 c 0,-3 1.01772,-4 4.07087,-4 z"
         style="fill:#729fcf;stroke:none" />
      <path
         id="path3843-7"
         d="m 434.47638,75.006087 -6.10631,6.000013 40.7087,40 c 0,-3 3.05316,-6 6.10631,-6 z"
         style="fill:url(#linearGradient3797);stroke:none;fill-opacity:1" />
      <path
         id="path3843-5"
         d="m 428.37007,81.0061 -4.07087,4 40.7087,40 c 0,-3 1.01772,-4 4.07087,-4 z"
         style="fill:url(#linearGradient3805);stroke:none;fill-opacity:1" />
      <path
         id="path3843-5-6"
         d="m 438.54725,71.006097 -4.07087,4 40.7087,40.000003 c 0,-3 1.01772,-4 4.07087,-4 z"
         style="fill:none;stroke:#0b1521;stroke-width:2.01763964;stroke-linecap:butt;stroke-linejoin:round;stroke-opacity:1" />
      <path
         id="path3843-5-6-2"
         d="m 434.47638,75.006097 -6.10631,6.000003 40.7087,40 c 0,-3 3.05316,-6 6.10631,-6 z"
         style="fill:none;stroke:#0b1521;stroke-width:2.01763964;stroke-linecap:butt;stroke-linejoin:round;stroke-opacity:1" />
      <path
         style="fill:none;stroke:#3465a4;stroke-width:2;stroke-linecap:butt;stroke-linejoin:miter;stroke-opacity:1"
         d="M 4.9999978,16 43.999998,55.156281"
         id="path3807"
         transform="matrix(1.0177175,0,0,1,421.24605,68.0061)" />
      <path
         id="path3843-5-6-9"
         d="m 428.37007,81.0061 -4.07087,4 40.7087,40 c 0,-3 1.01772,-4 4.07087,-4 z"
         style="fill:none;stroke:#0b1521;stroke-width:2.01763964;stroke-linecap:butt;stroke-linejoin:round;stroke-opacity:1" />
      <path
         id="path3971"
         d="m 479.25595,122.0061 c -1.01772,0 -3.63385,2.51623 -4.07087,5 l 8.14174,2 -3.05315,-7 -1.01772,0"
         style="fill:#0b1521;stroke:#0b1521;stroke-width:1.00881982px;stroke-linecap:butt;stroke-linejoin:round;stroke-opacity:1" />
    </g>
  </g>
</svg>
