/* XPM */
static const char * Feature_xpm[] = {
"16 16 7 1",
" 	c None",
".	c #000200",
"+	c #000300",
"@	c #000400",
"#	c #00FE00",
"$	c #000000",
"%	c #00F600",
"                ",
"                ",
"    .+++++.     ",
"    @#####.$$$  ",
" $$$.#####@     ",
"    @#####@     ",
" $$$.#####@     ",
"    @#####@     ",
" $$$.#####@     ",
"    @#####@     ",
"    @#####@     ",
"    @#####@     ",
"    @%%%%%@     ",
"    .+++++.     ",
"                ",
"                "};
