<?xml version="1.0" encoding="UTF-8" standalone="no"?>
<!-- Created with Inkscape (http://www.inkscape.org/) -->

<svg
   width="64"
   height="64"
   id="svg1306"
   version="1.1"
   xmlns="http://www.w3.org/2000/svg"
   xmlns:svg="http://www.w3.org/2000/svg"
   xmlns:rdf="http://www.w3.org/1999/02/22-rdf-syntax-ns#"
   xmlns:cc="http://creativecommons.org/ns#"
   xmlns:dc="http://purl.org/dc/elements/1.1/">
  <defs
     id="defs1308" />
  <metadata
     id="metadata1311">
    <rdf:RDF>
      <cc:Work
         rdf:about="">
        <dc:format>image/svg+xml</dc:format>
        <dc:type
           rdf:resource="http://purl.org/dc/dcmitype/StillImage" />
      </cc:Work>
    </rdf:RDF>
  </metadata>
  <g
     id="layer1"
     transform="translate(0,48)">
    <g
       id="g2989"
       transform="matrix(4.7497799,0,0,4.7497799,-3.7219756,-54.025163)">
      <path
         id="path1316"
         d="m 5.3216464,5.2686995 c -3.485356,0 -3.485356,0 -3.485356,0 l 0,0"
         style="fill:none;stroke:#172a04;stroke-width:1.26321638;stroke-linecap:round;stroke-linejoin:miter;stroke-opacity:1" />
      <path
         id="path1318"
         d="m 5.3031397,7.3627233 c -3.485356,0 -3.485356,0 -3.485356,0 l 0,0"
         style="fill:none;stroke:#172a04;stroke-width:1.26321638;stroke-linecap:round;stroke-linejoin:miter;stroke-opacity:1" />
      <path
         id="path1320"
         d="m 5.3031397,9.468084 c -3.485356,0 -3.485356,0 -3.485356,0 l 0,0"
         style="fill:none;stroke:#172a04;stroke-width:1.26321638;stroke-linecap:round;stroke-linejoin:miter;stroke-opacity:1" />
      <path
         id="path1322"
         d="m 13.205238,3.5844109 c -3.4853557,0 -3.4853557,0 -3.4853557,0 l 0,0"
         style="fill:none;stroke:#172a04;stroke-width:1.26321638;stroke-linecap:round;stroke-linejoin:miter;stroke-opacity:1" />
      <path
         id="path1316-3"
         d="m 5.3216466,5.2686995 c -3.4853561,0 -3.4853561,0 -3.4853561,0 l 0,0"
         style="fill:none;stroke:#888a85;stroke-width:0.42107214;stroke-linecap:round;stroke-linejoin:miter;stroke-opacity:1" />
      <path
         id="path1318-6"
         d="m 5.3031399,7.3627233 c -3.4853561,0 -3.4853561,0 -3.4853561,0 l 0,0"
         style="fill:none;stroke:#888a85;stroke-width:0.42107214;stroke-linecap:round;stroke-linejoin:miter;stroke-opacity:1" />
      <path
         id="path1320-7"
         d="m 5.3031399,9.468084 c -3.4853561,0 -3.4853561,0 -3.4853561,0 l 0,0"
         style="fill:none;stroke:#888a85;stroke-width:0.42107214;stroke-linecap:round;stroke-linejoin:miter;stroke-opacity:1" />
      <path
         id="path1322-5"
         d="m 13.205238,3.5844109 c -3.4853556,0 -3.4853556,0 -3.4853556,0 l 0,0"
         style="fill:none;stroke:#888a85;stroke-width:0.42107214;stroke-linecap:round;stroke-linejoin:miter;stroke-opacity:1" />
      <rect
         y="2.3211944"
         x="4.3627234"
         height="11.368948"
         width="6.316082"
         id="rect1314"
         style="fill:#00fe00;fill-opacity:1;stroke:#172a04;stroke-width:0.42107213999999998;stroke-miterlimit:4;stroke-opacity:1;stroke-dasharray:none;stroke-linejoin:round" />
    </g>
  </g>
</svg>
