<?xml version="1.0" encoding="UTF-8" standalone="no"?>
<!-- Created with Inkscape (http://www.inkscape.org/) -->

<svg
   width="48px"
   height="48px"
   id="svg4198"
   sodipodi:version="0.32"
   inkscape:version="1.1.2 (0a00cf5339, 2022-02-04, custom)"
   sodipodi:docname="freecad-doc.svg"
   inkscape:output_extension="org.inkscape.output.svg.inkscape"
   version="1.1"
   inkscape:export-filename="/home/yorik/Sources/FreeCAD/src/Gui/Icons/freecad-doc.png"
   inkscape:export-xdpi="128"
   inkscape:export-ydpi="128"
   xmlns:inkscape="http://www.inkscape.org/namespaces/inkscape"
   xmlns:sodipodi="http://sodipodi.sourceforge.net/DTD/sodipodi-0.dtd"
   xmlns:xlink="http://www.w3.org/1999/xlink"
   xmlns="http://www.w3.org/2000/svg"
   xmlns:svg="http://www.w3.org/2000/svg"
   xmlns:rdf="http://www.w3.org/1999/02/22-rdf-syntax-ns#"
   xmlns:cc="http://creativecommons.org/ns#"
   xmlns:dc="http://purl.org/dc/elements/1.1/">
  <defs
     id="defs4200">
    <linearGradient
       id="linearGradient15218">
      <stop
         style="stop-color:#f0f0ef;stop-opacity:1.0000000;"
         offset="0.0000000"
         id="stop15220" />
      <stop
         id="stop2269"
         offset="0.59928656"
         style="stop-color:#e8e8e8;stop-opacity:1;" />
      <stop
         id="stop2267"
         offset="0.82758623"
         style="stop-color:#ffffff;stop-opacity:1;" />
      <stop
         style="stop-color:#d8d8d3;stop-opacity:1.0000000;"
         offset="1.0000000"
         id="stop15222" />
    </linearGradient>
    <linearGradient
       inkscape:collect="always"
       id="linearGradient2259">
      <stop
         style="stop-color:#ffffff;stop-opacity:1;"
         offset="0"
         id="stop2261" />
      <stop
         style="stop-color:#ffffff;stop-opacity:0;"
         offset="1"
         id="stop2263" />
    </linearGradient>
    <linearGradient
       id="linearGradient2224">
      <stop
         style="stop-color:#7c7c7c;stop-opacity:1;"
         offset="0"
         id="stop2226" />
      <stop
         style="stop-color:#b8b8b8;stop-opacity:1;"
         offset="1"
         id="stop2228" />
    </linearGradient>
    <linearGradient
       inkscape:collect="always"
       xlink:href="#linearGradient2224"
       id="linearGradient2230"
       x1="35.996582"
       y1="40.458221"
       x2="33.664921"
       y2="37.770721"
       gradientUnits="userSpaceOnUse"
       gradientTransform="translate(6.161836,4.033411)" />
    <linearGradient
       inkscape:collect="always"
       id="linearGradient2251">
      <stop
         style="stop-color:#ffffff;stop-opacity:1;"
         offset="0"
         id="stop2253" />
      <stop
         style="stop-color:#ffffff;stop-opacity:0;"
         offset="1"
         id="stop2255" />
    </linearGradient>
    <linearGradient
       inkscape:collect="always"
       xlink:href="#linearGradient2251"
       id="linearGradient2257"
       x1="33.396004"
       y1="36.921333"
       x2="34.170048"
       y2="38.070381"
       gradientUnits="userSpaceOnUse"
       gradientTransform="translate(6.161836,3.658411)" />
    <linearGradient
       inkscape:collect="always"
       xlink:href="#linearGradient2259"
       id="linearGradient13651"
       gradientUnits="userSpaceOnUse"
       gradientTransform="matrix(0.999421,0,0,1,5.991319,4.033411)"
       x1="26.076092"
       y1="26.696676"
       x2="30.811172"
       y2="42.007351" />
    <linearGradient
       inkscape:collect="always"
       xlink:href="#linearGradient15218"
       id="linearGradient13653"
       gradientUnits="userSpaceOnUse"
       gradientTransform="matrix(1.067236,0,0,0.989276,4.391684,4.035227)"
       x1="22.308331"
       y1="18.992140"
       x2="35.785294"
       y2="39.498238" />
    <linearGradient
       id="linearGradient3864">
      <stop
         style="stop-color:#71b2f8;stop-opacity:1;"
         offset="0"
         id="stop3866" />
      <stop
         style="stop-color:#002795;stop-opacity:1;"
         offset="1"
         id="stop3868" />
    </linearGradient>
    <linearGradient
       id="linearGradient3682">
      <stop
         id="stop3684"
         offset="0"
         style="stop-color:#ff6d0f;stop-opacity:1;" />
      <stop
         id="stop3686"
         offset="1"
         style="stop-color:#ff1000;stop-opacity:1;" />
    </linearGradient>
    <inkscape:perspective
       id="perspective3148"
       inkscape:persp3d-origin="32 : 21.333333 : 1"
       inkscape:vp_z="64 : 32 : 1"
       inkscape:vp_y="0 : 1000 : 0"
       inkscape:vp_x="0 : 32 : 1"
       sodipodi:type="inkscape:persp3d" />
    <linearGradient
       id="linearGradient3864-9">
      <stop
         id="stop3866-1"
         offset="0"
         style="stop-color:#204a87;stop-opacity:1" />
      <stop
         id="stop3868-1"
         offset="1"
         style="stop-color:#729fcf;stop-opacity:1" />
    </linearGradient>
    <linearGradient
       id="linearGradient3682-0">
      <stop
         style="stop-color:#a40000;stop-opacity:1"
         offset="0"
         id="stop3684-0" />
      <stop
         style="stop-color:#ef2929;stop-opacity:1"
         offset="1"
         id="stop3686-0" />
    </linearGradient>
    <inkscape:perspective
       sodipodi:type="inkscape:persp3d"
       inkscape:vp_x="0 : 32 : 1"
       inkscape:vp_y="0 : 1000 : 0"
       inkscape:vp_z="64 : 32 : 1"
       inkscape:persp3d-origin="32 : 21.333333 : 1"
       id="perspective3148-5" />
    <radialGradient
       inkscape:collect="always"
       xlink:href="#linearGradient3682-0-6"
       id="radialGradient3817-5-3"
       gradientUnits="userSpaceOnUse"
       gradientTransform="matrix(1.2361257,0.30001695,-0.83232803,3.3883821,-499.9452,-167.33108)"
       cx="270.58316"
       cy="33.899986"
       fx="270.58316"
       fy="33.899986"
       r="19.571428" />
    <linearGradient
       id="linearGradient3682-0-6">
      <stop
         style="stop-color:#ff390f;stop-opacity:1"
         offset="0"
         id="stop3684-0-7" />
      <stop
         style="stop-color:#ff1000;stop-opacity:1;"
         offset="1"
         id="stop3686-0-5" />
    </linearGradient>
    <linearGradient
       id="linearGradient5060"
       inkscape:collect="always">
      <stop
         id="stop5062"
         offset="0"
         style="stop-color:black;stop-opacity:1;" />
      <stop
         id="stop5064"
         offset="1"
         style="stop-color:black;stop-opacity:0;" />
    </linearGradient>
    <linearGradient
       id="linearGradient5048">
      <stop
         id="stop5050"
         offset="0"
         style="stop-color:black;stop-opacity:0;" />
      <stop
         style="stop-color:black;stop-opacity:1;"
         offset="0.5"
         id="stop5056" />
      <stop
         id="stop5052"
         offset="1"
         style="stop-color:black;stop-opacity:0;" />
    </linearGradient>
    <linearGradient
       id="linearGradient15662">
      <stop
         style="stop-color:#ffffff;stop-opacity:1.0000000;"
         offset="0.0000000"
         id="stop15664" />
      <stop
         style="stop-color:#f8f8f8;stop-opacity:1.0000000;"
         offset="1.0000000"
         id="stop15666" />
    </linearGradient>
    <radialGradient
       gradientUnits="userSpaceOnUse"
       fy="64.5679"
       fx="20.8921"
       r="5.257"
       cy="64.5679"
       cx="20.8921"
       id="aigrd3">
      <stop
         id="stop15573"
         style="stop-color:#F0F0F0"
         offset="0" />
      <stop
         id="stop15575"
         style="stop-color:#9a9a9a;stop-opacity:1.0000000;"
         offset="1.0000000" />
    </radialGradient>
    <radialGradient
       gradientUnits="userSpaceOnUse"
       fy="114.5684"
       fx="20.8921"
       r="5.256"
       cy="114.5684"
       cx="20.8921"
       id="aigrd2">
      <stop
         id="stop15566"
         style="stop-color:#F0F0F0"
         offset="0" />
      <stop
         id="stop15568"
         style="stop-color:#9a9a9a;stop-opacity:1.0000000;"
         offset="1.0000000" />
    </radialGradient>
    <linearGradient
       id="linearGradient269">
      <stop
         style="stop-color:#a3a3a3;stop-opacity:1.0000000;"
         offset="0.0000000"
         id="stop270" />
      <stop
         style="stop-color:#4c4c4c;stop-opacity:1.0000000;"
         offset="1.0000000"
         id="stop271" />
    </linearGradient>
    <linearGradient
       id="linearGradient259">
      <stop
         style="stop-color:#fafafa;stop-opacity:1.0000000;"
         offset="0.0000000"
         id="stop260" />
      <stop
         style="stop-color:#bbbbbb;stop-opacity:1.0000000;"
         offset="1.0000000"
         id="stop261" />
    </linearGradient>
    <radialGradient
       gradientUnits="userSpaceOnUse"
       gradientTransform="matrix(1.000000,0.000000,0.000000,0.284916,0.000000,30.08928)"
       r="15.821514"
       fy="42.07798"
       fx="24.306795"
       cy="42.07798"
       cx="24.306795"
       id="radialGradient4548"
       xlink:href="#linearGradient5060"
       inkscape:collect="always" />
    <inkscape:path-effect
       effect="fillet_chamfer"
       id="path-effect21669"
       is_visible="true"
       lpeversion="1"
       satellites_param="F,0,0,1,0,0.026458333,0,1 @ F,0,0,1,0,0.026458333,0,1 @ F,0,0,1,0,0.026458333,0,1 @ F,0,0,1,0,0.026458333,0,1 @ F,0,0,1,0,0.026458333,0,1 @ F,0,0,1,0,0.026458333,0,1 @ F,0,0,1,0,0.026458333,0,1 @ F,0,0,1,0,0.026458333,0,1 @ F,0,0,1,0,0.026458333,0,1 @ F,0,0,1,0,0.026458333,0,1 @ F,0,0,1,0,0.026458333,0,1 @ F,0,0,1,0,0.026458333,0,1 @ F,0,0,1,0,0.026458333,0,1 @ F,0,0,1,0,0.026458333,0,1 @ F,0,0,1,0,0.026458333,0,1 @ F,0,0,1,0,0.026458333,0,1 @ F,0,0,1,0,0.026458333,0,1 @ F,0,0,1,0,0.026458333,0,1 @ F,0,0,1,0,0.026458333,0,1 @ F,0,0,1,0,0.026458333,0,1 @ F,0,0,1,0,0.026458333,0,1 @ F,0,0,1,0,0.026458333,0,1 @ F,0,0,1,0,0.026458333,0,1 @ F,0,0,1,0,0.026458333,0,1 @ F,0,0,1,0,0.026458333,0,1 @ F,0,0,1,0,0.026458333,0,1 @ F,0,0,1,0,0.026458333,0,1 @ F,0,0,1,0,0.026458333,0,1 @ F,0,0,1,0,0.026458333,0,1 @ F,0,0,1,0,0.026458333,0,1 @ F,0,0,1,0,0.026458333,0,1 @ F,0,0,1,0,0.026458333,0,1 @ F,0,0,1,0,0.026458333,0,1 @ F,0,0,1,0,0.026458333,0,1 @ F,0,0,1,0,0.026458333,0,1 @ F,0,0,1,0,0.026458333,0,1 @ F,0,0,1,0,0.026458333,0,1 @ F,0,0,1,0,0.026458333,0,1 @ F,0,0,1,0,0.026458333,0,1 @ F,0,0,1,0,0.026458333,0,1 @ F,0,0,1,0,0.026458333,0,1 @ F,0,0,1,0,0.026458333,0,1 @ F,0,0,1,0,0.026458333,0,1 @ F,0,0,1,0,0.026458333,0,1 @ F,0,0,1,0,0.026458333,0,1 @ F,0,0,1,0,0.026458333,0,1 @ F,0,0,1,0,0.026458333,0,1 @ F,0,0,1,0,0.026458333,0,1 @ F,0,0,1,0,0.026458333,0,1 @ F,0,0,1,0,0.026458333,0,1 @ F,0,0,1,0,0.026458333,0,1 @ F,0,0,1,0,0.026458333,0,1 @ F,0,0,1,0,0.026458333,0,1 @ F,0,0,1,0,0.026458333,0,1 @ F,0,0,1,0,0.026458333,0,1 @ F,0,0,1,0,0.026458333,0,1 @ F,0,0,1,0,0.026458333,0,1 @ F,0,0,1,0,0.026458333,0,1 @ F,0,0,1,0,0.026458333,0,1 @ F,0,0,1,0,0.026458333,0,1 @ F,0,0,1,0,0.026458333,0,1 @ F,0,0,1,0,0.026458333,0,1 @ F,0,0,1,0,0.026458333,0,1 @ F,0,0,1,0,0.026458333,0,1 @ F,0,0,1,0,0.026458333,0,1 @ F,0,0,1,0,0.026458333,0,1 @ F,0,0,1,0,0.026458333,0,1 @ F,0,0,1,0,0.026458333,0,1 @ F,0,0,1,0,0.026458333,0,1 @ F,0,0,1,0,0.026458333,0,1 @ F,0,0,1,0,0.026458333,0,1 @ F,0,0,1,0,0.026458333,0,1 @ F,0,0,1,0,0.026458333,0,1"
       unit="px"
       method="auto"
       mode="F"
       radius="0.1"
       chamfer_steps="1"
       flexible="false"
       use_knot_distance="true"
       apply_no_radius="true"
       apply_with_radius="true"
       only_selected="false"
       hide_knots="false" />
    <inkscape:path-effect
       effect="offset"
       id="path-effect21663"
       is_visible="true"
       lpeversion="1"
       linejoin_type="miter"
       unit="mm"
       offset="-0.1"
       miter_limit="4"
       attempt_force_join="false"
       update_on_knot_move="true" />
    <inkscape:path-effect
       effect="offset"
       id="path-effect21342"
       is_visible="true"
       lpeversion="1"
       linejoin_type="miter"
       unit="mm"
       offset="-0.1"
       miter_limit="4"
       attempt_force_join="false"
       update_on_knot_move="true" />
    <inkscape:path-effect
       effect="offset"
       id="path-effect20814"
       is_visible="true"
       lpeversion="1"
       linejoin_type="miter"
       unit="mm"
       offset="0"
       miter_limit="4"
       attempt_force_join="false"
       update_on_knot_move="true" />
    <inkscape:path-effect
       effect="fillet_chamfer"
       id="path-effect16392"
       is_visible="true"
       lpeversion="1"
       satellites_param="F,0,0,1,0,0.13229167,0,1 @ F,0,0,1,0,0.13229167,0,1 @ F,0,0,1,0,0.13229167,0,1 @ F,0,0,1,0,0.13229167,0,1 @ F,0,0,1,0,0.13229167,0,1 @ F,0,0,1,0,0.13229167,0,1 @ F,0,0,1,0,0.13229167,0,1 @ F,0,0,1,0,0.13229167,0,1 @ F,0,0,1,0,0.13229167,0,1 @ F,0,0,1,0,0.13229167,0,1"
       unit="px"
       method="auto"
       mode="F"
       radius="0.5"
       chamfer_steps="1"
       flexible="false"
       use_knot_distance="true"
       apply_no_radius="true"
       apply_with_radius="true"
       only_selected="false"
       hide_knots="false" />
    <linearGradient
       inkscape:collect="always"
       id="linearGradient7447">
      <stop
         style="stop-color:#db5b52;stop-opacity:1"
         offset="0"
         id="stop7443" />
      <stop
         style="stop-color:#6c464f;stop-opacity:1"
         offset="1"
         id="stop7445" />
    </linearGradient>
    <linearGradient
       inkscape:collect="always"
       id="linearGradient6475">
      <stop
         style="stop-color:#226ca2;stop-opacity:1;"
         offset="0"
         id="stop6471" />
      <stop
         style="stop-color:#464c75;stop-opacity:1"
         offset="1"
         id="stop6473" />
    </linearGradient>
    <linearGradient
       inkscape:collect="always"
       xlink:href="#linearGradient7447"
       id="linearGradient7449"
       x1="13.685"
       y1="16.671478"
       x2="117.0837"
       y2="665.84442"
       gradientUnits="userSpaceOnUse"
       gradientTransform="matrix(0.02095362,0,0,0.02076322,0.7991877,0.11284921)" />
    <inkscape:path-effect
       effect="offset"
       id="path-effect20814-4"
       is_visible="true"
       lpeversion="1"
       linejoin_type="miter"
       unit="mm"
       offset="0"
       miter_limit="4"
       attempt_force_join="false"
       update_on_knot_move="true" />
    <inkscape:path-effect
       effect="fillet_chamfer"
       id="path-effect16392-9"
       is_visible="true"
       lpeversion="1"
       satellites_param="F,0,0,1,0,0.13229167,0,1 @ F,0,0,1,0,0.13229167,0,1 @ F,0,0,1,0,0.13229167,0,1 @ F,0,0,1,0,0.13229167,0,1 @ F,0,0,1,0,0.13229167,0,1 @ F,0,0,1,0,0.13229167,0,1 @ F,0,0,1,0,0.13229167,0,1 @ F,0,0,1,0,0.13229167,0,1 @ F,0,0,1,0,0.13229167,0,1 @ F,0,0,1,0,0.13229167,0,1"
       unit="px"
       method="auto"
       mode="F"
       radius="0.5"
       chamfer_steps="1"
       flexible="false"
       use_knot_distance="true"
       apply_no_radius="true"
       apply_with_radius="true"
       only_selected="false"
       hide_knots="false" />
    <radialGradient
       inkscape:collect="always"
       xlink:href="#linearGradient6475"
       id="radialGradient31462"
       cx="6.8946376"
       cy="6.2583103"
       fx="6.8946376"
       fy="6.2583103"
       r="4.5834169"
       gradientTransform="matrix(1,0,0,1.1137475,0,-0.90935024)"
       gradientUnits="userSpaceOnUse" />
  </defs>
  <sodipodi:namedview
     id="base"
     pagecolor="#ffffff"
     bordercolor="#bebebe"
     borderopacity="1.0000000"
     inkscape:pageopacity="0.0"
     inkscape:pageshadow="2"
     inkscape:zoom="8.0000002"
     inkscape:cx="18.1875"
     inkscape:cy="18.9375"
     inkscape:current-layer="layer1"
     showgrid="false"
     inkscape:grid-bbox="true"
     inkscape:document-units="px"
     inkscape:window-width="1920"
     inkscape:window-height="1017"
     inkscape:window-x="-8"
     inkscape:window-y="-8"
     inkscape:showpageshadow="false"
     inkscape:window-maximized="1"
     inkscape:pagecheckerboard="1" />
  <metadata
     id="metadata4203">
    <rdf:RDF>
      <cc:Work
         rdf:about="">
        <dc:format>image/svg+xml</dc:format>
        <dc:type
           rdf:resource="http://purl.org/dc/dcmitype/StillImage" />
        <dc:title />
        <dc:date>2005-10-15</dc:date>
        <dc:creator>
          <cc:Agent>
            <dc:title>Andreas Nilsson</dc:title>
          </cc:Agent>
        </dc:creator>
        <dc:subject>
          <rdf:Bag>
            <rdf:li>edit</rdf:li>
            <rdf:li>copy</rdf:li>
          </rdf:Bag>
        </dc:subject>
        <cc:license
           rdf:resource="http://creativecommons.org/licenses/by-sa/2.0/" />
        <dc:contributor>
          <cc:Agent>
            <dc:title>Jakub Steiner</dc:title>
          </cc:Agent>
        </dc:contributor>
      </cc:Work>
      <cc:License
         rdf:about="http://creativecommons.org/licenses/by-sa/2.0/">
        <cc:permits
           rdf:resource="http://web.resource.org/cc/Reproduction" />
        <cc:permits
           rdf:resource="http://web.resource.org/cc/Distribution" />
        <cc:requires
           rdf:resource="http://web.resource.org/cc/Notice" />
        <cc:requires
           rdf:resource="http://web.resource.org/cc/Attribution" />
        <cc:permits
           rdf:resource="http://web.resource.org/cc/DerivativeWorks" />
        <cc:requires
           rdf:resource="http://web.resource.org/cc/ShareAlike" />
      </cc:License>
    </rdf:RDF>
  </metadata>
  <g
     id="layer1"
     inkscape:label="Layer 1"
     inkscape:groupmode="layer">
    <g
       id="g12863"
       transform="matrix(1.2108584,0,0,1.2108584,-12.827654,-10.483764)">
      <path
         style="fill:url(#linearGradient13653);fill-opacity:1;fill-rule:evenodd;stroke:#888a85;stroke-width:1.00000024;stroke-linecap:butt;stroke-linejoin:miter;stroke-miterlimit:4;stroke-dashoffset:0;stroke-opacity:1"
         d="m 15.072946,10.500852 h 29.856385 c 0.31574,0 0.569926,0.253093 0.569926,0.567472 v 27.167362 c 0,2.476452 -6.87981,8.303087 -9.267932,8.303087 H 15.072946 c -0.31574,0 -0.569926,-0.253092 -0.569926,-0.567473 V 11.068324 c 0,-0.314379 0.254186,-0.567472 0.569926,-0.567472 z"
         id="rect12413"
         sodipodi:nodetypes="ccccccccc"
         inkscape:connector-curvature="0" />
      <rect
         ry="0.0000000"
         rx="0.0000000"
         y="11.5"
         x="15.502951"
         height="34.040764"
         width="28.997349"
         id="rect15244"
         style="opacity:1;fill:none;fill-opacity:1;fill-rule:evenodd;stroke:url(#linearGradient13651);stroke-width:1.00000083;stroke-linecap:butt;stroke-linejoin:miter;stroke-miterlimit:4;stroke-dasharray:none;stroke-dashoffset:0;stroke-opacity:1" />
      <path
         sodipodi:nodetypes="cccc"
         id="path2210"
         d="m 36.220918,46.536966 c 2.030418,0.329898 9.588793,-4.529929 9.284411,-8.497844 -1.563262,2.423097 -4.758522,1.286738 -8.86728,1.445748 0,0 0.395369,6.552096 -0.417131,7.052096 z"
         style="color:#000000;display:inline;overflow:visible;visibility:visible;opacity:1;fill:url(#linearGradient2230);fill-opacity:1;fill-rule:evenodd;stroke:#868a84;stroke-width:1.00000024;stroke-linecap:butt;stroke-linejoin:miter;stroke-miterlimit:4;stroke-dasharray:none;stroke-dashoffset:0;stroke-opacity:1;marker:none;marker-start:none;marker-mid:none;marker-end:none"
         inkscape:connector-curvature="0" />
      <path
         style="color:#000000;display:inline;overflow:visible;visibility:visible;opacity:0.36931817;fill:none;fill-opacity:1;fill-rule:evenodd;stroke:url(#linearGradient2257);stroke-width:0.99999982;stroke-linecap:butt;stroke-linejoin:miter;stroke-miterlimit:4;stroke-dasharray:none;stroke-dashoffset:0;stroke-opacity:1;marker:none;marker-start:none;marker-mid:none;marker-end:none"
         d="m 37.671355,44.345464 c 1.369779,-0.683829 4.428249,-2.146465 5.72763,-4.027469 -1.596094,0.680055 -2.94781,0.209496 -5.702334,0.190405 0,0 0.162322,3.062094 -0.0253,3.837064 z"
         id="path2247"
         sodipodi:nodetypes="cccc"
         inkscape:connector-curvature="0" />
    </g>
    <g
       id="g14435"
       style="stroke-width:0.720655;stroke-miterlimit:4;stroke-dasharray:none;paint-order:stroke fill markers"
       transform="matrix(1.8156767,0,0,1.8156767,10.718612,11.332663)">
      <g
         id="g18464"
         transform="rotate(0.03325942,65.979368,632.98644)">
        <path
           id="polygon832"
           style="fill:url(#radialGradient31462);fill-opacity:1;stroke:#121520;stroke-width:1.01041;stroke-linecap:round;stroke-miterlimit:4;stroke-dasharray:none;stroke-opacity:1;paint-order:stroke markers fill"
           d="M 3.9628013,8.747472 4.6647349,8.685909 a 0.03259339,0.03259339 34.056379 0 1 0.034038,0.023007 l 0.185652,0.6120136 a 0.26863585,0.26863585 67.500027 0 0 0.020153,0.048653 l 0.3014836,0.5640368 a 0.03259341,0.03259341 100.94366 0 1 -0.0078,0.040337 L 4.6583891,10.426766 a 0.03452746,0.03452746 102.54942 0 0 -0.00913,0.041 l 0.3266668,0.703311 a 0.07018862,0.07018862 44.43208 0 0 0.035358,0.03466 L 5.682085,11.501282 A 0.03524568,0.03524568 166.88269 0 0 5.7233,11.491682 L 6.1761099,10.95181 a 0.03259336,0.03259336 169.05643 0 1 0.040337,-0.0078 l 0.5640348,0.301485 a 0.26862838,0.26862838 22.499948 0 0 0.048653,0.02015 l 0.612015,0.185651 a 0.03259328,0.03259328 55.943534 0 1 0.023008,0.03404 l -0.061563,0.701933 a 0.03530317,0.03530317 58.162165 0 0 0.022337,0.03597 l 0.7380962,0.287951 a 0.06495669,0.06495669 179.14987 0 0 0.049002,-7.27e-4 l 0.67454,-0.286497 a 0.03641685,0.03641685 120.98774 0 0 0.022041,-0.0367 l -0.061562,-0.701933 a 0.03259337,0.03259337 124.05647 0 1 0.023008,-0.03404 L 9.482073,11.265646 a 0.26863172,0.26863172 157.50006 0 0 0.048653,-0.02015 l 0.564037,-0.301485 a 0.03259339,0.03259339 10.943622 0 1 0.04034,0.0078 l 0.452809,0.539872 a 0.03639275,0.03639275 13.994295 0 0 0.04153,0.01035 l 0.734322,-0.297038 a 0.0605384,0.0605384 134.36856 0 0 0.03391,-0.03466 l 0.266047,-0.701822 a 0.03724907,0.03724907 75.37431 0 0 -0.01089,-0.04174 L 11.112952,9.9739562 a 0.03259348,0.03259348 79.056388 0 1 -0.0078,-0.040337 l 0.301483,-0.5640344 a 0.02398044,0.02398044 70.312477 0 0 -0.01197,-0.033459 L 9.7956438,8.6737906 a 0.02919219,0.02919219 160.31241 0 0 -0.036917,0.013209 L 9.6220753,8.9426592 A 0.26863448,0.26863448 123.74986 0 1 9.5928181,8.986446 L 9.4089148,9.2105336 a 0.26863023,0.26863023 135.00001 0 1 -0.037237,0.037237 L 9.147588,9.4316756 A 0.26864194,0.26864194 146.25 0 1 9.103801,9.4609326 L 8.8481429,9.5975861 a 0.26863299,0.26863299 157.49994 0 1 -0.048653,0.020153 L 8.522082,9.7018897 a 0.2686327,0.2686327 168.75007 0 1 -0.05165,0.010274 L 8.181937,9.740577 a 0.26864159,0.26864159 1.9658396e-5 0 1 -0.052662,0 L 7.8407825,9.7121634 a 0.26863776,0.26863776 11.249865 0 1 -0.05165,-0.010274 L 7.511725,9.61774 A 0.26863199,0.26863199 22.499911 0 1 7.4630717,9.5975872 L 7.2074103,9.4609334 A 0.2686365,0.2686365 33.749982 0 1 7.1636235,9.431676 L 6.9395362,9.2477725 A 0.26863202,0.26863202 45.000053 0 1 6.9022987,9.2105349 L 6.718395,8.9864466 A 0.26864208,0.26864208 56.250008 0 1 6.689138,8.9426596 L 6.5524842,8.6869996 A 0.26862807,0.26862807 67.500045 0 1 6.5323312,8.6383466 L 6.4481812,8.360939 A 0.26864325,0.26864325 78.750057 0 1 6.4379072,8.309289 L 6.4094931,8.0207949 a 0.26863139,0.26863139 90.000001 0 1 0,-0.052662 L 6.4379078,7.679639 a 0.26864317,0.26864317 101.24995 0 1 0.010274,-0.05165 l 0.08415,-0.2774075 a 0.26863114,0.26863114 112.4999 0 1 0.020153,-0.048653 L 6.6891366,7.0462689 A 0.26863673,0.26863673 123.74998 0 1 6.718394,7.0024821 L 6.9022986,6.7783934 a 0.26863473,0.26863473 134.99999 0 1 0.037238,-0.037238 L 7.1636235,6.5572522 a 0.26863194,0.26863194 146.2501 0 1 0.043787,-0.029257 L 7.4630717,6.3913421 a 0.2686401,0.2686401 157.5001 0 1 0.048653,-0.020153 l 0.2774067,-0.08415 a 0.2686367,0.2686367 168.75 0 1 0.05165,-0.010274 L 8.1292752,6.248351 a 0.26863559,0.26863559 179.99999 0 1 0.052662,0 l 0.2884951,0.028414 a 0.26863552,0.26863552 11.250006 0 1 0.05165,0.010274 l 0.2774055,0.08415 a 0.26863808,0.26863808 22.499971 0 1 0.048653,0.020153 l 0.25566,0.1366528 a 0.26864096,0.26864096 33.749823 0 1 0.043787,0.029257 l 0.2240896,0.1839038 a 0.26862497,0.26862497 44.999947 0 1 0.037238,0.037237 l 0.1839033,0.2240882 a 0.26863563,0.26863563 56.250183 0 1 0.029257,0.043787 L 9.7587272,7.301928 a 0.02919218,0.02919218 19.6876 0 0 0.036917,0.013209 L 11.394663,6.6528021 a 0.02398049,0.02398049 109.68757 0 0 0.01197,-0.033459 L 11.108417,6.0614142 A 7.7004749,7.7004749 61.823462 0 0 11.092645,6.03197 l 0.560169,-0.4698078 a 0.03724843,0.03724843 104.62681 0 0 0.01089,-0.041743 l -0.26604,-0.7018231 a 0.06053737,0.06053737 45.631731 0 0 -0.03391,-0.034662 L 10.62944,4.4868965 a 0.03639291,0.03639291 166.00576 0 0 -0.04153,0.01035 l -0.452811,0.539871 a 0.03259348,0.03259348 169.05647 0 1 -0.04034,0.0078 L 9.5307276,4.7434347 A 0.26863556,0.26863556 22.500035 0 0 9.4820744,4.7232818 L 8.8700608,4.5376293 A 0.03259355,0.03259355 55.943538 0 1 8.8470533,4.5035916 L 8.9086132,3.80166 A 0.03641687,0.03641687 59.012125 0 0 8.8865719,3.7649595 L 8.2120333,3.4784654 A 0.06495697,0.06495697 0.85010385 0 0 8.1630315,3.4777383 L 7.4249364,3.7656875 a 0.03530327,0.03530327 121.83797 0 0 -0.022337,0.035973 l 0.06156,0.7019317 a 0.03259351,0.03259351 124.05649 0 1 -0.023008,0.034038 L 6.8291387,4.7232819 a 0.26863362,0.26863362 157.49999 0 0 -0.048653,0.020153 L 6.2164508,5.0449183 a 0.0325935,0.0325935 10.943494 0 1 -0.040337,-0.0078 L 5.7233016,4.4972478 a 0.03524575,0.03524575 13.117168 0 0 -0.041215,-0.0096 L 5.0112854,4.7831906 a 0.07018868,0.07018868 135.56784 0 0 -0.035358,0.034664 L 4.6492627,5.5211625 a 0.03452761,0.03452761 77.450634 0 0 0.00913,0.040999 l 0.5398712,0.452811 a 0.03259349,0.03259349 79.05643 0 1 0.0078,0.040337 L 4.9045773,6.6193439 a 0.26863572,0.26863572 112.49999 0 0 -0.020153,0.048653 L 4.6987723,7.28001 A 0.03259349,0.03259349 145.94355 0 1 4.6647343,7.303017 L 3.9628023,7.241457 A 0.0344817,0.0344817 147.51254 0 0 3.9273902,7.264006 L 3.6703927,7.9696038 a 0.07264264,0.07264264 90.000032 0 0 0,0.049721 l 0.2569965,0.7055977 a 0.03448156,0.03448156 32.487414 0 0 0.035412,0.02255 z"
           sodipodi:nodetypes="cccccccccccccccccccccccccccccccccccccccccccccccccccccccccccccccccccccccccc"
           inkscape:path-effect="#path-effect21669"
           inkscape:original-d="m 3.9364441,8.7497836 0.754648,-0.066186 0.2010128,0.6626516 0.3264284,0.6107052 -0.5804161,0.4868146 0.3489578,0.751303 0.7192261,0.316881 0.4868155,-0.580416 0.610703,0.326429 0.6626532,0.201011 -0.066186,0.754647 0.7873942,0.307183 0.7232456,-0.307183 -0.066185,-0.754647 0.6626505,-0.201011 0.6107049,-0.326429 0.486815,0.580416 0.783378,-0.316882 0.284805,-0.751302 L 11.09268,9.9569534 11.419107,9.3462506 9.7711995,8.6636654 9.609603,8.9659934 9.3921299,9.2309862 9.1271349,9.448461 8.8248088,9.6100585 8.496763,9.7095701 8.1556061,9.7431703 7.8144516,9.7095701 7.4864059,9.6100596 7.1840761,9.448461 6.9190836,9.2309875 6.7016101,8.965994 6.5400115,8.6636658 6.4405012,8.33562 6.4068997,7.994464 6.4405012,7.6533081 6.5400115,7.3252624 6.701609,7.0229347 6.9190836,6.7579408 7.1840761,6.5404672 7.4864059,6.3788698 7.8144506,6.2793586 8.1556061,6.2457576 8.496763,6.2793586 8.8248065,6.3788696 9.1271349,6.540467 9.3921299,6.7579406 9.609603,7.022934 9.7711995,7.3252622 11.419107,6.6426769 11.095945,6.03808 11.092645,6.03197 11.673086,5.54516 11.38829,4.7938559 10.604912,4.4769749 10.118095,5.0573897 9.5073934,4.7309623 8.8447418,4.5299488 8.9109247,3.7753028 8.1876805,3.4681221 7.4002874,3.7753037 7.4664705,4.5299498 6.8038196,4.7309623 6.1931166,5.0573907 5.7062988,4.476976 4.9870729,4.7938583 4.6381172,5.5451588 5.2185322,6.0319754 4.8921049,6.6426781 4.6910921,7.3053292 3.9364451,7.2391453 3.6613378,7.9944645 Z" />
        <path
           id="polygon832-6"
           style="fill:none;stroke:#fdfdfd;stroke-width:0.155642;stroke-linecap:round;stroke-linejoin:round;stroke-miterlimit:4;stroke-dasharray:none;stroke-opacity:0.65;paint-order:normal"
           d="M 8.1875,3.5566406 C 7.953776,3.6477864 7.7200521,3.7389323 7.4863281,3.8300781 7.5084635,4.0826823 7.530599,4.3352864 7.5527344,4.5878906 7.312194,4.6611545 7.0715886,4.7342143 6.8310889,4.8076058 6.8175741,4.8134481 6.8049516,4.8213647 6.7917832,4.8280123 6.5857982,4.9380759 6.3798131,5.0481395 6.1738281,5.1582031 6.0104167,4.9641927 5.8470052,4.7701823 5.6835938,4.5761719 5.4713542,4.6692709 5.2591146,4.7623698 5.046875,4.8554688 4.9440104,5.077474 4.8411458,5.2994792 4.7382812,5.5214844 4.9322916,5.6848959 5.1263021,5.8483073 5.3203125,6.0117188 5.203776,6.2298177 5.0872396,6.4479167 4.9707031,6.6660156 4.941083,6.7620382 4.9121327,6.8582744 4.8827704,6.9543792 4.8385136,7.0997945 4.7942568,7.2452097 4.75,7.390625 4.4967448,7.3684896 4.2434896,7.3463542 3.9902344,7.3242188 3.9095052,7.5475261 3.8287761,7.7708333 3.7480469,7.9941406 3.8287761,8.2174479 3.9095052,8.4407552 3.9902344,8.6640625 4.2434896,8.6419271 4.4967448,8.6197916 4.75,8.5976562 4.823264,8.8381966 4.8963238,9.078802 4.9697152,9.3193018 c 0.00584,0.013515 0.013759,0.026137 0.020406,0.039306 0.1100636,0.205985 0.2201273,0.4119701 0.3301909,0.6179551 -0.1940104,0.1634111 -0.3880209,0.3268231 -0.5820313,0.4902341 0.1028646,0.222005 0.2057292,0.44401 0.3085938,0.666015 0.2122396,0.0931 0.4244792,0.186198 0.6367188,0.279297 0.1634114,-0.19401 0.3268229,-0.388021 0.4902343,-0.582031 0.218099,0.116537 0.4361979,0.233073 0.6542969,0.34961 0.096266,0.02969 0.1927454,0.05872 0.2890936,0.08815 0.145172,0.04418 0.2903439,0.08837 0.4355158,0.132548 -0.022135,0.252604 -0.044271,0.505208 -0.066406,0.757812 0.233724,0.0918 0.4674479,0.183594 0.7011719,0.275391 0.2122396,-0.09049 0.4244792,-0.18099 0.6367188,-0.271485 -0.021484,-0.253906 -0.042969,-0.507812 -0.064453,-0.761718 0.2408854,-0.07357 0.4817709,-0.147135 0.7226563,-0.220703 0.00625,-9.85e-4 0.01155,-0.0058 0.017422,-0.0083 0.2122918,-0.113773 0.4245836,-0.227547 0.636875,-0.34132 0.164713,0.194661 0.329427,0.389323 0.49414,0.583984 0.23112,-0.0931 0.46224,-0.186197 0.69336,-0.279296 0.08398,-0.222005 0.167969,-0.444011 0.251953,-0.666016 C 11.380859,10.304687 11.185547,10.140625 10.990234,9.9765625 11.095703,9.7799479 11.201172,9.5833334 11.306641,9.3867188 10.807292,9.1796875 10.307943,8.9726563 9.8085938,8.765625 9.764974,8.8476563 9.7213542,8.9296875 9.6777344,9.0117188 9.6015625,9.1035157 9.5253907,9.1953125 9.4492188,9.2871094 9.3567709,9.3639323 9.2643229,9.4407552 9.171875,9.5175781 9.0664063,9.5729167 8.9609375,9.6282552 8.8554688,9.6835938 8.7408855,9.71875 8.6263021,9.7539063 8.5117188,9.7890625 8.3932292,9.8014323 8.2747396,9.8138021 8.15625,9.8261719 8.0371094,9.8138021 7.9179687,9.8014323 7.7988281,9.7890625 7.6842448,9.7539063 7.5696614,9.71875 7.4550781,9.6835938 7.3496094,9.6282552 7.2441406,9.5729167 7.1386719,9.5175781 7.0467436,9.4405283 6.9545607,9.3637331 6.8627915,9.2865242 6.7861318,9.1949224 6.7094722,9.1033206 6.6328125,9.0117188 6.5768229,8.90625 6.5208334,8.8007813 6.4648438,8.6953125 6.4303386,8.5807292 6.3958333,8.4661458 6.3613281,8.3515625 6.3489583,8.2324219 6.3365886,8.1132812 6.3242188,7.9941406 6.3365886,7.875 6.3489583,7.7558594 6.3613281,7.6367188 6.3958333,7.5227865 6.4303386,7.4088542 6.4648438,7.2949219 6.5208334,7.1894531 6.5768229,7.0839844 6.6328125,6.9785156 6.7096354,6.8860677 6.7864583,6.7936198 6.8632812,6.7011719 6.9550781,6.625 7.046875,6.5488281 7.1386719,6.4726562 7.2441406,6.4166666 7.3496094,6.3606771 7.4550781,6.3046875 7.5696614,6.2695313 7.6842448,6.234375 7.7988281,6.1992188 7.9179687,6.1875 8.0371094,6.1757813 8.15625,6.1640625 c 0.1184896,0.011719 0.2369792,0.023437 0.3554688,0.035156 0.1145833,0.035156 0.2291667,0.070312 0.34375,0.1054687 0.1054687,0.05599 0.2109375,0.1119791 0.3164062,0.1679687 0.092448,0.076172 0.1848959,0.1523438 0.2773438,0.2285157 0.076172,0.092448 0.1523437,0.1848958 0.2285156,0.2773437 0.04362,0.082031 0.08724,0.1640625 0.1308594,0.2460938 C 10.307943,7.0169271 10.807292,6.8092448 11.306641,6.6015625 11.212726,6.4262354 11.118991,6.250799 11.024963,6.0755402 11.011434,6.0555684 10.997904,6.0355967 10.984375,6.015625 11.181641,5.8502604 11.378906,5.6848958 11.576172,5.5195312 11.492188,5.297526 11.408203,5.0755208 11.324219,4.8535156 11.093099,4.7604167 10.861979,4.6673177 10.630859,4.5742188 10.466146,4.7688802 10.301432,4.9635417 10.136719,5.1582031 9.919271,5.0416667 9.701823,4.9251302 9.484375,4.8085938 9.4735817,4.8066778 9.4631531,4.8023199 9.4525013,4.7994559 9.2215894,4.7289341 8.9906775,4.6584124 8.7597656,4.5878906 8.78125,4.3339844 8.8027344,4.0800781 8.8242188,3.8261719 8.6119792,3.7363281 8.3997396,3.6464844 8.1875,3.5566406 Z"
           sodipodi:nodetypes="cccccccccccccccccccccccccccccccccccccccccccccccccccccccccccccccccccccccccc"
           inkscape:path-effect="#path-effect21342"
           inkscape:original-d="m 3.9364438,8.7497836 0.754648,-0.066186 0.2010128,0.6626516 0.326428,0.6107052 -0.5804157,0.4868146 0.3489578,0.751303 0.7192259,0.316881 0.486816,-0.580416 0.610703,0.326429 0.662653,0.201011 -0.06619,0.754647 0.787394,0.307183 0.723246,-0.307183 -0.06619,-0.754647 0.66265,-0.201011 0.6107054,-0.326429 0.486815,0.580416 0.783378,-0.316882 0.284805,-0.751302 -0.580415,-0.4868156 0.326427,-0.6107028 -1.6479074,-0.6825852 -0.161597,0.302328 -0.217473,0.2649928 -0.264995,0.2174748 -0.302326,0.1615975 -0.328046,0.099512 -0.341157,0.0336 -0.341154,-0.0336 -0.328046,-0.099511 -0.30233,-0.1615986 -0.264992,-0.2174735 -0.217474,-0.2649935 -0.161598,-0.3023282 -0.09951,-0.3280458 -0.0336,-0.341156 0.0336,-0.3411559 0.09951,-0.3280457 0.161597,-0.3023277 0.217475,-0.2649939 0.264992,-0.2174736 0.30233,-0.1615974 0.328045,-0.099511 0.341155,-0.033601 0.341157,0.033601 0.328044,0.099511 0.302328,0.1615974 0.264995,0.2174736 0.217473,0.2649934 0.161597,0.3023282 1.6479074,-0.6825853 -0.323162,-0.6045969 -0.0033,-0.00611 0.580441,-0.48681 L 11.38829,4.7938559 10.604912,4.4769749 10.118095,5.0573897 9.5073936,4.7309623 8.8447416,4.5299488 8.9109246,3.7753028 8.1876806,3.4681221 7.4002876,3.7753037 7.4664706,4.5299498 6.8038196,4.7309623 6.1931166,5.0573907 5.7062986,4.476976 4.9870726,4.7938583 4.6381169,5.5451588 5.2185316,6.0319754 4.8921046,6.6426781 4.6910918,7.3053292 3.9364448,7.2391453 3.6613375,7.9944645 Z" />
      </g>
      <g
         id="g21667"
         transform="matrix(1,0,0,0.99292694,0,0.08853049)">
        <path
           id="polygon830"
           style="fill:url(#linearGradient7449);stroke:#121520;stroke-width:1.014;stroke-linecap:round;stroke-linejoin:round;stroke-miterlimit:4;stroke-dasharray:none;stroke-opacity:1;paint-order:stroke markers fill"
           d="m 5.5138551,5.6605456 1e-6,1.5697396 A 0.13229158,0.13229158 134.99998 0 1 5.3815645,7.3625769 H 3.0208089 A 0.13229167,0.13229167 135 0 0 2.8885172,7.4948686 V 12.384279 A 0.13229167,0.13229167 135 0 1 2.7562255,12.516571 H 1.141017 A 0.13229168,0.13229168 44.999997 0 1 1.0087253,12.384279 L 1.008724,0.45277309 A 0.13229166,0.13229166 135 0 1 1.1410157,0.32048142 H 7.3424259 A 0.13229167,0.13229167 45 0 1 7.4747176,0.45277309 V 2.0104399 A 0.13229164,0.13229164 135.00001 0 1 7.3424259,2.1427316 l -4.321617,-1.2e-6 A 0.13229164,0.13229164 135.00001 0 0 2.8885172,2.2750221 v 3.1209401 a 0.13229167,0.13229167 45 0 0 0.1322917,0.1322917 h 2.3607544 a 0.13229176,0.13229176 44.999981 0 1 0.1322918,0.1322917 z"
           sodipodi:nodetypes="ccccccccccc"
           inkscape:path-effect="#path-effect16392"
           inkscape:original-d="m 5.513855,5.5282539 1.2e-6,1.834323 H 2.8885172 V 12.516571 H 1.0087253 L 1.008724,0.32048142 H 7.4747176 V 2.1427316 l -4.5862004,-1.2e-6 v 3.3855235 z" />
        <path
           id="polygon830-9"
           style="fill:none;stroke:#ffffff;stroke-width:0.155642;stroke-linecap:round;stroke-linejoin:round;stroke-miterlimit:4;stroke-dasharray:none;stroke-opacity:0.65;paint-order:stroke fill markers"
           d="m 1.140625,0.40234375 c -0.030876,-9.9221e-4 -0.054221,0.0292447 -0.050781,0.0586535 0,3.97458961 0,7.94917911 0,11.92376871 -0.00119,0.0305 0.029204,0.05219 0.057779,0.04883 0.5360789,0 1.0721579,0 1.6082368,0 0.029833,0.0015 0.05439,-0.0267 0.050781,-0.05583 0,-1.627876 0,-3.2557515 0,-4.8836274 -3.733e-4,-0.059765 0.026728,-0.1184263 0.071936,-0.1574188 0.04151,-0.038021 0.098149,-0.058 0.154279,-0.055472 0.782668,0 1.5653359,0 2.3480039,0 0.030884,9.958e-4 0.054202,-0.029246 0.050781,-0.058654 0,-0.5208134 0,-1.0416269 0,-1.5624403 9.958e-4,-0.030884 -0.029246,-0.054202 -0.058654,-0.050781 -0.7838342,0 -1.5676685,0 -2.3515027,0 -0.09962,0.00116 -0.1942026,-0.076231 -0.2112429,-0.1746538 -0.00571,-0.033147 -0.00294,-0.066872 -0.0036,-0.1003404 0,-1.0196634 0,-2.0393268 0,-3.0589902 -8.369e-4,-0.091305 0.063757,-0.1776932 0.1506646,-0.2046209 0.040189,-0.013945 0.082854,-0.00943 0.1245334,-0.010223 1.4199861,0 2.8399722,0 4.2599583,0 0.030884,9.957e-4 0.054202,-0.029246 0.050781,-0.058654 0,-0.5162561 0,-1.0325122 0,-1.5487683 9.958e-4,-0.0308836 -0.029246,-0.0542025 -0.058654,-0.0507813 -2.0644332,0 -4.1288664,0 -6.1932996,0 z"
           sodipodi:nodetypes="ccccccccccc"
           inkscape:path-effect="#path-effect16392-9;#path-effect21663"
           inkscape:original-d="m 5.513855,5.5282539 1.2e-6,1.834323 H 2.8885172 V 12.516571 H 1.0087253 L 1.008724,0.3204814 h 6.4659936 v 1.8222501 l -4.5862004,-1.1e-6 v 3.3855235 z" />
      </g>
    </g>
  </g>
</svg>
