/* XPM */
static char * freecad_xpm[] = {
"32 32 17 1",
" 	c None",
".	c #002CA9",
"+	c #0231A9",
"@	c #0036AB",
"#	c #FF0000",
"$	c #0D3AA9",
"%	c #0141AB",
"&	c #383B8F",
"*	c #1648A9",
"=	c #FF1A00",
"-	c #1250AB",
";	c #FF1E0A",
">	c #1E57AB",
",	c #1A5DAC",
"'	c #FF2C0B",
")	c #2A64AC",
"!	c #3469AB",
"                                ",
"                                ",
"                                ",
"  ###===;;;'''';                ",
"  ###==;;;''''';                ",
"  ##===;;'''''';                ",
"  ##==;;;'''''''                ",
"  ##==;;;'''''''                ",
"  #===;;''''''''  %$            ",
"  #===;;'''''''; %%%            ",
"  #==;;          -**%   +.      ",
"  #==;;    %*-  ----*%%$+..     ",
"  #==;;    *-->>,>>--*%$@+      ",
"  ===;;'    ->,,),,>-*%%@+      ",
"  ==;;;'''' >>,)!),>-*%%@+      ",
"  ==;;;'''' >,)!!     %%@+      ",
"  ==;;;'''' ->,)       %@+...   ",
"  ==;;;  &**->,,       $@.....  ",
"  ==;;;  %%*-->>       @+.....  ",
"  ==;;;  $%%*---       @+...    ",
"  ==;;;     %***      @+..      ",
"  ==;;;      %%%%%   @+...      ",
"  ==;;;      $$%%$$@@+.....     ",
"  ==;;;     +@@@@@++.......     ",
"  ==;;;     ..++++.........     ",
"  ===;;     ...  .....   ..     ",
"                  ...           ",
"                  ...           ",
"                   .            ",
"                                ",
"                                ",
"                                "};
