/* XPM */
static char * freecad_xpm[] = {
"32 32 233 2",
"  	c None",
". 	c #280000",
"+ 	c #EF2929",
"@ 	c #EE2828",
"# 	c #ED2828",
"$ 	c #EC2828",
"% 	c #EC2727",
"& 	c #EB2727",
"* 	c #EA2626",
"= 	c #E92626",
"- 	c #E82525",
"; 	c #E72525",
"> 	c #E72424",
", 	c #E62424",
"' 	c #E52424",
") 	c #E52323",
"! 	c #E22222",
"~ 	c #DF2020",
"{ 	c #DC1F1F",
"] 	c #06083E",
"^ 	c #02043A",
"/ 	c #03063B",
"( 	c #DA1D1D",
"_ 	c #D91D1D",
": 	c #34497C",
"< 	c #729ECE",
"[ 	c #374C80",
"} 	c #D71C1C",
"| 	c #D61B1B",
"1 	c #06093F",
"2 	c #5F84B5",
"3 	c #729FCF",
"4 	c #6993C3",
"5 	c #070B41",
"6 	c #06093E",
"7 	c #060A3F",
"8 	c #D41A1A",
"9 	c #D31A1A",
"0 	c #04083D",
"a 	c #709CCC",
"b 	c #709DCD",
"c 	c #192459",
"d 	c #02063C",
"e 	c #060A40",
"f 	c #4E6EA1",
"g 	c #5173A5",
"h 	c #04073D",
"i 	c #D11919",
"j 	c #D11818",
"k 	c #5779AA",
"l 	c #121A4F",
"m 	c #4B689C",
"n 	c #719ECE",
"o 	c #6A97C8",
"p 	c #6E9ACB",
"q 	c #6C97C8",
"r 	c #446093",
"s 	c #3D578A",
"t 	c #6E9ACA",
"u 	c #6E9BCC",
"v 	c #6F9CCC",
"w 	c #03063C",
"x 	c #CE1717",
"y 	c #CD1717",
"z 	c #CD1616",
"A 	c #CC1616",
"B 	c #709DCE",
"C 	c #719DCE",
"D 	c #6F9CCD",
"E 	c #6995C7",
"F 	c #6895C7",
"G 	c #6693C5",
"H 	c #6794C4",
"I 	c #6C99CA",
"J 	c #6D9ACA",
"K 	c #618DC0",
"L 	c #6895C6",
"M 	c #5073A5",
"N 	c #05083D",
"O 	c #CB1515",
"P 	c #CA1515",
"Q 	c #C91414",
"R 	c #6B97C9",
"S 	c #6894C6",
"T 	c #6A95C5",
"U 	c #5985B9",
"V 	c #11194E",
"W 	c #C81414",
"X 	c #C71313",
"Y 	c #628FC1",
"Z 	c #709CCD",
"` 	c #577CAE",
" .	c #080D43",
"..	c #567BAE",
"+.	c #5884B7",
"@.	c #6F9BCC",
"#.	c #05083F",
"$.	c #C61212",
"%.	c #C51212",
"&.	c #6996C8",
"*.	c #05073D",
"=.	c #03073D",
"-.	c #557AAD",
";.	c #638FC2",
">.	c #436093",
",.	c #03053C",
"'.	c #03083D",
").	c #C31111",
"!.	c #C21111",
"~.	c #608DBF",
"{.	c #090E43",
"].	c #4F7BB0",
"^.	c #6994C5",
"/.	c #5277AA",
"(.	c #2A3E74",
"_.	c #02063B",
":.	c #C00F0F",
"<.	c #BF0F0F",
"[.	c #33487C",
"}.	c #648DBF",
"|.	c #6491C3",
"1.	c #5986BA",
"2.	c #6691C2",
"3.	c #4975AB",
"4.	c #3D68A1",
"5.	c #4772A9",
"6.	c #6692C4",
"7.	c #010339",
"8.	c #BD0E0E",
"9.	c #BC0D0D",
"0.	c #6B98C9",
"a.	c #5884B8",
"b.	c #4F7BB1",
"c.	c #5580B5",
"d.	c #6893C5",
"e.	c #05083E",
"f.	c #4671A8",
"g.	c #5783B7",
"h.	c #5E87B9",
"i.	c #2C4277",
"j.	c #01043A",
"k.	c #BA0C0C",
"l.	c #2C3F74",
"m.	c #567BAD",
"n.	c #6E9BCB",
"o.	c #527EB3",
"p.	c #0A1146",
"q.	c #090E45",
"r.	c #4974AB",
"s.	c #638EC0",
"t.	c #141D53",
"u.	c #02073D",
"v.	c #B70B0B",
"w.	c #B70A0A",
"x.	c #405E91",
"y.	c #6591C3",
"z.	c #5E8ABD",
"A.	c #5378AC",
"B.	c #03073C",
"C.	c #5177AA",
"D.	c #5783B8",
"E.	c #5A86BA",
"F.	c #385488",
"G.	c #B40909",
"H.	c #6C98C9",
"I.	c #4671A9",
"J.	c #5277AB",
"K.	c #090F46",
"L.	c #0A1147",
"M.	c #5176AA",
"N.	c #2E5994",
"O.	c #30497E",
"P.	c #00043A",
"Q.	c #B10707",
"R.	c #0D1449",
"S.	c #3B669E",
"T.	c #37629B",
"U.	c #6691C3",
"V.	c #6692C3",
"W.	c #38629C",
"X.	c #2C5792",
"Y.	c #37629C",
"Z.	c #6793C5",
"`.	c #05093F",
" +	c #AF0606",
".+	c #AE0606",
"++	c #46679B",
"@+	c #5885B9",
"#+	c #436DA5",
"$+	c #6390C2",
"%+	c #5C88BB",
"&+	c #436EA5",
"*+	c #345F99",
"=+	c #37619B",
"-+	c #6996C7",
";+	c #6D9ACB",
">+	c #537FB4",
",+	c #6490C2",
"'+	c #406196",
")+	c #01063B",
"!+	c #AC0404",
"~+	c #AB0404",
"{+	c #01033A",
"]+	c #6B97C8",
"^+	c #6794C5",
"/+	c #2E477C",
"(+	c #355085",
"_+	c #608ABD",
":+	c #5480B5",
"<+	c #224C89",
"[+	c #37558A",
"}+	c #03063D",
"|+	c #0B1347",
"1+	c #3F6195",
"2+	c #446599",
"3+	c #02053C",
"4+	c #A90303",
"5+	c #A80202",
"6+	c #02043B",
"7+	c #3F6094",
"8+	c #3E5D92",
"9+	c #04073E",
"0+	c #00023A",
"a+	c #0B1348",
"b+	c #6590C2",
"c+	c #01043B",
"d+	c #02053B",
"e+	c #A60101",
"f+	c #567EB2",
"g+	c #496EA2",
"h+	c #263C72",
"i+	c #22366C",
"j+	c #01053A",
"                                                                ",
"  . . . . . . . . . . . . . . . . .                             ",
"  . + + + + + + + + + + + + + + + .                             ",
"  . + @ # # # # # $ % % % & & & + .                             ",
"  . + & & * * * * * = = = = - - + .                             ",
"  . + - - - ; ; ; > , , , , , ' + .                             ",
"  . + ' ) ) + + + + + + + + + + + .                             ",
"  . + ! ! ! + . . . . . . . . . . .                             ",
"  . + ~ ~ ~ + .                                                 ",
"  . + { { { + .                     ] ^ /                       ",
"  . + ( _ _ + .                     : < [                       ",
"  . + } } | + .                   1 2 3 4 5       6 7           ",
"  . + 8 8 9 + . . . . . . . 1     0 a b 3 c   d e f g h         ",
"  . + i j j + + + + + + + . k l 1 m n o p q r s t u v w         ",
"  . + x x x y y z z z A + . B n C D E F G H I J K L M N         ",
"  . + O O O O P P P P Q + . R S L I n T T n F U U b V           ",
"  . + W W W W X X X X X + . u Y Z `  .e e  ...p +.@.#.          ",
"  . + $.%.%.+ + + + + + + . I &...*.        =.-.;.G >.,.'.      ",
"  . + ).!.!.+ . . . . . . . ~.C {.             .b ].u ^./.(._.  ",
"  . + :.:.<.+ .   ,.[.}.Z |.1.^.1             #.2.3.4.5.6.p 7.  ",
"  . + 8.8.9.+ .   ^ @.0.a.b.c.d.e.            N 2.f.g.J h.i.j.  ",
"  . + k.k.k.+ .   =.l.m.q n.o.b p.            q.v r.s.t.u.      ",
"  . + v.w.w.+ .       #.,.x.y.z.A.B.        d C.D.E.F.          ",
"  . + G.G.G.+ .           h H.I.E J.K.=.=.L.M.G N.~.O.P.        ",
"  . + Q.Q.Q.+ .           R.n.S.T.g.@.U.V.u o.W.X.Y.Z.`.        ",
"  . +  +.+.++ .         w ++@+#+$+%+&+T.*+=+z.-+;+>+,+'+)+      ",
"  . + !+~+~++ .         {+]+^+Z./+(+_+:+<+0.[+}+|+1+S 2+3+      ",
"  . + 4+4+5++ .         6+7+8+9+0+  a+J *+b+c+    d+{+c+        ",
"  . + e+e+e++ .           d )+      d f+$+g+d                   ",
"  . + + + + + .                       h+]+i+                    ",
"  . . . . . . .                       {+7.j+                    ",
"                                                                "};
