<svg width="500" height="500" viewBox="0 0 500 500" fill="none" xmlns="http://www.w3.org/2000/svg">
<path d="M230.37 64.2671C242.517 57.2443 257.483 57.2442 269.63 64.2671L400.37 139.859C412.517 146.882 420 159.864 420 173.91V325.091C420 339.137 412.517 352.118 400.37 359.141L269.63 434.733C257.483 441.756 242.517 441.756 230.37 434.733L173.443 401.816V341.193L230.37 374.108C242.517 381.131 257.483 381.131 269.63 374.108L346.186 329.843C358.333 322.82 365.816 309.841 365.816 295.795V207.267C365.816 193.221 358.333 180.242 346.186 173.219L269.63 128.955C257.483 121.932 242.517 121.932 230.37 128.955L153.813 173.219C141.666 180.242 134.183 193.221 134.183 207.267V379.117L99.63 359.141C87.4834 352.118 80.0002 339.137 80 325.091V173.91C80 159.864 87.4831 146.882 99.63 139.859L230.37 64.2671Z" fill="#5A8440"/>
<path d="M230.37 173.596C242.517 166.573 257.483 166.573 269.63 173.596L307.58 195.539C319.727 202.562 327.21 215.542 327.21 229.588V273.473C327.21 287.52 319.727 300.5 307.58 307.523L269.63 329.465C257.483 336.488 242.517 336.488 230.37 329.465L192.417 307.523C180.271 300.5 172.787 287.519 172.787 273.473V229.588C172.787 215.542 180.271 202.562 192.417 195.539L230.37 173.596Z" fill="#5A8440"/>
</svg>
