/* XPM */
static char *b2877f70bb2b4697e4de66cf1b8d3a67GbKalYwBddLgmyqY[] = {
/* columns rows colors chars-per-pixel */
"32 32 29 1 ",
"  c None",
". c #CB333B",
"X c #CB343C",
"o c #CF353E",
"O c #DC3F47",
"+ c #FC555B",
"@ c #FE575E",
"# c #FF585D",
"$ c #C06B88",
"% c #7480BB",
"& c #418FDD",
"* c #428FDD",
"= c #418EDE",
"- c #418FDE",
"; c #418EDF",
": c #418FDF",
"> c #428FDE",
", c #4190DE",
"< c #4290DE",
"1 c #73ADE6",
"2 c #7FABE0",
"3 c #93BFED",
"4 c #CBE0F4",
"5 c #F6E2E3",
"6 c #F7E3E4",
"7 c #FEE7E7",
"8 c #E3EEF9",
"9 c #F2F7FB",
"0 c #FEFEFE",
/* pixels */
"       X...............O#####   ",
"      X...............O######   ",
"     X...............O#######   ",
"    X...............O########   ",
"   X...............O#########   ",
"   .....5555555555677777####@   ",
"   .....0000000000000000###@%   ",
"   .....0000000000000000##@%-   ",
"   .....0000000000000000#@%--   ",
"   .....0000000000000000@%---   ",
"   .....0000098888888888%----   ",
"   .....000003---------------   ",
"   .....000003--------------    ",
"   .....000003------------      ",
"   .....00000433331-------      ",
"   .....00000000008-------      ",
"   .....00000000008--------     ",
"   .....00000000008---------    ",
"   .....00000000008----------   ",
"   .....00000000008----------   ",
"   .....000003--------------    ",
"   ....o000003-------------,    ",
"   ...o+000003---------         ",
"   ..o+#000003---------         ",
"   .o+##000003--------,         ",
"   o+###000003---------         ",
"   +####777772---------,        ",
"   #########$----------,        ",
"   ########$---    ---          ",
"   #######$----     -           ",
"   ######$-----                 ",
"   #####$-----                  "
};
