<?xml version="1.0" encoding="UTF-8" standalone="no"?>
<!-- Created with Inkscape (http://www.inkscape.org/) -->

<svg
   width="64"
   height="64"
   viewBox="0 0 16.933333 16.933333"
   version="1.1"
   id="svg5"
   sodipodi:docname="freecad.svg"
   inkscape:version="1.1.2 (0a00cf5339, 2022-02-04, custom)"
   inkscape:export-filename="C:\Users\jacob\Documents\FreeCAD Logo Redesign\freecad-icon-48.png"
   inkscape:export-xdpi="96"
   inkscape:export-ydpi="96"
   xmlns:inkscape="http://www.inkscape.org/namespaces/inkscape"
   xmlns:sodipodi="http://sodipodi.sourceforge.net/DTD/sodipodi-0.dtd"
   xmlns:xlink="http://www.w3.org/1999/xlink"
   xmlns="http://www.w3.org/2000/svg"
   xmlns:svg="http://www.w3.org/2000/svg">
  <sodipodi:namedview
     id="namedview7"
     pagecolor="#505050"
     bordercolor="#ffffff"
     borderopacity="1"
     inkscape:pageshadow="0"
     inkscape:pageopacity="0"
     inkscape:pagecheckerboard="1"
     inkscape:document-units="mm"
     showgrid="false"
     units="px"
     inkscape:zoom="11.313708"
     inkscape:cx="34.338873"
     inkscape:cy="29.035572"
     inkscape:window-width="1920"
     inkscape:window-height="1017"
     inkscape:window-x="-8"
     inkscape:window-y="-8"
     inkscape:window-maximized="1"
     inkscape:current-layer="layer1"
     showguides="true"
     inkscape:guide-bbox="true"
     width="64px" />
  <defs
     id="defs2">
    <inkscape:path-effect
       effect="fillet_chamfer"
       id="path-effect21669"
       is_visible="true"
       lpeversion="1"
       satellites_param="F,0,0,1,0,0.026458333,0,1 @ F,0,0,1,0,0.026458333,0,1 @ F,0,0,1,0,0.026458333,0,1 @ F,0,0,1,0,0.026458333,0,1 @ F,0,0,1,0,0.026458333,0,1 @ F,0,0,1,0,0.026458333,0,1 @ F,0,0,1,0,0.026458333,0,1 @ F,0,0,1,0,0.026458333,0,1 @ F,0,0,1,0,0.026458333,0,1 @ F,0,0,1,0,0.026458333,0,1 @ F,0,0,1,0,0.026458333,0,1 @ F,0,0,1,0,0.026458333,0,1 @ F,0,0,1,0,0.026458333,0,1 @ F,0,0,1,0,0.026458333,0,1 @ F,0,0,1,0,0.026458333,0,1 @ F,0,0,1,0,0.026458333,0,1 @ F,0,0,1,0,0.026458333,0,1 @ F,0,0,1,0,0.026458333,0,1 @ F,0,0,1,0,0.026458333,0,1 @ F,0,0,1,0,0.026458333,0,1 @ F,0,0,1,0,0.026458333,0,1 @ F,0,0,1,0,0.026458333,0,1 @ F,0,0,1,0,0.026458333,0,1 @ F,0,0,1,0,0.026458333,0,1 @ F,0,0,1,0,0.026458333,0,1 @ F,0,0,1,0,0.026458333,0,1 @ F,0,0,1,0,0.026458333,0,1 @ F,0,0,1,0,0.026458333,0,1 @ F,0,0,1,0,0.026458333,0,1 @ F,0,0,1,0,0.026458333,0,1 @ F,0,0,1,0,0.026458333,0,1 @ F,0,0,1,0,0.026458333,0,1 @ F,0,0,1,0,0.026458333,0,1 @ F,0,0,1,0,0.026458333,0,1 @ F,0,0,1,0,0.026458333,0,1 @ F,0,0,1,0,0.026458333,0,1 @ F,0,0,1,0,0.026458333,0,1 @ F,0,0,1,0,0.026458333,0,1 @ F,0,0,1,0,0.026458333,0,1 @ F,0,0,1,0,0.026458333,0,1 @ F,0,0,1,0,0.026458333,0,1 @ F,0,0,1,0,0.026458333,0,1 @ F,0,0,1,0,0.026458333,0,1 @ F,0,0,1,0,0.026458333,0,1 @ F,0,0,1,0,0.026458333,0,1 @ F,0,0,1,0,0.026458333,0,1 @ F,0,0,1,0,0.026458333,0,1 @ F,0,0,1,0,0.026458333,0,1 @ F,0,0,1,0,0.026458333,0,1 @ F,0,0,1,0,0.026458333,0,1 @ F,0,0,1,0,0.026458333,0,1 @ F,0,0,1,0,0.026458333,0,1 @ F,0,0,1,0,0.026458333,0,1 @ F,0,0,1,0,0.026458333,0,1 @ F,0,0,1,0,0.026458333,0,1 @ F,0,0,1,0,0.026458333,0,1 @ F,0,0,1,0,0.026458333,0,1 @ F,0,0,1,0,0.026458333,0,1 @ F,0,0,1,0,0.026458333,0,1 @ F,0,0,1,0,0.026458333,0,1 @ F,0,0,1,0,0.026458333,0,1 @ F,0,0,1,0,0.026458333,0,1 @ F,0,0,1,0,0.026458333,0,1 @ F,0,0,1,0,0.026458333,0,1 @ F,0,0,1,0,0.026458333,0,1 @ F,0,0,1,0,0.026458333,0,1 @ F,0,0,1,0,0.026458333,0,1 @ F,0,0,1,0,0.026458333,0,1 @ F,0,0,1,0,0.026458333,0,1 @ F,0,0,1,0,0.026458333,0,1 @ F,0,0,1,0,0.026458333,0,1 @ F,0,0,1,0,0.026458333,0,1 @ F,0,0,1,0,0.026458333,0,1"
       unit="px"
       method="auto"
       mode="F"
       radius="0.1"
       chamfer_steps="1"
       flexible="false"
       use_knot_distance="true"
       apply_no_radius="true"
       apply_with_radius="true"
       only_selected="false"
       hide_knots="false" />
    <inkscape:path-effect
       effect="offset"
       id="path-effect21663"
       is_visible="true"
       lpeversion="1"
       linejoin_type="miter"
       unit="mm"
       offset="-0.1"
       miter_limit="4"
       attempt_force_join="false"
       update_on_knot_move="true" />
    <inkscape:path-effect
       effect="offset"
       id="path-effect21342"
       is_visible="true"
       lpeversion="1"
       linejoin_type="miter"
       unit="mm"
       offset="-0.1"
       miter_limit="4"
       attempt_force_join="false"
       update_on_knot_move="true" />
    <inkscape:path-effect
       effect="offset"
       id="path-effect20814"
       is_visible="true"
       lpeversion="1"
       linejoin_type="miter"
       unit="mm"
       offset="0"
       miter_limit="4"
       attempt_force_join="false"
       update_on_knot_move="true" />
    <inkscape:path-effect
       effect="fillet_chamfer"
       id="path-effect16392"
       is_visible="true"
       lpeversion="1"
       satellites_param="F,0,0,1,0,0.13229167,0,1 @ F,0,0,1,0,0.13229167,0,1 @ F,0,0,1,0,0.13229167,0,1 @ F,0,0,1,0,0.13229167,0,1 @ F,0,0,1,0,0.13229167,0,1 @ F,0,0,1,0,0.13229167,0,1 @ F,0,0,1,0,0.13229167,0,1 @ F,0,0,1,0,0.13229167,0,1 @ F,0,0,1,0,0.13229167,0,1 @ F,0,0,1,0,0.13229167,0,1"
       unit="px"
       method="auto"
       mode="F"
       radius="0.5"
       chamfer_steps="1"
       flexible="false"
       use_knot_distance="true"
       apply_no_radius="true"
       apply_with_radius="true"
       only_selected="false"
       hide_knots="false" />
    <linearGradient
       inkscape:collect="always"
       id="linearGradient7447">
      <stop
         style="stop-color:#db5b52;stop-opacity:1"
         offset="0"
         id="stop7443" />
      <stop
         style="stop-color:#6c464f;stop-opacity:1"
         offset="1"
         id="stop7445" />
    </linearGradient>
    <linearGradient
       inkscape:collect="always"
       id="linearGradient6475">
      <stop
         style="stop-color:#226ca2;stop-opacity:1;"
         offset="0"
         id="stop6471" />
      <stop
         style="stop-color:#464c75;stop-opacity:1"
         offset="1"
         id="stop6473" />
    </linearGradient>
    <linearGradient
       inkscape:collect="always"
       xlink:href="#linearGradient7447"
       id="linearGradient7449"
       x1="13.685"
       y1="16.671478"
       x2="117.0837"
       y2="665.84442"
       gradientUnits="userSpaceOnUse"
       gradientTransform="matrix(0.02095362,0,0,0.02076322,0.7991877,0.11284921)" />
    <inkscape:path-effect
       effect="offset"
       id="path-effect20814-4"
       is_visible="true"
       lpeversion="1"
       linejoin_type="miter"
       unit="mm"
       offset="0"
       miter_limit="4"
       attempt_force_join="false"
       update_on_knot_move="true" />
    <inkscape:path-effect
       effect="fillet_chamfer"
       id="path-effect16392-9"
       is_visible="true"
       lpeversion="1"
       satellites_param="F,0,0,1,0,0.13229167,0,1 @ F,0,0,1,0,0.13229167,0,1 @ F,0,0,1,0,0.13229167,0,1 @ F,0,0,1,0,0.13229167,0,1 @ F,0,0,1,0,0.13229167,0,1 @ F,0,0,1,0,0.13229167,0,1 @ F,0,0,1,0,0.13229167,0,1 @ F,0,0,1,0,0.13229167,0,1 @ F,0,0,1,0,0.13229167,0,1 @ F,0,0,1,0,0.13229167,0,1"
       unit="px"
       method="auto"
       mode="F"
       radius="0.5"
       chamfer_steps="1"
       flexible="false"
       use_knot_distance="true"
       apply_no_radius="true"
       apply_with_radius="true"
       only_selected="false"
       hide_knots="false" />
    <radialGradient
       inkscape:collect="always"
       xlink:href="#linearGradient6475"
       id="radialGradient31462"
       cx="6.8946376"
       cy="6.2583103"
       fx="6.8946376"
       fy="6.2583103"
       r="4.5834169"
       gradientTransform="matrix(1,0,0,1.1137475,0,-0.90935024)"
       gradientUnits="userSpaceOnUse" />
  </defs>
  <g
     inkscape:label="Layer 1"
     inkscape:groupmode="layer"
     id="layer1">
    <g
       id="g14435"
       style="stroke-width:0.720655;stroke-miterlimit:4;stroke-dasharray:none;paint-order:stroke fill markers"
       transform="matrix(1.2371272,0,0,1.2371272,0.32117935,0.50009795)">
      <g
         id="g18464"
         transform="rotate(0.03325942,65.979368,632.9866)">
        <g
           id="polygon832">
          <path
             style="color:#000000;fill:#121520;stroke-linecap:round;-inkscape-stroke:none;paint-order:stroke markers fill"
             d="M 7.9785156,3.0078125 7.2421875,3.2949219 C 7.0206107,3.381368 6.8776594,3.6087696 6.8984375,3.8457031 l 0.029297,0.3203125 -0.2460938,0.074219 c -0.048506,0.014714 -0.093969,0.034699 -0.1386719,0.058594 L 6.3183594,4.4199219 6.1113281,4.171875 H 6.109375 C 5.9563366,3.9894556 5.6964095,3.9293706 5.4785156,4.0253906 L 4.8066406,4.3203125 C 4.6788249,4.3766265 4.5764145,4.4787943 4.5175781,4.6054687 l -0.3261719,0.703125 c -0.1017577,0.2191254 -0.042546,0.485385 0.1425782,0.640625 L 4.5800781,6.15625 4.4589844,6.3808594 c -0.023894,0.044703 -0.04388,0.09212 -0.058594,0.140625 L 4.3261719,6.765625 4.0078125,6.7382812 C 3.7669173,6.7171539 3.5358842,6.8645794 3.453125,7.0917969 L 3.1953125,7.796875 c -0.046486,0.1276311 -0.046486,0.2669001 0,0.3945313 L 3.453125,8.8984375 C 3.5358812,9.1256593 3.7669142,9.2711271 4.0078125,9.25 l 0.3183594,-0.027344 0.074219,0.2441406 c 0.014714,0.048505 0.034699,0.095922 0.058594,0.140625 L 4.5800781,9.8320313 4.3339844,10.039063 c -0.1851332,0.155242 -0.244345,0.421495 -0.1425782,0.640625 l 0.3261719,0.705078 c 0.058843,0.126662 0.1612523,0.226897 0.2890625,0.283203 l 0.671875,0.294922 c 0.2178942,0.09602 0.477821,0.03593 0.6308594,-0.146485 h 0.00195 l 0.2050781,-0.246093 0.2265625,0.121093 c 0.044704,0.02389 0.090166,0.04388 0.1386719,0.05859 l 0.2460938,0.07422 -0.029297,0.318359 c -0.020758,0.236919 0.122189,0.46434 0.34375,0.550781 l 0.7363281,0.289063 c 0.1385382,0.05405 0.2947669,0.05032 0.4316407,-0.0078 l 0.6738281,-0.285156 c 0.2141298,-0.09095 0.3484481,-0.31512 0.328125,-0.546875 L 9.3828125,11.824219 9.6289063,11.75 c 0.048505,-0.01471 0.095921,-0.0347 0.140625,-0.05859 l 0.2246093,-0.121093 0.2070314,0.246093 c 0.149576,0.178331 0.401417,0.241577 0.617187,0.154297 l 0.734375,-0.296875 c 0.145917,-0.05901 0.260604,-0.177046 0.316407,-0.324219 l 0.267578,-0.701171 c 0.08113,-0.214013 0.01518,-0.462275 -0.160156,-0.609375 L 11.730469,9.8320313 11.851563,9.6074219 C 11.9952,9.3387058 11.869385,8.9857652 11.587891,8.8691406 L 9.9882813,8.2070313 C 9.7383768,8.1035139 9.4400093,8.2106618 9.3125,8.4492188 L 9.1855469,8.6875 9.0332031,8.8710938 8.8417969,9.0273438 8.6289063,9.1425781 8.4003906,9.2109375 8.15625,9.2363281 7.9101562,9.2109375 7.6816406,9.1425781 7.46875,9.0273438 7.2773437,8.8730469 7.1230469,8.6816406 7.0078125,8.46875 6.9394531,8.2402344 6.9140625,7.9941406 6.9394531,7.75 7.0078125,7.5214844 7.125,7.3027344 7.2832031,7.1113281 7.46875,6.9609375 7.6738281,6.8515625 7.9101562,6.7773437 8.15625,6.7539062 8.4003906,6.7773437 8.6367188,6.8515625 8.8417969,6.9609375 9.0273438,7.1132812 9.1816406,7.296875 9.3125,7.5410156 C 9.4400093,7.7795727 9.7383768,7.8847675 9.9882813,7.78125 L 11.587891,7.1191406 C 11.869384,7.0025157 11.995199,6.6495751 11.851563,6.3808594 L 11.732422,6.15625 11.976563,5.9492187 C 12.151927,5.8021116 12.21787,5.5558243 12.136719,5.3417969 L 11.869141,4.6386719 C 11.813342,4.4914892 11.698658,4.3754188 11.552734,4.3164062 L 10.818359,4.0195312 C 10.602589,3.9322523 10.350748,3.9935456 10.201172,4.171875 L 9.9941406,4.4199219 9.7695313,4.2988281 c -0.044703,-0.023894 -0.09212,-0.04388 -0.140625,-0.058594 L 9.3828125,4.1660156 9.4121094,3.8457031 C 9.432435,3.613945 9.2981184,3.3917294 9.0839844,3.3007813 L 8.4101563,3.0136719 C 8.2732835,2.9555385 8.1170529,2.9537657 7.9785156,3.0078125 Z M 8.1796875,4.0136719 8.3769531,4.0976562 8.34375,4.4589844 c -0.021966,0.2504589 0.138312,0.4895164 0.3789063,0.5625 L 9.3125,5.1992187 9.8574219,5.4902344 C 10.079168,5.608778 10.359912,5.5539888 10.521484,5.3613281 l 0.234375,-0.2792969 0.238282,0.097656 0.08008,0.2089844 -0.621094,0.5214843 0.195313,0.3613282 c 0.0049,0.00916 0.0088,0.018162 0.01367,0.027344 l 0.04883,0.089844 L 9.9863281,6.6875 c -0.00146,-0.00181 -0.00243,-0.00406 -0.00391,-0.00586 L 9.7988281,6.4570312 C 9.7666707,6.4178481 9.7305902,6.3837188 9.6914063,6.3515625 L 9.46875,6.1660156 C 9.4295677,6.1338602 9.3864994,6.1059249 9.3417969,6.0820312 L 9.0859375,5.9453125 C 9.041235,5.9214183 8.9938175,5.903386 8.9453125,5.8886719 L 8.6679688,5.8027344 C 8.6194632,5.7880202 8.5699754,5.778406 8.5195313,5.7734375 L 8.2324219,5.7460937 c -0.050444,-0.00497 -0.1018996,-0.00497 -0.1523438,0 l -0.2890625,0.027344 c -0.050444,0.00497 -0.099932,0.014583 -0.1484375,0.029297 l -0.2773437,0.085937 c -0.048505,0.014714 -0.095923,0.032747 -0.140625,0.056641 L 6.96875,6.0820312 c -0.044704,0.023894 -0.085817,0.051828 -0.125,0.083984 L 6.6191406,6.3515625 c -0.039183,0.032157 -0.075265,0.066286 -0.1074219,0.1054687 L 6.328125,6.6816406 c -0.032156,0.039182 -0.06009,0.08225 -0.083984,0.1269531 L 6.1074219,7.0644531 c -0.023895,0.044703 -0.04388,0.090166 -0.058594,0.1386719 L 5.9648437,7.4804687 C 5.95013,7.5289734 5.9405154,7.5804162 5.9355469,7.6308594 L 5.90625,7.9179687 c -0.00497,0.050445 -0.00497,0.1018991 0,0.1523438 l 0.029297,0.2890625 c 0.00497,0.050443 0.014583,0.099933 0.029297,0.1484375 l 0.083984,0.2773438 c 0.014714,0.048506 0.034699,0.095921 0.058594,0.140625 l 0.1367187,0.2558593 c 0.023894,0.044702 0.051829,0.085818 0.083984,0.125 L 6.5117187,9.53125 c 0.032156,0.039183 0.068239,0.075265 0.1074219,0.1074219 L 6.84375,9.8222656 c 0.039182,0.032156 0.080297,0.06009 0.125,0.083984 l 0.2558594,0.136719 c 0.044703,0.02389 0.092119,0.04388 0.140625,0.05859 l 0.2773437,0.08398 c 0.048505,0.01471 0.097994,0.02433 0.1484375,0.0293 l 0.2890625,0.0293 c 0.050444,0.005 0.1019003,0.005 0.1523438,0 l 0.2871094,-0.0293 c 0.050444,-0.005 0.099932,-0.01458 0.1484375,-0.0293 l 0.2773437,-0.08398 c 0.048506,-0.01472 0.095922,-0.0347 0.140625,-0.05859 L 9.3417969,9.90625 C 9.3864993,9.8823564 9.4295678,9.8544209 9.46875,9.8222656 L 9.6914063,9.6386719 C 9.7305887,9.6065157 9.766672,9.5704324 9.7988281,9.53125 L 9.9824219,9.3066406 c 0.00149,-0.00182 0.00243,-0.00403 0.00391,-0.00586 l 0.7246099,0.2988281 -0.05078,0.095703 c -0.118517,0.2217348 -0.06373,0.5044485 0.128907,0.6660155 l 0.285156,0.240235 -0.07813,0.207031 -0.240235,0.09766 -0.234375,-0.279297 C 10.359912,10.434291 10.079168,10.379502 9.8574219,10.498047 L 9.3203125,10.785156 8.7226563,10.96875 C 8.4820428,11.041732 8.3217652,11.278821 8.34375,11.529297 l 0.033203,0.363281 -0.1992187,0.08203 -0.2421875,-0.09375 0.03125,-0.351562 C 7.9887823,11.278821 7.828505,11.041732 7.5878906,10.96875 L 6.9921875,10.785156 6.4550781,10.498047 C 6.2333427,10.379529 5.9506294,10.434315 5.7890625,10.626953 L 5.5625,10.896484 5.3652344,10.810547 5.2597656,10.582031 5.5234375,10.361328 C 5.7160748,10.199761 5.7708616,9.9170477 5.6523437,9.6953125 L 5.359375,9.1503906 5.1816406,8.5625 C 5.1086541,8.3219054 4.8715535,8.1616233 4.6210937,8.1835938 l -0.3417968,0.029297 -0.080078,-0.21875 0.080078,-0.21875 0.3417968,0.03125 C 4.8715526,7.8286104 5.1086538,7.6663748 5.1816406,7.4257812 L 5.359375,6.8378906 5.6523437,6.2929687 C 5.7708608,6.071234 5.7160739,5.7885199 5.5234375,5.6269531 L 5.2597656,5.40625 5.3652344,5.1796875 5.5625,5.0917969 5.7890625,5.3613281 C 5.9506293,5.5539644 6.2333434,5.6087513 6.4550781,5.4902344 L 7,5.1992187 7.5878906,5.0214844 c 0.2405997,-0.072981 0.400874,-0.3120369 0.3789063,-0.5625 L 7.9375,4.109375 Z"
             id="path899" />
          <path
             style="color:#000000;fill:url(#radialGradient31462);stroke-width:1.01041;stroke-linecap:round;-inkscape-stroke:none;paint-order:stroke markers fill"
             d="M 3.9628013,8.747472 4.6647349,8.685909 a 0.03259339,0.03259339 34.056379 0 1 0.034038,0.023007 l 0.185652,0.6120136 a 0.26863585,0.26863585 67.500027 0 0 0.020153,0.048653 l 0.3014836,0.5640368 a 0.03259341,0.03259341 100.94366 0 1 -0.0078,0.040337 L 4.6583891,10.426766 a 0.03452746,0.03452746 102.54942 0 0 -0.00913,0.041 l 0.3266668,0.703311 a 0.07018862,0.07018862 44.43208 0 0 0.035358,0.03466 L 5.682085,11.501282 A 0.03524568,0.03524568 166.88269 0 0 5.7233,11.491682 L 6.1761099,10.95181 a 0.03259336,0.03259336 169.05643 0 1 0.040337,-0.0078 l 0.5640348,0.301485 a 0.26862838,0.26862838 22.499948 0 0 0.048653,0.02015 l 0.612015,0.185651 a 0.03259328,0.03259328 55.943534 0 1 0.023008,0.03404 l -0.061563,0.701933 a 0.03530317,0.03530317 58.162165 0 0 0.022337,0.03597 l 0.7380962,0.287951 a 0.06495669,0.06495669 179.14987 0 0 0.049002,-7.27e-4 l 0.67454,-0.286497 a 0.03641685,0.03641685 120.98774 0 0 0.022041,-0.0367 l -0.061562,-0.701933 a 0.03259337,0.03259337 124.05647 0 1 0.023008,-0.03404 L 9.482073,11.265646 a 0.26863172,0.26863172 157.50006 0 0 0.048653,-0.02015 l 0.564037,-0.301485 a 0.03259339,0.03259339 10.943622 0 1 0.04034,0.0078 l 0.452809,0.539872 a 0.03639275,0.03639275 13.994295 0 0 0.04153,0.01035 l 0.734322,-0.297038 a 0.0605384,0.0605384 134.36856 0 0 0.03391,-0.03466 l 0.266047,-0.701822 a 0.03724907,0.03724907 75.37431 0 0 -0.01089,-0.04174 L 11.112952,9.9739562 a 0.03259348,0.03259348 79.056388 0 1 -0.0078,-0.040337 l 0.301483,-0.5640344 a 0.02398044,0.02398044 70.312477 0 0 -0.01197,-0.033459 L 9.7956438,8.6737906 a 0.02919219,0.02919219 160.31241 0 0 -0.036917,0.013209 L 9.6220753,8.9426592 A 0.26863448,0.26863448 123.74986 0 1 9.5928181,8.986446 L 9.4089148,9.2105336 a 0.26863023,0.26863023 135.00001 0 1 -0.037237,0.037237 L 9.147588,9.4316756 A 0.26864194,0.26864194 146.25 0 1 9.103801,9.4609326 L 8.8481429,9.5975861 a 0.26863299,0.26863299 157.49994 0 1 -0.048653,0.020153 L 8.522082,9.7018897 a 0.2686327,0.2686327 168.75007 0 1 -0.05165,0.010274 L 8.181937,9.740577 a 0.26864159,0.26864159 1.9658396e-5 0 1 -0.052662,0 L 7.8407825,9.7121634 a 0.26863776,0.26863776 11.249865 0 1 -0.05165,-0.010274 L 7.511725,9.61774 A 0.26863199,0.26863199 22.499911 0 1 7.4630717,9.5975872 L 7.2074103,9.4609334 A 0.2686365,0.2686365 33.749982 0 1 7.1636235,9.431676 L 6.9395362,9.2477725 A 0.26863202,0.26863202 45.000053 0 1 6.9022987,9.2105349 L 6.718395,8.9864466 A 0.26864208,0.26864208 56.250008 0 1 6.689138,8.9426596 L 6.5524842,8.6869996 A 0.26862807,0.26862807 67.500045 0 1 6.5323312,8.6383466 L 6.4481812,8.360939 A 0.26864325,0.26864325 78.750057 0 1 6.4379072,8.309289 L 6.4094931,8.0207949 a 0.26863139,0.26863139 90.000001 0 1 0,-0.052662 L 6.4379078,7.679639 a 0.26864317,0.26864317 101.24995 0 1 0.010274,-0.05165 l 0.08415,-0.2774075 a 0.26863114,0.26863114 112.4999 0 1 0.020153,-0.048653 L 6.6891366,7.0462689 A 0.26863673,0.26863673 123.74998 0 1 6.718394,7.0024821 L 6.9022986,6.7783934 a 0.26863473,0.26863473 134.99999 0 1 0.037238,-0.037238 L 7.1636235,6.5572522 a 0.26863194,0.26863194 146.2501 0 1 0.043787,-0.029257 L 7.4630717,6.3913421 a 0.2686401,0.2686401 157.5001 0 1 0.048653,-0.020153 l 0.2774067,-0.08415 a 0.2686367,0.2686367 168.75 0 1 0.05165,-0.010274 L 8.1292752,6.248351 a 0.26863559,0.26863559 179.99999 0 1 0.052662,0 l 0.2884951,0.028414 a 0.26863552,0.26863552 11.250006 0 1 0.05165,0.010274 l 0.2774055,0.08415 a 0.26863808,0.26863808 22.499971 0 1 0.048653,0.020153 l 0.25566,0.1366528 a 0.26864096,0.26864096 33.749823 0 1 0.043787,0.029257 l 0.2240896,0.1839038 a 0.26862497,0.26862497 44.999947 0 1 0.037238,0.037237 l 0.1839033,0.2240882 a 0.26863563,0.26863563 56.250183 0 1 0.029257,0.043787 L 9.7587272,7.301928 a 0.02919218,0.02919218 19.6876 0 0 0.036917,0.013209 L 11.394663,6.6528021 a 0.02398049,0.02398049 109.68757 0 0 0.01197,-0.033459 L 11.108417,6.0614142 A 7.7004749,7.7004749 61.823462 0 0 11.092645,6.03197 l 0.560169,-0.4698078 a 0.03724843,0.03724843 104.62681 0 0 0.01089,-0.041743 l -0.26604,-0.7018231 a 0.06053737,0.06053737 45.631731 0 0 -0.03391,-0.034662 L 10.62944,4.4868965 a 0.03639291,0.03639291 166.00576 0 0 -0.04153,0.01035 l -0.452811,0.539871 a 0.03259348,0.03259348 169.05647 0 1 -0.04034,0.0078 L 9.5307276,4.7434347 A 0.26863556,0.26863556 22.500035 0 0 9.4820744,4.7232818 L 8.8700608,4.5376293 A 0.03259355,0.03259355 55.943538 0 1 8.8470533,4.5035916 L 8.9086132,3.80166 A 0.03641687,0.03641687 59.012125 0 0 8.8865719,3.7649595 L 8.2120333,3.4784654 A 0.06495697,0.06495697 0.85010385 0 0 8.1630315,3.4777383 L 7.4249364,3.7656875 a 0.03530327,0.03530327 121.83797 0 0 -0.022337,0.035973 l 0.06156,0.7019317 a 0.03259351,0.03259351 124.05649 0 1 -0.023008,0.034038 L 6.8291387,4.7232819 a 0.26863362,0.26863362 157.49999 0 0 -0.048653,0.020153 L 6.2164508,5.0449183 a 0.0325935,0.0325935 10.943494 0 1 -0.040337,-0.0078 L 5.7233016,4.4972478 a 0.03524575,0.03524575 13.117168 0 0 -0.041215,-0.0096 L 5.0112854,4.7831906 a 0.07018868,0.07018868 135.56784 0 0 -0.035358,0.034664 L 4.6492627,5.5211625 a 0.03452761,0.03452761 77.450634 0 0 0.00913,0.040999 l 0.5398712,0.452811 a 0.03259349,0.03259349 79.05643 0 1 0.0078,0.040337 L 4.9045773,6.6193439 a 0.26863572,0.26863572 112.49999 0 0 -0.020153,0.048653 L 4.6987723,7.28001 A 0.03259349,0.03259349 145.94355 0 1 4.6647343,7.303017 L 3.9628023,7.241457 A 0.0344817,0.0344817 147.51254 0 0 3.9273902,7.264006 L 3.6703927,7.9696038 a 0.07264264,0.07264264 90.000032 0 0 0,0.049721 l 0.2569965,0.7055977 a 0.03448156,0.03448156 32.487414 0 0 0.035412,0.02255 z"
             id="path901" />
        </g>
        <path
           id="polygon832-6"
           style="fill:none;stroke:#fdfdfd;stroke-width:0.155642;stroke-linecap:round;stroke-linejoin:round;stroke-miterlimit:4;stroke-dasharray:none;stroke-opacity:0.64999998;paint-order:normal"
           d="M 8.1835938,3.5527344 C 7.9505209,3.6438802 7.7174479,3.7350261 7.484375,3.8261719 7.50651,4.0794271 7.528646,4.3326823 7.550781,4.5859375 7.3109273,4.6585395 7.0710069,4.7309315 6.8311948,4.8036642 6.8182958,4.8091442 6.8063058,4.8167372 6.7937638,4.8230472 6.5871187,4.933464 6.3804734,5.0438805 6.1738281,5.1542969 6.0104167,4.9596354 5.8470052,4.764974 5.6835938,4.5703125 5.4707032,4.6640625 5.2578125,4.7578125 5.0449219,4.8515625 4.9414063,5.0748698 4.8378906,5.2981771 4.734375,5.5214844 4.9283854,5.6848959 5.1223958,5.8483073 5.3164062,6.0117188 5.1998698,6.2298177 5.0833333,6.4479167 4.9667969,6.6660156 4.9422664,6.7457282 4.9184488,6.8256674 4.8941932,6.9054674 4.8454778,7.0665356 4.7967623,7.2276037 4.7480469,7.3886719 4.4947917,7.3665365 4.2415364,7.344401 3.9882812,7.3222656 3.906901,7.5462239 3.8255208,7.7701823 3.7441406,7.9941406 c 0.08138,0.2239583 0.1627604,0.4479167 0.2441406,0.671875 0.2532552,-0.022135 0.5065105,-0.044271 0.7597657,-0.066406 0.072602,0.2398537 0.144994,0.4797741 0.2177267,0.7195862 0.00548,0.012899 0.013073,0.024889 0.019383,0.037431 C 5.095573,9.563272 5.2059894,9.7699173 5.3164058,9.9765626 5.1223954,10.139974 4.928385,10.303386 4.7343746,10.466797 c 0.1035156,0.223307 0.2070313,0.446615 0.3105469,0.669922 0.2128906,0.09375 0.4257813,0.1875 0.6386719,0.28125 0.1634114,-0.194662 0.3268229,-0.389323 0.4902343,-0.583985 0.218099,0.116537 0.4361979,0.233073 0.6542969,0.34961 0.079713,0.02453 0.1596518,0.04835 0.2394518,0.0726 0.1610681,0.04872 0.3221363,0.09743 0.4832044,0.146146 -0.022135,0.253255 -0.044271,0.50651 -0.066406,0.759765 0.233724,0.0918 0.4674479,0.183594 0.7011719,0.275391 0.2141927,-0.0918 0.4283854,-0.183594 0.6425781,-0.275391 -0.021484,-0.253255 -0.042969,-0.50651 -0.064453,-0.759765 0.2382812,-0.07227 0.4765625,-0.144531 0.7148437,-0.216797 0.2194011,-0.117188 0.4388023,-0.234375 0.6582035,-0.351563 0.164062,0.194662 0.328125,0.389323 0.492187,0.583985 0.233073,-0.0944 0.466146,-0.188802 0.699219,-0.283203 0.08464,-0.222005 0.169271,-0.444011 0.253906,-0.666016 C 11.386068,10.304687 11.190104,10.140625 10.994141,9.9765625 11.09961,9.7792969 11.205078,9.5820312 11.310547,9.3847656 10.809245,9.1777344 10.307943,8.9707031 9.8066406,8.7636719 9.7621748,8.8458659 9.7180234,8.9282713 9.6733611,9.0103333 9.5979959,9.1019409 9.5226308,9.1935486 9.4472656,9.2851562 9.3548177,9.3613281 9.2623698,9.4375 9.1699219,9.5136719 9.0644531,9.5696615 8.9589844,9.625651 8.8535156,9.6816406 8.7395833,9.7161458 8.6256511,9.750651 8.5117188,9.7851562 8.3932292,9.797526 8.2747396,9.8098958 8.15625,9.8222656 8.0371094,9.8098958 7.9179687,9.797526 7.7988281,9.7851562 7.6848958,9.750651 7.5709635,9.7161458 7.4570312,9.6816406 7.3515625,9.625651 7.2460937,9.5696615 7.140625,9.5136719 7.0488281,9.4375 6.9570313,9.3613281 6.8652344,9.2851562 6.7890625,9.1933593 6.7128907,9.1015625 6.6367188,9.0097656 6.5800782,8.9042969 6.5234375,8.7988281 6.4667969,8.6933594 6.4329427,8.5794271 6.3990886,8.4654948 6.3652344,8.3515625 6.3528646,8.2324219 6.3404948,8.1132812 6.328125,7.9941406 6.3404948,7.875 6.3528646,7.7558594 6.3652344,7.6367188 6.3990886,7.5234375 6.4329427,7.4101563 6.4667969,7.296875 6.5234375,7.1914063 6.5800782,7.0859375 6.6367188,6.9804688 6.7128907,6.8880209 6.7890625,6.7955729 6.8652344,6.703125 6.9570313,6.6276042 7.0488281,6.5520833 7.140625,6.4765625 7.2460937,6.4199219 7.3515625,6.3632812 7.4570312,6.3066406 7.5709635,6.2721354 7.6848958,6.2376302 7.7988281,6.203125 7.9179687,6.1914063 8.0371094,6.1796875 8.15625,6.1679688 c 0.1184896,0.011719 0.2369792,0.023437 0.3554688,0.035156 0.1139323,0.034505 0.2278645,0.06901 0.3417968,0.1035156 0.1054688,0.056641 0.2109375,0.1132813 0.3164063,0.1699219 0.092448,0.075521 0.1848958,0.1510417 0.2773437,0.2265625 0.075521,0.092448 0.1510417,0.1848959 0.2265625,0.2773438 C 9.7180989,7.0625 9.7623698,7.1445313 9.8066406,7.2265625 10.307943,7.0188802 10.809245,6.8111979 11.310547,6.6035156 11.21599,6.4268916 11.121595,6.2501703 11.026936,6.0736072 11.014051,6.0542798 11.001166,6.0349524 10.988281,6.015625 11.186198,5.8502604 11.384114,5.6848958 11.582031,5.5195312 11.497396,5.297526 11.41276,5.0755208 11.328125,4.8535156 11.095052,4.7591146 10.861979,4.6647135 10.628906,4.5703125 10.464844,4.764974 10.300781,4.9596354 10.136719,5.1542969 9.9173179,5.0371094 9.6979167,4.9199219 9.4785156,4.8027344 9.2402344,4.7304688 9.0019531,4.6582031 8.7636719,4.5859375 8.7851563,4.3326823 8.8066406,4.0794271 8.828125,3.8261719 8.6132813,3.7350261 8.3984375,3.6438802 8.1835938,3.5527344 Z"
           sodipodi:nodetypes="cccccccccccccccccccccccccccccccccccccccccccccccccccccccccccccccccccccccccc" />
      </g>
      <g
         id="g21667"
         transform="matrix(1,0,0,0.99292694,0,0.08853049)">
        <g
           id="polygon830">
          <path
             style="color:#000000;fill:#121520;stroke-linecap:round;stroke-linejoin:round;-inkscape-stroke:none;paint-order:stroke markers fill"
             d="M 1.140625,-0.18554687 C 0.79356005,-0.18554698 0.5019531,0.10606005 0.50195312,0.453125 v 11.931641 c -8.3e-7,0.347065 0.29160641,0.638672 0.63867188,0.638672 h 1.6152344 c 0.3470655,0 0.6406258,-0.291607 0.640625,-0.638672 V 7.8691406 h 1.984375 c 0.347065,1e-7 0.6406253,-0.2916068 0.640625,-0.6386719 V 5.6601562 C 6.0214842,5.3130914 5.7279243,5.0214843 5.3808594,5.0214844 H 3.3964844 V 2.6503906 h 3.9453125 c 0.347065,2e-7 0.6406251,-0.2935599 0.640625,-0.640625 V 0.453125 c 0,-0.34706492 -0.2935601,-0.63867195 -0.640625,-0.63867187 z m 0.375,1.01367187 H 6.9667969 V 1.6347656 H 3.0214844 c -0.3470651,-10e-8 -0.6406252,0.29356 -0.640625,0.640625 v 3.1210938 c -10e-8,0.3470649 0.29356,0.6386719 0.640625,0.6386718 H 5.0078125 V 6.8554687 H 3.0214844 c -0.347065,0 -0.6406251,0.291607 -0.640625,0.6386719 V 12.009766 H 1.515625 Z"
             id="path1121" />
          <path
             style="color:#000000;fill:url(#linearGradient7449);stroke-width:1.014;stroke-linecap:round;stroke-linejoin:round;-inkscape-stroke:none;paint-order:stroke markers fill"
             d="m 5.5138551,5.6605456 1e-6,1.5697396 A 0.13229158,0.13229158 134.99998 0 1 5.3815645,7.3625769 H 3.0208089 A 0.13229167,0.13229167 135 0 0 2.8885172,7.4948686 V 12.384279 A 0.13229167,0.13229167 135 0 1 2.7562255,12.516571 H 1.141017 A 0.13229168,0.13229168 44.999997 0 1 1.0087253,12.384279 L 1.008724,0.45277309 A 0.13229166,0.13229166 135 0 1 1.1410157,0.32048142 H 7.3424259 A 0.13229167,0.13229167 45 0 1 7.4747176,0.45277309 V 2.0104399 A 0.13229164,0.13229164 135.00001 0 1 7.3424259,2.1427316 l -4.321617,-1.2e-6 A 0.13229164,0.13229164 135.00001 0 0 2.8885172,2.2750221 v 3.1209401 a 0.13229167,0.13229167 45 0 0 0.1322917,0.1322917 h 2.3607544 a 0.13229176,0.13229176 44.999981 0 1 0.1322918,0.1322917 z"
             id="path1123" />
        </g>
        <path
           id="polygon830-9"
           style="fill:none;stroke:#ffffff;stroke-width:0.155642;stroke-linecap:round;stroke-linejoin:round;stroke-miterlimit:4;stroke-dasharray:none;stroke-opacity:0.64999998;paint-order:stroke fill markers"
           d="M 1.140625,0.3984375 C 1.108707,0.3973895 1.082036,0.4276969 1.085938,0.4590028 c 0,3.9752544 0,7.9505089 0,11.9257632 -9.497e-4,0.03079 0.028977,0.05564 0.058886,0.05273 0.537012,0 1.074024,0 1.611036,0 0.030304,0.0012 0.057651,-0.0265 0.054687,-0.05693 0,-1.628809 0,-3.2576183 0,-4.8864273 -0.00113,-0.079235 0.048159,-0.1556325 0.119972,-0.1886145 0.033897,-0.016865 0.072026,-0.021439 0.1094384,-0.02037 0.7803007,0 1.5606014,0 2.3409021,0 0.032033,0.0018 0.05798,-0.029592 0.054687,-0.060565 0,-0.5214782 0,-1.0429565 0,-1.5644348 8.147e-4,-0.031223 -0.028932,-0.05774 -0.059726,-0.054687 -0.7847789,0 -1.5695579,0 -2.3543369,0 C 2.9391216,5.6065374 2.8590387,5.5545474 2.827279,5.4784185 2.812364,5.4459024 2.809753,5.4099105 2.810546,5.3746514 c 0,-1.0330875 0,-2.0661748 0,-3.0992622 1.042e-4,-0.084069 0.05495,-0.165178 0.1336646,-0.1953203 0.030728,-0.013277 0.064312,-0.016496 0.097425,-0.015617 1.4333867,0 2.8667735,0 4.3001602,0 0.031223,8.147e-4 0.05774,-0.028932 0.054687,-0.059726 0,-0.5172008 0,-1.03440171 0,-1.55160255 8.147e-4,-0.0312235 -0.028932,-0.05774 -0.059726,-0.0546875 -2.0653779,0 -4.1307559,0 -6.1961338,0 z"
           sodipodi:nodetypes="ccccccccccc" />
      </g>
    </g>
  </g>
</svg>
