<svg width="512" height="512" viewBox="0 0 512 512" fill="none" xmlns="http://www.w3.org/2000/svg">
<path d="M236.832 79.9906C248.693 73.3365 263.307 73.3364 275.168 79.9906L402.832 151.615C414.693 158.269 422 170.569 422 183.878V327.123C422 340.432 414.693 352.731 402.832 359.385L275.168 431.009C263.307 437.664 248.693 437.663 236.832 431.009L186.351 402.686C183.197 400.917 181.244 397.582 181.244 393.965V359.457C181.244 351.814 189.471 346.996 196.137 350.736L236.832 373.567C248.693 380.221 263.307 380.222 275.168 373.567L349.923 331.626C361.784 324.971 369.091 312.674 369.091 299.365V215.484C369.091 202.175 361.784 189.878 349.923 183.223L275.168 141.283C263.307 134.628 248.693 134.628 236.832 141.283L162.076 183.223C150.215 189.878 142.908 202.175 142.908 215.484V361.237C142.908 368.88 134.681 373.698 128.015 369.959L109.168 359.385C97.3073 352.731 90.0002 340.432 90 327.123V183.878C90 170.569 97.307 158.269 109.168 151.615L236.832 79.9906Z" fill="#4C8DFF"/>
<path d="M236.832 183.581C248.693 176.927 263.307 176.926 275.168 183.581L312.225 204.372C324.086 211.026 331.393 223.325 331.393 236.634V278.215C331.393 291.524 324.086 303.823 312.225 310.477L275.168 331.268C263.307 337.922 248.693 337.922 236.832 331.268L199.772 310.477C187.912 303.822 180.604 291.524 180.604 278.215V236.634C180.604 223.325 187.911 211.026 199.772 204.372L236.832 183.581Z" fill="#4C8DFF"/>
</svg>
