<?xml version="1.0" encoding="UTF-8"?>
<svg id="_图层_1" data-name="图层 1" xmlns="http://www.w3.org/2000/svg" viewBox="0 0 203.94 114.77">
  <defs>
    <style>
      .cls-1 {
        fill: #3877bd;
      }

      .cls-1, .cls-2, .cls-3 {
        stroke-width: 0px;
      }

      .cls-1, .cls-3 {
        fill-rule: evenodd;
      }

      .cls-2 {
        fill: #fff;
        opacity: 0;
      }

      .cls-3 {
        fill: #34bdeb;
      }
    </style>
  </defs>
  <g id="_矩形备份-35" data-name="矩形备份-35">
    <rect class="cls-2" width="203.94" height="114.77"/>
  </g>
  <g id="_编组" data-name="编组">
    <g id="_编组-93" data-name="编组-93">
      <g id="_矩形" data-name="矩形">
        <path class="cls-1" d="M195.39,31.39l-23.33-23.34c-2.22-2.22-5.82-2.22-8.05,0,0,0,0,0,0,0l-67.26,67.28c-2.22,2.22-2.22,5.83,0,8.05l23.33,23.34c2.22,2.22,5.82,2.22,8.05,0,0,0,0,0,0,0l67.26-67.28c2.22-2.22,2.22-5.83,0-8.05Z"/>
      </g>
      <g id="_矩形备份-33" data-name="矩形备份-33">
        <path class="cls-1" d="M185.26,71.45l-24.94,24.95c-2.22,2.22-2.22,5.83,0,8.05,1.07,1.07,2.51,1.67,4.02,1.67h24.94c3.14,0,5.69-2.55,5.69-5.69v-24.95c0-3.14-2.55-5.69-5.69-5.69-1.51,0-2.96.6-4.02,1.67Z"/>
      </g>
    </g>
    <g id="_编组-92" data-name="编组-92">
      <g id="_矩形-2" data-name="矩形">
        <path class="cls-3" d="M8.55,31.39L31.87,8.06c2.22-2.22,5.82-2.22,8.05,0,0,0,0,0,0,0l67.26,67.28c2.22,2.22,2.22,5.83,0,8.05l-23.33,23.34c-2.22,2.22-5.82,2.22-8.05,0,0,0,0,0,0,0L8.55,39.44c-2.22-2.22-2.22-5.83,0-8.05Z"/>
      </g>
      <g id="_矩形备份-33-2" data-name="矩形备份-33">
        <path class="cls-3" d="M18.68,71.45l24.94,24.95c2.22,2.22,2.22,5.83,0,8.05-1.07,1.07-2.51,1.67-4.02,1.67H14.65c-3.14,0-5.69-2.55-5.69-5.69v-24.95c0-3.14,2.55-5.69,5.69-5.69,1.51,0,2.96.6,4.02,1.67Z"/>
      </g>
    </g>
  </g>
</svg>