/* XPM */
static char * freecad_xpm[] = {
"32 32 327 2",
"  	c None",
". 	c #5D0900",
"+ 	c #AF0D00",
"@ 	c #AF1001",
"# 	c #AF1601",
"$ 	c #AF1A02",
"% 	c #AF2003",
"& 	c #AF2404",
"* 	c #AF2904",
"= 	c #AF2C05",
"- 	c #AF2F05",
"; 	c #AF3105",
"> 	c #370700",
", 	c #AD0C00",
"' 	c #FF1100",
") 	c #FF1A01",
"! 	c #FF2203",
"~ 	c #FF2B04",
"{ 	c #FF3305",
"] 	c #FF3B07",
"^ 	c #FF4308",
"/ 	c #FF4909",
"( 	c #FF4E0A",
"_ 	c #FF500A",
": 	c #FF4F0A",
"< 	c #FF4B09",
"[ 	c #FF4608",
"} 	c #470C01",
"| 	c #FF1300",
"1 	c #FF1D02",
"2 	c #FF2603",
"3 	c #FF2E04",
"4 	c #FF3706",
"5 	c #FF3F07",
"6 	c #FF4708",
"7 	c #FF4D09",
"8 	c #FF520A",
"9 	c #FF530A",
"0 	c #FF1601",
"a 	c #FF1F02",
"b 	c #FF2904",
"c 	c #FF3205",
"d 	c #FF3A06",
"e 	c #FF4A09",
"f 	c #FF510A",
"g 	c #FF560B",
"h 	c #FF570B",
"i 	c #FF540B",
"j 	c #FF4709",
"k 	c #FF1901",
"l 	c #FF3505",
"m 	c #FF3E07",
"n 	c #FF550B",
"o 	c #FF5A0C",
"p 	c #AD0E00",
"q 	c #FF1C01",
"r 	c #FF2503",
"s 	c #FF3806",
"t 	c #FF4107",
"u 	c #FF590B",
"v 	c #FF5E0C",
"w 	c #FF5D0C",
"x 	c #01043C",
"y 	c #0E2470",
"z 	c #040C4A",
"A 	c #AD0F00",
"B 	c #FF1E02",
"C 	c #FF2803",
"D 	c #FF3105",
"E 	c #EA3505",
"F 	c #701802",
"G 	c #7D1F03",
"H 	c #7D2304",
"I 	c #7D2504",
"J 	c #7D2604",
"K 	c #7D2103",
"L 	c #7D1D02",
"M 	c #310606",
"N 	c #091452",
"O 	c #2858B8",
"P 	c #1E47A1",
"Q 	c #040943",
"R 	c #AD1101",
"S 	c #FF2102",
"T 	c #FF2A04",
"U 	c #FF3405",
"V 	c #DC3306",
"W 	c #420B00",
"X 	c #070739",
"Y 	c #1D3881",
"Z 	c #3366C2",
"` 	c #2E60BD",
" .	c #08114E",
"..	c #01063F",
"+.	c #000541",
"@.	c #00053F",
"#.	c #AD1201",
"$.	c #FF2303",
"%.	c #FF2D04",
"&.	c #FF3606",
"*.	c #DC3506",
"=.	c #4E0F01",
"-.	c #030943",
";.	c #193380",
">.	c #0C1754",
",.	c #060D46",
"'.	c #03063D",
").	c #3662B3",
"!.	c #3D73CB",
"~.	c #386BC6",
"{.	c #224596",
"].	c #02053E",
"^.	c #01043D",
"/.	c #091B62",
"(.	c #0A3197",
"_.	c #012995",
":.	c #AD1301",
"<.	c #FF2F05",
"[.	c #DC3707",
"}.	c #0F2264",
"|.	c #386CC6",
"1.	c #4076CD",
"2.	c #3A68B8",
"3.	c #254186",
"4.	c #4476C5",
"5.	c #4C85D8",
"6.	c #477ED3",
"7.	c #2D5FBC",
"8.	c #204AA6",
"9.	c #1A47AC",
"0.	c #0F3AA2",
"a.	c #052B95",
"b.	c #00043F",
"c.	c #AD1501",
"d.	c #FF2703",
"e.	c #DC3807",
"f.	c #4F1101",
"g.	c #4F1201",
"h.	c #430D04",
"i.	c #070A41",
"j.	c #396ABE",
"k.	c #4981D5",
"l.	c #518BDC",
"m.	c #5793E1",
"n.	c #5A95E3",
"o.	c #5691E1",
"p.	c #5089DB",
"q.	c #3D72CA",
"r.	c #3365C1",
"s.	c #1E4BAF",
"t.	c #123EA5",
"u.	c #041B70",
"v.	c #FA4308",
"w.	c #E44509",
"x.	c #E44C0A",
"y.	c #E4540A",
"z.	c #923206",
"A.	c #190522",
"B.	c #172A6A",
"C.	c #4F88DA",
"D.	c #5995E3",
"E.	c #62A0EB",
"F.	c #65A3ED",
"G.	c #426DB2",
"H.	c #1C306E",
"I.	c #152562",
"J.	c #1F3A81",
"K.	c #3060B8",
"L.	c #2A5BBA",
"M.	c #1F4DB0",
"N.	c #143FA6",
"O.	c #01053F",
"P.	c #AD1601",
"Q.	c #FF3D07",
"R.	c #FF5F0C",
"S.	c #AD3D08",
"T.	c #02053C",
"U.	c #5089DA",
"V.	c #5D99E6",
"W.	c #68A6EF",
"X.	c #243975",
"Y.	c #091047",
"Z.	c #040A42",
"`.	c #21489F",
" +	c #1F4EB0",
".+	c #041765",
"++	c #000238",
"@+	c #AD1702",
"#+	c #FD4608",
"$+	c #F24A09",
"%+	c #F2510A",
"&+	c #F2570B",
"*+	c #892D0D",
"=+	c #0C0836",
"-+	c #152666",
";+	c #5A96E4",
">+	c #3C61A6",
",+	c #080E44",
"'+	c #040B46",
")+	c #1E4AAD",
"!+	c #072D94",
"~+	c #00156B",
"{+	c #000A4B",
"]+	c #000440",
"^+	c #00053E",
"/+	c #AD1802",
"(+	c #DC3B07",
"_+	c #310B12",
":+	c #0E0938",
"<+	c #0D134B",
"[+	c #234592",
"}+	c #3F73C9",
"|+	c #4B83D7",
"1+	c #538DDE",
"2+	c #0F1A53",
"3+	c #030942",
"4+	c #13358D",
"5+	c #103BA3",
"6+	c #052D99",
"7+	c #002795",
"8+	c #002692",
"9+	c #00033D",
"0+	c #020840",
"a+	c #112C7C",
"b+	c #2959B8",
"c+	c #3265C1",
"d+	c #3B70C9",
"e+	c #437AD0",
"f+	c #4A82D5",
"g+	c #080E46",
"h+	c #02063E",
"i+	c #0E2B80",
"j+	c #0B359F",
"k+	c #012896",
"l+	c #002289",
"m+	c #000239",
"n+	c #AD1902",
"o+	c #02043E",
"p+	c #0A1C63",
"q+	c #224FAE",
"r+	c #2C5DBB",
"s+	c #3467C2",
"t+	c #3A6FC8",
"u+	c #3F75CC",
"v+	c #0E1B58",
"w+	c #030842",
"x+	c #0D2F8C",
"y+	c #072F9B",
"z+	c #001A75",
"A+	c #000A4C",
"B+	c #000540",
"C+	c #DC3A07",
"D+	c #020842",
"E+	c #071050",
"F+	c #1A3886",
"G+	c #3063BF",
"H+	c #3468C3",
"I+	c #274B9C",
"J+	c #040941",
"K+	c #030C4A",
"L+	c #0A339C",
"M+	c #002895",
"N+	c #002083",
"O+	c #00033B",
"P+	c #214CA7",
"Q+	c #295AB9",
"R+	c #2B5CBA",
"S+	c #16307A",
"T+	c #020740",
"U+	c #020A46",
"V+	c #0A2E93",
"W+	c #022A97",
"X+	c #001569",
"Y+	c #00023A",
"Z+	c #FF3506",
"`+	c #FF3C07",
" @	c #01063E",
".@	c #13348B",
"+@	c #1E4CAF",
"@@	c #1A409E",
"#@	c #0D2575",
"$@	c #0A1E68",
"%@	c #0B277E",
"&@	c #09319B",
"*@	c #00248E",
"=@	c #00043E",
"-@	c #010844",
";@	c #103BA2",
">@	c #133EA6",
",@	c #133FA6",
"'@	c #123DA5",
")@	c #062E9A",
"!@	c #00156A",
"~@	c #FF2C04",
"{@	c #FF3906",
"]@	c #4E0E01",
"^@	c #01186D",
"/@	c #052E9A",
"(@	c #07309B",
"_@	c #072C92",
":@	c #062582",
"<@	c #072F9A",
"[@	c #032B98",
"}@	c #001261",
"|@	c #00105A",
"1@	c #002288",
"2@	c #00258F",
"3@	c #000137",
"4@	c #DC3105",
"5@	c #00023B",
"6@	c #001975",
"7@	c #001466",
"8@	c #00043D",
"9@	c #002693",
"0@	c #000746",
"a@	c #000C4F",
"b@	c #000645",
"c@	c #510C00",
"d@	c #510D01",
"e@	c #430900",
"f@	c #400900",
"g@	c #001A76",
"h@	c #000A4D",
"i@	c #001D7C",
"j@	c #00063F",
"k@	c #00033C",
"l@	c #000C51",
"                                                                ",
"                                                                ",
"                                                                ",
"    . + @ # $ % & * = - ; ; - = >                               ",
"    , ' ) ! ~ { ] ^ / ( _ : < [ }                               ",
"    , | 1 2 3 4 5 6 7 8 9 8 7 6 }                               ",
"    , 0 a b c d ^ e f g h i : j }                               ",
"    , k ! ~ l m [ ( n o o g : j }                               ",
"    p q r 3 s t e 8 u v w h _ j } x y z                         ",
"    A B C D E F G H I J I H K L M N O P Q                       ",
"    R S T U V W         X         Y Z `  .      ..+.@.          ",
"    #.$.%.&.*.=.      -.;.>.,.  '.).!.~.{.].^./.(._.+.          ",
"    :.r <.s [.=.      }.|.1.2.3.4.5.6.1.~.7.8.9.0.a.b.          ",
"    c.d.D d e.> f.g.h.i.j.k.l.m.n.o.p.6.q.r.O s.t.u.            ",
"    c.b c ] v.w.x.y.z.A.B.C.D.E.F.G.H.I.J.K.L.M.N.O.            ",
"    P.T { Q.[ : h R.S.  T.U.V.W.X.Y.      Z.`. +N..+++          ",
"    @+~ l m #+$+%+&+*+=+-+p.;+>+,+          '+)+t.!+~+{+]+^+    ",
"    /+%.&.m (+> _+:+<+[+}+|+1+2+            3+4+5+6+7+7+8+9+    ",
"    /+%.&.5 (+=.0+a+b+c+d+e+f+g+            h+i+j+k+7+7+l+m+    ",
"    n+3 &.m (+=.o+p+q+r+s+t+u+v+            w+x+y+7+z+A+B+      ",
"    n+3 &.m C+=.  D+D+E+F+G+H+I+J+          K+L+M+N+O+          ",
"    n+3 &.Q.e.=.        ].P+Q+R+S+T+    0+U+V+W+7+X+Y+          ",
"    n+3 Z+`+[.=.         @.@+@ + +@@#@$@%@&@W+7+7+*@=@          ",
"    n+%.U d *.=.        -@;@>@N.,@'@0.j+)@7+7+7+7+7+!@=@        ",
"    n+~@{ {@V ]@        ^@/@(@_@:@<@[@7+7+*@}@|@1@7+2@3@        ",
"    /+~ D 4 4@]@      5@6@8+7@]+8@=@9@7+7+0@    +.a@b@          ",
"    > c@d@d@e@f@        @.5@      @.g@7+8++.                    ",
"                                    h@7+i@j@                    ",
"                                    k@l@O+                      ",
"                                                                ",
"                                                                ",
"                                                                "};
