<svg width="552" height="189" viewBox="0 0 552 189" fill="none" xmlns="http://www.w3.org/2000/svg">
<rect width="552" height="189" rx="20" fill="#0B0C0C"/>
<path d="M270.804 45.3963C274.019 43.5346 277.981 43.5346 281.196 45.3963L315.804 65.4351C319.019 67.2969 321 70.7381 321 74.4617V114.539C321 118.262 319.019 121.703 315.804 123.565L281.196 143.604C277.981 145.465 274.019 145.465 270.804 143.604L255.735 134.878V118.807L270.804 127.533C274.019 129.394 277.981 129.394 281.196 127.533L301.461 115.798C304.676 113.937 306.657 110.496 306.657 106.772V83.3044C306.657 79.5808 304.676 76.1402 301.461 74.2785L281.196 62.5444C277.981 60.6827 274.019 60.6827 270.804 62.5444L250.539 74.2785C247.323 76.1403 245.343 79.5808 245.343 83.3044V128.86L236.196 123.565C232.981 121.703 231 118.262 231 114.539V74.4617C231 70.7381 232.981 67.2969 236.196 65.4351L270.804 45.3963Z" fill="white"/>
<path d="M270.804 74.3786C274.019 72.5169 277.981 72.5168 281.196 74.3786L291.242 80.1954C294.457 82.0572 296.438 85.498 296.438 89.2216V100.855C296.438 104.579 294.457 108.02 291.242 109.881L281.196 115.698C277.981 117.56 274.019 117.56 270.804 115.698L260.758 109.881C257.542 108.02 255.561 104.579 255.561 100.855V89.2216C255.561 85.4981 257.542 82.0572 260.758 80.1954L270.804 74.3786Z" fill="white"/>
</svg>
