/* XPM */
static char * freecad_xpm[] = {
"32 32 384 2",
"  	c None",
". 	c #12151F",
"+ 	c #131520",
"@ 	c #111521",
"# 	c #121520",
"$ 	c #332930",
"% 	c #3B2D35",
"& 	c #342931",
"* 	c #1C1B25",
"= 	c #E2847D",
"- 	c #DE7169",
"; 	c #DD7069",
"> 	c #DC7069",
", 	c #DB7069",
"' 	c #DA7069",
") 	c #D97069",
"! 	c #D96F69",
"~ 	c #DD807B",
"{ 	c #29222C",
"] 	c #1E1C26",
"^ 	c #DD756E",
"/ 	c #D65A52",
"( 	c #D55A52",
"_ 	c #D45A52",
": 	c #D35A52",
"< 	c #D35952",
"[ 	c #D25952",
"} 	c #D15952",
"| 	c #D05952",
"1 	c #CF5952",
"2 	c #D6716B",
"3 	c #2C242D",
"4 	c #121620",
"5 	c #1D1C26",
"6 	c #DA746E",
"7 	c #CE5952",
"8 	c #CD5852",
"9 	c #CC5852",
"0 	c #D3706B",
"a 	c #D7746E",
"b 	c #D16560",
"c 	c #D46E69",
"d 	c #D36E69",
"e 	c #D26E69",
"f 	c #D16E69",
"g 	c #D06E69",
"h 	c #CF6D68",
"i 	c #D57F7A",
"j 	c #28212C",
"k 	c #121420",
"l 	c #D4746E",
"m 	c #CB5852",
"n 	c #CA5953",
"o 	c #8A6164",
"p 	c #392D35",
"q 	c #382D35",
"r 	c #342932",
"s 	c #D2746E",
"t 	c #C85751",
"u 	c #C75751",
"v 	c #C75852",
"w 	c #725256",
"x 	c #111520",
"y 	c #CF736E",
"z 	c #C55751",
"A 	c #C45751",
"B 	c #C35852",
"C 	c #715256",
"D 	c #111420",
"E 	c #CC726E",
"F 	c #C15651",
"G 	c #C05752",
"H 	c #705256",
"I 	c #1D222F",
"J 	c #51657F",
"K 	c #5A779B",
"L 	c #556781",
"M 	c #212735",
"N 	c #11141F",
"O 	c #C9726E",
"P 	c #BE5551",
"Q 	c #BD5551",
"R 	c #BD5652",
"S 	c #131620",
"T 	c #2A3344",
"U 	c #456E99",
"V 	c #335D8D",
"W 	c #436792",
"X 	c #333C4D",
"Y 	c #C6716E",
"Z 	c #BA5551",
"` 	c #B95652",
" .	c #6F5156",
"..	c #242B38",
"+.	c #51647B",
"@.	c #1E2430",
"#.	c #232B39",
"$.	c #4D6178",
"%.	c #42709C",
"&.	c #305F90",
"*.	c #426995",
"=.	c #536379",
"-.	c #262B3A",
";.	c #1A1F2B",
">.	c #585E73",
",.	c #2C303E",
"'.	c #1C1C26",
").	c #C3706E",
"!.	c #B75451",
"~.	c #B65451",
"{.	c #B65552",
"].	c #6D5156",
"^.	c #121421",
"/.	c #1B202E",
"(.	c #445E7C",
"_.	c #306191",
":.	c #567797",
"<.	c #4E6B87",
"[.	c #4779A4",
"}.	c #2C6698",
"|.	c #2C6395",
"1.	c #2E6192",
"2.	c #315E8F",
"3.	c #365D8C",
"4.	c #526E96",
"5.	c #57667F",
"6.	c #616D88",
"7.	c #42527C",
"8.	c #5D6689",
"9.	c #373B4B",
"0.	c #C0706E",
"a.	c #B35351",
"b.	c #B25452",
"c.	c #72565A",
"d.	c #1D3551",
"e.	c #2C6699",
"f.	c #28679A",
"g.	c #27689C",
"h.	c #28679B",
"i.	c #2A6598",
"j.	c #2D6294",
"k.	c #306091",
"l.	c #365A88",
"m.	c #3A5784",
"n.	c #3E5580",
"o.	c #40517C",
"p.	c #444E78",
"q.	c #5D6177",
"r.	c #BD6F6E",
"s.	c #B05351",
"t.	c #AF5351",
"u.	c #B86866",
"v.	c #BC6F6E",
"w.	c #BB6F6E",
"x.	c #BA6F6E",
"y.	c #B96F6E",
"z.	c #78585C",
"A.	c #141D2C",
"B.	c #296699",
"C.	c #26689D",
"D.	c #246BA0",
"E.	c #25699E",
"F.	c #29669A",
"G.	c #2C6396",
"H.	c #2F6091",
"I.	c #365A89",
"J.	c #395785",
"K.	c #3D5481",
"L.	c #646C89",
"M.	c #272A38",
"N.	c #BB6E6E",
"O.	c #AC5251",
"P.	c #AB5251",
"Q.	c #AA5251",
"R.	c #A95251",
"S.	c #A95151",
"T.	c #A85151",
"U.	c #7A595D",
"V.	c #151B29",
"W.	c #26699D",
"X.	c #236B9F",
"Y.	c #487EA8",
"Z.	c #4A6987",
"`.	c #465E77",
" +	c #4D6682",
".+	c #54749A",
"++	c #375A89",
"@+	c #5C647C",
"#+	c #B76E6E",
"$+	c #A75151",
"%+	c #A65151",
"&+	c #A55151",
"*+	c #79595D",
"=+	c #29689B",
"-+	c #537B9C",
";+	c #1E2634",
">+	c #1D2230",
",+	c #5B708D",
"'+	c #3C5885",
")+	c #3E5480",
"!+	c #5B698E",
"~+	c #626880",
"{+	c #161824",
"]+	c #B56E6E",
"^+	c #A45151",
"/+	c #A75757",
"(+	c #A95C5C",
"_+	c #A85C5C",
":+	c #A75C5C",
"<+	c #795A5E",
"[+	c #4C7BA3",
"}+	c #1D2432",
"|+	c #1B212D",
"1+	c #647693",
"2+	c #505A70",
"3+	c #232735",
"4+	c #B16D6D",
"5+	c #A25050",
"6+	c #A15050",
"7+	c #A15151",
"8+	c #856468",
"9+	c #534148",
"0+	c #524148",
"a+	c #28242E",
"b+	c #1B2B43",
"c+	c #2F6192",
"d+	c #4C6682",
"e+	c #AF6D6D",
"f+	c #9E5050",
"g+	c #9E4F50",
"h+	c #9D5051",
"i+	c #675056",
"j+	c #121521",
"k+	c #2C3345",
"l+	c #1F2B41",
"m+	c #1F2C42",
"n+	c #233753",
"o+	c #305683",
"p+	c #315F8F",
"q+	c #485B73",
"r+	c #AC6C6D",
"s+	c #9B4F50",
"t+	c #9A4F50",
"u+	c #9A5051",
"v+	c #655056",
"w+	c #57627C",
"x+	c #475F88",
"y+	c #48638D",
"z+	c #375987",
"A+	c #355B8A",
"B+	c #345C8C",
"C+	c #4E627C",
"D+	c #1B1C26",
"E+	c #A96B6D",
"F+	c #984E50",
"G+	c #974E50",
"H+	c #964F51",
"I+	c #645056",
"J+	c #242736",
"K+	c #373E4D",
"L+	c #5A657C",
"M+	c #3A5783",
"N+	c #385886",
"O+	c #375A88",
"P+	c #587396",
"Q+	c #1A1D29",
"R+	c #171B26",
"S+	c #626C85",
"T+	c #484E61",
"U+	c #A66B6D",
"V+	c #944E50",
"W+	c #944D50",
"X+	c #934E51",
"Y+	c #635056",
"Z+	c #131621",
"`+	c #11151F",
" @	c #2C3141",
".@	c #52688F",
"+@	c #3B5683",
"@@	c #3A5785",
"#@	c #3B5A86",
"$@	c #5C6D89",
"%@	c #181C28",
"&@	c #171924",
"*@	c #5E6881",
"=@	c #46527D",
"-@	c #4B537A",
";@	c #646989",
">@	c #585C72",
",@	c #161924",
"'@	c #A36A6D",
")@	c #914D50",
"!@	c #904D50",
"~@	c #904E51",
"{@	c #625056",
"]@	c #5B6781",
"^@	c #3C5481",
"/@	c #3C5582",
"(@	c #3E5783",
"_@	c #5C6E90",
":@	c #4F5A71",
"<@	c #4B5467",
"[@	c #50596F",
"}@	c #5F6C8B",
"|@	c #454D77",
"1@	c #464C75",
"2@	c #60657F",
"3@	c #A1696D",
"4@	c #8D4C50",
"5@	c #8C4D51",
"6@	c #624F56",
"7@	c #1B1F2B",
"8@	c #646D86",
"9@	c #41527D",
"0@	c #3F527D",
"a@	c #3F527E",
"b@	c #3F537E",
"c@	c #41507B",
"d@	c #434F79",
"e@	c #454D76",
"f@	c #676B86",
"g@	c #1D202D",
"h@	c #9D696D",
"i@	c #8A4C50",
"j@	c #894C50",
"k@	c #894C51",
"l@	c #604F56",
"m@	c #5B5F74",
"n@	c #454E78",
"o@	c #434E78",
"p@	c #424F7A",
"q@	c #42507A",
"r@	c #42507B",
"s@	c #444E77",
"t@	c #5C6177",
"u@	c #9B696D",
"v@	c #864B50",
"w@	c #854C51",
"x@	c #5F4F56",
"y@	c #13151F",
"z@	c #2A2E3C",
"A@	c #606688",
"B@	c #646A86",
"C@	c #565D83",
"D@	c #545A7F",
"E@	c #616580",
"F@	c #666A86",
"G@	c #565B81",
"H@	c #3E4152",
"I@	c #97686D",
"J@	c #834A50",
"K@	c #824A50",
"L@	c #824B51",
"M@	c #5E4F56",
"N@	c #333746",
"O@	c #5E6179",
"P@	c #262937",
"Q@	c #353948",
"R@	c #5B5E75",
"S@	c #555B80",
"T@	c #52587E",
"U@	c #232734",
"V@	c #5F6379",
"W@	c #3E4153",
"X@	c #95686D",
"Y@	c #7F4A50",
"Z@	c #5D4E56",
"`@	c #2E303F",
" #	c #575D82",
".#	c #1A1C26",
"+#	c #976F74",
"@#	c #85555B",
"##	c #84555B",
"$#	c #84565B",
"%#	c #5B4E55",
"&#	c #242734",
"*#	c #60647E",
"=#	c #656A8C",
"-#	c #626681",
";#	c #37313B",
">#	c #3C3640",
",#	c #1B1B25",
"'#	c #12141F",
")#	c #131420",
"      . + + + + + + + + + + + + + @                             ",
"    # $ % % % % % % % % % % % % % & #                           ",
"    * = - - ; ; > > , , , ' ' ) ! ~ {                           ",
"    ] ^ / ( ( _ _ : < [ } } | | 1 2 3 4                         ",
"    5 6 [ [ } } | | 1 1 7 8 8 9 9 0 3 4                         ",
"    5 a 1 7 7 b c d d e e f g g h i j k                         ",
"    5 l m m n o p p p p p p q q q r #                           ",
"    5 s t u v w # + + + + + + + + x                             ",
"    5 y z A B C #                   D # # # +                   ",
"    5 E F F G H #                   I J K L M N                 ",
"    5 O P Q R H #         S # #   + T U V W X 4   + # D         ",
"    5 Y Z Z `  .#       # ..+.@.# #.$.%.&.*.=.-.# ;.>.,..       ",
"    '.).!.~.{.].#     ^./.(._.:.<.[.}.|.1.2.3.4.5.6.7.8.9.#     ",
"    '.0.a.a.b.c.# # # # # # d.e.f.g.h.i.j.k.V l.m.n.o.p.q.#     ",
"    '.r.s.t.t.u.v.w.w.x.y.z.A.B.C.D.E.F.G.H.V I.J.K.o.L.M.#     ",
"    '.N.O.O.P.P.Q.Q.R.S.T.U.V.B.W.X.Y.Z.`. +.+++J.K.o.@+#       ",
"    '.#+R.T.T.$+$+%+%+&+&+*+V.i.=+-+;+# # # >+,+'+)+!+~+{+      ",
"    '.]+&+&+^+/+(+(+_+_+:+<+V.|.[+}+#       + |+1+2+3+# #       ",
"    '.4+5+6+7+8+9+0+0+0+0+a+b+c+d+#           4 # # #           ",
"    '.e+f+g+h+i+j+# k+l+m+n+o+p+q+4             x               ",
"    '.r+s+t+u+v+# # w+x+y+z+A+B+C+#           # # #             ",
"    D+E+F+G+H+I+# # J+K+L+M+N+O+P+Q+j+      . R+S+T+R+# j+      ",
"    D+U+V+W+X+Y+#   Z+`+ @.@+@@@#@$@%@. j+# &@*@=@-@;@>@,@      ",
"    D+'@)@!@~@{@#       # ]@)+^@/@(@_@:@<@[@}@=@|@1@1@2@#       ",
"    D+3@4@4@5@6@#     . 7@8@9@0@a@b@a@0@o.c@d@e@1@1@1@f@g@+     ",
"    D+h@i@j@k@l@#     # m@n@o@p@q@r@q@p@d@s@1@1@1@1@1@1@t@#     ",
"    D+u@v@v@w@x@#     y@z@A@1@B@2@C@|@e@1@1@1@D@E@F@1@G@H@.     ",
"    D+I@J@K@L@M@#       4 N@O@P@# Q@R@S@1@T@q.9.# U@V@W@#       ",
"    D+X@Y@Y@Y@Z@#         # # #   # `@ #1@D@N@#   # # x         ",
"    .#+#@###$#%##                 # &#*#=#-#P@#                 ",
"    # ;#>#>#>#,#'#                  # # Q+# `+                  ",
"      )#4 4 4                                                   "};
