<?xml version="1.0" encoding="UTF-8"?>
<svg width="64" height="64" version="1.1" viewBox="0 0 64 64" xmlns="http://www.w3.org/2000/svg" xmlns:cc="http://creativecommons.org/ns#" xmlns:dc="http://purl.org/dc/elements/1.1/" xmlns:rdf="http://www.w3.org/1999/02/22-rdf-syntax-ns#" xmlns:xlink="http://www.w3.org/1999/xlink">
 <defs>
  <linearGradient id="linearGradient4383">
   <stop stop-color="#3465a4" offset="0"/>
   <stop stop-color="#729fcf" offset="1"/>
  </linearGradient>
  <linearGradient id="linearGradient4389" x1="20.244" x2="17.244" y1="37.588" y2="27.588" gradientTransform="translate(-1.2435,-2.5881)" gradientUnits="userSpaceOnUse" xlink:href="#linearGradient3774"/>
  <linearGradient id="linearGradient4399" x1="48.714" x2="44.714" y1="45.586" y2="34.586" gradientTransform="translate(1.2856,1.4142)" gradientUnits="userSpaceOnUse">
   <stop stop-color="#c4a000" offset="0"/>
   <stop stop-color="#edd400" offset="1"/>
  </linearGradient>
  <linearGradient id="linearGradient69042" x1="48.714" x2="44.714" y1="45.586" y2="34.586" gradientTransform="translate(-12.714,-17.586)" gradientUnits="userSpaceOnUse" xlink:href="#linearGradient3774"/>
  <linearGradient id="linearGradient69056" x1="27.244" x2="22.244" y1="54.588" y2="40.588" gradientTransform="translate(-1.2435,-2.5881)" gradientUnits="userSpaceOnUse">
   <stop stop-color="#c4a000" offset="0"/>
   <stop stop-color="#fce94f" offset="1"/>
  </linearGradient>
  <linearGradient id="linearGradient69709" x1="20.244" x2="17.244" y1="37.588" y2="27.588" gradientTransform="matrix(1 -.026667 0 1 21.696 -5.3735)" gradientUnits="userSpaceOnUse" xlink:href="#linearGradient4383"/>
  <linearGradient id="linearGradient69717" x1="50.714" x2="48.714" y1="25.586" y2="20.586" gradientTransform="translate(1.2256 1.0356)" gradientUnits="userSpaceOnUse" xlink:href="#linearGradient4383"/>
  <linearGradient id="linearGradient3774">
   <stop stop-color="#4e9a06" offset="0"/>
   <stop stop-color="#8ae234" offset="1"/>
  </linearGradient>
 </defs>
 <metadata>
  <rdf:RDF>
   <cc:Work rdf:about="">
    <dc:format>image/svg+xml</dc:format>
    <dc:type rdf:resource="http://purl.org/dc/dcmitype/StillImage"/>
    <dc:title/>
    <dc:title>Path-Stock</dc:title>
    <dc:date>2015-07-04</dc:date>
    <dc:relation>http://www.freecadweb.org/wiki/index.php?title=Artwork</dc:relation>
    <dc:publisher>
     <cc:Agent>
      <dc:title>FreeCAD</dc:title>
     </cc:Agent>
    </dc:publisher>
    <dc:identifier>FreeCAD/src/Mod/Path/Gui/Resources/icons/Path-Stock.svg</dc:identifier>
    <dc:rights>
     <cc:Agent>
      <dc:title>FreeCAD LGPL2+</dc:title>
     </cc:Agent>
    </dc:rights>
    <cc:license>https://www.gnu.org/copyleft/lesser.html</cc:license>
    <dc:contributor>
     <cc:Agent>
      <dc:title>[agryson] Alexander Gryson</dc:title>
     </cc:Agent>
    </dc:contributor>
   </cc:Work>
  </rdf:RDF>
 </metadata>
 <g stroke-width="2">
  <path d="m9 49v-14l28 10v14z" fill="url(#linearGradient69056)" stroke="#302b00" stroke-linejoin="round"/>
  <path d="m37 59v-14l18-17v13z" fill="url(#linearGradient4399)" stroke="#302b00" stroke-linejoin="round"/>
  <path d="m11.008 47.606-8e-3 -9.6063 24 8 0.0081 10.185z" fill="none" stroke="#fce94f"/>
  <path d="m39.005 54.168-5e-3 -8.1682 14-13 0.0021 7.1768z" fill="none" stroke="#edd400"/>
  <path d="m23 40 19-17 13 5-18 17z" fill="#fce94f" stroke="#302b00" stroke-linejoin="round"/>
 </g>
 <g stroke="#172a04" stroke-linejoin="round" stroke-width="2">
  <path d="m9 35v-14l14 5v14z" fill="url(#linearGradient4389)"/>
  <path d="m9 21 19.585-15.791 13.415 4.7911-19 16z" fill="#8ae234"/>
  <path d="m23 40v-14l7.9726-6.7138 0.027391 13.714z" fill="url(#linearGradient69042)"/>
 </g>
 <g stroke-width="2">
  <path d="m25 36v-9l4-3.5v9z" fill="none" stroke="#8ae234"/>
  <path d="m10.951 33.746 0.08695-9.9796 9.9568 3.5229-0.02105 9.9613z" fill="none" stroke="#8ae234"/>
  <path d="m31 33.5-0.02739-14.214 12.967 4.3352v14.5z" fill="url(#linearGradient69709)" stroke="#0b1521" stroke-linejoin="round"/>
  <path d="m32.927 32.029 0.04731-10.141 8.9272 3.29 0.07814 10.042z" fill="none" stroke="#729fcf"/>
  <path d="m43.94 38.121v-14.5l11-9 0.06003 13.379z" fill="url(#linearGradient69717)" stroke="#0b1521" stroke-linejoin="round"/>
  <path d="m45.94 33.621v-9l7-6-0.0122 8.5816z" fill="none" stroke="#729fcf"/>
  <path d="m30.973 19.286 11.027-9.2862 12.94 4.6214-11 9z" fill="#729fcf" stroke="#0b1521" stroke-linejoin="round"/>
 </g>
 <g display="none" fill="#ef2929" fill-rule="evenodd" opacity=".588" stroke="#ef2929" stroke-width="1px">
  <path d="m9 35v14"/>
  <path d="m9 35 28 10"/>
  <path d="m55 28v13"/>
  <path d="m37 45 18-17"/>
  <path d="m23 40v-14"/>
  <path d="m29 5 13 5"/>
  <path d="m23 26 19-16"/>
  <path d="m19 13 10-8"/>
  <path d="m55 15-9 8"/>
  <path d="m42 23v-13"/>
  <path d="m42 23 14 5"/>
  <path d="m23 40 19-17"/>
  <path d="m23 10h19"/>
  <path d="m34 17v13"/>
 </g>
</svg>
