<?xml version="1.0" encoding="UTF-8" standalone="no"?>
<!-- Created with Inkscape (http://www.inkscape.org/) -->

<svg
   width="64"
   height="64"
   id="svg2869"
   version="1.1"
   viewBox="0 0 64 64"
   xml:space="preserve"
   xmlns:xlink="http://www.w3.org/1999/xlink"
   xmlns="http://www.w3.org/2000/svg"
   xmlns:svg="http://www.w3.org/2000/svg"
   xmlns:rdf="http://www.w3.org/1999/02/22-rdf-syntax-ns#"
   xmlns:cc="http://creativecommons.org/ns#"
   xmlns:dc="http://purl.org/dc/elements/1.1/"><defs
     id="defs2871"><linearGradient
       id="linearGradient8"><stop
         style="stop-color:#3465a4;stop-opacity:1"
         offset="0"
         id="stop8" /><stop
         style="stop-color:#729fcf;stop-opacity:1"
         offset="1"
         id="stop9" /></linearGradient><linearGradient
       id="linearGradient5"><stop
         style="stop-color:#ef2929;stop-opacity:1;"
         offset="0"
         id="stop19" /><stop
         style="stop-color:#ef2929;stop-opacity:0;"
         offset="1"
         id="stop20" /></linearGradient><linearGradient
       id="swatch18"><stop
         style="stop-color:#ef2929;stop-opacity:1;"
         offset="0"
         id="stop18" /></linearGradient><linearGradient
       id="swatch15"><stop
         style="stop-color:#3d0000;stop-opacity:1;"
         offset="0"
         id="stop15" /></linearGradient><linearGradient
       id="linearGradient5-1"><stop
         style="stop-color:#ef2929;stop-opacity:1;"
         offset="0"
         id="stop5" /><stop
         style="stop-color:#ef2929;stop-opacity:0;"
         offset="1"
         id="stop6" /></linearGradient><linearGradient
       id="linearGradient3836-9"><stop
         style="stop-color:#a40000;stop-opacity:1"
         offset="0"
         id="stop3838-8" /><stop
         style="stop-color:#ef2929;stop-opacity:1"
         offset="1"
         id="stop3840-1" /></linearGradient><linearGradient
       xlink:href="#linearGradient8"
       id="linearGradient9"
       x1="32"
       y1="64"
       x2="32"
       y2="14.419661"
       gradientUnits="userSpaceOnUse" /></defs><metadata
     id="metadata2874"><rdf:RDF><cc:Work
         rdf:about=""><dc:format>image/svg+xml</dc:format><dc:type
           rdf:resource="http://purl.org/dc/dcmitype/StillImage" /><dc:creator><cc:Agent><dc:title>[maxwxyz]</dc:title></cc:Agent></dc:creator><dc:relation>https://www.freecad.org/wiki/index.php?title=Artwork</dc:relation><dc:publisher><cc:Agent><dc:title>FreeCAD</dc:title></cc:Agent></dc:publisher><dc:identifier>FreeCAD/src/</dc:identifier><dc:rights><cc:Agent><dc:title>FreeCAD LGPL2+</dc:title></cc:Agent></dc:rights><dc:date>2024</dc:date></cc:Work></rdf:RDF></metadata><g
     id="layer3"
     style="display:inline"><path
       style="fill:#204a87;fill-opacity:1;stroke:#0c1522;stroke-width:2;stroke-linecap:round;stroke-miterlimit:4;stroke-dasharray:none;stroke-opacity:1;paint-order:normal"
       id="path4"
       d="M 29.921921,10.073012 26.993293,6.1977395 C 26.21651,5.1698698 25.163057,4.5924975 24.064598,4.5924975 H 5.0714589 c -1.1437425,0 -2.0708717,1.2268134 -2.0708717,2.740257 V 58.484215 c 0,0.504481 0.309043,0.913419 0.6902905,0.913419 H 60.294706 c 0.381247,0 0.690291,-0.408938 0.690291,-0.913419 V 12.813269 c 0,-1.513445 -0.927129,-2.740257 -2.070872,-2.740257 z" /><path
       style="fill:#204a87;fill-opacity:1;stroke:#3465a4;stroke-width:2;stroke-linecap:round;stroke-miterlimit:4;stroke-dasharray:none;stroke-opacity:1;paint-order:normal"
       id="path7"
       d="M 5.2089844,6.5917969 H 24.064453 c 0.375444,0 0.874561,0.2026195 1.333984,0.8105468 l 3.527344,4.6699223 h 29.84961 c 0.0082,0.01044 0.01784,0.02289 0.02734,0.03711 0.01056,0.0158 0.02193,0.03237 0.0332,0.05273 0.08049,0.145363 0.148438,0.361331 0.148438,0.650391 V 57.398437 H 5 V 7.3320312 C 5,7.0436394 5.0678061,6.828994 5.1484375,6.6835937 c 0.011294,-0.020366 0.022609,-0.038859 0.033203,-0.054687 0.00953,-0.014245 0.019073,-0.026632 0.027344,-0.037109 z" /><path
       style="fill:#729fcf;fill-opacity:1;stroke:#0c1522;stroke-width:2;stroke-linecap:round;stroke-linejoin:round;stroke-miterlimit:4;stroke-dasharray:none;stroke-opacity:1;paint-order:normal"
       id="path6"
       d="m 29.919347,14.419661 -2.927223,3.534545 C 26.215716,18.891703 25.16247,19.41831 24.064012,19.41831 H 3.0000008 l 0.015588,39.156085 c 2.171e-4,0.460126 0.3093777,0.833108 0.6906252,0.833108 h 56.603828 c 0.381248,0 0.690139,-0.372982 0.689957,-0.833108 L 60.983419,16.918986 C 60.982865,15.538609 60.055293,14.419661 58.91155,14.419661 H 29.919344 Z" /><path
       style="fill:url(#linearGradient9);fill-opacity:1;stroke:#729fcf;stroke-width:2;stroke-linecap:round;stroke-linejoin:round;stroke-miterlimit:4;stroke-dasharray:none;stroke-opacity:1;paint-order:normal"
       id="path8"
       d="m 30.861328,16.419922 h 28.050781 c 0,0 0.07225,0.463543 0.07227,0.5 L 59,57.408203 H 5.015625 L 5,21.417969 h 19.064453 c 1.756119,0 3.349555,-0.836095 4.46875,-2.1875 z" /></g></svg>
