<?xml version="1.0" encoding="UTF-8" standalone="no"?>
<!-- Created with Inkscape (http://www.inkscape.org/) -->

<svg
   xmlns:dc="http://purl.org/dc/elements/1.1/"
   xmlns:cc="http://creativecommons.org/ns#"
   xmlns:rdf="http://www.w3.org/1999/02/22-rdf-syntax-ns#"
   xmlns:svg="http://www.w3.org/2000/svg"
   xmlns="http://www.w3.org/2000/svg"
   xmlns:xlink="http://www.w3.org/1999/xlink"
   xmlns:sodipodi="http://sodipodi.sourceforge.net/DTD/sodipodi-0.dtd"
   xmlns:inkscape="http://www.inkscape.org/namespaces/inkscape"
   width="64"
   height="64"
   id="svg6361"
   sodipodi:version="0.32"
   inkscape:version="0.48.5 r10040"
   sodipodi:docname="help-browser.svg"
   inkscape:output_extension="org.inkscape.output.svg.inkscape"
   version="1.1">
  <defs
     id="defs3">
    <linearGradient
       id="linearGradient2431">
      <stop
         style="stop-color:#ffffff;stop-opacity:1;"
         offset="0"
         id="stop2433" />
      <stop
         style="stop-color:#b8b8b8;stop-opacity:1;"
         offset="1"
         id="stop2435" />
    </linearGradient>
    <linearGradient
       inkscape:collect="always"
       id="linearGradient21644">
      <stop
         style="stop-color:#000000;stop-opacity:1;"
         offset="0"
         id="stop21646" />
      <stop
         style="stop-color:#000000;stop-opacity:0;"
         offset="1"
         id="stop21648" />
    </linearGradient>
    <radialGradient
       inkscape:collect="always"
       xlink:href="#linearGradient21644"
       id="radialGradient21650"
       cx="25.125"
       cy="36.75"
       fx="25.125"
       fy="36.75"
       r="15.75"
       gradientTransform="matrix(1,0,0,0.595238,0,14.875)"
       gradientUnits="userSpaceOnUse" />
    <linearGradient
       id="linearGradient2933">
      <stop
         id="stop2935"
         offset="0"
         style="stop-color:#9cbcde;stop-opacity:1" />
      <stop
         id="stop2937"
         offset="1"
         style="stop-color:#204a87" />
    </linearGradient>
    <radialGradient
       inkscape:collect="always"
       xlink:href="#linearGradient2933"
       id="radialGradient2207"
       cx="26.544321"
       cy="28.458725"
       fx="26.544321"
       fy="28.458725"
       r="22.376116"
       gradientUnits="userSpaceOnUse"
       gradientTransform="matrix(1.238342,0.00595485,-0.00650776,1.351272,-6.992513,-9.744842)" />
    <radialGradient
       inkscape:collect="always"
       xlink:href="#linearGradient2431"
       id="radialGradient2437"
       cx="-19.515638"
       cy="16.855663"
       fx="-19.515638"
       fy="16.855663"
       r="8.753643"
       gradientTransform="matrix(4.445991,0,0,6.8665,67.25071,-104.6679)"
       gradientUnits="userSpaceOnUse" />
    <linearGradient
       inkscape:collect="always"
       xlink:href="#linearGradient3780"
       id="linearGradient3786"
       x1="41.642857"
       y1="58.785713"
       x2="22.357143"
       y2="7.3571429"
       gradientUnits="userSpaceOnUse" />
    <linearGradient
       inkscape:collect="always"
       id="linearGradient3780">
      <stop
         style="stop-color:#3465a4;stop-opacity:1"
         offset="0"
         id="stop3782" />
      <stop
         style="stop-color:#729fcf;stop-opacity:0;"
         offset="1"
         id="stop3784" />
    </linearGradient>
  </defs>
  <sodipodi:namedview
     inkscape:guide-bbox="true"
     showguides="true"
     id="base"
     pagecolor="#ffffff"
     bordercolor="#666666"
     borderopacity="1"
     inkscape:pageopacity="0.0"
     inkscape:pageshadow="2"
     inkscape:zoom="5.6568542"
     inkscape:cx="92.058539"
     inkscape:cy="48.278344"
     inkscape:current-layer="layer1"
     showgrid="true"
     inkscape:grid-bbox="true"
     inkscape:document-units="px"
     inkscape:window-width="1600"
     inkscape:window-height="837"
     inkscape:window-x="0"
     inkscape:window-y="27"
     inkscape:showpageshadow="true"
     fill="#deb887"
     stroke="#204a87"
     borderlayer="true"
     inkscape:window-maximized="1">
    <inkscape:grid
       id="GridFromPre046Settings"
       type="xygrid"
       originx="0px"
       originy="0px"
       spacingx="1px"
       spacingy="1px"
       color="#7171cd"
       empcolor="#7b7bc3"
       opacity="0.12156863"
       empopacity="0.5372549"
       empspacing="2"
       visible="true"
       enabled="true"
       snapvisiblegridlinesonly="true" />
  </sodipodi:namedview>
  <metadata
     id="metadata4">
    <rdf:RDF>
      <cc:Work
         rdf:about="">
        <dc:format>image/svg+xml</dc:format>
        <dc:type
           rdf:resource="http://purl.org/dc/dcmitype/StillImage" />
        <dc:title>Help Browser</dc:title>
        <dc:date>2005-11-06</dc:date>
        <dc:creator>
          <cc:Agent>
            <dc:title>Tuomas Kuosmanen</dc:title>
          </cc:Agent>
        </dc:creator>
        <dc:subject>
          <rdf:Bag>
            <rdf:li>help</rdf:li>
            <rdf:li>browser</rdf:li>
            <rdf:li>documentation</rdf:li>
            <rdf:li>docs</rdf:li>
            <rdf:li>man</rdf:li>
            <rdf:li>info</rdf:li>
          </rdf:Bag>
        </dc:subject>
        <cc:license
           rdf:resource="http://creativecommons.org/licenses/by-sa/2.0/" />
        <dc:contributor>
          <cc:Agent>
            <dc:title>Jakub Steiner, Andreas Nilsson</dc:title>
          </cc:Agent>
        </dc:contributor>
        <dc:source>http://tigert.com</dc:source>
      </cc:Work>
      <cc:License
         rdf:about="http://creativecommons.org/licenses/by-sa/2.0/">
        <cc:permits
           rdf:resource="http://web.resource.org/cc/Reproduction" />
        <cc:permits
           rdf:resource="http://web.resource.org/cc/Distribution" />
        <cc:requires
           rdf:resource="http://web.resource.org/cc/Notice" />
        <cc:requires
           rdf:resource="http://web.resource.org/cc/Attribution" />
        <cc:permits
           rdf:resource="http://web.resource.org/cc/DerivativeWorks" />
        <cc:requires
           rdf:resource="http://web.resource.org/cc/ShareAlike" />
      </cc:License>
    </rdf:RDF>
  </metadata>
  <g
     id="layer1"
     inkscape:label="Layer 1"
     inkscape:groupmode="layer"
     transform="translate(0,16)">
    <path
       sodipodi:type="arc"
       style="fill:#729fcf;stroke:#0b1521;stroke-width:2.06896544;stroke-linecap:round;stroke-linejoin:round;stroke-miterlimit:4;stroke-dasharray:none"
       id="path2992"
       sodipodi:cx="32"
       sodipodi:cy="32"
       sodipodi:rx="30"
       sodipodi:ry="30"
       d="M 62,32 A 30,30 0 1 1 2,32 30,30 0 1 1 62,32 z"
       transform="matrix(0.96666667,0,0,0.96666667,1.0666666,-14.933333)" />
    <path
       sodipodi:type="arc"
       style="fill:url(#linearGradient3786);fill-opacity:1;stroke:#729fcf;stroke-width:2.22222233;stroke-linecap:round;stroke-linejoin:round;stroke-miterlimit:4;stroke-dasharray:none"
       id="path2992-3"
       sodipodi:cx="32"
       sodipodi:cy="32"
       sodipodi:rx="30"
       sodipodi:ry="30"
       d="M 62,32 A 30,30 0 1 1 2,32 30,30 0 1 1 62,32 z"
       transform="matrix(0.9,0,0,0.9,3.1999996,-12.8)" />
    <path
       transform="matrix(1.6857762,0,0,1.6566384,66.553764,-14.35579)"
       style="font-size:34.15322876px;font-style:normal;font-variant:normal;font-weight:bold;font-stretch:normal;text-align:start;line-height:125%;writing-mode:lr-tb;text-anchor:start;fill:url(#radialGradient2437);fill-opacity:1;stroke:#729fcf;stroke-width:1.19678509;stroke-linecap:butt;stroke-linejoin:round;stroke-opacity:1;font-family:Bitstream Vera Sans"
       d="m -20.25,5.6615838 c -1.059019,2.63e-5 -2.147637,0.1232356 -3.28125,0.34375 -1.132925,0.2204283 -2.009413,0.5375125 -3.379251,1 -0.01037,-0.00121 -0.02088,-0.00121 -0.03125,0 -0.01204,0.00861 -0.02264,0.019214 -0.03125,0.03125 -0.01204,0.00861 -0.02264,0.019214 -0.03125,0.03125 -0.0012,0.01037 -0.0012,0.02088 0,0.03125 -0.0012,0.01037 -0.0012,0.02088 0,0.03125 l 0,5.1562502 c -0.0012,0.01037 -0.0012,0.02088 0,0.03125 -0.0012,0.01037 -0.0012,0.02088 0,0.03125 0.0086,0.01204 0.01921,0.02264 0.03125,0.03125 0.0086,0.01204 0.01921,0.02264 0.03125,0.03125 0.01037,0.0012 0.02088,0.0012 0.03125,0 0.01037,0.0012 0.02088,0.0012 0.03125,0 0.01037,0.0012 0.02088,0.0012 0.03125,0 0.01037,0.0012 0.02088,0.0012 0.03125,0 1.142438,-0.719043 1.862603,-1.267138 2.910501,-1.625 1.048141,-0.368756 2.043116,-0.562479 2.9375,-0.5625 0.949218,2.1e-5 1.644925,0.210545 2.15625,0.625 0.508723,0.40209 0.781238,0.98304 0.78125,1.71875 -10e-6,0.480657 -0.144188,0.95141 -0.4375,1.4375 -0.282991,0.487016 -0.740265,1.243911 -1.375,1.807166 L -20.9375,16.75 c -1.201459,1.08049 -1.779516,1.991022 -2.165273,2.71875 -0.383113,0.711446 -0.359769,1.231656 -0.359769,2.149832 l 0,0.8125 c -0.0012,0.01037 -0.0012,0.02088 0,0.03125 -0.0012,0.01037 -0.0012,0.02088 0,0.03125 0.0086,0.01204 0.01921,0.02264 0.03125,0.03125 0.0086,0.01204 0.01921,0.02264 0.03125,0.03125 0.01037,0.0012 0.02088,0.0012 0.03125,0 0.01037,0.0012 0.02088,0.0012 0.03125,0 l 5.681292,-0.0283 c 0.01037,0.0012 0.02088,0.0012 0.03125,0 0.01037,0.0012 0.02088,0.0012 0.03125,0 0.01204,-0.0086 0.02264,-0.01921 0.03125,-0.03125 0.01204,-0.0086 0.02264,-0.01921 0.03125,-0.03125 0.0012,-0.01037 0.0012,-0.02088 0,-0.03125 0.0012,-0.01037 0.0012,-0.02088 0,-0.03125 l 0,-0.75 c -1.1e-5,-0.468196 0.14837,-0.576885 0.375,-0.965286 0.222295,-0.391284 0.708073,-0.950359 1.46875,-1.625 l 1.0625,-0.9375 c 1.066588,-0.98231 1.830659,-1.884654 2.28125,-2.75 0.449269,-0.874046 0.687482,-2.086836 0.6875,-3.182166 -1.8e-5,-2.126265 -0.743769,-3.7340278 -2.21875,-4.8437502 -1.475197,-1.1210252 -3.60624,-1.6874737 -6.375,-1.687496 z"
       id="path1554"
       inkscape:connector-curvature="0"
       sodipodi:nodetypes="cccccccccccccccccccccccccscccccccccccccccccccccc" />
    <path
       style="fill:#ffffff;stroke:#729fcf;stroke-width:2;stroke-linecap:butt;stroke-linejoin:round;stroke-opacity:1"
       d="m 27,27 10,0 0,10 -10,0 z"
       id="path3788"
       inkscape:connector-curvature="0" />
  </g>
</svg>
