<?xml version="1.0" encoding="UTF-8" standalone="no"?>
<!-- Created with Inkscape (http://www.inkscape.org/) -->

<svg
   width="64px"
   height="64px"
   id="svg3612"
   version="1.1"
   xmlns:xlink="http://www.w3.org/1999/xlink"
   xmlns="http://www.w3.org/2000/svg"
   xmlns:svg="http://www.w3.org/2000/svg"
   xmlns:rdf="http://www.w3.org/1999/02/22-rdf-syntax-ns#"
   xmlns:cc="http://creativecommons.org/ns#"
   xmlns:dc="http://purl.org/dc/elements/1.1/">
  <defs
     id="defs3614">
    <linearGradient
       id="linearGradient3814">
      <stop
         id="stop3816"
         offset="0"
         style="stop-color:#4e9a06;stop-opacity:1" />
      <stop
         id="stop3818"
         offset="1"
         style="stop-color:#8ae234;stop-opacity:1" />
    </linearGradient>
    <linearGradient
       y2="140.56369"
       x2="408.87384"
       y1="187.25706"
       x1="416.49524"
       gradientTransform="matrix(0.94231826,0,0,0.94231826,29.727549,12.826254)"
       gradientUnits="userSpaceOnUse"
       id="linearGradient5087"
       xlink:href="#linearGradient3814" />
    <linearGradient
       gradientTransform="translate(357.19864,126.64563)"
       y2="44"
       x2="48"
       y1="22"
       x1="43"
       gradientUnits="userSpaceOnUse"
       id="linearGradient3023"
       xlink:href="#linearGradient3895" />
    <linearGradient
       id="linearGradient3895">
      <stop
         style="stop-color:#729fcf;stop-opacity:1;"
         offset="0"
         id="stop3897" />
      <stop
         style="stop-color:#204a87;stop-opacity:1;"
         offset="1"
         id="stop3899" />
    </linearGradient>
  </defs>
  <g
     id="layer1">
    <g
       id="g4293"
       transform="translate(-384.19864,-132.64563)">
      <path
         id="path3464"
         d="m 419.19864,191.64563 c -2,0 -2,-3 -2,-6 0,-5 0,-12.3466 0,-18 -3,-1 -7,0 -10,-4 -3,-4 -2.91333,-15.06859 -1,-20 1.91333,-4.93141 5,-3 6,0 1,3 2,5 4,0 2,-5 6,-5 8,0 2,5 3,3 4,0 1,-3 4,-5 6,0 2,5 2,16 -1,20 -3,4 -7,3 -10,4 0,4 0,9 0,12 0,3 1.58716,3.47898 4.79358,-0.26051 3.20642,-3.73949 10.20642,-10.73949 16.15617,-15.63645 0.0503,5.89696 2.05025,11.89696 -0.70226,18.0314 -2.75251,6.13444 -15.24749,9.86556 -24.24749,9.86556 z m -24,-10 c -2,-6 -1.25901,-12.80532 -0.9387,-18.6331 5.68341,1.92851 14.47111,12.14309 18.9387,16.6331 0.0613,3.3669 0,8 0,12 -7.13975,0.0454 -16,-4 -18,-10 z"
         style="fill:url(#linearGradient5087);fill-opacity:1;stroke:#154b00;stroke-width:2;stroke-linecap:round;stroke-linejoin:round;stroke-miterlimit:4;stroke-dasharray:none;stroke-opacity:1" />
      <path
         id="path3464-9"
         d="m 420.585,189.6229 c -1.86363,0.13637 -1.11363,0.70455 -1.43181,-5.43182 0,-5 0.0227,-12.36932 0.0227,-18.02272 -3,-1 -8.88636,-1.06818 -10.56818,-3.93182 -1.68182,-2.86364 -2.82242,-11.52314 -0.90909,-16.45455 1.91333,-4.93141 2.19789,-1.96234 3.59091,0.90909 1.39302,2.87144 4.7461,2.98898 6.58539,-1.78604 1.8393,-4.77501 2.86364,-4.06381 4.96006,0.69514 2.09643,4.75894 5.54451,3.43666 6.81771,0.003 1.2732,-3.4339 1.81314,-4.52387 3.22223,0.88522 1.40909,5.4091 0.61431,12.64834 -1.61296,16.51198 -2.22728,3.86364 -7.04061,2.07732 -10.04061,3.07732 0,4 0.008,11.72136 -0.0147,14.22136 -0.0227,2.5 2.86044,6.0348 6.86231,1.86349 4.00188,-4.17131 8.30848,-9.30255 14.25823,-14.19951 0.62884,5.7684 1.08601,9.83992 -1.24866,13.98161 -2.33468,4.14168 -12.7792,7.16424 -20.49355,7.6785 z m -23.84091,-9.93182 c -1.50021,-6.34153 -0.6834,-8.97396 -0.5909,-13.40909 3.86523,2.15578 10.57786,9.64636 15.04545,14.13637 0.0613,3.3669 0.0455,5.13637 0.0455,9.13637 -5.54884,-0.63642 -13.09069,-3.70394 -14.5,-9.86365 z"
         style="fill:none;stroke:#8ae234;stroke-width:2;stroke-linecap:round;stroke-linejoin:miter;stroke-miterlimit:4;stroke-dasharray:none;stroke-opacity:1" />
      <path
         style="fill:url(#linearGradient3023);fill-opacity:1;fill-rule:evenodd;stroke:#0b1521;stroke-width:2;stroke-linecap:butt;stroke-linejoin:round;stroke-miterlimit:4;stroke-dasharray:none;stroke-opacity:1"
         d="m 404.19864,141.64563 v 10 h -17 v 14 h 17 v 10 l 18,-17 z"
         id="path3343" />
      <path
         style="fill:none;stroke:#729fcf;stroke-width:2;stroke-linecap:butt;stroke-linejoin:miter;stroke-miterlimit:4;stroke-dasharray:none;stroke-opacity:1"
         d="m 406.20525,146.28863 -0.007,7.357 h -17 v 10 h 17 l -0.007,7.357 13.0066,-12.357 z"
         id="path3343-2" />
    </g>
  </g>
  <metadata
     id="metadata4894">
    <rdf:RDF>
      <cc:Work
         rdf:about="">
        <dc:format>image/svg+xml</dc:format>
        <dc:type
           rdf:resource="http://purl.org/dc/dcmitype/StillImage" />
        <cc:license
           rdf:resource="" />
        <dc:date>Mon Oct 10 13:44:52 2011 +0000</dc:date>
        <dc:creator>
          <cc:Agent>
            <dc:title>[wmayer]</dc:title>
          </cc:Agent>
        </dc:creator>
        <dc:rights>
          <cc:Agent>
            <dc:title>FreeCAD LGPL2+</dc:title>
          </cc:Agent>
        </dc:rights>
        <dc:publisher>
          <cc:Agent>
            <dc:title>FreeCAD</dc:title>
          </cc:Agent>
        </dc:publisher>
        <dc:identifier>FreeCAD/src/Mod/Draft/Resources/icons/Draft_Macro.svg</dc:identifier>
        <dc:relation>https://www.freecad.org/wiki/index.php?title=Artwork</dc:relation>
        <dc:contributor>
          <cc:Agent>
            <dc:title>[agryson] Alexander Gryson</dc:title>
          </cc:Agent>
        </dc:contributor>
        <dc:subject>
          <rdf:Bag>
            <rdf:li>flower</rdf:li>
            <rdf:li>macro</rdf:li>
          </rdf:Bag>
        </dc:subject>
        <dc:description>A two leaved flower, similar in form to a tulip</dc:description>
      </cc:Work>
    </rdf:RDF>
  </metadata>
</svg>
