/* XPM */
static char *xpm_linksubelement[] = {
"8 8 3 1",
". c None",
"# c #000000",
"a c #33ffff",
".#######",
".#aaaaa#",
"######a#",
"aaaaa#a#",
"##aaa#a#",
"#aa#a#a#",
"aa##a###",
"##..##.."};

