/* XPM */
const char *xpm_link[] = {
"6 6 3 1",
"  c None",
"# c #000000",
"a c #ffffff",
"######",
"aaaaa#",
"##aaa#",
"#aa#a#",
"aa##a#",
"##..##"};

