<?xml version="1.0" encoding="UTF-8" standalone="no"?>
<svg
   xmlns:dc="http://purl.org/dc/elements/1.1/"
   xmlns:cc="http://creativecommons.org/ns#"
   xmlns:rdf="http://www.w3.org/1999/02/22-rdf-syntax-ns#"
   xmlns:svg="http://www.w3.org/2000/svg"
   xmlns="http://www.w3.org/2000/svg"
   xmlns:xlink="http://www.w3.org/1999/xlink"
   xmlns:sodipodi="http://sodipodi.sourceforge.net/DTD/sodipodi-0.dtd"
   xmlns:inkscape="http://www.inkscape.org/namespaces/inkscape"
   width="64"
   height="64"
   viewBox="0 0 63.999999 63.999998"
   id="svg2"
   version="1.1"
   inkscape:version="0.91 r13725"
   sodipodi:docname="LinkSelect.svg">
  <metadata
     id="metadata14">
    <rdf:RDF>
      <cc:Work
         rdf:about="">
        <dc:format>image/svg+xml</dc:format>
        <dc:type
           rdf:resource="http://purl.org/dc/dcmitype/StillImage" />
        <dc:title />
      </cc:Work>
    </rdf:RDF>
  </metadata>
  <defs
     id="defs12">
    <linearGradient
       inkscape:collect="always"
       xlink:href="#linearGradient3806"
       id="linearGradient4316"
       gradientUnits="userSpaceOnUse"
       gradientTransform="matrix(-0.51964051,0,0,0.50042191,1386.3532,982.21378)"
       x1="376.4729"
       y1="126.48917"
       x2="227.8653"
       y2="325.55527" />
    <linearGradient
       gradientTransform="translate(-16,0)"
       inkscape:collect="always"
       xlink:href="#linearGradient3777"
       id="linearGradient3783"
       x1="53.896763"
       y1="51.179787"
       x2="50"
       y2="38"
       gradientUnits="userSpaceOnUse" />
    <linearGradient
       inkscape:collect="always"
       id="linearGradient3777">
      <stop
         style="stop-color:#204a87;stop-opacity:1"
         offset="0"
         id="stop3779" />
      <stop
         style="stop-color:#3465a4;stop-opacity:1"
         offset="1"
         id="stop3781" />
    </linearGradient>
    <linearGradient
       gradientTransform="translate(-16,0)"
       inkscape:collect="always"
       xlink:href="#linearGradient3767"
       id="linearGradient3773"
       x1="22.116516"
       y1="55.717518"
       x2="20"
       y2="40"
       gradientUnits="userSpaceOnUse" />
    <linearGradient
       inkscape:collect="always"
       id="linearGradient3767">
      <stop
         style="stop-color:#3465a4;stop-opacity:1"
         offset="0"
         id="stop3769" />
      <stop
         style="stop-color:#729fcf;stop-opacity:1"
         offset="1"
         id="stop3771" />
    </linearGradient>
    <linearGradient
       id="linearGradient3806">
      <stop
         id="stop3808"
         offset="0"
         style="stop-color:#34e0e2;stop-opacity:1" />
      <stop
         id="stop3810"
         offset="1"
         style="stop-color:#06989a;stop-opacity:1" />
    </linearGradient>
  </defs>
  <sodipodi:namedview
     pagecolor="#ffffff"
     bordercolor="#666666"
     borderopacity="1"
     objecttolerance="10"
     gridtolerance="10"
     guidetolerance="10"
     inkscape:pageopacity="0"
     inkscape:pageshadow="2"
     inkscape:window-width="1375"
     inkscape:window-height="876"
     id="namedview10"
     showgrid="false"
     inkscape:zoom="2.6093572"
     inkscape:cx="-54.825098"
     inkscape:cy="64.520708"
     inkscape:window-x="65"
     inkscape:window-y="24"
     inkscape:window-maximized="1"
     inkscape:current-layer="svg2" />
  <g
     id="g3192"
     transform="matrix(1.4901233,0,0,1.6118776,5.9003199,-44.132212)">
    <path
       sodipodi:nodetypes="ccccc"
       inkscape:connector-curvature="0"
       id="path2993"
       d="M 3,35 21,39 37,35 21,31 Z"
       style="fill:#729fcf;stroke:#0b1521;stroke-width:1.29048471;stroke-linecap:butt;stroke-linejoin:round;stroke-opacity:1;stroke-miterlimit:4;stroke-dasharray:none" />
    <path
       sodipodi:nodetypes="ccccc"
       inkscape:connector-curvature="0"
       id="path2995"
       d="m 37,35 0,20 -16,6 0,-22 z"
       style="fill:url(#linearGradient3783);fill-opacity:1;stroke:#0b1521;stroke-width:1.29048471;stroke-linecap:butt;stroke-linejoin:round;stroke-opacity:1;stroke-miterlimit:4;stroke-dasharray:none" />
    <path
       style="display:inline;overflow:visible;visibility:visible;fill:url(#linearGradient3773);fill-opacity:1;fill-rule:evenodd;stroke:#0b1521;stroke-width:1.29048471;stroke-linecap:butt;stroke-linejoin:round;stroke-miterlimit:4;stroke-dasharray:none;stroke-dashoffset:0;stroke-opacity:1;marker:none;enable-background:accumulate"
       d="M 3,35 21,39 21,61 3,57 Z"
       id="path3825"
       sodipodi:nodetypes="ccccc"
       inkscape:connector-curvature="0" />
    <path
       sodipodi:nodetypes="ccccc"
       inkscape:connector-curvature="0"
       id="path3765"
       d="m 5,37.42772 0.0087,17.919116 14.008671,3.268799 -0.0087,-17.933614 z"
       style="fill:none;stroke:#729fcf;stroke-width:2;stroke-linecap:butt;stroke-linejoin:miter;stroke-opacity:1" />
    <path
       sodipodi:nodetypes="ccccc"
       inkscape:connector-curvature="0"
       id="path3775"
       d="m 23.01243,40.433833 -0.01226,17.535301 12.001105,-4.300993 3.6e-4,-15.867363 z"
       style="fill:none;stroke:#3465a4;stroke-width:2;stroke-linecap:butt;stroke-linejoin:miter;stroke-opacity:1" />
  </g>
  <g
     id="g4310"
     transform="matrix(0.16525955,-0.01476316,0.01344895,0.14183011,-197.28059,-97.029605)"
     inkscape:transform-center-x="-2.2577962"
     inkscape:transform-center-y="-0.26538645">
    <path
       id="path4312"
       d="m 1145.5648,1074.1543 c 18.5937,-18.383 48.2169,-28.9064 88.8688,-31.5737 l 0,-37.4326 c 0,-4.0003 1.9294,-6.80966 5.7868,-8.43006 4.0547,-1.61639 7.5171,-0.95178 10.3849,2.00121 l 75.9581,73.15065 c 1.8799,1.8121 2.8184,3.9543 2.8184,6.4303 0,2.4767 -0.9389,4.6185 -2.8184,6.429 l -75.9602,73.1502 c -1.7833,1.81 -4.0064,2.7148 -6.6772,2.7148 -1.1865,0 -2.4222,-0.2382 -3.7083,-0.7141 -3.8572,-1.6204 -5.7882,-4.4273 -5.7882,-8.4296 l 0,-35.8618 c -15.9228,1.2386 -29.1503,3.7387 -39.6881,7.5008 -10.5331,3.7627 -18.9637,9.0247 -25.2946,15.7879 -14.738,15.7158 -19.9806,42.6214 -15.7274,80.7237 0.1953,2.4775 -0.9389,4.0963 -3.4125,4.858 -0.2967,0.097 -0.7414,0.142 -1.3349,0.142 -1.9778,0 -3.361,-0.8095 -4.154,-2.4285 l -2.9667,-5.7148 c -1.3832,-2.6676 -3.3858,-6.9784 -6.007,-12.9313 -2.6194,-5.9556 -4.9969,-11.9071 -7.1237,-17.8612 -2.1269,-5.9515 -4.0298,-12.5235 -5.7119,-19.7147 -1.6805,-7.194 -2.5219,-13.5508 -2.5219,-19.074 0,-32.0039 8.3606,-56.2428 25.078,-72.7222 z"
       inkscape:connector-curvature="0"
       style="opacity:1;fill:#34e0e2;fill-opacity:1;stroke:#042a2a;stroke-width:16.26075878;stroke-miterlimit:4;stroke-dasharray:none;stroke-opacity:1" />
    <path
       style="opacity:1;fill:url(#linearGradient4316);fill-opacity:1;stroke:none;stroke-width:34.75331116;stroke-miterlimit:4;stroke-dasharray:none;stroke-opacity:1"
       d="m 1252.6459,1025.0625 c 18.4441,17.7617 37.1632,35.1962 55.3062,53.3235 -19.0906,18.0067 -37.542,36.7844 -56.7747,54.6184 -0.018,-12.2743 -0.087,-24.5491 0.032,-36.8231 -26.4463,1.6409 -53.9694,3.575 -77.8197,17.2303 -17.0095,9.5803 -28.4884,27.8106 -34.5388,47.088 -3.5743,-21.5969 -1.2897,-45.3408 10.607,-63.6609 11.0273,-16.9013 29.5358,-25.7267 47.629,-30.3404 14.7839,-4.3279 30.2561,-4.0127 45.1276,-7.7257 7.8392,-4.3982 10.4187,-14.9284 9.2176,-23.8416 -0.062,-3.7919 -0.2886,-7.6325 -0.4323,-11.451 0.5488,0.5275 1.0977,1.055 1.6465,1.5825 z"
       id="path4314"
       inkscape:connector-curvature="0" />
  </g>
</svg>
