<?xml version="1.0" encoding="UTF-8" standalone="no"?>
<svg
   xmlns:dc="http://purl.org/dc/elements/1.1/"
   xmlns:cc="http://creativecommons.org/ns#"
   xmlns:rdf="http://www.w3.org/1999/02/22-rdf-syntax-ns#"
   xmlns:svg="http://www.w3.org/2000/svg"
   xmlns="http://www.w3.org/2000/svg"
   xmlns:xlink="http://www.w3.org/1999/xlink"
   xmlns:sodipodi="http://sodipodi.sourceforge.net/DTD/sodipodi-0.dtd"
   xmlns:inkscape="http://www.inkscape.org/namespaces/inkscape"
   width="64"
   height="64"
   viewBox="0 0 63.999999 63.999998"
   id="svg2"
   version="1.1"
   inkscape:version="0.91 r13725"
   sodipodi:docname="LinkReplace.svg">
  <metadata
     id="metadata14">
    <rdf:RDF>
      <cc:Work
         rdf:about="">
        <dc:format>image/svg+xml</dc:format>
        <dc:type
           rdf:resource="http://purl.org/dc/dcmitype/StillImage" />
        <dc:title />
      </cc:Work>
    </rdf:RDF>
  </metadata>
  <defs
     id="defs12">
    <linearGradient
       inkscape:collect="always"
       id="linearGradient3861">
      <stop
         style="stop-color:#3465a4;stop-opacity:1;"
         offset="0"
         id="stop3863" />
      <stop
         style="stop-color:#729fcf;stop-opacity:1"
         offset="1"
         id="stop3865" />
    </linearGradient>
    <linearGradient
       inkscape:collect="always"
       xlink:href="#linearGradient3861"
       id="linearGradient4204"
       x1="220.23199"
       y1="452.43173"
       x2="178.23227"
       y2="89.727692"
       gradientUnits="userSpaceOnUse" />
    <linearGradient
       inkscape:collect="always"
       xlink:href="#linearGradient3774"
       id="linearGradient4316"
       gradientUnits="userSpaceOnUse"
       gradientTransform="matrix(-0.08770491,0.01277199,0.00523903,0.05082932,69.261004,0.94505453)"
       x1="288.11227"
       y1="358.15811"
       x2="372.52457"
       y2="7.5416322" />
    <linearGradient
       inkscape:collect="always"
       id="linearGradient3774">
      <stop
         style="stop-color:#4e9a06;stop-opacity:1"
         offset="0"
         id="stop3776" />
      <stop
         style="stop-color:#8ae234;stop-opacity:1"
         offset="1"
         id="stop3778" />
    </linearGradient>
    <linearGradient
       inkscape:collect="always"
       xlink:href="#linearGradient3774"
       id="linearGradient4774"
       gradientUnits="userSpaceOnUse"
       gradientTransform="matrix(0.08662093,-0.01470308,-0.00649518,-0.04599647,5.3773235,56.325019)"
       x1="288.11227"
       y1="358.15811"
       x2="372.52457"
       y2="7.5416322" />
  </defs>
  <sodipodi:namedview
     pagecolor="#ffffff"
     bordercolor="#666666"
     borderopacity="1"
     objecttolerance="10"
     gridtolerance="10"
     guidetolerance="10"
     inkscape:pageopacity="0"
     inkscape:pageshadow="2"
     inkscape:window-width="1375"
     inkscape:window-height="876"
     id="namedview10"
     showgrid="false"
     inkscape:zoom="10.437429"
     inkscape:cx="44.295992"
     inkscape:cy="41.292895"
     inkscape:window-x="65"
     inkscape:window-y="24"
     inkscape:window-maximized="1"
     inkscape:current-layer="svg2" />
  <g
     id="g4"
     style="fill:#205493;stroke:#0b1521;stroke-width:17.03064728;stroke-miterlimit:4;stroke-dasharray:none;stroke-opacity:1"
     transform="matrix(0.12062121,0,0,0.13519615,5.8429885,-4.2033923)">
    <path
       style="fill:url(#linearGradient4204);fill-opacity:1;stroke:#0b1521;stroke-width:17.13426781;stroke-miterlimit:4;stroke-dasharray:none;stroke-opacity:1"
       d="m 191.68535,68.991034 c -25.01113,0.825185 25.55018,0.03509 0.25466,0.363792 -43.36411,0.212557 -75.47638,-0.692241 -118.824699,0.06442 -43.079122,3.698128 -79.7652904,44.484054 -76.9336704,88.026064 -0.4439575,75.47002 -0.051566,150.94383 -0.1459621,226.41396 -0.5002276,16.57633 1.0512879,33.72441 9.3462972,48.45039 15.1024633,29.2002 47.5748333,49.03481 80.7098203,46.74393 81.071924,-0.21153 162.166794,0.57106 243.224554,-0.41015 43.22514,-3.74522 79.42489,-45.02726 76.62401,-88.51258 -0.22056,-30.91559 1.31867,-13.51025 0.0795,-44.36085 -2.34002,-8.22613 -12.14001,-10.33714 -19.54688,-8.83594 -7.75802,-0.46323 -18.74559,-1.78474 -22.87891,6.63477 -3.83588,9.4189 -0.29725,19.57848 -1.61914,29.34375 -0.40461,25.86461 0.59366,3.47835 -1.47293,29.2046 -4.3795,20.76154 -25.86566,35.21453 -46.75585,32.40721 -79.28903,-0.25751 -158.60963,0.5384 -237.878912,-0.41112 -21.612075,-2.81679 -38.071154,-24.76126 -35.322258,-46.2832 0.263584,-79.62158 -0.544254,-159.27571 0.416008,-238.87696 2.816182,-21.62523 24.76226,-38.04333 46.289061,-35.32265 66.459691,-0.23376 45.553841,0.63643 111.988081,-0.21561 8.31737,-1.76623 8.5373,-12.68319 9.56641,-18.996089 0.22106,-7.774814 2.06378,-18.411454 -5.84961,-23.224609 -3.44384,-1.838988 -7.42123,-2.284442 -11.26958,-2.203125 z"
       id="path6"
       inkscape:connector-curvature="0"
       sodipodi:nodetypes="ccccccccccccccccccccccc" />
  </g>
  <path
     style="opacity:1;fill:#8ae234;fill-opacity:1;stroke:#172a04;stroke-width:2.5;stroke-miterlimit:4;stroke-dasharray:none;stroke-opacity:1"
     inkscape:connector-curvature="0"
     d="m 29.58329,16.201943 c 2.945789,-2.324221 7.83542,-4.121208 14.668722,-5.391296 L 43.860122,7.0085079 C 43.818242,6.6021857 44.114474,6.269409 44.748561,6.010011 45.415991,5.7461711 46.007333,5.7285768 46.522276,5.958034 l 13.586036,5.563189 c 0.33626,0.137856 0.517088,0.332378 0.543009,0.583873 0.02593,0.251565 -0.110115,0.492191 -0.408383,0.722284 l -12.054734,9.297069 c -0.282036,0.227678 -0.647779,0.374221 -1.098556,0.439866 -0.200258,0.02916 -0.411313,0.03534 -0.633363,0.01861 -0.667982,-0.06978 -1.023283,-0.307429 -1.065183,-0.713954 l -0.375446,-3.642588 c -2.674482,0.517167 -4.880845,1.096222 -6.620028,1.737353 -1.738384,0.641076 -3.106211,1.382764 -4.103935,2.225326 -2.322947,1.958538 -2.926112,4.820274 -1.809356,8.585899 0.0589,0.246847 -0.115583,0.43915 -0.525102,0.577316 -0.04906,0.01715 -0.123647,0.03265 -0.223818,0.04723 -0.333813,0.04861 -0.575744,3.85e-4 -0.726537,-0.144571 l -0.560549,-0.507552 c -0.261384,-0.236959 -0.644513,-0.625598 -1.149241,-1.165827 -0.504453,-0.540546 -0.968035,-1.086622 -1.389331,-1.639124 -0.421286,-0.552235 -0.811261,-1.173002 -1.170452,-1.86209 -0.35895,-0.689412 -0.567513,-1.31441 -0.625336,-1.875418 -0.335056,-3.250729 0.822283,-5.918237 3.471319,-8.002986 z"
     id="path4312" />
  <path
     inkscape:connector-curvature="0"
     id="path4314"
     d="m 47.142482,8.5836508 c 3.298946,1.3507794 6.640881,2.6615652 9.892834,4.0568802 -3.033594,2.298212 -5.951233,4.659026 -9.01062,6.943188 -0.13154,-1.246294 -0.271693,-2.491385 -0.380108,-3.741016 -4.446427,0.816681 -9.071526,1.68961 -12.954019,3.662824 -2.770564,1.391167 -4.517116,3.525007 -5.336483,5.631778 -0.829373,-2.105809 -0.692358,-4.573699 1.12377,-6.726928 1.684243,-1.987749 4.715712,-3.339082 7.72118,-4.252413 2.449917,-0.802964 5.064614,-1.151232 7.535753,-1.893891 1.277055,-0.639414 1.602179,-1.772398 1.306144,-2.6482164 -0.05016,-0.3836305 -0.128617,-0.768162 -0.192847,-1.1524863 0.09815,0.040091 0.196315,0.08018 0.294464,0.1202706 z"
     style="opacity:1;fill:url(#linearGradient4316);fill-opacity:1;stroke:none;stroke-width:34.75331116;stroke-miterlimit:4;stroke-dasharray:none;stroke-opacity:1" />
  <path
     style="opacity:1;fill:#8ae234;fill-opacity:1;stroke:#172a04;stroke-width:2.5;stroke-miterlimit:4;stroke-dasharray:none;stroke-opacity:1"
     inkscape:connector-curvature="0"
     d="m 44.32196,41.061234 c -2.860857,2.215783 -7.662278,4.021226 -14.404083,5.416625 l 0.485852,3.440631 c 0.05192,0.367689 -0.233234,0.680505 -0.855207,0.938588 -0.654914,0.263298 -1.240702,0.300178 -1.757075,0.109896 L 14.18024,46.392517 c -0.336888,-0.113368 -0.521135,-0.283715 -0.553272,-0.511297 -0.03215,-0.227647 0.09656,-0.451077 0.386366,-0.67067 l 11.71266,-8.872899 c 0.273773,-0.216825 0.632606,-0.362892 1.077812,-0.438462 0.197783,-0.03357 0.406858,-0.04664 0.62742,-0.03929 0.664004,0.0398 1.022322,0.243161 1.074269,0.611034 l 0.465465,3.296251 c 2.638158,-0.564378 4.810653,-1.168443 6.51841,-1.812402 1.706967,-0.643881 3.043999,-1.366081 4.01154,-2.166854 2.252753,-1.861531 2.777445,-4.482907 1.573917,-7.864751 -0.06471,-0.222195 0.103341,-0.403079 0.505789,-0.543081 0.0482,-0.01731 0.121744,-0.03403 0.220677,-0.05082 0.329687,-0.05596 0.570765,-0.02069 0.723967,0.10568 l 0.568705,0.441336 c 0.265195,0.206056 0.654968,0.545622 1.169171,1.018619 0.513939,0.473296 0.987501,0.953059 1.419306,1.440155 0.431788,0.486855 0.834291,1.037081 1.208024,1.650468 0.373503,0.61369 0.596267,1.17417 0.667955,1.681837 0.415391,2.941651 -0.663664,5.406139 -3.236461,7.393863 z"
     id="path4312-5" />
  <path
     inkscape:connector-curvature="0"
     id="path4314-3"
     d="m 27.109371,48.603354 c -3.305056,-1.110703 -6.651706,-2.18355 -9.911316,-3.336377 2.948571,-2.195255 5.780585,-4.443292 8.755085,-6.626694 0.162313,1.127688 0.333135,2.253978 0.472607,3.385514 4.387141,-0.899114 8.949971,-1.855646 12.748434,-3.785615 2.711035,-1.361856 4.38788,-3.362293 5.146236,-5.305376 0.876128,1.883953 0.803481,4.131025 -0.941843,6.151537 -1.618815,1.865503 -4.589522,3.200386 -7.545666,4.136398 -2.408213,0.816107 -4.991426,1.224916 -7.422223,1.986983 -1.249661,0.62607 -1.542972,1.666943 -1.227068,2.452219 0.05955,0.346779 0.147173,0.693378 0.220689,1.040291 -0.09833,-0.03296 -0.196674,-0.06591 -0.295002,-0.09887 z"
     style="opacity:1;fill:url(#linearGradient4774);fill-opacity:1;stroke:none;stroke-width:34.75331116;stroke-miterlimit:4;stroke-dasharray:none;stroke-opacity:1" />
</svg>
