<?xml version="1.0" encoding="UTF-8" standalone="no"?>
<!-- Created with Inkscape (http://www.inkscape.org/) -->

<svg
   width="64px"
   height="64px"
   id="svg2816"
   version="1.1"
   xmlns:xlink="http://www.w3.org/1999/xlink"
   xmlns="http://www.w3.org/2000/svg"
   xmlns:svg="http://www.w3.org/2000/svg"
   xmlns:rdf="http://www.w3.org/1999/02/22-rdf-syntax-ns#"
   xmlns:cc="http://creativecommons.org/ns#"
   xmlns:dc="http://purl.org/dc/elements/1.1/">
  <defs
     id="defs2818">
    <radialGradient
       xlink:href="#linearGradient3832"
       id="radialGradient3838"
       cx="55"
       cy="125"
       fx="55"
       fy="125"
       r="14.375"
       gradientUnits="userSpaceOnUse"
       gradientTransform="matrix(0.99991374,-0.00878458,0.02321852,1.1822213,-2.8975707,-22.29451)" />
    <linearGradient
       id="linearGradient3832">
      <stop
         style="stop-color:#ffffff;stop-opacity:1;"
         offset="0"
         id="stop3834" />
      <stop
         style="stop-color:#ffffff;stop-opacity:0;"
         offset="1"
         id="stop3836" />
    </linearGradient>
    <linearGradient
       id="linearGradient3960">
      <stop
         style="stop-color:#c4a000;stop-opacity:1"
         offset="0"
         id="stop3962" />
      <stop
         style="stop-color:#fce94f;stop-opacity:1"
         offset="1"
         id="stop3964" />
    </linearGradient>
    <linearGradient
       y2="22.615412"
       x2="21.860462"
       y1="57.301327"
       x1="37.758171"
       gradientUnits="userSpaceOnUse"
       id="linearGradient3096"
       xlink:href="#linearGradient3960" />
  </defs>
  <metadata
     id="metadata2821">
    <rdf:RDF>
      <cc:Work
         rdf:about="">
        <dc:format>image/svg+xml</dc:format>
        <dc:type
           rdf:resource="http://purl.org/dc/dcmitype/StillImage" />
      </cc:Work>
    </rdf:RDF>
  </metadata>
  <g
     id="layer1">
    <path
       style="fill:url(#linearGradient3096);fill-opacity:1;stroke:#302b00;stroke-width:1.44524646;stroke-miterlimit:4;stroke-dasharray:none;stroke-dashoffset:0"
       id="path4042"
       d="m 48.597521,39.95837 a 20.956074,20.956074 0 1 1 -41.9121477,0 20.956074,20.956074 0 1 1 41.9121477,0 z"
       transform="matrix(1.383847,0,0,1.383847,-6.2515342,-23.29627)" />
    <path
       style="color:#000000;fill:url(#radialGradient3838);fill-opacity:1;fill-rule:nonzero;stroke:none;stroke-width:1.25000024;marker:none;visibility:visible;display:block"
       id="path12511"
       d="m 69.375,125 a 14.375,14.375 0 1 1 -28.75,0 14.375,14.375 0 1 1 28.75,0 z"
       transform="matrix(0.38831771,0.39865499,-0.59605454,0.5805986,71.149343,-76.500849)" />
    <path
       style="fill:none;stroke:#fce94f;stroke-width:1.55230176;stroke-miterlimit:4;stroke-dasharray:none;stroke-dashoffset:0"
       id="path4042-0"
       d="m 48.597521,39.95837 a 20.956074,20.956074 0 1 1 -41.9121477,0 20.956074,20.956074 0 1 1 41.9121477,0 z"
       transform="matrix(1.2884093,0,0,1.2884093,-3.6134972,-19.482733)" />
    <path
       style="fill:none;stroke:#302b00;stroke-width:1.44524646;stroke-miterlimit:4;stroke-dasharray:none;stroke-dashoffset:0"
       id="path4042-3"
       d="m 48.597521,39.95837 a 20.956074,20.956074 0 1 1 -41.9121477,0 20.956074,20.956074 0 1 1 41.9121477,0 z"
       transform="matrix(1.383847,0,0,1.383847,-6.2515342,-23.29627)" />
  </g>
</svg>
