<?xml version="1.0" encoding="UTF-8" standalone="no"?>
<!-- Created with Inkscape (http://www.inkscape.org/) -->

<svg
   width="64px"
   height="64px"
   id="svg2816"
   version="1.1"
   xmlns:xlink="http://www.w3.org/1999/xlink"
   xmlns="http://www.w3.org/2000/svg"
   xmlns:svg="http://www.w3.org/2000/svg"
   xmlns:rdf="http://www.w3.org/1999/02/22-rdf-syntax-ns#"
   xmlns:cc="http://creativecommons.org/ns#"
   xmlns:dc="http://purl.org/dc/elements/1.1/">
  <defs
     id="defs2818">
    <linearGradient
       id="linearGradient3094">
      <stop
         id="stop3096"
         offset="0"
         style="stop-color:#a40000;stop-opacity:1" />
      <stop
         id="stop3098"
         offset="1"
         style="stop-color:#ef2929;stop-opacity:1" />
    </linearGradient>
    <linearGradient
       y2="22.615412"
       x2="21.860462"
       y1="57.301327"
       x1="37.758171"
       gradientUnits="userSpaceOnUse"
       id="linearGradient3096"
       xlink:href="#linearGradient3094" />
  </defs>
  <metadata
     id="metadata2821">
    <rdf:RDF>
      <cc:Work
         rdf:about="">
        <dc:format>image/svg+xml</dc:format>
        <dc:type
           rdf:resource="http://purl.org/dc/dcmitype/StillImage" />
      </cc:Work>
    </rdf:RDF>
  </metadata>
  <g
     id="layer1">
    <path
       style="fill:url(#linearGradient3096);fill-opacity:1;stroke:#302b00;stroke-width:1.44524646;stroke-miterlimit:4;stroke-dasharray:none;stroke-dashoffset:0"
       id="path4042"
       d="m 48.597521,39.95837 a 20.956074,20.956074 0 1 1 -41.9121477,0 20.956074,20.956074 0 1 1 41.9121477,0 z"
       transform="matrix(1.383847,0,0,1.383847,-6.2515342,-23.29627)" />
    <path
       style="fill:none;stroke:#ef2929;stroke-width:1.55230175999999997;stroke-miterlimit:4;stroke-dasharray:none;stroke-dashoffset:0"
       id="path4042-0"
       d="m 48.597521,39.95837 a 20.956074,20.956074 0 1 1 -41.9121477,0 20.956074,20.956074 0 1 1 41.9121477,0 z"
       transform="matrix(1.2884093,0,0,1.2884093,-3.6134972,-19.482733)" />
    <path
       style="fill:none;stroke:#280000;stroke-width:1.44524645999999990;stroke-miterlimit:4;stroke-dasharray:none;stroke-dashoffset:0"
       id="path4042-3"
       d="m 48.597521,39.95837 a 20.956074,20.956074 0 1 1 -41.9121477,0 20.956074,20.956074 0 1 1 41.9121477,0 z"
       transform="matrix(1.383847,0,0,1.383847,-6.2515342,-23.29627)" />
  </g>
</svg>
