<?xml version="1.0" encoding="UTF-8" standalone="no"?>
<!-- Created with Inkscape (http://www.inkscape.org/) -->

<svg
   width="64"
   height="64"
   id="svg2869"
   version="1.1"
   viewBox="0 0 64 64"
   xmlns="http://www.w3.org/2000/svg"
   xmlns:svg="http://www.w3.org/2000/svg"
   xmlns:rdf="http://www.w3.org/1999/02/22-rdf-syntax-ns#"
   xmlns:cc="http://creativecommons.org/ns#"
   xmlns:dc="http://purl.org/dc/elements/1.1/">
  <defs
     id="defs2871" />
  <metadata
     id="metadata2874">
    <rdf:RDF>
      <cc:Work
         rdf:about="">
        <dc:format>image/svg+xml</dc:format>
        <dc:type
           rdf:resource="http://purl.org/dc/dcmitype/StillImage" />
        <dc:creator>
          <cc:Agent>
            <dc:title>[maxwxyz]</dc:title>
          </cc:Agent>
        </dc:creator>
        <dc:relation>https://www.freecad.org/wiki/index.php?title=Artwork</dc:relation>
        <dc:publisher>
          <cc:Agent>
            <dc:title>FreeCAD</dc:title>
          </cc:Agent>
        </dc:publisher>
        <dc:identifier>FreeCAD/src/Mod/Sketcher/Gui/Resources/icons/Sketcher_CreateArc.svg</dc:identifier>
        <dc:rights>
          <cc:Agent>
            <dc:title>FreeCAD LGPL2+</dc:title>
          </cc:Agent>
        </dc:rights>
        <dc:date>2023-12-19</dc:date>
      </cc:Work>
    </rdf:RDF>
  </metadata>
  <path
     style="display:inline;fill:#cc0000;stroke:#a40000;stroke-width:3;stroke-linecap:round;stroke-linejoin:round;stroke-dasharray:none;stroke-opacity:1"
     id="ellipse294"
     d="M 32.000002,1.5000047 C 48.833516,1.5000047 62.5,15.166487 62.5,32.000002 62.5,48.833517 48.833516,62.5 32.000002,62.5 15.166488,62.5 1.5000047,48.833517 1.5000047,32.000002 1.5000047,15.166487 15.166488,1.5000047 32.000002,1.5000047 Z" />
  <path
     d="M 26.947777,35.685224 23.077009,8.040479 V 6.7353485 H 40.922992 V 8.040479 L 37.120915,35.685224 Z M 25.8178,55.3317 c -1.511204,-1.46541 -2.266806,-3.297173 -2.266806,-5.495289 v -0.06869 c 0,-2.289703 0.755602,-4.144364 2.266806,-5.56398 1.557,-1.465412 3.617733,-2.198118 6.1822,-2.198118 2.564469,0 4.6481,0.732705 6.250892,2.198116 1.511204,1.419616 2.266806,3.251379 2.266806,5.495288 v 0.06869 c 0,2.243909 -0.755602,4.098569 -2.266806,5.563979 C 36.6481,56.79711 34.564469,57.529816 32,57.529816 c -2.564467,0 -4.6252,-0.732705 -6.1822,-2.198116 z"
     id="text293"
     style="font-size:60.9526px;font-family:'Decimal Black';-inkscape-font-specification:'Decimal Black, Normal';display:inline;fill:#ffffff;stroke:#a40000;stroke-width:2.26994;stroke-linecap:round;stroke-linejoin:round;fill-opacity:1"
     aria-label="!" />
</svg>
