<?xml version="1.0" encoding="UTF-8" standalone="no"?>
<!-- Created with Inkscape (http://www.inkscape.org/) -->

<svg
   width="64"
   height="64"
   viewBox="0 0 64 64"
   version="1.1"
   id="svg1"
   inkscape:version="1.3.2 (1:1.3.2+202311252150+091e20ef0f)"
   sodipodi:docname="overlay_unattached.svg"
   xmlns:inkscape="http://www.inkscape.org/namespaces/inkscape"
   xmlns:sodipodi="http://sodipodi.sourceforge.net/DTD/sodipodi-0.dtd"
   xmlns="http://www.w3.org/2000/svg"
   xmlns:svg="http://www.w3.org/2000/svg">
  <sodipodi:namedview
     id="namedview1"
     pagecolor="#505050"
     bordercolor="#eeeeee"
     borderopacity="1"
     inkscape:showpageshadow="0"
     inkscape:pageopacity="0"
     inkscape:pagecheckerboard="0"
     inkscape:deskcolor="#505050"
     inkscape:document-units="px"
     inkscape:zoom="12.578125"
     inkscape:cx="34.703106"
     inkscape:cy="32"
     inkscape:window-width="1920"
     inkscape:window-height="1008"
     inkscape:window-x="0"
     inkscape:window-y="0"
     inkscape:window-maximized="1"
     inkscape:current-layer="layer1" />
  <defs
     id="defs1" />
  <g
     inkscape:label="Layer 1"
     inkscape:groupmode="layer"
     id="layer1">
    <path
       id="path1"
       style="fill:none;stroke:#000000;stroke-width:1.01817;stroke-dasharray:none"
       d="M 62.490915,32.000002 A 30.490916,30.490917 0 0 1 32.000001,62.490919 30.490916,30.490917 0 0 1 1.509085,32.000002 30.490916,30.490917 0 0 1 32.000001,1.509085 30.490916,30.490917 0 0 1 62.490915,32.000002 Z"
       inkscape:label="path1" />
    <circle
       style="fill:none;stroke:#000000;stroke-width:0.95883;stroke-dasharray:none"
       id="path7"
       cx="32"
       cy="19"
       r="9.5205851" />
    <ellipse
       style="fill:none;stroke:#000000;stroke-width:0.921915;stroke-dasharray:none"
       id="path8"
       cx="32"
       cy="45"
       rx="9.5390425"
       ry="9.5390434" />
    <path
       style="fill:#800080;stroke:#000000;stroke-width:0.0795031;stroke-dasharray:none"
       d="M 30.091925,61.888232 C 19.486055,61.208702 10.003748,54.930996 5.2501341,45.441872 3.6270435,42.201871 2.6884669,39.033356 2.2104025,35.180124 c -0.1382732,-1.114491 -0.1382732,-5.245757 0,-6.360248 C 2.492673,26.544756 2.9084673,24.632505 3.5431491,22.690534 6.9482389,12.271787 15.79391,4.5383118 26.58277,2.5477631 c 3.481271,-0.642296 7.353189,-0.642296 10.83446,0 7.08364,1.3069344 13.428776,5.1000961 17.965034,10.7396099 3.104799,3.859912 5.267303,8.658858 6.109176,13.557251 0.348927,2.030211 0.401728,2.707809 0.401728,5.155376 0,2.447567 -0.0528,3.125165 -0.401728,5.155376 -1.659568,9.656107 -8.093259,17.998208 -17.020941,22.069816 -4.512966,2.05821 -9.474981,2.977219 -14.378574,2.66304 z m 3.723086,-7.031611 c 3.464352,-0.607674 6.510885,-3.227777 7.65473,-6.583283 1.251732,-3.671997 0.336804,-7.630782 -2.392106,-10.350357 -3.475438,-3.463548 -8.752928,-3.92565 -12.840723,-1.124344 -0.829326,0.568325 -1.940439,1.702009 -2.523312,2.574572 -1.174579,1.758345 -1.719699,3.541564 -1.719699,5.625549 0,2.083984 0.54512,3.867203 1.719699,5.625549 1.483171,2.220309 4.154118,3.921513 6.696338,4.265093 0.349814,0.04728 0.743354,0.101061 0.874534,0.119518 0.396466,0.05578 1.839315,-0.03105 2.530539,-0.152297 z M 32.954037,28.978186 c 2.409174,-0.265637 4.50859,-1.26639 6.161491,-2.937068 3.890068,-3.931905 3.873359,-10.206857 -0.03759,-14.11781 -1.438871,-1.43887 -3.258439,-2.4006931 -5.285687,-2.7940094 -0.906947,-0.1759614 -2.677547,-0.1759614 -3.584494,0 -2.031435,0.3941289 -3.846572,1.3534424 -5.285687,2.7935264 -3.078054,3.080127 -3.825213,7.754559 -1.855657,11.609505 0.495227,0.969292 1.069794,1.756071 1.858114,2.54439 2.133106,2.133107 5.140885,3.219968 8.029514,2.901466 z"
       id="path9" />
  </g>
</svg>
