<?xml version="1.0" encoding="UTF-8" standalone="no"?>
<!-- Created with Inkscape (http://www.inkscape.org/) -->

<svg
   width="64px"
   height="64px"
   id="svg2943"
   version="1.1"
   xmlns:xlink="http://www.w3.org/1999/xlink"
   xmlns="http://www.w3.org/2000/svg"
   xmlns:svg="http://www.w3.org/2000/svg"
   xmlns:rdf="http://www.w3.org/1999/02/22-rdf-syntax-ns#"
   xmlns:cc="http://creativecommons.org/ns#"
   xmlns:dc="http://purl.org/dc/elements/1.1/">
  <defs
     id="defs2945">
    <linearGradient
       id="linearGradient5227">
      <stop
         style="stop-color:#000000;stop-opacity:1;"
         offset="0"
         id="stop5229" />
    </linearGradient>
    <linearGradient
       xlink:href="#linearGradient3944"
       id="linearGradient3950"
       x1="285.7092"
       y1="75.886589"
       x2="301.7092"
       y2="119.88659"
       gradientUnits="userSpaceOnUse" />
    <linearGradient
       id="linearGradient3944">
      <stop
         style="stop-color:#8ae234;stop-opacity:1"
         offset="0"
         id="stop3946" />
      <stop
         style="stop-color:#4e9a06;stop-opacity:1"
         offset="1"
         id="stop3948" />
    </linearGradient>
    <linearGradient
       xlink:href="#linearGradient3953"
       id="linearGradient3959"
       x1="214.70918"
       y1="80.886589"
       x2="218.70918"
       y2="104.88659"
       gradientUnits="userSpaceOnUse"
       gradientTransform="translate(80,0)" />
    <linearGradient
       id="linearGradient3953">
      <stop
         style="stop-color:#babdb6;stop-opacity:1"
         offset="0"
         id="stop3955" />
      <stop
         style="stop-color:#555753;stop-opacity:1"
         offset="1"
         id="stop3957" />
    </linearGradient>
    <linearGradient
       xlink:href="#linearGradient3961"
       id="linearGradient3967"
       x1="196.70918"
       y1="106.88659"
       x2="190.70918"
       y2="80.886589"
       gradientUnits="userSpaceOnUse"
       gradientTransform="translate(80,0)" />
    <linearGradient
       id="linearGradient3961">
      <stop
         style="stop-color:#babdb6;stop-opacity:1"
         offset="0"
         id="stop3963" />
      <stop
         style="stop-color:#d3d7cf;stop-opacity:1"
         offset="1"
         id="stop3965" />
    </linearGradient>
    <linearGradient
       xlink:href="#linearGradient4061"
       id="linearGradient4059"
       gradientUnits="userSpaceOnUse"
       x1="266.08176"
       y1="90.401306"
       x2="301.7092"
       y2="119.88659" />
    <linearGradient
       id="linearGradient4061">
      <stop
         id="stop4063"
         offset="0"
         style="stop-color:#ef2929;stop-opacity:1" />
      <stop
         id="stop4065"
         offset="1"
         style="stop-color:#a40000;stop-opacity:1" />
    </linearGradient>
  </defs>
  <metadata
     id="metadata2948">
    <rdf:RDF>
      <cc:Work
         rdf:about="">
        <dc:format>image/svg+xml</dc:format>
        <dc:type
           rdf:resource="http://purl.org/dc/dcmitype/StillImage" />
      </cc:Work>
    </rdf:RDF>
  </metadata>
  <g
     id="layer1">
    <g
       id="g3629"
       transform="translate(-256.70919,-66.886588)">
      <path
         style="fill:#e3d328;fill-opacity:1;stroke:#040400;stroke-width:0.08838835;stroke-miterlimit:4;stroke-opacity:1;stroke-dasharray:none"
         d=""
         id="path4102"
         transform="translate(256.70919,66.886588)" />
      <path
         style="fill:#babdb6;stroke:#2e3436;stroke-width:2;stroke-linecap:butt;stroke-linejoin:round;stroke-opacity:1"
         d="m 285.70919,77.886588 -26,-4 c 0,11 0,26.000002 2,36.000002 l 30,12 0,-6 -2,-4 c 8,-12 0,-24.000002 -4,-34.000002 z"
         id="path3100" />
      <path
         style="fill:#555753;stroke:#2e3436;stroke-width:2;stroke-linecap:butt;stroke-linejoin:round;stroke-opacity:1"
         d="m 291.70919,121.88659 12,-4 0,-6 -12,4 z"
         id="path3890" />
      <path
         style="fill:#d3d7cf;stroke:#2e3436;stroke-width:2;stroke-linecap:butt;stroke-linejoin:round;stroke-miterlimit:4;stroke-opacity:1;stroke-dasharray:none"
         d="m 301.70919,107.88659 -12,4 2,4 12,-4 z"
         id="path3892" />
      <path
         style="fill:#888a85;stroke:#2e3436;stroke-width:2;stroke-linecap:butt;stroke-linejoin:round;stroke-miterlimit:4;stroke-opacity:1;stroke-dasharray:none"
         d="m 285.70919,77.886588 c 4,10 12,22.000002 4,34.000002 l 12,-4 c 8,-12.000002 0,-24.000002 -4,-34.000002 z"
         id="path3894" />
      <path
         style="fill:#d3d7cf;stroke:#2e3436;stroke-width:2;stroke-linecap:butt;stroke-linejoin:round;stroke-opacity:1"
         d="m 259.70919,73.886588 12,-4 26,4 -12,4 z"
         id="path3888" />
      <path
         style="fill:url(#linearGradient3967);fill-opacity:1;stroke:#d3d7cf;stroke-width:1.99999976;stroke-linecap:butt;stroke-linejoin:miter;stroke-opacity:1"
         d="m 284.30919,79.786588 -22.6,-3.9 c 0,10.043478 -0.0125,23.469562 1.8,32.600002 l 26.2,10.4 0,-2.5 -2.2,-4.5 c 8,-12 1.2,-22.000002 -3.2,-32.100002 z"
         id="path3100-6" />
      <path
         style="fill:url(#linearGradient3959);fill-opacity:1;stroke:#babdb6;stroke-width:2;stroke-linecap:butt;stroke-linejoin:miter;stroke-miterlimit:4;stroke-opacity:1;stroke-dasharray:none"
         d="m 288.30919,79.086588 c 4,10 9.4,18.3 5.4,29.300002 l 6.6,-2.2 c 6,-9.000002 1.4,-19.300002 -3.8,-29.900002 z"
         id="path3894-7" />
      <path
         style="fill:#555753;fill-opacity:1;stroke:#2e3436;stroke-width:2.25831866;stroke-linecap:round;stroke-linejoin:miter;stroke-miterlimit:4;stroke-opacity:1;stroke-dasharray:none;stroke-dashoffset:1.6"
         id="path3932"
         d="m -78,39 a 15,15 0 1 1 -30,0 15,15 0 1 1 30,0 z"
         transform="matrix(0.79999998,0.19607832,0,0.9803916,350.10919,74.8866)" />
      <path
         style="fill:#edd400;fill-opacity:1;stroke:#302b00;stroke-width:2;stroke-linecap:round;stroke-linejoin:round;stroke-miterlimit:4;stroke-opacity:1;stroke-dashoffset:1.6"
         d="m 287.70919,97.827762 -24,-5.882349 c 0,0 -0.82229,-14.095015 12,-11.764699 11.12322,2.021527 12,17.647048 12,17.647048 z"
         id="path3932-5" />
      <path
         style="fill:#edd400;fill-opacity:1;stroke:#302b00;stroke-width:2;stroke-linecap:butt;stroke-linejoin:round;stroke-miterlimit:4;stroke-opacity:1;stroke-dasharray:none"
         d="m 294.70919,90.886588 c 2,4 3,11.000002 1,15.000002 l 4,-1 c 2,-4 2,-11.000002 0,-15.000002 z"
         id="path3894-7-9" />
      <path
         style="fill:#edd400;stroke:#302b00;stroke-width:2;stroke-linecap:butt;stroke-linejoin:round;stroke-miterlimit:4;stroke-opacity:1;stroke-dasharray:none"
         d="m 293.70919,117.88659 8,-3 16,5 -6,4 z"
         id="path4003" />
      <path
         style="fill:#d3d7cf;stroke:#2e3436;stroke-width:2;stroke-linecap:butt;stroke-linejoin:round;stroke-opacity:1"
         d="m 317.70919,119.88659 0,4 -6,4 0,-4 z"
         id="path4005" />
      <path
         style="fill:none;stroke:#172a04;stroke-width:8;stroke-linecap:round;stroke-linejoin:round;stroke-opacity:1"
         d="m 262.70919,120.88659 0,-44.000002 52,0 0,44.000002"
         id="path3138" />
      <path
         style="fill:none;stroke:url(#linearGradient3950);stroke-width:4;stroke-linecap:round;stroke-linejoin:round;stroke-opacity:1"
         d="m 262.70919,120.88659 0,-44.000002 52,0 0,44.000002"
         id="path3138-3" />
      <path
         style="fill:none;stroke:#8ae234;stroke-width:2;stroke-linecap:round;stroke-linejoin:round;stroke-opacity:1"
         d="m 261.70919,120.98659 0,-45.100002 52,0 0,45.100002"
         id="path3138-3-6" />
      <g
         id="g4054"
         transform="matrix(0.70710678,0.70710678,-0.70710678,0.70710678,160.48434,-175.18501)">
        <path
           id="path3138-36"
           d="m 265.53762,120.88659 0,-35.514721 37.85786,0 0,35.514721"
           style="fill:none;stroke:#280000;stroke-width:8;stroke-linecap:round;stroke-linejoin:round;stroke-opacity:1" />
        <path
           id="path3138-3-7"
           d="m 265.53762,120.88659 0,-35.514721 37.85786,0 0,35.514721"
           style="fill:none;stroke:url(#linearGradient4059);stroke-width:4;stroke-linecap:round;stroke-linejoin:round;stroke-opacity:1" />
        <path
           id="path3138-3-6-5"
           d="m 264.53762,120.98659 0,-36.614721 37.85786,0 0,36.614721"
           style="fill:none;stroke:#ef2929;stroke-width:2;stroke-linecap:round;stroke-linejoin:round;stroke-opacity:1" />
      </g>
    </g>
  </g>
</svg>
