<?xml version="1.0" encoding="UTF-8" standalone="no"?>
<!-- Created with Inkscape (http://www.inkscape.org/) -->

<svg
   width="64"
   height="64"
   id="svg2869"
   version="1.1"
   viewBox="0 0 64 64"
   xmlns:xlink="http://www.w3.org/1999/xlink"
   xmlns="http://www.w3.org/2000/svg"
   xmlns:svg="http://www.w3.org/2000/svg"
   xmlns:rdf="http://www.w3.org/1999/02/22-rdf-syntax-ns#"
   xmlns:cc="http://creativecommons.org/ns#"
   xmlns:dc="http://purl.org/dc/elements/1.1/">
  <defs
     id="defs2871">
    <linearGradient
       xlink:href="#linearGradient3765"
       id="linearGradient3771"
       x1="98"
       y1="1047.3622"
       x2="81"
       y2="993.36218"
       gradientUnits="userSpaceOnUse"
       gradientTransform="translate(-60,-988.36218)" />
    <linearGradient
       id="linearGradient3765">
      <stop
         style="stop-color:#d3d7cf;stop-opacity:1;"
         offset="0"
         id="stop3767" />
      <stop
         style="stop-color:#ffffff;stop-opacity:1"
         offset="1"
         id="stop3769" />
    </linearGradient>
    <linearGradient
       xlink:href="#linearGradient3765"
       id="linearGradient9"
       gradientUnits="userSpaceOnUse"
       gradientTransform="translate(-60,-988.36218)"
       x1="98"
       y1="1047.3622"
       x2="81"
       y2="993.36218" />
    <linearGradient
       id="linearGradient1014">
      <stop
         style="stop-color:#204a87;stop-opacity:1"
         offset="0"
         id="stop1010" />
      <stop
         style="stop-color:#729fcf;stop-opacity:1"
         offset="1"
         id="stop1012" />
    </linearGradient>
    <linearGradient
       y2="17"
       x2="15"
       y1="47"
       x1="29"
       gradientTransform="matrix(0.47516502,-0.46153841,0.47516502,0.46153841,-1.514774,32.45158)"
       gradientUnits="userSpaceOnUse"
       id="linearGradient951-4"
       xlink:href="#linearGradient1014" />
    <linearGradient
       xlink:href="#linearGradient2380-9"
       id="linearGradient3034"
       gradientUnits="userSpaceOnUse"
       x1="41.791897"
       y1="20.134634"
       x2="23.705669"
       y2="34.083359"
       gradientTransform="matrix(-1.0920707,-0.91483206,-0.92266756,1.0827966,27.239264,-8.2358044)" />
    <linearGradient
       id="linearGradient2380-9">
      <stop
         style="stop-color:#729fcf;stop-opacity:1"
         offset="0"
         id="stop2382-4" />
      <stop
         style="stop-color:#3465a4;stop-opacity:1"
         offset="1"
         id="stop2384-6" />
    </linearGradient>
    <linearGradient
       xlink:href="#linearGradient2380-9"
       id="linearGradient3034-4"
       gradientUnits="userSpaceOnUse"
       x1="26.221533"
       y1="31.125586"
       x2="46.731483"
       y2="21.766298"
       gradientTransform="matrix(1.0920707,0.91483206,0.92266756,-1.0827966,-95.708634,29.081796)" />
    <linearGradient
       xlink:href="#linearGradient1014"
       id="linearGradient3212"
       gradientUnits="userSpaceOnUse"
       gradientTransform="matrix(0.85867864,0,0,0.85867856,80.922992,8.356807)"
       x1="-146.74467"
       y1="58.261547"
       x2="-157.32494"
       y2="26.520763" />
    <linearGradient
       xlink:href="#linearGradient3836-9"
       id="linearGradient3214"
       gradientUnits="userSpaceOnUse"
       gradientTransform="matrix(0.8506406,0,0,0.8506406,98.197782,5.1873131)"
       x1="-206.69949"
       y1="68.841812"
       x2="-211.40184"
       y2="7.7114096" />
    <linearGradient
       id="linearGradient3836-9">
      <stop
         style="stop-color:#a40000;stop-opacity:1"
         offset="0"
         id="stop3838-8" />
      <stop
         style="stop-color:#ef2929;stop-opacity:1"
         offset="1"
         id="stop3840-1" />
    </linearGradient>
  </defs>
  <metadata
     id="metadata2874">
    <rdf:RDF>
      <cc:Work
         rdf:about="">
        <dc:format>image/svg+xml</dc:format>
        <dc:type
           rdf:resource="http://purl.org/dc/dcmitype/StillImage" />
        <dc:creator>
          <cc:Agent>
            <dc:title>[maxwxyz]</dc:title>
          </cc:Agent>
        </dc:creator>
        <dc:relation>https://www.freecad.org/wiki/index.php?title=Artwork</dc:relation>
        <dc:publisher>
          <cc:Agent>
            <dc:title>FreeCAD</dc:title>
          </cc:Agent>
        </dc:publisher>
        <dc:identifier>FreeCAD/src/</dc:identifier>
        <dc:rights>
          <cc:Agent>
            <dc:title>FreeCAD LGPL2+</dc:title>
          </cc:Agent>
        </dc:rights>
        <dc:date>2024</dc:date>
      </cc:Work>
    </rdf:RDF>
  </metadata>
  <g
     id="layer3"
     style="display:inline">
    <g
       id="g5"
       transform="matrix(0.88681323,0,0,0.88889159,10.527509,0.33465048)"
       style="stroke-width:1.12632">
      <path
         style="fill:url(#linearGradient3771);fill-opacity:1;stroke:#2e3436;stroke-width:2.25263;stroke-linecap:butt;stroke-linejoin:round;stroke-opacity:1"
         d="m 11,3 v 58.00002 h 42 v -48 L 43,3 Z"
         id="path2991" />
      <path
         style="fill:none;stroke:#ffffff;stroke-width:2.25263;stroke-linecap:butt;stroke-linejoin:miter;stroke-opacity:1"
         d="M 13,5 V 59.00002 H 51 V 13.81392 L 41.99741,5 Z"
         id="path3763" />
      <path
         style="fill:#2e3436;fill-opacity:0.392157;stroke:#2e3436;stroke-width:2.25263;stroke-linecap:butt;stroke-linejoin:round;stroke-opacity:1"
         d="M 43,3 V 13.00002 H 53 Z"
         id="path2993" />
    </g>
    <g
       id="g9"
       transform="matrix(0.88681323,0,0,0.88889159,-3.283556,6.77627)"
       style="stroke-width:1.12632">
      <path
         style="fill:url(#linearGradient9);fill-opacity:1;stroke:#2e3436;stroke-width:2.25263;stroke-linecap:butt;stroke-linejoin:round;stroke-opacity:1"
         d="m 11,3 v 58.00002 h 42 v -48 L 43,3 Z"
         id="path7" />
      <path
         style="fill:none;stroke:#ffffff;stroke-width:2.25263;stroke-linecap:butt;stroke-linejoin:miter;stroke-opacity:1"
         d="M 13,5 V 59.00002 H 51 V 13.81392 L 41.99741,5 Z"
         id="path8" />
      <path
         style="fill:#2e3436;fill-opacity:0.392157;stroke:#2e3436;stroke-width:2.25263;stroke-linecap:butt;stroke-linejoin:round;stroke-opacity:1"
         d="M 43,3 V 13.00002 H 53 Z"
         id="path9" />
    </g>
  </g>
  <g
     id="g3205"
     transform="matrix(0.48144021,0,0,0.48144028,52.83949,16.731747)">
    <path
       id="path3659-5"
       d="m -37.178967,28.803284 -6.180993,3.546247 -2.729476,-0.947201 -2.604143,-6.655379 -4.096464,0.21527 -1.868508,6.882078 -2.615074,1.252306 -6.522448,-2.85323 -2.75491,3.061349 3.546261,6.180989 -0.969093,2.721475 -6.655386,2.60415 0.23715,4.104451 6.882091,1.868503 1.252304,2.615071 -2.875105,6.514464 3.061345,2.754904 6.180984,-3.546249 2.743367,0.977075 2.582264,6.647391 4.12633,-0.229167 1.846622,-6.890065 2.615081,-1.252307 6.536331,2.883105 2.75491,-3.06135 -3.546252,-6.180988 0.955184,-2.75135 6.647399,-2.58227 -0.207267,-4.11834 -6.890078,-1.846619 -1.252313,-2.615072 2.861223,-6.544338 z m -9.257241,10.136064 1.268824,0.736194 1.099299,0.996698 0.88009,1.189461 0.633098,1.322475 0.372232,1.425614 0.06167,1.46101 -0.211018,1.46063 -0.481582,1.38662 -0.76607,1.282723 -0.966821,1.085402 -1.189468,0.880088 -1.322473,0.633095 -1.425615,0.372223 -1.468996,0.08356 -1.460644,-0.211006 -1.386612,-0.481592 -1.282715,-0.766069 -1.07743,-0.988709 -0.88806,-1.167575 -0.633115,-1.322473 -0.364227,-1.447498 -0.08353,-1.469 0.21101,-1.460634 0.481598,-1.386617 0.758074,-1.260841 0.974826,-1.107284 1.189451,-0.880088 1.322474,-0.633098 1.447492,-0.36423 1.461009,-0.06167 1.460635,0.211004 1.386621,0.481593 z"
       style="display:inline;overflow:visible;visibility:visible;fill:url(#linearGradient3212);fill-opacity:1;fill-rule:evenodd;stroke:#000137;stroke-width:4.1542;stroke-linecap:round;stroke-linejoin:round;stroke-miterlimit:4;stroke-dasharray:none;stroke-dashoffset:0;stroke-opacity:1;marker:none;enable-background:accumulate" />
    <path
       id="path3659-5-6"
       d="m -37.400474,31.220497 -5.769096,3.304934 -4.349793,-1.564099 -2.53291,-6.134027 -1.224199,0.0662 -1.762085,6.451631 -4.246279,1.936568 -6.013757,-2.613635 -0.805123,0.921673 3.32102,5.833384 -1.664261,4.262195 -6.069746,2.420417 0.06992,1.30296 6.403427,1.754832 1.984791,4.24628 -2.649498,6.006532 0.889514,0.772979 5.704822,-3.256725 4.587343,1.607198 2.255975,6.094659 1.226335,-0.01449 1.783249,-6.410646 4.165927,-2.081205 6.283444,2.688876 0.756917,-0.809178 -3.321012,-5.688747 1.426695,-4.466002 6.239296,-2.480975 -0.04287,-1.283384 -6.330305,-1.622539 -2.097289,-4.294491 2.653012,-6.146057 z"
       style="display:inline;overflow:visible;visibility:visible;fill:none;stroke:#729fcf;stroke-width:4.1542;stroke-linecap:round;stroke-linejoin:round;stroke-miterlimit:4;stroke-dasharray:none;stroke-dashoffset:0;stroke-opacity:1;marker:none;enable-background:accumulate" />
    <circle
       transform="matrix(1.1037731,0,0,1.1037731,-95.071194,1.4359331)"
       id="path3898"
       style="fill:none;stroke:#729fcf;stroke-width:3.76364;stroke-linecap:round;stroke-linejoin:round;stroke-miterlimit:4;stroke-dasharray:none;stroke-dashoffset:6;stroke-opacity:1"
       cx="41.15683"
       cy="40.103004"
       r="8.6941996" />
    <path
       id="rect3663-8"
       d="m -86.629206,8.7469513 8e-6,58.0000007 11.999996,-10e-7 v -24 h 11.999995 v -12 h -11.999995 v -9.999999 h 19.999998 V 8.7469513 Z"
       style="display:inline;overflow:visible;visibility:visible;fill:url(#linearGradient3214);fill-opacity:1;fill-rule:evenodd;stroke:#280000;stroke-width:4.1542;stroke-linecap:butt;stroke-linejoin:miter;stroke-miterlimit:4;stroke-dasharray:none;stroke-dashoffset:0;stroke-opacity:1;marker:none;enable-background:accumulate" />
    <path
       id="rect3663-8-3"
       d="m -84.629206,10.746951 v 54 h 8.000003 v -24 h 11.999995 v -8 H -76.629203 V 18.746952 h 19.999998 v -8.000001 z"
       style="display:inline;overflow:visible;visibility:visible;fill:none;stroke:#ef2929;stroke-width:4.1542;stroke-linecap:butt;stroke-linejoin:miter;stroke-miterlimit:4;stroke-dasharray:none;stroke-dashoffset:0;stroke-opacity:1;marker:none;enable-background:accumulate" />
  </g>
  <g
     id="g3736"
     transform="matrix(-0.75949461,0,0,0.75949461,2.473047,24.083793)"
     style="stroke-width:1.32907;stroke-miterlimit:4;stroke-dasharray:none">
    <g
       id="g4"
       transform="matrix(0.63333334,0,0,0.63333334,-18.823923,-11.822269)">
      <path
         style="color:#000000;display:block;overflow:visible;visibility:visible;fill:url(#linearGradient3034);fill-opacity:1;fill-rule:nonzero;stroke:#0c1522;stroke-width:2.63333;stroke-linecap:butt;stroke-linejoin:round;stroke-miterlimit:4;stroke-dasharray:none;stroke-dashoffset:0;stroke-opacity:1;marker:none"
         d="M -67.492186,5.6194719 C -74.415153,-26.922386 -39.372522,-39.148414 -8.8224541,-15.252726 L 0.18155165,-25.053772 0.00103161,6.9828324 -28.216657,6.9540251 c 0,0 9.392192,-10.4688903 9.392192,-10.4688903 -21.485153,-16.1443798 -49.001796,-14.9358308 -48.667721,9.1343371 z"
         id="path1880-7" />
      <path
         id="path2807"
         d="m -64.60658,-9.9436216 c 2.430008,-12.4350654 27.163115,-25.7184254 55.9936034,-1.4513424 l 6.0419677,-6.362253 -0.2556042,21.9817337 -19.2225819,0.00619 7.286947,-7.9311949 C -32.570149,-17.995717 -54.846819,-21.865686 -64.60658,-9.9436216 Z"
         style="color:#000000;display:block;overflow:visible;visibility:visible;fill:none;stroke:#729fcf;stroke-width:2.63333;stroke-linecap:butt;stroke-linejoin:miter;stroke-miterlimit:21;stroke-dasharray:none;stroke-dashoffset:0;stroke-opacity:1;marker:none" />
    </g>
    <g
       id="g6"
       transform="matrix(0.63333334,0,0,0.63333334,-18.823923,19.168122)">
      <path
         style="color:#000000;display:block;overflow:visible;visibility:visible;fill:url(#linearGradient3034-4);fill-opacity:1;fill-rule:nonzero;stroke:#0c1522;stroke-width:2.63333;stroke-linecap:butt;stroke-linejoin:round;stroke-miterlimit:4;stroke-dasharray:none;stroke-dashoffset:0;stroke-opacity:1;marker:none"
         d="M -0.97718465,15.226518 C 5.945782,47.768375 -29.096848,59.994404 -59.646916,36.098716 l -9.004006,9.801047 0.18052,-32.036605 28.217689,0.02881 c 0,0 -9.392193,10.468891 -9.392193,10.468891 21.485154,16.14438 49.00179745,14.93583 48.66772135,-9.134338 z"
         id="path1880-2" />
      <path
         id="path2807-5"
         d="m -3.862789,30.789612 c -1.8217732,12.739136 -27.163116,25.718425 -55.993604,1.451342 l -6.041968,6.362253 0.255604,-21.981734 19.222582,-0.0062 -7.286947,7.931195 c 17.807901,14.295225 40.08457,18.165192 49.844333,6.243129 z"
         style="color:#000000;display:block;overflow:visible;visibility:visible;fill:none;stroke:#729fcf;stroke-width:2.63333;stroke-linecap:butt;stroke-linejoin:miter;stroke-miterlimit:21;stroke-dasharray:none;stroke-dashoffset:0;stroke-opacity:1;marker:none" />
    </g>
  </g>
</svg>
