<?xml version="1.0" encoding="UTF-8" standalone="no"?>
<!-- Created with Inkscape (http://www.inkscape.org/) -->

<svg
   xmlns:dc="http://purl.org/dc/elements/1.1/"
   xmlns:cc="http://creativecommons.org/ns#"
   xmlns:rdf="http://www.w3.org/1999/02/22-rdf-syntax-ns#"
   xmlns:svg="http://www.w3.org/2000/svg"
   xmlns="http://www.w3.org/2000/svg"
   xmlns:sodipodi="http://sodipodi.sourceforge.net/DTD/sodipodi-0.dtd"
   xmlns:inkscape="http://www.inkscape.org/namespaces/inkscape"
   width="64"
   height="64"
   id="svg2"
   version="1.1"
   inkscape:version="0.48.3.1 r9886"
   sodipodi:docname="python.svg">
  <defs
     id="defs4" />
  <sodipodi:namedview
     id="base"
     pagecolor="#ffffff"
     bordercolor="#666666"
     borderopacity="1.0"
     inkscape:pageopacity="0.0"
     inkscape:pageshadow="2"
     inkscape:zoom="12.359375"
     inkscape:cx="32"
     inkscape:cy="32"
     inkscape:document-units="px"
     inkscape:current-layer="layer1"
     showgrid="false"
     inkscape:window-width="1280"
     inkscape:window-height="964"
     inkscape:window-x="-2"
     inkscape:window-y="-3"
     inkscape:window-maximized="1" />
  <metadata
     id="metadata7">
    <rdf:RDF>
      <cc:Work
         rdf:about="">
        <dc:format>image/svg+xml</dc:format>
        <dc:type
           rdf:resource="http://purl.org/dc/dcmitype/StillImage" />
        <dc:title />
      </cc:Work>
    </rdf:RDF>
  </metadata>
  <g
     inkscape:label="Layer 1"
     inkscape:groupmode="layer"
     id="layer1"
     transform="translate(0,-988.36218)">
    <path
       style="fill:#47e611;fill-opacity:1;stroke:none"
       d="m 51.321944,1045.6639 c -0.936479,0.2177 0.417972,1.1433 0.621446,1.6667 2.590918,0.1974 2.600001,0.2578 4.350116,0 1.611114,-0.4606 1.238119,-0.6536 1.139322,-1.5835 -4.146745,-0.5009 -3.935827,-0.1112 -6.110884,-0.082 z"
       id="path3757"
       inkscape:connector-curvature="0"
       sodipodi:nodetypes="ccccc" />
    <path
       style="fill:#47e611;fill-opacity:1;stroke:none"
       d="m 32.184239,1017.6927 c 0.520481,-0.865 2.184344,-2.1801 3.918603,-1.7992 7.990741,4.5713 -11.403069,12.1178 -16.858334,16.4731 l -2.779647,2.8693 1.1502,5.3284 6.805339,0.41 c 2.343917,-1.1505 4.470416,-1.3966 4.696644,0.3278 l 0.287549,3.1971 0.862649,2.0495 3.929846,1.7216 3.163044,-0.082 1.533598,-0.4919 c 1.191377,0.444 0.966047,1.061 0.3834,1.7216 -5.148059,1.1913 -6.859429,0.6496 -9.489137,-0.2459 -1.232582,-0.6031 -1.244585,-0.6612 -2.396246,-1.8036 -1.783607,-1.1262 -2.303565,-1.0956 -4.696643,-0.1639 -1.699447,2.3284 -4.162091,3.2364 -8.884158,2.3925 -5.1900214,-0.9712 -6.6858203,-8.0613 -4.6157324,-12.3851 2.7002794,-6.2157 11.3055264,-10.9957 15.2998864,-12.9578 2.224999,-1.3717 7.158976,-4.0575 7.689139,-6.5615 z"
       id="path3755"
       inkscape:connector-curvature="0"
       sodipodi:nodetypes="cccccccccccccccccccc" />
    <path
       style="fill:#909d32;fill-opacity:1;stroke:none"
       d="m 33.807183,1007.9072 c 4.248377,-0.2356 13.558024,7.1199 12.014614,9.6666 0.312045,6.0947 -18.521419,14.4464 -24.02923,17.7503 -1.195646,1.0423 -0.861442,2.0034 0.207148,2.3333 3.507237,-1.3891 3.69822,-0.7522 6.628755,-0.6667 1.802841,0.4374 2.0641,0.2858 4.350118,1.75 1.144371,1.5318 1.220846,2.1561 1.864337,3.3333 0.716043,0.9218 1.388931,1.1837 2.485783,-0.082 1.99288,-2.0399 5.353859,-4.3893 7.811066,-5.0011 2.446897,-1.0407 4.16073,-0.1656 5.505581,0.9957 1.704619,2.0966 1.060846,3.1055 3.091082,4.3377 1.569665,0.6369 1.759007,-1.089 2.51807,-1.7565 1.553617,-1.6667 2.404544,-3.1452 4.308398,-2.6515 0.942793,-0.2159 1.114619,1.5131 1.505188,2.408 -1.533332,4.1635 -2.970809,3.5396 -3.981536,4.7597 -1.393659,1.3001 -2.321104,1.3809 -3.977541,1.4123 -3.481582,-0.3501 -5.106528,-0.911 -5.9333,-2.7564 -0.560541,-2.6567 -1.560988,-2.1517 -2.667358,-0.4167 -0.862677,2.1172 -3.761676,4.3011 -6.004589,5.0855 -2.507606,1.1814 -4.968081,-0.1222 -6.939477,-0.6667 -5.120767,-1.7571 -2.99567,-3.1648 -4.660843,-5 -4.897258,-1.4877 -5.613148,2.0306 -8.907387,2.5834 -6.383612,0.851 -5.75736,-6.737 -4.350118,-8.9167 1.241688,-1.6683 3.778259,-4.2044 4.764416,-4.8335 5.448594,-4.1102 20.436079,-11.2053 16.675458,-15.5001 2.224468,-2.1104 0.502462,-6.3342 -2.278635,-8.1666 z"
       id="path3753"
       inkscape:connector-curvature="0"
       sodipodi:nodetypes="ccccccccccccccccccccccccccc" />
    <path
       style="fill:#909d32;fill-opacity:1;stroke:#909d32;stroke-width:1.04878891;stroke-linecap:round;stroke-linejoin:miter;stroke-miterlimit:4;stroke-opacity:1;stroke-dasharray:none"
       d="m 31.745143,1020.4954 1.85142,0"
       id="path3761"
       inkscape:connector-curvature="0"
       sodipodi:nodetypes="cc" />
    <path
       style="fill:#909d32;fill-opacity:1;stroke:#909d32;stroke-width:1.04878891;stroke-linecap:round;stroke-linejoin:miter;stroke-miterlimit:4;stroke-opacity:1;stroke-dasharray:none"
       d="m 25.239457,1024.9194 2.796504,0"
       id="path3765"
       inkscape:connector-curvature="0"
       sodipodi:nodetypes="cc" />
    <path
       style="fill:#909d32;fill-opacity:1;stroke:#909d32;stroke-width:1.04878891;stroke-linecap:round;stroke-linejoin:miter;stroke-miterlimit:4;stroke-opacity:1;stroke-dasharray:none"
       d="m 19.562365,1028.5738 2.382206,-0.082"
       id="path3767"
       inkscape:connector-curvature="0"
       sodipodi:nodetypes="cc" />
    <path
       style="fill:#909d32;fill-opacity:1;stroke:#909d32;stroke-width:1.04878891;stroke-linecap:round;stroke-linejoin:miter;stroke-miterlimit:4;stroke-opacity:1;stroke-dasharray:none"
       d="m 14.017854,1033.0764 2.485781,0"
       id="path3769"
       inkscape:connector-curvature="0"
       sodipodi:nodetypes="cc" />
    <path
       style="fill:#909d32;fill-opacity:1;stroke:#909d32;stroke-width:1.04878891;stroke-linecap:round;stroke-linejoin:miter;stroke-miterlimit:4;stroke-opacity:1;stroke-dasharray:none"
       d="m 10.625741,1038.0716 2.379035,0.082"
       id="path3771"
       inkscape:connector-curvature="0"
       sodipodi:nodetypes="cc" />
    <path
       style="fill:#909d32;fill-opacity:1;stroke:#909d32;stroke-width:1.04878891;stroke-linecap:round;stroke-linejoin:miter;stroke-miterlimit:4;stroke-opacity:1;stroke-dasharray:none"
       d="m 10.14345,1042.3337 2.492358,-0"
       id="path3773"
       inkscape:connector-curvature="0"
       sodipodi:nodetypes="cc" />
    <path
       style="fill:#909d32;fill-opacity:1;stroke:#909d32;stroke-width:1.04878891;stroke-linecap:round;stroke-linejoin:miter;stroke-miterlimit:4;stroke-opacity:1;stroke-dasharray:none"
       d="m 10.923546,1046.0838 4.563842,-0.082"
       id="path3775"
       inkscape:connector-curvature="0"
       sodipodi:nodetypes="cc" />
    <path
       style="fill:#909d32;fill-opacity:1;stroke:#909d32;stroke-width:1.04878891;stroke-linecap:round;stroke-linejoin:miter;stroke-miterlimit:4;stroke-opacity:1;stroke-dasharray:none"
       d="m 16.053757,1048.4243 2.796506,-0.083"
       id="path3777"
       inkscape:connector-curvature="0"
       sodipodi:nodetypes="cc" />
    <path
       style="fill:#47e611;fill-opacity:1;stroke:none"
       d="m 32.923444,1014.7405 c 5.037645,-4.7131 2.803291,-8.2002 -3.521524,-7.4167 -6.141527,1.2354 -9.736038,5.7445 -13.257509,5.4166 -3.694146,0.5809 -7.444246,-0.7738 -10.7717213,-0.082 -1.0472603,0.5834 -1.8404272,2.5834 -0.4142967,3.1667 3.7894444,0.6612 7.672572,1.1158 11.186018,0.6667 4.415596,-0.5527 7.865988,-3.7455 11.393172,-5.7501 1.663697,-0.6007 3.43862,-0.1994 2.692932,1.0001 -1.690063,1.8189 -7.308011,5.4025 -14.189676,7.0001 -2.800669,0.9317 -6.556668,-0.5997 -10.4610001,-0.3333 -0.7328033,0.8348 -1.7289613,2.6811 -0.3107237,3.0833 3.422109,0.7674 7.1616608,0.7829 11.1860208,0.4999 4.68632,-0.8229 13.696059,-3.7356 16.468308,-7.2501 z"
       id="path3798"
       inkscape:connector-curvature="0"
       sodipodi:nodetypes="ccccccccccccc" />
    <path
       style="fill:#909d32;fill-opacity:1;stroke:none"
       d="m 32.923444,1007.6572 c 1.017805,-2.2174 1.570668,-3.2268 0.103574,-4.3334 -0.887659,-0.051 -1.237887,0.2657 -2.175059,-0.5001 2.213734,-2.5405 2.313312,-6.42854 0.828595,-9.49998 -1.847482,-2.30106 -4.989515,-3.25231 -7.664497,-2.91676 -1.064873,0.73958 -2.393537,1.21355 -3.003653,1.33341 -0.730494,-0.22661 -1.337048,-0.36626 -2.278635,-1.16674 -1.527078,-0.59984 -4.102069,-0.95019 -5.045902,0.24054 -0.708403,0.46543 -0.170181,1.32705 0.796185,1.83343 1.117533,-0.98023 4.065731,-0.55035 4.767589,0.25967 1.027029,0.66646 1.4734,1.46412 1.864335,1.75003 0.692899,-0.11862 0.826202,-1.43673 1.450041,-1.66675 2.23255,-0.64298 5.261051,-0.48939 6.110882,1.08332 1.723838,2.71193 1.860933,6.15343 -0.828595,8.25023 -3.665967,0.9073 -4.563406,1.0008 -6.110881,0.4166 l -1.553615,-1.6667 -0.932167,1.1668 c -2.376875,0.6412 -3.580733,0.5853 -5.667348,-0.5713 -1.236215,-0.7145 0.07118,3.7287 -8.729475,3.8212 -1.2673837,0.1515 -2.1985184,4.2844 0.3107221,7.1667 l 5.1787139,0.3333 c 7.09182,1.2608 9.38946,-0.7096 11.393169,-2.25 2.111349,-1.4156 6.828023,-3.1897 11.186021,-3.0833 z"
       id="path3800"
       inkscape:connector-curvature="0"
       sodipodi:nodetypes="cccccccccccccccccccccccc" />
    <path
       sodipodi:type="arc"
       style="fill:#ffffff;fill-opacity:1;fill-rule:nonzero;stroke:none"
       id="path3806"
       sodipodi:cx="190.00984"
       sodipodi:cy="346.13681"
       sodipodi:rx="25.246063"
       sodipodi:ry="21.924212"
       d="m 215.25591,346.13681 a 25.246063,21.924212 0 1 1 -50.49213,0 25.246063,21.924212 0 1 1 50.49213,0 z"
       transform="matrix(0.06560083,0,0,0.04576608,-5.3323779,992.81916)" />
    <path
       transform="matrix(0.06560083,0,0,0.04576608,0.15910889,993.06239)"
       d="m 215.25591,346.13681 a 25.246063,21.924212 0 1 1 -50.49213,0 25.246063,21.924212 0 1 1 50.49213,0 z"
       sodipodi:ry="21.924212"
       sodipodi:rx="25.246063"
       sodipodi:cy="346.13681"
       sodipodi:cx="190.00984"
       id="path3808"
       style="fill:#ffffff;fill-opacity:1;fill-rule:nonzero;stroke:none"
       sodipodi:type="arc" />
    <path
       sodipodi:type="arc"
       style="fill:#faf468;fill-opacity:1;fill-rule:nonzero;stroke:none"
       id="path3810"
       sodipodi:cx="252.46062"
       sodipodi:cy="153.46948"
       sodipodi:rx="32.176353"
       sodipodi:ry="65.772636"
       d="m 284.63697,153.46948 a 32.176353,65.772636 0 1 1 -64.35271,0 32.176353,65.772636 0 1 1 64.35271,0 z"
       transform="matrix(0.10461607,0,0,0.06271649,-1.4114247,988.24031)" />
    <path
       sodipodi:type="arc"
       style="fill:#faf468;fill-opacity:1;fill-rule:nonzero;stroke:none"
       id="path3812"
       sodipodi:cx="138.18898"
       sodipodi:cy="142.1752"
       sodipodi:rx="43.848423"
       sodipodi:ry="66.437004"
       d="m 182.0374,142.1752 a 43.848423,66.437004 0 1 1 -87.696843,0 43.848423,66.437004 0 1 1 87.696843,0 z"
       transform="matrix(0.07794923,0,0,0.06271649,6.2012833,988.49026)" />
    <path
       sodipodi:type="arc"
       style="fill:#0208ff;fill-opacity:1;fill-rule:nonzero;stroke:none"
       id="path3814"
       sodipodi:cx="142.83957"
       sodipodi:cy="142.83957"
       sodipodi:rx="25.910433"
       sodipodi:ry="40.526573"
       d="m 168.75,142.83957 a 25.910433,40.526573 0 1 1 -51.82086,0 25.910433,40.526573 0 1 1 51.82086,0 z"
       transform="matrix(0.07794923,0,0,0.06271649,5.9941355,988.40698)" />
    <path
       sodipodi:type="arc"
       style="fill:#0208ff;fill-opacity:1;fill-rule:nonzero;stroke:none"
       id="path3816"
       sodipodi:cx="245.81693"
       sodipodi:cy="148.81889"
       sodipodi:rx="25.246063"
       sodipodi:ry="39.862206"
       d="m 271.06299,148.81889 a 25.246063,39.862206 0 1 1 -50.49213,0 25.246063,39.862206 0 1 1 50.49213,0 z"
       transform="matrix(0.07794923,0,0,0.06271649,5.7869864,988.15703)" />
    <path
       sodipodi:type="arc"
       style="fill:#909d32;fill-opacity:1;fill-rule:nonzero;stroke:#909d32;stroke-opacity:1"
       id="path3836"
       sodipodi:cx="57.800194"
       sodipodi:cy="409.91632"
       sodipodi:rx="7.3080707"
       sodipodi:ry="12.623032"
       d="m 65.108264,409.91632 a 7.3080707,12.623032 0 1 1 -14.616141,0 7.3080707,12.623032 0 1 1 14.616141,0 z"
       transform="matrix(0.07794923,0,0,0.06271649,2.1618877,988.24031)" />
    <path
       sodipodi:type="arc"
       style="fill:#909d32;fill-opacity:1;fill-rule:nonzero;stroke:#909d32;stroke-opacity:1"
       id="path3836-9"
       sodipodi:cx="57.800194"
       sodipodi:cy="409.91632"
       sodipodi:rx="7.3080707"
       sodipodi:ry="12.623032"
       d="m 65.108264,409.91632 a 7.3080707,12.623032 0 1 1 -14.616141,0 7.3080707,12.623032 0 1 1 14.616141,0 z"
       transform="matrix(0.07794923,0,0,0.06271649,9.7745965,989.11538)" />
    <path
       sodipodi:type="arc"
       style="fill:#909d32;fill-opacity:1;fill-rule:nonzero;stroke:#909d32;stroke-opacity:1"
       id="path3836-98"
       sodipodi:cx="57.800194"
       sodipodi:cy="409.91632"
       sodipodi:rx="7.3080707"
       sodipodi:ry="12.623032"
       d="m 65.108264,409.91632 a 7.3080707,12.623032 0 1 1 -14.616141,0 7.3080707,12.623032 0 1 1 14.616141,0 z"
       transform="matrix(0.07794923,0,0,0.06271649,5.6316254,988.9487)" />
    <path
       sodipodi:type="arc"
       style="fill:#909d32;fill-opacity:1;fill-rule:nonzero;stroke:#909d32;stroke-opacity:1"
       id="path3836-5"
       sodipodi:cx="57.800194"
       sodipodi:cy="409.91632"
       sodipodi:rx="7.3080707"
       sodipodi:ry="12.623032"
       d="m 65.108264,409.91632 a 7.3080707,12.623032 0 1 1 -14.616141,0 7.3080707,12.623032 0 1 1 14.616141,0 z"
       transform="matrix(0.07794923,0,0,0.06271649,14.124716,988.11533)" />
    <path
       sodipodi:type="arc"
       style="fill:#909d32;fill-opacity:1;fill-rule:nonzero;stroke:#909d32;stroke-opacity:1"
       id="path3836-0"
       sodipodi:cx="57.800194"
       sodipodi:cy="409.91632"
       sodipodi:rx="7.3080707"
       sodipodi:ry="12.623032"
       d="m 65.108264,409.91632 a 7.3080707,12.623032 0 1 1 -14.616141,0 7.3080707,12.623032 0 1 1 14.616141,0 z"
       transform="matrix(0.07794923,0,0,0.06271649,18.681982,985.53196)" />
    <path
       sodipodi:type="arc"
       style="fill:#909d32;fill-opacity:1;fill-rule:nonzero;stroke:#909d32;stroke-opacity:1"
       id="path3836-8"
       sodipodi:cx="57.800194"
       sodipodi:cy="409.91632"
       sodipodi:rx="7.3080707"
       sodipodi:ry="12.623032"
       d="m 65.108264,409.91632 a 7.3080707,12.623032 0 1 1 -14.616141,0 7.3080707,12.623032 0 1 1 14.616141,0 z"
       transform="matrix(0.07794923,0,0,0.06271649,22.51423,983.86528)" />
    <path
       sodipodi:type="arc"
       style="fill:#909d32;fill-opacity:1;fill-rule:nonzero;stroke:#909d32;stroke-opacity:1"
       id="path3836-2"
       sodipodi:cx="57.800194"
       sodipodi:cy="409.91632"
       sodipodi:rx="7.3080707"
       sodipodi:ry="12.623032"
       d="m 65.108264,409.91632 a 7.3080707,12.623032 0 1 1 -14.616141,0 7.3080707,12.623032 0 1 1 14.616141,0 z"
       transform="matrix(0.07794923,0,0,0.06271649,25.725034,988.69863)" />
    <path
       sodipodi:type="arc"
       style="fill:#909d32;fill-opacity:1;fill-rule:nonzero;stroke:#909d32;stroke-opacity:1"
       id="path3836-09"
       sodipodi:cx="57.800194"
       sodipodi:cy="409.91632"
       sodipodi:rx="7.3080707"
       sodipodi:ry="12.623032"
       d="m 65.108264,409.91632 a 7.3080707,12.623032 0 1 1 -14.616141,0 7.3080707,12.623032 0 1 1 14.616141,0 z"
       transform="matrix(0.07794923,0,0,0.06271649,21.582063,990.86528)" />
    <path
       sodipodi:type="arc"
       style="fill:#909d32;fill-opacity:1;fill-rule:nonzero;stroke:#909d32;stroke-opacity:1"
       id="path3836-1"
       sodipodi:cx="57.800194"
       sodipodi:cy="409.91632"
       sodipodi:rx="7.3080707"
       sodipodi:ry="12.623032"
       d="m 65.108264,409.91632 a 7.3080707,12.623032 0 1 1 -14.616141,0 7.3080707,12.623032 0 1 1 14.616141,0 z"
       transform="matrix(0.07794923,0,0,0.06271649,17.024793,992.78198)" />
    <path
       sodipodi:type="arc"
       style="fill:#909d32;fill-opacity:1;fill-rule:nonzero;stroke:#909d32;stroke-opacity:1"
       id="path3836-54"
       sodipodi:cx="57.800194"
       sodipodi:cy="409.91632"
       sodipodi:rx="7.3080707"
       sodipodi:ry="12.623032"
       d="m 65.108264,409.91632 a 7.3080707,12.623032 0 1 1 -14.616141,0 7.3080707,12.623032 0 1 1 14.616141,0 z"
       transform="matrix(0.07794923,0,0,0.06271649,11.846084,994.53202)" />
    <path
       sodipodi:type="arc"
       style="fill:#909d32;fill-opacity:1;fill-rule:nonzero;stroke:#909d32;stroke-opacity:1"
       id="path3836-51"
       sodipodi:cx="57.800194"
       sodipodi:cy="409.91632"
       sodipodi:rx="7.3080707"
       sodipodi:ry="12.623032"
       d="m 65.108264,409.91632 a 7.3080707,12.623032 0 1 1 -14.616141,0 7.3080707,12.623032 0 1 1 14.616141,0 z"
       transform="matrix(0.10023399,0,0,0.06271649,2.7456582,994.44873)" />
    <path
       style="fill:#fd1019;fill-opacity:1;stroke:none"
       d="m 14.590799,1016.574 c 1.222724,0.1608 4.75525,-1.4409 6.525178,-1.5002 -2.176162,2.1388 -6.326006,3.6112 -7.146622,6.3334 -0.322668,1.6745 0.259412,3.0311 0.932166,3.6667 -0.470817,0.3712 -1.117879,1.2673 -2.382207,1 -0.758261,-0.6399 -1.678996,-2.0657 -1.346464,-3.5833 -1.4939883,1.1237 -2.3381722,4.1538 -3.0036549,4.1667 -0.8329383,-0.3215 -2.7225826,-1.973 -1.6571886,-2.5835 0.2800908,-0.6876 2.3220856,-2.4067 3.003655,-3.4999 1.9605595,-2.1553 3.1754215,-2.8683 5.0751375,-3.9999 z"
       id="path3802"
       inkscape:connector-curvature="0"
       sodipodi:nodetypes="cccccccccc" />
  </g>
</svg>
