<?xml version="1.0" encoding="UTF-8" standalone="no"?>
<!-- Created with Inkscape (http://www.inkscape.org/) -->

<svg
   width="64"
   height="64"
   id="svg1307"
   version="1.0"
   xmlns="http://www.w3.org/2000/svg"
   xmlns:svg="http://www.w3.org/2000/svg"
   xmlns:rdf="http://www.w3.org/1999/02/22-rdf-syntax-ns#"
   xmlns:cc="http://creativecommons.org/ns#"
   xmlns:dc="http://purl.org/dc/elements/1.1/">
  <defs
     id="defs1309" />
  <metadata
     id="metadata1312">
    <rdf:RDF>
      <cc:Work
         rdf:about="">
        <dc:format>image/svg+xml</dc:format>
        <dc:type
           rdf:resource="http://purl.org/dc/dcmitype/StillImage" />
        <dc:creator>
          <cc:Agent>
            <dc:title>Lapo Calamandrei</dc:title>
          </cc:Agent>
        </dc:creator>
        <cc:license
           rdf:resource="http://creativecommons.org/licenses/by-sa/2.0/" />
        <dc:subject>
          <rdf:Bag>
            <rdf:li>media</rdf:li>
            <rdf:li>stop</rdf:li>
            <rdf:li>playback</rdf:li>
            <rdf:li>video</rdf:li>
            <rdf:li>music</rdf:li>
          </rdf:Bag>
        </dc:subject>
        <dc:contributor>
          <cc:Agent>
            <dc:title>Jakub Steiner</dc:title>
          </cc:Agent>
        </dc:contributor>
      </cc:Work>
      <cc:License
         rdf:about="http://creativecommons.org/licenses/by-sa/2.0/">
        <cc:permits
           rdf:resource="http://web.resource.org/cc/Reproduction" />
        <cc:permits
           rdf:resource="http://web.resource.org/cc/Distribution" />
        <cc:requires
           rdf:resource="http://web.resource.org/cc/Notice" />
        <cc:requires
           rdf:resource="http://web.resource.org/cc/Attribution" />
        <cc:permits
           rdf:resource="http://web.resource.org/cc/DerivativeWorks" />
        <cc:requires
           rdf:resource="http://web.resource.org/cc/ShareAlike" />
      </cc:License>
    </rdf:RDF>
  </metadata>
  <g
     id="layer1"
     style="display:inline"
     transform="translate(0,16)">
    <path
       style="fill:#000000;fill-opacity:0.80784314;fill-rule:nonzero;stroke:#000000;stroke-width:1.68299997;stroke-linecap:round;stroke-linejoin:round;stroke-miterlimit:4;stroke-opacity:1;stroke-dasharray:none;stroke-dashoffset:0"
       id="path4158"
       d="m 44.698413,26.490843 c 0,3.797885 -6.577424,6.876679 -14.691087,6.876679 -8.113663,0 -14.691087,-3.078794 -14.691087,-6.876679 0,-3.797885 6.577424,-6.876679 14.691087,-6.876679 8.084583,0 14.649898,3.05758 14.690898,6.841805"
       transform="matrix(0.85575662,0,0,0.57327019,5.8540085,-6.7772426)" />
    <path
       style="fill:#000000;fill-opacity:0.8072289;stroke:#000000;stroke-width:0.97166258px;stroke-linecap:round;stroke-linejoin:round;stroke-opacity:1"
       d="M 44.566825,22.774317 C 42.938136,21.41127 38.132942,17.864428 44.303546,12.438416 L 44.171148,8.5843534 c -3.201565,5.0371776 -20.222954,5.7150526 -25.275581,-1.2e-6 l 0.13164,3.8540628 c 4.223468,3.954489 4.588268,9.199717 0.394919,11.387009 l 0.263279,4.204433 c 8.057359,3.954241 17.997793,3.49954 24.946481,-0.525553 z"
       id="path4180" />
    <path
       style="fill:none;stroke:#000000;stroke-width:0.97166258px;stroke-linecap:butt;stroke-linejoin:miter;stroke-opacity:1"
       d="m 19.685405,24.000609 c 6.06727,5.854718 22.957969,2.861425 24.748262,-1.226294"
       id="path4202" />
    <path
       style="fill:none;stroke:#000000;stroke-width:0.97166258px;stroke-linecap:butt;stroke-linejoin:miter;stroke-opacity:1;display:inline"
       d="m 19.129998,12.562271 c 6.06727,5.854718 23.250096,3.815492 25.04039,-0.272225"
       id="path4202-9" />
    <path
       style="fill:#0041ce;fill-opacity:1;stroke:#0041cf;stroke-width:1px;stroke-linecap:butt;stroke-linejoin:miter;stroke-opacity:1"
       d="m 36.667346,13.873619 c 0.0511,-4.8991193 0.04071,-6.536169 0.08202,-12.065291 L 38.975871,1.7048099 C 37.856819,1.1208404 37.422006,0.80483087 36.703497,0.14521672 36.675224,-0.53895285 36.571569,-1.3032614 36.479417,-1.856139 c -0.465425,0.00922 -8.543969,0.028565 -9.718346,0.089608 0.01997,0.7025673 -0.117824,1.14003788 -0.01985,1.94175486 C 25.319399,0.90084967 24.625604,1.260167 23.637409,1.9623358 l 3.086007,-0.1405792 c 0.04553,6.3115394 -0.07014,5.5833681 -0.0284,11.6805134 l -3.464698,-0.05721 c 3.693263,3.269781 5.787487,4.603741 9.344656,7.605399 3.826135,-3.597958 4.526747,-4.485735 7.472156,-7.222297 z"
       id="path4459" />
  </g>
</svg>
