<?xml version="1.0" encoding="UTF-8" standalone="no"?>
<!-- Created with Inkscape (http://www.inkscape.org/) -->

<svg
   width="64"
   height="64"
   id="svg1307"
   version="1.0"
   xmlns="http://www.w3.org/2000/svg"
   xmlns:svg="http://www.w3.org/2000/svg"
   xmlns:rdf="http://www.w3.org/1999/02/22-rdf-syntax-ns#"
   xmlns:cc="http://creativecommons.org/ns#"
   xmlns:dc="http://purl.org/dc/elements/1.1/">
  <defs
     id="defs1309" />
  <metadata
     id="metadata1312">
    <rdf:RDF>
      <cc:Work
         rdf:about="">
        <dc:format>image/svg+xml</dc:format>
        <dc:type
           rdf:resource="http://purl.org/dc/dcmitype/StillImage" />
        <dc:creator>
          <cc:Agent>
            <dc:title>Lapo Calamandrei</dc:title>
          </cc:Agent>
        </dc:creator>
        <cc:license
           rdf:resource="http://creativecommons.org/licenses/by-sa/2.0/" />
        <dc:subject>
          <rdf:Bag>
            <rdf:li>media</rdf:li>
            <rdf:li>stop</rdf:li>
            <rdf:li>playback</rdf:li>
            <rdf:li>video</rdf:li>
            <rdf:li>music</rdf:li>
          </rdf:Bag>
        </dc:subject>
        <dc:contributor>
          <cc:Agent>
            <dc:title>Jakub Steiner</dc:title>
          </cc:Agent>
        </dc:contributor>
      </cc:Work>
      <cc:License
         rdf:about="http://creativecommons.org/licenses/by-sa/2.0/">
        <cc:permits
           rdf:resource="http://web.resource.org/cc/Reproduction" />
        <cc:permits
           rdf:resource="http://web.resource.org/cc/Distribution" />
        <cc:requires
           rdf:resource="http://web.resource.org/cc/Notice" />
        <cc:requires
           rdf:resource="http://web.resource.org/cc/Attribution" />
        <cc:permits
           rdf:resource="http://web.resource.org/cc/DerivativeWorks" />
        <cc:requires
           rdf:resource="http://web.resource.org/cc/ShareAlike" />
      </cc:License>
    </rdf:RDF>
  </metadata>
  <g
     id="layer1"
     style="display:inline"
     transform="translate(0,16)">
    <path
       style="fill:#6dff00;fill-opacity:0.99215686;stroke:#31d900;stroke-width:1px;stroke-linecap:butt;stroke-linejoin:miter;stroke-opacity:1;display:inline"
       d="m 27.968052,4.1072132 7.501484,0.1109601 -0.131188,-1.4032058 4.217121,-0.192055 -7.914165,-3.6928964 -7.711373,3.653484 4.221875,0.1181012 z"
       id="path4222-5" />
    <path
       style="fill:#000000;fill-opacity:0.80784314;fill-rule:nonzero;stroke:#000000;stroke-width:1.68299997;stroke-linecap:round;stroke-linejoin:round;stroke-miterlimit:4;stroke-opacity:1;stroke-dasharray:none;stroke-dashoffset:0"
       id="path4158"
       d="m 44.698413,26.490843 c 0,3.797885 -6.577424,6.876679 -14.691087,6.876679 -8.113663,0 -14.691087,-3.078794 -14.691087,-6.876679 0,-3.797885 6.577424,-6.876679 14.691087,-6.876679 8.084583,0 14.649898,3.05758 14.690898,6.841805"
       transform="matrix(0.85575662,0,0,0.57327019,5.8540085,-6.7772426)" />
    <path
       style="fill:#000000;fill-opacity:0.8072289;stroke:#000000;stroke-width:0.97166258px;stroke-linecap:round;stroke-linejoin:round;stroke-opacity:1"
       d="M 44.566825,22.774317 C 42.938136,21.41127 38.132942,17.864428 44.303546,12.438416 L 44.171148,8.5843534 c -3.201565,5.0371776 -20.222954,5.7150526 -25.275581,-1.2e-6 l 0.13164,3.8540628 c 4.223468,3.954489 4.588268,9.199717 0.394919,11.387009 l 0.263279,4.204433 c 8.057359,3.954241 17.997793,3.49954 24.946481,-0.525553 z"
       id="path4180" />
    <path
       style="fill:none;stroke:#000000;stroke-width:0.97166258px;stroke-linecap:butt;stroke-linejoin:miter;stroke-opacity:1"
       d="m 19.685405,24.000609 c 6.06727,5.854718 22.957969,2.861425 24.748262,-1.226294"
       id="path4202" />
    <path
       style="fill:none;stroke:#000000;stroke-width:0.97166258px;stroke-linecap:butt;stroke-linejoin:miter;stroke-opacity:1;display:inline"
       d="m 18.895566,12.640415 c 6.06727,5.854718 23.484528,3.737348 25.274822,-0.350369"
       id="path4202-9" />
    <path
       style="fill:#31d900;fill-opacity:1;stroke:#31d900;stroke-width:1px;stroke-linecap:round;stroke-linejoin:round;stroke-opacity:1;display:inline"
       d="m 41.728938,23.384615 -0.312577,2.031746 c -2.046847,1.190028 -3.444319,2.553593 -8.126984,5.470085 l -8.908424,-5.313797 -0.312577,-2.344323 9.221002,5.938951 c 3.458931,-2.302599 5.271327,-3.640494 8.43956,-5.782662 z"
       id="path4224-5" />
    <path
       id="path4281"
       d="m 35.926979,20.379779 -6.563832,-0.03137 -0.132438,2.965229 -5.156693,-0.166523 9.235698,5.341626 8.107649,-5.131809 -5.314352,0.14844 z"
       style="fill:#6dff00;fill-opacity:0.99215686000000003;stroke:#31d900;stroke-width:1px;stroke-linecap:butt;stroke-linejoin:round;stroke-opacity:1;display:inline" />
  </g>
</svg>
