<?xml version="1.0" encoding="UTF-8" standalone="no"?>
<!-- Created with Inkscape (http://www.inkscape.org/) -->

<svg
   xmlns:dc="http://purl.org/dc/elements/1.1/"
   xmlns:cc="http://creativecommons.org/ns#"
   xmlns:rdf="http://www.w3.org/1999/02/22-rdf-syntax-ns#"
   xmlns:svg="http://www.w3.org/2000/svg"
   xmlns="http://www.w3.org/2000/svg"
   xmlns:sodipodi="http://sodipodi.sourceforge.net/DTD/sodipodi-0.dtd"
   xmlns:inkscape="http://www.inkscape.org/namespaces/inkscape"
   width="64"
   height="64"
   id="svg2"
   version="1.1"
   inkscape:version="0.91+devel+osxmenu r12922"
   sodipodi:docname="Std_Tool3.svg"
   viewBox="0 0 64 64">
  <defs
     id="defs4" />
  <sodipodi:namedview
     id="base"
     pagecolor="#ffffff"
     bordercolor="#666666"
     borderopacity="1.0"
     inkscape:pageopacity="0.0"
     inkscape:pageshadow="2"
     inkscape:zoom="3.5755447"
     inkscape:cx="126.24472"
     inkscape:cy="11.717369"
     inkscape:document-units="px"
     inkscape:current-layer="layer1"
     showgrid="true"
     inkscape:window-width="2560"
     inkscape:window-height="1329"
     inkscape:window-x="0"
     inkscape:window-y="23"
     inkscape:window-maximized="0"
     inkscape:snap-global="true">
    <inkscape:grid
       type="xygrid"
       id="grid11521"
       empspacing="10"
       dotted="true" />
  </sodipodi:namedview>
  <metadata
     id="metadata7">
    <rdf:RDF>
      <cc:Work
         rdf:about="">
        <dc:format>image/svg+xml</dc:format>
        <dc:type
           rdf:resource="http://purl.org/dc/dcmitype/StillImage" />
        <dc:title></dc:title>
      </cc:Work>
    </rdf:RDF>
  </metadata>
  <g
     inkscape:label="Layer 1"
     inkscape:groupmode="layer"
     id="layer1"
     transform="translate(0,-988.36218)">
    <path
       style="fill:#601512;fill-opacity:1;stroke:#000000;stroke-width:2.5;stroke-linecap:butt;stroke-linejoin:miter;stroke-miterlimit:4;stroke-dasharray:none;stroke-opacity:1"
       d="m -0.17114051,1053.0917 42.23985651,-43.6177 -7.605563,-7.5246 -34.54478013,33.2488"
       id="path4595"
       inkscape:connector-curvature="0"
       sodipodi:nodetypes="cccc" />
    <path
       style="fill:#99b24f;fill-opacity:1;stroke:#000000;stroke-width:2.5;stroke-linecap:square;stroke-linejoin:miter;stroke-miterlimit:4;stroke-dasharray:none;stroke-opacity:1"
       d="m 31.226948,999.60279 c -4.062656,8.00921 -0.825897,17.17061 10.032665,14.96861 1.517547,1.5907 0.657817,3.603 -0.16182,4.9355 l 5.016435,5.2592 11.003793,-11.1657 -4.611884,-4.5309 c -1.277469,0.5945 -4.206202,0.4902 -5.340077,-0.6474 3.303218,-9.96621 -6.354097,-12.62631 -11.570164,-11.97471 l 3.889836,-0.56456 c -6.368067,-3.28618 -15.374973,-5.08111 -21.040144,-2.82929 l -14.5728562,8.58316 15.7856912,-3.24011 c 5.712447,-0.84313 7.494551,-0.29051 11.568525,1.2062 z"
       id="path4597"
       inkscape:connector-curvature="0"
       sodipodi:nodetypes="ccccccccccccc" />
    <path
       style="fill:#99b24f;fill-opacity:1;stroke:#000000;stroke-width:2.5;stroke-linecap:butt;stroke-linejoin:miter;stroke-miterlimit:4;stroke-dasharray:none;stroke-opacity:1"
       d="m 36.16319,996.36659 c -2.026564,0.0478 -3.957711,1.49242 -4.936447,3.2364"
       id="path4599"
       inkscape:connector-curvature="0"
       sodipodi:nodetypes="cc" />
    <path
       style="fill:#99b24f;fill-opacity:1;stroke:#000000;stroke-width:2.5;stroke-linecap:butt;stroke-linejoin:miter;stroke-miterlimit:4;stroke-dasharray:none;stroke-opacity:1"
       d="m 47.327882,1007.9367 c -0.206133,1.5954 -2.446021,5.7142 -5.420986,6.5538"
       id="path4601"
       inkscape:connector-curvature="0"
       sodipodi:nodetypes="cc" />
    <path
       inkscape:connector-curvature="0"
       id="path11536"
       style="font-style:normal;font-variant:normal;font-weight:normal;font-stretch:normal;font-size:medium;line-height:125%;font-family:sans-serif;-inkscape-font-specification:sans-serif;text-align:center;letter-spacing:0px;word-spacing:0px;text-anchor:middle;fill:#000000;fill-opacity:1;stroke:none;stroke-width:0.99999994px;stroke-linecap:butt;stroke-linejoin:miter;stroke-opacity:1"
       d="m 53.36877,1050.3608 q -4.2323,0 -6.1485,-2.3161 -1.89954,-2.3327 -1.89954,-5.6653 l 3.13257,0 q 0.19995,2.3161 0.86646,3.3659 1.16638,1.8829 4.21564,1.8829 2.36609,0 3.79907,-1.2664 1.43299,-1.2664 1.43299,-3.2659 0,-2.466 -1.5163,-3.4491 -1.49964,-0.9831 -4.18232,-0.9831 -0.29992,0 -0.61651,0.017 -0.29993,0 -0.61652,0.017 l 0,-2.6493 q 0.46655,0.05 0.78314,0.067 0.31659,0.017 0.68317,0.017 1.68292,0 2.76599,-0.5332 1.89954,-0.9331 1.89954,-3.3326 0,-1.7829 -1.26636,-2.7493 -1.26636,-0.9664 -2.94928,-0.9664 -2.99927,0 -4.14899,1.9995 -0.63318,1.0997 -0.71649,3.1326 l -2.96595,0 q 0,-2.6661 1.06641,-4.5323 1.83289,-3.3325 6.44843,-3.3325 3.64911,0 5.64863,1.6329 1.99951,1.6163 1.99951,4.6989 0,2.1995 -1.18305,3.5658 -0.73315,0.8498 -1.89953,1.333 1.88287,0.5165 2.93262,1.9995 1.0664,1.4663 1.0664,3.5991 0,3.4159 -2.24945,5.5654 -2.24945,2.1494 -6.38178,2.1494 z" />
  </g>
</svg>
