<?xml version="1.0" encoding="UTF-8" standalone="no"?>
<!-- Generator: Adobe Illustrator 9.0, SVG Export Plug-In  -->

<svg
   xmlns:dc="http://purl.org/dc/elements/1.1/"
   xmlns:cc="http://creativecommons.org/ns#"
   xmlns:rdf="http://www.w3.org/1999/02/22-rdf-syntax-ns#"
   xmlns:svg="http://www.w3.org/2000/svg"
   xmlns="http://www.w3.org/2000/svg"
   xmlns:xlink="http://www.w3.org/1999/xlink"
   xmlns:sodipodi="http://sodipodi.sourceforge.net/DTD/sodipodi-0.dtd"
   xmlns:inkscape="http://www.inkscape.org/namespaces/inkscape"
   width="64"
   height="64"
   xml:space="preserve"
   id="svg16168"
   sodipodi:version="0.32"
   inkscape:version="0.48.5 r10040"
   sodipodi:docname="Std_ViewScreenShot.svg"
   version="1.1"><metadata
     id="metadata16236"><rdf:RDF><cc:Work
         rdf:about=""><dc:format>image/svg+xml</dc:format><dc:type
           rdf:resource="http://purl.org/dc/dcmitype/StillImage" /><dc:title>Generic Image</dc:title><dc:creator><cc:Agent><dc:title>Jakub Steiner</dc:title></cc:Agent></dc:creator><dc:subject><rdf:Bag><rdf:li>image</rdf:li><rdf:li>picture</rdf:li><rdf:li>snapshot</rdf:li><rdf:li>photo</rdf:li></rdf:Bag></dc:subject><cc:license
           rdf:resource="http://creativecommons.org/licenses/by-sa/2.0/" /></cc:Work><cc:License
         rdf:about="http://creativecommons.org/licenses/by/2.0/"><cc:permits
           rdf:resource="http://web.resource.org/cc/Reproduction" /><cc:permits
           rdf:resource="http://web.resource.org/cc/Distribution" /><cc:requires
           rdf:resource="http://web.resource.org/cc/Notice" /><cc:requires
           rdf:resource="http://web.resource.org/cc/Attribution" /><cc:permits
           rdf:resource="http://web.resource.org/cc/DerivativeWorks" /><cc:requires
           rdf:resource="http://web.resource.org/cc/ShareAlike" /></cc:License></rdf:RDF></metadata><defs
     id="defs16234"><radialGradient
       inkscape:collect="always"
       xlink:href="#linearGradient5060"
       id="radialGradient6719"
       gradientUnits="userSpaceOnUse"
       gradientTransform="matrix(-2.774389,0,0,1.969706,112.7623,-872.8854)"
       cx="605.71429"
       cy="486.64789"
       fx="605.71429"
       fy="486.64789"
       r="117.14286" /><linearGradient
       inkscape:collect="always"
       id="linearGradient5060"><stop
         style="stop-color:black;stop-opacity:1;"
         offset="0"
         id="stop5062" /><stop
         style="stop-color:black;stop-opacity:0;"
         offset="1"
         id="stop5064" /></linearGradient><radialGradient
       inkscape:collect="always"
       xlink:href="#linearGradient5060"
       id="radialGradient6717"
       gradientUnits="userSpaceOnUse"
       gradientTransform="matrix(2.774389,0,0,1.969706,-1891.633,-872.8854)"
       cx="605.71429"
       cy="486.64789"
       fx="605.71429"
       fy="486.64789"
       r="117.14286" /><linearGradient
       id="linearGradient5048"><stop
         style="stop-color:black;stop-opacity:0;"
         offset="0"
         id="stop5050" /><stop
         id="stop5056"
         offset="0.5"
         style="stop-color:black;stop-opacity:1;" /><stop
         style="stop-color:black;stop-opacity:0;"
         offset="1"
         id="stop5052" /></linearGradient><linearGradient
       inkscape:collect="always"
       xlink:href="#linearGradient5048"
       id="linearGradient6715"
       gradientUnits="userSpaceOnUse"
       gradientTransform="matrix(2.774389,0,0,1.969706,-1892.179,-872.8854)"
       x1="302.85715"
       y1="366.64789"
       x2="302.85715"
       y2="609.50507" /><linearGradient
       id="linearGradient8171"><stop
         style="stop-color:#bbbdba;stop-opacity:1;"
         offset="0"
         id="stop8173" /><stop
         style="stop-color:#70746e;stop-opacity:1;"
         offset="1"
         id="stop8175" /></linearGradient><linearGradient
       inkscape:collect="always"
       id="linearGradient8155"><stop
         style="stop-color:#ffffff;stop-opacity:1;"
         offset="0"
         id="stop8157" /><stop
         style="stop-color:#ffffff;stop-opacity:0;"
         offset="1"
         id="stop8159" /></linearGradient><linearGradient
       id="linearGradient2224"><stop
         style="stop-color:#7c7c7c;stop-opacity:1;"
         offset="0"
         id="stop2226" /><stop
         style="stop-color:#b8b8b8;stop-opacity:1;"
         offset="1"
         id="stop2228" /></linearGradient><linearGradient
       inkscape:collect="always"
       id="linearGradient2251"><stop
         style="stop-color:#ffffff;stop-opacity:1;"
         offset="0"
         id="stop2253" /><stop
         style="stop-color:#ffffff;stop-opacity:0;"
         offset="1"
         id="stop2255" /></linearGradient><linearGradient
       id="linearGradient7648"
       gradientUnits="userSpaceOnUse"
       x1="21.9326"
       y1="24.627399"
       x2="21.9326"
       y2="7.1090999"><stop
         offset="0"
         style="stop-color:#3465a4;stop-opacity:1"
         id="stop7650" /><stop
         offset="1"
         style="stop-color:#0b1521;stop-opacity:1"
         id="stop7652" /></linearGradient><linearGradient
       id="linearGradient2392"><stop
         id="stop2394"
         offset="0.0000000"
         style="stop-color:#715b26;stop-opacity:1.0000000;" /><stop
         id="stop2396"
         offset="1.0000000"
         style="stop-color:#312710;stop-opacity:1.0000000;" /></linearGradient><linearGradient
       inkscape:collect="always"
       id="linearGradient12129"><stop
         style="stop-color:#000000;stop-opacity:1;"
         offset="0"
         id="stop12131" /><stop
         style="stop-color:#000000;stop-opacity:0;"
         offset="1"
         id="stop12133" /></linearGradient><linearGradient
       y2="36.032799"
       x2="31.081301"
       y1="3.7319"
       x1="12.4873"
       gradientUnits="userSpaceOnUse"
       id="aigrd1"><stop
         id="stop16177"
         style="stop-color:#D2D2D2;stroke-dasharray:none;stroke-miterlimit:4.0000000;stroke-width:1.2166667"
         offset="0" /><stop
         id="stop16179"
         style="stop-color:#EDEDED;stroke-dasharray:none;stroke-miterlimit:4.0000000;stroke-width:1.2166667"
         offset="1" /></linearGradient><linearGradient
       y2="22.5769"
       x2="21.9168"
       y1="30.341299"
       x1="21.877001"
       gradientUnits="userSpaceOnUse"
       id="aigrd2"><stop
         id="stop16184"
         style="stop-color:#5e4f07;stop-opacity:1.0000000;"
         offset="0.0000000" /><stop
         id="stop16186"
         style="stop-color:#348a31;stop-opacity:1.0000000;"
         offset="1.0000000" /></linearGradient><linearGradient
       y2="7.1090999"
       x2="21.9326"
       y1="24.627399"
       x1="21.9326"
       gradientUnits="userSpaceOnUse"
       id="aigrd3"><stop
         id="stop16199"
         style="stop-color:#729fcf;stroke-dasharray:none;stroke-miterlimit:4;stroke-width:1.21666669999999999;stop-opacity:1"
         offset="0" /><stop
         id="stop16201"
         style="stop-color:#3465a4;stroke-dasharray:none;stroke-miterlimit:4;stroke-width:1.21666669999999999;stop-opacity:1"
         offset="1" /></linearGradient><radialGradient
       inkscape:collect="always"
       xlink:href="#linearGradient12129"
       id="radialGradient12135"
       cx="24.218407"
       cy="41.63604"
       fx="24.218407"
       fy="41.63604"
       r="22.097088"
       gradientTransform="matrix(1,0,0,0.184,0,33.97501)"
       gradientUnits="userSpaceOnUse" /><linearGradient
       inkscape:collect="always"
       xlink:href="#linearGradient7648"
       id="linearGradient7671"
       gradientUnits="userSpaceOnUse"
       gradientTransform="matrix(1.098989,0,0,-0.797757,-1.953865,37.324)"
       x1="21.9326"
       y1="24.627399"
       x2="21.9326"
       y2="7.1090999" /><linearGradient
       inkscape:collect="always"
       xlink:href="#aigrd3"
       id="linearGradient7673"
       gradientUnits="userSpaceOnUse"
       gradientTransform="matrix(1.098989,0,0,1.106697,-1.953865,-4.922453)"
       x1="21.9326"
       y1="24.627399"
       x2="21.9326"
       y2="7.1090999" /><linearGradient
       inkscape:collect="always"
       xlink:href="#aigrd1"
       id="linearGradient8148"
       gradientUnits="userSpaceOnUse"
       gradientTransform="matrix(1.9382135,0,0,1.3782377,71.56571,3.9665926)"
       x1="12.4873"
       y1="3.7319"
       x2="31.081301"
       y2="36.032799" /><radialGradient
       inkscape:collect="always"
       xlink:href="#linearGradient8155"
       id="radialGradient8161"
       cx="12.700491"
       cy="10.404876"
       fx="12.700491"
       fy="10.404876"
       r="19.96875"
       gradientTransform="matrix(2.3398829,0,0,1.5408896,-15.402755,3.1271307)"
       gradientUnits="userSpaceOnUse" /><linearGradient
       inkscape:collect="always"
       xlink:href="#linearGradient2251"
       id="linearGradient8166"
       gradientUnits="userSpaceOnUse"
       gradientTransform="matrix(1.3679278,0,0,1.3698635,7.1540293,-4.1898864)"
       x1="33.396004"
       y1="36.921333"
       x2="34.170048"
       y2="38.070381" /><linearGradient
       inkscape:collect="always"
       xlink:href="#linearGradient2224"
       id="linearGradient8169"
       gradientUnits="userSpaceOnUse"
       gradientTransform="matrix(1.390022,0,0,1.4583697,6.7992589,-6.5091254)"
       x1="35.996582"
       y1="40.458221"
       x2="33.664921"
       y2="37.770721" /></defs><sodipodi:namedview
     inkscape:window-height="836"
     inkscape:window-width="1238"
     inkscape:pageshadow="2"
     inkscape:pageopacity="0.0"
     borderopacity="1"
     bordercolor="#ff6600"
     pagecolor="#ffffff"
     id="base"
     inkscape:zoom="11.313708"
     inkscape:cx="30.054662"
     inkscape:cy="24.713921"
     inkscape:window-x="360"
     inkscape:window-y="27"
     inkscape:current-layer="svg16168"
     showgrid="true"
     inkscape:showpageshadow="true"
     borderlayer="true"
     inkscape:snap-bbox="true"
     inkscape:snap-nodes="false"
     inkscape:window-maximized="0"><inkscape:grid
       type="xygrid"
       id="grid3055"
       empspacing="2"
       visible="true"
       enabled="true"
       snapvisiblegridlinesonly="true" /></sodipodi:namedview><g
     style="display:inline"
     transform="matrix(0.02975396,0,0,0.0341543,58.436371,46.974527)"
     id="g6707"><rect
       style="opacity:0.40206185;color:#000000;fill:url(#linearGradient6715);fill-opacity:1;fill-rule:nonzero;stroke:none;stroke-width:1;marker:none;visibility:visible;display:inline;overflow:visible"
       id="rect6709"
       width="1339.6335"
       height="478.35718"
       x="-1559.2523"
       y="-150.69685" /><path
       style="opacity:0.40206185;color:#000000;fill:url(#radialGradient6717);fill-opacity:1;fill-rule:nonzero;stroke:none;stroke-width:1;marker:none;visibility:visible;display:inline;overflow:visible"
       d="m -219.61876,-150.68038 c 0,0 0,478.33079 0,478.33079 142.874166,0.90045 345.40022,-107.16966 345.40014,-239.196175 0,-132.026537 -159.436816,-239.134595 -345.40014,-239.134615 z"
       id="path6711"
       sodipodi:nodetypes="cccc"
       inkscape:connector-curvature="0" /><path
       sodipodi:nodetypes="cccc"
       id="path6713"
       d="m -1559.2523,-150.68038 c 0,0 0,478.33079 0,478.33079 -142.8742,0.90045 -345.4002,-107.16966 -345.4002,-239.196175 0,-132.026537 159.4368,-239.134595 345.4002,-239.134615 z"
       style="opacity:0.40206185;color:#000000;fill:url(#radialGradient6719);fill-opacity:1;fill-rule:nonzero;stroke:none;stroke-width:1;marker:none;visibility:visible;display:inline;overflow:visible"
       inkscape:connector-curvature="0" /></g><path
     style="color:#000000;fill:url(#linearGradient8148);fill-opacity:1;fill-rule:nonzero;stroke:#2e3436;stroke-width:1.99999988;stroke-linecap:butt;stroke-linejoin:miter;stroke-miterlimit:4;stroke-opacity:1;stroke-dashoffset:0;marker:none;visibility:visible;display:inline;overflow:visible"
     d="m 4.5205602,8.9999995 54.9588798,0 C 60.321829,8.9999995 61,9.6984544 61,10.56604 l 0,33.270808 c 0,0.867587 -11.430166,11.16315 -12.272556,11.16315 l -44.2068838,0 C 3.6781698,54.999998 3,54.301544 3,53.433956 L 3,10.566041 C 3,9.6984544 3.6781698,8.9999995 4.5205602,8.9999995 z"
     id="rect7603"
     sodipodi:nodetypes="ccccccccc"
     inkscape:connector-curvature="0" /><g
     id="g7654"
     transform="matrix(1.4058329,0,0,1.4542495,0.26298191,6.3780388)"><path
       id="path7644"
       d="m 5.512695,30 34.130539,0 0,-10.372625 -34.130539,0 0,10.372625 z"
       style="fill:url(#linearGradient7671);fill-opacity:1;fill-rule:nonzero;stroke:none"
       inkscape:connector-curvature="0" /><path
       style="fill:url(#linearGradient7673);fill-rule:nonzero;stroke:none"
       d="m 5.512695,5.237844 34.130539,0 0,14.389531 -34.130539,0 0,-14.389531 z"
       id="path16203"
       inkscape:connector-curvature="0" /><g
       id="g16205"
       style="fill-rule:nonzero;stroke:#000000;stroke-width:0.85091305;stroke-miterlimit:4"
       transform="matrix(1.189217,0,0,1.189217,-3.525355,-6.535408)"><g
         id="g16207"
         style="stroke-width:0.85091305"><path
           style="opacity:0.04999994;fill:#e8f52f;stroke:none"
           d="m 18.4,15.4 c 0,2.2 -1.8,4.1 -4.1,4.1 -2.2,0 -4.1,-1.8 -4.1,-4.1 0,-2.2 1.8,-4.1 4.1,-4.1 2.2,0 4.1,1.8 4.1,4.1 z"
           id="path16209"
           inkscape:connector-curvature="0" /><path
           style="opacity:0.20829994;fill:#ecf751;stroke:none"
           d="m 18,15.4 c 0,2 -1.6,3.7 -3.7,3.7 -2,0 -3.7,-1.6 -3.7,-3.7 0,-2 1.6,-3.7 3.7,-3.7 2,0 3.7,1.6 3.7,3.7 l 0,0 z"
           id="path16211"
           inkscape:connector-curvature="0" /><path
           style="opacity:0.36669994;fill:#f0f972;stroke:none"
           d="m 17.6,15.4 c 0,1.8 -1.5,3.3 -3.3,3.3 -1.8,0 -3.3,-1.5 -3.3,-3.3 0,-1.8 1.5,-3.3 3.3,-3.3 1.8,0 3.3,1.5 3.3,3.3 l 0,0 z"
           id="path16213"
           inkscape:connector-curvature="0" /><path
           style="opacity:0.525;fill:#f4fa95;stroke:none"
           d="m 17.2,15.4 c 0,1.6 -1.3,2.9 -2.9,2.9 -1.6,0 -2.9,-1.3 -2.9,-2.9 0,-1.6 1.3,-2.9 2.9,-2.9 1.6,0 2.9,1.3 2.9,2.9 z"
           id="path16215"
           inkscape:connector-curvature="0" /><path
           style="opacity:0.6833;fill:#f7fcb7;stroke:none"
           d="m 16.8,15.4 c 0,1.4 -1.1,2.5 -2.5,2.5 -1.4,0 -2.5,-1.1 -2.5,-2.5 0,-1.4 1.1,-2.5 2.5,-2.5 1.4,0 2.5,1.1 2.5,2.5 l 0,0 z"
           id="path16217"
           inkscape:connector-curvature="0" /><path
           style="opacity:0.8417;fill:#fbfddb;stroke:none"
           d="m 16.4,15.4 c 0,1.2 -1,2.1 -2.1,2.1 -1.1,0 -2.1,-1 -2.1,-2.1 0,-1.1 1,-2.1 2.1,-2.1 1.1,0 2.1,1 2.1,2.1 z"
           id="path16219"
           inkscape:connector-curvature="0" /><path
           style="fill:#ffffff;stroke:none"
           d="m 16,15.4 c 0,1 -0.8,1.8 -1.8,1.8 -1,0 -1.8,-0.8 -1.8,-1.8 0,-1 0.8,-1.8 1.8,-1.8 1,0 1.8,0.8 1.8,1.8 l 0,0 z"
           id="path16221"
           inkscape:connector-curvature="0" /></g></g><path
       style="opacity:0.3;fill-rule:nonzero;stroke:none"
       d="m 25.015859,21.649044 8.681289,0 1.664904,0.475688 -2.854121,0 c 0,0 2.854121,0.237842 4.281184,2.021669 1.427059,1.664904 -1.664905,3.686575 -1.664905,3.686575 0,0 0,0 0,0 -0.118922,-0.356766 -0.832454,-3.210889 -2.259514,-4.400106 -1.070297,-0.951374 -2.259514,-1.189218 -2.259514,-1.189218 l -5.589323,0 0,-0.475686 0,-0.118922 z"
       id="path16223"
       inkscape:connector-curvature="0" /><path
       style="opacity:0.3;fill-rule:nonzero;stroke:none"
       d="m 30.724106,22.362574 -4.994715,0 9.275897,5.232557 -4.281182,-5.232557 0,0 z"
       id="path16225"
       inkscape:connector-curvature="0" /><path
       style="fill:#2e3436;fill-rule:nonzero;stroke:none"
       d="m 25.015859,21.767966 8.681289,0 1.30814,-0.832453 -2.854121,0 c 0,0 2.616276,-0.475686 2.973043,-3.448731 0.356763,-2.973043 -4.043341,-6.302851 -4.043341,-6.302851 0,0 0,0 0,0.118922 0.118921,0.71353 1.308138,5.708243 0.475688,7.610993 -0.356767,1.664901 -1.427062,2.021667 -1.427062,2.021667 l -5.470401,0 0.237844,0.832453 0.118921,0 z"
       id="path16227"
       inkscape:connector-curvature="0" /><path
       style="fill:#2e3436;fill-rule:nonzero;stroke:none"
       d="m 30.248418,20.459827 -4.994714,0 5.946086,-9.038054 -0.951372,9.038054 z"
       id="path16229"
       inkscape:connector-curvature="0" /></g><path
     style="color:#000000;fill:none;stroke:#ffffff;stroke-width:2;stroke-linecap:butt;stroke-linejoin:miter;stroke-miterlimit:4;stroke-opacity:1;stroke-dashoffset:0;marker:none;visibility:visible;display:inline;overflow:visible"
     d="M 5.3577527,11 58.642247,11 C 58.840443,11 59,11.163775 59,11.367207 l 0,32.058686 C 59,44.705457 49.637603,53 49.439408,53 L 5.3577527,53 C 5.1595577,53 5,52.836225 5,52.632793 L 5,11.367208 c 0,-0.203433 0.1595577,-0.367206 0.3577527,-0.367206 z"
     id="rect7675"
     sodipodi:nodetypes="ccccccccc"
     inkscape:connector-curvature="0" /><rect
     style="opacity:0.84659095;color:#000000;fill:none;stroke:#4f4f4f;stroke-width:0.99999994;stroke-linecap:butt;stroke-linejoin:miter;stroke-miterlimit:4;stroke-opacity:1;stroke-dasharray:none;stroke-dashoffset:0;marker:none;visibility:visible;display:inline;overflow:visible"
     id="rect8163"
     width="46.7323"
     height="34.711914"
     x="8.6793232"
     y="14.708883" /><path
     style="color:#000000;fill:url(#linearGradient8169);fill-opacity:1;fill-rule:evenodd;stroke:#2e3436;stroke-width:1.00000024;stroke-linecap:butt;stroke-linejoin:miter;stroke-miterlimit:4;stroke-opacity:1;stroke-dasharray:none;stroke-dashoffset:0;marker:none;visibility:visible;display:inline;overflow:visible"
     d="m 48.582044,55.476771 c 2.822327,0.481113 13.328634,-6.606311 12.905536,-12.392998 -2.172968,3.533772 -6.61445,1.87654 -12.325714,2.108435 0,0 0.549572,9.555378 -0.579822,10.284563 z"
     id="path2210"
     sodipodi:nodetypes="cccc"
     inkscape:connector-curvature="0" /><path
     sodipodi:nodetypes="cccc"
     id="path2247"
     d="m 50.256778,51.545823 c 1.873758,-0.936752 6.057524,-2.940364 7.834984,-5.517083 -2.183342,0.931583 -4.032391,0.286981 -7.800381,0.260829 0,0 0.222044,4.194651 -0.03461,5.256254 z"
     style="opacity:0.36931817;color:#000000;fill:none;stroke:url(#linearGradient8166);stroke-width:0.99999988;stroke-linecap:butt;stroke-linejoin:miter;stroke-miterlimit:4;stroke-opacity:1;stroke-dasharray:none;stroke-dashoffset:0;marker:none;visibility:visible;display:inline;overflow:visible"
     inkscape:connector-curvature="0" /><path
     style="opacity:0.30113639;color:#000000;fill:url(#radialGradient8161);fill-opacity:1;fill-rule:nonzero;stroke:none;stroke-width:1;marker:none;visibility:visible;display:inline;overflow:visible"
     d="m 4.6111633,11.616747 0,30.222613 C 35.151627,43.056294 38.56605,23.945519 59.242778,23.945519 l 0,-12.328772 -54.6316147,0 z"
     id="rect8150"
     sodipodi:nodetypes="ccccc"
     inkscape:connector-curvature="0" /></svg>