<?xml version="1.0" encoding="UTF-8" standalone="no"?>
<!-- Created with Inkscape (http://www.inkscape.org/) -->

<svg
   xmlns:dc="http://purl.org/dc/elements/1.1/"
   xmlns:cc="http://creativecommons.org/ns#"
   xmlns:rdf="http://www.w3.org/1999/02/22-rdf-syntax-ns#"
   xmlns:svg="http://www.w3.org/2000/svg"
   xmlns="http://www.w3.org/2000/svg"
   xmlns:sodipodi="http://sodipodi.sourceforge.net/DTD/sodipodi-0.dtd"
   xmlns:inkscape="http://www.inkscape.org/namespaces/inkscape"
   width="64"
   height="64"
   id="svg2"
   version="1.1"
   inkscape:version="0.91+devel+osxmenu r12922"
   sodipodi:docname="Std_Tool9.svg"
   viewBox="0 0 64 64">
  <defs
     id="defs4" />
  <sodipodi:namedview
     id="base"
     pagecolor="#ffffff"
     bordercolor="#666666"
     borderopacity="1.0"
     inkscape:pageopacity="0.0"
     inkscape:pageshadow="2"
     inkscape:zoom="3.5755447"
     inkscape:cx="126.24472"
     inkscape:cy="11.717369"
     inkscape:document-units="px"
     inkscape:current-layer="layer1"
     showgrid="true"
     inkscape:window-width="2560"
     inkscape:window-height="1329"
     inkscape:window-x="0"
     inkscape:window-y="23"
     inkscape:window-maximized="0"
     inkscape:snap-global="true">
    <inkscape:grid
       type="xygrid"
       id="grid11521"
       empspacing="10"
       dotted="true" />
  </sodipodi:namedview>
  <metadata
     id="metadata7">
    <rdf:RDF>
      <cc:Work
         rdf:about="">
        <dc:format>image/svg+xml</dc:format>
        <dc:type
           rdf:resource="http://purl.org/dc/dcmitype/StillImage" />
        <dc:title></dc:title>
      </cc:Work>
    </rdf:RDF>
  </metadata>
  <g
     inkscape:label="Layer 1"
     inkscape:groupmode="layer"
     id="layer1"
     transform="translate(0,-988.36218)">
    <path
       style="fill:#601512;fill-opacity:1;stroke:#000000;stroke-width:2.5;stroke-linecap:butt;stroke-linejoin:miter;stroke-miterlimit:4;stroke-dasharray:none;stroke-opacity:1"
       d="m -0.17114051,1053.0917 42.23985651,-43.6177 -7.605563,-7.5246 -34.54478013,33.2488"
       id="path4595"
       inkscape:connector-curvature="0"
       sodipodi:nodetypes="cccc" />
    <path
       style="fill:#99b24f;fill-opacity:1;stroke:#000000;stroke-width:2.5;stroke-linecap:square;stroke-linejoin:miter;stroke-miterlimit:4;stroke-dasharray:none;stroke-opacity:1"
       d="m 31.226948,999.60279 c -4.062656,8.00921 -0.825897,17.17061 10.032665,14.96861 1.517547,1.5907 0.657817,3.603 -0.16182,4.9355 l 5.016435,5.2592 11.003793,-11.1657 -4.611884,-4.5309 c -1.277469,0.5945 -4.206202,0.4902 -5.340077,-0.6474 3.303218,-9.96621 -6.354097,-12.62631 -11.570164,-11.97471 l 3.889836,-0.56456 c -6.368067,-3.28618 -15.374973,-5.08111 -21.040144,-2.82929 l -14.5728562,8.58316 15.7856912,-3.24011 c 5.712447,-0.84313 7.494551,-0.29051 11.568525,1.2062 z"
       id="path4597"
       inkscape:connector-curvature="0"
       sodipodi:nodetypes="ccccccccccccc" />
    <path
       style="fill:#99b24f;fill-opacity:1;stroke:#000000;stroke-width:2.5;stroke-linecap:butt;stroke-linejoin:miter;stroke-miterlimit:4;stroke-dasharray:none;stroke-opacity:1"
       d="m 36.16319,996.36659 c -2.026564,0.0478 -3.957711,1.49242 -4.936447,3.2364"
       id="path4599"
       inkscape:connector-curvature="0"
       sodipodi:nodetypes="cc" />
    <path
       style="fill:#99b24f;fill-opacity:1;stroke:#000000;stroke-width:2.5;stroke-linecap:butt;stroke-linejoin:miter;stroke-miterlimit:4;stroke-dasharray:none;stroke-opacity:1"
       d="m 47.327882,1007.9367 c -0.206133,1.5954 -2.446021,5.7142 -5.420986,6.5538"
       id="path4601"
       inkscape:connector-curvature="0"
       sodipodi:nodetypes="cc" />
    <path
       inkscape:connector-curvature="0"
       id="path11548"
       style="font-style:normal;font-variant:normal;font-weight:normal;font-stretch:normal;font-size:medium;line-height:125%;font-family:sans-serif;-inkscape-font-specification:sans-serif;text-align:center;letter-spacing:0px;word-spacing:0px;text-anchor:middle;fill:#000000;fill-opacity:1;stroke:none;stroke-width:0.99999994px;stroke-linecap:butt;stroke-linejoin:miter;stroke-opacity:1"
       d="m 49.18645,1043.9304 q 0.1333,2.4828 1.9162,3.4325 0.91644,0.4999 2.06616,0.4999 2.14948,0 3.66578,-1.7829 1.5163,-1.7996 2.14948,-7.2816 -0.99976,1.583 -2.48273,2.2328 -1.46631,0.6332 -3.1659,0.6332 -3.44916,0 -5.46534,-2.1495 -1.99951,-2.1494 -1.99951,-5.532 0,-3.2492 1.98285,-5.7152 1.98285,-2.4661 5.84858,-2.4661 5.2154,0 7.19825,4.6989 1.09973,2.5827 1.09973,6.4651 0,4.3822 -1.31635,7.7647 -2.1828,5.632 -7.3982,5.632 -3.49915,0 -5.31537,-1.8329 -1.81622,-1.8329 -1.81622,-4.5989 l 3.03259,0 z m 4.54889,-4.8988 q 1.7829,0 3.24921,-1.1664 1.48297,-1.183 1.48297,-4.1156 0,-2.6327 -1.333,-3.9157 -1.31635,-1.2997 -3.36585,-1.2997 -2.19947,0 -3.49915,1.4829 -1.28302,1.4664 -1.28302,3.9324 0,2.3328 1.13306,3.7158 1.13305,1.3663 3.61578,1.3663 z" />
  </g>
</svg>
