<?xml version="1.0" encoding="UTF-8" standalone="no"?>
<!-- Created with Inkscape (http://www.inkscape.org/) -->

<svg
   xmlns:dc="http://purl.org/dc/elements/1.1/"
   xmlns:cc="http://creativecommons.org/ns#"
   xmlns:rdf="http://www.w3.org/1999/02/22-rdf-syntax-ns#"
   xmlns:svg="http://www.w3.org/2000/svg"
   xmlns="http://www.w3.org/2000/svg"
   xmlns:sodipodi="http://sodipodi.sourceforge.net/DTD/sodipodi-0.dtd"
   xmlns:inkscape="http://www.inkscape.org/namespaces/inkscape"
   width="64"
   height="64"
   id="svg2"
   version="1.1"
   inkscape:version="0.91+devel+osxmenu r12922"
   sodipodi:docname="Std_Tool8.svg"
   viewBox="0 0 64 64">
  <defs
     id="defs4" />
  <sodipodi:namedview
     id="base"
     pagecolor="#ffffff"
     bordercolor="#666666"
     borderopacity="1.0"
     inkscape:pageopacity="0.0"
     inkscape:pageshadow="2"
     inkscape:zoom="3.5755447"
     inkscape:cx="126.24472"
     inkscape:cy="11.717369"
     inkscape:document-units="px"
     inkscape:current-layer="layer1"
     showgrid="true"
     inkscape:window-width="2560"
     inkscape:window-height="1329"
     inkscape:window-x="0"
     inkscape:window-y="23"
     inkscape:window-maximized="0"
     inkscape:snap-global="true">
    <inkscape:grid
       type="xygrid"
       id="grid11521"
       empspacing="10"
       dotted="true" />
  </sodipodi:namedview>
  <metadata
     id="metadata7">
    <rdf:RDF>
      <cc:Work
         rdf:about="">
        <dc:format>image/svg+xml</dc:format>
        <dc:type
           rdf:resource="http://purl.org/dc/dcmitype/StillImage" />
        <dc:title></dc:title>
      </cc:Work>
    </rdf:RDF>
  </metadata>
  <g
     inkscape:label="Layer 1"
     inkscape:groupmode="layer"
     id="layer1"
     transform="translate(0,-988.36218)">
    <path
       style="fill:#601512;fill-opacity:1;stroke:#000000;stroke-width:2.5;stroke-linecap:butt;stroke-linejoin:miter;stroke-miterlimit:4;stroke-dasharray:none;stroke-opacity:1"
       d="m -0.17114051,1053.0917 42.23985651,-43.6177 -7.605563,-7.5246 -34.54478013,33.2488"
       id="path4595"
       inkscape:connector-curvature="0"
       sodipodi:nodetypes="cccc" />
    <path
       style="fill:#99b24f;fill-opacity:1;stroke:#000000;stroke-width:2.5;stroke-linecap:square;stroke-linejoin:miter;stroke-miterlimit:4;stroke-dasharray:none;stroke-opacity:1"
       d="m 31.226948,999.60279 c -4.062656,8.00921 -0.825897,17.17061 10.032665,14.96861 1.517547,1.5907 0.657817,3.603 -0.16182,4.9355 l 5.016435,5.2592 11.003793,-11.1657 -4.611884,-4.5309 c -1.277469,0.5945 -4.206202,0.4902 -5.340077,-0.6474 3.303218,-9.96621 -6.354097,-12.62631 -11.570164,-11.97471 l 3.889836,-0.56456 c -6.368067,-3.28618 -15.374973,-5.08111 -21.040144,-2.82929 l -14.5728562,8.58316 15.7856912,-3.24011 c 5.712447,-0.84313 7.494551,-0.29051 11.568525,1.2062 z"
       id="path4597"
       inkscape:connector-curvature="0"
       sodipodi:nodetypes="ccccccccccccc" />
    <path
       style="fill:#99b24f;fill-opacity:1;stroke:#000000;stroke-width:2.5;stroke-linecap:butt;stroke-linejoin:miter;stroke-miterlimit:4;stroke-dasharray:none;stroke-opacity:1"
       d="m 36.16319,996.36659 c -2.026564,0.0478 -3.957711,1.49242 -4.936447,3.2364"
       id="path4599"
       inkscape:connector-curvature="0"
       sodipodi:nodetypes="cc" />
    <path
       style="fill:#99b24f;fill-opacity:1;stroke:#000000;stroke-width:2.5;stroke-linecap:butt;stroke-linejoin:miter;stroke-miterlimit:4;stroke-dasharray:none;stroke-opacity:1"
       d="m 47.327882,1007.9367 c -0.206133,1.5954 -2.446021,5.7142 -5.420986,6.5538"
       id="path4601"
       inkscape:connector-curvature="0"
       sodipodi:nodetypes="cc" />
    <path
       inkscape:connector-curvature="0"
       id="path11546"
       style="font-style:normal;font-variant:normal;font-weight:normal;font-stretch:normal;font-size:medium;line-height:125%;font-family:sans-serif;-inkscape-font-specification:sans-serif;text-align:center;letter-spacing:0px;word-spacing:0px;text-anchor:middle;fill:#000000;fill-opacity:1;stroke:none;stroke-width:0.99999994px;stroke-linecap:butt;stroke-linejoin:miter;stroke-opacity:1"
       d="m 53.78533,1035.8157 q 1.98285,0 3.09924,-1.0997 1.1164,-1.1164 1.1164,-2.6494 0,-1.333 -1.06641,-2.4494 -1.06641,-1.1164 -3.24921,-1.1164 -2.16614,0 -3.13257,1.1164 -0.96643,1.1164 -0.96643,2.616 0,1.683 1.2497,2.6327 1.24969,0.9498 2.94928,0.9498 z m 0.18329,11.8138 q 2.08282,0 3.44916,-1.1164 1.38299,-1.1331 1.38299,-3.3659 0,-2.3161 -1.41632,-3.5158 -1.41632,-1.1997 -3.63245,-1.1997 -2.14947,0 -3.51581,1.2331 -1.34967,1.2163 -1.34967,3.3825 0,1.8662 1.23303,3.2325 1.2497,1.3497 3.84907,1.3497 z m -4.26563,-10.6641 q -1.2497,-0.5332 -1.94953,-1.2497 -1.31634,-1.333 -1.31634,-3.4658 0,-2.666 1.93286,-4.5822 1.93286,-1.9162 5.482,-1.9162 3.4325,0 5.38202,1.8162 1.94953,1.7996 1.94953,4.2156 0,2.2328 -1.13306,3.6158 -0.63318,0.7832 -1.96619,1.533 1.48297,0.6832 2.33277,1.5663 1.58295,1.6662 1.58295,4.3323 0,3.1492 -2.11616,5.3487 -2.11615,2.1828 -5.98187,2.1828 -3.48249,0 -5.89857,-1.8829 -2.39941,-1.8996 -2.39941,-5.4987 0,-2.1161 1.03308,-3.6491 1.03308,-1.5496 3.06592,-2.3661 z" />
  </g>
</svg>
