<?xml version="1.0" encoding="UTF-8" standalone="no"?>
<!-- Created with Inkscape (http://www.inkscape.org/) -->

<svg
   xmlns:dc="http://purl.org/dc/elements/1.1/"
   xmlns:cc="http://creativecommons.org/ns#"
   xmlns:rdf="http://www.w3.org/1999/02/22-rdf-syntax-ns#"
   xmlns:svg="http://www.w3.org/2000/svg"
   xmlns="http://www.w3.org/2000/svg"
   xmlns:sodipodi="http://sodipodi.sourceforge.net/DTD/sodipodi-0.dtd"
   xmlns:inkscape="http://www.inkscape.org/namespaces/inkscape"
   width="64"
   height="64"
   id="svg2"
   version="1.1"
   inkscape:version="0.91+devel+osxmenu r12922"
   sodipodi:docname="Std_Tool12.svg"
   viewBox="0 0 64 64">
  <defs
     id="defs4" />
  <sodipodi:namedview
     id="base"
     pagecolor="#ffffff"
     bordercolor="#666666"
     borderopacity="1.0"
     inkscape:pageopacity="0.0"
     inkscape:pageshadow="2"
     inkscape:zoom="3.5755447"
     inkscape:cx="126.24472"
     inkscape:cy="11.717369"
     inkscape:document-units="px"
     inkscape:current-layer="layer1"
     showgrid="true"
     inkscape:window-width="2560"
     inkscape:window-height="1329"
     inkscape:window-x="0"
     inkscape:window-y="23"
     inkscape:window-maximized="0"
     inkscape:snap-global="true">
    <inkscape:grid
       type="xygrid"
       id="grid11521"
       empspacing="10"
       dotted="true" />
  </sodipodi:namedview>
  <metadata
     id="metadata7">
    <rdf:RDF>
      <cc:Work
         rdf:about="">
        <dc:format>image/svg+xml</dc:format>
        <dc:type
           rdf:resource="http://purl.org/dc/dcmitype/StillImage" />
        <dc:title></dc:title>
      </cc:Work>
    </rdf:RDF>
  </metadata>
  <g
     inkscape:label="Layer 1"
     inkscape:groupmode="layer"
     id="layer1"
     transform="translate(0,-988.36218)">
    <path
       style="font-style:normal;font-variant:normal;font-weight:normal;font-stretch:normal;font-size:medium;line-height:125%;font-family:sans-serif;-inkscape-font-specification:sans-serif;text-align:center;letter-spacing:0px;word-spacing:0px;text-anchor:middle;fill:#000000;fill-opacity:1;stroke:none;stroke-width:0.99999994px;stroke-linecap:butt;stroke-linejoin:miter;stroke-opacity:1"
       d="m 54.11914,1026.4169 c -3.28809,0 -5.58118,1.1563 -6.88086,3.4668 -0.73315,1.3108 -1.11706,3.0048 -1.15039,5.082 l 3.04883,0 c 0.04443,-1.4774 0.2771,-2.6336 0.69922,-3.4667 0.78869,-1.5552 2.21057,-2.3321 4.26562,-2.3321 1.38855,0 2.50085,0.4104 3.33398,1.2324 0.83313,0.811 1.25,1.9123 1.25,3.3008 0,1.1886 -0.4563,2.244 -1.36718,3.166 -0.57764,0.5888 -1.58265,1.2997 -3.01563,2.1329 l -3.19922,1.8496 c -2.14392,1.2442 -3.58777,2.6266 -4.33203,4.1484 -0.73316,1.5219 -1.1565,3.3102 -1.26758,5.3652 l 16.38086,0 0,-2.832 -13.03125,0 c 0.28882,-1.1775 0.98877,-2.2504 2.09961,-3.2168 0.62208,-0.5443 1.47779,-1.1169 2.56641,-1.7168 l 2.2832,-1.2656 c 2.01062,-1.122 3.40405,-2.0766 4.18164,-2.8653 1.34412,-1.3552 2.01563,-2.9897 2.01563,-4.9003 0,-1.8107 -0.63208,-3.4542 -1.89844,-4.9317 -1.25525,-1.4774 -3.24975,-2.2168 -5.98242,-2.2168 z m -18.96289,0.1836 c -0.42212,1.844 -1.06067,3.0158 -1.91602,3.5156 -0.85535,0.4888 -2.36511,0.8398 -4.53125,1.0508 l 0,2.2988 5.61524,0 0,16.8965 3.19922,0 0,-23.7617 -2.36719,0 z"
       id="path11558"
       inkscape:connector-curvature="0" />
    <path
       style="fill:#601512;fill-opacity:1;stroke:#000000;stroke-width:2.5;stroke-linecap:butt;stroke-linejoin:miter;stroke-miterlimit:4;stroke-dasharray:none;stroke-opacity:1"
       d="m -0.17114051,1053.0917 42.23985651,-43.6177 -7.605563,-7.5246 -34.54478013,33.2488"
       id="path4595"
       inkscape:connector-curvature="0"
       sodipodi:nodetypes="cccc" />
    <path
       style="fill:#99b24f;fill-opacity:1;stroke:#000000;stroke-width:2.5;stroke-linecap:square;stroke-linejoin:miter;stroke-miterlimit:4;stroke-dasharray:none;stroke-opacity:1"
       d="m 31.226948,999.60279 c -4.062656,8.00921 -0.825897,17.17061 10.032665,14.96861 1.517547,1.5907 0.657817,3.603 -0.16182,4.9355 l 5.016435,5.2592 11.003793,-11.1657 -4.611884,-4.5309 c -1.277469,0.5945 -4.206202,0.4902 -5.340077,-0.6474 3.303218,-9.96621 -6.354097,-12.62631 -11.570164,-11.97471 l 3.889836,-0.56456 c -6.368067,-3.28618 -15.374973,-5.08111 -21.040144,-2.82929 l -14.5728562,8.58316 15.7856912,-3.24011 c 5.712447,-0.84313 7.494551,-0.29051 11.568525,1.2062 z"
       id="path4597"
       inkscape:connector-curvature="0"
       sodipodi:nodetypes="ccccccccccccc" />
    <path
       style="fill:#99b24f;fill-opacity:1;stroke:#000000;stroke-width:2.5;stroke-linecap:butt;stroke-linejoin:miter;stroke-miterlimit:4;stroke-dasharray:none;stroke-opacity:1"
       d="m 36.16319,996.36659 c -2.026564,0.0478 -3.957711,1.49242 -4.936447,3.2364"
       id="path4599"
       inkscape:connector-curvature="0"
       sodipodi:nodetypes="cc" />
    <path
       style="fill:#99b24f;fill-opacity:1;stroke:#000000;stroke-width:2.5;stroke-linecap:butt;stroke-linejoin:miter;stroke-miterlimit:4;stroke-dasharray:none;stroke-opacity:1"
       d="m 47.327882,1007.9367 c -0.206133,1.5954 -2.446021,5.7142 -5.420986,6.5538"
       id="path4601"
       inkscape:connector-curvature="0"
       sodipodi:nodetypes="cc" />
  </g>
</svg>
