<?xml version="1.0" encoding="UTF-8" standalone="no"?>
<svg
   xmlns:dc="http://purl.org/dc/elements/1.1/"
   xmlns:cc="http://creativecommons.org/ns#"
   xmlns:rdf="http://www.w3.org/1999/02/22-rdf-syntax-ns#"
   xmlns:svg="http://www.w3.org/2000/svg"
   xmlns="http://www.w3.org/2000/svg"
   xmlns:sodipodi="http://sodipodi.sourceforge.net/DTD/sodipodi-0.dtd"
   xmlns:inkscape="http://www.inkscape.org/namespaces/inkscape"
   version="1.1"
   id="svg4198"
   viewBox="0 0 32 32"
   height="32"
   width="32"
   inkscape:version="0.91 r13725"
   sodipodi:docname="TreeDragLink.svg">
  <sodipodi:namedview
     pagecolor="#ffffff"
     bordercolor="#666666"
     borderopacity="1"
     objecttolerance="10"
     gridtolerance="10"
     guidetolerance="10"
     inkscape:pageopacity="0"
     inkscape:pageshadow="2"
     inkscape:window-width="1301"
     inkscape:window-height="744"
     id="namedview4153"
     showgrid="false"
     inkscape:zoom="7.8666667"
     inkscape:cx="12"
     inkscape:cy="9.9152542"
     inkscape:window-x="65"
     inkscape:window-y="24"
     inkscape:window-maximized="1"
     inkscape:current-layer="svg4198" />
  <defs
     id="defs4200" />
  <metadata
     id="metadata4203">
    <rdf:RDF>
      <cc:Work
         rdf:about="">
        <dc:format>image/svg+xml</dc:format>
        <dc:type
           rdf:resource="http://purl.org/dc/dcmitype/StillImage" />
        <dc:title></dc:title>
      </cc:Work>
    </rdf:RDF>
  </metadata>
  <rect
     style="opacity:1;fill:#ffffff;fill-opacity:1;stroke:#000000;stroke-width:1;stroke-linecap:round;stroke-linejoin:miter;stroke-miterlimit:4;stroke-dasharray:none;stroke-dashoffset:63;stroke-opacity:1"
     id="rect4804"
     width="10"
     height="10"
     x="21.5"
     y="21.5" />
  <path
     inkscape:connector-curvature="0"
     style="fill:#000000;fill-opacity:1;fill-rule:evenodd;stroke:#ffffff;stroke-width:1px;stroke-linecap:butt;stroke-linejoin:round;stroke-opacity:1"
     d="M 0.50000004,18.9649 4.1746535,15.5194 5.7314365,20.5 9.7179665,19.0133 7.4892139,14.2033 12.500062,14.7136 0.50000004,0.4998 Z"
     id="path4783" />
  <path
     inkscape:connector-curvature="0"
     style="opacity:1;fill:#000000;fill-opacity:1;stroke:none;stroke-width:3;stroke-miterlimit:4;stroke-dasharray:none;stroke-opacity:1"
     d="m 23.314251,25.851041 c 0.683951,-0.6414 1.821538,-1.1434 3.412591,-1.5058 l -0.09564,-1.0373 c -0.01073,-0.1101 0.05844,-0.2023 0.205946,-0.2747 0.155234,-0.073 0.293051,-0.08 0.413214,-0.018 l 3.173037,1.4873 c 0.07634,0.041 0.120814,0.09 0.127475,0.1577 0.0064,0.069 -0.02513,0.1346 -0.09423,0.198 l -2.798873,2.5662 c -0.06554,0.064 -0.150543,0.1036 -0.255557,0.1231 -0.04694,0.01 -0.09627,0.01 -0.147646,0.01 -0.155474,-0.022 -0.239125,-0.081 -0.248821,-0.193 l -0.09171,-0.9936 c -0.622813,0.1474 -1.136284,0.3113 -1.540945,0.4896 -0.40437,0.1795 -0.722378,0.3847 -0.953943,0.617 -0.539146,0.5401 -0.676414,1.3229 -0.411792,2.3485 0.01355,0.068 -0.02641,0.12 -0.121656,0.1587 -0.01422,0.01 -0.02908,0.01 -0.0524,0.01 -0.07785,0.014 -0.134048,0 -0.169665,-0.038 l -0.131376,-0.137 c -0.0612,-0.063 -0.151074,-0.1691 -0.269254,-0.3156 -0.118408,-0.146 -0.226897,-0.2943 -0.325624,-0.4445 -0.09908,-0.1493 -0.190523,-0.3181 -0.275044,-0.5055 -0.08448,-0.1873 -0.133841,-0.3574 -0.147922,-0.5104 -0.08184,-0.8868 0.18481,-1.6178 0.799822,-2.1931 z"
     id="path4312-3" />
</svg>
