<?xml version="1.0" encoding="UTF-8" standalone="no"?>
<!-- Created with Inkscape (http://www.inkscape.org/) -->

<svg
   width="64px"
   height="64px"
   id="svg3018"
   version="1.1"
   xmlns:xlink="http://www.w3.org/1999/xlink"
   xmlns="http://www.w3.org/2000/svg"
   xmlns:svg="http://www.w3.org/2000/svg"
   xmlns:rdf="http://www.w3.org/1999/02/22-rdf-syntax-ns#"
   xmlns:cc="http://creativecommons.org/ns#"
   xmlns:dc="http://purl.org/dc/elements/1.1/">
  <defs
     id="defs3020">
    <linearGradient
       id="linearGradient3759">
      <stop
         style="stop-color:#c4a000;stop-opacity:1"
         offset="0"
         id="stop3761" />
      <stop
         style="stop-color:#fce94f;stop-opacity:1"
         offset="1"
         id="stop3763" />
    </linearGradient>
    <linearGradient
       xlink:href="#linearGradient3759"
       id="linearGradient3765"
       x1="168.90298"
       y1="171.57141"
       x2="149.60875"
       y2="156.15283"
       gradientUnits="userSpaceOnUse" />
    <linearGradient
       xlink:href="#linearGradient3759"
       id="linearGradient3773"
       gradientUnits="userSpaceOnUse"
       x1="168.90298"
       y1="171.57141"
       x2="161.02531"
       y2="151.80997" />
  </defs>
  <metadata
     id="metadata3023">
    <rdf:RDF>
      <cc:Work
         rdf:about="">
        <dc:format>image/svg+xml</dc:format>
        <dc:type
           rdf:resource="http://purl.org/dc/dcmitype/StillImage" />
      </cc:Work>
    </rdf:RDF>
  </metadata>
  <g
     id="layer1">
    <g
       id="g3861"
       transform="matrix(0.5,-0.8660254,0.8660254,0.5,-193.03669,88.488562)">
      <g
         id="g3767"
         transform="matrix(0.50589136,0.87622953,-0.86694451,0.50053065,224.21274,-56.571442)">
        <path
           style="fill:url(#linearGradient3773);fill-opacity:1;fill-rule:evenodd;stroke:#302b00;stroke-width:3.97453237;stroke-linecap:round;stroke-linejoin:round;stroke-miterlimit:4;stroke-opacity:1;stroke-dasharray:none"
           d="m 132.38632,160.3227 17,29.44487 32.04294,-18.5 6.25833,-15.16026 -7,-12.12435 -16.25833,-2.16026 z"
           id="path3852" />
        <path
           id="path3854"
           style="fill:none;stroke:#302b00;stroke-width:3.97453237;stroke-linecap:round;stroke-linejoin:miter;stroke-miterlimit:4;stroke-opacity:1;stroke-dasharray:none"
           d="m 145.31452,166.71501 19.05256,-11 m -14.05256,19.66025 19.05256,-11" />
        <path
           style="fill:#302b00;fill-opacity:1;fill-rule:evenodd;stroke:#302b00;stroke-width:4.30416775;stroke-linecap:butt;stroke-linejoin:bevel;stroke-miterlimit:4;stroke-opacity:1;stroke-dasharray:none;stroke-dashoffset:0;marker:none;visibility:visible;display:inline;overflow:visible;enable-background:accumulate"
           id="path3859"
           d="m 178.54447,153.97134 c 0,1.19598 -0.96954,2.16552 -2.16552,2.16552 -1.19598,0 -2.16551,-0.96954 -2.16551,-2.16552 0,-1.19598 0.96953,-2.16551 2.16551,-2.16551 1.19598,0 2.16552,0.96953 2.16552,2.16551 z"
           transform="matrix(0.923416,-1.8493317e-6,-1.852795e-6,0.92341381,12.656479,12.866193)" />
        <path
           transform="matrix(0.5,0.86602541,-0.86602541,0.5,173.15169,122.9304)"
           id="path3757"
           d="m 24,8 9.999996,-6e-7 8,9.9999996 0,32 -26,0 0,-32 z"
           style="fill:none;stroke:#fce94f;stroke-width:3.97453237;stroke-linecap:butt;stroke-linejoin:miter;stroke-opacity:1" />
      </g>
    </g>
  </g>
</svg>
