<?xml version="1.0" encoding="UTF-8" standalone="no"?>
<svg
   version="1.1"
   id="svg4198"
   height="64"
   width="64"
   sodipodi:docname="VarSet.svg"
   inkscape:version="1.3.2 (091e20ef0f, 2023-11-25, custom)"
   xmlns:inkscape="http://www.inkscape.org/namespaces/inkscape"
   xmlns:sodipodi="http://sodipodi.sourceforge.net/DTD/sodipodi-0.dtd"
   xmlns:xlink="http://www.w3.org/1999/xlink"
   xmlns="http://www.w3.org/2000/svg"
   xmlns:svg="http://www.w3.org/2000/svg"
   xmlns:rdf="http://www.w3.org/1999/02/22-rdf-syntax-ns#"
   xmlns:cc="http://creativecommons.org/ns#"
   xmlns:dc="http://purl.org/dc/elements/1.1/">
  <sodipodi:namedview
     pagecolor="#ffffff"
     bordercolor="#666666"
     borderopacity="1"
     objecttolerance="10"
     gridtolerance="10"
     guidetolerance="10"
     inkscape:pageopacity="0"
     inkscape:pageshadow="2"
     inkscape:window-width="1920"
     inkscape:window-height="1031"
     id="namedview4578"
     showgrid="true"
     inkscape:zoom="2.8284271"
     inkscape:cx="-0.35355339"
     inkscape:cy="46.669048"
     inkscape:window-x="0"
     inkscape:window-y="0"
     inkscape:window-maximized="1"
     inkscape:current-layer="g12863"
     inkscape:showpageshadow="2"
     inkscape:pagecheckerboard="0"
     inkscape:deskcolor="#d1d1d1">
    <inkscape:grid
       id="grid3"
       units="px"
       originx="0"
       originy="0"
       spacingx="2"
       spacingy="2"
       empcolor="#0099e5"
       empopacity="0.30196078"
       color="#0099e5"
       opacity="0.14901961"
       empspacing="5"
       dotted="false"
       gridanglex="30"
       gridanglez="30"
       visible="true" />
  </sodipodi:namedview>
  <defs
     id="defs4200">
    <linearGradient
       id="linearGradient15218">
      <stop
         id="stop15220"
         offset="0.0000000"
         style="stop-color:#f0f0ef;stop-opacity:1.0000000;" />
      <stop
         style="stop-color:#e8e8e8;stop-opacity:1;"
         offset="0.59928656"
         id="stop2269" />
      <stop
         style="stop-color:#ffffff;stop-opacity:1;"
         offset="0.82758623"
         id="stop2267" />
      <stop
         id="stop15222"
         offset="1.0000000"
         style="stop-color:#d8d8d3;stop-opacity:1.0000000;" />
    </linearGradient>
    <linearGradient
       id="linearGradient2259">
      <stop
         id="stop2261"
         offset="0"
         style="stop-color:#ffffff;stop-opacity:1;" />
      <stop
         id="stop2263"
         offset="1"
         style="stop-color:#ffffff;stop-opacity:0;" />
    </linearGradient>
    <linearGradient
       id="linearGradient2224">
      <stop
         id="stop2226"
         offset="0"
         style="stop-color:#7c7c7c;stop-opacity:1;" />
      <stop
         id="stop2228"
         offset="1"
         style="stop-color:#b8b8b8;stop-opacity:1;" />
    </linearGradient>
    <linearGradient
       gradientTransform="translate(6.161836,4.033411)"
       gradientUnits="userSpaceOnUse"
       y2="37.770721"
       x2="33.664921"
       y1="40.458221"
       x1="35.996582"
       id="linearGradient2230"
       xlink:href="#linearGradient2224" />
    <linearGradient
       id="linearGradient2251">
      <stop
         id="stop2253"
         offset="0"
         style="stop-color:#ffffff;stop-opacity:1;" />
      <stop
         id="stop2255"
         offset="1"
         style="stop-color:#ffffff;stop-opacity:0;" />
    </linearGradient>
    <linearGradient
       gradientTransform="translate(6.161836,3.658411)"
       gradientUnits="userSpaceOnUse"
       y2="38.070381"
       x2="34.170048"
       y1="36.921333"
       x1="33.396004"
       id="linearGradient2257"
       xlink:href="#linearGradient2251" />
    <linearGradient
       y2="42.007351"
       x2="30.811172"
       y1="26.696676"
       x1="26.076092"
       gradientTransform="matrix(0.999421,0,0,1,5.991319,4.033411)"
       gradientUnits="userSpaceOnUse"
       id="linearGradient13651"
       xlink:href="#linearGradient2259" />
    <linearGradient
       y2="39.498238"
       x2="35.785294"
       y1="18.99214"
       x1="22.308331"
       gradientTransform="matrix(1.067236,0,0,0.989276,4.391684,4.035227)"
       gradientUnits="userSpaceOnUse"
       id="linearGradient13653"
       xlink:href="#linearGradient15218" />
  </defs>
  <metadata
     id="metadata4203">
    <rdf:RDF>
      <cc:Work
         rdf:about="">
        <dc:format>image/svg+xml</dc:format>
        <dc:type
           rdf:resource="http://purl.org/dc/dcmitype/StillImage" />
        <dc:date>2005-10-15</dc:date>
        <dc:creator>
          <cc:Agent>
            <dc:title>Andreas Nilsson</dc:title>
          </cc:Agent>
        </dc:creator>
        <dc:subject>
          <rdf:Bag>
            <rdf:li>edit</rdf:li>
            <rdf:li>copy</rdf:li>
          </rdf:Bag>
        </dc:subject>
        <cc:license
           rdf:resource="http://creativecommons.org/licenses/by-sa/2.0/" />
        <dc:contributor>
          <cc:Agent>
            <dc:title>Jakub Steiner</dc:title>
          </cc:Agent>
        </dc:contributor>
      </cc:Work>
      <cc:License
         rdf:about="http://creativecommons.org/licenses/by-sa/2.0/">
        <cc:permits
           rdf:resource="http://web.resource.org/cc/Reproduction" />
        <cc:permits
           rdf:resource="http://web.resource.org/cc/Distribution" />
        <cc:requires
           rdf:resource="http://web.resource.org/cc/Notice" />
        <cc:requires
           rdf:resource="http://web.resource.org/cc/Attribution" />
        <cc:permits
           rdf:resource="http://web.resource.org/cc/DerivativeWorks" />
        <cc:requires
           rdf:resource="http://web.resource.org/cc/ShareAlike" />
      </cc:License>
    </rdf:RDF>
  </metadata>
  <g
     id="layer1">
    <g
       transform="matrix(1.1249531,0,0,1.1249531,-9.7587421,-8.0938643)"
       id="g12863">
      <g
         id="g3">
        <g
           id="path1">
          <path
             style="color:#000000;-inkscape-font-specification:'Latin Modern Mono';fill:#2e3436;stroke-linecap:round;-inkscape-stroke:none;paint-order:markers stroke fill"
             d="m 44.904297,11.738281 c -0.854526,-0.01652 -2.011504,0.02136 -3.367188,0.833985 -1.355683,0.812622 -2.523437,2.808615 -2.523437,4.61914 0,2.101331 1.674838,3.84977 2.8125,4.408203 1.137662,0.558434 1.665884,0.628907 2.626953,0.628907 h 0.04102 0.03906 c 0.489855,-0.01093 0.312432,-0.02748 0.285156,-0.03516 v 9.111328 c 0,0.709512 0.08365,1.663977 0.736328,3.091797 0.18144,0.396921 0.537139,0.824473 0.820313,1.244141 -0.283174,0.419668 -0.638873,0.84722 -0.820313,1.244141 -0.652681,1.427819 -0.736328,2.382282 -0.736328,3.091796 v 9.111329 c 0.02727,-0.0077 0.2047,-0.02423 -0.285156,-0.03516 h -0.03906 -0.04102 c -0.961066,0 -1.48929,0.07047 -2.626953,0.628907 -1.137663,0.558433 -2.8125,2.306872 -2.8125,4.408203 0,1.810525 1.167756,3.80652 2.523437,4.61914 1.355682,0.812621 2.512673,0.8505 3.367188,0.833985 0.765073,-0.01478 2.796318,-0.07051 5.095703,-1.080078 2.290144,-1.005507 4.979527,-3.486362 5.478516,-7.169922 0.104934,-0.67578 0.06454,-0.711778 0.07227,-1.035157 0.0083,-0.349614 0.01212,-0.766462 0.01563,-1.21875 0.007,-0.904575 0.0078,-1.940131 0.0078,-2.679687 v -4.748047 c 0,-0.452734 -0.01618,-0.31676 0,-0.476562 0.418109,-0.111436 0.676781,-0.160157 1.291015,-0.160157 1.101115,0 2.726967,-0.346376 3.847657,-1.585937 1.12069,-1.239561 1.296875,-2.66616 1.296875,-3.748047 0,-1.081887 -0.176186,-2.508486 -1.296875,-3.748047 -1.12069,-1.239561 -2.746541,-1.585937 -3.847657,-1.585937 -0.614234,0 -0.872905,-0.04872 -1.291015,-0.160157 -0.01618,-0.159802 0,-0.02383 0,-0.476562 v -4.748047 c 0,-0.739539 -8e-4,-1.775106 -0.0078,-2.679688 -0.0035,-0.45229 -0.0073,-0.871074 -0.01563,-1.220703 -0.0077,-0.323345 0.03268,-0.357496 -0.07227,-1.033203 C 54.979527,16.304721 52.290144,13.823866 50,12.818359 47.700615,11.808795 45.66937,11.753065 44.904297,11.738281 Z M 44.375,15.117188 h 0.07813 c 0.452656,0 0.341666,0.03236 0.355469,0.06836 -0.15003,-0.004 -0.282644,-0.07173 -0.433594,-0.06836 z m 0.490234,40.966796 c -0.06473,0.06387 0.112866,0.08008 -0.412109,0.08008 l -0.07813,-0.002 c 0.170713,0.0038 0.320735,-0.07256 0.490234,-0.07813 z"
             id="path2" />
          <path
             style="color:#000000;-inkscape-font-specification:'Latin Modern Mono';fill:#ffffff;stroke-linecap:round;-inkscape-stroke:none;paint-order:markers stroke fill"
             d="m 44.83603,15.292406 c -0.897487,-0.01735 -2.267456,0.263607 -2.267456,1.899385 0,1.26641 1.568678,1.480964 1.885495,1.480964 2.960829,-0.06605 3.920303,1.709477 3.920303,3.239718 v 9.392753 c 0,0.209247 0.10679,2.647961 2.989708,4.33525 -2.882918,1.68729 -2.989708,4.126004 -2.989708,4.33525 v 9.392753 c 0,1.530242 -0.959474,3.305766 -3.920303,3.239719 -0.316817,0 -1.885495,0.214553 -1.885495,1.480964 0,1.635777 1.369969,1.916731 2.267456,1.899385 1.086773,-0.021 6.494556,-0.328881 7.128769,-5.196397 0.0528,-0.316603 0.05382,-2.955 0.05382,-4.432477 v -4.748462 c 0,-1.899613 0.08593,-3.155195 2.138978,-3.816131 1.137954,-0.375942 1.946855,-0.376752 2.70671,-0.376752 1.110931,0 1.590344,-0.511443 1.590344,-1.777852 0,-1.266408 -0.479413,-1.777852 -1.590344,-1.777852 -0.759855,0 -1.568756,-8.1e-4 -2.70671,-0.376751 -2.053043,-0.660937 -2.138978,-1.916519 -2.138978,-3.816132 v -4.748462 c 0,-1.477476 -10e-4,-4.115873 -0.05382,-4.432476 -0.634213,-4.867516 -6.041996,-5.175397 -7.128769,-5.196397 z"
             id="path3" />
        </g>
        <g
           id="g2">
          <g
             id="path1-7">
            <path
               style="color:#000000;-inkscape-font-specification:'Latin Modern Mono';fill:#2e3436;stroke-linecap:round;-inkscape-stroke:none;paint-order:markers stroke fill"
               d="m 29.335937,11.738281 c -0.765073,0.01478 -2.794365,0.07051 -5.09375,1.080078 -2.2884,1.004742 -4.976565,3.483188 -5.478515,7.16211 -0.108307,0.692017 -0.06449,0.715237 -0.07227,1.041015 -0.0083,0.349629 -0.01407,0.768413 -0.01758,1.220703 -0.007,0.904582 -0.0078,1.940149 -0.0078,2.679688 v 4.748047 c 0,0.452732 0.01618,0.31676 0,0.476562 -0.416926,0.110896 -0.675743,0.160157 -1.289063,0.160157 -1.101116,0 -2.72892,0.346376 -3.849609,1.585937 -1.120689,1.239561 -1.296875,2.66616 -1.296875,3.748047 0,1.081887 0.176185,2.508486 1.296875,3.748047 1.12069,1.239561 2.748494,1.585937 3.849609,1.585937 0.61332,0 0.872138,0.04926 1.289063,0.160157 0.01618,0.159802 0,0.02383 0,0.476562 v 4.748047 c 0,0.739556 7.96e-4,1.775112 0.0078,2.679687 0.0035,0.452288 0.0092,0.869136 0.01758,1.21875 0.0078,0.325808 -0.03602,0.35091 0.07227,1.042969 0.50195,3.678922 3.190115,6.157368 5.478515,7.16211 2.299385,1.009564 4.328677,1.065294 5.09375,1.080078 0.854515,0.01651 2.011506,-0.02136 3.367188,-0.833985 1.355682,-0.81262 2.525391,-2.808615 2.525391,-4.61914 0,-2.101331 -1.674838,-3.84977 -2.8125,-4.408203 -1.137663,-0.558434 -1.667841,-0.628907 -2.628907,-0.628907 h -0.03906 -0.04102 c -0.491991,0.01098 -0.313718,0.02697 -0.285156,0.03516 v -9.111329 c 0,-0.709514 -0.08169,-1.663977 -0.734375,-3.091796 -0.181367,-0.396762 -0.537294,-0.824644 -0.820313,-1.244141 0.283019,-0.419497 0.638946,-0.847379 0.820313,-1.244141 0.652682,-1.42782 0.734375,-2.382285 0.734375,-3.091797 v -9.111328 c -0.02856,0.0082 -0.206834,0.02418 0.285156,0.03516 h 0.04102 0.03906 c 0.96107,0 1.491244,-0.07047 2.628907,-0.628907 1.137662,-0.558433 2.8125,-2.306872 2.8125,-4.408203 0,-1.810525 -1.169708,-3.806518 -2.525391,-4.61914 -1.355683,-0.812623 -2.512661,-0.850504 -3.367188,-0.833985 z m 0.451172,3.378907 h 0.07813 c -0.150949,-0.0034 -0.283564,0.06439 -0.433593,0.06836 0.0138,-0.036 -0.09719,-0.06836 0.355468,-0.06836 z M 29.375,56.083984 c 0.1695,0.0056 0.319521,0.08193 0.490234,0.07813 l -0.07813,0.002 c -0.524974,0 -0.347373,-0.01621 -0.412109,-0.08008 z"
               id="path4" />
            <path
               style="color:#000000;-inkscape-font-specification:'Latin Modern Mono';fill:#ffffff;stroke-linecap:round;-inkscape-stroke:none;paint-order:markers stroke fill"
               d="m 29.404828,15.292406 c 0.897487,-0.01735 2.267456,0.263607 2.267456,1.899385 0,1.26641 -1.568678,1.480964 -1.885495,1.480964 -2.960829,-0.06605 -3.920303,1.709477 -3.920303,3.239718 v 9.392753 c 0,0.209247 -0.10679,2.647961 -2.989708,4.33525 2.882918,1.68729 2.989708,4.126004 2.989708,4.33525 v 9.392753 c 0,1.530242 0.959474,3.305766 3.920303,3.239719 0.316817,0 1.885495,0.214553 1.885495,1.480964 0,1.635777 -1.369969,1.916731 -2.267456,1.899385 -1.086773,-0.021 -6.494556,-0.328881 -7.128769,-5.196397 -0.0528,-0.316603 -0.05382,-2.955 -0.05382,-4.432477 v -4.748462 c 0,-1.899613 -0.08593,-3.155195 -2.138978,-3.816131 -1.137954,-0.375942 -1.946855,-0.376752 -2.70671,-0.376752 -1.110931,0 -1.590344,-0.511443 -1.590344,-1.777852 0,-1.266408 0.479413,-1.777852 1.590344,-1.777852 0.759855,0 1.568756,-8.1e-4 2.70671,-0.376751 2.053043,-0.660937 2.138978,-1.916519 2.138978,-3.816132 v -4.748462 c 0,-1.477476 0.001,-4.115873 0.05382,-4.432476 0.634213,-4.867516 6.041996,-5.175397 7.128769,-5.196397 z"
               id="path5" />
          </g>
        </g>
      </g>
      <text
         xml:space="preserve"
         style="font-size:11.8523px;line-height:1.21;font-family:'Latin Modern Roman';-inkscape-font-specification:'Latin Modern Roman, ';letter-spacing:0.0800033px;stroke-width:0.888926"
         x="26.542322"
         y="0.86381811"
         id="text2"><tspan
           sodipodi:role="line"
           id="tspan2"
           style="fill:#cccccc;stroke-width:0.888926"
           x="26.542322"
           y="0.86381811" /></text>
    </g>
  </g>
</svg>
