<?xml version="1.0" encoding="UTF-8"?>
<svg width="210mm" height="297mm" version="1.1" viewBox="0 0 210 297" xmlns="http://www.w3.org/2000/svg" xmlns:freecad="http://www.freecad.org/wiki/index.php?title=Svg_Namespace">
 <g id="orienation-border" fill="none" stroke="#000" stroke-linecap="miter" stroke-width=".25">
  <path d="m21 1h188"/>
  <!--  Top Line OutSide -->
  <path d="m21 1v295"/>
  <!--  Left Line OutSide -->
  <path d="m209 1v295"/>
  <!--  Right Line OutSide -->
  <path d="m21 296h188"/>
  <!--  Left-Part-Bottom Line OutSide -->
  <!-- orientation separators top -->
  <path d="m68 1v4"/>
  <!-- The space length is: 47 -->
  <path d="m115 1v4"/>
  <!-- The space length is: 47 -->
  <path d="m162 1v4"/>
  <!-- The space length is: 47 -->
  <!-- orientation separators left -->
  <path d="m21 50.167h4"/>
  <!-- The space length is: 49.1667 -->
  <path d="m21 99.333h4"/>
  <!-- The space length is: 49.1667 -->
  <path d="m21 148.5h4"/>
  <!-- The space length is: 49.1667 -->
  <path d="m21 197.67h4"/>
  <!-- The space length is: 49.1667 -->
  <path d="m21 246.83h4"/>
  <!-- The space length is: 49.1667 -->
  <!-- orientation separators right -->
  <path d="m205 50.167h4"/>
  <!-- The space length is: 49.1667 -->
  <path d="m205 99.333h4"/>
  <!-- The space length is: 49.1667 -->
  <path d="m205 148.5h4"/>
  <!-- The space length is: 49.1667 -->
  <path d="m205 197.67h4"/>
  <!-- The space length is: 49.1667 -->
  <path d="m205 246.83h4"/>
  <!-- The space length is: 49.1667 -->
  <!-- orientation separators bottom -->
  <path d="m68 292v4"/>
  <!-- The space length is: 47 -->
  <path d="m115 292v4"/>
  <!-- The space length is: 47 -->
  <path d="m162 292v4"/>
  <!-- The space length is: 47 -->
 </g>
 <g id="orientation-text" font-family="tahoma" font-size="3.5" xml:space="preserve">
 	
  <!-- orientation char top -->
        <text x="44" y="4.25">1</text>
        <text x="90" y="4.25">2</text>
        <text x="137" y="4.25">3</text>
        <text x="184" y="4.25">4</text>
	
  <!-- orientation char left -->
        <text x="21.825" y="26">A</text>
        <text x="21.825" y="75">B</text>
        <text x="21.825" y="124">C</text>
        <text x="21.825" y="173">D</text>
        <text x="21.825" y="222">E</text>
        <text x="21.825" y="271">F</text>
	
  <!-- orientation char right -->
        <text x="205.75" y="26">A</text>
        <text x="205.75" y="75">B</text>
        <text x="205.75" y="124">C</text>
        <text x="205.75" y="173">D</text>
        <text x="205.75" y="222">E</text>
        <text x="205.75" y="271">F</text>
	
  <!-- orientation char bottom --> 
        <text x="44" y="295.25">1</text>
        <text x="90" y="295.25">2</text>
        <text x="137" y="295.25">3</text>
        <text x="184" y="295.25">4</text>

	</g>
 <g id="drawing-border" fill="none" stroke="#000" stroke-linecap="miter" stroke-width=".5">
  <rect x="25" y="5" width="180" height="287"/>
 </g>
 <g id="center-line" stroke="#000" stroke-width=".5">
  <line x1="115" x2="115" y1="1" y2="10"/>
  <!-- Top center line -->
  <line x1="21" x2="30" y1="148.5" y2="148.5"/>
  <!-- Left center line -->
  <line x1="200" x2="209" y1="148.5" y2="148.5"/>
  <!-- Right center line -->
 </g>
 <g id="cut-marker" stroke="#000" stroke-width="2">
  <line x2="10"/>
  <line y2="10"/>
  <line x1="200" x2="210"/>
  <line x1="210" x2="210" y2="10"/>
  <line y1="287" y2="297"/>
  <line x2="10" y1="297" y2="297"/>
  <line x1="210" x2="210" y1="287" y2="297"/>
  <line x1="200" x2="210" y1="297" y2="297"/>
 </g>
 <g id="titleblock-structure" fill="none" stroke="#000" stroke-linecap="miter" stroke-width=".5">
  <rect x="25" y="236" width="180" height="56"/>
  <path d="m25 243h80"/>
  <!-- left up 1st horizon line  Titleblock -->
  <path d="m25 250h80"/>
  <!-- left up 2nd horizon line  Titleblock -->
  <path d="m25 257h80"/>
  <!-- left up 3rd horizon line  Titleblock -->
  <path d="m25 264h130"/>
  <!-- left up 4th horizon line  Titleblock -->
  <path d="m25 271h80"/>
  <!-- left up 5th horizon line  Titleblock -->
  <path d="m25 278h80"/>
  <!-- left up 6th horizon line  Titleblock -->
  <path d="m25 285h80"/>
  <!-- left up 7th horizon line  Titleblock -->
  <path d="m35 236v28"/>
  <!-- left up 1st vertical line  Titleblock -->
  <path d="m45 236v28"/>
  <!-- left up 2nd vertical line  Titleblock -->
  <path d="m61 236v28"/>
  <!-- left up 3th vertical line  Titleblock -->
  <path d="m77 236v56"/>
  <!-- left up 4th vertical line  Titleblock -->
  <path d="m89 236v56"/>
  <!-- left up 5th vertical line  Titleblock -->
  <path d="m105 236v56"/>
  <!-- left up 6th vertical line  Titleblock -->
  <path d="m155 236v56"/>
  <!-- left up 7th vertical line  Titleblock -->
  <path d="m37 264v28"/>
  <!-- left down 1st vertical line  Titleblock -->
  <path d="m49 264v28"/>
  <!-- left down 2nd vertical line  Titleblock -->
  <path d="m65 264v28"/>
  <!-- left down 3rd vertical line  Titleblock -->
  <path d="m105 274h50"/>
  <!-- middle up 2nd horizon line  Titleblock -->
  <path d="m105 283h50"/>
  <!-- middle up 3rd horizon line  Titleblock -->
  <path d="m155 251h50"/>
  <!-- right up 1st horizon line  Titleblock -->
  <path d="m155 272h50"/>
  <!-- right up 2nd horizon line  Titleblock -->
  <path d="m111.5 274v9"/>
  <!-- middle down 1st vertical line  Titleblock -->
  <path d="m118 274v9"/>
  <!-- middle down 2nd vertical line  Titleblock -->
  <path d="m124.5 274v9"/>
  <!-- middle down 3rd vertical line  Titleblock -->
  <path d="m131 264v19"/>
  <!-- middle down 4th vertical line  Titleblock -->
  <path d="m143 264v19"/>
  <!-- middle down 5th vertical line  Titleblock -->
 </g>
 <g id="titleblock-text-non-editable" font-family="HYSWLongFangSong" font-size="5" style="strock:black" xml:space="preserve">
        <text x="26.5" y="262">标记</text>
        <text x="36.5" y="262">处数</text>
        <text x="49" y="262">分区</text>
        <text x="61.25" y="262">更</text>
        <text x="64.25" y="262">改</text>
        <text x="67.15" y="262">文</text>
        <text x="70.25" y="262">件</text>
        <text x="73.25" y="262">号</text>
        <text x="79.5" y="262">签名</text>
        <text x="90" y="262">(年月日)</text>
        
  <!-- -->
         <text x="27" y="269">设计</text>
         <text x="38" y="269">(签名)</text>
         <text x="50" y="269">(年月日)</text>
        
  <!-- -->
         <text x="66" y="269">标准化</text>
         <text x="78" y="269">(签名)</text>
         <text x="90" y="269">(年月日)</text>
        
  <!-- -->
        <text x="110" y="270">阶段标记</text>
        <text x="133" y="270">重量</text>
        <text x="145" y="270">比例</text>
        <text x="27" y="283">审核</text>
        <text x="67.5" y="283">制图</text>
        <text x="27" y="290">工艺</text>
        <text x="67.5" y="290">批准</text>
        <text x="106" y="289">共</text>
        <text x="126" y="289">张</text>
        <text x="130" y="289">第</text>
        <text x="150" y="289">张</text>
        
  <!-- ll -->
        <text x="156" y="291" font-size="10">A4</text>
        <text x="167.5" y="285.5" font-size="1.8">模板版本:0.0.2</text>
        <text x="167.5" y="288" font-size="1.8">模板设计:李峰</text>
        <text x="167.5" y="290.5" font-size="1.8">felix@95839.com</text>
        
  <!-- -->
        <text x="123" y="241">材料牌号</text>
        </g>
 <g id="project mark" stroke="#000" stroke-width=".5">
  <!-- project mark begin -->
  <line x1="182" x2="192" y1="286.5" y2="286.5" stroke-dasharray="2.75,0.25,0.25,0.25,2.75,0.25,0.25,0.25"/>
  <line x1="194" x2="204" y1="286.5" y2="286.5" stroke-dasharray="2.5,0.25,0.5,0.25,3,0.25,0.5,0.25"/>
  <line x1="199" x2="199" y1="282" y2="291" stroke-dasharray="2,0.25,0.5,0.25,3,0.25,0.5,0.25"/>
  <g fill="none">
   <polygon points="183 284.5 191 282.5 191 290.5 183 288.5"/>
   <circle cx="199" cy="286.5" r="2"/>
   <circle cx="199" cy="286.5" r="4"/>
  </g>
  <!-- project mark end -->
 </g>
 <g id="binding hole">
  <g fill="#bbb" stroke="#666" stroke-width=".5">
   <circle cx="10" cy="27.5" r="3"/>
   <circle cx="10" cy="65.5" r="3"/>
   <circle cx="10" cy="148.5" r="3"/>
   <circle cx="10" cy="231.5" r="3"/>
   <circle cx="10" cy="269.5" r="3"/>
   <line x1="10" x2="10" y1="38" y2="48"/>
   <line x1="10" x2="10" y1="247" y2="257"/>
   <text x="7.5" y="85" font-size="5">装</text>
   <text x="7.5" y="128" font-size="5">订</text>
   <line x1="5" x2="15" y1="148.5" y2="148.5"/>
   <line x1="10" x2="10" y1="153.5" y2="143.5"/>
  </g>
 </g>
 <g id="titleblock-text-editable" font-family="HYSWLongFangSong" font-size="5" text-align="center" style="strock:black" xml:space="preserve">
         <text x="19" y="275.5" freecad:editable="AUTHOR_NAME"><tspan dx="19" dy="275.5" text-anchor="left">设计人</tspan></text>
         <text x="70.5" y="283" fill="#000000" font-size="5" text-align="center" freecad:editable="DRAWING_NAME"><tspan>制图人</tspan></text>
         <text x="30.5" y="283" fill="#000000" font-size="5" text-align="center" freecad:editable="CHECKED_NAME"><tspan>审核人</tspan></text>
         <text x="70.5" y="290" fill="#000000" font-size="5" text-align="center" freecad:editable="APPROVER_NAME"><tspan>批准人</tspan></text>
         <text x="30.5" y="290" fill="#000000" font-size="5" text-align="center" freecad:editable="CRAFTS_NAME"><tspan>评审人</tspan></text>
         <text x="103" y="289" fill="#000000" font-size="5" text-align="center" freecad:editable="TOTAL_SHEETS"><tspan> 99 </tspan></text>
         <text x="127" y="289" fill="#000000" font-size="5" text-align="center" freecad:editable="OF_SHEET"><tspan> 1 </tspan></text>
	
  <!-- -->
         <text x="137" y="280" fill="#000000" font-size="5" text-align="center" freecad:editable="SCALE"><tspan>M x:x</tspan></text>
         <text x="101" y="280" fill="#000000" font-size="5" text-align="center" freecad:editable="STAGE-S"><tspan/></text>
         <text x="107" y="280" fill="#000000" font-size="5" text-align="center" freecad:editable="STAGE-A"><tspan/></text>
         <text x="113.5" y="280" fill="#000000" font-size="5" text-align="center" freecad:editable="STAGE-B"><tspan/></text>
         <text x="119.5" y="280" fill="#000000" font-size="5" text-align="center" freecad:editable="STAGE-C"><tspan/></text>
         <text x="125" y="280" fill="#000000" font-size="5" text-align="center" freecad:editable="WEIGHT"><tspan>重量</tspan></text>
	
  <!-- -->
         <text x="45" y="275.5" fill="#000000" font-size="3.5" text-align="center" freecad:editable="DATE-1"><tspan>YYYY-MM-DD</tspan></text>
         <text x="85" y="282.5" fill="#000000" font-size="3.5" text-align="center" freecad:editable="DATE-2"><tspan>YYYY-MM-DD</tspan></text>
	
  <!-- -->
         <text x="148.5" y="240" fill="#000000" font-size="5" text-align="center" freecad:editable="COMPANYNAME"><tspan>(单位名称/单位代号)</tspan></text>
         <text x="148.5" y="245" fill="#000000" font-size="5" text-align="center" freecad:editable="COMPANYADDR"><tspan>(单位地址)</tspan></text>
         <text x="148.5" y="250" fill="#000000" font-size="5" text-align="center" freecad:editable="COMPANYPHONE"><tspan>(单位电话/电邮)</tspan></text>
	
  <!-- -->
         <text x="128" y="255" font-size="10" text-anchor="middle" freecad:editable="MATERIALMARK"><tspan>(材料标记)</tspan></text>
         <text x="148.5" y="255.5" fill="#000000" font-size="5" text-align="center" freecad:editable="PROJECT_TITLE"><tspan>(项目标题)</tspan></text>
	
  <!-- -->
         <text x="148.5" y="260.5" fill="#000000" font-size="5" text-align="center" freecad:editable="SUBTITLE"><tspan>(子项目标题)</tspan></text>
         <text x="148.5" y="265.5" fill="#000000" font-size="5" text-align="center" freecad:editable="PARTNAME"><tspan>(零件名称)</tspan></text>
         <text x="148.5" y="270.5" fill="#000000" font-size="5" text-align="center" freecad:editable="VERSION"><tspan>(版本号)</tspan></text>
         <text x="180" y="279" fill="#000000" font-size="5" text-align="center" text-anchor="middle" freecad:editable="PART_CODE_NAME"><tspan>(图样代号)</tspan></text>
        </g>
</svg>
