<!--
category: System
tags: [settings, verify, confirm, approve, validate, tick, accept, okay, affirm, correct]
version: "2.10"
unicode: "f7fd"
-->
<svg
  xmlns="http://www.w3.org/2000/svg"
  width="24"
  height="24"
  viewBox="0 0 24 24"
  fill="none"
  stroke="currentColor"
  stroke-width="2"
  stroke-linecap="round"
  stroke-linejoin="round"
>
  <path d="M4 10a2 2 0 1 0 4 0a2 2 0 0 0 -4 0" />
  <path d="M6 4v4" />
  <path d="M6 12v8" />
  <path d="M13.823 15.176a2 2 0 1 0 -2.638 2.651" />
  <path d="M12 4v10" />
  <path d="M16 7a2 2 0 1 0 4 0a2 2 0 0 0 -4 0" />
  <path d="M18 4v1" />
  <path d="M18 9v5" />
  <path d="M15 19l2 2l4 -4" />
</svg>
