<?xml version="1.0" encoding="UTF-8" standalone="no"?>
<!-- Created with Inkscape (http://www.inkscape.org/) -->
<svg id="svg4199" xmlns:rdf="http://www.w3.org/1999/02/22-rdf-syntax-ns#" xmlns="http://www.w3.org/2000/svg" height="64" viewBox="0 0 64 64.000001" width="64" version="1.1" xmlns:cc="http://creativecommons.org/ns#" xmlns:dc="http://purl.org/dc/elements/1.1/">
 <metadata id="metadata4204">
  <rdf:RDF>
   <cc:Work rdf:about="">
    <dc:format>image/svg+xml</dc:format>
    <dc:type rdf:resource="http://purl.org/dc/dcmitype/StillImage"/>
    <dc:title/>
   </cc:Work>
  </rdf:RDF>
 </metadata>
 <g id="g4287">
  <rect id="rect4151" style="color:#000000" fill-rule="evenodd" ry="10" height="56" width="56" y="4" x="4" fill="#eeeeec"/>
  <g id="g4173" stroke="#2e3436">
   <g id="g8688-7-6" transform="matrix(.81244 0 0 .81244 34.288 -796.58)" stroke-linecap="round" stroke-width="1.3" fill="none">
    <path id="path5826-5-0" d="m-4.003 998.36h6"/>
    <path id="path5828-6-6" d="m-1.003 995.36v6.0001"/>
   </g>
   <g stroke-width="0.6" fill="#2e3436">
    <path id="path4780" d="m7.3 12.178q0-0.76172 0.52734-1.3037 0.52734-0.54688 1.2744-0.54688 1.0352 0 1.8799 0.31738 0.35156 0.13184 0.35156 0.40527 0 0.33691-0.33691 0.33691-0.1416 0-0.44434-0.11719-0.62988-0.24414-1.3428-0.24414-0.64453 0-0.98145 0.45898-0.20508 0.27832-0.20508 0.73242 0 0.62012 0.75684 1.0059l1.7822 0.90332q1.1572 0.5957 1.1572 1.7285 0 0.84961-0.60547 1.3721-0.547 0.473-1.314 0.473-1.1621 0-2.2266-0.698-0.2734-0.181-0.2734-0.401 0-0.33691 0.36133-0.33691 0.13184 0 0.35156 0.15625 0.77148 0.55176 1.8506 0.55176 0.31738 0 0.57129-0.13184 0.56152-0.29297 0.56152-1.0107 0-0.67871-0.7373-1.0498l-1.919-0.972q-1.04-0.527-1.04-1.63z"/>
    <path id="path4782" d="m17.05 13.989h-3.0322v3.335q0 0.376-0.362 0.376-0.356 0-0.356-0.371v-6.5869q0-0.41504 0.35645-0.41504 0.36133 0 0.36133 0.41504v2.5439h3.0322v-2.5732q0-0.36621 0.34668-0.36621t0.34668 0.36133v6.6016q0 0.39-0.346 0.39-0.347 0-0.347-0.381v-3.3301z"/>
    <path id="path4784" d="m20.042 17.231q0 0.469-0.371 0.469t-0.371-0.459v-6.4746q0-0.43945 0.37109-0.43945t0.37109 0.4541v6.4502z"/>
    <path id="path4786" d="m22.023 13.994v3.3057q0 0.4-0.367 0.4-0.356 0-0.356-0.405 0 0 0-6.6309 0-0.3418 0.38086-0.3418 0 0 2.9102 0 0.38574 0 0.38574 0.35156t-0.38086 0.35156h-2.5684v2.2559h2.5684q0.38086 0 0.38086 0.35645 0 0.35644-0.38574 0.35644h-2.5684z"/>
    <path id="path4788" d="m26.3 10.639q0-0.33691 0.42969-0.33691h3.6182q0.35156 0 0.35156 0.35156 0 0.35644-0.3418 0.35644h-1.499v6.3037q0 0.38574-0.35644 0.38574t-0.35644-0.37598v-6.3135h-1.4258q-0.42 0.001-0.42-0.371z"/>
    <path id="path4792" d="m39.107 10.317t1.4941 0q0.36133 0 0.36133 0.36621 0 0.37109-0.39062 0.37109h-1.4697q-0.41016 0-0.7959 0.35644-0.29297 0.27344-0.29297 0.73242v3.7305q0 0.45898 0.30762 0.79102 0.32227 0.3418 0.66895 0.3418h1.6406q0.35156 0 0.35156 0.35644 0 0.33692-0.35644 0.33692h-1.665q-0.67383 0-1.2598-0.64942-0.401-0.445-0.401-1.138v-3.8232q0-0.73242 0.57617-1.2744 0.52734-0.49805 1.2305-0.49805z"/>
    <path id="path4794" d="m42.3 10.639q0-0.33691 0.42969-0.33691h3.6182q0.35156 0 0.35156 0.35156 0 0.35644-0.3418 0.35644h-1.499v6.3037q0 0.38574-0.35644 0.38574t-0.35644-0.37598v-6.3135h-1.4258q-0.42 0.001-0.42-0.371z"/>
    <path id="path4796" d="m49.018 14.033t1.5967 0q0.50781 0 1.0156-0.4834 0.39551-0.37598 0.39551-1.0596 0-0.51758-0.42969-0.96191-0.4541-0.47363-0.98633-0.47363h-1.5918v2.9785zm-0.33691-3.6768h1.9287q0.89356 0 1.626 0.80078 0.4834 0.52734 0.4834 1.2061 0 0.6543-0.24414 1.2305-0.26856 0.62988-1.1084 0.98144l1.2744 2.5049q0.07324 0.15137 0.07324 0.24902 0.000002 0.37109-0.36133 0.37109-0.19043 0-0.32715-0.27832l-1.3672-2.6709h-1.6553v2.5635q-0.001 0.385-0.357 0.385-0.347 0-0.347-0.391v-6.5771q0-0.37598 0.38086-0.37598z"/>
    <path id="path4798" d="m55.008 10.703v6.2891h2.5439q0.44434 0 0.44434 0.35644 0 0.35156-0.45898 0.35156h-2.8906q-0.346 0-0.346-0.435v-6.5625q0-0.37598 0.35156-0.37598 0.35644 0 0.35644 0.37598z"/>
   </g>
  </g>
 </g>
 <g stroke="#2e3436">
  <path id="path4144" d="m17.091 26.94v25.454c0 2.9091 0 2.9091 14.545 2.9091 15.273 0 15.273 0 15.273-2.9091v-25.454c0-2.1819 0-2.1819-15.273-2.1819-14.545 0-14.545 0-14.545 2.1819z" fill-rule="evenodd" stroke-width="1.4545" fill="#fff"/>
  <path id="path4195" d="m17.818 45.84c0 6.5454-0.72726 8.7272 1.4545 8.7272h11.636v-8.7272z" fill-rule="evenodd" stroke-width=".36363" fill="#fff"/>
  <path id="path4169" d="m31.636 45.14v10.182" stroke-width="1.4545" fill="none"/>
  <path id="path4167" d="m17.091 45.14h29.818" stroke-width="1.4545" fill="none"/>
  <path id="path4154" d="m46.182 45.84c0 7.2727 0.72726 8.7272-1.4545 8.7272h-12.364v-8.7272z" fill-rule="evenodd" stroke-width=".36363" fill="#fff"/>
 </g>
 <g id="g4358" transform="matrix(.20401 0 0 -.20322 27.2 243.82)" stroke="#eeeeec" stroke-width="5.7148" fill="#729fcf">
  <ellipse id="ellipse4360" rx="5.7143" ry="5.625" stroke="#eeeeec" transform="matrix(2.625,0,0,2.6667,-17.723,791.04)" cy="88.839" cx="15.714" stroke-width="2.16" fill="#729fcf"/>
 </g>
 <g fill="none">
  <path id="path4170-6" d="m34.943 30.163-2.9427-2.9427-2.9427 2.9427" stroke="#2e3436" stroke-width="1.9618"/>
  <path id="path4145" d="m34.452 29.673-2.452-2.453-2.452 2.453" stroke="#729fcf" stroke-width=".98090"/>
  <path id="path4479" d="m34.943 39.627-2.9427 2.9427-2.9427-2.9427" stroke="#2e3436" stroke-width="1.9618"/>
  <path id="path4481" d="m34.452 40.117-2.452 2.453-2.452-2.453" stroke="#729fcf" stroke-width=".98090"/>
 </g>
</svg>
