<?xml version="1.0" encoding="UTF-8" standalone="no"?>
<!-- Created with Inkscape (http://www.inkscape.org/) -->
<svg id="svg2" xmlns:rdf="http://www.w3.org/1999/02/22-rdf-syntax-ns#" xmlns="http://www.w3.org/2000/svg" height="64" viewBox="0 0 63.999999 63.999999" width="64" version="1.1" xmlns:cc="http://creativecommons.org/ns#" xmlns:dc="http://purl.org/dc/elements/1.1/">
 <metadata id="metadata7">
  <rdf:RDF>
   <cc:Work rdf:about="">
    <dc:format>image/svg+xml</dc:format>
    <dc:type rdf:resource="http://purl.org/dc/dcmitype/StillImage"/>
    <dc:title/>
   </cc:Work>
  </rdf:RDF>
 </metadata>
 <g id="layer1-7" transform="translate(0 -988.86)" stroke="#2e3436" stroke-width="6" fill="none">
  <path id="path4144" d="m16 1028.4v-20c0-8 4-12 16-12s16 4 16 12v20c0 8-4 17-16 17s-16-9-16-17z"/>
  <path id="path4209" d="m32 1004.4v12"/>
 </g>
 <g id="Ortho_0_-1" stroke-linejoin="round" transform="matrix(-1.0445 0 0 -1.0419 30.547 32.04)" stroke="#2e3436" stroke-linecap="round" stroke-width="5.7515">
  <g id="g4192" stroke-linejoin="round" transform="scale(1,-1)" stroke="#2e3436" stroke-linecap="round" stroke-width="5.7515" fill="none">
   <path id="path4194" stroke-linejoin="round" d="m13.917 7.4999c-0.454-2.6666-1.713-5.2777-3.917-7.4999 2.2038-2.2224 3.4631-4.8335 3.9168-7.5001" stroke="#2e3436" stroke-linecap="round" stroke-width="5.7515"/>
  </g>
 </g>
 <g id="g4153" stroke-linejoin="round" transform="matrix(1.0445 0 0 -1.0419 33.453 32.04)" stroke="#2e3436" stroke-linecap="round" stroke-width="5.7517">
  <g id="g4155" stroke-linejoin="round" transform="scale(1,-1)" stroke="#2e3436" stroke-linecap="round" stroke-width="5.7517" fill="none">
   <path id="path4157" stroke-linejoin="round" d="m13.917 7.4999c-0.454-2.6666-1.713-5.2777-3.917-7.4999 2.2038-2.2224 3.4631-4.8335 3.9168-7.5001" stroke="#2e3436" stroke-linecap="round" stroke-width="5.7517"/>
  </g>
 </g>
</svg>
