<?xml version="1.0" encoding="UTF-8" standalone="no"?>
<!-- Created with Inkscape (http://www.inkscape.org/) -->
<svg id="svg4199" xmlns:rdf="http://www.w3.org/1999/02/22-rdf-syntax-ns#" xmlns="http://www.w3.org/2000/svg" height="64" viewBox="0 0 64 64.000001" width="64" version="1.1" xmlns:cc="http://creativecommons.org/ns#" xmlns:dc="http://purl.org/dc/elements/1.1/">
 <metadata id="metadata4204">
  <rdf:RDF>
   <cc:Work rdf:about="">
    <dc:format>image/svg+xml</dc:format>
    <dc:type rdf:resource="http://purl.org/dc/dcmitype/StillImage"/>
    <dc:title/>
   </cc:Work>
  </rdf:RDF>
 </metadata>
 <g id="layer1" transform="translate(0 -988.36)">
  <g id="g10117" transform="translate(65.57 25.706)">
   <g id="g6444" transform="translate(7.5118 -30.174)">
    <rect id="rect4151-2-5" style="color:#000000" fill-rule="evenodd" ry="10" height="56" width="58" y="996.83" x="-70.082" fill="#eeeeec"/>
    <g id="g6386" stroke="#2e3436" stroke-width=".4" fill="#2e3436" transform="translate(-73.082,4.4677)">
     <path id="path4257-2-3" d="m14.837 999.16q0-0.9521 0.65918-1.6296 0.65918-0.6836 1.593-0.6836 1.2939 0 2.3499 0.3967 0.43945 0.1648 0.43945 0.5066 0 0.4211-0.42114 0.4211-0.177 0-0.55542-0.1464-0.78735-0.3052-1.6785-0.3052-0.80566 0-1.2268 0.5737-0.25635 0.3479-0.25635 0.9155 0 0.7752 0.94604 1.2574l2.2278 1.1291q1.4465 0.7446 1.4465 2.1607 0 1.062-0.75684 1.715-0.68359 0.5921-1.6418 0.5921-1.4526 0-2.7832-0.8728-0.3418-0.2258-0.3418-0.5005 0-0.4211 0.45166-0.4211 0.1648 0 0.43945 0.1953 0.96436 0.6897 2.3132 0.6897 0.39673 0 0.71411-0.1648 0.7019-0.3662 0.7019-1.2635 0-0.8483-0.92163-1.3122l-2.3987-1.2146q-1.3-0.6592-1.3-2.0386z"/>
     <path id="path4259-9-5" d="m26.568 1001.4h-3.7903v4.1687q0 0.47-0.45166 0.47-0.44556 0-0.44556-0.4639v-8.2336q0-0.5188 0.44556-0.5188 0.45166 0 0.45166 0.5188v3.18h3.7903v-3.2166q0-0.4578 0.43335-0.4578t0.43335 0.4517v8.252q0 0.4883-0.43335 0.4883t-0.43335-0.4761v-4.1626z"/>
     <path id="path4261-1-6" d="m30.206 1005.5q0 0.5859-0.46387 0.5859t-0.46387-0.5737v-8.0934q0-0.5493 0.46387-0.5493t0.46387 0.5676v8.0628z"/>
     <path id="path4263-2-2" d="m32.94 1001.4v4.1321q0 0.5005-0.45776 0.5005-0.44556 0-0.44556-0.5066 0 0 0-8.2886 0-0.4272 0.47607-0.4272 0 0 3.6377 0 0.48218 0 0.48218 0.4394 0 0.4395-0.47607 0.4395h-3.2104v2.8198h3.2104q0.47607 0 0.47607 0.4456 0 0.4455-0.48218 0.4455h-3.2104z"/>
     <path id="path4265-7-9" d="m37.859 997.24q0-0.4211 0.53711-0.4211h4.5227q0.43945 0 0.43945 0.4394 0 0.4456-0.42725 0.4456h-1.8738v7.8796q0 0.4822-0.44556 0.4822t-0.44556-0.47v-7.8918h-1.7822q-0.5249 0-0.5249-0.4639z"/>
    </g>
    <g id="g8688-0-1" transform="translate(-25.42,8.1084)" stroke="#2e3436" stroke-linecap="round" stroke-width="1.3" fill="none">
     <path id="path5826-5" d="m-4.003 998.36h6"/>
     <path id="path5828-3" d="m-1.003 995.36v6.0001"/>
    </g>
   </g>
  </g>
  <g id="g17" stroke="#2e3436" fill="#fff" fill-rule="evenodd">
   <path id="path4153-9" stroke-width="1.3846" d="m20.923 1033.6v-13.846c0-5.5385 2.7692-8.6538 11.077-8.6538 8.3077 0 11.077 3.1153 11.077 8.6538v13.846c0 5.5384-2.7692 12.115-11.077 12.115-8.3077 0-11.077-6.577-11.077-12.115z"/>
   <path id="path4155-1" stroke-width=".34615" d="m21.615 1021.8c-0.096-6.9 1.017-10.1 10.385-10.1v10.038z"/>
   <path id="path4157-2" stroke-width=".34615" d="m42.385 1021.8c0.096-6.9-1.017-10.1-10.385-10.1v10.038z"/>
  </g>
  <g id="g22" stroke="#2e3436">
   <path id="path4159-7" stroke-width="1.3846" fill="none" d="m32 1022.5v-11.423"/>
   <path id="path4161-0" stroke-width="1.3846" fill="none" d="m20.923 1022.5h22.154"/>
   <rect id="rect4163-9" style="color:#000000" fill-rule="evenodd" ry="2.4231" height="12.462" width="5.5385" stroke-linecap="round" y="1016.2" x="29.231" stroke-width="1.1077" fill="#fff"/>
  </g>
  <g id="g4278" transform="matrix(.68275 0 0 .68275 -33.544 331.71)">
   <g id="g4262" fill="none" transform="translate(5e-6,-7.78576)">
    <path id="path4170-6" stroke="#2e3436" stroke-width="4" d="m102 1009.1-6-6.0001-6 6.0001"/>
    <path id="path4145" stroke="#729fcf" stroke-width="2" d="m101 1008.1-5-5.0001-5 5.0001"/>
   </g>
   <g id="g4280" transform="translate(5e-6,7.785796)">
    <g id="g4260" transform="translate(64 7.1285)">
     <path id="path4214" stroke="#2e3436" stroke-width="4" fill="none" d="m38 1024.4-6 6-6-6"/>
    </g>
    <path id="path4220" stroke="#729fcf" stroke-width="2" fill="none" d="m101 1032.5-5 5-5-5"/>
   </g>
   <g id="g4271" fill="none">
    <path id="path4215" stroke="#2e3436" stroke-width="4" d="m107.21 1026.4 6-6-6-6"/>
    <path id="path4217" stroke="#729fcf" stroke-width="2" d="m108.21 1025.4 5-5-5-5"/>
   </g>
   <g id="g4276" fill="none">
    <path id="path4221" d="m38 1024.4-6 6-6-6" stroke="#2e3436" stroke-width="4" transform="matrix(0 1 -1 0 1109.2 988.36)"/>
    <path id="path4223" stroke="#729fcf" stroke-width="2" d="m83.872 1025.4-5-5 5-5"/>
   </g>
  </g>
 </g>
</svg>
