<?xml version="1.0" encoding="UTF-8" standalone="no"?>
<!-- Created with Inkscape (http://www.inkscape.org/) -->
<svg id="svg4199" xmlns:rdf="http://www.w3.org/1999/02/22-rdf-syntax-ns#" xmlns="http://www.w3.org/2000/svg" height="64" width="64" version="1.1" xmlns:cc="http://creativecommons.org/ns#" xmlns:dc="http://purl.org/dc/elements/1.1/" viewBox="0 0 64 64.000001">
 <metadata id="metadata4204">
  <rdf:RDF>
   <cc:Work rdf:about="">
    <dc:format>image/svg+xml</dc:format>
    <dc:type rdf:resource="http://purl.org/dc/dcmitype/StillImage"/>
    <dc:title/>
   </cc:Work>
  </rdf:RDF>
 </metadata>
 <g id="layer1" transform="translate(0 -988.36)">
  <rect id="rect4151" style="color:#000000" fill-rule="evenodd" ry="10" height="56" width="58" y="992.36" x="3" fill="#eeeeec"/>
  <g fill-rule="evenodd" stroke="#2e3436" fill="#fff">
   <path id="path4153" d="m20.923 1033.6v-13.846c0-5.5385 2.7692-8.6538 11.077-8.6538 8.3077 0 11.077 3.1153 11.077 8.6538v13.846c0 5.5384-2.7692 12.115-11.077 12.115-8.3077 0-11.077-6.577-11.077-12.115z" stroke-width="1.3846"/>
   <path id="path4155" d="m21.615 1021.8c-0.096-6.9 1.017-10.1 10.385-10.1v10.038z" stroke-width=".34615"/>
   <path id="path4157" d="m42.385 1021.8c0.096-6.9-1.017-10.1-10.385-10.1v10.038z" stroke-width=".34615"/>
  </g>
  <g stroke="#2e3436">
   <path id="path4159" d="m32 1022.5v-11.423" stroke-width="1.3846" fill="none"/>
   <path id="path4161" d="m20.923 1022.5h22.154" stroke-width="1.3846" fill="none"/>
   <rect id="rect4163" height="12.462" stroke-linecap="round" stroke-width="1.1077" fill="#729fcf" style="color:#000000" fill-rule="evenodd" ry="2.4231" width="5.5385" y="1016.2" x="29.231"/>
  </g>
  <g id="g5846" transform="translate(-.50298 .34070)" stroke="#2e3436" stroke-linecap="round" stroke-width="1.3" fill="none">
   <path id="path5814" stroke-linejoin="round" d="m19 1005.4 3-8 3 8"/>
   <path id="path5816" d="m20 1003.4h4"/>
   <path id="path5818" stroke-linejoin="round" d="m32 1005.4h-4v-8"/>
   <g>
    <path id="path5820" d="m33 997.36h6"/>
    <path id="path5822" d="m36 997.36v8"/>
    <path id="path5826" d="m40 1002.4h6"/>
    <path id="path5828" d="m43 999.36v6"/>
   </g>
  </g>
 </g>
</svg>
