<?xml version="1.0" encoding="UTF-8" standalone="no"?>
<!-- Created with Inkscape (http://www.inkscape.org/) -->
<svg id="svg4199" xmlns:rdf="http://www.w3.org/1999/02/22-rdf-syntax-ns#" xmlns="http://www.w3.org/2000/svg" height="64" width="64" version="1.1" xmlns:cc="http://creativecommons.org/ns#" xmlns:xlink="http://www.w3.org/1999/xlink" viewBox="0 0 64.000001 64.000001" xmlns:dc="http://purl.org/dc/elements/1.1/">
 <defs id="defs4201">
  <radialGradient id="radialGradient4373" xlink:href="#linearGradient4365" gradientUnits="userSpaceOnUse" cy="1026.8" cx="33.81" gradientTransform="matrix(.17804 -.98402 -1.8068 -.32690 1875.4 1403.9)" r="11.356"/>
  <linearGradient id="linearGradient4365">
   <stop id="stop4367" stop-color="#8ae234" offset="0"/>
   <stop id="stop4369" stop-color="#8ae234" stop-opacity="0" offset="1"/>
  </linearGradient>
  <radialGradient id="radialGradient4607" xlink:href="#linearGradient4365" gradientUnits="userSpaceOnUse" cy="1026.8" cx="33.81" gradientTransform="matrix(-.17804 .98402 1.8068 .32690 -1811.4 636.83)" r="11.356"/>
 </defs>
 <metadata id="metadata4204">
  <rdf:RDF>
   <cc:Work rdf:about="">
    <dc:format>image/svg+xml</dc:format>
    <dc:type rdf:resource="http://purl.org/dc/dcmitype/StillImage"/>
    <dc:title/>
   </cc:Work>
  </rdf:RDF>
 </metadata>
 <g id="layer1" transform="translate(0 -988.36)">
  <rect id="rect4140" style="color:#000000" fill-rule="evenodd" ry="10" height="56" width="56" y="992.36" x="4" fill="#eeeeec"/>
  <g id="g4197" transform="translate(0 -1.0001)">
   <path id="path4317" d="m46.81 1038.7s-8.8575-0.2705-13.1-1.4051c-4.8952-1.3092-13.907-6.1404-13.907-6.1404" stroke="url(#radialGradient4373)" stroke-width="10" fill="none"/>
   <g id="g4348" fill="#729fcf" transform="matrix(-.25882 -.96593 -.96593 .25882 1003.7 755.59)">
    <g id="g4350" transform="translate(-43.493 1.3512)">
     <g id="g4352" fill="#729fcf" transform="matrix(0.5 0 0 0.5 20.237 506.39)">
      <ellipse id="ellipse4354" rx="5.7143" transform="matrix(2.625 0 0 2.6667 -17.723 791.04)" ry="5.625" cy="88.839" cx="15.714" fill="#729fcf"/>
     </g>
    </g>
    <g id="g4356" transform="matrix(.56104 0 0 -.55886 -29.446 1592)" stroke="#eeeeec" stroke-width="2.8574">
     <g id="g4358" transform="matrix(0.5 0 0 0.5 20.237 506.39)" stroke="#eeeeec" stroke-width="5.7148" fill="#729fcf">
      <ellipse id="ellipse4360" rx="5.7143" ry="5.625" stroke="#eeeeec" transform="matrix(2.625 0 0 2.6667 -17.723 791.04)" cy="88.839" cx="15.714" stroke-width="2.16" fill="#729fcf"/>
     </g>
    </g>
   </g>
  </g>
  <g id="g4393" transform="matrix(-.12795 -.99178 -.99178 .12795 1048.2 932.48)" stroke="#2e3436" stroke-width="1.6" fill="none">
   <path id="path4375" d="m15.117 1021.8s2.3055 4.7927 3.8552 6.9364c2.0252 2.8016 7.0278 7.6265 7.0278 7.6265"/>
   <path id="path4381" d="m24 1029.4 2 7-7-3"/>
  </g>
  <g id="g4207" transform="translate(0 .99980)">
   <path id="path4585" d="m17.189 1002s8.8575 0.2704 13.1 1.4051c4.8952 1.3091 13.907 6.1403 13.907 6.1403" stroke="url(#radialGradient4607)" stroke-width="10" fill="none"/>
   <g id="g4587" fill="#729fcf" transform="matrix(.25882 .96593 .96593 -.25882 -939.73 1285.1)">
    <g id="g4589" transform="translate(-43.493 1.3512)">
     <g id="g4591" fill="#729fcf" transform="matrix(0.5 0 0 0.5 20.237 506.39)">
      <ellipse id="ellipse4593" rx="5.7143" ry="5.625" transform="matrix(2.625 0 0 2.6667 -17.723 791.04)" cy="88.839" cx="15.714" fill="#729fcf"/>
     </g>
    </g>
    <g id="g4595" transform="matrix(.56104 0 0 -.55886 -29.446 1592)" stroke="#eeeeec" stroke-width="2.8574">
     <g id="g4597" transform="matrix(0.5 0 0 0.5 20.237 506.39)" stroke="#eeeeec" stroke-width="5.7148" fill="#729fcf">
      <ellipse id="ellipse4599" rx="5.7143" transform="matrix(2.625 0 0 2.6667 -17.723 791.04)" stroke="#eeeeec" ry="5.625" cy="88.839" cx="15.714" stroke-width="2.16" fill="#729fcf"/>
     </g>
    </g>
   </g>
  </g>
  <g id="g4601" transform="matrix(.12795 .99178 .99178 -.12795 -984.21 1108.2)" stroke="#2e3436" stroke-width="1.6" fill="none">
   <path id="path4603" d="m15.117 1021.8s2.3055 4.7927 3.8552 6.9364c2.0252 2.8016 7.0278 7.6265 7.0278 7.6265"/>
   <path id="path4605" d="m24 1029.4 2 7-7-3"/>
  </g>
 </g>
</svg>
