<?xml version="1.0" encoding="UTF-8" standalone="no"?>
<!-- Created with Inkscape (http://www.inkscape.org/) -->
<svg id="svg4199" xmlns:rdf="http://www.w3.org/1999/02/22-rdf-syntax-ns#" xmlns="http://www.w3.org/2000/svg" height="64" width="64" version="1.1" xmlns:cc="http://creativecommons.org/ns#" xmlns:dc="http://purl.org/dc/elements/1.1/" viewBox="0 0 64.000001 64.000001">
 <metadata id="metadata4204">
  <rdf:RDF>
   <cc:Work rdf:about="">
    <dc:format>image/svg+xml</dc:format>
    <dc:type rdf:resource="http://purl.org/dc/dcmitype/StillImage"/>
    <dc:title/>
   </cc:Work>
  </rdf:RDF>
 </metadata>
 <g id="layer1" transform="translate(0 -988.36)">
  <g fill-rule="evenodd">
   <rect id="rect4140" style="color:#000000" ry="10" height="56" width="56" y="992.36" x="4" fill="#eeeeec"/>
   <path id="path4144" d="m12 1002.4v35c0 4 0 4 20 4 21 0 21 0 21-4v-35c0-3 0-3-21-3-20-0.00004-20-0.00004-20 3z" stroke="#2e3436" stroke-width="2" fill="#fff"/>
   <path id="path4195" d="m13 1028.4c0 9-1 12 2 12h16v-12z" stroke="#2e3436" stroke-width=".5" fill="#729fcf"/>
  </g>
  <g stroke="#2e3436">
   <path id="path4169" d="m32 1027.4v14" stroke-width="2" fill="none"/>
   <path id="path4167" d="m12 1027.4h41" stroke-width="2" fill="none"/>
   <path id="path4154" d="m52 1028.4c0 10 1 12-2 12h-17v-12z" fill-rule="evenodd" stroke-width=".5" fill="#fff"/>
  </g>
 </g>
</svg>
