<?xml version="1.0" encoding="UTF-8" standalone="no"?>
<!-- Created with Inkscape (http://www.inkscape.org/) -->
<svg id="svg2" xmlns:rdf="http://www.w3.org/1999/02/22-rdf-syntax-ns#" xmlns="http://www.w3.org/2000/svg" xmlns:osb="http://www.openswatchbook.org/uri/2009/osb" height="64" viewBox="0 0 64 64" width="64" version="1.1" xmlns:cc="http://creativecommons.org/ns#" xmlns:dc="http://purl.org/dc/elements/1.1/">
 <metadata id="metadata7">
  <rdf:RDF>
   <cc:Work rdf:about="">
    <dc:format>image/svg+xml</dc:format>
    <dc:type rdf:resource="http://purl.org/dc/dcmitype/StillImage"/>
    <dc:title/>
   </cc:Work>
  </rdf:RDF>
 </metadata>
 <g id="layer1" transform="translate(0 -988.36)">
  <path id="rect8162" d="m8 18c-2.216 0-4 1.784-4 4v20c0 2.216 1.784 4 4 4h48c2.216 0 4-1.784 4-4v-20c0-2.216-1.784-4-4-4h-48zm9.537 5.76c0.653 0 1.244 0.054 1.775 0.16 0.532 0.091 0.995 0.197 1.389 0.318 0.395 0.122 0.721 0.25 0.979 0.387s0.44 0.236 0.547 0.297l-0.844 2.344c-0.364-0.228-0.888-0.44-1.571-0.637-0.667-0.212-1.396-0.32-2.185-0.32-0.683 0-1.32 0.122-1.912 0.365-0.592 0.227-1.107 0.576-1.547 1.047-0.425 0.47-0.759 1.062-1.002 1.775s-0.363 1.54-0.363 2.481c0 0.834 0.091 1.6 0.273 2.298 0.197 0.698 0.492 1.307 0.887 1.823 0.394 0.5 0.895 0.895 1.502 1.183 0.607 0.273 1.336 0.41 2.185 0.41 1.017 0 1.844-0.099 2.481-0.296 0.637-0.213 1.131-0.41 1.48-0.592l0.774 2.343c-0.182 0.122-0.432 0.244-0.75 0.366-0.304 0.121-0.669 0.242-1.094 0.363-0.425 0.106-0.902 0.191-1.434 0.252-0.531 0.076-1.1 0.113-1.707 0.113-1.183 0-2.246-0.182-3.187-0.547-0.941-0.364-1.736-0.895-2.389-1.593-0.652-0.714-1.155-1.577-1.504-2.594-0.3487-1.017-0.5231-2.186-0.5231-3.506s0.1972-2.489 0.5921-3.506c0.409-1.017 0.964-1.874 1.662-2.572 0.698-0.713 1.518-1.251 2.459-1.615 0.941-0.365 1.95-0.547 3.027-0.547zm27.787 0.205c1.32 0 2.527 0.16 3.619 0.478 1.093 0.304 2.027 0.79 2.801 1.457 0.789 0.653 1.396 1.488 1.82 2.504 0.425 1.002 0.639 2.2 0.639 3.596 0 1.366-0.214 2.557-0.639 3.574-0.424 1.002-1.031 1.843-1.82 2.526-0.774 0.667-1.714 1.17-2.822 1.504-1.093 0.318-2.307 0.476-3.643 0.476-0.637 0-1.358-0.029-2.162-0.09-0.804-0.045-1.57-0.151-2.299-0.318v-15.32c0.729-0.167 1.503-0.273 2.323-0.319 0.819-0.045 1.546-0.068 2.183-0.068zm-15.48 0.16h2.709c0.531 1.123 1.048 2.261 1.549 3.414 0.5 1.153 1.001 2.366 1.502 3.641 0.515 1.274 1.039 2.626 1.57 4.052 0.546 1.427 1.115 2.982 1.707 4.666h-3.096c-0.212-0.622-0.432-1.236-0.66-1.843s-0.448-1.23-0.66-1.867h-6.647c-0.212 0.637-0.432 1.268-0.66 1.89l-0.637 1.82h-2.982c0.592-1.684 1.154-3.239 1.686-4.666 0.531-1.426 1.046-2.778 1.546-4.052 0.516-1.275 1.025-2.488 1.526-3.641s1.016-2.291 1.547-3.414zm15.664 2.322c-0.85 0-1.458 0.021-1.822 0.067v11.017c0.166 0.016 0.387 0.032 0.66 0.047h1.115c1.927 0 3.362-0.486 4.303-1.457 0.956-0.986 1.433-2.361 1.433-4.121 0-1.791-0.463-3.163-1.388-4.119-0.926-0.956-2.359-1.434-4.301-1.434zm-14.365 0.727c-0.349 0.804-0.752 1.784-1.207 2.937-0.441 1.154-0.904 2.406-1.389 3.756h5.189c-0.485-1.35-0.955-2.611-1.41-3.779-0.455-1.169-0.85-2.14-1.183-2.914z" transform="translate(0 988.36)" fill="#2e3436"/>
 </g>
</svg>
