<?xml version="1.0" encoding="UTF-8" standalone="no"?>
<!-- Created with Inkscape (http://www.inkscape.org/) -->
<svg id="svg4199" xmlns:rdf="http://www.w3.org/1999/02/22-rdf-syntax-ns#" xmlns="http://www.w3.org/2000/svg" height="64" width="64" version="1.1" xmlns:cc="http://creativecommons.org/ns#" xmlns:dc="http://purl.org/dc/elements/1.1/" viewBox="0 0 64.000001 64.000001">
 <metadata id="metadata4204">
  <rdf:RDF>
   <cc:Work rdf:about="">
    <dc:format>image/svg+xml</dc:format>
    <dc:type rdf:resource="http://purl.org/dc/dcmitype/StillImage"/>
    <dc:title/>
   </cc:Work>
  </rdf:RDF>
 </metadata>
 <g id="layer1" transform="translate(0 -988.36)">
  <rect id="rect4140" style="color:#000000" fill-rule="evenodd" ry="10" height="56" width="56" y="992.36" x="4" fill="#eeeeec"/>
  <g fill-rule="evenodd" stroke="#2e3436" fill="#fff">
   <path id="path4144" d="m16 1027.9v-20c0-8 4-12.5 16-12.5s16 4.5 16 12.5v20c0 8-4 17.5-16 17.5s-16-9.5-16-17.5z" stroke-width="2"/>
   <path id="path4195" d="m17 1010.9c-0.13863-10 1.4688-14.5 15-14.5v14.5z" stroke-width=".5"/>
   <path id="path4197" d="m47 1010.9c0.13863-10-1.4688-14.5-15-14.5v14.5z" stroke-width=".5"/>
  </g>
  <g stroke="#2e3436">
   <path id="path4167" d="m16 1011.9h32" stroke-width="2" fill="none"/>
   <rect id="rect4139" height="18" stroke-linecap="round" stroke-width="1.6" fill="#729fcf" style="color:#000000" fill-rule="evenodd" ry="3.5" width="8" y="1002.9" x="28"/>
   <path id="path4170" d="m38 1000.6-6-6-6 6" stroke-width="4" fill="none"/>
  </g>
  <path id="path4145" d="m37 999.65-5-5-5 5" stroke="#729fcf" stroke-width="2" fill="none"/>
  <g id="g4260" transform="translate(0 -1.3716)">
   <path id="path4214" d="m38 1024.4-6 6-6-6" stroke="#2e3436" stroke-width="4" fill="none"/>
  </g>
  <path id="path4220" d="m37 1024-5 5-5-5" stroke="#729fcf" stroke-width="2" fill="none"/>
 </g>
</svg>
