<?xml version="1.0" encoding="UTF-8" standalone="no"?>
<!-- Created with Inkscape (http://www.inkscape.org/) -->

<svg
   xmlns:dc="http://purl.org/dc/elements/1.1/"
   xmlns:cc="http://creativecommons.org/ns#"
   xmlns:rdf="http://www.w3.org/1999/02/22-rdf-syntax-ns#"
   xmlns:svg="http://www.w3.org/2000/svg"
   xmlns="http://www.w3.org/2000/svg"
   xmlns:xlink="http://www.w3.org/1999/xlink"
   xmlns:sodipodi="http://sodipodi.sourceforge.net/DTD/sodipodi-0.dtd"
   xmlns:inkscape="http://www.inkscape.org/namespaces/inkscape"
   version="1.1"
   width="64"
   height="64"
   id="svg2"
   inkscape:version="0.91 r"
   sodipodi:docname="Sketcher_CreateOctagon_Constr.svg">
  <sodipodi:namedview
     pagecolor="#ffffff"
     bordercolor="#666666"
     borderopacity="1"
     objecttolerance="10"
     gridtolerance="10"
     guidetolerance="10"
     inkscape:pageopacity="0"
     inkscape:pageshadow="2"
     inkscape:window-width="1920"
     inkscape:window-height="995"
     id="namedview40"
     showgrid="false"
     inkscape:zoom="11.494629"
     inkscape:cx="32"
     inkscape:cy="32"
     inkscape:window-x="0"
     inkscape:window-y="28"
     inkscape:window-maximized="1"
     inkscape:current-layer="svg2" />
  <defs
     id="defs4">
    <radialGradient
       cx="225.26402"
       cy="672.79736"
       r="34.345188"
       fx="225.26402"
       fy="672.79736"
       id="radialGradient3265"
       xlink:href="#linearGradient3144"
       gradientUnits="userSpaceOnUse"
       gradientTransform="matrix(1,0,0,0.6985294,0,202.82863)" />
    <linearGradient
       id="linearGradient3144">
      <stop
         id="stop3146"
         style="stop-color:#ffffff;stop-opacity:1"
         offset="0" />
      <stop
         id="stop3148"
         style="stop-color:#ffffff;stop-opacity:0"
         offset="1" />
    </linearGradient>
    <radialGradient
       cx="225.26402"
       cy="672.79736"
       r="34.345188"
       fx="225.26402"
       fy="672.79736"
       id="radialGradient4928"
       xlink:href="#linearGradient3144"
       gradientUnits="userSpaceOnUse"
       gradientTransform="matrix(1,0,0,0.6985294,0,202.82863)" />
    <radialGradient
       cx="225.26402"
       cy="672.79736"
       r="34.345188"
       fx="225.26402"
       fy="672.79736"
       id="radialGradient4936"
       xlink:href="#linearGradient3144"
       gradientUnits="userSpaceOnUse"
       gradientTransform="matrix(1,0,0,0.6985294,0,202.82863)" />
    <radialGradient
       cx="225.26402"
       cy="672.79736"
       r="34.345188"
       fx="225.26402"
       fy="672.79736"
       id="radialGradient3191"
       xlink:href="#linearGradient3144-5"
       gradientUnits="userSpaceOnUse"
       gradientTransform="matrix(1,0,0,0.6985294,0,202.82863)" />
    <linearGradient
       id="linearGradient3144-5">
      <stop
         id="stop3146-7"
         style="stop-color:#ffffff;stop-opacity:1"
         offset="0" />
      <stop
         id="stop3148-5"
         style="stop-color:#ffffff;stop-opacity:0"
         offset="1" />
    </linearGradient>
    <radialGradient
       cx="225.26402"
       cy="672.79736"
       r="34.345188"
       fx="225.26402"
       fy="672.79736"
       id="radialGradient3183"
       xlink:href="#linearGradient3144-5"
       gradientUnits="userSpaceOnUse"
       gradientTransform="matrix(1,0,0,0.6985294,0,202.82863)" />
    <radialGradient
       cx="225.26402"
       cy="672.79736"
       r="34.345188"
       fx="225.26402"
       fy="672.79736"
       id="radialGradient3818"
       xlink:href="#linearGradient3144"
       gradientUnits="userSpaceOnUse"
       gradientTransform="matrix(1,0,0,0.6985294,0,202.82863)" />
    <radialGradient
       cx="225.26402"
       cy="672.79736"
       r="34.345188"
       fx="225.26402"
       fy="672.79736"
       id="radialGradient3820"
       xlink:href="#linearGradient3144"
       gradientUnits="userSpaceOnUse"
       gradientTransform="matrix(1,0,0,0.6985294,0,202.82863)" />
    <radialGradient
       cx="225.26402"
       cy="672.79736"
       r="34.345188"
       fx="225.26402"
       fy="672.79736"
       id="radialGradient3882"
       xlink:href="#linearGradient3144"
       gradientUnits="userSpaceOnUse"
       gradientTransform="matrix(1,0,0,0.6985294,0,202.82863)" />
    <radialGradient
       cx="225.26402"
       cy="672.79736"
       r="34.345188"
       fx="225.26402"
       fy="672.79736"
       id="radialGradient3884"
       xlink:href="#linearGradient3144"
       gradientUnits="userSpaceOnUse"
       gradientTransform="matrix(1,0,0,0.6985294,0,202.82863)" />
    <radialGradient
       cx="225.26402"
       cy="672.79736"
       r="34.345188"
       fx="225.26402"
       fy="672.79736"
       id="radialGradient3890"
       xlink:href="#linearGradient3144"
       gradientUnits="userSpaceOnUse"
       gradientTransform="matrix(1,0,0,0.6985294,0,202.82863)" />
    <radialGradient
       cx="225.26402"
       cy="672.79736"
       r="34.345188"
       fx="225.26402"
       fy="672.79736"
       id="radialGradient3892"
       xlink:href="#linearGradient3144"
       gradientUnits="userSpaceOnUse"
       gradientTransform="matrix(1,0,0,0.6985294,0,202.82863)" />
    <radialGradient
       cx="225.26402"
       cy="672.79736"
       r="34.345188"
       fx="225.26402"
       fy="672.79736"
       id="radialGradient3899"
       xlink:href="#linearGradient3144"
       gradientUnits="userSpaceOnUse"
       gradientTransform="matrix(1,0,0,0.6985294,0,202.82863)" />
    <radialGradient
       cx="225.26402"
       cy="672.79736"
       r="34.345188"
       fx="225.26402"
       fy="672.79736"
       id="radialGradient3901"
       xlink:href="#linearGradient3144"
       gradientUnits="userSpaceOnUse"
       gradientTransform="matrix(1,0,0,0.6985294,0,202.82863)" />
    <radialGradient
       cx="225.26402"
       cy="672.79736"
       r="34.345188"
       fx="225.26402"
       fy="672.79736"
       id="radialGradient3910"
       xlink:href="#linearGradient3144"
       gradientUnits="userSpaceOnUse"
       gradientTransform="matrix(1,0,0,0.6985294,0,202.82863)" />
    <radialGradient
       cx="225.26402"
       cy="672.79736"
       r="34.345188"
       fx="225.26402"
       fy="672.79736"
       id="radialGradient3912"
       xlink:href="#linearGradient3144"
       gradientUnits="userSpaceOnUse"
       gradientTransform="matrix(1,0,0,0.6985294,0,202.82863)" />
    <radialGradient
       cx="225.26402"
       cy="672.79736"
       r="34.345188"
       fx="225.26402"
       fy="672.79736"
       id="radialGradient3022"
       xlink:href="#linearGradient3144"
       gradientUnits="userSpaceOnUse"
       gradientTransform="matrix(1,0,0,0.6985294,0,202.82863)" />
    <radialGradient
       cx="225.26402"
       cy="672.79736"
       r="34.345188"
       fx="225.26402"
       fy="672.79736"
       id="radialGradient4568"
       xlink:href="#linearGradient3144"
       gradientUnits="userSpaceOnUse"
       gradientTransform="matrix(1,0,0,0.6985294,0,202.82863)" />
    <radialGradient
       cx="225.26402"
       cy="672.79736"
       r="34.345188"
       fx="225.26402"
       fy="672.79736"
       id="radialGradient4570"
       xlink:href="#linearGradient3144"
       gradientUnits="userSpaceOnUse"
       gradientTransform="matrix(1,0,0,0.6985294,0,202.82863)" />
    <radialGradient
       cx="225.26402"
       cy="672.79736"
       r="34.345188"
       fx="225.26402"
       fy="672.79736"
       id="radialGradient4708"
       xlink:href="#linearGradient3144"
       gradientUnits="userSpaceOnUse"
       gradientTransform="matrix(1,0,0,0.6985294,0,202.82863)" />
    <radialGradient
       cx="225.26402"
       cy="672.79736"
       r="34.345188"
       fx="225.26402"
       fy="672.79736"
       id="radialGradient4710"
       xlink:href="#linearGradient3144"
       gradientUnits="userSpaceOnUse"
       gradientTransform="matrix(1,0,0,0.6985294,0,202.82863)" />
  </defs>
  <metadata
     id="metadata7">
    <rdf:RDF>
      <cc:Work
         rdf:about="">
        <dc:format>image/svg+xml</dc:format>
        <dc:type
           rdf:resource="http://purl.org/dc/dcmitype/StillImage" />
        <dc:title></dc:title>
      </cc:Work>
    </rdf:RDF>
  </metadata>
  <path
     d="M 37.5,7.375 A 2.50025,2.50025 0 0 0 37.28125,7.40625 L 18.3125,10.4375 a 2.50025,2.50025 0 0 0 -1.625,1 L 5.40625,26.96875 a 2.50025,2.50025 0 0 0 -0.4375,1.84375 l 3,18.96875 A 2.50025,2.50025 0 0 0 9,49.40625 L 24.53125,60.6875 A 2.50025,2.50025 0 0 0 26.375,61.125 l 18.96875,-3 a 2.50025,2.50025 0 0 0 1.625,-1 L 58.25,41.59375 a 2.50025,2.50025 0 0 0 0.4375,-1.875 L 56.71875,27.28125 A 7.2116405,7.0332467 0 0 0 60.40625,21.4375 7.2116405,7.0332467 0 0 0 49.3125,15.25 L 39.125,7.84375 A 2.50025,2.50025 0 0 0 37.5,7.375 z m -0.46875,5.125 9.25,6.71875 A 7.2116405,7.0332467 0 0 0 46,20.875 a 7.2116405,7.0332467 0 0 0 5.78125,7.15625 l 1.8125,11.4375 -10.0625,13.875 -16.9375,2.6875 L 12.78125,46 10.0625,29.0625 20.125,15.21875 37.03125,12.5 z m -5.4375,14.75 A 7.2116405,7.0332467 0 0 0 24.625,34 7.2116405,7.0332467 0 1 0 39.03125,34.5625 7.2116405,7.0332467 0 0 0 31.59375,27.25 z"
     id="path4694"
     style="font-size:medium;font-style:normal;font-variant:normal;font-weight:normal;font-stretch:normal;text-indent:0;text-align:start;text-decoration:none;line-height:normal;letter-spacing:normal;word-spacing:normal;text-transform:none;direction:ltr;block-progression:tb;writing-mode:lr-tb;text-anchor:start;baseline-shift:baseline;color:#000000;fill:#000000;fill-opacity:0.58469944;fill-rule:nonzero;stroke:none;stroke-width:0.84700072;marker:none;visibility:visible;display:inline;overflow:visible;enable-background:accumulate;font-family:Sans;-inkscape-font-specification:Sans" />
  <path
     inkscape:connector-curvature="0"
     style="color:#000000;font-style:normal;font-variant:normal;font-weight:normal;font-stretch:normal;font-size:medium;line-height:normal;font-family:Sans;-inkscape-font-specification:Sans;text-indent:0;text-align:start;text-decoration:none;text-decoration-line:none;letter-spacing:normal;word-spacing:normal;text-transform:none;direction:ltr;block-progression:tb;writing-mode:lr-tb;baseline-shift:baseline;text-anchor:start;display:inline;overflow:visible;visibility:visible;fill:#4040ff;fill-opacity:1;stroke:#000000;stroke-width:0.847;stroke-linejoin:round;stroke-miterlimit:4;stroke-dasharray:none;stroke-opacity:1;marker:none;enable-background:accumulate"
     id="path4677"
     d="M 35.5,2.875 A 2.50025,2.50025 0 0 0 35.28125,2.90625 L 16.3125,5.9375 a 2.50025,2.50025 0 0 0 -1.625,1 L 3.40625,22.46875 a 2.50025,2.50025 0 0 0 -0.4375,1.84375 l 3,18.96875 A 2.50025,2.50025 0 0 0 7,44.90625 L 22.53125,56.1875 A 2.50025,2.50025 0 0 0 24.375,56.625 l 18.96875,-3 a 2.50025,2.50025 0 0 0 1.625,-1 L 56.25,37.09375 a 2.50025,2.50025 0 0 0 0.4375,-1.875 l -3,-18.96875 a 2.50025,2.50025 0 0 0 -1,-1.625 L 37.125,3.34375 A 2.50025,2.50025 0 0 0 35.5,2.875 Z M 35.03125,8 l 13.875,10.09375 2.6875,16.875 -10.0625,13.875 -16.9375,2.6875 L 10.78125,41.5 8.0625,24.5625 18.125,10.71875 35.03125,8 Z" />
  <g
     id="g3038"
     transform="matrix(0.99742747,0,0,0.97275418,11.139278,-982.6724)">
    <path
       inkscape:connector-curvature="0"
       style="display:inline;overflow:visible;visibility:visible;fill:#ff2000;fill-opacity:1;fill-rule:nonzero;stroke:#000000;stroke-width:5.79999971;stroke-linecap:butt;stroke-linejoin:miter;stroke-miterlimit:4;stroke-dasharray:none;stroke-dashoffset:0;stroke-opacity:1;marker:none;enable-background:accumulate"
       id="path3040"
       transform="matrix(-0.14873711,-0.00599525,0.00599525,-0.14873711,44.131897,1139.4406)"
       d="m 245.71428,655.2193 a 48.57143,48.57143 0 1 1 -97.14286,0 48.57143,48.57143 0 1 1 97.14286,0 z" />
    <path
       inkscape:connector-curvature="0"
       style="fill:url(#radialGradient4568);fill-opacity:1;stroke:none"
       id="path3042"
       transform="matrix(-0.1297658,0.07293494,-0.07293494,-0.1297658,95.792839,1109.6127)"
       d="m 259.60921,672.79736 a 34.34519,23.991124 0 1 1 -68.69038,0 34.34519,23.991124 0 1 1 68.69038,0 z" />
  </g>
  <g
     id="g3044"
     transform="matrix(0.99742747,0,0,0.97275418,32.514946,-995.79158)">
    <path
       inkscape:connector-curvature="0"
       style="display:inline;overflow:visible;visibility:visible;fill:#ff2000;fill-opacity:1;fill-rule:nonzero;stroke:#000000;stroke-width:5.79999971;stroke-linecap:butt;stroke-linejoin:miter;stroke-miterlimit:4;stroke-dasharray:none;stroke-dashoffset:0;stroke-opacity:1;marker:none;enable-background:accumulate"
       id="path3046"
       transform="matrix(-0.14873711,-0.00599525,0.00599525,-0.14873711,44.131897,1139.4406)"
       d="m 245.71428,655.2193 a 48.57143,48.57143 0 1 1 -97.14286,0 48.57143,48.57143 0 1 1 97.14286,0 z" />
    <path
       inkscape:connector-curvature="0"
       style="fill:url(#radialGradient4570);fill-opacity:1;stroke:none"
       id="path3048"
       transform="matrix(-0.1297658,0.07293494,-0.07293494,-0.1297658,95.792839,1109.6127)"
       d="m 259.60921,672.79736 a 34.34519,23.991124 0 1 1 -68.69038,0 34.34519,23.991124 0 1 1 68.69038,0 z" />
  </g>
</svg>
