<?xml version="1.0" encoding="UTF-8" standalone="no"?>
<!-- Created with Inkscape (http://www.inkscape.org/) -->

<svg
   xmlns:dc="http://purl.org/dc/elements/1.1/"
   xmlns:cc="http://creativecommons.org/ns#"
   xmlns:rdf="http://www.w3.org/1999/02/22-rdf-syntax-ns#"
   xmlns:svg="http://www.w3.org/2000/svg"
   xmlns="http://www.w3.org/2000/svg"
   xmlns:xlink="http://www.w3.org/1999/xlink"
   xmlns:sodipodi="http://sodipodi.sourceforge.net/DTD/sodipodi-0.dtd"
   xmlns:inkscape="http://www.inkscape.org/namespaces/inkscape"
   version="1.1"
   width="64"
   height="64"
   id="svg2"
   inkscape:version="0.91 r"
   sodipodi:docname="Sketcher_CreatePentagon_Constr.svg">
  <sodipodi:namedview
     pagecolor="#ffffff"
     bordercolor="#666666"
     borderopacity="1"
     objecttolerance="10"
     gridtolerance="10"
     guidetolerance="10"
     inkscape:pageopacity="0"
     inkscape:pageshadow="2"
     inkscape:window-width="1920"
     inkscape:window-height="995"
     id="namedview38"
     showgrid="false"
     inkscape:zoom="11.494629"
     inkscape:cx="32"
     inkscape:cy="32"
     inkscape:window-x="0"
     inkscape:window-y="28"
     inkscape:window-maximized="1"
     inkscape:current-layer="svg2" />
  <defs
     id="defs4">
    <radialGradient
       cx="225.26402"
       cy="672.79736"
       r="34.345188"
       fx="225.26402"
       fy="672.79736"
       id="radialGradient3265"
       xlink:href="#linearGradient3144"
       gradientUnits="userSpaceOnUse"
       gradientTransform="matrix(1,0,0,0.6985294,0,202.82863)" />
    <linearGradient
       id="linearGradient3144">
      <stop
         id="stop3146"
         style="stop-color:#ffffff;stop-opacity:1"
         offset="0" />
      <stop
         id="stop3148"
         style="stop-color:#ffffff;stop-opacity:0"
         offset="1" />
    </linearGradient>
    <radialGradient
       cx="225.26402"
       cy="672.79736"
       r="34.345188"
       fx="225.26402"
       fy="672.79736"
       id="radialGradient4928"
       xlink:href="#linearGradient3144"
       gradientUnits="userSpaceOnUse"
       gradientTransform="matrix(1,0,0,0.6985294,0,202.82863)" />
    <radialGradient
       cx="225.26402"
       cy="672.79736"
       r="34.345188"
       fx="225.26402"
       fy="672.79736"
       id="radialGradient4936"
       xlink:href="#linearGradient3144"
       gradientUnits="userSpaceOnUse"
       gradientTransform="matrix(1,0,0,0.6985294,0,202.82863)" />
    <radialGradient
       cx="225.26402"
       cy="672.79736"
       r="34.345188"
       fx="225.26402"
       fy="672.79736"
       id="radialGradient3191"
       xlink:href="#linearGradient3144-5"
       gradientUnits="userSpaceOnUse"
       gradientTransform="matrix(1,0,0,0.6985294,0,202.82863)" />
    <linearGradient
       id="linearGradient3144-5">
      <stop
         id="stop3146-7"
         style="stop-color:#ffffff;stop-opacity:1"
         offset="0" />
      <stop
         id="stop3148-5"
         style="stop-color:#ffffff;stop-opacity:0"
         offset="1" />
    </linearGradient>
    <radialGradient
       cx="225.26402"
       cy="672.79736"
       r="34.345188"
       fx="225.26402"
       fy="672.79736"
       id="radialGradient3183"
       xlink:href="#linearGradient3144-5"
       gradientUnits="userSpaceOnUse"
       gradientTransform="matrix(1,0,0,0.6985294,0,202.82863)" />
    <radialGradient
       cx="225.26402"
       cy="672.79736"
       r="34.345188"
       fx="225.26402"
       fy="672.79736"
       id="radialGradient3818"
       xlink:href="#linearGradient3144"
       gradientUnits="userSpaceOnUse"
       gradientTransform="matrix(1,0,0,0.6985294,0,202.82863)" />
    <radialGradient
       cx="225.26402"
       cy="672.79736"
       r="34.345188"
       fx="225.26402"
       fy="672.79736"
       id="radialGradient3820"
       xlink:href="#linearGradient3144"
       gradientUnits="userSpaceOnUse"
       gradientTransform="matrix(1,0,0,0.6985294,0,202.82863)" />
    <radialGradient
       cx="225.26402"
       cy="672.79736"
       r="34.345188"
       fx="225.26402"
       fy="672.79736"
       id="radialGradient3882"
       xlink:href="#linearGradient3144"
       gradientUnits="userSpaceOnUse"
       gradientTransform="matrix(1,0,0,0.6985294,0,202.82863)" />
    <radialGradient
       cx="225.26402"
       cy="672.79736"
       r="34.345188"
       fx="225.26402"
       fy="672.79736"
       id="radialGradient3884"
       xlink:href="#linearGradient3144"
       gradientUnits="userSpaceOnUse"
       gradientTransform="matrix(1,0,0,0.6985294,0,202.82863)" />
    <radialGradient
       cx="225.26402"
       cy="672.79736"
       r="34.345188"
       fx="225.26402"
       fy="672.79736"
       id="radialGradient3890"
       xlink:href="#linearGradient3144"
       gradientUnits="userSpaceOnUse"
       gradientTransform="matrix(1,0,0,0.6985294,0,202.82863)" />
    <radialGradient
       cx="225.26402"
       cy="672.79736"
       r="34.345188"
       fx="225.26402"
       fy="672.79736"
       id="radialGradient3892"
       xlink:href="#linearGradient3144"
       gradientUnits="userSpaceOnUse"
       gradientTransform="matrix(1,0,0,0.6985294,0,202.82863)" />
    <radialGradient
       cx="225.26402"
       cy="672.79736"
       r="34.345188"
       fx="225.26402"
       fy="672.79736"
       id="radialGradient3899"
       xlink:href="#linearGradient3144"
       gradientUnits="userSpaceOnUse"
       gradientTransform="matrix(1,0,0,0.6985294,0,202.82863)" />
    <radialGradient
       cx="225.26402"
       cy="672.79736"
       r="34.345188"
       fx="225.26402"
       fy="672.79736"
       id="radialGradient3901"
       xlink:href="#linearGradient3144"
       gradientUnits="userSpaceOnUse"
       gradientTransform="matrix(1,0,0,0.6985294,0,202.82863)" />
    <radialGradient
       cx="225.26402"
       cy="672.79736"
       r="34.345188"
       fx="225.26402"
       fy="672.79736"
       id="radialGradient3910"
       xlink:href="#linearGradient3144"
       gradientUnits="userSpaceOnUse"
       gradientTransform="matrix(1,0,0,0.6985294,0,202.82863)" />
    <radialGradient
       cx="225.26402"
       cy="672.79736"
       r="34.345188"
       fx="225.26402"
       fy="672.79736"
       id="radialGradient3912"
       xlink:href="#linearGradient3144"
       gradientUnits="userSpaceOnUse"
       gradientTransform="matrix(1,0,0,0.6985294,0,202.82863)" />
    <radialGradient
       cx="225.26402"
       cy="672.79736"
       r="34.345188"
       fx="225.26402"
       fy="672.79736"
       id="radialGradient3022"
       xlink:href="#linearGradient3144"
       gradientUnits="userSpaceOnUse"
       gradientTransform="matrix(1,0,0,0.6985294,0,202.82863)" />
    <radialGradient
       cx="225.26402"
       cy="672.79736"
       r="34.345188"
       fx="225.26402"
       fy="672.79736"
       id="radialGradient3900"
       xlink:href="#linearGradient3144"
       gradientUnits="userSpaceOnUse"
       gradientTransform="matrix(1,0,0,0.6985294,0,202.82863)" />
    <radialGradient
       cx="225.26402"
       cy="672.79736"
       r="34.345188"
       fx="225.26402"
       fy="672.79736"
       id="radialGradient3902"
       xlink:href="#linearGradient3144"
       gradientUnits="userSpaceOnUse"
       gradientTransform="matrix(1,0,0,0.6985294,0,202.82863)" />
  </defs>
  <metadata
     id="metadata7">
    <rdf:RDF>
      <cc:Work
         rdf:about="">
        <dc:format>image/svg+xml</dc:format>
        <dc:type
           rdf:resource="http://purl.org/dc/dcmitype/StillImage" />
        <dc:title></dc:title>
      </cc:Work>
    </rdf:RDF>
  </metadata>
  <path
     d="M 25.6875,7.375 A 2.50025,2.50025 0 0 0 24.03125,8.28125 L 4.90625,30.6875 A 2.50025,2.50025 0 0 0 4.6875,33.625 L 20.09375,58.75 a 2.50025,2.50025 0 0 0 2.71875,1.125 L 51.5,52.96875 A 2.50025,2.50025 0 0 0 53.40625,50.75 L 55.1875,27.90625 A 7.2116405,7.0332467 0 0 0 60.40625,21.4375 7.2116405,7.0332467 0 0 0 48,16.3125 L 26.90625,7.59375 A 2.50025,2.50025 0 0 0 25.9375,7.375 a 2.50025,2.50025 0 0 0 -0.25,0 z m 0.96875,5.5 19.34375,8 a 7.2116405,7.0332467 0 0 0 4.1875,6.65625 L 48.53125,48.5625 23.4375,54.59375 9.90625,32.5625 26.65625,12.875 z m 4.9375,14.375 A 7.2116405,7.0332467 0 0 0 24.625,34 7.2116405,7.0332467 0 1 0 39.03125,34.5625 7.2116405,7.0332467 0 0 0 31.59375,27.25 z"
     id="path3915"
     style="fill:#000000;fill-opacity:0.58469944;fill-rule:nonzero;stroke:none;stroke-width:5.80000019;marker:none;visibility:visible;display:inline;overflow:visible;enable-background:accumulate" />
  <path
     inkscape:connector-curvature="0"
     style="color:#000000;font-style:normal;font-variant:normal;font-weight:normal;font-stretch:normal;font-size:medium;line-height:normal;font-family:Sans;-inkscape-font-specification:Sans;text-indent:0;text-align:start;text-decoration:none;text-decoration-line:none;letter-spacing:normal;word-spacing:normal;text-transform:none;direction:ltr;block-progression:tb;writing-mode:lr-tb;baseline-shift:baseline;text-anchor:start;display:inline;overflow:visible;visibility:visible;fill:#4040ff;fill-opacity:1;stroke:#000000;stroke-width:0.87;stroke-miterlimit:4;stroke-dasharray:none;stroke-opacity:1;marker:none;enable-background:accumulate"
     id="path3104"
     d="M 23.94958,2.875 A 2.50025,2.50025 0 0 0 22.04333,3.78125 L 2.9183295,26.1875 a 2.50025,2.50025 0 0 0 -0.21875,2.9375 L 18.10583,54.25 a 2.50025,2.50025 0 0 0 2.71875,1.125 l 28.6875,-6.90625 A 2.50025,2.50025 0 0 0 51.41833,46.25 l 2.28125,-29.40625 a 2.50025,2.50025 0 0 0 -1.53125,-2.5 l -27.25,-11.25 A 2.50025,2.50025 0 0 0 23.94958,2.875 Z m 0.71875,5.5 L 48.57458,18.25 46.54333,44.0625 21.44958,50.09375 7.9183295,28.0625 24.66833,8.375 Z" />
  <g
     id="g3038"
     transform="matrix(0.99742747,0,0,0.97275418,11.139278,-982.6724)">
    <path
       inkscape:connector-curvature="0"
       style="display:inline;overflow:visible;visibility:visible;fill:#ff2000;fill-opacity:1;fill-rule:nonzero;stroke:#000000;stroke-width:5.79999971;stroke-linecap:butt;stroke-linejoin:miter;stroke-miterlimit:4;stroke-dasharray:none;stroke-dashoffset:0;stroke-opacity:1;marker:none;enable-background:accumulate"
       id="path3040"
       transform="matrix(-0.14873711,-0.00599525,0.00599525,-0.14873711,44.131897,1139.4406)"
       d="m 245.71428,655.2193 a 48.57143,48.57143 0 1 1 -97.14286,0 48.57143,48.57143 0 1 1 97.14286,0 z" />
    <path
       inkscape:connector-curvature="0"
       style="fill:url(#radialGradient3902);fill-opacity:1;stroke:none"
       id="path3042"
       transform="matrix(-0.1297658,0.07293494,-0.07293494,-0.1297658,95.792839,1109.6127)"
       d="m 259.60921,672.79736 a 34.34519,23.991124 0 1 1 -68.69038,0 34.34519,23.991124 0 1 1 68.69038,0 z" />
  </g>
  <g
     id="g3044"
     transform="matrix(0.99742747,0,0,0.97275418,32.514946,-995.79158)">
    <path
       inkscape:connector-curvature="0"
       style="display:inline;overflow:visible;visibility:visible;fill:#ff2000;fill-opacity:1;fill-rule:nonzero;stroke:#000000;stroke-width:5.79999971;stroke-linecap:butt;stroke-linejoin:miter;stroke-miterlimit:4;stroke-dasharray:none;stroke-dashoffset:0;stroke-opacity:1;marker:none;enable-background:accumulate"
       id="path3046"
       transform="matrix(-0.14873711,-0.00599525,0.00599525,-0.14873711,44.131897,1139.4406)"
       d="m 245.71428,655.2193 a 48.57143,48.57143 0 1 1 -97.14286,0 48.57143,48.57143 0 1 1 97.14286,0 z" />
    <path
       inkscape:connector-curvature="0"
       style="fill:url(#radialGradient3900);fill-opacity:1;stroke:none"
       id="path3048"
       transform="matrix(-0.1297658,0.07293494,-0.07293494,-0.1297658,95.792839,1109.6127)"
       d="m 259.60921,672.79736 a 34.34519,23.991124 0 1 1 -68.69038,0 34.34519,23.991124 0 1 1 68.69038,0 z" />
  </g>
</svg>
