<?xml version="1.0" encoding="UTF-8" standalone="no"?>
<!-- Created with Inkscape (http://www.inkscape.org/) -->
<svg
   xmlns:dc="http://purl.org/dc/elements/1.1/"
   xmlns:cc="http://creativecommons.org/ns#"
   xmlns:rdf="http://www.w3.org/1999/02/22-rdf-syntax-ns#"
   xmlns:svg="http://www.w3.org/2000/svg"
   xmlns="http://www.w3.org/2000/svg"
   xmlns:xlink="http://www.w3.org/1999/xlink"
   xmlns:sodipodi="http://sodipodi.sourceforge.net/DTD/sodipodi-0.dtd"
   xmlns:inkscape="http://www.inkscape.org/namespaces/inkscape"
   width="64px"
   height="64px"
   id="svg3230"
   sodipodi:version="0.32"
   inkscape:version="0.46"
   sodipodi:docname="Sketcher_ConstrainCoincident.svg"
   inkscape:output_extension="org.inkscape.output.svg.inkscape">
  <defs
     id="defs3232">
    <linearGradient
       inkscape:collect="always"
       id="linearGradient3273">
      <stop
         style="stop-color:#ffffff;stop-opacity:1;"
         offset="0"
         id="stop3275" />
      <stop
         style="stop-color:#ffffff;stop-opacity:0;"
         offset="1"
         id="stop3277" />
    </linearGradient>
    <radialGradient
       inkscape:collect="always"
       xlink:href="#linearGradient3273"
       id="radialGradient2411"
       gradientUnits="userSpaceOnUse"
       gradientTransform="matrix(1,0,0,1.0807499,0,-44.646407)"
       cx="2787.5991"
       cy="552.89736"
       fx="2787.5991"
       fy="552.89736"
       r="38.829369" />
    <linearGradient
       inkscape:collect="always"
       xlink:href="#linearGradient3293"
       id="linearGradient2409"
       gradientUnits="userSpaceOnUse"
       gradientTransform="matrix(-1,0,0,-1,5656.8338,1408.2216)"
       x1="2754.6858"
       y1="671.11081"
       x2="2900.148"
       y2="671.11081" />
    <linearGradient
       inkscape:collect="always"
       xlink:href="#linearGradient3293"
       id="linearGradient2407"
       gradientUnits="userSpaceOnUse"
       gradientTransform="matrix(-1,0,0,-1,5656.8338,1376.2216)"
       x1="2754.6858"
       y1="671.11081"
       x2="2900.148"
       y2="671.11081" />
    <linearGradient
       inkscape:collect="always"
       id="linearGradient3293">
      <stop
         style="stop-color:#808000;stop-opacity:1;"
         offset="0"
         id="stop3295" />
      <stop
         style="stop-color:#808000;stop-opacity:0;"
         offset="1"
         id="stop3297" />
    </linearGradient>
    <linearGradient
       inkscape:collect="always"
       xlink:href="#linearGradient3293"
       id="linearGradient2405"
       gradientUnits="userSpaceOnUse"
       gradientTransform="matrix(-1,0,0,-1,5656.8338,1344.2216)"
       x1="2754.6858"
       y1="671.11081"
       x2="2900.148"
       y2="671.11081" />
    <linearGradient
       inkscape:collect="always"
       id="linearGradient3255">
      <stop
         style="stop-color:#ffffff;stop-opacity:1;"
         offset="0"
         id="stop3257" />
      <stop
         style="stop-color:#ffffff;stop-opacity:0;"
         offset="1"
         id="stop3259" />
    </linearGradient>
    <linearGradient
       inkscape:collect="always"
       xlink:href="#linearGradient3255"
       id="linearGradient2403"
       gradientUnits="userSpaceOnUse"
       gradientTransform="matrix(0.7802234,0,0,1,599.85156,0)"
       x1="2732.3571"
       y1="711.11219"
       x2="2839.0713"
       y2="711.11219" />
    <inkscape:perspective
       sodipodi:type="inkscape:persp3d"
       inkscape:vp_x="0 : 32 : 1"
       inkscape:vp_y="0 : 1000 : 0"
       inkscape:vp_z="64 : 32 : 1"
       inkscape:persp3d-origin="32 : 21.333333 : 1"
       id="perspective3238" />
    <radialGradient
       inkscape:collect="always"
       xlink:href="#linearGradient3273"
       id="radialGradient2409"
       gradientUnits="userSpaceOnUse"
       gradientTransform="matrix(0.6277815,0,0,0.6773261,1054.4347,158.6247)"
       cx="2787.5991"
       cy="552.89736"
       fx="2787.5991"
       fy="552.89736"
       r="38.829369" />
    <radialGradient
       inkscape:collect="always"
       xlink:href="#linearGradient3273"
       id="radialGradient2417"
       gradientUnits="userSpaceOnUse"
       gradientTransform="matrix(1.39911,0,0,1.5521852,-1121.8074,-398.3053)"
       cx="2787.5991"
       cy="552.89736"
       fx="2787.5991"
       fy="552.89736"
       r="38.829369" />
  </defs>
  <sodipodi:namedview
     id="base"
     pagecolor="#ffffff"
     bordercolor="#666666"
     borderopacity="1.0"
     inkscape:pageopacity="0.0"
     inkscape:pageshadow="2"
     inkscape:zoom="5.5"
     inkscape:cx="26.229024"
     inkscape:cy="26.419218"
     inkscape:current-layer="g2383"
     showgrid="true"
     inkscape:document-units="px"
     inkscape:grid-bbox="true"
     inkscape:window-width="1012"
     inkscape:window-height="722"
     inkscape:window-x="109"
     inkscape:window-y="25" />
  <metadata
     id="metadata3235">
    <rdf:RDF>
      <cc:Work
         rdf:about="">
        <dc:format>image/svg+xml</dc:format>
        <dc:type
           rdf:resource="http://purl.org/dc/dcmitype/StillImage" />
      </cc:Work>
    </rdf:RDF>
  </metadata>
  <g
     id="layer1"
     inkscape:label="Layer 1"
     inkscape:groupmode="layer">
    <g
       id="g2383"
       transform="matrix(0.1937875,0,0,0.1937875,-515.01651,-93.777617)"
       inkscape:export-filename="/home/yorik/Documents/Lab/Draft/icons/close.png"
       inkscape:export-xdpi="4.4961462"
       inkscape:export-ydpi="4.4961462">
      <g
         id="g2405"
         transform="matrix(1.5929109,0,0,1.5956124,-1679.6205,-297.74995)">
        <path
           style="fill:#ffd000;fill-opacity:1;fill-rule:evenodd;stroke:#000000;stroke-width:7.74043751;stroke-linecap:butt;stroke-linejoin:miter;marker:none;marker-start:none;marker-mid:none;marker-end:none;stroke-miterlimit:4;stroke-dasharray:none;stroke-dashoffset:0;stroke-opacity:1;visibility:visible;display:inline;overflow:visible;enable-background:accumulate"
           d="M 2824.8888,508.4852 C 2782.1638,508.48519 2747.3894,543.24098 2746.5573,586.39382 L 2746.5325,586.39382 L 2746.5325,587.98531 L 2746.5325,655.15135 L 2776.0746,655.15135 L 2776.0746,586.39382 L 2776.0249,586.39382 C 2777.2954,559.56146 2799.1518,538.17652 2825.9083,538.17652 C 2853.0136,538.17651 2875.0583,560.08689 2875.7917,587.4631 L 2876.0155,587.4631 L 2876.0155,654.82807 L 2903.3195,654.82807 L 2903.3195,585.87161 L 2903.1952,585.87161 C 2902.0773,542.90388 2867.4234,508.48521 2824.8888,508.4852 z"
           id="path2387" />
        <path
           style="fill:url(#radialGradient2409);fill-opacity:1;fill-rule:evenodd;stroke:none;stroke-width:1px;stroke-linecap:butt;stroke-linejoin:miter;stroke-opacity:1"
           d="M 2826.4285,510.93363 C 2826.4285,510.93363 2801.7856,510.57648 2784.6428,522.71934 C 2767.4999,534.8622 2758.9285,545.93363 2753.2142,563.07648 C 2747.4999,580.21934 2748.9285,590.93362 2748.9285,590.93362 L 2761.4285,594.8622 C 2761.4285,594.8622 2771.8749,595.84434 2773.5713,584.14791 C 2775.2612,572.49696 2776.6071,565.21933 2786.7857,553.79076 C 2796.9642,542.36219 2810.4463,537.27291 2819.9999,535.93363 C 2829.5108,534.60032 2828.2142,525.93363 2828.2142,525.93363 L 2826.4285,510.93363 z"
           id="path2401"
           sodipodi:nodetypes="csscczzzcc" />
      </g>
      <g
         id="g2411"
         transform="matrix(0.7147401,0,0,0.6962763,801.80049,232.68408)">
        <path
           style="fill:#ffd000;fill-opacity:1;fill-rule:evenodd;stroke:#000000;stroke-width:7.74043751;stroke-linecap:butt;stroke-linejoin:miter;marker:none;marker-start:none;marker-mid:none;marker-end:none;stroke-miterlimit:4;stroke-dasharray:none;stroke-dashoffset:0;stroke-opacity:1;visibility:visible;display:inline;overflow:visible;enable-background:accumulate"
           d="M 2824.8888,508.4852 C 2782.1638,508.48519 2747.3894,543.24098 2746.5573,586.39382 L 2746.5325,586.39382 L 2746.5325,587.98531 L 2746.5325,655.15135 L 2776.0746,655.15135 L 2776.0746,586.39382 L 2776.0249,586.39382 C 2777.2954,559.56146 2799.1518,538.17652 2825.9083,538.17652 C 2853.0136,538.17651 2875.0583,560.08689 2875.7917,587.4631 L 2876.0155,587.4631 L 2876.0155,654.82807 L 2903.3195,654.82807 L 2903.3195,585.87161 L 2903.1952,585.87161 C 2902.0773,542.90388 2867.4234,508.48521 2824.8888,508.4852 z"
           id="path2413" />
        <path
           style="fill:url(#radialGradient2417);fill-opacity:1;fill-rule:evenodd;stroke:none;stroke-width:1px;stroke-linecap:butt;stroke-linejoin:miter;stroke-opacity:1"
           d="M 2826.4285,510.93363 C 2826.4285,510.93363 2801.7856,510.57648 2784.6428,522.71934 C 2767.4999,534.8622 2758.9285,545.93363 2753.2142,563.07648 C 2747.4999,580.21934 2748.9285,590.93362 2748.9285,590.93362 L 2761.4285,594.8622 C 2761.4285,594.8622 2771.8749,595.84434 2773.5713,584.14791 C 2775.2612,572.49696 2776.6071,565.21933 2786.7857,553.79076 C 2796.9642,542.36219 2810.4463,537.27291 2819.9999,535.93363 C 2829.5108,534.60032 2828.2142,525.93363 2828.2142,525.93363 L 2826.4285,510.93363 z"
           id="path2415"
           sodipodi:nodetypes="csscczzzcc" />
      </g>
    </g>
  </g>
</svg>
