<?xml version="1.0" encoding="UTF-8" standalone="no"?>
<!-- Created with Inkscape (http://www.inkscape.org/) -->

<svg
   xmlns:dc="http://purl.org/dc/elements/1.1/"
   xmlns:cc="http://creativecommons.org/ns#"
   xmlns:rdf="http://www.w3.org/1999/02/22-rdf-syntax-ns#"
   xmlns:svg="http://www.w3.org/2000/svg"
   xmlns="http://www.w3.org/2000/svg"
   xmlns:xlink="http://www.w3.org/1999/xlink"
   xmlns:sodipodi="http://sodipodi.sourceforge.net/DTD/sodipodi-0.dtd"
   xmlns:inkscape="http://www.inkscape.org/namespaces/inkscape"
   width="64px"
   height="64px"
   id="svg2816"
   version="1.1"
   inkscape:version="0.48.4 r9939"
   sodipodi:docname="Sketcher_Toggle_Constraint_Driving.svg">
  <defs
     id="defs2818">
    <linearGradient
       id="linearGradient3602">
      <stop
         style="stop-color:#ff2600;stop-opacity:1;"
         offset="0"
         id="stop3604" />
      <stop
         style="stop-color:#ff5f00;stop-opacity:1;"
         offset="1"
         id="stop3606" />
    </linearGradient>
    <inkscape:perspective
       sodipodi:type="inkscape:persp3d"
       inkscape:vp_x="0 : 32 : 1"
       inkscape:vp_y="0 : 1000 : 0"
       inkscape:vp_z="64 : 32 : 1"
       inkscape:persp3d-origin="32 : 21.333333 : 1"
       id="perspective2824" />
    <linearGradient
       inkscape:collect="always"
       xlink:href="#linearGradient3602"
       id="linearGradient3608"
       x1="3.909091"
       y1="14.363636"
       x2="24.818181"
       y2="14.363636"
       gradientUnits="userSpaceOnUse" />
    <inkscape:perspective
       id="perspective3618"
       inkscape:persp3d-origin="0.5 : 0.33333333 : 1"
       inkscape:vp_z="1 : 0.5 : 1"
       inkscape:vp_y="0 : 1000 : 0"
       inkscape:vp_x="0 : 0.5 : 1"
       sodipodi:type="inkscape:persp3d" />
    <linearGradient
       inkscape:collect="always"
       xlink:href="#linearGradient3602-7"
       id="linearGradient3608-5"
       x1="3.909091"
       y1="14.363636"
       x2="24.81818"
       y2="14.363636"
       gradientUnits="userSpaceOnUse" />
    <linearGradient
       id="linearGradient3602-7">
      <stop
         style="stop-color:#c51900;stop-opacity:1;"
         offset="0"
         id="stop3604-1" />
      <stop
         style="stop-color:#ff5f00;stop-opacity:1;"
         offset="1"
         id="stop3606-3" />
    </linearGradient>
    <inkscape:perspective
       id="perspective3677"
       inkscape:persp3d-origin="0.5 : 0.33333333 : 1"
       inkscape:vp_z="1 : 0.5 : 1"
       inkscape:vp_y="0 : 1000 : 0"
       inkscape:vp_x="0 : 0.5 : 1"
       sodipodi:type="inkscape:persp3d" />
    <linearGradient
       inkscape:collect="always"
       xlink:href="#linearGradient3602-5"
       id="linearGradient3608-1"
       x1="3.909091"
       y1="14.363636"
       x2="24.81818"
       y2="14.363636"
       gradientUnits="userSpaceOnUse" />
    <linearGradient
       id="linearGradient3602-5">
      <stop
         style="stop-color:#c51900;stop-opacity:1;"
         offset="0"
         id="stop3604-9" />
      <stop
         style="stop-color:#ff5f00;stop-opacity:1;"
         offset="1"
         id="stop3606-9" />
    </linearGradient>
    <linearGradient
       y2="14.363636"
       x2="24.81818"
       y1="14.363636"
       x1="3.909091"
       gradientUnits="userSpaceOnUse"
       id="linearGradient3686"
       xlink:href="#linearGradient3602-5"
       inkscape:collect="always" />
    <inkscape:perspective
       id="perspective3717"
       inkscape:persp3d-origin="0.5 : 0.33333333 : 1"
       inkscape:vp_z="1 : 0.5 : 1"
       inkscape:vp_y="0 : 1000 : 0"
       inkscape:vp_x="0 : 0.5 : 1"
       sodipodi:type="inkscape:persp3d" />
    <linearGradient
       inkscape:collect="always"
       xlink:href="#linearGradient3602-58"
       id="linearGradient3608-8"
       x1="3.909091"
       y1="14.363636"
       x2="24.81818"
       y2="14.363636"
       gradientUnits="userSpaceOnUse" />
    <linearGradient
       id="linearGradient3602-58">
      <stop
         style="stop-color:#c51900;stop-opacity:1;"
         offset="0"
         id="stop3604-2" />
      <stop
         style="stop-color:#ff5f00;stop-opacity:1;"
         offset="1"
         id="stop3606-2" />
    </linearGradient>
    <linearGradient
       y2="14.363636"
       x2="24.81818"
       y1="14.363636"
       x1="3.909091"
       gradientUnits="userSpaceOnUse"
       id="linearGradient3726"
       xlink:href="#linearGradient3602-58"
       inkscape:collect="always" />
    <inkscape:perspective
       id="perspective4410"
       inkscape:persp3d-origin="0.5 : 0.33333333 : 1"
       inkscape:vp_z="1 : 0.5 : 1"
       inkscape:vp_y="0 : 1000 : 0"
       inkscape:vp_x="0 : 0.5 : 1"
       sodipodi:type="inkscape:persp3d" />
    <inkscape:perspective
       id="perspective4944"
       inkscape:persp3d-origin="0.5 : 0.33333333 : 1"
       inkscape:vp_z="1 : 0.5 : 1"
       inkscape:vp_y="0 : 1000 : 0"
       inkscape:vp_x="0 : 0.5 : 1"
       sodipodi:type="inkscape:persp3d" />
    <inkscape:perspective
       id="perspective4966"
       inkscape:persp3d-origin="0.5 : 0.33333333 : 1"
       inkscape:vp_z="1 : 0.5 : 1"
       inkscape:vp_y="0 : 1000 : 0"
       inkscape:vp_x="0 : 0.5 : 1"
       sodipodi:type="inkscape:persp3d" />
    <inkscape:perspective
       id="perspective5009"
       inkscape:persp3d-origin="0.5 : 0.33333333 : 1"
       inkscape:vp_z="1 : 0.5 : 1"
       inkscape:vp_y="0 : 1000 : 0"
       inkscape:vp_x="0 : 0.5 : 1"
       sodipodi:type="inkscape:persp3d" />
    <inkscape:perspective
       id="perspective5165"
       inkscape:persp3d-origin="0.5 : 0.33333333 : 1"
       inkscape:vp_z="1 : 0.5 : 1"
       inkscape:vp_y="0 : 1000 : 0"
       inkscape:vp_x="0 : 0.5 : 1"
       sodipodi:type="inkscape:persp3d" />
    <inkscape:perspective
       id="perspective2850"
       inkscape:persp3d-origin="0.5 : 0.33333333 : 1"
       inkscape:vp_z="1 : 0.5 : 1"
       inkscape:vp_y="0 : 1000 : 0"
       inkscape:vp_x="0 : 0.5 : 1"
       sodipodi:type="inkscape:persp3d" />
    <filter
       inkscape:collect="always"
       id="filter3651">
      <feGaussianBlur
         inkscape:collect="always"
         stdDeviation="0.75623179"
         id="feGaussianBlur3653" />
    </filter>
    <filter
       inkscape:collect="always"
       id="filter3651-2">
      <feGaussianBlur
         inkscape:collect="always"
         stdDeviation="0.75623179"
         id="feGaussianBlur3653-9" />
    </filter>
  </defs>
  <sodipodi:namedview
     id="base"
     pagecolor="#ffffff"
     bordercolor="#666666"
     borderopacity="1.0"
     inkscape:pageopacity="0.0"
     inkscape:pageshadow="2"
     inkscape:zoom="5.4999999"
     inkscape:cx="40.22559"
     inkscape:cy="31.296241"
     inkscape:current-layer="g12536"
     showgrid="true"
     inkscape:document-units="px"
     inkscape:grid-bbox="true"
     inkscape:window-width="731"
     inkscape:window-height="563"
     inkscape:window-x="547"
     inkscape:window-y="52"
     inkscape:window-maximized="0"
     showguides="true"
     inkscape:guide-bbox="true" />
  <metadata
     id="metadata2821">
    <rdf:RDF>
      <cc:Work
         rdf:about="">
        <dc:format>image/svg+xml</dc:format>
        <dc:type
           rdf:resource="http://purl.org/dc/dcmitype/StillImage" />
        <dc:title></dc:title>
      </cc:Work>
    </rdf:RDF>
  </metadata>
  <g
     id="layer1"
     inkscape:label="Layer 1"
     inkscape:groupmode="layer"
     style="display:none">
    <path
       sodipodi:nodetypes="ccccccccccccccccccccc"
       id="path2845"
       d="m 9.2298766,21.579936 c -0.080714,-1.77e-4 -0.1567867,0.137412 -0.1568273,0.309354 l 0,27.403601 c -4.05e-5,0.171941 0.076113,0.309177 0.1568273,0.309354 l 6.1631444,0.02578 0,-11.189297 c 3.2e-5,-0.118391 0.03042,-0.206358 0.0941,-0.206236 l 40.775434,0.07734 c 0.06368,1.22e-4 0.09413,0.08785 0.0941,0.206236 l 0,11.189298 6.163145,0.02578 c 0.08071,1.77e-4 0.156787,-0.137412 0.156827,-0.309354 l 0,-27.403601 c 4e-5,-0.171941 -0.07611,-0.309177 -0.156827,-0.309354 l -6.163145,-0.02578 0,11.189297 c -3.2e-5,0.118391 -0.03042,0.206358 -0.0941,0.206236 L 15.487121,33.00125 c -0.06368,-1.22e-4 -0.09413,-0.08784 -0.0941,-0.206236 l 0,-11.189298 -6.1631444,-0.02578 z"
       style="color:#000000;display:inline;overflow:visible;visibility:visible;opacity:0.6;fill:#000000;fill-opacity:1;fill-rule:nonzero;stroke:none;stroke-width:2.19099998;marker:none;filter:url(#filter3651);enable-background:accumulate"
       transform="matrix(0,-1,1,0,0.21929715,71.530379)"
       inkscape:connector-curvature="0" />
    <path
       style="color:#000000;display:inline;overflow:visible;visibility:visible;fill:#ff2600;fill-opacity:1;fill-rule:nonzero;stroke:#731200;stroke-width:2.19099998;stroke-linecap:square;stroke-linejoin:round;stroke-miterlimit:4;stroke-dasharray:none;stroke-dashoffset:0;stroke-opacity:1;marker:none;enable-background:accumulate"
       d="m 18.065024,58.738714 c -1.77e-4,0.08071 0.137412,0.156786 0.309354,0.156827 l 27.403601,0 c 0.171941,4.1e-5 0.309177,-0.07611 0.309354,-0.156827 l 0.02578,-6.163145 -11.189297,0 c -0.118391,-3.2e-5 -0.206358,-0.03042 -0.206236,-0.0941 l 0.07734,-40.775434 c 1.22e-4,-0.06368 0.08785,-0.09413 0.206236,-0.0941 l 11.189298,0 0.02578,-6.1631451 c 1.77e-4,-0.08071 -0.137412,-0.156787 -0.309354,-0.156827 l -27.403601,0 c -0.171941,-4e-5 -0.309177,0.07611 -0.309354,0.156827 l -0.02578,6.1631451 11.189297,0 c 0.118391,3.2e-5 0.206358,0.03042 0.206236,0.0941 l -0.07734,40.775434 c -1.22e-4,0.06368 -0.08784,0.09413 -0.206236,0.0941 l -11.189298,0 -0.02578,6.163145 z"
       id="rect3770"
       sodipodi:nodetypes="ccccccccccccccccccccc"
       inkscape:connector-curvature="0" />
  </g>
  <g
     inkscape:groupmode="layer"
     inkscape:label="Layer 1 copy"
     id="g12536">
    <path
       transform="matrix(0,-0.82336199,0.56779048,0,0.4742215,63.193519)"
       style="opacity:0.6;color:#000000;fill:#000000;fill-opacity:1;fill-rule:nonzero;stroke:none;stroke-width:2.19099998;marker:none;visibility:visible;display:inline;overflow:visible;filter:url(#filter3651);enable-background:accumulate"
       d="m 9.2298766,21.579936 c -0.080714,-1.77e-4 -0.1567867,0.137412 -0.1568273,0.309354 l 0,27.403601 c -4.05e-5,0.171941 0.076113,0.309177 0.1568273,0.309354 l 6.1631444,0.02578 0,-11.189297 c 3.2e-5,-0.118391 0.03042,-0.206358 0.0941,-0.206236 l 40.775434,0.07734 c 0.06368,1.22e-4 0.09413,0.08785 0.0941,0.206236 l 0,11.189298 6.163145,0.02578 c 0.08071,1.77e-4 0.156787,-0.137412 0.156827,-0.309354 l 0,-27.403601 c 4e-5,-0.171941 -0.07611,-0.309177 -0.156827,-0.309354 l -6.163145,-0.02578 0,11.189297 c -3.2e-5,0.118391 -0.03042,0.206358 -0.0941,0.206236 L 15.487121,33.00125 c -0.06368,-1.22e-4 -0.09413,-0.08784 -0.0941,-0.206236 l 0,-11.189298 -6.1631444,-0.02578 z"
       id="path12538"
       sodipodi:nodetypes="ccccccccccccccccccccc"
       inkscape:connector-curvature="0" />
    <path
       sodipodi:nodetypes="ccccccccccccccccccccc"
       id="path12540"
       d="m 10.606856,52.661348 c -1.02e-4,0.06645 0.07803,0.129092 0.175648,0.129125 l 15.559502,0 c 0.09762,3.4e-5 0.175548,-0.06266 0.175649,-0.129125 l 0.01463,-5.074499 -6.353177,0 c -0.06722,-2.6e-5 -0.117168,-0.02504 -0.117098,-0.07748 l 0.04392,-33.572942 c 6.9e-5,-0.05244 0.04988,-0.07751 0.117098,-0.07748 l 6.353177,0 0.01463,-5.0745002 c 1.02e-4,-0.066452 -0.07803,-0.1290924 -0.175648,-0.1291254 l -15.559503,0 c -0.09762,-3.31e-5 -0.175548,0.062665 -0.175648,0.1291254 l -0.01464,5.0745002 6.353177,0 c 0.06723,2.6e-5 0.117168,0.02505 0.117098,0.07748 l -0.04391,33.57294 c -6.9e-5,0.05243 -0.04987,0.07751 -0.117098,0.07748 l -6.353177,0 -0.01464,5.074499 z"
       style="color:#000000;fill:#808080;fill-opacity:1;fill-rule:nonzero;stroke:#731200;stroke-width:1.49806916999999995;stroke-linecap:square;stroke-linejoin:round;stroke-miterlimit:4;stroke-opacity:1;stroke-dasharray:none;stroke-dashoffset:0;marker:none;visibility:visible;display:inline;overflow:visible;enable-background:accumulate"
       inkscape:connector-curvature="0" />
    <path
       transform="matrix(0,-0.82336199,0.56779048,0,25.481476,63.174341)"
       style="opacity:0.6;color:#000000;fill:#000000;fill-opacity:1;fill-rule:nonzero;stroke:none;stroke-width:2.19099998;marker:none;visibility:visible;display:inline;overflow:visible;filter:url(#filter3651-2);enable-background:accumulate"
       d="m 9.2298766,21.579936 c -0.080714,-1.77e-4 -0.1567867,0.137412 -0.1568273,0.309354 l 0,27.403601 c -4.05e-5,0.171941 0.076113,0.309177 0.1568273,0.309354 l 6.1631444,0.02578 0,-11.189297 c 3.2e-5,-0.118391 0.03042,-0.206358 0.0941,-0.206236 l 40.775434,0.07734 c 0.06368,1.22e-4 0.09413,0.08785 0.0941,0.206236 l 0,11.189298 6.163145,0.02578 c 0.08071,1.77e-4 0.156787,-0.137412 0.156827,-0.309354 l 0,-27.403601 c 4e-5,-0.171941 -0.07611,-0.309177 -0.156827,-0.309354 l -6.163145,-0.02578 0,11.189297 c -3.2e-5,0.118391 -0.03042,0.206358 -0.0941,0.206236 L 15.487121,33.00125 c -0.06368,-1.22e-4 -0.09413,-0.08784 -0.0941,-0.206236 l 0,-11.189298 -6.1631444,-0.02578 z"
       id="path12538-9"
       sodipodi:nodetypes="ccccccccccccccccccccc"
       inkscape:connector-curvature="0" />
    <path
       sodipodi:nodetypes="ccccccccccccccccccccc"
       id="path12540-7"
       d="m 35.61411,52.64217 c -1.02e-4,0.06645 0.07803,0.129092 0.175648,0.129125 l 15.559502,0 c 0.09762,3.4e-5 0.175548,-0.06266 0.175649,-0.129125 l 0.01463,-5.074499 -6.353177,0 c -0.06722,-2.6e-5 -0.117168,-0.02504 -0.117098,-0.07748 l 0.04392,-33.572942 c 6.9e-5,-0.05244 0.04988,-0.07751 0.117098,-0.07748 l 6.353177,0 0.01463,-5.0744997 c 1.02e-4,-0.06645 -0.07803,-0.129092 -0.175648,-0.129125 l -15.559503,0 c -0.09762,-3.4e-5 -0.175548,0.06267 -0.175648,0.129125 l -0.01464,5.0744997 6.353177,0 c 0.06723,2.6e-5 0.117168,0.02505 0.117098,0.07748 l -0.04391,33.57294 c -6.9e-5,0.05243 -0.04987,0.07751 -0.117098,0.07748 l -6.353177,0 -0.01464,5.074499 z"
       style="color:#000000;fill:#0000ff;fill-opacity:1;fill-rule:nonzero;stroke:#1a1a1a;stroke-width:1.49806917;stroke-linecap:square;stroke-linejoin:round;stroke-miterlimit:4;stroke-opacity:1;stroke-dasharray:none;stroke-dashoffset:0;marker:none;visibility:visible;display:inline;overflow:visible;enable-background:accumulate"
       inkscape:connector-curvature="0" />
  </g>
</svg>
