<?xml version="1.0" encoding="UTF-8" standalone="no"?>
<!-- Created with Inkscape (http://www.inkscape.org/) -->

<svg
   xmlns:dc="http://purl.org/dc/elements/1.1/"
   xmlns:cc="http://creativecommons.org/ns#"
   xmlns:rdf="http://www.w3.org/1999/02/22-rdf-syntax-ns#"
   xmlns:svg="http://www.w3.org/2000/svg"
   xmlns="http://www.w3.org/2000/svg"
   xmlns:xlink="http://www.w3.org/1999/xlink"
   xmlns:sodipodi="http://sodipodi.sourceforge.net/DTD/sodipodi-0.dtd"
   xmlns:inkscape="http://www.inkscape.org/namespaces/inkscape"
   width="64px"
   height="64px"
   id="svg2869"
   sodipodi:version="0.32"
   inkscape:version="0.48.4 r9939"
   sodipodi:docname="Sketcher_Element_Arc_EndPoint.svg"
   inkscape:output_extension="org.inkscape.output.svg.inkscape"
   version="1.1">
  <defs
     id="defs2871">
    <linearGradient
       inkscape:collect="always"
       id="linearGradient3144">
      <stop
         style="stop-color:#ffffff;stop-opacity:1;"
         offset="0"
         id="stop3146" />
      <stop
         style="stop-color:#ffffff;stop-opacity:0;"
         offset="1"
         id="stop3148" />
    </linearGradient>
    <inkscape:perspective
       sodipodi:type="inkscape:persp3d"
       inkscape:vp_x="0 : 32 : 1"
       inkscape:vp_y="0 : 1000 : 0"
       inkscape:vp_z="64 : 32 : 1"
       inkscape:persp3d-origin="32 : 21.333333 : 1"
       id="perspective2877" />
    <radialGradient
       inkscape:collect="always"
       xlink:href="#linearGradient3144"
       id="radialGradient5114"
       gradientUnits="userSpaceOnUse"
       gradientTransform="matrix(1,0,0,0.6985294,0,202.82863)"
       cx="225.26402"
       cy="672.79736"
       fx="225.26402"
       fy="672.79736"
       r="34.345188" />
    <radialGradient
       inkscape:collect="always"
       xlink:href="#linearGradient3144"
       id="radialGradient5118"
       gradientUnits="userSpaceOnUse"
       gradientTransform="matrix(1,0,0,0.6985294,0,202.82863)"
       cx="225.26402"
       cy="672.79736"
       fx="225.26402"
       fy="672.79736"
       r="34.345188" />
    <radialGradient
       inkscape:collect="always"
       xlink:href="#linearGradient3144"
       id="radialGradient5130"
       gradientUnits="userSpaceOnUse"
       gradientTransform="matrix(1,0,0,0.6985294,0,202.82863)"
       cx="225.26402"
       cy="672.79736"
       fx="225.26402"
       fy="672.79736"
       r="34.345188" />
    <radialGradient
       inkscape:collect="always"
       xlink:href="#linearGradient3144"
       id="radialGradient3112"
       gradientUnits="userSpaceOnUse"
       gradientTransform="matrix(1,0,0,0.6985294,0,202.82863)"
       cx="225.26402"
       cy="672.79736"
       fx="225.26402"
       fy="672.79736"
       r="34.345188" />
    <radialGradient
       inkscape:collect="always"
       xlink:href="#linearGradient3144"
       id="radialGradient3114"
       gradientUnits="userSpaceOnUse"
       gradientTransform="matrix(1,0,0,0.6985294,0,202.82863)"
       cx="225.26402"
       cy="672.79736"
       fx="225.26402"
       fy="672.79736"
       r="34.345188" />
    <radialGradient
       inkscape:collect="always"
       xlink:href="#linearGradient3144"
       id="radialGradient3116"
       gradientUnits="userSpaceOnUse"
       gradientTransform="matrix(1,0,0,0.6985294,0,202.82863)"
       cx="225.26402"
       cy="672.79736"
       fx="225.26402"
       fy="672.79736"
       r="34.345188" />
  </defs>
  <sodipodi:namedview
     id="base"
     pagecolor="#ffffff"
     bordercolor="#666666"
     borderopacity="1.0"
     inkscape:pageopacity="0.0"
     inkscape:pageshadow="2"
     inkscape:zoom="5.5"
     inkscape:cx="33.546327"
     inkscape:cy="31.348642"
     inkscape:current-layer="layer1"
     showgrid="true"
     inkscape:document-units="px"
     inkscape:grid-bbox="true"
     inkscape:window-width="1680"
     inkscape:window-height="995"
     inkscape:window-x="-2"
     inkscape:window-y="-3"
     inkscape:window-maximized="1" />
  <metadata
     id="metadata2874">
    <rdf:RDF>
      <cc:Work
         rdf:about="">
        <dc:format>image/svg+xml</dc:format>
        <dc:type
           rdf:resource="http://purl.org/dc/dcmitype/StillImage" />
        <dc:title />
      </cc:Work>
    </rdf:RDF>
  </metadata>
  <g
     id="layer1"
     inkscape:label="Layer 1"
     inkscape:groupmode="layer">
    <g
       id="g3102"
       transform="translate(0.90909091,1.6363636)">
      <path
         inkscape:connector-curvature="0"
         id="path2380"
         d="m 10.016755,9.7903906 0,4.6947244 c 20.78437,0.15052 37.603596,16.223507 37.603596,36.00968 0,0.02271 3.8e-5,0.04244 0,0.06412 l 4.690144,0.0458 c 0.0015,-0.141997 0,-0.261059 0,-0.403059 0,-22.306658 -18.946877,-40.411269 -42.29374,-40.4112704 z"
         style="fill:#ffffff;fill-opacity:1;fill-rule:evenodd;stroke:#000000;stroke-width:0.85008866;stroke-linecap:butt;stroke-linejoin:miter;stroke-miterlimit:4;stroke-opacity:1;stroke-dasharray:none;stroke-dashoffset:0;marker:none;visibility:visible;display:inline;overflow:visible;enable-background:accumulate" />
      <g
         inkscape:export-ydpi="7.0721951"
         inkscape:export-xdpi="7.0721951"
         inkscape:export-filename="/home/yorik/Documents/Lab/Draft/icons/line.png"
         transform="matrix(-0.14651449,0.00392289,-0.00392289,-0.14651449,41.790278,144.30435)"
         id="g2331">
        <path
           sodipodi:type="arc"
           style="fill:#ff2000;fill-opacity:1;stroke:#000000;stroke-width:5.80000019;stroke-miterlimit:4;stroke-opacity:1;stroke-dasharray:none"
           id="path2333"
           sodipodi:cx="197.14285"
           sodipodi:cy="655.2193"
           sodipodi:rx="48.57143"
           sodipodi:ry="48.57143"
           d="m 245.71428,655.2193 c 0,26.82526 -21.74617,48.57143 -48.57143,48.57143 -26.82526,0 -48.57143,-21.74617 -48.57143,-48.57143 0,-26.82526 21.74617,-48.57143 48.57143,-48.57143 26.82526,0 48.57143,21.74617 48.57143,48.57143 z" />
        <path
           sodipodi:type="arc"
           style="fill:url(#radialGradient3112);fill-opacity:1;stroke:none"
           id="path2335"
           sodipodi:cx="225.26402"
           sodipodi:cy="672.79736"
           sodipodi:rx="34.345188"
           sodipodi:ry="23.991123"
           d="m 259.60921,672.79736 c 0,13.24993 -15.37686,23.99113 -34.34519,23.99113 -18.96832,0 -34.34519,-10.7412 -34.34519,-23.99113 0,-13.24993 15.37687,-23.99112 34.34519,-23.99112 18.96833,0 34.34519,10.74119 34.34519,23.99112 z"
           transform="matrix(0.8513023,-0.5246754,0.5246754,0.8513023,-338.69692,214.19328)" />
      </g>
      <path
         transform="matrix(-0.14652919,-0.00332905,0.00332905,-0.14652919,36.886248,108.19492)"
         d="m 245.71428,655.2193 c 0,26.82526 -21.74617,48.57143 -48.57143,48.57143 -26.82526,0 -48.57143,-21.74617 -48.57143,-48.57143 0,-26.82526 21.74617,-48.57143 48.57143,-48.57143 26.82526,0 48.57143,21.74617 48.57143,48.57143 z"
         sodipodi:ry="48.57143"
         sodipodi:rx="48.57143"
         sodipodi:cy="655.2193"
         sodipodi:cx="197.14285"
         id="path2339"
         style="fill:#ff2000;fill-opacity:1;fill-rule:nonzero;stroke:#000000;stroke-width:5.80000019;stroke-linecap:butt;stroke-linejoin:miter;stroke-miterlimit:4;stroke-opacity:1;stroke-dasharray:none;stroke-dashoffset:0;marker:none;visibility:visible;display:inline;overflow:visible;enable-background:accumulate"
         sodipodi:type="arc" />
      <path
         transform="matrix(-0.12648731,0.07404623,-0.07404623,-0.12648731,87.228293,77.936891)"
         d="m 259.60921,672.79736 c 0,13.24993 -15.37686,23.99113 -34.34519,23.99113 -18.96832,0 -34.34519,-10.7412 -34.34519,-23.99113 0,-13.24993 15.37687,-23.99112 34.34519,-23.99112 18.96833,0 34.34519,10.74119 34.34519,23.99112 z"
         sodipodi:ry="23.991123"
         sodipodi:rx="34.345188"
         sodipodi:cy="672.79736"
         sodipodi:cx="225.26402"
         id="path2341"
         style="fill:url(#radialGradient3114);fill-opacity:1;stroke:none"
         sodipodi:type="arc" />
      <path
         transform="matrix(-0.14651449,0.00392289,-0.00392289,-0.14651449,82.129327,144.48617)"
         d="m 245.71428,655.2193 c 0,26.82526 -21.74617,48.57143 -48.57143,48.57143 -26.82526,0 -48.57143,-21.74617 -48.57143,-48.57143 0,-26.82526 21.74617,-48.57143 48.57143,-48.57143 26.82526,0 48.57143,21.74617 48.57143,48.57143 z"
         sodipodi:ry="48.57143"
         sodipodi:rx="48.57143"
         sodipodi:cy="655.2193"
         sodipodi:cx="197.14285"
         id="path2374"
         style="fill:#008900;fill-opacity:1;stroke:#000000;stroke-width:5.80000019;stroke-miterlimit:4;stroke-opacity:1;stroke-dasharray:none"
         sodipodi:type="arc" />
      <path
         transform="matrix(-0.12266988,0.08021211,-0.08021211,-0.12266988,130.91308,111.77508)"
         d="m 259.60921,672.79736 c 0,13.24993 -15.37686,23.99113 -34.34519,23.99113 -18.96832,0 -34.34519,-10.7412 -34.34519,-23.99113 0,-13.24993 15.37687,-23.99112 34.34519,-23.99112 18.96833,0 34.34519,10.74119 34.34519,23.99112 z"
         sodipodi:ry="23.991123"
         sodipodi:rx="34.345188"
         sodipodi:cy="672.79736"
         sodipodi:cx="225.26402"
         id="path2376"
         style="fill:url(#radialGradient3116);fill-opacity:1;stroke:none"
         sodipodi:type="arc" />
    </g>
  </g>
</svg>
