<?xml version="1.0" encoding="UTF-8" standalone="no"?>
<!-- Created with Inkscape (http://www.inkscape.org/) -->

<svg
   xmlns:dc="http://purl.org/dc/elements/1.1/"
   xmlns:cc="http://creativecommons.org/ns#"
   xmlns:rdf="http://www.w3.org/1999/02/22-rdf-syntax-ns#"
   xmlns:svg="http://www.w3.org/2000/svg"
   xmlns="http://www.w3.org/2000/svg"
   xmlns:xlink="http://www.w3.org/1999/xlink"
   xmlns:sodipodi="http://sodipodi.sourceforge.net/DTD/sodipodi-0.dtd"
   xmlns:inkscape="http://www.inkscape.org/namespaces/inkscape"
   width="64px"
   height="64px"
   id="svg2869"
   sodipodi:version="0.32"
   inkscape:version="0.91 r"
   sodipodi:docname="Sketcher_Create3PointArc_Constr.svg"
   inkscape:output_extension="org.inkscape.output.svg.inkscape"
   version="1.1"
   inkscape:export-filename="/home/user/Downloads/cad/mystuff/icons/sketcher/Sketcher_Create_Arc_from_3_points_16px.png"
   inkscape:export-xdpi="22.5"
   inkscape:export-ydpi="22.5">
  <defs
     id="defs2871">
    <radialGradient
       inkscape:collect="always"
       xlink:href="#linearGradient3144"
       id="radialGradient2378"
       gradientUnits="userSpaceOnUse"
       gradientTransform="matrix(1,0,0,0.6985294,0,202.82863)"
       cx="225.26402"
       cy="672.79736"
       fx="225.26402"
       fy="672.79736"
       r="34.345188" />
    <radialGradient
       inkscape:collect="always"
       xlink:href="#linearGradient3144"
       id="radialGradient2368"
       gradientUnits="userSpaceOnUse"
       gradientTransform="matrix(1,0,0,0.6985294,0,202.82863)"
       cx="225.26402"
       cy="672.79736"
       fx="225.26402"
       fy="672.79736"
       r="34.345188" />
    <linearGradient
       inkscape:collect="always"
       id="linearGradient3144">
      <stop
         style="stop-color:#ffffff;stop-opacity:1;"
         offset="0"
         id="stop3146" />
      <stop
         style="stop-color:#ffffff;stop-opacity:0;"
         offset="1"
         id="stop3148" />
    </linearGradient>
    <radialGradient
       inkscape:collect="always"
       xlink:href="#linearGradient3144"
       id="radialGradient2370"
       gradientUnits="userSpaceOnUse"
       gradientTransform="matrix(1,0,0,0.6985294,0,202.82863)"
       cx="225.26402"
       cy="672.79736"
       fx="225.26402"
       fy="672.79736"
       r="34.345188" />
    <inkscape:perspective
       sodipodi:type="inkscape:persp3d"
       inkscape:vp_x="0 : 32 : 1"
       inkscape:vp_y="0 : 1000 : 0"
       inkscape:vp_z="64 : 32 : 1"
       inkscape:persp3d-origin="32 : 21.333333 : 1"
       id="perspective2877" />
    <radialGradient
       inkscape:collect="always"
       xlink:href="#linearGradient3144"
       id="radialGradient3014"
       gradientUnits="userSpaceOnUse"
       gradientTransform="matrix(1,0,0,0.6985294,0,202.82863)"
       cx="225.26402"
       cy="672.79736"
       fx="225.26402"
       fy="672.79736"
       r="34.345188" />
    <radialGradient
       inkscape:collect="always"
       xlink:href="#linearGradient3144"
       id="radialGradient3016"
       gradientUnits="userSpaceOnUse"
       gradientTransform="matrix(1,0,0,0.6985294,0,202.82863)"
       cx="225.26402"
       cy="672.79736"
       fx="225.26402"
       fy="672.79736"
       r="34.345188" />
    <radialGradient
       inkscape:collect="always"
       xlink:href="#linearGradient3144"
       id="radialGradient3018"
       gradientUnits="userSpaceOnUse"
       gradientTransform="matrix(1,0,0,0.6985294,0,202.82863)"
       cx="225.26402"
       cy="672.79736"
       fx="225.26402"
       fy="672.79736"
       r="34.345188" />
    <radialGradient
       inkscape:collect="always"
       xlink:href="#linearGradient3144"
       id="radialGradient3040"
       gradientUnits="userSpaceOnUse"
       gradientTransform="matrix(1,0,0,0.6985294,0,202.82863)"
       cx="225.26402"
       cy="672.79736"
       fx="225.26402"
       fy="672.79736"
       r="34.345188" />
    <radialGradient
       inkscape:collect="always"
       xlink:href="#linearGradient3144"
       id="radialGradient3048"
       gradientUnits="userSpaceOnUse"
       gradientTransform="matrix(1,0,0,0.6985294,0,202.82863)"
       cx="225.26402"
       cy="672.79736"
       fx="225.26402"
       fy="672.79736"
       r="34.345188" />
    <radialGradient
       inkscape:collect="always"
       xlink:href="#linearGradient3144"
       id="radialGradient3054"
       gradientUnits="userSpaceOnUse"
       gradientTransform="matrix(1,0,0,0.6985294,0,202.82863)"
       cx="225.26402"
       cy="672.79736"
       fx="225.26402"
       fy="672.79736"
       r="34.345188" />
  </defs>
  <sodipodi:namedview
     id="base"
     pagecolor="#ffffff"
     bordercolor="#666666"
     borderopacity="1.0"
     inkscape:pageopacity="0.0"
     inkscape:pageshadow="2"
     inkscape:zoom="41.205322"
     inkscape:cx="16.222779"
     inkscape:cy="48.502723"
     inkscape:current-layer="layer1"
     showgrid="true"
     inkscape:document-units="px"
     inkscape:grid-bbox="true"
     inkscape:window-width="1920"
     inkscape:window-height="995"
     inkscape:window-x="0"
     inkscape:window-y="28"
     inkscape:window-maximized="1"
     inkscape:snap-global="false" />
  <metadata
     id="metadata2874">
    <rdf:RDF>
      <cc:Work
         rdf:about="">
        <dc:format>image/svg+xml</dc:format>
        <dc:type
           rdf:resource="http://purl.org/dc/dcmitype/StillImage" />
        <dc:title></dc:title>
      </cc:Work>
    </rdf:RDF>
  </metadata>
  <g
     id="layer1"
     inkscape:label="Layer 1"
     inkscape:groupmode="layer">
    <path
       id="path3030"
       d="m 41.158396,21.820361 c -3.738351,0.100094 -6.690585,3.218276 -6.590489,6.956628 0.100094,3.738351 3.21392,6.690579 6.952269,6.590489 3.738351,-0.100093 6.690582,-3.218278 6.59049,-6.956628 -0.100094,-3.738351 -3.213916,-6.690581 -6.95227,-6.590489 z"
       style="fill:#000000;fill-opacity:0.5098038;fill-rule:evenodd;stroke:none;stroke-width:5.80000019;marker:none;visibility:visible;display:inline;overflow:visible;enable-background:accumulate"
       inkscape:connector-curvature="0"
       sodipodi:nodetypes="sssss" />
    <path
       inkscape:connector-curvature="0"
       style="fill:#000000;fill-opacity:0.5098038;fill-rule:evenodd;stroke:none;stroke-width:5.80000019;marker:none;visibility:visible;display:inline;overflow:visible;enable-background:accumulate"
       d="m 16.977304,11.284084 c -3.581371,0.100355 -6.499481,2.999105 -6.581772,6.621 -0.08494,3.738728 2.882274,6.841175 6.621001,6.926118 2.579428,0.0586 4.858043,-1.332863 6.05,-3.430369 14.528773,2.447923 26.060584,13.167264 29.003382,26.850142 -1.939629,1.237203 -3.199987,3.431726 -3.133968,5.897443 0.100093,3.738351 3.213915,6.690579 6.952269,6.590489 3.738351,-0.100093 6.690583,-3.218278 6.590489,-6.956628 -0.09151,-3.417828 -2.702348,-6.175032 -6.006412,-6.546901 C 53.210113,31.759076 40.21362,19.638739 23.855473,16.959227 23.33879,13.804853 20.636828,11.359304 17.326007,11.284084 c -0.116836,-0.0027 -0.233175,-0.0032 -0.348703,0 z"
       id="path3354"
       sodipodi:nodetypes="cssccssscccc" />
    <path
       style="fill:#4040ff;fill-opacity:1;fill-rule:evenodd;stroke:#000000;stroke-width:0.85008866;stroke-linecap:butt;stroke-linejoin:miter;stroke-miterlimit:4;stroke-opacity:1;stroke-dasharray:none;stroke-dashoffset:0;marker:none;visibility:visible;display:inline;overflow:visible;enable-background:accumulate"
       d="m 10.016755,9.7903906 0,4.6947244 c 20.78437,0.15052 37.603596,16.223507 37.603596,36.00968 0,0.02271 3.8e-5,0.04244 0,0.06412 l 4.690144,0.0458 c 0.0015,-0.141997 0,-0.261059 0,-0.403059 0,-22.306658 -18.946877,-40.411269 -42.29374,-40.4112704 z"
       id="path2380"
       inkscape:connector-curvature="0" />
    <g
       id="g2337"
       transform="matrix(-0.14652919,-0.00332905,0.00332905,-0.14652919,36.886248,108.19492)"
       inkscape:export-filename="/home/yorik/Documents/Lab/Draft/icons/line.png"
       inkscape:export-xdpi="7.0721951"
       inkscape:export-ydpi="7.0721951">
      <path
         d="m 245.71428,655.2193 a 48.57143,48.57143 0 0 1 -48.57143,48.57143 48.57143,48.57143 0 0 1 -48.57143,-48.57143 48.57143,48.57143 0 0 1 48.57143,-48.57143 48.57143,48.57143 0 0 1 48.57143,48.57143 z"
         sodipodi:ry="48.57143"
         sodipodi:rx="48.57143"
         sodipodi:cy="655.2193"
         sodipodi:cx="197.14285"
         id="path2339"
         style="fill:#ff2000;fill-opacity:1;fill-rule:nonzero;stroke:#000000;stroke-width:5.80000019;stroke-linecap:butt;stroke-linejoin:miter;stroke-miterlimit:4;stroke-opacity:1;stroke-dasharray:none;stroke-dashoffset:0;marker:none;visibility:visible;display:inline;overflow:visible;enable-background:accumulate"
         sodipodi:type="arc" />
      <path
         transform="matrix(0.8513023,-0.5246754,0.5246754,0.8513023,-338.69692,214.19328)"
         d="m 259.60921,672.79736 a 34.345188,23.991123 0 0 1 -34.34519,23.99113 34.345188,23.991123 0 0 1 -34.34519,-23.99113 34.345188,23.991123 0 0 1 34.34519,-23.99112 34.345188,23.991123 0 0 1 34.34519,23.99112 z"
         sodipodi:ry="23.991123"
         sodipodi:rx="34.345188"
         sodipodi:cy="672.79736"
         sodipodi:cx="225.26402"
         id="path2341"
         style="fill:url(#radialGradient3016);fill-opacity:1;stroke:none"
         sodipodi:type="arc" />
    </g>
    <g
       id="g2372"
       transform="matrix(-0.14651449,0.00392289,-0.00392289,-0.14651449,82.129327,144.48617)"
       inkscape:export-filename="/home/yorik/Documents/Lab/Draft/icons/line.png"
       inkscape:export-xdpi="7.0721951"
       inkscape:export-ydpi="7.0721951">
      <path
         d="m 245.71428,655.2193 a 48.57143,48.57143 0 0 1 -48.57143,48.57143 48.57143,48.57143 0 0 1 -48.57143,-48.57143 48.57143,48.57143 0 0 1 48.57143,-48.57143 48.57143,48.57143 0 0 1 48.57143,48.57143 z"
         sodipodi:ry="48.57143"
         sodipodi:rx="48.57143"
         sodipodi:cy="655.2193"
         sodipodi:cx="197.14285"
         id="path2374"
         style="fill:#ff2000;fill-opacity:1;stroke:#000000;stroke-width:5.80000019;stroke-miterlimit:4;stroke-opacity:1;stroke-dasharray:none"
         sodipodi:type="arc" />
      <path
         transform="matrix(0.8513023,-0.5246754,0.5246754,0.8513023,-338.69692,214.19328)"
         d="m 259.60921,672.79736 a 34.345188,23.991123 0 0 1 -34.34519,23.99113 34.345188,23.991123 0 0 1 -34.34519,-23.99113 34.345188,23.991123 0 0 1 34.34519,-23.99112 34.345188,23.991123 0 0 1 34.34519,23.99112 z"
         sodipodi:ry="23.991123"
         sodipodi:rx="34.345188"
         sodipodi:cy="672.79736"
         sodipodi:cx="225.26402"
         id="path2376"
         style="fill:url(#radialGradient3018);fill-opacity:1;stroke:none"
         sodipodi:type="arc" />
    </g>
    <g
       id="g3056">
      <g
         id="g3034"
         transform="matrix(-0.14651449,0.00392289,-0.00392289,-0.14651449,68.871732,118.23558)"
         inkscape:export-filename="/home/yorik/Documents/Lab/Draft/icons/line.png"
         inkscape:export-xdpi="7.0721951"
         inkscape:export-ydpi="7.0721951">
        <path
           d="m 245.71428,655.2193 a 48.57143,48.57143 0 0 1 -48.57143,48.57143 48.57143,48.57143 0 0 1 -48.57143,-48.57143 48.57143,48.57143 0 0 1 48.57143,-48.57143 48.57143,48.57143 0 0 1 48.57143,48.57143 z"
           sodipodi:ry="48.57143"
           sodipodi:rx="48.57143"
           sodipodi:cy="655.2193"
           sodipodi:cx="197.14285"
           id="path3036"
           style="fill:#ff2000;fill-opacity:1;stroke:#000000;stroke-width:5.80000019;stroke-miterlimit:4;stroke-opacity:1;stroke-dasharray:none"
           sodipodi:type="arc" />
        <path
           transform="matrix(0.8513023,-0.5246754,0.5246754,0.8513023,-338.69692,214.19328)"
           d="m 259.60921,672.79736 a 34.345188,23.991123 0 0 1 -34.34519,23.99113 34.345188,23.991123 0 0 1 -34.34519,-23.99113 34.345188,23.991123 0 0 1 34.34519,-23.99112 34.345188,23.991123 0 0 1 34.34519,23.99112 z"
           sodipodi:ry="23.991123"
           sodipodi:rx="34.345188"
           sodipodi:cy="672.79736"
           sodipodi:cx="225.26402"
           id="path3038"
           style="fill:url(#radialGradient3054);fill-opacity:1;stroke:none"
           sodipodi:type="arc" />
      </g>
    </g>
  </g>
</svg>
