/* XPM */
static char * Constraint_Horizontal_sm_xpm[] = {
"16 16 3 1",
" 	c None",
".	c #E72020",
"+	c #DE1616",
"                ",
"                ",
"                ",
"                ",
"                ",
"                ",
"                ",
" .++++++++++++. ",
" .++++++++++++. ",
"                ",
"                ",
"                ",
"                ",
"                ",
"                ",
"                "};
