/* XPM */
static char * Constraint_InternalAngle_sm_xpm[] = {
"16 16 56 1",
" 	c None",
".	c #5C0606",
"+	c #920C0C",
"@	c #760909",
"#	c #C21515",
"$	c #D61313",
"%	c #880303",
"&	c #900C0C",
"*	c #CB1616",
"=	c #CB0F0F",
"-	c #790101",
";	c #A51010",
">	c #D51616",
",	c #DD1A1A",
"'	c #920000",
")	c #B31212",
"!	c #D81616",
"~	c #A30606",
"{	c #550000",
"]	c #8F0E0E",
"^	c #AF0909",
"/	c #C31616",
"(	c #D71414",
"_	c #8E0303",
":	c #CF1010",
"<	c #C81414",
"[	c #DF1A1A",
"}	c #6F0101",
"|	c #D91414",
"1	c #5C0000",
"2	c #B90A0A",
"3	c #D21616",
"4	c #9C1010",
"5	c #D31212",
"6	c #AB0808",
"7	c #D41616",
"8	c #A91212",
"9	c #7E0909",
"0	c #BE0D0D",
"a	c #4E0000",
"b	c #A50707",
"c	c #D71515",
"d	c #A91111",
"e	c #B81414",
"f	c #820202",
"g	c #9E0505",
"h	c #DF1919",
"i	c #B81313",
"j	c #430000",
"k	c #960505",
"l	c #D81414",
"m	c #B71313",
"n	c #460000",
"o	c #930404",
"p	c #A90F0F",
"q	c #6A0000",
"                ",
"             .+ ",
"           @#$% ",
"         &*=-   ",
"       ;>,'     ",
"    .)!~{]^     ",
"  @/(_    :     ",
" <[}      |     ",
" 1234     5     ",
"   {678  90     ",
"     abcdef     ",
"       aghi     ",
"         jklm   ",
"           no(p ",
"              q ",
"                "};
