/* XPM */
static char * Constraint_PointOnMidPoint_sm_xpm[] = {
"16 16 2 1",
" 	c None",
".	c #F82F00",
"                ",
"           .... ",
"          ..... ",
"          ..... ",
"         .....  ",
"      ........  ",
"     ......  .  ",
"     ......     ",
"     ......     ",
"  . ......      ",
"  .......       ",
" .....          ",
" ....           ",
" .....          ",
"....            ",
"                "};
