/* XPM */
static char * Constraint_TangentToEnd_sm_xpm[] = {
"16 16 2 1",
" 	c None",
".	c #F32000",
"                ",
"   ...          ",
" .............  ",
"............... ",
" .............. ",
" .......        ",
" ........       ",
"     .....      ",
"       ....     ",
"        ...     ",
"        ....    ",
"         ...    ",
"         ...    ",
"         ...    ",
"          ..    ",
"                "};
