/* XPM */
static char * Constraint_PointOnMidPoint_sm_xpm[] = {
"16 16 41 1",
" 	c None",
".	c #660606",
"+	c #9B1010",
"@	c #BA1616",
"#	c #C91818",
"$	c #490202",
"%	c #DB1E1E",
"&	c #DA1111",
"*	c #D20707",
"=	c #CD0000",
"-	c #BB1616",
";	c #7E0B0B",
">	c #DC1212",
",	c #CC0000",
"'	c #D51818",
")	c #CF0303",
"!	c #6A0606",
"~	c #850C0C",
"{	c #C11616",
"]	c #BE1515",
"^	c #910E0E",
"/	c #B60303",
"(	c #D61818",
"_	c #D91010",
":	c #D91111",
"<	c #900E0E",
"[	c #BD1515",
"}	c #BF1616",
"|	c #840C0C",
"1	c #DC1E1E",
"2	c #7D0B0B",
"3	c #C01616",
"4	c #830C0C",
"5	c #6B0505",
"6	c #DC1313",
"7	c #9A1010",
"8	c #BC1616",
"9	c #480202",
"0	c #C81818",
"a	c #9C1010",
"b	c #6C0505",
"                ",
"           .+@# ",
"         $%&*=- ",
"          ;>,*+ ",
"          ')>&! ",
"      ~{]^/(;%  ",
"     ~_,,:<  $  ",
"     {,,,,]     ",
"     [,,,,}     ",
"  $  ^:,,:|     ",
"  12(/<]34      ",
" 5&6)(          ",
" 7*,62          ",
" 8=*&19         ",
" 0-ab           ",
"                "};
