/* XPM */
static char * Constraint_Block_sm_xpm[] = {
"15 16 4 1",
" 	c None",
".	c #CC0000",
"+	c #CA0000",
"@	c #CB0000",
"     ...+.     ",
"   .........   ",
"  ...........  ",
" .....   ..... ",
" .....     ... ",
"......      ...",
"........    ...",
"..   ....   ...",
"..    ....  ...",
"@..    ........",
"...      ......",
" ...     ..... ",
"  ....   ..... ",
"  ...........  ",
"    ........   ",
"      ....     "};
