/* XPM */
static char * Constraint_PointOnStart_sm_xpm[] = {
"16 16 44 1",
" 	c None",
".	c #3B0000",
"+	c #820C0C",
"@	c #830B0B",
"#	c #6D0808",
"$	c #E21E1E",
"%	c #C91A1A",
"&	c #A71313",
"*	c #760909",
"=	c #D11A1A",
"-	c #CD0101",
";	c #CF0404",
">	c #D90F0F",
",	c #C81818",
"'	c #CC1A1A",
")	c #C11616",
"!	c #D71212",
"~	c #CE0303",
"{	c #D51818",
"]	c #6A0808",
"^	c #D51616",
"/	c #CF0303",
"(	c #B81515",
"_	c #8B0D0D",
":	c #D60C0C",
"<	c #D71515",
"[	c #D81515",
"}	c #D80D0D",
"|	c #780909",
"1	c #9B1010",
"2	c #AB1414",
"3	c #710808",
"4	c #CF1717",
"5	c #D20707",
"6	c #CE0202",
"7	c #D81111",
"8	c #8F0F0F",
"9	c #9A1010",
"0	c #CC0000",
"a	c #D21616",
"b	c #AA1414",
"c	c #D91515",
"d	c #740909",
"e	c #900F0F",
"                ",
"     .          ",
"    +@          ",
"   #$%&*        ",
"   =--;>,       ",
"   #$')!~{      ",
"    +@ ]^/(     ",
"     .  _:<     ",
"         [}|    ",
"         123    ",
"        45678   ",
"       95000a   ",
"       b~000c   ",
"       d700~)   ",
"        eac)    ",
"                "};
