/* XPM */
static char * Constraint_PointOnObject_sm_xpm[] = {
"16 16 2 1",
" 	c None",
".	c #F42D00",
"                ",
"        ......  ",
"    ........... ",
"   ............ ",
"  ......        ",
"  ......        ",
"  .....         ",
"  ...           ",
" ...            ",
" ...            ",
" ...            ",
" ...            ",
" ...            ",
" ...            ",
"  ...           ",
"                "};
