/* XPM */
static char * Constraint_PointOnPoint_sm_xpm[] = {
"16 16 7 1",
" 	c None",
".	c #991515",
"+	c #E11D1D",
"@	c #9A1414",
"#	c #E21D1D",
"$	c #CC0000",
"%	c #9B1414",
"                ",
"                ",
"                ",
"                ",
"                ",
"                ",
"      .++@      ",
"      #$$#      ",
"      #$$#      ",
"      @++%      ",
"                ",
"                ",
"                ",
"                ",
"                ",
"                "};
