/* XPM */
static char * Constraint_Perpendicular_sm_xpm[] = {
"16 16 7 1",
" 	c None",
".	c #BB1616",
"+	c #DE1515",
"@	c #BE1616",
"#	c #CC0000",
"$	c #C01616",
"%	c #E61F1F",
"                ",
"                ",
"      .++.      ",
"      @##@      ",
"      @##@      ",
"      @##@      ",
"      @##@      ",
"      @##@      ",
"      @##@      ",
"      @##@      ",
"      $##$      ",
" %+++++##+++++% ",
" +############+ ",
" %++++++++++++% ",
"                ",
"                "};
