/* XPM */
static char * Constraint_TangentToStart_sm_xpm[] = {
"16 16 2 1",
" 	c None",
".	c #E61F00",
"            .   ",
"            ..  ",
"           ...  ",
"          ..... ",
"  .       ..... ",
".......  .......",
"........   ...  ",
" ........  ...  ",
"     ..... ...  ",
"       .......  ",
"        ......  ",
"        ......  ",
"         .....  ",
"         .....  ",
"         .....  ",
"                "};
