/* XPM */
static char * Constraint_Lock_sm_xpm[] = {
"16 16 77 1",
" 	c None",
".	c #8B1515",
"+	c #BD1E1E",
"@	c #BB1F1F",
"#	c #E82727",
"$	c #A51919",
"%	c #A41919",
"&	c #E62626",
"*	c #B91E1E",
"=	c #7B1111",
"-	c #E12626",
";	c #530808",
">	c #540808",
",	c #DE2424",
"'	c #781010",
")	c #8E1414",
"!	c #8F1313",
"~	c #A21616",
"{	c #A61919",
"]	c #750D0D",
"^	c #720B0B",
"/	c #A41717",
"(	c #A51818",
"_	c #700A0A",
":	c #A21717",
"<	c #721010",
"[	c #AE1B1B",
"}	c #B11C1C",
"|	c #B01C1C",
"1	c #B01B1B",
"2	c #AC1A1A",
"3	c #AB1A1A",
"4	c #700F0F",
"5	c #B81D1D",
"6	c #CE1717",
"7	c #B80B0B",
"8	c #B70B0B",
"9	c #B70A0A",
"0	c #B60A0A",
"a	c #B50A0A",
"b	c #C61212",
"c	c #B51C1C",
"d	c #B61D1D",
"e	c #C91414",
"f	c #B50909",
"g	c #B40909",
"h	c #B30808",
"i	c #C11010",
"j	c #B31B1B",
"k	c #C41111",
"l	c #B30909",
"m	c #B20808",
"n	c #B10707",
"o	c #B00707",
"p	c #BC0D0D",
"q	c #B11A1A",
"r	c #B41B1B",
"s	c #BF0F0F",
"t	c #AF0606",
"u	c #AE0606",
"v	c #B01818",
"w	c #BA0C0C",
"x	c #AD0505",
"y	c #AC0505",
"z	c #AC0404",
"A	c #AE1818",
"B	c #B01A1A",
"C	c #AB0404",
"D	c #AA0404",
"E	c #AA0303",
"F	c #A90303",
"G	c #AD1717",
"H	c #760D0D",
"I	c #B51A1A",
"J	c #B41919",
"K	c #B31919",
"L	c #730D0D",
"                ",
"      .++.      ",
"     @#$%&*     ",
"    =-;  >,'    ",
"    $)    !~    ",
"    {]    ^/    ",
"    (^    _:    ",
"   <[[}|11234   ",
"   5677890abc   ",
"   de0afgghij   ",
"   cklhmmnopq   ",
"   rsnoottu9v   ",
"   qwuuxxyzmA   ",
"   B0yCCDEFxG   ",
"   HIIIJJJKKL   ",
"                "};
