/* XPM */
static char * Constraint_Radius_sm_xpm[] = {
"16 16 2 1",
" 	c None",
".	c #C21B00",
"      ....      ",
"    ........    ",
"   ..........   ",
"  .....   ....  ",
" ....    ...... ",
" ...    ....... ",
"...    ..... .. ",
"...    ....  ...",
"...     ..   ...",
"...         ... ",
" ...        ... ",
" ....      .... ",
"  ....   .....  ",
"   ...........  ",
"    ........    ",
"       ...      "};
