/* XPM */
static char * Constraint_Length_sm_xpm[] = {
"16 16 29 1",
" 	c None",
".	c #660606",
"+	c #9B1010",
"@	c #BA1616",
"#	c #C91818",
"$	c #490202",
"%	c #DB1E1E",
"&	c #DA1111",
"*	c #D20707",
"=	c #CD0000",
"-	c #BB1616",
";	c #7E0B0B",
">	c #DC1212",
",	c #CC0000",
"'	c #D51818",
")	c #CF0303",
"!	c #6A0606",
"~	c #D61818",
"{	c #CF0404",
"]	c #DC1E1E",
"^	c #7D0B0B",
"/	c #6B0505",
"(	c #DC1313",
"_	c #9A1010",
":	c #BC1616",
"<	c #480202",
"[	c #C81818",
"}	c #9C1010",
"|	c #6C0505",
"                ",
"           .+@# ",
"         $%&*=- ",
"          ;>,*+ ",
"          ')>&! ",
"         ~)~;%  ",
"        ~)~  $  ",
"       ~{~      ",
"      ~{~       ",
"  $  ~)~        ",
"  ]^~)~         ",
" /&()~          ",
" _*,(^          ",
" :=*&]<         ",
" [-}|           ",
"                "};
