/* XPM */
static char * Constraint_PointOnEnd_sm_xpm[] = {
"16 16 46 1",
" 	c None",
".	c #740909",
"+	c #AA1414",
"@	c #9A1010",
"#	c #6A0707",
"$	c #900F0F",
"%	c #D81111",
"&	c #CE0202",
"*	c #D20707",
"=	c #CF1717",
"-	c #E52222",
";	c #400000",
">	c #D21616",
",	c #CC0000",
"'	c #D20808",
")	c #960F0F",
"!	c #CF1919",
"~	c #D80E0E",
"{	c #DC1515",
"]	c #D21515",
"^	c #B91515",
"/	c #670606",
"(	c #D81414",
"_	c #CE0303",
":	c #A51313",
"<	c #D60C0C",
"[	c #DE1515",
"}	c #D70D0D",
"|	c #D81515",
"1	c #800C0C",
"2	c #C11616",
"3	c #720808",
"4	c #430000",
"5	c #810B0B",
"6	c #CF0404",
"7	c #D71515",
"8	c #D91515",
"9	c #8F0E0E",
"0	c #690707",
"a	c #D21717",
"b	c #B21515",
"c	c #900E0E",
"d	c #D40909",
"e	c #CD1515",
"f	c #E41C1C",
"g	c #E21E1E",
"                ",
"                ",
"                ",
"                ",
"  .+@   #       ",
" $%&*=  -;      ",
" >,,,')!~{]^/   ",
" (,,,_:!<[}_|1  ",
" 2_,,%3 -45!67  ",
"  28>9  0   a_b ",
"            cde ",
"             fg ",
"                ",
"                ",
"                ",
"                "};
