/* XPM */
static char * Constraint_Parallel_sm_xpm[] = {
"16 16 19 1",
" 	c None",
".	c #740000",
"+	c #C70000",
"@	c #770000",
"#	c #E20000",
"$	c #DB0000",
"%	c #A10000",
"&	c #E30000",
"*	c #D40000",
"=	c #CE0000",
"-	c #D10000",
";	c #CC0000",
">	c #E00000",
",	c #790000",
"'	c #D00000",
")	c #CD0000",
"!	c #DD0000",
"~	c #A00000",
"{	c #780000",
"                ",
"         .+     ",
"        @#$%    ",
"       .&*=     ",
"      .&*-      ",
"     .&*=       ",
"    .&*=   ;    ",
"   .&*=   ;*>,  ",
"  .>*'   ;*>,   ",
" .>*'   )*>,    ",
" +!;   )*>,     ",
"  ~   )*>,      ",
"      *&,       ",
"       {        ",
"                ",
"                "};
