/* XPM */
static char * Constraint_EqualLength_sm_xpm[] = {
"16 16 2 1",
" 	c None",
".	c #EE1E00",
"                ",
"                ",
"   ..........   ",
"   ..........   ",
"   ..........   ",
"   ..........   ",
"                ",
"                ",
"                ",
"   ..........   ",
"   ..........   ",
"   ..........   ",
"   ..........   ",
"                ",
"                ",
"                "};
