/* XPM */
static char *Constraint_PointOnPoint_sm_xpm[] = {
/* columns rows colors chars-per-pixel */
"16 16 3 1 ",
"  c None",
". c #D71414",
"+ c #AA1919",
/* pixels */
"                ",
"  +          +  ",
" +.+        +.+ ",
"  +.+      +.+  ",
"   +        +   ",
"      ++++      ",
"     +....+     ",
"     +...++     ",
"     +..+++     ",
"     +.++.+     ",
"      ++++      ",
"   +        +   ",
"  +.+      +.+  ",
" +.+        +.+ ",
"  +          +  ",
"                "
};
