/* XPM */
static char * Constraint_Perpendicular_sm_xpm[] = {
"16 16 2 1",
" 	c None",
".	c #FF1D00",
"                ",
"      ....      ",
"      ....      ",
"      ....      ",
"      ....      ",
"      ....      ",
"      ....      ",
"      ....      ",
"      ....      ",
"      ....      ",
"      ....      ",
" .............  ",
" .............. ",
" .............. ",
" .............  ",
"                "};
