/* XPM */
static char * Constraint_Vertical_sm_xpm[] = {
"16 16 2 1",
" 	c None",
".	c #E81C00",
"                ",
"      ...       ",
"      ...       ",
"      ...       ",
"      ...       ",
"      ...       ",
"      ...       ",
"      ...       ",
"      ...       ",
"      ...       ",
"      ...       ",
"      ...       ",
"      ...       ",
"      ...       ",
"      ...       ",
"                "};
