/* XPM */
static char * Constraint_TangentToStart_sm_xpm[] = {
"16 16 53 1",
" 	c None",
".	c #920E0E",
"+	c #690707",
"@	c #DB1616",
"#	c #BC1616",
"$	c #CC1717",
"%	c #CD0101",
"&	c #D70E0E",
"*	c #880D0D",
"=	c #A31212",
"-	c #D40909",
";	c #CC0000",
">	c #D51717",
",	c #A61717",
"'	c #CE1717",
")	c #A41717",
"!	c #660D0D",
"~	c #AE1515",
"{	c #D01C1C",
"]	c #D50A0A",
"^	c #DC1A1A",
"/	c #B91818",
"(	c #690A0A",
"_	c #5F0B0B",
":	c #991616",
"<	c #B21616",
"[	c #D91616",
"}	c #DC1212",
"|	c #C01919",
"1	c #4E0808",
"2	c #8B0C0C",
"3	c #C91515",
"4	c #7D1111",
"5	c #D61717",
"6	c #600C0C",
"7	c #4A0707",
"8	c #CE1919",
"9	c #D81616",
"0	c #4D0808",
"a	c #D61616",
"b	c #BF1919",
"c	c #840B0B",
"d	c #7E1212",
"e	c #DC1313",
"f	c #850B0B",
"g	c #8F0E0E",
"h	c #B41717",
"i	c #970E0E",
"j	c #971616",
"k	c #9A0E0E",
"l	c #900E0E",
"m	c #E11919",
"n	c #D21919",
"                ",
"           .    ",
"          +@#   ",
"          $%&*  ",
"         =-;;>  ",
" ,@')!   ~{]^/( ",
" _:<[}|1  2]3   ",
"     45[6 2]3   ",
"      78902]3   ",
"       7abc]3   ",
"        def]3   ",
"         [g]3   ",
"         hi]3   ",
"         jk]3   ",
"         _lmn   ",
"                "};
