/* XPM */
static char * Constraint_HorizontalDistance_sm_xpm[] = {
"16 16 2 1",
" 	c None",
".	c #CD1D00",
"                ",
"                ",
"                ",
"                ",
" ..          .. ",
" ..          .. ",
" ..          .. ",
" .............. ",
" .............. ",
" ..          .. ",
" ..          .. ",
" ..          .. ",
"                ",
"                ",
"                ",
"                "};
