/* XPM */
static char * Constraint_Lock_sm_xpm[] = {
"16 16 2 1",
" 	c None",
".	c #E21D00",
"                ",
"      ....      ",
"    ........    ",
"    .........   ",
"   ....   ...   ",
"   ...    ...   ",
"   ...    ...   ",
"  ............  ",
"  ............  ",
"  ............  ",
"  ............  ",
"  ............  ",
"  ............  ",
"  ............  ",
"  ............  ",
"                "};
