/* XPM */
static char * Constraint_Radius_sm_xpm[] = {
"16 16 43 1",
" 	c None",
".	c #B41414",
"+	c #CF1515",
"@	c #DB1515",
"#	c #CE1515",
"$	c #B31313",
"%	c #920E0E",
"&	c #D71414",
"*	c #8D0303",
"=	c #540000",
"-	c #550000",
";	c #8E0303",
">	c #900D0D",
",	c #CC0E0E",
"'	c #4D0000",
")	c #8C0A0A",
"!	c #E01919",
"~	c #8E0D0D",
"{	c #7D0B0B",
"]	c #D41212",
"^	c #6D0000",
"/	c #D71515",
"(	c #B41313",
"_	c #7E0B0B",
":	c #580000",
"<	c #8F0303",
"[	c #B21313",
"}	c #D91414",
"|	c #770909",
"1	c #D51313",
"2	c #570000",
"3	c #DA1515",
"4	c #510101",
"5	c #520000",
"6	c #D91515",
"7	c #D01515",
"8	c #560000",
"9	c #D61414",
"0	c #4F0000",
"a	c #500000",
"b	c #CD0F0F",
"c	c #4E0000",
"d	c #910E0E",
"                ",
"     .+@@#$     ",
"   %&*=  -;&>   ",
"  %,'      )!~  ",
"  &'      {]^/  ",
" (*      _]: <[ ",
" +=     _]:  -+ ",
" }     |12    3 ",
" 3     45     6 ",
" 7-          8+ ",
" $;          ;[ ",
"  90        a/  ",
"  %bc      0bd  ",
"   %/<2  -</d   ",
"     $#33#[     ",
"                "};
