/* XPM */
static char * Constraint_VerticalDistance_sm_xpm[] = {
"16 16 10 1",
" 	c None",
".	c #E61F1F",
"+	c #DE1515",
"@	c #B31616",
"#	c #B61717",
"$	c #B71616",
"%	c #DE1F1F",
"&	c #750B0B",
"*	c #B01616",
"=	c #710B0B",
"                ",
"    .++++++@    ",
"    ##$+%##&    ",
"       +@       ",
"       +@       ",
"       +@       ",
"       +@       ",
"       +@       ",
"       +@       ",
"       +@       ",
"       +@       ",
"       +@       ",
"       +@       ",
"    **@+%**=    ",
"    .++++++@    ",
"                "};
