/* XPM */
static char * Constraint_PointOnStart_sm_xpm[] = {
"16 16 2 1",
" 	c None",
".	c #F72E00",
"                ",
"   ..           ",
"  .....         ",
" ........       ",
" ..........     ",
"  ...  .....    ",
"         ...    ",
"         ....   ",
"          ...   ",
"          ....  ",
"          ..... ",
"          ..... ",
"          ..... ",
"           ...  ",
"                ",
"                "};
