/* XPM */
static char * Constraint_ExternalAngle_sm_xpm[] = {
"16 16 2 1",
" 	c None",
".	c #E92000",
"                ",
"                ",
"    .....     . ",
"  ........  ... ",
" ...    ....... ",
" ..     .....   ",
" ..   .....     ",
"..   ....       ",
"...  ....       ",
" ..    .....    ",
" ...     .....  ",
"  ...  ........ ",
"   .......   .. ",
"     ...        ",
"                ",
"                "};
