/* XPM */
static char * Constraint_InternalAngle_sm_xpm[] = {
"16 16 2 1",
" 	c None",
".	c #EF2000",
"                ",
"           ...  ",
"         .....  ",
"       .......  ",
"     ......     ",
"   ........     ",
" ..........     ",
" .....   ..     ",
"  .........     ",
"    .......     ",
"      ......    ",
"        ......  ",
"          ....  ",
"            ..  ",
"                ",
"                "};
