/* XPM */
static char * Constraint_PointOnObject_sm_xpm[] = {
"16 16 40 1",
" 	c None",
".	c #760A0A",
"+	c #A01111",
"@	c #AF1313",
"#	c #9C1010",
"$	c #690808",
"%	c #C21616",
"&	c #D91515",
"*	c #D21616",
"=	c #8B0E0E",
"-	c #991010",
";	c #D51616",
">	c #C80E0E",
",	c #9C0505",
"'	c #810101",
")	c #9E0606",
"!	c #AE0909",
"~	c #CE0202",
"{	c #CC0000",
"]	c #D81111",
"^	c #7F0808",
"/	c #520000",
"(	c #CE0303",
"_	c #A51313",
":	c #D30808",
"<	c #9B1010",
"[	c #CF1717",
"}	c #850D0D",
"|	c #840909",
"1	c #A41313",
"2	c #C81616",
"3	c #680000",
"4	c #D91414",
"5	c #6E0909",
"6	c #820C0C",
"7	c #BA0B0B",
"8	c #7B0A0A",
"9	c #BE0C0C",
"0	c #D61212",
"a	c #730404",
"                ",
"         .+@@#$ ",
"   %&*=-;>,'')! ",
"  %~{{]^/       ",
"  &{{{(_        ",
"  *{{{:<        ",
"  =](:[         ",
"  }|1-          ",
"  23            ",
"  4             ",
" 5>             ",
" 67             ",
" 89             ",
"  0             ",
"  a             ",
"                "};
