/* XPM */
static char *Constraint_Parallel_sm[] = {
/* columns rows colors chars-per-pixel */
"16 16 5 1 ",
"     c None",
".    c #932F2F",
"+    c #AB2121",
"#    c #CF0C0C",
"@    c #790A0A",
/* pixels */
"          .     ",
"         @##    ",
"        @##+    ",
"       @##+     ",
"      @##+      ",
"     @##+       ",
"    @##+   ++   ",
"   @##+   +##@  ",
"  @##+   +##@   ",
" @##+   +##@    ",
"@##+   +##@     ",
"@#+   +##@      ",
" .   +##@       ",
"     +#@        ",
"      .         ",
"                "
};
