/* XPM */
static char * Constraint_Vertical_sm_xpm[] = {
"16 16 5 1",
" 	c None",
".	c #E61F1F",
"+	c #E72020",
"@	c #DD1515",
"#	c #DE1515",
"                ",
"       .+       ",
"       @@       ",
"       @@       ",
"       @@       ",
"       @@       ",
"       @@       ",
"       @@       ",
"       @@       ",
"       @@       ",
"       #@       ",
"       #@       ",
"       #@       ",
"       #@       ",
"       +.       ",
"                "};
