/* XPM */
static char * Constraint_Horizontal_sm_xpm[] = {
"16 16 2 1",
" 	c None",
".	c #F42102",
"                ",
"                ",
"                ",
"                ",
"                ",
"                ",
" .............. ",
" .............. ",
" .............. ",
" .............. ",
"                ",
"                ",
"                ",
"                ",
"                ",
"                "};
