/* XPM */
static char * Constraint_PointOnEnd_sm_xpm[] = {
"16 16 2 1",
" 	c None",
".	c #ED2C00",
"                ",
"                ",
"  ...  .        ",
" .......        ",
" ........       ",
" ..........     ",
"  ..........    ",
"     .. ....    ",
"         ....   ",
"          ...   ",
"          ...   ",
"           ...  ",
"           ...  ",
"                ",
"                ",
"                "};
