/* XPM */
static char * Constraint_Concentric_sm_xpm[] = {
"16 16 2 1",
" 	c None",
".	c #EA1B00",
"      ...       ",
"    .......     ",
"   ..........   ",
"  ...     ...   ",
" ...  .... ...  ",
" ..  ...... ..  ",
"... ...  .. ... ",
"... ..   .. ... ",
"... ..   .. ... ",
" .. ....... ..  ",
" ... ..... ...  ",
"  ...     ....  ",
"  ...........   ",
"    ........    ",
"      ...       ",
"                "};
