/* XPM */
static char * Constraint_HorizontalDistance_sm_xpm[] = {
"16 16 8 1",
" 	c None",
".	c #B01616",
"+	c #710B0B",
"@	c #DE1515",
"#	c #B31616",
"$	c #DE1F1F",
"%	c #B41616",
"&	c #E61F1F",
"                ",
"                ",
"                ",
"                ",
" .+          +. ",
" @#          #@ ",
" @#          #@ ",
" @$..........$@ ",
" @@@@@@@@@@@@@@ ",
" @%          %@ ",
" @#          #@ ",
" &#          #& ",
"                ",
"                ",
"                ",
"                "};
