/* XPM */
static char * Constraint_Tangent_sm_xpm[] = {
"16 16 45 1",
" 	c None",
".	c #C11818",
"+	c #7C0B0B",
"@	c #9E1111",
"#	c #D70D0D",
"$	c #D81414",
"%	c #7B0B0B",
"&	c #C31717",
"*	c #D20707",
"=	c #D71313",
"-	c #A61717",
";	c #DB1616",
">	c #CE1717",
",	c #A41717",
"'	c #660D0D",
")	c #7D0B0B",
"!	c #5F0B0B",
"~	c #991616",
"{	c #B21616",
"]	c #D91616",
"^	c #DC1212",
"/	c #C01919",
"(	c #4C0404",
"_	c #7D1111",
":	c #D61717",
"<	c #560707",
"[	c #4A0707",
"}	c #CE1919",
"|	c #D81616",
"1	c #4B0404",
"2	c #C11717",
"3	c #D61616",
"4	c #BF1919",
"5	c #BE1616",
"6	c #7E1212",
"7	c #DC1313",
"8	c #C21717",
"9	c #C01717",
"0	c #A31717",
"a	c #9B1111",
"b	c #B41717",
"c	c #CF1717",
"d	c #971616",
"e	c #DA1515",
"f	c #A51717",
"                ",
"     .+         ",
"    @#$%        ",
"     &*=+       ",
"      &*=+      ",
" -;>,' &*=)     ",
" !~{]^/(&*=)    ",
"     _:]<&*=)   ",
"      [}|12*=)  ",
"       [34 5*=) ",
"        67' 8#9 ",
"         ]0  a  ",
"         bc     ",
"         de     ",
"         !f     ",
"                "};
