/* XPM */
static char * Constraint_PointToObject_sm_xpm[] = {
"16 16 36 1",
" 	c None",
".	c #C21616",
"+	c #D91515",
"@	c #D21616",
"#	c #900F0F",
"$	c #CE0202",
"%	c #CC0000",
"&	c #D81111",
"*	c #740909",
"=	c #CE0303",
"-	c #AA1414",
";	c #D30808",
">	c #9B1010",
",	c #9E1111",
"'	c #CF1717",
")	c #480404",
"!	c #C31717",
"~	c #D70D0D",
"{	c #C01717",
"]	c #A91414",
"^	c #991010",
"/	c #480303",
"(	c #9C1818",
"_	c #C41717",
":	c #D10707",
"<	c #D71313",
"[	c #7B0B0B",
"}	c #9D1818",
"|	c #7C0E0E",
"1	c #C01616",
"2	c #C11616",
"3	c #C51717",
"4	c #9F1111",
"5	c #D81414",
"6	c #7A0A0A",
"7	c #790A0A",
"                ",
"  .+@#          ",
" .$%%&*         ",
" +%%%=-         ",
" @%%%;>      ,  ",
" #&=;')     !~{ ",
"  *]^/(    _:<[ ",
"       }  _:<[  ",
"        |1:<[   ",
"        2:<[    ",
"       3:<[     ",
"      3:<[      ",
"     3:+[       ",
"    4~56        ",
"     {7         ",
"                "};
