/* XPM */
static char * Constraint_SnellsLaw_sm_xpm[] = {
"16 16 40 1",
" 	c None",
".	c #BA0303",
"+	c #B71414",
"@	c #820000",
"#	c #D30808",
"$	c #C01515",
"%	c #760000",
"&	c #D10606",
"*	c #C51616",
"=	c #D10505",
"-	c #CA1717",
";	c #6F0000",
">	c #CE0505",
",	c #CC1717",
"'	c #5A0000",
")	c #A20303",
"!	c #A31212",
"~	c #B20D0D",
"{	c #C61313",
"]	c #540000",
"^	c #5D0000",
"/	c #5C0000",
"(	c #700404",
"_	c #730101",
":	c #5A0101",
"<	c #510000",
"[	c #900E0E",
"}	c #D40909",
"|	c #590000",
"1	c #DB1313",
"2	c #7D0000",
"3	c #CC1515",
"4	c #A90000",
"5	c #B41414",
"6	c #CB0101",
"7	c #860D0D",
"8	c #D50A0A",
"9	c #640000",
"0	c #C80D0D",
"a	c #670000",
"                ",
" .+             ",
" @#$            ",
"  %&*           ",
"   %=-          ",
"    ;>,         ",
"     ')!        ",
" ~{{{{{{{{{{{{~ ",
" ]^^^^/(_:^^^^< ",
"       [}|      ",
"        12      ",
"        34      ",
"        56      ",
"        789     ",
"         0a     ",
"                "};
