/* XPM */
static char * Constraint_Parallel_sm_xpm[] = {
"16 16 2 1",
" 	c None",
".	c #D31900",
"                ",
"         ..     ",
"        ....    ",
"       ....     ",
"      ....   .  ",
"     ....   ... ",
"    ....   .... ",
"   ....   ....  ",
"  ....   ....   ",
" ....   ....    ",
" ...   ....     ",
"  .   ....      ",
"     .....      ",
"    .....       ",
"     ...        ",
"                "};
