/* XPM */
static char * Constraint_TangentToEnd_sm_xpm[] = {
"16 16 46 1",
" 	c None",
".	c #720909",
"+	c #880E0E",
"@	c #B01414",
"#	c #D71111",
"$	c #B41616",
"%	c #740A0A",
"&	c #D31717",
"*	c #D10606",
"=	c #CC0000",
"-	c #DE1616",
";	c #E72020",
">	c #700909",
",	c #D21717",
"'	c #DD1313",
")	c #E51E1E",
"!	c #A51717",
"~	c #920C0C",
"{	c #B21515",
"]	c #B11515",
"^	c #420000",
"/	c #5F0B0B",
"(	c #991616",
"_	c #A01313",
":	c #880C0C",
"<	c #8D0E0E",
"[	c #C01919",
"}	c #4E0808",
"|	c #620A0A",
"1	c #D61717",
"2	c #D91616",
"3	c #600C0C",
"4	c #4A0707",
"5	c #CE1919",
"6	c #D81616",
"7	c #4D0808",
"8	c #D61616",
"9	c #BF1919",
"0	c #7E1212",
"a	c #DC1313",
"b	c #660D0D",
"c	c #A31717",
"d	c #B41717",
"e	c #CF1717",
"f	c #971616",
"g	c #DA1515",
"                ",
"    .+          ",
"   @#$          ",
" %&*=---------; ",
" >,*=''''''''') ",
" !~{#]^         ",
" /(_:<[}        ",
"     |123       ",
"      4567      ",
"       489      ",
"        0ab     ",
"         2c     ",
"         de     ",
"         fg     ",
"         /!     ",
"                "};
