/* XPM */
static char * Constraint_Tangent_sm_xpm[] = {
"16 16 2 1",
" 	c None",
".	c #EE2100",
"                ",
"    ...         ",
"    ....        ",
"     ....       ",
"  .   ....      ",
"...........     ",
"............    ",
" ............   ",
"      ........  ",
"       ........ ",
"        ... ... ",
"        ...  .. ",
"         ...    ",
"         ...    ",
"         ..     ",
"                "};
