/* XPM */
static char * Constraint_Symmetric_sm_xpm[] = {
"16 16 2 1",
" 	c None",
".	c #F12000",
"                ",
"                ",
"                ",
" ..          .. ",
" ...       .... ",
" .....    ..... ",
"  .....  .....  ",
"   .... .....   ",
"    ... ....    ",
"  .....  ....   ",
" .....   .....  ",
" ....      .... ",
" ...        ... ",
" .           .. ",
"                ",
"                "};
