/* XPM */
static char * Constraint_Symmetric_sm_xpm[] = {
"16 16 52 1",
" 	c None",
".	c #951212",
"+	c #7C0A0A",
"@	c #790B0B",
"#	c #941212",
"$	c #CB1E1E",
"%	c #E62121",
"&	c #B51818",
"*	c #B21818",
"=	c #CA1D1D",
"-	c #CD0000",
";	c #E01717",
">	c #DE2222",
",	c #D92121",
"'	c #E11919",
")	c #6C0808",
"!	c #D01818",
"~	c #D10606",
"{	c #D50A0A",
"]	c #E62323",
"^	c #870F0F",
"/	c #AD1414",
"(	c #D61010",
"_	c #CE0101",
":	c #D71010",
"<	c #B01414",
"[	c #5A0606",
"}	c #D61B1B",
"|	c #CF0404",
"1	c #D51B1B",
"2	c #580606",
"3	c #920F0F",
"4	c #D51515",
"5	c #CD0202",
"6	c #DE1414",
"7	c #BD1A1A",
"8	c #BC1A1A",
"9	c #AC1515",
"0	c #D60C0C",
"a	c #CE0303",
"b	c #E52020",
"c	c #BE1B1B",
"d	c #D60B0B",
"e	c #E52323",
"f	c #890F0F",
"g	c #820D0D",
"h	c #E42323",
"i	c #D80D0D",
"j	c #D62020",
"k	c #D42020",
"l	c #C91D1D",
"m	c #410202",
"                ",
"                ",
"                ",
" .+          @# ",
" $%&        *%$ ",
" =-;>      ,'-= ",
" )!~{]^  ^]{~!) ",
"   /(_$  $_:<   ",
"   [}|=  =|12   ",
"  34567  86543  ",
" 90abc    cba09 ",
" =def      ghi= ",
" =j          kl ",
" m            m ",
"                ",
"                "};
