/* XPM */
static char * Constraint_Symmetric_small_1_16px_xpm[] = {
"16 16 4 1",
" 	c None",
".	c #FF2500",
"+	c #FF2600",
"@	c #FF2700",
"                ",
"                ",
"                ",
" .            + ",
" +.          ++ ",
" +++        +++ ",
"  ++++    +++++ ",
"   +++    +++   ",
"    ++    ++    ",
"   +++    ++++  ",
" ++++      ++++ ",
" +++        +++ ",
" +@           + ",
"                ",
"                ",
"                "};
