/* XPM */
static char * Constraint_EqualLength_sm_xpm[] = {
"16 16 8 1",
" 	c None",
".	c #B31616",
"+	c #DE1515",
"@	c #CC0000",
"#	c #750B0B",
"$	c #B61717",
"%	c #710B0B",
"&	c #B01616",
"                ",
"                ",
"                ",
"                ",
"   .++++++++.   ",
"   .@@@@@@@@.   ",
"   #$$$$$$$$#   ",
"                ",
"                ",
"   %&&&&&&&&%   ",
"   .@@@@@@@@.   ",
"   .++++++++.   ",
"                ",
"                ",
"                ",
"                "};
