/* XPM */
static char * Constraint_PointToObject_sm_xpm[] = {
"16 16 2 1",
" 	c None",
".	c #D82800",
"   .            ",
" .....          ",
" .....          ",
" .....          ",
" .....       .  ",
"  ....      ... ",
"     ..    .... ",
"      .. .....  ",
"       ......   ",
"       .....    ",
"      .....     ",
"     .....      ",
"    .....       ",
"   .....        ",
"    ...         ",
"                "};
