/* XPM */
static char * Constraint_ExternalAngle_sm_xpm[] = {
"16 16 75 1",
" 	c None",
".	c #630707",
"+	c #9D1010",
"@	c #AE1313",
"#	c #A01111",
"$	c #670808",
"%	c #610606",
"&	c #CA1717",
"*	c #D11010",
"=	c #9D0505",
"-	c #870303",
";	c #D01010",
">	c #CB1717",
",	c #640808",
"'	c #6F0909",
")	c #D81616",
"!	c #790101",
"~	c #770101",
"{	c #D81515",
"]	c #700808",
"^	c #8F0C0C",
"/	c #D61717",
"(	c #640000",
"_	c #4A0000",
":	c #A01010",
"<	c #8E0404",
"[	c #AA1212",
"}	c #9E0404",
"|	c #830C0C",
"1	c #D31717",
"2	c #B00808",
"3	c #4D0000",
"4	c #CD1515",
"5	c #5B0000",
"6	c #6A0808",
"7	c #C51616",
"8	c #C90E0E",
"9	c #D91515",
"0	c #B21313",
"a	c #780101",
"b	c #D91414",
"c	c #8A0202",
"d	c #D41111",
"e	c #B91515",
"f	c #CE1515",
"g	c #580000",
"h	c #860202",
"i	c #D41212",
"j	c #BB1515",
"k	c #590606",
"l	c #AD1212",
"m	c #990404",
"n	c #D61212",
"o	c #BF1616",
"p	c #D61616",
"q	c #5D0000",
"r	c #520000",
"s	c #740707",
"t	c #8C0303",
"u	c #C70E0E",
"v	c #790A0A",
"w	c #D61414",
"x	c #6F0000",
"y	c #6B0000",
"z	c #D51414",
"A	c #7D0B0B",
"B	c #CF1717",
"C	c #900303",
"D	c #740000",
"E	c #6C0909",
"F	c #740A0A",
"G	c #A71212",
"H	c #BB1616",
"I	c #A81212",
"J	c #770A0A",
"                ",
"     .+@#$      ",
"   %&*=-=;>,    ",
"  ')!     ~{] ^ ",
"  /(       _:)< ",
" [}       |123  ",
" 45     678(    ",
" 9     0{a      ",
" b     cde      ",
" fg      hijk   ",
" lm        hno  ",
"  pq       rstu ",
"  vwx     yzA   ",
"   6B8CDC8BE    ",
"     FGHIJ      ",
"                "};
