/* XPM */
static char * Constraint_Concentric_sm_xpm[] = {
"16 16 45 1",
" 	c None",
".	c #B41414",
"+	c #CF1515",
"@	c #DB1515",
"#	c #CE1515",
"$	c #B31313",
"%	c #920E0E",
"&	c #D71414",
"*	c #8D0303",
"=	c #540000",
"-	c #550000",
";	c #8E0303",
">	c #CC0E0E",
",	c #4D0000",
"'	c #4F0000",
")	c #910E0E",
"!	c #660707",
"~	c #A41111",
"{	c #640707",
"]	c #D71515",
"^	c #B41313",
"/	c #9A0E0E",
"(	c #D31212",
"_	c #940404",
":	c #990E0E",
"<	c #8F0303",
"[	c #B21313",
"}	c #450000",
"|	c #460000",
"1	c #D91414",
"2	c #A51212",
"3	c #930404",
"4	c #DA1515",
"5	c #950404",
"6	c #A31111",
"7	c #D91515",
"8	c #D01515",
"9	c #650707",
"0	c #560000",
"a	c #980E0E",
"b	c #D61414",
"c	c #500000",
"d	c #CD0F0F",
"e	c #4E0000",
"f	c #570000",
"                ",
"     .+@@#$     ",
"   %&*=  -;&%   ",
"  %>,      '>)  ",
"  &,  !~~{  ']  ",
" ^*  /(__(:  <[ ",
" += !(}  |({ -+ ",
" 1  23    _~  4 ",
" 4  ~_    56  7 ",
" 8- !(|  }(9 0+ ",
" $;  :(55(a  ;[ ",
"  b'  {669  c]  ",
"  %de      'd)  ",
"   %]<f  -<])   ",
"     $#44#[     ",
"                "};
