/* XPM */
static char * Constraint_Length_sm_xpm[] = {
"16 16 2 1",
" 	c None",
".	c #F41F00",
"                ",
"             .. ",
"         ...... ",
"        ....... ",
"         .....  ",
"        ......  ",
"       .......  ",
"      ..... .   ",
"   . .....      ",
"  .......       ",
"  ......        ",
"  .....         ",
" .......        ",
" .....          ",
" .              ",
"                "};
