/* XPM */
static char * Constraint_PointOnPoint_sm_xpm[] = {
"16 16 2 1",
" 	c None",
".	c #F93E00",
"                ",
"                ",
"                ",
"                ",
"       ..       ",
"      ....      ",
"     ......     ",
"     ......     ",
"     ......     ",
"     .....      ",
"       ..       ",
"                ",
"                ",
"                ",
"                ",
"                "};
