/* XPM */
static char * Constraint_Parallel_sm_xpm[] = {
"16 16 25 1",
" 	c None",
".	c #760A0A",
"+	c #C01717",
"@	c #790A0A",
"#	c #D81515",
"$	c #D60C0C",
"%	c #A01212",
"&	c #D91515",
"*	c #D20606",
"=	c #C61818",
"-	c #C81818",
";	c #9E1111",
">	c #C31717",
",	c #D70D0D",
"'	c #C41717",
")	c #D10707",
"!	c #D71313",
"~	c #7B0B0B",
"{	c #D71414",
"]	c #C71818",
"^	c #C51717",
"/	c #9F1212",
"(	c #9F1111",
"_	c #D81414",
":	c #7A0A0A",
"                ",
"         .+     ",
"        @#$%    ",
"       .&*=     ",
"      .&*-   ;  ",
"     .&*=   >,+ ",
"    .&*=   ')!~ ",
"   .&*=   ')!~  ",
"  .{*]   ')!~   ",
" .{*]   ^)!~    ",
" +,'   ^)!~     ",
"  /   ^)!~      ",
"     ^)&~       ",
"    (,_:        ",
"     +@         ",
"                "};
