/* XPM */
static char *Sketcher_Element_Arc_MidPoint_sm[] = {
/* columns rows colors chars-per-pixel */
"16 16 69 1 ",
"  c #F9CA1D0D0000",
". c #DF0B2B4C117F",
"X c #F268285A0B64",
"o c #FFFF32431551",
"O c #D7003CCA283E",
"+ c #C66F402C2F18",
"@ c #D7EC523C3F1F",
"# c #F1E44E4336CE",
"$ c #FFFF531D3A5A",
"% c #CFF2560244FD",
"& c #CBE55DC24DF8",
"* c #D2885BDD4AC2",
"= c #FFFF5BA04391",
"- c #C8B26DAD60A2",
"; c #CE38707762FF",
": c #CED57BF67018",
"> c #F1E077E3665C",
", c #FDE67F016C6A",
"< c #000082000000",
"1 c #08D8894A08D8",
"2 c #25B69AE725B6",
"3 c #4054910D4054",
"4 c #47F9905F47F9",
"5 c #4E9A96B84E9A",
"6 c #561F9706561F",
"7 c #544C9C25544C",
"8 c #65E39DAC65E3",
"9 c #73A7A4DF73A7",
"0 c #7B5AA8957B5A",
"q c #7465C0BC7465",
"w c #CE1D8122762B",
"e c #9E02BA8B9E02",
"r c #C0D68914811D",
"t c #D0148A6A8077",
"y c #D099945A8BB8",
"u c #D25799FC91EF",
"i c #D2289D3B95AF",
"p c #C173B8D6B79A",
"a c #C8D2BD6ABBC4",
"s c #D475B524B0A3",
"d c #A6D0C073A6D0",
"f c #C65FC613C603",
"g c #CFB9CFB9CFB9",
"h c #CEBAD09AD0E1",
"j c #D3BBD3BBD3BB",
"k c #D709DFA9D709",
"l c #D8BCD8BCD8BC",
"z c #DADEDADEDADE",
"x c #DE21DF0DDF30",
"c c #E17FCF6DCCCC",
"v c #E464D2F2D071",
"b c #DB5BE247DB5B",
"n c #DF22E4A2DF22",
"m c #E04DE667E04D",
"M c #E36EE36EE36E",
"N c #E5C7E5C7E5C7",
"B c #E9CEE4C5E406",
"V c #EE1FE640E51F",
"C c #E8C0E8C0E8C0",
"Z c #E8E3EB74E8E3",
"A c #EA24EA70EA7B",
"S c #EF2DEF2DEF2D",
"D c #F446F45AF446",
"F c #F5E0F5E0F5E0",
"G c #F8CEF9D8F9FF",
"H c #FBD3FBD1FBD7",
"J c #FD0FFBAAFD0F",
"K c #FC60FF02FF51",
"L c #FFFEFFFEFFFE",
/* pixels */
"LLLLLLLLLLLLLLLL",
"LViiVLLLLLLLLLLL",
"Gw>#-AGLLLLLLLLL",
"S*=o+fjzFLLLLLLL",
"Lu..rhhjgMLLLLLL",
"LGccGLSjggzGLLLL",
"LLLLLLLLNgjzLLLL",
"LLLLLLLLLAggALLL",
"LLLLLLLLLLxjgGLL",
"LLLLLLLLLLGgjALL",
"LGbmLLLLLLLxpaGL",
"Je73dLLLLLLs&@yH",
"A5q24FLLLLG;,$OB",
"D61<8JLLLLKwX %S",
"Lk90mLLLLLLVt:vL",
"LLLLLLLLLLLLLKLL"
};
