/* XPM */
static char *Sketcher_Element_Arc_StartingPoint_sm[] = {
/* columns rows colors chars-per-pixel */
"16 16 71 1 ",
"  c #20A87CF220A8",
". c #F3321C1D0000",
"X c #FB811E150000",
"o c #DBF535441F86",
"O c #EE7929D00D99",
"+ c #F9612661087A",
"@ c #FE513BAC2084",
"# c #D270495B3665",
"$ c #CE905E4B4F8E",
"% c #D582538040BE",
"& c #D96454284108",
"* c #D65A5CAB4B3D",
"= c #C97E5F1E4FED",
"- c #FFFF5D7B460B",
"; c #DB0D64CD53F5",
": c #CEC778166B93",
"> c #CE6A7BC76FDD",
", c #CF2F7CD17109",
"< c #FB1A78D365DF",
"1 c #0E8E80130E8E",
"2 c #1617807F1617",
"3 c #1BE2982F1BE2",
"4 c #3EEDA0763EED",
"5 c #507E9221507E",
"6 c #5950985D5950",
"7 c #4116A81E4116",
"8 c #72E59D3372E5",
"9 c #625BADA3625B",
"0 c #CE6986EA7CB3",
"q c #CFB989157EE9",
"w c #FFFF872F7562",
"e c #83BEAC1A83BE",
"r c #911CB3A5911C",
"t c #9A4AB8819A4A",
"y c #A0DEBD22A0DE",
"u c #D08590E487DF",
"i c #D1CE9F759839",
"p c #D8A8B3D3AE8F",
"a c #C484B803B63D",
"s c #C2B6BB80BA7E",
"d c #BDF3C049BDF3",
"f c #D9E2C1A6BE2A",
"g c #CF09CE3ECF09",
"h c #C926D56EC926",
"j c #D0FDD0F0D0FD",
"k c #D1BFD1BDD1BD",
"l c #D52AD52AD52A",
"z c #D0ACDAA5D0AC",
"x c #D91CD91CD91C",
"c c #E0E9CA22C6E1",
"v c #E561D4E0D277",
"b c #E3B7D85CD6E4",
"n c #E78FDBCADA20",
"m c #DED0E527DED0",
"M c #E410E410E410",
"N c #E3DEE4D8E4FC",
"B c #E714E71FE714",
"V c #EA24E1FBE0C9",
"C c #EABFE4E1E410",
"Z c #ED80E544E40F",
"A c #EBEAE6BEE5F9",
"S c #E98BE98BE98B",
"D c #EB82EE92EB82",
"F c #EEC4EEC4EEC4",
"G c #F17FED11EC74",
"H c #F3B8F3B8F3B8",
"J c #F905F7ACF905",
"K c #F8DFF8EAF8ED",
"L c #FAD7FAE8FAF6",
"P c #FBE7FE7CFEDC",
"I c #FFFDFFFEFFFE",
/* pixels */
"IIIIIIIIIIIIIIII",
"IDtrmIIIIIIIIIII",
"Ie945BLIIIIIIIII",
"J673 dkxHIIIIIII",
"Iy218gkkgMIIIIII",
"ILzhJIFlgkkLIIII",
"IIIIIIIISgklIIII",
"IIIIIIIIIFgkMIII",
"IIIIIIIIIIMkgLII",
"IIIIIIIIIIIkkBII",
"ILnVPIIIIIINsaJI",
"Pi;%pIIIIIIf=&0J",
"C*w@$KIIIIP><-ob",
"G$+.>PIIIIIuOX#A",
"Iv,qCIIIIIIGu:cI",
"IIPIIIIIIIIIPPII"
};
