/* XPM */
static char *Sketcher_SelectVerticalAxis[] = {
/* columns rows colors chars-per-pixel */
"16 16 29 1 ",
"  c #6C4FBACC20CB",
". c #7155BEED2684",
"X c #790BBC6B387C",
"o c #6ECCD0490F65",
"O c #6877C356103D",
"+ c #6FA4D040110C",
"@ c #6F4EC1CD1F84",
"# c #6FADD064110E",
"$ c #7010D115111E",
"% c #6F69C1961FD2",
"& c #85A6C40E4995",
"* c #86C6C4A44B67",
"= c #871AC4B34BC8",
"- c #877DC2624F08",
"; c #92DCC64661A1",
": c #B535D6FE9531",
"> c #BD3EDAECA136",
", c #CD7DE3AEB87C",
"< c #DB00EAC5CC03",
"1 c #DB3EEAF8CC73",
"2 c #E1D3EEC1D597",
"3 c #E4C5EFD3DA4C",
"4 c #E877F231DF3D",
"5 c #EE5CF5BAE750",
"6 c #F33BF8B9EE0B",
"7 c #F97FFBBAF770",
"8 c #F9BAFBE5F7C2",
"9 c #FC12FDC1FA77",
"0 c gray100",
/* pixels */
"000000,:>6000000",
"000007-O 1000000",
"000007=$@<000000",
"000007=+@<000000",
"000007=+@<000000",
"000007=#@<000000",
"000007=+@<000000",
"000007=#%<000000",
"000007&+%1000000",
"000007&+%1000000",
"000007=+%1000000",
"000007=+%1000000",
"000007=+%1000000",
"000007=o@1000000",
"000007;.X2000000",
"0000005349000000"
};
