/* XPM */
static char *Sketcher_Element_Line_EndPoint_sm[] = {
/* columns rows colors chars-per-pixel */
"16 16 67 1 ",
"  c #215F7B57215F",
". c #F4E21A3A0000",
"X c #F6B01C950000",
"o c #D6052A7E13E0",
"O c #FFFF3E242214",
"+ c #BEFC4E923E8A",
"@ c #C9E04E883CCB",
"# c #DEDC46903137",
"$ c #F4DB513D39F4",
"% c #AC8D71DC6982",
"& c #C8AC56E246C2",
"* c #C9486406558A",
"= c #FFFF7789638E",
"- c #F5CE7C7B6B19",
"; c #000085F70000",
": c #152F8227152F",
"> c #0FA092860FA0",
", c #22F99A4422F9",
"< c #368686AC3686",
"1 c #339D8BB2339D",
"2 c #419F8B2C419F",
"3 c #47248CBE4724",
"4 c #413A9B3F413A",
"5 c #4C719DFD4C71",
"6 c #68D0900C68D0",
"7 c #62D3991462D3",
"8 c #CABD86A97CDC",
"9 c #86FA971B86FA",
"0 c #9A33B66A9A33",
"q c #B0F9AF9CAF6F",
"w c #A8AFBDE7A8AF",
"e c #B91DB91CB91B",
"r c #BA80BA80BA80",
"t c #BD96BD96BD96",
"y c #CB998AAD8156",
"u c #CB228D7A84B8",
"i c #C5BBBBC1BA58",
"p c #875CC9F6875C",
"a c #BF20CDE9BF20",
"s c #D78AC117BE5D",
"d c #C35DC35DC35D",
"f c #C549C549C549",
"g c #C7D9C7D9C7D9",
"h c #C11DCF01C11D",
"j c #CC02CC02CC02",
"k c #CDD7CDD7CDD7",
"l c #DB53D0B7CF76",
"z c #D264D264D264",
"x c #D60ED605D604",
"c c #D127DA10D127",
"v c #DBD2DBD2DBD2",
"b c #E311D5BDD3D8",
"n c #E60ADB56D9CC",
"m c #E0A4E0A4E0A4",
"M c #E300E352E300",
"N c #E548E548E548",
"B c #E9E4E4CBE411",
"V c #E83BEB5AE83B",
"C c #EBE6EAE5EBE6",
"Z c #ECA8EECCECA8",
"A c #F0CFF0CFF0CF",
"S c #F2A9F25AF2A9",
"D c #F46AF735F768",
"F c #F55BF55BF55B",
"G c #FBF2FBD6FBF2",
"H c #FDDFFFF1FFFF",
"J c #FFFEFFFEFFFF",
/* pixels */
"JJJJJJJJJJJJJJJJ",
"JJJJJJJJJJJZacGJ",
"JJJJJJJJJJV7510J",
"JJJJJJJJJJw4p,<Z",
"JJJJJJJJJC9:>;3S",
"JJJJJJJJMeM6 2hJ",
"JJJJJJJxtSkdNSJJ",
"JJJJJJjdFfjGJJJJ",
"JJJJGdkFtzJJJJJJ",
"JJJDtxSevJJJJJJJ",
"Jbu%iCeNJJJJJJJJ",
"B*-$+qZJJJJJJJJJ",
"s#=OolJJJJJJJJJJ",
"B@X.&ZJJJJJJJJJJ",
"Jb8ynJJJJJJJJJJJ",
"JJJJJJJJJJJJJJJJ"
};
