/* XPM */
static char *Sketcher_Element_SelectionTypeInvalid_sm[] = {
/* columns rows colors chars-per-pixel */
"16 16 71 1 ",
"  c #BBF032AE1CE0",
". c #D39F1E2D0543",
"X c #DD78191F0000",
"o c #E1EB199E0000",
"O c #E8351D1F00EB",
"+ c #E8C31BE20000",
"@ c #EC441C600000",
"# c #EEFB1C680000",
"$ c #F3DB1C5E0000",
"% c #F7161D1C0000",
"& c #FC2C1E110000",
"* c #FF051F2A0000",
"= c #CF8020EA07D8",
"- c #D3C423760A70",
"; c #D74023FB0A44",
": c #D39726580DAB",
"> c #CFF12B241322",
", c #C6CA33661C97",
"< c #C65234731DEC",
"1 c #CB64316F1ABD",
"2 c #FFFF201A0000",
"3 c #C7583FA02B35",
"4 c #C599427C2EA7",
"5 c #C31945AB325D",
"6 c #C391494C367C",
"7 c #C3044AFE386D",
"8 c #C2544C7D3A57",
"9 c #C34C4E083BF7",
"0 c #C23550C93F27",
"q c #BD0B60AC5192",
"w c #BE3365EE574A",
"e c #BF1F73AC66EF",
"r c #C02C7E4F72FD",
"t c #C2BE57194643",
"y c #C3365F774FAF",
"u c #C35C6548563F",
"i c #C37A674F585B",
"p c #C3A868E95A4A",
"a c #C0BE7D4071B6",
"s c #C1537EEF7467",
"d c #C18B832F7934",
"f c #C9E2857B7A20",
"g c #CA0287FC7CF0",
"h c #CCF1960C8CA4",
"j c #C9AB98A7900E",
"k c #CFF89E3E959B",
"l c #D08CA0EE9896",
"z c #D0B9A2499A4B",
"x c #D20DAC09A534",
"c c #D502ABFBA4D8",
"v c #DAEABC37B6BF",
"b c #E01AC879C425",
"n c #E2E4CAA5C650",
"m c #E43FCE92CA9A",
"M c #E48CD13ACDA5",
"N c #E563D2DECF66",
"B c #E721D66AD33B",
"V c #E8ABD791D467",
"C c #E927DA07D72B",
"Z c #E998DAACD7E5",
"A c #EB22DB8AD8AC",
"S c #EC71DE8CDBEF",
"D c #EBCADF13DCAB",
"F c #EF43E3D0E1B2",
"G c #F021E79DE5F1",
"H c #F1CDEA64E8EA",
"J c #F3D1EDF9ECC7",
"K c #F6DAF16BF060",
"L c #F94AF5CEF51B",
"P c #FD09FC8EFC67",
"I c #FFFDFFFEFFFD",
/* pixels */
"IIIPIIIIIIIIIIII",
"IInaFIIIIIIArVII",
"In3oyGIIIIZ0o0SI",
"Iso2OuHIIZ0#*XdI",
"IFt#*OpJZ9#*@tZI",
"IIZ7$2Oq8$2@yDII",
"IIIM4%2@$2OiGIII",
"IIIIb<**2OwJIIII",
"IIIIv,&*2#tSIIII",
"IIIx1&*@%2#0ZIII",
"IPk>&*;e5$2#7MII",
"Ij-*&:hPM5$2$5mI",
"Iz;&>lPIIM6$*.jI",
"ILf cPIIIIB7=gLI",
"IIKBIIIIIIIVxLII",
"IIIIIIIIIIIIIIII"
};
