/* XPM */
static char *Sketcher_Element_Arc_EndPoint_sm[] = {
/* columns rows colors chars-per-pixel */
"16 16 73 1 ",
"  c #EB1C1F2B0367",
". c #E1CD29400EB9",
"X c #F7722163033F",
"o c #FB6F24850728",
"O c #FC7531A615DE",
"+ c #D6123E58288F",
"@ c #EADE3D7E24AF",
"# c #DD8A4A913595",
"$ c #D8574D79398A",
"% c #FFFF56403D4F",
"& c #BAE6606F54C7",
"* c #D01958DA47B6",
"= c #DB2B59514718",
"- c #CE7B6A385D1B",
"; c #D1E469825A98",
": c #E32864845262",
"> c #CE187B816FB2",
", c #F94C7FEA6E99",
"< c #0059809C0059",
"1 c #05F7878305F7",
"2 c #1E65974C1E65",
"3 c #3AF88E683AF8",
"4 c #48AB958548AB",
"5 c #4FBB94084FBB",
"6 c #4D9797EB4D97",
"7 c #5136942B5136",
"8 c #75F6A55B75F6",
"9 c #7D8CAA197D8C",
"0 c #72B4C0B672B4",
"q c #FFFF815A6E92",
"w c #8923AB9B8923",
"e c #8B39B0F48B39",
"r c #AA83B47EAA83",
"t c #CDC489E48037",
"y c #C8798D01847A",
"u c #CF128D758412",
"i c #D0CB8DD38430",
"p c #D13E93428A58",
"a c #D2D0A29F9BBD",
"s c #D492A2D69BB5",
"d c #C5F4AA96A6B0",
"f c #DA89B7E7B2F4",
"g c #AACBC356AACB",
"h c #C6DCCDEDC6DC",
"j c #CFBCCFBDCFBD",
"k c #E011C9C0C68D",
"l c #CD69D0B3D117",
"z c #D0E0D0C3D0E0",
"x c #D51CD51CD51C",
"c c #D62ED62ED62E",
"v c #D70EDF8BD70E",
"b c #DEBDDEBDDEBD",
"n c #E30ED025CD74",
"m c #E1F6D398D194",
"M c #E677D707D4D2",
"N c #E6B6D9BFD7DB",
"B c #E9DDE032DEC2",
"V c #E122E122E122",
"C c #E508E508E508",
"Z c #EC2DE593E4A0",
"A c #E66BE9C1E66B",
"S c #EB42EB42EB42",
"D c #EF30EC3DEBD4",
"F c #EF0EF1B0F20F",
"G c #F41DF112F0A5",
"H c #F356F3D5F356",
"J c #F614F42BF3DB",
"K c #F57FF561F57F",
"L c #F8CBF8CBF8CB",
"P c #FB37F95AFB37",
"I c #FC1BFC1CFC1C",
"U c #FAF2FE0CFE6B",
"Y c #FFFEFFFDFFFE",
/* pixels */
"YYYYYYYYYYYYYYYY",
"YnuaGYYYYYYYYYYY",
"Z;,@yFIYYYYYYYYY",
"m#%o&ljVIYYYYYYY",
"K>.+dljzjCYYYYYY",
"YKnBYYSzjjVYYYYY",
"YYYYYYYIbzjCYYYY",
"YYYYYYYYYVjlGYYY",
"YYYYYYYYYYcccYYY",
"YYYYYYYYYYGjlKYY",
"YJkNUYYYYYYjrhYY",
"Kt:$fYYYYYYw63gY",
"N=qO-UYYYYV4027I",
"D*X pYYYYYH51<8Y",
"YMisGYYYYYYv9eAY",
"YYYYYYYYYYYYYYYY"
};
