/* XPM */
static char *Sketcher_Element_Line_StartingPoint_sm[] = {
/* columns rows colors chars-per-pixel */
"16 16 75 1 ",
"  c #1BC77AE71BC7",
". c #FABA1A740000",
"X c #F9D91F9D00F7",
"o c #DF6B27810F35",
"O c #BFCD47FD36C6",
"+ c #CD5744A43190",
"@ c #D4F346FE33A4",
"# c #FFFF4A8C3034",
"$ c #F1C454923E10",
"% c #AFFF5DBF5200",
"& c #C8D8574246F9",
"* c #EF1D704A5E2F",
"= c #C6A070006383",
"- c #CAA6736D66E6",
"; c #FFFF7FCB6CE5",
": c #0000819C0000",
"> c #000086930000",
", c #1F4A99D01F4A",
"< c #287382622873",
"1 c #2FA295042FA2",
"2 c #359D945D359D",
"3 c #4D688EF24D68",
"4 c #56558CBC5655",
"5 c #53AF935953AF",
"6 c #64BA9B5864BA",
"7 c #7749931A7749",
"8 c #64D2B1AC64D2",
"9 c #6D97BDB56D97",
"0 c #741FA240741F",
"q c #8E2AAFA48E2A",
"w c #AD03AB17AACE",
"e c #B568B4D1B568",
"r c #B55CB55AB55A",
"t c #B878B878B878",
"y c #B952B952B952",
"u c #BDFCBDFCBDFC",
"i c #CCC999EA929D",
"p c #CDB59D50966A",
"a c #C291B351B133",
"s c #AE59C049AE59",
"d c #BEFFCD77BEFF",
"f c #D6A3C050BDBF",
"g c #BF6EC065C088",
"h c #C3AEC3AEC3AE",
"j c #C36FC619C36F",
"k c #C5D7C5D7C5D7",
"l c #CC0FCC0FCC0F",
"z c #CE36CE36CE36",
"x c #CFD2CFD3CFD2",
"c c #DDCAC9D9C6F7",
"v c #DC0DD17ED033",
"b c #D589D57FD57D",
"n c #D2ECDA2AD2EC",
"m c #D5FEDD97D5FE",
"M c #DA02DA02DA02",
"N c #DA03DC69DA03",
"B c #E812DF36DDE9",
"V c #DCCCE1E0DCCC",
"C c #E327E327E327",
"Z c #EB4EE488E389",
"A c #EC51E8B2E82B",
"S c #E9DBE9D0E9DB",
"D c #E96AEA4FEA6F",
"F c #EC89ECBFECC6",
"G c #EF2EEEEDEF2E",
"H c #F0B2F0B2F0B2",
"J c #F3C7F2B8F28C",
"K c #F275F595F608",
"L c #F508F508F508",
"P c #F92BF899F92B",
"I c #FA34FA34FA34",
"U c #FB90FB90FB90",
"Y c #FC2AFE9CFEED",
"T c #FE41FCA7FE41",
"R c #FFFEFFFEFFFF",
/* pixels */
"RRRRRRRRRRRRRRRR",
"RRRRRRRRRRRZpiBR",
"RRRRRRRRRRJ=*$&A",
"RRRRRRRRRRv@;#of",
"RRRRRRRRRFwOX.+B",
"RRRRRRRRCrDa%-cR",
"RRRRRRRMtJbgKYRR",
"RRRRRRzuKlkIRRRR",
"RRRRIkkKhzRRRRRR",
"RRRPhxJtbRRRRRRR",
"Rmq7hHtCRRRRRRRR",
"V5814rSRRRRRRRRR",
"s29, MRRRRRRRRRR",
"n<>:3JRRRRRRRRRR",
"Td60mRRRRRRRRRRR",
"RRRRRRRRRRRRRRRR"
};
