/* XPM */
static char *Sketcher_Element_Circle_Edge_sm[] = {
/* columns rows colors chars-per-pixel */
"16 16 86 1 ",
"  c #08737A9D0873",
". c #0B897A200B89",
"X c #0B687B7E0B68",
"o c #0D7F7A860D7F",
"O c #12A07B5A12A0",
"+ c #0F927C990F92",
"@ c #11FA7D8511FA",
"# c #15DD7EB215DD",
"$ c #17867F4D1786",
"% c #1DD27FBE1DD2",
"& c #DA1534CC1D0D",
"* c #E1A229760F04",
"= c #FE04280A0AA2",
"- c #D7D350A63E00",
"; c #ED1C40342769",
": c #FFFF5D22452F",
"> c #CE7D62075453",
", c #CE7772A16582",
"< c #F5D77B6869D1",
"1 c #1E4A80FF1E4A",
"2 c #201882A62018",
"3 c #26B283B526B2",
"4 c #29A984FF29A9",
"5 c #2CDA85F62CDA",
"6 c #319F8969319F",
"7 c #33F188B533F1",
"8 c #365C891F365C",
"9 c #38608A8C3860",
"0 c #3B5C8D8D3B5C",
"q c #47CD92FC47CD",
"w c #4DE092B34DE0",
"e c #4D92951F4D92",
"r c #5307966C5307",
"t c #56C597E656C5",
"y c #61289DFC6128",
"u c #64999D7F6499",
"i c #68759F566875",
"p c #6BA4A0F76BA4",
"a c #7C4FA8F87C4F",
"s c #7F95AC5D7F95",
"d c #CF1D864D7BE1",
"f c #CF9488B57E7F",
"g c #8122AB148122",
"h c #8A25AFF78A25",
"j c #875AB0FC875A",
"k c #893AB085893A",
"l c #8965B22B8965",
"z c #8CC1B1AF8CC1",
"x c #940CB638940C",
"c c #99C6B93A99C6",
"v c #9EDFBBDC9EDF",
"b c #9FB7BD099FB7",
"n c #CF97948A8C1E",
"m c #D2ACA1A39AA4",
"M c #D859B121AB86",
"N c #A9A3C3E5A9A3",
"B c #ADDDC54CADDD",
"V c #B05DC5C2B05D",
"C c #B52DC8F8B52D",
"Z c #B850CB80B850",
"A c #C128D0A0C128",
"S c #C7F2D4D6C7F2",
"D c #CC2FD74FCC2F",
"F c #CFDCD96DCFDC",
"G c #D29BDAFBD29B",
"H c #D5EDDE6FD5ED",
"J c #E1E0CE9CCBD6",
"K c #E67BD8C8D6CC",
"L c #E83CDBE7DA21",
"P c #DC6FE2ADDC6F",
"I c #E343E79FE343",
"U c #EBD2E5E5E530",
"Y c #E7BDEAAEE7BD",
"T c #E93AEBF1E93A",
"R c #EC66EDF7EC66",
"E c #F246EE62EDD4",
"W c #EFD6F111EFD6",
"Q c #F255F248F255",
"! c #F1DDF2B4F1DD",
"~ c #F634F5C5F634",
"^ c #F78EF6C7F78E",
"/ c #F919F817F919",
"( c #FA18F91CFA18",
") c #FC7AFCEFFD00",
"_ c #FEF3FD0EFEF3",
"` c #FFFEFFFCFFFF",
/* pixels */
"````````````````",
"`````IBljNP`````",
"```!z3.##.1aY```",
"``Wu.rBHHBt.wI``",
"``goh~````~z.i(`",
"`H%u/``````(p+A`",
"`xOS``LnmE``D@a`",
"`p5R`!,<;f``R6e(",
"`y8!`U-:=>(`!0q/",
"`a%P`(d*&M``I2y`",
"`Zoc``~JK```v.v`",
"`!q4F``````G37Y`",
"``S35B!``!V7#C``",
"```Z8o8yy9.4V```",
"````Yxe54qlP````",
"``````/TT~``````"
};
