/* XPM */
static char *Sketcher_Element_Point_StartingPoint_sm[] = {
/* columns rows colors chars-per-pixel */
"16 16 27 1 ",
"  c #01687FD00168",
". c #1C7487E41C74",
"X c #0F9091C60F90",
"o c #3C2588993C25",
"O c #343A91AB343A",
"+ c #3A65931C3A65",
"@ c #315CA1DC315C",
"# c #403B953F403B",
"$ c #507A90A1507A",
"% c #5DA196F15DA1",
"& c #55E2B2CC55E2",
"* c #7801A3607801",
"= c #977BB58E977B",
"- c #9EF2B9A49EF2",
"; c #A89BBFBAA89B",
": c #97FBD19F97FB",
"> c #BD3DCC3ABD3D",
", c #C17CCF28C17C",
"< c #C3DDD0CDC3DD",
"1 c #C5A5D203C5A5",
"2 c #DEE5E3D9DEE5",
"3 c #E0E6E56EE0E6",
"4 c #E805EAF6E805",
"5 c #ECF8EEE6ECF8",
"6 c #F13BF225F13B",
"7 c #F63EF680F63E",
"8 c gray100",
/* pixels */
"8888888888888888",
"8888888888888888",
"8888888888888888",
"8888888888888888",
"8888888888888888",
"88888871,6888888",
"888887*#O%588888",
"88888<+:& ;88888",
"88888>.@X -88888",
"888885$  o388888",
"8888884-=2888888",
"8888888888888888",
"8888888888888888",
"8888888888888888",
"8888888888888888",
"8888888888888888"
};
