/* XPM */
static char *Sketcher_SelectHorizontalAxis[] = {
/* columns rows colors chars-per-pixel */
"16 16 27 1 ",
"  c #6492BD930E21",
". c #65BDBB6612A9",
"X c #70BFBD3A2722",
"o c #71AFBB822ABA",
"O c #6A6FC5D7117B",
"+ c #6B6AC6181327",
"@ c #6BBCC6B1132F",
"# c #6DF1CC90119B",
"$ c #6E13983245BC",
"% c #6FF39B964614",
"& c #72539E56481A",
"* c #AE70BE399F68",
"= c #9FD3C0A0806F",
"- c #A43AC8CC8144",
"; c #B116D0D492AB",
": c #BC8DDB359F90",
"> c #BD25DB88A069",
", c #C69BE011AE8B",
"< c #E4C9EFE9DA3A",
"1 c #E5C2F08FDB84",
"2 c #E7E4F276DDD7",
"3 c #EDD7ED10EE94",
"4 c #F468F99DEF67",
"5 c #F5DCF57DF635",
"6 c #F7BBFB42F45E",
"7 c #FC35FBFCFC6A",
"8 c gray100",
/* pixels */
"8888888888888888",
"8888888888888888",
"8888888888888888",
"8888888888888888",
"8888888888888888",
"8888888888888888",
"6,:>>>>>>>>>>>>2",
"1oOOOO@@OO@@@O.;",
"<X############ =",
"4-&%%%%%%%%%%%$*",
"8733333333333335",
"8888888888888888",
"8888888888888888",
"8888888888888888",
"8888888888888888",
"8888888888888888"
};
