/* XPM */
static char *Sketcher_SelectOrigin[] = {
/* columns rows colors chars-per-pixel */
"16 16 43 1 ",
"  c #70377FF3614B",
". c #57DC9F641348",
"X c #6104B6690EC2",
"o c #61B5B90A0D55",
"O c #646EBD610E43",
"+ c #6294B603122C",
"@ c #62E3B52B13C5",
"# c #5BA9923C27A2",
"$ c #5D38869935ED",
"% c #693498BB3C12",
"& c #658FA8952572",
"* c #6854B31420A1",
"= c #669EC28D0D4B",
"- c #672CC1C60F4D",
"; c #6A1BC7A20F0E",
": c #6AF3C7C11098",
"> c #702CCF43134D",
", c #7315D2C3156A",
"< c #742FD3F01668",
"1 c #6E8F82815B9C",
"2 c #8397BC174DCF",
"3 c #8A35BFB6574C",
"4 c #8BE7C05259F7",
"5 c #9354C3F36534",
"6 c #9672C57C69B2",
"7 c #BE8CBE7FBE96",
"8 c #ABAECA0E8ED2",
"9 c #ADD0D1768BF9",
"0 c #B155D33B912D",
"q c #C6B4DEFEAFB5",
"w c #CA52E12CB4B8",
"e c #D211E592BFAA",
"r c #D33BD563D12C",
"t c #D482D402D4FF",
"y c #DF49E55CD988",
"u c #E4D5E41BE584",
"i c #E567E49CE629",
"p c #EF19F633E864",
"a c #F3BAF8FBEEC9",
"s c #F45EF931EFCE",
"d c #F6DEFAA7F346",
"f c #FE01FDEDFE14",
"g c #FFFFFFFFFFFE",
/* pixels */
"gggggggggggggggg",
"gggggggggggggggg",
"gggggggggggggggg",
"gggggggggggggggg",
"gggggp936egggggg",
"ggggs4o;=*qggggg",
"ggggq+,<<;2dgggg",
"gggg0O<,,>&ygggg",
"ggggw@,,<:#rgggg",
"ggggd5X;=.1ugggg",
"ggggga8%$ 7ggggg",
"ggggggfutigggggg",
"gggggggggggggggg",
"gggggggggggggggg",
"gggggggggggggggg",
"gggggggggggggggg"
};
