/* XPM */
static char *Sketcher_Element_Arc_Edge_sm[] = {
/* columns rows colors chars-per-pixel */
"16 16 83 1 ",
"  c #105479361054",
". c #15D17B9315D1",
"X c #1A777D8B1A77",
"o c #1F4C78681F32",
"O c #24E066DB145D",
"+ c #20437FA72043",
"@ c #99EF2D0E050B",
"# c #ED991E68018A",
"$ c #F5EE1C2D0000",
"% c #D9C634E71D39",
"& c #E79B24BE090E",
"* c #EDFB2533087E",
"= c #FFFF2E5A121B",
"- c #D7E03B1526E4",
"; c #D69E3BD7288A",
": c #DD684F45391D",
"> c #FFFF432A2849",
", c #F6794F18375B",
"< c #FFFF4EEA3595",
"1 c #E7B24FE73A2D",
"2 c #FFFF501A3681",
"3 c #C76958F74178",
"4 c #CEF45EAD4EB7",
"5 c #D27C5B904A80",
"6 c #C436620051CA",
"7 c #CF61691F5B82",
"8 c #E2E569AA5838",
"9 c #FF4071755CDD",
"0 c #CE6B6DB460A9",
"q c #CDB2725C6535",
"w c #CDAD79F76DEF",
"e c #CDB17BA96FDC",
"r c #FE687A52677B",
"t c #F6017D5B6BF3",
"y c #276481EB2764",
"u c #3645895F3645",
"i c #400B8D0B400D",
"p c #4E5D93464E5D",
"a c #50B0950C50D3",
"s c #599397D15993",
"d c #6EE0A2746EE0",
"f c #7A8CA8D57A85",
"g c #CFE488297DF5",
"h c #CEDA88A47E80",
"j c #B8FB9076825A",
"k c #875EB1CF8968",
"l c #A4B1A1C18E01",
"z c #A3B7BE63A3B7",
"x c #CFD48D6883D7",
"c c #D03F8FB2866F",
"v c #D2F89D25956F",
"b c #D48EA42D9D3E",
"n c #D667A9F1A399",
"m c #D1F5AC68A65D",
"M c #D81CB233ACB8",
"N c #D9A2BB53B6EF",
"B c #A65AC05CA65A",
"V c #AD02C39EAD02",
"C c #DCC3C1EFBE1D",
"Z c #C19CD06CC19C",
"A c #C724D460C7DE",
"S c #D184DAEAD184",
"D c #D7ACDF54D7AC",
"F c #E7CBDDB7DC40",
"G c #E8E8DD10DB54",
"H c #E9D6DEADDD0F",
"J c #DB46E2D8DBD9",
"K c #DBF1E189DD9D",
"L c #E396E77FE396",
"P c #E943E3C7E31E",
"I c #ED10E8FAE88F",
"U c #EB32ECE9EB32",
"Y c #F1A5ED57ECAF",
"T c #EF63F0B4EF63",
"R c #F389F0CFF05B",
"E c #F2E8F23AF21D",
"W c #F5E9F791F7D2",
"Q c #F857F91DF938",
"! c #FAA1F8D4F9AB",
"~ c #F91EFB36FB87",
"^ c #FDF6FCB3FDF6",
"/ c #FD43FF19FF51",
"( c gray100",
/* pixels */
"((((((((((((((((",
"(HxxH(((((((((((",
"Wwt,6K~(((((((((",
"E5<=@oaBT(((((((",
"(b%%jki uZ((((((",
"(~FF/(EVuXz(((((",
"((((((((Ls.V((((",
"(((((((((TpyD(((",
"((((((((((S+d^((",
"(((((((((((f+J((",
"(WCNY((((((AOl!(",
"(v81e~(((((m3:g~",
"W79>-I((((~0r<-P",
"(x&#q~(((((g*$4Y",
"(EMnI((((((YvcH(",
"(((((((((((((((("
};
