/* XPM */
static char *Sketcher_Element_Circle_MidPoint_sm[] = {
/* columns rows colors chars-per-pixel */
"16 16 38 1 ",
"  c #01DE866701DE",
". c #1E118F661E11",
"X c #238B847B238B",
"o c #2A909EFC2A90",
"O c #34AC8E0734AC",
"+ c #41018DDD4101",
"@ c #550899525508",
"# c #69239FC76923",
"$ c #6F30A2586F30",
"% c #7E2DA99A7E2D",
"& c #7694BFD87694",
"* c #80C7AB4680C7",
"= c #8AAFB09E8AAF",
"- c #BB1FCCDCBB1F",
"; c #CFBDCFBDCFBD",
": c #CE50D9B2CE50",
"> c #D1EED1EED1EE",
", c #D3A3D3A3D3A3",
"< c #D4DAD4DAD4DA",
"1 c #D82ED82ED82E",
"2 c #DBBBDBBBDBBB",
"3 c #DDA5DDA5DDA5",
"4 c #DC62E28DDC62",
"5 c #E2DEE2DEE2DE",
"6 c #E3A5E829E3A5",
"7 c #E4EFE4EFE4EF",
"8 c #E7EDE7EDE7ED",
"9 c #E71BEB43E71B",
"0 c #E929E929E929",
"q c #E99AE99AE99A",
"w c #ED02ED02ED02",
"e c #F055F174F055",
"r c #F354F354F354",
"t c #F502F502F502",
"y c #F96AF96AF96A",
"u c #FBFCFB86FBFC",
"i c #FE0FFD59FE0F",
"p c #FFFDFFFCFFFD",
/* pixels */
"pppppppuuppppppp",
"ppppt3>>1>3tpppp",
"ppp8;111121;qppp",
"pp8;1>5wq5;3;qpp",
"pt;11uppppu>3;tp",
"p21>pppuuppu;23p",
"p>>qpp-#%9pp32>p",
"t>>tp6@&.*ppw1>u",
"t>>tp4Oo $ppq1;u",
"p>1qpu=X+:pp52;p",
"p2>>ppu9eppu;22p",
"pr;12pppppu12;tp",
"pp5>1;8tr8;2>6pp",
"ppp5;1>>>12;8ppp",
"ppppr2>;>>2rpppp",
"pppppppurppppppp"
};
