/* XPM */
static char *Sketcher_CloseShape[] = {
/* columns rows colors chars-per-pixel */
"16 16 185 2 ",
"   c #2BD54F357C4F",
".  c #3365510D740E",
"X  c #5BBB48985292",
"o  c #48015BDE729D",
"O  c #44CD5DEE7E02",
"+  c #4DBF60BF768B",
"@  c #5A5262FB75BC",
"#  c #F4841E0C0117",
"$  c #D8BB278D0FB2",
"%  c #D1DB31B21AA7",
"&  c #E93D20600538",
"*  c #FB9D2250037A",
"=  c #F35A250B093E",
"-  c #E1DF2DB714DA",
";  c #FFFF38F61C23",
":  c #D8F1381E20E9",
">  c #F0103B2020F6",
",  c #8D5E42773CCF",
"<  c #C37343DC318D",
"1  c #D0EE4BF5398A",
"2  c #FEF03FDD2526",
"3  c #BFC85256438A",
"4  c #9DA36FBD6BD7",
"5  c #9DB9789E79A6",
"6  c #9EAF79DF7B17",
"7  c #B39C758B6C9A",
"8  c #B29B77737773",
"9  c #B1BA78C770A1",
"0  c #B56B7F447F44",
"q  c #BCE17B7D7B7D",
"w  c #D9995906466C",
"e  c #ED5A583D4298",
"r  c #C526621353E9",
"t  c #C91764345512",
"y  c #C35769D25CF1",
"u  c #DB5561ED5081",
"i  c #EB9867AC5444",
"p  c #EAEC687655BE",
"a  c #FFFF73A65EF2",
"s  c #CF4A6D406D40",
"d  c #D2826E905FF1",
"f  c #CE6E77D76B52",
"g  c #CA17752E752E",
"h  c #C93877BB77BB",
"j  c #C9BF78E278E2",
"k  c #C8BF7B447B44",
"l  c #CEC579A279A2",
"z  c #CA727CD67CD5",
"x  c #D1B075107510",
"c  c #DC4478D778D7",
"v  c #DB367D4C7D4C",
"b  c #F2DC7AB87AA8",
"n  c #F72E7D527D52",
"m  c #D1D78AB47F8D",
"M  c #FFFF81266EBA",
"N  c #FFFF854B72F1",
"B  c #286150ED8477",
"V  c #40235D9E81BB",
"C  c #41435FD3841C",
"Z  c #4F31670881A3",
"A  c #3FF36138894C",
"S  c #4B2C67A78BB1",
"D  c #4D1B6A8D8D01",
"F  c #512368BB8683",
"G  c #568F6E638CE3",
"H  c #6EDE73AF81F9",
"J  c #72D37CF28A13",
"K  c #7B0F878E9732",
"L  c #7F038FC2A521",
"P  c #86028D8197FE",
"I  c #89368BB09263",
"U  c #9AC797249AE4",
"Y  c #A98086DA86DA",
"T  c #A92B87D988AE",
"R  c #B97081328132",
"E  c #B4058A378A37",
"W  c #B16A8E368E36",
"Q  c #B935925B8E14",
"!  c #AC7199FF99FF",
"~  c #B76B977E92F0",
"^  c #B9A39ABD9659",
"/  c #B6A99C079839",
"(  c #824B9155A4B4",
")  c #89139757A9AB",
"_  c #9666A222B110",
"`  c #9926A516B470",
"'  c #AB54A585A697",
"]  c #AB13A7C4A8E5",
"[  c #AE78B3FAB9DA",
"{  c #AE1FB5BCBFB2",
"}  c #B85EB08AB0C8",
"|  c #BD06B4C0B3B4",
" . c #BBF6B99BBAD5",
".. c #BA4FBCC6BFA6",
"X. c #C98A86FE86FE",
"o. c #C7228B4E8B4E",
"O. c #CF5A88678880",
"+. c #CE9D8FBC8FCE",
"@. c #D2EE85D5853F",
"#. c #D08C87AF87AF",
"$. c #D1AA8ADF8AD0",
"%. c #D7768DDA8DDA",
"&. c #D9758971895E",
"*. c #DD458C918C91",
"=. c #D02395518CB4",
"-. c #C3AA90709067",
";. c #C5EA91659152",
":. c #C6CF91FC9212",
">. c #C55A970C9703",
",. c #C2F69CB39CE9",
"<. c #CE41991D991D",
"1. c #CF359EA39EB1",
"2. c #D20C91D39188",
"3. c #D16497C490BA",
"4. c #D11495C295EE",
"5. c #D88D937D937D",
"6. c #DE7F97BF97BF",
"7. c #E0E085968596",
"8. c #FEED82538253",
"9. c #F3868B108AFD",
"0. c #F72D8A2A8A2A",
"q. c #FFFF89C289C2",
"w. c #FA11929D929D",
"e. c #FF0590589058",
"r. c #FF62926C926C",
"t. c #FFFF965A965A",
"y. c #FDC39C0D9C0D",
"u. c #C481A806A3DB",
"i. c #CD91A3F4A3F3",
"p. c #C538AEFAAE20",
"a. c #CD28ADB8ADB8",
"s. c #CCD0AE2FAE2F",
"d. c #D5ABADF3A840",
"f. c #CCCBB7DDB652",
"g. c #C830BBE0BBE0",
"h. c #D157B961B961",
"j. c #D0BCBECABD41",
"k. c #D49EBF02BEB3",
"l. c #F649AE08ADF5",
"z. c #FFFFAF25AF25",
"x. c #FFFFB98FB98F",
"c. c #FDB0BBA0BBA0",
"v. c #FFFFBE92BE94",
"b. c #B5F2BF2DC6DA",
"n. c #C52AC5C7C6CC",
"m. c #CB3AC835C871",
"M. c #C8B4C91DC929",
"N. c #CA30CC3BCC88",
"B. c #CDB9CFABCFF1",
"V. c #CF23CF96CFA5",
"C. c #D548C338C338",
"Z. c #D7F3C77FC7C4",
"A. c #DC03C994C6EC",
"S. c #D950C943C943",
"D. c #DD47CE1BCE1B",
"F. c #C789CC3FD23F",
"G. c #CC17CEA4D0E6",
"H. c #CC3ACF10D23B",
"J. c #CF25D0FFD143",
"K. c #D025D369D7A1",
"L. c #D512D5F5D611",
"P. c #D5C3D895DC3A",
"I. c #DC08D95BD8D6",
"U. c #DD94DC4ADC33",
"Y. c #E20BD7A1D7A1",
"T. c #E456DA8EDA8E",
"R. c #E64EDE98DE98",
"E. c #E7ABE025E024",
"W. c #DD32DEF0E13E",
"Q. c #DEB8DF9CE08A",
"!. c #E2BAE2C2E2E7",
"~. c #E0F1E2B7E50E",
"^. c #E307E4EEE516",
"/. c #EC10E8A7E8A7",
"(. c #EA53EB06EB11",
"). c #ECA9EC73EC73",
"_. c #ED44EDFFEE04",
"`. c #F0E9F2B4F30B",
"'. c #F534F4F4F4FA",
"]. c #F63DF76FF79B",
"[. c #F837F9DDFA00",
"{. c #FA1AFA7FFA7F",
"}. c #FB22FB9BFB9B",
"|. c #FC76FCECFCEC",
" X c #FFFCFFFEFFFD",
/* pixels */
" X|.h.o.>. .H.~.b.' -.X.s.{. X X",
" XR.5.v.9.5 o V + 6 l.z.v T. X X",
" XY.7.t.N ,.U X } i.0.q.c T. X X",
" X).E x O.f.d p w s.+.l Y g.T.{.",
"S.<.R ! `.d.e a = 3.[.U.W 6.*.a.",
"X.c.y.O.].A.% # $ u. X/.%.c.e.k ",
"z e.8.@.`.L./ h ~ M.^.'.+.n b ;.",
"k.@.@.Z.^.N.J.[./.N.n.A.j.,.T ' ",
"[ P M.=.r 9 U. X XL.7 u w ^ Z K ",
"( A Q p M - ^ J.B.| 1 N 2 3 D L ",
"` C 4 > ; & E J.B.g.< * # , . ) ",
"{   @ t : y I.).).^.f.f m H B _ ",
"Q.D F B.p.;.1.E.D.<.4.C.b.S D K.",
" XF.O I 2.v.w.0 R c.y.m J G P. X",
" X X.. .&.e.8.8 q e.8.$.n.Q. X X",
" X X{.'.a.s g S.C.k h Z. X X X X"
};
