/* XPM */
static char *Sketcher_ConnectLines[] = {
/* columns rows colors chars-per-pixel */
"16 16 139 2 ",
"   c #5A5C6A3A7DB6",
".  c #7A44754E7FC3",
"X  c #F5231F7D02B5",
"o  c #D23B2EF1177C",
"O  c #DC0F2C9E12EE",
"+  c #DA0A34131BB3",
"@  c #D859345F1CCC",
"#  c #E32D23950808",
"$  c #FFFF2C370E6A",
"%  c #FFFF2FAD120F",
"&  c #E47638481F95",
"*  c #D60F3C2927D6",
"=  c #BD104E5D3E69",
"-  c #D1E3493A358D",
";  c #E94244672D5F",
":  c #FF524C723264",
">  c #FFFF51243785",
",  c #F8F452C03AEB",
"<  c #F9CC55313D93",
"1  c #BA9C70BE662E",
"2  c #BA7179C37078",
"3  c #B1707E107E10",
"4  c #C77550D33FDB",
"5  c #D29255814398",
"6  c #D03F63215364",
"7  c #D9AE62B851AC",
"8  c #C72171E1658D",
"9  c #C85D702F637A",
"0  c #CE60743F6758",
"q  c #DB0675EA75EA",
"w  c #E06079DF79DF",
"e  c #EE9878517851",
"r  c #F46D78E978E9",
"t  c #F8337BD77BD7",
"y  c #B57285317E3D",
"u  c #FCB681086F52",
"i  c #F8C682997180",
"p  c #3B065DF68AF0",
"a  c #379E613096A5",
"s  c #32EF60559A9C",
"d  c #422A5DC18020",
"f  c #485E633F8499",
"g  c #4DE468408924",
"h  c #43FF668292E8",
"j  c #81537F788A93",
"k  c #726C859F9E1C",
"l  c #A5D48A958BE6",
"z  c #A55A8B208B20",
"x  c #B196839F839F",
"c  c #A0D6905E9293",
"v  c #AF299BC398DF",
"b  c #BB29956F956F",
"n  c #AA1CAD42B1AF",
"m  c #A621AF46BB0F",
"M  c #BB57B2E9B1B9",
"N  c #C6BF832D832D",
"B  c #CDB28EFA85E9",
"V  c #C70D88668866",
"C  c #C6DD8C688C68",
"Z  c #CF3F8A8F8A71",
"A  c #CDA18DF78DEC",
"S  c #D35382058205",
"D  c #D4BB806C806C",
"F  c #D282845C845C",
"G  c #D157891F891F",
"H  c #D5148F108F10",
"J  c #DE778CCA8CCA",
"K  c #CFAC919189A5",
"L  c #C74991389138",
"P  c #CDB692259225",
"I  c #CD449BC694AD",
"U  c #CDDF98FE98FE",
"Y  c #C8909DCB9DCB",
"T  c #CD5F9CFF9CFF",
"R  c #D22890B890B8",
"E  c #DE7E906D906D",
"W  c #FCFD81468146",
"Q  c #FDF286258625",
"!  c #FBD78B9F8B9F",
"~  c #E0B099A399A3",
"^  c #FFFF91139113",
"/  c #FE1493A293A3",
"(  c #FA7C95769576",
")  c #FFFF99C399C3",
"_  c #D322A20A9B03",
"`  c #C933A3C6A3C6",
"'  c #CCF2A563A563",
"]  c #CF16AB35AB35",
"[  c #CF8FAD7EAD7E",
"{  c #D604A989A324",
"}  c #D710AFC0AA1A",
"|  c #D0C0AD01AD01",
" . c #D458B0A4AB8E",
".. c #DA72BB56B75D",
"X. c #D35BBEA1BB9A",
"o. c #EEB2A7F0A7F0",
"O. c #FD95AA58AA58",
"+. c #FFFFB545B546",
"@. c #FFFFBC36BC36",
"#. c #FFFFBF50BF50",
"$. c #C26AC666CA89",
"%. c #D72DC487C487",
"&. c #D25BCB17CB17",
"*. c #D108CE4DCE16",
"=. c #D9C9C8A0C8A0",
"-. c #DA58CACBCACB",
";. c #D5E3D146D141",
":. c #D7A0D493D423",
">. c #DF28D40BD3F7",
",. c #E208D1E8CF92",
"<. c #E249D295D05A",
"1. c #E4F3D47CD220",
"2. c #E28AD7DED7DE",
"3. c #E3CBDADDDADD",
"4. c #E868DEBADD4A",
"5. c #DD12DEDFE116",
"6. c #E03EE0B9E17F",
"7. c #E1DCE1FDE20E",
"8. c #E938E3DAE3DA",
"9. c #EA81E4C0E4C0",
"0. c #ED24E5D8E4C6",
"q. c #E972E947E911",
"w. c #EB41EB68EB61",
"e. c #EEE8EC06EC06",
"r. c #F182EFABEF6B",
"t. c #F057F0B5F0C7",
"y. c #EF7FF41BF4C3",
"u. c #F23DF17AF164",
"i. c #F320F3B5F3B9",
"p. c #F64AF5B6F5B6",
"a. c #F6E3F5DBF5B7",
"s. c #F5FDF77EF7B5",
"d. c #F6B6F6B2F6AF",
"f. c #F7D2F930F929",
"g. c #F9E7FAFDFAFD",
"h. c #FB11FC3CFC3C",
"j. c #FD6BFE0DFE0D",
"k. c #FE28FFE9FFFF",
"l. c #FFFDFFFEFFFE",
/* pixels */
"l.l.l.<.8 9 ,.l.g. .9 I d.l.l.l.",
"l.l.d.0 i , 6 f.,.7 u & } l.l.l.",
"l.l.r.5 : $ - i...; > X K l.l.l.",
"l.l.l._ @ o y y.:.= # - 1.l.l.l.",
"l.l.l.g.4.$.M 2 1 v X.9.l.l.l.l.",
"l.l.l.l.l.d.1 i < 4 i.l.l.l.l.l.",
"l.l.l.l.l.i.6 : % * 0.l.d.2.8.l.",
"l.l.g.l.l.l.{ + O B l.d.' ~ G %.",
"e.[ Y &.l.l.y.j . w.l.3.J @.! V ",
"` o.O.w 8.l.9.g f 7.l.w.F W e Y ",
"L ( / w 2.l.m a s k 6.>.z 3 ] e.",
"-.F q x ;.*.  p h d z ~ J b g.l.",
"l.e.&.z R A c $.5.n C +.) w w.l.",
"l.l.e.H @./ A f.l.f.T r r P s.l.",
"l.l.e.Z Q t U g.l.l.w.[ [ 8.l.l.",
"l.l.l.=.N C 4.l.l.l.l.l.l.l.l.l."
};
