/* XPM */
static char *Sketcher_SelectConstraints[] = {
/* columns rows colors chars-per-pixel */
"16 16 79 1 ",
"  c #6474B7D9140D",
". c #6A8EC63D1166",
"X c #6B8AC4831522",
"o c #6C97C1C51A09",
"O c #6FBAC7CF19FB",
"+ c #6EFFC3451D24",
"@ c #70ECC94E1AC7",
"# c #72EBCA791D8E",
"$ c #74D6CE931D6B",
"% c #714FC22F22DD",
"& c #73DAC3B22685",
"* c #73E7C3BA26AD",
"= c #7507C6C82568",
"- c #7670CCBB22A9",
"; c #7906CE162672",
": c #774DC4192D12",
"> c #7952C98A2B55",
", c #7BEBC95730FD",
"< c #7D71CCE53029",
"1 c #7B25C0533882",
"2 c #80F8C6723D9F",
"3 c #860ECB7842CF",
"4 c #87D7CC73454C",
"5 c #8971CD5F4776",
"6 c #898AC7764DFE",
"7 c #8C34C7075377",
"8 c #8B72C9944FF4",
"9 c #8FCCCFC251FA",
"0 c #927BCC2B5AD1",
"q c #92D5D060574E",
"w c #9674CE2960FA",
"e c #9A2DD27C63CC",
"r c #9BE9D33A6670",
"t c #A1C8D61E6F3C",
"y c #A51DD83F73D1",
"u c #A50ED79C7430",
"i c #A678D3EF7ACB",
"p c #A76CD752792D",
"a c #A830D3A47EA4",
"s c #AAF1DA337D5B",
"d c #ACCCD8B882A5",
"f c #AE40D99D8454",
"g c #B20FDABD8AAB",
"h c #B330DE918941",
"j c #B55DDE3B8DED",
"k c #B64CD9F893F2",
"l c #B7EADD9793C1",
"z c #B914DC2897A8",
"x c #B964DCBD9790",
"c c #C3D0E1B5A6E5",
"v c #C6CCE24FACB6",
"b c #C84FE30CAED2",
"n c #C890E497ADA9",
"m c #C9ADE366B101",
"M c #CBB9E69EB210",
"N c #CEE5E5CBB8D8",
"B c #D03EE590BBF6",
"V c #D07AE74EBAE3",
"C c #D0E9E578BD57",
"Z c #D7F3EA7BC64B",
"A c #DA42EC2BC92C",
"S c #DD3DEDB1CD8D",
"D c #E029EF5ED19B",
"F c #E22FF047D4D3",
"G c #E27AF129D4AC",
"H c #E3A4F0EBD6F3",
"J c #E491F136D898",
"K c #E4D4F17FD8B3",
"L c #E92DF375DF70",
"P c #EB53F41EE2FD",
"I c #EC11F4AFE3F0",
"U c #ED2CF5F2E4D6",
"Y c #F03DF734E9B8",
"T c #F085F73FEA3F",
"R c #F5F0FA35F1D7",
"E c #F967FBB2F748",
"W c #FB00FD0AF92A",
"Q c #FCE6FE0EFBD6",
"! c #FFFDFFFDFFFD",
/* pixels */
"!!!!!!HkR!!!!!!!",
"!!!!!!m%dE!!!!!!",
"!!!!Ffg7ogW!!!!!",
"!!!!v:=+ okQ!!!!",
"!!!!RIFpo +zQ!!!",
"!!!!!!!Er&73I!!!",
"!!!!!!!!novF!!!!",
"!!!!!!!!KiH!!!!!",
"!!UtlW!!!!!!!!!!",
"!!H-3Y!QbI!!!RvI",
"!!H;4Y!Qq4A!Le&Z",
"!!F;4Y!!x+,V9X8K",
"!!H;4Y!!P6.a<%m!",
"Mhy$>sjKu.2Nio5I",
"tO@##@+zw0S!Rk1Z",
"HvcccccFNL!!!!CK"
};
