/* XPM */
static char *Sketcher_Element_Line_Edge_sm[] = {
/* columns rows colors chars-per-pixel */
"16 16 75 1 ",
"  c #6C3739E6049A",
". c #10C06E4908DB",
"X c #01D57D8D0253",
"o c #0E0879CB0E01",
"O c #102B71370D75",
"+ c #15F377C315EF",
"@ c #184B7963184B",
"# c #225E7939225E",
"$ c #25287ADC2528",
"% c #31377BC33137",
"& c #35A37F3535A3",
"* c #56F4414A0192",
"= c #EFB51DFD0000",
"- c #F9651A8B0000",
"; c #FE281F600087",
": c #C5C633F11F8D",
"> c #D4D936131F2B",
", c #E7D8225007C1",
"< c #FFFF38E21C2B",
"1 c #CFDB3CF12861",
"2 c #CF6E417F2D15",
"3 c #CBD046D634E6",
"4 c #E1F8404526F7",
"5 c #E9014FCD3A83",
"6 c #FFFF4EB8350A",
"7 c #968E67455350",
"8 c #94B779A36878",
"9 c #C80463945584",
"0 c #CB3C60D45198",
"q c #CA4566E5589B",
"w c #F86463484DF5",
"e c #FFFF73245E8F",
"r c #C6C177D36C8A",
"t c #CA4B7B877037",
"y c #EF8B71E15FE2",
"u c #F32F741B621C",
"i c #0000817D0000",
"p c #440A81EE440A",
"a c #481385144813",
"s c #594E8B06594E",
"d c #5B608D5D5D48",
"f c #6DB894116F04",
"g c #CD4E82AA78BF",
"h c #FFFF833970EB",
"j c #8747A58F87D3",
"k c #9904AEAA994C",
"l c #9E03B24A9E03",
"z c #AFB1BD01AFB1",
"x c #CA3789538005",
"c c #CC1497388FAC",
"v c #CF37998D92A8",
"b c #CC7BA665A18B",
"n c #CD3AAA2BA60F",
"m c #D5F6B64EB1BA",
"M c #B40AC0E6B40A",
"N c #C390CB86C390",
"B c #C81ECF82C81E",
"V c #DA3CC8A6C61A",
"C c #DDDDCB2BC877",
"Z c #E038D3C3D1F5",
"A c #D4A0D85CD4A0",
"S c #D7F3DB86D7F3",
"D c #E3A1D714D546",
"F c #E379D8C4D735",
"G c #E6C1DC7BDB04",
"H c #E072DDAFDD73",
"J c #E496DFB4DFD5",
"K c #E34AE464E34A",
"L c #EC3DE5F4E515",
"P c #EE83EE4AEE97",
"I c #F3A2F64EF679",
"U c #F79DF834F84B",
"Y c #F9E8FA29FAA7",
"T c #FE14FF39FF64",
"R c #FFFFFFFEFFFF",
/* pixels */
"RRRRRRRRRRRRRRRR",
"RRRRRRRRRRRLcxCR",
"RRRRRRRRRRUryw2Z",
"RRRRRRRRRRJ3e6,n",
"RRRRRRRRRPf =-1Z",
"RRRRRRRRKsX.7gVR",
"RRRRRRRApXojIRRR",
"RRRRRRN%i@lYRRRR",
"RRRRRz$i$MRRRRRR",
"RRRUk+i&BRRRRRRR",
"RDv8OXaARRRRRRRR",
"F0u4*dKRRRRRRRRR",
"b5h<:HRRRRRRRRRR",
"V>;-9URRRRRRRRRR",
"TmqtGRRRRRRRRRRR",
"RRURRRRRRRRRRRRR"
};
