<?xml version="1.0" encoding="UTF-8" standalone="no"?>
<!-- Created with Inkscape (http://www.inkscape.org/) -->
<svg
   xmlns:dc="http://purl.org/dc/elements/1.1/"
   xmlns:cc="http://creativecommons.org/ns#"
   xmlns:rdf="http://www.w3.org/1999/02/22-rdf-syntax-ns#"
   xmlns:svg="http://www.w3.org/2000/svg"
   xmlns="http://www.w3.org/2000/svg"
   xmlns:sodipodi="http://sodipodi.sourceforge.net/DTD/sodipodi-0.dtd"
   xmlns:inkscape="http://www.inkscape.org/namespaces/inkscape"
   width="16px"
   height="16px"
   id="svg2327"
   sodipodi:version="0.32"
   inkscape:version="0.46"
   sodipodi:docbase="D:\Projekte\free-cad_09\src\Mod\Robot\Gui\Resources\icons\actions"
   sodipodi:docname="Robot_SetDefaultOrientation.svg"
   inkscape:output_extension="org.inkscape.output.svg.inkscape"
   inkscape:export-filename="C:\_Projekte\FreeCAD_trunk\src\Mod\Robot\Gui\Resources\icons\Robot_SetDefaultOrientation.png"
   inkscape:export-xdpi="253.125"
   inkscape:export-ydpi="253.125">
  <defs
     id="defs2329">
    <inkscape:perspective
       sodipodi:type="inkscape:persp3d"
       inkscape:vp_x="0 : 8 : 1"
       inkscape:vp_y="0 : 1000 : 0"
       inkscape:vp_z="16 : 8 : 1"
       inkscape:persp3d-origin="8 : 5.3333333 : 1"
       id="perspective18" />
    <linearGradient
       id="linearGradient12512">
      <stop
         style="stop-color:#ffffff;stop-opacity:1.0000000;"
         offset="0.0000000"
         id="stop12513" />
      <stop
         style="stop-color:#fff520;stop-opacity:0.89108908;"
         offset="0.50000000"
         id="stop12517" />
      <stop
         style="stop-color:#fff300;stop-opacity:0.0000000;"
         offset="1.0000000"
         id="stop12514" />
    </linearGradient>
    <inkscape:perspective
       id="perspective2504"
       inkscape:persp3d-origin="372.04724 : 350.78739 : 1"
       inkscape:vp_z="744.09448 : 526.18109 : 1"
       inkscape:vp_y="0 : 1000 : 0"
       inkscape:vp_x="0 : 526.18109 : 1"
       sodipodi:type="inkscape:persp3d" />
  </defs>
  <sodipodi:namedview
     id="base"
     pagecolor="#ffffff"
     bordercolor="#666666"
     borderopacity="1.0"
     inkscape:pageopacity="0.0"
     inkscape:pageshadow="2"
     inkscape:zoom="22.197802"
     inkscape:cx="4.9366336"
     inkscape:cy="11.112456"
     inkscape:current-layer="layer1"
     showgrid="true"
     inkscape:grid-bbox="true"
     inkscape:document-units="px"
     inkscape:window-width="1280"
     inkscape:window-height="750"
     inkscape:window-x="-8"
     inkscape:window-y="-8" />
  <metadata
     id="metadata2332">
    <rdf:RDF>
      <cc:Work
         rdf:about="">
        <dc:format>image/svg+xml</dc:format>
        <dc:type
           rdf:resource="http://purl.org/dc/dcmitype/StillImage" />
      </cc:Work>
    </rdf:RDF>
  </metadata>
  <g
     id="layer1"
     inkscape:label="Layer 1"
     inkscape:groupmode="layer">
    <path
       style="fill:none;fill-rule:evenodd;stroke:#000000;stroke-width:1px;stroke-linecap:butt;stroke-linejoin:miter;stroke-opacity:1"
       d="M 2,13.999999 L 4.0178218,8.0539599 L 11,11.999999 L 14,4.9999995"
       id="path2337"
       sodipodi:nodetypes="cccc" />
    <path
       sodipodi:type="arc"
       style="fill:#00ff00;fill-opacity:1;stroke:#00ff00;stroke-opacity:1"
       id="path2339"
       sodipodi:cx="6.6673269"
       sodipodi:cy="8.6794558"
       sodipodi:rx="0.58564359"
       sodipodi:ry="0.6081683"
       d="M 7.2529705 8.6794558 A 0.58564359 0.6081683 0 1 1  6.0816833,8.6794558 A 0.58564359 0.6081683 0 1 1  7.2529705 8.6794558 z"
       transform="matrix(0.8889972,0,0,1.0339306,-1.927235,-0.865787)" />
    <path
       sodipodi:type="arc"
       style="fill:#0000ff;fill-opacity:1;stroke:#0000ff;stroke-opacity:1"
       id="path4279"
       sodipodi:cx="6.6673269"
       sodipodi:cy="8.6794558"
       sodipodi:rx="0.58564359"
       sodipodi:ry="0.6081683"
       d="M 7.2529705 8.6794558 A 0.58564359 0.6081683 0 1 1  6.0816833,8.6794558 A 0.58564359 0.6081683 0 1 1  7.2529705 8.6794558 z"
       transform="matrix(0.8889972,0,0,1.0339306,5.072765,3.134213)" />
    <path
       sodipodi:type="arc"
       style="fill:#00ff00;fill-opacity:1;stroke:#00ff00;stroke-opacity:1"
       id="path2335"
       sodipodi:cx="2.004703"
       sodipodi:cy="12.914109"
       sodipodi:rx="0.24777228"
       sodipodi:ry="0.29282179"
       d="M 2.2524753 12.914109 A 0.24777228 0.29282179 0 1 1  1.7569308,12.914109 A 0.24777228 0.29282179 0 1 1  2.2524753 12.914109 z"
       transform="matrix(1.4130169,0,0,1.1956309,-0.8326793,-1.4405084)" />
    <path
       sodipodi:type="arc"
       style="fill:#00ff00;fill-opacity:1;stroke:#00ff00;stroke-opacity:1"
       id="path4281"
       sodipodi:cx="6.6673269"
       sodipodi:cy="8.6794558"
       sodipodi:rx="0.58564359"
       sodipodi:ry="0.6081683"
       d="M 7.2529705 8.6794558 A 0.58564359 0.6081683 0 1 1  6.0816833,8.6794558 A 0.58564359 0.6081683 0 1 1  7.2529705 8.6794558 z"
       transform="matrix(0.8889972,0,0,1.0339306,8.072765,-3.865787)" />
    <path
       d="M 5.9548068,7.9533387 L 11.633948,7.9533387 L 11.633948,7.4972809 L 5.9548068,7.4972809 L 5.9548068,7.9533387 z"
       style="fill:#000000;fill-opacity:1;fill-rule:nonzero;stroke:none"
       id="path99" />
    <g
       id="g101"
       transform="matrix(0.1152891,0,0,-9.6214751e-2,10.416495,0.408178)">
      <path
         d="M 0,0 L 9.54,-23.22 L 1.62,-23.22 L 1.62,-69.72 L -1.98,-69.72 L -1.98,-23.04 L -10.08,-23.04 L 0,0"
         style="fill:#000000;fill-opacity:1;fill-rule:evenodd;stroke:none"
         id="path103" />
    </g>
    <g
       id="g105"
       transform="matrix(0.1152891,0,0,-9.6214751e-2,7.116921,0.408178)">
      <path
         d="M 0,0 L 9.48,-23.22 L 1.62,-23.22 L 1.62,-69.72 L -1.98,-69.72 L -1.98,-23.04 L -10.08,-23.04 L 0,0"
         style="fill:#000000;fill-opacity:1;fill-rule:evenodd;stroke:none"
         id="path107" />
    </g>
  </g>
</svg>
