<?xml version="1.0" encoding="UTF-8"?>
<svg width="1189" height="841" version="1.1" viewBox="0 0 1189 841" xmlns="http://www.w3.org/2000/svg" xmlns:freecad="http://www.freecad.org/wiki/index.php?title=Svg_Namespace">
 <g id="orientation-border" fill="none" stroke="#000" stroke-linecap="miter" stroke-width=".35">
  <path d="m21 6h1162"/>
  <!-- Top outside line -->
  <path d="m21 6v829"/>
  <!-- Left outside line -->
  <path d="m1183 6v829"/>
  <!-- Right outsdie line -->
  <path d="m21 835h508.55"/>
  <path d="m674.48 835h508.38"/>
  <!-- orientation separators top -->
  <path d="m93.625 6v4"/>
  <!-- space 72.625 -->
  <path d="m166.25 6v4"/>
  <path d="m238.88 6v4"/>
  <path d="m311.5 6v4"/>
  <path d="m384.12 6v4"/>
  <path d="m456.75 6v4"/>
  <path d="m529.38 6v4"/>
  <path d="m602 6v4"/>
  <!-- center line part -->
  <path d="m674.62 6v4"/>
  <path d="m747.25 6v4"/>
  <path d="m819.88 6v4"/>
  <path d="m892.5 6v4"/>
  <path d="m965.12 6v4"/>
  <path d="m1037.8 6v4"/>
  <path d="m1100.4 6v4"/>
  <!-- orientation separators left -->
  <path d="m21 75.083h4"/>
  <!-- vspace 69.0833 -->
  <path d="m21 144.17h4"/>
  <path d="m21 213.25h4"/>
  <path d="m21 282.33h4"/>
  <path d="m21 351.42h4"/>
  <path d="m21 420.5h4"/>
  <!-- center line part -->
  <path d="m21 489.58h4"/>
  <path d="m21 558.67h4"/>
  <path d="m21 627.75h4"/>
  <path d="m21 696.83h4"/>
  <path d="m21 765.92h4"/>
  <!-- orientation separators right -->
  <path d="m1179 75.083h4"/>
  <!-- vspace 69.0833 -->
  <path d="m1179 144.17h4"/>
  <path d="m1179 213.25h4"/>
  <path d="m1179 282.33h4"/>
  <path d="m1179 351.42h4"/>
  <path d="m1179 420.5h4"/>
  <!-- center line part -->
  <path d="m1179 489.58h4"/>
  <path d="m1179 558.67h4"/>
  <path d="m1179 627.75h4"/>
  <path d="m1179 696.83h4"/>
  <path d="m1179 765.92h4"/>
  <!-- orientation separators bottom -->
  <path d="m93.625 831v4"/>
  <!-- space 72.625 -->
  <path d="m166.25 831v4"/>
  <path d="m238.88 831v4"/>
  <path d="m311.5 831v4"/>
  <path d="m384.12 831v4"/>
  <path d="m456.75 831v4"/>
  <path d="m529.38 831v4"/>
  <path d="m674.62 831v4"/>
  <path d="m747.25 831v4"/>
  <path d="m819.88 831v4"/>
  <path d="m892.5 831v4"/>
  <path d="m965.12 831v4"/>
  <path d="m1037.8 831v4"/>
  <path d="m1100.4 831v4"/>
 </g>
 <g id="orientation-text" font-family="tahoma" font-size="3.5" xml:space="preserve">
    
  <!-- orientation char top -->
    <text x="57.3125" y="9">1</text>   
  <!-- space 72.625 -->
    <text x="129.9375" y="9">2</text>
    <text x="196.8125" y="9">3</text>
    <text x="269.4375" y="9">4</text>
    <text x="342.0625" y="9">5</text>
    <text x="414.6875" y="9">6</text>
    <text x="487.3125" y="9">7</text>
    <text x="559.9375" y="9">8</text>
    <text x="632.5625" y="9">9</text>
    <text x="705.1875" y="9">10</text>
    <text x="777.8125" y="9">11</text>
    <text x="850.4375" y="9">12</text>
    <text x="923.0625" y="9">13</text>
    <text x="995.6875" y="9">14</text>
    <text x="1068.3125" y="9">15</text>
    <text x="1140.9375" y="9">16</text>
    
  <!-- orientation char left -->
    <text x="22" y="40.5417">A</text>  
  <!-- vspace 69.0833 -->
    <text x="22" y="109.625">B</text>
    <text x="22" y="178.7083">C</text>
    <text x="22" y="247.7916">D</text>
    <text x="22" y="316.8749">E</text>
    <text x="22" y="385.9582">F</text>
    <text x="22" y="455.0415">G</text>
    <text x="22" y="524.1248">H</text>
    <text x="22" y="593.2081">I</text>
    <text x="22" y="662.2914">J</text>
    <text x="22" y="731.3747">K</text>
    <text x="22" y="800.458">L</text>
    
  <!-- orientation char right -->
    <text x="1180" y="40.5417">A</text>
    <text x="1180" y="109.625">B</text>
    <text x="1180" y="178.7083">C</text>
    <text x="1180" y="247.7916">D</text>
    <text x="1180" y="316.8749">E</text>
    <text x="1180" y="385.9582">F</text>
    <text x="1180" y="455.0415">G</text>
    <text x="1180" y="524.1248">H</text>
    <text x="1180" y="593.2081">I</text>
    <text x="1180" y="662.2914">J</text>
    <text x="1180" y="731.3747">K</text>
    <text x="1180" y="800.458">L</text>
    
  <!-- orientation char bottom -->
    <text x="57.3125" y="834">1</text>   
  <!-- space 72.625 -->
    <text x="129.9375" y="834">2</text>
    <text x="196.8125" y="834">3</text>
    <text x="269.4375" y="834">4</text>
    <text x="342.0625" y="834">5</text>
    <text x="414.6875" y="834">6</text>
    <text x="487.3125" y="834">7</text>
    <text x="705.1875" y="834">10</text>
    <text x="777.8125" y="834">11</text>
    <text x="850.4375" y="834">12</text>
    <text x="923.0625" y="834">13</text>
    <text x="995.6875" y="834">14</text>
    <text x="1068.3125" y="834">15</text>
    <text x="1140.9375" y="834">16</text>
  </g>
 <g id="drawing-border" fill="none" stroke="#000" stroke-linecap="miter" stroke-width=".75">
  <rect x="25" y="10" width="1154" height="821"/>
 </g>
 <g id="titleblock-structure" fill="none" stroke="#000" stroke-linecap="miter" stroke-width=".5">
  <rect x="999" y="775" width="180" height="56"/>
  <path d="m999 782h80"/>
  <!-- left up 1st horizon line  Titleblock -->
  <path d="m999 789h80"/>
  <!-- left up 2nd horizon line  Titleblock -->
  <path d="m999 796h80"/>
  <!-- left up 3rd horizon line  Titleblock -->
  <path d="m999 803h130"/>
  <!-- left up 4th horizon line  Titleblock -->
  <path d="m999 810h80"/>
  <!-- left up 5th horizon line  Titleblock -->
  <path d="m999 817h80"/>
  <!-- left up 6th horizon line  Titleblock -->
  <path d="m999 824h80"/>
  <!-- left up 7th horizon line  Titleblock -->
  <path d="m1009 775v28"/>
  <!-- left up 1st vertical line  Titleblock -->
  <path d="m1019 775v28"/>
  <!-- left up 2nd vertical line  Titleblock -->
  <path d="m1035 775v28"/>
  <!-- left up 3th vertical line  Titleblock -->
  <path d="m1051 775v56"/>
  <!-- left up 4th vertical line  Titleblock -->
  <path d="m1063 775v56"/>
  <!-- left up 5th vertical line  Titleblock -->
  <path d="m1079 775v56"/>
  <!-- left up 6th vertical line  Titleblock -->
  <path d="m1129 775v56"/>
  <!-- left up 7th vertical line  Titleblock -->
  <path d="m1011 803v28"/>
  <!-- left down 1st vertical line  Titleblock -->
  <path d="m1023 803v28"/>
  <!-- left down 2nd vertical line  Titleblock -->
  <path d="m1039 803v28"/>
  <!-- left down 3rd vertical line  Titleblock -->
  <path d="m1079 813h50"/>
  <!-- middle up 2nd horizon line  Titleblock -->
  <path d="m1079 822h50"/>
  <!-- middle up 3rd horizon line  Titleblock -->
  <path d="m1129 790h50"/>
  <!-- right up 1st horizon line  Titleblock -->
  <path d="m1129 811h50"/>
  <!-- right up 2nd horizon line  Titleblock -->
  <path d="m1085 813v9"/>
  <!-- middle down 1st vertical line  Titleblock -->
  <path d="m1092 813v9"/>
  <!-- middle down 2nd vertical line  Titleblock -->
  <path d="m1098 813v9"/>
  <!-- middle down 3rd vertical line  Titleblock -->
  <path d="m1105 803v19"/>
  <!-- middle down 4th vertical line  Titleblock -->
  <path d="m1117 803v19"/>
  <!-- middle down 5th vertical line  Titleblock -->
 </g>
 <g id="titleblock-text-non-editable" font-family="HYSWLongFangSong" font-size="5" xml:space="preserv e">
  <text x="1001" y="808">设计</text>
  <text x="1012" y="808">(签名)</text>
  <text x="1024" y="808">(年月日)</text>
  <text x="1040" y="808">标准化</text>
  <text x="1052" y="808">(签名)</text>
  <text x="1064" y="808">(年月日)</text>
  <text x="1041.5" y="822">制图</text>
  <text x="1001" y="822">审核</text>
  <text x="1001" y="829">工艺</text>
  <text x="1041.5" y="829">批准</text>
  <text x="1084" y="809">阶段标记</text>
  <text x="1107" y="809">重量</text>
  <text x="1119" y="809">比例</text>
  <text x="1080" y="828">共</text>
  <text x="1099" y="828">张</text>
  <text x="1105" y="828">第</text>
  <text x="1124" y="828">张</text>
  <text x="1000.5" y="801">标记</text>
  <text x="1010.5" y="801">处数</text>
  <text x="1023" y="801">分区</text>
  <text x="1035" y="801">更</text>
  <text x="1038" y="801">改</text>
  <text x="1041" y="801">文</text>
  <text x="1044" y="801">件</text>
  <text x="1047" y="801">号</text>
  <text x="1053.5" y="801">签名</text>
  <text x="1064" y="801">(年月日)</text>
  <text x="1130" y="830" font-size="10">A0</text>
  <text x="1141.5" y="825" font-size="1.8">模板版本:0.0.2</text>
  <text x="1141.5" y="827.5" font-size="1.8">模板设计:李峰</text>
  <text x="1141.5" y="830" font-size="1.8">felix@95839.com</text>
  <text x="1096" y="780">材料牌号</text>
 </g>
 <g id="titleblock-text-editable" font-family="HYSWLongFangSong" font-size="5" xml:space="preserve">
                <text x="993" y="815" freecad:editable="AUTHOR_NAME"><tspan>设计人</tspan></text>
                <text x="1045" y="822" freecad:editable="DRAWING_NAME"><tspan>制图人</tspan></text>
                <text x="1045" y="829" freecad:editable="APPROVER_NAME"><tspan>批准人</tspan></text>
                <text x="1005" y="829" freecad:editable="CRAFTS_NAME"><tspan>评审人</tspan></text>
                <text x="1005" y="822" freecad:editable="CHECKED_NAME"><tspan>审核人</tspan></text>
                <text x="1077" y="828" freecad:editable="TOTAL_SHEETS"><tspan> 99 </tspan></text>
                <text x="1102" y="828" freecad:editable="OF_SHEET"><tspan> 1 </tspan></text>
                <text x="1111" y="819" freecad:editable="SCALE"><tspan>M x:x</tspan></text>
 		<text x="1074" y="819" fill="#000000" text-align="center" freecad:editable="STAGE-S"><tspan/></text>
                <text x="1080.5" y="819" fill="#000000" text-align="center" freecad:editable="STAGE-A"><tspan/></text>
                <text x="1087.0" y="819" fill="#000000" text-align="center" freecad:editable="STAGE-B"><tspan/></text>
                <text x="1093.5" y="819" fill="#000000" text-align="center" freecad:editable="STAGE-C"><tspan/></text>
                <text x="1099" y="819" freecad:editable="WEIGHT"><tspan>重量</tspan></text>
                <text x="1059" y="815" fill="#000000" font-family="HYSWLongFangSong" font-size="3.5" text-align="center" freecad:editable="DATE-1"><tspan>YYYY-MM-DD</tspan></text>
                <text x="1019" y="815" fill="#000000" font-family="HYSWLongFangSong" font-size="3.5" text-align="center" freecad:editable="DATE-2"><tspan>YYYY-MM-DD</tspan></text>
                <text x="1123" y="779.5" freecad:editable="COMPANYNAME"><tspan>(单位名称/单位代号)</tspan></text>
                <text x="1123" y="784.5" freecad:editable="COMPANYADDR"><tspan>(单位地址)</tspan></text>
                <text x="1123" y="789.5" freecad:editable="COMPANYPHONE"><tspan>(单位电话/电邮)</tspan></text>
                <text x="1100" y="795" font-size="10" text-anchor="middle" freecad:editable="MATERIALMARK"><tspan>(材料标记)</tspan></text>
                <text x="1123" y="795" freecad:editable="PROJECT_TITLE"><tspan>(项目标题)</tspan></text>
                <text x="1123" y="800" freecad:editable="SUBTITLE"><tspan>(子项目标题)</tspan></text>
                <text x="1123" y="805" freecad:editable="PARTNAME"><tspan>(零件名称)</tspan></text>
                <text x="1123" y="810" freecad:editable="VERSION"><tspan>(版本号)</tspan></text>
                <text x="1153" y="819" fill="#000000" font-size="5" text-align="center" text-anchor="middle" freecad:editable="PART_CODE_NAME"><tspan>(图样代号)</tspan></text>
        </g>
 <g id="project mark" stroke="#000" stroke-width=".5">
  <!-- project mark begin -->
  <g stroke-dasharray="2.75,0.25,0.25,0.25,2.75,0.25,0.25,0.25">
   <line x1="1156" x2="1166" y1="826" y2="826"/>
   <line x1="1168" x2="1178" y1="826" y2="826"/>
   <line x1="1173" x2="1173" y1="821" y2="831"/>
  </g>
  <g fill="none">
   <polygon points="1157 824 1165 822 1165 830 1157 828"/>
   <circle cx="1173" cy="826" r="2"/>
   <circle cx="1173" cy="826" r="4"/>
  </g>
 </g>
 <g id="center-line" stroke="#000" stroke-width=".5">
  <line x1="602" x2="602" y1="6" y2="15"/>
  <line x1="602" x2="602" y1="826" y2="841"/>
  <line x1="21" x2="30" y1="420.5" y2="420.5"/>
  <line x1="1174" x2="1183" y1="420.5" y2="420.5"/>
 </g>
 <g id="cut-marker" stroke="#000" stroke-width="2">
  <line x2="10"/>
  <line y2="10"/>
  <line x1="1179" x2="1189"/>
  <line x1="1189" x2="1189" y2="10"/>
  <line y1="831" y2="841"/>
  <line x2="10" y1="841" y2="841"/>
  <line x1="1179" x2="1189" y1="841" y2="841"/>
  <line x1="1189" x2="1189" y1="831" y2="841"/>
 </g>
 <g id="metric-marker" stroke="#000" stroke-width=".5">
  <line x1="551.75" x2="652.25" y1="836" y2="836"/>
  <line x1="552" x2="552" y1="831" y2="836"/>
  <line x1="562" x2="562" y1="831" y2="836"/>
  <line x1="572" x2="572" y1="831" y2="836"/>
  <line x1="582" x2="582" y1="831" y2="836"/>
  <line x1="592" x2="592" y1="831" y2="836"/>
  <line x1="612" x2="612" y1="831" y2="836"/>
  <line x1="622" x2="622" y1="831" y2="836"/>
  <line x1="632" x2="632" y1="831" y2="836"/>
  <line x1="642" x2="642" y1="831" y2="836"/>
  <line x1="652" x2="652" y1="831" y2="836"/>
 </g>
 <g id="direction-marker" fill="none" stroke="#000" stroke-width=".5">
  <polygon points="598 828 606 828 602 834"/>
 </g>
 <g id="binding hole">
  <g fill="#bbb" stroke="#666" stroke-width=".5">
   <circle cx="10" cy="571.5" r="3"/>
   <circle cx="10" cy="609.5" r="3"/>
   <circle cx="10" cy="692.5" r="3"/>
   <circle cx="10" cy="775.5" r="3"/>
   <circle cx="10" cy="813.5" r="3"/>
   <line x1="10" x2="10" y1="582" y2="592"/>
   <line x1="10" x2="10" y1="785.5" y2="795.5"/>
   <text x="7.5" y="628" font-size="5">装</text>
   <text x="7.5" y="661" font-size="5">订</text>
   <line x1="5" x2="15" y1="692.5" y2="692.5"/>
   <line x1="10" x2="10" y1="687.5" y2="697.5"/>
   <line x2="20" y1="544" y2="544"/>
   <text x="5" y="548" font-size="3.5">297折线</text>
  </g>
 </g>
</svg>
