<?xml version="1.0" encoding="UTF-8"?>
<svg width="1189" height="841" version="1.1" viewBox="0 0 1189 841" xmlns="http://www.w3.org/2000/svg" xmlns:freecad="http://www.freecad.org/wiki/index.php?title=Svg_Namespace">
 <g id="orientation-border" fill="none" stroke="#000" stroke-linecap="miter" stroke-width=".35">
  <path d="m16 16h1157"/>
  <!-- Top outside line -->
  <path d="m16 16v809"/>
  <!-- Left outside line -->
  <path d="m1173 16v809"/>
  <!-- Right outsdie line -->
  <path d="m16 825h506.36"/>
  <path d="m666.64 825h506.36"/>
  <!-- orientation separators top -->
  <path d="m88.312 16v4"/>
  <!-- space 72.3125 -->
  <path d="m160.62 16v4"/>
  <path d="m232.94 16v4"/>
  <path d="m305.25 16v4"/>
  <path d="m377.56 16v4"/>
  <path d="m449.88 16v4"/>
  <path d="m522.19 16v4"/>
  <path d="m594.5 16v4"/>
  <path d="m666.81 16v4"/>
  <path d="m739.12 16v4"/>
  <path d="m811.44 16v4"/>
  <path d="m883.75 16v4"/>
  <path d="m956.06 16v4"/>
  <path d="m1028.4 16v4"/>
  <path d="m1100.7 16v4"/>
  <!-- orientation separators left -->
  <path d="m16 75.084h4"/>
  <path d="m16 144.17h4"/>
  <path d="m16 213.25h4"/>
  <path d="m16 282.33h4"/>
  <path d="m16 351.42h4"/>
  <path d="m16 420.5h4"/>
  <path d="m16 489.58h4"/>
  <path d="m16 558.67h4"/>
  <path d="m16 627.75h4"/>
  <path d="m16 696.83h4"/>
  <path d="m16 765.92h4"/>
  <!-- orientation separators right -->
  <path d="m1169 75.084h4"/>
  <path d="m1169 144.17h4"/>
  <path d="m1169 213.25h4"/>
  <path d="m1169 282.33h4"/>
  <path d="m1169 351.42h4"/>
  <path d="m1169 420.5h4"/>
  <path d="m1169 489.58h4"/>
  <path d="m1169 558.67h4"/>
  <path d="m1169 627.75h4"/>
  <path d="m1169 696.83h4"/>
  <path d="m1169 765.92h4"/>
  <!-- orientation separators bottom -->
  <path d="m88.312 821v4"/>
  <!-- space 72.3125 -->
  <path d="m160.62 821v4"/>
  <path d="m232.94 821v4"/>
  <path d="m305.25 821v4"/>
  <path d="m377.56 821v4"/>
  <path d="m449.88 821v4"/>
  <path d="m522.19 821v4"/>
  <path d="m666.81 821v4"/>
  <path d="m739.12 821v4"/>
  <path d="m811.44 821v4"/>
  <path d="m883.75 821v4"/>
  <path d="m956.06 821v4"/>
  <path d="m1028.4 821v4"/>
  <path d="m1100.7 821v4"/>
 </g>
 <g id="orientation-text" font-family="tahoma" font-size="3.5" xml:space="preserve">
    
  <!-- orientation char top -->
    <text x="52.15625" y="19">1</text>
    <text x="124.46875" y="19">2</text>
    <text x="196.78125" y="19">3</text>
    <text x="269.09375" y="19">4</text>
    <text x="341.40625" y="19">5</text>
    <text x="413.71875" y="19">6</text>
    <text x="486.03125" y="19">7</text>
    <text x="558.34375" y="19">8</text>
    <text x="630.65625" y="19">9</text>
    <text x="702.96875" y="19">10</text>
    <text x="775.28125" y="19">11</text>
    <text x="847.59375" y="19">12</text>
    <text x="919.90625" y="19">13</text>
    <text x="992.21875" y="19">14</text>
    <text x="1064.53125" y="19">15</text>
    <text x="1136.84375" y="19">16</text>
    
  <!-- orientation char left -->
    <text x="17" y="40.5417">A</text>
    <text x="17" y="109.625">B</text>
    <text x="17" y="178.7083">C</text>
    <text x="17" y="247.7916">D</text>
    <text x="17" y="316.8749">E</text>
    <text x="17" y="385.9582">F</text>
    <text x="17" y="455.0415">G</text>
    <text x="17" y="524.1248">H</text>
    <text x="17" y="593.2081">I</text>
    <text x="17" y="662.2914">J</text>
    <text x="17" y="731.3747">K</text>
    <text x="17" y="800.458">L</text>
    
  <!-- orientation char right -->
    <text x="1170" y="40.5417">A</text>
    <text x="1170" y="109.625">B</text>
    <text x="1170" y="178.7083">C</text>
    <text x="1170" y="247.7916">D</text>
    <text x="1170" y="316.8749">E</text>
    <text x="1170" y="385.9582">F</text>
    <text x="1170" y="455.0415">G</text>
    <text x="1170" y="524.1248">H</text>
    <text x="1170" y="593.2081">I</text>
    <text x="1170" y="662.2914">J</text>
    <text x="1170" y="731.3747">K</text>
    <text x="1170" y="800.458">L</text>
    
  <!-- orientation char bottom -->
    <text x="52.15625" y="824">1</text>
    <text x="124.46875" y="824">2</text>
    <text x="196.78125" y="824">3</text>
    <text x="269.09375" y="824">4</text>
    <text x="341.40625" y="824">5</text>
    <text x="413.71875" y="824">6</text>
    <text x="486.03125" y="824">7</text>

    <text x="702.96875" y="824">10</text>
    <text x="775.28125" y="824">11</text>
    <text x="847.59375" y="824">12</text>
    <text x="919.90625" y="824">13</text>
    <text x="992.21875" y="824">14</text>
    <text x="1064.53125" y="824">15</text>
    <text x="1136.84375" y="824">16</text>


  </g>
 <g id="drawing-border" fill="none" stroke="#000" stroke-linecap="miter" stroke-width=".75">
  <rect x="20" y="20" width="1149" height="801"/>
 </g>
 <g id="titleblock-structure" fill="none" stroke="#000" stroke-linecap="miter" stroke-width=".5">
  <rect x="989" y="765" width="180" height="56"/>
  <path d="m989 772h80"/>
  <!-- left up 1st horizon line  Titleblock -->
  <path d="m989 779h80"/>
  <!-- left up 2nd horizon line  Titleblock -->
  <path d="m989 786h80"/>
  <!-- left up 3rd horizon line  Titleblock -->
  <path d="m989 793h130"/>
  <!-- left up 4th horizon line  Titleblock -->
  <path d="m989 800h80"/>
  <!-- left up 5th horizon line  Titleblock -->
  <path d="m989 807h80"/>
  <!-- left up 6th horizon line  Titleblock -->
  <path d="m989 814h80"/>
  <!-- left up 7th horizon line  Titleblock -->
  <path d="m999 765v28"/>
  <!-- left up 1st vertical line  Titleblock -->
  <path d="m1009 765v28"/>
  <!-- left up 2nd vertical line  Titleblock -->
  <path d="m1025 765v28"/>
  <!-- left up 3th vertical line  Titleblock -->
  <path d="m1041 765v56"/>
  <!-- left up 4th vertical line  Titleblock -->
  <path d="m1053 765v56"/>
  <!-- left up 5th vertical line  Titleblock -->
  <path d="m1069 765v56"/>
  <!-- left up 6th vertical line  Titleblock -->
  <path d="m1119 765v56"/>
  <!-- left up 7th vertical line  Titleblock -->
  <path d="m1001 793v28"/>
  <!-- left down 1st vertical line  Titleblock -->
  <path d="m1013 793v28"/>
  <!-- left down 2nd vertical line  Titleblock -->
  <path d="m1029 793v28"/>
  <!-- left down 3rd vertical line  Titleblock -->
  <path d="m1069 803h50"/>
  <!-- middle up 2nd horizon line  Titleblock -->
  <path d="m1069 812h50"/>
  <!-- middle up 3rd horizon line  Titleblock -->
  <path d="m1119 780h50"/>
  <!-- right up 1st horizon line  Titleblock -->
  <path d="m1119 801h50"/>
  <!-- right up 2nd horizon line  Titleblock -->
  <path d="m1075 803v9"/>
  <!-- middle down 1st vertical line  Titleblock -->
  <path d="m1082 803v9"/>
  <!-- middle down 2nd vertical line  Titleblock -->
  <path d="m1088 803v9"/>
  <!-- middle down 3rd vertical line  Titleblock -->
  <path d="m1095 793v19"/>
  <!-- middle down 4th vertical line  Titleblock -->
  <path d="m1107 793v19"/>
  <!-- middle down 5th vertical line  Titleblock -->
 </g>
 <g id="titleblock-text-non-editable" font-family="HYSWLongFangSong" font-size="5" xml:space="preserv e">
  <text x="991" y="798">设计</text>
  <text x="1002" y="798">(签名)</text>
  <text x="1014" y="798">(年月日)</text>
  <text x="1030" y="798">标准化</text>
  <text x="1042" y="798">(签名)</text>
  <text x="1054" y="798">(年月日)</text>
  <text x="1031.5" y="812">制图</text>
  <text x="991" y="812">审核</text>
  <text x="991" y="819">工艺</text>
  <text x="1031.5" y="819">批准</text>
  <text x="1074" y="799">阶段标记</text>
  <text x="1097" y="799">重量</text>
  <text x="1109" y="799">比例</text>
  <text x="1070" y="818">共</text>
  <text x="1089" y="818">张</text>
  <text x="1095" y="818">第</text>
  <text x="1114" y="818">张</text>
  <text x="990.5" y="791">标记</text>
  <text x="1000.5" y="791">处数</text>
  <text x="1013" y="791">分区</text>
  <text x="1025" y="791">更</text>
  <text x="1028" y="791">改</text>
  <text x="1031" y="791">文</text>
  <text x="1034" y="791">件</text>
  <text x="1037" y="791">号</text>
  <text x="1043.5" y="791">签名</text>
  <text x="1054" y="791">(年月日)</text>
  <text x="1120" y="820" font-size="10">A0</text>
  <text x="1131.5" y="815" font-size="1.8">模板版本:0.0.2</text>
  <text x="1131.5" y="817.5" font-size="1.8">模板设计:李峰</text>
  <text x="1131.5" y="820" font-size="1.8">felix@95839.com</text>
  <text x="1086" y="770">材料牌号</text>
 </g>
 <g id="titleblock-text-editable" font-family="HYSWLongFangSong" font-size="5" xml:space="preserve">
                <text x="983" y="805" freecad:editable="AUTHOR_NAME"><tspan>设计人</tspan></text>
                <text x="1035" y="812" freecad:editable="DRAWING_NAME"><tspan>制图人</tspan></text>
                <text x="1035" y="819" freecad:editable="APPROVER_NAME"><tspan>批准人</tspan></text>
                <text x="995" y="819" freecad:editable="CRAFTS_NAME"><tspan>评审人</tspan></text>
                <text x="995" y="812" freecad:editable="CHECKED_NAME"><tspan>审核人</tspan></text>
                <text x="1067" y="818" freecad:editable="TOTAL_SHEETS"><tspan> 99 </tspan></text>
                <text x="1092" y="818" freecad:editable="OF_SHEET"><tspan> 1 </tspan></text>
                <text x="1101" y="809" freecad:editable="SCALE"><tspan>M x:x</tspan></text>
 		<text x="1064" y="809" fill="#000000" text-align="center" freecad:editable="STAGE-S"><tspan/></text>
                <text x="1070.5" y="809" fill="#000000" text-align="center" freecad:editable="STAGE-A"><tspan/></text>
                <text x="1077.0" y="809" fill="#000000" text-align="center" freecad:editable="STAGE-B"><tspan/></text>
                <text x="1083.5" y="809" fill="#000000" text-align="center" freecad:editable="STAGE-C"><tspan/></text>
                <text x="1089" y="809" freecad:editable="WEIGHT"><tspan>重量</tspan></text>
                <text x="1049" y="805" fill="#000000" font-family="HYSWLongFangSong" font-size="3.5" text-align="center" freecad:editable="DATE-1"><tspan>YYYY-MM-DD</tspan></text>
                <text x="1009" y="805" fill="#000000" font-family="HYSWLongFangSong" font-size="3.5" text-align="center" freecad:editable="DATE-2"><tspan>YYYY-MM-DD</tspan></text>
                <text x="1113" y="769.5" freecad:editable="COMPANYNAME"><tspan>(单位名称/单位代号)</tspan></text>
                <text x="1113" y="774.5" freecad:editable="COMPANYADDR"><tspan>(单位地址)</tspan></text>
                <text x="1113" y="779.5" freecad:editable="COMPANYPHONE"><tspan>(单位电话/电邮)</tspan></text>
                <text x="1090" y="785" font-size="10" text-anchor="middle" freecad:editable="MATERIALMARK"><tspan>(材料标记)</tspan></text>
                <text x="1113" y="785" freecad:editable="PROJECT_TITLE"><tspan>(项目标题)</tspan></text>
                <text x="1113" y="790" freecad:editable="SUBTITLE"><tspan>(子项目标题)</tspan></text>
                <text x="1113" y="795" freecad:editable="PARTNAME"><tspan>(零件名称)</tspan></text>
                <text x="1113" y="800" freecad:editable="VERSION"><tspan>(版本号)</tspan></text>
                <text x="1143" y="809" fill="#000000" font-size="5" text-align="center" text-anchor="middle" freecad:editable="PART_CODE_NAME"><tspan>(图样代号)</tspan></text>
        </g>
 <g id="project mark" stroke="#000" stroke-width=".5">
  <!-- project mark begin -->
  <g stroke-dasharray="2.75,0.25,0.25,0.25,2.75,0.25,0.25,0.25">
   <line x1="1146" x2="1156" y1="816" y2="816"/>
   <line x1="1158" x2="1168" y1="816" y2="816"/>
   <line x1="1163" x2="1163" y1="811" y2="821"/>
  </g>
  <g fill="none">
   <polygon points="1147 814 1155 812 1155 820 1147 818"/>
   <circle cx="1163" cy="816" r="2"/>
   <circle cx="1163" cy="816" r="4"/>
  </g>
 </g>
 <g id="center-line" stroke="#000" stroke-width=".5">
  <line x1="594.5" x2="594.5" y1="816" y2="841"/>
  <line x1="594.5" x2="594.5" y1="16" y2="25"/>
  <line x1="16" x2="25" y1="420.5" y2="420.5"/>
  <line x1="1164" x2="1173" y1="420.5" y2="420.5"/>
 </g>
 <g id="cut-marker" stroke="#000" stroke-width="2">
  <line x2="10"/>
  <line y2="10"/>
  <line x1="1179" x2="1189"/>
  <line x1="1189" x2="1189" y2="10"/>
  <line y1="831" y2="841"/>
  <line x2="10" y1="841" y2="841"/>
  <line x1="1179" x2="1189" y1="841" y2="841"/>
  <line x1="1189" x2="1189" y1="831" y2="841"/>
 </g>
 <g id="metric-marker" stroke="#000" stroke-width=".5">
  <line x1="594.5" x2="594.5" y1="821" y2="831"/>
  <line x1="544.25" x2="644.75" y1="826" y2="826"/>
  <line x1="544.5" x2="544.5" y1="821" y2="826"/>
  <line x1="554.5" x2="554.5" y1="821" y2="826"/>
  <line x1="564.5" x2="564.5" y1="821" y2="826"/>
  <line x1="574.5" x2="574.5" y1="821" y2="826"/>
  <line x1="584.5" x2="584.5" y1="821" y2="826"/>
  <line x1="604.5" x2="604.5" y1="821" y2="826"/>
  <line x1="614.5" x2="614.5" y1="821" y2="826"/>
  <line x1="624.5" x2="624.5" y1="821" y2="826"/>
  <line x1="634.5" x2="634.5" y1="821" y2="826"/>
  <line x1="644.5" x2="644.5" y1="821" y2="826"/>
 </g>
 <g id="direction-marker" fill="none" stroke="#000" stroke-width=".5">
  <polygon points="590 818 599 818 594.5 824"/>
 </g>
</svg>
