<?xml version="1.0" encoding="UTF-8"?>
<svg width="841mm" height="594mm" version="1.1" viewBox="0 0 841 594" xmlns="http://www.w3.org/2000/svg" xmlns:freecad="http://www.freecad.org/wiki/index.php?title=Svg_Namespace">
 <g id="orientation-border" fill="none" stroke="#000" stroke-linecap="miter" stroke-width=".35">
  <path d="m21 6h814"/>
  <!-- Top outside border -->
  <path d="m21 6v582"/>
  <!-- Left outside border -->
  <path d="m835 6v582"/>
  <!-- Right outside border -->
  <path d="m21 588h339.34"/>
  <path d="m495.83 588h339.34"/>
  <!-- orientation separators top -->
  <path d="m87.833 6v4"/>
  <!-- space 67.833333 -->
  <path d="m156.67 6v4"/>
  <path d="m224.5 6v4"/>
  <path d="m292.33 6v4"/>
  <path d="m360.17 6v4"/>
  <path d="m428 6v4"/>
  <!-- center mark place -->
  <path d="m495.83 6v4"/>
  <path d="m563.67 6v4"/>
  <path d="m631.5 6v4"/>
  <path d="m699.33 6v4"/>
  <path d="m767.17 6v4"/>
  <!-- orientation separators left -->
  <!-- space 56.2 -->
  <path d="m21 72.2h4"/>
  <path d="m21 128.4h4"/>
  <path d="m21 184.6h4"/>
  <path d="m21 240.8h4"/>
  <path d="m21 297h4"/>
  <!-- center mark place -->
  <path d="m21 353.2h4"/>
  <path d="m21 409.4h4"/>
  <path d="m21 465.6h4"/>
  <path d="m21 521.8h4"/>
  <!-- orientation separators right -->
  <path d="m831 72.2h4"/>
  <path d="m831 128.4h4"/>
  <path d="m831 184.6h4"/>
  <path d="m831 240.8h4"/>
  <path d="m831 297h4"/>
  <!-- center mark place -->
  <path d="m831 353.2h4"/>
  <path d="m831 409.4h4"/>
  <path d="m831 465.6h4"/>
  <path d="m831 521.8h4"/>
  <!-- orientation separators bottom -->
  <path d="m87.833 584v4"/>
  <!-- space 67.833333 -->
  <path d="m156.67 584v4"/>
  <path d="m224.5 584v4"/>
  <path d="m292.33 584v4"/>
  <path d="m360.17 584v4"/>
  <path d="m495.83 584v4"/>
  <path d="m563.67 584v4"/>
  <path d="m631.5 584v4"/>
  <path d="m699.33 584v4"/>
  <path d="m767.17 584v4"/>
 </g>
 <g id="orientation-text" font-family="tahoma" font-size="3.5" xml:space="preserve">
    
  <!-- orientation char top -->
    <text x="54.9" y="9">1</text>
    <text x="121.9" y="9">2</text>
    <text x="188.9" y="9">3</text>
    <text x="256.9" y="9">4</text>
    <text x="323.9" y="9">5</text>
    <text x="391.9" y="9">6</text>
    <text x="458.9" y="9">7</text>
    <text x="526.9" y="9">8</text>
    <text x="593.9" y="9">9</text>
    <text x="660.9" y="9">10</text>
    <text x="728.9" y="9">11</text>
    <text x="795.9" y="9">12</text>
    
  <!-- orientation char Left -->
    <text x="22" y="44.1">A</text>
    <text x="22" y="100.3">B</text>
    <text x="22" y="156.5">C</text>
    <text x="22" y="212.7">D</text>
    <text x="22" y="268.9">E</text>
    <text x="22" y="325.1">F</text>
    <text x="22" y="381.3">G</text>
    <text x="22" y="437.5">H</text>
    <text x="22" y="493.7">I</text>
    <text x="22" y="549.9">J</text>
    
  <!-- orientation char Right -->
    <text x="832" y="44.1">A</text>
    <text x="832" y="100.3">B</text>
    <text x="832" y="156.5">C</text>
    <text x="832" y="212.7">D</text>
    <text x="832" y="268.9">E</text>
    <text x="832" y="325.1">F</text>
    <text x="832" y="381.3">G</text>
    <text x="832" y="437.5">H</text>
    <text x="832" y="493.7">I</text>
    <text x="832" y="549.9">J</text>

    
  <!-- orientation char bottom -->
    <text x="54.9" y="587.5">1</text>
    <text x="121.9" y="587.5">2</text>
    <text x="188.9" y="587.5">3</text>
    <text x="256.9" y="587.5">4</text>
    <text x="323.9" y="587.5">5</text>

    <text x="526.9" y="587.5">8</text>
    <text x="593.9" y="587.5">9</text>
    <text x="660.9" y="587.5">10</text>
    <text x="728.9" y="587.5">11</text>
    <text x="795.9" y="587.5">12</text>

  </g>
 <g id="drawing-border" fill="none" stroke="#000" stroke-linecap="miter" stroke-width=".7">
  <rect x="25" y="10" width="806" height="574"/>
 </g>
 <g id="titleblock-structure" fill="none" stroke="#000" stroke-linecap="miter" stroke-width=".7">
  <rect x="651" y="528" width="180" height="56"/>
  <path d="m651 535h80"/>
  <!-- left up 1st horizon line  Titleblock -->
  <path d="m651 542h80"/>
  <!-- left up 2nd horizon line  Titleblock -->
  <path d="m651 549h80"/>
  <!-- left up 3rd horizon line  Titleblock -->
  <path d="m651 556h130"/>
  <!-- left up 4th horizon line  Titleblock -->
  <path d="m651 563h80"/>
  <!-- left up 5th horizon line  Titleblock -->
  <path d="m651 570h80"/>
  <!-- left up 6th horizon line  Titleblock -->
  <path d="m651 577h80"/>
  <!-- left up 7th horizon line  Titleblock -->
  <path d="m661 528v28"/>
  <!-- left up 1st vertical line  Titleblock -->
  <path d="m671 528v28"/>
  <!-- left up 2nd vertical line  Titleblock -->
  <path d="m687 528v28"/>
  <!-- left up 3th vertical line  Titleblock -->
  <path d="m703 528v56"/>
  <!-- left up 4th vertical line  Titleblock -->
  <path d="m715 528v56"/>
  <!-- left up 5th vertical line  Titleblock -->
  <path d="m731 528v56"/>
  <!-- left up 6th vertical line  Titleblock -->
  <path d="m781 528v56"/>
  <!-- left up 7th vertical line  Titleblock -->
  <path d="m663 556v28"/>
  <!-- left down 1st vertical line  Titleblock -->
  <path d="m675 556v28"/>
  <!-- left down 2nd vertical line  Titleblock -->
  <path d="m691 556v28"/>
  <!-- left down 3rd vertical line  Titleblock -->
  <path d="m731 566h50"/>
  <!-- middle up 2nd horizon line  Titleblock -->
  <path d="m731 575h50"/>
  <!-- middle up 3rd horizon line  Titleblock -->
  <path d="m781 543h50"/>
  <!-- right up 1st horizon line  Titleblock -->
  <path d="m781 564h50"/>
  <!-- right up 2nd horizon line  Titleblock -->
  <path d="m737.5 566v9"/>
  <!-- middle down 1st vertical line  Titleblock -->
  <path d="m744 566v9"/>
  <!-- middle down 2nd vertical line  Titleblock -->
  <path d="m750.5 566v9"/>
  <!-- middle down 3rd vertical line  Titleblock -->
  <path d="m757 556v19"/>
  <!-- middle down 4th vertical line  Titleblock -->
  <path d="m769 556v19"/>
  <!-- middle down 5th vertical line  Titleblock -->
 </g>
 <g id="titleblock-text-non-editable" font-family="HYSWLongFangSong" font-size="5" xml:space="preserv e">
  <text x="653" y="561">设计</text>
  <text x="664" y="561">(签名)</text>
  <text x="676" y="561">(年月日)</text>
  <text x="692" y="561">标准化</text>
  <text x="704" y="561">(签名)</text>
  <text x="716" y="561">(年月日)</text>
  <text x="693.5" y="575">制图</text>
  <text x="653" y="575">审核</text>
  <text x="653" y="582">工艺</text>
  <text x="693.5" y="582">批准</text>
  <text x="736" y="562">阶段标记</text>
  <text x="759" y="562">重量</text>
  <text x="771" y="562">比例</text>
  <text x="732" y="581">共</text>
  <text x="751" y="581">张</text>
  <text x="757" y="581">第</text>
  <text x="776" y="581">张</text>
  <text x="652.5" y="554">标记</text>
  <text x="662.5" y="554">处数</text>
  <text x="675" y="554">分区</text>
  <text x="687" y="554">更</text>
  <text x="690" y="554">改</text>
  <text x="693" y="554">文</text>
  <text x="696" y="554">件</text>
  <text x="699" y="554">号</text>
  <text x="705.5" y="554">签名</text>
  <text x="716" y="554">(年月日)</text>
  <text x="783" y="583" font-size="10">A1</text>
  <text x="793" y="577.5" font-size="1.8">模板版本:0.0.2</text>
  <text x="793" y="580" font-size="1.8">模板设计:李峰</text>
  <text x="793" y="582.5" font-size="1.8">felix@95839.com</text>
  <text x="747" y="533">材料牌号</text>
 </g>
 <g id="titleblock-text-editable" font-family="HYSWLongFangSong" font-size="5" xml:space="preserve">
                <text x="645" y="568" freecad:editable="AUTHOR_NAME"><tspan>设计人</tspan></text>
                <text x="697" y="575" freecad:editable="DRAWING_NAME"><tspan>制图人</tspan></text>
                <text x="697" y="582" freecad:editable="APPROVER_NAME"><tspan>批准人</tspan></text>
                <text x="656.5" y="582" freecad:editable="CRAFTS_NAME"><tspan>评审人</tspan></text>
                <text x="657" y="575" freecad:editable="CHECKED_NAME"><tspan>审核人</tspan></text>
                <text x="729" y="581" freecad:editable="TOTAL_SHEETS"><tspan> 99 </tspan></text>
                <text x="754" y="581" freecad:editable="OF_SHEET"><tspan> 1 </tspan></text>
                <text x="763" y="572" freecad:editable="SCALE"><tspan>M x:x</tspan></text>
                <text x="726.5" y="572" fill="#000000" text-align="center" freecad:editable="STAGE-S"><tspan/></text>
                <text x="733" y="572" fill="#000000" text-align="center" freecad:editable="STAGE-A"><tspan/></text>
                <text x="739.5" y="572" fill="#000000" text-align="center" freecad:editable="STAGE-B"><tspan/></text>
                <text x="745.5" y="572" fill="#000000" text-align="center" freecad:editable="STAGE-C"><tspan/></text>
                <text x="751" y="572" freecad:editable="WEIGHT"><tspan>重量</tspan></text>
                <text x="711" y="568" fill="#000000" font-family="HYSWLongFangSong" font-size="3.5" text-align="center" freecad:editable="DATE-1"><tspan>YYYY-MM-DD</tspan></text>
                <text x="671" y="568" fill="#000000" font-family="HYSWLongFangSong" font-size="3.5" text-align="center" freecad:editable="DATE-2"><tspan>YYYY-MM-DD</tspan></text>
                <text x="775" y="532.5" freecad:editable="COMPANYNAME"><tspan>(单位名称/单位代号)</tspan></text>
                <text x="775" y="537.5" freecad:editable="COMPANYADDR"><tspan>(单位地址)</tspan></text>
                <text x="775" y="542.5" freecad:editable="COMPANYPHONE"><tspan>(单位电话/电邮)</tspan></text>
                <text x="752" y="547" font-size="9" text-anchor="middle" freecad:editable="MATERIALMARK"><tspan>(材料标记)</tspan></text>
                <text x="775" y="548" freecad:editable="PROJECT_TITLE"><tspan>(项目标题)</tspan></text>
                <text x="775" y="553" freecad:editable="SUBTITLE"><tspan>(子项目标题)</tspan></text>
                <text x="775" y="558" freecad:editable="PARTNAME"><tspan>(零件名称)</tspan></text>
                <text x="775" y="563" freecad:editable="VERSION"><tspan>(版本号)</tspan></text>
                <text x="805" y="572" fill="#000000" font-size="5" text-align="center" text-anchor="middle" freecad:editable="PART_CODE_NAME"><tspan>(图样代号)</tspan></text>
        </g>
 <g id="project mark" stroke="#000" stroke-width=".5mm">
  <!-- project mark begin -->
  <g stroke-dasharray="2.75,0.25,0.25,0.25,2.75,0.25,0.25,0.25">
   <line x1="808" x2="818" y1="579" y2="579"/>
   <line x1="820" x2="830" y1="579" y2="579"/>
   <line x1="825" x2="825" y1="574" y2="584"/>
  </g>
  <g fill="none">
   <polygon points="809 577 817 575 817 583 809 581"/>
   <circle cx="825" cy="579" r="2"/>
   <circle cx="825" cy="579" r="4"/>
  </g>
 </g>
 <g id="center-line" stroke="#000" stroke-width=".5mm">
  <line x1="428" x2="428" y1="6" y2="15"/>
  <line x1="428" x2="428" y1="579" y2="594"/>
  <line x1="21" x2="30" y1="297" y2="297"/>
  <line x1="826" x2="835" y1="297" y2="297"/>
 </g>
 <g id="cut-marker" stroke="#000" stroke-width="2">
  <line x2="10"/>
  <line y2="10"/>
  <line x1="831" x2="841"/>
  <line x1="841" x2="841" y2="10"/>
  <line y1="584" y2="594"/>
  <line x2="10" y1="594" y2="594"/>
  <line x1="831" x2="841" y1="594" y2="594"/>
  <line x1="841" x2="841" y1="584" y2="594"/>
 </g>
 <g id="metric-marker" stroke="#000" stroke-width=".5mm">
  <line x1="428" x2="428" y1="589" y2="594"/>
  <line x1="377.75" x2="478.25" y1="589" y2="589"/>
  <line x1="378" x2="378" y1="584" y2="589"/>
  <line x1="388" x2="388" y1="584" y2="589"/>
  <line x1="398" x2="398" y1="584" y2="589"/>
  <line x1="408" x2="408" y1="584" y2="589"/>
  <line x1="418" x2="418" y1="584" y2="589"/>
  <line x1="438" x2="438" y1="584" y2="589"/>
  <line x1="448" x2="448" y1="584" y2="589"/>
  <line x1="458" x2="458" y1="584" y2="589"/>
  <line x1="468" x2="468" y1="584" y2="589"/>
  <line x1="478" x2="478" y1="584" y2="589"/>
 </g>
 <g id="direction-marker" fill="none" stroke="#000" stroke-width=".5">
  <polygon points="424 581 432.5 581 428 587"/>
 </g>
 <g id="binding hole">
  <g fill="#bbb" stroke="#666" stroke-width=".5">
   <circle cx="10" cy="324.5" r="3"/>
   <circle cx="10" cy="362.5" r="3"/>
   <circle cx="10" cy="445.5" r="3"/>
   <circle cx="10" cy="528.5" r="3"/>
   <circle cx="10" cy="566.5" r="3"/>
   <line x1="10" x2="10" y1="335" y2="345"/>
   <line x1="10" x2="10" y1="544" y2="554"/>
   <text x="7.5" y="382" font-size="5">装</text>
   <text x="7.5" y="425" font-size="5">订</text>
   <line x1="5" x2="15" y1="445.5" y2="445.5"/>
   <line x1="10" x2="10" y1="450.5" y2="440.5"/>
   <line x2="20" y1="297" y2="297"/>
   <text x="5" y="302" font-size="3.5">297折线</text>
  </g>
 </g>
</svg>
