<?xml version="1.0" encoding="UTF-8" standalone="no"?>
<svg
	xmlns="http://www.w3.org/2000/svg" version="1.1"
	xmlns:freecad="http://www.freecadweb.org/wiki/index.php?title=Svg_Namespace"
	width="594" height="420" viewBox="0 0 594 420">
	<g id="orientation-border" style="fill:none;stroke:#000000;stroke-width:0.25;stroke-linecap:miter;stroke-miterlimit:4">
		<path d="m 6,6,h 582" />
		<path d="m 6,5.875,v 408.25" />
		<path d="m 588,5.875,v 408.25" />
		<path d="m 6,414,h 231.725" />
		<path d="m 356.4,414,h 231.725" />
    <!-- orientation separators top -->
    <path d="m 59.4,6 v 4" />
    <path d="m 118.8,6 v 4" />
    <path d="m 178.2,6 v 4" />
    <path d="m 237.6,6 v 4" />
    <path d="m 297,6 v 4" />
    <path d="m 356.4,6 v 4" />
    <path d="m 415.8,6 v 4" />
    <path d="m 475.2,6 v 4" />
    <path d="m 534.6,6 v 4" />
    <!-- orientation separators left -->
    <path d="m 6,52.5 h 4" />
    <path d="m 6,105 h 4" />
    <path d="m 6,157.5 h 4" />
    <path d="m 6,210 h 4" />
    <path d="m 6,262.5 h 4" />
    <path d="m 6,315 h 4" />
    <path d="m 6,367.5 h 4" />
    <!-- orientation separators right -->
    <path d="m 584,52.5 h 4" />
    <path d="m 584,105 h 4" />
    <path d="m 584,157.5 h 4" />
    <path d="m 584,210 h 4" />
    <path d="m 584,262.5 h 4" />
    <path d="m 584,315 h 4" />
    <path d="m 584,367.5 h 4" />
    <!-- orientation separators bottom -->
    <path d="m 59.4,410 v 4" />
    <path d="m 118.8,410 v 4" />
    <path d="m 178.2,410 v 4" />
    <path d="m 237.6,410 v 4" />
    <path d="m 356.4,410 v 4" />
    <path d="m 415.8,410 v 4" />
    <path d="m 475.2,410 v 4" />
    <path d="m 534.6,410 v 4" />
  </g>
  <g id="orientation-text" style="font-size:3.5;text-anchor:start;fill:#000000;font-family:tahoma" xml:space="preserve">
    <!-- orientation char top -->
    <text x="29.7" y="9">1</text>
    <text x="89.1" y="9">2</text>
    <text x="148.5" y="9">3</text>
    <text x="207.9" y="9">4</text>
    <text x="267.3" y="9">5</text>
    <text x="326.7" y="9">6</text>
    <text x="386.1" y="9">7</text>
    <text x="445.5" y="9">8</text>
    <text x="504.9" y="9">9</text>
    <text x="564.3" y="9">10</text>
    <!-- orientation char right -->
    <text x="7" y="26.25">A</text>
    <text x="7" y="78.75">B</text>
    <text x="7" y="131.25">C</text>
    <text x="7" y="183.75">D</text>
    <text x="7" y="236.25">E</text>
    <text x="7" y="288.75">F</text>
    <text x="7" y="341.25">G</text>
    <text x="7" y="393.75">H</text>
    <!-- orientation char left -->
    <text x="585" y="26.25">A</text>
    <text x="585" y="78.75">B</text>
    <text x="585" y="131.25">C</text>
    <text x="585" y="183.75">D</text>
    <text x="585" y="236.25">E</text>
    <text x="585" y="288.75">F</text>
    <text x="585" y="341.25">G</text>
    <text x="585" y="393.75">H</text>
    <!-- orientation char bottom -->
    <text x="29.7" y="413">1</text>
    <text x="89.1" y="413">2</text>
    <text x="148.5" y="413">3</text>
    <text x="207.9" y="413">4</text>
    <text x="386.1" y="413">7</text>
    <text x="445.5" y="413">8</text>
    <text x="504.9" y="413">9</text>
    <text x="564.3" y="413">10</text>

  </g>
  <g id="drawing-border" style="fill:none;stroke:#000000;stroke-width:0.5;stroke-linecap:miter;stroke-miterlimit:4">
		<rect width="574" height="400" x="10" y="10" />
  </g>
    <g id="titleblock-structure" style="fill:none;stroke:#000000;stroke-width:0.5;stroke-linecap:miter;stroke-miterlimit:4">
    <rect width="180" height="56" x="404" y="354" />
 		<path d="m 404,361 h 80" /> <!-- left up 1st horizon line  Titleblock -->
                <path d="m 404,368 h 80" /> <!-- left up 2nd horizon line  Titleblock -->
                <path d="m 404,375 h 80" /> <!-- left up 3rd horizon line  Titleblock -->
                <path d="m 404,382 h 130" /> <!-- left up 4th horizon line  Titleblock -->
                <path d="m 404,389 h 80" /> <!-- left up 5th horizon line  Titleblock -->
                <path d="m 404,396 h 80" /> <!-- left up 6th horizon line  Titleblock -->
                <path d="m 404,403 h 80" /> <!-- left up 7th horizon line  Titleblock -->
                <path d="m 414,354 v 28" /> <!-- left up 1st vertical line  Titleblock -->
                <path d="m 424,354 v 28" /> <!-- left up 2nd vertical line  Titleblock -->
                <path d="m 440,354 v 28" /> <!-- left up 3th vertical line  Titleblock -->
                <path d="m 456,354 v 56" /> <!-- left up 4th vertical line  Titleblock -->
                <path d="m 468,354 v 56" /> <!-- left up 5th vertical line  Titleblock -->
                <path d="m 484,354 v 56" /> <!-- left up 6th vertical line  Titleblock -->
                <path d="m 534,354 v 56" /> <!-- left up 7th vertical line  Titleblock -->
                <path d="m 416,382 v 28" /> <!-- left down 1st vertical line  Titleblock -->
                <path d="m 428,382 v 28" /> <!-- left down 2nd vertical line  Titleblock -->
                <path d="m 444,382 v 28" /> <!-- left down 3rd vertical line  Titleblock -->
                <path d="m 484,392 h 50" /> <!-- middle up 2nd horizon line  Titleblock -->
                <path d="m 484,401 h 50" /> <!-- middle up 3rd horizon line  Titleblock -->
                <path d="m 534,369 h 50" /> <!-- right up 1st horizon line  Titleblock -->
                <path d="m 534,390 h 50" /> <!-- right up 2nd horizon line  Titleblock -->
                <path d="m 490.5,392 v 9" /> <!-- middle down 1st vertical line  Titleblock -->
                <path d="m 497,392 v 9" /> <!-- middle down 2nd vertical line  Titleblock -->
                <path d="m 503.5,392 v 9" /> <!-- middle down 3rd vertical line  Titleblock -->
                <path d="m 510,382 v 19" /> <!-- middle down 4th vertical line  Titleblock -->
                <path d="m 522,382 v 19" /> <!-- middle down 5th vertical line  Titleblock -->

	</g>
	<g id="titleblock-text-non-editable" style="font-size:5;text-anchor:start;fill:#000000;font-family:HYSWLongFangSong" xml:space="preserve">
        	<text x="406" y="387">设计</text>
                <text x="417" y="387">(签名)</text>
                <text x="429" y="387">(年月日)</text>
                <text x="445" y="387">标准化</text>
                <text x="457" y="387">(签名)</text>
                <text x="469" y="387">(年月日)</text>
                <text x="446.5" y="401">制图</text>
                <text x="406" y="401">审核</text>
                <text x="406" y="408">工艺</text>
                <text x="446.5" y="408">批准</text>
                <text x="489" y="388">阶段标记</text>
                <text x="512" y="388">重量</text>
                <text x="524" y="388">比例</text>
                <text x="489" y="407">共</text>
                <text x="501" y="407">张</text>
                <text x="509" y="407">第</text>
                <text x="523" y="407">张</text>
                <text x="405.5" y="380">标记</text>
                <text x="415.5" y="380">处数</text>
                <text x="428" y="380">分区</text>
                <text x="440" y="380">更</text>
                <text x="443" y="380">改</text>
                <text x="446" y="380">文</text>
                <text x="449" y="380">件</text>
                <text x="452" y="380">号</text>
                <text x="458.5" y="380">签名</text>
                <text x="469" y="380">(年月日)</text>
                <text x="535" y="400" style="font-size:3.5;word-spacing:-0.5;kerning:-0.5;">图纸幅面: A2</text>
                <text x="535" y="404" style="font-size:3.5;word-spacing:-0.5;kerning:-0.5;">中国国标图纸贡献者</text>
                <text x="535" y="408" style="font-size:3.5;word-spacing:-0.5;kerning:-0.5;">李峰 felix@95839.com</text>

	</g>
        <g id="titleblock-text-editable" style="font-size:5;text-anchor:start;fill:#000000;font-family:HYSWLongFangSong" xml:space="preserve">
                <text freecad:editable="AUTHOR_NAME" x="398" y="394"><tspan>设计人</tspan></text>
                <text freecad:editable="DRAWING_NAME" x="450" y="401"><tspan>制图人</tspan></text>
                <text freecad:editable="APPROVER_NAME" x="450" y="408"><tspan>批准人</tspan></text>
                <text freecad:editable="CRAFTS_NAME" x="409.5" y="408"><tspan>评审人</tspan></text>
                <text freecad:editable="CHECKED_NAME" x="410" y="401"><tspan>审核人</tspan></text>
                <text freecad:editable="TOTAL_SHEETS" x="486" y="407"><tspan> 99 </tspan></text>
                <text freecad:editable="OF_SHEET" x="508" y="407"><tspan> 1 </tspan></text>
                <text freecad:editable="SCALE" x="516" y="398"><tspan>M x:x</tspan></text>
                <text freecad:editable="WEIGHT" x="504" y="398"><tspan>重量</tspan></text>
                <text freecad:editable="DATE-1" x="464" y="394"  style="font-size:3.5;text-anchor:start;text-align:center;fill:#000000;font-family:HYSWLongFangSong"><tspan>YYYY-MM-DD</tspan></text>
                <text freecad:editable="DATE-2" x="424" y="394" style="font-size:3.5;text-anchor:start;text-align:center;fill:#000000;font-family:HYSWLongFangSong" ><tspan>YYYY-MM-DD</tspan></text>
                <text freecad:editable="COMPANYNAME" x="528" y="358.5"><tspan>(单位名称/单位代号)</tspan></text>
                <text freecad:editable="COMPANYADDR" x="528" y="363.5"><tspan>(单位地址)</tspan></text>
                <text freecad:editable="COMPANYPHONE" x="528" y="368.5"><tspan>(单位电话/电邮)</tspan></text>
                <text freecad:editable="MATERIALMARK" x="490" y="368" ><tspan>(材料标记)</tspan></text>
                <text freecad:editable="PROJECT_TITLE" x="528" y="374"><tspan>(项目标题)</tspan></text>
                <text freecad:editable="SUBTITLE" x="528" y="379"><tspan>(子项目标题)</tspan></text>
                <text freecad:editable="PARTNAME" x="528" y="384"><tspan>(零件名称)</tspan></text>
                <text freecad:editable="VERSION" x="528" y="389"><tspan>(版本号)</tspan></text>
                <text freecad:editable="PART_CODE_NAME" x="528" y="396"><tspan>(图样代号)</tspan></text>
                <text freecad:editable="COPYRIGHT" x="397" y="352"><tspan>未经图纸所有人允许，请勿向第三方透漏此图纸任何信息！本图纸内容受《中华人民共和国版权法》保护。</tspan></text>
        </g>

	<g style="stroke:#000000;stroke-width:0.25;">
                <line x1="562" y1="405" x2="572" y2="405" stroke-dasharray="2.75,0.25,0.25,0.25,2.75,0.25,0.25,0.25" />
                <line x1="574" y1="405" x2="584" y2="405" stroke-dasharray="2.75,0.25,0.25,0.25,2.75,0.25,0.25,0.25" />
                <line x1="579" y1="400" x2="579" y2="410" stroke-dasharray="2.75,0.25,0.25,0.25,2.75,0.25,0.25,0.25" />
	</g>
	<g stroke="black" stroke-width="0.25" fill="none" >
                <polygon points="563,403 571,401 571,409 563,407" />
                <circle cx="579" cy="405" r="2" />
                <circle cx="579" cy="405" r="4" />
</g>
	<g id="center-line" style="stroke:#000000;stroke-width:0.5;">
                <line x1="297" y1="405" x2="297" y2="414" />
                <line x1="297" y1="6" x2="297" y2="15" />
                <line x1="6" y1="210" x2="15" y2="210" />
                <line x1="579" y1="210" x2="588" y2="210" />
</g>
	<g id="cut-marker" stroke="black" stroke-width="2" fill="#000000" >
		<line x1="0" y1="0" x2="10" y2="0" />
		<line x1="0" y1="0" x2="0" y2="10" />
		<line x1="584" y1="0" x2="594" y2="0" />
		<line x1="594" y1="0" x2="594" y2="10" />
		<line x1="0" y1="410" x2="0" y2="420" />
		<line x1="0" y1="420" x2="10" y2="420" />
		<line x1="584" y1="420" x2="594" y2="420" />
		<line x1="594" y1="410" x2="594" y2="420" />
</g>
<g style="stroke:#000000;stroke-width:0.5;">
        <line x1="297" y1="410" x2="297" y2="420" />
        <line x1="247" y1="414" x2="347" y2="414" />
        <line x1="247" y1="410" x2="247" y2="414.25" />
        <line x1="257" y1="410" x2="257" y2="414.25" />
        <line x1="267" y1="410" x2="267" y2="414.25" />
        <line x1="277" y1="410" x2="277" y2="414.25" />
        <line x1="287" y1="410" x2="287" y2="414.25" />
        <line x1="307" y1="410" x2="307" y2="414.25" />
        <line x1="317" y1="410" x2="317" y2="414.25" />
        <line x1="327" y1="410" x2="327" y2="414.25" />
        <line x1="337" y1="410" x2="337" y2="414.25" />
        <line x1="347" y1="410" x2="347" y2="414.25" />
</g>
<g id="direction-marker"  style="fill:none;stroke:#000000;stroke-width:0.5;">
        <polygon points="292.5,407 301.5,407 297,413" />
</g>
</svg>
