<?xml version="1.0" encoding="UTF-8" standalone="no"?>
<svg
	xmlns="http://www.w3.org/2000/svg" version="1.1"
	xmlns:freecad="http://www.freecadweb.org/wiki/index.php?title=Svg_Namespace"
	width="420" height="297" viewBox="0 0 420 297">
	<g id="orienation-border" style="fill:none;stroke:#000000;stroke-width:0.25;stroke-linecap:miter;stroke-miterlimit:4">
        <path d="m 21,1 h 398" /> <!-- Top Line OutSide -->
        <path d="m 21,1 v 295" /> <!-- Left Line OutSide -->
        <path d="m 419,1 v 295" /> <!-- Right Line OutSide -->
        <path d="m 21,296 h 99.625" /> <!-- Left-Part-Bottom 1st  OutSide -->
        <path d="m 319.375,296 h 99.625" /> <!-- Right-Part-Bottom OutSide -->
        <!-- orientation separators top -->
        <path d="m 70.75,1 v 4" />  <!-- The space length is: 49.75 -->
        <path d="m 120.5,1 v 4" />
        <path d="m 170.25 1 v 4" />
        <path d="m 220,1 v 4" />
        <path d="m 269.75,1 v 4" />
        <path d="m 319.5,1 v 4" />
        <path d="m 369.25,1 v 4" />
        <path d="m 419,1 v 4" />
        <!-- orientation separators left -->
        <path d="m 21,50.1667  h 4" />  <!-- The space length is: 49.1667-->
        <path d="m 21,99.3334  h 4" />  <!-- The space length is: 49.1667-->
        <path d="m 21,148.5001  h 4" />  <!-- The space length is: 49.1667-->
        <path d="m 21,197.6668  h 4" />  <!-- The space length is: 49.1667-->
        <path d="m 21,246.8335  h 4" />  <!-- The space length is: 49.1667-->
        <path d="m 21,296.0002  h 4" />  <!-- The space length is: 49.1667-->
        <!-- orientation separators right -->
        <path d="m 415,50.1667  h 4" />  <!-- The space length is: 49.1667-->
        <path d="m 415,99.3334  h 4" />  <!-- The space length is: 49.1667-->
        <path d="m 415,148.5001  h 4" />  <!-- The space length is: 49.1667-->
        <path d="m 415,197.6668  h 4" />  <!-- The space length is: 49.1667-->
        <path d="m 415,246.8335  h 4" />  <!-- The space length is: 49.1667-->
        <path d="m 415,296.0002  h 4" />  <!-- The space length is: 49.1667-->
        <!-- orientation separators bottom -->  <!-- space 49.75 -->
        <path d="m 70.75,292 v 4" />
        <path d="m 120.5,292 v 4" />
        <path d="m 319.5,292 v 4" />
        <path d="m 369.25,292 v 4" />
  	</g>

 	<g  id="orientation-text" style="font-size:3.5;text-anchor:start;fill:#000000;font-family:tahoma" xml:space="preserve">
        <!-- orientation char top -->
        <text x="44" y="4.25">1</text>
        <text x="94" y="4.25">2</text>
        <text x="144" y="4.25">3</text>
        <text x="194" y="4.25">4</text>
        <text x="244" y="4.25">5</text>
        <text x="294" y="4.25">6</text>
        <text x="344" y="4.25">7</text>
        <text x="394" y="4.25">8</text>
        <!-- orientation char left -->
        <text x="21.825" y="27">A</text> <!-- space 49.1667 -->
        <text x="21.825" y="74">B</text>
        <text x="21.825" y="123">C</text>
        <text x="21.825" y="173">D</text>
        <text x="21.825" y="223">E</text>
        <text x="21.825" y="273">F</text>
        <!-- orientation char right -->
        <text x="416" y="27">A</text>
        <text x="416" y="74">B</text>
        <text x="416" y="123.75">C</text>
        <text x="416" y="173.25">D</text>
        <text x="416" y="223.25">E</text>
        <text x="416" y="273.25">F</text>
        <!-- orientation char bottom -->
        <text x="44" y="295.25">1</text>
        <text x="94" y="295.25">2</text>
        <text x="344" y="295.25">7</text>
        <text x="394" y="295.25">8</text>
	</g>


	<g id="drawing-border" style="fill:none;stroke:#000000;stroke-width:0.5;stroke-linecap:miter;stroke-miterlimit:4">
    	<rect width="390" height="287" x="25" y="5" />
 	</g>


	<g id="center-line" style="stroke:#000000;stroke-width:0.5;">
        <line x1="220" y1="1" x2="220" y2="10" />  <!-- Top center line -->
        <line x1="21" y1="148.5001" x2="30" y2="148.5001" />
        <line x1="410" y1="148.5001" x2="419" y2="148.5001" />
        <line x1="220" y1="289" x2="220" y2="298" />  <!-- Bottom center line -->
	</g>

	<g  id="metric-mark" style="stroke:#000000;stroke-width:0.5;">
	<path d="m 171,297 h 100" />
	<path d="m 171,292 v 5" />
	<path d="m 181,292 v 5" />
	<path d="m 191,292 v 5" />
	<path d="m 201,292 v 5" />
	<path d="m 211,292 v 5" />
	<path d="m 231,292 v 5" />
	<path d="m 241,292 v 5" />
	<path d="m 251,292 v 5" />
	<path d="m 261,292 v 5" />
	<path d="m 271,292 v 5" />
	</g>

 	<g id="titleblock-structure" style="fill:none;stroke:#000000;stroke-width:0.5;stroke-linecap:miter;stroke-miterlimit:4">
        <rect width="180" height="56" x="235" y="236" />
        <path d="m 235,243 h 80" /> <!-- left up 1st horizon line  Titleblock -->
        <path d="m 235,250 h 80" /> <!-- left up 2nd horizon line  Titleblock -->
        <path d="m 235,257 h 80" /> <!-- left up 3rd horizon line  Titleblock -->
        <path d="m 235,264 h 130" /> <!-- left up 4th horizon line  Titleblock -->
        <path d="m 235,271 h 80" /> <!-- left up 5th horizon line  Titleblock -->
        <path d="m 235,278 h 80" /> <!-- left up 6th horizon line  Titleblock -->
        <path d="m 234,285 h 80" /> <!-- left up 7th horizon line  Titleblock -->
        <path d="m 245,236 v 28" /> <!-- left up 1st vertical line  Titleblock -->
        <path d="m 255,236 v 28" /> <!-- left up 2nd vertical line  Titleblock -->
        <path d="m 271,236 v 28" /> <!-- left up 3th vertical line  Titleblock -->
        <path d="m 287,236 v 56" /> <!-- left up 4th vertical line  Titleblock -->
        <path d="m 299,236 v 56" /> <!-- left up 5th vertical line  Titleblock -->
        <path d="m 315,236 v 56" /> <!-- left up 6th vertical line  Titleblock -->
        <path d="m 365,236 v 56" /> <!-- left up 7th vertical line  Titleblock -->
        <path d="m 247,264 v 28" /> <!-- left down 1st vertical line  Titleblock -->
        <path d="m 259,264 v 28" /> <!-- left down 2nd vertical line  Titleblock -->
        <path d="m 275,264 v 28" /> <!-- left down 3rd vertical line  Titleblock -->
        <path d="m 315,274 h 50" /> <!-- middle up 2nd horizon line  Titleblock -->
        <path d="m 315,283 h 50" /> <!-- middle up 3rd horizon line  Titleblock -->
        <path d="m 365,251 h 50" /> <!-- right up 1st horizon line  Titleblock -->
        <path d="m 365,272 h 50" /> <!-- right up 2nd horizon line  Titleblock -->
        <path d="m 321.5,274 v 9" /> <!-- middle down 1st vertical line  Titleblock -->
        <path d="m 328,274 v 9" /> <!-- middle down 2nd vertical line  Titleblock -->
        <path d="m 333.5,274 v 9" /> <!-- middle down 3rd vertical line  Titleblock -->
        <path d="m 341,264 v 19" /> <!-- middle down 4th vertical line  Titleblock -->
        <path d="m 353,264 v 19" /> <!-- middle down 5th vertical line  Titleblock -->
  	</g>

 	<g id="titleblock-text-non-editable" style="strock:black;font-size:5;text-anchor:start;font-family:HYSWLongFangSong;" xml:space="preserve">
        <text x="236.5" y="262">标记</text>
        <text x="246.5" y="262">处数</text>
        <text x="260" y="262">分区</text>
        <text x="271.25" y="262">更</text>
        <text x="274.25" y="262">改</text>
        <text x="277.25" y="262">文</text>
        <text x="280.25" y="262">件</text>
        <text x="283.25" y="262">号</text>
        <text x="289.5" y="262">签名</text>
        <text x="300" y="262">(年月日)</text>
	<!-- -->
	 <text x="237" y="269">设计</text>
         <text x="248" y="269">(签名)</text>
         <text x="260" y="269">(年月日)</text>
	<!-- -->
         <text x="276" y="269">标准化</text>
         <text x="288" y="269">(签名)</text>
         <text x="300" y="269">(年月日)</text>
	<!-- -->
        <text x="320" y="270">阶段标记</text>
        <text x="343" y="270">重量</text>
        <text x="355" y="270">比例</text>
	<!-- -->
        <text x="237" y="283">审核</text>
        <text x="277.5" y="283">制图</text>
        <text x="237" y="290">工艺</text>
        <text x="277.5" y="290">批准</text>
	<!-- -->
        <text x="316" y="289">共</text>
        <text x="336" y="289">张</text>
        <text x="340" y="289">第</text>
        <text x="360" y="289">张</text>
	<!-- -->
        <text x="367" y="291" style="font-size:10;">A3</text>
        <text x="378" y="286" style="font-size:1.8;font-family:HYSWLongFangSong;">模板版本:0.0.2</text>
        <text x="378" y="288.5" style="font-size:1.8;font-family:HYSWLongFangSong;">模板设计:李峰</text>
        <text x="378" y="290.75" style="font-size:1.8;font-family:HYSWLongFangSong;">felix@95839.com</text>
	<!-- -->
        <text x="333" y="241">材料牌号</text>
  	</g>
	<g id="project mark">
	<!-- project mark begin -->
	<g style="stroke:#000000;stroke-width:0.5;">
    	<line x1="392" y1="286.5" x2="402" y2="286.5" stroke-dasharray="2.75,0.25,0.25,0.25,2.75,0.25,0.25,0.25" />
    	<line x1="404" y1="286.5" x2="414" y2="286.5" stroke-dasharray="2.5,0.25,0.5,0.25,3,0.25,0.5,0.25" />
    	<line x1="409" y1="281.5" x2="409" y2="291.5" stroke-dasharray="2.5,0.25,0.5,0.25,3,0.25,0.5,0.25" />
  	</g>
	<g stroke="black" stroke-width="0.5" fill="none" >
    	<polygon points="393,284.5 401,282.5 401,290.5 393,288.5" />
    	<circle cx="409" cy="286.5" r="2" />
    	<circle cx="409" cy="286.5" r="4" />
	</g>
	<!-- project mark end -->
	</g>

        <g id="bunding hole">
        <g stroke="black" stroke-width="0.5" fill="#BBBBBB" stroke="#666666" >
        <circle cx="10" cy="27.5" r="3" />
        <circle cx="10" cy="65.5" r="3" />
        <circle cx="10" cy="148.5" r="3" />
        <circle cx="10" cy="231.5" r="3" />
        <circle cx="10" cy="269.5" r="3" />
        <line x1="10" y1="38" x2="10" y2="48" />
        <line x1="10" y1="247" x2="10" y2="257" />
        <text x="7.5" y="85" style="font-size:5;">装</text>
        <text x="7.5" y="128" style="font-size:5;">订</text>
        <line x1="5" y1="148.5" x2="15" y2="148.5" />
        <line x1="10" y1="153.5" x2="10" y2="143.5" />
        </g>
        </g>

	 <g id="titleblock-text-editable" style="font-size:5;text-anchor:start;text-align:center;strock:black;font-family:HYSWLongFangSong;" xml:space="preserve">
	 <text freecad:editable="AUTHOR_NAME" x="229" y="275.5"><tspan dx="229" dy="275.5" text-anchor="left">设计人</tspan></text>
        6<text freecad:editable="DRAWING_NAME" x="280.5" y="283"  style="font-size:5;text-anchor:start;text-align:center;fill:#000000;"><tspan>制图人</tspan></text>
         <text freecad:editable="CHECKED_NAME" x="240.5" y="283"  style="font-size:5;text-anchor:start;text-align:center;fill:#000000;"><tspan>审核人</tspan></text>
         <text freecad:editable="APPROVER_NAME" x="280.5" y="290"  style="font-size:5;text-anchor:start;text-align:center;fill:#000000;"><tspan>批准人</tspan></text>
         <text freecad:editable="CRAFTS_NAME" x="240.5" y="290"  style="font-size:5;text-anchor:start;text-align:center;fill:#000000;"><tspan>评审人</tspan></text>
	<!-- -->
         <text freecad:editable="TOTAL_SHEETS" x="314" y="289"  style="font-size:5;text-anchor:start;text-align:center;fill:#000000;"><tspan> 99 </tspan></text>
         <text freecad:editable="OF_SHEET" x="338" y="289"  style="font-size:5;text-anchor:start;text-align:center;fill:#000000;"><tspan> 1 </tspan></text>
         <text freecad:editable="SCALE" x="347" y="280"  style="font-size:5;text-anchor:start;text-align:center;fill:#000000;"><tspan>M x:x</tspan></text>
         <text freecad:editable="STAGE-S" x="310.25" y="280"  style="font-size:5;text-anchor:start;text-align:center;fill:#000000;"><tspan></tspan></text>
         <text freecad:editable="STAGE-A" x="317.25" y="280"  style="font-size:5;text-anchor:start;text-align:center;fill:#000000;"><tspan></tspan></text>
         <text freecad:editable="STAGE-B" x="323.25" y="280"  style="font-size:5;text-anchor:start;text-align:center;fill:#000000;"><tspan></tspan></text>
         <text freecad:editable="STAGE-C" x="329" y="280"  style="font-size:5;text-anchor:start;text-align:center;fill:#000000;"><tspan></tspan></text>
         <text freecad:editable="WEIGHT" x="335" y="280"  style="font-size:5;text-anchor:start;text-align:center;fill:#000000;"><tspan>重量</tspan></text>
	<!-- -->
         <text freecad:editable="DATE-1" x="255" y="275.5" style="font-size:3.5;text-anchor:start;text-align:center;fill:#000000;" ><tspan>YYYY-MM-DD</tspan></text>
 	 <text freecad:editable="DATE-2" x="295" y="282.5"  style="font-size:3.5;text-anchor:start;text-align:center;fill:#000000;"><tspan>YYYY-MM-DD</tspan></text>
	 <text freecad:editable="COMPANYNAME" x="358.5" y="240" style="font-size:5;text-anchor:start;text-align:center;fill:#000000;"><tspan>(单位名称/单位代号)</tspan></text>
         <text freecad:editable="COMPANYADDR" x="358.5" y="245" style="font-size:5;text-anchor:start;text-align:center;fill:#000000;"><tspan>(单位地址)</tspan></text>
         <text freecad:editable="COMPANYPHONE" x="358.5" y="250" style="font-size:5;text-anchor:start;text-align:center;fill:#000000;"><tspan>(单位电话/电邮)</tspan></text>
         <text freecad:editable="MATERIALMARK" x="338" y="255" text-anchor="middle" style="font-size:10;"><tspan>(材料标记)</tspan></text>
         <text freecad:editable="PROJECT_TITLE" x="358.5" y="255.5" style="font-size:5;text-anchor:start;text-align:center;fill:#000000;"><tspan>(项目标题)</tspan></text>
         <text freecad:editable="SUBTITLE" x="358.5" y="260.5"  style="font-size:5;text-anchor:start;text-align:center;fill:#000000;"><tspan>(子项目标题)</tspan></text>
         <text freecad:editable="PARTNAME" x="358.5" y="265.5" style="font-size:5;text-anchor:start;text-align:center;fill:#000000;"><tspan>(零件名称)</tspan></text>
         <text freecad:editable="VERSION" x="358.5" y="270.5" style="font-size:5;text-anchor:start;text-align:center;fill:#000000;"><tspan>(版本号)</tspan></text>
         <text freecad:editable="PART_CODE_NAME" x="390" y="279" style="font-size:5;text-anchor:start;text-align:center;text-anchor:middle;fill:#000000;"><tspan>(图样代号)</tspan></text>
	</g>
</svg>
