<?xml version="1.0" encoding="UTF-8"?>
<svg width="420" height="297" version="1.1" viewBox="0 0 420 297" xmlns="http://www.w3.org/2000/svg" xmlns:freecad="http://www.freecad.org/wiki/index.php?title=Svg_Namespace">
 <g id="orienation-border" fill="none" stroke="#000" stroke-linecap="miter" stroke-width=".25">
  <path d="m21 1h398"/>
  <!-- Top Line OutSide -->
  <path d="m21 1v295"/>
  <!-- Left Line OutSide -->
  <path d="m419 1v295"/>
  <!-- Right Line OutSide -->
  <path d="m21 296h99.625"/>
  <!-- Left-Part-Bottom 1st  OutSide -->
  <path d="m319.38 296h99.625"/>
  <!-- Right-Part-Bottom OutSide -->
  <!-- orientation separators top -->
  <path d="m70.75 1v4"/>
  <!-- The space length is: 49.75 -->
  <path d="m120.5 1v4"/>
  <path d="m170.25 1v4"/>
  <path d="m220 1v4"/>
  <path d="m269.75 1v4"/>
  <path d="m319.5 1v4"/>
  <path d="m369.25 1v4"/>
  <path d="m419 1v4"/>
  <!-- orientation separators left -->
  <path d="m21 50.167h4"/>
  <!-- The space length is: 49.1667-->
  <path d="m21 99.333h4"/>
  <!-- The space length is: 49.1667-->
  <path d="m21 148.5h4"/>
  <!-- The space length is: 49.1667-->
  <path d="m21 197.67h4"/>
  <!-- The space length is: 49.1667-->
  <path d="m21 246.83h4"/>
  <!-- The space length is: 49.1667-->
  <path d="m21 296h4"/>
  <!-- The space length is: 49.1667-->
  <!-- orientation separators right -->
  <path d="m415 50.167h4"/>
  <!-- The space length is: 49.1667-->
  <path d="m415 99.333h4"/>
  <!-- The space length is: 49.1667-->
  <path d="m415 148.5h4"/>
  <!-- The space length is: 49.1667-->
  <path d="m415 197.67h4"/>
  <!-- The space length is: 49.1667-->
  <path d="m415 246.83h4"/>
  <!-- The space length is: 49.1667-->
  <path d="m415 296h4"/>
  <!-- The space length is: 49.1667-->
  <!-- orientation separators bottom -->
  <!-- space 49.75 -->
  <path d="m70.75 292v4"/>
  <path d="m120.5 292v4"/>
  <path d="m319.5 292v4"/>
  <path d="m369.25 292v4"/>
 </g>
 <g id="orientation-text" font-family="tahoma" font-size="3.5" xml:space="preserve">
        
  <!-- orientation char top -->
        <text x="44" y="4.25">1</text>
        <text x="94" y="4.25">2</text>
        <text x="144" y="4.25">3</text>
        <text x="194" y="4.25">4</text>
        <text x="244" y="4.25">5</text>
        <text x="294" y="4.25">6</text>
        <text x="344" y="4.25">7</text>
        <text x="394" y="4.25">8</text>
        
  <!-- orientation char left -->
        <text x="21.825" y="27">A</text> 
  <!-- space 49.1667 -->
        <text x="21.825" y="74">B</text>
        <text x="21.825" y="123">C</text>
        <text x="21.825" y="173">D</text>
        <text x="21.825" y="223">E</text>
        <text x="21.825" y="273">F</text>
        
  <!-- orientation char right -->
        <text x="416" y="27">A</text>
        <text x="416" y="74">B</text>
        <text x="416" y="123.75">C</text>
        <text x="416" y="173.25">D</text>
        <text x="416" y="223.25">E</text>
        <text x="416" y="273.25">F</text>
        
  <!-- orientation char bottom -->
        <text x="44" y="295.25">1</text>
        <text x="94" y="295.25">2</text>
        <text x="344" y="295.25">7</text>
        <text x="394" y="295.25">8</text>
	</g>
 <g id="drawing-border" fill="none" stroke="#000" stroke-linecap="miter" stroke-width=".5">
  <rect x="25" y="5" width="390" height="287"/>
 </g>
 <g id="center-line" stroke="#000" stroke-width=".5">
  <line x1="220" x2="220" y1="1" y2="10"/>
  <!-- Top center line -->
  <line x1="21" x2="30" y1="148.5" y2="148.5"/>
  <line x1="410" x2="419" y1="148.5" y2="148.5"/>
  <line x1="220" x2="220" y1="289" y2="298"/>
  <!-- Bottom center line -->
 </g>
 <g id="metric-mark" stroke="#000" stroke-width=".5">
  <path d="m171 297h100"/>
  <path d="m171 292v5"/>
  <path d="m181 292v5"/>
  <path d="m191 292v5"/>
  <path d="m201 292v5"/>
  <path d="m211 292v5"/>
  <path d="m231 292v5"/>
  <path d="m241 292v5"/>
  <path d="m251 292v5"/>
  <path d="m261 292v5"/>
  <path d="m271 292v5"/>
 </g>
 <g id="titleblock-structure" fill="none" stroke="#000" stroke-linecap="miter" stroke-width=".5">
  <rect x="235" y="236" width="180" height="56"/>
  <path d="m235 243h80"/>
  <!-- left up 1st horizon line  Titleblock -->
  <path d="m235 250h80"/>
  <!-- left up 2nd horizon line  Titleblock -->
  <path d="m235 257h80"/>
  <!-- left up 3rd horizon line  Titleblock -->
  <path d="m235 264h130"/>
  <!-- left up 4th horizon line  Titleblock -->
  <path d="m235 271h80"/>
  <!-- left up 5th horizon line  Titleblock -->
  <path d="m235 278h80"/>
  <!-- left up 6th horizon line  Titleblock -->
  <path d="m234 285h80"/>
  <!-- left up 7th horizon line  Titleblock -->
  <path d="m245 236v28"/>
  <!-- left up 1st vertical line  Titleblock -->
  <path d="m255 236v28"/>
  <!-- left up 2nd vertical line  Titleblock -->
  <path d="m271 236v28"/>
  <!-- left up 3th vertical line  Titleblock -->
  <path d="m287 236v56"/>
  <!-- left up 4th vertical line  Titleblock -->
  <path d="m299 236v56"/>
  <!-- left up 5th vertical line  Titleblock -->
  <path d="m315 236v56"/>
  <!-- left up 6th vertical line  Titleblock -->
  <path d="m365 236v56"/>
  <!-- left up 7th vertical line  Titleblock -->
  <path d="m247 264v28"/>
  <!-- left down 1st vertical line  Titleblock -->
  <path d="m259 264v28"/>
  <!-- left down 2nd vertical line  Titleblock -->
  <path d="m275 264v28"/>
  <!-- left down 3rd vertical line  Titleblock -->
  <path d="m315 274h50"/>
  <!-- middle up 2nd horizon line  Titleblock -->
  <path d="m315 283h50"/>
  <!-- middle up 3rd horizon line  Titleblock -->
  <path d="m365 251h50"/>
  <!-- right up 1st horizon line  Titleblock -->
  <path d="m365 272h50"/>
  <!-- right up 2nd horizon line  Titleblock -->
  <path d="m321.5 274v9"/>
  <!-- middle down 1st vertical line  Titleblock -->
  <path d="m328 274v9"/>
  <!-- middle down 2nd vertical line  Titleblock -->
  <path d="m333.5 274v9"/>
  <!-- middle down 3rd vertical line  Titleblock -->
  <path d="m341 264v19"/>
  <!-- middle down 4th vertical line  Titleblock -->
  <path d="m353 264v19"/>
  <!-- middle down 5th vertical line  Titleblock -->
 </g>
 <g id="titleblock-text-non-editable" font-family="HYSWLongFangSong" font-size="5" style="strock:black" xml:space="preserve">
        <text x="236.5" y="262">标记</text>
        <text x="246.5" y="262">处数</text>
        <text x="260" y="262">分区</text>
        <text x="271.25" y="262">更</text>
        <text x="274.25" y="262">改</text>
        <text x="277.25" y="262">文</text>
        <text x="280.25" y="262">件</text>
        <text x="283.25" y="262">号</text>
        <text x="289.5" y="262">签名</text>
        <text x="300" y="262">(年月日)</text>
	
  <!-- -->
	 <text x="237" y="269">设计</text>
         <text x="248" y="269">(签名)</text>
         <text x="260" y="269">(年月日)</text>
	
  <!-- -->
         <text x="276" y="269">标准化</text>
         <text x="288" y="269">(签名)</text>
         <text x="300" y="269">(年月日)</text>
	
  <!-- -->
        <text x="320" y="270">阶段标记</text>
        <text x="343" y="270">重量</text>
        <text x="355" y="270">比例</text>
	
  <!-- -->
        <text x="237" y="283">审核</text>
        <text x="277.5" y="283">制图</text>
        <text x="237" y="290">工艺</text>
        <text x="277.5" y="290">批准</text>
	
  <!-- -->
        <text x="316" y="289">共</text>
        <text x="336" y="289">张</text>
        <text x="340" y="289">第</text>
        <text x="360" y="289">张</text>
	
  <!-- -->
        <text x="367" y="291" font-size="10">A3</text>
        <text x="378" y="286" font-family="HYSWLongFangSong" font-size="1.8">模板版本:0.0.2</text>
        <text x="378" y="288.5" font-family="HYSWLongFangSong" font-size="1.8">模板设计:李峰</text>
        <text x="378" y="290.75" font-family="HYSWLongFangSong" font-size="1.8">felix@95839.com</text>
	
  <!-- -->
        <text x="333" y="241">材料牌号</text>
  	</g>
 <g id="project mark" stroke="#000" stroke-width=".5">
  <!-- project mark begin -->
  <line x1="392" x2="402" y1="286.5" y2="286.5" stroke-dasharray="2.75,0.25,0.25,0.25,2.75,0.25,0.25,0.25"/>
  <line x1="404" x2="414" y1="286.5" y2="286.5" stroke-dasharray="2.5,0.25,0.5,0.25,3,0.25,0.5,0.25"/>
  <line x1="409" x2="409" y1="281.5" y2="291.5" stroke-dasharray="2.5,0.25,0.5,0.25,3,0.25,0.5,0.25"/>
  <g fill="none">
   <polygon points="393 284.5 401 282.5 401 290.5 393 288.5"/>
   <circle cx="409" cy="286.5" r="2"/>
   <circle cx="409" cy="286.5" r="4"/>
  </g>
  <!-- project mark end -->
 </g>
 <g id="binding hole">
  <g fill="#bbb" stroke="#666" stroke-width=".5">
   <circle cx="10" cy="27.5" r="3"/>
   <circle cx="10" cy="65.5" r="3"/>
   <circle cx="10" cy="148.5" r="3"/>
   <circle cx="10" cy="231.5" r="3"/>
   <circle cx="10" cy="269.5" r="3"/>
   <line x1="10" x2="10" y1="38" y2="48"/>
   <line x1="10" x2="10" y1="247" y2="257"/>
   <text x="7.5" y="85" font-size="5">装</text>
   <text x="7.5" y="128" font-size="5">订</text>
   <line x1="5" x2="15" y1="148.5" y2="148.5"/>
   <line x1="10" x2="10" y1="153.5" y2="143.5"/>
  </g>
 </g>
 <g id="titleblock-text-editable" font-family="HYSWLongFangSong" font-size="5" text-align="center" style="strock:black" xml:space="preserve">
	 <text x="229" y="275.5" freecad:editable="AUTHOR_NAME"><tspan dx="229" dy="275.5" text-anchor="left">设计人</tspan></text>
         <text x="280.5" y="283" fill="#000000" font-size="5" text-align="center" freecad:editable="DRAWING_NAME"><tspan>制图人</tspan></text>
         <text x="240.5" y="283" fill="#000000" font-size="5" text-align="center" freecad:editable="CHECKED_NAME"><tspan>审核人</tspan></text>
         <text x="280.5" y="290" fill="#000000" font-size="5" text-align="center" freecad:editable="APPROVER_NAME"><tspan>批准人</tspan></text>
         <text x="240.5" y="290" fill="#000000" font-size="5" text-align="center" freecad:editable="CRAFTS_NAME"><tspan>评审人</tspan></text>
	
  <!-- -->
         <text x="314" y="289" fill="#000000" font-size="5" text-align="center" freecad:editable="TOTAL_SHEETS"><tspan> 99 </tspan></text>
         <text x="338" y="289" fill="#000000" font-size="5" text-align="center" freecad:editable="OF_SHEET"><tspan> 1 </tspan></text>
         <text x="347" y="280" fill="#000000" font-size="5" text-align="center" freecad:editable="SCALE"><tspan>M x:x</tspan></text>
         <text x="310.25" y="280" fill="#000000" font-size="5" text-align="center" freecad:editable="STAGE-S"><tspan/></text>
         <text x="317.25" y="280" fill="#000000" font-size="5" text-align="center" freecad:editable="STAGE-A"><tspan/></text>
         <text x="323.25" y="280" fill="#000000" font-size="5" text-align="center" freecad:editable="STAGE-B"><tspan/></text>
         <text x="329" y="280" fill="#000000" font-size="5" text-align="center" freecad:editable="STAGE-C"><tspan/></text>
         <text x="335" y="280" fill="#000000" font-size="5" text-align="center" freecad:editable="WEIGHT"><tspan>重量</tspan></text>
	
  <!-- -->
         <text x="255" y="275.5" fill="#000000" font-size="3.5" text-align="center" freecad:editable="DATE-1"><tspan>YYYY-MM-DD</tspan></text>
 	 <text x="295" y="282.5" fill="#000000" font-size="3.5" text-align="center" freecad:editable="DATE-2"><tspan>YYYY-MM-DD</tspan></text>
	 <text x="358.5" y="240" fill="#000000" font-size="5" text-align="center" freecad:editable="COMPANYNAME"><tspan>(单位名称/单位代号)</tspan></text>
         <text x="358.5" y="245" fill="#000000" font-size="5" text-align="center" freecad:editable="COMPANYADDR"><tspan>(单位地址)</tspan></text>
         <text x="358.5" y="250" fill="#000000" font-size="5" text-align="center" freecad:editable="COMPANYPHONE"><tspan>(单位电话/电邮)</tspan></text>
         <text x="338" y="255" font-size="10" text-anchor="middle" freecad:editable="MATERIALMARK"><tspan>(材料标记)</tspan></text>
         <text x="358.5" y="255.5" fill="#000000" font-size="5" text-align="center" freecad:editable="PROJECT_TITLE"><tspan>(项目标题)</tspan></text>
         <text x="358.5" y="260.5" fill="#000000" font-size="5" text-align="center" freecad:editable="SUBTITLE"><tspan>(子项目标题)</tspan></text>
         <text x="358.5" y="265.5" fill="#000000" font-size="5" text-align="center" freecad:editable="PARTNAME"><tspan>(零件名称)</tspan></text>
         <text x="358.5" y="270.5" fill="#000000" font-size="5" text-align="center" freecad:editable="VERSION"><tspan>(版本号)</tspan></text>
         <text x="390" y="279" fill="#000000" font-size="5" text-align="center" text-anchor="middle" freecad:editable="PART_CODE_NAME"><tspan>(图样代号)</tspan></text>
	</g>
</svg>
