<?xml version="1.0" encoding="UTF-8" standalone="no"?>
<svg
	xmlns="http://www.w3.org/2000/svg" version="1.1"
	xmlns:freecad="http://www.freecadweb.org/wiki/index.php?title=Svg_Namespace"
	width="297" height="210" viewBox="0 0 297 210">
	<g id="orienation-border" style="fill:none;stroke:#000000;stroke-width:0.25;stroke-linecap:miter;stroke-miterlimit:4">
        <path d="m 21,1 h 275" /> <!-- Top Line OutSide -->
        <path d="m 21,1 v 208" /> <!-- Left Line OutSide -->
        <path d="m 296,1 v 208" /> <!-- Right Line OutSide -->
        <path d="m 21,209 h 45.8333" /> <!-- Left-Part-Bottom OutSide -->
        <path d="m 250.1665,209 h 45.8333" /> <!-- Right-Part-Bottom OutSide -->
        <!-- orientation separators top -->
        <path d="m 66.8333,1 v 4" />  <!-- The space length is: 45.8333 -->
        <path d="m 112.6666,1  v 4" />
        <path d="m 158.4999,1  v 4" />
        <path d="m 204.3332,1  v 4" />
        <path d="m 250.1665,1  v 4" />
        <!-- orientation separators left -->
        <path d="m 21,52  h 4" />  <!-- The space length is: 52 -->
        <path d="m 21,104  h 4" />
        <path d="m 21,156  h 4" />
        <!-- orientation separators right -->
        <path d="m 292,52  h 4" />  <!-- The space length is: 52 -->
        <path d="m 292,104  h 4" />
        <path d="m 292,156  h 4" />
        <!-- orientation separators bottom -->
        <path d="m 66.8333,205 v 4" />
        <path d="m 250.1665,205 v 4" />
  	</g>

 	<g  id="orientation-text" style="font-size:3.5;text-anchor:start;fill:#000000;font-family:tahoma" xml:space="preserve">
        <!-- orientation char top -->
        <text x="43.9167" y="4.25">1</text>
        <text x="88" y="4.25">2</text>
        <text x="133" y="4.25">3</text>
        <text x="177" y="4.25">4</text>
        <text x="224" y="4.25">5</text>
        <text x="268" y="4.25">6</text>
        <!-- orientation char left -->
        <text x="21.825" y="30.75">A</text>
        <text x="21.825" y="80.25">B</text>
        <text x="21.825" y="129.75">C</text>
        <text x="21.825" y="179.25">D</text>
        <!-- orientation char right -->
        <text x="292.825" y="30.75">A</text>
        <text x="292.825" y="80.25">B</text>
        <text x="292.825" y="129.75">C</text>
        <text x="292.825" y="179.25">D</text>
        <!-- orientation char bottom -->
        <text x="43.9167" y="208.25">1</text>
        <text x="268" y="208.25">6</text>
	</g>


	<g id="drawing-border" style="fill:none;stroke:#000000;stroke-width:0.5;stroke-linecap:miter;stroke-miterlimit:4">
    	<rect width="267" height="200" x="25" y="5" />
 	</g>


	<g id="center-line" style="stroke:#000000;stroke-width:0.5;">
        <line x1="158.4999" y1="1" x2="158.499" y2="10" />  <!-- Top center line -->
        <line x1="21" y1="104" x2="30" y2="104" />
        <line x1="287" y1="104" x2="296" y2="104" />
        <line x1="158.4999" y1="205" x2="158.499" y2="210" />  <!-- Bottom center line -->
	</g>

	<g  id="metric-mark" style="stroke:#000000;stroke-width:0.5;">
 	<path d="m 108.4999,210 h 100" />
 	<path d="m 108.4999,205 v 5" />
 	<path d="m 118.4999,205 v 5" />
 	<path d="m 128.4999,205 v 5" />
 	<path d="m 138.4999,205 v 5" />
 	<path d="m 148.4999,205 v 5" />
 	<path d="m 158.4999,205 v 5" />
 	<path d="m 168.4999,205 v 5" />
 	<path d="m 178.4999,205 v 5" />
 	<path d="m 188.4999,205 v 5" />
 	<path d="m 198.4999,205 v 5" />
 	<path d="m 208.4999,205 v 5" />
	</g>

 	<g id="titleblock-structure" style="fill:none;stroke:#000000;stroke-width:0.5;stroke-linecap:miter;stroke-miterlimit:4">
        <rect width="180" height="56" x="112" y="149" />
        <path d="m 112,156 h 80" /> <!-- left up 1st horizon line  Titleblock -->
        <path d="m 112,163 h 80" /> <!-- left up 2nd horizon line  Titleblock -->
        <path d="m 112,170 h 80" /> <!-- left up 3rd horizon line  Titleblock -->
        <path d="m 112,177 h 130" /> <!-- left up 4th horizon line  Titleblock -->
        <path d="m 112,184 h 80" /> <!-- left up 5th horizon line  Titleblock -->
        <path d="m 112,191 h 80" /> <!-- left up 6th horizon line  Titleblock -->
        <path d="m 112,198 h 80" /> <!-- left up 7th horizon line  Titleblock -->
        <path d="m 122,149 v 28" /> <!-- left up 1st vertical line  Titleblock -->
        <path d="m 132,149 v 28" /> <!-- left up 2nd vertical line  Titleblock -->
        <path d="m 148,149 v 28" /> <!-- left up 3th vertical line  Titleblock -->
        <path d="m 164,149 v 56" /> <!-- left up 4th vertical line  Titleblock -->
        <path d="m 176,149 v 56" /> <!-- left up 5th vertical line  Titleblock -->
        <path d="m 192,149 v 56" /> <!-- left up 6th vertical line  Titleblock -->
        <path d="m 242,149 v 56" /> <!-- left up 7th vertical line  Titleblock -->
        <path d="m 124,177 v 28" /> <!-- left down 1st vertical line  Titleblock -->
        <path d="m 136,177 v 28" /> <!-- left down 2nd vertical line  Titleblock -->
        <path d="m 152,177 v 28" /> <!-- left down 3rd vertical line  Titleblock -->
        <path d="m 192,187 h 50" /> <!-- middle up 2nd horizon line  Titleblock -->
        <path d="m 192,196 h 50" /> <!-- middle up 3rd horizon line  Titleblock -->
        <path d="m 242,164 h 50" /> <!-- right up 1st horizon line  Titleblock -->
        <path d="m 242,185 h 50" /> <!-- right up 2nd horizon line  Titleblock -->
        <path d="m 198.5,187 v 9" /> <!-- middle down 1st vertical line  Titleblock -->
        <path d="m 205,187 v 9" /> <!-- middle down 2nd vertical line  Titleblock -->
        <path d="m 211.5,187 v 9" /> <!-- middle down 3rd vertical line  Titleblock -->
        <path d="m 218,177 v 19" /> <!-- middle down 4th vertical line  Titleblock -->
        <path d="m 230,177 v 19" /> <!-- middle down 5th vertical line  Titleblock -->
  	</g>

 	<g id="titleblock-text-non-editable" style="strock:black;font-size:5;text-anchor:start;font-family:HYSWLongFangSong" xml:space="preserve">
        <text x="113.5" y="175">标记</text>
        <text x="123.5" y="175">处数</text>
        <text x="136" y="175">分区</text>
        <text x="148.25" y="175">更</text>
        <text x="151.25" y="175">改</text>
        <text x="154.25" y="175">文</text>
        <text x="157.25" y="175">件</text>
        <text x="160.25" y="175">号</text>
        <text x="166.5" y="175">签名</text>
        <text x="177" y="175">(年月日)</text>
	<!-- -->
	 <text x="114" y="182">设计</text>
         <text x="125" y="182">(签名)</text>
         <text x="137" y="182">(年月日)</text>
	<!-- -->
         <text x="153" y="182">标准化</text>
         <text x="165" y="182">(签名)</text>
         <text x="177" y="182">(年月日)</text>
	<!-- -->
        <text x="197" y="183">阶段标记</text>
        <text x="220" y="183">重量</text>
        <text x="232" y="183">比例</text>
	<!-- -->
        <text x="114" y="196">审核</text>
        <text x="154.5" y="196">制图</text>
        <text x="114" y="203">工艺</text>
        <text x="154.5" y="203">批准</text>
	<!-- -->
        <text x="193" y="202">共</text>
        <text x="213" y="202">张</text>
        <text x="217" y="202">第</text>
        <text x="237" y="202">张</text>
	<!-- -->
        <text x="244" y="204" style="font-size:10;font-family:HYSWLongFangSong;">A4</text>
        <text x="255" y="198.5" style="font-size:1.8;font-family:HYSWLongFangSong;">模板版本:0.0.2</text>
        <text x="255" y="201" style="font-size:1.8;font-family:HYSWLongFangSong;">模板设计:李峰</text>
        <text x="255" y="203.5" style="font-size:1.8;font-family:HYSWLongFangSong;">felix@95839.com</text>
	<!-- -->
        <text x="210" y="154" style="font-family:HYSWLongFangSong;">材料牌号</text>
  	</g>
	<g id="project mark">
	<!-- project mark begin -->
	<g style="stroke:#000000;stroke-width:0.5;">
    	<line x1="269" y1="199.5" x2="279" y2="199.5" stroke-dasharray="2.75,0.25,0.25,0.25,2.75,0.25,0.25,0.25" />
    	<line x1="281" y1="199.5" x2="291" y2="199.5" stroke-dasharray="2.5,0.25,0.5,0.25,3,0.25,0.5,0.25" />
    	<line x1="286" y1="194.5" x2="286" y2="204.5" stroke-dasharray="2.5,0.25,0.5,0.25,3,0.25,0.5,0.25" />
  	</g>
	<g stroke="black" stroke-width="0.5" fill="none" >
    	<polygon points="270,197.5 278,195.5 278,203.5 270,201.5" />
    	<circle cx="286" cy="199.5" r="2" />
    	<circle cx="286" cy="199.5" r="4" />
	</g>
	<!-- project mark end -->
	</g>

	<!--
	<g id="bunding hole">
	<g stroke="black" stroke-width="0.5" fill="#BBBBBB" stroke="#888888" >
    	<circle cx="12.5" cy="25" r="3" />
    	<circle cx="12.5" cy="105" r="3" />
    	<circle cx="12.5" cy="185" r="3" />
    	<line x1="12.5" y1="32" x2="12.5" y2="67" stroke-dasharray="1,0.25,0.5,0.25,1,0.25,0.5,0.25" />
        <text x="10" y="85" style="font-size:5;">装</text>
        <text x="10" y="125" style="font-size:5;">订</text>
    	<line x1="12.5" y1="140" x2="12.5" y2="175" stroke-dasharray="1,0.25,0.5,0.25,1,0.25,0.5,0.25" />
	</g>
	</g>
	-->

	 <g id="titleblock-text-editable" style="font-size:5;text-anchor:start;text-align:center;strock:black;font-family:HYSWLongFangSong" xml:space="preserve">
	 <text freecad:editable="AUTHOR_NAME" x="106" y="188.5"><tspan dx="106" dy="188.5" text-anchor="left">设计人</tspan></text>
         <text freecad:editable="DRAWING_NAME" x="157.5" y="196"  style="font-size:5;text-anchor:start;text-align:center;fill:#000000;"><tspan>制图人</tspan></text>
         <text freecad:editable="CHECKED_NAME" x="117.5" y="196"  style="font-size:5;text-anchor:start;text-align:center;fill:#000000;"><tspan>审核人</tspan></text>
         <text freecad:editable="APPROVER_NAME" x="157.5" y="203"  style="font-size:5;text-anchor:start;text-align:center;fill:#000000;"><tspan>批准人</tspan></text>
         <text freecad:editable="CRAFTS_NAME" x="117.5" y="203"  style="font-size:5;text-anchor:start;text-align:center;fill:#000000;"><tspan>评审人</tspan></text>
         <text freecad:editable="TOTAL_SHEETS" x="190" y="202"  style="font-size:5;text-anchor:start;text-align:center;fill:#000000;"><tspan> 99 </tspan></text>
         <text freecad:editable="OF_SHEET" x="214" y="202"  style="font-size:5;text-anchor:start;text-align:center;fill:#000000;"><tspan> 1 </tspan></text>
         <text freecad:editable="SCALE" x="224" y="193"  style="font-size:5;text-anchor:start;text-align:center;fill:#000000;"><tspan>M x:x</tspan></text>
         <text freecad:editable="STAGE-S" x="187.25" y="193"  style="font-size:5;text-anchor:start;text-align:center;fill:#000000;"><tspan></tspan></text>
         <text freecad:editable="STAGE-A" x="194.25" y="193"  style="font-size:5;text-anchor:start;text-align:center;fill:#000000;"><tspan></tspan></text>
         <text freecad:editable="STAGE-B" x="200.25" y="193"  style="font-size:5;text-anchor:start;text-align:center;fill:#000000;"><tspan></tspan></text>
         <text freecad:editable="STAGE-C" x="207" y="193"  style="font-size:5;text-anchor:start;text-align:center;fill:#000000;"><tspan></tspan></text>
         <text freecad:editable="WEIGHT" x="212" y="193"  style="font-size:5;text-anchor:start;text-align:center;fill:#000000;"><tspan>重量</tspan></text>
         <text freecad:editable="DATE-1" x="132" y="188.5" style="font-size:3.5;text-anchor:start;text-align:center;fill:#000000;" ><tspan>YYYY-MM-DD</tspan></text>
 	 <text freecad:editable="DATE-2" x="172" y="195.5"  style="font-size:3.5;text-anchor:start;text-align:center;fill:#000000;"><tspan>YYYY-MM-DD</tspan></text>
	 <text freecad:editable="COMPANYNAME" x="235.5" y="153" style="font-size:5;text-anchor:start;text-align:center;fill:#000000;"><tspan>(单位名称/单位代号)</tspan></text>
         <text freecad:editable="COMPANYADDR" x="235.5" y="158" style="font-size:5;text-anchor:start;text-align:center;fill:#000000;"><tspan>(单位地址)</tspan></text>
         <text freecad:editable="COMPANYPHONE" x="235.5" y="163" style="font-size:5;text-anchor:start;text-align:center;fill:#000000;"><tspan>(单位电话/电邮)</tspan></text>
         <text freecad:editable="MATERIALMARK" x="215" y="168" text-anchor="middle" style="font-size:10;"><tspan>(材料标记)</tspan></text>
         <text freecad:editable="PROJECT_TITLE" x="235.5" y="168.5" style="font-size:5;text-anchor:start;text-align:center;fill:#000000;"><tspan>(项目标题)</tspan></text>
         <text freecad:editable="SUBTITLE" x="235.5" y="173.5"  style="font-size:5;text-anchor:start;text-align:center;fill:#000000;"><tspan>(子项目标题)</tspan></text>
         <text freecad:editable="PARTNAME" x="235.5" y="178.5" style="font-size:5;text-anchor:start;text-align:center;fill:#000000;"><tspan>(零件名称)</tspan></text>
         <text freecad:editable="VERSION" x="235.5" y="183.5" style="font-size:5;text-anchor:start;text-align:center;fill:#000000;"><tspan>(版本号)</tspan></text>
         <text freecad:editable="PART_CODE_NAME" x="267" y="192" style="font-size:5;text-anchor:start;text-align:center;text-anchor:middle;fill:#000000;"><tspan>(图样代号)</tspan></text>
	</g>
</svg>
