<?xml version="1.0" encoding="UTF-8" standalone="no"?>
<svg
   xmlns:dc="http://purl.org/dc/elements/1.1/"
   xmlns:cc="http://creativecommons.org/ns#"
   xmlns:rdf="http://www.w3.org/1999/02/22-rdf-syntax-ns#"
   xmlns:svg="http://www.w3.org/2000/svg"
   xmlns="http://www.w3.org/2000/svg"
   xmlns:sodipodi="http://sodipodi.sourceforge.net/DTD/sodipodi-0.dtd"
   xmlns:inkscape="http://www.inkscape.org/namespaces/inkscape"
   enable-background="new 0 0 60 54"
   height="54px"
   id="Layer_1"
   version="1.1"
   viewBox="0 0 60 54"
   width="60px"
   xml:space="preserve"
   inkscape:version="0.91 r13725"
   sodipodi:docname="iconfinder_function_383136.svg"><metadata
     id="metadata13"><rdf:RDF><cc:Work
         rdf:about=""><dc:format>image/svg+xml</dc:format><dc:type
           rdf:resource="http://purl.org/dc/dcmitype/StillImage" /></cc:Work></rdf:RDF></metadata><defs
     id="defs11" /><sodipodi:namedview
     pagecolor="#ffffff"
     bordercolor="#666666"
     borderopacity="1"
     objecttolerance="10"
     gridtolerance="10"
     guidetolerance="10"
     inkscape:pageopacity="0"
     inkscape:pageshadow="2"
     inkscape:window-width="1375"
     inkscape:window-height="876"
     id="namedview9"
     showgrid="false"
     inkscape:zoom="6.180637"
     inkscape:cx="30.69358"
     inkscape:cy="28.673773"
     inkscape:window-x="65"
     inkscape:window-y="24"
     inkscape:window-maximized="1"
     inkscape:current-layer="Layer_1" /><g
     id="g3"
     transform="translate(0.611,0.371)"><path
       d="m 24.703,17.77 -3.428,13.535 c -1.602,6.387 -3.164,11.016 -4.688,13.887 -1.524,2.871 -3.306,4.995 -5.347,6.372 -2.041,1.377 -4.38,2.065 -7.017,2.065 -1.66,0 -2.881,-0.318 -3.662,-0.952 -0.781,-0.635 -1.172,-1.382 -1.172,-2.241 0,-0.801 0.322,-1.494 0.967,-2.08 0.645,-0.586 1.494,-0.879 2.549,-0.879 0.879,0 1.553,0.225 2.021,0.674 0.468,0.449 0.703,1.016 0.703,1.699 0,0.625 -0.146,1.088 -0.439,1.392 -0.293,0.303 -0.439,0.503 -0.439,0.601 l 0.146,0.205 c 0.117,0.098 0.254,0.146 0.41,0.146 0.586,0 1.084,-0.186 1.494,-0.557 1.036,-0.918 1.807,-2.031 2.314,-3.34 0.352,-0.898 1.025,-3.271 2.021,-7.119 l 5.977,-23.408 -4.072,0 0.967,-3.428 c 1.465,0.02 2.529,-0.166 3.193,-0.557 0.664,-0.391 1.367,-1.27 2.109,-2.637 2.148,-3.965 4.414,-6.807 6.797,-8.525 2.383,-1.718 5.039,-2.578 7.969,-2.578 1.875,0 3.237,0.362 4.087,1.084 0.85,0.723 1.274,1.66 1.274,2.813 0,1.016 -0.283,1.821 -0.85,2.417 -0.566,0.596 -1.27,0.894 -2.109,0.894 -0.781,0 -1.426,-0.244 -1.934,-0.732 -0.508,-0.488 -0.762,-1.074 -0.762,-1.758 0,-0.488 0.161,-1.006 0.483,-1.553 0.322,-0.546 0.483,-0.918 0.483,-1.113 0,-0.215 -0.073,-0.391 -0.22,-0.527 -0.146,-0.136 -0.337,-0.205 -0.571,-0.205 -1.152,0 -2.334,0.713 -3.545,2.139 -1.992,2.285 -3.594,5.899 -4.805,10.84 l 4.248,0 -1.025,3.428 -4.127,0 z"
       id="path5"
       inkscape:connector-curvature="0"
       style="fill:#231f20" /><path
       d="M 31.705,15.279 41.93,13.521 c 1.855,2.911 3.164,6.113 3.926,9.609 1.914,-2.832 3.359,-4.814 4.336,-5.947 1.309,-1.523 2.388,-2.515 3.237,-2.974 0.85,-0.458 1.753,-0.688 2.71,-0.688 1.074,0 1.899,0.293 2.476,0.879 0.575,0.586 0.864,1.377 0.864,2.373 0,0.938 -0.289,1.704 -0.864,2.3 -0.576,0.596 -1.294,0.894 -2.153,0.894 -0.625,0 -1.344,-0.112 -2.153,-0.337 -0.811,-0.224 -1.372,-0.337 -1.685,-0.337 -0.82,0 -1.602,0.293 -2.344,0.879 -1.016,0.801 -2.266,2.51 -3.75,5.127 1.66,5.859 2.988,9.434 3.984,10.723 0.586,0.762 1.182,1.143 1.787,1.143 0.508,0 0.947,-0.127 1.318,-0.381 0.566,-0.41 1.436,-1.436 2.607,-3.076 l 1.055,0.615 c -1.719,2.773 -3.398,4.727 -5.039,5.859 -1.25,0.879 -2.48,1.318 -3.691,1.318 -1.25,0 -2.29,-0.278 -3.12,-0.835 C 44.6,40.108 43.864,39.2 43.219,37.94 c -0.645,-1.26 -1.406,-3.276 -2.285,-6.05 -2.285,2.91 -4.077,5.035 -5.376,6.372 -1.3,1.338 -2.378,2.212 -3.237,2.622 -0.859,0.41 -1.778,0.616 -2.755,0.616 -1.015,0 -1.821,-0.293 -2.417,-0.879 -0.596,-0.586 -0.894,-1.348 -0.894,-2.285 0,-0.996 0.322,-1.816 0.967,-2.461 0.645,-0.645 1.465,-0.967 2.461,-0.967 0.527,0 1.123,0.156 1.787,0.469 0.977,0.469 1.68,0.703 2.109,0.703 0.566,0 1.074,-0.117 1.523,-0.352 0.586,-0.293 1.328,-0.928 2.227,-1.904 0.547,-0.605 1.553,-1.895 3.018,-3.867 -1.875,-6.953 -3.34,-11.113 -4.395,-12.48 -0.664,-0.879 -1.504,-1.318 -2.52,-1.318 -0.527,0 -1.172,0.078 -1.934,0.234 l 0.207,-1.114 z"
       id="path7"
       inkscape:connector-curvature="0"
       style="fill:#231f20" /></g></svg>