<?xml version="1.0" encoding="UTF-8" standalone="no"?>
<svg
   width="64"
   height="64"
   viewBox="0 0 64 64"
   version="1.1"
   id="svg25"
   sodipodi:docname="HatchGenerator.svg"
   inkscape:version="1.4 (86a8ad7, 2024-10-11)"
   xmlns:inkscape="http://www.inkscape.org/namespaces/inkscape"
   xmlns:sodipodi="http://sodipodi.sourceforge.net/DTD/sodipodi-0.dtd"
   xmlns="http://www.w3.org/2000/svg"
   xmlns:svg="http://www.w3.org/2000/svg">
  <defs
     id="defs25" />
  <sodipodi:namedview
     id="namedview25"
     pagecolor="#ffffff"
     bordercolor="#000000"
     borderopacity="0.25"
     inkscape:showpageshadow="2"
     inkscape:pageopacity="0.0"
     inkscape:pagecheckerboard="0"
     inkscape:deskcolor="#d1d1d1"
     inkscape:zoom="12.078125"
     inkscape:cx="31.958603"
     inkscape:cy="25.376455"
     inkscape:window-width="1920"
     inkscape:window-height="991"
     inkscape:window-x="-9"
     inkscape:window-y="-9"
     inkscape:window-maximized="1"
     inkscape:current-layer="svg25" />
  <!-- Hatch pattern icon -->
  <rect
     width="64"
     height="64"
     fill="#f0f0f0"
     rx="4"
     id="rect1" />
  <!-- Diagonal hatch lines -->
  <g
     stroke="#333333"
     stroke-width="2"
     stroke-linecap="round"
     id="g25">
    <line
       x1="8"
       y1="8"
       x2="24"
       y2="24"
       id="line1" />
    <line
       x1="16"
       y1="8"
       x2="32"
       y2="24"
       id="line2" />
    <line
       x1="24"
       y1="8"
       x2="40"
       y2="24"
       id="line3" />
    <line
       x1="32"
       y1="8"
       x2="48"
       y2="24"
       id="line4" />
    <line
       x1="40"
       y1="8"
       x2="56"
       y2="24"
       id="line5" />
    <line
       x1="8"
       y1="16"
       x2="24"
       y2="32"
       id="line6" />
    <line
       x1="16"
       y1="16"
       x2="32"
       y2="32"
       id="line7" />
    <line
       x1="24"
       y1="16"
       x2="40"
       y2="32"
       id="line8" />
    <line
       x1="32"
       y1="16"
       x2="48"
       y2="32"
       id="line9" />
    <line
       x1="40"
       y1="16"
       x2="56"
       y2="32"
       id="line10" />
    <line
       x1="8"
       y1="24"
       x2="24"
       y2="40"
       id="line11" />
    <line
       x1="16"
       y1="24"
       x2="32"
       y2="40"
       id="line12" />
    <line
       x1="24"
       y1="24"
       x2="40"
       y2="40"
       id="line13" />
    <line
       x1="32"
       y1="24"
       x2="48"
       y2="40"
       id="line14" />
    <line
       x1="40"
       y1="24"
       x2="56"
       y2="40"
       id="line15" />
    <line
       x1="8"
       y1="32"
       x2="24"
       y2="48"
       id="line16" />
    <line
       x1="16"
       y1="32"
       x2="32"
       y2="48"
       id="line17" />
    <line
       x1="24"
       y1="32"
       x2="40"
       y2="48"
       id="line18" />
    <line
       x1="32"
       y1="32"
       x2="48"
       y2="48"
       id="line19" />
    <line
       x1="40"
       y1="32"
       x2="56"
       y2="48"
       id="line20" />
    <line
       x1="8"
       y1="40"
       x2="24"
       y2="56"
       id="line21" />
    <line
       x1="16"
       y1="40"
       x2="32"
       y2="56"
       id="line22" />
    <line
       x1="24"
       y1="40"
       x2="40"
       y2="56"
       id="line23" />
    <line
       x1="32"
       y1="40"
       x2="48"
       y2="56"
       id="line24" />
    <line
       x1="40"
       y1="40"
       x2="56"
       y2="56"
       id="line25" />
  </g>
  <!-- Boundary box -->
  <path
     style="fill:#fff100;stroke-width:1;stroke-dasharray:none;fill-opacity:1;stroke:#333333;stroke-opacity:1"
     d="M 10,6.5 C 8.0869458,6.5 6.5,8.0869458 6.5,10 v 44 c 0,1.913054 1.5869458,3.5 3.5,3.5 h 44 c 1.913054,0 3.5,-1.586946 3.5,-3.5 V 10 C 57.5,8.0869458 55.913054,6.5 54,6.5 Z m 0,3 h 44 c 0.302946,0 0.5,0.1970542 0.5,0.5 v 44 c 0,0.302946 -0.197054,0.5 -0.5,0.5 H 10 C 9.6970542,54.5 9.5,54.302946 9.5,54 V 10 C 9.5,9.6970542 9.6970542,9.5 10,9.5 Z"
     id="rect25" />
</svg>
