<?xml version="1.0" encoding="UTF-8" standalone="no"?>
<svg
   id="svg6528"
   height="12"
   width="12"
   version="1.1"
   xmlns="http://www.w3.org/2000/svg"
   xmlns:svg="http://www.w3.org/2000/svg"
   xmlns:rdf="http://www.w3.org/1999/02/22-rdf-syntax-ns#"
   xmlns:cc="http://creativecommons.org/ns#"
   xmlns:dc="http://purl.org/dc/elements/1.1/">
  <metadata
     id="metadata6538">
    <rdf:RDF>
      <cc:Work
         rdf:about="">
        <dc:format>image/svg+xml</dc:format>
        <dc:type
           rdf:resource="http://purl.org/dc/dcmitype/StillImage" />
        <dc:title />
      </cc:Work>
    </rdf:RDF>
  </metadata>
  <defs
     id="defs6538" />
  <path
     style="color:#000000;fill:#838383;fill-opacity:1.0;fill-rule:evenodd;-inkscape-stroke:none"
     id="path6532"
     d="M 11.749015,1.7952914 10.347156,0.39482903 c -0.175459,-0.1754598 -0.4602506,-0.1754598 -0.6357099,0 L 8.4445007,1.663312 3.5474261,6.5602469 C 3.5068828,6.6007913 3.4740266,6.6487458 3.451517,6.701174 L 2.4035126,9.1496414 c -0.073539,0.1694479 -0.034534,0.3658789 0.09451,0.4947827 0.08696,0.086962 0.2009047,0.1319789 0.3179247,0.1319789 0.059977,0 0.119956,-0.012018 0.1783957,-0.035929 L 5.4428109,8.6924669 c 0.052428,-0.02251 0.1005224,-0.055504 0.1409271,-0.095909 l 4.896934,-4.896935 1.268484,-1.2669453 C 11.924476,2.2555401 11.924476,1.97075 11.749015,1.7952903 Z M 3.6718559,8.4719892 4.0812152,7.5183549 4.62549,8.0626298 3.6718559,8.4719892 Z M 5.1592789,7.7493187 4.3946661,6.9847058 8.8057659,2.573466 9.5705187,3.3380788 5.1592789,7.7493187 Z M 9.9946975,2.9137599 9.2300849,2.1491471 10.029231,1.3500012 10.793844,2.1132161 9.9946975,2.9137599 Z" />
  <path
     id="path7086"
     d="M 5,2 1.5,2 1.4996684,10.5 10,10.5 10,7"
     style="fill:none;fill-rule:evenodd;stroke:#838383;stroke-width:1px;stroke-linecap:round;stroke-linejoin:miter;stroke-opacity:1.0"/>
</svg>
