<?xml version="1.0" encoding="UTF-8" standalone="no"?>
<svg
   xmlns:dc="http://purl.org/dc/elements/1.1/"
   xmlns:cc="http://creativecommons.org/ns#"
   xmlns:rdf="http://www.w3.org/1999/02/22-rdf-syntax-ns#"
   xmlns:svg="http://www.w3.org/2000/svg"
   xmlns="http://www.w3.org/2000/svg"
   id="svg6528"
   height="12"
   width="12"
   version="1.1">
  <metadata
     id="metadata6538">
    <rdf:RDF>
      <cc:Work
         rdf:about="">
        <dc:format>image/svg+xml</dc:format>
        <dc:type
           rdf:resource="http://purl.org/dc/dcmitype/StillImage" />
        <dc:title></dc:title>
      </cc:Work>
    </rdf:RDF>
  </metadata>
  <defs
     id="defs6536" />
  <g
     style="opacity:1.0"
     id="g7160">
    <path
       d="M 10.970616,2.3551087 9.5394447,0.92536398 c -0.179128,-0.1791285 -0.469874,-0.1791285 -0.649002,0 L 7.5970066,2.2203698 2.5975388,7.219695 C 2.5561478,7.261087 2.5226048,7.310044 2.4996248,7.3635687 L 1.4297071,9.8632313 c -0.075077,0.1729907 -0.035256,0.3735287 0.096486,0.5051287 0.088779,0.08878 0.2051055,0.134738 0.3245722,0.134738 0.061231,0 0.1224642,-0.01227 0.1821258,-0.03668 l 2.499663,-1.0699201 c 0.053525,-0.02298 0.1026242,-0.056665 0.1438738,-0.097914 L 9.6757527,4.2992585 10.970759,3.0058226 C 11.149745,2.8249815 11.149745,2.5342367 10.970616,2.3551083 Z M 2.7245703,9.17141 3.1424889,8.1978361 3.698144,8.7534913 2.7245703,9.17141 Z M 4.243094,8.4336292 3.4624938,7.6530289 7.9658256,3.1495541 8.7465687,3.9301544 4.243094,8.4336292 Z m 4.9365227,-4.9366658 -0.7806,-0.7806003 0.815856,-0.8158552 0.780599,0.779173 -0.815855,0.8172825 z"
       id="path6532"
       style="color:#000000;fill:#838383;fill-opacity:1.0;fill-rule:evenodd;-inkscape-stroke:none" />
    <path
       style="opacity:1;fill:none;fill-opacity:1.0;stroke:#838383;stroke-width:1;stroke-linecap:round;stroke-linejoin:round;stroke-miterlimit:4;stroke-dasharray:none;stroke-dashoffset:63;stroke-opacity:1"
       d="M 3.1716102,2.6885593 8.8877119,8.8813559"
       id="path7156" />
    <circle
       style="opacity:1;fill:none;fill-opacity:0.50196078;stroke:#838383;stroke-width:1;stroke-linecap:round;stroke-linejoin:round;stroke-miterlimit:4;stroke-dasharray:none;stroke-dashoffset:63;stroke-opacity:1"
       id="path7158"
       cx="5.9064341"
       cy="5.9813395"
       r="5" />
  </g>
</svg>
