<?xml version="1.0" encoding="UTF-8" standalone="no"?>
<!-- Generator: Adobe Illustrator 15.1.0, SVG Export Plug-In . SVG Version: 6.00 Build 0)  -->

<svg
   version="1.1"
   id="Layer_1"
   x="0px"
   y="0px"
   width="12"
   height="12"
   viewBox="0 0 12 12"
   enable-background="new 0 0 32 32"
   xml:space="preserve"
   xmlns="http://www.w3.org/2000/svg"
   xmlns:svg="http://www.w3.org/2000/svg"
   xmlns:rdf="http://www.w3.org/1999/02/22-rdf-syntax-ns#"
   xmlns:cc="http://creativecommons.org/ns#"
   xmlns:dc="http://purl.org/dc/elements/1.1/"><metadata
     id="metadata7"><rdf:RDF><cc:Work
         rdf:about=""><dc:format>image/svg+xml</dc:format><dc:type
           rdf:resource="http://purl.org/dc/dcmitype/StillImage" /></cc:Work></rdf:RDF></metadata><defs
     id="defs5"><marker
       style="overflow:visible"
       id="Arrow2Mend-5"
       refX="0"
       refY="0"
       orient="auto"><path
         transform="scale(-0.6,-0.6)"
         d="M 8.7185878,4.0337352 -2.2072895,0.01601326 8.7185884,-4.0017078 c -1.7454984,2.3720609 -1.7354408,5.6174519 -6e-7,8.035443 z"
         style="font-size:12px;fill-rule:evenodd;stroke-width:0.625;stroke-linejoin:round"
         id="path45132-1" /></marker><marker
       style="overflow:visible"
       id="DotM-00"
       refX="0"
       refY="0"
       orient="auto"><path
         transform="matrix(0.4,0,0,0.4,2.96,0.4)"
         style="fill-rule:evenodd;stroke:#000000;stroke-width:1pt;marker-start:none;marker-end:none"
         d="m -2.5,-1 c 0,2.76 -2.24,5 -5,5 -2.76,0 -5,-2.24 -5,-5 0,-2.76 2.24,-5 5,-5 2.76,0 5,2.24 5,5 z"
         id="path14329-2" /></marker><marker
       style="overflow:visible"
       id="Arrow2Mend-07"
       refX="0"
       refY="0"
       orient="auto"><path
         transform="scale(-0.6,-0.6)"
         d="M 8.7185878,4.0337352 -2.2072895,0.01601326 8.7185884,-4.0017078 c -1.7454984,2.3720609 -1.7354408,5.6174519 -6e-7,8.035443 z"
         style="font-size:12px;fill-rule:evenodd;stroke-width:0.625;stroke-linejoin:round"
         id="path45132-31" /></marker><marker
       style="overflow:visible"
       id="DotM-0"
       refX="0"
       refY="0"
       orient="auto"><path
         transform="matrix(0.4,0,0,0.4,2.96,0.4)"
         style="fill-rule:evenodd;stroke:#000000;stroke-width:1pt;marker-start:none;marker-end:none"
         d="m -2.5,-1 c 0,2.76 -2.24,5 -5,5 -2.76,0 -5,-2.24 -5,-5 0,-2.76 2.24,-5 5,-5 2.76,0 5,2.24 5,5 z"
         id="path14329-94" /></marker><marker
       style="overflow:visible"
       id="Arrow2Mend-6"
       refX="0"
       refY="0"
       orient="auto"><path
         transform="scale(-0.6,-0.6)"
         d="M 8.7185878,4.0337352 -2.2072895,0.01601326 8.7185884,-4.0017078 c -1.7454984,2.3720609 -1.7354408,5.6174519 -6e-7,8.035443 z"
         style="font-size:12px;fill-rule:evenodd;stroke-width:0.625;stroke-linejoin:round"
         id="path45132-8" /></marker><marker
       style="overflow:visible"
       id="DotM-8"
       refX="0"
       refY="0"
       orient="auto"><path
         transform="matrix(0.4,0,0,0.4,2.96,0.4)"
         style="fill-rule:evenodd;stroke:#000000;stroke-width:1pt;marker-start:none;marker-end:none"
         d="m -2.5,-1 c 0,2.76 -2.24,5 -5,5 -2.76,0 -5,-2.24 -5,-5 0,-2.76 2.24,-5 5,-5 2.76,0 5,2.24 5,5 z"
         id="path14329-91" /></marker><clipPath
       clipPathUnits="userSpaceOnUse"
       id="clipPath3169-2"><rect
         style="fill:#f5f5f4;fill-opacity:1;stroke:#888a85;stroke-width:2;stroke-miterlimit:4;stroke-dasharray:none;stroke-dashoffset:0;stroke-opacity:1"
         id="rect3171-7"
         width="748.77557"
         height="428.80975"
         x="48.992397"
         y="105.34417" /></clipPath><clipPath
       id="clipPath22-7"
       clipPathUnits="userSpaceOnUse"><path
         id="path24-2"
         d="M 0,792 1224,792 1224,0 0,0 0,792 Z" /></clipPath><clipPath
       clipPathUnits="userSpaceOnUse"
       id="clipPath6483-7"><rect
         style="fill:#ffffff;fill-opacity:1;stroke:none"
         id="rect6485-5"
         width="548"
         height="280"
         x="67.578148"
         y="187.65627" /></clipPath><clipPath
       id="clipPath10152"
       clipPathUnits="userSpaceOnUse"><rect
         y="754.14667"
         x="-37.134048"
         height="140.17392"
         width="718.58722"
         id="rect10154"
         style="fill:#555753;fill-opacity:1;stroke:#555753;stroke-width:1.83322382;stroke-miterlimit:4;stroke-dasharray:none;stroke-dashoffset:0;stroke-opacity:1" /></clipPath><marker
       style="overflow:visible"
       id="Arrow2Mend-0"
       refX="0"
       refY="0"
       orient="auto"><path
         transform="scale(-0.6,-0.6)"
         d="M 8.7185878,4.0337352 -2.2072895,0.01601326 8.7185884,-4.0017078 c -1.7454984,2.3720609 -1.7354408,5.6174519 -6e-7,8.035443 z"
         style="font-size:12px;fill-rule:evenodd;stroke-width:0.625;stroke-linejoin:round"
         id="path45132-982" /></marker><marker
       style="overflow:visible"
       id="DotM-2"
       refX="0"
       refY="0"
       orient="auto"><path
         transform="matrix(0.4,0,0,0.4,2.96,0.4)"
         style="fill-rule:evenodd;stroke:#000000;stroke-width:1pt;marker-start:none;marker-end:none"
         d="m -2.5,-1 c 0,2.76 -2.24,5 -5,5 -2.76,0 -5,-2.24 -5,-5 0,-2.76 2.24,-5 5,-5 2.76,0 5,2.24 5,5 z"
         id="path14329-95" /></marker><marker
       style="overflow:visible"
       id="Arrow2Mend-2"
       refX="0"
       refY="0"
       orient="auto"><path
         transform="scale(-0.6,-0.6)"
         d="M 8.7185878,4.0337352 -2.2072895,0.01601326 8.7185884,-4.0017078 c -1.7454984,2.3720609 -1.7354408,5.6174519 -6e-7,8.035443 z"
         style="font-size:12px;fill-rule:evenodd;stroke-width:0.625;stroke-linejoin:round"
         id="path45132-98" /></marker><marker
       style="overflow:visible"
       id="DotM-5"
       refX="0"
       refY="0"
       orient="auto"><path
         transform="matrix(0.4,0,0,0.4,2.96,0.4)"
         style="fill-rule:evenodd;stroke:#000000;stroke-width:1pt;marker-start:none;marker-end:none"
         d="m -2.5,-1 c 0,2.76 -2.24,5 -5,5 -2.76,0 -5,-2.24 -5,-5 0,-2.76 2.24,-5 5,-5 2.76,0 5,2.24 5,5 z"
         id="path14329-1" /></marker><marker
       style="overflow:visible"
       id="Arrow2Mend-75"
       refX="0"
       refY="0"
       orient="auto"><path
         transform="scale(-0.6,-0.6)"
         d="M 8.7185878,4.0337352 -2.2072895,0.01601326 8.7185884,-4.0017078 c -1.7454984,2.3720609 -1.7354408,5.6174519 -6e-7,8.035443 z"
         style="font-size:12px;fill-rule:evenodd;stroke-width:0.625;stroke-linejoin:round"
         id="path45132-9" /></marker><marker
       style="overflow:visible"
       id="DotM-466"
       refX="0"
       refY="0"
       orient="auto"><path
         transform="matrix(0.4,0,0,0.4,2.96,0.4)"
         style="fill-rule:evenodd;stroke:#000000;stroke-width:1pt;marker-start:none;marker-end:none"
         d="m -2.5,-1 c 0,2.76 -2.24,5 -5,5 -2.76,0 -5,-2.24 -5,-5 0,-2.76 2.24,-5 5,-5 2.76,0 5,2.24 5,5 z"
         id="path14329-32" /></marker><marker
       style="overflow:visible"
       id="marker32938"
       refX="0"
       refY="0"
       orient="auto"><path
         transform="scale(-0.6,-0.6)"
         d="M 8.7185878,4.0337352 -2.2072895,0.01601326 8.7185884,-4.0017078 c -1.7454984,2.3720609 -1.7354408,5.6174519 -6e-7,8.035443 z"
         style="font-size:12px;fill-rule:evenodd;stroke-width:0.625;stroke-linejoin:round"
         id="path32940" /></marker><marker
       style="overflow:visible"
       id="marker32934"
       refX="0"
       refY="0"
       orient="auto"><path
         transform="matrix(0.4,0,0,0.4,2.96,0.4)"
         style="fill-rule:evenodd;stroke:#000000;stroke-width:1pt;marker-start:none;marker-end:none"
         d="m -2.5,-1 c 0,2.76 -2.24,5 -5,5 -2.76,0 -5,-2.24 -5,-5 0,-2.76 2.24,-5 5,-5 2.76,0 5,2.24 5,5 z"
         id="path32936" /></marker><marker
       style="overflow:visible"
       id="Arrow2Mend-7"
       refX="0"
       refY="0"
       orient="auto"><path
         transform="scale(-0.6,-0.6)"
         d="M 8.7185878,4.0337352 -2.2072895,0.01601326 8.7185884,-4.0017078 c -1.7454984,2.3720609 -1.7354408,5.6174519 -6e-7,8.035443 z"
         style="font-size:12px;fill-rule:evenodd;stroke-width:0.625;stroke-linejoin:round"
         id="path45132-2" /></marker><marker
       style="overflow:visible"
       id="DotM-46"
       refX="0"
       refY="0"
       orient="auto"><path
         transform="matrix(0.4,0,0,0.4,2.96,0.4)"
         style="fill-rule:evenodd;stroke:#000000;stroke-width:1pt;marker-start:none;marker-end:none"
         d="m -2.5,-1 c 0,2.76 -2.24,5 -5,5 -2.76,0 -5,-2.24 -5,-5 0,-2.76 2.24,-5 5,-5 2.76,0 5,2.24 5,5 z"
         id="path14329-9" /></marker><marker
       style="overflow:visible"
       id="Arrow2Mend-3"
       refX="0"
       refY="0"
       orient="auto"><path
         transform="scale(-0.6,-0.6)"
         d="M 8.7185878,4.0337352 -2.2072895,0.01601326 8.7185884,-4.0017078 c -1.7454984,2.3720609 -1.7354408,5.6174519 -6e-7,8.035443 z"
         style="font-size:12px;fill-rule:evenodd;stroke-width:0.625;stroke-linejoin:round"
         id="path45132-3" /></marker><marker
       style="overflow:visible"
       id="DotM-42"
       refX="0"
       refY="0"
       orient="auto"><path
         transform="matrix(0.4,0,0,0.4,2.96,0.4)"
         style="fill-rule:evenodd;stroke:#000000;stroke-width:1pt;marker-start:none;marker-end:none"
         d="m -2.5,-1 c 0,2.76 -2.24,5 -5,5 -2.76,0 -5,-2.24 -5,-5 0,-2.76 2.24,-5 5,-5 2.76,0 5,2.24 5,5 z"
         id="path14329-3" /></marker><marker
       style="overflow:visible"
       id="Arrow2Mend-9"
       refX="0"
       refY="0"
       orient="auto"><path
         transform="scale(-0.6,-0.6)"
         d="M 8.7185878,4.0337352 -2.2072895,0.01601326 8.7185884,-4.0017078 c -1.7454984,2.3720609 -1.7354408,5.6174519 -6e-7,8.035443 z"
         style="font-size:12px;fill-rule:evenodd;stroke-width:0.625;stroke-linejoin:round"
         id="path45132-4" /></marker><marker
       style="overflow:visible"
       id="DotM-4"
       refX="0"
       refY="0"
       orient="auto"><path
         transform="matrix(0.4,0,0,0.4,2.96,0.4)"
         style="fill-rule:evenodd;stroke:#000000;stroke-width:1pt;marker-start:none;marker-end:none"
         d="m -2.5,-1 c 0,2.76 -2.24,5 -5,5 -2.76,0 -5,-2.24 -5,-5 0,-2.76 2.24,-5 5,-5 2.76,0 5,2.24 5,5 z"
         id="path14329-8" /></marker><clipPath
       id="clipPath6483-5"
       clipPathUnits="userSpaceOnUse"><rect
         y="187.65627"
         x="67.578148"
         height="280"
         width="548"
         id="rect6485-2"
         style="fill:#ffffff;fill-opacity:1;stroke:none" /></clipPath><clipPath
       id="clipPath6483-1-7-3-0"
       clipPathUnits="userSpaceOnUse"><rect
         y="187.65627"
         x="67.578148"
         height="280"
         width="548"
         id="rect6485-6-4-5-6"
         style="fill:#ffffff;fill-opacity:1;stroke:none" /></clipPath><marker
       style="overflow:visible"
       id="Arrow2Lend-0"
       refX="0"
       refY="0"
       orient="auto"><path
         transform="matrix(-1.1,0,0,-1.1,-1.1,0)"
         d="M 8.7185878,4.0337352 -2.2072895,0.01601326 8.7185884,-4.0017078 c -1.7454984,2.3720609 -1.7354408,5.6174519 -6e-7,8.035443 z"
         style="font-size:12px;fill-rule:evenodd;stroke-width:0.625;stroke-linejoin:round"
         id="path45126-6" /></marker><clipPath
       id="clipPath6483-1-7-3-9"
       clipPathUnits="userSpaceOnUse"><rect
         y="187.65627"
         x="67.578148"
         height="280"
         width="548"
         id="rect6485-6-4-5-8"
         style="fill:#ffffff;fill-opacity:1;stroke:none" /></clipPath><clipPath
       id="clipPath6483-1-7-3"
       clipPathUnits="userSpaceOnUse"><rect
         y="187.65627"
         x="67.578148"
         height="280"
         width="548"
         id="rect6485-6-4-5"
         style="fill:#ffffff;fill-opacity:1;stroke:none" /></clipPath><clipPath
       id="clipPath6483-1-7"
       clipPathUnits="userSpaceOnUse"><rect
         y="187.65627"
         x="67.578148"
         height="280"
         width="548"
         id="rect6485-6-4"
         style="fill:#ffffff;fill-opacity:1;stroke:none" /></clipPath><clipPath
       id="clipPath6483-1"
       clipPathUnits="userSpaceOnUse"><rect
         y="187.65627"
         x="67.578148"
         height="280"
         width="548"
         id="rect6485-6"
         style="fill:#ffffff;fill-opacity:1;stroke:none" /></clipPath><clipPath
       id="clipPath6483"
       clipPathUnits="userSpaceOnUse"><rect
         y="187.65627"
         x="67.578148"
         height="280"
         width="548"
         id="rect6485"
         style="fill:#ffffff;fill-opacity:1;stroke:none" /></clipPath><clipPath
       clipPathUnits="userSpaceOnUse"
       id="clipPath22"><path
         d="M 0,792 1224,792 1224,0 0,0 0,792 Z"
         id="path24" /></clipPath><clipPath
       id="clipPath3169"
       clipPathUnits="userSpaceOnUse"><rect
         y="105.34417"
         x="48.992397"
         height="428.80975"
         width="748.77557"
         id="rect3171"
         style="fill:#f5f5f4;fill-opacity:1;stroke:#888a85;stroke-width:2;stroke-miterlimit:4;stroke-dasharray:none;stroke-dashoffset:0;stroke-opacity:1" /></clipPath><marker
       style="overflow:visible"
       id="Arrow2Lend"
       refX="0"
       refY="0"
       orient="auto"><path
         transform="matrix(-1.1,0,0,-1.1,-1.1,0)"
         d="M 8.7185878,4.0337352 -2.2072895,0.01601326 8.7185884,-4.0017078 c -1.7454984,2.3720609 -1.7354408,5.6174519 -6e-7,8.035443 z"
         style="font-size:12px;fill-rule:evenodd;stroke-width:0.625;stroke-linejoin:round"
         id="path45126" /></marker><marker
       style="overflow:visible"
       id="Arrow2Mend"
       refX="0"
       refY="0"
       orient="auto"><path
         transform="scale(-0.6,-0.6)"
         d="M 8.7185878,4.0337352 -2.2072895,0.01601326 8.7185884,-4.0017078 c -1.7454984,2.3720609 -1.7354408,5.6174519 -6e-7,8.035443 z"
         style="font-size:12px;fill-rule:evenodd;stroke-width:0.625;stroke-linejoin:round"
         id="path45132" /></marker><marker
       style="overflow:visible"
       id="DotL"
       refX="0"
       refY="0"
       orient="auto"><path
         transform="matrix(0.8,0,0,0.8,5.92,0.8)"
         style="fill-rule:evenodd;stroke:#000000;stroke-width:1pt;marker-start:none;marker-end:none"
         d="m -2.5,-1 c 0,2.76 -2.24,5 -5,5 -2.76,0 -5,-2.24 -5,-5 0,-2.76 2.24,-5 5,-5 2.76,0 5,2.24 5,5 z"
         id="path14326" /></marker><marker
       style="overflow:visible"
       id="DotM"
       refX="0"
       refY="0"
       orient="auto"><path
         transform="matrix(0.4,0,0,0.4,2.96,0.4)"
         style="fill-rule:evenodd;stroke:#000000;stroke-width:1pt;marker-start:none;marker-end:none"
         d="m -2.5,-1 c 0,2.76 -2.24,5 -5,5 -2.76,0 -5,-2.24 -5,-5 0,-2.76 2.24,-5 5,-5 2.76,0 5,2.24 5,5 z"
         id="path14329" /></marker></defs><path
     style="fill:#838383;fill-opacity:1;stroke:none;stroke-width:1.1"
     d="M 5.2397267,0.5 C 5.0575893,0.5 4.910959,0.64663006 4.910959,0.82876739 V 1.6643839 C 4.4856893,1.7699554 4.0763696,1.9398708 3.6917809,2.1712334 L 3.1027398,1.5821921 c -0.1287903,-0.1287903 -0.3369631,-0.1287903 -0.4657533,0 L 1.5684931,2.650685 c -0.1287902,0.1287908 -0.1287902,0.336963 0,0.4657539 L 2.1575342,3.7054803 C 1.9279826,4.0889453 1.7688105,4.5029063 1.6643837,4.9246576 H 0.82876723 C 0.64663022,4.9246576 0.5,5.0712876 0.5,5.2534237 v 1.5068496 c 0,0.1821374 0.14663022,0.3287674 0.32876723,0.3287674 H 1.650685 C 1.7562388,7.5146894 1.9259776,7.9233066 2.1575342,8.3082185 L 1.5684931,8.89726 c -0.1287902,0.1287897 -0.1287902,0.3369631 0,0.4657545 l 1.0684934,1.0684925 c 0.1287902,0.128791 0.336963,0.128791 0.4657533,0 L 3.6917809,9.8424645 C 4.0780503,10.075431 4.4856146,10.230006 4.910959,10.335617 v 0.835616 C 4.910959,11.35337 5.0575893,11.5 5.2397267,11.5 h 1.5068497 c 0.182136,0 0.328766,-0.14663 0.328766,-0.328767 v -0.835616 c 0.4262534,-0.10505 0.8336574,-0.261859 1.219178,-0.4931525 L 8.883562,10.431507 c 0.1287908,0.128791 0.336963,0.128791 0.4657538,0 L 10.417809,9.3630145 c 0.128789,-0.1287914 0.128789,-0.3369648 0,-0.4657545 L 9.8287671,8.3082185 C 10.060611,7.9240029 10.229802,7.5121062 10.335617,7.0890409 h 0.835617 C 11.35337,7.0890407 11.5,6.9424107 11.5,6.7602733 V 5.2534249 C 11.5,5.0712876 11.35337,4.9246576 11.171234,4.9246576 H 10.335617 C 10.230681,4.5019542 10.05798,4.0880816 9.8287671,3.7054803 L 10.417809,3.1164389 c 0.128789,-0.1287909 0.128789,-0.3369631 0,-0.4657539 L 9.3493158,1.5821921 c -0.1287908,-0.1287903 -0.336963,-0.1287903 -0.4657538,0 L 8.2945204,2.1712334 C 7.9095759,1.9401799 7.4989601,1.7692083 7.0753424,1.6643839 V 0.82876739 C 7.0753424,0.64663006 6.9287124,0.5 6.7465764,0.5 Z m 0.6986295,3.4246576 c 0.5326902,-0.014142 1.0759354,0.166 1.493151,0.5616435 0.8344301,0.7912871 0.873478,2.1107753 0.082192,2.9452058 C 6.7243649,8.2638772 5.4036157,8.3001209 4.5684931,7.5136984 3.7340631,6.7224113 3.6950148,5.4029233 4.4863016,4.5684928 4.8819454,4.1512779 5.4056664,3.9387947 5.9383562,3.9246576 Z"
     id="rect3381-0" /></svg>
