<?xml version="1.0" encoding="UTF-8" standalone="no"?>
<svg
   xmlns:dc="http://purl.org/dc/elements/1.1/"
   xmlns:cc="http://creativecommons.org/ns#"
   xmlns:rdf="http://www.w3.org/1999/02/22-rdf-syntax-ns#"
   xmlns:svg="http://www.w3.org/2000/svg"
   xmlns="http://www.w3.org/2000/svg"
   height="100%"
   width="100%"
   id="svg2"
   viewBox="0 0 64 64"
   version="1.0">
  <metadata
     id="metadata56">
    <rdf:RDF>
      <cc:Work
         rdf:about="">
        <dc:format>image/svg+xml</dc:format>
        <dc:type
           rdf:resource="http://purl.org/dc/dcmitype/StillImage" />
        <dc:creator>
          <cc:Agent>
            <dc:title>$committer</dc:title>
          </cc:Agent>
        </dc:creator>
        <dc:title></dc:title>
        <dc:date>2016-02-26</dc:date>
        <dc:relation>http://www.freecad.org/wiki/index.php?title=Artwork</dc:relation>
        <dc:publisher>
          <cc:Agent>
            <dc:title>FreeCAD</dc:title>
          </cc:Agent>
        </dc:publisher>
        <dc:identifier>FreeCAD/src/Mod/Points/Gui/Resources/icons/PointsWorkbench.svg</dc:identifier>
        <dc:rights>
          <cc:Agent>
            <dc:title>FreeCAD LGPL2+</dc:title>
          </cc:Agent>
        </dc:rights>
        <cc:license>https://www.gnu.org/copyleft/lesser.html</cc:license>
        <dc:contributor>
          <cc:Agent>
            <dc:title>[agryson] Alexander Gryson</dc:title>
          </cc:Agent>
        </dc:contributor>
      </cc:Work>
    </rdf:RDF>
  </metadata>
  <defs
     id="defs54" />
  <path
     transform="translate(15,3)"
     d="m -4,8 a 4,4 0 1 1 -8,0 4,4 0 1 1 8,0 z"
     id="path3035"
     style="fill:#d3d7cf;fill-opacity:1;stroke:#2e3436;stroke-width:2;stroke-linecap:round;stroke-linejoin:miter;stroke-miterlimit:4;stroke-opacity:1;stroke-dasharray:none;stroke-dashoffset:0.6" />
  <path
     transform="translate(33,-1)"
     d="m -4,8 a 4,4 0 1 1 -8,0 4,4 0 1 1 8,0 z"
     id="path3035-1"
     style="fill:#d3d7cf;fill-opacity:1;stroke:#2e3436;stroke-width:2;stroke-linecap:round;stroke-linejoin:miter;stroke-miterlimit:4;stroke-opacity:1;stroke-dasharray:none;stroke-dashoffset:0.6" />
  <path
     transform="translate(59,-1)"
     d="m -4,8 a 4,4 0 1 1 -8,0 4,4 0 1 1 8,0 z"
     id="path3035-2"
     style="fill:#d3d7cf;fill-opacity:1;stroke:#2e3436;stroke-width:2;stroke-linecap:round;stroke-linejoin:miter;stroke-miterlimit:4;stroke-opacity:1;stroke-dasharray:none;stroke-dashoffset:0.6" />
  <path
     transform="translate(49,11)"
     d="m -4,8 a 4,4 0 1 1 -8,0 4,4 0 1 1 8,0 z"
     id="path3035-7"
     style="fill:#d3d7cf;fill-opacity:1;stroke:#2e3436;stroke-width:2;stroke-linecap:round;stroke-linejoin:miter;stroke-miterlimit:4;stroke-opacity:1;stroke-dasharray:none;stroke-dashoffset:0.6" />
  <path
     transform="translate(61,23)"
     d="m -4,8 a 4,4 0 1 1 -8,0 4,4 0 1 1 8,0 z"
     id="path3035-0"
     style="fill:#d3d7cf;fill-opacity:1;stroke:#2e3436;stroke-width:2;stroke-linecap:round;stroke-linejoin:miter;stroke-miterlimit:4;stroke-opacity:1;stroke-dasharray:none;stroke-dashoffset:0.6" />
  <path
     transform="translate(23,13)"
     d="m -4,8 a 4,4 0 1 1 -8,0 4,4 0 1 1 8,0 z"
     id="path3035-9"
     style="fill:#d3d7cf;fill-opacity:1;stroke:#2e3436;stroke-width:2;stroke-linecap:round;stroke-linejoin:miter;stroke-miterlimit:4;stroke-opacity:1;stroke-dasharray:none;stroke-dashoffset:0.6" />
  <path
     transform="translate(29,27)"
     d="m -4,8 a 4,4 0 1 1 -8,0 4,4 0 1 1 8,0 z"
     id="path3035-3"
     style="fill:#d3d7cf;fill-opacity:1;stroke:#2e3436;stroke-width:2;stroke-linecap:round;stroke-linejoin:miter;stroke-miterlimit:4;stroke-opacity:1;stroke-dasharray:none;stroke-dashoffset:0.6" />
  <path
     transform="translate(25,43)"
     d="m -4,8 a 4,4 0 1 1 -8,0 4,4 0 1 1 8,0 z"
     id="path3035-6"
     style="fill:#d3d7cf;fill-opacity:1;stroke:#2e3436;stroke-width:2;stroke-linecap:round;stroke-linejoin:miter;stroke-miterlimit:4;stroke-opacity:1;stroke-dasharray:none;stroke-dashoffset:0.6" />
  <path
     transform="translate(49,43)"
     d="m -4,8 a 4,4 0 1 1 -8,0 4,4 0 1 1 8,0 z"
     id="path3035-06"
     style="fill:#d3d7cf;fill-opacity:1;stroke:#2e3436;stroke-width:2;stroke-linecap:round;stroke-linejoin:miter;stroke-miterlimit:4;stroke-opacity:1;stroke-dasharray:none;stroke-dashoffset:0.6" />
  <path
     transform="translate(45,27)"
     d="m -4,8 a 4,4 0 1 1 -8,0 4,4 0 1 1 8,0 z"
     id="path3035-26"
     style="fill:#d3d7cf;fill-opacity:1;stroke:#2e3436;stroke-width:2;stroke-linecap:round;stroke-linejoin:miter;stroke-miterlimit:4;stroke-opacity:1;stroke-dasharray:none;stroke-dashoffset:0.6" />
  <path
     transform="translate(63,47)"
     d="m -4,8 a 4,4 0 1 1 -8,0 4,4 0 1 1 8,0 z"
     id="path3035-18"
     style="fill:#d3d7cf;fill-opacity:1;stroke:#2e3436;stroke-width:2;stroke-linecap:round;stroke-linejoin:miter;stroke-miterlimit:4;stroke-opacity:1;stroke-dasharray:none;stroke-dashoffset:0.6" />
</svg>
