<svg xmlns:rdf="http://www.w3.org/1999/02/22-rdf-syntax-ns#" xmlns="http://www.w3.org/2000/svg" version="1.0" xmlns:cc="http://creativecommons.org/ns#" xmlns:xlink="http://www.w3.org/1999/xlink" viewBox="0 0 64 64" xmlns:dc="http://purl.org/dc/elements/1.1/">
 <g transform="translate(0,16)">
  <g stroke-linejoin="round" fill-rule="evenodd" transform="translate(-0.212 1.712)" stroke="#2e3436" stroke-linecap="square" stroke-width=".2">
   <rect height="3.424" style="color:#000000" ry="1.4628" width="4.424" y="27.451" x="52.875"/>
   <rect height="3.424" style="color:#000000" ry="1.4628" width="4.424" y="4.576" x="4.125"/>
   <rect height="3.424" style="color:#000000" ry="1.4628" width="4.424" y="-6.174" x="11"/>
   <rect height="3.424" style="color:#000000" ry="1.4628" width="4.424" y="1.701" x="17.875"/>
   <rect height="3.424" style="color:#000000" ry="1.4628" width="4.424" y="1.076" x="41.125"/>
   <rect height="3.424" style="color:#000000" ry="1.4628" width="4.424" y="-2.424" x="52.625"/>
   <rect height="3.424" style="color:#000000" ry="1.4628" width="4.424" y="-13.299" x="55.875"/>
   <rect height="3.424" style="color:#000000" ry="1.4628" width="4.424" y="-9.674" x="48.5"/>
   <rect height="3.424" style="color:#000000" ry="1.4628" width="4.424" y="-6.299" x="33.625"/>
   <rect height="3.424" style="color:#000000" ry="1.4628" width="4.424" y="-13.549" x="26.5"/>
   <rect height="3.424" style="color:#000000" ry="1.4628" width="4.424" y="15.826" x="45"/>
   <rect height="3.424" style="color:#000000" ry="1.4628" width="4.424" y="8.826" x="41.25"/>
   <rect height="3.424" style="color:#000000" ry="1.4628" width="4.424" y="12.576" x="30"/>
   <rect height="3.424" style="color:#000000" ry="1.4628" width="4.424" y="16.201" x="15"/>
   <rect height="3.424" style="color:#000000" ry="1.4628" width="4.424" y="8.576" x="18.125"/>
   <rect height="3.424" style="color:#000000" ry="1.4628" width="4.424" y="31.576" x="22.75"/>
   <rect height="3.424" style="color:#000000" ry="1.4628" width="4.424" y="27.451" x="15.25"/>
   <rect height="3.424" style="color:#000000" ry="1.4628" width="4.424" y="20.076" x="23.125"/>
   <rect height="3.424" style="color:#000000" ry="1.4628" width="4.424" y="23.951" x="37.5"/>
   <rect height="3.424" style="color:#000000" ry="1.4628" width="4.424" y="38.576" x="15"/>
   <rect height="3.424" style="color:#000000" ry="1.4628" width="4.424" y="38.701" x="45"/>
   <rect height="3.424" style="color:#000000" ry="1.4628" width="4.424" y="34.951" x="37.625"/>
  </g>
 </g>
</svg>
