<?xml version="1.0" encoding="UTF-8" standalone="no"?>
<svg
   xmlns:dc="http://purl.org/dc/elements/1.1/"
   xmlns:cc="http://creativecommons.org/ns#"
   xmlns:rdf="http://www.w3.org/1999/02/22-rdf-syntax-ns#"
   xmlns:svg="http://www.w3.org/2000/svg"
   xmlns="http://www.w3.org/2000/svg"
   xmlns:xlink="http://www.w3.org/1999/xlink"
   width="64px"
   height="64px"
   id="svg2985"
   version="1.1">
  <title
     id="title889">Points_Structure</title>
  <defs
     id="defs2987">
    <linearGradient
       id="linearGradient4387">
      <stop
         style="stop-color:#71b2f8;stop-opacity:1;"
         offset="0"
         id="stop4389" />
      <stop
         style="stop-color:#002795;stop-opacity:1;"
         offset="1"
         id="stop4391" />
    </linearGradient>
    <linearGradient
       id="linearGradient6321">
      <stop
         style="stop-color:#71b2f8;stop-opacity:1;"
         offset="0"
         id="stop6323" />
      <stop
         style="stop-color:#002795;stop-opacity:1;"
         offset="1"
         id="stop6325" />
    </linearGradient>
    <radialGradient
       xlink:href="#linearGradient3377"
       id="radialGradient3692"
       cx="45.883327"
       cy="28.869568"
       fx="45.883327"
       fy="28.869568"
       r="19.467436"
       gradientUnits="userSpaceOnUse"
       gradientTransform="translate(-0.23443224,0.23443198)" />
    <linearGradient
       id="linearGradient3377">
      <stop
         id="stop3379"
         offset="0"
         style="stop-color:#faff2b;stop-opacity:1;" />
      <stop
         id="stop3381"
         offset="1"
         style="stop-color:#ffaa00;stop-opacity:1;" />
    </linearGradient>
    <linearGradient
       id="linearGradient3377-3">
      <stop
         id="stop3379-8"
         offset="0"
         style="stop-color:#faff2b;stop-opacity:1;" />
      <stop
         id="stop3381-3"
         offset="1"
         style="stop-color:#ffaa00;stop-opacity:1;" />
    </linearGradient>
    <radialGradient
       xlink:href="#linearGradient3377-3"
       id="radialGradient6412"
       gradientUnits="userSpaceOnUse"
       gradientTransform="matrix(0.67067175,0,0,0.64145918,-63.380792,0.83845403)"
       cx="45.883327"
       cy="28.869568"
       fx="45.883327"
       fy="28.869568"
       r="19.467436" />
    <linearGradient
       id="linearGradient3036">
      <stop
         id="stop3038"
         offset="0"
         style="stop-color:#ef2929;stop-opacity:1" />
      <stop
         id="stop3040"
         offset="1"
         style="stop-color:#a40000;stop-opacity:1" />
    </linearGradient>
  </defs>
  <metadata
     id="metadata2990">
    <rdf:RDF>
      <cc:Work
         rdf:about="">
        <dc:format>image/svg+xml</dc:format>
        <dc:type
           rdf:resource="http://purl.org/dc/dcmitype/StillImage" />
        <dc:title>Points_Structure</dc:title>
        <dc:creator>
          <cc:Agent>
            <dc:title>[bitacovir]</dc:title>
          </cc:Agent>
        </dc:creator>
        <dc:title>Part_Shape_from_Mesh</dc:title>
        <dc:date>2020-11-21</dc:date>
        <dc:relation>http://www.freecad.org/wiki/index.php?title=Artwork</dc:relation>
        <dc:publisher>
          <cc:Agent>
            <dc:title>FreeCAD</dc:title>
          </cc:Agent>
        </dc:publisher>
        <dc:identifier />
        <dc:rights>
          <cc:Agent>
            <dc:title>FreeCAD LGPL2+</dc:title>
          </cc:Agent>
        </dc:rights>
        <cc:license>https://www.gnu.org/copyleft/lesser.html</cc:license>
        <dc:contributor>
          <cc:Agent>
            <dc:title>Based on  Alexander Gryson's work</dc:title>
          </cc:Agent>
        </dc:contributor>
      </cc:Work>
    </rdf:RDF>
  </metadata>
  <g
     id="layer1">
    <path
       style="fill:#d3d7cf;fill-opacity:1;stroke:#2e3436;stroke-width:2;stroke-linecap:round;stroke-linejoin:miter;stroke-miterlimit:4;stroke-dasharray:none;stroke-dashoffset:0.6;stroke-opacity:1"
       id="path3035"
       d="m 15,11 a 4,4 0 1 1 -8,0 4,4 0 1 1 8,0 z" />
    <path
       style="fill:#d3d7cf;fill-opacity:1;stroke:#2e3436;stroke-width:2;stroke-linecap:round;stroke-linejoin:miter;stroke-miterlimit:4;stroke-dasharray:none;stroke-dashoffset:0.6;stroke-opacity:1"
       id="path3035-1"
       d="m 29,11 a 4,4 0 1 1 -8,0 4,4 0 1 1 8,0 z" />
    <path
       style="fill:#d3d7cf;fill-opacity:1;stroke:#2e3436;stroke-width:2;stroke-linecap:round;stroke-linejoin:miter;stroke-miterlimit:4;stroke-dasharray:none;stroke-dashoffset:0.6;stroke-opacity:1"
       id="path3035-2"
       d="m 43,11 a 4,4 0 1 1 -8,0 4,4 0 1 1 8,0 z" />
    <path
       style="fill:#d3d7cf;fill-opacity:1;stroke:#2e3436;stroke-width:2;stroke-linecap:round;stroke-linejoin:miter;stroke-miterlimit:4;stroke-dasharray:none;stroke-dashoffset:0.6;stroke-opacity:1"
       id="path3035-7"
       d="m 57,11 a 4,4 0 1 1 -8,0 4,4 0 1 1 8,0 z" />
    <path
       style="fill:#d3d7cf;fill-opacity:1;stroke:#2e3436;stroke-width:2;stroke-linecap:round;stroke-linejoin:miter;stroke-miterlimit:4;stroke-dasharray:none;stroke-dashoffset:0.6;stroke-opacity:1"
       id="path3035-0"
       d="m 57,25 a 4,4 0 1 1 -8,0 4,4 0 1 1 8,0 z" />
    <path
       style="fill:#d3d7cf;fill-opacity:1;stroke:#2e3436;stroke-width:2;stroke-linecap:round;stroke-linejoin:miter;stroke-miterlimit:4;stroke-dasharray:none;stroke-dashoffset:0.6;stroke-opacity:1"
       id="path3035-9"
       d="m 15,25 a 4,4 0 1 1 -8,0 4,4 0 1 1 8,0 z" />
    <path
       style="fill:#d3d7cf;fill-opacity:1;stroke:#2e3436;stroke-width:2;stroke-linecap:round;stroke-linejoin:miter;stroke-miterlimit:4;stroke-dasharray:none;stroke-dashoffset:0.6;stroke-opacity:1"
       id="path3035-3"
       d="m 29,25 a 4,4 0 1 1 -8,0 4,4 0 1 1 8,0 z" />
    <path
       style="fill:#d3d7cf;fill-opacity:1;stroke:#2e3436;stroke-width:2;stroke-linecap:round;stroke-linejoin:miter;stroke-miterlimit:4;stroke-dasharray:none;stroke-dashoffset:0.6;stroke-opacity:1"
       id="path3035-26"
       d="m 43,25 a 4,4 0 1 1 -8,0 4,4 0 1 1 8,0 z" />
    <path
       d="m 15,39 a 4,4 0 1 1 -8,0 4,4 0 1 1 8,0 z"
       id="path3035-6"
       style="fill:#d3d7cf;fill-opacity:1;stroke:#2e3436;stroke-width:2;stroke-linecap:round;stroke-linejoin:miter;stroke-miterlimit:4;stroke-dasharray:none;stroke-dashoffset:0.6;stroke-opacity:1" />
    <path
       d="m 29,39 a 4,4 0 1 1 -8,0 4,4 0 1 1 8,0 z"
       id="path3035-1-2"
       style="fill:#d3d7cf;fill-opacity:1;stroke:#2e3436;stroke-width:2;stroke-linecap:round;stroke-linejoin:miter;stroke-miterlimit:4;stroke-dasharray:none;stroke-dashoffset:0.6;stroke-opacity:1" />
    <path
       d="m 43,39 a 4,4 0 1 1 -8,0 4,4 0 1 1 8,0 z"
       id="path3035-2-3"
       style="fill:#d3d7cf;fill-opacity:1;stroke:#2e3436;stroke-width:2;stroke-linecap:round;stroke-linejoin:miter;stroke-miterlimit:4;stroke-dasharray:none;stroke-dashoffset:0.6;stroke-opacity:1" />
    <path
       d="m 57,39 a 4,4 0 1 1 -8,0 4,4 0 1 1 8,0 z"
       id="path3035-7-0"
       style="fill:#d3d7cf;fill-opacity:1;stroke:#2e3436;stroke-width:2;stroke-linecap:round;stroke-linejoin:miter;stroke-miterlimit:4;stroke-dasharray:none;stroke-dashoffset:0.6;stroke-opacity:1" />
    <path
       d="m 57,53 a 4,4 0 1 1 -8,0 4,4 0 1 1 8,0 z"
       id="path3035-0-3"
       style="fill:#d3d7cf;fill-opacity:1;stroke:#2e3436;stroke-width:2;stroke-linecap:round;stroke-linejoin:miter;stroke-miterlimit:4;stroke-dasharray:none;stroke-dashoffset:0.6;stroke-opacity:1" />
    <path
       d="m 15,53 a 4,4 0 1 1 -8,0 4,4 0 1 1 8,0 z"
       id="path3035-9-3"
       style="fill:#d3d7cf;fill-opacity:1;stroke:#2e3436;stroke-width:2;stroke-linecap:round;stroke-linejoin:miter;stroke-miterlimit:4;stroke-dasharray:none;stroke-dashoffset:0.6;stroke-opacity:1" />
    <path
       d="m 29,53 a 4,4 0 1 1 -8,0 4,4 0 1 1 8,0 z"
       id="path3035-3-4"
       style="fill:#d3d7cf;fill-opacity:1;stroke:#2e3436;stroke-width:2;stroke-linecap:round;stroke-linejoin:miter;stroke-miterlimit:4;stroke-dasharray:none;stroke-dashoffset:0.6;stroke-opacity:1" />
    <path
       d="m 43,53 a 4,4 0 1 1 -8,0 4,4 0 1 1 8,0 z"
       id="path3035-26-7"
       style="fill:#d3d7cf;fill-opacity:1;stroke:#2e3436;stroke-width:2;stroke-linecap:round;stroke-linejoin:miter;stroke-miterlimit:4;stroke-dasharray:none;stroke-dashoffset:0.6;stroke-opacity:1" />
  </g>
</svg>
