<?xml version="1.0" encoding="UTF-8" standalone="no"?>
<svg
   version="1.1"
   width="64"
   height="64"
   id="svg12"
   sodipodi:docname="Sketcher_Pointer_Create_ArcSlot.svg"
   inkscape:version="1.3.2 (091e20e, 2023-11-25, custom)"
   xmlns:inkscape="http://www.inkscape.org/namespaces/inkscape"
   xmlns:sodipodi="http://sodipodi.sourceforge.net/DTD/sodipodi-0.dtd"
   xmlns="http://www.w3.org/2000/svg"
   xmlns:svg="http://www.w3.org/2000/svg">
  <sodipodi:namedview
     id="namedview1"
     pagecolor="#ffffff"
     bordercolor="#000000"
     borderopacity="0.25"
     inkscape:showpageshadow="2"
     inkscape:pageopacity="0.0"
     inkscape:pagecheckerboard="0"
     inkscape:deskcolor="#d1d1d1"
     inkscape:zoom="5.1596698"
     inkscape:cx="23.644924"
     inkscape:cy="40.312657"
     inkscape:window-width="1368"
     inkscape:window-height="842"
     inkscape:window-x="-6"
     inkscape:window-y="-6"
     inkscape:window-maximized="1"
     inkscape:current-layer="g6" />
  <defs
     id="defs16" />
  <g
     style="fill:none;stroke:#cc0000;stroke-width:2"
     id="g6"
     transform="translate(0,2)">
    <circle
       cx="28.25"
       cy="51.561607"
       id="circle4"
       style="stroke-width:2"
       r="4" />
    <circle
       cx="51.698326"
       cy="28"
       id="circle4-1"
       style="fill:none;stroke:#cc0000;stroke-width:2"
       r="4" />
    <circle
       cx="51.698326"
       cy="51.561607"
       id="circle4-1-5"
       style="fill:none;stroke:#cc0000;stroke-width:2"
       r="4" />
    <path
       id="path1-8"
       style="fill:none;stroke-width:2"
       d="M 51.698325,19.863281 C 34.191842,19.863281 20,34.055115 20,51.561606 a 8.3019455,8.3019455 0 0 0 8.301674,8.301675 8.3019455,8.3019455 0 0 0 8.301674,-8.301675 c 0,-8.336423 6.758558,-15.094976 15.094977,-15.094976 A 8.3019455,8.3019455 0 0 0 60,28.164955 8.3019455,8.3019455 0 0 0 51.698325,19.863281 Z" />
  </g>
  <g
     style="stroke:#ffffff;stroke-width:2.5;stroke-linecap:round;stroke-linejoin:miter"
     id="g10">
    <path
       d="m 16,3 v 9 m 0,8 v 9 M 3,16 h 9 m 8,0 h 9"
       id="path8" />
  </g>
</svg>
