<?xml version="1.0" encoding="UTF-8" standalone="no"?>
<svg
   id="svg12"
   width="64"
   height="64"
   version="1.1"
   sodipodi:docname="Sketcher_Pointer_Symbol.svg"
   inkscape:version="1.4 (86a8ad7, 2024-10-11)"
   xmlns:inkscape="http://www.inkscape.org/namespaces/inkscape"
   xmlns:sodipodi="http://sodipodi.sourceforge.net/DTD/sodipodi-0.dtd"
   xmlns:xlink="http://www.w3.org/1999/xlink"
   xmlns="http://www.w3.org/2000/svg"
   xmlns:svg="http://www.w3.org/2000/svg"
   xmlns:rdf="http://www.w3.org/1999/02/22-rdf-syntax-ns#"
   xmlns:cc="http://creativecommons.org/ns#"
   xmlns:dc="http://purl.org/dc/elements/1.1/">
  <sodipodi:namedview
     id="namedview1"
     pagecolor="#ffffff"
     bordercolor="#000000"
     borderopacity="0.25"
     inkscape:showpageshadow="2"
     inkscape:pageopacity="0.0"
     inkscape:pagecheckerboard="0"
     inkscape:deskcolor="#d1d1d1"
     inkscape:zoom="29.1875"
     inkscape:cx="41.438972"
     inkscape:cy="38.149893"
     inkscape:window-width="3840"
     inkscape:window-height="1571"
     inkscape:window-x="-9"
     inkscape:window-y="-9"
     inkscape:window-maximized="1"
     inkscape:current-layer="symbol" />
  <metadata
     id="metadata18">
    <rdf:RDF>
      <cc:Work
         rdf:about="">
        <dc:format>image/svg+xml</dc:format>
        <dc:type
           rdf:resource="http://purl.org/dc/dcmitype/StillImage" />
      </cc:Work>
    </rdf:RDF>
  </metadata>
  <defs
     id="defs16">
    <linearGradient
       gradientTransform="matrix(0.14282526,-0.0824602,0.0824602,0.14282526,-668.50919,156.96263)"
       y2="1734.2576"
       x2="4157.8677"
       y1="1473.5258"
       x1="4115.4229"
       gradientUnits="userSpaceOnUse"
       id="linearGradient3009"
       xlink:href="#linearGradient3010" />
    <linearGradient
       id="linearGradient3010">
      <stop
         id="stop3012"
         offset="0"
         style="stop-color:#ef2929;stop-opacity:1" />
      <stop
         id="stop3014"
         offset="1"
         style="stop-color:#a40000;stop-opacity:1" />
    </linearGradient>
  </defs>
  <g
     transform="rotate(30,55.977041,35.414538)"
     style="fill:none;stroke:#cc0000;stroke-width:2"
     id="symbol">
    <path
       fill="#0099b0"
       d="m 51.353951,42.625489 -3.00661,1.062665 c -0.07322,0.02576 -0.181412,0.0055 -0.240517,-0.04547 l -1.953266,-1.461148 c -0.06567,-0.04202 -0.114076,-0.139602 -0.107986,-0.21755 l 0.250747,-3.218993 c 0.0058,-0.07733 -0.05038,-0.157439 -0.125666,-0.177612 l -3.116589,-0.835083 c -0.07529,-0.02017 -0.164004,0.02069 -0.197472,0.09088 l -1.416596,2.964556 c -0.03347,0.07019 -0.124693,0.131889 -0.202139,0.136965 l -2.327031,0.3162 c -0.07612,0.01577 -0.179679,-0.0198 -0.23047,-0.07879 L 36.53627,38.655656 c -0.05046,-0.05918 -0.146976,-0.07569 -0.214363,-0.03677 l -2.794548,1.613433 c -0.06723,0.03881 -0.101178,0.13065 -0.07516,0.203936 l 1.098773,3.109966 c 0.02569,0.07347 0.0049,0.180846 -0.04701,0.238985 l -1.437517,1.857259 c -0.04329,0.06462 -0.142328,0.112788 -0.219684,0.106576 l -3.275503,-0.255559 c -0.07769,-0.0061 -0.157604,0.05047 -0.177612,0.125667 l -0.835253,3.116684 c -0.02001,0.0752 0.02079,0.164169 0.09098,0.197637 l 2.913269,1.392248 c 0.07022,0.03389 0.130518,0.124602 0.134246,0.202388 l 0.288593,2.422246 c 0.01467,0.07652 -0.02165,0.180302 -0.08089,0.231024 l -2.423436,2.072373 c -0.05915,0.05089 -0.07559,0.14714 -0.03668,0.214526 l 1.613502,2.794289 c 0.0389,0.06738 0.130936,0.101676 0.204128,0.0755 l 2.932923,-1.036198 c 0.07319,-0.02618 0.180377,-0.0041 0.23762,0.04845 l 2.019237,1.588002 c 0.06456,0.04354 0.112362,0.142354 0.106077,0.219971 l -0.238632,3.060708 c -0.006,0.07742 0.05064,0.157509 0.125763,0.17778 l 3.116919,0.834895 c 0.07493,0.01994 0.163814,-0.02103 0.197637,-0.09098 l 1.300042,-2.721297 c 0.03356,-0.07003 0.124833,-0.126687 0.202353,-0.126298 l 1.242428,-0.04125 c 0.07785,-0.004 0.133078,-0.07045 0.122895,-0.147589 l -0.773511,-5.861975 c -0.01,-0.07724 -0.08181,-0.14171 -0.159604,-0.143706 l -0.321677,-0.0083 c -0.05938,-0.0015 -0.145608,-0.01304 -0.216762,-0.02835 -1.174323,-0.054 -2.29764,-0.686015 -2.929091,-1.779721 -0.985416,-1.706788 -0.400486,-3.889252 1.306136,-4.874572 1.706623,-0.985319 3.888993,-0.400555 4.874407,1.306233 0.631451,1.093707 0.617295,2.382439 0.07673,3.426531 -0.022,0.06907 -0.05518,0.149676 -0.0835,0.201701 l -0.153659,0.282726 c -0.03683,0.06817 -0.01707,0.162683 0.04465,0.210073 l 4.689778,3.601122 c 0.06172,0.04739 0.146618,0.03273 0.189261,-0.03264 l 0.656944,-1.055344 c 0.03858,-0.06742 0.13303,-0.118209 0.210553,-0.112094 l 3.006898,0.234682 c 0.07733,0.0058 0.157413,-0.0508 0.177448,-0.12557 l 0.835417,-3.11678 c 0.02017,-0.07529 -0.02088,-0.164334 -0.09108,-0.197802 L 51.19657,50.706873 c -0.07003,-0.03356 -0.131863,-0.124264 -0.137297,-0.201949 l -0.365628,-2.542711 c -0.01679,-0.07598 0.01726,-0.179525 0.07668,-0.229915 L 53.13416,45.71041 c 0.0591,-0.05019 0.07559,-0.147141 0.03668,-0.214528 l -1.613009,-2.794574 c -0.03884,-0.06765 -0.13058,-0.101446 -0.203891,-0.07586"
       id="path1"
       style="stroke-width:0.381426;fill:#cc0000;fill-opacity:1" />
  </g>
  <g
     style="stroke:#ffffff;stroke-width:2.5;stroke-linecap:round;stroke-linejoin:miter"
     id="crosshair">
    <path
       id="path9"
       d="m16,3v9m0,8v9m-13-13h9m8,0h9" />
  </g>
</svg>
