<?xml version="1.0" encoding="UTF-8" standalone="no"?>
<svg
   width="64px"
   height="64px"
   id="svg2821"
   version="1.1"
   xmlns:xlink="http://www.w3.org/1999/xlink"
   xmlns="http://www.w3.org/2000/svg"
   xmlns:svg="http://www.w3.org/2000/svg"
   xmlns:rdf="http://www.w3.org/1999/02/22-rdf-syntax-ns#"
   xmlns:cc="http://creativecommons.org/ns#"
   xmlns:dc="http://purl.org/dc/elements/1.1/">
  <defs
     id="defs2823">
    <linearGradient
       id="linearGradient59">
      <stop
         style="stop-color:#fce94f;stop-opacity:1"
         offset="0"
         id="stop59" />
      <stop
         style="stop-color:#c4a000;stop-opacity:1"
         offset="1"
         id="stop58" />
    </linearGradient>
    <linearGradient
       id="linearGradient53">
      <stop
         style="stop-color:#729fcf;stop-opacity:1;"
         offset="0"
         id="stop53" />
      <stop
         style="stop-color:#3465a4;stop-opacity:1;"
         offset="1"
         id="stop52" />
    </linearGradient>
    <linearGradient
       id="linearGradient11">
      <stop
         style="stop-color:#c4a000;stop-opacity:1"
         offset="0"
         id="stop11" />
      <stop
         style="stop-color:#fce94f;stop-opacity:1"
         offset="1"
         id="stop9" />
    </linearGradient>
    <linearGradient
       id="linearGradient6">
      <stop
         style="stop-color:#729fcf;stop-opacity:1;"
         offset="0"
         id="stop6" />
      <stop
         style="stop-color:#3465a4;stop-opacity:1;"
         offset="1"
         id="stop5" />
    </linearGradient>
    <linearGradient
       id="linearGradient4">
      <stop
         style="stop-color:#729fcf;stop-opacity:1;"
         offset="0"
         id="stop4" />
      <stop
         style="stop-color:#3465a4;stop-opacity:1;"
         offset="1"
         id="stop1" />
    </linearGradient>
    <linearGradient
       id="linearGradient3">
      <stop
         style="stop-color:#fce94f;stop-opacity:1"
         offset="0"
         id="stop3" />
      <stop
         style="stop-color:#c4a000;stop-opacity:1"
         offset="1"
         id="stop2" />
    </linearGradient>
    <linearGradient
       id="linearGradient35">
      <stop
         style="stop-color:#3465a4;stop-opacity:1;"
         offset="0"
         id="stop33" />
      <stop
         style="stop-color:#729fcf;stop-opacity:1;"
         offset="1"
         id="stop34" />
    </linearGradient>
    <linearGradient
       id="linearGradient21">
      <stop
         style="stop-color:#3465a4;stop-opacity:1;"
         offset="0"
         id="stop21" />
      <stop
         style="stop-color:#3465a4;stop-opacity:0;"
         offset="1"
         id="stop22" />
    </linearGradient>
    <radialGradient
       xlink:href="#linearGradient3377"
       id="radialGradient3701"
       gradientUnits="userSpaceOnUse"
       cx="84.883324"
       cy="77.042847"
       fx="84.883324"
       fy="77.042847"
       r="19.467436"
       gradientTransform="matrix(2.8492421,1.2585119,-0.4040415,0.9147407,-125.84131,-100.25805)" />
    <linearGradient
       id="linearGradient3377">
      <stop
         id="stop3379"
         offset="0"
         style="stop-color:#faff2b;stop-opacity:1;" />
      <stop
         id="stop3381"
         offset="1"
         style="stop-color:#ffaa00;stop-opacity:1;" />
    </linearGradient>
    <radialGradient
       xlink:href="#linearGradient3377"
       id="radialGradient3699"
       gradientUnits="userSpaceOnUse"
       cx="76.383331"
       cy="94.369568"
       fx="76.383331"
       fy="94.369568"
       r="19.467436"
       gradientTransform="matrix(0.9818943,0.1894295,-0.4109427,2.1300924,40.163453,-121.11559)" />
    <linearGradient
       xlink:href="#linearGradient3801-5"
       id="linearGradient3807-7"
       x1="110"
       y1="35"
       x2="85"
       y2="35"
       gradientUnits="userSpaceOnUse"
       spreadMethod="reflect"
       gradientTransform="translate(-62,-16)" />
    <linearGradient
       id="linearGradient3801-5">
      <stop
         style="stop-color:#c4a000;stop-opacity:1"
         offset="0"
         id="stop3803-3" />
      <stop
         style="stop-color:#fce94f;stop-opacity:1"
         offset="1"
         id="stop3805-5" />
    </linearGradient>
    <linearGradient
       xlink:href="#linearGradient3838"
       id="linearGradient3844"
       x1="2802.9631"
       y1="538.36249"
       x2="2859.7263"
       y2="786.05646"
       gradientUnits="userSpaceOnUse" />
    <linearGradient
       id="linearGradient3838">
      <stop
         style="stop-color:#34e0e2;stop-opacity:1"
         offset="0"
         id="stop3840" />
      <stop
         style="stop-color:#06989a;stop-opacity:1"
         offset="1"
         id="stop3842" />
    </linearGradient>
    <linearGradient
       y2="786.05646"
       x2="2859.7263"
       y1="538.36249"
       x1="2802.9631"
       gradientUnits="userSpaceOnUse"
       id="linearGradient3045"
       xlink:href="#linearGradient3172" />
    <linearGradient
       id="linearGradient3172">
      <stop
         id="stop3174"
         offset="0"
         style="stop-color:#ef2929;stop-opacity:1" />
      <stop
         id="stop3176"
         offset="1"
         style="stop-color:#a40000;stop-opacity:1" />
    </linearGradient>
    <linearGradient
       xlink:href="#linearGradient3172"
       id="linearGradient3880"
       gradientUnits="userSpaceOnUse"
       x1="2802.9631"
       y1="626.0874"
       x2="2849.4058"
       y2="822.17853" />
    <linearGradient
       xlink:href="#linearGradient11"
       id="linearGradient22"
       x1="22.782017"
       y1="37.760967"
       x2="10.12716"
       y2="31.568081"
       gradientUnits="userSpaceOnUse"
       gradientTransform="matrix(1.0546639,0,0,1.047623,-9.2679129,3.0093584)" />
    <linearGradient
       id="linearGradient4389"
       x1="20.243999"
       x2="17.243999"
       y1="37.588001"
       y2="27.587999"
       gradientTransform="translate(-1.2435,-2.5881)"
       gradientUnits="userSpaceOnUse"
       xlink:href="#linearGradient3774" />
    <linearGradient
       id="linearGradient3774">
      <stop
         stop-color="#4e9a06"
         offset="0"
         id="stop21-8" />
      <stop
         stop-color="#8ae234"
         offset="1"
         id="stop23" />
    </linearGradient>
    <linearGradient
       id="linearGradient69042"
       x1="48.714001"
       x2="44.714001"
       y1="45.585999"
       y2="34.585999"
       gradientTransform="translate(-12.714,-17.586)"
       gradientUnits="userSpaceOnUse"
       xlink:href="#linearGradient3774" />
    <linearGradient
       id="linearGradient69056"
       x1="27.243999"
       x2="22.243999"
       y1="54.588001"
       y2="40.588001"
       gradientTransform="translate(-1.2435,-2.5881)"
       gradientUnits="userSpaceOnUse">
      <stop
         stop-color="#c4a000"
         offset="0"
         id="stop14-4" />
      <stop
         stop-color="#fce94f"
         offset="1"
         id="stop16" />
    </linearGradient>
    <linearGradient
       id="linearGradient4399"
       x1="48.714001"
       x2="44.714001"
       y1="45.585999"
       y2="34.585999"
       gradientTransform="translate(1.2856,1.4142)"
       gradientUnits="userSpaceOnUse">
      <stop
         stop-color="#c4a000"
         offset="0"
         id="stop8" />
      <stop
         stop-color="#edd400"
         offset="1"
         id="stop10" />
    </linearGradient>
    <linearGradient
       xlink:href="#linearGradient21"
       id="linearGradient27"
       gradientUnits="userSpaceOnUse"
       gradientTransform="translate(-0.30409276,0.05778729)"
       x1="22.782017"
       y1="37.760967"
       x2="11.930232"
       y2="29.936911" />
    <linearGradient
       xlink:href="#linearGradient69056"
       id="linearGradient33"
       gradientUnits="userSpaceOnUse"
       gradientTransform="matrix(1.9938046,0,0,1.9613155,1.0732527,-49.356425)"
       x1="22.782017"
       y1="37.760967"
       x2="7.864368"
       y2="32.411785" />
    <linearGradient
       xlink:href="#linearGradient3"
       id="linearGradient2"
       x1="14.883397"
       y1="43.811935"
       x2="25.259163"
       y2="50.94812"
       gradientUnits="userSpaceOnUse"
       gradientTransform="matrix(1.8048567,0,0,1.7835759,4.5436424,-43.019855)" />
    <linearGradient
       xlink:href="#linearGradient3"
       id="linearGradient2-0"
       x1="14.883397"
       y1="43.811935"
       x2="25.259163"
       y2="50.94812"
       gradientUnits="userSpaceOnUse"
       gradientTransform="matrix(1.8048567,0,0,1.7835759,96.609777,-8.4537881)" />
    <linearGradient
       xlink:href="#linearGradient69056"
       id="linearGradient33-9"
       gradientUnits="userSpaceOnUse"
       gradientTransform="matrix(1.9938046,0,0,1.9613155,114.04645,31.478968)"
       x1="22.782017"
       y1="37.760967"
       x2="7.864368"
       y2="32.411785" />
    <linearGradient
       xlink:href="#linearGradient69056"
       id="linearGradient33-1"
       gradientUnits="userSpaceOnUse"
       gradientTransform="matrix(1.9938046,0,0,1.9613155,100.92145,-12.646032)"
       x1="22.782017"
       y1="37.760967"
       x2="7.864368"
       y2="32.411785" />
    <linearGradient
       xlink:href="#linearGradient3"
       id="linearGradient2-8"
       x1="5.1180787"
       y1="51.030579"
       x2="24.220299"
       y2="43.028637"
       gradientUnits="userSpaceOnUse"
       gradientTransform="matrix(1.8048567,0,0,1.7835759,137.32907,24.566604)" />
    <linearGradient
       xlink:href="#linearGradient59"
       id="linearGradient775"
       x1="1615.5502"
       y1="963.38916"
       x2="1705.1536"
       y2="1063.3772"
       gradientUnits="userSpaceOnUse" />
    <linearGradient
       xlink:href="#linearGradient6"
       id="linearGradient777"
       x1="1493.8453"
       y1="882.08173"
       x2="1598.384"
       y2="1011.619"
       gradientUnits="userSpaceOnUse" />
  </defs>
  <metadata
     id="metadata2826">
    <rdf:RDF>
      <cc:Work
         rdf:about="">
        <dc:format>image/svg+xml</dc:format>
        <dc:type
           rdf:resource="http://purl.org/dc/dcmitype/StillImage" />
        <dc:creator>
          <cc:Agent>
            <dc:title>[wmayer]</dc:title>
          </cc:Agent>
        </dc:creator>
        <dc:date>2011-10-10</dc:date>
        <dc:relation>http://www.freecad.org/wiki/index.php?title=Artwork</dc:relation>
        <dc:publisher>
          <cc:Agent>
            <dc:title>FreeCAD</dc:title>
          </cc:Agent>
        </dc:publisher>
        <dc:identifier>FreeCAD/src/Mod/Part/Gui/Resources/icons/Part_Cylinder.svg</dc:identifier>
        <dc:rights>
          <cc:Agent>
            <dc:title>FreeCAD LGPL2+</dc:title>
          </cc:Agent>
        </dc:rights>
        <cc:license>https://www.gnu.org/copyleft/lesser.html</cc:license>
        <dc:contributor>
          <cc:Agent>
            <dc:title>[agryson] Alexander Gryson</dc:title>
          </cc:Agent>
        </dc:contributor>
      </cc:Work>
    </rdf:RDF>
  </metadata>
  <g
     id="layer1"
     transform="translate(-0.72587286,3.853542)">
    <g
       id="g705"
       transform="matrix(0.23509281,0,0,0.23520317,-341.53205,-194.70752)"
       style="stroke-width:8.50529;stroke-dasharray:none">
      <path
         d="m 1626.7379,985.07961 6.422,4.94918 c 2.3924,1.84433 3.1648,5.10632 1.8527,7.82236 l -0.6979,1.4532 c -1.3121,2.71625 -4.3477,4.14395 -7.286,3.42955 l -7.8925,-1.9182 c -0.6008,-0.1129 -1.2189,-0.1039 -1.8277,-0.075 -0.6569,0.04 -1.3063,0.144 -1.9524,0.2658 -0.2137,0.04 -0.4275,0.085 -0.6397,0.1328 -0.9333,0.2104 -1.8512,0.4582 -2.7499,0.7889 -2.3642,0.8641 -4.5962,2.0709 -6.6712,3.4877 -1.742,1.1905 -2.7832,3.1594 -2.7832,5.2647 v 0.1827 c 0,2.1054 1.0412,4.0743 2.7832,5.2647 2.075,1.4168 4.307,2.6239 6.6712,3.4877 1.2744,0.4636 2.5883,0.8293 3.9296,1.038 0.4697,0.074 0.9379,0.1219 1.4124,0.1495 0.6088,0.029 1.2269,0.038 1.8277,-0.075 l 7.8925,-1.9182 c 1.2991,-0.3279 2.8829,-0.2243 4.2537,0.4318 1.3792,0.6388 2.4617,1.7892 3.0323,2.9978 l 0.6979,1.4532 c 0.5921,1.1981 0.8242,2.7618 0.4652,4.235 -0.34,1.4776 -1.2507,2.7795 -2.3179,3.5873 l -6.422,4.9492 c -0.4632,0.3979 -0.8396,0.886 -1.1963,1.3785 -0.2744,0.3869 -0.5294,0.784 -0.7643,1.1957 -0.6726,1.1757 -1.2057,2.4298 -1.6367,3.7119 -0.7966,2.3812 -1.2462,4.8735 -1.4289,7.374 -0.075,0.9884 0.097,2.0496 0.5234,3.0143 0.4217,0.9668 1.0981,1.8173 1.8775,2.4331 l 0.1413,0.1163 c 0.7756,0.6203 1.7519,1.0841 2.7914,1.2788 1.0385,0.2 2.1236,0.1263 3.074,-0.1661 2.4048,-0.7341 4.7438,-1.7185 6.8955,-3.0227 1.1581,-0.7041 2.2569,-1.501 3.2567,-2.4164 0.3508,-0.3201 0.6878,-0.6521 1.0052,-1.0048 0.4023,-0.4562 0.7939,-0.9392 1.0801,-1.4781 l 3.4145,-7.3408 c 0.5527,-1.2167 1.6214,-2.3883 2.9909,-3.0475 1.3607,-0.6766 2.9416,-0.8068 4.2453,-0.4983 l 1.5785,0.3571 c 1.3088,0.2858 2.674,1.0855 3.6056,2.2836 0.947,1.1864 1.4026,2.7088 1.3708,4.0441 l -0.1246,8.0963 c 0.023,0.6092 0.1686,1.2005 0.3323,1.7854 0.1327,0.4552 0.2887,0.9052 0.4653,1.3453 0.5024,1.2571 1.149,2.452 1.8858,3.5873 1.3708,2.1053 3.046,4.0035 4.8934,5.7048 0.7287,0.6746 1.6775,1.2094 2.7001,1.4781 1.0212,0.2743 2.1048,0.2816 3.0739,0.058 l 0.1744,-0.042 c 0.9703,-0.2176 1.9493,-0.6896 2.7499,-1.3784 0.8046,-0.6845 1.4232,-1.5765 1.7862,-2.4995 0.924,-2.3317 1.6087,-4.768 1.9275,-7.2577 0.1698,-1.3417 0.2274,-2.7023 0.1329,-4.0524 -0.033,-0.4727 -0.088,-0.9362 -0.1662,-1.4033 -0.1068,-0.598 -0.2376,-1.2014 -0.4818,-1.7605 l -3.6306,-7.2411 c -0.6098,-1.1892 -0.8603,-2.7567 -0.5234,-4.235 0.3178,-1.4827 1.2049,-2.7885 2.2598,-3.6122 l 1.2628,-1.0048 c 1.0402,-0.8421 2.517,-1.416 4.0376,-1.3951 1.5207,0 2.9936,0.5961 4.021,1.4532 l 6.2725,5.1402 c 0.4922,0.3616 1.0509,0.6266 1.6117,0.8636 0.4394,0.1803 0.8906,0.3364 1.3459,0.4733 1.2993,0.3921 2.6378,0.6304 3.9878,0.764 2.5058,0.2442 5.0406,0.1216 7.5269,-0.2574 0.9834,-0.1474 1.993,-0.5499 2.8413,-1.1792 0.852,-0.625 1.532,-1.4636 1.9607,-2.3583 l 0.083,-0.1661 c 0.4343,-0.8919 0.6641,-1.9442 0.6231,-2.9978 -0.035,-1.0538 -0.3416,-2.0894 -0.8391,-2.9479 -1.2529,-2.1738 -2.7405,-4.228 -4.4946,-6.0287 -0.9462,-0.9687 -1.9729,-1.8641 -3.0905,-2.6323 -0.391,-0.2695 -0.7891,-0.5175 -1.2047,-0.7474 -0.5357,-0.2894 -1.0876,-0.5643 -1.6782,-0.7224 l -7.9506,-1.6857 c -1.3129,-0.2664 -2.6976,-1.0414 -3.6472,-2.2255 -0.9644,-1.1721 -1.4324,-2.6833 -1.4206,-4.0191 v -1.611 c -0.012,-1.3358 0.4562,-2.8471 1.4206,-4.0192 0.9496,-1.184 2.3343,-1.959 3.6472,-2.2254 l 7.9506,-1.6857 c 0.5906,-0.1581 1.1425,-0.4248 1.6782,-0.7142 0.4156,-0.2301 0.8137,-0.4862 1.2047,-0.7556 1.1176,-0.76832 2.1443,-1.66363 3.0905,-2.63241 1.7541,-1.80065 3.2417,-3.84659 4.4946,-6.02039 0.4975,-0.85844 0.8037,-1.8943 0.8391,-2.94792 0.041,-1.05352 -0.1888,-2.1142 -0.6231,-3.00604 l -0.083,-0.16608 c -0.4287,-0.89453 -1.1087,-1.73342 -1.9607,-2.35834 -0.8483,-0.62946 -1.8579,-1.03187 -2.8413,-1.17916 -2.4863,-0.37898 -5.0211,-0.50168 -7.5269,-0.25743 -1.35,0.13356 -2.6885,0.37181 -3.9878,0.76397 -0.4553,0.13677 -0.9065,0.29291 -1.3459,0.47333 -0.5608,0.23707 -1.1195,0.50185 -1.6117,0.86361 l -6.2725,5.14017 c -1.0274,0.85724 -2.5003,1.45141 -4.021,1.4532 -1.5206,0.0209 -2.9974,-0.55303 -4.0376,-1.39507 l -1.2628,-1.00478 c -1.0549,-0.8236 -1.942,-2.12975 -2.2598,-3.61224 -0.3369,-1.47832 -0.086,-3.04566 0.5234,-4.23503 l 3.6306,-7.24108 c 0.2442,-0.55887 0.375,-1.15425 0.4818,-1.75214 0.079,-0.4673 0.1337,-0.93889 0.1662,-1.41168 0.094,-1.35005 0.037,-2.71074 -0.1329,-4.05235 -0.3188,-2.48985 -1.0035,-4.92581 -1.9275,-7.25769 -0.363,-0.923 -0.9816,-1.80667 -1.7862,-2.4912 -0.8006,-0.68879 -1.7796,-1.16918 -2.7499,-1.38676 l -0.1744,-0.0332 c -0.9691,-0.22361 -2.0527,-0.22441 -3.0739,0.0498 -1.0226,0.26879 -1.9714,0.80349 -2.7001,1.47811 -1.8474,1.70139 -3.5226,3.59944 -4.8934,5.70484 -0.7368,1.13533 -1.3834,2.33014 -1.8858,3.58732 -0.1766,0.44001 -0.3326,0.89021 -0.4653,1.34525 -0.1637,0.58499 -0.309,1.18448 -0.3323,1.79366 l 0.1246,8.09639 c 0.032,1.33534 -0.4238,2.84948 -1.3708,4.03574 -0.9316,1.19816 -2.2968,1.99784 -3.6056,2.2836 l -1.5785,0.35707 c -1.3037,0.30866 -2.8846,0.18662 -4.2453,-0.48993 -1.3695,-0.65925 -2.4382,-1.83074 -2.9909,-3.04757 l -3.4145,-7.34903 c -0.2862,-0.53884 -0.6778,-1.01359 -1.0801,-1.46981 -0.3174,-0.35267 -0.6544,-0.693 -1.0052,-1.01308 -0.9998,-0.91532 -2.0986,-1.7123 -3.2567,-2.41647 -2.1517,-1.30397 -4.4907,-2.28877 -6.8955,-3.02265 -0.9504,-0.29264 -2.0355,-0.36623 -3.074,-0.16608 -1.0395,0.19462 -2.0158,0.65829 -2.7914,1.27882 l -0.1413,0.11625 c -0.7794,0.6157 -1.4558,1.46616 -1.8775,2.43307 -0.4266,0.96464 -0.5982,2.03411 -0.5234,3.02265 0.1827,2.50056 0.6323,4.9845 1.4289,7.36564 0.291,0.87647 0.6558,1.72607 1.0551,2.55763 0.1464,0.30366 0.2941,0.60979 0.457,0.90514 0.097,0.17631 0.1955,0.35046 0.299,0.52315 0.1189,0.19781 0.2457,0.38936 0.3739,0.58128 0.1248,0.18692 0.2557,0.36817 0.3905,0.54806 0.3106,0.41574 0.6274,0.83209 1.0218,1.17086 z"
         style="fill:#fce94f;fill-rule:evenodd;stroke:#221e0c;stroke-width:6.37896;stroke-linecap:round;stroke-linejoin:round;stroke-dasharray:none;stroke-opacity:1"
         id="path772" />
      <path
         d="m 1558.1729,860.87682 c -1.074,-0.0511 -2.2427,0.18149 -3.265,0.72245 -1.0261,0.53432 -1.8853,1.36347 -2.4508,2.27529 -1.3972,2.23485 -2.6165,4.58691 -3.5558,7.05009 -0.5191,1.34678 -0.9312,2.72552 -1.2378,4.13539 -0.1051,0.4932 -0.191,0.98683 -0.2576,1.48641 -0.08,0.64211 -0.1389,1.29567 -0.1,1.94314 l 0.5733,5.6218 c 0.3315,3.22354 -1.811,6.18265 -4.9848,6.88401 l -2.617,0.58128 c -3.1738,0.70161 -6.3694,-1.07403 -7.4355,-4.13539 l -1.861,-5.34777 c -0.2388,-0.60328 -0.569,-1.16251 -0.9139,-1.71062 -0.2723,-0.42475 -0.5598,-0.84307 -0.864,-1.2456 -0.8757,-1.14859 -1.841,-2.21997 -2.8828,-3.22195 -1.8953,-1.83666 -3.9923,-3.45411 -6.206,-4.89105 -1.9365,-1.25586 -4.406,-1.37883 -6.4552,-0.31555 l -0.7145,0.37368 c -2.0493,1.06327 -3.3689,3.14591 -3.4478,5.44741 -0.089,2.63176 0.035,5.27913 0.4569,7.88049 0.2258,1.4252 0.5638,2.81992 1.0053,4.19352 0.1563,0.47966 0.3305,0.95411 0.5234,1.41998 0.2526,0.59613 0.5217,1.18627 0.8806,1.72723 l 3.3232,4.59211 c 0.4161,0.57263 0.7596,1.2561 0.972,2.00956 0.2134,0.75219 0.2912,1.56861 0.2077,2.37494 -0.082,0.80659 -0.3197,1.59821 -0.6812,2.29191 -0.3605,0.69523 -0.8391,1.29164 -1.3625,1.76875 l -1.9773,1.80196 c -0.5224,0.47813 -1.1595,0.89848 -1.8859,1.19578 -0.7246,0.29857 -1.5379,0.47116 -2.3511,0.48163 -0.813,0.0128 -1.6264,-0.12927 -2.3595,-0.4069 -0.7346,-0.27661 -1.3831,-0.68289 -1.9191,-1.14595 l -4.2952,-3.70358 c -0.5093,-0.40329 -1.0796,-0.72703 -1.6532,-1.02969 -0.4489,-0.23217 -0.9053,-0.44249 -1.3708,-0.63941 -1.3344,-0.55807 -2.6995,-1.01322 -4.1041,-1.36185 -2.563,-0.64594 -5.1966,-0.99666 -7.8344,-1.13765 -1.0735,-0.0613 -2.2459,0.16628 -3.2733,0.69753 -1.031,0.52462 -1.8932,1.34393 -2.4674,2.25039 l -0.4404,0.68092 c -0.5813,0.90186 -0.9556,2.02725 -0.9969,3.18043 -0.049,1.15293 0.2383,2.31117 0.7477,3.25517 1.2429,2.32347 2.6745,4.5511 4.345,6.59336 0.9104,1.12177 1.9027,2.16107 2.9743,3.13061 0.3758,0.3374 0.7623,0.66405 1.1631,0.97157 0.5175,0.39026 1.0545,0.76497 1.6366,1.0546 l 5.1758,2.31682 c 0.6475,0.28836 1.2911,0.70732 1.8527,1.2539 0.5624,0.54505 1.0387,1.21981 1.3708,1.95974 0.3338,0.73916 0.5218,1.53577 0.5566,2.31681 0.037,0.78182 -0.077,1.54314 -0.2908,2.21717 l -0.8058,2.54933 c -0.2124,0.67428 -0.5589,1.35672 -1.0385,1.97635 -0.4779,0.61962 -1.0872,1.17153 -1.7862,1.58606 -0.6977,0.41632 -1.4774,0.68915 -2.2514,0.81379 -0.7748,0.12668 -1.5385,0.10892 -2.2349,-0.0249 l -5.5746,-1.07122 c -0.6436,-0.0955 -1.3038,-0.0902 -1.9523,-0.0664 -0.5053,0.0227 -1.0018,0.063 -1.5037,0.12456 -1.4356,0.1816 -2.8541,0.47373 -4.2454,0.87192 -2.5432,0.71796 -4.9973,1.72208 -7.3524,2.9147 -0.9606,0.48204 -1.861,1.26975 -2.4841,2.24208 -0.6301,0.96813 -0.971,2.10105 -1.0136,3.17212 l -0.033,0.81379 c -0.051,1.07069 0.1882,2.23597 0.7311,3.25517 0.5357,1.02279 1.3619,1.87773 2.2764,2.44137 2.2419,1.39271 4.599,2.60957 7.07,3.5458 1.351,0.51765 2.7398,0.92324 4.1539,1.229 0.4948,0.10476 0.9857,0.19096 1.4871,0.25742 0.6442,0.08 1.2948,0.14721 1.9441,0.10795 l 5.6493,-0.58128 c 0.7054,-0.0728 1.4739,-0.0274 2.2349,0.16608 0.7599,0.19161 1.5098,0.52949 2.1683,1.00478 0.66,0.47356 1.223,1.07663 1.645,1.73554 0.4238,0.65881 0.7027,1.37731 0.8557,2.06769 l 0.5815,2.60746 c 0.1543,0.69008 0.2045,1.44985 0.1,2.22546 -0.103,0.7749 -0.3586,1.55976 -0.756,2.26699 -0.3956,0.70829 -0.9292,1.33297 -1.5369,1.82688 -0.6075,0.49586 -1.2904,0.86493 -1.9607,1.09613 l -5.3586,1.85179 c -0.6052,0.23799 -1.1699,0.5696 -1.7197,0.91344 -0.4264,0.27145 -0.8421,0.56021 -1.2462,0.86361 -1.152,0.87287 -2.2266,1.82656 -3.2318,2.86488 -1.8425,1.88951 -3.4687,3.97975 -4.9099,6.18647 -0.5901,0.89614 -0.9782,2.02771 -1.0302,3.18043 -0.06,1.15237 0.2224,2.30631 0.7228,3.25517 l 0.3738,0.71414 c 0.4925,0.95268 1.2784,1.84602 2.2598,2.45798 0.9769,0.61861 2.1237,0.94769 3.1985,0.97987 2.6401,0.0886 5.2915,-0.0361 7.9008,-0.45672 1.4297,-0.22527 2.8342,-0.5564 4.2121,-0.99648 0.4809,-0.1558 0.9614,-0.33082 1.429,-0.52315 0.598,-0.25183 1.1936,-0.52265 1.7363,-0.88022 l 4.5943,-3.31329 c 0.5744,-0.41466 1.2629,-0.75999 2.0188,-0.97157 0.7543,-0.21296 1.5755,-0.29092 2.3844,-0.2076 0.8091,0.0812 1.5973,0.32054 2.2929,0.68093 0.6977,0.35934 1.2993,0.84017 1.7779,1.36185 l 1.8111,1.96805 c 0.4799,0.52078 0.9064,1.16117 1.2047,1.885 0.2995,0.72231 0.4711,1.52301 0.4818,2.33342 0.013,0.81068 -0.1366,1.6193 -0.4153,2.35003 -0.2773,0.73201 -0.682,1.38391 -1.1465,1.91816 l -3.7137,4.2849 c -0.4048,0.5075 -0.7265,1.0723 -1.0301,1.6442 -0.2332,0.4475 -0.4503,0.9061 -0.6481,1.3701 -0.5598,1.3302 -1.013,2.6937 -1.3624,4.0939 -0.648,2.5546 -1.0051,5.1763 -1.1465,7.8058 -0.062,1.0701 0.1729,2.2392 0.7061,3.2634 0.5263,1.0278 1.3424,1.8859 2.2515,2.458 l 0.6895,0.4401 c 0.9045,0.5795 2.0334,0.9556 3.1903,0.9965 1.1563,0.049 2.3097,-0.2396 3.2566,-0.7474 2.3309,-1.2392 4.5724,-2.6696 6.6214,-4.3346 1.1251,-0.9075 2.1676,-1.8967 3.1404,-2.9646 0.3385,-0.3747 0.6636,-0.7628 0.972,-1.1625 0.3915,-0.516 0.7729,-1.0473 1.0634,-1.6276 l 2.318,-5.1568 c 0.2895,-0.6454 0.7142,-1.2917 1.2627,-1.8518 0.5466,-0.5604 1.2184,-1.0308 1.9607,-1.3618 0.7415,-0.3331 1.543,-0.5217 2.3262,-0.5564 0.7843,-0.036 1.5501,0.077 2.2265,0.2906 l 2.5506,0.8055 c 0.6766,0.212 1.3642,0.5513 1.9855,1.0297 0.6219,0.4764 1.1796,1.0889 1.5952,1.7854 0.4176,0.6957 0.6888,1.4705 0.8141,2.2421 0.1271,0.7723 0.1094,1.5395 -0.025,2.2337 l -1.0717,5.5554 c -0.096,0.6413 -0.09,1.2884 -0.066,1.9348 0.023,0.5037 0.063,1.0107 0.1246,1.5114 0.1825,1.4308 0.4727,2.8398 0.8724,4.2267 0.7202,2.5355 1.7281,4.9847 2.9243,7.3324 0.4835,0.9573 1.268,1.8532 2.2432,2.4746 0.9713,0.6278 2.1156,0.9624 3.1902,1.0048 l 0.8142,0.041 c 1.0741,0.051 2.2424,-0.1898 3.265,-0.7308 1.0259,-0.5343 1.8853,-1.3634 2.4508,-2.2752 1.3972,-2.2349 2.6165,-4.5869 3.5558,-7.0501 0.5193,-1.3468 0.9312,-2.7172 1.2379,-4.1271 0.1053,-0.4932 0.1909,-0.9952 0.2575,-1.4947 0.08,-0.6421 0.1392,-1.2877 0.1,-1.9349 l -0.5816,-5.6301 c -0.073,-0.7031 -0.028,-1.4671 0.1662,-2.2254 0.1922,-0.7578 0.5367,-1.5107 1.0136,-2.1674 0.475,-0.6579 1.0836,-1.2155 1.7446,-1.6359 0.6609,-0.4224 1.3678,-0.7031 2.0604,-0.8553 l 2.617,-0.5813 c 0.6922,-0.1535 1.465,-0.1958 2.2431,-0.091 0.7773,0.1027 1.5586,0.3595 2.2681,0.7557 0.7104,0.3941 1.3405,0.9221 1.836,1.5279 0.4974,0.6053 0.8647,1.2833 1.0966,1.9514 l 1.861,5.3395 c 0.2387,0.6033 0.5689,1.1708 0.9139,1.7189 0.2723,0.4248 0.5597,0.8345 0.864,1.2373 0.8756,1.1483 1.8329,2.2285 2.8745,3.2303 1.8955,1.8369 4.0006,3.4541 6.2143,4.891 0.899,0.5882 2.0255,0.9696 3.1819,1.0214 1.1561,0.06 2.3133,-0.2153 3.265,-0.7141 l 0.7228,-0.3737 c 0.9558,-0.4912 1.8452,-1.2805 2.4592,-2.2587 0.6206,-0.9741 0.9562,-2.1173 0.9886,-3.1887 0.089,-2.6318 -0.035,-5.2708 -0.4569,-7.8722 -0.2259,-1.4252 -0.5638,-2.8282 -1.0053,-4.2018 -0.1563,-0.4797 -0.3304,-0.9539 -0.5234,-1.42 -0.2525,-0.5959 -0.5218,-1.1863 -0.8806,-1.7272 l -3.3315,-4.5838 c -0.416,-0.5727 -0.7598,-1.2561 -0.972,-2.0096 -0.2136,-0.7522 -0.2913,-1.5769 -0.2077,-2.38322 0.081,-0.80659 0.328,-1.5899 0.6896,-2.28359 0.3604,-0.69523 0.839,-1.29995 1.3624,-1.77706 l 1.969,-1.80196 c 0.5224,-0.47813 1.168,-0.89848 1.8942,-1.19578 0.7247,-0.29857 1.5297,-0.47116 2.3428,-0.48163 0.8131,-0.0128 1.6265,0.13757 2.3595,0.4152 0.7345,0.27661 1.3914,0.67459 1.9274,1.13765 l 4.2869,3.70358 c 0.4683,0.37084 0.9939,0.66514 1.5203,0.94665 0.1566,0.0834 0.3144,0.16234 0.4736,0.24082 0.1569,0.0774 0.3146,0.151 0.4735,0.2242 0.7721,0.35283 1.5621,0.6691 2.3678,0.93836 0.01,0.002 0.011,0.006 0.017,0.008 0,0 0.01,0 0.01,0 0.7729,0.25605 1.5472,0.48178 2.3345,0.68088 1.011,0.2529 2.0373,0.439 3.0656,0.6062 1.5606,0.2518 3.1306,0.4423 4.7106,0.5231 1.0736,0.061 2.2376,-0.166 3.265,-0.6975 1.0313,-0.5243 1.9016,-1.33557 2.4757,-2.24202 l 0.4321,-0.68923 c 0.5813,-0.90186 0.9642,-2.02725 1.0052,-3.18043 0.049,-1.15293 -0.2383,-2.30286 -0.7477,-3.24686 -0.6444,-1.204 -1.3489,-2.38052 -2.1019,-3.5209 -0.2085,-0.31583 -0.4554,-0.60372 -0.6729,-0.91344 -0.5583,-0.79489 -1.1157,-1.59376 -1.7364,-2.34172 -0.1177,-0.14252 -0.2452,-0.27517 -0.3655,-0.4152 -0.767,-0.89493 -1.5673,-1.75023 -2.4425,-2.54102 -0.3762,-0.33735 -0.7705,-0.66413 -1.1715,-0.97157 -0.5175,-0.39032 -1.0464,-0.76497 -1.6283,-1.05461 l -5.1841,-2.31681 c -0.6475,-0.28856 -1.2826,-0.70717 -1.8444,-1.2539 -0.5622,-0.54484 -1.047,-1.21151 -1.3791,-1.95144 -0.334,-0.73906 -0.5135,-1.54425 -0.5483,-2.32512 -0.036,-0.78178 0.069,-1.54311 0.2825,-2.21716 l 0.8058,-2.54102 c 0.2126,-0.6745 0.5587,-1.36516 1.0385,-1.98466 0.4778,-0.61975 1.0955,-1.17164 1.7945,-1.58606 0.6977,-0.41626 1.4774,-0.68896 2.2515,-0.81379 0.7745,-0.12668 1.5384,-0.10062 2.2348,0.0332 l 5.5746,1.06291 c 0.6433,0.0955 1.2955,0.0902 1.944,0.0664 0.5053,-0.0226 1.0101,-0.0632 1.5121,-0.12456 1.4355,-0.18172 2.8457,-0.47365 4.237,-0.87192 2.5435,-0.71799 5.0056,-1.72208 7.3608,-2.9147 0.9605,-0.48204 1.8526,-1.26142 2.4757,-2.23378 0.6301,-0.96813 0.971,-2.10936 1.0136,-3.18042 l 0.042,-0.81379 c 0.051,-1.07071 -0.1881,-2.2277 -0.7311,-3.24687 -0.5357,-1.02279 -1.3616,-1.87773 -2.2763,-2.44137 -2.242,-1.3927 -4.6074,-2.60959 -7.0784,-3.5458 -1.3513,-0.51764 -2.7315,-0.93157 -4.1456,-1.2373 -0.4948,-0.10477 -0.994,-0.19094 -1.4954,-0.25742 -0.6439,-0.08 -1.2948,-0.13893 -1.9441,-0.0997 l -5.641,0.57298 c -0.7056,0.0728 -1.4741,0.0358 -2.2348,-0.15778 -0.7602,-0.19158 -1.5097,-0.53779 -2.1684,-1.01309 -0.66,-0.47358 -1.2232,-1.07662 -1.645,-1.73553 -0.4239,-0.65883 -0.7112,-1.36899 -0.864,-2.05939 l -0.5815,-2.60745 c -0.1542,-0.68987 -0.1962,-1.45809 -0.091,-2.23378 0.1029,-0.77491 0.3586,-1.55975 0.756,-2.26699 0.3955,-0.70825 0.9292,-1.33291 1.537,-1.82687 0.6075,-0.49601 1.282,-0.85642 1.9523,-1.08783 l 5.3669,-1.86009 c 0.6052,-0.23804 1.1618,-0.56135 1.7114,-0.90514 0.4264,-0.2715 0.8422,-0.56018 1.2462,-0.86361 1.152,-0.87274 2.2349,-1.83494 3.2401,-2.87318 1.8425,-1.88953 3.4602,-3.97972 4.9016,-6.18648 0.5899,-0.89598 0.9782,-2.01945 1.0302,-3.17212 0.06,-1.15242 -0.2143,-2.30631 -0.7145,-3.25516 l -0.3738,-0.72245 c -0.4927,-0.95269 -1.287,-1.83771 -2.2681,-2.44968 -0.9772,-0.6186 -2.1239,-0.95599 -3.1985,-0.98817 -2.6403,-0.0889 -5.2912,0.036 -7.9008,0.45672 -1.4297,0.22527 -2.8339,0.5647 -4.2121,1.00478 -0.4809,0.1558 -0.9531,0.32252 -1.4207,0.51485 -0.5978,0.25158 -1.1937,0.52264 -1.7363,0.88022 l -4.6026,3.3216 c -0.5744,0.41453 -1.2546,0.75152 -2.0105,0.96326 -0.7544,0.21301 -1.5838,0.29086 -2.3927,0.2076 -0.809,-0.0812 -1.5971,-0.32054 -2.2929,-0.68093 -0.6975,-0.35936 -1.2993,-0.832 -1.7779,-1.35355 l -1.8111,-1.96805 c -0.4797,-0.52078 -0.8981,-1.16117 -1.1964,-1.885 -0.2995,-0.7223 -0.4712,-1.53131 -0.4818,-2.34173 -0.013,-0.81067 0.1368,-1.6193 0.4154,-2.35003 0.2773,-0.732 0.682,-1.3839 1.1465,-1.91822 l 3.7053,-4.27655 c 0.4047,-0.50776 0.7348,-1.08063 1.0385,-1.6525 0.2329,-0.44748 0.442,-0.89752 0.6397,-1.36185 0.5599,-1.32993 1.0212,-2.69371 1.3708,-4.09387 0.6479,-2.55462 0.9967,-5.1846 1.1381,-7.81406 0.062,-1.07017 -0.1647,-2.23096 -0.6978,-3.25516 -0.5262,-1.02777 -1.3422,-1.89416 -2.2515,-2.46629 l -0.6895,-0.4318 c -0.9046,-0.57953 -2.0334,-0.95536 -3.1902,-0.99648 -1.1566,-0.0485 -2.318,0.2313 -3.265,0.73905 -2.3309,1.239 -4.5643,2.66966 -6.6131,4.33469 -1.1253,0.90747 -2.176,1.89665 -3.1487,2.96452 -0.3384,0.37469 -0.6636,0.76284 -0.972,1.16256 -0.3916,0.51593 -0.7646,1.04729 -1.0551,1.62758 l -2.3262,5.16508 c -0.2895,0.64543 -0.706,1.28363 -1.2545,1.84349 -0.5466,0.56063 -1.2184,1.03915 -1.9607,1.37016 -0.7414,0.33306 -1.5512,0.51333 -2.3345,0.54806 -0.7843,0.0363 -1.542,-0.0691 -2.2182,-0.28233 l -2.5589,-0.80549 c -0.6766,-0.21199 -1.3641,-0.55961 -1.9855,-1.038 -0.6218,-0.47634 -1.1711,-1.08885 -1.5868,-1.78536 -0.4176,-0.69574 -0.6973,-1.47048 -0.8225,-2.24207 -0.1271,-0.77237 -0.1011,-1.53127 0.033,-2.22547 l 1.0634,-5.56368 c 0.096,-0.64134 0.099,-1.28813 0.075,-1.93483 -0.023,-0.50367 -0.071,-1.01072 -0.1329,-1.51132 -0.1823,-1.43082 -0.4728,-2.84011 -0.8724,-4.22674 -0.7202,-2.53546 -1.728,-4.97638 -2.9243,-7.32412 -0.4836,-0.95728 -1.2677,-1.85317 -2.2432,-2.47459 -0.9713,-0.6278 -2.1076,-0.97068 -3.1819,-1.01308 z"
         style="fill:#729fcf;fill-rule:evenodd;stroke:#0c1522;stroke-width:6.37896;stroke-linecap:round;stroke-linejoin:round;stroke-dasharray:none;stroke-opacity:1"
         id="path771" />
      <path
         d="m 1671.3555,961.0332 0.1992,0.043 0.02,0.0176 c 0.7598,1.92008 1.2843,3.82742 1.5235,5.69531 0.1253,0.98986 0.1595,1.92572 0.098,2.81446 -0.019,0.27409 -0.05,0.53596 -0.092,0.78515 -0.03,0.17716 -0.037,0.24242 -0.033,0.23047 l -3.4668,6.91797 c -1.2271,2.39506 -1.7186,5.633 -1.0722,8.51953 0.631,2.89185 2.4534,5.61859 4.5605,7.26367 l -0.047,-0.0351 1.2207,0.9707 c 2.0762,1.68065 5.1352,2.84057 8.0938,2.8125 2.9598,-0.0124 6.0059,-1.21402 8.0644,-2.93164 l -0.043,0.0371 6.039,-4.94531 c -0.01,0.003 0.063,-0.0255 0.2266,-0.0937 0.2153,-0.0884 0.4637,-0.17494 0.7656,-0.26563 0.8295,-0.25036 1.7452,-0.42072 2.7637,-0.52148 1.896,-0.18482 3.8894,-0.0988 5.9472,0.21484 l 0.01,0.002 0.012,0.008 0.049,0.0996 0.023,0.0469 v 0.0215 c -1.0292,1.78335 -2.1986,3.37832 -3.5215,4.73633 -0.7125,0.72955 -1.4224,1.34009 -2.1465,1.83789 -0.2681,0.18478 -0.4833,0.3183 -0.6699,0.42188 0,9.2e-4 0,0.003 -0.01,0.004 -0.1537,0.0844 -0.2193,0.122 -0.2128,0.11914 l -7.5938,1.60938 c 0,2.5e-4 0,-2.5e-4 0,0 -2.6211,0.53282 -5.4637,2.15511 -7.3242,4.45704 -1.8778,2.2989 -2.8756,5.4262 -2.8516,8.0957 v 1.498 c -0.024,2.668 0.9723,5.7943 2.8516,8.0957 1.8605,2.3029 4.7029,3.9262 7.3242,4.459 l 7.5957,1.6094 c -0.01,0 0.047,0.033 0.2168,0.1269 0.2191,0.1213 0.4423,0.2603 0.6797,0.4239 0.7179,0.4935 1.4259,1.1024 2.1328,1.8261 1.3225,1.3577 2.4969,2.9611 3.5293,4.75 v 0.014 l -0.023,0.047 -0.047,0.098 -0.018,0.012 h -0.01 c -2.0577,0.3136 -4.0507,0.4006 -5.9375,0.2168 -1.0277,-0.1017 -1.9453,-0.2732 -2.7812,-0.5254 -0.2779,-0.084 -0.5306,-0.1736 -0.7598,-0.2676 l 0.061,0.027 c -0.3595,-0.1519 -0.2986,-0.1231 -0.291,-0.1191 l -5.9903,-4.9082 c -2.0544,-1.7139 -5.1009,-2.9216 -8.0683,-2.9316 -2.9619,-0.027 -6.0177,1.1388 -8.0899,2.8164 l 0.041,-0.035 -1.2617,1.0039 0.047,-0.035 c -2.1038,1.6427 -3.93,4.373 -4.5605,7.2675 -0.6445,2.8847 -0.1547,6.1182 1.0742,8.5157 0,0 0,0 0,0 l 3.4648,6.9082 c 0,-0.014 -0.032,-0.1127 0.043,0.3047 l -0.012,-0.068 c 0.044,0.2634 0.075,0.5286 0.094,0.795 0.062,0.8798 0.027,1.8139 -0.098,2.7968 -0.2408,1.8804 -0.7653,3.7933 -1.5274,5.7168 0,0 0,0 0,0 v 0 l -0.1348,0.031 -0.066,0.016 -0.029,-0.01 v 0 c -1.5276,-1.4068 -2.8306,-2.9014 -3.8613,-4.4844 -0.5528,-0.8517 -0.9895,-1.6722 -1.3164,-2.4902 -0.1052,-0.262 -0.1917,-0.5155 -0.2618,-0.7559 l 0.018,0.066 c -0.116,-0.4143 -0.095,-0.2977 -0.092,-0.2793 l 0.1211,-7.7851 v 0.055 c 0.064,-2.6925 -0.8987,-5.8197 -2.7364,-8.1406 -1.8051,-2.306 -4.5953,-3.9774 -7.209,-4.5606 l -0.047,-0.012 -1.4707,-0.332 c 0,0 0,0 0,0 -2.6227,-0.6202 -5.8859,-0.324 -8.5312,0.9843 -2.634,1.2848 -4.8399,3.6574 -5.9551,6.0782 l -0.01,0.014 -3.2773,7.0469 c 0.01,-0.01 0.045,-0.062 -0.2129,0.2305 l 0.043,-0.049 c -0.1433,0.1593 -0.3224,0.3395 -0.5625,0.5586 l -0.01,0.01 c -0.6463,0.5917 -1.3964,1.1446 -2.2539,1.666 -1.6246,0.9847 -3.4608,1.7687 -5.4531,2.3769 h -0.01 -0.016 l -0.074,-0.061 -0.082,-0.066 v 0 c 0.151,-2.0478 0.5141,-3.9959 1.1133,-5.7871 0.3264,-0.9711 0.6994,-1.8279 1.1309,-2.582 0.1258,-0.2206 0.2664,-0.4433 0.4257,-0.668 l -0.037,0.053 c 0.2518,-0.3476 0.1819,-0.2687 0.17,-0.2558 l 6.1328,-4.7285 c 2.1386,-1.6188 3.9946,-4.3124 4.6718,-7.1973 0.6946,-2.8888 0.2323,-6.1424 -0.9511,-8.5371 l -0.6641,-1.3867 0.016,0.037 c -1.1425,-2.4201 -3.4032,-4.7899 -6.0722,-6.041 -2.6702,-1.2692 -5.9367,-1.5089 -8.541,-0.8516 l -7.5391,1.832 c 0.014,-9e-4 0.1161,0 -0.3184,-0.025 h 0.068 c -0.2982,-0.017 -0.5577,-0.043 -0.791,-0.08 h -0.012 c -0.8526,-0.1327 -1.758,-0.3783 -2.7207,-0.7286 -1.792,-0.6547 -3.551,-1.5935 -5.2618,-2.7617 v 0 -0.1836 c 0,0 0,0 0,0 1.7147,-1.1708 3.4736,-2.1094 5.2637,-2.7637 l 0.014,-0.01 c 0.5583,-0.2055 1.1851,-0.3805 1.9492,-0.5528 0.1597,-0.036 0.2912,-0.064 0.418,-0.088 0.5437,-0.1025 0.8651,-0.148 1.1602,-0.166 h -0.086 c 0.4203,-0.02 0.3311,-0.023 0.3184,-0.023 l 7.5918,1.8457 c 5.8589,1.4245 11.9099,-1.4149 14.5371,-6.8535 l 0.01,-0.016 0.6895,-1.4375 0.01,-0.016 c 2.6178,-5.43761 1.0716,-11.94933 -3.709,-15.63473 l -6.1172,-4.71484 c -5e-4,-0.0118 7e-4,-0.0245 -0.1152,-0.17969 -0.088,-0.11687 -0.1463,-0.19794 -0.1914,-0.26562 -0.133,-0.19909 -0.1766,-0.2625 -0.209,-0.31641 -0.049,-0.0821 -0.1031,-0.17785 -0.1836,-0.32422 -0.075,-0.13601 -0.149,-0.28923 -0.293,-0.58789 v -0.008 c -0.322,-0.67134 -0.5661,-1.25487 -0.7461,-1.79688 l -0.01,-0.0137 c -0.6031,-1.80261 -0.9649,-3.74893 -1.1153,-5.79492 0,0 0,-0.002 0,-0.002 l 0.082,-0.0684 0.074,-0.0606 0.018,-0.004 0.01,0.004 c 1.9913,0.60769 3.826,1.39292 5.4434,2.37305 0.865,0.526 1.6172,1.0781 2.2636,1.66992 l 0.01,0.008 c 0.201,0.18347 0.3892,0.37386 0.5625,0.56641 l -0.043,-0.0488 c 0.2781,0.31544 0.2198,0.23542 0.2109,0.22266 l 3.2598,7.01757 c 0,0.005 0.01,0.0104 0.01,0.0156 1.11,2.43328 3.3265,4.82239 5.9727,6.11328 2.6601,1.31552 5.928,1.59239 8.5312,0.97656 v 0 l 1.4707,-0.33203 0.047,-0.0117 c 2.6121,-0.58276 5.3999,-2.2528 7.2051,-4.55664 1.8298,-2.3095 2.8048,-5.44091 2.7403,-8.13476 v 0.0547 l -0.1211,-7.7832 c 0,0.0111 0.023,-0.0579 0.072,-0.22461 0.07,-0.24111 0.1593,-0.49399 0.2676,-0.76367 0.3235,-0.80961 0.7589,-1.6306 1.3066,-2.47461 1.0358,-1.59086 2.3413,-3.08507 3.8691,-4.49219 l 0.01,-0.004 c -2e-4,0 0.01,-9.8e-4 0.01,-0.002 z m -8.1563,23.82422 c -0.01,0.0106 -0.015,0.0227 -0.023,0.0332 l 0.051,-0.0644 c -0.01,0.0109 -0.019,0.0204 -0.027,0.0312 z m -29.1894,28.61918 c 0.01,0 0.018,0.01 0.027,0.012 l -0.072,-0.035 c 0.015,0.01 0.03,0.016 0.045,0.024 z m 7.6718,15.9277 c 0,0.011 0,0.022 -0.01,0.033 l 0.02,-0.08 c 0,0.016 -0.01,0.031 -0.014,0.047 z m 21.5215,7.2852 c 0.01,0.01 0.016,0.018 0.024,0.027 l -0.049,-0.062 c 0.01,0.011 0.016,0.024 0.025,0.035 z m 5.3282,-1.1993 c 0,-0.015 0,-0.032 0.01,-0.047 l -0.018,0.082 c 0,-0.012 0.01,-0.023 0.01,-0.035 z m 13.8242,-11.0175 c 0.017,10e-5 0.034,0 0.051,0 h -0.088 c 0.012,0 0.025,0 0.037,0 z m 2.3828,-4.8575 c -0.01,-0.01 -0.019,-0.019 -0.027,-0.029 l 0.051,0.062 c -0.01,-0.01 -0.015,-0.023 -0.023,-0.033 z m 0,-17.6894 c 0.01,-0.01 0.015,-0.021 0.023,-0.031 l -0.051,0.062 c 0.01,-0.011 0.019,-0.02 0.027,-0.031 z m -2.3789,-4.85744 c -0.011,5e-5 -0.022,0.002 -0.033,0.002 h 0.08 c -0.016,2.2e-4 -0.031,-0.002 -0.047,-0.002 z"
         style="fill:url(#linearGradient775);fill-rule:evenodd;stroke:#fce94f;stroke-width:4.25264;stroke-linecap:round;stroke-linejoin:round;stroke-dasharray:none;stroke-opacity:1"
         id="path773" />
      <path
         d="m 1599.0178,879.94594 -0.012,0.007 c -2.0309,1.0795 -3.9031,2.2863 -5.584,3.65235 l -0.02,0.0137 c -0.8683,0.70023 -1.6779,1.46442 -2.4296,2.28906 l -0.01,0.006 c -0.2188,0.24315 -0.4204,0.48422 -0.6074,0.72461 0,0.006 0,0.004 -0.01,0.01 -0.2834,0.37419 -0.3647,0.50488 -0.4121,0.59765 l -2.2266,4.94336 v 0.004 c -0.579,1.28861 -1.4135,2.56134 -2.5117,3.68359 v 0.006 c -1.0747,1.0994 -2.4103,2.05754 -3.9063,2.72656 -1.5213,0.68277 -3.1283,1.03147 -4.6601,1.09961 -1.5222,0.0693 -3.0263,-0.13083 -4.42,-0.57031 l -2.5586,-0.80664 c -1.3625,-0.42689 -2.7352,-1.12607 -3.955,-2.06445 0,-9e-4 0,-10e-4 0,-0.002 -1.2445,-0.95578 -2.3406,-2.17784 -3.1661,-3.55664 0,0 0,-0.002 0,-0.002 -0.8318,-1.38638 -1.3947,-2.93764 -1.6484,-4.49609 -3e-4,-0.002 0,-0.004 0,-0.006 -0.2536,-1.55163 -0.2003,-3.07128 0.064,-4.44727 l 1.0215,-5.33984 c 0.01,-0.0763 0.022,-0.2685 0.01,-0.69336 -0.014,-0.28914 -0.042,-0.60963 -0.086,-0.9707 -0.1408,-1.10447 -0.3651,-2.19613 -0.6739,-3.26758 l -0.01,-0.0234 c -0.5881,-2.07039 -1.4276,-4.12284 -2.4707,-6.16992 l -0.018,-0.01 -0.8007,-0.0332 -0.041,-0.002 v 0 0.002 0.006 c -1.219,1.94987 -2.2357,3.92699 -3.0039,5.94141 l -0.01,0.0215 c -0.3973,1.03056 -0.7128,2.0922 -0.9512,3.18555 -0.068,0.32094 -0.1233,0.63594 -0.166,0.94922 -0.057,0.46656 -0.063,0.63522 -0.059,0.7246 l 0.5488,5.38672 c 0.6678,6.49329 -3.5806,12.35155 -9.9531,13.75977 l -2.6133,0.58008 c -6.3693,1.40801 -12.6908,-2.09442 -14.8398,-8.26563 l -1.7871,-5.12695 c -0.026,-0.0625 -0.1077,-0.21943 -0.336,-0.58594 -9e-4,-10e-4 0,-0.003 0,-0.004 -0.2016,-0.31419 -0.3893,-0.58687 -0.5743,-0.83204 -0.66,-0.86414 -1.4007,-1.68798 -2.2207,-2.47656 l -0.017,-0.0176 c -1.5566,-1.50837 -3.3135,-2.87236 -5.2403,-4.12304 -0.011,-0.007 -0.036,-0.007 -0.045,-0.002 l -0.6934,0.36328 -0.019,0.01 -0.012,0.004 c -0.077,2.2895 0.034,4.51179 0.3789,6.64062 v 0.0234 c 0.1712,1.08056 0.4307,2.15405 0.7754,3.22851 0.1048,0.32052 0.2188,0.63156 0.3418,0.92969 0.1854,0.43375 0.2674,0.58743 0.3008,0.63867 l 3.1777,4.39063 v 0.006 c 0.833,1.14913 1.522,2.52479 1.9414,4.00781 0.4262,1.50202 0.5818,3.14424 0.416,4.75977 -0.1612,1.58586 -0.6256,3.16289 -1.3632,4.58203 l -0.01,0.0117 c 0,-0.002 7e-4,-0.005 0,-0.008 -0.7251,1.39678 -1.6935,2.60494 -2.7247,3.54493 l -1.9668,1.79101 c -1.0478,0.95907 -2.3211,1.79663 -3.7695,2.39063 -1.4252,0.58642 -3.0784,0.93919 -4.6855,0.96093 -1.5911,0.0238 -3.2134,-0.25389 -4.709,-0.82031 -1.4908,-0.56321 -2.7792,-1.37892 -3.8281,-2.28515 l -4.1133,-3.54297 c -0.063,-0.0482 -0.1979,-0.13707 -0.6289,-0.36524 -0.2692,-0.13816 -0.5563,-0.27326 -0.8692,-0.40625 0,-10e-4 -0.01,-9.1e-4 -0.01,-0.002 -1.0393,-0.43423 -2.0933,-0.78503 -3.1719,-1.05274 l -0.021,-0.006 c -2.0986,-0.52889 -4.3109,-0.83191 -6.6153,-0.95508 h -0.012 l -0.01,0.004 -0.023,0.0391 -0.418,0.64843 c 1.0832,2.02401 2.2886,3.88895 3.6543,5.5586 l 0.016,0.0195 c 0.693,0.85397 1.4576,1.65634 2.2968,2.41601 v 0.004 c 0.2757,0.24686 0.5169,0.44912 0.7422,0.62305 0.3644,0.27361 0.5091,0.36397 0.5957,0.4082 l 4.9629,2.2207 c 1.2809,0.57179 2.5688,1.4096 3.6875,2.4961 1.1361,1.10106 2.0858,2.44845 2.7481,3.92187 v 0.006 c 0.655,1.45504 1.0355,3.05675 1.1074,4.63086 0.074,1.56987 -0.1541,3.09411 -0.582,4.44336 l -0.8047,2.54492 c -0.4298,1.36445 -1.1329,2.7384 -2.0723,3.95313 v 0.004 c -0.9417,1.21901 -2.1625,2.32841 -3.5742,3.16602 v 0.002 c -1.4179,0.84327 -2.9737,1.37669 -4.4883,1.6211 0,-6.4e-4 0.01,6.3e-4 0.012,0 l -0.016,0.002 c -1.5023,0.24374 -3.0176,0.21882 -4.4511,-0.0566 l -5.3321,-1.02539 c -0.068,-0.009 -0.2502,-0.0184 -0.7304,-0.002 -0.3362,0.0157 -0.6593,0.0428 -0.9805,0.082 0,3.2e-4 -0.01,-3.3e-4 -0.01,0 -1.1029,0.14073 -2.1931,0.3649 -3.2656,0.67187 l -0.024,0.006 c -2.0849,0.5886 -4.1482,1.42817 -6.2031,2.46875 v 0 l -0.01,0.0117 -0.031,0.7832 v 0.0156 0.004 0 c 1.9571,1.21564 3.9396,2.23145 5.9629,2.99805 l 0.024,0.008 c 1.0269,0.39349 2.098,0.71047 3.209,0.95117 l 0.01,0.002 c 0.3379,0.0709 0.6545,0.12499 0.961,0.16601 0.4812,0.0584 0.6544,0.0644 0.705,0.0625 l 5.4121,-0.55664 c 1.42,-0.14654 2.9598,-0.0508 4.459,0.33008 0,0 0,0 0,0 1.4948,0.37845 2.9964,1.05303 4.3301,2.01563 1.3174,0.94825 2.441,2.15177 3.2832,3.46679 0.8598,1.33989 1.4139,2.77794 1.7129,4.12696 l 0.58,2.59765 c 0.3047,1.36262 0.4068,2.88983 0.1953,4.46289 v 0.004 c -0.2077,1.5514 -0.7188,3.11541 -1.5156,4.53516 -0.7948,1.42033 -1.8664,2.67139 -3.0722,3.65234 v 0.004 c -1.1946,0.97314 -2.5369,1.70805 -3.9043,2.17968 l -5.1347,1.77344 c -0.069,0.0284 -0.2141,0.10328 -0.6192,0.35547 -0.2637,0.16873 -0.5343,0.3559 -0.8125,0.56445 l -0.01,0.006 c -0.8847,0.67211 -1.7072,1.40256 -2.4785,2.19922 l -0.018,0.0156 c -1.511,1.5496 -2.8817,3.30492 -4.1308,5.21679 v 0.002 l 0.3731,0.71484 0.01,0.0117 v 0.002 h 0.012 c 2.3014,0.0772 4.5274,-0.0335 6.6699,-0.37891 l 0.024,-0.004 c 1.1111,-0.17507 2.1939,-0.43224 3.2519,-0.76953 0.3184,-0.10353 0.6315,-0.21814 0.9336,-0.3418 0.4259,-0.18071 0.5761,-0.25925 0.6387,-0.29883 l 4.4101,-3.17773 c 1.1395,-0.8226 2.5154,-1.51374 4.0157,-1.93555 0,-5.5e-4 0,-10e-4 0.01,-0.002 1.5027,-0.42347 3.1414,-0.57757 4.7578,-0.41211 1.6114,0.16303 3.1864,0.64191 4.5762,1.36133 v 0.002 c 1.3982,0.72247 2.6012,1.68543 3.541,2.70898 v 0.004 l 1.8047,1.96094 c 0.9487,1.0295 1.8059,2.31365 2.4063,3.76758 0.5975,1.44309 0.9424,3.06031 0.9648,4.67773 0.025,1.62221 -0.272,3.24008 -0.8281,4.70315 -0.5525,1.4583 -1.366,2.773 -2.2969,3.8437 l -3.5566,4.1016 c -0.047,0.06 -0.1287,0.182 -0.3613,0.6191 l -0.01,0.012 c -0.1447,0.2802 -0.2808,0.5675 -0.4043,0.8555 -10e-4,0 -9e-4,0.01 0,0.01 -0.4313,1.0259 -0.7814,2.077 -1.0507,3.1563 l -0.01,0.023 c -0.5301,2.0898 -0.8354,4.2832 -0.959,6.5645 -10e-5,0 1e-4,0 0,0 v 0 l 0.012,0.01 0.6895,0.4394 v 0 0 0 l 0.012,-0.01 c 2.0376,-1.0832 3.9201,-2.2923 5.5938,-3.6523 l 0.02,-0.014 c 0.8515,-0.6868 1.6518,-1.4449 2.4102,-2.2754 0,0 0,0 0,-0.01 0.2146,-0.2378 0.4262,-0.4924 0.6347,-0.7618 0.2971,-0.3934 0.3898,-0.539 0.4141,-0.5859 l 2.2148,-4.9316 c 0.5829,-1.2994 1.4311,-2.5828 2.5215,-3.6973 0,0 0,0 0,0 1.098,-1.1232 2.4443,-2.0652 3.9043,-2.7188 0,-5e-4 0,0 0,0 1.4701,-0.6598 3.0753,-1.0374 4.6504,-1.1074 v 0 c 1.5486,-0.07 3.0695,0.1499 4.4316,0.58 l 2.5469,0.8047 h 0.01 c 1.3339,0.4198 2.6936,1.0904 3.9433,2.0508 1.2283,0.9417 2.3369,2.1528 3.1817,3.5644 0.8496,1.416 1.3934,2.9767 1.6406,4.4942 0.2479,1.5107 0.2174,3.0509 -0.059,4.4765 l -1.0254,5.3184 c -0.01,0.058 -0.014,0.2157 0,0.6914 0.017,0.3635 0.042,0.6889 0.078,0.9863 0.1411,1.1012 0.3644,2.1873 0.6719,3.2539 l 0.01,0.024 c 0.59,2.0772 1.4289,4.1331 2.4707,6.1777 v 0 0 h 0.066 l 0.7832,0.039 0.016,-0.01 v -0.01 c 1.2177,-1.9478 2.2328,-3.9243 3.002,-5.9414 l 0.01,-0.022 c 0.3991,-1.0349 0.7158,-2.0895 0.9512,-3.166 7e-4,0 0,-0.01 0,-0.01 0.066,-0.3103 0.1214,-0.6316 0.166,-0.959 0.058,-0.4686 0.063,-0.6193 0.059,-0.707 l -0.5586,-5.3945 c -0.1469,-1.4149 -0.052,-2.956 0.332,-4.459 -7e-4,0 0,0 0,0.01 v -0.014 c 0.3855,-1.5127 1.0705,-3.0046 2.0274,-4.3242 0.9652,-1.3349 2.1774,-2.4445 3.4746,-3.2715 l 0.012,-0.01 c 0,0 0,0 -0.01,0.01 1.3075,-0.8348 2.7237,-1.4019 4.1211,-1.709 l 2.6055,-0.5781 c 1.4002,-0.3105 2.9327,-0.391 4.4668,-0.1856 1.5653,0.2076 3.1267,0.7239 4.5234,1.502 1.3965,0.7753 2.6638,1.8301 3.6699,3.0586 0.9816,1.1959 1.7201,2.5463 2.1914,3.9043 l 1.7774,5.1054 c 0.031,0.077 0.1145,0.2358 0.3516,0.6153 0.1707,0.2656 0.358,0.5357 0.5683,0.8144 l 0.01,0.01 c 0.6825,0.8929 1.4172,1.7208 2.205,2.4785 l 0.018,0.018 c 1.549,1.5011 3.3134,2.8634 5.2481,4.1192 h 0.027 l 0.022,-0.012 0.7129,-0.3672 0.01,-0.016 c 0.076,-2.2846 -0.035,-4.4989 -0.3789,-6.6211 v -0.023 c -0.1731,-1.0923 -0.432,-2.1722 -0.7734,-3.2364 -0.1048,-0.3202 -0.2188,-0.6315 -0.3418,-0.9297 -0.1803,-0.4216 -0.258,-0.5695 -0.295,-0.6269 l -3.1894,-4.3867 c -0.8355,-1.1503 -1.528,-2.5285 -1.9492,-4.0176 -6e-4,0 0,0 0,-0.01 -0.4287,-1.5125 -0.5802,-3.1482 -0.4141,-4.76558 0.1668,-1.64685 0.6676,-3.22192 1.377,-4.58399 7e-4,-10e-4 0,-0.003 0,-0.004 0.7142,-1.37357 1.6647,-2.5762 2.7148,-3.53516 v -0.004 c 0,-10e-4 0,-0.003 0,-0.004 l 1.9609,-1.79297 c 1.0598,-0.96997 2.3499,-1.80354 3.7696,-2.38672 0,-7.7e-4 0,-10e-4 0.01,-0.002 1.4304,-0.58847 3.0417,-0.93885 4.6758,-0.96094 1.6375,-0.0245 3.252,0.28029 4.7012,0.82813 1.4204,0.53546 2.7421,1.32391 3.8457,2.27734 l 4.1074,3.54492 c 0.014,0.009 0.1382,0.092 0.5274,0.30078 l 0.01,0.006 c 0.067,0.0356 0.1343,0.0692 0.2871,0.14453 0.088,0.0434 0.1884,0.0897 0.3028,0.14258 0.5326,0.2434 1.0545,0.44607 1.5703,0.625 0.2513,0.0642 0.2347,0.0765 0.2046,0.0751 0,10e-4 0,0.002 0,0.003 0.6054,0.19986 1.2202,0.37911 1.8521,0.53928 0,4.5e-4 0,10e-4 0.01,0.002 l 0.01,0.002 c 0.7582,0.18901 1.578,0.34041 2.5234,0.49414 1.3865,0.2237 2.7203,0.38112 4.0137,0.44726 l 0.022,0.002 0.019,-0.01 0.4102,-0.65039 0.02,-0.0293 c -0.5467,-1.02044 -1.1451,-2.02375 -1.791,-3.00195 -0.066,-0.0995 -0.2385,-0.29115 -0.5703,-0.76367 -0.5639,-0.80289 -0.9736,-1.39101 -1.4238,-1.9336 l -0.01,-0.0117 c 0,10e-6 0.018,0.0345 -0.2871,-0.32031 -0.6556,-0.76495 -1.2579,-1.40079 -1.875,-1.95898 -0.2401,-0.2147 -0.4909,-0.42295 -0.7422,-0.61719 -0.01,-0.005 0,-10e-4 -0.01,-0.006 -0.394,-0.29662 -0.5188,-0.37452 -0.5918,-0.41211 l -4.9726,-2.22265 c -1.3074,-0.58264 -2.5748,-1.4249 -3.6797,-2.49805 -1.0923,-1.05852 -2.0682,-2.38681 -2.752,-3.9043 -8e-4,-0.002 0,-0.004 0,-0.006 -0.682,-1.51123 -1.0389,-3.12474 -1.1074,-4.66211 -0.07,-1.51215 0.1327,-3.0338 0.5742,-4.42773 l 0.8047,-2.54102 c 0.4251,-1.34889 1.1192,-2.72441 2.0761,-3.96093 9e-4,-10e-4 0,-0.003 0,-0.004 0.9656,-1.24931 2.191,-2.33864 3.5781,-3.16211 0,-10e-4 0,-0.003 0.01,-0.004 1.4135,-0.84082 2.9678,-1.3761 4.4824,-1.62109 0,-3.2e-4 0,-0.002 0.01,-0.002 1.5554,-0.25262 3.0738,-0.19901 4.455,0.0664 l 5.3301,1.01563 c 0.072,0.01 0.2391,0.0188 0.7246,0.002 0.3366,-0.0157 0.6654,-0.0414 0.9844,-0.0801 1.1031,-0.14035 2.1918,-0.36533 3.2695,-0.67383 l 0.024,-0.006 c 2.0862,-0.58891 4.1568,-1.42889 6.207,-2.4668 v -0.004 -0.0566 l 0.039,-0.74609 v -0.002 c -1.9522,-1.21271 -3.9448,-2.22975 -5.9726,-2.99804 l -0.022,-0.008 c -1.0526,-0.40323 -2.1204,-0.72271 -3.2012,-0.95704 -0.329,-0.0693 -0.6549,-0.12455 -0.9785,-0.16796 -0.4542,-0.0552 -0.6246,-0.063 -0.7129,-0.0586 l -5.4062,0.55078 c -1.3663,0.14098 -2.9109,0.0687 -4.4493,-0.32226 0,-3.3e-4 0,3.2e-4 0,0 -1.5309,-0.38769 -3.0183,-1.07809 -4.3222,-2.01758 -1.3164,-0.94592 -2.4414,-2.14609 -3.2852,-3.46094 l -0.01,-0.0117 c 0,0.002 0,0.004 0.01,0.006 -0.8316,-1.29375 -1.4135,-2.7211 -1.7247,-4.12695 l -0.58,-2.5957 c -0.3134,-1.40198 -0.3937,-2.94615 -0.1856,-4.48047 0.2096,-1.56108 0.7238,-3.12085 1.5156,-4.53125 8e-4,-10e-4 0,-0.003 0,-0.004 0.7863,-1.40311 1.8487,-2.65719 3.0605,-3.64453 0,-0.002 0,-0.002 0.01,-0.004 1.2175,-0.99287 2.5605,-1.70931 3.9004,-2.17187 l 5.1445,-1.7832 c 0.088,-0.0357 0.2191,-0.10204 0.6133,-0.34766 0.2694,-0.17237 0.5357,-0.35539 0.7969,-0.55078 0,-10e-4 0,-0.003 0,-0.004 0.8831,-0.6694 1.7212,-1.41419 2.5058,-2.22461 l 0.016,-0.0156 c 1.5062,-1.54469 2.8707,-3.29522 4.125,-5.21485 l -0.01,-0.0195 -0.3555,-0.68945 -0.029,-0.0176 0.018,-0.002 -6e-4,-3.8e-4 -0.019,-0.002 c -2.3009,-0.0775 -4.5267,0.0334 -6.6699,0.37891 l -0.024,0.004 c -1.0865,0.1712 -2.1703,0.43219 -3.248,0.77539 -0.3593,0.11662 -0.6643,0.22788 -0.9375,0.33984 0,0.002 -0.01,0.002 -0.014,0.004 -0.3966,0.1691 -0.5589,0.25282 -0.6191,0.29101 l -4.4141,3.1836 c -1.1643,0.84024 -2.5198,1.51075 -4.0098,1.92968 v 0 c -1.4911,0.42076 -3.174,0.5775 -4.7695,0.41407 0,-2e-4 0,2e-4 -0.01,0 -1.6065,-0.16332 -3.1768,-0.64155 -4.5625,-1.35742 0,-10e-4 0,-0.003 -0.01,-0.004 0,-9.3e-4 0,-10e-4 -0.01,-0.002 -1.3791,-0.71233 -2.5735,-1.64862 -3.543,-2.70508 l -1.8047,-1.95703 c -0.9824,-1.06656 -1.8154,-2.36029 -2.3965,-3.76563 -7e-4,-0.002 0,-0.004 0,-0.006 -0.6013,-1.45202 -0.9445,-3.05987 -0.9668,-4.6875 -0.025,-1.63238 0.2791,-3.25124 0.8301,-4.70117 0.5524,-1.45839 1.3661,-2.77315 2.2968,-3.84375 l 3.545,-4.08984 c 0.05,-0.0642 0.1468,-0.21208 0.3711,-0.63282 0.1332,-0.25804 0.2653,-0.53715 0.4023,-0.85742 0,-0.003 0,-0.006 0,-0.01 0.4389,-1.04393 0.7921,-2.09474 1.0566,-3.1543 l 0.01,-0.0234 c 0.527,-2.07803 0.8292,-4.28306 0.9531,-6.58008 v -0.004 l -0.6504,-0.40821 -0.045,-0.0273 -0.029,-0.002 0.012,-0.009 z m -26.8752,122.28646 c 0,5e-4 0.01,-4e-4 0.01,0 h -0.016 c 0,2e-4 0,0 0.01,0 z"
         style="fill:url(#linearGradient777);fill-rule:evenodd;stroke:#729fcf;stroke-width:4.25264;stroke-linecap:round;stroke-linejoin:round;stroke-dasharray:none;stroke-opacity:1"
         id="path774" />
      <ellipse
         style="fill:#0c1522;fill-opacity:1;fill-rule:nonzero;stroke:#729fcf;stroke-width:6.37896;stroke-linecap:round;stroke-linejoin:round;stroke-dasharray:none;stroke-opacity:1;paint-order:markers fill stroke"
         id="path777"
         cx="1555.9506"
         cy="950.96667"
         rx="15.405758"
         ry="15.39834" />
      <ellipse
         style="fill:#221e0c;fill-opacity:1;fill-rule:nonzero;stroke:#fce94f;stroke-width:6.37896;stroke-linecap:round;stroke-linejoin:round;stroke-dasharray:none;stroke-opacity:1;paint-order:markers fill stroke"
         id="path778"
         cx="1660.8358"
         cy="1010.7631"
         rx="12.065539"
         ry="12.059719" />
    </g>
  </g>
  <g
     id="g3"
     transform="matrix(-0.4990955,-0.2902006,-0.29016557,0.49923446,49.269759,10.022539)"
     style="display:inline;stroke-width:1.14374">
    <path
       style="fill:#cc0000;stroke:#280000;stroke-width:2.2875;stroke-linecap:butt;stroke-linejoin:round;stroke-opacity:1"
       d="m 22,23 v 8 L 11,18 22,5 v 8 c 13.990861,0.89236 21.709688,5.800761 29.050356,20.088298 L 42.152059,39.09018 C 39.06111,31.270541 32,23 22,23 Z"
       id="path1" />
    <path
       style="fill:none;stroke:#ef2929;stroke-width:2.2875;stroke-linecap:butt;stroke-linejoin:miter;stroke-opacity:1"
       d="M 20,10.5 13.6,18 20,25.5 V 21 c 9,-1 17.528195,4.302646 23.08961,15.156457 l 5.317803,-3.78926 C 43.035465,23.02279 36.505774,14.797281 20,15 Z"
       id="path2" />
  </g>
  <g
     id="g2"
     transform="matrix(0.45334767,0.35747532,-0.35761744,0.45336619,50.550741,16.062442)"
     style="display:inline;stroke-width:1.14374">
    <path
       style="fill:#cc0000;stroke:#280000;stroke-width:2.2875;stroke-linecap:butt;stroke-linejoin:round;stroke-opacity:1"
       d="m 22,23 v 8 L 11,18 22,5 v 8 c 13.990861,0.89236 21.709688,5.800761 29.050356,20.088298 L 42.152059,39.09018 C 39.06111,31.270541 32,23 22,23 Z"
       id="path3892" />
    <path
       style="fill:none;stroke:#ef2929;stroke-width:2.2875;stroke-linecap:butt;stroke-linejoin:miter;stroke-opacity:1"
       d="M 20,10.5 13.6,18 20,25.5 V 21 c 9,-1 17.528195,4.302646 23.08961,15.156457 l 5.317803,-3.78926 C 43.035465,23.02279 36.505774,14.797281 20,15 Z"
       id="path3918" />
  </g>
</svg>
