<?xml version="1.0" encoding="UTF-8" standalone="no"?>
<svg
   width="64px"
   height="64px"
   id="svg2821"
   version="1.1"
   xmlns:xlink="http://www.w3.org/1999/xlink"
   xmlns="http://www.w3.org/2000/svg"
   xmlns:svg="http://www.w3.org/2000/svg"
   xmlns:rdf="http://www.w3.org/1999/02/22-rdf-syntax-ns#"
   xmlns:cc="http://creativecommons.org/ns#"
   xmlns:dc="http://purl.org/dc/elements/1.1/">
  <defs
     id="defs2823">
    <linearGradient
       id="linearGradient4">
      <stop
         style="stop-color:#3465a4;stop-opacity:1;"
         offset="0"
         id="stop3" />
      <stop
         style="stop-color:#729fcf;stop-opacity:1;"
         offset="1"
         id="stop4" />
    </linearGradient>
    <linearGradient
       id="linearGradient3801">
      <stop
         style="stop-color:#c4a000;stop-opacity:1"
         offset="0"
         id="stop3803" />
      <stop
         style="stop-color:#fce94f;stop-opacity:1"
         offset="1"
         id="stop3805" />
    </linearGradient>
    <linearGradient
       xlink:href="#linearGradient3801"
       id="linearGradient3807"
       x1="110"
       y1="35"
       x2="85"
       y2="35"
       gradientUnits="userSpaceOnUse"
       spreadMethod="reflect"
       gradientTransform="translate(-61,-0.19620034)" />
    <linearGradient
       xlink:href="#linearGradient4"
       id="linearGradient3"
       gradientUnits="userSpaceOnUse"
       gradientTransform="matrix(0.98307932,0,0,0.98280534,-59.426377,1.0297335)"
       x1="110"
       y1="35"
       x2="85"
       y2="35"
       spreadMethod="reflect" />
    <linearGradient
       xlink:href="#linearGradient4"
       id="linearGradient9"
       x1="32"
       y1="64"
       x2="32"
       y2="14.419661"
       gradientUnits="userSpaceOnUse" />
  </defs>
  <metadata
     id="metadata2826">
    <rdf:RDF>
      <cc:Work
         rdf:about="">
        <dc:format>image/svg+xml</dc:format>
        <dc:type
           rdf:resource="http://purl.org/dc/dcmitype/StillImage" />
        <dc:creator>
          <cc:Agent>
            <dc:title>[wmayer]</dc:title>
          </cc:Agent>
        </dc:creator>
        <dc:date>2011-10-10</dc:date>
        <dc:relation>https://www.freecad.org/wiki/index.php?title=Artwork</dc:relation>
        <dc:publisher>
          <cc:Agent>
            <dc:title>FreeCAD</dc:title>
          </cc:Agent>
        </dc:publisher>
        <dc:identifier>FreeCAD/src/Mod/Part/Gui/Resources/icons/Part_Cylinder.svg</dc:identifier>
        <dc:rights>
          <cc:Agent>
            <dc:title>FreeCAD LGPL2+</dc:title>
          </cc:Agent>
        </dc:rights>
        <cc:license>https://www.gnu.org/copyleft/lesser.html</cc:license>
        <dc:contributor>
          <cc:Agent>
            <dc:title>[agryson] Alexander Gryson</dc:title>
          </cc:Agent>
        </dc:contributor>
      </cc:Work>
    </rdf:RDF>
  </metadata>
  <g
     id="layer1">
    <g
       id="layer3"
       style="display:inline">
      <path
         style="fill:#204a87;fill-opacity:1;stroke:#0c1522;stroke-width:2;stroke-linecap:round;stroke-miterlimit:4;stroke-dasharray:none;stroke-opacity:1;paint-order:normal"
         id="path4"
         d="M 29.921921,10.073012 26.993293,6.1977395 C 26.21651,5.1698698 25.163057,4.5924975 24.064598,4.5924975 H 5.0714589 c -1.1437425,0 -2.0708717,1.2268134 -2.0708717,2.740257 V 58.484215 c 0,0.504481 0.309043,0.913419 0.6902905,0.913419 H 60.294706 c 0.381247,0 0.690291,-0.408938 0.690291,-0.913419 V 12.813269 c 0,-1.513445 -0.927129,-2.740257 -2.070872,-2.740257 z" />
      <path
         style="fill:#204a87;fill-opacity:1;stroke:#3465a4;stroke-width:2;stroke-linecap:round;stroke-miterlimit:4;stroke-dasharray:none;stroke-opacity:1;paint-order:normal"
         id="path7"
         d="M 5.2089844,6.5917969 H 24.064453 c 0.375444,0 0.874561,0.2026195 1.333984,0.8105468 l 3.527344,4.6699223 h 29.84961 c 0.0082,0.01044 0.01784,0.02289 0.02734,0.03711 0.01056,0.0158 0.02193,0.03237 0.0332,0.05273 0.08049,0.145363 0.148438,0.361331 0.148438,0.650391 v 44.58594 H 5 V 7.3320312 C 5,7.0436394 5.0678061,6.828994 5.1484375,6.6835937 c 0.011294,-0.020366 0.022609,-0.038859 0.033203,-0.054687 0.00953,-0.014245 0.019073,-0.026632 0.027344,-0.03711 z" />
      <path
         style="fill:#729fcf;fill-opacity:1;stroke:#0c1522;stroke-width:2;stroke-linecap:round;stroke-linejoin:round;stroke-miterlimit:4;stroke-dasharray:none;stroke-opacity:1;paint-order:normal"
         id="path6"
         d="m 29.919347,14.419661 -2.927223,3.534545 C 26.215716,18.891703 25.16247,19.41831 24.064012,19.41831 H 3.0000008 l 0.015588,39.156085 c 2.171e-4,0.460126 0.3093777,0.833108 0.6906252,0.833108 h 56.603828 c 0.381248,0 0.690139,-0.372982 0.689957,-0.833108 L 60.983419,16.918986 C 60.982865,15.538609 60.055293,14.419661 58.91155,14.419661 H 29.919344 Z" />
      <path
         style="fill:url(#linearGradient9);fill-opacity:1;stroke:#729fcf;stroke-width:2;stroke-linecap:round;stroke-linejoin:round;stroke-miterlimit:4;stroke-dasharray:none;stroke-opacity:1;paint-order:normal"
         id="path8"
         d="m 30.861328,16.419922 h 28.050781 c 0,0 0.07225,0.463543 0.07227,0.5 L 59,57.408203 H 5.015625 L 5,21.417969 h 19.064453 c 1.756119,0 3.349555,-0.836095 4.46875,-2.1875 z" />
    </g>
    <g
       id="g2"
       transform="matrix(0.61183741,0,0,0.61123957,12.4212,17.998573)"
       style="stroke-width:0.854151">
      <g
         id="g1"
         transform="translate(3.6192085e-6,-0.89630564)"
         style="stroke-width:0.854151">
        <path
           style="fill:#fce94f;stroke:#302b00;stroke-width:1.7083;stroke-linecap:round;stroke-linejoin:round;stroke-miterlimit:4.5;stroke-dashoffset:20.4;stroke-opacity:1"
           d="m 56.000001,52.8038 c 0,4.418278 -10.745166,8 -24,8 -13.254833,0 -23.9999985,-3.581722 -23.9999985,-8 l -2e-6,-18.217405 H 56 Z"
           id="path2994-3" />
        <path
           style="fill:url(#linearGradient3807);fill-opacity:1;stroke:#fce94f;stroke-width:1.7083;stroke-linecap:round;stroke-linejoin:round;stroke-miterlimit:4.5;stroke-dashoffset:20.4;stroke-opacity:1"
           d="m 54,51.531073 c 0,4.016616 -9.84973,7.272727 -22,7.272727 -12.150264,0 -21.999999,-3.256111 -21.999999,-7.272727 l -1.5e-6,-15.950307 H 54 Z"
           id="path2994-3-6" />
        <path
           style="fill:none;stroke:#fce94f;stroke-width:1.7083;stroke-linecap:round;stroke-linejoin:round;stroke-miterlimit:4.5;stroke-dashoffset:20.4;stroke-opacity:1"
           d="m 54,38.835626 c -2,3.272727 -9.84973,5.272727 -22,5.272727 -12.150264,0 -19,-2 -21.999999,-5.272727"
           id="path2994-3-6-9" />
        <ellipse
           style="fill:#fce94f;stroke:#302b00;stroke-width:1.49476;stroke-linecap:round;stroke-linejoin:round;stroke-miterlimit:4.5;stroke-dasharray:none;stroke-dashoffset:20.4;stroke-opacity:1"
           id="path2994"
           cx="32"
           cy="34.381172"
           rx="24"
           ry="7.9999995" />
      </g>
      <path
         d="m 44.724484,42.214865 v 8.096549 c 0,0 -1.084323,3.922162 -12.564831,3.922162 -11.480508,0 -11.750143,-3.922162 -11.750143,-3.922162 v -7.8593"
         style="fill:#729fcf;fill-opacity:1;stroke:#fce94f;stroke-width:1.77948;stroke-linecap:round;stroke-linejoin:round;stroke-miterlimit:4.5;stroke-dashoffset:20.4;stroke-opacity:1"
         id="path1-5"
         transform="matrix(0.96000015,0,0,0.96000015,1.2799944,2.2388113)" />
      <path
         d="m 42.423915,37.93471 v 11.605108 c 0,0 0.105469,2.899307 -10.224895,2.899307 -10.330364,0 -9.561926,-2.899307 -9.561926,-2.899307 V 38.110087"
         style="fill:#729fcf;fill-opacity:1;stroke:#302b00;stroke-width:1.7083;stroke-linecap:round;stroke-linejoin:round;stroke-miterlimit:4.5;stroke-dashoffset:20.4;stroke-opacity:1"
         id="path1-6" />
      <g
         id="g3"
         transform="translate(3.6192085e-6,-20.496033)"
         style="stroke-width:0.854151">
        <path
           style="fill:#729fcf;fill-opacity:1;stroke:#0b1521;stroke-width:2.45283037;stroke-linecap:round;stroke-linejoin:round;stroke-miterlimit:4.5;stroke-dashoffset:20.4;stroke-opacity:1;stroke-dasharray:none"
           d="m 56.000001,52.8038 c 0,3.292855 -5.968324,6.121052 -14.495801,7.348199 v 9.235537 c 0,0 0.0958,2.307316 -9.287334,2.307316 -9.383131,0 -8.685155,-2.307316 -8.685155,-2.307316 V 60.291568 C 14.4556,59.150481 8.0000025,56.228438 8.0000025,52.8038 l -2e-6,-18.217405 H 56 Z"
           id="path1" />
        <path
           style="fill:url(#linearGradient3);fill-opacity:1;stroke:#729fcf;stroke-width:2.45283;stroke-linecap:round;stroke-linejoin:round;stroke-miterlimit:4.5;stroke-dasharray:none;stroke-dashoffset:20.4;stroke-opacity:1"
           d="m 53.627745,51.867574 c 0,3.124022 -6.064364,5.779939 -14.514788,6.752122 v 9.88738 c 0,0 -3.337936,0.817369 -6.483138,0.809873 -3.145202,-0.0075 -6.427599,-0.809873 -6.427599,-0.809873 V 58.755519 C 17.072982,57.918034 10.372256,55.151416 10.372256,51.867574 l -1e-6,-15.676047 h 43.25549 z"
           id="path2" />
        <path
           style="fill:none;stroke:#729fcf;stroke-width:1.7083;stroke-linecap:round;stroke-linejoin:round;stroke-miterlimit:4.5;stroke-dashoffset:20.4;stroke-opacity:1"
           d="m 54,38.835626 c -2,3.272727 -9.84973,5.272727 -22,5.272727 -12.150264,0 -19,-2 -21.999999,-5.272727"
           id="path3" />
        <ellipse
           style="fill:#729fcf;fill-opacity:1;stroke:#0b1521;stroke-width:2.45283037;stroke-linecap:round;stroke-linejoin:round;stroke-miterlimit:4.5;stroke-dasharray:none;stroke-dashoffset:20.4;stroke-opacity:1"
           id="ellipse3"
           cx="32"
           cy="34.381172"
           rx="24"
           ry="7.9999995" />
      </g>
    </g>
  </g>
</svg>
