<?xml version="1.0" encoding="UTF-8" standalone="no"?>
<svg
   width="64px"
   height="64px"
   id="svg2821"
   version="1.1"
   xmlns:xlink="http://www.w3.org/1999/xlink"
   xmlns="http://www.w3.org/2000/svg"
   xmlns:svg="http://www.w3.org/2000/svg"
   xmlns:rdf="http://www.w3.org/1999/02/22-rdf-syntax-ns#"
   xmlns:cc="http://creativecommons.org/ns#"
   xmlns:dc="http://purl.org/dc/elements/1.1/">
  <defs
     id="defs2823">
    <linearGradient
       id="linearGradient59">
      <stop
         style="stop-color:#c4a000;stop-opacity:1;"
         offset="0"
         id="stop59" />
      <stop
         style="stop-color:#fce94f;stop-opacity:1;"
         offset="0.67682928"
         id="stop58" />
      <stop
         style="stop-color:#c4a000;stop-opacity:1;"
         offset="1"
         id="stop805" />
    </linearGradient>
    <linearGradient
       id="linearGradient53">
      <stop
         style="stop-color:#729fcf;stop-opacity:1"
         offset="0"
         id="stop53" />
      <stop
         style="stop-color:#3465a4;stop-opacity:1;"
         offset="1"
         id="stop52" />
    </linearGradient>
    <linearGradient
       id="linearGradient11">
      <stop
         style="stop-color:#c4a000;stop-opacity:1"
         offset="0"
         id="stop11" />
      <stop
         style="stop-color:#fce94f;stop-opacity:1"
         offset="1"
         id="stop9" />
    </linearGradient>
    <linearGradient
       id="linearGradient6">
      <stop
         style="stop-color:#729fcf;stop-opacity:1;"
         offset="0"
         id="stop6" />
      <stop
         style="stop-color:#3465a4;stop-opacity:1;"
         offset="1"
         id="stop5" />
    </linearGradient>
    <linearGradient
       id="linearGradient4">
      <stop
         style="stop-color:#729fcf;stop-opacity:1;"
         offset="0"
         id="stop4" />
      <stop
         style="stop-color:#3465a4;stop-opacity:1;"
         offset="1"
         id="stop1" />
    </linearGradient>
    <linearGradient
       id="linearGradient3">
      <stop
         style="stop-color:#fce94f;stop-opacity:1"
         offset="0"
         id="stop3" />
      <stop
         style="stop-color:#c4a000;stop-opacity:1"
         offset="1"
         id="stop2" />
    </linearGradient>
    <linearGradient
       id="linearGradient35">
      <stop
         style="stop-color:#3465a4;stop-opacity:1;"
         offset="0"
         id="stop33" />
      <stop
         style="stop-color:#729fcf;stop-opacity:1;"
         offset="1"
         id="stop34" />
    </linearGradient>
    <linearGradient
       id="linearGradient21">
      <stop
         style="stop-color:#3465a4;stop-opacity:1;"
         offset="0"
         id="stop21" />
      <stop
         style="stop-color:#3465a4;stop-opacity:0;"
         offset="1"
         id="stop22" />
    </linearGradient>
    <radialGradient
       xlink:href="#linearGradient3377"
       id="radialGradient3701"
       gradientUnits="userSpaceOnUse"
       cx="84.883324"
       cy="77.042847"
       fx="84.883324"
       fy="77.042847"
       r="19.467436"
       gradientTransform="matrix(2.8492421,1.2585119,-0.4040415,0.9147407,-125.84131,-100.25805)" />
    <linearGradient
       id="linearGradient3377">
      <stop
         id="stop3379"
         offset="0"
         style="stop-color:#faff2b;stop-opacity:1;" />
      <stop
         id="stop3381"
         offset="1"
         style="stop-color:#ffaa00;stop-opacity:1;" />
    </linearGradient>
    <radialGradient
       xlink:href="#linearGradient3377"
       id="radialGradient3699"
       gradientUnits="userSpaceOnUse"
       cx="76.383331"
       cy="94.369568"
       fx="76.383331"
       fy="94.369568"
       r="19.467436"
       gradientTransform="matrix(0.9818943,0.1894295,-0.4109427,2.1300924,40.163453,-121.11559)" />
    <linearGradient
       xlink:href="#linearGradient3801-5"
       id="linearGradient3807-7"
       x1="110"
       y1="35"
       x2="85"
       y2="35"
       gradientUnits="userSpaceOnUse"
       spreadMethod="reflect"
       gradientTransform="translate(-62,-16)" />
    <linearGradient
       id="linearGradient3801-5">
      <stop
         style="stop-color:#c4a000;stop-opacity:1"
         offset="0"
         id="stop3803-3" />
      <stop
         style="stop-color:#fce94f;stop-opacity:1"
         offset="1"
         id="stop3805-5" />
    </linearGradient>
    <linearGradient
       xlink:href="#linearGradient3838"
       id="linearGradient3844"
       x1="2802.9631"
       y1="538.36249"
       x2="2859.7263"
       y2="786.05646"
       gradientUnits="userSpaceOnUse" />
    <linearGradient
       id="linearGradient3838">
      <stop
         style="stop-color:#34e0e2;stop-opacity:1"
         offset="0"
         id="stop3840" />
      <stop
         style="stop-color:#06989a;stop-opacity:1"
         offset="1"
         id="stop3842" />
    </linearGradient>
    <linearGradient
       y2="786.05646"
       x2="2859.7263"
       y1="538.36249"
       x1="2802.9631"
       gradientUnits="userSpaceOnUse"
       id="linearGradient3045"
       xlink:href="#linearGradient3172" />
    <linearGradient
       id="linearGradient3172">
      <stop
         id="stop3174"
         offset="0"
         style="stop-color:#ef2929;stop-opacity:1" />
      <stop
         id="stop3176"
         offset="1"
         style="stop-color:#a40000;stop-opacity:1" />
    </linearGradient>
    <linearGradient
       xlink:href="#linearGradient3172"
       id="linearGradient3880"
       gradientUnits="userSpaceOnUse"
       x1="2802.9631"
       y1="626.0874"
       x2="2849.4058"
       y2="822.17853" />
    <linearGradient
       xlink:href="#linearGradient11"
       id="linearGradient22"
       x1="22.782017"
       y1="37.760967"
       x2="10.12716"
       y2="31.568081"
       gradientUnits="userSpaceOnUse"
       gradientTransform="matrix(1.0546639,0,0,1.047623,-9.2679129,3.0093584)" />
    <linearGradient
       id="linearGradient4389"
       x1="20.243999"
       x2="17.243999"
       y1="37.588001"
       y2="27.587999"
       gradientTransform="translate(-1.2435,-2.5881)"
       gradientUnits="userSpaceOnUse"
       xlink:href="#linearGradient3774" />
    <linearGradient
       id="linearGradient3774">
      <stop
         stop-color="#4e9a06"
         offset="0"
         id="stop21-8" />
      <stop
         stop-color="#8ae234"
         offset="1"
         id="stop23" />
    </linearGradient>
    <linearGradient
       id="linearGradient69042"
       x1="48.714001"
       x2="44.714001"
       y1="45.585999"
       y2="34.585999"
       gradientTransform="translate(-12.714,-17.586)"
       gradientUnits="userSpaceOnUse"
       xlink:href="#linearGradient3774" />
    <linearGradient
       id="linearGradient69056"
       x1="27.243999"
       x2="22.243999"
       y1="54.588001"
       y2="40.588001"
       gradientTransform="translate(-1.2435,-2.5881)"
       gradientUnits="userSpaceOnUse">
      <stop
         stop-color="#c4a000"
         offset="0"
         id="stop14-4" />
      <stop
         stop-color="#fce94f"
         offset="1"
         id="stop16" />
    </linearGradient>
    <linearGradient
       id="linearGradient4399"
       x1="48.714001"
       x2="44.714001"
       y1="45.585999"
       y2="34.585999"
       gradientTransform="translate(1.2856,1.4142)"
       gradientUnits="userSpaceOnUse">
      <stop
         stop-color="#c4a000"
         offset="0"
         id="stop8" />
      <stop
         stop-color="#edd400"
         offset="1"
         id="stop10" />
    </linearGradient>
    <linearGradient
       xlink:href="#linearGradient21"
       id="linearGradient27"
       gradientUnits="userSpaceOnUse"
       gradientTransform="translate(-0.30409276,0.05778729)"
       x1="22.782017"
       y1="37.760967"
       x2="11.930232"
       y2="29.936911" />
    <linearGradient
       xlink:href="#linearGradient69056"
       id="linearGradient33"
       gradientUnits="userSpaceOnUse"
       gradientTransform="matrix(1.9938046,0,0,1.9613155,1.0732527,-49.356425)"
       x1="22.782017"
       y1="37.760967"
       x2="7.864368"
       y2="32.411785" />
    <linearGradient
       xlink:href="#linearGradient3"
       id="linearGradient2"
       x1="14.883397"
       y1="43.811935"
       x2="25.259163"
       y2="50.94812"
       gradientUnits="userSpaceOnUse"
       gradientTransform="matrix(1.8048567,0,0,1.7835759,4.5436424,-43.019855)" />
    <linearGradient
       xlink:href="#linearGradient3"
       id="linearGradient2-0"
       x1="14.883397"
       y1="43.811935"
       x2="25.259163"
       y2="50.94812"
       gradientUnits="userSpaceOnUse"
       gradientTransform="matrix(1.8048567,0,0,1.7835759,96.609777,-8.4537881)" />
    <linearGradient
       xlink:href="#linearGradient69056"
       id="linearGradient33-9"
       gradientUnits="userSpaceOnUse"
       gradientTransform="matrix(1.9938046,0,0,1.9613155,114.04645,31.478968)"
       x1="22.782017"
       y1="37.760967"
       x2="7.864368"
       y2="32.411785" />
    <linearGradient
       xlink:href="#linearGradient69056"
       id="linearGradient33-1"
       gradientUnits="userSpaceOnUse"
       gradientTransform="matrix(1.9938046,0,0,1.9613155,100.92145,-12.646032)"
       x1="22.782017"
       y1="37.760967"
       x2="7.864368"
       y2="32.411785" />
    <linearGradient
       xlink:href="#linearGradient3"
       id="linearGradient2-8"
       x1="5.1180787"
       y1="51.030579"
       x2="24.220299"
       y2="43.028637"
       gradientUnits="userSpaceOnUse"
       gradientTransform="matrix(1.8048567,0,0,1.7835759,137.32907,24.566604)" />
    <linearGradient
       xlink:href="#linearGradient59"
       id="linearGradient840"
       x1="7.8155646"
       y1="50.543022"
       x2="8.3967581"
       y2="12.291364"
       gradientUnits="userSpaceOnUse"
       gradientTransform="matrix(1.0428047,0,0,1.0432797,-1.3697512,-1.3849527)" />
    <linearGradient
       xlink:href="#linearGradient59"
       id="linearGradient842"
       x1="24.211432"
       y1="49.059666"
       x2="24.858622"
       y2="12.503376"
       gradientUnits="userSpaceOnUse"
       gradientTransform="matrix(1.0428047,0,0,1.0432797,-1.3697512,-1.3849527)" />
    <linearGradient
       xlink:href="#linearGradient59"
       id="linearGradient844"
       x1="41.310841"
       y1="50.331081"
       x2="41.639793"
       y2="14.198631"
       gradientUnits="userSpaceOnUse"
       gradientTransform="matrix(1.0428047,0,0,1.0432797,-1.3697512,-1.3849527)" />
    <linearGradient
       xlink:href="#linearGradient59"
       id="linearGradient846"
       x1="58.196716"
       y1="49.972424"
       x2="58.197704"
       y2="17.442623"
       gradientUnits="userSpaceOnUse"
       gradientTransform="matrix(1.0428047,0,0,1.0432797,-1.3697512,-1.3849527)" />
  </defs>
  <metadata
     id="metadata2826">
    <rdf:RDF>
      <cc:Work
         rdf:about="">
        <dc:format>image/svg+xml</dc:format>
        <dc:type
           rdf:resource="http://purl.org/dc/dcmitype/StillImage" />
        <dc:creator>
          <cc:Agent>
            <dc:title>[wmayer]</dc:title>
          </cc:Agent>
        </dc:creator>
        <dc:date>2011-10-10</dc:date>
        <dc:relation>http://www.freecad.org/wiki/index.php?title=Artwork</dc:relation>
        <dc:publisher>
          <cc:Agent>
            <dc:title>FreeCAD</dc:title>
          </cc:Agent>
        </dc:publisher>
        <dc:identifier>FreeCAD/src/Mod/Part/Gui/Resources/icons/Part_Cylinder.svg</dc:identifier>
        <dc:rights>
          <cc:Agent>
            <dc:title>FreeCAD LGPL2+</dc:title>
          </cc:Agent>
        </dc:rights>
        <cc:license>https://www.gnu.org/copyleft/lesser.html</cc:license>
        <dc:contributor>
          <cc:Agent>
            <dc:title>[agryson] Alexander Gryson</dc:title>
          </cc:Agent>
        </dc:contributor>
      </cc:Work>
    </rdf:RDF>
  </metadata>
  <g
     id="layer1"
     transform="translate(0,-6)">
    <g
       id="g846"
       transform="translate(-3.1249999e-5,-1.2415902e-5)">
      <path
         d="m 18.543338,27.085172 c -0.361225,0.678619 -0.722316,1.445017 -1.083539,2.300514 -0.938683,2.200881 -1.877996,4.810638 -2.816795,6.748715 -0.938798,1.957676 -1.877938,3.17984 -2.816795,3.162442 h -1.22 l 0.150718,0.321949 c 0.313068,0.671326 0.611821,1.33094 0.89616,1.978564 0.233391,0.530685 0.457457,1.050534 0.674158,1.560844 0.229086,0.539209 0.449308,1.065194 0.661935,1.579183 0.446021,1.079704 0.868166,2.117379 1.264809,3.113538 0.453405,1.134582 0.856818,2.166628 1.254624,3.184856 0.360526,0.927328 0.720977,1.393569 1.081502,1.397831 0.0692,-4.17e-4 0.138559,-0.02035 0.207747,-0.05501 0.0075,-0.0038 0.01492,-0.0081 0.0224,-0.01223 0.134414,-0.07455 0.266848,-0.215952 0.401236,-0.419756 0.09009,-0.137765 0.180795,-0.30289 0.270885,-0.497189 0.01901,-0.04062 0.03802,-0.08927 0.05703,-0.132447 0.07528,-0.17206 0.150792,-0.362784 0.226077,-0.572582 0.02301,-0.06421 0.04624,-0.127871 0.06925,-0.195615 0.04546,-0.133511 0.09101,-0.289314 0.136461,-0.436058 0.106142,-0.343757 0.211585,-0.719291 0.317729,-1.132936 0.02938,-0.114106 0.0582,-0.218995 0.08757,-0.338251 0.130259,-0.530203 0.262833,-1.109205 0.39309,-1.734046 0.03571,-0.171605 0.0702,-0.357314 0.105909,-0.535902 0.07887,-0.392998 0.157401,-0.812868 0.236261,-1.236857 0.127444,-0.684078 0.25546,-1.41091 0.382904,-2.166029 0.05023,-0.297502 0.100485,-0.579366 0.150718,-0.88638 0.547281,-3.34564 1.094321,-7.212747 1.641603,-11.058357 0.08902,-0.625122 0.17779,-1.216528 0.266811,-1.835929 0.148021,-1.029805 0.295986,-2.056357 0.444007,-3.052407 0.1747,-1.17535 0.350775,-2.246392 0.525476,-3.339718 0.105415,-0.659705 0.210277,-1.396634 0.315692,-2.015241 0.02591,-0.1525 0.05147,-0.282333 0.0774,-0.431984 0.01487,-0.0857 0.02994,-0.192369 0.04481,-0.277121 0.05897,-0.336963 0.118227,-0.632464 0.177196,-0.953622 0.06411,-0.348985 0.127336,-0.707908 0.191452,-1.037167 0.08596,-0.441538 0.170672,-0.839617 0.256628,-1.24297 0.05869,-0.275389 0.11851,-0.56876 0.177195,-0.825251 0.09533,-0.416591 0.189805,-0.777662 0.285142,-1.141087 0.0503,-0.19179 0.102456,-0.410709 0.152755,-0.586845 0.1445,-0.50596 0.287285,-0.952776 0.431785,-1.320401 -0.397805,1.018229 -0.801218,2.050333 -1.254624,3.184857 -0.396642,0.996159 -0.816752,2.033834 -1.262771,3.113538 -0.212629,0.514047 -0.434886,1.039973 -0.663973,1.579182 -0.216699,0.510311 -0.440824,1.030159 -0.674157,1.560844 -0.284338,0.647566 -0.583091,1.307297 -0.89616,1.978565 l -0.150718,0.321949 c -0.06832,0.144507 -0.143931,0.289233 -0.213857,0.434021 -0.132001,0.273089 -0.263839,0.546718 -0.401235,0.819137 -0.02939,0.05857 -0.05589,0.116627 -0.08554,0.175239 l -0.03055,0.06113 z"
         style="fill:#fce94f;fill-rule:evenodd;stroke:#231f0b;stroke-width:1.5;stroke-linecap:round;stroke-linejoin:round;stroke-dasharray:none;stroke-opacity:1"
         id="path820" />
      <path
         d="m 55.08631,27.085172 c -0.40597,0.749656 -0.811993,1.673109 -1.217963,2.640801 -0.177252,0.422074 -0.354327,0.834622 -0.531587,1.275574 -0.317925,0.789995 -0.635263,1.584492 -0.953188,2.367755 -0.169512,0.417479 -0.339669,0.82722 -0.509181,1.224631 -0.04902,0.114998 -0.09763,0.241901 -0.146645,0.354553 -0.061,0.141655 -0.122304,0.270885 -0.183306,0.407531 -0.03659,0.08154 -0.07339,0.164629 -0.109983,0.244518 -0.371928,0.813861 -0.742174,1.523138 -1.11409,2.100824 -0.07507,0.116811 -0.151004,0.235308 -0.226077,0.340288 -0.02618,0.03667 -0.05122,0.0748 -0.0774,0.110033 -0.125603,0.168543 -0.251193,0.32319 -0.376795,0.456435 -0.004,0.0043 -0.01032,0.01209 -0.01425,0.01631 -0.126939,0.133274 -0.25393,0.24537 -0.380869,0.340289 -0.03806,0.02877 -0.076,0.05025 -0.114057,0.0754 -0.08314,0.05441 -0.167371,0.09965 -0.250517,0.136522 -0.170591,0.07572 -0.340622,0.125328 -0.511218,0.120222 h -1.222037 c 0.05031,0.106896 0.100412,0.215112 0.150718,0.321949 0.313069,0.671327 0.611822,1.330999 0.89616,1.978565 0.233391,0.530685 0.459494,1.050533 0.676193,1.560843 0.229029,0.539151 0.449308,1.065136 0.661937,1.579183 0.446019,1.079704 0.868165,2.117262 1.264809,3.113538 0.453346,1.134641 0.856875,2.166628 1.254624,3.184857 0.360584,0.927327 0.720918,1.393569 1.081502,1.397831 0.04564,0.0016 0.09082,-0.008 0.136461,-0.02241 0.0243,-0.0078 0.04903,-0.02035 0.07332,-0.0326 0.01631,-0.0081 0.03258,-0.01635 0.04888,-0.02649 0.07884,-0.04916 0.155392,-0.11964 0.234224,-0.213954 0.05857,-0.07038 0.11862,-0.170177 0.177195,-0.264895 0.05984,-0.09713 0.121437,-0.208012 0.181269,-0.3301 0.03346,-0.06805 0.06634,-0.132139 0.0998,-0.207841 0.0842,-0.191032 0.168355,-0.401631 0.252555,-0.639824 0.008,-0.02263 0.01642,-0.04012 0.02444,-0.06317 0.0913,-0.263047 0.183661,-0.560113 0.274959,-0.876193 0.14887,-0.516082 0.297174,-1.112291 0.446044,-1.764609 0.02467,-0.107467 0.05069,-0.217104 0.07536,-0.328063 0.146891,-0.660618 0.293043,-1.375236 0.439934,-2.149726 0.208664,-1.096096 0.416606,-2.313975 0.625276,-3.596463 0.04986,-0.30602 0.10086,-0.625055 0.150717,-0.939359 0.170649,-1.077376 0.340569,-2.191482 0.511219,-3.343793 0.04482,-0.302698 0.0896,-0.598109 0.134423,-0.904719 0.24097,-1.646634 0.482073,-3.338675 0.72304,-5.030972 0.131805,-0.925942 0.26332,-1.83516 0.395124,-2.750835 0.0646,-0.449114 0.128885,-0.904999 0.19349,-1.348928 0.239362,-1.649819 0.479579,-3.23213 0.718965,-4.733474 0.01407,-0.08835 0.0287,-0.193513 0.04277,-0.281197 0.189713,-1.185829 0.380547,-2.283292 0.570284,-3.323417 0.129035,-0.707806 0.257945,-1.397525 0.386978,-2.025429 0.02966,-0.143871 0.05996,-0.276435 0.08962,-0.415681 0.130922,-0.616227 0.262173,-1.179032 0.393089,-1.697367 0.04282,-0.169386 0.0855,-0.341036 0.128314,-0.499226 0.042,-0.15515 0.08428,-0.308583 0.126277,-0.45236 0.0977,-0.335069 0.193566,-0.649674 0.291252,-0.92102 v -0.01223 c -0.167264,0.427351 -0.333713,0.854334 -0.501035,1.281686 -0.208267,0.529751 -0.424874,1.077049 -0.649716,1.640312 -0.198147,0.496708 -0.403336,1.005847 -0.615092,1.528242 -0.208907,0.515448 -0.425224,1.044913 -0.649717,1.587333 -0.212802,0.514398 -0.434652,1.039683 -0.663972,1.579183 -0.216874,0.510662 -0.440534,1.031788 -0.674158,1.562882 -0.271834,0.618726 -0.557245,1.249977 -0.855425,1.890945 -0.06194,0.131825 -0.123345,0.263539 -0.185343,0.395305 -0.07527,0.159206 -0.157015,0.3193 -0.234223,0.47885 -0.11646,0.24026 -0.233762,0.479475 -0.354391,0.719292 -0.03848,0.07689 -0.07309,0.153283 -0.11202,0.230255 l -0.03055,0.06113 z"
         style="fill:#fce94f;fill-rule:evenodd;stroke:#231f0b;stroke-width:1.5;stroke-linecap:round;stroke-linejoin:round;stroke-dasharray:none;stroke-opacity:1"
         id="path829" />
      <path
         d="m 10.31292,16.426196 c -0.147824,0.670326 -0.296182,1.401529 -0.4440062,2.186404 -0.1757554,0.930663 -0.3517568,1.923444 -0.5275132,2.987203 -0.00188,0.01152 -0.00417,0.02107 -0.00615,0.0326 -0.1820007,1.102701 -0.3638403,2.268486 -0.545843,3.472165 -0.01667,0.110196 -0.032211,0.227382 -0.048882,0.338251 -0.3464353,2.305026 -0.6942288,4.742985 -1.0407253,7.178661 -0.1731198,1.215687 -0.34625,2.386036 -0.5193655,3.576085 -0.2082889,1.431491 -0.4149575,2.791855 -0.6232388,4.126253 -0.080092,0.513029 -0.1602424,1.095527 -0.2403339,1.587334 -0.077353,0.476486 -0.1548338,0.898105 -0.232187,1.350966 -0.035743,0.209157 -0.072204,0.462525 -0.1079465,0.666313 -0.03452,0.197263 -0.069353,0.366407 -0.1038728,0.558318 -0.04757,0.264118 -0.095002,0.514476 -0.142571,0.768196 -0.1077596,0.575138 -0.2160801,1.11953 -0.3238396,1.636237 -0.054432,0.261113 -0.1085058,0.52096 -0.1629383,0.766158 -0.1066348,0.47992 -0.2131315,0.914225 -0.3197663,1.328552 -0.060439,0.235037 -0.12083,0.490502 -0.1812688,0.702991 -0.016799,0.05906 -0.03412,0.11389 -0.050918,0.171164 -0.1296494,0.4419 -0.2593655,0.846765 -0.389015,1.175727 0.2008222,-0.512996 0.4020493,-1.025376 0.6028714,-1.538431 0.1937269,-0.492621 0.3950122,-1.000725 0.6028715,-1.522128 0.3942001,-0.99108 0.810523,-2.022793 1.2525877,-3.095199 0.4213021,-1.023949 0.8751412,-2.089292 1.3605343,-3.199119 0.2956791,-0.674946 0.6079477,-1.363045 0.9348581,-2.064146 0.0499,-0.106078 0.098722,-0.213832 0.1486817,-0.319911 0.097022,-0.205201 0.2012029,-0.411639 0.3014362,-0.61741 0.092226,-0.188993 0.1842188,-0.377798 0.2790316,-0.566468 0.04092,-0.0818 0.078742,-0.162618 0.1201666,-0.244519 l 0.030554,-0.06113 0.4664111,-0.892493 c 1.119439,-2.067059 2.239124,-5.290637 3.358564,-7.863313 1.11944,-2.599806 2.239067,-4.381809 3.358563,-4.348357 h 1.222037 c -0.04996,-0.106079 -0.100756,-0.213833 -0.150719,-0.319912 -0.326909,-0.701159 -0.637199,-1.389258 -0.932821,-2.064145 -0.485276,-1.109712 -0.939174,-2.174995 -1.360533,-3.199119 -0.442124,-1.072406 -0.860425,-2.104178 -1.254625,-3.0952 -0.20786,-0.521344 -0.409144,-1.029448 -0.602871,-1.522128 -0.200823,-0.512996 -0.402049,-1.025376 -0.602872,-1.538431 -0.360584,-0.927386 -0.720918,-1.393627 -1.081503,-1.397831 -0.07506,-0.0015 -0.148974,0.02243 -0.224039,0.06317 -0.01097,0.0058 -0.02163,0.01156 -0.03259,0.01834 -0.07751,0.04833 -0.156713,0.11785 -0.234224,0.209877 -0.01087,0.01296 -0.02172,0.02898 -0.03259,0.0428 -0.05262,0.06661 -0.104218,0.15423 -0.156827,0.240443 -0.05672,0.09313 -0.112334,0.19825 -0.169049,0.313799 -0.03502,0.07114 -0.07089,0.140556 -0.10591,0.220067 -0.08443,0.192336 -0.168123,0.402136 -0.252554,0.641862 -0.0065,0.01818 -0.01394,0.03249 -0.02037,0.05094 -0.09617,0.277089 -0.193051,0.5872 -0.289216,0.923058 -0.152469,0.533085 -0.303758,1.152412 -0.456227,1.827777 -0.02311,0.101793 -0.04613,0.202842 -0.06925,0.307686 z"
         style="fill:#fce94f;fill-rule:evenodd;stroke:#231f0b;stroke-width:1.5;stroke-linecap:round;stroke-linejoin:round;stroke-dasharray:none;stroke-opacity:1"
         id="path818" />
      <path
         d="m 44.191852,32.976035 c -0.166621,1.169094 -0.33239,2.331729 -0.498997,3.47624 -0.05619,0.38549 -0.112864,0.73286 -0.169049,1.11256 -0.09806,0.662556 -0.195236,1.299557 -0.293289,1.939848 -0.170042,1.110039 -0.341177,2.15221 -0.511219,3.168555 -0.06732,0.40236 -0.134312,0.871378 -0.201636,1.255196 -0.05517,0.315321 -0.1098,0.590988 -0.164975,0.892493 -0.0278,0.151806 -0.05571,0.338839 -0.08351,0.486999 -0.03317,0.177066 -0.06663,0.329622 -0.0998,0.501264 -0.04871,0.251861 -0.09794,0.493684 -0.146645,0.733556 -0.07842,0.386395 -0.1558,0.753134 -0.234223,1.106447 -0.05562,0.250543 -0.111387,0.500495 -0.167013,0.733556 -0.08065,0.33794 -0.161723,0.642229 -0.242369,0.941397 -0.04915,0.182332 -0.09954,0.378872 -0.148682,0.546092 -0.129077,0.439216 -0.255864,0.836706 -0.384941,1.165539 0.200822,-0.512996 0.399954,-1.025434 0.600835,-1.538431 0.193668,-0.492679 0.395011,-1.000725 0.602871,-1.522128 0.394142,-0.991139 0.812501,-2.022793 1.254625,-3.095199 0.421301,-1.023949 0.87514,-2.089349 1.360533,-3.199119 0.295738,-0.675004 0.605911,-1.363045 0.932821,-2.064146 0.0499,-0.106137 0.100756,-0.213832 0.150719,-0.319911 0.06061,-0.128179 0.127558,-0.256719 0.189415,-0.385117 0.139583,-0.289548 0.280036,-0.579259 0.425676,-0.868041 0.02939,-0.05856 0.0559,-0.116634 0.08554,-0.175239 L 46.9455,36.914823 c 0,0 0,0 0,0 0.214158,-0.395926 0.427414,-0.840797 0.64157,-1.308175 0.03276,-0.07151 0.065,-0.141102 0.09776,-0.213954 0.110355,-0.245338 0.221632,-0.511951 0.331987,-0.770233 0.173947,-0.407314 0.347457,-0.816492 0.521402,-1.245009 0.192756,-0.47466 0.385678,-0.953074 0.57843,-1.436547 0.140219,-0.351604 0.279349,-0.697662 0.419566,-1.045317 0.06075,-0.150798 0.122557,-0.303187 0.183306,-0.45236 0.130634,-0.321758 0.260416,-0.61923 0.391051,-0.927132 0.06428,-0.151668 0.129215,-0.316868 0.19349,-0.464586 0.01706,-0.03961 0.03386,-0.07488 0.05092,-0.114109 0.03906,-0.0888 0.07906,-0.173775 0.118131,-0.26082 0.269672,-0.605935 0.538903,-1.159155 0.80858,-1.650501 0.07912,-0.145161 0.15714,-0.287993 0.236261,-0.421794 0.03569,-0.05986 0.07227,-0.115766 0.107946,-0.173202 0.105764,-0.171563 0.209929,-0.332524 0.315694,-0.480886 0.02419,-0.03382 0.04913,-0.06725 0.07332,-0.09984 0.106616,-0.14386 0.21315,-0.273951 0.319767,-0.39123 0.03455,-0.03843 0.06932,-0.07841 0.103874,-0.114108 0.0183,-0.01857 0.03668,-0.04341 0.05499,-0.06113 0.102862,-0.101814 0.204682,-0.187775 0.307546,-0.262858 0.03267,-0.02427 0.06509,-0.03955 0.09776,-0.06113 0.08427,-0.05454 0.168279,-0.10196 0.252553,-0.13856 0.169782,-0.075 0.339403,-0.123267 0.509182,-0.118185 h 1.222037 c -0.04996,-0.106079 -0.09878,-0.213833 -0.148681,-0.319911 -0.32691,-0.701101 -0.639179,-1.3892 -0.934858,-2.064146 -0.485335,-1.10977 -0.937196,-2.175054 -1.358498,-3.199119 -0.442122,-1.072465 -0.860423,-2.104119 -1.254624,-3.095199 -0.20786,-0.521345 -0.409202,-1.029508 -0.602872,-1.522129 -0.200821,-0.513054 -0.401991,-1.025434 -0.602871,-1.53843 -0.360526,-0.927386 -0.720918,-1.393628 -1.081503,-1.397831 -0.04914,-0.0016 -0.09953,0.0075 -0.148681,0.02445 -0.04833,0.01691 -0.100338,0.04505 -0.148681,0.07947 -0.07927,0.05687 -0.159015,0.141765 -0.238297,0.244518 -0.02069,0.02682 -0.04041,0.05161 -0.0611,0.08151 -0.04047,0.05839 -0.08174,0.143988 -0.122203,0.213954 -0.0618,0.106951 -0.121513,0.208948 -0.183305,0.342326 -0.04252,0.09171 -0.0858,0.207826 -0.128314,0.311761 -0.05659,0.13842 -0.114489,0.270342 -0.171086,0.429946 -0.04617,0.130198 -0.09233,0.28392 -0.138497,0.427907 -0.05629,0.175572 -0.112759,0.344438 -0.169049,0.539979 -0.0406,0.140963 -0.07958,0.301218 -0.120167,0.45236 -0.05752,0.214189 -0.115599,0.428169 -0.173122,0.662237 -0.05588,0.227529 -0.111132,0.473442 -0.167011,0.719293 -0.04149,0.182337 -0.08275,0.360071 -0.12424,0.552204 -0.05761,0.267152 -0.115518,0.553842 -0.173122,0.839515 -0.03883,0.192284 -0.07726,0.38235 -0.116094,0.582769 -0.217944,1.116002 -0.437842,2.355861 -0.655826,3.682044 -0.07156,0.435204 -0.142302,0.912674 -0.213857,1.365229 -0.143583,0.908442 -0.286158,1.828872 -0.429749,2.791588 -0.30193,2.0237 -0.604442,4.132968 -0.906345,6.255603 -0.03889,0.273062 -0.07924,0.538163 -0.11813,0.810988 z"
         style="fill:#fce94f;fill-rule:evenodd;stroke:#231f0b;stroke-width:1.5;stroke-linecap:round;stroke-linejoin:round;stroke-dasharray:none;stroke-opacity:1"
         id="path826" />
      <path
         d="m 38.01242,24.703152 c -0.02996,0.06364 -0.06548,0.12593 -0.09573,0.189503 -0.349616,0.732733 -0.713519,1.464551 -1.101871,2.192517 -1.605006,2.971157 -3.209754,8.291392 -4.814824,10.70788 -0.633827,0.989488 -1.268374,1.489546 -1.902304,1.503791 h -1.222037 c 0.05031,0.106896 0.100412,0.215112 0.150718,0.321949 0.313057,0.671326 0.611811,1.330998 0.89616,1.978564 0.233368,0.530685 0.459471,1.050592 0.676194,1.560844 0.229076,0.539151 0.449308,1.065136 0.661937,1.579183 0.445974,1.07982 0.868172,2.117437 1.264808,3.113538 0.453389,1.134524 0.856829,2.166569 1.254624,3.184856 0.36055,0.927269 0.720959,1.393569 1.081503,1.397831 0.05629,-0.0014 0.112762,-0.01309 0.169048,-0.03668 0.0037,-0.0015 0.0066,-0.0046 0.01022,-0.0062 0.03944,-0.0175 0.07869,-0.047 0.11813,-0.0754 0.04941,-0.03571 0.09926,-0.08101 0.148681,-0.134485 0.02436,-0.026 0.04897,-0.04524 0.07332,-0.0754 0.06877,-0.08639 0.136938,-0.193995 0.20571,-0.313798 0.09652,-0.16574 0.192695,-0.361941 0.289216,-0.592958 0.03284,-0.07887 0.06493,-0.176763 0.09776,-0.262857 0.07581,-0.198948 0.152302,-0.410791 0.228113,-0.650012 0.03065,-0.09555 0.061,-0.19387 0.09165,-0.29546 0.04816,-0.159822 0.09645,-0.342946 0.144608,-0.517565 0.126633,-0.458428 0.252198,-0.961752 0.378832,-1.518053 0.02746,-0.120254 0.05605,-0.228057 0.08351,-0.352515 0.143937,-0.651122 0.287849,-1.369109 0.431786,-2.129351 0.04968,-0.262192 0.101037,-0.541312 0.150718,-0.815062 0.0786,-0.433259 0.155628,-0.889487 0.234224,-1.348927 0.190535,-1.11235 0.38179,-2.280913 0.57232,-3.519032 0.01641,-0.106501 0.03247,-0.204529 0.04888,-0.311761 0.224685,-1.470056 0.449472,-3.003902 0.674156,-4.566386 0.363891,-2.531176 0.727797,-5.062824 1.091686,-7.551553 0.0999,-0.683364 0.199493,-1.412997 0.2994,-2.076371 0.129317,-0.861523 0.257661,-1.649067 0.386978,-2.45945 0.03712,-0.232703 0.0749,-0.507666 0.11202,-0.735594 0.01784,-0.109931 0.03511,-0.203041 0.05295,-0.311761 0.0717,-0.435321 0.144191,-0.835777 0.215893,-1.251121 0.123064,-0.714218 0.245582,-1.399672 0.368647,-2.045806 0.105456,-0.553679 0.212275,-1.10569 0.31773,-1.603635 0.02538,-0.1197 0.04997,-0.246466 0.07536,-0.362703 0.14603,-0.669783 0.291865,-1.271801 0.437895,-1.817588 0.04951,-0.184825 0.09917,-0.36441 0.148683,-0.533866 0.03915,-0.133985 0.07898,-0.27139 0.11813,-0.395305 0.09291,-0.294527 0.184088,-0.56708 0.276995,-0.802837 -0.397748,1.01817 -0.80122,2.050274 -1.254625,3.184856 -0.396643,0.996218 -0.816752,2.033776 -1.262772,3.113538 -0.212628,0.514106 -0.434943,1.039974 -0.663972,1.579182 -0.2167,0.510311 -0.440825,1.030101 -0.674158,1.560845 -0.284338,0.647507 -0.583091,1.307296 -0.89616,1.978564 -0.05031,0.106896 -0.100412,0.215054 -0.150718,0.321949 z"
         style="fill:#fce94f;fill-rule:evenodd;stroke:#231f0b;stroke-width:1.5;stroke-linecap:round;stroke-linejoin:round;stroke-dasharray:none;stroke-opacity:1"
         id="path824" />
      <path
         d="m 25.085308,38.716111 c -0.129317,0.861515 -0.257661,1.649068 -0.386978,2.45945 -0.03712,0.232703 -0.0749,0.507665 -0.11202,0.735594 -0.01784,0.109929 -0.03511,0.203043 -0.05295,0.311761 -0.0717,0.435321 -0.144191,0.835775 -0.215894,1.251121 -0.123416,0.716264 -0.245228,1.404139 -0.368647,2.051919 -0.103113,0.541206 -0.208508,1.081026 -0.311619,1.568995 -0.0284,0.134216 -0.05715,0.275609 -0.08554,0.405493 -0.144845,0.663573 -0.288975,1.259755 -0.433822,1.801288 -0.04968,0.185505 -0.099,0.36587 -0.148681,0.535903 -0.03915,0.133989 -0.07898,0.271387 -0.118131,0.395305 -0.0929,0.294535 -0.184088,0.567072 -0.276995,0.802837 0.200881,-0.513055 0.40205,-1.025376 0.602871,-1.538431 0.193727,-0.492679 0.392976,-1.000725 0.600835,-1.522128 0.3942,-0.991139 0.812503,-2.022851 1.254625,-3.095199 0.421302,-1.024007 0.8752,-2.089408 1.360534,-3.199119 0.295702,-0.674946 0.607942,-1.362987 0.934858,-2.064146 0.04994,-0.106078 0.09874,-0.213832 0.148681,-0.319911 0.07263,-0.153645 0.151649,-0.308622 0.226077,-0.462548 0.130748,-0.270101 0.26318,-0.5395 0.399199,-0.808949 0.03652,-0.07271 0.06899,-0.145262 0.10591,-0.21803 l 0.466411,-0.892493 c 1.108718,-2.047635 2.217321,-5.229293 3.325973,-7.789957 1.130128,-2.637667 2.261087,-4.456275 3.391152,-4.421714 h 1.222037 c -0.04994,-0.106078 -0.100787,-0.213832 -0.150718,-0.319911 -0.326911,-0.701101 -0.639179,-1.3892 -0.934859,-2.064145 -0.485328,-1.10977 -0.937165,-2.175112 -1.358497,-3.19912 -0.442134,-1.072406 -0.860395,-2.104118 -1.254624,-3.095199 -0.207877,-0.521344 -0.409172,-1.029449 -0.602872,-1.522128 -0.200805,-0.512996 -0.402065,-1.025434 -0.602871,-1.538431 -0.360527,-0.927269 -0.720924,-1.393512 -1.081502,-1.397831 -0.05629,0.0014 -0.11276,0.01309 -0.169049,0.03668 -0.0037,0.0015 -0.0066,0.0046 -0.01022,0.0062 -0.03944,0.01749 -0.07869,0.04701 -0.118131,0.0754 -0.04941,0.03571 -0.09926,0.08102 -0.148681,0.134485 -0.02436,0.026 -0.04897,0.04525 -0.07332,0.0754 -0.06644,0.08344 -0.133165,0.188974 -0.199599,0.30361 -0.09825,0.167515 -0.197075,0.367992 -0.295327,0.603146 -0.03284,0.07887 -0.06493,0.176764 -0.09776,0.262858 -0.07581,0.198941 -0.152305,0.4108 -0.228113,0.650012 -0.03065,0.09555 -0.061,0.193869 -0.09165,0.29546 -0.04816,0.159827 -0.09645,0.34294 -0.144608,0.517565 -0.12663,0.45843 -0.2522,0.961742 -0.378831,1.518053 -0.02746,0.120255 -0.05605,0.228056 -0.08351,0.352515 -0.143934,0.651134 -0.287851,1.369097 -0.431787,2.129349 -0.04968,0.262194 -0.101037,0.541313 -0.150718,0.815062 -0.0786,0.433266 -0.155627,0.889483 -0.234224,1.348929 -0.190534,1.112372 -0.381784,2.280904 -0.57232,3.519031 -0.01641,0.106501 -0.03247,0.204529 -0.04888,0.311761 -0.224691,1.470066 -0.449466,3.003906 -0.674156,4.566387 -0.363888,2.531173 -0.727797,5.062835 -1.091686,7.551552 -0.0999,0.683359 -0.199498,1.413004 -0.299399,2.076371 z"
         style="fill:#fce94f;fill-rule:evenodd;stroke:#231f0b;stroke-width:1.5;stroke-linecap:round;stroke-linejoin:round;stroke-dasharray:none;stroke-opacity:1"
         id="path822" />
      <path
         d="m 61.078364,13.249491 c -0.09745,0.268634 -0.193794,0.587384 -0.291252,0.921019 -0.04196,0.143907 -0.08431,0.297323 -0.126277,0.45236 -0.04275,0.157943 -0.08556,0.329937 -0.128314,0.499226 -0.130614,0.516704 -0.262465,1.083986 -0.393089,1.697367 -0.02531,0.119122 -0.05005,0.223906 -0.07536,0.346401 -0.134212,0.648061 -0.267023,1.358968 -0.401235,2.09471 -0.204104,1.119588 -0.408956,2.324566 -0.613055,3.604614 -0.30424,1.910458 -0.608239,3.968942 -0.912455,6.082402 -0.131752,0.91589 -0.263371,1.825533 -0.395125,2.750834 -0.212168,1.490494 -0.423275,2.98801 -0.635459,4.448203 -0.02887,0.198979 -0.0587,0.385219 -0.08757,0.582769 -0.04482,0.306259 -0.08961,0.602086 -0.134424,0.90472 -0.170903,1.154162 -0.340314,2.266498 -0.511218,3.343793 -0.04983,0.314598 -0.100892,0.633102 -0.150718,0.939358 -0.208348,1.278713 -0.416928,2.497934 -0.625276,3.596463 -0.0047,0.02484 -0.0095,0.05677 -0.01425,0.08151 -0.142378,0.751552 -0.283299,1.427832 -0.425676,2.06822 -0.01254,0.05643 -0.02615,0.127873 -0.0387,0.183389 -0.01221,0.05438 -0.02445,0.09118 -0.03666,0.144674 -0.149073,0.649405 -0.296973,1.248516 -0.446044,1.764609 -0.183538,0.636267 -0.368416,1.163908 -0.551953,1.579183 -0.03342,0.07584 -0.06638,0.139634 -0.0998,0.207842 -0.06004,0.122131 -0.121226,0.23301 -0.181268,0.330099 -0.05675,0.09213 -0.1123,0.185597 -0.169048,0.254708 -0.0019,0.0023 -0.0063,0.0079 -0.0081,0.01022 -0.07835,0.09391 -0.155879,0.165219 -0.234224,0.213954 -0.01619,0.01012 -0.03268,0.01833 -0.04888,0.02649 -0.02439,0.01219 -0.04893,0.02491 -0.07332,0.0326 -0.04553,0.01472 -0.09093,0.02328 -0.136461,0.02241 h 4.900368 c 0.360524,-0.0043 0.720919,-0.470563 1.081502,-1.397831 0.654459,-1.661529 1.309121,-4.827104 1.963406,-8.818974 z"
         style="fill:url(#linearGradient846);fill-rule:evenodd;stroke:#231f0b;stroke-width:1.5;stroke-linecap:round;stroke-linejoin:round;stroke-dasharray:none;stroke-opacity:1"
         id="path830" />
      <path
         d="m 25.724841,11.566387 c -0.360584,0.0043 -0.720978,0.470507 -1.081504,1.397831 -0.144496,0.367309 -0.287284,0.814354 -0.431785,1.320401 -0.05024,0.175921 -0.102508,0.395321 -0.152755,0.586845 -0.09531,0.363465 -0.189826,0.724492 -0.285142,1.141087 -0.05873,0.256651 -0.118461,0.549633 -0.177195,0.825251 -0.08596,0.403359 -0.170674,0.801566 -0.256628,1.24297 -0.06412,0.329374 -0.127332,0.687951 -0.191452,1.037167 -0.07386,0.402033 -0.148144,0.804292 -0.222004,1.230743 -0.13126,0.756645 -0.261828,1.625766 -0.393088,2.447225 -0.174716,1.093393 -0.35076,2.164037 -0.525476,3.339717 -0.148009,0.995779 -0.295997,2.022581 -0.444007,3.052408 -0.08837,0.614764 -0.17641,1.221854 -0.264775,1.842041 -0.08211,0.5763 -0.164332,1.134762 -0.246444,1.711631 -0.465589,3.271482 -0.931606,6.495149 -1.397195,9.340613 -0.05012,0.306346 -0.10061,0.589464 -0.150718,0.886381 -0.0828,0.490368 -0.165679,0.999661 -0.24848,1.460999 -0.04494,0.251204 -0.08947,0.463364 -0.134424,0.705029 -0.02709,0.145442 -0.05437,0.318676 -0.08147,0.46051 -0.05174,0.273116 -0.10305,0.517543 -0.154792,0.776347 -0.03563,0.177569 -0.07027,0.364971 -0.10591,0.535903 -0.130273,0.62609 -0.26282,1.205178 -0.393089,1.734046 -0.0293,0.119269 -0.05827,0.22406 -0.08757,0.338251 -0.106217,0.412598 -0.211514,0.790012 -0.317729,1.132936 -0.04523,0.14649 -0.09122,0.302917 -0.136461,0.436058 -0.02316,0.06804 -0.04608,0.131063 -0.06925,0.195615 -0.07545,0.210502 -0.150634,0.401231 -0.226077,0.572581 -0.01893,0.04327 -0.0381,0.09162 -0.05703,0.132448 -0.01082,0.02313 -0.02176,0.0531 -0.03259,0.0754 -0.07898,0.164435 -0.159313,0.30201 -0.238298,0.421795 -0.133766,0.204553 -0.267471,0.345905 -0.401236,0.419756 -0.0075,0.0042 -0.0149,0.0084 -0.0224,0.01223 -0.06951,0.03446 -0.138237,0.05744 -0.207747,0.05501 h 4.902405 c 0.360524,-0.0042 0.720977,-0.470565 1.081502,-1.397831 0.09265,-0.233885 0.184339,-0.509525 0.276995,-0.802837 0.03896,-0.123514 0.07917,-0.261943 0.118131,-0.395305 0.04986,-0.170647 0.09883,-0.34951 0.148681,-0.535903 0.144843,-0.540888 0.288978,-1.138826 0.433822,-1.801287 0.02823,-0.129338 0.05731,-0.271888 0.08554,-0.405494 0.103467,-0.488979 0.208158,-1.02596 0.31162,-1.568995 0.123489,-0.648162 0.245158,-1.336591 0.368647,-2.051919 0.07165,-0.415852 0.14424,-0.814629 0.215894,-1.251121 0.05507,-0.334347 0.109904,-0.702247 0.164974,-1.047355 0.124811,-0.782455 0.249947,-1.646519 0.374758,-2.473714 0.104041,-0.689517 0.207582,-1.350575 0.31162,-2.062107 0.361885,-2.475383 0.725711,-5.00381 1.087613,-7.520988 0.04274,-0.297421 0.08556,-0.601263 0.128314,-0.896568 0.390445,-2.699965 0.780671,-5.248772 1.171117,-7.531175 0.02868,-0.167436 0.05686,-0.365861 0.08554,-0.52979 0.0499,-0.286005 0.09878,-0.544187 0.148681,-0.819139 0.04963,-0.273583 0.101089,-0.552927 0.150717,-0.815062 0.144481,-0.762583 0.287307,-1.474425 0.431787,-2.12935 0.0086,-0.03868 0.01793,-0.08807 0.02648,-0.126334 0.01888,-0.08505 0.03815,-0.143243 0.05703,-0.22618 0.126587,-0.554433 0.252244,-1.059024 0.378831,-1.518054 0.04826,-0.174726 0.09634,-0.35757 0.144608,-0.517565 0.01555,-0.05161 0.03129,-0.117057 0.04684,-0.167087 0.01496,-0.04878 0.02984,-0.08116 0.04481,-0.128372 0.07574,-0.236179 0.15237,-0.451455 0.228113,-0.650013 0.03294,-0.08645 0.06482,-0.184011 0.09776,-0.262857 0.09856,-0.236678 0.196774,-0.433091 0.295327,-0.603146 0.06666,-0.113648 0.132941,-0.221095 0.199599,-0.30361 0.02422,-0.03042 0.04911,-0.04919 0.07332,-0.0754 0.0496,-0.05293 0.09909,-0.09879 0.148681,-0.134485 0.09954,-0.07193 0.197828,-0.120167 0.297363,-0.118184 z"
         style="fill:url(#linearGradient842);fill-rule:evenodd;stroke:#231f0b;stroke-width:1.5;stroke-linecap:round;stroke-linejoin:round;stroke-dasharray:none;stroke-opacity:1"
         id="path821" />
      <path
         d="m 35.391151,24.703152 c -1.130063,-0.03456 -2.261026,1.784052 -3.391152,4.421714 -1.10865,2.56066 -2.217258,5.742325 -3.325976,7.789957 -0.158901,0.297873 -0.309921,0.597891 -0.462338,0.896568 -0.03635,0.07122 -0.07401,0.14268 -0.109983,0.213955 -0.135924,0.270576 -0.268788,0.539246 -0.399199,0.808949 -0.07461,0.154127 -0.149112,0.308208 -0.222003,0.462548 h 1.395158 1.222037 c 0.633929,-0.01424 1.268478,-0.514306 1.902304,-1.503791 1.605066,-2.416483 3.209821,-7.736728 4.814825,-10.70788 0.388165,-0.726282 0.752264,-1.457762 1.10187,-2.192517 0.03017,-0.06322 0.06177,-0.126241 0.09165,-0.189503 h -1.395159 z"
         style="fill:#c4a000;fill-rule:evenodd;stroke:#231f0b;stroke-width:1.5;stroke-linecap:round;stroke-linejoin:round;stroke-dasharray:none;stroke-opacity:1"
         id="path823" />
      <path
         d="m 2.9216346,31.761592 c 0.2986409,-2.09979 0.5954141,-4.179555 0.8941235,-6.172059 0.014787,-0.09929 0.030021,-0.206634 0.044808,-0.305648 0.2396735,-1.596636 0.4793011,-3.080751 0.718965,-4.48488 0.02258,-0.132498 0.044633,-0.295484 0.067212,-0.42587 0.1525827,-0.88313 0.3056942,-1.705305 0.4582638,-2.479827 0.1244671,-0.632287 0.2482567,-1.219771 0.3727212,-1.770723 0.030388,-0.134246 0.061265,-0.256098 0.091653,-0.385118 0.1081124,-0.459933 0.2157293,-0.884089 0.3238397,-1.273534 0.026709,-0.09617 0.052723,-0.19563 0.079433,-0.287309 0.133125,-0.456827 0.2660767,-0.876351 0.3991987,-1.212406 -0.3977478,1.018229 -0.799182,2.050274 -1.2525877,3.184857 -0.1979725,0.496474 -0.4034521,1.004042 -0.6150918,1.526203 -0.2087318,0.515215 -0.4253979,1.045206 -0.6497163,1.587335 -0.295272,0.71441 -0.6056202,1.451484 -0.9328213,2.212893 z"
         style="fill:#fce94f;fill-rule:evenodd;stroke:#231f0b;stroke-width:1.5;stroke-linecap:round;stroke-linejoin:round;stroke-dasharray:none;stroke-opacity:1"
         id="path819" />
      <path
         d="m 7.4553909,11.566387 c -0.3605247,0.0043 -0.7229564,0.470565 -1.0835393,1.397831 -0.1335276,0.339601 -0.2656751,0.754089 -0.3991986,1.212406 -0.026721,0.09169 -0.052712,0.191054 -0.079433,0.287309 -0.1079173,0.388555 -0.2159217,0.815345 -0.3238396,1.273534 -0.030445,0.129518 -0.061209,0.250352 -0.091653,0.385118 -0.1242452,0.54888 -0.248471,1.139964 -0.3727211,1.770723 -0.17489,0.888431 -0.3505808,1.881031 -0.5254759,2.905697 -0.2380604,1.396919 -0.4768056,2.909663 -0.7148915,4.488955 -0.016002,0.106145 -0.03288,0.194834 -0.048882,0.301573 -0.298514,2.004445 -0.5956647,4.056505 -0.8941234,6.172059 v 14.60184 6.070176 h 0.2993989 c 0.3605255,-0.0043 0.7209189,-0.470563 1.0815025,-1.397831 0.1299956,-0.330694 0.2590196,-0.732519 0.3890151,-1.175727 0.016875,-0.05752 0.034043,-0.111836 0.050918,-0.171164 0.060151,-0.211468 0.1211179,-0.469276 0.1812687,-0.702991 0.1068236,-0.41542 0.2129428,-0.84735 0.3197664,-1.328552 0.054506,-0.24531 0.1084319,-0.5048 0.1629382,-0.766158 0.1078783,-0.517491 0.2159615,-1.060849 0.3238397,-1.636237 0.047492,-0.253479 0.095079,-0.504166 0.142571,-0.768196 0.070132,-0.389395 0.1416874,-0.814045 0.2118197,-1.224631 0.1575895,-0.922166 0.314924,-1.928623 0.4725209,-2.9383 C 6.765378,38.990285 6.9722428,37.62872 7.1804314,36.197568 7.3366475,35.123954 7.4926614,34.073017 7.6488788,32.976035 7.8755562,31.38534 8.102459,29.78796 8.3291467,28.222184 8.8420141,24.675637 9.3560457,21.33568 9.8689138,18.6126 c 0.012232,-0.06475 0.024433,-0.143833 0.036665,-0.207841 0.1356622,-0.716137 0.2716812,-1.363164 0.4073452,-1.978563 0.01046,-0.04743 0.02009,-0.108066 0.03055,-0.154863 0.01276,-0.05747 0.02593,-0.0963 0.0387,-0.152823 0.152457,-0.671431 0.303771,-1.295319 0.456227,-1.827777 0.187205,-0.65453 0.374934,-1.190824 0.562139,-1.615861 0.03525,-0.08028 0.07067,-0.148264 0.105908,-0.220067 0.05656,-0.1149 0.112485,-0.221116 0.16905,-0.313799 0.05213,-0.08561 0.104695,-0.174218 0.156826,-0.240444 0.01099,-0.01391 0.0216,-0.02974 0.03259,-0.04279 0.07791,-0.09285 0.156315,-0.161715 0.234225,-0.209878 0.01095,-0.0068 0.02163,-0.01239 0.03259,-0.01834 0.0313,-0.01678 0.06238,-0.03342 0.09369,-0.04278 0.04389,-0.01364 0.08647,-0.02125 0.13035,-0.02038 z"
         style="fill:url(#linearGradient840);fill-rule:evenodd;stroke:#231f0b;stroke-width:1.5;stroke-linecap:round;stroke-linejoin:round;stroke-dasharray:none;stroke-opacity:1"
         id="path817" />
      <path
         d="m 43.996326,11.566387 c -0.360524,0.0043 -0.720977,0.470507 -1.081502,1.397831 -0.09265,0.23388 -0.184339,0.509533 -0.276995,0.802837 -0.03896,0.123511 -0.07917,0.261947 -0.11813,0.395305 -0.04968,0.170041 -0.099,0.34819 -0.148682,0.533866 -0.146022,0.545129 -0.291871,1.148939 -0.437895,1.817589 -0.02524,0.115749 -0.05013,0.243539 -0.07536,0.362702 -0.105818,0.498985 -0.211911,1.048056 -0.31773,1.603636 -0.123132,0.646491 -0.245515,1.332545 -0.368647,2.045806 -0.07165,0.415855 -0.144241,0.814624 -0.215893,1.25112 -0.05507,0.334348 -0.109904,0.702247 -0.164976,1.047355 -0.124806,0.782455 -0.249942,1.646518 -0.374754,2.473714 -0.10404,0.689521 -0.207581,1.350571 -0.311619,2.062107 -0.361897,2.47541 -0.725721,5.0038 -1.087612,7.520988 -0.04276,0.297422 -0.08556,0.601262 -0.128314,0.896569 -0.39044,2.69998 -0.780674,5.248792 -1.171118,7.531175 -0.02868,0.167433 -0.05687,0.365865 -0.08554,0.52979 -0.0499,0.286006 -0.09878,0.544186 -0.148682,0.819137 -0.04963,0.273581 -0.101089,0.552931 -0.150717,0.815062 -0.144482,0.762586 -0.287303,1.474431 -0.431786,2.129351 -0.0086,0.03869 -0.01793,0.08807 -0.02648,0.126335 -0.01888,0.08505 -0.03815,0.143244 -0.05703,0.22618 -0.12659,0.554428 -0.252242,1.059035 -0.378832,1.518053 -0.04826,0.174726 -0.09634,0.35757 -0.144608,0.517565 -0.01555,0.05161 -0.03129,0.117059 -0.04684,0.167087 -0.01496,0.04878 -0.02985,0.08116 -0.04481,0.128373 -0.07575,0.23618 -0.152368,0.451451 -0.228114,0.650012 -0.03294,0.08646 -0.06482,0.184009 -0.09776,0.262858 -0.0962,0.231035 -0.193015,0.425373 -0.289216,0.592957 -0.06839,0.117435 -0.13732,0.229136 -0.20571,0.313799 -0.02423,0.03044 -0.04908,0.04917 -0.07332,0.0754 -0.04959,0.05293 -0.09909,0.09879 -0.148681,0.134485 -0.09952,0.07194 -0.197832,0.120158 -0.297362,0.118183 h 4.902404 c 0.360584,-0.0042 0.720919,-0.470563 1.081503,-1.397831 0.128846,-0.327784 0.256096,-0.72717 0.384941,-1.165539 0.04917,-0.167307 0.09951,-0.363697 0.148682,-0.546091 0.08055,-0.29879 0.161829,-0.603945 0.242369,-0.941398 0.05554,-0.232751 0.111468,-0.483318 0.167013,-0.733556 0.0787,-0.354464 0.155528,-0.718886 0.234223,-1.106447 0.04854,-0.239189 0.0981,-0.482334 0.146645,-0.733556 0.0611,-0.315962 0.122204,-0.654367 0.183305,-0.988263 0.122593,-0.669385 0.244019,-1.414951 0.366611,-2.147688 0.169968,-1.015808 0.341251,-2.058652 0.511219,-3.168556 0.09795,-0.63944 0.195336,-1.277882 0.293289,-1.939848 0.222512,-1.503543 0.445534,-3.026354 0.668046,-4.5888 0.340986,-2.392508 0.683484,-4.78039 1.024475,-7.06659 0.143327,-0.960654 0.286429,-1.885143 0.429749,-2.791588 0.07165,-0.453343 0.142207,-0.929322 0.213857,-1.36523 0.195988,-1.192074 0.392663,-2.321845 0.588614,-3.347868 0.02228,-0.117599 0.04493,-0.219207 0.06721,-0.334176 0.0083,-0.04259 0.01612,-0.09838 0.02444,-0.140597 0.03034,-0.155517 0.06131,-0.291677 0.09165,-0.442172 0.05785,-0.28644 0.115265,-0.571618 0.173122,-0.839514 0.04154,-0.192606 0.08271,-0.369476 0.12424,-0.552205 0.05565,-0.244571 0.111351,-0.492803 0.167011,-0.719292 0.05774,-0.23508 0.115387,-0.44727 0.173122,-0.662238 0.04055,-0.150993 0.07962,-0.311491 0.120167,-0.45236 0.05604,-0.194599 0.11301,-0.36522 0.169049,-0.539978 0.0463,-0.144418 0.09219,-0.297334 0.138497,-0.427908 0.05671,-0.159917 0.114375,-0.291313 0.171086,-0.429946 0.04248,-0.103889 0.08583,-0.220071 0.128314,-0.311761 0.06193,-0.133583 0.121378,-0.235264 0.183305,-0.342326 0.04041,-0.06994 0.0818,-0.155564 0.122203,-0.213954 0.02053,-0.02963 0.04057,-0.0549 0.0611,-0.08151 0.02964,-0.03842 0.05998,-0.07798 0.08962,-0.110034 0.01668,-0.01808 0.0322,-0.03082 0.04888,-0.04686 0.03275,-0.03151 0.06704,-0.06404 0.0998,-0.08762 0.04835,-0.03442 0.100339,-0.06255 0.148681,-0.07947 0.04915,-0.0169 0.09955,-0.02599 0.148681,-0.02446 z"
         style="fill:url(#linearGradient844);fill-rule:evenodd;stroke:#231f0b;stroke-width:1.5;stroke-linecap:round;stroke-linejoin:round;stroke-dasharray:none;stroke-opacity:1"
         id="path825" />
      <path
         d="m 61.078364,42.216803 c -0.654287,3.991879 -1.308945,7.157443 -1.963406,8.818974 0.406704,-1.045375 0.837998,-2.138512 1.293322,-3.280626 0.215305,-0.539384 0.438438,-1.094612 0.670084,-1.664765 z"
         style="fill:#fce94f;fill-rule:evenodd;stroke:#231f0b;stroke-width:1.5;stroke-linecap:round;stroke-linejoin:round;stroke-dasharray:none;stroke-opacity:1"
         id="path831" />
      <path
         d="m 17.119665,24.703152 c -1.119487,-0.03345 -2.239136,1.748578 -3.358564,4.348358 -1.119429,2.572649 -2.239136,5.796275 -3.358564,7.863313 -0.308718,0.583152 -0.603244,1.173454 -0.8961605,1.764607 -0.100224,0.205386 -0.1981527,0.411642 -0.2953265,0.61741 h 1.389049 0.0062 1.22 c 0.938847,0.01739 1.878006,-1.204786 2.816795,-3.162442 0.938789,-1.938058 1.878121,-4.547856 2.816795,-6.748715 0.36122,-0.855488 0.722318,-1.621903 1.083538,-2.300514 0.159058,-0.298122 0.309778,-0.597636 0.462337,-0.896569 0.01048,-0.02053 0.02214,-0.0406 0.03259,-0.06113 0.02899,-0.05698 0.05882,-0.114147 0.08757,-0.171163 0.137469,-0.273943 0.269417,-0.546194 0.401234,-0.819138 0.06994,-0.144689 0.141361,-0.289144 0.209783,-0.434021 h -1.391084 -0.0041 z"
         style="fill:#c4a000;fill-rule:evenodd;stroke:#231f0b;stroke-width:1.5;stroke-linecap:round;stroke-linejoin:round;stroke-dasharray:none;stroke-opacity:1"
         id="path828" />
      <path
         d="m 53.6606,24.703152 c -0.169745,8.91e-4 -0.339422,0.04447 -0.509181,0.118185 -0.08423,0.0372 -0.16833,0.08293 -0.252554,0.13856 -0.03273,0.02119 -0.06503,0.03723 -0.09776,0.06113 -0.101903,0.07567 -0.203611,0.172272 -0.30551,0.273046 -0.01902,0.01881 -0.03801,0.03129 -0.05703,0.05094 -0.03435,0.03486 -0.06952,0.07633 -0.103873,0.114109 -0.106883,0.11891 -0.212885,0.247271 -0.319767,0.39123 -0.02422,0.0327 -0.0491,0.06585 -0.07332,0.09984 -0.105676,0.147703 -0.210015,0.310773 -0.315693,0.480886 -0.03572,0.05793 -0.07223,0.112802 -0.107946,0.173201 -0.07905,0.132642 -0.157202,0.277752 -0.236261,0.421795 -0.269294,0.494068 -0.539292,1.050446 -0.80858,1.650501 -0.03909,0.08782 -0.07905,0.170929 -0.118131,0.26082 -0.08156,0.185392 -0.162852,0.386472 -0.244408,0.578695 -0.523918,1.236273 -1.048426,2.570656 -1.572353,3.861356 -0.173689,0.427705 -0.347712,0.838491 -0.521402,1.245008 -0.110579,0.258932 -0.221408,0.524353 -0.331987,0.770234 -0.03274,0.07279 -0.06502,0.142493 -0.09776,0.213954 -0.213963,0.466984 -0.427602,0.913054 -0.64157,1.308174 -0.169814,0.318298 -0.332526,0.638476 -0.494924,0.957699 -0.02896,0.05693 -0.05886,0.1142 -0.08758,0.171163 -0.145674,0.290336 -0.286332,0.578802 -0.425676,0.868041 -0.06187,0.128345 -0.124661,0.256622 -0.185342,0.385118 h 1.389049 0.0062 1.222037 c 0.0992,0.0013 0.198167,-0.01126 0.297362,-0.03668 0.0081,-0.0021 0.01631,-0.0039 0.02444,-0.0062 0.06336,-0.0176 0.126059,-0.04934 0.189416,-0.07743 0.08341,-0.03703 0.167101,-0.08143 0.250517,-0.136523 0.03781,-0.02475 0.07624,-0.04711 0.114057,-0.0754 0.127015,-0.09602 0.253855,-0.205668 0.380869,-0.340288 0.128915,-0.136849 0.262137,-0.299179 0.391052,-0.472737 0.02623,-0.03519 0.05117,-0.07336 0.0774,-0.110032 0.07505,-0.105162 0.151027,-0.223716 0.226077,-0.340289 0.172144,-0.267848 0.343141,-0.552164 0.515292,-0.87823 0.0054,-0.01002 0.01092,-0.01842 0.0163,-0.02852 0.193943,-0.365993 0.388557,-0.770589 0.582505,-1.194066 0.0366,-0.08009 0.07338,-0.162532 0.109982,-0.244518 0.110065,-0.245304 0.219885,-0.504041 0.329951,-0.762084 0.169444,-0.397506 0.339737,-0.807176 0.509182,-1.224631 0.314896,-0.775536 0.628118,-1.561244 0.943005,-2.345342 0.180122,-0.447764 0.361647,-0.868634 0.541769,-1.297987 0.121671,-0.289723 0.242905,-0.594573 0.364574,-0.870078 0.284441,-0.644952 0.568949,-1.245481 0.85339,-1.770723 0.159265,-0.298662 0.309588,-0.599259 0.462337,-0.898606 0.01047,-0.02052 0.02215,-0.0406 0.03259,-0.06113 0.03791,-0.07451 0.07656,-0.149593 0.114057,-0.224143 0.120512,-0.240785 0.238253,-0.479295 0.354391,-0.719292 0.07743,-0.159731 0.154567,-0.318921 0.23015,-0.47885 h -1.391085 -0.0062 z"
         style="fill:#c4a000;fill-rule:evenodd;stroke:#231f0b;stroke-width:1.5;stroke-linecap:round;stroke-linejoin:round;stroke-dasharray:none;stroke-opacity:1"
         id="path827" />
      <path
         d="m 13.1875,15.111328 c 0.0841,0.214389 0.16778,0.429614 0.251953,0.644531 0.186688,0.474562 0.380421,0.962349 0.580078,1.462891 0.380437,0.955986 0.783359,1.950503 1.208985,2.982422 0.408745,0.993011 0.849229,2.025356 1.318359,3.097656 0.06476,0.147785 0.138804,0.303948 0.205078,0.453125 -1.565296,0.618607 -2.646267,2.725262 -3.560547,4.847656 -1.091188,2.506605 -2.146024,5.543213 -3.166015,7.425782 l -0.01172,0.01953 -0.4472657,0.855469 -0.011719,0.02344 -0.025391,0.05273 c -0.011003,0.02174 -0.017215,0.0361 -0.027344,0.05664 0.040438,-0.273254 0.080547,-0.524197 0.1210938,-0.802734 0.1658453,-1.139553 0.331652,-2.263709 0.4980469,-3.431641 0.332231,-2.334335 0.664736,-4.665439 0.996094,-6.869141 0.01729,-0.114965 0.03226,-0.227691 0.04687,-0.324218 0.173923,-1.149722 0.347954,-2.259561 0.519531,-3.298828 0,0 -0.0045,0.02251 0.0059,-0.04102 0.166825,-1.00924 0.335408,-1.950537 0.501953,-2.832031 0.139503,-0.740355 0.277926,-1.42488 0.416016,-2.050782 0.02113,-0.09577 0.04179,-0.18928 0.06445,-0.289062 0.143223,-0.634117 0.282221,-1.197469 0.417969,-1.671875 0.03333,-0.116342 0.06499,-0.203958 0.09766,-0.310547 z"
         style="fill:#edd400;fill-rule:evenodd;stroke:#fce94f;stroke-width:1.4381;stroke-linecap:round;stroke-linejoin:round;stroke-dasharray:none;stroke-opacity:1"
         id="path832"
         transform="matrix(1.0428047,0,0,1.0432797,-1.3697512,-1.3849527)" />
      <path
         d="m 20.878906,26.976562 c -0.103105,0.703866 -0.207716,1.407963 -0.310547,2.123047 -0.08496,0.590874 -0.169988,1.159013 -0.255859,1.761719 -0.524872,3.686467 -1.047434,7.375311 -1.570313,10.570313 -0.04715,0.288068 -0.0937,0.552424 -0.142578,0.841796 -0.121147,0.717485 -0.242769,1.406161 -0.363281,2.052735 -0.07549,0.405691 -0.148809,0.800155 -0.222656,1.167969 -0.03558,0.177851 -0.06774,0.348868 -0.09961,0.501953 -0.12135,0.581854 -0.244464,1.119971 -0.365234,1.611328 -0.02546,0.103299 -0.04983,0.193116 -0.08008,0.310547 -0.09247,0.360204 -0.18208,0.67862 -0.271484,0.970703 -0.282637,-0.721616 -0.561487,-1.432629 -0.878907,-2.226563 -0.383033,-0.96154 -0.790888,-1.963904 -1.220703,-3.003906 -0.205509,-0.496554 -0.41717,-1.004271 -0.638672,-1.525391 -0.209869,-0.493998 -0.428065,-0.997547 -0.654296,-1.511718 -0.05417,-0.123316 -0.1147,-0.252784 -0.169922,-0.376953 1.307457,-0.522449 2.254911,-2.068683 3.015625,-3.654297 0.928649,-1.916252 1.840858,-4.450259 2.730468,-6.535157 0.33295,-0.788175 0.661474,-1.483496 0.984375,-2.089843 l 0.0059,-0.0098 0.447265,-0.855469 0.01172,-0.02344 0.02539,-0.05273 c 0.01033,-0.02041 0.01463,-0.02884 0.02344,-0.04687 z"
         style="fill:#edd400;fill-rule:evenodd;stroke:#fce94f;stroke-width:1.4381;stroke-linecap:round;stroke-linejoin:round;stroke-dasharray:none;stroke-opacity:1"
         id="path833"
         transform="matrix(1.0428047,0,0,1.0432797,-1.3697512,-1.3849527)" />
      <path
         d="m 30.707031,15.109375 c 0.0844,0.215166 0.169441,0.430801 0.253906,0.646484 0.186679,0.474603 0.38042,0.962386 0.580079,1.462891 0.380457,0.956024 0.783335,1.950474 1.208984,2.982422 0.408153,0.991526 0.846544,2.023741 1.316406,3.097656 0.06494,0.148176 0.13856,0.303748 0.205078,0.453125 -1.582454,0.623754 -2.66803,2.764854 -3.591797,4.919922 -1.079997,2.493343 -2.122577,5.488614 -3.132812,7.353516 l -0.01172,0.01953 -0.447265,0.855469 -0.0078,0.01563 c -0.0242,0.04769 -0.03705,0.07428 -0.05469,0.111328 0.01775,-0.123853 0.037,-0.250178 0.05469,-0.371094 0.349209,-2.387221 0.697935,-4.816096 1.046875,-7.242188 0.215151,-1.495467 0.429906,-2.96166 0.644531,-4.365234 0.01502,-0.09817 0.03045,-0.190318 0.04687,-0.296875 0.181379,-1.178082 0.363438,-2.290554 0.544922,-3.349609 0.07554,-0.441399 0.146449,-0.868199 0.220703,-1.277344 0.04727,-0.260337 0.09578,-0.524604 0.142578,-0.771484 0.136444,-0.72035 0.272019,-1.391084 0.40625,-1.998047 0.02252,-0.102039 0.04822,-0.199182 0.07813,-0.330078 0.117553,-0.516195 0.232819,-0.975072 0.347657,-1.390625 0.04768,-0.172811 0.08833,-0.328292 0.128906,-0.462891 0.0066,-0.02177 0.01306,-0.04132 0.01953,-0.0625 z"
         style="fill:#edd400;fill-rule:evenodd;stroke:#fce94f;stroke-width:1.4381;stroke-linecap:round;stroke-linejoin:round;stroke-dasharray:none;stroke-opacity:1"
         id="path834"
         transform="matrix(1.0428047,0,0,1.0432797,-1.3697512,-1.3849527)" />
      <path
         d="m 38.402344,26.96875 c -0.01793,0.125152 -0.03682,0.252837 -0.05469,0.375 -0.349208,2.387232 -0.697931,4.816087 -1.046875,7.242187 -0.215121,1.495306 -0.429968,2.962046 -0.644531,4.365235 -0.01502,0.09817 -0.03045,0.190313 -0.04687,0.296875 -0.181373,1.178072 -0.363436,2.290573 -0.544922,3.349609 -0.07554,0.441395 -0.146448,0.868204 -0.220703,1.277344 -0.04727,0.260338 -0.09578,0.524611 -0.142578,0.771484 -0.136447,0.720352 -0.272018,1.391106 -0.40625,1.998047 -0.02252,0.10204 -0.04823,0.199195 -0.07813,0.330078 -0.117561,0.516207 -0.232822,0.9751 -0.347656,1.390625 -0.04768,0.172817 -0.08833,0.328299 -0.128907,0.462891 -0.0068,0.02238 -0.01288,0.04268 -0.01953,0.06445 -0.283126,-0.722891 -0.562874,-1.435134 -0.880859,-2.230469 -0.383045,-0.961529 -0.79096,-1.963858 -1.220703,-3.003906 -0.20553,-0.496658 -0.417146,-1.004245 -0.638672,-1.525391 -0.210908,-0.496333 -0.43133,-1.000478 -0.65625,-1.511718 -0.05519,-0.125635 -0.117528,-0.25821 -0.173828,-0.384766 0.838619,-0.335636 1.516896,-1.065299 2.046875,-1.886719 l 0.0098,-0.01563 c 1.682321,-2.542504 3.21524,-7.657423 4.679688,-10.367187 0.17759,-0.332742 0.348204,-0.665637 0.515625,-0.998047 z"
         style="fill:#edd400;fill-rule:evenodd;stroke:#fce94f;stroke-width:1.4381;stroke-linecap:round;stroke-linejoin:round;stroke-dasharray:none;stroke-opacity:1"
         id="path835"
         transform="matrix(1.0428047,0,0,1.0432797,-1.3697512,-1.3849527)" />
      <path
         d="m 48.228516,15.111328 c 0.08425,0.214816 0.169551,0.429122 0.253906,0.644531 0.186669,0.474598 0.380458,0.96244 0.580078,1.462891 0.380459,0.956096 0.783385,1.950509 1.208984,2.982422 0.408155,0.991654 0.846555,2.023781 1.316407,3.097656 0.06688,0.152607 0.142383,0.312919 0.210937,0.466797 -0.02873,0.01166 -0.06173,0.0236 -0.08789,0.03516 -0.170762,0.07413 -0.326455,0.163456 -0.451171,0.244141 l -0.01172,0.0059 c 0,0 0.0066,-0.0169 -0.158203,0.105469 -0.149787,0.11 -0.294809,0.232975 -0.4375,0.373047 -0.01143,0.01105 0.0032,-0.0029 -0.0059,0.0059 -0.002,0.002 -0.0038,0.0039 -0.0059,0.0059 -0.07887,0.07806 -0.06445,0.07031 -0.06445,0.07031 l -0.0098,0.0098 c -0.05202,0.05372 -0.108494,0.117674 -0.130859,0.142578 -0.137433,0.151107 -0.269069,0.312527 -0.396485,0.484375 -0.02217,0.02986 -0.05302,0.07119 -0.08594,0.117187 -0.12611,0.176821 -0.244848,0.360902 -0.353516,0.53711 -0.02831,0.04556 -0.07442,0.115072 -0.121093,0.193359 -0.08893,0.15032 -0.17389,0.309303 -0.248047,0.445313 -0.281894,0.513369 -0.55976,1.080853 -0.828125,1.683593 -0.03396,0.07563 -0.07446,0.164072 -0.119141,0.265625 -0.01036,0.02381 -0.0281,0.06124 -0.04883,0.109375 -0.0692,0.158969 -0.1353,0.324705 -0.191406,0.457032 -0.123431,0.290789 -0.253779,0.59053 -0.382813,0.908203 -0.05877,0.144248 -0.11887,0.291458 -0.177734,0.4375 -0.134843,0.334178 -0.268833,0.668286 -0.404297,1.007812 -0.183474,0.459992 -0.366732,0.916128 -0.550781,1.369141 -0.162114,0.399187 -0.32437,0.78171 -0.490235,1.169922 -0.107451,0.251373 -0.206554,0.490482 -0.30664,0.71289 -0.02932,0.06517 -0.05763,0.12504 -0.08984,0.195313 -0.199546,0.435293 -0.390216,0.829901 -0.574219,1.169922 l -0.0098,0.01953 -0.476563,0.914062 -0.0078,0.01563 c -0.0081,0.01598 -0.01044,0.02258 -0.01758,0.03711 0.02735,-0.176839 0.05435,-0.349199 0.08203,-0.539063 0.160077,-1.099146 0.318731,-2.215324 0.478515,-3.335937 0.03667,-0.257122 0.07532,-0.510924 0.113282,-0.777344 0.289372,-2.033609 0.578372,-4.051412 0.867187,-5.986328 0.13693,-0.917635 0.272951,-1.796368 0.410156,-2.664063 0.06939,-0.43863 0.137799,-0.891777 0.205078,-1.300781 0.207311,-1.260672 0.414999,-2.433423 0.621094,-3.488281 0.03618,-0.186666 0.07202,-0.361994 0.109375,-0.546875 0.05519,-0.273576 0.109086,-0.541313 0.16211,-0.787109 0.03834,-0.177472 0.07491,-0.336566 0.115234,-0.513672 0.05385,-0.236819 0.103196,-0.456104 0.154297,-0.664063 0.05136,-0.208903 0.102547,-0.398317 0.158203,-0.605468 0.04204,-0.156467 0.07664,-0.294582 0.109375,-0.408204 0.02785,-0.09672 0.05797,-0.192125 0.08789,-0.285156 z"
         style="fill:#edd400;fill-rule:evenodd;stroke:#fce94f;stroke-width:1.4381;stroke-linecap:round;stroke-linejoin:round;stroke-dasharray:none;stroke-opacity:1"
         id="path836"
         transform="matrix(1.0428047,0,0,1.0432797,-1.3697512,-1.3849527)" />
      <path
         d="m 55.916016,26.990234 c -0.02956,0.201291 -0.06032,0.380586 -0.08984,0.583985 -0.06227,0.42767 -0.12381,0.865918 -0.185547,1.294922 -0.126347,0.877361 -0.25237,1.750153 -0.378906,2.638671 -0.231064,1.622018 -0.462657,3.240645 -0.69336,4.816407 -0.04263,0.291481 -0.08374,0.573539 -0.126953,0.865234 -0.163065,1.100596 -0.325565,2.164582 -0.488281,3.191406 -0.04765,0.300247 -0.09709,0.60348 -0.144531,0.894532 -0.199101,1.223124 -0.39482,2.375918 -0.591797,3.410156 -0.138532,0.730084 -0.276973,1.399365 -0.414063,2.015625 -0.0222,0.09978 -0.04543,0.198328 -0.07031,0.30664 -0.139427,0.610665 -0.273489,1.153252 -0.40625,1.613282 -0.02949,0.102036 -0.05721,0.177397 -0.08594,0.271484 -0.283059,-0.722674 -0.561074,-1.43536 -0.878906,-2.230469 -0.383061,-0.961723 -0.790924,-1.963988 -1.220703,-3.003906 -0.205559,-0.496728 -0.417249,-1.004383 -0.638672,-1.525391 -0.210928,-0.496493 -0.431339,-1.00055 -0.65625,-1.511718 -0.05553,-0.126407 -0.119129,-0.259381 -0.175781,-0.386719 0.03314,-0.01343 0.06965,-0.02772 0.09961,-0.04102 0.149025,-0.06605 0.299751,-0.147035 0.451172,-0.246093 0.01025,-0.0068 0.101214,-0.0613 0.177734,-0.119141 0.189258,-0.141453 0.369749,-0.302496 0.544922,-0.486328 l 0.0098,-0.01172 c 0.04454,-0.04773 0.0183,-0.01864 0.0098,-0.0098 l 0.0078,-0.0078 c 0.166997,-0.17791 0.320166,-0.36978 0.460938,-0.558594 0.04228,-0.05688 0.07643,-0.108161 0.08984,-0.126953 0.09522,-0.133092 0.185018,-0.272632 0.25586,-0.382812 0.404683,-0.628297 0.793504,-1.378594 1.166015,-2.19336 0.03768,-0.08223 0.07607,-0.169507 0.111328,-0.248047 0.05419,-0.121337 0.118914,-0.256728 0.181641,-0.402343 0.05645,-0.12968 0.105244,-0.257491 0.144531,-0.34961 0.166193,-0.389452 0.332662,-0.790135 0.498047,-1.197265 0.305892,-0.753274 0.611403,-1.516866 0.916016,-2.273438 0.166058,-0.4129 0.330343,-0.794672 0.501953,-1.203125 0.384752,-0.916698 0.749406,-1.745145 1.105469,-2.402344 l 0.01172,-0.01953 0.447266,-0.855469 0.01172,-0.02344 0.02539,-0.05273 c 0.007,-0.01387 0.01107,-0.02003 0.01758,-0.0332 z"
         style="fill:#edd400;fill-rule:evenodd;stroke:#fce94f;stroke-width:1.4381;stroke-linecap:round;stroke-linejoin:round;stroke-dasharray:none;stroke-opacity:1"
         id="path837"
         transform="matrix(1.0428047,0,0,1.0432797,-1.3697512,-1.3849527)" />
    </g>
  </g>
  <g
     id="g12"
     transform="matrix(-0.70000239,0,0,0.70000239,37.232402,30.654747)"
     style="display:inline">
    <path
       id="path11"
       d="M 15,27 V 19 L 0.87149136,31.999999 15,45 v -8 h 14.714369 c 0,2.2e-5 0,0 0,0 V 27 Z"
       style="fill:#729fcf;fill-opacity:1;stroke:#0c1522;stroke-width:2;stroke-linecap:butt;stroke-linejoin:round;stroke-opacity:1" />
    <path
       id="path12"
       d="m 13.066964,29 0.02232,-5.529467 -9.1754064,8.529466 9.2200494,8.574111 V 35.089285 L 27.762035,35 v -6 0 z"
       style="fill:#3465a4;stroke:#729fcf;stroke-width:2;stroke-linecap:butt;stroke-linejoin:miter;stroke-opacity:1" />
  </g>
  <g
     id="g4"
     transform="matrix(-0.22359347,0.79267403,-0.61011487,-0.17567423,56.899868,9.194302)">
    <path
       style="fill:#cc0000;stroke:#280000;stroke-width:2;stroke-linecap:butt;stroke-linejoin:round;stroke-opacity:1"
       d="m 22,23 v 8 L 11,18 22,5 v 8 c 8.384675,0.284272 17.347043,6.045424 17.398052,10.998501 l 0.10215,9.918935 C 39.500202,33.917436 36.168943,22.877393 22,23 Z"
       id="path3" />
    <path
       style="display:inline;mix-blend-mode:normal;fill:none;stroke:#ef2929;stroke-width:2;stroke-linecap:butt;stroke-linejoin:miter;stroke-opacity:1"
       d="M 20,10.5 13.6,18 20,25.5 V 21 c 12.350879,-0.473246 17.471895,5.944927 17.471895,5.944927 l 0.02131,-3.001231 c 0,0 -2.314076,-8.79997 -17.493209,-8.943696 z"
       id="path4" />
  </g>
</svg>
