<?xml version="1.0" encoding="UTF-8" standalone="no"?>
<svg
   width="64"
   height="64"
   version="1.1"
   viewBox="0 0 64 64"
   id="svg96"
   sodipodi:docname="Assembly_SnapshotGroup.svg"
   inkscape:version="1.4.2 (f4327f4, 2025-05-13)"
   xmlns:inkscape="http://www.inkscape.org/namespaces/inkscape"
   xmlns:sodipodi="http://sodipodi.sourceforge.net/DTD/sodipodi-0.dtd"
   xmlns:xlink="http://www.w3.org/1999/xlink"
   xmlns="http://www.w3.org/2000/svg"
   xmlns:svg="http://www.w3.org/2000/svg"
   xmlns:rdf="http://www.w3.org/1999/02/22-rdf-syntax-ns#"
   xmlns:cc="http://creativecommons.org/ns#"
   xmlns:dc="http://purl.org/dc/elements/1.1/">
  <sodipodi:namedview
     id="namedview68"
     pagecolor="#505050"
     bordercolor="#eeeeee"
     borderopacity="1"
     objecttolerance="10.0"
     gridtolerance="10.0"
     guidetolerance="10.0"
     inkscape:pageshadow="0"
     inkscape:pageopacity="0"
     inkscape:pagecheckerboard="0"
     showgrid="false"
     inkscape:zoom="4.1597765"
     inkscape:cx="13.342063"
     inkscape:cy="6.130137"
     inkscape:window-width="3840"
     inkscape:window-height="1571"
     inkscape:window-x="-9"
     inkscape:window-y="-9"
     inkscape:window-maximized="1"
     inkscape:current-layer="svg96"
     inkscape:showpageshadow="0"
     inkscape:deskcolor="#505050ff" />
  <defs
     id="defs26">
    <linearGradient
       id="linearGradient1">
      <stop
         style="stop-color:#efdc3d;stop-opacity:1;"
         offset="0"
         id="stop1" />
      <stop
         style="stop-color:#bba80d;stop-opacity:1;"
         offset="1"
         id="stop3" />
    </linearGradient>
    <linearGradient
       id="linearGradient4383">
      <stop
         stop-color="#3465a4"
         offset="0"
         id="stop2" />
      <stop
         stop-color="#729fcf"
         offset="1"
         id="stop4" />
    </linearGradient>
    <linearGradient
       id="linearGradient4399"
       x1="48.714"
       x2="44.714"
       y1="45.586"
       y2="34.586"
       gradientTransform="translate(1.2856,1.4142)"
       gradientUnits="userSpaceOnUse">
      <stop
         stop-color="#c4a000"
         offset="0"
         id="stop8" />
      <stop
         stop-color="#edd400"
         offset="1"
         id="stop10" />
    </linearGradient>
    <linearGradient
       id="linearGradient69056"
       x1="27.244"
       x2="22.244"
       y1="54.588"
       y2="40.588"
       gradientTransform="translate(-1.2435,-2.5881)"
       gradientUnits="userSpaceOnUse">
      <stop
         stop-color="#c4a000"
         offset="0"
         id="stop14" />
      <stop
         stop-color="#fce94f"
         offset="1"
         id="stop16" />
    </linearGradient>
    <linearGradient
       id="linearGradient3774">
      <stop
         stop-color="#4e9a06"
         offset="0"
         id="stop21" />
      <stop
         stop-color="#8ae234"
         offset="1"
         id="stop23" />
    </linearGradient>
    <linearGradient
       xlink:href="#linearGradient4383"
       id="linearGradient9"
       x1="32"
       y1="64"
       x2="32"
       y2="14.419661"
       gradientUnits="userSpaceOnUse" />
    <linearGradient
       xlink:href="#linearGradient4399"
       id="linearGradient13"
       gradientUnits="userSpaceOnUse"
       gradientTransform="translate(1.2856,1.4142)"
       x1="48.714"
       y1="45.586"
       x2="44.714"
       y2="34.586" />
    <linearGradient
       xlink:href="#linearGradient1"
       id="linearGradient14"
       gradientUnits="userSpaceOnUse"
       x1="8.000092"
       y1="31.5"
       x2="55.999914"
       y2="31.5" />
    <linearGradient
       xlink:href="#linearGradient3774"
       id="linearGradient15"
       gradientUnits="userSpaceOnUse"
       gradientTransform="translate(-1.2435,-2.5881)"
       x1="20.244"
       y1="37.588"
       x2="17.244"
       y2="27.588" />
    <linearGradient
       xlink:href="#linearGradient3774"
       id="linearGradient16"
       gradientUnits="userSpaceOnUse"
       gradientTransform="translate(-12.714,-17.586)"
       x1="48.714"
       y1="45.586"
       x2="44.714"
       y2="34.586" />
    <linearGradient
       xlink:href="#linearGradient69056"
       id="linearGradient17"
       gradientUnits="userSpaceOnUse"
       gradientTransform="translate(-41.2435,-2.5881)"
       x1="20.243999"
       y1="37.588001"
       x2="17.243999"
       y2="27.587999" />
    <linearGradient
       xlink:href="#linearGradient4399"
       id="linearGradient18"
       gradientUnits="userSpaceOnUse"
       gradientTransform="translate(-52.714,-17.586)"
       x1="48.714001"
       y1="45.585999"
       x2="44.714001"
       y2="34.585999" />
    <linearGradient
       xlink:href="#linearGradient4383"
       id="linearGradient19"
       gradientUnits="userSpaceOnUse"
       gradientTransform="matrix(1,-0.026667,0,1,81.696,-5.3735)"
       x1="20.244"
       y1="37.588"
       x2="17.244"
       y2="27.588" />
    <linearGradient
       xlink:href="#linearGradient4383"
       id="linearGradient20"
       gradientUnits="userSpaceOnUse"
       gradientTransform="translate(61.2256,1.0356)"
       x1="50.714"
       y1="25.586"
       x2="48.714"
       y2="20.586" />
    <linearGradient
       xlink:href="#linearGradient69056"
       id="linearGradient21"
       gradientUnits="userSpaceOnUse"
       gradientTransform="translate(-1.2435,-2.5881)"
       x1="27.244"
       y1="54.588"
       x2="22.244"
       y2="40.588" />
    <linearGradient
       xlink:href="#linearGradient1310"
       id="linearGradient1312"
       x1="57.636765"
       y1="50.225197"
       x2="5.834971"
       y2="19.189537"
       gradientUnits="userSpaceOnUse" />
    <linearGradient
       id="linearGradient1310">
      <stop
         style="stop-color:#06989a;stop-opacity:1"
         offset="0"
         id="stop1306" />
      <stop
         style="stop-color:#34e0e2;stop-opacity:1"
         offset="1"
         id="stop1308" />
    </linearGradient>
    <radialGradient
       xlink:href="#linearGradient1328"
       id="radialGradient1322"
       gradientUnits="userSpaceOnUse"
       gradientTransform="matrix(0.63386275,-0.23182155,0.2537893,0.66955708,2.6877981,15.492078)"
       cx="35.62875"
       cy="36.01474"
       fx="35.62875"
       fy="36.01474"
       r="16" />
    <linearGradient
       id="linearGradient1328">
      <stop
         id="stop1324"
         offset="0"
         style="stop-color:#ffffff;stop-opacity:1" />
      <stop
         id="stop1326"
         offset="1"
         style="stop-color:#16d0d2;stop-opacity:0;" />
    </linearGradient>
  </defs>
  <metadata
     id="metadata28">
    <rdf:RDF>
      <cc:Work
         rdf:about="">
        <dc:format>image/svg+xml</dc:format>
        <dc:type
           rdf:resource="http://purl.org/dc/dcmitype/StillImage" />
        <dc:date>2015-07-04</dc:date>
        <dc:relation>https://www.freecad.org/wiki/index.php?title=Artwork</dc:relation>
        <dc:publisher>
          <cc:Agent>
            <dc:title>FreeCAD</dc:title>
          </cc:Agent>
        </dc:publisher>
        <dc:identifier>FreeCAD/src/Mod/Path/Gui/Resources/icons/Path-Stock.svg</dc:identifier>
        <dc:rights>
          <cc:Agent>
            <dc:title>FreeCAD LGPL2+</dc:title>
          </cc:Agent>
        </dc:rights>
        <cc:license>https://www.gnu.org/copyleft/lesser.html</cc:license>
        <dc:contributor>
          <cc:Agent>
            <dc:title>[agryson] Alexander Gryson</dc:title>
          </cc:Agent>
        </dc:contributor>
      </cc:Work>
    </rdf:RDF>
  </metadata>
  <g
     id="layer3"
     style="display:inline">
    <path
       style="fill:#204a87;fill-opacity:1;stroke:#0c1522;stroke-width:2;stroke-linecap:round;stroke-miterlimit:4;stroke-dasharray:none;stroke-opacity:1;paint-order:normal"
       id="path4"
       d="M 29.921921,10.073012 26.993293,6.1977395 C 26.21651,5.1698698 25.163057,4.5924975 24.064598,4.5924975 H 5.0714589 c -1.1437425,0 -2.0708717,1.2268134 -2.0708717,2.740257 V 58.484215 c 0,0.504481 0.309043,0.913419 0.6902905,0.913419 H 60.294706 c 0.381247,0 0.690291,-0.408938 0.690291,-0.913419 V 12.813269 c 0,-1.513445 -0.927129,-2.740257 -2.070872,-2.740257 z" />
    <path
       style="fill:#204a87;fill-opacity:1;stroke:#3465a4;stroke-width:2;stroke-linecap:round;stroke-miterlimit:4;stroke-dasharray:none;stroke-opacity:1;paint-order:normal"
       id="path7"
       d="M 5.2089844,6.5917969 H 24.064453 c 0.375444,0 0.874561,0.2026195 1.333984,0.8105468 l 3.527344,4.6699223 h 29.84961 c 0.0082,0.01044 0.01784,0.02289 0.02734,0.03711 0.01056,0.0158 0.02193,0.03237 0.0332,0.05273 0.08049,0.145363 0.148438,0.361331 0.148438,0.650391 v 44.58594 H 5 V 7.3320312 C 5,7.0436394 5.0678061,6.828994 5.1484375,6.6835937 c 0.011294,-0.020366 0.022609,-0.038859 0.033203,-0.054687 0.00953,-0.014245 0.019073,-0.026632 0.027344,-0.03711 z" />
    <path
       style="fill:#729fcf;fill-opacity:1;stroke:#0c1522;stroke-width:2;stroke-linecap:round;stroke-linejoin:round;stroke-miterlimit:4;stroke-dasharray:none;stroke-opacity:1;paint-order:normal"
       id="path6-0"
       d="m 29.919347,14.419661 -2.927223,3.534545 C 26.215716,18.891703 25.16247,19.41831 24.064012,19.41831 H 3.0000008 l 0.015588,39.156085 c 2.171e-4,0.460126 0.3093777,0.833108 0.6906252,0.833108 h 56.603828 c 0.381248,0 0.690139,-0.372982 0.689957,-0.833108 L 60.983419,16.918986 C 60.982865,15.538609 60.055293,14.419661 58.91155,14.419661 H 29.919344 Z" />
    <path
       style="fill:url(#linearGradient9);fill-opacity:1;stroke:#729fcf;stroke-width:2;stroke-linecap:round;stroke-linejoin:round;stroke-miterlimit:4;stroke-dasharray:none;stroke-opacity:1;paint-order:normal"
       id="path8"
       d="m 30.861328,16.419922 h 28.050781 c 0,0 0.07225,0.463543 0.07227,0.5 L 59,57.408203 H 5.015625 L 5,21.417969 h 19.064453 c 1.756119,0 3.349555,-0.836095 4.46875,-2.1875 z" />
  </g>
  <g
     id="g1166"
     transform="matrix(0.6616813,0,0,0.67229934,11.016627,17.000696)"
     style="fill:none;stroke:#000000;stroke-width:1.96237;stroke-linecap:round;stroke-linejoin:round;stroke-dasharray:none">
    <path
       id="path138"
       d="m 60.689917,49.407377 a 5.2163485,4.9735365 0 0 1 -5.216349,4.973537 H 8.5264316 A 5.2163485,4.9735365 0 0 1 3.310083,49.407377 V 22.052926 A 5.2163485,4.9735365 0 0 1 8.5264316,17.079389 H 18.959129 l 5.216348,-7.4603035 h 15.649046 l 5.216348,7.4603035 h 10.432697 a 5.2163485,4.9735365 0 0 1 5.216349,4.973537 z"
       style="fill:url(#linearGradient1312);fill-opacity:1;stroke:#042a2a;stroke-width:1.96237;stroke-miterlimit:4;stroke-dasharray:none" />
    <g
       transform="translate(0,4)"
       id="g1160"
       style="stroke-width:1.96237;stroke-dasharray:none">
      <path
         id="circle140"
         style="display:inline;fill:url(#radialGradient1322);fill-opacity:1;stroke:#042a2a;stroke-width:1.96809;stroke-miterlimit:4;stroke-dasharray:none;stroke-opacity:1"
         d="M 46.840684,31.893639 A 14.840591,14.59066 0 0 1 32.021326,46.484285 14.840591,14.59066 0 0 1 17.159562,31.935391 14.840591,14.59066 0 0 1 31.936394,17.303113 14.840591,14.59066 0 0 1 46.840441,31.810137" />
      <path
         id="path3"
         style="display:inline;fill:none;fill-opacity:1;stroke:#34e0e2;stroke-width:1.96807;stroke-miterlimit:4;stroke-dasharray:none;stroke-opacity:1"
         d="m 44.862614,31.893641 c 0,6.932858 -5.725821,12.633765 -12.844038,12.643821 -7.118217,0.01001 -12.860863,-5.674979 -12.880954,-12.60781 -0.02009,-6.932832 5.688861,-12.649558 12.807019,-12.679728 7.118156,-0.03017 12.877584,5.638946 12.917764,12.571696" />
    </g>
  </g>
</svg>
