<?xml version="1.0" encoding="UTF-8" standalone="no"?>
<svg
   width="64"
   height="64"
   version="1.1"
   viewBox="0 0 64 64"
   id="svg96"
   sodipodi:docname="Assembly_SimulationGroup.svg"
   inkscape:version="1.1-beta1 (77e7b44db3, 2021-03-28)"
   xmlns:inkscape="http://www.inkscape.org/namespaces/inkscape"
   xmlns:sodipodi="http://sodipodi.sourceforge.net/DTD/sodipodi-0.dtd"
   xmlns:xlink="http://www.w3.org/1999/xlink"
   xmlns="http://www.w3.org/2000/svg"
   xmlns:svg="http://www.w3.org/2000/svg"
   xmlns:rdf="http://www.w3.org/1999/02/22-rdf-syntax-ns#"
   xmlns:cc="http://creativecommons.org/ns#"
   xmlns:dc="http://purl.org/dc/elements/1.1/">
  <sodipodi:namedview
     id="namedview68"
     pagecolor="#505050"
     bordercolor="#eeeeee"
     borderopacity="1"
     objecttolerance="10.0"
     gridtolerance="10.0"
     guidetolerance="10.0"
     inkscape:pageshadow="0"
     inkscape:pageopacity="0"
     inkscape:pagecheckerboard="0"
     showgrid="false"
     inkscape:zoom="1.4707031"
     inkscape:cx="-470.18327"
     inkscape:cy="82.613546"
     inkscape:window-width="3840"
     inkscape:window-height="1571"
     inkscape:window-x="-9"
     inkscape:window-y="-9"
     inkscape:window-maximized="1"
     inkscape:current-layer="svg96" />
  <defs
     id="defs26">
    <linearGradient
       id="linearGradient1">
      <stop
         style="stop-color:#efdc3d;stop-opacity:1;"
         offset="0"
         id="stop1" />
      <stop
         style="stop-color:#bba80d;stop-opacity:1;"
         offset="1"
         id="stop3" />
    </linearGradient>
    <linearGradient
       id="linearGradient4383">
      <stop
         stop-color="#3465a4"
         offset="0"
         id="stop2" />
      <stop
         stop-color="#729fcf"
         offset="1"
         id="stop4" />
    </linearGradient>
    <linearGradient
       id="linearGradient4399"
       x1="48.714"
       x2="44.714"
       y1="45.586"
       y2="34.586"
       gradientTransform="translate(1.2856,1.4142)"
       gradientUnits="userSpaceOnUse">
      <stop
         stop-color="#c4a000"
         offset="0"
         id="stop8" />
      <stop
         stop-color="#edd400"
         offset="1"
         id="stop10" />
    </linearGradient>
    <linearGradient
       id="linearGradient69056"
       x1="27.244"
       x2="22.244"
       y1="54.588"
       y2="40.588"
       gradientTransform="translate(-1.2435,-2.5881)"
       gradientUnits="userSpaceOnUse">
      <stop
         stop-color="#c4a000"
         offset="0"
         id="stop14" />
      <stop
         stop-color="#fce94f"
         offset="1"
         id="stop16" />
    </linearGradient>
    <linearGradient
       id="linearGradient3774">
      <stop
         stop-color="#4e9a06"
         offset="0"
         id="stop21" />
      <stop
         stop-color="#8ae234"
         offset="1"
         id="stop23" />
    </linearGradient>
    <linearGradient
       xlink:href="#linearGradient4383"
       id="linearGradient9"
       x1="32"
       y1="64"
       x2="32"
       y2="14.419661"
       gradientUnits="userSpaceOnUse" />
    <linearGradient
       xlink:href="#linearGradient4399"
       id="linearGradient13"
       gradientUnits="userSpaceOnUse"
       gradientTransform="translate(1.2856,1.4142)"
       x1="48.714"
       y1="45.586"
       x2="44.714"
       y2="34.586" />
    <linearGradient
       xlink:href="#linearGradient1"
       id="linearGradient14"
       gradientUnits="userSpaceOnUse"
       x1="8.000092"
       y1="31.5"
       x2="55.999914"
       y2="31.5" />
    <linearGradient
       xlink:href="#linearGradient3774"
       id="linearGradient15"
       gradientUnits="userSpaceOnUse"
       gradientTransform="translate(-1.2435,-2.5881)"
       x1="20.244"
       y1="37.588"
       x2="17.244"
       y2="27.588" />
    <linearGradient
       xlink:href="#linearGradient3774"
       id="linearGradient16"
       gradientUnits="userSpaceOnUse"
       gradientTransform="translate(-12.714,-17.586)"
       x1="48.714"
       y1="45.586"
       x2="44.714"
       y2="34.586" />
    <linearGradient
       xlink:href="#linearGradient69056"
       id="linearGradient17"
       gradientUnits="userSpaceOnUse"
       gradientTransform="translate(-41.2435,-2.5881)"
       x1="20.243999"
       y1="37.588001"
       x2="17.243999"
       y2="27.587999" />
    <linearGradient
       xlink:href="#linearGradient4399"
       id="linearGradient18"
       gradientUnits="userSpaceOnUse"
       gradientTransform="translate(-52.714,-17.586)"
       x1="48.714001"
       y1="45.585999"
       x2="44.714001"
       y2="34.585999" />
    <linearGradient
       xlink:href="#linearGradient4383"
       id="linearGradient19"
       gradientUnits="userSpaceOnUse"
       gradientTransform="matrix(1,-0.026667,0,1,81.696,-5.3735)"
       x1="20.244"
       y1="37.588"
       x2="17.244"
       y2="27.588" />
    <linearGradient
       xlink:href="#linearGradient4383"
       id="linearGradient20"
       gradientUnits="userSpaceOnUse"
       gradientTransform="translate(61.2256,1.0356)"
       x1="50.714"
       y1="25.586"
       x2="48.714"
       y2="20.586" />
    <linearGradient
       xlink:href="#linearGradient69056"
       id="linearGradient21"
       gradientUnits="userSpaceOnUse"
       gradientTransform="translate(-1.2435,-2.5881)"
       x1="27.244"
       y1="54.588"
       x2="22.244"
       y2="40.588" />
  </defs>
  <metadata
     id="metadata28">
    <rdf:RDF>
      <cc:Work
         rdf:about="">
        <dc:format>image/svg+xml</dc:format>
        <dc:type
           rdf:resource="http://purl.org/dc/dcmitype/StillImage" />
        <dc:date>2015-07-04</dc:date>
        <dc:relation>https://www.freecad.org/wiki/index.php?title=Artwork</dc:relation>
        <dc:publisher>
          <cc:Agent>
            <dc:title>FreeCAD</dc:title>
          </cc:Agent>
        </dc:publisher>
        <dc:identifier>FreeCAD/src/Mod/Path/Gui/Resources/icons/Path-Stock.svg</dc:identifier>
        <dc:rights>
          <cc:Agent>
            <dc:title>FreeCAD LGPL2+</dc:title>
          </cc:Agent>
        </dc:rights>
        <cc:license>https://www.gnu.org/copyleft/lesser.html</cc:license>
        <dc:contributor>
          <cc:Agent>
            <dc:title>[agryson] Alexander Gryson</dc:title>
          </cc:Agent>
        </dc:contributor>
      </cc:Work>
    </rdf:RDF>
  </metadata>
  <g
     id="layer3"
     style="display:inline">
    <path
       style="fill:#204a87;fill-opacity:1;stroke:#0c1522;stroke-width:2;stroke-linecap:round;stroke-miterlimit:4;stroke-dasharray:none;stroke-opacity:1;paint-order:normal"
       id="path4"
       d="M 29.921921,10.073012 26.993293,6.1977395 C 26.21651,5.1698698 25.163057,4.5924975 24.064598,4.5924975 H 5.0714589 c -1.1437425,0 -2.0708717,1.2268134 -2.0708717,2.740257 V 58.484215 c 0,0.504481 0.309043,0.913419 0.6902905,0.913419 H 60.294706 c 0.381247,0 0.690291,-0.408938 0.690291,-0.913419 V 12.813269 c 0,-1.513445 -0.927129,-2.740257 -2.070872,-2.740257 z" />
    <path
       style="fill:#204a87;fill-opacity:1;stroke:#3465a4;stroke-width:2;stroke-linecap:round;stroke-miterlimit:4;stroke-dasharray:none;stroke-opacity:1;paint-order:normal"
       id="path7"
       d="M 5.2089844,6.5917969 H 24.064453 c 0.375444,0 0.874561,0.2026195 1.333984,0.8105468 l 3.527344,4.6699223 h 29.84961 c 0.0082,0.01044 0.01784,0.02289 0.02734,0.03711 0.01056,0.0158 0.02193,0.03237 0.0332,0.05273 0.08049,0.145363 0.148438,0.361331 0.148438,0.650391 v 44.58594 H 5 V 7.3320312 C 5,7.0436394 5.0678061,6.828994 5.1484375,6.6835937 c 0.011294,-0.020366 0.022609,-0.038859 0.033203,-0.054687 0.00953,-0.014245 0.019073,-0.026632 0.027344,-0.03711 z" />
    <path
       style="fill:#729fcf;fill-opacity:1;stroke:#0c1522;stroke-width:2;stroke-linecap:round;stroke-linejoin:round;stroke-miterlimit:4;stroke-dasharray:none;stroke-opacity:1;paint-order:normal"
       id="path6-0"
       d="m 29.919347,14.419661 -2.927223,3.534545 C 26.215716,18.891703 25.16247,19.41831 24.064012,19.41831 H 3.0000008 l 0.015588,39.156085 c 2.171e-4,0.460126 0.3093777,0.833108 0.6906252,0.833108 h 56.603828 c 0.381248,0 0.690139,-0.372982 0.689957,-0.833108 L 60.983419,16.918986 C 60.982865,15.538609 60.055293,14.419661 58.91155,14.419661 H 29.919344 Z" />
    <path
       style="fill:url(#linearGradient9);fill-opacity:1;stroke:#729fcf;stroke-width:2;stroke-linecap:round;stroke-linejoin:round;stroke-miterlimit:4;stroke-dasharray:none;stroke-opacity:1;paint-order:normal"
       id="path8"
       d="m 30.861328,16.419922 h 28.050781 c 0,0 0.07225,0.463543 0.07227,0.5 L 59,57.408203 H 5.015625 L 5,21.417969 h 19.064453 c 1.756119,0 3.349555,-0.836095 4.46875,-2.1875 z" />
  </g>
  <g
     id="g1936"
     transform="matrix(0.04979567,0,0,0.04979567,14.514634,17.567908)">
    <g
       id="#fafbf9ff"
       transform="matrix(1.3333333,0,0,1.3333333,-69.72415,38.882578)">
      <path
         fill="#fafbf9"
         opacity="1"
         d="m 315.82,0 h 1.41 c 0.31,1.91 0.49,3.85 0.65,5.78 -1.82,0.52 -3.67,0.92 -5.54,1.21 -0.48,-1.53 -0.95,-3.06 -1.38,-4.61 1.61,-0.81 3.25,-1.56 4.86,-2.38 z"
         id="path2" />
      <path
         fill="#fafbf9"
         opacity="1"
         d="m 175.28,31.36 c 0.08,0.11 0.25,0.31 0.33,0.41 -0.08,-0.1 -0.25,-0.3 -0.33,-0.41 z"
         id="path4-5" />
      <path
         fill="#fafbf9"
         opacity="1"
         d="m 144.3,37.65 c 0.08,-0.1 0.23,-0.3 0.31,-0.4 -0.08,0.1 -0.23,0.3 -0.31,0.4 z"
         id="path6" />
      <path
         fill="#fafbf9"
         opacity="1"
         d="m 183.37,39.27 c 0.1,0.08 0.3,0.23 0.4,0.31 -0.1,-0.08 -0.3,-0.23 -0.4,-0.31 z"
         id="path8-9" />
      <path
         fill="#fafbf9"
         opacity="1"
         d="m 145.73,56.1 c 6.05,-4.7 10.81,-10.85 17.14,-15.23 7.58,5.62 14.31,12.22 21,18.85 -2.11,1.94 -4.31,3.77 -6.36,5.77 -3.66,3.58 -8.14,6.2 -11.6,10 -5.39,-4.04 -9.88,-9.08 -14.86,-13.56 -1.95,-1.78 -3.7,-3.76 -5.32,-5.83 z"
         id="path10" />
      <path
         fill="#fafbf9"
         opacity="1"
         d="m 451.5,51.5 c 3.63,-3.49 7.29,-6.95 11.13,-10.23 3.29,5.8 9.55,8.55 14.19,12.97 1.89,1.62 -0.1,3.94 -1.54,5.02 -7.43,5.09 -13.32,12 -20.17,17.79 -4.52,-5.29 -10.02,-9.65 -14.45,-15.02 3.16,-3.96 7.26,-6.98 10.84,-10.53 z"
         id="path12" />
      <path
         fill="#fafbf9"
         opacity="1"
         d="m 189.42,45.22 c 0.08,0.11 0.24,0.31 0.31,0.41 -0.07,-0.1 -0.23,-0.3 -0.31,-0.41 z"
         id="path14" />
      <path
         fill="#fafbf9"
         opacity="1"
         d="m 129.28,51.63 c 0.08,-0.1 0.24,-0.29 0.31,-0.38 -0.07,0.09 -0.23,0.28 -0.31,0.38 z"
         id="path16" />
      <path
         fill="#fafbf9"
         opacity="1"
         d="m 136.39,67.19 c 6.73,5.83 14.21,10.77 20.76,16.8 -6.52,7.12 -13.93,13.41 -19.99,20.96 -6.55,-6.79 -14.29,-12.44 -22.43,-17.15 7.45,-6.63 14.81,-13.37 21.66,-20.61 z"
         id="path18" />
      <path
         fill="#fafbf9"
         opacity="1"
         d="m 471.19,81.17 c 5.31,-4.22 10.36,-8.8 14.67,-14.06 6.54,7.66 14.7,13.76 21.79,20.91 -7.23,5.7 -14.52,11.33 -21.68,17.11 -6.64,-6.27 -13.49,-12.32 -20.15,-18.57 1.49,-2.07 3.37,-3.82 5.37,-5.39 z"
         id="path20" />
      <path
         fill="#fafbf9"
         opacity="1"
         d="m 175.34,85.02 c 5.26,-5.3 11.22,-9.93 15.79,-15.88 5.04,5.9 10.46,11.5 16.75,16.1 -5.4,5.12 -10.71,10.34 -16.07,15.47 -1.58,-0.14 -2.43,-1.97 -3.63,-2.87 -4.02,-4.54 -9.24,-7.9 -12.84,-12.82 z"
         id="path22" />
      <path
         fill="#fafbf9"
         opacity="1"
         d="m 428.72,73.65 c 0.73,-0.58 1.74,-2.08 2.75,-1.03 4.95,4.17 10.3,7.86 15.1,12.2 -2.64,3.27 -5.7,6.16 -8.93,8.82 -3.13,2.56 -5.86,5.77 -9.62,7.41 -1.34,-0.61 -2.06,-2.01 -3.04,-3.04 -2.89,-3.73 -6.49,-6.79 -10.03,-9.87 4.03,-5.34 9.11,-9.73 13.77,-14.49 z"
         id="path24" />
      <path
         fill="#fafbf9"
         opacity="1"
         d="m 404.28,77.64 c 0.08,-0.1 0.23,-0.3 0.31,-0.4 -0.08,0.1 -0.23,0.3 -0.31,0.4 z"
         id="path26" />
      <path
         fill="#fafbf9"
         opacity="1"
         d="m 520.36,77.28 c 0.1,0.08 0.31,0.23 0.41,0.31 -0.1,-0.08 -0.31,-0.23 -0.41,-0.31 z"
         id="path28" />
      <path
         fill="#fafbf9"
         opacity="1"
         d="m 101.27,79.63 c 0.1,-0.08 0.3,-0.23 0.4,-0.31 -0.1,0.08 -0.3,0.23 -0.4,0.31 z"
         id="path30" />
      <path
         fill="#fafbf9"
         opacity="1"
         d="m 528.46,85.23 c 0.07,0.1 0.21,0.29 0.28,0.39 -0.07,-0.1 -0.21,-0.29 -0.28,-0.39 z"
         id="path32" />
      <path
         fill="#fafbf9"
         opacity="1"
         d="m 149.21,111.23 c 5.2,-6.17 11.43,-11.34 16.74,-17.39 3.47,3.96 7.08,7.86 11.57,10.69 1.77,1.57 4.51,2.93 4.95,5.37 -5.42,6.01 -10.38,12.64 -17.45,16.87 -5.89,-3.84 -10.1,-10.16 -17.09,-12.24 0.19,-1.19 0.32,-2.45 1.28,-3.3 z"
         id="path34" />
      <path
         fill="#fafbf9"
         opacity="1"
         d="m 214.46,94.94 c 5.44,4.63 10.39,9.89 15.45,14.95 -4.61,4.36 -8.59,9.58 -13.81,13.18 -2.61,-2.09 -4.75,-4.7 -7.19,-6.96 -2.75,-2.77 -6.18,-4.83 -8.45,-8.06 5.24,-3.72 10.04,-8.03 14,-13.11 z"
         id="path36" />
      <path
         fill="#fafbf9"
         opacity="1"
         d="m 445.98,104.96 c 3.67,-2.89 6.59,-6.58 10.15,-9.6 7.52,5.11 13.85,11.69 20.6,17.72 -6.98,4.43 -12.94,10.16 -18.99,15.72 -0.29,-0.1 -0.86,-0.3 -1.15,-0.41 -5.85,-5.71 -13.19,-9.81 -18.2,-16.36 2.26,-2.63 4.87,-4.92 7.59,-7.07 z"
         id="path38" />
      <path
         fill="#fafbf9"
         opacity="1"
         d="m 520.38,96.73 c 0.1,-0.08 0.29,-0.23 0.39,-0.31 -0.1,0.08 -0.29,0.23 -0.39,0.31 z"
         id="path40" />
      <path
         fill="#fafbf9"
         opacity="1"
         d="m 238.42,97.24 c 0.08,0.1 0.23,0.3 0.31,0.4 -0.08,-0.1 -0.23,-0.3 -0.31,-0.4 z"
         id="path42" />
      <path
         fill="#fafbf9"
         opacity="1"
         d="m 107.24,99.41 c 0.1,0.08 0.29,0.23 0.39,0.3 -0.1,-0.07 -0.29,-0.22 -0.39,-0.3 z"
         id="path44" />
      <path
         fill="#fafbf9"
         opacity="1"
         d="m 393.77,111.79 c 4.17,-5.03 8.85,-9.8 14.32,-13.43 3.93,3.91 7.75,8.07 13.06,10.14 -1.45,2.96 -4.07,5.02 -6.39,7.25 -3.23,2.98 -6.23,6.21 -9.76,8.84 -4.26,-3.8 -7.47,-8.55 -11.23,-12.8 z"
         id="path46" />
      <path
         fill="#fafbf9"
         opacity="1"
         d="m 514.37,101.73 c 0.1,-0.08 0.29,-0.24 0.39,-0.32 -0.1,0.08 -0.29,0.24 -0.39,0.32 z"
         id="path48" />
      <path
         fill="#fafbf9"
         opacity="1"
         d="m 115.24,105.42 c 0.1,0.07 0.31,0.22 0.41,0.29 -0.1,-0.07 -0.31,-0.22 -0.41,-0.29 z"
         id="path50" />
      <path
         fill="#fafbf9"
         opacity="1"
         d="m 376.28,107.63 c 0.08,-0.1 0.23,-0.29 0.31,-0.39 -0.08,0.1 -0.23,0.29 -0.31,0.39 z"
         id="path52" />
      <path
         fill="#fafbf9"
         opacity="1"
         d="m 182.6,127.62 c 3.31,-2.92 6.06,-6.39 9.13,-9.55 4.91,5.76 10.98,10.26 16.77,15.06 -5.87,4.6 -11.16,9.91 -17.45,13.97 -5.32,-4.77 -10.7,-9.5 -16.82,-13.24 2.68,-2.23 5.75,-3.93 8.37,-6.24 z"
         id="path54" />
      <path
         fill="#fafbf9"
         opacity="1"
         d="m 224,130.02 c 5.15,-2.53 8.46,-7.32 12.69,-10.99 3.36,3.4 6.94,6.56 10.47,9.77 1.33,1.07 2.03,2.62 2.62,4.19 -4.56,2.15 -8.76,5.02 -12.08,8.84 -4.28,-4.28 -9.37,-7.61 -13.7,-11.81 z"
         id="path56" />
      <path
         fill="#fafbf9"
         opacity="1"
         d="m 374.59,130.21 c 4.1,-2.6 6.44,-7.02 10.22,-9.94 3.97,3.72 8.67,6.68 12.13,10.91 -0.05,0.37 -0.14,1.11 -0.19,1.48 -3.94,3.45 -7.94,7.02 -12.58,9.5 -2.62,-4.41 -4.58,-9.67 -9.58,-11.95 z"
         id="path58" />
      <path
         fill="#fafbf9"
         opacity="1"
         d="m 413.61,134.96 c 6.02,-4.39 11.54,-9.41 17.4,-13.98 4.5,5.6 10.57,9.56 15.87,14.32 -4.51,4.36 -9.51,8.19 -14.01,12.57 -2.53,2.57 -5.64,-0.35 -7.63,-2.1 -3.73,-3.77 -7.82,-7.14 -11.63,-10.81 z"
         id="path60" />
      <path
         fill="#fafbf9"
         opacity="1"
         d="m 542.38,123.23 c 0.1,0.07 0.3,0.2 0.4,0.27 -0.1,-0.07 -0.3,-0.2 -0.4,-0.27 z"
         id="path62" />
      <path
         fill="#fafbf9"
         opacity="1"
         d="m 360.25,124.6 c 0.1,-0.08 0.3,-0.23 0.4,-0.31 -0.1,0.08 -0.3,0.23 -0.4,0.31 z"
         id="path64" />
      <path
         fill="#fafbf9"
         opacity="1"
         d="m 307.31,128.69 c 0.07,-0.12 0.2,-0.34 0.26,-0.45 -0.06,0.11 -0.19,0.33 -0.26,0.45 z"
         id="path66" />
      <path
         fill="#fafbf9"
         opacity="1"
         d="m 145.24,129.41 c 0.1,0.07 0.3,0.23 0.39,0.3 -0.09,-0.07 -0.29,-0.23 -0.39,-0.3 z"
         id="path68" />
      <path
         fill="#fafbf9"
         opacity="1"
         d="m 90.51,131.25 c 0.06,0.12 0.18,0.34 0.24,0.46 -0.06,-0.12 -0.18,-0.34 -0.24,-0.46 z"
         id="path70" />
      <path
         fill="#fafbf9"
         opacity="1"
         d="m 150.24,133.42 c 0.1,0.08 0.3,0.23 0.39,0.3 -0.09,-0.07 -0.29,-0.22 -0.39,-0.3 z"
         id="path72" />
      <path
         fill="#fafbf9"
         opacity="1"
         d="m 533.28,133.36 c 0.06,0.11 0.2,0.31 0.27,0.42 -0.07,-0.11 -0.21,-0.31 -0.27,-0.42 z"
         id="path74" />
      <path
         fill="#fafbf9"
         opacity="1"
         d="m 70.31,136.65 c 0.07,-0.1 0.21,-0.31 0.28,-0.41 -0.07,0.1 -0.21,0.31 -0.28,0.41 z"
         id="path76" />
      <path
         fill="#fafbf9"
         opacity="1"
         d="m 467.35,138.72 c 0.1,-0.07 0.3,-0.22 0.41,-0.3 -0.11,0.08 -0.31,0.23 -0.41,0.3 z"
         id="path78" />
      <path
         fill="#fafbf9"
         opacity="1"
         d="m 293.85,139.69 c 0.14,-0.08 0.42,-0.23 0.56,-0.31 -0.14,0.08 -0.42,0.23 -0.56,0.31 z"
         id="path80" />
      <path
         fill="#fafbf9"
         opacity="1"
         d="m 159.24,140.41 c 0.1,0.07 0.3,0.22 0.4,0.3 -0.1,-0.08 -0.3,-0.23 -0.4,-0.3 z"
         id="path82" />
      <path
         fill="#fafbf9"
         opacity="1"
         d="m 292.51,140.44 c 0.15,-0.09 0.46,-0.26 0.61,-0.35 -0.15,0.09 -0.46,0.26 -0.61,0.35 z"
         id="path84" />
      <path
         fill="#fafbf9"
         opacity="1"
         d="m 337.34,140.3 c 0.1,0.06 0.32,0.19 0.43,0.25 -0.11,-0.06 -0.33,-0.19 -0.43,-0.25 z"
         id="path86" />
      <path
         fill="#fafbf9"
         opacity="1"
         d="m 200.51,155.99 c 4.94,-4.73 9.4,-9.96 14.67,-14.35 5.41,4.04 9.83,9.26 15.08,13.52 -4.66,4.58 -8.71,9.69 -12.92,14.68 -2.37,-2.05 -4.77,-4.06 -7.19,-6.05 -3.19,-2.64 -7.07,-4.46 -9.64,-7.8 z"
         id="path88" />
      <path
         fill="#fafbf9"
         opacity="1"
         d="m 367.22,142.44 c 0.1,0.07 0.29,0.22 0.39,0.3 -0.1,-0.08 -0.29,-0.23 -0.39,-0.3 z"
         id="path90" />
      <path
         fill="#fafbf9"
         opacity="1"
         d="m 557.51,142.21 c 0.06,0.1 0.19,0.32 0.26,0.43 -0.07,-0.11 -0.2,-0.33 -0.26,-0.43 z"
         id="path92" />
      <path
         fill="#fafbf9"
         opacity="1"
         d="m 342.36,143.29 c 0.1,0.06 0.31,0.19 0.42,0.25 -0.11,-0.06 -0.32,-0.19 -0.42,-0.25 z"
         id="path94" />
      <path
         fill="#fafbf9"
         opacity="1"
         d="m 540.28,143.36 c 0.07,0.1 0.22,0.3 0.29,0.4 -0.07,-0.1 -0.22,-0.3 -0.29,-0.4 z"
         id="path96" />
      <path
         fill="#fafbf9"
         opacity="1"
         d="m 83.41,144.75 c 0.08,-0.09 0.23,-0.29 0.3,-0.38 -0.07,0.09 -0.22,0.29 -0.3,0.38 z"
         id="path98" />
      <path
         fill="#fafbf9"
         opacity="1"
         d="m 403.64,145.67 c 1.2,-0.95 3.14,-2.61 4.49,-0.92 3.9,4.06 7.94,8.01 11.55,12.33 -3.04,4.1 -6.39,8.03 -10.34,11.29 -0.93,1.04 -2.3,0.08 -2.93,-0.76 -2.73,-2.7 -4.13,-6.51 -7.23,-8.84 -2.12,-1.62 -4.28,-3.16 -6.33,-4.86 3.7,-2.61 7.31,-5.34 10.79,-8.24 z"
         id="path100" />
      <path
         fill="#fafbf9"
         opacity="1"
         d="m 252.37,147.72 c 0.1,-0.08 0.29,-0.24 0.39,-0.31 -0.1,0.07 -0.29,0.23 -0.39,0.31 z"
         id="path102" />
      <path
         fill="#fafbf9"
         opacity="1"
         d="m 348.38,147.29 c 0.09,0.07 0.29,0.21 0.39,0.29 -0.1,-0.08 -0.3,-0.22 -0.39,-0.29 z"
         id="path104" />
      <path
         fill="#fafbf9"
         opacity="1"
         d="m 543.29,147.38 c 0.07,0.1 0.22,0.3 0.3,0.4 -0.08,-0.1 -0.23,-0.3 -0.3,-0.4 z"
         id="path106" />
      <path
         fill="#fafbf9"
         opacity="1"
         d="m 556.37,148.74 c 0.11,-0.07 0.31,-0.2 0.41,-0.26 -0.1,0.06 -0.3,0.19 -0.41,0.26 z"
         id="path108" />
      <path
         fill="#fafbf9"
         opacity="1"
         d="m 289.53,163.58 c 6.36,-6.04 13.49,-12.13 22.36,-13.83 -1.67,7.11 -4.74,13.77 -7.73,20.4 -1.49,3.73 -2.76,7.59 -5.02,10.96 1.17,1.5 2.38,2.98 3.6,4.45 5.53,-1.42 11.34,-2.55 17.06,-1.54 1.88,0.27 3.77,0.78 5.69,0.62 5.89,-4.08 9.56,-10.51 15.02,-15.09 4.54,-3.77 9.04,-7.67 12.78,-12.26 0.96,-1.2 2.26,-2.03 3.5,-2.9 2.86,1.59 6.12,3.33 6.62,6.95 -12.05,11.87 -26.33,21.93 -35.55,36.39 -4.17,-2.56 -8.84,-4.78 -13.86,-4.44 -7.55,-0.44 -14.09,4.64 -18.44,10.32 -4.61,6.24 -3.42,14.42 -1.99,21.51 -3.99,2.42 -8.05,4.79 -11.5,7.98 -6.87,6.1 -13.95,11.96 -20.59,18.31 -4.4,3.66 -8.21,8.04 -13.11,11.06 -1.52,-0.39 -3.19,-0.44 -4.48,-1.41 -0.88,-2.02 -1.15,-4.35 -2.9,-5.89 0.55,0.24 1.63,0.74 2.18,0.99 6.16,-5.47 11.65,-11.68 18.05,-16.9 6.09,-5.57 11.78,-11.57 17.59,-17.44 3.96,-3.43 2.67,-9.12 2.31,-13.7 -2.13,-4.36 -6.68,-7.36 -11.13,-9.03 -2.63,0.96 -4.97,2.77 -7.88,2.85 0.19,-2.51 1.33,-4.92 1.17,-7.44 -1.95,-6 -8.04,-8.82 -12.02,-13.21 0.26,-3.21 2.64,-5.39 5.85,-5.36 6.41,4.49 12.29,9.68 18.24,14.76 4.15,3.41 6.77,8.51 11.65,11.03 3.59,-1.22 4.55,-5.89 7.59,-8.09 -4.17,-7.96 -11.66,-13.15 -18.25,-18.92 -4.71,-3.72 -8.82,-8.11 -13.16,-12.23 0.7,-3.65 3.73,-6.24 7.54,-5.79 0.14,-0.38 0.41,-1.13 0.55,-1.5 1.97,3.44 5.13,5.9 7.79,8.76 1.7,1.71 3.27,3.61 5.3,4.94 3.1,0.35 3.32,-3.66 5.17,-5.31 z"
         id="path110" />
      <path
         fill="#fafbf9"
         opacity="1"
         d="m 71.21,152.45 c 0.1,0.07 0.3,0.22 0.4,0.29 -0.1,-0.07 -0.3,-0.22 -0.4,-0.29 z"
         id="path112" />
      <path
         fill="#fafbf9"
         opacity="1"
         d="m 371.06,153.76 c 0.11,-0.12 0.33,-0.35 0.43,-0.47 -0.1,0.12 -0.32,0.35 -0.43,0.47 z"
         id="path114" />
      <path
         fill="#fafbf9"
         opacity="1"
         d="m 369.28,155.49 c 0.12,-0.11 0.36,-0.32 0.48,-0.43 -0.12,0.11 -0.36,0.32 -0.48,0.43 z"
         id="path116" />
      <path
         fill="#fafbf9"
         opacity="1"
         d="m 179.25,156.4 c 0.1,0.08 0.29,0.23 0.39,0.31 -0.1,-0.08 -0.29,-0.23 -0.39,-0.31 z"
         id="path118" />
      <path
         fill="#fafbf9"
         opacity="1"
         d="m 441.37,159.71 c 0.1,-0.07 0.29,-0.23 0.39,-0.3 -0.1,0.07 -0.29,0.23 -0.39,0.3 z"
         id="path120" />
      <path
         fill="#fafbf9"
         opacity="1"
         d="m 563.17,159.69 c 0.16,0.01 0.47,0.02 0.62,0.03 z"
         id="path122" />
      <path
         fill="#fafbf9"
         opacity="1"
         d="m 185.25,161.4 c 0.1,0.08 0.29,0.24 0.39,0.32 -0.1,-0.08 -0.29,-0.24 -0.39,-0.32 z"
         id="path124" />
      <path
         fill="#fafbf9"
         opacity="1"
         d="m 566.44,162.21 c 0.07,0.11 0.21,0.32 0.28,0.42 -0.07,-0.1 -0.21,-0.31 -0.28,-0.42 z"
         id="path126" />
      <path
         fill="#fafbf9"
         opacity="1"
         d="m 435.37,164.72 c 0.09,-0.07 0.29,-0.23 0.39,-0.31 -0.1,0.08 -0.3,0.24 -0.39,0.31 z"
         id="path128" />
      <path
         fill="#fafbf9"
         opacity="1"
         d="m 429.36,169.72 c 0.1,-0.08 0.29,-0.24 0.39,-0.32 -0.1,0.08 -0.29,0.24 -0.39,0.32 z"
         id="path130" />
      <path
         fill="#fafbf9"
         opacity="1"
         d="m 197.24,171.4 c 0.1,0.08 0.29,0.23 0.39,0.31 -0.1,-0.08 -0.29,-0.23 -0.39,-0.31 z"
         id="path132" />
      <path
         fill="#fafbf9"
         opacity="1"
         d="m 361.34,181.33 c 3.06,-2.85 5.83,-6.06 9.34,-8.38 3.21,0.63 5.48,3.05 5.97,6.29 -2.19,2.95 -5.2,5.1 -7.95,7.48 -7.37,6.3 -14.86,12.5 -21.66,19.43 0.67,4.9 0.52,9.84 0.78,14.76 1.66,2.7 4.45,4.39 6.72,6.54 10.01,9.14 20.65,17.56 30.62,26.76 -0.05,2.24 0,4.95 -2.3,6.16 -3.41,0.77 -6.19,-1.68 -8.81,-3.44 -8.82,-6.78 -16.78,-14.58 -25.48,-21.5 -3.82,-3.26 -8.19,-5.84 -12.97,-7.39 0.98,-4.58 2.44,-9.24 1.78,-13.97 -0.75,-4.31 -2.63,-8.29 -4.16,-12.36 2.16,-0.32 4.91,0.91 6.62,-0.9 7.12,-6.54 14.3,-13.02 21.5,-19.48 z"
         id="path134" />
      <path
         fill="#fafbf9"
         opacity="1"
         d="m 573.51,175.21 c 0.05,0.12 0.15,0.36 0.2,0.48 -0.05,-0.12 -0.15,-0.36 -0.2,-0.48 z"
         id="path136" />
      <path
         fill="#fafbf9"
         opacity="1"
         d="m 65.48,176.78 c 0.05,-0.13 0.14,-0.39 0.19,-0.52 -0.05,0.13 -0.14,0.39 -0.19,0.52 z"
         id="path138" />
      <path
         fill="#fafbf9"
         opacity="1"
         d="m 558.3,176.27 c 0.05,0.13 0.13,0.39 0.18,0.52 -0.05,-0.13 -0.13,-0.39 -0.18,-0.52 z"
         id="path140" />
      <path
         fill="#fafbf9"
         opacity="1"
         d="m 417.37,179.72 c 0.09,-0.08 0.29,-0.24 0.39,-0.31 -0.1,0.07 -0.3,0.23 -0.39,0.31 z"
         id="path142" />
      <path
         fill="#fafbf9"
         opacity="1"
         d="m 209.21,180.45 c 0.11,0.07 0.32,0.22 0.43,0.29 -0.11,-0.07 -0.32,-0.22 -0.43,-0.29 z"
         id="path144" />
      <path
         fill="#fafbf9"
         opacity="1"
         d="m 412.38,183.73 c 0.1,-0.07 0.29,-0.23 0.39,-0.31 -0.1,0.08 -0.29,0.24 -0.39,0.31 z"
         id="path146" />
      <path
         fill="#fafbf9"
         opacity="1"
         d="m 214.25,184.4 c 0.1,0.08 0.29,0.23 0.38,0.31 -0.09,-0.08 -0.28,-0.23 -0.38,-0.31 z"
         id="path148" />
      <path
         fill="#fafbf9"
         opacity="1"
         d="m 60.45,187.76 c 0.05,-0.12 0.15,-0.38 0.2,-0.5 -0.05,0.12 -0.15,0.38 -0.2,0.5 z"
         id="path150" />
      <path
         fill="#fafbf9"
         opacity="1"
         d="m 245.23,187.71 c 0.08,-0.11 0.24,-0.34 0.33,-0.45 -0.09,0.11 -0.25,0.34 -0.33,0.45 z"
         id="path152" />
      <path
         fill="#fafbf9"
         opacity="1"
         d="m 406.19,187.33 0.61,-0.03 c -0.15,0 -0.45,0.02 -0.61,0.03 z"
         id="path154" />
      <path
         fill="#fafbf9"
         opacity="1"
         d="m 384.45,189.22 c 0.06,0.11 0.19,0.32 0.25,0.43 -0.06,-0.11 -0.19,-0.32 -0.25,-0.43 z"
         id="path156" />
      <path
         fill="#fafbf9"
         opacity="1"
         d="m 243.32,190.63 c 0.07,-0.12 0.22,-0.36 0.29,-0.47 -0.07,0.11 -0.22,0.35 -0.29,0.47 z"
         id="path158" />
      <path
         fill="#fafbf9"
         opacity="1"
         d="m 58.49,192.78 c 0.05,-0.12 0.15,-0.35 0.2,-0.47 -0.05,0.12 -0.15,0.35 -0.2,0.47 z"
         id="path160" />
      <path
         fill="#fafbf9"
         opacity="1"
         d="m 388.37,196.3 c 0.06,0.11 0.17,0.34 0.23,0.46 -0.06,-0.12 -0.17,-0.35 -0.23,-0.46 z"
         id="path162" />
      <path
         fill="#fafbf9"
         opacity="1"
         d="m 237.3,201.69 c 0.04,-0.12 0.14,-0.36 0.19,-0.48 -0.05,0.12 -0.15,0.36 -0.19,0.48 z"
         id="path164" />
      <path
         fill="#fafbf9"
         opacity="1"
         d="m 580.29,206.59 c 0.12,-0.05 0.36,-0.15 0.48,-0.21 -0.12,0.06 -0.36,0.16 -0.48,0.21 z"
         id="path166" />
      <path
         fill="#fafbf9"
         opacity="1"
         d="m 311.38,207.28 c 2.36,-1.26 4.86,0.28 6.85,1.54 3.06,2.03 6.21,5.17 5.8,9.16 0,7.02 -10.27,11.21 -15,5.97 -2.18,-2.21 -4.39,-4.77 -4.86,-7.94 0.2,-4.07 3.78,-7.07 7.21,-8.73 z"
         id="path168" />
      <path
         fill="#fafbf9"
         opacity="1"
         d="m 236.1,229.23 0.56,0.01 0.19,0.52 c -0.19,-0.14 -0.56,-0.4 -0.75,-0.53 z"
         id="path170" />
      <path
         fill="#fafbf9"
         opacity="1"
         d="m 286.78,246.79 c 4.29,-3.69 8.34,-7.74 11.38,-12.55 5.65,2.75 11.15,7.1 17.81,6.42 5.51,0.1 9.65,-4.02 14.6,-5.75 2.65,4.08 5.79,7.89 9.67,10.86 6.22,4.75 12.09,9.91 18.12,14.88 5.75,4.97 11.93,9.46 17.29,14.87 -1.59,3.28 -4.46,5.55 -6.41,8.59 0.34,-0.95 0.68,-1.89 1.03,-2.83 -11.69,-7.62 -22.42,-16.55 -33.13,-25.46 -3.17,-2.51 -5.76,-5.81 -9.41,-7.65 -5.28,-0.04 -10.41,1.78 -15.72,1.37 -4.58,0.16 -9.07,-1.62 -13.63,-1.07 -8.6,6.94 -16.69,14.58 -24.35,22.56 -3.01,3.18 -6.62,5.78 -9.15,9.39 6.45,2.29 13.38,2.07 20.11,1.83 10.63,-1.17 21.34,-0.48 32.01,-0.6 4.83,0.17 9.68,-0.54 14.5,0.1 0.59,9.8 -0.37,19.66 0.85,29.43 0.4,12.3 1.83,24.54 2.49,36.83 1.73,13.01 4.03,26.2 1.94,39.31 -1.39,9.51 -0.91,19.11 -1.05,28.69 -0.31,16.62 0.31,33.24 2.03,49.77 -0.96,0.76 -1.88,1.58 -2.92,2.24 -5.37,0.65 -10.48,-1.8 -15.79,-2.12 -5.6,-0.11 -11.26,-0.55 -16.66,-2.11 -3.7,-1.24 -7.61,0.05 -11.38,-0.6 -7.23,-1.81 -14.89,-0.41 -21.96,-3.14 -4.93,-2.12 -9.97,1.24 -14.99,0.2 -4.59,-0.86 -9.55,1.48 -13.65,-1.49 1.21,-5.36 1.84,-10.81 2.39,-16.27 1.54,-10.35 2.94,-20.73 3.96,-31.15 3.14,-21.4 5.83,-42.87 8.81,-64.29 1.3,-7.49 1.24,-15.12 1.18,-22.69 -3.77,3.74 -8.46,6.41 -12.15,10.24 -1.54,1.63 -3.18,3.17 -5,4.5 -1.42,-0.9 -3.38,-1.36 -3.92,-3.17 -0.31,-2.12 0.39,-4.26 -0.03,-6.38 6.07,-7.57 13.75,-13.6 21.3,-19.6 1.67,-1.59 3.94,-3.23 3.84,-5.79 0.36,-2.72 -2.25,-4.35 -3.9,-6.03 -4.45,-3.71 -7.99,-8.32 -12.12,-12.34 2.41,-4.21 6.7,-6.66 10.15,-9.89 4.95,-5.06 10.53,-9.44 15.5,-14.49 5.72,-4.58 10.57,-10.12 16.36,-14.62 m 17.63,112.61 c -1.97,2.01 -4.21,4.13 -4.89,6.97 -0.44,6.06 -0.91,12.13 -0.94,18.21 10.68,-0.01 21.3,-0.93 31.96,-1.16 -0.24,-5.89 -0.19,-11.84 -1.38,-17.64 -1.12,-3.63 -3.08,-7.6 -6.84,-9.06 -5.83,-2.49 -13.25,-1.88 -17.91,2.68 z"
         id="path172" />
      <path
         fill="#fafbf9"
         opacity="1"
         d="m 388.53,249.78 c 0.04,-0.13 0.13,-0.39 0.17,-0.52 -0.04,0.13 -0.13,0.39 -0.17,0.52 z"
         id="path174" />
      <path
         fill="#fafbf9"
         opacity="1"
         d="m 207.25,252.6 c 0.1,-0.08 0.3,-0.23 0.4,-0.31 -0.1,0.08 -0.3,0.23 -0.4,0.31 z"
         id="path176" />
      <path
         fill="#fafbf9"
         opacity="1"
         d="m 36.9,263.79 c -1.79,0.11 -1.76,-4.74 0.04,-4.57 0.03,1.52 0,3.04 -0.04,4.57 z"
         id="path178" />
      <path
         fill="#fafbf9"
         opacity="1"
         d="m 195.24,261.58 c 0.1,-0.08 0.31,-0.22 0.41,-0.29 -0.1,0.07 -0.31,0.21 -0.41,0.29 z"
         id="path180" />
      <path
         fill="#fafbf9"
         opacity="1"
         d="m 228.43,262.28 c 0.08,0.11 0.24,0.34 0.32,0.46 -0.08,-0.12 -0.24,-0.35 -0.32,-0.46 z"
         id="path182" />
      <path
         fill="#fafbf9"
         opacity="1"
         d="m 435.37,264.27 c 0.1,0.08 0.29,0.24 0.39,0.31 -0.1,-0.07 -0.29,-0.23 -0.39,-0.31 z"
         id="path184" />
      <path
         fill="#fafbf9"
         opacity="1"
         d="m 230.39,265.14 c 0.08,0.12 0.24,0.35 0.31,0.47 -0.07,-0.12 -0.23,-0.35 -0.31,-0.47 z"
         id="path186" />
      <path
         fill="#fafbf9"
         opacity="1"
         d="m 47.19,266.58 c 0.11,-0.07 0.33,-0.22 0.44,-0.3 -0.11,0.08 -0.33,0.23 -0.44,0.3 z"
         id="path188" />
      <path
         fill="#fafbf9"
         opacity="1"
         d="m 198.09,277.34 c 4.02,-4.51 9.84,-6.75 14.56,-10.4 3.45,4.52 8.08,7.82 12.45,11.37 -1.59,4.02 -4.68,7.13 -7.29,10.5 -1.57,1.99 -3.18,4.09 -5.58,5.12 -4.33,-3.72 -8.16,-7.94 -11.98,-12.15 -0.98,-1.31 -2.6,-2.6 -2.16,-4.44 z"
         id="path190" />
      <path
         fill="#fafbf9"
         opacity="1"
         d="m 402.97,275.72 c 3.3,-2.72 6.41,-5.66 9.2,-8.92 1.66,0.58 3.36,1.19 4.78,2.27 5.96,4.35 11.79,8.91 17.2,13.94 -3.11,2.57 -6.45,4.95 -8.84,8.26 -1.2,1.17 -2.16,3.5 -4.2,3 -4.46,-2.46 -7.63,-6.65 -11.71,-9.66 -3.5,-2.57 -6.18,-5.98 -9,-9.22 0.64,0.08 1.92,0.25 2.57,0.33 z"
         id="path192" />
      <path
         fill="#fafbf9"
         opacity="1"
         d="m 574.72,267.87 c 0.04,-0.14 0.12,-0.42 0.16,-0.56 z"
         id="path194" />
      <path
         fill="#fafbf9"
         opacity="1"
         d="m 441.36,269.28 c 0.1,0.08 0.3,0.24 0.4,0.32 -0.1,-0.08 -0.3,-0.24 -0.4,-0.32 z"
         id="path196" />
      <path
         fill="#fafbf9"
         opacity="1"
         d="m 238.25,270.71 c 0.13,-0.09 0.38,-0.27 0.5,-0.36 -0.12,0.09 -0.37,0.27 -0.5,0.36 z"
         id="path198" />
      <path
         fill="#fafbf9"
         opacity="1"
         d="m 182.25,271.58 c 0.1,-0.08 0.3,-0.23 0.4,-0.3 -0.1,0.07 -0.3,0.22 -0.4,0.3 z"
         id="path200" />
      <path
         fill="#fafbf9"
         opacity="1"
         d="m 178.24,274.59 c 0.1,-0.07 0.3,-0.22 0.4,-0.3 -0.1,0.08 -0.3,0.23 -0.4,0.3 z"
         id="path202" />
      <path
         fill="#fafbf9"
         opacity="1"
         d="m 447.34,274.28 c 0.1,0.08 0.31,0.24 0.41,0.31 -0.1,-0.07 -0.31,-0.23 -0.41,-0.31 z"
         id="path204" />
      <path
         fill="#fafbf9"
         opacity="1"
         d="m 451.36,277.29 c 0.11,0.08 0.31,0.23 0.41,0.3 -0.1,-0.07 -0.3,-0.22 -0.41,-0.3 z"
         id="path206" />
      <path
         fill="#fafbf9"
         opacity="1"
         d="m 379.26,278.43 c 0.1,0.07 0.3,0.22 0.4,0.3 -0.1,-0.08 -0.3,-0.23 -0.4,-0.3 z"
         id="path208" />
      <path
         fill="#fafbf9"
         opacity="1"
         d="m 169.24,281.58 c 0.1,-0.08 0.3,-0.23 0.39,-0.3 -0.09,0.07 -0.29,0.22 -0.39,0.3 z"
         id="path210" />
      <path
         fill="#fafbf9"
         opacity="1"
         d="m 164.25,285.59 c 0.1,-0.07 0.29,-0.23 0.39,-0.3 -0.1,0.07 -0.29,0.23 -0.39,0.3 z"
         id="path212" />
      <path
         fill="#fafbf9"
         opacity="1"
         d="m 174.25,296.29 c 4.74,-3.15 8.82,-7.18 13.66,-10.18 5.82,3.55 9.93,9.1 14.64,13.9 -4.02,5.18 -9.63,8.73 -14.2,13.35 -2.77,2.83 -5.64,5.55 -8.62,8.15 -3.56,-2.64 -5.6,-6.65 -7.99,-10.26 -1.82,-2.87 -4.67,-4.8 -7.07,-7.13 3.22,-2.58 6.12,-5.56 9.58,-7.83 z"
         id="path214" />
      <path
         fill="#fafbf9"
         opacity="1"
         d="m 50.55,287.21 c 0.04,0.13 0.11,0.39 0.15,0.52 -0.04,-0.13 -0.11,-0.39 -0.15,-0.52 z"
         id="path216" />
      <path
         fill="#fafbf9"
         opacity="1"
         d="m 159.24,289.6 c 0.1,-0.08 0.3,-0.23 0.4,-0.31 -0.1,0.08 -0.3,0.23 -0.4,0.31 z"
         id="path218" />
      <path
         fill="#fafbf9"
         opacity="1"
         d="m 380.29,290.65 c 0.08,-0.09 0.23,-0.29 0.31,-0.38 -0.08,0.09 -0.23,0.29 -0.31,0.38 z"
         id="path220" />
      <path
         fill="#fafbf9"
         opacity="1"
         d="m 469.37,290.26 c 0.1,0.07 0.31,0.21 0.41,0.28 -0.1,-0.07 -0.31,-0.21 -0.41,-0.28 z"
         id="path222" />
      <path
         fill="#fafbf9"
         opacity="1"
         d="m 439.69,294.69 c 1.42,-1.28 2.54,-3.09 4.38,-3.78 6.6,3.32 12.33,8.17 18.5,12.22 -2.94,5.03 -6.53,9.7 -10.76,13.71 -1.7,1.52 -4.53,2.94 -6.39,0.87 -4.67,-5.18 -10.49,-9.09 -15.3,-14.13 3.05,-3.11 6.64,-5.65 9.57,-8.89 z"
         id="path224" />
      <path
         fill="#fafbf9"
         opacity="1"
         d="m 362.39,292.74 c 0.08,-0.1 0.23,-0.3 0.31,-0.4 -0.08,0.1 -0.23,0.3 -0.31,0.4 z"
         id="path226" />
      <path
         fill="#fafbf9"
         opacity="1"
         d="m 234.49,294.52 c 1.49,-0.78 2.75,0.26 3.49,1.51 1.33,1.82 2.82,3.7 3.3,5.95 -1.49,3.64 -3.92,7.72 -8.2,8.3 -3.41,-1.78 -6.4,-4.8 -8.13,-8.23 2.37,-3.28 5.89,-5.83 9.54,-7.53 z"
         id="path228" />
      <path
         fill="#fafbf9"
         opacity="1"
         d="m 391.93,302.86 c 3.13,-2.31 3.91,-6.3 4.85,-9.82 4.67,3.15 8.48,7.38 12.79,10.99 -1.87,4.09 -4.61,7.69 -7.43,11.15 -0.78,0.98 -2.22,2.42 -3.27,0.91 -3.1,-3.06 -5.19,-7.08 -9.07,-9.33 0.12,-1.61 0.76,-3 2.13,-3.9 z"
         id="path230" />
      <path
         fill="#fafbf9"
         opacity="1"
         d="m 586.41,294.31 c -0.02,0.15 -0.07,0.45 -0.09,0.6 z"
         id="path232" />
      <path
         fill="#fafbf9"
         opacity="1"
         d="m 373.25,298.61 c 0.07,-0.1 0.23,-0.3 0.31,-0.4 -0.08,0.1 -0.24,0.3 -0.31,0.4 z"
         id="path234" />
      <path
         fill="#fafbf9"
         opacity="1"
         d="m 481.37,298.29 c 0.1,0.07 0.3,0.22 0.4,0.3 -0.1,-0.08 -0.3,-0.23 -0.4,-0.3 z"
         id="path236" />
      <path
         fill="#fafbf9"
         opacity="1"
         d="m 490.35,305.27 c 0.1,0.08 0.3,0.22 0.4,0.3 -0.1,-0.08 -0.3,-0.22 -0.4,-0.3 z"
         id="path238" />
      <path
         fill="#fafbf9"
         opacity="1"
         d="m 135.23,307.56 c 0.1,-0.07 0.3,-0.22 0.4,-0.29 -0.1,0.07 -0.3,0.22 -0.4,0.29 z"
         id="path240" />
      <path
         fill="#fafbf9"
         opacity="1"
         d="m 358.34,307.07 c 0.06,0.19 0.2,0.55 0.27,0.74 -0.07,-0.19 -0.21,-0.55 -0.27,-0.74 z"
         id="path242" />
      <path
         fill="#fafbf9"
         opacity="1"
         d="m 494.37,308.28 c 0.1,0.07 0.29,0.22 0.39,0.29 -0.1,-0.07 -0.29,-0.22 -0.39,-0.29 z"
         id="path244" />
      <path
         fill="#fafbf9"
         opacity="1"
         d="m 190.67,329.17 c 7.98,-6.75 16.14,-13.29 23.95,-20.23 3.06,3.54 6.2,7.01 9.58,10.24 -3.4,6.02 -8.6,10.76 -13.64,15.41 -2.69,2.47 -4.62,5.66 -7.37,8.08 -4.52,-4.19 -7.67,-9.65 -12.52,-13.5 z"
         id="path246" />
      <path
         fill="#fafbf9"
         opacity="1"
         d="m 371.4,309.24 c 0.09,0.09 0.28,0.28 0.37,0.37 -0.09,-0.09 -0.28,-0.28 -0.37,-0.37 z"
         id="path248" />
      <path
         fill="#fafbf9"
         opacity="1"
         d="m 473.27,311.1 c 5.92,4.76 12.59,8.37 19.17,12.08 -4.25,6.05 -9.61,11.23 -14.87,16.4 -1.36,1.21 -3.07,3.32 -5.07,2.06 -1.86,-1.51 -3.4,-3.35 -5.12,-5 -3.1,-3.12 -7.11,-5.15 -10.06,-8.44 5.71,-5.32 11.83,-10.36 15.95,-17.1 z"
         id="path250" />
      <path
         fill="#fafbf9"
         opacity="1"
         d="m 136.62,324.86 c 5.7,-4.09 11.43,-8.17 16.09,-13.48 5.08,6.91 12.74,11.19 18.3,17.63 -5.39,5.49 -11.45,10.26 -17.15,15.4 -2.66,-2.48 -4.68,-5.5 -7.04,-8.25 -3.32,-3.84 -7.78,-6.72 -10.2,-11.3 z"
         id="path252" />
      <path
         fill="#fafbf9"
         opacity="1"
         d="m 406.92,324.42 c 5.58,-1.78 9.33,-6.25 13.06,-10.47 2.15,1.12 4.13,2.53 5.86,4.24 3.77,3.63 8.44,6.23 11.89,10.19 0.94,2.54 -2.15,4.16 -3.56,5.8 -3.37,2.57 -5.28,6.97 -9.34,8.56 -3.08,-0.55 -4.19,-4.26 -6.56,-6.01 -4.42,-3.46 -8.65,-7.31 -11.35,-12.31 z"
         id="path254" />
      <path
         fill="#fafbf9"
         opacity="1"
         d="m 566.8,318.82 c -0.01,-0.16 -0.01,-0.47 -0.01,-0.63 z"
         id="path256" />
      <path
         fill="#fafbf9"
         opacity="1"
         d="m 110.24,326.59 c 0.1,-0.08 0.29,-0.23 0.39,-0.31 -0.1,0.08 -0.29,0.23 -0.39,0.31 z"
         id="path258" />
      <path
         fill="#fafbf9"
         opacity="1"
         d="m 380.35,330.27 c 0.1,0.08 0.3,0.24 0.4,0.32 -0.1,-0.08 -0.3,-0.24 -0.4,-0.32 z"
         id="path260" />
      <path
         fill="#fafbf9"
         opacity="1"
         d="m 102.56,350.94 c 7.42,-6.45 16.61,-10.76 23.52,-17.82 5.86,6.21 11.79,12.39 18.09,18.17 -6.04,7.54 -14.83,12.09 -21.89,18.56 -5.9,-6.98 -12.79,-12.99 -19.72,-18.91 z"
         id="path262" />
      <path
         fill="#fafbf9"
         opacity="1"
         d="m 487.38,347.37 c 4.97,-4.68 9.68,-9.64 14.45,-14.53 7.05,5.97 14.74,11.09 22.37,16.27 -5.48,6.87 -11.45,13.44 -18.45,18.8 -2.64,-1.49 -4.98,-3.43 -7.11,-5.57 -4.28,-4.21 -9.37,-7.47 -13.87,-11.42 0.2,-1.54 1.67,-2.45 2.61,-3.55 z"
         id="path264" />
      <path
         fill="#fafbf9"
         opacity="1"
         d="m 48.27,334.36 c 0.09,0.08 0.27,0.26 0.36,0.35 -0.09,-0.09 -0.27,-0.27 -0.36,-0.35 z"
         id="path266" />
      <path
         fill="#fafbf9"
         opacity="1"
         d="m 98.24,335.57 c 0.1,-0.08 0.31,-0.22 0.41,-0.3 -0.1,0.08 -0.31,0.22 -0.41,0.3 z"
         id="path268" />
      <path
         fill="#fafbf9"
         opacity="1"
         d="m 386.35,335.28 c 0.1,0.07 0.3,0.23 0.41,0.3 -0.11,-0.07 -0.31,-0.23 -0.41,-0.3 z"
         id="path270" />
      <path
         fill="#fafbf9"
         opacity="1"
         d="m 397.38,335.24 c 0.08,0.1 0.26,0.3 0.34,0.4 -0.08,-0.1 -0.26,-0.3 -0.34,-0.4 z"
         id="path272" />
      <path
         fill="#fafbf9"
         opacity="1"
         d="m 53.19,335.91 c 0.41,0 1.23,0 1.63,0 -0.55,1.56 -1.09,1.56 -1.63,0 z"
         id="path274" />
      <path
         fill="#fafbf9"
         opacity="1"
         d="m 94.24,338.59 c 0.1,-0.07 0.29,-0.22 0.39,-0.3 -0.1,0.08 -0.29,0.23 -0.39,0.3 z"
         id="path276" />
      <path
         fill="#fafbf9"
         opacity="1"
         d="m 162.19,353.24 c 6.26,-4.72 12.3,-9.77 18,-15.15 1.27,-0.38 1.84,1.35 2.75,1.94 3.62,4.01 8,7.31 11.11,11.76 -5.77,5.61 -11.8,10.98 -17.12,17.02 -5.1,-5 -9.59,-10.59 -14.74,-15.57 z"
         id="path278" />
      <path
         fill="#fafbf9"
         opacity="1"
         d="m 433.19,352.23 c 5.94,-4 10.01,-10.03 15.65,-14.34 4.73,5.27 10.8,9.06 16.46,13.23 -3.69,6.17 -9.08,11.08 -14.32,15.92 -2.07,2.19 -4.2,-1.07 -5.55,-2.48 -3.44,-4.72 -7.96,-8.43 -12.24,-12.33 z"
         id="path280" />
      <path
         fill="#fafbf9"
         opacity="1"
         d="m 533.36,338.28 c 0.1,0.07 0.31,0.21 0.41,0.28 -0.1,-0.07 -0.31,-0.21 -0.41,-0.28 z"
         id="path282" />
      <path
         fill="#fafbf9"
         opacity="1"
         d="m 86.2,344.56 c 0.1,-0.07 0.3,-0.22 0.41,-0.29 -0.11,0.07 -0.31,0.22 -0.41,0.29 z"
         id="path284" />
      <path
         fill="#fafbf9"
         opacity="1"
         d="m 543.39,346.33 c 0.11,0.08 0.32,0.26 0.43,0.35 -0.11,-0.09 -0.32,-0.27 -0.43,-0.35 z"
         id="path286" />
      <path
         fill="#fafbf9"
         opacity="1"
         d="m 545.42,348.03 c -0.04,0.15 -0.11,0.46 -0.14,0.61 z"
         id="path288" />
      <path
         fill="#fafbf9"
         opacity="1"
         d="m 205.35,360.75 c 0.1,-0.09 0.3,-0.25 0.4,-0.34 -0.1,0.09 -0.3,0.25 -0.4,0.34 z"
         id="path290" />
      <path
         fill="#fafbf9"
         opacity="1"
         d="m 130.92,379.18 c 6.59,-6.52 14.81,-11.2 20.9,-18.24 4.09,6.42 10.63,10.51 15.75,15.97 -6.69,6.89 -13.34,13.95 -20.6,20.2 -5.02,-6.26 -10.49,-12.15 -16.05,-17.93 z"
         id="path292" />
      <path
         fill="#fafbf9"
         opacity="1"
         d="m 475.37,361.17 c 7.12,5.23 14.5,10.16 21.15,16 -5.39,7.06 -11.5,13.52 -17.67,19.91 -6.79,-6.48 -12.61,-13.99 -19.96,-19.9 6.22,-4.49 11.84,-9.9 16.48,-16.01 z"
         id="path294" />
      <path
         fill="#fafbf9"
         opacity="1"
         d="m 202.42,363.77 c 0.08,-0.1 0.25,-0.3 0.34,-0.41 -0.09,0.11 -0.26,0.31 -0.34,0.41 z"
         id="path296" />
      <path
         fill="#fafbf9"
         opacity="1"
         d="m 197.37,368.73 c 0.1,-0.08 0.3,-0.23 0.4,-0.31 -0.1,0.08 -0.3,0.23 -0.4,0.31 z"
         id="path298" />
      <path
         fill="#fafbf9"
         opacity="1"
         d="m 109.27,378.37 c 0.08,0.1 0.24,0.3 0.32,0.4 -0.08,-0.1 -0.24,-0.3 -0.32,-0.4 z"
         id="path300" />
      <path
         fill="#fafbf9"
         opacity="1"
         d="m 397.93,379.04 0.88,0.23 0.37,1.01 -0.53,0.72 c -0.18,-0.49 -0.54,-1.47 -0.72,-1.96 z"
         id="path302" />
      <path
         fill="#fafbf9"
         opacity="1"
         d="m 514.42,381.75 c 0.07,-0.09 0.23,-0.29 0.3,-0.39 -0.07,0.1 -0.23,0.3 -0.3,0.39 z"
         id="path304" />
      <path
         fill="#fafbf9"
         opacity="1"
         d="m 401.51,403.19 c 0.02,0.14 0.06,0.42 0.08,0.56 -0.02,-0.14 -0.06,-0.42 -0.08,-0.56 z"
         id="path306" />
      <path
         fill="#fafbf9"
         opacity="1"
         d="m 135.29,407.36 c 0.07,0.1 0.21,0.3 0.28,0.41 -0.07,-0.11 -0.21,-0.31 -0.28,-0.41 z"
         id="path308" />
      <path
         fill="#fafbf9"
         opacity="1"
         d="m 228.41,409.76 c 0.02,-0.14 0.06,-0.43 0.08,-0.57 -0.02,0.14 -0.06,0.43 -0.08,0.57 z"
         id="path310" />
      <path
         fill="#fafbf9"
         opacity="1"
         d="m 154.37,410.73 c 0.1,-0.08 0.3,-0.24 0.4,-0.31 -0.1,0.07 -0.3,0.23 -0.4,0.31 z"
         id="path312" />
      <path
         fill="#fafbf9"
         opacity="1"
         d="m 473.26,412.37 c 0.08,0.1 0.24,0.3 0.32,0.4 -0.08,-0.1 -0.24,-0.3 -0.32,-0.4 z"
         id="path314" />
      <path
         fill="#fafbf9"
         opacity="1"
         d="m 402.92,418.12 c 1.58,0.54 1.8,1.49 0.65,2.85 -0.68,-0.86 -0.9,-1.81 -0.65,-2.85 z"
         id="path316" />
      <path
         fill="#fafbf9"
         opacity="1"
         d="m 86.18,424.51 c 0.1,-0.07 0.3,-0.2 0.41,-0.27 -0.11,0.07 -0.31,0.2 -0.41,0.27 z"
         id="path318" />
      <path
         fill="#fafbf9"
         opacity="1"
         d="m 405.29,431.11 c 0.02,0.14 0.07,0.44 0.1,0.59 z"
         id="path320" />
      <path
         fill="#fafbf9"
         opacity="1"
         d="m 89.24,437.39 c 0.08,0.1 0.22,0.3 0.3,0.4 -0.08,-0.1 -0.22,-0.3 -0.3,-0.4 z"
         id="path322" />
      <path
         fill="#fafbf9"
         opacity="1"
         d="m 509.27,437.6 c 0.08,-0.09 0.23,-0.29 0.3,-0.39 -0.07,0.1 -0.22,0.3 -0.3,0.39 z"
         id="path324" />
      <path
         fill="#fafbf9"
         opacity="1"
         d="m 224.43,442.94 c -1.16,-1.36 -0.94,-2.3 0.66,-2.81 0.24,1.03 0.02,1.97 -0.66,2.81 z"
         id="path326" />
      <path
         fill="#fafbf9"
         opacity="1"
         d="m 506.25,441.6 c 0.08,-0.09 0.22,-0.29 0.29,-0.39 -0.07,0.1 -0.21,0.3 -0.29,0.39 z"
         id="path328" />
      <path
         fill="#fafbf9"
         opacity="1"
         d="m 125.48,451.17 c 0.07,0.1 0.22,0.29 0.3,0.39 -0.08,-0.1 -0.23,-0.29 -0.3,-0.39 z"
         id="path330" />
      <path
         fill="#fafbf9"
         opacity="1"
         d="m 508.26,451.94 c 0.61,-0.01 1.83,-0.05 2.44,-0.06 0.7,1.72 -3.05,1.8 -2.44,0.06 z"
         id="path332" />
      <path
         fill="#fafbf9"
         opacity="1"
         d="m 110.22,458.45 c 0.1,0.07 0.3,0.21 0.4,0.27 -0.1,-0.06 -0.3,-0.2 -0.4,-0.27 z"
         id="path334" />
      <path
         fill="#fafbf9"
         opacity="1"
         d="m 184.19,477.44 c 0.12,-0.04 0.38,-0.12 0.5,-0.17 -0.12,0.05 -0.38,0.13 -0.5,0.17 z"
         id="path336" />
      <path
         fill="#fafbf9"
         opacity="1"
         d="m 228.15,486.1 0.64,-0.02 v 0.58 c -0.16,-0.14 -0.48,-0.42 -0.64,-0.56 z"
         id="path338" />
      <path
         fill="#fafbf9"
         opacity="1"
         d="m 147.2,490.5 c 0.13,-0.05 0.37,-0.15 0.5,-0.2 -0.13,0.05 -0.37,0.15 -0.5,0.2 z"
         id="path340" />
      <path
         fill="#fafbf9"
         opacity="1"
         d="m 329.2,493.5 c 0.14,0.03 0.43,0.09 0.57,0.12 -0.14,-0.03 -0.43,-0.09 -0.57,-0.12 z"
         id="path342" />
      <path
         fill="#fafbf9"
         opacity="1"
         d="m 180.03,495.77 c 0.16,-0.05 0.49,-0.15 0.65,-0.2 -0.16,0.05 -0.49,0.15 -0.65,0.2 z"
         id="path344" />
      <path
         fill="#fafbf9"
         opacity="1"
         d="m 177.33,496.59 c 0.17,-0.05 0.5,-0.15 0.67,-0.2 -0.17,0.05 -0.5,0.15 -0.67,0.2 z"
         id="path346" />
      <path
         fill="#fafbf9"
         opacity="1"
         d="m 152.26,505.66 c 0.12,-0.05 0.37,-0.15 0.5,-0.2 -0.13,0.05 -0.38,0.15 -0.5,0.2 z"
         id="path348" />
      <path
         fill="#fafbf9"
         opacity="1"
         d="m 520.26,506.67 c 0.13,-0.05 0.38,-0.15 0.5,-0.2 -0.12,0.05 -0.37,0.15 -0.5,0.2 z"
         id="path350" />
      <path
         fill="#fafbf9"
         opacity="1"
         d="m 144.89,508.91 c 0.16,-0.07 0.47,-0.2 0.63,-0.27 -0.16,0.07 -0.47,0.2 -0.63,0.27 z"
         id="path352" />
      <path
         fill="#fafbf9"
         opacity="1"
         d="m 143.5,509.52 c 0.15,-0.07 0.47,-0.2 0.62,-0.27 -0.15,0.07 -0.47,0.2 -0.62,0.27 z"
         id="path354" />
      <path
         fill="#fafbf9"
         opacity="1"
         d="m 511.27,509.67 c 0.13,-0.04 0.39,-0.12 0.52,-0.15 -0.13,0.03 -0.39,0.11 -0.52,0.15 z"
         id="path356" />
      <path
         fill="#fafbf9"
         opacity="1"
         d="m 108.22,511.53 c 0.1,-0.07 0.31,-0.2 0.41,-0.27 -0.1,0.07 -0.31,0.2 -0.41,0.27 z"
         id="path358" />
      <path
         fill="#fafbf9"
         opacity="1"
         d="m 416.03,511.96 c 0.49,0.19 1.46,0.56 1.95,0.75 l -0.74,0.51 -1,-0.38 z"
         id="path360" />
      <path
         fill="#fafbf9"
         opacity="1"
         d="m 455.18,516.1 h 0.64 c -0.15,0.14 -0.46,0.44 -0.62,0.58 z"
         id="path362" />
      <path
         fill="#fafbf9"
         opacity="1"
         d="m 127.34,517.71 c 0.1,-0.07 0.31,-0.19 0.42,-0.25 -0.11,0.06 -0.32,0.18 -0.42,0.25 z"
         id="path364" />
      <path
         fill="#fafbf9"
         opacity="1"
         d="m 164.23,517.55 c 0.13,-0.04 0.38,-0.14 0.5,-0.19 -0.12,0.05 -0.37,0.15 -0.5,0.19 z"
         id="path366" />
      <path
         fill="#fafbf9"
         opacity="1"
         d="m 380.23,519.35 c 0.15,0.03 0.43,0.09 0.57,0.12 -0.14,-0.03 -0.42,-0.09 -0.57,-0.12 z"
         id="path368" />
      <path
         fill="#fafbf9"
         opacity="1"
         d="m 121.37,520.78 c 0.11,-0.05 0.34,-0.17 0.46,-0.23 -0.12,0.06 -0.35,0.18 -0.46,0.23 z"
         id="path370" />
      <path
         fill="#fafbf9"
         opacity="1"
         d="m 178.25,528.65 c 0.14,-0.04 0.4,-0.11 0.54,-0.15 -0.14,0.04 -0.4,0.11 -0.54,0.15 z"
         id="path372" />
      <path
         fill="#fafbf9"
         opacity="1"
         d="m 293.17,533.01 c 0.62,-1.54 1.16,-1.51 1.61,0.09 -0.4,-0.02 -1.21,-0.07 -1.61,-0.09 z"
         id="path374" />
      <path
         fill="#fafbf9"
         opacity="1"
         d="m 161.31,534.69 c 0.12,-0.05 0.36,-0.14 0.48,-0.18 -0.12,0.04 -0.36,0.13 -0.48,0.18 z"
         id="path376" />
      <path
         fill="#fafbf9"
         opacity="1"
         d="m 155.03,536.76 c 0.16,-0.05 0.48,-0.15 0.64,-0.2 -0.16,0.05 -0.48,0.15 -0.64,0.2 z"
         id="path378" />
      <path
         fill="#fafbf9"
         opacity="1"
         d="m 96.36,537.71 c 0.1,-0.08 0.3,-0.23 0.41,-0.3 -0.11,0.07 -0.31,0.22 -0.41,0.3 z"
         id="path380" />
      <path
         fill="#fafbf9"
         opacity="1"
         d="m 122.16,537.61 c 0.12,-0.08 0.36,-0.23 0.48,-0.3 -0.12,0.07 -0.36,0.22 -0.48,0.3 z"
         id="path382" />
      <path
         fill="#fafbf9"
         opacity="1"
         d="m 152.36,537.62 c 0.17,-0.05 0.5,-0.17 0.66,-0.23 -0.16,0.06 -0.49,0.18 -0.66,0.23 z"
         id="path384" />
      <path
         fill="#fafbf9"
         opacity="1"
         d="m 187.19,537.45 c 0.13,-0.03 0.41,-0.1 0.54,-0.14 -0.13,0.04 -0.41,0.11 -0.54,0.14 z"
         id="path386" />
      <path
         fill="#fafbf9"
         opacity="1"
         d="m 328,537.3 0.73,-0.52 1.01,0.36 0.22,0.88 c -0.49,-0.18 -1.47,-0.54 -1.96,-0.72 z"
         id="path388" />
      <path
         fill="#fafbf9"
         opacity="1"
         d="m 119.27,539.55 c 0.12,-0.08 0.34,-0.24 0.46,-0.32 -0.12,0.08 -0.34,0.24 -0.46,0.32 z"
         id="path390" />
      <path
         fill="#fafbf9"
         opacity="1"
         d="m 176.22,540.52 c 0.13,-0.04 0.4,-0.11 0.53,-0.15 -0.13,0.04 -0.4,0.11 -0.53,0.15 z"
         id="path392" />
      <path
         fill="#fafbf9"
         opacity="1"
         d="m 115.24,542.57 c 0.1,-0.07 0.29,-0.22 0.39,-0.29 -0.1,0.07 -0.29,0.22 -0.39,0.29 z"
         id="path394" />
      <path
         fill="#fafbf9"
         opacity="1"
         d="m 87.35,544.71 c 0.1,-0.08 0.3,-0.24 0.4,-0.32 -0.1,0.08 -0.3,0.24 -0.4,0.32 z"
         id="path396" />
      <path
         fill="#fafbf9"
         opacity="1"
         d="m 361.24,544.4 c 0.13,0.03 0.4,0.1 0.54,0.14 -0.14,-0.04 -0.41,-0.11 -0.54,-0.14 z"
         id="path398" />
      <path
         fill="#fafbf9"
         opacity="1"
         d="m 111.23,545.57 c 0.1,-0.07 0.3,-0.22 0.4,-0.29 -0.1,0.07 -0.3,0.22 -0.4,0.29 z"
         id="path400" />
      <path
         fill="#fafbf9"
         opacity="1"
         d="m 136.33,545.69 c 0.11,-0.06 0.33,-0.19 0.43,-0.25 -0.1,0.06 -0.32,0.19 -0.43,0.25 z"
         id="path402" />
      <path
         fill="#fafbf9"
         opacity="1"
         d="m 374.23,547.38 c 0.14,0.03 0.43,0.08 0.58,0.1 -0.15,-0.02 -0.44,-0.07 -0.58,-0.1 z"
         id="path404" />
      <path
         fill="#fafbf9"
         opacity="1"
         d="m 196.24,550.65 c 0.14,-0.03 0.42,-0.08 0.57,-0.11 -0.15,0.03 -0.43,0.08 -0.57,0.11 z"
         id="path406" />
      <path
         fill="#fafbf9"
         opacity="1"
         d="m 166.25,557.65 c 0.14,-0.04 0.41,-0.12 0.54,-0.16 -0.13,0.04 -0.4,0.12 -0.54,0.16 z"
         id="path408" />
      <path
         fill="#fafbf9"
         opacity="1"
         d="m 502.29,563.69 c 0.13,-0.05 0.37,-0.15 0.5,-0.2 -0.13,0.05 -0.37,0.15 -0.5,0.2 z"
         id="path410" />
      <path
         fill="#fafbf9"
         opacity="1"
         d="m 109.37,564.72 c 0.1,-0.08 0.3,-0.23 0.4,-0.3 -0.1,0.07 -0.3,0.22 -0.4,0.3 z"
         id="path412" />
      <path
         fill="#fafbf9"
         opacity="1"
         d="m 493.25,566.63 c 0.13,-0.04 0.4,-0.1 0.53,-0.14 -0.13,0.04 -0.4,0.1 -0.53,0.14 z"
         id="path414" />
      <path
         fill="#fafbf9"
         opacity="1"
         d="m 105.36,567.73 c 0.1,-0.07 0.3,-0.23 0.4,-0.3 -0.1,0.07 -0.3,0.23 -0.4,0.3 z"
         id="path416" />
      <path
         fill="#fafbf9"
         opacity="1"
         d="m 484.25,568.63 c 0.14,-0.03 0.42,-0.1 0.56,-0.13 -0.14,0.03 -0.42,0.1 -0.56,0.13 z"
         id="path418" />
      <path
         fill="#fafbf9"
         opacity="1"
         d="m 99.37,572.72 c 0.1,-0.08 0.29,-0.24 0.39,-0.31 -0.1,0.07 -0.29,0.23 -0.39,0.31 z"
         id="path420" />
      <path
         fill="#fafbf9"
         opacity="1"
         d="m 436.29,571.92 c 1.13,-0.11 2.27,-0.11 3.42,0 0.44,1.8 -3.88,1.8 -3.42,0 z"
         id="path422" />
      <path
         fill="#fafbf9"
         opacity="1"
         d="m 93.39,577.74 c 0.09,-0.08 0.29,-0.23 0.39,-0.3 -0.1,0.07 -0.3,0.22 -0.39,0.3 z"
         id="path424" />
    </g>
    <g
       id="#0f222fff"
       transform="matrix(1.3333333,0,0,1.3333333,-69.72415,38.882578)">
      <path
         fill="#0f222f"
         opacity="1"
         d="m 157.21,23.21 c 1.57,-1.24 3.03,-4.17 5.4,-3.02 4.9,2.84 9.36,6.54 12.67,11.17 0.08,0.11 0.25,0.31 0.33,0.41 2.26,2.81 4.81,5.41 7.76,7.5 0.1,0.08 0.3,0.23 0.4,0.31 2.14,1.6 4.05,3.51 5.65,5.64 0.08,0.11 0.24,0.31 0.31,0.41 3.51,4.98 8.75,8.4 12.29,13.35 3.18,4.45 7.86,7.57 10.89,12.15 8.13,9.05 17.47,16.97 25.51,26.11 0.08,0.1 0.23,0.3 0.31,0.4 2.97,4.18 7.1,7.31 10.51,11.1 6.11,8.04 13.96,14.52 20.84,21.88 -1.06,0.76 -2.19,1.44 -3.14,2.34 -4.32,5.18 -9.1,10 -14.18,14.45 -0.1,0.07 -0.29,0.23 -0.39,0.31 -0.93,0.73 -1.85,1.47 -2.76,2.22 3.87,4.88 9.31,8.06 13.57,12.54 4.34,4.12 8.45,8.51 13.16,12.23 6.59,5.77 14.08,10.96 18.25,18.92 -3.04,2.2 -4,6.87 -7.59,8.09 -4.88,-2.52 -7.5,-7.62 -11.65,-11.03 -5.95,-5.08 -11.83,-10.27 -18.24,-14.76 -3.41,-2.21 -5.83,-5.56 -9.12,-7.91 -2.18,-1.61 -4.07,-3.54 -6.05,-5.37 -1.82,1.64 -3.38,3.52 -4.81,5.51 -3.44,4.19 -7.8,7.51 -11.25,11.69 -2.24,2.85 -4.42,5.76 -6.76,8.53 -1.48,-1.25 -2.96,-2.5 -4.49,-3.67 -0.09,-0.08 -0.28,-0.23 -0.38,-0.31 -1.54,-1.23 -3,-2.54 -4.61,-3.66 -0.11,-0.07 -0.32,-0.22 -0.43,-0.29 -4.1,-2.59 -7.64,-5.92 -11.58,-8.74 -0.1,-0.08 -0.29,-0.23 -0.39,-0.31 -3.85,-3.25 -7.75,-6.43 -11.6,-9.68 -0.1,-0.08 -0.29,-0.24 -0.39,-0.32 -1.89,-1.54 -3.67,-3.21 -5.61,-4.69 -0.1,-0.08 -0.29,-0.23 -0.39,-0.31 -6.4,-5.39 -12.95,-10.62 -19.61,-15.69 -0.1,-0.08 -0.3,-0.23 -0.4,-0.3 -2.8,-2.31 -5.72,-4.49 -8.61,-6.69 -0.09,-0.07 -0.29,-0.22 -0.39,-0.3 -1.55,-1.22 -3.04,-2.51 -4.61,-3.71 -0.09,-0.07 -0.29,-0.23 -0.39,-0.3 -6.7,-5.5 -13.77,-10.58 -20.11,-16.5 -3.11,-2.48 -6.15,-5.03 -9.48,-7.2 -0.1,-0.07 -0.31,-0.22 -0.41,-0.29 -2.57,-1.86 -5.1,-3.77 -7.61,-5.71 -0.1,-0.07 -0.29,-0.22 -0.39,-0.3 -4.7,-4.35 -10.87,-7.26 -14.35,-12.79 2.43,-2.75 5.56,-4.69 8.38,-6.99 0.1,-0.08 0.3,-0.23 0.4,-0.31 5.43,-4.42 10,-9.77 15.06,-14.59 4.16,-4.39 8.83,-8.31 12.55,-13.1 0.08,-0.1 0.24,-0.29 0.31,-0.38 4.54,-4.92 10.84,-8.03 14.71,-13.6 0.08,-0.1 0.23,-0.3 0.31,-0.4 4.17,-4.71 7.93,-9.78 12.6,-14.04 M 145.73,56.1 c 1.62,2.07 3.37,4.05 5.32,5.83 4.98,4.48 9.47,9.52 14.86,13.56 3.46,-3.8 7.94,-6.42 11.6,-10 2.05,-2 4.25,-3.83 6.36,-5.77 -6.69,-6.63 -13.42,-13.23 -21,-18.85 -6.33,4.38 -11.09,10.53 -17.14,15.23 m -9.34,11.09 c -6.85,7.24 -14.21,13.98 -21.66,20.61 8.14,4.71 15.88,10.36 22.43,17.15 6.06,-7.55 13.47,-13.84 19.99,-20.96 -6.55,-6.03 -14.03,-10.97 -20.76,-16.8 m 38.95,17.83 c 3.6,4.92 8.82,8.28 12.84,12.82 1.2,0.9 2.05,2.73 3.63,2.87 5.36,-5.13 10.67,-10.35 16.07,-15.47 -6.29,-4.6 -11.71,-10.2 -16.75,-16.1 -4.57,5.95 -10.53,10.58 -15.79,15.88 m -26.13,26.21 c -0.96,0.85 -1.09,2.11 -1.28,3.3 6.99,2.08 11.2,8.4 17.09,12.24 7.07,-4.23 12.03,-10.86 17.45,-16.87 -0.44,-2.44 -3.18,-3.8 -4.95,-5.37 -4.49,-2.83 -8.1,-6.73 -11.57,-10.69 -5.31,6.05 -11.54,11.22 -16.74,17.39 m 65.25,-16.29 c -3.96,5.08 -8.76,9.39 -14,13.11 2.27,3.23 5.7,5.29 8.45,8.06 2.44,2.26 4.58,4.87 7.19,6.96 5.22,-3.6 9.2,-8.82 13.81,-13.18 -5.06,-5.06 -10.01,-10.32 -15.45,-14.95 m -31.86,32.68 c -2.62,2.31 -5.69,4.01 -8.37,6.24 6.12,3.74 11.5,8.47 16.82,13.24 6.29,-4.06 11.58,-9.37 17.45,-13.97 -5.79,-4.8 -11.86,-9.3 -16.77,-15.06 -3.07,3.16 -5.82,6.63 -9.13,9.55 m 41.4,2.4 c 4.33,4.2 9.42,7.53 13.7,11.81 3.32,-3.82 7.52,-6.69 12.08,-8.84 -0.59,-1.57 -1.29,-3.12 -2.62,-4.19 -3.53,-3.21 -7.11,-6.37 -10.47,-9.77 -4.23,3.67 -7.54,8.46 -12.69,10.99 m -23.49,25.97 c 2.57,3.34 6.45,5.16 9.64,7.8 2.42,1.99 4.82,4 7.19,6.05 4.21,-4.99 8.26,-10.1 12.92,-14.68 -5.25,-4.26 -9.67,-9.48 -15.08,-13.52 -5.27,4.39 -9.73,9.62 -14.67,14.35 z"
         id="path427" />
      <path
         fill="#0f222f"
         opacity="1"
         d="m 446.22,34.23 c 5.06,-5.4 10.87,-10.03 16.76,-14.48 6.46,3.74 10.96,9.95 15.8,15.47 2.97,2.73 5.07,6.23 7.98,9.01 8.51,8.5 17.01,17 25.49,25.52 2.61,2.61 5.1,5.36 8.11,7.53 0.1,0.08 0.31,0.23 0.41,0.31 2.8,2.28 5.45,4.79 7.69,7.64 0.07,0.1 0.21,0.29 0.28,0.39 0.32,0.49 0.96,1.48 1.28,1.98 -3.08,2.94 -5.93,6.13 -9.25,8.82 -0.1,0.08 -0.29,0.23 -0.39,0.31 -1.96,1.47 -3.73,3.15 -5.62,4.68 -0.1,0.08 -0.29,0.24 -0.39,0.32 -15.49,12.3 -30.57,25.1 -46.61,36.69 -0.11,0.08 -0.31,0.23 -0.41,0.3 -8.77,6.6 -17.08,13.77 -25.59,20.69 -0.1,0.07 -0.29,0.23 -0.39,0.3 -1.95,1.48 -3.72,3.16 -5.61,4.7 -0.1,0.08 -0.3,0.24 -0.39,0.31 -1.95,1.48 -3.73,3.14 -5.62,4.68 -0.1,0.08 -0.29,0.24 -0.39,0.32 -3.85,3.25 -7.75,6.44 -11.6,9.69 -0.1,0.07 -0.3,0.23 -0.39,0.31 -1.57,1.19 -3.07,2.47 -4.6,3.7 -0.1,0.08 -0.29,0.24 -0.39,0.31 -1.83,1.22 -3.3,3.2 -5.58,3.57 l -0.61,0.03 c -2.89,-2.97 -4.8,-6.8 -7.94,-9.58 -4.62,-4.9 -10.11,-9.1 -13.68,-14.89 -0.53,0.13 -1.58,0.37 -2.11,0.5 -4.04,3.06 -7.61,6.7 -11.78,9.59 -3.51,2.32 -6.28,5.53 -9.34,8.38 -7.2,6.46 -14.38,12.94 -21.5,19.48 -1.71,1.81 -4.46,0.58 -6.62,0.9 1.53,4.07 3.41,8.05 4.16,12.36 0.66,4.73 -0.8,9.39 -1.78,13.97 4.78,1.55 9.15,4.13 12.97,7.39 8.7,6.92 16.66,14.72 25.48,21.5 2.62,1.76 5.4,4.21 8.81,3.44 -0.51,0.23 -1.53,0.71 -2.04,0.94 2.86,2.5 5.78,5.08 9.23,6.75 2.04,-0.84 2.22,-3.75 3.84,-5.19 2.19,-1.77 4.55,-3.41 6.22,-5.72 2.73,-3.91 6.26,-7.16 9.7,-10.43 1.14,-1.43 2.98,-0.59 4.18,0.27 7.58,5.19 14.07,11.74 21.38,17.28 0.1,0.08 0.29,0.24 0.39,0.31 1.89,1.54 3.66,3.22 5.6,4.7 0.1,0.08 0.3,0.24 0.4,0.32 1.88,1.53 3.63,3.23 5.58,4.68 0.1,0.08 0.31,0.24 0.41,0.31 1.19,0.9 2.39,1.81 3.61,2.7 0.11,0.08 0.31,0.23 0.41,0.3 5.84,4.26 11.5,8.77 17.6,12.67 0.1,0.07 0.31,0.21 0.41,0.28 3.88,2.55 7.81,5.04 11.59,7.75 0.1,0.07 0.3,0.22 0.4,0.3 2.8,2.29 5.67,4.51 8.58,6.68 0.1,0.08 0.3,0.22 0.4,0.3 1.2,0.9 2.4,1.81 3.62,2.71 0.1,0.07 0.29,0.22 0.39,0.29 13.2,9.49 24.86,20.96 38.6,29.71 0.1,0.07 0.31,0.21 0.41,0.28 3.41,2.33 6.45,5.13 9.62,7.77 0.11,0.08 0.32,0.26 0.43,0.35 0.4,0.34 1.2,1.01 1.6,1.35 l -0.14,0.61 c -0.11,1.48 -0.93,2.68 -2,3.66 -7.07,6.93 -14.02,13.98 -21.03,20.95 -2.62,2.6 -5.37,5.1 -7.53,8.11 -0.07,0.1 -0.23,0.3 -0.3,0.39 -5,6.21 -11.65,10.89 -16.27,17.42 -3.1,3.57 -6.79,6.6 -9.44,10.56 -2.9,2.47 -5.77,5.08 -8.81,7.36 -2.52,-0.44 -4.68,-2.43 -6.32,-4.32 -0.08,-0.1 -0.24,-0.3 -0.32,-0.4 -12.67,-14.47 -27.74,-26.78 -39.99,-41.64 -7.55,-5.7 -13.74,-12.92 -20.56,-19.44 -4.99,-5.22 -10.49,-9.98 -14.99,-15.65 -0.08,-0.1 -0.26,-0.3 -0.34,-0.4 -2.49,-3.05 -5.61,-5.54 -7.85,-8.8 -4.98,-6.57 -11.94,-11.11 -17.76,-16.83 -0.09,-0.09 -0.28,-0.28 -0.37,-0.37 -0.95,-1.26 -2.62,-2.37 -2.48,-4.12 0.89,-2.49 2.8,-4.41 4.33,-6.51 0.07,-0.1 0.23,-0.3 0.31,-0.4 2.12,-2.62 4.68,-4.87 6.73,-7.56 0.08,-0.09 0.23,-0.29 0.31,-0.38 1.46,-1.84 3.24,-3.41 4.52,-5.38 -0.32,-2.92 -3.47,-4.39 -5.46,-6.16 -0.1,-0.08 -0.3,-0.23 -0.4,-0.3 -1.25,-0.93 -2.45,-1.9 -3.61,-2.91 -5.36,-5.41 -11.54,-9.9 -17.29,-14.87 -6.03,-4.97 -11.9,-10.13 -18.12,-14.88 -3.88,-2.97 -7.02,-6.78 -9.67,-10.86 -4.95,1.73 -9.09,5.85 -14.6,5.75 -6.66,0.68 -12.16,-3.67 -17.81,-6.42 -3.04,4.81 -7.09,8.86 -11.38,12.55 -5.79,4.5 -10.64,10.04 -16.36,14.62 -4.97,5.05 -10.55,9.43 -15.5,14.49 -3.45,3.23 -7.74,5.68 -10.15,9.89 4.13,4.02 7.67,8.63 12.12,12.34 1.65,1.68 4.26,3.31 3.9,6.03 0.1,2.56 -2.17,4.2 -3.84,5.79 -7.55,6 -15.23,12.03 -21.3,19.6 -3.52,3.87 -6.44,8.25 -10.37,11.73 -6.61,6.27 -12.65,13.15 -19.53,19.13 -0.1,0.09 -0.3,0.25 -0.4,0.34 -0.97,0.76 -1.83,1.64 -2.59,2.61 -0.09,0.11 -0.26,0.31 -0.34,0.41 -1.36,1.73 -2.89,3.33 -4.65,4.65 -0.1,0.08 -0.3,0.23 -0.4,0.31 -4.86,3.63 -8.72,8.37 -13.12,12.52 -9.88,9.66 -19.3,19.83 -29.48,29.17 -0.1,0.07 -0.3,0.23 -0.4,0.31 -3.15,2.51 -6.05,5.33 -9.45,7.52 -3.62,-3.02 -6.73,-6.57 -9.35,-10.48 -0.07,-0.11 -0.21,-0.31 -0.28,-0.41 -4.4,-7.63 -12.17,-12.38 -17.2,-19.49 -2.58,-3.27 -5.98,-5.79 -8.5,-9.1 -0.08,-0.1 -0.24,-0.3 -0.32,-0.4 -8.39,-9.82 -18.34,-18.24 -27.07,-27.76 -1.23,-2.81 2.34,-4.44 4,-6.05 0.1,-0.07 0.3,-0.22 0.41,-0.29 2.65,-1.74 5.21,-3.62 7.63,-5.68 0.1,-0.07 0.29,-0.22 0.39,-0.3 1.2,-0.91 2.39,-1.84 3.61,-2.72 0.1,-0.08 0.31,-0.22 0.41,-0.3 3.99,-2.72 7.87,-5.59 11.59,-8.68 0.1,-0.08 0.29,-0.23 0.39,-0.31 8.23,-6.2 16.47,-12.39 24.6,-18.72 0.1,-0.07 0.3,-0.22 0.4,-0.29 7.91,-5.84 15.97,-11.48 23.61,-17.67 0.1,-0.08 0.3,-0.23 0.4,-0.31 1.56,-1.2 3.06,-2.48 4.61,-3.7 0.1,-0.07 0.29,-0.23 0.39,-0.3 1.56,-1.21 3.05,-2.5 4.6,-3.71 0.1,-0.08 0.3,-0.23 0.39,-0.3 2.9,-2.2 5.8,-4.38 8.61,-6.69 0.1,-0.07 0.3,-0.22 0.4,-0.3 1.2,-0.9 2.4,-1.81 3.61,-2.71 0.1,-0.08 0.3,-0.23 0.4,-0.3 4.08,-3.38 8.28,-6.62 12.59,-9.7 0.1,-0.08 0.31,-0.22 0.41,-0.29 3.98,-2.75 7.87,-5.61 11.6,-8.69 0.1,-0.08 0.3,-0.23 0.4,-0.31 2.51,-1.5 4.51,-5.53 7.93,-4.07 4.78,4.2 9.44,8.61 12.85,14.06 0.08,0.11 0.24,0.34 0.32,0.46 0.41,0.6 1.23,1.8 1.64,2.4 0.08,0.12 0.24,0.35 0.31,0.47 1.34,1.92 2.52,3.97 4.08,5.72 0.91,1.49 2.45,-0.18 3.47,-0.62 0.13,-0.09 0.38,-0.27 0.5,-0.36 3.21,-2.63 5.86,-5.96 9.62,-7.88 4.9,-3.02 8.71,-7.4 13.11,-11.06 6.64,-6.35 13.72,-12.21 20.59,-18.31 3.45,-3.19 7.51,-5.56 11.5,-7.98 -1.43,-7.09 -2.62,-15.27 1.99,-21.51 4.35,-5.68 10.89,-10.76 18.44,-10.32 5.02,-0.34 9.69,1.88 13.86,4.44 9.22,-14.46 23.5,-24.52 35.55,-36.39 1.75,-2.14 3.71,-4.11 5.87,-5.85 0.12,-0.11 0.36,-0.32 0.48,-0.43 0.32,-0.33 0.98,-0.98 1.3,-1.3 0.11,-0.12 0.33,-0.35 0.43,-0.47 1.78,-2.1 3.7,-4.07 5.63,-6.02 -3.76,0.03 -6.62,-2.49 -9.51,-4.53 -0.1,-0.08 -0.29,-0.23 -0.39,-0.3 -3.76,-3.9 -8.41,-6.83 -12.06,-10.81 -0.97,-3.28 3.2,-5.04 5.09,-7.03 0.1,-0.08 0.3,-0.23 0.4,-0.31 1.27,-0.93 2.43,-2.01 3.33,-3.31 3.57,-4.93 8.77,-8.39 12.3,-13.35 0.08,-0.1 0.23,-0.29 0.31,-0.39 5.8,-7.06 13.34,-12.53 18.7,-19.97 2.87,-3.33 6.47,-5.99 8.99,-9.63 0.08,-0.1 0.23,-0.3 0.31,-0.4 3.35,-4.19 7.71,-7.47 10.71,-11.96 10.18,-10.47 20.64,-20.68 30.92,-31.05 m 5.28,17.27 c -3.58,3.55 -7.68,6.57 -10.84,10.53 4.43,5.37 9.93,9.73 14.45,15.02 6.85,-5.79 12.74,-12.7 20.17,-17.79 1.44,-1.08 3.43,-3.4 1.54,-5.02 -4.64,-4.42 -10.9,-7.17 -14.19,-12.97 -3.84,3.28 -7.5,6.74 -11.13,10.23 m 19.69,29.67 c -2,1.57 -3.88,3.32 -5.37,5.39 6.66,6.25 13.51,12.3 20.15,18.57 7.16,-5.78 14.45,-11.41 21.68,-17.11 -7.09,-7.15 -15.25,-13.25 -21.79,-20.91 -4.31,5.26 -9.36,9.84 -14.67,14.06 m -42.47,-7.52 c -4.66,4.76 -9.74,9.15 -13.77,14.49 3.54,3.08 7.14,6.14 10.03,9.87 0.98,1.03 1.7,2.43 3.04,3.04 3.76,-1.64 6.49,-4.85 9.62,-7.41 3.23,-2.66 6.29,-5.55 8.93,-8.82 -4.8,-4.34 -10.15,-8.03 -15.1,-12.2 -1.01,-1.05 -2.02,0.45 -2.75,1.03 m 17.26,31.31 c -2.72,2.15 -5.33,4.44 -7.59,7.07 5.01,6.55 12.35,10.65 18.2,16.36 0.29,0.11 0.86,0.31 1.15,0.41 6.05,-5.56 12.01,-11.29 18.99,-15.72 -6.75,-6.03 -13.08,-12.61 -20.6,-17.72 -3.56,3.02 -6.48,6.71 -10.15,9.6 m -52.21,6.83 c 3.76,4.25 6.97,9 11.23,12.8 3.53,-2.63 6.53,-5.86 9.76,-8.84 2.32,-2.23 4.94,-4.29 6.39,-7.25 -5.31,-2.07 -9.13,-6.23 -13.06,-10.14 -5.47,3.63 -10.15,8.4 -14.32,13.43 m -19.18,18.42 c 5,2.28 6.96,7.54 9.58,11.95 4.64,-2.48 8.64,-6.05 12.58,-9.5 0.05,-0.37 0.14,-1.11 0.19,-1.48 -3.46,-4.23 -8.16,-7.19 -12.13,-10.91 -3.78,2.92 -6.12,7.34 -10.22,9.94 m 39.02,4.75 c 3.81,3.67 7.9,7.04 11.63,10.81 1.99,1.75 5.1,4.67 7.63,2.1 4.5,-4.38 9.5,-8.21 14.01,-12.57 -5.3,-4.76 -11.37,-8.72 -15.87,-14.32 -5.86,4.57 -11.38,9.59 -17.4,13.98 m -9.97,10.71 c -3.48,2.9 -7.09,5.63 -10.79,8.24 2.05,1.7 4.21,3.24 6.33,4.86 3.1,2.33 4.5,6.14 7.23,8.84 0.63,0.84 2,1.8 2.93,0.76 3.95,-3.26 7.3,-7.19 10.34,-11.29 -3.61,-4.32 -7.65,-8.27 -11.55,-12.33 -1.35,-1.69 -3.29,-0.03 -4.49,0.92 m -92.26,61.61 c -3.43,1.66 -7.01,4.66 -7.21,8.73 0.47,3.17 2.68,5.73 4.86,7.94 4.73,5.24 15,1.05 15,-5.97 0.41,-3.99 -2.74,-7.13 -5.8,-9.16 -1.99,-1.26 -4.49,-2.8 -6.85,-1.54 m -113.29,70.06 c -0.44,1.84 1.18,3.13 2.16,4.44 3.82,4.21 7.65,8.43 11.98,12.15 2.4,-1.03 4.01,-3.13 5.58,-5.12 2.61,-3.37 5.7,-6.48 7.29,-10.5 -4.37,-3.55 -9,-6.85 -12.45,-11.37 -4.72,3.65 -10.54,5.89 -14.56,10.4 m 204.88,-1.62 c -0.65,-0.08 -1.93,-0.25 -2.57,-0.33 2.82,3.24 5.5,6.65 9,9.22 4.08,3.01 7.25,7.2 11.71,9.66 2.04,0.5 3,-1.83 4.2,-3 2.39,-3.31 5.73,-5.69 8.84,-8.26 -5.41,-5.03 -11.24,-9.59 -17.2,-13.94 -1.42,-1.08 -3.12,-1.69 -4.78,-2.27 -2.79,3.26 -5.9,6.2 -9.2,8.92 m -228.72,20.57 c -3.46,2.27 -6.36,5.25 -9.58,7.83 2.4,2.33 5.25,4.26 7.07,7.13 2.39,3.61 4.43,7.62 7.99,10.26 2.98,-2.6 5.85,-5.32 8.62,-8.15 4.57,-4.62 10.18,-8.17 14.2,-13.35 -4.71,-4.8 -8.82,-10.35 -14.64,-13.9 -4.84,3 -8.92,7.03 -13.66,10.18 m 265.44,-1.6 c -2.93,3.24 -6.52,5.78 -9.57,8.89 4.81,5.04 10.63,8.95 15.3,14.13 1.86,2.07 4.69,0.65 6.39,-0.87 4.23,-4.01 7.82,-8.68 10.76,-13.71 -6.17,-4.05 -11.9,-8.9 -18.5,-12.22 -1.84,0.69 -2.96,2.5 -4.38,3.78 m -205.2,-0.17 c -3.65,1.7 -7.17,4.25 -9.54,7.53 1.73,3.43 4.72,6.45 8.13,8.23 4.28,-0.58 6.71,-4.66 8.2,-8.3 -0.48,-2.25 -1.97,-4.13 -3.3,-5.95 -0.74,-1.25 -2,-2.29 -3.49,-1.51 m 157.44,8.34 c -1.37,0.9 -2.01,2.29 -2.13,3.9 3.88,2.25 5.97,6.27 9.07,9.33 1.05,1.51 2.49,0.07 3.27,-0.91 2.82,-3.46 5.56,-7.06 7.43,-11.15 -4.31,-3.61 -8.12,-7.84 -12.79,-10.99 -0.94,3.52 -1.72,7.51 -4.85,9.82 m -201.26,26.31 c 4.85,3.85 8,9.31 12.52,13.5 2.75,-2.42 4.68,-5.61 7.37,-8.08 5.04,-4.65 10.24,-9.39 13.64,-15.41 -3.38,-3.23 -6.52,-6.7 -9.58,-10.24 -7.81,6.94 -15.97,13.48 -23.95,20.23 m 282.6,-18.07 c -4.12,6.74 -10.24,11.78 -15.95,17.1 2.95,3.29 6.96,5.32 10.06,8.44 1.72,1.65 3.26,3.49 5.12,5 2,1.26 3.71,-0.85 5.07,-2.06 5.26,-5.17 10.62,-10.35 14.87,-16.4 -6.58,-3.71 -13.25,-7.32 -19.17,-12.08 m -336.65,13.76 c 2.42,4.58 6.88,7.46 10.2,11.3 2.36,2.75 4.38,5.77 7.04,8.25 5.7,-5.14 11.76,-9.91 17.15,-15.4 -5.56,-6.44 -13.22,-10.72 -18.3,-17.63 -4.66,5.31 -10.39,9.39 -16.09,13.48 m 270.3,-0.44 c 2.7,5 6.93,8.85 11.35,12.31 2.37,1.75 3.48,5.46 6.56,6.01 4.06,-1.59 5.97,-5.99 9.34,-8.56 1.41,-1.64 4.5,-3.26 3.56,-5.8 -3.45,-3.96 -8.12,-6.56 -11.89,-10.19 -1.73,-1.71 -3.71,-3.12 -5.86,-4.24 -3.73,4.22 -7.48,8.69 -13.06,10.47 m -304.36,26.52 c 6.93,5.92 13.82,11.93 19.72,18.91 7.06,-6.47 15.85,-11.02 21.89,-18.56 -6.3,-5.78 -12.23,-11.96 -18.09,-18.17 -6.91,7.06 -16.1,11.37 -23.52,17.82 m 384.82,-3.57 c -0.94,1.1 -2.41,2.01 -2.61,3.55 4.5,3.95 9.59,7.21 13.87,11.42 2.13,2.14 4.47,4.08 7.11,5.57 7,-5.36 12.97,-11.93 18.45,-18.8 -7.63,-5.18 -15.32,-10.3 -22.37,-16.27 -4.77,4.89 -9.48,9.85 -14.45,14.53 m -325.19,5.87 c 5.15,4.98 9.64,10.57 14.74,15.57 5.32,-6.04 11.35,-11.41 17.12,-17.02 -3.11,-4.45 -7.49,-7.75 -11.11,-11.76 -0.91,-0.59 -1.48,-2.32 -2.75,-1.94 -5.7,5.38 -11.74,10.43 -18,15.15 m 271,-1.01 c 4.28,3.9 8.8,7.61 12.24,12.33 1.35,1.41 3.48,4.67 5.55,2.48 5.24,-4.84 10.63,-9.75 14.32,-15.92 -5.66,-4.17 -11.73,-7.96 -16.46,-13.23 -5.64,4.31 -9.71,10.34 -15.65,14.34 m -302.27,26.95 c 5.56,5.78 11.03,11.67 16.05,17.93 7.26,-6.25 13.91,-13.31 20.6,-20.2 -5.12,-5.46 -11.66,-9.55 -15.75,-15.97 -6.09,7.04 -14.31,11.72 -20.9,18.24 m 344.45,-18.01 c -4.64,6.11 -10.26,11.52 -16.48,16.01 7.35,5.91 13.17,13.42 19.96,19.9 6.17,-6.39 12.28,-12.85 17.67,-19.91 -6.65,-5.84 -14.03,-10.77 -21.15,-16 z"
         id="path429" />
      <path
         fill="#0f222f"
         opacity="1"
         d="m 533.68,125.65 c 2.17,-2.29 5.73,-5.32 8.7,-2.42 0.1,0.07 0.3,0.2 0.4,0.27 6.65,4.65 10.57,11.96 14.73,18.71 0.06,0.1 0.19,0.32 0.26,0.43 1.79,1.9 1.69,4.85 -0.99,5.84 -0.1,0.06 -0.3,0.19 -0.41,0.26 -2.91,1.69 -5.93,3.2 -9.05,4.45 -1.18,-1.86 -2.41,-3.66 -3.73,-5.41 -0.08,-0.1 -0.23,-0.3 -0.3,-0.4 -0.91,-1.22 -1.84,-2.4 -2.72,-3.62 -0.07,-0.1 -0.22,-0.3 -0.29,-0.4 -2.23,-3.2 -4.34,-6.49 -6.73,-9.58 -0.07,-0.11 -0.21,-0.31 -0.27,-0.42 -1.78,-2.19 -2.13,-5.93 0.4,-7.71 z"
         id="path431" />
      <path
         fill="#0f222f"
         opacity="1"
         d="m 309.33,125.22 c 3.62,-1.95 7.56,-0.82 11.31,0.08 3.5,2.54 5.35,6.65 8.58,9.48 2.21,2.51 5.24,3.94 8.12,5.52 0.1,0.06 0.32,0.19 0.43,0.25 1.52,0.92 3.06,1.82 4.59,2.74 0.1,0.06 0.31,0.19 0.42,0.25 1.9,1.19 3.77,2.43 5.6,3.75 0.09,0.07 0.29,0.21 0.39,0.29 2.7,2.23 5.65,4.2 8.02,6.81 -1.24,0.87 -2.54,1.7 -3.5,2.9 -3.74,4.59 -8.24,8.49 -12.78,12.26 -5.46,4.58 -9.13,11.01 -15.02,15.09 -1.92,0.16 -3.81,-0.35 -5.69,-0.62 -5.72,-1.01 -11.53,0.12 -17.06,1.54 -1.22,-1.47 -2.43,-2.95 -3.6,-4.45 2.26,-3.37 3.53,-7.23 5.02,-10.96 2.99,-6.63 6.06,-13.29 7.73,-20.4 -8.87,1.7 -16,7.79 -22.36,13.83 -1.85,1.65 -2.07,5.66 -5.17,5.31 -2.03,-1.33 -3.6,-3.23 -5.3,-4.94 -2.66,-2.86 -5.82,-5.32 -7.79,-8.76 7.12,-4.87 13.69,-10.5 21.24,-14.75 0.15,-0.09 0.46,-0.26 0.61,-0.35 l 0.73,-0.4 c 0.14,-0.08 0.42,-0.23 0.56,-0.31 4.93,-2.66 10.63,-5.14 12.9,-10.69 0.07,-0.12 0.2,-0.34 0.26,-0.45 0.59,-1 1.18,-2.01 1.76,-3.02 z"
         id="path433" />
      <path
         fill="#0f222f"
         opacity="1"
         d="m 70.59,136.24 c 3.02,-4.2 6.65,-8.34 11.58,-10.26 3.61,-0.45 6.37,2.68 8.34,5.27 0.06,0.12 0.18,0.34 0.24,0.46 0.08,0.44 0.24,1.31 0.32,1.75 -1.79,4 -4.77,7.38 -7.36,10.91 -0.07,0.09 -0.22,0.29 -0.3,0.38 -2.94,3.39 -5.36,7.18 -8.24,10.62 -1.19,-0.88 -2.37,-1.76 -3.56,-2.63 -0.1,-0.07 -0.3,-0.22 -0.4,-0.29 -2.02,-2.06 -5.85,-3.82 -5.21,-7.24 1.1,-3 2.69,-5.81 4.31,-8.56 0.07,-0.1 0.21,-0.31 0.28,-0.41 z"
         id="path435" />
      <path
         fill="#0f222f"
         opacity="1"
         d="m 555.09,165.3 c 2.49,-2.08 4.96,-4.54 8.08,-5.61 l 0.62,0.03 c 1.11,0.54 2,1.37 2.65,2.49 0.07,0.11 0.21,0.32 0.28,0.42 2.52,4.05 4.99,8.15 6.79,12.58 0.05,0.12 0.15,0.36 0.2,0.48 2.91,8.05 4.8,16.41 6.96,24.67 0.57,1.97 0.26,4.02 0.1,6.02 -0.12,0.06 -0.36,0.16 -0.48,0.21 -3.5,1.74 -7.2,2.95 -11.06,3.57 -3.21,-11.24 -7.29,-22.21 -10.75,-33.37 -0.05,-0.13 -0.13,-0.39 -0.18,-0.52 -0.99,-3.65 -3.23,-7.14 -3.21,-10.97 z"
         id="path437" />
      <path
         fill="#0f222f"
         opacity="1"
         d="m 56.26,165.96 c 4.36,-0.83 7.97,2.06 10.46,5.3 0.45,1.67 -0.75,3.36 -1.05,5 -0.05,0.13 -0.14,0.39 -0.19,0.52 -1.45,3.56 -3.46,6.87 -4.83,10.48 -0.05,0.12 -0.15,0.38 -0.2,0.5 -0.58,1.52 -1.16,3.04 -1.76,4.55 -0.05,0.12 -0.15,0.35 -0.2,0.47 -0.52,1.15 -1.06,2.3 -1.64,3.43 -3.88,-0.28 -7.52,-1.75 -11.04,-3.31 2.05,-9.36 3.47,-19.79 10.45,-26.94 z"
         id="path439" />
      <path
         fill="#0f222f"
         opacity="1"
         d="m 376.65,179.24 c 3.32,2.7 5.6,6.37 7.8,9.98 0.06,0.11 0.19,0.32 0.25,0.43 1.26,2.19 2.45,4.43 3.67,6.65 0.06,0.11 0.17,0.34 0.23,0.46 5.02,10.18 6.35,21.59 9.29,32.43 -2.26,0.78 -4.71,0.88 -6.9,1.86 0.49,6.18 -0.55,12.3 -2.29,18.21 -0.04,0.13 -0.13,0.39 -0.17,0.52 -0.46,1.9 -2,3.17 -3.37,4.43 -9.97,-9.2 -20.61,-17.62 -30.62,-26.76 -2.27,-2.15 -5.06,-3.84 -6.72,-6.54 -0.26,-4.92 -0.11,-9.86 -0.78,-14.76 6.8,-6.93 14.29,-13.13 21.66,-19.43 2.75,-2.38 5.76,-4.53 7.95,-7.48 z"
         id="path441" />
      <path
         fill="#0f222f"
         opacity="1"
         d="m 245.56,187.26 c 1.67,-2.19 3.71,-4.07 5.7,-5.97 3.98,4.39 10.07,7.21 12.02,13.21 0.16,2.52 -0.98,4.93 -1.17,7.44 2.91,-0.08 5.25,-1.89 7.88,-2.85 4.45,1.67 9,4.67 11.13,9.03 0.36,4.58 1.65,10.27 -2.31,13.7 -5.81,5.87 -11.5,11.87 -17.59,17.44 -6.4,5.22 -11.89,11.43 -18.05,16.9 -0.55,-0.25 -1.63,-0.75 -2.18,-0.99 -1.71,-3.84 -2.57,-8.01 -2.98,-12.17 -0.39,-4.41 0.9,-9.12 -1.16,-13.24 l -0.19,-0.52 -0.56,-0.01 c -1.66,-0.07 -3.31,-0.18 -4.96,-0.24 2.93,-8.92 2.23,-18.65 6.16,-27.3 0.04,-0.12 0.14,-0.36 0.19,-0.48 1.45,-3.79 3.73,-7.14 5.83,-10.58 0.07,-0.12 0.22,-0.36 0.29,-0.47 0.41,-0.62 1.22,-1.84 1.62,-2.45 0.08,-0.11 0.24,-0.34 0.33,-0.45 z"
         id="path443" />
      <path
         fill="#0f222f"
         opacity="1"
         d="m 41.6,224.55 c 3.37,-1.81 6.98,0.24 9.41,2.63 -0.03,6.29 0.42,12.63 -0.91,18.83 0.31,5.37 -1.1,10.58 -1.14,15.92 0.02,1.55 -0.68,2.98 -1.33,4.35 -0.11,0.08 -0.33,0.23 -0.44,0.3 -1.95,0.67 -3.94,1.56 -6.05,1.48 -1.9,-0.65 -4.71,-1.77 -4.24,-4.27 0.04,-1.53 0.07,-3.05 0.04,-4.57 0.41,-8.75 -0.74,-17.61 0.93,-26.26 0.53,-2.95 0.23,-7.29 3.73,-8.41 z"
         id="path445" />
      <path
         fill="#0f222f"
         opacity="1"
         d="m 573.05,228.33 c 3.07,-2.69 7.05,-2.57 10.89,-2.34 2.62,5.02 2.87,10.76 3.86,16.23 0.42,3.22 0.67,6.67 -1.01,9.6 -3.74,1.41 -7.73,1.33 -11.65,1.19 -3.02,-7.9 -2.07,-16.42 -2.09,-24.68 z"
         id="path447" />
      <path
         fill="#0f222f"
         opacity="1"
         d="m 298.38,248.47 c 4.56,-0.55 9.05,1.23 13.63,1.07 5.31,0.41 10.44,-1.41 15.72,-1.37 3.65,1.84 6.24,5.14 9.41,7.65 10.71,8.91 21.44,17.84 33.13,25.46 -0.35,0.94 -0.69,1.88 -1.03,2.83 -1.97,2.91 -4.39,5.46 -6.54,8.23 -0.08,0.1 -0.23,0.3 -0.31,0.4 -3.59,3.88 -5.46,9.09 -4.05,14.33 0.06,0.19 0.2,0.55 0.27,0.74 2.92,5.1 7.73,8.66 11.66,12.92 3.31,3.23 6.35,6.78 10.08,9.54 0.1,0.08 0.3,0.24 0.4,0.32 1.9,1.51 3.63,3.24 5.6,4.69 0.1,0.07 0.3,0.23 0.41,0.3 2.06,1.53 4.16,3.01 6.18,4.6 -0.16,5.69 1.64,11.18 2.08,16.82 0.69,7.37 2.42,14.67 2.91,22.04 0.18,0.49 0.54,1.47 0.72,1.96 1.51,7.32 2.03,14.78 2.86,22.19 0.02,0.14 0.06,0.42 0.08,0.56 0.16,4.82 1.7,9.54 1.33,14.37 -0.25,1.04 -0.03,1.99 0.65,2.85 0.64,3.36 1.03,6.77 1.72,10.14 l 0.1,0.59 c 1.65,9.69 3.36,19.36 3.82,29.2 1.66,7.62 -0.08,15.53 1.95,23.13 -5.94,0.21 -11.62,-1.8 -17.42,-2.73 -13.44,-2.35 -25.9,-8.32 -39.32,-10.71 -5.47,-1.92 -11.38,-2.43 -16.66,-4.81 -1.72,-16.53 -2.34,-33.15 -2.03,-49.77 0.14,-9.58 -0.34,-19.18 1.05,-28.69 2.09,-13.11 -0.21,-26.3 -1.94,-39.31 -0.66,-12.29 -2.09,-24.53 -2.49,-36.83 -1.22,-9.77 -0.26,-19.63 -0.85,-29.43 -4.82,-0.64 -9.67,0.07 -14.5,-0.1 -10.67,0.12 -21.38,-0.57 -32.01,0.6 -6.73,0.24 -13.66,0.46 -20.11,-1.83 2.53,-3.61 6.14,-6.21 9.15,-9.39 7.66,-7.98 15.75,-15.62 24.35,-22.56 z"
         id="path449" />
      <path
         fill="#0f222f"
         opacity="1"
         d="m 574.88,267.31 c 3.8,-1.51 7.87,-1.51 11.9,-1.3 2.46,9.3 1.09,18.97 -0.37,28.3 l -0.09,0.6 c -1,6.06 -1.46,12.21 -3.27,18.11 -1.21,4.45 -2.74,9.82 -7.1,12.06 -3.49,-0.84 -8.75,-1.96 -9.15,-6.26 l -0.01,-0.63 c 1.79,-10.67 5.55,-21.14 5.32,-32.1 1.17,-6.03 1.48,-12.21 2.61,-18.22 z"
         id="path451" />
      <path
         fill="#0f222f"
         opacity="1"
         d="m 38,283.21 c 2.55,-3.52 7.26,-2.34 10.69,-0.98 0.88,1.55 1.37,3.27 1.86,4.98 0.04,0.13 0.11,0.39 0.15,0.52 2.04,8.19 2.61,16.7 2.28,25.12 -2.97,1.95 -6.23,3.65 -9.9,3.29 -2.75,-6.1 -3.69,-12.83 -4.9,-19.36 -0.48,-4.5 -0.1,-9.05 -0.18,-13.57 z"
         id="path453" />
      <path
         fill="#0f222f"
         opacity="1"
         d="m 46.99,327.24 c 2.74,-3.32 8.58,-6.33 11.74,-1.9 0.44,2.76 1.45,5.51 1.21,8.33 -1.2,1.7 -2.94,2.93 -5.12,2.24 -0.4,0 -1.22,0 -1.63,0 -1.64,0.4 -3.31,-0.07 -4.56,-1.2 -0.09,-0.09 -0.27,-0.27 -0.36,-0.35 -1.88,-1.93 -1.21,-4.71 -1.28,-7.12 z"
         id="path455" />
      <path
         fill="#0f222f"
         opacity="1"
         d="m 244.6,334.6 c 3.69,-3.83 8.38,-6.5 12.15,-10.24 0.06,7.57 0.12,15.2 -1.18,22.69 -2.98,21.42 -5.67,42.89 -8.81,64.29 -1.02,10.42 -2.42,20.8 -3.96,31.15 -0.55,5.46 -1.18,10.91 -2.39,16.27 -5.69,1.5 -11.55,1.41 -17.37,1.2 -0.47,-5.73 0.58,-11.38 1.39,-17.02 0.68,-0.84 0.9,-1.78 0.66,-2.81 -0.28,-2.53 -0.12,-5.09 0.41,-7.56 1.26,-7.57 2.06,-15.2 2.91,-22.81 0.02,-0.14 0.06,-0.43 0.08,-0.57 0.56,-4.4 0.58,-8.84 1.39,-13.2 0.18,-9.32 2.7,-18.35 3.5,-27.59 1.37,-7.96 1.97,-16 2.94,-24 0.8,-1.91 1.52,-4.06 3.28,-5.3 1.82,-1.33 3.46,-2.87 5,-4.5 z"
         id="path457" />
      <path
         fill="#0f222f"
         opacity="1"
         d="m 304.41,359.4 c 4.66,-4.56 12.08,-5.17 17.91,-2.68 3.76,1.46 5.72,5.43 6.84,9.06 1.19,5.8 1.14,11.75 1.38,17.64 -10.66,0.23 -21.28,1.15 -31.96,1.16 0.03,-6.08 0.5,-12.15 0.94,-18.21 0.68,-2.84 2.92,-4.96 4.89,-6.97 z"
         id="path459" />
      <path
         fill="#0f222f"
         opacity="1"
         d="m 86.59,424.24 c 1.44,-0.88 2.93,-1.71 4.52,-2.29 4.18,0.65 7.39,3.79 10.18,6.77 4.51,4.81 9.47,9.18 14.05,13.94 3.31,2.91 7.49,4.87 10.14,8.51 0.07,0.1 0.22,0.29 0.3,0.39 0.82,1.58 3.02,3.09 2.07,5.08 -2.26,2.62 -5.06,5.74 -8.85,5.45 -3.13,0.1 -5.75,-1.96 -8.38,-3.37 -0.1,-0.06 -0.3,-0.2 -0.4,-0.27 -7.12,-6.64 -14.06,-13.53 -20.68,-20.66 -0.08,-0.1 -0.22,-0.3 -0.3,-0.4 -2.23,-3.07 -4.28,-6.45 -4.94,-10.24 0.37,-1.08 1,-1.96 1.88,-2.64 0.1,-0.07 0.3,-0.2 0.41,-0.27 z"
         id="path461" />
      <path
         fill="#0f222f"
         opacity="1"
         d="m 521.21,426.24 c 1.19,-1.35 2.59,-2.86 4.61,-2.26 3.74,1.13 7.45,4.69 7.21,8.84 -1.62,4.39 -4.84,7.99 -8.7,10.54 -3.84,3.71 -8.03,8.07 -13.63,8.52 -0.61,0.01 -1.83,0.05 -2.44,0.06 l -0.89,0.18 c -1.39,-1.57 -2.94,-3.18 -3.39,-5.3 -0.59,-2.11 1.28,-3.61 2.27,-5.22 0.08,-0.09 0.22,-0.29 0.29,-0.39 0.9,-1.21 1.82,-2.4 2.73,-3.61 0.08,-0.09 0.23,-0.29 0.3,-0.39 3.1,-4.47 8.12,-6.92 11.64,-10.97 z"
         id="path463" />
      <path
         fill="#0f222f"
         opacity="1"
         d="m 225.08,469.07 c 6.01,-0.38 12.11,0.54 18.01,-0.99 8.63,-0.27 17.28,0.05 25.91,-0.12 5.06,-0.34 9.93,1.41 15,1.09 8.46,1.27 17.08,1.5 25.43,3.49 5.56,1.27 11.26,1.8 16.79,3.23 8.36,2.1 17.01,3.01 25.21,5.76 10.29,2.63 20.63,5.07 30.77,8.23 19.72,4.55 39.88,6.81 59.81,10.16 6.06,-0.4 11.93,1.54 17.99,1.11 5.46,-0.24 11.01,0.56 16.39,-0.66 4.35,-0.92 8.86,0.16 13.21,-0.76 14.99,-2.83 29.76,-7.16 43.67,-13.41 5.97,-3.51 12.2,-6.5 18.4,-9.57 2.74,-1.43 5.89,-0.5 8.57,0.59 -0.29,3.59 -2.96,6.26 -5.14,8.88 -10.14,8.73 -21.51,16.27 -34.34,20.37 -0.12,0.05 -0.37,0.15 -0.5,0.2 -2.78,1.06 -5.61,2.01 -8.47,2.85 -0.13,0.03 -0.39,0.11 -0.52,0.15 -9.89,2.58 -19.9,5.22 -30.17,5.54 -8.32,1.66 -16.86,0.33 -25.28,0.89 h -0.64 c -12.49,0.2 -24.83,-1.97 -37.2,-3.39 -0.49,-0.19 -1.46,-0.56 -1.95,-0.75 -9.51,-0.11 -18.86,-2.57 -28.04,-4.94 -14.59,-3.17 -29.11,-6.69 -43.59,-10.37 -4.93,-0.74 -9.77,-1.92 -14.63,-3.03 -0.14,-0.03 -0.43,-0.09 -0.57,-0.12 -19.2,-3.4 -38.49,-6.87 -57.97,-7.73 -6.68,-1.26 -13.66,-1.18 -20.32,0.15 -7.36,0.3 -14.75,-0.1 -22.12,0.16 l -0.64,0.02 c -11.04,1.52 -22.23,2.32 -33.08,5 -4.91,1.08 -9.55,3.12 -14.39,4.47 -0.16,0.05 -0.49,0.15 -0.65,0.2 -0.51,0.16 -1.52,0.47 -2.03,0.62 -0.17,0.05 -0.5,0.15 -0.67,0.2 -8.46,2.18 -16.31,6.11 -24.57,8.87 -0.13,0.05 -0.38,0.15 -0.5,0.2 -2.29,0.9 -4.5,1.98 -6.74,2.98 -0.16,0.07 -0.47,0.2 -0.63,0.27 l -0.77,0.34 c -0.15,0.07 -0.47,0.2 -0.62,0.27 -5.39,2.35 -10.72,4.89 -15.74,7.94 -0.11,0.06 -0.32,0.18 -0.42,0.25 -1.78,1.04 -3.65,1.94 -5.51,2.84 -0.12,0.06 -0.35,0.18 -0.46,0.23 -8.52,5.04 -16.7,10.67 -24.6,16.63 -0.11,0.07 -0.31,0.22 -0.41,0.3 -2.9,2.19 -5.79,4.38 -8.61,6.68 -0.1,0.08 -0.3,0.24 -0.4,0.32 -4.65,3.67 -8.82,8.35 -14.56,10.3 -4.28,1.24 -9,-4.3 -5.83,-8.06 4.95,-5.98 10.96,-11.04 16.27,-16.72 7.04,-7.81 16.44,-12.8 24.99,-18.7 0.1,-0.07 0.31,-0.2 0.41,-0.27 11.94,-8.51 25.54,-14.2 38.57,-20.76 0.13,-0.05 0.37,-0.15 0.5,-0.2 12.14,-4.34 24.11,-9.16 36.49,-12.86 0.12,-0.04 0.38,-0.12 0.5,-0.17 13.15,-4.05 26.83,-6.08 40.39,-8.2 z"
         id="path465" />
      <path
         fill="#0f222f"
         opacity="1"
         d="m 552.39,498.42 c 2.09,-1.4 4.41,-2.39 6.67,-3.47 2.24,2.77 -0.33,5.87 -1.82,8.3 -3.8,4.21 -9.31,6.2 -14.2,8.82 -2.14,1.35 -4.72,0.91 -7.1,0.96 0.01,-0.7 0.05,-2.11 0.07,-2.81 4.84,-4.78 11.1,-7.61 16.38,-11.8 z"
         id="path467" />
      <path
         fill="#0f222f"
         opacity="1"
         d="m 225,503.06 c 5.41,0.42 10.61,-1.38 16,-1.1 9.97,0.17 19.95,-0.16 29.91,0.13 4.22,1.1 8.57,0.72 12.86,1.14 4.75,1.27 9.71,0.26 14.48,1.42 7.7,0.68 15.39,1.62 23.01,3.02 16.26,1.93 31.88,7.17 47.98,10.02 3.7,0.27 7.39,0.72 10.99,1.66 0.15,0.03 0.43,0.09 0.57,0.12 11.4,2.16 22.52,5.99 34.19,6.5 13.4,0.86 26.57,4.52 40.05,4 2.6,-0.2 5.08,1.26 7.68,0.76 6.31,-1.55 12.85,-0.3 19.27,-0.81 7.43,-1.03 14.86,-2.16 22.22,-3.7 5.31,-0.11 10.49,-1.64 15.82,-1.29 1.37,-0.17 2.66,0.33 3.48,1.47 0.83,-0.15 1.67,-0.29 2.52,-0.41 -0.01,1.26 -0.02,2.52 -0.03,3.79 -5.11,5.23 -12.11,7.87 -19,9.79 -5.12,0.52 -9.82,2.87 -14.9,3.6 -3.5,0.89 -7.14,0.68 -10.67,1.32 -6.15,1.33 -12.55,-0.39 -18.65,1.29 -5.61,0.44 -11.36,0.62 -16.89,-0.61 -3.88,-0.48 -7.81,0.19 -11.67,-0.38 -4.71,-1.19 -9.62,-0.42 -14.34,-1.55 -8.66,-0.56 -16.97,-3.13 -25.47,-4.61 -12.5,-2.7 -25.2,-4.37 -37.62,-7.4 -17.82,-4.32 -36.01,-6.72 -54.04,-9.95 -7.3,-0.12 -14.45,-1.81 -21.78,-1.26 -3.02,0.02 -5.9,-1.15 -8.93,-1.03 -15.02,0.04 -30.05,-0.03 -45.07,0.03 -9.39,1.3 -18.95,1.52 -28.21,3.75 -6.89,1.04 -13.32,3.8 -19.97,5.73 -0.14,0.04 -0.4,0.11 -0.54,0.15 -5.7,1.33 -11.06,3.69 -16.46,5.86 -0.12,0.04 -0.36,0.13 -0.48,0.18 -1.86,0.68 -3.75,1.29 -5.64,1.87 -0.16,0.05 -0.48,0.15 -0.64,0.2 -0.51,0.16 -1.51,0.48 -2.01,0.63 -0.16,0.06 -0.49,0.18 -0.66,0.23 -5.38,2.22 -10.59,4.85 -15.6,7.82 -0.1,0.06 -0.32,0.19 -0.43,0.25 -5.42,3.05 -11.1,5.78 -16.02,9.63 -3.25,3.33 -6.83,6.29 -10.54,9.1 -0.1,0.07 -0.3,0.22 -0.4,0.3 -1.21,0.89 -2.41,1.8 -3.61,2.71 -0.1,0.07 -0.3,0.23 -0.4,0.3 -1.96,1.45 -3.71,3.15 -5.6,4.68 -0.1,0.07 -0.29,0.23 -0.39,0.31 -1.95,1.46 -3.71,3.16 -5.59,4.72 -0.1,0.07 -0.3,0.22 -0.39,0.3 -3.07,1.76 -6.77,5.87 -10.46,3.38 -2.24,-1.2 -3.61,-4.29 -2.67,-6.71 2.34,-6.19 8.19,-9.92 12.49,-14.65 6.15,-4.74 12.32,-9.46 18.48,-14.19 0.1,-0.07 0.3,-0.22 0.4,-0.29 1.21,-0.9 2.4,-1.81 3.61,-2.71 0.1,-0.07 0.29,-0.22 0.39,-0.29 1.22,-0.91 2.41,-1.84 3.64,-2.73 0.12,-0.08 0.34,-0.24 0.46,-0.32 0.6,-0.4 1.82,-1.21 2.43,-1.62 0.12,-0.08 0.36,-0.23 0.48,-0.3 13.18,-7.88 27.17,-14.5 41.59,-19.76 0.13,-0.04 0.38,-0.14 0.5,-0.19 12.16,-4.89 24.98,-7.78 37.66,-10.97 7.51,-1.27 15.07,-2.26 22.61,-3.33 z"
         id="path469" />
      <path
         fill="#0f222f"
         opacity="1"
         d="m 525.05,539.03 c 5.48,-5.09 12.97,-7.12 19.99,-9.06 2.95,-0.84 3.97,3.51 2.27,5.25 -4.27,4.89 -10.06,8.02 -15.14,11.94 -9.09,6.61 -19.04,12 -29.38,16.33 -0.13,0.05 -0.37,0.15 -0.5,0.2 -2.79,1.07 -5.62,2.03 -8.51,2.8 -0.13,0.04 -0.4,0.1 -0.53,0.14 -2.82,0.59 -5.64,1.19 -8.44,1.87 -0.14,0.03 -0.42,0.1 -0.56,0.13 -7.27,1.64 -14.71,2.34 -22.14,2.55 -7.36,1.51 -14.94,0.66 -22.4,0.74 -1.15,-0.11 -2.29,-0.11 -3.42,0 -4.73,0.12 -9.48,0.23 -14.2,-0.01 -18.35,-2.73 -36.72,-5.66 -54.7,-10.29 -23.74,-5.52 -47.59,-11.5 -71.99,-13.01 -3.88,-0.98 -7.95,-0.2 -11.84,-1.1 -4.48,-0.85 -8.97,-1.84 -13.56,-1.54 -7.03,0.29 -14.17,-0.69 -21.09,0.95 -10.93,0.34 -21.88,-0.21 -32.81,0.24 -6.43,1.12 -12.89,2.09 -19.29,3.38 -0.15,0.03 -0.43,0.08 -0.57,0.11 -9.89,1.95 -19.89,3.56 -29.45,6.84 -0.13,0.04 -0.4,0.12 -0.54,0.16 -7.91,2.37 -15.87,4.73 -23.36,8.26 -7.53,2.66 -16.23,4.78 -23.95,1.89 -0.36,-1.91 1.88,-2.09 3.02,-2.97 6.86,-5.28 14.2,-10.09 22.03,-13.84 6.49,-1.96 12.61,-4.95 19.11,-6.91 4.32,-1.37 8.8,-2.18 13.12,-3.56 0.13,-0.04 0.4,-0.11 0.53,-0.15 3.47,-1.02 6.91,-2.13 10.44,-2.92 0.13,-0.03 0.41,-0.1 0.54,-0.14 9.64,-2.23 19.37,-4.38 29.23,-5.27 5.08,0.37 9.97,-1.38 15.03,-1.08 14.31,0.16 28.63,-0.13 42.92,0.13 5.99,1.6 12.28,0.2 18.26,1.92 0.4,0.02 1.21,0.07 1.61,0.09 6.84,-0.7 13.59,0.87 20.35,1.7 4.28,0.85 8.72,1.04 12.87,2.5 0.49,0.18 1.47,0.54 1.96,0.72 1.26,-0.13 2.52,-0.09 3.78,0.13 9.22,1.82 18.4,3.87 27.5,6.25 0.13,0.03 0.4,0.1 0.54,0.14 4.08,1.21 8.22,2.28 12.45,2.84 0.14,0.03 0.43,0.08 0.58,0.1 13.65,2.35 27.09,5.82 40.78,7.94 4.14,0.82 8.41,0.33 12.52,1.4 10.95,0.45 21.93,0 32.89,0.22 4.71,0.24 9.26,-1.34 13.98,-1.17 8.5,-1.32 17.26,-1.51 25.43,-4.46 9.02,-2.13 17.71,-6.15 24.64,-12.38 z"
         id="path471" />
    </g>
  </g>
</svg>
