<?xml version="1.0" encoding="UTF-8" standalone="no"?>
<svg
   width="64px"
   height="64px"
   id="svg2821"
   version="1.1"
   xmlns:xlink="http://www.w3.org/1999/xlink"
   xmlns="http://www.w3.org/2000/svg"
   xmlns:svg="http://www.w3.org/2000/svg"
   xmlns:rdf="http://www.w3.org/1999/02/22-rdf-syntax-ns#"
   xmlns:cc="http://creativecommons.org/ns#"
   xmlns:dc="http://purl.org/dc/elements/1.1/">
  <defs
     id="defs2823">
    <linearGradient
       id="linearGradient59">
      <stop
         style="stop-color:#fce94f;stop-opacity:1"
         offset="0"
         id="stop59" />
      <stop
         style="stop-color:#c4a000;stop-opacity:1"
         offset="1"
         id="stop58" />
    </linearGradient>
    <linearGradient
       id="linearGradient53">
      <stop
         style="stop-color:#729fcf;stop-opacity:1"
         offset="0"
         id="stop53" />
      <stop
         style="stop-color:#3465a4;stop-opacity:1;"
         offset="1"
         id="stop52" />
    </linearGradient>
    <linearGradient
       id="linearGradient11">
      <stop
         style="stop-color:#c4a000;stop-opacity:1"
         offset="0"
         id="stop11" />
      <stop
         style="stop-color:#fce94f;stop-opacity:1"
         offset="1"
         id="stop9" />
    </linearGradient>
    <linearGradient
       id="linearGradient6">
      <stop
         style="stop-color:#729fcf;stop-opacity:1;"
         offset="0"
         id="stop6" />
      <stop
         style="stop-color:#3465a4;stop-opacity:1;"
         offset="1"
         id="stop5" />
    </linearGradient>
    <linearGradient
       id="linearGradient4">
      <stop
         style="stop-color:#729fcf;stop-opacity:1;"
         offset="0"
         id="stop4" />
      <stop
         style="stop-color:#3465a4;stop-opacity:1;"
         offset="1"
         id="stop1" />
    </linearGradient>
    <linearGradient
       id="linearGradient3">
      <stop
         style="stop-color:#fce94f;stop-opacity:1"
         offset="0"
         id="stop3" />
      <stop
         style="stop-color:#c4a000;stop-opacity:1"
         offset="1"
         id="stop2" />
    </linearGradient>
    <linearGradient
       id="linearGradient35">
      <stop
         style="stop-color:#3465a4;stop-opacity:1;"
         offset="0"
         id="stop33" />
      <stop
         style="stop-color:#729fcf;stop-opacity:1;"
         offset="1"
         id="stop34" />
    </linearGradient>
    <linearGradient
       id="linearGradient21">
      <stop
         style="stop-color:#3465a4;stop-opacity:1;"
         offset="0"
         id="stop21" />
      <stop
         style="stop-color:#3465a4;stop-opacity:0;"
         offset="1"
         id="stop22" />
    </linearGradient>
    <radialGradient
       xlink:href="#linearGradient3377"
       id="radialGradient3701"
       gradientUnits="userSpaceOnUse"
       cx="84.883324"
       cy="77.042847"
       fx="84.883324"
       fy="77.042847"
       r="19.467436"
       gradientTransform="matrix(2.8492421,1.2585119,-0.4040415,0.9147407,-125.84131,-100.25805)" />
    <linearGradient
       id="linearGradient3377">
      <stop
         id="stop3379"
         offset="0"
         style="stop-color:#faff2b;stop-opacity:1;" />
      <stop
         id="stop3381"
         offset="1"
         style="stop-color:#ffaa00;stop-opacity:1;" />
    </linearGradient>
    <radialGradient
       xlink:href="#linearGradient3377"
       id="radialGradient3699"
       gradientUnits="userSpaceOnUse"
       cx="76.383331"
       cy="94.369568"
       fx="76.383331"
       fy="94.369568"
       r="19.467436"
       gradientTransform="matrix(0.9818943,0.1894295,-0.4109427,2.1300924,40.163453,-121.11559)" />
    <linearGradient
       xlink:href="#linearGradient3801-5"
       id="linearGradient3807-7"
       x1="110"
       y1="35"
       x2="85"
       y2="35"
       gradientUnits="userSpaceOnUse"
       spreadMethod="reflect"
       gradientTransform="translate(-62,-16)" />
    <linearGradient
       id="linearGradient3801-5">
      <stop
         style="stop-color:#c4a000;stop-opacity:1"
         offset="0"
         id="stop3803-3" />
      <stop
         style="stop-color:#fce94f;stop-opacity:1"
         offset="1"
         id="stop3805-5" />
    </linearGradient>
    <linearGradient
       xlink:href="#linearGradient3838"
       id="linearGradient3844"
       x1="2802.9631"
       y1="538.36249"
       x2="2859.7263"
       y2="786.05646"
       gradientUnits="userSpaceOnUse" />
    <linearGradient
       id="linearGradient3838">
      <stop
         style="stop-color:#34e0e2;stop-opacity:1"
         offset="0"
         id="stop3840" />
      <stop
         style="stop-color:#06989a;stop-opacity:1"
         offset="1"
         id="stop3842" />
    </linearGradient>
    <linearGradient
       y2="786.05646"
       x2="2859.7263"
       y1="538.36249"
       x1="2802.9631"
       gradientUnits="userSpaceOnUse"
       id="linearGradient3045"
       xlink:href="#linearGradient3172" />
    <linearGradient
       id="linearGradient3172">
      <stop
         id="stop3174"
         offset="0"
         style="stop-color:#ef2929;stop-opacity:1" />
      <stop
         id="stop3176"
         offset="1"
         style="stop-color:#a40000;stop-opacity:1" />
    </linearGradient>
    <linearGradient
       xlink:href="#linearGradient3172"
       id="linearGradient3880"
       gradientUnits="userSpaceOnUse"
       x1="2802.9631"
       y1="626.0874"
       x2="2849.4058"
       y2="822.17853" />
    <linearGradient
       xlink:href="#linearGradient11"
       id="linearGradient22"
       x1="22.782017"
       y1="37.760967"
       x2="10.12716"
       y2="31.568081"
       gradientUnits="userSpaceOnUse"
       gradientTransform="matrix(1.0546639,0,0,1.047623,-9.2679129,3.0093584)" />
    <linearGradient
       id="linearGradient4389"
       x1="20.243999"
       x2="17.243999"
       y1="37.588001"
       y2="27.587999"
       gradientTransform="translate(-1.2435,-2.5881)"
       gradientUnits="userSpaceOnUse"
       xlink:href="#linearGradient3774" />
    <linearGradient
       id="linearGradient3774">
      <stop
         stop-color="#4e9a06"
         offset="0"
         id="stop21-8" />
      <stop
         stop-color="#8ae234"
         offset="1"
         id="stop23" />
    </linearGradient>
    <linearGradient
       id="linearGradient69042"
       x1="48.714001"
       x2="44.714001"
       y1="45.585999"
       y2="34.585999"
       gradientTransform="translate(-12.714,-17.586)"
       gradientUnits="userSpaceOnUse"
       xlink:href="#linearGradient3774" />
    <linearGradient
       id="linearGradient69056"
       x1="27.243999"
       x2="22.243999"
       y1="54.588001"
       y2="40.588001"
       gradientTransform="translate(-1.2435,-2.5881)"
       gradientUnits="userSpaceOnUse">
      <stop
         stop-color="#c4a000"
         offset="0"
         id="stop14-4" />
      <stop
         stop-color="#fce94f"
         offset="1"
         id="stop16" />
    </linearGradient>
    <linearGradient
       id="linearGradient4399"
       x1="48.714001"
       x2="44.714001"
       y1="45.585999"
       y2="34.585999"
       gradientTransform="translate(1.2856,1.4142)"
       gradientUnits="userSpaceOnUse">
      <stop
         stop-color="#c4a000"
         offset="0"
         id="stop8" />
      <stop
         stop-color="#edd400"
         offset="1"
         id="stop10" />
    </linearGradient>
    <linearGradient
       xlink:href="#linearGradient21"
       id="linearGradient27"
       gradientUnits="userSpaceOnUse"
       gradientTransform="translate(-0.30409276,0.05778729)"
       x1="22.782017"
       y1="37.760967"
       x2="11.930232"
       y2="29.936911" />
    <linearGradient
       xlink:href="#linearGradient69056"
       id="linearGradient33"
       gradientUnits="userSpaceOnUse"
       gradientTransform="matrix(1.9938046,0,0,1.9613155,1.0732527,-49.356425)"
       x1="22.782017"
       y1="37.760967"
       x2="7.864368"
       y2="32.411785" />
    <linearGradient
       xlink:href="#linearGradient3"
       id="linearGradient2"
       x1="14.883397"
       y1="43.811935"
       x2="25.259163"
       y2="50.94812"
       gradientUnits="userSpaceOnUse"
       gradientTransform="matrix(1.8048567,0,0,1.7835759,4.5436424,-43.019855)" />
    <linearGradient
       xlink:href="#linearGradient3"
       id="linearGradient2-0"
       x1="14.883397"
       y1="43.811935"
       x2="25.259163"
       y2="50.94812"
       gradientUnits="userSpaceOnUse"
       gradientTransform="matrix(1.8048567,0,0,1.7835759,96.609777,-8.4537881)" />
    <linearGradient
       xlink:href="#linearGradient69056"
       id="linearGradient33-9"
       gradientUnits="userSpaceOnUse"
       gradientTransform="matrix(1.9938046,0,0,1.9613155,114.04645,31.478968)"
       x1="22.782017"
       y1="37.760967"
       x2="7.864368"
       y2="32.411785" />
    <linearGradient
       xlink:href="#linearGradient69056"
       id="linearGradient33-1"
       gradientUnits="userSpaceOnUse"
       gradientTransform="matrix(1.9938046,0,0,1.9613155,100.92145,-12.646032)"
       x1="22.782017"
       y1="37.760967"
       x2="7.864368"
       y2="32.411785" />
    <linearGradient
       xlink:href="#linearGradient3"
       id="linearGradient2-8"
       x1="5.1180787"
       y1="51.030579"
       x2="24.220299"
       y2="43.028637"
       gradientUnits="userSpaceOnUse"
       gradientTransform="matrix(1.8048567,0,0,1.7835759,137.32907,24.566604)" />
    <linearGradient
       xlink:href="#linearGradient4"
       id="linearGradient789"
       x1="1499.9695"
       y1="876.72791"
       x2="1590.4602"
       y2="1009.5917"
       gradientUnits="userSpaceOnUse" />
    <linearGradient
       xlink:href="#linearGradient11"
       id="linearGradient791"
       x1="1654.3716"
       y1="963.87988"
       x2="1724.9871"
       y2="963.87988"
       gradientUnits="userSpaceOnUse" />
  </defs>
  <metadata
     id="metadata2826">
    <rdf:RDF>
      <cc:Work
         rdf:about="">
        <dc:format>image/svg+xml</dc:format>
        <dc:type
           rdf:resource="http://purl.org/dc/dcmitype/StillImage" />
        <dc:creator>
          <cc:Agent>
            <dc:title>[wmayer]</dc:title>
          </cc:Agent>
        </dc:creator>
        <dc:date>2011-10-10</dc:date>
        <dc:relation>http://www.freecad.org/wiki/index.php?title=Artwork</dc:relation>
        <dc:publisher>
          <cc:Agent>
            <dc:title>FreeCAD</dc:title>
          </cc:Agent>
        </dc:publisher>
        <dc:identifier>FreeCAD/src/Mod/Part/Gui/Resources/icons/Part_Cylinder.svg</dc:identifier>
        <dc:rights>
          <cc:Agent>
            <dc:title>FreeCAD LGPL2+</dc:title>
          </cc:Agent>
        </dc:rights>
        <cc:license>https://www.gnu.org/copyleft/lesser.html</cc:license>
        <dc:contributor>
          <cc:Agent>
            <dc:title>[agryson] Alexander Gryson</dc:title>
          </cc:Agent>
        </dc:contributor>
      </cc:Work>
    </rdf:RDF>
  </metadata>
  <g
     id="layer1">
    <g
       id="g705"
       transform="matrix(0.23509281,0,0,0.23520317,-341.53205,-194.70752)"
       style="stroke-width:8.50529;stroke-dasharray:none">
      <g
         id="g791"
         transform="translate(0.00583264)">
        <path
           d="m 1681.9217,922.38977 -0.6148,-3.86958 c -0.073,-0.58573 -0.5579,-1.16806 -1.1216,-1.34527 -2.166,-0.76754 -4.3827,-1.34407 -6.6463,-1.73559 -1.1919,-0.2033 -2.3894,-0.33104 -3.5973,-0.38192 -1.1085,-0.033 -2.2322,-0.029 -3.3232,0.19101 l -3.805,0.97155 c -0.3747,0.10065 -0.8499,0.064 -1.2462,-0.15783 -0.3999,-0.2157 -0.6821,-0.59312 -0.7975,-0.96325 l -1.9441,-5.98719 c -0.1243,-0.36722 -0.1217,-0.8444 0.075,-1.25391 0.19,-0.4125 0.5515,-0.72496 0.9138,-0.86359 l 3.6472,-1.44492 c 1.0119,-0.46299 1.9226,-1.11558 2.7998,-1.79366 0.9472,-0.75065 1.8472,-1.56007 2.6917,-2.42476 1.6012,-1.64633 3.0524,-3.4131 4.3533,-5.30621 0.3518,-0.47438 0.4011,-1.22663 0.1164,-1.74389 l -1.7779,-3.49595 c -0.2514,-0.53425 -0.8964,-0.93546 -1.4871,-0.93007 -2.2974,-0.061 -4.5801,0.072 -6.8541,0.39862 -1.1965,0.17451 -2.3745,0.4227 -3.5391,0.74734 -1.0645,0.31056 -2.1293,0.66649 -3.0989,1.21244 l -3.3148,2.10091 c -0.7614,0.48197 -1.7633,0.28846 -2.293,-0.44009 l -3.7053,-5.09041 c -0.5297,-0.72856 -0.4032,-1.75048 0.2908,-2.32511 l 3.024,-2.49953 c 0.8192,-0.75275 1.4774,-1.65023 2.1019,-2.5659 0.6688,-1.00652 1.2753,-2.05573 1.8112,-3.13892 1.0136,-2.06033 1.8489,-4.19213 2.5006,-6.3941 0.1808,-0.60172 0.013,-1.24931 -0.432,-1.694 l -2.7665,-2.7735 c -0.4445,-0.44469 -1.1011,-0.60362 -1.7031,-0.4235 -2.2037,0.65209 -4.3354,1.4789 -6.3971,2.49123 -1.084,0.53594 -2.1332,1.14196 -3.1404,1.81025 -0.9164,0.6239 -1.8138,1.29069 -2.5671,2.10921 l -2.509,3.01428 c -0.2439,0.30156 -0.6453,0.55304 -1.0966,0.60622 -0.4504,0.06 -0.9101,-0.084 -1.2213,-0.31555 l -5.0927,-3.69527 c -0.3167,-0.2236 -0.5912,-0.61651 -0.673,-1.0629 -0.089,-0.44549 0.021,-0.91207 0.2326,-1.23732 l 2.1019,-3.30495 c 0.5462,-0.96874 0.8939,-2.03394 1.2047,-3.09745 0.3248,-1.16415 0.5813,-2.3417 0.756,-3.53743 0.327,-2.27214 0.4599,-4.56316 0.3988,-6.85908 0.01,-0.59063 -0.4041,-1.22723 -0.9388,-1.47811 l -3.4893,-1.77707 c -0.5177,-0.28426 -1.27,-0.23459 -1.7447,0.11625 -1.8945,1.29989 -3.6695,2.75091 -5.317,4.35126 -0.8654,0.8441 -1.6748,1.73568 -2.4259,2.68224 -0.6785,0.87649 -1.3312,1.78696 -1.7945,2.79838 l -1.4456,3.64549 c -0.1388,0.36193 -0.4429,0.72306 -0.8557,0.91347 -0.4097,0.19631 -0.8953,0.20761 -1.2628,0.083 l -5.99,-1.94308 c -0.3704,-0.11525 -0.7478,-0.40601 -0.9637,-0.80553 -0.2223,-0.39601 -0.2586,-0.87089 -0.1579,-1.24561 l 0.9721,-3.79492 c 0.2198,-1.09079 0.2244,-2.21456 0.191,-3.32154 -0.051,-1.20773 -0.1785,-2.40497 -0.3821,-3.59561 -0.3917,-2.26184 -0.9684,-4.4796 -1.7364,-6.64318 -0.1773,-0.56334 -0.7597,-1.04771 -1.3459,-1.12108 l -3.8714,-0.61451 c -0.5803,-0.11095 -1.2855,0.17552 -1.6284,0.65599 -1.3997,1.82145 -2.6332,3.74904 -3.7053,5.77959 -0.562,1.0703 -1.0571,2.17328 -1.4788,3.30505 -0.3743,1.04381 -0.7111,2.10911 -0.8391,3.21359 l -0.2492,3.91116 c -0.02,0.38672 -0.1979,0.82951 -0.5317,1.13767 -0.3289,0.31325 -0.7835,0.46098 -1.1715,0.45669 h -6.2973 c -0.388,0 -0.8426,-0.14344 -1.1714,-0.45669 -0.3339,-0.30816 -0.52,-0.75095 -0.5401,-1.13767 l -0.2492,-3.91116 c -0.128,-1.10448 -0.4648,-2.16978 -0.8391,-3.21359 -0.4217,-1.13177 -0.9168,-2.23475 -1.4788,-3.30505 -1.0721,-2.03055 -2.3056,-3.95814 -3.7053,-5.77959 -0.3429,-0.48047 -1.0481,-0.76694 -1.6284,-0.65599 l -3.8631,0.61451 c -0.5862,0.073 -1.1686,0.55774 -1.3459,1.12108 -0.768,2.16358 -1.353,4.38134 -1.7447,6.64318 -0.2036,1.19064 -0.3312,2.38788 -0.3821,3.59561 -0.033,1.10698 -0.02,2.23075 0.1994,3.32154 l 0.972,3.79492 c 0.1007,0.37472 0.064,0.8496 -0.1579,1.24561 -0.2159,0.39952 -0.6016,0.69028 -0.972,0.80553 l -5.99,1.94308 c -0.3675,0.12465 -0.8447,0.11335 -1.2545,-0.083 -0.4128,-0.19041 -0.7252,-0.55154 -0.864,-0.91347 l -1.4456,-3.64549 c -0.4633,-1.01142 -1.116,-1.92189 -1.7945,-2.79838 -0.7512,-0.94656 -1.5605,-1.83814 -2.4259,-2.68224 -1.6475,-1.60035 -3.4143,-3.05137 -5.3087,-4.35126 -0.4747,-0.35084 -1.2353,-0.40051 -1.753,-0.11625 l -3.4893,1.77707 c -0.5347,0.25088 -0.936,0.88748 -0.9305,1.47811 -0.061,2.29592 0.072,4.58694 0.3988,6.85908 0.1747,1.19573 0.4229,2.37328 0.7477,3.53743 0.3108,1.06351 0.6666,2.12871 1.213,3.09745 l 2.0936,3.30495 c 0.2115,0.32525 0.3297,0.79183 0.2409,1.23732 -0.082,0.44639 -0.3564,0.8393 -0.6729,1.0629 l -5.1011,3.69527 c -0.3111,0.23169 -0.7626,0.37592 -1.213,0.31555 -0.4513,-0.053 -0.861,-0.30466 -1.1049,-0.60622 l -2.5007,-3.01428 c -0.7533,-0.81852 -1.6592,-1.48531 -2.5754,-2.10921 -1.0072,-0.66829 -2.0482,-1.27431 -3.1322,-1.81025 -2.0615,-1.01233 -4.2016,-1.83914 -6.4053,-2.49123 -0.5601,-0.18692 -1.2905,-0.01 -1.6948,0.4235 l -2.7749,2.7735 c -0.4308,0.40461 -0.6114,1.13416 -0.4237,1.694 0.6518,2.20197 1.4869,4.33377 2.5007,6.3941 0.5359,1.08319 1.134,2.1324 1.8029,3.13892 0.6245,0.91567 1.291,1.81315 2.1101,2.5659 l 3.0158,2.49953 c 0.3018,0.24368 0.5533,0.65339 0.6064,1.10448 0.06,0.44999 -0.076,0.90977 -0.3073,1.22063 l -3.7053,5.09041 c -0.2243,0.31635 -0.6164,0.59082 -1.0634,0.67258 -0.4457,0.089 -0.9045,-0.021 -1.2296,-0.23249 l -3.3149,-2.10091 c -0.9695,-0.54595 -2.0343,-0.90188 -3.0988,-1.21244 -1.1645,-0.32464 -2.3509,-0.57283 -3.5475,-0.74734 -2.274,-0.32675 -4.5566,-0.45959 -6.854,-0.39862 -0.5908,-0.01 -1.2274,0.39582 -1.4788,0.93007 l -1.7861,3.49595 c -0.2849,0.51726 -0.2271,1.26951 0.1245,1.74389 1.3009,1.89311 2.7522,3.65988 4.3534,5.30621 0.8446,0.86469 1.7362,1.67411 2.6834,2.42476 0.8772,0.67808 1.788,1.33067 2.7998,1.79366 l 3.6472,1.44492 c 0.3622,0.13863 0.7239,0.45109 0.9138,0.86359 0.1967,0.40951 0.2074,0.88669 0.083,1.25391 l -1.9524,5.98719 c -0.1153,0.37013 -0.3976,0.74755 -0.7975,0.96325 -0.3964,0.2222 -0.8716,0.25848 -1.2462,0.15783 l -3.7967,-0.97155 c -1.0909,-0.21979 -2.2148,-0.22439 -3.3232,-0.19101 -1.2079,0.051 -2.4053,0.17862 -3.5973,0.38192 -2.264,0.39152 -4.4803,0.96805 -6.6463,1.73559 -0.5629,0.17721 -1.0481,0.75954 -1.1215,1.34527 l -0.6148,3.86958 c -0.1111,0.57993 0.1663,1.285 0.648,1.62764 1.8226,1.39874 3.7503,2.63226 5.7823,3.70356 1.071,0.56163 2.1734,1.0484 3.3066,1.46981 1.0437,0.37402 2.1179,0.71916 3.2234,0.847 l 3.913,0.24908 c 0.3874,0.02 0.8299,0.19791 1.1381,0.53155 0.3136,0.32865 0.4618,0.78314 0.457,1.17085 v 6.29435 c 0,0.38772 -0.1434,0.8422 -0.457,1.17095 -0.3082,0.33364 -0.7507,0.51136 -1.1381,0.53145 l -3.913,0.24908 c -1.1055,0.12784 -2.1797,0.46468 -3.2234,0.83871 -1.1332,0.4214 -2.2356,0.91657 -3.3066,1.4781 -2.032,1.0714 -3.9597,2.30482 -5.7823,3.70357 -0.4817,0.34254 -0.7591,1.0476 -0.648,1.62763 l 0.6148,3.86959 c 0.073,0.58582 0.5586,1.15975 1.1215,1.33697 2.166,0.76744 4.3823,1.35236 6.6463,1.74388 1.192,0.2034 2.3894,0.33104 3.5973,0.38192 1.1084,0.033 2.2323,0.021 3.3232,-0.19931 l 3.7967,-0.97154 c 0.3746,-0.10065 0.8498,-0.064 1.2462,0.15783 0.3999,0.21569 0.6822,0.60141 0.7975,0.97154 l 1.9524,5.98719 c 0.1243,0.36723 0.1136,0.8445 -0.083,1.25391 -0.1899,0.41251 -0.5516,0.72496 -0.9138,0.8636 l -3.6472,1.44492 c -1.0118,0.46298 -1.9226,1.11557 -2.7998,1.79365 -0.9472,0.75065 -1.8388,1.55178 -2.6834,2.41647 -1.6012,1.64643 -3.0525,3.42139 -4.3534,5.31451 -0.3516,0.47437 -0.4094,1.22662 -0.1245,1.74388 l 1.7861,3.48766 c 0.2514,0.53425 0.888,0.94376 1.4788,0.93836 2.2974,0.061 4.58,-0.072 6.854,-0.39861 1.1966,-0.17462 2.383,-0.4311 3.5475,-0.75565 1.0645,-0.31065 2.1293,-0.65819 3.0988,-1.20413 l 3.3149,-2.10092 c 0.3251,-0.2114 0.7839,-0.32135 1.2296,-0.23249 0.447,0.082 0.8391,0.35633 1.0634,0.67269 l 3.7053,5.09031 c 0.2318,0.31095 0.3678,0.77053 0.3073,1.22072 -0.053,0.45089 -0.3046,0.8523 -0.6064,1.09609 l -3.0158,2.49953 c -0.8191,0.75274 -1.4856,1.65842 -2.1101,2.57419 -0.6689,1.00642 -1.267,2.05573 -1.8029,3.13892 -1.0138,2.06024 -1.8489,4.19194 -2.5007,6.3941 -0.1877,0.55974 -0.01,1.29 0.4237,1.69402 l 2.7749,2.7652 c 0.4043,0.4305 1.1347,0.6195 1.6948,0.4318 2.2037,-0.6513 4.3438,-1.4865 6.4053,-2.4995 1.084,-0.5355 2.125,-1.13361 3.1322,-1.80199 0.9162,-0.62411 1.8221,-1.2907 2.5754,-2.10921 l 2.5007,-3.01429 c 0.2439,-0.30146 0.6536,-0.55314 1.1049,-0.60622 0.4504,-0.06 0.9019,0.076 1.213,0.30726 l 5.1011,3.70356 c 0.3165,0.2241 0.5912,0.61621 0.6729,1.0629 0.089,0.44529 -0.029,0.90398 -0.2409,1.22903 l -2.0936,3.31326 c -0.5464,0.9689 -0.9022,2.0336 -1.213,3.0974 -0.3248,1.1637 -0.573,2.3418 -0.7477,3.5375 -0.327,2.2724 -0.4599,4.555 -0.3988,6.8508 -0.01,0.5903 0.3958,1.2352 0.9305,1.4864 l 3.4893,1.777 c 0.5177,0.2846 1.2783,0.2352 1.753,-0.1162 1.8944,-1.3 3.6612,-2.7512 5.3087,-4.3513 0.8654,-0.8441 1.6747,-1.7439 2.4259,-2.6905 0.6785,-0.8765 1.3312,-1.7874 1.7945,-2.7984 l 1.4456,-3.6372 c 0.1388,-0.362 0.4512,-0.7319 0.864,-0.9218 0.4098,-0.1964 0.887,-0.199 1.2545,-0.075 l 5.99,1.9431 c 0.3704,0.1153 0.7561,0.4059 0.972,0.8055 0.2223,0.396 0.2586,0.8712 0.1579,1.2456 l -0.972,3.7949 c -0.2199,1.0901 -0.2328,2.2139 -0.1994,3.3216 0.051,1.207 0.1785,2.4045 0.3821,3.5956 0.3917,2.2622 0.9767,4.4705 1.7447,6.6348 0.1773,0.5633 0.7597,1.0557 1.3459,1.1294 l 3.8631,0.6062 c 0.5803,0.1108 1.2855,-0.1668 1.6284,-0.6477 1.3997,-1.8213 2.6332,-3.749 3.7053,-5.7795 0.562,-1.0699 1.0571,-2.1727 1.4788,-3.305 0.3743,-1.0432 0.7111,-2.1089 0.8391,-3.2137 l 0.2492,-3.9112 c 0.02,-0.3872 0.2062,-0.8296 0.5401,-1.1376 0.3288,-0.3135 0.7834,-0.4697 1.1714,-0.465 h 6.2973 c 0.388,0 0.8426,0.1515 1.1715,0.465 0.3338,0.308 0.5117,0.7504 0.5317,1.1376 l 0.2492,3.9112 c 0.128,1.1048 0.4648,2.1705 0.8391,3.2137 0.4217,1.1323 0.9168,2.2351 1.4788,3.305 1.0721,2.0305 2.3056,3.9582 3.7053,5.7795 0.3429,0.4809 1.0481,0.7585 1.6284,0.6477 l 3.8714,-0.6062 c 0.5862,-0.074 1.1686,-0.5661 1.3459,-1.1294 0.768,-2.1643 1.3447,-4.3726 1.7364,-6.6348 0.2036,-1.1911 0.3312,-2.3886 0.3821,-3.5956 0.033,-1.1077 0.029,-2.2315 -0.191,-3.3216 l -0.9721,-3.7949 c -0.1007,-0.3744 -0.064,-0.8496 0.1579,-1.2456 0.2159,-0.3996 0.5933,-0.6902 0.9637,-0.8055 l 5.99,-1.9431 c 0.3675,-0.1244 0.8531,-0.1218 1.2628,0.075 0.4128,0.1899 0.7169,0.5598 0.8557,0.9218 l 1.4456,3.6372 c 0.4633,1.011 1.116,1.9219 1.7945,2.7984 0.7511,0.9466 1.5605,1.8464 2.4259,2.6905 1.6475,1.6001 3.4225,3.0513 5.317,4.3513 0.4747,0.3514 1.227,0.4008 1.7447,0.1162 l 3.4893,-1.777 c 0.5347,-0.2512 0.9443,-0.8961 0.9388,-1.4864 0.061,-2.2958 -0.072,-4.5784 -0.3988,-6.8508 -0.1747,-1.1957 -0.4312,-2.3738 -0.756,-3.5375 -0.3108,-1.0638 -0.6585,-2.1285 -1.2047,-3.0974 l -2.1019,-3.31326 c -0.2115,-0.32505 -0.3215,-0.78374 -0.2326,-1.22903 0.082,-0.44669 0.3563,-0.8388 0.673,-1.0629 l 5.0927,-3.70356 c 0.3112,-0.23169 0.7709,-0.36763 1.2213,-0.30726 0.4513,0.053 0.8527,0.30476 1.0966,0.60622 l 2.509,3.01429 c 0.7533,0.81851 1.6507,1.4851 2.5671,2.10921 1.0072,0.66838 2.0564,1.26649 3.1404,1.80199 2.0617,1.013 4.1934,1.8482 6.3971,2.4995 0.5601,0.1877 1.2988,0 1.7031,-0.4318 l 2.7665,-2.7652 c 0.4308,-0.40402 0.6199,-1.13428 0.432,-1.69402 -0.6517,-2.20216 -1.487,-4.33386 -2.5006,-6.3941 -0.5359,-1.08319 -1.1424,-2.1325 -1.8112,-3.13892 -0.6245,-0.91577 -1.2827,-1.82145 -2.1019,-2.57419 l -3.024,-2.49953 c -0.3018,-0.24379 -0.5533,-0.6452 -0.6065,-1.09609 -0.06,-0.45019 0.084,-0.90977 0.3157,-1.22072 l 3.7053,-5.09031 c 0.2242,-0.31636 0.6081,-0.59103 1.0551,-0.67269 0.4456,-0.089 0.9127,0.021 1.2379,0.23249 l 3.3148,2.10092 c 0.9696,0.54594 2.0344,0.89348 3.0989,1.20413 1.1646,0.32455 2.3426,0.58103 3.5391,0.75565 2.274,0.32674 4.5567,0.45958 6.8541,0.39861 0.5907,0.01 1.2357,-0.40411 1.4871,-0.93836 l 1.7779,-3.48766 c 0.2847,-0.51726 0.2354,-1.26951 -0.1164,-1.74388 -1.3009,-1.89312 -2.7521,-3.66808 -4.3533,-5.31451 -0.8445,-0.86469 -1.7445,-1.66582 -2.6917,-2.41647 -0.8772,-0.67808 -1.7879,-1.33067 -2.7998,-1.79365 l -3.6472,-1.44492 c -0.3623,-0.13864 -0.7238,-0.45109 -0.9138,-0.8636 -0.1966,-0.40941 -0.1991,-0.88668 -0.075,-1.25391 l 1.9441,-5.98719 c 0.1154,-0.37013 0.3976,-0.75585 0.7975,-0.97154 0.3963,-0.2221 0.8715,-0.25848 1.2462,-0.15783 l 3.805,0.97154 c 1.091,0.2198 2.2147,0.23269 3.3232,0.19931 1.2079,-0.051 2.4054,-0.17852 3.5973,-0.38192 2.2636,-0.39152 4.4803,-0.97644 6.6463,-1.74388 0.5637,-0.17722 1.0481,-0.75115 1.1216,-1.33697 l 0.6148,-3.86959 c 0.1101,-0.58003 -0.1755,-1.28509 -0.6564,-1.62763 -1.8227,-1.39875 -3.7512,-2.63217 -5.7823,-3.70357 -1.071,-0.56153 -2.1734,-1.0567 -3.3065,-1.4781 -1.0438,-0.37403 -2.1097,-0.71087 -3.2152,-0.83871 l -3.913,-0.24908 c -0.3874,-0.02 -0.8299,-0.19781 -1.1382,-0.53145 -0.3135,-0.32875 -0.4699,-0.78323 -0.4652,-1.17095 v -6.29435 c 0,-0.38771 0.1517,-0.8422 0.4652,-1.17085 0.3083,-0.33364 0.7508,-0.51156 1.1382,-0.53155 l 3.913,-0.24908 c 1.1055,-0.12784 2.1714,-0.47298 3.2152,-0.847 1.1331,-0.42141 2.2355,-0.90818 3.3065,-1.46981 2.0311,-1.0713 3.9596,-2.30482 5.7823,-3.70356 0.4809,-0.34264 0.7665,-1.04771 0.6564,-1.62764 z"
           style="fill:#729fcf;fill-rule:evenodd;stroke:#0b1523;stroke-width:6.37896;stroke-linecap:round;stroke-linejoin:round;stroke-dasharray:none;stroke-opacity:1"
           id="path785" />
        <path
           d="m 1709.6116,1042.9898 h -1.6284 c -0.7183,0 -1.3574,-0.4467 -1.6034,-1.1211 l -6.1728,-16.9568 c -0.246,-0.6743 -0.8859,-1.121 -1.6034,-1.121 h -4.8103 c -0.7183,0 -1.3574,0.4467 -1.6034,1.121 l -6.1811,16.9568 c -0.2459,0.6744 -0.8859,1.1211 -1.6034,1.1211 h -3.2484 c -0.7183,0 -1.3657,-0.4467 -1.6117,-1.1211 l -6.1728,-16.9568 c -0.2455,-0.6743 -0.8852,-1.121 -1.6034,-1.121 h -4.8102 c -0.7182,0 -1.3578,0.4467 -1.6035,1.121 l -6.181,16.9568 c -0.2456,0.6744 -0.8853,1.1211 -1.6035,1.1211 h -3.2483 c -0.7182,0 -1.3578,-0.4467 -1.6035,-1.1211 l -6.181,-16.9568 c -0.2457,-0.6743 -0.8853,-1.121 -1.6035,-1.121 h -4.8102 c -0.7182,0 -1.3578,0.4467 -1.6034,1.121 l -6.1728,16.9568 c -0.2457,0.6744 -0.8936,1.1211 -1.6117,1.1211 h -3.2484 c -0.7182,0 -1.3579,-0.4467 -1.6034,-1.1211 l -6.1811,-16.9568 c -0.2457,-0.6743 -0.8853,-1.121 -1.6034,-1.121 h -4.802 c -0.7181,0 -1.3662,0.4467 -1.6117,1.121 l -6.1728,16.9568 c -0.2456,0.6744 -0.8853,1.1211 -1.6034,1.1211 h -3.2567 c -0.7181,0 -1.3578,-0.4467 -1.6034,-1.1211 l -6.1728,-16.9568 c -0.2456,-0.6743 -0.8936,-1.121 -1.6117,-1.121 h -4.802 c -0.7181,0 -1.3661,0.4467 -1.6117,1.121 l -6.1728,16.9568 c -0.2456,0.6744 -0.8853,1.1211 -1.6034,1.1211 h -3.2567 c -0.7181,0 -1.3578,-0.4467 -1.6034,-1.1211 l -6.1728,-16.9568 c -0.2455,-0.6743 -0.8936,-1.121 -1.6117,-1.121 h -4.802 c -0.7181,0 -1.3577,0.4467 -1.6034,1.121 l -6.181,16.9568 c -0.2456,0.6744 -0.8853,1.1211 -1.6035,1.1211 h -3.2483 c -0.7181,0 -1.3661,-0.4467 -1.6118,-1.1211 l -6.1728,-16.9568 c -0.2456,-0.6743 -0.8852,-1.121 -1.6034,-1.121 h -4.8103 c -0.7181,0 -1.3577,0.4467 -1.6033,1.121 l -6.1811,16.9568 c -0.2456,0.6744 -0.8853,1.1211 -1.6035,1.1211 h -3.2483 c -0.7181,0 -1.3579,-0.4467 -1.6034,-1.1211 l -6.1811,-16.9568 c -0.2457,-0.6743 -0.8853,-1.121 -1.6034,-1.121 h -4.8104 c -0.7181,0 -1.3578,0.4467 -1.6033,1.121 l -6.1728,16.9568 c -0.246,0.6744 -0.8934,1.1211 -1.6118,1.1211 h -3.2483 c -0.7174,0 -1.3574,-0.4467 -1.6034,-1.1211 l -6.1811,-16.9568 c -0.2459,-0.6743 -0.8851,-1.121 -1.6034,-1.121 h -4.8102 c -0.7176,0 -1.3575,0.4467 -1.6035,1.121 l -6.1728,16.9568 c -0.2459,0.6744 -0.8851,1.1211 -1.6033,1.1211 h -1.6284 v 42.6824 h 241.4937 z"
           style="fill:#fce94f;fill-rule:evenodd;stroke:#231f0b;stroke-width:6.37896;stroke-linecap:round;stroke-linejoin:round;stroke-dasharray:none;stroke-opacity:1"
           id="path786" />
        <path
           d="m 1546.793,879.84375 c 0.079,0.14442 0.171,0.28008 0.248,0.42578 0.4239,0.80774 0.7978,1.64906 1.127,2.5293 0.3137,0.87885 0.4492,1.35839 0.4941,1.71875 l 0.2227,3.54297 c 2e-4,0.004 0,0.008 0,0.0117 0.1,1.86742 1.0144,4.0121 2.541,5.44335 1.5104,1.41984 3.6841,2.22214 5.6133,2.19727 h 6.1367 c 1.9234,0.0233 4.0928,-0.76995 5.6114,-2.19727 1.5266,-1.43125 2.4413,-3.57593 2.541,-5.44335 l 0.2265,-3.55469 c 0.048,-0.38401 0.1803,-0.86118 0.4864,-1.71875 0.3207,-0.85694 0.6974,-1.69951 1.1328,-2.5293 0,0 0,-0.002 0,-0.002 0.077,-0.14523 0.1693,-0.27989 0.248,-0.42383 0.031,0.16356 0.077,0.32427 0.1055,0.48828 0.1545,0.90813 0.2485,1.81745 0.2891,2.72852 0.026,0.90662 0,1.41335 -0.072,1.80664 l -0.8809,3.4414 c -0.4929,1.83326 -0.2687,4.15696 0.7383,5.98047 1.0183,1.84925 2.883,3.25688 4.6543,3.8086 l -0.072,-0.0215 5.9903,1.94336 -0.074,-0.0254 c 1.7664,0.59738 4.0959,0.55476 6.0136,-0.34961 1.867,-0.87684 3.4175,-2.60416 4.1055,-4.40039 l 1.3125,-3.30664 c 0.1621,-0.34512 0.4386,-0.76007 0.9941,-1.48047 0.5932,-0.74555 1.206,-1.43445 1.8497,-2.0625 0.1192,-0.11574 0.2502,-0.21811 0.371,-0.33203 -0.022,0.16772 -0.027,0.33627 -0.051,0.50391 -0.1305,0.88892 -0.3259,1.7854 -0.5782,2.69531 -0.2608,0.88771 -0.4322,1.35409 -0.6093,1.67578 l -1.9063,3.00586 c -1.0513,1.61483 -1.5378,3.88167 -1.1484,5.91211 0.3919,2.05708 1.7403,3.99745 3.25,5.0664 l 4.9668,3.61524 c 0,0 0,0 0,0 1.5274,1.13677 3.7475,1.78689 5.8301,1.52148 2.0693,-0.26104 4.0777,-1.4652 5.25,-2.91015 l 2.2715,-2.74805 c 0.2442,-0.26085 0.6352,-0.56936 1.4141,-1.10156 0.7721,-0.51055 1.5716,-0.97253 2.3925,-1.37891 l 0.01,-0.002 c 0,-0.001 0,-0.003 0.01,-0.004 0.1433,-0.0704 0.2933,-0.12306 0.4375,-0.1914 -0.069,0.14427 -0.1229,0.29399 -0.1934,0.4375 -0.4173,0.84401 -0.8768,1.64409 -1.377,2.40039 -0.5115,0.74791 -0.8217,1.13827 -1.1132,1.41015 l -2.7286,2.26953 c -1.4288,1.15517 -2.659,3.16538 -2.9218,5.25977 -0.256,2.01689 0.3385,4.24282 1.5078,5.81836 0,0.004 0.01,0.008 0.01,0.0117 l 3.6172,4.96679 c 8e-4,0.001 0,0.003 0,0.004 1.109,1.56338 3.0398,2.85352 5.0684,3.24024 2.0213,0.38766 4.3169,-0.11237 5.9043,-1.14454 l 3.0019,-1.90234 c 0.3201,-0.17689 0.7881,-0.35037 1.6836,-0.61328 0.9157,-0.25382 1.8186,-0.44983 2.711,-0.58008 0.1623,-0.0233 0.3258,-0.0279 0.4883,-0.0488 -0.115,0.12185 -0.2172,0.25478 -0.334,0.375 -0.6356,0.6502 -1.3207,1.2632 -2.045,1.83985 -0.7305,0.56352 -1.1505,0.84266 -1.5,1.00586 l -3.2929,1.30664 c -1.7081,0.65424 -3.4964,2.1583 -4.4082,4.09961 -0.9163,1.94354 -0.9528,4.23653 -0.3477,6.02343 l 1.8946,5.83789 c 5e-4,0.002 0,0.004 0,0.006 0.5862,1.87478 2.0534,3.67258 3.8242,4.64453 1.8219,1.00341 4.141,1.22405 5.9707,0.73243 l 3.4375,-0.87891 c 0.3715,-0.0718 0.8768,-0.0914 1.8067,-0.0644 0.918,0.0406 1.8283,0.13361 2.7304,0.28711 0,7.7e-4 0.01,0.001 0.014,0.002 0.1582,0.0274 0.3112,0.0739 0.4688,0.10352 -0.1451,0.0792 -0.2814,0.17082 -0.4278,0.24804 -0.8221,0.43084 -1.6615,0.80392 -2.5136,1.12305 -0.8627,0.30789 -1.3389,0.44226 -1.7247,0.49023 l -3.5468,0.22461 c -0,2e-4 -0.01,0.002 -0.012,0.002 -1.8487,0.0987 -3.9986,0.99697 -5.4433,2.53711 -1.4497,1.5409 -2.1992,3.71015 -2.1992,5.53515 v 6.2168 c -0.023,1.92163 0.7752,4.0978 2.1992,5.61133 1.4159,1.5099 3.5227,2.44292 5.4453,2.54492 l -0.068,-0.004 0.078,0.006 3.5468,0.22656 c 0.3917,0.0486 0.8674,0.18236 1.7247,0.48829 0.8562,0.32065 1.6994,0.69549 2.5253,1.1289 0.1425,0.0752 0.2748,0.16512 0.4161,0.24219 -0.1618,0.0305 -0.3202,0.0774 -0.4825,0.10547 -0.9088,0.15466 -1.8184,0.24856 -2.7304,0.28906 -0.9037,0.026 -1.4086,0.004 -1.8028,-0.0723 l -3.4414,-0.88085 c -1.8301,-0.49173 -4.1492,-0.27062 -5.9707,0.73242 -1.8313,1.00478 -3.2462,2.80587 -3.8242,4.65429 -6e-4,0.002 -0,0.004 -0,0.006 l -1.8965,5.84375 c -0.5935,1.75677 -0.5528,4.09281 0.3476,6.00586 0.8998,1.9186 2.6367,3.43008 4.4102,4.10938 l 3.291,1.30664 c 0.3548,0.16536 0.7742,0.44452 1.5019,1.00583 0.7246,0.5769 1.413,1.1943 2.0547,1.8516 0.1117,0.115 0.2085,0.2411 0.3184,0.3574 -0.1606,-0.021 -0.322,-0.026 -0.4824,-0.049 l -0.014,-0 c -0.9127,-0.1338 -1.8124,-0.3251 -2.6973,-0.5703 -0.8681,-0.255 -1.3409,-0.4333 -1.6836,-0.623 l -2.998,-1.89065 c -1.5248,-0.99309 -3.8129,-1.55805 -5.9082,-1.15625 -2.0457,0.38993 -3.9681,1.69066 -5.0703,3.2461 l -3.6192,4.9766 c 0,0 0,0 0,0 -1.1475,1.5426 -1.7697,3.8073 -1.5136,5.8203 0.2615,2.0814 1.4354,4.0628 2.9199,5.2637 0,0 0,0 0,0 l 2.7286,2.2598 c 0.2765,0.2582 0.594,0.6585 1.1074,1.4082 0.5098,0.7699 0.9699,1.5672 1.3828,2.4024 0.071,0.1437 0.1248,0.2948 0.1934,0.4394 -0.1441,-0.068 -0.2943,-0.1211 -0.4375,-0.1914 l -0.01,-0 c -0,-9e-4 -0,-0 -0.01,-0 -0.8415,-0.4164 -1.6396,-0.8733 -2.3925,-1.3711 -0.7578,-0.5179 -1.1538,-0.8352 -1.4122,-1.1113 l -2.2656,-2.7285 c -1.1641,-1.44 -3.1699,-2.6595 -5.2617,-2.9219 -2.0367,-0.2583 -4.2667,0.3547 -5.8281,1.5176 l -4.9688,3.6133 c -1.5603,1.1053 -2.8576,3.0294 -3.2461,5.0723 -0.3865,2.0184 0.1179,4.3217 1.1465,5.9023 l 1.9043,3.0039 c 0.1777,0.3217 0.3496,0.7908 0.6113,1.6816 0.2524,0.9103 0.449,1.8172 0.5801,2.7149 0.023,0.1605 0.028,0.3218 0.049,0.4824 -0.1205,-0.1136 -0.2521,-0.2146 -0.371,-0.3301 l -0,-0.01 c -0,-0 -0,-0 -0.01,-0 -0.6546,-0.6396 -1.2646,-1.3221 -1.8399,-2.045 -0.5569,-0.7223 -0.8341,-1.1387 -0.996,-1.4843 l -1.3106,-3.3047 -0,-0 c -0.6916,-1.8033 -2.2537,-3.5305 -4.1133,-4.4004 -1.8522,-0.87 -4.1577,-0.9783 -6.002,-0.3554 l -5.8457,1.9062 c -1.7749,0.5527 -3.643,1.9631 -4.6601,3.8164 -0.9984,1.8135 -1.2248,4.1401 -0.7325,5.9707 l 0.8828,3.4473 c 0.075,0.3876 0.096,0.8901 0.07,1.793 -0.041,0.9149 -0.1351,1.829 -0.2911,2.7422 -0.028,0.1621 -0.075,0.3207 -0.1054,0.4824 -0.078,-0.1432 -0.1698,-0.2774 -0.2461,-0.4219 -0.4357,-0.8302 -0.812,-1.6738 -1.1328,-2.5312 -0.3025,-0.8479 -0.4381,-1.3387 -0.4864,-1.7266 l -0.2265,-3.5567 c -0.1,-1.8645 -1.0054,-4.0038 -2.541,-5.4433 -1.5718,-1.4766 -3.7808,-2.1895 -5.5332,-2.1895 h -6.2188 c -1.849,-0.022 -4.0644,0.7375 -5.6094,2.1895 -1.5353,1.4392 -2.4413,3.5787 -2.541,5.4453 -2e-4,0 -0,0.01 -0,0.012 l -0.2227,3.541 c -0.045,0.3646 -0.1854,0.858 -0.4961,1.7286 -0.3293,0.8805 -0.701,1.7234 -1.125,2.5312 -0.077,0.145 -0.1676,0.2802 -0.2461,0.4238 -0.031,-0.1628 -0.077,-0.3209 -0.1054,-0.4843 -6e-4,-0 5e-4,-0.01 0,-0.01 -3e-4,-0 -0,-0 -0,-0 -0.1547,-0.9095 -0.2486,-1.8191 -0.2891,-2.7305 -0.027,-0.9261 -0.01,-1.4299 0.064,-1.7988 l 0.8809,-3.4395 c 0.4917,-1.8284 0.2656,-4.1608 -0.7383,-5.9785 -0.9987,-1.8131 -2.8607,-3.2519 -4.6485,-3.8086 l -5.8418,-1.9062 -0.01,-0 c -1.8387,-0.6197 -4.1537,-0.5095 -5.998,0.3574 -1.859,0.8702 -3.42,2.5976 -4.1114,4.4004 0,0 -0,0 -0,0 l -1.3106,3.3047 c -0.1618,0.3454 -0.4378,0.7629 -0.9941,1.4843 -0.5668,0.7121 -1.1856,1.3972 -1.8594,2.0547 -0.1169,0.1135 -0.2449,0.2126 -0.3632,0.3243 0.02,-0.1586 0.024,-0.3181 0.047,-0.4766 l 0,-0.01 c 3e-4,-0 -4e-4,-0.01 0,-0.01 0.1348,-0.9198 0.3257,-1.8232 0.5703,-2.7051 0.2545,-0.8656 0.4313,-1.3358 0.6191,-1.6757 l 1.9043,-3.0039 c 1.0212,-1.5685 1.5391,-3.8737 1.1485,-5.9082 -0.39,-2.0433 -1.6887,-3.9652 -3.2461,-5.0684 l -4.9727,-3.6172 -0.01,-0 c -1.5721,-1.1663 -3.7865,-1.7695 -5.8243,-1.5098 -2.0834,0.2619 -4.0724,1.4478 -5.2636,2.9219 l -2.2657,2.7285 c -0.273,0.2924 -0.661,0.602 -1.4062,1.1113 -0.7565,0.5 -1.5572,0.9593 -2.4024,1.377 -0.1471,0.072 -0.3012,0.1272 -0.4492,0.1973 0.069,-0.1456 0.1225,-0.2989 0.1934,-0.4434 l 0,-0.01 c 0,-0 0,-0.01 0,-0.01 0.3994,-0.8053 0.8633,-1.5992 1.3848,-2.3867 0.5153,-0.7533 0.8316,-1.1509 1.1093,-1.4102 l 2.7286,-2.2598 0,-0 c 1.485,-1.201 2.6587,-3.1833 2.9199,-5.2656 0.2655,-2.0913 -0.422,-4.3417 -1.5273,-5.8243 l 0.051,0.066 -3.6973,-5.0977 0.045,0.064 c -1.1092,-1.56887 -3.0321,-2.86294 -5.0742,-3.2519 -2.1067,-0.40458 -4.3564,0.14293 -5.9101,1.15234 l -3.004,1.90036 c -0.3386,0.1867 -0.8115,0.3628 -1.6777,0.6172 -0.8895,0.2464 -1.7912,0.4385 -2.707,0.5723 -0,2e-4 -0,-2e-4 -0,0 -0.1596,0.023 -0.3207,0.028 -0.4805,0.049 0.1099,-0.1163 0.2067,-0.2425 0.3184,-0.3574 l 0.01,-0.01 c 0,-0 0,-0 0,-0 0.6515,-0.6665 1.3295,-1.2801 2.0371,-1.8437 0.7292,-0.56249 1.1448,-0.838 1.4961,-1.00198 l 3.3047,-1.30859 0,-0.002 c 1.8062,-0.6928 3.5287,-2.25847 4.3965,-4.10742 0.867,-1.84094 0.9835,-4.15475 0.3593,-6.0039 l 0.023,0.0703 -0.025,-0.082 -1.8946,-5.83203 c -0.577,-1.8526 -1.991,-3.65433 -3.8222,-4.66016 -1.8214,-1.00463 -4.1459,-1.22534 -5.9746,-0.73437 l -3.4414,0.88085 c -0.3959,0.0765 -0.9002,0.0983 -1.8028,0.0723 -0.9168,-0.0406 -1.8315,-0.13509 -2.7441,-0.29102 -0.1576,-0.0273 -0.3116,-0.0739 -0.4688,-0.10351 0.1446,-0.0789 0.28,-0.17111 0.4258,-0.24805 0.8234,-0.43122 1.663,-0.80568 2.5156,-1.125 0.8532,-0.30412 1.3355,-0.43774 1.7266,-0.48633 l 3.5469,-0.22656 0.012,-0.002 c 1.9252,-0.1028 4.0305,-1.0355 5.4473,-2.54883 1.469,-1.56546 2.1855,-3.77806 2.1855,-5.5293 v -6.22461 c 0.02,-1.83986 -0.7259,-4.04645 -2.1855,-5.60156 -1.4461,-1.5442 -3.5956,-2.44209 -5.4473,-2.54101 l -3.5586,-0.22657 c -0.3852,-0.0479 -0.8679,-0.1822 -1.7266,-0.48828 -0.8526,-0.31932 -1.6922,-0.69377 -2.5156,-1.125 -0.1463,-0.0772 -0.2827,-0.1689 -0.4277,-0.24804 0.1582,-0.0297 0.3118,-0.076 0.4707,-0.10352 0,-7.9e-4 0.01,-0.001 0.014,-0.002 0.9015,-0.15345 1.8116,-0.24646 2.7304,-0.28711 0.9293,-0.0269 1.4341,-0.008 1.8067,0.0644 l 3.4375,0.87891 c 1.8291,0.49106 4.1535,0.26987 5.9746,-0.73438 1.7706,-0.97298 3.2371,-2.77143 3.8222,-4.65039 l 1.8946,-5.83203 0,-0.0137 c 0.6329,-1.8766 0.5218,-4.14189 -0.3594,-6.01172 -0.8797,-1.87409 -2.6578,-3.43393 -4.4004,-4.10156 l -3.3066,-1.3086 c -0.3461,-0.16182 -0.7622,-0.43732 -1.4942,-1.00195 -0.7105,-0.5658 -1.3894,-1.17923 -2.0371,-1.8418 l -0,-0.004 c -0,-0.002 -0,-0.004 -0.01,-0.006 -0.1137,-0.11699 -0.2124,-0.24671 -0.3243,-0.36524 0.1664,0.0214 0.334,0.0269 0.5,0.0508 0.8876,0.13015 1.7849,0.32531 2.6973,0.57813 0.8978,0.26363 1.3691,0.43841 1.6856,0.61328 l 2.9961,1.9043 c 0,0 0,0.002 0,0.002 1.6181,1.05038 3.8784,1.53133 5.9102,1.14063 2.0291,-0.38701 3.9586,-1.67452 5.0722,-3.25 l 3.6035,-4.9629 c 1.1332,-1.52103 1.7932,-3.73722 1.5254,-5.83398 -0.2637,-2.08967 -1.4915,-4.09792 -2.9218,-5.25391 l -2.7286,-2.26953 c -0.2909,-0.27132 -0.6014,-0.66179 -1.1093,-1.40429 -0.5141,-0.77664 -0.9794,-1.57504 -1.3848,-2.39258 l -0,-0.01 c -10e-4,-0.002 -0,-0.004 -0,-0.006 -0.071,-0.14428 -0.1247,-0.29619 -0.1934,-0.4414 0.1521,0.072 0.3097,0.12879 0.461,0.20312 0.8203,0.40606 1.6185,0.86851 2.3906,1.37891 0.7657,0.52325 1.1474,0.82463 1.4062,1.10156 l 2.3145,2.79883 c 2.7354,3.30037 7.5304,3.89358 10.9922,1.3789 l 5.0859,-3.70312 c 3.471,-2.52133 4.3818,-7.23354 2.0781,-10.86914 l -1.9472,-3.06836 c -0.1874,-0.33981 -0.3634,-0.80837 -0.6172,-1.67188 -0.2454,-0.88473 -0.4363,-1.78492 -0.5703,-2.69921 v -0.008 c -3e-4,-0.002 -0,-0.004 -0,-0.006 -0.023,-0.16117 -0.028,-0.32313 -0.049,-0.48437 0.119,0.11231 0.2477,0.21201 0.3652,0.32617 0.6578,0.64186 1.2765,1.33251 1.8575,2.0625 0.5555,0.7204 0.832,1.13535 0.9941,1.48047 l 1.3125,3.30664 c 0.688,1.79623 2.2385,3.52355 4.1055,4.40039 1.9109,0.90067 4.2514,0.94476 6.0117,0.34961 l -0.074,0.0254 5.9902,-1.94336 -0.072,0.0215 c 1.7872,-0.55668 3.6518,-1.99481 4.6504,-3.8086 1.0056,-1.82125 1.2303,-4.14351 0.7364,-5.98047 l -0.8829,-3.44922 c -0.07,-0.3663 -0.089,-0.87043 -0.062,-1.79687 0.04,-0.91071 0.1343,-1.82071 0.2891,-2.73047 2e-4,-0.001 0,-0.003 0,-0.004 5e-4,-0.003 -6e-4,-0.007 0,-0.01 0.028,-0.16017 0.073,-0.31508 0.1035,-0.47461 z m -0.1856,14.44531 c -0.01,0.0125 -0.011,0.0267 -0.018,0.0391 l 0.049,-0.0859 c -0.01,0.0164 -0.022,0.0305 -0.031,0.0469 z m -16.5058,5.35547 c -0.014,-0.006 -0.029,-0.009 -0.043,-0.0156 l 0.09,0.043 c -0.016,-0.008 -0.031,-0.0197 -0.047,-0.0273 z m -21.8321,15.84961 c 0,0.0185 0.01,0.0362 0.012,0.0547 l -0.014,-0.0937 c 0,0.0129 3e-4,0.0261 0,0.0391 z m -10.2011,14.04688 c -0.017,0.003 -0.034,0.0124 -0.051,0.0156 l 0.1,-0.0195 c -0.016,0.003 -0.033,8.3e-4 -0.049,0.004 z m -2.2188,4.33984 c 0.01,0.0128 0.016,0.0242 0.022,0.0371 l -0.039,-0.084 c 0.01,0.015 0.01,0.0318 0.018,0.0469 z m -5.3613,16.50781 c -0.015,0.008 -0.028,0.0212 -0.043,0.0293 l 0.088,-0.0488 c -0.014,0.008 -0.031,0.0117 -0.045,0.0195 z m -0.7578,4.8125 c 0.011,0.0115 0.025,0.0197 0.035,0.0312 l -0.068,-0.0742 c 0.013,0.0131 0.021,0.0297 0.033,0.043 z m 0,17.35547 c -0.012,0.0133 -0.021,0.0298 -0.033,0.043 l 0.068,-0.0742 c -0.011,0.0115 -0.024,0.0198 -0.035,0.0312 z m 0.7578,4.8125 c 0.014,0.008 0.031,0.0116 0.045,0.0195 l -0.088,-0.0488 c 0.015,0.008 0.028,0.0209 0.043,0.0293 z m 5.3594,16.50781 c -0.01,0.0148 -0.01,0.0322 -0.016,0.0469 l 0.039,-0.084 c -0.01,0.0131 -0.017,0.024 -0.023,0.0371 z m 2.2187,4.33985 c 0.016,0.003 0.033,6.9e-4 0.049,0.004 l -0.094,-0.0176 c 0.015,0.003 0.03,0.0108 0.045,0.0137 z m 10.2031,14.043 c -0,0.016 2e-4,0.033 -0,0.049 l 0.014,-0.1035 c -0,0.019 -0.01,0.036 -0.012,0.055 z m 3.4414,3.4472 c 0.018,-0 0.036,-0.01 0.055,-0.012 l -0.096,0.014 c 0.013,-0 0.027,-2e-4 0.041,-0 z m 14.0489,10.1993 c 0,0.017 0.012,0.033 0.016,0.051 l -0.019,-0.1015 c 0,0.017 7e-4,0.034 0,0.051 z m 4.3496,2.2128 c 0.014,-0.01 0.027,-0.017 0.041,-0.023 l -0.094,0.043 c 0.017,-0.01 0.036,-0.012 0.053,-0.02 z m 16.4961,5.3594 c 0.01,0.017 0.024,0.03 0.033,0.047 l -0.051,-0.09 c 0.01,0.014 0.01,0.029 0.018,0.043 z m 4.8222,0.7637 c 0.013,-0.012 0.022,-0.029 0.035,-0.041 l -0.074,0.07 c 0.012,-0.011 0.027,-0.018 0.039,-0.029 z m 17.3614,0 c 0.012,0.011 0.027,0.018 0.039,0.029 l -0.074,-0.07 c 0.013,0.012 0.022,0.029 0.035,0.041 z m 4.8086,-0.7559 c 0.01,-0.015 0.011,-0.032 0.019,-0.047 l -0.047,0.086 c 0.01,-0.014 0.02,-0.025 0.027,-0.039 z m 16.5078,-5.3672 c 0.017,0.01 0.037,0.011 0.055,0.02 l -0.094,-0.043 c 0.014,0.01 0.025,0.017 0.039,0.023 z m 4.3515,-2.2089 c 0,-0.017 5e-4,-0.036 0,-0.053 l -0.017,0.096 c 0,-0.015 0.011,-0.028 0.014,-0.043 z m 14.043,-10.2032 c 0.017,0 0.034,-2e-4 0.051,0 l -0.1035,-0.014 c 0.018,0 0.035,0.01 0.053,0.012 z m 3.4473,-3.4453 c -0,-0.019 -0.01,-0.036 -0.012,-0.055 l 0.014,0.096 c -0,-0.013 -2e-4,-0.028 -0,-0.041 z m 10.2031,-14.0449 c 0.017,-0.003 0.033,-0.0125 0.051,-0.0156 l -0.1035,0.0195 c 0.017,-0.003 0.035,-5.8e-4 0.053,-0.004 z m 2.207,-4.33985 c -0.01,-0.0151 -0.018,-0.0278 -0.025,-0.043 l 0.043,0.0918 c -0.01,-0.0156 -0.01,-0.0332 -0.018,-0.0488 z m 5.375,-16.50976 c 0.014,-0.008 0.027,-0.0195 0.041,-0.0274 l -0.09,0.0488 c 0.015,-0.009 0.033,-0.0129 0.049,-0.0215 z m 0.7598,-4.80664 c -0.012,-0.0131 -0.029,-0.022 -0.041,-0.0352 l 0.07,0.0742 c -0.011,-0.0117 -0.018,-0.0272 -0.029,-0.0391 z m 0,-17.36328 c 0.011,-0.0119 0.018,-0.0272 0.029,-0.0391 l -0.07,0.0742 c 0.012,-0.0132 0.029,-0.022 0.041,-0.0352 z m -0.7598,-4.80665 c -0.016,-0.009 -0.033,-0.0128 -0.049,-0.0215 l 0.09,0.0488 c -0.014,-0.008 -0.027,-0.0195 -0.041,-0.0273 z m -5.373,-16.51171 c 0.01,-0.0163 0.01,-0.0345 0.018,-0.0508 l -0.045,0.0957 c 0.01,-0.016 0.02,-0.029 0.027,-0.0449 z m -2.209,-4.33789 c -0.016,-0.003 -0.034,-6.2e-4 -0.051,-0.004 l 0.1016,0.0195 c -0.017,-0.003 -0.034,-0.0123 -0.051,-0.0156 z M 1611.9473,915.5 c 0,-0.0167 -3e-4,-0.0341 0,-0.0508 l -0.014,0.10351 c 0,-0.0178 0.01,-0.0349 0.012,-0.0527 z m -3.4434,-3.44141 c -0.018,0.002 -0.036,0.01 -0.055,0.0117 l 0.1,-0.0137 c -0.015,0.002 -0.03,6e-5 -0.045,0.002 z m -14.0488,-10.20312 c -0,-0.0165 -0.011,-0.0323 -0.014,-0.0488 l 0.02,0.10352 c -0,-0.0179 -0,-0.0368 -0.01,-0.0547 z m -4.3399,-2.21094 c -0.016,0.008 -0.03,0.0198 -0.047,0.0273 l 0.09,-0.043 c -0.014,0.007 -0.029,0.009 -0.043,0.0156 z m -16.5117,-5.35547 c -0.01,-0.0168 -0.024,-0.03 -0.033,-0.0469 l 0.051,0.0898 c -0.01,-0.0134 -0.01,-0.0295 -0.018,-0.043 z m -4.8144,-0.77344 c -0.013,0.0123 -0.022,0.0289 -0.035,0.041 l 0.074,-0.0703 c -0.012,0.0112 -0.027,0.0182 -0.039,0.0293 z m -17.3614,0 c -0.012,-0.0111 -0.027,-0.0181 -0.039,-0.0293 l 0.074,0.0703 c -0.013,-0.0122 -0.022,-0.0287 -0.035,-0.041 z"
           style="fill:url(#linearGradient789);fill-rule:evenodd;stroke:#729fcf;stroke-width:6.37896;stroke-linecap:round;stroke-linejoin:round;stroke-dasharray:none;stroke-opacity:1"
           id="path788"
           transform="matrix(0,0.99953079,-1.0004694,0,2553.1967,-624.23969)" />
        <ellipse
           style="fill:#0b1523;fill-opacity:1;fill-rule:nonzero;stroke:#729fcf;stroke-width:6.37896;stroke-linecap:round;stroke-linejoin:round;stroke-dasharray:none;stroke-opacity:1;paint-order:markers fill stroke"
           id="path787"
           cx="935.13226"
           cy="-1588.8645"
           rx="13.706653"
           ry="13.713087"
           transform="rotate(90)" />
        <path
           d="m 1672.8418,849.56836 h 31.4941 v 228.62304 h -31.498 c -0.925,-1.2712 -2.2152,-2.2801 -3.7676,-2.8457 l -11.5,-4.1836 11.5039,-4.1894 c 3.2116,-1.1705 5.3164,-4.192 5.3164,-7.5977 v -3.2461 c 0,-3.3723 -2.0976,-6.4309 -5.3203,-7.6055 l -11.5019,-4.1836 11.5019,-4.1894 c 3.2141,-1.169 5.3203,-4.1939 5.3203,-7.5977 v -3.2461 c 0,-3.4038 -2.105,-6.4291 -5.3164,-7.5976 l -11.5058,-4.1895 11.5039,-4.1836 c 3.2242,-1.1731 5.3183,-4.2203 5.3183,-7.6035 v -3.248 c 0,-3.40383 -2.116,-6.43123 -5.3164,-7.59573 l -11.5039,-4.18945 11.502,-4.1836 c 3.2125,-1.16903 5.3183,-4.19387 5.3183,-7.59765 v -3.25586 c 0,-3.4038 -2.117,-6.43 -5.3203,-7.5957 l -11.5098,-4.1875 11.5118,-4.18555 c 3.2124,-1.16904 5.3183,-4.19388 5.3183,-7.59766 v -3.2539 c 0,-3.40381 -2.1066,-6.42818 -5.3203,-7.59766 l -11.5019,-4.18359 11.5039,-4.18946 c 3.2136,-1.16903 5.3183,-4.19385 5.3183,-7.59765 v -3.2461 c 0,-3.37281 -2.0949,-6.43171 -5.3203,-7.60547 l -11.5019,-4.18359 11.5039,-4.18945 c 3.2021,-1.16528 5.3183,-4.1919 5.3183,-7.59571 v -3.24804 c 0,-3.40381 -2.1157,-6.43139 -5.3164,-7.59571 l -11.5039,-4.18945 11.5039,-4.18359 c 3.2191,-1.1731 5.3164,-4.23312 5.3164,-7.60547 v -3.24805 c 0,-3.40567 -2.1135,-6.42852 -5.3164,-7.5957 l -11.5058,-4.18945 11.5058,-4.1836 c 1.5546,-0.56652 2.8442,-1.57532 3.7676,-2.8457 z"
           style="fill:url(#linearGradient791);fill-rule:evenodd;stroke:#fce94f;stroke-width:6.37896;stroke-linecap:round;stroke-linejoin:round;stroke-dasharray:none;stroke-opacity:1"
           id="path789"
           transform="matrix(0,0.99953079,-1.0004694,0,2553.1967,-624.23969)" />
      </g>
    </g>
  </g>
  <g
     id="g12"
     transform="matrix(-0.70000239,0,0,-0.70000239,61.856977,73.337443)"
     style="display:inline">
    <path
       id="path11"
       d="M 15,27 V 19 L 0.87149136,31.999999 15,45 v -8 h 14.714369 c 0,2.2e-5 0,0 0,0 V 27 Z"
       style="fill:#cc0000;stroke:#280000;stroke-width:2;stroke-linecap:butt;stroke-linejoin:round;stroke-opacity:1" />
    <path
       id="path12"
       d="m 13.066964,29 0.02232,-5.529467 -9.1754064,8.529466 9.2200494,8.574111 V 35.089285 L 27.762035,35 v -6 0 z"
       style="fill:none;stroke:#ef2929;stroke-width:2;stroke-linecap:butt;stroke-linejoin:miter;stroke-opacity:1" />
  </g>
  <g
     id="g2"
     transform="matrix(0.4293469,0.38597145,-0.38611447,0.42935617,48.945425,-5.0118134)"
     style="display:inline;stroke-width:1.14374">
    <path
       style="fill:#cc0000;stroke:#280000;stroke-width:2.2875;stroke-linecap:butt;stroke-linejoin:round;stroke-opacity:1"
       d="m 22,23 v 8 L 11,18 22,5 v 8 c 13.990861,0.89236 21.709688,5.800761 29.050356,20.088298 L 42.152059,39.09018 C 39.06111,31.270541 32,23 22,23 Z"
       id="path3892" />
    <path
       style="fill:none;stroke:#ef2929;stroke-width:2.2875;stroke-linecap:butt;stroke-linejoin:miter;stroke-opacity:1"
       d="M 20,10.5 13.6,18 20,25.5 V 21 c 9,-1 17.528195,4.302646 23.08961,15.156457 l 5.317803,-3.78926 C 43.035465,23.02279 36.505774,14.797281 20,15 Z"
       id="path3918" />
  </g>
</svg>
