<?xml version="1.0" encoding="UTF-8" standalone="no"?>
<!-- Created with Inkscape (http://www.inkscape.org/) -->
<svg xmlns:dc="http://purl.org/dc/elements/1.1/" xmlns:cc="http://creativecommons.org/ns#" xmlns:rdf="http://www.w3.org/1999/02/22-rdf-syntax-ns#" xmlns:svg="http://www.w3.org/2000/svg" xmlns="http://www.w3.org/2000/svg" xmlns:xlink="http://www.w3.org/1999/xlink" xmlns:sodipodi="http://sodipodi.sourceforge.net/DTD/sodipodi-0.dtd" xmlns:inkscape="http://www.inkscape.org/namespaces/inkscape" width="64px" height="64px" id="svg2985" version="1.1" inkscape:version="0.48.5 r10040" sodipodi:docname="Ship_Weight.svg">
  <defs id="defs2987">
    <linearGradient inkscape:collect="always" id="linearGradient3926">
      <stop style="stop-color:#888a85;stop-opacity:1" offset="0" id="stop3928"/>
      <stop style="stop-color:#d3d7cf;stop-opacity:1" offset="1" id="stop3930"/>
    </linearGradient>
    <linearGradient inkscape:collect="always" id="linearGradient3897">
      <stop style="stop-color:#888a85;stop-opacity:1" offset="0" id="stop3899"/>
      <stop style="stop-color:#d3d7cf;stop-opacity:1" offset="1" id="stop3901"/>
    </linearGradient>
    <linearGradient id="linearGradient3968">
      <stop id="stop3970" offset="0" style="stop-color:#000000;stop-opacity:1;"/>
      <stop style="stop-color:#828282;stop-opacity:1;" offset="0.54039383" id="stop3976"/>
      <stop style="stop-color:#606060;stop-opacity:1;" offset="0.77134961" id="stop3974"/>
      <stop id="stop3972" offset="1" style="stop-color:#000000;stop-opacity:1;"/>
    </linearGradient>
    <linearGradient id="linearGradient3911">
      <stop style="stop-color:#000000;stop-opacity:1;" offset="0" id="stop3913"/>
      <stop style="stop-color:#000000;stop-opacity:0;" offset="1" id="stop3915"/>
    </linearGradient>
    <linearGradient inkscape:collect="always" id="linearGradient3903">
      <stop style="stop-color:#000000;stop-opacity:1;" offset="0" id="stop3905"/>
      <stop style="stop-color:#000000;stop-opacity:0;" offset="1" id="stop3907"/>
    </linearGradient>
    <linearGradient id="linearGradient4722">
      <stop style="stop-color:#ffffff;stop-opacity:1;" offset="0" id="stop4724"/>
      <stop style="stop-color:#bebebe;stop-opacity:1;" offset="1" id="stop4726"/>
    </linearGradient>
    <marker inkscape:stockid="Arrow1Mend" orient="auto" refY="0.0" refX="0.0" id="Arrow1Mend" style="overflow:visible;">
      <path id="path3873" d="M 0.0,0.0 L 5.0,-5.0 L -12.5,0.0 L 5.0,5.0 L 0.0,0.0 z " style="fill-rule:evenodd;stroke:#000000;stroke-width:1.0pt;" transform="scale(0.4) rotate(180) translate(10,0)"/>
    </marker>
    <marker inkscape:stockid="Arrow1Lend" orient="auto" refY="0.0" refX="0.0" id="Arrow1Lend" style="overflow:visible;">
      <path id="path3867" d="M 0.0,0.0 L 5.0,-5.0 L -12.5,0.0 L 5.0,5.0 L 0.0,0.0 z " style="fill-rule:evenodd;stroke:#000000;stroke-width:1.0pt;" transform="scale(0.8) rotate(180) translate(12.5,0)"/>
    </marker>
    <linearGradient id="linearGradient3937">
      <stop style="stop-color:#be7328;stop-opacity:1;" offset="0" id="stop3939"/>
      <stop style="stop-color:#dc962d;stop-opacity:1;" offset="1" id="stop3941"/>
    </linearGradient>
    <linearGradient id="linearGradient3929">
      <stop id="stop3931" offset="0" style="stop-color:#c88c3c;stop-opacity:1;"/>
      <stop id="stop3933" offset="1" style="stop-color:#ffff96;stop-opacity:1;"/>
    </linearGradient>
    <linearGradient id="linearGradient3893">
      <stop style="stop-color:#505050;stop-opacity:1;" offset="0" id="stop3895"/>
      <stop style="stop-color:#aaaaaa;stop-opacity:1;" offset="1" id="stop3897"/>
    </linearGradient>
    <linearGradient id="linearGradient3873">
      <stop style="stop-color:#f0be6e;stop-opacity:1;" offset="0" id="stop3875"/>
      <stop style="stop-color:#c88228;stop-opacity:1;" offset="1" id="stop3877"/>
    </linearGradient>
    <linearGradient id="linearGradient3863">
      <stop id="stop3865" offset="0" style="stop-color:#6e4b18;stop-opacity:1;"/>
      <stop id="stop3867" offset="1" style="stop-color:#c88228;stop-opacity:1;"/>
    </linearGradient>
    <linearGradient id="linearGradient3979">
      <stop id="stop3981" offset="0" style="stop-color:#ffffff;stop-opacity:1;"/>
      <stop id="stop3983" offset="1" style="stop-color:#ff9600;stop-opacity:1;"/>
    </linearGradient>
    <linearGradient id="linearGradient3971">
      <stop id="stop3973" offset="0" style="stop-color:#ffffff;stop-opacity:1;"/>
      <stop id="stop3975" offset="1" style="stop-color:#be7300;stop-opacity:1;"/>
    </linearGradient>
    <marker inkscape:stockid="Arrow1Send" orient="auto" refY="0.0" refX="0.0" id="Arrow1Send" style="overflow:visible;">
      <path id="path4031" d="M 0.0,0.0 L 5.0,-5.0 L -12.5,0.0 L 5.0,5.0 L 0.0,0.0 z " style="fill-rule:evenodd;stroke:#000000;stroke-width:1.0pt;" transform="scale(0.2) rotate(180) translate(6,0)"/>
    </marker>
    <marker inkscape:stockid="Arrow2Send" orient="auto" refY="0.0" refX="0.0" id="Arrow2Send" style="overflow:visible;">
      <path id="path4049" style="fill-rule:evenodd;stroke-width:0.62500000;stroke-linejoin:round;" d="M 8.7185878,4.0337352 L -2.2072895,0.016013256 L 8.7185884,-4.0017078 C 6.9730900,-1.6296469 6.9831476,1.6157441 8.7185878,4.0337352 z " transform="scale(0.3) rotate(180) translate(-2.3,0)"/>
    </marker>
    <marker inkscape:stockid="Arrow2Sstart" orient="auto" refY="0.0" refX="0.0" id="Arrow2Sstart" style="overflow:visible">
      <path id="path4046" style="fill-rule:evenodd;stroke-width:0.62500000;stroke-linejoin:round" d="M 8.7185878,4.0337352 L -2.2072895,0.016013256 L 8.7185884,-4.0017078 C 6.9730900,-1.6296469 6.9831476,1.6157441 8.7185878,4.0337352 z " transform="scale(0.3) translate(-2.3,0)"/>
    </marker>
    <marker inkscape:stockid="Arrow2Mstart" orient="auto" refY="0.0" refX="0.0" id="Arrow2Mstart" style="overflow:visible">
      <path id="path4040" style="fill-rule:evenodd;stroke-width:0.62500000;stroke-linejoin:round" d="M 8.7185878,4.0337352 L -2.2072895,0.016013256 L 8.7185884,-4.0017078 C 6.9730900,-1.6296469 6.9831476,1.6157441 8.7185878,4.0337352 z " transform="scale(0.6) translate(0,0)"/>
    </marker>
    <linearGradient id="linearGradient3900">
      <stop style="stop-color:#ffffff;stop-opacity:1;" offset="0" id="stop3902"/>
      <stop style="stop-color:#a0a0a0;stop-opacity:1;" offset="1" id="stop3904"/>
    </linearGradient>
    <linearGradient id="linearGradient3882">
      <stop style="stop-color:#ffffff;stop-opacity:1;" offset="0" id="stop3884"/>
      <stop style="stop-color:#960000;stop-opacity:1;" offset="1" id="stop3886"/>
    </linearGradient>
    <linearGradient id="linearGradient3860">
      <stop style="stop-color:#1e76e3;stop-opacity:1;" offset="0" id="stop3862"/>
      <stop style="stop-color:#ffffff;stop-opacity:1;" offset="1" id="stop3864"/>
    </linearGradient>
    <linearGradient inkscape:collect="always" xlink:href="#linearGradient3860-6" id="linearGradient3866-5" x1="31.125395" y1="61.410763" x2="30.113636" y2="12.160761" gradientUnits="userSpaceOnUse"/>
    <linearGradient id="linearGradient3860-6">
      <stop style="stop-color:#5a9ff5;stop-opacity:1;" offset="0" id="stop3862-4"/>
      <stop style="stop-color:#ffffff;stop-opacity:1;" offset="1" id="stop3864-4"/>
    </linearGradient>
    <linearGradient inkscape:collect="always" xlink:href="#linearGradient3873" id="linearGradient3871" gradientUnits="userSpaceOnUse" x1="38.907837" y1="51.470051" x2="45.302406" y2="54.091148"/>
    <linearGradient inkscape:collect="always" xlink:href="#linearGradient3863" id="linearGradient3891" gradientUnits="userSpaceOnUse" x1="51.657837" y1="34.470051" x2="45.427406" y2="32.216148"/>
    <linearGradient inkscape:collect="always" xlink:href="#linearGradient3893" id="linearGradient3899" gradientUnits="userSpaceOnUse" x1="51.657837" y1="34.470051" x2="45.427406" y2="32.216148"/>
    <radialGradient inkscape:collect="always" xlink:href="#linearGradient3882" id="radialGradient3903" cx="53.748837" cy="4.9173141" fx="53.748837" fy="4.9173141" r="3.2874005" gradientTransform="matrix(2.3303929,-1.4921636,1.0936999,1.7080907,-77.643882,78.644487)" gradientUnits="userSpaceOnUse"/>
    <radialGradient inkscape:collect="always" xlink:href="#linearGradient3929" id="radialGradient3927" cx="15.125" cy="48.035076" fx="15.125" fy="48.035076" r="18.875" gradientTransform="matrix(2.7636523,-0.71644256,0.733044,2.8276918,-61.887066,-71.992203)" gradientUnits="userSpaceOnUse"/>
    <radialGradient inkscape:collect="always" xlink:href="#linearGradient3937" id="radialGradient3943" gradientUnits="userSpaceOnUse" gradientTransform="matrix(0.40097726,-0.37931652,0.11734116,0.12404187,14.422507,4.6205505)" cx="-14.308363" cy="14.910047" fx="-14.308363" fy="14.910047" r="18.875"/>
    <radialGradient inkscape:collect="always" xlink:href="#linearGradient3929" id="radialGradient3949" gradientUnits="userSpaceOnUse" gradientTransform="matrix(2.7636523,-0.71644256,0.733044,2.8276918,-61.887066,-71.992203)" cx="15.125" cy="48.035076" fx="15.125" fy="48.035076" r="18.875"/>
    <radialGradient inkscape:collect="always" xlink:href="#linearGradient3937" id="radialGradient3951" gradientUnits="userSpaceOnUse" gradientTransform="matrix(0.40097726,-0.37931652,0.11734116,0.12404187,14.422507,4.6205505)" cx="-14.308363" cy="14.910047" fx="-14.308363" fy="14.910047" r="18.875"/>
    <marker inkscape:stockid="Arrow1Mend" orient="auto" refY="0" refX="0" id="Arrow1Mend-3" style="overflow:visible">
      <path inkscape:connector-curvature="0" id="path3873-0" d="M 0,0 5,-5 -12.5,0 5,5 0,0 z" style="fill-rule:evenodd;stroke:#000000;stroke-width:1pt" transform="matrix(-0.4,0,0,-0.4,-4,0)"/>
    </marker>
    <radialGradient inkscape:collect="always" xlink:href="#linearGradient4722" id="radialGradient4730" cx="22.399223" cy="27.920977" fx="22.399223" fy="27.920977" r="25.5625" gradientTransform="matrix(0.61346721,-0.22517965,0.21191717,0.57733561,2.1543769,16.986575)" gradientUnits="userSpaceOnUse"/>
    <linearGradient inkscape:collect="always" xlink:href="#linearGradient3903" id="linearGradient3909" x1="33.267635" y1="23.615986" x2="33.267635" y2="63.06311" gradientUnits="userSpaceOnUse"/>
    <linearGradient inkscape:collect="always" xlink:href="#linearGradient3911" id="linearGradient3917" x1="39.647182" y1="67.479065" x2="39.647182" y2="15.294641" gradientUnits="userSpaceOnUse"/>
    <linearGradient inkscape:collect="always" xlink:href="#linearGradient3911" id="linearGradient3928" gradientUnits="userSpaceOnUse" x1="39.647182" y1="67.479065" x2="39.647182" y2="15.294641"/>
    <linearGradient inkscape:collect="always" xlink:href="#linearGradient3903" id="linearGradient3930" gradientUnits="userSpaceOnUse" x1="33.267635" y1="23.615986" x2="33.267635" y2="63.06311"/>
    <linearGradient inkscape:collect="always" xlink:href="#linearGradient3911" id="linearGradient3935" gradientUnits="userSpaceOnUse" x1="39.647182" y1="67.479065" x2="39.647182" y2="15.294641"/>
    <linearGradient inkscape:collect="always" xlink:href="#linearGradient3903" id="linearGradient3938" gradientUnits="userSpaceOnUse" x1="33.267635" y1="23.615986" x2="33.267635" y2="63.06311"/>
    <radialGradient inkscape:collect="always" xlink:href="#linearGradient3968" id="radialGradient3952" cx="30.228815" cy="20.070992" fx="30.228815" fy="20.070992" r="3.4475341" gradientUnits="userSpaceOnUse" gradientTransform="matrix(1.2238696,-8.502217e-5,8.5302128e-5,1.2278995,-6.7690238,-4.5715991)"/>
    <linearGradient inkscape:collect="always" xlink:href="#linearGradient3897" id="linearGradient3904" x1="34" y1="48" x2="30" y2="26" gradientUnits="userSpaceOnUse"/>
    <linearGradient inkscape:collect="always" xlink:href="#linearGradient3926" id="linearGradient3932" x1="32.000004" y1="25" x2="31.000002" y2="11.000001" gradientUnits="userSpaceOnUse"/>
    <linearGradient inkscape:collect="always" xlink:href="#linearGradient3926" id="linearGradient3939" gradientUnits="userSpaceOnUse" x1="32.000004" y1="25" x2="31.000002" y2="11.000001"/>
  </defs>
  <sodipodi:namedview id="base" pagecolor="#ffffff" bordercolor="#666666" borderopacity="1.0" inkscape:pageopacity="0.0" inkscape:pageshadow="2" inkscape:zoom="22.627417" inkscape:cx="38.119444" inkscape:cy="17.907175" inkscape:current-layer="layer1" showgrid="true" inkscape:document-units="px" inkscape:grid-bbox="true" inkscape:window-width="708" inkscape:window-height="445" inkscape:window-x="2843" inkscape:window-y="280" inkscape:window-maximized="0" inkscape:snap-bbox="false" inkscape:snap-nodes="true">
    <inkscape:grid type="xygrid" id="grid3065" empspacing="2" visible="true" enabled="true" snapvisiblegridlinesonly="true"/>
  </sodipodi:namedview>
  <metadata id="metadata2990">
    <rdf:RDF>
      <cc:Work rdf:about="">
        <dc:format>image/svg+xml</dc:format>
        <dc:type rdf:resource="http://purl.org/dc/dcmitype/StillImage"/>
        <dc:title/>
        <dc:creator>
          <cc:Agent>
            <dc:title>[J.L. Cercos-Pita]</dc:title>
          </cc:Agent>
        </dc:creator>
        <dc:title>Ship_Weight</dc:title>
        <dc:date>2014-12-12</dc:date>
        <dc:relation>http://www.freecadweb.org/wiki/index.php?title=Artwork</dc:relation>
        <dc:publisher>
          <cc:Agent>
            <dc:title>FreeCAD</dc:title>
          </cc:Agent>
        </dc:publisher>
        <dc:identifier>FreeCAD/src/Mod/Ship/resources/icons/Ship_Weight.svg</dc:identifier>
        <dc:rights>
          <cc:Agent>
            <dc:title>FreeCAD LGPL2+</dc:title>
          </cc:Agent>
        </dc:rights>
        <cc:license>https://www.gnu.org/copyleft/lesser.html</cc:license>
        <dc:contributor>
          <cc:Agent>
            <dc:title>[agryson] Alexander Gryson</dc:title>
          </cc:Agent>
        </dc:contributor>
      </cc:Work>
    </rdf:RDF>
  </metadata>
  <g id="layer1" inkscape:label="Layer 1" inkscape:groupmode="layer">
    <g id="g3934">
      <path transform="translate(0.99999749,-2.0000012)" d="m 38,18 c 0,3.313708 -2.686292,6 -6,6 -3.313708,0 -6,-2.686292 -6,-6 0,-3.313708 2.686292,-6 6,-6 3.313708,0 6,2.686292 6,6 z" sodipodi:ry="6" sodipodi:rx="6" sodipodi:cy="18" sodipodi:cx="32" id="path3906" style="fill:none;stroke:#2e3436;stroke-width:5.99999857;stroke-linecap:round;stroke-linejoin:miter;stroke-miterlimit:4;stroke-opacity:1;stroke-dasharray:none;stroke-dashoffset:2.04" sodipodi:type="arc"/>
      <path transform="translate(0.99999728,-2.0000007)" d="m 38,18 c 0,3.313708 -2.686292,6 -6,6 -3.313708,0 -6,-2.686292 -6,-6 0,-3.313708 2.686292,-6 6,-6 3.313708,0 6,2.686292 6,6 z" sodipodi:ry="6" sodipodi:rx="6" sodipodi:cy="18" sodipodi:cx="32" id="path3906-7" style="fill:none;stroke:url(#linearGradient3939);stroke-width:2;stroke-linecap:round;stroke-linejoin:miter;stroke-miterlimit:4;stroke-opacity:1;stroke-dasharray:none;stroke-dashoffset:2.04" sodipodi:type="arc"/>
    </g>
    <path style="fill:url(#linearGradient3904);fill-opacity:1;stroke:#2e3436;stroke-width:2;stroke-linecap:butt;stroke-linejoin:round;stroke-opacity:1" d="M 17,23 5,51 61,51 49,23 z" id="path3067" inkscape:connector-curvature="0" sodipodi:nodetypes="ccccc"/>
    <path style="fill:none;stroke:#d3d7cf;stroke-width:2;stroke-linecap:butt;stroke-linejoin:miter;stroke-opacity:1" d="M 18,25 8,49 58,49 48,25 z" id="path3067-1" inkscape:connector-curvature="0" sodipodi:nodetypes="ccccc"/>
    <g style="font-size:20px;font-style:normal;font-variant:normal;font-weight:normal;font-stretch:normal;line-height:125%;letter-spacing:0px;word-spacing:0px;fill:#2e3436;fill-opacity:1;stroke:#2e3436;font-family:Arial;-inkscape-font-specification:Arial" id="text3919" transform="translate(80,0)">
      <path d="M -58,42 -58.0625,26.0625 -56,26 l 0,8 4,-5 2,0 -4,5 4,8 -2,0 -3,-7 -1,1 0,6 z" style="stroke:none" id="path3963" inkscape:connector-curvature="0" sodipodi:nodetypes="ccccccccccccc"/>
      <path d="m -47.615384,42.382333 1.869657,0.274226 c 0.07835,0.569543 0.295581,0.984397 0.65171,1.244561 0.477203,0.351568 1.128913,0.527354 1.955129,0.527357 0.890307,-3e-6 1.577627,-0.175789 2.061965,-0.527357 0.484322,-0.351573 0.811957,-0.843771 0.982906,-1.476598 0.09971,-0.386729 0.146002,-1.198857 0.138889,-2.436388 -0.840464,0.977369 -1.887472,1.466051 -3.141026,1.466051 -1.559833,0 -2.767096,-0.555481 -3.621794,-1.666446 C -47.572651,38.676777 -48,37.344325 -48,35.790376 c 0,-1.068769 0.195869,-2.054925 0.587608,-2.95847 0.391735,-0.903528 0.959755,-1.601396 1.704059,-2.093606 0.744298,-0.492189 1.618585,-0.738288 2.622864,-0.7383 1.339024,1.2e-5 2.443011,0.5344 3.311965,1.603164 l 0,-1.350033 1.773504,0 0,9.682268 c -1.1e-5,1.743791 -0.179854,2.979563 -0.53953,3.707316 -0.359696,0.72775 -0.929496,1.302568 -1.709402,1.724456 -0.779921,0.421882 -1.739679,0.632824 -2.879273,0.632829 -1.353281,-5e-6 -2.446585,-0.300598 -3.279914,-0.90178 -0.833335,-0.60119 -1.235757,-1.506484 -1.207265,-2.715887 z m 1.591881,-6.72907 c -4e-6,1.469573 0.29558,2.541862 0.886751,3.216876 0.591164,0.675018 1.331903,1.012526 2.222222,1.012524 0.883184,2e-6 1.623924,-0.335748 2.222223,-1.007251 0.598281,-0.671497 0.897427,-1.724452 0.897436,-3.158866 -9e-6,-1.371119 -0.308057,-2.404738 -0.924145,-3.100857 -0.616105,-0.6961 -1.358625,-1.044156 -2.227564,-1.044165 -0.854707,9e-6 -1.581201,0.342791 -2.179489,1.028345 -0.598292,0.685571 -0.897438,1.703369 -0.897434,3.053394 z" style="stroke:none" id="path3965" inkscape:connector-curvature="0"/>
      <path d="m -35.501953,41.501953 0,-1.001953 1.001953,0 0,1.001953 z" id="path3967" inkscape:connector-curvature="0" style="stroke-width:1"/>
    </g>
  </g>
</svg>
