<?xml version="1.0" encoding="UTF-8" standalone="no"?>
<!-- Created with Inkscape (http://www.inkscape.org/) -->

<svg
   xmlns:dc="http://purl.org/dc/elements/1.1/"
   xmlns:cc="http://creativecommons.org/ns#"
   xmlns:rdf="http://www.w3.org/1999/02/22-rdf-syntax-ns#"
   xmlns:svg="http://www.w3.org/2000/svg"
   xmlns="http://www.w3.org/2000/svg"
   xmlns:xlink="http://www.w3.org/1999/xlink"
   xmlns:sodipodi="http://sodipodi.sourceforge.net/DTD/sodipodi-0.dtd"
   xmlns:inkscape="http://www.inkscape.org/namespaces/inkscape"
   width="64px"
   height="64px"
   id="svg2985"
   version="1.1"
   inkscape:version="0.48.4 r9939"
   sodipodi:docname="Ship_Module.svg">
  <defs
     id="defs2987">
    <marker
       inkscape:stockid="Arrow1Send"
       orient="auto"
       refY="0.0"
       refX="0.0"
       id="Arrow1Send"
       style="overflow:visible;">
      <path
         id="path4031"
         d="M 0.0,0.0 L 5.0,-5.0 L -12.5,0.0 L 5.0,5.0 L 0.0,0.0 z "
         style="fill-rule:evenodd;stroke:#000000;stroke-width:1.0pt;"
         transform="scale(0.2) rotate(180) translate(6,0)" />
    </marker>
    <marker
       inkscape:stockid="Arrow2Send"
       orient="auto"
       refY="0.0"
       refX="0.0"
       id="Arrow2Send"
       style="overflow:visible;">
      <path
         id="path4049"
         style="fill-rule:evenodd;stroke-width:0.62500000;stroke-linejoin:round;"
         d="M 8.7185878,4.0337352 L -2.2072895,0.016013256 L 8.7185884,-4.0017078 C 6.9730900,-1.6296469 6.9831476,1.6157441 8.7185878,4.0337352 z "
         transform="scale(0.3) rotate(180) translate(-2.3,0)" />
    </marker>
    <marker
       inkscape:stockid="Arrow2Sstart"
       orient="auto"
       refY="0.0"
       refX="0.0"
       id="Arrow2Sstart"
       style="overflow:visible">
      <path
         id="path4046"
         style="fill-rule:evenodd;stroke-width:0.62500000;stroke-linejoin:round"
         d="M 8.7185878,4.0337352 L -2.2072895,0.016013256 L 8.7185884,-4.0017078 C 6.9730900,-1.6296469 6.9831476,1.6157441 8.7185878,4.0337352 z "
         transform="scale(0.3) translate(-2.3,0)" />
    </marker>
    <marker
       inkscape:stockid="Arrow2Mstart"
       orient="auto"
       refY="0.0"
       refX="0.0"
       id="Arrow2Mstart"
       style="overflow:visible">
      <path
         id="path4040"
         style="fill-rule:evenodd;stroke-width:0.62500000;stroke-linejoin:round"
         d="M 8.7185878,4.0337352 L -2.2072895,0.016013256 L 8.7185884,-4.0017078 C 6.9730900,-1.6296469 6.9831476,1.6157441 8.7185878,4.0337352 z "
         transform="scale(0.6) translate(0,0)" />
    </marker>
    <linearGradient
       id="linearGradient3900">
      <stop
         style="stop-color:#ffffff;stop-opacity:1;"
         offset="0"
         id="stop3902" />
      <stop
         style="stop-color:#a0a0a0;stop-opacity:1;"
         offset="1"
         id="stop3904" />
    </linearGradient>
    <linearGradient
       id="linearGradient3882">
      <stop
         style="stop-color:#ffffff;stop-opacity:1;"
         offset="0"
         id="stop3884" />
      <stop
         style="stop-color:#960000;stop-opacity:1;"
         offset="1"
         id="stop3886" />
    </linearGradient>
    <linearGradient
       id="linearGradient3860">
      <stop
         style="stop-color:#1e76e3;stop-opacity:1;"
         offset="0"
         id="stop3862" />
      <stop
         style="stop-color:#ffffff;stop-opacity:1;"
         offset="1"
         id="stop3864" />
    </linearGradient>
    <linearGradient
       inkscape:collect="always"
       xlink:href="#linearGradient3860-6"
       id="linearGradient3866-5"
       x1="31.125395"
       y1="61.410763"
       x2="30.113636"
       y2="12.160761"
       gradientUnits="userSpaceOnUse" />
    <linearGradient
       id="linearGradient3860-6">
      <stop
         style="stop-color:#5a9ff5;stop-opacity:1;"
         offset="0"
         id="stop3862-4" />
      <stop
         style="stop-color:#ffffff;stop-opacity:1;"
         offset="1"
         id="stop3864-4" />
    </linearGradient>
    <radialGradient
       inkscape:collect="always"
       xlink:href="#linearGradient3882"
       id="radialGradient3890"
       cx="25.629292"
       cy="38.444794"
       fx="25.629292"
       fy="38.444794"
       r="11.769514"
       gradientTransform="matrix(1.7159608,-0.59513916,0.29226939,0.84269877,-28.848719,13.387411)"
       gradientUnits="userSpaceOnUse" />
    <radialGradient
       inkscape:collect="always"
       xlink:href="#linearGradient3882"
       id="radialGradient3898"
       cx="31.803391"
       cy="31.659325"
       fx="31.803391"
       fy="31.659325"
       r="3.417994"
       gradientTransform="matrix(4.734087,-1.1798961,0.73145851,2.9348253,-139.28906,-25.817159)"
       gradientUnits="userSpaceOnUse" />
    <radialGradient
       inkscape:collect="always"
       xlink:href="#linearGradient3900"
       id="radialGradient3906"
       cx="20.211554"
       cy="12.140632"
       fx="20.211554"
       fy="12.140632"
       r="15.992805"
       gradientTransform="matrix(1.6937502,-0.50833021,0.26447657,0.88123273,-17.232683,18.826666)"
       gradientUnits="userSpaceOnUse" />
    <radialGradient
       inkscape:collect="always"
       xlink:href="#linearGradient3900"
       id="radialGradient3914"
       cx="44.852757"
       cy="22.63999"
       fx="44.852757"
       fy="22.63999"
       r="5.0740972"
       gradientTransform="matrix(1,0,0,1.5705123,0,-16.367411)"
       gradientUnits="userSpaceOnUse" />
    <radialGradient
       inkscape:collect="always"
       xlink:href="#linearGradient3900"
       id="radialGradient3926"
       cx="18.050617"
       cy="25.765184"
       fx="18.050617"
       fy="25.765184"
       r="2.4997866"
       gradientTransform="matrix(1.1875159,0.30002561,-0.66139805,2.6178455,13.656265,-48.87061)"
       gradientUnits="userSpaceOnUse" />
    <radialGradient
       inkscape:collect="always"
       xlink:href="#linearGradient3900"
       id="radialGradient3930"
       gradientUnits="userSpaceOnUse"
       gradientTransform="matrix(1.1875159,0.30002561,-0.66139805,2.6178455,13.656265,-48.87061)"
       cx="17.915045"
       cy="24.185383"
       fx="17.915045"
       fy="24.185383"
       r="2.4997866" />
    <radialGradient
       inkscape:collect="always"
       xlink:href="#linearGradient3900"
       id="radialGradient3936"
       gradientUnits="userSpaceOnUse"
       gradientTransform="matrix(3.980826,0.90111766,-0.59612552,2.6334762,-39.306292,-60.304205)"
       cx="18.420965"
       cy="23.089165"
       fx="18.420965"
       fy="23.089165"
       r="2.4997866" />
    <radialGradient
       inkscape:collect="always"
       xlink:href="#linearGradient3882"
       id="radialGradient3946"
       cx="16.274988"
       cy="23.718588"
       fx="16.274988"
       fy="23.718588"
       r="3.6819806"
       gradientTransform="matrix(1.1622967,-0.42417542,0.71241125,1.9521011,-19.727075,-16.498215)"
       gradientUnits="userSpaceOnUse" />
  </defs>
  <sodipodi:namedview
     id="base"
     pagecolor="#ffffff"
     bordercolor="#666666"
     borderopacity="1.0"
     inkscape:pageopacity="0.0"
     inkscape:pageshadow="2"
     inkscape:zoom="4"
     inkscape:cx="-6.1454977"
     inkscape:cy="13.674344"
     inkscape:current-layer="layer1"
     showgrid="true"
     inkscape:document-units="px"
     inkscape:grid-bbox="true"
     inkscape:window-width="1366"
     inkscape:window-height="722"
     inkscape:window-x="0"
     inkscape:window-y="0"
     inkscape:window-maximized="1" />
  <metadata
     id="metadata2990">
    <rdf:RDF>
      <cc:Work
         rdf:about="">
        <dc:format>image/svg+xml</dc:format>
        <dc:type
           rdf:resource="http://purl.org/dc/dcmitype/StillImage" />
        <dc:title></dc:title>
      </cc:Work>
    </rdf:RDF>
  </metadata>
  <g
     id="layer1"
     inkscape:label="Layer 1"
     inkscape:groupmode="layer">
    <g
       id="g3977"
       transform="matrix(1.6428611,0,0,1.6428611,-22.221039,-15.973411)">
      <g
         id="g3968">
        <g
           id="g3953">
          <path
             inkscape:connector-curvature="0"
             id="path3938"
             d="m 16.528621,30.942758 0.707107,-7.778175 c 0,0 0.795495,-1.767767 2.563262,-1.767767 1.767767,0 2.032932,1.06066 2.032932,1.06066 l 1.06066,8.220117 z"
             style="fill:url(#radialGradient3946);fill-opacity:1;stroke:#000000;stroke-width:1px;stroke-linecap:butt;stroke-linejoin:miter;stroke-opacity:1" />
          <g
             id="g3948">
            <path
               style="fill:url(#radialGradient3926);fill-opacity:1;stroke:#000000;stroke-width:1px;stroke-linecap:round;stroke-linejoin:round;stroke-opacity:1"
               d="m 18.73833,21.286331 1.657281,-0.729204 c 0,0 2.342292,1.546796 2.342292,3.601825 0,2.055029 0,7.159456 0,7.159456 l -3.987549,1.738087 0.05427,-7.748495 1.06066,-2.231805 c 0,0 -0.0221,-1.126952 -1.126951,-1.789864 z"
               id="path3918"
               inkscape:connector-curvature="0"
               sodipodi:nodetypes="ccsccccc" />
            <path
               sodipodi:nodetypes="ccccc"
               inkscape:connector-curvature="0"
               id="path3928"
               d="m 18.73833,21.286331 1.657281,-0.729204 0.06629,-2.209709 -1.723573,0.618718 z"
               style="fill:url(#radialGradient3930);fill-opacity:1;stroke:#000000;stroke-width:1px;stroke-linecap:round;stroke-linejoin:round;stroke-opacity:1" />
            <path
               sodipodi:nodetypes="cscc"
               inkscape:connector-curvature="0"
               id="path3932"
               d="m 22.737903,31.318408 c 0,0 0,-5.104427 0,-7.159456 0,-2.055029 -2.342292,-3.601825 -2.342292,-3.601825 0,-0.927244 0.06629,-2.209709 0.06629,-2.209709 l 15.055864,4.034207 0,2.108783 c 0,0 -1.930193,-0.176776 -1.930193,1.502602 0,1.679379 0,7.51301 0,7.51301 z"
               style="fill:url(#radialGradient3936);fill-opacity:1;stroke:#000000;stroke-width:1px;stroke-linecap:round;stroke-linejoin:round;stroke-opacity:1" />
          </g>
        </g>
        <path
           style="fill:none;stroke:#0000ff;stroke-width:1.5;stroke-linecap:butt;stroke-linejoin:miter;stroke-miterlimit:4;stroke-opacity:1;stroke-dasharray:none"
           d="M 23.776465,21.927147 32.15231,24.26278"
           id="path3966"
           inkscape:connector-curvature="0"
           sodipodi:nodetypes="cc" />
      </g>
      <g
         id="g3960">
        <path
           style="fill:url(#radialGradient3890);fill-opacity:1;stroke:#000000;stroke-width:1px;stroke-linecap:round;stroke-linejoin:round;stroke-opacity:1"
           d="m 42.02866,32.97569 c 0,0 -1.237437,-1.149049 -4.596194,-1.149049 -3.358758,0 -9.678525,1.723573 -11.136932,2.165515 -1.458408,0.441941 -6.805903,2.872621 -6.805903,2.872621 0,0 1.458408,1.016466 1.767767,1.325825 0.309359,0.309359 1.281631,1.325825 1.281631,1.325825 0,0 5.170718,1.37002 7.51301,1.37002 2.342291,0 7.73398,-0.751301 7.73398,-0.751301 0,0 3.756505,-4.375223 4.242641,-7.159456 z"
           id="path3870"
           inkscape:connector-curvature="0" />
        <path
           inkscape:connector-curvature="0"
           id="path3874"
           d="m 37.786019,40.135146 c 0,0 3.756505,-4.375223 4.242641,-7.159456 1.723573,3.270369 1.59099,3.18198 1.59099,3.18198 0,0 -3.049398,3.402952 -5.833631,3.977476 z"
           style="fill:url(#radialGradient3898);fill-opacity:1;stroke:#000000;stroke-width:1px;stroke-linecap:round;stroke-linejoin:round;stroke-opacity:1"
           sodipodi:nodetypes="cc" />
        <path
           sodipodi:nodetypes="ccccc"
           style="fill:url(#radialGradient3914);fill-opacity:1;stroke:#000000;stroke-width:1px;stroke-linecap:round;stroke-linejoin:round;stroke-opacity:1"
           d="m 45.829359,21.220039 c 0,4.065864 -3.800699,11.755651 -3.800699,11.755651 1.723573,3.270369 1.59099,3.18198 1.59099,3.18198 2.695845,-1.325825 7.557204,-8.529475 7.557204,-8.529475 0,0 -1.944544,-6.142991 -5.347495,-6.408156"
           id="path3876"
           inkscape:connector-curvature="0" />
        <path
           inkscape:connector-curvature="0"
           id="path3878"
           d="m 14.84375,33.46875 c 0.18566,-1.505743 3.84375,-4.625 3.84375,-4.625 L 20.34375,30.5 c 0,0 2.21875,-1.5 4.15625,-2.28125 C 26.4375,27.4375 30.53125,26.25 30.53125,26.25 l 0.9375,-4.4375 c 0,0 5.471217,-3.903672 14.360609,-0.592461 0,4.065864 -3.800699,11.755651 -3.800699,11.755651 0,0 -1.237437,-1.149049 -4.596194,-1.149049 -3.358758,0 -9.678525,1.723573 -11.136932,2.165515 -1.458408,0.441941 -6.805903,2.872621 -6.805903,2.872621 0,0 -3.770881,-3.083527 -4.645881,-3.396027"
           style="fill:url(#radialGradient3906);fill-opacity:1;stroke:#000000;stroke-width:1px;stroke-linecap:round;stroke-linejoin:round;stroke-opacity:1"
           sodipodi:nodetypes="cccsccccsscc" />
      </g>
    </g>
  </g>
</svg>
