<?xml version="1.0" encoding="UTF-8" standalone="no"?>
<!-- Created with Inkscape (http://www.inkscape.org/) -->

<svg
   xmlns:dc="http://purl.org/dc/elements/1.1/"
   xmlns:cc="http://creativecommons.org/ns#"
   xmlns:rdf="http://www.w3.org/1999/02/22-rdf-syntax-ns#"
   xmlns:svg="http://www.w3.org/2000/svg"
   xmlns="http://www.w3.org/2000/svg"
   xmlns:xlink="http://www.w3.org/1999/xlink"
   xmlns:sodipodi="http://sodipodi.sourceforge.net/DTD/sodipodi-0.dtd"
   xmlns:inkscape="http://www.inkscape.org/namespaces/inkscape"
   width="64px"
   height="64px"
   id="svg2985"
   version="1.1"
   inkscape:version="0.48.4 r9939"
   sodipodi:docname="Ship_Load.svg">
  <defs
     id="defs2987">
    <linearGradient
       id="linearGradient3937">
      <stop
         style="stop-color:#be7328;stop-opacity:1;"
         offset="0"
         id="stop3939" />
      <stop
         style="stop-color:#dc962d;stop-opacity:1;"
         offset="1"
         id="stop3941" />
    </linearGradient>
    <linearGradient
       id="linearGradient3929">
      <stop
         id="stop3931"
         offset="0"
         style="stop-color:#c88c3c;stop-opacity:1;" />
      <stop
         id="stop3933"
         offset="1"
         style="stop-color:#ffff96;stop-opacity:1;" />
    </linearGradient>
    <linearGradient
       id="linearGradient3893">
      <stop
         style="stop-color:#505050;stop-opacity:1;"
         offset="0"
         id="stop3895" />
      <stop
         style="stop-color:#aaaaaa;stop-opacity:1;"
         offset="1"
         id="stop3897" />
    </linearGradient>
    <linearGradient
       id="linearGradient3873">
      <stop
         style="stop-color:#f0be6e;stop-opacity:1;"
         offset="0"
         id="stop3875" />
      <stop
         style="stop-color:#c88228;stop-opacity:1;"
         offset="1"
         id="stop3877" />
    </linearGradient>
    <linearGradient
       id="linearGradient3863">
      <stop
         id="stop3865"
         offset="0"
         style="stop-color:#6e4b18;stop-opacity:1;" />
      <stop
         id="stop3867"
         offset="1"
         style="stop-color:#c88228;stop-opacity:1;" />
    </linearGradient>
    <linearGradient
       id="linearGradient3979">
      <stop
         id="stop3981"
         offset="0"
         style="stop-color:#ffffff;stop-opacity:1;" />
      <stop
         id="stop3983"
         offset="1"
         style="stop-color:#ff9600;stop-opacity:1;" />
    </linearGradient>
    <linearGradient
       id="linearGradient3971">
      <stop
         id="stop3973"
         offset="0"
         style="stop-color:#ffffff;stop-opacity:1;" />
      <stop
         id="stop3975"
         offset="1"
         style="stop-color:#be7300;stop-opacity:1;" />
    </linearGradient>
    <marker
       inkscape:stockid="Arrow1Send"
       orient="auto"
       refY="0.0"
       refX="0.0"
       id="Arrow1Send"
       style="overflow:visible;">
      <path
         id="path4031"
         d="M 0.0,0.0 L 5.0,-5.0 L -12.5,0.0 L 5.0,5.0 L 0.0,0.0 z "
         style="fill-rule:evenodd;stroke:#000000;stroke-width:1.0pt;"
         transform="scale(0.2) rotate(180) translate(6,0)" />
    </marker>
    <marker
       inkscape:stockid="Arrow2Send"
       orient="auto"
       refY="0.0"
       refX="0.0"
       id="Arrow2Send"
       style="overflow:visible;">
      <path
         id="path4049"
         style="fill-rule:evenodd;stroke-width:0.62500000;stroke-linejoin:round;"
         d="M 8.7185878,4.0337352 L -2.2072895,0.016013256 L 8.7185884,-4.0017078 C 6.9730900,-1.6296469 6.9831476,1.6157441 8.7185878,4.0337352 z "
         transform="scale(0.3) rotate(180) translate(-2.3,0)" />
    </marker>
    <marker
       inkscape:stockid="Arrow2Sstart"
       orient="auto"
       refY="0.0"
       refX="0.0"
       id="Arrow2Sstart"
       style="overflow:visible">
      <path
         id="path4046"
         style="fill-rule:evenodd;stroke-width:0.62500000;stroke-linejoin:round"
         d="M 8.7185878,4.0337352 L -2.2072895,0.016013256 L 8.7185884,-4.0017078 C 6.9730900,-1.6296469 6.9831476,1.6157441 8.7185878,4.0337352 z "
         transform="scale(0.3) translate(-2.3,0)" />
    </marker>
    <marker
       inkscape:stockid="Arrow2Mstart"
       orient="auto"
       refY="0.0"
       refX="0.0"
       id="Arrow2Mstart"
       style="overflow:visible">
      <path
         id="path4040"
         style="fill-rule:evenodd;stroke-width:0.62500000;stroke-linejoin:round"
         d="M 8.7185878,4.0337352 L -2.2072895,0.016013256 L 8.7185884,-4.0017078 C 6.9730900,-1.6296469 6.9831476,1.6157441 8.7185878,4.0337352 z "
         transform="scale(0.6) translate(0,0)" />
    </marker>
    <linearGradient
       id="linearGradient3900">
      <stop
         style="stop-color:#ffffff;stop-opacity:1;"
         offset="0"
         id="stop3902" />
      <stop
         style="stop-color:#a0a0a0;stop-opacity:1;"
         offset="1"
         id="stop3904" />
    </linearGradient>
    <linearGradient
       id="linearGradient3882">
      <stop
         style="stop-color:#ffffff;stop-opacity:1;"
         offset="0"
         id="stop3884" />
      <stop
         style="stop-color:#960000;stop-opacity:1;"
         offset="1"
         id="stop3886" />
    </linearGradient>
    <linearGradient
       id="linearGradient3860">
      <stop
         style="stop-color:#1e76e3;stop-opacity:1;"
         offset="0"
         id="stop3862" />
      <stop
         style="stop-color:#ffffff;stop-opacity:1;"
         offset="1"
         id="stop3864" />
    </linearGradient>
    <linearGradient
       inkscape:collect="always"
       xlink:href="#linearGradient3860-6"
       id="linearGradient3866-5"
       x1="31.125395"
       y1="61.410763"
       x2="30.113636"
       y2="12.160761"
       gradientUnits="userSpaceOnUse" />
    <linearGradient
       id="linearGradient3860-6">
      <stop
         style="stop-color:#5a9ff5;stop-opacity:1;"
         offset="0"
         id="stop3862-4" />
      <stop
         style="stop-color:#ffffff;stop-opacity:1;"
         offset="1"
         id="stop3864-4" />
    </linearGradient>
    <linearGradient
       inkscape:collect="always"
       xlink:href="#linearGradient3873"
       id="linearGradient3871"
       gradientUnits="userSpaceOnUse"
       x1="38.907837"
       y1="51.470051"
       x2="45.302406"
       y2="54.091148" />
    <linearGradient
       inkscape:collect="always"
       xlink:href="#linearGradient3863"
       id="linearGradient3891"
       gradientUnits="userSpaceOnUse"
       x1="51.657837"
       y1="34.470051"
       x2="45.427406"
       y2="32.216148" />
    <linearGradient
       inkscape:collect="always"
       xlink:href="#linearGradient3893"
       id="linearGradient3899"
       gradientUnits="userSpaceOnUse"
       x1="51.657837"
       y1="34.470051"
       x2="45.427406"
       y2="32.216148" />
    <radialGradient
       inkscape:collect="always"
       xlink:href="#linearGradient3882"
       id="radialGradient3903"
       cx="53.748837"
       cy="4.9173141"
       fx="53.748837"
       fy="4.9173141"
       r="3.2874005"
       gradientTransform="matrix(2.3303929,-1.4921636,1.0936999,1.7080907,-77.643882,78.644487)"
       gradientUnits="userSpaceOnUse" />
    <radialGradient
       inkscape:collect="always"
       xlink:href="#linearGradient3929"
       id="radialGradient3927"
       cx="15.125"
       cy="48.035076"
       fx="15.125"
       fy="48.035076"
       r="18.875"
       gradientTransform="matrix(2.7636523,-0.71644256,0.733044,2.8276918,-61.887066,-71.992203)"
       gradientUnits="userSpaceOnUse" />
    <radialGradient
       inkscape:collect="always"
       xlink:href="#linearGradient3937"
       id="radialGradient3943"
       gradientUnits="userSpaceOnUse"
       gradientTransform="matrix(0.40097726,-0.37931652,0.11734116,0.12404187,14.422507,4.6205505)"
       cx="-14.308363"
       cy="14.910047"
       fx="-14.308363"
       fy="14.910047"
       r="18.875" />
    <radialGradient
       inkscape:collect="always"
       xlink:href="#linearGradient3929"
       id="radialGradient3949"
       gradientUnits="userSpaceOnUse"
       gradientTransform="matrix(2.7636523,-0.71644256,0.733044,2.8276918,-61.887066,-71.992203)"
       cx="15.125"
       cy="48.035076"
       fx="15.125"
       fy="48.035076"
       r="18.875" />
    <radialGradient
       inkscape:collect="always"
       xlink:href="#linearGradient3937"
       id="radialGradient3951"
       gradientUnits="userSpaceOnUse"
       gradientTransform="matrix(0.40097726,-0.37931652,0.11734116,0.12404187,14.422507,4.6205505)"
       cx="-14.308363"
       cy="14.910047"
       fx="-14.308363"
       fy="14.910047"
       r="18.875" />
  </defs>
  <sodipodi:namedview
     id="base"
     pagecolor="#ffffff"
     bordercolor="#666666"
     borderopacity="1.0"
     inkscape:pageopacity="0.0"
     inkscape:pageshadow="2"
     inkscape:zoom="8"
     inkscape:cx="43.350917"
     inkscape:cy="32.886977"
     inkscape:current-layer="layer1"
     showgrid="true"
     inkscape:document-units="px"
     inkscape:grid-bbox="true"
     inkscape:window-width="1366"
     inkscape:window-height="722"
     inkscape:window-x="0"
     inkscape:window-y="0"
     inkscape:window-maximized="1" />
  <metadata
     id="metadata2990">
    <rdf:RDF>
      <cc:Work
         rdf:about="">
        <dc:format>image/svg+xml</dc:format>
        <dc:type
           rdf:resource="http://purl.org/dc/dcmitype/StillImage" />
        <dc:title></dc:title>
      </cc:Work>
    </rdf:RDF>
  </metadata>
  <g
     id="layer1"
     inkscape:label="Layer 1"
     inkscape:groupmode="layer">
    <g
       id="g3945">
      <path
         sodipodi:nodetypes="csccscscsc"
         inkscape:connector-curvature="0"
         id="path3919"
         d="m 15.125,55.375 c 0,0 -7.75,-4.125 -7.75,-28.5 0,-9.375 2.125,-12.5 2.125,-12.5 L 15.375,8 c 0,0 4.125,-0.625 10.75,-0.625 6.625,0 15.625,1.25 15.625,1.25 0,0 -1.5,8.75 -1.5,18.625 0,9.875 3.875,21.125 3.875,21.125 0,0 -7.375,-0.25 -14.875,1.75 -7.5,2 -14.125,5.25 -14.125,5.25 z"
         style="fill:url(#radialGradient3949);fill-opacity:1;stroke:#000000;stroke-width:1px;stroke-linecap:butt;stroke-linejoin:miter;stroke-opacity:1" />
      <path
         style="fill:url(#radialGradient3951);fill-opacity:1;stroke:#000000;stroke-width:1px;stroke-linecap:round;stroke-linejoin:round;stroke-opacity:1"
         d="M 16.875,16.9375 C 14.5625,9.5625 9.5,14.375 9.5,14.375 L 15.375,8 c 0,0 3.3125,-1.375 1.5,8.9375"
         id="path3935"
         inkscape:connector-curvature="0"
         sodipodi:nodetypes="cccc" />
    </g>
    <g
       id="g3961"
       transform="translate(1.25,0.5)"
       style="stroke-width:0.5;stroke-miterlimit:4;stroke-dasharray:none">
      <path
         sodipodi:nodetypes="ccssccsc"
         inkscape:connector-curvature="0"
         id="path3953"
         d="m 17.5,14.5 0.375,17.125 c 0,0 1.75,11.25 5.875,10.875 4.125,-0.375 -0.625,-3.25 3,-3.125 3.625,0.125 5.375,6.5 10.375,6.875 m 0,0 C 36.125,42 35.465045,38.810263 34.625,33.875 33.625,28 32.5,11.75 32.5,11.75"
         style="fill:none;stroke:#000000;stroke-width:0.5;stroke-linecap:butt;stroke-linejoin:miter;stroke-miterlimit:4;stroke-opacity:1;stroke-dasharray:none" />
      <path
         sodipodi:nodetypes="csc"
         inkscape:connector-curvature="0"
         id="path3957"
         d="m 19.625,14.125 c 0,0 0.370838,11.000136 0.5,14.875 0.125,3.75 7.437825,10.194757 15.437825,10.194757"
         style="fill:none;stroke:#000000;stroke-width:0.5;stroke-linecap:butt;stroke-linejoin:miter;stroke-miterlimit:4;stroke-opacity:1;stroke-dasharray:none" />
      <path
         sodipodi:nodetypes="csc"
         inkscape:connector-curvature="0"
         id="path3959"
         d="m 21.743534,13.618642 c 0,0 0.884343,12.431507 1.06112,14.906381 0.176776,2.474873 2.828427,6.010407 11.932427,6.010407"
         style="fill:none;stroke:#000000;stroke-width:0.5;stroke-linecap:butt;stroke-linejoin:miter;stroke-miterlimit:4;stroke-opacity:1;stroke-dasharray:none" />
    </g>
    <g
       id="g3910">
      <g
         id="g3881">
        <path
           sodipodi:nodetypes="cscscsc"
           inkscape:connector-curvature="0"
           id="path3869"
           d="m 39.125,51.4375 c 0,0 0.546875,-1.15625 1.203125,-0.78125 0.65625,0.375 0.546875,1.9375 0.546875,1.9375 0,0 0.625,-1.328125 1.5625,-0.921875 0.9375,0.40625 0.640625,1.828125 0.640625,1.828125 0,0 0.578125,-1.71875 1.453125,-1.34375 0.875,0.375 0.84375,1.28125 0.84375,1.28125 l -3.987156,4.839354 -1.988738,-0.574524 z"
           style="fill:url(#linearGradient3871);fill-opacity:1;stroke:#000000;stroke-width:0.10000000000000001;stroke-linecap:butt;stroke-linejoin:round;stroke-miterlimit:4;stroke-opacity:1;stroke-dasharray:none" />
        <path
           style="fill:#000000;fill-opacity:1;stroke:#000000;stroke-width:0.10000000000000001;stroke-linecap:butt;stroke-linejoin:round;stroke-miterlimit:4;stroke-opacity:1;stroke-dasharray:none"
           d="m 41.387844,58.276854 -1.988738,-0.574524 0.353553,2.253903 z"
           id="path3879"
           inkscape:connector-curvature="0"
           sodipodi:nodetypes="cccc" />
      </g>
      <g
         id="g3905">
        <path
           style="fill:url(#linearGradient3891);fill-opacity:1;stroke:#000000;stroke-width:0.1;stroke-linecap:butt;stroke-linejoin:round;stroke-miterlimit:4;stroke-opacity:1;stroke-dasharray:none"
           d="m 39.125,51.4375 c 0,0 0.546875,-1.15625 1.203125,-0.78125 0.65625,0.375 0.546875,1.9375 0.546875,1.9375 0,0 0.625,-1.328125 1.5625,-0.921875 0.9375,0.40625 0.640625,1.828125 0.640625,1.828125 0,0 0.578125,-1.71875 1.453125,-1.34375 0.875,0.375 0.84375,1.28125 0.84375,1.28125 l 12.1875,-37.375 c 0,0 -1.53125,-0.90625 -2.6875,-1.375 -1.15625,-0.46875 -3.25,-0.75 -3.25,-0.75 z"
           id="path3061"
           inkscape:connector-curvature="0"
           sodipodi:nodetypes="cscscsccscc" />
        <path
           sodipodi:nodetypes="csccscc"
           inkscape:connector-curvature="0"
           id="path3885"
           d="m 57.5625,16.0625 c 0,0 -1.53125,-0.90625 -2.6875,-1.375 -1.15625,-0.46875 -3.25,-0.75 -3.25,-0.75 l 0.394091,-1.162722 c 0,0 2.244178,0.26484 3.322303,0.73359 1.078125,0.46875 2.565641,1.368987 2.565641,1.368987 z"
           style="fill:url(#linearGradient3899);fill-opacity:1;stroke:#000000;stroke-width:0.10000000000000001;stroke-linecap:butt;stroke-linejoin:round;stroke-miterlimit:4;stroke-opacity:1;stroke-dasharray:none" />
        <path
           style="fill:url(#radialGradient3903);fill-opacity:1;stroke:#000000;stroke-width:0.10000000000000001;stroke-linecap:butt;stroke-linejoin:round;stroke-miterlimit:4;stroke-opacity:1;stroke-dasharray:none"
           d="m 52.019091,12.774778 c 0,0 2.244178,0.26484 3.322303,0.73359 1.078125,0.46875 2.565641,1.368987 2.565641,1.368987 l 0.561857,-1.568072 c 0,0 -0.665164,-1.448399 -2.342291,-2.099224 -1.480505,-0.574524 -3.469243,-0.132582 -3.469243,-0.132582 z"
           id="path3901"
           inkscape:connector-curvature="0"
           sodipodi:nodetypes="csccscc" />
      </g>
    </g>
  </g>
</svg>
