<?xml version="1.0" encoding="UTF-8" standalone="no"?>
<!-- Created with Inkscape (http://www.inkscape.org/) -->
<svg xmlns:dc="http://purl.org/dc/elements/1.1/" xmlns:cc="http://creativecommons.org/ns#" xmlns:rdf="http://www.w3.org/1999/02/22-rdf-syntax-ns#" xmlns:svg="http://www.w3.org/2000/svg" xmlns="http://www.w3.org/2000/svg" xmlns:xlink="http://www.w3.org/1999/xlink" xmlns:sodipodi="http://sodipodi.sourceforge.net/DTD/sodipodi-0.dtd" xmlns:inkscape="http://www.inkscape.org/namespaces/inkscape" width="64px" height="64px" id="svg2985" version="1.1" inkscape:version="0.48.5 r10040" sodipodi:docname="Ship_Instance.svg">
  <defs id="defs2987">
    <linearGradient id="linearGradient3981">
      <stop id="stop3983" offset="0" style="stop-color:#d3d7cf;stop-opacity:1"/>
      <stop id="stop3985" offset="1" style="stop-color:#888a85;stop-opacity:1"/>
    </linearGradient>
    <linearGradient id="linearGradient3975">
      <stop id="stop3977" offset="0" style="stop-color:#d3d7cf;stop-opacity:1"/>
      <stop id="stop3979" offset="1" style="stop-color:#888a85;stop-opacity:1"/>
    </linearGradient>
    <linearGradient id="linearGradient3932">
      <stop id="stop3934" offset="0" style="stop-color:#d3d7cf;stop-opacity:1"/>
      <stop id="stop3936" offset="1" style="stop-color:#888a85;stop-opacity:1"/>
    </linearGradient>
    <linearGradient id="linearGradient3924">
      <stop id="stop3926" offset="0" style="stop-color:#d3d7cf;stop-opacity:1"/>
      <stop id="stop3928" offset="1" style="stop-color:#555753;stop-opacity:1"/>
    </linearGradient>
    <linearGradient id="linearGradient3859">
      <stop id="stop3861" offset="0" style="stop-color:#a40000;stop-opacity:1"/>
      <stop id="stop3863" offset="1" style="stop-color:#960000;stop-opacity:1;"/>
    </linearGradient>
    <linearGradient id="linearGradient3851">
      <stop id="stop3853" offset="0" style="stop-color:#ef2929;stop-opacity:1"/>
      <stop id="stop3855" offset="1" style="stop-color:#a40000;stop-opacity:1"/>
    </linearGradient>
    <marker inkscape:stockid="Arrow1Send" orient="auto" refY="0.0" refX="0.0" id="Arrow1Send" style="overflow:visible;">
      <path id="path4031" d="M 0.0,0.0 L 5.0,-5.0 L -12.5,0.0 L 5.0,5.0 L 0.0,0.0 z " style="fill-rule:evenodd;stroke:#000000;stroke-width:1.0pt;" transform="scale(0.2) rotate(180) translate(6,0)"/>
    </marker>
    <marker inkscape:stockid="Arrow2Send" orient="auto" refY="0.0" refX="0.0" id="Arrow2Send" style="overflow:visible;">
      <path id="path4049" style="fill-rule:evenodd;stroke-width:0.62500000;stroke-linejoin:round;" d="M 8.7185878,4.0337352 L -2.2072895,0.016013256 L 8.7185884,-4.0017078 C 6.9730900,-1.6296469 6.9831476,1.6157441 8.7185878,4.0337352 z " transform="scale(0.3) rotate(180) translate(-2.3,0)"/>
    </marker>
    <marker inkscape:stockid="Arrow2Sstart" orient="auto" refY="0.0" refX="0.0" id="Arrow2Sstart" style="overflow:visible">
      <path id="path4046" style="fill-rule:evenodd;stroke-width:0.62500000;stroke-linejoin:round" d="M 8.7185878,4.0337352 L -2.2072895,0.016013256 L 8.7185884,-4.0017078 C 6.9730900,-1.6296469 6.9831476,1.6157441 8.7185878,4.0337352 z " transform="scale(0.3) translate(-2.3,0)"/>
    </marker>
    <marker inkscape:stockid="Arrow2Mstart" orient="auto" refY="0.0" refX="0.0" id="Arrow2Mstart" style="overflow:visible">
      <path id="path4040" style="fill-rule:evenodd;stroke-width:0.62500000;stroke-linejoin:round" d="M 8.7185878,4.0337352 L -2.2072895,0.016013256 L 8.7185884,-4.0017078 C 6.9730900,-1.6296469 6.9831476,1.6157441 8.7185878,4.0337352 z " transform="scale(0.6) translate(0,0)"/>
    </marker>
    <linearGradient id="linearGradient3900">
      <stop style="stop-color:#ffffff;stop-opacity:1;" offset="0" id="stop3902"/>
      <stop style="stop-color:#a0a0a0;stop-opacity:1;" offset="1" id="stop3904"/>
    </linearGradient>
    <linearGradient id="linearGradient3882">
      <stop style="stop-color:#ffffff;stop-opacity:1;" offset="0" id="stop3884"/>
      <stop style="stop-color:#960000;stop-opacity:1;" offset="1" id="stop3886"/>
    </linearGradient>
    <linearGradient id="linearGradient3860">
      <stop style="stop-color:#1e76e3;stop-opacity:1;" offset="0" id="stop3862"/>
      <stop style="stop-color:#ffffff;stop-opacity:1;" offset="1" id="stop3864"/>
    </linearGradient>
    <linearGradient inkscape:collect="always" xlink:href="#linearGradient3860-6" id="linearGradient3866-5" x1="31.125395" y1="61.410763" x2="30.113636" y2="12.160761" gradientUnits="userSpaceOnUse"/>
    <linearGradient id="linearGradient3860-6">
      <stop style="stop-color:#5a9ff5;stop-opacity:1;" offset="0" id="stop3862-4"/>
      <stop style="stop-color:#ffffff;stop-opacity:1;" offset="1" id="stop3864-4"/>
    </linearGradient>
    <radialGradient inkscape:collect="always" xlink:href="#linearGradient3932" id="radialGradient3820" gradientUnits="userSpaceOnUse" gradientTransform="matrix(1.3726149,0.04592581,-0.03076687,0.9195501,-5.1349354,6.7943334)" cx="20.411045" cy="18.774475" fx="20.411045" fy="18.774475" r="15.992805"/>
    <radialGradient inkscape:collect="always" xlink:href="#linearGradient3924" id="radialGradient3823" gradientUnits="userSpaceOnUse" gradientTransform="matrix(0.93577853,-2.137982,0.77852437,0.34075422,-18.5252,123.82161)" cx="49.533485" cy="27.881353" fx="49.533485" fy="27.881353" r="5.0740972"/>
    <radialGradient inkscape:collect="always" xlink:href="#linearGradient3851" id="radialGradient3829" gradientUnits="userSpaceOnUse" gradientTransform="matrix(-1.4218404,0.23214624,-0.04364718,-0.26732865,66.338604,41.167)" cx="19.608961" cy="43.434444" fx="19.608961" fy="43.434444" r="11.769514"/>
    <radialGradient inkscape:collect="always" xlink:href="#linearGradient3882-7" id="radialGradient3946-6" cx="16.274988" cy="23.718588" fx="16.274988" fy="23.718588" r="3.6819806" gradientTransform="matrix(1.1622967,-0.42417542,0.71241125,1.9521011,-19.727075,-16.498215)" gradientUnits="userSpaceOnUse"/>
    <linearGradient id="linearGradient3882-7">
      <stop style="stop-color:#ffffff;stop-opacity:1;" offset="0" id="stop3884-5"/>
      <stop style="stop-color:#960000;stop-opacity:1;" offset="1" id="stop3886-3"/>
    </linearGradient>
    <radialGradient inkscape:collect="always" xlink:href="#linearGradient3981" id="radialGradient3909" gradientUnits="userSpaceOnUse" gradientTransform="matrix(0.24349825,1.4609914,-2.6633664,0.44389381,83.603295,-17.065868)" cx="20.19652" cy="25.415565" fx="20.19652" fy="25.415565" r="2.4997866"/>
    <radialGradient inkscape:collect="always" xlink:href="#linearGradient3900" id="radialGradient3911" gradientUnits="userSpaceOnUse" gradientTransform="matrix(1.1875159,0.30002561,-0.66139805,2.6178455,13.656265,-48.87061)" cx="17.915045" cy="24.185383" fx="17.915045" fy="24.185383" r="2.4997866"/>
    <radialGradient inkscape:collect="always" xlink:href="#linearGradient3975" id="radialGradient3913" gradientUnits="userSpaceOnUse" gradientTransform="matrix(1.7044888,2.6784819,-2.2779738,1.4496199,44.850209,-66.292918)" cx="19.299635" cy="23.916559" fx="19.299635" fy="23.916559" r="2.4997866"/>
    <radialGradient inkscape:collect="always" xlink:href="#linearGradient3900-2" id="radialGradient3911-6" gradientUnits="userSpaceOnUse" gradientTransform="matrix(1.1875159,0.30002561,-0.66139805,2.6178455,13.656265,-48.87061)" cx="17.915045" cy="24.185383" fx="17.915045" fy="24.185383" r="2.4997866"/>
    <linearGradient id="linearGradient3900-2">
      <stop style="stop-color:#ffffff;stop-opacity:1;" offset="0" id="stop3902-9"/>
      <stop style="stop-color:#a0a0a0;stop-opacity:1;" offset="1" id="stop3904-1"/>
    </linearGradient>
  </defs>
  <sodipodi:namedview id="base" pagecolor="#ffffff" bordercolor="#666666" borderopacity="1.0" inkscape:pageopacity="0.0" inkscape:pageshadow="2" inkscape:zoom="16" inkscape:cx="24.049848" inkscape:cy="36.962197" inkscape:current-layer="g3977" showgrid="true" inkscape:document-units="px" inkscape:grid-bbox="true" inkscape:window-width="960" inkscape:window-height="1137" inkscape:window-x="0" inkscape:window-y="27" inkscape:window-maximized="0" inkscape:snap-global="true">
    <inkscape:grid type="xygrid" id="grid3025" empspacing="2" visible="true" enabled="true" snapvisiblegridlinesonly="true"/>
  </sodipodi:namedview>
  <metadata id="metadata2990">
    <rdf:RDF>
      <cc:Work rdf:about="">
        <dc:format>image/svg+xml</dc:format>
        <dc:type rdf:resource="http://purl.org/dc/dcmitype/StillImage"/>
        <dc:title/>
        <dc:creator>
          <cc:Agent>
            <dc:title>[Cercos-Pita J.L]</dc:title>
          </cc:Agent>
        </dc:creator>
        <dc:title>Ship_Instance</dc:title>
        <dc:date>2014-02-18</dc:date>
        <dc:relation>http://www.freecadweb.org/wiki/index.php?title=Artwork</dc:relation>
        <dc:publisher>
          <cc:Agent>
            <dc:title>FreeCAD</dc:title>
          </cc:Agent>
        </dc:publisher>
        <dc:identifier>FreeCAD/src/Mod/Ship/resources/icons/Ship_Instance.svg</dc:identifier>
        <dc:rights>
          <cc:Agent>
            <dc:title>FreeCAD LGPL2+</dc:title>
          </cc:Agent>
        </dc:rights>
        <cc:license>https://www.gnu.org/copyleft/lesser.html</cc:license>
        <dc:contributor>
          <cc:Agent>
            <dc:title>[agryson] Alexander Gryson</dc:title>
          </cc:Agent>
        </dc:contributor>
      </cc:Work>
    </rdf:RDF>
  </metadata>
  <g id="layer1" inkscape:label="Layer 1" inkscape:groupmode="layer">
    <g id="g3977" transform="matrix(1.6428611,0,0,1.6428611,-22.221039,-15.973411)">
      <path inkscape:connector-curvature="0" id="path3938-5" d="m 17.687737,31.259214 0.707107,-7.778175 c 0,0 0.903098,-1.364256 2.670865,-1.364256 1.767767,0 1.925329,0.657149 1.925329,0.657149 l 1.06066,8.220117 z" style="fill:#a40000;fill-opacity:1;stroke:#ef2929;stroke-width:1.21738839000000021;stroke-linecap:butt;stroke-linejoin:miter;stroke-opacity:1" sodipodi:nodetypes="ccsccc"/>
      <path inkscape:connector-curvature="0" id="path3938" d="m 16.528621,30.942758 0.707107,-7.778175 c 0,0 0.795495,-1.767767 2.563262,-1.767767 1.767767,0 2.032932,1.06066 2.032932,1.06066 l 1.06066,8.220117 z" style="fill:none;fill-opacity:1;stroke:#a40000;stroke-width:1.21738838999999999;stroke-linecap:butt;stroke-linejoin:miter;stroke-opacity:1"/>
      <g id="g3948" style="stroke:#2e3436;stroke-width:1.21738839">
        <path style="fill:url(#radialGradient3909);fill-opacity:1;stroke:#2e3436;stroke-width:1.21738839000000021;stroke-linecap:round;stroke-linejoin:round;stroke-opacity:1" d="m 19.004065,21.288112 2.434777,-1.217388 c 0,0 1.299061,2.033199 1.299061,4.088228 0,2.055029 0,7.159456 0,7.159456 l -3.733838,1.534893 0,-7.30433 0.861219,-2.472776 c 0,0 0.243635,-1.125171 -0.861219,-1.788083 z" id="path3918" inkscape:connector-curvature="0" sodipodi:nodetypes="ccsccccc"/>
        <path sodipodi:nodetypes="csccccscc" inkscape:connector-curvature="0" id="path3932" d="m 22.737903,31.318408 c 0,0 0,-5.104427 0,-7.159456 0,-2.055029 -1.299061,-4.088228 -1.299061,-4.088228 0,-0.927244 0,-2.434777 0,-2.434777 l 14.078923,4.745678 0,2.108783 c 0,0 -1.930193,-0.176776 -1.930193,1.502602 0,1.679379 0,7.51301 0,7.51301 z" style="fill:url(#radialGradient3913);fill-opacity:1;stroke:#2e3436;stroke-width:1.21738839000000021;stroke-linecap:round;stroke-linejoin:round;stroke-opacity:1"/>
      </g>
      <path style="fill:none;stroke:#d3d7cf;stroke-width:2;stroke-linecap:round;stroke-linejoin:miter;stroke-opacity:1" d="m 31,21 -18,-6 -2,1 0,2 c 2.625,3.53125 1,5 0,8 l 0,8" id="path3939" inkscape:connector-curvature="0" transform="matrix(0.60869419,0,0,0.60869419,13.525817,9.7229224)" sodipodi:nodetypes="cccccc"/>
      <path sodipodi:nodetypes="cc" inkscape:connector-curvature="0" id="path3966" d="m 26.308395,23.722889 13.391272,3.652165" style="fill:none;stroke:#0b1521;stroke-width:3.65216517;stroke-linecap:round;stroke-linejoin:miter;stroke-miterlimit:4;stroke-opacity:1;stroke-dasharray:none"/>
      <path sodipodi:nodetypes="cc" inkscape:connector-curvature="0" id="path3966-3" d="m 26.308395,23.722889 13.391272,3.652165" style="fill:none;stroke:#3465a4;stroke-width:1.21738839;stroke-linecap:round;stroke-linejoin:miter;stroke-miterlimit:4;stroke-opacity:1;stroke-dasharray:none"/>
      <path sodipodi:nodetypes="cccc" style="fill:#a40000;fill-opacity:1;stroke:#280000;stroke-width:1.21738837000000011;stroke-linecap:round;stroke-linejoin:round;stroke-opacity:1" d="m 37.786019,40.135146 c 0,0 3.756505,-4.375223 4.242641,-7.159456 1.723573,3.270369 1.931867,2.921082 1.931867,2.921082 0,0 -3.390275,3.66385 -6.174508,4.238374 z" id="path3874" inkscape:connector-curvature="0"/>
      <path style="fill:none;stroke:#ef2929;stroke-width:2;stroke-linecap:butt;stroke-linejoin:miter;stroke-opacity:1" d="m 50,40.078125 c -2.651585,3.14687 -5.578377,5.310857 -8.515625,7.4375" id="path3857" inkscape:connector-curvature="0" transform="matrix(0.60869419,0,0,0.60869419,13.525817,9.7229224)" sodipodi:nodetypes="cc"/>
      <path inkscape:connector-curvature="0" id="path3870" d="m 42.02866,32.97569 c 0,0 -1.237437,-1.149049 -4.596194,-1.149049 -3.358758,0 -9.678525,1.723573 -11.136932,2.165515 -1.458408,0.441941 -6.805903,2.872621 -6.805903,2.872621 0,0 1.458408,1.016466 1.767767,1.325825 0.309359,0.309359 1.281631,1.325825 1.281631,1.325825 0,0 5.170718,1.37002 7.51301,1.37002 2.342291,0 7.73398,-0.751301 7.73398,-0.751301 0,0 3.756505,-4.375223 4.242641,-7.159456 z" style="fill:url(#radialGradient3829);fill-opacity:1;stroke:#280000;stroke-width:1.21738837000000011;stroke-linecap:round;stroke-linejoin:round;stroke-opacity:1"/>
      <path inkscape:connector-curvature="0" id="path3876" d="m 45.786609,21.288112 c 0,4.065864 -3.757949,11.687578 -3.757949,11.687578 1.723573,3.270369 1.931867,2.921082 1.931867,2.921082 2.695845,-1.325825 6.695636,-8.521718 6.695636,-8.521718 0,0 -1.466603,-5.821777 -4.869554,-6.086942" style="fill:url(#radialGradient3823);fill-opacity:1;stroke:#2e3436;stroke-width:1.21738837000000011;stroke-linecap:round;stroke-linejoin:round;stroke-opacity:1" sodipodi:nodetypes="ccccc"/>
      <path sodipodi:nodetypes="cccsccccsscc" style="fill:url(#radialGradient3820);fill-opacity:1;stroke:#2e3436;stroke-width:1.21738839000000021;stroke-linecap:round;stroke-linejoin:round;stroke-opacity:1" d="m 15.3519,33.461996 c 0.18566,-1.505743 3.3356,-4.618246 3.3356,-4.618246 L 20.34375,30.5 c 0,0 2.21875,-1.5 4.15625,-2.28125 C 26.4375,27.4375 30.53125,26.25 30.53125,26.25 l 0.9375,-4.4375 c 0,0 5.796141,-3.567859 14.317859,-0.524388 0,4.065864 -3.757949,11.687578 -3.757949,11.687578 0,0 -1.237437,-1.149049 -4.596194,-1.149049 -3.358758,0 -9.678525,1.723573 -11.136932,2.165515 -1.458408,0.441941 -6.805903,2.872621 -6.805903,2.872621 0,0 -3.262731,-3.090281 -4.137731,-3.402781" id="path3878" inkscape:connector-curvature="0"/>
      <path style="fill:none;stroke:#ef2929;stroke-width:2;stroke-linecap:round;stroke-linejoin:miter;stroke-opacity:1" d="M 44.405631,39.168544 C 43.18756,42.605252 40.964948,45.258391 38.9375,48.0625 28.407612,50.108939 23.38826,49.102241 15.768956,47.150238 L 13.7,45.1" id="path3849" inkscape:connector-curvature="0" transform="matrix(0.60869419,0,0,0.60869419,13.525817,9.7229224)" sodipodi:nodetypes="cccc"/>
      <path style="fill:none;stroke:#d3d7cf;stroke-width:2;stroke-linecap:round;stroke-linejoin:miter;stroke-opacity:1" d="M 50.309359,40.292893 C 53.63345,36.977959 55.720104,33.894434 58.911612,28.690641 57.763535,26.31208 57.744781,24.85314 54.823223,21.823223" id="path3922" inkscape:connector-curvature="0" transform="matrix(0.60869419,0,0,0.60869419,13.525817,9.7229224)" sodipodi:nodetypes="ccc"/>
      <path style="fill:none;stroke:#d3d7cf;stroke-width:2;stroke-linecap:round;stroke-linejoin:miter;stroke-opacity:1" d="M 10.1875,42.1875 5.46875,38.21875 c 0.861745,-1.712591 1.8757945,-2.89985 3.125,-3.90625 l 2.4375,2.03125 c 4.793017,-3.195248 11.407215,-5.601318 18.6875,-7.71875 l 1.601333,-7.496859 c 5.861688,-2.799572 13.073611,-2.685861 19.591529,-0.712088" id="path3930" inkscape:connector-curvature="0" transform="matrix(0.60869419,0,0,0.60869419,13.525817,9.7229224)" sodipodi:nodetypes="ccccccc"/>
      <path sodipodi:nodetypes="ccccc" inkscape:connector-curvature="0" id="path3928-2" d="m 19.004065,21.288112 2.434777,-1.217388 0,-2.434777 -2.434777,1.217388 z" style="fill:#d3d7cf;fill-opacity:1;stroke:#2e3436;stroke-width:1.21738839;stroke-linecap:round;stroke-linejoin:round;stroke-opacity:1"/>
    </g>
  </g>
</svg>
