<?xml version="1.0" encoding="UTF-8" standalone="no"?>
<!-- Created with Inkscape (http://www.inkscape.org/) -->

<svg
   width="64px"
   height="64px"
   version="1.1"
   id="svg22"
   xmlns="http://www.w3.org/2000/svg"
   xmlns:svg="http://www.w3.org/2000/svg"
   xmlns:rdf="http://www.w3.org/1999/02/22-rdf-syntax-ns#"
   xmlns:cc="http://creativecommons.org/ns#"
   xmlns:dc="http://purl.org/dc/elements/1.1/">
  <defs
     id="defs26" />
  <metadata
     id="metadata2">
    <rdf:RDF>
      <cc:Work
         rdf:about="">
        <dc:format>image/svg+xml</dc:format>
        <dc:type
           rdf:resource="http://purl.org/dc/dcmitype/StillImage" />
        <dc:creator>
          <cc:Agent>
            <dc:title>[wmayer]</dc:title>
          </cc:Agent>
        </dc:creator>
        <dc:date>2011-10-10</dc:date>
        <dc:relation>http://www.freecad.org/wiki/index.php?title=Artwork</dc:relation>
        <dc:publisher>
          <cc:Agent>
            <dc:title>FreeCAD</dc:title>
          </cc:Agent>
        </dc:publisher>
        <dc:identifier>FreeCAD/src/Mod/Sketcher/Gui/Resources/icons/Constraint_Radius.svg</dc:identifier>
        <dc:rights>
          <cc:Agent>
            <dc:title>FreeCAD LGPL2+</dc:title>
          </cc:Agent>
        </dc:rights>
        <cc:license>https://www.gnu.org/copyleft/lesser.html</cc:license>
        <dc:contributor>
          <cc:Agent>
            <dc:title>[agryson] Alexander Gryson</dc:title>
          </cc:Agent>
        </dc:contributor>
      </cc:Work>
    </rdf:RDF>
  </metadata>
  <g
     fill="none"
     stroke-linecap="round"
     id="g20">
    <path
       d="m9.1775 55.778 45.529-46.289"
       stroke="#0b1521"
       stroke-width="8"
       id="path4" />
    <g
       stroke-dashoffset="10.8"
       stroke-linejoin="round"
       id="g12">
      <path
         transform="matrix(.86667 0 0 .86667 4.2667 4.2667)"
         d="m62 32a30 30 0 1 1-60 0 30 30 0 1 1 60 0z"
         stroke="#0b1521"
         stroke-width="9.2308"
         id="path6" />
      <circle
         transform="matrix(.86667 0 0 .86667 4.2667 4.2667)"
         d="M 62,32 A 30,30 0 1 1 2,32 30,30 0 1 1 62,32 z"
         stroke="#c00"
         stroke-width="4.6154"
         id="circle8" />
      <path
         d="m58 32c0 14.359-11.641 26-26 26s-26-11.641-26-26c0-14.359 11.641-26 26-26s26 11.641 26 26z"
         stroke="#3465a4"
         stroke-width="4"
         id="path10" />
    </g>
    <path
       d="m9.037 55.711 45.475-46.223"
       stroke="#3465a4"
       stroke-width="4"
       id="path14" />
    <path
       transform="matrix(.9 0 0 .9 3.2 3.2)"
       d="m62 32a30 30 0 1 1-60 0 30 30 0 1 1 60 0z"
       stroke="#729fcf"
       stroke-dashoffset="10.8"
       stroke-linejoin="round"
       stroke-width="2.2222"
       id="path16" />
    <path
       d="m7.9368 55.393 46.614-47.155"
       stroke="#729fcf"
       stroke-width="2"
       id="path18" />
  </g>
</svg>
