<?xml version="1.0" encoding="UTF-8" standalone="no"?>
<!-- Created with Inkscape (http://www.inkscape.org/) -->

<svg width="64px" height="64px" id="svg2816" version="1.1" xmlns:xlink="http://www.w3.org/1999/xlink" xmlns="http://www.w3.org/2000/svg" xmlns:svg="http://www.w3.org/2000/svg" xmlns:rdf="http://www.w3.org/1999/02/22-rdf-syntax-ns#" xmlns:cc="http://creativecommons.org/ns#" xmlns:dc="http://purl.org/dc/elements/1.1/">
  <defs id="defs2818">
    <linearGradient id="linearGradient3602">
      <stop style="stop-color:#ff2600;stop-opacity:1" offset="0" id="stop3604" />
      <stop style="stop-color:#ff5f00;stop-opacity:1" offset="1" id="stop3606" />
    </linearGradient>
    <linearGradient xlink:href="#linearGradient3602-7" id="linearGradient3608-5" x1="3.909091" y1="14.363636" x2="24.81818" y2="14.363636" gradientUnits="userSpaceOnUse" />
    <linearGradient id="linearGradient3602-7">
      <stop style="stop-color:#c51900;stop-opacity:1" offset="0" id="stop3604-1" />
      <stop style="stop-color:#ff5f00;stop-opacity:1" offset="1" id="stop3606-3" />
    </linearGradient>
    <linearGradient xlink:href="#linearGradient3602-5" id="linearGradient3608-1" x1="3.909091" y1="14.363636" x2="24.81818" y2="14.363636" gradientUnits="userSpaceOnUse" />
    <linearGradient id="linearGradient3602-5">
      <stop style="stop-color:#c51900;stop-opacity:1" offset="0" id="stop3604-9" />
      <stop style="stop-color:#ff5f00;stop-opacity:1" offset="1" id="stop3606-9" />
    </linearGradient>
    <linearGradient y2="14.363636" x2="24.81818" y1="14.363636" x1="3.909091" gradientUnits="userSpaceOnUse" id="linearGradient3686" xlink:href="#linearGradient3602-5" />
    <linearGradient xlink:href="#linearGradient3602-58" id="linearGradient3608-8" x1="3.909091" y1="14.363636" x2="24.81818" y2="14.363636" gradientUnits="userSpaceOnUse" />
    <linearGradient id="linearGradient3602-58">
      <stop style="stop-color:#c51900;stop-opacity:1" offset="0" id="stop3604-2" />
      <stop style="stop-color:#ff5f00;stop-opacity:1" offset="1" id="stop3606-2" />
    </linearGradient>
    <linearGradient y2="14.363636" x2="24.81818" y1="14.363636" x1="3.909091" gradientUnits="userSpaceOnUse" id="linearGradient3726" xlink:href="#linearGradient3602-58" />
  </defs>
  <metadata id="metadata2821">
    <rdf:RDF>
      <cc:Work rdf:about="">
        <dc:format>image/svg+xml</dc:format>
        <dc:type rdf:resource="http://purl.org/dc/dcmitype/StillImage" />
        <dc:creator>
          <cc:Agent>
            <dc:title>[Abdullah Tahiri]</dc:title>
          </cc:Agent>
        </dc:creator>
        <dc:date>2014-11-11</dc:date>
        <dc:relation>http://www.freecad.org/wiki/index.php?title=Artwork</dc:relation>
        <dc:publisher>
          <cc:Agent>
            <dc:title>FreeCAD</dc:title>
          </cc:Agent>
        </dc:publisher>
        <dc:identifier>FreeCAD/src/Mod/Sketcher/Gui/Resources/icons/Constraint_Ellipse_Axis_Angle.svg</dc:identifier>
        <dc:rights>
          <cc:Agent>
            <dc:title>FreeCAD LGPL2+</dc:title>
          </cc:Agent>
        </dc:rights>
        <cc:license>https://www.gnu.org/copyleft/lesser.html</cc:license>
        <dc:contributor>
          <cc:Agent>
            <dc:title>[agryson] Alexander Gryson</dc:title>
          </cc:Agent>
        </dc:contributor>
      </cc:Work>
    </rdf:RDF>
  </metadata>
  <g id="layer1">
    <path style="fill:none;stroke:#280000;stroke-width:5.45939016;stroke-linecap:round;stroke-linejoin:round;stroke-miterlimit:4;stroke-opacity:1;stroke-dasharray:none;stroke-dashoffset:10.8" id="path3874" d="m 37.957086,114.44994 a 28.797932,28.797932 0 0 1 8.429825,19.8323" transform="matrix(1.4653651,0,0,1.4653651,-19.781449,-139.35101)" />
    <path style="fill:none;stroke:#280000;stroke-width:8;stroke-linecap:round;stroke-linejoin:round;stroke-opacity:1" d="M 58,58 6,58 58,6" id="path3068" />
    <path style="fill:none;stroke:#cc0000;stroke-width:4;stroke-linecap:round;stroke-linejoin:round;stroke-opacity:1" d="M 58,58 6,58 58,6" id="path3068-7" />
    <path style="fill:none;stroke:#cc0000;stroke-width:2.72969508;stroke-linecap:round;stroke-linejoin:round;stroke-miterlimit:4;stroke-opacity:1;stroke-dasharray:none;stroke-dashoffset:10.8" id="path3874-3" d="m 37.957086,114.44994 a 28.797932,28.797932 0 0 1 8.426307,19.66719" transform="matrix(1.4653651,0,0,1.4653651,-19.781449,-139.35101)" />
    <path style="fill:none;stroke:#ef2929;stroke-width:2;stroke-linecap:round;stroke-linejoin:round;stroke-opacity:1" d="m 58.299779,57.10253 -52.7736777,0 L 57.526101,5.102533" id="path3068-7-5" />
    <path style="fill:none;stroke:#ef2929;stroke-width:1.36484754;stroke-linecap:round;stroke-linejoin:round;stroke-miterlimit:4;stroke-opacity:1;stroke-dasharray:none;stroke-dashoffset:10.8" id="path3874-3-5" d="m 37.957086,114.44994 a 28.797932,28.797932 0 0 1 8.43472,20.36322" transform="matrix(1.4653651,0,0,1.4653651,-18.980933,-140.55049)" />
    <g id="g3063" transform="matrix(0.70710678,-0.70710678,0.70710678,0.70710678,48.727922,-27.154329)">
      <path transform="matrix(0.94545455,0,0,0.94117647,-79.672727,0.82352941)" d="M 61,31 C 61,40.388841 48.687831,48 33.5,48 18.312169,48 6,40.388841 6,31 6,21.611159 18.312169,14 33.5,14 48.687831,14 61,21.611159 61,31 z" id="path3025" style="fill:none;stroke:#280000;stroke-width:8.48074722;stroke-linecap:round;stroke-linejoin:round;stroke-miterlimit:4;stroke-opacity:1;stroke-dasharray:none;stroke-dashoffset:10.8" />
      <path transform="matrix(0.94545455,0,0,0.94117647,-79.672727,0.82352933)" d="M 61,31 C 61,40.388841 48.687831,48 33.5,48 18.312169,48 6,40.388841 6,31 6,21.611159 18.312169,14 33.5,14 48.687831,14 61,21.611159 61,31 z" id="path3025-3" style="fill:none;stroke:#cc0000;stroke-width:4.24037361;stroke-linecap:round;stroke-linejoin:round;stroke-miterlimit:4;stroke-opacity:1;stroke-dasharray:none;stroke-dashoffset:10.8" />
      <path transform="matrix(0.98181818,0,0,1,-80.890909,-1.0000001)" d="M 61,31 C 61,40.388841 48.687831,48 33.5,48 18.312169,48 6,40.388841 6,31 6,21.611159 18.312169,14 33.5,14 48.687831,14 61,21.611159 61,31 z" id="path3025-3-6" style="fill:none;stroke:#ef2929;stroke-width:2.01843357;stroke-linecap:round;stroke-linejoin:round;stroke-miterlimit:4;stroke-opacity:1;stroke-dasharray:none;stroke-dashoffset:10.8" />
    </g>
  </g>
</svg>
