/* XPM */
static char * font_xpm[] = {
"665 12 2 1",
".	c #000000",
"+	c #FFFFFF",
"++++++++++++++++.+.++++++++++++.++++++++++++++++++++..++++++..++..++++++++++++++++++++++++++++++++++++++++++++.+++++++++++++++++++++++++++++++++++++++++++++++++++++++++++++++++++++++++++++++++++++++++++++++++++++++++++++++++++++++++++++++++++++++++++++++++++++++++++++++++++++++++++++++++++++++++++++++++++++++++++++++++++++++++++++++++++++++++++++++++++++++++++++++++++++++++++++++++++++++++++++++++++++++++++++++++...++.++++++...++++++++++++++++++++..++++++++++.+++++++++++++++++.+++++++++++...+++++++++.++++++++.+++++++.+++.++++++...+++++++++++++++++++++++++++++++++++++++++++++++++++++++++++++++++++++++++++++++++++++++++++++++++++++++++..++++.++++..+++++++++++",
"++++++++++..++++.+.++++.++.+++...+++..+++++++..+++++..+++++.++++++.++++++.++++++++++++++++++++++++++++++++++++.+++...+++++.+++++...++++...++++++.+++.....+++...+++.....+++...++++...++++++++++++++++++++++++++++++++++++++....++++...+++++..+++....+++++...++...++++.....+++....++++...++.+++.++.....++.....++.++++.++.+++++.++++.+.+++.++++..+++....+++++..+++....++++....+.......+.+++.++.++++..+++++.+.+++.++.+++.++.....++++.++++.++++++++.++++++.++++++++++++..+++++++++++.+++++++++++++++++.++++++++++.++++++++++++.++++++++.+++++++.+++.++++++++.++++++++++++++++++++++++++++++++++++++++++++++++++++++.+++++++++++++++++++++++++++++++++++++++++++++++++.++++++.++++++.++++++++++",
"++++++++++..++++.+.++++.++.++.+.+.+.++.++.++.++.+++..++++++.++++++.++++.+.+.++++.++++++++++++++++++++++++++++.+++.+++.+++..++++.+++.++.+++.++++..+++.++++++.+++.++++++.++.+++.++.+++.++++++++++++++++++++.++++++++++.+++++++++.++.+++.++++..+++.+++.+++.++.++.++.+++.+++++++.++++++.++.++.+++.++++.++++++.++++.+++.+++.+++++..++..+..++.+++.++.++.+++.+++.++.++.+++.++.++++++++.++++.+++.++.++++..++.++.+.+++.++.+++.++++++.++++.+++++.+++++++.++++++.++++++++++++..+++++++++++.+++++++++++++++++.++++++++++.++++++++++++.++++++++++++++++++++.++++++++.++++++++++++++++++++++++++++++++++++++++++++++++++++++.+++++++++++++++++++++++++++++++++++++++++++++++++.++++++.++++++.++++++++++",
"++++++++++..++++++++++......+.+.+++.++.+.+++.++.++++++++++.++++++++.++++.+.+++++.++++++++++++++++++++++++++++.+++.+++.++.+.++++++++.++++++.+++.+.+++.++++++.++++++++++.++.+++.++.+++.+++..+++++..+++++++.++++++++++++.++++++++.+.++...+++.++.++.+++.++.++++++.+++.++.+++++++.+++++.++++++.+++.++++.++++++.++++.++.++++.+++++..++..+..++.++.++++.+.+++.++.++++.+.+++.++.++++++++.++++.+++.++.++++..++.++.++.+.+++.+++.+++++.+++++.+++++.+++++++.+++++.+.++++++++++++++++++...+++.+..+++++...+++....+++...+++.....+++....++.+..+++...++++....+++.+++.++++.+++.+.++.++.+..++++...+++.+..++++....+++.+..+++....++.....++.+++.++.+++.+.+++++.+.+++.++.+++.++.....++++.++++++.++++++.++++++++++",
"++++++++++..+++++++++++.++.+++..++++..+.+++++..+++++++++++.++++++++.+++.+.+.++++.+++++++++++++++++++++++++++.++++.+++.++++.++++++++.++++++.++.++.+++....+++.+++++++++.+++.+++.++.+++.+++..+++++..++++++.+++.......++++.+++++++.+.+.++.+++.++.++.+++.++.++++++.+++.++.+++++++.+++++.++++++.+++.++++.++++++.++++.+.+++++.+++++.+..+.+.+.+.++.++++.+.+++.++.++++.+.+++.++..+++++++.++++.+++.++.++++..++.++.++.+.++++.+.++++++.+++++.++++++.++++++.+++++.+.+++++++++++++++++.+++.++..++.+++.+++++.+++.++.+++.+++.+++++.+++.++..++.++++.+++++++.+++.++.+++++.+++..+..+.+..++.++.+++.++..++.++.+++.+++..++++.+++++++.+++++.+++.++.+++.+.++.++.+.+++.++.+++.++++++.+++++.+++++.+++++.+++++...++.",
"++++++++++..+++++++++++.++.++++..+++++.+++++..++.+++++++++.++++++++.+++++.+++.......+++++++.......++++++++++.++++.+++.++++.+++++++.+++++..++.+++.+++++++.++....+++++.+++++...++++....+++++++++++++++++.++++++++++++++++.+++...++.+.++.+++.++.++....+++.++++++.+++.++....++++....++.++++++.....++++.++++++.++++...+++++.+++++.+..+.+.+.+.++.++++.+.+++.++.++++.+....++++...+++++.++++.+++.+++.++.+.+.+.+.+++.+++++.+.+++++.++++++.++++++.++++++.++++.+++.++++++++++++++++++++.++.+++.++.++++++.+++.++.+++.+++.+++++.+++.++.+++.++++.+++++++.+++.+.++++++.+++.++.++.+.+++.++.+++.++.+++.++.+++.+++.+++++.+++++++.+++++.+++.++.+++.+.++.++.++.+.+++.+++.+++++.++++..++++++.++++++..++.++...+",
"++++++++++.+++++++++++......+++.+.+++.+..++.++.+.+++++++++.++++++++.++++++++++++.+++++++++++++++++++++++++++.++++.+++.++++.++++++.++++++++.+......++++++.++.+++.++++.++++.+++.++++++.++++++++++++++++++.+++.......++++.++++.++++.+.+..++......+.+++.++.++++++.+++.++.+++++++.+++++.+++.++.+++.++++.++++++.++++.++.++++.+++++.+..+.+.++..++.++++.+....+++.++++.+.++.++++++..++++.++++.+++.+++.++.++..+..+++.+.+++++.+++++.+++++++.++++++.++++++.++++.+++.+++++++++++++++++....++.+++.++.++++++.+++.++.....+++.+++++.+++.++.+++.++++.+++++++.+++...++++++.+++.++.++.+.+++.++.+++.++.+++.++.+++.+++.++++++...++++.+++++.+++.+++.+.++.+.+.+.+++.+++++.+.+++++.+++++++.+++++.+++++.+++++++++++",
"+++++++++++++++++++++++.++.++++.+.++.+.++.+.+++.++++++++++.++++++++.++++++++++++.++++++++++++++++++++++++++.+++++.+++.++++.+++++.+++++++++.+++++.+++++++.++.+++.+++.+++++.+++.++++++.+++++++++++++++++++.++++++++++++.++++++++++.++.++.+.++++.+.+++.++.++++++.+++.++.+++++++.+++++.+++.++.+++.++++.++++++.++++.+++.+++.+++++.++++.+.++..++.++++.+.++++++.++++.+.+++.++++++.++++.++++.+++.+++.++.++.+++.+++.+.+++++.+++++.+++++++.+++++++.+++++.+++++++++++++++++++++++++.+++.++.+++.++.++++++.+++.++.+++++++.+++++.++..++.+++.++++.+++++++.+++.++.+++++.+++.++.++.+.+++.++.+++.++.+++.++.+++.+++.+++++++++.+++.+++++.+++.+++.+.+++.+++.+++.+.++++.+.++++.+++++++.++++++.++++++.++++++++++",
"++++++++++..+++++++++++.++.++.+.+.+.++.++.+.+++.+++++++++++.++++++.+++++++++++++.++++++..+++++++++++..+++++.+++++.+++.++++.++++.++++++.+++.+++++.+++.+++.++.+++.+++.+++++.+++.++.+++.+++..+++++..++++++++.++++++++++.++++++.+++++.++++++.++++.+.+++.+++.+++++.++.+++.+++++++.++++++.++.++.+++.++++.++++++.++++.++++.++.+++++.++++.+.+++.+++.++.++.+++++++.++.++.+++.++++++.++++.++++.+++.++++..+++.+++.++.+++.++++.++++.++++++++.+++++++.+++++.+++++++++++++++++++++++++.+++.++.+++.+++.+++++.++..++.+++.+++.++++++..+.++.+++.++++.+++++++.+++.+++.++++.+++.++.++.+.+++.++.+++.++.+++.++.++..+++.+++++++++.+++.+++++.++..++++.++++.+++.++.+++.++++.++++.++++++++.++++++.++++++.++++++++++",
"++++++++++..+++++++++++.++.+++...++++++..+++...+.++++++++++.++++++.++++++++++++++++++++..+++++++++++..++++.+++++++...+++++.++++.....+++...++++++.++++...++++...++++.++++++...++++...++++..+++++..++++++++++++++++++++++++++.++++++...+++.++++.+....+++++...++...++++.....+++.+++++++...++.+++.++.....+...+++++.++++.++....++.++++.+.+++.++++..+++.++++++++..+++.+++.++....+++++.+++++...+++++..+++.+++.++.+++.++++.++++.....++++.++++++++.++++.++++++++++++++++++++++++++...+.+....+++++...+++..+.+++...++++.+++++++++.++.+++.++++.+++++++.+++.++++.+++.+++.++.++.+.+++.+++...+++....++++..+.+++.+++++....+++++...+++..+.++++.++++.+++.++.+++.++++.++++.....++++.++++++.++++++.++++++++++",
"+++++++++++++++++++++++++++++++.++++++++++++++++++++++++++++..++..++++++++++++++++++++..++++++++++++++++++.+++++++++++++++++++++++++++++++++++++++++++++++++++++++++++++++++++++++++++++++++++..+++++++++++++++++++++++++++++++++++++++++++++++++++++++++++++++++++++++++++++++++++++++++++++++++++++++++++++++++++++++++++++++++++++++++++++++++++++++++++..+++++++++++++++++++++++++++++++++++++++++++++++++++++++++++++++++++...++++++.++...++++++++++.......++++++++++++++++++++++++++++++++++++++++++++++++++++++.+++++++++++++++++++.++++++++++++++++++++++++++++++++++++++.++++++++++.++++++++++++++++++++++++++++++++++++++++++++++++++++.+++++++++++++++..++++.++++..+++++++++++",
"++++++++++++++++++++++++++++++++++++++++++++++++++++++++++++++++++++++++++++++++++++++++++++++++++++++++++++++++++++++++++++++++++++++++++++++++++++++++++++++++++++++++++++++++++++++++++++++++++++++++++++++++++++++++++++++++++++++++++++++++++++++++++++++++++++++++++++++++++++++++++++++++++++++++++++++++++++++++++++++++++++++++++++++++++++++++++++..+++++++++++++++++++++++++++++++++++++++++++++++++++++++++++++++++++++++++++++++++++++++++++++++++++++++++++++++++++++++++++++++++++++++++++++++++++++...+++++++++++++++++...+++++++++++++++++++++++++++++++++++++++.++++++++++.+++++++++++++++++++++++++++++++++++++++++++++++++++..+++++++++++++++++++++++++++++++++++++++"};
