<?xml version="1.0" encoding="UTF-8" standalone="no"?>
<!-- Created with Inkscape (http://www.inkscape.org/) -->

<svg width="64px" height="64px" id="svg2918" version="1.1" xmlns:xlink="http://www.w3.org/1999/xlink" xmlns="http://www.w3.org/2000/svg" xmlns:svg="http://www.w3.org/2000/svg" xmlns:rdf="http://www.w3.org/1999/02/22-rdf-syntax-ns#" xmlns:cc="http://creativecommons.org/ns#" xmlns:dc="http://purl.org/dc/elements/1.1/">
  <defs id="defs2920">
    <linearGradient id="linearGradient3888">
      <stop style="stop-color:#73d216;stop-opacity:1" offset="0" id="stop3890" />
      <stop style="stop-color:#8ae234;stop-opacity:1" offset="1" id="stop3892" />
    </linearGradient>
    <linearGradient id="linearGradient3880">
      <stop style="stop-color:#8ae234;stop-opacity:1" offset="0" id="stop3882" />
      <stop style="stop-color:#73d216;stop-opacity:1" offset="1" id="stop3884" />
    </linearGradient>
    <linearGradient id="linearGradient3144">
      <stop style="stop-color:#ffffff;stop-opacity:1" offset="0" id="stop3146" />
      <stop style="stop-color:#ffffff;stop-opacity:0" offset="1" id="stop3148" />
    </linearGradient>
    <linearGradient id="linearGradient3144-3">
      <stop style="stop-color:#ffffff;stop-opacity:1" offset="0" id="stop3146-1" />
      <stop style="stop-color:#ffffff;stop-opacity:0" offset="1" id="stop3148-5" />
    </linearGradient>
    <radialGradient xlink:href="#linearGradient3144" id="radialGradient3958" gradientUnits="userSpaceOnUse" gradientTransform="matrix(1,0,0,0.6985294,0,202.82863)" cx="225.26402" cy="672.79736" fx="225.26402" fy="672.79736" r="34.345188" />
    <radialGradient xlink:href="#linearGradient3144-3" id="radialGradient3960" gradientUnits="userSpaceOnUse" gradientTransform="matrix(1,0,0,0.6985294,0,202.82863)" cx="225.26402" cy="672.79736" fx="225.26402" fy="672.79736" r="34.345188" />
    <linearGradient xlink:href="#linearGradient3888" id="linearGradient3901" gradientUnits="userSpaceOnUse" x1="30.202745" y1="56.729507" x2="35.013981" y2="19.843365" />
    <linearGradient xlink:href="#linearGradient3880" id="linearGradient3903" gradientUnits="userSpaceOnUse" x1="29.993565" y1="54.846851" x2="36.094769" y2="20.854424" />
    <linearGradient y2="5" x2="-22" y1="18" x1="-18" gradientUnits="userSpaceOnUse" id="linearGradient3080" xlink:href="#linearGradient3836-0-7-7" />
    <linearGradient id="linearGradient3836-0-7-7">
      <stop style="stop-color:#a40000;stop-opacity:1" offset="0" id="stop3838-2-4-5" />
      <stop style="stop-color:#ef2929;stop-opacity:1" offset="1" id="stop3840-5-0-3" />
    </linearGradient>
    <linearGradient y2="5" x2="-22" y1="18" x1="-18" gradientUnits="userSpaceOnUse" id="linearGradient3922" xlink:href="#linearGradient3836-0-7-7" gradientTransform="matrix(0.85221122,0,0,0.85228409,-2.8500258,1.6945624)" />
    <linearGradient y2="5" x2="-22" y1="18" x1="-18" gradientUnits="userSpaceOnUse" id="linearGradient3922-7" xlink:href="#linearGradient3836-0-7-7-5" gradientTransform="matrix(0.85221122,0,0,0.85228409,-2.8500258,1.6945624)" />
    <linearGradient id="linearGradient3836-0-7-7-5">
      <stop style="stop-color:#a40000;stop-opacity:1" offset="0" id="stop3838-2-4-5-3" />
      <stop style="stop-color:#ef2929;stop-opacity:1" offset="1" id="stop3840-5-0-3-5" />
    </linearGradient>
    <linearGradient y2="5" x2="-22" y1="18" x1="-18" gradientTransform="matrix(0.85221122,0,0,0.85228409,-2.8500258,1.6945624)" gradientUnits="userSpaceOnUse" id="linearGradient3962" xlink:href="#linearGradient3836-0-7-7-5" />
    <linearGradient y2="5" x2="-22" y1="18" x1="-18" gradientUnits="userSpaceOnUse" id="linearGradient3922-1" xlink:href="#linearGradient3836-0-7-7-2" gradientTransform="matrix(0.85221122,0,0,0.85228409,-2.8500258,1.6945624)" />
    <linearGradient id="linearGradient3836-0-7-7-2">
      <stop style="stop-color:#a40000;stop-opacity:1" offset="0" id="stop3838-2-4-5-7" />
      <stop style="stop-color:#ef2929;stop-opacity:1" offset="1" id="stop3840-5-0-3-0" />
    </linearGradient>
    <linearGradient y2="5" x2="-22" y1="18" x1="-18" gradientTransform="matrix(0.85221122,0,0,0.85228409,-2.8500258,1.6945624)" gradientUnits="userSpaceOnUse" id="linearGradient3962-9" xlink:href="#linearGradient3836-0-7-7-2" />
  </defs>
  <metadata id="metadata2923">
    <rdf:RDF>
      <cc:Work rdf:about="">
        <dc:format>image/svg+xml</dc:format>
        <dc:type rdf:resource="http://purl.org/dc/dcmitype/StillImage" />
        <dc:creator>
          <cc:Agent>
            <dc:title>[Abdullah Tahiri]</dc:title>
          </cc:Agent>
        </dc:creator>
        <dc:date>2014-11-11</dc:date>
        <dc:relation>http://www.freecad.org/wiki/index.php?title=Artwork</dc:relation>
        <dc:publisher>
          <cc:Agent>
            <dc:title>FreeCAD</dc:title>
          </cc:Agent>
        </dc:publisher>
        <dc:identifier>FreeCAD/src/Mod/Sketcher/Gui/Resources/icons/Sketcher_Element_Ellipse_Edge_1.svg</dc:identifier>
        <dc:rights>
          <cc:Agent>
            <dc:title>FreeCAD LGPL2+</dc:title>
          </cc:Agent>
        </dc:rights>
        <cc:license>https://www.gnu.org/copyleft/lesser.html</cc:license>
        <dc:contributor>
          <cc:Agent>
            <dc:title>[agryson] Alexander Gryson</dc:title>
          </cc:Agent>
        </dc:contributor>
      </cc:Work>
    </rdf:RDF>
  </metadata>
  <g id="layer1">
    <g id="g4470" transform="matrix(0.1460346,0,0,0.1460346,-220.10298,-56.296235)">
      <g id="g3896" transform="translate(-4.8153656e-6,0)">
        <path transform="matrix(4.0990202,-4.0990208,4.0990198,4.0990204,1435.7244,581.35092)" d="m 68.461342,38.286438 c 0,9.900526 -16.051925,17.926489 -35.852978,17.926489 -19.801053,0 -35.8529776,-8.025963 -35.8529776,-17.926489 0,-9.900526 16.0519246,-17.926489 35.8529776,-17.926489 19.801053,0 35.852978,8.025963 35.852978,17.926489 z" id="path3074" style="fill:none;stroke:#172a04;stroke-width:9.45016003;stroke-linecap:round;stroke-linejoin:miter;stroke-miterlimit:1.89999998;stroke-opacity:1;stroke-dasharray:none" />
        <path transform="matrix(4.2698131,-4.2698132,4.2698127,4.2698129,1423.6161,580.38115)" d="m 68.461342,38.286438 c 0,9.900526 -16.051925,17.926489 -35.852978,17.926489 -19.801053,0 -35.8529776,-8.025963 -35.8529776,-17.926489 0,-9.900526 16.0519246,-17.926489 35.8529776,-17.926489 19.801053,0 35.852978,8.025963 35.852978,17.926489 z" id="path3074-3" style="fill:none;stroke:url(#linearGradient3901);stroke-width:2.26803851;stroke-linecap:round;stroke-linejoin:miter;stroke-miterlimit:1.89999998;stroke-opacity:1;stroke-dasharray:none" />
        <path transform="matrix(3.9282278,-3.9282282,3.9282274,3.9282279,1447.8327,582.32069)" d="m 69.380444,38.286438 c 0,9.431967 -16.463421,17.078087 -36.77208,17.078087 -20.308659,0 -36.7720794,-7.64612 -36.7720794,-17.078087 0,-9.431967 16.4634204,-17.078087 36.7720794,-17.078087 20.308659,0 36.77208,7.64612 36.77208,17.078087 z" id="path3074-3-6" style="fill:none;stroke:url(#linearGradient3903);stroke-width:2.46525931;stroke-linecap:round;stroke-linejoin:miter;stroke-miterlimit:1.89999998;stroke-opacity:1;stroke-dasharray:none" />
      </g>
      <g transform="matrix(4.5913999,0,0,4.591325,1807.9815,558.76004)" id="g3797-9-4-5">
        <path style="fill:#ef2929;stroke:#280000;stroke-width:2.98285842;stroke-miterlimit:4;stroke-opacity:1;stroke-dasharray:none" id="path4250-71-8-6" d="m -26.070652,5.662872 a 8.9452063,8.9447998 0.02049963 1 1 13.588566,11.63638 8.9452063,8.9447998 0.02049963 1 1 -13.588566,-11.63638 z" />
        <path style="fill:url(#linearGradient3922);fill-opacity:1;stroke:#ef2929;stroke-width:2.9828577;stroke-miterlimit:4;stroke-opacity:1;stroke-dasharray:none" id="path4250-7-3-8-2" d="m -23.843046,7.5698578 a 5.9654783,5.9659886 0 1 1 9.062062,7.7612492 5.9654783,5.9659886 0 0 1 -9.062062,-7.7612492 z" />
      </g>
      <g transform="matrix(4.5913999,0,0,4.591325,1732.6569,483.43542)" id="g3797-9-4-5-6">
        <path style="fill:#ef2929;stroke:#280000;stroke-width:2.98285842;stroke-miterlimit:4;stroke-opacity:1;stroke-dasharray:none" id="path4250-71-8-6-2" d="m -26.070652,5.662872 a 8.9452063,8.9447998 0.02049963 1 1 13.588566,11.63638 8.9452063,8.9447998 0.02049963 1 1 -13.588566,-11.63638 z" />
        <path style="fill:url(#linearGradient3962);fill-opacity:1;stroke:#ef2929;stroke-width:2.9828577;stroke-miterlimit:4;stroke-opacity:1;stroke-dasharray:none" id="path4250-7-3-8-2-9" d="m -23.843046,7.5698578 a 5.9654783,5.9659886 0 1 1 9.062062,7.7612492 5.9654783,5.9659886 0 0 1 -9.062062,-7.7612492 z" />
      </g>
      <g transform="matrix(4.5913999,0,0,4.591325,1958.6307,394.41542)" id="g3797-9-4-5-3">
        <path style="fill:#ef2929;stroke:#280000;stroke-width:2.98285842;stroke-miterlimit:4;stroke-opacity:1;stroke-dasharray:none" id="path4250-71-8-6-6" d="m -26.070652,5.662872 a 8.9452063,8.9447998 0.02049963 1 1 13.588566,11.63638 8.9452063,8.9447998 0.02049963 1 1 -13.588566,-11.63638 z" />
        <path style="fill:url(#linearGradient3962-9);fill-opacity:1;stroke:#ef2929;stroke-width:2.9828577;stroke-miterlimit:4;stroke-opacity:1;stroke-dasharray:none" id="path4250-7-3-8-2-0" d="m -23.843046,7.5698578 a 5.9654783,5.9659886 0 1 1 9.062062,7.7612492 5.9654783,5.9659886 0 0 1 -9.062062,-7.7612492 z" />
      </g>
    </g>
  </g>
</svg>
