<?xml version="1.0" encoding="UTF-8" standalone="no"?>
<!-- Created with Inkscape (http://www.inkscape.org/) -->

<svg width="64px" height="64px" id="svg2918" version="1.1" xmlns:xlink="http://www.w3.org/1999/xlink" xmlns="http://www.w3.org/2000/svg" xmlns:svg="http://www.w3.org/2000/svg" xmlns:rdf="http://www.w3.org/1999/02/22-rdf-syntax-ns#" xmlns:cc="http://creativecommons.org/ns#" xmlns:dc="http://purl.org/dc/elements/1.1/">
  <defs id="defs2920">
    <linearGradient id="linearGradient3144">
      <stop style="stop-color:#ffffff;stop-opacity:1" offset="0" id="stop3146" />
      <stop style="stop-color:#ffffff;stop-opacity:0" offset="1" id="stop3148" />
    </linearGradient>
    <linearGradient id="linearGradient3144-3">
      <stop style="stop-color:#ffffff;stop-opacity:1" offset="0" id="stop3146-1" />
      <stop style="stop-color:#ffffff;stop-opacity:0" offset="1" id="stop3148-5" />
    </linearGradient>
    <radialGradient xlink:href="#linearGradient3144" id="radialGradient3958" gradientUnits="userSpaceOnUse" gradientTransform="matrix(1,0,0,0.6985294,0,202.82863)" cx="225.26402" cy="672.79736" fx="225.26402" fy="672.79736" r="34.345188" />
    <radialGradient xlink:href="#linearGradient3144-3" id="radialGradient3960" gradientUnits="userSpaceOnUse" gradientTransform="matrix(1,0,0,0.6985294,0,202.82863)" cx="225.26402" cy="672.79736" fx="225.26402" fy="672.79736" r="34.345188" />
    <radialGradient xlink:href="#linearGradient3144" id="radialGradient3042" gradientUnits="userSpaceOnUse" gradientTransform="matrix(1,0,0,0.6985294,0,202.82863)" cx="225.26402" cy="672.79736" fx="225.26402" fy="672.79736" r="34.345188" />
    <radialGradient xlink:href="#linearGradient3144" id="radialGradient3068" gradientUnits="userSpaceOnUse" gradientTransform="matrix(1,0,0,0.6985294,0,202.82863)" cx="225.26402" cy="672.79736" fx="225.26402" fy="672.79736" r="34.345188" />
    <radialGradient xlink:href="#linearGradient3144-3" id="radialGradient3855" gradientUnits="userSpaceOnUse" gradientTransform="matrix(1,0,0,0.6985294,0,202.82863)" cx="225.26402" cy="672.79736" fx="225.26402" fy="672.79736" r="34.345188" />
    <radialGradient xlink:href="#linearGradient3144" id="radialGradient3877" gradientUnits="userSpaceOnUse" gradientTransform="matrix(1,0,0,0.6985294,0,202.82863)" cx="225.26402" cy="672.79736" fx="225.26402" fy="672.79736" r="34.345188" />
    <linearGradient xlink:href="#linearGradient3836-9-3" id="linearGradient3262" gradientUnits="userSpaceOnUse" x1="-18" y1="18" x2="-22" y2="5" />
    <linearGradient id="linearGradient3836-9-3">
      <stop style="stop-color:#a40000;stop-opacity:1" offset="0" id="stop3838-8-5" />
      <stop style="stop-color:#ef2929;stop-opacity:1" offset="1" id="stop3840-1-6" />
    </linearGradient>
    <linearGradient xlink:href="#linearGradient3186" id="linearGradient3264" gradientUnits="userSpaceOnUse" x1="-18" y1="18" x2="-22" y2="5" />
    <linearGradient id="linearGradient3186">
      <stop id="stop3188" offset="0" style="stop-color:#4e9a06;stop-opacity:1" />
      <stop id="stop3190" offset="1" style="stop-color:#8ae234;stop-opacity:1" />
    </linearGradient>
    <linearGradient xlink:href="#linearGradient3186" id="linearGradient3075" gradientUnits="userSpaceOnUse" x1="-18" y1="18" x2="-22" y2="5" />
    <linearGradient xlink:href="#linearGradient3836-9-3" id="linearGradient3077" gradientUnits="userSpaceOnUse" x1="-18" y1="18" x2="-22" y2="5" />
    <linearGradient xlink:href="#linearGradient3836-9-3-7" id="linearGradient3077-1" gradientUnits="userSpaceOnUse" x1="-18" y1="18" x2="-22" y2="5" />
    <linearGradient id="linearGradient3836-9-3-7">
      <stop style="stop-color:#a40000;stop-opacity:1" offset="0" id="stop3838-8-5-4" />
      <stop style="stop-color:#ef2929;stop-opacity:1" offset="1" id="stop3840-1-6-0" />
    </linearGradient>
    <linearGradient y2="5" x2="-22" y1="18" x1="-18" gradientUnits="userSpaceOnUse" id="linearGradient3096" xlink:href="#linearGradient3836-9-3-7" />
    <linearGradient y2="5" x2="-22" y1="18" x1="-18" gradientUnits="userSpaceOnUse" id="linearGradient3096-8" xlink:href="#linearGradient3836-9-3-7-2" />
    <linearGradient id="linearGradient3836-9-3-7-2">
      <stop style="stop-color:#a40000;stop-opacity:1" offset="0" id="stop3838-8-5-4-4" />
      <stop style="stop-color:#ef2929;stop-opacity:1" offset="1" id="stop3840-1-6-0-5" />
    </linearGradient>
    <linearGradient y2="5" x2="-22" y1="18" x1="-18" gradientUnits="userSpaceOnUse" id="linearGradient3136" xlink:href="#linearGradient3836-9-3-7-2" />
    <linearGradient y2="5" x2="-22" y1="18" x1="-18" gradientUnits="userSpaceOnUse" id="linearGradient3136-2" xlink:href="#linearGradient3836-9-3-7-2-7" />
    <linearGradient id="linearGradient3836-9-3-7-2-7">
      <stop style="stop-color:#a40000;stop-opacity:1" offset="0" id="stop3838-8-5-4-4-6" />
      <stop style="stop-color:#ef2929;stop-opacity:1" offset="1" id="stop3840-1-6-0-5-1" />
    </linearGradient>
    <linearGradient y2="5" x2="-22" y1="18" x1="-18" gradientUnits="userSpaceOnUse" id="linearGradient3203" xlink:href="#linearGradient3836-9-3-7-2-7" />
    <linearGradient y2="5" x2="-22" y1="18" x1="-18" gradientUnits="userSpaceOnUse" id="linearGradient3203-2" xlink:href="#linearGradient3836-9-3-7-2-7-2" />
    <linearGradient id="linearGradient3836-9-3-7-2-7-2">
      <stop style="stop-color:#a40000;stop-opacity:1" offset="0" id="stop3838-8-5-4-4-6-1" />
      <stop style="stop-color:#ef2929;stop-opacity:1" offset="1" id="stop3840-1-6-0-5-1-6" />
    </linearGradient>
    <linearGradient y2="5" x2="-22" y1="18" x1="-18" gradientUnits="userSpaceOnUse" id="linearGradient3245" xlink:href="#linearGradient3836-9-3-7-2-7-2" />
  </defs>
  <metadata id="metadata2923">
    <rdf:RDF>
      <cc:Work rdf:about="">
        <dc:format>image/svg+xml</dc:format>
        <dc:type rdf:resource="http://purl.org/dc/dcmitype/StillImage" />
        <dc:creator>
          <cc:Agent>
            <dc:title>[Abdullah Tahiri]</dc:title>
          </cc:Agent>
        </dc:creator>
        <dc:date>2014-11-11</dc:date>
        <dc:relation>http://www.freecad.org/wiki/index.php?title=Artwork</dc:relation>
        <dc:publisher>
          <cc:Agent>
            <dc:title>FreeCAD</dc:title>
          </cc:Agent>
        </dc:publisher>
        <dc:identifier>FreeCAD/src/Mod/Sketcher/Gui/Resources/icons/Sketcher_Element_Elliptical_Arc_Start_Point.svg</dc:identifier>
        <dc:rights>
          <cc:Agent>
            <dc:title>FreeCAD LGPL2+</dc:title>
          </cc:Agent>
        </dc:rights>
        <cc:license>https://www.gnu.org/copyleft/lesser.html</cc:license>
        <dc:contributor>
          <cc:Agent>
            <dc:title>[agryson] Alexander Gryson</dc:title>
          </cc:Agent>
        </dc:contributor>
      </cc:Work>
    </rdf:RDF>
  </metadata>
  <g id="layer1">
    <g id="g4470" transform="matrix(0.1460346,0,0,0.1460346,-220.10298,-56.296235)">
      <path style="fill:none;stroke:#2e3436;stroke-width:54.7815361;stroke-linecap:butt;stroke-linejoin:miter;stroke-opacity:1" d="m 1726.6005,467.67157 c 0,0 -211.6653,189.43271 -109.2466,280.64105 102.4187,91.20835 204.8373,-28.0641 204.8373,-28.0641" id="path3159" />
      <path style="fill:none;stroke:#d3d7cf;stroke-width:27.39076996;stroke-linecap:butt;stroke-linejoin:miter;stroke-opacity:1" d="m 1726.6005,467.67157 c 0,0 -211.6653,189.43271 -109.2466,280.64105 102.4187,91.20835 204.8373,-28.0641 204.8373,-28.0641" id="path3159-1" />
      <path style="fill:none;stroke:#ffffff;stroke-width:13.69538498;stroke-linecap:butt;stroke-linejoin:miter;stroke-opacity:1" d="m 1719.7529,460.82391 c 0,0 -211.6653,189.43271 -109.2466,280.64105 102.4187,91.20835 204.8373,-28.0641 204.8373,-28.0641" id="path3159-15" />
      <g transform="matrix(6.8476923,0,0,6.8476923,1858.6356,389.40446)" id="g3797-7-2-3">
        <path style="fill:#8ae234;stroke:#172a04;stroke-width:1.99999988;stroke-miterlimit:4;stroke-opacity:1;stroke-dasharray:none" id="path4250-6-9-5" d="M -26.156204,5.582626 A 8.993818,8.9934077 0.02042283 1 1 -12.493793,17.282241 8.993818,8.9934077 0.02042283 1 1 -26.156204,5.582626 z" />
        <path style="fill:url(#linearGradient3075);fill-opacity:1;stroke:#8ae234;stroke-width:1.99999952;stroke-miterlimit:4;stroke-opacity:1;stroke-dasharray:none" id="path4250-7-0-1-6" d="M -24.633588,6.893588 A 6.9999997,7.0000001 0 1 1 -14,16 6.9999997,7.0000001 0 0 1 -24.633588,6.893588 z" />
      </g>
      <g transform="matrix(6.8476923,0,0,6.8476923,1749.0726,663.31215)" id="g3797-7-2-9">
        <path style="fill:#ef2929;stroke:#280000;stroke-width:1.99999988;stroke-miterlimit:4;stroke-opacity:1;stroke-dasharray:none" id="path4250-6-9-4" d="M -26.156204,5.582626 A 8.993818,8.9934077 0.02042283 1 1 -12.493793,17.282241 8.993818,8.9934077 0.02042283 1 1 -26.156204,5.582626 z" />
        <path style="fill:url(#linearGradient3096);fill-opacity:1;stroke:#ef2929;stroke-width:1.99999952;stroke-miterlimit:4;stroke-opacity:1;stroke-dasharray:none" id="path4250-7-0-1-8" d="M -24.633588,6.893588 A 6.9999997,7.0000001 0 1 1 -14,16 6.9999997,7.0000001 0 0 1 -24.633588,6.893588 z" />
      </g>
      <g transform="matrix(6.8476923,0,0,6.8476923,1968.238,485.27215)" id="g3797-7-2-9-5-4">
        <path style="fill:#ef2929;stroke:#280000;stroke-width:1.99999988;stroke-miterlimit:4;stroke-opacity:1;stroke-dasharray:none" id="path4250-6-9-4-1-2" d="M -26.156204,5.582626 A 8.993818,8.9934077 0.02042283 1 1 -12.493793,17.282241 8.993818,8.9934077 0.02042283 1 1 -26.156204,5.582626 z" />
        <path style="fill:url(#linearGradient3203);fill-opacity:1;stroke:#ef2929;stroke-width:1.99999952;stroke-miterlimit:4;stroke-opacity:1;stroke-dasharray:none" id="path4250-7-0-1-8-7-3" d="M -24.633588,6.893588 A 6.9999997,7.0000001 0 1 1 -14,16 6.9999997,7.0000001 0 0 1 -24.633588,6.893588 z" />
      </g>
      <g transform="matrix(6.8476923,0,0,6.8476923,1954.5426,635.92138)" id="g3797-7-2-9-5-4-8">
        <path style="fill:#ef2929;stroke:#280000;stroke-width:1.99999988;stroke-miterlimit:4;stroke-opacity:1;stroke-dasharray:none" id="path4250-6-9-4-1-2-5" d="M -26.156204,5.582626 A 8.993818,8.9934077 0.02042283 1 1 -12.493793,17.282241 8.993818,8.9934077 0.02042283 1 1 -26.156204,5.582626 z" />
        <path style="fill:url(#linearGradient3245);fill-opacity:1;stroke:#ef2929;stroke-width:1.99999952;stroke-miterlimit:4;stroke-opacity:1;stroke-dasharray:none" id="path4250-7-0-1-8-7-3-7" d="M -24.633588,6.893588 A 6.9999997,7.0000001 0 1 1 -14,16 6.9999997,7.0000001 0 0 1 -24.633588,6.893588 z" />
      </g>
    </g>
  </g>
</svg>
