<?xml version="1.0" encoding="UTF-8" standalone="no"?>
<!DOCTYPE svg PUBLIC "-//W3C//DTD SVG 1.1//EN" "http://www.w3.org/Graphics/SVG/1.1/DTD/svg11.dtd">
<svg width="280px" height="200px" version="1.1" xmlns="http://www.w3.org/2000/svg" xmlns:xlink="http://www.w3.org/1999/xlink" xml:space="preserve" style="fill-rule:evenodd;clip-rule:evenodd;">
    <path d="M110,199.498744A100,100 0 0 1 100,200A100,100 0 0 1 100,0A100,100 0 0 1 110,0.501256L110,30.501256A70,70 0 0 0 100,30A70,70 0 0 0 100,170A70,70 0 0 0 110,169.498744Z" fill="black"/>
    <path d="M280,199.498744A100,100 0 0 1 270,200A100,100 0 0 1 270,0A100,100 0 0 1 280,0.501256L280,30.501256A70,70 0 0 0 270,30A70,70 0 0 0 201.620283,85L260,85L260,115L201.620283,115A70,70 0 0 0 270,170A70,70 0 0 0 280,169.498744Z" fill="black"/>
</svg>
