<?xml version="1.0" encoding="UTF-8" standalone="no"?>
<svg xmlns="http://www.w3.org/2000/svg" xmlns:svg="http://www.w3.org/2000/svg" xmlns:xlink="http://www.w3.org/1999/xlink" viewBox="0 0 500 420" role="img" aria-labelledby="title-fcc-logo">
<title id="title-fcc-logo">Federal Communications Commission Official Logo</title>
  <defs>
    <style>
      .a {
        fill: #1c3664;
      }
    </style>
  </defs>
  <path class="a" d="M494.82,366.39A164.38,164.38,0,0,1,262.65,133.62a163.89,163.89,0,0,1,232.17,0,169.11,169.11,0,0,1,17.48,20.75l36.44-26.95A209.05,209.05,0,0,0,378.75,40c-108.13,0-197.06,82.12-208.27,187.54H90.91V90.16H190L226,40H48.74V460l42.17-31V272.49h79.57C181.69,377.89,270.62,460,378.75,460a208.94,208.94,0,0,0,170-87.41l-36.44-27A169.2,169.2,0,0,1,494.82,366.39Z" transform="translate(-48.74 -40)"/>
  <path class="a" d="M378.75,174.62a75.22,75.22,0,0,1,61.9,32.75l36.48-27a120.24,120.24,0,0,0-98.38-51.16c-66.55,0-120.47,54.07-120.47,120.79S312.2,370.75,378.75,370.77a120.18,120.18,0,0,0,98.38-51.15l-36.48-27a75.22,75.22,0,1,1-61.9-118Z" transform="translate(-48.74 -40)"/>
</svg>
