<?xml version="1.0" encoding="UTF-8" standalone="no"?>
<svg
   version="1.2"
   id="Layer_1"
   x="0px"
   y="0px"
   viewBox="0 0 179.99999 160"
   xml:space="preserve"
   sodipodi:docname="Open-hardware.svg"
   width="180"
   height="160"
   inkscape:version="1.4 (86a8ad7, 2024-10-11)"
   xmlns:inkscape="http://www.inkscape.org/namespaces/inkscape"
   xmlns:sodipodi="http://sodipodi.sourceforge.net/DTD/sodipodi-0.dtd"
   xmlns="http://www.w3.org/2000/svg"
   xmlns:svg="http://www.w3.org/2000/svg"><defs
   id="defs17" /><sodipodi:namedview
   id="namedview17"
   pagecolor="#ffffff"
   bordercolor="#000000"
   borderopacity="0.25"
   inkscape:showpageshadow="2"
   inkscape:pageopacity="0.0"
   inkscape:pagecheckerboard="0"
   inkscape:deskcolor="#d1d1d1"
   inkscape:zoom="2.642948"
   inkscape:cx="-29.701682"
   inkscape:cy="51.268508"
   inkscape:window-width="3840"
   inkscape:window-height="1571"
   inkscape:window-x="-9"
   inkscape:window-y="-9"
   inkscape:window-maximized="1"
   inkscape:current-layer="Layer_1" />
<path
   fill="#0099b0"
   d="m 177.84918,76.481533 -21.80944,-4.055688 c -0.53068,-0.09949 -1.11176,-0.598335 -1.29088,-1.110437 l -6.68518,-15.596555 c -0.24941,-0.48159 -0.20165,-1.237801 0.10615,-1.686223 l 12.70702,-18.520577 c 0.30381,-0.445767 0.24411,-1.123706 -0.13931,-1.507118 l -15.87118,-15.87118 c -0.38341,-0.383413 -1.06002,-0.445768 -1.50579,-0.139303 l -18.84562,12.932564 c -0.44578,0.306467 -1.20994,0.36086 -1.69418,0.122056 l -15.11896,-6.189004 c -0.51341,-0.169816 -1.01358,-0.744273 -1.11441,-1.276276 L 102.38844,1.0261021 c -0.0983,-0.53200252 -0.62221,-0.96715672 -1.1635,-0.96715672 H 78.77736 c -0.539962,0 -1.064004,0.4351542 -1.162179,0.96715672 L 73.417538,23.583792 c -0.10083,0.532003 -0.599664,1.10646 -1.114419,1.276276 l -15.120274,6.189004 c -0.485567,0.238804 -1.249741,0.184411 -1.694181,-0.122056 L 36.644374,17.994452 c -0.447094,-0.306465 -1.125032,-0.24411 -1.507118,0.139303 L 19.26475,34.004935 c -0.382088,0.383412 -0.445769,1.061351 -0.139303,1.507118 L 31.833799,54.03263 c 0.305139,0.448422 0.3529,1.204633 0.104813,1.686223 l -6.686516,15.596555 c -0.177776,0.512102 -0.757539,1.010936 -1.290869,1.110437 L 2.153116,76.481533 c -0.5333288,0.100831 -0.9671559,0.623544 -0.9671559,1.164835 l 0.00134,22.446252 c 0,0.54128 0.4351533,1.06798 0.967156,1.16484 l 21.2734559,3.95884 c 0.532002,0.0969 1.101151,0.6023 1.263006,1.11839 l 6.641406,16.59025 c 0.237478,0.48691 0.181755,1.24841 -0.126036,1.69418 l -12.083482,17.60914 c -0.30514,0.44577 -0.242785,1.12503 0.139302,1.50844 l 15.873832,15.87119 c 0.382087,0.38076 1.060025,0.44311 1.507119,0.13931 L 53.94043,147.87465 c 0.445766,-0.30514 1.192692,-0.32903 1.658362,-0.057 l 7.628461,4.07292 c 0.482914,0.24678 1.046757,0.0384 1.253719,-0.46168 l 15.729231,-38.00573 c 0.208284,-0.50015 0,-1.1383 -0.461692,-1.42087 l -1.909108,-1.16883 c -0.352898,-0.21492 -0.831832,-0.58507 -1.207286,-0.9247 -6.886841,-4.40991 -11.455958,-12.124615 -11.455958,-20.909947 0,-13.710003 11.114999,-24.823675 24.823676,-24.823675 13.708685,0 24.822345,11.113672 24.822345,24.823675 0,8.785332 -4.56778,16.500037 -11.45595,20.909947 -0.37279,0.33963 -0.85307,0.70978 -1.20463,0.9247 l -1.9091,1.16883 c -0.459047,0.28257 -0.668665,0.92072 -0.461698,1.42087 l 15.727898,38.00698 c 0.20696,0.50017 0.76947,0.70714 1.25372,0.4617 l 7.62845,-4.07294 c 0.467,-0.27197 1.21259,-0.24942 1.65836,0.057 l 17.29871,11.87254 c 0.44576,0.30382 1.12503,0.24146 1.50578,-0.13929 l 15.87384,-15.87118 c 0.38342,-0.38343 0.44577,-1.06269 0.13931,-1.50845 l -12.08482,-17.60914 c -0.30513,-0.44578 -0.36219,-1.2073 -0.12471,-1.69419 l 6.64141,-16.59024 c 0.16319,-0.51608 0.72835,-1.02155 1.26168,-1.1184 l 21.27345,-3.95883 c 0.53069,-0.0969 0.96716,-0.62355 0.96716,-1.16484 l 0.003,-22.446257 c 9.7e-4,-0.542617 -0.43382,-1.065331 -0.96449,-1.166159"
   id="path1"
   style="stroke-width:1.32669" />

















</svg>
