<?xml version="1.0" encoding="UTF-8" standalone="no"?>
<svg
   inkscape:version="1.4 (86a8ad7, 2024-10-11)"
   id="svg8"
   version="1.1"
   viewBox="0 0 132.29201 128.23599"
   height="128.23599mm"
   width="132.29201mm"
   sodipodi:docname="Recycling.svg"
   xmlns:inkscape="http://www.inkscape.org/namespaces/inkscape"
   xmlns:sodipodi="http://sodipodi.sourceforge.net/DTD/sodipodi-0.dtd"
   xmlns="http://www.w3.org/2000/svg"
   xmlns:svg="http://www.w3.org/2000/svg"
   xmlns:rdf="http://www.w3.org/1999/02/22-rdf-syntax-ns#"
   xmlns:cc="http://creativecommons.org/ns#"
   xmlns:dc="http://purl.org/dc/elements/1.1/">
  <defs
     id="defs2" />
  <sodipodi:namedview
     inkscape:window-maximized="1"
     inkscape:window-y="-9"
     inkscape:window-x="-9"
     inkscape:window-height="1571"
     inkscape:window-width="3840"
     showgrid="false"
     inkscape:document-rotation="0"
     inkscape:current-layer="layer1"
     inkscape:document-units="mm"
     inkscape:cy="282.0851"
     inkscape:cx="180.56477"
     inkscape:zoom="1.979899"
     inkscape:pageshadow="2"
     inkscape:pageopacity="0.0"
     borderopacity="1.0"
     bordercolor="#666666"
     pagecolor="#ffffff"
     id="base"
     inkscape:showpageshadow="2"
     inkscape:pagecheckerboard="0"
     inkscape:deskcolor="#d1d1d1" />
  <metadata
     id="metadata5">
    <rdf:RDF>
      <cc:Work
         rdf:about="">
        <dc:format>image/svg+xml</dc:format>
        <dc:type
           rdf:resource="http://purl.org/dc/dcmitype/StillImage" />
        <dc:title />
      </cc:Work>
    </rdf:RDF>
  </metadata>
  <g
     id="layer1"
     inkscape:groupmode="layer"
     inkscape:label="Livello 1">
    <path
       id="path11522"
       style="fill:#000000;fill-opacity:1;stroke-width:0.264583"
       d="m 52.431641,0.203125 c 4.110219,2.6929335 7.474866,6.3575946 10.574218,10.130859 5.946109,7.434995 10.343748,15.967083 14.074219,24.69336 -3.285545,1.789818 -6.567425,3.586465 -9.851562,5.378906 10.663411,-0.02279 21.326823,-0.04557 31.990234,-0.06836 4.93815,-8.796875 9.8763,-17.59375 14.81445,-26.390625 -2.56779,1.638535 -5.13489,3.278164 -7.70312,4.916015 -1.85758,-3.218197 -3.62851,-6.490498 -5.54125,-9.6743293 C 98.528242,5.8039719 95.847214,2.3494746 91.873047,0.9453125 89.940098,0.21647498 87.863435,0.04359075 85.801567,0.13734625 74.678258,0.1592725 63.554949,0.18119875 52.431641,0.203125 Z m -9.271485,0.66796875 c -2.036839,0.0932955 -4.069805,0.56251605 -6,1.28125005 C 32.432292,9.2376302 27.704427,16.322917 22.976562,23.408203 32.153646,29.167318 41.330729,34.926432 50.507812,40.685547 54.959635,32.141276 59.411458,23.597005 63.863281,15.052734 60.590514,10.499436 57.057577,5.8451446 52.083984,3.03125 49.378991,1.5113266 46.275262,0.70278448 43.160156,0.87109375 Z m 47.8125,56.78906225 c 4.579427,8.440104 9.158854,16.880209 13.738284,25.320313 3.90649,0.01533 7.81557,0.140948 11.72049,0.08867 3.59516,-0.411127 6.76616,-2.431907 9.50516,-4.703348 2.66238,-2.330563 5.17964,-5.201364 6.0556,-8.727118 0.17045,-0.900149 0.3512,-1.830933 -0.24571,-2.621659 C 127.39609,58.301707 123.0457,49.5864 118.69531,40.871094 109.45443,46.467448 100.21354,52.063802 90.972656,57.660156 Z M 10.779297,46.873047 c 0.147124,0.398039 -0.471644,1.035055 -0.605688,1.520641 C 6.8305833,55.211677 3.4875573,62.029667 0.14453125,68.847656 2.3950501,74.673588 6.6800582,79.975978 12.585938,82.291016 c 1.322348,0.518396 2.697897,0.966636 4.136493,0.848267 3.255283,0.05644 6.510567,0.112874 9.76585,0.169311 3.300925,-6.969333 6.600703,-13.939211 9.902344,-20.908203 3.323473,1.98865 6.64574,3.979322 9.96875,5.96875 -4.953776,-8.995443 -9.907552,-17.990886 -14.861328,-26.986329 -10.238932,0 -20.477865,10e-7 -30.716797,0 3.3326823,1.830079 6.6653646,3.660157 9.998047,5.490235 z m 58.726562,55.011723 c 4.873047,8.61783 9.746094,17.23567 14.619141,25.85351 0.02316,-3.49869 0.04337,-6.99742 0.06836,-10.49609 5.56437,-0.0793 11.228696,0.38867 16.648331,-1.07365 4.9498,-1.21682 9.41665,-4.09037 12.67355,-7.97248 4.35283,-5.12779 7.15424,-11.320089 9.98078,-17.36364 1.89767,-4.105488 3.74192,-8.234058 5.71492,-12.305076 -3.52042,3.881772 -8.64902,6.08989 -13.8293,6.467469 -10.39609,0.02312 -20.792186,0.04701 -31.188281,0.06964 -0.02479,-3.135395 -0.04524,-6.270837 -0.06836,-9.40625 -4.873047,8.742188 -9.746094,17.484375 -14.619141,26.226567 z M 2.7695312,80.039062 c 4.6039815,9.065101 8.8258468,18.481668 15.3129318,26.410078 4.029049,4.92353 9.223273,9.17628 15.399959,11.02938 8.535413,-0.004 17.079188,0.008 25.609375,-0.006 0.02344,-10.73959 0.04687,-21.47917 0.07031,-32.218754 -14.806427,-7.94e-4 -29.614741,0.01235 -44.419921,-0.0625 C 11.914016,84.880682 9.3982575,83.362707 7.0214844,81.902344 5.1429451,80.686501 3.3414113,79.344248 1.6542969,77.875 c 0.3717448,0.721354 0.7434896,1.442708 1.1152343,2.164062 z" />
  </g>
</svg>
