<?xml version="1.0" encoding="UTF-8" standalone="no"?>
<svg
   version="1.0"
   width="524px"
   height="672px"
   viewBox="-1 -1 262 336"
   id="svg3"
   sodipodi:docname="Tidyman.svg"
   inkscape:version="1.4 (86a8ad7, 2024-10-11)"
   xmlns:inkscape="http://www.inkscape.org/namespaces/inkscape"
   xmlns:sodipodi="http://sodipodi.sourceforge.net/DTD/sodipodi-0.dtd"
   xmlns="http://www.w3.org/2000/svg"
   xmlns:svg="http://www.w3.org/2000/svg">
  <sodipodi:namedview
     id="namedview3"
     pagecolor="#ffffff"
     bordercolor="#000000"
     borderopacity="0.25"
     inkscape:showpageshadow="2"
     inkscape:pageopacity="0.0"
     inkscape:pagecheckerboard="0"
     inkscape:deskcolor="#d1d1d1"
     inkscape:zoom="4"
     inkscape:cx="126.875"
     inkscape:cy="288.125"
     inkscape:window-width="3840"
     inkscape:window-height="1571"
     inkscape:window-x="-9"
     inkscape:window-y="-9"
     inkscape:window-maximized="1"
     inkscape:current-layer="svg3" />
  <defs
     id="defs1" />
  <path
     id="path1"
     style="stroke-linecap:round;stroke-linejoin:round"
     d="M 7.25 160 A 7.0007 7.0007 0 0 0 1.2695312 163.52734 A 7.0007 7.0007 0 0 0 7.25 174 L 8.2236328 174 L 17.067383 222.68457 A 4.0004 4.0004 0 0 0 17.064453 222.71094 L 21.763672 248.71094 A 4.0004 4.0004 0 0 0 21.817383 248.83496 L 35.964844 326.71484 A 4.0004 4.0004 0 0 0 39.900391 330 L 59.900391 330 L 76 330 L 114 330 A 4.0004 4.0004 0 0 0 117.98242 326.37891 L 122.89941 274.59082 A 4.0004 4.0004 0 0 0 122.98633 274.33789 L 123.50195 268.23926 L 127.81445 222.82227 A 4.0004 4.0004 0 0 0 127.98828 222.30664 L 128.52344 215.35352 L 132.44922 174 L 133 174 A 7.0007 7.0007 0 0 0 133 160 L 7.25 160 z M 16.354492 174 L 37.037109 174 L 39.267578 192 L 19.624023 192 L 16.354492 174 z M 45.097656 174 L 67.12207 174 L 67.699219 192 L 47.328125 192 L 45.097656 174 z M 75.12793 174 L 96.75 174 L 96.117188 192 L 75.705078 192 L 75.12793 174 z M 104.75684 174 L 124.41211 174 L 122.70312 192 L 104.12305 192 L 104.75684 174 z M 21.077148 200 L 40.257812 200 L 42.488281 218 L 24.34668 218 L 21.077148 200 z M 48.320312 200 L 67.957031 200 L 68.533203 218 L 50.550781 218 L 48.320312 200 z M 75.960938 200 L 95.833984 200 L 95.201172 218 L 76.539062 218 L 75.960938 200 z M 103.83984 200 L 121.67969 200 L 120.55176 214.66406 L 120.23438 218 L 103.20703 218 L 103.83984 200 z M 25.799805 226 L 43.478516 226 L 45.708984 244 L 29.069336 244 L 25.799805 226 z M 51.541016 226 L 68.791016 226 L 69.367188 244 L 53.771484 244 L 51.541016 226 z M 76.794922 226 L 94.919922 226 L 94.285156 244 L 77.373047 244 L 76.794922 226 z M 102.92578 226 L 119.47559 226 L 117.7666 244 L 102.29102 244 L 102.92578 226 z M 30.523438 252 L 46.701172 252 L 48.929688 270 L 33.792969 270 L 30.523438 252 z M 54.761719 252 L 69.625 252 L 70.201172 270 L 56.992188 270 L 54.761719 252 z M 77.628906 252 L 94.003906 252 L 93.369141 270 L 78.207031 270 L 77.628906 252 z M 102.00977 252 L 116.84766 252 L 115.53906 267.46387 L 115.29785 270 L 101.375 270 L 102.00977 252 z M 35.369141 278 L 49.921875 278 L 52.152344 296 L 38.554688 296 L 35.369141 278 z M 57.984375 278 L 70.458984 278 L 71.035156 296 L 60.214844 296 L 57.984375 278 z M 78.462891 278 L 93.087891 278 L 92.453125 296 L 79.039062 296 L 78.462891 278 z M 101.09375 278 L 114.53906 278 L 112.83008 296 L 100.45898 296 L 101.09375 278 z M 39.96875 304 L 53.142578 304 L 55.373047 322 L 43.238281 322 L 39.96875 304 z M 61.205078 304 L 71.292969 304 L 71.869141 322 L 63.435547 322 L 61.205078 304 z M 79.296875 304 L 92.171875 304 L 91.538086 322 L 79.874023 322 L 79.296875 304 z M 100.17773 304 L 112.07031 304 L 110.36133 322 L 99.543945 322 L 100.17773 304 z " />
  <path
     id="body"
     style="fill:#000000;stroke:#000000;stroke-width:4;stroke-linecap:round;stroke-linejoin:round"
     d="M 59.3,64.5 219,64.9 c 14,15.6 37,68.1 38,81.1 l -80,4 C 175,123 163,98.9 161,95.1 Z M 177,155 150,330 212,215 240,331 256,157 Z" />
  <circle
     id="head"
     style="fill:#000000;stroke:none;stroke-linecap:round;stroke-linejoin:round"
     cx="187"
     cy="31"
     r="30" />
  <path
     style="stroke-linecap:round;stroke-linejoin:round"
     d="m 109.24609,96.970703 c -0.79421,-0.362485 -1.70692,-0.361061 -2.5,0.0039 -1.84986,0.850937 -3.03914,2.094308 -4.1289,3.156247 -1.08977,1.06194 -2.11823,2.04711 -3.722659,3.00977 -3.117614,1.87056 -8.752388,3.71689 -20.46875,3.82226 -6.263444,-1.73905 -12.726678,-3.96339 -19.257812,-6.72656 C 58.798363,100.08025 58.401208,99.99989 58,100 c -1.330682,0 -2.304373,0.82946 -2.732422,1.36328 -0.428049,0.53382 -0.612182,0.95576 -0.794922,1.38086 -0.36548,0.85021 -0.636837,1.73881 -0.992187,2.82031 -0.710701,2.163 -1.68182,5.02167 -3.390625,8.29883 -3.417611,6.55432 -9.699306,14.74272 -22.855469,21.46484 -0.04487,0.11411 -0.0827,0.23087 -0.113281,0.34961 -0.120712,-0.0224 -0.242686,-0.0374 -0.365235,-0.0449 -0.962503,0.86805 -1.258699,2.25608 -0.734375,3.44141 -0.03618,0.0953 -0.06747,0.19248 -0.09375,0.29101 0.07291,0.0682 0.149174,0.13275 0.228516,0.19336 0.02134,0.0963 0.04742,0.19145 0.07813,0.28516 5.033241,6.45977 10.989442,10.08818 17.171875,11.75586 6.182433,1.66767 12.513939,1.46328 18.662109,0.75586 12.281152,-1.4131 23.970285,-4.54789 32.494141,-1.53711 0.05507,0.0394 0.102571,0.10883 0.158203,0.14453 0.395498,0.2538 0.721331,0.45045 1.419922,0.58203 0.349296,0.0658 0.764762,0.38436 2.052734,-0.30078 0.643987,-0.34257 1.482071,-1.35865 1.587891,-2.34766 0.10582,-0.98901 -0.227816,-1.58445 -0.443359,-1.93164 -0.59673,-0.96117 -0.903589,-1.1146 -1.173829,-1.19336 -0.0063,-0.14324 -0.03875,-0.15893 0.02344,-0.54492 0.431485,-2.67818 5.551013,-12.00957 28.646483,-29.85156 2.57279,-1.98666 0.5907,-6.07473 -2.5625,-5.28516 -2.02366,0.50592 -4.25276,0.86771 -6.60937,1.13086 -4.07001,-4.50723 -6.78125,-12.359372 -6.78125,-12.359372 -0.244,-0.837987 -0.8408,-1.528192 -1.63477,-1.890625 z m -2.61718,7.619137 c 0.79482,2.14181 1.62843,4.08511 3.55859,7.02735 -4.31942,0.024 -8.96982,-0.26952 -13.910156,-0.93946 2.235312,-0.7075 4.201886,-1.49183 5.703126,-2.39257 2.11097,-1.26659 3.55075,-2.62855 4.64844,-3.69532 z m -47.214848,2.17579 c 6.033918,2.44099 12.000375,4.50508 17.810547,6.11914 0.08983,0.043 0.181739,0.0814 0.275391,0.11523 0.05854,0 0.09795,-0.006 0.15625,-0.006 13.684762,3.75812 26.43026,5.18931 37.22266,4.45899 -15.97156,13.3059 -21.576898,21.16709 -22.550785,26.57421 -10.017354,-1.89109 -20.802559,1.20014 -30.945313,2.36719 -5.801829,0.66758 -11.358995,0.77569 -16.414062,-0.58789 -4.185211,-1.12894 -8.066358,-3.31122 -11.732422,-7.13672 11.937877,-6.94238 18.627778,-15.23256 22.173828,-22.0332 1.941195,-3.72284 3.044685,-6.98917 3.771485,-9.20117 0.104952,-0.31942 0.141444,-0.39747 0.232421,-0.66992 z"
     id="waste"
     sodipodi:nodetypes="scsscccsssscccccccsscssssscsccccsscccscccccccsscsscc" />
</svg>
