<?xml version="1.0" encoding="UTF-8" standalone="no"?>
<!-- Generator: Adobe Illustrator 13.0.0, SVG Export Plug-In . SVG Version: 6.00 Build 14948)  -->

<svg
   version="1.1"
   id="Foreground"
   x="0px"
   y="0px"
   width="420.487px"
   height="597.04px"
   viewBox="0 0 420.487 597.04"
   enable-background="new 0 0 420.487 597.04"
   xml:space="preserve"
   sodipodi:docname="WEEE.svg"
   inkscape:version="1.4 (86a8ad7, 2024-10-11)"
   xmlns:inkscape="http://www.inkscape.org/namespaces/inkscape"
   xmlns:sodipodi="http://sodipodi.sourceforge.net/DTD/sodipodi-0.dtd"
   xmlns="http://www.w3.org/2000/svg"
   xmlns:svg="http://www.w3.org/2000/svg"><defs
   id="defs1" /><sodipodi:namedview
   id="namedview1"
   pagecolor="#ffffff"
   bordercolor="#000000"
   borderopacity="0.25"
   inkscape:showpageshadow="2"
   inkscape:pageopacity="0.0"
   inkscape:pagecheckerboard="0"
   inkscape:deskcolor="#d1d1d1"
   inkscape:zoom="3.2048624"
   inkscape:cx="191.11585"
   inkscape:cy="67.865629"
   inkscape:window-width="3840"
   inkscape:window-height="1571"
   inkscape:window-x="-9"
   inkscape:window-y="-9"
   inkscape:window-maximized="1"
   inkscape:current-layer="Foreground" />
<path
   id="path1"
   d="M 420.48633 0 L 315.14648 107.19531 L 307.16016 107.19531 L 308.88672 88.695312 C 310.79472 89.499312 312.8918 89.943359 315.0918 89.943359 C 323.9288 89.943359 331.0918 82.779359 331.0918 73.943359 C 331.0918 65.106359 323.9288 57.943359 315.0918 57.943359 C 309.9818 57.943359 305.43095 60.339359 302.50195 64.068359 C 291.57421 51.275196 269.56629 45.526411 248.38086 42.873047 L 248.38086 36.548828 L 189.38281 36.548828 L 189.38281 41.300781 C 178.86181 41.978781 167.56581 43.314531 156.88281 45.769531 L 156.88281 44.542969 L 136.37891 44.542969 L 136.37891 52.472656 C 125.45391 57.443656 116.71728 64.432031 112.48828 74.207031 C 112.10728 75.087031 111.81861 75.874828 111.59961 76.548828 L 98.880859 76.548828 L 98.880859 88.548828 L 113.33594 88.548828 L 116.40234 124.20312 L 0 1.6113281 L 0 15.285156 L 117.7168 139.46094 L 131.05469 294.5293 L 7.3164062 420.44727 L 14.359375 427.36719 L 132.16016 307.375 L 136.9082 362.5625 C 137.1312 365.1595 139.62842 367.63595 142.23242 368.00195 L 142.23242 386.10156 L 164.4707 386.10156 L 164.4707 368.04688 L 248.99023 368.04688 C 254.78823 378.99887 266.30164 386.46094 279.55664 386.46094 C 298.64464 386.46094 314.11719 370.98744 314.11719 351.89844 C 314.11719 349.93444 313.95463 348.00877 313.64062 346.13477 L 389.46094 426.11719 L 396.62305 419.32031 L 288.66797 305.625 L 303.26172 149.03711 L 330.59375 149.03711 L 330.59375 107.19531 L 328.68164 107.19531 L 420.48633 13.681641 L 420.48633 0 z M 201.38086 48.548828 L 236.37891 48.548828 L 236.37891 54.050781 L 201.38086 54.050781 L 201.38086 48.548828 z M 189.38281 53.587891 L 189.38281 66.050781 L 248.38086 66.050781 L 248.38086 54.933594 C 269.51635 57.685914 290.87069 63.675806 296.32617 76.548828 L 156.88281 76.548828 L 156.88281 58.296875 C 167.39481 55.795875 178.93181 54.368891 189.38281 53.587891 z M 136.37695 65.628906 L 136.37695 76.548828 L 124.42969 76.548828 C 126.75369 72.164828 130.96195 68.570906 136.37695 65.628906 z M 125.42383 89.046875 L 296.79883 89.046875 L 295.10742 107.19727 L 289.875 107.19727 L 289.875 132.91211 L 260.88086 162.41602 L 260.88086 148.54102 L 187.38086 148.54102 L 187.38086 172.54102 L 250.93164 172.54102 L 205.85547 218.41016 L 129.64648 138.15039 L 125.42383 89.046875 z M 318.08789 117.98633 L 320.0918 117.98633 L 320.0918 138.24609 L 304.26562 138.24609 L 304.90234 131.41797 L 318.08789 117.98633 z M 289.875 146.72266 L 289.875 149.03711 L 291.20703 149.03711 L 277.69141 294.06641 L 212.5625 225.47461 L 289.875 146.72266 z M 130.96289 153.43359 L 199.08789 225.29883 L 142.13086 283.25977 L 130.96289 153.43359 z M 205.79297 232.37109 L 276.49219 306.94922 L 275.50195 317.57031 C 258.32295 319.57631 244.99219 334.18044 244.99219 351.89844 C 244.99219 353.30244 245.07628 354.68783 245.23828 356.04883 L 148.39062 356.04883 L 143.23242 296.0957 L 205.79297 232.37109 z M 279.55469 333.92383 C 289.48169 333.92383 297.5293 341.97044 297.5293 351.89844 C 297.5293 361.82544 289.48169 369.87305 279.55469 369.87305 C 269.62669 369.87305 261.58008 361.82544 261.58008 351.89844 C 261.58008 341.97044 269.62669 333.92383 279.55469 333.92383 z M 279.55469 340.22461 C 273.10769 340.22461 267.88086 345.45144 267.88086 351.89844 C 267.88086 358.34544 273.10769 363.57031 279.55469 363.57031 C 286.00169 363.57031 291.22852 358.34544 291.22852 351.89844 C 291.22852 345.45144 286.00169 340.22461 279.55469 340.22461 z M 33.878906 512.37891 L 33.878906 597.03906 L 381.55078 597.03906 L 381.55078 512.37891 L 33.878906 512.37891 z " />
</svg>
