<?xml version="1.0" encoding="UTF-8" standalone="no"?>
<!-- Created with Inkscape (http://www.inkscape.org/) -->

<svg
   width="64"
   height="64"
   viewBox="0 0 16.933333 16.933334"
   version="1.1"
   id="svg8"
   xmlns="http://www.w3.org/2000/svg"
   xmlns:svg="http://www.w3.org/2000/svg"
   xmlns:rdf="http://www.w3.org/1999/02/22-rdf-syntax-ns#"
   xmlns:cc="http://creativecommons.org/ns#"
   xmlns:dc="http://purl.org/dc/elements/1.1/">
  <defs
     id="defs2">
    <linearGradient
       id="linearGradient5969">
      <stop
         style="stop-color:#000000;stop-opacity:1;"
         offset="0"
         id="stop5967" />
    </linearGradient>
  </defs>
  <metadata
     id="metadata5">
    <rdf:RDF>
      <cc:Work
         rdf:about="">
        <dc:format>image/svg+xml</dc:format>
        <dc:type
           rdf:resource="http://purl.org/dc/dcmitype/StillImage" />
        <dc:title />
      </cc:Work>
    </rdf:RDF>
  </metadata>
  <g
     id="layer1"
     transform="translate(0,-280.06665)">
    <path
       style="opacity:1;fill:none;fill-opacity:1;fill-rule:nonzero;stroke:#2b2200;stroke-width:0.5;stroke-linecap:square;stroke-linejoin:bevel;stroke-miterlimit:4;stroke-dasharray:none;stroke-dashoffset:0;stroke-opacity:1"
       id="path839"
       d="m 3.4183979,291.99297 a 6.1199794,6.1199794 0 0 1 1.574944,-8.49847 a 6.1199794,6.1199794 0 0 1 8.5027211,1.5518 a 6.1199794,6.1199794 0 0 1 -1.528643,8.50692 a 6.1199794,6.1199794 0 0 1 -8.5110452,-1.50548" />
    <path
       d="m 2.0543273,292.92777 a 7.7736254,7.7736254 0 0 1 2.0005011,-10.79479 a 7.7736254,7.7736254 0 0 1 10.8001946,1.97111 a 7.7736254,7.7736254 0 0 1 -1.94169,10.80552 A 7.7736254,7.7736254 0 0 1 2.1025658,292.99735"
       id="path837"
       style="opacity:1;fill:none;fill-opacity:1;fill-rule:nonzero;stroke:#2b2200;stroke-width:0.5;stroke-linecap:square;stroke-linejoin:bevel;stroke-miterlimit:4;stroke-dasharray:none;stroke-dashoffset:0;stroke-opacity:1" />
    <path
       style="opacity:1;fill:none;fill-opacity:1;fill-rule:nonzero;stroke:#ffff00;stroke-width:1.29999995;stroke-linecap:square;stroke-linejoin:bevel;stroke-miterlimit:4;stroke-dasharray:none;stroke-dashoffset:0;stroke-opacity:1"
       id="path4508"
       d="m 2.7558475,292.47372 a 6.9231811,6.9704261 0 0 1 1.7816437,-9.67943 a 6.9231811,6.9704261 0 0 1 9.6186398,1.76745 a 6.9231811,6.9704261 0 0 1 -1.729266,9.68905 a 6.9231811,6.9704261 0 0 1 -9.6280564,-1.71468" />
    <path
       style="fill:#ffff00;fill-opacity:1;stroke:#ff0000;stroke-width:1.30731916;stroke-linecap:butt;stroke-linejoin:miter;stroke-miterlimit:4;stroke-dasharray:5.22927664, 2.61463832000000007, 1.30731916000000004, 2.61463832000000007;stroke-dashoffset:0;stroke-opacity:1"
       d="M -0.04651861,288.39186 L 18.4862,288.4857"
       id="path5989" />
    <path
       style="fill:#00ffff;fill-opacity:1;stroke:#ff0000;stroke-width:1.29999995;stroke-linecap:butt;stroke-linejoin:miter;stroke-miterlimit:4;stroke-dasharray:5.2, 2.6, 1.3, 2.6;stroke-dashoffset:10.13279915;stroke-opacity:1"
       d="M 8.4901406,278.5436 L 8.4431916,298.646"
       id="path5989-8" />
  </g>
</svg>
