<?xml version="1.0" encoding="UTF-8" standalone="no"?>
<!-- Created with Inkscape (http://www.inkscape.org/) -->

<svg
   width="64"
   height="64"
   viewBox="0 0 16.933333 16.933334"
   version="1.1"
   id="svg843"
   xmlns="http://www.w3.org/2000/svg"
   xmlns:svg="http://www.w3.org/2000/svg"
   xmlns:rdf="http://www.w3.org/1999/02/22-rdf-syntax-ns#"
   xmlns:cc="http://creativecommons.org/ns#"
   xmlns:dc="http://purl.org/dc/elements/1.1/">
  <defs
     id="defs837" />
  <metadata
     id="metadata840">
    <rdf:RDF>
      <cc:Work
         rdf:about="">
        <dc:format>image/svg+xml</dc:format>
        <dc:type
           rdf:resource="http://purl.org/dc/dcmitype/StillImage" />
      </cc:Work>
    </rdf:RDF>
  </metadata>
  <g
     id="layer1"
     transform="translate(0,-280.06665)">
    <path
       style="opacity:1;fill:none;fill-opacity:1;fill-rule:nonzero;stroke:#555753;stroke-width:1.5875;stroke-linecap:square;stroke-linejoin:bevel;stroke-miterlimit:4;stroke-dasharray:none;stroke-dashoffset:0;stroke-opacity:1"
       id="path1408-5"
       d="m -8.3959175,-284.05152 a 4.4979081,4.490078 0 0 1 -4.5680035,-4.4128 4.4979081,4.490078 0 0 1 4.4142924,-4.56604 4.4979081,4.490078 0 0 1 4.5799858,4.40041 4.4979081,4.490078 0 0 1 -4.4018593,4.57798"
       transform="scale(-1)" />
    <path
       style="opacity:1;fill:none;fill-opacity:1;fill-rule:nonzero;stroke:#d3d7cf;stroke-width:0.52916667;stroke-linecap:square;stroke-linejoin:bevel;stroke-miterlimit:4;stroke-dasharray:none;stroke-dashoffset:0;stroke-opacity:1"
       id="path3"
       d="m -8.3959175,-284.05152 a 4.4979081,4.490078 0 0 1 -4.5680035,-4.4128 4.4979081,4.490078 0 0 1 4.4142924,-4.56604 4.4979081,4.490078 0 0 1 4.5799858,4.40041 4.4979081,4.490078 0 0 1 -4.4018593,4.57798"
       transform="rotate(180,0,2.9166667e-6)" />
    <path
       style="fill:none;stroke:#555753;stroke-width:1.5875;stroke-linecap:butt;stroke-linejoin:miter;stroke-miterlimit:4;stroke-dasharray:none;stroke-dashoffset:0;stroke-opacity:1"
       d="M 16.404167,288.53332 H 0.52916667"
       id="path4"
       transform="translate(0)" />
    <path
       style="fill:none;stroke:#555753;stroke-width:1.5875;stroke-linecap:butt;stroke-linejoin:miter;stroke-miterlimit:4;stroke-dasharray:none;stroke-dashoffset:0;stroke-opacity:1"
       d="m 8.4666668,280.59582 v 15.875"
       id="path1"
       transform="translate(0)" />
    <path
       style="fill:none;stroke:#d3d7cf;stroke-width:0.529167;stroke-linecap:butt;stroke-linejoin:miter;stroke-miterlimit:4;stroke-dasharray:2.11666799,1.05833399,0.529167,1.05833399;stroke-dashoffset:0.2645835;stroke-opacity:1"
       d="M 16.404167,288.53332 H 0.52916667"
       id="path862-3" />
    <path
       style="fill:none;stroke:#d3d7cf;stroke-width:0.52916667;stroke-linecap:butt;stroke-linejoin:miter;stroke-miterlimit:4;stroke-dasharray:2.11666679,1.0583334,0.5291667,1.0583334;stroke-dashoffset:0.26458335;stroke-opacity:1"
       d="m 8.4666668,280.59582 v 15.875"
       id="path5"
       transform="translate(0)" />
    <path
       style="display:inline;opacity:1;fill:none;fill-opacity:1;fill-rule:nonzero;stroke:#0b1521;stroke-width:1.5875;stroke-linecap:square;stroke-linejoin:bevel;stroke-miterlimit:4;stroke-dasharray:none;stroke-dashoffset:0;stroke-opacity:1"
       id="path1408"
       d="m -15.344516,-288.5449 a 6.8788018,6.8794208 0 0 1 4.285934,-6.36066 6.8788018,6.8794208 0 0 1 7.5090644,1.56023 6.8788018,6.8794208 0 0 1 1.3978265,7.54164 6.8788018,6.8794208 0 0 1 -6.4510219,4.14818"
       transform="scale(-1)" />
    <path
       style="display:inline;opacity:1;fill:none;fill-opacity:1;fill-rule:nonzero;stroke:#729fcf;stroke-width:0.52916667;stroke-linecap:square;stroke-linejoin:bevel;stroke-miterlimit:4;stroke-dasharray:none;stroke-dashoffset:0;stroke-opacity:1"
       id="path2"
       d="m -15.344516,-288.5449 a 6.8788018,6.8794208 0 0 1 4.285934,-6.36066 6.8788018,6.8794208 0 0 1 7.5090644,1.56023 6.8788018,6.8794208 0 0 1 1.3978265,7.54164 6.8788018,6.8794208 0 0 1 -6.4510219,4.14818"
       transform="scale(-1)" />
  </g>
</svg>
