<?xml version="1.0" encoding="UTF-8" standalone="no"?>
<!-- Created with Inkscape (http://www.inkscape.org/) -->

<svg
   width="32"
   height="32"
   viewBox="0 0 8.4666665 8.466667"
   version="1.1"
   id="svg1876"
   style="enable-background:new"
   xmlns="http://www.w3.org/2000/svg"
   xmlns:svg="http://www.w3.org/2000/svg"
   xmlns:rdf="http://www.w3.org/1999/02/22-rdf-syntax-ns#"
   xmlns:cc="http://creativecommons.org/ns#"
   xmlns:dc="http://purl.org/dc/elements/1.1/">
  <defs
     id="defs1870">
    <filter
       style="color-interpolation-filters:sRGB"
       id="filter1958"
       x="-0.00010620934"
       y="-6.2089175e-05"
       width="1.0005706"
       height="1.0002862">
      <feBlend
         mode="exclusion"
         in2="BackgroundImage"
         id="feBlend1960" />
    </filter>
  </defs>
  <metadata
     id="metadata1873">
    <rdf:RDF>
      <cc:Work
         rdf:about="">
        <dc:format>image/svg+xml</dc:format>
        <dc:type
           rdf:resource="http://purl.org/dc/dcmitype/StillImage" />
        <dc:title />
      </cc:Work>
    </rdf:RDF>
  </metadata>
  <g
     id="layer1"
     transform="translate(0,-288.53332)"
     style="filter:url(#filter1958)">
    <g
       id="g831"
       transform="matrix(0.49268283,0,0,0.49268283,0.03005188,150.59594)">
      <path
         id="path2706"
         d="m 7.8149067,296.92628 l 0.1230796,-6.30571 l 4.1231757,-3.54695 l 4.984741,-0.0986"
         style="fill:none;stroke:#ffff00;stroke-width:0.80000001;stroke-linecap:butt;stroke-linejoin:miter;stroke-miterlimit:4;stroke-dasharray:none;stroke-opacity:1" />
      <path
         id="path2295"
         d="m 7.4670684,280.12978 l -0.024489,9.35383"
         style="fill:none;stroke:#ff0000;stroke-width:0.80000001;stroke-linecap:butt;stroke-linejoin:miter;stroke-miterlimit:4;stroke-dasharray:none;stroke-opacity:1" />
      <path
         id="path2408"
         d="m 0.01082476,282.80385 l 13.83958424,0.0626"
         style="fill:none;stroke:#ff0000;stroke-width:0.80000001;stroke-linecap:butt;stroke-linejoin:miter;stroke-miterlimit:4;stroke-dasharray:none;stroke-opacity:1" />
      <path
         transform="scale(1,-1)"
         d="m 6.5890778,-282.55716 a 0.8976934,0.8976934 0 0 1 0.6035211,-1.11583 a 0.8976934,0.8976934 0 0 1 1.1167253,0.60187 a 0.8976934,0.8976934 0 0 1 -0.6002174,1.11761 a 0.8976934,0.8976934 0 0 1 -1.118501,-0.59856"
         id="path2410"
         style="opacity:1;fill:#ff0000;fill-opacity:1;fill-rule:nonzero;stroke:#ff0000;stroke-width:1;stroke-linecap:square;stroke-linejoin:bevel;stroke-miterlimit:4;stroke-dasharray:none;stroke-dashoffset:0;stroke-opacity:1" />
      <path
         transform="scale(1,-1)"
         style="opacity:1;fill:#ff0000;fill-opacity:1;fill-rule:nonzero;stroke:#ff0000;stroke-width:1;stroke-linecap:square;stroke-linejoin:bevel;stroke-miterlimit:4;stroke-dasharray:none;stroke-dashoffset:0;stroke-opacity:1"
         id="path2450"
         d="m 11.136928,-282.58539 a 0.8976934,0.8976934 0 0 1 0.603522,-1.11583 a 0.8976934,0.8976934 0 0 1 1.116725,0.60187 a 0.8976934,0.8976934 0 0 1 -0.600218,1.11762 a 0.8976934,0.8976934 0 0 1 -1.118501,-0.59857" />
      <path
         style="fill:none;stroke:#ff0000;stroke-width:0.80000001;stroke-linecap:butt;stroke-linejoin:miter;stroke-miterlimit:4;stroke-dasharray:none;stroke-opacity:1"
         d="m 12.002708,280.13457 l -0.02475,6.07019"
         id="path2708" />
      <path
         style="fill:none;stroke:#2b2200;stroke-width:0.40000001;stroke-linecap:butt;stroke-linejoin:miter;stroke-miterlimit:4;stroke-dasharray:none;stroke-opacity:1"
         d="m 7.2943825,296.99502 l 0.1293302,-6.7075 l 4.3325563,-3.77295 l 5.237874,-0.10494"
         id="path1017" />
      <path
         id="path1019"
         d="m 8.408294,296.99625 l 0.1148742,-6.07678 l 3.8482878,-3.41817 l 4.652412,-0.095"
         style="fill:none;stroke:#2b2200;stroke-width:0.40000001;stroke-linecap:butt;stroke-linejoin:miter;stroke-miterlimit:4;stroke-dasharray:none;stroke-opacity:1" />
    </g>
  </g>
</svg>
