<?xml version="1.0" encoding="UTF-8" standalone="no"?>
<svg
   version="1.1"
   id="svg5821"
   height="64px"
   width="64px"
   xmlns:xlink="http://www.w3.org/1999/xlink"
   xmlns="http://www.w3.org/2000/svg"
   xmlns:svg="http://www.w3.org/2000/svg"
   xmlns:rdf="http://www.w3.org/1999/02/22-rdf-syntax-ns#"
   xmlns:cc="http://creativecommons.org/ns#"
   xmlns:dc="http://purl.org/dc/elements/1.1/">
  <defs
     id="defs5823">
    <linearGradient
       id="linearGradient4">
      <stop
         style="stop-color:#c4a000;stop-opacity:1;"
         offset="0"
         id="stop4" />
      <stop
         style="stop-color:#fce94f;stop-opacity:1;"
         offset="1"
         id="stop5" />
    </linearGradient>
    <linearGradient
       id="linearGradient6349">
      <stop
         id="stop6351"
         offset="0"
         style="stop-color:#000000;stop-opacity:1;" />
      <stop
         id="stop6353"
         offset="1"
         style="stop-color:#000000;stop-opacity:0;" />
    </linearGradient>
    <linearGradient
       id="linearGradient3377">
      <stop
         id="stop3379"
         offset="0"
         style="stop-color:#0019a3;stop-opacity:1;" />
      <stop
         id="stop3381"
         offset="1"
         style="stop-color:#0069ff;stop-opacity:1;" />
    </linearGradient>
    <linearGradient
       gradientTransform="matrix(-1,0,0,1,2199.356,0)"
       gradientUnits="userSpaceOnUse"
       y2="1190.875"
       x2="1267.9062"
       y1="1190.875"
       x1="901.1875"
       id="linearGradient3383"
       xlink:href="#linearGradient3377" />
    <radialGradient
       gradientUnits="userSpaceOnUse"
       gradientTransform="matrix(-1.4307499,-1.3605156e-7,-1.202713e-8,0.1264801,2674.7488,1244.2826)"
       r="194.40614"
       fy="1424.4465"
       fx="1103.6399"
       cy="1424.4465"
       cx="1103.6399"
       id="radialGradient6355"
       xlink:href="#linearGradient6349" />
    <linearGradient
       gradientUnits="userSpaceOnUse"
       y2="16"
       x2="31"
       y1="50"
       x1="35"
       id="linearGradient3899"
       xlink:href="#linearGradient3893" />
    <linearGradient
       id="linearGradient3893">
      <stop
         id="stop3895"
         offset="0"
         style="stop-color:#d3d7cf;stop-opacity:1" />
      <stop
         id="stop3897"
         offset="1"
         style="stop-color:#ffffff;stop-opacity:1" />
    </linearGradient>
    <linearGradient
       gradientUnits="userSpaceOnUse"
       y2="4.7365441"
       x2="21.564972"
       y1="10.393398"
       x1="39.949749"
       id="linearGradient3907-7"
       xlink:href="#linearGradient3893-4"
       gradientTransform="matrix(0.70710678,0.70710678,-0.70710678,0.70710678,34.704127,-9.9426796)" />
    <linearGradient
       id="linearGradient3893-4">
      <stop
         id="stop3895-0"
         offset="0"
         style="stop-color:#d3d7cf;stop-opacity:1" />
      <stop
         id="stop3897-9"
         offset="1"
         style="stop-color:#ffffff;stop-opacity:1" />
    </linearGradient>
    <linearGradient
       xlink:href="#linearGradient4"
       id="linearGradient5"
       x1="50.928848"
       y1="16.894117"
       x2="15.731859"
       y2="43.20948"
       gradientUnits="userSpaceOnUse" />
  </defs>
  <metadata
     id="metadata5826">
    <rdf:RDF>
      <cc:Work
         rdf:about="">
        <dc:format>image/svg+xml</dc:format>
        <dc:type
           rdf:resource="http://purl.org/dc/dcmitype/StillImage" />
        <dc:creator>
          <cc:Agent>
            <dc:title>[WandererFan]</dc:title>
          </cc:Agent>
        </dc:creator>
        <dc:date>2016-04-27</dc:date>
        <dc:relation>https://www.freecad.org/wiki/index.php?title=Artwork</dc:relation>
        <dc:publisher>
          <cc:Agent>
            <dc:title>FreeCAD</dc:title>
          </cc:Agent>
        </dc:publisher>
        <dc:identifier>FreeCAD/src/Mod/TechDraw/Gui/Resources/icons/TechDraw_Dimension.svg</dc:identifier>
        <dc:rights>
          <cc:Agent>
            <dc:title>FreeCAD LGPL2+</dc:title>
          </cc:Agent>
        </dc:rights>
        <cc:license
           rdf:resource="https://www.gnu.org/licenses/lgpl-3.0.en.html">https://www.gnu.org/copyleft/lesser.html</cc:license>
        <dc:contributor>
          <cc:Agent>
            <dc:title>[agryson] Alexander Gryson</dc:title>
          </cc:Agent>
        </dc:contributor>
        <dc:subject>
          <rdf:Bag>
            <rdf:li>arrow</rdf:li>
            <rdf:li>double arrow</rdf:li>
            <rdf:li>diagonal</rdf:li>
          </rdf:Bag>
        </dc:subject>
        <dc:description>Double arrow at an angle between two diagonal lines</dc:description>
      </cc:Work>
    </rdf:RDF>
  </metadata>
  <g
     id="layer1"
     style="display:inline"
     transform="matrix(0.91719207,0,0,1.0016512,2.6498692,-0.09597269)">
    <g
       transform="translate(-0.08539082,2.8879528)"
       id="g3362">
      <path
         id="path1428-3"
         style="display:inline;fill:#fce94f;stroke:#302b00;stroke-width:2.08661;stroke-linecap:round;stroke-linejoin:round;stroke-miterlimit:4;stroke-dasharray:none;stroke-dashoffset:1.6;stroke-opacity:1"
         d="m 46.603193,3.2477009 c -0.326637,0.00942 -0.652687,0.034043 -0.977965,0.071715 C 44.442409,3.4564142 43.27271,3.781255 42.153452,4.3107707 36.78668,6.8502026 37.566459,14.781356 35.728648,18.655885 34.655241,20.918888 3.8725051,48.875333 3.8725051,48.875333 c -0.7919354,3.679265 1.0584855,6.548339 4.7558857,6.159053 0,0 30.6429032,-24.281223 33.4512782,-26.110774 2.822964,-1.839056 7.981072,2.156003 11.90078,0.299692 3.582131,-1.694515 5.859729,-5.096365 6.499215,-9.008671 L 51.811918,24.317155 43.798984,18.78455 44.583482,9.092475 53.251229,4.9983913 C 51.189741,3.8011286 48.889655,3.1817661 46.603193,3.2477009 Z M 8.0990142,47.130968 c 1.8035148,0 3.2655538,1.450524 3.2655538,3.239832 0,1.78931 -1.462039,3.239834 -3.2655538,3.239834 -1.8035149,0 -3.2655527,-1.450524 -3.2655524,-3.239834 -3e-7,-1.789308 1.4620375,-3.239832 3.2655524,-3.239832 z" />
      <path
         id="path1"
         style="display:inline;fill:url(#linearGradient5);stroke:#fce94f;stroke-width:2.08661;stroke-linecap:round;stroke-linejoin:round;stroke-miterlimit:4;stroke-dasharray:none;stroke-dashoffset:1.6;stroke-opacity:1;font-variation-settings:normal;opacity:1;vector-effect:none;fill-opacity:1;-inkscape-stroke:none;stop-color:#000000;stop-opacity:1"
         d="m 46.664062,5.3339844 c 0.31176,-0.00899 0.624133,0.00352 0.9375,0.025391 l -5,2.3613281 -0.980468,12.0976559 9.996093,6.898438 5.009766,-2.369141 c -0.902818,1.273949 -2.0964,2.305835 -3.539062,2.988281 -3.076528,1.456995 -8.257661,-2.69358 -12.146485,-0.160156 -0.34376,0.223947 -0.949573,0.666272 -1.734375,1.25586 -0.708911,0.532574 -1.595658,1.20925 -2.613281,1.992187 -6.601535,5.079077 1.830415,-1.642781 -23.390625,18.333984 -0.433068,-1.369047 -1.40428,-2.488405 -2.666016,-3.128906 6.055301,-5.509893 5.561129,-5.091405 11.451172,-10.574219 2.056205,-1.914041 4.097871,-3.82721 5.986328,-5.615234 1.049345,-0.993537 2.053469,-1.948342 2.986328,-2.845703 1.036168,-0.996738 1.988902,-1.925912 2.822266,-2.751953 0.924553,-0.916428 1.718109,-1.722394 2.318359,-2.365235 0.658304,-0.705013 1.215974,-1.302278 1.511719,-1.925781 2.22048,-4.681282 1.13299,-11.3185696 5.433594,-13.3535154 0.905606,-0.4284379 1.856102,-0.6932354 2.818359,-0.8046875 0.272657,-0.031578 0.538686,-0.051091 0.798828,-0.058594 z" />
    </g>
  </g>
</svg>
