<?xml version="1.0" encoding="UTF-8" standalone="no"?>
<!-- Created with Inkscape (http://www.inkscape.org/) -->

<svg
   width="64"
   height="64"
   viewBox="0 0 16.933333 16.933334"
   version="1.1"
   id="svg1876"
   style="enable-background:new"
   xmlns="http://www.w3.org/2000/svg"
   xmlns:svg="http://www.w3.org/2000/svg"
   xmlns:rdf="http://www.w3.org/1999/02/22-rdf-syntax-ns#"
   xmlns:cc="http://creativecommons.org/ns#"
   xmlns:dc="http://purl.org/dc/elements/1.1/">
  <defs
     id="defs1870" />
  <metadata
     id="metadata1873">
    <rdf:RDF>
      <cc:Work
         rdf:about="">
        <dc:format>image/svg+xml</dc:format>
        <dc:type
           rdf:resource="http://purl.org/dc/dcmitype/StillImage" />
      </cc:Work>
    </rdf:RDF>
  </metadata>
  <g
     id="layer2"
     style="display:inline">
    <path
       style="fill:#fce94f;stroke:#302b00;stroke-width:0.529167;stroke-linecap:square;stroke-linejoin:round;stroke-dasharray:none;stroke-dashoffset:3;paint-order:fill markers stroke"
       d="M 4.2333333,11.641667 1.5875,13.493725 4.2333333,15.345809 V 14.022892 H 12.7 v 1.322917 L 15.345833,13.493725 12.7,11.641642 v 1.322917 H 4.2333333 Z"
       id="path1" />
    <path
       d="m 8.4629514,1.7843022 q 1.240245,0 2.2673236,0.5619884 0.319751,0.1840996 0.600744,0.406957 l 1.056147,-1.0561504 0.649191,0.6491934 -1.056146,1.0561505 q 0.193788,0.2519258 0.358507,0.53292 0.581366,1.0270821 0.581366,2.3157796 0,1.2596291 -0.571676,2.2867112 -0.561986,1.0173927 -1.598754,1.5987611 -1.0270786,0.581367 -2.2867026,0.581367 -1.240246,0 -2.2673246,-0.571678 Q 5.8855659,9.9718912 5.6142618,9.7587232 L 4.5581154,10.814874 3.8992346,10.165681 4.965071,9.1095298 Q 4.7615927,8.8479144 4.5968722,8.5475414 4.0251972,7.5107698 4.0251972,6.2511407 q 0,-1.2693186 0.581365,-2.2964007 Q 5.1879272,2.9179684 6.2053168,2.3559801 7.2323954,1.7843022 8.4629514,1.7843022 Z m -0.0097,0.9301876 q -0.930184,0 -1.734406,0.445715 Q 5.9243127,3.6059196 5.4689093,4.4198339 5.0231968,5.233748 5.0231968,6.2511407 q 0,0.9980138 0.4360235,1.8119279 0.09689,0.1744103 0.2131673,0.339131 L 10.64306,3.4315095 Q 10.449282,3.2861677 10.226426,3.1602048 9.4318924,2.7144898 8.4532614,2.7144898 Z m -1.744095,6.6178974 q 0.813911,0.4554044 1.744096,0.4554044 0.998009,0 1.7925426,-0.4554044 0.804221,-0.4650939 1.240245,-1.279008 0.436024,-0.8139142 0.436024,-1.8022385 0,-1.0270821 -0.455403,-1.8409963 -0.0872,-0.1550313 -0.184099,-0.3100626 L 6.3118904,9.0707719 q 0.184098,0.1356524 0.397266,0.2616153 z"
       id="text4"
       style="font-size:19.844px;line-height:0px;text-align:end;text-anchor:end;fill:#fce94f;stroke:#302b00;stroke-width:0.529171;stroke-linecap:square;stroke-dashoffset:3;paint-order:fill markers stroke"
       aria-label="⌀" />
  </g>
</svg>
