<?xml version="1.0" encoding="UTF-8" standalone="no"?>
<!-- Created with Inkscape (http://www.inkscape.org/) -->

<svg
   width="64"
   height="64"
   viewBox="0 0 16.933333 16.933334"
   version="1.1"
   id="svg1876"
   style="enable-background:new"
   xmlns="http://www.w3.org/2000/svg"
   xmlns:svg="http://www.w3.org/2000/svg"
   xmlns:rdf="http://www.w3.org/1999/02/22-rdf-syntax-ns#"
   xmlns:cc="http://creativecommons.org/ns#"
   xmlns:dc="http://purl.org/dc/elements/1.1/">
  <defs
     id="defs1870">
    <rect
       x="13.878315"
       y="11.282371"
       width="48.923557"
       height="45.828393"
       id="rect4" />
  </defs>
  <metadata
     id="metadata1873">
    <rdf:RDF>
      <cc:Work
         rdf:about="">
        <dc:format>image/svg+xml</dc:format>
        <dc:type
           rdf:resource="http://purl.org/dc/dcmitype/StillImage" />
      </cc:Work>
    </rdf:RDF>
  </metadata>
  <g
     id="layer2"
     transform="rotate(-90,8.5120425,8.5120426)">
    <path
       d="M 2.0531568,1.6621371 V 14.404406 h 1.074285 V 1.6621371 Z"
       style="display:inline;fill:#d3d7cf;stroke:#babdb6;stroke-width:0.513215;enable-background:new"
       id="path6" />
    <path
       d="M 2.3256872,1.4054429 V 14.14782 H 2.8548539 V 1.4054429 Z"
       style="display:inline;fill:#555753;stroke:none;stroke-width:0.360137;stroke-dasharray:none;enable-background:new"
       id="path5" />
    <rect
       style="fill:#fce94f;stroke:#302b00;stroke-width:0.529167;stroke-linejoin:round;stroke-dasharray:none;stroke-opacity:1;enable-background:new"
       id="rect6"
       width="1.0583334"
       height="13.744959"
       x="13.8557"
       y="1.5875003" />
    <rect
       style="enable-background:new;fill:#fce94f;stroke:none;stroke-width:0.374178;stroke-linejoin:round;stroke-dasharray:none;stroke-opacity:1"
       id="rect1"
       width="0.5291667"
       height="13.744959"
       x="14.120283"
       y="1.3229167" />
    <rect
       style="fill:#fce94f;stroke:#302b00;stroke-width:0.529167;stroke-linejoin:round;stroke-dasharray:none;stroke-opacity:1;enable-background:new"
       id="rect7"
       width="1.0583334"
       height="9.5481329"
       x="10.904538"
       y="1.5875003" />
    <rect
       style="enable-background:new;fill:#fce94f;stroke:none;stroke-width:0.374178;stroke-linejoin:round;stroke-dasharray:none;stroke-opacity:1"
       id="rect2"
       width="0.5291667"
       height="9.5481329"
       x="11.169121"
       y="1.3229167" />
    <rect
       style="fill:#fce94f;stroke:#302b00;stroke-width:0.528791;stroke-linejoin:round;stroke-dasharray:none;stroke-opacity:1;enable-background:new"
       id="rect9"
       width="1.0587093"
       height="5.079114"
       x="8.0822725"
       y="1.5873122" />
    <rect
       style="enable-background:new;fill:#fce94f;stroke:none;stroke-width:0.373845;stroke-linejoin:round;stroke-dasharray:none;stroke-opacity:1"
       id="rect3"
       width="0.5291667"
       height="5.079114"
       x="8.3473396"
       y="1.3229167" />
    <rect
       style="fill:#fce94f;stroke:#302b00;stroke-width:0.529167;stroke-linejoin:round;stroke-dasharray:none;stroke-opacity:1;enable-background:new"
       id="rect10"
       width="1.0583334"
       height="12.106468"
       x="-14.12899"
       y="2.5728431"
       transform="rotate(-90)" />
    <rect
       style="fill:#fce94f;stroke:#302b00;stroke-width:0.529167;stroke-linejoin:round;stroke-dasharray:none;stroke-opacity:1;enable-background:new"
       id="rect11"
       width="1.0583334"
       height="9.1397543"
       x="-9.7739487"
       y="2.5442743"
       transform="rotate(-90)" />
    <rect
       style="fill:#fce94f;stroke:#302b00;stroke-width:0.529167;stroke-linejoin:round;stroke-dasharray:none;stroke-opacity:1;enable-background:new"
       id="rect12"
       width="1.0583334"
       height="6.6220021"
       x="-5.3286901"
       y="2.5116839"
       transform="rotate(-90)" />
    <g
       id="g7"
       style="enable-background:new"
       transform="translate(0.13229133,0.08543656)">
      <circle
         style="fill:#fce94f;stroke:#302b00;stroke-width:0.529167;stroke-dasharray:none"
         id="path3"
         cx="14.24596"
         cy="13.518621"
         r="1.0583334" />
      <path
         style="fill:#c4a000;stroke:#fce94f;stroke-width:0.529167;stroke-dasharray:none"
         id="circle3"
         d="m 14.21875,12.990234 h 0.02734 c 0.289417,0 0.529297,0.23988 0.529297,0.529297 0,0.289418 -0.238664,0.527344 -0.529297,0.527344 -0.290634,0 -0.529297,-0.237926 -0.529297,-0.527344 0,-0.280508 0.228874,-0.515454 0.501953,-0.529297 z" />
    </g>
    <g
       id="g6"
       transform="translate(-2.8241624,-4.2394429)"
       style="enable-background:new">
      <circle
         style="fill:#fce94f;stroke:#302b00;stroke-width:0.529167;stroke-dasharray:none"
         id="circle4"
         cx="14.24596"
         cy="13.518621"
         r="1.0583334" />
      <path
         style="fill:#c4a000;stroke:#fce94f;stroke-width:0.529167;stroke-dasharray:none"
         id="path4"
         d="m 14.21875,12.990234 h 0.02734 c 0.289417,0 0.529297,0.23988 0.529297,0.529297 0,0.289418 -0.238664,0.527344 -0.529297,0.527344 -0.290634,0 -0.529297,-0.237926 -0.529297,-0.527344 0,-0.280508 0.228874,-0.515454 0.501953,-0.529297 z" />
    </g>
    <g
       id="g11"
       transform="translate(-5.5959377,-8.7582618)"
       style="display:inline;enable-background:new">
      <circle
         style="fill:#fce94f;stroke:#302b00;stroke-width:0.529167;stroke-dasharray:none"
         id="circle11"
         cx="14.24596"
         cy="13.518621"
         r="1.0583334" />
      <path
         style="fill:#c4a000;stroke:#fce94f;stroke-width:0.529167;stroke-dasharray:none"
         id="path11"
         d="m 14.21875,12.990234 h 0.02734 c 0.289417,0 0.529297,0.23988 0.529297,0.529297 0,0.289418 -0.238664,0.527344 -0.529297,0.527344 -0.290634,0 -0.529297,-0.237926 -0.529297,-0.527344 0,-0.280508 0.228874,-0.515454 0.501953,-0.529297 z" />
    </g>
    <g
       id="g15"
       transform="translate(-11.600127,-8.7582618)"
       style="display:inline;stroke-width:0.529167;stroke-dasharray:none;enable-background:new">
      <circle
         style="fill:#d3d7cf;stroke:#555753;stroke-width:0.529167;stroke-dasharray:none"
         id="circle15"
         cx="14.24596"
         cy="13.518621"
         r="1.0583334" />
      <path
         style="fill:#888a85;stroke:#d3d7cf;stroke-width:0.529167;stroke-dasharray:none"
         id="path15"
         d="m 14.21875,12.990234 h 0.02734 c 0.289417,0 0.529297,0.23988 0.529297,0.529297 0,0.289418 -0.238664,0.527344 -0.529297,0.527344 -0.290634,0 -0.529297,-0.237926 -0.529297,-0.527344 0,-0.280508 0.228874,-0.515454 0.501953,-0.529297 z" />
    </g>
    <g
       id="g17"
       transform="translate(-11.600127,-4.2394429)"
       style="enable-background:new">
      <circle
         style="fill:#d3d7cf;stroke:#555753;stroke-width:0.529167;stroke-dasharray:none"
         id="circle17"
         cx="14.24596"
         cy="13.518621"
         r="1.0583334" />
      <path
         style="fill:#888a85;stroke:#d3d7cf;stroke-width:0.529167;stroke-dasharray:none"
         id="path17"
         d="m 14.21875,12.990234 h 0.02734 c 0.289417,0 0.529297,0.23988 0.529297,0.529297 0,0.289418 -0.238664,0.527344 -0.529297,0.527344 -0.290634,0 -0.529297,-0.237926 -0.529297,-0.527344 0,-0.280508 0.228874,-0.515454 0.501953,-0.529297 z" />
    </g>
    <g
       id="g19"
       transform="translate(-11.600127,0.08543656)"
       style="display:inline;enable-background:new">
      <circle
         style="fill:#d3d7cf;stroke:#555753;stroke-width:0.529167;stroke-dasharray:none"
         id="circle19"
         cx="14.24596"
         cy="13.518621"
         r="1.0583334" />
      <path
         style="fill:#888a85;stroke:#d3d7cf;stroke-width:0.529167;stroke-dasharray:none"
         id="path19"
         d="m 14.21875,12.990234 h 0.02734 c 0.289417,0 0.529297,0.23988 0.529297,0.529297 0,0.289418 -0.238664,0.527344 -0.529297,0.527344 -0.290634,0 -0.529297,-0.237926 -0.529297,-0.527344 0,-0.280508 0.228874,-0.515454 0.501953,-0.529297 z" />
    </g>
    <g
       id="g23"
       style="enable-background:new"
       transform="rotate(90,8.5120425,8.5120426)">
      <g
         id="g14">
        <rect
           style="display:none;fill:#fce94f;fill-opacity:1;stroke:none;stroke-width:0.731715;stroke-linecap:square;stroke-dasharray:none;enable-background:new"
           id="rect13"
           width="2.1158729"
           height="1.5292916"
           x="5.9637084"
           y="11.475509" />
        <path
           style="fill:none;stroke:#cc0000;stroke-width:0.529167;stroke-linecap:square;stroke-dasharray:none"
           d="m 6.3031111,11.740092 h 1.5866277 m -1.5866277,1 h 1.5866277"
           id="path7"
           transform="translate(-0.07481921)" />
      </g>
      <g
         id="g16">
        <rect
           style="display:none;fill:#fce94f;fill-opacity:1;stroke:none;stroke-width:0.731715;stroke-linecap:square;stroke-dasharray:none;enable-background:new"
           id="rect14"
           width="2.1158729"
           height="1.5292916"
           x="10.302876"
           y="11.475509" />
        <path
           style="fill:none;stroke:#cc0000;stroke-width:0.529167;stroke-linecap:square;stroke-dasharray:none"
           d="m 6.3031111,11.740092 h 1.5866277 m -1.5866277,1 h 1.5866277"
           id="path8"
           transform="translate(4.2643475)" />
      </g>
    </g>
  </g>
</svg>
