<?xml version="1.0" encoding="UTF-8" standalone="no"?>
<!-- Created with Inkscape (http://www.inkscape.org/) -->

<svg
   width="64"
   height="64"
   viewBox="0 0 16.933333 16.933334"
   version="1.1"
   id="svg8"
   xmlns="http://www.w3.org/2000/svg"
   xmlns:svg="http://www.w3.org/2000/svg"
   xmlns:rdf="http://www.w3.org/1999/02/22-rdf-syntax-ns#"
   xmlns:cc="http://creativecommons.org/ns#"
   xmlns:dc="http://purl.org/dc/elements/1.1/">
  <defs
     id="defs2" />
  <metadata
     id="metadata5">
    <rdf:RDF>
      <cc:Work
         rdf:about="">
        <dc:format>image/svg+xml</dc:format>
        <dc:type
           rdf:resource="http://purl.org/dc/dcmitype/StillImage" />
      </cc:Work>
    </rdf:RDF>
  </metadata>
  <g
     id="layer1"
     transform="matrix(1,0,0,0.99996156,0,-288.52169)"
     style="stroke-width:1.00002">
    <g
       id="g3">
      <path
         style="fill:#042a2a;stroke:#555753;stroke-width:1.58753;stroke-linecap:square;stroke-dasharray:none;stroke-dashoffset:1;paint-order:fill markers stroke"
         d="M 2.4454487,303.02121 14.487884,290.97877"
         id="path1" />
      <path
         style="fill:#042a2a;stroke:#555753;stroke-width:1.58753;stroke-linecap:square;stroke-dasharray:none;stroke-dashoffset:1;paint-order:fill markers stroke"
         d="m 7.0292824,290.84614 3.7430386,12.30678"
         id="path2" />
      <path
         style="fill:none;stroke:#555753;stroke-width:1.58753;stroke-linecap:square;stroke-dasharray:none;stroke-dashoffset:1;paint-order:fill markers stroke"
         d="m 2.4396753,299.81298 c 0,0 1.6411749,-4.3344 6.9542244,-2.79382 5.3130493,1.54059 4.5834993,5.97772 4.5834993,5.97772"
         id="path3" />
    </g>
    <g
       id="g6"
       style="stroke-width:1.00002"
       transform="translate(0)">
      <path
         style="fill:#042a2a;stroke:#d3d7cf;stroke-width:0.52917684;stroke-linecap:square;stroke-dasharray:none;stroke-dashoffset:1;paint-order:fill markers stroke"
         d="M 2.4454487,303.02121 14.487884,290.97877"
         id="path4" />
      <path
         style="fill:#042a2a;stroke:#d3d7cf;stroke-width:0.52917684;stroke-linecap:square;stroke-dasharray:none;stroke-dashoffset:1;paint-order:fill markers stroke"
         d="m 7.0292824,290.84614 3.7430386,12.30678"
         id="path5" />
      <path
         style="fill:none;stroke:#d3d7cf;stroke-width:0.52917684;stroke-linecap:square;stroke-dasharray:none;stroke-dashoffset:1;paint-order:fill markers stroke"
         d="m 2.4396753,299.81298 c 0,0 1.6411749,-4.3344 6.9542244,-2.79382 5.3130493,1.54059 4.5834993,5.97772 4.5834993,5.97772"
         id="path6" />
    </g>
    <ellipse
       ry="2.6615558"
       rx="2.4874945"
       cy="288.3815"
       cx="8.6915932"
       id="path1231"
       style="opacity:1;fill:#729fcf;fill-opacity:1;fill-rule:nonzero;stroke:#0b1521;stroke-width:0.571833;stroke-linecap:butt;stroke-linejoin:round;stroke-miterlimit:4;stroke-dasharray:none;stroke-dashoffset:25.1947;stroke-opacity:1"
       transform="matrix(0.95400156,0,0,0.89766349,0.74190389,38.019502)" />
    <path
       id="ellipse6"
       style="opacity:1;fill:#204a87;fill-opacity:1;fill-rule:nonzero;stroke:#729fcf;stroke-width:0.571833;stroke-linecap:butt;stroke-linejoin:round;stroke-miterlimit:4;stroke-dasharray:none;stroke-dashoffset:25.1947;stroke-opacity:1"
       transform="matrix(0.95400156,0,0,0.89766349,0.74190389,38.019502)"
       d="m 8.6914063,286.29297 c 1.0332014,0 1.9160157,0.91602 1.9160157,2.08789 0,1.17186 -0.8833732,2.08984 -1.9160157,2.08984 -1.0326426,0 -1.9160157,-0.91798 -1.9160157,-2.08984 0,-1.17187 0.8828142,-2.08789 1.9160157,-2.08789 z" />
  </g>
</svg>
