<?xml version="1.0" encoding="UTF-8" standalone="no"?>
<!-- Created with Inkscape (http://www.inkscape.org/) -->

<svg
   width="64"
   height="64"
   viewBox="0 0 16.933333 16.933334"
   version="1.1"
   id="svg1876"
   style="enable-background:new"
   xmlns="http://www.w3.org/2000/svg"
   xmlns:svg="http://www.w3.org/2000/svg"
   xmlns:rdf="http://www.w3.org/1999/02/22-rdf-syntax-ns#"
   xmlns:cc="http://creativecommons.org/ns#"
   xmlns:dc="http://purl.org/dc/elements/1.1/">
  <defs
     id="defs1870">
    <filter
       style="color-interpolation-filters:sRGB"
       id="filter1958"
       x="-0.071428812"
       y="-0.09313091"
       width="1.1428603"
       height="1.1862584">
      <feBlend
         mode="exclusion"
         in2="BackgroundImage"
         id="feBlend1960" />
    </filter>
  </defs>
  <metadata
     id="metadata1873">
    <rdf:RDF>
      <cc:Work
         rdf:about="">
        <dc:format>image/svg+xml</dc:format>
        <dc:type
           rdf:resource="http://purl.org/dc/dcmitype/StillImage" />
      </cc:Work>
    </rdf:RDF>
  </metadata>
  <rect
     style="display:inline;fill:#fce94f;stroke:#302b00;stroke-width:0.530771;stroke-linejoin:round;stroke-dasharray:none;stroke-opacity:1;enable-background:new"
     id="rect10"
     width="1.0567291"
     height="6.0338626"
     x="-4.0675354"
     y="3.4653604"
     transform="rotate(-90)" />
  <g
     id="g5"
     transform="translate(-4.8376416,-0.68168449)"
     style="display:inline">
    <rect
       style="display:inline;fill:#fce94f;stroke:#302b00;stroke-width:0.529295;stroke-linejoin:round;stroke-dasharray:none;stroke-opacity:1;enable-background:new"
       id="rect7"
       width="1.0582052"
       height="13.65791"
       x="7.218956"
       y="1.4754986" />
    <g
       id="g7"
       style="enable-background:new"
       transform="translate(-6.4979017,-9.3227409)">
      <circle
         style="fill:#fce94f;stroke:#302b00;stroke-width:0.529167;stroke-dasharray:none"
         id="path3"
         cx="14.24596"
         cy="13.518621"
         r="1.0583334" />
      <path
         style="fill:#c4a000;stroke:#fce94f;stroke-width:0.529167;stroke-dasharray:none"
         id="circle3"
         d="m 14.21875,12.990234 h 0.02734 c 0.289417,0 0.529297,0.23988 0.529297,0.529297 0,0.289418 -0.238664,0.527344 -0.529297,0.527344 -0.290634,0 -0.529297,-0.237926 -0.529297,-0.527344 0,-0.280508 0.228874,-0.515454 0.501953,-0.529297 z" />
    </g>
  </g>
  <g
     id="g6"
     transform="translate(-2.2489582,-0.68168449)">
    <rect
       style="display:inline;fill:#fce94f;stroke:#302b00;stroke-width:0.529612;stroke-linejoin:round;stroke-dasharray:none;stroke-opacity:1;enable-background:new"
       id="rect2"
       width="1.057888"
       height="5.276968"
       x="10.967713"
       y="1.4756571" />
    <g
       id="g4"
       style="enable-background:new"
       transform="translate(-2.7492851,-9.3227409)">
      <circle
         style="fill:#fce94f;stroke:#302b00;stroke-width:0.529167;stroke-dasharray:none"
         id="circle2"
         cx="14.24596"
         cy="13.518621"
         r="1.0583334" />
      <path
         style="fill:#c4a000;stroke:#fce94f;stroke-width:0.529167;stroke-dasharray:none"
         id="path4"
         d="m 14.21875,12.990234 h 0.02734 c 0.289417,0 0.529297,0.23988 0.529297,0.529297 0,0.289418 -0.238664,0.527344 -0.529297,0.527344 -0.290634,0 -0.529297,-0.237926 -0.529297,-0.527344 0,-0.280508 0.228874,-0.515454 0.501953,-0.529297 z" />
    </g>
  </g>
  <g
     id="g2"
     style="display:inline;enable-background:new"
     transform="matrix(1.0000024,0,0,1.0000152,-0.71771143,-0.63159787)">
    <path
       style="display:inline;fill:none;stroke:#babdb6;stroke-width:1.5875;stroke-linecap:square;stroke-linejoin:miter;stroke-dasharray:none;filter:url(#filter1958);enable-background:new"
       d="m 14.740589,7.14005 -5.0270675,1.894e-4 -6.0853981,4.0250456 2.4e-6,4.498035"
       id="path2" />
    <path
       style="display:inline;fill:none;stroke:#555753;stroke-width:0.529165;stroke-linecap:square;stroke-linejoin:miter;stroke-dasharray:none;filter:url(#filter1958);enable-background:new"
       d="M 15.269754,7.1402394 H 9.7135215 l -6.0853981,4.0250456 2.4e-6,5.027196"
       id="path1" />
  </g>
  <g
     id="g15"
     transform="translate(-4.9982433,-6.7452878)"
     style="display:inline;stroke-width:0.529167;stroke-dasharray:none;enable-background:new">
    <circle
       style="fill:#d3d7cf;stroke:#555753;stroke-width:0.529167;stroke-dasharray:none"
       id="circle15"
       cx="14.24596"
       cy="13.518621"
       r="1.0583334" />
    <path
       style="fill:#888a85;stroke:#d3d7cf;stroke-width:0.529167;stroke-dasharray:none"
       id="path15"
       d="m 14.21875,12.990234 h 0.02734 c 0.289417,0 0.529297,0.23988 0.529297,0.529297 0,0.289418 -0.238664,0.527344 -0.529297,0.527344 -0.290634,0 -0.529297,-0.237926 -0.529297,-0.527344 0,-0.280508 0.228874,-0.515454 0.501953,-0.529297 z" />
  </g>
  <g
     id="g8"
     transform="translate(-11.335543,-3.1998711)"
     style="display:inline;stroke-width:0.529167;stroke-dasharray:none;enable-background:new">
    <circle
       style="fill:#d3d7cf;stroke:#555753;stroke-width:0.529167;stroke-dasharray:none"
       id="circle8"
       cx="14.24596"
       cy="13.518621"
       r="1.0583334" />
    <path
       style="fill:#888a85;stroke:#d3d7cf;stroke-width:0.529167;stroke-dasharray:none"
       id="path8"
       d="m 14.21875,12.990234 h 0.02734 c 0.289417,0 0.529297,0.23988 0.529297,0.529297 0,0.289418 -0.238664,0.527344 -0.529297,0.527344 -0.290634,0 -0.529297,-0.237926 -0.529297,-0.527344 0,-0.280508 0.228874,-0.515454 0.501953,-0.529297 z" />
  </g>
</svg>
