<?xml version="1.0" encoding="UTF-8" standalone="no"?>
<!-- Created with Inkscape (http://www.inkscape.org/) -->

<svg
   width="64"
   height="64"
   viewBox="0 0 16.933333 16.933334"
   version="1.1"
   id="svg998"
   xmlns="http://www.w3.org/2000/svg"
   xmlns:svg="http://www.w3.org/2000/svg"
   xmlns:rdf="http://www.w3.org/1999/02/22-rdf-syntax-ns#"
   xmlns:cc="http://creativecommons.org/ns#"
   xmlns:dc="http://purl.org/dc/elements/1.1/">
  <defs
     id="defs992">
    <rect
       x="13.131983"
       y="10.606602"
       width="74.119943"
       height="82.201164"
       id="rect1" />
  </defs>
  <metadata
     id="metadata995">
    <rdf:RDF>
      <cc:Work
         rdf:about="">
        <dc:format>image/svg+xml</dc:format>
        <dc:type
           rdf:resource="http://purl.org/dc/dcmitype/StillImage" />
      </cc:Work>
    </rdf:RDF>
  </metadata>
  <g
     id="layer2">
    <path
       style="font-size:32px;white-space:pre;shape-padding:1.01016;fill:#fce94f;stroke:#302b00;stroke-width:2.00001;stroke-linecap:square;text-align:end;text-anchor:end"
       d="m 44.585443,38.99862 q 0,-1.031249 0.500006,-1.578124 0.515631,-0.5625 1.453142,-0.5625 0.953136,0 1.484392,0.5625 0.531256,0.546875 0.531256,1.578124 0,1.015625 -0.531256,1.609375 -0.531256,0.578124 -1.484392,0.578124 -0.921886,0 -1.437517,-0.578124 -0.515631,-0.578125 -0.515631,-1.609375 z m 23.015893,-9.718745 q 0,5.953122 -1.890642,8.859371 -1.875022,2.906248 -5.718818,2.906248 -3.718796,0 -5.640693,-2.984373 -1.921898,-2.999999 -1.921898,-8.781246 0,-5.968747 1.843772,-8.859371 1.859397,-2.890623 5.718819,-2.890623 3.718794,0 5.656317,2.999998 1.953143,2.999999 1.953143,8.749996 z m -12.343893,0 q 0,4.968748 1.125014,7.171872 1.14064,2.203124 3.609419,2.203124 2.50003,0 3.625043,-2.249999 1.140634,-2.265624 1.140634,-7.124997 0,-4.812498 -1.140634,-7.078122 -1.125013,-2.265623 -3.625043,-2.265623 -2.500029,0 -3.625044,2.218748 -1.109389,2.218749 -1.109389,7.124997 z m 30.640989,0 q 0,5.953122 -1.890652,8.859371 -1.875023,2.906248 -5.718818,2.906248 -3.718794,0 -5.640686,-2.984373 -1.921903,-2.999999 -1.921903,-8.781246 0,-5.968747 1.843772,-8.859371 1.859402,-2.890623 5.718817,-2.890623 3.718794,0 5.656317,2.999998 1.953153,2.999999 1.953153,8.749996 z m -12.343896,0 q 0,4.968748 1.125014,7.171872 1.140633,2.203124 3.609412,2.203124 2.50003,0 3.625043,-2.249999 1.140643,-2.265624 1.140643,-7.124997 0,-4.812498 -1.140643,-7.078122 -1.125013,-2.265623 -3.625043,-2.265623 -2.500029,0 -3.625043,2.218748 -1.109383,2.218749 -1.109383,7.124997 z"
       id="path4"
       transform="matrix(0.26458333,0,0,0.26458333,-7.3814612,-3.0506128)" />
    <path
       style="font-size:32px;white-space:pre;shape-padding:1.01016;fill:#fce94f;stroke:#302b00;stroke-width:2;stroke-linecap:square;text-align:end;text-anchor:end;display:inline"
       d="m 62.88244,67.342397 q 0,-1.031239 0.500007,-1.578108 0.515634,-0.562495 1.453149,-0.562495 0.95314,0 1.484399,0.562495 0.531258,0.546869 0.531258,1.578108 0,1.015613 -0.531258,1.609357 -0.531259,0.57812 -1.484399,0.57812 -0.921889,0 -1.437523,-0.57812 -0.515633,-0.578119 -0.515633,-1.609357 z m 23.015995,-9.718646 q 0,5.953061 -1.890659,8.859279 -1.875029,2.90622 -5.718839,2.90622 -3.718811,0 -5.640717,-2.984343 -1.921906,-2.999968 -1.921906,-8.781156 0,-5.968685 1.84378,-8.859279 1.859405,-2.890595 5.718843,-2.890595 3.718808,0 5.656338,2.999969 1.95316,2.999968 1.95316,8.749905 z m -12.34395,0 q 0,4.968697 1.125018,7.171799 1.140646,2.2031 3.609434,2.2031 2.500039,0 3.625056,-2.249975 1.140648,-2.265601 1.140648,-7.124924 0,-4.812448 -1.140648,-7.078048 -1.125017,-2.265601 -3.625056,-2.265601 -2.500039,0 -3.625059,2.218727 -1.109393,2.218725 -1.109393,7.124922 z"
       id="path6"
       transform="matrix(0.26458333,0,0,0.26458333,-7.3814612,-3.0506128)" />
    <path
       d="M 8.2134604,11.273896 7.6842937,9.6863958 10.62064,11.803062 7.6842937,13.919729 8.2134604,12.332229 H 1.5874871 v -1.058333 z"
       id="text6"
       style="font-size:14.8167px;line-height:0px;text-align:end;text-anchor:end;fill:#fce94f;stroke:#302b00;stroke-width:0.529166;stroke-linecap:square;stroke-linejoin:round"
       aria-label="→" />
  </g>
</svg>
