<?xml version="1.0" encoding="UTF-8" standalone="no"?>
<!-- Created with Inkscape (http://www.inkscape.org/) -->

<svg
   width="64"
   height="64"
   viewBox="0 0 16.933333 16.933334"
   version="1.1"
   id="svg8"
   xmlns="http://www.w3.org/2000/svg"
   xmlns:svg="http://www.w3.org/2000/svg"
   xmlns:rdf="http://www.w3.org/1999/02/22-rdf-syntax-ns#"
   xmlns:cc="http://creativecommons.org/ns#"
   xmlns:dc="http://purl.org/dc/elements/1.1/">
  <defs
     id="defs2">
    <linearGradient
       id="linearGradient5969">
      <stop
         style="stop-color:#000000;stop-opacity:1;"
         offset="0"
         id="stop5967" />
    </linearGradient>
    <pattern
       y="0"
       x="0"
       height="6"
       width="6"
       patternUnits="userSpaceOnUse"
       id="EMFhbasepattern" />
  </defs>
  <metadata
     id="metadata5">
    <rdf:RDF>
      <cc:Work
         rdf:about="">
        <dc:format>image/svg+xml</dc:format>
        <dc:type
           rdf:resource="http://purl.org/dc/dcmitype/StillImage" />
      </cc:Work>
    </rdf:RDF>
  </metadata>
  <g
     id="layer1"
     transform="matrix(1.9205663,0,0,1.907574,0.33335856,-550.01473)">
    <g
       id="g827"
       transform="matrix(0.56816734,0,0,0.56816734,-0.57714939,128.83144)">
      <path
         d="m 3.0689827,292.27159 c -2.0400886,-2.99832 -1.2841526,-7.10348 1.6854951,-9.16524 2.9696473,-2.06173 7.0387732,-1.31434 9.0950242,1.67273 2.056253,2.98708 1.322536,7.09634 -1.635945,9.17437 -2.9584808,2.07802 -7.0315649,1.35293 -9.1039199,-1.6228"
         id="path4"
         style="display:inline;opacity:1;fill:none;fill-opacity:1;fill-rule:nonzero;stroke:#0b1521;stroke-width:1.45983;stroke-linecap:square;stroke-linejoin:bevel;stroke-miterlimit:4;stroke-dasharray:none;stroke-dashoffset:0;stroke-opacity:1" />
      <path
         d="m 3.0689827,292.27159 c -2.0400886,-2.99832 -1.2841526,-7.10348 1.6854951,-9.16524 2.9696473,-2.06173 7.0387732,-1.31434 9.0950242,1.67273 2.056253,2.98708 1.322536,7.09634 -1.635945,9.17437 -2.9584808,2.07802 -7.0315649,1.35293 -9.1039199,-1.6228"
         id="path6"
         style="display:inline;opacity:1;fill:none;fill-opacity:1;fill-rule:nonzero;stroke:#729fcf;stroke-width:0.48658741;stroke-linecap:square;stroke-linejoin:bevel;stroke-miterlimit:4;stroke-dasharray:none;stroke-dashoffset:0;stroke-opacity:1"
         transform="translate(0)" />
      <g
         id="g6"
         transform="matrix(0.87125748,0,0,0.87894818,1.1173679,34.970094)">
        <path
           d="m 6.7832866,288.5026 a 1.6625557,1.6661507 0 0 1 1.5670577,-1.67346 1.6625557,1.6661507 0 0 1 1.7481807,1.48237 1.6625557,1.6661507 0 0 1 -1.3873717,1.82582 1.6625557,1.6661507 0 0 1 -1.890781,-1.29469"
           id="path1738-3-8"
           style="display:inline;opacity:1;fill:#d3d7cf;fill-opacity:1;fill-rule:nonzero;stroke:#555753;stroke-width:0.556013;stroke-linecap:square;stroke-linejoin:bevel;stroke-miterlimit:4;stroke-dasharray:none;stroke-dashoffset:0;stroke-opacity:1" />
        <path
           d="m 7.3393164,288.49925 c -0.00354,-0.58808 0.4591028,-1.08133 1.0430258,-1.11499 0.5839243,-0.0337 1.0996635,0.40295 1.1634205,0.98753 0.063755,0.58459 -0.3461075,1.1231 -0.9235402,1.21666 -0.5774322,0.0935 -1.134884,-0.28753 -1.2581727,-0.86241"
           id="path5"
           style="display:inline;opacity:1;fill:#555753;fill-opacity:1;fill-rule:nonzero;stroke:#d3d7cf;stroke-width:0.55604;stroke-linecap:square;stroke-linejoin:bevel;stroke-miterlimit:4;stroke-dasharray:none;stroke-dashoffset:0;stroke-opacity:1" />
      </g>
      <g
         id="g1">
        <path
           d="m 11.627016,283.91066 a 1.4516304,1.4655917 0 0 1 1.350104,-1.47085 1.4516304,1.4655917 0 0 1 1.540132,1.26632 1.4516304,1.4655917 0 0 1 -1.153285,1.63268 1.4516304,1.4655917 0 0 1 -1.687513,-1.05767"
           id="path1738"
           style="display:inline;opacity:1;fill:#d3d7cf;fill-opacity:1;fill-rule:nonzero;stroke:#555753;stroke-width:0.486466;stroke-linecap:square;stroke-linejoin:bevel;stroke-miterlimit:4;stroke-dasharray:none;stroke-dashoffset:0;stroke-opacity:1" />
        <path
           d="m 12.113595,283.90775 c -0.0031,-0.51569 0.395704,-0.94703 0.897873,-0.98257 0.50217,-0.0355 0.955289,0.33435 1.023472,0.84531 0.06818,0.51096 -0.273674,0.99145 -0.767505,1.0914 -0.493831,0.1 -0.988598,-0.20791 -1.120675,-0.70557"
           id="path7"
           style="display:inline;opacity:1;fill:#888a85;fill-opacity:1;fill-rule:nonzero;stroke:#d3d7cf;stroke-width:0.48658741;stroke-linecap:square;stroke-linejoin:bevel;stroke-miterlimit:4;stroke-dasharray:none;stroke-dashoffset:0;stroke-opacity:1" />
      </g>
    </g>
  </g>
</svg>
