<?xml version="1.0" encoding="UTF-8" standalone="no"?>
<!-- Created with Inkscape (http://www.inkscape.org/) -->

<svg
   width="64"
   height="64"
   id="svg5821"
   version="1.1"
   xml:space="preserve"
   xmlns="http://www.w3.org/2000/svg"
   xmlns:svg="http://www.w3.org/2000/svg"
   xmlns:rdf="http://www.w3.org/1999/02/22-rdf-syntax-ns#"
   xmlns:cc="http://creativecommons.org/ns#"
   xmlns:dc="http://purl.org/dc/elements/1.1/"><defs
     id="defs5823" /><metadata
     id="metadata5826"><rdf:RDF><cc:Work
         rdf:about=""><dc:format>image/svg+xml</dc:format><dc:type
           rdf:resource="http://purl.org/dc/dcmitype/StillImage" /><dc:creator><cc:Agent><dc:title>[WandererFan]</dc:title></cc:Agent></dc:creator><dc:date>2016-04-27</dc:date><dc:relation>https://www.freecad.org/wiki/index.php?title=Artwork</dc:relation><dc:publisher><cc:Agent><dc:title>FreeCAD</dc:title></cc:Agent></dc:publisher><dc:identifier>FreeCAD/src/Mod/TechDraw/Gui/Resources/icons/TechDraw_Dimension_Diameter.svg</dc:identifier><dc:rights><cc:Agent><dc:title>FreeCAD LGPL2+</dc:title></cc:Agent></dc:rights><cc:license
           rdf:resource="https://www.gnu.org/licenses/lgpl-3.0.en.html">https://www.gnu.org/copyleft/lesser.html</cc:license><dc:contributor><cc:Agent><dc:title>[agryson] Alexander Gryson</dc:title></cc:Agent></dc:contributor><dc:subject><rdf:Bag><rdf:li>double arrow</rdf:li><rdf:li>circle</rdf:li></rdf:Bag></dc:subject></cc:Work></rdf:RDF></metadata><g
     id="layer1"
     transform="translate(-0.1784387,-0.18587361)"><g
       id="crosshair"
       style="stroke:#ffffff;stroke-width:2.5;stroke-linecap:round;stroke-linejoin:miter"
       transform="translate(-0.8215613,-0.81412639)"><path
         d="m 16,3 v 9 m 0,8 v 9 M 3,16 h 9 m 8,0 h 9"
         id="path9"
         style="stroke:#2e3436;stroke-width:4;stroke-dasharray:none" /><path
         d="m 16,3 v 9 m 0,8 v 9 M 3,16 h 9 m 8,0 h 9"
         id="path7"
         style="stroke:#eeeeec;stroke-width:2;stroke-dasharray:none" /></g><g
       style="enable-background:new"
       id="g5"
       transform="matrix(2.4232977,0,0,2.4232977,17.283163,18.119199)"><g
         id="layer2"
         transform="matrix(0.61661451,-0.61661451,0.61661451,0.61661451,-1.0304625,9.4108761)"
         style="stroke-width:1.14676"><g
           id="g67-0"
           style="display:inline;stroke-width:1.14689;stroke-dasharray:none"><path
             style="fill:none;stroke:#555753;stroke-width:1.82048;stroke-linecap:butt;stroke-linejoin:round;stroke-dasharray:none"
             d="M 0.52916666,2.9104157 H 16.404166"
             id="path66-5" /><path
             style="display:inline;fill:none;stroke:#d3d7cf;stroke-width:0.606826;stroke-linecap:butt;stroke-linejoin:round;stroke-dasharray:none"
             d="M 0.52916666,2.9104157 H 16.404166"
             id="path67-8" /></g><g
           id="g71-8"
           transform="translate(0,-0.52910056)"
           style="display:inline;stroke-width:1.14676"><path
             style="fill:none;stroke:#302b00;stroke-width:1.82048;stroke-linecap:round;stroke-dasharray:none;paint-order:fill markers stroke"
             d="M 3.4395833,12.170834 13.49375,12.170766"
             id="path68-7" /><path
             style="fill:none;stroke:#fce94f;stroke-width:0.606826;stroke-linecap:round;stroke-dasharray:none;paint-order:fill markers stroke"
             d="M 3.4395833,12.170766 H 13.49375"
             id="path71-8" /></g><g
           id="g14"
           transform="matrix(0.99999643,0,0,1.0000001,0.35004363,-6.5344632e-7)"
           style="display:inline;stroke-width:1.14676;enable-background:new"><path
             style="display:inline;fill:none;stroke:#302b00;stroke-width:1.82048;stroke-linecap:round;stroke-dasharray:none;paint-order:fill markers stroke"
             d="M 13.14375,13.493749 V 2.9104169"
             id="path12-8" /><path
             style="display:inline;fill:none;stroke:#fce94f;stroke-width:0.606826;stroke-linecap:round;stroke-dasharray:none;paint-order:fill markers stroke"
             d="M 13.14375,13.493749 V 2.9104169"
             id="path14" /></g><g
           id="g15"
           style="display:inline;stroke-width:1.14676;enable-background:new"
           transform="matrix(0.99999643,0,0,1.0000001,0.43961053,-7.8217342e-7)"><path
             style="display:inline;fill:none;stroke:#302b00;stroke-width:1.82048;stroke-linecap:round;stroke-dasharray:none;paint-order:fill markers stroke"
             d="M 8.0270834,13.493749 V 2.9104169"
             id="path11-4" /><path
             style="display:inline;fill:none;stroke:#fce94f;stroke-width:0.606826;stroke-linecap:round;stroke-dasharray:none;paint-order:fill markers stroke"
             d="M 8.0270834,13.493749 V 2.9104169"
             id="path13" /></g><g
           id="g16"
           transform="matrix(0.99999643,0,0,1.0000001,0.52917419,-7.1780987e-7)"
           style="display:inline;stroke-width:1.14676;enable-background:new"><path
             style="display:inline;fill:none;stroke:#302b00;stroke-width:1.82048;stroke-linecap:round;stroke-dasharray:none;paint-order:fill markers stroke"
             d="M 2.9104166,13.493749 V 2.9104169"
             id="path63-2" /><path
             style="display:inline;fill:none;stroke:#fce94f;stroke-width:0.606826;stroke-linecap:round;stroke-dasharray:none;paint-order:fill markers stroke"
             d="M 2.9104166,13.493749 V 2.9104169"
             id="path64-0" /></g><g
           id="g7-3"
           transform="matrix(0.81087939,0.81087939,-0.81087939,0.81087939,2.8188675,-10.805487)"
           style="display:inline;enable-background:new"><circle
             style="fill:#fce94f;stroke:#302b00;stroke-width:0.529167;stroke-dasharray:none"
             id="path3"
             cx="14.24596"
             cy="13.518621"
             r="1.0583334" /><path
             style="fill:#c4a000;stroke:#fce94f;stroke-width:0.529167;stroke-dasharray:none"
             id="circle3-6"
             d="m 14.21875,12.990234 h 0.02734 c 0.289417,0 0.529297,0.23988 0.529297,0.529297 0,0.289418 -0.238664,0.527344 -0.529297,0.527344 -0.290634,0 -0.529297,-0.237926 -0.529297,-0.527344 0,-0.280508 0.228874,-0.515454 0.501953,-0.529297 z" /></g><g
           id="g3"
           transform="matrix(0.81087939,0.81087939,-0.81087939,0.81087939,7.8768823,-10.755572)"
           style="display:inline;enable-background:new"><circle
             style="fill:#fce94f;stroke:#302b00;stroke-width:0.529167;stroke-dasharray:none"
             id="circle2"
             cx="14.24596"
             cy="13.518621"
             r="1.0583334" /><path
             style="fill:#c4a000;stroke:#fce94f;stroke-width:0.529167;stroke-dasharray:none"
             id="path2"
             d="m 14.21875,12.990234 h 0.02734 c 0.289417,0 0.529297,0.23988 0.529297,0.529297 0,0.289418 -0.238664,0.527344 -0.529297,0.527344 -0.290634,0 -0.529297,-0.237926 -0.529297,-0.527344 0,-0.280508 0.228874,-0.515454 0.501953,-0.529297 z" /></g><g
           id="g4"
           transform="matrix(0.81087939,0.81087939,-0.81087939,0.81087939,12.834423,-10.905956)"
           style="display:inline;enable-background:new"><circle
             style="fill:#fce94f;stroke:#302b00;stroke-width:0.529167;stroke-dasharray:none"
             id="circle4"
             cx="14.24596"
             cy="13.518621"
             r="1.0583334" /><path
             style="fill:#c4a000;stroke:#fce94f;stroke-width:0.529167;stroke-dasharray:none"
             id="path4"
             d="m 14.21875,12.990234 h 0.02734 c 0.289417,0 0.529297,0.23988 0.529297,0.529297 0,0.289418 -0.238664,0.527344 -0.529297,0.527344 -0.290634,0 -0.529297,-0.237926 -0.529297,-0.527344 0,-0.280508 0.228874,-0.515454 0.501953,-0.529297 z" /></g><g
           id="g19"
           transform="matrix(0.81087939,0.81087939,-0.81087939,0.81087939,13.121799,-19.556562)"
           style="display:inline;enable-background:new"><circle
             style="fill:#d3d7cf;stroke:#555753;stroke-width:0.529167;stroke-dasharray:none"
             id="circle19"
             cx="14.24596"
             cy="13.518621"
             r="1.0583334" /><path
             style="fill:#888a85;stroke:#d3d7cf;stroke-width:0.529167;stroke-dasharray:none"
             id="path19"
             d="m 14.21875,12.990234 h 0.02734 c 0.289417,0 0.529297,0.23988 0.529297,0.529297 0,0.289418 -0.238664,0.527344 -0.529297,0.527344 -0.290634,0 -0.529297,-0.237926 -0.529297,-0.527344 0,-0.280508 0.228874,-0.515454 0.501953,-0.529297 z" /></g><g
           id="g11"
           transform="matrix(0.81087939,0.81087939,-0.81087939,0.81087939,7.8768797,-19.338727)"
           style="display:inline;enable-background:new"><circle
             style="fill:#d3d7cf;stroke:#555753;stroke-width:0.529167;stroke-dasharray:none"
             id="circle11"
             cx="14.24596"
             cy="13.518621"
             r="1.0583334" /><path
             style="fill:#888a85;stroke:#d3d7cf;stroke-width:0.529167;stroke-dasharray:none"
             id="path11"
             d="m 14.21875,12.990234 h 0.02734 c 0.289417,0 0.529297,0.23988 0.529297,0.529297 0,0.289418 -0.238664,0.527344 -0.529297,0.527344 -0.290634,0 -0.529297,-0.237926 -0.529297,-0.527344 0,-0.280508 0.228874,-0.515454 0.501953,-0.529297 z" /></g><g
           id="g12"
           transform="matrix(0.81087939,0.81087939,-0.81087939,0.81087939,2.5750606,-19.613465)"
           style="display:inline;enable-background:new"><circle
             style="fill:#d3d7cf;stroke:#555753;stroke-width:0.529167;stroke-dasharray:none"
             id="circle12"
             cx="14.24596"
             cy="13.518621"
             r="1.0583334" /><path
             style="fill:#888a85;stroke:#d3d7cf;stroke-width:0.529167;stroke-dasharray:none"
             id="path12"
             d="m 14.21875,12.990234 h 0.02734 c 0.289417,0 0.529297,0.23988 0.529297,0.529297 0,0.289418 -0.238664,0.527344 -0.529297,0.527344 -0.290634,0 -0.529297,-0.237926 -0.529297,-0.527344 0,-0.280508 0.228874,-0.515454 0.501953,-0.529297 z" /></g></g></g></g></svg>
