<?xml version="1.0" encoding="UTF-8" standalone="no"?>
<svg
   version="1.1"
   id="svg5821"
   height="64px"
   width="64px"
   xmlns:xlink="http://www.w3.org/1999/xlink"
   xmlns="http://www.w3.org/2000/svg"
   xmlns:svg="http://www.w3.org/2000/svg"
   xmlns:rdf="http://www.w3.org/1999/02/22-rdf-syntax-ns#"
   xmlns:cc="http://creativecommons.org/ns#"
   xmlns:dc="http://purl.org/dc/elements/1.1/">
  <defs
     id="defs5823">
    <linearGradient
       id="linearGradient4">
      <stop
         style="stop-color:#c4a000;stop-opacity:1;"
         offset="0"
         id="stop4" />
      <stop
         style="stop-color:#fce94f;stop-opacity:1;"
         offset="1"
         id="stop5" />
    </linearGradient>
    <linearGradient
       id="linearGradient6349">
      <stop
         id="stop6351"
         offset="0"
         style="stop-color:#000000;stop-opacity:1;" />
      <stop
         id="stop6353"
         offset="1"
         style="stop-color:#000000;stop-opacity:0;" />
    </linearGradient>
    <linearGradient
       id="linearGradient3377">
      <stop
         id="stop3379"
         offset="0"
         style="stop-color:#0019a3;stop-opacity:1;" />
      <stop
         id="stop3381"
         offset="1"
         style="stop-color:#0069ff;stop-opacity:1;" />
    </linearGradient>
    <linearGradient
       gradientTransform="matrix(-1,0,0,1,2199.356,0)"
       gradientUnits="userSpaceOnUse"
       y2="1190.875"
       x2="1267.9062"
       y1="1190.875"
       x1="901.1875"
       id="linearGradient3383"
       xlink:href="#linearGradient3377" />
    <radialGradient
       gradientUnits="userSpaceOnUse"
       gradientTransform="matrix(-1.4307499,-1.3605156e-7,-1.202713e-8,0.1264801,2674.7488,1244.2826)"
       r="194.40614"
       fy="1424.4465"
       fx="1103.6399"
       cy="1424.4465"
       cx="1103.6399"
       id="radialGradient6355"
       xlink:href="#linearGradient6349" />
    <linearGradient
       gradientUnits="userSpaceOnUse"
       y2="16"
       x2="31"
       y1="50"
       x1="35"
       id="linearGradient3899"
       xlink:href="#linearGradient3893" />
    <linearGradient
       id="linearGradient3893">
      <stop
         id="stop3895"
         offset="0"
         style="stop-color:#d3d7cf;stop-opacity:1" />
      <stop
         id="stop3897"
         offset="1"
         style="stop-color:#ffffff;stop-opacity:1" />
    </linearGradient>
    <linearGradient
       gradientUnits="userSpaceOnUse"
       y2="4.7365441"
       x2="21.564972"
       y1="10.393398"
       x1="39.949749"
       id="linearGradient3907-7"
       xlink:href="#linearGradient3893-4"
       gradientTransform="matrix(0.70710678,0.70710678,-0.70710678,0.70710678,34.704127,-9.9426796)" />
    <linearGradient
       id="linearGradient3893-4">
      <stop
         id="stop3895-0"
         offset="0"
         style="stop-color:#d3d7cf;stop-opacity:1" />
      <stop
         id="stop3897-9"
         offset="1"
         style="stop-color:#ffffff;stop-opacity:1" />
    </linearGradient>
    <linearGradient
       xlink:href="#linearGradient4"
       id="linearGradient5"
       x1="50.928848"
       y1="16.894117"
       x2="15.731859"
       y2="43.20948"
       gradientUnits="userSpaceOnUse" />
  </defs>
  <metadata
     id="metadata5826">
    <rdf:RDF>
      <cc:Work
         rdf:about="">
        <dc:format>image/svg+xml</dc:format>
        <dc:type
           rdf:resource="http://purl.org/dc/dcmitype/StillImage" />
        <dc:creator>
          <cc:Agent>
            <dc:title>[WandererFan]</dc:title>
          </cc:Agent>
        </dc:creator>
        <dc:title>TechDraw_Dimension</dc:title>
        <dc:date>2016-04-27</dc:date>
        <dc:relation>https://www.freecad.org/wiki/index.php?title=Artwork</dc:relation>
        <dc:publisher>
          <cc:Agent>
            <dc:title>FreeCAD</dc:title>
          </cc:Agent>
        </dc:publisher>
        <dc:identifier>FreeCAD/src/Mod/TechDraw/Gui/Resources/icons/TechDraw_Dimension.svg</dc:identifier>
        <dc:rights>
          <cc:Agent>
            <dc:title>FreeCAD LGPL2+</dc:title>
          </cc:Agent>
        </dc:rights>
        <cc:license
           rdf:resource="https://www.gnu.org/licenses/lgpl-3.0.en.html">https://www.gnu.org/copyleft/lesser.html</cc:license>
        <dc:contributor>
          <cc:Agent>
            <dc:title>[agryson] Alexander Gryson</dc:title>
          </cc:Agent>
        </dc:contributor>
        <dc:subject>
          <rdf:Bag>
            <rdf:li>arrow</rdf:li>
            <rdf:li>double arrow</rdf:li>
            <rdf:li>diagonal</rdf:li>
          </rdf:Bag>
        </dc:subject>
        <dc:description>Double arrow at an angle between two diagonal lines</dc:description>
      </cc:Work>
    </rdf:RDF>
  </metadata>
  <g
     id="layer1"
     style="display:inline"
     transform="matrix(0.91719207,0,0,1.0016512,2.6498692,-0.09597269)">
    <g
       transform="translate(-0.08539082,2.8879528)"
       id="g3362">
      <path
         id="path1428-3"
         style="display:inline;fill:#fce94f;stroke:#302b00;stroke-width:2.08661;stroke-linecap:round;stroke-linejoin:round;stroke-miterlimit:4;stroke-dasharray:none;stroke-dashoffset:1.6;stroke-opacity:1"
         d="M 46.618947,5.2044234 C 46.29178,5.213131 45.9652,5.2358939 45.639395,5.2707202 44.454656,5.397368 43.283059,5.6976662 42.161985,6.1871757 36.786501,8.5347473 37.567546,15.866683 35.726753,19.448482 34.651604,21.540509 3.8189049,47.384775 3.8189049,47.384775 c -0.7932208,3.401289 1.0602036,6.053598 4.7636049,5.693724 0,0 30.6926392,-22.446718 33.5055712,-24.138042 2.827547,-1.700112 7.994027,1.993111 11.920097,0.27705 3.587944,-1.566491 5.86924,-4.711323 6.509763,-8.328045 l -8.681814,3.792566 -8.025939,-5.114602 0.785771,-8.959815 8.681814,-3.7847662 C 51.21294,5.7160383 48.909121,5.1434701 46.618947,5.2044234 Z M 8.052274,45.772203 c 1.806442,0 3.270852,1.340932 3.270852,2.995055 0,1.654123 -1.46441,2.995055 -3.270852,2.995055 -1.8064422,0 -3.2708529,-1.340932 -3.2708526,-2.995055 -3e-7,-1.654123 1.4644104,-2.995055 3.2708526,-2.995055 z" />
      <path
         id="path5"
         style="display:inline;fill:url(#linearGradient5);stroke:#fce94f;stroke-width:2.08661148;stroke-linecap:round;stroke-linejoin:round;stroke-miterlimit:4;stroke-dasharray:none;stroke-dashoffset:1.6;stroke-opacity:1"
         d="m 46.673828,7.2910156 c 0.100031,-0.00266 0.200624,0.00174 0.300781,0.00195 L 42.625,9.1894531 41.621094,20.648437 51.652344,27.039062 56.3125,25.001953 c -0.84132,0.956203 -1.886807,1.755319 -3.140625,2.302734 -3.115166,1.36162 -8.280057,-2.485321 -12.160156,-0.152343 -0.343405,0.206478 -0.948292,0.615146 -1.734375,1.160156 -0.710069,0.492307 -1.599847,1.120011 -2.619141,1.84375 -6.620219,4.700618 1.936316,-1.594985 -23.515625,17.009766 -0.421705,-1.229003 -1.316405,-2.21998 -2.457031,-2.826172 5.73125,-4.814236 5.409558,-4.573187 11.214844,-9.560547 2.059681,-1.769486 4.10437,-3.538357 5.996093,-5.191406 1.051165,-0.918542 2.055695,-1.801178 2.990235,-2.63086 1.038024,-0.921554 1.993088,-1.77907 2.828125,-2.542969 0.926362,-0.847443 1.721977,-1.594193 2.324218,-2.189453 0.660133,-0.652478 1.224457,-1.202503 1.542969,-1.822265 2.286848,-4.449729 1.107768,-10.4212446 5.416016,-12.3027346 0.917647,-0.4006846 1.881801,-0.6489867 2.863281,-0.7539063 0.275067,-0.029403 0.545225,-0.047574 0.8125,-0.054687 z" />
    </g>
  </g>
</svg>
