<?xml version="1.0" encoding="UTF-8" standalone="no"?>
<!-- Created with Inkscape (http://www.inkscape.org/) -->

<svg
   width="32"
   height="32"
   viewBox="0 0 8.4666665 8.466667"
   version="1.1"
   id="svg1876"
   style="enable-background:new"
   xmlns="http://www.w3.org/2000/svg"
   xmlns:svg="http://www.w3.org/2000/svg"
   xmlns:rdf="http://www.w3.org/1999/02/22-rdf-syntax-ns#"
   xmlns:cc="http://creativecommons.org/ns#"
   xmlns:dc="http://purl.org/dc/elements/1.1/">
  <defs
     id="defs1870">
    <filter
       style="color-interpolation-filters:sRGB"
       id="filter1958"
       x="-0.00010355517"
       y="-0.015416195"
       width="1.0001319"
       height="1.0155179">
      <feBlend
         mode="exclusion"
         in2="BackgroundImage"
         id="feBlend1960" />
    </filter>
  </defs>
  <metadata
     id="metadata1873">
    <rdf:RDF>
      <cc:Work
         rdf:about="">
        <dc:format>image/svg+xml</dc:format>
        <dc:type
           rdf:resource="http://purl.org/dc/dcmitype/StillImage" />
        <dc:title />
      </cc:Work>
    </rdf:RDF>
  </metadata>
  <g
     id="layer1"
     transform="translate(0,-288.53332)"
     style="filter:url(#filter1958)">
    <g
       id="g844"
       transform="matrix(0,-0.50222198,0.50222198,0,-140.61503,297.0893)">
      <path
         id="path2201"
         d="M 2.2713905,296.79631 L 2.2471277,280.19178"
         style="fill:none;stroke:#ff0000;stroke-width:0.64999998;stroke-linecap:butt;stroke-linejoin:miter;stroke-miterlimit:4;stroke-dasharray:none;stroke-opacity:1" />
      <path
         style="fill:none;stroke:#ff0000;stroke-width:0.64999998;stroke-linecap:butt;stroke-linejoin:miter;stroke-miterlimit:4;stroke-dasharray:none;stroke-opacity:1"
         d="M 0.3822571,289.77842 L 12.90933,289.71492"
         id="path2291" />
      <path
         id="path2408"
         d="M 0.42072031,295.16414 L 15.327713,295.10144"
         style="fill:none;stroke:#ff0000;stroke-width:0.64999998;stroke-linecap:butt;stroke-linejoin:miter;stroke-miterlimit:4;stroke-dasharray:none;stroke-opacity:1" />
      <path
         d="m 1.4073528,290.02689 a 0.8976934,0.8976934 0 0 1 0.6035211,-1.11583 a 0.8976934,0.8976934 0 0 1 1.1167253,0.60186 a 0.8976934,0.8976934 0 0 1 -0.6002174,1.11762 a 0.8976934,0.8976934 0 0 1 -1.118501,-0.59856"
         id="path2410"
         style="opacity:1;fill:#ff0000;fill-opacity:1;fill-rule:nonzero;stroke:#ff0000;stroke-width:0.5;stroke-linecap:square;stroke-linejoin:bevel;stroke-miterlimit:4;stroke-dasharray:none;stroke-dashoffset:0;stroke-opacity:1" />
      <path
         style="opacity:1;fill:#ff0000;fill-opacity:1;fill-rule:nonzero;stroke:#ff0000;stroke-width:0.5;stroke-linecap:square;stroke-linejoin:bevel;stroke-miterlimit:4;stroke-dasharray:none;stroke-dashoffset:0;stroke-opacity:1"
         id="path2448"
         d="m 1.360107,284.7825 a 0.8976934,0.8976934 0 0 1 0.6035211,-1.11583 a 0.8976934,0.8976934 0 0 1 1.1167254,0.60187 a 0.8976934,0.8976934 0 0 1 -0.6002175,1.11761 a 0.8976934,0.8976934 0 0 1 -1.1185009,-0.59856" />
      <path
         style="opacity:1;fill:#ff0000;fill-opacity:1;fill-rule:nonzero;stroke:#ff0000;stroke-width:0.5;stroke-linecap:square;stroke-linejoin:bevel;stroke-miterlimit:4;stroke-dasharray:none;stroke-dashoffset:0;stroke-opacity:1"
         id="path2450"
         d="m 1.3601068,295.36582 a 0.8976934,0.8976934 0 0 1 0.6035211,-1.11584 a 0.8976934,0.8976934 0 0 1 1.1167253,0.60187 a 0.8976934,0.8976934 0 0 1 -0.6002174,1.11762 a 0.8976934,0.8976934 0 0 1 -1.118501,-0.59857" />
      <path
         id="path2454"
         d="m 0.39600556,284.53485 l 8.71981464,-0.0652"
         style="fill:none;stroke:#ff0000;stroke-width:0.64999998;stroke-linecap:butt;stroke-linejoin:miter;stroke-miterlimit:4;stroke-dasharray:none;stroke-opacity:1" />
      <path
         style="opacity:1;fill:#ff0000;fill-opacity:1;fill-rule:nonzero;stroke:#ff0000;stroke-width:0.5;stroke-linecap:square;stroke-linejoin:bevel;stroke-miterlimit:4;stroke-dasharray:none;stroke-dashoffset:0;stroke-opacity:1"
         id="path823"
         d="m 11.092993,289.93241 a 0.8976934,0.8976934 0 0 1 0.603521,-1.11584 a 0.8976934,0.8976934 0 0 1 1.116725,0.60187 a 0.8976934,0.8976934 0 0 1 -0.600217,1.11762 a 0.8976934,0.8976934 0 0 1 -1.118501,-0.59857" />
      <path
         d="m 8.0219372,284.64075 a 0.8976934,0.8976934 0 0 1 0.6035211,-1.11583 a 0.8976934,0.8976934 0 0 1 1.1167254,0.60187 a 0.8976934,0.8976934 0 0 1 -0.6002175,1.11761 a 0.8976934,0.8976934 0 0 1 -1.118501,-0.59856"
         id="path825"
         style="opacity:1;fill:#ff0000;fill-opacity:1;fill-rule:nonzero;stroke:#ff0000;stroke-width:0.5;stroke-linecap:square;stroke-linejoin:bevel;stroke-miterlimit:4;stroke-dasharray:none;stroke-dashoffset:0;stroke-opacity:1" />
      <path
         d="m 14.825509,295.31858 a 0.8976934,0.8976934 0 0 1 0.603521,-1.11584 a 0.8976934,0.8976934 0 0 1 1.116725,0.60187 a 0.8976934,0.8976934 0 0 1 -0.600217,1.11762 a 0.8976934,0.8976934 0 0 1 -1.118501,-0.59857"
         id="path827"
         style="opacity:1;fill:#ff0000;fill-opacity:1;fill-rule:nonzero;stroke:#ff0000;stroke-width:0.5;stroke-linecap:square;stroke-linejoin:bevel;stroke-miterlimit:4;stroke-dasharray:none;stroke-dashoffset:0;stroke-opacity:1" />
      <path
         style="fill:none;stroke:#ff0000;stroke-width:0.54794431;stroke-linecap:butt;stroke-linejoin:miter;stroke-miterlimit:4;stroke-dasharray:none;stroke-opacity:1"
         d="m 8.8806143,280.0511 l 0.066073,6.11472"
         id="path838" />
      <path
         id="path842"
         d="m 12.000105,280.03501 l 0.0637,11.39133"
         style="fill:none;stroke:#ff0000;stroke-width:0.62079936;stroke-linecap:butt;stroke-linejoin:miter;stroke-miterlimit:4;stroke-dasharray:none;stroke-opacity:1" />
      <path
         style="fill:none;stroke:#ff0000;stroke-width:0.64999998;stroke-linecap:butt;stroke-linejoin:miter;stroke-miterlimit:4;stroke-dasharray:none;stroke-opacity:1"
         d="m 15.638729,280.11868 l 0.06249,16.56282"
         id="path844" />
    </g>
  </g>
</svg>
