<?xml version="1.0" encoding="UTF-8" standalone="no"?>
<!-- Created with Inkscape (http://www.inkscape.org/) -->

<svg
   width="64"
   height="64"
   viewBox="0 0 16.933333 16.933334"
   version="1.1"
   id="svg1876"
   style="enable-background:new"
   xmlns="http://www.w3.org/2000/svg"
   xmlns:svg="http://www.w3.org/2000/svg"
   xmlns:rdf="http://www.w3.org/1999/02/22-rdf-syntax-ns#"
   xmlns:cc="http://creativecommons.org/ns#"
   xmlns:dc="http://purl.org/dc/elements/1.1/">
  <defs
     id="defs1870" />
  <metadata
     id="metadata1873">
    <rdf:RDF>
      <cc:Work
         rdf:about="">
        <dc:format>image/svg+xml</dc:format>
        <dc:type
           rdf:resource="http://purl.org/dc/dcmitype/StillImage" />
      </cc:Work>
    </rdf:RDF>
  </metadata>
  <g
     id="layer2"
     transform="matrix(0.5768812,-0.5998532,0.5768812,0.5998532,4.4002526,7.9398173)">
    <path
       d="M -3.5030931,-2.5711961 V 10.171073 h 1.074285 V -2.5711961 Z"
       style="display:inline;fill:#d3d7cf;stroke:#babdb6;stroke-width:0.63608;stroke-dasharray:none;enable-background:new"
       id="path6" />
    <path
       d="M -3.2305627,-2.8278903 V 9.9144874 H -2.701396 V -2.8278903 Z"
       style="display:inline;fill:#555753;stroke:none;stroke-width:0.63608;stroke-dasharray:none;enable-background:new"
       id="path5" />
    <rect
       style="fill:#fce94f;stroke:#302b00;stroke-width:0.63608;stroke-linejoin:round;stroke-dasharray:none;stroke-opacity:1;enable-background:new"
       id="rect6"
       width="1.0583334"
       height="13.744959"
       x="8.2994499"
       y="-2.5465658" />
    <rect
       style="fill:#fce94f;stroke:#302b00;stroke-width:0.63608;stroke-linejoin:round;stroke-dasharray:none;stroke-opacity:1;enable-background:new"
       id="rect7"
       width="1.0583334"
       height="9.5481329"
       x="5.3482876"
       y="-2.5831356" />
    <rect
       style="display:inline;fill:#fce94f;stroke:#302b00;stroke-width:0.63608;stroke-linejoin:round;stroke-dasharray:none;stroke-opacity:1;enable-background:new"
       id="rect9"
       width="1.0587093"
       height="5.079114"
       x="2.5260231"
       y="-2.6460211" />
    <rect
       style="fill:#fce94f;stroke:#302b00;stroke-width:0.63608;stroke-linejoin:round;stroke-dasharray:none;stroke-opacity:1;enable-background:new"
       id="rect10"
       width="1.0583334"
       height="12.106468"
       x="-9.8956575"
       y="-2.9834063"
       transform="rotate(-90)" />
    <rect
       style="fill:#fce94f;stroke:#302b00;stroke-width:0.63608;stroke-linejoin:round;stroke-dasharray:none;stroke-opacity:1;enable-background:new"
       id="rect11"
       width="1.0583334"
       height="9.1397543"
       x="-5.540616"
       y="-3.011975"
       transform="rotate(-90)" />
    <rect
       style="fill:#fce94f;stroke:#302b00;stroke-width:0.63608;stroke-linejoin:round;stroke-dasharray:none;stroke-opacity:1;enable-background:new"
       id="rect12"
       width="1.0583334"
       height="6.6220021"
       x="-1.0953571"
       y="-3.0445657"
       transform="rotate(-90)" />
    <path
       style="enable-background:new;fill:none;stroke:#fce94f;stroke-width:0.63608;stroke-linecap:square;stroke-opacity:1"
       d="M 3.0421702,-2.6485167 3.0412401,1.797597"
       id="path2" />
    <path
       style="enable-background:new;fill:none;stroke:#fce94f;stroke-width:0.63608;stroke-linecap:square;stroke-opacity:1"
       d="M 5.8677847,-2.586355 5.89049,6.3675905"
       id="path4" />
    <path
       style="enable-background:new;fill:none;stroke:#fce94f;stroke-width:0.63608;stroke-linecap:square;stroke-opacity:1"
       d="m 8.829709,-2.5484066 -0.0028,13.1194756"
       id="path7" />
    <g
       id="g7"
       style="enable-background:new"
       transform="translate(-5.4239586,-4.1478966)">
      <circle
         style="fill:#fce94f;stroke:#302b00;stroke-width:0.63608;stroke-dasharray:none"
         id="path3"
         cx="14.24596"
         cy="13.518621"
         r="1.0583334" />
      <path
         style="fill:#c4a000;stroke:#fce94f;stroke-width:0.63608;stroke-dasharray:none"
         id="circle1"
         d="m 14.222656,13.091797 h 0.02344 c 0.232538,0 0.427734,0.195196 0.427734,0.427734 0,0.232538 -0.193746,0.425782 -0.427734,0.425782 -0.233988,0 -0.427735,-0.193244 -0.427735,-0.425782 0,-0.225432 0.186368,-0.416687 0.404297,-0.427734 z" />
    </g>
    <g
       id="g6"
       transform="translate(-8.3804123,-8.4727761)"
       style="enable-background:new">
      <circle
         style="fill:#fce94f;stroke:#302b00;stroke-width:0.63608;stroke-dasharray:none"
         id="circle4"
         cx="14.24596"
         cy="13.518621"
         r="1.0583334" />
      <path
         style="fill:#c4a000;stroke:#fce94f;stroke-width:0.63608;stroke-dasharray:none"
         id="circle2"
         d="m 14.222656,13.091797 h 0.02344 c 0.232208,0 0.427734,0.195526 0.427734,0.427734 0,0.232209 -0.194075,0.425782 -0.427734,0.425782 -0.23366,0 -0.427735,-0.193573 -0.427735,-0.425782 0,-0.225112 0.186688,-0.416703 0.404297,-0.427734 z" />
    </g>
    <g
       id="g11"
       transform="translate(-11.152187,-12.991595)"
       style="display:inline;enable-background:new">
      <circle
         style="fill:#fce94f;stroke:#302b00;stroke-width:0.63608;stroke-dasharray:none"
         id="circle11"
         cx="14.24596"
         cy="13.518621"
         r="1.0583334" />
      <path
         style="fill:#c4a000;stroke:#fce94f;stroke-width:0.63608;stroke-dasharray:none"
         id="circle3"
         d="m 14.224609,13.097656 h 0.02149 c 0.229296,0 0.421875,0.192579 0.421875,0.421875 0,0.229296 -0.191116,0.419922 -0.421875,0.419922 -0.23076,0 -0.421875,-0.190626 -0.421875,-0.419922 0,-0.222292 0.185605,-0.410987 0.40039,-0.421875 z" />
    </g>
    <g
       id="g15"
       transform="translate(-17.156377,-12.991595)"
       style="display:inline;stroke-width:0.529167;stroke-dasharray:none;enable-background:new">
      <circle
         style="fill:#d3d7cf;stroke:#555753;stroke-width:0.63608;stroke-dasharray:none"
         id="circle15"
         cx="14.24596"
         cy="13.518621"
         r="1.0583334" />
      <path
         style="fill:#888a85;stroke:#d3d7cf;stroke-width:0.63608;stroke-dasharray:none"
         id="circle5"
         d="m 14.222656,13.089844 h 0.02344 c 0.233351,0 0.429687,0.196336 0.429687,0.429687 0,0.233351 -0.19489,0.427735 -0.429687,0.427735 -0.234798,0 -0.429688,-0.194384 -0.429688,-0.427735 0,-0.226219 0.187533,-0.4186 0.40625,-0.429687 z" />
    </g>
    <g
       id="g17"
       transform="translate(-17.156377,-8.4727761)"
       style="enable-background:new">
      <circle
         style="fill:#d3d7cf;stroke:#555753;stroke-width:0.63608;stroke-dasharray:none"
         id="circle17"
         cx="14.24596"
         cy="13.518621"
         r="1.0583334" />
      <path
         style="fill:#888a85;stroke:#d3d7cf;stroke-width:0.63608;stroke-dasharray:none"
         id="circle6"
         d="m 14.224609,13.099609 h 0.02149 c 0.22843,0 0.419922,0.191492 0.419922,0.419922 0,0.228431 -0.190025,0.417969 -0.419922,0.417969 -0.229898,0 -0.419922,-0.189538 -0.419922,-0.417969 0,-0.221454 0.184491,-0.409077 0.398437,-0.419922 z" />
    </g>
    <g
       id="g19"
       transform="translate(-17.156377,-4.1478966)"
       style="display:inline;enable-background:new">
      <circle
         style="fill:#d3d7cf;stroke:#555753;stroke-width:0.63608;stroke-dasharray:none"
         id="circle19"
         cx="14.24596"
         cy="13.518621"
         r="1.0583334" />
      <path
         style="fill:#888a85;stroke:#d3d7cf;stroke-width:0.63608;stroke-dasharray:none"
         id="circle7"
         d="m 14.220703,13.101563 c 4.1e-4,4.88e-4 0.0055,0.002 0.02539,0.002 0.226571,0 0.416015,0.189444 0.416015,0.416015 0,0.226572 -0.187969,0.414063 -0.416015,0.414063 -0.228046,0 -0.416016,-0.187491 -0.416016,-0.414063 0,-0.218295 0.180166,-0.405112 0.390625,-0.417968 z" />
    </g>
  </g>
  <g
     id="g23"
     style="enable-background:new"
     transform="rotate(45,9.3417661,8.815457)">
    <g
       id="g14"
       transform="matrix(0.82120262,-1.7499241e-8,-1.7499241e-8,0.82120262,1.7903198,2.188557)">
      <rect
         style="display:none;fill:#fce94f;fill-opacity:1;stroke:none;stroke-width:0.64438;stroke-linecap:square;stroke-dasharray:none;enable-background:new"
         id="rect13"
         width="2.1158729"
         height="1.5292916"
         x="5.9637084"
         y="11.475509" />
      <path
         style="fill:none;stroke:#cc0000;stroke-width:0.64438;stroke-linecap:square;stroke-dasharray:none"
         d="m 6.3031111,11.740092 h 1.5866277 m -1.5866277,1 h 1.5866277"
         id="path7-9"
         transform="translate(-0.07481921)" />
    </g>
    <g
       id="g1"
       transform="matrix(0.82120262,-1.7499241e-8,-1.7499241e-8,0.82120262,5.41984,2.188557)">
      <rect
         style="display:none;fill:#fce94f;fill-opacity:1;stroke:none;stroke-width:0.64438;stroke-linecap:square;stroke-dasharray:none;enable-background:new"
         id="rect1"
         width="2.1158729"
         height="1.5292916"
         x="5.9637084"
         y="11.475509" />
      <path
         style="fill:none;stroke:#cc0000;stroke-width:0.64438;stroke-linecap:square;stroke-dasharray:none"
         d="m 6.3031111,11.740092 h 1.5866277 m -1.5866277,1 h 1.5866277"
         id="path1"
         transform="translate(-0.07481921)" />
    </g>
  </g>
</svg>
