<?xml version="1.0" encoding="UTF-8" standalone="no"?>
<!-- Created with Inkscape (http://www.inkscape.org/) -->

<svg
   width="64"
   height="64"
   viewBox="0 0 16.933333 16.933334"
   version="1.1"
   id="svg998"
   xmlns="http://www.w3.org/2000/svg"
   xmlns:svg="http://www.w3.org/2000/svg"
   xmlns:rdf="http://www.w3.org/1999/02/22-rdf-syntax-ns#"
   xmlns:cc="http://creativecommons.org/ns#"
   xmlns:dc="http://purl.org/dc/elements/1.1/">
  <defs
     id="defs992">
    <rect
       x="13.131983"
       y="10.606602"
       width="74.119943"
       height="82.201164"
       id="rect1" />
  </defs>
  <metadata
     id="metadata995">
    <rdf:RDF>
      <cc:Work
         rdf:about="">
        <dc:format>image/svg+xml</dc:format>
        <dc:type
           rdf:resource="http://purl.org/dc/dcmitype/StillImage" />
      </cc:Work>
    </rdf:RDF>
  </metadata>
  <g
     id="layer2">
    <g
       id="g11">
      <path
         id="path2"
         style="font-size:32px;text-align:end;text-anchor:end;white-space:pre;shape-padding:1.01016;display:inline;fill:#fce94f;stroke:#302b00;stroke-width:2;stroke-linecap:square"
         d="m 78.289063,45.873626 c -2.572957,0 -4.479149,0.963564 -5.718751,2.890625 -1.229185,1.927061 -1.84375,4.880256 -1.84375,8.859375 0,3.854122 0.640606,6.781274 1.921875,8.781251 1.28127,1.98956 3.161421,2.984375 5.640626,2.984375 2.562537,0 4.468732,-0.968772 5.71875,-2.90625 1.260438,-1.937477 1.890625,-4.890672 1.890625,-8.859376 0,-3.833287 -0.65102,-6.750023 -1.953125,-8.75 -1.291686,-1.999977 -3.177048,-3 -5.65625,-3 z m 0,3.40625 c 1.28908,0 2.143972,0.529835 2.732421,1.714844 0.664508,1.31987 1.033205,3.479871 1.033204,6.628906 0,3.180856 -0.370347,5.357256 -1.035157,6.677735 -0.58438,1.168732 -1.438785,1.697266 -2.730468,1.697266 -1.274014,0 -2.130168,-0.521423 -2.718751,-1.658204 -0.646142,-1.265328 -1.015625,-3.460948 -1.015625,-6.716797 0,-3.214257 0.363789,-5.395547 1.001954,-6.671875 0.581124,-1.146075 1.43553,-1.671875 2.732422,-1.671875 z"
         transform="matrix(0.26458333,0,0,0.26458333,-7.3814612,-3.0506128)" />
      <path
         style="font-size:32px;white-space:pre;shape-padding:1.01016;fill:#fce94f;stroke:#302b00;stroke-width:2;stroke-linecap:square;text-align:end;text-anchor:end;display:inline"
         d="m 62.88244,67.342397 q 0,-1.031239 0.500007,-1.578108 0.515634,-0.562495 1.453149,-0.562495 0.95314,0 1.484399,0.562495 0.531258,0.546869 0.531258,1.578108 0,1.015613 -0.531258,1.609357 -0.531259,0.57812 -1.484399,0.57812 -0.921889,0 -1.437523,-0.57812 -0.515633,-0.578119 -0.515633,-1.609357 z"
         transform="matrix(0.26458333,0,0,0.26458333,-7.3814612,-3.0506128)"
         id="path6" />
    </g>
    <path
       d="M 8.2134604,11.273896 7.6842937,9.6863958 10.62064,11.803062 7.6842937,13.919729 8.2134604,12.332229 H 1.5874871 v -1.058333 z"
       id="text6"
       style="font-size:14.8167px;line-height:0px;text-align:end;text-anchor:end;fill:#fce94f;stroke:#302b00;stroke-width:0.529166;stroke-linecap:square;stroke-linejoin:round"
       aria-label="→" />
    <g
       id="g10">
      <path
         style="font-size:32px;white-space:pre;shape-padding:1.01016;fill:#fce94f;stroke:#302b00;stroke-width:2.00001;stroke-linecap:square;text-align:end;text-anchor:end"
         d="m 44.585443,38.99862 q 0,-1.031249 0.500006,-1.578124 0.515631,-0.5625 1.453142,-0.5625 0.953136,0 1.484392,0.5625 0.531256,0.546875 0.531256,1.578124 0,1.015625 -0.531256,1.609375 -0.531256,0.578124 -1.484392,0.578124 -0.921886,0 -1.437517,-0.578124 -0.515631,-0.578125 -0.515631,-1.609375 z"
         transform="matrix(0.26458334,0,0,0.26458334,-7.3814613,-3.0506128)"
         id="path4" />
      <path
         id="path9"
         style="font-size:32px;text-align:end;text-anchor:end;white-space:pre;shape-padding:1.01016;display:inline;fill:#fce94f;stroke:#302b00;stroke-width:0.529167;stroke-linecap:square"
         d="m 13.332487,1.5875 c -0.680762,0 -1.185108,0.254943 -1.513086,0.7648112 -0.325222,0.5098682 -0.487826,1.2912344 -0.487826,2.3440429 0,1.0197365 0.169494,1.7942121 0.508496,2.3233727 0.339003,0.5264044 0.836459,0.7896158 1.492416,0.7896158 0.678004,0 1.182352,-0.2563209 1.513086,-0.7689453 0.333491,-0.5126241 0.500228,-1.2939902 0.500228,-2.3440432 0,-1.0142238 -0.172249,-1.7859435 -0.516765,-2.3151041 C 14.487278,1.8520894 13.988442,1.5875 13.332487,1.5875 Z m 0,0.901237 c 0.341069,0 0.567259,0.1401855 0.722953,0.4537191 0.175818,0.3492156 0.273369,0.9207159 0.273368,1.753898 0,0.8416015 -0.09799,1.4174407 -0.273885,1.7668174 -0.154617,0.309227 -0.380678,0.4490683 -0.722436,0.4490683 -0.337083,0 -0.563607,-0.1379598 -0.719336,-0.4387331 -0.170959,-0.3347847 -0.268718,-0.9157092 -0.268718,-1.7771526 0,-0.8504388 0.09625,-1.4275718 0.2651,-1.7652669 0.153756,-0.3032323 0.379818,-0.4423502 0.722954,-0.4423502 z" />
      <path
         id="path10"
         style="font-size:32px;text-align:end;text-anchor:end;white-space:pre;shape-padding:1.01016;display:inline;fill:#fce94f;stroke:#302b00;stroke-width:0.529167;stroke-linecap:square"
         d="m 8.491406,1.5875 c -0.680762,0 -1.185108,0.254943 -1.513086,0.7648112 -0.325222,0.5098682 -0.487826,1.2912344 -0.487826,2.3440429 0,1.0197365 0.169494,1.7942121 0.508496,2.3233727 0.339003,0.5264044 0.836459,0.7896158 1.492416,0.7896158 0.678004,0 1.182352,-0.2563209 1.513086,-0.7689453 C 10.337983,6.5277732 10.50472,5.7464071 10.50472,4.6963541 10.50472,3.6821303 10.332471,2.9104106 9.987955,2.38125 9.646197,1.8520894 9.147361,1.5875 8.491406,1.5875 Z m 0,0.901237 c 0.341069,0 0.567259,0.1401855 0.722953,0.4537191 0.175818,0.3492156 0.273369,0.9207159 0.273368,1.753898 0,0.8416015 -0.09799,1.4174407 -0.273885,1.7668174 C 9.059225,6.7723985 8.833164,6.9122398 8.491406,6.9122398 8.154323,6.9122398 7.927799,6.77428 7.77207,6.4735067 7.601111,6.138722 7.503352,5.5577975 7.503352,4.6963541 c 0,-0.8504388 0.09625,-1.4275718 0.2651,-1.7652669 C 7.922208,2.6278549 8.14827,2.488737 8.491406,2.488737 Z" />
    </g>
  </g>
</svg>
