<?xml version="1.0" encoding="UTF-8" standalone="no"?>
<svg
   width="64"
   height="64"
   fill-rule="evenodd"
   stroke-linejoin="round"
   stroke-width="28.222"
   preserveAspectRatio="xMidYMid"
   version="1.2"
   viewBox="0 0 1693.3333 1693.3333"
   xml:space="preserve"
   id="svg25"
   xmlns="http://www.w3.org/2000/svg"
   xmlns:svg="http://www.w3.org/2000/svg">
 <defs
   class="ClipPathGroup"
   id="defs1">
  <clipPath
   id="presentation_clip_path">
   <rect
   width="1719"
   height="1719"
   id="rect1"
   x="0"
   y="0" />
  </clipPath>
 </defs>
 
<path
   style="fill:none;stroke:#0b1521;stroke-width:158.75;stroke-linecap:square;stroke-linejoin:round;stroke-dasharray:none;paint-order:fill markers stroke"
   id="path27"
   d="m 873.125,185.20898 c 182.432,0 357.4306,72.48722 486.4297,201.48633 128.9991,128.99911 201.4863,303.99771 201.4863,486.42969 0,182.432 -72.4872,357.4306 -201.4863,486.4297 -128.9991,128.9991 -303.9977,201.4863 -486.4297,201.4863 -182.43198,0 -357.43058,-72.4872 -486.42969,-201.4863 C 257.6962,1230.5556 185.20898,1055.557 185.20898,873.125 c 0,-182.43198 72.48722,-357.43058 201.48633,-486.42969 C 515.69442,257.6962 690.69302,185.20898 873.125,185.20898 Z"
   transform="translate(-6.53125e-4)" /><path
   style="fill:none;stroke:#729fcf;stroke-width:52.9167;stroke-linecap:square;stroke-linejoin:round;stroke-dasharray:none;paint-order:fill markers stroke"
   id="path25"
   transform="translate(-6.3827209e-4)"
   d="m 873.125,185.20898 c 182.432,0 357.4306,72.48722 486.4297,201.48633 128.9991,128.99911 201.4863,303.99771 201.4863,486.42969 0,182.432 -72.4872,357.4306 -201.4863,486.4297 -128.9991,128.9991 -303.9977,201.4863 -486.4297,201.4863 -182.43198,0 -357.43058,-72.4872 -486.42969,-201.4863 C 257.6962,1230.5556 185.20898,1055.557 185.20898,873.125 c 0,-182.43198 72.48722,-357.43058 201.48633,-486.42969 C 515.69442,257.6962 690.69302,185.20898 873.125,185.20898 Z" /><g
   id="g2"
   transform="matrix(109.1203,0,0,108.38212,-1182.963,-30119.351)"><path
     d="m 11.573946,283.52326 a 1.4515856,1.4655538 0 0 1 1.350059,-1.47081 1.4515856,1.4655538 0 0 1 1.540087,1.26628 1.4515856,1.4655538 0 0 1 -1.153248,1.63264 1.4515856,1.4655538 0 0 1 -1.687464,-1.05765"
     id="path1738"
     style="display:inline;opacity:1;fill:#d3d7cf;fill-opacity:1;fill-rule:nonzero;stroke:#555753;stroke-width:0.486544;stroke-linecap:square;stroke-linejoin:bevel;stroke-miterlimit:4;stroke-dasharray:none;stroke-dashoffset:0;stroke-opacity:1" /><path
     d="m 12.060525,283.52035 c -0.0031,-0.51567 0.395687,-0.94699 0.89783,-0.98253 0.502143,-0.0355 0.955243,0.33434 1.023425,0.84527 0.06818,0.51094 -0.273662,0.99141 -0.767469,1.09136 -0.493809,0.1 -0.988554,-0.20791 -1.120624,-0.70555"
     id="path1"
     style="display:inline;opacity:1;fill:#888a85;fill-opacity:1;fill-rule:nonzero;stroke:#d3d7cf;stroke-width:0.486544;stroke-linecap:square;stroke-linejoin:bevel;stroke-miterlimit:4;stroke-dasharray:none;stroke-dashoffset:0;stroke-opacity:1" /></g><g
   id="g3"
   transform="matrix(109.1203,0,0,108.38212,-812.5463,-30489.768)"><path
     d="m 11.573946,283.52326 a 1.4515856,1.4655538 0 0 1 1.350059,-1.47081 1.4515856,1.4655538 0 0 1 1.540087,1.26628 1.4515856,1.4655538 0 0 1 -1.153248,1.63264 1.4515856,1.4655538 0 0 1 -1.687464,-1.05765"
     id="path2"
     style="display:inline;opacity:1;fill:#d3d7cf;fill-opacity:1;fill-rule:nonzero;stroke:#555753;stroke-width:0.486544;stroke-linecap:square;stroke-linejoin:bevel;stroke-miterlimit:4;stroke-dasharray:none;stroke-dashoffset:0;stroke-opacity:1" /><path
     d="m 12.060525,283.52035 c -0.0031,-0.51567 0.395687,-0.94699 0.89783,-0.98253 0.502143,-0.0355 0.955243,0.33434 1.023425,0.84527 0.06818,0.51094 -0.273662,0.99141 -0.767469,1.09136 -0.493809,0.1 -0.988554,-0.20791 -1.120624,-0.70555"
     id="path3"
     style="display:inline;opacity:1;fill:#888a85;fill-opacity:1;fill-rule:nonzero;stroke:#d3d7cf;stroke-width:0.486544;stroke-linecap:square;stroke-linejoin:bevel;stroke-miterlimit:4;stroke-dasharray:none;stroke-dashoffset:0;stroke-opacity:1" /></g><g
   id="g5"
   transform="matrix(109.1203,0,0,108.38212,-204.00465,-30436.851)"><path
     d="m 11.573946,283.52326 a 1.4515856,1.4655538 0 0 1 1.350059,-1.47081 1.4515856,1.4655538 0 0 1 1.540087,1.26628 1.4515856,1.4655538 0 0 1 -1.153248,1.63264 1.4515856,1.4655538 0 0 1 -1.687464,-1.05765"
     id="path4"
     style="display:inline;opacity:1;fill:#d3d7cf;fill-opacity:1;fill-rule:nonzero;stroke:#555753;stroke-width:0.486544;stroke-linecap:square;stroke-linejoin:bevel;stroke-miterlimit:4;stroke-dasharray:none;stroke-dashoffset:0;stroke-opacity:1" /><path
     d="m 12.060525,283.52035 c -0.0031,-0.51567 0.395687,-0.94699 0.89783,-0.98253 0.502143,-0.0355 0.955243,0.33434 1.023425,0.84527 0.06818,0.51094 -0.273662,0.99141 -0.767469,1.09136 -0.493809,0.1 -0.988554,-0.20791 -1.120624,-0.70555"
     id="path5"
     style="display:inline;opacity:1;fill:#888a85;fill-opacity:1;fill-rule:nonzero;stroke:#d3d7cf;stroke-width:0.486544;stroke-linecap:square;stroke-linejoin:bevel;stroke-miterlimit:4;stroke-dasharray:none;stroke-dashoffset:0;stroke-opacity:1" /></g></svg>
