<?xml version="1.0" encoding="UTF-8" standalone="no"?>
<!-- Created with Inkscape (http://www.inkscape.org/) -->

<svg
   width="64"
   height="64"
   viewBox="0 0 16.933333 16.933334"
   version="1.1"
   id="svg843"
   xmlns="http://www.w3.org/2000/svg"
   xmlns:svg="http://www.w3.org/2000/svg"
   xmlns:rdf="http://www.w3.org/1999/02/22-rdf-syntax-ns#"
   xmlns:cc="http://creativecommons.org/ns#"
   xmlns:dc="http://purl.org/dc/elements/1.1/">
  <defs
     id="defs837" />
  <metadata
     id="metadata840">
    <rdf:RDF>
      <cc:Work
         rdf:about="">
        <dc:format>image/svg+xml</dc:format>
        <dc:type
           rdf:resource="http://purl.org/dc/dcmitype/StillImage" />
      </cc:Work>
    </rdf:RDF>
  </metadata>
  <g
     id="g3"
     transform="matrix(1.688137,0,0,1.7516193,1.342005,1.17965)">
    <g
       id="g4"
       transform="matrix(0,0.96375794,-1.0376049,0,6.043372,0.21549653)"
       style="display:inline">
      <path
         id="path3"
         d="M 5.6232889,1.1806475 0.30139241,5.3198379"
         style="fill:none;stroke:#0b1521;stroke-width:0.923186;stroke-linecap:butt;stroke-linejoin:miter;stroke-miterlimit:4;stroke-dasharray:none;stroke-dashoffset:2.16674;stroke-opacity:1" />
      <path
         id="path4"
         d="M 11.396595,282.37558 0.65746922,290.72811"
         style="display:inline;fill:none;stroke:#729fcf;stroke-width:0.620971;stroke-linecap:butt;stroke-linejoin:miter;stroke-miterlimit:4;stroke-dasharray:none;stroke-dashoffset:2.16674;stroke-opacity:1"
         transform="matrix(0.49556143,0,0,0.49556143,-0.02442399,-138.7538)" />
    </g>
    <g
       id="g2"
       transform="matrix(0.99998945,0,0,1.0000056,1.5662187,2.5543029)"
       style="display:inline">
      <path
         id="path845-6-5"
         d="M 13.37281,280.83818 C 0.65746922,290.72811 0.65746922,290.72811 0.65746922,290.72811"
         style="fill:none;stroke:#555753;stroke-width:1.86291;stroke-linecap:butt;stroke-linejoin:miter;stroke-miterlimit:4;stroke-dasharray:none;stroke-dashoffset:2.16674;stroke-opacity:1"
         transform="matrix(0.49556143,0,0,0.49556143,-0.024424,-138.7538)" />
      <path
         id="path1"
         d="M 13.37281,280.83818 C 0.65746922,290.72811 0.65746922,290.72811 0.65746922,290.72811"
         style="display:inline;fill:none;stroke:#d3d7cf;stroke-width:0.620971;stroke-linecap:butt;stroke-linejoin:miter;stroke-miterlimit:4;stroke-dasharray:none;stroke-dashoffset:2.16674;stroke-opacity:1"
         transform="matrix(0.49556143,0,0,0.49556143,-0.02442399,-138.7538)" />
    </g>
    <g
       id="g1"
       transform="translate(-2.3991255,-1.7945182)">
      <ellipse
         transform="matrix(0.3080251,0.38820316,-0.38543637,0.31148024,-0.02442399,-138.7538)"
         id="path827-1"
         style="opacity:1;fill:#d3d7cf;fill-opacity:1;fill-rule:nonzero;stroke:#555753;stroke-width:0.620983;stroke-linecap:butt;stroke-linejoin:round;stroke-miterlimit:4;stroke-dasharray:none;stroke-dashoffset:0;stroke-opacity:1;paint-order:markers fill stroke"
         cx="226.61226"
         cy="172.26399"
         rx="1.6844164"
         ry="1.7167388" />
      <path
         transform="matrix(0.3080251,0.38820316,-0.38543637,0.31148024,-0.02442399,-138.7538)"
         d="m 226.61133,171.16797 c 0.57751,0 1.06445,0.48766 1.06445,1.0957 0,0.60804 -0.48694,1.0957 -1.06445,1.0957 -0.57752,0 -1.0625,-0.48678 -1.0625,-1.0957 0,-0.60892 0.48498,-1.0957 1.0625,-1.0957 z"
         id="path2"
         style="opacity:1;fill:#888a85;fill-opacity:1;fill-rule:nonzero;stroke:#d3d7cf;stroke-width:0.620983;stroke-linecap:butt;stroke-linejoin:round;stroke-miterlimit:4;stroke-dasharray:none;stroke-dashoffset:0;stroke-opacity:1;paint-order:markers fill stroke" />
    </g>
  </g>
</svg>
