<?xml version="1.0" encoding="UTF-8" standalone="no"?>
<!-- Created with Inkscape (http://www.inkscape.org/) -->

<svg
   width="64"
   height="64"
   viewBox="0 0 16.933333 16.933333"
   version="1.1"
   id="svg1"
   xmlns="http://www.w3.org/2000/svg"
   xmlns:svg="http://www.w3.org/2000/svg"
   xmlns:rdf="http://www.w3.org/1999/02/22-rdf-syntax-ns#"
   xmlns:cc="http://creativecommons.org/ns#">
  <defs
     id="defs1">
    <clipPath
       clipPathUnits="userSpaceOnUse"
       id="clipPath3">
      <path
         d="M 0,24 H 24 V 0 H 0 Z"
         transform="matrix(1.3333333,0,0,-1.3333333,0,32)"
         id="path3" />
    </clipPath>
    <clipPath
       clipPathUnits="userSpaceOnUse"
       id="clipPath1">
      <path
         d="M 2.00005,22 H 22 V 2.00005 H 2.00005 Z"
         transform="translate(-22,-12)"
         id="path1" />
    </clipPath>
    <clipPath
       clipPathUnits="userSpaceOnUse"
       id="clipPath6">
      <path
         d="M 0,24 H 24 V 0 H 0 Z"
         transform="matrix(1.3333333,0,0,-1.3333333,0,32)"
         id="path6" />
    </clipPath>
    <clipPath
       clipPathUnits="userSpaceOnUse"
       id="clipPath4">
      <path
         d="M 3,21 H 21 V 3 H 3 Z"
         transform="translate(-19,-3.0000001)"
         id="path4" />
    </clipPath>
    <clipPath
       clipPathUnits="userSpaceOnUse"
       id="clipPath9">
      <path
         d="M 0,24 H 24 V 0 H 0 Z"
         transform="matrix(1.3333333,0,0,-1.3333333,0,32)"
         id="path9" />
    </clipPath>
    <clipPath
       clipPathUnits="userSpaceOnUse"
       id="clipPath7">
      <path
         d="M 4,22 H 20 V 2 H 4 Z"
         transform="translate(-6.0000002,-2.0000003)"
         id="path7" />
    </clipPath>
    <clipPath
       clipPathUnits="userSpaceOnUse"
       id="clipPath12">
      <path
         d="M 0,24 H 24 V 0 H 0 Z"
         transform="matrix(1.3333333,0,0,-1.3333333,0,32)"
         id="path12" />
    </clipPath>
    <clipPath
       clipPathUnits="userSpaceOnUse"
       id="clipPath10">
      <path
         d="M 2,20 H 22 V 4 H 2 Z"
         transform="translate(-22,-6.0000002)"
         id="path10" />
    </clipPath>
    <clipPath
       clipPathUnits="userSpaceOnUse"
       id="clipPath13">
      <path
         d="M 0,24 H 24 V 0 H 0 Z"
         transform="matrix(1.3333333,0,0,-1.3333333,0,32)"
         id="path13" />
    </clipPath>
    <clipPath
       clipPathUnits="userSpaceOnUse"
       id="clipPath109">
      <path
         d="M 0,24 H 24 V 0 H 0 Z"
         transform="matrix(1.3333333,0,0,-1.3333333,0,32)"
         id="path109" />
    </clipPath>
    <clipPath
       clipPathUnits="userSpaceOnUse"
       id="clipPath61">
      <path
         d="M -2.13623e-4,24.0002 H 23.9997 V 2.74658e-4 H -2.13623e-4 Z"
         transform="matrix(1.3333333,0,0,-1.3333333,0,32)"
         id="path61" />
    </clipPath>
    <clipPath
       clipPathUnits="userSpaceOnUse"
       id="clipPath14">
      <path
         d="M 48,48 H 0 V 0 h 48 z"
         transform="translate(-1.9998,-47.999799)"
         id="path14" />
    </clipPath>
    <clipPath
       clipPathUnits="userSpaceOnUse"
       id="clipPath15">
      <path
         d="M 48,48 H 0 V 0 h 48 z"
         transform="translate(-3.9998,-47.999799)"
         id="path15" />
    </clipPath>
    <clipPath
       clipPathUnits="userSpaceOnUse"
       id="clipPath16">
      <path
         d="M 48,48 H 0 V 0 h 48 z"
         transform="translate(-5.9997999,-47.999799)"
         id="path16" />
    </clipPath>
    <clipPath
       clipPathUnits="userSpaceOnUse"
       id="clipPath17">
      <path
         d="M 48,48 H 0 V 0 h 48 z"
         transform="translate(-7.9998,-47.999799)"
         id="path17" />
    </clipPath>
    <clipPath
       clipPathUnits="userSpaceOnUse"
       id="clipPath18">
      <path
         d="M 48,48 H 0 V 0 h 48 z"
         transform="translate(-9.9997999,-47.999799)"
         id="path18" />
    </clipPath>
    <clipPath
       clipPathUnits="userSpaceOnUse"
       id="clipPath19">
      <path
         d="M 48,48 H 0 V 0 h 48 z"
         transform="translate(-11.9998,-47.999799)"
         id="path19" />
    </clipPath>
    <clipPath
       clipPathUnits="userSpaceOnUse"
       id="clipPath20">
      <path
         d="M 48,48 H 0 V 0 h 48 z"
         transform="translate(-13.9998,-47.999799)"
         id="path20" />
    </clipPath>
    <clipPath
       clipPathUnits="userSpaceOnUse"
       id="clipPath21">
      <path
         d="M 48,48 H 0 V 0 h 48 z"
         transform="translate(-15.999801,-47.999799)"
         id="path21" />
    </clipPath>
    <clipPath
       clipPathUnits="userSpaceOnUse"
       id="clipPath22">
      <path
         d="M 48,48 H 0 V 0 h 48 z"
         transform="translate(-17.999801,-47.999799)"
         id="path22" />
    </clipPath>
    <clipPath
       clipPathUnits="userSpaceOnUse"
       id="clipPath23">
      <path
         d="M 48,48 H 0 V 0 h 48 z"
         transform="translate(-19.999799,-47.999799)"
         id="path23" />
    </clipPath>
    <clipPath
       clipPathUnits="userSpaceOnUse"
       id="clipPath24">
      <path
         d="M 48,48 H 0 V 0 h 48 z"
         transform="translate(-21.999799,-47.999799)"
         id="path24" />
    </clipPath>
    <clipPath
       clipPathUnits="userSpaceOnUse"
       id="clipPath25">
      <path
         d="M 48,48 H 0 V 0 h 48 z"
         transform="translate(-23.999799,-47.999799)"
         id="path25" />
    </clipPath>
    <clipPath
       clipPathUnits="userSpaceOnUse"
       id="clipPath26">
      <path
         d="M 48,48 H 0 V 0 h 48 z"
         transform="translate(-25.999799,-47.999799)"
         id="path26" />
    </clipPath>
    <clipPath
       clipPathUnits="userSpaceOnUse"
       id="clipPath27">
      <path
         d="M 48,48 H 0 V 0 h 48 z"
         transform="translate(-27.9998,-47.999799)"
         id="path27" />
    </clipPath>
    <clipPath
       clipPathUnits="userSpaceOnUse"
       id="clipPath28">
      <path
         d="M 48,48 H 0 V 0 h 48 z"
         transform="translate(-29.9998,-47.999799)"
         id="path28" />
    </clipPath>
    <clipPath
       clipPathUnits="userSpaceOnUse"
       id="clipPath29">
      <path
         d="M 48,48 H 0 V 0 h 48 z"
         transform="translate(-31.9998,-47.999799)"
         id="path29" />
    </clipPath>
    <clipPath
       clipPathUnits="userSpaceOnUse"
       id="clipPath30">
      <path
         d="M 48,48 H 0 V 0 h 48 z"
         transform="translate(-33.9998,-47.999799)"
         id="path30" />
    </clipPath>
    <clipPath
       clipPathUnits="userSpaceOnUse"
       id="clipPath31">
      <path
         d="M 48,48 H 0 V 0 h 48 z"
         transform="translate(-35.9998,-47.999799)"
         id="path31" />
    </clipPath>
    <clipPath
       clipPathUnits="userSpaceOnUse"
       id="clipPath32">
      <path
         d="M 48,48 H 0 V 0 h 48 z"
         transform="translate(-37.9998,-47.999799)"
         id="path32" />
    </clipPath>
    <clipPath
       clipPathUnits="userSpaceOnUse"
       id="clipPath33">
      <path
         d="M 48,48 H 0 V 0 h 48 z"
         transform="translate(-39.9998,-47.999799)"
         id="path33" />
    </clipPath>
    <clipPath
       clipPathUnits="userSpaceOnUse"
       id="clipPath34">
      <path
         d="M 48,48 H 0 V 0 h 48 z"
         transform="translate(-41.9998,-47.999799)"
         id="path34" />
    </clipPath>
    <clipPath
       clipPathUnits="userSpaceOnUse"
       id="clipPath35">
      <path
         d="M 48,48 H 0 V 0 h 48 z"
         transform="translate(-43.9998,-47.999799)"
         id="path35" />
    </clipPath>
    <clipPath
       clipPathUnits="userSpaceOnUse"
       id="clipPath36">
      <path
         d="M 48,48 H 0 V 0 h 48 z"
         transform="translate(-45.9998,-47.999799)"
         id="path36" />
    </clipPath>
    <clipPath
       clipPathUnits="userSpaceOnUse"
       id="clipPath37">
      <path
         d="M 48,48 H 0 V 0 h 48 z"
         transform="translate(2e-4,-1.9998)"
         id="path37" />
    </clipPath>
    <clipPath
       clipPathUnits="userSpaceOnUse"
       id="clipPath38">
      <path
         d="M 48,48 H 0 V 0 h 48 z"
         transform="translate(2e-4,-3.9997999)"
         id="path38" />
    </clipPath>
    <clipPath
       clipPathUnits="userSpaceOnUse"
       id="clipPath39">
      <path
         d="M 48,48 H 0 V 0 h 48 z"
         transform="translate(2e-4,-5.9998)"
         id="path39" />
    </clipPath>
    <clipPath
       clipPathUnits="userSpaceOnUse"
       id="clipPath40">
      <path
         d="M 48,48 H 0 V 0 h 48 z"
         transform="translate(2e-4,-7.9998)"
         id="path40" />
    </clipPath>
    <clipPath
       clipPathUnits="userSpaceOnUse"
       id="clipPath41">
      <path
         d="M 48,48 H 0 V 0 h 48 z"
         transform="translate(2e-4,-9.9997999)"
         id="path41" />
    </clipPath>
    <clipPath
       clipPathUnits="userSpaceOnUse"
       id="clipPath42">
      <path
         d="M 48,48 H 0 V 0 h 48 z"
         transform="translate(2e-4,-11.9998)"
         id="path42" />
    </clipPath>
    <clipPath
       clipPathUnits="userSpaceOnUse"
       id="clipPath43">
      <path
         d="M 48,48 H 0 V 0 h 48 z"
         transform="translate(2e-4,-13.9998)"
         id="path43" />
    </clipPath>
    <clipPath
       clipPathUnits="userSpaceOnUse"
       id="clipPath44">
      <path
         d="M 48,48 H 0 V 0 h 48 z"
         transform="translate(2e-4,-15.999799)"
         id="path44" />
    </clipPath>
    <clipPath
       clipPathUnits="userSpaceOnUse"
       id="clipPath45">
      <path
         d="M 48,48 H 0 V 0 h 48 z"
         transform="translate(2e-4,-17.9998)"
         id="path45" />
    </clipPath>
    <clipPath
       clipPathUnits="userSpaceOnUse"
       id="clipPath46">
      <path
         d="M 48,48 H 0 V 0 h 48 z"
         transform="translate(2e-4,-19.9998)"
         id="path46" />
    </clipPath>
    <clipPath
       clipPathUnits="userSpaceOnUse"
       id="clipPath47">
      <path
         d="M 48,48 H 0 V 0 h 48 z"
         transform="translate(2e-4,-21.9998)"
         id="path47" />
    </clipPath>
    <clipPath
       clipPathUnits="userSpaceOnUse"
       id="clipPath48">
      <path
         d="M 48,48 H 0 V 0 h 48 z"
         transform="translate(2e-4,-23.9998)"
         id="path48" />
    </clipPath>
    <clipPath
       clipPathUnits="userSpaceOnUse"
       id="clipPath49">
      <path
         d="M 48,48 H 0 V 0 h 48 z"
         transform="translate(2e-4,-25.9998)"
         id="path49" />
    </clipPath>
    <clipPath
       clipPathUnits="userSpaceOnUse"
       id="clipPath50">
      <path
         d="M 48,48 H 0 V 0 h 48 z"
         transform="translate(2e-4,-27.9998)"
         id="path50" />
    </clipPath>
    <clipPath
       clipPathUnits="userSpaceOnUse"
       id="clipPath51">
      <path
         d="M 48,48 H 0 V 0 h 48 z"
         transform="translate(2e-4,-29.9998)"
         id="path51" />
    </clipPath>
    <clipPath
       clipPathUnits="userSpaceOnUse"
       id="clipPath52">
      <path
         d="M 48,48 H 0 V 0 h 48 z"
         transform="translate(2e-4,-31.9998)"
         id="path52" />
    </clipPath>
    <clipPath
       clipPathUnits="userSpaceOnUse"
       id="clipPath53">
      <path
         d="M 48,48 H 0 V 0 h 48 z"
         transform="translate(2e-4,-33.9998)"
         id="path53" />
    </clipPath>
    <clipPath
       clipPathUnits="userSpaceOnUse"
       id="clipPath54">
      <path
         d="M 48,48 H 0 V 0 h 48 z"
         transform="translate(2e-4,-35.9998)"
         id="path54" />
    </clipPath>
    <clipPath
       clipPathUnits="userSpaceOnUse"
       id="clipPath55">
      <path
         d="M 48,48 H 0 V 0 h 48 z"
         transform="translate(2e-4,-37.9998)"
         id="path55" />
    </clipPath>
    <clipPath
       clipPathUnits="userSpaceOnUse"
       id="clipPath56">
      <path
         d="M 48,48 H 0 V 0 h 48 z"
         transform="translate(2e-4,-39.9998)"
         id="path56" />
    </clipPath>
    <clipPath
       clipPathUnits="userSpaceOnUse"
       id="clipPath57">
      <path
         d="M 48,48 H 0 V 0 h 48 z"
         transform="translate(2e-4,-41.999799)"
         id="path57" />
    </clipPath>
    <clipPath
       clipPathUnits="userSpaceOnUse"
       id="clipPath58">
      <path
         d="M 48,48 H 0 V 0 h 48 z"
         transform="translate(2e-4,-43.999799)"
         id="path58" />
    </clipPath>
    <clipPath
       clipPathUnits="userSpaceOnUse"
       id="clipPath59">
      <path
         d="M 48,48 H 0 V 0 h 48 z"
         transform="translate(2e-4,-45.999799)"
         id="path59" />
    </clipPath>
    <clipPath
       clipPathUnits="userSpaceOnUse"
       id="clipPath60">
      <path
         d="M -2.13623e-4,47.9998 H 47.9998 V -1.52588e-4 H -2.13623e-4 Z"
         id="path60" />
    </clipPath>
    <clipPath
       clipPathUnits="userSpaceOnUse"
       id="clipPath139">
      <path
         d="M 0,24 H 24 V 0 H 0 Z"
         transform="matrix(1.3333333,0,0,-1.3333333,0,32)"
         id="path139" />
    </clipPath>
    <clipPath
       clipPathUnits="userSpaceOnUse"
       id="clipPath124">
      <path
         d="M -2.28882e-4,48.0001 H 47.9998 V 1.2207e-4 H -2.28882e-4 Z"
         transform="matrix(0.66666347,0,0,0.66666347,-1.5253333e-4,-1.068e-4)"
         id="path124" />
    </clipPath>
    <clipPath
       clipPathUnits="userSpaceOnUse"
       id="clipPath110">
      <path
         d="M 0,0 H 48 V 48 H 0 Z"
         transform="translate(-23.999799,-1e-4)"
         id="path110" />
    </clipPath>
    <clipPath
       clipPathUnits="userSpaceOnUse"
       id="clipPath111">
      <path
         d="M 0,0 H 48 V 48 H 0 Z"
         transform="translate(-47.9998,-24.0001)"
         id="path111" />
    </clipPath>
    <clipPath
       clipPathUnits="userSpaceOnUse"
       id="clipPath112">
      <path
         d="M 0,0 H 48 V 48 H 0 Z"
         transform="translate(-47.9998,-16.000099)"
         id="path112" />
    </clipPath>
    <clipPath
       clipPathUnits="userSpaceOnUse"
       id="clipPath113">
      <path
         d="M 0,0 H 48 V 48 H 0 Z"
         transform="translate(-47.9998,-32.0001)"
         id="path113" />
    </clipPath>
    <clipPath
       clipPathUnits="userSpaceOnUse"
       id="clipPath114">
      <path
         d="M 0,0 H 48 V 48 H 0 Z"
         transform="translate(-31.9998,-48.000099)"
         id="path114" />
    </clipPath>
    <clipPath
       clipPathUnits="userSpaceOnUse"
       id="clipPath115">
      <path
         d="M 0,0 H 48 V 48 H 0 Z"
         transform="translate(-15.999801,-48.000099)"
         id="path115" />
    </clipPath>
    <clipPath
       clipPathUnits="userSpaceOnUse"
       id="clipPath116">
      <path
         d="M 0,0 H 48 V 48 H 0 Z"
         transform="translate(-47.7498,-0.25009999)"
         id="path116" />
    </clipPath>
    <clipPath
       clipPathUnits="userSpaceOnUse"
       id="clipPath117">
      <path
         d="M 0,0 H 48 V 48 H 0 Z"
         transform="translate(-0.2498,-0.25009999)"
         id="path117" />
    </clipPath>
    <clipPath
       clipPathUnits="userSpaceOnUse"
       id="clipPath118">
      <path
         d="M 0,0 H 48 V 48 H 0 Z"
         transform="translate(-24.0005,-13.9999)"
         id="path118" />
    </clipPath>
    <clipPath
       clipPathUnits="userSpaceOnUse"
       id="clipPath119">
      <path
         d="M 0,0 H 48 V 48 H 0 Z"
         transform="translate(-23.999799,-4.0000999)"
         id="path119" />
    </clipPath>
    <clipPath
       clipPathUnits="userSpaceOnUse"
       id="clipPath120">
      <path
         d="M 0,0 H 48 V 48 H 0 Z"
         transform="translate(-37.9998,-6.0001)"
         id="path120" />
    </clipPath>
    <clipPath
       clipPathUnits="userSpaceOnUse"
       id="clipPath121">
      <path
         d="M 0,0 H 48 V 48 H 0 Z"
         transform="translate(-39.9998,-8.0001)"
         id="path121" />
    </clipPath>
    <clipPath
       clipPathUnits="userSpaceOnUse"
       id="clipPath122">
      <path
         d="M 0,0 H 48 V 48 H 0 Z"
         transform="translate(-39.9998,-40.000101)"
         id="path122" />
    </clipPath>
    <clipPath
       clipPathUnits="userSpaceOnUse"
       id="clipPath123">
      <path
         d="M 0,0 H 48 V 48 H 0 Z"
         id="path123" />
    </clipPath>
    <clipPath
       clipPathUnits="userSpaceOnUse"
       id="clipPath246">
      <path
         d="M 0,192 H 192 V 0 H 0 Z"
         transform="matrix(1.3333333,0,0,-1.3333333,0,256)"
         id="path246" />
    </clipPath>
    <clipPath
       clipPathUnits="userSpaceOnUse"
       id="clipPath231">
      <path
         d="M -1.52588e-4,192 H 192 V -1.83105e-4 H -1.52588e-4 Z"
         transform="scale(1.3333333)"
         id="path231" />
    </clipPath>
    <clipPath
       clipPathUnits="userSpaceOnUse"
       id="clipPath217">
      <path
         d="M 0,192 H 192 V 0 H 0 Z"
         transform="translate(-0.25,-0.25)"
         id="path217" />
    </clipPath>
    <clipPath
       clipPathUnits="userSpaceOnUse"
       id="clipPath218">
      <path
         d="M -1.52588e-4,192 H 192 V -1.83105e-4 H -1.52588e-4 Z"
         id="path218" />
    </clipPath>
    <clipPath
       clipPathUnits="userSpaceOnUse"
       id="clipPath219">
      <path
         d="M 0,192 H 192 V 0 H 0 Z"
         transform="translate(-191.75001,-0.25)"
         id="path219" />
    </clipPath>
    <clipPath
       clipPathUnits="userSpaceOnUse"
       id="clipPath220">
      <path
         d="M 0,192 H 192 V 0 H 0 Z"
         transform="translate(-123.99981,1e-4)"
         id="path220" />
    </clipPath>
    <clipPath
       clipPathUnits="userSpaceOnUse"
       id="clipPath221">
      <path
         d="M 0,192 H 192 V 0 H 0 Z"
         transform="translate(-67.999802,1e-4)"
         id="path221" />
    </clipPath>
    <clipPath
       clipPathUnits="userSpaceOnUse"
       id="clipPath222">
      <path
         d="M -1.52588e-4,192 H 192 V -1.83105e-4 H -1.52588e-4 Z"
         transform="translate(-192,-123.99981)"
         id="path222" />
    </clipPath>
    <clipPath
       clipPathUnits="userSpaceOnUse"
       id="clipPath223">
      <path
         d="M -1.52588e-4,192 H 192 V -1.83105e-4 H -1.52588e-4 Z"
         transform="translate(-192,-67.999802)"
         id="path223" />
    </clipPath>
    <clipPath
       clipPathUnits="userSpaceOnUse"
       id="clipPath224">
      <path
         d="M 0,192 H 192 V 0 H 0 Z"
         transform="translate(-136,-95.999905)"
         id="path224" />
    </clipPath>
    <clipPath
       clipPathUnits="userSpaceOnUse"
       id="clipPath225">
      <path
         d="M 0,192 H 192 V 0 H 0 Z"
         transform="translate(2.0000001e-4,-95.999905)"
         id="path225" />
    </clipPath>
    <clipPath
       clipPathUnits="userSpaceOnUse"
       id="clipPath226">
      <path
         d="M 0,192 H 192 V 0 H 0 Z"
         transform="translate(-95.999905,2.0000001e-4)"
         id="path226" />
    </clipPath>
    <clipPath
       clipPathUnits="userSpaceOnUse"
       id="clipPath227">
      <path
         d="M 0,192 H 192 V 0 H 0 Z"
         transform="translate(-95.999905,-7.9998999)"
         id="path227" />
    </clipPath>
    <clipPath
       clipPathUnits="userSpaceOnUse"
       id="clipPath228">
      <path
         d="M 0,192 H 192 V 0 H 0 Z"
         transform="translate(-159.9999,-19.9999)"
         id="path228" />
    </clipPath>
    <clipPath
       clipPathUnits="userSpaceOnUse"
       id="clipPath229">
      <path
         d="M 0,192 H 192 V 0 H 0 Z"
         transform="translate(-147.9999,-7.9998999)"
         id="path229" />
    </clipPath>
    <clipPath
       clipPathUnits="userSpaceOnUse"
       id="clipPath230">
      <path
         d="M 0,192 H 192 V 0 H 0 Z"
         transform="translate(-171.9999,-31.999901)"
         id="path230" />
    </clipPath>
  </defs>
  <metadata
     id="metadata1">
    <rdf:RDF>
      <cc:Work
         rdf:about="" />
    </rdf:RDF>
  </metadata>
  <g
     id="g5">
    <rect
       style="fill:#fce94f;stroke:#302b00;stroke-width:0.522121;stroke-dasharray:none"
       id="rect1"
       width="15.352879"
       height="1.0653788"
       x="0.79022741"
       y="12.167311" />
    <rect
       style="fill:#fce94f;stroke:none;stroke-width:0.374178;stroke-dasharray:none"
       id="rect5"
       width="15.875"
       height="0.52916664"
       x="0.52916664"
       y="12.435416" />
  </g>
  <g
     id="g8"
     transform="matrix(1.0000042,0,0,0.99999991,-0.48975253,7.3934399e-7)">
    <g
       id="g6">
      <path
         style="fill:#fce94f;stroke:#302b00;stroke-width:0.520364;stroke-dasharray:none"
         id="rect2"
         width="12.179636"
         height="1.0671368"
         x="2.3768485"
         y="-3.9731517"
         transform="rotate(90)"
         d="M 2.3768485,-3.9731517 H 14.556484 v 1.0671368 H 2.3768485 Z m 0,-5.5166665 H 14.556484 v 1.0671367 H 2.3768485 Z m 0,-5.5166668 H 14.556484 v 1.067137 H 2.3768485 Z" />
      <path
         style="display:none;fill:#fce94f;stroke:none;stroke-width:0.374178;stroke-dasharray:none"
         id="rect6"
         width="12.7"
         height="0.52916664"
         x="2.1166666"
         y="-3.7041667"
         transform="rotate(90)"
         d="M 2.1166666,-3.7041667 H 14.816666 V -3.175 H 2.1166666 Z m 0,-5.5166665 H 14.816666 v 0.5291666 H 2.1166666 Z m 0,-5.5166668 H 14.816666 v 0.529167 H 2.1166666 Z" />
    </g>
    <g
       id="g1">
      <path
         style="fill:#fce94f;stroke:#302b00;stroke-width:0.529167;stroke-dasharray:none"
         id="path5"
         d="m 4.4979166,12.7 c 0,0.584501 -0.473832,1.058333 -1.0583333,1.058333 C 2.855082,13.758333 2.38125,13.284501 2.38125,12.7 c 0,-0.584502 0.473832,-1.058333 1.0583333,-1.058333 0.5845013,0 1.0583333,0.473831 1.0583333,1.058333 z m 5.5166664,0 c 0,0.584501 -0.4738318,1.058333 -1.0583331,1.058333 -0.5845014,0 -1.0583333,-0.473832 -1.0583333,-1.058333 0,-0.584502 0.4738319,-1.058333 1.0583333,-1.058333 0.5845013,0 1.0583331,0.473831 1.0583331,1.058333 z m 5.516667,0 c 0,0.584501 -0.473832,1.058333 -1.058334,1.058333 -0.584501,0 -1.058333,-0.473832 -1.058333,-1.058333 0,-0.584502 0.473832,-1.058333 1.058333,-1.058333 0.584502,0 1.058334,0.473831 1.058334,1.058333 z" />
      <path
         style="fill:#c4a000;stroke:#fce94f;stroke-width:0.529167;stroke-dasharray:none"
         id="circle1"
         d="m 3.4121094,12.171875 h 0.027344 c 0.2906332,0 0.5292969,0.237926 0.5292969,0.527344 0,0.289417 -0.2398793,0.529297 -0.5292969,0.529297 -0.2894175,0 -0.5292969,-0.23988 -0.5292968,-0.529297 0,-0.280508 0.2276083,-0.513437 0.5019528,-0.527344 z m 5.5166666,0 H 8.95612 c 0.2906332,0 0.5292969,0.237926 0.5292969,0.527344 0,0.289417 -0.2398793,0.529297 -0.5292969,0.529297 -0.2894175,0 -0.5292969,-0.23988 -0.5292968,-0.529297 0,-0.280508 0.2276083,-0.513437 0.5019528,-0.527344 z m 5.516667,0 h 0.02734 c 0.290633,0 0.529296,0.237926 0.529296,0.527344 0,0.289417 -0.239879,0.529297 -0.529296,0.529297 -0.289418,0 -0.529297,-0.23988 -0.529297,-0.529297 0,-0.280508 0.227608,-0.513437 0.501953,-0.527344 z" />
    </g>
  </g>
</svg>
