<?xml version="1.0" encoding="UTF-8" standalone="no"?>
<!-- Created with Inkscape (http://www.inkscape.org/) -->

<svg
   width="64"
   height="64"
   viewBox="0 0 16.933333 16.933334"
   version="1.1"
   id="svg1876"
   style="enable-background:new"
   xmlns="http://www.w3.org/2000/svg"
   xmlns:svg="http://www.w3.org/2000/svg"
   xmlns:rdf="http://www.w3.org/1999/02/22-rdf-syntax-ns#"
   xmlns:cc="http://creativecommons.org/ns#"
   xmlns:dc="http://purl.org/dc/elements/1.1/">
  <defs
     id="defs1870" />
  <metadata
     id="metadata1873">
    <rdf:RDF>
      <cc:Work
         rdf:about="">
        <dc:format>image/svg+xml</dc:format>
        <dc:type
           rdf:resource="http://purl.org/dc/dcmitype/StillImage" />
      </cc:Work>
    </rdf:RDF>
  </metadata>
  <g
     id="layer6"
     transform="translate(8.6806425,5.0776916)">
    <g
       id="g1">
      <path
         d="M -7.1010316,9.893237 H 5.6412379 V 8.818952 H -7.1010316 Z"
         style="display:inline;fill:#d3d7cf;stroke:#babdb6;stroke-width:0.513215;enable-background:new"
         id="path6" />
      <path
         d="M -7.3577258,9.6207066 H 5.3846519 V 9.0915399 H -7.3577258 Z"
         style="display:inline;fill:#555753;stroke:none;stroke-width:0.360137;stroke-dasharray:none;enable-background:new"
         id="path5" />
    </g>
    <rect
       style="fill:#fce94f;stroke:#302b00;stroke-width:0.529167;stroke-linejoin:round;stroke-dasharray:none;stroke-opacity:1;enable-background:new"
       id="rect6"
       width="1.0583334"
       height="13.744959"
       x="1.9093063"
       y="-7.0902319"
       transform="rotate(-90)" />
    <rect
       style="fill:#fce94f;stroke:none;stroke-width:0.374178;stroke-linejoin:round;stroke-dasharray:none;stroke-opacity:1;enable-background:new"
       id="rect3"
       width="0.5291667"
       height="13.744959"
       x="2.1738889"
       y="-7.3548155"
       transform="rotate(-90)" />
    <rect
       style="fill:#fce94f;stroke:#302b00;stroke-width:0.529167;stroke-linejoin:round;stroke-dasharray:none;stroke-opacity:1;enable-background:new"
       id="rect7"
       width="1.0583334"
       height="9.5481329"
       x="-1.0418561"
       y="-7.0902319"
       transform="rotate(-90)" />
    <rect
       style="fill:#fce94f;stroke:none;stroke-width:0.374178;stroke-linejoin:round;stroke-dasharray:none;stroke-opacity:1;enable-background:new"
       id="rect2"
       width="0.5291667"
       height="9.5481329"
       x="-0.77727342"
       y="-7.3548155"
       transform="rotate(-90)" />
    <rect
       style="fill:#fce94f;stroke:#302b00;stroke-width:0.528791;stroke-linejoin:round;stroke-dasharray:none;stroke-opacity:1;enable-background:new"
       id="rect9"
       width="1.0587093"
       height="5.079114"
       x="-3.864121"
       y="-7.0904198"
       transform="rotate(-90)" />
    <rect
       style="fill:#fce94f;stroke:none;stroke-width:0.373845;stroke-linejoin:round;stroke-dasharray:none;stroke-opacity:1;enable-background:new"
       id="rect1"
       width="0.5291667"
       height="5.079114"
       x="-3.5995841"
       y="-7.3548155"
       transform="rotate(-90)" />
    <rect
       style="fill:#fce94f;stroke:#302b00;stroke-width:0.529167;stroke-linejoin:round;stroke-dasharray:none;stroke-opacity:1;enable-background:new"
       id="rect10"
       width="1.0583334"
       height="12.106468"
       x="-5.3658223"
       y="-9.3735504"
       transform="scale(-1)" />
    <rect
       style="fill:#fce94f;stroke:#302b00;stroke-width:0.529167;stroke-linejoin:round;stroke-dasharray:none;stroke-opacity:1;enable-background:new"
       id="rect11"
       width="1.0583334"
       height="9.1397543"
       x="-1.0107809"
       y="-9.4021187"
       transform="scale(-1)" />
    <rect
       style="fill:#fce94f;stroke:#302b00;stroke-width:0.529167;stroke-linejoin:round;stroke-dasharray:none;stroke-opacity:1;enable-background:new"
       id="rect12"
       width="1.0583334"
       height="6.6220021"
       x="3.4344783"
       y="-9.4347095"
       transform="scale(-1)" />
    <g
       id="g7"
       style="enable-background:new"
       transform="rotate(-90,1.5681852,10.245917)">
      <circle
         style="fill:#fce94f;stroke:#302b00;stroke-width:0.529167;stroke-dasharray:none"
         id="path3"
         cx="14.24596"
         cy="13.518621"
         r="1.0583334" />
      <path
         style="fill:#c4a000;stroke:#fce94f;stroke-width:0.529167;stroke-dasharray:none"
         id="circle3"
         d="m 14.21875,12.990234 h 0.02734 c 0.289417,0 0.529297,0.23988 0.529297,0.529297 0,0.289418 -0.238664,0.527344 -0.529297,0.527344 -0.290634,0 -0.529297,-0.237926 -0.529297,-0.527344 0,-0.280508 0.228874,-0.515454 0.501953,-0.529297 z" />
    </g>
    <g
       id="g6"
       transform="rotate(-90,0.88397219,13.886584)"
       style="enable-background:new">
      <circle
         style="fill:#fce94f;stroke:#302b00;stroke-width:0.529167;stroke-dasharray:none"
         id="circle4"
         cx="14.24596"
         cy="13.518621"
         r="1.0583334" />
      <path
         style="fill:#c4a000;stroke:#fce94f;stroke-width:0.529167;stroke-dasharray:none"
         id="path4"
         d="m 14.21875,12.990234 h 0.02734 c 0.289417,0 0.529297,0.23988 0.529297,0.529297 0,0.289418 -0.238664,0.527344 -0.529297,0.527344 -0.290634,0 -0.529297,-0.237926 -0.529297,-0.527344 0,-0.280508 0.228874,-0.515454 0.501953,-0.529297 z" />
    </g>
    <g
       id="g11"
       transform="rotate(-90,0.01045044,17.53188)"
       style="display:inline;enable-background:new">
      <circle
         style="fill:#fce94f;stroke:#302b00;stroke-width:0.529167;stroke-dasharray:none"
         id="circle11"
         cx="14.24596"
         cy="13.518621"
         r="1.0583334" />
      <path
         style="fill:#c4a000;stroke:#fce94f;stroke-width:0.529167;stroke-dasharray:none"
         id="path11"
         d="m 14.21875,12.990234 h 0.02734 c 0.289417,0 0.529297,0.23988 0.529297,0.529297 0,0.289418 -0.238664,0.527344 -0.529297,0.527344 -0.290634,0 -0.529297,-0.237926 -0.529297,-0.527344 0,-0.280508 0.228874,-0.515454 0.501953,-0.529297 z" />
    </g>
    <g
       id="g15"
       transform="rotate(-90,3.0125454,20.533975)"
       style="display:inline;stroke-width:0.529167;stroke-dasharray:none;enable-background:new">
      <circle
         style="fill:#d3d7cf;stroke:#555753;stroke-width:0.529167;stroke-dasharray:none"
         id="circle15"
         cx="14.24596"
         cy="13.518621"
         r="1.0583334" />
      <path
         style="fill:#888a85;stroke:#d3d7cf;stroke-width:0.529167;stroke-dasharray:none"
         id="path15"
         d="m 14.21875,12.990234 h 0.02734 c 0.289417,0 0.529297,0.23988 0.529297,0.529297 0,0.289418 -0.238664,0.527344 -0.529297,0.527344 -0.290634,0 -0.529297,-0.237926 -0.529297,-0.527344 0,-0.280508 0.228874,-0.515454 0.501953,-0.529297 z" />
    </g>
    <g
       id="g17"
       transform="rotate(-90,5.2719547,18.274566)"
       style="enable-background:new">
      <circle
         style="fill:#d3d7cf;stroke:#555753;stroke-width:0.529167;stroke-dasharray:none"
         id="circle17"
         cx="14.24596"
         cy="13.518621"
         r="1.0583334" />
      <path
         style="fill:#888a85;stroke:#d3d7cf;stroke-width:0.529167;stroke-dasharray:none"
         id="path17"
         d="m 14.21875,12.990234 h 0.02734 c 0.289417,0 0.529297,0.23988 0.529297,0.529297 0,0.289418 -0.238664,0.527344 -0.529297,0.527344 -0.290634,0 -0.529297,-0.237926 -0.529297,-0.527344 0,-0.280508 0.228874,-0.515454 0.501953,-0.529297 z" />
    </g>
    <g
       id="g19"
       transform="rotate(-90,7.4343944,16.112126)"
       style="display:inline;enable-background:new">
      <circle
         style="fill:#d3d7cf;stroke:#555753;stroke-width:0.529167;stroke-dasharray:none"
         id="circle19"
         cx="14.24596"
         cy="13.518621"
         r="1.0583334" />
      <path
         style="fill:#888a85;stroke:#d3d7cf;stroke-width:0.529167;stroke-dasharray:none"
         id="path19"
         d="m 14.21875,12.990234 h 0.02734 c 0.289417,0 0.529297,0.23988 0.529297,0.529297 0,0.289418 -0.238664,0.527344 -0.529297,0.527344 -0.290634,0 -0.529297,-0.237926 -0.529297,-0.527344 0,-0.280508 0.228874,-0.515454 0.501953,-0.529297 z" />
    </g>
  </g>
</svg>
