<?xml version="1.0" encoding="UTF-8" standalone="no"?>
<!-- Created with Inkscape (http://www.inkscape.org/) -->

<svg
   width="64"
   height="64"
   id="svg5821"
   version="1.1"
   xml:space="preserve"
   xmlns="http://www.w3.org/2000/svg"
   xmlns:svg="http://www.w3.org/2000/svg"
   xmlns:rdf="http://www.w3.org/1999/02/22-rdf-syntax-ns#"
   xmlns:cc="http://creativecommons.org/ns#"
   xmlns:dc="http://purl.org/dc/elements/1.1/"><defs
     id="defs5823" /><metadata
     id="metadata5826"><rdf:RDF><cc:Work
         rdf:about=""><dc:format>image/svg+xml</dc:format><dc:type
           rdf:resource="http://purl.org/dc/dcmitype/StillImage" /><dc:creator><cc:Agent><dc:title>[WandererFan]</dc:title></cc:Agent></dc:creator><dc:date>2016-04-27</dc:date><dc:relation>https://www.freecad.org/wiki/index.php?title=Artwork</dc:relation><dc:publisher><cc:Agent><dc:title>FreeCAD</dc:title></cc:Agent></dc:publisher><dc:identifier>FreeCAD/src/Mod/TechDraw/Gui/Resources/icons/TechDraw_Dimension_Diameter.svg</dc:identifier><dc:rights><cc:Agent><dc:title>FreeCAD LGPL2+</dc:title></cc:Agent></dc:rights><cc:license
           rdf:resource="https://www.gnu.org/licenses/lgpl-3.0.en.html">https://www.gnu.org/copyleft/lesser.html</cc:license><dc:contributor><cc:Agent><dc:title>[agryson] Alexander Gryson</dc:title></cc:Agent></dc:contributor><dc:subject><rdf:Bag><rdf:li>double arrow</rdf:li><rdf:li>circle</rdf:li></rdf:Bag></dc:subject></cc:Work></rdf:RDF></metadata><g
     id="layer1"
     transform="translate(-0.1784387,-0.18587361)"><g
       id="crosshair"
       style="stroke:#ffffff;stroke-width:2.5;stroke-linecap:round;stroke-linejoin:miter"
       transform="translate(-0.8215613,-0.81412639)"><path
         d="m 16,3 v 9 m 0,8 v 9 M 3,16 h 9 m 8,0 h 9"
         id="path9"
         style="stroke:#2e3436;stroke-width:4;stroke-dasharray:none" /><path
         d="m 16,3 v 9 m 0,8 v 9 M 3,16 h 9 m 8,0 h 9"
         id="path7"
         style="stroke:#eeeeec;stroke-width:2;stroke-dasharray:none" /></g><g
       id="layer1-6"
       transform="matrix(0.62018454,0,0,0.62018454,20.08699,22.324376)"><path
         style="display:inline;fill:none;stroke:#302b00;stroke-width:7.44176;stroke-linecap:round;stroke-linejoin:miter;stroke-miterlimit:4;stroke-dasharray:none;stroke-dashoffset:0;stroke-opacity:1"
         id="path3765"
         d="M 13.259681,2.0939773 A 40,40 0 0 1 43.29928,12.763904 40,40 0 0 1 56,42.00286"
         transform="matrix(1.075014,0,0,1.075014,-4.2007839,6.8463378)" /><path
         style="fill:none;stroke:#edd400;stroke-width:3.72088;stroke-linecap:round;stroke-linejoin:miter;stroke-miterlimit:4;stroke-dasharray:none;stroke-dashoffset:0;stroke-opacity:1"
         id="path3765-1"
         d="M 13.301045,2.0911584 A 40,40 0 0 1 56,42.00286"
         transform="matrix(1.075014,0,0,1.075014,-4.2019855,6.8494337)" /><path
         style="fill:none;stroke:#fce94f;stroke-width:1.86044;stroke-linecap:round;stroke-linejoin:miter;stroke-miterlimit:4;stroke-dasharray:none;stroke-dashoffset:0;stroke-opacity:1"
         id="path3765-1-7"
         d="M 12.65826,2.1398347 A 40,40 0 0 1 55.983487,43.149238"
         transform="matrix(1.075014,0,0,1.075014,-3.2019855,5.8494337)" /><g
         id="g3874"
         transform="translate(-1.010205,1.607709)"><path
           transform="matrix(1.3333333,0,0,1.3333331,5.6768719,-11.274364)"
           d="m 13,44 c 0,3.313708 -2.686292,6 -6,6 -3.3137085,0 -6,-2.686292 -6,-6 0,-3.313708 2.6862915,-6 6,-6 3.313708,0 6,2.686292 6,6 z"
           id="path3037"
           style="fill:none;fill-opacity:1;stroke:#302b00;stroke-width:1.5;stroke-linecap:round;stroke-linejoin:miter;stroke-miterlimit:4;stroke-dasharray:none;stroke-dashoffset:0;stroke-opacity:1" /><path
           id="path3770-1"
           d="m 27.634355,25.104874 2.659865,2.696146 -14.629254,14.8288 -2.654761,0.762471 c 0,4.044219 -0.670068,3.955782 -1.335035,5.977892 l -0.664965,2.022108 1.994897,-0.674035 C 15,50.044219 16.020408,48.392291 20.010205,48.392291 l -0.355442,-1.718254 14.629252,-14.828799 2.659865,2.696146 1.994897,-11.458618 z"
           style="color:#000000;font-style:normal;font-variant:normal;font-weight:normal;font-stretch:normal;font-size:medium;line-height:normal;font-family:sans-serif;text-indent:0;text-align:start;text-decoration:none;text-decoration-line:none;letter-spacing:normal;word-spacing:normal;text-transform:none;writing-mode:lr-tb;direction:ltr;baseline-shift:baseline;text-anchor:start;display:inline;overflow:visible;visibility:visible;fill:#edd400;fill-opacity:1;fill-rule:nonzero;stroke:none;enable-background:accumulate" /><path
           id="path3864"
           d="m 35.613947,25.104874 -5.603742,1.287417"
           style="fill:none;stroke:#fce94f;stroke-width:2;stroke-linecap:butt;stroke-linejoin:miter;stroke-opacity:1" /><path
           id="path3866"
           d="M 37.917264,23.082766 11.029901,49.972434"
           style="fill:none;stroke:#fce94f;stroke-width:2;stroke-linecap:round;stroke-linejoin:miter;stroke-opacity:1" /><path
           id="path3868"
           d="m 29.786296,25.322727 3.832753,1.804257"
           style="fill:none;stroke:#fce94f;stroke-width:4;stroke-linecap:butt;stroke-linejoin:miter;stroke-dasharray:none;stroke-opacity:1" /><path
           id="path3770-9"
           d="m 27.867349,24.535147 2.857144,2.857144 -15.714289,15.714287 10e-7,0.285713 c 0,4.285716 -3.571428,4.714286 -4.285715,6.857144 l 2.285715,0.142856 -0.857143,1.285716 c 2.142857,-0.714287 1.571427,-4.285716 5.857143,-4.285716 h 1.285715 l 15.714286,-15.714286 2.857144,2.857144 2.142856,-12.142858 z"
           style="color:#000000;font-style:normal;font-variant:normal;font-weight:normal;font-stretch:normal;font-size:medium;line-height:normal;font-family:sans-serif;text-indent:0;text-align:start;text-decoration:none;text-decoration-line:none;letter-spacing:normal;word-spacing:normal;text-transform:none;writing-mode:lr-tb;direction:ltr;baseline-shift:baseline;text-anchor:start;display:inline;overflow:visible;visibility:visible;fill:none;stroke:#302b00;stroke-width:2;stroke-linecap:butt;stroke-linejoin:round;stroke-miterlimit:4;stroke-dasharray:none;stroke-dashoffset:0;stroke-opacity:1;enable-background:accumulate" /><path
           transform="translate(8.010205,3.392291)"
           d="m 13,44 c 0,3.313708 -2.686292,6 -6,6 -3.3137085,0 -6,-2.686292 -6,-6 0,-3.313708 2.6862915,-6 6,-6 3.313708,0 6,2.686292 6,6 z"
           id="path3037-8"
           style="fill:#edd400;fill-opacity:1;stroke:#fce94f;stroke-width:2;stroke-linecap:round;stroke-linejoin:miter;stroke-miterlimit:4;stroke-dasharray:none;stroke-dashoffset:0;stroke-opacity:1" /></g></g></g></svg>
