<?xml version="1.0" encoding="UTF-8" standalone="no"?>
<!-- Created with Inkscape (http://www.inkscape.org/) -->

<svg
   width="64"
   height="64"
   viewBox="0 0 16.933333 16.933334"
   version="1.1"
   id="svg843"
   xmlns="http://www.w3.org/2000/svg"
   xmlns:svg="http://www.w3.org/2000/svg"
   xmlns:rdf="http://www.w3.org/1999/02/22-rdf-syntax-ns#"
   xmlns:cc="http://creativecommons.org/ns#"
   xmlns:dc="http://purl.org/dc/elements/1.1/">
  <defs
     id="defs837" />
  <metadata
     id="metadata840">
    <rdf:RDF>
      <cc:Work
         rdf:about="">
        <dc:format>image/svg+xml</dc:format>
        <dc:type
           rdf:resource="http://purl.org/dc/dcmitype/StillImage" />
      </cc:Work>
    </rdf:RDF>
  </metadata>
  <g
     id="layer2">
    <g
       id="g3"
       transform="translate(0)"
       style="display:inline">
      <ellipse
         style="fill:none;stroke:#555753;stroke-width:1.58751;stroke-linecap:round;stroke-linejoin:round;stroke-dasharray:none"
         id="path1"
         cx="8.4666662"
         cy="8.4666681"
         rx="6.8791614"
         ry="6.8791628" />
      <ellipse
         style="fill:none;stroke:#d3d7cf;stroke-width:0.529167;stroke-linecap:round;stroke-linejoin:round;stroke-dasharray:none"
         id="ellipse1"
         cx="8.4666662"
         cy="8.4666681"
         rx="6.8791614"
         ry="6.8791628" />
    </g>
    <path
       style="fill:none;stroke:#555753;stroke-width:1.5875;stroke-linejoin:round;stroke-dasharray:none;stroke-dashoffset:1.05833"
       d="M 0.52916667,8.4666664 H 16.404167"
       id="path2"
       transform="translate(0)" />
    <path
       style="fill:none;stroke:#555753;stroke-width:1.5875;stroke-linejoin:round;stroke-dasharray:none;stroke-dashoffset:4"
       d="m 8.4666667,16.404167 2e-7,-15.87500033"
       id="path6"
       transform="translate(0)" />
    <path
       style="fill:none;stroke:#d3d7cf;stroke-width:0.52916667;stroke-linejoin:round;stroke-dasharray:2.11666679, 1.0583334, 0.5291667, 1.0583334;stroke-dashoffset:0.26458335"
       d="M 0.52916667,8.4666664 H 16.404167"
       id="path7"
       transform="translate(0)" />
    <path
       style="fill:none;stroke:#d3d7cf;stroke-width:0.52916667;stroke-linejoin:round;stroke-dasharray:2.11666679, 1.0583334, 0.5291667, 1.0583334;stroke-dashoffset:0.26458335"
       d="m 8.4666667,16.404167 2e-7,-15.87500033"
       id="path8"
       transform="translate(0)" />
    <path
       transform="matrix(-0.93637723,0,0,-0.95008926,0.1821518,-266.08286)"
       d="m -12.949287,-288.97899 a 4.1025829,4.031919 0 0 1 4.1070836,-4.02528 4.1025829,4.031919 0 0 1 4.0980765,4.03413 4.1025829,4.031919 0 0 1 -4.1025824,4.02971"
       id="path1408-5"
       style="display:inline;opacity:1;fill:none;fill-opacity:1;fill-rule:nonzero;stroke:#0b1521;stroke-width:1.68305;stroke-linecap:square;stroke-linejoin:bevel;stroke-miterlimit:4;stroke-dasharray:none;stroke-dashoffset:0;stroke-opacity:1" />
    <path
       transform="matrix(-0.93637723,0,0,-0.95008926,0.1821518,-266.08286)"
       d="m -12.949287,-288.97899 a 4.1025829,4.031919 0 0 1 4.1070836,-4.02528 4.1025829,4.031919 0 0 1 4.0980765,4.03413 4.1025829,4.031919 0 0 1 -4.1025824,4.02971"
       id="path3"
       style="display:inline;opacity:1;fill:none;fill-opacity:1;fill-rule:nonzero;stroke:#729fcf;stroke-width:0.56102841;stroke-linecap:square;stroke-linejoin:bevel;stroke-miterlimit:4;stroke-dasharray:none;stroke-dashoffset:0;stroke-opacity:1" />
  </g>
</svg>
