<?xml version="1.0" encoding="UTF-8" standalone="no"?>
<svg
   width="32.0126"
   height="32.0126"
   fill-rule="evenodd"
   stroke-linejoin="round"
   stroke-width="28.222"
   preserveAspectRatio="xMidYMid"
   version="1.2"
   viewBox="0 0 847.00001 847.00001"
   xml:space="preserve"
   id="svg82"
   sodipodi:docname="TechDraw_ExtensionArcLengthAnnotation.svg"
   inkscape:version="1.3 (0e150ed, 2023-07-21)"
   xmlns:inkscape="http://www.inkscape.org/namespaces/inkscape"
   xmlns:sodipodi="http://sodipodi.sourceforge.net/DTD/sodipodi-0.dtd"
   xmlns="http://www.w3.org/2000/svg"
   xmlns:svg="http://www.w3.org/2000/svg"><sodipodi:namedview
   id="namedview1"
   pagecolor="#ffffff"
   bordercolor="#000000"
   borderopacity="0.25"
   inkscape:showpageshadow="2"
   inkscape:pageopacity="0.0"
   inkscape:pagecheckerboard="0"
   inkscape:deskcolor="#d1d1d1"
   inkscape:document-units="mm"
   showgrid="false"
   inkscape:zoom="6.6706938"
   inkscape:cx="51.418939"
   inkscape:cy="32.080621"
   inkscape:window-width="2560"
   inkscape:window-height="1412"
   inkscape:window-x="0"
   inkscape:window-y="0"
   inkscape:window-maximized="1"
   inkscape:current-layer="svg82"><inkscape:grid
     id="grid1"
     units="px"
     originx="0"
     originy="0"
     spacingx="26.458332"
     spacingy="26.458332"
     empcolor="#0099e5"
     empopacity="0.30196078"
     color="#0099e5"
     opacity="0.14901961"
     empspacing="5"
     dotted="false"
     gridanglex="30"
     gridanglez="30"
     visible="false" /></sodipodi:namedview><defs
   id="defs59741" />&#10;   <path
   style="color:#000000;fill:#ffff00;fill-opacity:1;stroke:#2b2200;stroke-width:25;stroke-linecap:square;stroke-dasharray:none;stroke-opacity:1"
   d="M 139.30664,60.808594 64.308594,61.193359 64.5,98.691406 C 65.47544,289.07192 90.068844,401.427 139.06055,472.60937 c 48.9917,71.18238 122.68041,90.95647 191.15234,97.12696 68.47193,6.17049 136.50518,3.52965 199.00781,24.53515 62.50263,21.0055 122.38516,63.00294 178.53711,170.5586 l 17.35547,33.24219 66.48438,-34.70899 -17.35547,-33.24414 C 711.24841,609.45837 632.16195,549.74653 553.11133,523.17969 474.06071,496.61284 397.95568,500.53731 336.94336,495.03906 275.93104,489.54081 234.78881,479.41112 200.8418,430.08789 166.89478,380.76466 140.44122,282.01102 139.5,98.308594 Z"
   id="path1" /><path
   d="m 655.5,746.97497 c 0,-14 4,-29 12,-41 7,-13 18,-24 31,-31 13,-7 28,-11 43,-11 15,0 29,4 42,11 13,7 24,18 31,31 8,12 12,27 12,42 0,14 -4,29 -12,41 -7,13 -18,24 -31,31 -13,7 -27,11 -42,11 -15,0 -30,-4 -43,-11 -13,-7 -24,-18 -31,-31 -8,-12 -12,-27 -12,-41 z"
   fill="#ffff00"
   id="path59" /><path
   d="m 656,746.97497 c 0,-14 4,-29 11,-41 8,-13 18,-24 31,-31 13,-7 28,-11 43,-11 15,0 30,4 43,11 13,7 23,18 31,31 7,12 11,27 11,41 0,15 -4,29 -11,42 -8,13 -18,23 -31,31 -13,7 -28,11 -43,11 -15,0 -30,-4 -43,-11 -13,-8 -23,-18 -31,-31 -7,-13 -11,-27 -11,-42 z"
   fill="none"
   stroke="#2b2200"
   stroke-linejoin="miter"
   stroke-width="32"
   id="path2099"
   style="stroke-width:31.7;stroke-dasharray:none" /><path
   d="M 17,99 C 17,84 21,70 28,57 36,44 46,34 59,26 72,19 87,15 102,15 c 15,0 30,4 43,11 13,8 23,18 31,31 7,13 11,27 11,42 0,14 -4,29 -11,41 -8,13 -18,24 -31,31 -13,7 -28,11 -43,11 C 87,182 72,178 59,171 46,164 36,153 28,140 21,128 17,113 17,99 Z"
   fill="#ffff00"
   id="path63" /><path
   d="M 17,100 C 17,85 21,71 28,58 36,45 46,35 59,27 72,20 87,16 102,16 c 15,0 30,4 43,11 13,8 23,18 31,31 7,13 11,27 11,42 0,14 -4,29 -11,41 -8,13 -18,24 -31,31 -13,7 -28,11 -43,11 C 87,183 72,179 59,172 46,165 36,154 28,141 21,129 17,114 17,100 Z"
   fill="none"
   stroke="#2b2200"
   stroke-linejoin="miter"
   stroke-width="32"
   id="path65"
   style="stroke-width:31.75;stroke-dasharray:none" /><path
   style="fill:#ff0000;fill-opacity:1;stroke:#ff0000;stroke-width:31.75;stroke-linecap:square;stroke-linejoin:round;stroke-dasharray:none;stroke-opacity:1"
   d="m 361.73725,521.68518 118.59012,-268.13469 338.18717,0 -337.74861,-0.99159 z"
   id="path11628"
   sodipodi:nodetypes="ccccc" /><path
   d="m 505.70673,179.7776 c -0.0719,17.42336 -17.29632,17.42336 -17.4408,0 v -8.72039 c 0,-11.78223 2.32544,-22.98309 6.97632,-33.6026 4.65088,-10.61951 10.96832,-19.76624 18.95233,-27.44019 7.90649,-7.59644 17.28577,-13.681336 28.13782,-18.2547 10.85205,-4.573365 22.2467,-6.860047 34.18396,-6.860047 11.78223,0 23.17688,2.286682 34.18396,6.860047 10.85205,4.495849 20.23132,10.58075 28.13781,18.2547 7.98401,7.75147 14.30146,16.8982 18.95234,27.44019 4.65087,10.69702 6.97631,21.89789 6.97631,33.6026 v 8.72039 c -0.0719,17.42336 -17.19363,17.42336 -17.44079,0 v -8.72039 c 0,-9.14673 -1.86035,-17.9834 -5.58106,-26.51001 -3.7207,-8.52661 -8.72039,-15.85175 -14.99908,-21.97541 -6.3562,-6.20117 -13.91388,-11.12335 -22.67304,-14.76654 -8.75915,-3.64319 -17.94464,-5.46478 -27.55645,-5.46478 -9.76685,0 -18.95233,1.82159 -27.55646,5.46478 -8.75915,3.72071 -16.31683,8.64289 -22.67303,14.76654 -6.27869,6.04615 -11.27838,13.37128 -14.99909,21.97541 -3.7207,8.44909 -5.58105,17.28576 -5.58105,26.51001 z M 812.96722,39.786148 c 6.51123,0 9.76685,2.713013 9.76685,8.139038 0,1.705323 -0.8139,6.23993 -2.44171,13.603821 L 788.08502,207.21779 c -1.16272,5.42603 -3.83697,8.13904 -8.02276,8.13904 -5.96863,0 -8.95295,-2.55798 -8.95295,-7.67395 0,-1.08521 0.11627,-2.17041 0.34882,-3.25562 l 32.7887,-147.549132 h -52.08985 v 8.720398 c 0,5.50354 -2.82928,8.25531 -8.48785,8.25531 -5.34851,0 -8.02277,-2.868042 -8.02277,-8.604126 V 47.57637 c 0,-5.193481 3.10059,-7.790222 9.30176,-7.790222 z"
   id="text2"
   style="font-size:238.125px;line-height:1.2;font-family:osifont;-inkscape-font-specification:osifont;fill:#ff0000;stroke:#ff0000;stroke-width:15;stroke-linecap:square;stroke-linejoin:miter"
   aria-label="⌒ 7"
   sodipodi:nodetypes="ccsscsscccsccsscsscccscssccsscccssssss" /></svg>
