<?xml version="1.0" encoding="UTF-8" standalone="no"?>
<!-- Created with Inkscape (http://www.inkscape.org/) -->

<svg
   width="64"
   height="64"
   viewBox="0 0 16.933333 16.933334"
   version="1.1"
   id="svg1876"
   style="enable-background:new"
   xmlns="http://www.w3.org/2000/svg"
   xmlns:svg="http://www.w3.org/2000/svg"
   xmlns:rdf="http://www.w3.org/1999/02/22-rdf-syntax-ns#"
   xmlns:cc="http://creativecommons.org/ns#"
   xmlns:dc="http://purl.org/dc/elements/1.1/">
  <defs
     id="defs1870" />
  <metadata
     id="metadata1873">
    <rdf:RDF>
      <cc:Work
         rdf:about="">
        <dc:format>image/svg+xml</dc:format>
        <dc:type
           rdf:resource="http://purl.org/dc/dcmitype/StillImage" />
      </cc:Work>
    </rdf:RDF>
  </metadata>
  <g
     id="layer2"
     transform="matrix(0.55727318,-0.5545255,0.55727318,0.5545255,6.0228298,23.891299)">
    <g
       id="g5"
       transform="translate(7.6729167,-20.372917)"
       style="display:inline">
      <rect
         style="display:inline;fill:#fce94f;stroke:#302b00;stroke-width:0.67310474;stroke-dasharray:none"
         id="rect1"
         width="15.352879"
         height="1.0653788"
         x="0.79022741"
         y="12.167311" />
      <path
         id="rect5"
         style="display:inline;fill:#fce94f;stroke-width:0.673105"
         d="M 0.44823223,12.407198 16.488782,12.42684 16.481308,12.9709 0.45118809,12.952636 Z" />
    </g>
    <g
       id="g8"
       transform="matrix(1.0000042,0,0,0.99999991,7.1831642,-20.372916)"
       style="display:inline">
      <g
         id="g6">
        <path
           style="fill:#fce94f;stroke:#302b00;stroke-width:0.67310336;stroke-dasharray:none"
           id="rect2"
           width="12.179636"
           height="1.0671368"
           x="2.3768485"
           y="-3.9731517"
           transform="rotate(90)"
           d="M 2.3768485,-3.9731517 H 14.556484 v 1.0671368 H 2.3768485 Z m 0,-5.5166665 H 14.556484 v 1.0671367 H 2.3768485 Z m 0,-5.5166668 H 14.556484 v 1.067137 H 2.3768485 Z" />
        <path
           style="display:none;fill:#fce94f;stroke:none;stroke-width:0.67310336;stroke-dasharray:none"
           id="rect6"
           width="12.7"
           height="0.52916664"
           x="2.1166666"
           y="-3.7041667"
           transform="rotate(90)"
           d="M 2.1166666,-3.7041667 H 14.816666 V -3.175 H 2.1166666 Z m 0,-5.5166665 H 14.816666 v 0.5291666 H 2.1166666 Z m 0,-5.5166668 H 14.816666 v 0.529167 H 2.1166666 Z" />
      </g>
      <g
         id="g2"
         style="display:inline">
        <path
           style="display:inline;fill:#fce94f;stroke:#302b00;stroke-width:0.67310336;stroke-dasharray:none"
           id="path5"
           d="m 4.4979166,12.7 c 0,0.584501 -0.473832,1.058333 -1.0583333,1.058333 C 2.855082,13.758333 2.38125,13.284501 2.38125,12.7 c 0,-0.584502 0.473832,-1.058333 1.0583333,-1.058333 0.5845013,0 1.0583333,0.473831 1.0583333,1.058333 z m 5.5166664,0 c 0,0.584501 -0.4738318,1.058333 -1.0583331,1.058333 -0.5845014,0 -1.0583333,-0.473832 -1.0583333,-1.058333 0,-0.584502 0.4738319,-1.058333 1.0583333,-1.058333 0.5845013,0 1.0583331,0.473831 1.0583331,1.058333 z m 5.516667,0 c 0,0.584501 -0.473832,1.058333 -1.058334,1.058333 -0.584501,0 -1.058333,-0.473832 -1.058333,-1.058333 0,-0.584502 0.473832,-1.058333 1.058333,-1.058333 0.584502,0 1.058334,0.473831 1.058334,1.058333 z" />
        <path
           style="fill:#c4a000;stroke:#fce94f;stroke-width:0.67310336;stroke-dasharray:none"
           id="circle1"
           d="m 3.4121094,12.171875 h 0.027344 c 0.2906332,0 0.5292969,0.237926 0.5292969,0.527344 0,0.289417 -0.2398793,0.529297 -0.5292969,0.529297 -0.2894175,0 -0.5292969,-0.23988 -0.5292968,-0.529297 0,-0.280508 0.2276083,-0.513437 0.5019528,-0.527344 z m 5.5166666,0 H 8.95612 c 0.2906332,0 0.5292969,0.237926 0.5292969,0.527344 0,0.289417 -0.2398793,0.529297 -0.5292969,0.529297 -0.2894175,0 -0.5292969,-0.23988 -0.5292968,-0.529297 0,-0.280508 0.2276083,-0.513437 0.5019528,-0.527344 z m 5.516667,0 h 0.02734 c 0.290633,0 0.529296,0.237926 0.529296,0.527344 0,0.289417 -0.239879,0.529297 -0.529296,0.529297 -0.289418,0 -0.529297,-0.23988 -0.529297,-0.529297 0,-0.280508 0.227608,-0.513437 0.501953,-0.527344 z" />
      </g>
    </g>
  </g>
</svg>
