<?xml version="1.0" encoding="UTF-8" standalone="no"?>
<!-- Created with Inkscape (http://www.inkscape.org/) -->

<svg
   width="64"
   height="64"
   viewBox="0 0 16.933333 16.933334"
   version="1.1"
   id="svg998"
   xmlns="http://www.w3.org/2000/svg"
   xmlns:svg="http://www.w3.org/2000/svg"
   xmlns:rdf="http://www.w3.org/1999/02/22-rdf-syntax-ns#"
   xmlns:cc="http://creativecommons.org/ns#"
   xmlns:dc="http://purl.org/dc/elements/1.1/">
  <defs
     id="defs992">
    <rect
       x="13.131983"
       y="10.606602"
       width="74.119943"
       height="82.201164"
       id="rect1" />
  </defs>
  <metadata
     id="metadata995">
    <rdf:RDF>
      <cc:Work
         rdf:about="">
        <dc:format>image/svg+xml</dc:format>
        <dc:type
           rdf:resource="http://purl.org/dc/dcmitype/StillImage" />
      </cc:Work>
    </rdf:RDF>
  </metadata>
  <g
     id="g5"
     transform="matrix(3.2244519,0,0,3.2239805,1.58752,1.1588599)"
     style="stroke-width:0.310153">
    <g
       id="g4">
      <path
         style="display:inline;fill:#302b00;stroke:#302b00;stroke-width:0.328245;stroke-dasharray:none;stroke-linejoin:miter"
         d="M -0.16410478,3.7041668 V 4.2333334 H 0.3650619 V 3.7041668 Z"
         id="path4" />
      <path
         style="display:inline;fill:#302b00;stroke:#302b00;stroke-width:0.328245;stroke-dasharray:none"
         d="m 3.5028696,0.26458334 c -0.1298304,0 -0.2511915,0.0377826 -0.3637995,0.1131714 C 3.0264619,0.45130483 2.9284958,0.56413571 2.8450331,0.71675214 2.7628959,0.8693686 2.6984239,1.0625234 2.6507312,1.296045 2.6138472,1.4752195 2.5955692,1.687428 2.5871692,1.9171957 2.6339502,1.8774397 2.6918725,1.8529167 2.7535661,1.8520837 2.8187201,1.8513376 2.8799516,1.8772637 2.928748,1.9197797 2.934868,1.7332355 2.946581,1.5630802 2.970089,1.425753 3.001884,1.2382003 3.044737,1.0875869 3.0977289,0.97358421 3.1520459,0.85958154 3.2133227,0.77776745 3.2822123,0.72812114 c 0.070214,-0.0496463 0.1438187,-0.0744141 0.2206569,-0.0744141 0.076838,0 0.1504418,0.0247676 0.2206567,0.0744141 0.070214,0.0496463 0.1320084,0.1314604 0.1850003,0.24546307 0.054317,0.11400269 0.097394,0.26461609 0.1291901,0.45216879 0.021413,0.1250728 0.032802,0.2780129 0.039791,0.4439006 0.031666,0.012131 0.061764,0.03048 0.087849,0.055294 l 0.2630309,0.2506307 c 2.045e-4,-0.020293 0.00258,-0.037232 0.00258,-0.057878 0,-0.3162651 -0.024137,-0.5899724 -0.07183,-0.8216552 C 4.3114492,1.0625234 4.2462352,0.8693686 4.1627727,0.71675214 4.0793108,0.56413571 3.9806015,0.45130483 3.866669,0.37775474 3.7540608,0.30236589 3.6326999,0.26458334 3.5028696,0.26458334 Z"
         id="path2" />
      <path
         id="path1"
         style="display:inline;fill:#302b00;stroke:#302b00;stroke-width:0.328245;stroke-dasharray:none"
         d="m 1.2563356,0.26458334 c -0.1298315,0 -0.2511931,0.0377826 -0.36380211,0.1131714 C 0.77860005,0.45130483 0.6798903,0.56413571 0.59642754,0.71675214 0.51296456,0.8693686 0.44775033,1.0625234 0.40005709,1.296045 c -0.047693,0.2316828 -0.0718302,0.50539 -0.0718302,0.8216552 0,0.3162655 0.0241371,0.5912345 0.0718302,0.824756 0.0476932,0.2316829 0.11290747,0.4240924 0.19637045,0.5767089 0.0834628,0.1507778 0.18217251,0.2641253 0.29610595,0.3395141 0.11260901,0.07355 0.23397061,0.1100709 0.36380211,0.1100709 0.1298315,0 0.2511931,-0.036521 0.3638021,-0.1100709 C 1.7327464,3.7832902 1.8307134,3.6699429 1.9141766,3.5191651 1.9963146,3.3665486 2.060787,3.1741391 2.10848,2.9424562 2.156173,2.7089347 2.18031,2.4339657 2.18031,2.1177002 2.18031,1.801435 2.156173,1.5277278 2.10848,1.296045 2.060787,1.0625234 1.9963146,0.8693686 1.9141766,0.71675214 1.8307134,0.56413571 1.7327464,0.45130483 1.6201377,0.37775474 1.5075287,0.30236589 1.3861671,0.26458334 1.2563356,0.26458334 Z m 0,0.38912354 c 0.076839,0 0.1504436,0.0247676 0.2206584,0.0744141 0.06889,0.0496463 0.1301676,0.1314604 0.1844848,0.24546307 0.052992,0.11400265 0.095845,0.26461605 0.1276408,0.45216875 0.031792,0.185714 0.047542,0.4161347 0.047542,0.6919474 0,0.2758132 -0.015747,0.5080123 -0.047542,0.6955647 -0.031795,0.1857142 -0.074649,0.335066 -0.1276408,0.4490683 -0.054317,0.1140032 -0.1155947,0.1963336 -0.1844848,0.24598 -0.070215,0.047807 -0.1438196,0.071313 -0.2206584,0.071313 -0.076839,0 -0.1504431,-0.023506 -0.2206584,-0.071313 C 0.96546241,3.4586668 0.90366788,3.3763364 0.85067559,3.2623332 0.79635817,3.1483309 0.7532799,2.9989789 0.72148449,2.8132649 0.6896897,2.6257125 0.67394217,2.3935134 0.67394217,2.1177002 c 0,-0.2758127 0.0157469,-0.5062334 0.0475423,-0.6919474 C 0.7532799,1.2382001 0.79635817,1.0875867 0.85067559,0.97358401 0.90366788,0.85958134 0.96546241,0.77776725 1.0356772,0.72812094 1.1058925,0.67847452 1.1794966,0.65370688 1.2563356,0.65370688 Z" />
    </g>
    <g
       id="g8">
      <path
         style="display:inline;fill:#fce94f;stroke:none;stroke-width:0.328245;stroke-dasharray:none"
         d="M -0.16410478,3.7041668 V 4.2333334 H 0.3650619 V 3.7041668 Z"
         id="path5" />
      <path
         style="display:inline;fill:#fce94f;stroke:none;stroke-width:0.328245;stroke-dasharray:none"
         d="m 3.5028696,0.26458334 c -0.1298304,0 -0.2511915,0.0377826 -0.3637995,0.1131714 C 3.0264619,0.45130483 2.9284958,0.56413571 2.8450331,0.71675214 2.7628959,0.8693686 2.6984239,1.0625234 2.6507312,1.296045 2.6138472,1.4752195 2.5955692,1.687428 2.5871692,1.9171957 2.6339502,1.8774397 2.6918725,1.8529167 2.7535661,1.8520837 2.8187201,1.8513376 2.8799516,1.8772637 2.928748,1.9197797 2.934868,1.7332355 2.946581,1.5630802 2.970089,1.425753 3.001884,1.2382003 3.044737,1.0875869 3.0977289,0.97358421 3.1520459,0.85958154 3.2133227,0.77776745 3.2822123,0.72812114 c 0.070214,-0.0496463 0.1438187,-0.0744141 0.2206569,-0.0744141 0.076838,0 0.1504418,0.0247676 0.2206567,0.0744141 0.070214,0.0496463 0.1320084,0.1314604 0.1850003,0.24546307 0.054317,0.11400269 0.097394,0.26461609 0.1291901,0.45216879 0.021413,0.1250728 0.032802,0.2780129 0.039791,0.4439006 0.031666,0.012131 0.061764,0.03048 0.087849,0.055294 l 0.2630309,0.2506307 c 2.045e-4,-0.020293 0.00258,-0.037232 0.00258,-0.057878 0,-0.3162651 -0.024137,-0.5899724 -0.07183,-0.8216552 C 4.3114492,1.0625234 4.2462352,0.8693686 4.1627727,0.71675214 4.0793108,0.56413571 3.9806015,0.45130483 3.866669,0.37775474 3.7540608,0.30236589 3.6326999,0.26458334 3.5028696,0.26458334 Z"
         id="path6" />
      <path
         id="path8"
         style="display:inline;fill:#fce94f;stroke:none;stroke-width:0.328245;stroke-dasharray:none"
         d="m 1.2563356,0.26458334 c -0.1298315,0 -0.2511931,0.0377826 -0.36380211,0.1131714 C 0.77860005,0.45130483 0.6798903,0.56413571 0.59642754,0.71675214 0.51296456,0.8693686 0.44775033,1.0625234 0.40005709,1.296045 c -0.047693,0.2316828 -0.0718302,0.50539 -0.0718302,0.8216552 0,0.3162655 0.0241371,0.5912345 0.0718302,0.824756 0.0476932,0.2316829 0.11290747,0.4240924 0.19637045,0.5767089 0.0834628,0.1507778 0.18217251,0.2641253 0.29610595,0.3395141 0.11260901,0.07355 0.23397061,0.1100709 0.36380211,0.1100709 0.1298315,0 0.2511931,-0.036521 0.3638021,-0.1100709 C 1.7327464,3.7832902 1.8307134,3.6699429 1.9141766,3.5191651 1.9963146,3.3665486 2.060787,3.1741391 2.10848,2.9424562 2.156173,2.7089347 2.18031,2.4339657 2.18031,2.1177002 2.18031,1.801435 2.156173,1.5277278 2.10848,1.296045 2.060787,1.0625234 1.9963146,0.8693686 1.9141766,0.71675214 1.8307134,0.56413571 1.7327464,0.45130483 1.6201377,0.37775474 1.5075287,0.30236589 1.3861671,0.26458334 1.2563356,0.26458334 Z m 0,0.38912354 c 0.076839,0 0.1504436,0.0247676 0.2206584,0.0744141 0.06889,0.0496463 0.1301676,0.1314604 0.1844848,0.24546307 0.052992,0.11400265 0.095845,0.26461605 0.1276408,0.45216875 0.031792,0.185714 0.047542,0.4161347 0.047542,0.6919474 0,0.2758132 -0.015747,0.5080123 -0.047542,0.6955647 -0.031795,0.1857142 -0.074649,0.335066 -0.1276408,0.4490683 -0.054317,0.1140032 -0.1155947,0.1963336 -0.1844848,0.24598 -0.070215,0.047807 -0.1438196,0.071313 -0.2206584,0.071313 -0.076839,0 -0.1504431,-0.023506 -0.2206584,-0.071313 C 0.96546241,3.4586668 0.90366788,3.3763364 0.85067559,3.2623332 0.79635817,3.1483309 0.7532799,2.9989789 0.72148449,2.8132649 0.6896897,2.6257125 0.67394217,2.3935134 0.67394217,2.1177002 c 0,-0.2758127 0.0157469,-0.5062334 0.0475423,-0.6919474 C 0.7532799,1.2382001 0.79635817,1.0875867 0.85067559,0.97358401 0.90366788,0.85958134 0.96546241,0.77776725 1.0356772,0.72812094 1.1058925,0.67847452 1.1794966,0.65370688 1.2563356,0.65370688 Z" />
    </g>
    <g
       id="g14"
       transform="matrix(0.31013023,0,0,0.31017557,-0.49233794,-0.35945003)">
      <path
         style="fill:#555753;stroke:#280000;stroke-width:2.11667;stroke-linecap:square;stroke-linejoin:miter;stroke-dasharray:none;stroke-dashoffset:1.99999;paint-order:markers fill stroke"
         d="M 10.318336,13.518019 14.540815,9.1837833"
         id="path3" />
      <path
         style="fill:#555753;stroke:#280000;stroke-width:2.11667;stroke-linecap:square;stroke-linejoin:miter;stroke-dasharray:none;stroke-dashoffset:1.99999;paint-order:markers fill stroke"
         d="M 14.540815,13.518019 10.318336,9.1837833"
         id="path10" />
      <path
         style="fill:#555753;stroke:#cc0000;stroke-width:1.05833334;stroke-linecap:square;stroke-linejoin:miter;stroke-dasharray:none;stroke-dashoffset:1.99999;paint-order:markers fill stroke"
         d="M 10.318336,13.518019 14.540815,9.1837833"
         id="path11" />
      <path
         style="fill:#555753;stroke:#cc0000;stroke-width:1.05833334;stroke-linecap:square;stroke-linejoin:miter;stroke-dasharray:none;stroke-dashoffset:1.99999;paint-order:markers fill stroke"
         d="M 14.540815,13.518019 10.318336,9.1837833"
         id="path12" />
      <path
         style="fill:#555753;stroke:#ef2929;stroke-width:0.529167;stroke-linecap:square;stroke-linejoin:miter;stroke-dasharray:none;stroke-dashoffset:1.99999;paint-order:markers fill stroke"
         d="M 10.133037,13.332742 14.355516,8.9985041"
         id="path13" />
      <path
         style="fill:#555753;stroke:#ef2929;stroke-width:0.529167;stroke-linecap:square;stroke-linejoin:miter;stroke-dasharray:none;stroke-dashoffset:1.99999;paint-order:markers fill stroke"
         d="M 14.699475,13.3592 10.476996,9.0249624"
         id="path14" />
    </g>
  </g>
</svg>
