<?xml version="1.0" encoding="UTF-8" standalone="no"?>
<!-- Created with Inkscape (http://www.inkscape.org/) -->

<svg
   width="64"
   height="64"
   viewBox="0 0 16.933333 16.933334"
   version="1.1"
   id="svg8"
   xmlns:xlink="http://www.w3.org/1999/xlink"
   xmlns="http://www.w3.org/2000/svg"
   xmlns:svg="http://www.w3.org/2000/svg"
   xmlns:rdf="http://www.w3.org/1999/02/22-rdf-syntax-ns#"
   xmlns:cc="http://creativecommons.org/ns#"
   xmlns:dc="http://purl.org/dc/elements/1.1/">
  <defs
     id="defs2">
    <linearGradient
       id="linearGradient6">
      <stop
         style="stop-color:#888a85;stop-opacity:1;"
         offset="0"
         id="stop6" />
      <stop
         style="stop-color:#d3d7cf;stop-opacity:1"
         offset="1"
         id="stop7" />
    </linearGradient>
    <linearGradient
       id="linearGradient5969">
      <stop
         style="stop-color:#000000;stop-opacity:1;"
         offset="0"
         id="stop5967" />
    </linearGradient>
    <radialGradient
       xlink:href="#linearGradient6"
       id="radialGradient7"
       cx="7.8876033"
       cy="286.57697"
       fx="7.8876033"
       fy="286.57697"
       r="6.1166241"
       gradientTransform="matrix(1,0,0,1.0003089,0,-0.08849432)"
       gradientUnits="userSpaceOnUse" />
    <linearGradient
       xlink:href="#linearGradient6"
       id="linearGradient2"
       x1="4.4678578"
       y1="282.99539"
       x2="14.767755"
       y2="292.10928"
       gradientUnits="userSpaceOnUse" />
  </defs>
  <metadata
     id="metadata5">
    <rdf:RDF>
      <cc:Work
         rdf:about="">
        <dc:format>image/svg+xml</dc:format>
        <dc:type
           rdf:resource="http://purl.org/dc/dcmitype/StillImage" />
      </cc:Work>
    </rdf:RDF>
  </metadata>
  <g
     id="layer1"
     transform="translate(0.57899503,-278.01443)"
     style="display:inline">
    <path
       id="path839"
       style="display:inline;opacity:1;fill:#d3d7cf;fill-opacity:1;fill-rule:nonzero;stroke:#555753;stroke-width:0.52916667;stroke-linecap:square;stroke-linejoin:bevel;stroke-miterlimit:4;stroke-dasharray:none;stroke-dashoffset:0;stroke-opacity:1"
       d="M 7.6401415 279.05054 A 7.4344625 7.4363966 0 0 0 3.6682909 280.36054 A 7.4344625 7.4363966 0 0 0 1.7552294 290.68704 L 1.8012214 290.75319 A 7.4344625 7.4363966 0 0 0 12.140642 292.58253 A 7.4344625 7.4363966 0 0 0 13.997376 282.2457 A 7.4344625 7.4363966 0 0 0 7.6401415 279.05054 z M 7.6928515 280.63184 A 5.8529654 5.8544874 0 0 1 12.697714 283.14745 A 5.8529654 5.8544874 0 0 1 11.235788 291.28494 A 5.8529654 5.8544874 0 0 1 3.0962328 289.84523 L 3.0595426 289.79252 A 5.8529654 5.8544874 0 0 1 4.5659106 281.66279 A 5.8529654 5.8544874 0 0 1 7.6928515 280.63184 z " />
    <path
       style="display:inline;opacity:1;fill:none;fill-opacity:1;fill-rule:nonzero;stroke:#555753;stroke-width:0.529167;stroke-linecap:square;stroke-linejoin:bevel;stroke-miterlimit:4;stroke-dasharray:none;stroke-dashoffset:0;stroke-opacity:1"
       d="m 7.6928515,280.63184 a 5.8529654,5.8544874 0 0 1 5.0048625,2.51561 5.8529654,5.8544874 0 0 1 -1.461926,8.13749 5.8529654,5.8544874 0 0 1 -8.1395552,-1.43971 l -0.03669,-0.0527 a 5.8529654,5.8544874 0 0 1 1.506368,-8.12973 5.8529654,5.8544874 0 0 1 3.1269409,-1.03095 z"
       id="path3" />
    <path
       style="display:none;opacity:1;fill:url(#linearGradient2);fill-opacity:1;fill-rule:nonzero;stroke:#d3d7cf;stroke-width:0.529167;stroke-linecap:square;stroke-linejoin:bevel;stroke-miterlimit:4;stroke-dasharray:none;stroke-dashoffset:0;stroke-opacity:1"
       d="m 8.0488281,281.16016 c 1.6809751,0.0505 3.2468469,0.89333 4.2128909,2.28711 1.670349,2.41003 1.076346,5.72689 -1.328125,7.40429 -2.4046759,1.67749 -5.7200949,1.09077 -7.4042971,-1.31054 l -0.033203,-0.0469 c -1.6572506,-2.41901 -1.0428492,-5.73214 1.3710937,-7.39648 0.8384368,-0.57809 1.8250642,-0.90162 2.84375,-0.93555 0.11705,-0.004 0.2291391,-0.005 0.3378906,-0.002 z"
       id="path7" />
    <path
       style="display:inline;fill:none;fill-opacity:1;stroke:#302b00;stroke-width:0.529167;stroke-linecap:butt;stroke-linejoin:miter;stroke-miterlimit:4;stroke-dasharray:5.29167, 2.11667, 1.05833, 2.11667;stroke-dashoffset:0;stroke-opacity:1"
       d="m 8.0985264,294.41496 0.10738,-15.86784"
       id="path1" />
    <path
       style="display:inline;fill:#ffff00;fill-opacity:1;stroke:#fce94f;stroke-width:0.529167;stroke-linecap:butt;stroke-linejoin:miter;stroke-miterlimit:4;stroke-dasharray:5.29167, 2.11667, 1.05833, 2.11667;stroke-dashoffset:0;stroke-opacity:1"
       d="M -0.04618584,286.68745 15.821652,286.79483"
       id="path5989" />
    <path
       style="display:inline;fill:none;fill-opacity:1;stroke:#fce94f;stroke-width:0.529167;stroke-linecap:butt;stroke-linejoin:miter;stroke-miterlimit:4;stroke-dasharray:5.29167, 2.11667, 1.05833, 2.11667;stroke-dashoffset:0;stroke-opacity:1"
       d="m 7.4122073,278.5436 -0.10738,15.86784"
       id="path4"
       transform="translate(0.26454473,-5.5653029e-5)" />
    <path
       style="display:inline;fill:#ffff00;fill-opacity:1;stroke:#302b00;stroke-width:0.529167;stroke-linecap:butt;stroke-linejoin:miter;stroke-miterlimit:4;stroke-dasharray:5.29167, 2.11667, 1.05833, 2.11667;stroke-dashoffset:0;stroke-opacity:1"
       d="M 15.825172,286.00564 -0.04266638,285.89826"
       id="path2"
       transform="translate(6.140957e-5,0.26004374)" />
    <rect
       style="fill:#c4a000;stroke:none;stroke-width:1.59146;stroke-linecap:square;stroke-dasharray:15.9146, 6.36585, 3.18293, 6.36585;stroke-dashoffset:0"
       id="rect4"
       width="0.5291667"
       height="0.53181249"
       x="7.3585052"
       y="285.944" />
    <rect
       style="fill:#edd400;stroke:none;stroke-width:1.5875;stroke-linecap:square;stroke-dasharray:15.875, 6.35, 3.175, 6.35;stroke-dashoffset:0"
       id="rect5"
       width="0.5291667"
       height="0.5291667"
       x="7.8876719"
       y="286.47314" />
  </g>
</svg>
