<?xml version="1.0" encoding="UTF-8" standalone="no"?>
<!-- Created with Inkscape (http://www.inkscape.org/) -->

<svg
   width="64"
   height="64"
   viewBox="0 0 16.933333 16.933334"
   version="1.1"
   id="svg1593"
   xmlns="http://www.w3.org/2000/svg"
   xmlns:svg="http://www.w3.org/2000/svg"
   xmlns:rdf="http://www.w3.org/1999/02/22-rdf-syntax-ns#"
   xmlns:cc="http://creativecommons.org/ns#"
   xmlns:dc="http://purl.org/dc/elements/1.1/">
  <defs
     id="defs1587" />
  <metadata
     id="metadata1590">
    <rdf:RDF>
      <cc:Work
         rdf:about="">
        <dc:format>image/svg+xml</dc:format>
        <dc:type
           rdf:resource="http://purl.org/dc/dcmitype/StillImage" />
        <dc:title />
      </cc:Work>
    </rdf:RDF>
  </metadata>
  <g
     id="layer1"
     transform="translate(0,-280.06665)">
    <path
       style="fill:#ffff00;stroke:#ffff00;stroke-width:0.75;stroke-linecap:butt;stroke-linejoin:miter;stroke-miterlimit:4;stroke-dasharray:0.75, 0.75;stroke-dashoffset:0;stroke-opacity:1"
       d="m 4.8191964,294.59038 c 7.4287856,0.0152 7.4287856,0.0152 7.4287856,0.0152"
       id="path1770" />
    <path
       style="fill:none;stroke:#ffff00;stroke-width:0.75;stroke-linecap:butt;stroke-linejoin:miter;stroke-miterlimit:4;stroke-dasharray:0.75000002, 0.75000002;stroke-dashoffset:0;stroke-opacity:1"
       d="m 14.504836,284.99924 c -0.09449,7.18155 -0.09449,7.18155 -0.09449,7.18155"
       id="path1772" />
    <path
       style="opacity:1;fill:#ffff00;fill-opacity:1;fill-rule:nonzero;stroke:#2b2200;stroke-width:0.40000001;stroke-linecap:square;stroke-linejoin:bevel;stroke-miterlimit:4;stroke-dasharray:none;stroke-dashoffset:0;stroke-opacity:1"
       id="path1738-3-8"
       d="m 12.709774,294.41182 a 1.7008928,1.7008928 0 0 1 1.603193,-1.70836 a 1.7008928,1.7008928 0 0 1 1.788492,1.51328 a 1.7008928,1.7008928 0 0 1 -1.419363,1.8639 a 1.7008928,1.7008928 0 0 1 -1.934381,-1.3217" />
    <path
       style="opacity:1;fill:#ff0000;fill-opacity:1;fill-rule:nonzero;stroke:#ffff00;stroke-width:1;stroke-linecap:square;stroke-linejoin:bevel;stroke-miterlimit:4;stroke-dasharray:none;stroke-dashoffset:0;stroke-opacity:1"
       id="path1738-3"
       d="m 12.709773,282.93074 a 1.7008928,1.7008928 0 0 1 1.581932,-1.707 a 1.7008928,1.7008928 0 0 1 1.804593,1.46963 a 1.7008928,1.7008928 0 0 1 -1.351317,1.89481 a 1.7008928,1.7008928 0 0 1 -1.977282,-1.22749" />
    <path
       style="opacity:1;fill:#ff0000;fill-opacity:1;fill-rule:nonzero;stroke:#ffff00;stroke-width:1;stroke-linecap:square;stroke-linejoin:bevel;stroke-miterlimit:4;stroke-dasharray:none;stroke-dashoffset:0;stroke-opacity:1"
       id="path1738"
       d="m 0.80323042,294.45894 a 1.7008928,1.7008928 0 0 1 1.58193218,-1.707 a 1.7008928,1.7008928 0 0 1 1.804593,1.46963 a 1.7008928,1.7008928 0 0 1 -1.3513176,1.89481 a 1.7008928,1.7008928 0 0 1 -1.97728209,-1.22749" />
    <path
       style="opacity:1;fill:none;fill-opacity:1;fill-rule:nonzero;stroke:#ffff00;stroke-width:0.75;stroke-linecap:square;stroke-linejoin:bevel;stroke-miterlimit:4;stroke-dasharray:none;stroke-dashoffset:3.39948392;stroke-opacity:1"
       id="path1734-7"
       d="M 0.99977149,292.22874 A 13.615903,13.502474 0 0 1 12.435579,281.1903" />
    <path
       style="opacity:1;fill:none;fill-opacity:1;fill-rule:nonzero;stroke:#ffff00;stroke-width:0.75;stroke-linecap:square;stroke-linejoin:bevel;stroke-miterlimit:4;stroke-dasharray:none;stroke-dashoffset:3.39948392;stroke-opacity:1"
       id="path1734-7-5"
       d="M 4.8971927,292.27412 A 13.615903,13.081364 0 0 1 12.10572,284.94985" />
    <path
       style="opacity:1;fill:none;fill-opacity:1;fill-rule:nonzero;stroke:#ff0000;stroke-width:0.75;stroke-linecap:square;stroke-linejoin:bevel;stroke-miterlimit:4;stroke-dasharray:3.00000008, 1.50000004, 0.75000002, 1.50000004;stroke-dashoffset:0;stroke-opacity:1"
       id="path1734-7-3"
       d="m 2.6753224,292.75134 a 13.615903,13.081364 0 0 1 9.9613046,-9.92816" />
    <path
       d="M 5.5745242,292.59898 A 12.950489,12.392507 0 0 1 12.430768,285.6604"
       id="path1107"
       style="opacity:1;fill:none;fill-opacity:1;fill-rule:nonzero;stroke:#2b2200;stroke-width:0.40000001;stroke-linecap:square;stroke-linejoin:bevel;stroke-miterlimit:4;stroke-dasharray:none;stroke-dashoffset:3.39948392;stroke-opacity:1" />
    <path
       d="M 0.31251003,291.9471 A 14.019665,13.999018 0 0 1 12.087431,280.50274"
       id="path1109"
       style="opacity:1;fill:none;fill-opacity:1;fill-rule:nonzero;stroke:#2b2200;stroke-width:0.40000001;stroke-linecap:square;stroke-linejoin:bevel;stroke-miterlimit:4;stroke-dasharray:none;stroke-dashoffset:3.39948392;stroke-opacity:1" />
    <path
       style="opacity:1;fill:#ff0000;fill-opacity:1;fill-rule:nonzero;stroke:#ff0000;stroke-width:0.37433758;stroke-linecap:butt;stroke-linejoin:round;stroke-miterlimit:4;stroke-dasharray:none;stroke-dashoffset:0;stroke-opacity:1"
       id="path1111"
       d="m 13.796022,294.37412 a 0.64556569,0.62194216 0 0 1 0.624585,-0.6415 a 0.64556569,0.62194216 0 0 1 0.665886,0.60171 a 0.64556569,0.62194216 0 0 1 -0.624533,0.64154 a 0.64556569,0.62194216 0 0 1 -0.665934,-0.60165" />
  </g>
</svg>
