<?xml version="1.0" encoding="UTF-8" standalone="no"?>
<!-- Created with Inkscape (http://www.inkscape.org/) -->

<svg
   width="64"
   height="64"
   viewBox="0 0 16.933333 16.933334"
   version="1.1"
   id="svg8"
   xmlns="http://www.w3.org/2000/svg"
   xmlns:svg="http://www.w3.org/2000/svg"
   xmlns:rdf="http://www.w3.org/1999/02/22-rdf-syntax-ns#"
   xmlns:cc="http://creativecommons.org/ns#"
   xmlns:dc="http://purl.org/dc/elements/1.1/">
  <defs
     id="defs2">
    <linearGradient
       id="linearGradient5969">
      <stop
         style="stop-color:#000000;stop-opacity:1;"
         offset="0"
         id="stop5967" />
    </linearGradient>
    <pattern
       y="0"
       x="0"
       height="6"
       width="6"
       patternUnits="userSpaceOnUse"
       id="EMFhbasepattern" />
  </defs>
  <metadata
     id="metadata5">
    <rdf:RDF>
      <cc:Work
         rdf:about="">
        <dc:format>image/svg+xml</dc:format>
        <dc:type
           rdf:resource="http://purl.org/dc/dcmitype/StillImage" />
      </cc:Work>
    </rdf:RDF>
  </metadata>
  <g
     id="layer1"
     transform="matrix(1.9205663,0,0,1.907574,0.33335856,-550.01473)">
    <g
       id="g827"
       transform="matrix(0.56816734,0,0,0.56816734,-0.57714939,128.83144)">
      <path
         d="m 3.0683585,292.26567 c -2.039053,-2.99662 -1.2835005,-7.09942 1.6846394,-9.15999 2.9681398,-2.06057 7.0351991,-1.31359 9.0904071,1.67177 2.055209,2.98537 1.321864,7.09228 -1.635115,9.16911 -2.9569785,2.07683 -7.0279948,1.35216 -9.0992976,-1.62186"
         id="path4"
         style="display:inline;opacity:1;fill:none;fill-opacity:1;fill-rule:nonzero;stroke:#0b1521;stroke-width:1.45976;stroke-linecap:square;stroke-linejoin:bevel;stroke-miterlimit:4;stroke-dasharray:none;stroke-dashoffset:0;stroke-opacity:1"
         transform="translate(0,-1.4213165e-5)" />
      <path
         d="m 3.0683585,292.26567 c -2.039053,-2.99662 -1.2835005,-7.09942 1.6846394,-9.15999 2.9681398,-2.06057 7.0351991,-1.31359 9.0904071,1.67177 2.055209,2.98537 1.321864,7.09228 -1.635115,9.16911 -2.9569785,2.07683 -7.0279948,1.35216 -9.0992976,-1.62186"
         id="path1"
         style="display:inline;opacity:1;fill:none;fill-opacity:1;fill-rule:nonzero;stroke:#729fcf;stroke-width:0.486587;stroke-linecap:square;stroke-linejoin:bevel;stroke-miterlimit:4;stroke-dasharray:none;stroke-dashoffset:0;stroke-opacity:1"
         transform="translate(0,-1.1450129e-5)" />
      <g
         id="g6">
        <path
           d="m 6.7657672,288.54354 a 1.7008928,1.7008928 0 0 1 1.6031927,-1.70836 1.7008928,1.7008928 0 0 1 1.7884921,1.51328 1.7008928,1.7008928 0 0 1 -1.419363,1.86389 1.7008928,1.7008928 0 0 1 -1.9343809,-1.32169"
           id="path1738-3-8"
           style="display:inline;opacity:1;fill:#729fcf;fill-opacity:1;fill-rule:nonzero;stroke:#0b1521;stroke-width:0.486587;stroke-linecap:square;stroke-linejoin:bevel;stroke-miterlimit:4;stroke-dasharray:none;stroke-dashoffset:0;stroke-opacity:1" />
        <path
           d="m 7.2523458,288.5406 c -0.00389,-0.64333 0.5022742,-1.1827 1.144555,-1.21964 0.6422809,-0.0369 1.2069428,0.44083 1.2768445,1.08037 0.069902,0.63953 -0.378219,1.228 -1.0133149,1.33067 -0.635096,0.10268 -1.2458179,-0.3146 -1.3809978,-0.94358"
           id="path2"
           style="display:inline;opacity:1;fill:#0b1521;fill-opacity:1;fill-rule:nonzero;stroke:#729fcf;stroke-width:0.486587;stroke-linecap:square;stroke-linejoin:bevel;stroke-miterlimit:4;stroke-dasharray:none;stroke-dashoffset:0;stroke-opacity:1" />
      </g>
      <g
         id="g1">
        <path
           d="m 11.569581,283.91753 a 1.6032633,1.5897803 0 0 1 1.491131,-1.59549 1.6032633,1.5897803 0 0 1 1.701011,1.37362 1.6032633,1.5897803 0 0 1 -1.273753,1.77103 1.6032633,1.5897803 0 0 1 -1.863788,-1.1473"
           id="path1738"
           style="display:inline;opacity:1;fill:#729fcf;fill-opacity:1;fill-rule:nonzero;stroke:#0b1521;stroke-width:0.486587;stroke-linecap:square;stroke-linejoin:bevel;stroke-miterlimit:4;stroke-dasharray:none;stroke-dashoffset:0;stroke-opacity:1" />
        <path
           d="m 12.05616,283.91457 c -0.0035,-0.57653 0.451729,-1.06635 1.038291,-1.10711 0.586561,-0.0408 1.107468,0.38222 1.185115,0.95371 0.07765,0.57149 -0.310157,1.1137 -0.886471,1.22827 -0.576314,0.11457 -1.148574,-0.23966 -1.299174,-0.79698"
           id="path3"
           style="display:inline;opacity:1;fill:#204a87;fill-opacity:1;fill-rule:nonzero;stroke:#729fcf;stroke-width:0.486587;stroke-linecap:square;stroke-linejoin:bevel;stroke-miterlimit:4;stroke-dasharray:none;stroke-dashoffset:0;stroke-opacity:1" />
      </g>
    </g>
  </g>
</svg>
