<?xml version="1.0" encoding="UTF-8" standalone="no"?>
<!-- Created with Inkscape (http://www.inkscape.org/) -->

<svg
   width="64"
   height="64"
   viewBox="0 0 16.933333 16.933334"
   version="1.1"
   id="svg998"
   xmlns="http://www.w3.org/2000/svg"
   xmlns:svg="http://www.w3.org/2000/svg"
   xmlns:rdf="http://www.w3.org/1999/02/22-rdf-syntax-ns#"
   xmlns:cc="http://creativecommons.org/ns#"
   xmlns:dc="http://purl.org/dc/elements/1.1/">
  <defs
     id="defs992" />
  <metadata
     id="metadata995">
    <rdf:RDF>
      <cc:Work
         rdf:about="">
        <dc:format>image/svg+xml</dc:format>
        <dc:type
           rdf:resource="http://purl.org/dc/dcmitype/StillImage" />
      </cc:Work>
    </rdf:RDF>
  </metadata>
  <g
     id="g1"
     transform="matrix(3.2499997,0,0,3.2496727,1.5875122,1.1582873)"
     style="stroke-width:0.307707">
    <g
       id="g4">
      <path
         style="fill:#302b00;stroke:#302b00;stroke-width:0.325657;stroke-dasharray:none"
         d="M -0.16281609,3.7041668 V 4.2333334 H 0.36635059 V 3.7041668 Z"
         id="path4" />
      <path
         style="fill:#302b00;stroke:#302b00;stroke-width:0.325657;stroke-dasharray:none"
         d="m 3.4680389,0.26458334 c -0.1298305,0 -0.2511918,0.0377826 -0.3637999,0.1131714 C 2.9916306,0.45130483 2.8936644,0.56413571 2.8102016,0.71675214 2.7280643,0.8693686 2.6635922,1.0625234 2.6158995,1.296045 c -0.047693,0.2316828 -0.07183,0.50539 -0.07183,0.8216552 0,0.1932701 0.012118,0.3657415 0.029972,0.5281332 H 2.8086513 V 2.3812501 c 0,-0.099488 0.030285,-0.192147 0.079582,-0.2723349 3.705e-4,-0.2715856 0.0156,-0.499598 0.047026,-0.6831624 0.031795,-0.1875527 0.074647,-0.3381661 0.12764,-0.45216879 0.054317,-0.11400267 0.1155939,-0.19581676 0.1844836,-0.24546307 0.070215,-0.0496463 0.143819,-0.0744141 0.2206572,-0.0744141 0.076839,0 0.150442,0.0247676 0.220657,0.0744141 0.070215,0.0496463 0.1320086,0.1314604 0.1850006,0.24546307 0.054317,0.11400269 0.097394,0.26461609 0.1291902,0.45216879 0.031795,0.185714 0.047542,0.4161348 0.047542,0.6919474 0,0.2024369 -0.011298,0.3731604 -0.028422,0.5281332 h 0.1095532 c 0.081124,0 0.157599,0.020516 0.2268583,0.05426 0.022244,-0.1772815 0.037724,-0.3666187 0.037724,-0.5823934 0,-0.3162651 -0.024137,-0.5899724 -0.07183,-0.8216552 C 4.2766196,1.0625234 4.2114055,0.8693686 4.1279429,0.71675214 4.0444809,0.56413571 3.9457714,0.45130483 3.8318388,0.37775474 3.7192305,0.30236589 3.5978694,0.26458334 3.4680389,0.26458334 Z"
         id="path2" />
      <path
         id="path1"
         style="fill:#302b00;stroke:#302b00;stroke-width:0.325657;stroke-dasharray:none"
         d="m 1.2537542,0.26458334 c -0.1298315,0 -0.2511931,0.0377826 -0.36380211,0.1131714 C 0.77601865,0.45130483 0.6773089,0.56413571 0.59384614,0.71675214 0.51038316,0.8693686 0.44516893,1.0625234 0.39747569,1.296045 c -0.047693,0.2316828 -0.0718302,0.50539 -0.0718302,0.8216552 0,0.3162655 0.0241371,0.5912345 0.0718302,0.824756 0.0476932,0.2316829 0.11290747,0.4240924 0.19637045,0.5767089 0.0834628,0.1507778 0.18217251,0.2641253 0.29610595,0.3395141 0.11260901,0.07355 0.23397061,0.1100709 0.36380211,0.1100709 0.1298315,0 0.2511931,-0.036521 0.3638021,-0.1100709 C 1.730165,3.7832902 1.828132,3.6699429 1.9115952,3.5191651 1.9937332,3.3665486 2.0582056,3.1741391 2.1058986,2.9424562 c 0.047693,-0.2335215 0.07183,-0.5084905 0.07183,-0.824756 0,-0.3162652 -0.024137,-0.5899724 -0.07183,-0.8216552 C 2.0582056,1.0625234 1.9937332,0.8693686 1.9115952,0.71675214 1.828132,0.56413571 1.730165,0.45130483 1.6175563,0.37775474 1.5049473,0.30236589 1.3835857,0.26458334 1.2537542,0.26458334 Z m 0,0.38912354 c 0.076839,0 0.1504436,0.0247676 0.2206584,0.0744141 0.06889,0.0496463 0.1301676,0.1314604 0.1844848,0.24546307 0.052992,0.11400265 0.095845,0.26461605 0.1276408,0.45216875 0.031792,0.185714 0.047542,0.4161347 0.047542,0.6919474 0,0.2758132 -0.015747,0.5080123 -0.047542,0.6955647 -0.031795,0.1857142 -0.074649,0.335066 -0.1276408,0.4490683 -0.054317,0.1140032 -0.1155947,0.1963336 -0.1844848,0.24598 -0.070215,0.047807 -0.1438196,0.071313 -0.2206584,0.071313 -0.076839,0 -0.1504431,-0.023506 -0.2206584,-0.071313 C 0.962881,3.4586668 0.90108648,3.3763364 0.84809419,3.2623332 0.79377677,3.1483309 0.7506985,2.9989789 0.71890309,2.8132649 0.6871083,2.6257125 0.67136077,2.3935134 0.67136077,2.1177002 c 0,-0.2758127 0.0157469,-0.5062334 0.0475423,-0.6919474 C 0.7506985,1.2382001 0.79377677,1.0875867 0.84809419,0.97358401 0.90108648,0.85958134 0.962881,0.77776725 1.0330958,0.72812094 1.1033111,0.67847452 1.1769152,0.65370688 1.2537542,0.65370688 Z" />
    </g>
    <g
       id="g7">
      <path
         style="fill:#fce94f;stroke:none;stroke-width:0.325657;stroke-dasharray:none"
         d="M -0.16281609,3.7041668 V 4.2333334 H 0.36635059 V 3.7041668 Z"
         id="path5" />
      <path
         style="fill:#fce94f;stroke:none;stroke-width:0.325657;stroke-dasharray:none"
         d="m 3.4680389,0.26458334 c -0.1298305,0 -0.2511918,0.0377826 -0.3637999,0.1131714 C 2.9916306,0.45130483 2.8936644,0.56413571 2.8102016,0.71675214 2.7280643,0.8693686 2.6635922,1.0625234 2.6158995,1.296045 c -0.047693,0.2316828 -0.07183,0.50539 -0.07183,0.8216552 0,0.1932701 0.012118,0.3657415 0.029972,0.5281332 H 2.8086513 V 2.3812501 c 0,-0.099488 0.030285,-0.192147 0.079582,-0.2723349 3.705e-4,-0.2715856 0.0156,-0.499598 0.047026,-0.6831624 0.031795,-0.1875527 0.074647,-0.3381661 0.12764,-0.45216879 0.054317,-0.11400267 0.1155939,-0.19581676 0.1844836,-0.24546307 0.070215,-0.0496463 0.143819,-0.0744141 0.2206572,-0.0744141 0.076839,0 0.150442,0.0247676 0.220657,0.0744141 0.070215,0.0496463 0.1320086,0.1314604 0.1850006,0.24546307 0.054317,0.11400269 0.097394,0.26461609 0.1291902,0.45216879 0.031795,0.185714 0.047542,0.4161348 0.047542,0.6919474 0,0.2024369 -0.011298,0.3731604 -0.028422,0.5281332 h 0.1095532 c 0.081124,0 0.157599,0.020516 0.2268583,0.05426 0.022244,-0.1772815 0.037724,-0.3666187 0.037724,-0.5823934 0,-0.3162651 -0.024137,-0.5899724 -0.07183,-0.8216552 C 4.2766196,1.0625234 4.2114055,0.8693686 4.1279429,0.71675214 4.0444809,0.56413571 3.9457714,0.45130483 3.8318388,0.37775474 3.7192305,0.30236589 3.5978694,0.26458334 3.4680389,0.26458334 Z"
         id="path6" />
      <path
         id="path7"
         style="fill:#fce94f;stroke:none;stroke-width:0.325657;stroke-dasharray:none"
         d="m 1.2537542,0.26458334 c -0.1298315,0 -0.2511931,0.0377826 -0.36380211,0.1131714 C 0.77601865,0.45130483 0.6773089,0.56413571 0.59384614,0.71675214 0.51038316,0.8693686 0.44516893,1.0625234 0.39747569,1.296045 c -0.047693,0.2316828 -0.0718302,0.50539 -0.0718302,0.8216552 0,0.3162655 0.0241371,0.5912345 0.0718302,0.824756 0.0476932,0.2316829 0.11290747,0.4240924 0.19637045,0.5767089 0.0834628,0.1507778 0.18217251,0.2641253 0.29610595,0.3395141 0.11260901,0.07355 0.23397061,0.1100709 0.36380211,0.1100709 0.1298315,0 0.2511931,-0.036521 0.3638021,-0.1100709 C 1.730165,3.7832902 1.828132,3.6699429 1.9115952,3.5191651 1.9937332,3.3665486 2.0582056,3.1741391 2.1058986,2.9424562 c 0.047693,-0.2335215 0.07183,-0.5084905 0.07183,-0.824756 0,-0.3162652 -0.024137,-0.5899724 -0.07183,-0.8216552 C 2.0582056,1.0625234 1.9937332,0.8693686 1.9115952,0.71675214 1.828132,0.56413571 1.730165,0.45130483 1.6175563,0.37775474 1.5049473,0.30236589 1.3835857,0.26458334 1.2537542,0.26458334 Z m 0,0.38912354 c 0.076839,0 0.1504436,0.0247676 0.2206584,0.0744141 0.06889,0.0496463 0.1301676,0.1314604 0.1844848,0.24546307 0.052992,0.11400265 0.095845,0.26461605 0.1276408,0.45216875 0.031792,0.185714 0.047542,0.4161347 0.047542,0.6919474 0,0.2758132 -0.015747,0.5080123 -0.047542,0.6955647 -0.031795,0.1857142 -0.074649,0.335066 -0.1276408,0.4490683 -0.054317,0.1140032 -0.1155947,0.1963336 -0.1844848,0.24598 -0.070215,0.047807 -0.1438196,0.071313 -0.2206584,0.071313 -0.076839,0 -0.1504431,-0.023506 -0.2206584,-0.071313 C 0.962881,3.4586668 0.90108648,3.3763364 0.84809419,3.2623332 0.79377677,3.1483309 0.7506985,2.9989789 0.71890309,2.8132649 0.6871083,2.6257125 0.67136077,2.3935134 0.67136077,2.1177002 c 0,-0.2758127 0.0157469,-0.5062334 0.0475423,-0.6919474 C 0.7506985,1.2382001 0.79377677,1.0875867 0.84809419,0.97358401 0.90108648,0.85958134 0.962881,0.77776725 1.0330958,0.72812094 1.1033111,0.67847452 1.1769152,0.65370688 1.2537542,0.65370688 Z" />
    </g>
    <g
       id="g12"
       transform="matrix(0.30769233,0,0,0.3077233,-0.48846534,-0.35643199)">
      <path
         style="opacity:1;fill:none;stroke:#0b1521;stroke-width:2.11667;stroke-linecap:round;stroke-linejoin:round;stroke-dashoffset:1.99999;paint-order:markers fill stroke"
         d="M 9.7779418,11.475998 H 15.100036"
         id="path3" />
      <path
         style="opacity:1;fill:none;stroke:#0b1521;stroke-width:2.11667;stroke-linecap:round;stroke-linejoin:round;stroke-dashoffset:1.99999;paint-order:markers fill stroke"
         d="M 12.438989,14.137045 V 8.8149509"
         id="path8" />
      <path
         style="opacity:1;fill:none;stroke:#3465a4;stroke-width:1.05833334;stroke-linecap:round;stroke-linejoin:round;stroke-dashoffset:1.99999;paint-order:markers fill stroke;stroke-dasharray:none"
         d="M 9.7779418,11.475998 H 15.100036"
         id="path9" />
      <path
         style="opacity:1;fill:none;stroke:#3465a4;stroke-width:1.05833334;stroke-linecap:round;stroke-linejoin:round;stroke-dashoffset:1.99999;paint-order:markers fill stroke;stroke-dasharray:none"
         d="M 12.438989,14.137045 V 8.8149509"
         id="path10" />
      <path
         style="opacity:1;fill:none;stroke:#729fcf;stroke-width:0.529167;stroke-linecap:round;stroke-linejoin:round;stroke-dasharray:none;stroke-dashoffset:1.99999;paint-order:markers fill stroke"
         d="M 9.5133584,11.211454 H 14.835453"
         id="path11" />
      <path
         style="opacity:1;fill:none;stroke:#729fcf;stroke-width:0.529167;stroke-linecap:round;stroke-linejoin:round;stroke-dasharray:none;stroke-dashoffset:1.99999;paint-order:markers fill stroke"
         d="M 12.174538,13.872369 V 8.5502752"
         id="path12" />
    </g>
  </g>
</svg>
