<?xml version="1.0" encoding="UTF-8" standalone="no"?>
<!-- Created with Inkscape (http://www.inkscape.org/) -->

<svg
   width="64"
   height="64"
   viewBox="0 0 16.933333 16.933334"
   version="1.1"
   id="svg1876"
   style="enable-background:new"
   xmlns="http://www.w3.org/2000/svg"
   xmlns:svg="http://www.w3.org/2000/svg"
   xmlns:rdf="http://www.w3.org/1999/02/22-rdf-syntax-ns#"
   xmlns:cc="http://creativecommons.org/ns#"
   xmlns:dc="http://purl.org/dc/elements/1.1/">
  <defs
     id="defs1870">
    <filter
       style="color-interpolation-filters:sRGB"
       id="filter1958"
       x="-0.057907152"
       y="-38.209421"
       width="1.0800244"
       height="77.418841">
      <feBlend
         mode="exclusion"
         in2="BackgroundImage"
         id="feBlend1960" />
    </filter>
  </defs>
  <metadata
     id="metadata1873">
    <rdf:RDF>
      <cc:Work
         rdf:about="">
        <dc:format>image/svg+xml</dc:format>
        <dc:type
           rdf:resource="http://purl.org/dc/dcmitype/StillImage" />
      </cc:Work>
    </rdf:RDF>
  </metadata>
  <g
     id="layer1"
     transform="translate(0.13229134,0.79657367)">
    <path
       style="enable-background:new;fill:none;stroke:#d3d7cf;stroke-width:1.5875;stroke-linecap:square;stroke-dasharray:none;paint-order:fill markers stroke"
       d="m 2.5135423,13.490926 -3e-7,-12.170833"
       id="path28" />
    <path
       style="enable-background:new;fill:none;stroke:#555753;stroke-width:0.529167;stroke-linecap:square;stroke-dasharray:none;paint-order:fill markers stroke"
       d="m 2.5135423,13.490926 -3e-7,-12.69999965"
       id="path29" />
    <g
       id="g22">
      <path
         style="fill:none;stroke:#302b00;stroke-width:1.5875;stroke-linecap:square;stroke-dasharray:none;paint-order:fill markers stroke;enable-background:new"
         d="M 13.097006,12.965413 13.096876,1.3201435"
         id="path1" />
      <path
         style="fill:none;stroke:#302b00;stroke-width:1.5875;stroke-linecap:square;stroke-dasharray:none;paint-order:fill markers stroke;enable-background:new"
         d="M 9.7897136,9.2575931 V 1.320093"
         id="path2" />
      <path
         style="fill:none;stroke:#302b00;stroke-width:1.5875;stroke-linecap:square;stroke-dasharray:none;paint-order:fill markers stroke;enable-background:new"
         d="M 6.482422,4.7596764 6.482292,1.320093"
         id="path9" />
      <path
         style="fill:none;stroke:#302b00;stroke-width:1.5875;stroke-linecap:round;stroke-dasharray:none;paint-order:fill markers stroke;enable-background:new"
         d="m 2.5135422,4.7596764 5.5562499,-3.3e-6"
         id="path10" />
      <path
         style="fill:none;stroke:#302b00;stroke-width:1.5875;stroke-linecap:round;stroke-dasharray:none;paint-order:fill markers stroke;enable-background:new"
         d="M 2.5135422,9.2575931 H 11.377084"
         id="path12" />
      <path
         style="fill:none;stroke:#302b00;stroke-width:1.5875;stroke-linecap:round;stroke-dasharray:none;paint-order:fill markers stroke;enable-background:new"
         d="m 2.5135422,13.490926 12.1708328,0.0028"
         id="path13" />
    </g>
    <g
       id="g27"
       style="enable-background:new">
      <path
         style="fill:none;stroke:#fce94f;stroke-width:0.529167;stroke-linecap:square;stroke-dasharray:none;paint-order:fill markers stroke;enable-background:new"
         d="M 13.097006,12.965413 13.096876,0.79092635"
         id="path22" />
      <path
         style="fill:none;stroke:#fce94f;stroke-width:0.529167;stroke-linecap:square;stroke-dasharray:none;paint-order:fill markers stroke;enable-background:new"
         d="M 9.7897136,9.7886703 V 0.79092635"
         id="path23" />
      <path
         style="fill:none;stroke:#fce94f;stroke-width:0.529167;stroke-linecap:square;stroke-dasharray:none;paint-order:fill markers stroke;enable-background:new"
         d="M 6.482422,5.2907536 6.4822921,0.79092635"
         id="path24" />
      <path
         style="fill:none;stroke:#fce94f;stroke-width:0.52916667;stroke-linecap:round;stroke-dasharray:none;paint-order:fill markers stroke;enable-background:new"
         d="m 2.5135422,4.7596764 5.5562499,-3.3e-6"
         id="path25" />
      <path
         style="fill:none;stroke:#fce94f;stroke-width:0.52916667;stroke-linecap:round;stroke-dasharray:none;paint-order:fill markers stroke;enable-background:new"
         d="M 2.5135422,9.2575931 H 11.377084"
         id="path26" />
      <path
         style="fill:none;stroke:#fce94f;stroke-width:0.52916667;stroke-linecap:round;stroke-dasharray:none;paint-order:fill markers stroke;enable-background:new"
         d="m 2.5135422,13.490926 12.1708328,0.0028"
         id="path27" />
    </g>
    <g
       id="g7"
       transform="translate(-1.1490846,-0.02769476)"
       style="enable-background:new">
      <circle
         style="fill:#fce94f;stroke:#302b00;stroke-width:0.529167;stroke-dasharray:none"
         id="path3"
         cx="14.24596"
         cy="13.518621"
         r="1.0583334" />
      <path
         style="fill:#c4a000;stroke:#fce94f;stroke-width:0.529167;stroke-dasharray:none"
         id="circle3"
         d="m 14.21875,12.990234 h 0.02734 c 0.289417,0 0.529297,0.23988 0.529297,0.529297 0,0.289418 -0.238664,0.527344 -0.529297,0.527344 -0.290634,0 -0.529297,-0.237926 -0.529297,-0.527344 0,-0.280508 0.228874,-0.515454 0.501953,-0.529297 z" />
    </g>
    <g
       id="g6"
       transform="translate(-4.4563763,-4.2610281)"
       style="enable-background:new">
      <circle
         style="fill:#fce94f;stroke:#302b00;stroke-width:0.529167;stroke-dasharray:none"
         id="circle4"
         cx="14.24596"
         cy="13.518621"
         r="1.0583334" />
      <path
         style="fill:#c4a000;stroke:#fce94f;stroke-width:0.529167;stroke-dasharray:none"
         id="path4"
         d="m 14.21875,12.990234 h 0.02734 c 0.289417,0 0.529297,0.23988 0.529297,0.529297 0,0.289418 -0.238664,0.527344 -0.529297,0.527344 -0.290634,0 -0.529297,-0.237926 -0.529297,-0.527344 0,-0.280508 0.228874,-0.515454 0.501953,-0.529297 z" />
    </g>
    <g
       id="g11"
       transform="translate(-7.763668,-8.7589448)"
       style="display:inline;enable-background:new">
      <circle
         style="fill:#fce94f;stroke:#302b00;stroke-width:0.529167;stroke-dasharray:none"
         id="circle11"
         cx="14.24596"
         cy="13.518621"
         r="1.0583334" />
      <path
         style="fill:#c4a000;stroke:#fce94f;stroke-width:0.529167;stroke-dasharray:none"
         id="path11"
         d="m 14.21875,12.990234 h 0.02734 c 0.289417,0 0.529297,0.23988 0.529297,0.529297 0,0.289418 -0.238664,0.527344 -0.529297,0.527344 -0.290634,0 -0.529297,-0.237926 -0.529297,-0.527344 0,-0.280508 0.228874,-0.515454 0.501953,-0.529297 z" />
    </g>
    <g
       id="g15"
       transform="translate(-11.732418,-8.7561214)"
       style="display:inline;stroke-width:0.529167;stroke-dasharray:none;enable-background:new">
      <circle
         style="fill:#d3d7cf;stroke:#555753;stroke-width:0.529167;stroke-dasharray:none"
         id="circle15"
         cx="14.24596"
         cy="13.518621"
         r="1.0583334" />
      <path
         style="fill:#888a85;stroke:#d3d7cf;stroke-width:0.529167;stroke-dasharray:none"
         id="path15"
         d="m 14.21875,12.990234 h 0.02734 c 0.289417,0 0.529297,0.23988 0.529297,0.529297 0,0.289418 -0.238664,0.527344 -0.529297,0.527344 -0.290634,0 -0.529297,-0.237926 -0.529297,-0.527344 0,-0.280508 0.228874,-0.515454 0.501953,-0.529297 z" />
    </g>
    <g
       id="g17"
       transform="translate(-11.732418,-4.2582047)"
       style="enable-background:new">
      <circle
         style="fill:#d3d7cf;stroke:#555753;stroke-width:0.529167;stroke-dasharray:none"
         id="circle17"
         cx="14.24596"
         cy="13.518621"
         r="1.0583334" />
      <path
         style="fill:#888a85;stroke:#d3d7cf;stroke-width:0.529167;stroke-dasharray:none"
         id="path17"
         d="m 14.21875,12.990234 h 0.02734 c 0.289417,0 0.529297,0.23988 0.529297,0.529297 0,0.289418 -0.238664,0.527344 -0.529297,0.527344 -0.290634,0 -0.529297,-0.237926 -0.529297,-0.527344 0,-0.280508 0.228874,-0.515454 0.501953,-0.529297 z" />
    </g>
    <g
       id="g19"
       transform="translate(-11.732418,-0.02769476)"
       style="display:inline;enable-background:new">
      <circle
         style="fill:#d3d7cf;stroke:#555753;stroke-width:0.529167;stroke-dasharray:none"
         id="circle19"
         cx="14.24596"
         cy="13.518621"
         r="1.0583334" />
      <path
         style="fill:#888a85;stroke:#d3d7cf;stroke-width:0.529167;stroke-dasharray:none"
         id="path19"
         d="m 14.21875,12.990234 h 0.02734 c 0.289417,0 0.529297,0.23988 0.529297,0.529297 0,0.289418 -0.238664,0.527344 -0.529297,0.527344 -0.290634,0 -0.529297,-0.237926 -0.529297,-0.527344 0,-0.280508 0.228874,-0.515454 0.501953,-0.529297 z" />
    </g>
    <g
       id="g23"
       style="enable-background:new"
       transform="rotate(-90,5.3343386,13.138334)">
      <g
         id="g14"
         transform="translate(0.05290999,1.0985104e-4)">
        <rect
           style="display:none;fill:#fce94f;fill-opacity:1;stroke:none;stroke-width:0.731715;stroke-linecap:square;stroke-dasharray:none;enable-background:new"
           id="rect13"
           width="2.1158729"
           height="1.5292916"
           x="5.9637084"
           y="11.475509" />
        <path
           style="fill:none;stroke:#cc0000;stroke-width:0.529167;stroke-linecap:square;stroke-dasharray:none"
           d="m 6.3031111,11.740092 h 1.5866277 m -1.5866277,1 h 1.5866277"
           id="path7"
           transform="translate(-0.07481921)" />
      </g>
      <g
         id="g16"
         transform="translate(0.15874196)">
        <rect
           style="display:none;fill:#fce94f;fill-opacity:1;stroke:none;stroke-width:0.731715;stroke-linecap:square;stroke-dasharray:none;enable-background:new"
           id="rect14"
           width="2.1158729"
           height="1.5292916"
           x="10.302876"
           y="11.475509" />
        <path
           style="fill:none;stroke:#cc0000;stroke-width:0.529167;stroke-linecap:square;stroke-dasharray:none"
           d="m 6.3031111,11.740092 h 1.5866277 m -1.5866277,1 h 1.5866277"
           id="path8"
           transform="translate(4.2643475)" />
      </g>
    </g>
  </g>
</svg>
