<?xml version="1.0" encoding="UTF-8" standalone="no"?>
<svg
   id="svg190"
   xml:space="preserve"
   viewBox="0 0 1693.3333 1693.3333"
   version="1.2"
   preserveAspectRatio="xMidYMid"
   stroke-width="28.222"
   stroke-linejoin="round"
   fill-rule="evenodd"
   height="64"
   width="64"
   xmlns="http://www.w3.org/2000/svg"
   xmlns:svg="http://www.w3.org/2000/svg"
   xmlns:rdf="http://www.w3.org/1999/02/22-rdf-syntax-ns#"
   xmlns:cc="http://creativecommons.org/ns#"
   xmlns:dc="http://purl.org/dc/elements/1.1/"><metadata
   id="metadata194"><rdf:RDF><cc:Work
       rdf:about=""><dc:format>image/svg+xml</dc:format><dc:type
         rdf:resource="http://purl.org/dc/dcmitype/StillImage" /></cc:Work></rdf:RDF></metadata>
 <defs
   id="defs146"
   class="ClipPathGroup">
  <clipPath
   id="presentation_clip_path">
   <rect
   id="rect143"
   height="1693"
   width="1693"
   x="0"
   y="0" />
  </clipPath>
 
         
         
         
         
         
         
         
         
         
         
         
         
         
         
         
         
         
         
         
         
        </defs>
        
<g
   id="g5"
   transform="translate(-52.91665,79.375149)"><path
     style="fill:none;stroke:#302b00;stroke-width:211.667;stroke-linecap:round;stroke-dasharray:none;paint-order:markers fill stroke"
     d="m 1164.1666,1111.25 h 423.3333"
     id="path1" /><path
     style="fill:none;stroke:#edd400;stroke-width:105.833;stroke-linecap:round;stroke-dasharray:none;paint-order:markers fill stroke"
     d="m 1164.1666,1111.2498 423.3333,2e-4"
     id="path4" /><path
     style="fill:none;stroke:#fce94f;stroke-width:52.9167;stroke-linecap:round;stroke-dasharray:none;paint-order:markers fill stroke"
     d="M 1164.1666,1084.7917 H 1587.5"
     id="path5" /></g><g
   id="layer1"
   transform="matrix(0.58696436,0,0,0.58695781,18.97947,336.47984)"
   style="stroke-width:48.0814"><path
     style="fill:none;stroke:#302b00;stroke-width:360.614;stroke-linecap:round;stroke-dasharray:none;paint-order:markers fill stroke"
     d="m 238.12516,1455.2084 h 410.10412 c 0,0 -288.61275,-277.8125 -343.95829,-582.08328 -55.34554,-304.27081 82.12753,-634.99996 542.39579,-634.99996 410.10402,0 565.38622,318.22039 515.93742,634.99996 -49.4487,316.77958 -317.5,582.08328 -317.5,582.08328 h 410.1042"
     id="path7" /><path
     style="fill:none;stroke:#edd400;stroke-width:180.307;stroke-linecap:round;stroke-dasharray:none;paint-order:markers fill stroke"
     d="m 238.12516,1455.2084 h 410.10412 c 0,0 -288.61275,-277.8125 -343.95829,-582.08328 -55.34554,-304.27081 82.12753,-634.99996 542.39579,-634.99996 410.10402,0 565.38622,318.22039 515.93742,634.99996 -49.4487,316.77958 -317.5,582.08328 -317.5,582.08328 h 410.1042"
     id="path9" /><path
     style="fill:none;stroke:#fce94f;stroke-width:90.1534;stroke-linecap:round;stroke-dasharray:none;paint-order:markers fill stroke"
     d="m 211.66665,1428.7499 h 410.10412 c 0,0 -288.61275,-277.8125 -343.95829,-582.08327 -55.34554,-304.27081 82.12753,-634.99996 542.39579,-634.99996 410.10403,0 565.38623,318.22039 515.93743,634.99996 -49.4487,316.77957 -317.5,582.08327 -317.5,582.08327 h 410.1042"
     id="path10" /></g><g
   id="g3"
   transform="matrix(1.0000033,0,0,0.99999322,19.091375,-53.327508)"><path
     style="fill:#fce94f;stroke:#280000;stroke-width:158.75;stroke-linecap:round;stroke-linejoin:round;stroke-dasharray:none"
     d="M 113.20018,1455.629 959.86377,344.37097"
     id="path2" /><path
     style="fill:#fce94f;stroke:#ef2929;stroke-width:52.9167577;stroke-linecap:round;stroke-linejoin:round;stroke-dasharray:none"
     d="M 113.20018,1455.629 959.86377,344.37097"
     id="path6" /></g></svg>
