<?xml version="1.0" encoding="UTF-8" standalone="no"?>
<svg
   id="svg190"
   xml:space="preserve"
   viewBox="0 0 1693.3333 1693.3333"
   version="1.2"
   preserveAspectRatio="xMidYMid"
   stroke-width="28.222"
   stroke-linejoin="round"
   fill-rule="evenodd"
   height="64"
   width="64"
   xmlns="http://www.w3.org/2000/svg"
   xmlns:svg="http://www.w3.org/2000/svg"
   xmlns:rdf="http://www.w3.org/1999/02/22-rdf-syntax-ns#"
   xmlns:cc="http://creativecommons.org/ns#"
   xmlns:dc="http://purl.org/dc/elements/1.1/"><metadata
   id="metadata194"><rdf:RDF><cc:Work
       rdf:about=""><dc:format>image/svg+xml</dc:format><dc:type
         rdf:resource="http://purl.org/dc/dcmitype/StillImage" /></cc:Work></rdf:RDF></metadata>
 <defs
   id="defs146"
   class="ClipPathGroup">
  <clipPath
   id="presentation_clip_path">
   <rect
   id="rect143"
   height="1693"
   width="1693"
   x="0"
   y="0" />
  </clipPath>
 
         
         
         
         
         
         
         
         
         
         
         
         
         
         
         
         
         
         
         
         
        </defs>
        
<g
   id="g3"
   transform="matrix(1.0000032,0,0,0.99999322,19.091375,-53.327509)"><path
     d="m 398.0898,604.9165 q -108.83057,0 -165.10621,59.53125 -55.81054,59.06617 -55.81054,173.94287 0,104.17969 38.13721,179.05888 38.60229,74.8791 120.92285,134.4104 v 68.3679 H 61.831251 v -75.3443 H 231.12324 q -70.22827,-53.9502 -107.4353,-133.9453 -37.207031,-79.99508 -37.207031,-175.3381 0,-143.24707 82.785641,-224.63745 82.78565,-81.39038 228.82325,-81.39038 147.89795,0 230.2185,80.92529 82.32056,80.92529 82.32056,224.17236 0,95.80811 -37.67212,176.26828 -37.20703,80.4602 -106.50513,133.9453 h 168.82691 v 75.3443 H 460.87666 v -68.3679 q 82.32056,-59.0662 120.92285,-134.8755 39.06739,-76.27444 39.06739,-178.59378 0,-114.41162 -56.74073,-173.94287 Q 507.85054,604.9165 398.0898,604.9165 Z m 521.31182,-33.95141 q -17.67334,0 -30.6958,-12.55738 -12.55737,-12.55737 -12.55737,-33.02124 0,-20.46386 12.55737,-33.02124 12.55738,-13.02246 30.6958,-13.02246 18.13843,0 30.69581,13.02246 12.55737,12.55738 12.55737,33.02124 0,20.46387 -13.02246,33.02124 -12.55738,12.55738 -30.23072,12.55738 z m 157.66478,0 q -17.6733,0 -30.6958,-12.55738 -12.5574,-12.55737 -12.5574,-33.02124 0,-20.46386 12.5574,-33.02124 12.5574,-13.02246 30.6958,-13.02246 18.1384,0 30.6958,13.02246 12.5574,12.55738 12.5574,33.02124 0,20.46387 -13.0225,33.02124 -12.5573,12.55738 -30.2307,12.55738 z m 157.6648,0 q -17.6733,0 -30.6958,-12.55738 -12.5574,-12.55737 -12.5574,-33.02124 0,-20.46386 12.5574,-33.02124 12.5574,-13.02246 30.6958,-13.02246 18.1384,0 30.6958,13.02246 12.5574,12.55738 12.5574,33.02124 0,20.46387 -13.0225,33.02124 -12.5573,12.55738 -30.2307,12.55738 z m 157.6648,0 q -17.6733,0 -30.6958,-12.55738 -12.5574,-12.55737 -12.5574,-33.02124 0,-20.46386 12.5574,-33.02124 12.5574,-13.02246 30.6958,-13.02246 18.1384,0 30.6958,13.02246 12.5574,12.55738 12.5574,33.02124 0,20.46387 -13.0225,33.02124 -12.5574,12.55738 -30.2307,12.55738 z m 157.6648,0 q -17.6733,0 -30.6958,-12.55738 -12.5574,-12.55737 -12.5574,-33.02124 0,-20.46386 12.5574,-33.02124 12.5574,-13.02246 30.6958,-13.02246 18.1384,0 30.6958,13.02246 12.5574,12.55738 12.5574,33.02124 0,20.46387 -13.0225,33.02124 -12.5574,12.55738 -30.2307,12.55738 z M 919.40162,1220.2278 q -17.67334,0 -30.6958,-12.5574 -12.55737,-12.5574 -12.55737,-33.0212 0,-20.4639 12.55737,-33.0213 12.55738,-13.0224 30.6958,-13.0224 18.13843,0 30.69581,13.0224 12.55737,12.5574 12.55737,33.0213 0,20.4638 -13.02246,33.0212 -12.55738,12.5574 -30.23072,12.5574 z m 157.66478,0 q -17.6733,0 -30.6958,-12.5574 -12.5574,-12.5574 -12.5574,-33.0212 0,-20.4639 12.5574,-33.0213 12.5574,-13.0224 30.6958,-13.0224 18.1384,0 30.6958,13.0224 12.5574,12.5574 12.5574,33.0213 0,20.4638 -13.0225,33.0212 -12.5573,12.5574 -30.2307,12.5574 z m 157.6648,0 q -17.6733,0 -30.6958,-12.5574 -12.5574,-12.5574 -12.5574,-33.0212 0,-20.4639 12.5574,-33.0213 12.5574,-13.0224 30.6958,-13.0224 18.1384,0 30.6958,13.0224 12.5574,12.5574 12.5574,33.0213 0,20.4638 -13.0225,33.0212 -12.5573,12.5574 -30.2307,12.5574 z m 157.6648,0 q -17.6733,0 -30.6958,-12.5574 -12.5574,-12.5574 -12.5574,-33.0212 0,-20.4639 12.5574,-33.0213 12.5574,-13.0224 30.6958,-13.0224 18.1384,0 30.6958,13.0224 12.5574,12.5574 12.5574,33.0213 0,20.4638 -13.0225,33.0212 -12.5574,12.5574 -30.2307,12.5574 z m 157.6648,0 q -17.6733,0 -30.6958,-12.5574 -12.5574,-12.5574 -12.5574,-33.0212 0,-20.4639 12.5574,-33.0213 12.5574,-13.0224 30.6958,-13.0224 18.1384,0 30.6958,13.0224 12.5574,12.5574 12.5574,33.0213 0,20.4638 -13.0225,33.0212 -12.5574,12.5574 -30.2307,12.5574 z M 919.40162,729.56006 q -17.67334,0 -30.6958,-12.55737 -12.55737,-12.55738 -12.55737,-33.02124 0,-20.46387 12.55737,-33.02124 12.55738,-13.02247 30.6958,-13.02247 18.13843,0 30.69581,13.02247 12.55737,12.55737 12.55737,33.02124 0,20.46386 -13.02246,33.02124 -12.55738,12.55737 -30.23072,12.55737 z m 0,169.29199 q -17.67334,0 -30.6958,-12.55737 -12.55737,-12.55738 -12.55737,-33.02124 0,-20.46387 12.55737,-33.02124 12.55738,-13.02246 30.6958,-13.02246 18.13843,0 30.69581,13.02246 12.55737,12.55737 12.55737,33.02124 0,20.46386 -13.02246,33.02124 -12.55738,12.55737 -30.23072,12.55737 z m 0,168.82695 q -17.67334,0 -30.6958,-12.5574 -12.55737,-12.5574 -12.55737,-33.0213 0,-20.4638 12.55737,-33.0212 12.55738,-13.02246 30.6958,-13.02246 18.13843,0 30.69581,13.02246 12.55737,12.5574 12.55737,33.0212 0,20.4639 -13.02246,33.0213 -12.55738,12.5574 -30.23072,12.5574 z M 1550.0608,729.56006 q -17.6733,0 -30.6958,-12.55737 -12.5574,-12.55738 -12.5574,-33.02124 0,-20.46387 12.5574,-33.02124 12.5574,-13.02247 30.6958,-13.02247 18.1384,0 30.6958,13.02247 12.5574,12.55737 12.5574,33.02124 0,20.46386 -13.0225,33.02124 -12.5574,12.55737 -30.2307,12.55737 z m 0,169.29199 q -17.6733,0 -30.6958,-12.55737 -12.5574,-12.55738 -12.5574,-33.02124 0,-20.46387 12.5574,-33.02124 12.5574,-13.02246 30.6958,-13.02246 18.1384,0 30.6958,13.02246 12.5574,12.55737 12.5574,33.02124 0,20.46386 -13.0225,33.02124 -12.5574,12.55737 -30.2307,12.55737 z m 0,168.82695 q -17.6733,0 -30.6958,-12.5574 -12.5574,-12.5574 -12.5574,-33.0213 0,-20.4638 12.5574,-33.0212 12.5574,-13.02246 30.6958,-13.02246 18.1384,0 30.6958,13.02246 12.5574,12.5574 12.5574,33.0212 0,20.4639 -13.0225,33.0213 -12.5574,12.5574 -30.2307,12.5574 z"
     id="text1"
     style="font-size:952.5px;line-height:0px;text-align:end;letter-spacing:26.4583px;word-spacing:0px;text-anchor:end;display:inline;fill:#fce94f;stroke:#302b00;stroke-width:52.9167;stroke-linecap:square"
     aria-label="Ω⬚" /><path
     style="fill:#fce94f;stroke:#280000;stroke-width:158.75;stroke-linecap:round;stroke-linejoin:round;stroke-dasharray:none"
     d="M 200,1400 699.99999,399.99999"
     id="path2" /><path
     style="fill:#fce94f;stroke:#ef2929;stroke-width:52.9167;stroke-linecap:round;stroke-linejoin:round;stroke-dasharray:none"
     d="M 200,1400 699.99999,399.99999"
     id="path3" /></g></svg>
