<?xml version="1.0" encoding="UTF-8" standalone="no"?>
<!-- Created with Inkscape (http://www.inkscape.org/) -->

<svg
   width="32"
   height="32"
   viewBox="0 0 8.4666665 8.466667"
   version="1.1"
   id="svg1876"
   style="enable-background:new"
   xmlns="http://www.w3.org/2000/svg"
   xmlns:svg="http://www.w3.org/2000/svg"
   xmlns:rdf="http://www.w3.org/1999/02/22-rdf-syntax-ns#"
   xmlns:cc="http://creativecommons.org/ns#"
   xmlns:dc="http://purl.org/dc/elements/1.1/">
  <defs
     id="defs1870">
    <filter
       style="color-interpolation-filters:sRGB"
       id="filter1958"
       x="-5.3122516e-05"
       y="-0.00012252399"
       width="1.0002865"
       height="1.000245">
      <feBlend
         mode="exclusion"
         in2="BackgroundImage"
         id="feBlend1960" />
    </filter>
  </defs>
  <metadata
     id="metadata1873">
    <rdf:RDF>
      <cc:Work
         rdf:about="">
        <dc:format>image/svg+xml</dc:format>
        <dc:type
           rdf:resource="http://purl.org/dc/dcmitype/StillImage" />
        <dc:title />
      </cc:Work>
    </rdf:RDF>
  </metadata>
  <g
     id="layer1"
     transform="translate(0,-288.53332)"
     style="filter:url(#filter1958)">
    <g
       id="g831"
       transform="matrix(0.49815689,0,0,0.49815689,-0.08204816,148.23323)">
      <path
         id="path2706"
         d="m 7.8149067,296.92628 l 0.1230796,-6.30571 l 4.1231757,-3.54695 l 4.984741,-0.0986"
         style="fill:none;stroke:#ffff00;stroke-width:0.80000001;stroke-linecap:butt;stroke-linejoin:miter;stroke-miterlimit:4;stroke-dasharray:none;stroke-opacity:1" />
      <path
         style="fill:none;stroke:#ff0000;stroke-width:0.75;stroke-linecap:butt;stroke-linejoin:miter;stroke-miterlimit:4;stroke-dasharray:none;stroke-opacity:1"
         d="M 0.24223419,286.39509 L 10.49687,286.41955"
         id="path932" />
      <path
         style="fill:none;stroke:#ff0000;stroke-width:0.75;stroke-linecap:butt;stroke-linejoin:miter;stroke-miterlimit:4;stroke-dasharray:none;stroke-opacity:1"
         d="M 2.115221,297.05639 L 2.177806,283.21633"
         id="path934" />
      <path
         style="opacity:1;fill:#ff0000;fill-opacity:1;fill-rule:nonzero;stroke:#ff0000;stroke-width:1;stroke-linecap:square;stroke-linejoin:bevel;stroke-miterlimit:4;stroke-dasharray:none;stroke-dashoffset:0;stroke-opacity:1"
         id="path936"
         d="m -291.32834,-1.8684885 a 0.8976934,0.8976934 0 0 1 0.60352,-1.1158338 a 0.8976934,0.8976934 0 0 1 1.11673,0.6018699 a 0.8976934,0.8976934 0 0 1 -0.60022,1.1176143 a 0.8976934,0.8976934 0 0 1 -1.1185,-0.5985636"
         transform="matrix(0,-1,-1,0,0,0)" />
      <path
         d="m -287.20572,-1.8730938 a 0.8976934,0.8976934 0 0 1 0.60352,-1.1158338 a 0.8976934,0.8976934 0 0 1 1.11673,0.6018699 a 0.8976934,0.8976934 0 0 1 -0.60022,1.1176144 a 0.8976934,0.8976934 0 0 1 -1.1185,-0.5985637"
         id="path938"
         style="opacity:1;fill:#ff0000;fill-opacity:1;fill-rule:nonzero;stroke:#ff0000;stroke-width:1;stroke-linecap:square;stroke-linejoin:bevel;stroke-miterlimit:4;stroke-dasharray:none;stroke-dashoffset:0;stroke-opacity:1"
         transform="matrix(0,-1,-1,0,0,0)" />
      <path
         id="path940"
         d="m 0.24733303,290.42491 l 6.37168997,0.0247"
         style="fill:none;stroke:#ff0000;stroke-width:0.75;stroke-linecap:butt;stroke-linejoin:miter;stroke-miterlimit:4;stroke-dasharray:none;stroke-opacity:1" />
      <path
         style="fill:none;stroke:#2b2200;stroke-width:0.40000001;stroke-linecap:butt;stroke-linejoin:miter;stroke-miterlimit:4;stroke-dasharray:none;stroke-opacity:1"
         d="m 7.1918169,296.92575 l 0.1304988,-6.63714 l 4.3717203,-3.73337 l 5.28522,-0.10382"
         id="path1069" />
      <path
         id="path1071"
         d="m 8.2406889,296.95947 l 0.1178587,-5.99411 l 3.9482784,-3.37167 l 4.773296,-0.0938"
         style="fill:none;stroke:#2b2200;stroke-width:0.40000001;stroke-linecap:butt;stroke-linejoin:miter;stroke-miterlimit:4;stroke-dasharray:none;stroke-opacity:1" />
    </g>
  </g>
</svg>
