<?xml version="1.0" encoding="UTF-8" standalone="no"?>
<svg
   width="64"
   height="64"
   fill-rule="evenodd"
   stroke-linejoin="round"
   stroke-width="28.222"
   preserveAspectRatio="xMidYMid"
   version="1.2"
   viewBox="0 0 1693.3332 1693.3333"
   xml:space="preserve"
   id="svg82"
   xmlns="http://www.w3.org/2000/svg"
   xmlns:svg="http://www.w3.org/2000/svg"><defs
   id="defs59741" />
   <g
   id="g2"
   transform="matrix(1.6946133,0,0,1.7024106,132.4423,130.60123)"
   style="stroke-width:28.22625059;stroke-dasharray:none"><path
     style="color:#000000;fill:#fce94f;fill-opacity:1;stroke:#302b00;stroke-width:31.15480198;stroke-linecap:square;stroke-dasharray:none;stroke-opacity:1"
     d="M 139.30664,60.808594 64.308594,61.193359 64.5,98.691406 C 65.47544,289.07192 90.068844,401.427 139.06055,472.60937 c 48.9917,71.18238 122.68041,90.95647 191.15234,97.12696 68.47193,6.17049 136.50518,3.52965 199.00781,24.53515 62.50263,21.0055 122.38516,63.00294 178.53711,170.5586 l 17.35547,33.24219 66.48438,-34.70899 -17.35547,-33.24414 C 711.24841,609.45837 632.16195,549.74653 553.11133,523.17969 474.06071,496.61284 397.95568,500.53731 336.94336,495.03906 275.93104,489.54081 234.78881,479.41112 200.8418,430.08789 166.89478,380.76466 140.44122,282.01102 139.5,98.308594 Z"
     id="path1" /><path
     d="m 656,746.97497 c 0,-14 4,-29 11,-41 8,-13 18,-24 31,-31 13,-7 28,-11 43,-11 15,0 30,4 43,11 13,7 23,18 31,31 7,12 11,27 11,41 0,15 -4,29 -11,42 -8,13 -18,23 -31,31 -13,7 -28,11 -43,11 -15,0 -30,-4 -43,-11 -13,-8 -23,-18 -31,-31 -7,-13 -11,-27 -11,-42 z"
     fill="none"
     stroke="#2b2200"
     stroke-linejoin="miter"
     stroke-width="32"
     id="path2099"
     style="stroke-width:31.15480198;stroke-dasharray:none;fill:#d3d7cf;stroke:#555753" /><path
     d="m 741,695.12891 c 9.6344,0 19.53756,2.59654 28.23047,7.27734 6.744,3.63139 13.05479,9.96504 19.01172,19.54883 4.1967,7.31515 6.60351,16.32184 6.60351,25.01953 0,8.84151 -2.35725,17.77502 -6.87109,26.42578 -5.12369,8.09263 -11.43964,14.40949 -19.5293,19.53516 -8.50376,4.42193 -18.09616,6.88476 -27.44531,6.88476 -9.34915,0 -18.94155,-2.46283 -27.44531,-6.88476 -8.08966,-5.12567 -14.40561,-11.44253 -19.5293,-19.53516 -4.51384,-8.65076 -6.87109,-17.58427 -6.87109,-26.42578 0,-8.69769 2.40681,-17.70438 6.60351,-25.01953 5.95693,-9.58379 12.26772,-15.91744 19.01172,-19.54883 8.69291,-4.6808 18.59607,-7.27734 28.23047,-7.27734 z"
     fill="none"
     stroke="#2b2200"
     stroke-linejoin="miter"
     stroke-width="32"
     id="path3"
     style="stroke-width:31.15480198;stroke-dasharray:none;fill:#888a85;stroke:#d3d7cf" /><path
     d="M 17,100 C 17,85 21,71 28,58 36,45 46,35 59,27 72,20 87,16 102,16 c 15,0 30,4 43,11 13,8 23,18 31,31 7,13 11,27 11,42 0,14 -4,29 -11,41 -8,13 -18,24 -31,31 -13,7 -28,11 -43,11 C 87,183 72,179 59,172 46,165 36,154 28,141 21,129 17,114 17,100 Z"
     fill="none"
     stroke="#2b2200"
     stroke-linejoin="miter"
     stroke-width="32"
     id="path65"
     style="display:inline;fill:#d3d7cf;stroke-width:31.1548;stroke-dasharray:none;stroke:#555753" /><path
     d="m 102,47.154297 c 9.34915,0 18.94155,2.462828 27.44531,6.884765 8.08966,5.125671 14.40561,11.442528 19.5293,19.535157 4.51384,8.650757 6.87109,17.584272 6.87109,26.425781 0,8.69769 -2.40681,17.70438 -6.60351,25.01953 -5.95693,9.58379 -12.26772,15.91744 -19.01172,19.54883 -8.69291,4.6808 -18.59607,7.27734 -28.23047,7.27734 -9.634402,0 -19.537562,-2.59654 -28.230469,-7.27734 C 67.025529,140.93697 60.714735,134.60332 54.757812,125.01953 50.561113,117.70438 48.154297,108.69769 48.154297,100 c 0,-8.841509 2.357256,-17.775024 6.871094,-26.425781 C 60.149082,65.48159 66.465029,59.164733 74.554687,54.039062 83.058447,49.617125 92.65085,47.154297 102,47.154297 Z"
     fill="none"
     stroke="#2b2200"
     stroke-linejoin="miter"
     stroke-width="32"
     id="path4"
     style="display:inline;fill:#888a85;stroke-width:31.1548;stroke-dasharray:none;stroke:#d3d7cf" /></g><path
   style="font-size:238.125px;line-height:1.2;font-family:osifont;-inkscape-font-specification:osifont;display:inline;fill:#fce94f;stroke:#302b00;stroke-width:52.91666406;stroke-linecap:square;stroke-linejoin:miter;stroke-dasharray:none;enable-background:new"
   d="m 636.15291,698.46328 c -0.40188,97.28455 -96.57515,97.28455 -97.38188,0 v -48.69096 c 0,-65.78686 12.98392,-128.32764 38.95278,-187.6224 25.96848,-59.29473 61.24224,-110.36612 105.8215,-153.21416 44.14649,-42.41502 96.51626,-76.3907 157.10941,-101.92637 60.59317,-25.5357 124.21603,-38.30335 190.86858,-38.30335 65.787,0 129.4096,12.76812 190.8684,38.30335 60.5931,25.10248 112.9628,59.07837 157.1092,101.92637 44.5793,43.28102 79.8532,94.35225 105.8217,153.21416 25.9686,59.72753 38.953,122.26835 38.953,187.6224 v 48.69096 c -0.3992,97.28455 -96.0019,97.28455 -97.3822,0 v -48.69096 c 0,-51.0712 -10.3881,-100.41152 -31.1622,-148.02043 -20.7744,-47.60885 -48.6907,-88.50926 -83.7482,-122.70115 -35.4904,-34.62464 -77.6887,-62.10797 -126.5961,-82.44994 -48.9073,-20.34205 -100.1953,-30.513 -153.8635,-30.513 -54.53425,0 -105.82171,10.17106 -153.86346,30.51296 -48.90757,20.77464 -91.10612,48.25825 -126.59642,82.44998 -35.05735,33.75933 -62.97358,74.65946 -83.74842,122.70119 -20.77467,47.17616 -31.16199,96.51622 -31.16199,148.02047 z"
   id="text2" /></svg>
