<?xml version="1.0" encoding="UTF-8" standalone="no"?>
<!-- Created with Inkscape (http://www.inkscape.org/) -->

<svg
   width="64"
   height="64"
   viewBox="0 0 16.933333 16.933334"
   version="1.1"
   id="svg1760"
   xmlns:xlink="http://www.w3.org/1999/xlink"
   xmlns="http://www.w3.org/2000/svg"
   xmlns:svg="http://www.w3.org/2000/svg"
   xmlns:rdf="http://www.w3.org/1999/02/22-rdf-syntax-ns#"
   xmlns:cc="http://creativecommons.org/ns#"
   xmlns:dc="http://purl.org/dc/elements/1.1/">
  <defs
     id="defs1754">
    <rect
       x="9.8840511"
       y="20.191704"
       width="26.545737"
       height="23.862923"
       id="rect1" />
    <linearGradient
       xlink:href="#linearGradient6"
       id="linearGradient2"
       x1="4.4678578"
       y1="282.99539"
       x2="14.767755"
       y2="292.10928"
       gradientUnits="userSpaceOnUse" />
    <linearGradient
       id="linearGradient6">
      <stop
         style="stop-color:#888a85;stop-opacity:1;"
         offset="0"
         id="stop6" />
      <stop
         style="stop-color:#d3d7cf;stop-opacity:1"
         offset="1"
         id="stop7" />
    </linearGradient>
  </defs>
  <metadata
     id="metadata1757">
    <rdf:RDF>
      <cc:Work
         rdf:about="">
        <dc:format>image/svg+xml</dc:format>
        <dc:type
           rdf:resource="http://purl.org/dc/dcmitype/StillImage" />
      </cc:Work>
    </rdf:RDF>
  </metadata>
  <g
     id="g14"
     transform="matrix(0.79046921,0,0,1.009346,-0.05075086,-0.03566232)"
     style="display:none">
    <path
       style="font-size:8.46667px;line-height:0px;text-align:end;letter-spacing:0px;word-spacing:0px;text-anchor:end;fill:#729fcf;stroke:#0b1521;stroke-width:0.592425;stroke-linecap:round;stroke-dasharray:none"
       d="M 20.397595,5.3120798 18.19516,11.535124 h -0.975808 l 2.206485,-6.2230442 z"
       id="path15" />
    <path
       style="font-size:8.46667px;line-height:0px;text-align:end;letter-spacing:0px;word-spacing:0px;text-anchor:end;fill:#729fcf;stroke:#0b1521;stroke-width:0.592466;stroke-linecap:round;stroke-dasharray:none"
       d="m 15.087977,8.9137698 2e-6,-0.980335 h 2.085266 v 0.980335 z"
       id="path16" />
    <path
       style="font-size:8.46667px;line-height:0px;text-align:end;letter-spacing:0px;word-spacing:0px;text-anchor:end;fill:#729fcf;stroke:#0b1521;stroke-width:0.592397;stroke-linecap:round;stroke-dasharray:none"
       d="m 7.3894552,8.9138033 v -0.980403 h 6.7713728 v 0.980403 z"
       id="path10" />
    <path
       style="font-size:8.46667px;line-height:0px;text-align:end;letter-spacing:0px;word-spacing:0px;text-anchor:end;fill:#729fcf;stroke:#0b1521;stroke-width:0.592466;stroke-linecap:round;stroke-dasharray:none"
       d="m 4.377039,8.9137698 2.4e-6,-0.980335 h 2.0852647 v 0.980335 z"
       id="path9" />
    <path
       style="font-size:8.46667px;line-height:0px;text-align:end;letter-spacing:0px;word-spacing:0px;text-anchor:end;fill:#729fcf;stroke:#0b1521;stroke-width:0.592425;stroke-linecap:round;stroke-dasharray:none"
       d="M 4.3311885,5.3120799 2.1287525,11.535124 H 1.1529446 L 3.3594305,5.3120799 Z"
       id="text4" />
  </g>
  <g
     id="layer1"
     style="display:none">
    <path
       style="fill:none;stroke:#0b1521;stroke-width:1.5875;stroke-linecap:round;stroke-dasharray:none"
       d="M 5.290966,2.9104167 1.4908096,8.4666667 5.290966,14.022917"
       id="path1" />
    <path
       style="fill:none;stroke:#0b1521;stroke-width:1.58749;stroke-linecap:round;stroke-dasharray:none"
       d="m 11.642453,2.9104093 3.80008,5.5562574 -3.80008,5.5562573"
       id="path2" />
    <path
       style="fill:none;stroke:#0b1521;stroke-width:1.5875;stroke-linecap:round;stroke-dasharray:none"
       d="M 3.7041667,8.4666669 H 13.229167"
       id="path4" />
    <path
       style="fill:none;stroke:#729fcf;stroke-width:0.529167;stroke-linecap:round;stroke-dasharray:none"
       d="M 5.290966,2.9104167 1.4908096,8.4666667 5.290966,14.022917"
       id="path5" />
    <path
       style="fill:none;stroke:#729fcf;stroke-width:0.529167;stroke-linecap:round;stroke-dasharray:none"
       d="m 11.642453,2.9104093 3.80008,5.5562574 -3.80008,5.5562573"
       id="path6" />
    <path
       style="fill:none;stroke:#729fcf;stroke-width:0.529167;stroke-linecap:round;stroke-dasharray:none"
       d="M 3.7041667,8.4666669 H 13.229167"
       id="path7" />
  </g>
  <g
     id="layer2"
     style="display:none">
    <path
       style="fill:none;stroke:#0b1521;stroke-width:1.5875;stroke-linecap:round;stroke-dasharray:none"
       d="m 11.641667,2.1166667 h 3.175 v 3.175"
       id="path3" />
    <path
       style="fill:none;stroke:#0b1521;stroke-width:1.5875;stroke-linecap:round;stroke-dasharray:none"
       d="m 5.2916667,14.816667 h -3.175 v -3.175"
       id="path8" />
    <path
       style="display:inline;fill:none;stroke:#0b1521;stroke-width:1.5875;stroke-linecap:round;stroke-dasharray:none"
       d="M 2.1166667,14.816667 14.816667,2.1166667"
       id="path11" />
    <path
       style="fill:none;stroke:#729fcf;stroke-width:0.529167;stroke-linecap:round;stroke-dasharray:none"
       d="m 11.641667,2.1166667 h 3.175 v 3.175"
       id="path17" />
    <path
       style="fill:none;stroke:#729fcf;stroke-width:0.529167;stroke-linecap:round;stroke-dasharray:none"
       d="m 5.2916667,14.816667 h -3.175 v -3.175"
       id="path18" />
    <path
       style="display:inline;fill:none;stroke:#729fcf;stroke-width:0.529167;stroke-linecap:round;stroke-dasharray:none"
       d="M 2.1166667,14.816667 14.816667,2.1166667"
       id="path19" />
  </g>
  <g
     id="g59">
    <path
       style="display:inline;fill:none;stroke:#555753;stroke-width:0.529275;stroke-linecap:square;stroke-dasharray:none"
       d="m 1.5875,8.7312501 0.2620635,10e-7 m 1.0875635,4.3e-6 0.2620635,10e-7 m 1.0875635,4.3e-6 0.2620635,1.1e-6 m 1.0875635,4.3e-6 0.2620635,1e-6 m 1.0875635,4.3e-6 0.2620635,10e-7 m 1.0875635,4.3e-6 0.2620635,10e-7 m 1.0875635,4.3e-6 0.2620635,10e-7 m 1.0875635,4.3e-6 0.262063,10e-7 m 1.087564,4.3e-6 0.262063,1.1e-6 m 1.087564,4.3e-6 0.262063,10e-7 m 1.087564,4.3e-6 0.262063,10e-7"
       id="path53" />
    <path
       style="display:inline;fill:none;stroke:#d3d7cf;stroke-width:0.529275;stroke-linecap:square;stroke-dasharray:none"
       d="m 1.5875,8.2021386 0.2620635,0 m 1.0875635,-10e-8 0.2620635,0 m 1.0875635,-10e-8 0.2620635,0 m 1.0875635,-1e-7 0.2620635,0 m 1.0875635,-10e-8 0.2620635,0 m 1.0875635,-10e-8 0.2620635,0 m 1.0875635,-1e-7 0.2620635,0 m 1.0875635,-10e-8 0.262063,0 m 1.087564,-1e-7 0.262063,0 m 1.087564,-10e-8 0.262063,0 m 1.087564,-10e-8 0.262063,0"
       id="path83" />
    <path
       style="fill:none;stroke:#0b1521;stroke-width:0.529167;stroke-linecap:square;stroke-dasharray:none"
       d="m 6.6145821,8.731254 3.7041699,-3.6e-6"
       id="path59" />
    <path
       style="fill:none;stroke:#729fcf;stroke-width:0.529167;stroke-linecap:square;stroke-dasharray:none"
       d="m 6.6145821,8.2020873 3.7041699,-3.6e-6"
       id="path64" />
    <g
       id="g56"
       transform="matrix(-1.0000201,0,0,0.99999666,15.843975,2.8082798e-5)">
      <path
         style="fill:none;stroke:#729fcf;stroke-width:0.529167;stroke-linecap:square;stroke-dasharray:none"
         d="M 2.3812899,6.8791667 0.62392726,8.4666693 2.3812899,10.054167"
         id="path56" />
      <path
         style="fill:none;stroke:#0b1521;stroke-width:0.529167;stroke-linecap:square;stroke-dasharray:none"
         d="M 2.0265742,6.486497 -0.16547372,8.4666699 2.0265748,10.446837"
         id="path65" />
    </g>
    <g
       id="g67"
       transform="matrix(1.0000002,0,0,0.99999838,1.0893517,1.3556086e-5)">
      <path
         style="fill:none;stroke:#729fcf;stroke-width:0.529167;stroke-linecap:square;stroke-dasharray:none"
         d="M 2.3812899,6.8791667 0.62392726,8.4666693 2.3812899,10.054167"
         id="path66" />
      <path
         style="fill:none;stroke:#0b1521;stroke-width:0.529167;stroke-linecap:square;stroke-dasharray:none"
         d="M 2.026571,6.4864935 -0.1654809,8.4666699 2.0265716,10.446841"
         id="path67" />
    </g>
  </g>
</svg>
