<?xml version="1.0" encoding="UTF-8" standalone="no"?>
<!-- Created with Inkscape (http://www.inkscape.org/) -->

<svg
   width="64"
   height="64"
   viewBox="0 0 16.933333 16.933334"
   version="1.1"
   id="svg1876"
   style="enable-background:new"
   xmlns="http://www.w3.org/2000/svg"
   xmlns:svg="http://www.w3.org/2000/svg"
   xmlns:rdf="http://www.w3.org/1999/02/22-rdf-syntax-ns#"
   xmlns:cc="http://creativecommons.org/ns#"
   xmlns:dc="http://purl.org/dc/elements/1.1/">
  <defs
     id="defs1870">
    <filter
       style="color-interpolation-filters:sRGB"
       id="filter1958"
       x="-0.011763041"
       y="-0.010092385"
       width="1.0235027"
       height="1.0212923">
      <feBlend
         mode="exclusion"
         in2="BackgroundImage"
         id="feBlend1960" />
    </filter>
  </defs>
  <metadata
     id="metadata1873">
    <rdf:RDF>
      <cc:Work
         rdf:about="">
        <dc:format>image/svg+xml</dc:format>
        <dc:type
           rdf:resource="http://purl.org/dc/dcmitype/StillImage" />
      </cc:Work>
    </rdf:RDF>
  </metadata>
  <g
     id="layer1"
     transform="matrix(1.7853625,0,0,1.7076587,0.89923267,-491.44289)"
     style="display:none;filter:url(#filter1958)">
    <g
       id="g844"
       transform="matrix(0.50602245,-0.59108638,0.56200138,0.5322104,-158.27536,139.95086)">
      <g
         id="g859"
         transform="matrix(0.48824831,0.06389969,-0.05590778,0.48211057,12.766453,148.60862)">
        <path
           style="fill:none;stroke:#ff0000;stroke-width:0.65;stroke-linecap:butt;stroke-linejoin:miter;stroke-miterlimit:4;stroke-dasharray:none;stroke-opacity:1"
           d="M 2.2713905,296.79631 2.2471277,280.19178"
           id="path2201" />
        <path
           id="path2291"
           d="M 0.3822571,289.77842 12.90933,289.71492"
           style="fill:none;stroke:#ff0000;stroke-width:0.65;stroke-linecap:butt;stroke-linejoin:miter;stroke-miterlimit:4;stroke-dasharray:none;stroke-opacity:1" />
        <path
           style="fill:none;stroke:#ff0000;stroke-width:0.65;stroke-linecap:butt;stroke-linejoin:miter;stroke-miterlimit:4;stroke-dasharray:none;stroke-opacity:1"
           d="M 0.42072031,295.16414 15.327713,295.10144"
           id="path2408" />
        <path
           style="opacity:1;fill:#ff0000;fill-opacity:1;fill-rule:nonzero;stroke:#ff0000;stroke-width:0.5;stroke-linecap:square;stroke-linejoin:bevel;stroke-miterlimit:4;stroke-dasharray:none;stroke-dashoffset:0;stroke-opacity:1"
           id="path2410"
           d="m 1.4073528,290.02689 a 0.8976934,0.8976934 0 0 1 0.6035211,-1.11583 0.8976934,0.8976934 0 0 1 1.1167253,0.60186 0.8976934,0.8976934 0 0 1 -0.6002174,1.11762 0.8976934,0.8976934 0 0 1 -1.118501,-0.59856" />
        <path
           d="m 1.360107,284.7825 a 0.8976934,0.8976934 0 0 1 0.6035211,-1.11583 0.8976934,0.8976934 0 0 1 1.1167254,0.60187 0.8976934,0.8976934 0 0 1 -0.6002175,1.11761 0.8976934,0.8976934 0 0 1 -1.1185009,-0.59856"
           id="path2448"
           style="opacity:1;fill:#ff0000;fill-opacity:1;fill-rule:nonzero;stroke:#ff0000;stroke-width:0.5;stroke-linecap:square;stroke-linejoin:bevel;stroke-miterlimit:4;stroke-dasharray:none;stroke-dashoffset:0;stroke-opacity:1" />
        <path
           d="m 1.3601068,295.36582 a 0.8976934,0.8976934 0 0 1 0.6035211,-1.11584 0.8976934,0.8976934 0 0 1 1.1167253,0.60187 0.8976934,0.8976934 0 0 1 -0.6002174,1.11762 0.8976934,0.8976934 0 0 1 -1.118501,-0.59857"
           id="path2450"
           style="opacity:1;fill:#ff0000;fill-opacity:1;fill-rule:nonzero;stroke:#ff0000;stroke-width:0.5;stroke-linecap:square;stroke-linejoin:bevel;stroke-miterlimit:4;stroke-dasharray:none;stroke-dashoffset:0;stroke-opacity:1" />
        <path
           style="fill:none;stroke:#ff0000;stroke-width:0.65;stroke-linecap:butt;stroke-linejoin:miter;stroke-miterlimit:4;stroke-dasharray:none;stroke-opacity:1"
           d="m 0.39600556,284.53485 8.71981464,-0.0652"
           id="path2454" />
        <path
           d="m 11.092993,289.93241 a 0.8976934,0.8976934 0 0 1 0.603521,-1.11584 0.8976934,0.8976934 0 0 1 1.116725,0.60187 0.8976934,0.8976934 0 0 1 -0.600217,1.11762 0.8976934,0.8976934 0 0 1 -1.118501,-0.59857"
           id="path823"
           style="opacity:1;fill:#ff0000;fill-opacity:1;fill-rule:nonzero;stroke:#ff0000;stroke-width:0.5;stroke-linecap:square;stroke-linejoin:bevel;stroke-miterlimit:4;stroke-dasharray:none;stroke-dashoffset:0;stroke-opacity:1" />
        <path
           style="opacity:1;fill:#ff0000;fill-opacity:1;fill-rule:nonzero;stroke:#ff0000;stroke-width:0.5;stroke-linecap:square;stroke-linejoin:bevel;stroke-miterlimit:4;stroke-dasharray:none;stroke-dashoffset:0;stroke-opacity:1"
           id="path825"
           d="m 8.0219372,284.64075 a 0.8976934,0.8976934 0 0 1 0.6035211,-1.11583 0.8976934,0.8976934 0 0 1 1.1167254,0.60187 0.8976934,0.8976934 0 0 1 -0.6002175,1.11761 0.8976934,0.8976934 0 0 1 -1.118501,-0.59856" />
        <path
           style="opacity:1;fill:#ff0000;fill-opacity:1;fill-rule:nonzero;stroke:#ff0000;stroke-width:0.5;stroke-linecap:square;stroke-linejoin:bevel;stroke-miterlimit:4;stroke-dasharray:none;stroke-dashoffset:0;stroke-opacity:1"
           id="path827"
           d="m 14.825509,295.31858 a 0.8976934,0.8976934 0 0 1 0.603521,-1.11584 0.8976934,0.8976934 0 0 1 1.116725,0.60187 0.8976934,0.8976934 0 0 1 -0.600217,1.11762 0.8976934,0.8976934 0 0 1 -1.118501,-0.59857" />
        <path
           id="path838"
           d="m 8.8806143,280.0511 0.066073,6.11472"
           style="fill:none;stroke:#ff0000;stroke-width:0.547944;stroke-linecap:butt;stroke-linejoin:miter;stroke-miterlimit:4;stroke-dasharray:none;stroke-opacity:1" />
        <path
           style="fill:none;stroke:#ff0000;stroke-width:0.620799;stroke-linecap:butt;stroke-linejoin:miter;stroke-miterlimit:4;stroke-dasharray:none;stroke-opacity:1"
           d="m 12.000105,280.03501 0.0637,11.39133"
           id="path842" />
        <path
           id="path844"
           d="m 15.638729,280.11868 0.06249,16.56282"
           style="fill:none;stroke:#ff0000;stroke-width:0.65;stroke-linecap:butt;stroke-linejoin:miter;stroke-miterlimit:4;stroke-dasharray:none;stroke-opacity:1" />
      </g>
    </g>
  </g>
  <g
     id="layer3"
     transform="matrix(0.51880708,-0.53714232,0.51880708,0.53714232,5.0684509,12.225067)">
    <path
       d="M 0.2010735,-6.8870558 V 5.8552137 h 1.074285 V -6.8870558 Z"
       style="display:inline;fill:#d3d7cf;stroke:#babdb6;stroke-width:0.70881002;enable-background:new;stroke-dasharray:none"
       id="path6" />
    <path
       d="M 0.4736039,-7.14375 V 5.5986277 H 1.0027706 V -7.14375 Z"
       style="display:inline;fill:#555753;stroke:none;stroke-width:0.70881002;stroke-dasharray:none;enable-background:new"
       id="path5" />
    <rect
       style="fill:#fce94f;stroke:#302b00;stroke-width:0.70881002;stroke-linejoin:round;stroke-dasharray:none;stroke-opacity:1;enable-background:new"
       id="rect6"
       width="1.0583334"
       height="13.744959"
       x="12.003616"
       y="-6.876256" />
    <rect
       style="fill:#fce94f;stroke:none;stroke-width:0.70881;stroke-linejoin:round;stroke-dasharray:none;stroke-opacity:1;enable-background:new"
       id="rect3"
       width="0.54663885"
       height="13.840177"
       x="12.250727"
       y="-7.2360587" />
    <rect
       style="fill:#fce94f;stroke:#302b00;stroke-width:0.70881002;stroke-linejoin:round;stroke-dasharray:none;stroke-opacity:1;enable-background:new"
       id="rect7"
       width="1.0583334"
       height="9.5481329"
       x="9.052454"
       y="-6.876256" />
    <rect
       style="fill:#fce94f;stroke:none;stroke-width:0.70881;stroke-linejoin:round;stroke-dasharray:none;stroke-opacity:1;enable-background:new"
       id="rect2"
       width="0.55066353"
       height="9.6473742"
       x="9.2955389"
       y="-7.2400832" />
    <rect
       style="fill:#fce94f;stroke:#302b00;stroke-width:0.70881002;stroke-linejoin:round;stroke-dasharray:none;stroke-opacity:1;enable-background:new"
       id="rect9"
       width="1.0587093"
       height="5.079114"
       x="6.2301898"
       y="-6.8764439" />
    <rect
       style="fill:#fce94f;stroke:none;stroke-width:0.70881;stroke-linejoin:round;stroke-dasharray:none;stroke-opacity:1;enable-background:new"
       id="rect1"
       width="0.55871356"
       height="5.1864071"
       x="6.4651799"
       y="-7.2481327" />
    <rect
       style="fill:#fce94f;stroke:#302b00;stroke-width:0.70881002;stroke-linejoin:round;stroke-dasharray:none;stroke-opacity:1;enable-background:new"
       id="rect10"
       width="1.0583334"
       height="12.106468"
       x="-5.5797982"
       y="0.72076035"
       transform="rotate(-90)" />
    <rect
       style="fill:#fce94f;stroke:#302b00;stroke-width:0.70881002;stroke-linejoin:round;stroke-dasharray:none;stroke-opacity:1;enable-background:new"
       id="rect11"
       width="1.0583334"
       height="9.1397543"
       x="-1.2247565"
       y="0.6921916"
       transform="rotate(-90)" />
    <rect
       style="fill:#fce94f;stroke:#302b00;stroke-width:0.70881002;stroke-linejoin:round;stroke-dasharray:none;stroke-opacity:1;enable-background:new"
       id="rect12"
       width="1.0583334"
       height="6.6220021"
       x="3.2205026"
       y="0.65960097"
       transform="rotate(-90)" />
    <g
       id="g7"
       style="enable-background:new"
       transform="translate(-1.719792,-8.4637563)">
      <circle
         style="fill:#fce94f;stroke:#302b00;stroke-width:0.70881002;stroke-dasharray:none"
         id="path3"
         cx="14.24596"
         cy="13.518621"
         r="1.0583334" />
      <path
         style="fill:#c4a000;stroke:#fce94f;stroke-width:0.70881002;stroke-dasharray:none"
         id="circle3"
         d="m 14.21875,12.990234 h 0.02734 c 0.289417,0 0.529297,0.23988 0.529297,0.529297 0,0.289418 -0.238664,0.527344 -0.529297,0.527344 -0.290634,0 -0.529297,-0.237926 -0.529297,-0.527344 0,-0.280508 0.228874,-0.515454 0.501953,-0.529297 z" />
    </g>
    <g
       id="g6"
       transform="translate(-4.6762457,-12.788636)"
       style="enable-background:new">
      <circle
         style="fill:#fce94f;stroke:#302b00;stroke-width:0.70881002;stroke-dasharray:none"
         id="circle4"
         cx="14.24596"
         cy="13.518621"
         r="1.0583334" />
      <path
         style="fill:#c4a000;stroke:#fce94f;stroke-width:0.70881002;stroke-dasharray:none"
         id="path4"
         d="m 14.21875,12.990234 h 0.02734 c 0.289417,0 0.529297,0.23988 0.529297,0.529297 0,0.289418 -0.238664,0.527344 -0.529297,0.527344 -0.290634,0 -0.529297,-0.237926 -0.529297,-0.527344 0,-0.280508 0.228874,-0.515454 0.501953,-0.529297 z" />
    </g>
    <g
       id="g11"
       transform="translate(-7.4480207,-17.307455)"
       style="display:inline;enable-background:new">
      <circle
         style="fill:#fce94f;stroke:#302b00;stroke-width:0.70881002;stroke-dasharray:none"
         id="circle11"
         cx="14.24596"
         cy="13.518621"
         r="1.0583334" />
      <path
         style="fill:#c4a000;stroke:#fce94f;stroke-width:0.70881002;stroke-dasharray:none"
         id="path11"
         d="m 14.21875,12.990234 h 0.02734 c 0.289417,0 0.529297,0.23988 0.529297,0.529297 0,0.289418 -0.238664,0.527344 -0.529297,0.527344 -0.290634,0 -0.529297,-0.237926 -0.529297,-0.527344 0,-0.280508 0.228874,-0.515454 0.501953,-0.529297 z" />
    </g>
    <g
       id="g15"
       transform="translate(-13.45221,-17.307455)"
       style="display:inline;stroke-width:0.529167;stroke-dasharray:none;enable-background:new">
      <circle
         style="fill:#d3d7cf;stroke:#555753;stroke-width:0.70881002;stroke-dasharray:none"
         id="circle15"
         cx="14.24596"
         cy="13.518621"
         r="1.0583334" />
      <path
         style="fill:#888a85;stroke:#d3d7cf;stroke-width:0.70881002;stroke-dasharray:none"
         id="path15"
         d="m 14.21875,12.990234 h 0.02734 c 0.289417,0 0.529297,0.23988 0.529297,0.529297 0,0.289418 -0.238664,0.527344 -0.529297,0.527344 -0.290634,0 -0.529297,-0.237926 -0.529297,-0.527344 0,-0.280508 0.228874,-0.515454 0.501953,-0.529297 z" />
    </g>
    <g
       id="g17"
       transform="translate(-13.45221,-12.788636)"
       style="enable-background:new">
      <circle
         style="fill:#d3d7cf;stroke:#555753;stroke-width:0.70881002;stroke-dasharray:none"
         id="circle17"
         cx="14.24596"
         cy="13.518621"
         r="1.0583334" />
      <path
         style="fill:#888a85;stroke:#d3d7cf;stroke-width:0.70881002;stroke-dasharray:none"
         id="path17"
         d="m 14.21875,12.990234 h 0.02734 c 0.289417,0 0.529297,0.23988 0.529297,0.529297 0,0.289418 -0.238664,0.527344 -0.529297,0.527344 -0.290634,0 -0.529297,-0.237926 -0.529297,-0.527344 0,-0.280508 0.228874,-0.515454 0.501953,-0.529297 z" />
    </g>
    <g
       id="g19"
       transform="translate(-13.45221,-8.4637563)"
       style="display:inline;enable-background:new">
      <circle
         style="fill:#d3d7cf;stroke:#555753;stroke-width:0.70881002;stroke-dasharray:none"
         id="circle19"
         cx="14.24596"
         cy="13.518621"
         r="1.0583334" />
      <path
         style="fill:#888a85;stroke:#d3d7cf;stroke-width:0.70881002;stroke-dasharray:none"
         id="path19"
         d="m 14.21875,12.990234 h 0.02734 c 0.289417,0 0.529297,0.23988 0.529297,0.529297 0,0.289418 -0.238664,0.527344 -0.529297,0.527344 -0.290634,0 -0.529297,-0.237926 -0.529297,-0.527344 0,-0.280508 0.228874,-0.515454 0.501953,-0.529297 z" />
    </g>
  </g>
</svg>
