<?xml version="1.0" encoding="UTF-8" standalone="no"?>
<!-- Created with Inkscape (http://www.inkscape.org/) -->

<svg
   width="64"
   height="64"
   viewBox="0 0 16.933333 16.933334"
   version="1.1"
   id="svg2442"
   xmlns="http://www.w3.org/2000/svg"
   xmlns:svg="http://www.w3.org/2000/svg"
   xmlns:rdf="http://www.w3.org/1999/02/22-rdf-syntax-ns#"
   xmlns:cc="http://creativecommons.org/ns#"
   xmlns:dc="http://purl.org/dc/elements/1.1/">
  <defs
     id="defs2436" />
  <metadata
     id="metadata2439">
    <rdf:RDF>
      <cc:Work
         rdf:about="">
        <dc:format>image/svg+xml</dc:format>
        <dc:type
           rdf:resource="http://purl.org/dc/dcmitype/StillImage" />
      </cc:Work>
    </rdf:RDF>
  </metadata>
  <g
     id="layer1">
    <g
       id="g1"
       transform="matrix(1.7156326,0,0,1.6967698,1.2039374,1.2849548)">
      <path
         d="m 0.53457209,3.2713632 c 0,-0.804603 0.0317829,-1.2736336 0.56494061,-1.8546325 C 1.6326707,0.83573188 2.9910269,1.061404 2.9910269,1.061404"
         id="path2467"
         style="display:inline;opacity:1;fill:none;fill-opacity:1;fill-rule:nonzero;stroke:#34e0e2;stroke-width:0.930444;stroke-linecap:square;stroke-linejoin:miter;stroke-miterlimit:4;stroke-dasharray:none;stroke-dashoffset:20.8819;stroke-opacity:1" />
      <path
         d="m 0.53457209,3.2713632 c 0,-0.804603 0.0317829,-1.2736336 0.56494061,-1.8546325 C 1.6326707,0.83573188 2.9910269,1.061404 2.9910269,1.061404"
         id="path1"
         style="display:inline;opacity:1;fill:none;fill-opacity:1;fill-rule:nonzero;stroke:#042a2a;stroke-width:0.31014792;stroke-linecap:square;stroke-linejoin:miter;stroke-miterlimit:4;stroke-dasharray:none;stroke-dashoffset:20.8819;stroke-opacity:1" />
      <path
         d="M 2.4070232,1.0602215 2.3982733,0.27386785 3.3203524,0.66142261 4.2424314,1.0489774 3.3291024,1.4477762 2.4157733,1.846578 Z"
         id="path2471"
         style="display:inline;opacity:1;fill:#34e0e2;fill-opacity:1;fill-rule:nonzero;stroke:#042a2a;stroke-width:0.332634;stroke-linecap:square;stroke-linejoin:miter;stroke-miterlimit:4;stroke-dasharray:none;stroke-dashoffset:20.8819;stroke-opacity:1" />
      <g
         id="g4"
         transform="matrix(1.0000102,0,0,0.99999099,3.7324059,4.7062323)"
         style="stroke-width:1">
        <path
           d="m 4.1995112,0.48759503 c 0,0.80460297 -0.031783,1.27363357 -0.5649406,1.85463247 -0.533158,0.5809989 -1.8915142,0.3553267 -1.8915142,0.3553267"
           id="path2"
           style="display:inline;opacity:1;fill:none;fill-opacity:1;fill-rule:nonzero;stroke:#042a2a;stroke-width:0.930443;stroke-linecap:square;stroke-linejoin:miter;stroke-miterlimit:4;stroke-dasharray:none;stroke-dashoffset:20.8819;stroke-opacity:1" />
        <path
           d="m 4.1995112,0.48759503 c 0,0.80460297 -0.031783,1.27363357 -0.5649406,1.85463247 -0.533158,0.5809989 -1.8915142,0.3553267 -1.8915142,0.3553267"
           id="path3"
           style="display:inline;opacity:1;fill:none;fill-opacity:1;fill-rule:nonzero;stroke:#34e0e2;stroke-width:0.310147;stroke-linecap:square;stroke-linejoin:miter;stroke-miterlimit:4;stroke-dasharray:none;stroke-dashoffset:20.8819;stroke-opacity:1" />
        <path
           d="M 2.3270601,2.6987367 2.33581,3.4850904 1.4137309,3.0975356 0.49165189,2.7099808 1.4049809,2.311182 2.31831,1.9123802 Z"
           id="path4"
           style="display:inline;opacity:1;fill:#042a2a;fill-opacity:1;fill-rule:nonzero;stroke:#34e0e2;stroke-width:0.332633;stroke-linecap:square;stroke-linejoin:miter;stroke-miterlimit:4;stroke-dasharray:none;stroke-dashoffset:20.8819;stroke-opacity:1" />
      </g>
    </g>
    <g
       id="g35"
       transform="matrix(0.06862608,0,0,0.0686263,7.0175856,1.931298)">
      <path
         style="color:#000000;display:inline;fill:none;stroke:#042a2a;stroke-width:23.1326;stroke-linecap:round;stroke-linejoin:round;stroke-dasharray:none;stroke-opacity:1"
         d="m 113.55053,56.229834 c 0.0363,-9.83311 0.0696,-19.666241 0.0955,-29.499381 -10e-4,-13.328566 -12.7596,-24.0292965 -28.356699,-24.0292965 l -0.002,-6e-6 c -15.597871,0 -28.354745,10.7018135 -28.354745,24.0312495 0.03,9.832532 0.136696,29.497434 0.136696,29.497434"
         id="path33" />
      <path
         style="color:#000000;display:inline;fill:none;stroke:#34e0e2;stroke-width:7.71084;stroke-linecap:round;stroke-linejoin:round;stroke-dasharray:none;stroke-opacity:1"
         d="m 113.55053,56.229834 c 0.0363,-9.83311 0.0696,-19.666241 0.0955,-29.499381 -10e-4,-13.328566 -12.7596,-24.0292965 -28.356699,-24.0292965 l -0.002,-6e-6 c -15.597871,0 -28.354745,10.7018135 -28.354745,24.0312495 0.03,9.832532 0.136696,29.497434 0.136696,29.497434"
         id="path8" />
      <path
         style="display:inline;fill:#34e0e2;stroke:#042a2a;stroke-width:7.71084;stroke-linecap:round;stroke-linejoin:round;stroke-dasharray:none"
         d="m 9.8564876,48.1457 c -0.170188,0 -0.3072,0.137011 -0.3072,0.3072 v 61.3929 c 0,0.17019 0.137012,0.3072 0.3072,0.3072 H 95.297988 c 0.170189,0 0.3072,-0.13701 0.3072,-0.3072 V 48.4529 c 0,-0.170189 -0.137011,-0.3072 -0.3072,-0.3072 z"
         id="path35" />
      <path
         d="m 52.577329,58.604748 c -0.3909,0 -0.780472,0.0192 -1.167969,0.05859 -0.382892,0.03892 -0.762409,0.09677 -1.138672,0.173829 -0.369475,0.07567 -0.739109,0.169784 -1.103516,0.283203 -3.591396,1.117788 -6.42525,3.952395 -7.542968,7.542968 -0.112064,0.359998 -0.206582,0.727494 -0.283204,1.101563 -0.0771,0.376413 -0.134927,0.756088 -0.173828,1.138672 -0.03946,0.388057 -0.05859,0.780552 -0.05859,1.169922 0,0.634782 0.05124,1.260171 0.152343,1.873047 0.102152,0.619212 0.2533,1.212992 0.445313,1.783203 0.189631,0.56314 0.424773,1.120366 0.708984,1.662109 0.277906,0.529725 0.595532,1.035505 0.949219,1.511719 0.360298,0.485115 0.753228,0.929343 1.166016,1.335937 0.419309,0.41302 0.872433,0.797003 1.355468,1.144532 0.03106,0.02235 0.06439,0.04239 0.0957,0.06445 l -3.597656,20.910158 20.587891,-0.082 -4.425781,-20.408196 c 3.310743,-2.016194 5.501125,-5.650552 5.5,-9.794922 0,-0.38937 -0.01914,-0.781865 -0.05859,-1.169922 -0.0389,-0.382584 -0.09672,-0.762259 -0.173828,-1.138672 -0.07662,-0.374063 -0.171136,-0.741555 -0.283203,-1.101563 -1.117829,-3.590942 -3.952018,-6.425134 -7.542969,-7.542968 -0.364244,-0.113386 -0.734798,-0.207676 -1.103516,-0.283203 -0.376411,-0.0771 -0.756085,-0.134928 -1.138672,-0.173829 -0.387643,-0.03941 -0.777101,-0.05859 -1.167968,-0.05859 z"
         style="display:inline;fill:#042a2a;stroke:#06989a;stroke-width:7.71084;stroke-linecap:round;stroke-linejoin:round;stroke-dasharray:none"
         id="path34" />
    </g>
    <g
       id="g13"
       transform="matrix(0.06862628,0,0,0.0686265,1.5770735,7.7864182)">
      <path
         style="color:#000000;display:inline;fill:none;stroke:#34e0e2;stroke-width:23.13250071;stroke-linecap:round;stroke-linejoin:round;stroke-dasharray:none;stroke-opacity:1"
         d="m 71.443307,53.682984 c 0.0363,-9.83311 0.0696,-19.666241 0.0955,-29.499381 -0.001,-13.328567 -12.75992,-24.02929713 -28.35742,-24.02929713 l -0.0015,-6e-6 c -15.598268,0 -28.355469,10.70181313 -28.355469,24.03125013 0.02998,9.832532 0.1367,29.497434 0.1367,29.497434"
         id="path9" />
      <path
         style="color:#000000;display:inline;fill:none;stroke:#042a2a;stroke-width:7.71084;stroke-linecap:round;stroke-linejoin:round;stroke-dasharray:none;stroke-opacity:1"
         d="m 71.443307,53.682984 c 0.0363,-9.83311 0.0696,-19.666241 0.0955,-29.499381 -0.001,-13.328567 -12.75992,-24.02929713 -28.35742,-24.02929713 l -0.0015,-6e-6 c -15.598268,0 -28.355469,10.70181313 -28.355469,24.03125013 0.02998,9.832532 0.1367,29.497434 0.1367,29.497434"
         id="path14" />
      <path
         style="display:inline;fill:#042a2a;stroke:#34e0e2;stroke-width:7.71084;stroke-linecap:round;stroke-linejoin:round;stroke-dasharray:none"
         d="m 0.4608,48.1457 c -0.17018847,0 -0.3072,0.137011 -0.3072,0.3072 v 61.3929 c 0,0.17019 0.13701153,0.3072 0.3072,0.3072 h 85.4415 c 0.170189,0 0.3072,-0.13701 0.3072,-0.3072 V 48.4529 c 0,-0.170189 -0.137011,-0.3072 -0.3072,-0.3072 z"
         id="path12" />
      <path
         d="m 43.181641,60.824219 c -0.3909,0 -0.780472,0.0192 -1.167969,0.05859 -0.382892,0.03892 -0.762409,0.09677 -1.138672,0.173829 -0.369474,0.07567 -0.739109,0.169784 -1.103516,0.283203 -3.591392,1.117787 -6.425251,3.952398 -7.542968,7.542968 -0.112064,0.359997 -0.206582,0.727495 -0.283204,1.101563 -0.0771,0.376413 -0.134927,0.756088 -0.173828,1.138672 -0.03946,0.388056 -0.05859,0.780552 -0.05859,1.169922 0,0.634782 0.05124,1.260171 0.152343,1.873047 0.102152,0.619211 0.253301,1.212992 0.445313,1.783203 0.189631,0.56314 0.424774,1.120366 0.708984,1.662109 0.277906,0.529724 0.595533,1.035506 0.949219,1.511719 0.360298,0.485115 0.753229,0.929343 1.166016,1.335937 0.419309,0.413019 0.872433,0.797004 1.355468,1.144532 0.0311,0.02237 0.06436,0.04237 0.0957,0.06445 l -3.597656,20.910161 20.587891,-0.082 -4.425781,-20.408199 c 3.31074,-2.016192 5.501125,-5.650556 5.5,-9.794922 0,-0.38937 -0.01914,-0.781866 -0.05859,-1.169922 -0.0389,-0.382584 -0.09672,-0.762259 -0.173828,-1.138672 -0.07662,-0.374063 -0.171136,-0.741556 -0.283203,-1.101563 -1.117828,-3.590938 -3.952022,-6.425135 -7.542969,-7.542968 -0.364244,-0.113386 -0.734798,-0.207676 -1.103516,-0.283203 -0.376411,-0.0771 -0.756085,-0.134928 -1.138672,-0.173829 -0.387643,-0.03941 -0.777101,-0.05859 -1.167968,-0.05859 z"
         style="display:inline;fill:#34e0e2;stroke:#16d0d2;stroke-width:7.71084;stroke-linecap:round;stroke-linejoin:round;stroke-dasharray:none"
         id="path13"
         transform="translate(-1.669671e-7,-2.219471)" />
    </g>
  </g>
</svg>
