<?xml version="1.0" encoding="UTF-8" standalone="no"?>
<svg
   id="svg190"
   xml:space="preserve"
   viewBox="0 0 1693.3333 1693.3333"
   version="1.2"
   preserveAspectRatio="xMidYMid"
   stroke-width="28.222"
   stroke-linejoin="round"
   fill-rule="evenodd"
   height="64"
   width="64"
   xmlns="http://www.w3.org/2000/svg"
   xmlns:svg="http://www.w3.org/2000/svg"
   xmlns:rdf="http://www.w3.org/1999/02/22-rdf-syntax-ns#"
   xmlns:cc="http://creativecommons.org/ns#"
   xmlns:dc="http://purl.org/dc/elements/1.1/"><metadata
   id="metadata194"><rdf:RDF><cc:Work
       rdf:about=""><dc:format>image/svg+xml</dc:format><dc:type
         rdf:resource="http://purl.org/dc/dcmitype/StillImage" /></cc:Work></rdf:RDF></metadata>
 <defs
   id="defs146"
   class="ClipPathGroup">
  <clipPath
   id="presentation_clip_path">
   <rect
   id="rect143"
   height="1693"
   width="1693"
   x="0"
   y="0" />
  </clipPath>
 
         
         
         
         
         
         
         
         
         
         
         
         
         
         
         
         
         
         
         
         
        </defs>
        <g
   transform="translate(-35.350472,-49.835587)"
   id="g235"
   style="display:none"><path
     style="fill:none;stroke:#ff0000;stroke-width:57;stroke-linecap:square;stroke-linejoin:bevel"
     id="path148"
     d="m 121,974 v 0 c -7,-26 -11,-51 -11,-77 0,-48 13,-93 35,-134 24,-41 58,-75 98,-98 19,-11 38,-19 58,-26 v 0 c 25,-7 50,-11 77,-11 46,0 93,13 133,37 40,23 74,57 98,98 10,18 19,37 25,57 v 0 c 8,24 11,51 11,77 0,46 -12,93 -36,134 -24,41 -58,74 -98,98 -18,10 -37,19 -57,24 v 0 c -25,8 -50,12 -76,12 -48,0 -93,-12 -135,-36 -40,-24 -74,-57 -98,-98 -10,-17 -17,-36 -24,-56" /><path
     style="fill:none;stroke:#ff0000;stroke-width:57;stroke-linejoin:miter"
     id="path150"
     d="M 492,521 258,1264" /><path
     style="fill:none;stroke:#ff0000;stroke-width:58;stroke-linecap:square;stroke-linejoin:bevel"
     id="path154"
     d="M 749,528 H 564 V 141 h 370 v 387 z" /><path
     style="fill:#ffff00"
     id="path156"
     d="m 813,1063 567,8 -85,583 -403,-3 z" /><path
     style="fill:none;stroke:#2b1100;stroke-width:53;stroke-linejoin:miter"
     id="path158"
     d="m 813,1063 567,8 -85,583 -403,-3 z" /><path
     style="fill:none;stroke:#2b1100;stroke-width:53;stroke-linejoin:miter"
     id="path160"
     d="m 1252,714 408,626" /><path
     style="fill:none;stroke:#2b1100;stroke-width:53;stroke-linejoin:miter"
     id="path162"
     d="m 1425,927 46,-28 112,173 -43,29" /><path
     style="fill:none;stroke:#2b1100;stroke-width:40;stroke-linejoin:miter"
     id="path164"
     d="m 984,1182 -1,328" /><path
     style="fill:none;stroke:#2b1100;stroke-width:40;stroke-linejoin:miter"
     id="path166"
     d="m 1100,1187 -2,328" /><path
     style="fill:none;stroke:#2b1100;stroke-width:40;stroke-linejoin:miter"
     id="path168"
     d="m 1215,1187 -2,328" /><path
     style="fill:none;stroke:#ff0000;stroke-width:66;stroke-linecap:square;stroke-linejoin:bevel"
     id="path170"
     d="m 840,730 c 80,-32 143,-18 207,36 64,53 77,144 61,228" /><path
     style="fill:#ff0000"
     id="path172"
     d="m 1111,899 124,5 -64,126 -72,125 -58,-125 -59,-131 z" /><path
     style="fill:none;stroke:#ff0000;stroke-width:33;stroke-linecap:square;stroke-linejoin:bevel"
     id="path174"
     d="m 1111,899 124,5 -64,126 -72,125 -58,-125 -59,-131 z" /><path
     style="fill:#ff0000"
     id="path176"
     d="m 1170,402 c 0,8 -2,15 -6,22 -4,7 -9,12 -16,16 -7,4 -14,6 -22,6 -7,0 -15,-2 -21,-6 -7,-4 -13,-9 -16,-16 -4,-7 -6,-14 -6,-22 0,-7 2,-15 6,-21 3,-7 9,-13 16,-16 6,-4 14,-6 21,-6 8,0 15,2 22,6 7,3 12,9 16,16 4,6 6,14 6,21 z" /><path
     style="fill:none;stroke:#ff0000;stroke-width:40;stroke-linecap:round;stroke-linejoin:miter"
     id="path178"
     d="m 1170,402 c 0,8 -2,15 -6,22 -4,7 -9,12 -16,16 -7,4 -14,6 -22,6 -7,0 -15,-2 -21,-6 -7,-4 -13,-9 -16,-16 -4,-7 -6,-14 -6,-22 0,-7 2,-15 6,-21 3,-7 9,-13 16,-16 6,-4 14,-6 21,-6 8,0 15,2 22,6 7,3 12,9 16,16 4,6 6,14 6,21 z" /><path
     style="fill:#ff0000"
     id="path180"
     d="m 1392,402 c 0,7 -2,15 -5,22 -4,6 -10,12 -16,15 -7,4 -14,6 -22,6 -8,0 -15,-2 -22,-6 -6,-3 -12,-9 -16,-15 -3,-7 -5,-15 -5,-22 0,-8 2,-15 5,-22 4,-7 10,-12 16,-16 7,-4 14,-6 22,-6 8,0 15,2 22,6 6,4 12,9 16,16 3,7 5,14 5,22 z" /><path
     style="fill:none;stroke:#ff0000;stroke-width:40;stroke-linecap:round;stroke-linejoin:miter"
     id="path182"
     d="m 1392,402 c 0,7 -2,15 -5,22 -4,6 -10,12 -16,15 -7,4 -14,6 -22,6 -8,0 -15,-2 -22,-6 -6,-3 -12,-9 -16,-15 -3,-7 -5,-15 -5,-22 0,-8 2,-15 5,-22 4,-7 10,-12 16,-16 7,-4 14,-6 22,-6 8,0 15,2 22,6 6,4 12,9 16,16 3,7 5,14 5,22 z" /><path
     style="fill:#ff0000"
     id="path184"
     d="m 1588,402 c 0,7 -2,15 -6,22 -4,6 -9,12 -16,15 -6,4 -14,6 -22,6 -7,0 -15,-2 -21,-6 -7,-3 -12,-9 -16,-15 -4,-7 -6,-15 -6,-22 0,-8 2,-15 6,-22 4,-7 9,-12 16,-16 6,-4 14,-6 21,-6 8,0 16,2 22,6 7,4 12,9 16,16 4,7 6,14 6,22 z" /><path
     style="fill:none;stroke:#ff0000;stroke-width:40;stroke-linecap:round;stroke-linejoin:miter"
     id="path186"
     d="m 1588,402 c 0,7 -2,15 -6,22 -4,6 -9,12 -16,15 -6,4 -14,6 -22,6 -7,0 -15,-2 -21,-6 -7,-3 -12,-9 -16,-15 -4,-7 -6,-15 -6,-22 0,-8 2,-15 6,-22 4,-7 9,-12 16,-16 6,-4 14,-6 21,-6 8,0 16,2 22,6 7,4 12,9 16,16 4,7 6,14 6,22 z" /></g>
<g
   id="g3"
   transform="matrix(1.0000032,0,0,0.99999322,19.091375,-53.327509)"><path
     d="m 398.0898,604.9165 q -108.83057,0 -165.10621,59.53125 -55.81054,59.06617 -55.81054,173.94287 0,104.17969 38.13721,179.05888 38.60229,74.8791 120.92285,134.4104 v 68.3679 H 61.831251 v -75.3443 H 231.12324 q -70.22827,-53.9502 -107.4353,-133.9453 -37.207031,-79.99508 -37.207031,-175.3381 0,-143.24707 82.785641,-224.63745 82.78565,-81.39038 228.82325,-81.39038 147.89795,0 230.2185,80.92529 82.32056,80.92529 82.32056,224.17236 0,95.80811 -37.67212,176.26828 -37.20703,80.4602 -106.50513,133.9453 h 168.82691 v 75.3443 H 460.87666 v -68.3679 q 82.32056,-59.0662 120.92285,-134.8755 39.06739,-76.27444 39.06739,-178.59378 0,-114.41162 -56.74073,-173.94287 Q 507.85054,604.9165 398.0898,604.9165 Z m 521.31182,-33.95141 q -17.67334,0 -30.6958,-12.55738 -12.55737,-12.55737 -12.55737,-33.02124 0,-20.46386 12.55737,-33.02124 12.55738,-13.02246 30.6958,-13.02246 18.13843,0 30.69581,13.02246 12.55737,12.55738 12.55737,33.02124 0,20.46387 -13.02246,33.02124 -12.55738,12.55738 -30.23072,12.55738 z m 157.66478,0 q -17.6733,0 -30.6958,-12.55738 -12.5574,-12.55737 -12.5574,-33.02124 0,-20.46386 12.5574,-33.02124 12.5574,-13.02246 30.6958,-13.02246 18.1384,0 30.6958,13.02246 12.5574,12.55738 12.5574,33.02124 0,20.46387 -13.0225,33.02124 -12.5573,12.55738 -30.2307,12.55738 z m 157.6648,0 q -17.6733,0 -30.6958,-12.55738 -12.5574,-12.55737 -12.5574,-33.02124 0,-20.46386 12.5574,-33.02124 12.5574,-13.02246 30.6958,-13.02246 18.1384,0 30.6958,13.02246 12.5574,12.55738 12.5574,33.02124 0,20.46387 -13.0225,33.02124 -12.5573,12.55738 -30.2307,12.55738 z m 157.6648,0 q -17.6733,0 -30.6958,-12.55738 -12.5574,-12.55737 -12.5574,-33.02124 0,-20.46386 12.5574,-33.02124 12.5574,-13.02246 30.6958,-13.02246 18.1384,0 30.6958,13.02246 12.5574,12.55738 12.5574,33.02124 0,20.46387 -13.0225,33.02124 -12.5574,12.55738 -30.2307,12.55738 z m 157.6648,0 q -17.6733,0 -30.6958,-12.55738 -12.5574,-12.55737 -12.5574,-33.02124 0,-20.46386 12.5574,-33.02124 12.5574,-13.02246 30.6958,-13.02246 18.1384,0 30.6958,13.02246 12.5574,12.55738 12.5574,33.02124 0,20.46387 -13.0225,33.02124 -12.5574,12.55738 -30.2307,12.55738 z M 919.40162,1220.2278 q -17.67334,0 -30.6958,-12.5574 -12.55737,-12.5574 -12.55737,-33.0212 0,-20.4639 12.55737,-33.0213 12.55738,-13.0224 30.6958,-13.0224 18.13843,0 30.69581,13.0224 12.55737,12.5574 12.55737,33.0213 0,20.4638 -13.02246,33.0212 -12.55738,12.5574 -30.23072,12.5574 z m 157.66478,0 q -17.6733,0 -30.6958,-12.5574 -12.5574,-12.5574 -12.5574,-33.0212 0,-20.4639 12.5574,-33.0213 12.5574,-13.0224 30.6958,-13.0224 18.1384,0 30.6958,13.0224 12.5574,12.5574 12.5574,33.0213 0,20.4638 -13.0225,33.0212 -12.5573,12.5574 -30.2307,12.5574 z m 157.6648,0 q -17.6733,0 -30.6958,-12.5574 -12.5574,-12.5574 -12.5574,-33.0212 0,-20.4639 12.5574,-33.0213 12.5574,-13.0224 30.6958,-13.0224 18.1384,0 30.6958,13.0224 12.5574,12.5574 12.5574,33.0213 0,20.4638 -13.0225,33.0212 -12.5573,12.5574 -30.2307,12.5574 z m 157.6648,0 q -17.6733,0 -30.6958,-12.5574 -12.5574,-12.5574 -12.5574,-33.0212 0,-20.4639 12.5574,-33.0213 12.5574,-13.0224 30.6958,-13.0224 18.1384,0 30.6958,13.0224 12.5574,12.5574 12.5574,33.0213 0,20.4638 -13.0225,33.0212 -12.5574,12.5574 -30.2307,12.5574 z m 157.6648,0 q -17.6733,0 -30.6958,-12.5574 -12.5574,-12.5574 -12.5574,-33.0212 0,-20.4639 12.5574,-33.0213 12.5574,-13.0224 30.6958,-13.0224 18.1384,0 30.6958,13.0224 12.5574,12.5574 12.5574,33.0213 0,20.4638 -13.0225,33.0212 -12.5574,12.5574 -30.2307,12.5574 z M 919.40162,729.56006 q -17.67334,0 -30.6958,-12.55737 -12.55737,-12.55738 -12.55737,-33.02124 0,-20.46387 12.55737,-33.02124 12.55738,-13.02247 30.6958,-13.02247 18.13843,0 30.69581,13.02247 12.55737,12.55737 12.55737,33.02124 0,20.46386 -13.02246,33.02124 -12.55738,12.55737 -30.23072,12.55737 z m 0,169.29199 q -17.67334,0 -30.6958,-12.55737 -12.55737,-12.55738 -12.55737,-33.02124 0,-20.46387 12.55737,-33.02124 12.55738,-13.02246 30.6958,-13.02246 18.13843,0 30.69581,13.02246 12.55737,12.55737 12.55737,33.02124 0,20.46386 -13.02246,33.02124 -12.55738,12.55737 -30.23072,12.55737 z m 0,168.82695 q -17.67334,0 -30.6958,-12.5574 -12.55737,-12.5574 -12.55737,-33.0213 0,-20.4638 12.55737,-33.0212 12.55738,-13.02246 30.6958,-13.02246 18.13843,0 30.69581,13.02246 12.55737,12.5574 12.55737,33.0212 0,20.4639 -13.02246,33.0213 -12.55738,12.5574 -30.23072,12.5574 z M 1550.0608,729.56006 q -17.6733,0 -30.6958,-12.55737 -12.5574,-12.55738 -12.5574,-33.02124 0,-20.46387 12.5574,-33.02124 12.5574,-13.02247 30.6958,-13.02247 18.1384,0 30.6958,13.02247 12.5574,12.55737 12.5574,33.02124 0,20.46386 -13.0225,33.02124 -12.5574,12.55737 -30.2307,12.55737 z m 0,169.29199 q -17.6733,0 -30.6958,-12.55737 -12.5574,-12.55738 -12.5574,-33.02124 0,-20.46387 12.5574,-33.02124 12.5574,-13.02246 30.6958,-13.02246 18.1384,0 30.6958,13.02246 12.5574,12.55737 12.5574,33.02124 0,20.46386 -13.0225,33.02124 -12.5574,12.55737 -30.2307,12.55737 z m 0,168.82695 q -17.6733,0 -30.6958,-12.5574 -12.5574,-12.5574 -12.5574,-33.0213 0,-20.4638 12.5574,-33.0212 12.5574,-13.02246 30.6958,-13.02246 18.1384,0 30.6958,13.02246 12.5574,12.5574 12.5574,33.0212 0,20.4639 -13.0225,33.0213 -12.5574,12.5574 -30.2307,12.5574 z"
     id="text1"
     style="font-size:952.5px;line-height:0px;text-align:end;letter-spacing:26.4583px;word-spacing:0px;text-anchor:end;display:inline;fill:#fce94f;stroke:#302b00;stroke-width:52.9167;stroke-linecap:square"
     aria-label="Ω⬚" /><path
     style="fill:#fce94f;stroke:#280000;stroke-width:158.75;stroke-linecap:round;stroke-linejoin:round;stroke-dasharray:none"
     d="M 200,1400 699.99999,399.99999"
     id="path2" /><path
     style="fill:#fce94f;stroke:#ef2929;stroke-width:52.9167;stroke-linecap:round;stroke-linejoin:round;stroke-dasharray:none"
     d="M 200,1400 699.99999,399.99999"
     id="path3" /></g></svg>
