<?xml version="1.0" encoding="UTF-8" standalone="no"?>
<svg
   xmlns:dc="http://purl.org/dc/elements/1.1/"
   xmlns:cc="http://creativecommons.org/ns#"
   xmlns:rdf="http://www.w3.org/1999/02/22-rdf-syntax-ns#"
   xmlns:svg="http://www.w3.org/2000/svg"
   xmlns="http://www.w3.org/2000/svg"
   id="svg190"
   xml:space="preserve"
   viewBox="0 0 1693 1693"
   version="1.2"
   preserveAspectRatio="xMidYMid"
   stroke-width="28.222"
   stroke-linejoin="round"
   fill-rule="evenodd"
   height="16.93mm"
   width="16.93mm"><metadata
   id="metadata194"><rdf:RDF><cc:Work
       rdf:about=""><dc:format>image/svg+xml</dc:format><dc:type
         rdf:resource="http://purl.org/dc/dcmitype/StillImage" /><dc:title></dc:title></cc:Work></rdf:RDF></metadata>
 <defs
   id="defs146"
   class="ClipPathGroup">
  <clipPath
   id="presentation_clip_path">
   <rect
   id="rect143"
   height="1693"
   width="1693" />
  </clipPath>
 
         
         
         
         
         
         
         
         
         
         
         
         
         
         
         
         
         
         
         
         
        </defs>
        <g
   transform="translate(-35.350472,-49.835587)"
   id="g235"><path
     style="fill:none;stroke:#ff0000;stroke-width:57;stroke-linecap:square;stroke-linejoin:bevel"
     id="path148"
     d="m 121,974 v 0 c -7,-26 -11,-51 -11,-77 0,-48 13,-93 35,-134 24,-41 58,-75 98,-98 19,-11 38,-19 58,-26 v 0 c 25,-7 50,-11 77,-11 46,0 93,13 133,37 40,23 74,57 98,98 10,18 19,37 25,57 v 0 c 8,24 11,51 11,77 0,46 -12,93 -36,134 -24,41 -58,74 -98,98 -18,10 -37,19 -57,24 v 0 c -25,8 -50,12 -76,12 -48,0 -93,-12 -135,-36 -40,-24 -74,-57 -98,-98 -10,-17 -17,-36 -24,-56" /><path
     style="fill:none;stroke:#ff0000;stroke-width:57;stroke-linejoin:miter"
     id="path150"
     d="M 492,521 258,1264" /><path
     style="fill:none;stroke:#ff0000;stroke-width:58;stroke-linecap:square;stroke-linejoin:bevel"
     id="path154"
     d="M 749,528 H 564 V 141 h 370 v 387 z" /><path
     style="fill:#ffff00"
     id="path156"
     d="m 813,1063 567,8 -85,583 -403,-3 z" /><path
     style="fill:none;stroke:#2b1100;stroke-width:53;stroke-linejoin:miter"
     id="path158"
     d="m 813,1063 567,8 -85,583 -403,-3 z" /><path
     style="fill:none;stroke:#2b1100;stroke-width:53;stroke-linejoin:miter"
     id="path160"
     d="m 1252,714 408,626" /><path
     style="fill:none;stroke:#2b1100;stroke-width:53;stroke-linejoin:miter"
     id="path162"
     d="m 1425,927 46,-28 112,173 -43,29" /><path
     style="fill:none;stroke:#2b1100;stroke-width:40;stroke-linejoin:miter"
     id="path164"
     d="m 984,1182 -1,328" /><path
     style="fill:none;stroke:#2b1100;stroke-width:40;stroke-linejoin:miter"
     id="path166"
     d="m 1100,1187 -2,328" /><path
     style="fill:none;stroke:#2b1100;stroke-width:40;stroke-linejoin:miter"
     id="path168"
     d="m 1215,1187 -2,328" /><path
     style="fill:none;stroke:#ff0000;stroke-width:66;stroke-linecap:square;stroke-linejoin:bevel"
     id="path170"
     d="m 840,730 c 80,-32 143,-18 207,36 64,53 77,144 61,228" /><path
     style="fill:#ff0000"
     id="path172"
     d="m 1111,899 124,5 -64,126 -72,125 -58,-125 -59,-131 z" /><path
     style="fill:none;stroke:#ff0000;stroke-width:33;stroke-linecap:square;stroke-linejoin:bevel"
     id="path174"
     d="m 1111,899 124,5 -64,126 -72,125 -58,-125 -59,-131 z" /><path
     style="fill:#ff0000"
     id="path176"
     d="m 1170,402 c 0,8 -2,15 -6,22 -4,7 -9,12 -16,16 -7,4 -14,6 -22,6 -7,0 -15,-2 -21,-6 -7,-4 -13,-9 -16,-16 -4,-7 -6,-14 -6,-22 0,-7 2,-15 6,-21 3,-7 9,-13 16,-16 6,-4 14,-6 21,-6 8,0 15,2 22,6 7,3 12,9 16,16 4,6 6,14 6,21 z" /><path
     style="fill:none;stroke:#ff0000;stroke-width:40;stroke-linecap:round;stroke-linejoin:miter"
     id="path178"
     d="m 1170,402 c 0,8 -2,15 -6,22 -4,7 -9,12 -16,16 -7,4 -14,6 -22,6 -7,0 -15,-2 -21,-6 -7,-4 -13,-9 -16,-16 -4,-7 -6,-14 -6,-22 0,-7 2,-15 6,-21 3,-7 9,-13 16,-16 6,-4 14,-6 21,-6 8,0 15,2 22,6 7,3 12,9 16,16 4,6 6,14 6,21 z" /><path
     style="fill:#ff0000"
     id="path180"
     d="m 1392,402 c 0,7 -2,15 -5,22 -4,6 -10,12 -16,15 -7,4 -14,6 -22,6 -8,0 -15,-2 -22,-6 -6,-3 -12,-9 -16,-15 -3,-7 -5,-15 -5,-22 0,-8 2,-15 5,-22 4,-7 10,-12 16,-16 7,-4 14,-6 22,-6 8,0 15,2 22,6 6,4 12,9 16,16 3,7 5,14 5,22 z" /><path
     style="fill:none;stroke:#ff0000;stroke-width:40;stroke-linecap:round;stroke-linejoin:miter"
     id="path182"
     d="m 1392,402 c 0,7 -2,15 -5,22 -4,6 -10,12 -16,15 -7,4 -14,6 -22,6 -8,0 -15,-2 -22,-6 -6,-3 -12,-9 -16,-15 -3,-7 -5,-15 -5,-22 0,-8 2,-15 5,-22 4,-7 10,-12 16,-16 7,-4 14,-6 22,-6 8,0 15,2 22,6 6,4 12,9 16,16 3,7 5,14 5,22 z" /><path
     style="fill:#ff0000"
     id="path184"
     d="m 1588,402 c 0,7 -2,15 -6,22 -4,6 -9,12 -16,15 -6,4 -14,6 -22,6 -7,0 -15,-2 -21,-6 -7,-3 -12,-9 -16,-15 -4,-7 -6,-15 -6,-22 0,-8 2,-15 6,-22 4,-7 9,-12 16,-16 6,-4 14,-6 21,-6 8,0 16,2 22,6 7,4 12,9 16,16 4,7 6,14 6,22 z" /><path
     style="fill:none;stroke:#ff0000;stroke-width:40;stroke-linecap:round;stroke-linejoin:miter"
     id="path186"
     d="m 1588,402 c 0,7 -2,15 -6,22 -4,6 -9,12 -16,15 -6,4 -14,6 -22,6 -7,0 -15,-2 -21,-6 -7,-3 -12,-9 -16,-15 -4,-7 -6,-15 -6,-22 0,-8 2,-15 6,-22 4,-7 9,-12 16,-16 6,-4 14,-6 21,-6 8,0 16,2 22,6 7,4 12,9 16,16 4,7 6,14 6,22 z" /></g>
</svg>