<?xml version="1.0" encoding="UTF-8" standalone="no"?>
<!-- Created with Inkscape (http://www.inkscape.org/) -->

<svg
   width="32"
   height="32"
   viewBox="0 0 8.4666665 8.466667"
   version="1.1"
   id="svg1876"
   style="enable-background:new"
   xmlns="http://www.w3.org/2000/svg"
   xmlns:svg="http://www.w3.org/2000/svg"
   xmlns:rdf="http://www.w3.org/1999/02/22-rdf-syntax-ns#"
   xmlns:cc="http://creativecommons.org/ns#"
   xmlns:dc="http://purl.org/dc/elements/1.1/">
  <defs
     id="defs1870">
    <filter
       style="color-interpolation-filters:sRGB"
       id="filter1958"
       x="-0.061574302"
       y="-0.040450011"
       width="1.0855669"
       height="1.1179529">
      <feBlend
         mode="exclusion"
         in2="BackgroundImage"
         id="feBlend1960" />
    </filter>
  </defs>
  <metadata
     id="metadata1873">
    <rdf:RDF>
      <cc:Work
         rdf:about="">
        <dc:format>image/svg+xml</dc:format>
        <dc:type
           rdf:resource="http://purl.org/dc/dcmitype/StillImage" />
        <dc:title />
      </cc:Work>
    </rdf:RDF>
  </metadata>
  <g
     id="layer1"
     transform="translate(0,-288.53332)"
     style="filter:url(#filter1958)">
    <g
       id="g832"
       transform="matrix(0.45774741,0,0,0.45774741,0.20138822,160.379)">
      <g
         transform="translate(-0.33408691,-0.60135643)"
         id="g827">
        <path
           style="opacity:1;fill:none;fill-opacity:1;fill-rule:nonzero;stroke:#ff0000;stroke-width:1.25;stroke-linecap:square;stroke-linejoin:bevel;stroke-miterlimit:4;stroke-dasharray:none;stroke-dashoffset:0;stroke-opacity:1"
           id="path1878"
           d="m 4.3476003,288.69722 a 4.6534534,4.6682072 0 0 1 3.1285115,-5.80259 a 4.6534534,4.6682072 0 0 1 5.7888752,3.12983 a 4.6534534,4.6682072 0 0 1 -3.111366,5.81186 A 4.6534534,4.6682072 0 0 1 4.3555306,288.7237" />
        <path
           style="fill:none;stroke:#ff0000;stroke-width:1.25;stroke-linecap:butt;stroke-linejoin:miter;stroke-miterlimit:4;stroke-dasharray:none;stroke-opacity:1"
           d="M 10.803344,280.82614 C 6.7307272,293.74341 6.7307272,293.74341 6.7307272,293.74341"
           id="path1880" />
      </g>
      <g
         id="g908">
        <path
           style="opacity:1;fill:#ffff00;fill-opacity:1;fill-rule:nonzero;stroke:#2b2200;stroke-width:0.49879649;stroke-linecap:square;stroke-linejoin:bevel;stroke-miterlimit:4;stroke-dasharray:none;stroke-dashoffset:0;stroke-opacity:1;filter:url(#filter1958)"
           id="path1970-2"
           d="m -16.83242,289.93849 l -1.759744,1.36925 l 0.575608,-2.15412 l -0.305932,-2.20861 l 1.577716,1.57555 l 2.065676,0.83936 z"
           transform="matrix(-0.46043869,0.87402234,-0.90622198,-0.46210975,268.4388,443.28052)" />
        <rect
           style="opacity:1;fill:#ffff00;fill-opacity:1;fill-rule:nonzero;stroke:#2b2200;stroke-width:0.5;stroke-linecap:butt;stroke-linejoin:round;stroke-miterlimit:4;stroke-dasharray:none;stroke-dashoffset:25.19470787;stroke-opacity:1"
           id="rect841"
           width="9.4239111"
           height="1.5829397"
           x="2.3791704"
           y="293.84268"
           transform="rotate(-0.28080906)" />
        <path
           style="opacity:1;fill:#ffff00;fill-opacity:1;fill-rule:nonzero;stroke:#2b2200;stroke-width:0.49879649;stroke-linecap:square;stroke-linejoin:bevel;stroke-miterlimit:4;stroke-dasharray:none;stroke-dashoffset:0;stroke-opacity:1"
           id="path1970"
           d="m -16.83242,289.93849 l -1.759744,1.36925 l 0.575608,-2.15412 l -0.305932,-2.20861 l 1.577716,1.57555 l 2.065676,0.83936 z"
           transform="matrix(0.45306844,-0.87786549,0.91007806,0.4544685,-252.68278,147.9845)" />
      </g>
    </g>
  </g>
</svg>
