<?xml version="1.0" encoding="UTF-8" standalone="no"?>
<!-- Created with Inkscape (http://www.inkscape.org/) -->

<svg
   width="64"
   height="64"
   viewBox="0 0 16.933333 16.933334"
   version="1.1"
   id="svg1760"
   xmlns:xlink="http://www.w3.org/1999/xlink"
   xmlns="http://www.w3.org/2000/svg"
   xmlns:svg="http://www.w3.org/2000/svg"
   xmlns:rdf="http://www.w3.org/1999/02/22-rdf-syntax-ns#"
   xmlns:cc="http://creativecommons.org/ns#"
   xmlns:dc="http://purl.org/dc/elements/1.1/">
  <defs
     id="defs1754">
    <linearGradient
       xlink:href="#linearGradient6"
       id="linearGradient2"
       x1="4.4678578"
       y1="282.99539"
       x2="14.767755"
       y2="292.10928"
       gradientUnits="userSpaceOnUse" />
    <linearGradient
       id="linearGradient6">
      <stop
         style="stop-color:#888a85;stop-opacity:1;"
         offset="0"
         id="stop6" />
      <stop
         style="stop-color:#d3d7cf;stop-opacity:1"
         offset="1"
         id="stop7" />
    </linearGradient>
  </defs>
  <metadata
     id="metadata1757">
    <rdf:RDF>
      <cc:Work
         rdf:about="">
        <dc:format>image/svg+xml</dc:format>
        <dc:type
           rdf:resource="http://purl.org/dc/dcmitype/StillImage" />
      </cc:Work>
    </rdf:RDF>
  </metadata>
  <g
     id="g14"
     transform="matrix(0.79046921,0,0,1.009346,-0.05075086,-0.03566232)"
     style="display:none">
    <path
       style="font-size:8.46667px;line-height:0px;text-align:end;letter-spacing:0px;word-spacing:0px;text-anchor:end;display:none;fill:#729fcf;stroke:#0b1521;stroke-width:0.592425;stroke-linecap:round;stroke-dasharray:none"
       d="M 18.054578,5.3120798 15.852143,11.535124 H 14.876335 L 17.08282,5.3120798 Z"
       id="path15" />
    <path
       style="font-size:8.46667px;line-height:0px;text-align:end;letter-spacing:0px;word-spacing:0px;text-anchor:end;display:none;fill:#d3d7cf;stroke:#555753;stroke-width:0.592466;stroke-linecap:round;stroke-dasharray:none"
       d="m 18.435145,8.9137698 2e-6,-0.980335 h 2.085266 v 0.980335 z"
       id="path16" />
    <path
       style="font-size:8.46667px;line-height:0px;text-align:end;letter-spacing:0px;word-spacing:0px;text-anchor:end;display:none;fill:#729fcf;stroke:#0b1521;stroke-width:0.592397;stroke-linecap:round;stroke-dasharray:none"
       d="m 7.3894552,8.9138033 v -0.980403 h 6.7713728 v 0.980403 z"
       id="path10" />
    <path
       style="font-size:8.46667px;line-height:0px;text-align:end;letter-spacing:0px;word-spacing:0px;text-anchor:end;display:none;fill:#d3d7cf;stroke:#555753;stroke-width:0.592466;stroke-linecap:round;stroke-dasharray:none"
       d="m 1.0298708,8.9137698 2.4e-6,-0.980335 h 2.0852647 v 0.980335 z"
       id="path9" />
    <path
       style="font-size:8.46667px;line-height:0px;text-align:end;letter-spacing:0px;word-spacing:0px;text-anchor:end;display:none;fill:#729fcf;stroke:#0b1521;stroke-width:0.592425;stroke-linecap:round;stroke-dasharray:none"
       d="M 6.6742056,5.3120798 4.4717703,11.535124 H 3.4959629 L 5.7024477,5.3120798 Z"
       id="text4" />
    <path
       style="font-size:8.46667px;line-height:0px;text-align:end;letter-spacing:0px;word-spacing:0px;text-anchor:end;display:none;fill:#729fcf;stroke:#0b1521;stroke-width:0.592394;stroke-linecap:round;stroke-dasharray:none"
       d="M 7.3913831,2.4285966 4.6587978,14.418608 H 3.4481033 L 6.1857125,2.4285966 Z"
       id="path1" />
    <path
       style="font-size:8.46667px;line-height:0px;text-align:end;letter-spacing:0px;word-spacing:0px;text-anchor:end;display:none;fill:#729fcf;stroke:#0b1521;stroke-width:0.592425;stroke-linecap:round;stroke-dasharray:none"
       d="M 18.054578,5.3120798 15.852143,11.535124 H 14.876335 L 17.08282,5.3120798 Z"
       id="path2" />
    <path
       style="font-size:8.46667px;line-height:0px;text-align:end;letter-spacing:0px;word-spacing:0px;text-anchor:end;display:none;fill:#729fcf;stroke:#0b1521;stroke-width:0.592394;stroke-linecap:round;stroke-dasharray:none"
       d="M 18.102321,2.4285966 15.369736,14.418608 H 14.159041 L 16.89665,2.4285966 Z"
       id="path3" />
    <path
       style="font-size:8.46667px;line-height:0px;text-align:end;letter-spacing:0px;word-spacing:0px;text-anchor:end;display:inline;fill:#d3d7cf;stroke:#555753;stroke-width:0.592555;stroke-linecap:round;stroke-dasharray:none"
       d="m 17.765756,9.1758588 3e-6,-1.504513 h 2.75461 v 1.504513 z"
       id="path7" />
    <path
       style="font-size:8.46667px;line-height:0px;text-align:end;letter-spacing:0px;word-spacing:0px;text-anchor:end;display:inline;fill:#729fcf;stroke:#0b1521;stroke-width:0.592452;stroke-linecap:round;stroke-dasharray:none"
       d="M 7.3894826,9.1759093 V 7.6712943 H 14.1608 v 1.504615 z"
       id="path5" />
    <path
       style="font-size:8.46667px;line-height:0px;text-align:end;letter-spacing:0px;word-spacing:0px;text-anchor:end;display:inline;fill:#d3d7cf;stroke:#555753;stroke-width:0.592555;stroke-linecap:round;stroke-dasharray:none"
       d="m 1.0299153,9.1758588 3.4e-6,-1.504513 h 2.7546099 v 1.504513 z"
       id="path6" />
  </g>
  <g
     id="layer1"
     style="display:none">
    <path
       style="font-size:14.8167px;line-height:0px;text-align:end;letter-spacing:0px;word-spacing:0px;text-anchor:end;fill:#729fcf;stroke:#0b1521;stroke-width:0.529173;stroke-linecap:round"
       d="m 12.551043,9.0454389 v -1.157545 h 3.588537 v 1.157545 z"
       id="path12" />
    <path
       style="font-size:14.8167px;line-height:0px;text-align:end;letter-spacing:0px;word-spacing:0px;text-anchor:end;fill:#d3d7cf;stroke:#555753;stroke-width:0.52915;stroke-linecap:round"
       d="m 9.9991302,8.4558143 q 0,-0.477481 0.2315018,-0.73069 0.238736,-0.260443 0.672802,-0.260443 0.441299,0 0.687269,0.260443 0.245971,0.253209 0.245971,0.73069 0,0.470246 -0.245971,0.745159 -0.24597,0.267678 -0.687269,0.267678 -0.426831,0 -0.665567,-0.267678 -0.2387368,-0.267678 -0.2387368,-0.745159 z"
       id="path11" />
    <path
       style="font-size:14.8167px;line-height:0px;text-align:end;letter-spacing:0px;word-spacing:0px;text-anchor:end;fill:#d3d7cf;stroke:#555753;stroke-width:0.529153;stroke-linecap:round"
       d="m 7.4646853,8.4557833 q 0,-0.477465 0.2315112,-0.730666 0.2387473,-0.260434 0.6728317,-0.260434 0.4413205,0 0.6873018,0.260434 0.2459812,0.253201 0.2459812,0.730666 0,0.470231 -0.2459812,0.745134 -0.2459813,0.26767 -0.6873018,0.26767 -0.4268494,0 -0.6655967,-0.26767 -0.2387462,-0.267669 -0.2387462,-0.745134 z"
       id="path8" />
    <path
       style="font-size:14.8167px;line-height:0px;text-align:end;letter-spacing:0px;word-spacing:0px;text-anchor:end;fill:#d3d7cf;stroke:#555753;stroke-width:0.52916;stroke-linecap:round"
       d="m 5.0172904,8.4558143 q 0,-0.477478 0.2315113,-0.730686 0.2387459,-0.260442 0.6728294,-0.260442 0.4413181,0 0.6872988,0.260442 0.2459807,0.253208 0.2459807,0.730686 0,0.470244 -0.2459807,0.745155 -0.2459807,0.267678 -0.6872988,0.267678 -0.4268488,0 -0.6655947,-0.267678 -0.238746,-0.267676 -0.238746,-0.745155 z"
       id="path4" />
    <path
       style="font-size:14.8167px;line-height:0px;text-align:end;letter-spacing:0px;word-spacing:0px;text-anchor:end;fill:#729fcf;stroke:#0b1521;stroke-width:0.529166;stroke-linecap:round"
       d="M 0.79374983,9.0454429 V 7.8878909 H 4.3821696 v 1.157552 z"
       id="text1" />
  </g>
  <g
     id="layer2"
     style="display:none">
    <path
       style="font-size:14.8167px;line-height:0px;text-align:end;letter-spacing:0px;word-spacing:0px;text-anchor:end;fill:#729fcf;stroke:#0b1521;stroke-width:0.503452;stroke-linecap:round"
       d="M 11.38994,8.9533937 H 5.5433926 V 7.9799407 H 11.38994 Z"
       id="path17" />
    <path
       style="font-size:14.8167px;line-height:0px;text-align:end;letter-spacing:0px;word-spacing:0px;text-anchor:end;fill:#d3d7cf;stroke:#555753;stroke-width:0.308507;stroke-linecap:round"
       d="m 0.68341984,8.4603392 q 0,-0.27839 0.13496644,-0.426022 0.13918427,-0.151849 0.39224622,-0.151849 0.2572792,0 0.4006813,0.151849 0.1434016,0.147632 0.1434016,0.426022 0,0.274173 -0.1434016,0.434458 -0.1434021,0.156068 -0.4006813,0.156068 -0.24884467,0 -0.38802836,-0.156068 -0.1391843,-0.156067 -0.1391843,-0.434458 z"
       id="text2" />
    <path
       style="font-size:14.8167px;line-height:0px;text-align:end;letter-spacing:0px;word-spacing:0px;text-anchor:end;fill:#d3d7cf;stroke:#555753;stroke-width:0.308507;stroke-linecap:round"
       d="m 2.3278056,8.4603392 q 0,-0.27839 0.1349664,-0.426022 0.1391842,-0.151849 0.3922461,-0.151849 0.2572791,0 0.4006811,0.151849 0.1434016,0.147632 0.1434016,0.426022 0,0.274173 -0.1434016,0.434458 -0.143402,0.156068 -0.4006811,0.156068 -0.2488446,0 -0.3880282,-0.156068 -0.1391843,-0.156067 -0.1391843,-0.434458 z"
       id="path13" />
    <path
       style="font-size:14.8167px;line-height:0px;text-align:end;letter-spacing:0px;word-spacing:0px;text-anchor:end;fill:#d3d7cf;stroke:#555753;stroke-width:0.308507;stroke-linecap:round"
       d="m 3.972191,8.4603392 q 0,-0.27839 0.1349663,-0.426022 0.1391842,-0.151849 0.3922461,-0.151849 0.2572791,0 0.4006811,0.151849 0.1434016,0.147632 0.1434016,0.426022 0,0.274173 -0.1434016,0.434458 -0.143402,0.156068 -0.4006811,0.156068 -0.2488446,0 -0.3880282,-0.156068 Q 3.972191,8.7387302 3.972191,8.4603392 Z"
       id="path14" />
    <path
       style="font-size:14.8167px;line-height:0px;text-align:end;letter-spacing:0px;word-spacing:0px;text-anchor:end;fill:#d3d7cf;stroke:#555753;stroke-width:0.308507;stroke-linecap:round"
       d="m 11.889847,8.4603392 q 0,-0.27839 0.134967,-0.426022 0.139184,-0.151849 0.392246,-0.151849 0.257279,0 0.400681,0.151849 0.143402,0.147632 0.143402,0.426022 0,0.274173 -0.143402,0.434458 -0.143402,0.156068 -0.400681,0.156068 -0.248845,0 -0.388028,-0.156068 -0.139185,-0.156067 -0.139185,-0.434458 z"
       id="path18" />
    <path
       style="font-size:14.8167px;line-height:0px;text-align:end;letter-spacing:0px;word-spacing:0px;text-anchor:end;fill:#d3d7cf;stroke:#555753;stroke-width:0.308507;stroke-linecap:round"
       d="m 13.534233,8.4603392 q 0,-0.27839 0.134966,-0.426022 0.139185,-0.151849 0.392247,-0.151849 0.257279,0 0.400681,0.151849 0.143401,0.147632 0.143401,0.426022 0,0.274173 -0.143401,0.434458 -0.143402,0.156068 -0.400681,0.156068 -0.248845,0 -0.388029,-0.156068 -0.139184,-0.156067 -0.139184,-0.434458 z"
       id="path19" />
    <path
       style="font-size:14.8167px;line-height:0px;text-align:end;letter-spacing:0px;word-spacing:0px;text-anchor:end;fill:#d3d7cf;stroke:#555753;stroke-width:0.308507;stroke-linecap:round"
       d="m 15.178618,8.4603392 q 0,-0.27839 0.134967,-0.426022 0.139184,-0.151849 0.392245,-0.151849 0.257279,0 0.400681,0.151849 0.143402,0.147632 0.143402,0.426022 0,0.274173 -0.143402,0.434458 -0.143402,0.156068 -0.400681,0.156068 -0.248844,0 -0.388027,-0.156068 -0.139185,-0.156067 -0.139185,-0.434458 z"
       id="path20" />
    <g
       id="g26"
       style="display:none">
      <path
         style="font-size:14.8167px;line-height:0px;text-align:end;letter-spacing:0px;word-spacing:0px;text-anchor:end;fill:#729fcf;stroke:#0b1521;stroke-width:0.308507;stroke-linecap:round"
         d="m 0.68341984,8.4603392 q 0,-0.27839 0.13496644,-0.426022 0.13918427,-0.151849 0.39224622,-0.151849 0.2572792,0 0.4006813,0.151849 0.1434016,0.147632 0.1434016,0.426022 0,0.274173 -0.1434016,0.434458 -0.1434021,0.156068 -0.4006813,0.156068 -0.24884467,0 -0.38802836,-0.156068 -0.1391843,-0.156067 -0.1391843,-0.434458 z"
         id="path21" />
      <path
         style="font-size:14.8167px;line-height:0px;text-align:end;letter-spacing:0px;word-spacing:0px;text-anchor:end;fill:#729fcf;stroke:#0b1521;stroke-width:0.308507;stroke-linecap:round"
         d="m 2.3278056,8.4603392 q 0,-0.27839 0.1349664,-0.426022 0.1391842,-0.151849 0.3922461,-0.151849 0.2572791,0 0.4006811,0.151849 0.1434016,0.147632 0.1434016,0.426022 0,0.274173 -0.1434016,0.434458 -0.143402,0.156068 -0.4006811,0.156068 -0.2488446,0 -0.3880282,-0.156068 -0.1391843,-0.156067 -0.1391843,-0.434458 z"
         id="path22" />
      <path
         style="font-size:14.8167px;line-height:0px;text-align:end;letter-spacing:0px;word-spacing:0px;text-anchor:end;fill:#729fcf;stroke:#0b1521;stroke-width:0.308507;stroke-linecap:round"
         d="m 3.972191,8.4603392 q 0,-0.27839 0.1349663,-0.426022 0.1391842,-0.151849 0.3922461,-0.151849 0.2572791,0 0.4006811,0.151849 0.1434016,0.147632 0.1434016,0.426022 0,0.274173 -0.1434016,0.434458 -0.143402,0.156068 -0.4006811,0.156068 -0.2488446,0 -0.3880282,-0.156068 Q 3.972191,8.7387302 3.972191,8.4603392 Z"
         id="path23" />
      <path
         style="font-size:14.8167px;line-height:0px;text-align:end;letter-spacing:0px;word-spacing:0px;text-anchor:end;fill:#729fcf;stroke:#0b1521;stroke-width:0.308507;stroke-linecap:round"
         d="m 11.889847,8.4603392 q 0,-0.27839 0.134967,-0.426022 0.139184,-0.151849 0.392246,-0.151849 0.257279,0 0.400681,0.151849 0.143402,0.147632 0.143402,0.426022 0,0.274173 -0.143402,0.434458 -0.143402,0.156068 -0.400681,0.156068 -0.248845,0 -0.388028,-0.156068 -0.139185,-0.156067 -0.139185,-0.434458 z"
         id="path24" />
      <path
         style="font-size:14.8167px;line-height:0px;text-align:end;letter-spacing:0px;word-spacing:0px;text-anchor:end;fill:#729fcf;stroke:#0b1521;stroke-width:0.308507;stroke-linecap:round"
         d="m 13.534233,8.4603392 q 0,-0.27839 0.134966,-0.426022 0.139185,-0.151849 0.392247,-0.151849 0.257279,0 0.400681,0.151849 0.143401,0.147632 0.143401,0.426022 0,0.274173 -0.143401,0.434458 -0.143402,0.156068 -0.400681,0.156068 -0.248845,0 -0.388029,-0.156068 -0.139184,-0.156067 -0.139184,-0.434458 z"
         id="path25" />
      <path
         style="font-size:14.8167px;line-height:0px;text-align:end;letter-spacing:0px;word-spacing:0px;text-anchor:end;fill:#729fcf;stroke:#0b1521;stroke-width:0.308507;stroke-linecap:round"
         d="m 15.178618,8.4603392 q 0,-0.27839 0.134967,-0.426022 0.139184,-0.151849 0.392245,-0.151849 0.257279,0 0.400681,0.151849 0.143402,0.147632 0.143402,0.426022 0,0.274173 -0.143402,0.434458 -0.143402,0.156068 -0.400681,0.156068 -0.248844,0 -0.388027,-0.156068 -0.139185,-0.156067 -0.139185,-0.434458 z"
         id="path26" />
    </g>
    <text
       xml:space="preserve"
       style="font-size:9.52483px;line-height:0px;text-align:end;letter-spacing:0px;word-spacing:0px;text-anchor:end;display:none;fill:#eeeeec;stroke:#ef2929;stroke-width:0.529158;stroke-linecap:round"
       x="14.082379"
       y="7.022779"
       id="text10"
       transform="scale(1.0000165,0.99998351)"><tspan
         id="tspan4"
         style="fill:#729fcf;stroke:#0b1521;stroke-width:0.529158"
         x="0"
         y="0">⟷</tspan></text>
  </g>
  <g
     id="layer3"
     style="display:none">
    <text
       xml:space="preserve"
       style="font-size:13.9665px;line-height:0px;text-align:end;letter-spacing:0px;word-spacing:0px;text-anchor:end;fill:#729fcf;stroke:#0b1521;stroke-width:0.529167;stroke-linecap:round;stroke-dasharray:none"
       x="28.307487"
       y="9.6285191"
       id="text3"
       transform="scale(0.56600499,1.7667689)"><tspan
         id="tspan1"
         style="stroke-width:0.529167;stroke-dasharray:none"
         x="28.307487"
         y="9.6285191">&lt;</tspan></text>
    <text
       xml:space="preserve"
       style="font-size:13.9665px;line-height:0px;text-align:end;letter-spacing:0px;word-spacing:0px;text-anchor:end;fill:#729fcf;stroke:#0b1521;stroke-width:0.529167;stroke-linecap:round;stroke-dasharray:none"
       x="-1.9586322"
       y="9.6285191"
       id="text5"
       transform="scale(-0.56600499,1.7667689)"><tspan
         id="tspan3"
         style="stroke-width:0.529167;stroke-dasharray:none"
         x="-1.9586323"
         y="9.6285191">&lt;</tspan></text>
  </g>
  <g
     id="layer4"
     style="display:none">
    <text
       xml:space="preserve"
       style="font-size:12.7001px;line-height:0px;text-align:end;letter-spacing:0px;word-spacing:0px;text-anchor:end;fill:#729fcf;stroke:#0b1521;stroke-width:0.529172;stroke-linecap:round"
       x="7.4228644"
       y="13.064792"
       id="text7"><tspan
         id="tspan6"
         style="font-size:12.7001px;stroke-width:0.529172"
         x="7.4228644"
         y="13.064792">&lt;</tspan></text>
    <rect
       style="fill:#729fcf;stroke:#0b1521;stroke-width:0.529167;stroke-linecap:round;stroke-dasharray:none"
       id="rect7"
       width="5.7397642"
       height="1.3431981"
       x="5.5967846"
       y="7.9165111" />
    <text
       xml:space="preserve"
       style="font-size:12.7px;line-height:0px;text-align:end;letter-spacing:0px;word-spacing:0px;text-anchor:end;fill:#729fcf;stroke:#0b1521;stroke-width:0.529165;stroke-linecap:round"
       x="-9.5105963"
       y="13.064725"
       id="text8"
       transform="scale(-1,1)"><tspan
         id="tspan7"
         style="font-size:12.7px;stroke-width:0.529165"
         x="-9.5105963"
         y="13.064725">&lt;</tspan></text>
  </g>
  <g
     id="g9"
     style="display:none">
    <text
       xml:space="preserve"
       style="font-size:9.525px;line-height:0px;text-align:end;letter-spacing:0px;word-spacing:0px;text-anchor:end;fill:#729fcf;stroke:#0b1521;stroke-width:0.529172;stroke-linecap:round"
       x="-0.31006128"
       y="11.915186"
       id="text6"
       transform="scale(-1,1)"><tspan
         id="tspan2"
         style="font-size:9.525px;stroke-width:0.529172"
         x="-0.31006134"
         y="11.915186">&lt;</tspan></text>
    <rect
       style="fill:#729fcf;stroke:#0b1521;stroke-width:0.529167;stroke-linecap:round;stroke-dasharray:none"
       id="rect6"
       width="5.4826512"
       height="1.3532536"
       x="5.8059921"
       y="7.9114833" />
    <text
       xml:space="preserve"
       style="font-size:9.525px;line-height:0px;text-align:end;letter-spacing:0px;word-spacing:0px;text-anchor:end;fill:#729fcf;stroke:#0b1521;stroke-width:0.529165;stroke-linecap:round"
       x="16.784571"
       y="11.915315"
       id="text9"><tspan
         id="tspan8"
         style="font-size:9.525px;stroke-width:0.529165"
         x="16.784571"
         y="11.915315">&lt;</tspan></text>
  </g>
  <g
     id="layer1-5"
     style="display:none">
    <g
       id="g1"
       transform="translate(10.319544)">
      <path
         style="fill:none;stroke:#0b1521;stroke-width:1.5875;stroke-linecap:round;stroke-dasharray:none"
         d="M 5.290966,2.9104167 1.4908096,8.4666667 5.290966,14.022917"
         id="path1-9" />
      <path
         style="fill:none;stroke:#729fcf;stroke-width:0.529167;stroke-linecap:round;stroke-dasharray:none"
         d="M 5.290966,2.9104167 1.4908096,8.4666667 5.290966,14.022917"
         id="path5-7" />
    </g>
    <g
       id="g2"
       transform="translate(-10.319541)">
      <path
         style="fill:none;stroke:#0b1521;stroke-width:1.58749;stroke-linecap:round;stroke-dasharray:none"
         d="m 11.642453,2.9104093 3.80008,5.5562574 -3.80008,5.5562573"
         id="path2-8" />
      <path
         style="fill:none;stroke:#729fcf;stroke-width:0.529167;stroke-linecap:round;stroke-dasharray:none"
         d="m 11.642453,2.9104093 3.80008,5.5562574 -3.80008,5.5562573"
         id="path6-2" />
    </g>
    <g
       id="g3">
      <path
         style="fill:none;stroke:#0b1521;stroke-width:1.5875;stroke-linecap:round;stroke-dasharray:none"
         d="M 6.8791667,8.4666669 H 10.054167"
         id="path4-9" />
      <path
         style="display:inline;fill:none;stroke:#729fcf;stroke-width:0.529167;stroke-linecap:round;stroke-dasharray:none"
         d="M 6.8791667,8.4666669 H 10.054167"
         id="path7-8" />
    </g>
  </g>
  <g
     id="layer2-7"
     style="display:none">
    <g
       id="g31">
      <path
         style="display:inline;fill:none;stroke:#0b1521;stroke-width:1.5875;stroke-linecap:round;stroke-dasharray:none"
         d="M 6.7323231,10.201011 6.8927499,10.040584 M 8.3062402,8.6270939 8.6270939,8.3062402 M 10.040584,6.8927499 10.201011,6.7323231"
         id="path11-3" />
      <path
         style="fill:none;stroke:#729fcf;stroke-width:0.529167;stroke-linecap:round;stroke-dasharray:none"
         d="M 6.7724301,10.160901 6.9300746,10.003257 M 8.3190501,8.6142829 8.634339,8.2989944 m 1.388976,-1.3889738 0.157644,-0.1576443"
         id="path14-5" />
    </g>
    <g
       id="g4"
       transform="rotate(180,12.435417,4.4979167)">
      <path
         style="fill:none;stroke:#0b1521;stroke-width:1.5875;stroke-linecap:round;stroke-dasharray:none"
         d="m 10.054167,2.1166667 h 4.7625 v 4.7625"
         id="path3-1" />
      <path
         style="fill:none;stroke:#729fcf;stroke-width:0.529167;stroke-linecap:round;stroke-dasharray:none"
         d="m 10.054167,2.1166667 h 4.7625 v 4.7625"
         id="path12-1" />
    </g>
    <g
       id="g5"
       transform="rotate(180,4.4979167,12.435417)">
      <path
         style="fill:none;stroke:#0b1521;stroke-width:1.5875;stroke-linecap:round;stroke-dasharray:none"
         d="m 6.8791667,14.816667 h -4.7625 v -4.7625"
         id="path8-5" />
      <path
         style="fill:none;stroke:#729fcf;stroke-width:0.529167;stroke-linecap:round;stroke-dasharray:none"
         d="m 6.8791667,14.816667 h -4.7625 v -4.7625"
         id="path13-5" />
    </g>
  </g>
  <g
     id="layer2-6"
     style="display:none">
    <g
       id="g34"
       style="display:inline">
      <path
         style="display:inline;fill:none;stroke:#0b1521;stroke-width:1.5875;stroke-linecap:round;stroke-dasharray:none"
         d="M 5.144823,11.788511 5.3451424,11.588192 M 7.1101183,9.8232156 7.510757,9.4225769 M 9.275733,7.6576008 9.6763717,7.2569621 m 1.7649763,-1.764976 0.200319,-0.2003194"
         id="path11-7" />
      <path
         style="display:inline;fill:none;stroke:#729fcf;stroke-width:0.529167;stroke-linecap:round;stroke-dasharray:none"
         d="M 5.144823,11.788511 5.3451424,11.588192 M 7.1101183,9.8232156 7.510757,9.4225769 M 9.275733,7.6576008 9.6763717,7.2569621 m 1.7649763,-1.764976 0.200319,-0.2003194"
         id="path19-2" />
    </g>
    <g
       id="g32"
       style="display:inline"
       transform="rotate(180,13.229167,3.7041667)">
      <path
         style="fill:none;stroke:#0b1521;stroke-width:1.5875;stroke-linecap:round;stroke-dasharray:none"
         d="m 11.641667,2.1166667 h 3.175 v 3.175"
         id="path3-9" />
      <path
         style="fill:none;stroke:#729fcf;stroke-width:0.529167;stroke-linecap:round;stroke-dasharray:none"
         d="m 11.641667,2.1166667 h 3.175 v 3.175"
         id="path17-0" />
    </g>
    <g
       id="g33"
       transform="rotate(180,3.7041667,13.229167)">
      <path
         style="fill:none;stroke:#0b1521;stroke-width:1.5875;stroke-linecap:round;stroke-dasharray:none"
         d="m 5.2916667,14.816667 h -3.175 v -3.175"
         id="path8-7" />
      <path
         style="fill:none;stroke:#729fcf;stroke-width:0.529167;stroke-linecap:round;stroke-dasharray:none"
         d="m 5.2916667,14.816667 h -3.175 v -3.175"
         id="path18-2" />
    </g>
  </g>
  <g
     id="layer5"
     style="display:none">
    <path
       style="display:inline;fill:none;stroke:#555753;stroke-width:1.5875;stroke-linecap:round;stroke-dasharray:none"
       d="m 1.8520833,8.4666677 h 0.066146 m 2.5135417,-2e-7 h 0.1322917 m 2.5135416,-2e-7 H 7.209896 m 2.5135417,-2e-7 h 0.1322917 m 2.5135416,-2e-7 h 0.132291 m 2.513542,-2e-7 h 0.06615"
       id="path36" />
    <path
       style="display:inline;fill:none;stroke:#d3d7cf;stroke-width:0.529167;stroke-linecap:round;stroke-dasharray:none"
       d="m 1.8520833,8.4666677 h 0.066146 m 2.5135417,-2e-7 h 0.1322917 m 2.5135416,-2e-7 H 7.209896 m 2.5135417,-2e-7 h 0.1322917 m 2.5135416,-2e-7 h 0.132291 m 2.513542,-2e-7 h 0.06615"
       id="path48" />
    <path
       style="fill:none;stroke:#0b1521;stroke-width:1.5875;stroke-linecap:round;stroke-dasharray:none"
       d="m 6.6145821,8.466669 3.7041699,-3.6e-6"
       id="path37" />
    <g
       id="g52"
       transform="matrix(-1,0,0,1,6.3500401,0)">
      <path
         style="fill:none;stroke:#0b1521;stroke-width:1.58758;stroke-linecap:round;stroke-dasharray:none"
         d="M 3.4395834,6.8791667 1.6822208,8.4666693 3.4395834,10.054167"
         id="path34" />
      <path
         style="fill:none;stroke:#729fcf;stroke-width:0.529167;stroke-linecap:round;stroke-dasharray:none"
         d="M 3.4395834,6.8791667 1.6822208,8.4666693 3.4395834,10.054167"
         id="path46" />
    </g>
    <g
       id="g51"
       transform="matrix(-1,0,0,1,27.547864,0)">
      <path
         style="fill:none;stroke:#0b1521;stroke-width:1.58758;stroke-linecap:round;stroke-dasharray:none"
         d="M 13.49375,10.054167 15.251171,8.4666684 13.49375,6.8791667"
         id="path35" />
      <path
         style="fill:none;stroke:#729fcf;stroke-width:0.529167;stroke-linecap:round;stroke-dasharray:none"
         d="M 13.49375,10.054167 15.251171,8.4666684 13.49375,6.8791667"
         id="path47" />
    </g>
    <path
       style="fill:none;stroke:#729fcf;stroke-width:0.529167;stroke-linecap:round;stroke-dasharray:none"
       d="m 6.6145821,8.466669 3.7041699,-3.6e-6"
       id="path49" />
  </g>
  <g
     id="g59">
    <path
       style="display:inline;fill:none;stroke:#555753;stroke-width:0.529275;stroke-linecap:square;stroke-dasharray:none"
       d="m 0.79380419,8.7313053 0.29229951,0 m 1.213043,-1e-7 0.2922995,0 m 1.213043,-10e-8 0.2922996,0 m 1.213043,-10e-8 0.2922995,0 m 1.213043,-1e-7 0.2922995,0 m 1.213043,-10e-8 0.2922996,0 m 1.213043,-10e-8 0.2922996,0 m 1.213043,-1e-7 0.292299,0 m 1.213043,-10e-8 0.2923,0 m 1.213043,-10e-8 0.292299,0 m 1.213043,-1e-7 0.2923,0"
       id="path53" />
    <path
       style="display:inline;fill:none;stroke:#d3d7cf;stroke-width:0.529275;stroke-linecap:square;stroke-dasharray:none"
       d="m 0.79380419,8.2021386 0.29229951,0 m 1.213043,-10e-8 0.2922995,0 m 1.213043,-10e-8 0.2922996,0 m 1.213043,-1e-7 0.2922995,0 m 1.213043,-10e-8 0.2922995,0 m 1.213043,-10e-8 0.2922996,0 m 1.213043,-1e-7 0.2922996,0 m 1.213043,-10e-8 0.292299,0 m 1.213043,-1e-7 0.2923,0 m 1.213043,-10e-8 0.292299,0 m 1.213043,-10e-8 0.2923,0"
       id="path83" />
    <path
       style="fill:none;stroke:#0b1521;stroke-width:0.529167;stroke-linecap:square;stroke-dasharray:none"
       d="m 6.6145821,8.731254 3.7041699,-3.6e-6"
       id="path59" />
    <path
       style="fill:none;stroke:#729fcf;stroke-width:0.529167;stroke-linecap:square;stroke-dasharray:none"
       d="m 6.6145821,8.2020873 3.7041699,-3.6e-6"
       id="path64" />
    <g
       id="g56"
       transform="matrix(-1.0000002,0,0,0.99999838,5.9829032,1.3556086e-5)">
      <path
         style="fill:none;stroke:#729fcf;stroke-width:0.529167;stroke-linecap:square;stroke-dasharray:none"
         d="M 2.3812899,6.8791667 0.62392726,8.4666693 2.3812899,10.054167"
         id="path56" />
      <path
         style="fill:none;stroke:#0b1521;stroke-width:0.529167;stroke-linecap:square;stroke-dasharray:none"
         d="M 2.026571,6.4864935 -0.1654809,8.4666699 2.0265716,10.446841"
         id="path65" />
    </g>
    <g
       id="g67"
       transform="matrix(1.0000002,0,0,0.99999838,10.95831,1.3556086e-5)">
      <path
         style="fill:none;stroke:#729fcf;stroke-width:0.529167;stroke-linecap:square;stroke-dasharray:none"
         d="M 2.3812899,6.8791667 0.62392726,8.4666693 2.3812899,10.054167"
         id="path66" />
      <path
         style="fill:none;stroke:#0b1521;stroke-width:0.529167;stroke-linecap:square;stroke-dasharray:none"
         d="M 2.026571,6.4864935 -0.1654809,8.4666699 2.0265716,10.446841"
         id="path67" />
    </g>
  </g>
</svg>
