<?xml version="1.0" encoding="UTF-8" standalone="no"?>
<!-- Created with Inkscape (http://www.inkscape.org/) -->

<svg
   width="64"
   height="64"
   viewBox="0 0 16.933333 16.933334"
   version="1.1"
   id="svg998"
   xmlns="http://www.w3.org/2000/svg"
   xmlns:svg="http://www.w3.org/2000/svg"
   xmlns:rdf="http://www.w3.org/1999/02/22-rdf-syntax-ns#"
   xmlns:cc="http://creativecommons.org/ns#"
   xmlns:dc="http://purl.org/dc/elements/1.1/">
  <defs
     id="defs992">
    <rect
       x="13.131983"
       y="10.606602"
       width="74.119943"
       height="82.201164"
       id="rect1" />
  </defs>
  <metadata
     id="metadata995">
    <rdf:RDF>
      <cc:Work
         rdf:about="">
        <dc:format>image/svg+xml</dc:format>
        <dc:type
           rdf:resource="http://purl.org/dc/dcmitype/StillImage" />
      </cc:Work>
    </rdf:RDF>
  </metadata>
  <g
     id="g5"
     transform="matrix(3.2244519,0,0,3.2239805,1.58752,1.1588599)"
     style="stroke-width:0.310153">
    <path
       d="m 1.1926921,0.26458334 c -0.1298315,0 -0.25119311,0.0377826 -0.36380211,0.1131714 C 0.71495655,0.45130483 0.6162468,0.56413571 0.53278404,0.71675214 0.44932106,0.8693686 0.38410683,1.0625234 0.33641359,1.296045 c -0.047693,0.2316828 -0.0718302,0.50539 -0.0718302,0.8216552 0,0.3162655 0.0241371,0.5912345 0.0718302,0.824756 0.0476932,0.2316829 0.11290747,0.4240924 0.19637045,0.5767089 0.0834628,0.1507778 0.18217251,0.2641253 0.29610595,0.3395141 0.112609,0.07355 0.23397061,0.1100709 0.36380211,0.1100709 0.1298315,0 0.2511931,-0.036521 0.3638021,-0.1100709 0.1126087,-0.075389 0.2105757,-0.1887363 0.2940389,-0.3395141 0.082138,-0.1526165 0.1466104,-0.345026 0.1943034,-0.5767089 0.047693,-0.2335215 0.07183,-0.5084905 0.07183,-0.824756 0,-0.3162652 -0.024137,-0.5899724 -0.07183,-0.8216552 C 1.9971435,1.0625234 1.9326711,0.8693686 1.8505331,0.71675214 1.7670699,0.56413571 1.6691029,0.45130483 1.5564942,0.37775474 1.4438852,0.30236589 1.3225236,0.26458334 1.1926921,0.26458334 Z m 2.1125327,0 c -0.1298313,0 -0.2511933,0.0377826 -0.3638021,0.1131714 C 2.8288137,0.45130483 2.7308469,0.56413571 2.6473836,0.71675214 2.5652458,0.8693686 2.5007733,1.0625234 2.4530803,1.296045 c -0.036884,0.1791745 -0.055162,0.391383 -0.063562,0.6211507 0.046781,-0.039756 0.1047041,-0.064279 0.1663981,-0.065112 0.065154,-7.461e-4 0.1263864,0.02518 0.1751832,0.067696 0.00612,-0.1865442 0.017833,-0.3566995 0.041341,-0.4940267 0.031795,-0.1875527 0.074648,-0.3381661 0.1276408,-0.45216879 0.054317,-0.11400267 0.1155946,-0.19581676 0.1844847,-0.24546307 0.070215,-0.0496463 0.1438198,-0.0744141 0.2206585,-0.0744141 0.076839,0 0.1504429,0.0247676 0.2206583,0.0744141 0.070215,0.0496463 0.1320094,0.1314604 0.1850017,0.24546307 0.054317,0.11400269 0.097395,0.26461609 0.129191,0.45216879 0.021413,0.1250728 0.032802,0.2780129 0.039791,0.4439006 0.031666,0.012131 0.061765,0.03048 0.08785,0.055294 l 0.2630329,0.2506307 c 2.045e-4,-0.020293 0.00258,-0.037232 0.00258,-0.057878 0,-0.3162651 -0.024137,-0.5899724 -0.07183,-0.8216552 C 4.1138103,1.0625234 4.0485958,0.8693686 3.9651327,0.71675214 3.8816702,0.56413571 3.7829602,0.45130483 3.6690269,0.37775474 3.5564179,0.30236589 3.4350561,0.26458334 3.3052248,0.26458334 Z M 1.1926921,0.65370688 c 0.076839,0 0.1504436,0.0247676 0.2206584,0.0744141 0.06889,0.0496463 0.1301676,0.1314604 0.1844848,0.24546307 0.052992,0.11400265 0.095845,0.26461605 0.1276408,0.45216875 0.031792,0.185714 0.047542,0.4161347 0.047542,0.6919474 0,0.2758132 -0.015747,0.5080123 -0.047542,0.6955647 -0.031795,0.1857142 -0.074649,0.335066 -0.1276408,0.4490683 -0.054317,0.1140032 -0.1155947,0.1963336 -0.1844848,0.24598 -0.070215,0.047807 -0.1438196,0.071313 -0.2206584,0.071313 -0.076839,0 -0.1504431,-0.023506 -0.22065839,-0.071313 C 0.9018189,3.4586668 0.84002438,3.3763364 0.78703209,3.2623332 0.73271467,3.1483309 0.6896364,2.9989789 0.65784099,2.8132649 0.6260462,2.6257125 0.61029867,2.3935134 0.61029867,2.1177002 c 0,-0.2758127 0.0157469,-0.5062334 0.0475423,-0.6919474 C 0.6896364,1.2382001 0.73271467,1.0875867 0.78703209,0.97358401 0.84002438,0.85958134 0.9018189,0.77776725 0.97203371,0.72812094 1.042249,0.67847452 1.1158531,0.65370688 1.1926921,0.65370688 Z M 0,3.7041668 V 4.2333334 H 0.52916668 V 3.7041668 Z"
       fill="#696969"
       id="path1"
       style="display:inline;fill:#fce94f;stroke:#302b00;stroke-width:0.164122;stroke-dasharray:none" />
    <path
       d="M 4.2333334,3.7982179 3.620464,3.1746151 4.2101885,2.5213234 3.7850787,2.1166667 3.1781706,2.7392157 2.5589598,2.1166667 2.1166667,2.5362074 2.7358772,3.1719542 2.1166667,3.7975485 2.5589598,4.2333334 3.1774522,3.5796568 3.7973813,4.2333334 Z"
       fill="#e68497"
       id="path2-8"
       style="display:inline;fill:#ef2929;stroke:#280000;stroke-width:0.164122;stroke-dasharray:none" />
  </g>
</svg>
