<?xml version="1.0" encoding="UTF-8" standalone="no"?>
<!-- Created with Inkscape (http://www.inkscape.org/) -->

<svg
   width="32"
   height="32"
   viewBox="0 0 8.4666665 8.466667"
   version="1.1"
   id="svg1876"
   style="enable-background:new"
   xmlns="http://www.w3.org/2000/svg"
   xmlns:svg="http://www.w3.org/2000/svg"
   xmlns:rdf="http://www.w3.org/1999/02/22-rdf-syntax-ns#"
   xmlns:cc="http://creativecommons.org/ns#"
   xmlns:dc="http://purl.org/dc/elements/1.1/">
  <defs
     id="defs1870">
    <filter
       style="color-interpolation-filters:sRGB"
       id="filter1958"
       x="-0.00023205696"
       y="-9.8960325e-05"
       width="1.0004641"
       height="1.0001979">
      <feBlend
         mode="exclusion"
         in2="BackgroundImage"
         id="feBlend1960" />
    </filter>
  </defs>
  <metadata
     id="metadata1873">
    <rdf:RDF>
      <cc:Work
         rdf:about="">
        <dc:format>image/svg+xml</dc:format>
        <dc:type
           rdf:resource="http://purl.org/dc/dcmitype/StillImage" />
        <dc:title />
      </cc:Work>
    </rdf:RDF>
  </metadata>
  <g
     id="layer1"
     transform="translate(0,-288.53332)"
     style="filter:url(#filter1958)">
    <g
       id="g838"
       transform="matrix(0.49765365,0,0,0.49765365,0.00909675,149.46693)">
      <path
         id="path2201"
         d="m 2.5550937,292.44231 l -0.024705,-8.93597"
         style="fill:none;stroke:#ff0000;stroke-width:0.64999998;stroke-linecap:butt;stroke-linejoin:miter;stroke-miterlimit:4;stroke-dasharray:none;stroke-opacity:1" />
      <path
         style="fill:none;stroke:#ff0000;stroke-width:0.64999998;stroke-linecap:butt;stroke-linejoin:miter;stroke-miterlimit:4;stroke-dasharray:none;stroke-opacity:1"
         d="m 9.1931928,290.81955 l 5.5357822,-0.0669"
         id="path2291" />
      <path
         style="fill:none;stroke:#ff0000;stroke-width:0.64999998;stroke-linecap:butt;stroke-linejoin:miter;stroke-miterlimit:4;stroke-dasharray:none;stroke-opacity:1"
         d="m 8.5082187,292.48956 l -0.024705,-8.93597"
         id="path2293" />
      <path
         id="path2295"
         d="m 14.225108,292.34783 l -0.0247,-8.93597"
         style="fill:none;stroke:#ff0000;stroke-width:0.64999998;stroke-linecap:butt;stroke-linejoin:miter;stroke-miterlimit:4;stroke-dasharray:none;stroke-opacity:1" />
      <path
         id="path2408"
         d="m 2.1058962,290.81954 l 5.5362686,-0.0669"
         style="fill:none;stroke:#ff0000;stroke-width:0.64999998;stroke-linecap:butt;stroke-linejoin:miter;stroke-miterlimit:4;stroke-dasharray:none;stroke-opacity:1" />
      <path
         d="m 13.313603,291.01911 a 0.8976934,0.8976934 0 0 1 0.603521,-1.11584 a 0.8976934,0.8976934 0 0 1 1.116726,0.60187 a 0.8976934,0.8976934 0 0 1 -0.600218,1.11762 a 0.8976934,0.8976934 0 0 1 -1.118501,-0.59857"
         id="path2410"
         style="opacity:1;fill:#ff0000;fill-opacity:1;fill-rule:nonzero;stroke:#ff0000;stroke-width:0.5;stroke-linecap:square;stroke-linejoin:bevel;stroke-miterlimit:4;stroke-dasharray:none;stroke-dashoffset:0;stroke-opacity:1" />
      <path
         style="opacity:1;fill:#ff0000;fill-opacity:1;fill-rule:nonzero;stroke:#ff0000;stroke-width:0.5;stroke-linecap:square;stroke-linejoin:bevel;stroke-miterlimit:4;stroke-dasharray:none;stroke-dashoffset:0;stroke-opacity:1"
         id="path2448"
         d="m 7.5967139,291.11362 a 0.8976934,0.8976934 0 0 1 0.6035211,-1.11583 a 0.8976934,0.8976934 0 0 1 1.1167253,0.60187 a 0.8976934,0.8976934 0 0 1 -0.6002174,1.11761 a 0.8976934,0.8976934 0 0 1 -1.118501,-0.59856" />
      <path
         style="opacity:1;fill:#ff0000;fill-opacity:1;fill-rule:nonzero;stroke:#ff0000;stroke-width:0.5;stroke-linecap:square;stroke-linejoin:bevel;stroke-miterlimit:4;stroke-dasharray:none;stroke-dashoffset:0;stroke-opacity:1"
         id="path2450"
         d="M 1.6435889,291.01911 A 0.8976934,0.8976934 0 0 1 2.24711,289.90327 a 0.8976934,0.8976934 0 0 1 1.1167253,0.60187 a 0.8976934,0.8976934 0 0 1 -0.6002174,1.11762 a 0.8976934,0.8976934 0 0 1 -1.118501,-0.59857" />
      <path
         style="fill:none;stroke:#ff0000;stroke-width:0.64999998;stroke-linecap:butt;stroke-linejoin:miter;stroke-miterlimit:4;stroke-dasharray:none;stroke-opacity:1"
         d="m 0.02702712,290.81954 l 5.53626868,-0.0669"
         id="path2452" />
      <path
         id="path2454"
         d="m 11.413803,290.81955 l 5.535782,-0.0669"
         style="fill:none;stroke:#ff0000;stroke-width:0.64999998;stroke-linecap:butt;stroke-linejoin:miter;stroke-miterlimit:4;stroke-dasharray:none;stroke-opacity:1" />
    </g>
  </g>
</svg>
