<?xml version="1.0" encoding="UTF-8" standalone="no"?>
<!-- Created with Inkscape (http://www.inkscape.org/) -->

<svg
   width="64"
   height="64"
   viewBox="0 0 16.933333 16.933334"
   version="1.1"
   id="svg2442"
   xmlns="http://www.w3.org/2000/svg"
   xmlns:svg="http://www.w3.org/2000/svg"
   xmlns:rdf="http://www.w3.org/1999/02/22-rdf-syntax-ns#"
   xmlns:cc="http://creativecommons.org/ns#"
   xmlns:dc="http://purl.org/dc/elements/1.1/">
  <defs
     id="defs2436" />
  <metadata
     id="metadata2439">
    <rdf:RDF>
      <cc:Work
         rdf:about="">
        <dc:format>image/svg+xml</dc:format>
        <dc:type
           rdf:resource="http://purl.org/dc/dcmitype/StillImage" />
      </cc:Work>
    </rdf:RDF>
  </metadata>
  <g
     id="g1"
     transform="matrix(1.7156326,0,0,1.6967698,1.2039374,1.2849548)">
    <path
       style="display:none;opacity:1;fill:none;fill-opacity:1;fill-rule:nonzero;stroke:#ffff00;stroke-width:1.25632;stroke-linecap:square;stroke-linejoin:bevel;stroke-miterlimit:4;stroke-dasharray:none;stroke-dashoffset:20.8819;stroke-opacity:1"
       id="path2453"
       d="m 11.582004,284.92081 a 2.1845067,3.6464634 0 0 1 0.956508,-3.30037 2.1845067,3.6464634 0 0 1 2.191502,-0.24447 2.1845067,3.6464634 0 0 1 1.211086,3.05858"
       transform="matrix(0.49842481,0,0,0.49842481,-0.00113074,-139.54835)" />
    <rect
       y="292.05035"
       x="0.95289612"
       height="4.0958862"
       width="4.2289028"
       id="rect2444"
       style="display:none;opacity:1;fill:#ff0000;fill-opacity:1;fill-rule:nonzero;stroke:#ff0000;stroke-width:1.54593;stroke-linecap:square;stroke-linejoin:bevel;stroke-miterlimit:4;stroke-dasharray:none;stroke-dashoffset:20.8819;stroke-opacity:1"
       transform="matrix(0.49842481,0,0,0.49842481,-0.00113074,-139.54835)" />
    <path
       d="m 0.80129009,292.19764 a 2.3239918,3.0456593 0 0 1 0.91477741,-3.27296 2.3239918,3.0456593 0 0 1 2.6596962,-0.004 2.3239918,3.0456593 0 0 1 0.9210204,3.26995 l -2.2484853,-0.77004 z"
       id="path2446"
       style="display:none;opacity:1;fill:none;fill-opacity:1;fill-rule:nonzero;stroke:#ff0000;stroke-width:1.15945;stroke-linecap:square;stroke-linejoin:bevel;stroke-miterlimit:4;stroke-dasharray:none;stroke-dashoffset:20.8819;stroke-opacity:1"
       transform="matrix(0.49842481,0,0,0.49842481,-0.00113074,-139.54835)" />
    <rect
       style="display:none;opacity:1;fill:#ffff00;fill-opacity:1;fill-rule:nonzero;stroke:#241f1c;stroke-width:0.518771;stroke-linecap:square;stroke-linejoin:bevel;stroke-miterlimit:4;stroke-dasharray:none;stroke-dashoffset:20.8819;stroke-opacity:1"
       id="rect2451"
       width="5.1330118"
       height="5.9843373"
       x="6.9455357"
       y="285.09763"
       transform="matrix(0.49842481,0,0,0.49842481,-0.00113074,-139.54835)" />
    <path
       d="m 1.1617009,287.46006 a 4.7719498,4.1104913 0 0 1 0.6698145,-4.11211 4.7719498,4.1104913 0 0 1 4.4901588,-1.51089"
       id="path2467"
       style="display:inline;opacity:1;fill:none;fill-opacity:1;fill-rule:nonzero;stroke:#34e0e2;stroke-width:1.24451236;stroke-linecap:square;stroke-linejoin:bevel;stroke-miterlimit:4;stroke-dasharray:none;stroke-dashoffset:20.8819;stroke-opacity:1"
       transform="matrix(0.49842481,0,0,0.49842481,-0.00113074,-139.54835)" />
    <path
       d="m 1.1617009,287.46006 a 4.7719498,4.1104913 0 0 1 0.6698145,-4.11211 4.7719498,4.1104913 0 0 1 4.4901588,-1.51089"
       id="path15"
       style="display:inline;opacity:1;fill:none;fill-opacity:1;fill-rule:nonzero;stroke:#042a2a;stroke-width:0.62225619;stroke-linecap:square;stroke-linejoin:bevel;stroke-miterlimit:4;stroke-dasharray:none;stroke-dashoffset:20.8819;stroke-opacity:1"
       transform="matrix(0.49842481,0,0,0.4984248,-0.00113075,-139.54835)" />
    <path
       transform="matrix(-0.3856219,0.01518166,-0.02045842,-0.28615987,4.0206064,80.576497)"
       d="m -9.8037565,277.79408 -0.1227514,2.74144 -2.3127871,-1.47703 -2.312787,-1.47703 2.435538,-1.26441 2.4355389,-1.26442 z"
       id="path2471"
       style="display:inline;opacity:1;fill:#34e0e2;fill-opacity:1;fill-rule:nonzero;stroke:#042a2a;stroke-width:0.999932;stroke-linecap:square;stroke-linejoin:miter;stroke-miterlimit:4;stroke-dasharray:none;stroke-dashoffset:20.8819;stroke-opacity:1" />
    <path
       transform="matrix(-0.49842481,0,0,-0.49842481,-0.00113074,-139.54835)"
       style="display:inline;opacity:1;fill:none;fill-opacity:1;fill-rule:nonzero;stroke:#042a2a;stroke-width:1.24451236;stroke-linecap:square;stroke-linejoin:bevel;stroke-miterlimit:4;stroke-dasharray:none;stroke-dashoffset:20.8819;stroke-opacity:1"
       id="path2473"
       d="m -15.358966,-289.39394 a 4.7719498,4.1104913 0 0 1 0.669815,-4.11211 4.7719498,4.1104913 0 0 1 4.490159,-1.51089" />
    <path
       transform="matrix(-0.49842481,0,0,-0.4984248,-0.00113075,-139.54835)"
       style="display:inline;opacity:1;fill:none;fill-opacity:1;fill-rule:nonzero;stroke:#34e0e2;stroke-width:0.62225619;stroke-linecap:square;stroke-linejoin:bevel;stroke-miterlimit:4;stroke-dasharray:none;stroke-dashoffset:20.8819;stroke-opacity:1"
       id="path16"
       d="m -15.358966,-289.39394 a 4.7719498,4.1104913 0 0 1 0.669815,-4.11211 4.7719498,4.1104913 0 0 1 4.490159,-1.51089" />
    <path
       style="display:inline;opacity:1;fill:#042a2a;fill-opacity:1;fill-rule:nonzero;stroke:#34e0e2;stroke-width:0.85545;stroke-linecap:square;stroke-linejoin:miter;stroke-miterlimit:4;stroke-dasharray:none;stroke-dashoffset:20.8819;stroke-opacity:1"
       id="path2475"
       d="m -9.8037565,277.79408 -0.1227514,2.74144 -2.3127871,-1.47703 -2.312787,-1.47703 2.435538,-1.26441 2.4355389,-1.26442 z"
       transform="matrix(0.41195564,-0.0168806,0.0218555,0.31818323,4.2126353,-81.161644)" />
  </g>
  <g
     id="g35"
     transform="matrix(0.06862608,0,0,0.0686263,7.0175856,1.931298)">
    <path
       style="color:#000000;display:none;fill:none;stroke:#000000;stroke-width:15.4217;stroke-linecap:round;stroke-linejoin:round;stroke-dasharray:none;stroke-opacity:1"
       d="m 71.443307,53.682984 c 0.0363,-9.83311 0.0696,-19.666241 0.0955,-29.499381 -0.001,-13.328567 -12.75992,-24.02929713 -28.35742,-24.02929713 l -0.0015,-6e-6 c -15.598268,0 -28.355469,10.70181313 -28.355469,24.03125013 0.02998,9.832532 0.1367,29.497434 0.1367,29.497434"
       id="path7" />
    <path
       style="color:#000000;display:inline;fill:none;stroke:#042a2a;stroke-width:15.4217;stroke-linecap:round;stroke-linejoin:round;stroke-dasharray:none;stroke-opacity:1"
       d="m 117.40597,52.374387 c 0.0363,-9.83311 0.0696,-19.666241 0.0955,-29.499381 -10e-4,-13.3285664 -12.75992,-24.0292969 -28.35742,-24.0292969 l -0.0015,-6e-6 c -15.598268,0 -28.355469,10.7018133 -28.355469,24.0312499 0.02998,9.832532 0.1367,29.497434 0.1367,29.497434"
       id="path33" />
    <path
       style="color:#000000;display:inline;fill:none;stroke:#34e0e2;stroke-width:7.71084;stroke-linecap:round;stroke-linejoin:round;stroke-dasharray:none;stroke-opacity:1"
       d="m 117.40597,52.374387 c 0.0363,-9.83311 0.0696,-19.666241 0.0955,-29.499381 -10e-4,-13.3285664 -12.75992,-24.0292969 -28.35742,-24.0292969 l -0.0015,-6e-6 c -15.598268,0 -28.355469,10.7018133 -28.355469,24.0312499 0.02998,9.832532 0.1367,29.497434 0.1367,29.497434"
       id="path8" />
    <path
       style="display:inline;fill:#34e0e2;stroke:#042a2a;stroke-width:7.71084;stroke-linecap:round;stroke-linejoin:round;stroke-dasharray:none"
       d="m 6.0010524,48.1457 c -0.170188,0 -0.3072,0.137011 -0.3072,0.3072 v 61.3929 c 0,0.17019 0.137012,0.3072 0.3072,0.3072 H 91.442553 c 0.170189,0 0.3072,-0.13701 0.3072,-0.3072 V 48.4529 c 0,-0.170189 -0.137011,-0.3072 -0.3072,-0.3072 z"
       id="path35" />
    <path
       d="m 43.181641,60.824219 c -0.3909,0 -0.780472,0.0192 -1.167969,0.05859 -0.382892,0.03892 -0.762409,0.09677 -1.138672,0.173829 -0.369475,0.07567 -0.739109,0.169784 -1.103516,0.283203 -3.591396,1.117788 -6.42525,3.952395 -7.542968,7.542968 -0.112064,0.359998 -0.206582,0.727494 -0.283204,1.101563 -0.0771,0.376413 -0.134927,0.756088 -0.173828,1.138672 -0.03946,0.388057 -0.05859,0.780552 -0.05859,1.169922 0,0.634782 0.05124,1.260171 0.152343,1.873047 0.102152,0.619212 0.2533,1.212992 0.445313,1.783203 0.189631,0.56314 0.424773,1.120366 0.708984,1.662109 0.277906,0.529725 0.595532,1.035505 0.949219,1.511719 0.360298,0.485115 0.753228,0.929343 1.166016,1.335937 0.419309,0.41302 0.872433,0.797003 1.355468,1.144532 0.03106,0.02235 0.06439,0.04239 0.0957,0.06445 l -3.597656,20.910161 20.587891,-0.082 -4.425781,-20.408199 c 3.310743,-2.016194 5.501125,-5.650552 5.5,-9.794922 0,-0.38937 -0.01914,-0.781865 -0.05859,-1.169922 -0.0389,-0.382584 -0.09672,-0.762259 -0.173828,-1.138672 -0.07662,-0.374063 -0.171136,-0.741555 -0.283203,-1.101563 -1.117829,-3.590942 -3.952018,-6.425134 -7.542969,-7.542968 -0.364244,-0.113386 -0.734798,-0.207676 -1.103516,-0.283203 -0.376411,-0.0771 -0.756085,-0.134928 -1.138672,-0.173829 -0.387643,-0.03941 -0.777101,-0.05859 -1.167968,-0.05859 z"
       style="display:inline;fill:#042a2a;stroke:#06989a;stroke-width:7.71084;stroke-linecap:round;stroke-linejoin:round;stroke-dasharray:none"
       id="path34"
       transform="translate(5.5402524,-2.219471)" />
  </g>
  <g
     id="g13"
     transform="matrix(0.06862628,0,0,0.0686265,1.5770735,7.7864183)">
    <path
       style="color:#000000;display:inline;fill:none;stroke:#34e0e2;stroke-width:15.4217;stroke-linecap:round;stroke-linejoin:round;stroke-dasharray:none;stroke-opacity:1"
       d="m 71.443307,53.682984 c 0.0363,-9.83311 0.0696,-19.666241 0.0955,-29.499381 -0.001,-13.328567 -12.75992,-24.02929713 -28.35742,-24.02929713 l -0.0015,-6e-6 c -15.598268,0 -28.355469,10.70181313 -28.355469,24.03125013 0.02998,9.832532 0.1367,29.497434 0.1367,29.497434"
       id="path9" />
    <path
       style="color:#000000;display:inline;fill:none;stroke:#042a2a;stroke-width:7.71084;stroke-linecap:round;stroke-linejoin:round;stroke-dasharray:none;stroke-opacity:1"
       d="m 71.443307,53.682984 c 0.0363,-9.83311 0.0696,-19.666241 0.0955,-29.499381 -0.001,-13.328567 -12.75992,-24.02929713 -28.35742,-24.02929713 l -0.0015,-6e-6 c -15.598268,0 -28.355469,10.70181313 -28.355469,24.03125013 0.02998,9.832532 0.1367,29.497434 0.1367,29.497434"
       id="path14" />
    <path
       style="color:#000000;display:none;fill:none;stroke:#042a2a;stroke-width:15.4217;stroke-linecap:round;stroke-linejoin:round;stroke-dasharray:none;stroke-opacity:1"
       d="m 117.40597,52.374387 c 0.0363,-9.83311 0.0696,-19.666241 0.0955,-29.499381 -10e-4,-13.3285664 -12.75992,-24.0292969 -28.35742,-24.0292969 l -0.0015,-6e-6 c -15.598268,0 -28.355469,10.7018133 -28.355469,24.0312499 0.02998,9.832532 0.1367,29.497434 0.1367,29.497434"
       id="path10" />
    <path
       style="color:#000000;display:none;fill:none;stroke:#34e0e2;stroke-width:7.71084;stroke-linecap:round;stroke-linejoin:round;stroke-dasharray:none;stroke-opacity:1"
       d="m 117.40597,52.374387 c 0.0363,-9.83311 0.0696,-19.666241 0.0955,-29.499381 -10e-4,-13.3285664 -12.75992,-24.0292969 -28.35742,-24.0292969 l -0.0015,-6e-6 c -15.598268,0 -28.355469,10.7018133 -28.355469,24.0312499 0.02998,9.832532 0.1367,29.497434 0.1367,29.497434"
       id="path11" />
    <path
       style="display:inline;fill:#042a2a;stroke:#34e0e2;stroke-width:7.71084;stroke-linecap:round;stroke-linejoin:round;stroke-dasharray:none"
       d="m 0.4608,48.1457 c -0.17018847,0 -0.3072,0.137011 -0.3072,0.3072 v 61.3929 c 0,0.17019 0.13701153,0.3072 0.3072,0.3072 h 85.4415 c 0.170189,0 0.3072,-0.13701 0.3072,-0.3072 V 48.4529 c 0,-0.170189 -0.137011,-0.3072 -0.3072,-0.3072 z"
       id="path12" />
    <path
       d="m 43.181641,60.824219 c -0.3909,0 -0.780472,0.0192 -1.167969,0.05859 -0.382892,0.03892 -0.762409,0.09677 -1.138672,0.173829 -0.369474,0.07567 -0.739109,0.169784 -1.103516,0.283203 -3.591392,1.117787 -6.425251,3.952398 -7.542968,7.542968 -0.112064,0.359997 -0.206582,0.727495 -0.283204,1.101563 -0.0771,0.376413 -0.134927,0.756088 -0.173828,1.138672 -0.03946,0.388056 -0.05859,0.780552 -0.05859,1.169922 0,0.634782 0.05124,1.260171 0.152343,1.873047 0.102152,0.619211 0.253301,1.212992 0.445313,1.783203 0.189631,0.56314 0.424774,1.120366 0.708984,1.662109 0.277906,0.529724 0.595533,1.035506 0.949219,1.511719 0.360298,0.485115 0.753229,0.929343 1.166016,1.335937 0.419309,0.413019 0.872433,0.797004 1.355468,1.144532 0.0311,0.02237 0.06436,0.04237 0.0957,0.06445 l -3.597656,20.910161 20.587891,-0.082 -4.425781,-20.408199 c 3.31074,-2.016192 5.501125,-5.650556 5.5,-9.794922 0,-0.38937 -0.01914,-0.781866 -0.05859,-1.169922 -0.0389,-0.382584 -0.09672,-0.762259 -0.173828,-1.138672 -0.07662,-0.374063 -0.171136,-0.741556 -0.283203,-1.101563 -1.117828,-3.590938 -3.952022,-6.425135 -7.542969,-7.542968 -0.364244,-0.113386 -0.734798,-0.207676 -1.103516,-0.283203 -0.376411,-0.0771 -0.756085,-0.134928 -1.138672,-0.173829 -0.387643,-0.03941 -0.777101,-0.05859 -1.167968,-0.05859 z"
       style="display:inline;fill:#34e0e2;stroke:#16d0d2;stroke-width:7.71084;stroke-linecap:round;stroke-linejoin:round;stroke-dasharray:none"
       id="path13"
       transform="translate(-1.669671e-7,-2.219471)" />
  </g>
</svg>
