<?xml version="1.0" encoding="UTF-8" standalone="no"?>
<!-- Created with Inkscape (http://www.inkscape.org/) -->

<svg
   width="64"
   height="64"
   viewBox="0 0 16.933333 16.933334"
   version="1.1"
   id="svg1760"
   xmlns:xlink="http://www.w3.org/1999/xlink"
   xmlns="http://www.w3.org/2000/svg"
   xmlns:svg="http://www.w3.org/2000/svg"
   xmlns:rdf="http://www.w3.org/1999/02/22-rdf-syntax-ns#"
   xmlns:cc="http://creativecommons.org/ns#"
   xmlns:dc="http://purl.org/dc/elements/1.1/">
  <defs
     id="defs1754">
    <linearGradient
       xlink:href="#linearGradient6"
       id="linearGradient2"
       x1="4.4678578"
       y1="282.99539"
       x2="14.767755"
       y2="292.10928"
       gradientUnits="userSpaceOnUse" />
    <linearGradient
       id="linearGradient6">
      <stop
         style="stop-color:#888a85;stop-opacity:1;"
         offset="0"
         id="stop6" />
      <stop
         style="stop-color:#d3d7cf;stop-opacity:1"
         offset="1"
         id="stop7" />
    </linearGradient>
  </defs>
  <metadata
     id="metadata1757">
    <rdf:RDF>
      <cc:Work
         rdf:about="">
        <dc:format>image/svg+xml</dc:format>
        <dc:type
           rdf:resource="http://purl.org/dc/dcmitype/StillImage" />
      </cc:Work>
    </rdf:RDF>
  </metadata>
  <g
     id="layer1"
     transform="matrix(0.66569111,0,0,0.66658883,3.2159137,-182.49782)"
     style="display:inline">
    <path
       style="display:inline;fill:none;fill-opacity:1;stroke:#0b1521;stroke-width:2.38325;stroke-linecap:square;stroke-linejoin:round;stroke-miterlimit:4;stroke-dasharray:none;stroke-dashoffset:0;stroke-opacity:1"
       d="M 17.421734,286.37777 H -1.6463867"
       id="path3" />
    <path
       style="display:inline;fill:none;fill-opacity:1;stroke:#729fcf;stroke-width:0.794378;stroke-linecap:square;stroke-linejoin:round;stroke-miterlimit:4;stroke-dasharray:none;stroke-dashoffset:0;stroke-opacity:1"
       d="m 18.217227,286.41767 -20.6592914,-2.1e-4"
       id="path4" />
    <path
       style="display:inline;fill:none;fill-opacity:1;stroke:#0b1521;stroke-width:2.38313;stroke-linecap:butt;stroke-linejoin:miter;stroke-miterlimit:4;stroke-dasharray:none;stroke-dashoffset:0;stroke-opacity:1"
       d="m 7.9409309,275.76787 v 21.42461"
       id="path1" />
    <path
       style="display:inline;fill:none;fill-opacity:1;stroke:#729fcf;stroke-width:0.794378;stroke-linecap:butt;stroke-linejoin:miter;stroke-miterlimit:4;stroke-dasharray:none;stroke-dashoffset:0;stroke-opacity:1"
       d="m 7.9413284,275.76787 v 21.42461"
       id="path7" />
    <path
       id="path839"
       style="display:inline;opacity:1;fill:#d3d7cf;fill-opacity:1;fill-rule:nonzero;stroke:#555753;stroke-width:0.794378;stroke-linecap:square;stroke-linejoin:bevel;stroke-miterlimit:4;stroke-dasharray:none;stroke-dashoffset:0;stroke-opacity:1"
       d="m 7.6401415,279.05054 a 7.4344625,7.4363966 0 0 0 -3.9718506,1.31 7.4344625,7.4363966 0 0 0 -1.9130615,10.3265 l 0.045992,0.0661 a 7.4344625,7.4363966 0 0 0 10.3394206,1.82934 7.4344625,7.4363966 0 0 0 1.856734,-10.33683 7.4344625,7.4363966 0 0 0 -6.3572345,-3.19516 z m 0.05271,1.5813 a 5.8529654,5.8544874 0 0 1 5.0048625,2.51561 5.8529654,5.8544874 0 0 1 -1.461926,8.13749 5.8529654,5.8544874 0 0 1 -8.1395552,-1.43971 l -0.03669,-0.0527 a 5.8529654,5.8544874 0 0 1 1.506368,-8.12973 5.8529654,5.8544874 0 0 1 3.1269409,-1.03095 z" />
    <path
       style="display:inline;fill:none;fill-opacity:1;stroke:#555753;stroke-width:2.38313;stroke-linecap:square;stroke-linejoin:round;stroke-miterlimit:4;stroke-dasharray:none;stroke-dashoffset:0;stroke-opacity:1"
       d="m 14.996912,286.37777 -14.25829233,0"
       id="path5" />
    <path
       style="display:inline;fill:none;fill-opacity:1;stroke:#d3d7cf;stroke-width:0.798449;stroke-linecap:butt;stroke-linejoin:miter;stroke-miterlimit:4;stroke-dasharray:7.98449, 3.19379, 1.5969, 3.19379;stroke-dashoffset:3.99225;stroke-opacity:1"
       d="M 16.206356,286.42501 H -0.45621585"
       id="path2" />
    <g
       id="g6">
      <path
         style="display:inline;fill:none;fill-opacity:1;stroke:#555753;stroke-width:2.38313;stroke-linecap:butt;stroke-linejoin:miter;stroke-miterlimit:4;stroke-dasharray:none;stroke-dashoffset:0;stroke-opacity:1"
         d="m 7.9409309,278.54897 0,15.86426"
         id="path6" />
      <path
         style="display:inline;fill:none;fill-opacity:1;stroke:#d3d7cf;stroke-width:0.794378;stroke-linecap:butt;stroke-linejoin:miter;stroke-miterlimit:4;stroke-dasharray:7.94378, 3.17751, 1.58876, 3.17751;stroke-dashoffset:3.97189;stroke-opacity:1"
         d="m 7.9413284,278.54354 v 15.86784"
         id="path8" />
    </g>
  </g>
  <g
     id="g7"
     style="enable-background:new"
     transform="matrix(0.66569111,0,0,0.66658883,-1.0167423,-0.54408285)">
    <circle
       style="fill:#d3d7cf;stroke:#555753;stroke-width:0.79437777;stroke-dasharray:none"
       id="path3-1"
       cx="14.24596"
       cy="13.518621"
       r="1.3229166" />
    <path
       style="fill:#555753;stroke:#d3d7cf;stroke-width:0.79437777;stroke-dasharray:none"
       id="circle1"
       d="m 14.246094,12.724609 c 0.435056,0 0.792968,0.358894 0.792969,0.794922 0,0.436029 -0.356941,0.792969 -0.792969,0.792969 -0.436029,0 -0.792969,-0.35694 -0.792969,-0.792969 0,-0.436028 0.357913,-0.794922 0.792969,-0.794922 z" />
  </g>
</svg>
