<?xml version="1.0" encoding="UTF-8" standalone="no"?>
<!-- Created with Inkscape (http://www.inkscape.org/) -->

<svg
   width="64"
   height="64"
   viewBox="0 0 16.933333 16.933334"
   version="1.1"
   id="svg998"
   xmlns="http://www.w3.org/2000/svg"
   xmlns:svg="http://www.w3.org/2000/svg"
   xmlns:rdf="http://www.w3.org/1999/02/22-rdf-syntax-ns#"
   xmlns:cc="http://creativecommons.org/ns#"
   xmlns:dc="http://purl.org/dc/elements/1.1/">
  <defs
     id="defs992" />
  <metadata
     id="metadata995">
    <rdf:RDF>
      <cc:Work
         rdf:about="">
        <dc:format>image/svg+xml</dc:format>
        <dc:type
           rdf:resource="http://purl.org/dc/dcmitype/StillImage" />
      </cc:Work>
    </rdf:RDF>
  </metadata>
  <g
     id="layer3">
    <path
       style="font-size:32px;text-align:end;text-anchor:end;white-space:pre;shape-padding:1.01016;fill:#fce94f;stroke:#302b00;stroke-width:0.529169;stroke-linecap:square"
       d="m 4.415116,14.767122 q 0,-0.272852 0.1322932,-0.417546 0.1364274,-0.148828 0.3844772,-0.148828 0.2521839,0 0.3927454,0.148828 0.1405614,0.144694 0.1405614,0.417546 0,0.268717 -0.1405614,0.425813 -0.1405615,0.152962 -0.3927454,0.152962 -0.2439157,0 -0.3803431,-0.152962 Q 4.415116,15.039973 4.415116,14.767122 Z m 6.089622,-2.571418 q 0,1.575096 -0.500233,2.344042 -0.4960993,0.768944 -1.5131037,0.768944 -0.9839314,0 -1.4924334,-0.789615 -0.5085021,-0.79375 -0.5085021,-2.323371 0,-1.579231 0.4878313,-2.3440422 0.4919655,-0.7648106 1.5131042,-0.7648106 0.9839309,0 1.4965672,0.7937495 0.5167695,0.7937493 0.5167695,2.3151033 z m -3.2659888,0 q 0,1.314648 0.29766,1.897557 0.3017943,0.58291 0.9549921,0.58291 0.6614663,0 0.959126,-0.595312 0.3017927,-0.599446 0.3017927,-1.885155 0,-1.273307 -0.3017927,-1.872753 -0.2976597,-0.5994464 -0.959126,-0.5994464 -0.661466,0 -0.9591262,0.5870434 -0.2935259,0.587044 -0.2935259,1.885156 z m 8.1070948,0 q 0,1.575096 -0.500235,2.344042 -0.4961,0.768944 -1.513104,0.768944 -0.983931,0 -1.492431,-0.789615 -0.508504,-0.79375 -0.508504,-2.323371 0,-1.579231 0.487832,-2.3440422 0.491966,-0.7648106 1.513103,-0.7648106 0.983931,0 1.496567,0.7937495 0.516772,0.7937493 0.516772,2.3151033 z m -3.265989,0 q 0,1.314648 0.29766,1.897557 0.301792,0.58291 0.95499,0.58291 0.661466,0 0.959126,-0.595312 0.301795,-0.599446 0.301795,-1.885155 0,-1.273307 -0.301795,-1.872753 -0.29766,-0.5994464 -0.959126,-0.5994464 -0.661466,0 -0.959126,0.5870434 -0.293524,0.587044 -0.293524,1.885156 z"
       id="path4" />
    <g
       id="g1"
       transform="translate(0,-7.4993498)">
      <path
         style="font-size:32px;text-align:end;text-anchor:end;white-space:pre;shape-padding:1.01016;display:inline;fill:#fce94f;stroke:#302b00;stroke-width:0.529167;stroke-linecap:square"
         d="m 9.2561964,14.767062 q 0,-0.272848 0.1322935,-0.417541 0.1364282,-0.148826 0.384479,-0.148826 0.2521851,0 0.3927471,0.148826 0.140562,0.144693 0.140562,0.417541 0,0.268715 -0.140562,0.42581 -0.140562,0.15296 -0.3927471,0.15296 -0.2439165,0 -0.3803446,-0.15296 -0.1364279,-0.152961 -0.1364279,-0.42581 z m 6.0896486,-2.571391 q 0,1.57508 -0.500237,2.344017 -0.496101,0.768938 -1.513109,0.768938 -0.983936,0 -1.49244,-0.789608 -0.508504,-0.793741 -0.508504,-2.323347 0,-1.579215 0.487833,-2.3440177 0.491968,-0.7648033 1.513111,-0.7648033 0.983934,0 1.496572,0.7937418 0.516774,0.7937412 0.516774,2.3150792 z m -3.266003,0 q 0,1.314634 0.297661,1.897538 0.301795,0.582904 0.954996,0.582904 0.661468,0 0.959129,-0.595306 0.301796,-0.59944 0.301796,-1.885136 0,-1.273294 -0.301796,-1.872734 -0.297661,-0.5994399 -0.959129,-0.5994399 -0.661469,0 -0.959131,0.5870379 -0.293526,0.587038 -0.293526,1.885136 z"
         id="path6" />
      <path
         d="M 3.9946609,11.273896 4.5238276,9.6863955 1.5874809,11.803062 4.5238276,13.919729 3.9946609,12.332229 H 10.620634 V 11.273896 Z"
         id="text6"
         style="font-size:14.8167px;line-height:0px;text-align:end;text-anchor:end;fill:#fce94f;stroke:#302b00;stroke-width:0.529166;stroke-linecap:square;stroke-linejoin:round"
         aria-label="→" />
    </g>
  </g>
</svg>
