DBRep_DrawableShape

CASCADE Topology V1, (c) Matra-Datavision
Locations 2
1
              1               0               0               0
              0               1               0               0
              0               0               1               0
2  1 -1 0
Curve2ds 6
1 0 10 1 0
2 0 0 1 0 -0 1 2
1 6.2831853071795862 -0 0 1
1 0 -0 0 1
1 0 0 1 0
2 0 0 1 0 -0 1 2
Curves 3
2 0 0 10 0 0 1 1 0 -0 -0 1 0 2
1 2 -4.898425415289509e-16 0 0 0 1
2 0 0 0 0 0 1 1 0 -0 -0 1 0 2
Polygon3D 0
PolygonOnTriangulations 6
26 1 3 4 5 6 7 8 9 10 11 12 13 14 15 16 17 18 19 20 21 22 23 24 25 26 2
p 0.0310985626705653 1 0 0.251327412287184 0.502654824574367 0.753982236861551 1.00530964914873 1.25663706143592 1.5079644737231 1.75929188601029 2.01061929829747 2.26194671058465 2.51327412287184 2.76460153515902 3.0159289474462 3.26725635973339 3.51858377202057 3.76991118430776 4.02123859659494 4.27256600888212 4.52389342116931 4.77522083345649 5.02654824574367 5.27787565803086 5.52920307031804 5.78053048260523 6.03185789489241 6.28318530717959
26 1 2 3 4 5 6 7 8 9 10 11 12 13 14 15 16 17 18 19 20 21 22 23 24 25 1
p 0.0310985626705653 1 0 0.251327412287184 0.502654824574367 0.753982236861551 1.00530964914873 1.25663706143592 1.5079644737231 1.75929188601029 2.01061929829747 2.26194671058465 2.51327412287184 2.76460153515902 3.0159289474462 3.26725635973339 3.51858377202057 3.76991118430776 4.02123859659494 4.27256600888212 4.52389342116931 4.77522083345649 5.02654824574367 5.27787565803086 5.52920307031804 5.78053048260523 6.03185789489241 6.28318530717959
2 27 2
p 0.0310985626705653 1 0 10
2 28 1
p 0.0310985626705653 1 0 10
26 28 29 30 31 32 33 34 35 36 37 38 39 40 41 42 43 44 45 46 47 48 49 50 51 52 27
p 0.0310985626705653 1 0 0.251327412287184 0.502654824574367 0.753982236861551 1.00530964914873 1.25663706143592 1.5079644737231 1.75929188601029 2.01061929829747 2.26194671058465 2.51327412287184 2.76460153515902 3.0159289474462 3.26725635973339 3.51858377202057 3.76991118430776 4.02123859659494 4.27256600888212 4.52389342116931 4.77522083345649 5.02654824574367 5.27787565803086 5.52920307031804 5.78053048260523 6.03185789489241 6.28318530717959
26 1 2 3 4 5 6 7 8 9 10 11 12 13 14 15 16 17 18 19 20 21 22 23 24 25 1
p 0.0310985626705653 1 0 0.251327412287184 0.502654824574367 0.753982236861551 1.00530964914873 1.25663706143592 1.5079644737231 1.75929188601029 2.01061929829747 2.26194671058465 2.51327412287184 2.76460153515902 3.0159289474462 3.26725635973339 3.51858377202057 3.76991118430776 4.02123859659494 4.27256600888212 4.52389342116931 4.77522083345649 5.02654824574367 5.27787565803086 5.52920307031804 5.78053048260523 6.03185789489241 6.28318530717959
Surfaces 3
2 0 0 0 0 0 1 1 0 -0 -0 1 0 2
1 0 0 10 0 0 1 1 0 -0 -0 1 0
1 0 0 0 0 0 1 1 0 -0 -0 1 0
Triangulations 3
52 50 1 0.0157705973710445
2 -4.89842541528951e-16 10 2 -4.89842541528951e-16 10 1.93716632225726 0.49737977432971 10 1.75261336008773 0.963507348203431 10 1.45793725484282 1.36909421185738 10 1.07165358995799 1.68865585100403 10 0.618033988749894 1.90211303259031 10 0.125581039058625 1.99605345685654 10 -0.374762629171451 1.96457450145738 10 -0.851558583130147 1.80965410493204 10 -1.27484797949738 1.54102648555158 10 -1.6180339887499 1.17557050458494 10 -1.8595529717765 0.736249105369352 10 -1.98422940262896 0.250666467128604 10 -1.98422940262896 -0.250666467128614 10 -1.8595529717765 -0.736249105369362 10 -1.61803398874989 -1.17557050458495 10 -1.27484797949737 -1.54102648555158 10 -0.851558583130138 -1.80965410493204 10 -0.374762629171441 -1.96457450145738 10 0.125581039058636 -1.99605345685654 10 0.618033988749905 -1.9021130325903 10 1.071653589958 -1.68865585100402 10 1.45793725484283 -1.36909421185737 10 1.75261336008773 -0.96350734820342 10 1.93716632225727 -0.497379774329697 10 2 -4.89842541528951e-16 0 2 -4.89842541528951e-16 0 1.93716632225726 0.49737977432971 0 1.75261336008773 0.963507348203431 0 1.45793725484282 1.36909421185738 0 1.07165358995799 1.68865585100403 0 0.618033988749894 1.90211303259031 0 0.125581039058625 1.99605345685654 0 -0.374762629171451 1.96457450145738 0 -0.851558583130147 1.80965410493204 0 -1.27484797949738 1.54102648555158 0 -1.6180339887499 1.17557050458494 0 -1.8595529717765 0.736249105369352 0 -1.98422940262896 0.250666467128604 0 -1.98422940262896 -0.250666467128614 0 -1.8595529717765 -0.736249105369362 0 -1.61803398874989 -1.17557050458495 0 -1.27484797949737 -1.54102648555158 0 -0.851558583130138 -1.80965410493204 0 -0.374762629171441 -1.96457450145738 0 0.125581039058636 -1.99605345685654 0 0.618033988749905 -1.9021130325903 0 1.071653589958 -1.68865585100402 0 1.45793725484283 -1.36909421185737 0 1.75261336008773 -0.96350734820342 0 1.93716632225727 -0.497379774329697 0 0 10 6.28318530717959 10 0.251327412287184 10 0.502654824574367 10 0.753982236861551 10 1.00530964914873 10 1.25663706143592 10 1.5079644737231 10 1.75929188601029 10 2.01061929829747 10 2.26194671058465 10 2.51327412287184 10 2.76460153515902 10 3.0159289474462 10 3.26725635973339 10 3.51858377202057 10 3.76991118430776 10 4.02123859659494 10 4.27256600888212 10 4.52389342116931 10 4.77522083345649 10 5.02654824574367 10 5.27787565803086 10 5.52920307031804 10 5.78053048260523 10 6.03185789489241 10 6.28318530717959 0 0 0 0.251327412287184 0 0.502654824574367 0 0.753982236861551 0 1.00530964914873 0 1.25663706143592 0 1.5079644737231 0 1.75929188601029 0 2.01061929829747 0 2.26194671058465 0 2.51327412287184 0 2.76460153515902 0 3.0159289474462 0 3.26725635973339 0 3.51858377202057 0 3.76991118430776 0 4.02123859659494 0 4.27256600888212 0 4.52389342116931 0 4.77522083345649 0 5.02654824574367 0 5.27787565803086 0 5.52920307031804 0 5.78053048260523 0 6.03185789489241 0 22 21 47 22 47 48 22 48 49 23 22 49 3 28 29 3 1 28 24 23 49 24 49 50 24 50 51 4 29 30 4 3 29 25 24 51 5 30 31 26 51 52 5 4 30 26 25 51 26 52 27 2 26 27 6 31 32 6 32 33 6 5 31 7 6 33 8 33 34 8 34 35 8 7 33 9 8 35 10 35 36 10 9 35 11 36 37 11 10 36 12 37 38 12 11 37 13 38 39 13 12 38 14 13 39 14 39 40 15 14 40 15 40 41 16 15 41 16 41 42 17 16 42 17 42 43 18 17 43 18 43 44 19 18 44 19 44 45 19 45 46 20 19 46 20 46 47 21 20 47
26 25 1 2.22044604925031e-16
2 -4.89842541528951e-16 10 1.93716632225726 0.49737977432971 10 1.75261336008773 0.963507348203431 10 1.45793725484282 1.36909421185738 10 1.07165358995799 1.68865585100403 10 0.618033988749894 1.90211303259031 10 0.125581039058625 1.99605345685654 10 -0.374762629171451 1.96457450145738 10 -0.851558583130147 1.80965410493204 10 -1.27484797949738 1.54102648555158 10 -1.6180339887499 1.17557050458494 10 -1.8595529717765 0.736249105369352 10 -1.98422940262896 0.250666467128604 10 -1.98422940262896 -0.250666467128614 10 -1.8595529717765 -0.736249105369362 10 -1.61803398874989 -1.17557050458495 10 -1.27484797949737 -1.54102648555158 10 -0.851558583130138 -1.80965410493204 10 -0.374762629171441 -1.96457450145738 10 0.125581039058636 -1.99605345685654 10 0.618033988749905 -1.9021130325903 10 1.071653589958 -1.68865585100402 10 1.45793725484283 -1.36909421185737 10 1.75261336008773 -0.96350734820342 10 1.93716632225727 -0.497379774329697 10 0.0078852986855219 3.33066907387547e-16 10 2 0 1.93716632225726 0.49737977432971 1.75261336008773 0.963507348203431 1.45793725484282 1.36909421185738 1.07165358995799 1.68865585100403 0.618033988749894 1.90211303259031 0.125581039058625 1.99605345685654 -0.374762629171451 1.96457450145738 -0.851558583130147 1.80965410493204 -1.27484797949738 1.54102648555158 -1.6180339887499 1.17557050458494 -1.8595529717765 0.736249105369352 -1.98422940262896 0.250666467128604 -1.98422940262896 -0.250666467128614 -1.8595529717765 -0.736249105369362 -1.61803398874989 -1.17557050458495 -1.27484797949737 -1.54102648555158 -0.851558583130138 -1.80965410493204 -0.374762629171441 -1.96457450145738 0.125581039058636 -1.99605345685654 0.618033988749904 -1.9021130325903 1.071653589958 -1.68865585100402 1.45793725484283 -1.36909421185737 1.75261336008773 -0.96350734820342 1.93716632225727 -0.497379774329697 0.00788529868552179 2.22044604925031e-16 26 1 2 26 2 3 26 3 4 26 4 5 26 5 6 26 6 7 26 7 8 26 8 9 26 9 10 26 10 11 26 11 12 26 12 13 26 13 14 26 14 15 26 15 16 26 16 17 26 17 18 26 18 19 26 19 20 26 20 21 26 21 22 26 22 23 26 23 24 26 24 25 26 25 1
26 25 1 2.22044604925031e-16
2 -4.89842541528951e-16 0 1.93716632225726 0.49737977432971 0 1.75261336008773 0.963507348203431 0 1.45793725484282 1.36909421185738 0 1.07165358995799 1.68865585100403 0 0.618033988749894 1.90211303259031 0 0.125581039058625 1.99605345685654 0 -0.374762629171451 1.96457450145738 0 -0.851558583130147 1.80965410493204 0 -1.27484797949738 1.54102648555158 0 -1.6180339887499 1.17557050458494 0 -1.8595529717765 0.736249105369352 0 -1.98422940262896 0.250666467128604 0 -1.98422940262896 -0.250666467128614 0 -1.8595529717765 -0.736249105369362 0 -1.61803398874989 -1.17557050458495 0 -1.27484797949737 -1.54102648555158 0 -0.851558583130138 -1.80965410493204 0 -0.374762629171441 -1.96457450145738 0 0.125581039058636 -1.99605345685654 0 0.618033988749905 -1.9021130325903 0 1.071653589958 -1.68865585100402 0 1.45793725484283 -1.36909421185737 0 1.75261336008773 -0.96350734820342 0 1.93716632225727 -0.497379774329697 0 0.0078852986855219 3.33066907387547e-16 0 2 0 1.93716632225726 0.49737977432971 1.75261336008773 0.963507348203431 1.45793725484282 1.36909421185738 1.07165358995799 1.68865585100403 0.618033988749894 1.90211303259031 0.125581039058625 1.99605345685654 -0.374762629171451 1.96457450145738 -0.851558583130147 1.80965410493204 -1.27484797949738 1.54102648555158 -1.6180339887499 1.17557050458494 -1.8595529717765 0.736249105369352 -1.98422940262896 0.250666467128604 -1.98422940262896 -0.250666467128614 -1.8595529717765 -0.736249105369362 -1.61803398874989 -1.17557050458495 -1.27484797949737 -1.54102648555158 -0.851558583130138 -1.80965410493204 -0.374762629171441 -1.96457450145738 0.125581039058636 -1.99605345685654 0.618033988749904 -1.9021130325903 1.071653589958 -1.68865585100402 1.45793725484283 -1.36909421185737 1.75261336008773 -0.96350734820342 1.93716632225727 -0.497379774329697 0.00788529868552179 2.22044604925031e-16 26 1 2 26 2 3 26 3 4 26 4 5 26 5 6 26 6 7 26 7 8 26 8 9 26 9 10 26 10 11 26 11 12 26 12 13 26 13 14 26 14 15 26 15 16 26 16 17 26 17 18 26 18 19 26 19 20 26 20 21 26 21 22 26 22 23 26 23 24 26 24 25 26 25 1

TShapes 15
Ve
1e-07
2 -4.89842541528951e-16 10
0 0

0101101
*
Ed
 1e-07 1 1 0
1  1 0 0 6.28318530717959
2  1 1 0 0 6.28318530717959
2  2 2 0 0 6.28318530717959
6  1 1 0
6  2 2 0
0

0101100
+15 2 -15 2 *
Ve
1e-07
2 -4.89842541528951e-16 0
0 0

0101101
*
Ed
 1e-07 1 1 0
1  2 0 0 10
3  3 4CN 1 0 0 10
7  3 4 1 0
0

0101000
-15 2 +13 2 *
Ed
 1e-07 1 1 0
1  3 0 0 6.28318530717959
2  5 1 0 0 6.28318530717959
2  6 3 0 0 6.28318530717959
6  5 1 0
6  6 3 0
0

0101100
+13 2 -13 2 *
Wi

0101000
-14 0 +12 0 +11 0 -12 0 *
Fa
0  1e-07 1 0
2  1
0101000
+10 0 *
Wi

0101000
+14 0 *
Fa
0  1e-07 2 0
2  2
0101000
+8 0 *
Wi

0101000
-11 0 *
Fa
0  1e-07 3 0
2  3
0101000
-6 0 *
Sh

0101100
+9 0 +7 0 -5 0 *
So

0100100
+4 0 *
Co

0100000
+3 1 *
Co

1100000
+2 0 *

+1 0
