DBRep_DrawableShape

CASCADE Topology V1, (c) Matra-Datavision
Locations 1
1
              1               0               0               0
              0 -2.22044604925031e-16              -1               0
              0               1 -2.22044604925031e-16               0
Curve2ds 60
1 0 0 1 0
1 0 0 1 0
1 0 0 1 0
1 0 0 0 1
8 0 6.2870356770386975
1 1.1180339887492663 0 0 1
1 0.99999999999999989 0 0 1
8 0 6.2870356770386975
1 0 0 0 1
1 0 6.2870356770386975 1 0
8 0 0.99999999999999989
1 0 0 1 0
1 0 0 0 1
8 0 6.2870356770386975
1 1.1180339887492663 0 0 1
1 0.99999999999999989 0 0 1
8 0 6.2870356770386975
1 0 0 0 1
1 0 6.2870356770386975 1 0
8 0 0.99999999999999989
1 0 0 1 0
1 0 0 0 1
8 0 6.2870356770386975
1 1.1180339887492663 0 0 1
1 0.99999999999999989 0 0 1
8 0 6.2870356770386975
1 0 0 0 1
1 0 6.2870356770386975 1 0
8 0 0.99999999999999989
1 0 0 1 0
1 0 0 0 1
8 0 6.2870356770386975
1 1.1180339887492663 0 0 1
1 0.99999999999999989 0 0 1
8 0 6.2870356770386975
1 0 0 0 1
1 0 6.2870356770386975 1 0
8 0 0.99999999999999989
1 0 0 1 0
1 0 0 0 1
8 0 3.4292921874756512
1 1.1180339887492663 0 0 1
1 0.99999999999999989 0 0 1
8 0 3.4292921874756512
1 0 0 0 1
1 0 3.4292921874756512 1 0
1 1.1180339887505235 0 0 1
8 0 6.2870356770386975
1 0 0 0 1
1 0 6.2870356770386975 1 0
8 0 1.1180339887505235
1 0 0 1 0
1 1.1180339887505235 0 0 1
8 0 6.2870356770386975
1 0 0 0 1
1 0 6.2870356770386975 1 0
8 0 1.1180339887505235
1 0 0 1 0
1 1.1180339887505235 0 0 1
8 0 6.2870356770386975
1 0 0 0 1
1 0 6.2870356770386975 1 0
8 0 1.1180339887505235
1 0 0 1 0
1 1.1180339887505235 0 0 1
8 0 6.2870356770386975
1 0 0 0 1
1 0 6.2870356770386975 1 0
8 0 1.1180339887505235
1 0 0 1 0
1 1.1180339887505235 0 0 1
8 0 3.4292921874756512
1 0 0 0 1
1 0 3.4292921874756512 1 0
1 0 6.2870356770386975 1 0
8 0 1.1180339887492663
1 0 0 1 0
1 0 6.2870356770386975 1 0
8 0 1.1180339887492663
1 0 0 1 0
1 0 6.2870356770386975 1 0
8 0 1.1180339887492663
1 0 0 1 0
1 0 6.2870356770386975 1 0
8 0 1.1180339887492663
1 0 0 1 0
1 0 3.4292921874756512 1 0
Curves 33
7 0 0  1 2 2  2.0000000000000306 9.0938367947046572e-13 1.6684810553702823e-15  2.0000000000000284 1.0000000000009095 1.8067860570396971e-15
 0 2 0.99999999999999989 2
7 0 0  1 2 2  2.0000000000000275 0.99999999999999989 1.2482846049280778e-15  3.0000000000000262 0.49999999999909028 2.64590224776542e-15
 0 2 1.1180339887505235 2
7 0 0  1 2 2  3.0000000000000262 0.49999999999909028 2.64590224776542e-15  2.0000000000000266 -1.1102230246251565e-16 1.735593475076781e-15
 0 2 1.1180339887492663 2
7 0 0  10 11 2  2.0000000000000306 9.0938367947046572e-13 1.6684810553702823e-15  1.999999959939065 0.11000000199007182 -1.2566338554788934  1.1228905917351018 0.21999999529312889 -2.5142965052784554  -0.63337553221942444 0.33000000849324884 -3.074762622374831  -2.6388940263357452 0.43999999335094497 -2.2895691041051509  -3.7012392763888831 0.5500000002214146 -2.6799449770464936e-08  -2.6388942634676984 0.66000000729935382 2.289569143296684  -0.6333752369905884 0.76999999205562586 3.0747626064836964  1.122890401259464 0.88000000523279343 2.5142965081779178  2.0000000280573076 0.98999999860754562 1.2566338556980587  1.9999999889437008 1.1000000005496986 7.9688529331130179e-11
 0 11 6.2870356770386975 11
7 0 0  10 11 2  2.0000000000000284 1.0000000000009095 1.8067860570396971e-15  1.9999999599470493 1.1100000019901159 -1.2566338554796066  1.1228905917164054 1.2199999952962788 -2.5142965052802975  -0.6333755321888157 1.3300000084765569 -3.0747626223748288  -2.6388940263641505 1.4399999933898993 -2.2895691041104191  -3.7012392763868704 1.5500000001715462 -2.6794308105593292e-08  -2.6388942634487753 1.6600000073384424 2.2895691432943206  -0.6333752370187804 1.7699999920387648 3.0747626064869191  1.1228904012785821 1.8800000052360488 2.5142965081790924  2.0000000280516921 1.9899999986075592 1.2566338556987795  1.9999999889459432 2.1000000005496986 7.9688667636131848e-11
 0 11 6.2870356770386975 11
7 0 0  1 2 2  1.9999999889437008 1.1000000005496986 7.9688529331130179e-11  1.9999999889459432 2.1000000005496986 7.9688667636131848e-11
 0 2 0.99999999999999989 2
7 0 0  10 11 2  1.9999999889438393 1.1000000005506081 7.9573322520480816e-11  1.9999999504327597 1.2100000024638651 -1.2566338485000579  1.1228905841713051 1.3199999958902204 -2.5142964936684566  -0.63337552679389553 1.4300000089461606 -3.0747626022633292  -2.6388940137391041 1.5399999939296962 -2.2895690975066207  -3.7012392571699686 1.6500000007173401 -2.1274036754448425e-08  -2.6388942480372157 1.7600000078276066 2.2895691263877964  -0.63337523498080051 1.8699999925830786 3.0747625936187082  1.1228903958652039 1.9800000057520644 2.514296493179764  2.0000000172065762 2.0899999991450695 1.2566338495544689  1.9999999786182334 2.2000000010621084 1.498650320469746e-10
 0 11 6.2870356770386975 11
7 0 0  10 11 2  1.9999999889460875 2.1000000005506076 7.9569716671940351e-11  1.9999999504427557 2.2100000024638762 -1.2566338485020818  1.1228905841539827 2.3199999958947446 -2.5142964936729517  -0.63337552676433961 2.4300000089179838 -3.0747626022660426  -2.6388940137698809 2.5399999939944702 -2.2895690975160075  -3.7012392571715007 2.6500000006299165 -2.1266290062271801e-08  -2.6388942480221624 2.7600000079011782 2.2895691263853917  -0.63337523500900739 2.8699999925487942 3.0747625936265219  1.1228903958853254 2.9800000057580278 2.5142964931831826  2.0000000172031585 3.0899999991450615 1.256633849556545  1.9999999786225262 3.2000000010621079 1.4986675526895234e-10
 0 11 6.2870356770386975 11
7 0 0  1 2 2  1.9999999786182334 2.2000000010621084 1.498650320469746e-10  1.9999999786225262 3.2000000010621079 1.4986675526895234e-10
 0 2 0.99999999999999989 2
7 0 0  10 11 2  1.9999999786181786 2.2000000010621079 1.4993260157095021e-10  1.9999999400738631 2.3100000029808276 -1.2566338420167411  1.1228905772510862 2.4199999964632046 -2.5142964794265734  -0.63337552098851213 2.5300000094244859 -3.0747625870472812  -2.6388940021707605 2.6399999943919257 -2.2895690849360779  -3.7012392363085422 2.7500000014736909 -2.2093992413374548e-08  -2.638894233520348 2.8600000080243344 2.2895691152357105  -0.63337523368614168 2.9699999933701364 3.0747625761742614  1.1228903911008323 3.0800000061624324 2.5142964805065611  2.0000000063123959 3.1899999996821689 1.2566338429759571  1.9999999678044289 3.300000001599074 2.0309046120301625e-10
 0 11 6.2870356770386975 11
7 0 0  10 11 2  1.9999999786224718 3.2000000010621079 1.4993245955643687e-10  1.9999999400858754 3.3100000029809165 -1.2566338420201038  1.1228905772354529 3.4199999964662728 -2.5142964794336784  -0.63337552096141658 3.530000009400982 -3.0747625870539368  -2.6388940022006375 3.6399999944497425 -2.2895690849458434  -3.7012392363187367 3.7500000013920904 -2.2089328588492702e-08  -2.638894233504244 3.8600000080946613 2.2895691152386886  -0.63337523371668869 3.9699999933346248 3.0747625761836828  1.1228903911224484 4.0800000061691435 2.5142964805130732  2.0000000063110868 4.1899999996822723 1.2566338429793282  1.999999967810852 4.3000000015990736 2.0308943101008321e-10
 0 11 6.2870356770386975 11
7 0 0  1 2 2  1.9999999678044289 3.300000001599074 2.0309046120301625e-10  1.999999967810852 4.3000000015990736 2.0308943101008321e-10
 0 2 0.99999999999999989 2
7 0 0  10 11 2  1.9999999678044258 3.3000000015990736 2.0309866472500391e-10  1.9999999279238478 3.4100000035856528 -1.2566338351063444  1.1228905729919101 3.5199999969246787 -2.5142964646674235  -0.63337551712705942 3.6300000099194438 -3.074762572896566  -2.6388939950858141 3.7399999954130898 -2.2895690671737792  -3.701239199025594 3.8500000010453497 -2.8316819999929571e-08  -2.638894240086211 3.9600000097382408 2.289569107254986  -0.63337521336332525 4.0699999930152293 3.0747625569284258  1.1228903762540163 4.1800000071518646 2.5142964672592112  1.9999999975765625 4.2900000001133263 1.2566338359369953  1.9999999567633309 4.4000000021460446 3.4089193414872246e-10
 0 11 6.2870356770386975 11
7 0 0  10 11 2  1.9999999678108487 4.3000000015990727 2.0310001286277759e-10  1.9999999279383043 4.4100000035856688 -1.2566338351111224  1.122890572977371 4.5199999969270834 -2.5142964646772947  -0.63337551710101136 4.6300000099037906 -3.0747625729062196  -2.6388939951173178 4.7399999954404937 -2.2895690671867799  -3.7012391990426692 4.8500000010168538 -2.8311815114534561e-08  -2.6388942400694013 4.9600000097581329 2.28956910726074  -0.63337521339745995 5.0699999930075235 3.0747625569407111  1.1228903762783815 5.1800000071517864 2.5142964672688786  1.999999997577024 5.2900000001133138 1.2566338359416902  1.9999999567719706 5.4000000021460428 3.4087463053968244e-10
 0 11 6.2870356770386975 11
7 0 0  1 2 2  1.9999999567633309 4.4000000021460446 3.4089193414872246e-10  1.9999999567719706 5.4000000021460428 3.4087463053968244e-10
 0 2 0.99999999999999989 2
7 0 0  7 8 2  1.9999999567634459 4.4000000021451351 3.4084246536281171e-10  2.0000002640696679 4.4857142726286385 -0.97919124939730628  1.4406779014824571 4.5714286200977545 -1.9568429588808502  0.32256706838431459 4.65714278042977 -2.5610970658126595  -1.0310446917849259 4.7428572231265349 -2.3664775333082049  -1.9336277920152993 4.8285713826164374 -1.4716907680536384  -2.1948556793096836 4.914285730957423 -0.37606210629261111  -1.9189859268982161 5.0000000010577432 0.5634651072808482
 0 8 3.4292921874756512 8
7 0 0  7 8 2  1.9999999567720863 5.4000000021451333 3.4082825450809651e-10  2.0000002640168799 5.4857142726286572 -0.97919124940054725  1.440677901603262 5.5714286201005256 -1.956842958876841  0.32256706831810533 5.6571427804273915 -2.561097065856611  -1.0310446918474518 5.7428572231258039 -2.3664775332620946  -1.9336277919102527 5.8285713826187129 -1.4716907681020224  -2.1948556793750762 5.9142857309574053 -0.37606210627671594  -1.91898592690228 6.0000000010577423 0.56346510728208499
 0 8 3.4292921874756512 8
7 0 0  1 2 2  -1.9189859268982161 5.0000000010577432 0.5634651072808482  -1.91898592690228 6.0000000010577423 0.56346510728208499
 0 2 0.99999999999999989 2
7 0 0  10 11 2  3.0000000000000262 0.49999999999909028 2.64590224776542e-15  2.9999999599430494 0.61000000198025983 -1.8849523991101589  1.6843358541807412 0.71999999532856152 -3.7714388372926861  -0.95006329236532527 0.83000000838478272 -4.6121543037994446  -3.9583409408894639 0.9399999935088923 -3.4343447840084473  -5.5518591362037464 1.0500000000726892 -2.6801831864986571e-08  -3.9583411779967386 1.1600000073662897 3.4343448232057008  -0.95006299716576159 1.2699999920433398 4.6121542879044508  1.6843356637246436 1.3800000052181578 3.771438840193881  3.000000028054711 1.4899999986117534 1.8849523993284072  2.9999999889448357 1.6000000005460604 7.9366400412257482e-11
 0 11 6.2870356770386975 11
7 0 0  1 2 2  1.9999999889459439 2.1000000005487891 7.9688997313099437e-11  2.9999999889448357 1.6000000005460604 7.9366400412257482e-11
 0 2 1.1180339887505235 2
7 0 0  10 11 2  2.999999988944976 1.6000000005460602 7.9250740617934832e-11  2.9999999504375432 1.7100000024516238 -1.8849523921333624  1.6843358466169605 1.8199999959049489 -3.7714388256798435  -0.95006328694068609 1.9300000089020084 -4.6121542837014822  -3.95834092829466 2.0399999939710258 -3.4343447773886919  -5.5518591169866616 2.1500000006882662 -2.1303298680663866e-08  -3.9583411625671245 2.2600000078083955 3.4343448063231747  -0.95006299515631087 2.3699999926109152 4.6121542750259197  1.6843356583319962 2.4800000057243063 3.7714388252032625  3.0000000172052164 2.5899999991464546 1.8849523931834573  2.9999999786203655 2.7000000010557414 1.4926020001166973e-10
 0 11 6.2870356770386975 11
7 0 0  1 2 2  1.9999999786225262 3.2000000010611984 1.4986436523883961e-10  2.9999999786203655 2.7000000010557414 1.4926020001166973e-10
 0 2 1.1180339887505235 2
7 0 0  10 11 2  2.9999999786203113 2.7000000010557414 1.493250228982142e-10  2.9999999400794013 2.8100000029668268 -1.8849523856500396  1.6843358396979533 2.9199999964709473 -3.7714388114427502  -0.95006328113862848 3.0300000093814292 -4.6121542684796086  -3.9583409167230954 3.1399999944454362 -3.4343447648292291  -5.5518590961329659 3.250000001403254 -2.211391869622052e-08  -3.9583411480468893 3.3600000080552288 3.4343447951676214  -0.95006299386368853 3.469999993355684 4.6121542575846384  1.6843356535689435 3.5800000061467721 3.7714388125311884  3.0000000063121735 3.6899999996808979 1.8849523866053275  2.9999999678076414 3.8000000015899791 2.0226724577899886e-10
 0 11 6.2870356770386975 11
7 0 0  1 2 2  1.9999999678108524 4.3000000015981641 2.0308942781058091e-10  2.9999999678076414 3.8000000015899791 2.0226724577899886e-10
 0 2 1.1180339887505235 2
7 0 0  10 11 2  2.9999999678076419 3.8000000015899786 2.0228197919908545e-10  2.9999999279305172 3.9100000035685993 -1.8849523787403486  1.6843358354390539 4.0199999969387505 -3.7714387966862271  -0.95006327727783102 4.130000009847369 -4.6121542543265557  -3.9583409096400803 4.2399999955134353 -3.4343447470762434  -5.5518590588514121 4.3500000009162774 -2.8324961931502962e-08  -3.9583411546147409 4.4600000098022869 3.4343447871776691  -0.95006297354057856 4.569999992988012 4.612154238347574  1.6843356387230635 4.6800000071346206 3.7714387992820004  2.9999999975774561 4.7900000001106369 1.8849523795677556  2.9999999567676552 4.9000000021351298 3.3978766941952692e-10
 0 11 6.2870356770386975 11
7 0 0  1 2 2  1.9999999567719688 5.4000000021451333 3.4087654078806909e-10  2.9999999567676552 4.9000000021351298 3.3978766941952692e-10
 0 2 1.1180339887505235 2
7 0 0  8 9 2  2.9999999567677649 4.9000000021351298 3.397406800331737e-10  3.0000002256333747 4.9749999888619385 -1.2851913641367954  2.3705073010240469 5.0500000328942178 -2.5704115958869975  1.1136055593857705 5.1249999710601237 -3.4960865104568501  -0.53250205740685397 5.2000000008716958 -3.7036172149772306  -2.0534544967400987 5.2750000334473137 -3.0407322012228404  -2.9986555539519255 5.3499999696162943 -1.7984423363377851  -3.2405588854226228 5.4250000146594397 -0.38793449825195131  -2.8784789005144367 5.5000000010522854 0.84519766412397335
 0 9 3.4292921874756512 9
7 0 0  1 2 2  -1.9189859269022804 6.000000001056832 0.56346510728208465  -2.8784789005144367 5.5000000010522854 0.84519766412397335
 0 2 1.1180339887505235 2
7 0 0  1 2 2  2.9999999889448357 1.6000000005460604 7.9366400412257482e-11  1.9999999889436957 1.1000000005487891 7.9689484621969586e-11
 0 2 1.1180339887492663 2
7 0 0  1 2 2  2.9999999786203655 2.7000000010557414 1.4926020001166973e-10  1.9999999786182339 2.2000000010611989 1.4986414387580778e-10
 0 2 1.1180339887492663 2
7 0 0  1 2 2  2.9999999678076414 3.8000000015899791 2.0226724577899886e-10  1.9999999678044273 3.3000000015981645 2.030895970084515e-10
 0 2 1.1180339887492663 2
7 0 0  1 2 2  2.9999999567676552 4.9000000021351298 3.3978766941952692e-10  1.9999999567633331 4.4000000021451351 3.4089091691064752e-10
 0 2 1.1180339887492663 2
7 0 0  1 2 2  -2.8784789005144367 5.5000000010522854 0.84519766412397335  -1.9189859268982157 5.0000000010568328 0.56346510728084809
 0 2 1.1180339887492663 2
Polygon3D 0
PolygonOnTriangulations 0
Surfaces 17
1 2.3454915028125551 0.49999999999961142 2.2204460492560777e-16 9.2179164606366873e-45 -4.4408920985006262e-16 -1 -2.0756902568627873e-29 1 -4.4408920985006262e-16 1 -2.0756902568627873e-29 0
9 0 0 0 0 1 10 2 11 2 2 2.0000000000000306 9.0938367947046572e-13 1.6684810553702823e-15  1.999999959939065 0.11000000199007182 -1.2566338554788934  1.1228905917351018 0.21999999529312889 -2.5142965052784554  -0.63337553221942444 0.33000000849324884 -3.074762622374831  -2.6388940263357452 0.43999999335094497 -2.2895691041051509  -3.7012392763888831 0.5500000002214146 -2.6799449770464936e-08  -2.6388942634676984 0.66000000729935382 2.289569143296684  -0.6333752369905884 0.76999999205562586 3.0747626064836964  1.122890401259464 0.88000000523279343 2.5142965081779178  2.0000000280573076 0.98999999860754562 1.2566338556980587  1.9999999889437008 1.1000000005496986 7.9688529331130179e-11
2.0000000000000284 1.0000000000009095 1.8067860570396971e-15  1.9999999599470493 1.1100000019901159 -1.2566338554796066  1.1228905917164054 1.2199999952962788 -2.5142965052802975  -0.6333755321888157 1.3300000084765569 -3.0747626223748288  -2.6388940263641505 1.4399999933898993 -2.2895691041104191  -3.7012392763868704 1.5500000001715462 -2.6794308105593292e-08  -2.6388942634487753 1.6600000073384424 2.2895691432943206  -0.6333752370187804 1.7699999920387648 3.0747626064869191  1.1228904012785821 1.8800000052360488 2.5142965081790924  2.0000000280516921 1.9899999986075592 1.2566338556987795  1.9999999889459432 2.1000000005496986 7.9688667636131848e-11

0 2
0.99999999999999989 2

0 11
6.2870356770386975 11

9 0 0 0 0 1 10 2 11 2 2 2.0000000000000275 0.99999999999999989 1.2482846049280778e-15  1.9999999599470515 1.1100000019892178 -1.2566338554796033  1.122890591716257 1.2199999952953255 -2.5142965052803392  -0.63337553218827447 1.3300000084757466 -3.0747626223746574  -2.6388940263652154 1.4399999933888332 -2.289569104110813  -3.7012392763855941 1.5500000001708156 -2.6793766316757275e-08  -2.6388942634497043 1.66000000733738 2.2895691432938867  -0.63337523701841136 1.7699999920379506 3.0747626064871429  1.1228904012785161 1.8800000052350989 2.5142965081790125  2.0000000280516912 1.9899999986066599 1.2566338556987984  1.9999999889459439 2.1000000005487891 7.9688997313099437e-11
3.0000000000000262 0.49999999999909028 2.64590224776542e-15  2.9999999599430494 0.61000000198025983 -1.8849523991101589  1.6843358541807412 0.71999999532856152 -3.7714388372926861  -0.95006329236532527 0.83000000838478272 -4.6121543037994446  -3.9583409408894639 0.9399999935088923 -3.4343447840084473  -5.5518591362037464 1.0500000000726892 -2.6801831864986571e-08  -3.9583411779967386 1.1600000073662897 3.4343448232057008  -0.95006299716576159 1.2699999920433398 4.6121542879044508  1.6843356637246436 1.3800000052181578 3.771438840193881  3.000000028054711 1.4899999986117534 1.8849523993284072  2.9999999889448357 1.6000000005460604 7.9366400412257482e-11

0 2
1.1180339887505235 2

0 11
6.2870356770386975 11

9 0 0 0 0 1 10 2 11 2 2 3.0000000000000262 0.49999999999909028 2.64590224776542e-15  2.9999999599430494 0.61000000198025983 -1.8849523991101589  1.6843358541807412 0.71999999532856152 -3.7714388372926861  -0.95006329236532527 0.83000000838478272 -4.6121543037994446  -3.9583409408894639 0.9399999935088923 -3.4343447840084473  -5.5518591362037464 1.0500000000726892 -2.6801831864986571e-08  -3.9583411779967386 1.1600000073662897 3.4343448232057008  -0.95006299716576159 1.2699999920433398 4.6121542879044508  1.6843356637246436 1.3800000052181578 3.771438840193881  3.000000028054711 1.4899999986117534 1.8849523993284072  2.9999999889448357 1.6000000005460604 7.9366400412257482e-11
2.0000000000000266 -1.1102230246251565e-16 1.735593475076781e-15  1.9999999599390308 0.11000000198916553 -1.2566338554788903  1.122890591735237 0.2199999952922061 -2.5142965052784754  -0.63337553221974396 0.33000000849237049 -3.0747626223747639  -2.6388940263352585 0.43999999334998541 -2.2895691041053015  -3.7012392763894 0.55000000022056506 -2.6799223284967912e-08  -2.6388942634673 0.66000000729838948 2.2895691432964478  -0.63337523699080889 0.76999999205475389 3.074762606483866  1.1228904012595493 0.88000000523186561 2.5142965081778392  2.0000000280572845 0.98999999860664134 1.2566338556980781  1.9999999889436957 1.1000000005487891 7.9689484621969586e-11

0 2
1.1180339887492663 2

0 11
6.2870356770386975 11

9 0 0 0 0 1 10 2 11 2 2 1.9999999889438393 1.1000000005506081 7.9573322520480816e-11  1.9999999504327597 1.2100000024638651 -1.2566338485000579  1.1228905841713051 1.3199999958902204 -2.5142964936684566  -0.63337552679389553 1.4300000089461606 -3.0747626022633292  -2.6388940137391041 1.5399999939296962 -2.2895690975066207  -3.7012392571699686 1.6500000007173401 -2.1274036754448425e-08  -2.6388942480372157 1.7600000078276066 2.2895691263877964  -0.63337523498080051 1.8699999925830786 3.0747625936187082  1.1228903958652039 1.9800000057520644 2.514296493179764  2.0000000172065762 2.0899999991450695 1.2566338495544689  1.9999999786182334 2.2000000010621084 1.498650320469746e-10
1.9999999889460875 2.1000000005506076 7.9569716671940351e-11  1.9999999504427557 2.2100000024638762 -1.2566338485020818  1.1228905841539827 2.3199999958947446 -2.5142964936729517  -0.63337552676433961 2.4300000089179838 -3.0747626022660426  -2.6388940137698809 2.5399999939944702 -2.2895690975160075  -3.7012392571715007 2.6500000006299165 -2.1266290062271801e-08  -2.6388942480221624 2.7600000079011782 2.2895691263853917  -0.63337523500900739 2.8699999925487942 3.0747625936265219  1.1228903958853254 2.9800000057580278 2.5142964931831826  2.0000000172031585 3.0899999991450615 1.256633849556545  1.9999999786225262 3.2000000010621079 1.4986675526895234e-10

0 2
0.99999999999999989 2

0 11
6.2870356770386975 11

9 0 0 0 0 1 10 2 11 2 2 2.999999988944976 1.6000000005460602 7.9250740617934832e-11  2.9999999504375432 1.7100000024516238 -1.8849523921333624  1.6843358466169605 1.8199999959049489 -3.7714388256798435  -0.95006328694068609 1.9300000089020084 -4.6121542837014822  -3.95834092829466 2.0399999939710258 -3.4343447773886919  -5.5518591169866616 2.1500000006882662 -2.1303298680663866e-08  -3.9583411625671245 2.2600000078083955 3.4343448063231747  -0.95006299515631087 2.3699999926109152 4.6121542750259197  1.6843356583319962 2.4800000057243063 3.7714388252032625  3.0000000172052164 2.5899999991464546 1.8849523931834573  2.9999999786203655 2.7000000010557414 1.4926020001166973e-10
1.9999999889438407 1.1000000005496986 7.957332252773369e-11  1.9999999504327932 1.2100000024629605 -1.2566338485000514  1.1228905841711276 1.319999995889297 -2.5142964936684877  -0.63337552679335152 1.4300000089452689 -3.0747626022632453  -2.6388940137400763 1.5399999939287836 -2.2895690975067469  -3.7012392571688522 1.6500000007164088 -2.1273940831179098e-08  -2.6388942480380755 1.760000007826731 2.2895691263877631  -0.6333752349803482 1.8699999925821442 3.0747625936187144  1.1228903958650478 1.9800000057511637 2.5142964931797618  2.0000000172066046 2.0899999991441587 1.2566338495544667  1.9999999786182339 2.2000000010611989 1.4986414387580778e-10

0 2
1.1180339887492663 2

0 11
6.2870356770386975 11

9 0 0 0 0 1 10 2 11 2 2 1.9999999889460875 2.1000000005496982 7.957176753392612e-11  1.9999999504427557 2.2100000024630013 -1.2566338485020756  1.1228905841539827 2.3199999958936943 -2.5142964936730134  -0.63337552676433961 2.4300000089174172 -3.0747626022659365  -2.6388940137698809 2.5399999939929776 -2.289569097516214  -3.7012392571715007 2.6500000006297264 -2.126587883566348e-08  -2.6388942480221624 2.760000007899631 2.2895691263849041  -0.63337523500900739 2.8699999925482822 3.0747625936267986  1.1228903958853254 2.9800000057569522 2.5142964931831022  2.0000000172031585 3.089999999144192 1.2566338495565548  1.9999999786225262 3.2000000010611984 1.4986436523883961e-10
2.999999988944976 1.6000000005460602 7.9250740617934832e-11  2.9999999504375432 1.7100000024516238 -1.8849523921333624  1.6843358466169605 1.8199999959049489 -3.7714388256798435  -0.95006328694068609 1.9300000089020084 -4.6121542837014822  -3.95834092829466 2.0399999939710258 -3.4343447773886919  -5.5518591169866616 2.1500000006882662 -2.1303298680663866e-08  -3.9583411625671245 2.2600000078083955 3.4343448063231747  -0.95006299515631087 2.3699999926109152 4.6121542750259197  1.6843356583319962 2.4800000057243063 3.7714388252032625  3.0000000172052164 2.5899999991464546 1.8849523931834573  2.9999999786203655 2.7000000010557414 1.4926020001166973e-10

0 2
1.1180339887505235 2

0 11
6.2870356770386975 11

9 0 0 0 0 1 10 2 11 2 2 1.9999999786181786 2.2000000010621079 1.4993260157095021e-10  1.9999999400738631 2.3100000029808276 -1.2566338420167411  1.1228905772510862 2.4199999964632046 -2.5142964794265734  -0.63337552098851213 2.5300000094244859 -3.0747625870472812  -2.6388940021707605 2.6399999943919257 -2.2895690849360779  -3.7012392363085422 2.7500000014736909 -2.2093992413374548e-08  -2.638894233520348 2.8600000080243344 2.2895691152357105  -0.63337523368614168 2.9699999933701364 3.0747625761742614  1.1228903911008323 3.0800000061624324 2.5142964805065611  2.0000000063123959 3.1899999996821689 1.2566338429759571  1.9999999678044289 3.300000001599074 2.0309046120301625e-10
1.9999999786224718 3.2000000010621079 1.4993245955643687e-10  1.9999999400858754 3.3100000029809165 -1.2566338420201038  1.1228905772354529 3.4199999964662728 -2.5142964794336784  -0.63337552096141658 3.530000009400982 -3.0747625870539368  -2.6388940022006375 3.6399999944497425 -2.2895690849458434  -3.7012392363187367 3.7500000013920904 -2.2089328588492702e-08  -2.638894233504244 3.8600000080946613 2.2895691152386886  -0.63337523371668869 3.9699999933346248 3.0747625761836828  1.1228903911224484 4.0800000061691435 2.5142964805130732  2.0000000063110868 4.1899999996822723 1.2566338429793282  1.999999967810852 4.3000000015990736 2.0308943101008321e-10

0 2
0.99999999999999989 2

0 11
6.2870356770386975 11

9 0 0 0 0 1 10 2 11 2 2 2.9999999786203113 2.7000000010557414 1.493250228982142e-10  2.9999999400794013 2.8100000029668268 -1.8849523856500396  1.6843358396979533 2.9199999964709473 -3.7714388114427502  -0.95006328113862848 3.0300000093814292 -4.6121542684796086  -3.9583409167230954 3.1399999944454362 -3.4343447648292291  -5.5518590961329659 3.250000001403254 -2.211391869622052e-08  -3.9583411480468893 3.3600000080552288 3.4343447951676214  -0.95006299386368853 3.469999993355684 4.6121542575846384  1.6843356535689435 3.5800000061467721 3.7714388125311884  3.0000000063121735 3.6899999996808979 1.8849523866053275  2.9999999678076414 3.8000000015899791 2.0226724577899886e-10
1.9999999786181779 2.2000000010611984 1.4993262555480516e-10  1.999999940073848 2.3100000029799634 -1.2566338420167473  1.1228905772511177 2.4199999964621095 -2.5142964794265605  -0.63337552098855121 2.5300000094240174 -3.0747625870473176  -2.6388940021707392 2.6399999943902857 -2.28956908493599  -3.70123923630852 2.7500000014736599 -2.2094124751959083e-08  -2.6388942335204049 2.8600000080226584 2.2895691152358406  -0.6333752336860754 2.9699999933697065 3.074762576174181  1.1228903911007879 3.0800000061613169 2.5142964805065904  2.0000000063124097 3.1899999996813118 1.2566338429759545  1.9999999678044273 3.3000000015981645 2.030895970084515e-10

0 2
1.1180339887492663 2

0 11
6.2870356770386975 11

9 0 0 0 0 1 10 2 11 2 2 1.9999999786224714 3.2000000010611984 1.4993156817851488e-10  1.9999999400858832 3.3100000029800039 -1.2566338420200993  1.1228905772354258 3.4199999964653824 -2.5142964794336957  -0.63337552096137206 3.5300000094000121 -3.0747625870538924  -2.6388940022006326 3.6399999944489672 -2.2895690849459234  -3.7012392363188105 3.7500000013909731 -2.2089225559796017e-08  -2.6388942335041543 3.8600000080939694 2.2895691152385909  -0.63337523371675097 3.9699999933335639 3.0747625761837516  1.122890391122479 4.0800000061683024 2.5142964805130394  2.0000000063110819 4.189999999681346 1.2566338429793371  1.9999999678108524 4.3000000015981641 2.0308942781058091e-10
2.9999999786203113 2.7000000010557414 1.493250228982142e-10  2.9999999400794013 2.8100000029668268 -1.8849523856500396  1.6843358396979533 2.9199999964709473 -3.7714388114427502  -0.95006328113862848 3.0300000093814292 -4.6121542684796086  -3.9583409167230954 3.1399999944454362 -3.4343447648292291  -5.5518590961329659 3.250000001403254 -2.211391869622052e-08  -3.9583411480468893 3.3600000080552288 3.4343447951676214  -0.95006299386368853 3.469999993355684 4.6121542575846384  1.6843356535689435 3.5800000061467721 3.7714388125311884  3.0000000063121735 3.6899999996808979 1.8849523866053275  2.9999999678076414 3.8000000015899791 2.0226724577899886e-10

0 2
1.1180339887505235 2

0 11
6.2870356770386975 11

9 0 0 0 0 1 10 2 11 2 2 1.9999999678044258 3.3000000015990736 2.0309866472500391e-10  1.9999999279238478 3.4100000035856528 -1.2566338351063444  1.1228905729919101 3.5199999969246787 -2.5142964646674235  -0.63337551712705942 3.6300000099194438 -3.074762572896566  -2.6388939950858141 3.7399999954130898 -2.2895690671737792  -3.701239199025594 3.8500000010453497 -2.8316819999929571e-08  -2.638894240086211 3.9600000097382408 2.289569107254986  -0.63337521336332525 4.0699999930152293 3.0747625569284258  1.1228903762540163 4.1800000071518646 2.5142964672592112  1.9999999975765625 4.2900000001133263 1.2566338359369953  1.9999999567633309 4.4000000021460446 3.4089193414872246e-10
1.9999999678108487 4.3000000015990727 2.0310001286277759e-10  1.9999999279383043 4.4100000035856688 -1.2566338351111224  1.122890572977371 4.5199999969270834 -2.5142964646772947  -0.63337551710101136 4.6300000099037906 -3.0747625729062196  -2.6388939951173178 4.7399999954404937 -2.2895690671867799  -3.7012391990426692 4.8500000010168538 -2.8311815114534561e-08  -2.6388942400694013 4.9600000097581329 2.28956910726074  -0.63337521339745995 5.0699999930075235 3.0747625569407111  1.1228903762783815 5.1800000071517864 2.5142964672688786  1.999999997577024 5.2900000001133138 1.2566338359416902  1.9999999567719706 5.4000000021460428 3.4087463053968244e-10

0 2
0.99999999999999989 2

0 11
6.2870356770386975 11

9 0 0 0 0 1 10 2 11 2 2 2.9999999678076419 3.8000000015899786 2.0228197919908545e-10  2.9999999279305172 3.9100000035685993 -1.8849523787403486  1.6843358354390539 4.0199999969387505 -3.7714387966862271  -0.95006327727783102 4.130000009847369 -4.6121542543265557  -3.9583409096400803 4.2399999955134353 -3.4343447470762434  -5.5518590588514121 4.3500000009162774 -2.8324961931502962e-08  -3.9583411546147409 4.4600000098022869 3.4343447871776691  -0.95006297354057856 4.569999992988012 4.612154238347574  1.6843356387230635 4.6800000071346206 3.7714387992820004  2.9999999975774561 4.7900000001106369 1.8849523795677556  2.9999999567676552 4.9000000021351298 3.3978766941952692e-10
1.999999967804428 3.3000000015981641 2.0309853566534866e-10  1.9999999279238589 3.4100000035847855 -1.2566338351063564  1.122890572991863 3.5199999969235889 -2.514296464667352  -0.63337551712694962 3.6300000099189784 -3.0747625728967702  -2.6388939950860215 3.7399999954114338 -2.289569067173399  -3.7012391990253026 3.8500000010453213 -2.8317314715309344e-08  -2.6388942400864956 3.9600000097365959 2.2895691072554576  -0.63337521336314628 4.0699999930147435 3.074762556928099  1.1228903762539559 4.1800000071507961 2.5142964672593644  1.9999999975765703 4.2900000001124514 1.2566338359369555  1.9999999567633331 4.4000000021451351 3.4089091691064752e-10

0 2
1.1180339887492663 2

0 11
6.2870356770386975 11

9 0 0 0 0 1 10 2 11 2 2 1.9999999678108487 4.3000000015981632 2.0309837039748544e-10  1.9999999279382952 4.4100000035848472 -1.2566338351111233  1.1228905729774059 4.5199999969258062 -2.5142964646773036  -0.6333755171011064 4.6300000099037781 -3.0747625729061858  -2.6388939951171726 4.7399999954380565 -2.2895690671868656  -3.7012391990428237 4.8500000010178805 -2.8311673005987409e-08  -2.6388942400692912 4.9600000097554044 2.2895691072605815  -0.63337521339751135 5.0699999930078441 3.0747625569408297  1.1228903762783933 5.1800000071503085 2.5142964672688248  1.9999999975770228 5.2900000001125544 1.2566338359417017  1.9999999567719688 5.4000000021451333 3.4087654078806909e-10
2.9999999678076419 3.8000000015899786 2.0228197919908545e-10  2.9999999279305172 3.9100000035685993 -1.8849523787403486  1.6843358354390539 4.0199999969387505 -3.7714387966862271  -0.95006327727783102 4.130000009847369 -4.6121542543265557  -3.9583409096400803 4.2399999955134353 -3.4343447470762434  -5.5518590588514121 4.3500000009162774 -2.8324961931502962e-08  -3.9583411546147409 4.4600000098022869 3.4343447871776691  -0.95006297354057856 4.569999992988012 4.612154238347574  1.6843356387230635 4.6800000071346206 3.7714387992820004  2.9999999975774561 4.7900000001106369 1.8849523795677556  2.9999999567676552 4.9000000021351298 3.3978766941952692e-10

0 2
1.1180339887505235 2

0 11
6.2870356770386975 11

9 0 0 0 0 1 7 2 8 2 2 1.9999999567634459 4.4000000021451351 3.4084246536281171e-10  2.0000002640696679 4.4857142726286385 -0.97919124939730628  1.4406779014824571 4.5714286200977545 -1.9568429588808502  0.32256706838431459 4.65714278042977 -2.5610970658126595  -1.0310446917849259 4.7428572231265349 -2.3664775333082049  -1.9336277920152993 4.8285713826164374 -1.4716907680536384  -2.1948556793096836 4.914285730957423 -0.37606210629261111  -1.9189859268982161 5.0000000010577432 0.5634651072808482
1.9999999567720863 5.4000000021451333 3.4082825450809651e-10  2.0000002640168799 5.4857142726286572 -0.97919124940054725  1.440677901603262 5.5714286201005256 -1.956842958876841  0.32256706831810533 5.6571427804273915 -2.561097065856611  -1.0310446918474518 5.7428572231258039 -2.3664775332620946  -1.9336277919102527 5.8285713826187129 -1.4716907681020224  -2.1948556793750762 5.9142857309574053 -0.37606210627671594  -1.91898592690228 6.0000000010577423 0.56346510728208499

0 2
0.99999999999999989 2

0 8
3.4292921874756512 8

9 0 0 0 0 1 8 2 9 2 2 2.9999999567677649 4.9000000021351298 3.397406800331737e-10  3.0000002256333747 4.9749999888619385 -1.2851913641367954  2.3705073010240469 5.0500000328942178 -2.5704115958869975  1.1136055593857705 5.1249999710601237 -3.4960865104568501  -0.53250205740685397 5.2000000008716958 -3.7036172149772306  -2.0534544967400987 5.2750000334473137 -3.0407322012228404  -2.9986555539519255 5.3499999696162943 -1.7984423363377851  -3.2405588854226228 5.4250000146594397 -0.38793449825195131  -2.8784789005144367 5.5000000010522854 0.84519766412397335
1.9999999567634457 4.4000000021442256 3.4084202127360186e-10  2.0000002256563998 4.4749999888172907 -0.85679234318003406  1.5803375282327812 4.5500000330297086 -1.7136150504501024  0.74240571526481458 4.6249999709439429 -2.330709715104784  -0.35500472995647414 4.7000000008817722 -2.4690961844122525  -1.3689662699026173 4.7750000335740017 -2.0271404357293186  -1.9991057277353734 4.8499999695008489 -1.1989686215534909  -2.1603719602582432 4.9250000147190747 -0.25862120459594551  -1.9189859268982157 5.0000000010568328 0.56346510728084809

0 2
1.1180339887492663 2

0 9
3.4292921874756512 9

9 0 0 0 0 1 8 2 9 2 2 1.9999999567720863 5.4000000021442247 3.4082736632967681e-10  2.0000002256112897 5.4749999888172809 -0.856792343182876  1.5803375284244827 5.550000033033113 -1.7136150504645526  0.74240571490299379 5.6249999709394025 -2.3307097150774951  -0.35500472950880069 5.700000000885872 -2.4690961844857102  -1.3689662702680536 5.7750000335703762 -2.0271404356654052  -1.9991057275586339 5.8499999695038181 -1.1989686216024464  -2.1603719603159743 5.9250000147190507 -0.25862120458187643  -1.9189859269022804 6.000000001056832 0.56346510728208465
2.9999999567677649 4.9000000021351298 3.397406800331737e-10  3.0000002256333747 4.9749999888619385 -1.2851913641367954  2.3705073010240469 5.0500000328942178 -2.5704115958869975  1.1136055593857705 5.1249999710601237 -3.4960865104568501  -0.53250205740685397 5.2000000008716958 -3.7036172149772306  -2.0534544967400987 5.2750000334473137 -3.0407322012228404  -2.9986555539519255 5.3499999696162943 -1.7984423363377851  -3.2405588854226228 5.4250000146594397 -0.38793449825195131  -2.8784789005144367 5.5000000010522854 0.84519766412397335

0 2
1.1180339887505235 2

0 9
3.4292921874756512 9

1 -2.2504825962919797 5.5000000010564518 0.66080131173616696 0.28173255684250664 -2.6696418513327818e-14 0.95949297361418118 -4.0819749136223607e-12 1 1.2263993079777387e-12 -0.95949297361418118 -4.2621429146702262e-12 0.2817325568425067
Triangulations 0

TShapes 88
Ve
4.39810635581078e-05
2.00000000000003 -1.11022302462516e-16 1.73559347507678e-15
0 0

0101101
*
Ve
2.94018437871922e-05
2.00000000000003 1 1.24828460492808e-15
0 0

0101101
*
Ed
 1.00005e-07 1 1 0
1  1 0 0 1
2  1 2 0 0 1
0

0101000
+88 0 -87 0 *
Ve
4.3981062235277e-05
3.00000000000003 0.49999999999909 2.64590224776542e-15
0 0

0101101
*
Ed
 1.00005e-07 1 1 0
1  2 0 0 1.11803398875052
2  2 3 0 0 1.11803398875052
0

0101000
+87 0 -85 0 *
Ed
 1.00005e-07 1 1 0
1  3 0 0 1.11803398874927
2  3 4 0 0 1.11803398874927
0

0101000
+85 0 -88 0 *
Wi

0101100
+86 0 +84 0 +83 0 *
Fa
0  1e-07 1 0

0101000
+82 0 *
Ve
2.94018442477067e-05
1.99999998894377 1.10000000055015 7.95973845452051e-11
0 0

0101101
*
Ed
 1e-07 1 1 0
1  4 0 0 6.2870356770387
2  4 2 0 0 6.2870356770387
2  5 4 0 0 6.2870356770387
0

0101000
+88 0 -80 0 *
Ve
2.94018442477067e-05
1.99999998894602 2.10000000054924 7.95969404559953e-11
0 0

0101101
*
Ed
 1e-07 1 1 0
1  5 0 0 6.2870356770387
2  6 2 0 0 6.2870356770387
2  7 3 0 0 6.2870356770387
0

0101000
+87 0 -78 0 *
Ed
 1e-07 1 1 0
1  6 0 0 1
2  8 2 0 0 1
2  9 5 0 0 1
4 C1 5 0 2 0
0

0101000
+80 0 -78 0 *
Wi

0101100
-79 0 +86 0 +77 0 -76 0 *
Fa
0  1e-07 2 0

0101000
+75 0 *
Ve
2.94018604988986e-05
1.99999997861821 2.20000000106211 1.49914425623943e-10
0 0

0101101
*
Ed
 1e-07 1 1 0
1  7 0 0 6.2870356770387
2  10 5 0 0 6.2870356770387
2  11 6 0 0 6.2870356770387
0

0101000
+80 0 -73 0 *
Ve
2.94018604988986e-05
1.9999999786225 3.2000000010612 1.49913981534733e-10
0 0

0101101
*
Ed
 1e-07 1 1 0
1  8 0 0 6.2870356770387
2  12 5 0 0 6.2870356770387
2  13 7 0 0 6.2870356770387
0

0101000
+78 0 -71 0 *
Ed
 1e-07 1 1 0
1  9 0 0 1
2  14 5 0 0 1
2  15 8 0 0 1
4 C1 8 0 5 0
0

0101000
+73 0 -71 0 *
Wi

0101100
-72 0 +76 0 +70 0 -69 0 *
Fa
0  1e-07 5 0

0101000
+68 0 *
Ve
2.94018662885789e-05
1.99999996780443 3.30000000159907 2.03096284540616e-10
0 0

0101101
*
Ed
 1e-07 1 1 0
1  10 0 0 6.2870356770387
2  16 8 0 0 6.2870356770387
2  17 9 0 0 6.2870356770387
0

0101000
+73 0 -66 0 *
Ve
2.94018662885789e-05
1.99999996781085 4.30000000159816 2.03095840451406e-10
0 0

0101101
*
Ed
 1e-07 1 1 0
1  11 0 0 6.2870356770387
2  18 8 0 0 6.2870356770387
2  19 10 0 0 6.2870356770387
0

0101000
+71 0 -64 0 *
Ed
 1e-07 1 1 0
1  12 0 0 1
2  20 8 0 0 1
2  21 11 0 0 1
4 C1 11 0 8 0
0

0101000
+66 0 -64 0 *
Wi

0101100
-65 0 +69 0 +63 0 -62 0 *
Fa
0  1e-07 8 0

0101000
+61 0 *
Ve
2.94018603423369e-05
1.99999995676339 4.40000000214559 3.4086781206032e-10
0 0

0101101
*
Ed
 1e-07 1 1 0
1  13 0 0 6.2870356770387
2  22 11 0 0 6.2870356770387
2  23 12 0 0 6.2870356770387
0

0101000
+66 0 -59 0 *
Ve
2.94018603423493e-05
1.99999995677203 5.40000000214468 3.40853379161e-10
0 0

0101101
*
Ed
 1e-07 1 1 0
1  14 0 0 6.2870356770387
2  24 11 0 0 6.2870356770387
2  25 13 0 0 6.2870356770387
0

0101000
+64 0 -57 0 *
Ed
 1e-07 1 1 0
1  15 0 0 1
2  26 11 0 0 1
2  27 14 0 0 1
4 G1 14 0 11 0
0

0101000
+59 0 -57 0 *
Wi

0101100
-58 0 +62 0 +56 0 -55 0 *
Fa
0  1e-07 11 0

0101000
+54 0 *
Ve
7.75115104411493e-05
-1.91898592689822 5.00000000105683 0.563465107280848
0 0

0101101
*
Ed
 0.00014709836519379 1 1 0
1  16 0 0 3.42929218747565
2  28 14 0 0 3.42929218747565
2  29 15 0 0 3.42929218747565
0

0101000
+59 0 -52 0 *
Ve
7.75115113493296e-05
-1.91898592690228 6.00000000105683 0.563465107282085
0 0

0101101
*
Ed
 0.000147098365210656 1 1 0
1  17 0 0 3.42929218747565
2  30 14 0 0 3.42929218747565
2  31 16 0 0 3.42929218747565
0

0101000
+57 0 -50 0 *
Ed
 1.00005e-07 1 1 0
1  18 0 0 1
2  32 14 0 0 1
0

0101000
+52 0 -50 0 *
Wi

0101100
-51 0 +55 0 +49 0 -48 0 *
Fa
0  1e-07 14 0

0101000
+47 0 *
Ve
4.39810618145432e-05
2.99999998894491 1.60000000054606 7.92760860018786e-11
0 0

0101101
*
Ed
 1e-07 1 1 0
1  19 0 0 6.2870356770387
2  33 3 0 0 6.2870356770387
2  34 4 0 0 6.2870356770387
0

0101000
+85 0 -45 0 *
Ed
 1e-07 1 1 0
1  20 0 0 1.11803398875052
2  35 3 0 0 1.11803398875052
2  36 7 0 0 1.11803398875052
4 C1 7 0 3 0
0

0101000
+78 0 -45 0 *
Wi

0101100
-77 0 +84 0 +44 0 -43 0 *
Fa
0  1e-07 3 0

0101000
+42 0 *
Ve
4.39810783756164e-05
2.99999997862034 2.70000000105574 1.49308687941708e-10
0 0

0101101
*
Ed
 1e-07 1 1 0
1  21 0 0 6.2870356770387
2  37 7 0 0 6.2870356770387
2  38 6 0 0 6.2870356770387
0

0101000
+45 0 -40 0 *
Ed
 1e-07 1 1 0
1  22 0 0 1.11803398875052
2  39 7 0 0 1.11803398875052
2  40 10 0 0 1.11803398875052
4 C1 10 0 7 0
0

0101000
+71 0 -40 0 *
Wi

0101100
-70 0 +43 0 +39 0 -38 0 *
Fa
0  1e-07 7 0

0101000
+37 0 *
Ve
4.39810841886954e-05
2.99999996780764 3.80000000158998 2.02276051770023e-10
0 0

0101101
*
Ed
 1e-07 1 1 0
1  23 0 0 6.2870356770387
2  41 10 0 0 6.2870356770387
2  42 9 0 0 6.2870356770387
0

0101000
+40 0 -35 0 *
Ed
 1e-07 1 1 0
1  24 0 0 1.11803398875052
2  43 10 0 0 1.11803398875052
2  44 13 0 0 1.11803398875052
4 C1 13 0 10 0
0

0101000
+64 0 -35 0 *
Wi

0101100
-63 0 +38 0 +34 0 -33 0 *
Fa
0  1e-07 10 0

0101000
+32 0 *
Ve
4.39810778551053e-05
2.99999995676771 4.90000000213513 3.39765582641472e-10
0 0

0101101
*
Ed
 1e-07 1 1 0
1  25 0 0 6.2870356770387
2  45 13 0 0 6.2870356770387
2  46 12 0 0 6.2870356770387
0

0101000
+35 0 -30 0 *
Ed
 1e-07 1 1 0
1  26 0 0 1.11803398875052
2  47 13 0 0 1.11803398875052
2  48 16 0 0 1.11803398875052
4 G1 16 0 13 0
0

0101000
+57 0 -30 0 *
Wi

0101100
-56 0 +33 0 +29 0 -28 0 *
Fa
0  1e-07 13 0

0101000
+27 0 *
Ve
1.0602117875223e-05
-2.87847890051444 5.50000000105229 0.845197664123973
0 0

0101101
*
Ed
 1e-07 1 1 0
1  27 0 0 3.42929218747565
2  49 16 0 0 3.42929218747565
2  50 15 0 0 3.42929218747565
0

0101000
+30 0 -25 0 *
Ed
 1.00005e-07 1 1 0
1  28 0 0 1.11803398875052
2  51 16 0 0 1.11803398875052
0

0101000
+50 0 -25 0 *
Wi

0101100
-49 0 +28 0 +24 0 -23 0 *
Fa
0  1e-07 16 0

0101000
+22 0 *
Ed
 1e-07 1 1 0
1  29 0 0 1.11803398874927
2  52 4 0 0 1.11803398874927
2  53 6 0 0 1.11803398874927
4 C1 6 0 4 0
0

0101000
+45 0 -80 0 *
Wi

0101100
-44 0 +83 0 +79 0 -20 0 *
Fa
0  1e-07 4 0

0101000
+19 0 *
Ed
 1e-07 1 1 0
1  30 0 0 1.11803398874927
2  54 6 0 0 1.11803398874927
2  55 9 0 0 1.11803398874927
4 C1 9 0 6 0
0

0101000
+40 0 -73 0 *
Wi

0101100
-39 0 +20 0 +72 0 -17 0 *
Fa
0  1e-07 6 0

0101000
+16 0 *
Ed
 1e-07 1 1 0
1  31 0 0 1.11803398874927
2  56 9 0 0 1.11803398874927
2  57 12 0 0 1.11803398874927
4 C1 12 0 9 0
0

0101000
+35 0 -66 0 *
Wi

0101100
-34 0 +17 0 +65 0 -14 0 *
Fa
0  1e-07 9 0

0101000
+13 0 *
Ed
 1e-07 1 1 0
1  32 0 0 1.11803398874927
2  58 12 0 0 1.11803398874927
2  59 15 0 0 1.11803398874927
4 G1 15 0 12 0
0

0101000
+30 0 -59 0 *
Wi

0101100
-29 0 +14 0 +58 0 -11 0 *
Fa
0  1e-07 12 0

0101000
+10 0 *
Ed
 1.00005e-07 1 1 0
1  33 0 0 1.11803398874927
2  60 15 0 0 1.11803398874927
0

0101000
+25 0 -52 0 *
Wi

0101100
-24 0 +11 0 +51 0 -8 0 *
Fa
0  1e-07 15 0

0101000
+7 0 *
Wi

0101100
+48 0 +23 0 +8 0 *
Fa
0  1e-07 17 0

0101000
+5 0 *
Sh

0101100
-81 0 +74 0 +67 0 +60 0 +53 0 +46 0 +41 0 +36 0 +31 0 +26 0
+21 0 +18 0 +15 0 +12 0 +9 0 +6 0 +4 0 *
So

0100000
+3 0 *
Co

1100000
+2 1 *

+1 0
