<?xml version="1.0" encoding="UTF-8" standalone="no"?>
<!-- Created with Inkscape (http://www.inkscape.org/) -->

<svg
   width="64"
   height="64"
   id="svg2869"
   version="1.1"
   viewBox="0 0 64 64"
   xmlns="http://www.w3.org/2000/svg"
   xmlns:svg="http://www.w3.org/2000/svg"
   xmlns:rdf="http://www.w3.org/1999/02/22-rdf-syntax-ns#"
   xmlns:cc="http://creativecommons.org/ns#"
   xmlns:dc="http://purl.org/dc/elements/1.1/">
  <defs
     id="defs2871" />
  <metadata
     id="metadata2874">
    <rdf:RDF>
      <cc:Work
         rdf:about="">
        <dc:format>image/svg+xml</dc:format>
        <dc:type
           rdf:resource="http://purl.org/dc/dcmitype/StillImage" />
        <dc:creator>
          <cc:Agent>
            <dc:title>[maxwxyz]</dc:title>
          </cc:Agent>
        </dc:creator>
        <dc:relation>https://www.freecad.org/wiki/index.php?title=Artwork</dc:relation>
        <dc:publisher>
          <cc:Agent>
            <dc:title>FreeCAD</dc:title>
          </cc:Agent>
        </dc:publisher>
        <dc:identifier>FreeCAD/src/</dc:identifier>
        <dc:rights>
          <cc:Agent>
            <dc:title>FreeCAD LGPL2+</dc:title>
          </cc:Agent>
        </dc:rights>
        <dc:date>2024</dc:date>
      </cc:Work>
    </rdf:RDF>
  </metadata>
  <path
     style="color:#000000;fill:#000000;fill-rule:evenodd;stroke-linecap:round;-inkscape-stroke:none;fill-opacity:1"
     d="m 4.5117187,5 a 3,3 0 0 0 3,3 C 34.326069,8.0000001 56,29.673931 56,56.488281 a 3,3 0 0 0 3,3 3,3 0 0 0 3,-3 C 62,26.431294 37.568706,2.0000001 7.5117187,2 a 3,3 0 0 0 -3,3 z"
     id="path1" />
  <path
     style="color:#000000;fill:#000000;fill-rule:evenodd;stroke-linecap:round;-inkscape-stroke:none;fill-opacity:1"
     d="M 32.908203,26.847656 3.4980469,56.259766 a 3,3 0 0 0 0,4.242187 3,3 0 0 0 4.2421875,0 L 37.152344,31.091797 a 3,3 0 0 0 0,-4.244141 3,3 0 0 0 -4.244141,0 z"
     id="path6" />
  <path
     id="path4"
     style="color:#000000;fill:#000000;fill-rule:evenodd;-inkscape-stroke:none;fill-opacity:1"
     d="M 41.523438 22.476562 L 20.136719 28.195312 L 35.804688 43.863281 L 41.523438 22.476562 z " />
</svg>
