<?xml version="1.0" encoding="UTF-8" standalone="no"?>
<!-- Created with Inkscape (http://www.inkscape.org/) -->

<svg
   width="210mm"
   height="297mm"
   viewBox="0 0 210 297"
   version="1.1"
   id="svg5"
   xml:space="preserve"
   inkscape:version="1.4.2 (ebf0e940d0, 2025-05-08)"
   sodipodi:docname="ballend.svg"
   xmlns:inkscape="http://www.inkscape.org/namespaces/inkscape"
   xmlns:sodipodi="http://sodipodi.sourceforge.net/DTD/sodipodi-0.dtd"
   xmlns:xlink="http://www.w3.org/1999/xlink"
   xmlns="http://www.w3.org/2000/svg"
   xmlns:svg="http://www.w3.org/2000/svg"><sodipodi:namedview
     id="namedview7"
     pagecolor="#ffffff"
     bordercolor="#666666"
     borderopacity="1.0"
     inkscape:showpageshadow="2"
     inkscape:pageopacity="0.0"
     inkscape:pagecheckerboard="true"
     inkscape:deskcolor="#d1d1d1"
     inkscape:document-units="mm"
     showgrid="false"
     inkscape:zoom="0.74991656"
     inkscape:cx="176.68632"
     inkscape:cy="308.70101"
     inkscape:window-width="2818"
     inkscape:window-height="1645"
     inkscape:window-x="1022"
     inkscape:window-y="192"
     inkscape:window-maximized="0"
     inkscape:current-layer="g547" /><defs
     id="defs2"><linearGradient
       id="linearGradient12"
       inkscape:collect="always"><stop
         style="stop-color:#ababab;stop-opacity:1;"
         offset="0"
         id="stop12" /><stop
         style="stop-color:#c8c8c8;stop-opacity:1;"
         offset="0.4613452"
         id="stop14" /><stop
         style="stop-color:#878787;stop-opacity:1;"
         offset="1"
         id="stop13" /></linearGradient><linearGradient
       inkscape:collect="always"
       id="linearGradient3234"><stop
         style="stop-color:#939393;stop-opacity:1;"
         offset="0"
         id="stop3230" /><stop
         style="stop-color:#a6a6a6;stop-opacity:1;"
         offset="1"
         id="stop3232" /></linearGradient><linearGradient
       inkscape:collect="always"
       id="linearGradient3197"><stop
         style="stop-color:#c2c2c2;stop-opacity:1;"
         offset="0"
         id="stop3193" /><stop
         style="stop-color:#bcbcbc;stop-opacity:1;"
         offset="1"
         id="stop3195" /></linearGradient><linearGradient
       inkscape:collect="always"
       id="linearGradient3164"><stop
         style="stop-color:#7f7f7f;stop-opacity:1;"
         offset="0"
         id="stop3160" /><stop
         style="stop-color:#d1d1d1;stop-opacity:1;"
         offset="1"
         id="stop3162" /></linearGradient><linearGradient
       inkscape:collect="always"
       id="linearGradient2387"><stop
         style="stop-color:#757575;stop-opacity:1;"
         offset="0"
         id="stop2383" /><stop
         style="stop-color:#e2e2e2;stop-opacity:1;"
         offset="1"
         id="stop2385" /></linearGradient><linearGradient
       inkscape:collect="always"
       id="linearGradient1597"><stop
         style="stop-color:#a2a2a2;stop-opacity:1;"
         offset="0"
         id="stop1593" /><stop
         style="stop-color:#f9f9f9;stop-opacity:1;"
         offset="1"
         id="stop1595" /></linearGradient><linearGradient
       inkscape:collect="always"
       xlink:href="#linearGradient1597"
       id="linearGradient1599"
       x1="87.435623"
       y1="79.357056"
       x2="111.22856"
       y2="73.90403"
       gradientUnits="userSpaceOnUse"
       gradientTransform="matrix(2.1039352,0,0,2.0769214,-118.55184,-31.78813)" /><linearGradient
       inkscape:collect="always"
       xlink:href="#linearGradient2387"
       id="linearGradient2389"
       x1="96.292923"
       y1="98.227234"
       x2="115.44387"
       y2="101.37556"
       gradientUnits="userSpaceOnUse"
       gradientTransform="matrix(2.1039352,0,0,2.0769214,-118.55184,-31.78813)" /><linearGradient
       inkscape:collect="always"
       xlink:href="#linearGradient3164"
       id="linearGradient3166"
       x1="105.2982"
       y1="113.63973"
       x2="121.38458"
       y2="107.85011"
       gradientUnits="userSpaceOnUse"
       gradientTransform="matrix(2.1039352,0,0,2.0769214,-118.55184,-31.78813)" /><linearGradient
       inkscape:collect="always"
       xlink:href="#linearGradient3197"
       id="linearGradient3199"
       x1="114.56518"
       y1="99.303268"
       x2="106.60018"
       y2="108.47805"
       gradientUnits="userSpaceOnUse"
       gradientTransform="matrix(2.1039352,0,0,2.0769214,-118.55184,-31.78813)" /><linearGradient
       inkscape:collect="always"
       xlink:href="#linearGradient3234"
       id="linearGradient3236"
       x1="117.31676"
       y1="115.81714"
       x2="120.31398"
       y2="115.81714"
       gradientUnits="userSpaceOnUse"
       gradientTransform="matrix(2.1039352,0,0,2.0769214,-118.55184,-31.78813)" /><marker
       style="overflow:visible"
       id="marker1181-3"
       refX="0"
       refY="0"
       orient="auto"><path
         transform="matrix(1.1,0,0,1.1,1.1,0)"
         d="M 8.7185878,4.0337352 -2.2072895,0.01601326 8.7185884,-4.0017078 c -1.7454984,2.3720609 -1.7354408,5.6174519 -6e-7,8.035443 z"
         style="fill:#000000;fill-opacity:1;fill-rule:evenodd;stroke:#000000;stroke-width:0.625;stroke-linejoin:round;stroke-opacity:1"
         id="path1179-6" /></marker><marker
       style="overflow:visible"
       id="marker1185-7"
       refX="0"
       refY="0"
       orient="auto"><path
         transform="matrix(-1.1,0,0,-1.1,-1.1,0)"
         d="M 8.7185878,4.0337352 -2.2072895,0.01601326 8.7185884,-4.0017078 c -1.7454984,2.3720609 -1.7354408,5.6174519 -6e-7,8.035443 z"
         style="fill:#000000;fill-opacity:1;fill-rule:evenodd;stroke:#000000;stroke-width:0.625;stroke-linejoin:round;stroke-opacity:1"
         id="path1183-5" /></marker><marker
       style="overflow:visible"
       id="marker1181-3-6"
       refX="0"
       refY="0"
       orient="auto"><path
         transform="matrix(1.1,0,0,1.1,1.1,0)"
         d="M 8.7185878,4.0337352 -2.2072895,0.01601326 8.7185884,-4.0017078 c -1.7454984,2.3720609 -1.7354408,5.6174519 -6e-7,8.035443 z"
         style="fill:#000000;fill-opacity:1;fill-rule:evenodd;stroke:#000000;stroke-width:0.625;stroke-linejoin:round;stroke-opacity:1"
         id="path1179-6-7" /></marker><marker
       style="overflow:visible"
       id="marker1185-7-5"
       refX="0"
       refY="0"
       orient="auto"><path
         transform="matrix(-1.1,0,0,-1.1,-1.1,0)"
         d="M 8.7185878,4.0337352 -2.2072895,0.01601326 8.7185884,-4.0017078 c -1.7454984,2.3720609 -1.7354408,5.6174519 -6e-7,8.035443 z"
         style="fill:#000000;fill-opacity:1;fill-rule:evenodd;stroke:#000000;stroke-width:0.625;stroke-linejoin:round;stroke-opacity:1"
         id="path1183-5-3" /></marker><marker
       style="overflow:visible"
       id="Arrow2Lstart-3"
       refX="0"
       refY="0"
       orient="auto"><path
         transform="matrix(1.1,0,0,1.1,1.1,0)"
         d="M 8.7185878,4.0337352 -2.2072895,0.01601326 8.7185884,-4.0017078 c -1.7454984,2.3720609 -1.7354408,5.6174519 -6e-7,8.035443 z"
         style="fill:#000000;fill-opacity:1;fill-rule:evenodd;stroke:#000000;stroke-width:0.625;stroke-linejoin:round;stroke-opacity:1"
         id="path917-5" /></marker><marker
       style="overflow:visible"
       id="Arrow2Lend-6"
       refX="0"
       refY="0"
       orient="auto"><path
         transform="matrix(-1.1,0,0,-1.1,-1.1,0)"
         d="M 8.7185878,4.0337352 -2.2072895,0.01601326 8.7185884,-4.0017078 c -1.7454984,2.3720609 -1.7354408,5.6174519 -6e-7,8.035443 z"
         style="fill:#000000;fill-opacity:1;fill-rule:evenodd;stroke:#000000;stroke-width:0.625;stroke-linejoin:round;stroke-opacity:1"
         id="path920-2" /></marker><marker
       style="overflow:visible"
       id="marker1181"
       refX="0"
       refY="0"
       orient="auto"><path
         transform="matrix(1.1,0,0,1.1,1.1,0)"
         d="M 8.7185878,4.0337352 -2.2072895,0.01601326 8.7185884,-4.0017078 c -1.7454984,2.3720609 -1.7354408,5.6174519 -6e-7,8.035443 z"
         style="fill:#000000;fill-opacity:1;fill-rule:evenodd;stroke:#000000;stroke-width:0.625;stroke-linejoin:round;stroke-opacity:1"
         id="path1179" /></marker><marker
       style="overflow:visible"
       id="marker1185"
       refX="0"
       refY="0"
       orient="auto"><path
         transform="matrix(-1.1,0,0,-1.1,-1.1,0)"
         d="M 8.7185878,4.0337352 -2.2072895,0.01601326 8.7185884,-4.0017078 c -1.7454984,2.3720609 -1.7354408,5.6174519 -6e-7,8.035443 z"
         style="fill:#000000;fill-opacity:1;fill-rule:evenodd;stroke:#000000;stroke-width:0.625;stroke-linejoin:round;stroke-opacity:1"
         id="path1183" /></marker><marker
       style="overflow:visible"
       id="marker1173"
       refX="0"
       refY="0"
       orient="auto"><path
         transform="matrix(1.1,0,0,1.1,1.1,0)"
         d="M 8.7185878,4.0337352 -2.2072895,0.01601326 8.7185884,-4.0017078 c -1.7454984,2.3720609 -1.7354408,5.6174519 -6e-7,8.035443 z"
         style="fill:#000000;fill-opacity:1;fill-rule:evenodd;stroke:#000000;stroke-width:0.625;stroke-linejoin:round;stroke-opacity:1"
         id="path1171" /></marker><marker
       style="overflow:visible"
       id="marker1177"
       refX="0"
       refY="0"
       orient="auto"><path
         transform="matrix(-1.1,0,0,-1.1,-1.1,0)"
         d="M 8.7185878,4.0337352 -2.2072895,0.01601326 8.7185884,-4.0017078 c -1.7454984,2.3720609 -1.7354408,5.6174519 -6e-7,8.035443 z"
         style="fill:#000000;fill-opacity:1;fill-rule:evenodd;stroke:#000000;stroke-width:0.625;stroke-linejoin:round;stroke-opacity:1"
         id="path1175" /></marker><marker
       style="overflow:visible"
       id="Arrow2Lstart"
       refX="0"
       refY="0"
       orient="auto"><path
         transform="matrix(1.1,0,0,1.1,1.1,0)"
         d="M 8.7185878,4.0337352 -2.2072895,0.01601326 8.7185884,-4.0017078 c -1.7454984,2.3720609 -1.7354408,5.6174519 -6e-7,8.035443 z"
         style="fill:#000000;fill-opacity:1;fill-rule:evenodd;stroke:#000000;stroke-width:0.625;stroke-linejoin:round;stroke-opacity:1"
         id="path917" /></marker><marker
       style="overflow:visible"
       id="Arrow2Lend"
       refX="0"
       refY="0"
       orient="auto"><path
         transform="matrix(-1.1,0,0,-1.1,-1.1,0)"
         d="M 8.7185878,4.0337352 -2.2072895,0.01601326 8.7185884,-4.0017078 c -1.7454984,2.3720609 -1.7354408,5.6174519 -6e-7,8.035443 z"
         style="fill:#000000;fill-opacity:1;fill-rule:evenodd;stroke:#000000;stroke-width:0.625;stroke-linejoin:round;stroke-opacity:1"
         id="path920" /></marker><linearGradient
       inkscape:collect="always"
       xlink:href="#linearGradient12"
       id="linearGradient13"
       x1="69.704971"
       y1="103.07113"
       x2="134.92827"
       y2="103.07113"
       gradientUnits="userSpaceOnUse" /></defs><g
     inkscape:label="Layer 1"
     inkscape:groupmode="layer"
     id="layer1"><g
       id="g547"
       transform="matrix(1.0595259,0,0,1.0595259,-5.9958564,-17.148658)"><rect
         style="fill:url(#linearGradient13);stroke-width:0.47190918;stroke:#000000;stroke-opacity:1;stroke-dasharray:none"
         id="rect11"
         width="64.890305"
         height="122.62204"
         x="70.037964"
         y="37.431164"
         ry="0" /><path
         style="fill:url(#linearGradient1599);fill-opacity:1;stroke:#000000;stroke-width:0.55308px;stroke-linecap:butt;stroke-linejoin:miter;stroke-opacity:1"
         d="m 75.590637,186.41788 c 0,0 -5.447171,-16.7828 -5.299906,-25.4492 0.133579,-7.86093 2.795594,-15.52796 5.225715,-23.01507 1.910547,-5.88632 4.124428,-11.76003 7.308898,-17.08204 4.512228,-7.54104 7.604423,-20.45456 16.474719,-20.63685 9.532697,-0.19589 18.624667,21.43132 18.624667,21.43132"
         id="path718"
         sodipodi:nodetypes="cssssc" /><path
         style="fill:#efecec;fill-opacity:1;stroke:#000000;stroke-width:0.55308px;stroke-linecap:butt;stroke-linejoin:miter;stroke-opacity:1"
         d="m 70.474864,221.21789 c 0,0 -0.7884,-5.92662 -0.290152,-10.53629 1.114419,-10.31033 1.370615,-18.36403 15.86117,-44.12409 14.490478,-25.76007 31.664138,-45.12505 31.664138,-45.12505 l 9.37558,-2.02296"
         id="path716"
         sodipodi:nodetypes="cszcc" /><path
         style="fill:url(#linearGradient2389);fill-opacity:1;stroke:#000000;stroke-width:0.55308px;stroke-linecap:butt;stroke-linejoin:miter;stroke-opacity:1"
         d="m 87.862083,186.92143 c -5.37805,10.34989 -17.386266,34.24406 -17.386266,34.24406 0,0 2.388991,10.09811 4.762209,14.06439 4.507111,7.53258 15.592667,13.73588 27.289344,14.25327 11.69668,0.51738 29.08156,-11.32492 31.55034,-29.86748 1.79685,-13.49571 -4.27271,-26.10448 -4.27271,-26.10448 l 4.87524,-31.48276 0.5117,-43.92025 -0.33436,-16.66509 c 0,0 -6.87663,17.86859 -17.13756,34.48204 -8.66778,14.03401 -22.25846,36.3714 -29.857937,50.9963 z"
         id="path726"
         sodipodi:nodetypes="scszsccccss" /><path
         style="fill:url(#linearGradient3199);fill-opacity:1;stroke:#000000;stroke-width:0.55308px;stroke-linecap:butt;stroke-linejoin:miter;stroke-opacity:1"
         d="m 132.84346,129.82269 c 0,0 -5.1591,19.43052 -9.41698,30.47643 -4.53773,11.77184 -14.58501,32.76751 -20.5614,43.89565 -3.446334,6.41713 -14.608004,24.18762 -14.923174,25.47563 -0.188723,0.77105 1.912877,17.01659 1.912877,17.01659 l 2.95525,0.91646"
         id="path728-3"
         sodipodi:nodetypes="cssscc" /><path
         style="fill:url(#linearGradient3236);fill-opacity:1;stroke:#000000;stroke-width:0.55308px;stroke-linecap:butt;stroke-linejoin:miter;stroke-opacity:1"
         d="m 129.786,193.23179 c 0,0 -1.42885,24.72795 -1.20989,25.30915 0.25634,0.6804 4.69796,5.23465 4.69796,5.23465 0,0 1.40133,-9.48222 0.93038,-14.20392 -0.55956,-5.61022 -4.41845,-16.33988 -4.41845,-16.33988 z"
         id="path732"
         sodipodi:nodetypes="cscsc" /><path
         style="fill:url(#linearGradient3166);fill-opacity:1;stroke:#000000;stroke-width:0.55308px;stroke-linecap:butt;stroke-linejoin:miter;stroke-opacity:1"
         d="m 92.659876,247.68958 c 0,0 0.899095,-11.30036 1.845508,-15.05594 1.776227,-7.04834 3.405935,-13.97614 6.852266,-20.39327 5.9764,-11.12814 16.42885,-26.70021 22.24419,-38.07133 4.97046,-9.7191 11.03163,-25.77799 11.03163,-25.77799 l -0.19378,14.05333 -3.64675,23.7098 c 0,0 -11.36827,21.04638 -16.12681,32.01626 -4.37023,10.07473 -11.61218,31.31532 -11.61218,31.31532 0,0 -3.633331,-0.29976 -5.367773,-0.59994 -1.734442,-0.30019 -5.026301,-1.19624 -5.026301,-1.19624 z"
         id="path728"
         sodipodi:nodetypes="sssccccscss" /><ellipse
         id="path948"
         style="fill:#e33636;stroke:#000000;stroke-width:0.55308"
         cx="128.36887"
         cy="218.98636"
         rx="0.00054126716"
         ry="0.00053431751" /><ellipse
         id="path950"
         style="fill:#e33636;stroke:#000000;stroke-width:0.55308"
         cx="133.53671"
         cy="222.83725"
         rx="0.00054126716"
         ry="0.00053431751" /><path
         id="path4538-5"
         d="m 134.77997,269.93139 v -39.1469"
         style="fill:none;stroke:#000000;stroke-width:0.823854;stroke-linecap:butt;stroke-linejoin:miter;stroke-miterlimit:4;stroke-dasharray:none;stroke-opacity:1" /><path
         id="path4542-3"
         d="M 73.662232,49.575249 H 130.70829"
         style="fill:none;stroke:#000000;stroke-width:0.736568;stroke-linecap:butt;stroke-linejoin:miter;stroke-miterlimit:4;stroke-dasharray:none;stroke-opacity:1;marker-start:url(#marker1181);marker-end:url(#marker1185)"
         sodipodi:nodetypes="cc" /><path
         id="path4548"
         d="M 70.526184,257.68689 H 134.18441"
         style="fill:none;stroke:#000000;stroke-width:0.540802;stroke-linecap:butt;stroke-linejoin:miter;stroke-miterlimit:4;stroke-dasharray:none;stroke-opacity:1;marker-start:url(#marker1173);marker-end:url(#marker1177)" /><text
         transform="scale(0.97131606,1.029531)"
         id="shank_diameter"
         y="60.10556"
         x="143.20679"
         style="font-style:normal;font-variant:normal;font-weight:normal;font-stretch:normal;font-size:35.7707px;line-height:1.25;font-family:'URW Bookman L';-inkscape-font-specification:'URW Bookman L, Normal';font-variant-ligatures:normal;font-variant-caps:normal;font-variant-numeric:normal;font-feature-settings:normal;text-align:start;letter-spacing:0px;word-spacing:0px;writing-mode:lr-tb;text-anchor:start;fill:#000000;fill-opacity:1;stroke:none;stroke-width:3.35351"
         xml:space="preserve"><tspan
           style="font-style:normal;font-variant:normal;font-weight:normal;font-stretch:normal;font-size:35.7707px;font-family:'URW Bookman L';-inkscape-font-specification:'URW Bookman L, Normal';font-variant-ligatures:normal;font-variant-caps:normal;font-variant-numeric:normal;font-feature-settings:normal;text-align:start;writing-mode:lr-tb;text-anchor:start;stroke-width:3.35351"
           y="60.10556"
           x="143.20679"
           id="tspan5678">S</tspan></text><text
         transform="scale(0.97131606,1.029531)"
         id="diameter"
         y="279.82401"
         x="91.862976"
         style="font-style:normal;font-variant:normal;font-weight:normal;font-stretch:normal;font-size:35.7707px;line-height:1.25;font-family:'URW Bookman L';-inkscape-font-specification:'URW Bookman L, Normal';font-variant-ligatures:normal;font-variant-caps:normal;font-variant-numeric:normal;font-feature-settings:normal;text-align:start;letter-spacing:0px;word-spacing:0px;writing-mode:lr-tb;text-anchor:start;fill:#000000;fill-opacity:1;stroke:none;stroke-width:3.35351"
         xml:space="preserve"><tspan
           style="font-style:normal;font-variant:normal;font-weight:normal;font-stretch:normal;font-size:35.7707px;font-family:'URW Bookman L';-inkscape-font-specification:'URW Bookman L, Normal';font-variant-ligatures:normal;font-variant-caps:normal;font-variant-numeric:normal;font-feature-settings:normal;text-align:start;writing-mode:lr-tb;text-anchor:start;stroke-width:3.35351"
           y="279.82401"
           x="91.862976"
           id="tspan5690">D</tspan></text><text
         transform="scale(0.97131606,1.029531)"
         id="cutting_edge_height"
         y="177.09491"
         x="158.56374"
         style="font-style:normal;font-variant:normal;font-weight:normal;font-stretch:normal;font-size:35.7707px;line-height:1.25;font-family:'URW Bookman L';-inkscape-font-specification:'URW Bookman L, Normal';font-variant-ligatures:normal;font-variant-caps:normal;font-variant-numeric:normal;font-feature-settings:normal;text-align:start;letter-spacing:0px;word-spacing:0px;writing-mode:lr-tb;text-anchor:start;fill:#000000;fill-opacity:1;stroke:none;stroke-width:3.35351"
         xml:space="preserve"><tspan
           style="stroke-width:3.35351"
           y="177.09491"
           x="158.56374"
           id="tspan10475">H</tspan><tspan
           style="stroke-width:3.35351"
           id="tspan895"
           y="221.80833"
           x="158.56374" /></text><path
         id="path4538-8"
         d="m 70.004914,272.49174 v -39.1469"
         style="fill:none;stroke:#000000;stroke-width:0.823854;stroke-linecap:butt;stroke-linejoin:miter;stroke-miterlimit:4;stroke-dasharray:none;stroke-opacity:1" /><path
         id="path897-5"
         d="M 152.10819,100.27512 V 248.60004"
         style="fill:none;stroke:#000000;stroke-width:1.13395;stroke-linecap:butt;stroke-linejoin:miter;stroke-miterlimit:4;stroke-dasharray:none;stroke-opacity:1;marker-start:url(#Arrow2Lstart);marker-end:url(#Arrow2Lend)" /><path
         id="path1187-6"
         d="m 135.5716,97.506816 h 24.62222"
         style="fill:none;stroke:#000000;stroke-width:0.823854;stroke-linecap:butt;stroke-linejoin:miter;stroke-miterlimit:4;stroke-dasharray:none;stroke-opacity:1" /><path
         id="path1189"
         d="m 137.42019,249.94066 h 24.62222"
         style="fill:none;stroke:#000000;stroke-width:0.823854;stroke-linecap:butt;stroke-linejoin:miter;stroke-miterlimit:4;stroke-dasharray:none;stroke-opacity:1" /><text
         transform="scale(0.97131606,1.029531)"
         id="length"
         y="150.36441"
         x="23.226624"
         style="font-style:normal;font-variant:normal;font-weight:normal;font-stretch:normal;font-size:35.7707px;line-height:1.25;font-family:'URW Bookman L';-inkscape-font-specification:'URW Bookman L, Normal';font-variant-ligatures:normal;font-variant-caps:normal;font-variant-numeric:normal;font-feature-settings:normal;text-align:start;letter-spacing:0px;word-spacing:0px;writing-mode:lr-tb;text-anchor:start;fill:#000000;fill-opacity:1;stroke:none;stroke-width:3.35351"
         xml:space="preserve">L</text><path
         id="path543"
         d="M 52.720184,40.517054 V 247.35282"
         style="fill:none;stroke:#000000;stroke-width:0.943818;stroke-linecap:butt;stroke-linejoin:miter;stroke-miterlimit:4;stroke-dasharray:none;stroke-opacity:1;marker-start:url(#Arrow2Lstart);marker-end:url(#Arrow2Lend)" /><path
         id="path545"
         d="m 45.672891,37.574352 h 24.62223"
         style="fill:none;stroke:#000000;stroke-width:0.823854;stroke-linecap:butt;stroke-linejoin:miter;stroke-miterlimit:4;stroke-dasharray:none;stroke-opacity:1" /><path
         id="path547"
         d="m 47.521481,249.94066 h 24.62223"
         style="fill:none;stroke:#000000;stroke-width:0.823854;stroke-linecap:butt;stroke-linejoin:miter;stroke-miterlimit:4;stroke-dasharray:none;stroke-opacity:1" /></g></g></svg>
