<?xml version="1.0" encoding="UTF-8" standalone="no"?>
<!-- Created with Inkscape (http://www.inkscape.org/) -->

<svg
   width="210mm"
   height="297mm"
   viewBox="0 0 210 297"
   version="1.1"
   id="svg5"
   xml:space="preserve"
   inkscape:version="1.2.2 (b0a8486541, 2022-12-01)"
   sodipodi:docname="ballend.svg"
   xmlns:inkscape="http://www.inkscape.org/namespaces/inkscape"
   xmlns:sodipodi="http://sodipodi.sourceforge.net/DTD/sodipodi-0.dtd"
   xmlns:xlink="http://www.w3.org/1999/xlink"
   xmlns="http://www.w3.org/2000/svg"
   xmlns:svg="http://www.w3.org/2000/svg"><sodipodi:namedview
     id="namedview7"
     pagecolor="#ffffff"
     bordercolor="#666666"
     borderopacity="1.0"
     inkscape:showpageshadow="2"
     inkscape:pageopacity="0.0"
     inkscape:pagecheckerboard="0"
     inkscape:deskcolor="#d1d1d1"
     inkscape:document-units="mm"
     showgrid="false"
     inkscape:zoom="0.8494956"
     inkscape:cx="-328.43019"
     inkscape:cy="430.8439"
     inkscape:window-width="2818"
     inkscape:window-height="1645"
     inkscape:window-x="2151"
     inkscape:window-y="192"
     inkscape:window-maximized="0"
     inkscape:current-layer="g547" /><defs
     id="defs2"><linearGradient
       inkscape:collect="always"
       id="linearGradient3234"><stop
         style="stop-color:#939393;stop-opacity:1;"
         offset="0"
         id="stop3230" /><stop
         style="stop-color:#a6a6a6;stop-opacity:1;"
         offset="1"
         id="stop3232" /></linearGradient><linearGradient
       inkscape:collect="always"
       id="linearGradient3197"><stop
         style="stop-color:#c2c2c2;stop-opacity:1;"
         offset="0"
         id="stop3193" /><stop
         style="stop-color:#bcbcbc;stop-opacity:1;"
         offset="1"
         id="stop3195" /></linearGradient><linearGradient
       inkscape:collect="always"
       id="linearGradient3164"><stop
         style="stop-color:#7f7f7f;stop-opacity:1;"
         offset="0"
         id="stop3160" /><stop
         style="stop-color:#d1d1d1;stop-opacity:1;"
         offset="1"
         id="stop3162" /></linearGradient><linearGradient
       inkscape:collect="always"
       id="linearGradient2387"><stop
         style="stop-color:#757575;stop-opacity:1;"
         offset="0"
         id="stop2383" /><stop
         style="stop-color:#e2e2e2;stop-opacity:1;"
         offset="1"
         id="stop2385" /></linearGradient><linearGradient
       inkscape:collect="always"
       id="linearGradient1597"><stop
         style="stop-color:#a2a2a2;stop-opacity:1;"
         offset="0"
         id="stop1593" /><stop
         style="stop-color:#f9f9f9;stop-opacity:1;"
         offset="1"
         id="stop1595" /></linearGradient><linearGradient
       inkscape:collect="always"
       xlink:href="#linearGradient1597"
       id="linearGradient1599"
       x1="87.435623"
       y1="79.357056"
       x2="111.22856"
       y2="73.90403"
       gradientUnits="userSpaceOnUse"
       gradientTransform="translate(3.2697938)" /><linearGradient
       inkscape:collect="always"
       xlink:href="#linearGradient2387"
       id="linearGradient2389"
       x1="96.292923"
       y1="98.227234"
       x2="115.44387"
       y2="101.37556"
       gradientUnits="userSpaceOnUse"
       gradientTransform="translate(3.2697938)" /><linearGradient
       inkscape:collect="always"
       xlink:href="#linearGradient3164"
       id="linearGradient3166"
       x1="105.2982"
       y1="113.63973"
       x2="121.38458"
       y2="107.85011"
       gradientUnits="userSpaceOnUse"
       gradientTransform="translate(3.2697938)" /><linearGradient
       inkscape:collect="always"
       xlink:href="#linearGradient3197"
       id="linearGradient3199"
       x1="114.56518"
       y1="99.303268"
       x2="106.60018"
       y2="108.47805"
       gradientUnits="userSpaceOnUse"
       gradientTransform="translate(3.2697938)" /><linearGradient
       inkscape:collect="always"
       xlink:href="#linearGradient3234"
       id="linearGradient3236"
       x1="117.31676"
       y1="115.81714"
       x2="120.31398"
       y2="115.81714"
       gradientUnits="userSpaceOnUse"
       gradientTransform="translate(3.2697938)" /><marker
       style="overflow:visible"
       id="marker1181-3"
       refX="0"
       refY="0"
       orient="auto"><path
         transform="matrix(1.1,0,0,1.1,1.1,0)"
         d="M 8.7185878,4.0337352 -2.2072895,0.01601326 8.7185884,-4.0017078 c -1.7454984,2.3720609 -1.7354408,5.6174519 -6e-7,8.035443 z"
         style="fill:#000000;fill-opacity:1;fill-rule:evenodd;stroke:#000000;stroke-width:0.625;stroke-linejoin:round;stroke-opacity:1"
         id="path1179-6" /></marker><marker
       style="overflow:visible"
       id="marker1185-7"
       refX="0"
       refY="0"
       orient="auto"><path
         transform="matrix(-1.1,0,0,-1.1,-1.1,0)"
         d="M 8.7185878,4.0337352 -2.2072895,0.01601326 8.7185884,-4.0017078 c -1.7454984,2.3720609 -1.7354408,5.6174519 -6e-7,8.035443 z"
         style="fill:#000000;fill-opacity:1;fill-rule:evenodd;stroke:#000000;stroke-width:0.625;stroke-linejoin:round;stroke-opacity:1"
         id="path1183-5" /></marker><marker
       style="overflow:visible"
       id="marker1181-3-6"
       refX="0"
       refY="0"
       orient="auto"><path
         transform="matrix(1.1,0,0,1.1,1.1,0)"
         d="M 8.7185878,4.0337352 -2.2072895,0.01601326 8.7185884,-4.0017078 c -1.7454984,2.3720609 -1.7354408,5.6174519 -6e-7,8.035443 z"
         style="fill:#000000;fill-opacity:1;fill-rule:evenodd;stroke:#000000;stroke-width:0.625;stroke-linejoin:round;stroke-opacity:1"
         id="path1179-6-7" /></marker><marker
       style="overflow:visible"
       id="marker1185-7-5"
       refX="0"
       refY="0"
       orient="auto"><path
         transform="matrix(-1.1,0,0,-1.1,-1.1,0)"
         d="M 8.7185878,4.0337352 -2.2072895,0.01601326 8.7185884,-4.0017078 c -1.7454984,2.3720609 -1.7354408,5.6174519 -6e-7,8.035443 z"
         style="fill:#000000;fill-opacity:1;fill-rule:evenodd;stroke:#000000;stroke-width:0.625;stroke-linejoin:round;stroke-opacity:1"
         id="path1183-5-3" /></marker><marker
       style="overflow:visible"
       id="Arrow2Lstart-3"
       refX="0"
       refY="0"
       orient="auto"><path
         transform="matrix(1.1,0,0,1.1,1.1,0)"
         d="M 8.7185878,4.0337352 -2.2072895,0.01601326 8.7185884,-4.0017078 c -1.7454984,2.3720609 -1.7354408,5.6174519 -6e-7,8.035443 z"
         style="fill:#000000;fill-opacity:1;fill-rule:evenodd;stroke:#000000;stroke-width:0.625;stroke-linejoin:round;stroke-opacity:1"
         id="path917-5" /></marker><marker
       style="overflow:visible"
       id="Arrow2Lend-6"
       refX="0"
       refY="0"
       orient="auto"><path
         transform="matrix(-1.1,0,0,-1.1,-1.1,0)"
         d="M 8.7185878,4.0337352 -2.2072895,0.01601326 8.7185884,-4.0017078 c -1.7454984,2.3720609 -1.7354408,5.6174519 -6e-7,8.035443 z"
         style="fill:#000000;fill-opacity:1;fill-rule:evenodd;stroke:#000000;stroke-width:0.625;stroke-linejoin:round;stroke-opacity:1"
         id="path920-2" /></marker><marker
       style="overflow:visible"
       id="marker1181"
       refX="0"
       refY="0"
       orient="auto"><path
         transform="matrix(1.1,0,0,1.1,1.1,0)"
         d="M 8.7185878,4.0337352 -2.2072895,0.01601326 8.7185884,-4.0017078 c -1.7454984,2.3720609 -1.7354408,5.6174519 -6e-7,8.035443 z"
         style="fill:#000000;fill-opacity:1;fill-rule:evenodd;stroke:#000000;stroke-width:0.625;stroke-linejoin:round;stroke-opacity:1"
         id="path1179" /></marker><marker
       style="overflow:visible"
       id="marker1185"
       refX="0"
       refY="0"
       orient="auto"><path
         transform="matrix(-1.1,0,0,-1.1,-1.1,0)"
         d="M 8.7185878,4.0337352 -2.2072895,0.01601326 8.7185884,-4.0017078 c -1.7454984,2.3720609 -1.7354408,5.6174519 -6e-7,8.035443 z"
         style="fill:#000000;fill-opacity:1;fill-rule:evenodd;stroke:#000000;stroke-width:0.625;stroke-linejoin:round;stroke-opacity:1"
         id="path1183" /></marker><marker
       style="overflow:visible"
       id="marker1173"
       refX="0"
       refY="0"
       orient="auto"><path
         transform="matrix(1.1,0,0,1.1,1.1,0)"
         d="M 8.7185878,4.0337352 -2.2072895,0.01601326 8.7185884,-4.0017078 c -1.7454984,2.3720609 -1.7354408,5.6174519 -6e-7,8.035443 z"
         style="fill:#000000;fill-opacity:1;fill-rule:evenodd;stroke:#000000;stroke-width:0.625;stroke-linejoin:round;stroke-opacity:1"
         id="path1171" /></marker><marker
       style="overflow:visible"
       id="marker1177"
       refX="0"
       refY="0"
       orient="auto"><path
         transform="matrix(-1.1,0,0,-1.1,-1.1,0)"
         d="M 8.7185878,4.0337352 -2.2072895,0.01601326 8.7185884,-4.0017078 c -1.7454984,2.3720609 -1.7354408,5.6174519 -6e-7,8.035443 z"
         style="fill:#000000;fill-opacity:1;fill-rule:evenodd;stroke:#000000;stroke-width:0.625;stroke-linejoin:round;stroke-opacity:1"
         id="path1175" /></marker><marker
       style="overflow:visible"
       id="Arrow2Lstart"
       refX="0"
       refY="0"
       orient="auto"><path
         transform="matrix(1.1,0,0,1.1,1.1,0)"
         d="M 8.7185878,4.0337352 -2.2072895,0.01601326 8.7185884,-4.0017078 c -1.7454984,2.3720609 -1.7354408,5.6174519 -6e-7,8.035443 z"
         style="fill:#000000;fill-opacity:1;fill-rule:evenodd;stroke:#000000;stroke-width:0.625;stroke-linejoin:round;stroke-opacity:1"
         id="path917" /></marker><marker
       style="overflow:visible"
       id="Arrow2Lend"
       refX="0"
       refY="0"
       orient="auto"><path
         transform="matrix(-1.1,0,0,-1.1,-1.1,0)"
         d="M 8.7185878,4.0337352 -2.2072895,0.01601326 8.7185884,-4.0017078 c -1.7454984,2.3720609 -1.7354408,5.6174519 -6e-7,8.035443 z"
         style="fill:#000000;fill-opacity:1;fill-rule:evenodd;stroke:#000000;stroke-width:0.625;stroke-linejoin:round;stroke-opacity:1"
         id="path920" /></marker></defs><g
     inkscape:label="Layer 1"
     inkscape:groupmode="layer"
     id="layer1"><g
       id="g547"
       transform="matrix(1.0595259,0,0,1.0595259,-5.9958564,-17.148658)"><g
         id="g8077"
         transform="matrix(2.1039352,0,0,2.0769214,-125.43127,-31.78813)"><path
           style="fill:none;fill-opacity:1;stroke:#000000;stroke-width:0.264583px;stroke-linecap:butt;stroke-linejoin:miter;stroke-opacity:1"
           d="m 93.027044,92.836401 c 0,0 -0.599702,-8.913692 0.320023,-12.484025 0.487299,-1.891674 1.335285,-4.229034 1.46475,-6.582734 0.115189,-2.094175 -1.247814,-3.841211 -1.48163,-5.729381 -0.233815,-1.88817 0,-34.818688 0,-34.818688 m 30.330433,0 v 30.869976 l -3.87296,8.953935"
           id="path2327"
           sodipodi:nodetypes="csszcccc" /><path
           style="fill:url(#linearGradient1599);fill-opacity:1;stroke:#000000;stroke-width:0.264583px;stroke-linecap:butt;stroke-linejoin:miter;stroke-opacity:1"
           d="m 95.545674,105.06224 c 0,0 -2.589039,-8.080615 -2.519044,-12.253329 0.06349,-3.784897 1.328745,-7.476431 2.483781,-11.08134 0.908083,-2.834159 1.96034,-5.662241 3.473918,-8.224692 2.144661,-3.630874 3.614381,-9.848502 7.830431,-9.936268 4.53089,-0.09432 8.8523,10.318792 8.8523,10.318792"
           id="path718"
           sodipodi:nodetypes="cssssc" /><path
           style="fill:#efecec;fill-opacity:1;stroke:#000000;stroke-width:0.264583px;stroke-linecap:butt;stroke-linejoin:miter;stroke-opacity:1"
           d="m 93.114148,121.81781 c 0,0 -0.374726,-2.85356 -0.137909,-5.07303 0.529683,-4.96424 0.651453,-8.84195 7.538811,-21.244951 6.88732,-12.403005 15.04996,-21.726894 15.04996,-21.726894 l 4.45621,-0.974016"
           id="path716"
           sodipodi:nodetypes="cszcc" /><path
           style="fill:url(#linearGradient2389);fill-opacity:1;stroke:#000000;stroke-width:0.264583px;stroke-linecap:butt;stroke-linejoin:miter;stroke-opacity:1"
           d="m 101.37829,105.30469 c -2.556186,4.98328 -8.263689,16.48789 -8.263689,16.48789 0,0 1.135487,4.86206 2.263477,6.77175 2.142229,3.6268 7.411192,6.61358 12.970622,6.86269 5.55943,0.24911 13.82246,-5.45274 14.99587,-14.38065 0.85404,-6.49794 -2.03082,-12.56883 -2.03082,-12.56883 l 2.3172,-15.158378 c 0,0 0.33672,-9.604319 -0.50785,-14.297916 -0.30777,-1.710398 -1.48725,-5.148321 -1.48725,-5.148321 l 2.07939,-9.724508 c 0,0 -3.26846,8.6034 -8.14548,16.602476 -4.11979,6.757121 -10.57944,17.512173 -14.19147,24.553797 z"
           id="path726"
           sodipodi:nodetypes="scszsccsccss" /><path
           style="fill:url(#linearGradient3199);fill-opacity:1;stroke:#000000;stroke-width:0.264583px;stroke-linecap:butt;stroke-linejoin:miter;stroke-opacity:1"
           d="m 122.75793,77.812681 c 0,0 -2.45212,9.35544 -4.47589,14.673847 -2.15678,5.667926 -6.93225,15.776962 -9.77283,21.134962 -1.63804,3.08973 -6.94318,11.6459 -7.09298,12.26605 -0.0897,0.37125 0.90919,8.19318 0.90919,8.19318 l 1.40463,0.44126"
           id="path728-3"
           sodipodi:nodetypes="cssscc" /><path
           style="fill:url(#linearGradient3236);fill-opacity:1;stroke:#000000;stroke-width:0.264583px;stroke-linecap:butt;stroke-linejoin:miter;stroke-opacity:1"
           d="m 121.30472,108.34301 c 0,0 -0.67913,11.90606 -0.57506,12.1859 0.12184,0.3276 2.23294,2.52039 2.23294,2.52039 0,0 0.66605,-4.56552 0.44221,-6.83893 -0.26596,-2.70122 -2.10009,-7.86736 -2.10009,-7.86736 z"
           id="path732"
           sodipodi:nodetypes="cscsc" /><path
           style="fill:url(#linearGradient3166);fill-opacity:1;stroke:#000000;stroke-width:0.264583px;stroke-linecap:butt;stroke-linejoin:miter;stroke-opacity:1"
           d="m 103.65868,134.56345 c 0,0 0.42734,-5.44092 0.87717,-7.24916 0.84424,-3.39365 1.61884,-6.72926 3.25688,-9.81899 2.84058,-5.358 7.80863,-12.85567 10.57266,-18.330658 2.36246,-4.679571 5.24333,-12.411635 5.24333,-12.411635 l -0.0921,6.766427 -1.7333,11.415836 c 0,0 -5.40334,10.13345 -7.66507,15.41525 -2.07717,4.8508 -5.51927,15.07776 -5.51927,15.07776 0,0 -1.72692,-0.14433 -2.5513,-0.28886 -0.82438,-0.14454 -2.389,-0.57597 -2.389,-0.57597 z"
           id="path728"
           sodipodi:nodetypes="sssccccscss" /><circle
           id="path948"
           style="fill:#e33636;stroke:#000000;stroke-width:0.264583"
           cx="120.63116"
           cy="120.74337"
           r="0.00025726418" /><circle
           id="path950"
           style="fill:#e33636;stroke:#000000;stroke-width:0.264583"
           cx="123.08743"
           cy="122.5975"
           r="0.00025726418" /></g><path
         id="path4538-5"
         d="m 134.77997,269.93139 v -39.1469"
         style="fill:none;stroke:#000000;stroke-width:0.823854;stroke-linecap:butt;stroke-linejoin:miter;stroke-miterlimit:4;stroke-dasharray:none;stroke-opacity:1" /><path
         id="path4542-3"
         d="M 73.662232,49.575249 H 132.70604"
         style="fill:none;stroke:#000000;stroke-width:0.736568;stroke-linecap:butt;stroke-linejoin:miter;stroke-miterlimit:4;stroke-dasharray:none;stroke-opacity:1;marker-start:url(#marker1181);marker-end:url(#marker1185)" /><path
         id="path4548"
         d="M 70.526184,257.68689 H 134.18441"
         style="fill:none;stroke:#000000;stroke-width:0.540802;stroke-linecap:butt;stroke-linejoin:miter;stroke-miterlimit:4;stroke-dasharray:none;stroke-opacity:1;marker-start:url(#marker1173);marker-end:url(#marker1177)" /><text
         transform="scale(0.97131606,1.029531)"
         id="shank_diameter"
         y="60.10556"
         x="143.20679"
         style="font-style:normal;font-variant:normal;font-weight:normal;font-stretch:normal;font-size:35.7707px;line-height:1.25;font-family:'URW Bookman L';-inkscape-font-specification:'URW Bookman L, Normal';font-variant-ligatures:normal;font-variant-caps:normal;font-variant-numeric:normal;font-feature-settings:normal;text-align:start;letter-spacing:0px;word-spacing:0px;writing-mode:lr-tb;text-anchor:start;fill:#000000;fill-opacity:1;stroke:none;stroke-width:3.35351"
         xml:space="preserve"><tspan
           style="font-style:normal;font-variant:normal;font-weight:normal;font-stretch:normal;font-size:35.7707px;font-family:'URW Bookman L';-inkscape-font-specification:'URW Bookman L, Normal';font-variant-ligatures:normal;font-variant-caps:normal;font-variant-numeric:normal;font-feature-settings:normal;text-align:start;writing-mode:lr-tb;text-anchor:start;stroke-width:3.35351"
           y="60.10556"
           x="143.20679"
           id="tspan5678">S</tspan></text><text
         transform="scale(0.97131606,1.029531)"
         id="diameter"
         y="279.82401"
         x="91.862976"
         style="font-style:normal;font-variant:normal;font-weight:normal;font-stretch:normal;font-size:35.7707px;line-height:1.25;font-family:'URW Bookman L';-inkscape-font-specification:'URW Bookman L, Normal';font-variant-ligatures:normal;font-variant-caps:normal;font-variant-numeric:normal;font-feature-settings:normal;text-align:start;letter-spacing:0px;word-spacing:0px;writing-mode:lr-tb;text-anchor:start;fill:#000000;fill-opacity:1;stroke:none;stroke-width:3.35351"
         xml:space="preserve"><tspan
           style="font-style:normal;font-variant:normal;font-weight:normal;font-stretch:normal;font-size:35.7707px;font-family:'URW Bookman L';-inkscape-font-specification:'URW Bookman L, Normal';font-variant-ligatures:normal;font-variant-caps:normal;font-variant-numeric:normal;font-feature-settings:normal;text-align:start;writing-mode:lr-tb;text-anchor:start;stroke-width:3.35351"
           y="279.82401"
           x="91.862976"
           id="tspan5690">D</tspan></text><text
         transform="scale(0.97131606,1.029531)"
         id="cutting_edge_height"
         y="177.09491"
         x="158.56374"
         style="font-style:normal;font-variant:normal;font-weight:normal;font-stretch:normal;font-size:35.7707px;line-height:1.25;font-family:'URW Bookman L';-inkscape-font-specification:'URW Bookman L, Normal';font-variant-ligatures:normal;font-variant-caps:normal;font-variant-numeric:normal;font-feature-settings:normal;text-align:start;letter-spacing:0px;word-spacing:0px;writing-mode:lr-tb;text-anchor:start;fill:#000000;fill-opacity:1;stroke:none;stroke-width:3.35351"
         xml:space="preserve"><tspan
           style="stroke-width:3.35351"
           y="177.09491"
           x="158.56374"
           id="tspan10475">H</tspan><tspan
           style="stroke-width:3.35351"
           id="tspan895"
           y="221.80833"
           x="158.56374" /></text><path
         id="path4538-8"
         d="m 70.004914,272.49174 v -39.1469"
         style="fill:none;stroke:#000000;stroke-width:0.823854;stroke-linecap:butt;stroke-linejoin:miter;stroke-miterlimit:4;stroke-dasharray:none;stroke-opacity:1" /><path
         id="path897-5"
         d="M 152.10819,100.27512 V 248.60004"
         style="fill:none;stroke:#000000;stroke-width:1.13395;stroke-linecap:butt;stroke-linejoin:miter;stroke-miterlimit:4;stroke-dasharray:none;stroke-opacity:1;marker-start:url(#Arrow2Lstart);marker-end:url(#Arrow2Lend)" /><path
         id="path1187-6"
         d="m 135.5716,97.506816 h 24.62222"
         style="fill:none;stroke:#000000;stroke-width:0.823854;stroke-linecap:butt;stroke-linejoin:miter;stroke-miterlimit:4;stroke-dasharray:none;stroke-opacity:1" /><path
         id="path1189"
         d="m 137.42019,249.94066 h 24.62222"
         style="fill:none;stroke:#000000;stroke-width:0.823854;stroke-linecap:butt;stroke-linejoin:miter;stroke-miterlimit:4;stroke-dasharray:none;stroke-opacity:1" /><text
         transform="scale(0.97131606,1.029531)"
         id="length"
         y="150.36441"
         x="23.226624"
         style="font-style:normal;font-variant:normal;font-weight:normal;font-stretch:normal;font-size:35.7707px;line-height:1.25;font-family:'URW Bookman L';-inkscape-font-specification:'URW Bookman L, Normal';font-variant-ligatures:normal;font-variant-caps:normal;font-variant-numeric:normal;font-feature-settings:normal;text-align:start;letter-spacing:0px;word-spacing:0px;writing-mode:lr-tb;text-anchor:start;fill:#000000;fill-opacity:1;stroke:none;stroke-width:3.35351"
         xml:space="preserve">L</text><path
         id="path543"
         d="M 52.720184,40.517054 V 247.35282"
         style="fill:none;stroke:#000000;stroke-width:0.943818;stroke-linecap:butt;stroke-linejoin:miter;stroke-miterlimit:4;stroke-dasharray:none;stroke-opacity:1;marker-start:url(#Arrow2Lstart);marker-end:url(#Arrow2Lend)" /><path
         id="path545"
         d="m 45.672891,37.574352 h 24.62223"
         style="fill:none;stroke:#000000;stroke-width:0.823854;stroke-linecap:butt;stroke-linejoin:miter;stroke-miterlimit:4;stroke-dasharray:none;stroke-opacity:1" /><path
         id="path547"
         d="m 47.521481,249.94066 h 24.62223"
         style="fill:none;stroke:#000000;stroke-width:0.823854;stroke-linecap:butt;stroke-linejoin:miter;stroke-miterlimit:4;stroke-dasharray:none;stroke-opacity:1" /></g></g></svg>
