<?xml version="1.0" encoding="UTF-8" standalone="no"?>
<!-- Created with Inkscape (http://www.inkscape.org/) -->

<svg
   width="210mm"
   height="297mm"
   viewBox="0 0 210 297"
   version="1.1"
   id="svg5"
   xml:space="preserve"
   inkscape:version="1.2.2 (b0a8486541, 2022-12-01)"
   sodipodi:docname="bullnose.svg"
   xmlns:inkscape="http://www.inkscape.org/namespaces/inkscape"
   xmlns:sodipodi="http://sodipodi.sourceforge.net/DTD/sodipodi-0.dtd"
   xmlns:xlink="http://www.w3.org/1999/xlink"
   xmlns="http://www.w3.org/2000/svg"
   xmlns:svg="http://www.w3.org/2000/svg"><sodipodi:namedview
     id="namedview7"
     pagecolor="#ffffff"
     bordercolor="#666666"
     borderopacity="1.0"
     inkscape:showpageshadow="2"
     inkscape:pageopacity="0.0"
     inkscape:pagecheckerboard="true"
     inkscape:deskcolor="#d1d1d1"
     inkscape:document-units="mm"
     showgrid="false"
     inkscape:zoom="0.5190323"
     inkscape:cx="55.873208"
     inkscape:cy="654.10187"
     inkscape:window-width="1632"
     inkscape:window-height="1013"
     inkscape:window-x="1728"
     inkscape:window-y="1050"
     inkscape:window-maximized="1"
     inkscape:current-layer="layer1" /><defs
     id="defs2"><linearGradient
       inkscape:collect="always"
       id="linearGradient3234"><stop
         style="stop-color:#939393;stop-opacity:1;"
         offset="0"
         id="stop3230" /><stop
         style="stop-color:#a6a6a6;stop-opacity:1;"
         offset="1"
         id="stop3232" /></linearGradient><linearGradient
       inkscape:collect="always"
       id="linearGradient3197"><stop
         style="stop-color:#c2c2c2;stop-opacity:1;"
         offset="0"
         id="stop3193" /><stop
         style="stop-color:#bcbcbc;stop-opacity:1;"
         offset="1"
         id="stop3195" /></linearGradient><linearGradient
       inkscape:collect="always"
       id="linearGradient3164"><stop
         style="stop-color:#7f7f7f;stop-opacity:1;"
         offset="0"
         id="stop3160" /><stop
         style="stop-color:#d1d1d1;stop-opacity:1;"
         offset="1"
         id="stop3162" /></linearGradient><linearGradient
       inkscape:collect="always"
       id="linearGradient2387"><stop
         style="stop-color:#757575;stop-opacity:1;"
         offset="0"
         id="stop2383" /><stop
         style="stop-color:#e2e2e2;stop-opacity:1;"
         offset="1"
         id="stop2385" /></linearGradient><linearGradient
       inkscape:collect="always"
       id="linearGradient1597"><stop
         style="stop-color:#a2a2a2;stop-opacity:1;"
         offset="0"
         id="stop1593" /><stop
         style="stop-color:#f9f9f9;stop-opacity:1;"
         offset="1"
         id="stop1595" /></linearGradient><linearGradient
       inkscape:collect="always"
       xlink:href="#linearGradient1597"
       id="linearGradient1599"
       x1="87.435623"
       y1="79.357056"
       x2="111.22856"
       y2="73.90403"
       gradientUnits="userSpaceOnUse"
       gradientTransform="matrix(2.1038534,0,0,2.1038534,-119.07238,-35.438004)" /><linearGradient
       inkscape:collect="always"
       xlink:href="#linearGradient2387"
       id="linearGradient2389"
       x1="96.292923"
       y1="98.227234"
       x2="115.44387"
       y2="101.37556"
       gradientUnits="userSpaceOnUse"
       gradientTransform="matrix(2.1038534,0,0,2.1038534,-119.07238,-35.438004)" /><linearGradient
       inkscape:collect="always"
       xlink:href="#linearGradient3164"
       id="linearGradient3166"
       x1="105.2982"
       y1="113.63973"
       x2="121.38458"
       y2="107.85011"
       gradientUnits="userSpaceOnUse"
       gradientTransform="matrix(2.1038534,0,0,2.1038534,-119.07238,-35.438004)" /><linearGradient
       inkscape:collect="always"
       xlink:href="#linearGradient3197"
       id="linearGradient3199"
       x1="113.28134"
       y1="102.62177"
       x2="105.23079"
       y2="108.07093"
       gradientUnits="userSpaceOnUse"
       gradientTransform="matrix(2.1038534,0,0,2.1038534,-119.07238,-35.438004)" /><linearGradient
       inkscape:collect="always"
       xlink:href="#linearGradient3234"
       id="linearGradient3236"
       x1="117.31676"
       y1="115.81714"
       x2="120.31398"
       y2="115.81714"
       gradientUnits="userSpaceOnUse"
       gradientTransform="matrix(2.1038534,0,0,2.1038534,-119.07238,-35.438004)" /><marker
       style="overflow:visible"
       id="marker1181-3"
       refX="0"
       refY="0"
       orient="auto"
       viewBox="0 0 12.705841 9.5264135"
       markerWidth="12.705841"
       markerHeight="9.5264139"
       preserveAspectRatio="xMidYMid"><path
         transform="matrix(1.1,0,0,1.1,1.1,0)"
         d="M 8.7185878,4.0337352 -2.2072895,0.01601326 8.7185884,-4.0017078 c -1.7454984,2.3720609 -1.7354408,5.6174519 -6e-7,8.035443 z"
         style="fill:#000000;fill-opacity:1;fill-rule:evenodd;stroke:#000000;stroke-width:0.625;stroke-linejoin:round;stroke-opacity:1"
         id="path1179-6" /></marker><marker
       style="overflow:visible"
       id="marker1185-7"
       refX="0"
       refY="0"
       orient="auto"
       viewBox="0 0 12.705841 9.5264135"
       markerWidth="12.705841"
       markerHeight="9.5264139"
       preserveAspectRatio="xMidYMid"><path
         transform="matrix(-1.1,0,0,-1.1,-1.1,0)"
         d="M 8.7185878,4.0337352 -2.2072895,0.01601326 8.7185884,-4.0017078 c -1.7454984,2.3720609 -1.7354408,5.6174519 -6e-7,8.035443 z"
         style="fill:#000000;fill-opacity:1;fill-rule:evenodd;stroke:#000000;stroke-width:0.625;stroke-linejoin:round;stroke-opacity:1"
         id="path1183-5" /></marker><marker
       style="overflow:visible"
       id="marker1181-3-6"
       refX="0"
       refY="0"
       orient="auto"><path
         transform="matrix(1.1,0,0,1.1,1.1,0)"
         d="M 8.7185878,4.0337352 -2.2072895,0.01601326 8.7185884,-4.0017078 c -1.7454984,2.3720609 -1.7354408,5.6174519 -6e-7,8.035443 z"
         style="fill:#000000;fill-opacity:1;fill-rule:evenodd;stroke:#000000;stroke-width:0.625;stroke-linejoin:round;stroke-opacity:1"
         id="path1179-6-7" /></marker><marker
       style="overflow:visible"
       id="marker1185-7-5"
       refX="0"
       refY="0"
       orient="auto"><path
         transform="matrix(-1.1,0,0,-1.1,-1.1,0)"
         d="M 8.7185878,4.0337352 -2.2072895,0.01601326 8.7185884,-4.0017078 c -1.7454984,2.3720609 -1.7354408,5.6174519 -6e-7,8.035443 z"
         style="fill:#000000;fill-opacity:1;fill-rule:evenodd;stroke:#000000;stroke-width:0.625;stroke-linejoin:round;stroke-opacity:1"
         id="path1183-5-3" /></marker><marker
       style="overflow:visible"
       id="Arrow2Lstart-3"
       refX="0"
       refY="0"
       orient="auto"><path
         transform="matrix(1.1,0,0,1.1,1.1,0)"
         d="M 8.7185878,4.0337352 -2.2072895,0.01601326 8.7185884,-4.0017078 c -1.7454984,2.3720609 -1.7354408,5.6174519 -6e-7,8.035443 z"
         style="fill:#000000;fill-opacity:1;fill-rule:evenodd;stroke:#000000;stroke-width:0.625;stroke-linejoin:round;stroke-opacity:1"
         id="path917-5" /></marker><marker
       style="overflow:visible"
       id="Arrow2Lend-6"
       refX="0"
       refY="0"
       orient="auto"><path
         transform="matrix(-1.1,0,0,-1.1,-1.1,0)"
         d="M 8.7185878,4.0337352 -2.2072895,0.01601326 8.7185884,-4.0017078 c -1.7454984,2.3720609 -1.7354408,5.6174519 -6e-7,8.035443 z"
         style="fill:#000000;fill-opacity:1;fill-rule:evenodd;stroke:#000000;stroke-width:0.625;stroke-linejoin:round;stroke-opacity:1"
         id="path920-2" /></marker><marker
       style="overflow:visible"
       id="marker1181"
       refX="0"
       refY="0"
       orient="auto"><path
         transform="matrix(1.1,0,0,1.1,1.1,0)"
         d="M 8.7185878,4.0337352 -2.2072895,0.01601326 8.7185884,-4.0017078 c -1.7454984,2.3720609 -1.7354408,5.6174519 -6e-7,8.035443 z"
         style="fill:#000000;fill-opacity:1;fill-rule:evenodd;stroke:#000000;stroke-width:0.625;stroke-linejoin:round;stroke-opacity:1"
         id="path1179" /></marker><marker
       style="overflow:visible"
       id="marker1185"
       refX="0"
       refY="0"
       orient="auto"><path
         transform="matrix(-1.1,0,0,-1.1,-1.1,0)"
         d="M 8.7185878,4.0337352 -2.2072895,0.01601326 8.7185884,-4.0017078 c -1.7454984,2.3720609 -1.7354408,5.6174519 -6e-7,8.035443 z"
         style="fill:#000000;fill-opacity:1;fill-rule:evenodd;stroke:#000000;stroke-width:0.625;stroke-linejoin:round;stroke-opacity:1"
         id="path1183" /></marker><marker
       style="overflow:visible"
       id="marker1173"
       refX="0"
       refY="0"
       orient="auto"><path
         transform="matrix(1.1,0,0,1.1,1.1,0)"
         d="M 8.7185878,4.0337352 -2.2072895,0.01601326 8.7185884,-4.0017078 c -1.7454984,2.3720609 -1.7354408,5.6174519 -6e-7,8.035443 z"
         style="fill:#000000;fill-opacity:1;fill-rule:evenodd;stroke:#000000;stroke-width:0.625;stroke-linejoin:round;stroke-opacity:1"
         id="path1171" /></marker><marker
       style="overflow:visible"
       id="marker1177"
       refX="0"
       refY="0"
       orient="auto"><path
         transform="matrix(-1.1,0,0,-1.1,-1.1,0)"
         d="M 8.7185878,4.0337352 -2.2072895,0.01601326 8.7185884,-4.0017078 c -1.7454984,2.3720609 -1.7354408,5.6174519 -6e-7,8.035443 z"
         style="fill:#000000;fill-opacity:1;fill-rule:evenodd;stroke:#000000;stroke-width:0.625;stroke-linejoin:round;stroke-opacity:1"
         id="path1175" /></marker><marker
       style="overflow:visible"
       id="Arrow2Lstart"
       refX="0"
       refY="0"
       orient="auto"><path
         transform="matrix(1.1,0,0,1.1,1.1,0)"
         d="M 8.7185878,4.0337352 -2.2072895,0.01601326 8.7185884,-4.0017078 c -1.7454984,2.3720609 -1.7354408,5.6174519 -6e-7,8.035443 z"
         style="fill:#000000;fill-opacity:1;fill-rule:evenodd;stroke:#000000;stroke-width:0.625;stroke-linejoin:round;stroke-opacity:1"
         id="path917" /></marker><marker
       style="overflow:visible"
       id="Arrow2Lend"
       refX="0"
       refY="0"
       orient="auto"><path
         transform="matrix(-1.1,0,0,-1.1,-1.1,0)"
         d="M 8.7185878,4.0337352 -2.2072895,0.01601326 8.7185884,-4.0017078 c -1.7454984,2.3720609 -1.7354408,5.6174519 -6e-7,8.035443 z"
         style="fill:#000000;fill-opacity:1;fill-rule:evenodd;stroke:#000000;stroke-width:0.625;stroke-linejoin:round;stroke-opacity:1"
         id="path920" /></marker><marker
       style="overflow:visible"
       id="Arrow2Lstart-5"
       refX="0"
       refY="0"
       orient="auto"><path
         transform="matrix(1.1,0,0,1.1,1.1,0)"
         d="M 8.7185878,4.0337352 -2.2072895,0.01601326 8.7185884,-4.0017078 c -1.7454984,2.3720609 -1.7354408,5.6174519 -6e-7,8.035443 z"
         style="fill:#000000;fill-opacity:1;fill-rule:evenodd;stroke:#000000;stroke-width:0.625;stroke-linejoin:round;stroke-opacity:1"
         id="path917-3" /></marker><marker
       style="overflow:visible"
       id="Arrow2Lend-5"
       refX="0"
       refY="0"
       orient="auto"><path
         transform="matrix(-1.1,0,0,-1.1,-1.1,0)"
         d="M 8.7185878,4.0337352 -2.2072895,0.01601326 8.7185884,-4.0017078 c -1.7454984,2.3720609 -1.7354408,5.6174519 -6e-7,8.035443 z"
         style="fill:#000000;fill-opacity:1;fill-rule:evenodd;stroke:#000000;stroke-width:0.625;stroke-linejoin:round;stroke-opacity:1"
         id="path920-6" /></marker><linearGradient
       inkscape:collect="always"
       xlink:href="#linearGradient12"
       id="linearGradient13"
       x1="69.704971"
       y1="103.07113"
       x2="134.92827"
       y2="103.07113"
       gradientUnits="userSpaceOnUse"
       gradientTransform="matrix(0.99704654,0,0,1.0823424,-0.27976643,-12.033523)" /><linearGradient
       id="linearGradient12"
       inkscape:collect="always"><stop
         style="stop-color:#ababab;stop-opacity:1;"
         offset="0"
         id="stop12" /><stop
         style="stop-color:#c8c8c8;stop-opacity:1;"
         offset="0.4613452"
         id="stop14" /><stop
         style="stop-color:#878787;stop-opacity:1;"
         offset="1"
         id="stop13" /></linearGradient></defs><g
     inkscape:label="Layer 1"
     inkscape:groupmode="layer"
     id="layer1"><rect
       style="fill:url(#linearGradient13);stroke:#000000;stroke-width:0.505334;stroke-dasharray:none;stroke-opacity:1"
       id="rect11"
       width="64.698654"
       height="132.71904"
       x="69.551346"
       y="28.479811"
       ry="0" /><path
       style="fill:url(#linearGradient1599);fill-opacity:1;stroke:#000000;stroke-width:0.556644px;stroke-linecap:butt;stroke-linejoin:miter;stroke-opacity:1"
       d="m 72.352852,194.41154 c 0,0 -2.737277,-25.81442 -2.590018,-34.5932 0.133574,-7.96287 2.795485,-15.72932 5.225511,-23.31352 1.910474,-5.96265 4.124268,-11.91252 7.308614,-17.30354 4.51207,-7.63883 7.604191,-20.719807 16.474161,-20.904453 9.53233,-0.198436 18.62394,21.709223 18.62394,21.709223"
       id="path718"
       sodipodi:nodetypes="cssssc" /><path
       style="fill:#efecec;fill-opacity:1;stroke:#000000;stroke-width:0.556644px;stroke-linecap:butt;stroke-linejoin:miter;stroke-opacity:1"
       d="m 69.946959,220.84881 c 0,0 -0.788368,-6.00347 -0.29014,-10.67291 1.114375,-10.44403 1.370561,-18.60217 15.860557,-44.69626 14.489994,-26.09411 31.662984,-45.7102 31.662984,-45.7102 l 9.37522,-2.04919"
       id="path716"
       sodipodi:nodetypes="cszcc" /><path
       style="fill:url(#linearGradient2389);fill-opacity:1;stroke:#000000;stroke-width:0.556644px;stroke-linecap:butt;stroke-linejoin:miter;stroke-opacity:1"
       d="m 87.123765,186.57489 c -5.377881,10.48409 -17.787064,33.49585 -17.787064,33.49585 0,0 -0.292486,17.27337 1.72043,21.4831 4.878422,10.20255 14.597532,9.44769 28.78058,9.37143 14.183039,-0.0762 30.154199,0.82868 34.229169,-9.37143 1.51825,-3.80034 -4.79201,-48.771 -4.79201,-48.771 l 4.87505,-31.89101 0.17733,-61.370969 c 0,0 -7.08613,18.567549 -17.34667,35.396439 -8.66743,14.21599 -22.257589,36.84304 -29.856815,51.65759 z"
       id="path726"
       sodipodi:nodetypes="scszscccss" /><path
       style="fill:url(#linearGradient3199);fill-opacity:1;stroke:#000000;stroke-width:0.556644px;stroke-linecap:butt;stroke-linejoin:miter;stroke-opacity:1"
       d="m 134.1396,139.95736 c 0,0 -19.41394,36.21877 -21.05826,39.50949 -1.64432,3.29073 -24.428986,42.92437 -25.227507,46.3102 -3.857842,16.35774 1.472347,24.86117 1.472347,24.86117 l 2.955163,0.0585"
       id="path728-3"
       sodipodi:nodetypes="czscc" /><path
       style="fill:url(#linearGradient3236);fill-opacity:1;stroke:#000000;stroke-width:0.556644px;stroke-linecap:butt;stroke-linejoin:miter;stroke-opacity:1"
       d="m 129.25587,192.49981 c 0,0 -1.42879,25.0486 -1.20984,25.63734 0.25633,0.68923 4.69778,5.30253 4.69778,5.30253 0,0 1.40127,-9.60518 0.93034,-14.3881 -0.55954,-5.68297 -4.41828,-16.55177 -4.41828,-16.55177 z"
       id="path732"
       sodipodi:nodetypes="cscsc" /><path
       style="fill:url(#linearGradient3166);fill-opacity:1;stroke:#000000;stroke-width:0.556644px;stroke-linecap:butt;stroke-linejoin:miter;stroke-opacity:1"
       d="m 92.131191,250.63822 c 0,0 0.89906,-14.42135 1.845437,-18.22562 1.776157,-7.13974 3.405802,-14.15738 6.852002,-20.65772 5.97616,-11.27244 16.42821,-27.04644 22.24332,-38.56501 4.97027,-9.84514 11.0312,-26.11227 11.0312,-26.11227 l -0.19376,14.23558 -3.64661,24.01724 c 0,0 -11.36784,21.31929 -16.12619,32.43143 -4.37006,10.20537 -11.61173,32.93477 -11.61173,32.93477 z"
       id="path728"
       sodipodi:nodetypes="cssccccscc" /><circle
       id="path948"
       style="fill:#e33636;stroke:#000000;stroke-width:0.556644"
       cx="127.8387"
       cy="218.58835"
       r="0.00054124615" /><circle
       id="path950"
       style="fill:#e33636;stroke:#000000;stroke-width:0.556644"
       cx="133.00632"
       cy="222.48917"
       r="0.00054124615" /><path
       id="path4538-5"
       d="m 134.2508,269.93139 v -39.1469"
       style="fill:none;stroke:#000000;stroke-width:0.823854;stroke-linecap:butt;stroke-linejoin:miter;stroke-miterlimit:4;stroke-dasharray:none;stroke-opacity:1" /><g
       id="path4542-3"><path
         style="color:#000000;fill:#000000;-inkscape-stroke:none"
         d="m 73.707031,40.941406 v 0.722656 h 56.650389 v -0.722656 z"
         id="path30807" /><g
         id="g30789"><g
           id="path30799"><path
             style="color:#000000;fill:#000000;fill-rule:evenodd;stroke-width:0.496027;stroke-linejoin:round;-inkscape-stroke:none"
             d="m 122.64491,38.101014 8.67125,3.188638 -8.67125,3.188638 c 1.3853,-1.88257 1.37732,-4.458254 0,-6.377276 z"
             id="path30803" /><path
             style="color:#000000;fill:#000000;fill-rule:evenodd;stroke-linejoin:round;-inkscape-stroke:none"
             d="m 122.73047,37.869141 a 0.2480383,0.2480383 0 0 0 -0.28711,0.376953 c 1.31629,1.833984 1.32298,4.290713 0.002,6.085937 a 0.2480383,0.2480383 0 0 0 0.28516,0.378906 l 8.67187,-3.189453 a 0.2480383,0.2480383 0 0 0 0,-0.464843 z m 0.41406,0.679687 7.45313,2.740234 -7.44922,2.740235 c 0.9585,-1.704825 0.9533,-3.754472 -0.004,-5.480469 z"
             id="path30805" /></g><g
           id="path30791"><path
             style="color:#000000;fill:#000000;fill-rule:evenodd;stroke-width:0.496027;stroke-linejoin:round;-inkscape-stroke:none"
             d="m 81.419195,44.503708 -8.67125,-3.188638 8.671251,-3.188638 c -1.385304,1.88257 -1.377321,4.458254 -10e-7,6.377276 z"
             id="path30795" /><path
             style="color:#000000;fill:#000000;fill-rule:evenodd;stroke-linejoin:round;-inkscape-stroke:none"
             d="m 81.333984,37.894531 -8.671875,3.1875 a 0.2480383,0.2480383 0 0 0 0,0.464844 l 8.671875,3.189453 a 0.2480383,0.2480383 0 0 0 0.28711,-0.376953 c -1.316287,-1.833985 -1.322983,-4.290714 -0.002,-6.085938 a 0.2480383,0.2480383 0 0 0 -0.285157,-0.378906 z m -0.419922,0.681641 c -0.957671,1.704846 -0.951587,3.754886 0.0059,5.480469 l -7.453125,-2.742188 z"
             id="path30797" /></g></g></g><g
       id="path4548"><path
         style="color:#000000;fill:#000000;-inkscape-stroke:none"
         d="m 71.794922,257.42383 v 0.52734 h 60.650388 v -0.52734 z"
         id="path30867" /><g
         id="g30849"><g
           id="path30859"><path
             style="color:#000000;fill:#000000;fill-rule:evenodd;stroke-width:0.362911;stroke-linejoin:round;-inkscape-stroke:none"
             d="m 126.80266,255.34467 6.34419,2.33292 -6.34419,2.33292 c 1.01354,-1.37735 1.0077,-3.26181 0,-4.66584 z"
             id="path30863" /><path
             style="color:#000000;fill:#000000;fill-rule:evenodd;stroke-linejoin:round;-inkscape-stroke:none"
             d="m 126.86523,255.17383 a 0.18147364,0.18147364 0 0 0 -0.21093,0.27734 c 0.96304,1.34182 0.96846,3.13773 0.002,4.45117 a 0.18147364,0.18147364 0 0 0 0.20898,0.2793 l 6.34375,-2.33398 a 0.18147364,0.18147364 0 0 0 0,-0.33985 z m 0.21485,0.46679 5.54101,2.03711 -5.54101,2.03711 c 0.73819,-1.27092 0.73518,-2.78629 0,-4.07422 z"
             id="path30865" /></g><g
           id="path30851"><path
             style="color:#000000;fill:#000000;fill-rule:evenodd;stroke-width:0.362911;stroke-linejoin:round;-inkscape-stroke:none"
             d="m 77.438901,260.02911 -6.344187,-2.33292 6.344187,-2.33292 c -1.013535,1.37735 -1.007695,3.26181 0,4.66584 z"
             id="path30855" /><path
             style="color:#000000;fill:#000000;fill-rule:evenodd;stroke-linejoin:round;-inkscape-stroke:none"
             d="m 77.376953,255.19336 -6.345703,2.33203 a 0.18147364,0.18147364 0 0 0 0,0.3418 l 6.345703,2.33203 a 0.18147364,0.18147364 0 0 0 0.208984,-0.27539 c -0.963041,-1.34182 -0.966509,-3.13968 0,-4.45313 a 0.18147364,0.18147364 0 0 0 -0.208984,-0.27734 z m -0.214844,0.46484 c -0.738592,1.27163 -0.736382,2.78787 0,4.07617 l -5.539062,-2.03906 z"
             id="path30857" /></g></g></g><text
       transform="scale(0.97131606,1.029531)"
       id="shank_diameter"
       y="51.767441"
       x="143.3033"
       style="font-style:normal;font-variant:normal;font-weight:normal;font-stretch:normal;font-size:35.7707px;line-height:1.25;font-family:'URW Bookman L';-inkscape-font-specification:'URW Bookman L, Normal';font-variant-ligatures:normal;font-variant-caps:normal;font-variant-numeric:normal;font-feature-settings:normal;text-align:start;letter-spacing:0px;word-spacing:0px;writing-mode:lr-tb;text-anchor:start;fill:#000000;fill-opacity:1;stroke:none;stroke-width:3.35351"
       xml:space="preserve"><tspan
         style="font-style:normal;font-variant:normal;font-weight:normal;font-stretch:normal;font-size:35.7707px;font-family:'URW Bookman L';-inkscape-font-specification:'URW Bookman L, Normal';font-variant-ligatures:normal;font-variant-caps:normal;font-variant-numeric:normal;font-feature-settings:normal;text-align:start;writing-mode:lr-tb;text-anchor:start;stroke-width:3.35351"
         y="51.767441"
         x="143.3033"
         id="tspan5678">S</tspan></text><text
       transform="scale(0.97131606,1.029531)"
       id="diameter"
       y="279.82401"
       x="90.773392"
       style="font-style:normal;font-variant:normal;font-weight:normal;font-stretch:normal;font-size:35.7707px;line-height:1.25;font-family:'URW Bookman L';-inkscape-font-specification:'URW Bookman L, Normal';font-variant-ligatures:normal;font-variant-caps:normal;font-variant-numeric:normal;font-feature-settings:normal;text-align:start;letter-spacing:0px;word-spacing:0px;writing-mode:lr-tb;text-anchor:start;fill:#000000;fill-opacity:1;stroke:none;stroke-width:3.35351"
       xml:space="preserve"><tspan
         style="font-style:normal;font-variant:normal;font-weight:normal;font-stretch:normal;font-size:35.7707px;font-family:'URW Bookman L';-inkscape-font-specification:'URW Bookman L, Normal';font-variant-ligatures:normal;font-variant-caps:normal;font-variant-numeric:normal;font-feature-settings:normal;text-align:start;writing-mode:lr-tb;text-anchor:start;stroke-width:3.35351"
         y="279.82401"
         x="90.773392"
         id="tspan5690">D</tspan></text><text
       transform="scale(0.97131606,1.029531)"
       id="cutting_edge_height"
       y="177.09491"
       x="161.83253"
       style="font-style:normal;font-variant:normal;font-weight:normal;font-stretch:normal;font-size:35.7707px;line-height:1.25;font-family:'URW Bookman L';-inkscape-font-specification:'URW Bookman L, Normal';font-variant-ligatures:normal;font-variant-caps:normal;font-variant-numeric:normal;font-feature-settings:normal;text-align:start;letter-spacing:0px;word-spacing:0px;writing-mode:lr-tb;text-anchor:start;fill:#000000;fill-opacity:1;stroke:none;stroke-width:3.35351"
       xml:space="preserve"><tspan
         style="stroke-width:3.35351"
         y="177.09491"
         x="161.83253"
         id="tspan10475">H</tspan><tspan
         style="stroke-width:3.35351"
         id="tspan895"
         y="221.80833"
         x="161.83253" /></text><path
       id="path4538-8"
       d="m 69.475747,272.49174 v -39.1469"
       style="fill:none;stroke:#000000;stroke-width:0.823854;stroke-linecap:butt;stroke-linejoin:miter;stroke-miterlimit:4;stroke-dasharray:none;stroke-opacity:1" /><g
       id="path897-5"><path
         style="color:#000000;fill:#000000;-inkscape-stroke:none"
         d="m 150.2207,100.27539 v 148.32422 h 1.13477 V 100.27539 Z"
         id="path30837" /><g
         id="g30819"><g
           id="path30829"><path
             style="color:#000000;fill:#000000;fill-rule:evenodd;stroke-width:0.779591;stroke-linejoin:round;-inkscape-stroke:none"
             d="m 155.81971,236.47761 -5.01149,13.62834 -5.01148,-13.62834 c 2.95878,2.17724 7.0069,2.16469 10.02297,0 z"
             id="path30833" /><path
             style="color:#000000;fill:#000000;fill-rule:evenodd;stroke-linejoin:round;-inkscape-stroke:none"
             d="m 155.90625,236.09766 a 0.38983449,0.38983449 0 0 0 -0.31445,0.0625 c -2.88242,2.06876 -6.74296,2.08012 -9.56446,0.004 a 0.38983449,0.38983449 0 0 0 -0.5957,0.44727 l 5.00977,13.6289 a 0.38983449,0.38983449 0 0 0 0.73242,0 l 5.01172,-13.6289 a 0.38983449,0.38983449 0 0 0 -0.2793,-0.51367 z m -0.79102,1.16601 -4.30664,11.71094 -4.30664,-11.70508 c 2.67931,1.50641 5.90064,1.49835 8.61328,-0.006 z"
             id="path30835" /></g><g
           id="path30821"><path
             style="color:#000000;fill:#000000;fill-rule:evenodd;stroke-width:0.779591;stroke-linejoin:round;-inkscape-stroke:none"
             d="m 145.75679,112.39755 5.01149,-13.628337 5.01148,13.628337 c -2.95878,-2.17724 -7.0069,-2.16469 -10.02297,0 z"
             id="path30825" /><path
             style="color:#000000;fill:#000000;fill-rule:evenodd;stroke-linejoin:round;-inkscape-stroke:none"
             d="m 150.76758,98.378906 a 0.38983449,0.38983449 0 0 0 -0.36524,0.25586 l -5.01172,13.628904 a 0.38983449,0.38983449 0 0 0 0.59375,0.45117 c 2.88242,-2.06876 6.74296,-2.08012 9.56446,-0.004 a 0.38983449,0.38983449 0 0 0 0.59765,-0.44727 l -5.01171,-13.628904 a 0.38983449,0.38983449 0 0 0 -0.36719,-0.25586 z m 0.002,1.521485 4.30274,11.703129 c -2.67873,-1.50457 -5.89979,-1.49579 -8.61133,0.008 z"
             id="path30827" /></g></g></g><path
       id="path1187-6"
       d="m 135.31,97.506816 h 24.62222"
       style="fill:none;stroke:#000000;stroke-width:0.823854;stroke-linecap:butt;stroke-linejoin:miter;stroke-miterlimit:4;stroke-dasharray:none;stroke-opacity:1" /><path
       id="path1189"
       d="m 136.10025,249.94066 h 24.62222"
       style="fill:none;stroke:#000000;stroke-width:0.823854;stroke-linecap:butt;stroke-linejoin:miter;stroke-miterlimit:4;stroke-dasharray:none;stroke-opacity:1" /><g
       id="path4622"><path
         style="color:#000000;fill:#000000;-inkscape-stroke:none"
         d="m 86.21875,232.5332 -12.193359,12.50977 0.386718,0.37695 12.19336,-12.50976 z"
         id="path30747" /><g
         id="g30737"><g
           id="path30739"><path
             style="color:#000000;fill:#000000;fill-rule:evenodd;stroke-width:0.371801;stroke-linejoin:round;-inkscape-stroke:none"
             d="m 79.972743,242.76607 -6.248201,2.9862 2.825095,-6.32268 c 0.285734,1.72851 1.672449,3.07178 3.423106,3.33648 z"
             id="path30743" /><path
             style="color:#000000;fill:#000000;fill-rule:evenodd;stroke-linejoin:round;-inkscape-stroke:none"
             d="m 76.574219,239.24609 a 0.18591908,0.18591908 0 0 0 -0.19336,0.10743 l -2.826172,6.32226 a 0.18591908,0.18591908 0 0 0 0.25,0.24414 l 6.248047,-2.98633 A 0.18591908,0.18591908 0 0 0 80,242.58203 c -1.67308,-0.25297 -2.995101,-1.53528 -3.267578,-3.18359 a 0.18591908,0.18591908 0 0 0 -0.158203,-0.15235 z m -0.0059,0.59766 c 0.404884,1.45072 1.518948,2.53298 2.990235,2.91406 l -5.457032,2.60742 z"
             id="path30745" /></g></g></g><text
       transform="scale(0.97131606,1.029531)"
       id="corner_radius"
       y="279.48972"
       x="34.310169"
       style="font-style:normal;font-variant:normal;font-weight:normal;font-stretch:normal;font-size:35.7707px;line-height:1.25;font-family:'URW Bookman L';-inkscape-font-specification:'URW Bookman L, Normal';font-variant-ligatures:normal;font-variant-caps:normal;font-variant-numeric:normal;font-feature-settings:normal;text-align:start;letter-spacing:0px;word-spacing:0px;writing-mode:lr-tb;text-anchor:start;fill:#000000;fill-opacity:1;stroke:none;stroke-width:3.35351"
       xml:space="preserve"><tspan
         style="font-style:normal;font-variant:normal;font-weight:normal;font-stretch:normal;font-size:35.7707px;font-family:'URW Bookman L';-inkscape-font-specification:'URW Bookman L, Normal';font-variant-ligatures:normal;font-variant-caps:normal;font-variant-numeric:normal;font-feature-settings:normal;text-align:start;writing-mode:lr-tb;text-anchor:start;stroke-width:3.35351"
         y="279.48972"
         x="34.310169"
         id="tspan4624">R</tspan></text><path
       id="path4732"
       d="M 86.412536,232.7212 59.863539,259.96635"
       style="fill:none;stroke:#000000;stroke-width:0.540802;stroke-linecap:butt;stroke-linejoin:miter;stroke-miterlimit:4;stroke-dasharray:none;stroke-opacity:1"
       sodipodi:nodetypes="cc" /><text
       transform="scale(0.97131606,1.029531)"
       id="length"
       y="141.97641"
       x="22.918703"
       style="font-style:normal;font-variant:normal;font-weight:normal;font-stretch:normal;font-size:35.7707px;line-height:1.25;font-family:'URW Bookman L';-inkscape-font-specification:'URW Bookman L, Normal';font-variant-ligatures:normal;font-variant-caps:normal;font-variant-numeric:normal;font-feature-settings:normal;text-align:start;letter-spacing:0px;word-spacing:0px;writing-mode:lr-tb;text-anchor:start;fill:#000000;fill-opacity:1;stroke:none;stroke-width:3.35351"
       xml:space="preserve">L</text><g
       id="path448"><path
         style="color:#000000;fill:#000000;-inkscape-stroke:none"
         d="M 50.8125,32.421875 V 247.05078 h 1 V 32.421875 Z"
         id="path30777" /><g
         id="g30759"><g
           id="path30769"><path
             style="color:#000000;fill:#000000;fill-rule:evenodd;stroke-width:0.6875;stroke-linejoin:round;-inkscape-stroke:none"
             d="m 55.75024,236.36075 -4.419494,12.01847 -4.419494,-12.01847 c 2.609267,1.92005 6.179198,1.90899 8.838988,0 z"
             id="path30773" /><path
             style="color:#000000;fill:#000000;fill-rule:evenodd;stroke-linejoin:round;-inkscape-stroke:none"
             d="m 55.828125,236.02539 a 0.34378438,0.34378438 0 0 0 -0.279297,0.0566 c -2.541927,1.8244 -5.945389,1.83292 -8.433594,0.002 a 0.34378438,0.34378438 0 0 0 -0.527343,0.39454 l 4.419921,12.01953 a 0.34378438,0.34378438 0 0 0 0.646485,0 l 4.417969,-12.01953 a 0.34378438,0.34378438 0 0 0 -0.244141,-0.45313 z m -0.699219,1.0293 -3.796875,10.32617 -3.796875,-10.32031 c 2.362037,1.32667 5.202672,1.3197 7.59375,-0.006 z"
             id="path30775" /></g><g
           id="path30761"><path
             style="color:#000000;fill:#000000;fill-rule:evenodd;stroke-width:0.6875;stroke-linejoin:round;-inkscape-stroke:none"
             d="m 46.876022,43.112944 4.419494,-12.018465 4.419494,12.018465 c -2.609267,-1.920048 -6.179198,-1.908985 -8.838988,0 z"
             id="path30765" /><path
             style="color:#000000;fill:#000000;fill-rule:evenodd;stroke-linejoin:round;-inkscape-stroke:none"
             d="m 51.294922,30.75 a 0.34378438,0.34378438 0 0 0 -0.322266,0.226562 l -4.419922,12.017579 a 0.34378438,0.34378438 0 0 0 0.523438,0.398437 c 2.541927,-1.824392 5.947343,-1.832916 8.435547,-0.002 a 0.34378438,0.34378438 0 0 0 0.52539,-0.396484 L 51.617187,30.976562 A 0.34378438,0.34378438 0 0 0 51.294922,30.75 Z m 0,1.339844 3.796875,10.322265 c -2.362311,-1.327535 -5.202157,-1.318037 -7.59375,0.0078 z"
             id="path30767" /></g></g></g><path
       id="path450"
       d="m 45.359871,28.54287 h 24.62222"
       style="fill:none;stroke:#000000;stroke-width:0.823854;stroke-linecap:butt;stroke-linejoin:miter;stroke-miterlimit:4;stroke-dasharray:none;stroke-opacity:1" /><path
       id="path452"
       d="M 47.208461,250.82671 H 66.483557"
       style="fill:none;stroke:#000000;stroke-width:0.728929;stroke-linecap:butt;stroke-linejoin:miter;stroke-miterlimit:4;stroke-dasharray:none;stroke-opacity:1" /></g></svg>
