<?xml version="1.0" encoding="UTF-8" standalone="no"?>
<svg
   id="svg8"
   version="1.1"
   viewBox="0 0 210 297"
   height="297mm"
   width="210mm"
   xml:space="preserve"
   xmlns:xlink="http://www.w3.org/1999/xlink"
   xmlns="http://www.w3.org/2000/svg"
   xmlns:svg="http://www.w3.org/2000/svg"
   xmlns:rdf="http://www.w3.org/1999/02/22-rdf-syntax-ns#"
   xmlns:cc="http://creativecommons.org/ns#"
   xmlns:dc="http://purl.org/dc/elements/1.1/"><defs
     id="defs2"><linearGradient
       id="linearGradient24"><stop
         style="stop-color:#747474;stop-opacity:1;"
         offset="0"
         id="stop22" /><stop
         style="stop-color:#d0d0d0;stop-opacity:1;"
         offset="0.5"
         id="stop23" /><stop
         style="stop-color:#888888;stop-opacity:1;"
         offset="1"
         id="stop24" /></linearGradient><linearGradient
       id="linearGradient17"><stop
         style="stop-color:#353535;stop-opacity:1;"
         offset="0"
         id="stop14" /><stop
         style="stop-color:#8c8c8c;stop-opacity:1;"
         offset="0.19591366"
         id="stop15" /><stop
         style="stop-color:#787878;stop-opacity:1;"
         offset="0.59795684"
         id="stop16" /><stop
         style="stop-color:#c2c2c2;stop-opacity:1;"
         offset="1"
         id="stop17" /></linearGradient><marker
       orient="auto"
       refY="0"
       refX="0"
       id="marker8709"
       style="overflow:visible"><path
         id="path8707"
         d="M 0,0 5,-5 -12.5,0 5,5 Z"
         style="fill:#000000;fill-opacity:1;fill-rule:evenodd;stroke:#000000;stroke-width:1pt;stroke-opacity:1"
         transform="matrix(-0.8,0,0,-0.8,-10,0)" /></marker><marker
       orient="auto"
       refY="0.0"
       refX="0.0"
       id="marker8663"
       style="overflow:visible;"><path
         id="path8661"
         d="M 0.0,0.0 L 5.0,-5.0 L -12.5,0.0 L 5.0,5.0 L 0.0,0.0 z "
         style="fill-rule:evenodd;stroke:#000000;stroke-width:1pt;stroke-opacity:1;fill:#000000;fill-opacity:1"
         transform="scale(0.8) rotate(180) translate(12.5,0)" /></marker><marker
       orient="auto"
       refY="0"
       refX="0"
       id="marker8617"
       style="overflow:visible"><path
         id="path8615"
         d="M 0,0 5,-5 -12.5,0 5,5 Z"
         style="fill:#000000;fill-opacity:1;fill-rule:evenodd;stroke:#000000;stroke-width:1pt;stroke-opacity:1"
         transform="matrix(0.8,0,0,0.8,10,0)" /></marker><marker
       orient="auto"
       refY="0"
       refX="0"
       id="marker8589"
       style="overflow:visible"><path
         id="path8587"
         d="M 0,0 5,-5 -12.5,0 5,5 Z"
         style="fill:#000000;fill-opacity:1;fill-rule:evenodd;stroke:#000000;stroke-width:1pt;stroke-opacity:1"
         transform="matrix(0.8,0,0,0.8,10,0)" /></marker><marker
       style="overflow:visible"
       id="Arrow1Lend"
       refX="0"
       refY="0"
       orient="auto"><path
         transform="matrix(-0.8,0,0,-0.8,-10,0)"
         style="fill:#000000;fill-opacity:1;fill-rule:evenodd;stroke:#000000;stroke-width:1pt;stroke-opacity:1"
         d="M 0,0 5,-5 -12.5,0 5,5 Z"
         id="path841" /></marker><marker
       style="overflow:visible"
       id="Arrow1Lstart"
       refX="0"
       refY="0"
       orient="auto"><path
         transform="matrix(0.8,0,0,0.8,10,0)"
         style="fill:#000000;fill-opacity:1;fill-rule:evenodd;stroke:#000000;stroke-width:1pt;stroke-opacity:1"
         d="M 0,0 5,-5 -12.5,0 5,5 Z"
         id="path838" /></marker><marker
       orient="auto"
       refY="0"
       refX="0"
       id="marker8589-7"
       style="overflow:visible"><path
         id="path8587-0"
         d="M 0,0 5,-5 -12.5,0 5,5 Z"
         style="fill:#000000;fill-opacity:1;fill-rule:evenodd;stroke:#000000;stroke-width:1.00000003pt;stroke-opacity:1"
         transform="matrix(0.8,0,0,0.8,10,0)" /></marker><marker
       orient="auto"
       refY="0"
       refX="0"
       id="marker8663-8"
       style="overflow:visible"><path
         id="path8661-1"
         d="M 0,0 5,-5 -12.5,0 5,5 Z"
         style="fill:#000000;fill-opacity:1;fill-rule:evenodd;stroke:#000000;stroke-width:1pt;stroke-opacity:1"
         transform="matrix(-0.8,0,0,-0.8,-10,0)" /></marker><linearGradient
       xlink:href="#linearGradient17"
       id="linearGradient6"
       x1="94.449516"
       y1="81.596542"
       x2="120.08757"
       y2="93.767372"
       gradientUnits="userSpaceOnUse" /><linearGradient
       xlink:href="#linearGradient17"
       id="linearGradient10"
       x1="94.17083"
       y1="212.90689"
       x2="121.95435"
       y2="223.75481"
       gradientUnits="userSpaceOnUse" /><linearGradient
       xlink:href="#linearGradient24"
       id="linearGradient22"
       gradientUnits="userSpaceOnUse"
       x1="86.6043"
       y1="160.5684"
       x2="120.07901"
       y2="166.74232" /><linearGradient
       xlink:href="#linearGradient24"
       id="linearGradient25"
       gradientUnits="userSpaceOnUse"
       x1="85.585648"
       y1="56.254807"
       x2="119.9315"
       y2="55.827442" /><linearGradient
       xlink:href="#linearGradient24"
       id="linearGradient27"
       x1="87.973953"
       y1="244.90494"
       x2="123.34863"
       y2="244.90494"
       gradientUnits="userSpaceOnUse" /><marker
       style="overflow:visible"
       id="marker1181"
       refX="0"
       refY="0"
       orient="auto"
       viewBox="0 0 12.705841 9.5264135"
       markerWidth="12.705841"
       markerHeight="9.5264139"
       preserveAspectRatio="xMidYMid"><path
         transform="matrix(1.1,0,0,1.1,1.1,0)"
         d="M 8.7185878,4.0337352 -2.2072895,0.01601326 8.7185884,-4.0017078 c -1.7454984,2.3720609 -1.7354408,5.6174519 -6e-7,8.035443 z"
         style="fill:#000000;fill-opacity:1;fill-rule:evenodd;stroke:#000000;stroke-width:0.625;stroke-linejoin:round;stroke-opacity:1"
         id="path1179" /></marker><marker
       style="overflow:visible"
       id="marker1177"
       refX="0"
       refY="0"
       orient="auto"
       viewBox="0 0 12.705841 9.5264135"
       markerWidth="12.705841"
       markerHeight="9.5264139"
       preserveAspectRatio="xMidYMid"><path
         transform="matrix(-1.1,0,0,-1.1,-1.1,0)"
         d="M 8.7185878,4.0337352 -2.2072895,0.01601326 8.7185884,-4.0017078 c -1.7454984,2.3720609 -1.7354408,5.6174519 -6e-7,8.035443 z"
         style="fill:#000000;fill-opacity:1;fill-rule:evenodd;stroke:#000000;stroke-width:0.625;stroke-linejoin:round;stroke-opacity:1"
         id="path1175" /></marker></defs><metadata
     id="metadata5"><rdf:RDF><cc:Work
         rdf:about=""><dc:format>image/svg+xml</dc:format><dc:type
           rdf:resource="http://purl.org/dc/dcmitype/StillImage" /></cc:Work></rdf:RDF></metadata><g
     id="layer1"><g
       id="dim-length"><path
         id="path8573"
         d="m 124.07122,37.830996 h 50.00001"
         style="fill:none;stroke:#ff0000;stroke-width:1;stroke-linecap:butt;stroke-linejoin:miter;stroke-miterlimit:4;stroke-dasharray:none;stroke-opacity:1" /><path
         id="path8575"
         d="m 104.3417,277.00001 h 70.0001"
         style="fill:none;stroke:#ff0000;stroke-width:1;stroke-linecap:butt;stroke-linejoin:miter;stroke-miterlimit:4;stroke-dasharray:none;stroke-opacity:1" /><g
         id="path8577"><path
           style="color:#000000;fill:#ff0000;-inkscape-stroke:none"
           d="M 163.79492,41.017578 V 274.00586 h 1.09375 V 41.017578 Z"
           id="path123660" /><g
           id="g123642"><g
             id="path123652"><path
               style="color:#000000;fill:#ff0000;fill-rule:evenodd;stroke-width:0.751795;stroke-linejoin:round;-inkscape-stroke:none"
               d="m 169.19387,262.31637 -4.83281,13.14243 -4.8328,-13.14243 c 2.85328,2.09961 6.75707,2.08751 9.66561,0 z"
               id="path123656" /><path
               style="color:#000000;fill:#ff0000;fill-rule:evenodd;stroke-linejoin:round;-inkscape-stroke:none"
               d="m 169.27734,261.94922 a 0.37593509,0.37593509 0 0 0 -0.30273,0.0625 c -2.77966,1.99501 -6.50176,2.00415 -9.22266,0.002 a 0.37593509,0.37593509 0 0 0 -0.57617,0.43164 l 4.83203,13.14258 a 0.37593509,0.37593509 0 0 0 0.70508,0 l 4.83398,-13.14258 a 0.37593509,0.37593509 0 0 0 -0.26953,-0.49609 z m -0.76172,1.12305 -4.15429,11.29687 -4.15235,-11.28711 c 2.58396,1.45199 5.69102,1.44131 8.30664,-0.01 z"
               id="path123658" /></g><g
             id="path123644"><path
               style="color:#000000;fill:#ff0000;fill-rule:evenodd;stroke-width:0.751795;stroke-linejoin:round;-inkscape-stroke:none"
               d="m 159.48973,52.708534 4.83281,-13.142433 4.8328,13.142433 c -2.85328,-2.099611 -6.75707,-2.087513 -9.66561,0 z"
               id="path123648" /><path
               style="color:#000000;fill:#ff0000;fill-rule:evenodd;stroke-linejoin:round;-inkscape-stroke:none"
               d="m 164.32227,39.189453 a 0.37593509,0.37593509 0 0 0 -0.35157,0.246094 l -4.83398,13.142578 a 0.37593509,0.37593509 0 0 0 0.57226,0.435547 c 2.77966,-1.99501 6.50177,-2.004148 9.22266,-0.002 a 0.37593509,0.37593509 0 0 0 0.57617,-0.433594 L 164.67578,39.4355 a 0.37593509,0.37593509 0 0 0 -0.35351,-0.246094 z m 0,1.464844 4.15234,11.289062 c -2.58386,-1.451936 -5.69107,-1.443105 -8.30664,0.0078 z"
               id="path123650" /></g></g></g><g
         aria-label="H"
         id="length"
         style="font-size:34.925px;line-height:1.25;font-family:'DejaVu Sans';-inkscape-font-specification:'DejaVu Sans, Normal';letter-spacing:0px;word-spacing:0px;fill:#ff0000;stroke-width:0.264583"><path
           d="m 173.07797,128.53017 h 3.44475 v 10.43657 h 12.51706 v -10.43657 h 3.44475 v 25.46046 h -3.44475 v -12.12484 h -12.51706 v 12.12484 h -3.44475 z"
           id="path90" /></g></g><g
       id="dim-tip_angle"><path
         id="path834"
         d="m 144.3418,237 v 0 l 10,-10 -50.0001,50.00001 L 54.341681,227 v 0 0"
         style="fill:none;stroke:#ff0000;stroke-width:1;stroke-linecap:butt;stroke-linejoin:miter;stroke-miterlimit:4;stroke-dasharray:none;stroke-opacity:1" /><g
         id="path836"><path
           style="color:#000000;fill:#ff0000;-inkscape-stroke:none"
           d="m 104.65234,216.50391 c -15.339196,-0.079 -30.706694,5.63849 -42.539059,17.17187 l 0.697266,0.7168 c 23.281595,-22.69332 60.451423,-22.50222 83.498043,0.42969 l 0.70703,-0.70899 C 135.30268,222.45864 119.99154,216.5829 104.65234,216.50391 Z"
           id="path123630" /><g
           id="g123612"><g
             id="path123622"><path
               style="color:#000000;fill:#ff0000;fill-rule:evenodd;stroke-width:0.6875;stroke-linejoin:round;-inkscape-stroke:none"
               d="m 142.21371,223.78208 5.40227,11.60995 -11.63677,-5.34427 c 3.20149,-0.49534 5.71166,-3.03376 6.2345,-6.26568 z"
               id="path123626" /><path
               style="color:#000000;fill:#ff0000;fill-rule:evenodd;stroke-linejoin:round;-inkscape-stroke:none"
               d="m 142.16602,223.44141 a 0.34378438,0.34378438 0 0 0 -0.29102,0.28515 c -0.49967,3.08871 -2.89627,5.51007 -5.94922,5.98242 a 0.34378438,0.34378438 0 0 0 -0.0898,0.65039 l 11.63672,5.34571 a 0.34378438,0.34378438 0 0 0 0.45507,-0.45899 l -5.40234,-11.60937 a 0.34378438,0.34378438 0 0 0 -0.35937,-0.19531 z m 0.10156,1.26953 4.64258,9.97851 -9.9961,-4.58984 c 2.60789,-0.73828 4.6068,-2.75739 5.35352,-5.38867 z"
               id="path123628" /></g><g
             id="path123614"><path
               style="color:#000000;fill:#ff0000;fill-rule:evenodd;stroke-width:0.6875;stroke-linejoin:round;-inkscape-stroke:none"
               d="m 73.214132,229.74963 -11.69119,5.22412 5.521562,-11.55369 c 0.446334,3.20868 2.946074,5.75737 6.169628,6.32957 z"
               id="path123618" /><path
               style="color:#000000;fill:#ff0000;fill-rule:evenodd;stroke-linejoin:round;-inkscape-stroke:none"
               d="m 67.097656,223.08008 a 0.34378438,0.34378438 0 0 0 -0.363281,0.1914 l -5.521484,11.55469 a 0.34378438,0.34378438 0 0 0 0.451171,0.46094 l 11.689454,-5.22461 a 0.34378438,0.34378438 0 0 0 -0.08008,-0.65039 c -3.080709,-0.54684 -5.463046,-2.97926 -5.888671,-6.03906 a 0.34378438,0.34378438 0 0 0 -0.287109,-0.29297 z m -0.11914,1.27734 c 0.699253,2.61727 2.688144,4.64521 5.30664,5.43164 l -10.048828,4.49024 z"
               id="path123620" /></g></g></g><g
         aria-label="α"
         id="tip_angle"
         style="font-size:34.925px;line-height:1.25;font-family:'DejaVu Sans';-inkscape-font-specification:'DejaVu Sans, Normal';letter-spacing:0px;word-spacing:0px;fill:#ff0000;stroke-width:0.264583"><path
           d="m 70.83616,208.88845 -0.750342,-3.9393 q -0.767395,-4.04161 -3.802868,-4.04161 -2.285132,0 -3.325379,1.87586 -1.313098,2.35334 -1.313098,5.45703 0,3.75171 1.278992,5.54229 1.296045,1.8247 3.359485,1.8247 2.285131,0 3.512963,-3.63234 z m 1.756482,-5.21829 1.688269,-4.99659 h 2.796728 l -3.49591,10.35131 0.682129,3.73465 q 0.153479,0.83561 0.750341,1.53479 0.699183,0.81856 1.244886,0.81856 h 1.500683 v 2.6603 h -1.875854 q -1.603003,0 -3.035474,-1.43247 -0.699182,-0.71624 -0.989087,-2.21692 -0.784448,1.89291 -2.387451,3.37654 -0.750342,0.69918 -3.188952,0.69918 -4.007508,0 -5.951575,-2.59209 -1.995227,-2.67736 -1.995227,-7.36699 0,-5.01365 2.165759,-7.367 2.404505,-2.62619 5.781043,-2.62619 5.303552,0 6.309692,5.42292 z"
           id="path93" /></g></g><g
       id="dim-diameter"><path
         id="path8569"
         d="M 84.341681,36.999999 V 17 17"
         style="fill:none;stroke:#ff0000;stroke-width:1;stroke-linecap:butt;stroke-linejoin:miter;stroke-miterlimit:4;stroke-dasharray:none;stroke-opacity:1" /><path
         id="path8571"
         d="M 124.3418,36.999999 V 17"
         style="fill:none;stroke:#ff0000;stroke-width:1;stroke-linecap:butt;stroke-linejoin:miter;stroke-miterlimit:4;stroke-dasharray:none;stroke-opacity:1" /><g
         id="path8579"><path
           style="color:#000000;fill:#ff0000;-inkscape-stroke:none"
           d="m 124.3418,26.5 v 1 h 30 v -1 z"
           id="path123600" /><g
           id="g123590"><g
             id="path123592"><path
               style="color:#000000;fill:#ff0000;fill-rule:evenodd;stroke-width:0.6875;stroke-linejoin:round;-inkscape-stroke:none"
               d="m 135.03225,31.437109 -12.01847,-4.419494 12.01847,-4.419494 c -1.92005,2.609267 -1.90899,6.179198 0,8.838988 z"
               id="path123596" /><path
               style="color:#000000;fill:#ff0000;fill-rule:evenodd;stroke-linejoin:round;-inkscape-stroke:none"
               d="m 134.91406,22.275391 -12.01953,4.419921 a 0.34378438,0.34378438 0 0 0 0,0.644532 l 12.01953,4.419922 a 0.34378438,0.34378438 0 0 0 0.39649,-0.523438 c -1.8244,-2.541927 -1.83292,-5.945389 -0.002,-8.433594 a 0.34378438,0.34378438 0 0 0 -0.39453,-0.527343 z m -0.58203,0.945312 c -1.32805,2.363231 -1.31958,5.205533 0.008,7.597656 l -10.33007,-3.800781 z"
               id="path123598" /></g></g></g><g
         aria-label="D"
         id="diameter"
         style="font-size:34.925px;line-height:1.25;font-family:'DejaVu Sans';-inkscape-font-specification:'DejaVu Sans, Normal';letter-spacing:0px;word-spacing:0px;fill:#ff0000;stroke-width:0.264583"><path
           d="m 161.16261,11.09905 v 19.798791 h 4.16099 q 5.26944,0 7.70805,-2.387451 2.45567,-2.387451 2.45567,-7.537524 0,-5.115967 -2.45567,-7.486365 -2.43861,-2.387451 -7.70805,-2.387451 z m -3.44475,-2.830835 h 7.07709 q 7.40109,0 10.8629,3.086633 3.4618,3.06958 3.4618,9.618018 0,6.582543 -3.47885,9.669177 -3.47886,3.086633 -10.84585,3.086633 h -7.07709 z"
           id="path96" /></g><g
         id="path8579-9"><path
           style="color:#000000;fill:#ff0000;-inkscape-stroke:none"
           d="m 54.341797,26.5 v 1 h 30 v -1 z"
           id="path123578" /><g
           id="g123568"><g
             id="path123570"><path
               style="color:#000000;fill:#ff0000;fill-rule:evenodd;stroke-width:0.6875;stroke-linejoin:round;-inkscape-stroke:none"
               d="m 73.651232,22.562891 12.018465,4.419494 -12.018465,4.419494 c 1.920048,-2.609267 1.908985,-6.179198 0,-8.838988 z"
               id="path123574" /><path
               style="color:#000000;fill:#ff0000;fill-rule:evenodd;stroke-linejoin:round;-inkscape-stroke:none"
               d="m 73.769531,22.240234 a 0.34378438,0.34378438 0 0 0 -0.398437,0.523438 c 1.824392,2.541927 1.834869,5.94539 0.0039,8.433594 a 0.34378438,0.34378438 0 0 0 0.394531,0.527343 l 12.019531,-4.419922 a 0.34378438,0.34378438 0 0 0 0,-0.644531 z m 0.572266,0.941407 10.332031,3.800781 -10.322266,3.796875 c 1.328144,-2.363393 1.317897,-5.20544 -0.0098,-7.597656 z"
               id="path123576" /></g></g></g></g><path
       style="fill:url(#linearGradient6);stroke-width:1"
       d="m 93.521138,160.41496 c 0,0 23.930002,-52.24121 28.232592,-73.879691 4.30259,-21.638482 -3.08812,-50.419642 -3.08812,-50.419642 0,0 -15.74327,20.932557 -23.944778,42.994787 -8.201509,22.062226 -7.285681,36.220256 -7.408333,40.983826 -0.122652,4.76357 1.463359,17.23686 2.207457,20.53113 0.744098,3.29427 4.001182,19.78959 4.001182,19.78959 z"
       id="path2" /><path
       style="fill:url(#linearGradient22);stroke-width:1"
       d="m 89.240798,231.4386 c 0,0 6.184338,-24.30953 11.276812,-35.31234 5.09248,-11.0028 18.81165,-42.68518 21.04903,-62.19336 1.79654,-15.66437 -0.16668,-44.763867 -0.16668,-44.763867 0,0 -15.85838,44.211327 -22.937357,58.977097 -7.078978,14.76577 -11.58872,34.34936 -11.71137,39.11293 -0.12265,4.76357 -0.354666,24.99701 0.257132,29.68034 0.611798,4.68334 2.232433,14.4992 2.232433,14.4992 z"
       id="path3" /><path
       style="fill:url(#linearGradient25);stroke-width:1"
       d="m 88.447048,100.99902 c 0,0 6.430122,-24.372129 13.922652,-37.693593 7.49252,-13.321464 21.1929,-29.456013 21.04903,-37.057943 H 86.424061 v 30.571993 c -0.07271,4.764594 -0.556658,24.20325 -0.209446,29.68034 0.347215,5.47709 2.232433,14.499203 2.232433,14.499203 z"
       id="path4" /><path
       style="fill:url(#linearGradient27);fill-opacity:1;stroke-width:1"
       d="m 87.973957,250.03125 11.972395,14.75052 22.026568,-50.86615 c 0,0 2.17121,25.40167 1.05833,33.3375 -1.11288,7.93583 -2.50285,12.56362 -3.96875,14.02292 l -14.68438,14.61823 -12.832288,-12.63386 c -2.151374,-2.11811 -3.571875,-13.22916 -3.571875,-13.22916 z"
       id="path5" /><path
       style="fill:url(#linearGradient10);fill-opacity:1;stroke-width:1"
       d="m 99.946352,264.81484 c 0,0 20.443408,-34.21973 23.349478,-57.24922 2.90607,-23.02949 -7.54063,-48.15416 -7.54063,-48.15416 0,0 -12.30369,28.34089 -20.505201,50.40312 -8.201509,22.06223 -7.408333,38.36459 -7.408333,38.36459 0,0 1.650448,7.13407 3.704166,10.05416 2.053718,2.92009 8.40052,6.58151 8.40052,6.58151 z"
       id="path1" /></g></svg>
