<?xml version="1.0" encoding="UTF-8" standalone="no"?>
<svg
   id="svg8"
   version="1.1"
   viewBox="0 0 210 297.00001"
   height="297mm"
   width="210mm"
   sodipodi:docname="endmill.svg"
   inkscape:version="1.2.2 (b0a8486541, 2022-12-01)"
   xmlns:inkscape="http://www.inkscape.org/namespaces/inkscape"
   xmlns:sodipodi="http://sodipodi.sourceforge.net/DTD/sodipodi-0.dtd"
   xmlns="http://www.w3.org/2000/svg"
   xmlns:svg="http://www.w3.org/2000/svg"
   xmlns:rdf="http://www.w3.org/1999/02/22-rdf-syntax-ns#"
   xmlns:cc="http://creativecommons.org/ns#"
   xmlns:dc="http://purl.org/dc/elements/1.1/">
  <sodipodi:namedview
     pagecolor="#ffffff"
     bordercolor="#666666"
     borderopacity="1"
     objecttolerance="10"
     gridtolerance="10"
     guidetolerance="10"
     inkscape:pageopacity="0"
     inkscape:pageshadow="2"
     inkscape:window-width="2107"
     inkscape:window-height="1421"
     id="namedview71"
     showgrid="false"
     inkscape:zoom="1.0687694"
     inkscape:cx="412.15626"
     inkscape:cy="595.07692"
     inkscape:window-x="2727"
     inkscape:window-y="399"
     inkscape:window-maximized="0"
     inkscape:current-layer="layer1"
     inkscape:showpageshadow="2"
     inkscape:pagecheckerboard="0"
     inkscape:deskcolor="#d1d1d1"
     inkscape:document-units="mm" />
  <defs
     id="defs2">
    <marker
       style="overflow:visible"
       id="marker1185"
       refX="0"
       refY="0"
       orient="auto">
      <path
         transform="matrix(-1.1,0,0,-1.1,-1.1,0)"
         d="M 8.7185878,4.0337352 -2.2072895,0.01601326 8.7185884,-4.0017078 c -1.7454984,2.3720609 -1.7354408,5.6174519 -6e-7,8.035443 z"
         style="fill:#000000;fill-opacity:1;fill-rule:evenodd;stroke:#000000;stroke-width:0.625;stroke-linejoin:round;stroke-opacity:1"
         id="path1183" />
    </marker>
    <marker
       style="overflow:visible"
       id="marker1181"
       refX="0"
       refY="0"
       orient="auto">
      <path
         transform="matrix(1.1,0,0,1.1,1.1,0)"
         d="M 8.7185878,4.0337352 -2.2072895,0.01601326 8.7185884,-4.0017078 c -1.7454984,2.3720609 -1.7354408,5.6174519 -6e-7,8.035443 z"
         style="fill:#000000;fill-opacity:1;fill-rule:evenodd;stroke:#000000;stroke-width:0.625;stroke-linejoin:round;stroke-opacity:1"
         id="path1179" />
    </marker>
    <marker
       style="overflow:visible"
       id="marker1177"
       refX="0"
       refY="0"
       orient="auto">
      <path
         transform="matrix(-1.1,0,0,-1.1,-1.1,0)"
         d="M 8.7185878,4.0337352 -2.2072895,0.01601326 8.7185884,-4.0017078 c -1.7454984,2.3720609 -1.7354408,5.6174519 -6e-7,8.035443 z"
         style="fill:#000000;fill-opacity:1;fill-rule:evenodd;stroke:#000000;stroke-width:0.625;stroke-linejoin:round;stroke-opacity:1"
         id="path1175" />
    </marker>
    <marker
       style="overflow:visible"
       id="marker1173"
       refX="0"
       refY="0"
       orient="auto">
      <path
         transform="matrix(1.1,0,0,1.1,1.1,0)"
         d="M 8.7185878,4.0337352 -2.2072895,0.01601326 8.7185884,-4.0017078 c -1.7454984,2.3720609 -1.7354408,5.6174519 -6e-7,8.035443 z"
         style="fill:#000000;fill-opacity:1;fill-rule:evenodd;stroke:#000000;stroke-width:0.625;stroke-linejoin:round;stroke-opacity:1"
         id="path1171" />
    </marker>
    <marker
       style="overflow:visible"
       id="Arrow2Lend"
       refX="0"
       refY="0"
       orient="auto">
      <path
         transform="matrix(-1.1,0,0,-1.1,-1.1,0)"
         d="M 8.7185878,4.0337352 -2.2072895,0.01601326 8.7185884,-4.0017078 c -1.7454984,2.3720609 -1.7354408,5.6174519 -6e-7,8.035443 z"
         style="fill:#000000;fill-opacity:1;fill-rule:evenodd;stroke:#000000;stroke-width:0.625;stroke-linejoin:round;stroke-opacity:1"
         id="path920" />
    </marker>
    <marker
       style="overflow:visible"
       id="Arrow2Lstart"
       refX="0"
       refY="0"
       orient="auto">
      <path
         transform="matrix(1.1,0,0,1.1,1.1,0)"
         d="M 8.7185878,4.0337352 -2.2072895,0.01601326 8.7185884,-4.0017078 c -1.7454984,2.3720609 -1.7354408,5.6174519 -6e-7,8.035443 z"
         style="fill:#000000;fill-opacity:1;fill-rule:evenodd;stroke:#000000;stroke-width:0.625;stroke-linejoin:round;stroke-opacity:1"
         id="path917" />
    </marker>
    <marker
       style="overflow:visible"
       id="Arrow1Lstart"
       refX="0"
       refY="0"
       orient="auto">
      <path
         transform="matrix(0.8,0,0,0.8,10,0)"
         style="fill:#000000;fill-opacity:1;fill-rule:evenodd;stroke:#000000;stroke-width:1.00000003pt;stroke-opacity:1"
         d="M 0,0 5,-5 -12.5,0 5,5 Z"
         id="path899" />
    </marker>
    <marker
       style="overflow:visible"
       id="Arrow2Mstart"
       refX="0"
       refY="0"
       orient="auto">
      <path
         transform="scale(0.6)"
         d="M 8.7185878,4.0337352 -2.2072895,0.01601326 8.7185884,-4.0017078 c -1.7454984,2.3720609 -1.7354408,5.6174519 -6e-7,8.035443 z"
         style="fill:#000000;fill-opacity:1;fill-rule:evenodd;stroke:#000000;stroke-width:0.625;stroke-linejoin:round;stroke-opacity:1"
         id="path923" />
    </marker>
    <marker
       style="overflow:visible"
       id="Arrow1Mend"
       refX="0"
       refY="0"
       orient="auto">
      <path
         transform="matrix(-0.4,0,0,-0.4,-4,0)"
         style="fill:#000000;fill-opacity:1;fill-rule:evenodd;stroke:#000000;stroke-width:1.00000003pt;stroke-opacity:1"
         d="M 0,0 5,-5 -12.5,0 5,5 Z"
         id="path908" />
    </marker>
    <marker
       style="overflow:visible"
       id="marker7497"
       refX="0"
       refY="0"
       orient="auto">
      <path
         transform="scale(-0.6)"
         d="M 8.7185878,4.0337352 -2.2072895,0.01601326 8.7185884,-4.0017078 c -1.7454984,2.3720609 -1.7354408,5.6174519 -6e-7,8.035443 z"
         style="fill:#000025;fill-opacity:1;fill-rule:evenodd;stroke:#000025;stroke-width:0.625;stroke-linejoin:round;stroke-opacity:1"
         id="path7495" />
    </marker>
    <marker
       style="overflow:visible"
       id="marker7379"
       refX="0"
       refY="0"
       orient="auto">
      <path
         transform="matrix(0.4,0,0,0.4,4,0)"
         style="fill:#000025;fill-opacity:1;fill-rule:evenodd;stroke:#000025;stroke-width:1.00000003pt;stroke-opacity:1"
         d="M 0,0 5,-5 -12.5,0 5,5 Z"
         id="path7377" />
    </marker>
    <marker
       orient="auto"
       refY="0"
       refX="0"
       id="marker5480"
       style="overflow:visible">
      <path
         id="path5478"
         style="fill:#000000;fill-opacity:1;fill-rule:evenodd;stroke:#000000;stroke-width:0.625;stroke-linejoin:round;stroke-opacity:1"
         d="M 8.7185878,4.0337352 -2.2072895,0.01601326 8.7185884,-4.0017078 c -1.7454984,2.3720609 -1.7354408,5.6174519 -6e-7,8.035443 z"
         transform="scale(-0.6)" />
    </marker>
    <marker
       orient="auto"
       refY="0"
       refX="0"
       id="marker5470"
       style="overflow:visible">
      <path
         id="path5468"
         style="fill:#000000;fill-opacity:1;fill-rule:evenodd;stroke:#000000;stroke-width:0.625;stroke-linejoin:round;stroke-opacity:1"
         d="M 8.7185878,4.0337352 -2.2072895,0.01601326 8.7185884,-4.0017078 c -1.7454984,2.3720609 -1.7354408,5.6174519 -6e-7,8.035443 z"
         transform="scale(-0.6)" />
    </marker>
    <marker
       orient="auto"
       refY="0"
       refX="0"
       id="marker5220"
       style="overflow:visible">
      <path
         id="path5218"
         d="M 0,0 5,-5 -12.5,0 5,5 Z"
         style="fill:#000000;fill-opacity:1;fill-rule:evenodd;stroke:#000000;stroke-width:1.00000003pt;stroke-opacity:1"
         transform="matrix(0.4,0,0,0.4,4,0)" />
    </marker>
    <marker
       orient="auto"
       refY="0"
       refX="0"
       id="marker5210"
       style="overflow:visible">
      <path
         id="path5208"
         d="M 0,0 5,-5 -12.5,0 5,5 Z"
         style="fill:#000000;fill-opacity:1;fill-rule:evenodd;stroke:#000000;stroke-width:1.00000003pt;stroke-opacity:1"
         transform="matrix(0.4,0,0,0.4,4,0)" />
    </marker>
    <marker
       orient="auto"
       refY="0"
       refX="0"
       id="marker5072"
       style="overflow:visible">
      <path
         id="path5070"
         d="M 0,0 5,-5 -12.5,0 5,5 Z"
         style="fill:#000000;fill-opacity:1;fill-rule:evenodd;stroke:#000000;stroke-width:1.00000003pt;stroke-opacity:1"
         transform="matrix(-0.8,0,0,-0.8,-10,0)" />
    </marker>
    <marker
       orient="auto"
       refY="0"
       refX="0"
       id="marker5014"
       style="overflow:visible">
      <path
         id="path5012"
         d="M 0,0 5,-5 -12.5,0 5,5 Z"
         style="fill:#000000;fill-opacity:1;fill-rule:evenodd;stroke:#000000;stroke-width:1.00000003pt;stroke-opacity:1"
         transform="matrix(-0.8,0,0,-0.8,-10,0)" />
    </marker>
    <marker
       orient="auto"
       refY="0"
       refX="0"
       id="marker4968"
       style="overflow:visible">
      <path
         id="path4966"
         d="M 0,0 5,-5 -12.5,0 5,5 Z"
         style="fill:#000000;fill-opacity:1;fill-rule:evenodd;stroke:#000000;stroke-width:1.00000003pt;stroke-opacity:1"
         transform="matrix(-0.8,0,0,-0.8,-10,0)" />
    </marker>
    <marker
       orient="auto"
       refY="0"
       refX="0"
       id="marker4884"
       style="overflow:visible">
      <path
         id="path4882"
         d="M 0,0 5,-5 -12.5,0 5,5 Z"
         style="fill:#000000;fill-opacity:1;fill-rule:evenodd;stroke:#000000;stroke-width:1.00000003pt;stroke-opacity:1"
         transform="matrix(0.8,0,0,0.8,10,0)" />
    </marker>
    <marker
       orient="auto"
       refY="0"
       refX="0"
       id="marker4856"
       style="overflow:visible">
      <path
         id="path4854"
         d="M 0,0 5,-5 -12.5,0 5,5 Z"
         style="fill:#000000;fill-opacity:1;fill-rule:evenodd;stroke:#000000;stroke-width:1.00000003pt;stroke-opacity:1"
         transform="matrix(0.8,0,0,0.8,10,0)" />
    </marker>
    <marker
       orient="auto"
       refY="0"
       refX="0"
       id="marker4834"
       style="overflow:visible">
      <path
         id="path4832"
         d="M 0,0 5,-5 -12.5,0 5,5 Z"
         style="fill:#000000;fill-opacity:1;fill-rule:evenodd;stroke:#000000;stroke-width:1.00000003pt;stroke-opacity:1"
         transform="matrix(0.8,0,0,0.8,10,0)" />
    </marker>
    <marker
       orient="auto"
       refY="0"
       refX="0"
       id="marker5220-5"
       style="overflow:visible">
      <path
         id="path5218-3"
         d="M 0,0 5,-5 -12.5,0 5,5 Z"
         style="fill:#000000;fill-opacity:1;fill-rule:evenodd;stroke:#000000;stroke-width:1.00000003pt;stroke-opacity:1"
         transform="matrix(0.4,0,0,0.4,4,0)" />
    </marker>
    <marker
       orient="auto"
       refY="0"
       refX="0"
       id="marker5480-5"
       style="overflow:visible">
      <path
         id="path5478-7"
         style="fill:#000000;fill-opacity:1;fill-rule:evenodd;stroke:#000000;stroke-width:0.625;stroke-linejoin:round;stroke-opacity:1"
         d="M 8.7185878,4.0337352 -2.2072895,0.01601326 8.7185884,-4.0017078 c -1.7454984,2.3720609 -1.7354408,5.6174519 -6e-7,8.035443 z"
         transform="scale(-0.6)" />
    </marker>
  </defs>
  <metadata
     id="metadata5">
    <rdf:RDF>
      <cc:Work
         rdf:about="">
        <dc:format>image/svg+xml</dc:format>
        <dc:type
           rdf:resource="http://purl.org/dc/dcmitype/StillImage" />
        <dc:title />
      </cc:Work>
    </rdf:RDF>
  </metadata>
  <g
     transform="translate(0.19510138,82.181594)"
     id="layer1">
    <path
       id="path4538"
       d="m 137.48175,191.92376 v -39.1469"
       style="fill:none;stroke:#000000;stroke-width:0.823854;stroke-linecap:butt;stroke-linejoin:miter;stroke-miterlimit:4;stroke-dasharray:none;stroke-opacity:1" />
    <path
       id="path4542"
       d="M 76.363964,-48.01155 H 135.40782"
       style="fill:none;stroke:#000000;stroke-width:0.736568;stroke-linecap:butt;stroke-linejoin:miter;stroke-miterlimit:4;stroke-dasharray:none;stroke-opacity:1;marker-start:url(#marker1181);marker-end:url(#marker1185)" />
    <path
       id="path4548"
       d="M 73.227916,179.67926 H 136.88619"
       style="fill:none;stroke:#000000;stroke-width:0.540802;stroke-linecap:butt;stroke-linejoin:miter;stroke-miterlimit:4;stroke-dasharray:none;stroke-opacity:1;marker-start:url(#marker1173);marker-end:url(#marker1177)" />
    <text
       transform="scale(0.97131606,1.029531)"
       id="shank_diameter"
       y="-35.19606"
       x="145.98839"
       style="font-style:normal;font-variant:normal;font-weight:normal;font-stretch:normal;font-size:35.7707px;line-height:1.25;font-family:'URW Bookman L';-inkscape-font-specification:'URW Bookman L, Normal';font-variant-ligatures:normal;font-variant-caps:normal;font-variant-numeric:normal;font-feature-settings:normal;text-align:start;letter-spacing:0px;word-spacing:0px;writing-mode:lr-tb;text-anchor:start;fill:#000000;fill-opacity:1;stroke:none;stroke-width:3.35351"
       xml:space="preserve"><tspan
         style="font-style:normal;font-variant:normal;font-weight:normal;font-stretch:normal;font-size:35.7707px;font-family:'URW Bookman L';-inkscape-font-specification:'URW Bookman L, Normal';font-variant-ligatures:normal;font-variant-caps:normal;font-variant-numeric:normal;font-feature-settings:normal;text-align:start;writing-mode:lr-tb;text-anchor:start;stroke-width:3.35351"
         y="-35.19606"
         x="145.98839"
         id="tspan5678">S</tspan></text>
    <text
       transform="scale(0.97131606,1.029531)"
       id="diameter"
       y="204.05394"
       x="94.644455"
       style="font-style:normal;font-variant:normal;font-weight:normal;font-stretch:normal;font-size:35.7707px;line-height:1.25;font-family:'URW Bookman L';-inkscape-font-specification:'URW Bookman L, Normal';font-variant-ligatures:normal;font-variant-caps:normal;font-variant-numeric:normal;font-feature-settings:normal;text-align:start;letter-spacing:0px;word-spacing:0px;writing-mode:lr-tb;text-anchor:start;fill:#000000;fill-opacity:1;stroke:none;stroke-width:3.35351"
       xml:space="preserve"><tspan
         style="font-style:normal;font-variant:normal;font-weight:normal;font-stretch:normal;font-size:35.7707px;font-family:'URW Bookman L';-inkscape-font-specification:'URW Bookman L, Normal';font-variant-ligatures:normal;font-variant-caps:normal;font-variant-numeric:normal;font-feature-settings:normal;text-align:start;writing-mode:lr-tb;text-anchor:start;stroke-width:3.35351"
         y="204.05394"
         x="94.644455"
         id="tspan5690">D</tspan></text>
    <text
       transform="scale(0.97131606,1.029531)"
       id="cutting_edge_height"
       y="101.32485"
       x="161.34537"
       style="font-style:normal;font-variant:normal;font-weight:normal;font-stretch:normal;font-size:35.7707px;line-height:1.25;font-family:'URW Bookman L';-inkscape-font-specification:'URW Bookman L, Normal';font-variant-ligatures:normal;font-variant-caps:normal;font-variant-numeric:normal;font-feature-settings:normal;text-align:start;letter-spacing:0px;word-spacing:0px;writing-mode:lr-tb;text-anchor:start;fill:#000000;fill-opacity:1;stroke:none;stroke-width:3.35351"
       xml:space="preserve"><tspan
         style="stroke-width:3.35351"
         y="101.32485"
         x="161.34537"
         id="tspan10475">H</tspan><tspan
         style="stroke-width:3.35351"
         id="tspan895"
         y="146.03827"
         x="161.34537" /></text>
    <path
       id="path4538-8"
       d="m 72.706646,194.48411 v -39.1469"
       style="fill:none;stroke:#000000;stroke-width:0.823854;stroke-linecap:butt;stroke-linejoin:miter;stroke-miterlimit:4;stroke-dasharray:none;stroke-opacity:1" />
    <path
       id="path897"
       d="M 150.31501,22.267499 V 170.59241"
       style="fill:none;stroke:#000000;stroke-width:1.13395;stroke-linecap:butt;stroke-linejoin:miter;stroke-miterlimit:4;stroke-dasharray:none;stroke-opacity:1;marker-start:url(#Arrow2Lstart);marker-end:url(#Arrow2Lend)" />
    <path
       id="path1187"
       d="m 133.77842,19.499193 h 24.62222"
       style="fill:none;stroke:#000000;stroke-width:0.823854;stroke-linecap:butt;stroke-linejoin:miter;stroke-miterlimit:4;stroke-dasharray:none;stroke-opacity:1" />
    <path
       id="path1189"
       d="m 135.62701,171.93303 h 24.62222"
       style="fill:none;stroke:#000000;stroke-width:0.823854;stroke-linecap:butt;stroke-linejoin:miter;stroke-miterlimit:4;stroke-dasharray:none;stroke-opacity:1" />
    <path
       id="path14"
       style="fill:#000000;stroke-width:0.20776"
       d="m 91.938366,172.78619 c -6.142817,-1.36503 -16.123011,2.39642 -20.11178,-2.13054 0.40064,-5.14239 2.18485,-10.17158 0.88006,-15.31844 -1.588751,-19.58191 0.0027,-39.30403 0.02698,-58.938496 0.05844,-10.53663 0.64552,-21.073554 1.872995,-31.4853 -1.980409,-19.37481 -0.07282,-38.915321 -0.191006,-58.3625281 0.344258,-8.5410359 0.718916,-62.6041439 1.106803,10.7615451 1.264441,2.901228 -0.852146,12.507754 0.890528,3.268666 0.729604,-7.738366 2.018685,-3.234881 1.377728,-0.424902 2.177229,-8.781627 11.896959,-5.929465 12.151941,-1.774892 1.168699,-4.145107 5.69858,-10.5032841 2.201312,-2.353936 C 82.381671,38.168923 73.863221,62.036211 73.982674,87.429639 73.715535,99.303193 73.608056,111.18148 73.286981,123.0533 79.196956,86.273199 98.149425,55.246324 115.50909,24.834909 c 3.49222,-6.339073 14.45807,-15.2632431 18.26933,-5.335716 0.22689,4.158798 3.12969,-7.449075 1.67123,0.969399 -5.1166,22.785502 -17.50774,41.907994 -27.99944,61.556907 C 92.398957,109.38398 76.455925,137.95288 72.865607,171.044 c 5.184964,0.81955 10.677698,0.21812 15.995347,0.39476 14.571346,-30.82177 34.229786,-58.56807 44.314846,-92.134586 5.05588,-16.546097 3.35406,-71.222613 3.84841,-90.459903 0.34818,-3.248991 1.32561,15.6618251 0.30085,53.728781 0.24326,19.776979 -2.52298,30.780587 -0.38585,36.765907 2.04274,17.421427 0.80508,35.105571 1.16079,52.642051 -0.0793,11.92696 0.3521,23.94444 -1.6353,35.71111 2.81312,6.56778 -1.96352,5.38289 -5.48863,5.30694 -13.01268,-0.0332 -26.02526,-0.11495 -39.037704,-0.21287 z m 20.399594,-1.0649 c 0.69996,-16.93927 2.71449,-33.82831 3.88404,-50.75239 -4.08068,5.53225 -2.08939,13.31347 -3.34237,20.23985 -0.41859,4.77169 -0.79007,12.31732 -0.0378,3.15039 0.15928,-5.39793 1.88005,-17.50524 1.25836,-8.38539 -0.83095,12.01636 -1.78548,24.02014 -2.69045,36.02893 -3.29455,-0.59019 -6.1912,0.42851 -9.69337,-0.40408 -0.69395,1.41455 4.25312,0.48108 5.97218,0.74251 1.3311,-0.40803 4.08225,0.82284 4.6494,-0.61982 z m 1.72101,-41.44965 c 0.16851,-1.87075 0.11913,2.15316 0,0 z m 0.3827,0 c 0.16838,-1.87076 0.11958,2.15321 0,0 z m -0.19396,-2.36852 c 0.14655,-1.81023 0.14655,1.81024 0,0 z m 0.38271,0 c 0.14654,-1.81022 0.14654,1.81023 0,0 z m -0.19908,-2.4813 c 0.15392,-1.41173 0.15392,1.41173 0,0 z m 0.38271,0 c 0.15389,-1.41172 0.15389,1.41172 0,0 z m 21.7014,46.58361 c -0.91415,-6.28525 -0.96815,0.92607 -0.88844,-0.0724 -1.48047,-2.6288 -0.28113,2.3321 0.88844,0.0724 z m -57.624273,-0.0455 c -3.339496,-0.33615 -9.58622,0.11474 -2.524113,0.11062 0.811408,-0.26238 1.716486,0.20382 2.524113,-0.11062 z m 10.675464,-0.29565 c 0.195493,-1.60369 -0.766722,1.611 0,0 z m 5.624459,-0.0423 c -0.328113,-0.38782 0.165239,1.26114 0,0 z m 8.13685,-14.39438 c 0.29397,-2.93846 2.73712,-15.40962 1.79983,-13.49219 -1.76717,9.22152 -3.52307,18.44888 -5.09225,27.72015 2.38272,-0.0436 1.31586,-5.58823 2.29365,-7.8412 0.33293,-2.12891 0.66585,-4.25783 0.99877,-6.38676 z m -0.0395,14.33502 c 1.41545,-11.06664 2.89927,-22.12243 4.33073,-33.18522 -2.2548,10.9075 -3.66531,22.16324 -5.36732,33.2077 l 0.44963,0.0792 z m 2.10488,-0.23112 c 1.27099,-12.04047 2.62169,-24.06988 3.94449,-36.10205 -1.83869,11.9967 -3.60152,24.30875 -4.77049,36.3459 0.2487,0.11327 0.75093,0.19807 0.826,-0.24385 z m 3.57744,-18.38979 c 0.40361,-4.62534 1.93829,-19.88326 1.54658,-17.90646 -1.43167,12.17688 -2.74949,24.3844 -4.0929,36.56732 2.21611,-4.62214 1.49035,-13.06412 2.54632,-18.66086 z m -0.13311,18.28832 c 0.70958,-9.50947 1.60239,-18.99924 2.27623,-28.51241 -0.83396,9.59912 -2.37564,19.5706 -2.56326,28.94666 z m 25.82425,-0.4318 c 3.93522,-19.52045 1.85359,-39.73778 2.22644,-59.58993 -0.0617,-5.70229 -1.58507,7.45039 -2.71243,9.79212 -4.87831,18.05826 -13.04433,34.51355 -21.29821,50.66386 h 21.58636 l 0.11127,-0.48707 z m -41.638959,-0.43099 c 1.172848,-4.0044 3.599743,-13.81219 0.825168,-4.32414 -0.07155,0.32291 -2.492033,7.99196 -0.825168,4.32414 z m 2.016424,-0.67672 c 0.7686,-3.70802 3.406155,-13.34273 2.933211,-13.21251 -0.265857,1.20676 -5.980594,19.86118 -2.933211,13.21251 z m 3.807148,-8.46069 c 0.68476,-3.01899 3.448557,-16.23719 0.84744,-6.20448 -0.653832,4.90452 -4.221613,12.99165 -3.138894,16.18899 1.023169,-3.23129 1.522033,-6.66298 2.291454,-9.98451 z m 0.135048,9.70135 c 1.525619,-8.22597 3.017319,-16.46239 4.398639,-24.7237 -2.10705,8.18182 -4.012834,16.87375 -5.301826,25.19749 0.340534,0.1581 0.789863,-0.0422 0.903187,-0.47379 z m 11.141529,-1.46315 c -0.28271,0.51858 0.27175,2.47525 0,0 z m 0.56746,1.0261 c -0.32812,-0.38783 0.16523,1.26112 0,0 z m -38.270348,-0.22558 c -0.328106,-0.38783 0.165206,1.26115 0,0 z m 18.32235,-0.007 c 4.220868,-8.88298 -2.435831,1.26274 0,0 z m 18.799888,-1.12086 c -0.32812,-0.38783 0.16524,1.26113 0,0 z m 6.5275,-6.27378 c 11.97508,-23.96397 23.58456,-51.02979 20.27273,-79.685236 -0.3463,-4.311171 -1.22471,-9.994157 -2.42057,-2.318266 -4.12143,14.491533 -11.09607,27.624432 -17.24222,40.887072 -1.3522,15.9234 -2.62256,31.85741 -4.0543,47.77069 1.21251,-2.17075 2.31446,-4.4237 3.44436,-6.65442 z m -5.19203,5.1318 c -0.33489,0.22545 0.31057,1.2422 0,0 z m -0.56574,-0.9023 c -0.29311,0.44018 0.28782,2.25043 0,0 z m -0.57838,-0.21148 c -0.32811,-0.38782 0.1652,1.26116 0,0 z m 1.33547,-1.36752 c -0.3349,0.22543 0.31057,1.24216 0,0 z m -0.56544,-0.6741 c -0.29534,0.4092 0.278,1.97803 0,0 z m -0.57869,-0.2141 c -0.32805,-0.38782 0.16521,1.26109 0,0 z m -15.686573,-1.87524 c 1.246244,-5.09096 -2.229822,5.11953 0,0 z m 17.027233,0.16918 c -0.30778,0.33544 0.29778,1.74716 0,0 z m -0.57405,-0.45114 c -0.30779,0.33544 0.29777,1.74714 0,0 z m -0.57923,-0.1128 c -0.33497,0.22543 0.31062,1.24221 0,0 z m 1.34807,-1.80194 c -0.29534,0.40918 0.278,1.97799 0,0 z m -0.58267,-0.22822 c -0.33491,0.22545 0.31058,1.24221 0,0 z m -0.56818,-0.33407 c -0.31736,0.28875 0.2833,1.48676 0,0 z m -36.219125,-0.56799 c -0.420547,-3.22275 -0.482355,3.08871 0,0 z m 37.561325,-1.35082 c -0.29533,0.40921 0.278,1.97803 0,0 z m -14.899834,0.5613 c 2.453372,-6.39336 -1.049679,-1.45724 0,0 z m 13.748994,-0.89799 c -0.31734,0.28873 0.28323,1.48675 0,0 z m 0.57216,0.34815 c -0.32807,-0.38778 0.16522,1.26113 0,0 z m 0.76973,-2.4954 c -0.29303,0.4402 0.28775,2.25043 0,0 z m -37.281268,-1.12786 c 4.10171,-17.73 11.519823,-34.06408 19.283683,-49.85963 6.592535,-24.752823 13.395025,-49.463857 19.802095,-74.256893 -16.882789,29.8923 -35.389014,60.731898 -39.788977,97.144733 -1.116267,9.6172 -1.065633,19.46202 0.137753,29.05835 l 0.214335,-0.61292 z m 62.722768,1.35344 c -0.33496,0.22543 0.31061,1.2422 0,0 z m -26.59205,-0.33407 c -0.31731,0.28877 0.28325,1.48675 0,0 z m 0.57218,0.12259 c -0.32812,-0.38782 0.16522,1.26107 0,0 z m 0.77199,-2.37951 c -0.28265,0.51857 0.27174,2.47518 0,0 z m -1.15351,-0.22867 c -0.30779,0.33544 0.29778,1.74714 0,0 z m 0.57288,0.35244 c -0.32811,-0.3878 0.16522,1.26115 0,0 z m 26.02573,-0.57373 c -0.31734,0.28873 0.28322,1.48675 0,0 z m -37.665897,-0.58308 c 0.449617,-3.21088 -1.728623,3.37419 0,0 z m -26.821552,0.25453 c -0.328092,-0.38786 0.165192,1.26112 0,0 z m 39.233459,-1.7059 c -0.28238,0.54307 0.2792,2.75291 0,0 z m -1.15326,0 c -0.30784,0.33544 0.29785,1.74714 0,0 z m -38.275535,-0.7895 c -0.334961,0.22543 0.310613,1.24216 0,0 z m 38.466875,-1.46624 c -0.30778,0.33546 0.29778,1.7472 0,0 z m -1.34066,0.12689 c -0.32807,-0.38779 0.16522,1.26113 0,0 z m -7.32095,-2.18572 c -1.2769,0.62171 -0.8375,3.80288 0,0 z m -29.988011,-0.0815 c -0.295331,0.40918 0.277993,1.97803 0,0 z m 38.840981,-0.1154 c -0.30778,0.33544 0.29777,1.74714 0,0 z m -1.34066,0.35244 c -0.32811,-0.3878 0.16524,1.26111 0,0 z m -7.01941,-1.08556 c 0.4692,-1.60103 -0.90976,1.61873 0,0 z m 8.55455,-1.63539 c -0.29304,0.4402 0.28774,2.25043 0,0 z m -1.34378,0.69081 c -0.32811,-0.38781 0.16522,1.26113 0,0 z m 2.87028,0 c -0.32811,-0.38781 0.16522,1.26113 0,0 z m -8.28853,-2.39067 c -1.69169,0.87012 -0.48873,3.82502 0,0 z m 5.60959,0.36051 c -0.32807,-0.38779 0.16522,1.26113 0,0 z m 1.34379,-0.91639 c -0.29303,0.4402 0.28775,2.25043 0,0 z m 1.53112,0.2282 c -0.29534,0.4092 0.278,1.97803 0,0 z m -2.10488,-1.12785 c -0.29534,0.40918 0.278,1.97798 0,0 z m -5.15319,-0.39739 c 3.11962,-5.21039 -2.00511,0.9532 0,0 z m 4.57452,0.18327 c -0.32811,-0.38779 0.16524,1.26111 0,0 z m 1.34379,-1.14197 c -0.29311,0.44019 0.28781,2.25043 0,0 z m 1.53081,0 c -0.29304,0.4402 0.28775,2.25043 0,0 z m -2.108,-0.7895 c -0.30778,0.33544 0.29777,1.74716 0,0 z m -0.57524,-0.0987 c -0.32811,-0.3878 0.16521,1.26115 0,0 z m -37.849391,-8.38092 c -0.120565,-10.91727 -0.895139,16.56234 -0.188984,2.28317 l 0.09845,-1.30443 z m 39.193161,7.01339 c -0.29304,0.4402 0.28774,2.25045 0,0 z m 1.53309,-0.10968 c -0.28265,0.51858 0.27175,2.47519 0,0 z m -2.10956,-0.44995 c -0.31735,0.28873 0.28322,1.48675 0,0 z m -3.05688,-1.32737 c -1.60159,1.19259 0.11519,3.32882 0,0 z m 2.48092,1.22438 c -0.32807,-0.38782 0.16522,1.26111 0,0 z m 1.34606,-1.70279 c -0.2827,0.51858 0.27175,2.4752 0,0 z m 1.53082,-0.22557 c -0.28271,0.51857 0.27174,2.4752 0,0 z m -2.11545,-0.1159 c -0.33496,0.22545 0.31062,1.2422 0,0 z m -0.57007,0.0141 c -0.32812,-0.38782 0.16524,1.2611 0,0 z m 1.34604,-1.92837 c -0.28265,0.51858 0.27175,2.4752 0,0 z m -2.43778,0.56084 c 0.14571,-2.75835 -0.84796,2.74123 0,0 z m 0.70904,-0.66263 c -0.32811,-0.38783 0.1652,1.26113 0,0 z m 0.57406,0 c -0.32811,-0.38783 0.1652,1.26113 0,0 z m 0.57405,0 c -0.32811,-0.38783 0.1652,1.26113 0,0 z m 0.77199,-2.15394 c -0.2827,0.51858 0.27174,2.47521 0,0 z m -1.2938,0.49833 c 1.13798,-2.64342 -1.92475,1.25915 0,0 z m 0.71314,-0.60012 c -0.32806,-0.38781 0.16522,1.26111 0,0 z m 0.93092,-3.28949 c -1.57233,1.31771 0.27269,3.57136 0,0 z m -40.339741,-3.71138 c -0.259233,0.83109 0.254765,3.97433 0,0 z m 0.191357,-10.15079 c -0.259206,0.83107 0.25469,3.97433 0,0 z m 0.191106,-10.60791 c -0.260081,0.84758 0.25903,4.25855 0,0 z m 22.335534,0.52909 c -1.148019,-1.05132 -1.702867,4.86829 0,0 z m 41.956454,-5.209734 c 0.004,-3.862674 0.003,-7.329139 -0.12357,-1.49339 -0.42835,3.500266 -0.0627,12.341354 0.11607,3.692644 l 0.006,-1.075273 0.002,-1.123981 z m -40.999724,3.357734 c -0.512215,-2.940624 2.984867,-10.545441 2.479903,-9.636018 0.928654,-2.407768 0.982964,0.883343 -0.41271,5.509773 4.888861,-6.660865 4.483741,-15.712849 7.041241,-23.820542 0.6,-2.647894 4.65735,-20.576937 3.33447,-15.237301 -1.88283,7.21976 -3.7913,17.355153 -5.54091,22.79558 0.66477,-6.678112 3.79059,-17.431244 5.38661,-25.62358 1.69522,-7.71651 3.55032,-15.385248 5.17858,-23.121208 -5.99326,22.209528 -12.13343,44.393526 -17.793697,66.713128 0.107839,-0.837529 -0.735655,5.976408 0.326513,2.420168 z m 2.223836,-9.128646 c 0.123067,-0.869379 0.194204,1.026765 0,0 z m 0.765411,-1.598159 c -1.013288,-3.231062 0.50444,0.594126 0,0 z m 0.574057,-0.883143 c 0.12303,-0.869364 0.19417,1.026733 0,0 z m -0.191357,-0.902294 c 0.12306,-0.869379 0.194197,1.026765 0,0 z m 0.382697,0 c 0.12307,-0.869371 0.1942,1.026757 0,0 z m 2.29623,-4.060338 c 0.12307,-0.869372 0.1942,1.026757 0,0 z m -0.19134,-0.902294 c 0.12304,-0.869364 0.19418,1.026733 0,0 z m 0.20315,-0.770709 c 0.22833,-3.796862 0.45013,0.425894 0,0 z m 0.56224,-0.808307 c 0.12308,-0.869372 0.19421,1.026765 0,0 z m -0.19133,-0.902294 c 0.12304,-0.869356 0.19418,1.026733 0,0 z m -7.071385,18.794015 c -0.636007,-0.583831 0.605083,1.230369 0,0 z m 2.062041,-1.579943 c 1.128363,-3.82554 -2.248516,3.752692 0,0 z m -0.04156,-1.785797 c -0.328065,-0.387825 0.16522,1.261104 0,0 z m 0.382714,-1.579016 c -0.328099,-0.387833 0.165206,1.261128 0,0 z M 73.38564,92.318957 c -0.266386,0.746452 0.264949,3.75685 0,0 z m 25.24972,1.029171 c -0.328106,-0.387816 0.16524,1.261105 0,0 z m 38.85105,-3.056229 c -0.28268,0.518554 0.27172,2.475196 0,0 z M 105.2486,84.818646 c 3.2769,-5.225766 6.98663,-13.430639 9.62588,-17.308804 -0.94008,-1.072017 1.07939,-0.556185 0.0398,-1.841138 -2.94936,5.6187 -6.26005,11.214341 -8.88859,17.236885 -2.30243,2.422171 -4.85366,9.770029 -1.29419,2.843286 l 0.51712,-0.930229 z m 32.03589,1.748191 c -0.33496,0.225436 0.31061,1.242186 0,0 z m -33.44887,-1.748191 c -0.61071,0.201258 -0.17377,2.017211 0,0 z M 73.574902,83.299128 c -0.282652,0.518578 0.271742,2.475196 0,0 z m 30.418328,0.574927 c -0.3281,-0.387825 0.16521,1.261128 0,0 z m 0.3827,-1.579009 c -0.32811,-0.387824 0.16524,1.261097 0,0 z m 0.41644,-1.536718 c -0.61067,0.201233 -0.17378,2.017219 0,0 z m 0.15762,-0.944592 c -0.32811,-0.387816 0.16524,1.261097 0,0 z M 73.755715,79.348494 c -0.3349,0.225443 0.310572,1.242194 0,0 z m 29.854835,0.01415 c -0.32806,-0.387824 0.16523,1.261105 0,0 z m 0.19136,-0.902298 c -0.32811,-0.387819 0.16524,1.261101 0,0 z m 1.53082,-0.225571 c -0.32807,-0.387822 0.16522,1.261108 0,0 z m -1.33946,-0.67672 c -0.3281,-0.387834 0.16521,1.261124 0,0 z m 1.53082,-0.225574 c -0.32811,-0.387822 0.16524,1.261101 0,0 z M 73.951058,76.881293 c -0.328106,-0.387826 0.165233,1.261096 0,0 z m 31.955732,-1.127868 c -0.32807,-0.387816 0.16522,1.261107 0,0 z m 0.38271,-1.579012 c -0.3281,-0.387835 0.1652,1.261125 0,0 z m 29.18554,-0.116201 c -0.80671,-1.226455 -0.27781,1.651494 0,0 z m -28.61149,-2.365106 c -0.3281,-0.387828 0.16521,1.261126 0,0 z M 75.390909,63.876789 c -0.754911,2.417817 0.300125,3.66723 0,0 z M 118.57439,46.471198 c 2.04926,-5.267417 3.11564,-12.765487 5.88642,-16.721428 -2.20557,9.962614 -5.83581,19.447359 -8.48573,29.270743 3.41648,-9.718156 6.50149,-19.594279 9.90137,-29.320539 0.74625,5.516544 -4.512,14.702094 -6.04229,21.602808 -2.71854,8.432197 2.80012,-7.196482 3.83898,-10.026249 0.64337,-3.40156 7.02912,-17.686025 3.77225,-7.212755 -1.30864,3.936603 -5.04951,15.192809 -4.82624,13.86021 2.9181,-5.675494 4.3583,-14.32051 8.13961,-18.304793 -0.90071,3.338174 -5.67659,14.93853 -1.82277,5.983102 3.4816,-5.17752 7.84488,-19.412701 -1.44259,-19.206694 -4.99952,1.690219 -12.30017,6.547284 -11.48382,13.381319 2.71351,-2.578971 -1.81135,11.912225 -2.5269,16.224259 -0.91112,3.79767 -3.17799,13.938108 -0.87813,4.62281 2.15428,-6.869138 3.05214,-16.100228 6.06808,-21.515851 -1.92677,11.187778 -5.2997,21.993365 -7.67193,33.071314 3.08849,-10.770758 5.52413,-21.802329 8.80879,-32.489637 0.66903,5.575329 -4.08004,16.759677 -5.45939,24.403316 -1.07708,4.054932 -3.2774,12.656153 -0.84256,3.999925 2.79988,-9.352975 5.14466,-18.910013 8.21571,-28.141411 0.93896,4.223115 -3.80178,14.645539 -5.03227,21.117253 -0.94259,3.289678 -5.31713,18.705067 -2.17799,8.623364 1.36328,-4.402966 2.71091,-8.812634 4.0614,-13.221066 z m -7.65871,16.241274 c -0.61065,0.201267 -0.17376,2.017205 0,0 z m 6.51777,-1.527579 c 2.32483,-6.446387 -2.90808,5.776349 0,0 z M 76.53368,56.960354 c 3.378164,-7.707876 2.868797,-15.597051 -0.857915,-22.947979 -1.319029,9.178373 -1.017982,18.654717 -0.308939,27.910589 0.515897,-1.604893 0.736985,-3.324328 1.166854,-4.96261 z m 60.5635,4.581955 c -0.3281,-0.387819 0.16524,1.261099 0,0 z m -62.380688,-1.57901 c -0.328099,-0.387835 0.165206,1.261123 0,0 z M 115.91191,59.44166 c -0.67056,0.306674 -0.1559,1.260039 0,0 z m 21.37851,-0.503247 c -0.31734,0.288758 0.28324,1.486768 0,0 z m -26.59979,-0.779702 c -0.32811,-0.38782 0.16524,1.261099 0,0 z M 74.521156,57.467894 c -0.334961,0.225435 0.310613,1.242186 0,0 z m 43.686974,-0.958688 c -0.67055,0.306677 -0.15589,1.260038 0,0 z m -6.9097,-0.563931 c -0.61071,0.201251 -0.17378,2.017215 0,0 z m -1.62349,-0.902294 c 0.40145,-2.735665 -1.0027,4.290338 0,0 z m 8.91592,0.33836 c -0.67056,0.306674 -0.1559,1.260039 0,0 z m 3.03567,-2.193811 c 2.59697,-7.025857 -2.98283,5.427584 0,0 z m -47.28812,0.448248 c -0.295331,0.409193 0.277993,1.978018 0,0 z m 35.5868,0.01146 c -0.32808,-0.387821 0.16522,1.261105 0,0 z m 0.41644,-1.53671 c -0.61067,0.201282 -0.17376,2.0172 0,0 z m 27.14734,-1.867785 c -0.20655,2.891024 0.17238,2.499911 0,0 z m -26.98972,0.923198 c -0.32808,-0.387821 0.16522,1.261106 0,0 z m 0.19136,-0.902294 c -0.32811,-0.387821 0.16524,1.261102 0,0 z m 12.92613,0.08048 c 1.31353,-1.434048 -1.35929,0.354916 0,0 z m -1.39793,-1.27884 c -0.83826,0.885147 -0.37115,1.650027 0,0 z m 3.76598,-3.270811 c 1.41059,-3.050882 8.06649,-18.360088 5.94986,-15.563765 -1.64459,4.060185 -9.64981,21.453474 -7.28705,18.272042 l 0.56553,-1.086682 z m -14.91148,2.890156 c -0.32808,-0.387815 0.16522,1.261108 0,0 z m 0.19136,-0.902291 c -0.32812,-0.387826 0.16524,1.261096 0,0 z M 80.195398,45.061366 c -0.890766,-0.527077 0.212389,1.994677 0,0 z M 74.755404,36.658764 C 74.6202,24.967087 73.885697,53.85907 74.55947,39.278936 l 0.100828,-1.468427 z m 3.99002,0.832822 c -1.827159,-3.809336 -1.714896,-10.421709 0.428452,-2.506075 0.983587,4.907021 2.97175,7.577671 1.090083,1.016244 -1.867009,-3.909082 -0.281933,-7.368359 0.72501,-1.54233 2.789492,10.711999 -1.270292,-11.529888 2.124419,0.2558 -0.06563,-5.314486 6.853148,-10.130389 4.960062,-17.733163 -5.953154,-6.206937 -11.589556,6.589555 -11.97684,12.916483 0.725933,4.59874 2.537999,9.276762 4.117874,13.634971 -0.188374,-2.099902 -0.954499,-4.040531 -1.46906,-6.04193 z m 2.408263,5.05431 c -0.554096,-1.51777 -0.658158,1.057726 0,0 z m 45.282583,-0.924522 c -0.67056,0.306677 -0.15589,1.260037 0,0 z M 82.010843,39.28575 c -0.826008,0.189704 0.415672,1.483041 0,0 z m 1.167648,-3.158025 c -0.880982,-0.03371 0.329062,1.161568 0,0 z M 114.70902,35.60139 c -0.32811,-0.387826 0.16524,1.261096 0,0 z M 84.276275,32.892674 c -0.912557,-0.262008 0.571779,1.852923 0,0 z m 31.006795,0.227408 c -0.3281,-0.38782 0.16525,1.261099 0,0 z M 74.521156,32.203691 c -0.334961,0.225437 0.310613,1.242191 0,0 z M 137.22093,28.51046 c -0.0538,-6.859122 -0.37691,-1.644229 -0.51513,2.372192 0.91639,4.897554 0.49304,-1.106577 0.51513,-2.372192 z m -62.311196,3.359164 c -0.317339,0.288738 0.283221,1.486758 0,0 z m 40.789786,-0.286258 c -0.61067,0.201227 -0.17379,2.017227 0,0 z m -39.98085,-0.03351 c -0.272278,-3.726361 -0.795125,1.687737 0,0 z m 40.13846,-0.91108 c -0.3281,-0.387822 0.16525,1.261101 0,0 z M 75.06064,25.267313 c 0.884054,-3.326105 -0.142607,-11.218149 -0.334337,-3.011095 -0.0177,3.775585 -0.120951,12.089954 0.334337,3.011095 z m 0.608623,3.552779 c -0.334961,0.225436 0.31062,1.242191 0,0 z m 0.191343,-1.127866 c -0.3349,0.225443 0.310566,1.242189 0,0 z m 39.439484,-0.8459 c 0.43857,-2.944473 -1.46511,2.962965 0,0 z M 76.881992,22.986577 c -1.731548,3.847651 -0.253165,4.958327 0,0 z m 56.579508,3.140734 c -0.32812,-0.387825 0.16523,1.261097 0,0 z m 0.67481,-3.065968 c -1.27092,1.717319 -0.25561,4.209547 0,0 z m -45.318037,-0.43709 c 1.235042,-4.517209 -1.520603,2.583769 -0.74047,1.633855 z M 137.29489,22.16568 c -0.2824,0.543061 0.2792,2.752919 0,0 z m -3.64204,-0.324261 c -0.3281,-0.387822 0.16524,1.261101 0,0 z M 81.187398,16.469956 c 0.978908,-1.613368 -1.427993,1.640492 0,0 z m 6.984324,-0.761887 c -0.646571,-0.915052 -0.904834,-0.623056 0,0 z m 39.749388,-0.05111 c -0.70443,-0.255838 -0.35154,0.39284 0,0 z M 85.349292,14.290408 c -1.053754,-0.366116 -0.191242,0.394797 0,0 z M 74.917233,9.4207959 c -0.260081,0.8475751 0.25903,4.2585471 0,0 z M 75.10859,-0.95557406 c -0.260142,0.847575 0.259097,4.25854896 0,0 z M 75.299933,-11.331944 c -0.260081,0.847576 0.25903,4.2585509 0,0 z"
       sodipodi:nodetypes="cccccccccccccccccccccccccccscccccccsscccccccccccccccccccccccccccccccccccccccccccccccccccccccccccccccccccccccccccccccccccccccccccccccccccccccccccccccccccccccccccccccccccccccccccccccccccccccccccccccccccccccccccccccccccccccccccccccccccccccccccccccccccccccccccccccccccccccccccccccccccccccccccccccccccccccccccccccccccccccccccccccccccscccccscccccccccccccccccccccccccccccccccccccccccccccccccccccccccccccccccccccccccccccccccccccccccccccccccccccccccccccccccccccccccccccccccccccccccccccccccccccccccccccccccccccccccccccccccccccccccccccccccc" />
    <path
       id="path583"
       d="M 74.294147,-11.890931 V -51.037819"
       style="fill:none;stroke:#000000;stroke-width:0.823854;stroke-linecap:butt;stroke-linejoin:miter;stroke-miterlimit:4;stroke-dasharray:none;stroke-opacity:1" />
    <path
       id="path585"
       d="M 137.48175,-11.276291 V -50.423168"
       style="fill:none;stroke:#000000;stroke-width:0.823854;stroke-linecap:butt;stroke-linejoin:miter;stroke-miterlimit:4;stroke-dasharray:none;stroke-opacity:1" />
    <text
       transform="scale(0.97131606,1.029531)"
       id="length"
       y="65.51088"
       x="24.433861"
       style="font-style:normal;font-variant:normal;font-weight:normal;font-stretch:normal;font-size:35.7707px;line-height:1.25;font-family:'URW Bookman L';-inkscape-font-specification:'URW Bookman L, Normal';font-variant-ligatures:normal;font-variant-caps:normal;font-variant-numeric:normal;font-feature-settings:normal;text-align:start;letter-spacing:0px;word-spacing:0px;writing-mode:lr-tb;text-anchor:start;fill:#000000;fill-opacity:1;stroke:none;stroke-width:3.35351"
       xml:space="preserve">L</text>
    <path
       id="path448"
       d="M 54.901487,-45.77197 V 168.85674"
       style="fill:none;stroke:#000000;stroke-width:1;stroke-linecap:butt;stroke-linejoin:miter;stroke-miterlimit:4;stroke-dasharray:none;stroke-opacity:1;marker-start:url(#Arrow2Lstart);marker-end:url(#Arrow2Lend)" />
    <path
       id="path450"
       d="m 48.948231,-49.12243 h 24.62222"
       style="fill:none;stroke:#000000;stroke-width:0.823854;stroke-linecap:butt;stroke-linejoin:miter;stroke-miterlimit:4;stroke-dasharray:none;stroke-opacity:1" />
    <path
       id="path452"
       d="m 50.796821,172.10308 h 24.62222"
       style="fill:none;stroke:#000000;stroke-width:0.823854;stroke-linecap:butt;stroke-linejoin:miter;stroke-miterlimit:4;stroke-dasharray:none;stroke-opacity:1" />
  </g>
</svg>
