<?xml version="1.0" encoding="UTF-8" standalone="no"?>
<svg
   id="svg8"
   version="1.1"
   viewBox="0 0 210 297.00001"
   height="297mm"
   width="210mm"
   sodipodi:docname="reamer.svg"
   inkscape:version="1.4 (e7c3feb100, 2024-10-09)"
   xml:space="preserve"
   xmlns:inkscape="http://www.inkscape.org/namespaces/inkscape"
   xmlns:sodipodi="http://sodipodi.sourceforge.net/DTD/sodipodi-0.dtd"
   xmlns:xlink="http://www.w3.org/1999/xlink"
   xmlns="http://www.w3.org/2000/svg"
   xmlns:svg="http://www.w3.org/2000/svg"
   xmlns:rdf="http://www.w3.org/1999/02/22-rdf-syntax-ns#"
   xmlns:cc="http://creativecommons.org/ns#"
   xmlns:dc="http://purl.org/dc/elements/1.1/"><sodipodi:namedview
     pagecolor="#ffffff"
     bordercolor="#666666"
     borderopacity="1"
     objecttolerance="10"
     gridtolerance="10"
     guidetolerance="10"
     inkscape:pageopacity="0"
     inkscape:pageshadow="2"
     inkscape:window-width="2166"
     inkscape:window-height="1490"
     id="namedview71"
     showgrid="false"
     inkscape:zoom="0.51969075"
     inkscape:cx="28.863319"
     inkscape:cy="646.53835"
     inkscape:window-x="1674"
     inkscape:window-y="259"
     inkscape:window-maximized="0"
     inkscape:current-layer="g40"
     inkscape:document-rotation="0"
     inkscape:showpageshadow="2"
     inkscape:pagecheckerboard="0"
     inkscape:deskcolor="#d1d1d1"
     inkscape:document-units="mm" /><defs
     id="defs2"><linearGradient
       id="linearGradient38"
       inkscape:collect="always"><stop
         style="stop-color:#d6d6d6;stop-opacity:1;"
         offset="0"
         id="stop39" /><stop
         style="stop-color:#d6d6d6;stop-opacity:0;"
         offset="1"
         id="stop40" /></linearGradient><linearGradient
       id="linearGradient35"
       inkscape:collect="always"><stop
         style="stop-color:#686868;stop-opacity:1;"
         offset="0"
         id="stop35" /><stop
         style="stop-color:#7d7d7d;stop-opacity:1;"
         offset="0.76353073"
         id="stop38" /><stop
         style="stop-color:#909090;stop-opacity:1;"
         offset="0.90878952"
         id="stop37" /><stop
         style="stop-color:#979797;stop-opacity:1;"
         offset="1"
         id="stop36" /></linearGradient><linearGradient
       id="linearGradient33"
       inkscape:collect="always"><stop
         style="stop-color:#e4e4e4;stop-opacity:1;"
         offset="0"
         id="stop33" /><stop
         style="stop-color:#a4a4a4;stop-opacity:1;"
         offset="1"
         id="stop34" /></linearGradient><linearGradient
       id="linearGradient31"
       inkscape:collect="always"><stop
         style="stop-color:#ffffff;stop-opacity:1;"
         offset="0"
         id="stop31" /><stop
         style="stop-color:#cecece;stop-opacity:1;"
         offset="1"
         id="stop32" /></linearGradient><linearGradient
       id="linearGradient29"
       inkscape:collect="always"><stop
         style="stop-color:#4a4a4a;stop-opacity:1;"
         offset="0"
         id="stop29" /><stop
         style="stop-color:#9d9d9d;stop-opacity:1;"
         offset="1"
         id="stop30" /></linearGradient><linearGradient
       id="linearGradient27"
       inkscape:collect="always"><stop
         style="stop-color:#c9c9c9;stop-opacity:1;"
         offset="0"
         id="stop27" /><stop
         style="stop-color:#6f6f6f;stop-opacity:1;"
         offset="1"
         id="stop28" /></linearGradient><linearGradient
       id="linearGradient24"
       inkscape:collect="always"><stop
         style="stop-color:#232323;stop-opacity:1;"
         offset="0"
         id="stop25" /><stop
         style="stop-color:#ededed;stop-opacity:1;"
         offset="1"
         id="stop26" /></linearGradient><linearGradient
       id="linearGradient20"
       inkscape:collect="always"><stop
         style="stop-color:#545454;stop-opacity:1;"
         offset="0"
         id="stop21" /><stop
         style="stop-color:#919191;stop-opacity:1;"
         offset="0.88995075"
         id="stop24" /><stop
         style="stop-color:#bebebe;stop-opacity:1;"
         offset="0.9470486"
         id="stop23" /><stop
         style="stop-color:#676767;stop-opacity:1;"
         offset="1"
         id="stop22" /></linearGradient><linearGradient
       id="linearGradient16"
       inkscape:collect="always"><stop
         style="stop-color:#6c6c6c;stop-opacity:1;"
         offset="0"
         id="stop17" /><stop
         style="stop-color:#737373;stop-opacity:1;"
         offset="0.60383546"
         id="stop20" /><stop
         style="stop-color:#afafaf;stop-opacity:1;"
         offset="0.94051778"
         id="stop19" /><stop
         style="stop-color:#929292;stop-opacity:1;"
         offset="1"
         id="stop18" /></linearGradient><linearGradient
       id="linearGradient13"
       inkscape:collect="always"><stop
         style="stop-color:#585858;stop-opacity:1;"
         offset="0"
         id="stop13" /><stop
         style="stop-color:#bebebe;stop-opacity:1;"
         offset="0.69244355"
         id="stop16" /><stop
         style="stop-color:#ffffff;stop-opacity:1;"
         offset="0.95509887"
         id="stop15" /><stop
         style="stop-color:#a6a6a6;stop-opacity:1;"
         offset="1"
         id="stop14" /></linearGradient><linearGradient
       id="linearGradient11"
       inkscape:collect="always"><stop
         style="stop-color:#c2c2c2;stop-opacity:1;"
         offset="0"
         id="stop11" /><stop
         style="stop-color:#a1a1a1;stop-opacity:1;"
         offset="1"
         id="stop12" /></linearGradient><marker
       style="overflow:visible"
       id="marker1185"
       refX="0"
       refY="0"
       orient="auto"><path
         transform="matrix(-1.1,0,0,-1.1,-1.1,0)"
         d="M 8.7185878,4.0337352 -2.2072895,0.01601326 8.7185884,-4.0017078 c -1.7454984,2.3720609 -1.7354408,5.6174519 -6e-7,8.035443 z"
         style="fill:#000000;fill-opacity:1;fill-rule:evenodd;stroke:#000000;stroke-width:0.625;stroke-linejoin:round;stroke-opacity:1"
         id="path1183" /></marker><marker
       style="overflow:visible"
       id="marker1181"
       refX="0"
       refY="0"
       orient="auto"><path
         transform="matrix(1.1,0,0,1.1,1.1,0)"
         d="M 8.7185878,4.0337352 -2.2072895,0.01601326 8.7185884,-4.0017078 c -1.7454984,2.3720609 -1.7354408,5.6174519 -6e-7,8.035443 z"
         style="fill:#000000;fill-opacity:1;fill-rule:evenodd;stroke:#000000;stroke-width:0.625;stroke-linejoin:round;stroke-opacity:1"
         id="path1179" /></marker><marker
       style="overflow:visible"
       id="marker1177"
       refX="0"
       refY="0"
       orient="auto"><path
         transform="matrix(-1.1,0,0,-1.1,-1.1,0)"
         d="M 8.7185878,4.0337352 -2.2072895,0.01601326 8.7185884,-4.0017078 c -1.7454984,2.3720609 -1.7354408,5.6174519 -6e-7,8.035443 z"
         style="fill:#000000;fill-opacity:1;fill-rule:evenodd;stroke:#000000;stroke-width:0.625;stroke-linejoin:round;stroke-opacity:1"
         id="path1175" /></marker><marker
       style="overflow:visible"
       id="marker1173"
       refX="0"
       refY="0"
       orient="auto"><path
         transform="matrix(1.1,0,0,1.1,1.1,0)"
         d="M 8.7185878,4.0337352 -2.2072895,0.01601326 8.7185884,-4.0017078 c -1.7454984,2.3720609 -1.7354408,5.6174519 -6e-7,8.035443 z"
         style="fill:#000000;fill-opacity:1;fill-rule:evenodd;stroke:#000000;stroke-width:0.625;stroke-linejoin:round;stroke-opacity:1"
         id="path1171" /></marker><marker
       style="overflow:visible"
       id="Arrow2Lend"
       refX="0"
       refY="0"
       orient="auto"><path
         transform="matrix(-1.1,0,0,-1.1,-1.1,0)"
         d="M 8.7185878,4.0337352 -2.2072895,0.01601326 8.7185884,-4.0017078 c -1.7454984,2.3720609 -1.7354408,5.6174519 -6e-7,8.035443 z"
         style="fill:#000000;fill-opacity:1;fill-rule:evenodd;stroke:#000000;stroke-width:0.625;stroke-linejoin:round;stroke-opacity:1"
         id="path920" /></marker><marker
       style="overflow:visible"
       id="Arrow2Lstart"
       refX="0"
       refY="0"
       orient="auto"><path
         transform="matrix(1.1,0,0,1.1,1.1,0)"
         d="M 8.7185878,4.0337352 -2.2072895,0.01601326 8.7185884,-4.0017078 c -1.7454984,2.3720609 -1.7354408,5.6174519 -6e-7,8.035443 z"
         style="fill:#000000;fill-opacity:1;fill-rule:evenodd;stroke:#000000;stroke-width:0.625;stroke-linejoin:round;stroke-opacity:1"
         id="path917" /></marker><marker
       style="overflow:visible"
       id="Arrow1Lstart"
       refX="0"
       refY="0"
       orient="auto"><path
         transform="matrix(0.8,0,0,0.8,10,0)"
         style="fill:#000000;fill-opacity:1;fill-rule:evenodd;stroke:#000000;stroke-width:1.00000003pt;stroke-opacity:1"
         d="M 0,0 5,-5 -12.5,0 5,5 Z"
         id="path899" /></marker><marker
       style="overflow:visible"
       id="Arrow2Mstart"
       refX="0"
       refY="0"
       orient="auto"><path
         transform="scale(0.6)"
         d="M 8.7185878,4.0337352 -2.2072895,0.01601326 8.7185884,-4.0017078 c -1.7454984,2.3720609 -1.7354408,5.6174519 -6e-7,8.035443 z"
         style="fill:#000000;fill-opacity:1;fill-rule:evenodd;stroke:#000000;stroke-width:0.625;stroke-linejoin:round;stroke-opacity:1"
         id="path923" /></marker><marker
       style="overflow:visible"
       id="Arrow1Mend"
       refX="0"
       refY="0"
       orient="auto"><path
         transform="matrix(-0.4,0,0,-0.4,-4,0)"
         style="fill:#000000;fill-opacity:1;fill-rule:evenodd;stroke:#000000;stroke-width:1.00000003pt;stroke-opacity:1"
         d="M 0,0 5,-5 -12.5,0 5,5 Z"
         id="path908" /></marker><marker
       style="overflow:visible"
       id="marker7497"
       refX="0"
       refY="0"
       orient="auto"><path
         transform="scale(-0.6)"
         d="M 8.7185878,4.0337352 -2.2072895,0.01601326 8.7185884,-4.0017078 c -1.7454984,2.3720609 -1.7354408,5.6174519 -6e-7,8.035443 z"
         style="fill:#000025;fill-opacity:1;fill-rule:evenodd;stroke:#000025;stroke-width:0.625;stroke-linejoin:round;stroke-opacity:1"
         id="path7495" /></marker><marker
       style="overflow:visible"
       id="marker7379"
       refX="0"
       refY="0"
       orient="auto"><path
         transform="matrix(0.4,0,0,0.4,4,0)"
         style="fill:#000025;fill-opacity:1;fill-rule:evenodd;stroke:#000025;stroke-width:1.00000003pt;stroke-opacity:1"
         d="M 0,0 5,-5 -12.5,0 5,5 Z"
         id="path7377" /></marker><marker
       orient="auto"
       refY="0"
       refX="0"
       id="marker5480"
       style="overflow:visible"><path
         id="path5478"
         style="fill:#000000;fill-opacity:1;fill-rule:evenodd;stroke:#000000;stroke-width:0.625;stroke-linejoin:round;stroke-opacity:1"
         d="M 8.7185878,4.0337352 -2.2072895,0.01601326 8.7185884,-4.0017078 c -1.7454984,2.3720609 -1.7354408,5.6174519 -6e-7,8.035443 z"
         transform="scale(-0.6)" /></marker><marker
       orient="auto"
       refY="0"
       refX="0"
       id="marker5470"
       style="overflow:visible"><path
         id="path5468"
         style="fill:#000000;fill-opacity:1;fill-rule:evenodd;stroke:#000000;stroke-width:0.625;stroke-linejoin:round;stroke-opacity:1"
         d="M 8.7185878,4.0337352 -2.2072895,0.01601326 8.7185884,-4.0017078 c -1.7454984,2.3720609 -1.7354408,5.6174519 -6e-7,8.035443 z"
         transform="scale(-0.6)" /></marker><marker
       orient="auto"
       refY="0"
       refX="0"
       id="marker5220"
       style="overflow:visible"><path
         id="path5218"
         d="M 0,0 5,-5 -12.5,0 5,5 Z"
         style="fill:#000000;fill-opacity:1;fill-rule:evenodd;stroke:#000000;stroke-width:1.00000003pt;stroke-opacity:1"
         transform="matrix(0.4,0,0,0.4,4,0)" /></marker><marker
       orient="auto"
       refY="0"
       refX="0"
       id="marker5210"
       style="overflow:visible"><path
         id="path5208"
         d="M 0,0 5,-5 -12.5,0 5,5 Z"
         style="fill:#000000;fill-opacity:1;fill-rule:evenodd;stroke:#000000;stroke-width:1.00000003pt;stroke-opacity:1"
         transform="matrix(0.4,0,0,0.4,4,0)" /></marker><marker
       orient="auto"
       refY="0"
       refX="0"
       id="marker5072"
       style="overflow:visible"><path
         id="path5070"
         d="M 0,0 5,-5 -12.5,0 5,5 Z"
         style="fill:#000000;fill-opacity:1;fill-rule:evenodd;stroke:#000000;stroke-width:1.00000003pt;stroke-opacity:1"
         transform="matrix(-0.8,0,0,-0.8,-10,0)" /></marker><marker
       orient="auto"
       refY="0"
       refX="0"
       id="marker5014"
       style="overflow:visible"><path
         id="path5012"
         d="M 0,0 5,-5 -12.5,0 5,5 Z"
         style="fill:#000000;fill-opacity:1;fill-rule:evenodd;stroke:#000000;stroke-width:1.00000003pt;stroke-opacity:1"
         transform="matrix(-0.8,0,0,-0.8,-10,0)" /></marker><marker
       orient="auto"
       refY="0"
       refX="0"
       id="marker4968"
       style="overflow:visible"><path
         id="path4966"
         d="M 0,0 5,-5 -12.5,0 5,5 Z"
         style="fill:#000000;fill-opacity:1;fill-rule:evenodd;stroke:#000000;stroke-width:1.00000003pt;stroke-opacity:1"
         transform="matrix(-0.8,0,0,-0.8,-10,0)" /></marker><marker
       orient="auto"
       refY="0"
       refX="0"
       id="marker4884"
       style="overflow:visible"><path
         id="path4882"
         d="M 0,0 5,-5 -12.5,0 5,5 Z"
         style="fill:#000000;fill-opacity:1;fill-rule:evenodd;stroke:#000000;stroke-width:1.00000003pt;stroke-opacity:1"
         transform="matrix(0.8,0,0,0.8,10,0)" /></marker><marker
       orient="auto"
       refY="0"
       refX="0"
       id="marker4856"
       style="overflow:visible"><path
         id="path4854"
         d="M 0,0 5,-5 -12.5,0 5,5 Z"
         style="fill:#000000;fill-opacity:1;fill-rule:evenodd;stroke:#000000;stroke-width:1.00000003pt;stroke-opacity:1"
         transform="matrix(0.8,0,0,0.8,10,0)" /></marker><marker
       orient="auto"
       refY="0"
       refX="0"
       id="marker4834"
       style="overflow:visible"><path
         id="path4832"
         d="M 0,0 5,-5 -12.5,0 5,5 Z"
         style="fill:#000000;fill-opacity:1;fill-rule:evenodd;stroke:#000000;stroke-width:1.00000003pt;stroke-opacity:1"
         transform="matrix(0.8,0,0,0.8,10,0)" /></marker><marker
       orient="auto"
       refY="0"
       refX="0"
       id="marker5220-5"
       style="overflow:visible"><path
         id="path5218-3"
         d="M 0,0 5,-5 -12.5,0 5,5 Z"
         style="fill:#000000;fill-opacity:1;fill-rule:evenodd;stroke:#000000;stroke-width:1.00000003pt;stroke-opacity:1"
         transform="matrix(0.4,0,0,0.4,4,0)" /></marker><marker
       orient="auto"
       refY="0"
       refX="0"
       id="marker5480-5"
       style="overflow:visible"><path
         id="path5478-7"
         style="fill:#000000;fill-opacity:1;fill-rule:evenodd;stroke:#000000;stroke-width:0.625;stroke-linejoin:round;stroke-opacity:1"
         d="M 8.7185878,4.0337352 -2.2072895,0.01601326 8.7185884,-4.0017078 c -1.7454984,2.3720609 -1.7354408,5.6174519 -6e-7,8.035443 z"
         transform="scale(-0.6)" /></marker><marker
       style="overflow:visible"
       id="marker1181-3"
       refX="0"
       refY="0"
       orient="auto"><path
         transform="matrix(1.1,0,0,1.1,1.1,0)"
         d="M 8.7185878,4.0337352 -2.2072895,0.01601326 8.7185884,-4.0017078 c -1.7454984,2.3720609 -1.7354408,5.6174519 -6e-7,8.035443 z"
         style="fill:#000000;fill-opacity:1;fill-rule:evenodd;stroke:#000000;stroke-width:0.625;stroke-linejoin:round;stroke-opacity:1"
         id="path1179-6" /></marker><marker
       style="overflow:visible"
       id="marker1185-7"
       refX="0"
       refY="0"
       orient="auto"><path
         transform="matrix(-1.1,0,0,-1.1,-1.1,0)"
         d="M 8.7185878,4.0337352 -2.2072895,0.01601326 8.7185884,-4.0017078 c -1.7454984,2.3720609 -1.7354408,5.6174519 -6e-7,8.035443 z"
         style="fill:#000000;fill-opacity:1;fill-rule:evenodd;stroke:#000000;stroke-width:0.625;stroke-linejoin:round;stroke-opacity:1"
         id="path1183-5" /></marker><marker
       style="overflow:visible"
       id="Arrow2Lstart-3"
       refX="0"
       refY="0"
       orient="auto"><path
         transform="matrix(1.1,0,0,1.1,1.1,0)"
         d="M 8.7185878,4.0337352 -2.2072895,0.01601326 8.7185884,-4.0017078 c -1.7454984,2.3720609 -1.7354408,5.6174519 -6e-7,8.035443 z"
         style="fill:#000000;fill-opacity:1;fill-rule:evenodd;stroke:#000000;stroke-width:0.625;stroke-linejoin:round;stroke-opacity:1"
         id="path917-5" /></marker><marker
       style="overflow:visible"
       id="Arrow2Lend-6"
       refX="0"
       refY="0"
       orient="auto"><path
         transform="matrix(-1.1,0,0,-1.1,-1.1,0)"
         d="M 8.7185878,4.0337352 -2.2072895,0.01601326 8.7185884,-4.0017078 c -1.7454984,2.3720609 -1.7354408,5.6174519 -6e-7,8.035443 z"
         style="fill:#000000;fill-opacity:1;fill-rule:evenodd;stroke:#000000;stroke-width:0.625;stroke-linejoin:round;stroke-opacity:1"
         id="path920-2" /></marker><linearGradient
       inkscape:collect="always"
       xlink:href="#linearGradient11"
       id="linearGradient12"
       x1="66.444857"
       y1="74.626402"
       x2="83.500565"
       y2="74.626402"
       gradientUnits="userSpaceOnUse" /><linearGradient
       inkscape:collect="always"
       xlink:href="#linearGradient13"
       id="linearGradient14"
       x1="67.058281"
       y1="-20.541794"
       x2="85.09156"
       y2="158.4128"
       gradientUnits="userSpaceOnUse" /><linearGradient
       inkscape:collect="always"
       xlink:href="#linearGradient16"
       id="linearGradient18"
       x1="74.591019"
       y1="-28.087925"
       x2="99.79232"
       y2="160.79443"
       gradientUnits="userSpaceOnUse" /><linearGradient
       inkscape:collect="always"
       xlink:href="#linearGradient20"
       id="linearGradient22"
       x1="87.064384"
       y1="-29.506783"
       x2="115.74937"
       y2="164.21219"
       gradientUnits="userSpaceOnUse" /><linearGradient
       inkscape:collect="always"
       xlink:href="#linearGradient24"
       id="linearGradient26"
       x1="104.62892"
       y1="157.63483"
       x2="112.23611"
       y2="157.1257"
       gradientUnits="userSpaceOnUse" /><linearGradient
       inkscape:collect="always"
       xlink:href="#linearGradient27"
       id="linearGradient28"
       x1="90.373643"
       y1="66.194155"
       x2="127.0937"
       y2="66.194155"
       gradientUnits="userSpaceOnUse" /><linearGradient
       inkscape:collect="always"
       xlink:href="#linearGradient29"
       id="linearGradient30"
       x1="117.35683"
       y1="67.530586"
       x2="130.53024"
       y2="66.25779"
       gradientUnits="userSpaceOnUse" /><linearGradient
       inkscape:collect="always"
       xlink:href="#linearGradient31"
       id="linearGradient32"
       x1="125.64605"
       y1="66.448715"
       x2="136.95784"
       y2="65.430481"
       gradientUnits="userSpaceOnUse" /><linearGradient
       inkscape:collect="always"
       xlink:href="#linearGradient33"
       id="linearGradient34"
       x1="122.95712"
       y1="33.515216"
       x2="137.2124"
       y2="33.515216"
       gradientUnits="userSpaceOnUse" /><linearGradient
       inkscape:collect="always"
       xlink:href="#linearGradient35"
       id="linearGradient36"
       x1="132.63036"
       y1="5.0046735"
       x2="142.28397"
       y2="152.64857"
       gradientUnits="userSpaceOnUse" /><linearGradient
       inkscape:collect="always"
       xlink:href="#linearGradient38"
       id="linearGradient40"
       x1="141.85458"
       y1="-4.1594329"
       x2="145.86738"
       y2="-2.6320825"
       gradientUnits="userSpaceOnUse" /><filter
       style="color-interpolation-filters:sRGB;"
       inkscape:label="Lightness-Contrast"
       id="filter1"
       x="0"
       y="0"
       width="1"
       height="1"><feColorMatrix
         values="0.836573 0 0 0.117315 0.0817135 0 0.836573 0 0.117315 0.0817135 0 0 0.836573 0.117315 0.0817135 0 0 0 1 0"
         id="feColorMatrix1" /></filter></defs><metadata
     id="metadata5"><rdf:RDF><cc:Work
         rdf:about=""><dc:format>image/svg+xml</dc:format><dc:type
           rdf:resource="http://purl.org/dc/dcmitype/StillImage" /><dc:title /></cc:Work></rdf:RDF></metadata><g
     transform="translate(-5.0965655,82.181594)"
     id="layer1"><text
       xml:space="preserve"
       style="font-style:normal;font-variant:normal;font-weight:normal;font-stretch:normal;font-size:35.2778px;line-height:1.25;font-family:'URW Bookman L';-inkscape-font-specification:'URW Bookman L, Normal';font-variant-ligatures:normal;font-variant-caps:normal;font-variant-numeric:normal;font-variant-east-asian:normal;letter-spacing:0px;word-spacing:0px;stroke-width:1.18572"
       x="91.9468"
       y="209.41005"
       id="diameter"
       transform="scale(1.0169499,0.98333262)"><tspan
         sodipodi:role="line"
         id="tspan14"
         x="91.9468"
         y="209.41005"
         style="font-style:normal;font-variant:normal;font-weight:normal;font-stretch:normal;font-size:35.2778px;font-family:'URW Bookman L';-inkscape-font-specification:'URW Bookman L, Normal';font-variant-ligatures:normal;font-variant-caps:normal;font-variant-numeric:normal;font-variant-east-asian:normal;stroke-width:1.18572">D</tspan></text><text
       xml:space="preserve"
       style="font-style:normal;font-variant:normal;font-weight:normal;font-stretch:normal;font-size:35.2778px;line-height:1.25;font-family:'URW Bookman L';-inkscape-font-specification:'URW Bookman L, Normal';font-variant-ligatures:normal;font-variant-caps:normal;font-variant-numeric:normal;font-variant-east-asian:normal;letter-spacing:0px;word-spacing:0px;stroke-width:1.20955"
       x="175.11391"
       y="70.791611"
       id="cutting_edge_height"
       transform="scale(0.9835924,1.0166813)"><tspan
         sodipodi:role="line"
         id="tspan18"
         x="175.11391"
         y="70.791611"
         style="font-style:normal;font-variant:normal;font-weight:normal;font-stretch:normal;font-size:35.2778px;font-family:'URW Bookman L';-inkscape-font-specification:'URW Bookman L, Normal';font-variant-ligatures:normal;font-variant-caps:normal;font-variant-numeric:normal;font-variant-east-asian:normal;stroke-width:1.20955">H</tspan></text><path
       id="path4542"
       d="m 66.55728,173.49778 h 79.31396"
       style="fill:none;stroke:#000000;stroke-width:0.849025;stroke-linecap:butt;stroke-linejoin:miter;stroke-miterlimit:4;stroke-dasharray:none;stroke-opacity:1;marker-start:url(#marker1181-3);marker-end:url(#marker1185-7)" /><path
       id="path4538"
       d="M 148.17126,181.21137 V 142.4916"
       style="fill:none;stroke:#000000;stroke-width:0.838537;stroke-linecap:butt;stroke-linejoin:miter;stroke-miterlimit:4;stroke-dasharray:none;stroke-opacity:1" /><path
       id="path4538-1"
       d="M 64.832629,180.07843 V 141.35867"
       style="fill:none;stroke:#000000;stroke-width:0.838537;stroke-linecap:butt;stroke-linejoin:miter;stroke-miterlimit:4;stroke-dasharray:none;stroke-opacity:1" /><path
       id="path1187"
       d="M 147.50451,-40.728779 H 173.2932"
       style="fill:none;stroke:#000000;stroke-width:0.838537;stroke-linecap:butt;stroke-linejoin:miter;stroke-miterlimit:4;stroke-dasharray:none;stroke-opacity:1" /><path
       id="path1187-4"
       d="m 145.1128,162.56265 h 25.78874"
       style="fill:none;stroke:#000000;stroke-width:0.838537;stroke-linecap:butt;stroke-linejoin:miter;stroke-miterlimit:4;stroke-dasharray:none;stroke-opacity:1" /><path
       id="path897"
       d="M 163.08122,-36.196886 V 158.31269"
       style="fill:none;stroke:#000000;stroke-width:1.32896;stroke-linecap:butt;stroke-linejoin:miter;stroke-miterlimit:4;stroke-dasharray:none;stroke-opacity:1;marker-start:url(#Arrow2Lstart-3);marker-end:url(#Arrow2Lend-6)" /><g
       id="g40"
       transform="matrix(1,0,0,1.0521129,0,-8.5565929)"><path
         style="fill:url(#linearGradient14);fill-opacity:1;stroke-width:1"
         d="m 80.317221,152.49482 c 0.320947,4.77443 2.625405,7.19127 3.215163,8.04506 1.179515,1.70759 3.43654,3.02288 3.43654,3.02288 l 10.086879,0.15909 c 0,0 -3.779112,-2.11415 -4.613872,-2.89559 -0.83476,-0.78144 -5.348398,-8.97697 -6.395781,-11.58241 C 84.998767,146.63841 67.567399,-31.196595 67.567399,-31.196595 v 15.39 c 0,0 12.428875,163.526985 12.749822,168.301415 z"
         id="path1"
         sodipodi:nodetypes="zscczzccz" /><path
         style="fill:url(#linearGradient32);stroke-width:1"
         d="m 117.6074,-30.76079 18.95083,180.84283 c 0,0 0.13719,5.99365 -0.49135,7.97589 -0.62853,1.98224 -2.75966,3.99838 -2.75966,3.99838 0,0 3.45037,-1.4126 4.94525,-3.17106 1.49488,-1.75846 3.4147,-7.50948 3.4147,-7.50948 L 123.23173,-30.76079 Z"
         id="path3"
         sodipodi:nodetypes="cczczccc" /><path
         style="fill:url(#linearGradient30);stroke-width:1"
         d="m 126.64822,161.49448 7.70039,0.25455 c 0,0 1.52319,-1.78675 2.09559,-3.6911 0.5724,-1.90435 0.30267,-7.44583 0.30267,-7.44583 L 117.6114,-30.76079 h -5.60029 z"
         id="path4"
         sodipodi:nodetypes="cczcccc" /><path
         style="fill:url(#linearGradient26);fill-opacity:1;stroke-width:1"
         d="m 107.46181,163.51203 4.7743,-0.85341 -10.66189,-73.013267 z"
         id="path5"
         sodipodi:nodetypes="cccc" /><path
         style="fill:url(#linearGradient18);stroke-width:1"
         d="m 107.42906,163.4673 -10.691457,0.50912 c 0,0 -4.588878,-2.97465 -5.906901,-4.82117 -1.318023,-1.84652 -5.079703,-8.41435 -5.548229,-10.45234 -0.468526,-2.03799 -18.073648,-179.4637 -18.073648,-179.4637 H 85.282473 L 102.08333,92.445497 Z"
         id="path6"
         sodipodi:nodetypes="cczzcccc" /><path
         style="fill:url(#linearGradient28);stroke-width:1"
         d="m 90.373643,-30.76079 h 21.637467 l 15.08259,192.6371 -4.70934,1.27279 c 0,0 -2.2542,-1.46274 -3.43654,-3.62745 -1.18234,-2.16471 -2.60922,-8.78227 -2.60922,-8.78227 z"
         id="path7"
         sodipodi:nodetypes="cccczcc" /><path
         style="fill:url(#linearGradient34);stroke-width:1"
         d="m 122.95712,-30.76079 h 8.65499 l 5.09117,131.73399 z"
         id="path8"
         sodipodi:nodetypes="cccc" /><path
         style="fill:url(#linearGradient36);stroke-width:1"
         d="M 130.59388,-30.76079 H 141.58 l 4.03282,57.530209 0.99818,117.351441 c 0.0239,2.81179 -0.88347,5.04806 -2.36643,7.92313 -1.48296,2.87507 -4.74115,3.78656 -4.74115,3.78656 z"
         id="path9"
         sodipodi:nodetypes="cccszcc" /><path
         style="fill:url(#linearGradient40);stroke-width:1"
         d="m 141.34548,-30.76079 h 3.77828 l 0.74362,56.257415 z"
         id="path10"
         sodipodi:nodetypes="cccc" /><path
         style="fill:url(#linearGradient12);stroke-width:1"
         d="m 83.373286,160.34896 c 0,0 -8.659065,0.61388 -12.493878,-3.45385 -3.834813,-4.06773 -4.450091,-7.56788 -4.434258,-11.75602 0.219392,-58.032586 1.52735,-157.062555 1.52735,-157.062555 z"
         id="path11"
         sodipodi:nodetypes="czscc" /><path
         style="fill:url(#linearGradient22);stroke-width:1"
         d="m 85.262426,-30.76079 24.966774,183.79119 1.74236,7.923 0.49501,3.24 10.10815,-1.04365 c 0,0 -2.03656,-1.58411 -3.20771,-3.57591 -1.17115,-1.9918 -2.40045,-8.07044 -2.40045,-8.07044 L 90.416564,-30.76079 Z"
         id="path2"
         sodipodi:nodetypes="ccccczccc" /></g></g></svg>
