<?xml version="1.0" encoding="UTF-8" standalone="no"?>
<svg
   id="svg8"
   version="1.1"
   viewBox="0 0 210 297.00001"
   height="297mm"
   width="210mm"
   sodipodi:docname="reamer.svg"
   inkscape:version="1.2.2 (b0a8486541, 2022-12-01)"
   xmlns:inkscape="http://www.inkscape.org/namespaces/inkscape"
   xmlns:sodipodi="http://sodipodi.sourceforge.net/DTD/sodipodi-0.dtd"
   xmlns="http://www.w3.org/2000/svg"
   xmlns:svg="http://www.w3.org/2000/svg"
   xmlns:rdf="http://www.w3.org/1999/02/22-rdf-syntax-ns#"
   xmlns:cc="http://creativecommons.org/ns#"
   xmlns:dc="http://purl.org/dc/elements/1.1/">
  <sodipodi:namedview
     pagecolor="#ffffff"
     bordercolor="#666666"
     borderopacity="1"
     objecttolerance="10"
     gridtolerance="10"
     guidetolerance="10"
     inkscape:pageopacity="0"
     inkscape:pageshadow="2"
     inkscape:window-width="2166"
     inkscape:window-height="1490"
     id="namedview71"
     showgrid="false"
     inkscape:zoom="0.7349537"
     inkscape:cx="510.23622"
     inkscape:cy="561.25985"
     inkscape:window-x="2361"
     inkscape:window-y="259"
     inkscape:window-maximized="0"
     inkscape:current-layer="layer1"
     inkscape:document-rotation="0"
     inkscape:showpageshadow="2"
     inkscape:pagecheckerboard="0"
     inkscape:deskcolor="#d1d1d1"
     inkscape:document-units="mm" />
  <defs
     id="defs2">
    <marker
       style="overflow:visible"
       id="marker1185"
       refX="0"
       refY="0"
       orient="auto">
      <path
         transform="matrix(-1.1,0,0,-1.1,-1.1,0)"
         d="M 8.7185878,4.0337352 -2.2072895,0.01601326 8.7185884,-4.0017078 c -1.7454984,2.3720609 -1.7354408,5.6174519 -6e-7,8.035443 z"
         style="fill:#000000;fill-opacity:1;fill-rule:evenodd;stroke:#000000;stroke-width:0.625;stroke-linejoin:round;stroke-opacity:1"
         id="path1183" />
    </marker>
    <marker
       style="overflow:visible"
       id="marker1181"
       refX="0"
       refY="0"
       orient="auto">
      <path
         transform="matrix(1.1,0,0,1.1,1.1,0)"
         d="M 8.7185878,4.0337352 -2.2072895,0.01601326 8.7185884,-4.0017078 c -1.7454984,2.3720609 -1.7354408,5.6174519 -6e-7,8.035443 z"
         style="fill:#000000;fill-opacity:1;fill-rule:evenodd;stroke:#000000;stroke-width:0.625;stroke-linejoin:round;stroke-opacity:1"
         id="path1179" />
    </marker>
    <marker
       style="overflow:visible"
       id="marker1177"
       refX="0"
       refY="0"
       orient="auto">
      <path
         transform="matrix(-1.1,0,0,-1.1,-1.1,0)"
         d="M 8.7185878,4.0337352 -2.2072895,0.01601326 8.7185884,-4.0017078 c -1.7454984,2.3720609 -1.7354408,5.6174519 -6e-7,8.035443 z"
         style="fill:#000000;fill-opacity:1;fill-rule:evenodd;stroke:#000000;stroke-width:0.625;stroke-linejoin:round;stroke-opacity:1"
         id="path1175" />
    </marker>
    <marker
       style="overflow:visible"
       id="marker1173"
       refX="0"
       refY="0"
       orient="auto">
      <path
         transform="matrix(1.1,0,0,1.1,1.1,0)"
         d="M 8.7185878,4.0337352 -2.2072895,0.01601326 8.7185884,-4.0017078 c -1.7454984,2.3720609 -1.7354408,5.6174519 -6e-7,8.035443 z"
         style="fill:#000000;fill-opacity:1;fill-rule:evenodd;stroke:#000000;stroke-width:0.625;stroke-linejoin:round;stroke-opacity:1"
         id="path1171" />
    </marker>
    <marker
       style="overflow:visible"
       id="Arrow2Lend"
       refX="0"
       refY="0"
       orient="auto">
      <path
         transform="matrix(-1.1,0,0,-1.1,-1.1,0)"
         d="M 8.7185878,4.0337352 -2.2072895,0.01601326 8.7185884,-4.0017078 c -1.7454984,2.3720609 -1.7354408,5.6174519 -6e-7,8.035443 z"
         style="fill:#000000;fill-opacity:1;fill-rule:evenodd;stroke:#000000;stroke-width:0.625;stroke-linejoin:round;stroke-opacity:1"
         id="path920" />
    </marker>
    <marker
       style="overflow:visible"
       id="Arrow2Lstart"
       refX="0"
       refY="0"
       orient="auto">
      <path
         transform="matrix(1.1,0,0,1.1,1.1,0)"
         d="M 8.7185878,4.0337352 -2.2072895,0.01601326 8.7185884,-4.0017078 c -1.7454984,2.3720609 -1.7354408,5.6174519 -6e-7,8.035443 z"
         style="fill:#000000;fill-opacity:1;fill-rule:evenodd;stroke:#000000;stroke-width:0.625;stroke-linejoin:round;stroke-opacity:1"
         id="path917" />
    </marker>
    <marker
       style="overflow:visible"
       id="Arrow1Lstart"
       refX="0"
       refY="0"
       orient="auto">
      <path
         transform="matrix(0.8,0,0,0.8,10,0)"
         style="fill:#000000;fill-opacity:1;fill-rule:evenodd;stroke:#000000;stroke-width:1.00000003pt;stroke-opacity:1"
         d="M 0,0 5,-5 -12.5,0 5,5 Z"
         id="path899" />
    </marker>
    <marker
       style="overflow:visible"
       id="Arrow2Mstart"
       refX="0"
       refY="0"
       orient="auto">
      <path
         transform="scale(0.6)"
         d="M 8.7185878,4.0337352 -2.2072895,0.01601326 8.7185884,-4.0017078 c -1.7454984,2.3720609 -1.7354408,5.6174519 -6e-7,8.035443 z"
         style="fill:#000000;fill-opacity:1;fill-rule:evenodd;stroke:#000000;stroke-width:0.625;stroke-linejoin:round;stroke-opacity:1"
         id="path923" />
    </marker>
    <marker
       style="overflow:visible"
       id="Arrow1Mend"
       refX="0"
       refY="0"
       orient="auto">
      <path
         transform="matrix(-0.4,0,0,-0.4,-4,0)"
         style="fill:#000000;fill-opacity:1;fill-rule:evenodd;stroke:#000000;stroke-width:1.00000003pt;stroke-opacity:1"
         d="M 0,0 5,-5 -12.5,0 5,5 Z"
         id="path908" />
    </marker>
    <marker
       style="overflow:visible"
       id="marker7497"
       refX="0"
       refY="0"
       orient="auto">
      <path
         transform="scale(-0.6)"
         d="M 8.7185878,4.0337352 -2.2072895,0.01601326 8.7185884,-4.0017078 c -1.7454984,2.3720609 -1.7354408,5.6174519 -6e-7,8.035443 z"
         style="fill:#000025;fill-opacity:1;fill-rule:evenodd;stroke:#000025;stroke-width:0.625;stroke-linejoin:round;stroke-opacity:1"
         id="path7495" />
    </marker>
    <marker
       style="overflow:visible"
       id="marker7379"
       refX="0"
       refY="0"
       orient="auto">
      <path
         transform="matrix(0.4,0,0,0.4,4,0)"
         style="fill:#000025;fill-opacity:1;fill-rule:evenodd;stroke:#000025;stroke-width:1.00000003pt;stroke-opacity:1"
         d="M 0,0 5,-5 -12.5,0 5,5 Z"
         id="path7377" />
    </marker>
    <marker
       orient="auto"
       refY="0"
       refX="0"
       id="marker5480"
       style="overflow:visible">
      <path
         id="path5478"
         style="fill:#000000;fill-opacity:1;fill-rule:evenodd;stroke:#000000;stroke-width:0.625;stroke-linejoin:round;stroke-opacity:1"
         d="M 8.7185878,4.0337352 -2.2072895,0.01601326 8.7185884,-4.0017078 c -1.7454984,2.3720609 -1.7354408,5.6174519 -6e-7,8.035443 z"
         transform="scale(-0.6)" />
    </marker>
    <marker
       orient="auto"
       refY="0"
       refX="0"
       id="marker5470"
       style="overflow:visible">
      <path
         id="path5468"
         style="fill:#000000;fill-opacity:1;fill-rule:evenodd;stroke:#000000;stroke-width:0.625;stroke-linejoin:round;stroke-opacity:1"
         d="M 8.7185878,4.0337352 -2.2072895,0.01601326 8.7185884,-4.0017078 c -1.7454984,2.3720609 -1.7354408,5.6174519 -6e-7,8.035443 z"
         transform="scale(-0.6)" />
    </marker>
    <marker
       orient="auto"
       refY="0"
       refX="0"
       id="marker5220"
       style="overflow:visible">
      <path
         id="path5218"
         d="M 0,0 5,-5 -12.5,0 5,5 Z"
         style="fill:#000000;fill-opacity:1;fill-rule:evenodd;stroke:#000000;stroke-width:1.00000003pt;stroke-opacity:1"
         transform="matrix(0.4,0,0,0.4,4,0)" />
    </marker>
    <marker
       orient="auto"
       refY="0"
       refX="0"
       id="marker5210"
       style="overflow:visible">
      <path
         id="path5208"
         d="M 0,0 5,-5 -12.5,0 5,5 Z"
         style="fill:#000000;fill-opacity:1;fill-rule:evenodd;stroke:#000000;stroke-width:1.00000003pt;stroke-opacity:1"
         transform="matrix(0.4,0,0,0.4,4,0)" />
    </marker>
    <marker
       orient="auto"
       refY="0"
       refX="0"
       id="marker5072"
       style="overflow:visible">
      <path
         id="path5070"
         d="M 0,0 5,-5 -12.5,0 5,5 Z"
         style="fill:#000000;fill-opacity:1;fill-rule:evenodd;stroke:#000000;stroke-width:1.00000003pt;stroke-opacity:1"
         transform="matrix(-0.8,0,0,-0.8,-10,0)" />
    </marker>
    <marker
       orient="auto"
       refY="0"
       refX="0"
       id="marker5014"
       style="overflow:visible">
      <path
         id="path5012"
         d="M 0,0 5,-5 -12.5,0 5,5 Z"
         style="fill:#000000;fill-opacity:1;fill-rule:evenodd;stroke:#000000;stroke-width:1.00000003pt;stroke-opacity:1"
         transform="matrix(-0.8,0,0,-0.8,-10,0)" />
    </marker>
    <marker
       orient="auto"
       refY="0"
       refX="0"
       id="marker4968"
       style="overflow:visible">
      <path
         id="path4966"
         d="M 0,0 5,-5 -12.5,0 5,5 Z"
         style="fill:#000000;fill-opacity:1;fill-rule:evenodd;stroke:#000000;stroke-width:1.00000003pt;stroke-opacity:1"
         transform="matrix(-0.8,0,0,-0.8,-10,0)" />
    </marker>
    <marker
       orient="auto"
       refY="0"
       refX="0"
       id="marker4884"
       style="overflow:visible">
      <path
         id="path4882"
         d="M 0,0 5,-5 -12.5,0 5,5 Z"
         style="fill:#000000;fill-opacity:1;fill-rule:evenodd;stroke:#000000;stroke-width:1.00000003pt;stroke-opacity:1"
         transform="matrix(0.8,0,0,0.8,10,0)" />
    </marker>
    <marker
       orient="auto"
       refY="0"
       refX="0"
       id="marker4856"
       style="overflow:visible">
      <path
         id="path4854"
         d="M 0,0 5,-5 -12.5,0 5,5 Z"
         style="fill:#000000;fill-opacity:1;fill-rule:evenodd;stroke:#000000;stroke-width:1.00000003pt;stroke-opacity:1"
         transform="matrix(0.8,0,0,0.8,10,0)" />
    </marker>
    <marker
       orient="auto"
       refY="0"
       refX="0"
       id="marker4834"
       style="overflow:visible">
      <path
         id="path4832"
         d="M 0,0 5,-5 -12.5,0 5,5 Z"
         style="fill:#000000;fill-opacity:1;fill-rule:evenodd;stroke:#000000;stroke-width:1.00000003pt;stroke-opacity:1"
         transform="matrix(0.8,0,0,0.8,10,0)" />
    </marker>
    <marker
       orient="auto"
       refY="0"
       refX="0"
       id="marker5220-5"
       style="overflow:visible">
      <path
         id="path5218-3"
         d="M 0,0 5,-5 -12.5,0 5,5 Z"
         style="fill:#000000;fill-opacity:1;fill-rule:evenodd;stroke:#000000;stroke-width:1.00000003pt;stroke-opacity:1"
         transform="matrix(0.4,0,0,0.4,4,0)" />
    </marker>
    <marker
       orient="auto"
       refY="0"
       refX="0"
       id="marker5480-5"
       style="overflow:visible">
      <path
         id="path5478-7"
         style="fill:#000000;fill-opacity:1;fill-rule:evenodd;stroke:#000000;stroke-width:0.625;stroke-linejoin:round;stroke-opacity:1"
         d="M 8.7185878,4.0337352 -2.2072895,0.01601326 8.7185884,-4.0017078 c -1.7454984,2.3720609 -1.7354408,5.6174519 -6e-7,8.035443 z"
         transform="scale(-0.6)" />
    </marker>
    <marker
       style="overflow:visible"
       id="marker1181-3"
       refX="0"
       refY="0"
       orient="auto">
      <path
         transform="matrix(1.1,0,0,1.1,1.1,0)"
         d="M 8.7185878,4.0337352 -2.2072895,0.01601326 8.7185884,-4.0017078 c -1.7454984,2.3720609 -1.7354408,5.6174519 -6e-7,8.035443 z"
         style="fill:#000000;fill-opacity:1;fill-rule:evenodd;stroke:#000000;stroke-width:0.625;stroke-linejoin:round;stroke-opacity:1"
         id="path1179-6" />
    </marker>
    <marker
       style="overflow:visible"
       id="marker1185-7"
       refX="0"
       refY="0"
       orient="auto">
      <path
         transform="matrix(-1.1,0,0,-1.1,-1.1,0)"
         d="M 8.7185878,4.0337352 -2.2072895,0.01601326 8.7185884,-4.0017078 c -1.7454984,2.3720609 -1.7354408,5.6174519 -6e-7,8.035443 z"
         style="fill:#000000;fill-opacity:1;fill-rule:evenodd;stroke:#000000;stroke-width:0.625;stroke-linejoin:round;stroke-opacity:1"
         id="path1183-5" />
    </marker>
    <marker
       style="overflow:visible"
       id="Arrow2Lstart-3"
       refX="0"
       refY="0"
       orient="auto">
      <path
         transform="matrix(1.1,0,0,1.1,1.1,0)"
         d="M 8.7185878,4.0337352 -2.2072895,0.01601326 8.7185884,-4.0017078 c -1.7454984,2.3720609 -1.7354408,5.6174519 -6e-7,8.035443 z"
         style="fill:#000000;fill-opacity:1;fill-rule:evenodd;stroke:#000000;stroke-width:0.625;stroke-linejoin:round;stroke-opacity:1"
         id="path917-5" />
    </marker>
    <marker
       style="overflow:visible"
       id="Arrow2Lend-6"
       refX="0"
       refY="0"
       orient="auto">
      <path
         transform="matrix(-1.1,0,0,-1.1,-1.1,0)"
         d="M 8.7185878,4.0337352 -2.2072895,0.01601326 8.7185884,-4.0017078 c -1.7454984,2.3720609 -1.7354408,5.6174519 -6e-7,8.035443 z"
         style="fill:#000000;fill-opacity:1;fill-rule:evenodd;stroke:#000000;stroke-width:0.625;stroke-linejoin:round;stroke-opacity:1"
         id="path920-2" />
    </marker>
  </defs>
  <metadata
     id="metadata5">
    <rdf:RDF>
      <cc:Work
         rdf:about="">
        <dc:format>image/svg+xml</dc:format>
        <dc:type
           rdf:resource="http://purl.org/dc/dcmitype/StillImage" />
        <dc:title />
      </cc:Work>
    </rdf:RDF>
  </metadata>
  <g
     transform="translate(-5.0965655,82.181594)"
     id="layer1">
    <path
       id="path75"
       style="fill:#000000;stroke-width:0.287251"
       d="M 106.03269,163.29584 C 96.420895,162.25212 86.486115,163.52232 77.017179,162.0532 71.102117,161.33202 64.850367,160.88652 64.1756,154.13583 63.937055,118.82536 65.640296,83.539228 67.081551,48.269617 65.91539,18.338589 64.32799,-11.624917 64.960041,-41.577829 c 4.658814,-1.233592 10.171583,-1.477402 11.748317,-5.34589 9.58972,-0.484923 19.203426,-0.351416 28.793152,-0.864125 5.16113,-3.732636 15.22483,1.972741 22.29575,1.477566 4.94801,0.589441 11.62924,-3.019438 11.54887,4.02353 2.38816,2.484858 9.85545,-1.660241 9.06375,3.130008 0.62275,38.20777237 -0.6842,76.43548 -2.5502,114.601012 1.6176,26.442208 2.66603,52.933508 2.85478,79.421758 -0.6188,6.6957 -7.32496,4.85835 -11.48599,7.39917 -10.12989,0.0779 -20.24094,0.8306 -30.35604,1.21407 l -0.84032,-0.18341 z m 0.86935,-1.85618 c -1.16515,-2.68859 4.5646,-6.58013 0.83872,-4.38006 1.14871,-8.91652 2.32552,-17.92575 4.35569,-26.67373 1.11975,-0.18795 -1.2063,10.58576 -1.58739,15.25682 -1.1211,9.20381 1.1968,-5.71316 1.63017,-8.46309 1.85932,-12.03238 3.97238,-24.4242 5.48876,-36.27236 0.80164,-2.920818 0.23321,-4.189118 -0.0986,-4.03624 0.4303,-4.445443 2.56875,-17.171436 2.19872,-17.151208 -1.08109,5.563058 -1.95754,13.862044 -3.11041,17.866729 0.46046,-7.697163 -1.23939,4.346389 -1.8622,7.546229 -0.5705,5.01103 -0.78174,-2.09637 -1.32155,3.58313 -0.54839,5.67069 -1.835,12.15502 -2.46573,18.33825 -1.49481,11.85147 -3.24628,23.69845 -4.53174,35.55739 l 0.23034,0.15407 0.23511,-1.32593 z m 5.22799,-33.00779 c 0.23772,-1.74699 0.23772,1.74698 0,0 z m 0.59119,0 c 0.23767,-1.74699 0.23767,1.74698 0,0 z m -0.31751,-1.954 c 0.25867,-1.25821 0.25867,1.25821 0,0 z m 0.59118,0 c 0.25867,-1.25821 0.25867,1.25821 0,0 z m 0.60216,-14.37585 c 0.13316,-1.59189 0.28595,1.72373 0,0 z m 0.30653,-2.09361 c 0.23772,-1.74698 0.23772,1.74699 0,0 z m 2.61508,-6.58313 c 0.19014,-1.07583 0.3,1.27061 0,0 z m 0.32989,-1.93075 c 0.13317,-1.591867 0.28609,1.72374 0,0 z m 0.30654,-2.093582 c 0.23772,-1.746976 0.23772,1.746992 0,0 z m -5.45971,63.173702 c -2.53129,-0.11484 -0.7924,0.33969 0,0 z m 4.12871,-0.256 c -1.08825,-0.31657 -0.54303,0.48617 0,0 z m -19.355238,-0.31886 c -3.193178,-0.1502 -10.464913,0.10895 -3.325411,0.089 -0.06174,-0.0707 5.008507,0.10924 3.325411,-0.089 z m 23.056308,0.0238 c -1.62775,-0.45308 -0.29539,0.48859 0,0 z m -40.945822,-0.26292 c -1.088228,-0.31657 -0.543052,0.48611 0,0 z m 37.479342,-0.22962 c 4.47695,-0.78371 10.64698,0.0936 14.32964,-1.24448 5.16949,-61.26409 8.58772,-122.682161 8.82604,-184.153058 -0.74661,-5.15967 1.69901,-13.68819 -1.35648,-16.95101 -7.22979,66.443237 -17.74762,132.512825 -28.16118,198.561978 -6.71197,6.39652 2.42769,3.64894 6.362,3.78654 z m 8.63937,0.20586 c -2.28949,-0.43438 -0.43955,0.44902 0,0 z m 11.00637,-0.43564 c -0.69743,-1.12044 -1.34722,2.05858 0,0 z m -4.06678,0.11483 c -2.77119,-0.5149 -1.84734,0.81133 0,0 z m -24.79501,-8.62878 c 8.43339,-65.686444 17.18389,-131.373279 22.95445,-197.323711 -7.0697,-0.583204 -14.00327,-2.081921 -21.02685,-2.94476 C 97.386636,20.176021 86.960439,88.005832 78.562018,156.05562 c -3.03606,8.57398 10.657819,4.1225 15.85084,5.26899 3.771632,0.0158 7.543272,0.0312 11.314872,0.0462 0.37163,-2.86122 0.74326,-5.72243 1.1149,-8.58364 z m -29.069998,8.02535 c -0.729023,-0.99438 -0.357467,1.02061 0,0 z m 57.812808,-1.954 c 1.78441,-4.25757 0.81503,-9.1138 1.44387,-13.62258 1.41427,-25.29024 2.52818,-50.657577 4.1733,-75.892794 3.258,4.13152 -0.14828,13.249001 0.46563,19.297574 -0.46268,10.058592 -1.21128,20.12028 -1.39936,30.18034 4.9709,-52.850052 6.87674,-105.940615 6.67256,-158.991471 -2.30832,0.506867 -7.30076,-1.538303 -6.13297,2.273587 -0.0406,49.486725 -1.43796,98.975389 -4.98254,148.355524 -1.22972,16.77926 -2.3367,33.57489 -4.01022,50.3194 1.76839,0.21088 3.54918,0.35225 3.76973,-1.91958 z m 3.02375,1.28935 c 0.42846,-0.80454 -1.82813,1.50474 0,0 z m -62.394581,0.49602 c -1.088228,-0.31662 -0.543047,0.4861 0,0 z m 60.967801,-0.45944 c -0.22824,-1.46206 -0.86435,2.04115 0,0 z m -64.360953,0.16405 c -1.627798,-0.45308 -0.295439,0.48855 0,0 z m 58.353773,-0.72233 c -0.51736,0.27896 0.47975,1.53718 0,0 z m -61.759249,0.45944 c -1.088223,-0.31657 -0.543047,0.48611 0,0 z m 7.003431,-0.87811 c -1.08366,-7.82994 1.473093,-15.78849 1.905709,-23.65531 7.458115,-60.772897 17.186767,-121.270398 26.856029,-181.754687 -9.000574,0.462674 -18.016832,0.458377 -27.028717,0.449278 -7.598109,66.423037 -11.886794,133.191642 -12.27433,200.005939 1.395633,1.97448 1.245347,5.96945 4.715719,5.2323 1.515664,-0.24804 5.794912,1.4605 5.82559,-0.2775 z m 62.745968,-1.11128 c -0.50732,-0.32456 0.36661,2.29529 0,0 z m 6.83537,-1.26146 c 1.81695,-3.72922 -0.0141,-8.01998 0.14973,-12.00346 -0.90759,-11.73438 -1.63558,-23.48331 -2.65857,-35.20789 -1.42641,16.06324 -3.22614,32.13841 -2.39211,48.2771 -0.37337,1.85507 5.5373,1.39646 4.90108,-1.06575 z m -7.7251,1.13402 c -0.50686,-0.47994 0.25523,1.56059 0,0 z M 77.193055,156.3463 c -1.021294,-2.05456 -0.404297,2.14627 0,0 z m 54.277795,-0.0698 c -0.51736,0.27897 0.47974,1.53719 0,0 z m 7.02648,-0.1994 c 0.36989,-3.97786 0.81938,-8.53168 1.29708,-6.90692 0.64333,-15.20182 2.06925,-30.38696 3.46772,-45.55006 0.76862,2.1121 1.28883,8.36459 1.6072,13.66503 0.38297,4.13965 0.57912,9.90733 1.14331,13.09743 -0.42164,-12.28958 -2.00195,-24.56324 -2.20008,-36.844162 0.33672,-3.102683 0.38343,-10.265804 1.10421,-10.862666 0.55816,1.927136 0.16249,-9.509282 0.38389,-12.00448 0.80615,-17.81936 1.72672,-35.639337 1.89312,-53.477777 -1.39174,42.220304 -4.16177,84.398705 -8.37905,126.451785 -0.28856,-6.60968 -0.61635,-0.12242 -1.10162,3.22021 0.52352,1.29915 -1.97267,13.22595 0.78423,9.21161 z m -61.113948,-0.8997 c -0.547048,-0.56862 0.296722,1.63383 0,0 z m 0.591179,0 c -0.506791,-0.47993 0.255191,1.56056 0,0 z m 31.335789,-0.70998 c -0.50723,-0.32453 0.36666,2.29527 0,0 z m 30.1477,0.15169 c -0.50686,-0.47994 0.25523,1.5606 0,0 z m 8.4291,-7.20537 c -0.36037,-2.58945 0.10571,-16.66922 -0.55415,-7.67643 -0.11519,5.15543 -0.99938,-2.4435 -0.50508,4.0742 0.1561,3.57874 1.07453,16.89842 1.16384,6.52154 l -0.0433,-1.36693 -0.0613,-1.55238 z m -82.623086,6.92624 c -0.547043,-0.56864 0.296722,1.63381 0,0 z m 66.502396,-1.41323 c -0.51744,0.27895 0.47983,1.53718 0,0 z m -22.1605,-0.41339 c -0.50732,-0.32452 0.3667,2.29528 0,0 z m -31.335795,0.1517 c -0.547047,-0.56862 0.296681,1.63382 0,0 z M 65.923999,109.17112 c 1.215732,-41.830547 4.397651,-83.579779 8.141185,-125.265451 0.173619,-3.741684 0.809746,-6.565802 0.84473,-10.395082 1.81923,-5.707558 1.233231,-15.309623 2.546361,-19.194025 1.363016,-1.335058 9.986935,-0.415749 10.438192,-0.77 -4.120668,-0.06232 -12.426772,-0.799191 -11.583086,1.956358 -0.91677,-0.241498 -1.167248,11.485436 -1.745939,15.216968 -0.350924,4.872879 -0.538431,8.222502 -1.24087,12.233465 -1.949298,19.5234674 -3.326123,39.10556 -4.905197,58.648241 -0.653219,-7.657736 -0.47377,8.780978 -0.697947,11.815549 -1.611027,30.996004 -2.667368,62.017887 -2.574322,93.055207 -0.0095,2.16312 -0.06008,8.22221 0.007,2.81911 0.195608,-13.37441 0.365293,-26.74971 0.769586,-40.12034 z m 43.977561,41.38825 c -0.50727,-0.32456 0.36662,2.29528 0,0 z m -32.518178,-0.12745 c -0.547048,-0.56862 0.296722,1.63383 0,0 z m 1.182363,-0.27915 c -0.547049,-0.56862 0.296721,1.63383 0,0 z m 53.496295,-0.85486 c -0.51736,0.27903 0.47973,1.53718 0,0 z m -54.383079,-1.37823 c -0.547047,-0.56863 0.296722,1.63382 0,0 z m 54.687739,-2.10572 c -0.50731,-0.32449 0.36674,2.29527 0,0 z m -54.392139,-0.40658 c -0.506791,-0.47994 0.255191,1.56055 0,0 z m 1.182358,0 c -0.547043,-0.56862 0.296722,1.63384 0,0 z m 0.295604,-2.51229 c -0.547043,-0.56862 0.296722,1.63383 0,0 z m 53.209777,-0.70998 c -0.50726,-0.3245 0.36666,2.29529 0,0 z m -54.096555,-1.52327 c -0.547049,-0.56863 0.296721,1.63383 0,0 z m 59.720115,-2.66548 c -0.43669,0.64171 0.41975,3.06303 0,0 z m -5.32796,0.55978 c -0.5073,-0.32457 0.36666,2.29527 0,0 z m 5.90282,0.13418 c -0.51746,0.27895 0.47984,1.53719 0,0 z m 7.70495,-2.09356 c -0.33771,2.74259 0.2749,2.80008 0,0 z m -67.704326,1.55271 c -0.506792,-0.47994 0.25519,1.56058 0,0 z m 1.182358,0 c -0.547047,-0.56862 0.296722,1.63384 0,0 z m 31.031148,-0.29657 c -0.51744,0.27895 0.47982,1.53719 0,0 z m 36.06858,0.29657 c -0.50683,-0.47994 0.25523,1.5606 0,0 z m -0.007,-1.41315 c -0.51734,0.27896 0.47975,1.53718 0,0 z m -35.76687,-0.83743 c -0.51734,0.27895 0.47976,1.5372 0,0 z m -32.212487,-0.26171 c -0.547068,-0.56862 0.296722,1.63384 0,0 z m 54.087527,-0.85486 c -0.51734,0.27896 0.47975,1.53718 0,0 z m 13.02567,-2.37271 c -0.33763,2.7426 0.27489,2.80006 0,0 z m -34.59614,1.39571 c -0.47555,0.41513 0.46005,2.16208 0,0 z m 26.90741,-1.39189 c -0.43668,0.64171 0.41975,3.06302 0,0 z m -57.946604,0.99065 c -0.506813,-0.47994 0.255191,1.56055 0,0 z m 31.334694,-1.55276 c -0.47546,0.41514 0.46001,2.1621 0,0 z m 21.57948,-0.8321 c -0.50732,-0.32449 0.36667,2.2953 0,0 z m -52.618599,0.15173 c -0.547044,-0.56862 0.296723,1.63384 0,0 z m -1.182398,-0.2791 c -0.506792,-0.47996 0.255191,1.56055 0,0 z m 59.128537,-4.34418 c -0.43624,0.67204 0.43133,3.40669 0,0 z m -5.03197,0.56359 c -0.50732,-0.32456 0.36661,2.29528 0,0 z m 13.60627,-1.5406 c -0.42281,0.7982 0.41959,4.028 0,0 z m -67.111654,0.57569 c -0.547047,-0.56863 0.296722,1.63381 0,0 z m 59.414294,0 c -0.50679,-0.47988 0.25532,1.56055 0,0 z m 6.80156,-1.82657 c -0.50729,-0.32453 0.36674,2.29526 0,0 z m -64.737896,-0.12744 c -0.547043,-0.56862 0.296722,1.63382 0,0 z m -1.182358,-0.27912 c -0.506813,-0.47994 0.255191,1.56056 0,0 z m 53.505344,-0.70998 c -0.5073,-0.32449 0.36674,2.29529 0,0 z m 5.03199,-2.23845 c -0.43624,0.67202 0.43131,3.40669 0,0 z m 0.88719,0.28299 c -0.43669,0.64169 0.41975,3.06301 0,0 z m -57.946562,0.71146 c -0.547072,-0.56863 0.296722,1.63383 0,0 z m 64.107602,-6.29816 c -0.34468,-8.8175 -0.84189,-17.629615 -1.13147,-26.448851 -1.10707,10.431384 0.64507,20.964061 1.21723,31.403621 0.0679,-1.65203 -0.0319,-3.30392 -0.0858,-4.95477 z m -63.812022,4.06501 c -0.506793,-0.47994 0.255191,1.56057 0,0 z m 52.026332,-0.71526 c -0.47545,0.41512 0.45998,2.16209 0,0 z m 12.71848,-2.23315 c -0.43624,0.67204 0.43132,3.40669 0,0 z m -64.449212,0.7153 c -0.547049,-0.56862 0.296722,1.63383 0,0 z m -1.182384,-0.55827 c -0.506787,-0.47994 0.255191,1.56056 0,0 z m 57.943056,-1.41316 c -0.45267,0.54474 0.44449,2.78485 0,0 z m -4.73436,-0.69787 c -0.47546,0.41514 0.45999,2.1621 0,0 z m -51.730733,0.43619 c -0.547048,-0.56862 0.296722,1.63383 0,0 z m -1.182334,-0.55828 c -0.547043,-0.56863 0.296722,1.63382 0,0 z m 1.477966,-1.67486 c -0.506791,-0.47995 0.255191,1.56056 0,0 z m -1.182362,-0.55828 c -0.547072,-0.56863 0.296722,1.63383 0,0 z m 52.913073,-1.8319 c -0.47545,0.41514 0.46,2.1621 0,0 z m 4.73484,-0.41543 c -0.49485,-0.29789 0.39175,3.00438 0,0 z m 7.09723,-0.97641 c -0.43659,0.6417 0.41968,3.06301 0,0 z m -64.449582,0.9906 c -0.506789,-0.47994 0.255191,1.56056 0,0 z m 0.295604,-2.23316 c -0.547044,-0.56862 0.296722,1.63386 0,0 z m 52.618588,-1.5474 c -0.50727,-0.32458 0.36661,2.29526 0,0 z m -52.323013,-0.68572 c -0.547044,-0.56864 0.296722,1.63383 0,0 z m 57.056753,-1.13077 c -0.4948,-0.29793 0.39175,3.00433 0,0 z m -55.578787,-0.26494 c -0.547022,-0.56863 0.296722,1.63384 0,0 z m 29.559367,-0.55827 c -0.50687,-0.47995 0.25518,1.56063 0,0 z m 0.59299,-0.71533 c -0.47544,0.41514 0.45999,2.16211 0,0 z m -31.33472,0.4362 c -0.506791,-0.47994 0.255191,1.56058 0,0 z m 63.26419,-1.13077 c -0.49487,-0.29796 0.39176,3.00439 0,0 z m -10.9423,-0.70111 c -0.47545,0.41513 0.46001,2.16211 0,0 z m -20.69047,-0.83212 c -0.50732,-0.32454 0.36669,2.29528 0,0 z m 25.42533,-1.816496 c -0.49488,-0.297958 0.39175,3.004356 0,0 z m -25.72385,0.01434 c -0.50685,-0.479953 0.25524,1.560586 0,0 z m 0.58501,-0.296568 c -0.51734,0.279035 0.47976,1.537184 0,0 z M 85.364371,97.95322 c -0.547043,-0.568635 0.296723,1.633823 0,0 z m 50.548349,-0.715478 c -0.47545,0.415126 0.46002,2.162088 0,0 z m -20.98899,-0.401048 c -0.50686,-0.479938 0.25519,1.560624 0,0 z m 31.34009,-0.851611 c -0.49479,-0.297887 0.39176,3.004324 0,0 z m -28.08674,-0.980521 c -0.47546,0.415111 0.46001,2.162088 0,0 z M 84.477593,94.882563 c -0.547022,-0.568634 0.296722,1.633809 0,0 z m 56.169987,-1.40991 c -0.49487,-0.297886 0.39176,3.004353 0,0 z m -22.1749,-0.422136 c -0.47545,0.415112 0.46001,2.162074 0,0 z m 17.74098,-0.694604 c -0.49486,-0.297973 0.39175,3.004352 0,0 z m -18.92335,-0.701128 c -0.47545,0.41514 0.45999,2.162088 0,0 z m -1.77539,0.436128 c -0.50686,-0.479938 0.25523,1.560595 0,0 z m 3.25445,-0.989122 c -0.50726,-0.32458 0.36663,2.295269 0,0 z m 27.19356,-0.842752 c -0.47546,0.415125 0.45997,2.162088 0,0 z m -28.37701,-0.558284 c -0.47545,0.415139 0.45998,2.162102 0,0 z m -1.7754,0.157078 c -0.50686,-0.479938 0.25519,1.560624 0,0 z m 3.25443,-0.709987 c -0.50724,-0.324494 0.36666,2.295269 0,0 z m 21.87819,-1.258207 c -0.49477,-0.297886 0.39174,3.004338 0,0 z M 85.364371,88.46213 c -0.547043,-0.56862 0.296723,1.633823 0,0 z m 31.924099,0 c -0.50684,-0.479924 0.25523,1.560595 0,0 z m 0.59411,-0.430823 c -0.50726,-0.324566 0.36662,2.295254 0,0 z m 18.62133,-0.563603 c -0.47545,0.41514 0.46,2.162088 0,0 z m -20.39783,-0.122142 c -0.50679,-0.479939 0.25523,1.560595 0,0 z m 3.24539,-0.296568 c -0.51736,0.278949 0.47974,1.537185 0,0 z m -1.18236,-1.116583 c -0.51744,0.278949 0.47983,1.537185 0,0 z M 87.137939,85.391588 c -0.547049,-0.568635 0.296721,1.633823 0,0 z m 32.509141,-0.296582 c -0.51737,0.278963 0.47973,1.537185 0,0 z m 26.02024,-0.418738 c -0.47545,0.415126 0.45998,2.162088 0,0 z m -29.26564,0.436128 c -0.50684,-0.479938 0.25524,1.560581 0,0 z M 85.955576,84.274934 c -0.506813,-0.479924 0.255191,1.560566 0,0 z m 32.509114,-0.296568 c -0.51737,0.278949 0.47973,1.537199 0,0 z m 18.34014,-1.671598 c -0.49484,-0.297929 0.39176,3.004353 0,0 z m 4.43392,0 c -0.49486,-0.297929 0.39176,3.004353 0,0 z m -23.06349,0.01434 c -0.50684,-0.479938 0.25523,1.560595 0,0 z m 0.58503,-0.296568 c -0.51737,0.278949 0.47973,1.537199 0,0 z M 87.729117,81.20432 c -0.506792,-0.479952 0.255191,1.560553 0,0 z m 29.263753,-0.837433 c -0.50679,-0.479938 0.25523,1.560595 0,0 z M 86.546755,80.08768 c -0.547047,-0.56862 0.296722,1.633824 0,0 z m 30.741715,-2.233137 c -0.50684,-0.479938 0.25523,1.560581 0,0 z m 19.81197,-0.851626 c -0.49485,-0.297929 0.39176,3.004353 0,0 z m 4.43392,-0.279163 c -0.49486,-0.297915 0.39175,3.004367 0,0 z m -21.2881,-0.421993 c -0.47545,0.415126 0.45998,2.162103 0,0 z m -1.18422,-0.122142 c -0.50686,-0.479938 0.25523,1.560595 0,0 z M 87.137939,75.900498 c -0.547049,-0.56862 0.296721,1.633824 0,0 z m 30.446131,-0.279149 c -0.50684,-0.479953 0.25519,1.56061 0,0 z m 2.95777,-1.27359 c -0.47546,0.415126 0.45997,2.162088 0,0 z m -2.66219,-1.238696 c -0.50679,-0.479953 0.25524,1.560595 0,0 z m 2.95778,-0.71532 c -0.47545,0.415126 0.45998,2.162088 0,0 z m 16.55812,-1.256028 c -0.45268,0.544751 0.44449,2.784869 0,0 z m 4.43436,0.0029 c -0.49477,-0.297915 0.39176,3.004324 0,0 z m -20.69688,-0.97996 c -0.47545,0.415118 0.45999,2.162086 0,0 z m -1.1842,-0.122114 c -0.50686,-0.479938 0.25524,1.560594 0,0 z M 88.024721,69.759472 c -0.547047,-0.568614 0.296722,1.633824 0,0 z m 33.403889,-1.552735 c -0.47545,0.415132 0.45999,2.162101 0,0 z m -2.95775,0.156999 c -0.50684,-0.479941 0.25519,1.560622 0,0 z m 3.25336,-2.111005 c -0.47546,0.415119 0.45998,2.162065 0,0 z m 15.96693,-0.976902 c -0.45268,0.544757 0.4445,2.784861 0,0 z m -18.92471,0.575737 c -0.50679,-0.47995 0.25523,1.560589 0,0 z m 0.88679,0 c -0.50686,-0.47995 0.25523,1.560589 0,0 z m 3.54711,-0.558283 c -0.50684,-0.47995 0.25523,1.56059 0,0 z M 90.087709,64.717546 c -0.517363,0.278955 0.479757,1.537208 0,0 z m 31.933201,-0.413373 c -0.50729,-0.32457 0.36662,2.295267 0,0 z m -2.07823,-0.703277 c -0.51736,0.279035 0.47974,1.537198 0,0 z m 0.89293,0.296576 c -0.50685,-0.479938 0.25523,1.56059 0,0 z M 90.392373,62.908343 c -0.507243,-0.324571 0.366617,2.295203 0,0 z m 31.915037,-0.424037 c -0.51735,0.278956 0.47975,1.537189 0,0 z m 0.1937,-7.118142 c 4.74818,-33.175505 9.51104,-66.363679 13.1141,-99.668988 -7.02603,-2.805971 -3.89171,11.048832 -5.57092,15.757203 -2.92774,30.3920467 -6.4636,60.727296 -10.00168,91.060028 2.56822,1.218669 1.64186,-5.932915 2.4585,-7.148243 z m -33.293918,6.298168 c -0.547049,-0.568633 0.296722,1.633824 0,0 z M 90.687,60.66988 c -0.475455,0.415123 0.460027,2.16209 0,0 z m 28.67076,0.436181 c -0.50686,-0.47993 0.25519,1.560634 0,0 z m 18.63261,-2.107181 c -0.43662,0.641716 0.41966,3.063014 0,0 z M 90.9826,58.715878 c -0.475475,0.415119 0.460006,2.162077 0,0 z m 28.67075,-0.122113 c -0.50687,-0.479938 0.25523,1.560589 0,0 z M 91.278179,56.761884 c -0.475446,0.415131 0.460035,2.162088 0,0 z m 33.104671,0.436129 c -0.50684,-0.479943 0.25523,1.560585 0,0 z m -4.43391,-1.116567 c -0.50685,-0.479941 0.25524,1.560591 0,0 z m -28.374188,-1.26822 c -0.507234,-0.32457 0.366617,2.2952 0,0 z M 138.28546,52.01649 c -0.43624,0.672031 0.43131,3.406677 0,0 z m -46.416193,0.55828 c -0.475472,0.415122 0.460011,2.162083 0,0 z m 31.922253,-0.122114 c -0.50678,-0.479878 0.25528,1.560558 0,0 z m -31.626674,-1.83185 c -0.475451,0.415123 0.460031,2.162088 0,0 z m 28.375164,0.715302 c -0.50686,-0.479937 0.25523,1.560586 0,0 z m 4.72951,-0.279154 c -0.50687,-0.479934 0.25523,1.560591 0,0 z M 92.460446,48.666792 c -0.475471,0.415122 0.460006,2.162085 0,0 z m 28.375164,0.156999 c -0.50685,-0.479942 0.25523,1.560583 0,0 z M 92.756051,46.712765 c -0.475476,0.415132 0.460005,2.16209 0,0 z m 28.375109,-0.401287 c -0.50679,-0.47988 0.25528,1.560562 0,0 z m 17.4499,-1.552735 c -0.43623,0.672027 0.43132,3.406694 0,0 z m -45.52943,0 c -0.475455,0.415123 0.460005,2.162092 0,0 z m 33.10468,0.156999 c -0.50686,-0.479942 0.25523,1.560591 0,0 z m -1.1824,-0.558283 c -0.50685,-0.479937 0.25524,1.560595 0,0 z m -3.54714,-0.558274 c -0.50683,-0.479947 0.25527,1.560585 0,0 z M 99.393398,5.0505826 c 1.426262,-8.2014679 2.568042,-17.6394626 3.805702,-25.1228526 0.53635,-4.195359 -1.55573,4.072175 -0.60792,-0.991434 0.42502,-4.150806 2.59613,-16.318647 2.00085,-15.926367 -2.53395,15.349161 -5.155279,31.4201223 -7.260561,46.3963702 -0.736947,1.7041618 -0.337672,6.2426408 0.473063,0.7519308 -1.259658,10.933243 -3.132579,21.796947 -4.52511,32.716213 2.195655,-12.580415 4.046512,-25.221074 6.113976,-37.8238604 z m -1.451872,3.9079969 c 0.237717,-1.7469767 0.237717,1.7469825 0,0 z m 0.2737,-1.9539933 c 0.258669,-1.2582104 0.258669,1.2582046 0,0 z m 0.27225,-2.1168354 c 0.190141,-1.0758053 0.299787,1.2705322 0,0 z m 3.274854,-20.4937368 c 0.25867,-1.258206 0.25867,1.258209 0,0 z m 0.30653,-1.814421 c 0.13317,-1.591872 0.28596,1.723742 0,0 z m 19.65349,58.707231 c -0.50685,-0.479938 0.25527,1.56059 0,0 z m 5.02512,-0.55828 c -0.50687,-0.479934 0.25523,1.560587 0,0 z m -59.111519,-1.96819 c -0.494774,-0.297961 0.39171,3.004254 0,0 z m 54.381999,0.01419 c -0.50679,-0.479875 0.25532,1.560563 0,0 z m 16.86079,-2.250593 c -0.4228,0.798202 0.41959,4.028019 0,0 z M 125.8607,38.21635 c -0.50686,-0.479937 0.25524,1.560591 0,0 z m -3.54714,-1.953998 c -0.50684,-0.479943 0.25523,1.560585 0,0 z M 69.205986,21.65959 c 1.609492,-21.27146029 3.642232,-42.519477 5.750047,-63.74564 -6.1745,0.08458 -10.723879,1.886302 -8.641773,8.400529 0.326368,22.639671 0.658328,45.29853 1.912514,67.906548 0.358999,-4.184759 0.659203,-8.373901 0.979212,-12.561437 z m -1.865614,10.959616 c -0.4948,-0.297962 0.391668,3.004248 0,0 z m 55.268788,0.851619 c -0.50685,-0.479941 0.25524,1.560586 0,0 z m 0.29557,-2.512285 c -0.5068,-0.479879 0.25523,1.56057 0,0 z m 5.3207,-0.837429 c -0.50679,-0.479878 0.25524,1.560571 0,0 z m 10.95042,-2.948446 c -0.33763,2.742609 0.27486,2.800063 0,0 z m -15.97551,1.273589 c -0.50684,-0.479941 0.25523,1.560591 0,0 z M 67.047825,25.780948 c -0.436641,0.641654 0.4197,3.062979 0,0 z m 56.448125,0.153199 c -0.50684,-0.479939 0.25523,1.560589 0,0 z m 4.1383,-0.279154 c -0.50684,-0.479934 0.25527,1.560583 0,0 z M 95.408379,24.241831 c -0.517367,0.278956 0.479758,1.537201 0,0 z m 28.383141,-1.099125 c -0.50678,-0.479874 0.25528,1.560567 0,0 z M 95.703979,22.287732 c -0.517363,0.278956 0.479753,1.537187 0,0 z m 32.521461,-0.819986 c -0.50679,-0.479883 0.25528,1.560559 0,0 z m 1.18239,0 c -0.50684,-0.479943 0.25523,1.56059 0,0 z M 96.008643,20.19947 c -0.507243,-0.32457 0.366617,2.295204 0,0 z m 28.078487,0.430826 c -0.50684,-0.479934 0.25523,1.560592 0,0 z M 66.751843,18.240137 c -0.436188,0.672031 0.431266,3.406691 0,0 z m 62.951587,0.994451 c -0.50684,-0.479946 0.25524,1.560587 0,0 z m 9.76867,-3.096444 c -0.31908,3.57761 0.26625,3.093581 0,0 z M 96.304242,18.24545 c -0.507239,-0.32457 0.366618,2.295201 0,0 z m 28.072338,-0.424039 c -0.51737,0.278955 0.47976,1.537193 0,0 z m 5.62243,-0.819983 c -0.50679,-0.479878 0.25523,1.560566 0,0 z M 96.599822,16.291464 c -0.507243,-0.32457 0.366617,2.295195 0,0 z M 147.45804,7.0901846 c -0.25388,0.3555341 0.012,11.4075414 0.0385,3.2454294 l -0.01,-1.7192247 z m -22.77972,8.2364224 c -0.5068,-0.479942 0.25523,1.560555 0,0 z M 96.894333,14.332155 c -0.475451,0.415123 0.460031,2.162085 0,0 z m 33.400277,0.436189 c -0.50686,-0.479939 0.25523,1.56059 0,0 z m -0.88678,-1.953997 c -0.50684,-0.479943 0.25523,1.56058 0,0 z m -4.43392,-0.279153 c -0.50685,-0.479943 0.25524,1.560587 0,0 z m 5.61631,0 c -0.50686,-0.479943 0.25523,1.560587 0,0 z M 66.458749,9.7312893 c -0.422164,0.7723397 0.410218,3.6804857 0,0 z m 63.244681,0.8498817 c -0.50684,-0.479939 0.25524,1.56059 0,0 z m 1.18237,-0.279154 c -0.50679,-0.4799387 0.25524,1.560563 0,0 z m -5.61628,-0.279154 c -0.50687,-0.4799377 0.25523,1.56059 0,0 z m 5.31455,-1.9714441 c -0.51737,0.2789558 0.47976,1.5371884 0,0 z m 0.59733,0.017418 c -0.50687,-0.4799384 0.25523,1.5605894 0,0 z m -5.6163,-0.837465 c -0.5068,-0.4798739 0.25527,1.5605665 0,0 z m 5.31457,-1.4131575 c -0.51743,0.2789557 0.47983,1.5371935 0,0 z m 0.59734,0.017418 c -0.50687,-0.4799412 0.25523,1.5605912 0,0 z m 8.29356,-4.4837314 c -0.30476,4.6062735 0.2491,4.6346917 0,0 z M 125.8607,4.4399175 c -0.50686,-0.479943 0.25524,1.5605853 0,0 z m 5.31455,-0.8548947 c -0.51737,0.2789557 0.47974,1.5371962 0,0 z M 66.164254,-0.46222296 c -0.337674,2.74260736 0.27486,2.80006536 0,0 z M 126.15631,1.6487957 c -0.50686,-0.4799377 0.25523,1.5605905 0,0 z M 130.87967,1.35222 c -0.51743,0.2789561 0.47983,1.5371811 0,0 z m 0.59734,0.2965757 c -0.50687,-0.4799377 0.25523,1.5605905 0,0 z M 147.75368,-10.23222 c -0.25117,1.1894504 0.0191,13.1824411 0.0377,3.8382139 0,-1.2794754 -0.01,-2.5589835 -0.0377,-3.8382139 z m -16.57046,9.49085537 c -0.47545,0.41513067 0.45999,2.16209063 0,0 z m 0.59653,-0.136249 c -0.49485,-0.29792167 0.39175,3.00435843 0,0 z m -5.334,-0.28240067 c -0.51743,0.27895567 0.47984,1.53718401 0,0 z m 5.91804,0.01742 c -0.50685,-0.4799457 0.25523,1.56058501 0,0 z m -0.88496,-1.831876 c -0.47546,0.4151273 0.45999,2.16209167 0,0 z m 0.5254,-0.7583443 c -1.12515,-5.544529 0.51493,5.8575364 0,0 z m -5.26292,-0.21865 c -0.51733,0.278956 0.47977,1.5372016 0,0 z m 6.03098,-1.5890911 c 1.5219,-11.6546633 2.99162,-24.3765973 4.5149,-36.4580443 2.03487,-1.373661 -1.86364,-7.539819 -0.99866,-1.461358 -1.08877,12.297871 -3.29647,24.534151 -4.05989,36.8320549 -0.62957,-2.2899388 -0.041,4.5571491 0.54365,1.0873474 z m -0.25722,-3.7844029 c 0.13266,-1.5919144 0.28686,1.7237381 0,0 z m 0.28463,-2.0935744 c 0.25866,-1.258209 0.25866,1.25821 0,0 z m -5.75663,4.6930929 c -0.50686,-0.4799447 0.25524,1.5605861 0,0 z m 0.29556,-2.7914332 c -0.50678,-0.479879 0.25528,1.5605651 0,0 z M 65.871255,-14.000964 c -0.31548,3.862834 0.257634,3.898997 0,0 z m 61.762995,1.692307 c -0.50684,-0.479941 0.25527,1.560582 0,0 z m 0.28944,-3.088026 c -0.51735,0.278956 0.47976,1.537189 0,0 z m 15.90315,-25.332212 c 3.91532,-2.467455 4.22797,4.504834 3.87873,1.846051 0.89345,-3.520011 -4.13267,-1.500927 -6.34867,-2.111382 -3.18651,-0.322868 -0.72155,4.775127 -1.47004,6.790801 0.034,5.873466 0.0679,11.746929 0.10194,17.620383 0.0535,-8.048609 0.10692,-16.097232 0.16058,-24.145853 1.22581,0 2.45204,0 3.67759,0 z m -15.6014,22.558231 c -0.5068,-0.479879 0.25523,1.560562 0,0 z m 0.28943,-3.088011 c -0.51734,0.279035 0.47976,1.537189 0,0 z m -25.11749,-2.372717 c -0.47545,0.415127 0.45998,2.162085 0,0 z m 25.41924,-0.401288 c -0.50684,-0.479946 0.25524,1.560579 0,0 z m -25.12255,-1.547286 c -0.50726,-0.324491 0.36661,2.295259 0,0 z m 0.58825,-0.127504 c -0.50684,-0.479938 0.25519,1.560618 0,0 z m -0.30174,-1.692311 c -0.51742,0.278956 0.47983,1.537189 0,0 z m 25.13165,0.296576 c -0.5068,-0.479878 0.25527,1.560567 0,0 z m -24.83607,-2.250563 c -0.51734,0.278956 0.47976,1.537193 0,0 z m -38.551598,-7.929517 c -0.314319,-11.556495 -0.446242,13.515202 -0.05205,2.461817 l 0.02567,-1.153074 z m 63.677118,7.092112 c -0.51737,0.279035 0.47975,1.537201 0,0 z m 0.2956,-3.070572 c -0.51736,0.278955 0.47976,1.537201 0,0 z m 0.30173,-3.053123 c -0.50679,-0.479874 0.25528,1.560566 0,0 z m -24.82805,-3.785862 c -0.47546,0.415127 0.45998,2.162084 0,0 z m 25.11749,0.418741 c -0.51736,0.278956 0.47977,1.537182 0,0 z m -24.82188,-2.37272 c -0.47555,0.415127 0.46005,2.162088 0,0 z m 25.11749,-0.697852 c -0.51736,0.278995 0.47976,1.537192 0,0 z m -24.82194,-1.256147 c -0.47545,0.415123 0.46001,2.162092 0,0 z m 0.29669,-1.669547 c -0.5073,-0.324531 0.36674,2.295279 0,0 z m 23.9538,0.314552 c -1.08825,-0.316611 -0.54299,0.486111 0,0 z m -2.66032,-0.279152 c -1.08828,-0.316612 -0.54303,0.486107 0,0 z m -27.484087,-1.140341 c -2.289505,-0.434383 -0.439572,0.448966 0,0 z m 6.542667,-0.57523 c -1.50207,-0.380916 -3.57727,1.280408 0,0 z m 1.58989,-1.256146 c -2.62325,-1.693139 0.70746,4.293299 0,0 z" />
    <text
       xml:space="preserve"
       style="font-style:normal;font-variant:normal;font-weight:normal;font-stretch:normal;font-size:35.2778px;line-height:1.25;font-family:'URW Bookman L';-inkscape-font-specification:'URW Bookman L, Normal';font-variant-ligatures:normal;font-variant-caps:normal;font-variant-numeric:normal;font-variant-east-asian:normal;letter-spacing:0px;word-spacing:0px;stroke-width:1.18572"
       x="91.9468"
       y="209.41005"
       id="diameter"
       transform="scale(1.0169499,0.98333262)"><tspan
         sodipodi:role="line"
         id="tspan14"
         x="91.9468"
         y="209.41005"
         style="font-style:normal;font-variant:normal;font-weight:normal;font-stretch:normal;font-size:35.2778px;font-family:'URW Bookman L';-inkscape-font-specification:'URW Bookman L, Normal';font-variant-ligatures:normal;font-variant-caps:normal;font-variant-numeric:normal;font-variant-east-asian:normal;stroke-width:1.18572">D</tspan></text>
    <text
       xml:space="preserve"
       style="font-style:normal;font-variant:normal;font-weight:normal;font-stretch:normal;font-size:35.2778px;line-height:1.25;font-family:'URW Bookman L';-inkscape-font-specification:'URW Bookman L, Normal';font-variant-ligatures:normal;font-variant-caps:normal;font-variant-numeric:normal;font-variant-east-asian:normal;letter-spacing:0px;word-spacing:0px;stroke-width:1.20955"
       x="175.11391"
       y="70.791611"
       id="cutting_edge_height"
       transform="scale(0.9835924,1.0166813)"><tspan
         sodipodi:role="line"
         id="tspan18"
         x="175.11391"
         y="70.791611"
         style="font-style:normal;font-variant:normal;font-weight:normal;font-stretch:normal;font-size:35.2778px;font-family:'URW Bookman L';-inkscape-font-specification:'URW Bookman L, Normal';font-variant-ligatures:normal;font-variant-caps:normal;font-variant-numeric:normal;font-variant-east-asian:normal;stroke-width:1.20955">H</tspan></text>
    <path
       id="path4542"
       d="m 66.55728,173.49778 h 79.31396"
       style="fill:none;stroke:#000000;stroke-width:0.849025;stroke-linecap:butt;stroke-linejoin:miter;stroke-miterlimit:4;stroke-dasharray:none;stroke-opacity:1;marker-start:url(#marker1181-3);marker-end:url(#marker1185-7)" />
    <path
       id="path4538"
       d="M 148.17126,181.21137 V 142.4916"
       style="fill:none;stroke:#000000;stroke-width:0.838537;stroke-linecap:butt;stroke-linejoin:miter;stroke-miterlimit:4;stroke-dasharray:none;stroke-opacity:1" />
    <path
       id="path4538-1"
       d="M 64.832629,180.07843 V 141.35867"
       style="fill:none;stroke:#000000;stroke-width:0.838537;stroke-linecap:butt;stroke-linejoin:miter;stroke-miterlimit:4;stroke-dasharray:none;stroke-opacity:1" />
    <path
       id="path1187"
       d="M 147.50451,-40.728779 H 173.2932"
       style="fill:none;stroke:#000000;stroke-width:0.838537;stroke-linecap:butt;stroke-linejoin:miter;stroke-miterlimit:4;stroke-dasharray:none;stroke-opacity:1" />
    <path
       id="path1187-4"
       d="m 145.1128,158.85846 h 25.78874"
       style="fill:none;stroke:#000000;stroke-width:0.838537;stroke-linecap:butt;stroke-linejoin:miter;stroke-miterlimit:4;stroke-dasharray:none;stroke-opacity:1" />
    <path
       id="path897"
       d="M 163.08122,-37.784387 V 156.72518"
       style="fill:none;stroke:#000000;stroke-width:1.32896;stroke-linecap:butt;stroke-linejoin:miter;stroke-miterlimit:4;stroke-dasharray:none;stroke-opacity:1;marker-start:url(#Arrow2Lstart-3);marker-end:url(#Arrow2Lend-6)" />
  </g>
</svg>
