<?xml version="1.0" encoding="UTF-8" standalone="no"?>
<svg
   id="svg8"
   version="1.1"
   viewBox="0 0 210 297"
   height="297mm"
   width="210mm"
   sodipodi:docname="tap.svg"
   xml:space="preserve"
   inkscape:version="1.2.2 (b0a8486541, 2022-12-01)"
   xmlns:inkscape="http://www.inkscape.org/namespaces/inkscape"
   xmlns:sodipodi="http://sodipodi.sourceforge.net/DTD/sodipodi-0.dtd"
   xmlns:xlink="http://www.w3.org/1999/xlink"
   xmlns="http://www.w3.org/2000/svg"
   xmlns:svg="http://www.w3.org/2000/svg"
   xmlns:rdf="http://www.w3.org/1999/02/22-rdf-syntax-ns#"
   xmlns:cc="http://creativecommons.org/ns#"
   xmlns:dc="http://purl.org/dc/elements/1.1/"><sodipodi:namedview
     id="namedview81"
     pagecolor="#ffffff"
     bordercolor="#666666"
     borderopacity="1.0"
     inkscape:showpageshadow="2"
     inkscape:pageopacity="0.0"
     inkscape:pagecheckerboard="true"
     inkscape:deskcolor="#d1d1d1"
     inkscape:document-units="mm"
     showgrid="false"
     inkscape:zoom="0.81750039"
     inkscape:cx="299.69405"
     inkscape:cy="489.90802"
     inkscape:window-width="1632"
     inkscape:window-height="1013"
     inkscape:window-x="1728"
     inkscape:window-y="1050"
     inkscape:window-maximized="1"
     inkscape:current-layer="svg8" /><defs
     id="defs2"><linearGradient
       inkscape:collect="always"
       id="linearGradient36360"><stop
         style="stop-color:#ffffff;stop-opacity:1;"
         offset="0"
         id="stop36356" /><stop
         style="stop-color:#adadad;stop-opacity:1;"
         offset="0.5"
         id="stop38296" /><stop
         style="stop-color:#ffffff;stop-opacity:1;"
         offset="1"
         id="stop36358" /></linearGradient><linearGradient
       inkscape:collect="always"
       id="linearGradient16058"><stop
         style="stop-color:#424242;stop-opacity:1;"
         offset="0"
         id="stop16054" /><stop
         style="stop-color:#a5a5a5;stop-opacity:1;"
         offset="1"
         id="stop16056" /></linearGradient><linearGradient
       inkscape:collect="always"
       id="linearGradient2248"><stop
         style="stop-color:#ededed;stop-opacity:1;"
         offset="0"
         id="stop2244" /><stop
         style="stop-color:#969696;stop-opacity:1;"
         offset="0.5"
         id="stop12188" /><stop
         style="stop-color:#f5f5f5;stop-opacity:1;"
         offset="1"
         id="stop2246" /></linearGradient><marker
       orient="auto"
       refY="0"
       refX="0"
       id="marker7593"
       style="overflow:visible"
       viewBox="0 0 12.705841 9.5264135"
       markerWidth="12.705841"
       markerHeight="9.5264139"
       preserveAspectRatio="xMidYMid"><path
         id="path7591"
         style="fill:#000000;fill-opacity:1;fill-rule:evenodd;stroke:#000000;stroke-width:0.625;stroke-linejoin:round;stroke-opacity:1"
         d="M 8.7185878,4.0337352 -2.2072895,0.01601326 8.7185884,-4.0017078 c -1.7454984,2.3720609 -1.7354408,5.6174519 -6e-7,8.035443 z"
         transform="matrix(1.1,0,0,1.1,1.1,0)" /></marker><marker
       style="overflow:visible"
       id="marker4880"
       refX="0"
       refY="0"
       orient="auto"
       viewBox="0 0 12.705841 9.5264135"
       markerWidth="12.705841"
       markerHeight="9.5264139"
       preserveAspectRatio="xMidYMid"><path
         transform="matrix(-1.1,0,0,-1.1,-1.1,0)"
         d="M 8.7185878,4.0337352 -2.2072895,0.01601326 8.7185884,-4.0017078 c -1.7454984,2.3720609 -1.7354408,5.6174519 -6e-7,8.035443 z"
         style="fill:#000000;fill-opacity:1;fill-rule:evenodd;stroke:#000000;stroke-width:0.625;stroke-linejoin:round;stroke-opacity:1"
         id="path4878" /></marker><marker
       style="overflow:visible"
       id="marker4732"
       refX="0"
       refY="0"
       orient="auto"><path
         transform="matrix(1.1,0,0,1.1,1.1,0)"
         d="M 8.7185878,4.0337352 -2.2072895,0.01601326 8.7185884,-4.0017078 c -1.7454984,2.3720609 -1.7354408,5.6174519 -6e-7,8.035443 z"
         style="fill:#000000;fill-opacity:1;fill-rule:evenodd;stroke:#000000;stroke-width:0.625;stroke-linejoin:round;stroke-opacity:1"
         id="path4730" /></marker><marker
       orient="auto"
       refY="0"
       refX="0"
       id="marker4584"
       style="overflow:visible"><path
         id="path4582"
         style="fill:#000000;fill-opacity:1;fill-rule:evenodd;stroke:#000000;stroke-width:0.625;stroke-linejoin:round;stroke-opacity:1"
         d="M 8.7185878,4.0337352 -2.2072895,0.01601326 8.7185884,-4.0017078 c -1.7454984,2.3720609 -1.7354408,5.6174519 -6e-7,8.035443 z"
         transform="matrix(-1.1,0,0,-1.1,-1.1,0)" /></marker><marker
       style="overflow:visible"
       id="marker4328"
       refX="0"
       refY="0"
       orient="auto"><path
         transform="matrix(-1.1,0,0,-1.1,-1.1,0)"
         d="M 8.7185878,4.0337352 -2.2072895,0.01601326 8.7185884,-4.0017078 c -1.7454984,2.3720609 -1.7354408,5.6174519 -6e-7,8.035443 z"
         style="fill:#000000;fill-opacity:1;fill-rule:evenodd;stroke:#000000;stroke-width:0.625;stroke-linejoin:round;stroke-opacity:1"
         id="path4326" /></marker><marker
       orient="auto"
       refY="0"
       refX="0"
       id="marker4186"
       style="overflow:visible"><path
         id="path4184"
         style="fill:#000000;fill-opacity:1;fill-rule:evenodd;stroke:#000000;stroke-width:0.625;stroke-linejoin:round;stroke-opacity:1"
         d="M 8.7185878,4.0337352 -2.2072895,0.01601326 8.7185884,-4.0017078 c -1.7454984,2.3720609 -1.7354408,5.6174519 -6e-7,8.035443 z"
         transform="matrix(1.1,0,0,1.1,1.1,0)" /></marker><marker
       style="overflow:visible"
       id="marker3948"
       refX="0"
       refY="0"
       orient="auto"><path
         transform="matrix(1.1,0,0,1.1,1.1,0)"
         d="M 8.7185878,4.0337352 -2.2072895,0.01601326 8.7185884,-4.0017078 c -1.7454984,2.3720609 -1.7354408,5.6174519 -6e-7,8.035443 z"
         style="fill:#000000;fill-opacity:1;fill-rule:evenodd;stroke:#000000;stroke-width:0.625;stroke-linejoin:round;stroke-opacity:1"
         id="path3946" /></marker><marker
       style="overflow:visible"
       id="Arrow2Lend"
       refX="0"
       refY="0"
       orient="auto"><path
         transform="matrix(-1.1,0,0,-1.1,-1.1,0)"
         d="M 8.7185878,4.0337352 -2.2072895,0.01601326 8.7185884,-4.0017078 c -1.7454984,2.3720609 -1.7354408,5.6174519 -6e-7,8.035443 z"
         style="fill:#000025;fill-opacity:1;fill-rule:evenodd;stroke:#000025;stroke-width:0.625;stroke-linejoin:round;stroke-opacity:1"
         id="path920" /></marker><marker
       style="overflow:visible"
       id="Arrow2Lstart"
       refX="0"
       refY="0"
       orient="auto"><path
         transform="matrix(1.1,0,0,1.1,1.1,0)"
         d="M 8.7185878,4.0337352 -2.2072895,0.01601326 8.7185884,-4.0017078 c -1.7454984,2.3720609 -1.7354408,5.6174519 -6e-7,8.035443 z"
         style="fill:#000025;fill-opacity:1;fill-rule:evenodd;stroke:#000025;stroke-width:0.625;stroke-linejoin:round;stroke-opacity:1"
         id="path917" /></marker><marker
       style="overflow:visible"
       id="marker7497"
       refX="0"
       refY="0"
       orient="auto"
       viewBox="0 0 6.93045877 5.19622555"
       markerWidth="6.93045877"
       markerHeight="5.19622555"
       preserveAspectRatio="xMidYMid"><path
         transform="scale(-0.6)"
         d="M 8.7185878,4.0337352 -2.2072895,0.01601326 8.7185884,-4.0017078 c -1.7454984,2.3720609 -1.7354408,5.6174519 -6e-7,8.035443 z"
         style="fill:#000025;fill-opacity:1;fill-rule:evenodd;stroke:#000025;stroke-width:0.625;stroke-linejoin:round;stroke-opacity:1"
         id="path7495" /></marker><marker
       style="overflow:visible"
       id="marker7379"
       refX="0"
       refY="0"
       orient="auto"
       viewBox="0 0 8.886927 5.078244"
       markerWidth="8.8869267"
       markerHeight="5.0782437"
       preserveAspectRatio="xMidYMid"><path
         transform="matrix(0.4,0,0,0.4,4,0)"
         style="fill:#000025;fill-opacity:1;fill-rule:evenodd;stroke:#000025;stroke-width:1pt;stroke-opacity:1"
         d="M 0,0 5,-5 -12.5,0 5,5 Z"
         id="path7377" /></marker><marker
       orient="auto"
       refY="0"
       refX="0"
       id="marker5480"
       style="overflow:visible"
       viewBox="0 0 6.9304588 5.1962256"
       markerWidth="6.9304585"
       markerHeight="5.1962252"
       preserveAspectRatio="xMidYMid"><path
         id="path5478"
         style="fill:#000000;fill-opacity:1;fill-rule:evenodd;stroke:#000000;stroke-width:0.625;stroke-linejoin:round;stroke-opacity:1"
         d="M 8.7185878,4.0337352 -2.2072895,0.01601326 8.7185884,-4.0017078 c -1.7454984,2.3720609 -1.7354408,5.6174519 -6e-7,8.035443 z"
         transform="scale(-0.6)" /></marker><marker
       orient="auto"
       refY="0"
       refX="0"
       id="marker5470"
       style="overflow:visible"><path
         id="path5468"
         style="fill:#000000;fill-opacity:1;fill-rule:evenodd;stroke:#000000;stroke-width:0.625;stroke-linejoin:round;stroke-opacity:1"
         d="M 8.7185878,4.0337352 -2.2072895,0.01601326 8.7185884,-4.0017078 c -1.7454984,2.3720609 -1.7354408,5.6174519 -6e-7,8.035443 z"
         transform="scale(-0.6)" /></marker><marker
       orient="auto"
       refY="0"
       refX="0"
       id="marker5220"
       style="overflow:visible"
       viewBox="0 0 8.88692697 5.07824398"
       markerWidth="8.88692665"
       markerHeight="5.0782438"
       preserveAspectRatio="xMidYMid"><path
         id="path5218"
         d="M 0,0 5,-5 -12.5,0 5,5 Z"
         style="fill:#000000;fill-opacity:1;fill-rule:evenodd;stroke:#000000;stroke-width:1.00000003pt;stroke-opacity:1"
         transform="matrix(0.4,0,0,0.4,4,0)" /></marker><marker
       orient="auto"
       refY="0"
       refX="0"
       id="marker5210"
       style="overflow:visible"><path
         id="path5208"
         d="M 0,0 5,-5 -12.5,0 5,5 Z"
         style="fill:#000000;fill-opacity:1;fill-rule:evenodd;stroke:#000000;stroke-width:1.00000003pt;stroke-opacity:1"
         transform="matrix(0.4,0,0,0.4,4,0)" /></marker><marker
       orient="auto"
       refY="0"
       refX="0"
       id="marker5072"
       style="overflow:visible"><path
         id="path5070"
         d="M 0,0 5,-5 -12.5,0 5,5 Z"
         style="fill:#000000;fill-opacity:1;fill-rule:evenodd;stroke:#000000;stroke-width:1pt;stroke-opacity:1"
         transform="matrix(-0.8,0,0,-0.8,-10,0)" /></marker><marker
       orient="auto"
       refY="0"
       refX="0"
       id="marker5014"
       style="overflow:visible"><path
         id="path5012"
         d="M 0,0 5,-5 -12.5,0 5,5 Z"
         style="fill:#000000;fill-opacity:1;fill-rule:evenodd;stroke:#000000;stroke-width:1.00000003pt;stroke-opacity:1"
         transform="matrix(-0.8,0,0,-0.8,-10,0)" /></marker><marker
       orient="auto"
       refY="0"
       refX="0"
       id="marker4968"
       style="overflow:visible"><path
         id="path4966"
         d="M 0,0 5,-5 -12.5,0 5,5 Z"
         style="fill:#000000;fill-opacity:1;fill-rule:evenodd;stroke:#000000;stroke-width:1.00000003pt;stroke-opacity:1"
         transform="matrix(-0.8,0,0,-0.8,-10,0)" /></marker><marker
       orient="auto"
       refY="0"
       refX="0"
       id="marker4884"
       style="overflow:visible"><path
         id="path4882"
         d="M 0,0 5,-5 -12.5,0 5,5 Z"
         style="fill:#000000;fill-opacity:1;fill-rule:evenodd;stroke:#000000;stroke-width:1.00000003pt;stroke-opacity:1"
         transform="matrix(0.8,0,0,0.8,10,0)" /></marker><marker
       orient="auto"
       refY="0"
       refX="0"
       id="marker4856"
       style="overflow:visible"><path
         id="path4854"
         d="M 0,0 5,-5 -12.5,0 5,5 Z"
         style="fill:#000000;fill-opacity:1;fill-rule:evenodd;stroke:#000000;stroke-width:1.00000003pt;stroke-opacity:1"
         transform="matrix(0.8,0,0,0.8,10,0)" /></marker><marker
       orient="auto"
       refY="0"
       refX="0"
       id="marker4834"
       style="overflow:visible"><path
         id="path4832"
         d="M 0,0 5,-5 -12.5,0 5,5 Z"
         style="fill:#000000;fill-opacity:1;fill-rule:evenodd;stroke:#000000;stroke-width:1.00000003pt;stroke-opacity:1"
         transform="matrix(0.8,0,0,0.8,10,0)" /></marker><marker
       orient="auto"
       refY="0"
       refX="0"
       id="marker5220-5"
       style="overflow:visible"><path
         id="path5218-3"
         d="M 0,0 5,-5 -12.5,0 5,5 Z"
         style="fill:#000000;fill-opacity:1;fill-rule:evenodd;stroke:#000000;stroke-width:1.00000003pt;stroke-opacity:1"
         transform="matrix(0.4,0,0,0.4,4,0)" /></marker><marker
       orient="auto"
       refY="0"
       refX="0"
       id="marker5480-5"
       style="overflow:visible"><path
         id="path5478-7"
         style="fill:#000000;fill-opacity:1;fill-rule:evenodd;stroke:#000000;stroke-width:0.625;stroke-linejoin:round;stroke-opacity:1"
         d="M 8.7185878,4.0337352 -2.2072895,0.01601326 8.7185884,-4.0017078 c -1.7454984,2.3720609 -1.7354408,5.6174519 -6e-7,8.035443 z"
         transform="scale(-0.6)" /></marker><linearGradient
       inkscape:collect="always"
       xlink:href="#linearGradient2248"
       id="linearGradient2250"
       x1="15.027481"
       y1="135.52368"
       x2="135.74386"
       y2="135.52368"
       gradientUnits="userSpaceOnUse"
       gradientTransform="matrix(0.49702748,0,0,1.0855632,62.476981,36.729604)" /><linearGradient
       inkscape:collect="always"
       xlink:href="#linearGradient16058"
       id="linearGradient16060"
       x1="79.854721"
       y1="162.59952"
       x2="152.31955"
       y2="148.93861"
       gradientUnits="userSpaceOnUse"
       gradientTransform="matrix(0.49744304,0,0,1.062723,62.444716,38.905061)" /><linearGradient
       inkscape:collect="always"
       xlink:href="#linearGradient36360"
       id="linearGradient36362"
       x1="17.011291"
       y1="-6.2249015"
       x2="161.61291"
       y2="-6.2249015"
       gradientUnits="userSpaceOnUse"
       gradientTransform="matrix(0.48828362,0,0,0.90614893,61.780998,243.57292)" /><marker
       orient="auto"
       refY="0"
       refX="0"
       id="marker7593-3"
       style="overflow:visible"
       viewBox="0 0 12.705841 9.5264135"
       markerWidth="12.705841"
       markerHeight="9.5264139"
       preserveAspectRatio="xMidYMid"><path
         id="path7591-6"
         style="fill:#000000;fill-opacity:1;fill-rule:evenodd;stroke:#000000;stroke-width:0.625;stroke-linejoin:round;stroke-opacity:1"
         d="M 8.7185878,4.0337352 -2.2072895,0.01601326 8.7185884,-4.0017078 c -1.7454984,2.3720609 -1.7354408,5.6174519 -6e-7,8.035443 z"
         transform="matrix(1.1,0,0,1.1,1.1,0)" /></marker><marker
       style="overflow:visible"
       id="marker4880-7"
       refX="0"
       refY="0"
       orient="auto"
       viewBox="0 0 12.705841 9.5264135"
       markerWidth="12.705841"
       markerHeight="9.5264139"
       preserveAspectRatio="xMidYMid"><path
         transform="matrix(-1.1,0,0,-1.1,-1.1,0)"
         d="M 8.7185878,4.0337352 -2.2072895,0.01601326 8.7185884,-4.0017078 c -1.7454984,2.3720609 -1.7354408,5.6174519 -6e-7,8.035443 z"
         style="fill:#000000;fill-opacity:1;fill-rule:evenodd;stroke:#000000;stroke-width:0.625;stroke-linejoin:round;stroke-opacity:1"
         id="path4878-5" /></marker></defs><metadata
     id="metadata5"><rdf:RDF><cc:Work
         rdf:about=""><dc:format>image/svg+xml</dc:format><dc:type
           rdf:resource="http://purl.org/dc/dcmitype/StillImage" /></cc:Work></rdf:RDF></metadata><path
     id="path4520"
     d="m 76.189424,29.220002 v 51.739706 h -6.471269 l -0.04257,146.513992 35.625025,43.01486 35.76255,-43.18515 V 80.959708 h -6.31978 V 29.220002"
     style="fill:#e4e4e4;fill-opacity:1;stroke:#000000;stroke-width:1.44887;stroke-linecap:butt;stroke-linejoin:miter;stroke-dasharray:none;stroke-opacity:1"
     sodipodi:nodetypes="ccccccccc" /><path
     id="path3652"
     d="m 70.087337,227.38686 h 70.606653 l -35.56171,41.89821 z"
     style="fill:url(#linearGradient36362);fill-opacity:1;stroke:none;stroke-width:1.33035;stroke-linecap:butt;stroke-linejoin:miter;stroke-miterlimit:4;stroke-dasharray:none;stroke-opacity:1"
     sodipodi:nodetypes="cccc" /><path
     style="fill:url(#linearGradient2250);fill-opacity:1;stroke:none;stroke-width:0.194347px;stroke-linecap:butt;stroke-linejoin:miter;stroke-opacity:1"
     d="m 70.01379,227.48096 70.69325,-0.13068 -0.11267,-145.811109 -70.404972,0.08278 z"
     id="path1389"
     sodipodi:nodetypes="ccccc" /><path
     style="fill:url(#linearGradient16060);fill-opacity:1;stroke:none;stroke-width:0.192373px;stroke-linecap:butt;stroke-linejoin:miter;stroke-opacity:1"
     d="m 105.04679,269.90115 c 0,0 3.36583,-9.68019 7.12191,-18.85411 3.75608,-9.17391 9.47164,-23.74348 9.47164,-23.74348 h 19.15667 z"
     id="path1249"
     sodipodi:nodetypes="czccc" /><g
     id="path4542"><path
       style="color:#000000;fill:#000000;-inkscape-stroke:none"
       d="m 78.908203,70.167969 v 0.730468 h 53.039067 v -0.730468 z"
       id="path106772" /><g
       id="g106754"><g
         id="path106764"><path
           style="color:#000000;fill:#000000;fill-rule:evenodd;stroke-width:0.502173;stroke-linejoin:round;-inkscape-stroke:none"
           d="m 124.13765,67.29212 8.7787,3.228149 -8.7787,3.228148 c 1.40247,-1.905898 1.39439,-4.513496 0,-6.456297 z"
           id="path106768" /><path
           style="color:#000000;fill:#000000;fill-rule:evenodd;stroke-linejoin:round;-inkscape-stroke:none"
           d="m 124.22461,67.056641 a 0.25111161,0.25111161 0 0 0 -0.29102,0.382812 c 1.3326,1.85671 1.33936,4.342687 0.002,6.160156 a 0.25111161,0.25111161 0 0 0 0.28906,0.384766 l 8.7793,-3.228516 a 0.25111161,0.25111161 0 0 0 0,-0.470703 z m 0.41797,0.689453 7.54687,2.773437 -7.54101,2.773438 c 0.96981,-1.72581 0.96309,-3.799822 -0.006,-5.546875 z"
           id="path106770" /></g><g
         id="path106756"><path
           style="color:#000000;fill:#000000;fill-rule:evenodd;stroke-width:0.502173;stroke-linejoin:round;-inkscape-stroke:none"
           d="m 86.717402,73.77415 -8.778696,-3.228149 8.778696,-3.228148 c -1.402468,1.905898 -1.394387,4.513496 0,6.456297 z"
           id="path106760" /><path
           style="color:#000000;fill:#000000;fill-rule:evenodd;stroke-linejoin:round;-inkscape-stroke:none"
           d="m 86.630859,67.082031 -8.779297,3.228516 a 0.25111161,0.25111161 0 0 0 0,0.470703 l 8.779297,3.228516 a 0.25111161,0.25111161 0 0 0 0.291016,-0.382813 c -1.332598,-1.85671 -1.339351,-4.342686 -0.002,-6.160156 a 0.25111161,0.25111161 0 0 0 -0.289063,-0.384766 z m -0.423828,0.691406 c -0.969807,1.725811 -0.963093,3.799822 0.0059,5.546875 l -7.546875,-2.773437 z"
           id="path106762" /></g></g></g><g
     id="path4542-3"><path
       style="color:#000000;fill:#000000;-inkscape-stroke:none"
       d="m 71.574219,109.5957 v 0.82422 h 67.755861 v -0.82422 z"
       id="path106742" /><g
       id="g106724"><g
         id="path106734"><path
           style="color:#000000;fill:#000000;fill-rule:evenodd;stroke-width:0.567595;stroke-linejoin:round;-inkscape-stroke:none"
           d="m 130.50474,106.34464 9.92236,3.64871 -9.92236,3.6487 c 1.58518,-2.15419 1.57605,-5.1015 0,-7.29741 z"
           id="path106738" /><path
           style="color:#000000;fill:#000000;fill-rule:evenodd;stroke-linejoin:round;-inkscape-stroke:none"
           d="m 130.60352,106.07813 a 0.28382588,0.28382588 0 0 0 -0.33008,0.43164 c 1.50621,2.0986 1.51358,4.9106 0.002,6.96484 a 0.28382588,0.28382588 0 0 0 0.32813,0.43359 l 9.92187,-3.64843 a 0.28382588,0.28382588 0 0 0 0,-0.53321 z m 0.47265,0.77929 8.5293,3.13477 -8.52344,3.13476 c 1.09546,-1.95029 1.08888,-4.29532 -0.006,-6.26953 z"
           id="path106740" /></g><g
         id="path106726"><path
           style="color:#000000;fill:#000000;fill-rule:evenodd;stroke-width:0.567595;stroke-linejoin:round;-inkscape-stroke:none"
           d="m 80.399697,113.67114 -9.922361,-3.64871 9.922361,-3.6487 c -1.585178,2.15419 -1.576044,5.1015 0,7.29741 z"
           id="path106730" /><path
           style="color:#000000;fill:#000000;fill-rule:evenodd;stroke-linejoin:round;-inkscape-stroke:none"
           d="m 80.300781,106.10742 -9.921875,3.64844 a 0.28382588,0.28382588 0 0 0 0,0.5332 l 9.921875,3.64844 a 0.28382588,0.28382588 0 0 0 0.330078,-0.43164 c -1.506205,-2.0986 -1.513583,-4.9106 -0.002,-6.96484 a 0.28382588,0.28382588 0 0 0 -0.328125,-0.4336 z m -0.478515,0.78125 c -1.095456,1.9503 -1.088872,4.29533 0.0059,6.26953 l -8.527344,-3.13476 z"
           id="path106732" /></g></g></g><text
     transform="scale(0.9316925,1.0733155)"
     id="shank_diameter"
     y="61.487053"
     x="101.16568"
     style="font-style:normal;font-variant:normal;font-weight:normal;font-stretch:normal;font-size:33.6467px;line-height:1.25;font-family:'URW Bookman L';-inkscape-font-specification:'URW Bookman L, Normal';font-variant-ligatures:normal;font-variant-caps:normal;font-variant-numeric:normal;font-feature-settings:normal;text-align:start;letter-spacing:0px;word-spacing:0px;writing-mode:lr-tb;text-anchor:start;fill:#000000;fill-opacity:1;stroke:none;stroke-width:3.15438"
     xml:space="preserve"><tspan
       style="font-style:normal;font-variant:normal;font-weight:normal;font-stretch:normal;font-size:33.6467px;font-family:'URW Bookman L';-inkscape-font-specification:'URW Bookman L, Normal';font-variant-ligatures:normal;font-variant-caps:normal;font-variant-numeric:normal;font-feature-settings:normal;text-align:start;writing-mode:lr-tb;text-anchor:start;stroke-width:3.15438"
       y="61.487053"
       x="101.16568"
       id="tspan5678">S</tspan></text><text
     transform="scale(0.91996447,1.0869985)"
     id="diameter"
     y="133.0817"
     x="101.28577"
     style="font-style:normal;font-variant:normal;font-weight:normal;font-stretch:normal;font-size:34.0757px;line-height:1.25;font-family:'URW Bookman L';-inkscape-font-specification:'URW Bookman L, Normal';font-variant-ligatures:normal;font-variant-caps:normal;font-variant-numeric:normal;font-feature-settings:normal;text-align:start;letter-spacing:0px;word-spacing:0px;writing-mode:lr-tb;text-anchor:start;fill:#000000;fill-opacity:1;stroke:none;stroke-width:3.1946"
     xml:space="preserve"><tspan
       style="font-style:normal;font-variant:normal;font-weight:normal;font-stretch:normal;font-size:34.0757px;font-family:'URW Bookman L';-inkscape-font-specification:'URW Bookman L, Normal';font-variant-ligatures:normal;font-variant-caps:normal;font-variant-numeric:normal;font-feature-settings:normal;text-align:start;writing-mode:lr-tb;text-anchor:start;stroke-width:3.1946"
       y="133.0817"
       x="101.28577"
       id="tspan5690">D</tspan></text><path
     d="m 70.391848,220.93815 a 49.287517,49.590925 89.920721 0 1 69.329632,0.11418"
     id="path5698"
     style="fill:none;fill-opacity:1;stroke:#000025;stroke-width:1.06959;stroke-miterlimit:4;stroke-dasharray:none;stroke-dashoffset:0;stroke-opacity:1;marker-start:url(#marker7593);marker-end:url(#marker4880)" /><text
     transform="scale(1.0847256,0.92189217)"
     id="cutting_edge_angle"
     y="213.85809"
     x="97.841621"
     style="font-style:normal;font-variant:normal;font-weight:normal;font-stretch:normal;font-size:32.8517px;line-height:1.25;font-family:'URW Bookman L';-inkscape-font-specification:'URW Bookman L, Normal';font-variant-ligatures:normal;font-variant-caps:normal;font-variant-numeric:normal;font-feature-settings:normal;text-align:start;letter-spacing:0px;word-spacing:0px;writing-mode:lr-tb;text-anchor:start;fill:#000000;fill-opacity:1;stroke:none;stroke-width:2.06252;stroke-dasharray:none"
     xml:space="preserve"><tspan
       style="stroke-width:2.06252;stroke-dasharray:none"
       y="213.85809"
       x="97.841621"
       id="tspan5718">α</tspan></text><path
     id="path4548-6"
     d="m 145.5928,227.48015 h 18.38097"
     style="fill:none;stroke:#000000;stroke-width:1;stroke-linecap:butt;stroke-linejoin:miter;stroke-miterlimit:4;stroke-dasharray:none;stroke-opacity:1"
     sodipodi:nodetypes="cc" /><text
     transform="scale(0.93489136,1.069643)"
     id="cutting_edge_height"
     y="157.95256"
     x="173.49055"
     style="font-style:normal;font-variant:normal;font-weight:normal;font-stretch:normal;font-size:29.311px;line-height:1.25;font-family:'URW Bookman L';-inkscape-font-specification:'URW Bookman L, Normal';font-variant-ligatures:normal;font-variant-caps:normal;font-variant-numeric:normal;font-variant-east-asian:normal;text-align:start;letter-spacing:0px;word-spacing:0px;writing-mode:lr-tb;text-anchor:start;fill:#000000;fill-opacity:1;stroke:none;stroke-width:3.41031"
     xml:space="preserve"><tspan
       y="157.95256"
       x="173.49055"
       id="tspan7855"
       style="font-style:normal;font-variant:normal;font-weight:normal;font-stretch:normal;font-size:29.311px;font-family:'URW Bookman L';-inkscape-font-specification:'URW Bookman L, Normal';font-variant-ligatures:normal;font-variant-caps:normal;font-variant-numeric:normal;font-variant-east-asian:normal;stroke-width:3.41031">h</tspan></text><g
     id="sesr3u8"><path
       style="color:#000000;fill:#000000;-inkscape-stroke:none"
       d="M 153.78711,85.722656 V 224.09766 h 1.16601 V 85.722656 Z"
       id="path106832" /><g
       id="g106814"><g
         id="path106824"><path
           style="color:#000000;fill:#000000;fill-rule:evenodd;stroke-width:0.801659;stroke-linejoin:round;-inkscape-stroke:none"
           d="m 149.19613,98.18845 5.15335,-14.014131 5.15335,14.014132 c -3.04254,-2.238873 -7.20525,-2.225972 -10.3067,-10e-7 z"
           id="path106828" /><path
           style="color:#000000;fill:#000000;fill-rule:evenodd;stroke-linejoin:round;-inkscape-stroke:none"
           d="m 154.34961,83.773437 a 0.40086958,0.40086958 0 0 0 -0.37695,0.261719 l -5.15235,14.015625 a 0.40086958,0.40086958 0 0 0 0.60938,0.462891 c 2.96401,-2.127332 6.93456,-2.136949 9.83593,-0.002 a 0.40086958,0.40086958 0 0 0 0.61329,-0.460938 l -5.15235,-14.015625 a 0.40086958,0.40086958 0 0 0 -0.37695,-0.261719 z m 0,1.564454 4.42578,12.035156 c -2.75492,-1.548014 -6.06663,-1.53882 -8.85547,0.0078 z"
           id="path106830" /></g><g
         id="path106816"><path
           style="color:#000000;fill:#000000;fill-rule:evenodd;stroke-width:0.801659;stroke-linejoin:round;-inkscape-stroke:none"
           d="m 159.54391,211.6327 -5.15335,14.01413 -5.15335,-14.01414 c 3.04254,2.23888 7.20525,2.22598 10.3067,1e-5 z"
           id="path106820" /><path
           style="color:#000000;fill:#000000;fill-rule:evenodd;stroke-linejoin:round;-inkscape-stroke:none"
           d="m 159.63281,211.24219 a 0.40086958,0.40086958 0 0 0 -0.32226,0.0644 c -2.96402,2.12733 -6.93457,2.13891 -9.83594,0.004 a 0.40086958,0.40086958 0 0 0 -0.61328,0.46093 l 5.15234,14.01368 a 0.40086958,0.40086958 0 0 0 0.75391,0 l 5.15234,-14.01368 a 0.40086958,0.40086958 0 0 0 -0.28711,-0.52929 z m -0.8125,1.19922 -4.42969,12.04101 -4.42578,-12.0332 c 2.75475,1.54769 6.06685,1.53857 8.85547,-0.008 z"
           id="path106822" /></g></g></g><path
     id="path936"
     d="M 21.764217,29.347942 H 72.731009"
     style="fill:none;stroke:#000000;stroke-width:1.05609;stroke-linecap:butt;stroke-linejoin:miter;stroke-miterlimit:4;stroke-dasharray:none;stroke-opacity:1"
     sodipodi:nodetypes="cc" /><path
     id="path938"
     d="m 19.64521,270.25431 h 83.99998"
     style="fill:none;stroke:#000000;stroke-width:0.810251;stroke-linecap:butt;stroke-linejoin:miter;stroke-miterlimit:4;stroke-dasharray:none;stroke-opacity:1" /><g
     id="path940"><path
       style="color:#000000;fill:#000000;-inkscape-stroke:none"
       d="M 27.40625,33.679687 V 266.05469 h 1.246094 V 33.679687 Z"
       id="path106802" /><g
       id="g106784"><g
         id="path106794"><path
           style="color:#000000;fill:#000000;fill-rule:evenodd;stroke-width:0.85657;stroke-linejoin:round;-inkscape-stroke:none"
           d="m 22.500222,47.000032 5.506336,-14.974046 5.506334,14.974046 c -3.250937,-2.392226 -7.698785,-2.378442 -11.01267,0 z"
           id="path106798" /><path
           style="color:#000000;fill:#000000;fill-rule:evenodd;stroke-linejoin:round;-inkscape-stroke:none"
           d="m 28.005859,31.597656 a 0.42832783,0.42832783 0 0 0 -0.40039,0.28125 L 22.097656,46.851562 A 0.42832783,0.42832783 0 0 0 22.75,47.347656 c 3.167037,-2.273046 7.409663,-2.283186 10.509766,-0.002 a 0.42832783,0.42832783 0 0 0 0.654296,-0.494141 L 28.408203,31.878906 a 0.42832783,0.42832783 0 0 0 -0.402344,-0.28125 z m 0.002,1.667969 4.728516,12.861328 c -2.943354,-1.653442 -6.48341,-1.642463 -9.462891,0.0098 z"
           id="path106800" /></g><g
         id="path106786"><path
           style="color:#000000;fill:#000000;fill-rule:evenodd;stroke-width:0.85657;stroke-linejoin:round;-inkscape-stroke:none"
           d="m 33.556786,252.73503 -5.506336,14.97404 -5.506334,-14.97404 c 3.250937,2.39222 7.698785,2.37844 11.01267,0 z"
           id="path106790" /><path
           style="color:#000000;fill:#000000;fill-rule:evenodd;stroke-linejoin:round;-inkscape-stroke:none"
           d="m 33.652344,252.31836 a 0.42832783,0.42832783 0 0 0 -0.345703,0.0684 c -3.167037,2.27304 -7.40771,2.28513 -10.507813,0.004 a 0.42832783,0.42832783 0 0 0 -0.65625,0.49219 l 5.505859,14.97461 a 0.42832783,0.42832783 0 0 0 0.804688,0 l 5.505859,-14.97461 a 0.42832783,0.42832783 0 0 0 -0.30664,-0.56445 z m -0.869141,1.2793 -4.732422,12.86914 -4.730469,-12.85938 c 2.943681,1.65447 6.482796,1.6428 9.462891,-0.01 z"
           id="path106792" /></g></g></g><text
     transform="scale(0.95174658,1.0506999)"
     id="length"
     y="144.60545"
     x="7.1433425"
     style="font-style:normal;font-variant:normal;font-weight:normal;font-stretch:normal;font-size:28.7919px;line-height:1.25;font-family:'URW Bookman L';-inkscape-font-specification:'URW Bookman L, Normal';font-variant-ligatures:normal;font-variant-caps:normal;font-variant-numeric:normal;font-variant-east-asian:normal;text-align:start;letter-spacing:0px;word-spacing:0px;writing-mode:lr-tb;text-anchor:start;fill:#000000;fill-opacity:1;stroke:none;stroke-width:3.34991"
     xml:space="preserve"><tspan
       y="144.60545"
       x="7.1433425"
       id="tspan942"
       style="font-style:normal;font-variant:normal;font-weight:normal;font-stretch:normal;font-size:28.7919px;font-family:'URW Bookman L';-inkscape-font-specification:'URW Bookman L, Normal';font-variant-ligatures:normal;font-variant-caps:normal;font-variant-numeric:normal;font-variant-east-asian:normal;stroke-width:3.34991">L</tspan></text><path
     id="path1164"
     d="m 145.5928,82.449104 h 18.38097"
     style="fill:none;stroke:#000000;stroke-width:1;stroke-linecap:butt;stroke-linejoin:miter;stroke-miterlimit:4;stroke-dasharray:none;stroke-opacity:1"
     sodipodi:nodetypes="cc" /></svg>
