<?xml version="1.0" encoding="UTF-8" standalone="no"?>
<!-- Created with Inkscape (http://www.inkscape.org/) -->

<svg
   width="210mm"
   height="297mm"
   viewBox="0 0 210 297"
   version="1.1"
   id="svg5"
   xml:space="preserve"
   inkscape:version="1.2.2 (b0a8486541, 2022-12-01)"
   sodipodi:docname="taperedballnose.svg"
   xmlns:inkscape="http://www.inkscape.org/namespaces/inkscape"
   xmlns:sodipodi="http://sodipodi.sourceforge.net/DTD/sodipodi-0.dtd"
   xmlns:xlink="http://www.w3.org/1999/xlink"
   xmlns="http://www.w3.org/2000/svg"
   xmlns:svg="http://www.w3.org/2000/svg"><sodipodi:namedview
     id="namedview7"
     pagecolor="#ffffff"
     bordercolor="#666666"
     borderopacity="1.0"
     inkscape:showpageshadow="2"
     inkscape:pageopacity="0.0"
     inkscape:pagecheckerboard="true"
     inkscape:deskcolor="#d1d1d1"
     inkscape:document-units="mm"
     showgrid="false"
     inkscape:zoom="0.53432333"
     inkscape:cx="129.13529"
     inkscape:cy="646.61223"
     inkscape:window-width="1632"
     inkscape:window-height="1013"
     inkscape:window-x="1728"
     inkscape:window-y="1050"
     inkscape:window-maximized="1"
     inkscape:current-layer="g547"
     showguides="true"><inkscape:grid
       type="xygrid"
       id="grid482" /></sodipodi:namedview><defs
     id="defs2"><linearGradient
       inkscape:collect="always"
       id="linearGradient2387"><stop
         style="stop-color:#2e2e2e;stop-opacity:1;"
         offset="0"
         id="stop2383" /><stop
         style="stop-color:#a09e9e;stop-opacity:1;"
         offset="1"
         id="stop2385" /></linearGradient><linearGradient
       inkscape:collect="always"
       xlink:href="#linearGradient2387"
       id="linearGradient2389"
       x1="96.292923"
       y1="98.227234"
       x2="115.44387"
       y2="101.37556"
       gradientUnits="userSpaceOnUse"
       gradientTransform="matrix(2.1039352,0,0,2.0769214,-118.55184,-31.78813)" /><marker
       style="overflow:visible"
       id="marker1181-3"
       refX="0"
       refY="0"
       orient="auto"
       viewBox="0 0 12.705841 9.5264135"
       markerWidth="12.705841"
       markerHeight="9.5264139"
       preserveAspectRatio="xMidYMid"><path
         transform="matrix(1.1,0,0,1.1,1.1,0)"
         d="M 8.7185878,4.0337352 -2.2072895,0.01601326 8.7185884,-4.0017078 c -1.7454984,2.3720609 -1.7354408,5.6174519 -6e-7,8.035443 z"
         style="fill:#000000;fill-opacity:1;fill-rule:evenodd;stroke:#000000;stroke-width:0.625;stroke-linejoin:round;stroke-opacity:1"
         id="path1179-6" /></marker><marker
       style="overflow:visible"
       id="marker1185-7"
       refX="0"
       refY="0"
       orient="auto"
       viewBox="0 0 12.705841 9.5264135"
       markerWidth="12.705841"
       markerHeight="9.5264139"
       preserveAspectRatio="xMidYMid"><path
         transform="matrix(-1.1,0,0,-1.1,-1.1,0)"
         d="M 8.7185878,4.0337352 -2.2072895,0.01601326 8.7185884,-4.0017078 c -1.7454984,2.3720609 -1.7354408,5.6174519 -6e-7,8.035443 z"
         style="fill:#000000;fill-opacity:1;fill-rule:evenodd;stroke:#000000;stroke-width:0.625;stroke-linejoin:round;stroke-opacity:1"
         id="path1183-5" /></marker><marker
       style="overflow:visible"
       id="marker1181-3-6"
       refX="0"
       refY="0"
       orient="auto"><path
         transform="matrix(1.1,0,0,1.1,1.1,0)"
         d="M 8.7185878,4.0337352 -2.2072895,0.01601326 8.7185884,-4.0017078 c -1.7454984,2.3720609 -1.7354408,5.6174519 -6e-7,8.035443 z"
         style="fill:#000000;fill-opacity:1;fill-rule:evenodd;stroke:#000000;stroke-width:0.625;stroke-linejoin:round;stroke-opacity:1"
         id="path1179-6-7" /></marker><marker
       style="overflow:visible"
       id="marker1185-7-5"
       refX="0"
       refY="0"
       orient="auto"><path
         transform="matrix(-1.1,0,0,-1.1,-1.1,0)"
         d="M 8.7185878,4.0337352 -2.2072895,0.01601326 8.7185884,-4.0017078 c -1.7454984,2.3720609 -1.7354408,5.6174519 -6e-7,8.035443 z"
         style="fill:#000000;fill-opacity:1;fill-rule:evenodd;stroke:#000000;stroke-width:0.625;stroke-linejoin:round;stroke-opacity:1"
         id="path1183-5-3" /></marker><marker
       style="overflow:visible"
       id="Arrow2Lstart-3"
       refX="0"
       refY="0"
       orient="auto"><path
         transform="matrix(1.1,0,0,1.1,1.1,0)"
         d="M 8.7185878,4.0337352 -2.2072895,0.01601326 8.7185884,-4.0017078 c -1.7454984,2.3720609 -1.7354408,5.6174519 -6e-7,8.035443 z"
         style="fill:#000000;fill-opacity:1;fill-rule:evenodd;stroke:#000000;stroke-width:0.625;stroke-linejoin:round;stroke-opacity:1"
         id="path917-5" /></marker><marker
       style="overflow:visible"
       id="Arrow2Lend-6"
       refX="0"
       refY="0"
       orient="auto"><path
         transform="matrix(-1.1,0,0,-1.1,-1.1,0)"
         d="M 8.7185878,4.0337352 -2.2072895,0.01601326 8.7185884,-4.0017078 c -1.7454984,2.3720609 -1.7354408,5.6174519 -6e-7,8.035443 z"
         style="fill:#000000;fill-opacity:1;fill-rule:evenodd;stroke:#000000;stroke-width:0.625;stroke-linejoin:round;stroke-opacity:1"
         id="path920-2" /></marker><marker
       style="overflow:visible"
       id="marker1181"
       refX="0"
       refY="0"
       orient="auto"><path
         transform="matrix(1.1,0,0,1.1,1.1,0)"
         d="M 8.7185878,4.0337352 -2.2072895,0.01601326 8.7185884,-4.0017078 c -1.7454984,2.3720609 -1.7354408,5.6174519 -6e-7,8.035443 z"
         style="fill:#000000;fill-opacity:1;fill-rule:evenodd;stroke:#000000;stroke-width:0.625;stroke-linejoin:round;stroke-opacity:1"
         id="path1179" /></marker><marker
       style="overflow:visible"
       id="marker1185"
       refX="0"
       refY="0"
       orient="auto"><path
         transform="matrix(-1.1,0,0,-1.1,-1.1,0)"
         d="M 8.7185878,4.0337352 -2.2072895,0.01601326 8.7185884,-4.0017078 c -1.7454984,2.3720609 -1.7354408,5.6174519 -6e-7,8.035443 z"
         style="fill:#000000;fill-opacity:1;fill-rule:evenodd;stroke:#000000;stroke-width:0.625;stroke-linejoin:round;stroke-opacity:1"
         id="path1183" /></marker><marker
       style="overflow:visible"
       id="marker1173"
       refX="0"
       refY="0"
       orient="auto"><path
         transform="matrix(1.1,0,0,1.1,1.1,0)"
         d="M 8.7185878,4.0337352 -2.2072895,0.01601326 8.7185884,-4.0017078 c -1.7454984,2.3720609 -1.7354408,5.6174519 -6e-7,8.035443 z"
         style="fill:#000000;fill-opacity:1;fill-rule:evenodd;stroke:#000000;stroke-width:0.625;stroke-linejoin:round;stroke-opacity:1"
         id="path1171" /></marker><marker
       style="overflow:visible"
       id="marker1177"
       refX="0"
       refY="0"
       orient="auto"><path
         transform="matrix(-1.1,0,0,-1.1,-1.1,0)"
         d="M 8.7185878,4.0337352 -2.2072895,0.01601326 8.7185884,-4.0017078 c -1.7454984,2.3720609 -1.7354408,5.6174519 -6e-7,8.035443 z"
         style="fill:#000000;fill-opacity:1;fill-rule:evenodd;stroke:#000000;stroke-width:0.625;stroke-linejoin:round;stroke-opacity:1"
         id="path1175" /></marker><marker
       style="overflow:visible"
       id="Arrow2Lstart"
       refX="0"
       refY="0"
       orient="auto"><path
         transform="matrix(1.1,0,0,1.1,1.1,0)"
         d="M 8.7185878,4.0337352 -2.2072895,0.01601326 8.7185884,-4.0017078 c -1.7454984,2.3720609 -1.7354408,5.6174519 -6e-7,8.035443 z"
         style="fill:#000000;fill-opacity:1;fill-rule:evenodd;stroke:#000000;stroke-width:0.625;stroke-linejoin:round;stroke-opacity:1"
         id="path917" /></marker><marker
       style="overflow:visible"
       id="Arrow2Lend"
       refX="0"
       refY="0"
       orient="auto"><path
         transform="matrix(-1.1,0,0,-1.1,-1.1,0)"
         d="M 8.7185878,4.0337352 -2.2072895,0.01601326 8.7185884,-4.0017078 c -1.7454984,2.3720609 -1.7354408,5.6174519 -6e-7,8.035443 z"
         style="fill:#000000;fill-opacity:1;fill-rule:evenodd;stroke:#000000;stroke-width:0.625;stroke-linejoin:round;stroke-opacity:1"
         id="path920" /></marker><marker
       style="overflow:visible"
       id="Arrow2Lstart-36"
       refX="0"
       refY="0"
       orient="auto"><path
         transform="matrix(1.1,0,0,1.1,1.1,0)"
         d="M 8.7185878,4.0337352 -2.2072895,0.01601326 8.7185884,-4.0017078 c -1.7454984,2.3720609 -1.7354408,5.6174519 -6e-7,8.035443 z"
         style="fill:#000025;fill-opacity:1;fill-rule:evenodd;stroke:#000025;stroke-width:0.625;stroke-linejoin:round;stroke-opacity:1"
         id="path917-7" /></marker><marker
       style="overflow:visible"
       id="Arrow2Lend-5"
       refX="0"
       refY="0"
       orient="auto"><path
         transform="matrix(-1.1,0,0,-1.1,-1.1,0)"
         d="M 8.7185878,4.0337352 -2.2072895,0.01601326 8.7185884,-4.0017078 c -1.7454984,2.3720609 -1.7354408,5.6174519 -6e-7,8.035443 z"
         style="fill:#000025;fill-opacity:1;fill-rule:evenodd;stroke:#000025;stroke-width:0.625;stroke-linejoin:round;stroke-opacity:1"
         id="path920-3" /></marker><linearGradient
       inkscape:collect="always"
       id="linearGradient82685"><stop
         style="stop-color:#cecece;stop-opacity:1;"
         offset="0"
         id="stop82681" /><stop
         style="stop-color:#fdfdfd;stop-opacity:1;"
         offset="0.25040859"
         id="stop87441" /><stop
         style="stop-color:#6d6d6d;stop-opacity:1;"
         offset="0.55378878"
         id="stop92591" /><stop
         style="stop-color:#bebebe;stop-opacity:1;"
         offset="1"
         id="stop82683" /></linearGradient><linearGradient
       inkscape:collect="always"
       xlink:href="#linearGradient82685"
       id="linearGradient41"
       gradientUnits="userSpaceOnUse"
       gradientTransform="matrix(0.94381837,0,0,0.94381837,85.366467,13.133078)"
       x1="-11.74963"
       y1="90.752769"
       x2="49.803375"
       y2="90.752769" /><linearGradient
       inkscape:collect="always"
       xlink:href="#linearGradient2387"
       id="linearGradient49"
       gradientUnits="userSpaceOnUse"
       gradientTransform="matrix(2.1039352,0,0,2.0769214,-118.55184,-31.78813)"
       x1="96.292923"
       y1="98.227234"
       x2="115.44387"
       y2="101.37556" /><linearGradient
       inkscape:collect="always"
       xlink:href="#linearGradient2387"
       id="linearGradient50"
       gradientUnits="userSpaceOnUse"
       gradientTransform="matrix(2.1039352,0,0,2.0769214,-118.55184,-31.78813)"
       x1="96.292923"
       y1="98.227234"
       x2="115.44387"
       y2="101.37556" /><linearGradient
       inkscape:collect="always"
       xlink:href="#linearGradient2387"
       id="linearGradient51"
       gradientUnits="userSpaceOnUse"
       gradientTransform="matrix(2.1039352,0,0,2.0769214,-118.55184,-31.78813)"
       x1="96.292923"
       y1="98.227234"
       x2="115.44387"
       y2="101.37556" /></defs><g
     inkscape:label="Layer 1"
     inkscape:groupmode="layer"
     id="layer1"><g
       id="g547"
       transform="matrix(1.0595259,0,0,1.0595259,-5.9958564,-17.148658)"><path
         id="path4538-5"
         d="M 109.635,275.24679 V 259.46363"
         style="display:inline;fill:none;stroke:#000000;stroke-width:0.593177;stroke-linecap:butt;stroke-linejoin:miter;stroke-miterlimit:4;stroke-dasharray:none;stroke-opacity:1" /><g
         id="path4542-3"><path
           style="color:#000000;fill:#000000;-inkscape-stroke:none"
           d="m 75.005859,40.150391 v 0.53125 h 46.150391 v -0.53125 z"
           id="path129833" /><g
           id="g129815"><g
             id="path129825"><path
               style="color:#000000;fill:#000000;fill-rule:evenodd;stroke-width:0.364601;stroke-linejoin:round;-inkscape-stroke:none"
               d="m 115.48644,38.062573 6.37374,2.343785 -6.37374,2.343786 c 1.01825,-1.38377 1.01239,-3.277008 0,-4.687571 z"
               id="path129829" /><path
               style="color:#000000;fill:#000000;fill-rule:evenodd;stroke-linejoin:round;-inkscape-stroke:none"
               d="m 115.54883,37.890625 a 0.18231872,0.18231872 0 0 0 -0.21094,0.277344 c 0.96753,1.348056 0.97296,3.155042 0.002,4.474609 a 0.18231872,0.18231872 0 0 0 0.20899,0.279297 l 6.375,-2.34375 a 0.18231872,0.18231872 0 0 0 0,-0.34375 z m 0.2168,0.46875 5.56445,2.046875 -5.56445,2.046875 c 0.74168,-1.277267 0.73936,-2.799694 0,-4.09375 z"
               id="path129831" /></g><g
             id="path129817"><path
               style="color:#000000;fill:#000000;fill-rule:evenodd;stroke-width:0.364601;stroke-linejoin:round;-inkscape-stroke:none"
               d="m 80.675316,42.768827 -6.373741,-2.343785 6.373741,-2.343786 c -1.018257,1.38377 -1.01239,3.277008 0,4.687571 z"
               id="path129821" /><path
               style="color:#000000;fill:#000000;fill-rule:evenodd;stroke-linejoin:round;-inkscape-stroke:none"
               d="m 80.613281,37.910156 -6.375,2.34375 a 0.18231872,0.18231872 0 0 0 0,0.341797 l 6.375,2.34375 a 0.18231872,0.18231872 0 0 0 0.210938,-0.277344 c -0.967528,-1.348056 -0.972966,-3.153089 -0.002,-4.472656 a 0.18231872,0.18231872 0 0 0 -0.208985,-0.279297 z m -0.216797,0.466797 c -0.741739,1.277358 -0.739516,2.801597 0,4.095703 l -5.566406,-2.046875 z"
               id="path129823" /></g></g></g><text
         transform="scale(0.97131606,1.029531)"
         id="shank_diameter"
         y="34.95417"
         x="92.861847"
         style="font-style:normal;font-variant:normal;font-weight:normal;font-stretch:normal;font-size:25.7549px;line-height:1.25;font-family:'URW Bookman L';-inkscape-font-specification:'URW Bookman L, Normal';font-variant-ligatures:normal;font-variant-caps:normal;font-variant-numeric:normal;font-feature-settings:normal;text-align:start;letter-spacing:0px;word-spacing:0px;writing-mode:lr-tb;text-anchor:start;display:inline;fill:#000000;fill-opacity:1;stroke:none;stroke-width:2.41453"
         xml:space="preserve"><tspan
           style="font-style:normal;font-variant:normal;font-weight:normal;font-stretch:normal;font-size:25.7549px;font-family:'URW Bookman L';-inkscape-font-specification:'URW Bookman L, Normal';font-variant-ligatures:normal;font-variant-caps:normal;font-variant-numeric:normal;font-feature-settings:normal;text-align:start;writing-mode:lr-tb;text-anchor:start;stroke-width:2.41453"
           y="34.95417"
           x="92.861847"
           id="tspan5690">S</tspan></text><text
         transform="scale(0.97131606,1.029531)"
         id="cutting_edge_height"
         y="229.71272"
         x="139.82001"
         style="font-style:normal;font-variant:normal;font-weight:normal;font-stretch:normal;font-size:25.7549px;line-height:1.25;font-family:'URW Bookman L';-inkscape-font-specification:'URW Bookman L, Normal';font-variant-ligatures:normal;font-variant-caps:normal;font-variant-numeric:normal;font-feature-settings:normal;text-align:start;letter-spacing:0px;word-spacing:0px;writing-mode:lr-tb;text-anchor:start;display:inline;fill:#000000;fill-opacity:1;stroke:none;stroke-width:2.41453"
         xml:space="preserve">h</text><path
         id="path4538-8"
         d="M 86.135046,275.24679 V 260.08473"
         style="display:inline;fill:none;stroke:#000000;stroke-width:0.593176;stroke-linecap:butt;stroke-linejoin:miter;stroke-miterlimit:4;stroke-dasharray:none;stroke-opacity:1" /><g
         id="path897-5"><path
           style="color:#000000;fill:#000000;-inkscape-stroke:none"
           d="m 132.83203,194.27734 v 71.49219 h 0.81641 v -71.49219 z"
           id="path129953" /><g
           id="g129935"><g
             id="path129945"><path
               style="color:#000000;fill:#000000;fill-rule:evenodd;stroke-width:0.561305;stroke-linejoin:round;-inkscape-stroke:none"
               d="m 136.86256,257.04212 -3.60827,9.8124 -3.60827,-9.8124 c 2.13032,1.56761 5.04497,1.55858 7.21654,0 z"
               id="path129949" /><path
               style="color:#000000;fill:#000000;fill-rule:evenodd;stroke-linejoin:round;-inkscape-stroke:none"
               d="m 136.92578,256.76953 a 0.28068056,0.28068056 0 0 0 -0.22656,0.0449 c -2.07534,1.48952 -4.85524,1.49683 -6.88672,0.002 a 0.28068056,0.28068056 0 0 0 -0.42969,0.32226 l 3.60742,9.8125 a 0.28068056,0.28068056 0 0 0 0.52735,0 l 3.60742,-9.8125 a 0.28068056,0.28068056 0 0 0 -0.19922,-0.36914 z m -0.57031,0.83789 -3.10156,8.4336 -3.09766,-8.42774 c 1.92897,1.0837 4.24662,1.07717 6.19922,-0.006 z"
               id="path129951" /></g><g
             id="path129937"><path
               style="color:#000000;fill:#000000;fill-rule:evenodd;stroke-width:0.561305;stroke-linejoin:round;-inkscape-stroke:none"
               d="m 129.61726,203.00452 3.60827,-9.8124 3.60827,9.8124 c -2.13032,-1.56761 -5.04497,-1.55858 -7.21654,0 z"
               id="path129941" /><path
               style="color:#000000;fill:#000000;fill-rule:evenodd;stroke-linejoin:round;-inkscape-stroke:none"
               d="m 133.22461,192.91211 a 0.28068056,0.28068056 0 0 0 -0.26172,0.18359 l -3.60937,9.8125 a 0.28068056,0.28068056 0 0 0 0.42773,0.32422 c 2.07534,-1.48951 4.85524,-1.49683 6.88672,-0.002 a 0.28068056,0.28068056 0 0 0 0.42969,-0.32227 l -3.60938,-9.8125 a 0.28068056,0.28068056 0 0 0 -0.26367,-0.18359 z m 0.002,1.0918 3.09766,8.42968 c -1.92847,-1.08341 -4.24691,-1.07632 -6.19922,0.006 z"
               id="path129943" /></g></g></g><path
         id="path1187-6"
         d="m 123.67094,192.29158 h 15.39063"
         style="display:inline;fill:none;stroke:#000000;stroke-width:0.593176;stroke-linecap:butt;stroke-linejoin:miter;stroke-miterlimit:4;stroke-dasharray:none;stroke-opacity:1" /><path
         id="path1189"
         d="m 115.37286,267.95695 h 24.97475"
         style="display:inline;fill:none;stroke:#000000;stroke-width:0.593175;stroke-linecap:butt;stroke-linejoin:miter;stroke-miterlimit:4;stroke-dasharray:none;stroke-opacity:1" /><text
         transform="scale(0.97131606,1.029531)"
         id="length"
         y="176.39287"
         x="43.85519"
         style="font-style:normal;font-variant:normal;font-weight:normal;font-stretch:normal;font-size:25.7549px;line-height:1.25;font-family:'URW Bookman L';-inkscape-font-specification:'URW Bookman L, Normal';font-variant-ligatures:normal;font-variant-caps:normal;font-variant-numeric:normal;font-feature-settings:normal;text-align:start;letter-spacing:0px;word-spacing:0px;writing-mode:lr-tb;text-anchor:start;display:inline;fill:#000000;fill-opacity:1;stroke:none;stroke-width:2.41453"
         xml:space="preserve">L</text><g
         id="path543"><path
           style="color:#000000;fill:#000000;-inkscape-stroke:none"
           d="M 61.339844,47.464844 V 265.99023 h 0.679687 V 47.464844 Z"
           id="path129863" /><g
           id="g129845"><g
             id="path129855"><path
               style="color:#000000;fill:#000000;fill-rule:evenodd;stroke-width:0.46719;stroke-linejoin:round;-inkscape-stroke:none"
               d="m 64.695785,258.72592 -3.003263,8.16713 -3.003262,-8.16713 c 1.773125,1.30476 4.199067,1.29725 6.006525,0 z"
               id="path129859" /><path
               style="color:#000000;fill:#000000;fill-rule:evenodd;stroke-linejoin:round;-inkscape-stroke:none"
               d="m 64.748047,258.49805 a 0.23361836,0.23361836 0 0 0 -0.1875,0.0391 c -1.727364,1.23976 -4.041565,1.24422 -5.732422,0 a 0.23361836,0.23361836 0 0 0 -0.357422,0.26953 l 3.001953,8.16797 a 0.23361836,0.23361836 0 0 0 0.439453,0 l 3.001953,-8.16797 a 0.23361836,0.23361836 0 0 0 -0.166015,-0.30859 z m -0.47461,0.69922 -2.582031,7.01757 -2.578125,-7.01172 c 1.605207,0.90146 3.535317,0.89511 5.160156,-0.006 z"
               id="path129861" /></g><g
             id="path129847"><path
               style="color:#000000;fill:#000000;fill-rule:evenodd;stroke-width:0.46719;stroke-linejoin:round;-inkscape-stroke:none"
               d="m 58.665319,54.729069 3.003263,-8.167136 3.003262,8.167137 c -1.773125,-1.304767 -4.199067,-1.297249 -6.006525,-10e-7 z"
               id="path129851" /><path
               style="color:#000000;fill:#000000;fill-rule:evenodd;stroke-linejoin:round;-inkscape-stroke:none"
               d="m 61.667969,46.328125 a 0.23361836,0.23361836 0 0 0 -0.21875,0.152344 l -3.003907,8.167968 a 0.23361836,0.23361836 0 0 0 0.355469,0.269532 c 1.727365,-1.239763 4.041565,-1.24423 5.732422,0 a 0.23361836,0.23361836 0 0 0 0.357422,-0.269532 l -3.001953,-8.167968 a 0.23361836,0.23361836 0 0 0 -0.220703,-0.152344 z m 0,0.912109 2.580078,7.011719 c -1.605207,-0.901459 -3.535317,-0.895104 -5.160156,0.0059 z"
               id="path129853" /></g></g></g><path
         id="path545"
         d="M 56.606501,45.202203 H 73.509777"
         style="display:inline;fill:none;stroke:#000000;stroke-width:0.593175;stroke-linecap:butt;stroke-linejoin:miter;stroke-miterlimit:4;stroke-dasharray:none;stroke-opacity:1"
         sodipodi:nodetypes="cc" /><path
         id="path547"
         d="M 58.001054,267.95695 H 75.729059"
         style="display:inline;fill:none;stroke:#000000;stroke-width:0.593175;stroke-linecap:butt;stroke-linejoin:miter;stroke-miterlimit:4;stroke-dasharray:none;stroke-opacity:1" /><g
         id="g46"
         transform="matrix(0.72,0,0,0.66898579,23.72202,101.75503)"
         style="display:inline;stroke-width:1.03743"><path
           d="m 70.460491,-84.512842 0.0063,144.184215 7.620319,78.231667 5.488933,9.83316 c 0,0 0.719983,-1.1252 1.951414,-1.1252 1.231335,0 2.103935,1.0309 2.104074,1.03107 4.41e-4,-6.6e-4 8.299407,-12.33766 16.032719,-12.33766 7.73351,0 13.95839,10.73666 13.95839,12.24353 0,0.31426 -0.16515,0.74979 -0.47164,1.29541 0.0557,-0.0877 1.36159,-2.10651 3.5024,-2.10651 1.86425,0 2.26453,1.33913 2.27186,1.36418 0.0633,-0.11699 0.13169,-0.23624 0.19363,-0.35263 2.18735,-4.10986 5.09124,-5.85413 5.36992,-8.74063 l 7.65934,-79.336387 0.0156,-143.969125 z"
           style="font-variation-settings:normal;display:inline;opacity:1;fill:url(#linearGradient41);fill-opacity:1;stroke:#000000;stroke-width:0.961519;stroke-linecap:butt;stroke-linejoin:miter;stroke-miterlimit:4;stroke-dasharray:none;stroke-dashoffset:0;stroke-opacity:1;stop-color:#000000;stop-opacity:1"
           id="path37"
           sodipodi:nodetypes="ccccscsscscccccc" /><path
           d="m 82.633297,171.84624 c 0,-8.47617 4.998274,-24.20417 4.998274,-24.20417 -1.39e-4,-1.7e-4 -0.872739,-1.03107 -2.104074,-1.03107 -1.231431,0 -1.951414,1.1252 -1.951414,1.1252 0,0 -2.64058,8.38213 -2.64058,14.22128 0,5.83914 1.697794,9.88876 1.697794,9.88876 z"
           style="font-variation-settings:normal;display:inline;opacity:1;fill:#efecec;fill-opacity:1;stroke:#000000;stroke-width:0.961519;stroke-linecap:butt;stroke-linejoin:miter;stroke-miterlimit:4;stroke-dasharray:none;stroke-dashoffset:0;stroke-opacity:1;stop-color:#000000;stop-opacity:1"
           id="path36" /><path
           d="m 122.9253,148.10102 c -0.007,-0.025 -0.40761,-1.36418 -2.27186,-1.36418 -2.18833,0 -3.50435,2.10944 -3.50435,2.10944 -3.13842,5.58296 -21.074734,22.69894 -28.759096,39.85109 -0.187817,0.41922 -0.369594,0.83876 -0.544796,1.25786 0,0 0,0 0,0 -1.827539,4.37162 -2.948826,8.727 -2.948826,12.87611 0,2.65199 0.254183,5.15201 0.607714,7.50522 0.227834,-17.27958 27.348044,-43.61726 37.421214,-62.23554 z"
           style="font-variation-settings:normal;display:inline;opacity:1;fill:#efecec;fill-opacity:1;stroke:#000000;stroke-width:0.961519;stroke-linecap:butt;stroke-linejoin:miter;stroke-miterlimit:4;stroke-dasharray:none;stroke-dashoffset:0;stroke-opacity:1;stop-color:#000000;stop-opacity:1"
           id="path35" /><path
           d="m 87.845198,189.95523 c 0.175202,-0.4191 0.356979,-0.83864 0.544796,-1.25786 7.684362,-17.15215 25.620676,-34.26813 28.759096,-39.85109 0,0 7.2e-4,-9.8e-4 0.002,-0.003 0.30649,-0.54562 0.47164,-0.98115 0.47164,-1.29541 0,-1.50687 -6.22488,-12.24353 -13.95839,-12.24353 -7.733312,0 -16.032278,12.337 -16.032719,12.33766 0,0 -4.998274,15.728 -4.998274,24.20417 0,6.12171 2.647103,12.94867 4.117701,16.26898 0.207775,0.46912 0.392066,0.86823 0.542087,1.18547 0.193443,0.40906 0.440084,0.5897 0.552063,0.65461 z"
           style="font-variation-settings:normal;opacity:1;fill:url(#linearGradient49);fill-opacity:1;stroke:#000000;stroke-width:0.961519;stroke-linecap:butt;stroke-linejoin:miter;stroke-miterlimit:4;stroke-dasharray:none;stroke-dashoffset:0;stroke-opacity:1;stop-color:#000000;stop-opacity:1"
           id="path34"
           sodipodi:nodetypes="ccccsscssscc" /><path
           d="m 122.37075,149.11063 c -10.48068,18.55088 -36.642929,44.25726 -36.866664,61.22593 1.304242,8.68144 4.334981,14.88053 4.356419,14.92361 7.00928,-16.77613 29.020485,-34.97106 34.140725,-54.88932 0,0 0,0 0,0 0.68863,-2.67883 1.07155,-5.38907 1.07155,-8.13097 0,-6.70083 -2.68197,-13.08161 -2.70203,-13.12925 z"
           style="font-variation-settings:normal;opacity:1;fill:url(#linearGradient50);fill-opacity:1;stroke:#000000;stroke-width:0.961519;stroke-linecap:butt;stroke-linejoin:miter;stroke-miterlimit:4;stroke-dasharray:none;stroke-dashoffset:0;stroke-opacity:1;stop-color:#000000;stop-opacity:1"
           id="path33" /><path
           d="m 124.00123,170.37085 c -6.11214,23.77687 -36.293574,45.09822 -36.293573,64.48154 0,0 0.462341,2.55411 1.997262,5.44748 -0.354655,-18.30366 34.195131,-43.85781 34.296311,-69.92902 z"
           style="font-variation-settings:normal;display:inline;opacity:1;fill:#efecec;fill-opacity:1;stroke:#000000;stroke-width:0.961519;stroke-linecap:butt;stroke-linejoin:miter;stroke-miterlimit:4;stroke-dasharray:none;stroke-dashoffset:0;stroke-opacity:1;stop-color:#000000;stop-opacity:1"
           id="path32" /><path
           d="m 117.73681,191.26771 c -9.96569,18.46052 -28.290674,35.67646 -28.031891,49.03216 1.811487,3.4147 5.125854,7.29084 10.927631,8.01001 -0.22388,-0.11441 -1.115609,-0.93698 1.40564,-6.39757 2.69181,-5.83001 17.70067,-23.9185 19.14932,-35.16058 0.0268,-0.54962 0.1234,-1.12976 0.1234,-1.66658 0,-8.74117 -3.57122,-13.81335 -3.5741,-13.81744 z"
           style="font-variation-settings:normal;display:inline;opacity:1;fill:url(#linearGradient51);fill-opacity:1;stroke:#000000;stroke-width:0.961519;stroke-linecap:butt;stroke-linejoin:miter;stroke-miterlimit:4;stroke-dasharray:none;stroke-dashoffset:0;stroke-opacity:1;stop-color:#000000;stop-opacity:1"
           id="path31" /><path
           d="m 121.18751,206.75173 c -1.44865,11.24208 -16.45751,29.33057 -19.14932,35.16058 -2.521249,5.46059 -1.62952,6.28316 -1.40564,6.39757 0.62039,0.0769 1.2605,0.12876 1.93922,0.12876 2.16727,0 8.84252,-9.78006 13.60771,-21.47287 0,0 0,0 0,0 2.69489,-6.61272 4.69581,-13.80083 5.00803,-20.21404 z"
           style="font-variation-settings:normal;display:inline;opacity:1;fill:#efecec;fill-opacity:1;stroke:#000000;stroke-width:0.961519;stroke-linecap:butt;stroke-linejoin:miter;stroke-miterlimit:4;stroke-dasharray:none;stroke-dashoffset:0;stroke-opacity:1;stop-color:#000000;stop-opacity:1"
           id="path30" /><path
           d="m 116.17948,226.96577 c -4.76519,11.69281 -11.44044,21.47287 -13.60771,21.47287 12.40398,0 15.80884,-9.60132 15.80884,-13.46383 0,-3.35343 -1.74189,-7.08387 -2.20113,-8.00904 z"
           style="font-variation-settings:normal;display:inline;opacity:1;fill:url(#linearGradient2389);fill-opacity:1;stroke:#000000;stroke-width:0.961519;stroke-linecap:butt;stroke-linejoin:miter;stroke-miterlimit:4;stroke-dasharray:none;stroke-dashoffset:0;stroke-opacity:1;stop-color:#000000;stop-opacity:1"
           id="path29" /></g><g
         id="path12"><path
           style="color:#000000;fill:#000000;-inkscape-stroke:none"
           d="m 87.5,271.27734 v 0.38868 h 20.85547 v -0.38868 z"
           id="path129983" /><g
           id="g129965"><g
             id="path129975"><path
               style="color:#000000;fill:#000000;fill-rule:evenodd;stroke-width:0.267697;stroke-linejoin:round;-inkscape-stroke:none"
               d="m 104.19358,269.74375 4.67972,1.72085 -4.67973,1.72085 c 0.74763,-1.01599 0.74332,-2.40604 1e-5,-3.4417 z"
               id="path129979" /><path
               style="color:#000000;fill:#000000;fill-rule:evenodd;stroke-linejoin:round;-inkscape-stroke:none"
               d="m 104.24023,269.61719 a 0.13386189,0.13386189 0 0 0 -0.15625,0.20508 c 0.71038,0.98976 0.7149,2.31435 0.002,3.2832 a 0.13386189,0.13386189 0 0 0 0.15429,0.20508 l 4.67969,-1.72071 a 0.13386189,0.13386189 0 0 0 0,-0.25 z m 0.15821,0.34375 4.08789,1.5039 -4.08789,1.50391 c 0.54472,-0.93803 0.54325,-2.05755 0,-3.00781 z"
               id="path129981" /></g><g
             id="path129967"><path
               style="color:#000000;fill:#000000;fill-rule:evenodd;stroke-width:0.267697;stroke-linejoin:round;-inkscape-stroke:none"
               d="m 91.662845,273.19917 -4.679726,-1.72085 4.679726,-1.72085 c -0.747624,1.01599 -0.743317,2.40604 0,3.4417 z"
               id="path129971" /><path
               style="color:#000000;fill:#000000;fill-rule:evenodd;stroke-linejoin:round;-inkscape-stroke:none"
               d="m 91.617187,269.63281 -4.679687,1.72071 a 0.13386189,0.13386189 0 0 0 0,0.25 l 4.679687,1.7207 a 0.13386189,0.13386189 0 0 0 0.154297,-0.20313 c -0.710378,-0.98976 -0.712936,-2.3163 0,-3.28515 a 0.13386189,0.13386189 0 0 0 -0.154297,-0.20313 z m -0.160156,0.3418 c -0.544664,0.93802 -0.54129,2.05758 0.002,3.00781 l -4.089843,-1.5039 z"
               id="path129973" /></g></g></g><text
         transform="scale(0.97131606,1.029531)"
         id="diameter"
         y="286.37762"
         x="91.078087"
         style="font-style:normal;font-variant:normal;font-weight:normal;font-stretch:normal;font-size:25.7549px;line-height:1.25;font-family:'URW Bookman L';-inkscape-font-specification:'URW Bookman L, Normal';font-variant-ligatures:normal;font-variant-caps:normal;font-variant-numeric:normal;font-feature-settings:normal;text-align:start;letter-spacing:0px;word-spacing:0px;writing-mode:lr-tb;text-anchor:start;display:inline;fill:#000000;fill-opacity:1;stroke:none;stroke-width:2.41453"
         xml:space="preserve"><tspan
           style="font-style:normal;font-variant:normal;font-weight:normal;font-stretch:normal;font-size:25.7549px;font-family:'URW Bookman L';-inkscape-font-specification:'URW Bookman L, Normal';font-variant-ligatures:normal;font-variant-caps:normal;font-variant-numeric:normal;font-feature-settings:normal;text-align:start;writing-mode:lr-tb;text-anchor:start;stroke-width:2.41453"
           y="286.37762"
           x="91.078087"
           id="tspan13">D</tspan></text><g
         id="path28"><path
           style="color:#000000;fill:#000000;-inkscape-stroke:none"
           d="m 76.298828,143.57031 v 0.5293 h 43.662112 v -0.5293 z"
           id="path129893" /><g
           id="g129875"><g
             id="path129885"><path
               style="color:#000000;fill:#000000;fill-rule:evenodd;stroke-width:0.364601;stroke-linejoin:round;-inkscape-stroke:none"
               d="m 114.2907,141.48163 6.37374,2.34379 -6.37374,2.34378 c 1.01825,-1.38377 1.01239,-3.277 0,-4.68757 z"
               id="path129889" /><path
               style="color:#000000;fill:#000000;fill-rule:evenodd;stroke-linejoin:round;-inkscape-stroke:none"
               d="m 114.35352,141.31055 a 0.18231872,0.18231872 0 0 0 -0.21094,0.27734 c 0.96753,1.34806 0.97296,3.15309 0.002,4.47266 a 0.18231872,0.18231872 0 0 0 0.20899,0.27929 l 6.37304,-2.34375 a 0.18231872,0.18231872 0 0 0 0,-0.34179 z m 0.21679,0.46679 5.56641,2.04688 -5.56641,2.04883 c 0.74174,-1.27736 0.73952,-2.8016 0,-4.09571 z"
               id="path129891" /></g><g
             id="path129877"><path
               style="color:#000000;fill:#000000;fill-rule:evenodd;stroke-width:0.364601;stroke-linejoin:round;-inkscape-stroke:none"
               d="m 81.967756,146.18789 -6.373741,-2.34379 6.373741,-2.34378 c -1.018257,1.38377 -1.01239,3.277 0,4.68757 z"
               id="path129881" /><path
               style="color:#000000;fill:#000000;fill-rule:evenodd;stroke-linejoin:round;-inkscape-stroke:none"
               d="m 81.904297,141.33008 -6.373047,2.34375 a 0.18231872,0.18231872 0 0 0 0,0.34179 l 6.373047,2.34375 a 0.18231872,0.18231872 0 0 0 0.210937,-0.27734 c -0.967528,-1.34806 -0.971012,-3.15504 0,-4.47461 a 0.18231872,0.18231872 0 0 0 -0.210937,-0.27734 z m -0.216797,0.46875 c -0.740789,1.2771 -0.737293,2.80018 0.002,4.09375 l -5.568359,-2.04883 z"
               id="path129883" /></g></g></g><text
         transform="scale(0.97131606,1.029531)"
         id="taper_diameter"
         y="147.93158"
         x="130.21593"
         style="font-style:normal;font-variant:normal;font-weight:normal;font-stretch:normal;font-size:25.7549px;line-height:1.25;font-family:'URW Bookman L';-inkscape-font-specification:'URW Bookman L, Normal';font-variant-ligatures:normal;font-variant-caps:normal;font-variant-numeric:normal;font-feature-settings:normal;text-align:start;letter-spacing:0px;word-spacing:0px;writing-mode:lr-tb;text-anchor:start;display:inline;fill:#000000;fill-opacity:1;stroke:none;stroke-width:2.41453"
         xml:space="preserve"><tspan
           style="font-style:normal;font-variant:normal;font-weight:normal;font-stretch:normal;font-size:25.7549px;font-family:'URW Bookman L';-inkscape-font-specification:'URW Bookman L, Normal';font-variant-ligatures:normal;font-variant-caps:normal;font-variant-numeric:normal;font-feature-settings:normal;text-align:start;writing-mode:lr-tb;text-anchor:start;stroke-width:2.41453"
           y="147.93158"
           x="130.21593"
           id="tspan28">td</tspan></text><g
         id="path5698"><path
           style="color:#000000;fill:#000025;-inkscape-stroke:none"
           d="m 98.154297,187.01172 c -6.152633,-0.008 -12.309521,1.75167 -17.066406,5.28125 l 0.267578,0.36133 c 9.330165,-6.92293 24.274781,-6.90524 33.574221,0.041 l 0.26758,-0.35937 c -4.74147,-3.54166 -10.89034,-5.31646 -17.042973,-5.32422 z"
           id="path129923" /><g
           id="g129905"><g
             id="path129915"><path
               style="color:#000000;fill:#000000;fill-rule:evenodd;stroke-width:0.308379;stroke-linejoin:round;-inkscape-stroke:none"
               d="m 112.41233,188.0518 3.1327,4.81433 -5.50534,-1.6379 c 1.3904,-0.42228 2.3447,-1.70816 2.37264,-3.17643 z"
               id="path129919" /><path
               style="color:#000000;fill:#000000;fill-rule:evenodd;stroke-linejoin:round;-inkscape-stroke:none"
               d="m 112.36914,187.9043 a 0.15420492,0.15420492 0 0 0 -0.11133,0.14453 c -0.0267,1.4032 -0.93778,2.62856 -2.26367,3.03125 a 0.15420492,0.15420492 0 0 0 0.002,0.29687 l 5.50586,1.63672 a 0.15420492,0.15420492 0 0 0 0.17188,-0.23242 l -3.13281,-4.81445 a 0.15420492,0.15420492 0 0 0 -0.17188,-0.0625 z m 0.082,0.49023 2.73633,4.20508 -4.80859,-1.43164 c 1.14859,-0.49011 1.91809,-1.5228 2.07226,-2.77344 z"
               id="path129921" /></g><g
             id="path129907"><path
               style="color:#000000;fill:#000000;fill-rule:evenodd;stroke-width:0.308379;stroke-linejoin:round;-inkscape-stroke:none"
               d="m 86.258867,191.21426 -5.510543,1.62032 3.148047,-4.8043 c 0.0058,1.4531 0.963929,2.7361 2.362496,3.18398 z"
               id="path129911" /><path
               style="color:#000000;fill:#000000;fill-rule:evenodd;stroke-linejoin:round;-inkscape-stroke:none"
               d="m 83.939453,187.88281 a 0.15420492,0.15420492 0 0 0 -0.171875,0.0625 L 80.619141,192.75 a 0.15420492,0.15420492 0 0 0 0.171875,0.23242 l 5.511718,-1.62109 a 0.15420492,0.15420492 0 0 0 0.0039,-0.29297 c -1.336593,-0.42803 -2.250329,-1.65338 -2.25586,-3.03906 a 0.15420492,0.15420492 0 0 0 -0.111328,-0.14649 z m -0.08203,0.49024 c 0.140273,1.24087 0.908538,2.27304 2.0625,2.77929 l -4.8125,1.41797 z"
               id="path129913" /></g></g></g><text
         transform="scale(0.97096033,1.0299082)"
         id="taper_angle"
         y="178.81259"
         x="94.702316"
         style="font-style:normal;font-variant:normal;font-weight:normal;font-stretch:normal;font-size:21.9399px;line-height:1.25;font-family:'URW Bookman L';-inkscape-font-specification:'URW Bookman L, Normal';font-variant-ligatures:normal;font-variant-caps:normal;font-variant-numeric:normal;font-feature-settings:normal;text-align:start;letter-spacing:0px;word-spacing:0px;writing-mode:lr-tb;text-anchor:start;display:inline;fill:#000000;fill-opacity:1;stroke:none;stroke-width:2.05687"
         xml:space="preserve"><tspan
           style="stroke-width:2.05687"
           y="178.81259"
           x="94.702316"
           id="tspan5718">α</tspan></text></g></g></svg>
