<?xml version="1.0" encoding="UTF-8" standalone="no"?>
<svg
   id="svg8"
   version="1.1"
   viewBox="0 0 210 297"
   height="297mm"
   width="210mm"
   sodipodi:docname="thread-mill.svg"
   xml:space="preserve"
   inkscape:version="1.2.2 (b0a8486541, 2022-12-01)"
   xmlns:inkscape="http://www.inkscape.org/namespaces/inkscape"
   xmlns:sodipodi="http://sodipodi.sourceforge.net/DTD/sodipodi-0.dtd"
   xmlns:xlink="http://www.w3.org/1999/xlink"
   xmlns="http://www.w3.org/2000/svg"
   xmlns:svg="http://www.w3.org/2000/svg"
   xmlns:rdf="http://www.w3.org/1999/02/22-rdf-syntax-ns#"
   xmlns:cc="http://creativecommons.org/ns#"
   xmlns:dc="http://purl.org/dc/elements/1.1/"><sodipodi:namedview
     id="namedview81"
     pagecolor="#ffffff"
     bordercolor="#666666"
     borderopacity="1.0"
     inkscape:showpageshadow="2"
     inkscape:pageopacity="0.0"
     inkscape:pagecheckerboard="true"
     inkscape:deskcolor="#d1d1d1"
     inkscape:document-units="mm"
     showgrid="false"
     inkscape:zoom="0.71628115"
     inkscape:cx="256.88237"
     inkscape:cy="573.09898"
     inkscape:window-width="1632"
     inkscape:window-height="1013"
     inkscape:window-x="1728"
     inkscape:window-y="1050"
     inkscape:window-maximized="1"
     inkscape:current-layer="svg8" /><defs
     id="defs2"><linearGradient
       inkscape:collect="always"
       id="linearGradient82685"><stop
         style="stop-color:#d3d3d3;stop-opacity:1;"
         offset="0"
         id="stop82681" /><stop
         style="stop-color:#fbfbfb;stop-opacity:1;"
         offset="0.25040859"
         id="stop87441" /><stop
         style="stop-color:#6b6b6b;stop-opacity:1;"
         offset="0.55378878"
         id="stop92591" /><stop
         style="stop-color:#bababa;stop-opacity:1;"
         offset="1"
         id="stop82683" /></linearGradient><linearGradient
       inkscape:collect="always"
       id="linearGradient36741"><stop
         style="stop-color:#f8f8f8;stop-opacity:1;"
         offset="0"
         id="stop36737" /><stop
         style="stop-color:#565656;stop-opacity:1;"
         offset="1"
         id="stop36739" /></linearGradient><linearGradient
       inkscape:collect="always"
       id="linearGradient20895"><stop
         style="stop-color:#767676;stop-opacity:1;"
         offset="0"
         id="stop20891" /><stop
         style="stop-color:#bfbfbf;stop-opacity:1;"
         offset="1"
         id="stop20893" /></linearGradient><linearGradient
       inkscape:collect="always"
       id="linearGradient16329"><stop
         style="stop-color:#d2d2d2;stop-opacity:1;"
         offset="0"
         id="stop16325" /><stop
         style="stop-color:#f8f8f8;stop-opacity:1;"
         offset="1"
         id="stop16327" /></linearGradient><marker
       orient="auto"
       refY="0"
       refX="0"
       id="marker7593"
       style="overflow:visible"
       viewBox="0 0 12.705841 9.5264135"
       markerWidth="12.705841"
       markerHeight="9.5264139"
       preserveAspectRatio="xMidYMid"><path
         id="path7591"
         style="fill:#000000;fill-opacity:1;fill-rule:evenodd;stroke:#000000;stroke-width:0.625;stroke-linejoin:round;stroke-opacity:1"
         d="M 8.7185878,4.0337352 -2.2072895,0.01601326 8.7185884,-4.0017078 c -1.7454984,2.3720609 -1.7354408,5.6174519 -6e-7,8.035443 z"
         transform="matrix(1.1,0,0,1.1,1.1,0)" /></marker><marker
       style="overflow:visible"
       id="marker4880"
       refX="0"
       refY="0"
       orient="auto"
       viewBox="0 0 12.705841 9.5264135"
       markerWidth="12.705841"
       markerHeight="9.5264139"
       preserveAspectRatio="xMidYMid"><path
         transform="matrix(-1.1,0,0,-1.1,-1.1,0)"
         d="M 8.7185878,4.0337352 -2.2072895,0.01601326 8.7185884,-4.0017078 c -1.7454984,2.3720609 -1.7354408,5.6174519 -6e-7,8.035443 z"
         style="fill:#000000;fill-opacity:1;fill-rule:evenodd;stroke:#000000;stroke-width:0.625;stroke-linejoin:round;stroke-opacity:1"
         id="path4878" /></marker><marker
       style="overflow:visible"
       id="marker4732"
       refX="0"
       refY="0"
       orient="auto"><path
         transform="matrix(1.1,0,0,1.1,1.1,0)"
         d="M 8.7185878,4.0337352 -2.2072895,0.01601326 8.7185884,-4.0017078 c -1.7454984,2.3720609 -1.7354408,5.6174519 -6e-7,8.035443 z"
         style="fill:#000000;fill-opacity:1;fill-rule:evenodd;stroke:#000000;stroke-width:0.625;stroke-linejoin:round;stroke-opacity:1"
         id="path4730" /></marker><marker
       orient="auto"
       refY="0"
       refX="0"
       id="marker4584"
       style="overflow:visible"><path
         id="path4582"
         style="fill:#000000;fill-opacity:1;fill-rule:evenodd;stroke:#000000;stroke-width:0.625;stroke-linejoin:round;stroke-opacity:1"
         d="M 8.7185878,4.0337352 -2.2072895,0.01601326 8.7185884,-4.0017078 c -1.7454984,2.3720609 -1.7354408,5.6174519 -6e-7,8.035443 z"
         transform="matrix(-1.1,0,0,-1.1,-1.1,0)" /></marker><marker
       style="overflow:visible"
       id="marker4328"
       refX="0"
       refY="0"
       orient="auto"
       viewBox="0 0 12.705841 9.5264135"
       markerWidth="12.705841"
       markerHeight="9.5264139"
       preserveAspectRatio="xMidYMid"><path
         transform="matrix(-1.1,0,0,-1.1,-1.1,0)"
         d="M 8.7185878,4.0337352 -2.2072895,0.01601326 8.7185884,-4.0017078 c -1.7454984,2.3720609 -1.7354408,5.6174519 -6e-7,8.035443 z"
         style="fill:#000000;fill-opacity:1;fill-rule:evenodd;stroke:#000000;stroke-width:0.625;stroke-linejoin:round;stroke-opacity:1"
         id="path4326" /></marker><marker
       orient="auto"
       refY="0"
       refX="0"
       id="marker4186"
       style="overflow:visible"
       viewBox="0 0 12.705841 9.5264135"
       markerWidth="12.705841"
       markerHeight="9.5264139"
       preserveAspectRatio="xMidYMid"><path
         id="path4184"
         style="fill:#000000;fill-opacity:1;fill-rule:evenodd;stroke:#000000;stroke-width:0.625;stroke-linejoin:round;stroke-opacity:1"
         d="M 8.7185878,4.0337352 -2.2072895,0.01601326 8.7185884,-4.0017078 c -1.7454984,2.3720609 -1.7354408,5.6174519 -6e-7,8.035443 z"
         transform="matrix(1.1,0,0,1.1,1.1,0)" /></marker><marker
       style="overflow:visible"
       id="marker3948"
       refX="0"
       refY="0"
       orient="auto"><path
         transform="matrix(1.1,0,0,1.1,1.1,0)"
         d="M 8.7185878,4.0337352 -2.2072895,0.01601326 8.7185884,-4.0017078 c -1.7454984,2.3720609 -1.7354408,5.6174519 -6e-7,8.035443 z"
         style="fill:#000000;fill-opacity:1;fill-rule:evenodd;stroke:#000000;stroke-width:0.625;stroke-linejoin:round;stroke-opacity:1"
         id="path3946" /></marker><marker
       style="overflow:visible"
       id="Arrow2Lend"
       refX="0"
       refY="0"
       orient="auto"
       viewBox="0 0 12.705841 9.5264135"
       markerWidth="12.705841"
       markerHeight="9.5264139"
       preserveAspectRatio="xMidYMid"><path
         transform="matrix(-1.1,0,0,-1.1,-1.1,0)"
         d="M 8.7185878,4.0337352 -2.2072895,0.01601326 8.7185884,-4.0017078 c -1.7454984,2.3720609 -1.7354408,5.6174519 -6e-7,8.035443 z"
         style="fill:#000025;fill-opacity:1;fill-rule:evenodd;stroke:#000025;stroke-width:0.625;stroke-linejoin:round;stroke-opacity:1"
         id="path920" /></marker><marker
       style="overflow:visible"
       id="Arrow2Lstart"
       refX="0"
       refY="0"
       orient="auto"><path
         transform="matrix(1.1,0,0,1.1,1.1,0)"
         d="M 8.7185878,4.0337352 -2.2072895,0.01601326 8.7185884,-4.0017078 c -1.7454984,2.3720609 -1.7354408,5.6174519 -6e-7,8.035443 z"
         style="fill:#000025;fill-opacity:1;fill-rule:evenodd;stroke:#000025;stroke-width:0.625;stroke-linejoin:round;stroke-opacity:1"
         id="path917" /></marker><marker
       style="overflow:visible"
       id="marker7497"
       refX="0"
       refY="0"
       orient="auto"><path
         transform="scale(-0.6)"
         d="M 8.7185878,4.0337352 -2.2072895,0.01601326 8.7185884,-4.0017078 c -1.7454984,2.3720609 -1.7354408,5.6174519 -6e-7,8.035443 z"
         style="fill:#000025;fill-opacity:1;fill-rule:evenodd;stroke:#000025;stroke-width:0.625;stroke-linejoin:round;stroke-opacity:1"
         id="path7495" /></marker><marker
       style="overflow:visible"
       id="marker7379"
       refX="0"
       refY="0"
       orient="auto"><path
         transform="matrix(0.4,0,0,0.4,4,0)"
         style="fill:#000025;fill-opacity:1;fill-rule:evenodd;stroke:#000025;stroke-width:1.00000003pt;stroke-opacity:1"
         d="M 0,0 5,-5 -12.5,0 5,5 Z"
         id="path7377" /></marker><marker
       orient="auto"
       refY="0"
       refX="0"
       id="marker5480"
       style="overflow:visible"><path
         id="path5478"
         style="fill:#000000;fill-opacity:1;fill-rule:evenodd;stroke:#000000;stroke-width:0.625;stroke-linejoin:round;stroke-opacity:1"
         d="M 8.7185878,4.0337352 -2.2072895,0.01601326 8.7185884,-4.0017078 c -1.7454984,2.3720609 -1.7354408,5.6174519 -6e-7,8.035443 z"
         transform="scale(-0.6)" /></marker><marker
       orient="auto"
       refY="0"
       refX="0"
       id="marker5470"
       style="overflow:visible"><path
         id="path5468"
         style="fill:#000000;fill-opacity:1;fill-rule:evenodd;stroke:#000000;stroke-width:0.625;stroke-linejoin:round;stroke-opacity:1"
         d="M 8.7185878,4.0337352 -2.2072895,0.01601326 8.7185884,-4.0017078 c -1.7454984,2.3720609 -1.7354408,5.6174519 -6e-7,8.035443 z"
         transform="scale(-0.6)" /></marker><marker
       orient="auto"
       refY="0"
       refX="0"
       id="marker5220"
       style="overflow:visible"><path
         id="path5218"
         d="M 0,0 5,-5 -12.5,0 5,5 Z"
         style="fill:#000000;fill-opacity:1;fill-rule:evenodd;stroke:#000000;stroke-width:1.00000003pt;stroke-opacity:1"
         transform="matrix(0.4,0,0,0.4,4,0)" /></marker><marker
       orient="auto"
       refY="0"
       refX="0"
       id="marker5210"
       style="overflow:visible"><path
         id="path5208"
         d="M 0,0 5,-5 -12.5,0 5,5 Z"
         style="fill:#000000;fill-opacity:1;fill-rule:evenodd;stroke:#000000;stroke-width:1.00000003pt;stroke-opacity:1"
         transform="matrix(0.4,0,0,0.4,4,0)" /></marker><marker
       orient="auto"
       refY="0"
       refX="0"
       id="marker5072"
       style="overflow:visible"><path
         id="path5070"
         d="M 0,0 5,-5 -12.5,0 5,5 Z"
         style="fill:#000000;fill-opacity:1;fill-rule:evenodd;stroke:#000000;stroke-width:1pt;stroke-opacity:1"
         transform="matrix(-0.8,0,0,-0.8,-10,0)" /></marker><marker
       orient="auto"
       refY="0"
       refX="0"
       id="marker5014"
       style="overflow:visible"><path
         id="path5012"
         d="M 0,0 5,-5 -12.5,0 5,5 Z"
         style="fill:#000000;fill-opacity:1;fill-rule:evenodd;stroke:#000000;stroke-width:1.00000003pt;stroke-opacity:1"
         transform="matrix(-0.8,0,0,-0.8,-10,0)" /></marker><marker
       orient="auto"
       refY="0"
       refX="0"
       id="marker4968"
       style="overflow:visible"><path
         id="path4966"
         d="M 0,0 5,-5 -12.5,0 5,5 Z"
         style="fill:#000000;fill-opacity:1;fill-rule:evenodd;stroke:#000000;stroke-width:1.00000003pt;stroke-opacity:1"
         transform="matrix(-0.8,0,0,-0.8,-10,0)" /></marker><marker
       orient="auto"
       refY="0"
       refX="0"
       id="marker4884"
       style="overflow:visible"><path
         id="path4882"
         d="M 0,0 5,-5 -12.5,0 5,5 Z"
         style="fill:#000000;fill-opacity:1;fill-rule:evenodd;stroke:#000000;stroke-width:1.00000003pt;stroke-opacity:1"
         transform="matrix(0.8,0,0,0.8,10,0)" /></marker><marker
       orient="auto"
       refY="0"
       refX="0"
       id="marker4856"
       style="overflow:visible"><path
         id="path4854"
         d="M 0,0 5,-5 -12.5,0 5,5 Z"
         style="fill:#000000;fill-opacity:1;fill-rule:evenodd;stroke:#000000;stroke-width:1.00000003pt;stroke-opacity:1"
         transform="matrix(0.8,0,0,0.8,10,0)" /></marker><marker
       orient="auto"
       refY="0"
       refX="0"
       id="marker4834"
       style="overflow:visible"><path
         id="path4832"
         d="M 0,0 5,-5 -12.5,0 5,5 Z"
         style="fill:#000000;fill-opacity:1;fill-rule:evenodd;stroke:#000000;stroke-width:1.00000003pt;stroke-opacity:1"
         transform="matrix(0.8,0,0,0.8,10,0)" /></marker><marker
       orient="auto"
       refY="0"
       refX="0"
       id="marker5220-5"
       style="overflow:visible"><path
         id="path5218-3"
         d="M 0,0 5,-5 -12.5,0 5,5 Z"
         style="fill:#000000;fill-opacity:1;fill-rule:evenodd;stroke:#000000;stroke-width:1.00000003pt;stroke-opacity:1"
         transform="matrix(0.4,0,0,0.4,4,0)" /></marker><marker
       orient="auto"
       refY="0"
       refX="0"
       id="marker5480-5"
       style="overflow:visible"><path
         id="path5478-7"
         style="fill:#000000;fill-opacity:1;fill-rule:evenodd;stroke:#000000;stroke-width:0.625;stroke-linejoin:round;stroke-opacity:1"
         d="M 8.7185878,4.0337352 -2.2072895,0.01601326 8.7185884,-4.0017078 c -1.7454984,2.3720609 -1.7354408,5.6174519 -6e-7,8.035443 z"
         transform="scale(-0.6)" /></marker><linearGradient
       inkscape:collect="always"
       xlink:href="#linearGradient36360"
       id="linearGradient36362"
       x1="83.83268"
       y1="-3.8552091"
       x2="46.759789"
       y2="-3.9131644"
       gradientUnits="userSpaceOnUse"
       gradientTransform="matrix(1.1183959,0,0,1,12.943123,205.26204)" /><linearGradient
       inkscape:collect="always"
       id="linearGradient36360"><stop
         style="stop-color:#929292;stop-opacity:1;"
         offset="0"
         id="stop36356" /><stop
         style="stop-color:#454545;stop-opacity:1;"
         offset="0.33737543"
         id="stop38296" /></linearGradient><linearGradient
       inkscape:collect="always"
       xlink:href="#linearGradient16058"
       id="linearGradient16060"
       x1="79.854721"
       y1="162.59952"
       x2="146.84238"
       y2="155.66852"
       gradientUnits="userSpaceOnUse"
       gradientTransform="matrix(1.0008361,0,0,1.0064595,21.225774,14.80074)" /><linearGradient
       inkscape:collect="always"
       id="linearGradient16058"><stop
         style="stop-color:#424242;stop-opacity:1;"
         offset="0"
         id="stop16054" /><stop
         style="stop-color:#a5a5a5;stop-opacity:1;"
         offset="1"
         id="stop16056" /></linearGradient><marker
       orient="auto"
       refY="0"
       refX="0"
       id="marker4186-7"
       style="overflow:visible"><path
         id="path4184-5"
         style="fill:#000000;fill-opacity:1;fill-rule:evenodd;stroke:#000000;stroke-width:0.625;stroke-linejoin:round;stroke-opacity:1"
         d="M 8.7185878,4.0337352 -2.2072895,0.01601326 8.7185884,-4.0017078 c -1.7454984,2.3720609 -1.7354408,5.6174519 -6e-7,8.035443 z"
         transform="matrix(1.1,0,0,1.1,1.1,0)" /></marker><marker
       orient="auto"
       refY="0"
       refX="0"
       id="marker4584-3"
       style="overflow:visible"><path
         id="path4582-5"
         style="fill:#000000;fill-opacity:1;fill-rule:evenodd;stroke:#000000;stroke-width:0.625;stroke-linejoin:round;stroke-opacity:1"
         d="M 8.7185878,4.0337352 -2.2072895,0.01601326 8.7185884,-4.0017078 c -1.7454984,2.3720609 -1.7354408,5.6174519 -6e-7,8.035443 z"
         transform="matrix(-1.1,0,0,-1.1,-1.1,0)" /></marker><marker
       style="overflow:visible"
       id="marker4732-6"
       refX="0"
       refY="0"
       orient="auto"><path
         transform="matrix(1.1,0,0,1.1,1.1,0)"
         d="M 8.7185878,4.0337352 -2.2072895,0.01601326 8.7185884,-4.0017078 c -1.7454984,2.3720609 -1.7354408,5.6174519 -6e-7,8.035443 z"
         style="fill:#000000;fill-opacity:1;fill-rule:evenodd;stroke:#000000;stroke-width:0.625;stroke-linejoin:round;stroke-opacity:1"
         id="path4730-2" /></marker><marker
       style="overflow:visible"
       id="marker3948-9"
       refX="0"
       refY="0"
       orient="auto"><path
         transform="matrix(1.1,0,0,1.1,1.1,0)"
         d="M 8.7185878,4.0337352 -2.2072895,0.01601326 8.7185884,-4.0017078 c -1.7454984,2.3720609 -1.7354408,5.6174519 -6e-7,8.035443 z"
         style="fill:#000000;fill-opacity:1;fill-rule:evenodd;stroke:#000000;stroke-width:0.625;stroke-linejoin:round;stroke-opacity:1"
         id="path3946-1" /></marker><marker
       style="overflow:visible"
       id="marker4328-2"
       refX="0"
       refY="0"
       orient="auto"><path
         transform="matrix(-1.1,0,0,-1.1,-1.1,0)"
         d="M 8.7185878,4.0337352 -2.2072895,0.01601326 8.7185884,-4.0017078 c -1.7454984,2.3720609 -1.7354408,5.6174519 -6e-7,8.035443 z"
         style="fill:#000000;fill-opacity:1;fill-rule:evenodd;stroke:#000000;stroke-width:0.625;stroke-linejoin:round;stroke-opacity:1"
         id="path4326-7" /></marker><marker
       style="overflow:visible"
       id="Arrow2Lstart-0"
       refX="0"
       refY="0"
       orient="auto"><path
         transform="matrix(1.1,0,0,1.1,1.1,0)"
         d="M 8.7185878,4.0337352 -2.2072895,0.01601326 8.7185884,-4.0017078 c -1.7454984,2.3720609 -1.7354408,5.6174519 -6e-7,8.035443 z"
         style="fill:#000025;fill-opacity:1;fill-rule:evenodd;stroke:#000025;stroke-width:0.625;stroke-linejoin:round;stroke-opacity:1"
         id="path917-9" /></marker><marker
       style="overflow:visible"
       id="Arrow2Lend-3"
       refX="0"
       refY="0"
       orient="auto"><path
         transform="matrix(-1.1,0,0,-1.1,-1.1,0)"
         d="M 8.7185878,4.0337352 -2.2072895,0.01601326 8.7185884,-4.0017078 c -1.7454984,2.3720609 -1.7354408,5.6174519 -6e-7,8.035443 z"
         style="fill:#000025;fill-opacity:1;fill-rule:evenodd;stroke:#000025;stroke-width:0.625;stroke-linejoin:round;stroke-opacity:1"
         id="path920-6" /></marker><marker
       style="overflow:visible"
       id="marker4880-0"
       refX="0"
       refY="0"
       orient="auto"><path
         transform="matrix(-1.1,0,0,-1.1,-1.1,0)"
         d="M 8.7185878,4.0337352 -2.2072895,0.01601326 8.7185884,-4.0017078 c -1.7454984,2.3720609 -1.7354408,5.6174519 -6e-7,8.035443 z"
         style="fill:#000000;fill-opacity:1;fill-rule:evenodd;stroke:#000000;stroke-width:0.625;stroke-linejoin:round;stroke-opacity:1"
         id="path4878-6" /></marker><marker
       orient="auto"
       refY="0"
       refX="0"
       id="marker7593-2"
       style="overflow:visible"><path
         id="path7591-6"
         style="fill:#000000;fill-opacity:1;fill-rule:evenodd;stroke:#000000;stroke-width:0.625;stroke-linejoin:round;stroke-opacity:1"
         d="M 8.7185878,4.0337352 -2.2072895,0.01601326 8.7185884,-4.0017078 c -1.7454984,2.3720609 -1.7354408,5.6174519 -6e-7,8.035443 z"
         transform="matrix(1.1,0,0,1.1,1.1,0)" /></marker><marker
       orient="auto"
       refY="0"
       refX="0"
       id="marker5072-1"
       style="overflow:visible"><path
         id="path5070-8"
         d="M 0,0 5,-5 -12.5,0 5,5 Z"
         style="fill:#000000;fill-opacity:1;fill-rule:evenodd;stroke:#000000;stroke-width:1pt;stroke-opacity:1"
         transform="matrix(-0.8,0,0,-0.8,-10,0)" /></marker><linearGradient
       inkscape:collect="always"
       xlink:href="#linearGradient16329"
       id="linearGradient16331"
       x1="87.334213"
       y1="208.6756"
       x2="118.59026"
       y2="208.6756"
       gradientUnits="userSpaceOnUse"
       gradientTransform="translate(23.283337,16.933338)" /><linearGradient
       inkscape:collect="always"
       xlink:href="#linearGradient20895"
       id="linearGradient20691"
       gradientUnits="userSpaceOnUse"
       x1="88.003334"
       y1="210.563"
       x2="114.51674"
       y2="205.59695"
       gradientTransform="matrix(1,0,0,-0.88988678,23.283337,397.91662)" /><linearGradient
       inkscape:collect="always"
       xlink:href="#linearGradient36741"
       id="linearGradient36743"
       x1="83.864883"
       y1="184.47689"
       x2="87.814056"
       y2="184.47688"
       gradientUnits="userSpaceOnUse"
       gradientTransform="translate(23.283337,16.933338)" /><linearGradient
       inkscape:collect="always"
       xlink:href="#linearGradient82685"
       id="linearGradient82687"
       x1="62.931042"
       y1="139.99037"
       x2="103.97852"
       y2="139.99037"
       gradientUnits="userSpaceOnUse"
       gradientTransform="translate(23.283337,16.933338)" /></defs><metadata
     id="metadata5"><rdf:RDF><cc:Work
         rdf:about=""><dc:format>image/svg+xml</dc:format><dc:type
           rdf:resource="http://purl.org/dc/dcmitype/StillImage" /></cc:Work></rdf:RDF></metadata><path
     id="path4520"
     d="m 74.431495,54.32752 v 36.39096 l 11.919592,14.69508 v 91.23422 L 52.792979,209.4162 v 8.67687 l 42.259011,14.49772 h 24.10033 l 43.31734,-14.49772 V 209.4162 L 128.96508,196.64778 V 105.41356 L 141.13591,90.71848 V 54.32752"
     style="opacity:1;fill:url(#linearGradient82687);fill-opacity:1;stroke:#000000;stroke-width:2;stroke-linecap:butt;stroke-linejoin:miter;stroke-dasharray:none;stroke-opacity:1"
     sodipodi:nodetypes="cccccccccccccc" /><path
     id="path3652"
     d="m 63.726665,213.12037 26.954111,-16.47259 c 7.157139,-2.1013 9.394664,-34.73956 16.551834,-36.84087 l -0.56306,72.78388 h -7.908781 z"
     style="fill:url(#linearGradient36362);fill-opacity:1;stroke:none;stroke-width:2.11508;stroke-linecap:butt;stroke-linejoin:miter;stroke-miterlimit:4;stroke-dasharray:none;stroke-opacity:1"
     sodipodi:nodetypes="cccccc" /><path
     style="fill:url(#linearGradient16060);fill-opacity:1;stroke:none;stroke-width:0.265547px;stroke-linecap:butt;stroke-linejoin:miter;stroke-opacity:1"
     d="m 141.97802,213.12037 -13.63495,-16.47259 32.6315,16.47259 -41.59087,19.47042 z"
     id="path1249"
     sodipodi:nodetypes="ccccc" /><path
     id="path4528"
     d="M 73.707538,68.615014 V 30.269884"
     style="fill:none;stroke:#000000;stroke-width:0.806685;stroke-linecap:butt;stroke-linejoin:miter;stroke-miterlimit:4;stroke-dasharray:none;stroke-opacity:1" /><path
     id="path4530"
     d="M 141.81186,68.615014 V 30.269884"
     style="fill:none;stroke:#000000;stroke-width:0.806685;stroke-linecap:butt;stroke-linejoin:miter;stroke-miterlimit:4;stroke-dasharray:none;stroke-opacity:1" /><path
     id="path4538"
     d="M 162.99873,276.00247 V 220.5193"
     style="fill:none;stroke:#000000;stroke-width:0.560233;stroke-linecap:butt;stroke-linejoin:miter;stroke-miterlimit:4;stroke-dasharray:none;stroke-opacity:1" /><g
     id="path4542"><path
       style="color:#000000;fill:#000000;-inkscape-stroke:none"
       d="m 75.689453,42.671875 v 0.759766 H 139.6543 v -0.759766 z"
       id="path98191" /><g
       id="g98173"><g
         id="path98183"><path
           style="color:#000000;fill:#000000;fill-rule:evenodd;stroke-width:0.521648;stroke-linejoin:round;-inkscape-stroke:none"
           d="m 131.54252,39.684893 9.11913,3.353336 -9.11913,3.353334 c 1.45685,-1.979807 1.44846,-4.688527 0,-6.70667 z"
           id="path98187" /><path
           style="color:#000000;fill:#000000;fill-rule:evenodd;stroke-linejoin:round;-inkscape-stroke:none"
           d="m 131.63281,39.439453 a 0.26085008,0.26085008 0 0 0 -0.30273,0.398438 c 1.38427,1.928713 1.39121,4.510488 0.002,6.398437 a 0.26085008,0.26085008 0 0 0 0.30078,0.400391 l 9.11914,-3.353516 a 0.26085008,0.26085008 0 0 0 0,-0.490234 z m 0.43555,0.716797 7.83789,2.882812 -7.83203,2.878907 c 1.00652,-1.792355 1.00019,-3.947474 -0.006,-5.761719 z"
           id="path98189" /></g><g
         id="path98175"><path
           style="color:#000000;fill:#000000;fill-rule:evenodd;stroke-width:0.521648;stroke-linejoin:round;-inkscape-stroke:none"
           d="m 83.800104,46.418295 -9.11913,-3.353336 9.11913,-3.353334 c -1.456855,1.979807 -1.448461,4.688527 0,6.70667 z"
           id="path98179" /><path
           style="color:#000000;fill:#000000;fill-rule:evenodd;stroke-linejoin:round;-inkscape-stroke:none"
           d="m 83.710937,39.466797 -9.11914,3.353515 a 0.26085008,0.26085008 0 0 0 0,0.490235 l 9.11914,3.353515 a 0.26085008,0.26085008 0 0 0 0.300782,-0.398437 c -1.384276,-1.928713 -1.391214,-4.510488 -0.002,-6.398438 a 0.26085008,0.26085008 0 0 0 -0.298829,-0.40039 z m -0.443359,0.71875 c -1.006453,1.792463 -0.998457,3.947479 0.0078,5.761719 L 75.4375,43.066406 Z"
           id="path98181" /></g></g></g><g
     id="path4548"><path
       style="color:#000000;fill:#000000;-inkscape-stroke:none"
       d="m 54.546875,264.22852 v 0.6914 H 160.51172 v -0.6914 z"
       id="path98743" /><g
       id="g98725"><g
         id="path98735"><path
           style="color:#000000;fill:#000000;fill-rule:evenodd;stroke-width:0.474759;stroke-linejoin:round;-inkscape-stroke:none"
           d="m 153.12982,261.50991 8.29944,3.05192 -8.29944,3.05191 c 1.3259,-1.80185 1.31826,-4.26709 0,-6.10383 z"
           id="path98739" /><path
           style="color:#000000;fill:#000000;fill-rule:evenodd;stroke-linejoin:round;-inkscape-stroke:none"
           d="m 153.21094,261.28711 a 0.23740324,0.23740324 0 0 0 -0.27344,0.36133 c 1.25984,1.75535 1.26633,4.10597 0.002,5.82422 a 0.23740324,0.23740324 0 0 0 0.27149,0.36328 l 8.30078,-3.05078 a 0.23740324,0.23740324 0 0 0 0,-0.44532 z m 0.39648,0.65039 7.13477,2.625 -7.13086,2.62109 c 0.91752,-1.63189 0.91253,-3.59399 -0.004,-5.24609 z"
           id="path98741" /></g><g
         id="path98727"><path
           style="color:#000000;fill:#000000;fill-rule:evenodd;stroke-width:0.474759;stroke-linejoin:round;-inkscape-stroke:none"
           d="m 61.928711,267.63807 -8.299448,-3.05192 8.299448,-3.05191 c -1.325905,1.80185 -1.318265,4.26709 0,6.10383 z"
           id="path98731" /><path
           style="color:#000000;fill:#000000;fill-rule:evenodd;stroke-linejoin:round;-inkscape-stroke:none"
           d="m 61.847656,261.31055 -8.300781,3.05273 a 0.23740324,0.23740324 0 0 0 0,0.44531 l 8.300781,3.05274 A 0.23740324,0.23740324 0 0 0 62.121094,267.5 c -1.259849,-1.75535 -1.26634,-4.10597 -0.002,-5.82422 a 0.23740324,0.23740324 0 0 0 -0.271485,-0.36523 z m -0.402344,0.65429 c -0.916328,1.63167 -0.91046,3.59467 0.0059,5.2461 l -7.134766,-2.625 z"
           id="path98733" /></g></g></g><text
     transform="scale(0.97096033,1.0299082)"
     id="shank_diameter"
     y="37.599903"
     x="98.409019"
     style="font-style:normal;font-variant:normal;font-weight:normal;font-stretch:normal;font-size:35.0253px;line-height:1.25;font-family:'URW Bookman L';-inkscape-font-specification:'URW Bookman L, Normal';font-variant-ligatures:normal;font-variant-caps:normal;font-variant-numeric:normal;font-feature-settings:normal;text-align:start;letter-spacing:0px;word-spacing:0px;writing-mode:lr-tb;text-anchor:start;fill:#000000;fill-opacity:1;stroke:none;stroke-width:3.28362"
     xml:space="preserve"><tspan
       style="font-style:normal;font-variant:normal;font-weight:normal;font-stretch:normal;font-size:35.0253px;font-family:'URW Bookman L';-inkscape-font-specification:'URW Bookman L, Normal';font-variant-ligatures:normal;font-variant-caps:normal;font-variant-numeric:normal;font-feature-settings:normal;text-align:start;writing-mode:lr-tb;text-anchor:start;stroke-width:3.28362"
       y="37.599903"
       x="98.409019"
       id="tspan5678">S</tspan></text><text
     transform="scale(0.97096033,1.0299082)"
     id="diameter"
     y="280.09338"
     x="99.203911"
     style="font-style:normal;font-variant:normal;font-weight:normal;font-stretch:normal;font-size:28.2222px;line-height:1.25;font-family:'URW Bookman L';-inkscape-font-specification:'URW Bookman L, Normal';font-variant-ligatures:normal;font-variant-caps:normal;font-variant-numeric:normal;font-variant-east-asian:normal;text-align:start;letter-spacing:0px;word-spacing:0px;writing-mode:lr-tb;text-anchor:start;fill:#000000;fill-opacity:1;stroke:none;stroke-width:3.28362"
     xml:space="preserve"><tspan
       style="font-style:normal;font-variant:normal;font-weight:normal;font-stretch:normal;font-size:28.2222px;font-family:'URW Bookman L';-inkscape-font-specification:'URW Bookman L, Normal';font-variant-ligatures:normal;font-variant-caps:normal;font-variant-numeric:normal;font-variant-east-asian:normal;text-align:start;writing-mode:lr-tb;text-anchor:start;stroke-width:3.28362"
       y="280.09338"
       x="99.203911"
       id="tspan5690">D</tspan></text><g
     id="path5698"
     inkscape:transform-center-x="4.6903494"
     inkscape:transform-center-y="0.05713891"><path
       style="color:#000000;fill:#000025;-inkscape-stroke:none"
       d="m 5.5,203.61914 c -0.5293057,1.85307 -1.7047428,5.45474 -1.640625,9.77539 0.052731,3.55338 1.2049787,7.70997 1.9082031,10.28711 l 0.578125,-0.1582 c -0.7036402,-2.57867 -1.8358228,-6.70702 -1.8867187,-10.13672 -0.062432,-4.20706 1.0801457,-7.72141 1.6171875,-9.60156 z"
       id="path98309" /><g
       id="g98291"><g
         id="path98301"><path
           style="color:#000000;fill:#000000;fill-rule:evenodd;stroke-width:0.4125;stroke-linejoin:round;-inkscape-stroke:none"
           d="m 1.4667771,209.1386 4.5302666,-6.20547 0.5691754,7.66206 c -1.1889458,-1.53771 -3.2503546,-2.11962 -5.099442,-1.45659 z"
           id="path98305" /><path
           style="color:#000000;fill:#000000;fill-rule:evenodd;stroke-linejoin:round;-inkscape-stroke:none"
           d="m 6.0527344,202.73437 a 0.20627062,0.20627062 0 0 0 -0.2226563,0.0762 l -4.5292969,6.20703 a 0.20627062,0.20627062 0 0 0 0.2363282,0.31445 c 1.7671492,-0.63365 3.7314525,-0.0777 4.8652343,1.38867 a 0.20627062,0.20627062 0 0 0 0.3691407,-0.14062 L 6.203125,202.91797 a 0.20627062,0.20627062 0 0 0 -0.1503906,-0.1836 z m -0.2207032,0.77344 0.4980469,6.69336 C 5.1710169,208.99661 3.513031,208.52534 1.875,208.92773 Z"
           id="path98307" /></g><g
         id="path98293"><path
           style="color:#000000;fill:#000000;fill-rule:evenodd;stroke-width:0.4125;stroke-linejoin:round;-inkscape-stroke:none"
           d="m 6.9363902,216.71428 -0.6598872,7.65478 -4.4564495,-6.25869 c 1.8136074,0.69927 3.8782691,0.12901 5.1163367,-1.39609 z"
           id="path98297" /><path
           style="color:#000000;fill:#000000;fill-rule:evenodd;stroke-linejoin:round;-inkscape-stroke:none"
           d="m 6.9277344,216.50781 a 0.20627062,0.20627062 0 0 0 -0.1523438,0.0762 c -1.1832052,1.45752 -3.1513981,2.00081 -4.8808594,1.33399 a 0.20627062,0.20627062 0 0 0 -0.2421875,0.3125 l 4.4570313,6.25781 a 0.20627062,0.20627062 0 0 0 0.3730469,-0.10156 l 0.6601562,-7.6543 a 0.20627062,0.20627062 0 0 0 -0.2148437,-0.22461 z m -0.2324219,0.59766 -0.5761719,6.68555 -3.890625,-5.46485 c 1.6147322,0.42848 3.2749307,-0.0284 4.4667969,-1.2207 z"
           id="path98299" /></g></g></g><text
     transform="scale(0.97096033,1.0299082)"
     id="cutting_angle"
     y="190.67944"
     x="4.0550423"
     style="font-style:normal;font-variant:normal;font-weight:normal;font-stretch:normal;font-size:35.0253px;line-height:1.25;font-family:'URW Bookman L';-inkscape-font-specification:'URW Bookman L, Normal';font-variant-ligatures:normal;font-variant-caps:normal;font-variant-numeric:normal;font-feature-settings:normal;text-align:start;letter-spacing:0px;word-spacing:0px;writing-mode:lr-tb;text-anchor:start;fill:#000000;fill-opacity:1;stroke:none;stroke-width:3.28362"
     xml:space="preserve"><tspan
       style="stroke-width:3.28362"
       y="190.67944"
       x="4.0550423"
       id="tspan5718">α</tspan></text><path
     id="path4538-8"
     d="M 52.263822,276.00247 V 220.5193"
     style="fill:none;stroke:#000000;stroke-width:0.560233;stroke-linecap:butt;stroke-linejoin:miter;stroke-miterlimit:4;stroke-dasharray:none;stroke-opacity:1"
     sodipodi:nodetypes="cc" /><path
     id="path4548-6"
     d="m 163.60588,209.13366 h 24.60161"
     style="fill:none;stroke:#000000;stroke-width:0.686;stroke-linecap:butt;stroke-linejoin:miter;stroke-miterlimit:4;stroke-dasharray:none;stroke-opacity:1" /><g
     id="path4538-7"><path
       style="color:#000000;fill:#000000;-inkscape-stroke:none"
       d="m 181.69531,220.65039 v 17.54883 h 0.74024 v -17.54883 z"
       id="path98985" /><g
       id="g98975"><g
         id="path98977"><path
           style="color:#000000;fill:#000000;fill-rule:evenodd;stroke-width:0.508709;stroke-linejoin:round;-inkscape-stroke:none"
           d="m 178.78152,228.55984 3.27017,-8.89296 3.27016,8.89296 c -1.9307,-1.42072 -4.57224,-1.41254 -6.54033,0 z"
           id="path98981" /><path
           style="color:#000000;fill:#000000;fill-rule:evenodd;stroke-linejoin:round;-inkscape-stroke:none"
           d="m 182.05078,219.41211 a 0.25437994,0.25437994 0 0 0 -0.23828,0.16601 l -3.26953,8.89454 a 0.25437994,0.25437994 0 0 0 0.38672,0.29296 c 1.88088,-1.34994 4.40106,-1.3548 6.24218,0 a 0.25437994,0.25437994 0 0 0 0.38868,-0.29296 l -3.26953,-8.89454 a 0.25437994,0.25437994 0 0 0 -0.24024,-0.16601 z m 0,0.99219 2.81055,7.63867 c -1.74845,-0.98297 -3.85097,-0.97785 -5.6211,0.004 z"
           id="path98983" /></g></g></g><text
     transform="scale(0.97096033,1.0299082)"
     id="crest"
     y="178.9838"
     x="174.45184"
     style="font-style:normal;font-variant:normal;font-weight:normal;font-stretch:normal;font-size:35.0252px;line-height:1.25;font-family:'URW Bookman L';-inkscape-font-specification:'URW Bookman L, Normal';font-variant-ligatures:normal;font-variant-caps:normal;font-variant-numeric:normal;font-feature-settings:normal;text-align:start;letter-spacing:0px;word-spacing:0px;writing-mode:lr-tb;text-anchor:start;fill:#000000;fill-opacity:1;stroke:none;stroke-width:3.28362"
     xml:space="preserve"><tspan
       y="178.9838"
       x="174.45184"
       id="tspan7855">C</tspan></text><path
     id="rect6239"
     style="opacity:1;fill:url(#linearGradient36743);fill-opacity:1;stroke-width:1.98452;stroke-linecap:round;stroke-linejoin:round"
     d="m 107.14824,160.70479 h 3.34627 v 35.94299 l 10.05418,16.47259 -10.05418,19.47042 h -3.34627 z"
     sodipodi:nodetypes="ccccccc" /><path
     style="fill:url(#linearGradient16331);fill-opacity:1;stroke:none;stroke-width:0.264583px;stroke-linecap:butt;stroke-linejoin:miter;stroke-opacity:1"
     d="m 110.61759,232.49124 10.38331,-18.66058 20.87276,-0.59842 -21.9574,19.46187 z"
     id="path15927"
     sodipodi:nodetypes="ccccc" /><path
     style="fill:url(#linearGradient20691);fill-opacity:1;stroke:none;stroke-width:0.249591px;stroke-linecap:butt;stroke-linejoin:miter;stroke-opacity:1"
     d="m 110.08842,196.64778 10.38332,16.5811 21.40192,0.003 -13.49073,-16.5841 z"
     id="path20293"
     sodipodi:nodetypes="ccccc" /><path
     id="path128465"
     d="m 163.43488,218.44559 h 24.60161"
     style="fill:none;stroke:#000000;stroke-width:0.686;stroke-linecap:butt;stroke-linejoin:miter;stroke-miterlimit:4;stroke-dasharray:none;stroke-opacity:1" /><g
     id="path130891"><path
       style="color:#000000;fill:#000000;-inkscape-stroke:none"
       d="m 181.69531,189.42773 v 17.55079 h 0.74024 v -17.55079 z"
       id="path98967" /><g
       id="g98957"><g
         id="path98959"><path
           style="color:#000000;fill:#000000;fill-rule:evenodd;stroke-width:0.508709;stroke-linejoin:round;-inkscape-stroke:none"
           d="m 185.34792,199.06828 -3.27017,8.89296 -3.27016,-8.89296 c 1.9307,1.42072 4.57224,1.41254 6.54033,0 z"
           id="path98963" /><path
           style="color:#000000;fill:#000000;fill-rule:evenodd;stroke-linejoin:round;-inkscape-stroke:none"
           d="m 185.4043,198.82031 a 0.25437994,0.25437994 0 0 0 -0.20508,0.041 c -1.88088,1.34994 -4.39911,1.35675 -6.24024,0.002 a 0.25437994,0.25437994 0 0 0 -0.39062,0.29297 l 3.27148,8.89258 a 0.25437994,0.25437994 0 0 0 0.47657,0 l 3.26953,-8.89258 a 0.25437994,0.25437994 0 0 0 -0.18164,-0.33594 z m -0.51563,0.75977 -2.81055,7.64453 -2.80859,-7.63867 c 1.74828,0.98203 3.84954,0.97582 5.61914,-0.006 z"
           id="path98965" /></g></g></g><path
     style="fill:none;stroke:#000000;stroke-width:0.6;stroke-linecap:butt;stroke-linejoin:miter;stroke-dasharray:none;stroke-opacity:1"
     d="M 52.03577,217.63758 3.9218984,201.46797"
     id="path140257"
     sodipodi:nodetypes="cc" /><path
     style="fill:none;stroke:#000000;stroke-width:0.6;stroke-linecap:butt;stroke-linejoin:miter;stroke-dasharray:none;stroke-opacity:1"
     d="M 52.03577,209.48416 3.9218984,226.08075"
     id="path140655"
     sodipodi:nodetypes="cc" /><g
     id="path149716"><path
       style="color:#000000;fill:#000000;-inkscape-stroke:none"
       d="m 131.67383,127.71875 v 0.60156 h 20.17773 v -0.60156 z"
       id="path98235" /><g
       id="g98225"><g
         id="path98227"><path
           style="color:#000000;fill:#000000;fill-rule:evenodd;stroke-width:0.414343;stroke-linejoin:round;-inkscape-stroke:none"
           d="m 138.11611,130.69395 -7.24329,-2.66354 7.24329,-2.66354 c -1.15718,1.57255 -1.15051,3.72407 0,5.32708 z"
           id="path98231" /><path
           style="color:#000000;fill:#000000;fill-rule:evenodd;stroke-linejoin:round;-inkscape-stroke:none"
           d="m 138.04492,125.17188 -7.24414,2.66406 a 0.20719222,0.20719222 0 0 0 0,0.38867 l 7.24414,2.66406 a 0.20719222,0.20719222 0 0 0 0.24024,-0.3164 c -1.09953,-1.53198 -1.10545,-3.58245 -0.002,-5.08204 a 0.20719222,0.20719222 0 0 0 -0.23828,-0.31835 z m -0.24609,0.53125 c -0.84336,1.45175 -0.84057,3.18338 0,4.65429 l -6.32617,-2.32617 z"
           id="path98233" /></g></g></g><g
     id="path149718"><path
       style="color:#000000;fill:#000000;-inkscape-stroke:none"
       d="m 66.425781,127.73828 v 0.5625 h 17.59961 v -0.5625 z"
       id="path98213" /><g
       id="g98203"><g
         id="path98205"><path
           style="color:#000000;fill:#000000;fill-rule:evenodd;stroke-width:0.386964;stroke-linejoin:round;-inkscape-stroke:none"
           d="m 78.007338,125.52234 6.764665,2.48754 -6.764666,2.48753 c 1.080711,-1.46864 1.074484,-3.47799 10e-7,-4.97507 z"
           id="path98209" /><path
           style="color:#000000;fill:#000000;fill-rule:evenodd;stroke-linejoin:round;-inkscape-stroke:none"
           d="m 78.074219,125.33984 a 0.19350134,0.19350134 0 0 0 -0.22461,0.29493 c 1.02687,1.43074 1.032522,3.34754 0.002,4.74804 a 0.19350134,0.19350134 0 0 0 0.222657,0.29688 l 6.763672,-2.48828 a 0.19350134,0.19350134 0 0 0 0,-0.36328 z m 0.226562,0.4961 5.910156,2.17383 -5.908203,2.17382 c 0.78842,-1.35648 0.784115,-2.97338 -0.002,-4.34765 z"
           id="path98211" /></g></g></g><text
     transform="scale(0.97096033,1.0299082)"
     id="neck_diameter"
     y="137.32324"
     x="165.17346"
     style="font-style:normal;font-variant:normal;font-weight:normal;font-stretch:normal;font-size:35.0252px;line-height:1.25;font-family:'URW Bookman L';-inkscape-font-specification:'URW Bookman L, Normal';font-variant-ligatures:normal;font-variant-caps:normal;font-variant-numeric:normal;font-feature-settings:normal;text-align:start;letter-spacing:0px;word-spacing:0px;writing-mode:lr-tb;text-anchor:start;fill:#000000;fill-opacity:1;stroke:none;stroke-width:3.28362"
     xml:space="preserve"><tspan
       y="137.32324"
       x="165.17346"
       id="tspan150142">N</tspan></text><path
     id="path1019"
     d="M 50.852551,106.75249 H 80.506778"
     style="fill:none;stroke:#000000;stroke-width:0.753157;stroke-linecap:butt;stroke-linejoin:miter;stroke-miterlimit:4;stroke-dasharray:none;stroke-opacity:1" /><g
     id="path1021"><path
       style="color:#000000;fill:#000000;-inkscape-stroke:none"
       d="m 53.205078,109.23047 v 24.47656 h 0.875 v -24.47656 z"
       id="path98257" /><g
       id="g98247"><g
         id="path98249"><path
           style="color:#000000;fill:#000000;fill-rule:evenodd;stroke-width:0.600756;stroke-linejoin:round;-inkscape-stroke:none"
           d="m 49.765292,118.57298 3.861873,-10.50206 3.861872,10.50206 c -2.280048,-1.67779 -5.399549,-1.66812 -7.723745,0 z"
           id="path98253" /><path
           style="color:#000000;fill:#000000;fill-rule:evenodd;stroke-linejoin:round;-inkscape-stroke:none"
           d="m 53.626953,107.77148 a 0.30040803,0.30040803 0 0 0 -0.28125,0.19532 l -3.863281,10.50195 a 0.30040803,0.30040803 0 0 0 0.458984,0.34766 c 2.221204,-1.5942 5.194881,-1.6019 7.369141,-0.002 a 0.30040803,0.30040803 0 0 0 0.460937,-0.3457 L 53.908203,107.9668 a 0.30040803,0.30040803 0 0 0 -0.28125,-0.19532 z m 0,1.16797 3.316406,9.02149 c -2.06446,-1.15938 -4.54715,-1.15324 -6.636718,0.006 z"
           id="path98255" /></g></g></g><text
     transform="scale(0.97096033,1.0299082)"
     id="neck_length"
     y="155.9395"
     x="43.349792"
     style="font-style:normal;font-variant:normal;font-weight:normal;font-stretch:normal;font-size:35.0252px;line-height:1.25;font-family:'URW Bookman L';-inkscape-font-specification:'URW Bookman L, Normal';font-variant-ligatures:normal;font-variant-caps:normal;font-variant-numeric:normal;font-feature-settings:normal;text-align:start;letter-spacing:0px;word-spacing:0px;writing-mode:lr-tb;text-anchor:start;fill:#000000;fill-opacity:1;stroke:none;stroke-width:3.28362"
     xml:space="preserve"><tspan
       y="155.9395"
       x="43.349792"
       id="tspan1023">n</tspan></text><path
     id="path1027"
     d="M 51.348964,195.84193 H 81.003191"
     style="fill:none;stroke:#000000;stroke-width:0.753157;stroke-linecap:butt;stroke-linejoin:miter;stroke-miterlimit:4;stroke-dasharray:none;stroke-opacity:1" /><g
     id="path1029"><path
       style="color:#000000;fill:#000000;-inkscape-stroke:none"
       d="m 53.183594,166.30078 v 27.08594 h 0.917968 v -27.08594 z"
       id="path98279" /><g
       id="g98269"><g
         id="path98271"><path
           style="color:#000000;fill:#000000;fill-rule:evenodd;stroke-width:0.631984;stroke-linejoin:round;-inkscape-stroke:none"
           d="m 57.721369,183.56022 -4.06262,11.04797 -4.062619,-11.04797 c 2.398569,1.765 5.680227,1.75483 8.125239,0 z"
           id="path98275" /><path
           style="color:#000000;fill:#000000;fill-rule:evenodd;stroke-linejoin:round;-inkscape-stroke:none"
           d="m 57.792969,183.25195 a 0.3160236,0.3160236 0 0 0 -0.25586,0.0508 c -2.336666,1.67707 -5.466624,1.68702 -7.753906,0.004 a 0.3160236,0.3160236 0 0 0 -0.484375,0.36328 l 4.0625,11.04688 a 0.3160236,0.3160236 0 0 0 0.59375,0 l 4.0625,-11.04688 a 0.3160236,0.3160236 0 0 0 -0.224609,-0.41797 z m -0.642578,0.94532 -3.492188,9.49609 -3.488281,-9.49024 c 2.171371,1.21959 4.782429,1.21278 6.980469,-0.006 z"
           id="path98277" /></g></g></g></svg>
