<?xml version="1.0" encoding="UTF-8" standalone="no"?>
<svg
   xmlns:dc="http://purl.org/dc/elements/1.1/"
   xmlns:cc="http://creativecommons.org/ns#"
   xmlns:rdf="http://www.w3.org/1999/02/22-rdf-syntax-ns#"
   xmlns:svg="http://www.w3.org/2000/svg"
   xmlns="http://www.w3.org/2000/svg"
   xmlns:xlink="http://www.w3.org/1999/xlink"
   version="1.1"
   id="svg5821"
   height="64px"
   width="64px">
  <defs
     id="defs5823">
    <linearGradient
       id="linearGradient6349">
      <stop
         id="stop6351"
         offset="0"
         style="stop-color:#000000;stop-opacity:1;" />
      <stop
         id="stop6353"
         offset="1"
         style="stop-color:#000000;stop-opacity:0;" />
    </linearGradient>
    <linearGradient
       id="linearGradient3377">
      <stop
         id="stop3379"
         offset="0"
         style="stop-color:#0019a3;stop-opacity:1;" />
      <stop
         id="stop3381"
         offset="1"
         style="stop-color:#0069ff;stop-opacity:1;" />
    </linearGradient>
    <linearGradient
       gradientTransform="matrix(-1,0,0,1,2199.356,0)"
       gradientUnits="userSpaceOnUse"
       y2="1190.875"
       x2="1267.9062"
       y1="1190.875"
       x1="901.1875"
       id="linearGradient3383"
       xlink:href="#linearGradient3377" />
    <radialGradient
       gradientUnits="userSpaceOnUse"
       gradientTransform="matrix(-1.4307499,-1.3605156e-7,-1.202713e-8,0.1264801,2674.7488,1244.2826)"
       r="194.40614"
       fy="1424.4465"
       fx="1103.6399"
       cy="1424.4465"
       cx="1103.6399"
       id="radialGradient6355"
       xlink:href="#linearGradient6349" />
    <linearGradient
       gradientUnits="userSpaceOnUse"
       y2="44"
       x2="48"
       y1="22"
       x1="43"
       id="linearGradient3909"
       xlink:href="#linearGradient3895" />
    <linearGradient
       id="linearGradient3895">
      <stop
         id="stop3897"
         offset="0"
         style="stop-color:#729fcf;stop-opacity:1;" />
      <stop
         id="stop3899"
         offset="1"
         style="stop-color:#204a87;stop-opacity:1;" />
    </linearGradient>
    <linearGradient
       xlink:href="#linearGradient3895"
       id="linearGradient3023"
       gradientUnits="userSpaceOnUse"
       x1="53.195232"
       y1="30.717167"
       x2="30.198629"
       y2="33.575752"
       gradientTransform="matrix(0,-4.7685352,5.1148865,0,860.20335,1428.5537)" />
    <linearGradient
       xlink:href="#linearGradient3895-2"
       id="linearGradient3023-8"
       gradientUnits="userSpaceOnUse"
       x1="43"
       y1="22"
       x2="48"
       y2="44"
       gradientTransform="matrix(0,-7.3106737,7.3106737,0,1160.2086,1701.7691)" />
    <linearGradient
       id="linearGradient3895-2">
      <stop
         id="stop3897-4"
         offset="0"
         style="stop-color:#729fcf;stop-opacity:1;" />
      <stop
         id="stop3899-5"
         offset="1"
         style="stop-color:#204a87;stop-opacity:1;" />
    </linearGradient>
    <linearGradient
       xlink:href="#linearGradient3895-1"
       id="linearGradient3023-7"
       gradientUnits="userSpaceOnUse"
       x1="43"
       y1="22"
       x2="48"
       y2="44"
       gradientTransform="matrix(0,-4.7685352,5.1148865,0,1320.7758,1575.9421)" />
    <linearGradient
       id="linearGradient3895-1">
      <stop
         id="stop3897-1"
         offset="0"
         style="stop-color:#729fcf;stop-opacity:1;" />
      <stop
         id="stop3899-52"
         offset="1"
         style="stop-color:#204a87;stop-opacity:1;" />
    </linearGradient>
    <linearGradient
       xlink:href="#linearGradient3895-1"
       id="linearGradient3140"
       gradientUnits="userSpaceOnUse"
       gradientTransform="matrix(0,4.7685353,-5.1148865,0,1357.1998,1038.1977)"
       x1="27.132439"
       y1="35.005051"
       x2="50.12904"
       y2="29.287876" />
  </defs>
  <g
     id="layer1">
    <g
       transform="matrix(0.1367863,0,0,0.1367863,-119.15519,-134.86962)"
       id="g3360">
      <path
         id="path3931-2"
         d="m 907.65811,1329.5894 153.52409,-102.3494 160.8348,87.7281 -160.8348,102.3494 z"
         style="fill:none;stroke:#a40000;stroke-width:43.86404036999999789;stroke-linecap:round;stroke-linejoin:round;stroke-opacity:1" />
      <path
         transform="matrix(6.4505944,0,0,6.5796065,644.47383,1203.8458)"
         d="M 102,18 A 17,10 0 0 1 85,28 17,10 0 0 1 68,18 17,10 0 0 1 85,8 17,10 0 0 1 102,18 Z"
         id="path3951-3"
         style="fill:none;stroke:#a40000;stroke-width:6.73300314000000011;stroke-linecap:round;stroke-linejoin:round;stroke-miterlimit:4;stroke-opacity:1;stroke-dasharray:none" />
      <path
         transform="matrix(6.4505944,0,0,6.5796065,644.47383,1203.8458)"
         d="M 102,18 A 17,10 0 0 1 85,28 17,10 0 0 1 68,18 17,10 0 0 1 85,8 17,10 0 0 1 102,18 Z"
         id="path3951-4-2"
         style="fill:none;stroke:#ef2929;stroke-width:2.24433446000000010;stroke-linecap:round;stroke-linejoin:round;stroke-miterlimit:4;stroke-opacity:1;stroke-dasharray:none" />
      <path
         id="path3931-1-2"
         d="m 907.65812,1329.5895 153.52418,-102.3495 160.8348,87.7281 -160.8348,102.3494 z"
         style="fill:none;stroke:#ef2929;stroke-width:14.62134743000000000;stroke-linecap:round;stroke-linejoin:round;stroke-opacity:1" />
      <path
         id="path3931"
         d="m 907.65808,1124.8906 153.52412,-102.3494 160.8348,87.7281 -160.8348,102.3494 z"
         style="fill:none;stroke:#204a87;stroke-width:43.86404036999999789;stroke-linecap:round;stroke-linejoin:round;stroke-opacity:1" />
      <path
         transform="matrix(6.4505944,0,0,6.5796065,644.4738,999.14701)"
         d="M 102,18 A 17,10 0 0 1 85,28 17,10 0 0 1 68,18 17,10 0 0 1 85,8 17,10 0 0 1 102,18 Z"
         id="path3951"
         style="fill:none;stroke:#204a87;stroke-width:6.73300314000000011;stroke-linecap:round;stroke-linejoin:round;stroke-miterlimit:4;stroke-opacity:1;stroke-dasharray:none" />
      <path
         transform="matrix(6.4505944,0,0,6.5796065,644.4738,999.14701)"
         d="M 102,18 A 17,10 0 0 1 85,28 17,10 0 0 1 68,18 17,10 0 0 1 85,8 17,10 0 0 1 102,18 Z"
         id="path3951-4"
         style="fill:none;stroke:#729fcf;stroke-width:2.24433446;stroke-linecap:round;stroke-linejoin:round;stroke-miterlimit:4;stroke-opacity:1;stroke-dasharray:none" />
      <path
         id="path3931-1"
         d="m 907.65809,1124.8907 153.52421,-102.3495 160.8348,87.7281 -160.8348,102.3494 z"
         style="fill:none;stroke:#729fcf;stroke-width:14.62134743;stroke-linecap:round;stroke-linejoin:round;stroke-opacity:1" />
      <path
         id="path3343"
         d="m 936.90075,1226.0651 51.1747,0 0,87.7281 73.10675,0 0,-87.7281 51.1747,0 -87.7281,-87.7281 z"
         style="fill:url(#linearGradient3023);fill-opacity:1;fill-rule:evenodd;stroke:#0b1521;stroke-width:14.62134743000000000;stroke-linecap:butt;stroke-linejoin:round;stroke-miterlimit:4;stroke-opacity:1;stroke-dasharray:none" />
      <path
         id="path3343-2"
         d="m 973.19265,1211.2087 29.50415,0.235 0,87.7282 43.864,0 0,-87.7282 30.1826,0 -52.1146,-52.3496 z"
         style="fill:none;stroke:#729fcf;stroke-width:14.62134743;stroke-linecap:butt;stroke-linejoin:miter;stroke-miterlimit:4;stroke-opacity:1;stroke-dasharray:none" />
      <path
         id="path3343-7"
         d="m 1280.5024,1240.6863 -51.1747,0 0,-87.7281 -73.1068,0 0,87.7281 -51.1747,0 87.7281,87.7282 z"
         style="fill:url(#linearGradient3140);fill-opacity:1;fill-rule:evenodd;stroke:#0b1521;stroke-width:14.62134743000000000;stroke-linecap:butt;stroke-linejoin:round;stroke-miterlimit:4;stroke-opacity:1;stroke-dasharray:none" />
      <path
         id="path3343-2-6"
         d="m 1244.2105,1255.5427 -29.5042,-0.2349 0,-87.7282 -43.864,0 0,87.7282 -30.1826,0 52.1146,52.3496 z"
         style="fill:none;stroke:#729fcf;stroke-width:14.62134743;stroke-linecap:butt;stroke-linejoin:miter;stroke-miterlimit:4;stroke-opacity:1;stroke-dasharray:none" />
    </g>
  </g>
  <metadata
     id="metadata4132">
    <rdf:RDF>
      <cc:Work
         rdf:about="">
        <dc:format>image/svg+xml</dc:format>
        <dc:type
           rdf:resource="http://purl.org/dc/dcmitype/StillImage" />
        <dc:title></dc:title>
        <cc:license
           rdf:resource="" />
        <dc:date>Tue Dec 6 17:18:18 2011 +0000</dc:date>
        <dc:creator>
          <cc:Agent>
            <dc:title>[yorikvanhavre]</dc:title>
          </cc:Agent>
        </dc:creator>
        <dc:rights>
          <cc:Agent>
            <dc:title>FreeCAD LGPL2+</dc:title>
          </cc:Agent>
        </dc:rights>
        <dc:publisher>
          <cc:Agent>
            <dc:title>FreeCAD</dc:title>
          </cc:Agent>
        </dc:publisher>
        <dc:identifier>FreeCAD/src/Mod/Draft/Resources/icons/Draft_Draft2Sketch.svg</dc:identifier>
        <dc:relation>http://www.freecad.org/wiki/index.php?title=Artwork</dc:relation>
        <dc:contributor>
          <cc:Agent>
            <dc:title>[agryson] Alexander Gryson</dc:title>
          </cc:Agent>
        </dc:contributor>
        <dc:subject>
          <rdf:Bag>
            <rdf:li>circe</rdf:li>
            <rdf:li>square</rdf:li>
            <rdf:li>rectangle</rdf:li>
            <rdf:li>arrow</rdf:li>
          </rdf:Bag>
        </dc:subject>
        <dc:description>The intersecting outlines of a pair of circles and pair of squares behind a pair of arrows pointing in opposing directions up and down</dc:description>
      </cc:Work>
    </rdf:RDF>
  </metadata>
</svg>
