<?xml version="1.0" encoding="UTF-8" standalone="no"?>
<!-- Created with Inkscape (http://www.inkscape.org/) -->

<svg
   xmlns:dc="http://purl.org/dc/elements/1.1/"
   xmlns:cc="http://creativecommons.org/ns#"
   xmlns:rdf="http://www.w3.org/1999/02/22-rdf-syntax-ns#"
   xmlns:svg="http://www.w3.org/2000/svg"
   xmlns="http://www.w3.org/2000/svg"
   xmlns:xlink="http://www.w3.org/1999/xlink"
   xmlns:sodipodi="http://sodipodi.sourceforge.net/DTD/sodipodi-0.dtd"
   xmlns:inkscape="http://www.inkscape.org/namespaces/inkscape"
   width="64px"
   height="64px"
   id="svg5821"
   sodipodi:version="0.32"
   inkscape:version="0.48.1 r9760"
   sodipodi:docname="Draft_Draft2Sketch.svg"
   inkscape:output_extension="org.inkscape.output.svg.inkscape"
   version="1.1"
   inkscape:export-filename="/media/data/Yorik/FreeCAD/icons/Sketcher.png"
   inkscape:export-xdpi="45"
   inkscape:export-ydpi="45">
  <defs
     id="defs5823">
    <linearGradient
       inkscape:collect="always"
       id="linearGradient6349">
      <stop
         style="stop-color:#000000;stop-opacity:1;"
         offset="0"
         id="stop6351" />
      <stop
         style="stop-color:#000000;stop-opacity:0;"
         offset="1"
         id="stop6353" />
    </linearGradient>
    <linearGradient
       id="linearGradient3377">
      <stop
         style="stop-color:#0019a3;stop-opacity:1;"
         offset="0"
         id="stop3379" />
      <stop
         style="stop-color:#0069ff;stop-opacity:1;"
         offset="1"
         id="stop3381" />
    </linearGradient>
    <linearGradient
       inkscape:collect="always"
       xlink:href="#linearGradient3377"
       id="linearGradient3383"
       x1="901.1875"
       y1="1190.875"
       x2="1267.9062"
       y2="1190.875"
       gradientUnits="userSpaceOnUse"
       gradientTransform="matrix(-1,0,0,1,2199.356,0)" />
    <inkscape:perspective
       sodipodi:type="inkscape:persp3d"
       inkscape:vp_x="0 : 32 : 1"
       inkscape:vp_y="0 : 1000 : 0"
       inkscape:vp_z="64 : 32 : 1"
       inkscape:persp3d-origin="32 : 21.333333 : 1"
       id="perspective5829" />
    <radialGradient
       inkscape:collect="always"
       xlink:href="#linearGradient6349"
       id="radialGradient6355"
       cx="1103.6399"
       cy="1424.4465"
       fx="1103.6399"
       fy="1424.4465"
       r="194.40614"
       gradientTransform="matrix(-1.4307499,-1.3605156e-7,-1.202713e-8,0.1264801,2674.7488,1244.2826)"
       gradientUnits="userSpaceOnUse" />
  </defs>
  <sodipodi:namedview
     id="base"
     pagecolor="#ffffff"
     bordercolor="#666666"
     borderopacity="1.0"
     inkscape:pageopacity="0.0"
     inkscape:pageshadow="2"
     inkscape:zoom="3.8890873"
     inkscape:cx="28.336299"
     inkscape:cy="20.75337"
     inkscape:current-layer="g3360"
     showgrid="true"
     inkscape:document-units="px"
     inkscape:grid-bbox="true"
     inkscape:window-width="1280"
     inkscape:window-height="758"
     inkscape:window-x="0"
     inkscape:window-y="19"
     inkscape:window-maximized="1" />
  <metadata
     id="metadata5826">
    <rdf:RDF>
      <cc:Work
         rdf:about="">
        <dc:format>image/svg+xml</dc:format>
        <dc:type
           rdf:resource="http://purl.org/dc/dcmitype/StillImage" />
        <dc:title></dc:title>
      </cc:Work>
    </rdf:RDF>
  </metadata>
  <g
     id="layer1"
     inkscape:label="Layer 1"
     inkscape:groupmode="layer">
    <g
       id="g3360"
       inkscape:export-filename="/home/yorik/Documents/Lab/Draft/icons/draft.png"
       inkscape:export-xdpi="3.2478156"
       inkscape:export-ydpi="3.2478156"
       transform="matrix(0.1367863,0,0,0.1367863,-119.15519,-134.86962)">
      <path
         inkscape:connector-curvature="0"
         style="opacity:0.47345132;color:#000000;fill:#000000;fill-opacity:1;fill-rule:evenodd;stroke:none;stroke-width:11.90517521;marker:none;visibility:visible;display:inline;overflow:visible;enable-background:accumulate"
         d="m 1095.3533,1034.4189 0,116.5138 58.9423,0 0,-116.5138 -58.9423,0 z m -90.6981,38.8379 -41.80789,41.5795 82.47359,82.2451 41.5794,-41.5795 -82.2451,-82.2451 z m 247.4207,3.8838 -82.2451,82.2451 41.5794,41.5794 82.4736,-82.245 -41.8079,-41.5795 z m -334.23492,136.3898 0,58.9423 116.28542,0 0,-58.9423 -116.28542,0 z m 294.02612,0 0,58.9423 116.2855,0 0,-58.9423 -116.2855,0 z m 0.6854,67.3952 -41.5794,41.808 82.245,82.245 41.5795,-41.5794 -82.2451,-82.4736 z m -168.1455,4.1123 -82.47352,82.2451 41.80792,41.8079 82.2451,-82.4735 -41.5795,-41.5795 z m 51.1747,43.4071 0,116.2854 58.9424,0 0,-116.2854 -58.9424,0 z"
         id="rect3005-7" />
      <path
         style="color:#000000;fill:#2e76ff;fill-opacity:1;fill-rule:evenodd;stroke:#000343;stroke-width:1.62846482;stroke-linecap:butt;stroke-linejoin:round;stroke-miterlimit:4;stroke-opacity:1;stroke-dasharray:none;stroke-dashoffset:0;marker:none;visibility:visible;display:inline;overflow:visible;enable-background:accumulate"
         d="M 28.125 3.4375 L 28.125 19.375 L 36.1875 19.375 L 36.1875 3.4375 L 28.125 3.4375 z M 15.71875 8.75 L 10 14.4375 L 21.28125 25.6875 L 26.96875 20 L 15.71875 8.75 z M 49.5625 9.28125 L 38.3125 20.53125 L 44 26.21875 L 55.28125 14.96875 L 49.5625 9.28125 z M 3.84375 27.9375 L 3.84375 36 L 19.75 36 L 19.75 27.9375 L 3.84375 27.9375 z M 44.0625 27.9375 L 44.0625 36 L 59.96875 36 L 59.96875 27.9375 L 44.0625 27.9375 z M 44.15625 37.15625 L 38.46875 42.875 L 49.71875 54.125 L 55.40625 48.4375 L 44.15625 37.15625 z M 21.15625 37.71875 L 9.875 48.96875 L 15.59375 54.6875 L 26.84375 43.40625 L 21.15625 37.71875 z M 28.15625 43.65625 L 28.15625 59.5625 L 36.21875 59.5625 L 36.21875 43.65625 L 28.15625 43.65625 z "
         transform="matrix(7.3106737,0,0,7.3106737,871.10471,985.98778)"
         id="rect3005" />
    </g>
  </g>
</svg>
