<?xml version="1.0" encoding="UTF-8" standalone="no"?>
<svg
   version="1.1"
   id="svg2726"
   height="64px"
   width="64px"
   xmlns="http://www.w3.org/2000/svg"
   xmlns:svg="http://www.w3.org/2000/svg"
   xmlns:rdf="http://www.w3.org/1999/02/22-rdf-syntax-ns#"
   xmlns:cc="http://creativecommons.org/ns#"
   xmlns:dc="http://purl.org/dc/elements/1.1/">
  <defs
     id="defs2728" />
  <metadata
     id="metadata6284">
    <rdf:RDF>
      <cc:Work
         rdf:about="">
        <dc:format>image/svg+xml</dc:format>
        <dc:type
           rdf:resource="http://purl.org/dc/dcmitype/StillImage" />
        <dc:date>Tue Sep 17 23:07:04 2013 -0300</dc:date>
        <dc:creator>
          <cc:Agent>
            <dc:title>[Yorik van Havre]</dc:title>
          </cc:Agent>
        </dc:creator>
        <dc:rights>
          <cc:Agent>
            <dc:title>FreeCAD LGPL2+</dc:title>
          </cc:Agent>
        </dc:rights>
        <dc:publisher>
          <cc:Agent>
            <dc:title>FreeCAD</dc:title>
          </cc:Agent>
        </dc:publisher>
        <dc:identifier>FreeCAD/src/Mod/Draft/Resources/icons/Draft_Snap_Dimensions.svg</dc:identifier>
        <dc:relation>https://www.freecad.org/wiki/index.php?title=Artwork</dc:relation>
        <dc:contributor>
          <cc:Agent>
            <dc:title>[agryson] Alexander Gryson</dc:title>
          </cc:Agent>
        </dc:contributor>
        <dc:description>Square with one missing corner and numbers by the remaining sides.</dc:description>
        <dc:subject>
          <rdf:Bag>
            <rdf:li>line</rdf:li>
            <rdf:li>lines</rdf:li>
            <rdf:li>square</rdf:li>
            <rdf:li>numbers</rdf:li>
            <rdf:li>measure</rdf:li>
          </rdf:Bag>
        </dc:subject>
        <cc:license
           rdf:resource="http://creativecommons.org/licenses/by-sa/4.0/" />
      </cc:Work>
      <cc:License
         rdf:about="http://creativecommons.org/licenses/by-sa/4.0/">
        <cc:permits
           rdf:resource="http://creativecommons.org/ns#Reproduction" />
        <cc:permits
           rdf:resource="http://creativecommons.org/ns#Distribution" />
        <cc:requires
           rdf:resource="http://creativecommons.org/ns#Notice" />
        <cc:requires
           rdf:resource="http://creativecommons.org/ns#Attribution" />
        <cc:permits
           rdf:resource="http://creativecommons.org/ns#DerivativeWorks" />
        <cc:requires
           rdf:resource="http://creativecommons.org/ns#ShareAlike" />
      </cc:License>
    </rdf:RDF>
  </metadata>
  <g
     id="layer3"
     style="display:inline">
    <path
       id="path3834"
       d="M 195.15051,756.24602 H 127.30297 V 586.62716 h 181.95478 v 67.84755"
       style="display:inline;fill:none;stroke:#042a2a;stroke-width:37.0078;stroke-linecap:round;stroke-linejoin:round;stroke-opacity:1"
       transform="matrix(0.1621282,0,0,0.1621282,6.3605986,-66.108806)" />
    <path
       transform="matrix(0.64285712,0,0,0.64285712,7.5000005,-7.9285696)"
       d="m 37.333333,57.444444 c 0,3.865993 -3.134007,7 -7,7 -3.865993,0 -7,-3.134007 -7,-7 0,-3.865993 3.134007,-7 7,-7 3.865993,0 7,3.134007 7,7 z"
       id="path3854-7"
       style="fill:#16d0d2;fill-opacity:1;stroke:#042a2a;stroke-width:3.11111;stroke-linecap:round;stroke-linejoin:round;stroke-miterlimit:4;stroke-dasharray:none;stroke-opacity:1" />
    <path
       transform="matrix(0.64285712,0,0,0.64285712,7.5000008,17.07143)"
       d="m 37.333333,61.333333 c 0,3.865994 -3.134007,7 -7,7 -3.865993,0 -7,-3.134006 -7,-7 0,-3.865993 3.134007,-7 7,-7 3.865993,0 7,3.134007 7,7 z"
       id="path3854-7-7"
       style="fill:#16d0d2;fill-opacity:1;stroke:#042a2a;stroke-width:3.11111;stroke-linecap:round;stroke-linejoin:round;stroke-miterlimit:4;stroke-dasharray:none;stroke-opacity:1" />
    <path
       transform="matrix(0.64285712,0,0,0.64285712,34.5,-7.9285696)"
       d="m 41.222223,57.444444 c 0,3.865993 -3.134006,7 -7,7 -3.865993,0 -7,-3.134007 -7,-7 0,-3.865993 3.134007,-7 7,-7 3.865994,0 7,3.134007 7,7 z"
       id="path3854-7-1"
       style="fill:#16d0d2;fill-opacity:1;stroke:#042a2a;stroke-width:3.11111;stroke-linecap:round;stroke-linejoin:round;stroke-miterlimit:4;stroke-dasharray:none;stroke-opacity:1" />
    <path
       id="path3834-2"
       d="M 195.15052,756.24602 H 127.30297 V 586.62716 h 181.95478 v 67.84755"
       style="display:inline;fill:none;stroke:#34e0e2;stroke-width:12.3359;stroke-linecap:round;stroke-linejoin:round;stroke-opacity:1"
       transform="matrix(0.1621282,0,0,0.1621282,6.3605986,-66.108806)" />
    <path
       transform="matrix(0.35714286,0,0,0.35714286,42.500001,6.9285716)"
       d="m 46.200002,61.799998 c 0,3.865993 -3.134007,7 -7,7 -3.865994,0 -7,-3.134007 -7,-7 0,-3.865993 3.134006,-7 7,-7 3.865993,0 7,3.134007 7,7 z"
       id="path3854-7-3-1"
       style="display:inline;fill:#16d0d2;stroke:#34e0e2;stroke-width:5.6;stroke-linecap:round;stroke-linejoin:round;stroke-miterlimit:4;stroke-dasharray:none;stroke-opacity:1" />
    <path
       transform="matrix(0.35714286,0,0,0.35714286,15.5,31.928571)"
       d="m 39.199999,68.799999 c 0,3.865993 -3.134007,7 -7,7 -3.865993,0 -7,-3.134007 -7,-7 0,-3.865993 3.134007,-7 7,-7 3.865993,0 7,3.134007 7,7 z"
       id="path3854-7-3-2"
       style="display:inline;fill:#16d0d2;stroke:#34e0e2;stroke-width:5.6;stroke-linecap:round;stroke-linejoin:round;stroke-miterlimit:4;stroke-dasharray:none;stroke-opacity:1" />
    <path
       transform="matrix(0.35714286,0,0,0.35714286,15.5,6.9285716)"
       d="m 39.199999,61.799998 c 0,3.865993 -3.134006,7 -7,7 -3.865993,0 -7,-3.134007 -7,-7 0,-3.865993 3.134007,-7 7,-7 3.865994,0 7,3.134007 7,7 z"
       id="path3854-7-3"
       style="display:inline;fill:#16d0d2;stroke:#34e0e2;stroke-width:5.6;stroke-linecap:round;stroke-linejoin:round;stroke-miterlimit:4;stroke-dasharray:none;stroke-opacity:1" />
  </g>
  <path
     style="font-weight:600;font-size:28px;line-height:1.25;font-family:FreeSans;-inkscape-font-specification:'FreeSans Semi-Bold';fill:#34e0e2;stroke:#2e3436;stroke-width:2;stroke-linecap:round;stroke-linejoin:round"
     d="m 43.531999,12.996001 6.552,10.416 h -4.984 l -3.92,-7.084 -3.892,7.084 h -4.872 l 6.44,-10.276 -6.216,-10.1360003 h 4.984 l 3.584,6.72 3.752,-6.72 h 4.872 z"
     id="text2"
     aria-label="X" />
  <path
     style="font-weight:600;font-size:28px;line-height:1.25;font-family:FreeSans;-inkscape-font-specification:'FreeSans Semi-Bold';fill:#34e0e2;stroke:#2e3436;stroke-width:2;stroke-linecap:round;stroke-linejoin:round"
     d="m 13.976,44.896001 v 7.56 h -4.2 v -7.56 L 3,32.044001 h 4.676 l 4.172,9.016 3.892,-9.016 h 4.704 z"
     id="text2-4"
     aria-label="Y" />
</svg>
