<?xml version="1.0" encoding="UTF-8" standalone="no"?>
<svg
   version="1.1"
   id="svg3612"
   height="64px"
   width="64px"
   xmlns:xlink="http://www.w3.org/1999/xlink"
   xmlns="http://www.w3.org/2000/svg"
   xmlns:svg="http://www.w3.org/2000/svg"
   xmlns:rdf="http://www.w3.org/1999/02/22-rdf-syntax-ns#"
   xmlns:cc="http://creativecommons.org/ns#"
   xmlns:dc="http://purl.org/dc/elements/1.1/">
  <defs
     id="defs3614">
    <linearGradient
       xlink:href="#linearGradient2497"
       id="linearGradient2"
       x1="454.8096"
       y1="115.02686"
       x2="467.76303"
       y2="102.29894"
       gradientUnits="userSpaceOnUse"
       gradientTransform="matrix(0.69479672,-0.69479672,0.70710678,0.70710678,-380.19427,258.66394)" />
    <linearGradient
       id="linearGradient2497">
      <stop
         id="stop2493"
         offset="0"
         style="stop-color:#204a87;stop-opacity:1" />
      <stop
         id="stop2495"
         offset="1"
         style="stop-color:#729fcf;stop-opacity:1" />
    </linearGradient>
  </defs>
  <g
     id="layer1"
     style="display:inline">
    <path
       style="fill:#3465a4;fill-opacity:1;stroke:#0b1521;stroke-width:2;stroke-linecap:butt;stroke-linejoin:round;stroke-miterlimit:4;stroke-dasharray:none;stroke-opacity:1"
       d="M 60,4 24,28 36,36 20,60 60,52 52,38 Z"
       id="path3278-8" />
    <path
       id="path3278-8-3"
       style="fill:none;stroke:#729fcf;stroke-width:2;stroke-linecap:butt;stroke-linejoin:miter;stroke-miterlimit:4;stroke-dasharray:none;stroke-opacity:1"
       d="m 27.605469,28 c 3.722656,2.481771 7.445312,4.963542 11.167969,7.445312 C 33.963399,42.661363 29.153669,49.87762 24.34375,57.09375 35.191406,54.923177 46.039063,52.752604 56.886719,50.582031 54.548193,46.490876 52.209539,42.399795 49.871094,38.308594 52.215464,28.364047 54.55285,18.417842 56.894531,8.4726562 47.13151,14.981771 37.36849,21.490885 27.605469,28 Z" />
  </g>
  <metadata
     id="metadata4337">
    <rdf:RDF>
      <cc:Work
         rdf:about="">
        <dc:format>image/svg+xml</dc:format>
        <dc:type
           rdf:resource="http://purl.org/dc/dcmitype/StillImage" />
        <dc:date>Mon Oct 10 13:44:52 2011 +0000</dc:date>
        <dc:creator>
          <cc:Agent>
            <dc:title>[wmayer]</dc:title>
          </cc:Agent>
        </dc:creator>
        <dc:rights>
          <cc:Agent>
            <dc:title>FreeCAD LGPL2+</dc:title>
          </cc:Agent>
        </dc:rights>
        <dc:publisher>
          <cc:Agent>
            <dc:title>FreeCAD</dc:title>
          </cc:Agent>
        </dc:publisher>
        <dc:identifier>FreeCAD/src/Mod/Draft/Resources/icons/Draft_Edit.svg</dc:identifier>
        <dc:relation>https://www.freecad.org/wiki/index.php?title=Artwork</dc:relation>
        <dc:contributor>
          <cc:Agent>
            <dc:title>[agryson] Alexander Gryson</dc:title>
          </cc:Agent>
        </dc:contributor>
        <dc:subject>
          <rdf:Bag>
            <rdf:li>polygon</rdf:li>
            <rdf:li>pencil</rdf:li>
            <rdf:li>edit</rdf:li>
          </rdf:Bag>
        </dc:subject>
        <dc:description>Irregular polygon behind a pencil</dc:description>
        <cc:license
           rdf:resource="http://creativecommons.org/licenses/by-sa/4.0/" />
      </cc:Work>
      <cc:License
         rdf:about="http://creativecommons.org/licenses/by-sa/4.0/">
        <cc:permits
           rdf:resource="http://creativecommons.org/ns#Reproduction" />
        <cc:permits
           rdf:resource="http://creativecommons.org/ns#Distribution" />
        <cc:requires
           rdf:resource="http://creativecommons.org/ns#Notice" />
        <cc:requires
           rdf:resource="http://creativecommons.org/ns#Attribution" />
        <cc:permits
           rdf:resource="http://creativecommons.org/ns#DerivativeWorks" />
        <cc:requires
           rdf:resource="http://creativecommons.org/ns#ShareAlike" />
      </cc:License>
    </rdf:RDF>
  </metadata>
  <g
     id="layer4"
     style="display:inline"
     transform="translate(0,-3.9999998)">
    <path
       style="display:inline;fill:url(#linearGradient2);stroke:none;stroke-width:2;stroke-linecap:butt;stroke-linejoin:round;stroke-opacity:1"
       d="M 3.0000818,21.999919 H 29.28419 c -2.12132,-2.121321 -2.121318,-2.878714 1e-6,-5.000033 -2.118429,-2.118428 -2.118629,-3.88137 0,-6 -2.12132,-2.1213203 -2.121317,-2.8785688 1e-6,-4.9998875 l -26.2841095,-1.4e-6 z"
       id="path3843-5-6-9-7"
       transform="translate(-2.0727188e-6,1.0000826)" />
    <path
       style="display:inline;fill:none;stroke:#729fcf;stroke-width:2.01764;stroke-linecap:butt;stroke-linejoin:miter;stroke-opacity:1"
       d="m 452.54848,97.248607 17.9055,17.593793"
       id="path3888-5-6"
       transform="matrix(0.69479672,-0.69479672,0.70710678,0.70710678,-380.19427,259.66402)" />
    <path
       style="display:inline;fill:none;stroke:#376caf;stroke-width:2.01764;stroke-linecap:butt;stroke-linejoin:miter;stroke-opacity:1"
       d="m 410.16237,100.31115 17.8493,17.53857"
       id="path3888"
       transform="matrix(0.69479672,-0.69479672,0.70710678,0.70710678,-352.91008,234.04877)" />
    <path
       style="display:inline;fill:none;stroke:#0b1521;stroke-width:2.01764;stroke-linecap:butt;stroke-linejoin:round;stroke-opacity:1"
       d="m 446.07175,103.61259 18.91496,18.58567 c 0,-3 0.54504,-3.53555 3.59819,-3.53555 0,-2.99591 1.26853,-4.24264 4.31781,-4.24264 0,-3 0.54495,-3.53546 3.5981,-3.53546 L 457.58585,92.298938 Z"
       id="path3843-5-6-9-6"
       transform="matrix(0.69479672,-0.69479672,0.70710678,0.70710678,-380.19427,259.66402)" />
    <path
       d="M 29.284191,10.999886 H 3.0000823 Z"
       style="display:inline;fill:none;stroke:#0b1521;stroke-width:2;stroke-linecap:butt;stroke-linejoin:round;stroke-opacity:1"
       id="path1"
       transform="translate(-2.0727188e-6,1.0000826)" />
    <path
       d="M 29.284191,16.999886 H 3.000082 Z"
       style="display:inline;fill:none;stroke:#0b1521;stroke-width:2;stroke-linecap:butt;stroke-linejoin:round;stroke-opacity:1"
       id="path1-7"
       transform="translate(-2.0727188e-6,1.0000826)" />
    <path
       d="m 29.284189,17.999969 c -2.081547,-2.11843 -2.081746,-3.88137 0,-6 -2.084393,-2.1213172 -2.084387,-2.8785695 2e-6,-4.9998895 L 44.840542,14.999964 29.284189,23 c -2.084394,-2.121316 -2.084389,-2.878712 0,-5.000031 z"
       style="display:inline;fill:#ffffff;stroke:#0b1521;stroke-width:2;stroke-linecap:butt;stroke-linejoin:round;stroke-opacity:1"
       id="path1-2"
       transform="translate(2.6676933e-6)" />
    <path
       style="display:inline;fill:#0b1521;stroke:none;stroke-width:1.00882px;stroke-linecap:butt;stroke-linejoin:round;stroke-opacity:1"
       d="m 473.46271,124.86983 8.47599,2.67156 -2.71894,-8.32839 c -3.10593,0.81774 -4.92679,2.61222 -5.75705,5.65683 z"
       id="path3971-2"
       transform="matrix(0.69479672,-0.69479672,0.70710678,0.70710678,-380.19427,259.66402)" />
  </g>
</svg>
