<?xml version="1.0" encoding="UTF-8" standalone="no"?>
<svg
   version="1.1"
   id="svg3612"
   height="64"
   width="64"
   xmlns:xlink="http://www.w3.org/1999/xlink"
   xmlns="http://www.w3.org/2000/svg"
   xmlns:svg="http://www.w3.org/2000/svg"
   xmlns:rdf="http://www.w3.org/1999/02/22-rdf-syntax-ns#"
   xmlns:cc="http://creativecommons.org/ns#"
   xmlns:dc="http://purl.org/dc/elements/1.1/">
  <defs
     id="defs3614">
    <linearGradient
       id="linearGradient4680">
      <stop
         style="stop-color:#34e0e2;stop-opacity:1;"
         offset="0"
         id="stop4676" />
      <stop
         style="stop-color:#06989a;stop-opacity:1;"
         offset="1"
         id="stop4678" />
    </linearGradient>
    <linearGradient
       gradientUnits="userSpaceOnUse"
       y2="54.889133"
       x2="56.859715"
       y1="10"
       x1="7.421875"
       id="linearGradient3961"
       xlink:href="#linearGradient4680" />
    <linearGradient
       gradientUnits="userSpaceOnUse"
       y2="131.22015"
       x2="154.4444"
       y1="159.22015"
       x1="162.4444"
       id="linearGradient3850-2"
       xlink:href="#linearGradient3836-7"
       gradientTransform="translate(-141.44439,-128.22016)" />
    <linearGradient
       id="linearGradient3836-7">
      <stop
         id="stop3838-0"
         offset="0"
         style="stop-color:#06989a;stop-opacity:1;" />
      <stop
         id="stop3840-9"
         offset="1"
         style="stop-color:#34e0e2;stop-opacity:1;" />
    </linearGradient>
    <linearGradient
       xlink:href="#linearGradient3836-7"
       id="linearGradient1"
       gradientUnits="userSpaceOnUse"
       gradientTransform="translate(-141.44439,-106.22016)"
       x1="162.4444"
       y1="159.22015"
       x2="154.4444"
       y2="131.22015" />
  </defs>
  <g
     id="layer1"
     style="display:inline">
    <path
       id="rect15391"
       d="M 19.578125,8 5.4042969,8.0058594 C 5.1706901,8.005955 4.9823344,8.2113736 4.9824219,8.4667969 l 0.00391,7.9042971 c -2.596e-4,0.01067 -0.00391,0.02052 -0.00391,0.03125 L 5,55.617188 C 5.0003146,56.383475 5.677268,57.000287 6.5175781,57 L 57.5,56.982422 c 0.84031,-2.87e-4 1.517893,-0.618479 1.517578,-1.384766 L 59,16.382812 C 58.999685,15.616525 58.322732,14.999713 57.482422,15 H 25 L 20,8.4609375 C 19.999913,8.2055142 19.811732,7.9999044 19.578125,8 Z"
       style="color:#000000;display:block;overflow:visible;visibility:visible;fill:url(#linearGradient3961);fill-opacity:1;fill-rule:nonzero;stroke:#172a04;stroke-width:2;stroke-linecap:round;stroke-linejoin:round;stroke-miterlimit:4;stroke-dasharray:none;stroke-dashoffset:0;stroke-opacity:1;marker:none" />
    <path
       id="rect15391-2"
       d="M 18.578125,10 H 7.421875 C 7.1882682,10.000096 6.9999125,10.205514 7,10.460938 L 7.00391,15.96875 7,16 v 38 c 0,1 0,1 1,1 h 48 c 1,0 1,0 1,-1 V 18 c 0,-1 0,-1 -1,-1 H 24 L 19,10.460938 C 18.999913,10.205514 18.811732,9.9999044 18.578125,10 Z"
       style="color:#000000;display:block;overflow:visible;visibility:visible;fill:none;fill-opacity:1;fill-rule:nonzero;stroke:#34e0e2;stroke-width:2;stroke-linecap:round;stroke-linejoin:round;stroke-miterlimit:4;stroke-dasharray:none;stroke-dashoffset:0;stroke-opacity:1;marker:none" />
  </g>
  <metadata
     id="metadata4251">
    <rdf:RDF>
      <cc:Work
         rdf:about="">
        <dc:format>image/svg+xml</dc:format>
        <dc:type
           rdf:resource="http://purl.org/dc/dcmitype/StillImage" />
        <dc:title />
        <cc:license
           rdf:resource="" />
        <dc:rights>
          <cc:Agent>
            <dc:title>FreeCAD LGPL2+</dc:title>
          </cc:Agent>
        </dc:rights>
        <dc:publisher>
          <cc:Agent>
            <dc:title>FreeCAD</dc:title>
          </cc:Agent>
        </dc:publisher>
        <dc:identifier>FreeCAD/src/Mod/Draft/Resources/icons/Draft_AutoGroup_on.svg</dc:identifier>
        <dc:relation>https://www.freecad.org/wiki/index.php?title=Artwork</dc:relation>
        <dc:subject>
          <rdf:Bag>
            <rdf:li>arrow</rdf:li>
            <rdf:li>page</rdf:li>
            <rdf:li>shapes</rdf:li>
          </rdf:Bag>
        </dc:subject>
        <dc:description>An folder with a plus and a minus signs on top of it.</dc:description>
      </cc:Work>
    </rdf:RDF>
  </metadata>
  <g
     id="g1"
     style="display:inline"
     transform="translate(15,8)">
    <path
       id="rect3558"
       d="M 13,3 V 13 H 3 v 8 h 10 v 10 h 8 V 21 H 31 V 13 H 21 V 3 Z"
       style="color:#000000;display:inline;overflow:visible;visibility:visible;fill:url(#linearGradient3850-2);fill-opacity:1;fill-rule:evenodd;stroke:#0b1521;stroke-width:2;stroke-linecap:butt;stroke-linejoin:round;stroke-miterlimit:4;stroke-dasharray:none;stroke-dashoffset:0;stroke-opacity:1;marker:none;enable-background:accumulate" />
    <path
       id="path3826"
       d="M 5,15 H 15 V 5 h 4 v 10 h 10 v 4 H 19 V 29 H 15 V 19 H 5 Z"
       style="fill:none;stroke:#34e0e2;stroke-width:2;stroke-linecap:butt;stroke-linejoin:miter;stroke-opacity:1" />
    <path
       id="rect3558-2"
       d="m 3,35 v 8 h 28 v -8 z"
       style="color:#000000;display:inline;overflow:visible;visibility:visible;fill:url(#linearGradient1);fill-opacity:1;fill-rule:evenodd;stroke:#0b1521;stroke-width:2;stroke-linecap:butt;stroke-linejoin:round;stroke-miterlimit:4;stroke-dasharray:none;stroke-dashoffset:0;stroke-opacity:1;marker:none;enable-background:accumulate" />
    <path
       id="path3826-2"
       d="m 5,37 h 24 v 4 H 5 Z"
       style="display:inline;fill:none;stroke:#34e0e2;stroke-width:2;stroke-linecap:butt;stroke-linejoin:miter;stroke-opacity:1" />
  </g>
</svg>
