<?xml version="1.0" encoding="UTF-8" standalone="no"?>
<!-- Created with Inkscape (http://www.inkscape.org/) -->

<svg
   xmlns:dc="http://purl.org/dc/elements/1.1/"
   xmlns:cc="http://creativecommons.org/ns#"
   xmlns:rdf="http://www.w3.org/1999/02/22-rdf-syntax-ns#"
   xmlns:svg="http://www.w3.org/2000/svg"
   xmlns="http://www.w3.org/2000/svg"
   xmlns:xlink="http://www.w3.org/1999/xlink"
   xmlns:sodipodi="http://sodipodi.sourceforge.net/DTD/sodipodi-0.dtd"
   xmlns:inkscape="http://www.inkscape.org/namespaces/inkscape"
   width="64px"
   height="64px"
   id="svg2726"
   sodipodi:version="0.32"
   inkscape:version="0.48.1 r9760"
   sodipodi:docname="Snap_Parallel.svg"
   inkscape:output_extension="org.inkscape.output.svg.inkscape"
   version="1.1">
  <defs
     id="defs2728">
    <linearGradient
       inkscape:collect="always"
       id="linearGradient3144">
      <stop
         style="stop-color:#ffffff;stop-opacity:1;"
         offset="0"
         id="stop3146" />
      <stop
         style="stop-color:#ffffff;stop-opacity:0;"
         offset="1"
         id="stop3148" />
    </linearGradient>
    <inkscape:perspective
       sodipodi:type="inkscape:persp3d"
       inkscape:vp_x="0 : 32 : 1"
       inkscape:vp_y="0 : 1000 : 0"
       inkscape:vp_z="64 : 32 : 1"
       inkscape:persp3d-origin="32 : 21.333333 : 1"
       id="perspective2734" />
    <radialGradient
       inkscape:collect="always"
       xlink:href="#linearGradient3144"
       id="radialGradient3850"
       gradientUnits="userSpaceOnUse"
       gradientTransform="matrix(1,0,0,0.6985294,0,202.82863)"
       cx="225.26402"
       cy="672.79736"
       fx="225.26402"
       fy="672.79736"
       r="34.345188" />
    <radialGradient
       inkscape:collect="always"
       xlink:href="#linearGradient3144-7"
       id="radialGradient3850-2"
       gradientUnits="userSpaceOnUse"
       gradientTransform="matrix(1,0,0,0.6985294,0,202.82863)"
       cx="225.26402"
       cy="672.79736"
       fx="225.26402"
       fy="672.79736"
       r="34.345188" />
    <linearGradient
       inkscape:collect="always"
       id="linearGradient3144-7">
      <stop
         style="stop-color:#ffffff;stop-opacity:1;"
         offset="0"
         id="stop3146-4" />
      <stop
         style="stop-color:#ffffff;stop-opacity:0;"
         offset="1"
         id="stop3148-4" />
    </linearGradient>
    <radialGradient
       r="34.345188"
       fy="672.79736"
       fx="225.26402"
       cy="672.79736"
       cx="225.26402"
       gradientTransform="matrix(1,0,0,0.6985294,0,202.82863)"
       gradientUnits="userSpaceOnUse"
       id="radialGradient4437"
       xlink:href="#linearGradient3144-7"
       inkscape:collect="always" />
  </defs>
  <sodipodi:namedview
     id="base"
     pagecolor="#ffffff"
     bordercolor="#666666"
     borderopacity="1.0"
     inkscape:pageopacity="0.0"
     inkscape:pageshadow="2"
     inkscape:zoom="3.8890873"
     inkscape:cx="28.117126"
     inkscape:cy="53.665776"
     inkscape:current-layer="g4289"
     showgrid="true"
     inkscape:document-units="px"
     inkscape:grid-bbox="true"
     inkscape:window-width="1280"
     inkscape:window-height="755"
     inkscape:window-x="0"
     inkscape:window-y="22"
     inkscape:window-maximized="1" />
  <metadata
     id="metadata2731">
    <rdf:RDF>
      <cc:Work
         rdf:about="">
        <dc:format>image/svg+xml</dc:format>
        <dc:type
           rdf:resource="http://purl.org/dc/dcmitype/StillImage" />
        <dc:title></dc:title>
      </cc:Work>
    </rdf:RDF>
  </metadata>
  <g
     id="layer1"
     inkscape:label="Layer 1"
     inkscape:groupmode="layer">
    <g
       id="g4289"
       transform="matrix(0.1621282,0,0,0.1621282,6.3605986,-66.108806)">
      <path
         style="opacity:0.525;fill:#000000;fill-opacity:1;fill-rule:nonzero;stroke:#000000;stroke-width:5.79999971;stroke-linecap:butt;stroke-linejoin:miter;stroke-miterlimit:4;stroke-opacity:1;stroke-dasharray:none;stroke-dashoffset:0;marker:none;visibility:visible;display:inline;overflow:visible;enable-background:accumulate"
         d="m 168.43596,455.68983 c -91.631348,0 -165.7638794,74.51802 -165.7638794,166.14938 0,91.63135 74.1325314,165.76388 165.7638794,165.76388 91.63135,0 165.95663,-74.13253 165.95663,-165.76388 0,-91.63136 -74.32528,-166.14938 -165.95663,-166.14938 z m 0,38.74248 c 70.26438,0 127.40689,57.14251 127.40689,127.4069 0,70.26439 -57.14251,127.02139 -127.40689,127.02139 -70.264397,0 -127.21414,-56.757 -127.21414,-127.02139 0,-70.26439 56.949743,-127.4069 127.21414,-127.4069 z m 1.15649,77.48498 c -3.22734,-0.0197 -6.54105,0.3116 -9.83018,0.96375 -26.31304,5.21716 -43.38141,30.74058 -38.16424,57.05361 5.21716,26.31304 30.74058,43.38141 57.05361,38.16424 26.31304,-5.21716 43.38141,-30.74058 38.16424,-57.05361 -4.56502,-23.02391 -24.63203,-38.98999 -47.22343,-39.12799 z"
         id="path3162-5"
         inkscape:connector-curvature="0" />
      <g
         inkscape:export-ydpi="7.0721951"
         inkscape:export-xdpi="7.0721951"
         inkscape:export-filename="/home/yorik/Documents/Lab/Draft/icons/line.png"
         transform="matrix(-0.98090505,0.19448714,-0.19448714,-0.98090505,478.13202,1203.4409)"
         id="g3160">
        <path
           sodipodi:type="arc"
           style="fill:#00b286;fill-opacity:1;fill-rule:nonzero;stroke:#000000;stroke-width:5.80000019;stroke-linecap:butt;stroke-linejoin:miter;stroke-miterlimit:4;stroke-opacity:1;stroke-dasharray:none;stroke-dashoffset:0;marker:none;visibility:visible;display:inline;overflow:visible;enable-background:accumulate"
           id="path3162"
           sodipodi:cx="197.14285"
           sodipodi:cy="655.2193"
           sodipodi:rx="48.57143"
           sodipodi:ry="48.57143"
           d="m 245.71428,655.2193 c 0,26.82526 -21.74617,48.57143 -48.57143,48.57143 -26.82526,0 -48.57143,-21.74617 -48.57143,-48.57143 0,-26.82526 21.74617,-48.57143 48.57143,-48.57143 26.82526,0 48.57143,21.74617 48.57143,48.57143 z" />
        <path
           sodipodi:type="arc"
           style="fill:url(#radialGradient3850);fill-opacity:1;stroke:none"
           id="path3164"
           sodipodi:cx="225.26402"
           sodipodi:cy="672.79736"
           sodipodi:rx="34.345188"
           sodipodi:ry="23.991123"
           d="m 259.60921,672.79736 c 0,13.24993 -15.37686,23.99113 -34.34519,23.99113 -18.96832,0 -34.34519,-10.7412 -34.34519,-23.99113 0,-13.24993 15.37687,-23.99112 34.34519,-23.99112 18.96833,0 34.34519,10.74119 34.34519,23.99112 z"
           transform="matrix(0.8513023,-0.5246754,0.5246754,0.8513023,-338.69692,214.19328)" />
      </g>
      <path
         style="color:#000000;fill:#ffffff;fill-opacity:1;fill-rule:nonzero;stroke:#000000;stroke-width:5.80000162;stroke-linecap:butt;stroke-linejoin:miter;stroke-miterlimit:4;stroke-opacity:1;stroke-dasharray:none;stroke-dashoffset:0;marker:none;visibility:visible;display:inline;overflow:visible;enable-background:accumulate"
         d="m 156.58988,434.3085 c -91.631354,0 -165.8338664,74.38335 -165.8338664,166.0147 0,91.63136 74.2025124,165.83387 165.8338664,165.83387 91.63135,0 166.0147,-74.20251 166.0147,-165.83387 0,-91.63135 -74.38335,-166.0147 -166.0147,-166.0147 z m 0,38.70059 c 70.26439,0 127.31411,57.04972 127.31411,127.31411 0,70.2644 -57.04972,127.13327 -127.31411,127.13327 -70.2644,0 -127.13327,-56.86887 -127.13327,-127.13327 0,-70.26439 56.86887,-127.31411 127.13327,-127.31411 z"
         id="path4364"
         inkscape:connector-curvature="0" />
    </g>
  </g>
</svg>
