<?xml version="1.0" encoding="UTF-8" standalone="no"?>
<!-- Created with Inkscape (http://www.inkscape.org/) -->

<svg
   xmlns:dc="http://purl.org/dc/elements/1.1/"
   xmlns:cc="http://creativecommons.org/ns#"
   xmlns:rdf="http://www.w3.org/1999/02/22-rdf-syntax-ns#"
   xmlns:svg="http://www.w3.org/2000/svg"
   xmlns="http://www.w3.org/2000/svg"
   xmlns:xlink="http://www.w3.org/1999/xlink"
   xmlns:sodipodi="http://sodipodi.sourceforge.net/DTD/sodipodi-0.dtd"
   xmlns:inkscape="http://www.inkscape.org/namespaces/inkscape"
   width="64px"
   height="64px"
   id="svg2726"
   sodipodi:version="0.32"
   inkscape:version="0.48.3.1 r9886"
   sodipodi:docname="Snap_Grid.svg"
   inkscape:output_extension="org.inkscape.output.svg.inkscape"
   version="1.1">
  <defs
     id="defs2728">
    <linearGradient
       inkscape:collect="always"
       id="linearGradient3144">
      <stop
         style="stop-color:#ffffff;stop-opacity:1;"
         offset="0"
         id="stop3146" />
      <stop
         style="stop-color:#ffffff;stop-opacity:0;"
         offset="1"
         id="stop3148" />
    </linearGradient>
    <inkscape:perspective
       sodipodi:type="inkscape:persp3d"
       inkscape:vp_x="0 : 32 : 1"
       inkscape:vp_y="0 : 1000 : 0"
       inkscape:vp_z="64 : 32 : 1"
       inkscape:persp3d-origin="32 : 21.333333 : 1"
       id="perspective2734" />
    <radialGradient
       inkscape:collect="always"
       xlink:href="#linearGradient3144"
       id="radialGradient3850"
       gradientUnits="userSpaceOnUse"
       gradientTransform="matrix(1,0,0,0.6985294,0,202.82863)"
       cx="225.26402"
       cy="672.79736"
       fx="225.26402"
       fy="672.79736"
       r="34.345188" />
    <radialGradient
       inkscape:collect="always"
       xlink:href="#linearGradient3144-1"
       id="radialGradient3850-4"
       gradientUnits="userSpaceOnUse"
       gradientTransform="matrix(1,0,0,0.6985294,0,202.82863)"
       cx="225.26402"
       cy="672.79736"
       fx="225.26402"
       fy="672.79736"
       r="34.345188" />
    <linearGradient
       inkscape:collect="always"
       id="linearGradient3144-1">
      <stop
         style="stop-color:#ffffff;stop-opacity:1;"
         offset="0"
         id="stop3146-9" />
      <stop
         style="stop-color:#ffffff;stop-opacity:0;"
         offset="1"
         id="stop3148-8" />
    </linearGradient>
  </defs>
  <sodipodi:namedview
     id="base"
     pagecolor="#ffffff"
     bordercolor="#666666"
     borderopacity="1.0"
     inkscape:pageopacity="0.0"
     inkscape:pageshadow="2"
     inkscape:zoom="7.7781746"
     inkscape:cx="36.492831"
     inkscape:cy="30.896655"
     inkscape:current-layer="g4289"
     showgrid="true"
     inkscape:document-units="px"
     inkscape:grid-bbox="true"
     inkscape:window-width="1920"
     inkscape:window-height="1057"
     inkscape:window-x="0"
     inkscape:window-y="0"
     inkscape:window-maximized="1" />
  <metadata
     id="metadata2731">
    <rdf:RDF>
      <cc:Work
         rdf:about="">
        <dc:format>image/svg+xml</dc:format>
        <dc:type
           rdf:resource="http://purl.org/dc/dcmitype/StillImage" />
        <dc:title />
      </cc:Work>
    </rdf:RDF>
  </metadata>
  <g
     id="layer1"
     inkscape:label="Layer 1"
     inkscape:groupmode="layer">
    <g
       id="g4289"
       transform="matrix(0.1621282,0,0,0.1621282,6.3605986,-66.108806)">
      <path
         transform="matrix(6.1679584,0,0,6.1679584,-28.130145,407.75637)"
         style="color:#000000;fill:#00b286;fill-opacity:1;fill-rule:nonzero;stroke:#002e2e;stroke-width:4;stroke-linecap:butt;stroke-linejoin:miter;stroke-miterlimit:4;stroke-opacity:1;stroke-dashoffset:0;marker:none;visibility:visible;display:inline;overflow:visible;enable-background:accumulate"
         d="M 12.90625,4.1875 C 11.415109,4.17955 10.05455,5.5401086 10.0625,7.03125 l 0,6.125 -5.125,0 C 3.4463586,13.1483 2.0858004,14.508859 2.09375,16 l 0,5.65625 C 2.0858,23.147391 3.4463586,24.50795 4.9375,24.5 l 5.125,0 0,18.65625 -5.125,0 C 3.4463586,43.1483 2.0858004,44.508859 2.09375,46 l 0,5.65625 C 2.0858,53.147391 3.4463586,54.50795 4.9375,54.5 l 5.125,0 0,3.96875 c -0.0079,1.491141 1.352609,2.8517 2.84375,2.84375 l 5.65625,0 c 1.491141,0.008 2.8517,-1.352609 2.84375,-2.84375 l 0,-3.96875 16.65625,0 0,3.96875 c -0.008,1.491141 1.352609,2.8517 2.84375,2.84375 l 5.65625,0 c 1.491141,0.008 2.8517,-1.352609 2.84375,-2.84375 l 0,-3.96875 6.71875,0 c 1.491141,0.008 2.8517,-1.352609 2.84375,-2.84375 l 0,-5.65625 c 0.008,-1.491141 -1.352609,-2.8517 -2.84375,-2.84375 l -6.71875,0 0,-18.65625 6.71875,0 c 1.491141,0.008 2.8517,-1.352609 2.84375,-2.84375 l 0,-5.65625 c 0.008,-1.491141 -1.352609,-2.8517 -2.84375,-2.84375 l -6.71875,0 0,-6.125 C 49.4142,5.5401086 48.053641,4.1795504 46.5625,4.1875 l -5.65625,0 C 39.415109,4.17955 38.05455,5.5401086 38.0625,7.03125 l 0,6.125 -16.65625,0 0,-6.125 C 21.4142,5.5401086 20.053641,4.1795504 18.5625,4.1875 z m 8.5,20.3125 c 0,0 5.037824,0 7.813866,0 2.776041,0 8.842384,0 8.842384,0 0,0 0.25713,5.190231 0.25713,8.299606 0,3.109375 -0.25713,10.356644 -0.25713,10.356644 0,0 -5.552083,0.128565 -8.328125,0.128565 -2.776042,0 -8.328125,-0.128565 -8.328125,-0.128565 0,0 -0.128565,-6.733009 -0.128565,-9.842384 0,-3.109375 0.128565,-8.813866 0.128565,-8.813866 z"
         id="path3775"
         inkscape:connector-curvature="0"
         sodipodi:nodetypes="cccccccccccccccccccccccccccccccccccccccccccccczczczczc" />
    </g>
  </g>
</svg>
