<?xml version="1.0" encoding="UTF-8" standalone="no"?>
<!-- Created with Inkscape (http://www.inkscape.org/) -->

<svg
   xmlns:dc="http://purl.org/dc/elements/1.1/"
   xmlns:cc="http://creativecommons.org/ns#"
   xmlns:rdf="http://www.w3.org/1999/02/22-rdf-syntax-ns#"
   xmlns:svg="http://www.w3.org/2000/svg"
   xmlns="http://www.w3.org/2000/svg"
   xmlns:xlink="http://www.w3.org/1999/xlink"
   xmlns:sodipodi="http://sodipodi.sourceforge.net/DTD/sodipodi-0.dtd"
   xmlns:inkscape="http://www.inkscape.org/namespaces/inkscape"
   width="64"
   height="64"
   id="svg2"
   version="1.1"
   inkscape:version="0.48.5 r10040"
   sodipodi:docname="mesh_pipette.svg"
   inkscape:export-filename="/home/user/Downloads/cad/mystuff/icons/main_icons/pipette_32px.png"
   inkscape:export-xdpi="45"
   inkscape:export-ydpi="45">
  <title
     id="title3733">mesh_pipette</title>
  <defs
     id="defs4">
    <linearGradient
       id="linearGradient3820">
      <stop
         style="stop-color:#babdb6;stop-opacity:1;"
         offset="0"
         id="stop3822" />
      <stop
         style="stop-color:#eeeeec;stop-opacity:1;"
         offset="1"
         id="stop3824" />
    </linearGradient>
    <linearGradient
       id="linearGradient3757">
      <stop
         style="stop-color:#555753;stop-opacity:1;"
         offset="0"
         id="stop3759" />
      <stop
         style="stop-color:#000000;stop-opacity:1;"
         offset="1"
         id="stop3761" />
    </linearGradient>
    <linearGradient
       inkscape:collect="always"
       xlink:href="#linearGradient3757"
       id="linearGradient3763"
       x1="28.796343"
       y1="39.303909"
       x2="22.936319"
       y2="33.977303"
       gradientUnits="userSpaceOnUse" />
    <linearGradient
       inkscape:collect="always"
       xlink:href="#linearGradient3820"
       id="linearGradient3842"
       x1="49"
       y1="1043.3622"
       x2="35"
       y2="1045.3622"
       gradientUnits="userSpaceOnUse" />
    <linearGradient
       inkscape:collect="always"
       xlink:href="#linearGradient3820"
       id="linearGradient3854"
       gradientUnits="userSpaceOnUse"
       x1="49"
       y1="1040.3622"
       x2="39"
       y2="1042.3622"
       gradientTransform="matrix(0.70710678,0.70710678,-0.70710678,0.70710678,720.43395,268.46023)" />
    <linearGradient
       inkscape:collect="always"
       xlink:href="#linearGradient3757"
       id="linearGradient3870"
       x1="40"
       y1="1005.3622"
       x2="51"
       y2="1025.3622"
       gradientUnits="userSpaceOnUse" />
    <radialGradient
       r="18.0625"
       fy="41.625"
       fx="25.1875"
       cy="41.625"
       cx="25.1875"
       gradientTransform="matrix(1,0,0,0.32526,0,28.08607)"
       gradientUnits="userSpaceOnUse"
       id="radialGradient3062"
       xlink:href="#linearGradient2269"
       inkscape:collect="always" />
    <linearGradient
       inkscape:collect="always"
       id="linearGradient2269">
      <stop
         offset="0"
         id="stop2271"
         style="stop-color:#000000;stop-opacity:1;" />
      <stop
         offset="1"
         id="stop2273"
         style="stop-color:#000000;stop-opacity:0;" />
    </linearGradient>
    <radialGradient
       r="18.0625"
       fy="41.625"
       fx="25.1875"
       cy="41.625"
       cx="25.1875"
       gradientTransform="matrix(1,0,0,0.32526,0,28.08607)"
       gradientUnits="userSpaceOnUse"
       id="radialGradient3113"
       xlink:href="#linearGradient2269"
       inkscape:collect="always" />
  </defs>
  <sodipodi:namedview
     id="base"
     pagecolor="#ffffff"
     bordercolor="#666666"
     borderopacity="1.0"
     inkscape:pageopacity="0.0"
     inkscape:pageshadow="2"
     inkscape:zoom="10.474172"
     inkscape:cx="14.848964"
     inkscape:cy="31.910228"
     inkscape:document-units="px"
     inkscape:current-layer="g3844"
     showgrid="true"
     showborder="true"
     inkscape:showpageshadow="false"
     borderlayer="false"
     inkscape:snap-global="true"
     inkscape:window-width="800"
     inkscape:window-height="836"
     inkscape:window-x="0"
     inkscape:window-y="27"
     inkscape:window-maximized="0">
    <inkscape:grid
       type="xygrid"
       id="grid2990"
       units="px"
       empspacing="2"
       visible="true"
       enabled="true"
       snapvisiblegridlinesonly="true"
       spacingx="1px"
       spacingy="1px" />
  </sodipodi:namedview>
  <metadata
     id="metadata7">
    <rdf:RDF>
      <cc:Work
         rdf:about="">
        <dc:format>image/svg+xml</dc:format>
        <dc:type
           rdf:resource="http://purl.org/dc/dcmitype/StillImage" />
        <dc:title>mesh_pipette</dc:title>
        <cc:license
           rdf:resource="https://www.gnu.org/copyleft/lesser.html" />
        <dc:rights>
          <cc:Agent>
            <dc:title>FreeCAD LGPL2+</dc:title>
          </cc:Agent>
        </dc:rights>
        <dc:publisher>
          <cc:Agent>
            <dc:title>FreeCAD</dc:title>
          </cc:Agent>
        </dc:publisher>
        <dc:identifier>FreeCAD/src/Mod/Mesh/Gui/Resources/icons/mesh_pipette.svg</dc:identifier>
        <dc:relation>http://www.freecad.org/wiki/index.php?title=Artwork</dc:relation>
        <dc:subject>
          <rdf:Bag>
            <rdf:li>pipette</rdf:li>
            <rdf:li>eyedropper</rdf:li>
            <rdf:li>sample</rdf:li>
          </rdf:Bag>
        </dc:subject>
        <dc:description>Pipette or eyedropper lit from above</dc:description>
        <dc:contributor>
          <cc:Agent>
            <dc:title>[agryson] Alexander Gryson</dc:title>
          </cc:Agent>
        </dc:contributor>
        <dc:date>Sat Feb 8 16:10:16 2014 +0100</dc:date>
        <dc:creator>
          <cc:Agent>
            <dc:title>[wmayer]</dc:title>
          </cc:Agent>
        </dc:creator>
      </cc:Work>
    </rdf:RDF>
  </metadata>
  <g
     inkscape:label="Layer 1"
     inkscape:groupmode="layer"
     id="layer1"
     transform="translate(0,-988.36218)">
    <g
       id="g3844">
      <path
         id="path2267"
         sodipodi:cx="25.1875"
         sodipodi:cy="41.625"
         transform="matrix(1.256055,0,0,0.819149,-3.6368853,1011.4526)"
         d="m 43.25,41.625 c 0,3.244673 -8.086857,5.875 -18.0625,5.875 -9.975643,0 -18.0625,-2.630327 -18.0625,-5.875 0,-3.244673 8.086857,-5.875 18.0625,-5.875 9.975643,0 18.0625,2.630327 18.0625,5.875 z"
         sodipodi:type="arc"
         style="opacity:0.26704544;color:#000000;fill:url(#radialGradient3113);fill-opacity:1;fill-rule:evenodd;stroke:none;stroke-width:1;marker:none;visibility:visible;display:inline;overflow:visible"
         sodipodi:ry="5.875"
         sodipodi:rx="18.0625" />
      <path
         sodipodi:nodetypes="czcccczcc"
         inkscape:connector-curvature="0"
         id="path3798-7"
         d="m 26.506083,1014.714 c 0,0 -16.970563,16.9706 -19.79899,19.799 -2.828427,2.8284 0,5.6569 0,5.6569 l -3.535534,6.3639 2.828427,2.8284 6.363961,-3.5355 c 0,0 2.828427,2.8284 5.656855,0 2.828427,-2.8284 19.798989,-19.799 19.798989,-19.799 z"
         style="fill:url(#linearGradient3854);fill-opacity:1;stroke:none" />
      <path
         sodipodi:nodetypes="czcc"
         inkscape:connector-curvature="0"
         id="path3800"
         d="m 27.213204,1016.8353 c 0,0 -19.091883,19.0919 -19.79899,19.799 -0.707107,0.7071 1.337236,2.9054 1.337236,2.9054 l -4.165663,8.4083"
         style="fill:none;stroke:#ffffff;stroke-width:2;stroke-linecap:butt;stroke-linejoin:miter;stroke-opacity:1" />
      <path
         sodipodi:nodetypes="czcccczcc"
         inkscape:connector-curvature="0"
         id="path3798"
         d="m 26.506097,1014.714 c 0,0 -16.970563,16.9706 -19.79899,19.799 -2.828427,2.8284 0,5.6568 0,5.6568 l -3.535534,6.364 2.828427,2.8284 6.363961,-3.5355 c 0,0 2.828428,2.8284 5.656855,0 2.828427,-2.8284 19.79899,-19.799 19.79899,-19.799 z"
         style="fill:none;stroke:#555753;stroke-width:2;stroke-linecap:round;stroke-linejoin:round;stroke-opacity:1" />
      <path
         sodipodi:nodetypes="zzzzzzzzzzzzz"
         inkscape:connector-curvature="0"
         id="path2992"
         d="m 24.384763,1011.1785 c 1.414213,-1.4142 4.24264,0 5.656854,0 1.414213,0 1.414213,0 2.828427,-2.8284 1.414213,-2.8285 -2.828427,-8.48535 1.414228,-12.728 4.24264,-4.24264 12.727936,-7.07108 21.213217,1.4142 8.485282,8.4853 5.65684,16.9706 1.4142,21.2132 -4.242655,4.2427 -9.899509,10e-5 -12.727937,1.4143 -2.828427,1.4142 -2.828427,1.4142 -2.828427,2.8284 0,1.4142 1.414214,4.2426 0,5.6568 -1.414213,1.4143 -2.12132,2.1214 -4.24264,1.4143 -2.121321,-0.7071 0,-2.8285 -5.656855,-8.4853 -5.656854,-5.6569 -7.778174,-3.5356 -8.485281,-5.6569 -0.707107,-2.1213 0,-2.8284 1.414214,-4.2426 z"
         style="fill:url(#linearGradient3870);stroke:none;fill-opacity:1" />
      <path
         sodipodi:nodetypes="zzzzzzzzzzzzz"
         inkscape:connector-curvature="0"
         id="path2992-3-6"
         d="m 25.798976,1012.5927 c 1.414214,-1.4142 4.461915,0.035 5.656854,0 1.19494,-0.035 0.707107,0.7071 2.828427,-2.8284 2.121321,-3.5356 -2.828427,-8.4853 1.414228,-12.72799 4.242641,-4.24264 11.426846,-5.54371 18.384776,1.41422 6.957931,6.95797 5.656855,14.14217 1.414214,18.38477 -4.242655,4.2427 -9.192402,-0.7071 -12.727936,1.4143 -3.535534,2.1213 -2.828427,1.4142 -2.828427,2.8284 0,1.4142 1.414213,4.2426 0,5.6568 -1.414214,1.4142 -1.414214,1.4142 -2.121321,0.7071 -0.707106,-0.7071 -0.636537,-3.0969 -5.275158,-7.7356 -4.63862,-4.6386 -6.745657,-4.2852 -7.452764,-4.9923 -0.707106,-0.7071 -0.707106,-0.7071 0.707107,-2.1213 z"
         style="fill:none;stroke:#888a85;stroke-width:2;stroke-linecap:butt;stroke-linejoin:miter;stroke-opacity:1" />
      <path
         sodipodi:nodetypes="zzzzzzzzzzzzz"
         inkscape:connector-curvature="0"
         id="path2992-3"
         d="m 24.384763,1011.1785 c 1.414213,-1.4142 4.24264,0 5.656854,0 1.414213,0 1.414213,0 2.828427,-2.8284 1.414213,-2.8285 -2.828427,-8.48535 1.414228,-12.728 4.24264,-4.24264 12.727936,-7.07108 21.213217,1.4142 8.485282,8.4853 5.65684,16.9706 1.4142,21.2132 -4.242655,4.2427 -9.899509,10e-5 -12.727937,1.4143 -2.828427,1.4142 -2.828427,1.4142 -2.828427,2.8284 0,1.4142 1.414214,4.2426 0,5.6568 -1.414213,1.4143 -2.12132,2.1214 -4.24264,1.4143 -2.121321,-0.7071 0,-2.8285 -5.656855,-8.4853 -5.656854,-5.6569 -7.778174,-3.5356 -8.485281,-5.6569 -0.707107,-2.1213 0,-2.8284 1.414214,-4.2426 z"
         style="fill:none;stroke:#000000;stroke-width:2;stroke-linecap:butt;stroke-linejoin:miter;stroke-opacity:1" />
    </g>
  </g>
</svg>
