<?xml version="1.0" encoding="UTF-8" standalone="no"?>
<!-- Created with Inkscape (http://www.inkscape.org/) -->

<svg
   version="1.1"
   width="64"
   height="64"
   id="svg4024"
   xmlns:xlink="http://www.w3.org/1999/xlink"
   xmlns="http://www.w3.org/2000/svg"
   xmlns:svg="http://www.w3.org/2000/svg"
   xmlns:rdf="http://www.w3.org/1999/02/22-rdf-syntax-ns#"
   xmlns:cc="http://creativecommons.org/ns#"
   xmlns:dc="http://purl.org/dc/elements/1.1/">
  <title
     id="title1">techdraw-arch-view</title>
  <defs
     id="defs4026">
    <linearGradient
       xlink:href="#linearGradient3775"
       id="linearGradient3781"
       x1="10"
       y1="39.999996"
       x2="53"
       y2="25.999996"
       gradientUnits="userSpaceOnUse"
       gradientTransform="translate(-48)" />
    <linearGradient
       id="linearGradient3775">
      <stop
         style="stop-color:#d3d7cf;stop-opacity:1;"
         offset="0"
         id="stop3777" />
      <stop
         style="stop-color:#ffffff;stop-opacity:1"
         offset="1"
         id="stop3779" />
    </linearGradient>
  </defs>
  <metadata
     id="metadata4029">
    <rdf:RDF>
      <cc:Work
         rdf:about="">
        <dc:format>image/svg+xml</dc:format>
        <dc:type
           rdf:resource="http://purl.org/dc/dcmitype/StillImage" />
        <dc:title>techdraw-arch-view</dc:title>
      </cc:Work>
    </rdf:RDF>
  </metadata>
  <g
     id="layer1"
     style="display:inline"
     transform="translate(0,16)">
    <rect
       style="fill:#d3d7cf;fill-opacity:1;stroke:#2e3436;stroke-width:2;stroke-linecap:round;stroke-linejoin:round;stroke-miterlimit:4;stroke-dasharray:none;stroke-dashoffset:0;stroke-opacity:1"
       id="rect2987"
       width="45.999996"
       height="58.000004"
       x="-38.999996"
       y="3"
       transform="rotate(-90)" />
    <rect
       style="fill:url(#linearGradient3781);fill-opacity:1;stroke:#ffffff;stroke-width:2;stroke-linecap:round;stroke-linejoin:miter;stroke-miterlimit:4;stroke-dasharray:none;stroke-dashoffset:0;stroke-opacity:1"
       id="rect2987-1"
       width="41.999996"
       height="54.000004"
       x="-36.999996"
       y="5"
       transform="rotate(-90)" />
    <g
       id="layer1-6"
       transform="matrix(0.61950429,0,0,0.63484551,5.6788178,-4.2531382)">
      <circle
         transform="matrix(1.1494288,0,0,1.1455871,-0.28161757,0.56812508)"
         id="path2993"
         style="color:#000000;display:inline;overflow:visible;visibility:visible;fill:none;stroke:#2e3436;stroke-width:2.77919;stroke-linecap:butt;stroke-linejoin:round;stroke-miterlimit:4;stroke-dasharray:none;stroke-dashoffset:0;stroke-opacity:1;marker:none;enable-background:accumulate"
         cx="28.181818"
         cy="27.454546"
         r="23.272728" />
      <path
         transform="matrix(0.76555611,0,0,1.4471076,26.377247,7.2873152)"
         d="m 11.783744,34.785983 0,-35.39014963 30.648768,17.69507463 z"
         id="path2997"
         style="color:#000000;display:inline;overflow:visible;visibility:visible;fill:#2e3436;fill-opacity:1;fill-rule:nonzero;stroke:none;stroke-width:2.00662;marker:none;enable-background:accumulate" />
      <g
         transform="matrix(1.0182912,0,0,1.0573322,-0.80820874,0)"
         style="font-style:normal;font-variant:normal;font-weight:normal;font-stretch:normal;font-size:33.5965px;line-height:125%;font-family:Arial;-inkscape-font-specification:Arial;letter-spacing:0px;word-spacing:0px;fill:#2e3436;fill-opacity:1;stroke:#2e3436;stroke-width:1.53675"
         id="text3767">
        <path
           d="M 30.223949,39.739212 27.582817,32.980536 H 17.051094 l -2.657538,6.758676 h -3.248101 l 9.432618,-23.114014 h 3.559788 l 9.284976,23.114014 H 30.223949 M 23.678533,22.908141 c -0.174994,-0.437437 -0.344508,-0.88036 -0.508541,-1.328768 -0.153121,-0.448373 -0.289826,-0.853018 -0.410114,-1.213937 -0.120311,-0.371817 -0.224207,-0.678035 -0.311686,-0.918655 -0.07657,-0.251516 -0.120312,-0.404625 -0.131237,-0.459328 -0.02188,0.0547 -0.0711,0.207812 -0.147641,0.459328 -0.07656,0.251556 -0.180461,0.563242 -0.311686,0.935059 -0.120311,0.371856 -0.262484,0.781969 -0.426519,1.230342 -0.153119,0.448408 -0.311696,0.891331 -0.475732,1.328768 l -2.952819,7.595308 h 8.645199 l -2.969224,-7.628117"
           style="fill:#2e3436;stroke:#2e3436;stroke-width:1.53675"
           id="path3190" />
      </g>
    </g>
    <path
       style="fill:none;stroke:#2e3436;stroke-width:2;stroke-linecap:butt;stroke-linejoin:miter;stroke-miterlimit:4;stroke-dasharray:none;stroke-opacity:1"
       d="M 30.614893,16.074424 H 55.934959"
       id="path4266" />
  </g>
</svg>
