<?xml version="1.0" encoding="UTF-8" standalone="no"?>
<!-- Created with Inkscape (http://www.inkscape.org/) -->

<svg
   version="1.1"
   width="64"
   height="64"
   id="svg4024"
   xmlns:xlink="http://www.w3.org/1999/xlink"
   xmlns="http://www.w3.org/2000/svg"
   xmlns:svg="http://www.w3.org/2000/svg"
   xmlns:rdf="http://www.w3.org/1999/02/22-rdf-syntax-ns#"
   xmlns:cc="http://creativecommons.org/ns#"
   xmlns:dc="http://purl.org/dc/elements/1.1/">
  <defs
     id="defs4026">
    <linearGradient
       xlink:href="#linearGradient9"
       id="linearGradient31"
       gradientUnits="userSpaceOnUse"
       gradientTransform="matrix(1.0000093,0,0,1,23.726548,-3.7463924)"
       x1="9.4127188"
       y1="55.025951"
       x2="19.168379"
       y2="54.948158" />
    <linearGradient
       id="linearGradient9">
      <stop
         style="stop-color:#204a87;stop-opacity:1;"
         offset="0"
         id="stop9" />
      <stop
         style="stop-color:#3465a4;stop-opacity:1;"
         offset="1"
         id="stop10" />
    </linearGradient>
    <linearGradient
       xlink:href="#linearGradient9"
       id="linearGradient24"
       gradientUnits="userSpaceOnUse"
       gradientTransform="matrix(1.0000093,0,0,1,-3.7466004,23.727119)"
       x1="35.303169"
       y1="27.988083"
       x2="45.294155"
       y2="27.540279" />
    <linearGradient
       xlink:href="#linearGradient9"
       id="linearGradient30"
       gradientUnits="userSpaceOnUse"
       gradientTransform="matrix(1.0000093,0,0,1,51.199696,23.727118)"
       x1="-17.144234"
       y1="28.042284"
       x2="-7.1670914"
       y2="28.373131" />
    <linearGradient
       xlink:href="#linearGradient34"
       id="linearGradient29"
       gradientUnits="userSpaceOnUse"
       gradientTransform="matrix(1.0000085,0,0,1,23.726551,51.20063)"
       x1="9.5944586"
       y1="0.84526229"
       x2="18.108517"
       y2="0.77515554" />
    <linearGradient
       id="linearGradient34">
      <stop
         style="stop-color:#204a87;stop-opacity:1"
         offset="0"
         id="stop33" />
      <stop
         style="stop-color:#3465a4;stop-opacity:1"
         offset="1"
         id="stop34" />
    </linearGradient>
  </defs>
  <metadata
     id="metadata4029">
    <rdf:RDF>
      <cc:Work
         rdf:about="">
        <dc:format>image/svg+xml</dc:format>
        <dc:type
           rdf:resource="http://purl.org/dc/dcmitype/StillImage" />
      </cc:Work>
    </rdf:RDF>
  </metadata>
  <g
     id="layer1">
    <g
       id="g33">
      <circle
         style="fill:none;stroke:#555753;stroke-width:6;stroke-linecap:round;stroke-linejoin:round;stroke-dasharray:none"
         id="path31"
         cx="31.999998"
         cy="31.999998"
         r="21.999998" />
      <circle
         style="fill:none;stroke:#d3d7cf;stroke-width:2;stroke-linecap:round;stroke-linejoin:round;stroke-dasharray:none"
         id="circle31"
         cx="31.999998"
         cy="31.999998"
         r="21.999998" />
    </g>
    <g
       transform="matrix(0.8007819,0,0,0.80077132,1.7291296,12.617689)"
       id="g23"
       style="display:inline;stroke-width:0.99903">
      <path
         style="display:inline;fill:#729fcf;stroke:#0b1521;stroke-width:2.49757;stroke-miterlimit:4;stroke-dasharray:none;stroke-opacity:1"
         id="path22"
         d="M 31.158914,45.98978 A 8.7456633,8.7455192 0.0559596 1 1 44.444356,57.366914 8.7456633,8.7455192 0.0559596 1 1 31.158914,45.98978 Z" />
      <path
         style="display:inline;fill:url(#linearGradient31);stroke:#729fcf;stroke-width:2.49757;stroke-miterlimit:4;stroke-dasharray:none;stroke-opacity:1"
         id="path23"
         d="m 37.921875,45.427734 c 1.394858,0.02506 2.797605,0.515476 3.947266,1.5 2.612388,2.237148 2.918204,6.203295 0.677734,8.816407 -2.235407,2.61334 -6.200041,2.920801 -8.8125,0.683593 -2.612789,-2.23749 -2.918498,-6.200998 -0.677734,-8.814453 1.265419,-1.47936 3.072632,-2.217752 4.865234,-2.185547 z" />
    </g>
    <g
       transform="matrix(0.8007819,0,0,0.80077132,23.72913,-9.3823106)"
       id="g25"
       style="display:inline;stroke-width:0.99903">
      <path
         style="display:inline;fill:#729fcf;stroke:#0b1521;stroke-width:2.49757;stroke-miterlimit:4;stroke-dasharray:none;stroke-opacity:1"
         id="path24"
         d="M 31.158914,45.98978 A 8.7456633,8.7455192 0.0559596 1 1 44.444356,57.366914 8.7456633,8.7455192 0.0559596 1 1 31.158914,45.98978 Z" />
      <path
         style="display:inline;fill:url(#linearGradient24);stroke:#729fcf;stroke-width:2.49757;stroke-miterlimit:4;stroke-dasharray:none;stroke-opacity:1"
         id="path25"
         d="m 37.921875,45.427734 c 1.394858,0.02506 2.797605,0.515476 3.947266,1.5 2.612388,2.237148 2.918204,6.203295 0.677734,8.816407 -2.235407,2.61334 -6.200041,2.920801 -8.8125,0.683593 -2.612789,-2.23749 -2.918498,-6.200998 -0.677734,-8.814453 1.265419,-1.47936 3.072632,-2.217752 4.865234,-2.185547 z" />
    </g>
    <g
       transform="matrix(0.8007819,0,0,0.80077132,-20.27087,-9.3823106)"
       id="g27"
       style="display:inline;stroke-width:0.99903">
      <path
         style="display:inline;fill:#729fcf;stroke:#0b1521;stroke-width:2.49757;stroke-miterlimit:4;stroke-dasharray:none;stroke-opacity:1"
         id="path26"
         d="M 31.158914,45.98978 A 8.7456633,8.7455192 0.0559596 1 1 44.444356,57.366914 8.7456633,8.7455192 0.0559596 1 1 31.158914,45.98978 Z" />
      <path
         style="display:inline;fill:url(#linearGradient30);stroke:#729fcf;stroke-width:2.49757;stroke-miterlimit:4;stroke-dasharray:none;stroke-opacity:1"
         id="path27"
         d="m 37.921875,45.427734 c 1.394858,0.02506 2.797605,0.515476 3.947266,1.5 2.612388,2.237148 2.918204,6.203295 0.677734,8.816407 -2.235407,2.61334 -6.200041,2.920801 -8.8125,0.683593 -2.612789,-2.23749 -2.918498,-6.200998 -0.677734,-8.814453 1.265419,-1.47936 3.072632,-2.217752 4.865234,-2.185547 z" />
    </g>
    <g
       transform="matrix(0.80078251,0,0,0.80077132,1.7291126,-31.382311)"
       id="g29"
       style="display:inline;stroke-width:0.99903">
      <path
         style="display:inline;fill:#729fcf;stroke:#0b1521;stroke-width:2.49757;stroke-miterlimit:4;stroke-dasharray:none;stroke-opacity:1"
         id="path28"
         d="M 31.158914,45.98978 A 8.7456633,8.7455192 0.0559596 1 1 44.444356,57.366914 8.7456633,8.7455192 0.0559596 1 1 31.158914,45.98978 Z" />
      <path
         style="display:inline;fill:url(#linearGradient29);stroke:#729fcf;stroke-width:2.49757;stroke-miterlimit:4;stroke-dasharray:none;stroke-opacity:1"
         id="path29"
         d="m 37.921875,45.427734 c 1.394858,0.02506 2.797605,0.515476 3.947266,1.5 2.612388,2.237148 2.918204,6.203295 0.677734,8.816407 -2.235407,2.61334 -6.200041,2.920801 -8.8125,0.683593 -2.612789,-2.23749 -2.918498,-6.200998 -0.677734,-8.814453 1.265419,-1.47936 3.072632,-2.217752 4.865234,-2.185547 z" />
    </g>
    <g
       id="g35"
       transform="matrix(0.70709613,0.70710678,-0.70709613,0.70710678,22.261815,-13.415797)"
       style="display:inline;stroke-width:1.00001">
      <path
         style="fill:#3465a4;stroke:#a40000;stroke-width:2.00002;stroke-linejoin:round;stroke-dasharray:none;paint-order:stroke markers fill"
         d="m 34.999999,14 h 7.999999"
         id="path34" />
      <path
         style="fill:#3465a4;stroke:#a40000;stroke-width:2.00002;stroke-linejoin:round;stroke-dasharray:none;paint-order:stroke markers fill"
         d="m 34.999999,11 h 7.999999"
         id="path35" />
    </g>
    <g
       id="g37"
       transform="matrix(0.70709613,-0.70710678,-0.70709613,-0.70710678,22.261816,77.416199)"
       style="display:inline;stroke-width:1.00001">
      <path
         style="fill:#3465a4;stroke:#a40000;stroke-width:2.00002;stroke-linejoin:round;stroke-dasharray:none;paint-order:stroke markers fill"
         d="m 34.999999,14 h 7.999999"
         id="path36" />
      <path
         style="fill:#3465a4;stroke:#a40000;stroke-width:2.00002;stroke-linejoin:round;stroke-dasharray:none;paint-order:stroke markers fill"
         d="m 34.999999,11 h 7.999999"
         id="path37" />
    </g>
    <g
       id="g39"
       transform="matrix(-0.70709613,-0.70710678,0.70709613,-0.70710678,41.738178,77.416198)"
       style="display:inline;stroke-width:1.00001">
      <path
         style="fill:#3465a4;stroke:#a40000;stroke-width:2.00002;stroke-linejoin:round;stroke-dasharray:none;paint-order:stroke markers fill"
         d="m 34.999999,14 h 7.999999"
         id="path38" />
      <path
         style="fill:#3465a4;stroke:#a40000;stroke-width:2.00002;stroke-linejoin:round;stroke-dasharray:none;paint-order:stroke markers fill"
         d="m 34.999999,11 h 7.999999"
         id="path39" />
    </g>
    <g
       id="g41"
       transform="matrix(-0.70709613,0.70710678,0.70709613,0.70710678,41.738179,-13.415797)"
       style="display:inline;stroke-width:1.00001">
      <path
         style="fill:#3465a4;stroke:#a40000;stroke-width:2.00002;stroke-linejoin:round;stroke-dasharray:none;paint-order:stroke markers fill"
         d="m 34.999999,14 h 7.999999"
         id="path40" />
      <path
         style="fill:#3465a4;stroke:#a40000;stroke-width:2.00002;stroke-linejoin:round;stroke-dasharray:none;paint-order:stroke markers fill"
         d="m 34.999999,11 h 7.999999"
         id="path41" />
    </g>
  </g>
</svg>
