<?xml version="1.0" encoding="UTF-8"?>
<!DOCTYPE svg PUBLIC "-//W3C//DTD SVG 1.1//EN" "http://www.w3.org/Graphics/SVG/1.1/DTD/svg11.dtd">
<svg version="1.2" width="17.2mm" height="17.2mm" viewBox="0 0 1720 1720" preserveAspectRatio="xMidYMid" fill-rule="evenodd" stroke-width="28.222" stroke-linejoin="round" xmlns="http://www.w3.org/2000/svg" xmlns:ooo="http://xml.openoffice.org/svg/export" xmlns:xlink="http://www.w3.org/1999/xlink" xmlns:presentation="http://sun.com/xmlns/staroffice/presentation" xmlns:smil="http://www.w3.org/2001/SMIL20/" xmlns:anim="urn:oasis:names:tc:opendocument:xmlns:animation:1.0" xml:space="preserve">
 <defs class="ClipPathGroup">
  <clipPath id="presentation_clip_path" clipPathUnits="userSpaceOnUse">
   <rect x="0" y="0" width="1720" height="1720"/>
  </clipPath>
  <clipPath id="presentation_clip_path_shrink" clipPathUnits="userSpaceOnUse">
   <rect x="1" y="1" width="1717" height="1717"/>
  </clipPath>
 </defs>
 <defs class="TextShapeIndex">
  <g ooo:slide="id1" ooo:id-list="id3"/>
 </defs>
 <defs class="EmbeddedBulletChars">
  <g id="bullet-char-template-57356" transform="scale(0.00048828125,-0.00048828125)">
   <path d="M 580,1141 L 1163,571 580,0 -4,571 580,1141 Z"/>
  </g>
  <g id="bullet-char-template-57354" transform="scale(0.00048828125,-0.00048828125)">
   <path d="M 8,1128 L 1137,1128 1137,0 8,0 8,1128 Z"/>
  </g>
  <g id="bullet-char-template-10146" transform="scale(0.00048828125,-0.00048828125)">
   <path d="M 174,0 L 602,739 174,1481 1456,739 174,0 Z M 1358,739 L 309,1346 659,739 1358,739 Z"/>
  </g>
  <g id="bullet-char-template-10132" transform="scale(0.00048828125,-0.00048828125)">
   <path d="M 2015,739 L 1276,0 717,0 1260,543 174,543 174,936 1260,936 717,1481 1274,1481 2015,739 Z"/>
  </g>
  <g id="bullet-char-template-10007" transform="scale(0.00048828125,-0.00048828125)">
   <path d="M 0,-2 C -7,14 -16,27 -25,37 L 356,567 C 262,823 215,952 215,954 215,979 228,992 255,992 264,992 276,990 289,987 310,991 331,999 354,1012 L 381,999 492,748 772,1049 836,1024 860,1049 C 881,1039 901,1025 922,1006 886,937 835,863 770,784 769,783 710,716 594,584 L 774,223 C 774,196 753,168 711,139 L 727,119 C 717,90 699,76 672,76 641,76 570,178 457,381 L 164,-76 C 142,-110 111,-127 72,-127 30,-127 9,-110 8,-76 1,-67 -2,-52 -2,-32 -2,-23 -1,-13 0,-2 Z"/>
  </g>
  <g id="bullet-char-template-10004" transform="scale(0.00048828125,-0.00048828125)">
   <path d="M 285,-33 C 182,-33 111,30 74,156 52,228 41,333 41,471 41,549 55,616 82,672 116,743 169,778 240,778 293,778 328,747 346,684 L 369,508 C 377,444 397,411 428,410 L 1163,1116 C 1174,1127 1196,1133 1229,1133 1271,1133 1292,1118 1292,1087 L 1292,965 C 1292,929 1282,901 1262,881 L 442,47 C 390,-6 338,-33 285,-33 Z"/>
  </g>
  <g id="bullet-char-template-9679" transform="scale(0.00048828125,-0.00048828125)">
   <path d="M 813,0 C 632,0 489,54 383,161 276,268 223,411 223,592 223,773 276,916 383,1023 489,1130 632,1184 813,1184 992,1184 1136,1130 1245,1023 1353,916 1407,772 1407,592 1407,412 1353,268 1245,161 1136,54 992,0 813,0 Z"/>
  </g>
  <g id="bullet-char-template-8226" transform="scale(0.00048828125,-0.00048828125)">
   <path d="M 346,457 C 273,457 209,483 155,535 101,586 74,649 74,723 74,796 101,859 155,911 209,963 273,989 346,989 419,989 480,963 531,910 582,859 608,796 608,723 608,648 583,586 532,535 482,483 420,457 346,457 Z"/>
  </g>
  <g id="bullet-char-template-8211" transform="scale(0.00048828125,-0.00048828125)">
   <path d="M -4,459 L 1135,459 1135,606 -4,606 -4,459 Z"/>
  </g>
  <g id="bullet-char-template-61548" transform="scale(0.00048828125,-0.00048828125)">
   <path d="M 173,740 C 173,903 231,1043 346,1159 462,1274 601,1332 765,1332 928,1332 1067,1274 1183,1159 1299,1043 1357,903 1357,740 1357,577 1299,437 1183,322 1067,206 928,148 765,148 601,148 462,206 346,322 231,437 173,577 173,740 Z"/>
  </g>
 </defs>
 <g>
  <g id="id2" class="Master_Slide">
   <g id="bg-id2" class="Background"/>
   <g id="bo-id2" class="BackgroundObjects"/>
  </g>
 </g>
 <g class="SlideGroup">
  <g>
   <g id="container-id1">
    <g id="id1" class="Slide" clip-path="url(#presentation_clip_path)">
     <g class="Page">
      <g class="Graphic">
       <g id="id3">
        <rect class="BoundingBox" stroke="none" fill="none" x="0" y="0" width="1720" height="1720"/>
        <path fill="rgb(255,255,0)" stroke="none" d="M 1178,395 L 1320,482 893,1181 770,1116 C 809,1270 774,1369 768,1453 L 762,1536 832,1491 C 903,1446 981,1357 1134,1318 L 998,1238 1425,543 1565,614 C 1526,460 1556,354 1562,270 L 1568,187 1498,232 C 1427,277 1332,356 1178,395 L 1178,395 Z"/>
        <path fill="none" stroke="rgb(36,31,28)" stroke-width="40" stroke-linejoin="round" d="M 1178,395 L 1320,482 893,1181 770,1116 C 809,1270 774,1369 768,1453 L 762,1536 832,1491 C 903,1446 981,1357 1134,1318 L 998,1238 1425,543 1565,614 C 1526,460 1556,354 1562,270 L 1568,187 1498,232 C 1427,277 1332,356 1178,395 Z"/>
        <path fill="rgb(255,255,0)" stroke="none" d="M 47,1561 L 46,1659 870,1663 871,1565 47,1561 Z"/>
        <path fill="none" stroke="rgb(36,31,28)" stroke-width="40" stroke-linejoin="round" d="M 47,1561 L 46,1659 870,1663 871,1565 47,1561 Z"/>
        <path fill="rgb(255,255,0)" stroke="none" d="M 483,65 L 484,164 1679,163 1679,64 483,65 Z"/>
        <path fill="none" stroke="rgb(36,31,28)" stroke-width="40" stroke-linejoin="round" d="M 483,65 L 484,164 1679,163 1679,64 483,65 Z"/>
        <path fill="rgb(255,0,0)" stroke="none" d="M 518,825 C 536,799 543,778 540,759 537,741 525,726 503,716 488,708 474,706 461,708 448,711 437,718 427,732 405,764 409,793 441,820 L 376,880 C 316,827 310,765 360,695 385,661 413,638 445,628 478,618 511,621 544,638 576,654 596,674 603,701 611,727 607,755 590,784 L 591,785 C 611,764 634,752 658,748 683,744 708,748 734,761 759,774 778,790 791,812 804,833 809,857 807,882 804,908 793,934 775,960 747,998 716,1023 682,1035 648,1047 612,1046 573,1030 L 613,953 C 632,960 650,962 665,957 680,953 694,941 707,922 720,904 724,888 719,872 715,857 703,844 683,834 645,815 612,824 586,862 L 566,889 505,843 518,825 Z"/>
        <path fill="none" stroke="rgb(36,31,28)" stroke-width="36" stroke-linejoin="miter" d="M 518,825 C 536,799 543,778 540,759 537,741 525,726 503,716 488,708 474,706 461,708 448,711 437,718 427,732 405,764 409,793 441,820 L 376,880 C 316,827 310,765 360,695 385,661 413,638 445,628 478,618 511,621 544,638 576,654 596,674 603,701 611,727 607,755 590,784 L 591,785 C 611,764 634,752 658,748 683,744 708,748 734,761 759,774 778,790 791,812 804,833 809,857 807,882 804,908 793,934 775,960 747,998 716,1023 682,1035 648,1047 612,1046 573,1030 L 613,953 C 632,960 650,962 665,957 680,953 694,941 707,922 720,904 724,888 719,872 715,857 703,844 683,834 645,815 612,824 586,862 L 566,889 505,843 518,825 Z"/>
        <path fill="rgb(255,0,0)" stroke="none" d="M 581,396 C 622,340 668,304 721,290 774,275 831,283 891,313 939,336 976,366 1001,401 1026,436 1038,475 1037,517 1036,560 1021,601 993,640 L 888,788 505,504 581,396 Z M 880,667 L 921,608 C 941,581 951,553 952,526 952,498 943,472 925,447 907,423 880,402 845,385 806,366 770,360 737,368 704,376 676,397 652,430 L 620,475 880,667 Z"/>
        <path fill="none" stroke="rgb(36,31,28)" stroke-width="36" stroke-linejoin="miter" d="M 581,396 C 622,340 668,304 721,290 774,275 831,283 891,313 939,336 976,366 1001,401 1026,436 1038,475 1037,517 1036,560 1021,601 993,640 L 888,788 505,504 581,396 Z"/>
        <path fill="none" stroke="rgb(36,31,28)" stroke-width="36" stroke-linejoin="miter" d="M 880,667 L 921,608 C 941,581 951,553 952,526 952,498 943,472 925,447 907,423 880,402 845,385 806,366 770,360 737,368 704,376 676,397 652,430 L 620,475 880,667 Z"/>
       </g>
      </g>
     </g>
    </g>
   </g>
  </g>
 </g>
</svg>