<?xml version="1.0" encoding="UTF-8" standalone="no"?>
<!-- Created with Inkscape (http://www.inkscape.org/) -->

<svg
   version="1.1"
   width="64"
   height="64"
   id="svg4024"
   xmlns:xlink="http://www.w3.org/1999/xlink"
   xmlns="http://www.w3.org/2000/svg"
   xmlns:svg="http://www.w3.org/2000/svg"
   xmlns:rdf="http://www.w3.org/1999/02/22-rdf-syntax-ns#"
   xmlns:cc="http://creativecommons.org/ns#"
   xmlns:dc="http://purl.org/dc/elements/1.1/">
  <defs
     id="defs4026">
    <linearGradient
       xlink:href="#linearGradient3775"
       id="linearGradient3781"
       x1="10"
       y1="39.999996"
       x2="53"
       y2="25.999996"
       gradientUnits="userSpaceOnUse"
       gradientTransform="translate(-48)" />
    <linearGradient
       id="linearGradient3775">
      <stop
         style="stop-color:#d3d7cf;stop-opacity:1;"
         offset="0"
         id="stop3777" />
      <stop
         style="stop-color:#ffffff;stop-opacity:1"
         offset="1"
         id="stop3779" />
    </linearGradient>
  </defs>
  <metadata
     id="metadata4029">
    <rdf:RDF>
      <cc:Work
         rdf:about="">
        <dc:format>image/svg+xml</dc:format>
        <dc:type
           rdf:resource="http://purl.org/dc/dcmitype/StillImage" />
      </cc:Work>
    </rdf:RDF>
  </metadata>
  <g
     id="layer1"
     style="display:inline"
     transform="translate(0,16)">
    <rect
       style="fill:#d3d7cf;fill-opacity:1;stroke:#2e3436;stroke-width:2;stroke-linecap:round;stroke-linejoin:round;stroke-miterlimit:4;stroke-dasharray:none;stroke-dashoffset:0;stroke-opacity:1"
       id="rect2987"
       width="45.999996"
       height="58.000004"
       x="-38.999996"
       y="3"
       transform="rotate(-90)" />
    <rect
       style="fill:url(#linearGradient3781);fill-opacity:1;stroke:#ffffff;stroke-width:2;stroke-linecap:round;stroke-linejoin:miter;stroke-miterlimit:4;stroke-dasharray:none;stroke-dashoffset:0;stroke-opacity:1"
       id="rect2987-1"
       width="41.999996"
       height="54.000004"
       x="-36.999996"
       y="5"
       transform="rotate(-90)" />
    <g
       id="layer1-6"
       transform="matrix(0.61950429,0,0,0.63484551,5.6788178,-4.2531382)">
      <path
         style="font-size:37.2149px;line-height:0px;font-family:Tahoma;-inkscape-font-specification:Tahoma;text-align:end;letter-spacing:2.06749px;word-spacing:0px;text-anchor:end;fill:#2e3436;stroke:#2e3436;stroke-width:1.59458"
         d="m 32.818007,37.047932 q 0,1.992499 -0.772589,3.518286 -0.772588,1.525787 -2.07863,2.513061 -1.545176,1.184729 -3.311092,1.687342 -1.765915,0.484662 -4.561949,0.484662 H 14.239101 V 18.52308 h 7.266008 q 2.924797,0 4.377999,0.197455 1.471596,0.179504 2.814429,0.879571 1.471596,0.771869 2.152209,2.0284 0.680614,1.23858 0.680614,2.925921 0,1.884796 -1.030118,3.374682 -1.011723,1.489887 -2.814428,2.333557 v 0.143604 q 2.446529,0.646215 3.789361,2.369458 1.342832,1.705291 1.342832,4.272204 z M 27.740998,25.057039 q 0,-0.969324 -0.331109,-1.66939 -0.331109,-0.718018 -1.066907,-1.130877 -0.882958,-0.484663 -1.968261,-0.592366 -1.085302,-0.107702 -2.998377,-0.107702 h -3.495042 v 7.826391 h 4.138865 q 1.710732,0 2.520109,-0.161554 0.809378,-0.179505 1.673941,-0.718018 0.827773,-0.520563 1.177278,-1.364233 0.349503,-0.84367 0.349503,-2.082251 z m 1.287648,12.134496 q 0,-1.507836 -0.441479,-2.47716 -0.441479,-0.987274 -1.784311,-1.669391 -0.864563,-0.448761 -1.894681,-0.574414 -1.011722,-0.125653 -2.888008,-0.125653 h -4.138865 v 9.872741 h 2.961588 q 2.391344,0 3.770966,-0.215405 1.379622,-0.215405 2.428134,-0.915472 1.030118,-0.700068 1.508387,-1.579639 0.478269,-0.897522 0.478269,-2.315607 z"
         id="text2"
         aria-label="B" />
      <circle
         transform="matrix(1.1494288,0,0,1.1455871,-0.28161757,0.56812508)"
         id="path2993"
         style="color:#000000;display:inline;overflow:visible;visibility:visible;fill:none;stroke:#2e3436;stroke-width:2.77919;stroke-linecap:butt;stroke-linejoin:round;stroke-miterlimit:4;stroke-dasharray:none;stroke-dashoffset:0;stroke-opacity:1;marker:none;enable-background:accumulate"
         cx="28.181818"
         cy="27.454546"
         r="23.272728" />
      <path
         transform="matrix(0.76555611,0,0,1.4471076,26.377247,7.2873152)"
         d="M 11.783744,34.785983 V -0.60416663 L 42.432512,17.090908 Z"
         id="path2997"
         style="color:#000000;display:inline;overflow:visible;visibility:visible;fill:#2e3436;fill-opacity:1;fill-rule:nonzero;stroke:none;stroke-width:2.00662;marker:none;enable-background:accumulate" />
      <g
         transform="matrix(1.0182912,0,0,1.0573322,-0.80820874,0)"
         style="font-style:normal;font-variant:normal;font-weight:normal;font-stretch:normal;font-size:33.5965px;line-height:125%;font-family:Arial;-inkscape-font-specification:Arial;letter-spacing:0px;word-spacing:0px;fill:#2e3436;fill-opacity:1;stroke:#2e3436;stroke-width:1.53675"
         id="text3767" />
    </g>
    <path
       style="fill:none;stroke:#2e3436;stroke-width:2;stroke-linecap:butt;stroke-linejoin:miter;stroke-miterlimit:4;stroke-dasharray:none;stroke-opacity:1"
       d="M 30.614893,16.074424 H 55.934959"
       id="path4266" />
  </g>
</svg>
