<?xml version="1.0" encoding="UTF-8" standalone="no"?>
<!-- Created with Inkscape (http://www.inkscape.org/) -->

<svg
   version="1.1"
   width="64"
   height="64"
   id="svg3039"
   xmlns:xlink="http://www.w3.org/1999/xlink"
   xmlns="http://www.w3.org/2000/svg"
   xmlns:svg="http://www.w3.org/2000/svg"
   xmlns:rdf="http://www.w3.org/1999/02/22-rdf-syntax-ns#"
   xmlns:cc="http://creativecommons.org/ns#"
   xmlns:dc="http://purl.org/dc/elements/1.1/">
  <title
     id="title1">TechDraw_Hatch</title>
  <defs
     id="defs3041">
    <linearGradient
       id="linearGradient3985">
      <stop
         style="stop-color:#edd400;stop-opacity:1"
         offset="0"
         id="stop3987" />
      <stop
         style="stop-color:#fce94f;stop-opacity:1"
         offset="1"
         id="stop3989" />
    </linearGradient>
    <linearGradient
       id="linearGradient3969">
      <stop
         id="stop3971"
         offset="0"
         style="stop-color:#edd400;stop-opacity:1;" />
      <stop
         style="stop-color:#edd400;stop-opacity:0.49803922;"
         offset="0.5"
         id="stop3975" />
      <stop
         id="stop3973"
         offset="1"
         style="stop-color:#edd400;stop-opacity:0;" />
    </linearGradient>
    <linearGradient
       id="linearGradient3951">
      <stop
         id="stop3959"
         offset="0"
         style="stop-color:#fce94f;stop-opacity:0.49803922;" />
      <stop
         style="stop-color:#fce94f;stop-opacity:0;"
         offset="1"
         id="stop3955" />
    </linearGradient>
    <linearGradient
       id="linearGradient3943">
      <stop
         style="stop-color:#ffffff;stop-opacity:1;"
         offset="0"
         id="stop3945" />
      <stop
         style="stop-color:#ffffff;stop-opacity:0;"
         offset="1"
         id="stop3947" />
    </linearGradient>
    <linearGradient
       xlink:href="#linearGradient3985"
       id="linearGradient3995"
       x1="59"
       y1="60"
       x2="4"
       y2="5"
       gradientUnits="userSpaceOnUse"
       gradientTransform="translate(0.5,-0.5)" />
    <clipPath
       clipPathUnits="userSpaceOnUse"
       id="clipPath4088">
      <rect
         style="color:#000000;fill:#ffffff;fill-opacity:1;fill-rule:nonzero;stroke:#000000;stroke-width:0.30285192;stroke-linecap:round;stroke-linejoin:miter;stroke-miterlimit:4;stroke-opacity:1;stroke-dasharray:none;stroke-dashoffset:0;marker:none;visibility:visible;display:inline;overflow:visible;enable-background:accumulate"
         id="rect4090"
         width="53.697147"
         height="53.697147"
         x="-13.788066"
         y="178.24513" />
    </clipPath>
    <linearGradient
       xlink:href="#linearGradient3807"
       id="linearGradient3813"
       x1="44"
       y1="59"
       x2="37"
       y2="10"
       gradientUnits="userSpaceOnUse"
       gradientTransform="matrix(1.1153846,0,0,1.1153846,-3.6923082,-3.6923082)" />
    <linearGradient
       id="linearGradient3807">
      <stop
         style="stop-color:#d3d7cf;stop-opacity:1"
         offset="0"
         id="stop3809" />
      <stop
         style="stop-color:#ffffff;stop-opacity:1"
         offset="1"
         id="stop3811" />
    </linearGradient>
  </defs>
  <metadata
     id="metadata3044">
    <rdf:RDF>
      <cc:Work
         rdf:about="">
        <dc:format>image/svg+xml</dc:format>
        <dc:type
           rdf:resource="http://purl.org/dc/dcmitype/StillImage" />
        <dc:title>TechDraw_Hatch</dc:title>
      </cc:Work>
    </rdf:RDF>
  </metadata>
  <g
     id="layer1"
     transform="matrix(0.89655174,0,0,0.89655174,3.3103455,3.3103451)"
     style="stroke-width:1.11538">
    <path
       style="color:#000000;display:inline;overflow:visible;visibility:visible;fill:url(#linearGradient3813);fill-opacity:1;fill-rule:nonzero;stroke:#555753;stroke-width:2.23077;stroke-linecap:butt;stroke-linejoin:round;stroke-miterlimit:4;stroke-dasharray:none;stroke-dashoffset:0;stroke-opacity:1;marker:none;enable-background:accumulate"
       d="M 35.076292,3.0000001 V 34.101014 H 2.9999997 V 60.999999 H 60.999999 V 3.0000001 Z"
       id="rect4151" />
    <path
       style="color:#000000;display:inline;overflow:visible;visibility:visible;fill:none;stroke:#ffffff;stroke-width:2.23077;stroke-linecap:butt;stroke-linejoin:miter;stroke-miterlimit:4;stroke-dasharray:none;stroke-dashoffset:0;stroke-opacity:1;marker:none;enable-background:accumulate"
       d="M 37,5.043883 V 36 L 5,35.956117 V 59 H 59 V 5 Z"
       id="rect4151-7" />
    <path
       style="fill:none;stroke:#204a87;stroke-width:2.23077;stroke-linecap:butt;stroke-linejoin:miter;stroke-opacity:1"
       d="M 61.000002,3.0000001 35.236175,29.031718"
       id="path2998" />
    <path
       style="fill:none;stroke:#204a87;stroke-width:2.23077;stroke-linecap:butt;stroke-linejoin:miter;stroke-opacity:1"
       d="M 46.500002,3.0000001 34.886928,14.676216"
       id="path3000" />
    <path
       style="fill:none;stroke:#204a87;stroke-width:2.23077;stroke-linecap:butt;stroke-linejoin:miter;stroke-opacity:1"
       d="M 17.500001,61 61.000002,17.5"
       id="path3002" />
    <path
       style="fill:none;stroke:#204a87;stroke-width:2.23077;stroke-linecap:butt;stroke-linejoin:miter;stroke-opacity:1"
       d="M 61.000002,32 32.000001,61"
       id="path3008" />
    <path
       style="fill:none;stroke:#204a87;stroke-width:2.23077;stroke-linecap:butt;stroke-linejoin:miter;stroke-opacity:1"
       d="m 61.000002,46.5 -14.5,14.5"
       id="path3010" />
    <path
       style="fill:none;stroke:#204a87;stroke-width:2.23077;stroke-linecap:butt;stroke-linejoin:miter;stroke-opacity:1"
       d="M 34.255503,34.066075 61.000002,61"
       id="path3683" />
    <path
       style="fill:none;stroke:#204a87;stroke-width:2.23077;stroke-linecap:butt;stroke-linejoin:miter;stroke-opacity:1"
       d="M 34.990454,20.616739 61.000002,46.5"
       id="path3685" />
    <path
       style="fill:none;stroke:#204a87;stroke-width:2.23077;stroke-linecap:butt;stroke-linejoin:miter;stroke-opacity:1"
       d="M 35.157122,5.9676942 61.000002,32"
       id="path3687" />
    <path
       style="fill:none;stroke:#204a87;stroke-width:2.23077;stroke-linecap:butt;stroke-linejoin:miter;stroke-opacity:1"
       d="M 46.500002,3.0000001 61.000002,17.5"
       id="path3689" />
    <path
       style="fill:none;stroke:#204a87;stroke-width:2.23077;stroke-linecap:butt;stroke-linejoin:miter;stroke-opacity:1"
       d="M 19.35389,34.043317 46.500002,61"
       id="path3691" />
    <path
       style="fill:none;stroke:#204a87;stroke-width:2.23077;stroke-linecap:butt;stroke-linejoin:miter;stroke-opacity:1"
       d="M 5.1468426,34.273128 32.000001,61"
       id="path3693" />
    <path
       style="fill:none;stroke:#204a87;stroke-width:2.23077;stroke-linecap:butt;stroke-linejoin:miter;stroke-opacity:1"
       d="M 3,46.5 17.500001,61"
       id="path3695" />
    <path
       style="fill:none;stroke:#204a87;stroke-width:2.23077;stroke-linecap:butt;stroke-linejoin:miter;stroke-opacity:1"
       d="M 16.002207,33.93979 3,46.5"
       id="path3000-3" />
    <path
       style="display:inline;fill:none;stroke:#204a87;stroke-width:2.23077;stroke-linecap:butt;stroke-linejoin:miter;stroke-opacity:1"
       d="M 29.746093,34.343205 3,61"
       id="path2998-6" />
    <path
       style="font-size:14.7969px;line-height:0px;font-family:Century;-inkscape-font-specification:Century;text-align:end;letter-spacing:0.822049px;word-spacing:0px;text-anchor:end;fill:#729fcf;stroke:#0b1521;stroke-width:2.23077;paint-order:stroke fill markers"
       d="m 4.6676734,18.893113 q 0.3612524,0 0.6141291,0.260102 0.2528767,0.260102 0.2528767,0.621354 0,0.375703 -0.2528767,0.635805 -0.2528767,0.260101 -0.6213542,0.260101 -0.3612524,0 -0.6213542,-0.260101 -0.2528767,-0.260102 -0.2528767,-0.62858 0,-0.368477 0.2528767,-0.628579 0.2601018,-0.260102 0.6285793,-0.260102 z m 5.4966556,-5.317636 q 0.158951,0.758631 0.187851,1.45946 0.498528,-0.794755 1.047632,-1.127107 0.549104,-0.332353 1.199358,-0.332353 0.693605,0 1.322184,0.426278 0.635804,0.426278 1.025957,1.249934 0.397378,0.823655 0.397378,1.856837 0,1.654536 -0.968157,2.694943 -0.80198,0.867006 -1.921863,0.867006 -0.635804,0 -1.148782,-0.325127 -0.512979,-0.325127 -0.910357,-0.968156 v 2.738293 q 0,0.317902 0.151726,0.447953 0.195077,0.173401 0.541879,0.173401 h 0.498528 v 0.512979 H 7.9823641 v -0.512979 h 0.4985284 q 0.3468023,0 0.5202035,-0.137276 0.1734011,-0.137276 0.1734011,-0.361252 v -7.123898 q 0,-0.498528 -0.2384266,-0.70083 -0.2384266,-0.209526 -0.9537064,-0.231201 v -0.484079 z m 2.102489,0.65748 q -0.78753,0 -1.336634,0.75863 -0.541879,0.75863 -0.541879,2.196415 0,1.452235 0.527429,2.145839 0.527428,0.693605 1.343859,0.693605 0.765855,0 1.177683,-0.592454 0.527428,-0.780305 0.527428,-2.283115 0,-1.575061 -0.476853,-2.246991 -0.476853,-0.671929 -1.221033,-0.671929 z m 12.230401,5.491037 0.260102,0.404603 q -0.527429,0.541878 -1.170458,0.541878 -0.491303,0 -0.830881,-0.267326 -0.332352,-0.267327 -0.585229,-0.939257 -0.686379,0.722505 -1.206583,0.968157 -0.520203,0.238426 -1.249933,0.238426 -1.040407,0 -1.582286,-0.447953 -0.541878,-0.447953 -0.541878,-1.148782 0,-1.054858 1.235483,-1.748462 1.242708,-0.70083 3.301847,-0.932032 V 15.36729 q 0,-0.549104 -0.440728,-0.939257 -0.440728,-0.390152 -1.119882,-0.390152 -0.62858,0 -1.083758,0.260101 -0.325127,0.195077 -0.325127,0.382928 0,0.108376 0.173401,0.339577 0.209527,0.289002 0.209527,0.512979 0,0.325127 -0.209527,0.534653 -0.209526,0.202302 -0.549103,0.202302 -0.361253,0 -0.606904,-0.245652 -0.238427,-0.245652 -0.238427,-0.628579 0,-0.71528 0.80198,-1.307734 0.809206,-0.592454 2.11694,-0.592454 1.206583,0 1.842387,0.520203 0.635804,0.527429 0.635804,1.278834 v 3.699225 q 0,0.491303 0.158951,0.722505 0.158951,0.238427 0.411828,0.238427 0.281777,0 0.592454,-0.231202 z M 22.127403,16.8701 q -1.835162,0.252876 -2.601017,0.823655 -0.570779,0.433503 -0.570779,1.228259 0,0.556328 0.296227,0.87423 0.296227,0.310678 0.77308,0.310678 0.852556,0 1.47391,-0.64303 0.628579,-0.650254 0.628579,-1.625636 z m 6.045758,-5.931765 h 0.491303 v 2.759968 h 2.18919 v 0.664705 h -2.18919 v 4.342254 q 0,0.563554 0.267327,0.867006 0.267327,0.296227 0.679155,0.296227 0.491303,0 0.838105,-0.455178 0.346803,-0.455178 0.404603,-1.50281 h 0.484078 q -0.04335,1.351084 -0.614129,2.008563 -0.570779,0.650255 -1.481135,0.650255 -0.838105,0 -1.314959,-0.455178 -0.469628,-0.462404 -0.469628,-1.206584 v -4.544555 h -1.177683 v -0.505754 q 0.801981,-0.137276 1.221034,-0.671929 0.621354,-0.801981 0.671929,-2.24699 z"
       id="text1"
       transform="scale(1.0120879,0.98805648)"
       aria-label=".pat" />
  </g>
</svg>
