<?xml version="1.0" encoding="UTF-8" standalone="no"?>
<!-- Created with Inkscape (http://www.inkscape.org/) -->

<svg
   version="1.0"
   width="64"
   height="64"
   id="svg97"
   xmlns:xlink="http://www.w3.org/1999/xlink"
   xmlns="http://www.w3.org/2000/svg"
   xmlns:svg="http://www.w3.org/2000/svg"
   xmlns:rdf="http://www.w3.org/1999/02/22-rdf-syntax-ns#"
   xmlns:cc="http://creativecommons.org/ns#"
   xmlns:dc="http://purl.org/dc/elements/1.1/">
  <metadata
     id="metadata4022">
    <rdf:RDF>
      <cc:Work
         rdf:about="">
        <dc:format>image/svg+xml</dc:format>
        <dc:type
           rdf:resource="http://purl.org/dc/dcmitype/StillImage" />
        <dc:creator>
          <cc:Agent>
            <dc:title>[WandererFan]</dc:title>
          </cc:Agent>
        </dc:creator>
        <dc:date>2016-01-14</dc:date>
        <dc:relation>https://www.freecad.org/wiki/index.php?title=Artwork</dc:relation>
        <dc:publisher>
          <cc:Agent>
            <dc:title>FreeCAD</dc:title>
          </cc:Agent>
        </dc:publisher>
        <dc:identifier>FreeCAD/src/Mod/TechDraw/Gui/Resources/icons/actions/techdraw-new-pick.svg</dc:identifier>
        <dc:rights>
          <cc:Agent>
            <dc:title>FreeCAD LGPL2+</dc:title>
          </cc:Agent>
        </dc:rights>
        <cc:license>https://www.gnu.org/copyleft/lesser.html</cc:license>
        <dc:contributor>
          <cc:Agent>
            <dc:title>[agryson] Alexander Gryson</dc:title>
          </cc:Agent>
        </dc:contributor>
      </cc:Work>
    </rdf:RDF>
  </metadata>
  <defs
     id="defs3">
    <linearGradient
       id="linearGradient4383">
      <stop
         stop-color="#3465a4"
         offset="0"
         id="stop2" />
      <stop
         stop-color="#729fcf"
         offset="1"
         id="stop4" />
    </linearGradient>
    <linearGradient
       id="linearGradient3765">
      <stop
         style="stop-color:#d3d7cf;stop-opacity:1;"
         offset="0"
         id="stop3767" />
      <stop
         style="stop-color:#ffffff;stop-opacity:1"
         offset="1"
         id="stop3769" />
    </linearGradient>
    <linearGradient
       xlink:href="#linearGradient4383"
       id="linearGradient9-3"
       x1="32"
       y1="64"
       x2="32"
       y2="14.419661"
       gradientUnits="userSpaceOnUse"
       gradientTransform="translate(0,2)" />
    <linearGradient
       xlink:href="#linearGradient3765"
       id="linearGradient3781-9-1"
       x1="10"
       y1="39.999996"
       x2="53"
       y2="25.999996"
       gradientUnits="userSpaceOnUse"
       gradientTransform="translate(-48)" />
  </defs>
  <g
     id="layer1"
     style="display:inline">
    <path
       style="display:inline;fill:#204a87;fill-opacity:1;stroke:#0c1522;stroke-width:2;stroke-linecap:round;stroke-miterlimit:4;stroke-dasharray:none;stroke-opacity:1;paint-order:normal"
       id="path4-2"
       d="M 29.921921,12.073012 26.993293,8.1977395 C 26.21651,7.1698698 25.163057,6.5924975 24.064598,6.5924975 H 7.0714589 c -1.1437425,0 -2.0708717,1.2268134 -2.0708717,2.740257 V 58.484215 c 0,0.504481 0.309043,0.913419 0.6902905,0.913419 H 58.294706 c 0.381247,0 0.690291,-0.408938 0.690291,-0.913419 V 14.813269 c 0,-1.513445 -0.927129,-2.740257 -2.070872,-2.740257 z" />
    <path
       style="display:inline;fill:#204a87;fill-opacity:1;stroke:#3465a4;stroke-width:2;stroke-linecap:round;stroke-miterlimit:4;stroke-dasharray:none;stroke-opacity:1;paint-order:normal"
       id="path7-1"
       d="M 7.2089844,8.5917969 H 24.064453 c 0.375444,0 0.874561,0.2026195 1.333984,0.8105468 l 3.527344,4.6699223 h 27.84961 c 0.0082,0.01044 0.01784,0.02289 0.02734,0.03711 0.01056,0.0158 0.02193,0.03237 0.0332,0.05273 0.08049,0.145363 0.148438,0.361331 0.148438,0.650391 v 42.58594 H 7 V 9.3320312 C 7,9.0436394 7.0678061,8.828994 7.1484375,8.6835937 c 0.011294,-0.020366 0.022609,-0.038859 0.033203,-0.054687 0.00953,-0.014245 0.019073,-0.026632 0.027344,-0.03711 z" />
    <g
       id="layer4-3"
       style="display:inline;stroke-width:1.0477"
       transform="matrix(0,-0.91102286,1,0,16.047695,58.526872)">
      <rect
         style="fill:#d3d7cf;fill-opacity:1;stroke:#2e3436;stroke-width:2.09539;stroke-linecap:round;stroke-linejoin:round;stroke-miterlimit:4;stroke-dasharray:none;stroke-dashoffset:0;stroke-opacity:1"
         id="rect2987-4"
         width="45.999996"
         height="58.000004"
         x="-38.999996"
         y="3"
         transform="rotate(-90)" />
      <rect
         style="fill:url(#linearGradient3781-9-1);fill-opacity:1;stroke:#ffffff;stroke-width:2.09539;stroke-linecap:round;stroke-linejoin:miter;stroke-miterlimit:4;stroke-dasharray:none;stroke-dashoffset:0;stroke-opacity:1"
         id="rect2987-1-8"
         width="41.999996"
         height="54.000004"
         x="-36.999996"
         y="5"
         transform="rotate(-90)" />
      <rect
         style="color:#000000;display:inline;overflow:visible;visibility:visible;fill:none;stroke:#555753;stroke-width:2.09539;stroke-linecap:round;stroke-linejoin:round;stroke-miterlimit:4;stroke-dasharray:none;stroke-dashoffset:0;stroke-opacity:1;marker:none;enable-background:accumulate"
         id="rect3894-32"
         width="50"
         height="38"
         x="7"
         y="-3" />
      <g
         id="g22"
         transform="matrix(1.2327162,0,0,1.2483813,-13.253192,-8.7051925)"
         style="stroke-width:0.844562">
        <rect
           style="color:#000000;display:inline;overflow:visible;visibility:visible;fill:none;stroke:#555753;stroke-width:1.68912;stroke-linecap:round;stroke-linejoin:round;stroke-miterlimit:4;stroke-dasharray:none;stroke-dashoffset:0;stroke-opacity:1;marker:none;enable-background:accumulate"
           id="rect4664-4"
           width="23.999994"
           height="12.000004"
           x="33"
           y="23" />
        <path
           style="fill:none;stroke:#555753;stroke-width:1.68912;stroke-linecap:round;stroke-linejoin:round;stroke-miterlimit:4;stroke-dasharray:none;stroke-opacity:1"
           d="m 37,27 h 15.398794 v 0"
           id="path4666-19" />
        <path
           style="fill:none;stroke:#555753;stroke-width:1.68912;stroke-linecap:round;stroke-linejoin:round;stroke-miterlimit:4;stroke-dasharray:none;stroke-opacity:1"
           d="m 37,31 h 15.642526 v 0"
           id="path4666-7-0" />
      </g>
    </g>
    <path
       style="fill:#729fcf;fill-opacity:1;stroke:#0c1522;stroke-width:2;stroke-linecap:round;stroke-linejoin:round;stroke-miterlimit:4;stroke-dasharray:none;stroke-opacity:1;paint-order:normal"
       id="path6"
       d="m 29.919347,30.419661 -2.927223,3.534545 C 26.215716,34.891703 25.16247,35.41831 24.064012,35.41831 H 5.0000008 l 0.015588,23.156085 c 2.171e-4,0.460126 0.3093777,0.833108 0.6906252,0.833108 h 52.603828 c 0.381248,0 0.690139,-0.372982 0.689957,-0.833108 L 58.983419,32.918986 C 58.982865,31.538609 58.055293,30.419661 56.91155,30.419661 H 29.919344 Z" />
    <path
       style="fill:url(#linearGradient9-3);fill-opacity:1;stroke:#729fcf;stroke-width:2;stroke-linecap:round;stroke-linejoin:round;stroke-miterlimit:4;stroke-dasharray:none;stroke-opacity:1;paint-order:normal"
       id="path8-5"
       d="m 30.861328,32.419922 h 26.050781 c 0,0 0.07225,0.463543 0.07227,0.5 L 57,57.408203 H 7.015625 L 7,37.417969 h 17.064453 c 1.756119,0 3.349555,-0.836095 4.46875,-2.1875 z" />
    <g
       id="g5"
       style="display:inline;stroke:#2e3436">
      <circle
         style="fill:#eeeeec;stroke:#555753;stroke-width:2.00001;stroke-linecap:round;stroke-linejoin:round"
         id="path2"
         cx="45.99572"
         cy="45.994976"
         r="15.005042" />
      <path
         id="path1"
         style="fill:#8ae234;stroke:#17230b;stroke-width:1.99998;stroke-linecap:round;stroke-linejoin:round;stroke-opacity:1"
         d="m 43.99572,35.994976 h 4 v 8 h 8 v 4 h -8 v 8 h -4 v -8 h -8 v -4 h 8 z" />
    </g>
  </g>
</svg>
