<?xml version="1.0" encoding="UTF-8" standalone="no"?>
<!-- Created with Inkscape (http://www.inkscape.org/) -->

<svg
   version="1.1"
   width="64"
   height="64"
   id="svg3085"
   xmlns:xlink="http://www.w3.org/1999/xlink"
   xmlns="http://www.w3.org/2000/svg"
   xmlns:svg="http://www.w3.org/2000/svg"
   xmlns:rdf="http://www.w3.org/1999/02/22-rdf-syntax-ns#"
   xmlns:cc="http://creativecommons.org/ns#"
   xmlns:dc="http://purl.org/dc/elements/1.1/">
  <defs
     id="defs3087">
    <linearGradient
       id="linearGradient6">
      <stop
         style="stop-color:#888a85;stop-opacity:1;"
         offset="0"
         id="stop6" />
      <stop
         style="stop-color:#babdb6;stop-opacity:1;"
         offset="1"
         id="stop7" />
    </linearGradient>
    <linearGradient
       id="linearGradient4">
      <stop
         style="stop-color:#888a85;stop-opacity:1;"
         offset="0"
         id="stop4" />
      <stop
         style="stop-color:#babdb6;stop-opacity:1;"
         offset="1"
         id="stop5" />
    </linearGradient>
    <linearGradient
       id="linearGradient3836-0">
      <stop
         id="stop5008"
         offset="0"
         style="stop-color:#c4a000;stop-opacity:1;" />
      <stop
         id="stop5010"
         offset="1"
         style="stop-color:#fce94f;stop-opacity:1;" />
    </linearGradient>
    <linearGradient
       id="linearGradient7597">
      <stop
         id="stop7599"
         style="stop-color:#000003;stop-opacity:1"
         offset="0" />
      <stop
         id="stop7601"
         style="stop-color:#000003;stop-opacity:0"
         offset="1" />
    </linearGradient>
    <linearGradient
       id="linearGradient3893">
      <stop
         id="stop3895"
         style="stop-color:#ffffff;stop-opacity:1"
         offset="0" />
      <stop
         id="stop3897"
         style="stop-color:#ffffff;stop-opacity:0"
         offset="1" />
    </linearGradient>
    <linearGradient
       x1="15.71482"
       y1="22.299377"
       x2="34.136208"
       y2="22.299377"
       id="linearGradient7603"
       xlink:href="#linearGradient7597"
       gradientUnits="userSpaceOnUse" />
    <linearGradient
       id="linearGradient3836-0-3">
      <stop
         style="stop-color:#c4a000;stop-opacity:1;"
         offset="0"
         id="stop3838-2" />
      <stop
         style="stop-color:#fce94f;stop-opacity:1;"
         offset="1"
         id="stop3840-5" />
    </linearGradient>
    <linearGradient
       y2="5"
       x2="-22"
       y1="18"
       x1="-18"
       gradientUnits="userSpaceOnUse"
       id="linearGradient3801-1"
       xlink:href="#linearGradient3836-0" />
    <linearGradient
       xlink:href="#linearGradient4"
       id="linearGradient5"
       x1="4.0513154"
       y1="55.463016"
       x2="19.698685"
       y2="55.463016"
       gradientUnits="userSpaceOnUse" />
    <linearGradient
       xlink:href="#linearGradient6"
       id="linearGradient7"
       x1="47.656659"
       y1="11.761779"
       x2="63.302326"
       y2="11.761779"
       gradientUnits="userSpaceOnUse" />
  </defs>
  <metadata
     id="metadata3090">
    <rdf:RDF>
      <cc:Work
         rdf:about="">
        <dc:format>image/svg+xml</dc:format>
        <dc:type
           rdf:resource="http://purl.org/dc/dcmitype/StillImage" />
      </cc:Work>
    </rdf:RDF>
  </metadata>
  <g
     transform="matrix(0.89439382,0,0,0.89240263,3.3794438,3.5040056)"
     id="g615"
     style="stroke-width:1.11931">
    <path
       style="fill:#d3d7cf;stroke:#0b1521;stroke-width:6;stroke-linecap:round;stroke-dasharray:none"
       d="m 13.99998,53.000054 39,-38.999738"
       id="path1"
       transform="matrix(1.1180757,0,0,1.1205704,-3.778474,-3.9264851)" />
    <path
       style="stroke-width:2.00000003;fill:#d3d7cf;stroke:#729fcf;stroke-linecap:round;stroke-dasharray:none"
       d="m 13.99998,53.000054 39,-38.999738"
       id="path2"
       transform="matrix(1.1180757,0,0,1.1205704,-3.778474,-3.9264851)" />
    <path
       d="M 46.56392,12.453231 A 8.9422228,8.9602072 0.65055533 1 1 64.395111,11.07048 8.9422228,8.9602072 0.65055533 1 1 46.56392,12.453231 Z"
       id="path131"
       style="fill:#d3d7cf;stroke:#555753;stroke-width:2.23955;stroke-miterlimit:4;stroke-dasharray:none;stroke-opacity:1" />
    <path
       d="m 55.310547,5.0371094 c 3.52096,-0.09377 6.577101,2.6256681 6.851562,6.2070316 0.287188,3.693928 -2.487347,6.93934 -6.166015,7.224609 -3.678715,0.285272 -6.915937,-2.492983 -7.199219,-6.189453 -0.287191,-3.6939759 2.486742,-6.9373407 6.166016,-7.2226564 0.130662,-0.010132 0.243375,-0.016754 0.347656,-0.019531 z"
       id="path3"
       style="stroke-width:2.23976407;fill:url(#linearGradient7);stroke:#d3d7cf;stroke-miterlimit:4;stroke-dasharray:none;stroke-opacity:1" />
    <path
       d="M 2.9589679,56.155184 A 8.9422228,8.9602072 0.65055533 1 1 20.790159,54.772433 8.9422228,8.9602072 0.65055533 1 1 2.9589679,56.155184 Z"
       id="path131-6"
       style="fill:#d3d7cf;stroke:#555753;stroke-width:2.23955;stroke-miterlimit:4;stroke-dasharray:none;stroke-opacity:1" />
    <path
       d="m 11.707031,48.738281 c 0.114415,-0.0032 0.226684,-0.0027 0.337891,0 3.382201,0.08138 6.246738,2.724348 6.513672,6.207031 0.2871,3.693301 -2.489309,6.939342 -6.167969,7.22461 -3.6786588,0.285268 -6.9159046,-2.493059 -7.1992188,-6.189453 -0.2871042,-3.693348 2.488704,-6.937341 6.1679688,-7.222657 0.11827,-0.0092 0.233242,-0.01632 0.347656,-0.01953 z"
       id="path4"
       style="fill:url(#linearGradient5);stroke:#d3d7cf;stroke-width:2.23955;stroke-miterlimit:4;stroke-dasharray:none;stroke-opacity:1" />
  </g>
</svg>
