<?xml version="1.0" encoding="UTF-8" standalone="no"?>
<!-- Created with Inkscape (http://www.inkscape.org/) -->

<svg
   width="48px"
   height="48px"
   id="svg4198"
   version="1.1"
   xmlns="http://www.w3.org/2000/svg"
   xmlns:svg="http://www.w3.org/2000/svg"
   xmlns:rdf="http://www.w3.org/1999/02/22-rdf-syntax-ns#"
   xmlns:cc="http://creativecommons.org/ns#"
   xmlns:dc="http://purl.org/dc/elements/1.1/">
  <defs
     id="defs4200" />
  <metadata
     id="metadata4203">
    <rdf:RDF>
      <cc:Work
         rdf:about="">
        <dc:format>image/svg+xml</dc:format>
        <dc:type
           rdf:resource="http://purl.org/dc/dcmitype/StillImage" />
        <dc:date>2005-10-15</dc:date>
        <dc:creator>
          <cc:Agent>
            <dc:title>Andreas Nilsson</dc:title>
          </cc:Agent>
        </dc:creator>
        <dc:subject>
          <rdf:Bag>
            <rdf:li>edit</rdf:li>
            <rdf:li>copy</rdf:li>
          </rdf:Bag>
        </dc:subject>
        <dc:contributor>
          <cc:Agent>
            <dc:title>Jakub Steiner</dc:title>
          </cc:Agent>
        </dc:contributor>
        <dc:rights>
          <cc:Agent>
            <dc:title>FreeCAD LGPL2+</dc:title>
          </cc:Agent>
        </dc:rights>
        <dc:publisher>
          <cc:Agent>
            <dc:title>FreeCAD</dc:title>
          </cc:Agent>
        </dc:publisher>
        <dc:relation>https://www.freecad.org/wiki/index.php?title=Artwork</dc:relation>
        <cc:license
           rdf:resource="http://creativecommons.org/licenses/by-sa/4.0/" />
      </cc:Work>
      <cc:License
         rdf:about="http://creativecommons.org/licenses/by-sa/4.0/">
        <cc:permits
           rdf:resource="http://creativecommons.org/ns#Reproduction" />
        <cc:permits
           rdf:resource="http://creativecommons.org/ns#Distribution" />
        <cc:requires
           rdf:resource="http://creativecommons.org/ns#Notice" />
        <cc:requires
           rdf:resource="http://creativecommons.org/ns#Attribution" />
        <cc:permits
           rdf:resource="http://creativecommons.org/ns#DerivativeWorks" />
        <cc:requires
           rdf:resource="http://creativecommons.org/ns#ShareAlike" />
      </cc:License>
    </rdf:RDF>
  </metadata>
  <g
     id="layer1">
    <g
       id="g942"
       transform="translate(57.645234,-2.4688542)">
      <path
         id="path2993-9"
         style="font-variation-settings:normal;opacity:1;fill:#ffffff;fill-opacity:1;stroke:#2e3436;stroke-width:2;stroke-linecap:butt;stroke-linejoin:round;stroke-miterlimit:4;stroke-dasharray:none;stroke-dashoffset:0;stroke-opacity:1;stop-color:#000000;stop-opacity:1"
         d="m -36.645234,7.4688506 -18,7.9999964 24,4 18,-7.999997 z" />
      <path
         id="path2995-1"
         style="fill:#ffffff;fill-opacity:1;stroke:#2e3436;stroke-width:2;stroke-linecap:butt;stroke-linejoin:round;stroke-dasharray:none;stroke-opacity:1"
         d="m -12.645234,11.468851 -18,7.999996 v 26 l 18,-7.999997 z" />
      <path
         id="path3825-2"
         style="display:inline;overflow:visible;visibility:visible;fill:#ffffff;fill-opacity:1;fill-rule:evenodd;stroke:#2e3436;stroke-width:2;stroke-linecap:butt;stroke-linejoin:round;stroke-miterlimit:4;stroke-dasharray:none;stroke-dashoffset:0;stroke-opacity:1;marker:none;enable-background:accumulate"
         d="m -54.645234,15.468836 v 26 l 24,4 v -26 z" />
      <g
         id="layer1-5"
         style="display:inline;stroke-width:1.66242"
         transform="matrix(0.60307128,0.16159246,0,0.59999998,-56.658963,13.213888)">
        <g
           id="layer1-5-7"
           style="display:inline;stroke-width:1.67921"
           transform="matrix(0.99000002,0,0,0.98999999,0.23237266,0.22484769)">
          <path
             class="cls-4"
             d="m 25.934197,25.041075 3.273166,-3.294778 0.01555,0.01555 2.496781,-2.510183 -0.464448,-0.462725 a 2.9115436,2.9115548 0 0 0 -4.117378,0.0134 l -3.718173,3.74281 z"
             id="path7"
             style="display:inline;fill:#00a3b7;stroke:none;stroke-width:1.67922" />
          <path
             class="cls-4"
             d="m 30.121565,36.152424 7.193104,-7.240227 a 2.9115436,2.9115548 0 0 0 -0.013,-4.117393 l -2.455735,-2.439322 -2.496777,2.512773 2.007274,1.994322 -6.303088,6.34416 -7.662294,-7.611783 -0.445008,0.447601 a 2.9111114,2.9111227 0 0 0 0.01339,4.117394 l 6.044732,6.005431 a 2.9115436,2.9115548 0 0 0 4.117372,-0.013 z"
             id="path8"
             style="display:inline;fill:#00a3b7;stroke:none;stroke-width:1.67922" />
          <g
             id="g2"
             style="stroke-width:1.67921">
            <path
               class="cls-1"
               d="m 25.763974,19.726914 -3.294767,-3.273607 0.0151,-0.0151 -2.513203,-2.497222 -0.460125,0.463585 a 2.9111114,2.9111227 0 0 0 0.0134,4.116963 l 3.742803,3.718614 z"
               id="path1"
               style="font-variation-settings:normal;display:inline;vector-effect:none;fill:#e62531;fill-opacity:1;stroke:none;stroke-width:3.3584;stroke-linecap:round;stroke-linejoin:round;stroke-miterlimit:4;stroke-dasharray:none;stroke-dashoffset:0;stroke-opacity:1;-inkscape-stroke:none;stop-color:#000000" />
            <path
               class="cls-1"
               d="M 36.874409,15.539532 29.633786,8.345974 a 2.9111114,2.9111227 0 0 0 -4.116942,0.0134 l -2.439754,2.455747 2.513204,2.496789 1.994744,-2.007714 6.344131,6.305705 -7.612613,7.660162 0.448034,0.445012 a 2.9115436,2.9115548 0 0 0 4.117378,-0.0134 l 6.005407,-6.045188 a 2.9111114,2.9111227 0 0 0 -0.013,-4.116958 z"
               id="path2"
               style="display:inline;fill:#e62531;stroke:none;stroke-width:3.3584;stroke-linecap:round;stroke-linejoin:round;stroke-dasharray:none;stroke-opacity:1" />
            <path
               class="cls-2"
               d="m 20.680114,25.273079 3.294769,3.273614 -0.01514,0.01514 2.513198,2.496792 0.46186,-0.463156 a 2.9111114,2.9111227 0 0 0 -0.0134,-4.116957 l -3.745389,-3.718621 z"
               id="path3"
               style="font-variation-settings:normal;display:inline;vector-effect:none;fill:#b62f88;fill-opacity:1;stroke:none;stroke-width:3.3584;stroke-linecap:round;stroke-linejoin:round;stroke-miterlimit:4;stroke-dasharray:none;stroke-dashoffset:0;stroke-opacity:1;-inkscape-stroke:none;stop-color:#000000" />
            <path
               class="cls-2"
               d="m 9.569671,29.460463 7.240624,7.193563 a 2.9111114,2.9111227 0 0 0 4.116947,-0.0134 L 23.36699,34.184877 20.853794,31.68809 18.85905,33.695806 12.514917,27.392262 20.12753,19.729935 19.679501,19.284923 a 2.9111114,2.9111227 0 0 0 -4.116947,0.0134 l -6.005843,6.045183 a 2.9111114,2.9111227 0 0 0 0.01295,4.116958 z"
               id="path4"
               style="display:inline;fill:#b62f88;stroke:none;stroke-width:3.3584;stroke-linecap:round;stroke-linejoin:round;stroke-dasharray:none;stroke-opacity:1" />
            <path
               class="cls-3"
               d="m 20.540564,19.927385 -3.273596,3.294779 -0.01514,-0.01555 -2.497212,2.513208 0.463584,0.460565 a 2.9111114,2.9111227 0 0 0 4.116948,-0.0134 l 3.718599,-3.742809 z"
               id="path5"
               style="font-variation-settings:normal;display:inline;vector-effect:none;fill:#0063a7;fill-opacity:1;stroke:none;stroke-width:3.3584;stroke-linecap:round;stroke-linejoin:round;stroke-miterlimit:4;stroke-dasharray:none;stroke-dashoffset:0;stroke-opacity:1;-inkscape-stroke:none;stop-color:#000000" />
            <path
               class="cls-3"
               d="m 16.353197,8.816898 -7.193529,7.240224 a 2.9115436,2.9115548 0 0 0 0.0134,4.117392 l 2.455736,2.439328 2.496778,-2.513207 -2.007703,-1.994321 6.30568,-6.344591 7.660137,7.612646 0.445004,-0.447605 A 2.9115436,2.9115548 0 0 0 26.5153,14.809375 L 20.470139,8.803938 a 2.9111114,2.9111227 0 0 0 -4.116942,0.01295 z"
               id="path6"
               style="display:inline;fill:#0063a7;stroke:none;stroke-width:3.3584;stroke-linecap:round;stroke-linejoin:round;stroke-dasharray:none;stroke-opacity:1" />
            <path
               class="cls-4"
               d="m 25.934197,25.041075 3.273166,-3.294778 0.01555,0.01555 2.496781,-2.510183 -0.464448,-0.462725 a 2.9115436,2.9115548 0 0 0 -4.117378,0.0134 l -3.718173,3.74281 z"
               id="path16"
               style="font-variation-settings:normal;display:inline;vector-effect:none;fill:#00a3b7;fill-opacity:1;stroke:none;stroke-width:3.3584;stroke-linecap:round;stroke-linejoin:round;stroke-miterlimit:4;stroke-dasharray:none;stroke-dashoffset:0;stroke-opacity:1;-inkscape-stroke:none;stop-color:#000000" />
            <path
               class="cls-4"
               d="m 30.121565,36.152424 7.193104,-7.240227 a 2.9115436,2.9115548 0 0 0 -0.013,-4.117393 l -2.455735,-2.439322 -2.496777,2.512773 2.007274,1.994322 -6.303088,6.34416 -7.662294,-7.611783 -0.445008,0.447601 a 2.9111114,2.9111227 0 0 0 0.01339,4.117394 l 6.044732,6.005431 a 2.9115436,2.9115548 0 0 0 4.117372,-0.013 z"
               id="path17"
               style="display:inline;fill:#00a3b7;stroke:none;stroke-width:3.3584;stroke-linecap:round;stroke-linejoin:round;stroke-dasharray:none;stroke-opacity:1" />
          </g>
        </g>
      </g>
      <path
         d="m -54.645234,15.468847 42,-3.999997 z"
         style="font-variation-settings:normal;fill:#ffffff;fill-opacity:1;stroke:#2e3436;stroke-width:2;stroke-linecap:butt;stroke-linejoin:round;stroke-miterlimit:4;stroke-dasharray:none;stroke-dashoffset:0;stroke-opacity:1;stop-color:#000000"
         id="path1-3" />
      <path
         d="m -30.645234,19.468847 18,18.000004 z"
         style="fill:#ffffff;fill-opacity:1;stroke:#2e3436;stroke-width:2;stroke-linecap:butt;stroke-linejoin:round;stroke-dasharray:none;stroke-opacity:1"
         id="path1-6" />
    </g>
  </g>
</svg>
