<svg id="svg" version="1.1" xmlns="http://www.w3.org/2000/svg" xmlns:xlink="http://www.w3.org/1999/xlink" width="400" height="400" viewBox="0, 0, 400,400"><g id="svgg"><path id="path0" d="M107.861 132.699 L 96.658 143.833 154.329 201.500 L 212.000 259.166 223.166 247.999 L 234.333 236.832 176.698 179.198 L 119.064 121.565 107.861 132.699 " stroke="none" fill="#d4441c" fill-rule="evenodd"></path><path id="path1" d="M140.551 99.949 L 129.271 111.232 187.052 168.976 L 244.833 226.719 255.917 215.493 C 262.013 209.319,267.000 204.170,267.000 204.050 C 267.000 203.930,241.087 177.920,209.416 146.249 L 151.831 88.665 140.551 99.949 M171.000 314.361 L 171.000 328.390 176.583 328.278 C 184.791 328.114,185.754 327.359,185.805 321.042 C 185.839 316.847,185.656 316.057,184.294 314.506 C 183.728 313.861,183.402 313.333,183.571 313.333 C 184.513 313.333,185.333 310.707,185.333 307.694 C 185.333 301.455,183.854 300.339,175.583 300.335 L 171.000 300.333 171.000 314.361 M197.920 300.808 C 193.970 302.217,193.833 302.669,193.833 314.333 C 193.833 327.496,194.177 328.054,202.417 328.282 L 206.667 328.400 206.667 326.867 L 206.667 325.333 203.150 325.333 C 197.028 325.333,197.200 325.656,197.184 314.128 C 197.170 303.142,197.064 303.333,203.182 303.333 L 206.667 303.333 206.667 301.833 L 206.667 300.333 202.917 300.348 C 200.671 300.357,198.666 300.541,197.920 300.808 M215.333 314.333 L 215.333 328.333 217.000 328.333 L 218.667 328.333 218.667 322.000 L 218.667 315.667 223.167 315.667 L 227.667 315.667 227.667 314.167 L 227.667 312.667 223.167 312.667 L 218.667 312.667 218.667 308.000 L 218.667 303.333 223.667 303.333 L 228.667 303.333 228.667 301.833 L 228.667 300.333 222.000 300.333 L 215.333 300.333 215.333 314.333 M181.182 304.152 C 181.916 304.886,182.000 305.247,182.000 307.677 C 182.000 311.553,181.222 312.333,177.359 312.333 L 174.667 312.333 174.667 307.833 L 174.667 303.333 177.515 303.333 C 180.095 303.333,180.441 303.410,181.182 304.152 M181.515 316.152 C 182.280 316.916,182.333 317.199,182.333 320.461 C 182.333 325.020,182.030 325.333,177.622 325.333 L 174.667 325.333 174.667 320.333 L 174.667 315.333 177.682 315.333 C 180.439 315.333,180.767 315.403,181.515 316.152 " stroke="none" fill="#043645" fill-rule="evenodd"></path><path id="path2" d="M0.000 200.000 L 0.000 400.000 200.000 400.000 L 400.000 400.000 400.000 200.000 L 400.000 0.000 200.000 0.000 L 0.000 0.000 0.000 200.000 M241.765 114.265 L 299.363 171.864 288.148 183.148 L 276.933 194.433 219.218 136.717 L 161.502 79.002 172.666 67.834 C 178.806 61.692,183.906 56.667,183.998 56.667 C 184.091 56.667,210.086 82.586,241.765 114.265 M264.919 206.581 L 262.513 209.004 267.004 213.504 L 271.495 218.004 260.247 229.252 L 249.000 240.499 191.254 182.754 L 133.509 125.009 135.831 122.669 L 138.153 120.329 133.663 115.830 L 129.173 111.331 140.502 99.998 L 151.831 88.665 209.579 146.412 L 267.326 204.158 264.919 206.581 M232.285 239.215 L 229.911 241.605 234.289 245.968 C 236.697 248.368,238.667 250.444,238.667 250.581 C 238.667 250.718,233.605 255.893,227.418 262.082 L 216.169 273.335 158.421 215.588 L 100.674 157.842 103.081 155.419 L 105.487 152.996 101.010 148.510 C 98.547 146.042,96.638 143.905,96.767 143.762 C 96.896 143.618,101.989 138.515,108.084 132.423 L 119.167 121.345 176.913 179.085 L 234.659 236.825 232.285 239.215 M182.672 301.083 C 185.810 302.674,186.815 309.057,184.470 312.512 L 183.642 313.733 184.488 314.579 C 185.747 315.838,186.095 317.473,185.948 321.442 C 185.725 327.475,184.858 328.124,176.810 328.278 L 171.000 328.388 171.000 314.361 L 171.000 300.333 176.096 300.333 C 180.720 300.333,181.329 300.403,182.672 301.083 M206.667 301.805 L 206.667 303.276 202.804 303.388 C 199.046 303.497,198.919 303.525,198.137 304.435 L 197.333 305.371 197.333 314.333 L 197.333 323.296 198.137 324.231 C 198.919 325.141,199.046 325.170,202.804 325.279 L 206.667 325.391 206.667 326.862 L 206.667 328.333 202.583 328.326 C 194.207 328.311,193.667 327.463,193.667 314.333 C 193.667 301.204,194.207 300.356,202.583 300.341 L 206.667 300.333 206.667 301.805 M228.667 301.833 L 228.667 303.333 223.667 303.333 L 218.667 303.333 218.667 308.000 L 218.667 312.667 223.167 312.667 L 227.667 312.667 227.667 314.167 L 227.667 315.667 223.167 315.667 L 218.667 315.667 218.667 322.000 L 218.667 328.333 216.833 328.333 L 215.000 328.333 215.000 314.333 L 215.000 300.333 221.833 300.333 L 228.667 300.333 228.667 301.833 M174.667 307.868 L 174.667 312.402 177.491 312.284 C 180.958 312.140,181.673 311.617,181.920 309.046 C 182.364 304.425,181.459 303.333,177.183 303.333 L 174.667 303.333 174.667 307.868 M174.667 320.332 L 174.667 325.398 177.822 325.282 C 182.014 325.129,182.131 325.008,182.280 320.708 C 182.439 316.084,181.978 315.548,177.696 315.384 L 174.667 315.267 174.667 320.332 " stroke="none" fill="#fcfcfc" fill-rule="evenodd"></path><path id="path3" d="M172.666 67.834 L 161.502 79.002 219.218 136.717 L 276.933 194.433 288.148 183.148 L 299.363 171.864 241.765 114.265 C 210.086 82.586,184.091 56.667,183.998 56.667 C 183.906 56.667,178.806 61.692,172.666 67.834 M133.660 115.777 L 138.153 120.329 135.831 122.669 L 133.509 125.009 191.254 182.754 L 249.000 240.499 260.247 229.252 L 271.495 218.004 267.004 213.504 L 262.513 209.004 264.859 206.585 C 266.150 205.255,262.172 209.241,256.019 215.444 L 244.833 226.721 187.000 168.973 C 155.192 137.212,131.189 113.274,133.660 115.777 M185.440 307.667 C 185.440 308.858,185.501 309.346,185.574 308.750 C 185.648 308.154,185.648 307.179,185.574 306.583 C 185.501 305.987,185.440 306.475,185.440 307.667 " stroke="none" fill="#96c7c3" fill-rule="evenodd"></path><path id="path4" d="M118.826 121.679 C 118.673 121.926,118.698 122.020,118.885 121.904 C 119.062 121.795,145.110 147.610,176.771 179.271 L 234.335 236.836 223.167 248.000 L 211.998 259.164 154.251 201.499 C 122.490 169.783,98.525 145.895,100.996 148.415 L 105.487 152.996 103.081 155.419 L 100.674 157.842 158.421 215.588 L 216.169 273.335 227.418 262.082 C 233.605 255.893,238.667 250.718,238.667 250.581 C 238.667 250.444,236.697 248.368,234.289 245.968 L 229.911 241.605 232.285 239.215 L 234.659 236.825 176.873 179.040 C 137.213 139.380,119.006 121.388,118.826 121.679 " stroke="none" fill="#eca48c" fill-rule="evenodd"></path></g></svg>
