<?xml version="1.0" encoding="UTF-8" standalone="no"?>
<!-- Created with Inkscape (http://www.inkscape.org/) -->

<svg
   xmlns:dc="http://purl.org/dc/elements/1.1/"
   xmlns:cc="http://creativecommons.org/ns#"
   xmlns:rdf="http://www.w3.org/1999/02/22-rdf-syntax-ns#"
   xmlns:svg="http://www.w3.org/2000/svg"
   xmlns="http://www.w3.org/2000/svg"
   xmlns:sodipodi="http://sodipodi.sourceforge.net/DTD/sodipodi-0.dtd"
   xmlns:inkscape="http://www.inkscape.org/namespaces/inkscape"
   width="64"
   height="64"
   viewBox="0 0 16.933333 16.933333"
   version="1.1"
   id="svg8"
   inkscape:version="0.92.4 (5da689c313, 2019-01-14)"
   sodipodi:docname="BIMBots.svg">
  <defs
     id="defs2" />
  <sodipodi:namedview
     id="base"
     pagecolor="#ffffff"
     bordercolor="#666666"
     borderopacity="1.0"
     inkscape:pageopacity="0.0"
     inkscape:pageshadow="2"
     inkscape:zoom="11.2"
     inkscape:cx="16.694806"
     inkscape:cy="29.363536"
     inkscape:document-units="mm"
     inkscape:current-layer="layer1"
     showgrid="false"
     units="px"
     width="64px"
     inkscape:window-width="1920"
     inkscape:window-height="1051"
     inkscape:window-x="0"
     inkscape:window-y="0"
     inkscape:window-maximized="1" />
  <metadata
     id="metadata5">
    <rdf:RDF>
      <cc:Work
         rdf:about="">
        <dc:format>image/svg+xml</dc:format>
        <dc:type
           rdf:resource="http://purl.org/dc/dcmitype/StillImage" />
        <dc:title></dc:title>
      </cc:Work>
    </rdf:RDF>
  </metadata>
  <g
     inkscape:label="Layer 1"
     inkscape:groupmode="layer"
     id="layer1"
     transform="translate(0,-280.06667)">
    <path
       style="fill:#ffffff;fill-rule:evenodd;stroke:none;stroke-width:0.26458332px;stroke-linecap:butt;stroke-linejoin:miter;stroke-opacity:1;fill-opacity:1"
       d="m 10.188868,285.80536 2.095358,1.27277 0.141741,3.96875 0.826823,-0.0472 1.299293,2.33873 -2.362351,1.86626 -4.7756306,0.65591 -4.0359393,-1.22288 -1.7008928,-2.17336 0.2604348,-1.75347 0.1795717,-0.32574 c 0,0 0.2203106,-0.36565 0.6760151,-0.61296 0.4557043,-0.24731 0.5671537,-0.38479 0.5671537,-0.38479 0,0 -0.4783762,-2.02572 -0.4547526,-2.01981 0.023625,0.006 1.7776692,1.37607 1.7776692,1.37607 l 1.1634578,-1.11031 0.3170844,-1.70826 z"
       id="path852"
       inkscape:connector-curvature="0" />
    <path
       inkscape:connector-curvature="0"
       id="path840"
       d="m 7.5143557,296.397 c -1.6425342,-0.0981 -2.9852125,-0.47294 -4.2733307,-1.19301 -0.7966797,-0.44535 -1.3239367,-0.95273 -1.6163667,-1.55544 -0.218965,-0.4513 -0.293969,-0.8591 -0.267684,-1.4554 0.02058,-0.46691 0.08221,-0.75023 0.22623,-1.04007 0.1698,-0.34172 0.475568,-0.77888 0.544783,-0.77888 0.0129,0 0.0055,0.0423 -0.01641,0.094 -0.10952,0.25824 -0.17092,1.01086 -0.11231,1.37666 0.135814,0.84765 0.6286675,1.50426 1.531476,2.04033 1.2671135,0.75239 2.5857285,1.11972 4.271846,1.19 0.4262275,0.0178 1.1398965,-0.0156 1.6667243,-0.0779 1.1444214,-0.13538 2.4678014,-0.57072 3.3710434,-1.10892 0.375064,-0.22349 0.922465,-0.68246 1.093709,-0.91703 l 0.07097,-0.0972 -0.417065,-0.82616 c -0.229386,-0.45438 -0.433296,-0.83238 -0.453134,-0.83999 -0.05308,-0.0204 -0.865061,0.38943 -2.207009,1.11386 -0.652127,0.35205 -1.2555315,0.66216 -1.3408983,0.68915 -0.1223449,0.0387 -0.2056327,0.0469 -0.3933159,0.039 -0.2321677,-0.01 -0.2412276,-0.008 -0.3634211,0.0694 -0.068925,0.0437 -0.1553141,0.0977 -0.1919763,0.11996 l -0.066659,0.0405 0.047431,0.18262 c 0.06572,0.25303 0.062895,0.33481 -0.013286,0.38472 -0.057714,0.0378 -0.076191,0.0361 -0.2944964,-0.0279 -1.7504378,-0.5132 -3.2296694,-1.32388 -4.3069868,-2.36041 -0.2957709,-0.28458 -0.3539055,-0.36474 -0.4004036,-0.55216 -0.022658,-0.0913 -0.034476,-0.10513 -0.08185,-0.0956 -0.030452,0.006 -0.1195653,0.0175 -0.1980291,0.0253 -0.2154361,0.0214 -0.2365054,-0.007 -0.4057267,-0.55268 -0.077472,-0.24968 -0.1408587,-0.47931 -0.1408587,-0.51029 0,-0.0877 0.1452946,-0.33902 0.279456,-0.48342 0.066858,-0.072 0.1215604,-0.13663 0.1215604,-0.1437 0,-0.007 -0.1068588,-0.44704 -0.2374641,-0.97772 l -0.237464,-0.96487 0.063417,-0.0564 c 0.034879,-0.031 0.077443,-0.0564 0.094586,-0.0564 0.017143,0 0.1833443,0.14944 0.3693367,0.33209 0.1859922,0.18265 0.4765759,0.43924 0.6457412,0.57019 0.287331,0.22244 0.7407283,0.52634 0.7852512,0.52634 0.044827,0 0.5629109,-0.52678 0.6755807,-0.68691 0.1171993,-0.16658 0.1217962,-0.17964 0.1217962,-0.34609 0,-0.21853 0.04256,-0.49679 0.1007589,-0.65879 0.024762,-0.0689 0.052595,-0.20991 0.061851,-0.31329 0.032142,-0.35902 0.1975246,-0.71005 0.4446447,-0.94377 0.194936,-0.18436 0.3217549,-0.24419 0.5206042,-0.2456 0.1520082,-0.001 0.1780698,0.008 0.3893525,0.13043 0.1245419,0.0724 0.2411076,0.13159 0.2590351,0.13159 0.032289,0 0.9224953,-0.4638 0.9654985,-0.50303 0.037731,-0.0344 -0.1810842,-0.27394 -0.250258,-0.27394 -0.094908,0 -0.1681289,-0.0894 -0.1507877,-0.18406 0.013228,-0.0722 -0.016004,-0.11777 -0.3360088,-0.52345 -0.2663118,-0.33761 -0.3504976,-0.46165 -0.3504976,-0.5164 0,-0.0599 0.039079,-0.10541 0.2318666,-0.26997 0.1275268,-0.10885 0.250619,-0.21258 0.2735386,-0.23052 0.035631,-0.0279 0.085471,-0.0106 0.3438176,0.11886 0.2717743,0.13624 0.3044549,0.14707 0.3251208,0.1078 0.063168,-0.12006 0.6051665,-1.33069 0.6051665,-1.35174 0,-0.0134 -0.027657,-0.0392 -0.06146,-0.0573 -0.124382,-0.0666 -0.1337581,-0.26244 -0.016967,-0.35444 0.05284,-0.0416 0.08824,-0.0491 0.1786808,-0.0376 l 0.1127859,0.0143 0.2255717,-0.50366 c 0.1240644,-0.27702 0.2410544,-0.50972 0.2599779,-0.51712 0.018923,-0.007 0.1039918,0.0209 0.1890411,0.0628 0.1362956,0.0672 0.1602786,0.0721 0.2022226,0.0415 0.09892,-0.0723 0.2073827,-0.0202 0.2345687,0.1127 0.01589,0.0777 0.04549,0.0973 0.517934,0.34386 0.276605,0.14434 0.525255,0.29096 0.555039,0.32729 0.04407,0.0538 0.06795,0.063 0.130349,0.0505 0.100466,-0.0201 0.216321,0.0222 0.265185,0.0967 0.05016,0.0766 0.05033,0.21013 3.64e-4,0.28147 -0.03661,0.0523 -0.03367,0.0623 0.05013,0.1721 0.04896,0.0641 0.08901,0.13662 0.08901,0.16112 0,0.0245 -0.207409,0.51053 -0.460909,1.08006 l -0.460909,1.03552 0.05989,0.0712 c 0.03294,0.0392 0.05989,0.0991 0.05989,0.13311 0,0.09 -0.116697,0.18946 -0.211131,0.17994 -0.07378,-0.007 -0.07867,-7.8e-4 -0.206128,0.28061 -0.100261,0.22136 -0.123699,0.29511 -0.101016,0.31785 0.01624,0.0163 0.452483,0.27445 0.969418,0.57369 0.965597,0.55895 1.169037,0.693 1.287558,0.84839 0.136264,0.17866 0.149124,0.24035 0.160958,0.77222 0.01453,0.65319 0.0064,0.7036 -0.12806,0.78966 -0.05768,0.0369 -0.10881,0.0697 -0.113619,0.0728 -0.0048,0.003 0.04384,0.0793 0.108117,0.16938 0.08455,0.11849 0.159728,0.18955 0.271912,0.25703 0.420783,0.2531 0.796533,0.60664 1.089155,1.02478 0.08643,0.1235 0.23129,0.30913 0.321921,0.41252 0.422836,0.48235 0.749639,1.13714 0.862836,1.72881 0.04989,0.26076 0.05221,0.30998 0.02574,0.54523 -0.04096,0.36404 -0.108755,0.60667 -0.250947,0.89816 -0.345824,0.70894 -1.039992,1.3506 -2.097558,1.93891 -0.709843,0.39488 -1.708362,0.73555 -2.753595,0.93946 -0.7145282,0.1394 -1.974692,0.21872 -2.7444555,0.17274 z m -0.1127858,-6.3206 c 0,-0.0226 -0.1611234,-0.0888 -0.4636752,-0.19054 -0.6802674,-0.22875 -1.0017015,-0.36092 -1.6165972,-0.66473 -0.7663323,-0.37862 -1.4336516,-0.81647 -1.9674866,-1.29094 -0.1417249,-0.12597 -0.1900643,-0.15678 -0.1964619,-0.12526 -0.01685,0.083 0.051728,0.18196 0.2289592,0.33027 1.0372184,0.86798 2.1003298,1.43205 3.5139912,1.8645 0.4069266,0.12449 0.5012705,0.13892 0.5012705,0.0767 z m 1.7903313,-3.14371 c 0.034158,-0.34972 0.029407,-0.43158 -0.022001,-0.37901 -0.024575,0.0251 -0.098897,0.73206 -0.07905,0.75191 0.044148,0.0442 0.069427,-0.0491 0.101051,-0.3729 z m -0.3794128,0.28121 c 0.016806,-0.13947 -0.1867799,-0.22941 -0.2817474,-0.12447 -0.063104,0.0697 -0.040132,0.10503 0.1004807,0.1544 0.1496746,0.0525 0.1717678,0.0489 0.1812667,-0.0299 z m 0.8573303,-0.51151 c 0,-0.0207 -0.016252,-0.0376 -0.036116,-0.0376 -0.041872,0 -0.070138,0.0358 -0.046748,0.0592 0.029955,0.03 0.082864,0.0162 0.082864,-0.0216 z m -0.9592953,-0.27908 c -0.019916,-0.0395 -0.043648,-0.10282 -0.052737,-0.14073 -0.00909,-0.0379 -0.02759,-0.0689 -0.041113,-0.0689 -0.032119,0 -0.030958,0.0148 0.012348,0.15754 0.046793,0.15421 0.062488,0.17915 0.093346,0.14829 0.015781,-0.0158 0.011608,-0.0497 -0.011844,-0.0962 z m 1.6109466,0.0144 c 0,-0.013 -0.01692,-0.0236 -0.03759,-0.0236 -0.03876,0 -0.04979,0.0296 -0.02157,0.0578 0.02002,0.02 0.05916,-0.003 0.05916,-0.0342 z m -0.6385483,-0.14264 c 0.0089,-0.0655 0.021324,-0.13784 0.027619,-0.1608 0.012056,-0.044 -0.028411,-0.0862 -0.049667,-0.0518 -0.00682,0.0111 -0.02034,0.0902 -0.030033,0.17586 -0.021166,0.18708 0.027035,0.22107 0.052081,0.0367 z m -0.3182674,-0.014 c 0.00475,-0.0249 0.00135,-0.0643 -0.00756,-0.0876 -0.014085,-0.0367 -0.022492,-0.0341 -0.064221,0.0203 -0.026408,0.0344 -0.048265,0.0774 -0.048572,0.0956 -8.522e-4,0.0506 0.1102993,0.0245 0.120358,-0.0283 z m 0.8154987,-0.30557 c 0.01807,-0.0471 -0.0073,-0.0468 -0.07025,8e-4 -0.04779,0.0361 -0.04773,0.0368 0.0036,0.0368 0.02873,0 0.05873,-0.0169 0.06666,-0.0376 z m 0.950366,-1.4183 c -0.07697,-0.0286 -0.100607,-0.13642 -0.0437,-0.19931 0.114156,-0.12614 0.312235,0.0236 0.20586,0.15563 -0.04329,0.0537 -0.09654,0.0681 -0.162163,0.0437 z m -0.07719,-0.30356 c -0.07168,-0.0717 -0.0057,-0.1811 0.100128,-0.16609 0.105944,0.015 0.08008,0.19616 -0.02801,0.19616 -0.02313,0 -0.05558,-0.0135 -0.07212,-0.0301 z m -4.0653032,-1.32336 c -0.02757,-0.0276 -0.050127,-0.0727 -0.050127,-0.10025 0,-0.068 0.087098,-0.15038 0.1590283,-0.15038 0.1307657,0 0.192325,0.18729 0.08603,0.26174 -0.074972,0.0525 -0.1347135,0.0491 -0.1949313,-0.0111 z m 1.5886273,-0.83816 c -0.037603,-0.098 0.054127,-0.19964 0.1344899,-0.14903 0.094649,0.0596 0.053795,0.18516 -0.060249,0.18516 -0.033207,0 -0.066616,-0.0163 -0.074241,-0.0361 z m -0.082813,-0.32488 c -0.053196,-0.0641 -0.022807,-0.12773 0.060999,-0.12773 0.066454,0 0.074847,0.008 0.074847,0.0752 0,0.0571 -0.012557,0.077 -0.05232,0.0827 -0.028776,0.004 -0.066363,-0.009 -0.083526,-0.0301 z m 3.2823179,-0.45235 c -0.06658,-0.0802 0.03121,-0.20346 0.118052,-0.14877 0.08678,0.0546 0.05586,0.18516 -0.04386,0.18516 -0.02419,0 -0.05758,-0.0164 -0.07419,-0.0364 z m -0.443808,-0.12941 c -0.03846,-0.0587 -0.0391,-0.0724 -0.0061,-0.13158 0.04673,-0.0837 0.191013,-0.10651 0.24099,-0.0382 0.07532,0.10301 0.0047,0.23529 -0.125607,0.23529 -0.04392,0 -0.0809,-0.0222 -0.109321,-0.0655 z"
       style="fill:#d5d7d8;stroke-width:0.02506352" />
    <path
       inkscape:connector-curvature="0"
       id="path838"
       d="m 7.4141016,295.86053 c -1.4319121,-0.1018 -2.5719756,-0.44121 -3.7339739,-1.11166 -0.55891,-0.32248 -0.9112648,-0.61355 -1.1821106,-0.97651 -0.1857758,-0.24895 -0.3539788,-0.58806 -0.4237108,-0.85421 -0.05798,-0.2213 -0.09795,-0.79024 -0.04578,-0.65165 0.324727,0.86265 0.8365856,1.36251 1.998833,1.95198 1.5320219,0.77701 3.4053581,1.06336 5.4168868,0.82801 1.2355739,-0.14456 2.6767839,-0.63736 3.5676489,-1.2199 0.824204,-0.53895 1.38595,-1.17988 1.595875,-1.82084 0.04643,-0.14177 0.09307,-0.2447 0.106976,-0.2361 0.04293,0.0265 0.0034,0.67331 -0.05488,0.89786 -0.284604,1.09663 -1.608378,2.16184 -3.436109,2.76496 -0.404146,0.13336 -1.4058152,0.34555 -1.7920416,0.37962 -0.8445382,0.0745 -1.447332,0.089 -2.0176137,0.0484 z m 0.6516517,-2.16217 c -1.6173189,-0.5191 -2.8536895,-1.19432 -3.8757273,-2.11664 -0.3753947,-0.33877 -0.4887086,-0.47679 -0.5356862,-0.65249 l -0.037828,-0.14148 -0.2253386,0.007 c -0.123936,0.004 -0.238895,-0.002 -0.2554643,-0.0133 -0.016569,-0.0113 -0.1003917,-0.24306 -0.186272,-0.51496 l -0.1561461,-0.49437 0.073486,-0.15438 c 0.040417,-0.0849 0.1326987,-0.21711 0.2050696,-0.29378 0.079664,-0.0844 0.1315835,-0.16199 0.1315835,-0.19666 0,-0.0315 -0.1032989,-0.47035 -0.2295531,-0.97525 -0.1690444,-0.67601 -0.222874,-0.92865 -0.2042144,-0.95843 0.059514,-0.095 0.1207451,-0.0602 0.4237742,0.24042 0.353432,0.35068 0.7382879,0.66501 1.1467577,0.9366 0.2614604,0.17384 0.3035904,0.19412 0.3508893,0.16884 0.099569,-0.0532 0.5829711,-0.55781 0.6885083,-0.71871 0.1015629,-0.15484 0.1046187,-0.16558 0.1046187,-0.36748 0,-0.23296 0.046775,-0.50447 0.1239195,-0.7193 0.028339,-0.0789 0.051525,-0.19248 0.051525,-0.25235 0,-0.25501 0.179035,-0.64283 0.3996339,-0.86568 0.1798491,-0.18168 0.3448578,-0.26493 0.5278177,-0.26632 0.1212706,-9.1e-4 0.1659466,0.0149 0.3694895,0.13055 0.1273465,0.0724 0.2477311,0.13158 0.2675218,0.13158 0.036154,0 0.9603382,-0.48545 1.0014622,-0.52604 0.012519,-0.0124 -0.019839,-0.0737 -0.075191,-0.14258 -0.1168311,-0.14534 -0.1323201,-0.1576 -0.1998034,-0.15809 -0.080467,-5.9e-4 -0.1429317,-0.0843 -0.1252615,-0.16788 0.013128,-0.0621 -0.027041,-0.12416 -0.3329117,-0.51444 -0.3661961,-0.46724 -0.3905526,-0.50505 -0.3602423,-0.55922 0.017738,-0.0317 0.4471661,-0.41334 0.506016,-0.44972 0.014861,-0.009 0.1619028,0.0518 0.3267592,0.13563 l 0.2997386,0.15233 0.03607,-0.0567 c 0.041983,-0.066 0.6171586,-1.33178 0.6171586,-1.35816 0,-0.01 -0.040911,-0.0563 -0.090914,-0.10349 -0.079278,-0.0748 -0.088892,-0.0962 -0.075115,-0.1675 0.023632,-0.12228 0.100628,-0.17372 0.2463536,-0.16457 l 0.1215353,0.008 0.2222683,-0.4883 c 0.1222476,-0.26857 0.2380795,-0.49828 0.2574042,-0.51047 0.023419,-0.0148 0.084889,0.003 0.1843384,0.053 0.1370788,0.069 0.1537538,0.0721 0.2052238,0.0377 0.08069,-0.0539 0.1775887,-0.023 0.1963247,0.0626 0.0083,0.0377 0.01892,0.0815 0.0237,0.0974 0.0048,0.0159 0.24011,0.14948 0.522961,0.29695 0.320989,0.16735 0.529426,0.29125 0.55459,0.32966 0.03578,0.0546 0.05234,0.0597 0.147159,0.0455 0.09221,-0.0138 0.117752,-0.007 0.186534,0.051 0.06302,0.053 0.07969,0.0864 0.07969,0.15951 0,0.0508 -0.0175,0.11743 -0.03889,0.14796 -0.03661,0.0523 -0.03367,0.0623 0.05013,0.1721 0.04896,0.0641 0.08851,0.14033 0.0879,0.16936 -6.12e-4,0.029 -0.207938,0.51516 -0.460727,1.08028 l -0.459616,1.02749 0.05971,0.071 c 0.03284,0.039 0.05971,0.0963 0.05971,0.12732 0,0.0823 -0.107874,0.17454 -0.186537,0.1595 -0.03508,-0.007 -0.07473,0.001 -0.08812,0.0171 -0.01338,0.0161 -0.08005,0.15436 -0.14814,0.30718 -0.09358,0.21003 -0.116741,0.28492 -0.09487,0.30682 0.01591,0.0159 0.461492,0.27933 0.990182,0.58533 0.528689,0.30601 1.030586,0.61357 1.115326,0.68346 0.09494,0.0783 0.182776,0.17932 0.228853,0.26317 l 0.07478,0.13608 0.0093,0.57953 c 0.0064,0.40151 5.18e-4,0.59588 -0.01923,0.63277 -0.01567,0.0293 -0.07323,0.0761 -0.127913,0.10397 -0.05468,0.0279 -0.09916,0.0589 -0.09886,0.069 3.06e-4,0.0101 0.02343,0.0465 0.05138,0.0809 0.119617,0.14748 0.178385,0.26366 0.199739,0.39486 0.03214,0.19751 0.03441,1.89488 0.0026,1.9543 -0.04728,0.0883 -3.5046065,1.92757 -3.8446295,2.04527 -0.028412,0.01 -0.043861,0.0412 -0.043861,0.089 0,0.0787 -0.098477,0.16493 -0.3571552,0.31289 -0.069651,0.0398 -0.1188735,0.0859 -0.1186221,0.1109 2.256e-4,0.0235 0.0226,0.1274 0.049697,0.23078 0.027097,0.10339 0.049461,0.19563 0.049698,0.20499 8.346e-4,0.033 -0.078867,0.0958 -0.1204124,0.0948 -0.023139,-5.2e-4 -0.2281676,-0.0607 -0.455619,-0.13367 z m 0.1373952,-0.26568 c 0.018106,-0.0293 -0.098238,-0.0625 -0.1363797,-0.0389 -0.014793,0.009 -0.020408,0.0271 -0.012477,0.04 0.019023,0.0308 0.1296754,0.03 0.1488565,-0.001 z m -1.0404267,-0.40801 c -4.111e-4,-0.031 -0.016992,-0.21994 -0.036851,-0.41982 -0.052853,-0.53199 -0.06033,-0.48932 0.1191986,-0.68013 l 0.1565002,-0.16632 0.1745188,0.0219 c 0.1120011,0.014 0.1834404,0.013 0.1994232,-0.003 0.016497,-0.0165 -0.040307,-0.29263 -0.1682585,-0.81793 -0.1425663,-0.5853 -0.186054,-0.80159 -0.166024,-0.82572 0.067229,-0.081 0.012417,-0.11295 -0.4657394,-0.27141 -1.4503642,-0.48066 -2.6084,-1.10752 -3.5633814,-1.92891 -0.154033,-0.13249 -0.2865563,-0.24089 -0.2944964,-0.24089 -0.032244,0 -0.01044,0.12276 0.059903,0.33725 0.040887,0.12468 0.223379,0.83573 0.4055379,1.58011 l 0.331198,1.35343 0.2723455,0.26887 c 0.7004841,0.69154 1.6193971,1.29734 2.6385118,1.73945 0.2895127,0.1256 0.3386716,0.13334 0.3376129,0.0532 z m -1.8365663,-1.27435 c -0.1711257,-0.10267 -0.1996239,-0.15229 -0.1172549,-0.20415 0.027677,-0.0174 0.081059,0.002 0.1967193,0.0707 0.1715308,0.10218 0.2015145,0.14102 0.1535161,0.19885 -0.041707,0.0503 -0.039078,0.051 -0.2329805,-0.0653 z m 1.361104,-0.0691 c -0.5578915,-0.2411 -0.6089662,-0.2756 -0.5188393,-0.3504 0.023981,-0.0199 0.068548,-0.0103 0.1691788,0.0363 0.075141,0.0348 0.2719636,0.12066 0.4373828,0.19071 0.1654193,0.0701 0.3152748,0.14056 0.3330125,0.15668 0.040918,0.0372 0.013141,0.11346 -0.041198,0.11315 -0.022649,-1.3e-4 -0.1934406,-0.066 -0.3795372,-0.14646 z m -2.1550831,-0.45556 c -0.1169632,-0.0827 -0.2341356,-0.17176 -0.2603837,-0.19801 -0.054944,-0.0549 -0.039102,-0.12772 0.02738,-0.12578 0.074279,0.002 0.5459181,0.36036 0.5459181,0.41461 0,0.0897 -0.097661,0.0613 -0.3129141,-0.0908 z m 1.121024,-0.0415 c -0.1603677,-0.083 -0.2191171,-0.12638 -0.2191171,-0.16172 0,-0.092 0.079179,-0.084 0.2931492,0.0296 0.2058929,0.10935 0.2472682,0.16075 0.1766031,0.21939 -0.022903,0.019 -0.09141,-0.005 -0.2506352,-0.0873 z m 0.8586144,-0.12926 c -0.3845068,-0.16696 -0.9712792,-0.45743 -1.2607955,-0.62415 -0.1580811,-0.091 -0.1941342,-0.12282 -0.1879764,-0.16579 0.012476,-0.0871 0.073235,-0.0748 0.3095598,0.0622 0.2692068,0.15612 1.0354494,0.52896 1.3597278,0.66162 0.1981191,0.0811 0.2319268,0.10318 0.2255717,0.14766 -0.012421,0.0869 -0.09127,0.0725 -0.4460874,-0.0815 z m -1.5918212,-0.29841 c -0.6173399,-0.39411 -0.8823724,-0.60008 -0.8570592,-0.66604 0.027574,-0.0719 0.090574,-0.0478 0.3245719,0.12395 0.1244093,0.0913 0.3628499,0.25352 0.5298679,0.36045 0.2471577,0.15825 0.3036692,0.20542 0.3036692,0.25345 0,0.0328 -0.016714,0.062 -0.037595,0.0657 -0.020677,0.004 -0.1392319,-0.0582 -0.2634548,-0.13751 z m 1.604353,-0.22982 c -0.2713282,-0.11782 -0.3307741,-0.17008 -0.2665493,-0.2343 0.031951,-0.0319 0.6022759,0.19619 0.6225541,0.24904 0.01279,0.0333 -0.0337,0.11017 -0.064577,0.10674 -0.00865,-9.6e-4 -0.1397933,-0.0556 -0.2914278,-0.12148 z m -2.289321,-0.73964 c -0.3477046,-0.24973 -0.3589648,-0.26065 -0.3281289,-0.31827 0.013826,-0.0258 0.03884,-0.0464 0.055586,-0.0458 0.016746,6.6e-4 0.1657907,0.10034 0.33121,0.22152 0.2026055,0.14841 0.3007623,0.23595 0.3007623,0.26823 0,0.0958 -0.099475,0.061 -0.3594297,-0.1257 z m 0.8732319,0.0435 c -0.360053,-0.21211 -0.8191135,-0.50676 -0.8528563,-0.54741 -0.037993,-0.0458 -0.013861,-0.11195 0.040827,-0.11195 0.022937,0 0.1727323,0.0838 0.3328784,0.18614 0.1601462,0.10237 0.4152392,0.2582 0.5668735,0.34628 0.2006345,0.11654 0.2756988,0.17334 0.2756988,0.20861 0,0.0908 -0.1141626,0.0652 -0.3634211,-0.0817 z m -1.2220726,-0.80415 c -0.090281,-0.0754 -0.09979,-0.10937 -0.043694,-0.15592 0.030792,-0.0256 0.053308,-0.0191 0.1253176,0.0358 0.092738,0.0707 0.1143539,0.1491 0.048136,0.17451 -0.049426,0.019 -0.034469,0.0252 -0.1297594,-0.0544 z m 5.2929923,-1.72652 c 0.022941,-0.0598 0.088856,-0.74133 0.074019,-0.76533 -0.017687,-0.0286 -0.1037875,-0.0249 -0.1224483,0.005 -0.023232,0.0376 -0.091118,0.75054 -0.074089,0.77809 0.023953,0.0388 0.1053179,0.0268 0.1225182,-0.0181 z m -0.3364547,-0.0883 c 0,-0.11423 -0.084791,-0.19585 -0.2034559,-0.19585 -0.094973,0 -0.172497,0.065 -0.172497,0.14465 0,0.0445 0.1926052,0.12981 0.2944964,0.1305 0.074968,5e-4 0.081456,-0.006 0.081456,-0.0793 z m 1.1626385,-0.17706 c 0.03793,-0.0602 -0.0096,-0.13158 -0.08764,-0.13158 -0.04747,0 -0.061647,0.0151 -0.0682,0.0725 -0.012887,0.11289 0.095969,0.15418 0.1558387,0.0591 z m -0.350124,-0.2596 c 0.051962,-0.0199 0.051144,-0.12539 -0.00113,-0.14545 -0.080488,-0.0309 -0.141246,0.0689 -0.079533,0.13059 0.035148,0.0351 0.030183,0.0342 0.08066,0.0149 z m -0.8969658,-0.24744 c 0.00783,-0.0204 -0.00809,-0.0852 -0.035362,-0.14411 -0.027275,-0.0589 -0.056235,-0.12677 -0.064357,-0.1509 -0.01623,-0.0482 -0.091529,-0.0609 -0.091529,-0.0154 0,0.0156 0.010766,0.0692 0.023924,0.11905 0.013158,0.0498 0.030291,0.12165 0.038073,0.15956 0.015596,0.076 0.103962,0.0977 0.129251,0.0318 z m 1.5882628,-0.0765 c 0,-0.0211 -0.01768,-0.0452 -0.03928,-0.0534 -0.04714,-0.0181 -0.09854,0.0263 -0.07486,0.0646 0.02553,0.0413 0.114136,0.0327 0.114136,-0.0111 z m -0.6498291,0.007 c 10e-4,-0.003 0.00752,-0.0993 0.014485,-0.21304 0.010776,-0.17597 0.00684,-0.20677 -0.026409,-0.20677 -0.021489,0 -0.043881,0.0254 -0.049761,0.0564 -0.00588,0.031 -0.023274,0.1176 -0.038654,0.19241 -0.022028,0.10714 -0.02119,0.14031 0.00395,0.15626 0.029973,0.019 0.092372,0.0286 0.096392,0.0147 z m -0.3428204,-0.10149 c 0.061975,-0.0453 0.046097,-0.17796 -0.022423,-0.18732 -0.03392,-0.005 -0.060256,0.0152 -0.081456,0.0614 -0.048288,0.10517 -0.036775,0.14492 0.045337,0.15652 0.0077,0.001 0.034048,-0.0127 0.058542,-0.0306 z m 0.8437085,-0.37114 c 0.03599,-0.0673 -0.0048,-0.11634 -0.05069,-0.061 -0.01765,0.0213 -0.05326,0.0387 -0.07914,0.0387 -0.02588,0 -0.04706,0.009 -0.04706,0.0209 0,0.0723 0.138339,0.0735 0.176885,0.001 z m -1.8686727,-0.24794 c 0.00852,-0.0138 -0.00773,-0.0251 -0.036116,-0.0251 -0.028383,0 -0.051606,0.0113 -0.051606,0.0251 0,0.0138 0.016252,0.0251 0.036116,0.0251 0.019864,0 0.043087,-0.0113 0.051606,-0.0251 z m 2.7712947,-1.24986 c -0.04925,-0.092 0.0331,-0.17722 0.133892,-0.13854 0.03,0.0115 0.04024,0.0393 0.03486,0.0946 -0.0062,0.0639 -0.01994,0.0797 -0.07485,0.086 -0.04671,0.005 -0.07538,-0.007 -0.0939,-0.042 z m -0.03414,-0.24454 c -0.05953,-0.0595 0.03345,-0.18053 0.104828,-0.13641 0.04987,0.0308 0.02358,0.13834 -0.0359,0.14685 -0.02814,0.004 -0.05915,-6.7e-4 -0.06892,-0.0104 z M 7.0044341,282.9095 c -0.052094,-0.0576 -0.052817,-0.11469 -0.0021,-0.16541 0.056528,-0.0565 0.1517917,-0.0486 0.1972968,0.0163 0.050211,0.0717 0.04923,0.0845 -0.011111,0.1448 -0.062437,0.0624 -0.1300451,0.064 -0.1840918,0.004 z m 1.5921465,-0.8385 c -0.039353,-0.0474 0.01965,-0.12688 0.084882,-0.11432 0.069893,0.0135 0.066684,0.13136 -0.00385,0.14144 -0.028776,0.004 -0.06524,-0.008 -0.081032,-0.0271 z m -0.076422,-0.32731 c -0.034711,-0.0418 0.00677,-0.10279 0.056863,-0.0836 0.022068,0.008 0.040125,0.0315 0.040125,0.0511 0,0.0485 -0.065513,0.0704 -0.096988,0.0325 z m 3.2647304,-0.45332 c -0.02496,-0.065 0.01002,-0.11878 0.07161,-0.11004 0.04142,0.006 0.05651,0.0247 0.05651,0.0707 0,0.0459 -0.01508,0.0648 -0.05651,0.0707 -0.03389,0.005 -0.06255,-0.008 -0.07161,-0.0313 z m -0.410755,-0.0895 c -0.09082,-0.0908 -0.04969,-0.20051 0.07519,-0.20051 0.127465,0 0.173209,0.13906 0.06961,0.21162 -0.07169,0.0502 -0.08446,0.0492 -0.144804,-0.0111 z"
       style="fill:#b8c5c8;stroke-width:0.02506352" />
    <path
       inkscape:connector-curvature="0"
       id="path836"
       d="m 7.7148639,293.36276 c -0.1613449,-0.0168 -0.3531077,-0.0662 -0.3792033,-0.0976 -0.018145,-0.0219 -0.035049,-0.21374 -0.045519,-0.5167 -0.018705,-0.54124 -0.01387,-0.56648 0.1423633,-0.74338 l 0.098099,-0.11107 0.3114363,-0.002 0.3114361,-0.002 -0.00239,-0.0752 c -0.00131,-0.0414 -0.011123,-0.12255 -0.021797,-0.18043 l -0.019407,-0.10525 0.1596466,-0.009 0.1596466,-0.009 -0.1535782,-0.005 c -0.087242,-0.003 -0.164412,-0.0184 -0.1786601,-0.0362 -0.013795,-0.0172 -0.1055166,-0.36405 -0.2038253,-0.7707 -0.098309,-0.40666 -0.1887639,-0.76277 -0.2010112,-0.79136 -0.017404,-0.0406 -0.1282212,-0.0864 -0.5072882,-0.20948 -0.746302,-0.24234 -1.6116074,-0.59526 -1.6628726,-0.67821 -0.00887,-0.0143 -0.024699,-0.0208 -0.035174,-0.0143 -0.036515,0.0226 -0.7792831,-0.3789 -0.779442,-0.42129 -5.01e-5,-0.012 0.099402,-0.1155 0.2209931,-0.22996 0.121591,-0.11446 0.2704174,-0.2738 0.3307255,-0.3541 0.060308,-0.0803 0.1372145,-0.17645 0.1709039,-0.21367 0.050832,-0.0562 0.062697,-0.0988 0.069738,-0.25064 0.021519,-0.46401 0.052179,-0.63786 0.143707,-0.81486 0.024228,-0.0469 0.032981,-0.10908 0.024371,-0.17327 -0.046465,-0.34642 0.3249809,-0.96983 0.6746012,-1.13221 0.1903936,-0.0884 0.3403722,-0.0757 0.5683302,0.0481 0.104563,0.0568 0.2134615,0.12454 0.2419966,0.15051 0.051323,0.0467 0.057541,0.0442 0.576461,-0.23121 0.2885185,-0.15314 0.5330062,-0.28625 0.5433058,-0.29581 0.027789,-0.0258 -0.2377882,-0.30325 -0.2902597,-0.30325 -0.097532,0 -0.1420142,-0.048 -0.1420142,-0.15329 0,-0.0922 -0.031817,-0.14226 -0.3508893,-0.55201 -0.1929891,-0.24783 -0.3508893,-0.47179 -0.3508893,-0.49769 0,-0.0462 0.4765573,-0.47626 0.5277972,-0.47626 0.01344,0 0.1495686,0.0627 0.3025092,0.13946 0.1529406,0.0767 0.2914336,0.13433 0.307762,0.12806 0.016329,-0.006 0.1745404,-0.33025 0.3515816,-0.71997 0.3062479,-0.67414 0.3195918,-0.71024 0.2745471,-0.7426 -0.1107547,-0.0796 -0.1350681,-0.11155 -0.1350681,-0.17762 0,-0.0384 0.018254,-0.0959 0.040565,-0.12778 0.035504,-0.0507 0.057668,-0.0568 0.177648,-0.0494 l 0.1370835,0.008 0.2220169,-0.48874 c 0.1221095,-0.2688 0.2389223,-0.49957 0.2595844,-0.5128 0.026685,-0.0171 0.081607,-0.003 0.1896011,0.0486 0.1174737,0.0562 0.1588087,0.0659 0.1818367,0.0429 0.04846,-0.0485 0.1650597,-0.036 0.1954987,0.0208 0.01491,0.0279 0.0213,0.06 0.01422,0.0715 -0.02811,0.0455 0.06758,0.10821 0.536903,0.35192 0.274766,0.14268 0.512688,0.283 0.543441,0.3205 0.04759,0.058 0.07107,0.066 0.180525,0.061 0.09794,-0.004 0.137055,0.005 0.176499,0.0449 0.07568,0.0757 0.09216,0.1743 0.04335,0.25935 -0.0551,0.096 -0.05339,0.1085 0.0295,0.21508 0.03906,0.0502 0.07816,0.11099 0.08687,0.13502 0.01009,0.0278 -0.144041,0.4011 -0.424317,1.02761 -0.242091,0.54115 -0.451437,1.01484 -0.465214,1.05264 -0.02128,0.0584 -0.01514,0.0805 0.04078,0.14697 0.04607,0.0548 0.06099,0.0943 0.0497,0.13177 -0.02446,0.0812 -0.05013,0.0989 -0.165943,0.11445 l -0.106314,0.0143 -0.143198,0.31329 c -0.153442,0.33571 -0.158771,0.35089 -0.123138,0.35089 0.038,0 1.880247,1.0728 2.050306,1.19395 0.204158,0.14545 0.321025,0.3006 0.362168,0.4808 0.03466,0.15179 0.04465,1.0162 0.01313,1.13617 -0.01119,0.0426 -0.05798,0.0902 -0.130387,0.13264 -0.06211,0.0364 -0.112927,0.0713 -0.112927,0.0776 0,0.006 0.05012,0.0795 0.111377,0.1627 0.07466,0.10142 0.118037,0.19027 0.131583,0.26951 0.03215,0.18806 0.02533,1.91411 -0.0078,1.97008 -0.03123,0.0528 -2.629387,1.46803 -2.696219,1.46865 -0.02332,2.2e-4 -0.147388,0.0644 -0.2756977,0.14265 -0.2139478,0.13047 -0.5971573,0.32396 -0.82855,0.41837 -0.083244,0.034 -0.093988,0.0483 -0.093988,0.12552 0,0.0702 -0.018244,0.10221 -0.093988,0.16465 -0.1069476,0.0882 -0.4325954,0.26114 -0.5451316,0.28957 -0.087978,0.0222 -0.5229262,0.0531 -0.6140564,0.0436 z M 10.4754,289.69227 c -0.06204,-0.0969 -0.07092,-0.0758 -0.01423,0.0339 0.02169,0.0419 0.04566,0.0701 0.05325,0.0625 0.0076,-0.008 -0.01,-0.0509 -0.03902,-0.0963 z m 2.101787,-0.95942 c 0,-0.0197 -0.204148,-0.14288 -0.216434,-0.13059 -0.0062,0.006 0.03721,0.0404 0.09636,0.076 0.118325,0.0713 0.120078,0.0721 0.120078,0.0546 z m -3.3830769,-1.3976 c 2.732e-4,-0.0172 0.016968,-0.18359 0.037097,-0.36969 0.046195,-0.42707 0.046321,-0.41965 -0.00762,-0.44851 -0.091929,-0.0492 -0.110564,0.003 -0.1535757,0.43328 l -0.041645,0.41625 h 0.082621 c 0.049122,0 0.082823,-0.0127 0.083119,-0.0313 z m -0.342258,-0.0627 c -0.00278,-0.0379 -0.00597,-0.0887 -0.00709,-0.11279 -0.00668,-0.14383 -0.2558081,-0.19923 -0.3511063,-0.0781 -0.02857,0.0363 -0.051946,0.0806 -0.051946,0.0985 0,0.0366 0.265051,0.14447 0.3893122,0.15843 0.01424,0.002 0.023615,-0.0281 0.020834,-0.066 z m 1.1663699,-0.23811 c 0.02566,-0.069 0.01092,-0.11277 -0.04877,-0.14472 -0.06262,-0.0335 -0.1217101,-0.005 -0.1397318,0.0664 -0.030905,0.12313 0.1447248,0.19615 0.1885055,0.0784 z M 8.5571028,286.7969 c -0.025478,-0.0255 -0.046499,0.0129 -0.025595,0.0467 0.015791,0.0256 0.021694,0.0256 0.030184,1e-4 0.0058,-0.0174 0.00374,-0.0385 -0.00459,-0.0468 z m 1.1359265,-0.0534 c 0.017604,-0.0329 0.015451,-0.0597 -0.00729,-0.0908 -0.045646,-0.0624 -0.1412345,-0.029 -0.1412345,0.0493 0,0.0904 0.1064498,0.12009 0.1485282,0.0415 z m -0.9430882,-0.2541 c -0.010087,-0.12492 -0.037563,-0.2159 -0.083512,-0.27651 -0.042511,-0.0561 -0.050564,-0.0582 -0.086287,-0.0228 -0.035823,0.0356 -0.035674,0.0515 0.00164,0.17545 0.022571,0.075 0.045352,0.15123 0.050623,0.16943 0.00528,0.0182 0.034963,0.0295 0.06609,0.0251 0.043142,-0.006 0.055309,-0.0229 0.051446,-0.0707 z m 1.5965929,-0.0483 c 0,-0.0549 -0.05278,-0.0813 -0.101866,-0.0509 -0.0213,0.0132 -0.04201,0.01 -0.05374,-0.009 -0.01255,-0.0197 -0.01921,-0.0135 -0.01946,0.0182 -6.24e-4,0.0783 0.07248,0.14283 0.128088,0.11307 0.02583,-0.0138 0.04697,-0.0461 0.04697,-0.0717 z m -0.6415078,0.002 c 0.00721,-0.0117 0.02093,-0.11506 0.030496,-0.22977 0.015993,-0.19177 0.013882,-0.20722 -0.026205,-0.19184 -0.023979,0.009 -0.052545,0.0167 -0.06348,0.0167 -0.035572,0 -0.088593,0.36075 -0.05986,0.40728 0.015805,0.0256 0.1028303,0.0238 0.1190479,-0.002 z m -0.3417777,-0.0749 c 0.017483,-0.0111 0.041704,-0.0548 0.053825,-0.097 0.019423,-0.0677 0.014769,-0.0802 -0.039233,-0.10476 -0.088418,-0.0403 -0.095289,-0.0373 -0.1428541,0.0625 -0.033133,0.0695 -0.036395,0.0985 -0.014105,0.12532 0.032185,0.0388 0.093775,0.0448 0.1423666,0.014 z m -1.4590828,-0.4276 c -0.1300065,-0.25923 -0.1931415,-0.35763 -0.1403239,-0.21871 0.047741,0.12557 0.2555063,0.52146 0.2674148,0.50955 0.00688,-0.007 -0.050315,-0.13776 -0.1270909,-0.29084 z m 0.8052968,0.19316 c -0.008,-0.02 -0.01394,-0.014 -0.015142,0.0152 -0.00109,0.0264 0.00484,0.0412 0.013164,0.0329 0.00833,-0.008 0.00922,-0.0299 0.00198,-0.048 z m -0.5951434,-0.037 c -0.044093,-0.11597 -0.2547772,-0.51235 -0.2662363,-0.50089 -0.012292,0.0123 0.2615645,0.56766 0.2799182,0.56766 0.00644,0 2.782e-4,-0.0301 -0.013682,-0.0668 z m 0.770066,-0.11494 c -0.00695,-0.0172 -0.012642,-0.003 -0.012642,0.0313 0,0.0345 0.00569,0.0486 0.012642,0.0313 0.00695,-0.0172 0.00695,-0.0454 0,-0.0627 z m 1.4173049,-0.0686 c 0.08232,-0.14988 0.145098,-0.194 0.145098,-0.10198 0,0.0268 -0.02396,0.0893 -0.05323,0.13892 -0.02928,0.0496 -0.04696,0.0965 -0.03928,0.10417 0.0077,0.008 0.04385,-0.045 0.08038,-0.11714 0.05916,-0.11675 0.0623,-0.13522 0.02869,-0.16883 -0.05234,-0.0523 -0.109296,-0.0233 -0.15909,0.0811 -0.05039,0.10566 -0.07632,0.11148 -0.09874,0.0222 l -0.01665,-0.0663 -0.03476,0.0663 c -0.02293,0.0438 -0.0553,0.0663 -0.09514,0.0663 -0.03321,0 -0.06687,0.0105 -0.07481,0.0233 -0.02156,0.0349 0.08796,0.10197 0.1664477,0.10197 0.05798,0 0.08142,-0.0233 0.15107,-0.15008 z m -1.4591963,-0.27964 c -0.01562,-0.11517 -0.03693,-0.21816 -0.047354,-0.22888 -0.010424,-0.0107 -0.00458,0.0682 0.012987,0.17544 0.017567,0.10722 0.032538,0.21655 0.033268,0.24297 7.318e-4,0.0264 0.00767,0.0417 0.015414,0.034 0.00775,-0.008 0.00131,-0.10831 -0.014315,-0.22348 z m -0.4926489,0.15402 h 0.073558 l -0.065797,-0.0518 c -0.07607,-0.0598 -0.1054703,-0.0501 -0.1228346,0.0408 -0.00886,0.0463 -0.00469,0.0572 0.014552,0.038 0.01483,-0.0148 0.060065,-0.027 0.1005216,-0.027 z m 0.6216957,-0.11574 c -0.012813,-0.0811 -0.0171,-0.15762 -0.00953,-0.17009 0.00757,-0.0125 2.907e-4,-0.0143 -0.016185,-0.004 -0.016476,0.0102 -0.024806,0.0373 -0.018511,0.0603 0.00629,0.023 0.018878,0.0964 0.027963,0.1631 0.00909,0.0667 0.021702,0.11616 0.028037,0.10983 0.00634,-0.006 0.00104,-0.0779 -0.011778,-0.15895 z m -0.3349031,-0.0235 c 0.030637,-0.0215 0.055704,-0.0652 0.055704,-0.0972 0,-0.1339 -0.1923211,-0.15851 -0.2371372,-0.0303 -0.021507,0.0615 -0.016784,0.0782 0.033645,0.11905 0.070971,0.0575 0.077335,0.0578 0.1477886,0.008 z m -0.1304822,-0.0254 c -0.072316,-0.0723 -0.02936,-0.16112 0.077936,-0.16112 0.078983,0 0.1105888,0.11848 0.044497,0.16681 -0.058923,0.0431 -0.074376,0.0424 -0.1224328,-0.006 z m -5.3461333,5.16068 c -0.016982,-0.007 -0.099722,-0.22715 -0.1838663,-0.48986 -0.1739744,-0.54316 -0.1745584,-0.5606 -0.026355,-0.78745 0.1134297,-0.17362 0.2130969,-0.2712 0.2590056,-0.25358 0.032411,0.0124 0.3705768,1.328 0.3705768,1.44165 0,0.0368 -0.018557,0.0587 -0.056393,0.0663 -0.1030314,0.0209 -0.3316331,0.0353 -0.3629678,0.0229 z m 7.9675541,-6.27117 c -0.01844,-0.0117 -0.02972,-0.0482 -0.02506,-0.0811 0.0068,-0.0479 0.02347,-0.0598 0.08365,-0.0598 0.06018,0 0.07688,0.0119 0.08365,0.0598 0.008,0.0568 -0.02913,0.10232 -0.08365,0.10232 -0.01378,0 -0.04015,-0.01 -0.05859,-0.0213 z m -0.04994,-0.33313 c 0.01069,-0.0755 0.108526,-0.0829 0.108526,-0.008 0,0.0334 -0.01947,0.0529 -0.0584,0.0584 -0.04859,0.007 -0.05701,-0.002 -0.05013,-0.0501 z m -4.0602919,-1.27021 c -0.018853,-0.0123 -0.029742,-0.0532 -0.025064,-0.0942 0.00731,-0.0641 0.018155,-0.0725 0.093264,-0.0725 0.1017847,0 0.1558114,0.063 0.1128613,0.13158 -0.030719,0.0491 -0.1301168,0.0683 -0.1810614,0.0351 z m 1.583061,-0.84534 c -0.00834,-0.0217 0.00329,-0.058 0.02585,-0.0806 0.037988,-0.038 0.044108,-0.0379 0.082731,6.8e-4 0.034454,0.0345 0.0361,0.0485 0.00946,0.0806 -0.041563,0.0501 -0.09869,0.0498 -0.1180437,-6.8e-4 z m -0.079175,-0.35294 c 0.00489,-0.0254 0.025649,-0.0461 0.046137,-0.0461 0.053724,0 0.045964,0.0728 -0.00889,0.0834 -0.033495,0.006 -0.043703,-0.004 -0.037252,-0.0373 z M 11.7862,281.27383 c -0.0093,-0.0151 0.0013,-0.0457 0.02358,-0.068 0.03737,-0.0374 0.04375,-0.0374 0.08112,0 0.04737,0.0474 0.02693,0.0955 -0.04056,0.0955 -0.02594,0 -0.05481,-0.0124 -0.06414,-0.0275 z m -0.407049,-0.0778 c -0.04155,-0.0415 -0.03769,-0.13292 0.0072,-0.17016 0.05118,-0.0425 0.156243,-0.0117 0.176359,0.0517 0.03165,0.0997 -0.110523,0.19148 -0.183552,0.11845 z"
       style="fill:#54cafd;stroke-width:0.02506352" />
    <path
       inkscape:connector-curvature="0"
       id="path834"
       d="m 7.7148639,293.36276 c -0.1613449,-0.0168 -0.3531077,-0.0662 -0.3792033,-0.0976 -0.018145,-0.0219 -0.035049,-0.21374 -0.045519,-0.5167 -0.018705,-0.54124 -0.01387,-0.56648 0.1423633,-0.74338 l 0.098099,-0.11107 0.3114363,-0.002 0.3114361,-0.002 -0.00239,-0.0752 c -0.00131,-0.0414 -0.011123,-0.12255 -0.021797,-0.18043 l -0.019407,-0.10525 0.1596466,-0.009 0.1596466,-0.009 -0.1536464,-0.005 -0.1536454,-0.005 -0.1940373,-0.79577 c -0.1067205,-0.43767 -0.2036248,-0.81418 -0.215343,-0.83668 -0.013248,-0.0254 -0.2040371,-0.0997 -0.5044761,-0.19628 -0.2657435,-0.0854 -0.6918242,-0.23745 -0.9468455,-0.33777 -0.2550214,-0.10032 -0.51636,-0.20151 -0.5807527,-0.22485 -0.064393,-0.0234 -0.1305225,-0.0587 -0.1469552,-0.0785 -0.016433,-0.0198 -0.037949,-0.031 -0.047815,-0.0249 -0.035658,0.022 -0.7781786,-0.38051 -0.778334,-0.42197 -5.01e-5,-0.012 0.099402,-0.1155 0.2209931,-0.22996 0.121591,-0.11446 0.2706981,-0.2738 0.3313493,-0.3541 0.060651,-0.0803 0.1416247,-0.18304 0.1799416,-0.22832 0.06033,-0.0713 0.069667,-0.10381 0.069667,-0.24256 0,-0.23425 0.046137,-0.52875 0.1127583,-0.71974 0.039397,-0.11295 0.054148,-0.19905 0.045344,-0.26469 -0.046077,-0.34354 0.3269833,-0.96771 0.674987,-1.12934 0.1945647,-0.0904 0.3386591,-0.0763 0.5831089,0.057 0.1131358,0.0617 0.2201991,0.1296 0.2379183,0.15095 0.019423,0.0234 0.05152,0.0327 0.080826,0.0234 0.072601,-0.023 0.9794961,-0.51046 1.0158803,-0.54599 0.025053,-0.0245 0.00462,-0.0597 -0.1007075,-0.17382 -0.072676,-0.0787 -0.1524131,-0.14312 -0.1771934,-0.14312 -0.097532,0 -0.1420142,-0.048 -0.1420142,-0.15329 0,-0.0922 -0.031817,-0.14226 -0.3508893,-0.55201 -0.1929891,-0.24783 -0.3508893,-0.47179 -0.3508893,-0.49769 0,-0.0462 0.4765573,-0.47626 0.5277972,-0.47626 0.01344,0 0.1495686,0.0627 0.3025092,0.13946 0.1529406,0.0767 0.2914336,0.13433 0.307762,0.12806 0.016329,-0.006 0.1745404,-0.33025 0.3515816,-0.71997 0.3062479,-0.67414 0.3195918,-0.71024 0.2745471,-0.7426 -0.1107547,-0.0796 -0.1350681,-0.11155 -0.1350681,-0.17762 0,-0.0384 0.018254,-0.0959 0.040565,-0.12778 0.035504,-0.0507 0.057668,-0.0568 0.177648,-0.0494 l 0.1370835,0.008 0.2220169,-0.48874 c 0.1221095,-0.2688 0.2389223,-0.49957 0.2595844,-0.5128 0.026685,-0.0171 0.081607,-0.003 0.1896011,0.0486 0.1174734,0.0562 0.1588084,0.0659 0.1818364,0.0429 0.04846,-0.0485 0.1650597,-0.036 0.1954987,0.0208 0.01491,0.0279 0.0213,0.06 0.01422,0.0715 -0.02811,0.0455 0.06758,0.10821 0.536903,0.35192 0.274766,0.14268 0.512688,0.283 0.543441,0.3205 0.04759,0.058 0.07107,0.066 0.180525,0.061 0.09794,-0.004 0.137055,0.005 0.176499,0.0449 0.07568,0.0757 0.09216,0.1743 0.04335,0.25935 -0.0551,0.096 -0.05339,0.1085 0.0295,0.21508 0.03906,0.0502 0.07816,0.11099 0.08687,0.13502 0.01009,0.0278 -0.144041,0.4011 -0.424317,1.02761 -0.242091,0.54115 -0.451437,1.01484 -0.465214,1.05264 -0.02128,0.0584 -0.01514,0.0805 0.04078,0.14697 0.04607,0.0548 0.06099,0.0943 0.0497,0.13177 -0.02446,0.0812 -0.05013,0.0989 -0.165907,0.11445 l -0.106278,0.0143 -0.145693,0.3229 c -0.08013,0.1776 -0.141692,0.3269 -0.136803,0.33179 0.0049,0.005 0.431033,0.25287 0.946985,0.55108 1.227632,0.70953 1.317838,0.77475 1.434901,1.03742 0.04222,0.0947 0.05214,0.18345 0.06199,0.55443 0.0064,0.24291 0.0037,0.5062 -0.0062,0.5851 -0.01566,0.12535 -0.02749,0.14868 -0.09376,0.18494 -0.04171,0.0228 -0.09923,0.0596 -0.127817,0.0818 -0.05182,0.0402 -0.0517,0.0406 0.03722,0.15038 0.191436,0.23625 0.182261,0.17559 0.191206,1.2643 0.0075,0.91715 0.0052,0.98212 -0.03759,1.03196 -0.04514,0.0526 -2.506966,1.39514 -2.652449,1.44649 -0.04147,0.0146 -0.1845247,0.0918 -0.3179047,0.17153 -0.2226125,0.13303 -0.5711739,0.30786 -0.8034817,0.40301 -0.083215,0.0341 -0.093988,0.0485 -0.093988,0.12568 0,0.0702 -0.018244,0.10221 -0.093988,0.16465 -0.1069476,0.0882 -0.4325954,0.26114 -0.5451316,0.28957 -0.087978,0.0222 -0.5229262,0.0531 -0.6140564,0.0436 z m 2.1564134,-3.2392 c 0.3306477,-0.1792 0.6123197,-0.32582 0.6259387,-0.32582 0.03577,0 0.03038,-0.0287 -0.01926,-0.10272 -0.02584,-0.0385 -0.05906,-0.0599 -0.08129,-0.0523 -0.02068,0.007 -0.238016,0.12366 -0.4829747,0.25913 -0.5053285,0.27947 -0.6134189,0.3171 -0.78605,0.27363 -0.067915,-0.0171 -0.7258727,-0.37887 -1.5852678,-0.87165 -0.808041,-0.46333 -1.488963,-0.84759 -1.5131601,-0.85392 -0.050636,-0.0132 -0.1189181,0.035 -0.1189181,0.084 0,0.0183 0.047934,0.0556 0.1065199,0.0828 0.058586,0.0272 0.800153,0.44974 1.6479267,0.93896 0.8477737,0.48922 1.5557969,0.89043 1.5733852,0.89158 0.017588,10e-4 0.3025082,-0.14453 0.6331552,-0.32374 z m -1.893887,-1.44448 c -0.036177,-0.0533 -0.072027,-0.12817 -0.079666,-0.16637 -0.017015,-0.0851 -0.057542,-0.11607 -0.057542,-0.044 0,0.0759 0.062273,0.21333 0.1252094,0.27626 0.080606,0.0806 0.087124,0.0448 0.011999,-0.0659 z m 4.5714847,-0.008 c -0.03171,-0.091 -0.08047,-0.13363 -0.139663,-0.12223 -0.07369,0.0142 -0.05166,0.0672 0.05519,0.13283 0.05514,0.0339 0.102487,0.0619 0.105216,0.0624 0.0027,4.3e-4 -0.0066,-0.0324 -0.02074,-0.073 z M 10.856891,287.83 c 0.879946,-0.47558 1.616066,-0.86469 1.635822,-0.86469 0.01976,0 0.04272,-0.0177 0.05103,-0.0394 0.02274,-0.0593 -0.147656,-0.22045 -0.392632,-0.37142 -0.357422,-0.22027 -1.805802,-1.05009 -1.815094,-1.03991 -0.0048,0.005 -0.05488,0.10181 -0.111298,0.21459 -0.08764,0.17518 -0.112709,0.20622 -0.172092,0.21304 -0.05379,0.006 -0.06756,0.0193 -0.06086,0.0581 0.01115,0.0646 0.0098,0.0636 0.1121467,0.0867 l 0.08717,0.0197 0.09652,-0.17166 c 0.05309,-0.0944 0.110623,-0.17191 0.127854,-0.17223 0.0366,-6.8e-4 0.04231,0.10371 0.0076,0.13852 -0.01306,0.0131 -0.04018,0.0633 -0.06026,0.11154 l -0.0365,0.0877 0.08702,0.005 c 0.104734,0.006 0.158815,0.0455 0.158832,0.11752 7e-6,0.0293 0.02256,0.11266 0.05013,0.18518 0.165744,0.43607 -0.09609,0.7765 -0.7769816,1.0102 -0.1278691,0.0439 -0.2385383,0.0584 -0.5144819,0.0677 -0.4256569,0.0143 -0.6487846,-0.0247 -0.9479556,-0.16541 C 8.138273,287.2057 8.0375682,287.12463 7.946245,286.96928 7.88814,286.87048 7.877812,286.8245 7.877812,286.6649 c 0,-0.21069 0.066614,-0.39103 0.1423225,-0.3853 0.033557,0.003 0.037734,-0.008 0.020643,-0.0532 -0.053866,-0.14167 -0.2800154,-0.56667 -0.2977336,-0.55952 -0.010887,0.004 -0.3682295,0.18845 -0.7940936,0.40901 -0.6578947,0.34072 -0.7941673,0.42096 -0.9064617,0.53372 -0.1392913,0.13986 -0.1608855,0.19315 -0.087675,0.21639 0.024468,0.008 0.7716746,0.4313 1.6604584,0.94119 0.8887839,0.50988 1.6217716,0.92723 1.6288619,0.92745 0.00709,2e-4 0.7328474,-0.38873 1.6127931,-0.86431 z m -4.2714183,0.0856 c -0.03029,-0.0425 -0.075645,-0.12995 -0.1007884,-0.19424 -0.045297,-0.11583 -0.045726,-0.11614 -0.046888,-0.0338 -0.0013,0.0923 0.029573,0.16444 0.1065828,0.24899 0.075835,0.0833 0.1047874,0.0685 0.041093,-0.021 z m 2.5752896,-0.5439 c 0.023816,-0.0151 0.1080401,-0.63662 0.1080401,-0.7972 0,-0.0457 -0.082748,-0.0866 -0.123783,-0.0612 -0.043638,0.027 -0.1294897,0.84697 -0.090384,0.86328 0.041163,0.0172 0.07385,0.0157 0.1061265,-0.005 z m -0.3089102,-0.0993 c -0.00278,-0.0379 -0.00597,-0.0887 -0.00709,-0.11279 -0.00668,-0.14383 -0.2558081,-0.19923 -0.3511063,-0.0781 -0.090151,0.1146 -0.061269,0.15492 0.1610938,0.22489 0.1651435,0.052 0.2029365,0.0454 0.197106,-0.034 z m 1.1663699,-0.23811 c 0.02566,-0.069 0.01092,-0.11277 -0.04877,-0.14472 -0.06262,-0.0335 -0.1217101,-0.005 -0.1397318,0.0664 -0.030905,0.12313 0.1447248,0.19615 0.1885055,0.0784 z M 8.5571028,286.7969 c -0.025478,-0.0255 -0.046499,0.0129 -0.025595,0.0467 0.015791,0.0256 0.021694,0.0256 0.030184,1e-4 0.0058,-0.0174 0.00374,-0.0385 -0.00459,-0.0468 z m 1.1359265,-0.0534 c 0.017604,-0.0329 0.015451,-0.0597 -0.00729,-0.0908 -0.045646,-0.0624 -0.1412345,-0.029 -0.1412345,0.0493 0,0.0904 0.1064498,0.12009 0.1485282,0.0415 z m -0.9467127,-0.26663 c -0.00478,-0.0414 -0.010415,-0.15153 -0.012532,-0.24483 -0.00282,-0.12419 -0.010826,-0.16009 -0.029894,-0.13402 -0.014325,0.0196 -0.052648,0.0395 -0.085163,0.0443 -0.099574,0.0147 -0.1173269,0.0764 -0.055867,0.19432 0.029859,0.0573 0.05429,0.12449 0.05429,0.14934 0,0.0608 0.025305,0.0822 0.086691,0.0734 0.040888,-0.006 0.049415,-0.0224 0.042475,-0.0825 z m 1.6401334,-3.2e-4 c 0.01844,-0.0735 -0.02493,-0.13753 -0.09311,-0.13753 -0.05458,0 -0.05489,-0.001 -0.02262,-0.0861 0.0371,-0.0976 0.008,-0.0768 -0.049,0.035 -0.06141,0.12037 -0.06258,0.14676 -0.0092,0.2058 0.06211,0.0686 0.154643,0.0595 0.173881,-0.0171 z m -0.6587919,-0.13753 c 0.011134,-0.062 0.026461,-0.16188 0.034059,-0.22189 l 0.013815,-0.10912 -0.084186,0.0181 c -0.046303,0.01 -0.088846,0.0223 -0.094541,0.0276 -0.014828,0.0136 -0.023052,0.36912 -0.0091,0.39335 0.00641,0.0111 0.035964,0.0168 0.065679,0.0125 0.042427,-0.006 0.058375,-0.0319 0.074272,-0.12049 z m -0.3644096,0.0292 c 0.017483,-0.0111 0.041837,-0.0552 0.054119,-0.0981 0.017678,-0.0616 0.013254,-0.0861 -0.021229,-0.11729 -0.06986,-0.0632 -0.1118222,-0.046 -0.1584797,0.065 -0.032657,0.0777 -0.036625,0.11242 -0.015729,0.1376 0.031249,0.0376 0.093252,0.0432 0.1413179,0.0127 z m 0.7577135,-0.12944 c 0.02813,-0.0551 0.04551,-0.10026 0.03861,-0.10026 -0.0069,0 -0.03555,0.0451 -0.06368,0.10026 -0.02813,0.0551 -0.04551,0.10025 -0.03861,0.10025 0.0069,0 0.03555,-0.0451 0.06368,-0.10025 z m -1.9306881,-0.26555 c 9.699e-4,-0.12502 0.054625,-0.1809 0.1819253,-0.18947 0.061473,-0.004 0.1092105,0.009 0.1437939,0.0407 0.046498,0.0421 0.064947,0.0438 0.1811459,0.017 0.1032063,-0.0238 0.1336996,-0.0234 0.1507521,0.002 0.012089,0.018 0.014165,-0.0365 0.00478,-0.12553 -0.031529,-0.29903 -0.037299,-0.31155 -0.1842334,-0.39966 l -0.1348957,-0.0809 -0.2276272,0.12324 c -0.1831141,0.0991 -0.4166662,0.22208 -0.4609996,0.24267 -0.00429,0.002 0.055619,0.13008 0.1331327,0.28464 0.1291718,0.25756 0.1438751,0.27713 0.1761822,0.23448 0.019387,-0.0256 0.035608,-0.0927 0.036046,-0.14917 z m 0.3158813,-0.3503 c -0.072316,-0.0723 -0.02936,-0.16112 0.077936,-0.16112 0.078983,0 0.1105888,0.11848 0.044497,0.16681 -0.058923,0.0431 -0.074376,0.0424 -0.1224328,-0.006 z m 0.3798773,0.3996 c -0.010196,-0.0684 -0.010925,-0.0677 -0.014491,0.0125 -0.00341,0.0767 -0.00781,0.0814 -0.047617,0.0501 -0.03998,-0.0314 -0.040739,-0.0304 -0.00858,0.0105 0.046452,0.0591 0.084546,0.0197 0.070689,-0.0732 z m 0.1241923,-0.0391 c -0.008,-0.02 -0.01394,-0.014 -0.015142,0.0152 -0.00109,0.0264 0.00484,0.0412 0.013164,0.0329 0.00833,-0.008 0.00922,-0.0299 0.00198,-0.048 z m 0.1978963,-0.21541 0.1985307,-0.018 -0.1203082,-0.0815 c -0.06617,-0.0448 -0.1295005,-0.0814 -0.1407352,-0.0814 -0.011235,0 -0.050476,-0.0236 -0.087203,-0.0525 -0.074889,-0.0589 -0.150552,-0.0468 -0.1317958,0.0211 0.00668,0.0242 0.019717,0.0995 0.028962,0.16727 0.00951,0.0698 0.024886,0.11022 0.035414,0.0932 0.010232,-0.0165 0.1079433,-0.0382 0.2171353,-0.0481 z m -6.0480992,5.01558 c -0.016982,-0.007 -0.099722,-0.22715 -0.1838663,-0.48986 -0.1739744,-0.54316 -0.1745584,-0.5606 -0.026355,-0.78745 0.1134297,-0.17362 0.2130969,-0.2712 0.2590056,-0.25358 0.032411,0.0124 0.3705768,1.328 0.3705768,1.44165 0,0.0368 -0.018557,0.0587 -0.056393,0.0663 -0.1030314,0.0209 -0.3316331,0.0353 -0.3629678,0.0229 z m 7.9675541,-6.27117 c -0.01844,-0.0117 -0.02972,-0.0482 -0.02506,-0.0811 0.0068,-0.0479 0.02347,-0.0598 0.08365,-0.0598 0.06018,0 0.07688,0.0119 0.08365,0.0598 0.008,0.0568 -0.02913,0.10232 -0.08365,0.10232 -0.01378,0 -0.04015,-0.01 -0.05859,-0.0213 z m -0.04994,-0.33313 c 0.01069,-0.0755 0.108526,-0.0829 0.108526,-0.008 0,0.0334 -0.01947,0.0529 -0.0584,0.0584 -0.04859,0.007 -0.05701,-0.002 -0.05013,-0.0501 z m -4.0602919,-1.27021 c -0.018853,-0.0123 -0.029742,-0.0532 -0.025064,-0.0942 0.00731,-0.0641 0.018155,-0.0725 0.093264,-0.0725 0.1017847,0 0.1558114,0.063 0.1128613,0.13158 -0.030719,0.0491 -0.1301168,0.0683 -0.1810614,0.0351 z m 1.583061,-0.84534 c -0.00834,-0.0217 0.00329,-0.058 0.02585,-0.0806 0.037988,-0.038 0.044108,-0.0379 0.082731,6.8e-4 0.034454,0.0345 0.0361,0.0485 0.00946,0.0806 -0.041563,0.0501 -0.09869,0.0498 -0.1180437,-6.8e-4 z m -0.079175,-0.35294 c 0.00489,-0.0254 0.025649,-0.0461 0.046137,-0.0461 0.053724,0 0.045964,0.0728 -0.00889,0.0834 -0.033495,0.006 -0.043703,-0.004 -0.037252,-0.0373 z M 11.7862,281.27379 c -0.0093,-0.0151 0.0013,-0.0457 0.02358,-0.068 0.03737,-0.0374 0.04375,-0.0374 0.08112,0 0.04737,0.0474 0.02693,0.0955 -0.04056,0.0955 -0.02594,0 -0.05481,-0.0124 -0.06414,-0.0275 z m -0.407049,-0.0778 c -0.04155,-0.0415 -0.03769,-0.13292 0.0072,-0.17016 0.05118,-0.0425 0.156243,-0.0117 0.176359,0.0517 0.03165,0.0997 -0.110523,0.19148 -0.183552,0.11845 z"
       style="fill:#a4dd4b;stroke-width:0.02506352" />
    <path
       inkscape:connector-curvature="0"
       id="path832"
       d="m 7.4815007,293.32096 c -0.066317,-0.0178 -0.1327274,-0.0446 -0.1475775,-0.0594 -0.016165,-0.0162 -0.03371,-0.22124 -0.043719,-0.51102 -0.018765,-0.54327 -0.013948,-0.56858 0.1417641,-0.74485 l 0.097562,-0.11045 0.2994409,0.004 c 0.1646924,0.002 0.3143372,-0.006 0.3325434,-0.0174 0.027133,-0.0178 0.025551,-0.0477 -0.00877,-0.16576 -0.023031,-0.0792 -0.032288,-0.15355 -0.020571,-0.16516 0.011717,-0.0116 0.083337,-0.0253 0.1591539,-0.0305 l 0.1378493,-0.009 -0.1536464,-0.005 -0.1536464,-0.005 -0.1940373,-0.79577 c -0.1067205,-0.43767 -0.2036248,-0.81418 -0.215343,-0.83668 -0.013248,-0.0254 -0.2040371,-0.0997 -0.5044761,-0.19628 -0.2657435,-0.0854 -0.6918242,-0.23745 -0.9468455,-0.33777 -0.2550214,-0.10032 -0.51636,-0.20151 -0.5807527,-0.22485 -0.064393,-0.0234 -0.1306256,-0.0588 -0.1471843,-0.0787 -0.016558,-0.0199 -0.046614,-0.0363 -0.06679,-0.0363 -0.042319,0 -0.7280712,-0.37091 -0.7493211,-0.4053 -0.00778,-0.0126 0.08763,-0.11869 0.2120204,-0.23578 0.124391,-0.1171 0.2887881,-0.29611 0.3653271,-0.39781 0.076539,-0.1017 0.1523589,-0.1893 0.1684886,-0.19468 0.018656,-0.006 0.036779,-0.12029 0.049808,-0.31351 0.022335,-0.33124 0.048714,-0.47801 0.121015,-0.67331 0.030809,-0.0832 0.042591,-0.16219 0.033884,-0.2271 -0.046377,-0.34576 0.3254386,-0.96936 0.6746885,-1.13156 0.1903936,-0.0884 0.3403722,-0.0757 0.5683302,0.0481 0.104563,0.0568 0.2140565,0.12509 0.2433187,0.15175 0.047104,0.0429 0.061751,0.0447 0.1277518,0.0158 0.1318842,-0.0579 0.9448467,-0.49734 1.0069002,-0.54432 0.063355,-0.048 0.054212,-0.1017 -0.017616,-0.10351 -0.02331,-5.8e-4 -0.084953,-0.0563 -0.1369847,-0.12377 -0.07346,-0.0953 -0.1126698,-0.12445 -0.1754447,-0.13052 -0.075557,-0.007 -0.080666,-0.0138 -0.07816,-0.0998 0.00239,-0.082 -0.036515,-0.14209 -0.3568028,-0.5514 -0.1977168,-0.25267 -0.3596437,-0.47323 -0.3598375,-0.49012 -2.005e-4,-0.0169 0.036303,-0.0635 0.081104,-0.10363 0.2317243,-0.20739 0.4091768,-0.35439 0.427806,-0.35439 0.011491,0 0.1477472,0.0675 0.3027914,0.15011 0.2350272,0.12515 0.2885315,0.14495 0.3217898,0.11905 0.042534,-0.0331 0.67073,-1.40119 0.67073,-1.4607 0,-0.0194 -0.032469,-0.0521 -0.072153,-0.0726 -0.1099699,-0.0569 -0.138595,-0.17572 -0.061006,-0.25331 0.033474,-0.0335 0.069415,-0.0391 0.1724912,-0.027 l 0.1302062,0.0153 0.2333592,-0.51367 c 0.1283476,-0.28253 0.2428375,-0.51368 0.2544219,-0.51368 0.011584,0 0.076706,0.0282 0.1447137,0.0627 0.1345331,0.0682 0.2004671,0.0777 0.2429598,0.0353 0.05306,-0.0531 0.119835,-0.014 0.132992,0.0778 0.01226,0.0856 0.02342,0.0931 0.519798,0.35169 0.278997,0.14534 0.544281,0.30013 0.589521,0.34398 0.07158,0.0694 0.09433,0.0778 0.17523,0.0646 0.184451,-0.0299 0.291801,0.12162 0.195975,0.27667 l -0.05021,0.0812 0.08688,0.12901 c 0.04778,0.071 0.08682,0.14918 0.08676,0.17385 -7.5e-5,0.0247 -0.20308,0.49971 -0.451144,1.05565 -0.248063,0.55594 -0.451024,1.03206 -0.451024,1.05805 0,0.026 0.02256,0.0593 0.05013,0.0741 0.05727,0.0307 0.0689,0.15373 0.01848,0.19558 -0.01741,0.0144 -0.07613,0.0299 -0.130503,0.0344 l -0.09886,0.008 -0.130865,0.28823 c -0.07198,0.15852 -0.131675,0.31155 -0.132664,0.34006 -0.0015,0.0424 0.16399,0.14753 0.906753,0.57624 1.273619,0.7351 1.363612,0.79969 1.480202,1.06244 0.04261,0.096 0.05246,0.18387 0.06233,0.55571 0.0064,0.24291 0.0037,0.5062 -0.0062,0.5851 -0.01566,0.12535 -0.02749,0.14868 -0.09376,0.18494 -0.04171,0.0228 -0.09923,0.0596 -0.127817,0.0818 -0.05182,0.0402 -0.0517,0.0406 0.03722,0.15038 0.191436,0.23625 0.182261,0.17559 0.191206,1.2643 0.0075,0.91715 0.0052,0.98212 -0.03759,1.03196 -0.04483,0.0523 -2.505101,1.39364 -2.652243,1.44606 -0.04135,0.0147 -0.1879767,0.0935 -0.3258254,0.17503 -0.2327196,0.13764 -0.5733472,0.30884 -0.7957669,0.39994 -0.083215,0.0341 -0.093988,0.0485 -0.093988,0.12568 0,0.0701 -0.018229,0.1022 -0.093086,0.1639 -0.1325682,0.10928 -0.4005409,0.24487 -0.5724085,0.28963 -0.1803403,0.047 -0.650312,0.0484 -0.8210452,0.003 z m 2.3897766,-3.1974 c 0.3306477,-0.1792 0.6123197,-0.32582 0.6259387,-0.32582 0.03606,0 0.03036,-0.0433 -0.01473,-0.11216 -0.02618,-0.04 -0.05362,-0.055 -0.08146,-0.0447 -0.02308,0.009 -0.24239,0.12621 -0.4873487,0.26142 -0.5055811,0.27906 -0.6135518,0.31658 -0.78605,0.27314 -0.067915,-0.0171 -0.7258727,-0.37887 -1.5852678,-0.87165 -0.808041,-0.46333 -1.488963,-0.84759 -1.5131601,-0.85392 -0.050636,-0.0132 -0.1189182,0.035 -0.1189182,0.084 0,0.0183 0.047934,0.0556 0.10652,0.0828 0.058586,0.0272 0.800153,0.44974 1.6479267,0.93896 0.8477737,0.48922 1.5557969,0.89043 1.5733852,0.89158 0.017588,0.001 0.3025082,-0.14453 0.6331552,-0.32374 z m -1.893887,-1.44448 c -0.036177,-0.0533 -0.072027,-0.12817 -0.079666,-0.16637 -0.017015,-0.0851 -0.057542,-0.11607 -0.057542,-0.044 0,0.0759 0.062273,0.21333 0.1252094,0.27626 0.080606,0.0806 0.087124,0.0448 0.011999,-0.0659 z m 4.5675677,-0.0134 c -0.03979,-0.0975 -0.0958,-0.13588 -0.158607,-0.10865 -0.026,0.0113 -0.05573,0.0187 -0.06606,0.0165 -0.04817,-0.0102 -0.0077,0.0234 0.112786,0.0937 0.07237,0.0422 0.134435,0.077 0.137921,0.0773 0.0035,3e-4 -0.0082,-0.0351 -0.02603,-0.0788 z m -1.688067,-0.83548 c 0.879946,-0.47558 1.616066,-0.86469 1.635822,-0.86469 0.07472,0 0.06595,-0.0786 -0.01873,-0.16783 -0.116704,-0.123 -0.283388,-0.22776 -1.247961,-0.78437 -0.80414,-0.46403 -0.959632,-0.54526 -0.919524,-0.48037 0.0099,0.016 0.0053,0.029 -0.01009,0.029 -0.01541,0 -0.02105,0.0113 -0.01253,0.0251 0.0085,0.0138 0.0029,0.0251 -0.01253,0.0251 -0.01541,0 -0.02105,0.0113 -0.01253,0.0251 0.0085,0.0138 0.0029,0.0251 -0.01253,0.0251 -0.01541,0 -0.02105,0.0113 -0.01253,0.0251 0.0085,0.0138 0.0035,0.0251 -0.01105,0.0251 -0.0146,0 -0.02654,0.0124 -0.02654,0.0275 0,0.0541 -0.102348,0.16985 -0.15716,0.17772 -0.04281,0.006 -0.05427,0.0224 -0.04899,0.0695 0.0079,0.0707 0.04452,0.10034 0.1246967,0.10088 0.03102,2e-4 0.05639,0.006 0.05639,0.0118 0,0.006 -0.0317,0.0655 -0.07044,0.13158 -0.03875,0.0661 -0.07787,0.13989 -0.08694,0.16402 -0.01999,0.0532 -0.06081,0.0551 -0.1718329,0.008 l -0.084334,-0.0356 v -0.18304 c 0,-0.14369 -0.00819,-0.18469 -0.03808,-0.19068 -0.071821,-0.0144 -0.1269761,0.0549 -0.1451206,0.18239 -0.014742,0.10355 -0.027292,0.12609 -0.073925,0.13274 -0.044885,0.006 -0.056169,-0.004 -0.056169,-0.0525 0,-0.0733 -0.079478,-0.15116 -0.1420595,-0.1391 -0.025044,0.005 -0.059642,0.0382 -0.076884,0.0742 -0.081558,0.17017 -0.1680406,0.15545 -0.1908241,-0.0325 -0.00892,-0.0736 -0.023159,-0.18569 -0.031637,-0.24911 l -0.015415,-0.11532 0.096826,-0.016 c 0.053254,-0.009 0.1440944,-0.0161 0.2018669,-0.0163 0.057772,-1.5e-4 0.1130883,-0.0133 0.1229243,-0.0292 0.010443,-0.0169 0.00694,-0.0222 -0.00843,-0.0127 -0.01447,0.009 -0.033051,-10e-4 -0.041291,-0.0228 -0.00824,-0.0215 -0.026339,-0.032 -0.040222,-0.0234 -0.013882,0.009 -0.025241,0.002 -0.025241,-0.0151 0,-0.0169 -0.00658,-0.0241 -0.01462,-0.0161 -0.00804,0.008 -0.036649,-0.007 -0.063573,-0.0343 -0.026924,-0.0269 -0.05982,-0.0422 -0.073102,-0.034 -0.013282,0.008 -0.02415,0.002 -0.02415,-0.0131 0,-0.0154 -0.011278,-0.0211 -0.025063,-0.0125 -0.013785,0.009 -0.025063,0.005 -0.025063,-0.009 0,-0.0272 -0.2717518,-0.1872 -0.3184814,-0.18749 -0.016638,-10e-5 -0.036296,-0.0159 -0.043684,-0.0352 -0.00739,-0.0192 -0.024792,-0.028 -0.038674,-0.0194 -0.013882,0.009 -0.02524,0.003 -0.02524,-0.0124 0,-0.0154 -0.011279,-0.0211 -0.025063,-0.0125 -0.013785,0.009 -0.025064,0.004 -0.025064,-0.01 0,-0.0462 -0.099925,-0.007 -0.4005732,0.15873 -0.1641869,0.0903 -0.3085936,0.16418 -0.3209038,0.16418 -0.01231,0 -0.03523,-0.0282 -0.050932,-0.0627 -0.028547,-0.0627 -0.112853,-0.0854 -0.1419548,-0.0383 -0.00827,0.0134 0.00206,0.0574 0.022952,0.0978 0.047455,0.0918 0.1165519,0.0469 -0.7998502,0.5189 -0.6156744,0.31708 -0.7464411,0.39428 -0.8584257,0.50677 -0.1392431,0.13987 -0.1608216,0.19316 -0.087621,0.21639 0.024468,0.008 0.7716746,0.4313 1.6604584,0.94119 0.8887839,0.50988 1.6217716,0.92723 1.6288619,0.92745 0.00709,2e-4 0.732847,-0.38873 1.6127927,-0.86431 z m -2.1098533,-0.37661 c -0.1906261,-0.0435 -0.5372479,-0.20258 -0.6504465,-0.29856 -0.045072,-0.0382 -0.112743,-0.12187 -0.1503812,-0.1859 -0.058105,-0.0988 -0.068433,-0.14478 -0.068433,-0.30438 0,-0.19133 0.060365,-0.3734 0.1310662,-0.3953 0.01813,-0.006 0.077447,0.0856 0.1441153,0.22152 0.091276,0.18615 0.1133031,0.25703 0.1133031,0.36462 0,0.12959 0.00242,0.13418 0.081457,0.15487 0.071912,0.0188 0.081456,0.0314 0.081456,0.10724 0,0.0769 0.011804,0.0917 0.1127859,0.14122 0.1215017,0.0596 0.5421117,0.13696 0.625686,0.1151 0.028066,-0.007 0.051029,-0.0294 0.051029,-0.0491 0,-0.0197 0.027684,-0.0635 0.06152,-0.0973 0.092851,-0.0928 0.24629,-0.0861 0.3407153,0.015 0.069034,0.0739 0.075112,0.0755 0.1792345,0.0475 0.059278,-0.0159 0.176426,-0.0601 0.2603307,-0.0981 0.131911,-0.0598 0.158262,-0.0834 0.194738,-0.17457 0.0501,-0.12521 0.02916,-0.23566 -0.07309,-0.38557 -0.07526,-0.11035 -0.06804,-0.20419 0.01026,-0.13333 0.07181,0.065 0.175177,0.0533 0.194067,-0.022 0.01861,-0.0741 -0.02508,-0.13753 -0.0948,-0.13753 -0.05323,0 -0.04787,-0.0461 0.02111,-0.18171 0.03448,-0.0678 0.108967,-0.0958 0.108967,-0.0409 0,0.0154 0.02007,0.0227 0.0446,0.0163 0.05158,-0.0135 0.101822,0.0302 0.08674,0.0755 -0.0057,0.017 0.01549,0.0843 0.04705,0.14948 0.215566,0.4453 -0.04936,0.8177 -0.7548501,1.06107 -0.1360185,0.0469 -0.2270459,0.0574 -0.5513975,0.0636 -0.2723535,0.005 -0.4358188,-0.003 -0.5468282,-0.0287 z m -0.3972628,-0.89453 c -0.013345,-0.0177 -0.067262,-0.11556 -0.119815,-0.21749 -0.091667,-0.17779 -0.093937,-0.18806 -0.055854,-0.25253 0.021833,-0.037 0.036934,-0.10018 0.033556,-0.1405 -0.00686,-0.0819 0.041652,-0.13393 0.1260445,-0.13515 0.030202,-4.4e-4 0.061813,-0.012 0.070246,-0.0256 0.00889,-0.0144 0.038488,-0.003 0.070404,0.0272 0.055027,0.052 0.1453023,0.0543 0.3108358,0.008 0.063417,-0.0178 0.066203,-0.01 0.1004306,0.29706 0.023246,0.20823 0.01111,0.2441 -0.082586,0.2441 -0.035563,0 -0.060014,-0.0198 -0.069835,-0.0564 -0.023812,-0.0888 -0.01853,-0.11852 0.018566,-0.10429 0.0189,0.007 0.053125,-0.006 0.076056,-0.0285 0.032246,-0.0322 0.035122,-0.0496 0.012694,-0.0766 -0.038348,-0.0462 -0.1209688,-0.0446 -0.1391135,0.003 -0.00793,0.0207 -0.040036,0.0376 -0.071335,0.0376 -0.090801,0 -0.1208563,0.056 -0.0899,0.16747 0.014616,0.0526 0.026565,0.11262 0.026555,0.1333 -1.51e-5,0.0303 -0.076485,0.0925 -0.1776505,0.14434 -0.00827,0.004 -0.025955,-0.007 -0.0393,-0.0245 z m -1.7643022,1.35671 c -0.03029,-0.0425 -0.075645,-0.12995 -0.1007884,-0.19424 -0.045297,-0.11583 -0.045726,-0.11614 -0.046888,-0.0338 -0.0013,0.0923 0.029573,0.16444 0.1065828,0.24899 0.075835,0.0833 0.1047874,0.0685 0.041093,-0.021 z m 4.1283043,-3.97188 c 0.417708,-0.93657 0.759727,-1.72024 0.760042,-1.7415 7.72e-4,-0.052 -0.306145,-0.47607 -0.337505,-0.46633 -0.01363,0.004 -0.351989,0.6666 -0.751906,1.47192 -0.6086871,1.22572 -0.7362095,1.46551 -0.7829199,1.47215 -0.044988,0.006 -0.086265,-0.0343 -0.21304,-0.21014 -0.2496863,-0.34627 -0.2306904,-0.32776 -0.2986642,-0.29093 -0.032497,0.0176 -0.097346,0.0635 -0.144109,0.10193 l -0.085024,0.0699 0.5212601,0.65645 c 0.2866932,0.36104 0.5327663,0.65261 0.5468293,0.64792 0.01406,-0.005 0.3673287,-0.77481 0.7850367,-1.71138 z m -1.2737073,1.4449 c -0.00459,-0.0125 -0.1737657,-0.2311 -0.3759351,-0.48571 L 8.696554,284.44016 8.2520437,284.21117 c -0.2444809,-0.12594 -0.4492614,-0.22424 -0.4550684,-0.21843 -0.00581,0.006 0.1379937,0.20053 0.3195569,0.43273 l 0.3301144,0.42217 0.4800026,0.28061 c 0.4735033,0.27681 0.5298765,0.30541 0.5134205,0.26054 z m 0.8894643,-2.37467 c 0.589344,-1.17995 0.715728,-1.45078 0.688933,-1.47634 -0.06251,-0.0596 -1.2505579,-0.66596 -1.2894472,-0.65809 -0.039172,0.008 -1.2589699,2.64796 -1.2611737,2.72957 -7.344e-4,0.0272 0.080763,0.0744 0.2558246,0.14826 0.4713324,0.19886 0.4731545,0.20014 0.6592316,0.46264 0.093179,0.13145 0.181897,0.239 0.1971509,0.239 0.015254,0 0.3525201,-0.65027 0.7494808,-1.44504 z m -1.4702914,1.14346 c 0.073624,-0.0556 0.133861,-0.11512 0.133861,-0.13229 0,-0.0172 -0.1438019,-0.0918 -0.3195599,-0.16576 -0.175758,-0.074 -0.4561193,-0.20619 -0.6230251,-0.29378 -0.1669057,-0.0876 -0.3253365,-0.15926 -0.3520685,-0.15926 -0.052101,0 -0.2536143,0.18947 -0.2283661,0.21472 0.024413,0.0244 1.2074924,0.63531 1.2325116,0.63643 0.012532,5.5e-4 0.083023,-0.0445 0.156647,-0.10006 z m -5.6992207,6.62592 c -0.032275,-0.0128 -0.332545,-0.91805 -0.332545,-1.0026 0,-0.12546 0.2794033,-0.53461 0.3650736,-0.53461 0.036264,0 0.041035,0.013 0.096642,0.26317 0.018384,0.0827 0.091179,0.37595 0.1617662,0.65165 0.070587,0.2757 0.1283593,0.52079 0.1283821,0.54465 2.38e-5,0.0249 -0.023966,0.0482 -0.056352,0.0548 -0.1030314,0.0209 -0.3316331,0.0353 -0.3629678,0.0229 z m 7.9421771,-6.59879 c 0.0055,-0.0165 0.0182,-0.0292 0.0282,-0.0282 0.02997,0.003 0.02416,0.0375 -0.0081,0.0482 -0.01654,0.006 -0.02557,-0.004 -0.02005,-0.02 z m -4.08005,-1.31709 c -0.023675,-0.0617 0.010385,-0.11278 0.075191,-0.11278 0.069799,0 0.1055455,0.0653 0.06349,0.11596 -0.037984,0.0458 -0.1206257,0.0439 -0.138681,-0.003 z m 1.6117109,-0.80621 c -0.028839,-0.0288 -0.018252,-0.0585 0.020886,-0.0585 0.020677,0 0.037595,0.0169 0.037595,0.0376 0,0.0391 -0.029643,0.0497 -0.058481,0.0209 z m 3.1914211,-0.8089 c 0,-0.013 0.01128,-0.0306 0.02506,-0.0391 0.01379,-0.009 0.02506,0.002 0.02506,0.0236 0,0.0215 -0.01128,0.0391 -0.02506,0.0391 -0.01379,0 -0.02506,-0.0106 -0.02506,-0.0236 z m -0.42508,-0.088 c -0.04391,-0.0529 -0.02158,-0.1253 0.04142,-0.13431 0.07639,-0.0109 0.12247,0.0774 0.06853,0.13136 -0.04879,0.0488 -0.0714,0.0494 -0.109947,0.003 z"
       style="fill:#269cd9;stroke-width:0.02506352" />
    <path
       inkscape:connector-curvature="0"
       id="path830"
       d="m 7.4815007,293.32096 c -0.066317,-0.0178 -0.1327274,-0.0446 -0.1475775,-0.0594 -0.016165,-0.0162 -0.03371,-0.22124 -0.043719,-0.51102 -0.018765,-0.54327 -0.013948,-0.56858 0.1417641,-0.74485 l 0.097562,-0.11045 0.2994409,0.004 c 0.1646924,0.002 0.3143372,-0.006 0.3325434,-0.0174 0.027156,-0.0178 0.025728,-0.0471 -0.00795,-0.16292 -0.022578,-0.0777 -0.033989,-0.15264 -0.025358,-0.16661 0.00863,-0.014 0.077382,-0.0254 0.1527785,-0.0254 0.1016406,0 0.1745324,0.0189 0.2819158,0.0731 l 0.1448308,0.0731 0.1645541,-0.0694 c 0.3915975,-0.16521 0.8571208,-0.5464 1.1649022,-0.95386 0.08962,-0.11865 0.234418,-0.36221 0.326499,-0.54921 0.148306,-0.30118 0.161995,-0.34145 0.132061,-0.38848 -0.0931,-0.1463 -0.124153,-0.24557 -0.124153,-0.39689 0,-0.44112 0.294006,-0.96108 0.655926,-1.16004 0.105377,-0.0579 0.165321,-0.0735 0.283956,-0.0739 0.140453,-4.2e-4 0.169411,0.0106 0.438612,0.16725 0.158527,0.0922 0.389738,0.23128 0.513802,0.30898 0.124065,0.0777 0.261772,0.16247 0.306017,0.18836 0.186517,0.10916 0.252481,0.4378 0.160713,0.8007 -0.06535,0.25841 -0.168804,0.43848 -0.367348,0.63938 -0.264541,0.26768 -0.528665,0.35147 -0.750844,0.23819 -0.05397,-0.0275 -0.105828,-0.0416 -0.115236,-0.0313 -0.0094,0.0103 -0.05596,0.10934 -0.103443,0.22012 -0.226493,0.52839 -0.605334,1.02956 -1.063958,1.40751 -0.254855,0.21003 -0.8449219,0.54438 -1.2677656,0.71835 -0.083182,0.0342 -0.093988,0.0487 -0.093988,0.12585 0,0.0701 -0.018229,0.1022 -0.093086,0.1639 -0.1325682,0.10928 -0.4005409,0.24487 -0.5724085,0.28963 -0.1803403,0.047 -0.650312,0.0484 -0.8210452,0.003 z m -4.3214788,-2.53741 c -0.032275,-0.0128 -0.332545,-0.91805 -0.332545,-1.0026 0,-0.12546 0.2794033,-0.53461 0.3650736,-0.53461 0.036264,0 0.041035,0.013 0.096642,0.26317 0.018384,0.0827 0.091179,0.37595 0.1617662,0.65165 0.070587,0.2757 0.1283593,0.52079 0.1283821,0.54465 2.38e-5,0.0249 -0.023966,0.0482 -0.056352,0.0548 -0.1030314,0.0209 -0.3316331,0.0353 -0.3629678,0.0229 z m 1.9262652,-1.97485 c -0.1843954,-0.1019 -0.3469845,-0.19699 -0.361309,-0.21131 -0.018017,-0.018 0.044289,-0.0923 0.2021471,-0.24086 0.1255053,-0.11814 0.2915469,-0.29899 0.3689809,-0.40187 0.077434,-0.10289 0.1507208,-0.18707 0.162859,-0.18707 0.012138,0 0.025603,0.0367 0.029923,0.0815 0.00642,0.0666 0.03071,0.0962 0.1331715,0.1623 0.068925,0.0445 0.1513516,0.0991 0.1831708,0.12132 l 0.057853,0.0405 -0.064313,0.0792 c -0.1303862,0.16053 -0.2130883,0.36229 -0.2764594,0.67444 -0.00889,0.0438 -0.029818,0.0686 -0.057376,0.0681 -0.023861,-4.8e-4 -0.1942529,-0.0842 -0.3786482,-0.18614 z m 2.947638,-0.15762 c -0.03504,-0.0517 -0.071306,-0.13064 -0.080591,-0.17544 -0.014667,-0.0708 -0.010182,-0.0815 0.03418,-0.0815 0.061993,0 0.1784926,0.18547 0.1784926,0.28417 0,0.0953 -0.056966,0.0836 -0.1320822,-0.0273 z m -1.4092465,-0.79343 c -0.078673,-0.10315 -0.1137543,-0.2655 -0.057369,-0.2655 0.049687,0 0.1097675,0.0698 0.1565891,0.18182 0.076383,0.18281 0.015534,0.23413 -0.09922,0.0837 z m 2.5939967,-0.52623 c 0,-0.0233 0.027684,-0.07 0.06152,-0.10383 0.086969,-0.087 0.2425808,-0.0855 0.3311801,0.003 0.088857,0.0889 0.054278,0.11244 -0.1893544,0.12914 -0.179628,0.0123 -0.2033454,0.009 -0.2033454,-0.0284 z m -0.889755,-0.18311 c -0.1416423,-0.0725 -0.1879765,-0.1331 -0.1879765,-0.24604 0,-0.0576 0.012508,-0.14055 0.027795,-0.18441 0.043907,-0.12595 0.097523,-0.0566 0.097523,0.12608 0,0.14524 0.00141,0.14822 0.077345,0.16341 0.087653,0.0175 0.1086995,0.0508 0.080207,0.12685 -0.018653,0.0498 -0.023708,0.0505 -0.094893,0.0141 z m 1.9318887,-0.14607 c 0.04485,-0.10733 0.01955,-0.22641 -0.07868,-0.37044 -0.03588,-0.0526 -0.05886,-0.1123 -0.05106,-0.13262 0.02387,-0.0622 0.15513,0.056 0.213916,0.19263 0.07537,0.17521 0.06874,0.27678 -0.0225,0.34423 -0.09904,0.0732 -0.105022,0.0699 -0.06168,-0.0338 z m -4.5937775,-0.42956 c -0.031624,-0.0824 0.040459,-0.37094 0.1459085,-0.58403 0.186901,-0.3777 0.4961683,-0.62716 0.7775159,-0.62716 0.1057868,0 0.1667396,0.0204 0.3350158,0.11213 0.1869521,0.10191 0.2862224,0.17724 0.2603639,0.19759 -0.07414,0.0583 -0.5070027,0.2645 -0.5280323,0.2515 -0.015629,-0.01 -0.022107,-0.007 -0.014395,0.005 0.00771,0.0125 -0.1286042,0.096 -0.3029235,0.18559 -0.2549261,0.13102 -0.350252,0.19599 -0.4871635,0.33202 -0.1363954,0.13551 -0.1734123,0.1608 -0.1862896,0.12724 z m 2.6797465,-0.0128 c -0.046332,-0.0463 -0.038189,-0.0634 0.063151,-0.13224 0.115395,-0.0784 0.157142,-0.0803 0.1569365,-0.007 -1.253e-4,0.0487 -0.051418,0.096 -0.1762261,0.16262 -0.00741,0.004 -0.027147,-0.006 -0.043861,-0.0232 z m 1.4796878,-0.15985 c -0.084298,-0.0374 -0.116498,-0.13621 -0.044369,-0.13621 0.084278,0 0.2409562,0.0821 0.2333092,0.12226 -0.01014,0.0532 -0.08743,0.0589 -0.1889407,0.0139 z m -1.0839974,-0.0856 c 0,-0.0618 0.1197352,-0.10019 0.1516376,-0.0486 0.028829,0.0466 -0.019504,0.0982 -0.092048,0.0982 -0.04269,0 -0.05959,-0.0141 -0.05959,-0.0497 z m 1.6352186,-0.004 c -0.04019,-0.0402 -0.04009,-0.13342 1.75e-4,-0.16446 0.01723,-0.0133 0.05953,-0.017 0.09399,-0.008 0.05167,0.0131 0.06266,0.0311 0.06266,0.10254 0,0.0738 -0.0093,0.0877 -0.06283,0.0939 -0.03456,0.004 -0.07685,-0.007 -0.09399,-0.0238 z m -1.3177472,-0.0128 c -0.00919,-0.009 -0.016709,-0.0592 -0.016709,-0.1111 0,-0.1031 0.053001,-0.1412 0.152505,-0.10962 0.042037,0.0133 0.049004,0.0296 0.035643,0.0831 -0.028241,0.11319 -0.1212198,0.1878 -0.1714385,0.13758 z m 0.3843072,-0.0317 c 0,-0.039 0.015987,-0.0519 0.064496,-0.0519 0.082267,0 0.074945,0.0838 -0.00836,0.0957 -0.042637,0.006 -0.056137,-0.004 -0.056137,-0.0439 z m -1.1721776,-0.148 c -0.017483,-0.0111 -0.04171,-0.0548 -0.053838,-0.0971 -0.031342,-0.10929 0.014973,-0.18884 0.1234747,-0.21207 0.176167,-0.0377 0.2918978,0.14319 0.1727386,0.27003 -0.05712,0.0608 -0.1775743,0.0802 -0.2423751,0.0391 z m 1.302508,-0.13445 c -0.016542,-0.0165 -0.030076,-0.0611 -0.030076,-0.099 0,-0.053 -0.024624,-0.0858 -0.1065199,-0.1417 -0.1337821,-0.0913 -0.7566139,-0.44851 -0.9646159,-0.55319 -0.1278069,-0.0643 -0.1552344,-0.0889 -0.1503811,-0.13478 0.00416,-0.0393 -0.00909,-0.0585 -0.044191,-0.0642 -0.02757,-0.004 -0.092698,-0.063 -0.1447298,-0.13012 -0.073262,-0.0945 -0.1128393,-0.12379 -0.1754447,-0.12984 -0.075557,-0.007 -0.080666,-0.0138 -0.07816,-0.0998 0.00239,-0.082 -0.036515,-0.14209 -0.3568028,-0.5514 -0.1977168,-0.25267 -0.3596437,-0.47323 -0.3598375,-0.49012 -2.005e-4,-0.0169 0.036303,-0.0635 0.081104,-0.10363 0.2317243,-0.20739 0.4091768,-0.35439 0.427806,-0.35439 0.011491,0 0.1477472,0.0675 0.3027914,0.15011 0.2350272,0.12515 0.2885315,0.14495 0.3217898,0.11905 0.042534,-0.0331 0.67073,-1.40119 0.67073,-1.4607 0,-0.0194 -0.032469,-0.0521 -0.072153,-0.0726 -0.1099699,-0.0569 -0.138595,-0.17572 -0.061006,-0.25331 0.033474,-0.0335 0.069415,-0.0391 0.1724912,-0.027 l 0.1302062,0.0153 0.2333592,-0.51367 c 0.1283476,-0.28253 0.2428375,-0.51368 0.2544219,-0.51368 0.011584,0 0.076706,0.0282 0.1447137,0.0627 0.1345332,0.0682 0.2004672,0.0777 0.2429599,0.0353 0.05306,-0.0531 0.119835,-0.014 0.132992,0.0778 0.01226,0.0856 0.02342,0.0931 0.519798,0.35169 0.278997,0.14534 0.544281,0.30013 0.589521,0.34398 0.07158,0.0694 0.09433,0.0778 0.17523,0.0646 0.184451,-0.0299 0.291801,0.12162 0.195975,0.27667 l -0.05021,0.0812 0.08688,0.12901 c 0.04778,0.071 0.08682,0.14918 0.08676,0.17385 -7.5e-5,0.0247 -0.20308,0.49971 -0.451144,1.05565 -0.248063,0.55594 -0.451024,1.03206 -0.451024,1.05805 0,0.026 0.02256,0.0593 0.05013,0.0741 0.05727,0.0307 0.0689,0.15373 0.01848,0.19558 -0.01741,0.0144 -0.07613,0.0299 -0.130503,0.0344 l -0.09886,0.008 -0.130865,0.28823 c -0.07198,0.15852 -0.131675,0.3132 -0.132664,0.34373 -0.0018,0.0541 -0.251584,0.58485 -0.306326,0.65081 -0.01509,0.0182 -0.04724,0.0331 -0.07144,0.0331 -0.0242,0 -0.06004,0.0242 -0.07965,0.0537 -0.03055,0.046 -0.04359,0.0494 -0.09114,0.024 -0.040445,-0.0216 -0.080891,-0.0226 -0.1491205,-0.004 -0.1168376,0.0324 -0.1149787,0.0325 -0.1512691,-0.004 z m 1.1391996,-2.03913 c 0.417708,-0.93657 0.759727,-1.72024 0.760042,-1.7415 7.72e-4,-0.052 -0.306145,-0.47607 -0.337505,-0.46633 -0.01363,0.004 -0.351989,0.6666 -0.751906,1.47192 -0.6086871,1.22572 -0.7362095,1.46551 -0.7829199,1.47215 -0.044988,0.006 -0.086265,-0.0343 -0.21304,-0.21014 -0.2496863,-0.34627 -0.2306904,-0.32776 -0.2986642,-0.29093 -0.032497,0.0176 -0.097346,0.0635 -0.144109,0.10193 l -0.085024,0.0699 0.5212601,0.65645 c 0.2866932,0.36104 0.5327663,0.65261 0.5468293,0.64792 0.01406,-0.005 0.3673287,-0.77481 0.7850367,-1.71138 z m -1.2737073,1.4449 c -0.00459,-0.0125 -0.1737657,-0.2311 -0.3759351,-0.48571 L 8.696554,284.44062 8.2520437,284.21163 c -0.2444809,-0.12594 -0.4492614,-0.22424 -0.4550684,-0.21843 -0.00581,0.006 0.1379937,0.20053 0.3195569,0.43273 l 0.3301144,0.42217 0.4800026,0.28061 c 0.4735033,0.27681 0.5298765,0.30541 0.5134205,0.26054 z m 0.8894643,-2.37467 c 0.589344,-1.17995 0.715728,-1.45078 0.688933,-1.47634 -0.06251,-0.0596 -1.2505579,-0.66596 -1.2894472,-0.65809 -0.039172,0.008 -1.2589699,2.64796 -1.2611737,2.72957 -7.344e-4,0.0272 0.080763,0.0744 0.2558246,0.14826 0.4713324,0.19886 0.4731545,0.20014 0.6592316,0.46264 0.093179,0.13145 0.181897,0.239 0.1971509,0.239 0.015254,0 0.3525201,-0.65027 0.7494808,-1.44504 z m -1.4702914,1.14346 c 0.073624,-0.0556 0.133861,-0.11512 0.133861,-0.13229 0,-0.0172 -0.1438019,-0.0918 -0.3195599,-0.16576 -0.175758,-0.074 -0.4561193,-0.20619 -0.6230251,-0.29378 -0.1669057,-0.0876 -0.3253365,-0.15926 -0.3520685,-0.15926 -0.052101,0 -0.2536143,0.18947 -0.2283661,0.21472 0.024413,0.0244 1.2074924,0.63531 1.2325116,0.63643 0.012532,5.5e-4 0.083023,-0.0445 0.156647,-0.10006 z m 2.2429564,0.0271 c 0.0055,-0.0165 0.0182,-0.0292 0.0282,-0.0282 0.02997,0.003 0.02416,0.0375 -0.0081,0.0482 -0.01654,0.006 -0.02557,-0.004 -0.02005,-0.02 z m -4.08005,-1.31709 c -0.023675,-0.0617 0.010385,-0.11278 0.075191,-0.11278 0.069799,0 0.1055455,0.0653 0.06349,0.11596 -0.037984,0.0458 -0.1206257,0.0439 -0.138681,-0.003 z m 1.6117109,-0.80621 c -0.028839,-0.0288 -0.018252,-0.0585 0.020886,-0.0585 0.020677,0 0.037595,0.0169 0.037595,0.0376 0,0.0391 -0.029643,0.0497 -0.058481,0.0209 z m 3.1914211,-0.8089 c 0,-0.013 0.01128,-0.0306 0.02506,-0.0391 0.01379,-0.009 0.02506,0.002 0.02506,0.0236 0,0.0215 -0.01128,0.0391 -0.02506,0.0391 -0.01379,0 -0.02506,-0.0106 -0.02506,-0.0236 z m -0.42508,-0.088 c -0.04391,-0.0529 -0.02158,-0.1253 0.04142,-0.13431 0.07639,-0.0109 0.12247,0.0774 0.06853,0.13136 -0.04879,0.0488 -0.0714,0.0494 -0.109947,0.003 z"
       style="fill:#f15919;stroke-width:0.02506352" />
    <path
       inkscape:connector-curvature="0"
       id="path828"
       d="m 10.120962,292.17092 c 0,-0.006 0.0414,-0.0428 0.09201,-0.0814 0.05061,-0.0386 0.0841,-0.0574 0.07443,-0.0417 -0.01983,0.0321 -0.166444,0.14059 -0.166444,0.12318 z m 0.275699,-0.23025 c 0.04676,-0.0482 0.09066,-0.0877 0.09755,-0.0877 0.0069,0 -0.02573,0.0395 -0.07249,0.0877 -0.04676,0.0482 -0.09066,0.0877 -0.09756,0.0877 -0.0069,0 0.02573,-0.0395 0.07249,-0.0877 z m 0.21304,-0.18798 c 0.05384,-0.0551 0.103534,-0.10025 0.110427,-0.10025 0.0069,0 -0.03152,0.0451 -0.08536,0.10025 -0.05384,0.0551 -0.103535,0.10026 -0.110427,0.10026 -0.0069,0 0.03152,-0.0451 0.08536,-0.10026 z m 0.112785,-0.13316 c 0,-0.004 0.03666,-0.041 0.08146,-0.0814 l 0.08146,-0.0736 -0.07361,0.0815 c -0.06862,0.0759 -0.0893,0.093 -0.0893,0.0736 z m 0.150382,-0.17706 c 0,-0.005 0.01974,-0.0249 0.04386,-0.0439 0.03975,-0.0312 0.04064,-0.0303 0.0095,0.009 -0.03274,0.0418 -0.05332,0.055 -0.05332,0.0344 z m -1.6541927,-0.0264 c 0,-0.007 0.022557,-0.0246 0.050127,-0.0394 0.02757,-0.0148 0.050127,-0.0212 0.050127,-0.0143 0,0.007 -0.022557,0.0246 -0.050127,0.0394 -0.02757,0.0148 -0.050127,0.0212 -0.050127,0.0143 z m 1.7293827,-0.0739 c 0,-0.005 0.01974,-0.0249 0.04386,-0.0439 0.03975,-0.0312 0.04064,-0.0303 0.0095,0.009 -0.03274,0.0418 -0.05332,0.055 -0.05332,0.0344 z m -1.4912792,-0.0908 c 0.02495,-0.0276 0.051004,-0.0501 0.057896,-0.0501 0.00689,0 -0.00788,0.0226 -0.032833,0.0501 -0.02495,0.0276 -0.051004,0.0501 -0.057896,0.0501 -0.00689,0 0.00788,-0.0226 0.032833,-0.0501 z m 0.087722,-0.057 c 0,-0.004 0.087409,-0.0912 0.1942423,-0.19424 l 0.1942422,-0.18735 -0.1873489,0.19424 c -0.1740058,0.18041 -0.2011356,0.20568 -0.2011356,0.18735 z m 1.6040652,-0.14349 c 0.01475,-0.0276 0.03247,-0.0501 0.03936,-0.0501 0.0069,0 4.59e-4,0.0226 -0.01429,0.0501 -0.01476,0.0276 -0.03247,0.0501 -0.03936,0.0501 -0.0069,0 -4.59e-4,-0.0226 0.0143,-0.0501 z m 0.143,-0.26246 c 0.037,-0.0754 0.07147,-0.13295 0.0766,-0.12781 0.01126,0.0113 -0.11516,0.26496 -0.13203,0.26496 -0.0065,0 0.01843,-0.0617 0.05543,-0.13715 z m -1.3335167,-0.0383 c 0.02495,-0.0276 0.051,-0.0501 0.0579,-0.0501 0.0069,0 -0.0079,0.0225 -0.03283,0.0501 -0.02495,0.0276 -0.051,0.0501 -0.0579,0.0501 -0.0069,0 0.0079,-0.0226 0.03283,-0.0501 z m 0.06266,-0.0847 c 0,-0.005 0.01974,-0.0249 0.04386,-0.0439 0.03975,-0.0312 0.04064,-0.0303 0.0095,0.009 -0.03274,0.0418 -0.05332,0.055 -0.05332,0.0344 z m 1.379261,-0.10332 c 0,-0.0138 0.01093,-0.042 0.0243,-0.0627 0.01336,-0.0207 0.0243,-0.0263 0.0243,-0.0125 0,0.0138 -0.01093,0.042 -0.0243,0.0627 -0.01336,0.0207 -0.0243,0.0263 -0.0243,0.0125 z m 0.495804,-0.10485 c 0.01809,-0.007 0.03971,-0.006 0.04804,0.002 0.0083,0.008 -0.0065,0.0143 -0.0329,0.0132 -0.0292,-10e-4 -0.03514,-0.007 -0.01514,-0.0151 z m -0.446444,-0.0315 c 0,-0.013 0.01115,-0.0305 0.02478,-0.0389 0.01421,-0.009 0.01841,0.001 0.0099,0.0236 -0.01666,0.0434 -0.03463,0.0514 -0.03463,0.0153 z m 0.136373,-0.0154 c -0.04587,-0.0367 -0.04507,-0.0373 0.01401,-0.009 0.07672,0.0365 0.09094,0.0481 0.0591,0.0481 -0.01345,0 -0.04634,-0.0175 -0.0731,-0.039 z m 0.392049,0.0296 c 0.02579,-0.0231 0.173356,-0.0909 0.173356,-0.0797 0,0.0144 -0.138947,0.089 -0.165845,0.089 -0.0099,0 -0.01325,-0.004 -0.0075,-0.009 z m 0.19842,-0.10038 c 0,-0.005 0.01974,-0.0249 0.04386,-0.0439 0.03975,-0.0312 0.04064,-0.0303 0.0095,0.009 -0.03274,0.0418 -0.05332,0.055 -0.05332,0.0344 z m 0.175444,-0.15345 c 0.04676,-0.0482 0.09066,-0.0877 0.09756,-0.0877 0.0069,0 -0.02573,0.0395 -0.07249,0.0877 -0.04676,0.0483 -0.09066,0.0877 -0.09756,0.0877 -0.0069,0 0.02573,-0.0395 0.07249,-0.0877 z m -1.987652,-0.0749 c 0.02293,-0.0481 0.04613,-0.083 0.05157,-0.0775 0.01147,0.0115 -0.06462,0.16492 -0.08177,0.16492 -0.0063,0 0.0073,-0.0393 0.0302,-0.0874 z m 2.087907,-0.0474 c 0,-0.005 0.01974,-0.0249 0.04386,-0.0439 0.03975,-0.0312 0.04064,-0.0303 0.0095,0.009 -0.03274,0.0418 -0.05332,0.055 -0.05332,0.0344 z m -2.02837,-0.0783 c 0,-0.0138 0.01612,-0.0533 0.03582,-0.0877 0.0197,-0.0345 0.03582,-0.0514 0.03582,-0.0376 0,0.0138 -0.01612,0.0533 -0.03582,0.0877 -0.0197,0.0345 -0.03582,0.0514 -0.03582,0.0376 z m 2.172418,-0.13583 c 0.03786,-0.0678 0.07307,-0.11908 0.07823,-0.11392 0.0109,0.0109 -0.118479,0.23722 -0.135603,0.23722 -0.0063,0 0.01951,-0.0555 0.05738,-0.1233 z m 0.108566,-0.26727 c 0.0012,-0.0292 0.0071,-0.0351 0.01514,-0.0151 0.0072,0.0181 0.0064,0.0397 -0.002,0.048 -0.0083,0.008 -0.01425,-0.006 -0.01316,-0.0329 z m 0.02506,-0.10025 c 0.0012,-0.0292 0.0071,-0.0351 0.01514,-0.0152 0.0072,0.0181 0.0063,0.0397 -0.002,0.048 -0.0083,0.008 -0.01425,-0.006 -0.01316,-0.0329 z M 10.380189,289.309 c 10e-5,-0.11028 0.0045,-0.15228 0.0098,-0.0933 0.0053,0.0589 0.0052,0.14918 -1.75e-4,0.20051 -0.0054,0.0513 -0.0097,0.003 -0.0096,-0.10718 z m 2.380465,-0.0627 c 0,-0.0896 0.0045,-0.12626 0.01011,-0.0815 0.0056,0.0448 0.0056,0.11812 0,0.16292 -0.0056,0.0448 -0.01011,0.008 -0.01011,-0.0815 z m -2.362015,-0.21513 c 0.0012,-0.0292 0.0071,-0.0351 0.01514,-0.0151 0.0072,0.0181 0.0063,0.0397 -0.002,0.048 -0.0083,0.008 -0.01425,-0.006 -0.01316,-0.0329 z m 2.330908,-0.002 c -0.0011,-0.0161 -0.0085,-0.0499 -0.0164,-0.0752 -0.01371,-0.0436 -0.013,-0.0437 0.01431,-0.001 0.0158,0.0246 0.02318,0.0585 0.0164,0.0752 -0.0089,0.0219 -0.01288,0.0222 -0.01431,0.001 z m -7.2182806,-0.13535 c -0.00449,-0.14506 0.1229649,-0.46856 0.2395361,-0.60799 0.032579,-0.039 0.059234,-0.0862 0.059234,-0.10505 0,-0.0188 -0.066913,-0.0699 -0.1486947,-0.11346 -0.081782,-0.0436 -0.1542211,-0.0936 -0.1609757,-0.11126 -0.010713,-0.0279 0.1207202,0.0483 0.3048647,0.17681 l 0.057853,0.0404 -0.065204,0.0792 c -0.097544,0.11846 -0.2109361,0.36618 -0.2499828,0.54614 -0.019051,0.0878 -0.035535,0.13066 -0.03663,0.0952 z m 4.9362886,-0.0108 c 0,-0.0138 0.01093,-0.042 0.0243,-0.0627 0.01336,-0.0207 0.0243,-0.0263 0.0243,-0.0125 0,0.0138 -0.01093,0.042 -0.0243,0.0627 -0.01336,0.0207 -0.0243,0.0263 -0.0243,0.0125 z m 2.179682,-0.0689 c -0.0369,-0.0504 -0.04295,-0.0679 -0.01588,-0.0459 0.0411,0.0334 0.103242,0.12738 0.08421,0.12738 -0.0048,0 -0.03553,-0.0367 -0.06833,-0.0815 z m -4.5956704,-0.16426 c -0.036337,-0.0524 -0.065569,-0.11165 -0.06496,-0.13159 6.09e-4,-0.0199 0.022402,0.004 0.048428,0.0533 0.026026,0.0492 0.065003,0.10419 0.086615,0.12212 0.033632,0.0279 0.039294,0.0248 0.039294,-0.0218 0,-0.0662 -0.057072,-0.18115 -0.1130435,-0.22761 -0.034858,-0.0289 -0.044643,-0.0287 -0.063928,0.002 -0.018699,0.0296 -0.022838,0.0281 -0.023153,-0.008 -7.57e-4,-0.0866 0.095352,-0.048 0.1614727,0.0649 0.1202428,0.20518 0.058516,0.33333 -0.070725,0.14683 z m 2.5648554,-0.0787 c 0.01434,-0.0268 0.03847,-0.0564 0.05361,-0.0657 0.01514,-0.009 0.0081,0.0126 -0.01555,0.0487 -0.05017,0.0766 -0.07615,0.0882 -0.03806,0.017 z m 1.565742,-0.0654 c -0.04672,-0.0374 -0.04641,-0.0379 0.0077,-0.0116 0.03102,0.015 0.05639,0.0326 0.05639,0.039 0,0.0192 -0.013,0.0136 -0.06413,-0.0273 z m -1.389551,-0.14581 c 0.113706,-0.12152 0.331462,-0.26589 0.401017,-0.26587 0.02068,0 -0.02187,0.0277 -0.09454,0.0615 -0.07267,0.0338 -0.196738,0.12078 -0.275698,0.19321 l -0.143564,0.13168 z m 1.246911,0.0702 c -0.0937,-0.0508 -0.08799,-0.072 0.0063,-0.0233 0.04135,0.0214 0.07519,0.0442 0.07519,0.0508 0,0.0161 -0.0027,0.0152 -0.08146,-0.0275 z m -0.20825,-0.12489 c -0.04672,-0.0374 -0.04641,-0.0379 0.0077,-0.0117 0.03102,0.015 0.05639,0.0326 0.05639,0.039 0,0.0192 -0.013,0.0136 -0.06414,-0.0273 z m -0.232481,-0.1255 c -0.08732,-0.0474 -0.145087,-0.0862 -0.128369,-0.0862 0.03254,0 0.299667,0.14686 0.299667,0.16475 0,0.0148 0.0053,0.0173 -0.171298,-0.0786 z m -0.310883,-0.10389 c 0.03118,-0.006 0.07629,-0.006 0.100254,5.1e-4 0.02396,0.006 -0.0015,0.0112 -0.05668,0.0109 -0.05514,-2.8e-4 -0.07475,-0.005 -0.04357,-0.0114 z m -4.6432314,-0.21804 c -0.078673,-0.10315 -0.1137543,-0.2655 -0.057369,-0.2655 0.049687,0 0.1097675,0.0698 0.1565891,0.18182 0.076383,0.18281 0.015534,0.23413 -0.09922,0.0837 z m 0.059739,-0.10614 c -0.073323,-0.1465 -0.1380376,-0.18078 -0.1139533,-0.0604 0.021884,0.10942 0.1151621,0.23848 0.1483645,0.20528 0.017166,-0.0172 0.00601,-0.0642 -0.034411,-0.14492 z m 2.5342573,-0.42009 c 0,-0.0233 0.027684,-0.07 0.06152,-0.10383 0.086969,-0.087 0.2425808,-0.0855 0.3311801,0.003 0.088857,0.0889 0.054278,0.11244 -0.1893544,0.12914 -0.179628,0.0123 -0.2033454,0.009 -0.2033454,-0.0284 z m -0.889755,-0.18311 c -0.1416423,-0.0725 -0.1879765,-0.1331 -0.1879765,-0.24604 0,-0.0576 0.012508,-0.14055 0.027795,-0.18441 0.043907,-0.12595 0.097523,-0.0566 0.097523,0.12608 0,0.14524 0.00141,0.14822 0.077345,0.16341 0.087653,0.0175 0.1086995,0.0508 0.080207,0.12685 -0.018653,0.0498 -0.023708,0.0505 -0.094893,0.0141 z m 1.9318891,-0.14607 c 0.04485,-0.10733 0.01955,-0.22641 -0.07868,-0.37044 -0.03588,-0.0526 -0.05886,-0.1123 -0.05106,-0.13262 0.02387,-0.0622 0.15513,0.056 0.213916,0.19263 0.07537,0.17521 0.06874,0.27678 -0.0225,0.34423 -0.09904,0.0732 -0.105022,0.0699 -0.06168,-0.0338 z m -4.5323101,-0.45023 c 0.028541,-0.0413 0.089248,-0.10902 0.1349034,-0.15038 0.061329,-0.0555 0.05437,-0.0425 -0.026644,0.0501 -0.1479066,0.16903 -0.1695788,0.1891 -0.1082591,0.10025 z m 2.6182787,0.008 c -0.046332,-0.0463 -0.038189,-0.0634 0.063151,-0.13224 0.115395,-0.0784 0.157142,-0.0803 0.1569365,-0.007 -1.253e-4,0.0487 -0.051418,0.096 -0.1762261,0.16262 -0.00741,0.004 -0.027147,-0.006 -0.043861,-0.0232 z m 1.4796878,-0.15985 c -0.084298,-0.0374 -0.116498,-0.13621 -0.044369,-0.13621 0.084278,0 0.2409556,0.0821 0.2333086,0.12226 -0.01014,0.0532 -0.08743,0.0589 -0.1889401,0.0139 z m -1.0839974,-0.0856 c 0,-0.0618 0.1197352,-0.10019 0.1516376,-0.0486 0.028829,0.0466 -0.019504,0.0982 -0.092048,0.0982 -0.04269,0 -0.05959,-0.0141 -0.05959,-0.0497 z m -2.7444558,-0.0219 c 0.05633,-0.0575 0.9131847,-0.51486 0.9310535,-0.497 0.00631,0.006 -0.169059,0.10371 -0.3897092,0.21643 -0.2206503,0.11272 -0.4439973,0.23348 -0.4963267,0.26834 -0.07297,0.0486 -0.083462,0.0515 -0.045018,0.0122 z m 4.3796748,0.0175 c -0.04019,-0.0402 -0.04009,-0.13342 1.75e-4,-0.16446 0.01723,-0.0133 0.05953,-0.017 0.09399,-0.008 0.05167,0.0131 0.06266,0.0311 0.06266,0.10254 0,0.0738 -0.0093,0.0877 -0.06283,0.0939 -0.03456,0.004 -0.07685,-0.007 -0.09399,-0.0238 z m -1.3177476,-0.0128 c -0.00919,-0.009 -0.016709,-0.0592 -0.016709,-0.1111 0,-0.1031 0.053001,-0.1412 0.152505,-0.10962 0.042037,0.0133 0.049004,0.0296 0.035643,0.0831 -0.028241,0.11319 -0.1212198,0.1878 -0.1714385,0.13758 z m 0.3843072,-0.0317 c 0,-0.039 0.015987,-0.0519 0.064496,-0.0519 0.082267,0 0.074945,0.0838 -0.00836,0.0957 -0.042637,0.006 -0.056137,-0.004 -0.056137,-0.0439 z m -1.1721776,-0.148 c -0.017483,-0.0111 -0.04171,-0.0548 -0.053838,-0.0971 -0.031342,-0.10929 0.014973,-0.18884 0.1234747,-0.21207 0.176167,-0.0377 0.2918978,0.14319 0.1727386,0.27003 -0.05712,0.0608 -0.1775743,0.0802 -0.2423751,0.0391 z m 1.302508,-0.13445 c -0.016542,-0.0165 -0.030076,-0.0611 -0.030076,-0.099 0,-0.053 -0.024624,-0.0858 -0.1065199,-0.1417 -0.1337821,-0.0913 -0.7566139,-0.44851 -0.9646159,-0.55319 -0.1278069,-0.0643 -0.1552344,-0.0889 -0.1503811,-0.13478 0.00416,-0.0393 -0.00909,-0.0585 -0.044191,-0.0642 -0.02757,-0.004 -0.092698,-0.063 -0.1447298,-0.13012 -0.073262,-0.0945 -0.1128393,-0.12379 -0.1754447,-0.12984 -0.075557,-0.007 -0.080666,-0.0138 -0.07816,-0.0998 0.00239,-0.082 -0.036515,-0.14209 -0.3568028,-0.5514 -0.1977168,-0.25267 -0.3596437,-0.47323 -0.3598375,-0.49012 -2.005e-4,-0.0169 0.036303,-0.0635 0.081104,-0.10363 0.2317243,-0.20739 0.4091768,-0.35439 0.427806,-0.35439 0.011491,0 0.1477472,0.0675 0.3027914,0.15011 0.2350272,0.12515 0.2885315,0.14495 0.3217898,0.11905 0.042534,-0.0331 0.67073,-1.40119 0.67073,-1.4607 0,-0.0194 -0.032469,-0.0521 -0.072153,-0.0726 -0.1099699,-0.0569 -0.138595,-0.17572 -0.061006,-0.25331 0.033474,-0.0335 0.069415,-0.0391 0.1724912,-0.027 l 0.1302062,0.0153 0.2333592,-0.51367 c 0.1283476,-0.28253 0.2428375,-0.51368 0.2544219,-0.51368 0.011584,0 0.076706,0.0282 0.1447137,0.0627 0.1345336,0.0682 0.2004676,0.0777 0.2429603,0.0353 0.05306,-0.0531 0.119835,-0.014 0.132992,0.0778 0.01226,0.0856 0.02342,0.0931 0.519798,0.35169 0.278997,0.14534 0.544281,0.30013 0.589521,0.34398 0.07158,0.0694 0.09433,0.0778 0.17523,0.0646 0.184451,-0.0299 0.291801,0.12162 0.195975,0.27667 l -0.05021,0.0812 0.08688,0.12901 c 0.04778,0.071 0.08682,0.14918 0.08676,0.17385 -7.5e-5,0.0247 -0.20308,0.49971 -0.451144,1.05565 -0.248063,0.55594 -0.451024,1.03206 -0.451024,1.05805 0,0.026 0.02256,0.0593 0.05013,0.0741 0.05727,0.0307 0.0689,0.15373 0.01848,0.19558 -0.01741,0.0144 -0.07613,0.0299 -0.130503,0.0344 l -0.09886,0.008 -0.130865,0.28823 c -0.07198,0.15852 -0.131675,0.3132 -0.132664,0.34373 -0.0018,0.0541 -0.251584,0.58485 -0.306326,0.65081 -0.01509,0.0182 -0.04724,0.0331 -0.07144,0.0331 -0.0242,0 -0.06004,0.0242 -0.07965,0.0537 -0.03055,0.046 -0.04359,0.0494 -0.09114,0.024 -0.040445,-0.0216 -0.080891,-0.0226 -0.1491209,-0.004 -0.1168376,0.0324 -0.1149787,0.0325 -0.1512691,-0.004 z m 1.1392,-2.03913 c 0.417708,-0.93657 0.759727,-1.72024 0.760042,-1.7415 7.72e-4,-0.052 -0.306145,-0.47607 -0.337505,-0.46633 -0.01363,0.004 -0.351989,0.6666 -0.751906,1.47192 -0.6086875,1.22572 -0.7362099,1.46551 -0.7829203,1.47215 -0.044988,0.006 -0.086265,-0.0343 -0.21304,-0.21014 -0.2496863,-0.34627 -0.2306904,-0.32776 -0.2986642,-0.29093 -0.032497,0.0176 -0.097346,0.0635 -0.144109,0.10193 l -0.085024,0.0699 0.5212601,0.65645 c 0.2866932,0.36104 0.5327667,0.65261 0.5468297,0.64792 0.01406,-0.005 0.3673287,-0.77481 0.7850367,-1.71138 z m -1.2737077,1.4449 c -0.00459,-0.0125 -0.1737657,-0.2311 -0.3759351,-0.48571 l -0.3675806,-0.46292 -0.4445103,-0.22899 c -0.2444809,-0.12594 -0.4492614,-0.22424 -0.4550684,-0.21843 -0.00581,0.006 0.1379937,0.20053 0.3195569,0.43273 l 0.3301144,0.42217 0.4800026,0.28061 c 0.4735033,0.27681 0.5298765,0.30541 0.5134205,0.26054 z m 0.8894647,-2.37467 c 0.589344,-1.17995 0.715728,-1.45078 0.688933,-1.47634 -0.06251,-0.0596 -1.2505583,-0.66596 -1.2894476,-0.65809 -0.039172,0.008 -1.2589699,2.64796 -1.2611737,2.72957 -7.344e-4,0.0272 0.080763,0.0744 0.2558246,0.14826 0.4713324,0.19886 0.4731545,0.20014 0.6592316,0.46264 0.093179,0.13145 0.181897,0.239 0.1971509,0.239 0.015254,0 0.3525205,-0.65027 0.7494812,-1.44504 z m -1.4702918,1.14346 c 0.073624,-0.0556 0.133861,-0.11512 0.133861,-0.13229 0,-0.0172 -0.1438019,-0.0918 -0.3195599,-0.16576 -0.175758,-0.074 -0.4561193,-0.20619 -0.6230251,-0.29378 -0.1669057,-0.0876 -0.3253365,-0.15926 -0.3520685,-0.15926 -0.052101,0 -0.2536143,0.18947 -0.2283661,0.21472 0.024413,0.0244 1.2074924,0.63531 1.2325116,0.63643 0.012532,5.5e-4 0.083023,-0.0445 0.156647,-0.10006 z m -1.7275234,1.52658 c 0.017002,-0.0171 0.037225,-0.0248 0.044942,-0.0171 0.00772,0.008 -0.00619,0.0217 -0.030912,0.0311 -0.035721,0.0136 -0.038599,0.0107 -0.014031,-0.014 z m 3.9704802,-1.49945 c 0.0055,-0.0165 0.0182,-0.0292 0.0282,-0.0282 0.02997,0.003 0.02416,0.0375 -0.0081,0.0482 -0.01654,0.006 -0.02557,-0.004 -0.02005,-0.02 z m -4.0800504,-1.31709 c -0.023675,-0.0617 0.010385,-0.11278 0.075191,-0.11278 0.069799,0 0.1055455,0.0653 0.06349,0.11596 -0.037984,0.0458 -0.1206257,0.0439 -0.138681,-0.003 z m 1.6117109,-0.80621 c -0.028839,-0.0288 -0.018252,-0.0585 0.020886,-0.0585 0.020677,0 0.037595,0.0169 0.037595,0.0376 0,0.0391 -0.029643,0.0497 -0.058481,0.0209 z m 3.1914215,-0.8089 c 0,-0.013 0.01128,-0.0306 0.02506,-0.0391 0.01379,-0.009 0.02506,0.002 0.02506,0.0236 0,0.0215 -0.01128,0.0391 -0.02506,0.0391 -0.01379,0 -0.02506,-0.0106 -0.02506,-0.0236 z m -0.42508,-0.088 c -0.04391,-0.0529 -0.02158,-0.1253 0.04142,-0.13431 0.07639,-0.0109 0.12247,0.0774 0.06853,0.13136 -0.04879,0.0488 -0.0714,0.0494 -0.109947,0.003 z"
       style="fill:#75b625;stroke-width:0.02506352" />
  </g>
</svg>
