<?xml version="1.0" encoding="UTF-8" standalone="no"?>
<!-- Created with Inkscape (http://www.inkscape.org/) -->

<svg
   xmlns:dc="http://purl.org/dc/elements/1.1/"
   xmlns:cc="http://creativecommons.org/ns#"
   xmlns:rdf="http://www.w3.org/1999/02/22-rdf-syntax-ns#"
   xmlns:svg="http://www.w3.org/2000/svg"
   xmlns="http://www.w3.org/2000/svg"
   xmlns:sodipodi="http://sodipodi.sourceforge.net/DTD/sodipodi-0.dtd"
   xmlns:inkscape="http://www.inkscape.org/namespaces/inkscape"
   id="svg3055"
   version="1.1"
   inkscape:version="0.48.4 r9939"
   width="128"
   height="128"
   sodipodi:docname="BOLTS_logo.svg"
   inkscape:export-filename="/home/jreinhardt/Models/BOLTS/bolts32.png"
   inkscape:export-xdpi="22.5"
   inkscape:export-ydpi="22.5">
  <metadata
     id="metadata3061">
    <rdf:RDF>
      <cc:Work
         rdf:about="">
        <dc:format>image/svg+xml</dc:format>
        <dc:type
           rdf:resource="http://purl.org/dc/dcmitype/StillImage" />
        <dc:title></dc:title>
      </cc:Work>
    </rdf:RDF>
  </metadata>
  <defs
     id="defs3059" />
  <sodipodi:namedview
     pagecolor="#ffffff"
     bordercolor="#666666"
     borderopacity="1"
     objecttolerance="10"
     gridtolerance="10"
     guidetolerance="10"
     inkscape:pageopacity="0"
     inkscape:pageshadow="2"
     inkscape:window-width="1920"
     inkscape:window-height="1031"
     id="namedview3057"
     showgrid="false"
     fit-margin-top="0"
     fit-margin-left="0"
     fit-margin-right="0"
     fit-margin-bottom="0"
     inkscape:zoom="6.796875"
     inkscape:cx="48.587901"
     inkscape:cy="64"
     inkscape:window-x="0"
     inkscape:window-y="25"
     inkscape:window-maximized="1"
     inkscape:current-layer="g4264" />
  <g
     id="g3065"
     transform="translate(-608.48884,-656.54356)">
    <g
       id="g4162">
      <g
         id="g4264"
         transform="matrix(0.26277813,0,0,0.26277813,464.00338,578.38267)">
        <g
           id="g4530"
           transform="matrix(0.9375,0,0,0.9375,49.586851,33.812006)">
          <path
             inkscape:connector-curvature="0"
             style="fill:#1b1b1b;fill-opacity:1;stroke:none"
             d="m 608.52793,725.59721 c 0.26045,-0.44839 2.61048,-1.38181 5.22228,-2.07426 l 4.74872,-1.25901 -1.32891,-2.75132 c -0.73091,-1.51322 -1.89334,-3.92414 -2.58318,-5.35758 -1.87515,-3.89645 -0.0981,-5.70226 6.49147,-6.59639 l 5.42835,-0.73656 -1.79015,-6.05649 -1.79015,-6.05648 6.16104,-1.52758 6.16106,-1.52758 -2.03799,-5.05163 c -3.11844,-7.7298 -2.18743,-8.70239 8.9738,-9.37456 2.04824,-0.12335 2.04054,-0.33033 -0.19367,-5.2048 -3.24925,-7.08902 -2.49052,-8.47163 5.2643,-9.59308 5.44105,-0.78685 5.81718,-0.97999 4.88735,-2.5097 -5.29397,-8.70944 -4.5465,-11.18142 3.73965,-12.36746 l 5.38995,-0.77149 -1.76959,-5.99654 -1.76958,-5.99653 6.3459,-1.61118 6.34591,-1.61118 -2.31218,-4.9309 c -3.1989,-6.82191 -2.26119,-8.38595 5.51243,-9.1943 5.45919,-0.56769 5.65327,-0.67028 4.74636,-2.50911 -4.94617,-10.02873 -4.56259,-11.31944 3.69697,-12.44018 l 5.39777,-0.73242 -1.72542,-6.1086 -1.72541,-6.10856 6.09023,-1.36883 6.09022,-1.36883 -1.82822,-5.96843 -1.82824,-5.96843 6.39684,-1.5476 6.39685,-1.5476 -2.3218,-5.06558 c -3.17873,-6.93516 -2.32546,-8.38132 5.42018,-9.18675 l 5.69193,-0.59189 -1.19005,-2.36968 c -0.65453,-1.30332 -1.65261,-3.30407 -2.21797,-4.44611 -0.56535,-1.14205 -0.78152,-3.11826 -0.48038,-4.39159 0.49499,-2.09297 1.11141,-2.39836 6.42321,-3.18218 6.5318,-0.96385 6.56775,-1.04031 3.19541,-6.79566 -3.00595,-5.13004 -1.84149,-6.83801 5.43757,-7.97555 l 5.74732,-0.89816 -2.08435,-5.27733 c -2.63295,-6.66631 -1.63741,-8.3482 5.54628,-9.3699 l 4.88106,-0.69421 -2.54789,-3.73746 c -1.40134,-2.05561 -2.70787,-4.34087 -2.90339,-5.07835 -0.19553,-0.73749 1.90578,-5.03448 4.66958,-9.54886 l 61.62894,-107.50995 c 0.47303,-4.07795 -3.23321,-7.52971 -15.04537,-14.01235 -10.96991,-6.02039 -11.06509,-6.10367 -12.29989,-10.76108 -1.08576,-4.09529 -1.78662,-4.99745 -5.4969,-7.07584 -2.33886,-1.31015 -4.378,-2.85551 -4.53141,-3.43415 -0.15341,-0.57863 5.73291,-11.30068 13.08071,-23.82679 12.68048,-21.61695 13.60703,-22.9062 18.22639,-25.36109 6.38115,-3.39117 14.0918,-4.52475 21.79263,-3.20385 5.45785,0.93616 15.17955,6.27526 78.54137,43.13449 56.07048,32.61766 73.07067,42.97216 75.68789,46.10009 3.8641,4.61812 7.16768,12.90609 7.97395,20.00496 0.53339,4.69625 0.0533,5.74405 -13.00535,28.38619 -7.45755,12.93047 -14.03224,23.63537 -14.61042,23.78866 -0.57818,0.1533 -2.93044,-0.85247 -5.22724,-2.23504 -3.57316,-2.15088 -4.8138,-2.34466 -8.59424,-1.34237 -4.33641,1.14969 -4.66678,1.0265 -17.83691,-6.65102 -8.03412,-4.68348 -14.18479,-7.61928 -15.32788,-7.31622 -1.23091,0.32634 -14.73909,22.56113 -38.02118,62.58375 l -36.11197,62.07757 -5.79654,1.18715 -5.79655,1.18716 1.79829,6.08018 1.79827,6.08018 -6.02813,1.90798 -6.02813,1.90798 2.01485,4.9943 c 2.48254,6.15355 1.51247,7.48984 -6.33505,8.72664 -4.93759,0.77818 -5.28685,0.98268 -4.33895,2.54053 5.32071,8.74458 4.58003,11.21696 -3.71613,12.40444 l -5.38995,0.77149 1.76959,5.99654 1.76957,5.99653 -5.90856,1.87294 -5.90858,1.87293 1.64658,5.46432 1.64657,5.46433 -6.53401,2.04033 c -5.42216,1.69313 -6.36968,2.26781 -5.56831,3.3772 2.38359,3.29977 4.04171,8.3852 3.06901,9.41259 -0.5546,0.58578 -3.61172,1.67233 -6.79359,2.41455 -5.12284,1.19498 -5.67864,1.53235 -4.8543,2.94694 5.1668,8.8663 4.4707,11.0894 -3.82473,12.215 -6.10679,0.82863 -6.09478,0.7998 -2.87119,6.88739 2.71203,5.12154 1.77378,6.53465 -5.3051,7.98991 l -5.72138,1.17618 1.79863,5.73043 1.79864,5.73042 -6.4488,2.01565 c -3.54684,1.10861 -6.38982,2.23814 -6.31773,2.51006 0.0721,0.27193 1.16358,2.35845 2.42553,4.63671 3.04044,5.48906 1.76783,7.33639 -5.80024,8.41965 l -5.24085,0.75015 1.81188,6.11985 1.81189,6.11985 -6.30951,1.67281 -6.30951,1.67281 2.08986,4.20098 c 3.22051,6.47376 2.75468,7.44647 -4.48543,9.36601 l -6.19608,1.64274 2.10107,4.14349 c 3.1609,6.23354 2.77683,6.97784 -4.61129,8.93662 -5.62172,1.49046 -6.26559,1.87595 -5.4274,3.24941 2.38881,3.91427 3.27625,6.20626 2.87078,7.41434 -0.27949,0.83276 -5.90274,3.03225 -15.46226,6.04793 l -15.02303,4.73922 -31.76966,-18.31873 -31.76967,-18.31872 -2.84926,-10.74683 c -1.56709,-5.91075 -2.63616,-11.11369 -2.3757,-11.56207 z"
             id="path4152" />
          <path
             inkscape:connector-curvature="0"
             id="path4154"
             style="fill:#ffbf00;fill-opacity:1;stroke:none"
             d="m 930.62932,374.15879 2.75562,5.98356 4.28154,-1.13515 c 2.35484,-0.62433 6.03766,-0.89373 8.18403,-0.59866 3.44948,0.47421 2.56824,-0.25289 -7.59149,-6.26369 -6.32169,-3.7401 -11.67073,-6.75332 -11.88675,-6.69605 -0.21603,0.0573 0.0334,0.69416 0.55433,1.41529 0.52092,0.72113 2.18714,4.00375 3.70272,7.2947 z m 30.19195,57.71056 c 11.16948,-19.19838 11.69632,-20.37613 11.41583,-25.52038 -0.40438,-7.41627 -4.72381,-14.66526 -10.5595,-17.72122 -6.56956,-3.44027 -15.6677,-4.93861 -22.33251,-3.67786 l -5.86826,1.11006 -12.35979,21.24805 -12.35979,21.24806 20.17707,11.72026 20.17706,11.72027 z m -122.22982,-111.1697 2.26601,5.85819 5.5044,-0.74765 c 3.02741,-0.41121 6.93306,-0.60546 8.67922,-0.43168 2.5727,0.25604 1.31347,-0.78426 -6.63964,-5.48532 -8.98193,-5.30918 -15.48275,-8.27711 -13.01751,-5.94311 0.51782,0.49026 1.96121,3.52757 3.20752,6.74957 z m -20.63472,55.6907 c 0.97278,0.24947 20.57744,11.37473 43.56591,24.7228 l 41.79722,24.26921 12.29614,-21.31341 12.29614,-21.31342 -1.9215,-4.46849 c -5.60333,-13.03065 -12.72836,-19.37181 -37.45069,-33.33043 -14.49813,-8.18587 -20.43879,-10.95095 -26.40674,-12.29103 -8.19697,-1.84058 -17.96897,-1.8079 -20.75226,0.0694 -1.75126,1.18121 -25.69699,41.30045 -25.3752,42.51418 0.10026,0.37818 0.9782,0.8917 1.95098,1.14117 z m 38.19412,29.79175 c 44.03757,25.57735 77.38804,44.33078 78.05626,43.89212 0.68112,-0.44715 -25.83534,-16.39853 -63.71161,-38.32671 -112.47475,-65.95118 -94.25133,-52.01454 -14.34465,-5.56541 z m -65.6751,-46.25815 19.83768,11.41447 12.26236,-21.06026 12.26236,-21.06025 -1.17439,-4.42955 c -1.5521,-5.85423 -5.36073,-11.36142 -11.01943,-15.93388 -7.59408,-6.13633 -14.81637,-7.10809 -23.88353,-3.21356 -4.08801,1.75589 -5.022,3.0319 -16.26742,22.22412 -6.56172,11.19871 -11.91351,20.42499 -11.89286,20.50286 0.0207,0.0779 8.9645,5.2781 19.87523,11.55605 z m -29.7184,167.88947 c 8.39213,4.03405 18.28219,8.86069 21.97791,10.72588 8.37144,4.22496 39.09751,19.1444 41.87771,20.33428 1.86481,0.79811 5.28274,-4.65563 36.71343,-58.58088 19.06145,-32.7035 35.28265,-60.23156 36.04711,-61.17347 1.25548,-1.54689 -3.0916,-4.30281 -44.93942,-28.49024 -42.89875,-24.79486 -46.32678,-26.58327 -46.29454,-24.15189 0.0213,1.60673 -12.75087,24.57324 -32.90935,59.17656 l -32.94416,56.55076 3.36324,5.18831 c 4.39212,6.77551 4.21238,8.13824 -1.17659,8.92055 l -4.20371,0.61025 3.61497,1.77762 c 1.98825,0.9777 10.48127,5.07822 18.8734,9.11227 z m -20.00547,0.64849 c 5.66197,2.66883 16.12346,7.79474 17.81099,8.72699 1.04396,0.57672 13.87198,6.95217 28.50673,14.16766 21.00226,10.35493 27.21194,12.98092 29.47208,12.46336 2.27646,-0.5213 2.54065,-0.82198 1.28874,-1.46677 -0.8661,-0.44607 -9.32837,-4.59496 -18.80504,-9.21973 -9.47668,-4.62478 -27.13492,-13.28176 -39.24054,-19.23775 -12.10562,-5.95598 -22.36701,-10.73956 -22.80311,-10.63017 -1.27852,0.32076 1.47351,4.11386 3.77015,5.19641 z m 5.40891,11.60269 c 7.348,3.57089 17.67341,8.7142 22.94534,11.42958 5.27193,2.71538 11.43016,5.74954 13.68494,6.74256 2.25478,0.99303 6.81135,3.25392 10.12571,5.0242 10.7964,5.76664 20.05168,9.77869 18.36441,7.96075 -1.6162,-1.74138 -6.344,-4.2107 -39.29222,-20.52234 -9.73044,-4.81723 -22.03503,-10.97552 -27.34353,-13.68509 -8.29607,-4.23448 -12.40823,-5.56783 -11.96022,-3.87805 0.0636,0.23973 6.12757,3.35752 13.47557,6.92839 z m -3.12261,8.81846 c 7.6595,3.75881 15.21188,7.45248 16.78306,8.20815 1.57117,0.75566 12.42547,6.14137 24.12066,11.96823 11.6952,5.82687 22.09528,10.3739 23.11131,10.10452 1.01603,-0.26937 1.80172,-0.66179 1.74598,-0.87204 -0.0557,-0.21025 -8.2544,-4.43785 -18.21923,-9.39467 -9.96484,-4.95681 -20.56287,-10.25043 -23.55118,-11.7636 -2.98831,-1.51316 -13.23835,-6.55868 -22.77786,-11.21226 -13.92421,-6.79253 -17.12712,-8.00862 -16.24185,-6.1668 0.72165,1.50141 5.91544,4.65603 15.02911,9.12847 z m -7.33743,5.38241 c 5.24014,2.59545 19.97268,9.87502 32.73899,16.17683 12.76631,6.3018 25.99328,12.89079 29.39327,14.64221 4.16114,2.14351 5.86529,2.62506 5.21352,1.47324 -0.53257,-0.94114 -12.2236,-7.27405 -25.98008,-14.07313 -37.34296,-18.45661 -37.06303,-18.31665 -45.34652,-22.67036 -3.11204,-1.63566 -6.42255,-2.77128 -7.35669,-2.52362 -1.95871,0.51931 -3.04413,-0.14845 11.33751,6.97483 z m -9.67092,5.4709 c 39.20762,20.02583 70.28704,34.68161 72.37805,34.13052 2.06172,-0.54351 2.14486,-0.75584 0.61661,-1.57639 -2.16995,-1.1651 -26.21506,-13.06453 -46.32977,-22.92764 -8.21289,-4.02713 -18.16894,-8.99345 -22.12455,-11.03626 -8.86257,-4.57692 -11.22221,-5.25786 -10.64247,-3.07121 0.23009,0.86785 2.97604,2.88429 6.10213,4.48098 z m 27.15235,22.41993 c 20.45133,10.07077 38.11812,18.76002 39.25955,19.30946 1.72861,0.83209 2.01122,0.77315 1.69166,-0.3528 -0.21099,-0.74351 -4.47966,-3.29192 -9.48586,-5.66316 -8.48567,-4.01933 -17.67909,-8.56502 -27.70571,-13.69914 -2.31222,-1.18397 -7.6401,-3.80219 -11.83974,-5.81827 -4.19965,-2.01607 -8.49394,-4.13637 -9.54288,-4.71178 -11.32041,-6.20994 -20.18288,-9.71942 -19.67126,-7.78972 0.0605,0.22822 16.84291,8.65465 37.29424,18.72541 z m -34.90267,-7.01774 c 3.4433,1.85178 13.7469,7.0206 22.89689,11.48628 9.14999,4.46567 23.20214,11.39699 31.22699,15.40295 8.02485,4.00595 15.21325,7.11848 15.97423,6.91673 0.76098,-0.20176 2.25009,-0.27354 3.30913,-0.15954 1.76337,0.18985 -8.76351,-5.39447 -24.3081,-12.89498 -3.42477,-1.65252 -11.71757,-5.73877 -18.42844,-9.08056 -6.71086,-3.3418 -14.3754,-7.04962 -17.03232,-8.2396 -2.6569,-1.18999 -7.28696,-3.45405 -10.28899,-5.03125 -3.00205,-1.57719 -6.9789,-3.62833 -8.83745,-4.55809 l -3.3792,-1.69046 1.30336,2.24082 c 0.71684,1.23245 4.12059,3.75592 7.5639,5.6077 z m 11.97793,15.07499 c 9.4063,4.61867 19.54942,9.64232 22.54026,11.16368 18.28947,9.30331 32.39264,15.76869 32.81313,15.04268 0.26741,-0.46171 -0.85642,-1.49139 -2.4974,-2.28817 -1.64099,-0.79678 -13.65039,-6.76774 -26.68756,-13.26878 -39.48948,-19.69162 -47.64701,-23.52848 -49.15841,-23.12146 -1.60342,0.43132 -2.2925,0.0579 22.98998,12.47205 z m -26.48238,-3.20754 c 0.87529,0.6187 6.14299,3.36691 11.70601,6.10714 5.56303,2.74024 13.11838,6.5313 16.78968,8.4246 3.67129,1.89328 9.81598,4.93734 13.65486,6.76457 6.94166,3.30408 24.60737,12.03565 30.3052,14.97884 1.64149,0.8479 4.06087,1.25628 5.3764,0.9075 2.85795,-0.75772 4.45815,0.21543 -17.33166,-10.54003 -23.2108,-11.45686 -30.17738,-14.85989 -35.99706,-17.58385 -2.83162,-1.32537 -9.11049,-4.3997 -13.95305,-6.83183 -12.34315,-6.19926 -12.95849,-6.43221 -12.50861,-4.73534 0.20175,0.76093 1.08295,1.88971 1.95823,2.5084 z m 12.8996,15.79935 c 41.43295,20.69397 60.36179,29.78604 60.72173,29.16639 0.50479,-0.86902 -3.80297,-3.34566 -16.95329,-9.74687 -6.85982,-3.33916 -15.18819,-7.47251 -18.50751,-9.1852 -3.31931,-1.7127 -11.32175,-5.66952 -17.7832,-8.79294 -6.46146,-3.12342 -14.54062,-7.14992 -17.95371,-8.94778 -5.36055,-2.8237 -8.71469,-3.73129 -8.32248,-2.25196 0.0621,0.23415 8.52139,4.62541 18.79846,9.75836 z m -0.2172,10.11525 c 46.29994,23.09037 53.90849,26.66298 55.74631,26.17573 1.03975,-0.27566 1.84449,-0.67454 1.78833,-0.88638 -0.11513,-0.43423 -18.76115,-9.81877 -43.57568,-21.93165 -9.15023,-4.46656 -21.51327,-10.54267 -27.47343,-13.50246 -8.86304,-4.40135 -10.64197,-4.97637 -9.76765,-3.15732 0.70589,1.46862 8.61452,5.98716 23.28212,13.30208 z m -9.60323,4.23441 c 8.50199,4.16771 19.88413,9.85845 25.29366,12.6461 l 24.3472,12.03079 c 7.24976,3.62511 12.30057,5.6284 11.75361,4.6618 -0.52752,-0.93223 -14.39114,-8.31824 -30.80805,-16.41335 -16.41691,-8.09512 -33.62321,-16.6274 -38.23622,-18.96064 -4.61302,-2.33323 -9.05301,-4.06575 -9.86664,-3.85003 -1.81776,0.48193 -2.81945,-0.0834 17.51644,9.88533 z m 12.11019,16.41136 c 41.55203,20.74792 42.28509,21.07843 44.52564,20.07536 1.38478,-0.61996 -7.74542,-5.57525 -36.27509,-19.68777 -20.9691,-10.37261 -39.35191,-19.36069 -40.85067,-19.9735 -2.69385,-1.10147 -2.71052,-1.08947 -1.45801,1.04916 0.76691,1.30943 14.2105,8.62635 34.05813,18.53675 z m -19.69028,-0.81359 c 36.15152,17.96792 54.91807,27.19392 57.63011,28.33211 5.03189,2.11175 2.38932,-0.6314 -3.3837,-3.51226 -3.1149,-1.55453 -6.74306,-3.38653 -8.06256,-4.07111 -2.42317,-1.25717 -11.93073,-6.00748 -44.05979,-22.01382 -15.58922,-7.76637 -20.77335,-9.8587 -20.33557,-8.2075 0.0707,0.26679 8.26591,4.52945 18.21151,9.47258 z m -16.4685,1.97934 c 3.82442,2.08452 12.88226,6.68352 20.12854,10.21999 7.24627,3.53647 21.09809,10.38146 30.7818,15.21108 19.37839,9.66473 20.10751,9.95563 22.30119,8.89755 1.00282,-0.4837 -4.5,-3.70816 -16.18795,-9.48554 -9.73898,-4.814 -21.99645,-10.87438 -27.23884,-13.4675 -33.25134,-16.44763 -37.60004,-18.41615 -37.17951,-16.82999 0.2427,0.9154 3.57034,3.36989 7.39477,5.45441 z m 18.61771,18.47444 c 45.49405,22.4014 49.93852,24.51426 49.70374,23.62871 -0.32924,-1.24184 -7.97539,-5.26186 -43.40105,-22.81844 -4.18989,-2.07646 -13.49464,-6.70913 -20.67723,-10.29481 -7.18258,-3.58568 -13.72928,-6.32916 -14.54823,-6.09665 -1.71352,0.48648 -1.5128,0.59464 28.92277,15.58119 z m 0.15076,10.36877 c 42.65749,21.27074 42.89629,21.3785 45.15051,20.37507 1.46442,-0.65186 -1.42649,-2.46048 -13.1551,-8.23014 -8.26759,-4.06707 -26.12635,-12.88329 -39.68616,-19.59159 -28.09862,-13.90093 -27.71327,-13.73959 -26.54297,-11.11325 0.50802,1.14005 14.36285,8.65149 34.23372,18.55991 z m -19.38559,-0.62125 c 5.50076,2.67498 20.51371,10.0742 33.36209,16.44274 24.69035,12.23818 26.23344,12.9258 25.86183,11.52417 -0.18522,-0.69859 -46.53897,-24.25639 -66.95657,-34.02851 -2.28094,-1.09169 -5.43288,-2.61477 -7.00431,-3.38464 -1.57143,-0.76985 -3.50428,-1.22817 -4.29524,-1.01847 -1.4432,0.38263 0.52465,1.46464 19.0322,10.46471 z m -18.53625,0.99026 c 2.5018,1.3882 9.13179,4.72954 14.73331,7.42519 10.36209,4.9866 47.90965,23.66847 53.69307,26.7151 1.91967,1.01125 4.0136,1.31523 5.29071,0.76804 1.79311,-0.76827 0.24683,-1.82261 -10.19668,-6.95276 -6.77067,-3.32594 -17.21003,-8.47249 -23.19858,-11.43679 -34.74813,-17.20011 -43.71804,-21.54971 -44.59846,-21.62622 -2.3942,-0.20807 0.13009,2.80662 4.27663,5.10744 z m 15.78051,17.01704 c 14.1568,6.94824 32.13458,15.76413 39.95065,19.59087 7.81605,3.82674 13.89332,6.36681 13.50502,5.6446 -0.71613,-1.33197 -38.24507,-20.40408 -70.28017,-35.71621 -6.4739,-3.09439 -9.38546,-3.92642 -9.0285,-2.58003 0.0623,0.23518 11.6962,6.11253 25.853,13.06077 z m -20.21386,0.2123 c 4.29689,2.15113 11.50222,5.72619 16.01184,7.94458 4.50962,2.2184 17.77274,8.82765 29.47359,14.68724 12.15513,6.08707 22.09271,10.4368 23.18361,10.14758 1.05014,-0.27842 1.7901,-0.82377 1.64437,-1.21188 -0.23023,-0.61318 -65.75857,-33.2151 -76.69103,-38.15564 l -4.01844,-1.81599 1.29177,2.24649 c 0.71047,1.23556 4.8074,4.0065 9.10429,6.15762 z m -5.66665,6.28567 c 2.28528,1.19165 10.36574,5.17549 17.95656,8.85298 7.59083,3.6775 22.06898,10.80715 32.17367,15.84367 19.46528,9.70214 21.31501,10.50182 20.92967,9.0484 -0.13367,-0.50418 -10.24109,-5.88261 -22.46094,-11.95206 -25.2794,-12.55598 -33.59537,-16.69988 -44.35684,-22.10335 -4.17389,-2.09576 -9.1022,-4.00283 -10.9518,-4.23794 l -3.36291,-0.42747 2.95877,1.40458 c 1.62732,0.77252 4.82854,2.37955 7.11382,3.57119 z m -10.77758,4.48341 c 1.25538,0.94952 13.77154,7.24451 58.02174,29.18202 6.22353,3.08537 12.38265,6.12288 13.68692,6.75001 1.30427,0.62713 3.84024,1.03138 5.63549,0.89835 3.22086,-0.23868 -3.19297,-3.69902 -36.43006,-19.65451 -8.71675,-4.18449 -34.86408,-17.20371 -40.16121,-19.99698 -3.91036,-2.06201 -4.27355,-2.09396 -3.28959,-0.28945 0.60832,1.11565 1.74985,2.5154 2.53671,3.11056 z m 10.14925,14.45629 c 4.59545,2.30999 16.91647,8.39558 27.38006,13.52355 10.46359,5.12796 21.18641,10.45331 23.82851,11.83412 8.1795,4.27475 12.48008,6.10018 12.24021,5.19546 -0.42703,-1.61067 -3.38379,-3.22672 -28.43191,-15.53986 -13.73975,-6.75417 -28.74304,-14.17697 -33.34065,-16.49512 -13.14617,-6.62838 -15.69795,-7.72123 -17.0909,-7.3195 -0.71657,0.20663 0.57864,1.32652 2.87823,2.48856 2.2996,1.16206 7.941,4.00282 12.53645,6.31279 z m 6.9668,13.81486 c 14.866,7.367 32.09677,15.89172 38.29061,18.94384 7.15891,3.52767 12.07869,5.33266 13.50458,4.95462 2.02524,-0.53694 1.75098,-0.84874 -2.82428,-3.21086 -4.28861,-2.21413 -68.76803,-34.05232 -74.96762,-37.01697 -1.87336,-0.89585 -2.02313,-0.80214 -1.55284,0.97168 0.35822,1.35113 8.94694,6.13897 27.54955,15.35769 z m -5.8361,6.05835 c 13.74307,6.76673 30.81725,15.23089 37.94263,18.80924 7.12537,3.57835 13.69817,6.70439 14.60622,6.94675 3.69752,0.98688 -1.42641,-2.72912 -8.72166,-6.32515 -4.12836,-2.03498 -21.11535,-10.45023 -37.74887,-18.70055 -16.63354,-8.25031 -30.93865,-14.81608 -31.78915,-14.59059 -0.92205,0.24446 -1.08817,0.64156 -0.41148,0.98356 0.6242,0.31548 12.37923,6.11 26.12231,12.87674 z m -18.23,1.33452 c 5.91712,2.92376 22.69299,11.22994 37.27971,18.45817 18.27516,9.05598 27.35384,13.01197 29.19892,12.72329 l 2.67762,-0.41894 -4.27242,-2.26189 c -2.34985,-1.24403 -18.37071,-9.23165 -35.60194,-17.75025 -17.23122,-8.51861 -33.55604,-16.62401 -36.27737,-18.01202 -5.82461,-2.97082 -6.68533,-2.99834 -5.00768,-0.16015 0.68462,1.15822 6.08604,4.49803 12.00316,7.42179 z m 11.07951,13.64295 c 14.21524,6.93803 31.67519,15.46796 38.79988,18.9554 7.12469,3.48744 12.38929,5.78494 11.6991,5.10555 -0.69018,-0.67937 -4.99414,-3.04731 -9.56434,-5.26207 -4.5702,-2.21474 -21.18521,-10.44876 -36.92223,-18.29779 -25.59711,-12.76687 -30.3318,-14.9016 -29.96265,-13.50926 0.0574,0.21646 11.73499,6.07014 25.95024,13.00817 z m 2.78961,20.10124 c 26.59982,15.401 31.31203,17.78917 33.76262,17.11115 2.41768,-0.66892 2.57403,-0.9058 1.03456,-1.56747 -11.20259,-4.81499 -30.74728,-14.72529 -31.01235,-15.72508 -0.18686,-0.70482 0.16873,-1.99541 0.79021,-2.86796 1.24569,-1.74891 1.2578,-1.74432 24.49043,9.2828 8.66275,4.11168 12.98437,5.60981 14.79653,5.12936 2.20781,-0.58535 2.31724,-0.80787 0.79581,-1.61831 -1.38186,-0.73609 -67.25014,-32.8124 -76.28154,-37.14732 -1.93842,-0.93042 -1.98318,-0.65148 -0.68262,4.25399 l 1.39183,5.24969 z" />
        </g>
      </g>
    </g>
  </g>
</svg>
