<?xml version="1.0" encoding="UTF-8" standalone="no"?>
<svg
   xmlns:dc="http://purl.org/dc/elements/1.1/"
   xmlns:cc="http://creativecommons.org/ns#"
   xmlns:rdf="http://www.w3.org/1999/02/22-rdf-syntax-ns#"
   xmlns:svg="http://www.w3.org/2000/svg"
   xmlns="http://www.w3.org/2000/svg"
   xmlns:sodipodi="http://sodipodi.sourceforge.net/DTD/sodipodi-0.dtd"
   xmlns:inkscape="http://www.inkscape.org/namespaces/inkscape"
   id="svg"
   width="400"
   height="400"
   viewBox="0, 0, 400,400"
   version="1.1"
   sodipodi:docname="CADExchanger_workbench_icon1.svg"
   inkscape:version="0.92.4 5da689c313, 2019-01-14">
  <metadata
     id="metadata13">
    <rdf:RDF>
      <cc:Work
         rdf:about="">
        <dc:format>image/svg+xml</dc:format>
        <dc:type
           rdf:resource="http://purl.org/dc/dcmitype/StillImage" />
        <dc:title></dc:title>
      </cc:Work>
    </rdf:RDF>
  </metadata>
  <defs
     id="defs11" />
  <sodipodi:namedview
     pagecolor="#ffffff"
     bordercolor="#666666"
     borderopacity="1"
     objecttolerance="10"
     gridtolerance="10"
     guidetolerance="10"
     inkscape:pageopacity="0"
     inkscape:pageshadow="2"
     inkscape:window-width="2048"
     inkscape:window-height="1093"
     id="namedview9"
     showgrid="false"
     inkscape:zoom="0.59"
     inkscape:cx="-20.338983"
     inkscape:cy="200"
     inkscape:window-x="0"
     inkscape:window-y="31"
     inkscape:window-maximized="1"
     inkscape:current-layer="svg" />
  <g
     id="svgg">
    <path
       id="path0"
       d="M332.400 121.600 C 332.400 121.820,332.085 122.006,331.700 122.013 C 330.579 122.033,329.679 122.946,329.534 124.210 C 329.455 124.905,329.062 125.549,328.569 125.793 C 327.508 126.319,326.321 127.505,325.791 128.569 C 325.390 129.373,325.049 129.403,315.288 129.507 C 309.019 129.573,305.200 129.763,305.200 130.007 C 305.200 130.223,304.560 130.400,303.777 130.400 C 301.386 130.400,298.813 131.226,298.327 132.151 C 298.081 132.618,297.717 133.107,297.518 133.237 C 297.318 133.368,297.052 134.475,296.926 135.697 L 296.697 137.918 285.482 138.059 C 276.967 138.166,274.226 138.320,274.100 138.700 C 274.008 138.975,273.674 139.200,273.357 139.200 C 272.669 139.200,272.000 140.792,272.000 142.426 C 272.000 143.072,271.820 143.600,271.600 143.600 C 271.380 143.600,271.200 144.216,271.200 144.968 L 271.200 146.337 259.367 146.468 C 246.444 146.612,246.400 146.621,246.400 149.020 C 246.400 149.502,245.928 150.224,245.339 150.644 C 244.104 151.524,243.312 152.304,242.200 153.734 L 241.400 154.763 232.624 154.782 C 224.549 154.799,219.200 155.296,219.200 156.030 C 219.200 156.179,218.663 156.407,218.006 156.539 C 217.349 156.670,216.494 157.163,216.106 157.634 C 215.718 158.104,215.173 158.728,214.896 159.020 C 214.618 159.313,214.281 160.356,214.146 161.339 L 213.901 163.127 202.651 163.287 C 191.315 163.449,189.200 163.711,189.200 164.957 C 189.200 165.274,188.978 165.607,188.707 165.698 C 188.340 165.820,188.175 168.362,188.063 175.658 C 187.902 186.085,187.808 185.458,189.769 187.100 C 190.145 187.414,191.635 187.600,193.783 187.600 C 197.161 187.600,197.200 187.611,197.200 188.600 C 197.200 189.150,197.358 189.600,197.550 189.600 C 197.743 189.600,198.005 190.126,198.134 190.769 C 198.383 192.015,199.806 193.600,200.675 193.600 C 200.964 193.600,201.200 193.769,201.200 193.975 C 201.200 194.182,202.024 194.475,203.032 194.626 C 204.039 194.777,204.959 195.148,205.075 195.450 C 205.234 195.865,206.246 196.000,209.184 196.000 L 213.081 196.000 213.334 199.279 C 213.691 203.905,213.417 203.756,221.907 203.938 C 230.017 204.113,229.585 203.891,229.594 207.900 C 229.597 209.563,229.771 210.800,230.000 210.800 C 230.220 210.800,230.400 211.051,230.400 211.357 C 230.400 212.184,231.320 212.400,234.833 212.400 L 238.000 212.400 238.000 221.000 L 238.000 229.600 234.969 229.600 C 230.467 229.600,229.600 230.556,229.600 235.524 L 229.600 239.109 227.858 239.370 C 226.050 239.642,223.600 241.303,223.600 242.258 C 223.600 242.556,223.431 242.800,223.225 242.800 C 223.018 242.800,222.725 243.624,222.574 244.632 C 222.423 245.639,222.052 246.559,221.750 246.675 C 221.335 246.834,221.200 247.855,221.200 250.843 L 221.200 254.800 217.900 254.806 C 213.428 254.814,213.427 254.815,213.263 259.347 L 213.125 263.123 209.582 263.262 C 205.156 263.435,205.037 263.549,204.859 267.820 L 204.718 271.200 201.359 271.200 C 199.386 271.200,198.000 271.365,198.000 271.600 C 198.000 271.820,197.749 272.000,197.443 272.000 C 196.616 272.000,196.400 272.920,196.400 276.433 L 196.400 279.600 192.000 279.600 C 189.333 279.600,187.600 279.758,187.600 280.000 C 187.600 280.220,186.758 280.400,185.728 280.400 C 181.724 280.400,180.400 281.713,180.400 285.686 C 180.400 288.008,180.423 288.000,173.623 288.000 C 163.823 288.000,163.656 288.085,163.301 293.262 L 163.086 296.400 129.966 296.400 C 108.318 296.400,96.762 296.539,96.600 296.800 C 96.464 297.020,95.913 297.200,95.376 297.200 C 94.839 297.200,94.400 297.358,94.400 297.550 C 94.400 297.743,93.835 298.013,93.145 298.151 C 91.391 298.502,90.050 300.115,89.500 302.538 C 89.242 303.672,88.799 304.838,88.515 305.129 C 88.129 305.525,88.000 307.697,88.000 313.797 L 88.000 321.936 86.800 322.168 C 86.140 322.296,85.060 322.504,84.400 322.632 C 83.740 322.759,83.200 323.017,83.200 323.205 C 83.200 323.393,82.876 323.649,82.480 323.775 C 81.633 324.043,80.969 325.777,80.594 328.700 C 80.446 329.855,80.162 330.800,79.962 330.800 C 79.758 330.800,79.600 334.265,79.600 338.749 L 79.600 346.698 77.557 346.894 C 76.434 347.002,75.399 347.251,75.257 347.446 C 75.116 347.641,74.521 348.048,73.935 348.349 C 72.786 348.941,72.000 351.145,72.000 353.777 C 72.000 354.560,71.820 355.200,71.600 355.200 C 71.347 355.200,71.200 358.056,71.200 362.967 C 71.200 372.112,71.226 372.000,69.104 372.000 C 63.921 372.000,63.618 372.664,63.315 384.685 C 63.076 394.172,63.323 396.000,64.849 396.000 C 65.484 396.000,65.600 396.310,65.600 398.000 L 65.600 400.000 126.600 400.000 L 187.600 400.000 187.600 398.000 L 187.600 396.000 198.800 396.000 C 206.000 396.000,210.000 395.857,210.000 395.600 C 210.000 395.380,210.324 395.200,210.720 395.200 C 211.743 395.200,212.400 394.412,212.400 393.183 C 212.400 392.389,212.742 391.942,213.773 391.386 C 214.529 390.980,215.384 390.186,215.673 389.623 C 216.672 387.683,216.939 387.626,225.100 387.613 C 229.958 387.605,232.800 387.452,232.800 387.200 C 232.800 386.980,233.402 386.800,234.138 386.800 C 235.794 386.800,236.800 385.768,236.800 384.069 C 236.800 383.371,236.980 382.800,237.200 382.800 C 237.420 382.800,237.600 382.015,237.600 381.056 L 237.600 379.312 244.243 379.111 C 247.932 378.999,251.000 378.734,251.143 378.514 C 251.284 378.297,251.790 377.914,252.267 377.663 C 253.155 377.196,253.368 376.544,253.811 372.938 L 254.065 370.875 257.847 370.738 C 262.342 370.574,262.385 370.534,262.394 366.471 C 262.402 362.653,262.663 362.403,266.671 362.388 C 270.377 362.373,275.658 361.740,275.975 361.272 C 276.099 361.090,276.498 360.832,276.862 360.698 C 277.227 360.564,277.646 359.902,277.794 359.227 C 277.942 358.552,278.229 358.000,278.432 358.000 C 278.634 358.000,278.800 357.126,278.800 356.058 L 278.800 354.115 282.100 353.851 C 285.779 353.556,286.800 352.883,286.800 350.756 C 286.800 350.120,286.980 349.600,287.200 349.600 C 287.420 349.600,287.600 348.790,287.600 347.800 L 287.600 346.000 290.200 346.000 C 291.667 346.000,292.800 345.826,292.800 345.600 C 292.800 345.380,293.124 345.200,293.520 345.200 C 294.442 345.200,295.200 344.442,295.200 343.520 C 295.200 343.124,295.380 342.800,295.600 342.800 C 295.826 342.800,296.000 341.667,296.000 340.200 L 296.000 337.600 298.200 337.600 C 299.410 337.600,300.400 337.420,300.400 337.200 C 300.400 336.980,300.918 336.800,301.551 336.800 C 303.221 336.800,303.648 336.010,303.890 332.469 L 304.107 329.308 307.025 329.062 C 311.184 328.710,311.882 327.989,312.242 323.668 L 312.515 320.400 314.258 320.400 C 315.216 320.400,316.000 320.252,316.000 320.071 C 316.000 319.889,316.675 319.574,317.500 319.371 C 318.792 319.051,319.051 318.792,319.371 317.500 C 319.574 316.675,319.889 316.000,320.071 316.000 C 320.252 316.000,320.400 315.485,320.400 314.856 C 320.400 312.371,320.915 310.000,321.454 310.000 C 321.754 310.000,322.000 309.855,322.000 309.677 C 322.000 309.499,322.717 309.038,323.593 308.651 C 324.920 308.066,325.302 307.620,325.887 305.974 C 326.488 304.280,326.738 304.000,327.651 304.000 C 329.020 304.000,329.200 303.461,329.200 299.367 L 329.200 296.000 331.800 296.000 C 333.267 296.000,334.400 295.826,334.400 295.600 C 334.400 295.380,334.724 295.200,335.120 295.200 C 336.042 295.200,336.800 294.442,336.800 293.520 C 336.800 293.124,336.980 292.800,337.200 292.800 C 337.436 292.800,337.600 291.373,337.600 289.320 C 337.600 286.613,337.707 285.947,338.080 286.320 C 338.344 286.584,338.884 286.800,339.280 286.800 C 339.676 286.800,340.000 286.980,340.000 287.200 C 340.000 287.435,341.386 287.600,343.357 287.600 C 347.005 287.600,347.200 287.723,347.200 290.033 C 347.200 290.675,347.362 291.200,347.561 291.200 C 347.759 291.200,348.110 291.740,348.340 292.400 C 348.570 293.060,349.023 293.600,349.346 293.600 C 349.669 293.600,349.994 293.781,350.068 294.003 C 350.141 294.224,351.326 294.603,352.701 294.845 C 354.075 295.087,355.200 295.446,355.200 295.643 C 355.200 295.839,356.977 296.000,359.150 296.000 L 363.100 296.000 363.279 299.409 C 363.502 303.664,363.569 303.727,368.167 303.928 C 372.266 304.107,372.381 304.187,372.395 306.871 C 372.398 307.461,372.635 308.181,372.922 308.471 C 373.210 308.762,373.564 309.315,373.710 309.700 C 373.856 310.085,374.238 310.400,374.559 310.400 C 374.880 310.400,375.393 310.650,375.698 310.955 C 376.349 311.606,382.987 312.408,387.516 312.383 C 393.302 312.350,395.159 311.556,395.187 309.100 C 395.194 308.495,395.380 308.000,395.600 308.000 C 395.857 308.000,396.000 304.200,396.000 297.400 C 396.000 290.600,395.857 286.800,395.600 286.800 C 395.380 286.800,395.182 286.035,395.160 285.100 C 395.075 281.484,394.024 280.478,390.271 280.423 C 387.452 280.381,387.600 281.678,387.600 257.029 C 387.600 242.476,387.462 234.800,387.200 234.800 C 386.980 234.800,386.800 234.362,386.800 233.826 C 386.800 232.273,386.057 230.740,385.195 230.515 C 384.758 230.400,384.400 230.148,384.400 229.953 C 384.400 229.759,384.040 229.600,383.600 229.600 C 383.160 229.600,382.800 229.780,382.800 230.000 C 382.800 230.220,382.350 230.400,381.800 230.400 C 381.250 230.400,380.800 230.220,380.800 230.000 C 380.800 229.780,380.448 229.600,380.018 229.600 C 379.251 229.600,379.233 229.113,379.118 205.385 C 379.028 186.923,378.885 181.099,378.514 180.870 C 378.247 180.705,377.827 179.632,377.581 178.485 C 377.335 177.338,377.007 176.400,376.853 176.400 C 376.699 176.400,376.262 175.874,375.882 175.231 C 375.463 174.522,374.720 173.958,373.996 173.799 C 373.338 173.655,372.800 173.371,372.800 173.168 C 372.800 172.966,372.359 172.800,371.819 172.800 L 370.839 172.800 370.719 151.133 C 370.626 134.241,370.490 129.430,370.100 129.300 C 369.825 129.208,369.600 128.620,369.600 127.993 C 369.600 125.045,367.812 123.020,364.712 122.457 C 363.564 122.248,362.560 121.880,362.480 121.639 C 362.285 121.054,332.400 121.015,332.400 121.600 "
       stroke="none"
       fill="#3cac4c"
       fill-rule="evenodd" />
    <path
       id="path1"
       d="M213.200 2.400 L 213.200 4.800 202.300 4.862 C 196.305 4.896,190.995 4.890,190.500 4.847 C 190.005 4.805,189.600 4.937,189.600 5.140 C 189.600 5.344,189.285 5.486,188.900 5.456 C 188.458 5.420,188.199 5.683,188.198 6.167 C 188.197 6.589,187.931 7.023,187.605 7.132 C 187.280 7.240,186.773 7.570,186.479 7.864 C 186.184 8.159,185.712 8.400,185.429 8.400 C 184.683 8.400,182.882 10.716,182.588 12.053 L 182.336 13.200 175.868 13.254 C 172.311 13.283,168.635 13.267,167.700 13.218 C 166.765 13.168,166.000 13.307,166.000 13.527 C 166.000 13.746,165.672 13.839,165.272 13.735 C 164.391 13.504,163.421 14.557,163.743 15.395 C 163.870 15.728,163.784 16.000,163.551 16.000 C 163.306 16.000,163.166 16.714,163.218 17.700 C 163.417 21.477,163.783 21.200,158.600 21.200 C 155.800 21.200,154.000 21.357,154.000 21.600 C 154.000 21.820,153.730 22.000,153.400 22.000 C 153.070 22.000,152.800 21.820,152.800 21.600 C 152.800 21.380,152.170 21.200,151.400 21.200 C 150.464 21.200,150.000 21.386,150.000 21.763 C 150.000 22.118,149.721 22.252,149.241 22.127 C 147.845 21.762,146.686 22.728,146.947 24.037 C 147.086 24.728,147.010 25.200,146.761 25.200 C 146.507 25.200,146.393 26.023,146.471 27.300 L 146.600 29.400 143.811 29.520 C 142.209 29.589,140.890 29.845,140.711 30.120 C 140.476 30.483,140.313 30.465,140.042 30.045 C 139.142 28.648,138.142 30.819,138.038 34.397 C 137.918 38.502,138.719 37.978,132.473 38.039 C 128.270 38.080,127.200 38.203,127.200 38.645 C 127.200 38.950,126.930 39.200,126.600 39.200 C 126.270 39.200,126.000 39.020,126.000 38.800 C 126.000 38.580,125.550 38.400,125.000 38.400 C 124.450 38.400,124.000 38.580,124.000 38.800 C 124.000 39.020,123.726 39.200,123.390 39.200 C 122.592 39.200,121.883 41.104,122.161 42.500 C 122.321 43.302,122.220 43.600,121.790 43.600 C 121.386 43.600,121.200 44.028,121.200 44.957 C 121.200 46.548,120.719 46.820,118.449 46.516 C 117.377 46.372,116.800 46.450,116.800 46.737 C 116.800 47.013,116.361 47.092,115.637 46.947 C 114.328 46.686,113.362 47.845,113.727 49.241 C 113.836 49.658,113.759 50.000,113.556 50.000 C 113.354 50.000,113.229 50.982,113.279 52.182 C 113.393 54.902,113.531 54.794,109.872 54.863 C 107.312 54.912,106.778 55.038,106.587 55.640 C 106.462 56.036,106.036 56.462,105.640 56.587 C 105.038 56.778,104.912 57.312,104.863 59.872 C 104.793 63.561,105.141 63.211,101.469 63.286 C 99.372 63.328,98.366 63.511,98.227 63.874 C 98.116 64.163,97.794 64.397,97.513 64.394 C 97.149 64.390,97.175 64.264,97.600 63.963 C 98.133 63.586,98.133 63.558,97.600 63.711 C 97.270 63.806,97.053 64.179,97.118 64.541 C 97.182 64.904,97.036 65.200,96.792 65.200 C 96.548 65.200,96.387 65.695,96.435 66.300 C 96.714 69.876,96.434 71.200,95.400 71.200 C 94.850 71.200,94.400 71.380,94.400 71.600 C 94.400 71.820,94.130 72.000,93.800 72.000 C 93.470 72.000,93.200 71.820,93.200 71.600 C 93.200 71.380,92.750 71.200,92.200 71.200 C 91.561 71.200,91.200 71.425,91.200 71.824 C 91.200 72.174,91.008 72.328,90.762 72.176 C 90.196 71.827,88.400 72.783,88.400 73.434 C 88.400 73.709,88.625 74.024,88.900 74.135 C 89.189 74.252,89.093 74.350,88.673 74.368 C 88.087 74.394,87.965 74.691,88.043 75.900 C 88.254 79.155,88.104 79.600,86.800 79.600 C 86.071 79.600,85.600 79.808,85.600 80.129 C 85.600 80.501,85.010 80.650,83.621 80.629 C 81.119 80.592,80.592 81.119,80.629 83.621 C 80.650 85.010,80.501 85.600,80.129 85.600 C 79.763 85.600,79.600 86.199,79.600 87.549 L 79.600 89.498 78.000 89.754 C 77.120 89.894,76.400 90.149,76.400 90.318 C 76.400 90.488,75.874 90.938,75.231 91.318 C 74.522 91.737,73.958 92.480,73.799 93.204 C 73.655 93.862,73.371 94.400,73.168 94.400 C 72.966 94.400,72.800 94.838,72.800 95.373 C 72.800 96.015,72.510 96.438,71.947 96.617 C 71.264 96.834,71.204 96.964,71.647 97.274 C 72.074 97.573,72.086 97.707,71.700 97.864 C 71.356 98.004,71.200 99.115,71.200 101.433 L 71.200 104.800 69.100 104.873 C 67.945 104.914,66.595 104.925,66.100 104.898 C 65.605 104.871,65.200 105.026,65.200 105.242 C 65.200 105.458,64.885 105.582,64.500 105.518 C 64.040 105.440,63.819 105.640,63.856 106.100 C 63.886 106.485,63.744 106.800,63.540 106.800 C 63.337 106.800,63.205 107.205,63.247 107.700 C 63.554 111.268,63.187 113.949,62.400 113.890 C 61.960 113.857,61.600 113.677,61.600 113.489 C 61.600 113.302,61.105 113.187,60.500 113.235 C 59.895 113.282,58.016 113.293,56.325 113.260 L 53.250 113.200 53.477 111.801 C 53.714 110.345,52.933 106.800,52.377 106.800 C 52.201 106.800,51.753 106.495,51.380 106.123 C 50.905 105.648,50.004 105.440,48.354 105.423 C 47.062 105.410,46.004 105.257,46.002 105.082 C 46.001 104.908,45.775 104.794,45.500 104.830 C 45.225 104.866,43.335 104.873,41.300 104.847 L 37.600 104.800 37.600 102.433 C 37.600 100.914,37.421 99.994,37.100 99.865 C 36.700 99.704,36.700 99.657,37.100 99.632 C 37.689 99.594,37.787 98.000,37.200 98.000 C 36.980 98.000,36.800 97.733,36.800 97.408 C 36.800 96.859,35.438 96.256,34.574 96.423 C 33.712 96.589,27.842 96.320,28.300 96.135 C 28.848 95.914,29.007 92.800,28.471 92.800 C 28.289 92.800,27.974 92.125,27.771 91.300 C 27.451 90.008,27.192 89.749,25.900 89.429 C 25.075 89.226,24.400 88.911,24.400 88.729 C 24.400 88.548,23.680 88.400,22.800 88.400 C 21.920 88.400,21.200 88.580,21.200 88.800 C 21.200 89.020,21.020 89.200,20.800 89.200 C 20.580 89.200,20.400 88.955,20.400 88.656 C 20.400 88.220,19.166 88.114,14.200 88.122 C 9.302 88.130,8.000 88.244,8.000 88.666 C 8.000 88.960,7.820 89.200,7.600 89.200 C 7.380 89.200,7.200 89.020,7.200 88.800 C 7.200 88.580,7.012 88.400,6.782 88.400 C 6.553 88.400,6.418 88.696,6.482 89.059 C 6.547 89.421,6.330 89.794,6.000 89.889 C 5.467 90.042,5.467 90.010,6.000 89.600 C 6.533 89.190,6.533 89.158,6.000 89.310 C 5.670 89.404,5.414 89.868,5.432 90.340 C 5.449 90.813,5.324 91.200,5.154 91.200 C 4.984 91.200,4.849 96.780,4.854 103.600 C 4.859 110.591,5.018 116.000,5.219 116.000 C 5.416 116.000,5.536 116.675,5.488 117.500 C 5.418 118.700,5.537 118.989,6.084 118.947 C 6.461 118.918,6.754 119.008,6.737 119.147 C 6.629 120.009,6.898 120.400,7.600 120.400 C 8.040 120.400,8.400 120.220,8.400 120.000 C 8.400 119.780,8.580 119.600,8.800 119.600 C 9.020 119.600,9.200 119.893,9.200 120.251 C 9.200 120.791,9.541 120.869,11.200 120.710 L 13.200 120.517 13.252 142.159 C 13.280 154.061,13.263 164.655,13.215 165.700 C 13.158 166.925,13.291 167.600,13.590 167.600 C 13.869 167.600,13.955 167.913,13.805 168.385 C 13.406 169.641,14.267 170.800,15.600 170.800 C 16.378 170.800,16.922 171.080,17.218 171.634 C 17.862 172.837,19.280 174.400,19.728 174.400 C 21.098 174.400,21.174 175.505,21.187 195.500 C 21.196 208.358,21.339 215.200,21.600 215.200 C 21.820 215.200,22.000 215.560,22.000 216.000 C 22.000 216.440,21.820 216.800,21.600 216.800 C 21.380 216.800,21.200 217.250,21.200 217.800 C 21.200 218.417,21.427 218.800,21.792 218.800 C 22.118 218.800,22.498 219.250,22.636 219.800 C 22.774 220.350,23.137 220.800,23.443 220.800 C 23.750 220.800,24.000 221.057,24.000 221.371 C 24.000 221.686,24.225 222.186,24.500 222.484 C 24.775 222.781,25.301 223.554,25.668 224.202 C 26.099 224.961,26.916 225.572,27.968 225.923 C 29.766 226.522,30.269 227.617,28.600 227.298 C 28.050 227.193,27.600 226.992,27.600 226.851 C 27.600 226.710,27.060 226.356,26.400 226.064 C 25.740 225.772,25.200 225.297,25.200 225.009 C 25.200 224.721,24.940 224.386,24.622 224.264 C 24.304 224.142,23.924 223.403,23.778 222.621 C 23.631 221.839,23.345 221.200,23.143 221.200 C 22.940 221.200,22.595 220.795,22.376 220.300 C 21.993 219.436,21.986 219.439,22.204 220.400 C 22.329 220.950,22.538 221.985,22.668 222.700 C 22.798 223.415,23.061 224.000,23.252 224.000 C 23.444 224.000,23.600 224.220,23.600 224.490 C 23.600 225.280,26.464 227.600,27.440 227.600 C 29.732 227.600,29.600 226.388,29.600 247.443 C 29.600 260.081,29.739 266.800,30.000 266.800 C 30.220 266.800,30.400 267.160,30.400 267.600 C 30.400 268.040,30.220 268.400,30.000 268.400 C 29.780 268.400,29.600 268.850,29.600 269.400 C 29.600 269.950,29.825 270.401,30.100 270.402 C 30.434 270.404,30.610 271.118,30.630 272.551 C 30.682 276.242,31.958 278.000,34.585 278.000 C 35.107 278.000,35.608 278.225,35.700 278.500 C 35.960 279.281,69.600 279.421,69.600 278.641 C 69.600 278.336,69.870 277.982,70.200 277.855 C 70.530 277.729,70.800 277.386,70.800 277.093 C 70.800 276.800,71.475 276.319,72.300 276.024 C 74.202 275.344,75.344 274.202,76.024 272.300 C 76.630 270.607,77.599 270.227,77.298 271.800 C 77.193 272.350,76.981 272.800,76.828 272.800 C 76.675 272.800,76.312 273.406,76.021 274.146 C 75.661 275.064,75.064 275.661,74.146 276.021 C 73.406 276.312,72.800 276.696,72.800 276.875 C 72.800 277.054,72.462 277.200,72.049 277.200 C 71.223 277.200,70.134 278.268,70.543 278.676 C 70.684 278.818,70.800 278.738,70.800 278.500 C 70.800 278.261,71.680 277.878,72.755 277.647 C 75.359 277.089,77.089 275.359,77.647 272.755 L 78.066 270.800 86.733 270.746 C 91.500 270.717,96.165 270.733,97.100 270.782 C 98.425 270.852,98.800 270.732,98.800 270.236 C 98.800 269.886,98.980 269.600,99.200 269.600 C 99.420 269.600,99.600 269.780,99.600 270.000 C 99.600 270.220,100.050 270.400,100.600 270.400 C 101.150 270.400,101.600 270.220,101.600 270.000 C 101.600 269.780,101.864 269.600,102.186 269.600 C 103.017 269.600,103.707 268.113,103.508 266.754 C 103.415 266.119,103.487 265.600,103.669 265.600 C 103.851 265.600,104.000 264.880,104.000 264.000 L 104.000 262.400 114.100 262.327 C 119.655 262.287,124.695 262.287,125.300 262.328 C 125.905 262.369,126.400 262.203,126.400 261.959 C 126.400 261.714,126.670 261.618,127.000 261.745 C 127.806 262.054,128.800 261.638,128.800 260.991 C 128.800 260.702,128.575 260.376,128.300 260.265 C 127.971 260.132,128.015 260.052,128.428 260.032 C 128.931 260.006,129.066 259.435,129.108 257.153 C 129.137 255.587,129.225 254.241,129.304 254.163 C 129.383 254.084,134.712 254.005,141.148 253.988 C 152.710 253.957,154.207 253.858,153.774 253.158 C 153.652 252.961,154.193 252.800,154.976 252.800 C 155.759 252.800,156.400 252.632,156.400 252.427 C 156.400 252.222,156.805 251.927,157.300 251.771 C 158.936 251.258,160.800 248.600,160.800 246.781 C 160.800 246.031,161.134 246.000,169.167 246.000 C 175.486 246.000,177.583 245.878,177.735 245.500 C 177.896 245.100,177.943 245.100,177.968 245.500 C 178.015 246.238,179.600 246.117,179.600 245.375 C 179.600 244.864,179.919 244.799,181.362 245.015 C 185.169 245.586,187.249 243.441,186.602 239.613 C 186.263 237.608,186.240 237.612,197.267 237.605 C 204.125 237.601,206.390 237.478,206.567 237.100 C 206.753 236.700,206.847 236.700,207.033 237.100 C 207.384 237.851,209.200 237.732,209.200 236.957 C 209.200 236.537,209.418 236.398,209.829 236.556 C 210.814 236.934,212.108 236.055,211.875 235.166 C 211.765 234.745,211.823 234.400,212.004 234.400 C 212.184 234.400,212.343 229.829,212.357 224.241 C 212.383 213.738,212.276 213.014,210.730 213.223 C 210.438 213.263,208.636 213.273,206.725 213.247 L 203.250 213.200 203.477 211.801 C 203.714 210.345,202.933 206.800,202.377 206.800 C 202.201 206.800,201.753 206.495,201.380 206.123 C 200.905 205.648,200.004 205.440,198.354 205.423 C 197.062 205.410,196.004 205.257,196.002 205.082 C 196.001 204.908,195.775 204.794,195.500 204.830 C 195.225 204.866,193.335 204.873,191.300 204.847 L 187.600 204.800 187.600 203.000 C 187.600 202.010,187.420 201.200,187.200 201.200 C 186.980 201.200,186.800 200.930,186.800 200.600 C 186.800 200.270,186.980 200.000,187.200 200.000 C 187.420 200.000,187.600 199.640,187.600 199.200 C 187.600 198.751,187.333 198.400,186.991 198.400 C 186.657 198.400,186.176 197.946,185.923 197.391 C 185.561 196.597,185.202 196.400,184.232 196.463 C 183.554 196.507,181.551 196.511,179.780 196.472 L 176.561 196.400 176.024 194.900 C 175.344 192.998,174.202 191.856,172.300 191.176 C 171.475 190.881,170.779 190.360,170.754 190.020 C 170.728 189.679,170.683 189.130,170.654 188.800 C 170.611 188.320,169.805 188.175,166.609 188.076 C 164.414 188.007,162.549 187.883,162.466 187.799 C 162.306 187.639,162.369 171.097,162.530 170.936 C 162.582 170.885,164.103 170.799,165.912 170.746 C 168.422 170.671,169.200 170.515,169.200 170.087 C 169.200 169.778,169.554 169.432,169.988 169.319 C 170.421 169.206,170.752 168.818,170.724 168.457 C 170.696 168.095,170.702 166.518,170.737 164.952 L 170.800 162.103 173.200 161.832 C 174.520 161.682,175.600 161.418,175.600 161.244 C 175.600 161.071,176.040 160.728,176.578 160.483 C 177.265 160.170,177.640 159.585,177.836 158.518 C 177.990 157.683,178.246 156.910,178.406 156.800 C 178.803 156.526,179.179 152.840,179.190 149.100 L 179.200 146.000 181.967 146.000 C 183.805 146.000,184.801 145.832,184.936 145.500 C 185.094 145.112,185.225 145.123,185.522 145.547 C 185.835 145.994,186.062 145.938,186.753 145.247 C 187.718 144.282,187.821 143.756,187.100 143.465 C 186.700 143.304,186.700 143.257,187.100 143.232 C 187.449 143.210,187.600 142.356,187.600 140.400 L 187.600 137.600 190.167 137.600 C 191.846 137.600,192.803 137.427,192.935 137.100 C 193.096 136.700,193.143 136.700,193.168 137.100 C 193.220 137.910,194.288 137.672,194.516 136.800 C 194.631 136.360,195.012 136.000,195.363 136.000 C 196.115 136.000,196.223 134.957,195.500 134.665 C 195.100 134.504,195.100 134.457,195.500 134.432 C 195.845 134.410,196.000 133.596,196.000 131.800 L 196.000 129.200 199.586 129.200 C 203.935 129.200,204.000 129.126,204.000 124.226 L 204.000 120.800 209.800 120.800 C 215.045 120.800,215.603 120.733,215.632 120.100 C 215.650 119.682,215.744 119.601,215.865 119.900 C 216.227 120.796,218.023 120.439,219.231 119.231 C 220.439 118.023,220.796 116.227,219.900 115.865 C 219.601 115.744,219.682 115.650,220.100 115.632 C 220.645 115.607,220.800 115.245,220.800 114.000 L 220.800 112.400 226.300 112.330 C 229.325 112.291,232.475 112.304,233.300 112.357 C 234.147 112.412,234.800 112.270,234.800 112.032 C 234.800 111.799,235.205 111.652,235.700 111.705 C 236.402 111.779,236.593 111.602,236.568 110.900 C 236.551 110.402,236.774 110.000,237.068 110.000 C 237.369 110.000,237.600 109.565,237.600 109.000 C 237.600 108.450,237.420 108.000,237.200 108.000 C 236.980 108.000,236.800 107.730,236.800 107.400 C 236.800 107.070,236.980 106.800,237.200 106.800 C 237.420 106.800,237.600 106.170,237.600 105.400 L 237.600 104.000 270.400 103.950 C 288.440 103.922,303.335 103.868,303.500 103.829 C 303.665 103.791,304.813 103.623,306.050 103.457 C 308.331 103.151,310.800 101.653,310.800 100.575 C 310.800 100.296,311.000 100.000,311.245 99.918 C 311.494 99.835,311.715 98.760,311.745 97.486 C 311.775 96.229,311.916 95.201,312.058 95.201 C 312.200 95.200,312.343 91.382,312.376 86.715 C 312.432 78.950,312.602 76.938,313.088 78.300 C 313.283 78.846,316.000 79.005,316.000 78.471 C 316.000 78.289,316.675 77.974,317.500 77.771 C 318.792 77.451,319.051 77.192,319.371 75.900 C 319.574 75.075,319.889 74.400,320.071 74.400 C 320.607 74.400,320.448 71.286,319.900 71.065 C 319.610 70.948,319.705 70.850,320.125 70.832 C 320.567 70.812,320.822 70.526,320.779 70.100 C 320.394 66.310,320.868 54.000,321.400 54.000 C 321.730 54.000,322.000 53.849,322.000 53.664 C 322.000 53.478,323.096 53.342,324.435 53.360 C 327.056 53.396,328.035 52.749,327.968 51.024 C 327.946 50.448,327.871 50.381,327.718 50.800 C 327.386 51.712,325.558 53.206,324.838 53.154 C 324.320 53.116,324.332 53.073,324.900 52.924 C 325.285 52.824,325.600 52.587,325.600 52.398 C 325.600 52.209,325.942 51.945,326.360 51.813 C 326.778 51.680,327.251 51.083,327.410 50.486 C 327.569 49.889,327.781 49.625,327.883 49.900 C 328.202 50.768,328.800 50.442,328.800 49.400 C 328.800 48.850,328.620 48.400,328.400 48.400 C 328.180 48.400,328.000 48.040,328.000 47.600 C 328.000 47.139,328.267 46.800,328.629 46.800 C 329.035 46.800,329.232 46.482,329.184 45.900 C 329.144 45.405,329.131 41.445,329.156 37.100 L 329.200 29.200 330.800 29.200 C 332.045 29.200,332.407 29.045,332.432 28.500 C 332.450 28.082,332.544 28.001,332.665 28.300 C 332.904 28.892,334.800 28.981,334.800 28.400 C 334.800 28.180,335.074 28.000,335.410 28.000 C 336.153 28.000,336.919 26.136,336.683 24.901 C 336.573 24.323,336.706 24.000,337.055 24.000 C 337.763 24.000,337.804 20.949,337.100 20.665 C 336.700 20.504,336.700 20.457,337.100 20.432 C 337.479 20.408,337.600 18.763,337.600 13.633 C 337.600 8.594,337.472 6.815,337.100 6.665 C 336.700 6.504,336.700 6.457,337.100 6.432 C 337.905 6.381,337.674 5.277,336.800 5.000 C 336.118 4.784,336.000 4.395,336.000 2.373 C 336.000 -1.109,334.895 -1.002,334.696 2.500 L 334.554 5.000 334.477 2.500 L 334.400 0.000 273.800 0.000 L 213.200 0.000 213.200 2.400 M186.261 11.402 C 184.578 13.085,183.200 13.715,183.200 12.800 C 183.200 12.580,183.386 12.400,183.613 12.400 C 183.839 12.400,184.141 12.085,184.283 11.700 C 184.424 11.315,184.958 10.604,185.468 10.121 C 188.212 7.521,188.950 8.713,186.261 11.402 M318.142 76.414 C 317.514 77.054,316.730 77.569,316.400 77.557 C 315.959 77.542,315.939 77.481,316.324 77.327 C 317.207 76.974,318.798 75.341,318.832 74.754 C 318.857 74.316,318.907 74.310,319.073 74.725 C 319.189 75.014,318.770 75.774,318.142 76.414 M26.431 90.769 C 27.074 91.412,27.586 92.177,27.568 92.469 C 27.543 92.901,27.498 92.902,27.328 92.477 C 27.057 91.802,25.398 90.143,24.723 89.872 C 24.298 89.702,24.299 89.657,24.731 89.632 C 25.023 89.614,25.788 90.126,26.431 90.769 M78.732 91.339 C 77.456 91.906,74.815 94.689,74.292 96.018 C 74.111 96.478,74.057 96.459,74.032 95.929 C 74.014 95.559,74.225 95.014,74.500 94.716 C 74.775 94.419,75.300 93.647,75.667 93.001 C 76.034 92.355,76.934 91.609,77.667 91.344 C 79.380 90.723,80.126 90.720,78.732 91.339 M310.569 98.897 C 310.216 100.010,308.377 102.000,307.701 102.000 C 307.426 102.000,307.200 102.180,307.200 102.400 C 307.200 102.620,307.020 102.800,306.800 102.800 C 306.040 102.800,306.403 102.053,307.300 101.771 C 308.377 101.433,309.838 99.941,310.196 98.813 C 310.338 98.366,310.544 98.000,310.654 98.000 C 310.764 98.000,310.726 98.404,310.569 98.897 M48.800 106.000 C 48.800 106.220,48.440 106.400,48.000 106.400 C 47.560 106.400,47.200 106.220,47.200 106.000 C 47.200 105.780,47.560 105.600,48.000 105.600 C 48.440 105.600,48.800 105.780,48.800 106.000 M51.586 107.587 C 52.833 108.805,53.049 109.200,52.468 109.200 C 52.285 109.200,51.904 108.768,51.622 108.241 C 51.339 107.713,50.724 107.095,50.254 106.868 C 49.784 106.640,49.619 106.442,49.886 106.427 C 50.154 106.412,50.919 106.934,51.586 107.587 M331.200 121.600 C 331.200 121.820,331.470 122.000,331.800 122.000 C 332.130 122.000,332.400 121.820,332.400 121.600 C 332.400 121.380,332.130 121.200,331.800 121.200 C 331.470 121.200,331.200 121.380,331.200 121.600 M364.887 122.452 C 367.812 123.014,369.600 125.128,369.600 128.026 C 369.600 128.672,369.780 129.200,370.000 129.200 C 370.220 129.200,370.400 128.570,370.400 127.800 C 370.400 127.030,370.220 126.400,370.000 126.400 C 369.780 126.400,369.600 126.202,369.600 125.960 C 369.600 123.708,366.974 121.897,363.923 122.045 C 363.415 122.069,363.849 122.253,364.887 122.452 M328.400 124.292 C 328.070 124.417,327.710 124.628,327.600 124.760 C 327.490 124.892,327.052 125.192,326.627 125.427 C 326.201 125.661,325.661 126.201,325.427 126.627 C 325.192 127.052,324.889 127.490,324.754 127.600 C 324.619 127.710,324.376 128.222,324.215 128.737 C 323.835 129.955,325.172 129.810,325.792 128.565 C 326.320 127.508,327.508 126.320,328.565 125.792 C 329.021 125.566,329.453 125.069,329.526 124.690 C 329.663 123.979,329.434 123.898,328.400 124.292 M303.600 130.000 C 303.600 130.220,303.960 130.400,304.400 130.400 C 304.840 130.400,305.200 130.220,305.200 130.000 C 305.200 129.780,304.840 129.600,304.400 129.600 C 303.960 129.600,303.600 129.780,303.600 130.000 M299.400 130.740 C 297.799 131.260,297.267 131.827,297.091 133.200 C 296.992 133.970,296.989 134.285,297.084 133.900 C 297.178 133.515,297.394 133.200,297.564 133.200 C 297.733 133.200,298.067 132.771,298.306 132.247 C 298.585 131.635,299.288 131.149,300.270 130.888 C 301.112 130.665,301.440 130.482,301.000 130.481 C 300.560 130.480,299.840 130.597,299.400 130.740 M272.496 139.195 C 272.223 139.632,272.011 140.217,272.025 140.495 C 272.039 140.773,272.213 140.595,272.412 140.100 C 272.611 139.605,273.050 139.200,273.387 139.200 C 273.724 139.200,274.000 139.020,274.000 138.800 C 274.000 138.107,273.014 138.366,272.496 139.195 M271.200 142.600 C 271.200 143.150,271.380 143.600,271.600 143.600 C 271.820 143.600,272.000 143.150,272.000 142.600 C 272.000 142.050,271.820 141.600,271.600 141.600 C 271.380 141.600,271.200 142.050,271.200 142.600 M245.200 149.173 C 245.200 149.378,244.795 149.673,244.300 149.827 C 243.091 150.205,241.861 151.516,241.220 153.113 C 240.525 154.841,240.941 155.175,242.085 153.809 C 243.457 152.170,244.169 151.478,245.339 150.644 C 246.498 149.818,246.752 148.800,245.800 148.800 C 245.470 148.800,245.200 148.968,245.200 149.173 M217.900 155.487 C 217.295 155.578,216.800 155.777,216.800 155.929 C 216.800 156.081,216.273 156.438,215.629 156.723 C 214.412 157.262,213.537 159.729,213.645 162.320 C 213.674 163.018,213.819 162.725,214.055 161.492 C 214.552 158.901,216.155 156.909,218.048 156.530 C 218.682 156.404,219.200 156.154,219.200 155.977 C 219.200 155.799,219.695 155.578,220.300 155.487 C 221.376 155.324,221.373 155.320,220.200 155.320 C 219.540 155.320,218.505 155.395,217.900 155.487 M177.600 157.328 C 177.600 158.166,175.497 160.272,174.400 160.532 C 173.447 160.759,173.450 160.749,174.468 160.319 C 175.055 160.071,175.760 159.448,176.035 158.934 C 176.310 158.420,176.685 158.000,176.868 158.000 C 177.050 158.000,177.200 157.730,177.200 157.400 C 177.200 157.070,177.290 156.800,177.400 156.800 C 177.510 156.800,177.600 157.038,177.600 157.328 M172.800 161.200 C 172.800 161.420,172.440 161.600,172.000 161.600 C 171.560 161.600,171.200 161.420,171.200 161.200 C 171.200 160.980,171.560 160.800,172.000 160.800 C 172.440 160.800,172.800 160.980,172.800 161.200 M189.100 164.157 C 188.338 164.735,188.159 165.600,188.800 165.600 C 189.020 165.600,189.200 165.324,189.200 164.987 C 189.200 164.650,189.605 164.211,190.100 164.012 C 190.595 163.813,190.730 163.645,190.400 163.638 C 190.070 163.631,189.485 163.865,189.100 164.157 M371.900 172.680 C 372.395 172.775,372.800 173.007,372.800 173.195 C 372.800 173.383,373.338 173.655,373.996 173.799 C 374.720 173.958,375.463 174.522,375.882 175.231 C 376.262 175.874,376.701 176.400,376.858 176.400 C 377.015 176.400,377.349 177.390,377.600 178.600 C 378.016 180.605,378.800 181.650,378.800 180.200 C 378.800 179.870,378.640 179.600,378.445 179.600 C 378.250 179.600,377.973 178.816,377.830 177.858 C 377.563 176.078,375.902 173.600,374.975 173.600 C 374.696 173.600,374.407 173.428,374.333 173.219 C 374.260 173.009,373.480 172.763,372.600 172.672 C 371.720 172.581,371.405 172.584,371.900 172.680 M197.091 189.600 C 197.190 190.590,197.436 191.460,197.636 191.533 C 197.836 191.607,198.000 191.896,198.000 192.175 C 198.000 193.204,200.404 194.698,202.510 194.977 C 203.651 195.128,204.737 195.465,204.923 195.726 C 205.157 196.055,205.211 196.016,205.098 195.600 C 205.001 195.247,204.165 194.859,203.067 194.657 C 202.040 194.468,201.200 194.153,201.200 193.957 C 201.200 193.761,200.964 193.600,200.675 193.600 C 199.806 193.600,198.383 192.015,198.134 190.769 C 198.005 190.126,197.754 189.600,197.577 189.600 C 197.399 189.600,197.176 189.195,197.082 188.700 C 196.988 188.205,196.992 188.610,197.091 189.600 M172.329 192.582 C 173.226 193.291,174.168 194.263,174.918 195.253 C 176.274 197.040,174.507 196.612,172.580 194.686 C 170.273 192.378,170.085 190.809,172.329 192.582 M201.586 207.587 C 202.833 208.805,203.049 209.200,202.468 209.200 C 202.285 209.200,201.904 208.768,201.622 208.241 C 201.339 207.713,200.724 207.095,200.254 206.868 C 199.784 206.640,199.619 206.442,199.886 206.427 C 200.154 206.412,200.919 206.934,201.586 207.587 M379.200 227.386 C 379.200 229.333,379.296 229.600,380.000 229.600 C 380.440 229.600,380.800 229.780,380.800 230.000 C 380.800 230.220,381.250 230.400,381.800 230.400 C 382.350 230.400,382.800 230.220,382.800 230.000 C 382.800 229.780,383.115 229.595,383.500 229.588 C 384.167 229.576,384.167 229.556,383.500 229.168 C 383.115 228.944,382.797 228.544,382.793 228.280 C 382.785 227.708,381.359 226.314,380.100 225.648 C 379.218 225.181,379.200 225.215,379.200 227.386 M384.400 229.953 C 384.400 230.148,384.760 230.401,385.199 230.516 C 385.638 230.631,386.167 231.147,386.374 231.662 C 386.706 232.492,386.751 232.507,386.762 231.800 C 386.769 231.360,386.535 230.685,386.243 230.300 C 385.693 229.575,384.400 229.332,384.400 229.953 M386.800 233.800 C 386.800 234.350,386.980 234.800,387.200 234.800 C 387.420 234.800,387.600 234.350,387.600 233.800 C 387.600 233.250,387.420 232.800,387.200 232.800 C 386.980 232.800,386.800 233.250,386.800 233.800 M227.200 238.748 C 227.200 238.939,226.536 239.203,225.724 239.335 C 223.651 239.671,222.514 241.143,222.170 243.934 C 222.017 245.180,221.691 246.349,221.446 246.530 C 221.156 246.745,221.210 246.804,221.600 246.698 C 221.953 246.601,222.341 245.765,222.543 244.667 C 222.732 243.640,223.047 242.800,223.243 242.800 C 223.439 242.800,223.600 242.556,223.600 242.258 C 223.600 241.303,226.050 239.642,227.858 239.370 C 229.838 239.074,230.214 238.400,228.400 238.400 C 227.740 238.400,227.200 238.556,227.200 238.748 M185.063 243.377 C 184.478 243.919,184.000 244.242,184.000 244.095 C 184.000 243.727,185.761 242.070,185.963 242.248 C 186.052 242.327,185.647 242.835,185.063 243.377 M160.000 246.400 C 160.000 246.620,159.856 246.800,159.680 246.800 C 159.505 246.800,159.133 247.430,158.855 248.200 C 158.576 248.970,157.955 249.807,157.474 250.060 C 156.993 250.313,156.508 250.659,156.396 250.828 C 156.284 250.998,155.744 251.215,155.196 251.310 C 154.648 251.405,154.425 251.406,154.700 251.312 C 154.975 251.218,155.200 250.975,155.200 250.771 C 155.200 250.567,155.425 250.398,155.700 250.396 C 156.391 250.390,158.634 247.995,158.974 246.900 C 159.253 246.003,160.000 245.639,160.000 246.400 M205.211 263.787 C 204.943 264.109,204.817 264.604,204.931 264.887 C 205.058 265.204,205.149 265.128,205.168 264.687 C 205.186 264.295,205.605 263.811,206.100 263.612 C 206.709 263.368,206.790 263.243,206.349 263.225 C 205.991 263.211,205.479 263.464,205.211 263.787 M32.524 275.338 C 32.678 275.744,33.163 276.170,33.602 276.285 C 34.041 276.399,34.400 276.639,34.400 276.817 C 34.400 276.996,34.625 277.218,34.900 277.312 C 35.175 277.406,35.001 277.418,34.514 277.338 C 33.440 277.161,31.767 275.557,31.378 274.332 C 31.023 273.211,32.065 274.126,32.524 275.338 M184.800 280.000 C 184.800 280.220,185.430 280.400,186.200 280.400 C 186.970 280.400,187.600 280.220,187.600 280.000 C 187.600 279.780,186.970 279.600,186.200 279.600 C 185.430 279.600,184.800 279.780,184.800 280.000 M388.400 280.000 C 388.400 280.220,389.030 280.400,389.800 280.400 C 390.570 280.400,391.200 280.220,391.200 280.000 C 391.200 279.780,390.570 279.600,389.800 279.600 C 389.030 279.600,388.400 279.780,388.400 280.000 M181.877 280.680 C 181.179 280.861,180.179 282.713,180.569 283.103 C 180.675 283.208,180.872 282.854,181.007 282.315 C 181.146 281.761,181.718 281.151,182.326 280.911 C 183.426 280.475,183.172 280.345,181.877 280.680 M393.184 280.923 C 394.104 281.240,394.660 281.735,394.844 282.400 C 395.098 283.319,395.123 283.329,395.160 282.523 C 395.205 281.526,393.825 280.389,392.611 280.423 C 392.084 280.437,392.285 280.612,393.184 280.923 M395.200 285.600 C 395.200 286.260,395.380 286.800,395.600 286.800 C 395.820 286.800,396.000 286.260,396.000 285.600 C 396.000 284.940,395.820 284.400,395.600 284.400 C 395.380 284.400,395.200 284.940,395.200 285.600 M179.600 286.200 C 179.600 286.970,179.780 287.600,180.000 287.600 C 180.220 287.600,180.400 286.970,180.400 286.200 C 180.400 285.430,180.220 284.800,180.000 284.800 C 179.780 284.800,179.600 285.430,179.600 286.200 M347.034 290.511 C 347.106 291.562,347.443 292.700,347.782 293.040 C 348.122 293.379,348.400 293.803,348.400 293.981 C 348.400 294.376,351.602 295.217,352.877 295.156 C 353.385 295.132,352.991 294.954,352.001 294.760 C 351.012 294.567,350.142 294.226,350.068 294.004 C 349.994 293.782,349.669 293.600,349.346 293.600 C 349.023 293.600,348.570 293.060,348.340 292.400 C 348.110 291.740,347.770 291.200,347.585 291.200 C 347.400 291.200,347.171 290.615,347.076 289.900 C 346.981 289.185,346.963 289.460,347.034 290.511 M334.400 295.600 C 334.400 295.820,334.670 296.000,335.000 296.000 C 335.330 296.000,335.600 295.820,335.600 295.600 C 335.600 295.380,335.330 295.200,335.000 295.200 C 334.670 295.200,334.400 295.380,334.400 295.600 M94.406 296.924 C 93.199 297.155,91.861 297.671,91.431 298.072 C 91.001 298.472,90.532 298.800,90.389 298.800 C 89.969 298.800,89.200 300.753,89.200 301.819 C 89.200 302.358,89.020 302.800,88.800 302.800 C 88.580 302.800,88.400 303.250,88.400 303.800 C 88.400 305.536,89.017 304.885,89.485 302.656 C 90.008 300.159,91.348 298.510,93.145 298.151 C 93.835 298.013,94.400 297.743,94.400 297.550 C 94.400 297.358,94.839 297.200,95.376 297.200 C 95.913 297.200,96.464 297.020,96.600 296.800 C 96.736 296.580,96.792 296.424,96.724 296.453 C 96.656 296.481,95.613 296.694,94.406 296.924 M325.887 305.974 C 325.302 307.620,324.920 308.066,323.593 308.651 C 322.717 309.038,322.000 309.499,322.000 309.677 C 322.000 309.855,321.730 310.000,321.400 310.000 C 321.070 310.000,320.800 310.165,320.800 310.368 C 320.800 310.912,323.741 310.017,324.120 309.357 C 324.296 309.051,324.689 308.800,324.993 308.800 C 325.297 308.800,325.660 308.441,325.799 308.002 C 325.938 307.564,326.280 306.977,326.559 306.698 C 327.336 305.921,327.723 304.000,327.102 304.000 C 326.819 304.000,326.272 304.888,325.887 305.974 M372.050 306.154 C 371.991 307.519,372.794 310.400,373.235 310.400 C 373.404 310.400,373.821 310.678,374.160 311.018 C 374.500 311.357,375.638 311.694,376.689 311.766 C 377.740 311.837,378.015 311.819,377.300 311.724 C 376.585 311.629,376.000 311.400,376.000 311.215 C 376.000 311.030,375.460 310.690,374.800 310.460 C 374.140 310.230,373.600 309.777,373.600 309.454 C 373.600 309.131,373.392 308.797,373.137 308.712 C 372.883 308.628,372.546 307.758,372.387 306.779 C 372.180 305.493,372.086 305.320,372.050 306.154 M395.200 308.600 C 395.200 308.930,395.380 309.200,395.600 309.200 C 395.820 309.200,396.000 308.930,396.000 308.600 C 396.000 308.270,395.820 308.000,395.600 308.000 C 395.380 308.000,395.200 308.270,395.200 308.600 M380.900 312.276 C 381.285 312.376,381.915 312.376,382.300 312.276 C 382.685 312.175,382.370 312.093,381.600 312.093 C 380.830 312.093,380.515 312.175,380.900 312.276 M319.371 317.500 C 319.051 318.792,318.792 319.051,317.500 319.371 C 315.901 319.765,315.470 320.400,316.800 320.400 C 317.240 320.400,317.600 320.241,317.600 320.047 C 317.600 319.852,317.973 319.596,318.430 319.476 C 318.886 319.357,319.357 318.886,319.476 318.430 C 319.596 317.973,319.852 317.600,320.047 317.600 C 320.241 317.600,320.400 317.240,320.400 316.800 C 320.400 315.470,319.765 315.901,319.371 317.500 M83.152 322.469 C 81.445 322.924,80.812 324.040,80.593 326.981 C 80.510 328.092,80.526 328.550,80.628 328.000 C 80.972 326.142,81.726 324.000,82.035 324.000 C 82.205 324.000,82.622 323.721,82.962 323.381 C 83.303 323.040,84.351 322.610,85.291 322.425 C 86.623 322.162,86.735 322.087,85.800 322.085 C 85.140 322.084,83.948 322.256,83.152 322.469 M79.600 330.200 C 79.600 330.530,79.780 330.800,80.000 330.800 C 80.220 330.800,80.400 330.530,80.400 330.200 C 80.400 329.870,80.220 329.600,80.000 329.600 C 79.780 329.600,79.600 329.870,79.600 330.200 M300.400 337.200 C 300.400 337.420,300.760 337.600,301.200 337.600 C 301.640 337.600,302.000 337.420,302.000 337.200 C 302.000 336.980,301.640 336.800,301.200 336.800 C 300.760 336.800,300.400 336.980,300.400 337.200 M74.639 347.087 C 73.337 347.421,72.480 348.536,72.245 350.200 L 72.020 351.800 72.446 350.318 C 72.743 349.283,73.222 348.680,74.036 348.320 C 74.676 348.037,75.200 347.682,75.200 347.532 C 75.200 347.382,75.515 347.176,75.900 347.076 C 76.352 346.958,76.388 346.893,76.000 346.893 C 75.670 346.893,75.058 346.980,74.639 347.087 M286.800 350.400 C 286.800 350.840,286.980 351.200,287.200 351.200 C 287.420 351.200,287.600 350.840,287.600 350.400 C 287.600 349.960,287.420 349.600,287.200 349.600 C 286.980 349.600,286.800 349.960,286.800 350.400 M71.200 354.400 C 71.200 354.840,71.380 355.200,71.600 355.200 C 71.820 355.200,72.000 354.840,72.000 354.400 C 72.000 353.960,71.820 353.600,71.600 353.600 C 71.380 353.600,71.200 353.960,71.200 354.400 M278.893 355.200 C 278.893 355.970,278.975 356.285,279.076 355.900 C 279.176 355.515,279.176 354.885,279.076 354.500 C 278.975 354.115,278.893 354.430,278.893 355.200 M277.789 359.249 C 277.627 359.988,277.206 360.578,276.758 360.695 C 276.341 360.804,276.000 361.052,276.000 361.247 C 276.000 361.441,275.610 361.600,275.133 361.600 C 274.657 361.600,274.374 361.707,274.505 361.838 C 275.113 362.446,277.181 361.491,277.676 360.373 C 277.962 359.728,278.331 359.200,278.498 359.200 C 278.664 359.200,278.800 358.930,278.800 358.600 C 278.800 357.508,278.068 357.978,277.789 359.249 M68.400 371.600 C 68.400 371.820,68.940 372.000,69.600 372.000 C 70.260 372.000,70.800 371.820,70.800 371.600 C 70.800 371.380,70.260 371.200,69.600 371.200 C 68.940 371.200,68.400 371.380,68.400 371.600 M64.951 372.393 C 64.179 372.705,63.307 374.640,63.742 375.076 C 63.842 375.176,64.040 374.728,64.182 374.081 C 64.373 373.213,64.776 372.796,65.720 372.493 C 66.424 372.267,66.730 372.075,66.400 372.066 C 66.070 372.058,65.418 372.205,64.951 372.393 M253.693 374.000 C 253.693 374.770,253.775 375.085,253.876 374.700 C 253.976 374.315,253.976 373.685,253.876 373.300 C 253.775 372.915,253.693 373.230,253.693 374.000 M253.200 376.542 C 253.200 376.913,252.750 377.422,252.200 377.673 C 251.201 378.128,250.844 378.800,251.600 378.800 C 251.820 378.800,252.000 378.620,252.000 378.400 C 252.000 378.180,252.258 378.000,252.573 378.000 C 253.171 378.000,253.848 376.514,253.437 376.103 C 253.306 375.973,253.200 376.171,253.200 376.542 M63.301 377.800 C 63.305 378.680,63.387 378.993,63.483 378.495 C 63.579 377.998,63.575 377.278,63.475 376.895 C 63.375 376.513,63.296 376.920,63.301 377.800 M236.800 383.600 C 236.800 384.040,236.980 384.400,237.200 384.400 C 237.420 384.400,237.600 384.040,237.600 383.600 C 237.600 383.160,237.420 382.800,237.200 382.800 C 236.980 382.800,236.800 383.160,236.800 383.600 M232.800 387.200 C 232.800 387.420,233.160 387.600,233.600 387.600 C 234.040 387.600,234.400 387.420,234.400 387.200 C 234.400 386.980,234.040 386.800,233.600 386.800 C 233.160 386.800,232.800 386.980,232.800 387.200 M216.800 388.113 C 216.470 388.381,215.963 389.061,215.673 389.623 C 215.384 390.186,214.529 390.980,213.773 391.386 C 212.388 392.133,211.916 393.200,212.971 393.200 C 213.286 393.200,213.786 392.975,214.084 392.700 C 214.381 392.425,215.159 391.897,215.812 391.527 C 216.499 391.138,217.151 390.337,217.358 389.627 C 217.555 388.952,217.870 388.400,218.058 388.400 C 218.246 388.400,218.400 388.220,218.400 388.000 C 218.400 387.456,217.533 387.517,216.800 388.113 M64.400 398.000 C 64.400 399.511,64.547 400.000,65.000 400.000 C 65.453 400.000,65.600 399.511,65.600 398.000 C 65.600 396.489,65.453 396.000,65.000 396.000 C 64.547 396.000,64.400 396.489,64.400 398.000 "
       stroke="none"
       fill="#2c6c9c"
       fill-rule="evenodd" />
    <path
       id="path2"
       d=""
       stroke="none"
       fill="#34b05c"
       fill-rule="evenodd" />
    <path
       id="path3"
       d=""
       stroke="none"
       fill="#349088"
       fill-rule="evenodd" />
    <path
       id="path4"
       d="M212.400 2.400 C 212.400 3.733,212.578 4.800,212.800 4.800 C 213.022 4.800,213.200 3.733,213.200 2.400 C 213.200 1.067,213.022 0.000,212.800 0.000 C 212.578 0.000,212.400 1.067,212.400 2.400 M334.528 2.400 C 334.528 3.830,334.601 4.415,334.689 3.700 C 334.778 2.985,334.778 1.815,334.689 1.100 C 334.601 0.385,334.528 0.970,334.528 2.400 M187.098 8.845 C 186.013 9.459,184.568 10.924,184.283 11.700 C 184.141 12.085,183.839 12.400,183.613 12.400 C 183.386 12.400,183.200 12.580,183.200 12.800 C 183.200 13.715,184.578 13.085,186.261 11.402 C 188.042 9.621,188.568 8.013,187.098 8.845 M152.800 21.600 C 152.800 21.820,153.070 22.000,153.400 22.000 C 153.730 22.000,154.000 21.820,154.000 21.600 C 154.000 21.380,153.730 21.200,153.400 21.200 C 153.070 21.200,152.800 21.380,152.800 21.600 M126.000 38.800 C 126.000 39.020,126.270 39.200,126.600 39.200 C 126.930 39.200,127.200 39.020,127.200 38.800 C 127.200 38.580,126.930 38.400,126.600 38.400 C 126.270 38.400,126.000 38.580,126.000 38.800 M328.000 47.600 C 328.000 48.040,328.180 48.400,328.400 48.400 C 328.620 48.400,328.800 48.040,328.800 47.600 C 328.800 47.160,328.620 46.800,328.400 46.800 C 328.180 46.800,328.000 47.160,328.000 47.600 M327.368 50.586 C 327.232 51.128,326.778 51.680,326.360 51.813 C 325.942 51.945,325.600 52.209,325.600 52.398 C 325.600 52.587,325.285 52.824,324.900 52.924 C 324.332 53.073,324.320 53.116,324.838 53.154 C 325.683 53.215,327.441 51.630,327.782 50.500 C 327.932 50.005,327.955 49.600,327.835 49.600 C 327.714 49.600,327.504 50.044,327.368 50.586 M105.829 55.829 C 105.049 56.609,105.030 56.840,105.769 56.557 C 106.082 56.436,106.436 56.082,106.557 55.769 C 106.840 55.030,106.609 55.049,105.829 55.829 M93.200 71.600 C 93.200 71.820,93.470 72.000,93.800 72.000 C 94.130 72.000,94.400 71.820,94.400 71.600 C 94.400 71.380,94.130 71.200,93.800 71.200 C 93.470 71.200,93.200 71.380,93.200 71.600 M318.832 74.754 C 318.798 75.341,317.207 76.974,316.324 77.327 C 315.939 77.481,315.959 77.542,316.400 77.557 C 317.234 77.586,319.330 75.365,319.073 74.725 C 318.907 74.310,318.857 74.316,318.832 74.754 M14.900 88.276 C 15.285 88.376,15.915 88.376,16.300 88.276 C 16.685 88.175,16.370 88.093,15.600 88.093 C 14.830 88.093,14.515 88.175,14.900 88.276 M24.723 89.872 C 25.398 90.143,27.057 91.802,27.328 92.477 C 27.498 92.902,27.543 92.901,27.568 92.469 C 27.609 91.780,25.420 89.591,24.731 89.632 C 24.299 89.657,24.298 89.702,24.723 89.872 M77.667 91.344 C 76.934 91.609,76.034 92.355,75.667 93.001 C 75.300 93.647,74.775 94.419,74.500 94.716 C 74.225 95.014,74.014 95.559,74.032 95.929 C 74.057 96.459,74.111 96.478,74.292 96.018 C 74.815 94.689,77.456 91.906,78.732 91.339 C 80.126 90.720,79.380 90.723,77.667 91.344 M311.300 95.823 C 310.711 96.463,310.662 96.800,311.157 96.800 C 311.498 96.800,312.137 95.596,311.909 95.383 C 311.849 95.327,311.575 95.525,311.300 95.823 M310.196 98.813 C 309.838 99.941,308.377 101.433,307.300 101.771 C 306.403 102.053,306.040 102.800,306.800 102.800 C 307.020 102.800,307.200 102.620,307.200 102.400 C 307.200 102.180,307.426 102.000,307.701 102.000 C 308.377 102.000,310.216 100.010,310.569 98.897 C 310.726 98.404,310.764 98.000,310.654 98.000 C 310.544 98.000,310.338 98.366,310.196 98.813 M47.200 106.000 C 47.200 106.220,47.560 106.400,48.000 106.400 C 48.440 106.400,48.800 106.220,48.800 106.000 C 48.800 105.780,48.440 105.600,48.000 105.600 C 47.560 105.600,47.200 105.780,47.200 106.000 M50.254 106.868 C 50.724 107.095,51.339 107.713,51.622 108.241 C 52.079 109.095,52.800 109.552,52.800 108.987 C 52.800 108.549,50.354 106.401,49.886 106.427 C 49.619 106.442,49.784 106.640,50.254 106.868 M236.800 107.400 C 236.800 107.730,236.980 108.000,237.200 108.000 C 237.420 108.000,237.600 107.730,237.600 107.400 C 237.600 107.070,237.420 106.800,237.200 106.800 C 236.980 106.800,236.800 107.070,236.800 107.400 M177.200 157.400 C 177.200 157.730,177.050 158.000,176.868 158.000 C 176.685 158.000,176.310 158.420,176.035 158.934 C 175.760 159.448,175.055 160.071,174.468 160.319 C 173.450 160.749,173.447 160.759,174.400 160.532 C 175.908 160.174,178.620 156.800,177.400 156.800 C 177.290 156.800,177.200 157.070,177.200 157.400 M171.200 161.200 C 171.200 161.420,171.560 161.600,172.000 161.600 C 172.440 161.600,172.800 161.420,172.800 161.200 C 172.800 160.980,172.440 160.800,172.000 160.800 C 171.560 160.800,171.200 160.980,171.200 161.200 M170.800 192.229 C 170.800 193.161,174.213 196.497,174.999 196.333 C 175.680 196.191,175.155 195.233,173.529 193.653 C 171.705 191.880,170.800 191.408,170.800 192.229 M186.800 200.600 C 186.800 200.930,186.980 201.200,187.200 201.200 C 187.420 201.200,187.600 200.930,187.600 200.600 C 187.600 200.270,187.420 200.000,187.200 200.000 C 186.980 200.000,186.800 200.270,186.800 200.600 M200.254 206.868 C 200.724 207.095,201.339 207.713,201.622 208.241 C 202.079 209.095,202.800 209.552,202.800 208.987 C 202.800 208.549,200.354 206.401,199.886 206.427 C 199.619 206.442,199.784 206.640,200.254 206.868 M21.200 216.000 C 21.200 216.440,21.380 216.800,21.600 216.800 C 21.820 216.800,22.000 216.440,22.000 216.000 C 22.000 215.560,21.820 215.200,21.600 215.200 C 21.380 215.200,21.200 215.560,21.200 216.000 M22.255 219.600 C 22.379 220.150,22.709 220.783,22.988 221.006 C 23.267 221.229,23.626 222.006,23.785 222.733 C 23.945 223.459,24.328 224.151,24.638 224.270 C 24.947 224.388,25.200 224.721,25.200 225.009 C 25.200 225.297,25.740 225.772,26.400 226.064 C 27.060 226.356,27.600 226.710,27.600 226.851 C 27.600 226.992,28.050 227.193,28.600 227.298 C 30.269 227.617,29.766 226.522,27.968 225.923 C 26.916 225.572,26.099 224.961,25.668 224.202 C 25.301 223.554,24.775 222.781,24.500 222.484 C 24.225 222.186,24.000 221.686,24.000 221.371 C 24.000 221.057,23.765 220.800,23.477 220.800 C 23.190 220.800,22.746 220.305,22.492 219.700 C 22.070 218.694,22.049 218.686,22.255 219.600 M184.900 242.966 C 184.405 243.440,184.000 243.948,184.000 244.095 C 184.000 244.242,184.478 243.919,185.063 243.377 C 185.647 242.835,186.052 242.327,185.963 242.248 C 185.873 242.169,185.395 242.492,184.900 242.966 M158.974 246.900 C 158.634 247.995,156.391 250.390,155.700 250.396 C 155.425 250.398,155.200 250.567,155.200 250.771 C 155.200 250.975,154.975 251.218,154.700 251.312 C 154.425 251.406,154.648 251.405,155.196 251.310 C 155.744 251.215,156.284 250.998,156.396 250.828 C 156.508 250.659,156.993 250.313,157.474 250.060 C 157.955 249.807,158.576 248.970,158.855 248.200 C 159.133 247.430,159.505 246.800,159.680 246.800 C 159.856 246.800,160.000 246.620,160.000 246.400 C 160.000 245.639,159.253 246.003,158.974 246.900 M29.600 267.600 C 29.600 268.040,29.780 268.400,30.000 268.400 C 30.220 268.400,30.400 268.040,30.400 267.600 C 30.400 267.160,30.220 266.800,30.000 266.800 C 29.780 266.800,29.600 267.160,29.600 267.600 M76.024 272.300 C 75.344 274.202,74.202 275.344,72.300 276.024 C 71.475 276.319,70.800 276.786,70.800 277.060 C 70.800 277.335,70.486 277.736,70.103 277.950 C 69.720 278.165,69.544 278.478,69.713 278.646 C 69.881 278.814,70.294 278.558,70.632 278.076 C 70.969 277.594,71.595 277.200,72.023 277.200 C 72.450 277.200,72.800 277.054,72.800 276.875 C 72.800 276.696,73.406 276.312,74.146 276.021 C 75.064 275.661,75.661 275.064,76.021 274.146 C 76.312 273.406,76.675 272.800,76.828 272.800 C 76.981 272.800,77.193 272.350,77.298 271.800 C 77.599 270.227,76.630 270.607,76.024 272.300 M31.378 274.332 C 31.767 275.557,33.440 277.161,34.514 277.338 C 35.001 277.418,35.175 277.406,34.900 277.312 C 34.625 277.218,34.400 276.996,34.400 276.817 C 34.400 276.639,34.041 276.399,33.602 276.285 C 33.163 276.170,32.678 275.744,32.524 275.338 C 32.065 274.126,31.023 273.211,31.378 274.332 "
       stroke="none"
       fill="#346ca0"
       fill-rule="evenodd" />
  </g>
</svg>
