<?xml version="1.0" encoding="UTF-8" standalone="no"?>
<!-- Created with Inkscape (http://www.inkscape.org/) -->

<svg
   width="64"
   height="64"
   id="svg2869"
   version="1.1"
   viewBox="0 0 64 64"
   xmlns="http://www.w3.org/2000/svg"
   xmlns:svg="http://www.w3.org/2000/svg"
   xmlns:rdf="http://www.w3.org/1999/02/22-rdf-syntax-ns#"
   xmlns:cc="http://creativecommons.org/ns#"
   xmlns:dc="http://purl.org/dc/elements/1.1/">
  <defs
     id="defs2871">
    <linearGradient
       id="linearGradient5">
      <stop
         style="stop-color:#ef2929;stop-opacity:1;"
         offset="0"
         id="stop19" />
      <stop
         style="stop-color:#ef2929;stop-opacity:0;"
         offset="1"
         id="stop20" />
    </linearGradient>
    <linearGradient
       id="swatch18">
      <stop
         style="stop-color:#ef2929;stop-opacity:1;"
         offset="0"
         id="stop18" />
    </linearGradient>
    <linearGradient
       id="swatch15">
      <stop
         style="stop-color:#3d0000;stop-opacity:1;"
         offset="0"
         id="stop15" />
    </linearGradient>
    <linearGradient
       id="linearGradient5-1">
      <stop
         style="stop-color:#ef2929;stop-opacity:1;"
         offset="0"
         id="stop5" />
      <stop
         style="stop-color:#ef2929;stop-opacity:0;"
         offset="1"
         id="stop6" />
    </linearGradient>
    <linearGradient
       id="linearGradient3836-9">
      <stop
         style="stop-color:#a40000;stop-opacity:1"
         offset="0"
         id="stop3838-8" />
      <stop
         style="stop-color:#ef2929;stop-opacity:1"
         offset="1"
         id="stop3840-1" />
    </linearGradient>
  </defs>
  <metadata
     id="metadata2874">
    <rdf:RDF>
      <cc:Work
         rdf:about="">
        <dc:format>image/svg+xml</dc:format>
        <dc:type
           rdf:resource="http://purl.org/dc/dcmitype/StillImage" />
        <dc:creator>
          <cc:Agent>
            <dc:title>[maxwxyz]</dc:title>
          </cc:Agent>
        </dc:creator>
        <dc:relation>https://www.freecad.org/wiki/index.php?title=Artwork</dc:relation>
        <dc:publisher>
          <cc:Agent>
            <dc:title>FreeCAD</dc:title>
          </cc:Agent>
        </dc:publisher>
        <dc:identifier>FreeCAD/src/</dc:identifier>
        <dc:rights>
          <cc:Agent>
            <dc:title>FreeCAD LGPL2+</dc:title>
          </cc:Agent>
        </dc:rights>
        <dc:date>2024</dc:date>
      </cc:Work>
    </rdf:RDF>
  </metadata>
  <g
     id="layer3"
     style="display:inline">
    <path
       style="fill:#8ae234;fill-opacity:1;stroke:#000000;stroke-width:2;stroke-miterlimit:4;stroke-dasharray:none;stroke-opacity:1"
       d="M 8.0448718,40.225881 C 5.1842309,39.615347 3.1270541,38.242564 2.4692732,36.505204 2.0386402,35.367813 2.1575375,34.279668 2.8723047,32.816571 4.965595,28.531676 10.586009,25.163829 17.929839,23.793837 c 8.385821,-1.564375 22.547307,1.98492 36.96565,9.264699 4.821461,2.434349 7.103902,3.755017 6.867663,3.973802 -0.0961,0.089 -1.379444,-0.01214 -2.851889,-0.224799 -6.896346,-0.995922 -14.351107,-1.026474 -21.726337,-0.08904 -2.321937,0.295133 -7.511547,1.138528 -11.532465,1.874218 -11.217724,2.052456 -14.302441,2.338577 -17.6075892,1.633166 z"
       id="path4505" />
    <path
       style="fill:#4aa02c;fill-opacity:1;stroke:#8ae234;stroke-width:2;stroke-miterlimit:4;stroke-dasharray:none;stroke-opacity:1"
       d="m 22.955078,25.4375 c 7.7109,0.175838 18.49044,3.265723 29.693359,8.746094 C 47.50849,33.888123 42.196465,34.065434 36.933594,34.734375 34.56051,35.036009 29.330828,35.88621 25.292969,36.625 14.1144,38.670292 11.321807,38.881657 8.4628906,38.271484 5.9584159,37.736965 4.6777831,36.689455 4.3398437,35.796875 4.1508452,35.297691 4.121403,34.816153 4.6699219,33.693359 6.3797776,30.193342 11.30323,27.064431 18.296875,25.759766 c 0.935025,-0.174429 1.966062,-0.282577 3.099609,-0.31836 0.504251,-0.01592 1.023979,-0.0161 1.558594,-0.0039 z"
       id="path17" />
  </g>
</svg>
