<?xml version="1.0" encoding="UTF-8" standalone="no"?>
<svg
   xmlns:dc="http://purl.org/dc/elements/1.1/"
   xmlns:cc="http://creativecommons.org/ns#"
   xmlns:rdf="http://www.w3.org/1999/02/22-rdf-syntax-ns#"
   xmlns:svg="http://www.w3.org/2000/svg"
   xmlns="http://www.w3.org/2000/svg"
   xmlns:xlink="http://www.w3.org/1999/xlink"
   version="1.1"
   id="svg2963"
   height="68.26667"
   width="68.26667">
  <defs
     id="defs2965">
    <linearGradient
       id="linearGradient3354">
      <stop
         id="stop3356"
         offset="0"
         style="stop-color:#2157c7;stop-opacity:1;" />
      <stop
         id="stop3358"
         offset="1"
         style="stop-color:#6daaff;stop-opacity:1;" />
    </linearGradient>
    <linearGradient
       xlink:href="#linearGradient3354"
       id="linearGradient4516"
       gradientUnits="userSpaceOnUse"
       x1="14.577716"
       y1="27.643585"
       x2="50.611004"
       y2="42.347919" />
    <linearGradient
       gradientTransform="translate(-39.003978,-11.048337)"
       y2="42.347919"
       x2="50.611004"
       y1="27.643585"
       x1="14.577716"
       gradientUnits="userSpaceOnUse"
       id="linearGradient14"
       xlink:href="#linearGradient3354" />
    <linearGradient
       y2="42.347919"
       x2="50.611004"
       y1="27.643585"
       x1="14.577716"
       gradientTransform="translate(6.412284,2.3813801)"
       gradientUnits="userSpaceOnUse"
       id="linearGradient18"
       xlink:href="#linearGradient3354" />
  </defs>
  <metadata
     id="metadata2968">
    <rdf:RDF>
      <cc:Work
         rdf:about="">
        <dc:format>image/svg+xml</dc:format>
        <dc:type
           rdf:resource="http://purl.org/dc/dcmitype/StillImage" />
        <dc:title></dc:title>
      </cc:Work>
    </rdf:RDF>
  </metadata>
  <path
     d="M 0,45.166348 C 0,9.3101224 12.722328,19.50581 12.722328,3.3479809 18.762656,4.9062428 31.195442,4.155445 40.971688,5.3464369 34.515753,14.572984 26.922167,16.224589 20.790937,27.692639 17.368571,34.093945 16.934693,49.245484 17.088633,60.56706 9.541714,58.375045 6.542525,47.956465 0,45.166348 Z"
     style="opacity:0.5;fill:url(#linearGradient14);fill-opacity:1;fill-rule:evenodd;stroke:#000000;stroke-width:2;stroke-linecap:round;stroke-linejoin:miter;stroke-opacity:1"
     id="path12" />
  <path
     id="path16"
     style="opacity:0.5;fill:url(#linearGradient18);fill-opacity:1;fill-rule:evenodd;stroke:#000000;stroke-width:2;stroke-linecap:round;stroke-linejoin:miter;stroke-opacity:1"
     d="m 39.227193,63.245445 c 0,-28.490667 13.169517,-19.644505 19.865479,-50.031253 3.340856,3.885475 3.080531,7.216754 9.173998,6.901154 C 67.754828,37.553062 62.114048,47.747978 62.337496,68.26667 54.790577,66.074655 50.959088,61.515788 39.227193,63.245445 Z" />
  <path
     id="path21"
     style="opacity:1;fill:url(#linearGradient4516);fill-opacity:1;fill-rule:evenodd;stroke:#ff0000;stroke-width:2;stroke-linecap:round;stroke-linejoin:miter;stroke-opacity:1"
     d="M 17.088633,60.56706 C 16.484207,11.48631 29.101921,22.676059 40.971688,5.3464369 c 6.040328,1.5582619 12.080656,2.8516219 18.120984,7.8677551 -2.703442,10.674542 -5.56786,17.37902 -13.359277,27.368174 -4.464312,5.723567 -6.660142,11.341503 -6.506202,22.663079 -7.546919,1.155966 -15.596035,0.111732 -22.13856,-2.678385 z" />
</svg>
