<?xml version="1.0" encoding="UTF-8" standalone="no"?>
<!-- Created with Inkscape (http://www.inkscape.org/) -->

<svg
   width="64"
   height="64"
   id="svg2869"
   version="1.1"
   viewBox="0 0 64 64"
   xmlns:xlink="http://www.w3.org/1999/xlink"
   xmlns="http://www.w3.org/2000/svg"
   xmlns:svg="http://www.w3.org/2000/svg"
   xmlns:rdf="http://www.w3.org/1999/02/22-rdf-syntax-ns#"
   xmlns:cc="http://creativecommons.org/ns#"
   xmlns:dc="http://purl.org/dc/elements/1.1/">
  <defs
     id="defs2871">
    <linearGradient
       id="linearGradient17">
      <stop
         style="stop-color:#729fcf;stop-opacity:1"
         offset="0"
         id="stop17" />
      <stop
         style="stop-color:#3465a4;stop-opacity:1"
         offset="1"
         id="stop21" />
    </linearGradient>
    <linearGradient
       id="linearGradient14">
      <stop
         style="stop-color:#729fcf;stop-opacity:1"
         offset="0"
         id="stop14" />
      <stop
         style="stop-color:#3465a4;stop-opacity:1"
         offset="1"
         id="stop16" />
    </linearGradient>
    <linearGradient
       id="linearGradient12">
      <stop
         style="stop-color:#729fcf;stop-opacity:1"
         offset="0"
         id="stop12" />
      <stop
         style="stop-color:#3465a4;stop-opacity:1"
         offset="1"
         id="stop13" />
    </linearGradient>
    <linearGradient
       id="linearGradient10">
      <stop
         style="stop-color:#204a87;stop-opacity:1"
         offset="0"
         id="stop10" />
      <stop
         style="stop-color:#729fcf;stop-opacity:1"
         offset="1"
         id="stop11" />
    </linearGradient>
    <linearGradient
       id="linearGradient5">
      <stop
         style="stop-color:#ef2929;stop-opacity:1;"
         offset="0"
         id="stop19" />
      <stop
         style="stop-color:#ef2929;stop-opacity:0;"
         offset="1"
         id="stop20" />
    </linearGradient>
    <linearGradient
       id="swatch18">
      <stop
         style="stop-color:#ef2929;stop-opacity:1;"
         offset="0"
         id="stop18" />
    </linearGradient>
    <linearGradient
       id="swatch15">
      <stop
         style="stop-color:#3d0000;stop-opacity:1;"
         offset="0"
         id="stop15" />
    </linearGradient>
    <linearGradient
       id="linearGradient5-1">
      <stop
         style="stop-color:#ef2929;stop-opacity:1;"
         offset="0"
         id="stop5" />
      <stop
         style="stop-color:#ef2929;stop-opacity:0;"
         offset="1"
         id="stop6" />
    </linearGradient>
    <linearGradient
       id="linearGradient3836-9">
      <stop
         style="stop-color:#a40000;stop-opacity:1"
         offset="0"
         id="stop3838-8" />
      <stop
         style="stop-color:#ef2929;stop-opacity:1"
         offset="1"
         id="stop3840-1" />
    </linearGradient>
    <linearGradient
       xlink:href="#linearGradient10"
       id="linearGradient11"
       x1="14.067719"
       y1="35.974186"
       x2="40.908615"
       y2="46.099186"
       gradientUnits="userSpaceOnUse" />
    <linearGradient
       xlink:href="#linearGradient12"
       id="linearGradient13"
       x1="17.861333"
       y1="50.024463"
       x2="46.138667"
       y2="50.024463"
       gradientUnits="userSpaceOnUse" />
    <linearGradient
       xlink:href="#linearGradient14"
       id="linearGradient16"
       x1="24.42977"
       y1="32"
       x2="58.601475"
       y2="13.804009"
       gradientUnits="userSpaceOnUse" />
    <linearGradient
       xlink:href="#linearGradient17"
       id="linearGradient21"
       x1="6.7896204"
       y1="29.5639"
       x2="32"
       y2="4"
       gradientUnits="userSpaceOnUse" />
  </defs>
  <metadata
     id="metadata2874">
    <rdf:RDF>
      <cc:Work
         rdf:about="">
        <dc:format>image/svg+xml</dc:format>
        <dc:type
           rdf:resource="http://purl.org/dc/dcmitype/StillImage" />
        <dc:creator>
          <cc:Agent>
            <dc:title>[maxwxyz]</dc:title>
          </cc:Agent>
        </dc:creator>
        <dc:relation>https://www.freecad.org/wiki/index.php?title=Artwork</dc:relation>
        <dc:publisher>
          <cc:Agent>
            <dc:title>FreeCAD</dc:title>
          </cc:Agent>
        </dc:publisher>
        <dc:identifier>FreeCAD/src/</dc:identifier>
        <dc:rights>
          <cc:Agent>
            <dc:title>FreeCAD LGPL2+</dc:title>
          </cc:Agent>
        </dc:rights>
        <dc:date>2024</dc:date>
      </cc:Work>
    </rdf:RDF>
  </metadata>
  <g
     id="layer3"
     style="display:inline">
    <path
       d="m 47.138017,36.523019 -0.876206,0.505756 C 44.112841,40.509238 38.401855,42.83455 32,42.83455 c -6.401856,0 -12.112842,-2.322705 -14.261812,-5.803168 0,0 0,-0.0027 0,-0.0027 l -0.876206,-0.505756 v 15.741025 c 0,4.825837 6.777041,8.736034 15.138018,8.736034 8.360976,0 15.138017,-3.910197 15.138017,-8.736034 z"
       style="fill:#729fcf;fill-rule:evenodd;stroke:#0c1522;stroke-width:1.99999;stroke-linecap:round;stroke-linejoin:round;stroke-dasharray:none;fill-opacity:1;stroke-opacity:1"
       id="path7" />
    <path
       d="m 9.2760245,31.890392 v -2.883334 c -3.595596,-2.807013 -5.536265,-6.207141 -5.536265,-9.698015 v 2.883334 c 0,3.490824 1.940669,6.89101 5.536265,9.698015 z"
       style="fill:#729fcf;fill-rule:evenodd;stroke:#0c1522;stroke-width:1.99999;stroke-linecap:round;stroke-linejoin:round;stroke-dasharray:none;fill-opacity:1;stroke-opacity:1"
       id="path5" />
    <path
       d="m 60.26024,19.309043 c 0,6.157877 -6.008228,11.792488 -15.534397,14.565271 -9.526103,2.772787 -20.946175,2.21134 -29.525,-1.449489 v 2.883335 c 11.249029,4.800297 26.890205,4.127112 36.782382,-1.582445 5.299634,-3.05886 8.277015,-7.207493 8.277015,-11.533338 z"
       style="fill:#729fcf;fill-rule:evenodd;stroke:#0c1522;stroke-width:1.99999;stroke-linecap:round;stroke-linejoin:round;stroke-dasharray:none;fill-opacity:1;stroke-opacity:1"
       id="path2" />
    <path
       d="M 48.799156,6.1958669 C 36.416948,5.8840469 21.658252,14.401641 9.2760245,29.007058 v 2.883334 l 1.8541135,1.042797 7.484255,-4.319787 c 0.299516,-0.31609 0.603241,-0.618935 0.904892,-0.928091 0.210403,-0.215651 0.419712,-0.434318 0.631076,-0.646534 0.712226,-0.715068 1.42898,-1.412425 2.151398,-2.088201 0.137755,-0.12886 0.276552,-0.250611 0.414633,-0.378014 0.596028,-0.549938 1.194994,-1.085931 1.796743,-1.608515 0.236001,-0.204937 0.472557,-0.406789 0.709309,-0.607429 0.594206,-0.503614 1.190357,-0.993963 1.788921,-1.470345 0.156731,-0.124735 0.312416,-0.255184 0.469395,-0.378014 0.752742,-0.589025 1.508371,-1.154808 2.266139,-1.699758 0.182561,-0.131276 0.364857,-0.254559 0.547628,-0.383229 0.564683,-0.397573 1.13121,-0.782378 1.69765,-1.154898 0.263536,-0.17329 0.526384,-0.345803 0.790148,-0.513578 0.607046,-0.386188 1.214945,-0.756447 1.822822,-1.113185 0.148542,-0.08717 0.29738,-0.18053 0.445926,-0.265914 0.749854,-0.431026 1.498512,-0.834936 2.247884,-1.220072 0.20807,-0.106943 0.415332,-0.20689 0.623255,-0.310233 0.585771,-0.291129 1.170671,-0.569277 1.755018,-0.831631 0.265384,-0.119169 0.530443,-0.241407 0.795365,-0.354551 0.175684,-0.07501 0.351287,-0.149236 0.526766,-0.221595 1.092782,-0.450711 2.181373,-0.848377 3.262302,-1.194002 0.141827,-0.04533 0.283472,-0.08946 0.425064,-0.132958 1.09438,-0.33634 2.180847,-0.617257 3.257086,-0.842059 0.06244,-0.01308 0.125372,-0.03165 0.187758,-0.04432 l 0.667586,-1.1470771 z"
       style="fill:#204a87;fill-rule:evenodd;stroke:#0c1522;stroke-width:1.99999;stroke-linecap:round;stroke-linejoin:round;stroke-dasharray:none;fill-opacity:1;stroke-opacity:1"
       id="path3" />
    <path
       d="M 32.469395,3.0023009 C 27.973307,2.9589609 23.441826,3.5332819 19.274156,4.7463779 9.7479875,7.5191709 3.7397595,13.151116 3.7397595,19.309043 c 0,3.490874 1.940669,6.891002 5.536265,9.698015 C 21.658252,14.401641 36.416948,5.8840469 48.799156,6.1958669 43.973567,4.1366479 38.250081,3.0580249 32.469395,3.0023009 Z"
       style="fill:#729fcf;fill-rule:evenodd;stroke:#0c1522;stroke-width:1.99999;stroke-linecap:round;stroke-linejoin:round;stroke-dasharray:none;fill-opacity:1;stroke-opacity:1"
       id="path4" />
    <path
       d="m 48.329761,10.192388 c -0.128644,0.02531 -0.257004,0.05127 -0.385948,0.07821 -0.498855,0.10422 -0.999281,0.215881 -1.502067,0.344124 -0.08526,0.02176 -0.170184,0.04534 -0.25556,0.06778 -0.497758,0.130809 -0.998442,0.276224 -1.499459,0.430154 -0.141646,0.04353 -0.283164,0.08759 -0.425064,0.132958 -1.081591,0.345719 -2.169879,0.743542 -3.262302,1.194002 -0.175576,0.07241 -0.350959,0.14651 -0.526766,0.221595 -0.265047,0.113176 -0.529909,0.23537 -0.795365,0.354551 -0.583932,0.262214 -1.169411,0.540568 -1.755019,0.831631 -0.207735,0.103246 -0.415404,0.203409 -0.623254,0.310233 -0.749105,0.385023 -1.497914,0.78899 -2.247885,1.220072 -0.148623,0.08543 -0.297321,0.178703 -0.445925,0.265914 -0.607208,0.356327 -1.216207,0.727332 -1.822822,1.113185 -0.263641,0.167723 -0.526778,0.34037 -0.790148,0.513578 -0.566846,0.372731 -1.132368,0.756945 -1.69765,1.154898 -0.182524,0.128512 -0.365333,0.25213 -0.547628,0.383229 -0.757626,0.544808 -1.513202,1.110621 -2.266139,1.699758 -0.156991,0.12284 -0.312666,0.253279 -0.469395,0.378014 -0.59799,0.475895 -1.195077,0.967081 -1.788921,1.470345 -0.236792,0.200691 -0.473302,0.402471 -0.709309,0.607429 -0.601966,0.522732 -1.200297,1.05819 -1.796743,1.608515 -0.13796,0.127298 -0.277008,0.249274 -0.414633,0.378014 -0.721565,0.674998 -1.439701,1.373641 -2.151398,2.088201 -0.21124,0.212083 -0.420824,0.431052 -0.631076,0.646534 -0.520714,0.533704 -1.037231,1.077479 -1.551615,1.631978 -0.245185,0.264285 -0.489654,0.529364 -0.732779,0.797741 -0.683627,0.754698 -1.363602,1.518969 -2.034048,2.309795 8.578825,3.660829 19.998897,4.222276 29.525,1.449489 9.526169,-2.772783 15.534397,-8.407394 15.534397,-14.565271 0,-3.490874 -1.940669,-6.888411 -5.536265,-9.6954071 -0.463643,-0.01175 -0.933651,-0.0052 -1.405579,0.0079 -0.161068,0.0044 -0.323261,0.01094 -0.485042,0.01825 -0.341168,0.01548 -0.684917,0.03692 -1.030064,0.06518 -0.158319,0.01295 -0.31568,0.02351 -0.474612,0.03911 -0.482561,0.04742 -0.968052,0.107796 -1.457734,0.179883 -0.06927,0.01014 -0.139257,0.02321 -0.20862,0.03389 -0.44155,0.06801 -0.885676,0.1466921 -1.332563,0.2346301 z"
       style="fill:#729fcf;fill-rule:evenodd;stroke:#0c1522;stroke-width:1.99999;stroke-linecap:round;stroke-linejoin:round;stroke-dasharray:none;fill-opacity:1;stroke-opacity:1"
       id="path1" />
    <path
       d="m 18.614393,28.613402 -7.484255,4.319787 c 0.81704,0.658451 1.72769,1.278281 2.719888,1.850966 l 3.888162,2.24462 v 0.0027 c 2.148956,3.480442 7.859995,5.803167 14.261812,5.803167 6.401816,0 12.112855,-2.322725 14.261811,-5.803167 v -0.0027 l 5.721414,-3.30306 c -9.892099,5.709512 -25.533444,6.382703 -36.782382,1.582445 v -2.883335 c 0.668086,-0.788056 1.348609,-1.553167 2.034048,-2.309795 0.243617,-0.268942 0.48762,-0.533461 0.732779,-0.797741 0.216363,-0.233216 0.428803,-0.473909 0.646723,-0.703887 z"
       style="fill:url(#linearGradient11);fill-rule:evenodd;stroke:#0c1522;stroke-width:1.99999;stroke-linecap:round;stroke-linejoin:round;stroke-dasharray:none;fill-opacity:1;stroke-opacity:1"
       id="path6" />
    <path
       d="m 18.861328,41.048828 c 3.272876,2.414586 8.153344,3.785156 13.138672,3.785156 4.985457,0 9.865883,-1.370123 13.138672,-3.785156 V 52.263672 C 45.138672,55.450957 39.815292,59 32,59 24.184707,59 18.861328,55.450957 18.861328,52.263672 Z"
       style="fill:url(#linearGradient13);fill-rule:evenodd;stroke:#729fcf;stroke-width:1.99999;stroke-linecap:round;stroke-linejoin:round;stroke-dasharray:none;fill-opacity:1;stroke-opacity:1"
       id="path8" />
    <path
       d="m 54.017578,11.617188 c 2.873041,2.419587 4.242188,5.138652 4.242188,7.691406 0,4.938477 -5.017155,10.005127 -14.091797,12.646484 -8.215314,2.391252 -17.762352,2.196254 -25.550782,-0.384766 0.03373,-0.03732 0.06582,-0.07598 0.09961,-0.113281 0.237644,-0.262327 0.476758,-0.522512 0.716797,-0.78125 0.501874,-0.541013 1.007467,-1.070913 1.517578,-1.59375 0.214943,-0.220289 0.415593,-0.428461 0.617187,-0.630859 0.696251,-0.699052 1.398339,-1.381222 2.101563,-2.039063 0.125042,-0.116969 0.255005,-0.233188 0.402344,-0.36914 0.580598,-0.535703 1.163951,-1.057754 1.751953,-1.56836 0.228138,-0.198124 0.458545,-0.394437 0.691406,-0.591797 0.579413,-0.491034 1.161388,-0.969426 1.742187,-1.43164 0.172925,-0.137624 0.318898,-0.262584 0.455079,-0.369141 0.73081,-0.571824 1.464536,-1.120677 2.201171,-1.65039 0.164428,-0.11825 0.336137,-0.233718 0.53125,-0.371094 0.549469,-0.38682 1.09863,-0.758897 1.646485,-1.119141 0.261084,-0.171704 0.514832,-0.338497 0.765625,-0.498047 0.583206,-0.370963 1.169416,-0.727784 1.759765,-1.074218 0.171715,-0.100774 0.309774,-0.188885 0.429688,-0.257813 0.717814,-0.412598 1.439022,-0.80017 2.166016,-1.173828 0.193976,-0.09969 0.385779,-0.192553 0.599609,-0.298828 0.565227,-0.280933 1.126182,-0.548523 1.683594,-0.798828 0.270114,-0.121272 0.512684,-0.231552 0.761718,-0.337891 0.175854,-0.07511 0.3401,-0.145334 0.503907,-0.21289 1.042865,-0.430025 2.080446,-0.809786 3.109375,-1.138672 0.130811,-0.04182 0.264255,-0.08196 0.404297,-0.125 0.486867,-0.149583 0.955795,-0.288699 1.417968,-0.410157 0.08281,-0.02176 0.163286,-0.04236 0.242188,-0.0625 0.464629,-0.11851 0.933567,-0.223426 1.416015,-0.324218 0.118906,-0.02484 0.240833,-0.04779 0.365235,-0.07227 0.42802,-0.08423 0.8426,-0.159906 1.25,-0.222656 0.08375,-0.0129 0.143875,-0.02372 0.195312,-0.03125 0.460129,-0.06774 0.913214,-0.123934 1.361328,-0.167969 0.138535,-0.0136 0.275046,-0.02139 0.44336,-0.03516 0.316799,-0.02594 0.635656,-0.04596 0.957031,-0.06055 0.165002,-0.0075 0.30841,-0.01373 0.449219,-0.01758 0.225182,-0.0063 0.429941,-0.0022 0.644531,-0.0039 z"
       style="fill:url(#linearGradient16);fill-rule:evenodd;stroke:#729fcf;stroke-width:1.99999;stroke-linecap:round;stroke-linejoin:round;stroke-dasharray:none;fill-opacity:1;stroke-opacity:1"
       id="path9" />
    <path
       d="m 32.449219,5.0019531 c 2.21631,0.021365 4.412628,0.2060932 6.544922,0.5351563 C 28.905386,8.4034383 18.337153,15.71447 9.078125,26.181641 6.8243329,23.977443 5.7402344,21.575829 5.7402344,19.308594 c 0,-4.938538 5.0166946,-10.0010777 14.0917966,-12.6425784 3.963381,-1.153633 8.298651,-1.705691 12.617188,-1.6640625 z"
       style="fill:url(#linearGradient21);fill-rule:evenodd;stroke:#729fcf;stroke-width:1.99999;stroke-linecap:round;stroke-linejoin:round;stroke-dasharray:none;fill-opacity:1;stroke-opacity:1"
       id="path10" />
  </g>
</svg>
