<?xml version="1.0" encoding="UTF-8" standalone="no"?>
<!-- Created with Inkscape (http://www.inkscape.org/) -->

<svg
   width="64"
   height="64"
   id="svg2869"
   version="1.1"
   viewBox="0 0 64 64"
   xmlns:xlink="http://www.w3.org/1999/xlink"
   xmlns="http://www.w3.org/2000/svg"
   xmlns:svg="http://www.w3.org/2000/svg"
   xmlns:rdf="http://www.w3.org/1999/02/22-rdf-syntax-ns#"
   xmlns:cc="http://creativecommons.org/ns#"
   xmlns:dc="http://purl.org/dc/elements/1.1/">
  <title
     id="title359">gearworkbench</title>
  <defs
     id="defs2871">
    <linearGradient
       id="linearGradient356">
      <stop
         style="stop-color:#0d2d5c;stop-opacity:1;"
         offset="0"
         id="stop356" />
      <stop
         style="stop-color:#315f9a;stop-opacity:1;"
         offset="0.1608315"
         id="stop358" />
      <stop
         style="stop-color:#4179c3;stop-opacity:1;"
         offset="0.49452955"
         id="stop359" />
      <stop
         style="stop-color:#1d447b;stop-opacity:1;"
         offset="1"
         id="stop357" />
    </linearGradient>
    <linearGradient
       id="linearGradient354">
      <stop
         style="stop-color:#729fcf;stop-opacity:1"
         offset="0"
         id="stop354" />
      <stop
         style="stop-color:#204a87;stop-opacity:1"
         offset="1"
         id="stop355" />
    </linearGradient>
    <linearGradient
       id="linearGradient5">
      <stop
         style="stop-color:#ef2929;stop-opacity:1;"
         offset="0"
         id="stop19" />
      <stop
         style="stop-color:#ef2929;stop-opacity:0;"
         offset="1"
         id="stop20" />
    </linearGradient>
    <linearGradient
       id="swatch18">
      <stop
         style="stop-color:#ef2929;stop-opacity:1;"
         offset="0"
         id="stop18" />
    </linearGradient>
    <linearGradient
       id="swatch15">
      <stop
         style="stop-color:#3d0000;stop-opacity:1;"
         offset="0"
         id="stop15" />
    </linearGradient>
    <linearGradient
       id="linearGradient5-1">
      <stop
         style="stop-color:#ef2929;stop-opacity:1;"
         offset="0"
         id="stop5" />
      <stop
         style="stop-color:#ef2929;stop-opacity:0;"
         offset="1"
         id="stop6" />
    </linearGradient>
    <linearGradient
       id="linearGradient3836-9">
      <stop
         style="stop-color:#a40000;stop-opacity:1"
         offset="0"
         id="stop3838-8" />
      <stop
         style="stop-color:#ef2929;stop-opacity:1"
         offset="1"
         id="stop3840-1" />
    </linearGradient>
    <linearGradient
       xlink:href="#linearGradient354"
       id="linearGradient355"
       x1="9.9414463"
       y1="17.12694"
       x2="34.697266"
       y2="58.732422"
       gradientUnits="userSpaceOnUse" />
    <linearGradient
       xlink:href="#linearGradient356"
       id="linearGradient357"
       x1="18.193359"
       y1="30.660156"
       x2="26.255859"
       y2="44.626953"
       gradientUnits="userSpaceOnUse"
       gradientTransform="matrix(0.96771274,0,0,0.96774251,1.0331928,1.032232)" />
  </defs>
  <metadata
     id="metadata2874">
    <rdf:RDF>
      <cc:Work
         rdf:about="">
        <dc:format>image/svg+xml</dc:format>
        <dc:type
           rdf:resource="http://purl.org/dc/dcmitype/StillImage" />
        <dc:creator>
          <cc:Agent>
            <dc:title>[maxwxyz]</dc:title>
          </cc:Agent>
        </dc:creator>
        <dc:relation>https://www.freecad.org/wiki/index.php?title=Artwork</dc:relation>
        <dc:publisher>
          <cc:Agent>
            <dc:title>FreeCAD</dc:title>
          </cc:Agent>
        </dc:publisher>
        <dc:identifier>FreeCAD/src/</dc:identifier>
        <dc:rights>
          <cc:Agent>
            <dc:title>FreeCAD LGPL2+</dc:title>
          </cc:Agent>
        </dc:rights>
        <dc:date>2024</dc:date>
        <dc:title>gearworkbench</dc:title>
      </cc:Work>
    </rdf:RDF>
  </metadata>
  <g
     id="layer3"
     style="display:inline">
    <path
       d="m 37.209269,61.128875 c -0.120984,-1.227495 -0.355989,-2.509081 -0.745498,-3.81172 -0.177373,-0.59825 -0.392805,-1.195764 -0.645252,-1.791784 -0.236708,-0.543398 -0.49813,-1.094063 -0.838829,-1.588986 l -3.338032,-4.421271 1.496756,-3.309328 3.887649,3.206776 c 0.179459,0.13202 0.359564,0.240345 0.540399,0.32955 0.04415,0.02233 0.0873,0.03932 0.131356,0.05992 0.163645,0.07715 0.32705,0.143625 0.488549,0.201647 0.09276,0.03318 0.184741,0.06388 0.276537,0.09218 0.124512,0.03773 0.248419,0.0719 0.37102,0.1014 0.0884,0.02117 0.176392,0.0411 0.263862,0.05762 0.09,0.01748 0.178378,0.02969 0.267319,0.04264 0.309307,0.043 0.613239,0.07057 0.907964,0.07144 0.226124,-2.67e-4 0.448583,-0.01301 0.665993,-0.03687 0.03556,-0.004 0.07066,-0.0092 0.106006,-0.01383 0.128196,-0.01634 0.252882,-0.04062 0.377935,-0.06453 0.271991,-0.05203 0.539311,-0.113086 0.796195,-0.198191 v -2.46241 c -0.794424,-1.178484 -1.662931,-2.298778 -2.598296,-3.282826 -0.429019,-0.453471 -0.869817,-0.867813 -1.32392,-1.24215 -0.232136,-0.190646 -0.467423,-0.363635 -0.704018,-0.519675 -0.188767,-0.121724 -0.379649,-0.237115 -0.566901,-0.309962 l -3.887649,-1.282479 -1.496756,-5.037739 3.338032,-0.565766 c 0.08913,-0.0238 0.172909,-0.05909 0.250035,-0.106009 0.29314,-0.172474 0.535065,-0.428417 0.747802,-0.717866 0.255725,-0.357378 0.469975,-0.760867 0.641797,-1.212191 0.297711,-0.770642 0.486174,-1.648078 0.589945,-2.583394 L 35.70099,28.12202 c -0.861873,-0.377789 -1.715244,-0.653743 -2.531466,-0.781241 -0.476762,-0.07686 -0.933822,-0.09349 -1.371163,-0.05068 -0.357041,0.03953 -0.699601,0.121586 -0.995533,0.289224 -0.0792,0.04331 -0.151469,0.09831 -0.216621,0.16362 l -2.159293,2.607594 -3.613417,-3.815173 0.833067,-4.007607 c 0.03052,-0.198587 0.02602,-0.422089 0.01498,-0.646428 -0.01684,-0.282935 -0.05004,-0.572448 -0.09909,-0.868811 -0.09713,-0.580459 -0.234301,-1.169314 -0.412501,-1.76759 -0.384514,-1.302103 -0.920637,-2.615092 -1.543998,-3.892375 l -2.131642,-1.230629 c -0.205854,0.183219 -0.396756,0.387547 -0.580728,0.601486 -0.07277,0.08466 -0.145366,0.169614 -0.214317,0.259266 -0.03117,0.04024 -0.0631,0.07966 -0.09334,0.120983 -0.119521,0.163686 -0.234145,0.333654 -0.33991,0.513918 -0.154187,0.265329 -0.287788,0.55528 -0.410197,0.857288 -0.03218,0.08086 -0.06435,0.161591 -0.09333,0.245437 -0.03074,0.08746 -0.05955,0.176464 -0.08642,0.267324 -0.03489,0.118311 -0.06549,0.240286 -0.09449,0.36412 -0.02153,0.09407 -0.04217,0.18952 -0.05992,0.286916 -0.03291,0.181734 -0.05879,0.36848 -0.07374,0.563464 -0.0025,0.03197 -0.0074,0.06211 -0.0092,0.09448 -0.01411,0.20447 -0.01005,0.418698 0.01498,0.644123 l 0.833068,4.969754 -3.613417,-0.357205 -2.160446,-5.102267 c -0.25825,-0.542524 -0.604135,-1.045444 -0.956363,-1.522152 -0.389799,-0.516526 -0.800084,-1.000302 -1.229438,-1.453016 -0.933291,-0.988638 -1.926374,-1.833762 -2.9289876,-2.552284 l -1.5071267,0.871117 c 0.044983,0.4777 0.1159461,0.963251 0.2004896,1.453016 0.013781,0.08083 0.02663,0.160818 0.041479,0.241979 0.087305,0.471446 0.1932858,0.948579 0.3168652,1.431123 0.035178,0.135361 0.072171,0.270853 0.1106148,0.406751 0.047107,0.166965 0.096017,0.33409 0.1486391,0.501238 0.041874,0.134176 0.086842,0.268092 0.1325071,0.402144 0.063583,0.186452 0.1311745,0.373317 0.2016417,0.560005 0.0485,0.127486 0.097869,0.255177 0.1497907,0.382556 0.067002,0.163462 0.1386202,0.326073 0.2120119,0.488567 0.056015,0.123809 0.1127108,0.247076 0.1728358,0.369877 0.069585,0.141002 0.1482527,0.277933 0.224686,0.415973 0.101433,0.182693 0.1997722,0.367494 0.3180174,0.539262 l 3.338033,4.421272 -1.496757,3.309331 -3.8876496,-3.206779 C 7.8660075,25.372498 7.6761135,25.256688 7.4861421,25.165308 7.2495697,25.048159 7.0153901,24.951181 6.7832772,24.873783 6.3290847,24.723743 5.8883527,24.627656 5.4593559,24.585716 4.5239912,24.489658 3.6555075,24.606895 2.8610601,24.868019 v 2.462409 c 0.7944474,1.178488 1.6629311,2.298777 2.5982959,3.28283 0.4289968,0.453465 0.8697287,0.867802 1.3239213,1.242146 0.2321129,0.190652 0.4662925,0.36363 0.7028648,0.519675 0.188857,0.121735 0.3809805,0.237119 0.5680534,0.309961 l 3.8876495,1.28248 1.496757,5.037739 -3.338033,0.565765 c -0.08912,0.02377 -0.1729096,0.05909 -0.250035,0.106009 -0.2932301,0.172474 -0.5350877,0.427266 -0.7478027,0.716713 -0.2557479,0.357368 -0.4698852,0.762014 -0.641796,1.213344 -0.2976671,0.770636 -0.4862638,1.648092 -0.5899456,2.583397 l 1.5071265,2.61105 c 0.8619408,0.377793 1.7164098,0.652591 2.5326188,0.78009 0.47678,0.07686 0.933826,0.09464 1.371163,0.05185 0.357043,-0.03951 0.699605,-0.121585 0.995533,-0.28922 0.0792,-0.04333 0.150316,-0.09831 0.215468,-0.163623 l 2.160446,-2.608746 3.613417,3.816328 -0.833068,4.007606 c -0.03052,0.198584 -0.02602,0.422086 -0.01498,0.646425 0.01683,0.282937 0.04889,0.572454 0.09794,0.868815 0.0971,0.58039 0.235454,1.169112 0.413654,1.767586 0.384514,1.30197 0.92066,2.615159 1.543998,3.892379 l 2.13164,1.230627 c 0.623361,-0.557445 1.159483,-1.250639 1.543998,-2.10866 0.1782,-0.392665 0.315376,-0.823444 0.412502,-1.291697 0.04905,-0.239926 0.08226,-0.491179 0.09909,-0.75474 0.01576,-0.210046 0.01082,-0.431365 -0.01498,-0.663709 l -0.833067,-4.970906 3.613417,0.358357 2.159293,5.102266 c 0.08373,0.175879 0.188545,0.341399 0.288059,0.509304 0.09013,0.151391 0.178895,0.303548 0.276538,0.449387 0.07548,0.111974 0.15215,0.221701 0.230447,0.330702 0.09672,0.134466 0.194725,0.267439 0.294972,0.397534 0.09846,0.12726 0.198648,0.252346 0.299583,0.375641 0.111585,0.135644 0.224666,0.268913 0.338757,0.399839 0.104995,0.120448 0.210488,0.239702 0.318018,0.356052 0.107374,0.116776 0.216577,0.230595 0.326083,0.343378 0.107332,0.110648 0.215055,0.219136 0.32378,0.326092 0.351963,0.343884 0.707816,0.671667 1.068123,0.979432 0.06535,0.05558 0.131411,0.108071 0.197033,0.162472 0.380556,0.316819 0.763594,0.620754 1.15339,0.89762 z"
       style="fill:#729fcf;fill-rule:evenodd;stroke:#0c1522;stroke-width:2;stroke-linecap:round;stroke-linejoin:round;stroke-dasharray:none;stroke-opacity:1"
       id="path334" />
    <path
       d="m 13.092936,37.842588 -2.992362,1.72841 3.338032,-0.565767 z"
       style="fill:#729fcf;fill-rule:evenodd;stroke:#0c1522;stroke-width:2;stroke-linecap:round;stroke-linejoin:round;stroke-dasharray:none;stroke-opacity:1"
       id="path353" />
    <path
       d="m 14.492904,47.180609 2.993513,-1.72841 -0.833067,-0.880336 z"
       style="fill:#729fcf;fill-rule:evenodd;stroke:#0c1522;stroke-width:2;stroke-linecap:round;stroke-linejoin:round;stroke-dasharray:none;stroke-opacity:1"
       id="path352" />
    <path
       d="m 24.813497,51.011917 0.833067,4.970906 c 0.0258,0.232343 0.03074,0.453664 0.01498,0.663709 -0.01684,0.26356 -0.05004,0.514815 -0.09909,0.754739 -0.09713,0.468254 -0.234302,0.899035 -0.412501,1.291699 -0.384513,0.858017 -0.920638,1.551214 -1.543998,2.108659 l 7.096631,-4.097483 c -0.04152,-0.07626 -0.08085,-0.153341 -0.116379,-0.231606 l -1.136105,-2.684797 -1.023188,-2.417469 z"
       style="fill:#204a87;fill-rule:evenodd;stroke:#0c1522;stroke-width:2;stroke-linecap:round;stroke-linejoin:round;stroke-dasharray:none;stroke-opacity:1"
       id="path351" />
    <path
       d="m 31.641658,49.515114 3.240091,-1.871291 -1.743335,-1.438037 z"
       style="fill:#729fcf;fill-rule:evenodd;stroke:#0c1522;stroke-width:2;stroke-linecap:round;stroke-linejoin:round;stroke-dasharray:none;stroke-opacity:1"
       id="path350" />
    <path
       d="M 54.043461,43.228313 42.219198,50.05553 c -0.256874,0.08443 -0.524098,0.146166 -0.796195,0.198192 -0.039,0.0075 -0.07476,0.02202 -0.114072,0.02881 -0.0866,0.0156 -0.175842,0.02423 -0.263863,0.03572 -0.03543,0.0045 -0.07033,0.0099 -0.106006,0.01383 -0.217639,0.02416 -0.439761,0.03755 -0.665993,0.03687 -0.213739,2.52e-4 -0.43083,-0.0084 -0.652167,-0.0311 -0.08412,-0.0082 -0.170712,-0.02796 -0.255797,-0.04033 -0.03848,-0.0053 -0.07421,-0.0033 -0.112919,-0.0092 -0.05084,-0.008 -0.103237,-0.02376 -0.1544,-0.03342 -0.0875,-0.01699 -0.175363,-0.03632 -0.263862,-0.05762 -0.122728,-0.0294 -0.246502,-0.06301 -0.37102,-0.1014 -0.05574,-0.01689 -0.109794,-0.02754 -0.165922,-0.04609 -0.0365,-0.01217 -0.074,-0.03294 -0.110615,-0.04609 -0.05172,-0.0185 -0.10238,-0.03069 -0.1544,-0.0507 -0.110598,-0.04475 -0.222258,-0.09864 -0.334149,-0.150947 -0.03519,-0.01659 -0.06957,-0.02631 -0.104854,-0.04379 -0.0089,-0.0043 -0.01764,-0.01176 -0.02651,-0.01613 -0.180217,-0.09116 -0.361469,-0.196051 -0.540394,-0.329549 l -2.144314,-1.768739 -3.240092,1.871291 3.338032,4.421272 c 0.3407,0.494922 0.602122,1.045587 0.838829,1.588984 0.252447,0.59602 0.467879,1.193536 0.645253,1.791784 0.389507,1.302637 0.624514,2.584227 0.745498,3.81172 L 56.129011,50.205326 c -0.09967,-1.058453 -0.296292,-2.146669 -0.589946,-3.264389 -0.17191,-0.649758 -0.386048,-1.300448 -0.641796,-1.953104 -0.238356,-0.597268 -0.510567,-1.197706 -0.853808,-1.75952 z"
       style="fill:#3465a4;fill-rule:evenodd;stroke:#0c1522;stroke-width:2;stroke-linecap:round;stroke-linejoin:round;stroke-dasharray:none;stroke-opacity:1"
       id="path349" />
    <path
       d="M 61.13894,36.668422 42.219198,47.593123 V 50.05553 L 61.13894,39.130829 Z"
       style="fill:#3465a4;fill-rule:evenodd;stroke:#0c1522;stroke-width:2;stroke-linecap:round;stroke-linejoin:round;stroke-dasharray:none;stroke-opacity:1"
       id="path348" />
    <path
       d="m 52.058155,30.03248 -18.919741,10.92355 3.887649,1.282479 c 0.187251,0.07285 0.378134,0.188238 0.566901,0.309963 0.236595,0.156039 0.471882,0.329028 0.704018,0.519674 0.454102,0.374336 0.894902,0.788681 1.32392,1.24215 0.935363,0.984046 1.803874,2.104345 2.598296,3.282827 L 61.13894,36.668422 c -0.794445,-1.178482 -1.662933,-2.297621 -2.598296,-3.281674 -0.428996,-0.453468 -0.869729,-0.867806 -1.323921,-1.24215 -0.232113,-0.190653 -0.467445,-0.36363 -0.704017,-0.519676 -0.188856,-0.121733 -0.379828,-0.237118 -0.5669,-0.309961 z"
       style="fill:#729fcf;fill-rule:evenodd;stroke:#0c1522;stroke-width:2;stroke-linecap:round;stroke-linejoin:round;stroke-dasharray:none;stroke-opacity:1"
       id="path347" />
    <path
       d="m 50.916288,26.189651 -15.686563,9.056866 c -0.07713,0.04692 -0.160914,0.08222 -0.250035,0.106008 l -3.338032,0.565767 1.496756,5.037738 18.919741,-10.92355 z"
       style="fill:#3465a4;fill-rule:evenodd;stroke:#0c1522;stroke-width:2;stroke-linecap:round;stroke-linejoin:round;stroke-dasharray:none;stroke-opacity:1"
       id="path346" />
    <path
       d="M 56.129011,19.809516 37.209269,30.733062 c -0.103771,0.935317 -0.292234,1.812755 -0.589945,2.583398 -0.171822,0.451323 -0.386072,0.854812 -0.641797,1.21219 -0.212737,0.289449 -0.454662,0.545393 -0.747802,0.717867 L 54.149467,24.322969 c 0.293229,-0.172476 0.535088,-0.428419 0.747802,-0.717867 0.255749,-0.357365 0.469886,-0.762015 0.641796,-1.213343 0.297668,-0.770635 0.486264,-1.646937 0.589946,-2.582243 z"
       style="fill:#729fcf;fill-rule:evenodd;stroke:#0c1522;stroke-width:2;stroke-linecap:round;stroke-linejoin:round;stroke-dasharray:none;stroke-opacity:1"
       id="path345" />
    <path
       d="M 54.621885,17.19731 35.70099,28.122012 37.209269,30.733062 56.129011,19.809516 Z"
       style="fill:#729fcf;fill-rule:evenodd;stroke:#0c1522;stroke-width:2;stroke-linecap:round;stroke-linejoin:round;stroke-dasharray:none;stroke-opacity:1"
       id="path344" />
    <path
       d="m 46.489391,18.522428 -15.686563,9.056864 c 0.295932,-0.167638 0.638492,-0.249708 0.995533,-0.289223 0.437341,-0.04278 0.894401,-0.02614 1.371163,0.05068 0.816222,0.127498 1.669593,0.403453 2.531466,0.781242 L 54.621885,17.197287 c -0.861941,-0.37779 -1.71641,-0.652589 -2.532619,-0.780086 -0.476779,-0.07686 -0.933827,-0.09349 -1.371163,-0.05068 -0.357044,0.03952 -0.699606,0.121585 -0.995533,0.289218 z"
       style="fill:#729fcf;fill-rule:evenodd;stroke:#0c1522;stroke-width:2;stroke-linecap:round;stroke-linejoin:round;stroke-dasharray:none;stroke-opacity:1"
       id="path343" />
    <path
       d="m 43.733239,15.611782 -18.919742,10.923552 3.613417,3.815172 2.159293,-2.607593 c 0.06516,-0.06531 0.137424,-0.120299 0.216621,-0.163621 l 15.686563,-9.056864 z"
       style="fill:#729fcf;fill-rule:evenodd;stroke:#0c1522;stroke-width:2;stroke-linecap:round;stroke-linejoin:round;stroke-dasharray:none;stroke-opacity:1"
       id="path342" />
    <path
       d="M 42.525693,4.4289709 23.605952,15.352523 c 0.623359,1.277283 1.159484,2.590277 1.543998,3.892374 0.178199,0.598277 0.315375,1.187138 0.412501,1.767591 0.04905,0.296356 0.08226,0.585876 0.09909,0.86881 0.01104,0.22434 0.01554,0.447842 -0.01498,0.646429 l -0.833065,4.007607 18.919741,-10.923552 0.833068,-4.007607 c 0.03052,-0.198582 0.02602,-0.422084 0.01498,-0.646423 -0.01684,-0.282934 -0.05004,-0.572453 -0.09909,-0.868816 C 44.38509,9.5085476 44.247891,8.9186723 44.069692,8.3202012 43.685179,7.0182336 43.149032,5.7061895 42.525694,4.4289709 Z"
       style="fill:#729fcf;fill-rule:evenodd;stroke:#0c1522;stroke-width:2;stroke-linecap:round;stroke-linejoin:round;stroke-dasharray:none;stroke-opacity:1"
       id="path341" />
    <path
       d="M 40.394054,3.1983477 21.474312,14.121894 23.605952,15.352523 42.525693,4.4289709 Z"
       style="fill:#729fcf;fill-rule:evenodd;stroke:#0c1522;stroke-width:2;stroke-linecap:round;stroke-linejoin:round;stroke-dasharray:none;stroke-opacity:1"
       id="path340" />
    <path
       d="m 19.893442,21.681955 -3.240092,1.871295 3.613417,0.357205 z"
       style="fill:#3465a4;fill-rule:evenodd;stroke:#0c1522;stroke-width:2;stroke-linecap:round;stroke-linejoin:round;stroke-dasharray:none;stroke-opacity:1"
       id="path339" />
    <path
       d="M 28.299015,1.9999837 9.3781209,12.923529 c 1.0026111,0.718523 1.9956991,1.563646 2.9289881,2.552284 0.429353,0.452715 0.83964,0.936491 1.229438,1.453016 0.352227,0.476709 0.698112,0.979629 0.956357,1.522153 L 16.65335,23.55325 19.893442,21.681955 19.433699,18.9407 c -0.02666,-0.226074 -0.02689,-0.438809 -0.01498,-0.644123 4.29e-4,-0.0062 -4.66e-4,-0.01339 0,-0.01959 0.0016,-0.02614 0.0073,-0.04903 0.0092,-0.07489 0.01076,-0.13647 0.02206,-0.272911 0.04033,-0.403298 0.0087,-0.05539 0.02351,-0.105799 0.03341,-0.160164 0.0068,-0.03752 0.0075,-0.07942 0.01498,-0.116382 0.01229,-0.05926 0.03135,-0.112482 0.04493,-0.170535 0.02842,-0.124235 0.05947,-0.245673 0.09449,-0.36412 0.02678,-0.09078 0.05617,-0.179797 0.08642,-0.267324 0.01666,-0.04743 0.02829,-0.09877 0.04609,-0.14519 0.01384,-0.03569 0.03297,-0.06502 0.04724,-0.100247 0.03209,-0.08065 0.05921,-0.166594 0.09449,-0.244281 0.09612,-0.214528 0.201665,-0.418632 0.315712,-0.613007 0.105035,-0.180753 0.220127,-0.350191 0.33991,-0.513917 0.03026,-0.04148 0.06224,-0.08057 0.09334,-0.120984 0.04777,-0.06166 0.09291,-0.126406 0.142877,-0.185521 0.02227,-0.02673 0.04885,-0.04749 0.07144,-0.07374 0.183971,-0.214009 0.375512,-0.417954 0.580728,-0.601485 L 33.297429,7.2946789 C 32.982482,6.7164966 32.599729,6.18078 32.20165,5.6757356 31.76431,5.1278775 31.307248,4.6170396 30.830488,4.1432101 30.00939,3.3300099 29.165776,2.6156227 28.299021,1.9999837 Z"
       style="fill:#3465a4;fill-rule:evenodd;stroke:#0c1522;stroke-width:2;stroke-linecap:round;stroke-linejoin:round;stroke-dasharray:none;stroke-opacity:1"
       id="path338" />
    <path
       d="M 9.9565444,20.771665 2.8610647,24.86799 c 0.7944457,-0.261124 1.662933,-0.378362 2.598296,-0.282304 0.428996,0.04195 0.8697292,0.138028 1.3239212,0.288068 0.2321124,0.0774 0.4662925,0.174376 0.7028649,0.291525 0.1899713,0.09137 0.3798653,0.207189 0.5680534,0.345683 l 3.8876498,3.206778 1.496756,-3.309331 -1.58087,-2.093681 -1.757162,-2.32759 c -0.05012,-0.06997 -0.0987,-0.141357 -0.1440296,-0.215473 z"
       style="fill:#3465a4;fill-rule:evenodd;stroke:#0c1522;stroke-width:2;stroke-linecap:round;stroke-linejoin:round;stroke-dasharray:none;stroke-opacity:1"
       id="path337" />
    <path
       id="path354"
       style="fill:url(#linearGradient355);fill-rule:evenodd;stroke:#729fcf;stroke-width:2.0667;stroke-linecap:round;stroke-linejoin:round;stroke-dasharray:none;stroke-opacity:1"
       d="m 22.551276,26.014174 c -6.89e-4,-0.02685 -8.54e-4,-0.05372 -4.95e-4,-0.08058 l 0.839844,-4.046875 c 2.88e-4,-0.0062 0.0032,-0.08362 -0.0039,-0.236328 -0.01289,-0.207092 -0.03836,-0.427749 -0.07813,-0.667969 -0.08514,-0.508802 -0.206436,-1.03454 -0.367188,-1.574219 -0.306128,-1.036616 -0.721679,-2.088479 -1.210937,-3.144531 l -0.128907,-0.07422 c -0.0806,0.146821 -0.163636,0.315443 -0.255859,0.542969 -0.02603,0.06563 -0.04429,0.112901 -0.05859,0.154297 -0.0013,0.0033 -0.0026,0.0065 -0.0039,0.0098 -0.02109,0.05998 -0.03939,0.119404 -0.05664,0.177735 -0.01927,0.06532 -0.0373,0.13411 -0.06445,0.25 l -0.002,0.0098 c -0.0187,0.08196 -0.0312,0.143375 -0.04102,0.197266 -0.02583,0.14261 -0.04244,0.2603 -0.05078,0.369141 -0.01207,0.153384 -0.0078,0.05664 -0.0078,0.05664 5.2e-5,0.0085 5.2e-5,0.01693 0,0.02539 -0.0053,0.07652 -0.0022,0.168707 0.0078,0.271484 l 0.847657,5.044922 c 0.12412,0.766732 -0.192139,1.538169 -0.818387,1.997164 0.0052,0.0027 0.01049,0.0052 0.01574,0.0077 0.01827,0.0046 0.03647,0.0095 0.0546,0.01465 l 1.378157,0.794718 c 0.003,-0.03297 0.0033,-0.06596 0.0052,-0.0989 z m -7.011405,-0.777203 c -0.249102,-0.07786 -0.479185,-0.202888 -0.680622,-0.364332 0.06285,0.396821 0.0087,0.803551 -0.156124,1.17033 l -1.548828,3.417968 c -0.562218,1.239094 -2.147691,1.606164 -3.1972657,0.740235 L 6.0136719,26.949219 C 5.9197258,26.881675 5.8364274,26.832019 5.7714844,26.800781 5.7642999,26.796917 5.7571383,26.793011 5.75,26.789062 5.578403,26.704091 5.4259292,26.641991 5.2871094,26.595703 4.9540766,26.4857 4.6494208,26.42155 4.3730469,26.394531 c -0.00326,8e-6 -0.00651,8e-6 -0.00977,0 C 4.2244795,26.380277 4.0894509,26.376441 3.9550781,26.375 v 0.148437 c 0.6701425,0.951606 1.3745568,1.837879 2.1171875,2.619141 0.3959283,0.418489 0.7880549,0.787289 1.1835938,1.113281 0.1782347,0.14639 0.3628906,0.282319 0.5507812,0.40625 0.12577,0.08008 0.1852165,0.113023 0.1894531,0.115235 l 3.9218753,1.292968 c 0.642606,0.211732 1.140882,0.7246 1.333984,1.373047 l 1.548828,5.207032 c 0.353736,1.189446 -0.413121,2.420261 -1.636718,2.626953 l -3.072266,0.517578 c -0.02973,0.0332 -0.04382,0.04725 -0.08398,0.101562 l -0.002,0.002 c -0.1472364,0.209447 -0.2825772,0.46146 -0.3984371,0.765625 -0.1700244,0.440212 -0.2895568,0.967181 -0.3847656,1.53711 l 0.8242187,1.425781 c 0.540092,0.202218 1.052383,0.361844 1.511719,0.433594 0.0033,-8e-6 0.0065,-8e-6 0.0098,0 0.327071,0.05272 0.614137,0.06055 0.869141,0.03711 0.06063,-0.0073 0.07822,-0.01253 0.121094,-0.02148 l 1.99414,-2.404297 c 0.791369,-0.953022 2.2376,-1.000559 3.089844,-0.101563 l 3.734375,3.94336 c 0.466134,0.491639 0.661707,1.180522 0.523438,1.84375 l -0.84375,4.044922 c -2.74e-4,0.0054 -0.0023,0.06211 0.0059,0.234375 v 0.0059 c 0.01292,0.204275 0.03856,0.421114 0.07813,0.660156 0.0851,0.508629 0.206351,1.034073 0.367187,1.574219 0.306554,1.037946 0.723497,2.093467 1.212891,3.150391 l 0.128906,0.07422 c 0.06592,-0.116837 0.128593,-0.236195 0.185547,-0.363281 0.116938,-0.257721 0.215052,-0.555307 0.289063,-0.912109 0.03091,-0.151208 0.05325,-0.312982 0.06445,-0.488281 6.06e-4,-0.0078 0.0013,-0.01563 0.002,-0.02344 0.0047,-0.06201 0.0022,-0.157582 -0.0098,-0.279297 l -0.845703,-5.048828 c -0.225497,-1.343781 0.888353,-2.534214 2.244141,-2.398437 l 3.734375,0.373046 c 0.147136,0.01827 0.291088,0.05221 0.42956,0.100787 0.241619,0.07948 0.464789,0.203279 0.660284,0.362104 -0.04194,-0.262035 -0.03494,-0.530945 0.02514,-0.792345 0.02724,-0.130087 0.0671,-0.257868 0.119393,-0.381483 l 1.544922,-3.421875 c 0.560593,-1.24049 2.146527,-1.609605 3.197265,-0.744141 l 3.945313,3.25586 c 0.08429,0.06044 0.163093,0.10739 0.230469,0.140625 0.0065,0.0032 0.01304,0.0065 0.01953,0.0098 0,0 -0.02012,-0.01182 0.07617,0.0332 0.0994,0.04685 0.206058,0.09021 0.330078,0.134766 0.07449,0.02665 0.138068,0.04876 0.195312,0.06641 0.09,0.02725 0.180181,0.05117 0.259766,0.07031 0.06363,0.01524 0.118511,0.0274 0.169922,0.03711 0.0039,6.4e-4 0.0078,0.0013 0.01172,0.002 0.04486,0.0087 0.0782,0.01255 0.167968,0.02539 l 0.01172,0.002 c 0.231592,0.03182 0.416126,0.04358 0.585938,0.04687 V 48.763672 C 39.824019,47.812083 39.119588,46.925794 38.376953,46.144531 37.983451,45.728622 37.591022,45.361003 37.193359,45.033203 37.009556,44.88226 36.824252,44.744814 36.642578,44.625 c -0.107369,-0.068 -0.177189,-0.106816 -0.185547,-0.111328 l -3.929687,-1.296875 c -0.642318,-0.212657 -1.139868,-0.726256 -1.332032,-1.375 l -1.544921,-5.205078 c -0.352347,-1.188163 0.413016,-2.417133 1.634765,-2.625 l 3.074219,-0.521485 c 0.02746,-0.03073 0.03979,-0.04362 0.07617,-0.0918 0.149815,-0.21143 0.289008,-0.465489 0.40625,-0.773437 0.0013,-0.0033 0.0026,-0.0065 0.0039,-0.0098 0.167247,-0.432916 0.285838,-0.958619 0.380859,-1.527343 l -0.824218,-1.427735 c -0.541102,-0.203047 -1.054391,-0.364112 -1.511719,-0.435547 -0.0033,8e-6 -0.0065,8e-6 -0.0098,0 -0.315594,-0.05088 -0.604305,-0.05768 -0.86914,-0.0332 -0.06263,0.0075 -0.0819,0.01241 -0.125,0.02148 l -1.986328,2.40039 c -0.790863,0.955024 -2.238827,1.003503 -3.091797,0.103516 l -0.427735,-0.451172 v 0.669922 c 1.76165,2.05691 3.04782,4.702551 3.464844,7.257812 0.46975,2.878353 -0.189007,5.855684 -2.556641,7.222657 -3.691912,2.131532 -8.375838,-1.064559 -10.884765,-5.410157 -2.509073,-4.345824 -2.937226,-10.002571 0.755859,-12.134765 0.294493,-0.170037 0.598686,-0.300324 0.908203,-0.402344 v -1.359375 c 0.0031,-0.07189 0.01,-0.143202 0.02047,-0.213687 0.05289,-0.522925 0.297863,-0.968553 0.648137,-1.291618 l -2.797515,-0.275945 c -0.136539,-0.01715 -0.270348,-0.04781 -0.399582,-0.09115 z m 14.080627,25.2008 c -0.0056,-0.0047 -0.0113,-0.0093 -0.01698,-0.01394 0.0011,0.0072 0.0023,0.01434 0.0036,0.0215 0.006,0.0052 0.01198,0.01037 0.01793,0.01561 -0.0015,-0.0077 -0.003,-0.01544 -0.0045,-0.02317 z M 9.625,15.820313 c 0.1763097,0.172315 0.3529171,0.344649 0.525391,0.527343 0.390654,0.411897 0.7653,0.852769 1.121093,1.324219 0.326474,0.4427 0.579394,0.820799 0.761719,1.199219 l 1.785156,4.210937 -2.746093,-3.634765 c -0.0011,-0.0016 -0.0028,-0.0062 -0.0039,-0.0078 -0.05405,-0.07941 -0.107994,-0.17943 -0.21875,-0.378906 -0.08251,-0.149009 -0.139335,-0.246281 -0.183593,-0.335938 -0.05097,-0.104098 -0.101316,-0.21339 -0.152344,-0.326172 -0.07112,-0.157455 -0.132661,-0.297865 -0.1875,-0.43164 -0.05051,-0.123904 -0.09635,-0.239607 -0.136719,-0.345703 C 10.126795,17.4551 10.067124,17.285117 10.005859,17.105469 9.9614773,16.975188 9.9202249,16.85423 9.8828125,16.734375 9.8337032,16.578388 9.7887461,16.428513 9.7460938,16.277344 9.7084428,16.144253 9.6739122,16.017295 9.6445313,15.904297 9.637212,15.875718 9.6321771,15.848841 9.625,15.820313 Z m 21.009766,36.388671 2.742187,3.628907 0.0039,0.0078 c 0.237958,0.347266 0.441517,0.76474 0.669922,1.289063 0.227828,0.539845 0.419981,1.077242 0.580078,1.617187 0.07124,0.238248 0.132833,0.476075 0.19336,0.712891 -0.01637,-0.01591 -0.03245,-0.02892 -0.04883,-0.04492 -0.111545,-0.109728 -0.207081,-0.204129 -0.302735,-0.302735 -0.100365,-0.103364 -0.199213,-0.20791 -0.300781,-0.318359 -0.09976,-0.107938 -0.195753,-0.215226 -0.289063,-0.322266 -0.09982,-0.114546 -0.195634,-0.230306 -0.30664,-0.365234 -0.10495,-0.128194 -0.194308,-0.237011 -0.275391,-0.341797 -0.08716,-0.113103 -0.174875,-0.230072 -0.263672,-0.353515 -0.07091,-0.09872 -0.138045,-0.196382 -0.199218,-0.28711 -0.07205,-0.107607 -0.12374,-0.203009 -0.222657,-0.36914 -0.108967,-0.183851 -0.153423,-0.245457 -0.199218,-0.337891 z"
       transform="matrix(0.96771274,0,0,0.96774251,1.0331928,1.032232)" />
    <path
       id="path336"
       style="fill:url(#linearGradient357);fill-rule:evenodd;stroke:#0c1522;stroke-width:2;stroke-linecap:round;stroke-linejoin:round;stroke-dasharray:none;stroke-opacity:1"
       d="m 20.517862,27.267126 v 3.097911 c -0.704612,-0.0864 -1.343258,0.02915 -1.878724,0.338331 -2.155016,1.244232 -2.155016,5.279405 0,9.012102 2.155016,3.732719 5.647169,5.748401 7.802184,4.504161 1.31533,-0.75944 1.879606,-2.615285 1.500712,-4.936998 -0.378896,-2.321714 -1.648645,-4.796934 -3.379435,-6.583296 v -3.09791 l -1.360846,-0.786291 z" />
  </g>
</svg>
