<?xml version="1.0" encoding="UTF-8" standalone="no"?>
<!-- Created with Inkscape (http://www.inkscape.org/) -->

<svg
   width="64"
   height="64"
   id="svg2869"
   version="1.1"
   viewBox="0 0 64 64"
   xmlns:xlink="http://www.w3.org/1999/xlink"
   xmlns="http://www.w3.org/2000/svg"
   xmlns:svg="http://www.w3.org/2000/svg"
   xmlns:rdf="http://www.w3.org/1999/02/22-rdf-syntax-ns#"
   xmlns:cc="http://creativecommons.org/ns#"
   xmlns:dc="http://purl.org/dc/elements/1.1/">
  <defs
     id="defs2871">
    <linearGradient
       id="linearGradient242">
      <stop
         style="stop-color:#fce94f;stop-opacity:1"
         offset="0"
         id="stop242" />
      <stop
         style="stop-color:#c4a000;stop-opacity:1"
         offset="1"
         id="stop243" />
    </linearGradient>
    <linearGradient
       id="linearGradient5">
      <stop
         style="stop-color:#ef2929;stop-opacity:1;"
         offset="0"
         id="stop19" />
      <stop
         style="stop-color:#ef2929;stop-opacity:0;"
         offset="1"
         id="stop20" />
    </linearGradient>
    <linearGradient
       id="swatch18">
      <stop
         style="stop-color:#ef2929;stop-opacity:1;"
         offset="0"
         id="stop18" />
    </linearGradient>
    <linearGradient
       id="swatch15">
      <stop
         style="stop-color:#3d0000;stop-opacity:1;"
         offset="0"
         id="stop15" />
    </linearGradient>
    <linearGradient
       id="linearGradient5-1">
      <stop
         style="stop-color:#ef2929;stop-opacity:1;"
         offset="0"
         id="stop5" />
      <stop
         style="stop-color:#ef2929;stop-opacity:0;"
         offset="1"
         id="stop6" />
    </linearGradient>
    <linearGradient
       id="linearGradient3836-9">
      <stop
         style="stop-color:#a40000;stop-opacity:1"
         offset="0"
         id="stop3838-8" />
      <stop
         style="stop-color:#ef2929;stop-opacity:1"
         offset="1"
         id="stop3840-1" />
    </linearGradient>
    <linearGradient
       xlink:href="#linearGradient242"
       id="linearGradient243"
       x1="50"
       y1="13"
       x2="5"
       y2="60"
       gradientUnits="userSpaceOnUse" />
  </defs>
  <metadata
     id="metadata2874">
    <rdf:RDF>
      <cc:Work
         rdf:about="">
        <dc:format>image/svg+xml</dc:format>
        <dc:type
           rdf:resource="http://purl.org/dc/dcmitype/StillImage" />
        <dc:creator>
          <cc:Agent>
            <dc:title>[maxwxyz]</dc:title>
          </cc:Agent>
        </dc:creator>
        <dc:relation>https://www.freecad.org/wiki/index.php?title=Artwork</dc:relation>
        <dc:publisher>
          <cc:Agent>
            <dc:title>FreeCAD</dc:title>
          </cc:Agent>
        </dc:publisher>
        <dc:identifier>FreeCAD/src/</dc:identifier>
        <dc:rights>
          <cc:Agent>
            <dc:title>FreeCAD LGPL2+</dc:title>
          </cc:Agent>
        </dc:rights>
        <dc:date>2024</dc:date>
      </cc:Work>
    </rdf:RDF>
  </metadata>
  <g
     id="layer3"
     style="display:inline">
    <path
       d="m 15.012477,28.698835 c -0.427049,0.167103 -0.836111,0.367672 -1.232063,0.598002 l -7.6667766,4.421925 c 0.4216488,-0.245527 0.8630168,-0.455168 1.3198718,-0.628176 0.507964,-0.183005 1.03808,-0.339997 1.588784,-0.340149 l 4.2806618,0.326433 c 0.187959,0.01639 0.372628,-0.02406 0.554291,-0.12344 0.07681,-0.04573 0.140955,-0.10153 0.200313,-0.161846 0.01857,-0.01919 0.03525,-0.03977 0.05214,-0.06035 0.03987,-0.0481 0.07397,-0.100252 0.104275,-0.156359 0.006,-0.01109 0.01349,-0.0216 0.01921,-0.03292 0.0051,-0.01025 0.0118,-0.01985 0.01647,-0.03017 0.03119,-0.07011 0.05701,-0.142281 0.07134,-0.213963 l 0.600939,-2.951609 v -0.0028 h 0.0028 l 0.07684,-0.384037 c 0.01832,-0.08579 0.01555,-0.172794 0.01096,-0.260598 z"
       style="fill:#c4a000;fill-rule:evenodd;stroke:#231f0b;stroke-width:2;stroke-dasharray:none;stroke-opacity:1;stroke-linejoin:round;stroke-linecap:round"
       id="path241" />
    <path
       d="m 16.096362,12.87646 c -0.172677,-0.0028 -0.337702,0.03844 -0.493922,0.126179 l -7.6640328,4.424669 c 0.156221,-0.08774 0.321244,-0.12903 0.493923,-0.126179 1.13484,0.0097 2.2570898,0.159335 3.3696508,0.449874 0.586801,0.15537 1.157486,0.364116 1.712265,0.625433 0.503359,0.247435 1.006512,0.525869 1.41591,0.927179 l 2.955305,3.341133 c 0.330619,0.373431 0.859439,0.471605 1.267733,0.235909 0.0091,-0.0052 0.0186,-0.01095 0.02744,-0.01646 l 2.801638,-1.744632 c 0.09693,-0.06032 0.176605,-0.138286 0.244218,-0.224936 0.02012,-0.02581 0.03199,-0.05735 0.0494,-0.08504 0.0414,-0.066 0.0792,-0.134269 0.104275,-0.208477 0.01264,-0.03729 0.01915,-0.07636 0.02744,-0.11521 0.01413,-0.06643 0.02366,-0.133805 0.0247,-0.202992 6.59e-4,-0.04993 -0.0045,-0.100196 -0.01096,-0.150872 -0.0041,-0.0315 -0.01507,-0.0618 -0.02196,-0.09327 -0.01307,-0.05992 -0.01478,-0.119466 -0.03841,-0.178303 l -1.580553,-3.933649 -0.08507,-0.211221 c -0.04999,-0.155242 -0.08381,-0.312708 -0.112507,-0.471818 -0.0087,-0.04736 -0.01482,-0.09508 -0.02196,-0.142644 -0.0143,-0.09767 -0.02707,-0.195242 -0.03567,-0.293514 -0.01124,-0.123524 -0.0098,-0.246454 -0.01377,-0.370323 -0.0044,-0.135757 -0.01718,-0.271244 -0.01647,-0.405983 0.0015,-0.0718 0.01068,-0.142411 0.01377,-0.213963 0.0018,-0.05098 -0.0024,-0.102865 0,-0.153616 -1.421455,-0.540124 -2.926186,-0.763701 -4.412376,-0.787278 z"
       style="fill:#edd400;fill-rule:evenodd;stroke:#231f0b;stroke-width:2;stroke-dasharray:none;stroke-opacity:1;stroke-linejoin:round;stroke-linecap:round"
       id="path240" />
    <path
       d="m 31.899143,3.7747534 -1.712265,0.2468819 c -0.120614,0.01726 -0.235541,0.057472 -0.340257,0.117954 l -7.664035,4.4219261 c 0.104766,-0.06046 0.219588,-0.100701 0.340258,-0.117949 l 1.712265,-0.244138 z"
       style="fill:#fce94f;fill-rule:evenodd;stroke:#231f0b;stroke-width:2;stroke-dasharray:none;stroke-opacity:1;stroke-linejoin:round;stroke-linecap:round"
       id="path239" />
    <path
       d="m 32.01988,3.766524 c -0.03987,2.667e-4 -0.08104,0.00254 -0.12074,0.00823 l -7.664033,4.4246704 c 0.317624,-0.04549 0.646609,0.06861 0.883573,0.307231 0.836745,0.833693 1.568222,1.7536846 2.195211,2.7595876 0.32925,0.531956 0.609848,1.088125 0.842413,1.667823 0.203956,0.533017 0.383338,1.086435 0.411602,1.654108 l -0.09878,4.397238 c -0.0074,0.236835 0.06505,0.465087 0.219521,0.685782 0.166564,0.21146 0.36356,0.345289 0.589962,0.403241 l 5.935304,-3.42617 0.107014,-0.263341 c 0.06845,-0.138763 0.149251,-0.268964 0.235986,-0.39501 0.03467,-0.05076 0.07286,-0.09909 0.109767,-0.148129 0.04403,-0.05794 0.09044,-0.114353 0.137206,-0.170075 0.08136,-0.09788 0.169893,-0.187883 0.257937,-0.279799 0.07682,-0.08059 0.148747,-0.166726 0.227753,-0.244139 -0.109571,-0.194983 -0.162838,-0.390584 -0.156408,-0.58703 l 0.09878,-4.394495 C 36.203668,9.5985714 36.024272,9.0424064 35.820347,8.5093984 35.587757,7.9296934 35.307193,7.3735324 34.977933,6.8415744 34.350915,5.8356634 33.61952,4.9156944 32.782722,4.0819848 32.605039,3.9030331 32.375069,3.796073 32.137879,3.7720111 c -0.03954,-0.00402 -0.07811,-0.00576 -0.117986,-0.00549 z"
       style="fill:#fce94f;fill-rule:evenodd;stroke:#231f0b;stroke-width:2;stroke-dasharray:none;stroke-opacity:1;stroke-linejoin:round;stroke-linecap:round"
       id="path238" />
    <path
       d="m 35.213912,16.648264 -5.935304,3.426169 3.281842,0.872315 c 0.228564,0.06375 0.511398,0.04038 0.738141,-0.09327 0.196978,-0.121011 0.334607,-0.280745 0.411602,-0.477306 l 0.04664,-0.1207 z"
       style="fill:#edd400;fill-rule:evenodd;stroke:#231f0b;stroke-width:2;stroke-dasharray:none;stroke-opacity:1;stroke-linejoin:round;stroke-linecap:round"
       id="path237" />
    <path
       d="m 48.662328,8.2021654 c -0.07931,0.0039 -0.15572,0.01702 -0.227754,0.04115 -0.940388,0.287216 -1.834604,0.672828 -2.68639,1.1576 l -7.666776,4.4246686 c 0.851785,-0.484772 1.74874,-0.870387 2.689134,-1.1576 0.288125,-0.09648 0.660149,-0.0294 0.911013,0.167331 l 7.664033,-4.4219266 c -0.188163,-0.147548 -0.44532,-0.223065 -0.68326,-0.211221 z"
       style="fill:#fce94f;fill-rule:evenodd;stroke:#231f0b;stroke-width:2;stroke-dasharray:none;stroke-opacity:1;stroke-linejoin:round;stroke-linecap:round"
       id="path236" />
    <path
       d="m 49.345588,8.4133864 -7.664033,4.4219256 1.440607,1.083537 7.664032,-4.4219256 z"
       style="fill:#fce94f;fill-rule:evenodd;stroke:#231f0b;stroke-width:2;stroke-dasharray:none;stroke-opacity:1;stroke-linejoin:round;stroke-linecap:round"
       id="path235" />
    <path
       d="m 50.786194,9.4969234 -7.664032,4.4219256 c 0.2582,0.186051 0.439673,0.533571 0.444531,0.85037 0.04857,1.169374 -0.04042,2.318804 -0.26617,3.450857 -0.121204,0.59699 -0.295574,1.175126 -0.521362,1.733659 -0.214981,0.506309 -0.462019,1.011134 -0.831437,1.412713 l -3.097992,2.877543 c -0.168397,0.153445 -0.27037,0.359305 -0.30733,0.619947 -0.02166,0.263313 0.03348,0.498361 0.161896,0.702241 l 7.664033,-4.424669 c -0.128411,-0.203877 -0.183549,-0.438926 -0.161896,-0.702241 0.03699,-0.260636 0.141682,-0.466501 0.310074,-0.619948 l 3.095248,-2.877543 c 0.369417,-0.401578 0.616456,-0.90366 0.831436,-1.409968 0.225841,-0.558522 0.40016,-1.136669 0.521364,-1.733658 0.225753,-1.132055 0.31473,-2.284228 0.266169,-3.453602 -0.0049,-0.316798 -0.186331,-0.6615746 -0.444532,-0.8476266 z"
       style="fill:#fce94f;fill-rule:evenodd;stroke:#231f0b;stroke-width:2;stroke-dasharray:none;stroke-opacity:1;stroke-linejoin:round;stroke-linecap:round"
       id="path234" />
    <path
       d="m 46.368331,21.14151 -7.664033,4.424669 1.83849,2.976297 7.664033,-4.424669 z"
       style="fill:#fce94f;fill-rule:evenodd;stroke:#231f0b;stroke-width:2;stroke-dasharray:none;stroke-opacity:1;stroke-linejoin:round;stroke-linecap:round"
       id="path233" />
    <path
       d="m 54.614095,22.932774 c -0.412919,-0.0066 -0.826419,0.02197 -1.218342,0.137162 l -3.943149,1.503236 c -0.21184,0.08317 -0.44241,0.08265 -0.691492,0 -0.244528,-0.0976 -0.429444,-0.249249 -0.554291,-0.455359 l -7.664033,4.424669 c 0.124843,0.206111 0.309767,0.357755 0.554292,0.455358 0.249074,0.08268 0.476912,0.08316 0.688747,0 l 3.945892,-1.505977 c 0.522617,-0.15358 1.082603,-0.152565 1.629945,-0.120701 0.598819,0.04532 1.191533,0.147911 1.778122,0.304487 1.110475,0.300368 2.174907,0.731094 3.196777,1.294758 0.28051,0.145261 0.511354,0.461447 0.562524,0.776305 l 7.664032,-4.421925 c -0.05117,-0.31486 -0.279319,-0.631058 -0.55978,-0.776306 -1.02187,-0.563663 -2.088994,-0.997119 -3.199519,-1.297502 -0.58654,-0.156561 -1.179305,-0.256417 -1.778122,-0.301743 -0.136854,-0.008 -0.273962,-0.01428 -0.411603,-0.01646 z"
       style="fill:#fce94f;fill-rule:evenodd;stroke:#231f0b;stroke-width:2;stroke-dasharray:none;stroke-opacity:1;stroke-linejoin:round;stroke-linecap:round"
       id="path232" />
    <path
       d="m 60.563119,25.324784 -7.664032,4.421925 0.323792,1.777548 7.664034,-4.421924 z"
       style="fill:#fce94f;fill-rule:evenodd;stroke:#231f0b;stroke-width:2;stroke-dasharray:none;stroke-opacity:1;stroke-linejoin:round;stroke-linecap:round"
       id="path231" />
    <path
       d="m 60.886913,27.102333 -7.664034,4.421924 c 0.06398,0.313018 -0.03823,0.678116 -0.252449,0.894262 -0.838007,0.897088 -1.784002,1.657573 -2.834566,2.279541 l 7.664032,-4.42467 c 1.050559,-0.621946 1.996568,-1.382483 2.834568,-2.27954 0.214269,-0.216117 0.316426,-0.578502 0.252449,-0.891517 z"
       style="fill:#fce94f;fill-rule:evenodd;stroke:#231f0b;stroke-width:2;stroke-dasharray:none;stroke-opacity:1;stroke-linejoin:round;stroke-linecap:round"
       id="path230" />
    <path
       d="m 42.809345,35.337209 c -0.139736,0.0091 -0.278064,0.05167 -0.414347,0.126179 -0.247645,0.13903 -0.416194,0.402751 -0.463739,0.655609 l -0.680515,3.338388 6.717348,-3.878786 c -0.111903,0.02444 -0.223742,0.04576 -0.337513,0.06035 -0.132107,0.01666 -0.266066,0.02719 -0.400628,0.02743 l -3.987052,-0.304488 -0.29361,-0.02195 c -0.047,-0.0041 -0.09336,-0.0058 -0.139946,-0.0028 z"
       style="fill:#edd400;fill-rule:evenodd;stroke:#231f0b;stroke-width:2;stroke-dasharray:none;stroke-opacity:1;stroke-linejoin:round;stroke-linecap:round"
       id="path229" />
    <path
       d="m 57.267558,44.847643 -7.664032,4.424668 -0.979615,1.429171 c -0.07951,0.116754 -0.18305,0.213242 -0.310073,0.288028 l 7.664032,-4.424668 c 0.127021,-0.07479 0.230621,-0.168521 0.310075,-0.285286 z"
       style="fill:#fce94f;fill-rule:evenodd;stroke:#231f0b;stroke-width:2;stroke-dasharray:none;stroke-opacity:1;stroke-linejoin:round;stroke-linecap:round"
       id="path228" />
    <path
       d="m 48.895569,35.296062 c -0.007,0.0028 -0.01492,0.0028 -0.02196,0.0055 -0.01873,0.0073 -0.03609,0.01757 -0.05488,0.02469 -0.276602,0.09968 -0.561037,0.189124 -0.850644,0.252367 l -6.717348,3.878787 c -0.04894,0.229346 -0.01586,0.463973 0.09878,0.707727 0.128215,0.237019 0.298503,0.40614 0.513131,0.504736 l 3.965102,1.865329 c 0.49395,0.277832 0.910286,0.687872 1.295174,1.108225 0.41386,0.466912 0.785772,0.965115 1.11407,1.497749 0.618736,1.011056 1.112672,2.078147 1.484512,3.201233 0.108546,0.301984 0.0605,0.681359 -0.117986,0.929921 l 7.664032,-4.424668 c 0.178492,-0.248563 0.226551,-0.625231 0.117987,-0.927179 -0.37179,-1.123067 -0.865832,-2.190176 -1.484513,-3.201234 -0.328302,-0.532609 -0.700262,-1.033588 -1.114068,-1.500491 -0.384887,-0.420364 -0.798438,-0.83035 -1.292432,-1.108224 l -3.967834,-1.865344 c -0.332544,-0.14064 -0.624554,-0.551958 -0.631123,-0.949124 z"
       style="fill:#edd400;fill-rule:evenodd;stroke:#231f0b;stroke-width:2;stroke-dasharray:none;stroke-opacity:1;stroke-linejoin:round;stroke-linecap:round"
       id="path227" />
    <path
       d="m 37.513397,45.4237 -3.243426,1.873557 c -0.194125,0.118201 -0.331888,0.301489 -0.414346,0.548626 -0.06769,0.252523 -0.05602,0.487909 0.03567,0.710471 l 1.665618,4.144869 c 0.176035,0.54653 0.203391,1.121707 0.200313,1.684283 -0.01349,0.615011 -0.08347,1.222008 -0.205802,1.818695 -0.235498,1.129444 -0.598791,2.206767 -1.094861,3.231407 -0.08409,0.176691 -0.213524,0.316335 -0.386906,0.419699 l 7.664032,-4.424668 c 0.173333,-0.103385 0.302773,-0.243022 0.386907,-0.419699 0.68959,-1.453551 1.18505,-3.034071 1.286942,-4.682524 -0.0724,-0.02819 -0.141956,-0.06628 -0.214033,-0.09601 -0.152412,-0.06294 -0.305438,-0.121334 -0.455506,-0.192021 -0.05179,-0.02545 -0.101999,-0.05604 -0.153665,-0.08229 -0.178282,-0.08965 -0.354076,-0.18245 -0.524107,-0.288028 -0.163748,-0.100281 -0.321654,-0.20875 -0.471971,-0.329176 -0.03054,-0.02381 -0.06325,-0.044 -0.0933,-0.06858 L 41.322081,49.113208 38.48477,45.906489 38.36403,45.77208 c -0.05978,-0.07607 -0.139889,-0.133187 -0.22501,-0.186534 -0.02676,-0.01719 -0.05387,-0.03437 -0.08232,-0.04938 -0.167829,-0.08388 -0.359032,-0.120448 -0.543315,-0.112471 z"
       style="fill:#edd400;fill-rule:evenodd;stroke:#231f0b;stroke-width:2;stroke-dasharray:none;stroke-opacity:1;stroke-linejoin:round;stroke-linecap:round"
       id="path226" />
    <path
       d="m 23.299401,47.448129 c -0.0046,4.46e-4 -0.0091,0.002 -0.01377,0.0028 -0.02122,0.0032 -0.04204,0.0091 -0.06311,0.01376 -0.09055,0.02093 -0.18103,0.05056 -0.268912,0.09875 -0.19698,0.121011 -0.334611,0.280747 -0.411604,0.477306 l -1.610691,3.991143 c -0.307779,0.608674 -0.794249,1.094462 -1.295175,1.53341 -0.457895,0.38711 -0.948229,0.72877 -1.468046,1.025931 l 7.666776,-4.42467 c 0.646066,-0.366786 1.237452,-0.805194 1.780866,-1.313959 -0.01166,-0.02024 -0.01992,-0.04025 -0.03293,-0.06035 -0.02429,-0.03545 -0.04981,-0.06705 -0.07684,-0.09875 -0.05159,-0.05859 -0.104962,-0.111474 -0.161897,-0.156359 -0.0348,-0.02692 -0.069,-0.0543 -0.107013,-0.07681 -0.02074,-0.0125 -0.04448,-0.0165 -0.06585,-0.02743 -0.06515,-0.03329 -0.126529,-0.07235 -0.197569,-0.09052 l -3.281839,-0.872302 c -0.04487,-0.0125 -0.09725,-0.0053 -0.145432,-0.01095 -0.04909,-0.0058 -0.09738,-0.01278 -0.148176,-0.01096 -0.0329,0.0012 -0.06614,-0.0031 -0.09878,0 z"
       style="fill:#c4a000;fill-rule:evenodd;stroke:#231f0b;stroke-width:2;stroke-dasharray:none;stroke-opacity:1;stroke-linejoin:round;stroke-linecap:round"
       id="path225" />
    <path
       d="m 36.451462,15.013357 c -0.133891,0.121755 -0.263891,0.247264 -0.389649,0.378552 -0.08756,0.09185 -0.176206,0.182396 -0.257937,0.279799 -0.04646,0.05588 -0.09349,0.111966 -0.137207,0.170075 -0.03701,0.04868 -0.07507,0.09771 -0.109767,0.14813 -0.08607,0.125996 -0.166308,0.257212 -0.235986,0.39501 l -1.610736,3.991253 c -0.07699,0.196561 -0.214623,0.356301 -0.411602,0.477305 -0.226744,0.133637 -0.509576,0.157019 -0.738141,0.09327 l -3.281841,-0.872315 c -0.226404,-0.05795 -0.423397,-0.191779 -0.589963,-0.403241 -0.154471,-0.220696 -0.226984,-0.448945 -0.219521,-0.685782 l 0.09878,-4.397237 C 28.539621,14.020499 28.360245,13.467087 28.156289,12.934067 27.923725,12.354368 27.643127,11.798203 27.313877,11.266244 26.686886,10.260337 25.955414,9.3403534 25.118665,8.5066564 24.8817,8.2680394 24.552716,8.1539314 24.235092,8.1994254 l -1.71225,0.244133 c -0.12067,0.01725 -0.235488,0.05749 -0.340258,0.117948 -0.16733,0.09657 -0.302204,0.24213 -0.386905,0.4197 -0.154206,0.32504 -0.29546,0.658699 -0.428067,0.995756 -0.03576,0.09154 -0.06772,0.1847196 -0.101535,0.2770556 -0.08697,0.234794 -0.164449,0.473389 -0.23873,0.713214 -0.0417,0.136389 -0.08861,0.270692 -0.126219,0.408726 -0.08968,0.327462 -0.165898,0.657746 -0.227753,0.993014 -0.01321,0.06999 -0.02121,0.140983 -0.03293,0.21122 -0.04872,0.295245 -0.08562,0.59395 -0.109767,0.894261 -0.0087,0.11403 -0.01704,0.228223 -0.02196,0.342892 -0.0074,0.205738 -0.0037,0.412576 0.0028,0.619947 0.0039,0.123819 0.003,0.24663 0.01377,0.370323 0.0089,0.09789 0.02109,0.196222 0.03567,0.293514 0.007,0.04754 0.01335,0.09532 0.02196,0.142643 0.02907,0.159091 0.06359,0.316042 0.112507,0.471818 l 1.665618,4.14487 c 0.02241,0.05569 0.03907,0.111783 0.05214,0.170074 0.0077,0.03419 0.0039,0.06739 0.0083,0.101503 0.0066,0.05131 0.0118,0.100111 0.01096,0.150872 -9.25e-4,0.07001 -0.0104,0.136094 -0.0247,0.202992 -0.0083,0.03923 -0.0147,0.0775 -0.02744,0.115209 -0.0252,0.07469 -0.06273,0.142347 -0.104275,0.208477 -0.01756,0.02801 -0.02901,0.05892 -0.0494,0.08504 -0.06794,0.08721 -0.147499,0.164757 -0.244217,0.224937 l -2.801639,1.744631 c -0.0089,0.0055 -0.01835,0.01124 -0.02744,0.01646 -0.408296,0.235696 -0.937113,0.137526 -1.267734,-0.235909 l -2.955305,-3.341133 c -0.4094,-0.401312 -0.912548,-0.679743 -1.41591,-0.927179 -0.554782,-0.261318 -1.125459,-0.470064 -1.712265,-0.625433 -1.112566,-0.290541 -2.2348028,-0.440176 -3.3696508,-0.449874 -0.17268,-0.0028 -0.3377,0.03844 -0.493922,0.126178 -0.12702,0.07479 -0.23062,0.171265 -0.310073,0.28803 l -0.979615,1.42917 c -0.178493,0.248562 -0.226551,0.627974 -0.117992,0.929922 0.371792,1.12307 0.86583,2.190171 1.484511,3.201233 0.328306,0.532611 0.700262,1.030844 1.114071,1.497749 0.384887,0.420365 0.798435,0.830348 1.2924308,1.108224 l 3.967845,1.865328 c 0.097,0.04102 0.187442,0.109198 0.271658,0.189277 0.01662,0.01566 0.03082,0.03518 0.04664,0.05212 0.06151,0.06602 0.115725,0.13674 0.161897,0.216707 0.01011,0.01708 0.02327,0.02876 0.03293,0.04663 0.0093,0.01965 0.01096,0.03805 0.0192,0.05761 0.03279,0.07251 0.05287,0.145757 0.0686,0.222194 0.009,0.04229 0.01807,0.08435 0.02196,0.126178 8.15e-4,0.01292 0.008,0.02546 0.0083,0.0384 0.0041,0.09253 -0.0018,0.18024 -0.0192,0.263341 l -0.07684,0.384036 -0.603683,2.954353 c -0.01349,0.07187 -0.03914,0.143547 -0.07134,0.213963 -0.0037,0.0081 -0.0044,0.01661 -0.0083,0.02469 -0.007,0.01459 -0.01984,0.02431 -0.02744,0.0384 -0.03007,0.05499 -0.0638,0.107064 -0.104275,0.156358 -0.01703,0.02055 -0.03335,0.04127 -0.05214,0.06035 -0.05982,0.0618 -0.124632,0.119353 -0.200312,0.161846 -0.181665,0.0994 -0.366332,0.13983 -0.554292,0.12344 L 9.0224242,32.750421 c -0.550705,1.52e-4 -1.080819,0.157143 -1.588784,0.340149 -0.457003,0.17302 -0.898367,0.382659 -1.3200178,0.628187 -1.0505608,0.62195 -1.9938225,1.382482 -2.831823,2.279542 -0.2142706,0.216117 -0.3164272,0.581244 -0.2524493,0.89426 l 0.3237935,1.774805 c 0.05117,0.314862 0.2793175,0.633802 0.5597791,0.779049 1.0218767,0.563668 2.0889887,0.994375 3.1995205,1.294757 0.586543,0.156564 1.179301,0.259163 1.778122,0.304488 0.547397,0.03188 1.107377,0.03289 1.6299448,-0.120701 l 3.943148,-1.505979 c 0.211842,-0.08317 0.442411,-0.08265 0.691491,0 0.24453,0.0976 0.429446,0.249249 0.554293,0.45536 l 1.838489,2.976297 c 0.12841,0.203878 0.183549,0.438924 0.161897,0.702241 -0.03699,0.260637 -0.141682,0.466499 -0.310073,0.619947 l -3.095248,2.877543 c -0.36942,0.40158 -0.616457,0.906402 -0.831437,1.412712 -0.225842,0.558522 -0.40016,1.136666 -0.521363,1.733658 -0.225755,1.132059 -0.314733,2.281481 -0.266169,3.450859 0.0049,0.316799 0.186329,0.664317 0.444529,0.85037 l 1.440608,1.083537 c 0.250885,0.196731 0.622877,0.263808 0.911013,0.16733 0.94039,-0.287216 1.834603,-0.672827 2.686391,-1.1576 0.519818,-0.297161 1.010151,-0.63882 1.468046,-1.025931 0.500927,-0.43895 0.987396,-0.924735 1.295175,-1.53341 l 1.610738,-3.991255 c 0.07699,-0.196558 0.214623,-0.356299 0.411603,-0.477305 0.08376,-0.04937 0.175496,-0.0783 0.268912,-0.09875 0.02107,-0.0049 0.0419,-0.01025 0.06311,-0.01376 0.03843,-0.0058 0.07418,-0.0014 0.112507,-0.0028 0.05778,-0.0021 0.114052,-0.01124 0.172872,-0.0028 l 0.120741,0.02469 3.281842,0.872316 c 0.07064,0.01854 0.140992,0.04638 0.211288,0.08229 0.01897,0.0098 0.03392,0.02487 0.05214,0.03566 0.03703,0.0224 0.072,0.04921 0.107014,0.07681 0.05909,0.0457 0.112086,0.09792 0.161897,0.156359 0.01735,0.01971 0.03814,0.03086 0.05488,0.05212 0.01054,0.015 0.01222,0.03157 0.02196,0.04663 0.01321,0.01931 0.03148,0.0317 0.0439,0.05212 0.02822,0.05024 0.04258,0.100533 0.06311,0.150872 0.01671,0.04008 0.03775,0.08011 0.0494,0.120701 0.02998,0.105057 0.04736,0.209988 0.04391,0.315461 l -0.09878,4.397237 c 0.02828,0.567681 0.207677,1.121099 0.411603,1.654108 0.23259,0.579707 0.513152,1.135862 0.842411,1.667823 0.627023,1.005915 1.358412,1.925877 2.195212,2.75959 0.221132,0.231848 0.582399,0.357186 0.883573,0.30723 L 33.729408,59.9731 c 0.118577,-0.0166 0.231564,-0.05618 0.340258,-0.117949 0.173384,-0.10337 0.302824,-0.243008 0.386906,-0.419698 0.496072,-1.024643 0.859362,-2.101959 1.094862,-3.231407 0.122327,-0.596691 0.192296,-1.203682 0.205801,-1.818696 0.0031,-0.562577 -0.02428,-1.13775 -0.200312,-1.684283 l -1.665618,-4.144868 c -0.09169,-0.222564 -0.103361,-0.457947 -0.03567,-0.710472 0.08246,-0.247138 0.22022,-0.430429 0.414345,-0.548626 l 2.80164,-1.74463 0.05488,-0.03017 c 0.07485,-0.04067 0.157628,-0.06906 0.244217,-0.08778 0.02856,-0.0056 0.05561,-0.008 0.08507,-0.01096 0.02799,-0.0037 0.05321,-0.01222 0.08232,-0.01376 0.17883,-0.01 0.359705,0.04239 0.518619,0.126179 0.02967,0.01483 0.05453,0.03195 0.08232,0.04938 0.08567,0.05506 0.16364,0.114409 0.22501,0.186534 l 2.958048,3.341131 c 0.08413,0.08246 0.17498,0.154625 0.266168,0.22768 0.08801,0.06858 0.177149,0.134985 0.268915,0.197506 0.232562,0.157909 0.478303,0.293212 0.727164,0.419698 0.199475,0.100308 0.403895,0.189639 0.609171,0.274314 0.09443,0.03899 0.187307,0.08194 0.282633,0.117949 0.320937,0.119479 0.645976,0.226564 0.974125,0.31546 0.07028,0.01836 0.14092,0.03215 0.211289,0.04938 0.259537,0.06517 0.519667,0.119324 0.782045,0.167331 0.116244,0.02153 0.232007,0.04185 0.34849,0.06035 0.246458,0.0382 0.493377,0.07126 0.740884,0.09601 0.08961,0.0093 0.179163,0.01996 0.268913,0.02743 0.339484,0.02758 0.679355,0.044 1.018029,0.04938 0.172679,0.0028 0.337701,-0.03844 0.493923,-0.126179 0.127021,-0.07479 0.230569,-0.171276 0.310074,-0.288028 l 0.979614,-1.429171 c 0.178492,-0.248563 0.226541,-0.627936 0.117986,-0.929921 -0.37184,-1.122906 -0.865772,-2.18999 -1.484511,-3.201049 -0.328299,-0.532637 -0.700208,-1.030836 -1.114069,-1.497749 -0.384891,-0.420354 -0.801224,-0.830392 -1.295174,-1.108225 L 41.86267,40.669862 c -0.214629,-0.0986 -0.384914,-0.267715 -0.51313,-0.504736 -0.114643,-0.243755 -0.147724,-0.47838 -0.09878,-0.707727 l 0.680515,-3.338389 c 0.04754,-0.252859 0.216095,-0.516582 0.463739,-0.655609 0.181712,-0.09937 0.366323,-0.139788 0.554291,-0.12344 l 4.280662,0.326433 c 0.25263,-7.9e-5 0.499739,-0.03421 0.743629,-0.08778 0.307238,-0.0691 0.607302,-0.163965 0.900036,-0.277055 0.436674,-0.168743 0.857998,-0.368076 1.262248,-0.603489 1.050566,-0.62197 1.996558,-1.382452 2.834566,-2.279542 0.214224,-0.216145 0.316428,-0.581244 0.252449,-0.894261 L 52.899101,29.746712 C 52.847931,29.431851 52.61709,29.115669 52.336577,28.970407 51.3147,28.40674 50.250282,27.976018 49.1398,27.675649 c -0.586593,-0.156578 -1.1793,-0.259162 -1.778122,-0.304487 -0.547344,-0.03187 -1.107325,-0.03288 -1.629944,0.120701 l -3.945893,1.505977 c -0.211835,0.08316 -0.439673,0.08268 -0.688747,0 -0.244527,-0.0976 -0.429445,-0.249247 -0.554292,-0.455359 L 38.704308,25.56618 c -0.128424,-0.203881 -0.183559,-0.438927 -0.161896,-0.702241 0.03696,-0.260645 0.138935,-0.466502 0.30733,-0.619947 l 3.097992,-2.877543 c 0.369419,-0.40158 0.616456,-0.906401 0.831437,-1.412713 0.22579,-0.558536 0.400158,-1.136666 0.521362,-1.733659 0.225756,-1.132058 0.314732,-2.281479 0.26617,-3.450857 -0.0049,-0.316799 -0.186331,-0.664318 -0.444531,-0.85037 l -1.440607,-1.083537 c -0.250865,-0.196727 -0.622888,-0.263812 -0.911013,-0.167331 -0.940395,0.287215 -1.837348,0.672829 -2.689134,1.157601 -0.287976,0.16349 -0.561112,0.345949 -0.828693,0.537653 -0.101254,0.07232 -0.197792,0.151449 -0.296354,0.227681 -0.173003,0.134746 -0.340936,0.275198 -0.504899,0.422441 z"
       style="fill:#fce94f;fill-rule:evenodd;stroke:#231f0b;stroke-width:2;stroke-dasharray:none;stroke-opacity:1;stroke-linejoin:round;stroke-linecap:round"
       id="path224" />
    <path
       d="m 28.995881,47.354276 c -0.0317,-0.04507 -0.100246,-0.145729 0.136931,0.15549 0.01948,0.02494 0.03837,0.05034 0.05664,0.07617 -0.03667,-0.06727 -0.01282,-0.03673 0.105469,0.154297 0.02299,0.03536 0.07887,0.116711 0.04687,0.07422 0.01001,0.01678 0.01978,0.03371 0.0293,0.05078 0.168805,0.300524 0.169922,0.373047 0.169922,0.373047 0.0058,0.01303 0.07238,0.163233 0.11914,0.326172 0.0677,0.237217 0.133285,0.558951 0.121094,0.931641 l 0.002,-0.01953 -0.09766,4.277344 c 0.0164,0.248488 0.100607,0.54658 0.273437,1 0.189082,0.468648 0.415367,0.916705 0.679688,1.34375 0.462799,0.74244 0.996645,1.431744 1.59375,2.06836 l 0.642578,-0.0918 c 0.310599,-0.72586 0.552968,-1.484213 0.71875,-2.279297 0.09733,-0.474802 0.152786,-0.957509 0.164062,-1.44336 0.0017,-0.470317 -0.02468,-0.766252 -0.101562,-1.015625 l -1.615234,-4.017578 c -8.16e-4,-0.002 -0.0011,-0.0039 -0.002,-0.0059 l -0.0039,-0.0098 c -0.274064,-0.675067 -0.284371,-1.329061 -0.111328,-1.974609 0.01056,-0.03876 0.02228,-0.07719 0.03516,-0.115234 0.21242,-0.636635 0.590144,-1.203352 1.253907,-1.613282 l 2.802734,-1.74414 c 0.02124,-0.01342 0.04272,-0.02645 0.06445,-0.03906 l 0.05469,-0.03125 c 0.01229,-0.0073 0.02466,-0.01445 0.03711,-0.02148 0.270361,-0.146902 0.540425,-0.233936 0.777344,-0.285156 0.01235,-0.0027 0.02472,-0.0053 0.03711,-0.0078 0.120749,-0.02368 0.170004,-0.0263 0.207031,-0.0293 0,0 0.05512,-0.005 0.05078,-0.0059 4.2e-4,-2.6e-5 0.01172,-0.002 0.01172,-0.002 -0.0134,-0.0037 -0.08031,-0.0078 0.177735,-0.02148 0.587386,-0.03285 1.136408,0.13817 1.53125,0.341797 0.196765,0.100315 0.236328,0.138672 0.236328,0.138672 0.0065,0.0039 0.01304,0.0078 0.01953,0.01172 0.159575,0.102559 0.422822,0.2845 0.666016,0.570312 L 42.75,47.708984 c 0.0067,0.0056 0.02582,0.02005 0.06641,0.05273 l 0.02148,0.01758 c 0.06001,0.04639 0.110243,0.08273 0.146484,0.107422 0.12989,0.08819 0.288952,0.176864 0.505859,0.287109 0.134129,0.06743 0.289403,0.136616 0.464844,0.208984 0.115164,0.04755 0.172633,0.07459 0.228516,0.0957 0.262409,0.09767 0.520993,0.182891 0.773437,0.251953 0.02626,0.0069 0.07679,0.01534 0.181641,0.04102 0.0033,0.0013 0.0065,0.0026 0.0098,0.0039 0.210941,0.05297 0.427569,0.09914 0.654297,0.140625 0.108564,0.0201 0.209072,0.03755 0.304688,0.05273 0.211017,0.03269 0.420288,0.05961 0.625,0.08008 0.105964,0.01098 0.169138,0.0198 0.236328,0.02539 0.110377,0.009 0.224102,0.0094 0.335937,0.01563 l 0.367188,-0.535157 c -0.303545,-0.825746 -0.680034,-1.616506 -1.140625,-2.36914 -0.257932,-0.418454 -0.553507,-0.817104 -0.882813,-1.191406 -0.0022,-0.0024 -0.0036,-0.0034 -0.0059,-0.0059 -0.328818,-0.358578 -0.560443,-0.568703 -0.773437,-0.693359 l -3.839844,-1.806641 c -0.68558,-0.314954 -1.125364,-0.790466 -1.439453,-1.371094 -0.01785,-0.03272 -0.03479,-0.06594 -0.05078,-0.09961 -0.279842,-0.595005 -0.403075,-1.233761 -0.24414,-1.978516 L 39.966797,35.75 c 0.144706,-0.769673 0.669906,-1.593745 1.449219,-2.03125 0.0065,-0.0033 0.013,-0.0065 0.01953,-0.0098 0.522627,-0.2858 1.05676,-0.416185 1.6875,-0.361328 l 4.134765,0.314453 c 0.06789,-0.0016 0.151481,-0.0086 0.275391,-0.03516 0.0013,-2.94e-4 0.0026,-0.0017 0.0039,-0.002 0.0026,-5.66e-4 0.0032,5.81e-4 0.0059,0 0.194174,-0.0442 0.396626,-0.107263 0.609375,-0.189453 0.3421,-0.132197 0.664207,-0.284933 0.964843,-0.458985 0.747307,-0.44243 1.42777,-0.973248 2.048829,-1.582031 l -0.15625,-0.855469 c -0.772278,-0.394783 -1.565425,-0.710389 -2.390625,-0.933593 -0.460946,-0.123028 -0.928433,-0.202128 -1.394532,-0.238282 -0.443418,-0.0249 -0.70268,-0.01162 -0.894531,0.03906 l -3.814453,1.453125 c -0.722597,0.28367 -1.414985,0.247513 -2.048828,0.03711 -0.03751,-0.01257 -0.07463,-0.02624 -0.111328,-0.04102 -0.619958,-0.247449 -1.13151,-0.637966 -1.513672,-1.261719 l -0.002,-0.002 c -0.0025,-0.0042 -0.0053,-0.0075 -0.0078,-0.01172 l -1.818359,-2.947266 c -0.390246,-0.61954 -0.521191,-1.248696 -0.464844,-1.933593 0.0034,-0.03919 0.008,-0.07827 0.01367,-0.117188 0.09334,-0.658224 0.361932,-1.282391 0.925781,-1.802734 l 0.0078,-0.0078 c 0.0021,-0.0019 0.0037,-0.0039 0.0059,-0.0059 l 2.988281,-2.773438 c 0.131478,-0.149592 0.261804,-0.387711 0.44336,-0.814453 8.46e-4,-0.0021 0.0031,-0.0037 0.0039,-0.0059 0.17423,-0.436235 0.308051,-0.885166 0.402344,-1.349609 0.16693,-0.837129 0.243321,-1.694438 0.234375,-2.566407 l -0.677735,-0.507812 c -0.631217,0.222858 -1.245605,0.485992 -1.826172,0.816406 -0.212935,0.120889 -0.424992,0.259547 -0.654296,0.423828 -0.06091,0.04351 -0.116326,0.09273 -0.236329,0.185547 -0.132823,0.103466 -0.260914,0.211271 -0.382812,0.320313 l -0.0098,0.0078 c -0.09597,0.08765 -0.18964,0.1778 -0.28125,0.273438 -0.09481,0.09946 -0.138401,0.144076 -0.169922,0.18164 -0.05413,0.06514 -0.07093,0.08612 -0.07227,0.08789 -0.0019,0.0026 -0.0039,0.0052 -0.0059,0.0078 -0.03825,0.05032 -0.04639,0.06305 -0.05273,0.07227 -0.03634,0.05321 -0.05646,0.08742 -0.07617,0.123047 l -1.5625,3.876953 0.0059,-0.01953 c -0.260046,0.663916 -0.680332,1.117575 -1.226563,1.453125 -0.01036,0.006 -0.02078,0.01181 -0.03125,0.01758 -0.69692,0.410746 -1.593564,0.491401 -2.291016,0.296875 l 0.02344,0.0078 -3.263672,-0.86914 c -0.723607,-0.185214 -1.24785,-0.573165 -1.664062,-1.101563 -0.02366,-0.02994 -0.04645,-0.06055 -0.06836,-0.0918 -0.379167,-0.541725 -0.603658,-1.146204 -0.580078,-1.894531 l -0.002,0.01758 0.09766,-4.279297 c -0.0164,-0.2485 -0.100609,-0.546642 -0.273437,-1 -0.189021,-0.46854 -0.41534,-0.916652 -0.679688,-1.34375 C 25.150542,11.575984 24.616654,10.886646 24.019531,10.25 l -0.632812,0.0918 c -0.05218,0.123819 -0.106897,0.236778 -0.158203,0.367187 -0.0236,0.06042 -0.04526,0.126684 -0.08398,0.232422 -0.07248,0.195718 -0.136993,0.391061 -0.207031,0.617188 -0.04837,0.158246 -0.08304,0.252321 -0.107422,0.341797 -0.07461,0.272444 -0.137296,0.549328 -0.189453,0.832031 -0.0061,0.03221 -0.01027,0.07538 -0.02734,0.177734 -0.03899,0.236272 -0.06814,0.478911 -0.08789,0.72461 -0.0082,0.10704 -0.01576,0.173907 -0.01953,0.253906 -1.18e-4,0.0033 1.09e-4,0.0084 0,0.01172 v 0.002 c -0.0043,0.133286 -0.0021,0.280468 0.0039,0.472656 0.0047,0.149476 0.0024,0.195874 0.0078,0.257813 0.0051,0.05629 0.0132,0.116581 0.02148,0.171875 0.01236,0.08387 0.0098,0.08203 0.0098,0.08203 0.01584,0.0867 0.03036,0.140608 0.04492,0.191406 l 1.623047,4.037109 c 0.06371,0.158329 0.112217,0.316975 0.148437,0.478516 0.07674,0.340745 0.06212,0.331569 0.04951,0.304284 8.15e-4,0.01394 -0.0014,0.01524 -0.0045,0.01123 0.01266,0.106005 0.02409,0.243442 0.02138,0.407143 -0.0028,0.21178 -0.02891,0.40332 -0.06836,0.587891 8.7e-4,-0.0041 -0.02461,0.150578 -0.08789,0.33789 -0.09125,0.270458 -0.225131,0.501635 -0.297128,0.617582 5.05e-4,0.0014 -4.6e-5,0.0042 -0.0023,0.0091 0.01678,-0.01251 0.04186,-0.01944 -0.173251,0.256127 -0.181491,0.23297 -0.429023,0.483181 -0.763672,0.691406 l -2.800781,1.744141 c -0.0058,0.0036 0.06341,-0.0322 -0.08789,0.05469 -1.276703,0.737005 -2.835657,0.403659 -3.763672,-0.644531 L 13.509766,20.716797 C 13.326741,20.542671 13.073985,20.389031 12.636719,20.173828 12.198231,19.969093 11.748933,19.80679 11.291016,19.685547 10.517962,19.483678 9.736617,19.365291 8.9511719,19.322266 l -0.3691406,0.539062 c 0.3034406,0.825421 0.6781276,1.618462 1.1386718,2.371094 0.2578572,0.418302 0.5534919,0.815095 0.8828129,1.189453 0.0022,0.0024 0.0036,0.0034 0.0059,0.0059 0.327446,0.357114 0.555872,0.565164 0.765625,0.689453 l 3.867188,1.81836 -0.07227,-0.03125 c 0.380614,0.160956 0.694719,0.414321 0.871094,0.582031 0.212068,0.19979 0.128906,0.136719 0.128906,0.136719 0.141589,0.151968 0.262674,0.308774 0.370673,0.481232 7.96e-4,1.56e-4 0.0052,0.0071 0.01514,0.02442 0.01151,0.01876 0.02288,0.0377 0.03411,0.05685 0,0 -0.129236,-0.257523 0.07227,0.115234 0.01713,0.03146 0.03341,0.06337 0.04883,0.0957 0.157718,0.333243 0.05469,0.134766 0.05469,0.134766 l -0.02148,-0.04687 c 0.117002,0.258733 0.173716,0.492133 0.205078,0.644531 0.01068,0.05071 0.03347,0.161287 0.04822,0.283425 -2.52e-4,-0.121368 9.34e-4,-0.243689 0.01034,0.116766 -3.93e-4,-0.05157 -0.004,-0.560831 0.01175,0.07832 0.01055,0.238176 -0.0047,0.494938 -0.06055,0.761719 l 0.0059,-0.02148 -0.07617,0.384766 c -0.0013,0.0046 -0.0026,0.0091 -0.0039,0.01367 l -0.59961,2.919922 c -0.03713,0.197845 -0.09352,0.378283 -0.156397,0.53636 0.02752,-0.05492 0.04137,-0.08127 -0.01376,0.03401 -0.01528,0.03712 -0.03089,0.07293 -0.04663,0.107364 3.39e-4,-7.41e-4 0.224785,-0.455812 -0.02539,0.0625 -0.214435,0.446953 -0.144468,0.286749 -0.09699,0.180711 -0.09201,0.188424 -0.05398,0.09981 -0.01717,0.01708 -0.07999,0.137652 -0.171029,0.269924 -0.274517,0.395961 -0.0054,0.0065 -0.02921,0.0483 -0.158203,0.181641 -0.130326,0.134639 -0.355155,0.344372 -0.660156,0.515625 -0.0058,0.0033 -0.0117,0.0065 -0.01758,0.0098 -0.522953,0.28614 -1.058264,0.416368 -1.689453,0.361328 L 8.9941406,34.753906 c -0.2068881,0.0044 -0.4481421,0.06321 -0.8515625,0.207031 -0.3491422,0.132185 -0.6877349,0.291988 -1.0097656,0.478516 -0.00202,0.0012 -0.00384,0.0027 -0.00586,0.0039 l -0.00781,0.0039 c -0.7411717,0.440236 -1.4157223,0.968562 -2.0332031,1.574218 l 0.15625,0.861328 c 0.7689741,0.391711 1.5659466,0.704144 2.3925781,0.927735 0.4614992,0.123175 0.9273501,0.20219 1.3925782,0.238281 0.4470543,0.02513 0.708738,0.01225 0.8964843,-0.03711 l 3.8085939,-1.453125 c 0.731571,-0.287218 1.410601,-0.249535 2.050781,-0.03711 0.03816,0.01253 0.07594,0.02621 0.113281,0.04102 0.620776,0.247772 1.133317,0.638525 1.515625,1.263672 l 0.0078,0.01172 1.820312,2.947265 c 0.392215,0.622723 0.518225,1.258701 0.462891,1.931641 -0.0034,0.03919 -0.008,0.07827 -0.01367,0.117187 -0.09538,0.672061 -0.37215,1.294382 -0.935547,1.810547 l -0.0059,0.0059 -2.986328,2.77539 c -0.133116,0.151268 -0.2624,0.387164 -0.44336,0.8125 -0.0011,0.0026 -0.0028,0.0032 -0.0039,0.0059 -0.173633,0.434725 -0.307862,0.886189 -0.402344,1.351562 -0.166806,0.83651 -0.243182,1.693162 -0.234375,2.564453 l 0.675782,0.507813 c 0.631428,-0.222577 1.244525,-0.483425 1.826171,-0.814453 0.405789,-0.231979 0.790553,-0.502021 1.150391,-0.804688 0.418422,-0.36773 0.654665,-0.624928 0.796875,-0.892578 l 1.560547,-3.863281 -0.0059,0.01953 c 0.253485,-0.647157 0.663526,-1.110401 1.224609,-1.455078 0.01036,-0.006 0.02078,-0.01181 0.03125,-0.01758 0.326216,-0.192279 0.640782,-0.279279 0.832031,-0.322266 0,0 0.08151,-0.0212 0.189453,-0.03906 0.0091,-0.002 0.01822,-0.004 0.02734,-0.0059 0.33381,-0.05038 0.339844,-0.02344 0.339844,-0.02344 3.65e-4,-1.4e-5 0.200996,-0.0312 0.527344,0.01563 0.04256,0.0064 0.0849,0.01426 0.126953,0.02344 l 0.121093,0.02539 c 0.03471,0.0069 0.06922,0.01471 0.103516,0.02344 l 3.28125,0.871094 c 0.211395,0.05547 0.418083,0.136655 0.609375,0.234375 0.387475,0.200153 0.266681,0.146893 0.195755,0.114232 0.10207,0.05473 0.0733,0.04374 0.03026,0.02444 0.104601,0.06685 0.193117,0.134259 0.248593,0.177731 0.149986,0.116482 0.278915,0.239126 0.389904,0.361234 -0.01099,-0.01793 -0.0095,-0.02058 0.03567,0.03406 z"
       style="fill:url(#linearGradient243);fill-rule:evenodd;stroke:#fce94f;stroke-width:2;stroke-dasharray:none;stroke-opacity:1;stroke-linejoin:round;stroke-linecap:round"
       id="path242" />
  </g>
</svg>
