<?xml version="1.0" encoding="UTF-8"?>

<svg version="1.2" baseProfile="tiny" width="11.29mm" height="11.29mm" viewBox="0 0 1129 1129" preserveAspectRatio="xMidYMid" fill-rule="evenodd" clip-path="url(#presentation_clip_path)" stroke-width="28.222" stroke-linejoin="round" xmlns="http://www.w3.org/2000/svg" xmlns:ooo="http://xml.openoffice.org/svg/export" xmlns:xlink="http://www.w3.org/1999/xlink" xml:space="preserve">
 <defs class="ClipPathGroup">
  <clipPath id="presentation_clip_path" clipPathUnits="userSpaceOnUse">
   <rect x="0" y="0" width="1129" height="1129"/>
  </clipPath>
 </defs>
 <defs class="TextShapeIndex">
  <g ooo:slide="id1" ooo:id-list="id3 id4 id5 id6 id7 id8 id9 id10 id11 id12 id13 id14 id15 id16 id17 id18 id19"/>
 </defs>
 <defs class="EmbeddedBulletChars">
  <g id="bullet-char-template(57356)" transform="scale(0.00048828125,-0.00048828125)">
   <path d="M 580,1141 L 1163,571 580,0 -4,571 580,1141 Z"/>
  </g>
  <g id="bullet-char-template(57354)" transform="scale(0.00048828125,-0.00048828125)">
   <path d="M 8,1128 L 1137,1128 1137,0 8,0 8,1128 Z"/>
  </g>
  <g id="bullet-char-template(10146)" transform="scale(0.00048828125,-0.00048828125)">
   <path d="M 174,0 L 602,739 174,1481 1456,739 174,0 Z M 1358,739 L 309,1346 659,739 1358,739 Z"/>
  </g>
  <g id="bullet-char-template(10132)" transform="scale(0.00048828125,-0.00048828125)">
   <path d="M 2015,739 L 1276,0 717,0 1260,543 174,543 174,936 1260,936 717,1481 1274,1481 2015,739 Z"/>
  </g>
  <g id="bullet-char-template(10007)" transform="scale(0.00048828125,-0.00048828125)">
   <path d="M 0,-2 C -7,14 -16,27 -25,37 L 356,567 C 262,823 215,952 215,954 215,979 228,992 255,992 264,992 276,990 289,987 310,991 331,999 354,1012 L 381,999 492,748 772,1049 836,1024 860,1049 C 881,1039 901,1025 922,1006 886,937 835,863 770,784 769,783 710,716 594,584 L 774,223 C 774,196 753,168 711,139 L 727,119 C 717,90 699,76 672,76 641,76 570,178 457,381 L 164,-76 C 142,-110 111,-127 72,-127 30,-127 9,-110 8,-76 1,-67 -2,-52 -2,-32 -2,-23 -1,-13 0,-2 Z"/>
  </g>
  <g id="bullet-char-template(10004)" transform="scale(0.00048828125,-0.00048828125)">
   <path d="M 285,-33 C 182,-33 111,30 74,156 52,228 41,333 41,471 41,549 55,616 82,672 116,743 169,778 240,778 293,778 328,747 346,684 L 369,508 C 377,444 397,411 428,410 L 1163,1116 C 1174,1127 1196,1133 1229,1133 1271,1133 1292,1118 1292,1087 L 1292,965 C 1292,929 1282,901 1262,881 L 442,47 C 390,-6 338,-33 285,-33 Z"/>
  </g>
  <g id="bullet-char-template(9679)" transform="scale(0.00048828125,-0.00048828125)">
   <path d="M 813,0 C 632,0 489,54 383,161 276,268 223,411 223,592 223,773 276,916 383,1023 489,1130 632,1184 813,1184 992,1184 1136,1130 1245,1023 1353,916 1407,772 1407,592 1407,412 1353,268 1245,161 1136,54 992,0 813,0 Z"/>
  </g>
  <g id="bullet-char-template(8226)" transform="scale(0.00048828125,-0.00048828125)">
   <path d="M 346,457 C 273,457 209,483 155,535 101,586 74,649 74,723 74,796 101,859 155,911 209,963 273,989 346,989 419,989 480,963 531,910 582,859 608,796 608,723 608,648 583,586 532,535 482,483 420,457 346,457 Z"/>
  </g>
  <g id="bullet-char-template(8211)" transform="scale(0.00048828125,-0.00048828125)">
   <path d="M -4,459 L 1135,459 1135,606 -4,606 -4,459 Z"/>
  </g>
 </defs>
 <defs class="TextEmbeddedBitmaps"/>
 <g>
  <g id="id2" class="Master_Slide">
   <g id="bg-id2" class="Background"/>
   <g id="bo-id2" class="BackgroundObjects"/>
  </g>
 </g>
 <g class="SlideGroup">
  <g>
   <g id="id1" class="Slide" clip-path="url(#presentation_clip_path)">
    <g class="Page">
     <g class="com.sun.star.drawing.PolyPolygonShape">
      <g id="id3">
       <path fill="rgb(0,0,0)" stroke="none" d="M 1,-1 L 1,0 1,0 0,0 1,-1 Z"/>
      </g>
     </g>
     <g class="com.sun.star.drawing.PolyPolygonShape">
      <g id="id4">
       <path fill="rgb(0,0,0)" stroke="none" d="M 0,-1 L 1,-1 1,0 0,0 0,-1 Z"/>
      </g>
     </g>
     <g class="com.sun.star.drawing.PolyPolygonShape">
      <g id="id5">
       <path fill="rgb(0,0,0)" stroke="none" d="M 0,0 L 0,0 0,-1 1,0 0,0 Z M 1,0 L 0,-1 0,0 1,0 Z"/>
      </g>
     </g>
     <g class="com.sun.star.drawing.PolyPolygonShape">
      <g id="id6">
       <path fill="rgb(0,0,0)" stroke="none" d="M 2,0 L 1,0 1,0 1,0 0,0 0,0 1,0 1,-1 1,-1 2,0 Z"/>
      </g>
     </g>
     <g class="com.sun.star.drawing.PolyPolygonShape">
      <g id="id7">
       <path fill="rgb(0,0,0)" stroke="none" d="M 0,0 L 0,-1 0,-1 0,-1 0,-1 0,-1 0,-1 0,-1 0,-1 0,-1 0,-1 0,-1 0,-1 0,-1 0,-1 0,-1 0,-1 0,-1 0,-1 0,-1 0,0 Z"/>
      </g>
     </g>
     <g class="com.sun.star.drawing.PolyPolygonShape">
      <g id="id8">
       <path fill="rgb(0,0,0)" stroke="none" d="M 0,0 L 0,0 0,0 0,-1 0,-1 0,-1 0,0 0,0 1,-1 1,-1 1,-1 1,-1 1,-1 0,0 Z"/>
      </g>
     </g>
     <g class="com.sun.star.drawing.ClosedBezierShape">
      <g id="id9">
       <path fill="rgb(0,0,0)" stroke="none" d="M 1,0 C 0,0 0,0 0,0 L 0,0 C 0,-1 0,-1 0,-1 L 1,-1 1,-1 1,0 Z"/>
      </g>
     </g>
     <g class="com.sun.star.drawing.PolyPolygonShape">
      <g id="id10">
       <path fill="rgb(0,0,0)" stroke="none" d="M 0,0 L 0,0 Z"/>
      </g>
     </g>
     <g class="com.sun.star.drawing.PolyPolygonShape">
      <g id="id11">
       <path fill="rgb(0,0,0)" stroke="none" d="M 0,0 L 1,0 1,0 0,0 Z"/>
      </g>
     </g>
     <g class="com.sun.star.drawing.CustomShape">
      <g id="id12">
       <path fill="rgb(255,0,204)" stroke="none" d="M 599,100 C 655,100 699,143 699,199 699,255 655,299 599,299 543,299 500,255 500,199 500,143 543,100 599,100 Z M 500,100 L 500,100 Z M 701,301 L 701,301 Z"/>
       <path fill="none" stroke="rgb(52,101,164)" stroke-width="10" stroke-linejoin="round" d="M 599,100 C 655,100 699,143 699,199 699,255 655,299 599,299 543,299 500,255 500,199 500,143 543,100 599,100 Z"/>
      </g>
     </g>
     <g class="com.sun.star.drawing.ClosedBezierShape">
      <g id="id13">
       <path fill="rgb(255,204,0)" stroke="none" d="M 595,201 C 507,267 439,333 394,399 363,333 331,267 300,200 398,201 496,201 595,201 Z M 595,201 L 595,201 Z M 393,400 L 393,400 Z"/>
       <path fill="none" stroke="rgb(52,101,164)" stroke-width="10" stroke-linejoin="round" d="M 595,201 C 507,267 439,333 394,399 363,333 331,267 300,200 398,201 496,201 595,201 Z"/>
      </g>
     </g>
     <g class="com.sun.star.drawing.LineShape">
      <g id="id14">
       <path fill="none" stroke="rgb(0,0,0)" stroke-width="20" stroke-linejoin="round" d="M 600,700 L 600,1000"/>
      </g>
     </g>
     <g class="com.sun.star.drawing.LineShape">
      <g id="id15">
       <path fill="none" stroke="rgb(0,0,0)" stroke-width="20" stroke-linejoin="round" d="M 500,700 L 400,800"/>
      </g>
     </g>
     <g class="com.sun.star.drawing.ClosedBezierShape">
      <g id="id16">
       <path fill="rgb(255,102,204)" stroke="none" d="M 728,400 C 852,400 905,462 848,546 791,630 664,695 551,695 438,695 380,630 426,546 472,462 604,400 728,400 Z M 508,400 L 508,400 Z M 749,698 L 749,698 Z"/>
       <path fill="none" stroke="rgb(52,101,164)" stroke-width="10" stroke-linejoin="round" d="M 728,400 C 852,400 905,462 848,546 791,630 664,695 551,695 438,695 380,630 426,546 472,462 604,400 728,400 Z"/>
      </g>
     </g>
     <g class="com.sun.star.drawing.ConnectorShape">
      <g id="id17">
       <path fill="none" stroke="rgb(0,0,0)" stroke-width="20" stroke-linejoin="round" d="M 590,298 C 590,451 484,358 484,485"/>
      </g>
     </g>
     <g class="com.sun.star.drawing.LineShape">
      <g id="id18">
       <path fill="none" stroke="rgb(0,0,0)" stroke-width="20" stroke-linejoin="round" d="M 400,800 L 700,900"/>
      </g>
     </g>
     <g class="com.sun.star.drawing.CustomShape">
      <g id="id19">
       <path fill="rgb(255,102,204)" stroke="none" d="M 846,469 L 499,571 693,341 846,469 846,469 Z M 846,469 L 846,469 Z M 499,571 L 499,571 Z"/>
       <path fill="none" stroke="rgb(52,101,164)" stroke-width="10" stroke-linejoin="round" d="M 846,469 L 499,571 693,341 846,469 846,469 Z"/>
      </g>
     </g>
    </g>
   </g>
  </g>
 </g>
</svg>