<svg height="512" width="512" xmlns="http://www.w3.org/2000/svg" style=""><rect id="backgroundrect" width="100%" height="100%" x="0" y="0" fill="none" stroke="none"/><g class="currentLayer" style=""><title>Layer 1</title><path d="m119.27902972698212,188.08984375 v-142.75 s4.390625953674316,-39.45703125 39.390625,-39.45703125 h189.7265625 s47.0546875,3.3164069652557373 47.0546875,47.0546875 v156.1484375 h-33.515625 v-142.109375 s-2.226562023162842,-26.52734375 -26.52734375,-26.52734375 s-156.08203125,0 -156.08203125,0 s-26.52734375,1.75 -26.52734375,26.52734375 v128.14453125 zm0,0 " fill="#d5d50b" id="svg_2" class="" fill-opacity="1"/><path d="m138.7487410902977,64.5390625 v93.734375 h9.132811546325684 v-92.1796875 l29.98046875,-31.32421875 h-9.34765625 c-16.4375,0 -29.765625,13.328125 -29.765625,29.76953125 zm0,0 " fill="#d5d50b" id="svg_3" class="" fill-opacity="1"/><path d="m380.40070337057114,27.08203125 h9.132811546325684 v131.19140625 h-9.132811546325684 zm0,0 " fill="#d5d50b" id="svg_4" class="" fill-opacity="1"/><path d="m92.1746444106102,163.98046875 h93.15234375 v186.859375 h-93.15234375 zm0,0 " fill="#d5d50b" id="svg_5" class="" fill-opacity="1"/><path d="m326.48273462057114,163.98046875 h93.15625 v186.859375 h-93.15625 zm0,0 " fill="#d5d50b" id="svg_6" class="" fill-opacity="1"/><path d="m326.48273462057114,350.83984375 h-141.15625 v-217.79296875 c0,-14.789063453674316 11.98828125,-26.77734375 26.77734375,-26.77734375 h87.60546875 c14.78515625,0 26.7734375,11.98828125 26.7734375,26.77734375 zm0,0 " fill="#d5d50b" id="svg_7" class="" fill-opacity="1"/><path d="m161.08835595846176,350.83984375 h189.6328125 v95.1953125 h-189.6328125 zm0,0 " fill="#d5d50b" id="svg_8" class="" fill-opacity="1"/><path d="m322.84601587057114,354.61328125 h26.7734375 v88.23828125 h-26.7734375 zm0,0 " fill="#d5d50b" id="svg_9" class="" fill-opacity="1"/><path d="m324.83820337057114,308.4375 h-26.7734375 v-200.95703125 c14.78515625,0 26.7734375,11.98828125 26.7734375,26.77734375 zm0,0 " fill="#e8677d" id="svg_10" class=""/><path d="m324.83819580078125,308.4375 h-26.7734375 v-200.95703125 c14.78515625,0 26.7734375,11.98828125 26.7734375,26.77734375 zm0,0 " fill="#d5d50b" class="" id="svg_40" fill-opacity="1"/><path d="m392.76398462057114,163.98046875 h26.77734375 v186.859375 h-26.77734375 zm0,0 " fill="#d5d50b" id="svg_11" class="" fill-opacity="1"/><path d="m158.88915246725082,163.98046875 h26.77734375 v186.859375 h-26.77734375 zm0,0 " fill="#d5d50b" id="svg_12" class="" fill-opacity="1"/><path d="m196.06475061178207,446.03515625 h119.68359375 v60.08203125 h-119.68359375 zm0,0 " fill="#6d6d6d" id="svg_13" class="" fill-opacity="1"/><path d="m290.30695337057114,446.03515625 h26.7734375 v61.65234375 h-26.7734375 zm0,0 " fill="#6d6d6d" id="svg_14" class="" fill-opacity="1"/><path d="m187.82646936178207,373.05859375 h62.7734375 v50.76171875 h-62.7734375 zm0,0 " fill="#e8677d" id="svg_15" class=""/><path d="m301.00617212057114,209.08203125 c0,24.91015625 -20.19140625,45.1015625 -45.1015625,45.1015625 s-45.1015625,-20.19140625 -45.1015625,-45.1015625 c0,-24.90625 20.19140625,-45.1015625 45.1015625,-45.1015625 s45.1015625,20.1953125 45.1015625,45.1015625 zm0,0 " fill="#e8677d" id="svg_16" class=""/><path d="m185.32646936178207,308.4375 h141.15625 v38.36328125 h-141.15625 zm0,0 " fill="#d5d50b" id="svg_17" class="" fill-opacity="1"/><g fill="#000000" id="svg_18" class="selected" fill-opacity="1"><path d="m185.32646936178207,356.71875 h-93.15234375 c-3.25,0 -5.882812023162842,-2.632812023162842 -5.882812023162842,-5.878905773162842 v-186.859375 c0,-3.246093988418579 2.632812023162842,-5.878907203674316 5.882812023162842,-5.878907203674316 h93.15234375 c3.246093988418579,0 5.882812976837158,2.632812976837158 5.882812976837158,5.878907203674316 v186.859375 c0,3.246093988418579 -2.632812976837158,5.878905773162842 -5.882812976837158,5.878905773162842 zm-87.2734375,-11.757811546325684 h81.39453125 v-175.09765625 h-81.39453125 zm0,0 " id="svg_19" fill="#000000" fill-opacity="1"/><path d="m326.48273462057114,356.71875 h-141.15625 c-3.246093988418579,0 -5.882812976837158,-2.632812023162842 -5.882812976837158,-5.878905773162842 v-217.79296875 c0,-18.0078125 14.65234375,-32.65625 32.65625,-32.65625 h87.60546875 c18.0078125,0 32.65625,14.648436546325684 32.65625,32.65625 v217.79296875 c0,3.246093988418579 -2.632812023162842,5.878905773162842 -5.878905773162842,5.878905773162842 zm-135.2734375,-11.757811546325684 h129.390625 v-211.9140625 c0,-11.523436546325684 -9.371092796325684,-20.89453125 -20.890623092651367,-20.89453125 h-87.60546875 c-11.523438453674316,0 -20.89453125,9.37109375 -20.89453125,20.89453125 zm0,0 " id="svg_20" fill="#000000" fill-opacity="1"/><path d="m350.72101587057114,451.91796875 h-189.6328125 c-3.246093988418579,0 -5.882812976837158,-2.632812976837158 -5.882812976837158,-5.878907203674316 v-95.19921875 c0,-3.246093988418579 2.632812976837158,-5.878905773162842 5.882812976837158,-5.878905773162842 h189.6328125 c3.246093988418579,0 5.882812976837158,2.632812023162842 5.882812976837158,5.878905773162842 v95.1953125 c-0.003907000180333853,3.25 -2.636718988418579,5.882812976837158 -5.882812976837158,5.882812976837158 zm-183.75390625,-11.76171875 h177.875 v-83.4375 h-177.875 zm0,0 " id="svg_21" fill="#000000" fill-opacity="1"/><path d="m315.74835962057114,512 h-119.6875 c-3.246093988418579,0 -5.878905773162842,-2.632812023162842 -5.878905773162842,-5.882812023162842 v-60.08203125 c0,-3.246093988418579 2.632812023162842,-5.878905773162842 5.878905773162842,-5.878905773162842 h119.68359375 c3.25,0 5.882812023162842,2.632812023162842 5.882812023162842,5.878905773162842 v60.08203125 c0,3.25 -2.632812023162842,5.882812023162842 -5.878905773162842,5.882812023162842 zm-113.8046875,-11.76171875 h107.921875 v-48.3203125 h-107.921875 zm0,0 " id="svg_22" fill="#000000" fill-opacity="1"/><path d="m419.63507837057114,356.71875 h-93.15234375 c-3.246093988418579,0 -5.882812976837158,-2.632812023162842 -5.882812976837158,-5.878905773162842 v-186.859375 c0,-3.246093988418579 2.632812976837158,-5.878907203674316 5.882812976837158,-5.878907203674316 h93.15234375 c3.25,0 5.882812023162842,2.632812976837158 5.882812023162842,5.878907203674316 v186.859375 c0,3.246093988418579 -2.632812023162842,5.878905773162842 -5.882812023162842,5.878905773162842 zm-87.2734375,-11.757811546325684 h81.39453125 v-175.09765625 h-81.39453125 zm0,0 " id="svg_23" fill="#000000" fill-opacity="1"/><path d="m255.90459436178207,260.06640625 c-28.11328125,0 -50.98046875,-22.87109375 -50.98046875,-50.984375 c0,-28.109375 22.8671875,-50.98046875 50.98046875,-50.98046875 s50.984375,22.87109375 50.984375,50.98046875 c0,28.11328125 -22.87109375,50.984375 -50.984375,50.984375 zm0,-90.203125 c-21.62890625,0 -39.22265625,17.59375 -39.22265625,39.21875 c0,21.62890625 17.59765625,39.22265625 39.22265625,39.22265625 s39.22265625,-17.59375 39.22265625,-39.22265625 c0,-21.625 -17.59375,-39.21875 -39.22265625,-39.21875 zm0,0 " id="svg_24" fill="#000000" fill-opacity="1"/><path d="m326.48273462057114,314.31640625 h-141.15625 c-3.246093988418579,0 -5.882812976837158,-2.632812023162842 -5.882812976837158,-5.878905773162842 c0,-3.25 2.636718988418579,-5.882812023162842 5.882812976837158,-5.882812023162842 h141.15625 c3.246093988418579,0 5.878905773162842,2.632812023162842 5.878905773162842,5.882812023162842 c0,3.246093988418579 -2.632812023162842,5.878905773162842 -5.878905773162842,5.878905773162842 zm0,0 " id="svg_25" fill="#000000" fill-opacity="1"/><path d="m393.99054712057114,356.71875 c-3.246093988418579,0 -5.882812976837158,-2.632812023162842 -5.882812976837158,-5.878905773162842 v-297.90234375 c0,-22.70703125 -18.46875,-41.17578125 -41.171875,-41.17578125 h-182.0625 c-22.703125,0 -41.171875,18.47265625 -41.171875,41.17578125 v297.90234375 c0,3.246093988418579 -2.636718988418579,5.878905773162842 -5.882812976837158,5.878905773162842 c-3.25,0 -5.882812023162842,-2.632812023162842 -5.882812023162842,-5.878905773162842 v-297.90234375 c0.0039059999398887157,-29.19140625 23.75,-52.9375 52.9375,-52.9375 h182.0625 c29.1875,0 52.9375,23.74609375 52.9375,52.9375 v297.90234375 c-0.0039059999398887157,3.246093988418579 -2.632812023162842,5.878905773162842 -5.882812023162842,5.878905773162842 zm0,0 " id="svg_26" fill="#000000" fill-opacity="1"/><path d="m360.47101587057114,166.0546875 c-3.246093988418579,0 -5.878905773162842,-2.632812976837158 -5.878905773162842,-5.882812976837158 v-93.1953125 c0,-11.386717796325684 -9.26171875,-20.6484375 -20.64453125,-20.6484375 h-156.0859375 c-11.382811546325684,0 -20.64453125,9.26171875 -20.64453125,20.6484375 v93.19921875 c0,3.246093988418579 -2.632812023162842,5.878907203674316 -5.878905773162842,5.878907203674316 c-3.25,0 -5.882812976837158,-2.632812976837158 -5.882812976837158,-5.878907203674316 v-93.19921875 c0,-17.87109375 14.539063453674316,-32.40625 32.40625,-32.40625 h156.0859375 c17.8671875,0 32.40625,14.535157203674316 32.40625,32.40625 v93.19921875 c0,3.246093988418579 -2.632812976837158,5.878907203674316 -5.882812976837158,5.878907203674316 zm0,0 " id="svg_27" fill="#000000" fill-opacity="1"/><path d="m185.32646936178207,263.29296875 h-67.5078125 c-3.25,0 -5.882812023162842,-2.632812976837158 -5.882812023162842,-5.882812976837158 c0,-3.246093988418579 2.632812023162842,-5.878905773162842 5.882812023162842,-5.878905773162842 h67.5078125 c3.246093988418579,0 5.882812976837158,2.632812023162842 5.882812976837158,5.878905773162842 c0,3.25 -2.632812976837158,5.882812976837158 -5.882812976837158,5.882812976837158 zm0,0 " id="svg_28" fill="#000000" fill-opacity="1"/><path d="m392.76398462057114,263.29296875 h-59.890625 c-3.25,0 -5.882812023162842,-2.632812976837158 -5.882812023162842,-5.882812976837158 c0,-3.246093988418579 2.632812023162842,-5.878905773162842 5.882812023162842,-5.878905773162842 h59.890625 c3.25,0 5.882812976837158,2.632812023162842 5.882812976837158,5.878905773162842 c-0.003907000180333853,3.25 -2.636718988418579,5.882812976837158 -5.882812976837158,5.882812976837158 zm0,0 " id="svg_29" fill="#000000" fill-opacity="1"/><path d="m250.59990686178207,429.69921875 h-62.7734375 c-3.246093988418579,0 -5.878905773162842,-2.632812976837158 -5.878905773162842,-5.878907203674316 v-50.76171875 c0,-3.25 2.632812023162842,-5.882812976837158 5.878905773162842,-5.882812976837158 h62.7734375 c3.246093988418579,0 5.878907203674316,2.632812976837158 5.878907203674316,5.882812976837158 v50.76171875 c0,3.246093988418579 -2.632812976837158,5.878907203674316 -5.878907203674316,5.878907203674316 zm-56.89453125,-11.757813453674316 h51.01171875 v-39.00390625 h-51.01171875 zm0,0 " id="svg_30" fill="#000000" fill-opacity="1"/><path d="m286.67414087057114,377.6796875 c0,4.285155773162842 -3.476562023162842,7.757812023162842 -7.757812023162842,7.757812023162842 c-4.285157203674316,0 -7.757812976837158,-3.472656011581421 -7.757812976837158,-7.757812023162842 c0,-4.285157203674316 3.472656011581421,-7.757812976837158 7.757812976837158,-7.757812976837158 c4.28125,0 7.757812023162842,3.472656011581421 7.757812023162842,7.757812976837158 zm0,0 " id="svg_31" fill="#000000" fill-opacity="1"/><path d="m286.67414087057114,398.4375 c0,4.285155773162842 -3.476562023162842,7.757812023162842 -7.757812023162842,7.757812023162842 c-4.285157203674316,0 -7.757812976837158,-3.472656011581421 -7.757812976837158,-7.757812023162842 s3.472656011581421,-7.757812023162842 7.757812976837158,-7.757812023162842 c4.28125,0 7.757812023162842,3.472656011581421 7.757812023162842,7.757812023162842 zm0,0 " id="svg_32" fill="#000000" fill-opacity="1"/><path d="m286.67414087057114,419.19921875 c0,4.285155773162842 -3.476562023162842,7.757812023162842 -7.757812023162842,7.757812023162842 c-4.285157203674316,0 -7.757812976837158,-3.472656011581421 -7.757812976837158,-7.757812023162842 c0,-4.285157203674316 3.472656011581421,-7.757812976837158 7.757812976837158,-7.757812976837158 c4.28125,0 7.757812023162842,3.472656011581421 7.757812023162842,7.757812976837158 zm0,0 " id="svg_33" fill="#000000" fill-opacity="1"/><path d="m311.45148462057114,377.6796875 c0,4.285155773162842 -3.472656011581421,7.757812023162842 -7.757812976837158,7.757812023162842 c-4.285155773162842,0 -7.757812023162842,-3.472656011581421 -7.757812023162842,-7.757812023162842 c0,-4.285157203674316 3.472656011581421,-7.757812976837158 7.757812023162842,-7.757812976837158 c4.285157203674316,0 7.757812976837158,3.472656011581421 7.757812976837158,7.757812976837158 zm0,0 " id="svg_34" fill="#000000" fill-opacity="1"/><path d="m311.45148462057114,398.4375 c0,4.285155773162842 -3.472656011581421,7.757812023162842 -7.757812976837158,7.757812023162842 c-4.285155773162842,0 -7.757812023162842,-3.472656011581421 -7.757812023162842,-7.757812023162842 s3.472656011581421,-7.757812023162842 7.757812023162842,-7.757812023162842 c4.285157203674316,0 7.757812976837158,3.472656011581421 7.757812976837158,7.757812023162842 zm0,0 " id="svg_35" fill="#000000" fill-opacity="1"/><path d="m311.45148462057114,419.19921875 c0,4.285155773162842 -3.472656011581421,7.757812023162842 -7.757812976837158,7.757812023162842 c-4.285155773162842,0 -7.757812023162842,-3.472656011581421 -7.757812023162842,-7.757812023162842 c0,-4.285157203674316 3.472656011581421,-7.757812976837158 7.757812023162842,-7.757812976837158 c4.285157203674316,0 7.757812976837158,3.472656011581421 7.757812976837158,7.757812976837158 zm0,0 " id="svg_36" fill="#000000" fill-opacity="1"/><path d="m336.23273462057114,377.6796875 c0,4.285155773162842 -3.472656011581421,7.757812023162842 -7.757812976837158,7.757812023162842 c-4.285155773162842,0 -7.757812023162842,-3.472656011581421 -7.757812023162842,-7.757812023162842 c0,-4.285157203674316 3.472656011581421,-7.757812976837158 7.757812023162842,-7.757812976837158 c4.285157203674316,0 7.757812976837158,3.472656011581421 7.757812976837158,7.757812976837158 zm0,0 " id="svg_37" fill="#000000" fill-opacity="1"/><path d="m336.23273462057114,398.4375 c0,4.285155773162842 -3.472656011581421,7.757812023162842 -7.757812976837158,7.757812023162842 c-4.285155773162842,0 -7.757812023162842,-3.472656011581421 -7.757812023162842,-7.757812023162842 s3.472656011581421,-7.757812023162842 7.757812023162842,-7.757812023162842 c4.285157203674316,0 7.757812976837158,3.472656011581421 7.757812976837158,7.757812023162842 zm0,0 " id="svg_38" fill="#000000" fill-opacity="1"/><path d="m336.23273462057114,419.19921875 c0,4.285155773162842 -3.472656011581421,7.757812023162842 -7.757812976837158,7.757812023162842 c-4.285155773162842,0 -7.757812023162842,-3.472656011581421 -7.757812023162842,-7.757812023162842 c0,-4.285157203674316 3.472656011581421,-7.757812976837158 7.757812023162842,-7.757812976837158 c4.285157203674316,0 7.757812976837158,3.472656011581421 7.757812976837158,7.757812976837158 zm0,0 " id="svg_39" fill="#000000" fill-opacity="1"/></g></g></svg>