<?xml version="1.0" encoding="UTF-8" standalone="no"?>
<!-- Created with Inkscape (http://www.inkscape.org/) -->

<svg
   xmlns:dc="http://purl.org/dc/elements/1.1/"
   xmlns:cc="http://creativecommons.org/ns#"
   xmlns:rdf="http://www.w3.org/1999/02/22-rdf-syntax-ns#"
   xmlns:svg="http://www.w3.org/2000/svg"
   xmlns="http://www.w3.org/2000/svg"
   xmlns:sodipodi="http://sodipodi.sourceforge.net/DTD/sodipodi-0.dtd"
   xmlns:inkscape="http://www.inkscape.org/namespaces/inkscape"
   width="64px"
   height="64px"
   id="svg3799"
   version="1.1"
   inkscape:version="0.48.3.1 r9886"
   sodipodi:docname="glider_workbench.svg">
  <defs
     id="defs3801">
    <marker
       inkscape:stockid="EmptyTriangleOutL"
       orient="auto"
       refY="0.0"
       refX="0.0"
       id="EmptyTriangleOutL"
       style="overflow:visible">
      <path
         id="path4487"
         d="M 5.77,0.0 L -2.88,5.0 L -2.88,-5.0 L 5.77,0.0 z "
         style="fill-rule:evenodd;fill:#FFFFFF;stroke:#000000;stroke-width:1.0pt"
         transform="scale(0.8) translate(-6,0)" />
    </marker>
    <marker
       inkscape:stockid="DotS"
       orient="auto"
       refY="0.0"
       refX="0.0"
       id="DotS"
       style="overflow:visible">
      <path
         id="path4394"
         d="M -2.5,-1.0 C -2.5,1.7600000 -4.7400000,4.0 -7.5,4.0 C -10.260000,4.0 -12.5,1.7600000 -12.5,-1.0 C -12.5,-3.7600000 -10.260000,-6.0 -7.5,-6.0 C -4.7400000,-6.0 -2.5,-3.7600000 -2.5,-1.0 z "
         style="fill-rule:evenodd;stroke:#000000;stroke-width:1.0pt"
         transform="scale(0.2) translate(7.4, 1)" />
    </marker>
    <marker
       inkscape:stockid="DotL"
       orient="auto"
       refY="0.0"
       refX="0.0"
       id="DotL"
       style="overflow:visible">
      <path
         id="path4388"
         d="M -2.5,-1.0 C -2.5,1.7600000 -4.7400000,4.0 -7.5,4.0 C -10.260000,4.0 -12.5,1.7600000 -12.5,-1.0 C -12.5,-3.7600000 -10.260000,-6.0 -7.5,-6.0 C -4.7400000,-6.0 -2.5,-3.7600000 -2.5,-1.0 z "
         style="fill-rule:evenodd;stroke:#000000;stroke-width:1.0pt"
         transform="scale(0.8) translate(7.4, 1)" />
    </marker>
    <marker
       inkscape:stockid="Tail"
       orient="auto"
       refY="0.0"
       refX="0.0"
       id="Tail"
       style="overflow:visible">
      <g
         id="g4363"
         transform="scale(-1.2)">
        <path
           id="path4365"
           d="M -3.8048674,-3.9585227 L 0.54352094,0"
           style="fill:none;fill-rule:evenodd;stroke:#000000;stroke-width:0.8;stroke-linecap:round" />
        <path
           id="path4367"
           d="M -1.2866832,-3.9585227 L 3.0617053,0"
           style="fill:none;fill-rule:evenodd;stroke:#000000;stroke-width:0.8;stroke-linecap:round" />
        <path
           id="path4369"
           d="M 1.3053582,-3.9585227 L 5.6537466,0"
           style="fill:none;fill-rule:evenodd;stroke:#000000;stroke-width:0.8;stroke-linecap:round" />
        <path
           id="path4371"
           d="M -3.8048674,4.1775838 L 0.54352094,0.21974226"
           style="fill:none;fill-rule:evenodd;stroke:#000000;stroke-width:0.8;stroke-linecap:round" />
        <path
           id="path4373"
           d="M -1.2866832,4.1775838 L 3.0617053,0.21974226"
           style="fill:none;fill-rule:evenodd;stroke:#000000;stroke-width:0.8;stroke-linecap:round" />
        <path
           id="path4375"
           d="M 1.3053582,4.1775838 L 5.6537466,0.21974226"
           style="fill:none;fill-rule:evenodd;stroke:#000000;stroke-width:0.8;stroke-linecap:round" />
      </g>
    </marker>
    <marker
       inkscape:stockid="Arrow1Sstart"
       orient="auto"
       refY="0.0"
       refX="0.0"
       id="Arrow1Sstart"
       style="overflow:visible">
      <path
         id="path4339"
         d="M 0.0,0.0 L 5.0,-5.0 L -12.5,0.0 L 5.0,5.0 L 0.0,0.0 z "
         style="fill-rule:evenodd;stroke:#000000;stroke-width:1.0pt"
         transform="scale(0.2) translate(6,0)" />
    </marker>
    <marker
       inkscape:stockid="Arrow1Lstart"
       orient="auto"
       refY="0.0"
       refX="0.0"
       id="Arrow1Lstart"
       style="overflow:visible">
      <path
         id="path4327"
         d="M 0.0,0.0 L 5.0,-5.0 L -12.5,0.0 L 5.0,5.0 L 0.0,0.0 z "
         style="fill-rule:evenodd;stroke:#000000;stroke-width:1.0pt"
         transform="scale(0.8) translate(12.5,0)" />
    </marker>
  </defs>
  <sodipodi:namedview
     id="base"
     pagecolor="#ffffff"
     bordercolor="#666666"
     borderopacity="1.0"
     inkscape:pageopacity="0.0"
     inkscape:pageshadow="2"
     inkscape:zoom="7.7781746"
     inkscape:cx="30.821471"
     inkscape:cy="27.857927"
     inkscape:current-layer="layer1"
     showgrid="true"
     inkscape:document-units="px"
     inkscape:grid-bbox="true"
     inkscape:snap-center="true"
     showguides="true"
     inkscape:guide-bbox="true"
     inkscape:window-width="1366"
     inkscape:window-height="719"
     inkscape:window-x="0"
     inkscape:window-y="29"
     inkscape:window-maximized="1"
     inkscape:snap-nodes="true">
    <sodipodi:guide
       orientation="1,0"
       position="32,32"
       id="guide3783" />
    <sodipodi:guide
       orientation="0,1"
       position="32,32"
       id="guide3785" />
  </sodipodi:namedview>
  <metadata
     id="metadata3804">
    <rdf:RDF>
      <cc:Work
         rdf:about="">
        <dc:format>image/svg+xml</dc:format>
        <dc:type
           rdf:resource="http://purl.org/dc/dcmitype/StillImage" />
        <dc:title></dc:title>
      </cc:Work>
    </rdf:RDF>
  </metadata>
  <g
     id="layer1"
     inkscape:label="Layer 1"
     inkscape:groupmode="layer">
    <rect
       style="fill:#ffbf00;fill-opacity:1;stroke:none"
       id="rect3849"
       width="63.856945"
       height="63.856945"
       x="0.07152696"
       y="0.07152696"
       ry="15.553153" />
    <path
       style="fill:#000000;stroke:none;stroke-opacity:1"
       d="M 31.84375 6.5625 C 25.111295 6.6009306 17.093287 11.016521 12.25 17.5 C 7.3843558 24.013406 6.7197444 31.59032 10.65625 35.4375 C 11.501292 36.263369 12.219513 36.498561 12.71875 36.09375 C 13.036053 35.836461 28.307606 38.272114 28.59375 38.625 C 28.684113 38.73644 29.293805 39.876851 29.9375 41.15625 C 30.581196 42.435647 31.11237 43.48442 31.125 43.5 C 31.137638 43.515586 31.000454 43.697344 30.84375 43.90625 C 30.524538 44.331782 30.798755 45.13841 31.3125 45.3125 C 31.485241 45.371037 32.74098 45.202131 34.09375 44.9375 C 37.073851 44.35453 37.452866 44.091736 37.15625 42.84375 C 37.047164 42.384776 36.95945 41.93224 36.96875 41.84375 C 36.977992 41.755264 37.563494 42.249467 38.28125 42.9375 L 39.59375 44.1875 L 39.375 46.28125 C 39.25935 47.439522 39.24632 48.647049 39.34375 48.9375 C 39.44117 49.227958 40.371263 50.504843 41.40625 51.78125 C 43.177672 53.965869 43.326015 54.11278 43.875 54.1875 C 44.655714 54.293734 45.41591 53.680102 45.5 52.875 C 45.557264 52.326737 45.421779 52.075572 43.96875 50.09375 C 42.457839 48.032942 42.39384 47.910323 42.46875 47.28125 L 42.53125 46.625 L 43.125 47.53125 C 43.620929 48.300561 44.090314 48.711348 46.09375 50.15625 C 47.569218 51.220374 48.650556 51.88621 49 51.9375 C 50.142685 52.105203 51.117878 50.50262 50.40625 49.625 C 50.2616 49.446609 49.214202 48.610823 48.0625 47.78125 L 45.96875 46.28125 L 44.53125 44 C 43.179744 41.827526 42.536414 41.031349 40.59375 39.15625 L 39.90625 38.5 L 40.9375 38.8125 C 42.324961 39.235397 42.713785 39.007231 43.125 37.59375 C 43.935092 34.809204 44.063179 33.838311 43.6875 33.375 C 43.400321 33.020833 43.210808 32.982458 42.78125 33.125 C 42.275544 33.292813 42.134326 33.205569 40.21875 31.71875 L 38.1875 30.15625 L 38.40625 27.6875 C 38.523199 26.336509 38.863966 22.714894 39.15625 19.65625 C 39.448534 16.597605 39.71605 13.565311 39.75 12.90625 C 39.797154 11.990812 39.874105 11.662498 40.15625 11.53125 C 40.359375 11.436756 40.60832 11.151968 40.6875 10.875 C 40.819243 10.414182 40.759898 10.303987 40.03125 9.5625 C 38.331537 7.832818 36.090427 6.8405653 33.1875 6.59375 C 32.751395 6.5566711 32.29258 6.559938 31.84375 6.5625 z M 36.53125 11.21875 C 37.379299 11.222208 38.98715 11.345075 39.28125 11.46875 C 39.676496 11.634962 39.709575 11.294206 38.28125 26.40625 C 38.083103 28.502699 37.90814 30.22313 37.875 30.25 C 37.779974 30.327053 37.67828 29.535206 36.78125 20.15625 C 36.316177 15.293619 35.96132 11.2914 36 11.25 C 36.030702 11.217222 36.248567 11.217597 36.53125 11.21875 z M 35.125 11.3125 L 35.75 11.3125 L 36.625 20.6875 C 37.107679 25.839232 37.46484 30.07587 37.40625 30.125 C 37.347711 30.174206 37.23515 30.15982 37.15625 30.0625 C 36.7924 29.61378 30.531744 12.313795 30.6875 12.1875 C 30.963305 11.96386 34.410019 11.2914 35.125 11.3125 z M 30.09375 12.4375 C 30.206108 12.448385 31.776401 16.478647 33.59375 21.40625 L 36.90625 30.375 L 37.1875 33.28125 L 37.4375 36.21875 L 36.28125 37.4375 C 35.647249 38.108432 35.000971 38.778765 34.84375 38.90625 C 34.63353 39.076709 33.89345 38.898035 32.03125 38.25 C 30.638535 37.765345 29.239542 37.214064 28.90625 37.03125 C 28.572961 36.848436 25.065176 34.558084 21.125 31.9375 C 15.12651 27.947948 13.97731 27.129237 14.0625 26.875 C 14.118457 26.708001 14.475054 25.999805 14.84375 25.3125 C 17.047239 21.204863 20.596439 17.491948 24.90625 14.84375 C 26.633224 13.782597 29.652425 12.39473 30.09375 12.4375 z M 13.8125 27.5625 C 13.876355 27.510723 17.28033 29.688944 21.375 32.40625 C 25.469673 35.123556 28.821 37.41858 28.8125 37.5 C 28.795476 37.663003 28.795687 37.664568 19.28125 34.5 L 12.625 32.28125 L 12.8125 31.1875 C 13.00677 29.9983 13.627287 27.712682 13.8125 27.5625 z M 38.40625 30.5625 C 38.524881 30.643857 39.303625 31.282096 40.15625 31.96875 C 41.008875 32.655401 41.802422 33.28168 41.90625 33.34375 C 42.010082 33.405832 41.906289 34.148622 41.6875 35 C 41.468711 35.851377 41.22708 36.60154 41.15625 36.65625 C 41.085418 36.710953 40.421482 36.556068 39.65625 36.3125 L 38.25 35.84375 L 38.28125 35.3125 C 38.29891 35.016634 38.28789 33.790489 38.25 32.59375 C 38.211425 31.375543 38.285497 30.47968 38.40625 30.5625 z M 12.78125 32.625 C 12.898975 32.639058 16.332924 33.768904 20.40625 35.125 C 24.479577 36.481094 27.997691 37.63489 28.25 37.71875 C 28.502309 37.802607 28.68619 37.9455 28.65625 38.03125 C 28.584906 38.235602 13.244298 35.70436 12.9375 35.4375 C 12.637205 35.176291 12.495429 32.59087 12.78125 32.625 z M 29.03125 38.625 C 29.124756 38.560922 33.901478 39.804916 34.1875 39.96875 C 34.271932 40.017114 34.49539 40.619629 34.6875 41.3125 C 34.879609 42.005368 35.01376 42.59515 34.96875 42.625 C 34.923734 42.654859 34.06383 42.855866 33.09375 43.0625 L 31.34375 43.4375 L 30.84375 42.4375 C 30.576711 41.895441 30.047469 40.828 29.65625 40.0625 C 29.265032 39.297001 28.98014 38.65994 29.03125 38.625 z "
       id="path4650" />
    <path
       style="fill:#000000;stroke:none"
       d="m 33.772663,37.867003 c -2.825507,0.38033 -4.259148,-3.281863 -1.892043,-4.83317 0.881039,-0.577385 1.647249,-0.628005 2.565238,-0.169447 0.978399,0.488733 1.441993,1.065398 1.559684,1.940217 0.198957,1.478057 -0.817342,2.8719 -2.232936,3.062446 z"
       id="path4642"
       inkscape:connector-curvature="0" />
  </g>
</svg>
