<?xml version="1.0" encoding="iso-8859-1"?>
<!-- Generator: Adobe Illustrator 16.0.0, SVG Export Plug-In . SVG Version: 6.00 Build 0)  -->
<!DOCTYPE svg PUBLIC "-//W3C//DTD SVG 1.1//EN" "http://www.w3.org/Graphics/SVG/1.1/DTD/svg11.dtd">
<svg version="1.1" id="Capa_1" xmlns="http://www.w3.org/2000/svg" xmlns:xlink="http://www.w3.org/1999/xlink" x="0px" y="0px"
	 width="585.918px" height="585.918px" viewBox="0 0 585.918 585.918" style="enable-background:new 0 0 585.918 585.918;"
	 xml:space="preserve">
<g>
	<path d="M132.22,274.777c-4.761,0.087-7.822,0.578-9.628,1.056v65.29c1.806,0.503,4.73,0.604,7.387,0.692
		c19.625,0.813,32.749-10.33,32.749-34.897C162.876,285.549,150.905,274.463,132.22,274.777z"/>
	<path d="M537.115,48.974h-177.39c-0.787,0-1.553,0.076-2.335,0.123V0L11.176,46.206v492.311l346.214,47.402v-50.583
		c0.782,0.052,1.543,0.114,2.335,0.114h177.39c20.75,0,37.627-16.888,37.627-37.627V86.602
		C574.742,65.859,557.865,48.974,537.115,48.974z M51.271,358.419c-10.767-0.536-19.717-4.146-24.458-7.801l3.872-16.205
		c3.386,2.125,11.223,6.147,19.173,6.42c10.265,0.367,15.533-5.061,15.533-12.304c0-9.461-8.407-13.859-17.086-13.984l-7.93-0.117
		v-15.789l7.535,0.01c6.596-0.137,15.101-2.929,15.101-11.044c0-5.75-4.203-9.96-12.526-9.827
		c-6.797,0.108-13.905,3.538-17.302,5.881l-3.876-15.74c4.882-3.714,14.761-7.478,25.588-7.797
		c18.342-0.557,28.741,10.089,28.741,23.42c0,10.352-5.278,18.437-16.003,22.53v0.294c10.441,2.162,19.003,11.119,19.003,23.886
		C86.642,347.552,72.967,359.505,51.271,358.419z M170.134,348.089c-10.488,8.597-26.132,12.109-44.762,11.227
		c-10.9-0.52-18.512-1.615-23.636-2.576v-96.448c7.557-1.527,17.551-2.564,28.248-2.887c18.186-0.559,30.251,2.575,39.848,9.827
		c10.499,7.805,17.173,20.588,17.173,39.081C187.005,326.351,179.879,339.951,170.134,348.089z M299.285,366.387l-1.785-43.392
		c-0.536-13.61-1.066-30.061-1.066-46.501l-0.537,0.01c-3.719,14.438-8.656,30.471-13.223,43.567l-14.192,43.072l-20.092-0.914
		l-11.903-42.551c-3.591-12.746-7.315-28.14-9.927-42.204h-0.307c-0.657,14.546-1.129,31.164-1.93,44.565l-1.932,40.768
		l-22.282-1.046l6.714-105.911l32.636-0.977l10.932,36.24c3.517,12.701,7.053,26.433,9.597,39.41l0.496,0.011
		c3.238-12.735,7.157-27.319,10.932-39.673l12.494-37.32l35.665-1.065l6.828,115.192L299.285,366.387z M553.24,497.823
		c0,8.887-7.238,16.127-16.125,16.127h-177.39c-0.797,0-1.563-0.117-2.335-0.231V324.34c4.729,6.604,9.422,13.689,15.019,21.553
		c0.966-5.39,2.353-8.347,1.805-10.887c-2.771-13.139-4.828-26.624-9.458-39.124c-4.516-12.181-2.451-19.039,10.12-22.899
		c8.588-2.639,16.893-6.187,25.312-9.332c-5.568,3.279-11.926,5.72-16.546,10.032c-8.011,7.46-5.663,17.841,4.263,21.625
		c3.685,1.409,7.728,1.84,11.623,2.721c-0.898,1.202-1.791,2.405-2.688,3.602c7.232,6.384,14.467,12.746,21.679,19.15
		c12.883,11.423,15.891-10.782,26.31-7.716c-3.348,5.846-7.591,11.369-9.868,17.589c-3.197,8.783-4.62,18.212-17.789,14.789
		c-19.854-5.149-27.219-12.642-26.517-26.426c0.326-6.446-0.87-12.977-1.385-19.464c-4.378,7.611-4.269,14.761-6.11,21.364
		c-3.896,13.959,0.986,21.763,13.343,29.322c23.077,14.111,44.7,30.626,66.973,46.06c4.599,3.201,9.439,6.068,14.158,9.07
		c1.254-0.955,2.498-1.9,3.742-2.866c-1.938-5.06-4.966-10.006-5.553-15.233c-0.683-6.021,0.366-12.378,1.686-18.368
		c0.246-1.112,6.838-2.577,7.768-1.507c3.974,4.568,7.139,9.9,10.063,15.255c0.729,1.323-0.557,3.749-0.688,4.525
		c-4.394-2.277-8.666-4.494-16.067-8.346c9.009,20.608,15.117,21.926,25.375,8.702c3.622-4.651,5.386-10.697,8.388-15.891
		c4.941-8.508,8.359-19.274,15.681-24.738c17.329-12.92,12.861-28.936,11.784-45.618c-15.652,2.792-28.021,18.919-44.44,8.021
		c6.782-10.944,12.578-20.31,19.821-31.979c-5.921,0-7.895-0.407-9.627,0.071c-37.605,10.428-38.771,10.239-56.852-23.108
		c-5.217-9.627-10.478-12.703-19.853-5.882c-3.233,2.349-7.002,3.951-10.525,5.893c22.483-24.331,23.086-27.098,9.014-56.131
		c-3.701-7.639-8.105-15.168-13.439-21.712c-7.328-8.981-15.874-16.974-27.075-28.725c-3.47,18.954-3.906,33.35-8.926,45.922
		c-5.814,14.583-12.954,28.688-20.519,42.536V70.717c0.771-0.113,1.532-0.242,2.335-0.242h177.39
		c8.887,0,16.125,7.236,16.125,16.127V497.823z M406.813,303.394c19.476,13.984,25.135,11.333,25.135,11.333
		c-5.24,5.664-12.997,0-12.997,0L406.813,303.394z"/>
</g>
<g>
</g>
<g>
</g>
<g>
</g>
<g>
</g>
<g>
</g>
<g>
</g>
<g>
</g>
<g>
</g>
<g>
</g>
<g>
</g>
<g>
</g>
<g>
</g>
<g>
</g>
<g>
</g>
<g>
</g>
</svg>
