<svg width="64" height="64" version="1.1" viewBox="0 0 16.933 16.933" xmlns="http://www.w3.org/2000/svg" xmlns:osb="http://www.openswatchbook.org/uri/2009/osb" xmlns:xlink="http://www.w3.org/1999/xlink">
 <defs>
  <linearGradient id="linearGradient921" x1="11.912" x2="8.7373" y1="291.9" y2="287.8" gradientTransform="matrix(1.0833 0 0 1.0833 -.34287 -24.178)" gradientUnits="userSpaceOnUse">
   <stop stop-color="#204a87" offset="0"/>
   <stop stop-color="#fff" stop-opacity=".48361" offset="1"/>
  </linearGradient>
  <filter id="filter961" x="-.05105" y="-.12211" width="1.1021" height="1.2442" color-interpolation-filters="sRGB">
   <feGaussianBlur stdDeviation="0.064037034"/>
  </filter>
  <linearGradient id="linearGradient1038" x1="12.218" x2="4.7526" y1="293.6" y2="281.58" gradientUnits="userSpaceOnUse">
   <stop stop-color="#204a87" offset="0"/>
   <stop stop-color="#729fcf" offset="1"/>
  </linearGradient>
 </defs>
 <g transform="translate(0 -280.07)">
  <path d="m9.4926 284.17-2.1087 0.0732 0.080087-2.8407c-2.4391-1.4313-4.7023 0.37035-3.297 3.3519 0.56639 1.9079-1.8906 2.8952-2.4288 4.5437-1.7954 6.0782 5.2259 7.9512 9.5839 6.2765 2.0592-0.80161 4.0499-2.7962 3.5955-5.3115-0.21118-1.8158-2.3252-3.4686-2.8229-5.1602-0.57847-1.9662 1.2755-2.7401 0.10223-3.9948-1.205 1.2335-1.8727 1.2368-2.7426 1.3362z" fill="url(#linearGradient1038)" stroke="#0b1521" stroke-linejoin="round" stroke-width=".52917"/>
  <path d="m10.357 283.19c-0.84407 2.4184-2.8112 7.0155-7.4399 9.6819-0.44564 1.3098 7.1679 5.5359 10.965-0.8799 1.5816-2.6723-3.0461-5.2596-2.6572-7.6886 0.79884-3.2467-0.54673-0.85644-0.86808-1.1134z" fill="url(#linearGradient921)" opacity=".403"/>
  <g fill="#0b1521">
   <rect transform="rotate(-5.5485)" x="-21.556" y="289.63" width="3.5863" height=".41154" ry=".0079077" opacity=".805"/>
   <rect transform="matrix(.99245 -.12269 .076114 .9971 0 0)" x="-15.663" y="290.25" width="3.5967" height=".52278" ry=".010045" opacity=".805"/>
   <g transform="translate(-.52917 -.52917)">
    <circle cx="12.773" cy="290.04" r=".44142"/>
    <circle cx="12.773" cy="290.04" r=".3508"/>
   </g>
   <g transform="translate(-.52917 1.6815)">
    <circle cx="12.773" cy="290.04" r=".44142"/>
    <circle cx="12.773" cy="290.04" r=".3508"/>
   </g>
  </g>
  <path d="m5.5859 281.45c-1.1411 0.0601-1.5677 1.4146-1.2129 2.3555 0.39533 0.8634 0.61545 1.8984 0.064453 2.7559-0.73675 1.3082-2.3254 2.1452-2.39 3.7904-0.38168 1.7894 0.60586 3.6766 2.2539 4.4425 1.9847 1.0086 4.3827 1.0617 6.4291 0.43506 1.9843-0.60818 3.9612-2.4173 3.691-4.6576-0.27141-2.3971-2.9639-3.7875-2.9672-6.2744-0.0073-0.77143 0.32949-1.4805 0.55752-2.2008-0.50332 0.55709-1.2574 0.78507-1.9844 0.84766-0.053636 0.58611 0.18188 1.2918-0.43646 1.6444-0.64936 0.23498-1.4675 0.0974-2.1807 0.19157-0.64668-0.3579-0.58111-1.0029-0.52388-1.6445-0.12319-0.46747 0.3245-1.2986-0.19608-1.5153-0.34874-0.13782-0.72944-0.20716-1.1043-0.17028z" fill="none" stroke="#729fcf" stroke-linejoin="round" stroke-width=".52917"/>
  <rect x="6.5595" y="284.89" width="3.5863" height="1.6756" ry=".032196" fill="#0b1521" opacity=".805"/>
  <path transform="matrix(1.0833 0 0 -1.0833 -.58367 595.29)" d="m6.7158 285.12 0.010067 1.2586h3.0005c-1.3608-0.0368-2.7478-0.0453-3.0105-1.2586z" fill="#333" filter="url(#filter961)"/>
  <rect x="6.5595" y="288.06" width="3.5863" height="1.6756" ry=".032196" fill="#0b1521" opacity=".805"/>
  <path transform="matrix(1.0833 0 0 -1.0833 -.58367 601.76)" d="m6.7158 288.16 0.010067 1.2586h3.0005c-1.3608-0.0368-2.7478-0.0453-3.0105-1.2586z" fill="#0b1521" filter="url(#filter961)"/>
 </g>
</svg>
