<?xml version="1.0" encoding="UTF-8"?>
<svg enable-background="new 0 0 64 64" version="1.1" viewBox="0 0 64 64" xml:space="preserve" xmlns="http://www.w3.org/2000/svg" xmlns:cc="http://creativecommons.org/ns#" xmlns:dc="http://purl.org/dc/elements/1.1/" xmlns:rdf="http://www.w3.org/1999/02/22-rdf-syntax-ns#" xmlns:xlink="http://www.w3.org/1999/xlink"><metadata><rdf:RDF><cc:Work rdf:about=""><dc:format>image/svg+xml</dc:format><dc:type rdf:resource="http://purl.org/dc/dcmitype/StillImage"/></cc:Work></rdf:RDF></metadata><defs><linearGradient id="b" x1="56.906" x2="32.094" y1="46.163" y2="31.837" gradientTransform="matrix(-1,0,0,-1,64,64)" gradientUnits="userSpaceOnUse"><stop stop-color="#C79E42" offset="0"/><stop stop-color="#F2D556" offset="1"/></linearGradient><linearGradient id="a" x1="56.906" x2="32.094" y1="46.163" y2="31.837" gradientUnits="userSpaceOnUse"><stop stop-color="#C79E42" offset="0"/><stop stop-color="#F2D556" offset="1"/></linearGradient></defs>
<path d="m32 61 25-14v-29l-25-15-25 15v29l25 14zm5-49 15 9v17l-15-9v-17zm9 35-14 8-14-8 14-8 14 8zm-34-26 15-9v17l-15 9v-17z" fill="#f2d556"/><path d="m32 3-25 15v29l25-15v-29zm-5 26-15 9v-17l15-9v17z" fill="url(#b)"/><path d="m32 61 24-13.4-24-14.6-24 14.6 24 13.4zm14-14-14 8-14-8 14-8 14 8z" fill="#ffea73"/><polygon points="55.6 44.7 33.4 31.3 33.4 5.5 55.6 18.8" fill="none" stroke="#ffea73" stroke-miterlimit="10" stroke-width="1.4"/><polygon points="8.4 44.7 8.4 18.8 30.6 5.5 30.6 31.3" fill="none" stroke="#f2d556" stroke-miterlimit="10" stroke-width="1.4"/><path d="m32 3-25 14v29l25 15 25-15v-29l-25-14zm-5 49-15-9v-17l15 9v17zm-9-35 14-8 14 8-14 8-14-8zm34 26-15 9v-17l15-9v17z" fill="#f2d556"/><path d="m32 61 25-15v-29l-25 15v29zm5-26 15-9v17l-15 9v-17z" fill="url(#a)"/><path d="m32 3-24 13.4 24 14.6 24-14.6-24-13.4zm-14 14 14-8 14 8-14 8-14-8z" fill="#ffea73"/><polygon points="8.4 19.3 30.6 32.7 30.6 58.5 8.4 45.2" fill="none" stroke="#ffea73" stroke-miterlimit="10" stroke-width="1.4"/><polygon points="55.6 19.3 55.6 45.2 33.4 58.5 33.4 32.7" fill="none" stroke="#f2d556" stroke-miterlimit="10" stroke-width="1.4"/><g><g fill="none" stroke="#231f20" stroke-linecap="round" stroke-linejoin="round" stroke-miterlimit="10" stroke-width="1.4"><polyline points="7 17 32 3 57 17"/><polygon points="32 9 46 17 32 25 18 17"/><polygon points="52 43 37 52 37 35 52 26"/><polygon points="12 43 27 52 27 35 12 26"/><polyline points="57 17 57 46 32 61"/><polyline points="7 17 7 46 32 61"/><line x1="32" x2="32" y1="32" y2="61"/><line x1="57" x2="32" y1="17.2" y2="32"/><line x1="7" x2="32" y1="17.2" y2="32"/><polyline points="57 17.2 32 32 7 17.2"/><line x1="37.3" x2="45.1" y1="42.1" y2="46.5"/><line x1="18.9" x2="26.8" y1="46.5" y2="42"/><line x1="21.6" x2="12" y1="32.2" y2="38"/><line x1="27" x2="27" y1="12" y2="21.4"/><line x1="42.1" x2="52" y1="32.1" y2="38"/><line x1="37" x2="37" y1="12" y2="21.9"/><line x1="32" x2="32" y1="32" y2="61"/><polyline points="57 17.2 32 32 7 17.2"/><line x1="32" x2="32" y1="24.3" y2="9.5"/><line x1="37.6" x2="50.9" y1="35.3" y2="43.2"/><line x1="13.1" x2="26.4" y1="43.2" y2="35.3"/></g></g></svg>
