<?xml version="1.0" encoding="UTF-8"?>
<svg enable-background="new 0 0 211 200" version="1.1" viewBox="0 0 211 200" xml:space="preserve" xmlns="http://www.w3.org/2000/svg" xmlns:cc="http://creativecommons.org/ns#" xmlns:dc="http://purl.org/dc/elements/1.1/" xmlns:rdf="http://www.w3.org/1999/02/22-rdf-syntax-ns#"><metadata><rdf:RDF><cc:Work rdf:about=""><dc:format>image/svg+xml</dc:format><dc:type rdf:resource="http://purl.org/dc/dcmitype/StillImage"/></cc:Work></rdf:RDF></metadata>
<style type="text/css">
	.st0{fill:none;}
</style>


		<rect class="st0" x="-12.4" y="110.06" width="235.8" height="59.42"/><g>
		<path d="M34.95,121.78v41.75H21.81v-41.75H8.67v-11.71h39.42v11.71H34.95z" fill="#00b800"/>
		<path d="m69.64 163.53v-3.3c-2.48 2.48-4.73 3.68-9.01 3.68-4.06 0-7.43-1.35-9.69-3.6-2.33-2.33-3.53-5.71-3.53-9.46 0-6.08 4.13-11.71 13.74-11.71h8.18v-1.05c0-3.68-1.8-5.03-6.08-5.03-3.15 0-4.51 0.75-6.46 2.7l-7.66-7.66c4.13-4.13 7.88-5.41 14.72-5.41 11.56 0 17.8 4.81 17.8 14.64v26.21h-12.01zm-0.3-16.22h-6.23c-2.4 0-3.9 1.35-3.9 3.23 0 1.8 1.35 3.38 4.05 3.38 2.4 0 3.53-0.23 4.88-1.5 0.9-0.83 1.2-2.1 1.2-4.05v-1.06z" fill="#00c4c4"/>
		<path d="m109.89 163.53v-3.3c-2.48 2.48-4.73 3.68-9.01 3.68-4.06 0-7.43-1.35-9.69-3.6-2.33-2.33-3.53-5.71-3.53-9.46 0-6.08 4.13-11.71 13.74-11.71h8.18v-1.05c0-3.68-1.8-5.03-6.08-5.03-3.15 0-4.51 0.75-6.46 2.7l-7.66-7.66c4.13-4.13 7.88-5.41 14.72-5.41 11.56 0 17.8 4.81 17.8 14.64v26.21h-12.01zm-0.3-16.22h-6.23c-2.4 0-3.9 1.35-3.9 3.23 0 1.8 1.35 3.38 4.05 3.38 2.4 0 3.53-0.23 4.88-1.5 0.9-0.83 1.2-2.1 1.2-4.05v-1.06z" fill="#00b800"/>
		<path d="m146.91 163.98c-6.98 0-18.17-3-18.17-20.65s11.19-20.65 18.17-20.65c5.63 0 9.99 1.88 13.29 5.18l-8.33 8.34c-1.58-1.58-2.93-2.4-4.96-2.4-1.65 0-2.78 0.53-3.83 1.58-1.43 1.5-2.03 4.13-2.03 7.96s0.6 6.46 2.03 7.96c1.05 1.05 2.18 1.58 3.83 1.58 2.03 0 3.38-0.83 4.96-2.4l8.33 8.34c-3.3 3.28-7.66 5.16-13.29 5.16z" fill="#00c4c4"/>
		<path d="m189.34 163.53-8.41-14.79-2.4 2.63v12.17h-12.31v-53.46h12.31v27.18l10.89-14.12h14.79l-14.87 16.75 15.24 23.65h-15.24z" fill="#00b800"/>
	</g>

	<g fill="#00c4c4">
		<g fill="#00c4c4">

				<path d="m44.22 22.18 5.67-13.15c0.29-0.66 1.65-0.71 3.04-0.11l60.73 31.86c2.87 1.24 3.06 2.63 2.47 3.99l-0.41 0.96c-0.59 1.36-1.73 2.18-4.6 0.94l-64.89-22.2c-1.4-0.61-2.3-1.63-2.01-2.29z" fill="#00c4c4"/>

			<path d="m101.21 33.83c0.35 0.15 0.67 0.34 0.96 0.56l0.15-0.11c0.13-0.1 0.23-0.19 0.34-0.29 0.08-0.07 0.17-0.15 0.26-0.23s0.18-0.18 0.27-0.26c0.16-0.15 0.34-0.32 0.5-0.51l0.49-0.53 0.46-0.58c0.22-0.25 0.39-0.5 0.59-0.8 0.11-0.15 0.22-0.31 0.33-0.47 0.08-0.14 0.17-0.28 0.26-0.42 0.21-0.35 0.41-0.68 0.57-1.01l0.11-0.24c0.21-0.44 0.44-0.89 0.6-1.36 0.05-0.16 0.1-0.28 0.15-0.4 0.06-0.17 0.13-0.34 0.18-0.51l0.23-0.89c0.01-0.02 0.01-0.05 0.02-0.07 0.11-0.36 0.17-0.77 0.22-1.2 0.02-0.17 0.05-0.34 0.07-0.51 0.07-0.37 0.07-0.73 0.08-1.11 0.01-0.19 0.01-0.38 0.01-0.57 0-0.12 0-0.23 0.01-0.34 0-0.12 0.01-0.24 0-0.36l-0.09-0.84c-0.03-0.17-0.04-0.37-0.06-0.56-0.02-0.28-0.05-0.54-0.1-0.71l-0.5-2.15c-0.07-0.31-0.04-0.63 0.08-0.91 0.13-0.31 0.38-0.58 0.7-0.73 0.62-0.29 1.35-0.12 1.77 0.42l1.37 1.78c0.24 0.31 0.45 0.66 0.64 0.99 0.09 0.15 0.18 0.3 0.28 0.47l0.48 0.83c0.15 0.26 0.26 0.51 0.36 0.74l0.12 0.27c0.1 0.23 0.17 0.39 0.25 0.56 0.22 0.5 0.48 1.08 0.63 1.72l0.12 0.4c0.18 0.61 0.39 1.3 0.5 2.05l0.21 1.17c0.05 0.37 0.07 0.68 0.1 1l0.03 0.38c0.09 0.88 0.07 1.74 0.05 2.58v0.11c-0.01 0.71-0.09 1.4-0.16 2.05l-0.06 0.54c-0.01 0.04-0.01 0.07-0.02 0.11-0.04 0.22-0.08 0.43-0.11 0.65-0.1 0.58-0.2 1.19-0.36 1.77l-0.24 0.97c0 0.03-0.03 0.12-0.04 0.15l-0.3 0.98c-0.08 0.26-0.16 0.51-0.25 0.75 0.31 1.43 0.19 2.96-0.43 4.4l-0.96 2.22c-0.44 1.02-1.2 2.12-2.13 3.14 1.47 2.31-0.88 7.15-3.93 14.2l-15.76-6.83c2.35-5.41 4.99-12.07 7.67-12.58 0.02-0.31 0.06-0.61 0.1-0.91-0.21-0.06-0.42-0.12-0.63-0.21"/>


			<polygon points="100.26 67.12 66.58 77.86 71.95 80.36 54.99 86.04 59.53 88.46 35.65 99.51 64.92 87.31 60.89 85.74 78.53 79.83 73.38 77.87"/>
			<polygon points="172.01 93.02 139.47 84.54 144.24 81.96 127.83 77.44 131.84 74.96 108.42 65.74 136.99 75.79 133.38 77.44 150.45 82.15 145.83 84.22"/>
			<polygon points="123.43 91.04 111.96 81.57 115.05 81.24 109.35 76.35 112.06 75.94 104.95 67.72 114.07 77.21 111.84 77.32 117.76 82.41 114.93 82.53"/>
			<polygon points="102.65 70.74 91.49 89.59 94.83 87.34 87.01 104.18 96.6 85.36 94.83 86.23"/>
			<polygon points="153.78 69.04 134.34 68.53 134.1 67.99 119.78 66.4 136.42 67.55 136.78 67.89"/>
			<polygon points="77.86 68.72 66.32 69.33 80.84 67.03 94.25 66.11"/>
		</g>
	</g>
<text transform="translate(-36,8)" x="89.765472" y="180.05247" fill="#00c4c4" font-family="sans-serif" font-size="18.667px" font-weight="bold" letter-spacing="0px" word-spacing="0px" style="font-variant-caps:normal;font-variant-east-asian:normal;font-variant-ligatures:normal;font-variant-numeric:normal;inline-size:154.426;line-height:1.25;white-space:pre" xml:space="preserve"/>







</svg>
