<?xml version="1.0" encoding="UTF-8" standalone="no"?>
<!-- Created with Inkscape (http://www.inkscape.org/) -->

<svg
   xmlns:dc="http://purl.org/dc/elements/1.1/"
   xmlns:cc="http://creativecommons.org/ns#"
   xmlns:rdf="http://www.w3.org/1999/02/22-rdf-syntax-ns#"
   xmlns:svg="http://www.w3.org/2000/svg"
   xmlns="http://www.w3.org/2000/svg"
   xmlns:sodipodi="http://sodipodi.sourceforge.net/DTD/sodipodi-0.dtd"
   xmlns:inkscape="http://www.inkscape.org/namespaces/inkscape"
   id="svg2"
   version="1.1"
   inkscape:version="0.91 r13725"
   width="32.000004"
   height="31.999998"
   viewBox="0 0 32.000004 31.999998"
   sodipodi:docname="TimberFrame.svg">
  <metadata
     id="metadata8">
    <rdf:RDF>
      <cc:Work
         rdf:about="">
        <dc:format>image/svg+xml</dc:format>
        <dc:type
           rdf:resource="http://purl.org/dc/dcmitype/StillImage" />
        <dc:title></dc:title>
      </cc:Work>
    </rdf:RDF>
  </metadata>
  <defs
     id="defs6" />
  <sodipodi:namedview
     pagecolor="#ffffff"
     bordercolor="#666666"
     borderopacity="1"
     objecttolerance="10"
     gridtolerance="10"
     guidetolerance="10"
     inkscape:pageopacity="0"
     inkscape:pageshadow="2"
     inkscape:window-width="1920"
     inkscape:window-height="1054"
     id="namedview4"
     showgrid="false"
     fit-margin-top="0"
     fit-margin-left="0"
     fit-margin-right="0"
     fit-margin-bottom="0"
     inkscape:zoom="18.122535"
     inkscape:cx="2.4789466"
     inkscape:cy="11.896196"
     inkscape:window-x="0"
     inkscape:window-y="0"
     inkscape:window-maximized="1"
     inkscape:current-layer="g4138" />
  <g
     id="g4138"
     transform="matrix(0.04523202,0,0,0.04154228,-10.79725,-1.1014692)">
    <path
       style="fill:#d1d26c"
       d="m 829.28159,788.39119 c -11.82481,-4.5976 -21.92547,-8.78507 -22.44591,-9.30551 -0.63666,-0.63666 1.73922,-39.97905 7.26188,-120.25034 4.51447,-65.61724 8.4332,-121.20525 8.70827,-123.52889 l 0.50015,-4.22479 -17.73706,-22.96271 C 717.48349,394.08202 696.22734,366.87083 694.42547,365.83793 693.28053,365.18161 661.33594,359.40842 623.4375,353.00861 516.45706,334.94312 462.19989,325.75395 420.94025,318.71299 c -35.86337,-6.12008 -38.05079,-6.38933 -39.49695,-4.86157 -1.45229,1.53424 -56.95385,76.39733 -58.2714,78.59918 -0.57388,0.95905 2.46409,30.06001 15.14848,145.10837 2.5523,23.14963 4.46118,42.55768 4.24193,43.12901 -0.21923,0.57134 -4.98291,3.46636 -10.58594,6.43339 l -10.18732,5.3946 -11.12891,-4.28625 c -6.12089,-2.35745 -11.6694,-4.81505 -12.33002,-5.46135 -0.78833,-0.77124 -7.42223,-50.85352 -19.30313,-145.72799 -9.9561,-79.50409 -18.33668,-144.78757 -18.62351,-145.0744 -0.28683,-0.28684 -4.03107,-1.1342 -8.32054,-1.88304 -4.28947,-0.74884 -8.09692,-1.67151 -8.461,-2.05036 -0.36408,-0.37886 -1.76352,-8.88664 -3.10986,-18.90619 -1.98629,-14.7821 -2.22118,-18.4293 -1.24561,-19.34124 1.71558,-1.60372 22.98003,-5.12499 27.45228,-4.54594 3.59398,0.46533 4.02304,0.22198 10.3125,-5.84871 19.12114,-18.45604 54.52573,-52.3933 94.21875,-90.31387 24.49219,-23.39851 53.39062,-51.006658 64.21875,-61.351427 10.82812,-10.344771 25.17187,-24.075808 31.875,-30.513416 6.70312,-6.437608 12.39844,-11.852019 12.65625,-12.032026 0.25781,-0.180006 0.67969,-4.196435 0.9375,-8.925398 l 0.46875,-8.598113 17.8125,-0.747929 c 20.38075,-0.855767 42.49798,-0.25409 43.94762,1.195552 0.54177,0.54177 1.21113,4.318891 1.48746,8.3936 l 0.50242,7.408563 93.75,77.528854 c 51.5625,42.64088 95.91201,79.27373 98.55446,81.40636 2.64245,2.13262 35.91247,29.61187 73.93337,61.065 38.0209,31.45312 71.77059,59.31523 74.99932,61.91579 l 5.87041,4.72829 26.13372,3.51849 c 14.74781,1.98555 26.63931,4.01962 27.29416,4.66873 0.92184,0.91383 0.58697,6.54095 -1.62947,27.37822 l -2.78981,26.22798 -6.33933,5.83419 c -4.02016,3.69983 -7.15866,5.84341 -8.57893,5.85938 -1.23178,0.0139 -7.30704,-0.83941 -13.50057,-1.89613 -6.19353,-1.05672 -11.575,-1.58406 -11.95882,-1.17188 -0.38382,0.41219 -3.2838,29.01507 -6.44439,63.56194 -3.1606,34.54687 -8.86709,96.77344 -12.68109,138.28125 -3.814,41.50781 -8.90154,97.19531 -11.30565,123.75 l -4.37109,48.28125 -4.73666,7.96875 c -5.36027,9.01792 -8.95515,14.09183 -9.91921,14.00022 -0.36048,-0.0342 -10.33027,-3.82394 -22.15508,-8.42153 z m 1.83605,-373.35931 c 0.98576,-14.87609 1.32044,-25.45302 0.82049,-25.93006 -0.46441,-0.44313 -12.44594,-2.74943 -26.62563,-5.12512 -14.17969,-2.37568 -26.73047,-4.5316 -27.89063,-4.79092 -1.16015,-0.25932 -2.10136,-0.14706 -2.09158,0.24949 0.01,0.39654 6.16588,8.52567 13.68019,18.06473 7.51432,9.53906 19.41466,24.71452 26.44521,33.72323 l 12.78281,16.37949 0.60713,-3.72324 c 0.33393,-2.04778 1.35633,-15.0292 2.27201,-28.8476 z M 325.18471,316.67489 c 4.19528,-6.03975 7.62779,-11.37292 7.62779,-11.85149 0,-0.47857 -0.94922,-1.09844 -2.10938,-1.37748 -4.1805,-1.00549 -17.57645,-2.82243 -17.95621,-2.43546 -0.43213,0.44031 2.1152,24.93926 2.81121,27.03693 0.56153,1.69235 0.50614,1.75778 9.62659,-11.3725 z m 445.39837,-4.06915 c -0.66495,-0.80122 -8.8377,-7.92874 -18.16167,-15.83894 -9.32396,-7.9102 -39.52297,-33.62963 -67.10891,-57.15428 -27.58594,-23.52465 -50.65923,-42.65885 -51.27397,-42.52043 -0.61476,0.13841 -18.28708,16.28291 -39.27183,35.87666 -20.98476,19.59375 -39.36069,36.6048 -40.8354,37.80232 -2.39941,1.94842 -2.6813,2.75708 -2.6813,7.69189 0,5.49123 0.0129,5.51675 3.04687,6.02811 1.67579,0.28245 49.66407,6.82079 106.64063,14.52965 56.97656,7.70886 104.64844,14.18943 105.9375,14.40128 4.85993,0.79866 5.01924,0.76359 3.70808,-0.81626 z M 492.1875,275.22918 c 0,-0.60552 -74.05912,-85.84293 -78.10751,-89.89687 -1.64392,-1.64616 -1.92833,-1.50254 -8.4375,4.26087 -3.70494,3.28046 -21.42854,18.96935 -39.38579,34.86421 -17.95725,15.89487 -32.301,29.21707 -31.875,29.60489 0.426,0.38783 10.47767,1.99736 22.33705,3.57674 31.17904,4.1523 68.03515,9.18372 100.78125,13.75818 27.84324,3.88957 34.6875,4.64566 34.6875,3.83198 z m 85.81981,-77.65106 26.89998,-26.48437 -27.77552,-23.70489 c -15.27654,-13.03769 -28.44584,-23.96213 -29.26511,-24.27651 -1.30715,-0.5016 -1.42257,0.27755 -0.94228,6.36114 0.30104,3.81302 1.04728,26.65542 1.65833,50.76088 0.61104,24.10547 1.42906,43.82813 1.81781,43.82813 0.38875,0 12.8118,-11.91797 27.60679,-26.48438 z m -89.59089,3.75 c -0.0324,-10.45002 -3.57059,-79.60728 -4.09991,-80.1366 -0.63591,-0.63593 -2.19338,0.65453 -22.87702,18.95511 -9.9011,8.76034 -18.00199,16.47013 -18.00199,17.13289 0,1.27097 43.08832,50.66447 44.29687,50.77891 0.38672,0.0367 0.69364,-2.99202 0.68205,-6.73031 z"
       id="path4152"
       inkscape:connector-curvature="0" />
    <path
       style="fill:#a5a59d"
       d="m 829.28159,788.39119 c -11.82481,-4.5976 -21.92547,-8.78507 -22.44591,-9.30551 -0.63666,-0.63666 1.73922,-39.97905 7.26188,-120.25034 4.51447,-65.61724 8.4332,-121.20525 8.70827,-123.52889 l 0.50015,-4.22479 -17.73706,-22.96271 C 717.48349,394.08202 696.22734,366.87083 694.42547,365.83793 693.28053,365.18161 661.33594,359.40842 623.4375,353.00861 516.45706,334.94312 462.19989,325.75395 420.94025,318.71299 c -35.86337,-6.12008 -38.05079,-6.38933 -39.49695,-4.86157 -1.45229,1.53424 -56.95385,76.39733 -58.2714,78.59918 -0.57388,0.95905 2.46409,30.06001 15.14848,145.10837 2.5523,23.14963 4.46118,42.55768 4.24193,43.12901 -0.21923,0.57134 -4.98291,3.46636 -10.58594,6.43339 l -10.18732,5.3946 -11.12891,-4.28625 c -6.12089,-2.35745 -11.6694,-4.81505 -12.33002,-5.46135 -0.78833,-0.77124 -7.42223,-50.85352 -19.30313,-145.72799 -9.9561,-79.50409 -18.33668,-144.78757 -18.62351,-145.0744 -0.28683,-0.28684 -4.03107,-1.1342 -8.32054,-1.88304 -4.28947,-0.74884 -8.09692,-1.67151 -8.461,-2.05036 -0.36408,-0.37886 -1.76352,-8.88664 -3.10986,-18.90619 -1.98629,-14.7821 -2.22118,-18.4293 -1.24561,-19.34124 1.71558,-1.60372 22.98003,-5.12499 27.45228,-4.54594 3.59398,0.46533 4.02304,0.22198 10.3125,-5.84871 19.12114,-18.45604 54.52573,-52.3933 94.21875,-90.31387 24.49219,-23.39851 53.39062,-51.006658 64.21875,-61.351427 10.82812,-10.344771 25.17187,-24.075808 31.875,-30.513416 6.70312,-6.437608 12.39844,-11.852019 12.65625,-12.032026 0.25781,-0.180006 0.67969,-4.196435 0.9375,-8.925398 l 0.46875,-8.598113 17.8125,-0.747929 c 20.38075,-0.855767 42.49798,-0.25409 43.94762,1.195552 0.54177,0.54177 1.21113,4.318891 1.48746,8.3936 l 0.50242,7.408563 93.75,77.528854 c 51.5625,42.64088 95.91201,79.27373 98.55446,81.40636 2.64245,2.13262 35.91247,29.61187 73.93337,61.065 38.0209,31.45312 71.77059,59.31523 74.99932,61.91579 l 5.87041,4.72829 26.13372,3.51849 c 14.74781,1.98555 26.63931,4.01962 27.29416,4.66873 0.92184,0.91383 0.58697,6.54095 -1.62947,27.37822 l -2.78981,26.22798 -6.33933,5.83419 c -4.02016,3.69983 -7.15866,5.84341 -8.57893,5.85938 -1.23178,0.0139 -7.30704,-0.83941 -13.50057,-1.89613 -6.19353,-1.05672 -11.575,-1.58406 -11.95882,-1.17188 -0.38382,0.41219 -3.2838,29.01507 -6.44439,63.56194 -3.1606,34.54687 -8.86709,96.77344 -12.68109,138.28125 -3.814,41.50781 -8.90154,97.19531 -11.30565,123.75 l -4.37109,48.28125 -4.73666,7.96875 c -5.36027,9.01792 -8.95515,14.09183 -9.91921,14.00022 -0.36048,-0.0342 -10.33027,-3.82394 -22.15508,-8.42153 z m 23.49616,-30.90194 c 1.62559,-18.29878 9.39218,-107.09863 17.25908,-197.333 9.89683,-113.51763 14.66909,-164.46059 15.49021,-165.35466 1.00437,-1.09358 3.7666,-0.84146 17.97425,1.64063 21.8544,3.81797 21.51279,3.82695 22.17173,-0.58285 1.06674,-7.13895 4.58622,-44.35011 4.22845,-44.70714 -0.20362,-0.2032 -11.54991,-1.90056 -25.21397,-3.77189 -13.66406,-1.87133 -25.71784,-3.76199 -26.78617,-4.20146 -1.56855,-0.64525 -141.36286,-116.7441 -328.48376,-272.805017 -15.18752,-12.666562 -28.26564,-23.522698 -29.0625,-24.124745 -0.98406,-0.743496 -1.59919,-3.29972 -1.91757,-7.96875 l -0.46875,-6.874118 -3.94401,-0.286307 -3.944,-0.286306 -0.27475,7.317556 -0.27474,7.317557 -6.36932,0.46875 c -9.31325,0.685408 -9.48695,0.554062 -10.03693,-7.590021 l -0.46875,-6.941229 -3.75,0 -3.75,0 -0.11269,6.09375 c -0.062,3.351562 -0.16745,6.589875 -0.23437,7.196249 -0.0669,0.606374 -29.12207,28.871999 -64.56698,62.812501 -35.4449,33.9405 -83.98856,80.48344 -107.87478,103.42875 -23.88623,22.94531 -44.44699,42.53256 -45.6906,43.52722 -2.14825,1.7182 -2.77826,1.74696 -12.62326,0.57617 -5.69921,-0.67775 -10.58372,-1.01073 -10.85451,-0.73996 -0.40753,0.40755 3.14837,29.86246 3.66712,30.37613 0.0907,0.0899 3.73875,0.84099 8.1066,1.6691 4.36784,0.8281 8.34415,1.90827 8.83624,2.40036 0.65239,0.65239 36.8101,283.61332 37.08643,290.22888 0.0462,1.10691 16.97393,8.15523 17.74183,7.38731 0.26239,-0.26238 -0.88947,-12.17242 -2.55966,-26.46676 -1.6702,-14.29433 -6.37845,-54.6772 -10.46278,-89.7397 -4.08434,-35.0625 -7.64976,-65.29092 -7.92317,-67.17427 -0.47624,-3.28051 0.92213,-5.38616 33.30903,-50.15625 19.58454,-27.07273 34.5068,-46.84975 35.47169,-47.01193 0.91605,-0.15397 20.18998,2.88718 42.83095,6.7581 22.64098,3.87094 58.67322,9.99 80.07166,13.59793 21.39844,3.60794 47.55469,8.03373 58.125,9.83512 18.47328,3.1482 70.027,11.86961 123.28125,20.85564 13.92187,2.34915 25.81575,4.75482 26.43084,5.34593 0.61509,0.5911 30.0309,38.41067 65.36849,84.04348 57.49518,74.24582 64.25246,83.32305 64.27228,86.33872 0.0203,3.0982 -12.20502,181.1735 -15.40861,224.44253 -1.1447,15.46067 -1.17218,18.89739 -0.15666,19.59019 2.34205,1.59777 35.74866,14.46019 37.1391,14.29953 1.14346,-0.13212 1.92914,-6.16904 4.35106,-33.43172 z m -44.7068,-299.19669 c -25.31648,-32.48058 -41.03202,-52.61872 -55.09136,-70.59498 -6.35342,-8.12346 -11.7761,-15.35478 -12.0504,-16.0696 -0.2743,-0.71482 0.14761,-1.5477 0.93758,-1.85084 0.78997,-0.30314 10.22046,0.93234 20.95665,2.74553 10.73618,1.81317 31.11692,5.26065 45.29054,7.66105 14.17362,2.40039 26.55933,4.78669 27.52381,5.30286 1.55155,0.83036 1.6877,1.71162 1.18159,7.64784 -0.3146,3.69013 -1.63195,22.52964 -2.92744,41.86558 -2.94063,43.89105 -3.30643,47.24227 -5.19597,47.60228 -0.95255,0.1815 -8.12374,-8.27085 -20.625,-24.30972 z m 23.04669,-43.26068 c 0.98576,-14.87609 1.32044,-25.45302 0.82049,-25.93006 -0.46441,-0.44313 -12.44594,-2.74943 -26.62563,-5.12512 -14.17969,-2.37568 -26.73047,-4.5316 -27.89063,-4.79092 -1.16015,-0.25932 -2.10136,-0.14706 -2.09158,0.24949 0.01,0.39654 6.16588,8.52567 13.68019,18.06473 7.51432,9.53906 19.41466,24.71452 26.44521,33.72323 l 12.78281,16.37949 0.60713,-3.72324 c 0.33393,-2.04778 1.35633,-15.0292 2.27201,-28.8476 z M 293.07423,362.16326 c -1.27532,-6.26324 -8.07183,-67.97118 -7.57491,-68.77522 0.89974,-1.45581 5.39122,-0.97624 29.50068,3.14985 20.71582,3.54529 22.99516,4.11508 23.23803,5.80903 0.36499,2.54572 -40.48636,61.76544 -42.87971,62.16009 -1.26766,0.20904 -1.89548,-0.43518 -2.28409,-2.34375 z m 32.11048,-45.48837 c 4.19528,-6.03975 7.62779,-11.37292 7.62779,-11.85149 0,-0.47857 -0.94922,-1.09844 -2.10938,-1.37748 -4.1805,-1.00549 -17.57645,-2.82243 -17.95621,-2.43546 -0.43213,0.44031 2.1152,24.93926 2.81121,27.03693 0.56153,1.69235 0.50614,1.75778 9.62659,-11.3725 z M 785.625,330.40635 c -0.77344,-0.1725 -58.71983,-8.42432 -128.76977,-18.33735 -87.46234,-12.37714 -127.7734,-18.4336 -128.67187,-19.33208 -0.8773,-0.87729 -1.30836,-3.53324 -1.30836,-8.0613 l 0,-6.75297 48.41853,-45.91444 c 26.63019,-25.25295 49.00061,-46.25801 49.71204,-46.6779 0.8005,-0.47247 2.14452,-0.11515 3.52631,0.9375 3.79263,2.88922 159.21878,135.38977 162.95249,138.91675 4.67389,4.4151 4.56042,5.78146 -0.46875,5.64419 -2.1914,-0.0598 -4.61718,-0.24989 -5.39062,-0.4224 z m -15.04192,-17.80061 c -0.66495,-0.80122 -8.8377,-7.92874 -18.16167,-15.83894 -9.32396,-7.9102 -39.52297,-33.62963 -67.10891,-57.15428 -27.58594,-23.52465 -50.65923,-42.65885 -51.27397,-42.52043 -0.61476,0.13841 -18.28708,16.28291 -39.27183,35.87666 -20.98476,19.59375 -39.36069,36.6048 -40.8354,37.80232 -2.39941,1.94842 -2.6813,2.75708 -2.6813,7.69189 0,5.49123 0.0129,5.51675 3.04687,6.02811 1.67579,0.28245 49.66407,6.82079 106.64063,14.52965 56.97656,7.70886 104.64844,14.18943 105.9375,14.40128 4.85993,0.79866 5.01924,0.76359 3.70808,-0.81626 z m -373.0445,-37.13519 c -50.25221,-7.18628 -91.90695,-13.51352 -92.56607,-14.06053 -0.65912,-0.54703 -0.88742,-1.5128 -0.50733,-2.14618 1.81896,-3.03107 98.89802,-89.66599 100.18146,-89.40354 0.79596,0.16277 21.63255,23.46312 46.30352,51.77856 l 44.85631,51.48259 0.6372,6.79976 c 0.35045,3.73986 0.35504,7.25629 0.0102,7.81427 -0.34485,0.55799 -2.18414,0.96648 -4.0873,0.90778 -1.90316,-0.0587 -44.57574,-5.98643 -94.82796,-13.17271 z m 94.64892,-0.24137 c 0,-0.60552 -74.05912,-85.84293 -78.10751,-89.89687 -1.64392,-1.64616 -1.92833,-1.50254 -8.4375,4.26087 -3.70494,3.28046 -21.42854,18.96935 -39.38579,34.86421 -17.95725,15.89487 -32.301,29.21707 -31.875,29.60489 0.426,0.38783 10.47767,1.99736 22.33705,3.57674 31.17904,4.1523 68.03515,9.18372 100.78125,13.75818 27.84324,3.88957 34.6875,4.64566 34.6875,3.83198 z m 34.21966,-24.9152 c -0.73566,-1.19032 -6.18739,-151.905486 -5.53308,-152.964186 0.26762,-0.433013 0.87543,-0.787294 1.3507,-0.787294 1.82936,0 87.15022,72.92552 87.15022,74.4891 0,1.3714 -80.04641,80.1984 -81.43902,80.1984 -0.52268,0 -1.21064,-0.42121 -1.52882,-0.93602 z m 51.60015,-52.73586 26.89998,-26.48437 -27.77552,-23.70489 c -15.27654,-13.03769 -28.44584,-23.96213 -29.26511,-24.27651 -1.30715,-0.5016 -1.42257,0.27755 -0.94228,6.36114 0.30104,3.81302 1.04728,26.65542 1.65833,50.76088 0.61104,24.10547 1.42906,43.82813 1.81781,43.82813 0.38875,0 12.8118,-11.91797 27.60679,-26.48438 z m -90.03856,45.4472 c -1.54688,-1.87099 -18.54664,-21.29523 -37.77726,-43.16496 -31.76561,-36.12497 -34.8536,-39.92664 -33.75,-41.55001 0.66812,-0.98278 16.17607,-15.27809 34.46212,-31.76736 27.843,-25.10716 36.02954,-31.747668 36.67157,-29.746115 0.40479,1.261959 7.13333,148.538265 6.81015,149.062495 -0.98276,1.59408 -3.77528,0.3607 -6.41658,-2.83405 z m 0.44767,-41.6972 c -0.0324,-10.45002 -3.57059,-79.60728 -4.09991,-80.1366 -0.63591,-0.63593 -2.19338,0.65453 -22.87702,18.95511 -9.9011,8.76034 -18.00199,16.47013 -18.00199,17.13289 0,1.27097 43.08832,50.66447 44.29687,50.77891 0.38672,0.0367 0.69364,-2.99202 0.68205,-6.73031 z"
       id="path4150"
       inkscape:connector-curvature="0" />
    <path
       style="fill:#959553"
       d="m 828.79969,786.95096 c -11.05861,-4.33556 -20.48044,-8.25671 -20.93739,-8.71366 -0.48276,-0.48276 -0.002,-12.56103 1.1475,-28.83093 1.08808,-15.40007 2.81245,-40.02356 3.83192,-54.71887 2.72768,-39.31834 3.5755,-51.45883 4.64832,-66.5625 0.53107,-7.47656 1.80619,-25.82813 2.83361,-40.78125 1.02741,-14.95313 2.34124,-33.83128 2.91962,-41.95145 0.67099,-9.42045 0.72721,-15.1887 0.15533,-15.9375 -2.91434,-3.81598 -52.69561,-68.211 -70.12033,-90.7048 -11.38366,-14.69531 -28.66074,-37.05469 -38.3935,-49.6875 -9.73277,-12.63281 -17.99683,-23.31854 -18.36456,-23.74607 -1.03898,-1.20792 -3.24862,-1.61008 -83.39521,-15.17828 -41.50781,-7.02696 -84.96094,-14.40266 -96.5625,-16.39043 C 466.48237,325.16713 383.71915,311.25 382.77176,311.25 c -0.5676,0 -4.99848,5.37891 -9.84639,11.95312 -4.84791,6.57422 -18.44274,24.9507 -30.21072,40.83663 l -21.39634,28.88352 2.9534,26.89773 c 1.62437,14.79376 6.10884,55.58525 9.96549,90.64775 3.85664,35.0625 7.00926,65.22656 7.0058,67.03125 -0.006,3.18206 -0.27998,3.43003 -9.06036,8.20312 -4.97975,2.70704 -9.81983,4.92188 -10.75577,4.92188 -2.189,0 -20.60042,-7.28368 -22.08891,-8.73852 -0.94594,-0.92456 -15.81491,-116.35937 -34.21946,-265.66198 -1.60135,-12.99059 -3.19668,-24.08061 -3.54517,-24.64448 -0.34849,-0.56387 -4.32708,-1.7034 -8.84131,-2.5323 -4.51423,-0.82889 -8.36532,-1.97326 -8.55799,-2.54302 -0.19265,-0.56978 -1.36655,-8.6297 -2.60863,-17.91095 -1.66715,-12.45749 -1.98357,-17.15239 -1.20874,-17.93463 1.41027,-1.42375 18.3727,-4.40165 25.58971,-4.49249 l 5.79013,-0.0728 61.69989,-59.0625 C 461.85603,64.100961 481.87733,44.784324 481.95997,43.735097 c 0.0467,-0.593366 0.15221,-4.24291 0.23438,-8.110097 l 0.1494,-7.03125 19.58197,-0.651691 c 10.77008,-0.35843 24.27008,-0.35843 30,0 l 10.41803,0.651691 0.66718,7.360628 c 0.36695,4.048346 1.1859,7.985657 1.8199,8.749582 0.63401,0.763925 12.56815,10.800711 26.52033,22.303969 29.01716,23.923998 136.70119,112.887751 151.46134,125.130621 5.41406,4.49072 27.14062,22.44087 48.28125,39.88921 21.14062,17.44835 41.8125,34.54026 45.9375,37.98201 28.88023,24.09665 74.07096,61.16121 74.91619,61.44481 0.56172,0.18847 12.41194,1.87426 26.33381,3.74619 13.92187,1.87193 25.78031,3.89333 26.35209,4.492 0.76285,0.79874 0.31538,7.82174 -1.68112,26.38364 -3.02616,28.1353 -2.25788,25.86991 -11.37,33.5289 l -4.51152,3.79208 -13.07375,-2.19155 c -8.17585,-1.37052 -13.40178,-1.86057 -13.94937,-1.30807 -0.4816,0.48591 -1.52889,8.05535 -2.32732,16.82098 -0.79843,8.76562 -5.44954,59.39062 -10.3358,112.5 -4.88627,53.10937 -10.39431,113.01562 -12.24009,133.125 -1.84579,20.10937 -4.93072,53.68116 -6.85543,74.60395 l -3.49946,38.04146 -6.06661,10.00275 c -4.56893,7.53331 -6.52951,9.98289 -7.94162,9.92232 -1.03125,-0.0442 -10.92295,-3.62771 -21.98156,-7.96327 z m 23.97806,-29.46171 c 1.62559,-18.29878 9.39218,-107.09863 17.25908,-197.333 9.89683,-113.51763 14.66909,-164.46059 15.49021,-165.35466 1.00437,-1.09358 3.7666,-0.84146 17.97425,1.64063 21.8544,3.81797 21.51279,3.82695 22.17173,-0.58285 1.06674,-7.13895 4.58622,-44.35011 4.22845,-44.70714 -0.20362,-0.2032 -11.54991,-1.90056 -25.21397,-3.77189 -13.66406,-1.87133 -25.71784,-3.76199 -26.78617,-4.20146 -1.56855,-0.64525 -141.36286,-116.7441 -328.48376,-272.805017 -15.18752,-12.666562 -28.26564,-23.522698 -29.0625,-24.124745 -0.98406,-0.743496 -1.59919,-3.29972 -1.91757,-7.96875 l -0.46875,-6.874118 -3.94401,-0.286307 -3.944,-0.286306 -0.27475,7.317556 -0.27474,7.317557 -6.36932,0.46875 c -9.31325,0.685408 -9.48695,0.554062 -10.03693,-7.590021 l -0.46875,-6.941229 -3.75,0 -3.75,0 -0.11269,6.09375 c -0.062,3.351562 -0.16745,6.589875 -0.23437,7.196249 C 484.7023,45.664641 438.39691,90.263878 322.5,201.02502 c -18.30469,17.49355 -38.59094,37.00531 -45.08056,43.35946 -13.34605,13.06747 -12.14089,12.60009 -26.44684,10.25623 -4.01975,-0.65859 -7.51908,-0.85695 -7.77628,-0.44079 -0.38633,0.6251 3.14576,29.95819 3.66985,30.47714 0.0907,0.0899 3.73876,0.84099 8.1066,1.6691 4.36785,0.8281 8.34416,1.90827 8.83625,2.40036 0.65239,0.65239 36.8101,283.61332 37.08643,290.22888 0.0462,1.10691 16.97393,8.15523 17.74183,7.38731 0.26239,-0.26238 -0.88947,-12.17242 -2.55966,-26.46676 -1.6702,-14.29433 -6.37845,-54.6772 -10.46278,-89.7397 -4.08434,-35.0625 -7.64976,-65.29092 -7.92317,-67.17427 -0.47624,-3.28051 0.92213,-5.38616 33.30903,-50.15625 19.58454,-27.07273 34.5068,-46.84975 35.47169,-47.01193 0.91605,-0.15397 20.18998,2.88718 42.83095,6.7581 22.64098,3.87094 58.67322,9.99 80.07166,13.59793 21.39844,3.60794 47.55469,8.03373 58.125,9.83512 18.47328,3.1482 70.027,11.86961 123.28125,20.85564 13.92187,2.34915 25.81575,4.75482 26.43084,5.34593 0.61509,0.5911 30.0309,38.41067 65.36849,84.04348 57.49518,74.24582 64.25246,83.32305 64.27228,86.33872 0.0203,3.0982 -12.20502,181.1735 -15.40861,224.44253 -1.1447,15.46067 -1.17218,18.89739 -0.15666,19.59019 2.34205,1.59777 35.74866,14.46019 37.1391,14.29953 1.14346,-0.13212 1.92914,-6.16904 4.35106,-33.43172 z m -44.7068,-299.19669 c -25.31648,-32.48058 -41.03202,-52.61872 -55.09136,-70.59498 -6.35342,-8.12346 -11.7761,-15.35478 -12.0504,-16.0696 -0.2743,-0.71482 0.14761,-1.5477 0.93758,-1.85084 0.78997,-0.30314 10.22046,0.93234 20.95665,2.74553 10.73618,1.81317 31.11692,5.26065 45.29054,7.66105 14.17362,2.40039 26.55933,4.78669 27.52381,5.30286 1.55155,0.83036 1.6877,1.71162 1.18159,7.64784 -0.3146,3.69013 -1.63195,22.52964 -2.92744,41.86558 -2.94063,43.89105 -3.30643,47.24227 -5.19597,47.60228 -0.95255,0.1815 -8.12374,-8.27085 -20.625,-24.30972 z m 21.99506,-12.27694 c 0.2549,-1.67578 1.13508,-14.01562 1.95596,-27.42187 0.82087,-13.40625 1.66821,-25.49836 1.88298,-26.87136 0.21476,-1.37299 -0.13945,-2.93614 -0.78713,-3.47367 -1.03714,-0.86076 -54.452,-10.43622 -58.21644,-10.43622 -0.80514,0 -1.46388,0.39183 -1.46388,0.87073 0,0.4789 7.07645,9.86561 15.72543,20.85938 8.64899,10.99375 16.55915,21.09436 17.57812,22.44579 8.30601,11.01592 21.38089,27.0741 22.04428,27.0741 0.44946,0 1.02577,-1.37109 1.28068,-3.04688 z M 293.07423,362.16326 c -1.27532,-6.26324 -8.07183,-67.97118 -7.57491,-68.77522 0.89974,-1.45581 5.39122,-0.97624 29.50068,3.14985 20.71582,3.54529 22.99516,4.11508 23.23803,5.80903 0.36499,2.54572 -40.48636,61.76544 -42.87971,62.16009 -1.26766,0.20904 -1.89548,-0.43518 -2.28409,-2.34375 z m 32.63657,-44.43994 c 6.38096,-9.19175 8.87503,-13.51249 8.19332,-14.1942 -1.35744,-1.35744 -21.0138,-4.60694 -21.9861,-3.63465 -0.43421,0.43422 -0.10274,7.06919 0.7366,14.74438 1.6505,15.09268 1.87874,16.29865 3.08468,16.29865 0.43898,0 4.92615,-5.94638 9.9715,-13.21418 z m 459.9142,12.68303 c -0.77344,-0.1725 -58.71983,-8.42432 -128.76977,-18.33735 -87.46234,-12.37714 -127.7734,-18.4336 -128.67187,-19.33208 -0.8773,-0.87729 -1.30836,-3.53324 -1.30836,-8.0613 l 0,-6.75297 48.41853,-45.91444 c 26.63019,-25.25295 49.00061,-46.25801 49.71204,-46.6779 0.8005,-0.47247 2.14452,-0.11515 3.52631,0.9375 3.79263,2.88922 159.21878,135.38977 162.95249,138.91675 4.67389,4.4151 4.56042,5.78146 -0.46875,5.64419 -2.1914,-0.0598 -4.61718,-0.24989 -5.39062,-0.4224 z M 773.20756,313.82812 C 772.77973,312.52988 638.58538,197.7849 634.94972,195.60858 c -0.73221,-0.4383 -16.17198,13.35195 -42.89063,38.30835 l -41.74659,38.99316 0,5.59631 c 0,4.92482 0.2531,5.69905 2.10937,6.4527 1.16016,0.47102 9.07032,1.76811 17.57813,2.88242 8.50781,1.11431 56.39062,7.63947 106.40625,14.50036 50.01562,6.86089 92.34375,12.5157 94.0625,12.56624 2.11005,0.0621 2.99958,-0.28873 2.73881,-1.08 z M 397.53858,275.47055 c -50.25221,-7.18628 -91.90695,-13.51352 -92.56607,-14.06053 -0.65912,-0.54703 -0.88742,-1.5128 -0.50733,-2.14618 1.81896,-3.03107 98.89802,-89.66599 100.18146,-89.40354 0.79596,0.16277 21.63255,23.46312 46.30352,51.77856 l 44.85631,51.48259 0.6372,6.79976 c 0.35045,3.73986 0.35504,7.25629 0.0102,7.81427 -0.34485,0.55799 -2.18414,0.96648 -4.0873,0.90778 -1.90316,-0.0587 -44.57574,-5.98643 -94.82796,-13.17271 z m 95.58642,-0.23471 c 0,-2.21306 -79.66885,-92.6311 -81.1261,-92.0719 -2.4452,0.93831 -80.17099,70.28855 -79.85153,71.24692 0.17608,0.52825 16.53449,3.17408 36.35201,5.87964 65.86891,8.99264 71.51309,9.76825 94.15687,12.93882 25.91964,3.62926 30.46875,3.92885 30.46875,2.00652 z m 33.28216,-24.92186 c -0.73566,-1.19032 -6.18739,-151.905486 -5.53308,-152.964186 0.26762,-0.433013 0.87543,-0.787294 1.3507,-0.787294 1.82936,0 87.15022,72.92552 87.15022,74.4891 0,1.3714 -80.04641,80.1984 -81.43902,80.1984 -0.52268,0 -1.21064,-0.42121 -1.52882,-0.93602 z m 51.87872,-51.21869 c 15.08598,-14.76322 27.30335,-27.37261 27.14971,-28.02087 -0.15364,-0.64826 -8.08403,-7.8432 -17.62309,-15.98875 -9.53906,-8.14555 -22.39906,-19.16115 -28.57778,-24.47912 -6.17872,-5.31798 -11.76856,-9.66905 -12.42187,-9.66905 -1.44047,0 -1.45676,-3.63609 0.2184,48.75 0.75022,23.46094 1.37353,45.71484 1.38514,49.45312 0.0153,4.91483 0.35606,6.79688 1.23077,6.79688 0.66531,0 13.55273,-12.07899 28.63872,-26.84221 z m -90.31713,43.93003 c -1.54688,-1.87099 -18.54664,-21.29523 -37.77726,-43.16496 -31.76561,-36.12497 -34.8536,-39.92664 -33.75,-41.55001 0.66812,-0.98278 16.17607,-15.27809 34.46212,-31.76736 27.843,-25.10716 36.02954,-31.747668 36.67157,-29.746115 0.40479,1.261959 7.13333,148.538265 6.81015,149.062495 -0.98276,1.59408 -3.77528,0.3607 -6.41658,-2.83405 z m 0.37751,-75.68789 c -1.99777,-44.70183 -2.27349,-48.27493 -3.72514,-48.27493 -0.86922,0 -40.87889,34.97101 -42.34114,37.00885 -1.06539,1.48477 -1.05931,1.49482 5.14921,8.50667 3.21863,3.6351 13.80916,15.59051 23.5345,26.56756 9.72534,10.97706 18.03912,19.60161 18.47507,19.16566 0.43596,-0.43596 -0.0557,-19.77416 -1.0925,-42.97381 z"
       id="path4148"
       inkscape:connector-curvature="0" />
    <path
       style="fill:#807e59"
       d="m 828.79969,786.95096 c -11.05861,-4.33556 -20.48044,-8.25671 -20.93739,-8.71366 -0.48276,-0.48276 -0.002,-12.56103 1.1475,-28.83093 1.08808,-15.40007 2.81245,-40.02356 3.83192,-54.71887 2.72768,-39.31834 3.5755,-51.45883 4.64832,-66.5625 0.53107,-7.47656 1.80619,-25.82813 2.83361,-40.78125 1.02741,-14.95313 2.34124,-33.83128 2.91962,-41.95145 0.67447,-9.46936 0.72859,-15.18481 0.15091,-15.9375 -0.49538,-0.64546 -11.65373,-15.09543 -24.79633,-32.11105 C 726.29052,403.72802 696.22074,365.08788 695.22475,364.50766 694.6124,364.15094 652.79179,356.85762 602.29007,348.3003 551.78834,339.74298 503.29687,331.50877 494.53125,330.00204 456.29246,323.42918 383.70202,311.25 382.7652,311.25 c -0.564,0 -4.99192,5.37891 -9.83983,11.95312 -4.84791,6.57422 -18.44274,24.9507 -30.21072,40.83663 l -21.39634,28.88352 2.9534,26.89773 c 1.62437,14.79376 6.10884,55.58525 9.96549,90.64775 3.85664,35.0625 7.00926,65.22656 7.0058,67.03125 -0.006,3.18206 -0.27998,3.43003 -9.06036,8.20312 -4.97975,2.70704 -9.74669,4.92188 -10.59322,4.92188 -2.12145,0 -20.85698,-7.34698 -22.25146,-8.72573 -0.9453,-0.93464 -15.83727,-116.55359 -34.21946,-265.67477 -1.60135,-12.99059 -3.19668,-24.08061 -3.54517,-24.64448 -0.34849,-0.56387 -4.32708,-1.7034 -8.84131,-2.5323 -4.51423,-0.82889 -8.36532,-1.97326 -8.55799,-2.54302 -0.19265,-0.56978 -1.36655,-8.6297 -2.60863,-17.91095 -1.66715,-12.45749 -1.98357,-17.15239 -1.20874,-17.93463 1.41027,-1.42375 18.3727,-4.40165 25.58971,-4.49249 l 5.79013,-0.0728 61.69819,-59.0625 C 465.16218,60.931051 481.87774,44.8055 481.95997,43.74848 c 0.0467,-0.600727 0.15221,-4.256293 0.23438,-8.12348 l 0.1494,-7.03125 19.58197,-0.651691 c 10.77008,-0.35843 24.27008,-0.35843 30,0 l 10.41803,0.651691 0.66718,7.360628 c 0.36695,4.048346 1.1859,7.985657 1.8199,8.749582 0.63401,0.763925 12.56815,10.800711 26.52033,22.303969 31.472,25.947966 138.12117,114.062611 151.46134,125.138931 57.13061,47.43544 168.37107,139.05303 169.1537,139.31492 0.5514,0.18451 12.39317,1.86706 26.31505,3.73899 13.92187,1.87193 25.78031,3.89333 26.35209,4.492 0.76285,0.79874 0.31538,7.82174 -1.68112,26.38364 -3.02522,28.12706 -2.26247,25.87363 -11.34154,33.50507 l -4.48308,3.76826 -13.09842,-2.1715 c -8.23091,-1.36456 -13.42521,-1.84179 -13.97782,-1.28425 -0.48368,0.488 -1.53267,8.05913 -2.3311,16.82476 -0.79843,8.76562 -5.44954,59.39062 -10.3358,112.5 -4.88627,53.10937 -10.39431,113.01562 -12.24009,133.125 -1.84579,20.10937 -4.93072,53.68116 -6.85543,74.60395 l -3.49946,38.04146 -6.06661,10.00275 c -4.56893,7.53331 -6.52951,9.98289 -7.94162,9.92232 -1.03125,-0.0442 -10.92295,-3.62771 -21.98156,-7.96327 z m 21.92625,3.12716 c 0.24704,-1.16015 0.88088,-7.59375 1.40854,-14.29687 0.85662,-10.88198 6.14179,-71.72933 11.27819,-129.84375 1.02539,-11.60156 2.92733,-33.11719 4.22655,-47.8125 4.41589,-49.94811 12.72139,-144.80521 13.54411,-154.6875 3.20469,-38.49345 4.27601,-48.04761 5.43761,-48.49336 0.67287,-0.25821 8.58885,0.84405 17.59106,2.44944 9.00221,1.60541 17.58913,2.91892 19.08205,2.91892 2.53362,0 2.75217,-0.29658 3.28162,-4.45313 1.6741,-13.14295 4.44727,-43.65947 4.05938,-44.6703 -0.29508,-0.76897 -9.27099,-2.40148 -26.08933,-4.74502 -14.1017,-1.965 -26.48322,-4.09249 -27.51447,-4.72776 C 875.41254,340.71915 528.93388,52.47875 521.95312,46.321882 519.6879,44.324003 519.375,43.375536 519.375,38.506943 519.375,30.527105 519.0227,30 513.68914,30 l -4.54777,0 -0.27381,7.265625 -0.27381,7.265625 -5.92153,0.471232 c -8.03674,0.639561 -8.60972,0.180843 -8.60972,-6.892816 C 494.0625,31.468033 493.11594,30 488.83354,30 c -4.2921,0 -5.25389,1.726264 -4.93373,8.855332 l 0.27692,6.166302 -5.13524,5.013915 C 476.21711,52.793202 428.97656,97.993013 374.0625,150.47957 319.14844,202.96613 272.02439,248.02583 269.34239,250.61224 l -4.87636,4.70256 -10.83043,-1.24748 c -5.95674,-0.68611 -11.0853,-0.99263 -11.39679,-0.68113 -0.70544,0.70544 3.21375,30.88392 4.12698,31.77855 0.366,0.35854 4.15587,1.25153 8.42193,1.98442 4.26606,0.73289 8.02363,1.59969 8.35016,1.92622 0.32654,0.32653 5.57704,40.35956 11.66779,88.96228 6.09075,48.60273 14.27533,113.89203 18.18795,145.08734 3.91262,31.19531 7.40608,57.00143 7.76324,57.34694 1.33871,1.29501 18.10055,7.54565 18.6802,6.96601 0.33241,-0.33243 -0.12699,-7.02867 -1.02091,-14.88055 -4.0182,-35.29427 -19.39914,-166.48734 -19.86989,-169.48189 -0.48023,-3.05488 0.20505,-4.33608 8.27383,-15.46875 4.83858,-6.67591 18.8497,-26.05988 31.13584,-43.07551 30.19783,-41.82235 27.204,-38.27496 31.81441,-37.69707 3.40423,0.42669 23.70668,3.85296 140.22966,23.66538 52.50949,8.92819 90.06356,15.28774 130.3125,22.0676 58.05063,9.77853 54.76411,9.09417 57.45965,11.96505 1.29051,1.37447 29.3641,37.40166 62.38574,80.06042 33.02163,42.65876 61.40541,79.26128 63.07506,81.33893 l 3.03572,3.77754 -1.61584,24.59858 c -0.88872,13.52921 -2.02302,30.08294 -2.52067,36.78607 -1.2782,17.21656 -6.03352,85.4517 -8.85282,127.03125 -1.31108,19.33594 -2.76476,40.21875 -3.23042,46.40625 -0.62823,8.34765 -0.56236,11.54043 0.25534,12.37577 1.28977,1.31759 35.95865,15.04558 38.34976,15.18551 0.96781,0.0566 1.80404,-0.75636 2.07192,-2.0144 z M 815.94518,467.07546 c -18.56259,-23.99063 -69.73709,-89.50809 -72.20672,-92.44453 -1.4598,-1.7357 -1.95698,-3.03741 -1.38037,-3.61402 0.57661,-0.57661 10.30364,0.68647 27.00594,3.50676 14.35759,2.42439 34.75316,5.86171 45.32347,7.6385 10.57031,1.77679 19.75118,3.75999 20.40194,4.40711 1.2005,1.19378 0.91308,6.55465 -4.00877,74.77139 -0.76624,10.62017 -1.39317,19.58502 -1.39317,19.92187 0,2.55393 -3.92148,-1.49447 -13.74232,-14.18708 z m 11.25984,2.37766 c 0.32515,-2.70703 0.59485,-7.49263 0.59933,-10.63466 0.009,-6.4713 2.05294,-3.42822 -28.0433,-41.75643 -7.43612,-9.47006 -16.2955,-20.76331 -19.6875,-25.09613 -11.0734,-14.14471 -10.86508,-13.97671 -19.2923,-15.55814 -8.84927,-1.66064 -11.99706,-1.77393 -11.54424,-0.4155 0.48192,1.44578 76.12563,98.30836 76.80428,98.3487 0.3149,0.0188 0.83858,-2.1808 1.16373,-4.88783 z m 2.86099,-23.4375 c 0.2549,-1.67578 1.13508,-14.01562 1.95596,-27.42187 0.82087,-13.40625 1.66821,-25.49836 1.88298,-26.87136 0.21476,-1.37299 -0.13945,-2.93614 -0.78713,-3.47367 -1.03714,-0.86076 -54.452,-10.43622 -58.21644,-10.43622 -0.80514,0 -1.46388,0.3879 -1.46388,0.86199 0,0.4741 7.07036,9.86082 15.71191,20.85938 8.64156,10.99856 16.55171,21.1139 17.57812,22.47853 7.91679,10.52544 21.39179,27.0501 22.05795,27.0501 0.44939,0 1.02562,-1.37109 1.28053,-3.04688 z M 293.97066,362.65609 c -0.3549,-1.09436 -8.04985,-66.68731 -8.0378,-68.51547 0.008,-1.29645 5.98731,-0.72055 22.50464,2.16776 9.02344,1.57788 18.90667,3.28616 21.96275,3.79618 6.12906,1.02287 7.09975,1.41409 7.09975,2.86143 0,1.83969 -40.33962,60.0118 -41.99891,60.5649 -0.61881,0.20627 -1.3075,-0.1874 -1.53043,-0.8748 z m 10.60489,-18.50454 c 4.54766,-6.63976 5.73986,-9.12056 5.75099,-11.96699 0.0155,-3.95612 -2.90218,-30.5519 -3.41807,-31.15746 -0.40558,-0.47606 -12.41496,-2.82116 -14.68532,-2.86764 -1.37179,-0.0281 -1.5988,0.52911 -1.22728,3.01241 0.48687,3.25439 1.55211,12.24458 3.86019,32.57813 1.96161,17.2814 2.38042,19.76788 3.24007,19.23659 0.40836,-0.25237 3.3241,-4.22814 6.47942,-8.83504 z m 21.13525,-26.42823 c 6.38096,-9.19175 8.87503,-13.51249 8.19332,-14.1942 -1.35744,-1.35744 -21.0138,-4.60694 -21.9861,-3.63465 -0.43421,0.43422 -0.10274,7.06919 0.7366,14.74438 1.6505,15.09268 1.87874,16.29865 3.08468,16.29865 0.43898,0 4.92615,-5.94638 9.9715,-13.21418 z m 421.94545,6.52746 C 726.51562,321.199 668.93447,312.98565 619.69812,305.99889 570.46178,299.01213 529.64538,292.85407 528.995,292.3143 c -0.75374,-0.62555 -1.1825,-3.45897 -1.1825,-7.8145 0,-6.55944 0.12203,-6.93558 3.04687,-9.39119 1.67579,-1.40694 10.42969,-9.58503 19.45313,-18.17354 9.02344,-8.5885 25.47656,-24.21678 36.5625,-34.7295 11.08594,-10.51274 24.26762,-23.04402 29.29263,-27.84731 5.02501,-4.8033 9.45469,-8.7257 9.84375,-8.71647 0.38905,0.009 7.87924,6.17513 16.64487,13.70199 8.76562,7.52685 26.48437,22.65797 39.375,33.62471 12.89062,10.96674 39.4714,33.59382 59.0684,50.28239 19.597,16.68858 39.53059,33.64104 44.29687,37.67213 4.76629,4.03109 8.66598,7.7225 8.66598,8.20313 0,1.54137 -7.18344,0.78668 -46.40625,-4.87536 z m 25.78125,-10.13667 c 0,-1.00821 -1.9076,-2.66346 -63.28125,-54.90999 -24.75,-21.06933 -51.4662,-43.81813 -59.36933,-50.55287 -7.90314,-6.73475 -14.95916,-12.57656 -15.68005,-12.98179 -0.93396,-0.52501 -13.30894,10.47008 -43.05254,38.25191 l -41.74183,38.98872 0,5.59631 c 0,4.92482 0.2531,5.69905 2.10937,6.4527 1.16016,0.47102 9.07032,1.76811 17.57813,2.88242 8.50781,1.11431 56.39062,7.63947 106.40625,14.50036 50.01562,6.86089 92.30859,12.5157 93.98437,12.56624 1.67579,0.0505 3.04688,-0.30677 3.04688,-0.79401 z M 538.99594,285.8176 c 7.00511,-2.21255 7.56656,-2.58694 7.56656,-5.04568 0,-3.29004 -1.50132,-3.59428 -8.00222,-1.62162 -5.19115,1.57522 -5.61257,1.91254 -5.8853,4.71071 -0.33343,3.42075 0.68612,3.73634 6.32096,1.95659 z m -68.83969,-0.94936 C 447.89775,281.61055 306.76661,261.5625 306.0922,261.5625 c -2.60499,0 3.09549,-5.91354 23.20467,-24.07197 13.01954,-11.75652 34.95724,-31.61076 48.75045,-44.12051 13.79322,-12.50976 25.64479,-22.74502 26.33683,-22.74502 0.69204,0 3.48154,2.63672 6.19891,5.85937 5.31687,6.30555 34.82228,40.22276 65.37928,75.15511 l 18.93109,21.64177 0.6293,5.84122 c 0.34613,3.21266 0.38335,6.48219 0.0827,7.26562 -0.72795,1.89699 -3.05124,1.75824 -25.4492,-1.51985 z m 22.96875,-9.58 c 0,-0.70085 -1.61078,-3.12663 -3.57953,-5.39062 -20.9427,-24.08358 -70.52968,-80.85179 -73.05318,-83.63281 -1.80534,-1.98958 -3.81043,-3.36295 -4.51508,-3.09255 -2.43073,0.93276 -80.14748,70.28567 -79.82984,71.2386 0.17608,0.52825 16.53449,3.17408 36.35201,5.87964 65.86891,8.99264 71.51309,9.76825 94.15687,12.93882 25.70583,3.59933 30.46875,3.92118 30.46875,2.05892 z m 34.22538,-25.90252 c -0.96146,-1.55567 -6.14441,-150.341695 -5.26767,-151.218426 0.74396,-0.743963 4.00664,1.898006 35.80568,28.993786 7.95045,6.77452 22.47099,19.12838 32.26786,27.45301 9.79687,8.32465 17.92181,15.64903 18.05541,16.27644 0.1336,0.62739 -13.3664,14.45242 -30,30.72229 -45.31637,44.32539 -50.17278,48.88692 -50.86128,47.7729 z M 544.31437,211.875 c -0.31178,-9.02344 -1.03295,-33.70313 -1.6026,-54.84375 l -1.03572,-38.4375 -2.43135,-1.85509 c -1.33724,-1.02031 -3.54616,-2.91874 -4.9087,-4.21875 -3.57844,-3.4142 -7.76116,-6.59475 -8.15491,-6.201 -0.18661,0.1866 0.11208,12.30603 0.66374,26.93206 2.21664,58.7691 3.75827,101.78086 3.76892,105.15337 l 0.0113,3.56059 7.12813,-6.84184 7.12812,-6.84184 -0.56688,-16.40625 z m 33.94504,-12.73779 c 15.05108,-14.74017 27.36559,-27.29309 27.36559,-27.89537 0,-0.60229 -8.93809,-8.68669 -19.86242,-17.96533 -10.92433,-9.27865 -23.8907,-20.35073 -28.81417,-24.60464 -4.92346,-4.2539 -9.48538,-7.73437 -10.13759,-7.73437 -1.43807,0 -1.45448,-3.62812 0.22043,48.75 0.75022,23.46094 1.37353,45.71484 1.38514,49.45312 0.0155,4.9679 0.3516,6.79688 1.24927,6.79688 0.6755,0 13.54269,-12.06013 28.59375,-26.80029 z m -112.41469,17.26053 c -14.12866,-16.109 -30.48794,-34.79088 -36.35396,-41.5153 -5.86601,-6.72441 -11.31249,-12.96689 -12.10329,-13.8722 -1.7061,-1.95314 -5.26414,1.56154 36.63519,-36.18883 16.39216,-14.76896 30.40443,-26.98616 31.13839,-27.149322 0.77849,-0.173072 1.50778,0.60809 1.75049,1.875 0.34,1.774812 5.96451,122.821912 6.52155,140.352822 0.0943,2.96767 -0.26491,5.20709 -0.86962,5.42156 -0.56666,0.20096 -12.5901,-12.81471 -26.71875,-28.92373 z m 23.89951,10.71163 c -0.53774,-9.18794 -0.97184,-11.42269 -2.61634,-13.4691 -2.97093,-3.69696 -42.7831,-48.7155 -45.76968,-51.75512 -2.43488,-2.47813 -2.94239,-2.60833 -7.99469,-2.05096 -7.52684,0.83034 -10.55432,1.46091 -10.53105,2.19343 0.0218,0.68801 7.19792,8.98723 37.01128,42.804 10.82813,12.28215 21.73994,24.79767 24.24848,27.81228 2.50855,3.0146 4.95153,5.4811 5.42886,5.4811 0.5195,0 0.60907,-4.42181 0.22314,-11.01563 z m -1.39797,-59.77194 c -1.99777,-44.70183 -2.27349,-48.27493 -3.72514,-48.27493 -0.86922,0 -40.87889,34.97101 -42.34114,37.00885 -1.06539,1.48477 -1.05931,1.49482 5.14921,8.50667 3.21863,3.6351 13.80916,15.59051 23.5345,26.56756 9.72534,10.97706 18.03912,19.60161 18.47507,19.16566 0.43596,-0.43596 -0.0557,-19.77416 -1.0925,-42.97381 z M 862.08749,761.025 c 0.7742,-7.35281 1.80096,-18.00938 2.28169,-23.68125 0.91764,-10.8268 4.39782,-49.17365 7.48731,-82.5 1.00381,-10.82813 2.473,-26.85938 3.26486,-35.625 0.79186,-8.76563 1.87433,-20.36719 2.40549,-25.78125 1.12539,-11.471 5.0848,-54.74179 6.9914,-76.40625 0.72604,-8.25 2.39518,-26.60156 3.70919,-40.78125 1.314,-14.17969 3.23796,-35.0625 4.27548,-46.40625 1.03751,-11.34375 2.10229,-22.58111 2.36619,-24.97193 0.45078,-4.08395 0.33023,-4.38446 -1.99277,-4.9675 -1.35992,-0.34131 -2.6601,-0.43306 -2.88928,-0.20387 -0.56787,0.56787 -1.62458,10.75495 -4.00201,38.5808 -0.52866,6.1875 -2.01895,23.27344 -3.31176,37.96875 -1.29281,14.69531 -2.78116,31.78125 -3.30746,37.96875 -0.52629,6.1875 -1.3945,15.67969 -1.92935,21.09375 -0.53486,5.41406 -2.43954,26.92969 -4.23263,47.8125 -1.79309,20.88281 -4.11143,47.67187 -5.15187,59.53125 -1.04044,11.85937 -2.9126,33.375 -4.16036,47.8125 -4.99811,57.83158 -6.13376,70.69222 -7.02484,79.55245 -1.2236,12.16658 -1.27875,11.86587 1.44191,7.86205 2.01986,-2.9725 2.57974,-5.47024 3.77881,-16.85825 z M 329.0625,582.66815 c 0.77344,-0.61014 2.7864,-1.65564 4.47324,-2.32332 1.68685,-0.66768 3.27274,-1.54688 3.52422,-1.95377 0.37,-0.59869 -1.87913,-23.02421 -4.69662,-46.82856 -0.27463,-2.32031 -1.5717,-14.34375 -2.88238,-26.71875 -4.69484,-44.32704 -11.76157,-106.81186 -12.1205,-107.17079 -0.42968,-0.42968 -12.84915,3.5355 -13.7695,4.39619 -0.56902,0.53214 0.59252,11.53065 6.69559,63.3996 1.09206,9.28125 3.028,25.94531 4.30209,37.03125 1.27409,11.08594 3.12117,26.69531 4.1046,34.6875 0.98344,7.99219 2.03922,17.0625 2.34617,20.15625 0.59326,5.97934 2.23334,19.56914 2.96483,24.56672 0.45783,3.12795 1.79897,3.32885 5.05826,0.75768 z m 609.59934,-213.7619 c 1.22597,-11.34375 1.86357,-20.77376 1.41685,-20.95558 -1.92844,-0.78492 -4.36426,3.06471 -4.86646,7.69119 -0.28817,2.6548 -1.16536,10.94408 -1.94931,18.42064 -0.78395,7.47656 -1.66688,15.28125 -1.96208,17.34375 l -0.53672,3.75 2.83431,-2.8125 c 2.81166,-2.79003 2.85212,-2.97728 5.06341,-23.4375 z M 883.15246,335.0268 c 3.15148,-2.08555 3.55242,-2.69603 2.55802,-3.89483 -0.64858,-0.78189 -15.94486,-13.61585 -33.99173,-28.51992 -18.04688,-14.90405 -38.48907,-31.81935 -45.42711,-37.58955 -11.2298,-9.33955 -48.92562,-40.46633 -85.89917,-70.93001 -7.17679,-5.91319 -21.48622,-17.74429 -31.79872,-26.29132 -10.3125,-8.54703 -30.98438,-25.63029 -45.9375,-37.96278 -14.95313,-12.33251 -34.35938,-28.3684 -43.125,-35.635334 C 590.76562,86.93613 574.94531,73.887667 564.375,65.206475 553.80469,56.525283 544.52344,48.894377 543.75,48.248907 c -1.79908,-1.50142 -15,-2.872468 -15,-1.557901 0,0.519091 17.40234,15.446371 38.67187,33.171734 21.26954,17.725366 43.73438,36.46941 49.92188,41.65343 6.1875,5.18403 44.15625,36.7752 84.375,70.20261 40.21875,33.4274 75.38904,62.71162 78.15621,65.07604 2.76716,2.36441 9.13698,7.67393 14.15515,11.79893 9.62116,7.90871 66.63009,55.3777 76.748,63.90488 3.26389,2.75075 6.54247,5.00137 7.28572,5.00137 0.74325,0 3.03313,-1.11294 5.08863,-2.4732 z M 504.375,37.03125 c 0,-2.743173 -0.40988,-4.223228 -1.17188,-4.231552 -0.64453,-0.007 -2.12109,-0.267181 -3.28125,-0.578091 -1.83013,-0.490456 -2.10767,-0.209515 -2.09657,2.122176 0.025,5.247039 0.9491,6.906217 3.84654,6.906217 2.57874,0 2.70316,-0.194171 2.70316,-4.21875 z m 34.6875,-0.46875 0,-4.6875 -7.96875,0 -7.96875,0 0,3.5625 c 0,5.035644 1.2154,5.8125 9.09375,5.8125 l 6.84375,0 0,-4.6875 z"
       id="path4146"
       inkscape:connector-curvature="0" />
    <path
       style="fill:#717050"
       d="m 848.43157,794.12784 c -0.7767,-0.46217 -9.84702,-4.09368 -20.15625,-8.07 -10.30924,-3.97632 -19.16595,-7.56218 -19.68157,-7.96858 -0.52994,-0.41768 -0.74517,-3.11778 -0.49509,-6.21095 l 0.4424,-5.47206 0.4951,5.61361 0.49509,5.61361 18.75,7.27295 c 19.18235,7.44064 21.80349,8.15312 22.47524,6.1092 0.21182,-0.64453 1.68993,-16.22837 3.28467,-34.63076 3.09924,-35.76334 9.49167,-108.86499 16.38058,-187.32236 7.47535,-85.13636 8.85865,-101.04292 11.90322,-136.875 1.74958,-20.59117 3.42668,-35.64657 4.04807,-36.33975 0.81736,-0.91179 2.23436,-0.95957 6.17208,-0.20811 20.81972,3.97318 32.19743,5.61782 33.03939,4.77586 1.41874,-1.41874 5.95635,-48.62465 4.78643,-49.79457 -0.52657,-0.52657 -12.58319,-2.59275 -26.79246,-4.5915 L 877.74341,342.39535 714.73108,206.65376 C 625.0743,131.99589 544.44141,64.830858 535.54687,57.398133 L 519.375,43.884086 l 0,-6.285793 c 0,-3.63895 -0.47372,-6.759512 -1.125,-7.410793 -1.48204,-1.482038 -7.93025,-1.448068 -8.89779,0.04687 -0.41715,0.644531 -0.75846,4.125 -0.75846,7.734375 l 0,6.5625 -7.03125,0 -7.03125,0 -0.46875,-7.03125 -0.46875,-7.03125 -4.6875,0 -4.6875,0 -0.28015,7.030155 c -0.39109,9.813871 -1.62898,10.112282 -1.4403,0.347206 0.085,-4.399427 0.35751,-8.201928 0.60559,-8.450002 0.7195,-0.7195 54.65214,-1.566981 57.30755,-0.900513 2.30673,0.578951 2.40106,0.876113 2.40106,7.563737 0,5.912275 0.31782,7.30774 2.10937,9.261691 1.16016,1.265321 10.75782,9.429792 21.32813,18.143269 37.73154,31.103432 100.87837,83.248652 106.4433,87.898482 5.10449,4.26509 32.6838,27.06741 64.2536,53.12428 21.9591,18.12446 53.73795,44.37381 65.12606,53.7942 6.2333,5.15625 20.5864,17.01666 31.89578,26.35649 11.30938,9.33983 28.2718,23.35772 37.69427,31.15087 9.42247,7.79316 18.02127,14.64542 19.10846,15.22727 1.0872,0.58184 13.52619,2.63412 27.64221,4.56059 14.11602,1.92648 25.91104,3.74825 26.21113,4.04837 0.64622,0.64621 -4.04606,48.08181 -5.03709,50.92168 -1.00013,2.86585 -12.29309,12.82019 -13.86145,12.21835 -3.62016,-1.38919 -25.20299,-4.28816 -25.999,-3.49215 -1.127,1.127 0.12645,-11.85686 -18.96983,196.49722 l -16.41059,179.0512 -5.93235,9.85505 c -5.8825,9.77222 -7.25711,11.07368 -9.98293,9.45164 z m 10.71083,-15.48839 c 2.07404,-3.53907 2.65408,-6.27758 3.82244,-18.04645 1.33173,-13.41442 7.67705,-82.14141 10.32608,-111.843 0.7128,-7.99219 3.02761,-33.30469 5.14401,-56.25 2.1164,-22.94531 4.22565,-45.9375 4.68722,-51.09375 C 884.204,529.321 891.99175,444.98954 894.33366,420 c 0.9906,-10.57031 1.51062,-19.49071 1.15559,-19.82311 -0.35503,-0.33239 -1.97369,-0.88384 -3.59704,-1.22542 -2.93393,-0.61737 -2.95499,-0.59418 -3.53093,3.88561 -0.31865,2.47867 -0.97217,9.14729 -1.45225,14.81917 -1.26738,14.9733 -8.04022,92.36601 -11.28095,128.90625 -1.53196,17.27344 -3.63445,41.32031 -4.67219,53.4375 -1.03773,12.11719 -2.50324,28.99219 -3.25667,37.5 -0.75344,8.50781 -2.02827,23.0625 -2.83295,32.34375 -0.8047,9.28125 -2.71134,31.00781 -4.23698,48.28125 -1.52565,17.27344 -3.21045,36.46875 -3.744,42.65625 -0.53356,6.1875 -1.24094,13.95174 -1.57196,17.25386 -0.69068,6.88989 0.0747,7.01069 3.82907,0.60434 z m 76.33254,-386.31786 c 1.30447,-1.65836 2.07268,-4.56752 2.53918,-9.6153 0.36788,-3.98065 1.40607,-13.7766 2.307,-21.76879 0.90104,-7.99219 1.37316,-14.81296 1.04916,-15.15727 -0.324,-0.34431 -1.93012,0.50515 -3.56934,1.88769 l -2.98027,2.5137 -1.92873,19.20606 c -1.0608,10.56334 -2.17597,21.03022 -2.47817,23.25974 -0.51898,3.82893 -0.44577,3.99817 1.32069,3.0528 1.02857,-0.55048 2.71178,-2.07087 3.74048,-3.37863 z M 883.2236,335.56173 c 2.46482,-1.58168 4.27407,-3.37465 4.02054,-3.98438 -0.25352,-0.60973 -2.08262,-2.37422 -4.06466,-3.9211 -1.98205,-1.54687 -18.90926,-15.46875 -37.61602,-30.9375 C 826.8567,281.25 801.81544,260.5574 789.91621,250.7352 778.01698,240.91299 743.39062,212.29121 712.96875,187.13123 682.54687,161.97126 647.53125,133.03004 635.15625,122.81743 622.78125,112.60481 596.83594,91.143634 577.5,75.125926 l -35.15625,-29.123105 -7.73438,-0.03266 c -4.2539,-0.01796 -7.73437,0.169178 -7.73437,0.415869 0,0.384159 76.07896,63.85312 303.28125,253.01276 25.78125,21.46445 47.25994,39.02906 47.73042,39.03248 0.47049,0.004 2.8721,-1.28787 5.33693,-2.86954 z M 505.3125,37.12972 l 0,-5.057778 -3.82008,-0.364304 c -2.10105,-0.200367 -3.98681,-0.09454 -4.19059,0.235177 -0.20377,0.329714 -0.11347,2.769652 0.20068,5.422083 l 0.57116,4.822602 3.61941,0 3.61942,0 0,-5.05778 z m 34.49991,-0.332845 -0.28116,-5.390625 -8.67188,-0.269556 c -9.63463,-0.299481 -9.26046,-0.60277 -8.07822,6.54792 0.63123,3.817889 1.11795,3.989228 12.34376,4.345289 l 4.96866,0.157597 -0.28116,-5.390625 z M 809.33018,759.84375 c -0.0125,-3.60938 0.27591,-9.72656 0.64077,-13.59375 l 0.66337,-7.03125 0.0586,5.625 c 0.0322,3.09375 -0.25615,9.21094 -0.64077,13.59375 l -0.6993,7.96875 -0.0226,-6.5625 z m 1.89782,-26.25 c 0.006,-3.09375 0.18028,-4.24635 0.38893,-2.56133 0.20865,1.68501 0.20435,4.21626 -0.01,5.625 -0.21392,1.40873 -0.38463,0.0301 -0.37937,-3.06367 z m 0.92113,-14.53125 c -0.016,-3.35156 0.26946,-9.25781 0.63432,-13.125 l 0.66337,-7.03125 0.0291,6.09375 c 0.016,3.35156 -0.26946,9.25781 -0.63432,13.125 l -0.66337,7.03125 -0.0291,-6.09375 z m 1.89137,-25.78125 c 0.006,-3.09375 0.18028,-4.24635 0.38893,-2.56133 0.20865,1.68501 0.20435,4.21626 -0.01,5.625 -0.21392,1.40873 -0.38463,0.0301 -0.37937,-3.06367 z M 815.0027,678.75 c 0,-3.86719 0.16548,-5.44922 0.36774,-3.51563 0.20226,1.9336 0.20226,5.09766 0,7.03125 -0.20226,1.9336 -0.36774,0.35157 -0.36774,-3.51562 z m 0.92237,-13.125 c 0,-3.35156 0.17015,-4.72266 0.37812,-3.04688 0.20795,1.67579 0.20795,4.41797 0,6.09375 -0.20797,1.67579 -0.37812,0.30469 -0.37812,-3.04687 z m 0.90546,-14.0625 c -0.0193,-3.35156 0.26796,-9.04688 0.63841,-12.65625 l 0.67355,-6.5625 0.0249,5.625 c 0.0138,3.09375 -0.27355,8.78906 -0.6384,12.65625 l -0.66338,7.03125 -0.0352,-6.09375 z m 1.89747,-26.71875 c 0.006,-3.09375 0.18028,-4.24635 0.38893,-2.56133 0.20865,1.68501 0.20435,4.21626 -0.01,5.625 -0.21392,1.40873 -0.38463,0.0301 -0.37937,-3.06367 z m 0.44896,-11.95254 c 0.45385,-8.25242 0.87342,-9.03323 1.00787,-1.87559 0.0702,3.73829 -0.18874,6.79714 -0.57546,6.79746 -0.38671,3.2e-4 -0.5813,-2.21452 -0.43241,-4.92187 z m 1.44317,-15.23496 c 0.004,-3.60938 0.17361,-4.97106 0.37656,-3.02597 0.20294,1.9451 0.19954,4.89822 -0.007,6.5625 -0.20711,1.66429 -0.37316,0.0728 -0.36899,-3.53653 z M 309.60937,586.11366 c -8.33193,-3.36454 -10.54687,-4.63959 -10.54687,-6.07141 0,-1.74933 0.0572,-1.74546 1.64062,0.11102 1.94271,2.27765 16.59813,8.05602 18.54113,7.31042 0.89667,-0.34409 1.19467,-1.39266 0.88984,-3.13113 -0.25207,-1.43759 -3.83923,-31.72319 -7.97148,-67.30131 -4.13225,-35.57813 -8.77023,-75.25675 -10.30664,-88.17473 -1.5364,-12.91798 -2.79347,-25.017 -2.79347,-26.88673 0,-2.87605 1.91941,-6.04423 12.46536,-20.57527 6.85594,-9.44667 21.89592,-30.19221 33.42216,-46.10118 l 20.9568,-28.92542 3.84347,0.58748 c 10.28658,1.57228 26.02998,4.71159 25.13103,5.01124 -0.55725,0.18575 -3.45308,-0.11331 -6.43519,-0.66458 -5.07791,-0.93871 -5.55247,-0.86804 -7.47782,1.11344 -1.1307,1.16366 -14.95956,19.54607 -30.73081,40.84978 -26.68999,36.0527 -28.675,39.00115 -28.675,42.59274 0,2.12229 0.83385,11.2701 1.85301,20.32846 1.01915,9.05837 3.11593,28.07133 4.65949,42.25102 1.54358,14.17969 5.13941,46.9614 7.99075,72.84824 2.85134,25.88685 5.18425,47.48084 5.18425,47.98664 0,1.0601 -18.50521,11.41629 -20.06019,11.22642 -0.56846,-0.0694 -5.77965,-2.04273 -11.58044,-4.38514 z m 21.87058,-3.53343 c 3.30184,-1.8465 6.21861,-3.70556 6.48171,-4.13126 0.26309,-0.4257 -0.98045,-13.99695 -2.76344,-30.15836 -1.78298,-16.1614 -5.58591,-50.89999 -8.45097,-77.19686 -7.35895,-67.54413 -8.10323,-74.01053 -8.57283,-74.48103 -0.22974,-0.23018 -4.01201,0.75201 -8.40502,2.18265 l -7.98731,2.60118 0.52213,3.9111 c 0.70069,5.24878 3.80425,31.15814 6.08341,50.7861 5.44655,46.90518 9.80042,84.07457 12.27512,104.79385 1.52611,12.77725 2.77475,23.64053 2.77475,24.14063 0,1.57579 1.85917,1.00989 8.04245,-2.448 z m 490.03808,1.48227 c -0.0193,-3.35156 0.26796,-9.04688 0.63841,-12.65625 l 0.67355,-6.5625 0.0249,5.625 c 0.0138,3.09375 -0.27354,8.78906 -0.6384,12.65625 l -0.66337,7.03125 -0.0352,-6.09375 z m -523.17553,-9.375 c 0,-1.80469 0.19294,-2.54297 0.42875,-1.64063 0.2358,0.90235 0.2358,2.37891 0,3.28125 -0.23581,0.90235 -0.42875,0.16407 -0.42875,-1.64062 z m -0.97223,-7.96875 c 0.0191,-1.54688 0.22921,-2.06619 0.46691,-1.15403 0.23769,0.91216 0.22206,2.17778 -0.0348,2.8125 -0.25681,0.63471 -0.45129,-0.11159 -0.43218,-1.65847 z M 823.26498,558.75 c -0.0682,-2.83594 0.30205,-9.96924 0.82271,-15.85178 0.88168,-9.96152 0.81533,-10.95878 -0.96692,-14.53125 l -1.91357,-3.83572 2.3605,2.8125 c 2.65572,3.16427 2.617,2.31768 1.00757,22.03125 -0.6525,7.99219 -1.24213,12.21094 -1.31029,9.375 z m -526.83221,0.46875 c 0.0191,-1.54688 0.22921,-2.06619 0.46691,-1.15403 0.23769,0.91216 0.22206,2.17778 -0.0348,2.8125 -0.25681,0.63471 -0.45129,-0.11159 -0.43218,-1.65847 z M 295.46052,551.25 c 0,-1.28906 0.2128,-1.81641 0.47287,-1.17188 0.26007,0.64454 0.26007,1.69922 0,2.34375 -0.26007,0.64454 -0.47287,0.11719 -0.47287,-1.17187 z m -0.90275,-7.03125 c 0.0191,-1.54688 0.22921,-2.06619 0.46691,-1.15403 0.23769,0.91216 0.22206,2.17778 -0.0348,2.8125 -0.25681,0.63471 -0.45129,-0.11159 -0.43218,-1.65847 z m -0.9375,-7.5 c 0.0191,-1.54688 0.22921,-2.06619 0.46691,-1.15403 0.23769,0.91216 0.22206,2.17778 -0.0348,2.8125 -0.25681,0.63471 -0.45129,-0.11159 -0.43218,-1.65847 z m -0.9375,-6.5625 c 0.0191,-1.54688 0.22921,-2.06619 0.46691,-1.15403 0.23769,0.91216 0.22206,2.17778 -0.0348,2.8125 -0.25681,0.63471 -0.45129,-0.11159 -0.43218,-1.65847 z m -0.9375,-7.5 c 0.0191,-1.54688 0.22921,-2.06619 0.46691,-1.15403 0.23769,0.91216 0.22206,2.17778 -0.0348,2.8125 -0.25681,0.63471 -0.45129,-0.11159 -0.43218,-1.65847 z m 525.28078,-2.3495 c -0.93613,-1.03441 -1.48054,-2.10227 -1.20979,-2.37301 0.27074,-0.27074 1.19194,0.5756 2.04711,1.88075 1.86843,2.85159 1.49599,3.07055 -0.83732,0.49226 z M 290.8425,514.6875 c 0,-1.80469 0.19294,-2.54297 0.42875,-1.64063 0.2358,0.90235 0.2358,2.37891 0,3.28125 -0.23581,0.90235 -0.42875,0.16407 -0.42875,-1.64062 z M 810,510.9375 c -1.63353,-2.0625 -2.75912,-3.75 -2.50131,-3.75 0.25782,0 1.80528,1.6875 3.43881,3.75 1.63353,2.0625 2.75912,3.75 2.50131,3.75 -0.25782,0 -1.80528,-1.6875 -3.43881,-3.75 z m -520.16448,-3.75 c 0,-1.28906 0.2128,-1.81641 0.47287,-1.17188 0.26007,0.64454 0.26007,1.69922 0,2.34375 -0.26007,0.64454 -0.47287,0.11719 -0.47287,-1.17187 z m 515.35739,-2.57813 c -1.16613,-1.48693 -1.13297,-1.52009 0.35396,-0.35396 0.90235,0.70767 1.64063,1.44596 1.64063,1.64063 0,0.7716 -0.76987,0.27498 -1.99459,-1.28667 z M 288.9675,499.6875 c 0,-1.80469 0.19294,-2.54297 0.42875,-1.64063 0.2358,0.90235 0.2358,2.37891 0,3.28125 -0.23581,0.90235 -0.42875,0.16407 -0.42875,-1.64062 z m 510.35058,-2.66994 -1.77567,-2.48631 2.19234,2.08333 c 1.20578,1.14583 2.00483,2.26467 1.77566,2.48631 -0.22916,0.22163 -1.21571,-0.71587 -2.19233,-2.08333 z M 288.03,492.1875 c 0,-1.80469 0.19294,-2.54297 0.42875,-1.64063 0.2358,0.90235 0.2358,2.37891 0,3.28125 -0.23581,0.90235 -0.42875,0.16407 -0.42875,-1.64062 z m 506.29326,-1.17188 c -1.83237,-2.36924 -2.45756,-3.82515 -1.34816,-3.1395 1.11013,0.68609 3.33121,4.31138 2.64143,4.31138 -0.21282,0 -0.7948,-0.52734 -1.29327,-1.17188 z m -507.26549,-6.79687 c 0.0191,-1.54688 0.22921,-2.06619 0.46691,-1.15403 0.23769,0.91216 0.22206,2.17778 -0.0348,2.8125 -0.25681,0.63471 -0.45129,-0.11159 -0.43218,-1.65847 z M 787.5,481.875 c -1.63353,-2.0625 -2.75912,-3.75 -2.50131,-3.75 0.25782,0 1.80528,1.6875 3.43881,3.75 1.63353,2.0625 2.75912,3.75 2.50131,3.75 -0.25782,0 -1.80528,-1.6875 -3.43881,-3.75 z m 20.5476,-25.47985 c -11.00321,-14.08765 -23.60821,-30.20274 -28.01109,-35.81132 -4.4029,-5.60859 -9.9037,-12.64506 -12.22401,-15.63662 -2.32031,-2.99155 -8.96484,-11.54421 -14.76563,-19.00588 -9.71243,-12.49332 -11.72737,-15.68552 -9.84375,-15.59507 3.9528,0.18981 91.49014,15.88066 92.00203,16.49113 0.37763,0.45038 0.41356,3.98292 0.0798,7.85011 l -0.60679,7.03125 -0.15159,-6.81698 c -0.13557,-6.09707 -0.37435,-6.9144 -2.26096,-7.73956 -1.16016,-0.50743 -14.74399,-3.02435 -30.1863,-5.59317 -21.3154,-3.54579 -28.24601,-4.39698 -28.77903,-3.53455 -0.76666,1.24049 0.0862,2.48259 12.3986,18.05926 4.4833,5.67187 10.94385,13.89844 14.35676,18.28125 24.62196,31.61915 27.86537,35.52451 29.1073,35.04793 1.25224,-0.48052 2.29576,-6.69606 2.50015,-14.89168 0.0643,-2.57813 0.31801,-3.90677 0.5638,-2.95253 0.65253,2.53319 -2.53026,48.7511 -3.41983,49.66018 -0.4145,0.42359 -9.75626,-10.7561 -20.75948,-24.84375 z m 19.21949,16.80797 c 0.2353,-1.16015 0.66709,-6.12811 0.95952,-11.03991 l 0.5317,-8.93053 -28.64234,-36.53822 c -15.75329,-20.09602 -29.238,-37.1388 -29.96603,-37.87284 -0.72802,-0.73406 -5.45412,-2.08701 -10.50244,-3.00657 -10.85436,-1.97713 -11.5225,-2.02654 -11.5225,-0.85223 0,0.49518 11.49609,15.60287 25.54687,33.57264 14.05079,17.96979 31.45313,40.32025 38.67188,49.66769 7.21875,9.34745 13.43337,17.02101 13.81027,17.05235 0.37689,0.0313 0.87778,-0.89222 1.11307,-2.05238 z M 286.155,477.1875 c 0,-1.80469 0.19294,-2.54297 0.42875,-1.64063 0.2358,0.90235 0.2358,2.37891 0,3.28125 -0.23581,0.90235 -0.42875,0.16407 -0.42875,-1.64062 z m 496.09968,-2.10938 -1.78593,-2.10937 2.10937,1.78593 c 1.16016,0.98225 2.10938,1.93147 2.10938,2.10937 0,0.75024 -0.75449,0.19636 -2.43282,-1.78593 z M 285.2175,469.6875 c 0,-1.80469 0.19294,-2.54297 0.42875,-1.64063 0.2358,0.90235 0.2358,2.37891 0,3.28125 -0.23581,0.90235 -0.42875,0.16407 -0.42875,-1.64062 z m 492.37993,-0.6292 c -1.44381,-1.89294 -2.14634,-3.1458 -1.56117,-2.78415 1.20021,0.74177 5.25884,6.22585 4.6076,6.22585 -0.23173,0 -1.60262,-1.54877 -3.04643,-3.4417 z M 284.28,462.1875 c 0,-1.80469 0.19294,-2.54297 0.42875,-1.64063 0.2358,0.90235 0.2358,2.37891 0,3.28125 -0.23581,0.90235 -0.42875,0.16407 -0.42875,-1.64062 z m 486.3421,-2.10938 c -1.38023,-1.8854 -1.60662,-2.5402 -0.59387,-1.71772 1.5373,1.24847 3.86175,4.7646 3.14981,4.7646 -0.17899,0 -1.32916,-1.37109 -2.55594,-3.04688 z m -487.26068,-4.92187 c 0.0104,-2.0625 0.2024,-2.79586 0.42664,-1.62969 0.22424,1.16616 0.21572,2.85366 -0.0189,3.75 -0.23465,0.89633 -0.41813,-0.0579 -0.40772,-2.12031 z M 765,452.8125 c -1.63353,-2.0625 -2.75912,-3.75 -2.50131,-3.75 0.25782,0 1.80528,1.6875 3.43881,3.75 1.63353,2.0625 2.75912,3.75 2.50131,3.75 -0.25782,0 -1.80528,-1.6875 -3.43881,-3.75 z m -482.595,-5.625 c 0,-1.80469 0.19294,-2.54297 0.42875,-1.64063 0.2358,0.90235 0.2358,2.37891 0,3.28125 -0.23581,0.90235 -0.42875,0.16407 -0.42875,-1.64062 z m 477.43355,-0.94325 c -0.93613,-1.03441 -1.52886,-2.04778 -1.31718,-2.25193 0.21169,-0.20415 1.14286,0.64219 2.06927,1.88075 2.04599,2.73536 1.59078,2.96002 -0.75209,0.37118 z m -478.35213,-6.088 c 0.0104,-2.0625 0.2024,-2.79586 0.42664,-1.62969 0.22424,1.16616 0.21572,2.85366 -0.0189,3.75 -0.23465,0.89633 -0.41813,-0.0579 -0.40772,-2.12031 z m 472.83166,-1.26369 -1.77567,-2.48631 2.19234,2.08333 c 1.20578,1.14583 2.00483,2.26467 1.77566,2.48631 -0.22916,0.22163 -1.21571,-0.71587 -2.19233,-2.08333 z M 280.53,432.1875 c 0,-1.80469 0.19294,-2.54297 0.42875,-1.64063 0.2358,0.90235 0.2358,2.37891 0,3.28125 -0.23581,0.90235 -0.42875,0.16407 -0.42875,-1.64062 z m 469.28915,1.17187 c -1.78857,-2.08265 -2.87778,-3.98437 -2.28207,-3.98437 0.25314,0 1.36145,1.26562 2.46292,2.8125 2.18448,3.06782 2.07219,3.79539 -0.18085,1.17187 z M 279.5925,424.6875 c 0,-1.80469 0.19294,-2.54297 0.42875,-1.64063 0.2358,0.90235 0.2358,2.37891 0,3.28125 -0.23581,0.90235 -0.42875,0.16407 -0.42875,-1.64062 z M 742.5,423.75 c -1.63353,-2.0625 -2.75912,-3.75 -2.50131,-3.75 0.25782,0 1.80528,1.6875 3.43881,3.75 1.63353,2.0625 2.75912,3.75 2.50131,3.75 -0.25782,0 -1.80528,-1.6875 -3.43881,-3.75 z m 90.30007,-1.875 c 0,-3.35156 0.17015,-4.72266 0.37812,-3.04688 0.20795,1.67579 0.20795,4.41797 0,6.09375 -0.20797,1.67579 -0.37812,0.30469 -0.37812,-3.04687 z M 278.655,417.1875 c 0,-1.80469 0.19294,-2.54297 0.42875,-1.64063 0.2358,0.90235 0.2358,2.37891 0,3.28125 -0.23581,0.90235 -0.42875,0.16407 -0.42875,-1.64062 z m 459.03791,0.23437 c -1.16613,-1.48693 -1.13297,-1.52009 0.35397,-0.35396 0.90234,0.70767 1.64062,1.44596 1.64062,1.64063 0,0.7716 -0.76987,0.27498 -1.99459,-1.28667 z M 833.7527,408.75 c 0,-3.86719 0.16548,-5.44922 0.36774,-3.51563 0.20226,1.9336 0.20226,5.09766 0,7.03125 -0.20226,1.9336 -0.36774,0.35157 -0.36774,-3.51562 z m -99.82109,3.98437 c -2.97352,-3.58972 -4.04425,-5.25562 -2.95963,-4.60473 1.19807,0.71898 5.36223,6.24536 4.70591,6.24536 -0.21301,0 -0.99883,-0.73828 -1.74628,-1.64063 z M 277.7175,409.6875 c 0,-1.80469 0.19294,-2.54297 0.42875,-1.64063 0.2358,0.90235 0.2358,2.37891 0,3.28125 -0.23581,0.90235 -0.42875,0.16407 -0.42875,-1.64062 z m 448.31743,-7.1917 c -1.44381,-1.89294 -2.14634,-3.1458 -1.56117,-2.78415 1.20021,0.74177 5.25884,6.22585 4.6076,6.22585 -0.23173,0 -1.60262,-1.54877 -3.04643,-3.4417 z m -449.28966,-0.77705 c 0.0191,-1.54688 0.22921,-2.06619 0.46691,-1.15403 0.23769,0.91215 0.22206,2.17778 -0.0348,2.8125 -0.25681,0.63471 -0.45129,-0.1116 -0.43218,-1.65847 z M 720,394.6875 c -1.63353,-2.0625 -2.75912,-3.75 -2.50131,-3.75 0.25782,0 1.80528,1.6875 3.43881,3.75 1.63353,2.0625 2.75912,3.75 2.50131,3.75 -0.25782,0 -1.80528,-1.6875 -3.43881,-3.75 z m -444.19223,-0.46875 c 0.0191,-1.54688 0.22921,-2.06619 0.46691,-1.15403 0.23769,0.91215 0.22206,2.17778 -0.0348,2.8125 -0.25681,0.63471 -0.45129,-0.1116 -0.43218,-1.65847 z m 438.94691,-6.32813 -1.78593,-2.10937 2.10937,1.78593 c 1.98229,1.67833 2.53617,2.43282 1.78593,2.43282 -0.1779,0 -1.12712,-0.94922 -2.10937,-2.10938 z m -439.88441,-1.17187 c 0.0191,-1.54688 0.22921,-2.06619 0.46691,-1.15403 0.23769,0.91215 0.22206,2.17778 -0.0348,2.8125 -0.25681,0.63471 -0.45129,-0.1116 -0.43218,-1.65847 z m 434.44781,-5.95119 -1.77567,-2.48631 2.19234,2.08333 c 1.20578,1.14583 2.00483,2.26467 1.77566,2.48631 -0.22916,0.22163 -1.21571,-0.71587 -2.19233,-2.08333 z m -435.38531,-1.54881 c 0.0191,-1.54688 0.22921,-2.06619 0.46691,-1.15403 0.23769,0.91215 0.22206,2.17778 -0.0348,2.8125 -0.25681,0.63471 -0.45129,-0.1116 -0.43218,-1.65847 z m 430.93634,-3.98438 c -2.97352,-3.58972 -4.04425,-5.25562 -2.95963,-4.60473 1.19807,0.71898 5.36223,6.24536 4.70591,6.24536 -0.21301,0 -0.99883,-0.73828 -1.74628,-1.64063 z m -431.87384,-3.51562 c 0.0191,-1.54688 0.22921,-2.06619 0.46691,-1.15403 0.23769,0.91215 0.22206,2.17778 -0.0348,2.8125 -0.25681,0.63471 -0.45129,-0.1116 -0.43218,-1.65847 z m 424.70159,-5.60017 c -1.10894,-1.2754 -2.97799,-2.53011 -4.15344,-2.78826 -3.20305,-0.70344 -21.45448,-3.86647 -51.82467,-8.98136 -38.23954,-6.44024 -78.73546,-13.29492 -104.53125,-17.69384 -12.11719,-2.06634 -34.47656,-5.86694 -49.6875,-8.4458 -86.75619,-14.70862 -92.59989,-15.74616 -89.6603,-15.9191 1.47058,-0.0865 59.24829,9.55433 137.00405,22.86062 28.37453,4.85572 69.95178,11.89905 110.625,18.74029 34.49502,5.80205 44.10037,7.46932 48.92213,8.49176 1.12592,0.23875 2.94762,1.6987 4.04821,3.24435 2.42521,3.40588 2.02328,3.67196 -0.74223,0.49134 z m -425.63909,-1.89983 c 0.0191,-1.54688 0.22921,-2.06619 0.46691,-1.15403 0.23769,0.91215 0.22206,2.17778 -0.0348,2.8125 -0.25681,0.63471 -0.45129,-0.1116 -0.43218,-1.65847 z m 21.87646,-3.51563 c -1.85027,-10.72341 -7.67566,-66.01152 -7.02714,-66.69386 0.7476,-0.78657 5.09447,-0.16716 37.86789,5.39604 7.06851,1.19986 12.27771,2.53401 12.5002,3.20148 0.2098,0.62941 -0.84981,2.72615 -2.35468,4.65943 -1.50488,1.93327 -8.11217,11.47304 -14.68287,21.19949 -18.81843,27.85642 -24.07185,35.2843 -24.95507,35.2843 -0.45243,0 -1.05917,-1.37109 -1.34833,-3.04688 z m 17.31089,-27.89062 c 0.0139,-6.20458 -3.14092,-32.34425 -3.97127,-32.90483 -1.09224,-0.73739 -16.63789,-3.04364 -17.1389,-2.54262 -0.43112,0.43111 5.92399,55.78467 6.64115,57.84502 0.26791,0.76971 3.32297,-2.87873 7.45775,-8.90625 5.42056,-7.90188 7.00559,-10.95186 7.01127,-13.49132 z m 14.46473,-13.82813 c 8.31596,-12.03828 10.01326,-15.42186 8.27452,-16.4953 -1.02766,-0.63445 -17.64318,-3.42657 -20.39103,-3.42657 -2.08437,0 -2.3424,0.38852 -2.33484,3.51562 0.0111,4.56395 2.70303,27.43755 3.35285,28.48899 1.12822,1.82549 2.59055,0.23347 11.0985,-12.08274 z m -54.58958,37.73438 c 0.0191,-1.54688 0.22921,-2.06619 0.46691,-1.15403 0.23769,0.91215 0.22206,2.17778 -0.0348,2.8125 -0.25681,0.63471 -0.45129,-0.1116 -0.43218,-1.65847 z m -0.9375,-7.5 c 0.0191,-1.54688 0.22921,-2.06619 0.46691,-1.15403 0.23769,0.91215 0.22206,2.17778 -0.0348,2.8125 -0.25681,0.63471 -0.45129,-0.1116 -0.43218,-1.65847 z m -0.9375,-7.5 c 0.0191,-1.54688 0.22921,-2.06619 0.46691,-1.15403 0.23769,0.91215 0.22206,2.17778 -0.0348,2.8125 -0.25681,0.63471 -0.45129,-0.1116 -0.43218,-1.65847 z m -0.88385,-6.5625 c 0.0104,-2.0625 0.2024,-2.79586 0.42664,-1.62969 0.22424,1.16616 0.21572,2.85366 -0.0189,3.75 -0.23465,0.89633 -0.41813,-0.0579 -0.40772,-2.12031 z M 267.405,327.1875 c 0,-1.80469 0.19294,-2.54297 0.42875,-1.64063 0.2358,0.90235 0.2358,2.37891 0,3.28125 -0.23581,0.90235 -0.42875,0.16407 -0.42875,-1.64062 z m 486.345,-2.31957 c -18.82031,-2.71016 -76.82813,-10.95172 -128.90625,-18.31458 -52.07813,-7.36287 -94.99521,-13.65482 -95.37129,-13.98211 -0.37609,-0.32729 -0.79797,-3.72128 -0.9375,-7.54221 l -0.25371,-6.94711 48.25682,-45.75972 c 26.54125,-25.16783 48.92978,-45.7597 49.75229,-45.7597 0.82252,0 4.45282,2.84766 8.06736,6.32812 3.61454,3.48047 5.42006,5.33995 4.01227,4.13216 -1.40778,-1.20778 -3.22214,-2.05153 -4.03191,-1.875 -1.13598,0.24765 -53.96861,48.85099 -80.93612,74.45714 -3.69339,3.50694 -4.02696,4.21043 -4.02696,8.49269 0,2.56796 0.52734,5.33572 1.17187,6.15059 0.91989,1.163 24.9595,4.71766 111.79688,16.5311 98.50584,13.40082 110.74671,14.89092 111.73594,13.60176 0.94584,-1.2326 1.37269,-1.25936 2.8724,-0.18003 4.04054,2.90794 17.11041,14.4335 17.11041,15.08867 0,1.21138 -5.01027,0.66181 -40.3125,-4.42177 z m -213.70717,-38.53195 7.45717,-2.41403 0,-3.67973 c 0,-4.35809 -0.48775,-4.45979 -9.375,-1.95479 l -6.09375,1.71762 -0.28574,4.37248 c -0.15716,2.40485 -0.0324,4.37247 0.27721,4.37247 0.30963,0 3.91867,-1.08631 8.02011,-2.41403 z M 266.4675,319.6875 c 0,-1.80469 0.19294,-2.54297 0.42875,-1.64063 0.2358,0.90235 0.2358,2.37891 0,3.28125 -0.23581,0.90235 -0.42875,0.16407 -0.42875,-1.64062 z m -0.9375,-7.5 c 0,-1.80469 0.19294,-2.54297 0.42875,-1.64063 0.2358,0.90235 0.2358,2.37891 0,3.28125 -0.23581,0.90235 -0.42875,0.16407 -0.42875,-1.64062 z m 505.47468,-2.10938 -1.78593,-2.10937 2.10937,1.78593 c 1.16016,0.98225 2.10938,1.93147 2.10938,2.10937 0,0.75024 -0.75449,0.19636 -2.43282,-1.78593 z M 264.5925,304.6875 c 0,-1.80469 0.19294,-2.54297 0.42875,-1.64063 0.2358,0.90235 0.2358,2.37891 0,3.28125 -0.23581,0.90235 -0.42875,0.16407 -0.42875,-1.64062 z m 499.39904,-0.70313 -2.27279,-2.57812 2.57813,2.27279 c 1.41796,1.25004 2.57812,2.4102 2.57812,2.57813 0,0.73526 -0.75919,0.13685 -2.88346,-2.2728 z m -6.08177,-5.15625 -2.75352,-3.04687 3.04688,2.75352 c 1.67578,1.51444 3.04687,2.88553 3.04687,3.04688 0,0.72427 -0.77356,0.0866 -3.34023,-2.75353 z M 263.655,297.1875 c 0,-1.80469 0.19294,-2.54297 0.42875,-1.64063 0.2358,0.90235 0.2358,2.37891 0,3.28125 -0.23581,0.90235 -0.42875,0.16407 -0.42875,-1.64062 z m 489.03791,-2.57813 c -1.16613,-1.48693 -1.13297,-1.52009 0.35397,-0.35396 0.90234,0.70767 1.64062,1.44596 1.64062,1.64063 0,0.7716 -0.76987,0.27498 -1.99459,-1.28667 z m -490.96195,-3.31264 c -0.64309,-0.77487 -4.00267,-1.91313 -7.46573,-2.52946 -8.88015,-1.58042 -9.57773,-1.83585 -9.57773,-3.507 0,-1.3315 0.17291,-1.33925 1.64062,-0.0735 0.90235,0.77819 4.80469,1.91957 8.67188,2.5364 7.25812,1.15769 8.91714,1.93163 8.27433,3.86007 -0.26621,0.7986 -0.71139,0.71594 -1.54337,-0.28654 z m 483.96122,-2.78111 -1.78593,-2.10937 2.10937,1.78593 c 1.98229,1.67833 2.53617,2.43282 1.78593,2.43282 -0.1779,0 -1.12712,-0.94922 -2.10937,-2.10938 z M 398.4375,274.53486 c -50.27344,-7.20732 -91.82813,-13.53184 -92.34375,-14.05451 -0.62836,-0.63693 0.32004,-2.08361 2.87614,-4.3872 2.09749,-1.89029 23.18191,-20.94471 46.85426,-42.34315 23.67234,-21.39844 44.23313,-39.91234 45.69065,-41.14201 l 2.65002,-2.23576 2.84378,2.70451 c 1.56408,1.48748 4.97888,5.4467 7.58844,8.79826 3.03024,3.89187 3.71145,5.1309 1.88524,3.42903 -1.57266,-1.4656 -3.50401,-2.52028 -4.29187,-2.34375 -1.13064,0.25334 -74.04395,64.02719 -79.91229,69.89554 -0.80364,0.80363 -1.11763,1.79616 -0.69777,2.20562 0.41987,0.40946 36.61571,5.61765 80.43518,11.57375 85.91012,11.67722 84.62594,11.58379 80.09788,5.82729 -1.10807,-1.40866 -1.83113,-2.74475 -1.60682,-2.96907 0.22432,-0.22431 1.27783,0.76886 2.34115,2.20708 1.39922,1.89255 2.02829,4.41448 2.27715,9.1291 l 0.34386,6.51416 -2.8125,0.14766 c -1.54688,0.0812 -43.94531,-5.74924 -94.21875,-12.95655 z m 340.72227,8.35576 -2.75352,-3.04687 3.04687,2.75352 c 1.67579,1.51444 3.04688,2.88553 3.04688,3.04688 0,0.72427 -0.77356,0.0866 -3.34023,-2.75353 z m -495.227,-3.04687 c 0.0191,-1.54688 0.22921,-2.06619 0.46691,-1.15403 0.23769,0.91215 0.22206,2.17778 -0.0348,2.8125 -0.25681,0.63471 -0.45129,-0.1116 -0.43218,-1.65847 z m 488.18377,-3.04688 -2.27279,-2.57812 2.57813,2.27279 c 1.41796,1.25004 2.57812,2.4102 2.57812,2.57813 0,0.73526 -0.75919,0.13685 -2.88346,-2.2728 z M 242.96052,271.875 c 0,-1.28906 0.2128,-1.81641 0.47287,-1.17188 0.26007,0.64454 0.26007,1.69922 0,2.34375 -0.26007,0.64454 -0.47287,0.11719 -0.47287,-1.17187 z m 482.59352,-0.70313 -2.27279,-2.57812 2.57813,2.27279 c 1.41796,1.25004 2.57812,2.4102 2.57812,2.57813 0,0.73526 -0.75919,0.13685 -2.88346,-2.2728 z m -5.625,-4.6875 -2.27279,-2.57812 2.57813,2.27279 c 1.41796,1.25004 2.57812,2.4102 2.57812,2.57813 0,0.73526 -0.75919,0.13685 -2.88346,-2.2728 z M 242.0925,264.375 c 0,-1.80469 0.19294,-2.54297 0.42875,-1.64063 0.2358,0.90235 0.2358,2.37891 0,3.28125 -0.23581,0.90235 -0.42875,0.16407 -0.42875,-1.64062 z m 471.75477,-3.04688 -2.75352,-3.04687 3.04687,2.75352 c 1.67579,1.51444 3.04688,2.88553 3.04688,3.04688 0,0.72427 -0.77356,0.0866 -3.34023,-2.75353 z m -232.04323,-1.40625 -2.27279,-2.57812 2.57812,2.27279 c 1.41797,1.25004 2.57813,2.4102 2.57813,2.57813 0,0.73526 -0.75919,0.13685 -2.88346,-2.2728 z M 241.155,257.8125 c 0,-1.80469 0.19294,-2.54297 0.42875,-1.64063 0.2358,0.90235 0.2358,2.37891 0,3.28125 -0.23581,0.90235 -0.42875,0.16407 -0.42875,-1.64062 z m 466.12977,-2.10938 -2.75352,-3.04687 3.04687,2.75352 c 1.67579,1.51444 3.04688,2.88553 3.04688,3.04688 0,0.72427 -0.77356,0.0866 -3.34023,-2.75353 z m -231.5625,-2.8125 -2.75352,-3.04687 3.04687,2.75352 c 1.67579,1.51444 3.04688,2.88553 3.04688,3.04688 0,0.72427 -0.77356,0.0866 -3.34023,-2.75353 z M 251.25,253.61094 c -4.51522,-0.66442 -8.35474,-0.82067 -8.85938,-0.36053 -1.4524,1.32433 -2.39062,0.93326 -2.39062,-0.99644 0,-1.45918 1.04129,-2.00431 5.39062,-2.82205 2.96485,-0.55743 7.58435,-1.45663 10.26557,-1.9982 4.79816,-0.96917 16.21124,-0.89148 16.21624,0.11039 0.002,0.28207 -1.59725,2.07504 -3.55258,3.98437 -3.98438,3.89065 -4.42049,3.94385 -17.06985,2.08246 z m 449.44218,-3.53282 -1.78593,-2.10937 2.10937,1.78593 c 1.16016,0.98225 2.10938,1.93147 2.10938,2.10937 0,0.75024 -0.75449,0.19636 -2.43282,-1.78593 z M 526.875,247.52377 c 0,-2.91327 -4.56957,-132.31913 -4.97793,-140.97013 -0.25135,-5.32497 -0.0203,-7.478012 0.83797,-7.807346 1.12521,-0.431794 25.57538,19.892846 28.48659,23.679996 0.9064,1.17913 0.52917,1.03708 -1.10247,-0.41514 -4.65854,-4.14624 -4.80162,-3.20279 -4.08712,26.94978 1.23959,52.31196 2.24065,76.24926 3.23012,77.23873 0.6695,0.6695 1.49248,0.57004 2.65123,-0.3204 2.75845,-2.11973 -2.389,3.37163 -12.65853,13.50426 -10.14179,10.00658 -12.37986,11.47821 -12.37986,8.14025 z m 11.56782,-11.12195 7.30508,-7.34817 -0.97199,-31.32371 c -0.5346,-17.22803 -1.21773,-41.44869 -1.51806,-53.82369 -0.30033,-12.375 -0.71944,-23.35784 -0.93135,-24.40632 -0.37597,-1.86016 -16.14606,-15.99287 -16.94937,-15.18956 -0.36367,0.36367 0.65895,32.15146 3.36988,104.75213 0.51022,13.66406 0.93055,27.05859 0.93408,29.76562 0.004,2.70704 0.33272,4.92188 0.73153,4.92188 0.39881,0 4.01241,-3.30668 8.0302,-7.34818 z m 156.65445,8.9888 -2.75352,-3.04687 3.04687,2.75352 c 1.67579,1.51444 3.04688,2.88553 3.04688,3.04688 0,0.72427 -0.77356,0.0866 -3.34023,-2.75353 z M 275.625,243.28125 c 1.21102,-1.28906 2.41278,-2.34375 2.67059,-2.34375 0.25781,0 -0.52207,1.05469 -1.73309,2.34375 -1.21102,1.28906 -2.41278,2.34375 -2.67059,2.34375 -0.25781,0 0.52207,-1.05469 1.73309,-2.34375 z m 192.06791,0.70312 c -1.16613,-1.48693 -1.13297,-1.52009 0.35396,-0.35396 0.90235,0.70767 1.64063,1.44596 1.64063,1.64063 0,0.7716 -0.76987,0.27498 -1.99459,-1.28667 z M 454.6875,203.34179 c -20.36719,-23.22461 -37.03125,-42.92035 -37.03125,-43.7683 0,-1.60239 65.76691,-61.939099 67.60695,-62.024824 0.57444,-0.02681 1.31273,1.908656 1.64063,4.300934 0.80146,5.84735 0.59486,22.09884 -0.24267,19.0879 -0.35857,-1.28906 -1.12858,-2.34375 -1.71114,-2.34375 -1.77641,0 -43.38804,37.2505 -43.38021,38.83373 0.004,0.81332 2.64075,4.45294 5.85938,8.08804 41.27718,46.61815 41.14417,46.47631 42.51344,45.33991 0.74398,-0.61744 1.5239,-0.95141 1.73315,-0.74215 0.28082,0.28082 1.70929,25.88998 1.89804,34.02735 0.011,0.47265 -0.40194,0.98725 -0.91757,1.14355 -0.51562,0.15631 -17.60156,-18.71777 -37.96875,-41.94239 z m 35.54287,27.98633 c -0.17429,-16.41361 1.62585,-13.30616 -25.69912,-44.36278 l -24.375,-27.70379 -8.4375,0.57535 c -4.64063,0.31644 -8.80688,0.94337 -9.25835,1.39319 -0.46844,0.46673 6.7283,9.40067 16.7631,20.80951 9.67118,10.99541 24.80618,28.29475 33.63335,38.44297 8.82717,10.14823 16.36581,18.48026 16.75252,18.51563 0.38672,0.0353 0.66617,-3.41617 0.621,-7.67008 z m 198.76117,8.90625 -2.27279,-2.57812 2.57812,2.27279 c 1.41797,1.25004 2.57813,2.4102 2.57813,2.57813 0,0.73526 -0.75919,0.13685 -2.88346,-2.2728 z m -226.42436,-2.34375 -1.78593,-2.10937 2.10937,1.78593 c 1.16016,0.98225 2.10938,1.93147 2.10938,2.10937 0,0.75024 -0.75449,0.19636 -2.43282,-1.78593 z m 219.40509,-3.75 -2.75352,-3.04687 3.04687,2.75352 c 1.67579,1.51444 3.04688,2.88553 3.04688,3.04688 0,0.72427 -0.77356,0.0866 -3.34023,-2.75353 z m -6.59259,-5.625 -1.78593,-2.10937 2.10937,1.78593 c 1.16016,0.98225 2.10938,1.93147 2.10938,2.10937 0,0.75024 -0.75449,0.19636 -2.43282,-1.78593 z m -6.5625,-5.625 -1.78593,-2.10937 2.10937,1.78593 c 1.98229,1.67833 2.53617,2.43282 1.78593,2.43282 -0.1779,0 -1.12712,-0.94922 -2.10937,-2.10938 z M 297.65625,222.1875 c 0.93327,-1.03125 1.90779,-1.875 2.16561,-1.875 0.25781,0 -0.29484,0.84375 -1.22811,1.875 -0.93327,1.03125 -1.90779,1.875 -2.16561,1.875 -0.25781,0 0.29484,-0.84375 1.22811,-1.875 z m 366.02279,-3.51563 -2.27279,-2.57812 2.57812,2.27279 c 1.41797,1.25004 2.57813,2.4102 2.57813,2.57813 0,0.73526 -0.75919,0.13685 -2.88346,-2.2728 z m -219.70475,-2.02084 -2.74445,-3.36978 3.16513,3.01683 c 1.74081,1.65925 2.97582,3.17566 2.74446,3.36978 -0.23138,0.19412 -1.65569,-1.16345 -3.16514,-3.01683 z m 212.68548,-4.07291 -2.75352,-3.04687 3.04687,2.75352 c 1.67579,1.51444 3.04688,2.88553 3.04688,3.04688 0,0.72427 -0.77356,0.0866 -3.34023,-2.75353 z m -219.40509,-3.75 -1.78593,-2.10937 2.10937,1.78593 c 1.16016,0.98225 2.10938,1.93147 2.10938,2.10937 0,0.75024 -0.75449,0.19636 -2.43282,-1.78593 z m 212.8125,-1.875 -1.78593,-2.10937 2.10937,1.78593 c 1.98229,1.67833 2.53617,2.43282 1.78593,2.43282 -0.1779,0 -1.12712,-0.94922 -2.10937,-2.10938 z m -221.90516,-8.29744 c -3.50309,-4.07313 -6.19151,-7.40568 -5.97429,-7.40568 0.68158,0 13.06723,14.12089 12.69616,14.47491 -0.19395,0.18504 -3.21879,-2.99611 -6.72187,-7.06923 z m -110.34952,4.48847 c 0,-0.16135 1.37109,-1.53244 3.04687,-3.04688 l 3.04688,-2.75352 -2.75352,3.04687 c -2.56667,2.84012 -3.34023,3.4778 -3.34023,2.75353 z M 490.6277,196.875 c 0,-3.86719 0.16548,-5.44922 0.36774,-3.51563 0.20226,1.9336 0.20226,5.09766 0,7.03125 -0.20226,1.9336 -0.36774,0.35157 -0.36774,-3.51562 z m 152.87698,4.45312 -1.78593,-2.10937 2.10937,1.78593 c 1.16016,0.98225 2.10938,1.93147 2.10938,2.10937 0,0.75024 -0.75449,0.19636 -2.43282,-1.78593 z M 591.5625,187.14604 c 0,-0.19467 0.73828,-0.93296 1.64062,-1.64063 1.48694,-1.16613 1.5201,-1.13297 0.35397,0.35396 -1.22472,1.56165 -1.99459,2.05827 -1.99459,1.28667 z M 489.70257,176.25 c 0,-4.38281 0.1615,-6.17578 0.35888,-3.98438 0.19737,2.19141 0.19737,5.77735 0,7.96875 -0.19738,2.19141 -0.35888,0.39844 -0.35888,-3.98437 z m -147.51507,3.28125 c 1.21102,-1.28906 2.41278,-2.34375 2.67059,-2.34375 0.25781,0 -0.52207,1.05469 -1.73309,2.34375 -1.21102,1.28906 -2.41278,2.34375 -2.67059,2.34375 -0.25781,0 0.52207,-1.05469 1.73309,-2.34375 z m 264.01313,-7.44047 c 0.31557,-0.82236 -1.4298,-3.23915 -4.48255,-6.20698 l -4.99933,-4.86026 5.85828,4.94037 c 4.61388,3.89095 5.63498,5.20942 4.80708,6.20698 -1.36321,1.64258 -1.83235,1.61082 -1.18348,-0.0802 z M 488.7527,158.4375 c 0,-3.86719 0.16548,-5.44922 0.36774,-3.51563 0.20226,1.9336 0.20226,5.09766 0,7.03125 -0.20226,1.9336 -0.36774,0.35157 -0.36774,-3.51562 z m -127.8152,3.45665 c 0,-0.16135 1.37109,-1.53244 3.04687,-3.04688 l 3.04688,-2.75352 -2.75352,3.04687 c -2.56667,2.84012 -3.34023,3.4778 -3.34023,2.75353 z m 229.21875,-5.92218 -5.625,-5.23254 5.85937,4.8793 c 5.0951,4.24285 6.55535,5.69882 5.625,5.60853 -0.1289,-0.0126 -2.76562,-2.3774 -5.85937,-5.25529 z m -9.43398,-8.08135 -2.75352,-3.04687 3.04687,2.75352 c 1.67579,1.51444 3.04688,2.88553 3.04688,3.04688 0,0.72427 -0.77356,0.0866 -3.34023,-2.75353 z m -6.10573,-5.15625 -2.27279,-2.57812 2.57812,2.27279 c 1.41797,1.25004 2.57813,2.4102 2.57813,2.57813 0,0.73526 -0.75919,0.13685 -2.88346,-2.2728 z m -86.80891,-6.32812 c 0.004,-3.60938 0.17361,-4.97106 0.37656,-3.02597 0.20294,1.9451 0.19953,4.89822 -0.007,6.5625 -0.20711,1.66429 -0.37316,0.0728 -0.36899,-3.53653 z m 79.30891,-0.23438 -2.27279,-2.57812 2.57812,2.27279 c 1.41797,1.25004 2.57813,2.4102 2.57813,2.57813 0,0.73526 -0.75919,0.13685 -2.88346,-2.2728 z m -5.67363,-4.6875 c -1.16613,-1.48693 -1.13297,-1.52009 0.35396,-0.35396 0.90235,0.70767 1.64063,1.44596 1.64063,1.64063 0,0.7716 -0.76987,0.27498 -1.99459,-1.28667 z m -6.06323,-5.15624 -1.78593,-2.10938 2.10937,1.78593 c 1.98229,1.67833 2.53617,2.43282 1.78593,2.43282 -0.1779,0 -1.12712,-0.94922 -2.10937,-2.10937 z M 406.875,117.65625 c 1.21102,-1.28906 2.41278,-2.34375 2.67059,-2.34375 0.25781,0 -0.52207,1.05469 -1.73309,2.34375 -1.21102,1.28906 -2.41278,2.34375 -2.67059,2.34375 -0.25781,0 0.52207,-1.05469 1.73309,-2.34375 z M 427.5,98.144147 c 0,-0.161344 1.37109,-1.532438 3.04687,-3.046875 l 3.04688,-2.753522 -2.75352,3.046875 C 428.27356,98.230744 427.5,98.868422 427.5,98.144147 Z M 450,76.521042 c 0,-0.194677 0.73828,-0.932959 1.64062,-1.640625 1.48694,-1.166129 1.5201,-1.132969 0.35397,0.353958 C 450.76987,76.796014 450,77.292637 450,76.521042 Z M 473.4375,53.90625 c 1.74917,-1.804688 3.39125,-3.28125 3.64906,-3.28125 0.25781,0 -0.96239,1.476562 -2.71156,3.28125 -1.74917,1.804687 -3.39125,3.28125 -3.64906,3.28125 -0.25781,0 0.96239,-1.476563 2.71156,-3.28125 z"
       id="path4144"
       inkscape:connector-curvature="0" />
    <path
       style="fill:#5a5a32"
       d="m 850.08641,792.92867 c 1.09552,-1.32002 2.07988,-10.87098 7.22652,-70.11617 1.32138,-15.21094 2.8115,-32.08594 3.31139,-37.5 0.49988,-5.41406 1.5466,-17.22656 2.32605,-26.25 0.77944,-9.02344 2.46916,-28.42969 3.75494,-43.125 2.72555,-31.15092 8.47687,-96.91189 9.839,-112.5 0.51816,-5.92969 1.5639,-17.74219 2.32388,-26.25 0.75998,-8.50781 2.45524,-28.125 3.76724,-43.59375 1.31201,-15.46875 2.62886,-30.39429 2.92635,-33.16788 l 0.54088,-5.04288 6.16912,0.63205 c 7.4181,0.76 8.01825,1.06628 6.74636,3.44284 -0.54281,1.01426 -1.61224,8.68787 -2.3765,17.05248 -1.94901,21.33129 -14.83277,161.69834 -18.26162,198.95839 -1.56587,17.01562 -3.45838,37.89844 -4.2056,46.40625 -0.74722,8.50781 -1.97804,21.58594 -2.73514,29.0625 -0.75712,7.47656 -2.04009,21.1875 -2.85106,30.46875 -0.81098,9.28125 -2.22621,25.12655 -3.14497,35.21177 l -1.67047,18.33678 -5.66246,9.31947 c -3.3222,5.46778 -6.382,9.46103 -7.40342,9.66199 -1.42053,0.27946 -1.53474,0.094 -0.62049,-1.00759 z m 9.02527,-12.7524 3.30993,-5.44874 3.77907,-41.19189 c 2.07849,-22.65554 5.68399,-61.86377 8.0122,-87.12939 2.32822,-25.26563 5.06558,-55.21875 6.08303,-66.5625 1.01745,-11.34375 2.92546,-32.22656 4.24002,-46.40625 1.31456,-14.17969 4.27309,-46.24219 6.57451,-71.25 2.30141,-25.00781 4.55591,-49.05469 5.01001,-53.4375 0.9361,-9.03513 0.51888,-9.99983 -4.53027,-10.47503 -3.25115,-0.306 -3.25403,-0.30274 -3.87197,4.38128 -0.34012,2.57812 -1.1139,10.80469 -1.71952,18.28125 -0.60562,7.47656 -1.49767,17.8125 -1.98236,22.96875 -1.3888,14.77449 -4.54497,50.4609 -5.55527,62.8125 -0.50611,6.1875 -2.41836,28.125 -4.24943,48.75 -3.46764,39.05886 -4.84319,54.81822 -7.93744,90.9375 -1.01597,11.85937 -3.35499,38.64844 -5.19781,59.53125 -1.84284,20.88281 -3.96039,44.92969 -4.70567,53.4375 -0.74529,8.50781 -1.62402,17.89453 -1.95274,20.85937 -0.77253,6.9679 0.43471,6.95295 4.69371,-0.0581 z m -538.7821,-190.1592 c -0.33437,-0.33436 -0.39251,-1.49452 -0.1292,-2.57813 0.26331,-1.08361 -2.04876,-23.48582 -5.13792,-49.78269 -3.08917,-26.29687 -8.00262,-68.10623 -10.91878,-92.90968 l -5.30209,-45.09719 11.12608,-15.46169 c 42.83199,-59.52273 55.31216,-76.62339 56.19989,-77.00658 0.55622,-0.24009 3.08747,-0.0657 5.625,0.38749 2.53753,0.4532 5.95899,1.05932 7.60325,1.34693 l 2.98955,0.52293 -28.5048,38.37807 c -15.67764,21.10794 -29.64097,40.09495 -31.02963,42.19335 l -2.52483,3.81528 3.01084,27.3843 c 4.50956,41.01538 10.02385,91.22381 13.7158,124.88429 1.80975,16.5 3.38901,30.83869 3.50948,31.86375 0.17203,1.46383 -1.79263,3.0051 -9.15597,7.18286 -10.15922,5.76405 -10.18012,5.77327 -11.07667,4.87671 z m 9.24522,-5.47252 c 2.98482,-1.79736 6.16102,-3.50092 7.05822,-3.78568 0.8972,-0.28476 1.82441,-1.02903 2.06047,-1.65394 0.23607,-0.6249 -2.03237,-23.49555 -5.04098,-50.82368 -6.61821,-60.11528 -8.37903,-76.3181 -11.66546,-107.34375 -1.39276,-13.14844 -2.86674,-24.27196 -3.27549,-24.71893 -0.41085,-0.44928 -4.39505,0.3757 -8.90973,1.84486 l -8.16657,2.65755 0.53692,6.59264 c 0.2953,3.62595 1.59799,15.66294 2.89487,26.74888 1.29686,11.08594 5.75373,49.26562 9.90415,84.84375 7.29517,62.53548 8.1124,68.90625 8.83933,68.90625 0.18551,0 2.77944,-1.47057 5.76427,-3.26795 z M 822.96272,475.03961 c -5.65781,-7.51728 -6.19533,-8.20999 -41.98025,-54.10211 -16.68568,-21.39844 -32.19834,-41.11585 -34.47257,-43.81647 -2.27423,-2.70062 -3.9181,-5.26111 -3.65304,-5.68999 0.26506,-0.42887 5.6721,0.18508 12.01566,1.36433 6.34355,1.17926 12.58842,2.16418 13.87748,2.18872 3.18232,0.0606 4.76514,1.18587 3.81974,2.71557 -0.59728,0.96641 -1.21384,1.00574 -2.76369,0.17628 -1.46913,-0.78625 -20.10418,-4.75094 -22.33063,-4.75094 -1.51606,0 0.91795,4.09916 7.02628,11.83306 4.02281,5.09338 12.74832,16.22163 19.39002,24.72944 6.6417,8.50781 15.26828,19.53361 19.17018,24.50178 3.90189,4.96816 12.78966,16.43935 19.7506,25.49153 6.96094,9.05217 13.14572,16.48341 13.74397,16.51385 1.37171,0.0697 3.20858,-20.75821 2.14482,-24.31966 -0.24245,-0.81168 0.17453,-1.40625 0.98621,-1.40625 0.91565,0 1.35307,0.81768 1.25384,2.34375 -0.0838,1.28906 -0.46307,8.14453 -0.84277,15.23437 -0.4488,8.38035 -1.05152,12.87715 -1.72259,12.85212 -0.56773,-0.0212 -3.00369,-2.65791 -5.41326,-5.85938 z m 103.30789,-74.96149 c 1.31673,-3.02587 5.63815,-48.82691 4.69723,-49.78414 -0.43237,-0.43988 -12.51664,-2.48244 -26.85393,-4.53901 -18.44438,-2.64572 -26.63602,-4.19393 -28.01078,-5.29398 -2.10468,-1.68413 -61.36579,-51.03185 -238.10377,-198.273 C 575.5919,90.196074 523.60035,46.953887 522.46258,46.094242 c -1.69666,-1.281919 -2.22103,-2.996014 -2.91591,-9.531742 -0.466,-4.382813 -0.80048,-8.039301 -0.74331,-8.125529 0.0572,-0.08623 5.27167,0.08132 11.58779,0.372319 l 11.48385,0.529097 0,5.894775 c 0,3.242127 0.3912,6.923699 0.86932,8.181271 l 0.86933,2.286494 -8.30902,-0.358519 c -4.74195,-0.204607 -8.54896,0.02973 -8.86795,0.545858 -0.46295,0.749053 33.62176,29.555577 117.13409,98.995314 41.91339,34.8506 115.56493,96.15633 126.11673,104.97646 59.56939,49.79338 106.59155,88.81025 107.48908,89.18958 1.40769,0.59494 10.59709,-5.41092 10.61907,-6.94025 0.0204,-1.41269 1.08763,-1.47934 3.95712,-0.24711 1.18441,0.50862 13.33317,2.43216 26.99723,4.27455 13.66406,1.84238 25.09144,3.64109 25.39416,3.99711 0.30271,0.35603 -0.75197,12.07389 -2.34375,26.03968 l -2.89416,25.39235 -5.75031,5.31077 c -6.17448,5.70254 -8.4301,6.75131 -6.88533,3.2014 z m 8.30511,-5.74405 c 2.65306,-2.73725 3.17928,-4.10182 3.88662,-10.07812 3.29325,-27.82608 4.2631,-40.19496 3.15094,-40.18897 -0.45759,0.003 -2.36456,1.41214 -4.23758,3.13261 -3.15434,2.89739 -3.45236,3.64046 -4.04012,10.07364 -0.90822,9.94082 -3.26409,32.57098 -3.82172,36.71115 -0.60686,4.50568 0.93077,4.6119 5.06186,0.34969 z M 540.9375,37.008046 c 0,-4.69718 -0.22391,-5.264587 -2.40478,-6.09375 C 537.21009,30.411433 532.99134,30 529.15772,30 l -6.97022,0 0,6.09375 0,6.09375 9.375,0 9.375,0 0,-5.179454 z M 293.64462,355.07812 c -3.05508,-24.10352 -7.01491,-60.77033 -6.60695,-61.17829 0.4678,-0.4678 24.33345,3.19639 25.04905,3.84589 0.20239,0.18368 -0.15208,0.9606 -0.7877,1.72646 -1.64624,1.9836 1.4224,30.25707 3.5482,32.69208 1.01418,1.16169 1.19745,2.10646 0.58212,3.00082 -0.49395,0.71794 -4.59792,6.58693 -9.11993,13.04222 -4.52201,6.45529 -8.46949,12.38226 -8.77218,13.17104 -0.30269,0.78879 -1.08178,1.43416 -1.73131,1.43416 -0.77499,0 -1.51799,-2.65889 -2.1613,-7.73438 z m 11.5079,-8.75546 7.39003,-10.86483 -1.66168,-15.61954 c -2.43082,-22.84922 -1.11366,-20.31496 -11.53368,-22.19113 -4.89121,-0.88068 -9.20526,-1.23892 -9.58676,-0.79607 -0.38151,0.44283 0.66252,12.29315 2.32006,26.33403 3.67183,31.10368 4.09665,34.00238 4.98319,34.00238 0.38435,0 4.02433,-4.88918 8.08884,-10.86484 z M 775.3125,327.5585 C 767.32031,326.35125 717.32812,319.22131 664.21875,311.71418 537.37796,293.78497 531.0251,292.85793 529.79687,292.09884 529.18263,291.71922 528.75,288.65782 528.75,284.69095 l 0,-6.76089 47.9818,-45.4494 c 26.39,-24.99718 48.52449,-45.58313 49.18776,-45.74656 1.8327,-0.45158 9.55945,7.34623 7.92272,7.99558 -0.72268,0.28672 -19.918,17.8846 -42.65625,39.10643 l -41.34228,38.58512 0,6.01906 c 0,5.48736 0.20704,6.12108 2.34375,7.17398 1.97844,0.9749 22.40473,3.85152 119.53125,16.8335 5.15625,0.68918 29.54453,4.00632 54.19619,7.3714 24.65166,3.36508 45.81572,6.11833 47.03125,6.11833 1.21553,0 2.38949,-0.52734 2.60879,-1.17188 0.40981,-1.20441 16.65189,12.01125 17.35529,14.12145 0.4597,1.3791 0.19532,1.35914 -17.59777,-1.32857 z M 540.81791,286.91062 547.5,284.9206 l 0,-4.75214 0,-4.75213 -3.11819,0.58497 c -1.71501,0.32174 -5.40641,1.31791 -8.20313,2.21371 -4.89295,1.56725 -5.09613,1.76519 -5.38177,5.24295 -0.36545,4.44945 0.3744,6.58026 2.06016,5.93337 0.70332,-0.26988 4.28569,-1.38621 7.96084,-2.48071 z m -205.534,16.36525 c -0.32653,-0.85093 0.003,-1.40087 0.83926,-1.40087 1.5163,0 1.86125,1.46496 0.53756,2.28304 -0.46159,0.28528 -1.08116,-0.1117 -1.37682,-0.88217 z m 66.90359,-28.63734 c -49.75781,-7.12707 -91.73438,-13.09026 -93.28125,-13.25154 -1.54688,-0.16129 -2.8125,-0.74182 -2.8125,-1.2901 0,-1.42678 95.9999,-88.00832 97.95902,-88.34846 1.01759,-0.17668 3.14899,1.53262 5.67869,4.55407 3.54165,4.23011 3.85252,4.94723 2.47809,5.71641 -3.40538,1.90575 -81.27205,71.42466 -81.27205,72.55922 0,0.66571 1.16016,1.4454 2.57812,1.73264 9.90817,2.00711 156.02456,21.21605 158.48275,20.83467 l 3.09212,-0.47974 -0.27962,5.26495 c -0.15379,2.89573 -0.70149,5.35524 -1.21712,5.46557 -0.51562,0.11033 -41.64844,-5.63063 -91.40625,-12.7577 z M 253.59375,253.51326 c -4.64063,-0.70473 -9.36727,-1.18586 -10.50364,-1.06917 -3.31541,0.34044 -2.63103,-1.60098 0.80861,-2.29378 12.9009,-2.59844 18.72564,-3.3493 22.58565,-2.91152 2.44922,0.27778 4.45313,0.84135 4.45313,1.25238 0,1.05653 -6.79103,6.53013 -7.94798,6.40612 -0.52705,-0.0565 -4.75515,-0.67932 -9.39577,-1.38403 z m 273.81293,-5.31014 c -0.19084,-0.64453 -0.81539,-15.51562 -1.38788,-33.04687 -0.57249,-17.53125 -1.73064,-50.76231 -2.57367,-73.84679 -0.84304,-23.08449 -1.28188,-42.222713 -0.97521,-42.529379 0.58793,-0.587925 24.09258,19.134959 24.09258,20.216219 0,0.34578 -0.47487,1.10357 -1.05527,1.68397 -1.65719,1.65719 1.63728,104.31895 3.40525,106.114 1.11996,1.13711 -0.25352,2.8333 -9.66285,11.93314 -6.03261,5.83418 -11.08709,10.61661 -11.23217,10.6276 -0.1451,0.011 -0.41995,-0.50735 -0.61079,-1.15189 z m 11.60982,-11.49307 7.78659,-7.97744 -0.56046,-7.25694 c -0.30825,-3.9913 -1.01803,-27.29598 -1.57726,-51.78817 -0.55925,-24.49219 -1.225,-46.28573 -1.47945,-48.4301 -0.42122,-3.54972 -1.21193,-4.5361 -8.83034,-11.01562 -4.60223,-3.91423 -8.80302,-7.11678 -9.3351,-7.11678 -0.63283,0 -0.79483,3.16117 -0.46843,9.14063 0.53877,9.86984 1.67764,41.9859 3.28292,92.57812 1.05691,33.30994 1.49659,39.84375 2.68118,39.84375 0.39257,0 4.21773,-3.58985 8.50035,-7.97745 z m -68.12792,-15.69078 c -35.39913,-40.32932 -45.28817,-51.55812 -49.64383,-56.36955 -2.27493,-2.51296 -3.99945,-4.97936 -3.83228,-5.48089 0.58696,-1.76088 67.67906,-61.639055 68.29838,-60.954755 0.34454,0.3807 0.91355,4.806195 1.26448,9.834445 l 0.63804,9.14228 -2.4657,0.93746 c -1.35613,0.5156 -10.13554,7.74484 -19.5098,16.06496 -22.10036,19.61519 -25.01287,22.31964 -25.01287,23.22603 0,0.41443 -4.29614,1.24204 -9.54698,1.83912 -5.25085,0.59708 -9.77108,1.30969 -10.04497,1.58358 -0.75252,0.75253 -1.02403,0.43028 34.59195,41.05593 18.30469,20.87939 33.86572,37.99393 34.58009,38.03232 1.07604,0.0578 1.18217,-1.97804 0.61871,-11.8683 -0.37406,-6.56596 -1.09818,-12.71928 -1.60916,-13.67404 -1.07458,-2.00788 -0.48829,-2.96237 1.37939,-2.24568 1.00178,0.38442 1.45015,4.20035 1.95507,16.63867 0.36036,8.87693 0.49508,16.29997 0.29939,16.49565 -0.19568,0.1957 -10.07764,-10.72006 -21.95991,-24.25723 z M 495.67346,44.33949 c -0.23506,-0.410157 -0.71785,-3.410945 -1.07288,-6.668418 -0.35503,-3.257473 -0.87741,-6.527004 -1.16084,-7.265625 -0.42192,-1.09949 0.90498,-1.343285 7.31933,-1.344807 l 7.83468,-0.0019 -0.46875,7.736236 -0.46875,7.736235 -5.77771,0.27699 c -3.17774,0.152345 -5.97003,-0.05859 -6.20508,-0.46875 z m 9.45871,-2.020701 c 0.82719,-0.524613 1.13211,-2.425729 0.9375,-5.845019 l -0.28842,-5.06752 -4.45313,-0.285742 -4.45312,-0.285741 0,5.520116 c 0,3.036065 0.28125,5.801367 0.625,6.145117 0.87826,0.878266 6.15935,0.752877 7.63217,-0.181211 z"
       id="path4142"
       inkscape:connector-curvature="0" />
    <path
       style="fill:#1b1b13"
       d="m 301.04395,398.6281 c 0.39484,-1.13959 61.63976,-85.92715 64.33498,-89.06544 1.55527,-1.81093 2.03015,-1.85919 8.08488,-0.82143 3.53792,0.60639 6.44881,1.46591 6.46866,1.91006 0.0199,0.44415 -8.77071,12.67853 -19.53458,27.1875 -27.99219,37.73161 -38.16869,51.48053 -39.77289,53.73502 -0.86456,1.21503 -4.47582,2.97058 -9.375,4.55749 -4.38281,1.41964 -8.55366,2.79747 -9.26855,3.06183 -0.71489,0.26436 -1.13676,0.0101 -0.9375,-0.56503 z M 940.78125,341.25 c -0.31866,-0.51563 0.28922,-0.9375 1.35094,-0.9375 1.06162,0 1.93031,0.42187 1.93031,0.9375 0,0.51562 -0.60788,0.9375 -1.35094,0.9375 -0.74297,0 -1.61165,-0.42188 -1.93031,-0.9375 z m -60.9375,-0.9375 c 0.31867,-0.51563 0.97639,-0.9375 1.46158,-0.9375 0.4852,0 0.88217,0.42187 0.88217,0.9375 0,0.51562 -0.65771,0.9375 -1.46158,0.9375 -0.80387,0 -1.20084,-0.42188 -0.88217,-0.9375 z M 789.375,328.125 c -0.74357,-0.45955 -1.14101,-1.04648 -0.8832,-1.3043 0.25781,-0.25781 1.07713,-0.0927 1.8207,0.3668 0.74357,0.45955 1.14101,1.04648 0.8832,1.3043 -0.25781,0.25781 -1.07713,0.0927 -1.8207,-0.3668 z m -13.125,-11.25 c 0,-0.51563 0.42187,-0.9375 0.9375,-0.9375 0.51562,0 0.9375,0.42187 0.9375,0.9375 0,0.51562 -0.42188,0.9375 -0.9375,0.9375 -0.51563,0 -0.9375,-0.42188 -0.9375,-0.9375 z M 531.5625,291.5625 c -1.16634,-0.75375 -1.08638,-0.91342 0.46875,-0.93594 1.03125,-0.0149 2.83049,-0.28318 3.99831,-0.59609 1.68903,-0.45257 2.00407,-0.25821 1.54032,0.95029 -0.64547,1.68206 -3.82788,1.99024 -6.00738,0.58174 z m -0.32938,-14.23557 c 0.32797,-0.67825 5.0714,-5.46331 10.54097,-10.63348 5.46956,-5.17017 26.55477,-25.10376 46.85602,-44.29688 C 608.93137,203.20346 625.84154,187.5 626.20829,187.5 c 0.36675,0 2.2037,1.37109 4.08211,3.04687 l 3.4153,3.04688 -40.83477,37.96875 c -22.45911,20.88281 -41.80848,39.10552 -42.99858,40.49489 -1.1901,1.38938 -2.34384,2.34611 -2.56387,2.12608 -0.34032,-0.34032 -7.83928,1.57334 -14.7072,3.75313 -1.43516,0.45551 -1.80381,0.29123 -1.36816,-0.60967 z M 307.5,259.72566 c 0,-1.32408 95.32122,-87.22566 96.7905,-87.22566 0.68747,0 2.78426,1.83553 4.65953,4.07896 l 3.40959,4.07896 -41.17981,36.40346 C 348.08265,237.47956 330,254.14763 330,255.01978 c 0,1.18839 -1.54624,1.83126 -6.55945,2.72717 -3.60771,0.64474 -6.79666,1.55605 -7.08658,2.02515 -0.70532,1.14122 -8.85397,1.09848 -8.85397,-0.0464 z m -61.16094,-9.13872 c 1.16616,-0.22424 2.85366,-0.21572 3.75,0.0189 0.89633,0.23465 -0.0579,0.41813 -2.12031,0.40772 -2.0625,-0.0104 -2.79586,-0.2024 -1.62969,-0.42664 z m 172.35826,-91.46192 c 0.96315,-1.71914 65.14425,-59.75002 66.08243,-59.75002 0.34292,0 0.92871,3.66425 1.30177,8.14278 l 0.67829,8.14277 -2.61756,1.90676 c -3.0403,2.2147 -34.4803,29.8098 -40.70475,35.72682 -4.11397,3.91078 -4.44385,4.0361 -13.28177,5.04528 -4.98467,0.56918 -9.78963,1.3137 -10.67768,1.65448 -1.27053,0.48755 -1.43693,0.30236 -0.78073,-0.86887 z M 521.71875,44.0625 c -0.31867,-0.515625 -0.15753,-0.9375 0.3581,-0.9375 0.51562,0 1.19823,0.421875 1.5169,0.9375 0.31867,0.515625 0.15753,0.9375 -0.3581,0.9375 -0.51562,0 -1.19823,-0.421875 -1.5169,-0.9375 z"
       id="path4140"
       inkscape:connector-curvature="0" />
  </g>
</svg>
