<?xml version="1.0" encoding="UTF-8"?>
<svg width="64" height="64" version="1.1" viewBox="0 0 16.93 16.93" xmlns="http://www.w3.org/2000/svg">
 <rect x=".7547" y=".7547" width="15.42" height="15.42" ry="3.148" fill="#f66" stroke-linecap="round" stroke-linejoin="round" stroke-width=".975"/>
 <g fill="#fff" stroke-width=".2645" aria-label="VP">
  <path d="m4.333 12.16-1.958-7.386h1.767l0.8677 3.756 0.4338 2.127h0.08465l0.4444-2.127 0.8782-3.756h1.682l-1.958 7.386z"/>
  <path d="m9.433 12.16v-7.386h2.857q0.5396 0 0.9629 0.1693 0.4233 0.1587 0.7089 0.4656 0.2963 0.3069 0.4444 0.7407t0.1481 0.9735q0 0.5396-0.1481 0.9735t-0.4444 0.7407q-0.2857 0.3069-0.7089 0.4762-0.4233 0.1587-0.9629 0.1587h-1.259v2.688zm1.598-3.968h0.8571q0.5608 0 0.7724-0.2116 0.2222-0.2116 0.2222-0.6984v-0.3174q0-0.4867-0.2222-0.6984-0.2116-0.2116-0.7724-0.2116h-0.8571z"/>
 </g>
</svg>
