<?xml version="1.0" encoding="UTF-8" standalone="no"?>
<!-- Created with Inkscape (http://www.inkscape.org/) -->

<svg
   width="210mm"
   height="297mm"
   viewBox="0 0 210 297"
   version="1.1"
   id="svg5"
   xml:space="preserve"
   inkscape:version="1.2.2 (b0a8486541, 2022-12-01)"
   sodipodi:docname="taperedballnose.svg"
   xmlns:inkscape="http://www.inkscape.org/namespaces/inkscape"
   xmlns:sodipodi="http://sodipodi.sourceforge.net/DTD/sodipodi-0.dtd"
   xmlns:xlink="http://www.w3.org/1999/xlink"
   xmlns="http://www.w3.org/2000/svg"
   xmlns:svg="http://www.w3.org/2000/svg"><sodipodi:namedview
     id="namedview7"
     pagecolor="#ffffff"
     bordercolor="#666666"
     borderopacity="1.0"
     inkscape:showpageshadow="2"
     inkscape:pageopacity="0.0"
     inkscape:pagecheckerboard="true"
     inkscape:deskcolor="#d1d1d1"
     inkscape:document-units="mm"
     showgrid="false"
     inkscape:zoom="0.45916073"
     inkscape:cx="91.471238"
     inkscape:cy="792.75073"
     inkscape:window-width="1680"
     inkscape:window-height="1050"
     inkscape:window-x="1680"
     inkscape:window-y="1050"
     inkscape:window-maximized="0"
     inkscape:current-layer="g547"
     showguides="true" /><defs
     id="defs2"><linearGradient
       inkscape:collect="always"
       id="linearGradient2387"><stop
         style="stop-color:#2e2e2e;stop-opacity:1;"
         offset="0"
         id="stop2383" /><stop
         style="stop-color:#a09e9e;stop-opacity:1;"
         offset="1"
         id="stop2385" /></linearGradient><linearGradient
       inkscape:collect="always"
       xlink:href="#linearGradient2387"
       id="linearGradient2389"
       x1="96.292923"
       y1="98.227234"
       x2="115.44387"
       y2="101.37556"
       gradientUnits="userSpaceOnUse"
       gradientTransform="matrix(2.1039352,0,0,2.0769214,-118.55184,-31.78813)" /><marker
       style="overflow:visible"
       id="marker1181-3"
       refX="0"
       refY="0"
       orient="auto"><path
         transform="matrix(1.1,0,0,1.1,1.1,0)"
         d="M 8.7185878,4.0337352 -2.2072895,0.01601326 8.7185884,-4.0017078 c -1.7454984,2.3720609 -1.7354408,5.6174519 -6e-7,8.035443 z"
         style="fill:#000000;fill-opacity:1;fill-rule:evenodd;stroke:#000000;stroke-width:0.625;stroke-linejoin:round;stroke-opacity:1"
         id="path1179-6" /></marker><marker
       style="overflow:visible"
       id="marker1185-7"
       refX="0"
       refY="0"
       orient="auto"><path
         transform="matrix(-1.1,0,0,-1.1,-1.1,0)"
         d="M 8.7185878,4.0337352 -2.2072895,0.01601326 8.7185884,-4.0017078 c -1.7454984,2.3720609 -1.7354408,5.6174519 -6e-7,8.035443 z"
         style="fill:#000000;fill-opacity:1;fill-rule:evenodd;stroke:#000000;stroke-width:0.625;stroke-linejoin:round;stroke-opacity:1"
         id="path1183-5" /></marker><marker
       style="overflow:visible"
       id="marker1181-3-6"
       refX="0"
       refY="0"
       orient="auto"><path
         transform="matrix(1.1,0,0,1.1,1.1,0)"
         d="M 8.7185878,4.0337352 -2.2072895,0.01601326 8.7185884,-4.0017078 c -1.7454984,2.3720609 -1.7354408,5.6174519 -6e-7,8.035443 z"
         style="fill:#000000;fill-opacity:1;fill-rule:evenodd;stroke:#000000;stroke-width:0.625;stroke-linejoin:round;stroke-opacity:1"
         id="path1179-6-7" /></marker><marker
       style="overflow:visible"
       id="marker1185-7-5"
       refX="0"
       refY="0"
       orient="auto"><path
         transform="matrix(-1.1,0,0,-1.1,-1.1,0)"
         d="M 8.7185878,4.0337352 -2.2072895,0.01601326 8.7185884,-4.0017078 c -1.7454984,2.3720609 -1.7354408,5.6174519 -6e-7,8.035443 z"
         style="fill:#000000;fill-opacity:1;fill-rule:evenodd;stroke:#000000;stroke-width:0.625;stroke-linejoin:round;stroke-opacity:1"
         id="path1183-5-3" /></marker><marker
       style="overflow:visible"
       id="Arrow2Lstart-3"
       refX="0"
       refY="0"
       orient="auto"><path
         transform="matrix(1.1,0,0,1.1,1.1,0)"
         d="M 8.7185878,4.0337352 -2.2072895,0.01601326 8.7185884,-4.0017078 c -1.7454984,2.3720609 -1.7354408,5.6174519 -6e-7,8.035443 z"
         style="fill:#000000;fill-opacity:1;fill-rule:evenodd;stroke:#000000;stroke-width:0.625;stroke-linejoin:round;stroke-opacity:1"
         id="path917-5" /></marker><marker
       style="overflow:visible"
       id="Arrow2Lend-6"
       refX="0"
       refY="0"
       orient="auto"><path
         transform="matrix(-1.1,0,0,-1.1,-1.1,0)"
         d="M 8.7185878,4.0337352 -2.2072895,0.01601326 8.7185884,-4.0017078 c -1.7454984,2.3720609 -1.7354408,5.6174519 -6e-7,8.035443 z"
         style="fill:#000000;fill-opacity:1;fill-rule:evenodd;stroke:#000000;stroke-width:0.625;stroke-linejoin:round;stroke-opacity:1"
         id="path920-2" /></marker><marker
       style="overflow:visible"
       id="marker1181"
       refX="0"
       refY="0"
       orient="auto"><path
         transform="matrix(1.1,0,0,1.1,1.1,0)"
         d="M 8.7185878,4.0337352 -2.2072895,0.01601326 8.7185884,-4.0017078 c -1.7454984,2.3720609 -1.7354408,5.6174519 -6e-7,8.035443 z"
         style="fill:#000000;fill-opacity:1;fill-rule:evenodd;stroke:#000000;stroke-width:0.625;stroke-linejoin:round;stroke-opacity:1"
         id="path1179" /></marker><marker
       style="overflow:visible"
       id="marker1185"
       refX="0"
       refY="0"
       orient="auto"><path
         transform="matrix(-1.1,0,0,-1.1,-1.1,0)"
         d="M 8.7185878,4.0337352 -2.2072895,0.01601326 8.7185884,-4.0017078 c -1.7454984,2.3720609 -1.7354408,5.6174519 -6e-7,8.035443 z"
         style="fill:#000000;fill-opacity:1;fill-rule:evenodd;stroke:#000000;stroke-width:0.625;stroke-linejoin:round;stroke-opacity:1"
         id="path1183" /></marker><marker
       style="overflow:visible"
       id="marker1173"
       refX="0"
       refY="0"
       orient="auto"><path
         transform="matrix(1.1,0,0,1.1,1.1,0)"
         d="M 8.7185878,4.0337352 -2.2072895,0.01601326 8.7185884,-4.0017078 c -1.7454984,2.3720609 -1.7354408,5.6174519 -6e-7,8.035443 z"
         style="fill:#000000;fill-opacity:1;fill-rule:evenodd;stroke:#000000;stroke-width:0.625;stroke-linejoin:round;stroke-opacity:1"
         id="path1171" /></marker><marker
       style="overflow:visible"
       id="marker1177"
       refX="0"
       refY="0"
       orient="auto"><path
         transform="matrix(-1.1,0,0,-1.1,-1.1,0)"
         d="M 8.7185878,4.0337352 -2.2072895,0.01601326 8.7185884,-4.0017078 c -1.7454984,2.3720609 -1.7354408,5.6174519 -6e-7,8.035443 z"
         style="fill:#000000;fill-opacity:1;fill-rule:evenodd;stroke:#000000;stroke-width:0.625;stroke-linejoin:round;stroke-opacity:1"
         id="path1175" /></marker><marker
       style="overflow:visible"
       id="Arrow2Lstart"
       refX="0"
       refY="0"
       orient="auto"><path
         transform="matrix(1.1,0,0,1.1,1.1,0)"
         d="M 8.7185878,4.0337352 -2.2072895,0.01601326 8.7185884,-4.0017078 c -1.7454984,2.3720609 -1.7354408,5.6174519 -6e-7,8.035443 z"
         style="fill:#000000;fill-opacity:1;fill-rule:evenodd;stroke:#000000;stroke-width:0.625;stroke-linejoin:round;stroke-opacity:1"
         id="path917" /></marker><marker
       style="overflow:visible"
       id="Arrow2Lend"
       refX="0"
       refY="0"
       orient="auto"><path
         transform="matrix(-1.1,0,0,-1.1,-1.1,0)"
         d="M 8.7185878,4.0337352 -2.2072895,0.01601326 8.7185884,-4.0017078 c -1.7454984,2.3720609 -1.7354408,5.6174519 -6e-7,8.035443 z"
         style="fill:#000000;fill-opacity:1;fill-rule:evenodd;stroke:#000000;stroke-width:0.625;stroke-linejoin:round;stroke-opacity:1"
         id="path920" /></marker><marker
       style="overflow:visible"
       id="Arrow2Lstart-36"
       refX="0"
       refY="0"
       orient="auto"><path
         transform="matrix(1.1,0,0,1.1,1.1,0)"
         d="M 8.7185878,4.0337352 -2.2072895,0.01601326 8.7185884,-4.0017078 c -1.7454984,2.3720609 -1.7354408,5.6174519 -6e-7,8.035443 z"
         style="fill:#000025;fill-opacity:1;fill-rule:evenodd;stroke:#000025;stroke-width:0.625;stroke-linejoin:round;stroke-opacity:1"
         id="path917-7" /></marker><marker
       style="overflow:visible"
       id="Arrow2Lend-5"
       refX="0"
       refY="0"
       orient="auto"><path
         transform="matrix(-1.1,0,0,-1.1,-1.1,0)"
         d="M 8.7185878,4.0337352 -2.2072895,0.01601326 8.7185884,-4.0017078 c -1.7454984,2.3720609 -1.7354408,5.6174519 -6e-7,8.035443 z"
         style="fill:#000025;fill-opacity:1;fill-rule:evenodd;stroke:#000025;stroke-width:0.625;stroke-linejoin:round;stroke-opacity:1"
         id="path920-3" /></marker><linearGradient
       inkscape:collect="always"
       id="linearGradient82685"><stop
         style="stop-color:#cecece;stop-opacity:1;"
         offset="0"
         id="stop82681" /><stop
         style="stop-color:#fdfdfd;stop-opacity:1;"
         offset="0.25040859"
         id="stop87441" /><stop
         style="stop-color:#6d6d6d;stop-opacity:1;"
         offset="0.55378878"
         id="stop92591" /><stop
         style="stop-color:#bebebe;stop-opacity:1;"
         offset="1"
         id="stop82683" /></linearGradient><linearGradient
       inkscape:collect="always"
       xlink:href="#linearGradient82685"
       id="linearGradient41"
       gradientUnits="userSpaceOnUse"
       gradientTransform="matrix(0.94381837,0,0,0.94381837,85.366467,13.133078)"
       x1="-11.74963"
       y1="90.752769"
       x2="49.803375"
       y2="90.752769" /><linearGradient
       inkscape:collect="always"
       xlink:href="#linearGradient2387"
       id="linearGradient49"
       gradientUnits="userSpaceOnUse"
       gradientTransform="matrix(2.1039352,0,0,2.0769214,-118.55184,-31.78813)"
       x1="96.292923"
       y1="98.227234"
       x2="115.44387"
       y2="101.37556" /><linearGradient
       inkscape:collect="always"
       xlink:href="#linearGradient2387"
       id="linearGradient50"
       gradientUnits="userSpaceOnUse"
       gradientTransform="matrix(2.1039352,0,0,2.0769214,-118.55184,-31.78813)"
       x1="96.292923"
       y1="98.227234"
       x2="115.44387"
       y2="101.37556" /><linearGradient
       inkscape:collect="always"
       xlink:href="#linearGradient2387"
       id="linearGradient51"
       gradientUnits="userSpaceOnUse"
       gradientTransform="matrix(2.1039352,0,0,2.0769214,-118.55184,-31.78813)"
       x1="96.292923"
       y1="98.227234"
       x2="115.44387"
       y2="101.37556" /></defs><g
     inkscape:label="Layer 1"
     inkscape:groupmode="layer"
     id="layer1"><g
       id="g547"
       transform="matrix(1.0595259,0,0,1.0595259,-5.9958564,-17.148658)"><path
         id="path4538-5"
         d="M 118.99129,268.18033 V 246.25927"
         style="display:inline;fill:none;stroke:#000000;stroke-width:0.823857;stroke-linecap:butt;stroke-linejoin:miter;stroke-miterlimit:4;stroke-dasharray:none;stroke-opacity:1" /><path
         id="path4542-3"
         d="m 82.98042,52.741191 h 39.9989"
         style="display:inline;fill:none;stroke:#000000;stroke-width:0.736568;stroke-linecap:butt;stroke-linejoin:miter;stroke-miterlimit:4;stroke-dasharray:none;stroke-opacity:1;marker-start:url(#marker1181);marker-end:url(#marker1185)"
         sodipodi:nodetypes="cc" /><text
         transform="scale(0.97131606,1.029531)"
         id="shank_diameter"
         y="44.842342"
         x="94.712471"
         style="font-style:normal;font-variant:normal;font-weight:normal;font-stretch:normal;font-size:35.7707px;line-height:1.25;font-family:'URW Bookman L';-inkscape-font-specification:'URW Bookman L, Normal';font-variant-ligatures:normal;font-variant-caps:normal;font-variant-numeric:normal;font-feature-settings:normal;text-align:start;letter-spacing:0px;word-spacing:0px;writing-mode:lr-tb;text-anchor:start;display:inline;fill:#000000;fill-opacity:1;stroke:none;stroke-width:3.35351"
         xml:space="preserve"><tspan
           style="font-style:normal;font-variant:normal;font-weight:normal;font-stretch:normal;font-size:35.7707px;font-family:'URW Bookman L';-inkscape-font-specification:'URW Bookman L, Normal';font-variant-ligatures:normal;font-variant-caps:normal;font-variant-numeric:normal;font-feature-settings:normal;text-align:start;writing-mode:lr-tb;text-anchor:start;stroke-width:3.35351"
           y="44.842342"
           x="94.712471"
           id="tspan5690">S</tspan></text><text
         transform="scale(0.97131606,1.029531)"
         id="cutting_edge_height"
         y="231.98186"
         x="165.07407"
         style="font-style:normal;font-variant:normal;font-weight:normal;font-stretch:normal;font-size:35.7707px;line-height:1.25;font-family:'URW Bookman L';-inkscape-font-specification:'URW Bookman L, Normal';font-variant-ligatures:normal;font-variant-caps:normal;font-variant-numeric:normal;font-feature-settings:normal;text-align:start;letter-spacing:0px;word-spacing:0px;writing-mode:lr-tb;text-anchor:start;display:inline;fill:#000000;fill-opacity:1;stroke:none;stroke-width:3.35351"
         xml:space="preserve">h</text><path
         id="path4538-8"
         d="M 86.352467,268.18033 V 247.12191"
         style="display:inline;fill:none;stroke:#000000;stroke-width:0.823855;stroke-linecap:butt;stroke-linejoin:miter;stroke-miterlimit:4;stroke-dasharray:none;stroke-opacity:1" /><path
         id="path897-5"
         d="m 151.77589,197.67413 v 57.34436"
         style="display:inline;fill:none;stroke:#000000;stroke-width:1.13395;stroke-linecap:butt;stroke-linejoin:miter;stroke-miterlimit:4;stroke-dasharray:none;stroke-opacity:1;marker-start:url(#Arrow2Lstart);marker-end:url(#Arrow2Lend)"
         sodipodi:nodetypes="cc" /><path
         id="path1187-6"
         d="m 123.50253,194.91749 h 36.359"
         style="display:inline;fill:none;stroke:#000000;stroke-width:0.823855;stroke-linecap:butt;stroke-linejoin:miter;stroke-miterlimit:4;stroke-dasharray:none;stroke-opacity:1"
         sodipodi:nodetypes="cc" /><path
         id="path1189"
         d="m 121.96617,258.05554 h 39.68152"
         style="display:inline;fill:none;stroke:#000000;stroke-width:0.823854;stroke-linecap:butt;stroke-linejoin:miter;stroke-miterlimit:4;stroke-dasharray:none;stroke-opacity:1"
         sodipodi:nodetypes="cc" /><text
         transform="scale(0.97131606,1.029531)"
         id="length"
         y="154.36923"
         x="36.931393"
         style="font-style:normal;font-variant:normal;font-weight:normal;font-stretch:normal;font-size:35.7707px;line-height:1.25;font-family:'URW Bookman L';-inkscape-font-specification:'URW Bookman L, Normal';font-variant-ligatures:normal;font-variant-caps:normal;font-variant-numeric:normal;font-feature-settings:normal;text-align:start;letter-spacing:0px;word-spacing:0px;writing-mode:lr-tb;text-anchor:start;display:inline;fill:#000000;fill-opacity:1;stroke:none;stroke-width:3.35351"
         xml:space="preserve">L</text><path
         id="path543"
         d="M 62.376635,62.108261 V 255.3245"
         style="display:inline;fill:none;stroke:#000000;stroke-width:0.943817;stroke-linecap:butt;stroke-linejoin:miter;stroke-miterlimit:4;stroke-dasharray:none;stroke-opacity:1;marker-start:url(#Arrow2Lstart);marker-end:url(#Arrow2Lend)"
         sodipodi:nodetypes="cc" /><path
         id="path545"
         d="M 55.329343,58.966333 H 78.806115"
         style="display:inline;fill:none;stroke:#000000;stroke-width:0.823854;stroke-linecap:butt;stroke-linejoin:miter;stroke-miterlimit:4;stroke-dasharray:none;stroke-opacity:1" /><path
         id="path547"
         d="m 57.266222,258.05554 h 24.62223"
         style="display:inline;fill:none;stroke:#000000;stroke-width:0.823854;stroke-linecap:butt;stroke-linejoin:miter;stroke-miterlimit:4;stroke-dasharray:none;stroke-opacity:1" /><g
         id="g46"
         transform="matrix(0.6,0,0,0.55748815,40.992592,119.695)"
         style="display:inline;stroke-width:1.03743"><path
           d="m 70.460491,-109.14929 0.0063,168.820663 7.620319,78.231667 5.488933,9.83316 c 0,0 0.719983,-1.1252 1.951414,-1.1252 1.231335,0 2.103935,1.0309 2.104074,1.03107 4.41e-4,-6.6e-4 8.299407,-12.33766 16.032719,-12.33766 7.73351,0 13.95839,10.73666 13.95839,12.24353 0,0.31426 -0.16515,0.74979 -0.47164,1.29541 0.0557,-0.0877 1.36159,-2.10651 3.5024,-2.10651 1.86425,0 2.26453,1.33913 2.27186,1.36418 0.0633,-0.11699 0.13169,-0.23624 0.19363,-0.35263 2.18735,-4.10986 5.09124,-5.85413 5.36992,-8.74063 l 7.65934,-79.336387 0.0156,-168.605563 z"
           style="font-variation-settings:normal;display:inline;opacity:1;fill:url(#linearGradient41);fill-opacity:1;stroke:#000000;stroke-width:0.961519;stroke-linecap:butt;stroke-linejoin:miter;stroke-miterlimit:4;stroke-dasharray:none;stroke-dashoffset:0;stroke-opacity:1;stop-color:#000000;stop-opacity:1"
           id="path37"
           sodipodi:nodetypes="ccccscsscscccccc" /><path
           d="m 82.633297,171.84624 c 0,-8.47617 4.998274,-24.20417 4.998274,-24.20417 -1.39e-4,-1.7e-4 -0.872739,-1.03107 -2.104074,-1.03107 -1.231431,0 -1.951414,1.1252 -1.951414,1.1252 0,0 -2.64058,8.38213 -2.64058,14.22128 0,5.83914 1.697794,9.88876 1.697794,9.88876 z"
           style="font-variation-settings:normal;display:inline;opacity:1;fill:#efecec;fill-opacity:1;stroke:#000000;stroke-width:0.961519;stroke-linecap:butt;stroke-linejoin:miter;stroke-miterlimit:4;stroke-dasharray:none;stroke-dashoffset:0;stroke-opacity:1;stop-color:#000000;stop-opacity:1"
           id="path36" /><path
           d="m 122.9253,148.10102 c -0.007,-0.025 -0.40761,-1.36418 -2.27186,-1.36418 -2.18833,0 -3.50435,2.10944 -3.50435,2.10944 -3.13842,5.58296 -21.074734,22.69894 -28.759096,39.85109 -0.187817,0.41922 -0.369594,0.83876 -0.544796,1.25786 0,0 0,0 0,0 -1.827539,4.37162 -2.948826,8.727 -2.948826,12.87611 0,2.65199 0.254183,5.15201 0.607714,7.50522 0.227834,-17.27958 27.348044,-43.61726 37.421214,-62.23554 z"
           style="font-variation-settings:normal;display:inline;opacity:1;fill:#efecec;fill-opacity:1;stroke:#000000;stroke-width:0.961519;stroke-linecap:butt;stroke-linejoin:miter;stroke-miterlimit:4;stroke-dasharray:none;stroke-dashoffset:0;stroke-opacity:1;stop-color:#000000;stop-opacity:1"
           id="path35" /><path
           d="m 87.845198,189.95523 c 0.175202,-0.4191 0.356979,-0.83864 0.544796,-1.25786 7.684362,-17.15215 25.620676,-34.26813 28.759096,-39.85109 0,0 7.2e-4,-9.8e-4 0.002,-0.003 0.30649,-0.54562 0.47164,-0.98115 0.47164,-1.29541 0,-1.50687 -6.22488,-12.24353 -13.95839,-12.24353 -7.733312,0 -16.032278,12.337 -16.032719,12.33766 0,0 -4.998274,15.728 -4.998274,24.20417 0,6.12171 2.647103,12.94867 4.117701,16.26898 0.207775,0.46912 0.392066,0.86823 0.542087,1.18547 0.193443,0.40906 0.440084,0.5897 0.552063,0.65461 z"
           style="font-variation-settings:normal;opacity:1;fill:url(#linearGradient49);fill-opacity:1;stroke:#000000;stroke-width:0.961519;stroke-linecap:butt;stroke-linejoin:miter;stroke-miterlimit:4;stroke-dasharray:none;stroke-dashoffset:0;stroke-opacity:1;stop-color:#000000;stop-opacity:1"
           id="path34"
           sodipodi:nodetypes="ccccsscssscc" /><path
           d="m 122.37075,149.11063 c -10.48068,18.55088 -36.642929,44.25726 -36.866664,61.22593 1.304242,8.68144 4.334981,14.88053 4.356419,14.92361 7.00928,-16.77613 29.020485,-34.97106 34.140725,-54.88932 0,0 0,0 0,0 0.68863,-2.67883 1.07155,-5.38907 1.07155,-8.13097 0,-6.70083 -2.68197,-13.08161 -2.70203,-13.12925 z"
           style="font-variation-settings:normal;opacity:1;fill:url(#linearGradient50);fill-opacity:1;stroke:#000000;stroke-width:0.961519;stroke-linecap:butt;stroke-linejoin:miter;stroke-miterlimit:4;stroke-dasharray:none;stroke-dashoffset:0;stroke-opacity:1;stop-color:#000000;stop-opacity:1"
           id="path33" /><path
           d="m 124.00123,170.37085 c -6.11214,23.77687 -36.293574,45.09822 -36.293573,64.48154 0,0 0.462341,2.55411 1.997262,5.44748 -0.354655,-18.30366 34.195131,-43.85781 34.296311,-69.92902 z"
           style="font-variation-settings:normal;display:inline;opacity:1;fill:#efecec;fill-opacity:1;stroke:#000000;stroke-width:0.961519;stroke-linecap:butt;stroke-linejoin:miter;stroke-miterlimit:4;stroke-dasharray:none;stroke-dashoffset:0;stroke-opacity:1;stop-color:#000000;stop-opacity:1"
           id="path32" /><path
           d="m 117.73681,191.26771 c -9.96569,18.46052 -28.290674,35.67646 -28.031891,49.03216 1.811487,3.4147 5.125854,7.29084 10.927631,8.01001 -0.22388,-0.11441 -1.115609,-0.93698 1.40564,-6.39757 2.69181,-5.83001 17.70067,-23.9185 19.14932,-35.16058 0.0268,-0.54962 0.1234,-1.12976 0.1234,-1.66658 0,-8.74117 -3.57122,-13.81335 -3.5741,-13.81744 z"
           style="font-variation-settings:normal;display:inline;opacity:1;fill:url(#linearGradient51);fill-opacity:1;stroke:#000000;stroke-width:0.961519;stroke-linecap:butt;stroke-linejoin:miter;stroke-miterlimit:4;stroke-dasharray:none;stroke-dashoffset:0;stroke-opacity:1;stop-color:#000000;stop-opacity:1"
           id="path31" /><path
           d="m 121.18751,206.75173 c -1.44865,11.24208 -16.45751,29.33057 -19.14932,35.16058 -2.521249,5.46059 -1.62952,6.28316 -1.40564,6.39757 0.62039,0.0769 1.2605,0.12876 1.93922,0.12876 2.16727,0 8.84252,-9.78006 13.60771,-21.47287 0,0 0,0 0,0 2.69489,-6.61272 4.69581,-13.80083 5.00803,-20.21404 z"
           style="font-variation-settings:normal;display:inline;opacity:1;fill:#efecec;fill-opacity:1;stroke:#000000;stroke-width:0.961519;stroke-linecap:butt;stroke-linejoin:miter;stroke-miterlimit:4;stroke-dasharray:none;stroke-dashoffset:0;stroke-opacity:1;stop-color:#000000;stop-opacity:1"
           id="path30" /><path
           d="m 116.17948,226.96577 c -4.76519,11.69281 -11.44044,21.47287 -13.60771,21.47287 12.40398,0 15.80884,-9.60132 15.80884,-13.46383 0,-3.35343 -1.74189,-7.08387 -2.20113,-8.00904 z"
           style="font-variation-settings:normal;display:inline;opacity:1;fill:url(#linearGradient2389);fill-opacity:1;stroke:#000000;stroke-width:0.961519;stroke-linecap:butt;stroke-linejoin:miter;stroke-miterlimit:4;stroke-dasharray:none;stroke-dashoffset:0;stroke-opacity:1;stop-color:#000000;stop-opacity:1"
           id="path29" /></g><path
         id="path12"
         d="M 88.248543,262.93682 H 117.21518"
         style="display:inline;fill:none;stroke:#000000;stroke-width:0.540802;stroke-linecap:butt;stroke-linejoin:miter;stroke-miterlimit:4;stroke-dasharray:none;stroke-opacity:1;marker-start:url(#marker1173);marker-end:url(#marker1177)"
         sodipodi:nodetypes="cc" /><text
         transform="scale(0.97131606,1.029531)"
         id="diameter"
         y="285.78098"
         x="94.606003"
         style="font-style:normal;font-variant:normal;font-weight:normal;font-stretch:normal;font-size:35.7707px;line-height:1.25;font-family:'URW Bookman L';-inkscape-font-specification:'URW Bookman L, Normal';font-variant-ligatures:normal;font-variant-caps:normal;font-variant-numeric:normal;font-feature-settings:normal;text-align:start;letter-spacing:0px;word-spacing:0px;writing-mode:lr-tb;text-anchor:start;display:inline;fill:#000000;fill-opacity:1;stroke:none;stroke-width:3.35351"
         xml:space="preserve"><tspan
           style="font-style:normal;font-variant:normal;font-weight:normal;font-stretch:normal;font-size:35.7707px;font-family:'URW Bookman L';-inkscape-font-specification:'URW Bookman L, Normal';font-variant-ligatures:normal;font-variant-caps:normal;font-variant-numeric:normal;font-feature-settings:normal;text-align:start;writing-mode:lr-tb;text-anchor:start;stroke-width:3.35351"
           y="285.78098"
           x="94.606003"
           id="tspan13">D</tspan></text><path
         id="path28"
         d="m 83.272667,152.96108 39.408813,0"
         style="display:inline;fill:none;stroke:#000000;stroke-width:0.736567;stroke-linecap:butt;stroke-linejoin:miter;stroke-miterlimit:4;stroke-dasharray:none;stroke-opacity:1;marker-start:url(#marker1181);marker-end:url(#marker1185)"
         sodipodi:nodetypes="cc" /><text
         transform="scale(0.97131606,1.029531)"
         id="taper_diameter"
         y="161.23637"
         x="133.40874"
         style="font-style:normal;font-variant:normal;font-weight:normal;font-stretch:normal;font-size:35.7707px;line-height:1.25;font-family:'URW Bookman L';-inkscape-font-specification:'URW Bookman L, Normal';font-variant-ligatures:normal;font-variant-caps:normal;font-variant-numeric:normal;font-feature-settings:normal;text-align:start;letter-spacing:0px;word-spacing:0px;writing-mode:lr-tb;text-anchor:start;display:inline;fill:#000000;fill-opacity:1;stroke:none;stroke-width:3.35351"
         xml:space="preserve"><tspan
           style="font-style:normal;font-variant:normal;font-weight:normal;font-stretch:normal;font-size:35.7707px;font-family:'URW Bookman L';-inkscape-font-specification:'URW Bookman L, Normal';font-variant-ligatures:normal;font-variant-caps:normal;font-variant-numeric:normal;font-feature-settings:normal;text-align:start;writing-mode:lr-tb;text-anchor:start;stroke-width:3.35351"
           y="161.23637"
           x="133.40874"
           id="tspan28">td</tspan></text><path
         d="m 87.084283,189.31934 c 13.086077,-9.7098 18.814437,-11.1068 31.857767,-1.36404"
         id="path5698"
         style="display:inline;fill:none;fill-opacity:1;stroke:#000025;stroke-width:0.622987;stroke-miterlimit:4;stroke-dasharray:none;stroke-dashoffset:0;stroke-opacity:1;marker-start:url(#Arrow2Lstart-36);marker-end:url(#Arrow2Lend-5)"
         sodipodi:nodetypes="cc" /><text
         transform="scale(0.97096033,1.0299082)"
         id="cutting_edge_angle"
         y="173.35197"
         x="98.172508"
         style="font-style:normal;font-variant:normal;font-weight:normal;font-stretch:normal;font-size:30.4721px;line-height:1.25;font-family:'URW Bookman L';-inkscape-font-specification:'URW Bookman L, Normal';font-variant-ligatures:normal;font-variant-caps:normal;font-variant-numeric:normal;font-feature-settings:normal;text-align:start;letter-spacing:0px;word-spacing:0px;writing-mode:lr-tb;text-anchor:start;display:inline;fill:#000000;fill-opacity:1;stroke:none;stroke-width:2.85676"
         xml:space="preserve"><tspan
           style="stroke-width:2.85676"
           y="173.35197"
           x="98.172508"
           id="tspan5718">α</tspan></text></g></g></svg>
