<?xml version="1.0" encoding="UTF-8" standalone="no"?>
<!-- Created with Inkscape (http://www.inkscape.org/) -->

<svg
   width="3.9688699mm"
   height="3.9687591mm"
   viewBox="0 0 3.9688699 3.9687591"
   version="1.1"
   id="svg1"
   xml:space="preserve"
   xmlns="http://www.w3.org/2000/svg"
   xmlns:svg="http://www.w3.org/2000/svg"><defs
     id="defs1" /><g
     id="layer1"
     transform="translate(-135.21563,-57.957997)"><path
       style="fill:#000000;fill-opacity:1;stroke:none;stroke-width:0.396874"
       d="m 136.92577,57.957997 c -0.0657,0 -0.11865,0.05291 -0.11865,0.11862 v 0.301487 c -0.15344,0.03809 -0.30113,0.09939 -0.43988,0.182868 l -0.21252,-0.212523 c -0.0465,-0.04647 -0.12165,-0.04647 -0.16804,0 l -0.38552,0.385507 c -0.0465,0.04647 -0.0465,0.121575 0,0.168042 l 0.21254,0.212523 c -0.0828,0.13836 -0.14025,0.287708 -0.17793,0.439874 h -0.30149 c -0.0657,0 -0.11865,0.05291 -0.11865,0.11862 v 0.543664 c 0,0.06572 0.0529,0.11862 0.11865,0.11862 h 0.29654 c 0.0381,0.153573 0.0993,0.301001 0.18288,0.439874 l -0.21254,0.212523 c -0.0465,0.04647 -0.0465,0.121575 0,0.168042 l 0.38552,0.385507 c 0.0465,0.04647 0.12165,0.04647 0.16804,0 l 0.21252,-0.212523 c 0.13935,0.08406 0.28641,0.13983 0.43988,0.177927 v 0.301487 c 0,0.06572 0.053,0.11862 0.11865,0.11862 h 0.54366 c 0.0657,0 0.11865,-0.0529 0.11865,-0.11862 v -0.301487 c 0.15379,-0.03791 0.30078,-0.09448 0.43987,-0.177927 l 0.21252,0.212523 c 0.0465,0.04647 0.12165,0.04647 0.16805,0 l 0.3855,-0.385507 c 0.0465,-0.04647 0.0465,-0.121575 0,-0.168042 l -0.21252,-0.212522 c 0.0837,-0.13863 0.14475,-0.287233 0.18286,-0.439873 h 0.30149 c 0.0657,0 0.11865,-0.05291 0.11865,-0.11862 v -0.543665 c 0,-0.06572 -0.053,-0.11862 -0.11865,-0.11862 h -0.30149 c -0.0378,-0.152508 -0.1002,-0.301831 -0.18286,-0.439872 L 138.79402,58.902 c 0.0465,-0.04647 0.0465,-0.121575 0,-0.168042 l -0.3855,-0.385506 c -0.0465,-0.04647 -0.12165,-0.04647 -0.16805,0 l -0.21252,0.212523 c -0.1389,-0.08335 -0.28704,-0.14505 -0.43987,-0.18287 v -0.301486 c 0,-0.06571 -0.0529,-0.11862 -0.11865,-0.11862 z m 0.25206,1.235601 c 0.19219,-0.0051 0.38818,0.05989 0.53872,0.202638 0.30105,0.285492 0.31515,0.761558 0.0297,1.062617 -0.28479,0.300315 -0.76131,0.313392 -1.06263,0.02966 -0.30105,-0.285492 -0.31513,-0.761558 -0.0297,-1.062617 0.1428,-0.150529 0.33171,-0.227193 0.52391,-0.232293 z"
       id="mode-black" /></g></svg>
