<?xml version="1.0" encoding="UTF-8" standalone="no"?>
<!-- Created with Inkscape (http://www.inkscape.org/) -->

<svg
   width="4.3657098mm"
   height="4.3656468mm"
   viewBox="0 0 4.3657098 4.3656468"
   version="1.1"
   id="svg1"
   xml:space="preserve"
   xmlns="http://www.w3.org/2000/svg"
   xmlns:svg="http://www.w3.org/2000/svg"><defs
     id="defs1" /><g
     id="layer1"
     transform="translate(-143.73299,-57.759553)"><path
       style="fill:#ffffff;fill-opacity:1;stroke:none;stroke-width:0.436563"
       d="m 145.61411,57.759553 c -0.0723,0 -0.1305,0.0582 -0.1305,0.130485 v 0.331633 c -0.16878,0.0419 -0.33123,0.109335 -0.48385,0.201155 l -0.23378,-0.233776 c -0.0512,-0.05112 -0.13365,-0.05112 -0.18484,0 l -0.42407,0.424059 c -0.0512,0.05112 -0.0512,0.133725 0,0.184846 l 0.23378,0.233776 c -0.091,0.152186 -0.15428,0.316477 -0.19572,0.48386 h -0.33164 c -0.0723,0 -0.1305,0.0582 -0.1305,0.130485 v 0.598033 c 0,0.07229 0.0582,0.130485 0.1305,0.130485 h 0.32621 c 0.0418,0.16893 0.1092,0.3311 0.20115,0.48386 l -0.23378,0.233778 c -0.0512,0.05112 -0.0512,0.133725 0,0.184845 l 0.42407,0.424057 c 0.0512,0.05112 0.13365,0.05112 0.18484,0 l 0.23378,-0.233775 c 0.1533,0.09246 0.31504,0.153806 0.48385,0.195718 v 0.331638 c 0,0.07229 0.0582,0.130485 0.1305,0.130485 h 0.59804 c 0.0723,0 0.1305,-0.0582 0.1305,-0.130485 v -0.331637 c 0.16917,-0.04169 0.33085,-0.10392 0.48385,-0.195718 l 0.23378,0.233775 c 0.0512,0.05112 0.13365,0.05112 0.18484,0 l 0.42407,-0.424058 c 0.0511,-0.05112 0.0511,-0.133725 0,-0.184846 l -0.23378,-0.233775 c 0.092,-0.152486 0.15915,-0.315957 0.20115,-0.483861 h 0.33164 c 0.0723,0 0.1305,-0.0582 0.1305,-0.130485 v -0.59803 c 0,-0.07229 -0.0582,-0.130485 -0.1305,-0.130485 h -0.33164 c -0.0417,-0.167761 -0.11025,-0.332017 -0.20115,-0.483862 l 0.23378,-0.233775 c 0.0511,-0.05112 0.0511,-0.133741 0,-0.184847 l -0.42407,-0.424057 c -0.0512,-0.05112 -0.1338,-0.05112 -0.18484,0 l -0.23378,0.233775 c -0.15277,-0.09169 -0.31573,-0.159554 -0.48385,-0.201156 v -0.331635 c 0,-0.07229 -0.0582,-0.130485 -0.1305,-0.130485 z m 0.27728,1.359159 c 0.21141,-0.0055 0.427,0.06588 0.59259,0.222901 0.33117,0.314043 0.34666,0.837714 0.0327,1.16888 -0.31326,0.330346 -0.83744,0.344731 -1.16888,0.03262 -0.33117,-0.314043 -0.34666,-0.837714 -0.0326,-1.16888 0.15702,-0.165582 0.36488,-0.24991 0.57629,-0.255522 z"
       id="mode-white" /></g></svg>
