<?xml version="1.0" encoding="UTF-8" standalone="no"?>
<!-- Created with Inkscape (http://www.inkscape.org/) -->

<svg
   width="4.3657098mm"
   height="4.365654mm"
   viewBox="0 0 4.3657098 4.365654"
   version="1.1"
   id="svg1"
   xml:space="preserve"
   xmlns="http://www.w3.org/2000/svg"
   xmlns:svg="http://www.w3.org/2000/svg"><defs
     id="defs1" /><g
     id="layer1"
     transform="translate(-170.47559,-57.561112)"><path
       style="fill:#4893df;fill-opacity:1;stroke:none;stroke-width:0.436563"
       d="m 172.35671,57.56112 c -0.0723,0 -0.1305,0.0582 -0.1305,0.130486 v 0.331636 c -0.16878,0.04189 -0.33123,0.109335 -0.48385,0.201156 l -0.23379,-0.233776 c -0.0511,-0.05112 -0.13365,-0.05112 -0.18485,0 l -0.42405,0.424056 c -0.0512,0.05112 -0.0512,0.133725 0,0.184847 l 0.23378,0.233776 c -0.091,0.152187 -0.15428,0.316478 -0.19572,0.483861 h -0.33164 c -0.0723,0 -0.1305,0.0582 -0.1305,0.130485 v 0.598031 c 0,0.07229 0.0582,0.130485 0.1305,0.130485 h 0.32621 c 0.0419,0.16893 0.1092,0.331099 0.20115,0.483859 l -0.23378,0.233777 c -0.0512,0.05112 -0.0512,0.133725 0,0.184846 l 0.42405,0.424059 c 0.0512,0.05112 0.1338,0.05112 0.18485,0 l 0.23379,-0.233776 c 0.1533,0.09246 0.31504,0.153805 0.48385,0.195718 v 0.331635 c 0,0.07228 0.0582,0.130485 0.1305,0.130485 h 0.59804 c 0.0723,0 0.1305,-0.0582 0.1305,-0.130485 v -0.331635 c 0.16917,-0.04169 0.33085,-0.10392 0.48385,-0.195718 l 0.23378,0.233776 c 0.0512,0.05112 0.1338,0.05112 0.18484,0 l 0.42407,-0.424059 c 0.0512,-0.05112 0.0512,-0.133724 0,-0.184846 L 174.178,60.660024 c 0.0919,-0.152484 0.15916,-0.315956 0.20116,-0.48386 h 0.33164 c 0.0723,0 0.1305,-0.0582 0.1305,-0.130485 v -0.598042 c 0,-0.07229 -0.0582,-0.130485 -0.1305,-0.130485 h -0.33164 c -0.0417,-0.167762 -0.11025,-0.332018 -0.20116,-0.483863 l 0.23377,-0.233775 c 0.0512,-0.05112 0.0512,-0.133725 0,-0.184846 l -0.42405,-0.424059 c -0.0512,-0.05112 -0.13365,-0.05112 -0.18484,0 l -0.23378,0.233776 c -0.15277,-0.0917 -0.31575,-0.159553 -0.48387,-0.201156 v -0.331632 c 0,-0.07229 -0.0582,-0.130485 -0.1305,-0.130485 z m 0.27726,1.359162 c 0.21143,-0.0056 0.42702,0.06588 0.59261,0.222901 0.33115,0.314043 0.34666,0.837714 0.0325,1.16888 -0.31328,0.330346 -0.83745,0.34473 -1.16889,0.03263 -0.33116,-0.314043 -0.34665,-0.837714 -0.0325,-1.16888 0.15702,-0.165582 0.36487,-0.24991 0.57628,-0.255522 z"
       id="mode-blue" /></g></svg>
