<?xml version="1.0" encoding="UTF-8" standalone="no"?>
<!-- Created with Inkscape (http://www.inkscape.org/) -->

<svg
   width="5.7242427mm"
   height="5.7242398mm"
   viewBox="0 0 5.7242427 5.7242398"
   version="1.1"
   id="svg1"
   xml:space="preserve"
   xmlns="http://www.w3.org/2000/svg"
   xmlns:svg="http://www.w3.org/2000/svg"><defs
     id="defs1" /><g
     id="layer1"
     transform="translate(-8.7669785,-130.3907)"><path
       style="vector-effect:none;fill:#000000;fill-opacity:1;fill-rule:evenodd;stroke:none;stroke-width:1.96681;stroke-linecap:butt;stroke-linejoin:miter;stroke-miterlimit:4;stroke-dasharray:none;stroke-dashoffset:0;stroke-opacity:1"
       d="m 9.8077795,130.3907 c -0.576603,0 -1.040801,0.46417 -1.040801,1.04078 v 3.64268 c 0,0.5766 0.464198,1.04078 1.040801,1.04078 h 3.6426785 c 0.576584,0 1.040763,-0.46418 1.040763,-1.04078 v -3.64268 c 0,-0.57661 -0.464179,-1.04078 -1.040763,-1.04078 z m 2.0815055,1.30096 v 1.30097 h 1.300987 c 0,0.52037 0,0 0,0.52037 h -1.300987 v 1.30097 c -0.520372,0 0,0 -0.520372,0 V 133.513 h -1.300967 c 0,-0.52037 0,0 0,-0.52037 h 1.300967 v -1.30097 z"
       id="more-black" /></g></svg>
