<?xml version="1.0" encoding="UTF-8" standalone="no"?>
<!-- Created with Inkscape (http://www.inkscape.org/) -->

<svg
   width="5.7242398mm"
   height="5.7242398mm"
   viewBox="0 0 5.7242398 5.7242398"
   version="1.1"
   id="svg1"
   xml:space="preserve"
   xmlns="http://www.w3.org/2000/svg"
   xmlns:svg="http://www.w3.org/2000/svg"><defs
     id="defs1" /><g
     id="layer1"
     transform="translate(-113.83705,-130.41756)"><path
       style="vector-effect:none;fill:#4893df;fill-opacity:1;fill-rule:evenodd;stroke:none;stroke-width:1.96681;stroke-linecap:butt;stroke-linejoin:miter;stroke-miterlimit:4;stroke-dasharray:none;stroke-dashoffset:0;stroke-opacity:1"
       d="m 114.87785,130.41756 c -0.5766,0 -1.0408,0.46417 -1.0408,1.04078 v 3.64268 c 0,0.5766 0.4642,1.04078 1.0408,1.04078 h 3.64268 c 0.57658,0 1.04076,-0.46418 1.04076,-1.04078 v -3.64268 c 0,-0.57661 -0.46418,-1.04078 -1.04076,-1.04078 z m 2.0815,1.30096 v 1.30097 h 1.30099 c 0,0.52037 0,0 0,0.52037 h -1.30099 v 1.30097 c -0.52037,0 0,0 -0.52037,0 v -1.30097 h -1.30096 c 0,-0.52037 0,0 0,-0.52037 h 1.30096 v -1.30097 z"
       id="more-blue" /></g></svg>
