<?xml version="1.0" encoding="UTF-8" standalone="no"?>
<!-- Created with Inkscape (http://www.inkscape.org/) -->

<svg
   width="4.7624998mm"
   height="3.96875mm"
   viewBox="0 0 4.7624998 3.96875"
   version="1.1"
   id="svg1"
   xml:space="preserve"
   xmlns="http://www.w3.org/2000/svg"
   xmlns:svg="http://www.w3.org/2000/svg"><defs
     id="defs1" /><g
     id="layer1"
     transform="translate(-143.47026,-84.245736)"><g
       id="transparent-white"
       transform="matrix(0.396875,0,0,0.396875,143.47026,83.848861)"><ellipse
         ry="1.9936409"
         rx="1.9999999"
         cy="6"
         cx="6"
         id="path5584-5"
         style="opacity:1;fill:#ffffff;fill-opacity:1;stroke:none;stroke-width:0.999992;stroke-linecap:square;stroke-linejoin:round;stroke-miterlimit:4;stroke-dasharray:none;stroke-dashoffset:63;stroke-opacity:0.501961" /><path
         style="color:#000000;fill:#ffffff;fill-opacity:1;stroke-linecap:square;stroke-linejoin:round;stroke-dashoffset:63;-inkscape-stroke:none"
         d="M 6,1 C 2.7413482,1 0,3.1844528 0,6 0,8.8155472 2.7413482,11 6,11 9.2586518,11 12,8.8155472 12,6 12,3.1844528 9.2586518,1 6,1 Z m 0,1 c 2.8164744,0 5,1.8449894 5,4 0,2.1550106 -2.1835256,4 -5,4 C 3.1835256,10 1,8.1550106 1,6 1,3.8449894 3.1835256,2 6,2 Z"
         id="path5586-5" /></g></g></svg>
