<?xml version="1.0" encoding="UTF-8" standalone="no"?>
<!-- Created with Inkscape (http://www.inkscape.org/) -->

<svg
   xmlns:dc="http://purl.org/dc/elements/1.1/"
   xmlns:cc="http://creativecommons.org/ns#"
   xmlns:rdf="http://www.w3.org/1999/02/22-rdf-syntax-ns#"
   xmlns:svg="http://www.w3.org/2000/svg"
   xmlns="http://www.w3.org/2000/svg"
   xmlns:xlink="http://www.w3.org/1999/xlink"
   xmlns:sodipodi="http://sodipodi.sourceforge.net/DTD/sodipodi-0.dtd"
   xmlns:inkscape="http://www.inkscape.org/namespaces/inkscape"
   width="64px"
   height="64px"
   id="svg2816"
   version="1.1"
   inkscape:version="0.92.5 (2060ec1f9f, 2020-04-08)"
   sodipodi:docname="Path_Tapping.svg">
  <title
     id="title4225">Path_Tapping.svg</title>
  <defs
     id="defs2818">
    <linearGradient
       inkscape:collect="always"
       id="linearGradient4030">
      <stop
         style="stop-color:#204a87;stop-opacity:1"
         offset="0"
         id="stop4032" />
      <stop
         style="stop-color:#729fcf;stop-opacity:1"
         offset="1"
         id="stop4034" />
    </linearGradient>
    <linearGradient
       id="linearGradient4513">
      <stop
         style="stop-color:#ffffff;stop-opacity:1;"
         offset="0"
         id="stop4515" />
      <stop
         style="stop-color:#999999;stop-opacity:1;"
         offset="1"
         id="stop4517" />
    </linearGradient>
    <linearGradient
       id="linearGradient3681">
      <stop
         id="stop3697"
         offset="0"
         style="stop-color:#fff110;stop-opacity:1;" />
      <stop
         style="stop-color:#cf7008;stop-opacity:1;"
         offset="1"
         id="stop3685" />
    </linearGradient>
    <inkscape:perspective
       sodipodi:type="inkscape:persp3d"
       inkscape:vp_x="0 : 32 : 1"
       inkscape:vp_y="0 : 1000 : 0"
       inkscape:vp_z="64 : 32 : 1"
       inkscape:persp3d-origin="32 : 21.333333 : 1"
       id="perspective2824" />
    <inkscape:perspective
       id="perspective3622"
       inkscape:persp3d-origin="0.5 : 0.33333333 : 1"
       inkscape:vp_z="1 : 0.5 : 1"
       inkscape:vp_y="0 : 1000 : 0"
       inkscape:vp_x="0 : 0.5 : 1"
       sodipodi:type="inkscape:persp3d" />
    <inkscape:perspective
       id="perspective3622-9"
       inkscape:persp3d-origin="0.5 : 0.33333333 : 1"
       inkscape:vp_z="1 : 0.5 : 1"
       inkscape:vp_y="0 : 1000 : 0"
       inkscape:vp_x="0 : 0.5 : 1"
       sodipodi:type="inkscape:persp3d" />
    <inkscape:perspective
       id="perspective3653"
       inkscape:persp3d-origin="0.5 : 0.33333333 : 1"
       inkscape:vp_z="1 : 0.5 : 1"
       inkscape:vp_y="0 : 1000 : 0"
       inkscape:vp_x="0 : 0.5 : 1"
       sodipodi:type="inkscape:persp3d" />
    <inkscape:perspective
       id="perspective3675"
       inkscape:persp3d-origin="0.5 : 0.33333333 : 1"
       inkscape:vp_z="1 : 0.5 : 1"
       inkscape:vp_y="0 : 1000 : 0"
       inkscape:vp_x="0 : 0.5 : 1"
       sodipodi:type="inkscape:persp3d" />
    <inkscape:perspective
       id="perspective3697"
       inkscape:persp3d-origin="0.5 : 0.33333333 : 1"
       inkscape:vp_z="1 : 0.5 : 1"
       inkscape:vp_y="0 : 1000 : 0"
       inkscape:vp_x="0 : 0.5 : 1"
       sodipodi:type="inkscape:persp3d" />
    <inkscape:perspective
       id="perspective3720"
       inkscape:persp3d-origin="0.5 : 0.33333333 : 1"
       inkscape:vp_z="1 : 0.5 : 1"
       inkscape:vp_y="0 : 1000 : 0"
       inkscape:vp_x="0 : 0.5 : 1"
       sodipodi:type="inkscape:persp3d" />
    <inkscape:perspective
       id="perspective3742"
       inkscape:persp3d-origin="0.5 : 0.33333333 : 1"
       inkscape:vp_z="1 : 0.5 : 1"
       inkscape:vp_y="0 : 1000 : 0"
       inkscape:vp_x="0 : 0.5 : 1"
       sodipodi:type="inkscape:persp3d" />
    <inkscape:perspective
       id="perspective3764"
       inkscape:persp3d-origin="0.5 : 0.33333333 : 1"
       inkscape:vp_z="1 : 0.5 : 1"
       inkscape:vp_y="0 : 1000 : 0"
       inkscape:vp_x="0 : 0.5 : 1"
       sodipodi:type="inkscape:persp3d" />
    <inkscape:perspective
       id="perspective3785"
       inkscape:persp3d-origin="0.5 : 0.33333333 : 1"
       inkscape:vp_z="1 : 0.5 : 1"
       inkscape:vp_y="0 : 1000 : 0"
       inkscape:vp_x="0 : 0.5 : 1"
       sodipodi:type="inkscape:persp3d" />
    <inkscape:perspective
       id="perspective3806"
       inkscape:persp3d-origin="0.5 : 0.33333333 : 1"
       inkscape:vp_z="1 : 0.5 : 1"
       inkscape:vp_y="0 : 1000 : 0"
       inkscape:vp_x="0 : 0.5 : 1"
       sodipodi:type="inkscape:persp3d" />
    <inkscape:perspective
       id="perspective3806-3"
       inkscape:persp3d-origin="0.5 : 0.33333333 : 1"
       inkscape:vp_z="1 : 0.5 : 1"
       inkscape:vp_y="0 : 1000 : 0"
       inkscape:vp_x="0 : 0.5 : 1"
       sodipodi:type="inkscape:persp3d" />
    <inkscape:perspective
       id="perspective3835"
       inkscape:persp3d-origin="0.5 : 0.33333333 : 1"
       inkscape:vp_z="1 : 0.5 : 1"
       inkscape:vp_y="0 : 1000 : 0"
       inkscape:vp_x="0 : 0.5 : 1"
       sodipodi:type="inkscape:persp3d" />
    <inkscape:perspective
       id="perspective3614"
       inkscape:persp3d-origin="0.5 : 0.33333333 : 1"
       inkscape:vp_z="1 : 0.5 : 1"
       inkscape:vp_y="0 : 1000 : 0"
       inkscape:vp_x="0 : 0.5 : 1"
       sodipodi:type="inkscape:persp3d" />
    <inkscape:perspective
       id="perspective3614-8"
       inkscape:persp3d-origin="0.5 : 0.33333333 : 1"
       inkscape:vp_z="1 : 0.5 : 1"
       inkscape:vp_y="0 : 1000 : 0"
       inkscape:vp_x="0 : 0.5 : 1"
       sodipodi:type="inkscape:persp3d" />
    <inkscape:perspective
       id="perspective3643"
       inkscape:persp3d-origin="0.5 : 0.33333333 : 1"
       inkscape:vp_z="1 : 0.5 : 1"
       inkscape:vp_y="0 : 1000 : 0"
       inkscape:vp_x="0 : 0.5 : 1"
       sodipodi:type="inkscape:persp3d" />
    <inkscape:perspective
       id="perspective3643-3"
       inkscape:persp3d-origin="0.5 : 0.33333333 : 1"
       inkscape:vp_z="1 : 0.5 : 1"
       inkscape:vp_y="0 : 1000 : 0"
       inkscape:vp_x="0 : 0.5 : 1"
       sodipodi:type="inkscape:persp3d" />
    <inkscape:perspective
       id="perspective3672"
       inkscape:persp3d-origin="0.5 : 0.33333333 : 1"
       inkscape:vp_z="1 : 0.5 : 1"
       inkscape:vp_y="0 : 1000 : 0"
       inkscape:vp_x="0 : 0.5 : 1"
       sodipodi:type="inkscape:persp3d" />
    <inkscape:perspective
       id="perspective3672-5"
       inkscape:persp3d-origin="0.5 : 0.33333333 : 1"
       inkscape:vp_z="1 : 0.5 : 1"
       inkscape:vp_y="0 : 1000 : 0"
       inkscape:vp_x="0 : 0.5 : 1"
       sodipodi:type="inkscape:persp3d" />
    <inkscape:perspective
       id="perspective3701"
       inkscape:persp3d-origin="0.5 : 0.33333333 : 1"
       inkscape:vp_z="1 : 0.5 : 1"
       inkscape:vp_y="0 : 1000 : 0"
       inkscape:vp_x="0 : 0.5 : 1"
       sodipodi:type="inkscape:persp3d" />
    <inkscape:perspective
       id="perspective3701-8"
       inkscape:persp3d-origin="0.5 : 0.33333333 : 1"
       inkscape:vp_z="1 : 0.5 : 1"
       inkscape:vp_y="0 : 1000 : 0"
       inkscape:vp_x="0 : 0.5 : 1"
       sodipodi:type="inkscape:persp3d" />
    <inkscape:perspective
       id="perspective3746"
       inkscape:persp3d-origin="0.5 : 0.33333333 : 1"
       inkscape:vp_z="1 : 0.5 : 1"
       inkscape:vp_y="0 : 1000 : 0"
       inkscape:vp_x="0 : 0.5 : 1"
       sodipodi:type="inkscape:persp3d" />
    <pattern
       patternTransform="matrix(0.67643728,-0.81829155,2.4578314,1.8844554,-26.450606,18.294947)"
       id="pattern5231"
       xlink:href="#Strips1_1-4"
       inkscape:collect="always" />
    <inkscape:perspective
       id="perspective5224"
       inkscape:persp3d-origin="0.5 : 0.33333333 : 1"
       inkscape:vp_z="1 : 0.5 : 1"
       inkscape:vp_y="0 : 1000 : 0"
       inkscape:vp_x="0 : 0.5 : 1"
       sodipodi:type="inkscape:persp3d" />
    <pattern
       inkscape:stockid="Stripes 1:1"
       id="Strips1_1-4"
       patternTransform="matrix(0.66772843,-1.0037085,2.4261878,2.3114548,3.4760987,3.534923)"
       height="1"
       width="2"
       patternUnits="userSpaceOnUse"
       inkscape:collect="always">
      <rect
         id="rect4483-4"
         height="2"
         width="1"
         y="-0.5"
         x="0"
         style="fill:black;stroke:none" />
    </pattern>
    <inkscape:perspective
       id="perspective5224-9"
       inkscape:persp3d-origin="0.5 : 0.33333333 : 1"
       inkscape:vp_z="1 : 0.5 : 1"
       inkscape:vp_y="0 : 1000 : 0"
       inkscape:vp_x="0 : 0.5 : 1"
       sodipodi:type="inkscape:persp3d" />
    <pattern
       patternTransform="matrix(0.66772843,-1.0037085,2.4261878,2.3114548,39.618381,8.9692804)"
       id="pattern5231-4"
       xlink:href="#Strips1_1-6"
       inkscape:collect="always" />
    <inkscape:perspective
       id="perspective5224-3"
       inkscape:persp3d-origin="0.5 : 0.33333333 : 1"
       inkscape:vp_z="1 : 0.5 : 1"
       inkscape:vp_y="0 : 1000 : 0"
       inkscape:vp_x="0 : 0.5 : 1"
       sodipodi:type="inkscape:persp3d" />
    <pattern
       inkscape:stockid="Stripes 1:1"
       id="Strips1_1-6"
       patternTransform="matrix(0.66772843,-1.0037085,2.4261878,2.3114548,3.4760987,3.534923)"
       height="1"
       width="2"
       patternUnits="userSpaceOnUse"
       inkscape:collect="always">
      <rect
         id="rect4483-0"
         height="2"
         width="1"
         y="-0.5"
         x="0"
         style="fill:black;stroke:none" />
    </pattern>
    <pattern
       patternTransform="matrix(0.66513382,-1.0631299,2.4167603,2.4482973,-49.762569,2.9546807)"
       id="pattern5296"
       xlink:href="#pattern5231-3"
       inkscape:collect="always" />
    <inkscape:perspective
       id="perspective5288"
       inkscape:persp3d-origin="0.5 : 0.33333333 : 1"
       inkscape:vp_z="1 : 0.5 : 1"
       inkscape:vp_y="0 : 1000 : 0"
       inkscape:vp_x="0 : 0.5 : 1"
       sodipodi:type="inkscape:persp3d" />
    <pattern
       patternTransform="matrix(0.66772843,-1.0037085,2.4261878,2.3114548,-26.336284,10.887197)"
       id="pattern5231-3"
       xlink:href="#Strips1_1-4-3"
       inkscape:collect="always" />
    <pattern
       inkscape:stockid="Stripes 1:1"
       id="Strips1_1-4-3"
       patternTransform="matrix(0.66772843,-1.0037085,2.4261878,2.3114548,3.4760987,3.534923)"
       height="1"
       width="2"
       patternUnits="userSpaceOnUse"
       inkscape:collect="always">
      <rect
         id="rect4483-4-6"
         height="2"
         width="1"
         y="-0.5"
         x="0"
         style="fill:black;stroke:none" />
    </pattern>
    <pattern
       patternTransform="matrix(0.42844886,-0.62155849,1.5567667,1.431396,27.948414,13.306456)"
       id="pattern5330"
       xlink:href="#Strips1_1-9"
       inkscape:collect="always" />
    <inkscape:perspective
       id="perspective5323"
       inkscape:persp3d-origin="0.5 : 0.33333333 : 1"
       inkscape:vp_z="1 : 0.5 : 1"
       inkscape:vp_y="0 : 1000 : 0"
       inkscape:vp_x="0 : 0.5 : 1"
       sodipodi:type="inkscape:persp3d" />
    <pattern
       inkscape:stockid="Stripes 1:1"
       id="Strips1_1-9"
       patternTransform="matrix(0.66772843,-1.0037085,2.4261878,2.3114548,3.4760987,3.534923)"
       height="1"
       width="2"
       patternUnits="userSpaceOnUse"
       inkscape:collect="always">
      <rect
         id="rect4483-3"
         height="2"
         width="1"
         y="-0.5"
         x="0"
         style="fill:black;stroke:none" />
    </pattern>
    <inkscape:perspective
       id="perspective5361"
       inkscape:persp3d-origin="0.5 : 0.33333333 : 1"
       inkscape:vp_z="1 : 0.5 : 1"
       inkscape:vp_y="0 : 1000 : 0"
       inkscape:vp_x="0 : 0.5 : 1"
       sodipodi:type="inkscape:persp3d" />
    <inkscape:perspective
       id="perspective5383"
       inkscape:persp3d-origin="0.5 : 0.33333333 : 1"
       inkscape:vp_z="1 : 0.5 : 1"
       inkscape:vp_y="0 : 1000 : 0"
       inkscape:vp_x="0 : 0.5 : 1"
       sodipodi:type="inkscape:persp3d" />
    <inkscape:perspective
       id="perspective5411"
       inkscape:persp3d-origin="0.5 : 0.33333333 : 1"
       inkscape:vp_z="1 : 0.5 : 1"
       inkscape:vp_y="0 : 1000 : 0"
       inkscape:vp_x="0 : 0.5 : 1"
       sodipodi:type="inkscape:persp3d" />
    <linearGradient
       inkscape:collect="always"
       xlink:href="#linearGradient3681"
       id="linearGradient3687"
       x1="37.89756"
       y1="41.087898"
       x2="4.0605712"
       y2="40.168594"
       gradientUnits="userSpaceOnUse"
       gradientTransform="translate(127.27273,-51.272729)" />
    <linearGradient
       inkscape:collect="always"
       xlink:href="#linearGradient3681"
       id="linearGradient3695"
       x1="37.894287"
       y1="40.484772"
       x2="59.811455"
       y2="43.558987"
       gradientUnits="userSpaceOnUse"
       gradientTransform="translate(127.27273,-51.272729)" />
    <linearGradient
       id="linearGradient3681-3">
      <stop
         id="stop3697-3"
         offset="0"
         style="stop-color:#fff110;stop-opacity:1;" />
      <stop
         style="stop-color:#cf7008;stop-opacity:1;"
         offset="1"
         id="stop3685-4" />
    </linearGradient>
    <linearGradient
       y2="43.558987"
       x2="59.811455"
       y1="40.484772"
       x1="37.894287"
       gradientTransform="translate(-37.00068,-20.487365)"
       gradientUnits="userSpaceOnUse"
       id="linearGradient3608"
       xlink:href="#linearGradient3681-3"
       inkscape:collect="always" />
    <linearGradient
       id="linearGradient4513-2">
      <stop
         style="stop-color:#ffffff;stop-opacity:1;"
         offset="0"
         id="stop4515-2" />
      <stop
         style="stop-color:#999999;stop-opacity:1;"
         offset="1"
         id="stop4517-4" />
    </linearGradient>
    <radialGradient
       r="23.634638"
       fy="7.9319997"
       fx="32.151962"
       cy="7.9319997"
       cx="32.151962"
       gradientTransform="matrix(1,0,0,1.1841158,-8.5173246,-3.4097568)"
       gradientUnits="userSpaceOnUse"
       id="radialGradient4538"
       xlink:href="#linearGradient4513-2"
       inkscape:collect="always" />
    <linearGradient
       id="linearGradient4513-1">
      <stop
         style="stop-color:#ffffff;stop-opacity:1;"
         offset="0"
         id="stop4515-8" />
      <stop
         style="stop-color:#999999;stop-opacity:1;"
         offset="1"
         id="stop4517-6" />
    </linearGradient>
    <radialGradient
       r="23.634638"
       fy="7.9319997"
       fx="32.151962"
       cy="7.9319997"
       cx="32.151962"
       gradientTransform="matrix(1,0,0,1.1841158,-8.5173246,-3.4097568)"
       gradientUnits="userSpaceOnUse"
       id="radialGradient4538-6"
       xlink:href="#linearGradient4513-1"
       inkscape:collect="always" />
    <linearGradient
       id="linearGradient4513-1-3">
      <stop
         style="stop-color:#ffffff;stop-opacity:1;"
         offset="0"
         id="stop4515-8-7" />
      <stop
         style="stop-color:#999999;stop-opacity:1;"
         offset="1"
         id="stop4517-6-5" />
    </linearGradient>
    <radialGradient
       r="23.634638"
       fy="35.869175"
       fx="32.151962"
       cy="35.869175"
       cx="32.151962"
       gradientTransform="matrix(0.39497909,0,0,1.1841158,-2.716491,-26.067007)"
       gradientUnits="userSpaceOnUse"
       id="radialGradient3069"
       xlink:href="#linearGradient4513-1-3"
       inkscape:collect="always" />
    <linearGradient
       id="linearGradient4513-1-2">
      <stop
         style="stop-color:#ffffff;stop-opacity:1;"
         offset="0"
         id="stop4515-8-6" />
      <stop
         style="stop-color:#999999;stop-opacity:1;"
         offset="1"
         id="stop4517-6-6" />
    </linearGradient>
    <radialGradient
       r="23.634638"
       fy="35.869175"
       fx="32.151962"
       cy="35.869175"
       cx="32.151962"
       gradientTransform="matrix(0.39497909,0,0,1.1841158,-2.716491,-26.067007)"
       gradientUnits="userSpaceOnUse"
       id="radialGradient3102"
       xlink:href="#linearGradient4513-1-2"
       inkscape:collect="always" />
    <linearGradient
       inkscape:collect="always"
       xlink:href="#linearGradient4031"
       id="linearGradient4055"
       gradientUnits="userSpaceOnUse"
       gradientTransform="translate(71.494719,-3.1982556)"
       x1="30.000002"
       y1="7.9999995"
       x2="36"
       y2="54.227272" />
    <linearGradient
       id="linearGradient4031">
      <stop
         id="stop4033"
         offset="0"
         style="stop-color:#d3d7cf;stop-opacity:1" />
      <stop
         id="stop4035"
         offset="1"
         style="stop-color:#888a85;stop-opacity:1" />
    </linearGradient>
    <linearGradient
       inkscape:collect="always"
       xlink:href="#linearGradient4030"
       id="linearGradient4036"
       x1="34"
       y1="60"
       x2="24"
       y2="24"
       gradientUnits="userSpaceOnUse"
       gradientTransform="matrix(-0.99821426,0,0,1.1082341,63.942856,-6.6540635)" />
  </defs>
  <sodipodi:namedview
     id="base"
     pagecolor="#ffffff"
     bordercolor="#666666"
     borderopacity="1.0"
     inkscape:pageopacity="0.0"
     inkscape:pageshadow="2"
     inkscape:zoom="15.556349"
     inkscape:cx="32.568665"
     inkscape:cy="29.742953"
     inkscape:current-layer="layer1"
     showgrid="true"
     inkscape:document-units="px"
     inkscape:grid-bbox="true"
     inkscape:snap-bbox="true"
     inkscape:bbox-paths="true"
     inkscape:bbox-nodes="true"
     inkscape:snap-bbox-edge-midpoints="true"
     inkscape:snap-bbox-midpoints="true"
     inkscape:object-paths="true"
     inkscape:object-nodes="true"
     inkscape:window-width="2560"
     inkscape:window-height="1376"
     inkscape:window-x="0"
     inkscape:window-y="27"
     inkscape:window-maximized="1">
    <inkscape:grid
       type="xygrid"
       id="grid3206"
       empspacing="2"
       visible="true"
       enabled="true"
       snapvisiblegridlinesonly="true" />
  </sodipodi:namedview>
  <metadata
     id="metadata2821">
    <rdf:RDF>
      <cc:Work
         rdf:about="">
        <dc:format>image/svg+xml</dc:format>
        <dc:type
           rdf:resource="http://purl.org/dc/dcmitype/StillImage" />
        <dc:title>Path_Tapping.svg</dc:title>
        <dc:title>Path_Drilling</dc:title>
        <dc:date>2015-07-04</dc:date>
        <dc:relation>http://www.freecadweb.org/wiki/index.php?title=Artwork</dc:relation>
        <dc:publisher>
          <cc:Agent>
            <dc:title>FreeCAD</dc:title>
          </cc:Agent>
        </dc:publisher>
        <dc:identifier>FreeCAD/src/Mod/Path/Gui/Resources/icons/Path_Drilling.svg</dc:identifier>
        <dc:rights>
          <cc:Agent>
            <dc:title>FreeCAD LGPL2+</dc:title>
          </cc:Agent>
        </dc:rights>
        <cc:license>https://www.gnu.org/copyleft/lesser.html</cc:license>
        <dc:contributor>
          <cc:Agent>
            <dc:title>[agryson] Alexander Gryson</dc:title>
          </cc:Agent>
        </dc:contributor>
        <dc:creator>
          <cc:Agent>
            <dc:title>[luvtofish] Dan Henderson</dc:title>
          </cc:Agent>
        </dc:creator>
      </cc:Work>
    </rdf:RDF>
  </metadata>
  <g
     id="layer1"
     inkscape:label="Layer 1"
     inkscape:groupmode="layer">
    <path
       style="color:#000000;display:inline;overflow:visible;visibility:visible;fill:none;stroke:#172a04;stroke-width:8;stroke-linecap:butt;stroke-linejoin:round;stroke-miterlimit:4;stroke-dasharray:none;stroke-dashoffset:0;stroke-opacity:1;marker:none;enable-background:accumulate"
       d="M 24,58.098648 V 11"
       id="path3111"
       inkscape:connector-curvature="0"
       sodipodi:nodetypes="cc" />
    <path
       style="color:#000000;display:inline;overflow:visible;visibility:visible;fill:none;stroke:#73d216;stroke-width:4;stroke-linecap:butt;stroke-linejoin:round;stroke-miterlimit:4;stroke-dasharray:none;stroke-dashoffset:0;stroke-opacity:1;marker:none;enable-background:accumulate"
       d="M 24,58.098648 V 11"
       id="path3111-3"
       inkscape:connector-curvature="0"
       sodipodi:nodetypes="cc" />
    <path
       style="color:#000000;display:inline;overflow:visible;visibility:visible;fill:none;stroke:#8ae234;stroke-width:2;stroke-linecap:butt;stroke-linejoin:round;stroke-miterlimit:4;stroke-dasharray:none;stroke-dashoffset:0;stroke-opacity:1;marker:none;enable-background:accumulate"
       d="M 23,58.098648 V 11"
       id="path3111-3-6"
       inkscape:connector-curvature="0"
       sodipodi:nodetypes="cc" />
    <path
       style="color:#000000;display:inline;overflow:visible;visibility:visible;fill:url(#linearGradient4036);fill-opacity:1;fill-rule:nonzero;stroke:#0b1521;stroke-width:2.10357308;stroke-linecap:butt;stroke-linejoin:round;stroke-miterlimit:4;stroke-dasharray:none;stroke-dashoffset:0;stroke-opacity:1;marker:none;enable-background:accumulate"
       d="M 60.948214,21.051787 V 60.948214 H 3.0517866 V 21.051787 h 7.9857144 v 26.597618 l 12.976785,8.865872 12.976785,-8.865872 V 21.051787 Z"
       id="rect3085"
       inkscape:connector-curvature="0"
       sodipodi:nodetypes="cccccccccc" />
    <path
       id="path4022"
       style="fill:none;fill-opacity:1"
       d="m -49.943359,12.642578 -0.388672,0.199219 c 0.03787,0.378509 0.07208,0.757429 0.121093,1.134765 0.05504,0.393702 0.102661,0.788836 0.152344,1.183594 0.03673,-0.03121 0.07685,-0.05827 0.113282,-0.08984 -8.54e-4,-0.349042 -6.43e-4,-0.697833 -0.002,-1.046874 -0.0031,-0.460509 -0.0052,-0.920398 0.0039,-1.38086 z m -1.203125,1.134766 c 7.16e-4,0.285822 0.0038,0.571643 0.002,0.857422 -0.0013,0.359091 10e-4,0.717078 0,1.076172 -2.74e-4,0.0872 -0.0015,0.174518 -0.002,0.261718 0.07989,-0.06325 0.169666,-0.11321 0.255859,-0.167968 -0.06573,-0.571662 -0.141064,-1.14152 -0.220703,-1.710938 -0.01362,-0.105231 -0.02209,-0.211053 -0.03516,-0.316406 z m 0.353515,3.101562 c -0.01685,0.01841 -0.03528,0.0352 -0.05273,0.05273 -0.09022,0.09063 -0.179134,0.179082 -0.269531,0.269531 -0.0059,0.0091 -0.01523,0.0147 -0.02148,0.02344 0.02996,0.228375 0.05365,0.457421 0.06641,0.6875 0.01372,0.295108 0.01432,0.58941 0.01562,0.884766 -6e-6,0.128875 3.6e-5,0.257844 0,0.386719 0.130328,0.0097 0.260615,0.0219 0.390626,0.03516 -0.01447,-0.495631 -0.02639,-0.991403 -0.05469,-1.486328 -0.0163,-0.285012 -0.04958,-0.569114 -0.07422,-0.853516 z m -0.261719,3.199219 c 5.12e-4,0.270816 0.0018,0.541684 0.002,0.8125 6.4e-5,0.01693 -5.1e-5,0.03385 0,0.05078 0.05218,-0.0099 0.09751,-0.02483 0.158203,-0.02734 0.10673,-0.0044 0.213548,-0.0011 0.320312,-0.002 -0.02553,-0.259031 -0.03711,-0.519366 -0.05273,-0.779297 -0.06837,-0.01061 -0.09891,-0.01787 -0.283203,-0.03711 -0.142978,-0.01493 -0.08629,-0.01297 -0.144532,-0.01758 z m 0.002,1.726563 c -2.32e-4,0.112642 -2.6e-5,0.225248 0,0.33789 -0.02668,0.399597 -0.05889,0.799046 -0.07617,1.199219 -0.01295,0.353904 -0.01538,0.708402 -0.01758,1.0625 -0.0013,0.237701 -0.0028,0.475185 -0.002,0.712891 0.0017,0.23523 -5.57e-4,0.469845 0,0.705078 5.92e-4,0.23563 5.36e-4,0.471401 0,0.707031 -4.76e-4,0.193606 9.9e-5,0.386472 0,0.580078 7.4e-5,0.185268 -8.88e-4,0.371374 0,0.556641 4.4e-4,0.223083 3.58e-4,0.446839 0,0.669922 0.0038,0.22959 -0.01152,0.459014 0.01367,0.6875 0.02395,0.24373 0.06972,0.483305 0.109375,0.724609 0.0091,-0.03476 0.02015,-0.08427 0.0293,-0.119141 0.07419,-0.450247 0.15177,-0.900205 0.21875,-1.351562 0.523224,-3.525791 0.487999,-3.407686 0.664063,-4.314453 -0.01953,-0.114778 -0.007,-0.0198 -0.04102,-0.236329 -0.04682,-0.297962 -0.08048,-0.598169 -0.125,-0.896484 -0.04655,-0.311893 -0.0996,-0.622051 -0.148437,-0.933594 -0.004,-0.0254 -0.0076,-0.0508 -0.01172,-0.07617 -0.139327,2.24e-4 -0.27871,-0.0039 -0.417969,0.002 -0.07393,0.0031 -0.133079,-0.0089 -0.195312,-0.01758 z m 1.189453,7.097656 c -0.08704,0.32597 -0.176053,0.660741 -0.244141,0.919922 -0.04457,0.269464 -0.08345,0.539626 -0.130859,0.808593 -0.107424,0.609408 -0.295335,1.61626 -0.501953,2.277344 -0.02715,0.08685 -0.07199,0.16611 -0.111328,0.248047 0.0039,0.03897 8.22e-4,0.07818 0.0059,0.117188 0.02322,0.267324 0.08013,0.529164 0.115234,0.794921 0.02971,0.246979 0.03361,0.495718 0.03711,0.744141 0.0017,0.216829 7.13e-4,0.43356 0,0.650391 -2.81e-4,0.233789 8.7e-5,0.469335 0,0.703125 -7.54e-4,0.265383 0.0021,0.529539 0.002,0.794922 -10e-4,0.242159 -0.0016,0.484401 -0.002,0.726562 0.0048,0.199914 0.0043,0.395107 -0.03125,0.591797 -0.04003,0.199812 -0.04919,0.404321 -0.05469,0.607422 l 1.060547,-0.535157 c -0.01815,-0.442117 -0.03752,-0.884202 -0.05078,-1.326171 -0.07372,-2.456556 -0.05831,-4.913798 -0.05859,-7.371094 0.0038,-0.283412 0.0047,-0.285172 0.0078,-0.417969 -0.0037,-0.02651 -0.0016,-0.05365 -0.0059,-0.08008 -0.01399,-0.08451 -0.02346,-0.16949 -0.03711,-0.253906 z" />
    <path
       style="fill:none;stroke:#000000;stroke-width:2;stroke-linecap:butt;stroke-linejoin:miter;stroke-miterlimit:4;stroke-dasharray:none;stroke-opacity:1"
       d="m 14,3 2,2 -2,2 2,2 -2,2 2,2 -2,2 2,2 -2,2 2,2 -2,2 2,2 -2,2 2,2 -2,2 2,2 -2,2 2,2 -1,2 1,2 8,7 8,-7 1,-2 -1,-2 2,-2 -2,-2 v 0 l 2,-2 -2,-2 2,-2 -2,-2 2,-2 -2,-2 2,-2 -2,-2 2,-2 -2,-2 2,-2 -2,-2 2,-2 -2,-2 2,-2 z"
       id="path4038"
       inkscape:connector-curvature="0"
       sodipodi:nodetypes="ccccccccccccccccccccccccccccccccccccccccccc" />
    <g
       id="g1508">
      <path
         sodipodi:nodetypes="ssss"
         inkscape:connector-curvature="0"
         id="path4090"
         d="m 19.593942,5.965468 c 2.4125,-0.01347 6.360227,-0.01347 8.772727,0 2.4125,0.01347 0.438637,0.02449 -4.386363,0.02449 -4.825,0 -6.798864,-0.01102 -4.386364,-0.02449 z"
         style="fill:#888a85;fill-opacity:1;stroke-width:0.09090909" />
      <path
         inkscape:connector-curvature="0"
         id="path4096"
         d="M 16.02576,5.215447 16.748767,4.4881747 16.02576,3.760902 15.302753,3.0336293 h 8.677553 8.677552 L 31.934851,3.760902 31.211844,4.4881747 31.934851,5.215447 32.657858,5.94272 h -8.677552 -8.677553 z"
         style="fill:#888a85;fill-opacity:1;stroke-width:0.09090909" />
      <path
         inkscape:connector-curvature="0"
         id="path4098"
         d="m 16.02576,13.215447 0.723007,-0.727272 -0.723007,-0.727273 -0.723007,-0.727273 h 8.677553 8.677552 l -0.723007,0.727273 -0.723007,0.727273 0.723007,0.727272 0.723007,0.727273 h -8.677552 -8.677553 z"
         style="fill:#888a85;fill-opacity:1;stroke-width:0.09090909" />
      <path
         inkscape:connector-curvature="0"
         id="path4100"
         d="m 16.02576,21.215447 0.723007,-0.727272 -0.723007,-0.727273 -0.723007,-0.727273 h 8.677553 8.677552 l -0.723007,0.727273 -0.723007,0.727273 0.723007,0.727272 0.723007,0.727273 h -8.677552 -8.677553 z"
         style="fill:#888a85;fill-opacity:1;stroke-width:0.09090909" />
      <path
         inkscape:connector-curvature="0"
         id="path4102"
         d="m 16.02576,29.215447 0.723007,-0.727272 -0.723007,-0.727273 -0.723007,-0.727273 h 8.677553 8.677552 l -0.723007,0.727273 -0.723007,0.727273 0.723007,0.727272 0.723007,0.727273 h -8.677552 -8.677553 z"
         style="fill:#888a85;fill-opacity:1;stroke-width:0.09090909" />
      <path
         inkscape:connector-curvature="0"
         id="path4104"
         d="m 16.274019,37.169864 0.383298,-0.772857 -0.67714,-0.681689 -0.677139,-0.681689 h 8.677268 8.677267 l -0.664362,0.668827 -0.664363,0.668826 0.371183,0.738246 c 0.204151,0.406036 0.371184,0.75961 0.371184,0.78572 0,0.02611 -3.640611,0.04747 -8.090247,0.04747 h -8.090246 z"
         style="fill:#babdb6;fill-opacity:1;stroke-width:0.09090909" />
      <path
         inkscape:connector-curvature="0"
         id="path4108"
         d="M 16.02576,9.215447 16.748767,8.488175 16.02576,7.760902 15.302753,7.033629 h 8.677553 8.677552 l -0.723007,0.727273 -0.723007,0.727273 0.723007,0.727272 0.723007,0.727273 h -8.677552 -8.677553 z"
         style="fill:#d3d7cf;fill-opacity:1;stroke-width:0.09090909" />
      <path
         inkscape:connector-curvature="0"
         id="path4110"
         d="m 16.02576,17.215447 0.723007,-0.727272 -0.723007,-0.727273 -0.723007,-0.727273 h 8.677553 8.677552 l -0.723007,0.727273 -0.723007,0.727273 0.723007,0.727272 0.723007,0.727273 h -8.677552 -8.677553 z"
         style="fill:#d3d7cf;fill-opacity:1;stroke-width:0.09090909" />
      <path
         inkscape:connector-curvature="0"
         id="path4112"
         d="m 16.02576,25.215447 0.723007,-0.727272 -0.723007,-0.727273 -0.723007,-0.727273 h 8.677553 8.677552 l -0.723007,0.727273 -0.723007,0.727273 0.723007,0.727272 0.723007,0.727273 h -8.677552 -8.677553 z"
         style="fill:#d3d7cf;fill-opacity:1;stroke-width:0.09090909" />
      <path
         inkscape:connector-curvature="0"
         id="path4114"
         d="m 16.02576,33.215447 0.723007,-0.727272 -0.723007,-0.727273 -0.723007,-0.727273 h 8.677553 8.677552 l -0.723007,0.727273 -0.723007,0.727273 0.723007,0.727272 0.723007,0.727273 h -8.677552 -8.677553 z"
         style="fill:#888a85;fill-opacity:1;stroke-width:0.09090909" />
      <path
         inkscape:connector-curvature="0"
         id="path4116"
         d="m 15.984805,37.88419 c 0.0025,-0.04281 0.161567,-0.384652 0.35354,-0.759652 l 0.349041,-0.681818 -0.647621,-0.681818 -0.647621,-0.681818 4.294081,-0.02362 c 2.361744,-0.01299 6.227035,-0.01299 8.589535,0 l 4.295455,0.02362 -0.586118,0.617308 c -0.553774,0.583244 -0.735893,0.882692 -0.536837,0.882692 0.04853,0 0.06295,0.04091 0.03205,0.09091 -0.0309,0.05 -0.01045,0.09091 0.04545,0.09091 0.0559,0 0.07636,0.04091 0.04545,0.09091 -0.0309,0.05 -0.01045,0.09091 0.04545,0.09091 0.0559,0 0.07636,0.04091 0.04546,0.09091 -0.0309,0.05 -0.01045,0.09091 0.04545,0.09091 0.0559,0 0.07636,0.04091 0.04546,0.09091 -0.0309,0.05 -0.01045,0.09091 0.04545,0.09091 0.0559,0 0.07636,0.04091 0.04546,0.09091 -0.0309,0.05 -0.01045,0.09091 0.04546,0.09091 0.0559,0 0.07636,0.04091 0.04545,0.09091 -0.0309,0.05 -0.0047,0.09091 0.05827,0.09091 0.09156,0 0.09173,0.02273 8.18e-4,0.113636 -0.08867,0.08867 -1.860012,0.120749 -8.063636,0.146015 -4.376254,0.01782 -7.947985,-0.0026 -7.945508,-0.04545 z"
         style="fill:#888a85;fill-opacity:1;stroke-width:0.09090909" />
      <path
         inkscape:connector-curvature="0"
         id="path4118"
         d="m 16.02576,25.215447 0.723007,-0.727272 -0.723007,-0.727273 -0.723007,-0.727273 h 8.677553 8.677552 l -0.723007,0.727273 -0.723007,0.727273 0.723007,0.727272 0.723007,0.727273 h -8.677552 -8.677553 z"
         style="fill:#888a85;fill-opacity:1;stroke-width:0.09090909" />
      <path
         inkscape:connector-curvature="0"
         id="path4120"
         d="m 16.02576,17.215447 0.723007,-0.727272 -0.723007,-0.727273 -0.723007,-0.727273 h 8.677553 8.677552 l -0.723007,0.727273 -0.723007,0.727273 0.723007,0.727272 0.723007,0.727273 h -8.677552 -8.677553 z"
         style="fill:#888a85;fill-opacity:1;stroke-width:0.09090909" />
      <path
         inkscape:connector-curvature="0"
         id="path4122"
         d="M 16.02576,9.215447 16.748767,8.488175 16.02576,7.760902 15.302753,7.033629 h 8.677553 8.677552 l -0.723007,0.727273 -0.723007,0.727273 0.723007,0.727272 0.723007,0.727273 h -8.677552 -8.677553 z"
         style="fill:#888a85;fill-opacity:1;stroke-width:0.09090909" />
      <path
         inkscape:connector-curvature="0"
         id="path4124"
         d="m 23.707578,46.482483 c -0.125,-0.0998 -0.352415,-0.29276 -0.505368,-0.428793 -0.152952,-0.136034 -0.472796,-0.41097 -0.710764,-0.61097 -0.237967,-0.2 -0.54605,-0.465909 -0.684627,-0.590909 -0.412419,-0.372012 -0.945484,-0.837658 -1.456997,-1.272727 -0.264534,-0.225 -0.592528,-0.511364 -0.728875,-0.636364 -0.136348,-0.125 -0.428316,-0.384874 -0.648819,-0.577498 -1.687415,-1.474072 -2.513274,-2.310699 -2.769731,-2.805843 -0.12215,-0.235838 -0.222091,-0.453745 -0.222091,-0.484238 0,-0.03049 3.577519,-0.04208 7.950042,-0.02575 6.206606,0.02318 7.974954,0.05461 8.063637,0.143328 0.09085,0.09089 0.09068,0.113637 -8.18e-4,0.113637 -0.06295,0 -0.08917,0.04091 -0.05827,0.09091 0.0309,0.05 0.01045,0.09091 -0.04545,0.09091 -0.0559,0 -0.07636,0.04091 -0.04545,0.09091 0.0309,0.05 0.01045,0.09091 -0.04546,0.09091 -0.0559,0 -0.07851,0.03742 -0.05025,0.08314 0.02826,0.04573 0.0169,0.09687 -0.02525,0.113637 -0.04215,0.01677 -0.263558,0.242296 -0.492013,0.501167 -0.228455,0.258872 -0.433236,0.452813 -0.455068,0.43098 -0.02183,-0.02183 -0.23122,0.155 -0.465305,0.392961 -0.234085,0.237961 -0.578026,0.563069 -0.764313,0.722463 -0.186288,0.159393 -0.522795,0.45336 -0.747795,0.653261 -0.225,0.1999 -0.552273,0.486264 -0.727273,0.636363 -0.175,0.1501 -0.502272,0.436464 -0.727272,0.636364 -0.225,0.1999 -0.565989,0.499033 -0.757753,0.664739 -0.191764,0.165707 -0.485607,0.434239 -0.652987,0.596739 -0.167378,0.1625 -0.346236,0.295455 -0.397462,0.295455 -0.05123,0 -0.207382,0.14318 -0.347014,0.318179 -0.139632,0.174998 -0.301375,0.31818 -0.35943,0.318182 -0.05806,1e-6 -0.211465,0.125868 -0.34091,0.279705 -0.129489,0.153836 -0.235398,0.247927 -0.235398,0.20909 0,-0.03884 -0.04909,-0.02152 -0.109091,0.03848 -0.141539,0.141539 -0.16649,0.137055 -0.436364,-0.07842 z"
         style="fill:#d3d7cf;fill-opacity:1;stroke-width:0.09090909" />
      <path
         inkscape:connector-curvature="0"
         id="path4126"
         d="m 16.866669,37.88145 c -0.4375,-0.0202 -0.795454,-0.05889 -0.795454,-0.086 0,-0.0271 0.144259,-0.336728 0.320577,-0.688053 l 0.320577,-0.638771 -0.591039,-0.660383 -0.591039,-0.660382 4.225007,-0.06736 c 2.323754,-0.03705 6.1247,-0.03707 8.446547,-5.5e-5 l 4.221538,0.0673 -0.53972,0.627091 c -0.296846,0.3449 -0.539721,0.647517 -0.539721,0.672481 0,0.02496 0.141557,0.326484 0.314571,0.670044 l 0.314571,0.624654 -0.291844,0.05036 c -0.352803,0.06088 -13.688385,0.141054 -14.814571,0.08907 z"
         style="fill:#d3d7cf;fill-opacity:1;stroke-width:0.09090909" />
      <path
         inkscape:connector-curvature="0"
         id="path4128"
         d="m 16.116669,33.215447 0.723008,-0.727272 -0.723008,-0.727273 -0.723007,-0.727273 h 8.586644 8.586643 l -0.723007,0.727273 -0.723007,0.727273 0.723007,0.727272 0.723007,0.727273 h -8.586643 -8.586644 z"
         style="fill:#d3d7cf;fill-opacity:1;stroke-width:0.09090909" />
      <path
         inkscape:connector-curvature="0"
         id="path4130"
         d="m 16.116669,29.215447 0.723008,-0.727272 -0.723008,-0.727273 -0.723007,-0.727273 h 8.586644 8.586643 l -0.723007,0.727273 -0.723007,0.727273 0.723007,0.727272 0.723007,0.727273 h -8.586643 -8.586644 z"
         style="fill:#d3d7cf;fill-opacity:1;stroke-width:0.09090909" />
      <path
         inkscape:connector-curvature="0"
         id="path4132"
         d="m 16.055851,25.270591 c 0.35845,-0.369671 0.651727,-0.721758 0.651727,-0.782416 0,-0.06066 -0.293277,-0.412746 -0.651727,-0.782417 l -0.651727,-0.672129 h 8.571949 c 8.005282,0 8.563702,0.01006 8.447182,0.152213 -0.06862,0.08372 -0.359995,0.400138 -0.647495,0.703158 -0.2875,0.303019 -0.522727,0.572648 -0.522727,0.599175 0,0.02653 0.235227,0.296156 0.522727,0.599175 0.2875,0.303019 0.578873,0.61944 0.647495,0.703157 0.11652,0.142151 -0.4419,0.152213 -8.447182,0.152213 h -8.571949 z"
         style="fill:#d3d7cf;fill-opacity:1;stroke-width:0.09090909" />
      <path
         inkscape:connector-curvature="0"
         id="path4134"
         d="m 16.116669,21.215447 0.723008,-0.727272 -0.723008,-0.727273 -0.723007,-0.727273 h 8.586644 8.586643 l -0.723007,0.727273 -0.723007,0.727273 0.723007,0.727272 0.723007,0.727273 h -8.586643 -8.586644 z"
         style="fill:#d3d7cf;fill-opacity:1;stroke-width:0.09090909" />
      <path
         inkscape:connector-curvature="0"
         id="path4136"
         d="m 16.055851,17.270591 c 0.35845,-0.369671 0.651727,-0.721758 0.651727,-0.782416 0,-0.06066 -0.293277,-0.412746 -0.651727,-0.782417 l -0.651727,-0.672129 h 8.571949 c 8.005282,0 8.563702,0.01006 8.447182,0.152213 -0.06862,0.08372 -0.359995,0.400138 -0.647495,0.703158 -0.2875,0.303019 -0.522727,0.572648 -0.522727,0.599175 0,0.02653 0.235227,0.296156 0.522727,0.599175 0.2875,0.303019 0.578873,0.61944 0.647495,0.703157 0.11652,0.142151 -0.4419,0.152213 -8.447182,0.152213 h -8.571949 z"
         style="fill:#d3d7cf;fill-opacity:1;stroke-width:0.09090909" />
      <path
         inkscape:connector-curvature="0"
         id="path4138"
         d="m 16.116669,13.215447 0.723008,-0.727272 -0.723008,-0.727273 -0.723007,-0.727273 h 8.586644 8.586643 l -0.723007,0.727273 -0.723007,0.727273 0.723007,0.727272 0.723007,0.727273 h -8.586643 -8.586644 z"
         style="fill:#d3d7cf;fill-opacity:1;stroke-width:0.09090909" />
      <path
         sodipodi:nodetypes="ssscsccsssscs"
         inkscape:connector-curvature="0"
         id="path4140"
         d="m 16.055851,9.270591 c 0.35845,-0.369671 0.651727,-0.721758 0.651727,-0.782416 0,-0.06066 -0.293277,-0.412746 -0.651727,-0.782417 L 15.404124,7.033629 h 8.571949 c 8.005282,0 8.563702,0.01006 8.447182,0.152213 -0.06862,0.08372 -0.359995,0.400138 -0.647495,0.703158 -0.2875,0.303019 -0.522727,0.572648 -0.522727,0.599175 0,0.02653 0.235227,0.296156 0.522727,0.599175 0.2875,0.303019 0.578873,0.61944 0.647495,0.703157 0.11652,0.142151 -0.4419,0.152213 -8.447182,0.152213 h -8.571949 z"
         style="fill:#d3d7cf;fill-opacity:1;stroke-width:0.09090909" />
      <path
         inkscape:connector-curvature="0"
         id="path4142"
         d="M 16.116669,5.215447 16.839677,4.4881747 16.116669,3.760902 15.393662,3.0336293 h 8.586644 8.586643 L 31.843942,3.760902 31.120935,4.4881747 31.843942,5.215447 32.566949,5.94272 h -8.586643 -8.586644 z"
         style="fill:#d3d7cf;fill-opacity:1;stroke-width:0.09090909" />
      <path
         inkscape:connector-curvature="0"
         id="path4072"
         d="M 14,6.5 H 34"
         style="fill:none;stroke:#000000;stroke-width:2;stroke-linecap:butt;stroke-linejoin:miter;stroke-opacity:1;stroke-miterlimit:4;stroke-dasharray:none;fill-opacity:1;opacity:1" />
      <path
         inkscape:connector-curvature="0"
         id="path4074"
         d="M 14,10.5 H 34"
         style="fill:none;stroke:#000000;stroke-width:2;stroke-linecap:butt;stroke-linejoin:miter;stroke-opacity:1;stroke-miterlimit:4;stroke-dasharray:none" />
      <path
         inkscape:connector-curvature="0"
         id="path4076"
         d="M 14,14.5 H 34"
         style="fill:none;stroke:#000000;stroke-width:2;stroke-linecap:butt;stroke-linejoin:miter;stroke-opacity:1;stroke-miterlimit:4;stroke-dasharray:none" />
      <path
         inkscape:connector-curvature="0"
         id="path4078"
         d="M 14,18.5 H 34"
         style="fill:none;stroke:#000000;stroke-width:2;stroke-linecap:butt;stroke-linejoin:miter;stroke-opacity:1;stroke-miterlimit:4;stroke-dasharray:none" />
      <path
         inkscape:connector-curvature="0"
         id="path4080"
         d="M 14,22.5 H 34"
         style="fill:none;stroke:#000000;stroke-width:2;stroke-linecap:butt;stroke-linejoin:miter;stroke-opacity:1;stroke-miterlimit:4;stroke-dasharray:none" />
      <path
         inkscape:connector-curvature="0"
         id="path4082"
         d="M 14,26.5 H 34"
         style="fill:none;stroke:#000000;stroke-width:2;stroke-linecap:butt;stroke-linejoin:miter;stroke-opacity:1;stroke-miterlimit:4;stroke-dasharray:none" />
      <path
         inkscape:connector-curvature="0"
         id="path4084"
         d="M 14,30.5 H 34"
         style="fill:none;stroke:#000000;stroke-width:2;stroke-linecap:butt;stroke-linejoin:miter;stroke-opacity:1;stroke-miterlimit:4;stroke-dasharray:none" />
      <path
         inkscape:connector-curvature="0"
         id="path4086"
         d="M 14,34.5 H 34"
         style="fill:none;stroke:#000000;stroke-width:2;stroke-linecap:butt;stroke-linejoin:miter;stroke-opacity:1;stroke-miterlimit:4;stroke-dasharray:none" />
      <path
         inkscape:connector-curvature="0"
         id="path4106"
         d="m 20.207578,43.473688 c -3.491397,-3.065725 -3.746049,-3.309774 -4.02398,-3.85645 l -0.296709,-0.583609 h 8.092163 c 4.450689,0 8.092163,0.02162 8.092163,0.04805 0,0.02643 -0.119526,0.284826 -0.265613,0.574223 -0.239868,0.475176 -0.627676,0.8428 -4.001113,3.792862 -2.054524,1.796678 -3.76568,3.27368 -3.802568,3.282228 -0.03689,0.0085 -1.744343,-1.457238 -3.794343,-3.257301 z"
         style="fill:#d3d7cf;fill-opacity:1;stroke-width:0.09090909" />
      <path
         inkscape:connector-curvature="0"
         id="path4088"
         d="M 15,38.5 H 33"
         style="fill:none;stroke:#000000;stroke-width:2;stroke-linecap:butt;stroke-linejoin:miter;stroke-opacity:1;stroke-miterlimit:4;stroke-dasharray:none" />
    </g>
  </g>
</svg>
