<?xml version="1.0" encoding="UTF-8" standalone="no"?>
<svg xmlns:dc="http://purl.org/dc/elements/1.1/" xmlns:cc="http://creativecommons.org/ns#" xmlns:rdf="http://www.w3.org/1999/02/22-rdf-syntax-ns#" xmlns:svg="http://www.w3.org/2000/svg" xmlns="http://www.w3.org/2000/svg" xmlns:xlink="http://www.w3.org/1999/xlink" xmlns:sodipodi="http://sodipodi.sourceforge.net/DTD/sodipodi-0.dtd" xmlns:inkscape="http://www.inkscape.org/namespaces/inkscape" width="64" height="64" viewBox="0 0 64.000001 64.000001" id="svg2" version="1.1" inkscape:version="0.48.5 r10040" sodipodi:docname="Path_MachineMill.svg">
  <sodipodi:namedview pagecolor="#ffffff" bordercolor="#666666" borderopacity="1" objecttolerance="10" gridtolerance="10" guidetolerance="10" inkscape:pageopacity="0" inkscape:pageshadow="2" inkscape:window-width="1920" inkscape:window-height="1057" id="namedview20" showgrid="true" inkscape:zoom="7.375" inkscape:cx="13.827211" inkscape:cy="8.1164893" inkscape:window-x="1912" inkscape:window-y="-8" inkscape:window-maximized="1" inkscape:current-layer="layer1-9">
    <inkscape:grid type="xygrid" id="grid2997" empspacing="2" visible="true" enabled="true" snapvisiblegridlinesonly="true"/>
  </sodipodi:namedview>
  <defs id="defs4">
    <linearGradient inkscape:collect="always" id="linearGradient3802">
      <stop style="stop-color:#2e3436;stop-opacity:1" offset="0" id="stop3804"/>
      <stop style="stop-color:#888a85;stop-opacity:1" offset="1" id="stop3806"/>
    </linearGradient>
    <linearGradient inkscape:collect="always" id="linearGradient3794">
      <stop style="stop-color:#888a85;stop-opacity:1" offset="0" id="stop3796"/>
      <stop style="stop-color:#d3d7cf;stop-opacity:1" offset="1" id="stop3798"/>
    </linearGradient>
    <linearGradient id="linearGradient4513">
      <stop style="stop-color:#ffffff;stop-opacity:1;" offset="0" id="stop4515"/>
      <stop style="stop-color:#999999;stop-opacity:1;" offset="1" id="stop4517"/>
    </linearGradient>
    <radialGradient gradientUnits="userSpaceOnUse" gradientTransform="matrix(0.8497066,0,0,2.1506327,4.8093893,895.3819)" r="29.100386" fy="48.100151" fx="32" cy="48.100151" cx="32" id="radialGradient4285" xlink:href="#linearGradient4513"/>
    <radialGradient r="23.634638" fy="7.9319997" fx="32.151962" cy="7.9319997" cx="32.151962" gradientTransform="matrix(0.52575596,0,0,0.86962429,15.095912,1002.4549)" gradientUnits="userSpaceOnUse" id="radialGradient3080" xlink:href="#linearGradient4513"/>
    <linearGradient spreadMethod="reflect" gradientUnits="userSpaceOnUse" y2="745.18579" x2="770.07739" y1="753.75165" x1="775.59778" id="linearGradient7889" xlink:href="#linearGradient7883" gradientTransform="matrix(0.34129297,0,0,0.34129297,-302.71898,762.9037)"/>
    <linearGradient id="linearGradient7883">
      <stop id="stop7885" offset="0" style="stop-color:#888a85;stop-opacity:1"/>
      <stop id="stop7887" offset="1" style="stop-color:#d3d7cf;stop-opacity:1"/>
    </linearGradient>
    <linearGradient inkscape:collect="always" xlink:href="#linearGradient3838" id="linearGradient3844" x1="31" y1="54" x2="30" y2="44" gradientUnits="userSpaceOnUse"/>
    <linearGradient inkscape:collect="always" id="linearGradient3838">
      <stop style="stop-color:#888a85;stop-opacity:1" offset="0" id="stop3840"/>
      <stop style="stop-color:#d3d7cf;stop-opacity:1" offset="1" id="stop3842"/>
    </linearGradient>
    <linearGradient gradientTransform="translate(2.103125e-6,-38.000002)" y2="44" x2="30" y1="54" x1="31" gradientUnits="userSpaceOnUse" id="linearGradient3039" xlink:href="#linearGradient3838" inkscape:collect="always"/>
    <linearGradient inkscape:collect="always" xlink:href="#linearGradient3794" id="linearGradient3800" x1="97" y1="25" x2="96" y2="21" gradientUnits="userSpaceOnUse" gradientTransform="translate(-63.999999,-4.23125e-7)"/>
    <linearGradient inkscape:collect="always" xlink:href="#linearGradient3802" id="linearGradient3808" x1="-36.128834" y1="1025.0262" x2="-38.012905" y2="1021.1283" gradientUnits="userSpaceOnUse" spreadMethod="reflect"/>
  </defs>
  <metadata id="metadata7">
    <rdf:RDF>
      <cc:Work rdf:about="">
        <dc:format>image/svg+xml</dc:format>
        <dc:type rdf:resource="http://purl.org/dc/dcmitype/StillImage"/>
        <dc:title/>
        <dc:title>Path_MachineMill</dc:title>
        <dc:date>2016-05-15</dc:date>
        <dc:relation>http://www.freecad.org/wiki/index.php?title=Artwork</dc:relation>
        <dc:publisher>
          <cc:Agent>
            <dc:title>FreeCAD</dc:title>
          </cc:Agent>
        </dc:publisher>
        <dc:identifier>FreeCAD/src/Mod/Path/Gui/Resources/icons/Path_MachineMill.svg</dc:identifier>
        <dc:rights>
          <cc:Agent>
            <dc:title>FreeCAD LGPL2+</dc:title>
          </cc:Agent>
        </dc:rights>
        <cc:license>https://www.gnu.org/copyleft/lesser.html</cc:license>
        <dc:contributor>
          <cc:Agent>
            <dc:title>[agryson] Alexander Gryson</dc:title>
          </cc:Agent>
        </dc:contributor>
      </cc:Work>
    </rdf:RDF>
  </metadata>
  <g id="layer1" transform="translate(0,-988.36216)">
    <g transform="matrix(1.0615305,0,0,1.0261836,70.35186,-26.50297)" id="layer1-9">
      <path d="m -34.100645,1040.9716 c 0,0 -2.227414,1.6232 -3.280945,2.5097 -1.323718,1.1138 -2.302618,1.2447 -3.493587,3.3742 0,0.2631 0.04333,2.2924 0.04333,2.2924 0.85054,-1.4892 5.735435,-4.1624 6.189935,-4.2928 1.757904,-0.5045 2.830895,-1.2897 1.645138,-3.0763 -0.211325,-0.3184 -0.640658,-0.6069 -0.921891,-0.7286 l -0.181977,-0.079 z m 0,-8.8737 c -1.978598,1.7487 -5.506612,2.0337 -6.740536,5.7027 -0.01259,0.056 0.0049,0.1875 0.0087,0.2166 0.09222,0.7104 0.761517,1.6048 1.452495,1.9411 0.240277,0.117 0.318867,0.1065 0.52927,-0.071 2.975549,-2.0966 4.998891,-2.899 6.45257,-4.5814 0,0 0.01669,-0.1142 0.02068,-0.24 -0.0065,-0.4805 -0.01652,-0.8719 -0.03198,-0.9666 -0.05535,-0.338 -0.31612,-0.868 -0.587267,-1.1938 -0.244471,-0.2937 -0.640658,-0.6069 -0.92189,-0.7286 l -0.181977,-0.079 z m 0,-8.8736 c -2.010164,1.2268 -5.085255,3.1143 -6.740536,5.7027 -0.02932,0.049 0.0049,0.1875 0.0087,0.2166 0.09222,0.7104 0.761517,1.6048 1.452495,1.9411 0.240277,0.117 0.318867,0.1065 0.52927,-0.071 1.711564,-1.3324 6.587999,-2.9729 6.45257,-4.5815 0.01,-0.018 0.01669,-0.1141 0.02068,-0.2399 -0.0065,-0.4805 -0.01652,-0.8719 -0.03198,-0.9666 -0.05535,-0.338 -0.31612,-0.868 -0.587267,-1.1938 -0.244471,-0.2938 -0.640658,-0.6069 -0.92189,-0.7286 l -0.181977,-0.079 z m 1.667803,-15.5428 -8.385677,0.015 0,11.8665 c 0,0.8886 0.990688,2.196 1.433164,2.4797 0.144442,0.1198 0.220185,0.2379 0.430616,0.06 1.615746,-1.2826 4.940069,-2.1764 6.521897,-4.5447 l 0,-9.8769 z" style="fill:url(#linearGradient7889);fill-opacity:1;fill-rule:nonzero;stroke:none" id="rect7856" inkscape:connector-curvature="0"/>
      <path id="path5774" d="m -41.414086,1007.0465 -0.07371,12.5346 c -0.0073,1.2401 0.696009,2.35 1.601616,2.9489 0.120275,0.078 0.237683,0.1058 0.302874,0.1527 -0.275079,0.1386 -0.53298,0.3177 -0.77124,0.5406 -0.440265,0.4118 -0.844404,1.0804 -0.934556,1.5465 -0.02253,0.1165 -0.0394,0.487 -0.05266,0.9245 -10e-4,0.029 -0.0017,0.063 -0.0027,0.093 -0.0066,0.2394 -0.01218,0.4729 -0.01532,0.7479 -0.01904,1.084 -0.01911,2.3761 0.01734,2.711 0.0799,0.7344 0.379821,1.3471 0.93189,1.9005 0.187257,0.1876 0.41694,0.3571 0.661255,0.4979 -0.213547,0.1242 -0.415306,0.2749 -0.605259,0.4526 -0.440265,0.4119 -0.844403,1.0804 -0.934556,1.5465 -0.02252,0.1165 -0.03939,0.487 -0.05266,0.9245 -10e-4,0.029 -0.0017,0.063 -0.0027,0.093 -0.0066,0.2394 -0.01218,0.4729 -0.01532,0.7479 -0.01904,1.084 -0.01911,2.3761 0.01734,2.711 0.0799,0.7344 0.379821,1.3471 0.93189,1.9005 0.231939,0.2324 0.528089,0.4389 0.837902,0.5946 -0.03078,0.019 -0.03177,0.025 -0.07066,0.047 -0.303932,0.1744 -0.698224,0.4969 -0.961221,0.7866 -0.256564,0.2825 -0.574779,0.8325 -0.693252,1.3131 -0.180673,2.373 0.0243,6.3728 0.01666,6.8842 l 4.540903,0 3.890409,0 c 0.01061,-0.9137 -0.644508,-0.7799 -1.082844,-1.4583 -0.0468,-0.1 -2.661222,0.8702 -2.661222,0.8702 -0.01027,-0.1334 2.55237,-1.511 2.693781,-1.4216 0.214087,-0.1728 1.077124,-2.079 1.455055,-2.7771 0.362812,-0.8144 0.753394,-1.5123 0.439582,-2.324 -0.324064,-0.8391 -1.031297,-1.3608 -1.644472,-1.9071 l -0.02399,-0.046 c 0.733405,-0.7667 1.364776,-1.0317 1.677799,-1.8795 l 0.11132,-0.3079 0.01468,-2.1724 0.01468,-2.1724 -0.0034,-0.01 0.0014,-0.2239 -0.163981,-0.4187 c -0.306351,-0.7804 -0.805809,-1.3584 -1.463826,-1.7399 0.623262,-0.3881 1.201635,-1.0301 1.489157,-1.8296 l 0.11132,-0.308 0.01468,-2.1724 0.01468,-2.1724 -0.0034,-0.01 0.0014,-0.2239 -0.163981,-0.4186 c -0.31028,-0.7904 -0.817912,-1.3948 -1.488491,-1.7718 -0.06212,-0.035 -0.11304,0.093 -0.168647,0.062 0.891635,-0.5365 1.393912,-1.1692 1.694469,-2.1385 0.09692,-0.3125 0.11265,-3.1126 0.11265,-3.1126 l -0.0047,-10.5124 z m 8.980947,0.6353 0,9.8768 c -1.581828,2.4975 -4.906055,3.4394 -6.521801,4.792 -0.210431,0.1875 -0.285864,-0.1878 -0.430306,-0.3078 -0.442476,-0.2837 -1.433188,-1.5914 -1.433188,-2.48 l 0,-11.8661 z m -1.667475,15.5428 0.181977,0.079 c 0.281232,0.1216 0.677419,0.4348 0.92189,0.7286 0.271148,0.3257 0.531912,0.8558 0.587263,1.1938 0.01549,0.095 0.02546,0.4861 0.03198,0.9666 -0.004,0.1258 -0.01065,0.222 -0.02065,0.2399 0.135429,1.6086 -4.741006,3.2491 -6.45257,4.5815 -0.210403,0.1778 -0.384796,0.4195 -0.529273,0.071 -0.690979,-0.3363 -1.360268,-1.2307 -1.452492,-1.9411 -0.0038,-0.029 -0.03799,-0.1658 -0.0087,-0.2166 1.655281,-2.6934 4.730378,-4.6574 6.740543,-5.9339 z m 0,8.8736 0.181977,0.079 c 0.281232,0.1217 0.677419,0.4349 0.92189,0.7286 0.271148,0.3257 0.531912,0.8558 0.587263,1.1938 0.01549,0.095 0.02546,0.4861 0.03198,0.9666 -0.004,0.1258 -0.02065,0.24 -0.02065,0.24 -1.453679,1.7734 -3.477021,2.6192 -6.45257,4.8292 -0.210403,0.1874 -0.288996,-0.059 -0.529273,-0.1768 -0.690979,-0.3363 -1.360268,-1.2307 -1.452492,-1.9411 -0.0038,-0.029 -0.02126,-0.1611 -0.0087,-0.2166 1.233924,-3.669 4.761944,-3.954 6.740543,-5.7027 z m 0,8.8736 0.181977,0.079 c 0.281232,0.1217 0.710565,0.4102 0.92189,0.7286 1.185758,1.7866 0.112542,2.5717 -1.645363,3.0762 -0.544686,0.015 -5.067736,3.5583 -6.189709,4.2929 0,0 -0.04333,-2.0293 -0.04333,-2.2924 1.190969,-2.1295 2.169899,-2.2606 3.493618,-3.3744 1.05353,-0.8865 3.280914,-2.5096 3.280914,-2.5096 z" style="fill:url(#linearGradient3808);fill-opacity:1.0;fill-rule:nonzero;stroke:#000000;stroke-width:0.95812291000000005;stroke-linecap:round;stroke-linejoin:miter;stroke-miterlimit:4;stroke-opacity:1;stroke-dasharray:none;stroke-dashoffset:0" inkscape:connector-curvature="0" sodipodi:nodetypes="csccccccccccccccccccccccccccccccccccccccccccccccccccccccccsccccccccccccccccccccccccccccscccccc"/>
    </g>
  </g>
  <path style="fill:url(#linearGradient3039);fill-opacity:1;stroke:#2e3436;stroke-width:2;stroke-linecap:butt;stroke-linejoin:round;stroke-miterlimit:4;stroke-opacity:1;stroke-dasharray:none" d="m 3.0000021,18.999999 0,-2 6,-4 0,-3.999999 -6,-4.0000001 0,-1.9999999 57.9999989,0 0,1.9999999 -6,4.0000001 0,3.999999 6,4 0,2 z" id="path4263-0" inkscape:connector-curvature="0" sodipodi:nodetypes="ccccccccccccc"/>
  <path style="fill:none;stroke:#d3d7cf;stroke-width:2;stroke-linecap:round;stroke-linejoin:round;stroke-miterlimit:4;stroke-opacity:1;stroke-dasharray:none" d="m 4.0000021,16.999999 4,-1 2.9999999,-2 0,-5.9999991 -2.9999999,-2 -4.322034,-1 56.3220329,0 -4,1 -3,2 0,5.9999991 3,2 4,1 z" id="path4263-3" inkscape:connector-curvature="0" sodipodi:nodetypes="ccccccccccccc"/>
  <path style="fill:none;stroke:#2e3436;stroke-width:2;stroke-linecap:butt;stroke-linejoin:round;stroke-miterlimit:4;stroke-opacity:1;stroke-dasharray:none" d="m 3.0000021,18.999999 0,-2 6,-4 0,-3.999999 -6,-4.0000001 0,-1.9999999 57.9999989,0 0,1.9999999 -6,4.0000001 0,3.999999 6,4 0,2 z" id="path4263-1" inkscape:connector-curvature="0" sodipodi:nodetypes="ccccccccccccc"/>
  <path style="fill:none;stroke:#d3d7cf;stroke-width:2;stroke-linecap:butt;stroke-linejoin:miter;stroke-opacity:1" d="m 11.000002,10.999999 41.999999,0" id="path3894" inkscape:connector-curvature="0"/>
  <rect style="fill:#d3d7cf;fill-opacity:1;stroke:#2e3436;stroke-width:1.99999976;stroke-linecap:round;stroke-linejoin:round;stroke-miterlimit:4;stroke-opacity:1;stroke-dasharray:none;stroke-dashoffset:2.04" id="rect3022" width="26" height="8" x="19.000002" y="19"/>
  <path style="fill:none;stroke:url(#linearGradient3800);stroke-width:2;stroke-linecap:butt;stroke-linejoin:miter;stroke-opacity:1" d="m 22.000001,22.999999 20,0" id="path3024" inkscape:connector-curvature="0"/>
</svg>
