<svg width="164" height="314" viewBox="0 0 164 314" fill="none" xmlns="http://www.w3.org/2000/svg">
<rect width="164" height="314" fill="#0B0C0C"/>
<g filter="url(#filter0_d_201_23)">
<path d="M78.1895 121.995C80.5474 120.668 83.4526 120.668 85.8105 121.995L111.189 136.28C113.547 137.608 115 140.061 115 142.715V171.285C115 173.939 113.547 176.392 111.189 177.72L85.8105 192.005C83.4526 193.332 80.5474 193.332 78.1895 192.005L67.1389 185.784V174.328L78.1895 180.548C80.5474 181.875 83.4526 181.875 85.8105 180.548L100.671 172.183C103.029 170.856 104.482 168.403 104.482 165.749V149.019C104.482 146.365 103.029 143.912 100.671 142.585L85.8105 134.22C83.4526 132.893 80.5474 132.893 78.1895 134.22L63.3284 142.585C60.9705 143.912 59.5179 146.365 59.5178 149.019V181.495L52.8105 177.72C50.4527 176.392 49 173.939 49 171.285V142.715C49 140.061 50.4526 137.608 52.8105 136.28L78.1895 121.995Z" fill="#4C8DFF"/>
<path d="M78.1895 142.656C80.5474 141.329 83.4526 141.329 85.8105 142.656L93.1773 146.803C95.5353 148.13 96.9878 150.583 96.9878 153.237V161.53C96.9878 164.185 95.5353 166.638 93.1773 167.965L85.8105 172.112C83.4526 173.439 80.5474 173.439 78.1895 172.112L70.8222 167.965C68.4643 166.638 67.0117 164.185 67.0116 161.53V153.237C67.0116 150.583 68.4643 148.13 70.8222 146.803L78.1895 142.656Z" fill="#4C8DFF"/>
</g>
<defs>
<filter id="filter0_d_201_23" x="45" y="121" width="74" height="80" filterUnits="userSpaceOnUse" color-interpolation-filters="sRGB">
<feFlood flood-opacity="0" result="BackgroundImageFix"/>
<feColorMatrix in="SourceAlpha" type="matrix" values="0 0 0 0 0 0 0 0 0 0 0 0 0 0 0 0 0 0 127 0" result="hardAlpha"/>
<feOffset dy="4"/>
<feGaussianBlur stdDeviation="2"/>
<feComposite in2="hardAlpha" operator="out"/>
<feColorMatrix type="matrix" values="0 0 0 0 0 0 0 0 0 0 0 0 0 0 0 0 0 0 0.25 0"/>
<feBlend mode="normal" in2="BackgroundImageFix" result="effect1_dropShadow_201_23"/>
<feBlend mode="normal" in="SourceGraphic" in2="effect1_dropShadow_201_23" result="shape"/>
</filter>
</defs>
</svg>
