<?xml version="1.0" encoding="UTF-8" standalone="no"?>
<svg
   width="1189mm"
   height="841mm"
   viewBox="0 0 1189 841"
   version="1.1"
   id="svg1"
   xmlns="http://www.w3.org/2000/svg"
   xmlns:svg="http://www.w3.org/2000/svg"
   xmlns:rdf="http://www.w3.org/1999/02/22-rdf-syntax-ns#"
   xmlns:cc="http://creativecommons.org/ns#"
   xmlns:dc="http://purl.org/dc/elements/1.1/"
   xmlns:freecad="http://www.freecad.org/wiki/index.php?title=Svg_Namespace">
  <defs
     id="defs11" />
  <title
     id="title1">Drawing sheet ISO 5457 - A0T</title>
  <metadata
     id="metadata1">
    <rdf:RDF>
      <cc:Work
         rdf:about="">
        <cc:license
           rdf:resource="http://creativecommons.org/publicdomain/zero/1.0/" />
        <dc:title>Drawing sheet ISO 5457 - A0T</dc:title>
      </cc:Work>
      <cc:License
         rdf:about="http://creativecommons.org/publicdomain/zero/1.0/">
        <cc:permits
           rdf:resource="http://creativecommons.org/ns#Reproduction" />
        <cc:permits
           rdf:resource="http://creativecommons.org/ns#Distribution" />
        <cc:permits
           rdf:resource="http://creativecommons.org/ns#DerivativeWorks" />
      </cc:License>
    </rdf:RDF>
  </metadata>
  <rect
     id="Drawing space frame"
     x="20"
     y="10"
     width="1159"
     height="821"
     style="fill:none;stroke:#000000;stroke-width:0.7;stroke-linecap:round;stroke-linejoin:round" />
  <g
     id="Centring marks"
     style="fill:none;stroke:#000000;stroke-width:0.7;stroke-linecap:round">
    <path
       id="Top"
       d="m 594.5,5 v 10" />
    <path
       id="Right"
       d="m 1184,420.5 h -10" />
    <path
       id="Bottom"
       d="m 594.5,836 v -10" />
    <path
       id="Left"
       d="m 15,420.5 h 10" />
  </g>
  <g
     id="Grid reference system">
    <g
       id="Grid reference borders"
       style="fill:none;stroke:#000000;stroke-width:0.35;stroke-linecap:round;stroke-linejoin:round">
      <rect
         id="Grid reference border"
         x="15"
         y="5"
         width="1169"
         height="831" />
      <path
         id="path17"
         d="m 15,370.5 h 5" />
      <path
         id="path18"
         d="m 15,320.5 h 5" />
      <path
         id="path19"
         d="m 15,270.5 h 5" />
      <path
         id="path20"
         d="m 15,220.5 h 5" />
      <path
         id="path21"
         d="m 15,170.5 h 5" />
      <path
         id="path22"
         d="m 15,120.5 h 5" />
      <path
         id="path23"
         d="m 15,70.5 h 5" />
      <path
         id="path25"
         d="m 15,770.5 h 5" />
      <path
         id="path26"
         d="m 15,720.5 h 5" />
      <path
         id="path27"
         d="m 15,670.5 h 5" />
      <path
         id="path28"
         d="m 15,620.5 h 5" />
      <path
         id="path29"
         d="m 15,570.5 h 5" />
      <path
         id="path30"
         d="m 15,520.5 h 5" />
      <path
         id="path31"
         d="m 15,470.5 h 5" />
      <path
         id="path33"
         d="m 1179,370.5 h 5" />
      <path
         id="path34"
         d="m 1179,320.5 h 5" />
      <path
         id="path35"
         d="m 1179,270.5 h 5" />
      <path
         id="path36"
         d="m 1179,220.5 h 5" />
      <path
         id="path37"
         d="m 1179,170.5 h 5" />
      <path
         id="path38"
         d="m 1179,120.5 h 5" />
      <path
         id="path39"
         d="m 1179,70.5 h 5" />
      <path
         id="path41"
         d="m 1179,770.5 h 5" />
      <path
         id="path42"
         d="m 1179,720.5 h 5" />
      <path
         id="path43"
         d="m 1179,670..5 h 5" />
      <path
         id="path44"
         d="m 1179,620..5 h 5" />
      <path
         id="path45"
         d="m 1179,570.5 h 5" />
      <path
         id="path46"
         d="m 1179,520.5 h 5" />
      <path
         id="path47"
         d="m 1179,470.5 h 5" />
      <path
         id="path49"
         d="m 544.5,5 v 5" />
      <path
         id="path50"
         d="m 494.5,5 v 5" />
      <path
         id="path51"
         d="m 444.5,5 v 5" />
      <path
         id="path52"
         d="m 394.5,5 v 5" />
      <path
         id="path53"
         d="m 344.5,5 v 5" />
      <path
         id="path54"
         d="m 294.5,5 v 5" />
      <path
         id="path55"
         d="m 244.5,5 v 5" />
      <path
         id="path56"
         d="m 194.5,5 v 5" />
      <path
         id="path57"
         d="M 144.5,5 v 5" />
      <path
         id="path58"
         d="M 94.57,5 v 5" />
      <path
         id="path59"
         d="M 44.52,5 v 5" />
      <path
         id="path61"
         d="m 1144.5,5 v 5" />
      <path
         id="path62"
         d="m 1094.5,5 v 5" />
      <path
         id="path63"
         d="m 1044.5,5 v 5" />
      <path
         id="path64"
         d="m 994.5,5 v 5" />
      <path
         id="path65"
         d="m 944.5,5 v 5" />
      <path
         id="path66"
         d="m 894.5,5 v 5" />
      <path
         id="path67"
         d="m 844.5,5 v 5" />
      <path
         id="path68"
         d="m 794.5,5 v 5" />
      <path
         id="path69"
         d="m 744.5,5 v 5" />
      <path
         id="path70"
         d="m 694.5,5 v 5" />
      <path
         id="path71"
         d="m 644.5,5 v 5" />
      <path
         id="path73"
         d="m 544.5,831 v 5" />
      <path
         id="path74"
         d="m 494.5,831 v 5" />
      <path
         id="path77"
         d="m 444.5,831 v 5" />
      <path
         id="path79"
         d="m 394.5,831 v 5" />
      <path
         id="path81"
         d="m 344.5,831 v 5" />
      <path
         id="path83"
         d="m 294.5,831 v 5" />
      <path
         id="path85"
         d="m 244.5,831 v 5" />
      <path
         id="path87"
         d="m 194.5,831 v 5" />
      <path
         id="path89"
         d="m 144.5,831 v 5" />
      <path
         id="path91"
         d="m 94.57,831 v 5" />
      <path
         id="path93"
         d="m 44.52,831 v 5" />
      <path
         id="path96"
         d="m 1144.5,831 v 5" />
      <path
         id="path98"
         d="m 1094.5,831 v 5" />
      <path
         id="path100"
         d="m 1044.5,831 v 5" />
      <path
         id="path102"
         d="m 994.5,831 v 5" />
      <path
         id="path104"
         d="m 944.5,831 v 5" />
      <path
         id="path106"
         d="m 894.5,831 v 5" />
      <path
         id="path108"
         d="m 844.5,831 v 5" />
      <path
         id="path110"
         d="m 794.5,831 v 5" />
      <path
         id="path112"
         d="m 744.5,831 v 5" />
      <path
         id="path114"
         d="m 694.5,831 v 5" />
      <path
         id="path116"
         d="m 644.5,831 v 5" />
    </g>
    <g
       id="Grid reference markers"
       style="fill:#000000;stroke:none">
      <path
         id="text49"
         aria-label="R"
         d="m 1181.0205,795.50433 q 0,0 0.5588,0 0.1778,0 0.3555,-0.16919 0.1384,-0.13159 0.1384,-0.37085 0,-0.18115 -0.1503,-0.33667 -0.159,-0.16577 -0.3453,-0.16577 h -0.5571 z m -0.1179,-1.28686 h 0.675 q 0.3128,0 0.5691,0.28027 0.1692,0.18457 0.1692,0.42212 0,0.229 -0.085,0.43066 -0.094,0.22046 -0.388,0.34351 l 0.4461,0.87671 q 0.026,0.053 0.026,0.0872 0,0.12988 -0.1265,0.12988 -0.067,0 -0.1145,-0.0974 l -0.4785,-0.93482 h -0.5793 v 0.89722 q 0,0.13501 -0.1248,0.13501 -0.1213,0 -0.1213,-0.13672 v -2.302 q 0,-0.13159 0.1333,-0.13159 z" />
      <path
         aria-label="H"
         d="m 18.034912,395.48886 h -1.061279 v 1.16724 q 0,0.13159 -0.126465,0.13159 -0.124756,0 -0.124756,-0.12988 v -2.30542 q 0,-0.14527 0.124756,-0.14527 0.126465,0 0.126465,0.14527 v 0.89038 h 1.061279 v -0.90064 q 0,-0.12817 0.121338,-0.12817 0.121338,0 0.121338,0.12646 v 2.31055 q 0,0.13672 -0.121338,0.13672 -0.121338,0 -0.121338,-0.1333 z"
         id="text17" />
      <path
         id="text18"
         aria-label="G"
         d="m 18.042603,346.53305 v -1.04932 h -0.268311 q -0.121338,0 -0.121338,-0.12133 0,-0.12305 0.116211,-0.12305 h 0.408447 q 0.109375,0 0.109375,0.16235 v 1.22876 q 0,0.14868 -0.141845,0.14868 h -0.830567 q -0.186279,0 -0.379394,-0.16748 -0.193116,-0.16919 -0.193116,-0.53491 v -1.27319 q 0,-0.24097 0.194825,-0.42212 0.196533,-0.18286 0.449463,-0.18286 h 0.755371 q 0.15039,0 0.15039,0.12304 0,0.12305 -0.148681,0.12305 h -0.729737 q -0.187988,0 -0.307617,0.12305 -0.119629,0.12305 -0.119629,0.29907 v 1.23731 q 0,0.18969 0.111084,0.30932 0.111084,0.11963 0.247803,0.11963 z" />
      <path
         id="text19"
         aria-label="F"
         d="m 17.152224,295.4837 v 1.15699 q 0,0.14013 -0.128174,0.14013 -0.124756,0 -0.124756,-0.14184 0,0 0,-2.3208 0,-0.11963 0.133301,-0.11963 0,0 1.018554,0 0.13501,0 0.13501,0.12304 0,0.12305 -0.133301,0.12305 h -0.898925 v 0.78955 h 0.898925 q 0.133301,0 0.133301,0.12476 0,0.12475 -0.13501,0.12475 z" />
      <path
         id="text20"
         aria-label="E"
         d="m 17.145388,246.53304 h 0.910888 q 0.126465,0 0.126465,0.12304 0,0.12305 -0.121338,0.12305 h -1.049316 q -0.112793,0 -0.112793,-0.12817 v -2.3191 q 0,-0.1333 0.1521,-0.1333 h 0.996337 q 0.138428,0 0.138428,0.12476 0,0.12305 -0.138428,0.12305 h -0.902343 v 0.79638 h 0.659668 q 0.124755,0 0.124755,0.12305 0,0.11621 -0.121337,0.11621 h -0.663086 z" />
      <path
         id="text21"
         aria-label="D"
         d="m 16.977909,196.54156 q 0,0 0.593018,0 0.229004,0 0.341797,-0.11791 0.114501,-0.11963 0.114501,-0.29224 v -1.28345 q 0,-0.1521 -0.111083,-0.27344 -0.111084,-0.12133 -0.293946,-0.12133 h -0.644287 z m -0.251221,-2.19433 q 0,-0.14014 0.141846,-0.14014 h 0.801514 q 0.23584,0 0.418701,0.18457 0.18457,0.18457 0.18457,0.4187 v 1.37915 q 0,0.23414 -0.18457,0.417 -0.18457,0.18115 -0.394775,0.18115 H 16.84119 q -0.114502,0 -0.114502,-0.1521 z" />
      <path
         id="text22"
         aria-label="C"
         d="m 17.530766,144.19853 q 0,0 0.522949,0 0.126465,0 0.126465,0.12818 0,0.12988 -0.136719,0.12988 h -0.514404 q -0.143555,0 -0.278565,0.12475 -0.102539,0.0957 -0.102539,0.25635 v 1.30567 q 0,0.16064 0.107666,0.27685 0.112793,0.11963 0.234131,0.11963 h 0.574219 q 0.123047,0 0.123047,0.12476 0,0.11792 -0.124756,0.11792 h -0.582764 q -0.23584,0 -0.440918,-0.2273 -0.140137,-0.15552 -0.140137,-0.39819 v -1.33814 q 0,-0.25634 0.20166,-0.44604 0.184571,-0.17432 0.430665,-0.17432 z" />
      <path
         id="text23"
         aria-label="B"
         d="m 18.296394,96.001488 q 0,0.375976 -0.239257,0.581054 -0.237549,0.205079 -0.449463,0.205079 H 16.85743 q -0.119629,0 -0.119629,-0.155518 v -2.264404 q 0,-0.160645 0.158935,-0.160645 h 0.533203 q 0.324707,0 0.473389,0.129883 0.259766,0.227295 0.259766,0.516113 0,0.314453 -0.239258,0.502442 0.158935,0.09229 0.264892,0.264892 0.107666,0.172608 0.107666,0.381104 z M 17.000984,95.5093 v 1.040772 h 0.533203 q 0.232422,0 0.372559,-0.160645 0.140137,-0.160644 0.140137,-0.355469 0,-0.194824 -0.131592,-0.360595 Q 17.785408,95.5093 17.539314,95.5093 Z m 0,-1.047607 v 0.781006 h 0.52124 q 0.196534,0 0.293946,-0.105957 0.09912,-0.107666 0.09912,-0.266602 0,-0.160644 -0.104248,-0.283691 -0.104248,-0.124756 -0.295655,-0.124756 z" />
      <path
         id="text24"
         aria-label="A"
         d="m 17.388924,44.30106 q 0.03076,-0.09399 0.119629,-0.09399 0.08545,0 0.11621,0.09399 l 0.763917,2.296875 q 0.01538,0.04614 0.01538,0.0752 0,0.10083 -0.123047,0.114502 -0.09058,0 -0.128173,-0.112793 0,0 -0.174317,-0.540039 h -0.946777 l -0.186279,0.553711 q -0.03589,0.104248 -0.116211,0.104248 -0.133301,0 -0.133301,-0.124756 0,-0.01709 0.0376,-0.128174 z m 0.112793,0.425537 -0.393067,1.167236 h 0.787842 z" />
      <path
         id="text26"
         aria-label="Q"
         d="m 18.010981,746.10248 q 0,0 0,-1.14502 0,-0.21192 -0.162354,-0.36402 -0.150391,-0.14013 -0.362305,-0.14013 -0.179443,0 -0.31958,0.11279 -0.199951,0.16065 -0.199951,0.43408 v 1.02198 q 0,0.19995 0.167481,0.36572 0.146972,0.14526 0.370849,0.14526 0.230713,0 0.396485,-0.19653 -0.138428,-0.11279 -0.138428,-0.18115 0,-0.13672 0.123047,-0.13672 0.07007,0 0.124756,0.0837 z m 0.20166,0.18628 0.247802,0.25293 q 0.06665,0.0684 0.06665,0.11963 0,0.12646 -0.129883,0.12646 -0.05298,0 -0.119629,-0.0684 l -0.198242,-0.20337 q -0.04956,0.0769 -0.179443,0.15894 -0.177735,0.11279 -0.391358,0.11279 -0.350342,0 -0.57251,-0.24097 -0.223877,-0.24267 -0.223877,-0.54687 v -1.0271 q 0,-0.24609 0.157227,-0.46143 0.222168,-0.3042 0.628906,-0.3042 0.345215,0 0.55542,0.23584 0.211914,0.23926 0.211914,0.47339 v 1.07325 q 0,0.1914 -0.05298,0.29907 z" />
      <path
         id="text27"
         aria-label="P"
         d="m 17.024897,694.45325 q 0,0 0,1.04419 h 0.567382 q 0.172608,0 0.324707,-0.1521 0.150391,-0.15039 0.150391,-0.37256 0,-0.22217 -0.1521,-0.37085 -0.15039,-0.14868 -0.394775,-0.14868 z m 0,2.18408 q 0,0.14184 -0.126465,0.14184 -0.126465,0 -0.126465,-0.14526 v -2.29175 q 0,-0.13501 0.140137,-0.13501 h 0.661377 q 0.31958,0 0.548584,0.25635 0.191406,0.21362 0.191406,0.46826 0,0.31104 -0.133301,0.48877 -0.247803,0.32984 -0.587891,0.32984 h -0.567382 z" />
      <path
         id="text28"
         aria-label="N"
         d="m 18.034906,646.17761 v -1.84912 q 0,-0.12988 0.11792,-0.12988 0.11792,0 0.11792,0.12475 v 2.31226 q 0,0.14185 -0.112793,0.14185 -0.07861,0 -0.129883,-0.0923 L 16.975336,644.807 v 1.82861 q 0,0.13672 -0.129883,0.13672 -0.116211,0 -0.116211,-0.14014 v -2.28149 q 0,-0.1521 0.123047,-0.1521 0.08032,0 0.124756,0.0786 z" />
      <path
         id="text29"
         aria-label="M"
         d="m 18.169924,594.27209 q 0.04101,-0.0649 0.109375,-0.0649 0.129883,0 0.129883,0.13672 v 2.27466 q 0,0.16919 -0.126465,0.16919 -0.126465,0 -0.126465,-0.16919 v -1.83374 l -0.533203,0.86816 q -0.06494,0.10767 -0.129883,0.10767 -0.06494,0 -0.126465,-0.10425 l -0.522949,-0.86816 v 1.83887 q 0,0.16064 -0.131592,0.16064 -0.121338,0 -0.121338,-0.15723 v -2.28833 q 0,-0.13501 0.129883,-0.13501 0.06665,0 0.105957,0.0598 l 0.659668,1.11255 z" />
      <path
         id="text30"
         aria-label="L"
         d="m 17.143679,544.33875 v 2.20117 h 0.890381 q 0.155517,0 0.155517,0.12475 0,0.12305 -0.160644,0.12305 h -1.011719 q -0.121338,0 -0.121338,-0.1521 v -2.29687 q 0,-0.1316 0.123047,-0.1316 0.124756,0 0.124756,0.1316 z" />
      <path
         id="text31"
         aria-label="K"
         d="m 16.887331,496.78256 q -0.11792,0 -0.11792,-0.15893 v -2.30371 q 0,-0.1128 0.11792,-0.1128 0.128174,0 0.128174,0.12818 v 1.09033 l 1.05957,-1.16211 q 0.05982,-0.0649 0.111084,-0.0649 0.05127,0 0.08887,0.0427 0.03589,0.041 0.03589,0.0889 0,0.0444 -0.06152,0.11279 l -0.710938,0.78784 0.745117,1.34498 q 0.03247,0.0581 0.03247,0.0854 0,0.053 -0.04614,0.0923 -0.03931,0.0342 -0.08887,0.0342 -0.06323,0 -0.105957,-0.0769 l -0.712646,-1.28686 -0.343506,0.37598 v 0.8186 q 0,0.16406 -0.131592,0.16406 z" />
      <path
         id="text32"
         aria-label="J"
         d="m 17.723024,444.34045 q 0,-0.1333 0.123047,-0.1333 0.121338,0 0.121338,0.1316 v 1.82348 q 0,0.25464 -0.18457,0.44092 -0.182862,0.18457 -0.446045,0.18457 H 17.07361 q -0.126465,0 -0.126465,-0.12647 0,-0.12646 0.148682,-0.12646 h 0.25293 q 0.160644,0 0.266601,-0.11621 0.107666,-0.11792 0.107666,-0.26318 z" />
      <path
         id="text33"
         aria-label="R"
         d="m 17.020626,795.50433 q 0,0 0.558838,0 0.177734,0 0.355469,-0.16919 0.138427,-0.13159 0.138427,-0.37085 0,-0.18115 -0.15039,-0.33667 -0.158936,-0.16577 -0.345215,-0.16577 h -0.557129 z m -0.11792,-1.28686 h 0.675049 q 0.312744,0 0.569092,0.28027 0.169189,0.18457 0.169189,0.42212 0,0.229 -0.08545,0.43066 -0.09399,0.22046 -0.387939,0.34351 l 0.446044,0.87671 q 0.02563,0.053 0.02563,0.0872 0,0.12988 -0.126465,0.12988 -0.06665,0 -0.114502,-0.0974 l -0.478515,-0.93482 h -0.579346 v 0.89722 q 0,0.13501 -0.124756,0.13501 -0.121338,0 -0.121338,-0.13672 v -2.302 q 0,-0.13159 0.133301,-0.13159 z" />
      <path
         id="text34"
         aria-label="H"
         d="m 1182.0348,395.48886 h -1.0613 v 1.16724 q 0,0.13159 -0.1265,0.13159 -0.1247,0 -0.1247,-0.12988 v -2.30542 q 0,-0.14527 0.1247,-0.14527 0.1265,0 0.1265,0.14527 v 0.89038 h 1.0613 v -0.90064 q 0,-0.12817 0.1213,-0.12817 0.1214,0 0.1214,0.12646 v 2.31055 q 0,0.13672 -0.1214,0.13672 -0.1213,0 -0.1213,-0.1333 z" />
      <path
         id="text35"
         aria-label="G"
         d="m 1182.0425,346.53305 v -1.04932 h -0.2683 q -0.1214,0 -0.1214,-0.12133 0,-0.12305 0.1162,-0.12305 h 0.4085 q 0.1094,0 0.1094,0.16235 v 1.22876 q 0,0.14868 -0.1419,0.14868 h -0.8305 q -0.1863,0 -0.3794,-0.16748 -0.1932,-0.16919 -0.1932,-0.53491 v -1.27319 q 0,-0.24097 0.1949,-0.42212 0.1965,-0.18286 0.4494,-0.18286 h 0.7554 q 0.1504,0 0.1504,0.12304 0,0.12305 -0.1487,0.12305 h -0.7297 q -0.188,0 -0.3076,0.12305 -0.1197,0.12305 -0.1197,0.29907 v 1.23731 q 0,0.18969 0.1111,0.30932 0.1111,0.11963 0.2478,0.11963 z" />
      <path
         id="text36"
         aria-label="F"
         d="m 1181.1521,295.4837 v 1.15699 q 0,0.14013 -0.1282,0.14013 -0.1247,0 -0.1247,-0.14184 0,0 0,-2.3208 0,-0.11963 0.1333,-0.11963 0,0 1.0185,0 0.135,0 0.135,0.12304 0,0.12305 -0.1333,0.12305 h -0.8989 v 0.78955 h 0.8989 q 0.1333,0 0.1333,0.12476 0,0.12475 -0.135,0.12475 z" />
      <path
         id="text37"
         aria-label="E"
         d="m 1181.1453,246.53304 h 0.9109 q 0.1264,0 0.1264,0.12304 0,0.12305 -0.1213,0.12305 h -1.0493 q -0.1128,0 -0.1128,-0.12817 v -2.3191 q 0,-0.1333 0.1521,-0.1333 h 0.9963 q 0.1384,0 0.1384,0.12476 0,0.12305 -0.1384,0.12305 h -0.9023 v 0.79638 h 0.6596 q 0.1248,0 0.1248,0.12305 0,0.11621 -0.1214,0.11621 h -0.663 z" />
      <path
         id="text38"
         aria-label="D"
         d="m 1180.9778,196.54156 q 0,0 0.593,0 0.229,0 0.3418,-0.11791 0.1145,-0.11963 0.1145,-0.29224 v -1.28345 q 0,-0.1521 -0.1111,-0.27344 -0.1111,-0.12133 -0.2939,-0.12133 h -0.6443 z m -0.2512,-2.19433 q 0,-0.14014 0.1418,-0.14014 h 0.8015 q 0.2359,0 0.4187,0.18457 0.1846,0.18457 0.1846,0.4187 v 1.37915 q 0,0.23414 -0.1846,0.417 -0.1845,0.18115 -0.3948,0.18115 h -0.8527 q -0.1145,0 -0.1145,-0.1521 z" />
      <path
         id="text39"
         aria-label="C"
         d="m 1181.5306,144.19853 q 0,0 0.523,0 0.1265,0 0.1265,0.12818 0,0.12988 -0.1368,0.12988 h -0.5144 q -0.1435,0 -0.2785,0.12475 -0.1026,0.0957 -0.1026,0.25635 v 1.30567 q 0,0.16064 0.1077,0.27685 0.1128,0.11963 0.2341,0.11963 h 0.5742 q 0.1231,0 0.1231,0.12476 0,0.11792 -0.1248,0.11792 h -0.5827 q -0.2359,0 -0.4409,-0.2273 -0.1402,-0.15552 -0.1402,-0.39819 v -1.33814 q 0,-0.25634 0.2017,-0.44604 0.1845,-0.17432 0.4306,-0.17432 z" />
      <path
         id="text40"
         aria-label="B"
         d="m 1182.2963,96.001488 q 0,0.375976 -0.2393,0.581054 -0.2375,0.205079 -0.4495,0.205079 h -0.7502 q -0.1196,0 -0.1196,-0.155518 v -2.264404 q 0,-0.160645 0.1589,-0.160645 h 0.5332 q 0.3247,0 0.4734,0.129883 0.2598,0.227295 0.2598,0.516113 0,0.314453 -0.2393,0.502442 0.1589,0.09229 0.2649,0.264892 0.1077,0.172608 0.1077,0.381104 z m -1.2954,-0.492188 v 1.040772 h 0.5332 q 0.2324,0 0.3725,-0.160645 0.1402,-0.160644 0.1402,-0.355469 0,-0.194824 -0.1316,-0.360595 -0.1299,-0.164063 -0.376,-0.164063 z m 0,-1.047607 v 0.781006 h 0.5212 q 0.1965,0 0.2939,-0.105957 0.099,-0.107666 0.099,-0.266602 0,-0.160644 -0.1043,-0.283691 -0.1042,-0.124756 -0.2956,-0.124756 z" />
      <path
         id="text41"
         aria-label="A"
         d="m 1181.3888,44.30106 q 0.031,-0.09399 0.1196,-0.09399 0.086,0 0.1162,0.09399 l 0.7639,2.296875 q 0.015,0.04614 0.015,0.0752 0,0.10083 -0.123,0.114502 -0.091,0 -0.1282,-0.112793 0,0 -0.1743,-0.540039 h -0.9468 l -0.1863,0.553711 q -0.036,0.104248 -0.1162,0.104248 -0.1333,0 -0.1333,-0.124756 0,-0.01709 0.038,-0.128174 z m 0.1128,0.425537 -0.3931,1.167236 h 0.7879 z" />
      <path
         id="text42"
         aria-label="Q"
         d="m 1182.0109,746.10248 q 0,0 0,-1.14502 0,-0.21192 -0.1624,-0.36402 -0.1504,-0.14013 -0.3623,-0.14013 -0.1794,0 -0.3196,0.11279 -0.1999,0.16065 -0.1999,0.43408 v 1.02198 q 0,0.19995 0.1675,0.36572 0.1469,0.14526 0.3708,0.14526 0.2307,0 0.3965,-0.19653 -0.1384,-0.11279 -0.1384,-0.18115 0,-0.13672 0.123,-0.13672 0.07,0 0.1248,0.0837 z m 0.2016,0.18628 0.2478,0.25293 q 0.067,0.0684 0.067,0.11963 0,0.12646 -0.1299,0.12646 -0.053,0 -0.1196,-0.0684 l -0.1983,-0.20337 q -0.049,0.0769 -0.1794,0.15894 -0.1778,0.11279 -0.3914,0.11279 -0.3503,0 -0.5725,-0.24097 -0.2239,-0.24267 -0.2239,-0.54687 v -1.0271 q 0,-0.24609 0.1573,-0.46143 0.2221,-0.3042 0.6289,-0.3042 0.3452,0 0.5554,0.23584 0.2119,0.23926 0.2119,0.47339 v 1.07325 q 0,0.1914 -0.053,0.29907 z" />
      <path
         id="text43"
         aria-label="P"
         d="m 1181.0248,694.45325 q 0,0 0,1.04419 h 0.5674 q 0.1726,0 0.3247,-0.1521 0.1504,-0.15039 0.1504,-0.37256 0,-0.22217 -0.1521,-0.37085 -0.1504,-0.14868 -0.3948,-0.14868 z m 0,2.18408 q 0,0.14184 -0.1265,0.14184 -0.1264,0 -0.1264,-0.14526 v -2.29175 q 0,-0.13501 0.1401,-0.13501 h 0.6614 q 0.3195,0 0.5485,0.25635 0.1915,0.21362 0.1915,0.46826 0,0.31104 -0.1333,0.48877 -0.2478,0.32984 -0.5879,0.32984 h -0.5674 z" />
      <path
         id="text44"
         aria-label="N"
         d="m 1182.0348,646.17761 v -1.84912 q 0,-0.12988 0.1179,-0.12988 0.1179,0 0.1179,0.12475 v 2.31226 q 0,0.14185 -0.1128,0.14185 -0.079,0 -0.1298,-0.0923 l -1.0528,-1.87817 v 1.82861 q 0,0.13672 -0.1299,0.13672 -0.1162,0 -0.1162,-0.14014 v -2.28149 q 0,-0.1521 0.1231,-0.1521 0.08,0 0.1247,0.0786 z" />
      <path
         id="text45"
         aria-label="M"
         d="m 1182.1698,594.27209 q 0.041,-0.0649 0.1094,-0.0649 0.1299,0 0.1299,0.13672 v 2.27466 q 0,0.16919 -0.1265,0.16919 -0.1265,0 -0.1265,-0.16919 v -1.83374 l -0.5332,0.86816 q -0.065,0.10767 -0.1299,0.10767 -0.065,0 -0.1264,-0.10425 l -0.523,-0.86816 v 1.83887 q 0,0.16064 -0.1316,0.16064 -0.1213,0 -0.1213,-0.15723 v -2.28833 q 0,-0.13501 0.1299,-0.13501 0.067,0 0.1059,0.0598 l 0.6597,1.11255 z" />
      <path
         id="text46"
         aria-label="L"
         d="m 1181.1436,544.33875 v 2.20117 h 0.8903 q 0.1556,0 0.1556,0.12475 0,0.12305 -0.1607,0.12305 h -1.0117 q -0.1213,0 -0.1213,-0.1521 v -2.29687 q 0,-0.1316 0.123,-0.1316 0.1248,0 0.1248,0.1316 z" />
      <path
         id="text47"
         aria-label="K"
         d="m 1180.8872,496.78256 q -0.1179,0 -0.1179,-0.15893 v -2.30371 q 0,-0.1128 0.1179,-0.1128 0.1282,0 0.1282,0.12818 v 1.09033 l 1.0596,-1.16211 q 0.06,-0.0649 0.111,-0.0649 0.051,0 0.089,0.0427 0.036,0.041 0.036,0.0889 0,0.0444 -0.062,0.11279 l -0.711,0.78784 0.7451,1.34498 q 0.033,0.0581 0.033,0.0854 0,0.053 -0.046,0.0923 -0.039,0.0342 -0.089,0.0342 -0.063,0 -0.1059,-0.0769 l -0.7127,-1.28686 -0.3435,0.37598 v 0.8186 q 0,0.16406 -0.1316,0.16406 z" />
      <path
         id="text48"
         aria-label="J"
         d="m 1181.7229,444.34045 q 0,-0.1333 0.123,-0.1333 0.1214,0 0.1214,0.1316 v 1.82348 q 0,0.25464 -0.1846,0.44092 -0.1828,0.18457 -0.446,0.18457 h -0.2632 q -0.1265,0 -0.1265,-0.12647 0,-0.12646 0.1487,-0.12646 h 0.2529 q 0.1607,0 0.2666,-0.11621 0.1077,-0.11792 0.1077,-0.26318 z" />
      <path
         id="text50"
         aria-label="12"
         d="m 568.6908,6.261837 q 0.0581,-0.054687 0.12133,-0.054687 0.12818,0 0.12818,0.1418457 v 2.2849121 q 0,0.1452637 -0.12305,0.1452637 -0.12646,0 -0.12646,-0.1469727 0,0 0,-2.0148925 l -0.29737,0.2973632 q -0.0461,0.046143 -0.0923,0.046143 -0.12989,0 -0.12989,-0.1145019 0,-0.058105 0.0496,-0.1076661 z m 0.8955,0.5793457 q -0.1333,0 -0.1333,-0.1196289 0,-0.037598 0.0308,-0.099121 0.10767,-0.2119141 0.24781,-0.3024902 0.17431,-0.112793 0.36743,-0.112793 0.32471,0 0.50928,0.2478027 0.13501,0.1811524 0.13501,0.3896485 0,0.1828613 -0.1128,0.3657226 l -0.82885,1.3381348 h 0.81005 q 0.12818,0 0.12818,0.1281738 0,0.111084 -0.14014,0.111084 h -0.99292 q -0.1521,0 -0.1521,-0.109375 0,-0.047852 0.0222,-0.08374 l 0.91943,-1.4816895 q 0.094,-0.1520996 0.094,-0.2683105 0,-0.1469727 -0.094,-0.2563477 -0.1145,-0.1333008 -0.30591,-0.1333008 -0.23754,0 -0.38452,0.2802735 -0.0564,0.105957 -0.11963,0.105957 z" />
      <path
         id="text51"
         aria-label="11"
         d="m 518.90869,6.261837 q 0.0581,-0.054687 0.12134,-0.054687 0.12817,0 0.12817,0.1418457 v 2.2849121 q 0,0.1452637 -0.12304,0.1452637 -0.12647,0 -0.12647,-0.1469727 0,0 0,-2.0148925 l -0.29736,0.2973632 q -0.0461,0.046143 -0.0923,0.046143 -0.12988,0 -0.12988,-0.1145019 0,-0.058105 0.0496,-0.1076661 z m 1.19629,0 q 0.0581,-0.054687 0.12134,-0.054687 0.12817,0 0.12817,0.1418457 v 2.2849121 q 0,0.1452637 -0.12304,0.1452637 -0.12647,0 -0.12647,-0.1469727 0,0 0,-2.0148925 l -0.29736,0.2973632 q -0.0462,0.046143 -0.0923,0.046143 -0.12988,0 -0.12988,-0.1145019 0,-0.058105 0.0496,-0.1076661 z" />
      <path
         id="text52"
         aria-label="10"
         d="m 468.68823,6.261837 q 0.0581,-0.054687 0.12134,-0.054687 0.12817,0 0.12817,0.1418457 v 2.2849121 q 0,0.1452637 -0.12304,0.1452637 -0.12647,0 -0.12647,-0.1469727 0,0 0,-2.0148925 l -0.29736,0.2973632 q -0.0461,0.046143 -0.0923,0.046143 -0.12988,0 -0.12988,-0.1145019 0,-0.058105 0.0496,-0.1076661 z m 1.4065,0.1914063 q -0.11621,0 -0.16748,0.102539 -0.1333,0.2631836 -0.19483,0.6032715 -0.029,0.1589355 -0.029,0.322998 0,0.119629 0.0154,0.2375489 0.0496,0.3862304 0.16919,0.65625 0.0718,0.1623535 0.20508,0.1623535 0.12817,0 0.20508,-0.1469727 0.11279,-0.217041 0.16919,-0.5964355 0.0239,-0.1623535 0.0239,-0.3144531 0,-0.1520996 -0.0239,-0.2939453 -0.0615,-0.3605958 -0.20167,-0.6340333 -0.0513,-0.099121 -0.17089,-0.099121 z m 0.009,-0.2460938 q 0.23413,0 0.35718,0.1811523 0.1897,0.2785645 0.26318,0.7844239 0.0222,0.1520996 0.0222,0.3076172 0,0.1640625 -0.0239,0.326416 -0.0735,0.5024414 -0.25463,0.7861328 -0.12476,0.1948242 -0.36915,0.1948242 -0.24096,0 -0.36914,-0.2016601 -0.15722,-0.2460938 -0.25122,-0.770752 -0.0273,-0.1520996 -0.0273,-0.3110352 0,-0.1657714 0.029,-0.3332519 0.0906,-0.5212402 0.23584,-0.7536621 0.12988,-0.2102051 0.38794,-0.2102051 z" />
      <path
         id="text53"
         aria-label="9"
         d="m 419.09839,8.6612511 q 0,-0.087158 0.12134,-0.1264649 0.16919,-0.054687 0.29394,-0.1572265 0.30078,-0.2512207 0.35034,-0.6254883 h -0.41528 q -0.21704,0 -0.39307,-0.1520996 -0.21362,-0.1879883 -0.21362,-0.435791 0,0 0,-0.3605957 0,-0.2854004 0.27857,-0.4887696 0.14697,-0.107666 0.37768,-0.107666 0.24439,0 0.44434,0.1948242 0.18115,0.1760254 0.18115,0.4494629 0,0 0,0.7861328 0,0.2529297 -0.0889,0.4494629 -0.14526,0.3178711 -0.33667,0.4665528 -0.30762,0.2341308 -0.4768,0.2341308 -0.12305,0 -0.12305,-0.1264648 z m 0.77246,-1.7944336 q 0,-0.1726074 -0.10425,-0.2836914 -0.11792,-0.1247559 -0.28882,-0.1247559 -0.14868,0 -0.27002,0.1042481 -0.12304,0.105957 -0.12304,0.2836914 v 0.2768554 q 0,0.1726075 0.14013,0.2888184 0.11109,0.092285 0.323,0.092285 h 0.323 z" />
      <path
         id="text54"
         aria-label="8"
         d="m 369.49487,7.4888878 q -0.1521,0 -0.26831,0.109375 -0.12646,0.1196289 -0.12646,0.2734375 v 0.3110351 q 0,0.1264649 0.14868,0.2666016 0.0889,0.08374 0.2478,0.08374 0.13843,0 0.27515,-0.1110839 0.12134,-0.099121 0.12134,-0.2802735 V 7.8870811 q 0,-0.1452636 -0.12305,-0.2854003 -0.0991,-0.112793 -0.27515,-0.112793 z m -0.26831,-0.9348145 q -0.12475,0.1298828 -0.12475,0.2751465 0,0.1367188 0.0872,0.2631836 0.0991,0.1435547 0.3025,0.1435547 0.19653,0 0.30249,-0.1196289 0.10424,-0.1230469 0.10424,-0.2751465 0,-0.1572266 -0.13501,-0.2802734 -0.11963,-0.107666 -0.27514,-0.107666 -0.16407,0 -0.26148,0.10083 z m -0.1145,0.8066407 Q 368.854,7.1607628 368.854,6.805294 q 0,-0.2836914 0.23072,-0.4580078 0.19653,-0.1486816 0.4187,-0.1486816 0.18457,0 0.31787,0.082031 0.32129,0.1982422 0.32129,0.5605469 0,0.3383789 -0.25806,0.5246582 0.26148,0.2084961 0.26148,0.5109863 v 0.2922364 q 0,0.2478027 -0.22046,0.4545898 -0.16748,0.1572266 -0.417,0.1572266 -0.28369,0 -0.43066,-0.1452637 Q 368.854,8.4151573 368.854,8.1793175 V 7.8631554 q 0,-0.2785645 0.25806,-0.5024414 z" />
      <path
         id="text55"
         aria-label="7"
         d="m 319.97083,6.2071495 q 0.14355,0 0.14355,0.1196289 0,0.037598 -0.0359,0.1999512 0,0 -0.47339,2.1413574 -0.0256,0.1196289 -0.11792,0.1196289 -0.13159,0 -0.13159,-0.112793 0,-0.023926 0.005,-0.047852 l 0.48193,-2.1687012 h -0.76562 q 0,0 0,0.1281738 0,0.1213379 -0.12476,0.1213379 -0.11792,0 -0.11792,-0.1264648 0,0 0,-0.2597656 0,-0.114502 0.13672,-0.114502 z" />
      <path
         id="text56"
         aria-label="6"
         d="m 269.11975,7.246212 q 0,0 0.37769,0 0.28711,0 0.47851,0.2136231 0.16748,0.1862792 0.16748,0.3964843 0,0 0,0.3452149 0,0.220459 -0.21362,0.4272461 -0.16406,0.1589355 -0.46314,0.1589355 -0.24096,0 -0.42724,-0.1811523 -0.18286,-0.1777344 -0.18286,-0.4050293 V 7.3094444 q 0,-0.3896484 0.29907,-0.7399902 0.18286,-0.2136231 0.48535,-0.3349609 0.0684,-0.027344 0.11621,-0.027344 0.12305,0 0.12305,0.1333008 0,0.078613 -0.10767,0.1162109 -0.24096,0.08374 -0.37939,0.222168 -0.23584,0.2341309 -0.27344,0.567383 z m -0.0188,0.9296875 q 0,0.1469727 0.14356,0.2785645 0.10083,0.092285 0.25805,0.092285 0.11963,0 0.28028,-0.1213379 0.11279,-0.085449 0.11279,-0.2563476 V 7.9092979 q 0,-0.1691894 -0.11621,-0.2939453 -0.11109,-0.1196289 -0.27857,-0.1196289 h -0.3999 z" />
      <path
         id="text57"
         aria-label="5"
         d="m 218.85229,6.3370323 q 0,-0.1298828 0.14869,-0.1298828 0,0 1.00488,0 0.14185,0 0.14185,0.1230469 0,0.1230469 -0.13501,0.1230469 h -0.90918 V 7.244503 h 0.37939 q 0.32983,0 0.52979,0.2460938 0.1333,0.1640625 0.1333,0.3930664 v 0.2751465 q 0,0.2734375 -0.18628,0.4460449 -0.19654,0.1828613 -0.43409,0.1828613 h -0.5332 q -0.13159,0 -0.13159,-0.1196289 0,-0.1213379 0.14355,-0.1213379 h 0.4751 q 0.21533,0 0.32984,-0.1469726 0.0855,-0.109375 0.0855,-0.2580567 V 7.8836632 q 0,-0.1538086 -0.10083,-0.2666016 -0.1128,-0.1264648 -0.34522,-0.1264648 h -0.47168 q -0.12476,0 -0.12476,-0.1452637 z" />
      <path
         id="text58"
         aria-label="4"
         d="m 169.28894,6.2943115 q 0.0273,-0.095703 0.12647,-0.095703 0.11792,0 0.11792,0.1179199 0,0.029053 -0.012,0.068359 l -0.46655,1.6269531 h 0.62378 V 7.6392822 q 0,-0.1435547 0.12475,-0.1435547 0.12134,0 0.12134,0.1538086 v 0.3640137 q 0,0 0.26319,0 0.12475,0 0.12475,0.1350098 0,0.109375 -0.12988,0.109375 h -0.25806 V 8.644165 q 0,0.1384278 -0.12646,0.1384278 -0.11963,0 -0.11963,-0.1333008 V 8.2630615 h -0.78442 q -0.12134,0 -0.12134,-0.1145019 0,-0.037598 0.0239,-0.1230469 z" />
      <path
         id="text59"
         aria-label="3"
         d="m 118.99585,6.1986084 q 0,0 0.53491,0 0.23242,0 0.41699,0.1999512 0.1709,0.1845703 0.1709,0.432373 0,0.3110352 -0.2666,0.5314942 0.25977,0.1879882 0.25977,0.4631347 0,0 0,0.3759766 0,0.220459 -0.1897,0.4101562 -0.16748,0.1674805 -0.4375,0.1674805 0,0 -0.50928,0 -0.14526,0 -0.14526,-0.1264648 0,-0.114502 0.15381,-0.114502 0,0 0.45117,0 0.20679,0 0.32641,-0.1230469 0.11109,-0.1145019 0.11109,-0.2990722 v -0.222168 q 0,-0.1743164 -0.10254,-0.2819824 -0.12476,-0.1315918 -0.2666,-0.1315918 h -0.25977 q -0.14184,0 -0.14184,-0.1281738 0,-0.112793 0.14355,-0.112793 h 0.23071 q 0.16065,0 0.27515,-0.116211 0.12134,-0.1230468 0.12134,-0.2802734 0,-0.1606445 -0.0974,-0.2597656 -0.1333,-0.1350098 -0.27344,-0.1350098 h -0.50586 q -0.15894,0 -0.15894,-0.1281738 0,-0.1213379 0.15894,-0.1213379 z" />
      <path
         id="text60"
         aria-label="2"
         d="m 68.988152,6.8411865 q -0.133301,0 -0.133301,-0.1196289 0,-0.037598 0.03076,-0.099121 0.107667,-0.211914 0.247803,-0.3024902 0.174317,-0.112793 0.367432,-0.112793 0.324707,0 0.509277,0.2478028 0.13501,0.1811523 0.13501,0.3896484 0,0.1828613 -0.112793,0.3657226 L 69.203483,8.548462 h 0.810058 q 0.128174,0 0.128174,0.1281738 0,0.111084 -0.140137,0.111084 h -0.99292 q -0.152099,0 -0.152099,-0.109375 0,-0.047852 0.02222,-0.08374 L 69.79821,7.112915 q 0.09399,-0.1520996 0.09399,-0.2683105 0,-0.1469727 -0.09399,-0.2563477 -0.114502,-0.1333007 -0.305908,-0.1333007 -0.237549,0 -0.384522,0.2802734 -0.0564,0.105957 -0.119628,0.105957 z" />
      <path
         id="text61"
         aria-label="1"
         d="m 19.506828,6.2618408 q 0.05811,-0.054687 0.121338,-0.054687 0.128174,0 0.128174,0.1418457 v 2.2849121 q 0,0.1452637 -0.123047,0.1452637 -0.126465,0 -0.126465,-0.1469727 0,0 0,-2.0148925 l -0.297363,0.2973633 q -0.04614,0.046143 -0.09229,0.046143 -0.129883,0 -0.129883,-0.1145019 0,-0.058105 0.04956,-0.107666 z" />
      <path
         id="text62"
         aria-label="24"
         d="m 1168.0901,6.8411789 q -0.1333,0 -0.1333,-0.1196289 0,-0.037598 0.031,-0.099121 0.1077,-0.2119141 0.2479,-0.3024902 0.1743,-0.112793 0.3674,-0.112793 0.3247,0 0.5093,0.2478027 0.135,0.1811524 0.135,0.3896485 0,0.1828613 -0.1128,0.3657226 l -0.8289,1.3381348 h 0.8101 q 0.1282,0 0.1282,0.1281738 0,0.111084 -0.1402,0.111084 h -0.9929 q -0.1521,0 -0.1521,-0.109375 0,-0.047852 0.022,-0.08374 l 0.9194,-1.4816895 q 0.094,-0.1520996 0.094,-0.2683105 0,-0.1469727 -0.094,-0.2563477 -0.1145,-0.1333008 -0.3059,-0.1333008 -0.2375,0 -0.3845,0.2802735 -0.056,0.105957 -0.1196,0.105957 z m 2.0149,-0.546875 q 0.027,-0.095703 0.1264,-0.095703 0.118,0 0.118,0.1179199 0,0.029053 -0.012,0.068359 l -0.4666,1.6269531 h 0.6238 V 7.6392746 q 0,-0.1435547 0.1248,-0.1435547 0.1213,0 0.1213,0.1538086 v 0.3640137 q 0,0 0.2632,0 0.1248,0 0.1248,0.1350097 0,0.109375 -0.1299,0.109375 h -0.2581 v 0.3862305 q 0,0.1384277 -0.1264,0.1384277 -0.1197,0 -0.1197,-0.1333007 V 8.2630539 h -0.7844 q -0.1213,0 -0.1213,-0.114502 0,-0.037598 0.024,-0.1230468 z" />
      <path
         id="text63"
         aria-label="23"
         d="m 1118.1473,6.8411789 q -0.1333,0 -0.1333,-0.1196289 0,-0.037598 0.031,-0.099121 0.1077,-0.2119141 0.2478,-0.3024902 0.1743,-0.112793 0.3674,-0.112793 0.3247,0 0.5093,0.2478027 0.135,0.1811524 0.135,0.3896485 0,0.1828613 -0.1128,0.3657226 l -0.8288,1.3381348 h 0.81 q 0.1282,0 0.1282,0.1281738 0,0.111084 -0.1401,0.111084 h -0.993 q -0.1521,0 -0.1521,-0.109375 0,-0.047852 0.022,-0.08374 l 0.9194,-1.4816895 q 0.094,-0.1520996 0.094,-0.2683105 0,-0.1469727 -0.094,-0.2563477 -0.1145,-0.1333008 -0.3059,-0.1333008 -0.2376,0 -0.3845,0.2802735 -0.056,0.105957 -0.1197,0.105957 z m 1.6646,-0.6425781 q 0,0 0.5349,0 0.2324,0 0.417,0.1999511 0.1709,0.1845704 0.1709,0.4323731 0,0.3110351 -0.2666,0.5314941 0.2598,0.1879883 0.2598,0.4631348 0,0 0,0.3759766 0,0.2204589 -0.1897,0.4101562 -0.1675,0.1674805 -0.4375,0.1674805 0,0 -0.5093,0 -0.1453,0 -0.1453,-0.1264649 0,-0.1145019 0.1538,-0.1145019 0,0 0.4512,0 0.2068,0 0.3264,-0.1230469 0.1111,-0.1145019 0.1111,-0.2990723 V 7.8939133 q 0,-0.1743164 -0.1025,-0.2819825 -0.1248,-0.1315917 -0.2666,-0.1315917 h -0.2598 q -0.1419,0 -0.1419,-0.1281739 0,-0.1127929 0.1436,-0.1127929 h 0.2307 q 0.1607,0 0.2752,-0.116211 0.1213,-0.1230469 0.1213,-0.2802734 0,-0.1606446 -0.097,-0.2597656 -0.1333,-0.1350098 -0.2735,-0.1350098 h -0.5058 q -0.1589,0 -0.1589,-0.1281738 0,-0.1213379 0.1589,-0.1213379 z" />
      <path
         id="text64"
         aria-label="22"
         d="m 1068.1721,6.8411789 q -0.1333,0 -0.1333,-0.1196289 0,-0.037598 0.031,-0.099121 0.1076,-0.2119141 0.2478,-0.3024902 0.1743,-0.112793 0.3674,-0.112793 0.3247,0 0.5093,0.2478027 0.135,0.1811524 0.135,0.3896485 0,0.1828613 -0.1128,0.3657226 l -0.8288,1.3381348 h 0.81 q 0.1282,0 0.1282,0.1281738 0,0.111084 -0.1402,0.111084 h -0.9929 q -0.1521,0 -0.1521,-0.109375 0,-0.047852 0.022,-0.08374 l 0.9195,-1.4816895 q 0.094,-0.1520996 0.094,-0.2683105 0,-0.1469727 -0.094,-0.2563477 -0.1145,-0.1333008 -0.3059,-0.1333008 -0.2376,0 -0.3846,0.2802735 -0.056,0.105957 -0.1196,0.1059567 z m 1.6321,0 q -0.1333,0 -0.1333,-0.1196289 0,-0.037598 0.031,-0.099121 0.1076,-0.2119141 0.2478,-0.3024902 0.1743,-0.112793 0.3674,-0.112793 0.3247,0 0.5093,0.2478027 0.135,0.1811524 0.135,0.3896485 0,0.1828613 -0.1128,0.3657226 l -0.8289,1.3381348 h 0.8101 q 0.1282,0 0.1282,0.1281738 0,0.111084 -0.1402,0.111084 h -0.9929 q -0.1521,0 -0.1521,-0.109375 0,-0.047852 0.022,-0.08374 l 0.9195,-1.4816895 q 0.094,-0.1520996 0.094,-0.2683105 0,-0.1469727 -0.094,-0.2563477 -0.1145,-0.1333008 -0.306,-0.1333008 -0.2375,0 -0.3845,0.2802735 -0.056,0.105957 -0.1196,0.1059567 z" />
      <path
         id="text65"
         aria-label="21"
         d="m 1018.3901,6.8411789 q -0.1333,0 -0.1333,-0.1196289 0,-0.037598 0.031,-0.099121 0.1077,-0.2119141 0.2478,-0.3024902 0.1743,-0.112793 0.3674,-0.112793 0.3247,0 0.5093,0.2478027 0.135,0.1811524 0.135,0.3896485 0,0.1828613 -0.1128,0.3657226 l -0.8288,1.3381348 h 0.81 q 0.1282,0 0.1282,0.1281738 0,0.111084 -0.1401,0.111084 h -0.993 q -0.1521,0 -0.1521,-0.109375 0,-0.047852 0.022,-0.08374 l 0.9194,-1.4816895 q 0.094,-0.1520996 0.094,-0.2683105 0,-0.1469727 -0.094,-0.2563477 -0.1145,-0.1333008 -0.3059,-0.1333008 -0.2376,0 -0.3845,0.2802735 -0.056,0.105957 -0.1197,0.105957 z m 1.9329,-0.5793457 q 0.058,-0.054687 0.1213,-0.054687 0.1282,0 0.1282,0.1418457 V 8.633904 q 0,0.1452637 -0.123,0.1452637 -0.1265,0 -0.1265,-0.1469727 0,0 0,-2.0148926 l -0.2974,0.2973633 q -0.046,0.046143 -0.092,0.046143 -0.1298,0 -0.1298,-0.114502 0,-0.058105 0.049,-0.107666 z" />
      <path
         id="text66"
         aria-label="20"
         d="m 968.16956,6.8411789 q -0.13331,0 -0.13331,-0.1196289 0,-0.037598 0.0308,-0.099121 0.10766,-0.2119141 0.2478,-0.3024902 0.17432,-0.112793 0.36743,-0.112793 0.32471,0 0.50928,0.2478027 0.13501,0.1811524 0.13501,0.3896485 0,0.1828613 -0.11279,0.3657226 l -0.82886,1.3381348 h 0.81006 q 0.12817,0 0.12817,0.1281738 0,0.111084 -0.14014,0.111084 h -0.99292 q -0.1521,0 -0.1521,-0.109375 0,-0.047852 0.0222,-0.08374 l 0.91943,-1.4816895 q 0.094,-0.1520996 0.094,-0.2683105 0,-0.1469727 -0.094,-0.2563477 -0.1145,-0.1333008 -0.3059,-0.1333008 -0.23755,0 -0.38453,0.2802735 -0.0564,0.105957 -0.11962,0.105957 z m 2.14306,-0.3879395 q -0.11621,0 -0.16748,0.1025391 -0.1333,0.2631836 -0.19482,0.6032715 -0.0291,0.1589355 -0.0291,0.322998 0,0.1196289 0.0154,0.2375489 0.0496,0.3862304 0.16918,0.65625 0.0718,0.1623535 0.20508,0.1623535 0.12818,0 0.20508,-0.1469727 0.11279,-0.217041 0.16919,-0.5964355 0.0239,-0.1623535 0.0239,-0.3144531 0,-0.1520997 -0.0239,-0.2939454 -0.0615,-0.3605957 -0.20166,-0.6340332 -0.0513,-0.099121 -0.1709,-0.099121 z m 0.009,-0.2460937 q 0.23413,0 0.35717,0.1811523 0.1897,0.2785645 0.26319,0.7844239 0.0222,0.1520996 0.0222,0.3076172 0,0.1640625 -0.0239,0.326416 -0.0735,0.5024414 -0.25464,0.7861328 -0.12476,0.1948242 -0.36914,0.1948242 -0.24097,0 -0.36914,-0.2016602 -0.15723,-0.2460937 -0.25122,-0.7707519 -0.0274,-0.1520996 -0.0274,-0.3110352 0,-0.1657715 0.0291,-0.3332519 0.0906,-0.5212403 0.23584,-0.7536621 0.12988,-0.2102051 0.38794,-0.2102051 z" />
      <path
         id="text67"
         aria-label="19"
         d="m 918.62671,6.2618332 q 0.0581,-0.054687 0.12134,-0.054687 0.12817,0 0.12817,0.1418457 V 8.633904 q 0,0.1452637 -0.12305,0.1452637 -0.12646,0 -0.12646,-0.1469727 0,0 0,-2.0148926 l -0.29736,0.2973633 q -0.0462,0.046143 -0.0923,0.046143 -0.12988,0 -0.12988,-0.114502 0,-0.058105 0.0496,-0.107666 z m 1.06982,2.3994141 q 0,-0.087158 0.12134,-0.1264649 0.16919,-0.054687 0.29395,-0.1572266 0.30078,-0.2512207 0.35034,-0.6254882 h -0.41529 q -0.21704,0 -0.39306,-0.1520996 -0.21362,-0.1879883 -0.21362,-0.4357911 0,0 0,-0.3605957 0,-0.2854004 0.27856,-0.4887695 0.14697,-0.107666 0.37769,-0.107666 0.24438,0 0.44433,0.1948242 0.18115,0.1760254 0.18115,0.4494629 0,0 0,0.7861328 0,0.2529297 -0.0889,0.4494629 -0.14527,0.3178711 -0.33667,0.4665527 -0.30762,0.2341309 -0.47681,0.2341309 -0.12305,0 -0.12305,-0.1264648 z m 0.77246,-1.7944336 q 0,-0.1726075 -0.10424,-0.2836914 -0.11792,-0.1247559 -0.28882,-0.1247559 -0.14868,0 -0.27002,0.104248 -0.12305,0.1059571 -0.12305,0.2836914 v 0.2768555 q 0,0.1726074 0.14014,0.2888184 0.11108,0.092285 0.323,0.092285 h 0.32299 z" />
      <path
         id="text68"
         aria-label="18"
         d="m 868.60449,6.2618332 q 0.0581,-0.054687 0.12134,-0.054687 0.12817,0 0.12817,0.1418457 V 8.633904 q 0,0.1452637 -0.12304,0.1452637 -0.12647,0 -0.12647,-0.1469727 0,0 0,-2.0148926 l -0.29736,0.2973633 q -0.0461,0.046143 -0.0923,0.046143 -0.12988,0 -0.12988,-0.114502 0,-0.058105 0.0496,-0.107666 z m 1.48853,1.2270508 q -0.1521,0 -0.26831,0.109375 -0.12647,0.1196289 -0.12647,0.2734375 v 0.3110351 q 0,0.1264649 0.14868,0.2666016 0.0889,0.08374 0.24781,0.08374 0.13842,0 0.27514,-0.111084 0.12134,-0.099121 0.12134,-0.2802734 V 7.8870773 q 0,-0.1452636 -0.12305,-0.2854004 -0.0991,-0.1127929 -0.27514,-0.1127929 z m -0.26831,-0.9348145 q -0.12476,0.1298828 -0.12476,0.2751465 0,0.1367188 0.0872,0.2631836 0.0991,0.1435547 0.30249,0.1435547 0.19653,0 0.30249,-0.1196289 0.10425,-0.1230469 0.10425,-0.2751465 0,-0.1572266 -0.13501,-0.2802734 -0.11963,-0.1076661 -0.27515,-0.1076661 -0.16406,0 -0.26147,0.1008301 z m -0.1145,0.8066406 q -0.25806,-0.1999511 -0.25806,-0.5554199 0,-0.2836914 0.23071,-0.4580078 0.19653,-0.1486816 0.4187,-0.1486816 0.18457,0 0.31787,0.082031 0.32129,0.1982422 0.32129,0.5605469 0,0.3383789 -0.25805,0.5246582 0.26147,0.2084961 0.26147,0.5109863 v 0.2922364 q 0,0.2478027 -0.22046,0.4545898 -0.16748,0.1572266 -0.41699,0.1572266 -0.28369,0 -0.43066,-0.1452637 -0.22388,-0.220459 -0.22388,-0.4562988 V 7.8631516 q 0,-0.2785645 0.25806,-0.5024415 z" />
      <path
         id="text69"
         aria-label="17"
         d="m 818.67029,6.2618332 q 0.0581,-0.054687 0.12134,-0.054687 0.12817,0 0.12817,0.1418457 V 8.633904 q 0,0.1452637 -0.12305,0.1452637 -0.12646,0 -0.12646,-0.1469727 0,0 0,-2.0148926 l -0.29737,0.2973633 q -0.0461,0.046143 -0.0923,0.046143 -0.12988,0 -0.12988,-0.114502 0,-0.058105 0.0496,-0.107666 z m 1.89868,-0.054687 q 0.14355,0 0.14355,0.1196289 0,0.037598 -0.0359,0.1999512 0,0 -0.47339,2.1413574 -0.0256,0.1196289 -0.11792,0.1196289 -0.13159,0 -0.13159,-0.112793 0,-0.023926 0.005,-0.047852 l 0.48194,-2.1687012 h -0.76563 q 0,0 0,0.1281738 0,0.1213379 -0.12475,0.1213379 -0.11792,0 -0.11792,-0.1264648 0,0 0,-0.2597657 0,-0.1145019 0.13671,-0.1145019 z" />
      <path
         id="text70"
         aria-label="16"
         d="m 768.64124,6.261837 q 0.0581,-0.054687 0.12133,-0.054687 0.12818,0 0.12818,0.1418457 v 2.2849121 q 0,0.1452637 -0.12305,0.1452637 -0.12646,0 -0.12646,-0.1469727 0,0 0,-2.0148925 l -0.29737,0.2973632 q -0.0461,0.046143 -0.0923,0.046143 -0.12989,0 -0.12989,-0.1145019 0,-0.058105 0.0496,-0.1076661 z m 1.07666,0.984375 q 0,0 0.37768,0 0.28711,0 0.47852,0.2136231 0.16748,0.1862792 0.16748,0.3964843 0,0 0,0.3452149 0,0.220459 -0.21363,0.4272461 -0.16406,0.1589355 -0.46313,0.1589355 -0.24097,0 -0.42725,-0.1811523 -0.18286,-0.1777344 -0.18286,-0.4050293 V 7.3094444 q 0,-0.3896484 0.29907,-0.7399902 0.18287,-0.2136231 0.48536,-0.3349609 0.0684,-0.027344 0.11621,-0.027344 0.12304,0 0.12304,0.1333008 0,0.078613 -0.10766,0.1162109 -0.24097,0.08374 -0.3794,0.222168 -0.23584,0.2341309 -0.27343,0.567383 z m -0.0188,0.9296875 q 0,0.1469727 0.14355,0.2785645 0.10083,0.092285 0.25806,0.092285 0.11963,0 0.28027,-0.1213379 0.11279,-0.085449 0.11279,-0.2563476 V 7.9092979 q 0,-0.1691894 -0.11621,-0.2939453 -0.11108,-0.1196289 -0.27856,-0.1196289 h -0.3999 z" />
      <path
         id="text71"
         aria-label="15"
         d="m 718.63696,6.261837 q 0.0581,-0.054687 0.12134,-0.054687 0.12817,0 0.12817,0.1418457 v 2.2849121 q 0,0.1452637 -0.12304,0.1452637 -0.12647,0 -0.12647,-0.1469727 0,0 0,-2.0148925 L 718.3396,6.914669 q -0.0461,0.046143 -0.0923,0.046143 -0.12988,0 -0.12988,-0.1145019 0,-0.058105 0.0496,-0.1076661 z m 0.81348,0.075195 q 0,-0.1298828 0.14868,-0.1298828 0,0 1.00488,0 0.14185,0 0.14185,0.1230469 0,0.1230469 -0.13501,0.1230469 h -0.90918 v 0.79126 h 0.37939 q 0.32984,0 0.52979,0.2460938 0.1333,0.1640625 0.1333,0.3930664 v 0.2751465 q 0,0.2734375 -0.18628,0.4460449 -0.19653,0.1828613 -0.43408,0.1828613 h -0.5332 q -0.1316,0 -0.1316,-0.1196289 0,-0.1213379 0.14356,-0.1213379 h 0.4751 q 0.21533,0 0.32983,-0.1469726 0.0855,-0.109375 0.0855,-0.2580567 V 7.8836632 q 0,-0.1538086 -0.10083,-0.2666016 -0.11279,-0.1264648 -0.34522,-0.1264648 h -0.47167 q -0.12476,0 -0.12476,-0.1452637 z" />
      <path
         id="text72"
         aria-label="14"
         d="m 668.60876,6.261837 q 0.0581,-0.054687 0.12134,-0.054687 0.12818,0 0.12818,0.1418457 v 2.2849121 q 0,0.1452637 -0.12305,0.1452637 -0.12647,0 -0.12647,-0.1469727 0,0 0,-2.0148925 L 668.3114,6.914669 q -0.0461,0.046143 -0.0923,0.046143 -0.12989,0 -0.12989,-0.1145019 0,-0.058105 0.0496,-0.1076661 z m 1.27832,0.032471 q 0.0274,-0.095703 0.12647,-0.095703 0.11792,0 0.11792,0.1179199 0,0.029053 -0.012,0.068359 l -0.46656,1.6269531 h 0.62378 V 7.6392784 q 0,-0.1435547 0.12476,-0.1435547 0.12134,0 0.12134,0.1538086 V 8.013546 q 0,0 0.26318,0 0.12476,0 0.12476,0.1350098 0,0.109375 -0.12989,0.109375 h -0.25805 v 0.3862304 q 0,0.1384278 -0.12647,0.1384278 -0.11963,0 -0.11963,-0.1333008 V 8.2630577 h -0.78442 q -0.12134,0 -0.12134,-0.1145019 0,-0.037598 0.0239,-0.1230469 z" />
      <path
         id="text73"
         aria-label="13"
         d="m 618.66602,6.261837 q 0.0581,-0.054687 0.12133,-0.054687 0.12818,0 0.12818,0.1418457 v 2.2849121 q 0,0.1452637 -0.12305,0.1452637 -0.12646,0 -0.12646,-0.1469727 0,0 0,-2.0148925 l -0.29737,0.2973632 q -0.0461,0.046143 -0.0923,0.046143 -0.12989,0 -0.12989,-0.1145019 0,-0.058105 0.0496,-0.1076661 z m 0.92797,-0.063232 q 0,0 0.53492,0 0.23242,0 0.41699,0.1999512 0.1709,0.1845703 0.1709,0.432373 0,0.3110352 -0.2666,0.5314941 0.25976,0.1879883 0.25976,0.4631348 0,0 0,0.3759766 0,0.220459 -0.1897,0.4101562 -0.16748,0.1674805 -0.4375,0.1674805 0,0 -0.50927,0 -0.14527,0 -0.14527,-0.1264649 0,-0.1145019 0.15381,-0.1145019 0,0 0.45117,0 0.20679,0 0.32642,-0.1230469 0.11108,-0.1145019 0.11108,-0.2990722 v -0.222168 q 0,-0.1743164 -0.10254,-0.2819824 -0.12475,-0.1315918 -0.2666,-0.1315918 h -0.25976 q -0.14185,0 -0.14185,-0.1281739 0,-0.1127929 0.14356,-0.1127929 h 0.23071 q 0.16064,0 0.27515,-0.116211 0.12133,-0.1230468 0.12133,-0.2802734 0,-0.1606445 -0.0974,-0.2597656 Q 620.24,6.4481167 620.09986,6.4481167 H 619.594 q -0.15893,0 -0.15893,-0.1281738 0,-0.1213379 0.15893,-0.1213379 z" />
      <path
         id="path75"
         aria-label="12"
         d="m 568.6908,832.26178 q 0.0581,-0.0547 0.12133,-0.0547 0.12818,0 0.12818,0.14184 v 2.28492 q 0,0.14526 -0.12305,0.14526 -0.12646,0 -0.12646,-0.14697 0,0 0,-2.0149 l -0.29737,0.29737 q -0.0461,0.0461 -0.0923,0.0461 -0.12989,0 -0.12989,-0.1145 0,-0.0581 0.0496,-0.10767 z m 0.8955,0.57934 q -0.1333,0 -0.1333,-0.11962 0,-0.0376 0.0308,-0.0991 0.10767,-0.21192 0.24781,-0.3025 0.17431,-0.11279 0.36743,-0.11279 0.32471,0 0.50928,0.2478 0.13501,0.18116 0.13501,0.38965 0,0.18286 -0.1128,0.36573 l -0.82885,1.33813 h 0.81005 q 0.12818,0 0.12818,0.12818 0,0.11108 -0.14014,0.11108 h -0.99292 q -0.1521,0 -0.1521,-0.10938 0,-0.0478 0.0222,-0.0837 l 0.91943,-1.48169 q 0.094,-0.1521 0.094,-0.26831 0,-0.14697 -0.094,-0.25634 -0.1145,-0.13331 -0.30591,-0.13331 -0.23754,0 -0.38452,0.28028 -0.0564,0.10596 -0.11963,0.10596 z" />
      <path
         id="path76"
         aria-label="11"
         d="m 518.90869,832.26178 q 0.0581,-0.0547 0.12134,-0.0547 0.12817,0 0.12817,0.14184 v 2.28492 q 0,0.14526 -0.12304,0.14526 -0.12647,0 -0.12647,-0.14697 0,0 0,-2.0149 l -0.29736,0.29737 q -0.0461,0.0461 -0.0923,0.0461 -0.12988,0 -0.12988,-0.1145 0,-0.0581 0.0496,-0.10767 z m 1.19629,0 q 0.0581,-0.0547 0.12134,-0.0547 0.12817,0 0.12817,0.14184 v 2.28492 q 0,0.14526 -0.12304,0.14526 -0.12647,0 -0.12647,-0.14697 0,0 0,-2.0149 l -0.29736,0.29737 q -0.0462,0.0461 -0.0923,0.0461 -0.12988,0 -0.12988,-0.1145 0,-0.0581 0.0496,-0.10767 z" />
      <path
         id="path78"
         aria-label="10"
         d="m 468.68823,832.26178 q 0.0581,-0.0547 0.12134,-0.0547 0.12817,0 0.12817,0.14184 v 2.28492 q 0,0.14526 -0.12304,0.14526 -0.12647,0 -0.12647,-0.14697 0,0 0,-2.0149 l -0.29736,0.29737 q -0.0461,0.0461 -0.0923,0.0461 -0.12988,0 -0.12988,-0.1145 0,-0.0581 0.0496,-0.10767 z m 1.4065,0.1914 q -0.11621,0 -0.16748,0.10254 -0.1333,0.26319 -0.19483,0.60328 -0.029,0.15893 -0.029,0.32299 0,0.11963 0.0154,0.23755 0.0496,0.38623 0.16919,0.65625 0.0718,0.16236 0.20508,0.16236 0.12817,0 0.20508,-0.14698 0.11279,-0.21704 0.16919,-0.59643 0.0239,-0.16236 0.0239,-0.31446 0,-0.1521 -0.0239,-0.29394 -0.0615,-0.3606 -0.20167,-0.63403 -0.0513,-0.0991 -0.17089,-0.0991 z m 0.009,-0.24609 q 0.23413,0 0.35718,0.18115 0.1897,0.27857 0.26318,0.78443 0.0222,0.1521 0.0222,0.30761 0,0.16407 -0.0239,0.32642 -0.0735,0.50244 -0.25463,0.78613 -0.12476,0.19483 -0.36915,0.19483 -0.24096,0 -0.36914,-0.20166 -0.15722,-0.2461 -0.25122,-0.77075 -0.0273,-0.1521 -0.0273,-0.31104 0,-0.16577 0.029,-0.33325 0.0906,-0.52124 0.23584,-0.75366 0.12988,-0.21021 0.38794,-0.21021 z" />
      <path
         id="path80"
         aria-label="9"
         d="m 419.09839,834.66119 q 0,-0.0872 0.12134,-0.12646 0.16919,-0.0547 0.29394,-0.15723 0.30078,-0.25122 0.35034,-0.62549 h -0.41528 q -0.21704,0 -0.39307,-0.1521 -0.21362,-0.18798 -0.21362,-0.43579 0,0 0,-0.36059 0,-0.2854 0.27857,-0.48877 0.14697,-0.10767 0.37768,-0.10767 0.24439,0 0.44434,0.19483 0.18115,0.17602 0.18115,0.44946 0,0 0,0.78613 0,0.25293 -0.0889,0.44946 -0.14526,0.31788 -0.33667,0.46656 -0.30762,0.23413 -0.4768,0.23413 -0.12305,0 -0.12305,-0.12647 z m 0.77246,-1.79443 q 0,-0.17261 -0.10425,-0.28369 -0.11792,-0.12476 -0.28882,-0.12476 -0.14868,0 -0.27002,0.10425 -0.12304,0.10596 -0.12304,0.28369 v 0.27686 q 0,0.1726 0.14013,0.28882 0.11109,0.0923 0.323,0.0923 h 0.323 z" />
      <path
         id="path82"
         aria-label="8"
         d="m 369.49487,833.48883 q -0.1521,0 -0.26831,0.10937 -0.12646,0.11963 -0.12646,0.27344 v 0.31104 q 0,0.12646 0.14868,0.2666 0.0889,0.0837 0.2478,0.0837 0.13843,0 0.27515,-0.11108 0.12134,-0.0991 0.12134,-0.28028 v -0.25464 q 0,-0.14526 -0.12305,-0.2854 -0.0991,-0.11279 -0.27515,-0.11279 z m -0.26831,-0.93482 q -0.12475,0.12989 -0.12475,0.27515 0,0.13672 0.0872,0.26319 0.0991,0.14355 0.3025,0.14355 0.19653,0 0.30249,-0.11963 0.10424,-0.12305 0.10424,-0.27515 0,-0.15722 -0.13501,-0.28027 -0.11963,-0.10767 -0.27514,-0.10767 -0.16407,0 -0.26148,0.10083 z m -0.1145,0.80665 q -0.25806,-0.19996 -0.25806,-0.55542 0,-0.2837 0.23072,-0.45801 0.19653,-0.14868 0.4187,-0.14868 0.18457,0 0.31787,0.082 0.32129,0.19824 0.32129,0.56054 0,0.33838 -0.25806,0.52466 0.26148,0.2085 0.26148,0.51099 v 0.29223 q 0,0.24781 -0.22046,0.45459 -0.16748,0.15723 -0.417,0.15723 -0.28369,0 -0.43066,-0.14526 -0.22388,-0.22046 -0.22388,-0.4563 v -0.31616 q 0,-0.27857 0.25806,-0.50244 z" />
      <path
         id="path84"
         aria-label="7"
         d="m 319.97083,832.20709 q 0.14355,0 0.14355,0.11963 0,0.0376 -0.0359,0.19995 0,0 -0.47339,2.14136 -0.0256,0.11963 -0.11792,0.11963 -0.13159,0 -0.13159,-0.11279 0,-0.0239 0.005,-0.0478 l 0.48193,-2.16871 h -0.76562 q 0,0 0,0.12818 0,0.12133 -0.12476,0.12133 -0.11792,0 -0.11792,-0.12646 0,0 0,-0.25977 0,-0.1145 0.13672,-0.1145 z" />
      <path
         id="path86"
         aria-label="6"
         d="m 269.11975,833.24615 q 0,0 0.37769,0 0.28711,0 0.47851,0.21363 0.16748,0.18628 0.16748,0.39648 0,0 0,0.34522 0,0.22046 -0.21362,0.42724 -0.16406,0.15894 -0.46314,0.15894 -0.24096,0 -0.42724,-0.18115 -0.18286,-0.17774 -0.18286,-0.40503 v -0.89209 q 0,-0.38965 0.29907,-0.73999 0.18286,-0.21363 0.48535,-0.33497 0.0684,-0.0273 0.11621,-0.0273 0.12305,0 0.12305,0.13331 0,0.0786 -0.10767,0.11621 -0.24096,0.0837 -0.37939,0.22216 -0.23584,0.23414 -0.27344,0.56739 z m -0.0188,0.92969 q 0,0.14697 0.14356,0.27857 0.10083,0.0923 0.25805,0.0923 0.11963,0 0.28028,-0.12134 0.11279,-0.0855 0.11279,-0.25635 v -0.25977 q 0,-0.16919 -0.11621,-0.29395 -0.11109,-0.11962 -0.27857,-0.11962 h -0.3999 z" />
      <path
         id="path88"
         aria-label="5"
         d="m 218.85229,832.33697 q 0,-0.12988 0.14869,-0.12988 0,0 1.00488,0 0.14185,0 0.14185,0.12305 0,0.12304 -0.13501,0.12304 h -0.90918 v 0.79126 h 0.37939 q 0.32983,0 0.52979,0.2461 0.1333,0.16406 0.1333,0.39307 v 0.27514 q 0,0.27344 -0.18628,0.44605 -0.19654,0.18286 -0.43409,0.18286 h -0.5332 q -0.13159,0 -0.13159,-0.11963 0,-0.12134 0.14355,-0.12134 h 0.4751 q 0.21533,0 0.32984,-0.14697 0.0855,-0.10938 0.0855,-0.25806 v -0.25805 q 0,-0.15381 -0.10083,-0.26661 -0.1128,-0.12646 -0.34522,-0.12646 h -0.47168 q -0.12476,0 -0.12476,-0.14527 z" />
      <path
         id="path90"
         aria-label="4"
         d="m 169.28894,832.29425 q 0.0273,-0.0957 0.12647,-0.0957 0.11792,0 0.11792,0.11792 0,0.0291 -0.012,0.0684 l -0.46655,1.62696 h 0.62378 v -0.37256 q 0,-0.14356 0.12475,-0.14356 0.12134,0 0.12134,0.15381 v 0.36402 q 0,0 0.26319,0 0.12475,0 0.12475,0.135 0,0.10938 -0.12988,0.10938 h -0.25806 v 0.38623 q 0,0.13843 -0.12646,0.13843 -0.11963,0 -0.11963,-0.13331 v -0.38623 h -0.78442 q -0.12134,0 -0.12134,-0.1145 0,-0.0376 0.0239,-0.12305 z" />
      <path
         id="path92"
         aria-label="3"
         d="m 118.99585,832.19855 q 0,0 0.53491,0 0.23242,0 0.41699,0.19995 0.1709,0.18457 0.1709,0.43237 0,0.31104 -0.2666,0.5315 0.25977,0.18799 0.25977,0.46313 0,0 0,0.37598 0,0.22046 -0.1897,0.41016 -0.16748,0.16748 -0.4375,0.16748 0,0 -0.50928,0 -0.14526,0 -0.14526,-0.12647 0,-0.1145 0.15381,-0.1145 0,0 0.45117,0 0.20679,0 0.32641,-0.12305 0.11109,-0.1145 0.11109,-0.29907 v -0.22217 q 0,-0.17431 -0.10254,-0.28198 -0.12476,-0.13159 -0.2666,-0.13159 h -0.25977 q -0.14184,0 -0.14184,-0.12818 0,-0.11279 0.14355,-0.11279 h 0.23071 q 0.16065,0 0.27515,-0.11621 0.12134,-0.12305 0.12134,-0.28027 0,-0.16065 -0.0974,-0.25977 -0.1333,-0.13501 -0.27344,-0.13501 h -0.50586 q -0.15894,0 -0.15894,-0.12817 0,-0.12134 0.15894,-0.12134 z" />
      <path
         id="path94"
         aria-label="2"
         d="m 68.988152,832.84113 q -0.133301,0 -0.133301,-0.11963 0,-0.0376 0.03076,-0.0991 0.107667,-0.21192 0.247803,-0.30249 0.174317,-0.11279 0.367432,-0.11279 0.324707,0 0.509277,0.2478 0.13501,0.18115 0.13501,0.38965 0,0.18286 -0.112793,0.36572 l -0.828857,1.33814 h 0.810058 q 0.128174,0 0.128174,0.12817 0,0.11108 -0.140137,0.11108 h -0.99292 q -0.152099,0 -0.152099,-0.10937 0,-0.0478 0.02222,-0.0837 l 0.919431,-1.48169 q 0.09399,-0.1521 0.09399,-0.26831 0,-0.14698 -0.09399,-0.25635 -0.114502,-0.1333 -0.305908,-0.1333 -0.237549,0 -0.384522,0.28027 -0.0564,0.10596 -0.119628,0.10596 z" />
      <path
         id="path95"
         aria-label="1"
         d="m 19.506828,832.26178 q 0.05811,-0.0547 0.121338,-0.0547 0.128174,0 0.128174,0.14185 v 2.28491 q 0,0.14526 -0.123047,0.14526 -0.126465,0 -0.126465,-0.14697 0,0 0,-2.01489 l -0.297363,0.29736 q -0.04614,0.0461 -0.09229,0.0461 -0.129883,0 -0.129883,-0.1145 0,-0.0581 0.04956,-0.10767 z" />
      <path
         id="path97"
         aria-label="24"
         d="m 1168.0901,832.84112 q -0.1333,0 -0.1333,-0.11963 0,-0.0376 0.031,-0.0991 0.1077,-0.21191 0.2479,-0.30249 0.1743,-0.11279 0.3674,-0.11279 0.3247,0 0.5093,0.2478 0.135,0.18115 0.135,0.38965 0,0.18286 -0.1128,0.36572 l -0.8289,1.33814 h 0.8101 q 0.1282,0 0.1282,0.12817 0,0.11109 -0.1402,0.11109 h -0.9929 q -0.1521,0 -0.1521,-0.10938 0,-0.0478 0.022,-0.0837 l 0.9194,-1.48169 q 0.094,-0.1521 0.094,-0.26831 0,-0.14697 -0.094,-0.25635 -0.1145,-0.1333 -0.3059,-0.1333 -0.2375,0 -0.3845,0.28027 -0.056,0.10596 -0.1196,0.10596 z m 2.0149,-0.54688 q 0.027,-0.0957 0.1264,-0.0957 0.118,0 0.118,0.11793 0,0.0291 -0.012,0.0684 l -0.4666,1.62695 h 0.6238 v -0.37256 q 0,-0.14356 0.1248,-0.14356 0.1213,0 0.1213,0.15381 v 0.36402 q 0,0 0.2632,0 0.1248,0 0.1248,0.13501 0,0.10937 -0.1299,0.10937 h -0.2581 v 0.38623 q 0,0.13843 -0.1264,0.13843 -0.1197,0 -0.1197,-0.1333 v -0.38623 h -0.7844 q -0.1213,0 -0.1213,-0.1145 0,-0.0376 0.024,-0.12305 z" />
      <path
         id="path99"
         aria-label="23"
         d="m 1118.1473,832.84112 q -0.1333,0 -0.1333,-0.11963 0,-0.0376 0.031,-0.0991 0.1077,-0.21191 0.2478,-0.30249 0.1743,-0.11279 0.3674,-0.11279 0.3247,0 0.5093,0.2478 0.135,0.18115 0.135,0.38965 0,0.18286 -0.1128,0.36572 l -0.8288,1.33814 h 0.81 q 0.1282,0 0.1282,0.12817 0,0.11109 -0.1401,0.11109 h -0.993 q -0.1521,0 -0.1521,-0.10938 0,-0.0478 0.022,-0.0837 l 0.9194,-1.48169 q 0.094,-0.1521 0.094,-0.26831 0,-0.14697 -0.094,-0.25635 -0.1145,-0.1333 -0.3059,-0.1333 -0.2376,0 -0.3845,0.28027 -0.056,0.10596 -0.1197,0.10596 z m 1.6646,-0.64258 q 0,0 0.5349,0 0.2324,0 0.417,0.19995 0.1709,0.18457 0.1709,0.43238 0,0.31103 -0.2666,0.53149 0.2598,0.18799 0.2598,0.46314 0,0 0,0.37597 0,0.22046 -0.1897,0.41016 -0.1675,0.16748 -0.4375,0.16748 0,0 -0.5093,0 -0.1453,0 -0.1453,-0.12647 0,-0.1145 0.1538,-0.1145 0,0 0.4512,0 0.2068,0 0.3264,-0.12304 0.1111,-0.11451 0.1111,-0.29908 v -0.22216 q 0,-0.17432 -0.1025,-0.28199 -0.1248,-0.13159 -0.2666,-0.13159 h -0.2598 q -0.1419,0 -0.1419,-0.12817 0,-0.1128 0.1436,-0.1128 h 0.2307 q 0.1607,0 0.2752,-0.11621 0.1213,-0.12304 0.1213,-0.28027 0,-0.16065 -0.097,-0.25977 -0.1333,-0.13501 -0.2735,-0.13501 h -0.5058 q -0.1589,0 -0.1589,-0.12817 0,-0.12134 0.1589,-0.12134 z" />
      <path
         id="path101"
         aria-label="22"
         d="m 1068.1721,832.84112 q -0.1333,0 -0.1333,-0.11963 0,-0.0376 0.031,-0.0991 0.1076,-0.21191 0.2478,-0.30249 0.1743,-0.11279 0.3674,-0.11279 0.3247,0 0.5093,0.2478 0.135,0.18115 0.135,0.38965 0,0.18286 -0.1128,0.36572 l -0.8288,1.33814 h 0.81 q 0.1282,0 0.1282,0.12817 0,0.11109 -0.1402,0.11109 h -0.9929 q -0.1521,0 -0.1521,-0.10938 0,-0.0478 0.022,-0.0837 l 0.9195,-1.48169 q 0.094,-0.1521 0.094,-0.26831 0,-0.14697 -0.094,-0.25635 -0.1145,-0.1333 -0.3059,-0.1333 -0.2376,0 -0.3846,0.28027 -0.056,0.10596 -0.1196,0.10596 z m 1.6321,0 q -0.1333,0 -0.1333,-0.11963 0,-0.0376 0.031,-0.0991 0.1076,-0.21191 0.2478,-0.30249 0.1743,-0.11279 0.3674,-0.11279 0.3247,0 0.5093,0.2478 0.135,0.18115 0.135,0.38965 0,0.18286 -0.1128,0.36572 l -0.8289,1.33814 h 0.8101 q 0.1282,0 0.1282,0.12817 0,0.11109 -0.1402,0.11109 h -0.9929 q -0.1521,0 -0.1521,-0.10938 0,-0.0478 0.022,-0.0837 l 0.9195,-1.48169 q 0.094,-0.1521 0.094,-0.26831 0,-0.14697 -0.094,-0.25635 -0.1145,-0.1333 -0.306,-0.1333 -0.2375,0 -0.3845,0.28027 -0.056,0.10596 -0.1196,0.10596 z" />
      <path
         id="path103"
         aria-label="21"
         d="m 1018.3901,832.84112 q -0.1333,0 -0.1333,-0.11963 0,-0.0376 0.031,-0.0991 0.1077,-0.21191 0.2478,-0.30249 0.1743,-0.11279 0.3674,-0.11279 0.3247,0 0.5093,0.2478 0.135,0.18115 0.135,0.38965 0,0.18286 -0.1128,0.36572 l -0.8288,1.33814 h 0.81 q 0.1282,0 0.1282,0.12817 0,0.11109 -0.1401,0.11109 h -0.993 q -0.1521,0 -0.1521,-0.10938 0,-0.0478 0.022,-0.0837 l 0.9194,-1.48169 q 0.094,-0.1521 0.094,-0.26831 0,-0.14697 -0.094,-0.25635 -0.1145,-0.1333 -0.3059,-0.1333 -0.2376,0 -0.3845,0.28027 -0.056,0.10596 -0.1197,0.10596 z m 1.9329,-0.57935 q 0.058,-0.0547 0.1213,-0.0547 0.1282,0 0.1282,0.14185 v 2.28491 q 0,0.14527 -0.123,0.14527 -0.1265,0 -0.1265,-0.14698 0,0 0,-2.01489 l -0.2974,0.29736 q -0.046,0.0461 -0.092,0.0461 -0.1298,0 -0.1298,-0.1145 0,-0.0581 0.049,-0.10766 z" />
      <path
         id="path105"
         aria-label="20"
         d="m 968.16956,832.84112 q -0.13331,0 -0.13331,-0.11963 0,-0.0376 0.0308,-0.0991 0.10766,-0.21191 0.2478,-0.30249 0.17432,-0.11279 0.36743,-0.11279 0.32471,0 0.50928,0.2478 0.13501,0.18115 0.13501,0.38965 0,0.18286 -0.11279,0.36572 l -0.82886,1.33814 h 0.81006 q 0.12817,0 0.12817,0.12817 0,0.11109 -0.14014,0.11109 h -0.99292 q -0.1521,0 -0.1521,-0.10938 0,-0.0478 0.0222,-0.0837 l 0.91943,-1.48169 q 0.094,-0.1521 0.094,-0.26831 0,-0.14697 -0.094,-0.25635 -0.1145,-0.1333 -0.3059,-0.1333 -0.23755,0 -0.38453,0.28027 -0.0564,0.10596 -0.11962,0.10596 z m 2.14306,-0.38794 q -0.11621,0 -0.16748,0.10254 -0.1333,0.26318 -0.19482,0.60327 -0.0291,0.15894 -0.0291,0.323 0,0.11963 0.0154,0.23755 0.0496,0.38623 0.16918,0.65625 0.0718,0.16235 0.20508,0.16235 0.12818,0 0.20508,-0.14697 0.11279,-0.21704 0.16919,-0.59644 0.0239,-0.16235 0.0239,-0.31445 0,-0.1521 -0.0239,-0.29394 -0.0615,-0.3606 -0.20166,-0.63404 -0.0513,-0.0991 -0.1709,-0.0991 z m 0.009,-0.24609 q 0.23413,0 0.35717,0.18115 0.1897,0.27856 0.26319,0.78442 0.0222,0.1521 0.0222,0.30762 0,0.16406 -0.0239,0.32642 -0.0735,0.50244 -0.25464,0.78613 -0.12476,0.19482 -0.36914,0.19482 -0.24097,0 -0.36914,-0.20166 -0.15723,-0.24609 -0.25122,-0.77075 -0.0274,-0.1521 -0.0274,-0.31103 0,-0.16578 0.0291,-0.33326 0.0906,-0.52124 0.23584,-0.75366 0.12988,-0.2102 0.38794,-0.2102 z" />
      <path
         id="path107"
         aria-label="19"
         d="m 918.62671,832.26177 q 0.0581,-0.0547 0.12134,-0.0547 0.12817,0 0.12817,0.14185 v 2.28491 q 0,0.14527 -0.12305,0.14527 -0.12646,0 -0.12646,-0.14698 0,0 0,-2.01489 l -0.29736,0.29737 q -0.0462,0.0461 -0.0923,0.0461 -0.12988,0 -0.12988,-0.1145 0,-0.0581 0.0496,-0.10767 z m 1.06982,2.39942 q 0,-0.0872 0.12134,-0.12647 0.16919,-0.0547 0.29395,-0.15722 0.30078,-0.25122 0.35034,-0.62549 h -0.41529 q -0.21704,0 -0.39306,-0.1521 -0.21362,-0.18799 -0.21362,-0.43579 0,0 0,-0.3606 0,-0.2854 0.27856,-0.48877 0.14697,-0.10766 0.37769,-0.10766 0.24438,0 0.44433,0.19482 0.18115,0.17603 0.18115,0.44946 0,0 0,0.78614 0,0.25293 -0.0889,0.44946 -0.14527,0.31787 -0.33667,0.46655 -0.30762,0.23413 -0.47681,0.23413 -0.12305,0 -0.12305,-0.12646 z m 0.77246,-1.79443 q 0,-0.17261 -0.10424,-0.2837 -0.11792,-0.12475 -0.28882,-0.12475 -0.14868,0 -0.27002,0.10425 -0.12305,0.10595 -0.12305,0.28369 v 0.27685 q 0,0.17261 0.14014,0.28882 0.11108,0.0923 0.323,0.0923 h 0.32299 z" />
      <path
         id="path109"
         aria-label="18"
         d="m 868.60449,832.26177 q 0.0581,-0.0547 0.12134,-0.0547 0.12817,0 0.12817,0.14185 v 2.28491 q 0,0.14527 -0.12304,0.14527 -0.12647,0 -0.12647,-0.14698 0,0 0,-2.01489 l -0.29736,0.29737 q -0.0461,0.0461 -0.0923,0.0461 -0.12988,0 -0.12988,-0.1145 0,-0.0581 0.0496,-0.10767 z m 1.48853,1.22706 q -0.1521,0 -0.26831,0.10937 -0.12647,0.11963 -0.12647,0.27344 v 0.31103 q 0,0.12647 0.14868,0.26661 0.0889,0.0837 0.24781,0.0837 0.13842,0 0.27514,-0.11109 0.12134,-0.0991 0.12134,-0.28027 v -0.25464 q 0,-0.14526 -0.12305,-0.2854 -0.0991,-0.11279 -0.27514,-0.11279 z m -0.26831,-0.93482 q -0.12476,0.12988 -0.12476,0.27515 0,0.13672 0.0872,0.26318 0.0991,0.14356 0.30249,0.14356 0.19653,0 0.30249,-0.11963 0.10425,-0.12305 0.10425,-0.27515 0,-0.15723 -0.13501,-0.28027 -0.11963,-0.10767 -0.27515,-0.10767 -0.16406,0 -0.26147,0.10083 z m -0.1145,0.80664 q -0.25806,-0.19995 -0.25806,-0.55542 0,-0.28369 0.23071,-0.45801 0.19653,-0.14868 0.4187,-0.14868 0.18457,0 0.31787,0.082 0.32129,0.19824 0.32129,0.56055 0,0.33838 -0.25805,0.52466 0.26147,0.20849 0.26147,0.51098 v 0.29224 q 0,0.2478 -0.22046,0.45459 -0.16748,0.15723 -0.41699,0.15723 -0.28369,0 -0.43066,-0.14527 -0.22388,-0.22046 -0.22388,-0.4563 v -0.31616 q 0,-0.27856 0.25806,-0.50244 z" />
      <path
         id="path111"
         aria-label="17"
         d="m 818.67029,832.26177 q 0.0581,-0.0547 0.12134,-0.0547 0.12817,0 0.12817,0.14185 v 2.28491 q 0,0.14527 -0.12305,0.14527 -0.12646,0 -0.12646,-0.14698 0,0 0,-2.01489 l -0.29737,0.29737 q -0.0461,0.0461 -0.0923,0.0461 -0.12988,0 -0.12988,-0.1145 0,-0.0581 0.0496,-0.10767 z m 1.89868,-0.0547 q 0.14355,0 0.14355,0.11963 0,0.0376 -0.0359,0.19995 0,0 -0.47339,2.14136 -0.0256,0.11963 -0.11792,0.11963 -0.13159,0 -0.13159,-0.11279 0,-0.0239 0.005,-0.0479 l 0.48194,-2.1687 h -0.76563 q 0,0 0,0.12817 0,0.12134 -0.12475,0.12134 -0.11792,0 -0.11792,-0.12647 0,0 0,-0.25976 0,-0.1145 0.13671,-0.1145 z" />
      <path
         id="path113"
         aria-label="16"
         d="m 768.64124,832.26178 q 0.0581,-0.0547 0.12133,-0.0547 0.12818,0 0.12818,0.14184 v 2.28492 q 0,0.14526 -0.12305,0.14526 -0.12646,0 -0.12646,-0.14697 0,0 0,-2.0149 l -0.29737,0.29737 q -0.0461,0.0461 -0.0923,0.0461 -0.12989,0 -0.12989,-0.1145 0,-0.0581 0.0496,-0.10767 z m 1.07666,0.98437 q 0,0 0.37768,0 0.28711,0 0.47852,0.21363 0.16748,0.18628 0.16748,0.39648 0,0 0,0.34522 0,0.22046 -0.21363,0.42724 -0.16406,0.15894 -0.46313,0.15894 -0.24097,0 -0.42725,-0.18115 -0.18286,-0.17774 -0.18286,-0.40503 v -0.89209 q 0,-0.38965 0.29907,-0.73999 0.18287,-0.21363 0.48536,-0.33497 0.0684,-0.0273 0.11621,-0.0273 0.12304,0 0.12304,0.13331 0,0.0786 -0.10766,0.11621 -0.24097,0.0837 -0.3794,0.22216 -0.23584,0.23414 -0.27343,0.56739 z m -0.0188,0.92969 q 0,0.14697 0.14355,0.27857 0.10083,0.0923 0.25806,0.0923 0.11963,0 0.28027,-0.12134 0.11279,-0.0855 0.11279,-0.25635 v -0.25977 q 0,-0.16919 -0.11621,-0.29395 -0.11108,-0.11962 -0.27856,-0.11962 h -0.3999 z" />
      <path
         id="path115"
         aria-label="15"
         d="m 718.63696,832.26178 q 0.0581,-0.0547 0.12134,-0.0547 0.12817,0 0.12817,0.14184 v 2.28492 q 0,0.14526 -0.12304,0.14526 -0.12647,0 -0.12647,-0.14697 0,0 0,-2.0149 l -0.29736,0.29737 q -0.0461,0.0461 -0.0923,0.0461 -0.12988,0 -0.12988,-0.1145 0,-0.0581 0.0496,-0.10767 z m 0.81348,0.0752 q 0,-0.12988 0.14868,-0.12988 0,0 1.00488,0 0.14185,0 0.14185,0.12304 0,0.12305 -0.13501,0.12305 h -0.90918 v 0.79126 h 0.37939 q 0.32984,0 0.52979,0.24609 0.1333,0.16407 0.1333,0.39307 v 0.27515 q 0,0.27343 -0.18628,0.44604 -0.19653,0.18286 -0.43408,0.18286 h -0.5332 q -0.1316,0 -0.1316,-0.11963 0,-0.12133 0.14356,-0.12133 h 0.4751 q 0.21533,0 0.32983,-0.14698 0.0855,-0.10937 0.0855,-0.25805 v -0.25806 q 0,-0.15381 -0.10083,-0.2666 -0.11279,-0.12647 -0.34522,-0.12647 h -0.47167 q -0.12476,0 -0.12476,-0.14526 z" />
      <path
         id="path117"
         aria-label="14"
         d="m 668.60876,832.26178 q 0.0581,-0.0547 0.12134,-0.0547 0.12818,0 0.12818,0.14184 v 2.28492 q 0,0.14526 -0.12305,0.14526 -0.12647,0 -0.12647,-0.14697 0,0 0,-2.0149 l -0.29736,0.29737 q -0.0461,0.0461 -0.0923,0.0461 -0.12989,0 -0.12989,-0.1145 0,-0.0581 0.0496,-0.10767 z m 1.27832,0.0325 q 0.0274,-0.0957 0.12647,-0.0957 0.11792,0 0.11792,0.11792 0,0.0291 -0.012,0.0684 l -0.46656,1.62695 h 0.62378 v -0.37256 q 0,-0.14355 0.12476,-0.14355 0.12134,0 0.12134,0.15381 v 0.36401 q 0,0 0.26318,0 0.12476,0 0.12476,0.13501 0,0.10938 -0.12989,0.10938 h -0.25805 v 0.38623 q 0,0.13842 -0.12647,0.13842 -0.11963,0 -0.11963,-0.1333 v -0.38623 h -0.78442 q -0.12134,0 -0.12134,-0.1145 0,-0.0376 0.0239,-0.12305 z" />
      <path
         id="path118"
         aria-label="13"
         d="m 618.66602,832.26178 q 0.0581,-0.0547 0.12133,-0.0547 0.12818,0 0.12818,0.14184 v 2.28492 q 0,0.14526 -0.12305,0.14526 -0.12646,0 -0.12646,-0.14697 0,0 0,-2.0149 l -0.29737,0.29737 q -0.0461,0.0461 -0.0923,0.0461 -0.12989,0 -0.12989,-0.1145 0,-0.0581 0.0496,-0.10767 z m 0.92797,-0.0632 q 0,0 0.53492,0 0.23242,0 0.41699,0.19995 0.1709,0.18457 0.1709,0.43237 0,0.31104 -0.2666,0.5315 0.25976,0.18799 0.25976,0.46313 0,0 0,0.37598 0,0.22046 -0.1897,0.41016 -0.16748,0.16748 -0.4375,0.16748 0,0 -0.50927,0 -0.14527,0 -0.14527,-0.12647 0,-0.1145 0.15381,-0.1145 0,0 0.45117,0 0.20679,0 0.32642,-0.12305 0.11108,-0.1145 0.11108,-0.29907 v -0.22217 q 0,-0.17431 -0.10254,-0.28198 -0.12475,-0.13159 -0.2666,-0.13159 h -0.25976 q -0.14185,0 -0.14185,-0.12818 0,-0.11279 0.14356,-0.11279 h 0.23071 q 0.16064,0 0.27515,-0.11621 0.12133,-0.12305 0.12133,-0.28027 0,-0.16065 -0.0974,-0.25977 -0.1333,-0.13501 -0.27344,-0.13501 H 619.594 q -0.15893,0 -0.15893,-0.12817 0,-0.12134 0.15893,-0.12134 z" />
    </g>
  </g>
  <g
     id="Trimming marks"
     style="fill:#000000;stroke:none">
    <path
       id="Top left"
       d="m 0,0 h 10 v 5 h -5 v 5 h -5 z" />
    <path
       id="Top right"
       d="m 1189,0 h -10 v 5 h 5 v 5 h 5 z" />
    <path
       id="Bottom right"
       d="m 1189,841 h -10 v -5 h 5 v -5 h 5 z" />
    <path
       id="Bottom left"
       d="m 0,841 h 10 v -5 h -5 v -5 h -5 z" />
  </g>
  <!-- Title block -->
  <g
     id="Borders"
     style="fill:none;stroke:#000000;stroke-width:0.35;stroke-linecap:round;stroke-linejoin:round">
    <rect
       id="Frame"
       x="999"
       y="795"
       width="180"
       height="36"
       style="stroke-width:0.7" />
    <rect
       id="Owner border"
       x="1139"
       y="795"
       width="40"
       height="24" />
    <rect
       id="Identification number border"
       x="999"
       y="819"
       width="80"
       height="12" />
    <rect
       id="Revision index border"
       x="1139"
       y="819"
       width="20"
       height="12" />
    <rect
       id="Date of issue border"
       x="1099"
       y="819"
       width="40"
       height="12" />
    <rect
       id="Sheet number border"
       x="1159"
       y="819"
       width="20"
       height="12" />
    <rect
       id="Title border"
       x="999"
       y="795"
       width="80"
       height="12" />
    <rect
       id="Approval person border"
       x="1079"
       y="807"
       width="60"
       height="12" />
    <rect
       id="Creator border"
       x="1079"
       y="795"
       width="60"
       height="12" />
    <rect
       id="Document type border"
       x="999"
       y="807"
       width="80"
       height="12" />
    <rect
       id="Paper size border"
       x="1079"
       y="819"
       width="20"
       height="12" />
  </g>
  <g
     id="Labels"
     style="font-size:3.5px;font-family:osifont;text-anchor:start;fill:#000000;stroke:none">
    <text
       id="Owner label"
       x="1139.5"
       y="798.6">Propietari legal:</text>
    <text
       id="Identification number label"
       x="999.5"
       y="822.6">Nmero de dibuix:</text>
    <text
       id="Revision index label"
       x="1139.5"
       y="822.6">Revisi:</text>
    <text
       id="Date of issue label"
       x="1099.5"
       y="822.6">Data:</text>
    <text
       id="Sheet number label"
       x="1159.5"
       y="822.6">Pgina:</text>
    <text
       id="Title label"
       x="999.5"
       y="798.6">Title:</text>
    <text
       id="Approval person label"
       x="1079.5"
       y="810.6">Aprovat:</text>
    <text
       id="Creator label"
       x="1079.5"
       y="798.6">Creat:</text>
    <text
       id="Document type label"
       x="999.5"
       y="810.6">Tipus de document:</text>
    <text
       id="Paper size label"
       x="1079.5"
       y="822.6">Format:</text>
    <text
       x="1119.5"
       id="Sheet scale label"
       y="786.6">Escala:</text>
    <text
       x="1079.5"
       id="General tolerances label"
       y="786.6">Tolerncies generals:</text>
    <text
       x="999.5"
       id="Part material label"
       y="786.6">Part Material:</text>
  </g>
  <g
     id="Data fields"
     style="font-size:5px;font-family:osifont;text-anchor:start;fill:#000000;stroke:none">
    <text
       id="Identification number data field"
       x="1000"
       y="828.2"
       freecad:editable="drawing_number"><tspan
         id="tspan1">ND</tspan></text>
    <text
       id="Revision index data field"
       x="1149"
       y="828.2"
       style="text-align:center;text-anchor:middle"
       freecad:editable="revision_index"><tspan
         id="tspan2">AAA</tspan></text>
    <text
       id="Date of issue data field"
       x="1100"
       y="828.2"
       freecad:editable="issue_date"
       freecad:autofill="date"><tspan
         id="tspan3">DD/MM/AAAA</tspan></text>
    <text
       id="Sheet number data field"
       x="1169"
       y="828.2"
       style="text-align:center;text-anchor:middle"
       freecad:editable="sheet_number"
       freecad:autofill="sheet"><tspan
         id="tspan4">X / Y</tspan></text>
    <text
       id="Title data field"
       x="1000"
       y="804.2"
       freecad:editable="title"
       freecad:autofill="title"><tspan
         id="tspan5">Ttol del dibuix</tspan></text>
    <text
       id="Approval person data field"
       x="1080"
       y="816.2"
       freecad:editable="approved_by"><tspan
         id="tspan6">Vctor Sauler Roure</tspan></text>
    <text
       id="Creator data field"
       x="1080.2"
       y="804.2"
       freecad:editable="created_by"
       freecad:autofill="author"><tspan
         id="tspan7">Nria Sauler Roure</tspan></text>
    <text
       id="Document type data field"
       x="1000"
       y="816.2"
       freecad:editable="document_type"><tspan
         id="tspan8">Plnol de conjunt</tspan></text>
    <text
       id="Paper size data field"
       x="1089"
       y="828.2"
       style="text-align:center;text-anchor:middle">A0</text>
    <text
       x="1129"
       id="Sheet scale data field"
       y="792.2"
       style="text-align:center;text-anchor:middle"
       freecad:editable="scale"
       freecad:autofill="scale"><tspan
         id="tspan9">1 : 1</tspan></text>
    <text
       x="1080"
       id="General tolerances data field"
       y="792.2"
       freecad:editable="general_tolerances"><tspan
         id="tspan10">ISO 2768-m</tspan></text>
    <text
       x="1000"
       id="Part material data field"
       y="792.2"
       freecad:editable="general_notes"><tspan
         id="tspan11">Acer inoxidable EN 1.4301</tspan></text>
  </g>
  <g
     id="Outlines"
     style="fill:none;stroke:#000000;stroke-width:0.5;stroke-linecap:round;stroke-linejoin:round">
    <path
       id="Trapezoid"
       d="m 1158,778 -10,2.5 v 5 l 10,2.5 z" />
    <circle
       id="Inner circle"
       cx="1165"
       r="2.5"
       cy="783" />
    <circle
       id="Outer circle"
       cx="1165"
       r="5"
       cy="783" />
  </g>
  <g
     id="Centre lines"
     style="fill:none;stroke:#000000;stroke-width:0.25;stroke-linecap:round;stroke-linejoin:round;stroke-dasharray:6, 0.75, 0.125, 0.75">
    <path
       id="Horizontal"
       d="m 1147,783 h 24"
       style="stroke-dashoffset:0.25" />
    <path
       id="Vertical"
       d="m 1165,789 v -12"
       style="stroke-dashoffset:4.625" />
  </g>
</svg>
