<?xml version="1.0" encoding="UTF-8" standalone="no"?>
<svg
   width="594mm"
   height="420mm"
   viewBox="0 0 594 420"
   version="1.1"
   id="svg1"
   xmlns="http://www.w3.org/2000/svg"
   xmlns:svg="http://www.w3.org/2000/svg"
   xmlns:rdf="http://www.w3.org/1999/02/22-rdf-syntax-ns#"
   xmlns:cc="http://creativecommons.org/ns#"
   xmlns:dc="http://purl.org/dc/elements/1.1/"
   xmlns:freecad="http://www.freecad.org/wiki/index.php?title=Svg_Namespace">
  <defs
     id="defs15" />
  <title
     id="title1">Drawing sheet ISO 5457 - A2T</title>
  <metadata
     id="metadata1">
    <rdf:RDF>
      <cc:Work
         rdf:about="">
        <dc:title>Drawing sheet ISO 5457 - A2T</dc:title>
        <cc:license
           rdf:resource="http://creativecommons.org/publicdomain/zero/1.0/" />
      </cc:Work>
      <cc:License
         rdf:about="http://creativecommons.org/publicdomain/zero/1.0/">
        <cc:permits
           rdf:resource="http://creativecommons.org/ns#Reproduction" />
        <cc:permits
           rdf:resource="http://creativecommons.org/ns#Distribution" />
        <cc:permits
           rdf:resource="http://creativecommons.org/ns#DerivativeWorks" />
      </cc:License>
    </rdf:RDF>
  </metadata>
  <rect
     id="Drawing space frame"
     x="20"
     y="10"
     width="564"
     height="400"
     style="fill:none;stroke:#000000;stroke-width:0.7;stroke-linecap:round;stroke-linejoin:round" />
  <g
     id="Centring marks"
     style="fill:none;stroke:#000000;stroke-width:0.7;stroke-linecap:round">
    <path
       id="Top"
       d="m 297,5 v 10" />
    <path
       id="Right"
       d="m 589,210 h -10" />
    <path
       id="Bottom"
       d="m 297,415 v -10" />
    <path
       id="Left"
       d="m 15,210 h 10" />
  </g>
  <g
     id="Grid reference system">
    <g
       id="Grid reference borders"
       style="fill:none;stroke:#000000;stroke-width:0.35;stroke-linecap:round;stroke-linejoin:round">
      <rect
         id="Grid reference border"
         x="15"
         y="5"
         width="574"
         height="410" />
      <path
         id="path14"
         d="m 347,5 v 5" />
      <path
         id="path15"
         d="m 397,5 v 5" />
      <path
         id="path16"
         d="m 447,5 v 5" />
      <path
         id="path17"
         d="m 497,5 v 5" />
      <path
         id="path18"
         d="m 547,5 v 5" />
      <path
         id="path19"
         d="m 247,5 v 5" />
      <path
         id="path20"
         d="m 197,5 v 5" />
      <path
         id="path21"
         d="m 147,5 v 5" />
      <path
         id="path22"
         d="m 97,5 v 5" />
      <path
         id="path23"
         d="m 47,5 v 5" />
      <path
         id="path25"
         d="m 15,160 h 5" />
      <path
         id="path26"
         d="m 15,110 h 5" />
      <path
         id="path27"
         d="m 15,60 h 5" />
      <path
         id="path28"
         d="m 15,260 h 5" />
      <path
         id="path29"
         d="m 15,310 h 5" />
      <path
         id="path30"
         d="m 15,360 h 5" />
      <path
         id="path33"
         d="m 584,160 h 5" />
      <path
         id="path35"
         d="m 584,110 h 5" />
      <path
         id="path37"
         d="m 584,60 h 5" />
      <path
         id="path39"
         d="m 584,260 h 5" />
      <path
         id="path41"
         d="m 584,310 h 5" />
      <path
         id="path43"
         d="m 584,360 h 5" />
      <path
         id="path47"
         d="m 247,410 v 5" />
      <path
         id="path49"
         d="m 197,410 v 5" />
      <path
         id="path51"
         d="m 147,410 v 5" />
      <path
         id="path53"
         d="m 97,410 v 5" />
      <path
         id="path55"
         d="m 47,410 v 5" />
      <path
         id="path58"
         d="m 347,410 v 5" />
      <path
         id="path60"
         d="m 397,410 v 5" />
      <path
         id="path62"
         d="m 447,410 v 5" />
      <path
         id="path64"
         d="m 497,410 v 5" />
      <path
         id="path67"
         d="m 547,410 v 5" />
    </g>
    <g
       id="Grid reference markers"
       style="fill:#000000;stroke:none">
      <path
         id="text14"
         aria-label="7"
         d="m 322.47083,6.2071648 q 0.14355,0 0.14355,0.1196289 0,0.037598 -0.0359,0.1999511 0,0 -0.47339,2.1413575 -0.0256,0.1196289 -0.11792,0.1196289 -0.13159,0 -0.13159,-0.112793 0,-0.023926 0.005,-0.047852 l 0.48193,-2.1687011 h -0.76562 q 0,0 0,0.1281738 0,0.1213379 -0.12476,0.1213379 -0.11792,0 -0.11792,-0.1264649 0,0 0,-0.2597656 0,-0.1145019 0.13672,-0.1145019 z" />
      <path
         id="text15"
         aria-label="8"
         d="m 371.99487,7.488903 q -0.1521,0 -0.26831,0.109375 -0.12646,0.119629 -0.12646,0.2734375 v 0.3110352 q 0,0.1264648 0.14868,0.2666016 0.0889,0.08374 0.2478,0.08374 0.13843,0 0.27515,-0.111084 0.12134,-0.099121 0.12134,-0.2802734 V 7.8870964 q 0,-0.1452637 -0.12305,-0.2854004 -0.0991,-0.112793 -0.27515,-0.112793 z m -0.26831,-0.9348144 q -0.12475,0.1298828 -0.12475,0.2751465 0,0.1367187 0.0872,0.2631836 0.0991,0.1435547 0.3025,0.1435547 0.19653,0 0.30249,-0.1196289 0.10424,-0.1230469 0.10424,-0.2751465 0,-0.1572266 -0.13501,-0.2802735 -0.11963,-0.107666 -0.27514,-0.107666 -0.16407,0 -0.26148,0.1008301 z m -0.1145,0.8066406 Q 371.354,7.160778 371.354,6.8053093 q 0,-0.2836914 0.23072,-0.4580078 0.19653,-0.1486817 0.4187,-0.1486817 0.18457,0 0.31787,0.082031 0.32129,0.1982422 0.32129,0.5605469 0,0.3383789 -0.25806,0.5246582 0.26148,0.2084961 0.26148,0.5109863 v 0.2922363 q 0,0.2478028 -0.22046,0.4545899 -0.16748,0.1572265 -0.417,0.1572265 -0.28369,0 -0.43066,-0.1452636 Q 371.354,8.4151726 371.354,8.1793327 V 7.8631706 q 0,-0.2785644 0.25806,-0.5024414 z" />
      <path
         id="text16"
         aria-label="9"
         d="m 421.59839,8.6612663 q 0,-0.087158 0.12134,-0.1264648 0.16919,-0.054687 0.29394,-0.1572266 0.30078,-0.2512207 0.35034,-0.6254883 h -0.41528 q -0.21704,0 -0.39307,-0.1520996 -0.21362,-0.1879883 -0.21362,-0.435791 0,0 0,-0.3605957 0,-0.2854004 0.27857,-0.4887695 0.14697,-0.107666 0.37768,-0.107666 0.24439,0 0.44434,0.1948242 0.18115,0.1760254 0.18115,0.4494629 0,0 0,0.7861328 0,0.2529297 -0.0889,0.4494629 -0.14526,0.3178711 -0.33667,0.4665527 -0.30762,0.2341309 -0.4768,0.2341309 -0.12305,0 -0.12305,-0.1264649 z m 0.77246,-1.7944336 q 0,-0.1726074 -0.10425,-0.2836914 -0.11792,-0.1247558 -0.28882,-0.1247558 -0.14868,0 -0.27002,0.104248 -0.12304,0.105957 -0.12304,0.2836914 v 0.2768555 q 0,0.1726074 0.14013,0.2888183 0.11109,0.092285 0.323,0.092285 h 0.323 z" />
      <path
         id="text17"
         aria-label="10"
         d="m 471.18823,6.2618523 q 0.0581,-0.054687 0.12134,-0.054687 0.12817,0 0.12817,0.1418457 v 2.2849121 q 0,0.1452636 -0.12304,0.1452636 -0.12647,0 -0.12647,-0.1469726 0,0 0,-2.0148926 l -0.29736,0.2973633 q -0.0461,0.046143 -0.0923,0.046143 -0.12988,0 -0.12988,-0.114502 0,-0.058105 0.0496,-0.107666 z m 1.4065,0.1914062 q -0.11621,0 -0.16748,0.1025391 -0.1333,0.2631836 -0.19483,0.6032715 -0.029,0.1589355 -0.029,0.322998 0,0.1196289 0.0154,0.2375488 0.0496,0.3862305 0.16919,0.65625 0.0718,0.1623536 0.20508,0.1623536 0.12817,0 0.20508,-0.1469727 0.11279,-0.217041 0.16919,-0.5964356 0.0239,-0.1623535 0.0239,-0.3144531 0,-0.1520996 -0.0239,-0.2939453 -0.0615,-0.3605957 -0.20167,-0.6340332 -0.0513,-0.099121 -0.17089,-0.099121 z m 0.009,-0.2460937 q 0.23413,0 0.35718,0.1811523 0.1897,0.2785645 0.26318,0.7844238 0.0222,0.1520996 0.0222,0.3076172 0,0.1640625 -0.0239,0.326416 -0.0735,0.5024414 -0.25463,0.7861329 -0.12476,0.1948242 -0.36915,0.1948242 -0.24096,0 -0.36914,-0.2016602 -0.15722,-0.2460937 -0.25122,-0.7707519 -0.0273,-0.1520996 -0.0273,-0.3110352 0,-0.1657715 0.029,-0.3332519 0.0906,-0.5212403 0.23584,-0.7536622 0.12988,-0.210205 0.38794,-0.210205 z" />
      <path
         id="text18"
         aria-label="11"
         d="m 521.40869,6.2618523 q 0.0581,-0.054687 0.12134,-0.054687 0.12817,0 0.12817,0.1418457 v 2.2849121 q 0,0.1452636 -0.12304,0.1452636 -0.12647,0 -0.12647,-0.1469726 0,0 0,-2.0148926 l -0.29736,0.2973633 q -0.0461,0.046143 -0.0923,0.046143 -0.12988,0 -0.12988,-0.114502 0,-0.058105 0.0496,-0.107666 z m 1.19629,0 q 0.0581,-0.054687 0.12134,-0.054687 0.12817,0 0.12817,0.1418457 v 2.2849121 q 0,0.1452636 -0.12304,0.1452636 -0.12647,0 -0.12647,-0.1469726 0,0 0,-2.0148926 l -0.29736,0.2973633 q -0.0462,0.046143 -0.0923,0.046143 -0.12988,0 -0.12988,-0.114502 0,-0.058105 0.0496,-0.107666 z" />
      <path
         id="text13"
         aria-label="12"
         d="m 571.1908,6.2618523 q 0.0581,-0.054687 0.12133,-0.054687 0.12818,0 0.12818,0.1418457 v 2.2849121 q 0,0.1452636 -0.12305,0.1452636 -0.12646,0 -0.12646,-0.1469726 0,0 0,-2.0148926 l -0.29737,0.2973633 q -0.0461,0.046143 -0.0923,0.046143 -0.12989,0 -0.12989,-0.114502 0,-0.058105 0.0496,-0.107666 z m 0.8955,0.5793457 q -0.1333,0 -0.1333,-0.1196289 0,-0.037598 0.0308,-0.099121 0.10767,-0.2119141 0.24781,-0.3024903 0.17431,-0.1127929 0.36743,-0.1127929 0.32471,0 0.50928,0.2478027 0.13501,0.1811523 0.13501,0.3896484 0,0.1828614 -0.1128,0.3657227 l -0.82885,1.3381348 h 0.81005 q 0.12818,0 0.12818,0.1281738 0,0.111084 -0.14014,0.111084 h -0.99292 q -0.1521,0 -0.1521,-0.109375 0,-0.047852 0.0222,-0.08374 l 0.91943,-1.4816894 q 0.094,-0.1520996 0.094,-0.2683106 0,-0.1469726 -0.094,-0.2563476 -0.1145,-0.1333008 -0.30591,-0.1333008 -0.23754,0 -0.38452,0.2802734 -0.0564,0.1059571 -0.11963,0.1059571 z" />
      <path
         id="text19"
         aria-label="6"
         d="m 271.61975,7.2462273 q 0,0 0.37769,0 0.28711,0 0.47851,0.213623 0.16748,0.1862793 0.16748,0.3964844 0,0 0,0.3452148 0,0.220459 -0.21362,0.4272461 -0.16406,0.1589356 -0.46314,0.1589356 -0.24096,0 -0.42724,-0.1811524 -0.18286,-0.1777343 -0.18286,-0.4050293 V 7.3094597 q 0,-0.3896485 0.29907,-0.7399902 0.18286,-0.2136231 0.48535,-0.334961 0.0684,-0.027344 0.11621,-0.027344 0.12305,0 0.12305,0.1333007 0,0.078613 -0.10767,0.116211 -0.24096,0.08374 -0.37939,0.222168 -0.23584,0.2341308 -0.27344,0.5673831 z m -0.0188,0.9296875 q 0,0.1469726 0.14356,0.2785644 0.10083,0.092285 0.25805,0.092285 0.11963,0 0.28028,-0.1213379 0.11279,-0.085449 0.11279,-0.2563477 V 7.9093132 q 0,-0.1691895 -0.11621,-0.2939453 -0.11109,-0.1196289 -0.27857,-0.1196289 h -0.3999 z" />
      <path
         id="text20"
         aria-label="5"
         d="m 221.35231,6.3370476 q 0,-0.1298828 0.14868,-0.1298828 0,0 1.00488,0 0.14185,0 0.14185,0.1230468 0,0.1230469 -0.13501,0.1230469 h -0.90918 v 0.7912598 h 0.3794 q 0.32983,0 0.52978,0.2460937 0.1333,0.1640625 0.1333,0.3930664 v 0.2751465 q 0,0.2734375 -0.18628,0.4460449 -0.19653,0.1828614 -0.43408,0.1828614 h -0.5332 q -0.13159,0 -0.13159,-0.1196289 0,-0.1213379 0.14355,-0.1213379 h 0.4751 q 0.21533,0 0.32983,-0.1469727 0.0855,-0.109375 0.0855,-0.2580566 V 7.8836784 q 0,-0.1538086 -0.10083,-0.2666015 Q 222.18122,7.490612 221.9488,7.490612 h -0.47168 q -0.12476,0 -0.12476,-0.1452636 z" />
      <path
         id="text21"
         aria-label="4"
         d="m 171.78896,6.294323 q 0.0273,-0.095703 0.12646,-0.095703 0.11792,0 0.11792,0.11792 0,0.029053 -0.012,0.068359 l -0.46656,1.6269532 h 0.62378 V 7.6392937 q 0,-0.1435547 0.12476,-0.1435547 0.12134,0 0.12134,0.1538086 v 0.3640136 q 0,0 0.26318,0 0.12476,0 0.12476,0.1350098 0,0.109375 -0.12989,0.109375 h -0.25805 v 0.3862305 q 0,0.1384277 -0.12647,0.1384277 -0.11963,0 -0.11963,-0.1333008 V 8.263073 h -0.78442 q -0.12134,0 -0.12134,-0.114502 0,-0.037598 0.0239,-0.1230469 z" />
      <path
         id="text22"
         aria-label="3"
         d="m 121.49587,6.1986198 q 0,0 0.53491,0 0.23243,0 0.417,0.1999512 0.1709,0.1845703 0.1709,0.4323731 0,0.3110351 -0.26661,0.5314941 0.25977,0.1879883 0.25977,0.4631348 0,0 0,0.3759765 0,0.220459 -0.1897,0.4101563 -0.16748,0.1674804 -0.4375,0.1674804 0,0 -0.50928,0 -0.14526,0 -0.14526,-0.1264648 0,-0.1145019 0.15381,-0.1145019 0,0 0.45117,0 0.20679,0 0.32642,-0.1230469 0.11108,-0.114502 0.11108,-0.2990723 v -0.222168 q 0,-0.1743164 -0.10254,-0.2819824 -0.12475,-0.1315918 -0.2666,-0.1315918 h -0.25976 q -0.14185,0 -0.14185,-0.1281738 0,-0.112793 0.14355,-0.112793 h 0.23072 q 0.16064,0 0.27514,-0.1162109 0.12134,-0.1230469 0.12134,-0.2802734 0,-0.1606446 -0.0974,-0.2597657 -0.1333,-0.1350097 -0.27344,-0.1350097 h -0.50586 q -0.15893,0 -0.15893,-0.1281739 0,-0.1213379 0.15893,-0.1213379 z" />
      <path
         id="text23"
         aria-label="2"
         d="m 71.488182,6.841198 q -0.133301,0 -0.133301,-0.1196289 0,-0.037598 0.03076,-0.099121 0.107666,-0.2119141 0.247803,-0.3024903 0.174316,-0.1127929 0.367431,-0.1127929 0.324707,0 0.509278,0.2478027 0.135009,0.1811523 0.135009,0.3896484 0,0.1828614 -0.112792,0.3657227 l -0.828858,1.3381348 h 0.810059 q 0.128174,0 0.128174,0.1281738 0,0.111084 -0.140137,0.111084 h -0.99292 q -0.1521,0 -0.1521,-0.109375 0,-0.047852 0.02222,-0.08374 l 0.919434,-1.4816894 q 0.09399,-0.1520996 0.09399,-0.2683106 0,-0.1469726 -0.09399,-0.2563476 -0.114502,-0.1333008 -0.305909,-0.1333008 -0.237548,0 -0.384521,0.2802734 -0.0564,0.1059571 -0.119629,0.1059571 z" />
      <path
         id="text24"
         aria-label="1"
         d="m 22.006859,6.2618523 q 0.05811,-0.054687 0.121338,-0.054687 0.128174,0 0.128174,0.1418457 v 2.2849121 q 0,0.1452636 -0.123047,0.1452636 -0.126465,0 -0.126465,-0.1469726 0,0 0,-2.0148926 l -0.297363,0.2973633 q -0.04614,0.046143 -0.09229,0.046143 -0.129882,0 -0.129882,-0.114502 0,-0.058105 0.04956,-0.107666 z" />
      <path
         id="text25"
         aria-label="D"
         d="m 16.960815,186.04419 q 0,0 0.593018,0 0.229004,0 0.341797,-0.11792 0.114502,-0.11963 0.114502,-0.29224 v -1.28344 q 0,-0.1521 -0.111084,-0.27344 -0.111084,-0.12134 -0.293945,-0.12134 h -0.644288 z m -0.25122,-2.19434 q 0,-0.14013 0.141845,-0.14013 h 0.801514 q 0.23584,0 0.418701,0.18457 0.184571,0.18457 0.184571,0.4187 v 1.37915 q 0,0.23413 -0.184571,0.41699 -0.18457,0.18115 -0.394775,0.18115 h -0.852783 q -0.114502,0 -0.114502,-0.1521 z" />
      <path
         id="text26"
         aria-label="C"
         d="m 17.513672,133.70117 q 0,0 0.522949,0 0.126465,0 0.126465,0.12818 0,0.12988 -0.136719,0.12988 h -0.514404 q -0.143555,0 -0.278565,0.12475 -0.102539,0.0957 -0.102539,0.25635 v 1.30567 q 0,0.16064 0.107666,0.27685 0.112793,0.11963 0.234131,0.11963 h 0.574219 q 0.123047,0 0.123047,0.12476 0,0.11792 -0.124756,0.11792 h -0.582764 q -0.23584,0 -0.440918,-0.2273 -0.140136,-0.15552 -0.140136,-0.39819 v -1.33814 q 0,-0.25634 0.20166,-0.44604 0.18457,-0.17432 0.430664,-0.17432 z" />
      <path
         id="text27"
         aria-label="B"
         d="m 18.279297,85.50415 q 0,0.375977 -0.239258,0.581055 -0.237549,0.205078 -0.449463,0.205078 h -0.750244 q -0.119629,0 -0.119629,-0.155517 v -2.264405 q 0,-0.160644 0.158936,-0.160644 h 0.533203 q 0.324707,0 0.473388,0.129883 0.259766,0.227295 0.259766,0.516113 0,0.314453 -0.239258,0.502441 0.158936,0.09229 0.264893,0.264893 0.107666,0.172607 0.107666,0.381103 z m -1.29541,-0.492187 v 1.040771 h 0.533203 q 0.232422,0 0.372558,-0.160644 0.140137,-0.160645 0.140137,-0.355469 0,-0.194824 -0.131592,-0.360596 -0.129882,-0.164062 -0.375976,-0.164062 z m 0,-1.047608 v 0.781006 h 0.52124 q 0.196533,0 0.293945,-0.105957 0.09912,-0.107666 0.09912,-0.266601 0,-0.160645 -0.104248,-0.283692 -0.104248,-0.124756 -0.295654,-0.124756 z" />
      <path
         id="text28"
         aria-label="A"
         d="m 17.371826,33.803711 q 0.03076,-0.09399 0.119629,-0.09399 0.08545,0 0.116211,0.09399 l 0.763916,2.296875 q 0.01538,0.04614 0.01538,0.0752 0,0.10083 -0.123047,0.114502 -0.09058,0 -0.128174,-0.112793 0,0 -0.174316,-0.540039 h -0.946778 l -0.186279,0.553711 q -0.03589,0.104248 -0.116211,0.104248 -0.133301,0 -0.133301,-0.124756 0,-0.01709 0.0376,-0.128174 z m 0.112793,0.425537 -0.393066,1.167236 h 0.787842 z" />
      <path
         id="text29"
         aria-label="E"
         d="m 17.128296,236.03563 h 0.910889 q 0.126464,0 0.126464,0.12305 0,0.12304 -0.121337,0.12304 h -1.049317 q -0.112793,0 -0.112793,-0.12817 v -2.31909 q 0,-0.1333 0.1521,-0.1333 h 0.996338 q 0.138427,0 0.138427,0.12475 0,0.12305 -0.138427,0.12305 h -0.902344 v 0.79639 h 0.659668 q 0.124756,0 0.124756,0.12304 0,0.11621 -0.121338,0.11621 h -0.663086 z" />
      <path
         id="text30"
         aria-label="F"
         d="m 17.135132,284.98633 v 1.15698 q 0,0.14014 -0.128174,0.14014 -0.124756,0 -0.124756,-0.14185 0,0 0,-2.3208 0,-0.11963 0.133301,-0.11963 0,0 1.018555,0 0.135009,0 0.135009,0.12305 0,0.12305 -0.1333,0.12305 h -0.898926 v 0.78955 h 0.898926 q 0.1333,0 0.1333,0.12475 0,0.12476 -0.135009,0.12476 z" />
      <path
         id="text31"
         aria-label="G"
         d="m 18.025513,336.03564 v -1.04931 h -0.268311 q -0.121338,0 -0.121338,-0.12134 0,-0.12305 0.116211,-0.12305 h 0.408447 q 0.109375,0 0.109375,0.16236 v 1.22876 q 0,0.14868 -0.141845,0.14868 h -0.830567 q -0.186279,0 -0.379394,-0.16748 -0.193115,-0.16919 -0.193115,-0.53491 v -1.2732 q 0,-0.24096 0.194824,-0.42212 0.196533,-0.18286 0.449463,-0.18286 h 0.755371 q 0.15039,0 0.15039,0.12305 0,0.12305 -0.148681,0.12305 h -0.729737 q -0.187988,0 -0.307617,0.12304 -0.119629,0.12305 -0.119629,0.29907 v 1.23731 q 0,0.1897 0.111084,0.30933 0.111084,0.11962 0.247803,0.11962 z" />
      <path
         id="text32"
         aria-label="H"
         d="m 18.017822,384.99146 h -1.061279 v 1.16723 q 0,0.13159 -0.126465,0.13159 -0.124756,0 -0.124756,-0.12988 v -2.30542 q 0,-0.14526 0.124756,-0.14526 0.126465,0 0.126465,0.14526 v 0.89038 h 1.061279 v -0.90063 q 0,-0.12818 0.121338,-0.12818 0.121338,0 0.121338,0.12647 v 2.31054 q 0,0.13672 -0.121338,0.13672 -0.121338,0 -0.121338,-0.1333 z" />
      <path
         id="path32"
         aria-label="D"
         d="m 585.96081,186.04419 q 0,0 0.59302,0 0.22901,0 0.3418,-0.11792 0.1145,-0.11963 0.1145,-0.29224 v -1.28344 q 0,-0.1521 -0.11108,-0.27344 -0.11109,-0.12134 -0.29395,-0.12134 h -0.64429 z m -0.25122,-2.19434 q 0,-0.14013 0.14185,-0.14013 h 0.80151 q 0.23584,0 0.4187,0.18457 0.18457,0.18457 0.18457,0.4187 v 1.37915 q 0,0.23413 -0.18457,0.41699 -0.18457,0.18115 -0.39477,0.18115 h -0.85278 q -0.11451,0 -0.11451,-0.1521 z" />
      <path
         id="path34"
         aria-label="C"
         d="m 586.51367,133.70117 q 0,0 0.52295,0 0.12646,0 0.12646,0.12818 0,0.12988 -0.13671,0.12988 h -0.51441 q -0.14355,0 -0.27856,0.12475 -0.10254,0.0957 -0.10254,0.25635 v 1.30567 q 0,0.16064 0.10766,0.27685 0.1128,0.11963 0.23413,0.11963 h 0.57422 q 0.12305,0 0.12305,0.12476 0,0.11792 -0.12476,0.11792 h -0.58276 q -0.23584,0 -0.44092,-0.2273 -0.14013,-0.15552 -0.14013,-0.39819 v -1.33814 q 0,-0.25634 0.20166,-0.44604 0.18457,-0.17432 0.43066,-0.17432 z" />
      <path
         id="path36"
         aria-label="B"
         d="m 587.2793,85.50415 q 0,0.375977 -0.23926,0.581055 -0.23755,0.205078 -0.44947,0.205078 h -0.75024 q -0.11963,0 -0.11963,-0.155517 v -2.264405 q 0,-0.160644 0.15894,-0.160644 h 0.5332 q 0.32471,0 0.47339,0.129883 0.25976,0.227295 0.25976,0.516113 0,0.314453 -0.23925,0.502441 0.15893,0.09229 0.26489,0.264893 0.10767,0.172607 0.10767,0.381103 z m -1.29541,-0.492187 v 1.040771 h 0.5332 q 0.23242,0 0.37256,-0.160644 0.14013,-0.160645 0.14013,-0.355469 0,-0.194824 -0.13159,-0.360596 -0.12988,-0.164062 -0.37597,-0.164062 z m 0,-1.047608 v 0.781006 h 0.52124 q 0.19653,0 0.29394,-0.105957 0.0991,-0.107666 0.0991,-0.266601 0,-0.160645 -0.10425,-0.283692 -0.10425,-0.124756 -0.29565,-0.124756 z" />
      <path
         id="path38"
         aria-label="A"
         d="m 586.37182,33.803711 q 0.0308,-0.09399 0.11963,-0.09399 0.0854,0 0.11621,0.09399 l 0.76392,2.296875 q 0.0154,0.04614 0.0154,0.0752 0,0.10083 -0.12305,0.114502 -0.0906,0 -0.12817,-0.112793 0,0 -0.17432,-0.540039 h -0.94677 l -0.18628,0.553711 q -0.0359,0.104248 -0.11621,0.104248 -0.13331,0 -0.13331,-0.124756 0,-0.01709 0.0376,-0.128174 z m 0.1128,0.425537 -0.39307,1.167236 h 0.78784 z" />
      <path
         id="path40"
         aria-label="E"
         d="m 586.12829,236.03563 h 0.91089 q 0.12647,0 0.12647,0.12305 0,0.12304 -0.12134,0.12304 h -1.04932 q -0.11279,0 -0.11279,-0.12817 v -2.31909 q 0,-0.1333 0.1521,-0.1333 h 0.99634 q 0.13843,0 0.13843,0.12475 0,0.12305 -0.13843,0.12305 h -0.90235 v 0.79639 h 0.65967 q 0.12476,0 0.12476,0.12304 0,0.11621 -0.12134,0.11621 h -0.66309 z" />
      <path
         id="path42"
         aria-label="F"
         d="m 586.13513,284.98633 v 1.15698 q 0,0.14014 -0.12817,0.14014 -0.12476,0 -0.12476,-0.14185 0,0 0,-2.3208 0,-0.11963 0.1333,-0.11963 0,0 1.01856,0 0.13501,0 0.13501,0.12305 0,0.12305 -0.1333,0.12305 h -0.89893 v 0.78955 h 0.89893 q 0.1333,0 0.1333,0.12475 0,0.12476 -0.13501,0.12476 z" />
      <path
         id="path44"
         aria-label="G"
         d="m 587.02551,336.03564 v -1.04931 h -0.26831 q -0.12134,0 -0.12134,-0.12134 0,-0.12305 0.11621,-0.12305 h 0.40845 q 0.10938,0 0.10938,0.16236 v 1.22876 q 0,0.14868 -0.14185,0.14868 h -0.83057 q -0.18628,0 -0.37939,-0.16748 -0.19312,-0.16919 -0.19312,-0.53491 v -1.2732 q 0,-0.24096 0.19483,-0.42212 0.19653,-0.18286 0.44946,-0.18286 h 0.75537 q 0.15039,0 0.15039,0.12305 0,0.12305 -0.14868,0.12305 h -0.72974 q -0.18798,0 -0.30761,0.12304 -0.11963,0.12305 -0.11963,0.29907 v 1.23731 q 0,0.1897 0.11108,0.30933 0.11109,0.11962 0.24781,0.11962 z" />
      <path
         id="path45"
         aria-label="H"
         d="m 587.01782,384.99146 h -1.06128 v 1.16723 q 0,0.13159 -0.12646,0.13159 -0.12476,0 -0.12476,-0.12988 v -2.30542 q 0,-0.14526 0.12476,-0.14526 0.12646,0 0.12646,0.14526 v 0.89038 h 1.06128 v -0.90063 q 0,-0.12818 0.12134,-0.12818 0.12134,0 0.12134,0.12647 v 2.31054 q 0,0.13672 -0.12134,0.13672 -0.12134,0 -0.12134,-0.1333 z" />
      <path
         id="path46"
         aria-label="6"
         d="m 271.61975,412.24619 q 0,0 0.37769,0 0.28711,0 0.47851,0.21363 0.16748,0.18628 0.16748,0.39648 0,0 0,0.34522 0,0.22046 -0.21362,0.42724 -0.16406,0.15894 -0.46314,0.15894 -0.24096,0 -0.42724,-0.18115 -0.18286,-0.17774 -0.18286,-0.40503 v -0.89209 q 0,-0.38965 0.29907,-0.73999 0.18286,-0.21363 0.48535,-0.33496 0.0684,-0.0273 0.11621,-0.0273 0.12305,0 0.12305,0.1333 0,0.0786 -0.10767,0.11621 -0.24096,0.0837 -0.37939,0.22217 -0.23584,0.23413 -0.27344,0.56738 z m -0.0188,0.92969 q 0,0.14697 0.14356,0.27857 0.10083,0.0923 0.25805,0.0923 0.11963,0 0.28028,-0.12134 0.11279,-0.0855 0.11279,-0.25634 v -0.25977 q 0,-0.16919 -0.11621,-0.29394 -0.11109,-0.11963 -0.27857,-0.11963 h -0.3999 z" />
      <path
         id="path48"
         aria-label="5"
         d="m 221.35231,411.33701 q 0,-0.12988 0.14868,-0.12988 0,0 1.00488,0 0.14185,0 0.14185,0.12305 0,0.12305 -0.13501,0.12305 h -0.90918 v 0.79126 h 0.3794 q 0.32983,0 0.52978,0.24609 0.1333,0.16406 0.1333,0.39307 v 0.27514 q 0,0.27344 -0.18628,0.44605 -0.19653,0.18286 -0.43408,0.18286 h -0.5332 q -0.13159,0 -0.13159,-0.11963 0,-0.12134 0.14355,-0.12134 h 0.4751 q 0.21533,0 0.32983,-0.14697 0.0855,-0.10938 0.0855,-0.25806 v -0.25805 q 0,-0.15381 -0.10083,-0.26661 -0.11279,-0.12646 -0.34521,-0.12646 h -0.47168 q -0.12476,0 -0.12476,-0.14526 z" />
      <path
         id="path50"
         aria-label="4"
         d="m 171.78896,411.29429 q 0.0273,-0.0957 0.12646,-0.0957 0.11792,0 0.11792,0.11792 0,0.029 -0.012,0.0684 l -0.46656,1.62695 h 0.62378 v -0.37256 q 0,-0.14355 0.12476,-0.14355 0.12134,0 0.12134,0.1538 v 0.36402 q 0,0 0.26318,0 0.12476,0 0.12476,0.13501 0,0.10937 -0.12989,0.10937 h -0.25805 v 0.38623 q 0,0.13843 -0.12647,0.13843 -0.11963,0 -0.11963,-0.1333 v -0.38623 h -0.78442 q -0.12134,0 -0.12134,-0.1145 0,-0.0376 0.0239,-0.12305 z" />
      <path
         id="path52"
         aria-label="3"
         d="m 121.49587,411.19859 q 0,0 0.53491,0 0.23243,0 0.417,0.19995 0.1709,0.18457 0.1709,0.43237 0,0.31104 -0.26661,0.5315 0.25977,0.18798 0.25977,0.46313 0,0 0,0.37598 0,0.22046 -0.1897,0.41015 -0.16748,0.16748 -0.4375,0.16748 0,0 -0.50928,0 -0.14526,0 -0.14526,-0.12646 0,-0.1145 0.15381,-0.1145 0,0 0.45117,0 0.20679,0 0.32642,-0.12305 0.11108,-0.1145 0.11108,-0.29907 v -0.22217 q 0,-0.17432 -0.10254,-0.28198 -0.12475,-0.13159 -0.2666,-0.13159 h -0.25976 q -0.14185,0 -0.14185,-0.12818 0,-0.11279 0.14355,-0.11279 h 0.23072 q 0.16064,0 0.27514,-0.11621 0.12134,-0.12305 0.12134,-0.28028 0,-0.16064 -0.0974,-0.25976 -0.1333,-0.13501 -0.27344,-0.13501 h -0.50586 q -0.15893,0 -0.15893,-0.12818 0,-0.12133 0.15893,-0.12133 z" />
      <path
         id="path54"
         aria-label="2"
         d="m 71.488182,411.84117 q -0.133301,0 -0.133301,-0.11963 0,-0.0376 0.03076,-0.0991 0.107666,-0.21192 0.247803,-0.3025 0.174316,-0.11279 0.367431,-0.11279 0.324707,0 0.509278,0.2478 0.135009,0.18116 0.135009,0.38965 0,0.18286 -0.112792,0.36573 l -0.828858,1.33813 h 0.810059 q 0.128174,0 0.128174,0.12817 0,0.11109 -0.140137,0.11109 h -0.99292 q -0.1521,0 -0.1521,-0.10938 0,-0.0478 0.02222,-0.0837 l 0.919434,-1.48169 q 0.09399,-0.1521 0.09399,-0.26831 0,-0.14697 -0.09399,-0.25634 -0.114502,-0.1333 -0.305909,-0.1333 -0.237548,0 -0.384521,0.28027 -0.0564,0.10596 -0.119629,0.10596 z" />
      <path
         id="path56"
         aria-label="1"
         d="m 22.006859,411.26182 q 0.05811,-0.0547 0.121338,-0.0547 0.128174,0 0.128174,0.14185 v 2.28491 q 0,0.14526 -0.123047,0.14526 -0.126465,0 -0.126465,-0.14697 0,0 0,-2.01489 l -0.297363,0.29736 q -0.04614,0.0461 -0.09229,0.0461 -0.129882,0 -0.129882,-0.1145 0,-0.0581 0.04956,-0.10766 z" />
      <path
         id="path57"
         aria-label="7"
         d="m 322.47083,411.20716 q 0.14355,0 0.14355,0.11963 0,0.0376 -0.0359,0.19995 0,0 -0.47339,2.14136 -0.0256,0.11962 -0.11792,0.11962 -0.13159,0 -0.13159,-0.11279 0,-0.0239 0.005,-0.0478 l 0.48193,-2.1687 h -0.76562 q 0,0 0,0.12817 0,0.12134 -0.12476,0.12134 -0.11792,0 -0.11792,-0.12647 0,0 0,-0.25976 0,-0.1145 0.13672,-0.1145 z" />
      <path
         id="path59"
         aria-label="8"
         d="m 371.99487,412.4889 q -0.1521,0 -0.26831,0.10937 -0.12646,0.11963 -0.12646,0.27344 v 0.31103 q 0,0.12647 0.14868,0.26661 0.0889,0.0837 0.2478,0.0837 0.13843,0 0.27515,-0.11109 0.12134,-0.0991 0.12134,-0.28027 v -0.25464 q 0,-0.14526 -0.12305,-0.2854 -0.0991,-0.11279 -0.27515,-0.11279 z m -0.26831,-0.93482 q -0.12475,0.12988 -0.12475,0.27515 0,0.13672 0.0872,0.26318 0.0991,0.14356 0.3025,0.14356 0.19653,0 0.30249,-0.11963 0.10424,-0.12305 0.10424,-0.27515 0,-0.15723 -0.13501,-0.28027 -0.11963,-0.10767 -0.27514,-0.10767 -0.16407,0 -0.26148,0.10083 z m -0.1145,0.80664 q -0.25806,-0.19995 -0.25806,-0.55542 0,-0.28369 0.23072,-0.45801 0.19653,-0.14868 0.4187,-0.14868 0.18457,0 0.31787,0.082 0.32129,0.19825 0.32129,0.56055 0,0.33838 -0.25806,0.52466 0.26148,0.20849 0.26148,0.51099 v 0.29223 q 0,0.2478 -0.22046,0.45459 -0.16748,0.15723 -0.417,0.15723 -0.28369,0 -0.43066,-0.14527 -0.22388,-0.22045 -0.22388,-0.45629 v -0.31617 q 0,-0.27856 0.25806,-0.50244 z" />
      <path
         id="path61"
         aria-label="9"
         d="m 421.59839,413.66126 q 0,-0.0872 0.12134,-0.12647 0.16919,-0.0547 0.29394,-0.15722 0.30078,-0.25122 0.35034,-0.62549 h -0.41528 q -0.21704,0 -0.39307,-0.1521 -0.21362,-0.18799 -0.21362,-0.43579 0,0 0,-0.3606 0,-0.2854 0.27857,-0.48877 0.14697,-0.10766 0.37768,-0.10766 0.24439,0 0.44434,0.19482 0.18115,0.17603 0.18115,0.44946 0,0 0,0.78614 0,0.25293 -0.0889,0.44946 -0.14526,0.31787 -0.33667,0.46655 -0.30762,0.23413 -0.4768,0.23413 -0.12305,0 -0.12305,-0.12646 z m 0.77246,-1.79443 q 0,-0.17261 -0.10425,-0.2837 -0.11792,-0.12475 -0.28882,-0.12475 -0.14868,0 -0.27002,0.10425 -0.12304,0.10595 -0.12304,0.28369 v 0.27685 q 0,0.17261 0.14013,0.28882 0.11109,0.0923 0.323,0.0923 h 0.323 z" />
      <path
         id="path63"
         aria-label="10"
         d="m 471.18823,411.26185 q 0.0581,-0.0547 0.12134,-0.0547 0.12817,0 0.12817,0.14184 v 2.28492 q 0,0.14526 -0.12304,0.14526 -0.12647,0 -0.12647,-0.14697 0,0 0,-2.0149 l -0.29736,0.29737 q -0.0461,0.0461 -0.0923,0.0461 -0.12988,0 -0.12988,-0.1145 0,-0.0581 0.0496,-0.10767 z m 1.4065,0.1914 q -0.11621,0 -0.16748,0.10254 -0.1333,0.26318 -0.19483,0.60327 -0.029,0.15894 -0.029,0.323 0,0.11963 0.0154,0.23755 0.0496,0.38623 0.16919,0.65625 0.0718,0.16235 0.20508,0.16235 0.12817,0 0.20508,-0.14697 0.11279,-0.21704 0.16919,-0.59644 0.0239,-0.16235 0.0239,-0.31445 0,-0.1521 -0.0239,-0.29394 -0.0615,-0.3606 -0.20167,-0.63404 -0.0513,-0.0991 -0.17089,-0.0991 z m 0.009,-0.24609 q 0.23413,0 0.35718,0.18115 0.1897,0.27856 0.26318,0.78442 0.0222,0.1521 0.0222,0.30762 0,0.16406 -0.0239,0.32642 -0.0735,0.50244 -0.25463,0.78613 -0.12476,0.19482 -0.36915,0.19482 -0.24096,0 -0.36914,-0.20166 -0.15722,-0.24609 -0.25122,-0.77075 -0.0273,-0.1521 -0.0273,-0.31103 0,-0.16577 0.029,-0.33326 0.0906,-0.52124 0.23584,-0.75366 0.12988,-0.2102 0.38794,-0.2102 z" />
      <path
         id="path65"
         aria-label="11"
         d="m 521.40869,411.26185 q 0.0581,-0.0547 0.12134,-0.0547 0.12817,0 0.12817,0.14184 v 2.28492 q 0,0.14526 -0.12304,0.14526 -0.12647,0 -0.12647,-0.14697 0,0 0,-2.0149 l -0.29736,0.29737 q -0.0461,0.0461 -0.0923,0.0461 -0.12988,0 -0.12988,-0.1145 0,-0.0581 0.0496,-0.10767 z m 1.19629,0 q 0.0581,-0.0547 0.12134,-0.0547 0.12817,0 0.12817,0.14184 v 2.28492 q 0,0.14526 -0.12304,0.14526 -0.12647,0 -0.12647,-0.14697 0,0 0,-2.0149 l -0.29736,0.29737 q -0.0462,0.0461 -0.0923,0.0461 -0.12988,0 -0.12988,-0.1145 0,-0.0581 0.0496,-0.10767 z" />
      <path
         id="path66"
         aria-label="12"
         d="m 571.1908,411.26185 q 0.0581,-0.0547 0.12133,-0.0547 0.12818,0 0.12818,0.14184 v 2.28492 q 0,0.14526 -0.12305,0.14526 -0.12646,0 -0.12646,-0.14697 0,0 0,-2.0149 l -0.29737,0.29737 q -0.0461,0.0461 -0.0923,0.0461 -0.12989,0 -0.12989,-0.1145 0,-0.0581 0.0496,-0.10767 z m 0.8955,0.57934 q -0.1333,0 -0.1333,-0.11963 0,-0.0376 0.0308,-0.0991 0.10767,-0.21191 0.24781,-0.30249 0.17431,-0.11279 0.36743,-0.11279 0.32471,0 0.50928,0.2478 0.13501,0.18115 0.13501,0.38965 0,0.18286 -0.1128,0.36572 l -0.82885,1.33814 h 0.81005 q 0.12818,0 0.12818,0.12817 0,0.11108 -0.14014,0.11108 h -0.99292 q -0.1521,0 -0.1521,-0.10937 0,-0.0478 0.0222,-0.0837 l 0.91943,-1.48169 q 0.094,-0.1521 0.094,-0.26831 0,-0.14697 -0.094,-0.25635 -0.1145,-0.1333 -0.30591,-0.1333 -0.23754,0 -0.38452,0.28027 -0.0564,0.10596 -0.11963,0.10596 z" />
    </g>
  </g>
  <g
     id="Trimming marks"
     style="fill:#000000;stroke:none">
    <path
       id="Top left"
       d="m 0,0 h 10 v 5 h -5 v 5 h -5 z" />
    <path
       id="Top right"
       d="m 594,0 h -10 v 5 h 5 v 5 h 5 z" />
    <path
       id="Bottom right"
       d="m 594,420 h -10 v -5 h 5 v -5 h 5 z" />
    <path
       id="Bottom left"
       d="m 0,420 h 10 v -5 h -5 v -5 h -5 z" />
  </g>
  <g
     id="Title block">
    <g
       id="Borders"
       style="fill:none;stroke:#000000;stroke-width:0.35;stroke-linecap:round;stroke-linejoin:round">
      <rect
         id="Frame"
         x="404"
         y="362"
         width="180"
         height="48"
         style="stroke-width:0.7" />
      <rect
         id="Owner border"
         x="544"
         y="362"
         width="40"
         height="24" />
      <rect
         id="Identification number border"
         x="484"
         y="386"
         width="60"
         height="12" />
      <rect
         id="Revision index border"
         x="544"
         y="398"
         width="20"
         height="12" />
      <rect
         id="Date of issue border"
         x="504"
         y="398"
         width="40"
         height="12" />
      <rect
         id="Sheet number border"
         x="564"
         y="398"
         width="20"
         height="12" />
      <rect
         id="Title border"
         x="404"
         y="362"
         width="80"
         height="24" />
      <rect
         id="Responsible department border"
         x="544"
         y="386"
         width="40"
         height="12" />
      <rect
         id="Approval person border"
         x="484"
         y="374"
         width="60"
         height="12" />
      <rect
         id="Document type border"
         x="404"
         y="386"
         width="80"
         height="12" />
      <rect
         id="Creator border"
         x="484"
         y="362"
         width="60"
         height="12" />
      <rect
         id="Document status border"
         x="404"
         y="398"
         width="80"
         height="12" />
      <rect
         id="Paper size border"
         x="484"
         y="398"
         width="20"
         height="12" />
    </g>
    <g
       id="Labels"
       style="font-size:3.5px;font-family:osifont;text-anchor:start;fill:#000000;stroke:none">
      <text
         id="Owner label"
         x="544.5"
         y="365.6">Propietari legal:</text>
      <text
         id="Identification number label"
         x="484.5"
         y="389.6">Número de dibuix:</text>
      <text
         id="Revision index label"
         x="544.5"
         y="401.6">Revisió:</text>
      <text
         id="Date of issue label"
         x="504.5"
         y="401.6">Data:</text>
      <text
         id="Sheet number label"
         x="564.5"
         y="401.6">Pàgina:</text>
      <text
         id="Title label"
         x="404.5"
         y="365.6">Títol, títol suplementari:</text>
      <text
         id="Responsible department label"
         x="544.5"
         y="389.6">Departament:</text>
      <text
         id="Approval person label"
         x="484.5"
         y="377.6">Aprovat:</text>
      <text
         id="Document type label"
         x="404.5"
         y="389.6">Tipus de document:</text>
      <text
         id="Creator label"
         x="484.5"
         y="365.6">Creat:</text>
      <text
         id="Document status label"
         x="404.5"
         y="401.6">Estat del document</text>
      <text
         id="Paper size label"
         x="484.5"
         y="401.6">Format:</text>
      <text
         id="Sheet scale label"
         x="524.5"
         y="353.6">Escala:</text>
      <text
         id="General tolerances label"
         x="484.5"
         y="353.6">Toleràncies generals:</text>
      <text
         id="Part material label"
         x="404.5"
         y="353.6">Material:</text>
    </g>
    <g
       id="Data fields"
       style="font-size:5px;font-family:osifont;text-anchor:start;fill:#000000;stroke:none">
      <text
         id="Identification number data field"
         x="485"
         y="395.2"
         freecad:editable="drawing_number"><tspan
           id="tspan1">ND</tspan></text>
      <text
         id="Revision index data field"
         x="554"
         y="407.2"
         style="text-align:center;text-anchor:middle"
         freecad:editable="revision_index"><tspan
           id="tspan2">AAA</tspan></text>
      <text
         id="Date of issue data field"
         x="505"
         y="407.2"
         freecad:editable="issue_date"
         freecad:autofill="date"><tspan
           id="tspan3">DD/MM/AAAA</tspan></text>
      <text
         id="Sheet number data field"
         x="574"
         y="407.2"
         style="text-align:center;text-anchor:middle"
         freecad:editable="sheet_number"
         freecad:autofill="sheet"><tspan
           id="tspan4">X / Y</tspan></text>
      <text
         id="Title data field"
         x="405"
         y="371.2"
         freecad:editable="title"
         freecad:autofill="title"><tspan
           id="tspan5">Títol del dibuix</tspan></text>
      <text
         id="Supplementary title 1 data field"
         x="405"
         y="377.2"
         freecad:editable="supplementary_title_1"><tspan
           id="tspan6">TS1</tspan></text>
      <text
         id="Supplementary title 2 data field"
         x="405"
         y="383.2"
         freecad:editable="supplementary_title_2"><tspan
           id="tspan7">TS2</tspan></text>
      <text
         id="Responsible department data field"
         x="545"
         y="395.2"
         freecad:editable="responsible_department"><tspan
           id="tspan8">DR</tspan></text>
      <text
         id="Approval person data field"
         x="485"
         y="383.2"
         freecad:editable="approved_by"><tspan
           id="tspan9">Víctor Sauler Roure</tspan></text>
      <text
         id="Document type data field"
         x="405"
         y="395.2"
         freecad:editable="document_type"><tspan
           id="tspan10">Plànol de conjunt</tspan></text>
      <text
         id="Creator data field"
         x="485"
         y="371.2"
         freecad:editable="created_by"
         freecad:autofill="author"><tspan
           id="tspan11">Núria Sauler Roure</tspan></text>
      <text
         id="Document status data field"
         x="405"
         y="407.2"
         freecad:editable="document_status"><tspan
           id="tspan12">En preparació</tspan></text>
      <text
         id="Paper size data field"
         x="494"
         y="407.2"
         style="text-align:center;text-anchor:middle">A2</text>
      <text
         id="Sheet scale data field"
         x="534"
         y="359.2"
         style="text-align:center;text-anchor:middle"
         freecad:editable="scale"
         freecad:autofill="scale"><tspan
           id="tspan13">1 : 1</tspan></text>
      <text
         id="General tolerances data field"
         x="485"
         y="359.2"
         freecad:editable="general_tolerances"><tspan
           id="tspan14">ISO 2768-m</tspan></text>
      <text
         id="Part material data field"
         x="405"
         y="359.2"
         freecad:editable="general_notes"><tspan
           id="tspan15">Acer inoxidable EN 1.4301</tspan></text>
    </g>
    <g
       id="Outlines"
       style="fill:none;stroke:#000000;stroke-width:0.5;stroke-linecap:round;stroke-linejoin:round">
      <path
         id="Trapezoid"
         d="m 563,345 -10,2.5 v 5 l 10,2.5 z" />
      <circle
         id="Inner circle"
         cx="570"
         r="2.5"
         cy="350" />
      <circle
         id="Outer circle"
         cx="570"
         r="5"
         cy="350" />
    </g>
    <g
       id="Centre lines"
       style="fill:none;stroke:#000000;stroke-width:0.25;stroke-linecap:round;stroke-linejoin:round;stroke-dasharray:6, 0.75, 0.125, 0.75">
      <path
         id="Horizontal"
         d="m 552,350 h 24"
         style="stroke-dashoffset:0.25" />
      <path
         id="Vertical"
         d="m 570,356 v -12"
         style="stroke-dashoffset:4.625" />
    </g>
  </g>
</svg>
