<?xml version="1.0" encoding="UTF-8" standalone="no"?>
<svg
   width="420mm"
   height="297mm"
   viewBox="0 0 420 297"
   version="1.1"
   id="svg1"
   xmlns="http://www.w3.org/2000/svg"
   xmlns:svg="http://www.w3.org/2000/svg"
   xmlns:rdf="http://www.w3.org/1999/02/22-rdf-syntax-ns#"
   xmlns:cc="http://creativecommons.org/ns#"
   xmlns:dc="http://purl.org/dc/elements/1.1/"
   xmlns:freecad="http://www.freecad.org/wiki/index.php?title=Svg_Namespace">
  <defs
     id="defs15" />
  <title
     id="title1">Drawing sheet ISO 5457 - A3T</title>
  <metadata
     id="metadata1">
    <rdf:RDF>
      <cc:Work
         rdf:about="">
        <dc:title>Drawing sheet ISO 5457 - A3T</dc:title>
        <cc:license
           rdf:resource="http://creativecommons.org/publicdomain/zero/1.0/" />
      </cc:Work>
      <cc:License
         rdf:about="http://creativecommons.org/publicdomain/zero/1.0/">
        <cc:permits
           rdf:resource="http://creativecommons.org/ns#Reproduction" />
        <cc:permits
           rdf:resource="http://creativecommons.org/ns#Distribution" />
        <cc:permits
           rdf:resource="http://creativecommons.org/ns#DerivativeWorks" />
      </cc:License>
    </rdf:RDF>
  </metadata>
  <rect
     id="Drawing space frame"
     x="20"
     y="10"
     width="390"
     height="277"
     style="fill:none;stroke:#000000;stroke-width:0.7;stroke-linecap:round;stroke-linejoin:round" />
  <g
     id="Centring marks"
     style="fill:none;stroke:#000000;stroke-width:0.7;stroke-linecap:round">
    <path
       id="Top"
       d="m 210,5 v 10" />
    <path
       id="Right"
       d="m 415,148.5 h -10" />
    <path
       id="Bottom"
       d="m 210,292 v -10" />
    <path
       id="Left"
       d="m 15,148.5 h 10" />
  </g>
  <g
     id="Grid reference system">
    <g
       id="Grid reference borders"
       style="fill:none;stroke:#000000;stroke-width:0.35;stroke-linecap:round;stroke-linejoin:round">
      <rect
         id="rect30"
         x="15"
         y="5"
         width="400"
         height="287" />
      <path
         id="path31"
         d="m 260,5 v 5" />
      <path
         id="path32"
         d="m 310,5 v 5" />
      <path
         id="path33"
         d="m 360,5 v 5" />
      <path
         id="path35"
         d="m 160,5 v 5" />
      <path
         id="path36"
         d="m 110,5 v 5" />
      <path
         id="path37"
         d="m 60,5 v 5" />
      <path
         id="path38"
         d="m 260,287 v 5" />
      <path
         id="path39"
         d="m 310,287 v 5" />
      <path
         id="path40"
         d="m 360,287 v 5" />
      <path
         id="path42"
         d="m 160,287 v 5" />
      <path
         id="path43"
         d="m 110,287 v 5" />
      <path
         id="path44"
         d="m 60,287 v 5" />
      <path
         id="path46"
         d="m 15,98.5 h 5" />
      <path
         id="path47"
         d="m 15,48.5 h 5" />
      <path
         id="path49"
         d="m 15,198.5 h 5" />
      <path
         id="path50"
         d="m 15,248.5 h 5" />
      <path
         id="path53"
         d="m 410,98.5 h 5" />
      <path
         id="path54"
         d="m 410,48.5 h 5" />
      <path
         id="path55"
         d="m 410,198.5 h 5" />
      <path
         id="path56"
         d="m 410,248.5 h 5" />
    </g>
    <g
       id="Grid reference markers"
       style="fill:#000000;stroke:none">
      <path
         id="text31"
         aria-label="5"
         d="m 234.35228,6.3370361 q 0,-0.1298828 0.14868,-0.1298828 0,0 1.00488,0 0.14185,0 0.14185,0.1230469 0,0.1230469 -0.13501,0.1230469 h -0.90918 v 0.7912597 h 0.37939 q 0.32984,0 0.52979,0.2460938 0.1333,0.1640625 0.1333,0.3930664 v 0.2751465 q 0,0.2734375 -0.18628,0.4460449 -0.19653,0.1828613 -0.43408,0.1828613 h -0.5332 q -0.1316,0 -0.1316,-0.1196289 0,-0.1213379 0.14356,-0.1213379 h 0.4751 q 0.21533,0 0.32983,-0.1469726 0.0854,-0.109375 0.0854,-0.2580567 V 7.883667 q 0,-0.1538086 -0.10083,-0.2666016 -0.11279,-0.1264648 -0.34521,-0.1264648 h -0.47168 q -0.12476,0 -0.12476,-0.1452637 z" />
      <path
         id="text32"
         aria-label="6"
         d="m 284.61972,7.2462158 q 0,0 0.37769,0 0.28711,0 0.47851,0.2136231 0.16748,0.1862793 0.16748,0.3964843 0,0 0,0.3452149 0,0.220459 -0.21362,0.4272461 -0.16406,0.1589355 -0.46314,0.1589355 -0.24096,0 -0.42724,-0.1811523 -0.18286,-0.1777344 -0.18286,-0.4050293 V 7.3094482 q 0,-0.3896484 0.29907,-0.7399902 0.18286,-0.213623 0.48535,-0.3349609 0.0684,-0.027344 0.11621,-0.027344 0.12305,0 0.12305,0.1333008 0,0.078613 -0.10767,0.1162109 -0.24096,0.08374 -0.37939,0.222168 -0.23584,0.2341309 -0.27344,0.5673828 z m -0.0188,0.9296875 q 0,0.1469727 0.14356,0.2785645 0.10083,0.092285 0.25805,0.092285 0.11963,0 0.28028,-0.1213379 0.11279,-0.085449 0.11279,-0.2563476 V 7.9093018 q 0,-0.1691895 -0.11621,-0.2939454 -0.11109,-0.1196289 -0.27857,-0.1196289 h -0.3999 z" />
      <path
         id="text33"
         aria-label="7"
         d="m 335.47079,6.2071533 q 0.14356,0 0.14356,0.1196289 0,0.037598 -0.0359,0.1999512 0,0 -0.47339,2.1413574 -0.0256,0.1196289 -0.11792,0.1196289 -0.13159,0 -0.13159,-0.1127929 0,-0.023926 0.005,-0.047852 L 335.34262,6.458374 H 334.577 q 0,0 0,0.1281739 0,0.1213378 -0.12476,0.1213378 -0.11792,0 -0.11792,-0.1264648 0,0 0,-0.2597656 0,-0.114502 0.13672,-0.114502 z" />
      <path
         id="text34"
         aria-label="8"
         d="m 384.99484,7.4888916 q -0.1521,0 -0.26831,0.109375 -0.12646,0.1196289 -0.12646,0.2734375 v 0.3110352 q 0,0.1264648 0.14868,0.2666015 0.0889,0.08374 0.2478,0.08374 0.13843,0 0.27515,-0.111084 0.12134,-0.099121 0.12134,-0.2802735 V 7.887085 q 0,-0.1452637 -0.12305,-0.2854004 -0.0991,-0.112793 -0.27515,-0.112793 z m -0.26831,-0.9348145 q -0.12475,0.1298829 -0.12475,0.2751465 0,0.1367188 0.0872,0.2631836 0.0991,0.1435547 0.30249,0.1435547 0.19654,0 0.30249,-0.1196289 0.10425,-0.1230469 0.10425,-0.2751465 0,-0.1572265 -0.13501,-0.2802734 -0.11963,-0.107666 -0.27514,-0.107666 -0.16407,0 -0.26148,0.10083 z m -0.1145,0.8066407 q -0.25806,-0.1999512 -0.25806,-0.5554199 0,-0.2836915 0.23072,-0.4580079 0.19653,-0.1486816 0.4187,-0.1486816 0.18457,0 0.31787,0.082031 0.32129,0.1982422 0.32129,0.5605469 0,0.3383789 -0.25806,0.5246582 0.26148,0.2084961 0.26148,0.5109864 v 0.2922363 q 0,0.2478027 -0.22046,0.4545898 -0.16748,0.1572266 -0.417,0.1572266 -0.28369,0 -0.43066,-0.1452637 -0.22388,-0.220459 -0.22388,-0.4562988 V 7.8631592 q 0,-0.2785645 0.25806,-0.5024414 z" />
      <path
         id="text35"
         aria-label="4"
         d="m 184.78893,6.2943115 q 0.0273,-0.095703 0.12646,-0.095703 0.11792,0 0.11792,0.1179199 0,0.029053 -0.012,0.068359 l -0.46656,1.6269531 h 0.62378 V 7.6392822 q 0,-0.1435547 0.12476,-0.1435547 0.12134,0 0.12134,0.1538086 v 0.3640137 q 0,0 0.26318,0 0.12476,0 0.12476,0.1350098 0,0.109375 -0.12989,0.109375 h -0.25805 V 8.644165 q 0,0.1384278 -0.12647,0.1384278 -0.11963,0 -0.11963,-0.1333008 V 8.2630615 h -0.78442 q -0.12134,0 -0.12134,-0.1145019 0,-0.037598 0.0239,-0.1230469 z" />
      <path
         id="text36"
         aria-label="3"
         d="m 134.49583,6.1986084 q 0,0 0.53492,0 0.23242,0 0.41699,0.1999512 0.1709,0.1845703 0.1709,0.432373 0,0.3110352 -0.2666,0.5314942 0.25976,0.1879882 0.25976,0.4631347 0,0 0,0.3759766 0,0.220459 -0.1897,0.4101562 -0.16748,0.1674805 -0.4375,0.1674805 0,0 -0.50927,0 -0.14527,0 -0.14527,-0.1264648 0,-0.114502 0.15381,-0.114502 0,0 0.45117,0 0.20679,0 0.32642,-0.1230469 0.11108,-0.1145019 0.11108,-0.2990722 v -0.222168 q 0,-0.1743164 -0.10254,-0.2819824 -0.12475,-0.1315918 -0.2666,-0.1315918 h -0.25976 q -0.14185,0 -0.14185,-0.1281738 0,-0.112793 0.14356,-0.112793 h 0.23071 q 0.16064,0 0.27515,-0.116211 0.12133,-0.1230468 0.12133,-0.2802734 0,-0.1606445 -0.0974,-0.2597656 -0.1333,-0.1350098 -0.27344,-0.1350098 h -0.50586 q -0.15893,0 -0.15893,-0.1281738 0,-0.1213379 0.15893,-0.1213379 z" />
      <path
         id="text37"
         aria-label="2"
         d="m 84.488152,6.8411865 q -0.133301,0 -0.133301,-0.1196289 0,-0.037598 0.03076,-0.099121 0.107667,-0.211914 0.247803,-0.3024902 0.174317,-0.112793 0.367432,-0.112793 0.324707,0 0.509277,0.2478028 0.13501,0.1811523 0.13501,0.3896484 0,0.1828613 -0.112793,0.3657226 l -0.828857,1.3381348 h 0.810058 q 0.128174,0 0.128174,0.1281738 0,0.111084 -0.140137,0.111084 h -0.99292 q -0.152099,0 -0.152099,-0.109375 0,-0.047852 0.02222,-0.08374 L 85.29821,7.112915 q 0.09399,-0.1520996 0.09399,-0.2683105 0,-0.1469727 -0.09399,-0.2563477 -0.114502,-0.1333007 -0.305908,-0.1333007 -0.237549,0 -0.384522,0.2802734 -0.0564,0.105957 -0.119628,0.105957 z" />
      <path
         id="text38"
         aria-label="1"
         d="m 35.006828,6.2618408 q 0.05811,-0.054687 0.121338,-0.054687 0.128174,0 0.128174,0.1418457 v 2.2849121 q 0,0.1452637 -0.123047,0.1452637 -0.126465,0 -0.126465,-0.1469727 0,0 0,-2.0148925 l -0.297363,0.2973633 q -0.04614,0.046143 -0.09229,0.046143 -0.129883,0 -0.129883,-0.1145019 0,-0.058105 0.04956,-0.107666 z" />
      <path
         id="text39"
         aria-label="5"
         d="m 234.35228,288.33707 q 0,-0.12989 0.14868,-0.12989 0,0 1.00488,0 0.14185,0 0.14185,0.12305 0,0.12305 -0.13501,0.12305 h -0.90918 v 0.79126 h 0.37939 q 0.32984,0 0.52979,0.24609 0.1333,0.16406 0.1333,0.39307 v 0.27514 q 0,0.27344 -0.18628,0.44605 -0.19653,0.18286 -0.43408,0.18286 h -0.5332 q -0.1316,0 -0.1316,-0.11963 0,-0.12134 0.14356,-0.12134 h 0.4751 q 0.21533,0 0.32983,-0.14697 0.0854,-0.10937 0.0854,-0.25806 v -0.25805 q 0,-0.15381 -0.10083,-0.2666 -0.11279,-0.12647 -0.34521,-0.12647 h -0.47168 q -0.12476,0 -0.12476,-0.14526 z" />
      <path
         id="text40"
         aria-label="6"
         d="m 284.61972,289.24625 q 0,0 0.37769,0 0.28711,0 0.47851,0.21362 0.16748,0.18628 0.16748,0.39648 0,0 0,0.34522 0,0.22046 -0.21362,0.42724 -0.16406,0.15894 -0.46314,0.15894 -0.24096,0 -0.42724,-0.18115 -0.18286,-0.17774 -0.18286,-0.40503 v -0.89209 q 0,-0.38965 0.29907,-0.73999 0.18286,-0.21362 0.48535,-0.33496 0.0684,-0.0274 0.11621,-0.0274 0.12305,0 0.12305,0.1333 0,0.0786 -0.10767,0.11622 -0.24096,0.0837 -0.37939,0.22216 -0.23584,0.23413 -0.27344,0.56739 z m -0.0188,0.92968 q 0,0.14698 0.14356,0.27857 0.10083,0.0923 0.25805,0.0923 0.11963,0 0.28028,-0.12133 0.11279,-0.0855 0.11279,-0.25635 v -0.25977 q 0,-0.16919 -0.11621,-0.29394 -0.11109,-0.11963 -0.27857,-0.11963 h -0.3999 z" />
      <path
         id="text41"
         aria-label="7"
         d="m 335.47079,288.20718 q 0.14356,0 0.14356,0.11963 0,0.0376 -0.0359,0.19995 0,0 -0.47339,2.14136 -0.0256,0.11963 -0.11792,0.11963 -0.13159,0 -0.13159,-0.11279 0,-0.0239 0.005,-0.0478 l 0.48193,-2.16871 H 334.577 q 0,0 0,0.12818 0,0.12134 -0.12476,0.12134 -0.11792,0 -0.11792,-0.12647 0,0 0,-0.25976 0,-0.11451 0.13672,-0.11451 z" />
      <path
         id="text42"
         aria-label="8"
         d="m 384.99484,289.48892 q -0.1521,0 -0.26831,0.10938 -0.12646,0.11963 -0.12646,0.27343 v 0.31104 q 0,0.12646 0.14868,0.2666 0.0889,0.0837 0.2478,0.0837 0.13843,0 0.27515,-0.11108 0.12134,-0.0991 0.12134,-0.28028 v -0.25463 q 0,-0.14527 -0.12305,-0.2854 -0.0991,-0.1128 -0.27515,-0.1128 z m -0.26831,-0.93481 q -0.12475,0.12988 -0.12475,0.27514 0,0.13672 0.0872,0.26319 0.0991,0.14355 0.30249,0.14355 0.19654,0 0.30249,-0.11963 0.10425,-0.12304 0.10425,-0.27514 0,-0.15723 -0.13501,-0.28028 -0.11963,-0.10766 -0.27514,-0.10766 -0.16407,0 -0.26148,0.10083 z m -0.1145,0.80664 q -0.25806,-0.19995 -0.25806,-0.55542 0,-0.28369 0.23072,-0.45801 0.19653,-0.14868 0.4187,-0.14868 0.18457,0 0.31787,0.082 0.32129,0.19824 0.32129,0.56055 0,0.33838 -0.25806,0.52466 0.26148,0.20849 0.26148,0.51098 v 0.29224 q 0,0.2478 -0.22046,0.45459 -0.16748,0.15722 -0.417,0.15722 -0.28369,0 -0.43066,-0.14526 -0.22388,-0.22046 -0.22388,-0.4563 v -0.31616 q 0,-0.27856 0.25806,-0.50244 z" />
      <path
         id="text43"
         aria-label="4"
         d="m 184.78893,288.29434 q 0.0273,-0.0957 0.12646,-0.0957 0.11792,0 0.11792,0.11792 0,0.0291 -0.012,0.0684 l -0.46656,1.62695 h 0.62378 v -0.37256 q 0,-0.14355 0.12476,-0.14355 0.12134,0 0.12134,0.15381 v 0.36401 q 0,0 0.26318,0 0.12476,0 0.12476,0.13501 0,0.10938 -0.12989,0.10938 h -0.25805 v 0.38623 q 0,0.13842 -0.12647,0.13842 -0.11963,0 -0.11963,-0.1333 v -0.38623 h -0.78442 q -0.12134,0 -0.12134,-0.1145 0,-0.0376 0.0239,-0.12305 z" />
      <path
         id="text44"
         aria-label="3"
         d="m 134.49583,288.19864 q 0,0 0.53492,0 0.23242,0 0.41699,0.19995 0.1709,0.18457 0.1709,0.43237 0,0.31104 -0.2666,0.5315 0.25976,0.18799 0.25976,0.46313 0,0 0,0.37598 0,0.22046 -0.1897,0.41015 -0.16748,0.16749 -0.4375,0.16749 0,0 -0.50927,0 -0.14527,0 -0.14527,-0.12647 0,-0.1145 0.15381,-0.1145 0,0 0.45117,0 0.20679,0 0.32642,-0.12305 0.11108,-0.1145 0.11108,-0.29907 v -0.22217 q 0,-0.17431 -0.10254,-0.28198 -0.12475,-0.13159 -0.2666,-0.13159 h -0.25976 q -0.14185,0 -0.14185,-0.12818 0,-0.11279 0.14356,-0.11279 h 0.23071 q 0.16064,0 0.27515,-0.11621 0.12133,-0.12305 0.12133,-0.28027 0,-0.16065 -0.0974,-0.25977 -0.1333,-0.13501 -0.27344,-0.13501 h -0.50586 q -0.15893,0 -0.15893,-0.12817 0,-0.12134 0.15893,-0.12134 z" />
      <path
         id="text45"
         aria-label="2"
         d="m 84.488152,288.84122 q -0.133301,0 -0.133301,-0.11963 0,-0.0376 0.03076,-0.0991 0.107667,-0.21192 0.247803,-0.30249 0.174317,-0.1128 0.367432,-0.1128 0.324707,0 0.509277,0.24781 0.13501,0.18115 0.13501,0.38965 0,0.18286 -0.112793,0.36572 l -0.828857,1.33813 h 0.810058 q 0.128174,0 0.128174,0.12818 0,0.11108 -0.140137,0.11108 h -0.99292 q -0.152099,0 -0.152099,-0.10937 0,-0.0479 0.02222,-0.0837 l 0.919433,-1.48169 q 0.09399,-0.1521 0.09399,-0.26831 0,-0.14698 -0.09399,-0.25635 -0.114502,-0.1333 -0.305908,-0.1333 -0.237549,0 -0.384522,0.28027 -0.0564,0.10596 -0.119628,0.10596 z" />
      <path
         id="text46"
         aria-label="1"
         d="m 35.006828,288.26187 q 0.05811,-0.0547 0.121338,-0.0547 0.128174,0 0.128174,0.14185 v 2.28491 q 0,0.14527 -0.123047,0.14527 -0.126465,0 -0.126465,-0.14698 0,0 0,-2.01489 l -0.297363,0.29736 q -0.04614,0.0462 -0.09229,0.0462 -0.129883,0 -0.129883,-0.11451 0,-0.0581 0.04956,-0.10766 z" />
      <path
         id="text47"
         aria-label="C"
         d="m 17.530767,122.19859 q 0,0 0.52295,0 0.126465,0 0.126465,0.12817 0,0.12988 -0.136719,0.12988 h -0.514405 q -0.143554,0 -0.278564,0.12476 -0.102539,0.0957 -0.102539,0.25635 v 1.30566 q 0,0.16064 0.107666,0.27686 0.112793,0.11962 0.234131,0.11962 h 0.574219 q 0.123046,0 0.123046,0.12476 0,0.11792 -0.124755,0.11792 h -0.582764 q -0.23584,0 -0.440918,-0.2273 -0.140137,-0.15551 -0.140137,-0.39819 v -1.33813 q 0,-0.25635 0.20166,-0.44605 0.184571,-0.17431 0.430664,-0.17431 z" />
      <path
         id="text48"
         aria-label="B"
         d="m 18.296392,74.001564 q 0,0.375977 -0.239257,0.581055 -0.237549,0.205078 -0.449463,0.205078 h -0.750244 q -0.119629,0 -0.119629,-0.155518 v -2.264404 q 0,-0.160645 0.158935,-0.160645 h 0.533203 q 0.324707,0 0.473389,0.129883 0.259766,0.227295 0.259766,0.516114 0,0.314453 -0.239258,0.502441 0.158935,0.09228 0.264892,0.264893 0.107666,0.172607 0.107666,0.381103 z m -1.29541,-0.492187 v 1.040771 h 0.533203 q 0.232422,0 0.372559,-0.160645 0.140137,-0.160644 0.140137,-0.355468 0,-0.194824 -0.131592,-0.360596 -0.129883,-0.164062 -0.375977,-0.164062 z m 0,-1.047608 v 0.781006 h 0.521241 q 0.196533,0 0.293945,-0.105957 0.09912,-0.107666 0.09912,-0.266602 0,-0.160644 -0.104248,-0.283691 -0.104248,-0.124756 -0.295654,-0.124756 z" />
      <path
         id="text49"
         aria-label="A"
         d="m 17.388922,22.301125 q 0.03076,-0.09399 0.119629,-0.09399 0.08545,0 0.116211,0.09399 L 18.388678,24.598 q 0.01538,0.04614 0.01538,0.0752 0,0.10083 -0.123046,0.114502 -0.09058,0 -0.128174,-0.112793 0,0 -0.174317,-0.540039 h -0.946777 l -0.186279,0.553711 q -0.03589,0.104248 -0.116211,0.104248 -0.133301,0 -0.133301,-0.124756 0,-0.01709 0.0376,-0.128174 z m 0.112793,0.425537 -0.393067,1.167236 h 0.787842 z" />
      <path
         id="text50"
         aria-label="D"
         d="m 16.977911,174.5416 q 0,0 0.593018,0 0.229003,0 0.341796,-0.11792 0.114502,-0.11963 0.114502,-0.29224 v -1.28345 q 0,-0.1521 -0.111084,-0.27344 -0.111084,-0.12133 -0.293945,-0.12133 h -0.644287 z m -0.251221,-2.19434 q 0,-0.14014 0.141846,-0.14014 h 0.801514 q 0.23584,0 0.418701,0.18457 0.18457,0.18457 0.18457,0.4187 v 1.37915 q 0,0.23414 -0.18457,0.417 -0.18457,0.18115 -0.394776,0.18115 h -0.852783 q -0.114502,0 -0.114502,-0.1521 z" />
      <path
         id="text51"
         aria-label="E"
         d="m 17.145391,224.53305 h 0.910889 q 0.126465,0 0.126465,0.12305 0,0.12304 -0.121338,0.12304 h -1.049316 q -0.112793,0 -0.112793,-0.12817 v -2.31909 q 0,-0.1333 0.152099,-0.1333 h 0.996338 q 0.138428,0 0.138428,0.12475 0,0.12305 -0.138428,0.12305 h -0.902344 v 0.79639 h 0.659668 q 0.124756,0 0.124756,0.12304 0,0.11622 -0.121338,0.11622 h -0.663086 z" />
      <path
         id="text52"
         aria-label="F"
         d="m 17.152227,273.48373 v 1.15699 q 0,0.14013 -0.128173,0.14013 -0.124756,0 -0.124756,-0.14184 0,0 0,-2.3208 0,-0.11963 0.1333,-0.11963 0,0 1.018555,0 0.13501,0 0.13501,0.12304 0,0.12305 -0.133301,0.12305 h -0.898926 v 0.78955 h 0.898926 q 0.133301,0 0.133301,0.12476 0,0.12475 -0.13501,0.12475 z" />
      <path
         id="text53"
         aria-label="C"
         d="m 412.53076,122.19859 q 0,0 0.52295,0 0.12647,0 0.12647,0.12817 0,0.12988 -0.13672,0.12988 h -0.51441 q -0.14355,0 -0.27856,0.12476 -0.10254,0.0957 -0.10254,0.25635 v 1.30566 q 0,0.16064 0.10767,0.27686 0.11279,0.11962 0.23413,0.11962 h 0.57421 q 0.12305,0 0.12305,0.12476 0,0.11792 -0.12475,0.11792 h -0.58277 q -0.23584,0 -0.44092,-0.2273 -0.14013,-0.15551 -0.14013,-0.39819 v -1.33813 q 0,-0.25635 0.20166,-0.44605 0.18457,-0.17431 0.43066,-0.17431 z" />
      <path
         id="text54"
         aria-label="B"
         d="m 413.29639,74.001564 q 0,0.375977 -0.23926,0.581055 -0.23755,0.205078 -0.44946,0.205078 h -0.75025 q -0.11963,0 -0.11963,-0.155518 v -2.264404 q 0,-0.160645 0.15894,-0.160645 h 0.5332 q 0.32471,0 0.47339,0.129883 0.25977,0.227295 0.25977,0.516114 0,0.314453 -0.23926,0.502441 0.15893,0.09228 0.26489,0.264893 0.10767,0.172607 0.10767,0.381103 z m -1.29541,-0.492187 v 1.040771 h 0.5332 q 0.23242,0 0.37256,-0.160645 0.14013,-0.160644 0.14013,-0.355468 0,-0.194824 -0.13159,-0.360596 -0.12988,-0.164062 -0.37597,-0.164062 z m 0,-1.047608 v 0.781006 h 0.52124 q 0.19653,0 0.29394,-0.105957 0.0991,-0.107666 0.0991,-0.266602 0,-0.160644 -0.10424,-0.283691 -0.10425,-0.124756 -0.29566,-0.124756 z" />
      <path
         id="text55"
         aria-label="A"
         d="m 412.38892,22.301125 q 0.0308,-0.09399 0.11962,-0.09399 0.0855,0 0.11622,0.09399 l 0.76391,2.296875 q 0.0154,0.04614 0.0154,0.0752 0,0.10083 -0.12304,0.114502 -0.0906,0 -0.12818,-0.112793 0,0 -0.17431,-0.540039 h -0.94678 l -0.18628,0.553711 q -0.0359,0.104248 -0.11621,0.104248 -0.1333,0 -0.1333,-0.124756 0,-0.01709 0.0376,-0.128174 z m 0.11279,0.425537 -0.39307,1.167236 h 0.78784 z" />
      <path
         id="text56"
         aria-label="D"
         d="m 411.97791,174.5416 q 0,0 0.59301,0 0.22901,0 0.3418,-0.11792 0.1145,-0.11963 0.1145,-0.29224 v -1.28345 q 0,-0.1521 -0.11108,-0.27344 -0.11109,-0.12133 -0.29395,-0.12133 h -0.64428 z m -0.25123,-2.19434 q 0,-0.14014 0.14185,-0.14014 h 0.80151 q 0.23584,0 0.41871,0.18457 0.18457,0.18457 0.18457,0.4187 v 1.37915 q 0,0.23414 -0.18457,0.417 -0.18458,0.18115 -0.39478,0.18115 h -0.85278 q -0.11451,0 -0.11451,-0.1521 z" />
      <path
         id="text57"
         aria-label="E"
         d="m 412.14539,224.53305 h 0.91088 q 0.12647,0 0.12647,0.12305 0,0.12304 -0.12134,0.12304 h -1.04932 q -0.11279,0 -0.11279,-0.12817 v -2.31909 q 0,-0.1333 0.1521,-0.1333 h 0.99634 q 0.13843,0 0.13843,0.12475 0,0.12305 -0.13843,0.12305 h -0.90234 v 0.79639 h 0.65966 q 0.12476,0 0.12476,0.12304 0,0.11622 -0.12134,0.11622 h -0.66308 z" />
      <path
         id="text58"
         aria-label="F"
         d="m 412.15222,273.48373 v 1.15699 q 0,0.14013 -0.12817,0.14013 -0.12476,0 -0.12476,-0.14184 0,0 0,-2.3208 0,-0.11963 0.1333,-0.11963 0,0 1.01856,0 0.13501,0 0.13501,0.12304 0,0.12305 -0.1333,0.12305 h -0.89893 v 0.78955 h 0.89893 q 0.1333,0 0.1333,0.12476 0,0.12475 -0.13501,0.12475 z" />
    </g>
  </g>
  <g
     id="Trimming marks"
     style="fill:#000000;stroke:none">&gt;
    <path
   id="Top left"
   d="m 0,0 h 10 v 5 h -5 v 5 h -5 z" />
<path
   id="Top right"
   d="m 420,0 h -10 v 5 h 5 v 5 h 5 z" />
<path
   id="Bottom right"
   d="m 420,297 h -10 v -5 h 5 v -5 h 5 z" />
<path
   id="Bottom left"
   d="m 0,297 h 10 v -5 h -5 v -5 h -5 z" />
</g>
  <g
     id="Title block">
    <g
       id="Borders"
       style="fill:none;stroke:#000000;stroke-width:0.35;stroke-linecap:round;stroke-linejoin:round">
      <rect
         id="Frame"
         x="230"
         y="239"
         width="180"
         height="48"
         style="stroke-width:0.7" />
      <rect
         id="Owner border"
         x="370"
         y="239"
         width="40"
         height="24" />
      <rect
         id="Identification number border"
         x="310"
         y="263"
         width="60"
         height="12" />
      <rect
         id="Revision index border"
         x="370"
         y="275"
         width="20"
         height="12" />
      <rect
         id="Date of issue border"
         x="330"
         y="275"
         width="40"
         height="12" />
      <rect
         id="Sheet number border"
         x="390"
         y="275"
         width="20"
         height="12" />
      <rect
         id="Title border"
         x="230"
         y="239"
         width="80"
         height="24" />
      <rect
         id="Responsible department border"
         x="370"
         y="263"
         width="40"
         height="12" />
      <rect
         id="Approval person border"
         x="310"
         y="251"
         width="60"
         height="12" />
      <rect
         id="Document type border"
         x="230"
         y="263"
         width="80"
         height="12" />
      <rect
         id="Creator border"
         x="310"
         y="239"
         width="60"
         height="12" />
      <rect
         id="Document status border"
         x="230"
         y="275"
         width="80"
         height="12" />
      <rect
         id="Paper size border"
         x="310"
         y="275"
         width="20"
         height="12" />
    </g>
    <g
       id="Labels"
       style="font-size:3.5px;font-family:osifont;text-anchor:start;fill:#000000;stroke:none">
      <text
         id="Owner label"
         x="370.5"
         y="242.6">Propietari legal:</text>
      <text
         id="Identification number label"
         x="310.5"
         y="266.6">Número de dibuix:</text>
      <text
         id="Revision index label"
         x="370.5"
         y="278.6">Revisió:</text>
      <text
         id="Date of issue label"
         x="330.5"
         y="278.6">Data:</text>
      <text
         id="Sheet number label"
         x="390.5"
         y="278.6">Pàgina:</text>
      <text
         id="Title label"
         x="230.5"
         y="242.6">Títol, títol suplementari:</text>
      <text
         id="Responsible department label"
         x="370.5"
         y="266.6">Departament:</text>
      <text
         id="Approval person label"
         x="310.5"
         y="254.6">Aprovat:</text>
      <text
         id="Document type label"
         x="230.5"
         y="266.6">Tipus de document:</text>
      <text
         id="Creator label"
         x="310.5"
         y="242.6">Creat:</text>
      <text
         id="Document status label"
         x="230.5"
         y="278.6">Estat del document</text>
      <text
         id="Paper size label"
         x="310.5"
         y="278.6">Format:</text>
      <text
         id="Sheet scale label"
         x="350.5"
         y="230.6">Escala:</text>
      <text
         id="General tolerances label"
         x="310.5"
         y="230.6">Toleràncies generals:</text>
      <text
         id="Part material label"
         x="230.5"
         y="230.6">Material:</text>
    </g>
    <g
       id="Data fields"
       style="font-size:5px;font-family:osifont;text-anchor:start;fill:#000000;stroke:none">
      <text
         id="Identification number data field"
         x="311"
         y="272.2"
         freecad:editable="drawing_number"><tspan
           id="tspan1">ND</tspan></text>
      <text
         id="Revision index data field"
         x="380"
         y="284.2"
         style="text-align:center;text-anchor:middle"
         freecad:editable="revision_index"><tspan
           id="tspan2">AAA</tspan></text>
      <text
         id="Date of issue data field"
         x="331"
         y="284.2"
         freecad:editable="issue_date"
         freecad:autofill="date"><tspan
           id="tspan3">DD/MM/AAAA</tspan></text>
      <text
         id="Sheet number data field"
         x="400"
         y="284.2"
         style="text-align:center;text-anchor:middle"
         freecad:editable="sheet_number"
         freecad:autofill="sheet"><tspan
           id="tspan4">X / Y</tspan></text>
      <text
         id="Title data field"
         x="231"
         y="248.2"
         freecad:editable="title"
         freecad:autofill="title"><tspan
           id="tspan5">Títol del dibuix</tspan></text>
      <text
         id="Supplementary title 1 data field"
         x="231"
         y="254.2"
         freecad:editable="supplementary_title_1"><tspan
           id="tspan6">TS1</tspan></text>
      <text
         id="Supplementary title 2 data field"
         x="231"
         y="260.2"
         freecad:editable="supplementary_title_2"><tspan
           id="tspan7">TS2</tspan></text>
      <text
         id="Responsible department data field"
         x="371"
         y="272.2"
         freecad:editable="responsible_department"><tspan
           id="tspan8">DR</tspan></text>
      <text
         id="Approval person data field"
         x="311"
         y="260.2"
         freecad:editable="approved_by"><tspan
           id="tspan9">Víctor Sauler Roure</tspan></text>
      <text
         id="Document type data field"
         x="231"
         y="272.2"
         freecad:editable="document_type"><tspan
           id="tspan10">Plànol de conjunt</tspan></text>
      <text
         id="Creator data field"
         x="311"
         y="248.2"
         freecad:editable="created_by"
         freecad:autofill="author"><tspan
           id="tspan11">Núria Sauler Roure</tspan></text>
      <text
         id="Document status data field"
         x="231"
         y="284.2"
         freecad:editable="document_status"><tspan
           id="tspan12">En preparació</tspan></text>
      <text
         id="Paper size data field"
         x="320"
         y="284.2"
         style="text-align:center;text-anchor:middle">A3</text>
      <text
         id="Sheet scale data field"
         x="360"
         y="236.2"
         style="text-align:center;text-anchor:middle"
         freecad:editable="scale"
         freecad:autofill="scale"><tspan
           id="tspan13">1 : 1</tspan></text>
      <text
         id="General tolerances data field"
         x="311"
         y="236.2"
         freecad:editable="general_tolerances"><tspan
           id="tspan14">ISO 2768-m</tspan></text>
      <text
         id="Part material data field"
         x="231"
         y="236.2"
         freecad:editable="general_notes"><tspan
           id="tspan15">Acer inoxidable EN 1.4301</tspan></text>
    </g>
    <g
       id="Outlines"
       style="fill:none;stroke:#000000;stroke-width:0.5;stroke-linecap:round;stroke-linejoin:round">
      <path
         id="Trapezoid"
         d="m 389,222 -10,2.5 v 5 l 10,2.5 z" />
      <circle
         id="Inner circle"
         cx="396"
         r="2.5"
         cy="227" />
      <circle
         id="Outer circle"
         cx="396"
         r="5"
         cy="227" />
    </g>
    <g
       id="Centre lines"
       style="fill:none;stroke:#000000;stroke-width:0.25;stroke-linecap:round;stroke-linejoin:round;stroke-dasharray:6, 0.75, 0.125, 0.75">
      <path
         id="Horizontal"
         d="m 378,227 h 24"
         style="stroke-dashoffset:0.25" />
      <path
         id="Vertical"
         d="m 396,233 v -12"
         style="stroke-dashoffset:4.625" />
    </g>
  </g>
</svg>
