<?xml version="1.0" encoding="UTF-8" standalone="no"?>
<svg
   width="297mm"
   height="210mm"
   viewBox="0 0 297 210"
   version="1.1"
   id="svg1"
   xmlns="http://www.w3.org/2000/svg"
   xmlns:svg="http://www.w3.org/2000/svg"
   xmlns:rdf="http://www.w3.org/1999/02/22-rdf-syntax-ns#"
   xmlns:cc="http://creativecommons.org/ns#"
   xmlns:dc="http://purl.org/dc/elements/1.1/"
   xmlns:freecad="http://www.freecad.org/wiki/index.php?title=Svg_Namespace">
  <defs
     id="defs15" />
  <title
     id="title1">Drawing sheet ISO 5457 - A4T</title>
  <metadata
     id="metadata1">
    <rdf:RDF>
      <cc:License
         rdf:about="http://creativecommons.org/publicdomain/zero/1.0/">
        <cc:permits
           rdf:resource="http://creativecommons.org/ns#Reproduction" />
        <cc:permits
           rdf:resource="http://creativecommons.org/ns#Distribution" />
        <cc:permits
           rdf:resource="http://creativecommons.org/ns#DerivativeWorks" />
      </cc:License>
      <cc:Work
         rdf:about="">
        <cc:license
           rdf:resource="http://creativecommons.org/publicdomain/zero/1.0/" />
        <dc:title>Drawing sheet ISO 5457 - A4T</dc:title>
      </cc:Work>
    </rdf:RDF>
  </metadata>
  <rect
     id="Drawing space frame"
     x="20"
     y="10"
     width="267"
     height="190"
     style="fill:none;stroke:#000000;stroke-width:0.7;stroke-linecap:round;stroke-linejoin:round" />
  <g
     id="Centring marks"
     style="fill:none;stroke:#000000;stroke-width:0.7;stroke-linecap:round">
    <path
       id="Top"
       d="m 148.5,5 v 10" />
    <path
       id="Right"
       d="m 292,105 h -10" />
    <path
       id="Bottom"
       d="m 148.5,205 v -10" />
    <path
       id="Left"
       d="m 15,105 h 10" />
  </g>
  <g
     id="Grid reference system">
    <g
       id="Grid reference borders"
       style="fill:none;stroke:#000000;stroke-width:0.35;stroke-linecap:round;stroke-linejoin:round">
      <rect
         id="Grid reference border"
         x="15"
         y="5"
         width="277"
         height="200" />
      <path
         id="path18"
         d="m 198.5,5 v 5" />
      <path
         id="path19"
         d="m 248.5,5 v 5" />
      <path
         id="path20"
         d="m 48.5,5 v 5" />
      <path
         id="path21"
         d="m 98.5,5 v 5" />
      <path
         id="path23"
         d="m 287,55 h 5" />
      <path
         id="path25"
         d="m 287,155 h 5" />
      <path
         id="path26"
         d="m 15,55 h 5" />
      <path
         id="path27"
         d="m 15,155 h 5" />
      <path
         id="path28"
         d="m 198.5,200 v 5" />
      <path
         id="path29"
         d="m 248.5,200 v 5" />
      <path
         id="path30"
         d="m 48.5,200 v 5" />
      <path
         id="path31"
         d="m 98.5,200 v 5" />
    </g>
    <g
       id="Grid reference markers"
       style="fill:#000000;stroke:none">
      <path
         id="text26"
         aria-label="C"
         d="m 289.53076,128.69862 q 0,0 0.52295,0 0.12647,0 0.12647,0.12818 0,0.12988 -0.13672,0.12988 h -0.51441 q -0.14355,0 -0.27856,0.12476 -0.10254,0.0957 -0.10254,0.25634 v 1.30567 q 0,0.16064 0.10767,0.27685 0.11279,0.11963 0.23413,0.11963 h 0.57421 q 0.12305,0 0.12305,0.12476 0,0.11792 -0.12475,0.11792 h -0.58277 q -0.23584,0 -0.44092,-0.2273 -0.14013,-0.15551 -0.14013,-0.39819 v -1.33814 q 0,-0.25634 0.20166,-0.44604 0.18457,-0.17432 0.43066,-0.17432 z" />
      <path
         id="text17"
         aria-label="4"
         d="m 173.28894,6.2943125 q 0.0273,-0.095703 0.12647,-0.095703 0.11792,0 0.11792,0.1179199 0,0.029053 -0.012,0.068359 l -0.46655,1.6269532 h 0.62378 V 7.6392832 q 0,-0.1435547 0.12475,-0.1435547 0.12134,0 0.12134,0.1538086 v 0.3640137 q 0,0 0.26319,0 0.12475,0 0.12475,0.1350097 0,0.109375 -0.12988,0.109375 h -0.25806 V 8.644166 q 0,0.1384277 -0.12646,0.1384277 -0.11963,0 -0.11963,-0.1333008 V 8.2630625 h -0.78442 q -0.12134,0 -0.12134,-0.114502 0,-0.037598 0.0239,-0.1230469 z" />
      <path
         id="text18"
         aria-label="5"
         d="m 222.85229,6.3370371 q 0,-0.1298828 0.14869,-0.1298828 0,0 1.00488,0 0.14185,0 0.14185,0.1230468 0,0.1230469 -0.13501,0.1230469 h -0.90918 v 0.7912598 h 0.37939 q 0.32983,0 0.52979,0.2460937 0.1333,0.1640625 0.1333,0.3930664 v 0.2751465 q 0,0.2734375 -0.18628,0.446045 -0.19654,0.1828613 -0.43409,0.1828613 h -0.5332 q -0.13159,0 -0.13159,-0.1196289 0,-0.1213379 0.14355,-0.1213379 h 0.4751 q 0.21533,0 0.32984,-0.1469727 0.0855,-0.109375 0.0855,-0.2580566 V 7.8836679 q 0,-0.1538085 -0.10083,-0.2666015 -0.1128,-0.1264649 -0.34522,-0.1264649 h -0.47168 q -0.12476,0 -0.12476,-0.1452636 z" />
      <path
         id="text19"
         aria-label="6"
         d="m 273.11972,7.2462168 q 0,0 0.37769,0 0.28711,0 0.47851,0.213623 0.16748,0.1862793 0.16748,0.3964844 0,0 0,0.3452148 0,0.220459 -0.21362,0.4272461 -0.16406,0.1589356 -0.46314,0.1589356 -0.24096,0 -0.42724,-0.1811524 Q 272.85654,8.428834 272.85654,8.201539 V 7.3094492 q 0,-0.3896484 0.29907,-0.7399902 0.18286,-0.2136231 0.48535,-0.334961 0.0684,-0.027344 0.11621,-0.027344 0.12305,0 0.12305,0.1333008 0,0.078613 -0.10767,0.1162109 -0.24096,0.08374 -0.37939,0.222168 -0.23584,0.2341308 -0.27344,0.5673831 z m -0.0188,0.9296875 q 0,0.1469726 0.14356,0.2785644 0.10083,0.092285 0.25805,0.092285 0.11963,0 0.28028,-0.1213379 0.11279,-0.085449 0.11279,-0.2563477 V 7.9093027 q 0,-0.1691894 -0.11621,-0.2939453 -0.11109,-0.1196289 -0.27857,-0.1196289 h -0.3999 z" />
      <path
         id="text20"
         aria-label="1"
         d="m 23.506857,6.2618408 q 0.05811,-0.054687 0.121338,-0.054687 0.128174,0 0.128174,0.1418457 v 2.2849121 q 0,0.1452637 -0.123047,0.1452637 -0.126465,0 -0.126465,-0.1469727 0,0 0,-2.0148925 l -0.297363,0.2973633 q -0.04614,0.046143 -0.09229,0.046143 -0.129882,0 -0.129882,-0.1145019 0,-0.058105 0.04956,-0.107666 z" />
      <path
         id="text21"
         aria-label="2"
         d="m 72.988174,6.8411865 q -0.1333,0 -0.1333,-0.1196289 0,-0.037598 0.03076,-0.099121 0.107666,-0.211914 0.247803,-0.3024902 0.174317,-0.112793 0.367432,-0.112793 0.324707,0 0.509277,0.2478028 0.13501,0.1811523 0.13501,0.3896484 0,0.1828613 -0.112793,0.3657226 L 73.203505,8.548462 h 0.810059 q 0.128174,0 0.128174,0.1281738 0,0.111084 -0.140137,0.111084 h -0.99292 q -0.152099,0 -0.152099,-0.109375 0,-0.047852 0.02222,-0.08374 L 73.798233,7.112915 q 0.09399,-0.1520996 0.09399,-0.2683105 0,-0.1469727 -0.09399,-0.2563477 -0.114502,-0.1333007 -0.305908,-0.1333007 -0.237549,0 -0.384522,0.2802734 -0.0564,0.105957 -0.119629,0.105957 z" />
      <path
         id="text22"
         aria-label="3"
         d="m 122.99583,6.1986084 q 0,0 0.53491,0 0.23242,0 0.41699,0.1999512 0.1709,0.1845703 0.1709,0.432373 0,0.3110352 -0.2666,0.5314942 0.25976,0.1879882 0.25976,0.4631347 0,0 0,0.3759766 0,0.220459 -0.18969,0.4101562 -0.16748,0.1674805 -0.4375,0.1674805 0,0 -0.50928,0 -0.14526,0 -0.14526,-0.1264648 0,-0.114502 0.1538,-0.114502 0,0 0.45118,0 0.20678,0 0.32641,-0.1230469 0.11109,-0.1145019 0.11109,-0.2990722 v -0.222168 q 0,-0.1743164 -0.10254,-0.2819824 -0.12476,-0.1315918 -0.2666,-0.1315918 h -0.25977 q -0.14185,0 -0.14185,-0.1281738 0,-0.112793 0.14356,-0.112793 h 0.23071 q 0.16065,0 0.27515,-0.116211 0.12134,-0.1230468 0.12134,-0.2802734 0,-0.1606445 -0.0974,-0.2597656 -0.1333,-0.1350098 -0.27343,-0.1350098 h -0.50586 q -0.15894,0 -0.15894,-0.1281738 0,-0.1213379 0.15894,-0.1213379 z" />
      <path
         id="text23"
         aria-label="B"
         d="m 290.29639,80.501587 q 0,0.375976 -0.23926,0.581055 -0.23755,0.205078 -0.44946,0.205078 h -0.75025 q -0.11963,0 -0.11963,-0.155518 v -2.264404 q 0,-0.160645 0.15894,-0.160645 h 0.5332 q 0.32471,0 0.47339,0.129883 0.25977,0.227295 0.25977,0.516113 0,0.314454 -0.23926,0.502442 0.15893,0.09228 0.26489,0.264892 0.10767,0.172608 0.10767,0.381104 z m -1.29541,-0.492188 v 1.040772 h 0.5332 q 0.23242,0 0.37256,-0.160645 0.14013,-0.160644 0.14013,-0.355468 0,-0.194825 -0.13159,-0.360596 -0.12988,-0.164063 -0.37597,-0.164063 z m 0,-1.047607 v 0.781006 h 0.52124 q 0.19653,0 0.29394,-0.105957 0.0991,-0.107666 0.0991,-0.266602 0,-0.160644 -0.10424,-0.283691 -0.10425,-0.124756 -0.29566,-0.124756 z" />
      <path
         id="text24"
         aria-label="A"
         d="m 289.38892,28.801147 q 0.0308,-0.09399 0.11962,-0.09399 0.0855,0 0.11622,0.09399 l 0.76391,2.296875 q 0.0154,0.04614 0.0154,0.0752 0,0.10083 -0.12304,0.114502 -0.0906,0 -0.12818,-0.112793 0,0 -0.17431,-0.540039 h -0.94678 l -0.18628,0.553711 q -0.0359,0.104248 -0.11621,0.104248 -0.1333,0 -0.1333,-0.124756 0,-0.01709 0.0376,-0.128174 z m 0.11279,0.425538 -0.39307,1.167236 h 0.78784 z" />
      <path
         id="text25"
         aria-label="D"
         d="m 288.97791,181.04164 q 0,0 0.59301,0 0.22901,0 0.3418,-0.11792 0.1145,-0.11963 0.1145,-0.29224 v -1.28344 q 0,-0.1521 -0.11108,-0.27344 -0.11109,-0.12134 -0.29395,-0.12134 h -0.64428 z m -0.25123,-2.19433 q 0,-0.14014 0.14185,-0.14014 h 0.80151 q 0.23584,0 0.41871,0.18457 0.18457,0.18457 0.18457,0.4187 v 1.37915 q 0,0.23413 -0.18457,0.41699 -0.18458,0.18115 -0.39478,0.18115 h -0.85278 q -0.11451,0 -0.11451,-0.15209 z" />
    </g>
  </g>
  <g
     id="Trimming marks"
     style="fill:#000000;stroke:none">
    <path
       id="Top left"
       d="m 0,0 h 10 v 5 h -5 v 5 h -5 z" />
    <path
       id="Top right"
       d="m 297,0 h -10 v 5 h 5 v 5 h 5 z" />
    <path
       id="Bottom right"
       d="m 297,210 h -10 v -5 h 5 v -5 h 5 z" />
    <path
       id="Bottom left"
       d="m 0,210 h 10 v -5 h -5 v -5 h -5 z" />
  </g>
  <g
     id="Title block">
    <g
       id="Borders"
       style="fill:none;stroke:#000000;stroke-width:0.35;stroke-linecap:round;stroke-linejoin:round">
      <rect
         id="Frame"
         x="107"
         y="152"
         width="180"
         height="48"
         style="stroke-width:0.7" />
      <rect
         id="Owner border"
         x="247"
         y="152"
         width="40"
         height="24" />
      <rect
         id="Identification number border"
         x="187"
         y="176"
         width="60"
         height="12" />
      <rect
         id="Revision index border"
         x="247"
         y="188"
         width="20"
         height="12" />
      <rect
         id="Date of issue border"
         x="207"
         y="188"
         width="40"
         height="12" />
      <rect
         id="Sheet number border"
         x="267"
         y="188"
         width="20"
         height="12" />
      <rect
         id="Title border"
         x="107"
         y="152"
         width="80"
         height="24" />
      <rect
         id="Responsible department border"
         x="247"
         y="176"
         width="40"
         height="12" />
      <rect
         id="Approval person border"
         x="187"
         y="164"
         width="60"
         height="12" />
      <rect
         id="Document type border"
         x="107"
         y="176"
         width="80"
         height="12" />
      <rect
         id="Creator border"
         x="187"
         y="152"
         width="60"
         height="12" />
      <rect
         id="Document status border"
         x="107"
         y="188"
         width="80"
         height="12" />
      <rect
         id="Paper size border"
         x="187"
         y="188"
         width="20"
         height="12" />
    </g>
    <g
       id="Labels"
       style="font-size:3.5px;font-family:osifont;text-anchor:start;fill:#000000;stroke:none">
      <text
         id="Owner label"
         x="247.5"
         y="155.6">Propietari legal:</text>
      <text
         id="Identification number label"
         x="187.5"
         y="179.6">Número de dibuix:</text>
      <text
         id="Revision index label"
         x="247.5"
         y="191.6">Revisió:</text>
      <text
         id="Date of issue label"
         x="207.5"
         y="191.6">Data:</text>
      <text
         id="Sheet number label"
         x="267.5"
         y="191.6">Pàgina:</text>
      <text
         id="Title label"
         x="107.5"
         y="155.6">Títol, títol suplementari:</text>
      <text
         id="Responsible department label"
         x="247.5"
         y="179.6">Department:</text>
      <text
         id="Approval person label"
         x="187.5"
         y="167.6">Aprovat:</text>
      <text
         id="Document type label"
         x="107.5"
         y="179.6">Tipus de document:</text>
      <text
         id="Creator label"
         x="187.5"
         y="155.6">Creat:</text>
      <text
         id="Document status label"
         x="107.5"
         y="191.6">Estat del document:</text>
      <text
         id="Paper size label"
         x="187.5"
         y="191.6">Format:</text>
      <text
         id="Sheet scale label"
         x="227.5"
         y="143.6">Escala:</text>
      <text
         id="General tolerances label"
         x="187.5"
         y="143.6">Toleràncies generals:</text>
      <text
         id="Part material label"
         x="107.5"
         y="143.6">Material:</text>
    </g>
    <g
       id="Data fields"
       style="font-size:5px;font-family:osifont;text-anchor:start;fill:#000000;stroke:none">
      <text
         id="Identification number data field"
         x="188"
         y="185.2"
         freecad:editable="drawing_number"><tspan
           id="tspan1">ND</tspan></text>
      <text
         id="Revision index data field"
         x="257"
         y="197.2"
         style="text-align:center;text-anchor:middle"
         freecad:editable="revision_index"><tspan
           id="tspan2">AAA</tspan></text>
      <text
         id="Date of issue data field"
         x="208"
         y="197.2"
         freecad:editable="issue_date"
         freecad:autofill="date"><tspan
           id="tspan3">DD/MM/AAAA</tspan></text>
      <text
         id="Sheet number data field"
         x="277"
         y="197.2"
         style="text-align:center;text-anchor:middle"
         freecad:editable="sheet_number"
         freecad:autofill="sheet"><tspan
           id="tspan4">X / Y</tspan></text>
      <text
         id="Title data field"
         x="108"
         y="161.2"
         freecad:editable="title"
         freecad:autofill="title"><tspan
           id="tspan5">Títol del dibuix</tspan></text>
      <text
         id="Supplementary title 1 data field"
         x="108"
         y="167.2"
         freecad:editable="supplementary_title_1"><tspan
           id="tspan6">TS1</tspan></text>
      <text
         id="Supplementary title 2 data field"
         x="108"
         y="173.2"
         freecad:editable="supplementary_title_2"><tspan
           id="tspan7">TS2</tspan></text>
      <text
         id="Responsible department data field"
         x="248"
         y="185.2"
         freecad:editable="responsible_department"><tspan
           id="tspan8">DR</tspan></text>
      <text
         id="Approval person data field"
         x="188"
         y="173.2"
         freecad:editable="approved_by"><tspan
           id="tspan9">Víctor Sauler Roure</tspan></text>
      <text
         id="Document type data field"
         x="108"
         y="185.2"
         freecad:editable="document_type"><tspan
           id="tspan10">Plànol de conjunt</tspan></text>
      <text
         id="Creator data field"
         x="188"
         y="161.2"
         freecad:editable="created_by"
         freecad:autofill="author"><tspan
           id="tspan11">Núria Sauler Roure</tspan></text>
      <text
         id="Document status data field"
         x="108"
         y="197.2"
         freecad:editable="document_status"><tspan
           id="tspan12">En preparació</tspan></text>
      <text
         id="Paper size data field"
         x="197"
         y="197.2"
         style="text-align:center;text-anchor:middle">A4</text>
      <text
         id="Sheet scale data field"
         x="237"
         y="149.2"
         style="text-align:center;text-anchor:middle"
         freecad:editable="scale"
         freecad:autofill="scale"><tspan
           id="tspan13">1 : 1</tspan></text>
      <text
         id="General tolerances data field"
         x="188"
         y="149.2"
         freecad:editable="general_tolerances"><tspan
           id="tspan14">ISO 2768-m</tspan></text>
      <text
         id="Part material data field"
         x="108"
         y="149.2"
         freecad:editable="general_notes"><tspan
           id="tspan15">Acer inoxidable EN 1.4301</tspan></text>
    </g>
    <g
       id="Outlines"
       style="fill:none;stroke:#000000;stroke-width:0.5;stroke-linecap:round;stroke-linejoin:round">
      <path
         id="Trapezoid"
         d="m 266,135 -10,2.5 v 5 l 10,2.5 z" />
      <circle
         id="Inner circle"
         cx="273"
         r="2.5"
         cy="140" />
      <circle
         id="Outer circle"
         cx="273"
         r="5"
         cy="140" />
    </g>
    <g
       id="Centre lines"
       style="fill:none;stroke:#000000;stroke-width:0.25;stroke-linecap:round;stroke-linejoin:round;stroke-dasharray:6, 0.75, 0.125, 0.75">
      <path
         id="Horizontal"
         d="m 255,140 h 24"
         style="stroke-dashoffset:0.25" />
      <path
         id="Vertical"
         d="m 273,146 v -12"
         style="stroke-dashoffset:4.625" />
    </g>
  </g>
</svg>
