<?xml version="1.0" encoding="UTF-8" standalone="no"?>
<svg
   width="210mm"
   height="297mm"
   viewBox="0 0 210 297"
   version="1.1"
   id="svg1"
   xmlns="http://www.w3.org/2000/svg"
   xmlns:svg="http://www.w3.org/2000/svg"
   xmlns:rdf="http://www.w3.org/1999/02/22-rdf-syntax-ns#"
   xmlns:cc="http://creativecommons.org/ns#"
   xmlns:dc="http://purl.org/dc/elements/1.1/"
   xmlns:freecad="http://www.freecad.org/wiki/index.php?title=Svg_Namespace">
  <defs
     id="defs11" />
  <title
     id="title1">Drawing sheet ISO 5457 - A4T</title>
  <metadata
     id="metadata1">
    <rdf:RDF>
      <cc:Work
         rdf:about="">
        <dc:title>Drawing sheet ISO 5457 - A4T</dc:title>
        <cc:license
           rdf:resource="http://creativecommons.org/publicdomain/zero/1.0/" />
      </cc:Work>
      <cc:License
         rdf:about="http://creativecommons.org/publicdomain/zero/1.0/">
        <cc:permits
           rdf:resource="http://creativecommons.org/ns#Reproduction" />
        <cc:permits
           rdf:resource="http://creativecommons.org/ns#Distribution" />
        <cc:permits
           rdf:resource="http://creativecommons.org/ns#DerivativeWorks" />
      </cc:License>
    </rdf:RDF>
  </metadata>
  <rect
     id="Drawing space frame"
     x="20"
     y="10"
     width="180"
     height="277"
     style="fill:none;stroke:#000000;stroke-width:0.7;stroke-linecap:round;stroke-linejoin:round" />
  <g
     id="Centring marks"
     style="fill:none;stroke:#000000;stroke-width:0.7;stroke-linecap:round">
    <path
       id="Top"
       d="m 105,5 v 10" />
    <path
       id="Right"
       d="m 205,148.5 h -10" />
    <path
       id="Bottom"
       d="m 105,292 v -10" />
    <path
       id="Left"
       d="m 15,148.5 h 10" />
  </g>
  <g
     id="Grid reference system">
    <g
       id="Grid reference borders"
       style="fill:none;stroke:#000000;stroke-width:0.35;stroke-linecap:round;stroke-linejoin:round">
      <rect
         id="Grid reference border"
         x="15"
         y="5"
         width="190"
         height="287" />
      <path
         id="path46"
         d="m 15,98.5 h 5" />
      <path
         id="path47"
         d="m 15,48.5 h 5" />
      <path
         id="path49"
         d="m 15,198.5 h 5" />
      <path
         id="path50"
         d="m 15,248.5 h 5" />
      <path
         id="path53"
         d="m 200,98.5 h 5" />
      <path
         id="path54"
         d="m 200,48.5 h 5" />
      <path
         id="path55"
         d="m 200,198.5 h 5" />
      <path
         id="path56"
         d="m 200,248.5 h 5" />
      <path
         id="path31"
         d="m 155,5 v 5" />
      <path
         id="path35"
         d="m 55,5 v 5" />
      <path
         id="path38"
         d="m 155,287 v 5" />
      <path
         id="path42"
         d="m 55,287 v 5" />
    </g>
    <g
       id="Grid reference markers"
       style="fill:#000000;stroke:none">
      <path
         id="text36"
         aria-label="1"
         d="m 30.00684,6.2618504 q 0.05811,-0.054687 0.121338,-0.054687 0.128173,0 0.128173,0.1418457 v 2.2849121 q 0,0.1452636 -0.123046,0.1452636 -0.126465,0 -0.126465,-0.1469726 0,0 0,-2.0148926 l -0.297364,0.2973633 q -0.04614,0.046143 -0.09229,0.046143 -0.129882,0 -0.129882,-0.114502 0,-0.058105 0.04956,-0.107666 z" />
      <path
         id="text53"
         aria-label="C"
         d="m 202.53079,122.19853 q 0,0 0.52295,0 0.12647,0 0.12647,0.12818 0,0.12988 -0.13672,0.12988 h -0.51441 q -0.14355,0 -0.27856,0.12475 -0.10254,0.0957 -0.10254,0.25635 v 1.30567 q 0,0.16064 0.10767,0.27685 0.11279,0.11963 0.23413,0.11963 h 0.57422 q 0.12304,0 0.12304,0.12476 0,0.11792 -0.12475,0.11792 h -0.58277 q -0.23584,0 -0.44092,-0.2273 -0.14013,-0.15552 -0.14013,-0.39819 v -1.33814 q 0,-0.25634 0.20166,-0.44604 0.18457,-0.17432 0.43066,-0.17432 z" />
      <path
         id="text54"
         aria-label="B"
         d="m 203.29642,74.001511 q 0,0.375976 -0.23926,0.581054 -0.23755,0.205078 -0.44946,0.205078 h -0.75025 q -0.11963,0 -0.11963,-0.155517 v -2.264404 q 0,-0.160645 0.15894,-0.160645 h 0.5332 q 0.32471,0 0.47339,0.129883 0.25977,0.227295 0.25977,0.516113 0,0.314453 -0.23926,0.502442 0.15893,0.09229 0.26489,0.264892 0.10767,0.172608 0.10767,0.381104 z m -1.29541,-0.492188 v 1.040772 h 0.5332 q 0.23242,0 0.37256,-0.160645 0.14014,-0.160644 0.14014,-0.355469 0,-0.194824 -0.1316,-0.360595 -0.12988,-0.164063 -0.37597,-0.164063 z m 0,-1.047607 v 0.781006 h 0.52124 q 0.19653,0 0.29394,-0.105957 0.0991,-0.107666 0.0991,-0.266602 0,-0.160645 -0.10424,-0.283691 -0.10425,-0.124756 -0.29566,-0.124756 z" />
      <path
         id="text55"
         aria-label="A"
         d="m 202.38895,22.301064 q 0.0308,-0.09399 0.11963,-0.09399 0.0854,0 0.11621,0.09399 l 0.76391,2.296875 q 0.0154,0.04614 0.0154,0.0752 0,0.10083 -0.12304,0.114502 -0.0906,0 -0.12818,-0.112793 0,0 -0.17431,-0.540039 h -0.94678 l -0.18628,0.553711 q -0.0359,0.104248 -0.11621,0.104248 -0.1333,0 -0.1333,-0.124756 0,-0.01709 0.0376,-0.128174 z m 0.11279,0.425537 -0.39307,1.167236 h 0.78784 z" />
      <path
         id="text56"
         aria-label="D"
         d="m 201.97794,174.54153 q 0,0 0.59301,0 0.22901,0 0.3418,-0.11792 0.1145,-0.11962 0.1145,-0.29223 v -1.28345 q 0,-0.1521 -0.11108,-0.27344 -0.11109,-0.12133 -0.29395,-0.12133 h -0.64428 z m -0.25122,-2.19433 q 0,-0.14014 0.14184,-0.14014 h 0.80151 q 0.23584,0 0.41871,0.18457 0.18457,0.18457 0.18457,0.4187 v 1.37915 q 0,0.23413 -0.18457,0.417 -0.18457,0.18115 -0.39478,0.18115 h -0.85278 q -0.1145,0 -0.1145,-0.1521 z" />
      <path
         id="text57"
         aria-label="E"
         d="m 202.14542,224.53299 h 0.91088 q 0.12647,0 0.12647,0.12305 0,0.12304 -0.12134,0.12304 h -1.04931 q -0.1128,0 -0.1128,-0.12817 v -2.31909 q 0,-0.1333 0.1521,-0.1333 h 0.99634 q 0.13843,0 0.13843,0.12475 0,0.12305 -0.13843,0.12305 h -0.90234 v 0.79639 h 0.65966 q 0.12476,0 0.12476,0.12304 0,0.11621 -0.12134,0.11621 h -0.66308 z" />
      <path
         id="text58"
         aria-label="F"
         d="m 202.15225,273.48367 v 1.15699 q 0,0.14013 -0.12817,0.14013 -0.12476,0 -0.12476,-0.14184 0,0 0,-2.3208 0,-0.11963 0.1333,-0.11963 0,0 1.01856,0 0.13501,0 0.13501,0.12304 0,0.12305 -0.1333,0.12305 h -0.89893 v 0.78955 h 0.89893 q 0.1333,0 0.1333,0.12476 0,0.12475 -0.13501,0.12475 z" />
      <path
         id="text31"
         aria-label="3"
         d="m 129.49585,6.1986179 q 0,0 0.53491,0 0.23242,0 0.41699,0.1999512 0.1709,0.1845703 0.1709,0.4323731 0,0.3110351 -0.2666,0.5314941 0.25977,0.1879883 0.25977,0.4631348 0,0 0,0.3759765 0,0.220459 -0.1897,0.4101563 -0.16748,0.1674804 -0.4375,0.1674804 0,0 -0.50928,0 -0.14526,0 -0.14526,-0.1264648 0,-0.114502 0.15381,-0.114502 0,0 0.45117,0 0.20679,0 0.32641,-0.1230468 0.11109,-0.114502 0.11109,-0.2990723 v -0.222168 q 0,-0.1743164 -0.10254,-0.2819824 -0.12476,-0.1315918 -0.2666,-0.1315918 h -0.25977 q -0.14184,0 -0.14184,-0.1281738 0,-0.112793 0.14355,-0.112793 h 0.23071 q 0.16065,0 0.27515,-0.1162109 0.12134,-0.1230469 0.12134,-0.2802735 0,-0.1606445 -0.0974,-0.2597656 -0.1333,-0.1350097 -0.27344,-0.1350097 h -0.50586 q -0.15894,0 -0.15894,-0.1281739 0,-0.1213379 0.15894,-0.1213379 z" />
      <path
         id="text32"
         aria-label="4"
         d="m 179.78893,6.2943211 q 0.0273,-0.095703 0.12646,-0.095703 0.11792,0 0.11792,0.11792 0,0.029053 -0.012,0.068359 l -0.46656,1.6269532 h 0.62378 V 7.6392918 q 0,-0.1435547 0.12476,-0.1435547 0.12134,0 0.12134,0.1538086 v 0.3640136 q 0,0 0.26318,0 0.12476,0 0.12476,0.1350098 0,0.109375 -0.12989,0.109375 h -0.25805 v 0.3862305 q 0,0.1384277 -0.12647,0.1384277 -0.11963,0 -0.11963,-0.1333008 V 8.2630711 h -0.78442 q -0.12134,0 -0.12134,-0.114502 0,-0.037598 0.0239,-0.1230469 z" />
      <path
         id="text35"
         aria-label="2"
         d="m 79.488167,6.8411961 q -0.133301,0 -0.133301,-0.1196289 0,-0.037598 0.03076,-0.099121 0.107666,-0.2119141 0.247802,-0.3024903 0.174317,-0.1127929 0.367432,-0.1127929 0.324707,0 0.509277,0.2478027 0.13501,0.1811523 0.13501,0.3896484 0,0.1828614 -0.112793,0.3657227 l -0.828857,1.3381348 h 0.810058 q 0.128174,0 0.128174,0.1281738 0,0.111084 -0.140136,0.111084 h -0.99292 q -0.1521,0 -0.1521,-0.109375 0,-0.047852 0.02222,-0.08374 l 0.919433,-1.4816894 q 0.09399,-0.1520996 0.09399,-0.2683106 0,-0.1469726 -0.09399,-0.2563476 -0.114502,-0.1333008 -0.305908,-0.1333008 -0.237549,0 -0.384521,0.2802734 -0.0564,0.1059571 -0.119629,0.1059571 z" />
    </g>
  </g>
  <g
     id="Trimming marks"
     style="fill:#000000;stroke:none">
    <path
       id="Top left"
       d="m 0,0 h 10 v 5 h -5 v 5 h -5 z" />
    <path
       id="Top right"
       d="m 210,0 h -10 v 5 h 5 v 5 h 5 z" />
    <path
       id="Bottom right"
       d="m 210,297 h -10 v -5 h 5 v -5 h 5 z" />
    <path
       id="Bottom left"
       d="m 0,297 h 10 v -5 h -5 v -5 h -5 z" />
  </g>
  <g
     id="Title block">
    <g
       id="Borders"
       style="fill:none;stroke:#000000;stroke-width:0.35;stroke-linecap:round;stroke-linejoin:round">
      <rect
         id="Frame"
         x="20"
         y="251"
         width="180"
         height="36"
         style="stroke-width:0.7" />
      <rect
         id="Owner border"
         x="160"
         y="251"
         width="40"
         height="24" />
      <rect
         id="Identification number border"
         x="20"
         y="275"
         width="80"
         height="12" />
      <rect
         id="Revision index border"
         x="160"
         y="275"
         width="20"
         height="12" />
      <rect
         id="Date of issue border"
         x="120"
         y="275"
         width="40"
         height="12" />
      <rect
         id="Sheet number border"
         x="180"
         y="275"
         width="20"
         height="12" />
      <rect
         id="Title border"
         x="20"
         y="251"
         width="80"
         height="12" />
      <rect
         id="Approval person border"
         x="100"
         y="263"
         width="60"
         height="12" />
      <rect
         id="Creator border"
         x="100"
         y="251"
         width="60"
         height="12" />
      <rect
         id="Document type border"
         x="20"
         y="263"
         width="80"
         height="12" />
      <rect
         id="Paper size border"
         x="100"
         y="275"
         width="20"
         height="12" />
    </g>
    <g
       id="Labels"
       style="font-size:3.5px;font-family:osifont;text-anchor:start;fill:#000000;stroke:none">
      <text
         id="Owner label"
         x="160.5"
         y="254.6">Propietari legal:</text>
      <text
         id="Identification number label"
         x="20.5"
         y="278.6">Número de dibuix:</text>
      <text
         id="Revision index label"
         x="160.5"
         y="278.6">Revisió:</text>
      <text
         id="Date of issue label"
         x="120.5"
         y="278.6">Data:</text>
      <text
         id="Sheet number label"
         x="180.5"
         y="278.6">Pàgina:</text>
      <text
         id="Title label"
         x="20.5"
         y="254.6">Títol:</text>
      <text
         id="Approval person label"
         x="100.5"
         y="266.6">Aprovat:</text>
      <text
         id="Creator label"
         x="100.5"
         y="254.6">Creat:</text>
      <text
         id="Document type label"
         x="20.5"
         y="266.6">Tipus de document:</text>
      <text
         id="Paper size label"
         x="100.5"
         y="278.6">Format:</text>
      <text
         id="Sheet scale label"
         x="140.5"
         y="242.6">Escala:</text>
      <text
         id="General tolerances label"
         x="100.5"
         y="242.6">Toleràncies generals:</text>
      <text
         id="Part material label"
         x="20.5"
         y="242.6">Material:</text>
    </g>
    <g
       id="Data fields"
       style="font-size:5px;font-family:osifont;text-anchor:start;fill:#000000;stroke:none">
      <text
         id="Identification number data field"
         x="21"
         y="284.2"
         freecad:editable="drawing_number"><tspan
           id="tspan1">ND</tspan></text>
      <text
         id="Revision index data field"
         x="170"
         y="284.2"
         style="text-align:center;text-anchor:middle"
         freecad:editable="revision_index"><tspan
           id="tspan2">AAA</tspan></text>
      <text
         id="Date of issue data field"
         x="121"
         y="284.2"
         freecad:editable="issue_date"
         freecad:autofill="date"><tspan
           id="tspan3">DD/MM/AAAA</tspan></text>
      <text
         id="Sheet number data field"
         x="190"
         y="284.2"
         style="text-align:center;text-anchor:middle"
         freecad:editable="sheet_number"
         freecad:autofill="sheet"><tspan
           id="tspan4">X / Y</tspan></text>
      <text
         id="Title data field"
         x="21"
         y="260.2"
         freecad:editable="title"
         freecad:autofill="title"><tspan
           id="tspan5">Títol del dibuix</tspan></text>
      <text
         id="Approval person data field"
         x="101"
         y="272.2"
         freecad:editable="approved_by"><tspan
           id="tspan6">Víctor Sauler Roure</tspan></text>
      <text
         id="Creator data field"
         x="101"
         y="260.2"
         freecad:editable="created_by"
         freecad:autofill="author"><tspan
           id="tspan7">Núria Sauler Roure</tspan></text>
      <text
         id="Document type data field"
         x="21"
         y="272.2"
         freecad:editable="document_type"><tspan
           id="tspan8">Plànol de conjunt</tspan></text>
      <text
         id="Paper size data field"
         x="110"
         y="284.2"
         style="text-align:center;text-anchor:middle">A4</text>
      <text
         id="Sheet scale data field"
         x="150"
         y="248.2"
         style="text-align:center;text-anchor:middle"
         freecad:editable="scale"
         freecad:autofill="scale"><tspan
           id="tspan9">1 : 1</tspan></text>
      <text
         id="General tolerances data field"
         x="101"
         y="248.2"
         freecad:editable="general_tolerances"><tspan
           id="tspan10">ISO 2768-m</tspan></text>
      <text
         id="Part material data field"
         x="21"
         y="248.2"
         freecad:editable="general_notes"><tspan
           id="tspan11">Acer inoxidable EN 1.4301</tspan></text>
    </g>
    <g
       id="Outlines"
       style="fill:none;stroke:#000000;stroke-width:0.5;stroke-linecap:round;stroke-linejoin:round">
      <path
         id="Trapezoid"
         d="m 179,234 -10,2.5 v 5 l 10,2.5 z" />
      <circle
         id="Inner circle"
         cx="186"
         r="2.5"
         cy="239" />
      <circle
         id="Outer circle"
         cx="186"
         r="5"
         cy="239" />
    </g>
    <g
       id="Centre lines"
       style="fill:none;stroke:#000000;stroke-width:0.25;stroke-linecap:round;stroke-linejoin:round;stroke-dasharray:6, 0.75, 0.125, 0.75">
      <path
         id="Horizontal"
         d="m 168,239 h 24"
         style="stroke-dashoffset:0.25" />
      <path
         id="Vertical"
         d="m 186,245 v -12"
         style="stroke-dashoffset:4.625" />
    </g>
  </g>
</svg>
