<?xml version="1.0" encoding="UTF-8"?>
<svg id="svg397" width="1189mm" height="841mm" version="1.1" viewBox="0 0 1189 841" xmlns="http://www.w3.org/2000/svg" xmlns:cc="http://creativecommons.org/ns#" xmlns:dc="http://purl.org/dc/elements/1.1/" xmlns:freecad="http://www.freecad.org/wiki/index.php?title=Svg_Namespace" xmlns:rdf="http://www.w3.org/1999/02/22-rdf-syntax-ns#">
 <metadata id="metadata403">
  <rdf:RDF>
   <cc:Work rdf:about="">
    <dc:format>image/svg+xml</dc:format>
    <dc:type rdf:resource="http://purl.org/dc/dcmitype/StillImage"/>
   </cc:Work>
  </rdf:RDF>
 </metadata>
 <g id="orientation-border" fill="none" stroke="#000" stroke-linecap="miter" stroke-width=".2">
  <rect id="rect2" x="20" y="10" width="1159" height="821"/>
  <!-- orientation separators top -->
  <path id="path4" d="m86 10v4"/>
  <path id="path6" d="m143 10v4"/>
  <path id="path8" d="m200 10v4"/>
  <path id="path10" d="m257 10v4"/>
  <path id="path12" d="m314 10v4"/>
  <path id="path14" d="m371 10v4"/>
  <path id="path16" d="m428 10v4"/>
  <path id="path18" d="m485 10v4"/>
  <path id="path20" d="m542 10v4"/>
  <path id="path22" d="m599 10v4"/>
  <path id="path24" d="m656 10v4"/>
  <path id="path26" d="m713 10v4"/>
  <path id="path28" d="m770 10v4"/>
  <path id="path30" d="m827 10v4"/>
  <path id="path32" d="m884 10v4"/>
  <path id="path34" d="m941 10v4"/>
  <path id="path36" d="m998 10v4"/>
  <path id="path38" d="m1055 10v4"/>
  <path id="path40" d="m1112 10v4"/>
  <!-- orientation separators left -->
  <path id="path42" d="m20 79h4"/>
  <path id="path44" d="m20 136h4"/>
  <path id="path46" d="m20 193h4"/>
  <path id="path48" d="m20 250h4"/>
  <path id="path50" d="m20 307h4"/>
  <path id="path52" d="m20 364h4"/>
  <path id="path54" d="m20 421h4"/>
  <path id="path56" d="m20 478h4"/>
  <path id="path58" d="m20 535h4"/>
  <path id="path60" d="m20 592h4"/>
  <path id="path62" d="m20 649h4"/>
  <path id="path64" d="m20 706h4"/>
  <path id="path66" d="m20 763h4"/>
  <!-- orientation separators right -->
  <path id="path68" d="m1175 79h4"/>
  <path id="path70" d="m1175 136h4"/>
  <path id="path72" d="m1175 193h4"/>
  <path id="path74" d="m1175 250h4"/>
  <path id="path76" d="m1175 307h4"/>
  <path id="path78" d="m1175 364h4"/>
  <path id="path80" d="m1175 421h4"/>
  <path id="path82" d="m1175 478h4"/>
  <path id="path84" d="m1175 535h4"/>
  <path id="path86" d="m1175 592h4"/>
  <path id="path88" d="m1175 649h4"/>
  <path id="path90" d="m1175 706h4"/>
  <path id="path92" d="m1175 763h4"/>
  <!-- orientation separators bottom -->
  <path id="path94" d="m86 827v4"/>
  <path id="path96" d="m143 827v4"/>
  <path id="path98" d="m200 827v4"/>
  <path id="path100" d="m257 827v4"/>
  <path id="path102" d="m314 827v4"/>
  <path id="path104" d="m371 827v4"/>
  <path id="path106" d="m428 827v4"/>
  <path id="path108" d="m485 827v4"/>
  <path id="path110" d="m542 827v4"/>
  <path id="path112" d="m599 827v4"/>
  <path id="path114" d="m656 827v4"/>
  <path id="path116" d="m713 827v4"/>
  <path id="path118" d="m770 827v4"/>
  <path id="path120" d="m827 827v4"/>
  <path id="path122" d="m884 827v4"/>
  <path id="path124" d="m941 827v4"/>
  <path id="path126" d="m998 827v4"/>
  <path id="path128" d="m1055 827v4"/>
  <path id="path130" d="m1112 827v4"/>
 </g>
 <g id="orientation-text" font-family="tahoma" font-size="3px">
  <!-- orientation char top -->
  <text id="text133" x="57" y="13">1</text>
  <text id="text135" x="114" y="13">2</text>
  <text id="text137" x="171" y="13">3</text>
  <text id="text139" x="228" y="13">4</text>
  <text id="text141" x="285" y="13">5</text>
  <text id="text143" x="342" y="13">6</text>
  <text id="text145" x="399" y="13">7</text>
  <text id="text147" x="456" y="13">8</text>
  <text id="text149" x="513" y="13">9</text>
  <text id="text151" x="569" y="13">10</text>
  <text id="text153" x="626" y="13">11</text>
  <text id="text155" x="683" y="13">12</text>
  <text id="text157" x="740" y="13">13</text>
  <text id="text159" x="797" y="13">14</text>
  <text id="text161" x="854" y="13">15</text>
  <text id="text163" x="911" y="13">16</text>
  <text id="text165" x="968" y="13">17</text>
  <text id="text167" x="1025" y="13">18</text>
  <text id="text169" x="1082" y="13">19</text>
  <text id="text171" x="1139" y="13">20</text>
  <!-- orientation char left -->
  <text id="text173" x="21" y="51">A</text>
  <text id="text175" x="21" y="108">B</text>
  <text id="text177" x="21" y="165">C</text>
  <text id="text179" x="21" y="222">D</text>
  <text id="text181" x="21" y="279">E</text>
  <text id="text183" x="21" y="336">F</text>
  <text id="text185" x="21" y="393">G</text>
  <text id="text187" x="21" y="450">H</text>
  <text id="text189" x="21" y="507">I</text>
  <text id="text191" x="21" y="564">K</text>
  <text id="text193" x="21" y="621">L</text>
  <text id="text195" x="21" y="678">M</text>
  <text id="text197" x="21" y="735">N</text>
  <text id="text199" x="21" y="792">O</text>
  <!-- orientation char left -->
  <text id="text201" x="1176" y="51">A</text>
  <text id="text203" x="1176" y="108">B</text>
  <text id="text205" x="1176" y="165">C</text>
  <text id="text207" x="1176" y="222">D</text>
  <text id="text209" x="1176" y="279">E</text>
  <text id="text211" x="1176" y="336">F</text>
  <text id="text213" x="1176" y="393">G</text>
  <text id="text215" x="1176" y="450">H</text>
  <text id="text217" x="1176" y="507">I</text>
  <text id="text219" x="1176" y="564">K</text>
  <text id="text221" x="1176" y="621">L</text>
  <text id="text223" x="1176" y="678">M</text>
  <text id="text225" x="1176" y="735">N</text>
  <text id="text227" x="1176" y="792">O</text>
  <!-- orientation char bottom -->
  <text id="text229" x="57" y="830">1</text>
  <text id="text231" x="114" y="830">2</text>
  <text id="text233" x="171" y="830">3</text>
  <text id="text235" x="228" y="830">4</text>
  <text id="text237" x="285" y="830">5</text>
  <text id="text239" x="342" y="830">6</text>
  <text id="text241" x="399" y="830">7</text>
  <text id="text243" x="456" y="830">8</text>
  <text id="text245" x="513" y="830">9</text>
  <text id="text247" x="569" y="830">10</text>
  <text id="text249" x="626" y="830">11</text>
  <text id="text251" x="683" y="830">12</text>
  <text id="text253" x="740" y="830">13</text>
  <text id="text255" x="797" y="830">14</text>
  <text id="text257" x="854" y="830">15</text>
  <text id="text259" x="911" y="830">16</text>
  <text id="text261" x="968" y="830">17</text>
  <text id="text263" x="1025" y="830">18</text>
  <text id="text265" x="1082" y="830">19</text>
  <text id="text267" x="1139" y="830">20</text>
 </g>
 <g id="drawing-border" fill="none" stroke="#000" stroke-linecap="miter" stroke-width=".35">
  <rect id="rect270" x="24" y="14" width="1151" height="813"/>
 </g>
 <g id="titleblock-structure" fill="none" stroke="#000" stroke-linecap="miter" stroke-width=".35">
  <rect id="rect273" x="1035" y="793" width="140" height="34"/>
  <path id="path275" d="m1035 801h140"/>
  <!-- upper horizontal Separator Titleblock -->
  <path id="path277" d="m1035 819h87"/>
  <!-- lower horizontal Separator Document-Type -->
  <path id="path279" d="m1035 823h140"/>
  <!-- lower horizontal Separator Copyright -->
  <path id="path281" d="m1080 793v8"/>
  <!-- Separator Author / Owner -->
  <path id="path283" d="m1122 793v30"/>
  <!-- Separator Title / Liste RH -->
  <path id="path285" d="m1152 793v8"/>
  <!-- Separator Scale / Sheet -->
  <path id="path287" d="m1122 809h53"/>
  <!-- Separator Part / Drawing-Nr -->
  <path id="path289" d="m1122 815h53"/>
  <!-- Separator DRW-Info / Revision -->
  <path id="path291" d="m1152 815v8"/>
  <!-- Separator Date / Revision -->
 </g>
 <g id="titleblock-text-non-editable" font-family="tahoma" font-size="3px">
  <text id="text294" x="1036" y="796">Author:</text>
  <text id="text296" x="1036" y="800">Appr.:</text>
  <text id="text298" x="1081" y="796">Legal owner:</text>
  <text id="text300" x="1036" y="805">TITLE:</text>
  <text id="text302" x="1036" y="822">Document type:</text>
  <text id="text304" x="1153" y="796">Sheet:</text>
  <text id="text306" x="1153" y="800">Size:</text>
  <text id="text308" x="1123" y="796">Scale:</text>
  <text id="text310" x="1123" y="800">Toler.:</text>
  <text id="text312" x="1123" y="804">Part material:</text>
  <text id="text314" x="1123" y="808">Part number:</text>
  <text id="text316" x="1123" y="813">Drawing no.:</text>
  <text id="text318" x="1123" y="818">Date:</text>
  <text id="text320" x="1153" y="818">Revision:</text>
 </g>
 <g id="titleblock-text-editable" font-family="tahoma" font-size="3px">
  <text id="text325" x="1047" y="796" freecad:editable="AUTHOR_NAME"><tspan id="tspan323">AUTHOR NAME</tspan></text>
  <text id="text329" x="1047" y="800" freecad:editable="APPROVER_NAME"><tspan id="tspan327">APPROVER NAME</tspan></text>
  <text id="text333" x="1082" y="800" freecad:editable="OWNER_NAME"><tspan id="tspan331">OWNER NAME</tspan></text>
  <text id="text337" x="1037" y="809" freecad:editable="TITLELINE-1"><tspan id="tspan335">FreeCAD</tspan></text>
  <text id="text341" x="1037" y="813" freecad:editable="TITLELINE-2"><tspan id="tspan339"/></text>
  <text id="text345" x="1037" y="817" freecad:editable="TITLELINE-3"><tspan id="tspan343"/></text>
  <text id="text349" x="1059" y="822" freecad:editable="DOCUMENT_TYPE"><tspan id="tspan347">Mechanical assembly drawing</tspan></text>
  <text id="text353" x="1162" y="796" freecad:editable="SHEET"><tspan id="tspan351">99 of 99</tspan></text>
  <text id="text357" x="1132" y="796" freecad:editable="SCALE"><tspan id="tspan355">M x:x</tspan></text>
  <text id="text361" x="1132" y="800" freecad:editable="TOLERANCE"><tspan id="tspan359">+/- ?</tspan></text>
  <text id="text365" x="1142" y="804" freecad:editable="PM"><tspan id="tspan363">PM</tspan></text>
  <text id="text369" x="1142" y="808" freecad:editable="PN"><tspan id="tspan367">PN</tspan></text>
  <text id="text373" x="1142" y="813" freecad:editable="DN"><tspan id="tspan371">DN</tspan></text>
  <text id="text377" x="1124" y="822" freecad:editable="DATE"><tspan id="tspan375">YYYY-MM-DD</tspan></text>
  <text id="text381" x="1154" y="822" freecad:editable="REVISION"><tspan id="tspan379">REV A</tspan></text>
  <text id="text385" x="1162" y="800" freecad:editable="SIZE"><tspan id="tspan383">A1</tspan></text>
  <text id="text389" x="1036" y="826" freecad:editable="RIGHTS"><tspan id="tspan387">(R) DO NOT DUPLICATE THIS DRAWING TO THIRD PARTIES WITHOUT OWNER'S PERMISSION !</tspan></text>
 </g>
 <!-- Set display:none to hide FreeCAD Logo or remove this and next 4 lines from this code -->
 <g id="freecad-logo" transform="translate(1023,816)" fill="none" fill-rule="evenodd" stroke="#000" stroke-width=".35">
  <path id="path392" d="m0.1524 0.15254v8.8549h1.9744v-3.4652h1.396v-1.3661h-1.396v-1.4745h3.4391v-2.5441l-5.4135-5e-3z"/>
  <path id="path394" d="m7.7927 3.4504-0.50715-0.176-0.48387-1.2366-0.76115 0.04-0.34718 1.2787-0.4859 0.23269-1.2119-0.53015-0.51188 0.56882 0.65892 1.1485-0.18006 0.50567-1.2366 0.48387 0.044064 0.76263 1.2787 0.34718 0.23269 0.4859-0.53421 1.2104 0.56882 0.51188 1.1485-0.65891 0.50973 0.18155 0.4798 1.2351 0.7667-0.04258 0.34311-1.2802 0.4859-0.23269 1.2145 0.5357 0.51188-0.56882-0.65891-1.1485 0.17748-0.51122 1.2351-0.4798-0.03851-0.76521-1.2802-0.34311-0.23269-0.4859 0.53163-1.216-0.56881-0.51184zm-0.5715 1.2244 0.23576 0.13679 0.20426 0.18519 0.16353 0.22101 0.11763 0.24572 0.06916 0.26489 0.01146 0.27146-0.03921 0.27139-0.08948 0.25764-0.14234 0.23834-0.17964 0.20167-0.22101 0.16353-0.24572 0.11763-0.26489 0.06916-0.27295 0.01553-0.2719-0.04-0.2576-0.089-0.2383-0.143-0.2002-0.183-0.165-0.217-0.1177-0.246-0.0676-0.269-0.0156-0.273 0.039206-0.2714 0.089484-0.25764 0.14085-0.23427 0.18113-0.20574 0.22101-0.16352 0.24572-0.11763 0.26895-0.06768 0.27147-0.01146 0.27139 0.03921 0.25764 0.08948z"/>
 </g>
</svg>
