<?xml version="1.0" encoding="UTF-8" standalone="no"?>

<svg
   width="1189mm"
   height="841mm"
   viewBox="0 0 1189 841"
   version="1.1"
   id="svg"
   xmlns="http://www.w3.org/2000/svg"
   xmlns:svg="http://www.w3.org/2000/svg"
   xmlns:rdf="http://www.w3.org/1999/02/22-rdf-syntax-ns#"
   xmlns:cc="http://creativecommons.org/ns#"
   xmlns:dc="http://purl.org/dc/elements/1.1/"
   xmlns:freecad="https://www.freecad.org/wiki/index.php?title=Svg_Namespace">
  <title id="title">Drawing sheet ISO 5457 - A0T - Advanced</title>
  <metadata id="metadata">
    <rdf:RDF>
      <cc:Work rdf:about="">
        <cc:license rdf:resource="http://creativecommons.org/publicdomain/zero/1.0/" />
        <dc:title>Drawing sheet ISO 5457 - A0T - Advanced</dc:title>
        <dc:creator>
          <cc:Agent>
            <dc:title>Benjamin May</dc:title>
          </cc:Agent>
        </dc:creator>
      </cc:Work>
      <cc:License rdf:about="http://creativecommons.org/publicdomain/zero/1.0/">
        <cc:permits rdf:resource="http://creativecommons.org/ns#Reproduction" />
        <cc:permits rdf:resource="http://creativecommons.org/ns#Distribution" />
        <cc:permits rdf:resource="http://creativecommons.org/ns#DerivativeWorks" />
      </cc:License>
    </rdf:RDF>
  </metadata>
  <rect id="drawing_space_frame" x="20" y="10" width="1159" height="821" style="fill:none;stroke:#000000;stroke-width:0.7;stroke-linecap:round;stroke-linejoin:round" />
  <g id="centring_marks" style="fill:none;stroke:#000000;stroke-width:0.7;stroke-linecap:round">
    <path id="top_centering" d="m 594.5,5 v 10" />
    <path id="right_centering" d="m 1184,420.5 h -10" />
    <path id="bottom_centering" d="m 594.5,836 v -10"  />
    <path id="left_centering" d="m 15,420.5 h 10" />
  </g>
  <g id="grid_reference_system">
    <g id="grid_reference_borders" style="fill:none;stroke:#000000;stroke-width:0.35;stroke-linecap:round;stroke-linejoin:round">
      <rect id="grid_reference_border"  x="15" y="5" width="1169" height="831" />
      <path id="upper_border_1" d="m 44.5,5 v 5"/>
      <path id="upper_border_2" d="m 94.5,5 v 5"/>
      <path id="upper_border_3" d="m 144.5,5 v 5"/>
      <path id="upper_border_4" d="m 194.5,5 v 5"/>
      <path id="upper_border_5" d="m 244.5,5 v 5"/>
      <path id="upper_border_6" d="m 294.5,5 v 5"/>
      <path id="upper_border_7" d="m 344.5,5 v 5"/>
      <path id="upper_border_8" d="m 394.5,5 v 5"/>
      <path id="upper_border_9" d="m 444.5,5 v 5"/>
      <path id="upper_border_10" d="m 494.5,5 v 5"/>
      <path id="upper_border_11" d="m 544.5,5 v 5"/>
      <path id="upper_border_13" d="m 644.5,5 v 5"/>
      <path id="upper_border_14" d="m 694.5,5 v 5"/>
      <path id="upper_border_15" d="m 744.5,5 v 5"/>
      <path id="upper_border_16" d="m 794.5,5 v 5"/>
      <path id="upper_border_17" d="m 844.5,5 v 5"/>
      <path id="upper_border_18" d="m 894.5,5 v 5"/>
      <path id="upper_border_19" d="m 944.5,5 v 5"/>
      <path id="upper_border_20" d="m 994.5,5 v 5"/>
      <path id="upper_border_21" d="m 1044.5,5 v 5"/>
      <path id="upper_border_22" d="m 1094.5,5 v 5"/>
      <path id="upper_border_23" d="m 1144.5,5 v 5"/>
      <path id="right_border_1" d="m 1184,70.5 h -5"/>
      <path id="right_border_2" d="m 1184,120.5 h -5"/>
      <path id="right_border_3" d="m 1184,170.5 h -5"/>
      <path id="right_border_4" d="m 1184,220.5 h -5"/>
      <path id="right_border_5" d="m 1184,270.5 h -5"/>
      <path id="right_border_6" d="m 1184,320.5 h -5"/>
      <path id="right_border_7" d="m 1184,370.5 h -5"/>
      <path id="right_border_9" d="m 1184,470.5 h -5"/>
      <path id="right_border_10" d="m 1184,520.5 h -5"/>
      <path id="right_border_11" d="m 1184,570.5 h -5"/>
      <path id="right_border_12" d="m 1184,620.5 h -5"/>
      <path id="right_border_13" d="m 1184,670.5 h -5"/>
      <path id="right_border_14" d="m 1184,720.5 h -5"/>
      <path id="right_border_15" d="m 1184,770.5 h -5"/>
      <path id="lower_border_1" d="m 44.5,836 v -5"/>
      <path id="lower_border_2" d="m 94.5,836 v -5"/>
      <path id="lower_border_3" d="m 144.5,836 v -5"/>
      <path id="lower_border_4" d="m 194.5,836 v -5"/>
      <path id="lower_border_5" d="m 244.5,836 v -5"/>
      <path id="lower_border_6" d="m 294.5,836 v -5"/>
      <path id="lower_border_7" d="m 344.5,836 v -5"/>
      <path id="lower_border_8" d="m 394.5,836 v -5"/>
      <path id="lower_border_9" d="m 444.5,836 v -5"/>
      <path id="lower_border_10" d="m 494.5,836 v -5"/>
      <path id="lower_border_11" d="m 544.5,836 v -5"/>
      <path id="lower_border_13" d="m 644.5,836 v -5"/>
      <path id="lower_border_14" d="m 694.5,836 v -5"/>
      <path id="lower_border_15" d="m 744.5,836 v -5"/>
      <path id="lower_border_16" d="m 794.5,836 v -5"/>
      <path id="lower_border_17" d="m 844.5,836 v -5"/>
      <path id="lower_border_18" d="m 894.5,836 v -5"/>
      <path id="lower_border_19" d="m 944.5,836 v -5"/>
      <path id="lower_border_20" d="m 994.5,836 v -5"/>
      <path id="lower_border_21" d="m 1044.5,836 v -5"/>
      <path id="lower_border_22" d="m 1094.5,836 v -5"/>
      <path id="lower_border_23" d="m 1144.5,836 v -5"/>
      <path id="left_border_1" d="m 15,70.5 h 5"/>
      <path id="left_border_2" d="m 15,120.5 h 5"/>
      <path id="left_border_3" d="m 15,170.5 h 5"/>
      <path id="left_border_4" d="m 15,220.5 h 5"/>
      <path id="left_border_5" d="m 15,270.5 h 5"/>
      <path id="left_border_6" d="m 15,320.5 h 5"/>
      <path id="left_border_7" d="m 15,370.5 h 5"/>
      <path id="left_border_9" d="m 15,470.5 h 5"/>
      <path id="left_border_10" d="m 15,520.5 h 5"/>
      <path id="left_border_11" d="m 15,570.5 h 5"/>
      <path id="left_border_12" d="m 15,620.5 h 5"/>
      <path id="left_border_13" d="m 15,670.5 h 5"/>
      <path id="left_border_14" d="m 15,720.5 h 5"/>
      <path id="left_border_15" d="m 15,770.5 h 5"/>
    </g>
    <g id="grid_reference_markers" style="font-size:3.5px;font-family:osifont;text-align:center;text-anchor:middle;fill:#000000;stroke:none">
      <text id="upper_marker_1" x="19.5" y="8.8">1</text>
      <text id="upper_marker_2" x="69.5" y="8.8">2</text>
      <text id="upper_marker_3" x="119.5" y="8.8">3</text>
      <text id="upper_marker_4" x="169.5" y="8.8">4</text>
      <text id="upper_marker_5" x="219.5" y="8.8">5</text>
      <text id="upper_marker_6" x="269.5" y="8.8">6</text>
      <text id="upper_marker_7" x="319.5" y="8.8">7</text>
      <text id="upper_marker_8" x="369.5" y="8.8">8</text>
      <text id="upper_marker_9" x="419.5" y="8.8">9</text>
      <text id="upper_marker_10" x="469.5" y="8.8">10</text>
      <text id="upper_marker_11" x="519.5" y="8.8">11</text>
      <text id="upper_marker_12" x="569.5" y="8.8">12</text>
      <text id="upper_marker_13" x="619.5" y="8.8">13</text>
      <text id="upper_marker_14" x="669.5" y="8.8">14</text>
      <text id="upper_marker_15" x="719.5" y="8.8">15</text>
      <text id="upper_marker_16" x="769.5" y="8.8">16</text>
      <text id="upper_marker_17" x="819.5" y="8.8">17</text>
      <text id="upper_marker_18" x="869.5" y="8.8">18</text>
      <text id="upper_marker_19" x="919.5" y="8.8">19</text>
      <text id="upper_marker_20" x="969.5" y="8.8">20</text>
      <text id="upper_marker_21" x="1019.5" y="8.8">21</text>
      <text id="upper_marker_22" x="1069.5" y="8.8">22</text>
      <text id="upper_marker_23" x="1119.5" y="8.8">23</text>
      <text id="upper_marker_24" x="1169.5" y="8.8">24</text>
      <text id="right_marker_1" x="1181.5" y="46.8">A</text>
      <text id="right_marker_2" x="1181.5" y="96.8">B</text>
      <text id="right_marker_3" x="1181.5" y="146.8">C</text>
      <text id="right_marker_4" x="1181.5" y="196.8">D</text>
      <text id="right_marker_5" x="1181.5" y="246.8">E</text>
      <text id="right_marker_6" x="1181.5" y="296.8">F</text>
      <text id="right_marker_7" x="1181.5" y="346.8">G</text>
      <text id="right_marker_8" x="1181.5" y="396.8">H</text>
      <text id="right_marker_9" x="1181.5" y="446.8">J</text>
      <text id="right_marker_10" x="1181.5" y="496.8">K</text>
      <text id="right_marker_11" x="1181.5" y="546.8">L</text>
      <text id="right_marker_12" x="1181.5" y="596.8">M</text>
      <text id="right_marker_13" x="1181.5" y="646.8">N</text>
      <text id="right_marker_14" x="1181.5" y="696.8">P</text>
      <text id="right_marker_15" x="1181.5" y="746.8">Q</text>
      <text id="right_marker_16" x="1181.5" y="796.8">R</text>
      <text id="lower_marker_1" x="19.5" y="834.8">1</text>
      <text id="lower_marker_2" x="69.5" y="834.8">2</text>
      <text id="lower_marker_3" x="119.5" y="834.8">3</text>
      <text id="lower_marker_4" x="169.5" y="834.8">4</text>
      <text id="lower_marker_5" x="219.5" y="834.8">5</text>
      <text id="lower_marker_6" x="269.5" y="834.8">6</text>
      <text id="lower_marker_7" x="319.5" y="834.8">7</text>
      <text id="lower_marker_8" x="369.5" y="834.8">8</text>
      <text id="lower_marker_9" x="419.5" y="834.8">9</text>
      <text id="lower_marker_10" x="469.5" y="834.8">10</text>
      <text id="lower_marker_11" x="519.5" y="834.8">11</text>
      <text id="lower_marker_12" x="569.5" y="834.8">12</text>
      <text id="lower_marker_13" x="619.5" y="834.8">13</text>
      <text id="lower_marker_14" x="669.5" y="834.8">14</text>
      <text id="lower_marker_15" x="719.5" y="834.8">15</text>
      <text id="lower_marker_16" x="769.5" y="834.8">16</text>
      <text id="lower_marker_17" x="819.5" y="834.8">17</text>
      <text id="lower_marker_18" x="869.5" y="834.8">18</text>
      <text id="lower_marker_19" x="919.5" y="834.8">19</text>
      <text id="lower_marker_20" x="969.5" y="834.8">20</text>
      <text id="lower_marker_21" x="1019.5" y="834.8">21</text>
      <text id="lower_marker_22" x="1069.5" y="834.8">22</text>
      <text id="lower_marker_23" x="1119.5" y="834.8">23</text>
      <text id="lower_marker_24" x="1169.5" y="834.8">A0</text>
      <text id="left_marker_1" x="17.5" y="46.8">A</text>
      <text id="left_marker_2" x="17.5" y="96.8">B</text>
      <text id="left_marker_3" x="17.5" y="146.8">C</text>
      <text id="left_marker_4" x="17.5" y="196.8">D</text>
      <text id="left_marker_5" x="17.5" y="246.8">E</text>
      <text id="left_marker_6" x="17.5" y="296.8">F</text>
      <text id="left_marker_7" x="17.5" y="346.8">G</text>
      <text id="left_marker_8" x="17.5" y="396.8">H</text>
      <text id="left_marker_9" x="17.5" y="446.8">J</text>
      <text id="left_marker_10" x="17.5" y="496.8">K</text>
      <text id="left_marker_11" x="17.5" y="546.8">L</text>
      <text id="left_marker_12" x="17.5" y="596.8">M</text>
      <text id="left_marker_13" x="17.5" y="646.8">N</text>
      <text id="left_marker_14" x="17.5" y="696.8">P</text>
      <text id="left_marker_15" x="17.5" y="746.8">Q</text>
      <text id="left_marker_16" x="17.5" y="796.8">R</text>
    </g>
  </g>
  <g id="trimming_marks" style="fill:#000000;stroke:none">
    <path id="top_left_trimming" d="m 0,0 h 10 v 5 h -5 v 5 h -5 z" />
    <path id="top_right_trimming" d="m 1189,0 h -10 v 5 h 5 v 5 h 5 z" />
    <path id="bottom_right_trimming" d="m 1189,841 h -10 v -5 h 5 v -5 h 5 z" />
    <path id="bottom_left_trimming" d="m 0,841 h 10 v -5 h -5 v -5 h -5 z" />
  </g>
<!-- Title block -->
  <g id="title_block_borders" style="fill:none;stroke:#000000;stroke-width:0.35;stroke-linecap:round;stroke-linejoin:round">
    <rect id="title_block_frame" x="999" y="783" width="180" height="48" style="stroke-width:0.7"/>
    <rect id="legal_owner_border" x="1139" y="783" width="40" height="24"/>
    <rect id="identification_number_border" x="1079" y="807" width="60" height="12"/>
    <rect id="revision_index_border" x="1139" y="819" width="20" height="12"/>
    <rect id="date_of_issue_border" x="1099" y="819" width="40" height="12"/>
    <rect id="sheet_number_border" x="1159" y="819" width="20" height="12"/>
    <rect id="language_code_border" x="1079" y="819" width="20" height="12"/>
    <rect id="title_border" x="999" y="783" width="80" height="24"/>
    <rect id="responsible_department_border" x="1139" y="807" width="40" height="12"/>
    <rect id="approval_person_border" x="1079" y="795" width="60" height="12"/>
    <rect id="creator_border" x="1079" y="783" width="60" height="12"/>
    <rect id="document_type_border" x="999" y="807" width="80" height="12"/>
    <rect id="document_status_border" x="999" y="819" width="80" height="12"/>
  </g>
  <g id="title_block_labels" style="font-size:3.5px;font-family:osifont;text-anchor:start;fill:#000000;stroke:none">
    <text id="legal_owner_label" x="1139.5" y="786.6">Owner:</text>
    <text id="identification_number_label" x="1079.5" y="810.6">Drawing number:</text>
    <text id="revision_index_label" x="1139.5" y="822.6">Revision:</text>
    <text id="date_of_issue_label" x="1099.5" y="822.6">Issue date:</text>
    <text id="sheet_number_label" x="1159.5" y="822.6">Sheet:</text>
    <text id="language_code_label" x="1079.5" y="822.6">Language:</text>
    <text id="title_label" x="999.5" y="786.6">Title, supplementary title:</text>
    <text id="responsible_department_label" x="1139.5" y="810.6">Responsible department:</text>
    <text id="approval_person_label" x="1079.5" y="798.6">Approved by:</text>
    <text id="creator_label" x="1079.5" y="786.6">Created by:</text>
    <text id="document_type label" x="999.5" y="810.6">Document type:</text>
    <text id="document_status_label" x="999.5" y="822.6">Document status:</text>
    <text id="sheet_scale_label" x="1119.5" y="774.6">Scale:</text>
    <text id="general_tolerances_label" x="1079.5" y="774.6">General tolerances:</text>
    <text id="part_material_label" x="999.5" y="774.6">Part Material:</text>
  </g>
  <g id="title_block_data_fields" style="font-size:5px;font-family:osifont;text-anchor:start;fill:#000000;stroke:none">
    <text id="legal_owner_1_data_field" x="1159" y="792.1" freecad:editable="legal_owner_1" freecad:autofill="organization" style="font-size:3.5px;text-align:center;text-anchor:middle"><tspan/></text>
    <text id="legal_owner_2_data_field" x="1159" y="796.1" freecad:editable="legal_owner_2" style="font-size:3.5px;text-align:center;text-anchor:middle"><tspan/></text>
    <text id="legal_owner_3_data_field" x="1159" y="800.1" freecad:editable="legal_owner_3" style="font-size:3.5px;text-align:center;text-anchor:middle"><tspan/></text>
    <text id="legal_owner_4_data_field" x="1159" y="804.1" freecad:editable="legal_owner_4" style="font-size:3.5px;text-align:center;text-anchor:middle"><tspan/></text>
    <text id="identification_number_data_field" x="1080" y="816.2" freecad:editable="drawing_number"><tspan>DN</tspan></text>
    <text id="revision_index_data_field" x="1149" y="828.2" freecad:editable="revision_index" style="text-align:center;text-anchor:middle"><tspan>AAA</tspan></text>
    <text id="date_of_issue_data_field" x="1100" y="828.2" freecad:editable="date_of_issue" freecad:autofill="date"><tspan>YYYY-MM-DD</tspan></text>
    <text id="sheet_number_data_field" x="1169" y="828.2" freecad:editable="sheet_number" freecad:autofill="sheet" style="text-align:center;text-anchor:middle"><tspan>X / Y</tspan></text>
    <text id="language_data_field" x="1089" y="828.2" freecad:editable="language_code" style="text-align:center;text-anchor:middle"><tspan>EN</tspan></text>
    <text id="title_data_field" x="1000" y="792.2" freecad:editable="title" freecad:autofill="title"><tspan>ISO 7200 titleblock</tspan></text>
    <text id="supplementary_title_1_data_field" x="1000" y="798.2" freecad:editable="supplementary_title_1"><tspan>ST1</tspan></text>
    <text id="supplementary_title_2_data_field" x="1000" y="804.2" freecad:editable="supplementary_title_2"><tspan>ST2</tspan></text>
    <text id="responsible_department_data_field" x="1140" y="816.2" freecad:editable="responsible_department"><tspan>RD</tspan></text>
    <text id="approval_person_data_field" x="1080" y="804.2" freecad:editable="approval_person"><tspan>B. Hecate</tspan></text>
    <text id="creator_data_field" x="1080" y="792.2" freecad:editable="creator" freecad:autofill="author"><tspan>A. Nemesis</tspan></text>
    <text id="document_type_data_field" x="1000" y="816.2" freecad:editable="document_type"><tspan>Component Drawing</tspan></text>
    <text id="document_status_data_field" x="1000" y="828.2" freecad:editable="document_status"><tspan>In preparation</tspan></text>
    <text id="sheet_scale_data_field" x="1129" y="780.2" freecad:editable="scale" freecad:autofill="scale" style="text-align:center;text-anchor:middle"><tspan>1 : 1</tspan></text>
    <text id="general_tolerances_data_field" x="1080" y="780.2" freecad:editable="general_tolerances"><tspan>ISO 2768-m</tspan></text>
    <text id="part_material_data_field" x="1000" y="780.2" freecad:editable="part_material"><tspan>Stainless steel Mat.No. 1.4301</tspan></text>
  </g>
  <g id="extras_outlines" style="fill:none;stroke:#000000;stroke-width:0.5;stroke-linecap:round;stroke-linejoin:round">
    <path id="first_angle_trapezoid" d="m 1158,766 -10,2.5 v 5 l 10,2.5 z"/>
    <circle id="first_angle_inner circle" cx="1165" cy="771" r="2.5"/>
    <circle id="first_angle_outer circle" cx="1165" cy="771" r="5"/>
  </g>
  <g id="extras_centre_lines" style="fill:none;stroke:#000000;stroke-width:0.25;stroke-linecap:round;stroke-linejoin:round;stroke-dasharray:6, 0.75, 0.125, 0.75">
    <path id="first_angle_horizontal" d="m 1147,771 h 24" style="stroke-dashoffset:0.25"/>
    <path id="first_angle_vertical" d="m 1165,777 v -12" style="stroke-dashoffset:4.625"/>
  </g>
</svg>
