<?xml version="1.0" encoding="UTF-8" standalone="no"?>
<svg
   xmlns:freecad="http://www.freecadweb.org/wiki/index.php?title=Svg_Namespace"
   xmlns:dc="http://purl.org/dc/elements/1.1/"
   xmlns:cc="http://creativecommons.org/ns#"
   xmlns:rdf="http://www.w3.org/1999/02/22-rdf-syntax-ns#"
   xmlns:svg="http://www.w3.org/2000/svg"
   xmlns="http://www.w3.org/2000/svg"
   id="svg397"
   viewBox="0 0 1189 841"
   height="841mm"
   width="1189mm"
   version="1.1">
  <metadata
     id="metadata403">
    <rdf:RDF>
      <cc:Work
         rdf:about="">
        <dc:format>image/svg+xml</dc:format>
        <dc:type
           rdf:resource="http://purl.org/dc/dcmitype/StillImage" />
      </cc:Work>
    </rdf:RDF>
  </metadata>
  <defs
     id="defs401" />
  <g
     style="fill:none;stroke:#000000;stroke-width:0.2;stroke-linecap:miter;stroke-miterlimit:4"
     id="orientation-border">
    <rect
       id="rect2"
       y="10"
       x="20"
       height="821"
       width="1159" />
    <!-- orientation separators top -->
    <path
       id="path4"
       d="m 86,10 v 4" />
    <path
       id="path6"
       d="m 143,10 v 4" />
    <path
       id="path8"
       d="m 200,10 v 4" />
    <path
       id="path10"
       d="m 257,10 v 4" />
    <path
       id="path12"
       d="m 314,10 v 4" />
    <path
       id="path14"
       d="m 371,10 v 4" />
    <path
       id="path16"
       d="m 428,10 v 4" />
    <path
       id="path18"
       d="m 485,10 v 4" />
    <path
       id="path20"
       d="m 542,10 v 4" />
    <path
       id="path22"
       d="m 599,10 v 4" />
    <path
       id="path24"
       d="m 656,10 v 4" />
    <path
       id="path26"
       d="m 713,10 v 4" />
    <path
       id="path28"
       d="m 770,10 v 4" />
    <path
       id="path30"
       d="m 827,10 v 4" />
    <path
       id="path32"
       d="m 884,10 v 4" />
    <path
       id="path34"
       d="m 941,10 v 4" />
    <path
       id="path36"
       d="m 998,10 v 4" />
    <path
       id="path38"
       d="m 1055,10 v 4" />
    <path
       id="path40"
       d="m 1112,10 v 4" />
    <!-- orientation separators left -->
    <path
       id="path42"
       d="m 20,79 h 4" />
    <path
       id="path44"
       d="m 20,136 h 4" />
    <path
       id="path46"
       d="m 20,193 h 4" />
    <path
       id="path48"
       d="m 20,250 h 4" />
    <path
       id="path50"
       d="m 20,307 h 4" />
    <path
       id="path52"
       d="m 20,364 h 4" />
    <path
       id="path54"
       d="m 20,421 h 4" />
    <path
       id="path56"
       d="m 20,478 h 4" />
    <path
       id="path58"
       d="m 20,535 h 4" />
    <path
       id="path60"
       d="m 20,592 h 4" />
    <path
       id="path62"
       d="m 20,649 h 4" />
    <path
       id="path64"
       d="m 20,706 h 4" />
    <path
       id="path66"
       d="m 20,763 h 4" />
    <!-- orientation separators right -->
    <path
       id="path68"
       d="m 1175,79 h 4" />
    <path
       id="path70"
       d="m 1175,136 h 4" />
    <path
       id="path72"
       d="m 1175,193 h 4" />
    <path
       id="path74"
       d="m 1175,250 h 4" />
    <path
       id="path76"
       d="m 1175,307 h 4" />
    <path
       id="path78"
       d="m 1175,364 h 4" />
    <path
       id="path80"
       d="m 1175,421 h 4" />
    <path
       id="path82"
       d="m 1175,478 h 4" />
    <path
       id="path84"
       d="m 1175,535 h 4" />
    <path
       id="path86"
       d="m 1175,592 h 4" />
    <path
       id="path88"
       d="m 1175,649 h 4" />
    <path
       id="path90"
       d="m 1175,706 h 4" />
    <path
       id="path92"
       d="m 1175,763 h 4" />
    <!-- orientation separators bottom -->
    <path
       id="path94"
       d="m 86,827 v 4" />
    <path
       id="path96"
       d="m 143,827 v 4" />
    <path
       id="path98"
       d="m 200,827 v 4" />
    <path
       id="path100"
       d="m 257,827 v 4" />
    <path
       id="path102"
       d="m 314,827 v 4" />
    <path
       id="path104"
       d="m 371,827 v 4" />
    <path
       id="path106"
       d="m 428,827 v 4" />
    <path
       id="path108"
       d="m 485,827 v 4" />
    <path
       id="path110"
       d="m 542,827 v 4" />
    <path
       id="path112"
       d="m 599,827 v 4" />
    <path
       id="path114"
       d="m 656,827 v 4" />
    <path
       id="path116"
       d="m 713,827 v 4" />
    <path
       id="path118"
       d="m 770,827 v 4" />
    <path
       id="path120"
       d="m 827,827 v 4" />
    <path
       id="path122"
       d="m 884,827 v 4" />
    <path
       id="path124"
       d="m 941,827 v 4" />
    <path
       id="path126"
       d="m 998,827 v 4" />
    <path
       id="path128"
       d="m 1055,827 v 4" />
    <path
       id="path130"
       d="m 1112,827 v 4" />
  </g>
  <g
     style="font-size:3px;text-anchor:start;fill:#000000;font-family:tahoma"
     id="orientation-text">
    <!-- orientation char top -->
    <text
       id="text133"
       y="13"
       x="57">1</text>
    <text
       id="text135"
       y="13"
       x="114">2</text>
    <text
       id="text137"
       y="13"
       x="171">3</text>
    <text
       id="text139"
       y="13"
       x="228">4</text>
    <text
       id="text141"
       y="13"
       x="285">5</text>
    <text
       id="text143"
       y="13"
       x="342">6</text>
    <text
       id="text145"
       y="13"
       x="399">7</text>
    <text
       id="text147"
       y="13"
       x="456">8</text>
    <text
       id="text149"
       y="13"
       x="513">9</text>
    <text
       id="text151"
       y="13"
       x="569">10</text>
    <text
       id="text153"
       y="13"
       x="626">11</text>
    <text
       id="text155"
       y="13"
       x="683">12</text>
    <text
       id="text157"
       y="13"
       x="740">13</text>
    <text
       id="text159"
       y="13"
       x="797">14</text>
    <text
       id="text161"
       y="13"
       x="854">15</text>
    <text
       id="text163"
       y="13"
       x="911">16</text>
    <text
       id="text165"
       y="13"
       x="968">17</text>
    <text
       id="text167"
       y="13"
       x="1025">18</text>
    <text
       id="text169"
       y="13"
       x="1082">19</text>
    <text
       id="text171"
       y="13"
       x="1139">20</text>
    <!-- orientation char left -->
    <text
       id="text173"
       y="51"
       x="21">A</text>
    <text
       id="text175"
       y="108"
       x="21">B</text>
    <text
       id="text177"
       y="165"
       x="21">C</text>
    <text
       id="text179"
       y="222"
       x="21">D</text>
    <text
       id="text181"
       y="279"
       x="21">E</text>
    <text
       id="text183"
       y="336"
       x="21">F</text>
    <text
       id="text185"
       y="393"
       x="21">G</text>
    <text
       id="text187"
       y="450"
       x="21">H</text>
    <text
       id="text189"
       y="507"
       x="21">I</text>
    <text
       id="text191"
       y="564"
       x="21">K</text>
    <text
       id="text193"
       y="621"
       x="21">L</text>
    <text
       id="text195"
       y="678"
       x="21">M</text>
    <text
       id="text197"
       y="735"
       x="21">N</text>
    <text
       id="text199"
       y="792"
       x="21">O</text>
    <!-- orientation char left -->
    <text
       id="text201"
       y="51"
       x="1176">A</text>
    <text
       id="text203"
       y="108"
       x="1176">B</text>
    <text
       id="text205"
       y="165"
       x="1176">C</text>
    <text
       id="text207"
       y="222"
       x="1176">D</text>
    <text
       id="text209"
       y="279"
       x="1176">E</text>
    <text
       id="text211"
       y="336"
       x="1176">F</text>
    <text
       id="text213"
       y="393"
       x="1176">G</text>
    <text
       id="text215"
       y="450"
       x="1176">H</text>
    <text
       id="text217"
       y="507"
       x="1176">I</text>
    <text
       id="text219"
       y="564"
       x="1176">K</text>
    <text
       id="text221"
       y="621"
       x="1176">L</text>
    <text
       id="text223"
       y="678"
       x="1176">M</text>
    <text
       id="text225"
       y="735"
       x="1176">N</text>
    <text
       id="text227"
       y="792"
       x="1176">O</text>
    <!-- orientation char bottom -->
    <text
       id="text229"
       y="830"
       x="57">1</text>
    <text
       id="text231"
       y="830"
       x="114">2</text>
    <text
       id="text233"
       y="830"
       x="171">3</text>
    <text
       id="text235"
       y="830"
       x="228">4</text>
    <text
       id="text237"
       y="830"
       x="285">5</text>
    <text
       id="text239"
       y="830"
       x="342">6</text>
    <text
       id="text241"
       y="830"
       x="399">7</text>
    <text
       id="text243"
       y="830"
       x="456">8</text>
    <text
       id="text245"
       y="830"
       x="513">9</text>
    <text
       id="text247"
       y="830"
       x="569">10</text>
    <text
       id="text249"
       y="830"
       x="626">11</text>
    <text
       id="text251"
       y="830"
       x="683">12</text>
    <text
       id="text253"
       y="830"
       x="740">13</text>
    <text
       id="text255"
       y="830"
       x="797">14</text>
    <text
       id="text257"
       y="830"
       x="854">15</text>
    <text
       id="text259"
       y="830"
       x="911">16</text>
    <text
       id="text261"
       y="830"
       x="968">17</text>
    <text
       id="text263"
       y="830"
       x="1025">18</text>
    <text
       id="text265"
       y="830"
       x="1082">19</text>
    <text
       id="text267"
       y="830"
       x="1139">20</text>
  </g>
  <g
     style="fill:none;stroke:#000000;stroke-width:0.35;stroke-linecap:miter;stroke-miterlimit:4"
     id="drawing-border">
    <rect
       id="rect270"
       y="14"
       x="24"
       height="813"
       width="1151" />
  </g>
  <g
     style="fill:none;stroke:#000000;stroke-width:0.35;stroke-linecap:miter;stroke-miterlimit:4"
     id="titleblock-structure">
    <rect
       id="rect273"
       y="793"
       x="1035"
       height="34"
       width="140" />
    <path
       id="path275"
       d="m 1035,801 h 140" />
    <!-- upper horizontal Separator Titleblock -->
    <path
       id="path277"
       d="m 1035,819 h 87" />
    <!-- lower horizontal Separator Document-Type -->
    <path
       id="path279"
       d="m 1035,823 h 140" />
    <!-- lower horizontal Separator Copyright -->
    <path
       id="path281"
       d="m 1080,793 v 8" />
    <!-- Separator Author / Owner -->
    <path
       id="path283"
       d="m 1122,793 v 30" />
    <!-- Separator Title / Liste RH -->
    <path
       id="path285"
       d="m 1152,793 v 8" />
    <!-- Separator Scale / Sheet -->
    <path
       id="path287"
       d="m 1122,809 h 53" />
    <!-- Separator Part / Drawing-Nr -->
    <path
       id="path289"
       d="m 1122,815 h 53" />
    <!-- Separator DRW-Info / Revision -->
    <path
       id="path291"
       d="m 1152,815 v 8" />
    <!-- Separator Date / Revision -->
  </g>
  <g
     style="font-size:3px;text-anchor:start;fill:#000000;font-family:tahoma"
     id="titleblock-text-non-editable">
    <text
       id="text294"
       y="796"
       x="1036">Author:</text>
    <text
       id="text296"
       y="800"
       x="1036">Appr.:</text>
    <text
       id="text298"
       y="796"
       x="1081">Legal owner:</text>
    <text
       id="text300"
       y="805"
       x="1036">TITLE:</text>
    <text
       id="text302"
       y="822"
       x="1036">Document type:</text>
    <text
       id="text304"
       y="796"
       x="1153">Sheet:</text>
    <text
       id="text306"
       y="800"
       x="1153">Size:</text>
    <text
       id="text308"
       y="796"
       x="1123">Scale:</text>
    <text
       id="text310"
       y="800"
       x="1123">Toler.:</text>
    <text
       id="text312"
       y="804"
       x="1123">Part material:</text>
    <text
       id="text314"
       y="808"
       x="1123">Part number:</text>
    <text
       id="text316"
       y="813"
       x="1123">Drawing no.:</text>
    <text
       id="text318"
       y="818"
       x="1123">Date:</text>
    <text
       id="text320"
       y="818"
       x="1153">Revision:</text>
  </g>
  <g
     style="font-size:3px;text-anchor:start;fill:#000000;font-family:tahoma"
     id="titleblock-text-editable">
    <text
       id="text325"
       y="796"
       x="1047"
       freecad:editable="AUTHOR_NAME">
      <tspan
         id="tspan323">AUTHOR NAME</tspan>
    </text>
    <text
       id="text329"
       y="800"
       x="1047"
       freecad:editable="APPROVER_NAME">
      <tspan
         id="tspan327">APPROVER NAME</tspan>
    </text>
    <text
       id="text333"
       y="800"
       x="1082"
       freecad:editable="OWNER_NAME">
      <tspan
         id="tspan331">OWNER NAME</tspan>
    </text>
    <text
       id="text337"
       y="809"
       x="1037"
       freecad:editable="TITLELINE-1">
      <tspan
         id="tspan335">FreeCAD</tspan>
    </text>
    <text
       id="text341"
       y="813"
       x="1037"
       freecad:editable="TITLELINE-2">
      <tspan
         id="tspan339" />
    </text>
    <text
       id="text345"
       y="817"
       x="1037"
       freecad:editable="TITLELINE-3">
      <tspan
         id="tspan343" />
    </text>
    <text
       id="text349"
       y="822"
       x="1059"
       freecad:editable="DOCUMENT_TYPE">
      <tspan
         id="tspan347">Mechanical assembly drawing</tspan>
    </text>
    <text
       id="text353"
       y="796"
       x="1162"
       freecad:editable="SHEET">
      <tspan
         id="tspan351">99 of 99</tspan>
    </text>
    <text
       id="text357"
       y="796"
       x="1132"
       freecad:editable="SCALE">
      <tspan
         id="tspan355">M x:x</tspan>
    </text>
    <text
       id="text361"
       y="800"
       x="1132"
       freecad:editable="TOLERANCE">
      <tspan
         id="tspan359">+/- ?</tspan>
    </text>
    <text
       id="text365"
       y="804"
       x="1142"
       freecad:editable="PM">
      <tspan
         id="tspan363">PM</tspan>
    </text>
    <text
       id="text369"
       y="808"
       x="1142"
       freecad:editable="PN">
      <tspan
         id="tspan367">PN</tspan>
    </text>
    <text
       id="text373"
       y="813"
       x="1142"
       freecad:editable="DN">
      <tspan
         id="tspan371">DN</tspan>
    </text>
    <text
       id="text377"
       y="822"
       x="1124"
       freecad:editable="DATE">
      <tspan
         id="tspan375">YYYY-MM-DD</tspan>
    </text>
    <text
       id="text381"
       y="822"
       x="1154"
       freecad:editable="REVISION">
      <tspan
         id="tspan379">REV A</tspan>
    </text>
    <text
       id="text385"
       y="800"
       x="1162"
       freecad:editable="SIZE">
      <tspan
         id="tspan383">A1</tspan>
    </text>
    <text
       id="text389"
       y="826"
       x="1036"
       freecad:editable="RIGHTS">
      <tspan
         id="tspan387">(R) DO NOT DUPLICATE THIS DRAWING TO THIRD PARTIES WITHOUT OWNER'S PERMISSION !</tspan>
    </text>
  </g>
  <!-- Set display:none to hide FreeCAD Logo or remove this and next 4 lines from this code -->
  <g
     fill="none"
     stroke-width="0.35"
     stroke="#000"
     fill-rule="evenodd"
     transform="translate(1023,816)"
     id="freecad-logo"
     style="display:inline">
    <path
       id="path392"
       d="m0.1524 0.15254v8.8549h1.9744v-3.4652h1.396v-1.3661h-1.396v-1.4745h3.4391v-2.5441l-5.4135-0.005z" />
    <path
       id="path394"
       d="m7.7927 3.4504-0.50715-0.176-0.48387-1.2366-0.76115 0.04-0.34718 1.2787-0.4859 0.23269-1.2119-0.53015-0.51188 0.56882 0.65892 1.1485-0.18006 0.50567-1.2366 0.48387 0.044064 0.76263 1.2787 0.34718 0.23269 0.4859-0.53421 1.2104 0.56882 0.51188 1.1485-0.65891 0.50973 0.18155 0.4798 1.2351 0.7667-0.04258 0.34311-1.2802 0.4859-0.23269 1.2145 0.5357 0.51188-0.56882-0.65891-1.1485 0.17748-0.51122 1.2351-0.4798-0.03851-0.76521-1.2802-0.34311-0.23269-0.4859 0.53163-1.216-0.56881-0.51184zm-0.5715 1.2244 0.23576 0.13679 0.20426 0.18519 0.16353 0.22101 0.11763 0.24572 0.06916 0.26489 0.01146 0.27146-0.03921 0.27139-0.08948 0.25764-0.14234 0.23834-0.17964 0.20167-0.22101 0.16353-0.24572 0.11763-0.26489 0.06916-0.27295 0.01553-0.2719-0.04-0.2576-0.089-0.2383-0.143-0.2002-0.183-0.165-0.217-0.1177-0.246-0.0676-0.269-0.0156-0.273 0.039206-0.2714 0.089484-0.25764 0.14085-0.23427 0.18113-0.20574 0.22101-0.16352 0.24572-0.11763 0.26895-0.06768 0.27147-0.01146 0.27139 0.03921 0.25764 0.08948z" />
  </g>
</svg>
