<?xml version="1.0" encoding="UTF-8" standalone="no"?>
<svg
   xmlns:freecad="http://www.freecadweb.org/wiki/index.php?title=Svg_Namespace"
   xmlns:dc="http://purl.org/dc/elements/1.1/"
   xmlns:cc="http://creativecommons.org/ns#"
   xmlns:rdf="http://www.w3.org/1999/02/22-rdf-syntax-ns#"
   xmlns:svg="http://www.w3.org/2000/svg"
   xmlns="http://www.w3.org/2000/svg"
   id="svg113"
   viewBox="0 0 1189 841"
   height="841mm"
   width="1189mm"
   version="1.1">
  <metadata
     id="metadata119">
    <rdf:RDF>
      <cc:Work
         rdf:about="">
        <dc:format>image/svg+xml</dc:format>
        <dc:type
           rdf:resource="http://purl.org/dc/dcmitype/StillImage" />
      </cc:Work>
    </rdf:RDF>
  </metadata>
  <defs
     id="defs117" />
  <!-- Working space 20 10 1179 831 -->
  <!-- Title block 999 771 1179 831 -->
  <g
     id="g50">
    <rect
       y="10"
       x="20"
       height="821"
       width="1159"
       style="fill:none;stroke:#000000;stroke-width:0.7;stroke-linecap:miter;stroke-miterlimit:4"
       id="drawing-border" />
    <!-- width-30, height-20 -->
    <g
       id="g48"
       transform="translate(979,544)">
      <!-- A4 Portrait based for other formats width-210, height-297 -->
      <!--        page       rect   translation
                     w    h    rw   rh   tx   ty
              A4-P  210  297  180  277    0    0
              A3-L  420  297  390  277  210    0
              A2-L  594  420  564  400  384  123
              A1-L  841  594  811  574  631  297
              A0-L 1189  841 1159  821  979  544
      -->
      <g
         style="fill:none;stroke:#000000;stroke-width:0.35;stroke-linecap:miter;stroke-miterlimit:4"
         id="titleblock-structure">
        <rect
           id="rect3"
           y="227"
           x="20"
           height="60"
           width="180" />
        <path
           id="path5"
           d="m 20,239 h 180" />
        <path
           id="path7"
           d="m 80,227 v 12" />
        <path
           id="path9"
           d="m 140,239 v 48" />
        <path
           id="path11"
           d="m 160,239 v 12" />
        <path
           id="path13"
           d="m 180,239 v 12" />
        <path
           id="path15"
           d="m 140,251 h 60" />
        <path
           id="path17"
           d="m 140,275 h 60" />
        <path
           id="path19"
           d="m 180,275 v 12" />
      </g>
      <g
         style="font-size:3px;text-anchor:start;fill:#000000;font-family:osifont"
         id="titleblock-text-non-editable">
        <text
           id="text22"
           y="230"
           x="21">Created by:</text>
        <text
           id="text24"
           y="230"
           x="81">Title:</text>
        <text
           id="text26"
           y="242"
           x="21">Supplementary information:</text>
        <text
           id="text28"
           y="242"
           x="141">Size:</text>
        <text
           id="text30"
           y="242"
           x="161">Sheet:</text>
        <text
           id="text32"
           y="242"
           x="181">Scale:</text>
        <text
           id="text34"
           y="254"
           x="141">Part number:</text>
        <text
           id="text36"
           y="266"
           x="141">Drawing number:</text>
        <text
           id="text38"
           y="278"
           x="141">Date:</text>
        <text
           id="text40"
           y="278"
           x="181">Revision:</text>
      </g>
      <!-- Set display:none to hide FreeCAD Logo -->
      <g
         fill="none"
         stroke-width="0.35"
         stroke="#000"
         fill-rule="evenodd"
         transform="translate(128.5,276)"
         id="freecad-logo"
         style="display:inline">
        <path
           id="path43"
           d="m0.1524 0.15254v8.8549h1.9744v-3.4652h1.396v-1.3661h-1.396v-1.4745h3.4391v-2.5441l-5.4135-0.005z" />
        <path
           id="path45"
           d="m7.7927 3.4504-0.50715-0.176-0.48387-1.2366-0.76115 0.04-0.34718 1.2787-0.4859 0.23269-1.2119-0.53015-0.51188 0.56882 0.65892 1.1485-0.18006 0.50567-1.2366 0.48387 0.044064 0.76263 1.2787 0.34718 0.23269 0.4859-0.53421 1.2104 0.56882 0.51188 1.1485-0.65891 0.50973 0.18155 0.4798 1.2351 0.7667-0.04258 0.34311-1.2802 0.4859-0.23269 1.2145 0.5357 0.51188-0.56882-0.65891-1.1485 0.17748-0.51122 1.2351-0.4798-0.03851-0.76521-1.2802-0.34311-0.23269-0.4859 0.53163-1.216-0.56881-0.51184zm-0.5715 1.2244 0.23576 0.13679 0.20426 0.18519 0.16353 0.22101 0.11763 0.24572 0.06916 0.26489 0.01146 0.27146-0.03921 0.27139-0.08948 0.25764-0.14234 0.23834-0.17964 0.20167-0.22101 0.16353-0.24572 0.11763-0.26489 0.06916-0.27295 0.01553-0.2719-0.04-0.2576-0.089-0.2383-0.143-0.2002-0.183-0.165-0.217-0.1177-0.246-0.0676-0.269-0.0156-0.273 0.039206-0.2714 0.089484-0.25764 0.14085-0.23427 0.18113-0.20574 0.22101-0.16352 0.24572-0.11763 0.26895-0.06768 0.27147-0.01146 0.27139 0.03921 0.25764 0.08948z" />
      </g>
    </g>
  </g>
  <g
     style="font-size:5px;text-anchor:start;fill:#000000;font-family:osifont"
     id="titleblock-text-editable">
    <text
       id="text54"
       y="780"
       x="1000"
       freecad:editable="AUTHOR_NAME">
      <tspan
         id="tspan52">AUTHOR NAME</tspan>
    </text>
    <text
       id="text58"
       y="780"
       x="1060"
       freecad:editable="DRAWING_TITLE">
      <tspan
         id="tspan56">DRAWING TITLE</tspan>
    </text>
    <text
       id="text62"
       y="792"
       x="1000"
       freecad:editable="SI-1">
      <tspan
         id="tspan60" />
    </text>
    <text
       id="text66"
       y="799"
       x="1000"
       freecad:editable="SI-2">
      <tspan
         id="tspan64" />
    </text>
    <text
       id="text70"
       y="806"
       x="1000"
       freecad:editable="FreeCAD_DRAWING">
      <tspan
         id="tspan68">FreeCAD DRAWING</tspan>
    </text>
    <text
       id="text74"
       y="813"
       x="1000"
       freecad:editable="SI-4">
      <tspan
         id="tspan72" />
    </text>
    <text
       id="text78"
       y="820"
       x="1000"
       freecad:editable="SI-5">
      <tspan
         id="tspan76" />
    </text>
    <text
       id="text82"
       y="827"
       x="1000"
       freecad:editable="SI-6">
      <tspan
         id="tspan80" />
    </text>
    <text
       id="text86"
       y="792"
       x="1122"
       freecad:editable="FC-SI">
      <tspan
         id="tspan84">A0</tspan>
    </text>
    <text
       id="text90"
       y="792"
       x="1142"
       freecad:editable="FC-SH">
      <tspan
         id="tspan88">X / Y</tspan>
    </text>
    <text
       id="text94"
       y="792"
       x="1162"
       freecad:editable="FC-SC">
      <tspan
         id="tspan92">SCALE</tspan>
    </text>
    <text
       id="text98"
       y="806"
       x="1120"
       freecad:editable="PN">
      <tspan
         id="tspan96">PN</tspan>
    </text>
    <text
       id="text102"
       y="816"
       x="1120"
       freecad:editable="DN">
      <tspan
         id="tspan100">DN</tspan>
    </text>
    <text
       id="text106"
       y="828"
       x="1120"
       freecad:editable="FC-DATE">
      <tspan
         id="tspan104">DD/MM/YYYY</tspan>
    </text>
    <text
       id="text110"
       y="828"
       x="1160"
       freecad:editable="FC-REV">
      <tspan
         id="tspan108">REV A</tspan>
    </text>
  </g>
  <!-- DrawingContent -->
</svg>
