<?xml version="1.0" encoding="UTF-8" standalone="no"?>
<svg
   xmlns:freecad="http://www.freecadweb.org/wiki/index.php?title=Svg_Namespace"
   xmlns:dc="http://purl.org/dc/elements/1.1/"
   xmlns:cc="http://creativecommons.org/ns#"
   xmlns:rdf="http://www.w3.org/1999/02/22-rdf-syntax-ns#"
   xmlns:svg="http://www.w3.org/2000/svg"
   xmlns="http://www.w3.org/2000/svg"
   id="svg317"
   viewBox="0 0 841 594"
   height="594mm"
   width="841mm"
   version="1.1">
  <metadata
     id="metadata323">
    <rdf:RDF>
      <cc:Work
         rdf:about="">
        <dc:format>image/svg+xml</dc:format>
        <dc:type
           rdf:resource="http://purl.org/dc/dcmitype/StillImage" />
      </cc:Work>
    </rdf:RDF>
  </metadata>
  <defs
     id="defs321" />
  <g
     style="fill:none;stroke:#000000;stroke-width:0.20;stroke-linecap:miter;stroke-miterlimit:4"
     id="orientation-border">
    <rect
       id="rect2"
       y="10"
       x="20"
       height="574"
       width="811" />
    <!-- orientation separators top -->
    <path
       id="path4"
       d="m 83,10 v 4" />
    <path
       id="path6"
       d="m 140,10 v 4" />
    <path
       id="path8"
       d="m 197,10 v 4" />
    <path
       id="path10"
       d="m 254,10 v 4" />
    <path
       id="path12"
       d="m 311,10 v 4" />
    <path
       id="path14"
       d="m 368,10 v 4" />
    <path
       id="path16"
       d="m 425,10 v 4" />
    <path
       id="path18"
       d="m 482,10 v 4" />
    <path
       id="path20"
       d="m 539,10 v 4" />
    <path
       id="path22"
       d="m 596,10 v 4" />
    <path
       id="path24"
       d="m 653,10 v 4" />
    <path
       id="path26"
       d="m 710,10 v 4" />
    <path
       id="path28"
       d="m 767,10 v 4" />
    <!-- orientation separators left -->
    <path
       id="path30"
       d="m 20,69 h 4" />
    <path
       id="path32"
       d="m 20,126 h 4" />
    <path
       id="path34"
       d="m 20,183 h 4" />
    <path
       id="path36"
       d="m 20,240 h 4" />
    <path
       id="path38"
       d="m 20,297 h 4" />
    <path
       id="path40"
       d="m 20,354 h 4" />
    <path
       id="path42"
       d="m 20,411 h 4" />
    <path
       id="path44"
       d="m 20,468 h 4" />
    <path
       id="path46"
       d="m 20,525 h 4" />
    <!-- orientation separators right -->
    <path
       id="path48"
       d="m 827,69 h 4" />
    <path
       id="path50"
       d="m 827,126 h 4" />
    <path
       id="path52"
       d="m 827,183 h 4" />
    <path
       id="path54"
       d="m 827,240 h 4" />
    <path
       id="path56"
       d="m 827,297 h 4" />
    <path
       id="path58"
       d="m 827,354 h 4" />
    <path
       id="path60"
       d="m 827,411 h 4" />
    <path
       id="path62"
       d="m 827,468 h 4" />
    <path
       id="path64"
       d="m 827,525 h 4" />
    <!-- orientation separators bottom -->
    <path
       id="path66"
       d="m 83,580 v 4" />
    <path
       id="path68"
       d="m 140,580 v 4" />
    <path
       id="path70"
       d="m 197,580 v 4" />
    <path
       id="path72"
       d="m 254,580 v 4" />
    <path
       id="path74"
       d="m 311,580 v 4" />
    <path
       id="path76"
       d="m 368,580 v 4" />
    <path
       id="path78"
       d="m 425,580 v 4" />
    <path
       id="path80"
       d="m 482,580 v 4" />
    <path
       id="path82"
       d="m 539,580 v 4" />
    <path
       id="path84"
       d="m 596,580 v 4" />
    <path
       id="path86"
       d="m 653,580 v 4" />
    <path
       id="path88"
       d="m 710,580 v 4" />
    <path
       id="path90"
       d="m 767,580 v 4" />
  </g>
  <g
     style="font-size:3px;text-anchor:start;fill:#000000;font-family:tahoma"
     id="orientation-text">
    <!-- orientation char top -->
    <text
       id="text93"
       y="13"
       x="54">1</text>
    <text
       id="text95"
       y="13"
       x="111">2</text>
    <text
       id="text97"
       y="13"
       x="168">3</text>
    <text
       id="text99"
       y="13"
       x="225">4</text>
    <text
       id="text101"
       y="13"
       x="282">5</text>
    <text
       id="text103"
       y="13"
       x="339">6</text>
    <text
       id="text105"
       y="13"
       x="396">7</text>
    <text
       id="text107"
       y="13"
       x="453">8</text>
    <text
       id="text109"
       y="13"
       x="510">9</text>
    <text
       id="text111"
       y="13"
       x="566">10</text>
    <text
       id="text113"
       y="13"
       x="623">11</text>
    <text
       id="text115"
       y="13"
       x="680">12</text>
    <text
       id="text117"
       y="13"
       x="737">13</text>
    <text
       id="text119"
       y="13"
       x="794">14</text>
    <!-- orientation char left -->
    <text
       id="text121"
       y="42"
       x="21">A</text>
    <text
       id="text123"
       y="99"
       x="21">B</text>
    <text
       id="text125"
       y="156"
       x="21">C</text>
    <text
       id="text127"
       y="213"
       x="21">D</text>
    <text
       id="text129"
       y="270"
       x="21">E</text>
    <text
       id="text131"
       y="327"
       x="21">F</text>
    <text
       id="text133"
       y="384"
       x="21">G</text>
    <text
       id="text135"
       y="441"
       x="21">H</text>
    <text
       id="text137"
       y="498"
       x="21">I</text>
    <text
       id="text139"
       y="555"
       x="21">K</text>
    <!-- orientation char right -->
    <text
       id="text141"
       y="42"
       x="828">A</text>
    <text
       id="text143"
       y="99"
       x="828">B</text>
    <text
       id="text145"
       y="156"
       x="828">C</text>
    <text
       id="text147"
       y="213"
       x="828">D</text>
    <text
       id="text149"
       y="270"
       x="828">E</text>
    <text
       id="text151"
       y="327"
       x="828">F</text>
    <text
       id="text153"
       y="384"
       x="828">G</text>
    <text
       id="text155"
       y="441"
       x="828">H</text>
    <text
       id="text157"
       y="498"
       x="828">I</text>
    <text
       id="text159"
       y="555"
       x="828">K</text>
    <!-- orientation char bottom -->
    <text
       id="text161"
       y="583"
       x="54">1</text>
    <text
       id="text163"
       y="583"
       x="111">2</text>
    <text
       id="text165"
       y="583"
       x="168">3</text>
    <text
       id="text167"
       y="583"
       x="225">4</text>
    <text
       id="text169"
       y="583"
       x="282">5</text>
    <text
       id="text171"
       y="583"
       x="339">6</text>
    <text
       id="text173"
       y="583"
       x="396">7</text>
    <text
       id="text175"
       y="583"
       x="453">8</text>
    <text
       id="text177"
       y="583"
       x="510">9</text>
    <text
       id="text179"
       y="583"
       x="566">10</text>
    <text
       id="text181"
       y="583"
       x="623">11</text>
    <text
       id="text183"
       y="583"
       x="680">12</text>
    <text
       id="text185"
       y="583"
       x="737">13</text>
    <text
       id="text187"
       y="583"
       x="794">14</text>
  </g>
  <g
     style="fill:none;stroke:#000000;stroke-width:0.35;stroke-linecap:miter;stroke-miterlimit:4"
     id="drawing-border">
    <rect
       id="rect190"
       y="14"
       x="24"
       height="566"
       width="803" />
  </g>
  <g
     style="fill:none;stroke:#000000;stroke-width:0.35;stroke-linecap:miter;stroke-miterlimit:4"
     id="titleblock-structure">
    <rect
       id="rect193"
       y="546"
       x="687"
       height="34"
       width="140" />
    <path
       id="path195"
       d="m 687,554 h 140" />
    <!-- upper horizontal Separator Titleblock -->
    <path
       id="path197"
       d="m 687,572 h 87" />
    <!-- lower horizontal Separator Document-Type -->
    <path
       id="path199"
       d="m 687,576 h 140" />
    <!-- lower horizontal Separator Copyright -->
    <path
       id="path201"
       d="m 732,546 v 8" />
    <!-- Separator Author / Owner -->
    <path
       id="path203"
       d="m 774,546 v 30" />
    <!-- Separator Title / Liste RH -->
    <path
       id="path205"
       d="m 804,546 v 8" />
    <!-- Separator Scale / Sheet -->
    <path
       id="path207"
       d="m 774,562 h 53" />
    <!-- Separator Part / Drawing-Nr -->
    <path
       id="path209"
       d="m 774,568 h 53" />
    <!-- Separator DRW-Info / Revision -->
    <path
       id="path211"
       d="m 804,568 v 8" />
    <!-- Separator Date / Revision -->
  </g>
  <g
     style="font-size:3px;text-anchor:start;fill:#000000;font-family:tahoma"
     id="titleblock-text-non-editable">
    <text
       id="text214"
       y="549"
       x="688">Author:</text>
    <text
       id="text216"
       y="553"
       x="688">Appr.:</text>
    <text
       id="text218"
       y="549"
       x="733">Legal owner:</text>
    <text
       id="text220"
       y="558"
       x="688">TITLE:</text>
    <text
       id="text222"
       y="575"
       x="688">Document type:</text>
    <text
       id="text224"
       y="549"
       x="805">Sheet:</text>
    <text
       id="text226"
       y="553"
       x="805">Size:</text>
    <text
       id="text228"
       y="549"
       x="775">Scale:</text>
    <text
       id="text230"
       y="553"
       x="775">Toler.:</text>
    <text
       id="text232"
       y="557"
       x="775">Part material:</text>
    <text
       id="text234"
       y="561"
       x="775">Part number:</text>
    <text
       id="text236"
       y="566"
       x="775">Drawing no.:</text>
    <text
       id="text238"
       y="571"
       x="775">Date:</text>
    <text
       id="text240"
       y="571"
       x="805">Revision:</text>
  </g>
  <g
     style="font-size:3px;text-anchor:start;fill:#000000;font-family:tahoma"
     id="titleblock-text-editable">
    <text
       id="text245"
       y="549"
       x="699"
       freecad:editable="AUTHOR_NAME">
      <tspan
         id="tspan243">AUTHOR NAME</tspan>
    </text>
    <text
       id="text249"
       y="553"
       x="699"
       freecad:editable="APPROVER_NAME">
      <tspan
         id="tspan247">APPROVER NAME</tspan>
    </text>
    <text
       id="text253"
       y="553"
       x="734"
       freecad:editable="OWNER_NAME">
      <tspan
         id="tspan251">OWNER NAME</tspan>
    </text>
    <text
       id="text257"
       y="562"
       x="689"
       freecad:editable="TITLELINE-1">
      <tspan
         id="tspan255">FreeCAD</tspan>
    </text>
    <text
       id="text261"
       y="566"
       x="689"
       freecad:editable="TITLELINE-2">
      <tspan
         id="tspan259" />
    </text>
    <text
       id="text265"
       y="570"
       x="689"
       freecad:editable="TITLELINE-3">
      <tspan
         id="tspan263" />
    </text>
    <text
       id="text269"
       y="575"
       x="711"
       freecad:editable="DOCUMENT_TYPE">
      <tspan
         id="tspan267">Mechanical assembly drawing</tspan>
    </text>
    <text
       id="text273"
       y="549"
       x="814"
       freecad:editable="SHEET">
      <tspan
         id="tspan271">99 of 99</tspan>
    </text>
    <text
       id="text277"
       y="549"
       x="784"
       freecad:editable="SCALE">
      <tspan
         id="tspan275">M x:x</tspan>
    </text>
    <text
       id="text281"
       y="553"
       x="784"
       freecad:editable="TOLERANCE">
      <tspan
         id="tspan279">+/- ?</tspan>
    </text>
    <text
       id="text285"
       y="557"
       x="794"
       freecad:editable="PM">
      <tspan
         id="tspan283">PM</tspan>
    </text>
    <text
       id="text289"
       y="561"
       x="794"
       freecad:editable="PN">
      <tspan
         id="tspan287">PN</tspan>
    </text>
    <text
       id="text293"
       y="566"
       x="794"
       freecad:editable="DN">
      <tspan
         id="tspan291">DN</tspan>
    </text>
    <text
       id="text297"
       y="575"
       x="776"
       freecad:editable="DATE">
      <tspan
         id="tspan295">YYYY-MM-DD</tspan>
    </text>
    <text
       id="text301"
       y="575"
       x="806"
       freecad:editable="REVISION">
      <tspan
         id="tspan299">REV A</tspan>
    </text>
    <text
       id="text305"
       y="553"
       x="814"
       freecad:editable="SIZE">
      <tspan
         id="tspan303">A1</tspan>
    </text>
    <text
       id="text309"
       y="579"
       x="688"
       freecad:editable="RIGHTS">
      <tspan
         id="tspan307">(R) DO NOT DUPLICATE THIS DRAWING TO THIRD PARTIES WITHOUT OWNER'S PERMISSION !</tspan>
    </text>
  </g>
  <!-- Set display:none to hide FreeCAD Logo or remove this and next 4 lines from this code -->
  <g
     fill="none"
     stroke-width="0.35"
     stroke="#000"
     fill-rule="evenodd"
     transform="translate(675,569)"
     id="freecad-logo"
     style="display:inline">
    <path
       id="path312"
       d="m0.1524 0.15254v8.8549h1.9744v-3.4652h1.396v-1.3661h-1.396v-1.4745h3.4391v-2.5441l-5.4135-0.005z" />
    <path
       id="path314"
       d="m7.7927 3.4504-0.50715-0.176-0.48387-1.2366-0.76115 0.04-0.34718 1.2787-0.4859 0.23269-1.2119-0.53015-0.51188 0.56882 0.65892 1.1485-0.18006 0.50567-1.2366 0.48387 0.044064 0.76263 1.2787 0.34718 0.23269 0.4859-0.53421 1.2104 0.56882 0.51188 1.1485-0.65891 0.50973 0.18155 0.4798 1.2351 0.7667-0.04258 0.34311-1.2802 0.4859-0.23269 1.2145 0.5357 0.51188-0.56882-0.65891-1.1485 0.17748-0.51122 1.2351-0.4798-0.03851-0.76521-1.2802-0.34311-0.23269-0.4859 0.53163-1.216-0.56881-0.51184zm-0.5715 1.2244 0.23576 0.13679 0.20426 0.18519 0.16353 0.22101 0.11763 0.24572 0.06916 0.26489 0.01146 0.27146-0.03921 0.27139-0.08948 0.25764-0.14234 0.23834-0.17964 0.20167-0.22101 0.16353-0.24572 0.11763-0.26489 0.06916-0.27295 0.01553-0.2719-0.04-0.2576-0.089-0.2383-0.143-0.2002-0.183-0.165-0.217-0.1177-0.246-0.0676-0.269-0.0156-0.273 0.039206-0.2714 0.089484-0.25764 0.14085-0.23427 0.18113-0.20574 0.22101-0.16352 0.24572-0.11763 0.26895-0.06768 0.27147-0.01146 0.27139 0.03921 0.25764 0.08948z" />
  </g>
</svg>
