<?xml version="1.0" encoding="UTF-8"?>
<svg id="svg317" width="841mm" height="594mm" version="1.1" viewBox="0 0 841 594" xmlns="http://www.w3.org/2000/svg" xmlns:cc="http://creativecommons.org/ns#" xmlns:dc="http://purl.org/dc/elements/1.1/" xmlns:freecad="http://www.freecad.org/wiki/index.php?title=Svg_Namespace" xmlns:rdf="http://www.w3.org/1999/02/22-rdf-syntax-ns#">
 <metadata id="metadata323">
  <rdf:RDF>
   <cc:Work rdf:about="">
    <dc:format>image/svg+xml</dc:format>
    <dc:type rdf:resource="http://purl.org/dc/dcmitype/StillImage"/>
   </cc:Work>
  </rdf:RDF>
 </metadata>
 <g id="orientation-border" fill="none" stroke="#000" stroke-linecap="miter" stroke-width=".2">
  <rect id="rect2" x="20" y="10" width="811" height="574"/>
  <!-- orientation separators top -->
  <path id="path4" d="m83 10v4"/>
  <path id="path6" d="m140 10v4"/>
  <path id="path8" d="m197 10v4"/>
  <path id="path10" d="m254 10v4"/>
  <path id="path12" d="m311 10v4"/>
  <path id="path14" d="m368 10v4"/>
  <path id="path16" d="m425 10v4"/>
  <path id="path18" d="m482 10v4"/>
  <path id="path20" d="m539 10v4"/>
  <path id="path22" d="m596 10v4"/>
  <path id="path24" d="m653 10v4"/>
  <path id="path26" d="m710 10v4"/>
  <path id="path28" d="m767 10v4"/>
  <!-- orientation separators left -->
  <path id="path30" d="m20 69h4"/>
  <path id="path32" d="m20 126h4"/>
  <path id="path34" d="m20 183h4"/>
  <path id="path36" d="m20 240h4"/>
  <path id="path38" d="m20 297h4"/>
  <path id="path40" d="m20 354h4"/>
  <path id="path42" d="m20 411h4"/>
  <path id="path44" d="m20 468h4"/>
  <path id="path46" d="m20 525h4"/>
  <!-- orientation separators right -->
  <path id="path48" d="m827 69h4"/>
  <path id="path50" d="m827 126h4"/>
  <path id="path52" d="m827 183h4"/>
  <path id="path54" d="m827 240h4"/>
  <path id="path56" d="m827 297h4"/>
  <path id="path58" d="m827 354h4"/>
  <path id="path60" d="m827 411h4"/>
  <path id="path62" d="m827 468h4"/>
  <path id="path64" d="m827 525h4"/>
  <!-- orientation separators bottom -->
  <path id="path66" d="m83 580v4"/>
  <path id="path68" d="m140 580v4"/>
  <path id="path70" d="m197 580v4"/>
  <path id="path72" d="m254 580v4"/>
  <path id="path74" d="m311 580v4"/>
  <path id="path76" d="m368 580v4"/>
  <path id="path78" d="m425 580v4"/>
  <path id="path80" d="m482 580v4"/>
  <path id="path82" d="m539 580v4"/>
  <path id="path84" d="m596 580v4"/>
  <path id="path86" d="m653 580v4"/>
  <path id="path88" d="m710 580v4"/>
  <path id="path90" d="m767 580v4"/>
 </g>
 <g id="orientation-text" font-family="tahoma" font-size="3px">
  <!-- orientation char top -->
  <text id="text93" x="54" y="13">1</text>
  <text id="text95" x="111" y="13">2</text>
  <text id="text97" x="168" y="13">3</text>
  <text id="text99" x="225" y="13">4</text>
  <text id="text101" x="282" y="13">5</text>
  <text id="text103" x="339" y="13">6</text>
  <text id="text105" x="396" y="13">7</text>
  <text id="text107" x="453" y="13">8</text>
  <text id="text109" x="510" y="13">9</text>
  <text id="text111" x="566" y="13">10</text>
  <text id="text113" x="623" y="13">11</text>
  <text id="text115" x="680" y="13">12</text>
  <text id="text117" x="737" y="13">13</text>
  <text id="text119" x="794" y="13">14</text>
  <!-- orientation char left -->
  <text id="text121" x="21" y="42">A</text>
  <text id="text123" x="21" y="99">B</text>
  <text id="text125" x="21" y="156">C</text>
  <text id="text127" x="21" y="213">D</text>
  <text id="text129" x="21" y="270">E</text>
  <text id="text131" x="21" y="327">F</text>
  <text id="text133" x="21" y="384">G</text>
  <text id="text135" x="21" y="441">H</text>
  <text id="text137" x="21" y="498">I</text>
  <text id="text139" x="21" y="555">K</text>
  <!-- orientation char right -->
  <text id="text141" x="828" y="42">A</text>
  <text id="text143" x="828" y="99">B</text>
  <text id="text145" x="828" y="156">C</text>
  <text id="text147" x="828" y="213">D</text>
  <text id="text149" x="828" y="270">E</text>
  <text id="text151" x="828" y="327">F</text>
  <text id="text153" x="828" y="384">G</text>
  <text id="text155" x="828" y="441">H</text>
  <text id="text157" x="828" y="498">I</text>
  <text id="text159" x="828" y="555">K</text>
  <!-- orientation char bottom -->
  <text id="text161" x="54" y="583">1</text>
  <text id="text163" x="111" y="583">2</text>
  <text id="text165" x="168" y="583">3</text>
  <text id="text167" x="225" y="583">4</text>
  <text id="text169" x="282" y="583">5</text>
  <text id="text171" x="339" y="583">6</text>
  <text id="text173" x="396" y="583">7</text>
  <text id="text175" x="453" y="583">8</text>
  <text id="text177" x="510" y="583">9</text>
  <text id="text179" x="566" y="583">10</text>
  <text id="text181" x="623" y="583">11</text>
  <text id="text183" x="680" y="583">12</text>
  <text id="text185" x="737" y="583">13</text>
  <text id="text187" x="794" y="583">14</text>
 </g>
 <g id="drawing-border" fill="none" stroke="#000" stroke-linecap="miter" stroke-width=".35">
  <rect id="rect190" x="24" y="14" width="803" height="566"/>
 </g>
 <g id="titleblock-structure" fill="none" stroke="#000" stroke-linecap="miter" stroke-width=".35">
  <rect id="rect193" x="687" y="546" width="140" height="34"/>
  <path id="path195" d="m687 554h140"/>
  <!-- upper horizontal Separator Titleblock -->
  <path id="path197" d="m687 572h87"/>
  <!-- lower horizontal Separator Document-Type -->
  <path id="path199" d="m687 576h140"/>
  <!-- lower horizontal Separator Copyright -->
  <path id="path201" d="m732 546v8"/>
  <!-- Separator Author / Owner -->
  <path id="path203" d="m774 546v30"/>
  <!-- Separator Title / Liste RH -->
  <path id="path205" d="m804 546v8"/>
  <!-- Separator Scale / Sheet -->
  <path id="path207" d="m774 562h53"/>
  <!-- Separator Part / Drawing-Nr -->
  <path id="path209" d="m774 568h53"/>
  <!-- Separator DRW-Info / Revision -->
  <path id="path211" d="m804 568v8"/>
  <!-- Separator Date / Revision -->
 </g>
 <g id="titleblock-text-non-editable" font-family="tahoma" font-size="3px">
  <text id="text214" x="688" y="549">Author:</text>
  <text id="text216" x="688" y="553">Appr.:</text>
  <text id="text218" x="733" y="549">Legal owner:</text>
  <text id="text220" x="688" y="558">TITLE:</text>
  <text id="text222" x="688" y="575">Document type:</text>
  <text id="text224" x="805" y="549">Sheet:</text>
  <text id="text226" x="805" y="553">Size:</text>
  <text id="text228" x="775" y="549">Scale:</text>
  <text id="text230" x="775" y="553">Toler.:</text>
  <text id="text232" x="775" y="557">Part material:</text>
  <text id="text234" x="775" y="561">Part number:</text>
  <text id="text236" x="775" y="566">Drawing no.:</text>
  <text id="text238" x="775" y="571">Date:</text>
  <text id="text240" x="805" y="571">Revision:</text>
 </g>
 <g id="titleblock-text-editable" font-family="tahoma" font-size="3px">
  <text id="text245" x="699" y="549" freecad:editable="AUTHOR_NAME"><tspan id="tspan243">AUTHOR NAME</tspan></text>
  <text id="text249" x="699" y="553" freecad:editable="APPROVER_NAME"><tspan id="tspan247">APPROVER NAME</tspan></text>
  <text id="text253" x="734" y="553" freecad:editable="OWNER_NAME"><tspan id="tspan251">OWNER NAME</tspan></text>
  <text id="text257" x="689" y="562" freecad:editable="TITLELINE-1"><tspan id="tspan255">FreeCAD</tspan></text>
  <text id="text261" x="689" y="566" freecad:editable="TITLELINE-2"><tspan id="tspan259"/></text>
  <text id="text265" x="689" y="570" freecad:editable="TITLELINE-3"><tspan id="tspan263"/></text>
  <text id="text269" x="711" y="575" freecad:editable="DOCUMENT_TYPE"><tspan id="tspan267">Mechanical assembly drawing</tspan></text>
  <text id="text273" x="814" y="549" freecad:editable="SHEET"><tspan id="tspan271">99 of 99</tspan></text>
  <text id="text277" x="784" y="549" freecad:editable="SCALE"><tspan id="tspan275">M x:x</tspan></text>
  <text id="text281" x="784" y="553" freecad:editable="TOLERANCE"><tspan id="tspan279">+/- ?</tspan></text>
  <text id="text285" x="794" y="557" freecad:editable="PM"><tspan id="tspan283">PM</tspan></text>
  <text id="text289" x="794" y="561" freecad:editable="PN"><tspan id="tspan287">PN</tspan></text>
  <text id="text293" x="794" y="566" freecad:editable="DN"><tspan id="tspan291">DN</tspan></text>
  <text id="text297" x="776" y="575" freecad:editable="DATE"><tspan id="tspan295">YYYY-MM-DD</tspan></text>
  <text id="text301" x="806" y="575" freecad:editable="REVISION"><tspan id="tspan299">REV A</tspan></text>
  <text id="text305" x="814" y="553" freecad:editable="SIZE"><tspan id="tspan303">A1</tspan></text>
  <text id="text309" x="688" y="579" freecad:editable="RIGHTS"><tspan id="tspan307">(R) DO NOT DUPLICATE THIS DRAWING TO THIRD PARTIES WITHOUT OWNER'S PERMISSION !</tspan></text>
 </g>
 <!-- Set display:none to hide FreeCAD Logo or remove this and next 4 lines from this code -->
 <g id="freecad-logo" transform="translate(675,569)" fill="none" fill-rule="evenodd" stroke="#000" stroke-width=".35">
  <path id="path312" d="m0.1524 0.15254v8.8549h1.9744v-3.4652h1.396v-1.3661h-1.396v-1.4745h3.4391v-2.5441l-5.4135-5e-3z"/>
  <path id="path314" d="m7.7927 3.4504-0.50715-0.176-0.48387-1.2366-0.76115 0.04-0.34718 1.2787-0.4859 0.23269-1.2119-0.53015-0.51188 0.56882 0.65892 1.1485-0.18006 0.50567-1.2366 0.48387 0.044064 0.76263 1.2787 0.34718 0.23269 0.4859-0.53421 1.2104 0.56882 0.51188 1.1485-0.65891 0.50973 0.18155 0.4798 1.2351 0.7667-0.04258 0.34311-1.2802 0.4859-0.23269 1.2145 0.5357 0.51188-0.56882-0.65891-1.1485 0.17748-0.51122 1.2351-0.4798-0.03851-0.76521-1.2802-0.34311-0.23269-0.4859 0.53163-1.216-0.56881-0.51184zm-0.5715 1.2244 0.23576 0.13679 0.20426 0.18519 0.16353 0.22101 0.11763 0.24572 0.06916 0.26489 0.01146 0.27146-0.03921 0.27139-0.08948 0.25764-0.14234 0.23834-0.17964 0.20167-0.22101 0.16353-0.24572 0.11763-0.26489 0.06916-0.27295 0.01553-0.2719-0.04-0.2576-0.089-0.2383-0.143-0.2002-0.183-0.165-0.217-0.1177-0.246-0.0676-0.269-0.0156-0.273 0.039206-0.2714 0.089484-0.25764 0.14085-0.23427 0.18113-0.20574 0.22101-0.16352 0.24572-0.11763 0.26895-0.06768 0.27147-0.01146 0.27139 0.03921 0.25764 0.08948z"/>
 </g>
</svg>
