<?xml version="1.0" encoding="UTF-8" standalone="no"?>

<svg
   width="841mm"
   height="594mm"
   viewBox="0 0 841 594"
   version="1.1"
   id="svg1"
   xmlns="http://www.w3.org/2000/svg"
   xmlns:svg="http://www.w3.org/2000/svg"
   xmlns:rdf="http://www.w3.org/1999/02/22-rdf-syntax-ns#"
   xmlns:cc="http://creativecommons.org/ns#"
   xmlns:dc="http://purl.org/dc/elements/1.1/"
   xmlns:freecad="https://www.freecadweb.org/wiki/index.php?title=Svg_Namespace">
  <title id="title1">Drawing sheet ISO 5457 - A1T</title>
  <metadata id="metadata1">
    <rdf:RDF>
      <cc:Work rdf:about="">
        <dc:title>Drawing sheet ISO 5457 - A1T</dc:title>
        <cc:license rdf:resource="http://creativecommons.org/publicdomain/zero/1.0/" />
      </cc:Work>
      <cc:License rdf:about="http://creativecommons.org/publicdomain/zero/1.0/">
        <cc:permits rdf:resource="http://creativecommons.org/ns#Reproduction" />
        <cc:permits rdf:resource="http://creativecommons.org/ns#Distribution" />
        <cc:permits rdf:resource="http://creativecommons.org/ns#DerivativeWorks" />
      </cc:License>
    </rdf:RDF>
  </metadata>
  <rect id="Drawing space frame" x="20" y="10" width="811" height="574" style="fill:none;stroke:#000000;stroke-width:0.7;stroke-linecap:round;stroke-linejoin:round" />
  <g id="Centring marks" style="fill:none;stroke:#000000;stroke-width:0.7;stroke-linecap:round">
    <path id="Top"    d="m 420.5,5 v 10" />
    <path id="Right"  d="m 836,297 h -10" />
    <path id="Bottom" d="m 420.5,589 v -10" />
    <path id="Left"   d="m 15,297 h 10" />
  </g>
  <g id="Grid reference system">
    <g id="Grid reference borders" style="fill:none;stroke:#000000;stroke-width:0.35;stroke-linecap:round;stroke-linejoin:round">
      <rect id="Grid reference border" x="15" y="5" width="821" height="584" />
      <path id="path17" d="m 15,247 h 5" />
      <path id="path18" d="m 15,197 h h" />
      <path id="path19" d="m 15,147 h 5" />
      <path id="path20" d="m 15,97 h 5" />
      <path id="path21" d="m 15,47 h 5" />
      <path id="path22" d="m 15,547 h 5" />
      <path id="path23" d="m 15,497 h 5" />
      <path id="path24" d="m 15,447 h 5" />
      <path id="path25" d="m 15,397 h 5" />
      <path id="path26" d="m 15,347 h 5" />
      <path id="path28" d="m 831,247 h 5" />
      <path id="path30" d="m 831,197 h 5" />
      <path id="path32" d="m 831,147 h 5" />
      <path id="path34" d="m 831,97 h 5" />
      <path id="path36" d="m 831,47 h 5" />
      <path id="path39" d="m 831,547 h 5" />
      <path id="path40" d="m 831,497 h 5" />
      <path id="path42" d="m 831,447 h 5" />
      <path id="path44" d="m 831,397 h 5" />
      <path id="path46" d="m 831,347 h 5" />
      <path id="path50" d="m 370.5,5 v 5" />
      <path id="path51" d="m 320.5,5 v 5" />
      <path id="path52" d="m 270.5,5 v 5" />
      <path id="path53" d="m 220.5,5 v 5" />
      <path id="path54" d="m 170.5,5 v 5" />
      <path id="path55" d="m 120.5,5 v 5" />
      <path id="path56" d="m 70.5,5 v 5" />
      <path id="path57" d="m 770.5,5 v 5" />
      <path id="path58" d="m 720.5,5 v 5" />
      <path id="path59" d="m 670.5,5 v 5" />
      <path id="path60" d="m 620.5,5 v 5" />
      <path id="path61" d="m 570.5,5 v 5" />
      <path id="path62" d="m 520.5,5 v 5" />
      <path id="path63" d="m 470.5,5 v 5" />
      <path id="path65" d="m 370.5,584 v 5" />
      <path id="path67" d="m 320.5,584 v 5" />
      <path id="path69" d="m 270.5,584 v 5" />
      <path id="path71" d="m 220.5,584 v 5" />
      <path id="path73" d="m 170.5,584 v 5" />
      <path id="path75" d="m 120.5,584 v 5" />
      <path id="path77" d="m 70.5,584 v 5" />
      <path id="path80" d="m 770.5,584 v 5" />
      <path id="path81" d="m 720.5,584 v 5" />
      <path id="path83" d="m 670.5,584 v 5" />
      <path id="path85" d="m 620.5,584 v 5" />
      <path id="path87" d="m 570.5,584 v 5" />
      <path id="path89" d="m 520.5,584 v 5" />
      <path id="path92" d="m 470.5,584 v 5" />
    </g>
    <g id="Grid reference markers" style="font-size:3.5px;font-family:osifont;text-align:center;text-anchor:middle;fill:#000000;stroke:none">
      <text id="upper_marker_1" x="45.5" y="8.8">1</text>
      <text id="upper_marker_2" x="95.5" y="8.8">2</text>
      <text id="upper_marker_3" x="145.5" y="8.8">3</text>
      <text id="upper_marker_4" x="195.5" y="8.8">4</text>
      <text id="upper_marker_5" x="245.5" y="8.8">5</text>
      <text id="upper_marker_6" x="295.5" y="8.8">6</text>
      <text id="upper_marker_7" x="345.5" y="8.8">7</text>
      <text id="upper_marker_8" x="395.5" y="8.8">8</text>
      <text id="upper_marker_9" x="445.5" y="8.8">9</text>
      <text id="upper_marker_10" x="495.5" y="8.8">10</text>
      <text id="upper_marker_11" x="545.5" y="8.8">11</text>
      <text id="upper_marker_12" x="595.5" y="8.8">12</text>
      <text id="upper_marker_13" x="645.5" y="8.8">13</text>
      <text id="upper_marker_14" x="695.5" y="8.8">14</text>
      <text id="upper_marker_15" x="745.5" y="8.8">15</text>
      <text id="upper_marker_16" x="795.5" y="8.8">16</text>
      <text id="right_marker_1" x="833.5" y="23.3">A</text>
      <text id="right_marker_2" x="833.5" y="73.3">B</text>
      <text id="right_marker_3" x="833.5" y="123.3">C</text>
      <text id="right_marker_4" x="833.5" y="173.3">D</text>
      <text id="right_marker_5" x="833.5" y="223.3">E</text>
      <text id="right_marker_6" x="833.5" y="273.3">F</text>
      <text id="right_marker_7" x="833.5" y="323.3">G</text>
      <text id="right_marker_8" x="833.5" y="373.3">H</text>
      <text id="right_marker_9" x="833.5" y="423.3">J</text>
      <text id="right_marker_10" x="833.5" y="473.3">K</text>
      <text id="right_marker_11" x="833.5" y="523.3">L</text>
      <text id="right_marker_12" x="833.5" y="573.3">M</text>
      <text id="lower_marker_1" x="45.5" y="587.8">1</text>
      <text id="lower_marker_2" x="95.5" y="587.8">2</text>
      <text id="lower_marker_3" x="145.5" y="587.8">3</text>
      <text id="lower_marker_4" x="195.5" y="587.8">4</text>
      <text id="lower_marker_5" x="245.5" y="587.8">5</text>
      <text id="lower_marker_6" x="295.5" y="587.8">6</text>
      <text id="lower_marker_7" x="345.5" y="587.8">7</text>
      <text id="lower_marker_8" x="395.5" y="587.8">8</text>
      <text id="lower_marker_9" x="445.5" y="587.8">9</text>
      <text id="lower_marker_10" x="495.5" y="587.8">10</text>
      <text id="lower_marker_11" x="545.5" y="587.8">11</text>
      <text id="lower_marker_12" x="595.5" y="587.8">12</text>
      <text id="lower_marker_13" x="645.5" y="587.8">13</text>
      <text id="lower_marker_14" x="695.5" y="587.8">14</text>
      <text id="lower_marker_15" x="745.5" y="587.8">15</text>
      <text id="lower_marker_16" x="795.5" y="587.8">A1</text>
      <text id="left_marker_1" x="17.5" y="23.3">A</text>
      <text id="left_marker_2" x="17.5" y="73.3">B</text>
      <text id="left_marker_3" x="17.5" y="123.3">C</text>
      <text id="left_marker_4" x="17.5" y="173.3">D</text>
      <text id="left_marker_5" x="17.5" y="223.3">E</text>
      <text id="left_marker_6" x="17.5" y="273.3">F</text>
      <text id="left_marker_7" x="17.5" y="323.3">G</text>
      <text id="left_marker_8" x="17.5" y="373.3">H</text>
      <text id="left_marker_9" x="17.5" y="423.3">J</text>
      <text id="left_marker_10" x="17.5" y="473.3">K</text>
      <text id="left_marker_11" x="17.5" y="523.3">L</text>
      <text id="left_marker_12" x="17.5" y="573.3">M</text>
    </g>
  </g>
  <g id="Trimming marks" style="fill:#000000;stroke:none">
    <path id="Top left"     d="m 0,0 h 10 v 5 h -5 v 5 h -5 z" />
    <path id="Top right"    d="m 841,0 h -10 v 5 h 5 v 5 h 5 z" />
    <path id="Bottom right" d="m 841,594 h -10 v -5 h 5 v -5 h 5 z" />
    <path id="Bottom left"  d="m 0,594 h 10 v -5 h -5 v -5 h -5 z" />
  </g>
<!-- Title block -->
  <g id="Borders" style="fill:none;stroke:#000000;stroke-width:0.35;stroke-linecap:round;stroke-linejoin:round">
    <rect id="Frame" x="651" y="536" width="180" height="48" style="stroke-width:0.7"/>
    <rect id="Owner border" x="791" y="536" width="40" height="24"/>
    <rect id="Identification number border" x="731" y="560" width="60" height="12"/>
    <rect id="Revision index border" x="791" y="572" width="20" height="12"/>
    <rect id="Date of issue border" x="751" y="572" width="40" height="12"/>
    <rect id="Sheet number border" x="811" y="572" width="20" height="12"/>
    <rect id="Title border" x="651" y="536" width="80" height="24"/>
    <rect id="Responsible department border" x="791" y="560" width="40" height="12"/>
    <rect id="Approval person border" x="731" y="548" width="60" height="12"/>
    <rect id="Document type border" x="651" y="560" width="80" height="12"/>
    <rect id="Creator border" x="731" y="536" width="60" height="12"/>
    <rect id="Document status border" x="651" y="572" width="80" height="12"/>
    <rect id="Paper size border" x="731" y="572" width="20" height="12"/>
  </g>
  <g id="Labels" style="font-size:3.5px;font-family:osifont;text-anchor:start;fill:#000000;stroke:none">
    <text id="Owner label" x="791.5" y="539.6">Owner:</text>
    <text id="Identification number label" x="731.5" y="563.6">Drawing number:</text>
    <text id="Revision index label" x="791.5" y="575.6">Revision:</text>
    <text id="Date of issue label" x="751.5" y="575.6">Issue date:</text>
    <text id="Sheet number label" x="811.5" y="575.6">Sheet:</text>
    <text id="Title label" x="651.5" y="539.6">Title, supplementary title:</text>
    <text id="Responsible department label" x="791.5" y="563.6">Responsible department:</text>
    <text id="Approval person label" x="731.5" y="551.6">Approved by:</text>
    <text id="Document type label" x="651.5" y="563.6">Document type:</text>
    <text id="Creator label" x="731.5" y="539.6">Created by:</text>
    <text id="Document status label" x="651.5" y="575.6">Document status:</text>
    <text id="Paper size label" x="731.5" y="575.6">Paper size:</text>
    <text id="Sheet scale label" x="771.5" y="527.6">Scale:</text>
    <text id="General tolerances label" x="731.5" y="527.6">General tolerances:</text>
    <text id="Part material label" x="651.5" y="527.6">Part Material:</text>
  </g>
  <g id="Data fields" style="font-size:5px;font-family:osifont;text-anchor:start;fill:#000000;stroke:none">
    <text id="owner_1_data_field" x="811" y="545.1" freecad:editable="owner_1" style="font-size:3.5px;text-align:center;text-anchor:middle"><tspan> </tspan></text>
    <text id="owner_2_data_field" x="811" y="549.1" freecad:editable="owner_2" style="font-size:3.5px;text-align:center;text-anchor:middle"><tspan> </tspan></text>
    <text id="owner_3_data_field" x="811" y="553.1" freecad:editable="owner_3" style="font-size:3.5px;text-align:center;text-anchor:middle"><tspan> </tspan></text>
    <text id="owner_4_data_field" x="811" y="557.1" freecad:editable="owner_4" style="font-size:3.5px;text-align:center;text-anchor:middle"><tspan> </tspan></text>
    <text id="Identification number data field" x="732" y="569.2" freecad:editable="drawing_number"><tspan>DN</tspan></text>
    <text id="Revision index data field" x="801" y="581.2" freecad:editable="revision_index" style="text-align:center;text-anchor:middle"><tspan>AAA</tspan></text>
    <text id="Date of issue data field" x="752" y="581.2" freecad:editable="issue_date"><tspan>YYYY-MM-DD</tspan></text>
    <text id="Sheet number data field" x="821" y="581.2" freecad:editable="sheet_number" style="text-align:center;text-anchor:middle"><tspan>X / Y</tspan></text>
    <text id="Title data field" x="652" y="545.2" freecad:editable="title"><tspan>ISO 7200 titleblock</tspan></text>
    <text id="Supplementary title 1 data field" x="652" y="551.2" freecad:editable="supplementary_title_1"><tspan>ST1</tspan></text>
    <text id="Supplementary title 2 data field" x="652" y="557.2" freecad:editable="supplementary_title_2"><tspan>ST2</tspan></text>
    <text id="Responsible department data field" x="792" y="569.2" freecad:editable="responsible_department"><tspan>RD</tspan></text>
    <text id="Approval person data field" x="732" y="557.2" freecad:editable="approved_by"><tspan>B. Hecate</tspan></text>
    <text id="Document type data field" x="652" y="569.2" freecad:editable="document_type"><tspan>Assembly Drawing</tspan></text>
    <text id="Creator data field" x="732" y="545.2" freecad:editable="created_by"><tspan>A. Nemesis</tspan></text>
    <text id="Document status data field" x="652" y="581.2" freecad:editable="document_status"><tspan>In preparation</tspan></text>
    <text id="Paper size data field" x="741" y="581.2" style="text-align:center;text-anchor:middle">A1</text>
    <text id="Sheet scale data field" x="781" y="533.2" style="text-align:center;text-anchor:middle" freecad:editable="page_scale"><tspan>1 : 1</tspan></text>
    <text id="General tolerances data field" x="732" y="533.2" freecad:editable="general_tolerances"><tspan>ISO 2768-m</tspan></text>
    <text id="Part material data field" x="652" y="533.2" freecad:editable="general_notes"><tspan>Stainless steel Mat.No. 1.4301</tspan></text>
  </g>
  <g id="Outlines" style="fill:none;stroke:#000000;stroke-width:0.5;stroke-linecap:round;stroke-linejoin:round">
    <path id="Trapezoid" d="m 810,519 -10,2.5 v 5 l 10,2.5 z"/>
    <circle id="Inner circle" cx="817" r="2.5" cy="524"/>
    <circle id="Outer circle" cx="817" r="5" cy="524"/>
  </g>
  <g id="Centre lines" style="fill:none;stroke:#000000;stroke-width:0.25;stroke-linecap:round;stroke-linejoin:round;stroke-dasharray:6, 0.75, 0.125, 0.75">
      <path id="Horizontal" d="m 799,524 h 24" style="stroke-dashoffset:0.25"/>
      <path id="Vertical" d="m 817,530 v -12" style="stroke-dashoffset:4.625"/>
  </g>
</svg>
