<?xml version="1.0" encoding="UTF-8" standalone="no"?>

<svg
   width="594mm"
   height="420mm"
   viewBox="0 0 594 420"
   version="1.1"
   id="svg1"
   xmlns="http://www.w3.org/2000/svg"
   xmlns:svg="http://www.w3.org/2000/svg"
   xmlns:rdf="http://www.w3.org/1999/02/22-rdf-syntax-ns#"
   xmlns:cc="http://creativecommons.org/ns#"
   xmlns:dc="http://purl.org/dc/elements/1.1/"
   xmlns:freecad="https://www.freecadweb.org/wiki/index.php?title=Svg_Namespace">
  <title id="title1">Drawing sheet ISO 5457 - A2T</title>
  <metadata id="metadata1">
    <rdf:RDF>
      <cc:Work rdf:about=""><dc:title>Drawing sheet ISO 5457 - A2T</dc:title>
       <cc:license rdf:resource="http://creativecommons.org/publicdomain/zero/1.0/" />
      </cc:Work>
      <cc:License  rdf:about="http://creativecommons.org/publicdomain/zero/1.0/">
       <cc:permits rdf:resource="http://creativecommons.org/ns#Reproduction" />
       <cc:permits rdf:resource="http://creativecommons.org/ns#Distribution" />
       <cc:permits rdf:resource="http://creativecommons.org/ns#DerivativeWorks" />
      </cc:License>
    </rdf:RDF>
  </metadata>
  <rect id="Drawing space frame" x="20" y="10" width="564" height="400" style="fill:none;stroke:#000000;stroke-width:0.7;stroke-linecap:round;stroke-linejoin:round" />
  <g id="Centring marks" style="fill:none;stroke:#000000;stroke-width:0.7;stroke-linecap:round">
    <path id="Top"    d="m 297,5 v 10" />
    <path id="Right"  d="m 589,210 h -10" />
    <path id="Bottom" d="m 297,415 v -10" />
    <path id="Left"   d="m 15,210 h 10" />
  </g>
  <g id="Grid reference system">
    <g id="Grid reference borders" style="fill:none;stroke:#000000;stroke-width:0.35;stroke-linecap:round;stroke-linejoin:round">
      <rect id="Grid reference border" x="15" y="5" width="574" height="410" />
      <path id="path14" d="m 347,5 v 5" />
      <path id="path15" d="m 397,5 v 5" />
      <path id="path16" d="m 447,5 v 5" />
      <path id="path17" d="m 497,5 v 5" />
      <path id="path18" d="m 547,5 v 5" />
      <path id="path19" d="m 247,5 v 5" />
      <path id="path20" d="m 197,5 v 5" />
      <path id="path21" d="m 147,5 v 5" />
      <path id="path22" d="m 97,5 v 5" />
      <path id="path23" d="m 47,5 v 5" />
      <path id="path25" d="m 15,160 h 5" />
      <path id="path26" d="m 15,110 h 5" />
      <path id="path27" d="m 15,60 h 5" />
      <path id="path28" d="m 15,260 h 5" />
      <path id="path29" d="m 15,310 h 5" />
      <path id="path30" d="m 15,360 h 5" />
      <path id="path33" d="m 584,160 h 5" />
      <path id="path35" d="m 584,110 h 5" />
      <path id="path37" d="m 584,60 h 5" />
      <path id="path39" d="m 584,260 h 5" />
      <path id="path41" d="m 584,310 h 5" />
      <path id="path43" d="m 584,360 h 5" />
      <path id="path47" d="m 247,410 v 5" />
      <path id="path49" d="m 197,410 v 5" />
      <path id="path51" d="m 147,410 v 5" />
      <path id="path53" d="m 97,410 v 5" />
      <path id="path55" d="m 47,410 v 5" />
      <path id="path58" d="m 347,410 v 5" />
      <path id="path60" d="m 397,410 v 5" />
      <path id="path62" d="m 447,410 v 5" />
      <path id="path64" d="m 497,410 v 5" />
      <path id="path67" d="m 547,410 v 5" />
    </g>
    <g id="Grid reference markers" style="font-size:3.5px;font-family:osifont;text-align:center;text-anchor:middle;fill:#000000;stroke:none">
      <text id="upper_marker_1" x="22" y="8.8">1</text>
      <text id="upper_marker_2" x="72" y="8.8">2</text>
      <text id="upper_marker_3" x="122" y="8.8">3</text>
      <text id="upper_marker_4" x="172" y="8.8">4</text>
      <text id="upper_marker_5" x="222" y="8.8">5</text>
      <text id="upper_marker_6" x="272" y="8.8">6</text>
      <text id="upper_marker_7" x="322" y="8.8">7</text>
      <text id="upper_marker_8" x="372" y="8.8">8</text>
      <text id="upper_marker_9" x="422" y="8.8">9</text>
      <text id="upper_marker_10" x="472" y="8.8">10</text>
      <text id="upper_marker_11" x="522" y="8.8">11</text>
      <text id="upper_marker_12" x="572" y="8.8">12</text>
      <text id="right_marker_1" x="586.5" y="36.3">A</text>
      <text id="right_marker_2" x="586.5" y="86.3">B</text>
      <text id="right_marker_3" x="586.5" y="136.3">C</text>
      <text id="right_marker_4" x="586.5" y="186.3">D</text>
      <text id="right_marker_5" x="586.5" y="236.3">E</text>
      <text id="right_marker_6" x="586.5" y="286.3">F</text>
      <text id="right_marker_7" x="586.5" y="336.3">G</text>
      <text id="right_marker_8" x="586.5" y="386.3">H</text>
      <text id="lower_marker_1" x="22" y="413.8">1</text>
      <text id="lower_marker_2" x="72" y="413.8">2</text>
      <text id="lower_marker_3" x="122" y="413.8">3</text>
      <text id="lower_marker_4" x="172" y="413.8">4</text>
      <text id="lower_marker_5" x="222" y="413.8">5</text>
      <text id="lower_marker_6" x="272" y="413.8">6</text>
      <text id="lower_marker_7" x="322" y="413.8">7</text>
      <text id="lower_marker_8" x="372" y="413.8">8</text>
      <text id="lower_marker_9" x="422" y="413.8">9</text>
      <text id="lower_marker_10" x="472" y="413.8">10</text>
      <text id="lower_marker_11" x="522" y="413.8">11</text>
      <text id="lower_marker_12" x="572" y="413.8">A2</text>
      <text id="left_marker_1" x="17.5" y="36.3">A</text>
      <text id="left_marker_2" x="17.5" y="86.3">B</text>
      <text id="left_marker_3" x="17.5" y="136.3">C</text>
      <text id="left_marker_4" x="17.5" y="186.3">D</text>
      <text id="left_marker_5" x="17.5" y="236.3">E</text>
      <text id="left_marker_6" x="17.5" y="286.3">F</text>
      <text id="left_marker_7" x="17.5" y="336.3">G</text>
      <text id="left_marker_8" x="17.5" y="386.3">H</text>
    </g>
  </g>
  <g id="Trimming marks" style="fill:#000000;stroke:none">
    <path id="Top left"     d="m 0,0 h 10 v 5 h -5 v 5 h -5 z" />
    <path id="Top right"    d="m 594,0 h -10 v 5 h 5 v 5 h 5 z" />
    <path id="Bottom right" d="m 594,420 h -10 v -5 h 5 v -5 h 5 z" />
    <path id="Bottom left"  d="m 0,420 h 10 v -5 h -5 v -5 h -5 z" />
  </g>
<!-- Title block -->
  <g id="Borders" style="fill:none;stroke:#000000;stroke-width:0.35;stroke-linecap:round;stroke-linejoin:round">
    <rect id="Frame" x="404" y="362" width="180" height="48" style="stroke-width:0.7"/>
    <rect id="Owner border" x="544" y="362" width="40" height="24"/>
    <rect id="Identification number border" x="484" y="386" width="60" height="12"/>
    <rect id="Revision index border" x="544" y="398" width="20" height="12"/>
    <rect id="Date of issue border" x="504" y="398" width="40" height="12"/>
    <rect id="Sheet number border" x="564" y="398" width="20" height="12"/>
    <rect id="Title border" x="404" y="362" width="80" height="24"/>
    <rect id="Responsible department border" x="544" y="386" width="40" height="12"/>
    <rect id="Approval person border" x="484" y="374" width="60" height="12"/>
    <rect id="Document type border" x="404" y="386" width="80" height="12"/>
    <rect id="Creator border" x="484" y="362" width="60" height="12"/>
    <rect id="Document status border" x="404" y="398" width="80" height="12"/>
    <rect id="Paper size border" x="484" y="398" width="20" height="12"/>
  </g>
  <g id="Labels" style="font-size:3.5px;font-family:osifont;text-anchor:start;fill:#000000;stroke:none">
    <text id="Owner label" x="544.5" y="365.6">Owner:</text>
    <text id="Identification number label" x="484.5" y="389.6">Drawing number:</text>
    <text id="Revision index label" x="544.5" y="401.6">Revision:</text>
    <text id="Date of issue label" x="504.5" y="401.6">Issue date:</text>
    <text id="Sheet number label" x="564.5" y="401.6">Sheet:</text>
    <text id="Title label" x="404.5" y="365.6">Title, supplementary title:</text>
    <text id="Responsible department label" x="544.5" y="389.6">Responsible department:</text>
    <text id="Approval person label" x="484.5" y="377.6">Approved by:</text>
    <text id="Document type label" x="404.5" y="389.6">Document type:</text>
    <text id="Creator label" x="484.5" y="365.6">Created by:</text>
    <text id="Document status label" x="404.5" y="401.6">Document status:</text>
    <text id="Paper size label" x="484.5" y="401.6">Paper size:</text>
    <text id="Sheet scale label" x="524.5" y="353.6">Scale:</text>
    <text id="General tolerances label" x="484.5" y="353.6">General tolerances:</text>
    <text id="Part material label" x="404.5" y="353.6">Part Material:</text>
  </g>
  <g id="Data fields" style="font-size:5px;font-family:osifont;text-anchor:start;fill:#000000;stroke:none">
    <text id="owner_1_data_field" x="564" y="371.1" freecad:editable="owner_1" style="font-size:3.5px;text-align:center;text-anchor:middle"><tspan> </tspan></text>
    <text id="owner_2_data_field" x="564" y="375.1" freecad:editable="owner_2" style="font-size:3.5px;text-align:center;text-anchor:middle"><tspan> </tspan></text>
    <text id="owner_3_data_field" x="564" y="379.1" freecad:editable="owner_3" style="font-size:3.5px;text-align:center;text-anchor:middle"><tspan> </tspan></text>
    <text id="owner_4_data_field" x="564" y="383.1" freecad:editable="owner_4" style="font-size:3.5px;text-align:center;text-anchor:middle"><tspan> </tspan></text>
    <text id="Identification number data field" x="485" y="395.2" freecad:editable="drawing_number"><tspan>DN</tspan></text>
    <text id="Revision index data field" x="554" y="407.2" freecad:editable="revision_index" style="text-align:center;text-anchor:middle"><tspan>AAA</tspan></text>
    <text id="Date of issue data field" x="505" y="407.2" freecad:editable="issue_date"><tspan>YYYY-MM-DD</tspan></text>
    <text id="Sheet number data field" x="574" y="407.2" freecad:editable="sheet_number" style="text-align:center;text-anchor:middle"><tspan>X / Y</tspan></text>
    <text id="Title data field" x="405" y="371.2" freecad:editable="title"><tspan>ISO 7200 titleblock</tspan></text>
    <text id="Supplementary title 1 data field" x="405" y="377.2" freecad:editable="supplementary_title_1"><tspan>ST1</tspan></text>
    <text id="Supplementary title 2 data field" x="405" y="383.2" freecad:editable="supplementary_title_2"><tspan>ST2</tspan></text>
    <text id="Responsible department data field" x="545" y="395.2" freecad:editable="responsible_department"><tspan>RD</tspan></text>
    <text id="Approval person data field" x="485" y="383.2" freecad:editable="approved_by"><tspan>B. Hecate</tspan></text>
    <text id="Document type data field" x="405" y="395.2" freecad:editable="document_type"><tspan>Assembly Drawing</tspan></text>
    <text id="Creator data field" x="485" y="371.2" freecad:editable="created_by"><tspan>A. Nemesis</tspan></text>
    <text id="Document status data field" x="405" y="407.2" freecad:editable="document_status"><tspan>In preparation</tspan></text>
    <text id="Paper size data field" x="494" y="407.2" style="text-align:center;text-anchor:middle">A2</text>
    <text id="Sheet scale data field" x="534" y="359.2" style="text-align:center;text-anchor:middle" freecad:editable="page_scale"><tspan>1 : 1</tspan></text>
    <text id="General tolerances data field" x="485" y="359.2" freecad:editable="general_tolerances"><tspan>ISO 2768-m</tspan></text>
    <text id="Part material data field" x="405" y="359.2" freecad:editable="general_notes"><tspan>Stainless steel Mat.No. 1.4301</tspan></text>
  </g>
  <g id="Outlines" style="fill:none;stroke:#000000;stroke-width:0.5;stroke-linecap:round;stroke-linejoin:round">
    <path id="Trapezoid" d="m 563,345 -10,2.5 v 5 l 10,2.5 z"/>
    <circle id="Inner circle" cx="570" r="2.5" cy="350"/>
    <circle id="Outer circle" cx="570" r="5" cy="350"/>
  </g>
  <g id="Centre lines" style="fill:none;stroke:#000000;stroke-width:0.25;stroke-linecap:round;stroke-linejoin:round;stroke-dasharray:6, 0.75, 0.125, 0.75">
      <path id="Horizontal" d="m 552,350 h 24" style="stroke-dashoffset:0.25"/>
      <path id="Vertical" d="m 570,356 v -12" style="stroke-dashoffset:4.625"/>
  </g>
</svg>
