<?xml version="1.0" encoding="UTF-8" standalone="no"?>
<svg
  xmlns="http://www.w3.org/2000/svg" version="1.1"
  xmlns:freecad="http://www.freecadweb.org/wiki/index.php?title=Svg_Namespace"
  width="594mm" height="420mm" viewBox="0 0 594 420">
  <g id="orientation-border" style="fill:none;stroke:#000000;stroke-width:0.20;stroke-linecap:miter;stroke-miterlimit:4">
    <rect width="564" height="400" x="20" y="10" />
    <!-- orientation separators top -->
    <path d="m 79,10 v 4" />
    <path d="m 135,10 v 4" />
    <path d="m 191,10 v 4" />
    <path d="m 247,10 v 4" />
    <path d="m 303,10 v 4" />
    <path d="m 359,10 v 4" />
    <path d="m 415,10 v 4" />
    <path d="m 471,10 v 4" />
    <path d="m 527,10 v 4" />
    <!-- orientation separators left -->
    <path d="m 20,68 h 4" />
    <path d="m 20,125 h 4" />
    <path d="m 20,182 h 4" />
    <path d="m 20,239 h 4" />
    <path d="m 20,296 h 4" />
    <path d="m 20,353 h 4" />
    <!-- orientation separators right -->
    <path d="m 580,68 h 4" />
    <path d="m 580,125 h 4" />
    <path d="m 580,182 h 4" />
    <path d="m 580,239 h 4" />
    <path d="m 580,296 h 4" />
    <path d="m 580,353 h 4" />
    <!-- orientation separators bottom -->
    <path d="m 79,406 v 4" />
    <path d="m 135,406 v 4" />
    <path d="m 191,406 v 4" />
    <path d="m 247,406 v 4" />
    <path d="m 303,406 v 4" />
    <path d="m 359,406 v 4" />
    <path d="m 415,406 v 4" />
    <path d="m 471,406 v 4" />
    <path d="m 527,406 v 4" />
  </g>
  <g id="orientation-text" style="font-size:3px;text-anchor:start;fill:#000000;font-family:tahoma">
    <!-- orientation char top -->
    <text x="49" y="13">1</text>
    <text x="106" y="13">2</text>
    <text x="162" y="13">3</text>
    <text x="218" y="13">4</text>
    <text x="274" y="13">5</text>
    <text x="331" y="13">6</text>
    <text x="386" y="13">7</text>
    <text x="442" y="13">8</text>
    <text x="498" y="13">9</text>
    <text x="553" y="13">10</text>
    <!-- orientation char right -->
    <text x="21" y="41">A</text>
    <text x="21" y="98">B</text>
    <text x="21" y="155">C</text>
    <text x="21" y="212">D</text>
    <text x="21" y="269">E</text>
    <text x="21" y="326">F</text>
    <text x="21" y="382">G</text>
    <!-- orientation char left -->
    <text x="581" y="41">A</text>
    <text x="581" y="98">B</text>
    <text x="581" y="155">C</text>
    <text x="581" y="212">D</text>
    <text x="581" y="269">E</text>
    <text x="581" y="326">F</text>
    <text x="581" y="382">G</text>
    <!-- orientation char bottom -->
    <text x="49" y="409">1</text>
    <text x="106" y="409">2</text>
    <text x="162" y="409">3</text>
    <text x="218" y="409">4</text>
    <text x="274" y="409">5</text>
    <text x="331" y="409">6</text>
    <text x="386" y="409">7</text>
    <text x="442" y="409">8</text>
    <text x="498" y="409">9</text>
    <text x="553" y="409">10</text>
  </g>
  <g id="drawing-border" style="fill:none;stroke:#000000;stroke-width:0.35;stroke-linecap:miter;stroke-miterlimit:4">
    <rect width="556" height="392" x="24" y="14" />
  </g>
  <g id="titleblock-structure" style="fill:none;stroke:#000000;stroke-width:0.35;stroke-linecap:miter;stroke-miterlimit:4">
    <rect width="140" height="34" x="440" y="372" />
    <path d="m 440,380 h 140" /> <!-- upper horizontal Separator Titleblock -->
    <path d="m 440,398 h 87" /> <!-- lower horizontal Separator Document-Type -->
    <path d="m 440,402 h 140" /> <!-- lower horizontal Separator Copyright -->
    <path d="m 485,372 v 8" /> <!-- Separator Author / Owner -->
    <path d="m 527,372 v 30" /> <!-- Separator Title / Liste RH -->
    <path d="m 557,372 v 8" /> <!-- Separator Scale / Sheet -->
    <path d="m 527,388 h 53" /> <!-- Separator Part / Drawing-Nr -->
    <path d="m 527,394 h 53" /> <!-- Separator DRW-Info / Revision -->
    <path d="m 557,394 v 8" /> <!-- Separator Date / Revision -->
  </g>
  <g id="titleblock-text-non-editable" style="font-size:3px;text-anchor:start;fill:#000000;font-family:tahoma">
    <text x="441" y="375">Author:</text>
    <text x="441" y="379">Appr.:</text>
    <text x="486" y="375">Legal owner:</text>
    <text x="441" y="384">TITLE:</text>
    <text x="441" y="401">Document type:</text>
    <text x="558" y="375">Sheet:</text>
    <text x="558" y="379">Size:</text>
    <text x="528" y="375">Scale:</text>
    <text x="528" y="379">Toler.:</text>
    <text x="528" y="383">Part material:</text>
    <text x="528" y="387">Part number:</text>
    <text x="528" y="392">Drawing no.:</text>
    <text x="528" y="397">Date:</text>
    <text x="558" y="397">Revision:</text>
  </g>
  <g id="titleblock-text-editable" style="font-size:3px;text-anchor:start;fill:#000000;font-family:tahoma">
    <text freecad:editable="AUTHOR_NAME" x="452" y="375"><tspan>AUTHOR NAME</tspan></text>
    <text freecad:editable="APPROVER_NAME" x="452" y="379"><tspan>APPROVER NAME</tspan></text>
    <text freecad:editable="OWNER_NAME" x="487" y="379"><tspan>OWNER NAME</tspan></text>
    <text freecad:editable="TITLELINE-1" x="442" y="388"><tspan>FreeCAD</tspan></text>
    <text freecad:editable="TITLELINE-2" x="442" y="392"><tspan></tspan></text>
    <text freecad:editable="TITLELINE-3" x="442" y="396"><tspan></tspan></text>
    <text freecad:editable="DOCUMENT_TYPE" x="464" y="401">Mechanical assembly drawing<tspan></tspan></text>
    <text freecad:editable="SHEET" x="567" y="375"><tspan>99 of 99</tspan></text>
    <text freecad:editable="SCALE" x="537" y="375"><tspan>M x:x</tspan></text>
    <text freecad:editable="TOLERANCE" x="537" y="379"><tspan>+/- ?</tspan></text>
    <text freecad:editable="PM" x="547" y="383"><tspan>PM</tspan></text>
    <text freecad:editable="PN" x="547" y="387"><tspan>PN</tspan></text>
    <text freecad:editable="DN" x="547" y="392"><tspan>DN</tspan></text>
    <text freecad:editable="DATE" x="529" y="401"><tspan>YYYY-MM-DD</tspan></text>
    <text freecad:editable="REVISION" x="559" y="401"><tspan>REV A</tspan></text>
    <text freecad:editable="SIZE" x="567" y="379"><tspan>A2</tspan></text>
    <text freecad:editable="RIGHTS" x="441" y="405"><tspan>(R) DO NOT DUPLICATE THIS DRAWING TO THIRD PARTIES WITHOUT OWNER'S PERMISSION !</tspan></text>
  </g>
  <!-- Set display:none to hide FreeCAD Logo or remove this and next 4 lines from this code -->
  <g style="display:inline" id="freecad-logo" transform="translate(428,395)" fill-rule="evenodd" stroke="#000" stroke-width="0.35" fill="none">
    <path d="m0.1524 0.15254v8.8549h1.9744v-3.4652h1.396v-1.3661h-1.396v-1.4745h3.4391v-2.5441l-5.4135-0.005z"/>
    <path d="m7.7927 3.4504-0.50715-0.176-0.48387-1.2366-0.76115 0.04-0.34718 1.2787-0.4859 0.23269-1.2119-0.53015-0.51188 0.56882 0.65892 1.1485-0.18006 0.50567-1.2366 0.48387 0.044064 0.76263 1.2787 0.34718 0.23269 0.4859-0.53421 1.2104 0.56882 0.51188 1.1485-0.65891 0.50973 0.18155 0.4798 1.2351 0.7667-0.04258 0.34311-1.2802 0.4859-0.23269 1.2145 0.5357 0.51188-0.56882-0.65891-1.1485 0.17748-0.51122 1.2351-0.4798-0.03851-0.76521-1.2802-0.34311-0.23269-0.4859 0.53163-1.216-0.56881-0.51184zm-0.5715 1.2244 0.23576 0.13679 0.20426 0.18519 0.16353 0.22101 0.11763 0.24572 0.06916 0.26489 0.01146 0.27146-0.03921 0.27139-0.08948 0.25764-0.14234 0.23834-0.17964 0.20167-0.22101 0.16353-0.24572 0.11763-0.26489 0.06916-0.27295 0.01553-0.2719-0.04-0.2576-0.089-0.2383-0.143-0.2002-0.183-0.165-0.217-0.1177-0.246-0.0676-0.269-0.0156-0.273 0.039206-0.2714 0.089484-0.25764 0.14085-0.23427 0.18113-0.20574 0.22101-0.16352 0.24572-0.11763 0.26895-0.06768 0.27147-0.01146 0.27139 0.03921 0.25764 0.08948z"/>
  </g>
</svg>
