<?xml version="1.0" encoding="UTF-8"?>
<svg id="svg261" width="594mm" height="420mm" version="1.1" viewBox="0 0 594 420" xmlns="http://www.w3.org/2000/svg" xmlns:cc="http://creativecommons.org/ns#" xmlns:dc="http://purl.org/dc/elements/1.1/" xmlns:freecad="http://www.freecad.org/wiki/index.php?title=Svg_Namespace" xmlns:rdf="http://www.w3.org/1999/02/22-rdf-syntax-ns#">
 <metadata id="metadata267">
  <rdf:RDF>
   <cc:Work rdf:about="">
    <dc:format>image/svg+xml</dc:format>
    <dc:type rdf:resource="http://purl.org/dc/dcmitype/StillImage"/>
   </cc:Work>
  </rdf:RDF>
 </metadata>
 <g id="orientation-border" fill="none" stroke="#000" stroke-linecap="miter" stroke-width=".2">
  <rect id="rect2" x="20" y="10" width="564" height="400"/>
  <!-- orientation separators top -->
  <path id="path4" d="m79 10v4"/>
  <path id="path6" d="m135 10v4"/>
  <path id="path8" d="m191 10v4"/>
  <path id="path10" d="m247 10v4"/>
  <path id="path12" d="m303 10v4"/>
  <path id="path14" d="m359 10v4"/>
  <path id="path16" d="m415 10v4"/>
  <path id="path18" d="m471 10v4"/>
  <path id="path20" d="m527 10v4"/>
  <!-- orientation separators left -->
  <path id="path22" d="m20 68h4"/>
  <path id="path24" d="m20 125h4"/>
  <path id="path26" d="m20 182h4"/>
  <path id="path28" d="m20 239h4"/>
  <path id="path30" d="m20 296h4"/>
  <path id="path32" d="m20 353h4"/>
  <!-- orientation separators right -->
  <path id="path34" d="m580 68h4"/>
  <path id="path36" d="m580 125h4"/>
  <path id="path38" d="m580 182h4"/>
  <path id="path40" d="m580 239h4"/>
  <path id="path42" d="m580 296h4"/>
  <path id="path44" d="m580 353h4"/>
  <!-- orientation separators bottom -->
  <path id="path46" d="m79 406v4"/>
  <path id="path48" d="m135 406v4"/>
  <path id="path50" d="m191 406v4"/>
  <path id="path52" d="m247 406v4"/>
  <path id="path54" d="m303 406v4"/>
  <path id="path56" d="m359 406v4"/>
  <path id="path58" d="m415 406v4"/>
  <path id="path60" d="m471 406v4"/>
  <path id="path62" d="m527 406v4"/>
 </g>
 <g id="orientation-text" font-family="tahoma" font-size="3px">
  <!-- orientation char top -->
  <text id="text65" x="49" y="13">1</text>
  <text id="text67" x="106" y="13">2</text>
  <text id="text69" x="162" y="13">3</text>
  <text id="text71" x="218" y="13">4</text>
  <text id="text73" x="274" y="13">5</text>
  <text id="text75" x="331" y="13">6</text>
  <text id="text77" x="386" y="13">7</text>
  <text id="text79" x="442" y="13">8</text>
  <text id="text81" x="498" y="13">9</text>
  <text id="text83" x="553" y="13">10</text>
  <!-- orientation char right -->
  <text id="text85" x="21" y="41">A</text>
  <text id="text87" x="21" y="98">B</text>
  <text id="text89" x="21" y="155">C</text>
  <text id="text91" x="21" y="212">D</text>
  <text id="text93" x="21" y="269">E</text>
  <text id="text95" x="21" y="326">F</text>
  <text id="text97" x="21" y="382">G</text>
  <!-- orientation char left -->
  <text id="text99" x="581" y="41">A</text>
  <text id="text101" x="581" y="98">B</text>
  <text id="text103" x="581" y="155">C</text>
  <text id="text105" x="581" y="212">D</text>
  <text id="text107" x="581" y="269">E</text>
  <text id="text109" x="581" y="326">F</text>
  <text id="text111" x="581" y="382">G</text>
  <!-- orientation char bottom -->
  <text id="text113" x="49" y="409">1</text>
  <text id="text115" x="106" y="409">2</text>
  <text id="text117" x="162" y="409">3</text>
  <text id="text119" x="218" y="409">4</text>
  <text id="text121" x="274" y="409">5</text>
  <text id="text123" x="331" y="409">6</text>
  <text id="text125" x="386" y="409">7</text>
  <text id="text127" x="442" y="409">8</text>
  <text id="text129" x="498" y="409">9</text>
  <text id="text131" x="553" y="409">10</text>
 </g>
 <g id="drawing-border" fill="none" stroke="#000" stroke-linecap="miter" stroke-width=".35">
  <rect id="rect134" x="24" y="14" width="556" height="392"/>
 </g>
 <g id="titleblock-structure" fill="none" stroke="#000" stroke-linecap="miter" stroke-width=".35">
  <rect id="rect137" x="440" y="372" width="140" height="34"/>
  <path id="path139" d="m440 380h140"/>
  <!-- upper horizontal Separator Titleblock -->
  <path id="path141" d="m440 398h87"/>
  <!-- lower horizontal Separator Document-Type -->
  <path id="path143" d="m440 402h140"/>
  <!-- lower horizontal Separator Copyright -->
  <path id="path145" d="m485 372v8"/>
  <!-- Separator Author / Owner -->
  <path id="path147" d="m527 372v30"/>
  <!-- Separator Title / Liste RH -->
  <path id="path149" d="m557 372v8"/>
  <!-- Separator Scale / Sheet -->
  <path id="path151" d="m527 388h53"/>
  <!-- Separator Part / Drawing-Nr -->
  <path id="path153" d="m527 394h53"/>
  <!-- Separator DRW-Info / Revision -->
  <path id="path155" d="m557 394v8"/>
  <!-- Separator Date / Revision -->
 </g>
 <g id="titleblock-text-non-editable" font-family="tahoma" font-size="3px">
  <text id="text158" x="441" y="375">Author:</text>
  <text id="text160" x="441" y="379">Appr.:</text>
  <text id="text162" x="486" y="375">Legal owner:</text>
  <text id="text164" x="441" y="384">TITLE:</text>
  <text id="text166" x="441" y="401">Document type:</text>
  <text id="text168" x="558" y="375">Sheet:</text>
  <text id="text170" x="558" y="379">Size:</text>
  <text id="text172" x="528" y="375">Scale:</text>
  <text id="text174" x="528" y="379">Toler.:</text>
  <text id="text176" x="528" y="383">Part material:</text>
  <text id="text178" x="528" y="387">Part number:</text>
  <text id="text180" x="528" y="392">Drawing no.:</text>
  <text id="text182" x="528" y="397">Date:</text>
  <text id="text184" x="558" y="397">Revision:</text>
 </g>
 <g id="titleblock-text-editable" font-family="tahoma" font-size="3px">
  <text id="text189" x="452" y="375" freecad:editable="AUTHOR_NAME"><tspan id="tspan187">AUTHOR NAME</tspan></text>
  <text id="text193" x="452" y="379" freecad:editable="APPROVER_NAME"><tspan id="tspan191">APPROVER NAME</tspan></text>
  <text id="text197" x="487" y="379" freecad:editable="OWNER_NAME"><tspan id="tspan195">OWNER NAME</tspan></text>
  <text id="text201" x="442" y="388" freecad:editable="TITLELINE-1"><tspan id="tspan199">FreeCAD</tspan></text>
  <text id="text205" x="442" y="392" freecad:editable="TITLELINE-2"><tspan id="tspan203"/></text>
  <text id="text209" x="442" y="396" freecad:editable="TITLELINE-3"><tspan id="tspan207"/></text>
  <text id="text213" x="464" y="401" freecad:editable="DOCUMENT_TYPE"><tspan id="tspan211">Mechanical assembly drawing</tspan></text>
  <text id="text217" x="567" y="375" freecad:editable="SHEET"><tspan id="tspan215">99 of 99</tspan></text>
  <text id="text221" x="537" y="375" freecad:editable="SCALE"><tspan id="tspan219">M x:x</tspan></text>
  <text id="text225" x="537" y="379" freecad:editable="TOLERANCE"><tspan id="tspan223">+/- ?</tspan></text>
  <text id="text229" x="547" y="383" freecad:editable="PM"><tspan id="tspan227">PM</tspan></text>
  <text id="text233" x="547" y="387" freecad:editable="PN"><tspan id="tspan231">PN</tspan></text>
  <text id="text237" x="547" y="392" freecad:editable="DN"><tspan id="tspan235">DN</tspan></text>
  <text id="text241" x="529" y="401" freecad:editable="DATE"><tspan id="tspan239">YYYY-MM-DD</tspan></text>
  <text id="text245" x="559" y="401" freecad:editable="REVISION"><tspan id="tspan243">REV A</tspan></text>
  <text id="text249" x="567" y="379" freecad:editable="SIZE"><tspan id="tspan247">A2</tspan></text>
  <text id="text253" x="441" y="405" freecad:editable="RIGHTS"><tspan id="tspan251">(R) DO NOT DUPLICATE THIS DRAWING TO THIRD PARTIES WITHOUT OWNER'S PERMISSION !</tspan></text>
 </g>
 <!-- Set display:none to hide FreeCAD Logo or remove this and next 4 lines from this code -->
 <g id="freecad-logo" transform="translate(428,395)" fill="none" fill-rule="evenodd" stroke="#000" stroke-width=".35">
  <path id="path256" d="m0.1524 0.15254v8.8549h1.9744v-3.4652h1.396v-1.3661h-1.396v-1.4745h3.4391v-2.5441l-5.4135-5e-3z"/>
  <path id="path258" d="m7.7927 3.4504-0.50715-0.176-0.48387-1.2366-0.76115 0.04-0.34718 1.2787-0.4859 0.23269-1.2119-0.53015-0.51188 0.56882 0.65892 1.1485-0.18006 0.50567-1.2366 0.48387 0.044064 0.76263 1.2787 0.34718 0.23269 0.4859-0.53421 1.2104 0.56882 0.51188 1.1485-0.65891 0.50973 0.18155 0.4798 1.2351 0.7667-0.04258 0.34311-1.2802 0.4859-0.23269 1.2145 0.5357 0.51188-0.56882-0.65891-1.1485 0.17748-0.51122 1.2351-0.4798-0.03851-0.76521-1.2802-0.34311-0.23269-0.4859 0.53163-1.216-0.56881-0.51184zm-0.5715 1.2244 0.23576 0.13679 0.20426 0.18519 0.16353 0.22101 0.11763 0.24572 0.06916 0.26489 0.01146 0.27146-0.03921 0.27139-0.08948 0.25764-0.14234 0.23834-0.17964 0.20167-0.22101 0.16353-0.24572 0.11763-0.26489 0.06916-0.27295 0.01553-0.2719-0.04-0.2576-0.089-0.2383-0.143-0.2002-0.183-0.165-0.217-0.1177-0.246-0.0676-0.269-0.0156-0.273 0.039206-0.2714 0.089484-0.25764 0.14085-0.23427 0.18113-0.20574 0.22101-0.16352 0.24572-0.11763 0.26895-0.06768 0.27147-0.01146 0.27139 0.03921 0.25764 0.08948z"/>
 </g>
</svg>
