<?xml version="1.0" encoding="UTF-8" standalone="no"?>
<svg
   xmlns:freecad="http://www.freecadweb.org/wiki/index.php?title=Svg_Namespace"
   xmlns:dc="http://purl.org/dc/elements/1.1/"
   xmlns:cc="http://creativecommons.org/ns#"
   xmlns:rdf="http://www.w3.org/1999/02/22-rdf-syntax-ns#"
   xmlns:svg="http://www.w3.org/2000/svg"
   xmlns="http://www.w3.org/2000/svg"
   id="svg261"
   viewBox="0 0 594 420"
   height="420mm"
   width="594mm"
   version="1.1">
  <metadata
     id="metadata267">
    <rdf:RDF>
      <cc:Work
         rdf:about="">
        <dc:format>image/svg+xml</dc:format>
        <dc:type
           rdf:resource="http://purl.org/dc/dcmitype/StillImage" />
      </cc:Work>
    </rdf:RDF>
  </metadata>
  <defs
     id="defs265" />
  <g
     style="fill:none;stroke:#000000;stroke-width:0.20;stroke-linecap:miter;stroke-miterlimit:4"
     id="orientation-border">
    <rect
       id="rect2"
       y="10"
       x="20"
       height="400"
       width="564" />
    <!-- orientation separators top -->
    <path
       id="path4"
       d="m 79,10 v 4" />
    <path
       id="path6"
       d="m 135,10 v 4" />
    <path
       id="path8"
       d="m 191,10 v 4" />
    <path
       id="path10"
       d="m 247,10 v 4" />
    <path
       id="path12"
       d="m 303,10 v 4" />
    <path
       id="path14"
       d="m 359,10 v 4" />
    <path
       id="path16"
       d="m 415,10 v 4" />
    <path
       id="path18"
       d="m 471,10 v 4" />
    <path
       id="path20"
       d="m 527,10 v 4" />
    <!-- orientation separators left -->
    <path
       id="path22"
       d="m 20,68 h 4" />
    <path
       id="path24"
       d="m 20,125 h 4" />
    <path
       id="path26"
       d="m 20,182 h 4" />
    <path
       id="path28"
       d="m 20,239 h 4" />
    <path
       id="path30"
       d="m 20,296 h 4" />
    <path
       id="path32"
       d="m 20,353 h 4" />
    <!-- orientation separators right -->
    <path
       id="path34"
       d="m 580,68 h 4" />
    <path
       id="path36"
       d="m 580,125 h 4" />
    <path
       id="path38"
       d="m 580,182 h 4" />
    <path
       id="path40"
       d="m 580,239 h 4" />
    <path
       id="path42"
       d="m 580,296 h 4" />
    <path
       id="path44"
       d="m 580,353 h 4" />
    <!-- orientation separators bottom -->
    <path
       id="path46"
       d="m 79,406 v 4" />
    <path
       id="path48"
       d="m 135,406 v 4" />
    <path
       id="path50"
       d="m 191,406 v 4" />
    <path
       id="path52"
       d="m 247,406 v 4" />
    <path
       id="path54"
       d="m 303,406 v 4" />
    <path
       id="path56"
       d="m 359,406 v 4" />
    <path
       id="path58"
       d="m 415,406 v 4" />
    <path
       id="path60"
       d="m 471,406 v 4" />
    <path
       id="path62"
       d="m 527,406 v 4" />
  </g>
  <g
     style="font-size:3px;text-anchor:start;fill:#000000;font-family:tahoma"
     id="orientation-text">
    <!-- orientation char top -->
    <text
       id="text65"
       y="13"
       x="49">1</text>
    <text
       id="text67"
       y="13"
       x="106">2</text>
    <text
       id="text69"
       y="13"
       x="162">3</text>
    <text
       id="text71"
       y="13"
       x="218">4</text>
    <text
       id="text73"
       y="13"
       x="274">5</text>
    <text
       id="text75"
       y="13"
       x="331">6</text>
    <text
       id="text77"
       y="13"
       x="386">7</text>
    <text
       id="text79"
       y="13"
       x="442">8</text>
    <text
       id="text81"
       y="13"
       x="498">9</text>
    <text
       id="text83"
       y="13"
       x="553">10</text>
    <!-- orientation char right -->
    <text
       id="text85"
       y="41"
       x="21">A</text>
    <text
       id="text87"
       y="98"
       x="21">B</text>
    <text
       id="text89"
       y="155"
       x="21">C</text>
    <text
       id="text91"
       y="212"
       x="21">D</text>
    <text
       id="text93"
       y="269"
       x="21">E</text>
    <text
       id="text95"
       y="326"
       x="21">F</text>
    <text
       id="text97"
       y="382"
       x="21">G</text>
    <!-- orientation char left -->
    <text
       id="text99"
       y="41"
       x="581">A</text>
    <text
       id="text101"
       y="98"
       x="581">B</text>
    <text
       id="text103"
       y="155"
       x="581">C</text>
    <text
       id="text105"
       y="212"
       x="581">D</text>
    <text
       id="text107"
       y="269"
       x="581">E</text>
    <text
       id="text109"
       y="326"
       x="581">F</text>
    <text
       id="text111"
       y="382"
       x="581">G</text>
    <!-- orientation char bottom -->
    <text
       id="text113"
       y="409"
       x="49">1</text>
    <text
       id="text115"
       y="409"
       x="106">2</text>
    <text
       id="text117"
       y="409"
       x="162">3</text>
    <text
       id="text119"
       y="409"
       x="218">4</text>
    <text
       id="text121"
       y="409"
       x="274">5</text>
    <text
       id="text123"
       y="409"
       x="331">6</text>
    <text
       id="text125"
       y="409"
       x="386">7</text>
    <text
       id="text127"
       y="409"
       x="442">8</text>
    <text
       id="text129"
       y="409"
       x="498">9</text>
    <text
       id="text131"
       y="409"
       x="553">10</text>
  </g>
  <g
     style="fill:none;stroke:#000000;stroke-width:0.35;stroke-linecap:miter;stroke-miterlimit:4"
     id="drawing-border">
    <rect
       id="rect134"
       y="14"
       x="24"
       height="392"
       width="556" />
  </g>
  <g
     style="fill:none;stroke:#000000;stroke-width:0.35;stroke-linecap:miter;stroke-miterlimit:4"
     id="titleblock-structure">
    <rect
       id="rect137"
       y="372"
       x="440"
       height="34"
       width="140" />
    <path
       id="path139"
       d="m 440,380 h 140" />
    <!-- upper horizontal Separator Titleblock -->
    <path
       id="path141"
       d="m 440,398 h 87" />
    <!-- lower horizontal Separator Document-Type -->
    <path
       id="path143"
       d="m 440,402 h 140" />
    <!-- lower horizontal Separator Copyright -->
    <path
       id="path145"
       d="m 485,372 v 8" />
    <!-- Separator Author / Owner -->
    <path
       id="path147"
       d="m 527,372 v 30" />
    <!-- Separator Title / Liste RH -->
    <path
       id="path149"
       d="m 557,372 v 8" />
    <!-- Separator Scale / Sheet -->
    <path
       id="path151"
       d="m 527,388 h 53" />
    <!-- Separator Part / Drawing-Nr -->
    <path
       id="path153"
       d="m 527,394 h 53" />
    <!-- Separator DRW-Info / Revision -->
    <path
       id="path155"
       d="m 557,394 v 8" />
    <!-- Separator Date / Revision -->
  </g>
  <g
     style="font-size:3px;text-anchor:start;fill:#000000;font-family:tahoma"
     id="titleblock-text-non-editable">
    <text
       id="text158"
       y="375"
       x="441">Author:</text>
    <text
       id="text160"
       y="379"
       x="441">Appr.:</text>
    <text
       id="text162"
       y="375"
       x="486">Legal owner:</text>
    <text
       id="text164"
       y="384"
       x="441">TITLE:</text>
    <text
       id="text166"
       y="401"
       x="441">Document type:</text>
    <text
       id="text168"
       y="375"
       x="558">Sheet:</text>
    <text
       id="text170"
       y="379"
       x="558">Size:</text>
    <text
       id="text172"
       y="375"
       x="528">Scale:</text>
    <text
       id="text174"
       y="379"
       x="528">Toler.:</text>
    <text
       id="text176"
       y="383"
       x="528">Part material:</text>
    <text
       id="text178"
       y="387"
       x="528">Part number:</text>
    <text
       id="text180"
       y="392"
       x="528">Drawing no.:</text>
    <text
       id="text182"
       y="397"
       x="528">Date:</text>
    <text
       id="text184"
       y="397"
       x="558">Revision:</text>
  </g>
  <g
     style="font-size:3px;text-anchor:start;fill:#000000;font-family:tahoma"
     id="titleblock-text-editable">
    <text
       id="text189"
       y="375"
       x="452"
       freecad:editable="AUTHOR_NAME">
      <tspan
         id="tspan187">AUTHOR NAME</tspan>
    </text>
    <text
       id="text193"
       y="379"
       x="452"
       freecad:editable="APPROVER_NAME">
      <tspan
         id="tspan191">APPROVER NAME</tspan>
    </text>
    <text
       id="text197"
       y="379"
       x="487"
       freecad:editable="OWNER_NAME">
      <tspan
         id="tspan195">OWNER NAME</tspan>
    </text>
    <text
       id="text201"
       y="388"
       x="442"
       freecad:editable="TITLELINE-1">
      <tspan
         id="tspan199">FreeCAD</tspan>
    </text>
    <text
       id="text205"
       y="392"
       x="442"
       freecad:editable="TITLELINE-2">
      <tspan
         id="tspan203" />
    </text>
    <text
       id="text209"
       y="396"
       x="442"
       freecad:editable="TITLELINE-3">
      <tspan
         id="tspan207" />
    </text>
    <text
       id="text213"
       y="401"
       x="464"
       freecad:editable="DOCUMENT_TYPE">
      <tspan
         id="tspan211">Mechanical assembly drawing</tspan>
    </text>
    <text
       id="text217"
       y="375"
       x="567"
       freecad:editable="SHEET">
      <tspan
         id="tspan215">99 of 99</tspan>
    </text>
    <text
       id="text221"
       y="375"
       x="537"
       freecad:editable="SCALE">
      <tspan
         id="tspan219">M x:x</tspan>
    </text>
    <text
       id="text225"
       y="379"
       x="537"
       freecad:editable="TOLERANCE">
      <tspan
         id="tspan223">+/- ?</tspan>
    </text>
    <text
       id="text229"
       y="383"
       x="547"
       freecad:editable="PM">
      <tspan
         id="tspan227">PM</tspan>
    </text>
    <text
       id="text233"
       y="387"
       x="547"
       freecad:editable="PN">
      <tspan
         id="tspan231">PN</tspan>
    </text>
    <text
       id="text237"
       y="392"
       x="547"
       freecad:editable="DN">
      <tspan
         id="tspan235">DN</tspan>
    </text>
    <text
       id="text241"
       y="401"
       x="529"
       freecad:editable="DATE">
      <tspan
         id="tspan239">YYYY-MM-DD</tspan>
    </text>
    <text
       id="text245"
       y="401"
       x="559"
       freecad:editable="REVISION">
      <tspan
         id="tspan243">REV A</tspan>
    </text>
    <text
       id="text249"
       y="379"
       x="567"
       freecad:editable="SIZE">
      <tspan
         id="tspan247">A2</tspan>
    </text>
    <text
       id="text253"
       y="405"
       x="441"
       freecad:editable="RIGHTS">
      <tspan
         id="tspan251">(R) DO NOT DUPLICATE THIS DRAWING TO THIRD PARTIES WITHOUT OWNER'S PERMISSION !</tspan>
    </text>
  </g>
  <!-- Set display:none to hide FreeCAD Logo or remove this and next 4 lines from this code -->
  <g
     fill="none"
     stroke-width="0.35"
     stroke="#000"
     fill-rule="evenodd"
     transform="translate(428,395)"
     id="freecad-logo"
     style="display:inline">
    <path
       id="path256"
       d="m0.1524 0.15254v8.8549h1.9744v-3.4652h1.396v-1.3661h-1.396v-1.4745h3.4391v-2.5441l-5.4135-0.005z" />
    <path
       id="path258"
       d="m7.7927 3.4504-0.50715-0.176-0.48387-1.2366-0.76115 0.04-0.34718 1.2787-0.4859 0.23269-1.2119-0.53015-0.51188 0.56882 0.65892 1.1485-0.18006 0.50567-1.2366 0.48387 0.044064 0.76263 1.2787 0.34718 0.23269 0.4859-0.53421 1.2104 0.56882 0.51188 1.1485-0.65891 0.50973 0.18155 0.4798 1.2351 0.7667-0.04258 0.34311-1.2802 0.4859-0.23269 1.2145 0.5357 0.51188-0.56882-0.65891-1.1485 0.17748-0.51122 1.2351-0.4798-0.03851-0.76521-1.2802-0.34311-0.23269-0.4859 0.53163-1.216-0.56881-0.51184zm-0.5715 1.2244 0.23576 0.13679 0.20426 0.18519 0.16353 0.22101 0.11763 0.24572 0.06916 0.26489 0.01146 0.27146-0.03921 0.27139-0.08948 0.25764-0.14234 0.23834-0.17964 0.20167-0.22101 0.16353-0.24572 0.11763-0.26489 0.06916-0.27295 0.01553-0.2719-0.04-0.2576-0.089-0.2383-0.143-0.2002-0.183-0.165-0.217-0.1177-0.246-0.0676-0.269-0.0156-0.273 0.039206-0.2714 0.089484-0.25764 0.14085-0.23427 0.18113-0.20574 0.22101-0.16352 0.24572-0.11763 0.26895-0.06768 0.27147-0.01146 0.27139 0.03921 0.25764 0.08948z" />
  </g>
</svg>
