<?xml version="1.0" encoding="UTF-8"?>
<svg id="svg2" width="420mm" height="297mm" version="1.1" viewBox="0 0 420 297" xmlns="http://www.w3.org/2000/svg" xmlns:cc="http://creativecommons.org/ns#" xmlns:dc="http://purl.org/dc/elements/1.1/" xmlns:freecad="http://www.freecad.org/wiki/index.php?title=Svg_Namespace" xmlns:rdf="http://www.w3.org/1999/02/22-rdf-syntax-ns#">
 <!-- Working space 10 10 410 287 -->
 <!-- Title block 220 227 410 287 -->
 <metadata id="metadata849">
  <rdf:RDF>
   <cc:Work rdf:about="">
    <dc:format>image/svg+xml</dc:format>
    <dc:type rdf:resource="http://purl.org/dc/dcmitype/StillImage"/>
    <dc:title/>
   </cc:Work>
  </rdf:RDF>
 </metadata>
 <g id="g4" fill="none" stroke="#000" stroke-width=".35">
  <path id="path6" d="m10 287h400"/>
  <path id="path8" d="m410 287v-277"/>
  <path id="path10" d="m410 10h-400"/>
  <path id="path12" d="m10 10v277"/>
  <path id="path14" d="m210 10v-10"/>
  <path id="path16" d="m210 287v10"/>
  <path id="path18" d="m10 148.5h-10"/>
  <path id="path20" d="m410 148.5h10"/>
  <path id="path22" d="m367.5 287v7.5"/>
  <path id="path24" d="m52.5 287v7.5"/>
  <path id="path26" d="m315 287v7.5"/>
  <path id="path28" d="m105 287v7.5"/>
  <path id="path30" d="m262.5 10v-7.5"/>
  <path id="path32" d="m157.5 10v-7.5"/>
  <path id="path34" d="m315 10v-7.5"/>
  <path id="path36" d="m105 10v-7.5"/>
  <path id="path38" d="m367.5 10v-7.5"/>
  <path id="path40" d="m52.5 10v-7.5"/>
  <path id="path42" d="m10 74.3h-7.5"/>
  <path id="path44" d="m10 222.7h-7.5"/>
  <path id="path46" d="m410 74.3h7.5"/>
  <path id="path48" d="m410 222.7h7.5"/>
  <path id="path50" d="m110 289.5h200"/>
  <path id="path52" d="m160 287v5"/>
  <path id="path54" d="m260 287v5"/>
  <path id="path56" d="m170 287v2.5"/>
  <path id="path58" d="m250 287v2.5"/>
  <path id="path60" d="m180 287v2.5"/>
  <path id="path62" d="m240 287v2.5"/>
  <path id="path64" d="m190 287v2.5"/>
  <path id="path66" d="m230 287v2.5"/>
  <path id="path68" d="m200 287v2.5"/>
  <path id="path70" d="m220 287v2.5"/>
  <path id="path72" d="m110 287v5"/>
  <path id="path74" d="m310 287v5"/>
  <path id="path76" d="m120 287v2.5"/>
  <path id="path78" d="m300 287v2.5"/>
  <path id="path80" d="m130 287v2.5"/>
  <path id="path82" d="m290 287v2.5"/>
  <path id="path84" d="m140 287v2.5"/>
  <path id="path86" d="m280 287v2.5"/>
  <path id="path88" d="m150 287v2.5"/>
  <path id="path90" d="m270 287v2.5"/>
  <path id="path92" d="m220 287h190"/>
  <path id="path94" d="m220 287v-60"/>
  <path id="path96" d="m220 227h190"/>
  <path id="path98" d="m410 227v60"/>
  <path id="path100" d="m220 283h165"/>
  <path id="path102" d="m220 270h165"/>
  <path id="path104" d="m220 257h165"/>
  <path id="path106" d="m220 242h45"/>
  <path id="path108" d="m385 280.33h25"/>
  <path id="path110" d="m385 273.67h25"/>
  <path id="path112" d="m385 267h25"/>
  <path id="path114" d="m385 260.33h25"/>
  <path id="path116" d="m385 253.67h25"/>
  <path id="path118" d="m385 247h25"/>
  <path id="path120" d="m385 240.33h25"/>
  <path id="path122" d="m385 233.67h25"/>
  <path id="path124" d="m240 283v-26"/>
  <path id="path126" d="m265 283v-56"/>
  <path id="path128" d="m365 283v-13"/>
  <path id="path130" d="m385 287v-60"/>
  <path id="path132" d="m390 287v-60"/>
  <path id="path134" d="m242 263.5h21"/>
  <path id="path136" d="m257.5 269v-11"/>
  <path id="path138" d="m243.5 265.5v-4"/>
  <path id="path140" d="m243.5 261.5 8-2"/>
  <path id="path142" d="m251.5 259.5v8"/>
  <path id="path144" d="m251.5 267.5-8-2"/>
  <circle id="circle146" cx="257.5" cy="263.5" r="2"/>
  <circle id="circle148" cx="257.5" cy="263.5" r="4"/>
 </g>
 <g id="g454" fill="none" stroke="#000" stroke-width=".13">
  <path id="path456" d="m392.22 293.83h0.464l0.368-1.029h1.397l0.368 1.029h0.474l-1.281-3.505h-0.514l-1.276 3.505zm0.993-1.457 0.54-1.544 0.54 1.544h-1.08z" fill="#000" fill-rule="evenodd" stroke="none"/>
 </g>
 <g id="g458" fill="none" stroke="#000" stroke-width=".13">
  <path id="path460" d="m25.08 293.83h0.469v-1.644h1.402v1.644h0.464v-3.5h-0.464v1.427h-1.402v-1.427h-0.469v3.5z" fill="#000" fill-rule="evenodd" stroke="none"/>
 </g>
 <g id="g462" fill="none" stroke="#000" stroke-width=".13">
  <path id="path464" d="m341.88 291.94 0.353-0.293 0.091-0.196 0.03-0.242-0.065-0.379-0.197-0.272-0.317-0.166-0.444-0.061h-1.246v3.5h1.316l0.469-0.07 0.348-0.207 0.217-0.328 0.076-0.444-0.046-0.297-0.121-0.247-0.196-0.182-0.268-0.116zm-0.645-0.156h-0.686v-1.034h0.726l0.273 0.03 0.191 0.091 0.116 0.156 0.041 0.232-0.046 0.232-0.121 0.162-0.207 0.1-0.287 0.031zm0.111 1.629h-0.797v-1.206h0.751l0.318 0.036 0.227 0.105 0.136 0.182 0.046 0.262-0.046 0.278-0.126 0.191-0.212 0.116-0.297 0.036z" fill="#000" fill-rule="evenodd" stroke="none"/>
 </g>
 <g id="g466" fill="none" stroke="#000" stroke-width=".13">
  <path id="path468" d="m79.673 293.36 0.0857 0.469h0.2522v-1.891h-1.2759v0.429h0.7867v0.03l-0.0605 0.464-0.1614 0.343-0.2471 0.217-0.3076 0.07-0.343-0.09-0.2673-0.273-0.1714-0.449-0.0606-0.615 0.0555-0.61 0.1715-0.449 0.2723-0.272 0.3682-0.096 0.2521 0.05 0.2068 0.141 0.1513 0.238 0.0857 0.317h0.4993l-0.1311-0.484-0.2471-0.363-0.348-0.222-0.4388-0.081-0.5749 0.126-0.4337 0.369-0.2774 0.58-0.0958 0.771 0.0958 0.777 0.2774 0.58 0.4085 0.368 0.5144 0.121 0.2875-0.04 0.2572-0.101 0.2219-0.177 0.1916-0.247z" fill="#000" fill-rule="evenodd" stroke="none"/>
 </g>
 <g id="g470" fill="none" stroke="#000" stroke-width=".13">
  <path id="path472" d="m234.58 5.005v1.165h3.5v-1.165l-0.111-0.54972-0.338-0.40851-0.549-0.25216-0.752-0.09076-0.766 0.08069-0.303 0.10086-0.242 0.1412-0.328 0.40851-0.081 0.2673-0.03 0.30259zm0.419 0.0353 0.075-0.3833 0.232-0.26223 0.414-0.15635 0.61-0.05044 0.59 0.05548 0.414 0.15634 0.247 0.2673 0.081 0.3732v0.66065h-2.663v-0.66065z" fill="#000" fill-rule="evenodd" stroke="none"/>
 </g>
 <g id="g474" fill="none" stroke="#000" stroke-width=".13">
  <path id="path476" d="m185.58 6.0591v-2.219h-0.423v1.755h-1.186v-1.5634h-0.418v1.5634h-1.049v-1.7147h-0.424v2.1787h3.5z" fill="#000" fill-rule="evenodd" stroke="none"/>
 </g>
 <g id="g478" fill="none" stroke="#000" stroke-width=".13">
  <path id="path480" d="m289.28 4.183 0.424 0.10086 0.302 0.16645 0.187 0.23196 0.06 0.27234-0.09 0.32782-0.273 0.2572-0.444 0.17148-0.615 0.05548-0.61-0.05548-0.449-0.16644-0.272-0.2572-0.096-0.33286 0.05-0.24207 0.142-0.20678 0.227-0.16138 0.312-0.11093v-0.47913l-0.479 0.15131-0.363 0.26224-0.227 0.35809-0.081 0.42865 0.126 0.53461 0.353 0.40847 0.58 0.26227 0.787 0.09076 0.787-0.09076 0.58-0.26227 0.358-0.40847 0.121-0.53461-0.096-0.46902-0.267-0.37824-0.439-0.26727-0.595-0.14124v0.48416z" fill="#000" fill-rule="evenodd" stroke="none"/>
 </g>
 <g id="g482" fill="none" stroke="#000" stroke-width=".13">
  <path id="path484" d="m133.08 6.0338v-0.46902h-1.609v-1.4726h-0.418v1.4726h-1.049v-1.8105h-0.424v2.2795h3.5z" fill="#000" fill-rule="evenodd" stroke="none"/>
 </g>
 <g id="g486" fill="none" stroke="#000" stroke-width=".13">
  <path id="path488" d="m341.19 4.3696-0.292-0.35303-0.197-0.09079-0.242-0.03027-0.379 0.06558-0.272 0.19669-0.166 0.31771-0.061 0.44382v1.2457h3.5v-1.3163l-0.07-0.46902-0.207-0.34799-0.328-0.21686-0.444-0.07565-0.297 0.04541-0.247 0.12103-0.182 0.19668-0.116 0.26731zm-0.156 0.64551v0.68588h-1.034v-0.72623l0.03-0.27231 0.091-0.19165 0.156-0.11599 0.232-0.04035 0.232 0.04538 0.162 0.12103 0.1 0.20679 0.031 0.28745zm1.629-0.11094v0.79682h-1.206v-0.75144l0.036-0.31771 0.105-0.22696 0.182-0.13617 0.262-0.04538 0.278 0.04538 0.191 0.1261 0.116 0.21182 0.036 0.29754z" fill="#000" fill-rule="evenodd" stroke="none"/>
 </g>
 <g id="g490" fill="none" stroke="#000" stroke-width=".13">
  <path id="path492" d="m80.114 4.0771 0.469-0.08576v-0.25216h-1.8912v1.2759h0.4287v-0.78675h0.0302l0.464 0.06052 0.343 0.16141 0.2168 0.2471 0.0706 0.30765-0.0908 0.34292-0.2723 0.2673-0.4488 0.17148-0.6153 0.06052-0.6103-0.05548-0.4488-0.17148-0.2723-0.27234-0.0959-0.36813 0.0505-0.25217 0.1412-0.20679 0.237-0.15127 0.3177-0.08576v-0.49926l-0.4841 0.1311-0.3631 0.24713-0.2219 0.34799-0.0807 0.43875 0.1261 0.57493 0.3681 0.43371 0.58 0.27741 0.7716 0.09579 0.7767-0.09579 0.5799-0.27741 0.3682-0.40848 0.121-0.51443-0.0403-0.28745-0.1009-0.2572-0.1765-0.22192-0.2471-0.19162z" fill="#000" fill-rule="evenodd" stroke="none"/>
 </g>
 <g id="g494" fill="none" stroke="#000" stroke-width=".13">
  <path id="path496" d="m395.58 6.5331v-0.46399l-1.029-0.36816v-1.397l1.029-0.36817v-0.47406l-3.505 1.281v0.5144l3.505 1.2759zm-1.457-0.99353-1.544-0.53961 1.544-0.53964v1.0792z" fill="#000" fill-rule="evenodd" stroke="none"/>
 </g>
 <g id="g498" fill="none" stroke="#000" stroke-width=".13">
  <path id="path500" d="m28.083 6.17v-0.46902h-1.6441v-1.402h1.6441v-0.46399h-3.5v0.46399h1.4272v1.402h-1.4272v0.46902h3.5z" fill="#000" fill-rule="evenodd" stroke="none"/>
 </g>
 <g id="g502" fill="none" stroke="#000" stroke-width=".13">
  <path id="path504" d="m5.7338 112.67h0.0353l0.48415-0.081 0.36311-0.237 0.23199-0.373 0.08574-0.494-0.08574-0.525-0.2219-0.393-0.35302-0.252-0.4539-0.091-0.29755 0.04-0.24207 0.111-0.1866 0.182-0.13617 0.242-0.27233-0.328-0.43372-0.116-0.39337 0.076-0.29755 0.217-0.1866 0.353-0.06556 0.484 0.08069 0.454 0.2219 0.348 0.35303 0.227 0.46902 0.075h0.0353v-0.449l-0.32277-0.04-0.23199-0.131-0.14121-0.212-0.05043-0.297 0.04035-0.263 0.10591-0.191 0.17147-0.116 0.23198-0.046 0.24712 0.046 0.16643 0.121 0.10086 0.211 0.03026 0.288-0.00504 0.197h0.39841l-0.01008-0.247 0.04539-0.318 0.12103-0.237 0.19669-0.141 0.2572-0.051 0.29251 0.056 0.21686 0.146 0.13617 0.232 0.04539 0.307-0.05044 0.318-0.15129 0.232-0.24208 0.146-0.33285 0.056v0.464z" fill="#000" fill-rule="evenodd" stroke="none"/>
 </g>
 <g id="g506" fill="none" stroke="#000" stroke-width=".13">
  <path id="path508" d="m6.8332 186.83v-2.406h-0.43371v1.901l-0.23704-0.106-0.19668-0.181-0.35807-0.56-0.1513-0.298-0.21686-0.332-0.25216-0.237-0.29755-0.137-0.3379-0.05-0.42363 0.086-0.33285 0.237-0.21182 0.363-0.07565 0.469 0.08574 0.484 0.23703 0.368 0.37824 0.237 0.49928 0.081h0.07061v-0.459h-0.04035l-0.34294-0.045-0.25216-0.137-0.16138-0.216-0.05548-0.288 0.05043-0.292 0.12608-0.217 0.19669-0.142 0.24712-0.05 0.23199 0.035 0.19668 0.096 0.17147 0.162 0.1513 0.221 0.16138 0.298 0.31268 0.494 0.33286 0.348 0.40346 0.207 0.50936 0.066h0.01513z" fill="#000" fill-rule="evenodd" stroke="none"/>
 </g>
 <g id="g510" fill="none" stroke="#000" stroke-width=".13">
  <path id="path512" d="m413.73 112.13v0.035l0.081 0.484 0.237 0.363 0.373 0.232 0.494 0.086 0.525-0.086 0.393-0.222 0.252-0.353 0.091-0.454-0.04-0.297-0.111-0.242-0.182-0.187-0.242-0.136 0.328-0.272 0.116-0.434-0.076-0.393-0.217-0.298-0.353-0.186-0.484-0.066-0.454 0.081-0.348 0.222-0.227 0.353-0.075 0.469v0.035h0.449l0.04-0.323 0.131-0.232 0.212-0.141 0.297-0.05 0.263 0.04 0.191 0.106 0.116 0.171 0.046 0.232-0.046 0.247-0.121 0.167-0.211 0.101-0.288 0.03-0.197-5e-3v0.398l0.247-0.01 0.318 0.046 0.237 0.121 0.141 0.196 0.051 0.257-0.056 0.293-0.146 0.217-0.232 0.136-0.307 0.045-0.318-0.05-0.232-0.151-0.146-0.242-0.056-0.333h-0.464z" fill="#000" fill-rule="evenodd" stroke="none"/>
 </g>
 <g id="g514" fill="none" stroke="#000" stroke-width=".13">
  <path id="path516" d="m413.77 187.43h2.406v-0.434h-1.901l0.106-0.237 0.181-0.196 0.56-0.358 0.298-0.152 0.332-0.216 0.237-0.253 0.137-0.297 0.05-0.338-0.086-0.424-0.237-0.333-0.363-0.211-0.469-0.076-0.484 0.086-0.368 0.237-0.237 0.378-0.081 0.499v0.071h0.459v-0.04l0.045-0.343 0.137-0.253 0.217-0.161 0.287-0.055 0.292 0.05 0.217 0.126 0.142 0.197 0.05 0.247-0.035 0.232-0.096 0.197-0.162 0.171-0.221 0.151-0.298 0.162-0.494 0.312-0.348 0.333-0.207 0.404-0.066 0.509v0.015z" fill="#000" fill-rule="evenodd" stroke="none"/>
 </g>
 <g id="g518" fill="none" stroke="#000" stroke-width=".13">
  <path id="path520" d="m6.8332 36.923v-0.4539h-0.86743v-0.4992h-0.40346v0.4992h-2.1535v0.459l2.1131 1.5331h0.44381v-1.5382h0.86743zm-1.2709 1.1146-1.5684-1.1146h1.5684v1.1146z" fill="#000" fill-rule="evenodd" stroke="none"/>
 </g>
 <g id="g522" fill="none" stroke="#000" stroke-width=".13">
  <path id="path524" d="m6.8332 259.89v-0.459h-3.5252v0.343l0.30764 0.091 0.20677 0.181 0.12104 0.278 0.04034 0.383h0.35807v-0.817h2.4914z" fill="#000" fill-rule="evenodd" stroke="none"/>
 </g>
 <g id="g526" fill="none" stroke="#000" stroke-width=".13">
  <path id="path528" d="m415.28 39.033h0.454v-0.8674h0.5v-0.4035h-0.5v-2.1534h-0.459l-1.533 2.1131v0.4438h1.538v0.8674zm-1.114-1.2709 1.114-1.5684v1.5684h-1.114z" fill="#000" fill-rule="evenodd" stroke="none"/>
 </g>
 <g id="g530" fill="none" stroke="#000" stroke-width=".13">
  <path id="path532" d="m414.91 261.63h0.459v-3.525h-0.343l-0.091 0.308-0.181 0.206-0.277 0.121-0.384 0.041v0.358h0.817v2.491z" fill="#000" fill-rule="evenodd" stroke="none"/>
 </g>
 <g id="g534" fill="none" stroke="#000" stroke-width=".13">
  <path id="path536" d="m221.55 285.79h0.199v-1.319h0.454v-0.181h-1.109v0.181h0.456v1.319zm0.953 0h0.191v-0.67l0.019-0.154 0.063-0.112 0.097-0.069 0.13-0.026 0.103 0.021 0.065 0.059 0.033 0.097 0.01 0.13v0.724h0.191v-0.763l-9e-3 -0.154-0.039-0.127-0.127-0.117-0.199-0.041-0.108 0.015-0.093 0.041-0.078 0.065-0.058 0.089v-0.56h-0.191v1.552zm1.883-0.16v-0.962h-0.489v0.162h0.299v0.8h-0.389v0.16h0.972v-0.16h-0.393zm6e-3 -1.392h-0.201v0.216h0.201v-0.216zm1.282 0.875-0.184-0.043-0.136-0.05-0.045-0.101 0.013-0.072 0.045-0.052 0.074-0.032 0.106-0.013 0.101 0.013 0.08 0.039 0.052 0.058 0.022 0.078h0.186v-4e-3l-0.033-0.141-0.089-0.11-0.138-0.069-0.181-0.026-0.184 0.026-0.134 0.071-0.084 0.106-0.026 0.134 0.019 0.13 0.061 0.091 0.099 0.064 0.145 0.046 0.212 0.052 0.129 0.054 0.035 0.043 0.013 0.065-0.02 0.08-0.051 0.06-0.085 0.039-0.112 0.013-0.119-0.013-0.086-0.045-0.059-0.074-0.024-0.101h-0.183l0.03 0.173 0.089 0.125 0.14 0.076 0.195 0.028 0.203-0.028 0.149-0.076 0.091-0.121 0.032-0.158-0.024-0.136-0.067-0.093-0.11-0.06-0.147-0.046zm2.747 0.497v0.18h0.19v-1.552h-0.188v0.568l-0.144-0.164-0.089-0.039-0.102-0.015-0.183 0.043-0.143 0.121-0.093 0.195-0.032 0.261 0.032 0.262 0.093 0.196 0.143 0.124 0.183 0.041 0.102-0.015 0.091-0.039 0.14-0.167zm-0.3-0.851 0.125 0.03 0.095 0.084 0.056 0.141 0.022 0.194-0.022 0.197-0.056 0.14-0.095 0.087-0.125 0.028-0.119-0.028-0.091-0.087-0.06-0.142-0.02-0.195 0.02-0.192 0.06-0.141 0.091-0.086 0.119-0.03zm0.959 1.031h0.191v-0.664l0.019-0.16 0.058-0.114 0.096-0.07 0.127-0.023 0.095 0.015 0.072 0.043 0.043 0.074 0.015 0.099h0.192l-0.026-0.175-0.071-0.125-0.119-0.076-0.162-0.026-0.11 0.017-0.095 0.043-0.085 0.074-0.067 0.099v-0.192h-0.173v1.161zm1.92-0.152v7e-3l0.011 0.073 0.032 0.052 0.136 0.041 0.106-0.017v-0.147l-0.045 7e-3 -0.061-0.029-0.011-0.086v-0.601l-0.026-0.153-0.075-0.108-0.132-0.065-0.186-0.024-0.181 0.026-0.134 0.073-0.085 0.115-0.028 0.151v0.013h0.171l0.015-0.091 0.048-0.064 0.077-0.039 0.111-0.015 0.106 0.01 0.075 0.033 0.046 0.056 0.015 0.078-9e-3 0.091-0.035 0.045-0.086 0.022-0.162 0.017-0.186 0.039-0.132 0.069-0.078 0.108-0.023 0.16 0.021 0.143 0.067 0.105 0.108 0.067 0.149 0.024 0.201-0.045 0.18-0.141zm-0.022-0.255-0.026 0.113-0.069 0.086-0.104 0.056-0.127 0.02-0.082-0.011-0.059-0.035-0.036-0.06-0.011-0.084 8e-3 -0.076 0.035-0.054 0.138-0.061 0.175-0.026 0.158-0.051v0.183zm0.908 0.407 0.173-0.986 0.173 0.986h0.181l0.286-1.161h-0.184l-0.192 0.986-0.171-0.986h-0.188l-0.171 0.986-0.192-0.986h-0.182l0.285 1.161h0.182zm1.608-0.16v-0.962h-0.488v0.162h0.298v0.8h-0.389v0.16h0.972v-0.16h-0.393zm7e-3 -1.392h-0.201v0.216h0.201v-0.216zm0.713 1.552h0.19v-0.67l0.019-0.154 0.063-0.112 0.097-0.069 0.13-0.026 0.104 0.021 0.065 0.059 0.032 0.097 0.011 0.13v0.724h0.19v-0.763l-9e-3 -0.154-0.038-0.127-0.128-0.117-0.199-0.041-0.11 0.015-0.093 0.041-0.08 0.069-0.063 0.093v-0.177h-0.181v1.161zm2.204-0.052v-1.109h-0.181v0.188l-0.149-0.171-0.091-0.043-0.102-0.015-0.183 0.043-0.143 0.121-0.093 0.195-0.032 0.261 0.032 0.264 0.093 0.194 0.143 0.124 0.183 0.041 0.104-0.015 0.087-0.039 0.151-0.165v0.165l-0.017 0.129-0.048 0.093-0.091 0.054-0.136 0.02-0.119-0.013-0.084-0.033-0.05-0.056-0.015-0.075h-0.184v8e-3l0.028 0.139 0.087 0.103 0.138 0.067 0.188 0.024 0.225-0.032 0.149-0.091 0.084-0.158 0.026-0.218zm-0.778-0.53 0.02-0.192 0.058-0.143 0.091-0.084 0.121-0.03 0.127 0.03 0.096 0.084 0.058 0.143 0.022 0.192-0.022 0.197-0.058 0.14-0.096 0.087-0.127 0.028-0.121-0.028-0.091-0.087-0.058-0.142-0.02-0.195zm3.059 0.422v-0.962h-0.489v0.162h0.298v0.8h-0.389v0.16h0.973v-0.16h-0.393zm6e-3 -1.392h-0.201v0.216h0.201v-0.216zm1.282 0.875-0.184-0.043-0.136-0.05-0.045-0.101 0.013-0.072 0.045-0.052 0.073-0.032 0.106-0.013 0.102 0.013 0.08 0.039 0.052 0.058 0.021 0.078h0.186v-4e-3l-0.032-0.141-0.089-0.11-0.138-0.069-0.182-0.026-0.183 0.026-0.134 0.071-0.085 0.106-0.026 0.134 0.02 0.13 0.06 0.091 0.1 0.064 0.145 0.046 0.211 0.052 0.13 0.054 0.035 0.043 0.013 0.065-0.02 0.08-0.052 0.06-0.084 0.039-0.112 0.013-0.119-0.013-0.087-0.045-0.058-0.074-0.024-0.101h-0.184l0.031 0.173 0.088 0.125 0.141 0.076 0.194 0.028 0.204-0.028 0.149-0.076 0.09-0.121 0.033-0.158-0.024-0.136-0.067-0.093-0.11-0.06-0.147-0.046zm1.978 0.097 0.034 0.264 0.1 0.195 0.157 0.121 0.212 0.041 0.21-0.041 0.158-0.119 0.099-0.195 0.037-0.266-0.037-0.263-0.099-0.197-0.158-0.119-0.21-0.043-0.212 0.043-0.157 0.121-0.1 0.195-0.034 0.263zm0.194-2e-3 0.02-0.194 0.06-0.141 0.097-0.086 0.132-0.03 0.13 0.03 0.097 0.084 0.061 0.143 0.021 0.194-0.021 0.197-0.061 0.143-0.097 0.086-0.13 0.028-0.132-0.028-0.097-0.086-0.06-0.143-0.02-0.197zm2.058-0.579h-0.19v0.67l-0.022 0.156-0.063 0.112-0.097 0.069-0.128 0.022-0.101-0.017-0.065-0.052-0.037-0.089-8e-3 -0.125v-0.746h-0.191v0.763l7e-3 0.153 0.041 0.128 0.125 0.117 0.201 0.041 0.108-0.015 0.093-0.039 0.08-0.067 0.065-0.098v0.178h0.182v-1.161zm0.477 1.161h0.191v-0.664l0.019-0.16 0.058-0.114 0.096-0.07 0.127-0.023 0.095 0.015 0.071 0.043 0.044 0.074 0.015 0.099h0.192l-0.026-0.175-0.071-0.125-0.119-0.076-0.162-0.026-0.11 0.017-0.095 0.043-0.085 0.074-0.067 0.099v-0.192h-0.173v1.161zm2.711-0.982v-0.179h-0.19v1.61h0.19v-0.627l0.067 0.102 0.075 0.067 0.191 0.05 0.181-0.041 0.143-0.124 0.093-0.194 0.034-0.264-0.034-0.261-0.093-0.195-0.143-0.121-0.181-0.043-0.104 0.013-0.089 0.041-0.075 0.069-0.065 0.097zm0.3 0.852-0.127-0.028-0.093-0.087-0.059-0.14-0.019-0.197 0.019-0.194 0.059-0.141 0.093-0.084 0.127-0.03 0.117 0.03 0.093 0.086 0.058 0.141 0.022 0.192-0.022 0.195-0.058 0.142-0.093 0.087-0.117 0.028zm0.893 0.13h0.19v-0.664l0.02-0.16 0.058-0.114 0.095-0.07 0.128-0.023 0.095 0.015 0.071 0.043 0.043 0.074 0.015 0.099h0.193l-0.026-0.175-0.072-0.125-0.118-0.076-0.163-0.026-0.11 0.017-0.095 0.043-0.084 0.074-0.067 0.099v-0.192h-0.173v1.161zm1.174-0.58 0.034 0.264 0.1 0.195 0.157 0.121 0.212 0.041 0.21-0.041 0.158-0.119 0.099-0.195 0.037-0.266-0.037-0.263-0.099-0.197-0.158-0.119-0.21-0.043-0.212 0.043-0.157 0.121-0.1 0.195-0.034 0.263zm0.194-2e-3 0.02-0.194 0.06-0.141 0.097-0.086 0.132-0.03 0.13 0.03 0.097 0.084 0.061 0.143 0.021 0.194-0.021 0.197-0.061 0.143-0.097 0.086-0.13 0.028-0.132-0.028-0.097-0.086-0.06-0.143-0.02-0.197zm1.342-0.4v-0.179h-0.19v1.61h0.19v-0.627l0.067 0.102 0.076 0.067 0.19 0.05 0.182-0.041 0.142-0.124 0.093-0.194 0.035-0.264-0.035-0.261-0.093-0.195-0.142-0.121-0.182-0.043-0.104 0.013-0.088 0.041-0.076 0.069-0.065 0.097zm0.301 0.852-0.128-0.028-0.093-0.087-0.058-0.14-0.02-0.197 0.02-0.194 0.058-0.141 0.093-0.084 0.128-0.03 0.116 0.03 0.093 0.086 0.059 0.141 0.021 0.192-0.021 0.195-0.059 0.142-0.093 0.087-0.116 0.028zm0.988-0.396h0.76l2e-3 -0.088-0.034-0.249-0.095-0.186-0.152-0.112-0.201-0.041-0.196 0.043-0.151 0.121-0.098 0.197-0.034 0.259 0.032 0.266 0.097 0.195 0.149 0.121 0.195 0.041 0.169-0.028 0.138-0.074 0.102-0.117 0.058-0.155h-0.188l-0.039 0.086-0.056 0.065-0.16 0.052-0.123-0.024-0.093-0.075-0.061-0.124-0.021-0.166v-7e-3zm0-0.159 0.023-0.15 0.059-0.11 0.088-0.067 0.117-0.024 0.115 0.024 0.088 0.067 0.054 0.11 0.02 0.15h-0.564zm1.206 0.685h0.19v-0.664l0.019-0.16 0.059-0.114 0.095-0.07 0.127-0.023 0.095 0.015 0.072 0.043 0.043 0.074 0.015 0.099h0.192l-0.026-0.175-0.071-0.125-0.119-0.076-0.162-0.026-0.11 0.017-0.095 0.043-0.085 0.074-0.067 0.099v-0.192h-0.172v1.161zm1.484-0.96v0.581l0.013 0.188 0.061 0.13 0.121 0.076 0.205 0.026 0.225-0.011v-0.164l-0.164 0.013-0.149-0.018-0.08-0.054-0.035-0.09-6e-3 -0.128v-0.549h0.434v-0.162h-0.434v-0.339h-0.191v0.339h-0.328v0.162h0.328zm1.827-0.201-0.333 0.955-0.326-0.955h-0.208l0.441 1.226-0.039 0.108-0.06 0.073-0.102 0.024-0.175-0.022v0.184l0.184 0.017 0.132-0.017 0.092-0.054 0.067-0.093 0.059-0.136 0.471-1.31h-0.203zm0.819 0.322h0.298v-0.322h-0.298v0.322zm0 0.839h0.145v0.041l-0.011 0.103-0.035 0.074-0.06 0.048-0.091 0.023v0.147l0.149-0.034 0.11-0.08 0.067-0.128 0.024-0.171v-0.348h-0.298v0.325zm2.885-0.16v-0.962h-0.488v0.162h0.298v0.8h-0.389v0.16h0.973v-0.16h-0.394zm7e-3 -1.392h-0.201v0.216h0.201v-0.216zm0.968 0.592v0.581l0.013 0.188 0.061 0.13 0.121 0.076 0.205 0.026 0.225-0.011v-0.164l-0.164 0.013-0.15-0.018-0.08-0.054-0.034-0.09-7e-3 -0.128v-0.549h0.435v-0.162h-0.435v-0.339h-0.19v0.339h-0.328v0.162h0.328zm3.087 0.184h0.188l-0.039-0.173-0.093-0.136-0.145-0.085-0.188-0.032-0.208 0.043-0.157 0.121-0.1 0.197-0.034 0.264 0.032 0.261 0.097 0.195 0.154 0.121 0.209 0.041 0.186-0.033 0.145-0.09 0.1-0.143 0.043-0.19h-0.182l-0.032 0.121-0.061 0.09-0.086 0.057-0.106 0.017-0.132-0.028-0.095-0.087-0.058-0.14-0.02-0.199 0.02-0.194 0.06-0.141 0.097-0.086 0.128-0.031 0.112 0.02 0.085 0.05 0.056 0.082 0.024 0.108zm1.251 0.624v7e-3l0.011 0.073 0.032 0.052 0.136 0.041 0.106-0.017v-0.147l-0.045 7e-3 -0.061-0.029-0.01-0.086v-0.601l-0.026-0.153-0.076-0.108-0.132-0.065-0.186-0.024-0.181 0.026-0.134 0.073-0.085 0.115-0.028 0.151v0.013h0.171l0.015-0.091 0.048-0.064 0.078-0.039 0.11-0.015 0.106 0.01 0.075 0.033 0.046 0.056 0.015 0.078-9e-3 0.091-0.034 0.045-0.087 0.022-0.162 0.017-0.186 0.039-0.132 0.069-0.077 0.108-0.024 0.16 0.021 0.143 0.067 0.105 0.109 0.067 0.149 0.024 0.201-0.045 0.179-0.141zm-0.022-0.255-0.025 0.113-0.07 0.086-0.103 0.056-0.128 0.02-0.082-0.011-0.058-0.035-0.037-0.06-0.011-0.084 9e-3 -0.076 0.034-0.054 0.139-0.061 0.175-0.026 0.157-0.051v0.183zm0.634 0.407h0.19v-0.67l0.019-0.154 0.063-0.112 0.097-0.069 0.13-0.026 0.104 0.021 0.065 0.059 0.032 0.097 0.011 0.13v0.724h0.19v-0.763l-9e-3 -0.154-0.039-0.127-0.127-0.117-0.199-0.041-0.11 0.015-0.093 0.041-0.08 0.069-0.063 0.093v-0.177h-0.181v1.161zm1.677-1.554v0.588h0.145v-0.588h-0.145zm1.18 0.594v0.581l0.013 0.188 0.061 0.13 0.121 0.076 0.205 0.026 0.225-0.011v-0.164l-0.165 0.013-0.149-0.018-0.08-0.054-0.034-0.09-7e-3 -0.128v-0.549h0.435v-0.162h-0.435v-0.339h-0.19v0.339h-0.328v0.162h0.328zm2.527 0.78 0.14 0.167 0.193 0.054 0.181-0.041 0.145-0.124 0.091-0.196 0.034-0.262-0.034-0.261-0.093-0.195-0.143-0.121-0.181-0.043-0.191 0.056-0.077 0.069-0.065 0.093v-0.568h-0.19v1.552h0.19v-0.18zm0.59-0.402-0.022 0.195-0.058 0.142-0.093 0.087-0.117 0.028-0.127-0.028-0.093-0.087-0.059-0.14-0.019-0.197 0.019-0.194 0.059-0.141 0.093-0.084 0.127-0.03 0.117 0.03 0.093 0.086 0.058 0.141 0.022 0.192zm0.698 0.056h0.761l2e-3 -0.088-0.035-0.249-0.095-0.186-0.151-0.112-0.201-0.041-0.197 0.043-0.151 0.121-0.097 0.197-0.035 0.259 0.032 0.266 0.098 0.195 0.149 0.121 0.194 0.041 0.169-0.028 0.138-0.074 0.102-0.117 0.058-0.155h-0.188l-0.039 0.086-0.056 0.065-0.16 0.052-0.123-0.024-0.093-0.075-0.06-0.124-0.022-0.166v-7e-3zm0-0.159 0.024-0.15 0.058-0.11 0.089-0.067 0.116-0.024 0.115 0.024 0.089 0.067 0.054 0.11 0.019 0.15h-0.564zm2.507 0.685h0.19v-0.664l0.02-0.16 0.058-0.114 0.095-0.07 0.128-0.023 0.095 0.015 0.071 0.043 0.043 0.074 0.016 0.099h0.192l-0.026-0.175-0.071-0.125-0.119-0.076-0.162-0.026-0.111 0.017-0.095 0.043-0.084 0.074-0.067 0.099v-0.192h-0.173v1.161zm1.396-0.526h0.761l2e-3 -0.088-0.034-0.249-0.095-0.186-0.152-0.112-0.201-0.041-0.196 0.043-0.152 0.121-0.097 0.197-0.035 0.259 0.033 0.266 0.097 0.195 0.149 0.121 0.195 0.041 0.168-0.028 0.139-0.074 0.101-0.117 0.059-0.155h-0.188l-0.039 0.086-0.056 0.065-0.16 0.052-0.124-0.024-0.093-0.075-0.06-0.124-0.022-0.166v-7e-3zm0-0.159 0.024-0.15 0.058-0.11 0.089-0.067 0.117-0.024 0.114 0.024 0.089 0.067 0.054 0.11 0.019 0.15h-0.564zm1.314-0.297v-0.179h-0.19v1.61h0.19v-0.627l0.067 0.102 0.076 0.067 0.19 0.05 0.182-0.041 0.143-0.124 0.092-0.194 0.035-0.264-0.035-0.261-0.092-0.195-0.143-0.121-0.182-0.043-0.103 0.013-0.089 0.041-0.076 0.069-0.065 0.097zm0.301 0.852-0.128-0.028-0.093-0.087-0.058-0.14-0.019-0.197 0.019-0.194 0.058-0.141 0.093-0.084 0.128-0.03 0.117 0.03 0.093 0.086 0.058 0.141 0.022 0.192-0.022 0.195-0.058 0.142-0.093 0.087-0.117 0.028zm0.893 0.13h0.19v-0.664l0.019-0.16 0.059-0.114 0.095-0.07 0.127-0.023 0.095 0.015 0.072 0.043 0.043 0.074 0.015 0.099h0.192l-0.026-0.175-0.071-0.125-0.119-0.076-0.162-0.026-0.11 0.017-0.095 0.043-0.085 0.074-0.067 0.099v-0.192h-0.172v1.161zm1.173-0.58 0.035 0.264 0.099 0.195 0.158 0.121 0.212 0.041 0.209-0.041 0.158-0.119 0.1-0.195 0.036-0.266-0.036-0.263-0.1-0.197-0.158-0.119-0.209-0.043-0.212 0.043-0.158 0.121-0.099 0.195-0.035 0.263zm0.195-2e-3 0.019-0.194 0.061-0.141 0.097-0.086 0.132-0.03 0.129 0.03 0.098 0.084 0.06 0.143 0.022 0.194-0.022 0.197-0.06 0.143-0.098 0.086-0.129 0.028-0.132-0.028-0.097-0.086-0.061-0.143-0.019-0.197zm1.876 0.402v0.18h0.19v-1.552h-0.188v0.568l-0.145-0.164-0.089-0.039-0.101-0.015-0.184 0.043-0.142 0.121-0.093 0.195-0.033 0.261 0.033 0.262 0.093 0.196 0.142 0.124 0.184 0.041 0.101-0.015 0.091-0.039 0.141-0.167zm-0.301-0.851 0.126 0.03 0.095 0.084 0.056 0.141 0.022 0.194-0.022 0.197-0.056 0.14-0.095 0.087-0.126 0.028-0.119-0.028-0.09-0.087-0.061-0.142-0.019-0.195 0.019-0.192 0.061-0.141 0.09-0.086 0.119-0.03zm1.783-0.13h-0.19v0.67l-0.021 0.156-0.063 0.112-0.097 0.069-0.128 0.022-0.101-0.017-0.065-0.052-0.037-0.089-9e-3 -0.125v-0.746h-0.19v0.763l7e-3 0.153 0.041 0.128 0.125 0.117 0.201 0.041 0.108-0.015 0.093-0.039 0.08-0.067 0.065-0.098v0.178h0.181v-1.161zm1.146 0.385h0.188l-0.039-0.173-0.093-0.136-0.145-0.085-0.188-0.032-0.207 0.043-0.158 0.121-0.099 0.197-0.035 0.264 0.032 0.261 0.098 0.195 0.153 0.121 0.21 0.041 0.186-0.033 0.145-0.09 0.099-0.143 0.043-0.19h-0.181l-0.033 0.121-0.06 0.09-0.087 0.057-0.106 0.017-0.132-0.028-0.095-0.087-0.058-0.14-0.019-0.199 0.019-0.194 0.061-0.141 0.097-0.086 0.127-0.031 0.113 0.02 0.084 0.05 0.056 0.082 0.024 0.108zm0.728 0.25h0.761l2e-3 -0.088-0.034-0.249-0.095-0.186-0.152-0.112-0.201-0.041-0.196 0.043-0.152 0.121-0.097 0.197-0.034 0.259 0.032 0.266 0.097 0.195 0.149 0.121 0.195 0.041 0.168-0.028 0.139-0.074 0.101-0.117 0.059-0.155h-0.188l-0.039 0.086-0.056 0.065-0.16 0.052-0.124-0.024-0.093-0.075-0.06-0.124-0.022-0.166v-7e-3zm0-0.159 0.024-0.15 0.058-0.11 0.089-0.067 0.117-0.024 0.114 0.024 0.089 0.067 0.054 0.11 0.019 0.15h-0.564zm1.848 0.505v0.18h0.191v-1.552h-0.189v0.568l-0.144-0.164-0.089-0.039-0.101-0.015-0.184 0.043-0.143 0.121-0.093 0.195-0.032 0.261 0.032 0.262 0.093 0.196 0.143 0.124 0.184 0.041 0.101-0.015 0.091-0.039 0.14-0.167zm-0.3-0.851 0.125 0.03 0.095 0.084 0.057 0.141 0.021 0.194-0.021 0.197-0.057 0.14-0.095 0.087-0.125 0.028-0.119-0.028-0.091-0.087-0.06-0.142-0.02-0.195 0.02-0.192 0.06-0.141 0.091-0.086 0.119-0.03zm2.133 0.451 0.035 0.264 0.099 0.195 0.158 0.121 0.212 0.041 0.209-0.041 0.158-0.119 0.1-0.195 0.036-0.266-0.036-0.263-0.1-0.197-0.158-0.119-0.209-0.043-0.212 0.043-0.158 0.121-0.099 0.195-0.035 0.263zm0.195-2e-3 0.019-0.194 0.061-0.141 0.097-0.086 0.132-0.03 0.129 0.03 0.098 0.084 0.06 0.143 0.022 0.194-0.022 0.197-0.06 0.143-0.098 0.086-0.129 0.028-0.132-0.028-0.097-0.086-0.061-0.143-0.019-0.197zm1.234 0.582h0.19v-0.664l0.02-0.16 0.058-0.114 0.095-0.07 0.127-0.023 0.096 0.015 0.071 0.043 0.043 0.074 0.015 0.099h0.193l-0.026-0.175-0.072-0.125-0.118-0.076-0.163-0.026-0.11 0.017-0.095 0.043-0.084 0.074-0.067 0.099v-0.192h-0.173v1.161zm3.27-0.776h0.188l-0.039-0.173-0.093-0.136-0.145-0.085-0.188-0.032-0.207 0.043-0.158 0.121-0.099 0.197-0.035 0.264 0.033 0.261 0.097 0.195 0.153 0.121 0.21 0.041 0.186-0.033 0.145-0.09 0.099-0.143 0.043-0.19h-0.181l-0.033 0.121-0.06 0.09-0.087 0.057-0.106 0.017-0.131-0.028-0.096-0.087-0.058-0.14-0.019-0.199 0.019-0.194 0.061-0.141 0.097-0.086 0.127-0.031 0.113 0.02 0.084 0.05 0.056 0.082 0.024 0.108zm0.506 0.196 0.034 0.264 0.1 0.195 0.158 0.121 0.211 0.041 0.21-0.041 0.158-0.119 0.099-0.195 0.037-0.266-0.037-0.263-0.099-0.197-0.158-0.119-0.21-0.043-0.211 0.043-0.158 0.121-0.1 0.195-0.034 0.263zm0.194-2e-3 0.02-0.194 0.06-0.141 0.098-0.086 0.131-0.03 0.13 0.03 0.097 0.084 0.061 0.143 0.021 0.194-0.021 0.197-0.061 0.143-0.097 0.086-0.13 0.028-0.131-0.028-0.098-0.086-0.06-0.143-0.02-0.197zm1.087 0.582h0.176v-0.776l0.01-0.117 0.033-0.084 0.049-0.05 0.065-0.019 0.052 0.017 0.035 0.043 0.017 0.074 7e-3 0.097v0.815h0.164v-0.776l0.011-0.115 0.032-0.084 0.052-0.052 0.065-0.019 0.052 0.017 0.034 0.043 0.022 0.171v0.815h0.175v-0.802l-0.011-0.167-0.034-0.127-0.07-0.078-0.112-0.028-0.132 0.043-0.101 0.126-0.08-0.124-0.134-0.045-0.124 0.043-0.084 0.121v-0.123h-0.169v1.161zm1.302 0h0.175v-0.776l0.011-0.117 0.032-0.084 0.05-0.05 0.064-0.019 0.052 0.017 0.035 0.043 0.017 0.074 7e-3 0.097v0.815h0.164v-0.776l0.011-0.115 0.032-0.084 0.052-0.052 0.065-0.019 0.052 0.017 0.034 0.043 0.022 0.171v0.815h0.175v-0.802l-0.011-0.167-0.034-0.127-0.069-0.078-0.113-0.028-0.132 0.043-0.101 0.126-0.08-0.124-0.134-0.045-0.124 0.043-0.084 0.121v-0.123h-0.168v1.161zm2.271-1.161h-0.19v0.67l-0.022 0.156-0.062 0.112-0.098 0.069-0.127 0.022-0.102-0.017-0.064-0.052-0.037-0.089-9e-3 -0.125v-0.746h-0.19v0.763l6e-3 0.153 0.041 0.128 0.126 0.117 0.201 0.041 0.108-0.015 0.093-0.039 0.08-0.067 0.065-0.098v0.178h0.181v-1.161zm0.407 1.161h0.19v-0.67l0.019-0.154 0.063-0.112 0.097-0.069 0.13-0.026 0.104 0.021 0.064 0.059 0.033 0.097 0.011 0.13v0.724h0.19v-0.763l-9e-3 -0.154-0.039-0.127-0.127-0.117-0.199-0.041-0.11 0.015-0.093 0.041-0.08 0.069-0.063 0.093v-0.177h-0.181v1.161zm1.882-0.16v-0.962h-0.488v0.162h0.298v0.8h-0.389v0.16h0.972v-0.16h-0.393zm7e-3 -1.392h-0.201v0.216h0.201v-0.216zm1.452 0.776h0.188l-0.039-0.173-0.093-0.136-0.145-0.085-0.188-0.032-0.207 0.043-0.158 0.121-0.099 0.197-0.035 0.264 0.033 0.261 0.097 0.195 0.153 0.121 0.21 0.041 0.186-0.033 0.145-0.09 0.099-0.143 0.043-0.19h-0.181l-0.033 0.121-0.06 0.09-0.087 0.057-0.106 0.017-0.131-0.028-0.096-0.087-0.058-0.14-0.019-0.199 0.019-0.194 0.061-0.141 0.097-0.086 0.127-0.031 0.113 0.02 0.084 0.05 0.056 0.082 0.024 0.108zm1.251 0.624v7e-3l0.011 0.073 0.033 0.052 0.136 0.041 0.106-0.017v-0.147l-0.046 7e-3 -0.06-0.029-0.011-0.086v-0.601l-0.026-0.153-0.076-0.108-0.131-0.065-0.186-0.024-0.182 0.026-0.134 0.073-0.084 0.115-0.028 0.151v0.013h0.171l0.015-0.091 0.047-0.064 0.078-0.039 0.11-0.015 0.106 0.01 0.076 0.033 0.045 0.056 0.015 0.078-8e-3 0.091-0.035 0.045-0.086 0.022-0.162 0.017-0.186 0.039-0.132 0.069-0.078 0.108-0.024 0.16 0.022 0.143 0.067 0.105 0.108 0.067 0.149 0.024 0.201-0.045 0.179-0.141zm-0.021-0.255-0.026 0.113-0.069 0.086-0.104 0.056-0.127 0.02-0.083-0.011-0.058-0.035-0.037-0.06-0.011-0.084 9e-3 -0.076 0.035-0.054 0.138-0.061 0.175-0.026 0.158-0.051v0.183zm0.888-0.553v0.581l0.013 0.188 0.061 0.13 0.121 0.076 0.205 0.026 0.225-0.011v-0.164l-0.164 0.013-0.15-0.018-0.08-0.054-0.034-0.09-7e-3 -0.128v-0.549h0.435v-0.162h-0.435v-0.339h-0.19v0.339h-0.328v0.162h0.328zm1.213 0.434h0.761l2e-3 -0.088-0.035-0.249-0.095-0.186-0.151-0.112-0.201-0.041-0.197 0.043-0.151 0.121-0.098 0.197-0.034 0.259 0.032 0.266 0.098 0.195 0.149 0.121 0.194 0.041 0.169-0.028 0.138-0.074 0.102-0.117 0.058-0.155h-0.188l-0.039 0.086-0.056 0.065-0.16 0.052-0.123-0.024-0.093-0.075-0.061-0.124-0.021-0.166v-7e-3zm0-0.159 0.024-0.15 0.058-0.11 0.088-0.067 0.117-0.024 0.115 0.024 0.088 0.067 0.054 0.11 0.02 0.15h-0.564zm1.848 0.505v0.18h0.19v-1.552h-0.188v0.568l-0.145-0.164-0.089-0.039-0.101-0.015-0.184 0.043-0.143 0.121-0.092 0.195-0.033 0.261 0.033 0.262 0.092 0.196 0.143 0.124 0.184 0.041 0.101-0.015 0.091-0.039 0.141-0.167zm-0.301-0.851 0.126 0.03 0.095 0.084 0.056 0.141 0.022 0.194-0.022 0.197-0.056 0.14-0.095 0.087-0.126 0.028-0.119-0.028-0.09-0.087-0.061-0.142-0.019-0.195 0.019-0.192 0.061-0.141 0.09-0.086 0.119-0.03zm2.464 1.031 0.173-0.986 0.173 0.986h0.182l0.285-1.161h-0.184l-0.192 0.986-0.171-0.986h-0.188l-0.171 0.986-0.192-0.986h-0.182l0.286 1.161h0.181zm1.608-0.16v-0.962h-0.488v0.162h0.298v0.8h-0.389v0.16h0.973v-0.16h-0.394zm7e-3 -1.392h-0.201v0.216h0.201v-0.216zm0.968 0.592v0.581l0.013 0.188 0.061 0.13 0.121 0.076 0.205 0.026 0.225-0.011v-0.164l-0.165 0.013-0.149-0.018-0.08-0.054-0.034-0.09-7e-3 -0.128v-0.549h0.435v-0.162h-0.435v-0.339h-0.19v0.339h-0.328v0.162h0.328zm1.046 0.96h0.19v-0.67l0.02-0.154 0.063-0.112 0.097-0.069 0.129-0.026 0.104 0.021 0.065 0.059 0.032 0.097 0.011 0.13v0.724h0.19v-0.763l-8e-3 -0.154-0.039-0.127-0.128-0.117-0.198-0.041-0.109 0.015-0.092 0.041-0.078 0.065-0.059 0.089v-0.56h-0.19v1.552zm1.245-0.58 0.035 0.264 0.099 0.195 0.158 0.121 0.212 0.041 0.209-0.041 0.158-0.119 0.1-0.195 0.036-0.266-0.036-0.263-0.1-0.197-0.158-0.119-0.209-0.043-0.212 0.043-0.158 0.121-0.099 0.195-0.035 0.263zm0.195-2e-3 0.019-0.194 0.061-0.141 0.097-0.086 0.132-0.03 0.129 0.03 0.098 0.084 0.06 0.143 0.022 0.194-0.022 0.197-0.06 0.143-0.098 0.086-0.129 0.028-0.132-0.028-0.097-0.086-0.061-0.143-0.019-0.197zm2.057-0.579h-0.19v0.67l-0.022 0.156-0.062 0.112-0.097 0.069-0.128 0.022-0.102-0.017-0.064-0.052-0.037-0.089-9e-3 -0.125v-0.746h-0.19v0.763l6e-3 0.153 0.042 0.128 0.125 0.117 0.201 0.041 0.108-0.015 0.093-0.039 0.08-0.067 0.065-0.098v0.178h0.181v-1.161zm0.662 0.201v0.581l0.013 0.188 0.06 0.13 0.121 0.076 0.206 0.026 0.224-0.011v-0.164l-0.164 0.013-0.149-0.018-0.08-0.054-0.035-0.09-6e-3 -0.128v-0.549h0.434v-0.162h-0.434v-0.339h-0.19v0.339h-0.329v0.162h0.329zm2.291 0.38 0.034 0.264 0.1 0.195 0.158 0.121 0.211 0.041 0.21-0.041 0.158-0.119 0.099-0.195 0.037-0.266-0.037-0.263-0.099-0.197-0.158-0.119-0.21-0.043-0.211 0.043-0.158 0.121-0.1 0.195-0.034 0.263zm0.194-2e-3 0.02-0.194 0.06-0.141 0.097-0.086 0.132-0.03 0.13 0.03 0.097 0.084 0.061 0.143 0.021 0.194-0.021 0.197-0.061 0.143-0.097 0.086-0.13 0.028-0.132-0.028-0.097-0.086-0.06-0.143-0.02-0.197zm2.058-0.579h-0.19v0.67l-0.022 0.156-0.063 0.112-0.097 0.069-0.127 0.022-0.102-0.017-0.065-0.052-0.037-0.089-8e-3 -0.125v-0.746h-0.19v0.763l6e-3 0.153 0.041 0.128 0.125 0.117 0.202 0.041 0.108-0.015 0.093-0.039 0.079-0.067 0.065-0.098v0.178h0.182v-1.161zm0.478 1.161h0.19v-0.664l0.019-0.16 0.059-0.114 0.095-0.07 0.127-0.023 0.095 0.015 0.072 0.043 0.043 0.074 0.015 0.099h0.192l-0.026-0.175-0.071-0.125-0.119-0.076-0.162-0.026-0.11 0.017-0.095 0.043-0.085 0.074-0.067 0.099v-0.192h-0.172v1.161zm2.805 0 0.173-0.986 0.173 0.986h0.181l0.286-1.161h-0.184l-0.192 0.986-0.171-0.986h-0.188l-0.171 0.986-0.192-0.986h-0.182l0.285 1.161h0.182zm1.098 0h0.19v-0.664l0.02-0.16 0.058-0.114 0.095-0.07 0.128-0.023 0.095 0.015 0.071 0.043 0.043 0.074 0.015 0.099h0.193l-0.026-0.175-0.071-0.125-0.119-0.076-0.162-0.026-0.111 0.017-0.095 0.043-0.084 0.074-0.067 0.099v-0.192h-0.173v1.161zm1.811-0.16v-0.962h-0.488v0.162h0.298v0.8h-0.389v0.16h0.973v-0.16h-0.394zm7e-3 -1.392h-0.201v0.216h0.201v-0.216zm0.968 0.592v0.581l0.013 0.188 0.06 0.13 0.122 0.076 0.205 0.026 0.225-0.011v-0.164l-0.165 0.013-0.149-0.018-0.08-0.054-0.034-0.09-7e-3 -0.128v-0.549h0.435v-0.162h-0.435v-0.339h-0.19v0.339h-0.329v0.162h0.329zm1.301 0v0.581l0.013 0.188 0.061 0.13 0.121 0.076 0.205 0.026 0.225-0.011v-0.164l-0.164 0.013-0.15-0.018-0.08-0.054-0.034-0.09-7e-3 -0.128v-0.549h0.435v-0.162h-0.435v-0.339h-0.19v0.339h-0.328v0.162h0.328zm1.213 0.434h0.76l3e-3 -0.088-0.035-0.249-0.095-0.186-0.151-0.112-0.201-0.041-0.197 0.043-0.151 0.121-0.098 0.197-0.034 0.259 0.032 0.266 0.098 0.195 0.149 0.121 0.194 0.041 0.169-0.028 0.138-0.074 0.102-0.117 0.058-0.155h-0.188l-0.039 0.086-0.056 0.065-0.16 0.052-0.123-0.024-0.093-0.075-0.061-0.124-0.021-0.166v-7e-3zm0-0.159 0.023-0.15 0.059-0.11 0.088-0.067 0.117-0.024 0.115 0.024 0.088 0.067 0.054 0.11 0.02 0.15h-0.564zm1.134 0.685h0.191v-0.67l0.019-0.154 0.063-0.112 0.097-0.069 0.13-0.026 0.103 0.021 0.065 0.059 0.033 0.097 0.011 0.13v0.724h0.19v-0.763l-9e-3 -0.154-0.039-0.127-0.127-0.117-0.199-0.041-0.11 0.015-0.093 0.041-0.08 0.069-0.063 0.093v-0.177h-0.182v1.161zm3.292-0.152v7e-3l0.011 0.073 0.032 0.052 0.137 0.041 0.105-0.017v-0.147l-0.045 7e-3 -0.06-0.029-0.011-0.086v-0.601l-0.026-0.153-0.076-0.108-0.132-0.065-0.186-0.024-0.181 0.026-0.134 0.073-0.084 0.115-0.028 0.151v0.013h0.17l0.015-0.091 0.048-0.064 0.078-0.039 0.11-0.015 0.106 0.01 0.076 0.033 0.045 0.056 0.015 0.078-9e-3 0.091-0.034 0.045-0.087 0.022-0.162 0.017-0.186 0.039-0.131 0.069-0.078 0.108-0.024 0.16 0.022 0.143 0.067 0.105 0.108 0.067 0.149 0.024 0.201-0.045 0.179-0.141zm-0.021-0.255-0.026 0.113-0.07 0.086-0.103 0.056-0.128 0.02-0.082-0.011-0.058-0.035-0.037-0.06-0.011-0.084 9e-3 -0.076 0.034-0.054 0.139-0.061 0.175-0.026 0.158-0.051v0.183zm1.536 0.355v-1.109h-0.181v0.188l-0.149-0.171-0.091-0.043-0.102-0.015-0.183 0.043-0.143 0.121-0.093 0.195-0.032 0.261 0.032 0.264 0.093 0.194 0.143 0.124 0.183 0.041 0.104-0.015 0.086-0.039 0.152-0.165v0.165l-0.018 0.129-0.047 0.093-0.091 0.054-0.136 0.02-0.119-0.013-0.084-0.033-0.05-0.056-0.015-0.075h-0.184v8e-3l0.028 0.139 0.087 0.103 0.138 0.067 0.188 0.024 0.225-0.032 0.149-0.091 0.084-0.158 0.026-0.218zm-0.778-0.53 0.02-0.192 0.058-0.143 0.091-0.084 0.121-0.03 0.127 0.03 0.095 0.084 0.059 0.143 0.021 0.192-0.021 0.197-0.059 0.14-0.095 0.087-0.127 0.028-0.121-0.028-0.091-0.087-0.058-0.142-0.02-0.195zm1.247 0.582h0.191v-0.664l0.019-0.16 0.058-0.114 0.095-0.07 0.128-0.023 0.095 0.015 0.071 0.043 0.044 0.074 0.015 0.099h0.192l-0.026-0.175-0.071-0.125-0.119-0.076-0.162-0.026-0.11 0.017-0.095 0.043-0.085 0.074-0.067 0.099v-0.192h-0.173v1.161zm1.397-0.526h0.76l3e-3 -0.088-0.035-0.249-0.095-0.186-0.151-0.112-0.201-0.041-0.197 0.043-0.151 0.121-0.098 0.197-0.034 0.259 0.032 0.266 0.097 0.195 0.15 0.121 0.194 0.041 0.169-0.028 0.138-0.074 0.102-0.117 0.058-0.155h-0.188l-0.039 0.086-0.056 0.065-0.16 0.052-0.123-0.024-0.093-0.075-0.061-0.124-0.021-0.166v-7e-3zm0-0.159 0.023-0.15 0.059-0.11 0.088-0.067 0.117-0.024 0.115 0.024 0.088 0.067 0.054 0.11 0.02 0.15h-0.564zm1.301 0.159h0.761l2e-3 -0.088-0.035-0.249-0.095-0.186-0.151-0.112-0.201-0.041-0.197 0.043-0.151 0.121-0.098 0.197-0.034 0.259 0.032 0.266 0.098 0.195 0.149 0.121 0.194 0.041 0.169-0.028 0.138-0.074 0.102-0.117 0.058-0.155h-0.188l-0.039 0.086-0.056 0.065-0.16 0.052-0.123-0.024-0.093-0.075-0.061-0.124-0.021-0.166v-7e-3zm0-0.159 0.023-0.15 0.059-0.11 0.088-0.067 0.117-0.024 0.115 0.024 0.088 0.067 0.054 0.11 0.02 0.15h-0.564zm1.059 0.685h0.175v-0.776l0.011-0.117 0.032-0.084 0.05-0.05 0.065-0.019 0.051 0.017 0.035 0.043 0.017 0.074 7e-3 0.097v0.815h0.164v-0.776l0.011-0.115 0.032-0.084 0.052-0.052 0.065-0.019 0.052 0.017 0.035 0.043 0.021 0.171v0.815h0.175v-0.802l-0.011-0.167-0.034-0.127-0.069-0.078-0.113-0.028-0.132 0.043-0.101 0.126-0.08-0.124-0.134-0.045-0.123 0.043-0.085 0.121v-0.123h-0.168v1.161zm1.543-0.526h0.761l2e-3 -0.088-0.035-0.249-0.095-0.186-0.151-0.112-0.201-0.041-0.197 0.043-0.151 0.121-0.097 0.197-0.035 0.259 0.033 0.266 0.097 0.195 0.149 0.121 0.195 0.041 0.168-0.028 0.138-0.074 0.102-0.117 0.058-0.155h-0.188l-0.039 0.086-0.056 0.065-0.16 0.052-0.123-0.024-0.093-0.075-0.06-0.124-0.022-0.166v-7e-3zm0-0.159 0.024-0.15 0.058-0.11 0.089-0.067 0.116-0.024 0.115 0.024 0.089 0.067 0.054 0.11 0.019 0.15h-0.564zm1.135 0.685h0.19v-0.67l0.019-0.154 0.063-0.112 0.097-0.069 0.13-0.026 0.104 0.021 0.065 0.059 0.032 0.097 0.011 0.13v0.724h0.19v-0.763l-9e-3 -0.154-0.039-0.127-0.127-0.117-0.199-0.041-0.11 0.015-0.093 0.041-0.08 0.069-0.063 0.093v-0.177h-0.181v1.161zm1.556-0.96v0.581l0.013 0.188 0.06 0.13 0.121 0.076 0.206 0.026 0.225-0.011v-0.164l-0.165 0.013-0.149-0.018-0.08-0.054-0.034-0.09-7e-3 -0.128v-0.549h0.435v-0.162h-0.435v-0.339h-0.19v0.339h-0.329v0.162h0.329zm1.344 0.96h0.299v-0.322h-0.299v0.322z" fill="#000" fill-rule="evenodd" stroke="none"/>
 </g>
 <g id="g538" fill="none" stroke="#000" stroke-width=".13">
  <path id="path540" d="m221.31 271.59h-0.197l0.044 0.23 0.108 0.168 0.166 0.102 0.225 0.036 0.223-0.034 0.166-0.095 0.106-0.149 0.039-0.197-0.033-0.177-0.09-0.115-0.147-0.075-0.197-0.057-0.169-0.041-0.11-0.047-0.063-0.069-0.019-0.109 0.019-0.097 0.057-0.073 0.086-0.05 0.119-0.017 0.121 0.021 0.095 0.059 0.063 0.097 0.03 0.132h0.197v-4e-3l-0.035-0.204-0.101-0.151-0.16-0.095-0.217-0.032-0.194 0.032-0.151 0.091-0.098 0.14-0.034 0.182 0.028 0.162 0.082 0.11 0.13 0.074 0.177 0.056 0.175 0.049 0.132 0.048 0.08 0.069 0.028 0.113-0.026 0.114-0.067 0.087-0.102 0.054-0.131 0.017-0.147-0.024-0.113-0.069-0.071-0.112-0.024-0.15zm1.993-0.062-0.043 0.181-0.072 0.13-0.099 0.08-0.117 0.026-0.14-0.039-0.111-0.117-0.073-0.19-0.024-0.264 0.024-0.261 0.071-0.192 0.111-0.117 0.142-0.041 0.104 0.021 0.089 0.061 0.069 0.097 0.047 0.134h0.206l-0.065-0.205-0.113-0.156-0.153-0.097-0.184-0.035-0.229 0.054-0.175 0.152-0.112 0.248-0.039 0.337 0.039 0.338 0.112 0.248 0.175 0.154 0.229 0.051 0.201-0.041 0.162-0.114 0.115-0.188 0.06-0.255h-0.207zm0.294 0.557h0.199l0.157-0.441h0.599l0.158 0.441h0.203l-0.549-1.502h-0.22l-0.547 1.502zm0.426-0.624 0.231-0.662 0.231 0.662h-0.462zm1.093 0.624h0.964v-0.181h-0.765v-1.319h-0.199v1.5zm1.286 0h0.951v-0.181h-0.752v-0.508h0.67v-0.179h-0.67v-0.45h0.735v-0.182h-0.934v1.5z" fill="#000" fill-rule="evenodd" stroke="none"/>
 </g>
 <g id="g546" fill="none" stroke="#000" stroke-width=".13">
  <path id="path548" d="m241.24 272.08h0.19l0.216-1.301 0.223 1.301h0.182l0.263-1.502h-0.173l-0.186 1.278-0.213-1.278h-0.189l-0.209 1.278-0.186-1.278h-0.177l0.259 1.502zm1.256 0h0.951v-0.181h-0.752v-0.508h0.67v-0.179h-0.67v-0.45h0.735v-0.182h-0.934v1.5zm1.655-0.181h-0.276v0.181h0.752v-0.181h-0.277v-1.137h0.277v-0.182h-0.752v0.182h0.276v1.137zm1.797-0.02 0.036 0.201h0.108v-0.81h-0.546v0.184h0.337v0.013l-0.026 0.198-0.069 0.147-0.106 0.093-0.132 0.031-0.147-0.039-0.115-0.117-0.073-0.192-0.026-0.264 0.024-0.262 0.073-0.192 0.117-0.117 0.158-0.041 0.108 0.022 0.088 0.06 0.065 0.102 0.037 0.136h0.214l-0.056-0.207-0.106-0.156-0.149-0.095-0.188-0.035-0.247 0.054-0.186 0.158-0.118 0.249-0.042 0.33 0.042 0.333 0.118 0.249 0.175 0.158 0.221 0.051 0.123-0.017 0.11-0.043 0.095-0.076 0.083-0.106zm0.404 0.201h0.201v-0.704h0.601v0.704h0.199v-1.5h-0.199v0.612h-0.601v-0.612h-0.201v1.5zm1.703 0h0.199v-1.318h0.454v-0.182h-1.109v0.182h0.456v1.318zm2.86 0.418h0.136l-0.124-0.23-0.086-0.239-0.054-0.253-0.017-0.255 0.017-0.255 0.054-0.251 0.086-0.242 0.124-0.229h-0.136l-0.158 0.237-0.111 0.236-0.064 0.246-0.02 0.258 0.02 0.259 0.064 0.244 0.111 0.236 0.158 0.238zm0.721-0.418h0.191v-0.408l0.198-0.192 0.342 0.6h0.214l-0.426-0.732 0.437-0.428h-0.24l-0.525 0.523v-0.914h-0.191v1.551zm2.179-0.051v-1.109h-0.181v0.188l-0.15-0.171-0.09-0.043-0.102-0.015-0.184 0.043-0.142 0.121-0.093 0.194-0.033 0.262 0.033 0.264 0.093 0.194 0.142 0.123 0.184 0.041 0.104-0.015 0.086-0.039 0.152-0.164v0.164l-0.018 0.13-0.047 0.093-0.091 0.054-0.136 0.02-0.119-0.013-0.084-0.033-0.05-0.056-0.015-0.076h-0.184v9e-3l0.028 0.138 0.087 0.104 0.138 0.067 0.188 0.024 0.225-0.033 0.149-0.09 0.084-0.158 0.026-0.218zm-0.778-0.53 0.019-0.192 0.059-0.143 0.091-0.084 0.121-0.031 0.127 0.031 0.095 0.084 0.059 0.143 0.021 0.192-0.021 0.197-0.059 0.14-0.095 0.087-0.127 0.028-0.121-0.028-0.091-0.087-0.059-0.142-0.019-0.195zm1.468 0.999 0.155-0.238 0.11-0.236 0.065-0.244 0.022-0.259-0.022-0.258-0.065-0.246-0.11-0.236-0.155-0.237h-0.137l0.121 0.229 0.087 0.242 0.052 0.251 0.019 0.255-0.019 0.255-0.052 0.253-0.089 0.239-0.119 0.23h0.137z" fill="#000" fill-rule="evenodd" stroke="none"/>
 </g>
 <g id="g550" fill="none" stroke="#000" stroke-width=".13">
  <path id="path552" d="m266.65 270.58h-0.499v1.5h0.499l0.236-0.047 0.175-0.145 0.108-0.236 0.039-0.322-0.035-0.328-0.043-0.13-0.06-0.104-0.175-0.14-0.115-0.035-0.13-0.013zm-0.015 0.18 0.165 0.032 0.112 0.1 0.067 0.177 0.022 0.261-0.024 0.253-0.067 0.178-0.115 0.105-0.16 0.035h-0.283v-1.141h0.283zm0.837 1.32h0.201v-0.633h0.205l0.151 7e-3 0.095 0.03 0.052 0.071 0.022 0.128 0.011 0.194 0.013 0.128 0.026 0.075h0.227v-0.041l-0.05-0.06-0.017-0.113-0.016-0.242-0.036-0.179-0.05-0.056-0.078-0.041 0.087-0.054 0.06-0.076 0.039-0.095 0.013-0.115-0.03-0.181-0.087-0.136-0.142-0.082-0.195-0.029h-0.501v1.5zm0.445-1.316 0.132 0.013 0.093 0.041 0.058 0.076 0.02 0.119-0.022 0.125-0.058 0.076-0.1 0.039-0.136 0.01h-0.231v-0.499h0.244zm0.681 1.316h0.199l0.157-0.441h0.599l0.158 0.441h0.203l-0.549-1.502h-0.22l-0.547 1.502zm0.426-0.624 0.231-0.662 0.231 0.662h-0.462zm1.124 0.624h0.19l0.216-1.301 0.222 1.301h0.182l0.264-1.502h-0.173l-0.186 1.278-0.214-1.278h-0.188l-0.21 1.278-0.186-1.278h-0.177l0.26 1.502zm1.61-0.181h-0.277v0.181h0.752v-0.181h-0.276v-1.137h0.276v-0.182h-0.752v0.182h0.277v1.137zm0.908 0.181h0.179v-1.229l0.575 1.229h0.231v-1.5h-0.181v1.23l-0.569-1.23h-0.235v1.5zm2.189-0.201 0.037 0.201h0.108v-0.81h-0.547v0.184h0.337v0.013l-0.026 0.198-0.069 0.147-0.106 0.093-0.132 0.031-0.147-0.039-0.114-0.117-0.074-0.192-0.026-0.264 0.024-0.262 0.074-0.192 0.116-0.117 0.158-0.041 0.108 0.022 0.089 0.06 0.065 0.102 0.036 0.136h0.214l-0.056-0.207-0.106-0.156-0.149-0.095-0.188-0.035-0.246 0.054-0.186 0.158-0.119 0.249-0.041 0.33 0.041 0.333 0.119 0.249 0.175 0.158 0.22 0.051 0.124-0.017 0.11-0.043 0.095-0.076 0.082-0.106zm1.714 0.201h0.179v-1.229l0.575 1.229h0.232v-1.5h-0.182v1.23l-0.568-1.23h-0.236v1.5zm1.277-0.57 0.031 0.27 0.095 0.192 0.16 0.111 0.231 0.038 0.229-0.038 0.16-0.111 0.095-0.19 0.032-0.272v-0.93h-0.201v0.941l-0.019 0.183-0.058 0.132-0.1 0.078-0.138 0.026-0.143-0.026-0.099-0.078-0.059-0.129-0.017-0.186v-0.941h-0.199v0.93zm1.278 0.57h0.166v-1.361l0.281 1.361h0.186l0.279-1.361v1.361h0.168v-1.5h-0.263l-0.277 1.323-0.274-1.323h-0.266v1.5zm2.111-0.81 0.152-0.125 0.039-0.085 0.013-0.103-0.029-0.163-0.084-0.116-0.136-0.072-0.19-0.026h-0.534v1.5h0.564l0.201-0.03 0.149-0.088 0.093-0.141 0.033-0.19-0.02-0.128-0.052-0.106-0.084-0.077-0.115-0.05zm-0.276-0.067h-0.294v-0.443h0.311l0.117 0.013 0.082 0.039 0.05 0.067 0.017 0.099-0.02 0.1-0.051 0.069-0.089 0.043-0.123 0.013zm0.047 0.698h-0.341v-0.517h0.322l0.136 0.016 0.097 0.045 0.059 0.078 0.019 0.112-0.019 0.119-0.054 0.082-0.091 0.05-0.128 0.015zm0.806 0.179h0.951v-0.181h-0.752v-0.508h0.67v-0.179h-0.67v-0.45h0.735v-0.182h-0.934v1.5zm1.273 0h0.202v-0.633h0.205l0.151 7e-3 0.095 0.03 0.052 0.071 0.022 0.128 0.011 0.194 0.012 0.128 0.026 0.075h0.227v-0.041l-0.049-0.06-0.018-0.113-0.015-0.242-0.037-0.179-0.049-0.056-0.078-0.041 0.086-0.054 0.061-0.076 0.039-0.095 0.013-0.115-0.03-0.181-0.087-0.136-0.143-0.082-0.194-0.029h-0.502v1.5zm0.446-1.316 0.132 0.013 0.093 0.041 0.058 0.076 0.019 0.119-0.021 0.125-0.059 0.076-0.099 0.039-0.136 0.01h-0.231v-0.499h0.244z" fill="#000" fill-rule="evenodd" stroke="none"/>
 </g>
 <g id="g554" fill="none" stroke="#000" stroke-width=".13">
  <path id="path556" d="m366.31 271.59h-0.197l0.044 0.23 0.108 0.168 0.166 0.102 0.225 0.036 0.223-0.034 0.166-0.095 0.106-0.149 0.039-0.197-0.033-0.177-0.09-0.115-0.147-0.075-0.197-0.057-0.169-0.041-0.11-0.047-0.063-0.069-0.019-0.108 0.019-0.098 0.057-0.073 0.086-0.05 0.119-0.017 0.121 0.021 0.095 0.059 0.063 0.097 0.03 0.132h0.197v-4e-3l-0.035-0.204-0.101-0.151-0.16-0.095-0.217-0.032-0.194 0.032-0.151 0.091-0.098 0.14-0.034 0.182 0.028 0.162 0.082 0.11 0.13 0.074 0.177 0.056 0.175 0.049 0.132 0.048 0.08 0.069 0.028 0.113-0.026 0.114-0.067 0.087-0.102 0.054-0.131 0.017-0.147-0.024-0.113-0.069-0.071-0.112-0.024-0.15zm1.141 0.495h0.201v-0.704h0.601v0.704h0.199v-1.5h-0.199v0.612h-0.601v-0.612h-0.201v1.5zm1.349 0h0.951v-0.181h-0.752v-0.508h0.67v-0.179h-0.67v-0.45h0.735v-0.182h-0.934v1.5zm1.301 0h0.951v-0.181h-0.752v-0.508h0.67v-0.179h-0.67v-0.45h0.735v-0.182h-0.934v1.5zm1.656 0h0.199v-1.318h0.453v-0.182h-1.108v0.182h0.456v1.318z" fill="#000" fill-rule="evenodd" stroke="none"/>
 </g>
 <g id="g558" fill="none" stroke="#000" stroke-width=".13">
  <path id="path560" d="m221.31 258.59h-0.197l0.044 0.23 0.108 0.168 0.166 0.102 0.225 0.036 0.223-0.034 0.166-0.095 0.106-0.149 0.039-0.197-0.033-0.177-0.09-0.115-0.147-0.075-0.197-0.057-0.169-0.041-0.11-0.047-0.063-0.069-0.019-0.109 0.019-0.097 0.057-0.073 0.086-0.05 0.119-0.017 0.121 0.021 0.095 0.059 0.063 0.097 0.03 0.132h0.197v-4e-3l-0.035-0.204-0.101-0.151-0.16-0.095-0.217-0.032-0.194 0.032-0.151 0.091-0.098 0.14-0.034 0.182 0.028 0.162 0.082 0.11 0.13 0.074 0.177 0.056 0.175 0.049 0.132 0.048 0.08 0.069 0.028 0.113-0.026 0.114-0.067 0.087-0.102 0.054-0.131 0.017-0.147-0.024-0.113-0.069-0.071-0.112-0.024-0.15zm1.543 0.314h-0.276v0.181h0.752v-0.181h-0.277v-1.137h0.277v-0.182h-0.752v0.182h0.276v1.137zm0.863 0.181h1.076v-0.181h-0.839l0.839-1.148v-0.171h-1.018v0.182h0.793l-0.851 1.146v0.172zm1.385 0h0.951v-0.181h-0.752v-0.508h0.67v-0.179h-0.67v-0.45h0.735v-0.182h-0.934v1.5z" fill="#000" fill-rule="evenodd" stroke="none"/>
 </g>
 <g id="g562" fill="none" stroke="#000" stroke-width=".13">
  <path id="path564" d="m222 243.52-0.044 0.181-0.071 0.13-0.099 0.08-0.117 0.026-0.14-0.039-0.111-0.117-0.073-0.19-0.024-0.264 0.024-0.261 0.071-0.192 0.11-0.117 0.143-0.041 0.104 0.021 0.088 0.061 0.07 0.097 0.047 0.134h0.205l-0.064-0.205-0.113-0.156-0.153-0.097-0.184-0.035-0.229 0.054-0.175 0.152-0.113 0.248-0.038 0.337 0.038 0.338 0.113 0.248 0.175 0.154 0.229 0.051 0.201-0.041 0.162-0.114 0.115-0.188 0.06-0.255h-0.207zm0.449 0.557h0.201v-0.704h0.601v0.704h0.199v-1.5h-0.199v0.612h-0.601v-0.612h-0.201v1.5zm1.349 0h0.951v-0.181h-0.752v-0.508h0.67v-0.179h-0.67v-0.45h0.735v-0.182h-0.934v1.5zm2.105-0.557-0.043 0.181-0.071 0.13-0.1 0.08-0.116 0.026-0.141-0.039-0.11-0.117-0.074-0.19-0.023-0.264 0.023-0.261 0.072-0.192 0.11-0.117 0.143-0.041 0.103 0.021 0.089 0.061 0.069 0.097 0.048 0.134h0.205l-0.065-0.205-0.112-0.156-0.154-0.097-0.183-0.035-0.23 0.054-0.175 0.152-0.112 0.248-0.039 0.337 0.039 0.338 0.112 0.248 0.175 0.154 0.23 0.051 0.201-0.041 0.162-0.114 0.114-0.188 0.061-0.255h-0.208zm0.482 0.557h0.199v-0.533l0.177-0.191 0.504 0.724h0.242l-0.605-0.868 0.588-0.632h-0.264l-0.642 0.694v-0.694h-0.199v1.5zm1.316 0h0.952v-0.181h-0.753v-0.508h0.67v-0.179h-0.67v-0.45h0.735v-0.182h-0.934v1.5zm1.753-1.5h-0.499v1.5h0.499l0.236-0.047 0.175-0.145 0.108-0.236 0.039-0.322-0.035-0.328-0.043-0.13-0.06-0.104-0.175-0.14-0.115-0.035-0.13-0.013zm-0.015 0.18 0.165 0.032 0.112 0.1 0.067 0.177 0.022 0.261-0.024 0.253-0.067 0.178-0.115 0.105-0.16 0.035h-0.283v-1.141h0.283zm2.89 0.51 0.151-0.125 0.039-0.085 0.013-0.104-0.028-0.162-0.084-0.116-0.136-0.072-0.191-0.026h-0.533v1.5h0.564l0.201-0.03 0.149-0.088 0.093-0.141 0.032-0.19-0.019-0.128-0.052-0.106-0.084-0.077-0.115-0.05zm-0.277-0.067h-0.294v-0.443h0.312l0.116 0.013 0.083 0.039 0.049 0.067 0.018 0.099-0.02 0.1-0.052 0.069-0.088 0.043-0.124 0.013zm0.048 0.698h-0.342v-0.517h0.322l0.137 0.016 0.097 0.045 0.058 0.078 0.02 0.112-0.02 0.119-0.054 0.082-0.091 0.05-0.127 0.015zm1.372 0.179v-0.607l0.493-0.895h-0.225l-0.369 0.711-0.374-0.711h-0.24l0.514 0.908v0.594h0.201zm1.04 0h0.298v-0.322h-0.298v0.322zm0-0.838h0.298v-0.322h-0.298v0.322z" fill="#000" fill-rule="evenodd" stroke="none"/>
 </g>
 <g id="g570" fill="none" stroke="#000" stroke-width=".13">
  <path id="path572" d="m221.65 250.08h-0.499v1.5h0.499l0.236-0.047 0.175-0.145 0.108-0.236 0.039-0.322-0.035-0.328-0.043-0.13-0.06-0.104-0.175-0.14-0.115-0.035-0.13-0.013zm-0.015 0.18 0.165 0.032 0.112 0.1 0.067 0.177 0.022 0.261-0.024 0.253-0.067 0.178-0.115 0.105-0.16 0.035h-0.283v-1.141h0.283zm0.662 1.32h0.199l0.157-0.441h0.599l0.158 0.441h0.203l-0.549-1.502h-0.22l-0.547 1.502zm0.425-0.624 0.232-0.662 0.231 0.662h-0.463zm1.433 0.624h0.199v-1.318h0.454v-0.182h-1.109v0.182h0.456v1.318zm0.947 0h0.951v-0.181h-0.752v-0.508h0.67v-0.179h-0.67v-0.45h0.735v-0.182h-0.934v1.5zm1.606 0h0.298v-0.322h-0.298v0.322zm0-0.838h0.298v-0.322h-0.298v0.322z" fill="#000" fill-rule="evenodd" stroke="none"/>
 </g>
 <g id="g578" fill="none" stroke="#000" stroke-width=".13">
  <path id="path580" d="m221.65 227.58h-0.499v1.5h0.499l0.236-0.047 0.175-0.145 0.108-0.236 0.039-0.322-0.035-0.328-0.043-0.13-0.06-0.104-0.175-0.14-0.115-0.035-0.13-0.013zm-0.015 0.18 0.165 0.032 0.112 0.1 0.067 0.177 0.022 0.261-0.024 0.253-0.067 0.178-0.115 0.105-0.16 0.035h-0.283v-1.141h0.283zm0.865 1.32h0.951v-0.181h-0.752v-0.508h0.67v-0.179h-0.67v-0.45h0.735v-0.182h-0.934v1.5zm1.413-0.495h-0.196l0.043 0.23 0.108 0.168 0.166 0.102 0.225 0.036 0.223-0.034 0.166-0.095 0.106-0.149 0.039-0.197-0.032-0.177-0.091-0.115-0.147-0.075-0.197-0.057-0.168-0.041-0.111-0.047-0.062-0.069-0.02-0.109 0.02-0.097 0.056-0.073 0.086-0.05 0.119-0.017 0.121 0.021 0.095 0.059 0.063 0.097 0.03 0.132h0.197v-5e-3l-0.035-0.203-0.101-0.151-0.16-0.095-0.216-0.032-0.195 0.032-0.151 0.091-0.097 0.14-0.035 0.182 0.028 0.162 0.082 0.11 0.13 0.074 0.177 0.056 0.175 0.049 0.132 0.048 0.08 0.069 0.028 0.113-0.026 0.114-0.067 0.087-0.101 0.054-0.132 0.017-0.147-0.024-0.112-0.069-0.072-0.112-0.024-0.15zm1.544 0.314h-0.277v0.181h0.752v-0.181h-0.277v-1.137h0.277v-0.182h-0.752v0.182h0.277v1.137zm1.796-0.02 0.037 0.201h0.108v-0.81h-0.547v0.184h0.337v0.013l-0.026 0.198-0.069 0.147-0.106 0.093-0.132 0.031-0.147-0.039-0.114-0.117-0.074-0.192-0.026-0.264 0.024-0.262 0.073-0.192 0.117-0.117 0.158-0.041 0.108 0.022 0.089 0.06 0.064 0.102 0.037 0.136h0.214l-0.056-0.207-0.106-0.156-0.149-0.095-0.188-0.035-0.247 0.054-0.185 0.158-0.119 0.249-0.041 0.33 0.041 0.333 0.119 0.249 0.175 0.158 0.22 0.051 0.123-0.017 0.111-0.043 0.095-0.076 0.082-0.106zm0.413 0.201h0.179v-1.229l0.575 1.229h0.231v-1.5h-0.181v1.23l-0.569-1.23h-0.235v1.5zm1.34 0h0.951v-0.181h-0.752v-0.508h0.67v-0.179h-0.67v-0.45h0.734v-0.182h-0.933v1.5zm1.753-1.5h-0.5v1.5h0.5l0.235-0.047 0.175-0.145 0.108-0.236 0.039-0.322-0.034-0.328-0.044-0.13-0.06-0.104-0.175-0.14-0.115-0.035-0.129-0.013zm-0.016 0.18 0.165 0.032 0.112 0.1 0.067 0.177 0.022 0.261-0.024 0.253-0.067 0.178-0.115 0.105-0.16 0.035h-0.283v-1.141h0.283zm2.89 0.51 0.152-0.125 0.038-0.085 0.013-0.104-0.028-0.162-0.084-0.116-0.136-0.072-0.19-0.026h-0.534v1.5h0.564l0.201-0.03 0.149-0.088 0.093-0.141 0.032-0.19-0.019-0.128-0.052-0.106-0.084-0.077-0.115-0.05zm-0.276-0.067h-0.294v-0.443h0.311l0.117 0.013 0.082 0.039 0.049 0.067 0.018 0.099-0.02 0.1-0.052 0.069-0.088 0.043-0.123 0.013zm0.047 0.698h-0.341v-0.517h0.322l0.136 0.016 0.097 0.045 0.058 0.078 0.02 0.112-0.02 0.119-0.054 0.082-0.09 0.05-0.128 0.015zm1.373 0.179v-0.607l0.492-0.895h-0.224l-0.37 0.711-0.374-0.711h-0.24l0.515 0.908v0.594h0.201zm1.039 0h0.299v-0.322h-0.299v0.322zm0-0.838h0.299v-0.322h-0.299v0.322z" fill="#000" fill-rule="evenodd" stroke="none"/>
 </g>
 <g id="g586" fill="none" stroke="#000" stroke-width=".13">
  <path id="path588" d="m221.65 235.08h-0.499v1.5h0.499l0.236-0.047 0.175-0.145 0.108-0.236 0.039-0.322-0.035-0.328-0.043-0.13-0.06-0.104-0.175-0.14-0.115-0.035-0.13-0.013zm-0.015 0.18 0.165 0.032 0.112 0.1 0.067 0.177 0.022 0.261-0.024 0.253-0.067 0.178-0.115 0.105-0.16 0.035h-0.283v-1.141h0.283zm0.662 1.32h0.199l0.157-0.441h0.599l0.158 0.441h0.203l-0.549-1.502h-0.22l-0.547 1.502zm0.425-0.624 0.232-0.662 0.231 0.662h-0.463zm1.433 0.624h0.199v-1.318h0.454v-0.182h-1.109v0.182h0.456v1.318zm0.947 0h0.951v-0.181h-0.752v-0.508h0.67v-0.179h-0.67v-0.45h0.735v-0.182h-0.934v1.5zm1.606 0h0.298v-0.322h-0.298v0.322zm0-0.838h0.298v-0.322h-0.298v0.322z" fill="#000" fill-rule="evenodd" stroke="none"/>
 </g>
 <g id="g594" fill="none" stroke="#000" stroke-width=".13">
  <path id="path596" d="m386.4 284.98h0.331l0.263-0.735h0.998l0.263 0.735h0.339l-0.915-2.503h-0.368l-0.911 2.503zm0.71-1.041 0.385-1.102 0.385 1.102h-0.77z" fill="#000" fill-rule="evenodd" stroke="none"/>
 </g>
 <g id="g598" fill="none" stroke="#000" stroke-width=".13">
  <path id="path600" d="m398.92 285.57v0.252h2.168v-0.252h-2.168z" fill="#000" fill-rule="evenodd" stroke="none"/>
 </g>
 <g id="g602" fill="none" stroke="#000" stroke-width=".13">
  <path id="path604" d="m387.95 276.96 0.252-0.209 0.065-0.141 0.022-0.173-0.047-0.27-0.14-0.194-0.227-0.119-0.317-0.044h-0.89v2.5h0.94l0.335-0.05 0.249-0.148 0.155-0.234 0.054-0.317-0.033-0.212-0.086-0.177-0.141-0.13-0.191-0.082zm-0.461-0.112h-0.49v-0.739h0.519l0.195 0.022 0.136 0.065 0.083 0.112 0.029 0.165-0.032 0.166-0.087 0.115-0.147 0.072-0.206 0.022zm0.079 1.163h-0.569v-0.86h0.537l0.227 0.025 0.162 0.075 0.097 0.13 0.033 0.187-0.033 0.199-0.09 0.136-0.151 0.083-0.213 0.025z" fill="#000" fill-rule="evenodd" stroke="none"/>
 </g>
 <g id="g606" fill="none" stroke="#000" stroke-width=".13">
  <path id="path608" d="m398.92 278.91v0.253h2.168v-0.253h-2.168z" fill="#000" fill-rule="evenodd" stroke="none"/>
 </g>
 <g id="g610" fill="none" stroke="#000" stroke-width=".13">
  <path id="path612" d="m388.08 270.71-0.072 0.303-0.119 0.216-0.166 0.133-0.195 0.044-0.234-0.065-0.183-0.195-0.123-0.317-0.04-0.439 0.04-0.436 0.119-0.321 0.184-0.194 0.237-0.069 0.173 0.036 0.148 0.101 0.115 0.162 0.08 0.224h0.342l-0.108-0.343-0.188-0.259-0.255-0.162-0.307-0.058-0.381 0.09-0.292 0.253-0.188 0.414-0.064 0.562 0.064 0.562 0.188 0.414 0.292 0.256 0.381 0.086 0.335-0.068 0.271-0.191 0.191-0.314 0.1-0.425h-0.345z" fill="#000" fill-rule="evenodd" stroke="none"/>
 </g>
 <g id="g614" fill="none" stroke="#000" stroke-width=".13">
  <path id="path616" d="m398.92 272.24v0.252h2.168v-0.252h-2.168z" fill="#000" fill-rule="evenodd" stroke="none"/>
 </g>
 <g id="g618" fill="none" stroke="#000" stroke-width=".13">
  <path id="path620" d="m387.5 262.48h-0.832v2.5h0.832l0.393-0.079 0.292-0.242 0.18-0.392 0.065-0.537-0.058-0.547-0.072-0.217-0.101-0.172-0.292-0.235-0.19-0.057-0.217-0.022zm-0.025 0.299 0.274 0.054 0.187 0.166 0.112 0.295 0.036 0.436-0.04 0.422-0.111 0.295-0.191 0.176-0.267 0.058h-0.472v-1.902h0.472z" fill="#000" fill-rule="evenodd" stroke="none"/>
 </g>
 <g id="g622" fill="none" stroke="#000" stroke-width=".13">
  <path id="path624" d="m398.92 265.57v0.252h2.168v-0.252h-2.168z" fill="#000" fill-rule="evenodd" stroke="none"/>
 </g>
 <g id="g626" fill="none" stroke="#000" stroke-width=".13">
  <path id="path628" d="m386.74 258.31h1.585v-0.302h-1.254v-0.847h1.117v-0.299h-1.117v-0.749h1.225v-0.303h-1.556v2.5z" fill="#000" fill-rule="evenodd" stroke="none"/>
 </g>
 <g id="g630" fill="none" stroke="#000" stroke-width=".13">
  <path id="path632" d="m398.92 258.91v0.253h2.168v-0.253h-2.168z" fill="#000" fill-rule="evenodd" stroke="none"/>
 </g>
 <g id="g634" fill="none" stroke="#000" stroke-width=".13">
  <path id="path636" d="m386.76 251.64h0.335v-1.149h1.051v-0.299h-1.051v-0.75h1.293v-0.302h-1.628v2.5z" fill="#000" fill-rule="evenodd" stroke="none"/>
 </g>
 <g id="g638" fill="none" stroke="#000" stroke-width=".13">
  <path id="path640" d="m398.92 252.24v0.252h2.168v-0.252h-2.168z" fill="#000" fill-rule="evenodd" stroke="none"/>
 </g>
 <g id="g642" fill="none" stroke="#000" stroke-width=".13">
  <path id="path644" d="m388.16 244.64 0.061 0.335h0.181v-1.351h-0.912v0.306h0.562v0.022l-0.043 0.331-0.115 0.245-0.177 0.155-0.22 0.051-0.245-0.065-0.19-0.195-0.123-0.32-0.043-0.44 0.039-0.436 0.123-0.32 0.194-0.195 0.263-0.068 0.181 0.036 0.147 0.101 0.108 0.169 0.062 0.227h0.356l-0.093-0.346-0.177-0.259-0.249-0.159-0.313-0.057-0.411 0.09-0.309 0.263-0.199 0.414-0.068 0.551 0.068 0.555 0.199 0.414 0.291 0.263 0.368 0.087 0.205-0.029 0.184-0.072 0.158-0.126 0.137-0.177z" fill="#000" fill-rule="evenodd" stroke="none"/>
 </g>
 <g id="g646" fill="none" stroke="#000" stroke-width=".13">
  <path id="path648" d="m398.92 245.57v0.252h2.168v-0.252h-2.168z" fill="#000" fill-rule="evenodd" stroke="none"/>
 </g>
 <g id="g650" fill="none" stroke="#000" stroke-width=".13">
  <path id="path652" d="m386.66 238.31h0.335v-1.174h1.002v1.174h0.331v-2.5h-0.331v1.02h-1.002v-1.02h-0.335v2.5z" fill="#000" fill-rule="evenodd" stroke="none"/>
 </g>
 <g id="g654" fill="none" stroke="#000" stroke-width=".13">
  <path id="path656" d="m398.92 238.91v0.253h2.168v-0.253h-2.168z" fill="#000" fill-rule="evenodd" stroke="none"/>
 </g>
 <g id="g658" fill="none" stroke="#000" stroke-width=".13">
  <path id="path660" d="m387.33 231.34h-0.461v0.303h1.254v-0.303h-0.461v-1.895h0.461v-0.302h-1.254v0.302h0.461v1.895z" fill="#000" fill-rule="evenodd" stroke="none"/>
 </g>
 <g id="g662" fill="none" stroke="#000" stroke-width=".13">
  <path id="path664" d="m398.92 232.24v0.252h2.168v-0.252h-2.168z" fill="#000" fill-rule="evenodd" stroke="none"/>
 </g>
 <g id="g670" fill="none" stroke="#000" stroke-width=".13">
  <path id="path672" d="m225.64 266.3h0.663l0.526-1.47h1.996l0.526 1.47h0.677l-1.83-5.008h-0.735l-1.823 5.008zm1.42-2.082 0.77-2.205 0.771 2.205h-1.541zm3.292 0.511v0.051l0.115 0.691 0.339 0.519 0.533 0.331 0.706 0.123 0.749-0.123 0.562-0.317 0.361-0.504 0.129-0.648-0.057-0.425-0.159-0.346-0.259-0.267-0.346-0.194 0.468-0.389 0.166-0.62-0.108-0.562-0.31-0.425-0.504-0.267-0.692-0.093-0.648 0.115-0.497 0.317-0.325 0.504-0.108 0.67v0.051h0.641l0.058-0.461 0.187-0.332 0.303-0.201 0.425-0.073 0.375 0.058 0.274 0.151 0.165 0.245 0.065 0.332-0.065 0.353-0.173 0.238-0.302 0.144-0.411 0.043-0.281-7e-3v0.569l0.353-0.015 0.454 0.065 0.339 0.173 0.201 0.281 0.072 0.368-0.079 0.417-0.209 0.31-0.331 0.195-0.44 0.065-0.454-0.072-0.331-0.217-0.209-0.345-0.079-0.476h-0.663z" fill="#000" fill-rule="evenodd" stroke="none"/>
 </g>
 <!-- DrawingContent -->
 <g id="layer1" transform="matrix(.21138 0 0 .21138 371.09 256.76)">
  <g id="g3813" transform="matrix(.85064 0 0 .85064 187.83 -.196)" fill="none" stroke="#000" stroke-width="1.91">
   <path id="rect3663" d="m-216.14 7.2708v55.5h12.375v-21.719h8.75v-8.5625h-8.75v-9.2419h21.555v-15.946l-33.93-0.03125z"/>
   <path id="path3659" d="m-161.05 23.812-7.1983 4.1299-3.1787-1.1031-3.0327-7.7507-4.7707 0.2507-2.176 8.0147-3.0455 1.4584-7.5959-3.3228-3.2083 3.5652 4.1299 7.1983-1.1286 3.1694-7.7507 3.0327 0.27618 4.78 8.0147 2.176 1.4584 3.0455-3.3483 7.5866 3.5652 3.2083 7.1982-4.1299 3.1949 1.1379 3.0073 7.7414 4.8054-0.26688 2.1505-8.024 3.0455-1.4584 7.6121 3.3576 3.2083-3.5652-4.1299-7.1983 1.1124-3.2042 7.7414-3.0073-0.24138-4.7961-8.024-2.1505-1.4584-3.0455 3.3321-7.6214zm-10.781 11.804 1.4776 0.85736 1.2802 1.1607 1.0249 1.3852 0.73729 1.5401 0.43349 1.6602 0.0718 1.7015-0.24575 1.701-0.56084 1.6148-0.89215 1.4938-1.1259 1.264-1.3852 1.0249-1.5401 0.73729-1.6602 0.43348-1.7108 0.09731-1.701-0.24573-1.6148-0.56085-1.4938-0.89215-1.2548-1.1514-1.0342-1.3597-0.73731-1.5401-0.42417-1.6857-0.0973-1.7108 0.24573-1.701 0.56086-1.6148 0.88284-1.4684 1.1353-1.2895 1.3852-1.0249 1.5401-0.73729 1.6857-0.42417 1.7015-0.07182 1.701 0.24573 1.6148 0.56085z"/>
  </g>
 </g>
 <g id="titleblock-text-editable" font-family="osifont" font-size="4px">
  <!-- transform="translate(0,4)"> -->
  <text id="text183" x="220.9935" y="232.95425" style="line-height:0%" freecad:editable="AuthorName"><tspan id="tspan181">AUTHOR NAME</tspan></text>
  <text id="text187" x="220.78677" y="240.50475" style="line-height:0%" freecad:editable="CreationDate"><tspan id="tspan185">CREATION DATE</tspan></text>
  <text id="text191" x="220.74191" y="247.9375" style="line-height:0%" freecad:editable="SupervisorName"><tspan id="tspan189">SUPERVISOR NAME</tspan></text>
  <text id="text195" x="220.69022" y="255.35406" style="line-height:0%" freecad:editable="CheckDate"><tspan id="tspan193">CHECK DATE</tspan></text>
  <text id="text199" x="220.65581" y="278.57715" style="line-height:0%" freecad:editable="FC-Scale"><tspan id="tspan197">SCALE</tspan></text>
  <text id="text203" x="240.50963" y="278.57715" style="line-height:0%" freecad:editable="Weight"><tspan id="tspan201">WEIGHT</tspan></text>
  <text id="text207" x="266.50964" y="278.57715" style="line-height:0%" freecad:editable="DrawingNumber"><tspan id="tspan205">NUMBER</tspan></text>
  <text id="tspan3333-6-6-3-8-7" x="366.50964" y="278.57715" style="line-height:0%" freecad:editable="SheetNumber"><tspan id="tspan209">SHEET</tspan></text>
  <text id="text214" x="270.19635" y="241.26292" font-size="8px" style="line-height:0%" freecad:editable="FC-Title"><tspan id="tspan212">TITLE</tspan></text>
  <text id="tspan3333-5-6" x="270.19635" y="247.26292" style="line-height:0%" freecad:editable="Subtitle"><tspan id="tspan216">SUBTITLE</tspan></text>
 </g>
</svg>
