<?xml version="1.0" encoding="UTF-8" standalone="no"?>

<svg
   width="297mm"
   height="210mm"
   viewBox="0 0 297 210"
   version="1.1"
   id="svg1"
   xmlns="http://www.w3.org/2000/svg"
   xmlns:svg="http://www.w3.org/2000/svg"
   xmlns:rdf="http://www.w3.org/1999/02/22-rdf-syntax-ns#"
   xmlns:cc="http://creativecommons.org/ns#"
   xmlns:dc="http://purl.org/dc/elements/1.1/"
   xmlns:freecad="https://www.freecadweb.org/wiki/index.php?title=Svg_Namespace">
  <title id="title1">Drawing sheet ISO 5457 - A4T</title>
  <metadata id="metadata1">
    <rdf:RDF>
      <cc:License rdf:about="http://creativecommons.org/publicdomain/zero/1.0/">
        <cc:permits rdf:resource="http://creativecommons.org/ns#Reproduction" />
        <cc:permits rdf:resource="http://creativecommons.org/ns#Distribution" />
        <cc:permits rdf:resource="http://creativecommons.org/ns#DerivativeWorks" />
      </cc:License>
      <cc:Work rdf:about="">
        <cc:license rdf:resource="http://creativecommons.org/publicdomain/zero/1.0/" />
        <dc:title>Drawing sheet ISO 5457 - A4T</dc:title>
      </cc:Work>
    </rdf:RDF>
  </metadata>
  <rect id="Drawing space frame" x="20" y="10" width="267" height="190" style="fill:none;stroke:#000000;stroke-width:0.7;stroke-linecap:round;stroke-linejoin:round" />
  <g id="Centring marks" style="fill:none;stroke:#000000;stroke-width:0.7;stroke-linecap:round">
    <path id="Top"    d="m 148.5,5 v 10" />
    <path id="Right"  d="m 292,105 h -10" />
    <path id="Bottom" d="m 148.5,205 v -10" />
    <path id="Left"   d="m 15,105 h 10" />
  </g>
  <g id="Grid reference system">
    <g id="Grid reference borders" style="fill:none;stroke:#000000;stroke-width:0.35;stroke-linecap:round;stroke-linejoin:round">
      <rect id="Grid reference border" x="15" y="5" width="277" height="200" />
      <path id="path18" d="m 198.5,5 v 5" />
      <path id="path19" d="m 248.5,5 v 5" />
      <path id="path20" d="m 48.5,5 v 5" />
      <path id="path21" d="m 98.5,5 v 5" />
      <path id="path23" d="m 287,55 h 5" />
      <path id="path25" d="m 287,155 h 5" />
      <path id="path26" d="m 15,55 h 5" />
      <path id="path27" d="m 15,155 h 5" />
      <path id="path28" d="m 198.5,200 v 5" />
      <path id="path29" d="m 248.5,200 v 5" />
      <path id="path30" d="m 48.5,200 v 5" />
      <path id="path31" d="m 98.5,200 v 5" />
    </g>
    <g id="Grid reference markers" style="font-size:3.5px;font-family:osifont;text-align:center;text-anchor:middle;fill:#000000;stroke:none">
      <text id="upper_marker_1" x="23.5" y="8.8">1</text>
      <text id="upper_marker_2" x="73.5" y="8.8">2</text>
      <text id="upper_marker_3" x="123.5" y="8.8">3</text>
      <text id="upper_marker_4" x="173.5" y="8.8">4</text>
      <text id="upper_marker_5" x="223.5" y="8.8">5</text>
      <text id="upper_marker_6" x="273.5" y="8.8">6</text>
      <text id="right_marker_1" x="289.5" y="31.3">A</text>
      <text id="right_marker_2" x="289.5" y="81.3">B</text>
      <text id="right_marker_3" x="289.5" y="131.3">C</text>
      <text id="right_marker_4" x="289.5" y="181.3">D</text>
      <text id="lower_marker_6" x="273.5" y="203.8">A4</text>
    </g>
  </g>
  <g id="Trimming marks" style="fill:#000000;stroke:none">
    <path id="Top left"     d="m 0,0 h 10 v 5 h -5 v 5 h -5 z" />
    <path id="Top right"    d="m 297,0 h -10 v 5 h 5 v 5 h 5 z" />
    <path id="Bottom right" d="m 297,210 h -10 v -5 h 5 v -5 h 5 z" />
    <path id="Bottom left"  d="m 0,210 h 10 v -5 h -5 v -5 h -5 z" />
  </g>
<!-- Title block -->
  <g id="Borders" style="fill:none;stroke:#000000;stroke-width:0.35;stroke-linecap:round;stroke-linejoin:round">
    <rect id="Frame" x="107" y="152" width="180" height="48" style="stroke-width:0.7"/>
    <rect id="Owner border" x="247" y="152" width="40" height="24"/>
    <rect id="Identification number border" x="187" y="176" width="60" height="12"/>
    <rect id="Revision index border" x="247" y="188" width="20" height="12"/>
    <rect id="Date of issue border" x="207" y="188" width="40" height="12"/>
    <rect id="Sheet number border" x="267" y="188" width="20" height="12"/>
    <rect id="Title border" x="107" y="152" width="80" height="24"/>
    <rect id="Responsible department border" x="247" y="176" width="40" height="12"/>
    <rect id="Approval person border" x="187" y="164" width="60" height="12"/>
    <rect id="Document type border" x="107" y="176" width="80" height="12"/>
    <rect id="Creator border" x="187" y="152" width="60" height="12"/>
    <rect id="Document status border" x="107" y="188" width="80" height="12"/>
    <rect id="Paper size border" x="187" y="188" width="20" height="12"/>
  </g>
  <g id="Labels" style="font-size:3.5px;font-family:osifont;text-anchor:start;fill:#000000;stroke:none">
    <text id="Owner label" x="247.5" y="155.6">Owner:</text>
    <text id="Identification number label" x="187.5" y="179.6">Drawing number:</text>
    <text id="Revision index label" x="247.5" y="191.6">Revision:</text>
    <text id="Date of issue label" x="207.5" y="191.6">Issue date:</text>
    <text id="Sheet number label" x="267.5" y="191.6">Sheet:</text>
    <text id="Title label" x="107.5" y="155.6">Title, supplementary title:</text>
    <text id="Responsible department label" x="247.5" y="179.6">Responsible department:</text>
    <text id="Approval person label" x="187.5" y="167.6">Approved by:</text>
    <text id="Document type label" x="107.5" y="179.6">Document type:</text>
    <text id="Creator label" x="187.5" y="155.6">Created by:</text>
    <text id="Document status label" x="107.5" y="191.6">Document status:</text>
    <text id="Paper size label" x="187.5" y="191.6">Paper size:</text>
    <text id="Sheet scale label" x="227.5" y="143.6">Scale:</text>
    <text id="General tolerances label" x="187.5" y="143.6">General tolerances:</text>
    <text id="Part material label" x="107.5" y="143.6">Part Material:</text>
  </g>
  <g id="Data fields" style="font-size:5px;font-family:osifont;text-anchor:start;fill:#000000;stroke:none">
    <text id="owner_1_data_field" x="267" y="161.1" freecad:editable="owner_1" style="font-size:3.5px;text-align:center;text-anchor:middle"><tspan> </tspan></text>
    <text id="owner_2_data_field" x="267" y="165.1" freecad:editable="owner_2" style="font-size:3.5px;text-align:center;text-anchor:middle"><tspan> </tspan></text>
    <text id="owner_3_data_field" x="267" y="169.1" freecad:editable="owner_3" style="font-size:3.5px;text-align:center;text-anchor:middle"><tspan> </tspan></text>
    <text id="owner_4_data_field" x="267" y="173.1" freecad:editable="owner_4" style="font-size:3.5px;text-align:center;text-anchor:middle"><tspan> </tspan></text>
    <text id="Identification number data field" x="188" y="185.2" freecad:editable="drawing_number"><tspan>DN</tspan></text>
    <text id="Revision index data field" x="257" y="197.2" freecad:editable="revision_index" style="text-align:center;text-anchor:middle"><tspan>AAA</tspan></text>
    <text id="Date of issue data field" x="208" y="197.2" freecad:editable="issue_date"><tspan>YYYY-MM-DD</tspan></text>
    <text id="Sheet number data field" x="277" y="197.2" freecad:editable="sheet_number" style="text-align:center;text-anchor:middle"><tspan>X / Y</tspan></text>
    <text id="Title data field" x="108" y="161.2" freecad:editable="title"><tspan>ISO 7200 titleblock</tspan></text>
    <text id="Supplementary title 1 data field" x="108" y="167.2" freecad:editable="supplementary_title_1"><tspan>ST1</tspan></text>
    <text id="Supplementary title 2 data field" x="108" y="173.2" freecad:editable="supplementary_title_2"><tspan>ST2</tspan></text>
    <text id="Responsible department data field" x="248" y="185.2" freecad:editable="responsible_department"><tspan>RD</tspan></text>
    <text id="Approval person data field" x="188" y="173.2" freecad:editable="approved_by"><tspan>B. Hecate</tspan></text>
    <text id="Document type data field" x="108" y="185.2" freecad:editable="document_type"><tspan>Assembly Drawing</tspan></text>
    <text id="Creator data field" x="188" y="161.2" freecad:editable="created_by"><tspan>A. Nemesis</tspan></text>
    <text id="Document status data field" x="108" y="197.2" freecad:editable="document_status"><tspan>In preparation</tspan></text>
    <text id="Paper size data field" x="197" y="197.2" style="text-align:center;text-anchor:middle">A4</text>
    <text id="Sheet scale data field" x="237" y="149.2" style="text-align:center;text-anchor:middle" freecad:editable="page_scale"><tspan>1 : 1</tspan></text>
    <text id="General tolerances data field" x="188" y="149.2" freecad:editable="general_tolerances"><tspan>ISO 2768-m</tspan></text>
    <text id="Part material data field" x="108" y="149.2" freecad:editable="general_notes"><tspan>Stainless steel Mat.No. 1.4301</tspan></text>
  </g>
  <g id="Outlines" style="fill:none;stroke:#000000;stroke-width:0.5;stroke-linecap:round;stroke-linejoin:round">
    <path id="Trapezoid" d="m 266,135 -10,2.5 v 5 l 10,2.5 z"/>
    <circle id="Inner circle" cx="273" r="2.5" cy="140"/>
    <circle id="Outer circle" cx="273" r="5" cy="140"/>
  </g>
  <g id="Centre lines" style="fill:none;stroke:#000000;stroke-width:0.25;stroke-linecap:round;stroke-linejoin:round;stroke-dasharray:6, 0.75, 0.125, 0.75">
      <path id="Horizontal" d="m 255,140 h 24" style="stroke-dashoffset:0.25"/>
      <path id="Vertical" d="m 273,146 v -12" style="stroke-dashoffset:4.625"/>
  </g>
</svg>
