<?xml version="1.0" encoding="UTF-8"?>
<svg id="svg99" width="297mm" height="210mm" version="1.1" viewBox="0 0 297 210" xmlns="http://www.w3.org/2000/svg" xmlns:cc="http://creativecommons.org/ns#" xmlns:dc="http://purl.org/dc/elements/1.1/" xmlns:freecad="http://www.freecad.org/wiki/index.php?title=Svg_Namespace" xmlns:rdf="http://www.w3.org/1999/02/22-rdf-syntax-ns#">
 <metadata id="metadata105">
  <rdf:RDF>
   <cc:Work rdf:about="">
    <dc:format>image/svg+xml</dc:format>
    <dc:type rdf:resource="http://purl.org/dc/dcmitype/StillImage"/>
   </cc:Work>
  </rdf:RDF>
 </metadata>
 <!-- Working space 10 10 287 200 -->
 <!-- Title block 107 162 287 200 -->
 <g id="g48">
  <rect id="drawing-border" x="10" y="20" width="277" height="180" fill="none" stroke="#000" stroke-linecap="miter" stroke-width=".35"/>
  <!-- width-20, height-20 -->
  <g id="g46" transform="translate(87,-65)">
   <!-- A4 Portrait based for other formats width-210, height-297 -->
   <!--        page       rect   translation
                     w    h    rw   rh   tx   ty
              A4-P  210  297  180  277    0    0
              A3-L  420  297  390  277  210    0
              A2-L  594  420  564  400  384  123
              A1-L  841  594  811  574  631  297
              A0-L 1189  841 1159  821  979  544
      -->
   <g id="titleblock-structure" fill="none" stroke="#000" stroke-linecap="miter" stroke-width=".35">
    <rect id="rect3" x="20" y="227" width="180" height="38"/>
    <path id="path5" d="m20 238h180"/>
    <path id="path7" d="m80 227v11"/>
    <path id="path9" d="m140 227v38"/>
    <path id="path11" d="m160 227v11"/>
    <path id="path13" d="m180 227v11"/>
    <path id="path15" d="m140 254h60"/>
    <path id="path17" d="m180 254v11"/>
   </g>
   <g id="titleblock-text-non-editable" font-family="osifont" font-size="3px">
    <text id="text20" x="21" y="230.5">Created by:</text>
    <text id="text22" x="81" y="230.5">Title:</text>
    <text id="text24" x="21" y="241.5">Supplementary information:</text>
    <text id="text26" x="141" y="230.5">Size:</text>
    <text id="text28" x="161" y="230.5">Sheet:</text>
    <text id="text30" x="181" y="230.5">Scale:</text>
    <text id="text32" x="141" y="241.5">Part number:</text>
    <text id="text34" x="141" y="249.5">Drawing no.:</text>
    <text id="text36" x="141" y="257.5">Date:</text>
    <text id="text38" x="181" y="257.5">Revision:</text>
   </g>
   <!-- Set display:none to hide FreeCAD Logo -->
   <g id="freecad-logo" transform="translate(128.5,254)" fill="none" fill-rule="evenodd" stroke="#000" stroke-width=".35">
    <path id="path41" d="m0.1524 0.15254v8.8549h1.9744v-3.4652h1.396v-1.3661h-1.396v-1.4745h3.4391v-2.5441l-5.4135-5e-3z"/>
    <path id="path43" d="m7.7927 3.4504-0.50715-0.176-0.48387-1.2366-0.76115 0.04-0.34718 1.2787-0.4859 0.23269-1.2119-0.53015-0.51188 0.56882 0.65892 1.1485-0.18006 0.50567-1.2366 0.48387 0.044064 0.76263 1.2787 0.34718 0.23269 0.4859-0.53421 1.2104 0.56882 0.51188 1.1485-0.65891 0.50973 0.18155 0.4798 1.2351 0.7667-0.04258 0.34311-1.2802 0.4859-0.23269 1.2145 0.5357 0.51188-0.56882-0.65891-1.1485 0.17748-0.51122 1.2351-0.4798-0.03851-0.76521-1.2802-0.34311-0.23269-0.4859 0.53163-1.216-0.56881-0.51184zm-0.5715 1.2244 0.23576 0.13679 0.20426 0.18519 0.16353 0.22101 0.11763 0.24572 0.06916 0.26489 0.01146 0.27146-0.03921 0.27139-0.08948 0.25764-0.14234 0.23834-0.17964 0.20167-0.22101 0.16353-0.24572 0.11763-0.26489 0.06916-0.27295 0.01553-0.2719-0.04-0.2576-0.089-0.2383-0.143-0.2002-0.183-0.165-0.217-0.1177-0.246-0.0676-0.269-0.0156-0.273 0.039206-0.2714 0.089484-0.25764 0.14085-0.23427 0.18113-0.20574 0.22101-0.16352 0.24572-0.11763 0.26895-0.06768 0.27147-0.01146 0.27139 0.03921 0.25764 0.08948z"/>
   </g>
  </g>
 </g>
 <g id="titleblock-text-editable" font-family="osifont" font-size="5px">
  <text id="text52" x="108" y="171" freecad:editable="AUTHOR_NAME"><tspan id="tspan50">AUTHOR NAME</tspan></text>
  <text id="text56" x="168" y="171" freecad:editable="DRAWING_TITLE"><tspan id="tspan54">DRAWING TITLE</tspan></text>
  <text id="text60" x="108" y="182" freecad:editable="SI-1"><tspan id="tspan58"/></text>
  <text id="text64" x="108" y="189" freecad:editable="FreeCAD_DRAWING"><tspan id="tspan62">FreeCAD DRAWING</tspan></text>
  <text id="text68" x="108" y="196" freecad:editable="SI-3"><tspan id="tspan66"/></text>
  <text id="text72" x="233" y="171" freecad:editable="FC-SI"><tspan id="tspan70">A4</tspan></text>
  <text id="text76" x="251" y="171" freecad:editable="FC-SH"><tspan id="tspan74">X / Y</tspan></text>
  <text id="text80" x="271" y="171" freecad:editable="FC-SC"><tspan id="tspan78">SCALE</tspan></text>
  <text id="text84" x="231" y="181" freecad:editable="PN"><tspan id="tspan82">PN</tspan></text>
  <text id="text88" x="231" y="189" freecad:editable="DN"><tspan id="tspan86">DN</tspan></text>
  <text id="text92" x="231" y="197" freecad:editable="FC-DATE"><tspan id="tspan90">DD/MM/YYYY</tspan></text>
  <text id="text96" x="269" y="197" freecad:editable="FC-REV"><tspan id="tspan94">REV A</tspan></text>
 </g>
 <!-- DrawingContent -->
</svg>
