<?xml version="1.0" encoding="UTF-8" standalone="no"?>

<svg
   width="210mm"
   height="297mm"
   viewBox="0 0 210 297"
   version="1.1"
   id="svg1"
   xmlns="http://www.w3.org/2000/svg"
   xmlns:svg="http://www.w3.org/2000/svg"
   xmlns:rdf="http://www.w3.org/1999/02/22-rdf-syntax-ns#"
   xmlns:cc="http://creativecommons.org/ns#"
   xmlns:dc="http://purl.org/dc/elements/1.1/"
   xmlns:freecad="https://www.freecadweb.org/wiki/index.php?title=Svg_Namespace">
  <title id="title1">Drawing sheet ISO 5457 - A4T</title>
  <metadata id="metadata1">
    <rdf:RDF>
      <cc:Work rdf:about="">
        <dc:title>Drawing sheet ISO 5457 - A4T</dc:title>
        <cc:license rdf:resource="http://creativecommons.org/publicdomain/zero/1.0/" />
      </cc:Work>
      <cc:License rdf:about="http://creativecommons.org/publicdomain/zero/1.0/">
        <cc:permits rdf:resource="http://creativecommons.org/ns#Reproduction" />
        <cc:permits rdf:resource="http://creativecommons.org/ns#Distribution" />
        <cc:permits rdf:resource="http://creativecommons.org/ns#DerivativeWorks" />
      </cc:License>
    </rdf:RDF>
  </metadata>
  <rect id="Drawing space frame" x="20" y="10" width="180" height="277" style="fill:none;stroke:#000000;stroke-width:0.7;stroke-linecap:round;stroke-linejoin:round" />
  <g id="Centring marks" style="fill:none;stroke:#000000;stroke-width:0.7;stroke-linecap:round">
    <path id="Top"    d="m 105,5 v 10" />
    <path id="Right"  d="m 205,148.5 h -10" />
    <path id="Bottom" d="m 105,292 v -10" />
    <path id="Left"   d="m 15,148.5 h 10" />
  </g>
  <g id="Grid reference system">
    <g id="Grid reference borders" style="fill:none;stroke:#000000;stroke-width:0.35;stroke-linecap:round;stroke-linejoin:round">
      <rect id="Grid reference border" x="15" y="5" width="190" height="287" />
      <path id="path46" d="m 15,98.5 h 5" />
      <path id="path47" d="m 15,48.5 h 5" />
      <path id="path49" d="m 15,198.5 h 5" />
      <path id="path50" d="m 15,248.5 h 5" />
      <path id="path53" d="m 200,98.5 h 5" />
      <path id="path54" d="m 200,48.5 h 5" />
      <path id="path55" d="m 200,198.5 h 5" />
      <path id="path56" d="m 200,248.5 h 5" />
      <path id="path31" d="m 155,5 v 5" />
      <path id="path35" d="m 55,5 v 5" />
      <path id="path38" d="m 155,287 v 5" />
      <path id="path42" d="m 55,287 v 5" />
    </g>
    <g id="Grid reference markers" style="font-size:3.5px;font-family:osifont;text-align:center;text-anchor:middle;fill:#000000;stroke:none">
      <text id="upper_marker_1" x="30" y="8.8">1</text>
      <text id="upper_marker_2" x="80" y="8.8">2</text>
      <text id="upper_marker_3" x="130" y="8.8">3</text>
      <text id="upper_marker_4" x="180" y="8.8">4</text>
      <text id="right_marker_1" x="202.5" y="24.8">A</text>
      <text id="right_marker_2" x="202.5" y="74.8">B</text>
      <text id="right_marker_3" x="202.5" y="124.8">C</text>
      <text id="right_marker_4" x="202.5" y="174.8">D</text>
      <text id="right_marker_5" x="202.5" y="224.8">E</text>
      <text id="right_marker_6" x="202.5" y="274.8">F</text>
      <text id="lower_marker_4" x="180" y="290.8">A4</text>
    </g>
  </g>
  <g id="Trimming marks" style="fill:#000000;stroke:none">
    <path id="Top left"     d="m 0,0 h 10 v 5 h -5 v 5 h -5 z" />
    <path id="Top right"    d="m 210,0 h -10 v 5 h 5 v 5 h 5 z" />
    <path id="Bottom right" d="m 210,297 h -10 v -5 h 5 v -5 h 5 z" />
    <path id="Bottom left"  d="m 0,297 h 10 v -5 h -5 v -5 h -5 z" />
  </g>
<!-- Title block -->
  <g id="Borders" style="fill:none;stroke:#000000;stroke-width:0.35;stroke-linecap:round;stroke-linejoin:round">
    <rect id="Frame" x="20" y="239" width="180" height="48" style="stroke-width:0.7"/>
    <rect id="Owner border" x="160" y="239" width="40" height="24"/>
    <rect id="Identification number border" x="100" y="263" width="60" height="12"/>
    <rect id="Revision index border" x="160" y="275" width="20" height="12"/>
    <rect id="Date of issue border" x="120" y="275" width="40" height="12"/>
    <rect id="Sheet number border" x="180" y="275" width="20" height="12"/>
    <rect id="Title border" x="20" y="239" width="80" height="24"/>
    <rect id="Responsible department border" x="160" y="263" width="40" height="12"/>
    <rect id="Approval person border" x="100" y="251" width="60" height="12"/>
    <rect id="Document type border" x="20" y="263" width="80" height="12"/>
    <rect id="Creator border" x="100" y="239" width="60" height="12"/>
    <rect id="Document status border" x="20" y="275" width="80" height="12"/>
    <rect id="Paper size border" x="100" y="275" width="20" height="12"/>
  </g>
  <g id="Labels" style="font-size:3.5px;font-family:osifont;text-anchor:start;fill:#000000;stroke:none">
    <text id="Owner label" x="160.5" y="242.6">Owner:</text>
    <text id="Identification number label" x="100.5" y="266.6">Drawing number:</text>
    <text id="Revision index label" x="160.5" y="278.6">Revision:</text>
    <text id="Date of issue label" x="120.5" y="278.6">Issue date:</text>
    <text id="Sheet number label" x="180.5" y="278.6">Sheet:</text>
    <text id="Title label" x="20.5" y="242.6">Title, supplementary title:</text>
    <text id="Responsible department label" x="160.5" y="266.6">Responsible department:</text>
    <text id="Approval person label" x="100.5" y="254.6">Approved by:</text>
    <text id="Document type label" x="20.5" y="266.6">Document type:</text>
    <text id="Creator label" x="100.5" y="242.6">Created by:</text>
    <text id="Document status label" x="20.5" y="278.6">Document status:</text>
    <text id="Paper size label" x="100.5" y="278.6">Paper size:</text>
    <text id="Sheet scale label" x="140.5" y="230.6">Scale:</text>
    <text id="General tolerances label" x="100.5" y="230.6">General tolerances:</text>
    <text id="Part material label" x="20.5" y="230.6">Part Material:</text>
  </g>
  <g id="Data fields" style="font-size:5px;font-family:osifont;text-anchor:start;fill:#000000;stroke:none">
    <text id="owner_1_data_field" x="180" y="248.1" freecad:editable="owner_1" style="font-size:3.5px;text-align:center;text-anchor:middle"><tspan> </tspan></text>
    <text id="owner_2_data_field" x="180" y="252.1" freecad:editable="owner_2" style="font-size:3.5px;text-align:center;text-anchor:middle"><tspan> </tspan></text>
    <text id="owner_3_data_field" x="180" y="256.1" freecad:editable="owner_3" style="font-size:3.5px;text-align:center;text-anchor:middle"><tspan> </tspan></text>
    <text id="owner_4_data_field" x="180" y="260.1" freecad:editable="owner_4" style="font-size:3.5px;text-align:center;text-anchor:middle"><tspan> </tspan></text>
    <text id="Identification number data field" x="101" y="272.2" freecad:editable="drawing_number"><tspan>DN</tspan></text>
    <text id="Revision index data field" x="170" y="284.2" freecad:editable="revision_index" style="text-align:center;text-anchor:middle"><tspan>AAA</tspan></text>
    <text id="Date of issue data field" x="121" y="284.2" freecad:editable="issue_date"><tspan>YYYY-MM-DD</tspan></text>
    <text id="Sheet number data field" x="190" y="284.2" freecad:editable="sheet_number" style="text-align:center;text-anchor:middle"><tspan>X / Y</tspan></text>
    <text id="Title data field" x="21" y="248.2" freecad:editable="title"><tspan>ISO 7200 titleblock</tspan></text>
    <text id="Supplementary title 1 data field" x="21" y="254.2" freecad:editable="supplementary_title_1"><tspan>ST1</tspan></text>
    <text id="Supplementary title 2 data field" x="21" y="260.2" freecad:editable="supplementary_title_2"><tspan>ST2</tspan></text>
    <text id="Responsible department data field" x="161" y="272.2" freecad:editable="responsible_department"><tspan>RD</tspan></text>
    <text id="Approval person data field" x="101" y="260.2" freecad:editable="approved_by"><tspan>B. Hecate</tspan></text>
    <text id="Document type data field" x="21" y="272.2" freecad:editable="document_type"><tspan>Assembly Drawing</tspan></text>
    <text id="Creator data field" x="101" y="248.2" freecad:editable="created_by"><tspan>A. Nemesis</tspan></text>
    <text id="Document status data field" x="21" y="284.2" freecad:editable="document_status"><tspan>In preparation</tspan></text>
    <text id="Paper size data field" x="110" y="284.2" style="text-align:center;text-anchor:middle">A4</text>
    <text id="Sheet scale data field" x="150" y="236.2" style="text-align:center;text-anchor:middle" freecad:editable="page_scale"><tspan>1 : 1</tspan></text>
    <text id="General tolerances data field" x="101" y="236.2" freecad:editable="general_tolerances"><tspan>ISO 2768-m</tspan></text>
    <text id="Part material data field" x="21" y="236.2" freecad:editable="general_notes"><tspan>Stainless steel Mat.No. 1.4301</tspan></text>
  </g>
  <g id="Outlines" style="fill:none;stroke:#000000;stroke-width:0.5;stroke-linecap:round;stroke-linejoin:round">
    <path id="Trapezoid" d="m 179,222 -10,2.5 v 5 l 10,2.5 z"/>
    <circle id="Inner circle" cx="186" r="2.5" cy="227"/>
    <circle id="Outer circle" cx="186" r="5" cy="227"/>
  </g>
  <g id="Centre lines" style="fill:none;stroke:#000000;stroke-width:0.25;stroke-linecap:round;stroke-linejoin:round;stroke-dasharray:6, 0.75, 0.125, 0.75">
      <path id="Horizontal" d="m 168,227 h 24" style="stroke-dashoffset:0.25"/>
      <path id="Vertical" d="m 186,233 v -12" style="stroke-dashoffset:4.625"/>
  </g>
</svg>
