<?xml version="1.0" encoding="UTF-8" standalone="no"?>
<!-- Created with Inkscape (http://www.inkscape.org/) -->

<svg width="64px" height="64px" id="svg2726" version="1.1" xmlns:xlink="http://www.w3.org/1999/xlink" xmlns="http://www.w3.org/2000/svg" xmlns:svg="http://www.w3.org/2000/svg" xmlns:rdf="http://www.w3.org/1999/02/22-rdf-syntax-ns#" xmlns:cc="http://creativecommons.org/ns#" xmlns:dc="http://purl.org/dc/elements/1.1/">
  <defs id="defs2728">
    <marker orient="auto" refY="0.0" refX="0.0" id="Arrow2Lend" style="overflow:visible">
      <path id="path3837" style="font-size:12;fill-rule:evenodd;stroke-width:0.625;stroke-linejoin:round" d="M 8.7185878,4.0337352 L -2.2072895,0.016013256 L 8.7185884,-4.0017078 C 6.9730900,-1.6296469 6.9831476,1.6157441 8.7185878,4.0337352 z " transform="scale(1.1) rotate(180) translate(1,0)" />
    </marker>
    <linearGradient xlink:href="#linearGradient3836-0-6" id="linearGradient3801-1-3" gradientUnits="userSpaceOnUse" x1="-18" y1="18" x2="-22" y2="5" gradientTransform="matrix(0.76342439,0,0,0.75750425,-4.596389,2.7525637)" />
    <linearGradient id="linearGradient3836-0-6">
      <stop style="stop-color:#a40000;stop-opacity:1" offset="0" id="stop3838-2-7" />
      <stop style="stop-color:#ef2929;stop-opacity:1" offset="1" id="stop3840-5-5" />
    </linearGradient>
    <linearGradient id="linearGradient3836-0-6-6">
      <stop style="stop-color:#a40000;stop-opacity:1" offset="0" id="stop3838-2-7-7" />
      <stop style="stop-color:#ef2929;stop-opacity:1" offset="1" id="stop3840-5-5-5" />
    </linearGradient>
    <linearGradient id="linearGradient3836-0-6-7">
      <stop style="stop-color:#a40000;stop-opacity:1" offset="0" id="stop3838-2-7-5" />
      <stop style="stop-color:#ef2929;stop-opacity:1" offset="1" id="stop3840-5-5-3" />
    </linearGradient>
    <linearGradient id="linearGradient3836-0-6-2">
      <stop style="stop-color:#a40000;stop-opacity:1" offset="0" id="stop3838-2-7-70" />
      <stop style="stop-color:#ef2929;stop-opacity:1" offset="1" id="stop3840-5-5-9" />
    </linearGradient>
    <linearGradient id="linearGradient3836-0-6-7-7">
      <stop style="stop-color:#a40000;stop-opacity:1" offset="0" id="stop3838-2-7-5-9" />
      <stop style="stop-color:#ef2929;stop-opacity:1" offset="1" id="stop3840-5-5-3-2" />
    </linearGradient>
    <linearGradient id="linearGradient3836-0-6-7-9">
      <stop style="stop-color:#a40000;stop-opacity:1" offset="0" id="stop3838-2-7-5-2" />
      <stop style="stop-color:#ef2929;stop-opacity:1" offset="1" id="stop3840-5-5-3-28" />
    </linearGradient>
    <linearGradient xlink:href="#linearGradient3836-0-6-9" id="linearGradient3801-1-3-2" gradientUnits="userSpaceOnUse" x1="-18" y1="18" x2="-22" y2="5" gradientTransform="matrix(0.84956703,0,0,0.84301394,-2.927337,1.7790378)" />
    <linearGradient id="linearGradient3836-0-6-9">
      <stop style="stop-color:#a40000;stop-opacity:1" offset="0" id="stop3838-2-7-3" />
      <stop style="stop-color:#ef2929;stop-opacity:1" offset="1" id="stop3840-5-5-1" />
    </linearGradient>
    <linearGradient id="linearGradient3836-0-6-5">
      <stop style="stop-color:#a40000;stop-opacity:1" offset="0" id="stop3838-2-7-0" />
      <stop style="stop-color:#ef2929;stop-opacity:1" offset="1" id="stop3840-5-5-36" />
    </linearGradient>
    <linearGradient id="linearGradient3836-0-6-61">
      <stop style="stop-color:#a40000;stop-opacity:1" offset="0" id="stop3838-2-7-55" />
      <stop style="stop-color:#ef2929;stop-opacity:1" offset="1" id="stop3840-5-5-4" />
    </linearGradient>
    <linearGradient id="linearGradient3836-0-6-3">
      <stop style="stop-color:#a40000;stop-opacity:1" offset="0" id="stop3838-2-7-74" />
      <stop style="stop-color:#ef2929;stop-opacity:1" offset="1" id="stop3840-5-5-52" />
    </linearGradient>
    <linearGradient xlink:href="#linearGradient3836-0-6-9-7" id="linearGradient3801-1-3-2-0" gradientUnits="userSpaceOnUse" x1="-18" y1="18" x2="-22" y2="5" gradientTransform="matrix(0.84956703,0,0,0.84301394,-2.927337,1.7790378)" />
    <linearGradient id="linearGradient3836-0-6-9-7">
      <stop style="stop-color:#a40000;stop-opacity:1" offset="0" id="stop3838-2-7-3-8" />
      <stop style="stop-color:#ef2929;stop-opacity:1" offset="1" id="stop3840-5-5-1-6" />
    </linearGradient>
    <linearGradient xlink:href="#linearGradient3836-0-6-92" id="linearGradient3801-1-3-14" gradientUnits="userSpaceOnUse" x1="-18" y1="18" x2="-22" y2="5" gradientTransform="matrix(0.76342439,0,0,0.75750425,-4.596389,2.7525637)" />
    <linearGradient id="linearGradient3836-0-6-92">
      <stop style="stop-color:#a40000;stop-opacity:1" offset="0" id="stop3838-2-7-06" />
      <stop style="stop-color:#ef2929;stop-opacity:1" offset="1" id="stop3840-5-5-8" />
    </linearGradient>
    <linearGradient xlink:href="#linearGradient3836-0-6-92-4" id="linearGradient3801-1-3-14-0" gradientUnits="userSpaceOnUse" x1="-18" y1="18" x2="-22" y2="5" gradientTransform="matrix(0.76342439,0,0,0.75750425,-4.596389,2.7525637)" />
    <linearGradient id="linearGradient3836-0-6-92-4">
      <stop style="stop-color:#a40000;stop-opacity:1" offset="0" id="stop3838-2-7-06-8" />
      <stop style="stop-color:#ef2929;stop-opacity:1" offset="1" id="stop3840-5-5-8-7" />
    </linearGradient>
    <linearGradient xlink:href="#linearGradient3836-0-6-92-2" id="linearGradient3801-1-3-14-2" gradientUnits="userSpaceOnUse" x1="-18" y1="18" x2="-22" y2="5" gradientTransform="matrix(0.76342439,0,0,0.75750425,-4.596389,2.7525637)" />
    <linearGradient id="linearGradient3836-0-6-92-2">
      <stop style="stop-color:#a40000;stop-opacity:1" offset="0" id="stop3838-2-7-06-6" />
      <stop style="stop-color:#ef2929;stop-opacity:1" offset="1" id="stop3840-5-5-8-1" />
    </linearGradient>
  </defs>
  <metadata id="metadata2731">
    <rdf:RDF>
      <cc:Work rdf:about="">
        <dc:format>image/svg+xml</dc:format>
        <dc:type rdf:resource="http://purl.org/dc/dcmitype/StillImage" />
        <dc:creator>
          <cc:Agent>
            <dc:title>[wmayer]</dc:title>
          </cc:Agent>
        </dc:creator>
        <dc:date>2011-10-10</dc:date>
        <dc:relation>http://www.freecad.org/wiki/index.php?title=Artwork</dc:relation>
        <dc:publisher>
          <cc:Agent>
            <dc:title>FreeCAD</dc:title>
          </cc:Agent>
        </dc:publisher>
        <dc:identifier>FreeCAD/src/Mod/Sketcher/Gui/Resources/icons/Sketcher_Alter</dc:identifier>
        <dc:rights>
          <cc:Agent>
            <dc:title>FreeCAD LGPL2+</dc:title>
          </cc:Agent>
        </dc:rights>
        <cc:license>https://www.gnu.org/copyleft/lesser.html</cc:license>
        <dc:contributor>
          <cc:Agent>
            <dc:title>[agryson] Alexander Gryson</dc:title>
          </cc:Agent>
        </dc:contributor>
      </cc:Work>
    </rdf:RDF>
  </metadata>
  <g id="layer1">
    <g id="g3401" transform="matrix(0.0544775,-0.0359434,0.02142365,0.09139929,29.04045,-32.878566)">
      <path style="fill:#d3d7cf;stroke:#2e3436;stroke-width:26.37695312;stroke-linecap:butt;stroke-linejoin:miter;stroke-opacity:1" d="m 104.82037,809.42022 83.25743,-13.6772 -248.6155,-321.25493 -83.25742,13.67719 z" id="path3061-3" />
      <path style="fill:none;stroke:#ffffff;stroke-width:26.37695312;stroke-linecap:butt;stroke-linejoin:miter;stroke-opacity:1" d="M 124.75712,754.34163 -77.06462,493.55268" id="path3063-6" />
      <path style="fill:#d3d7cf;stroke:#2e3436;stroke-width:26.37695312;stroke-linecap:butt;stroke-linejoin:miter;stroke-opacity:1" d="m -534.00119,558.20193 -51.6384,-66.72587 400.84702,-65.84956 51.6383,66.72587 z" id="path3061" />
      <path style="fill:none;stroke:#ffffff;stroke-width:26.37695312;stroke-linecap:butt;stroke-linejoin:miter;stroke-opacity:1" d="m -511.07947,504.29716 325.4004,-53.45537" id="path3063" />
      <g transform="matrix(8.9245851,3.5096547,-2.1082516,5.3610043,-588.47306,200.34875)" id="g3827-1-3">
        <g transform="translate(31.322131,40.570289)" id="g3797-9-5">
          <path style="fill:#ef2929;stroke:#280000;stroke-width:3.54880524;stroke-miterlimit:4;stroke-opacity:1;stroke-dasharray:none" id="path4250-71-6" d="M -26.118221,5.6643347 A 8.9379793,8.8680774 0 1 1 -12.540634,17.200906 8.9379793,8.8680774 0 1 1 -26.118221,5.6643347 z" />
          <path style="fill:url(#linearGradient3801-1-3);fill-opacity:1;stroke:#ef2929;stroke-width:3.54880428;stroke-miterlimit:4;stroke-opacity:1;stroke-dasharray:none" id="path4250-7-3-2" d="m -23.40227,7.9744858 a 5.3439706,5.3025298 0 1 1 8.11794,6.8981452 5.3439706,5.3025298 0 0 1 -8.11794,-6.8981452 z" />
        </g>
      </g>
      <g transform="matrix(10.692662,4.2049633,-2.5259361,6.4231205,-113.06345,49.783413)" id="g3827-1-3-9">
        <g transform="translate(31.322131,40.570289)" id="g3797-9-5-4">
          <path style="fill:#ef2929;stroke:#280000;stroke-width:2.96198821;stroke-miterlimit:4;stroke-opacity:1;stroke-dasharray:none" id="path4250-71-6-7" d="M -26.118221,5.6643347 A 8.9379793,8.8680774 0 1 1 -12.540634,17.200906 8.9379793,8.8680774 0 1 1 -26.118221,5.6643347 z" />
          <path style="fill:url(#linearGradient3801-1-3-2);fill-opacity:1;stroke:#ef2929;stroke-width:2.96198726;stroke-miterlimit:4;stroke-opacity:1;stroke-dasharray:none" id="path4250-7-3-2-8" d="m -23.855221,7.5904285 a 5.9469691,5.9010977 0 1 1 9.033946,7.6768315 5.9469691,5.9010977 0 0 1 -9.033946,-7.6768315 z" />
        </g>
      </g>
      <g transform="matrix(10.692662,4.2049633,-2.5259361,6.4231204,-262.11704,428.80723)" id="g3827-1-3-9-8">
        <g transform="translate(31.322131,40.570289)" id="g3797-9-5-4-8">
          <path style="fill:#ef2929;stroke:#280000;stroke-width:2.96198821;stroke-miterlimit:4;stroke-opacity:1;stroke-dasharray:none" id="path4250-71-6-7-4" d="M -26.118221,5.6643347 A 8.9379793,8.8680774 0 1 1 -12.540634,17.200906 8.9379793,8.8680774 0 1 1 -26.118221,5.6643347 z" />
          <path style="fill:url(#linearGradient3801-1-3-2-0);fill-opacity:1;stroke:#ef2929;stroke-width:2.96198726;stroke-miterlimit:4;stroke-opacity:1;stroke-dasharray:none" id="path4250-7-3-2-8-3" d="m -23.855221,7.5904285 a 5.9469691,5.9010977 0 1 1 9.033946,7.6768315 5.9469691,5.9010977 0 0 1 -9.033946,-7.6768315 z" />
        </g>
      </g>
      <g transform="matrix(8.9245851,3.5096547,-2.1082517,5.3610043,174.29666,500.02902)" id="g3827-1-3-92">
        <g transform="translate(31.322131,40.570289)" id="g3797-9-5-66">
          <path style="fill:#ef2929;stroke:#280000;stroke-width:3.54880524;stroke-miterlimit:4;stroke-opacity:1;stroke-dasharray:none" id="path4250-71-6-49" d="M -26.118221,5.6643347 A 8.9379793,8.8680774 0 1 1 -12.540634,17.200906 8.9379793,8.8680774 0 1 1 -26.118221,5.6643347 z" />
          <path style="fill:url(#linearGradient3801-1-3-14);fill-opacity:1;stroke:#ef2929;stroke-width:3.54880428;stroke-miterlimit:4;stroke-opacity:1;stroke-dasharray:none" id="path4250-7-3-2-5" d="m -23.40227,7.9744858 a 5.3439706,5.3025298 0 1 1 8.11794,6.8981452 5.3439706,5.3025298 0 0 1 -8.11794,-6.8981452 z" />
        </g>
      </g>
      <g id="g3523" transform="matrix(0.96303858,-0.01453533,-0.01453533,0.99428388,14.253648,-38.158671)">
        <path id="path3347" d="m -464.5106,538.94735 c 173.77747,7.74279 377.963123,88.04019 535.987387,210.78068" style="fill:none;stroke:#2e3436;stroke-width:107.83394623;stroke-linecap:butt;stroke-linejoin:miter;stroke-miterlimit:0;stroke-opacity:1;stroke-dasharray:none" />
        <path id="path3347-3" d="m -464.51065,538.94727 c 173.77749,7.74283 377.96312,88.04017 535.987421,210.78076" style="fill:none;stroke:#d3d7cf;stroke-width:53.91697311;stroke-linecap:butt;stroke-linejoin:miter;stroke-opacity:1" />
        <path id="path3347-3-9" d="m -461.01114,530.22413 c 173.7775,7.74283 377.963119,88.04017 535.987427,210.78076" style="fill:none;stroke:#ffffff;stroke-width:26.95848656;stroke-linecap:butt;stroke-linejoin:miter;stroke-opacity:1" />
      </g>
      <g transform="matrix(8.9245851,3.5096547,-2.1082517,5.3610043,45.131207,361.70579)" id="g3827-1-3-92-1">
        <g transform="translate(31.322131,40.570289)" id="g3797-9-5-66-7">
          <path style="fill:#ef2929;stroke:#280000;stroke-width:3.54880524;stroke-miterlimit:4;stroke-opacity:1;stroke-dasharray:none" id="path4250-71-6-49-2" d="M -26.118221,5.6643347 A 8.9379793,8.8680774 0 1 1 -12.540634,17.200906 8.9379793,8.8680774 0 1 1 -26.118221,5.6643347 z" />
          <path style="fill:url(#linearGradient3801-1-3-14-0);fill-opacity:1;stroke:#ef2929;stroke-width:3.54880428;stroke-miterlimit:4;stroke-opacity:1;stroke-dasharray:none" id="path4250-7-3-2-5-7" d="m -23.40227,7.9744858 a 5.3439706,5.3025298 0 1 1 8.11794,6.8981452 5.3439706,5.3025298 0 0 1 -8.11794,-6.8981452 z" />
        </g>
      </g>
      <g transform="matrix(8.9245851,3.5096547,-2.1082517,5.3610043,-400.00216,186.65402)" id="g3827-1-3-92-0">
        <g transform="translate(31.322131,40.570289)" id="g3797-9-5-66-6">
          <path style="fill:#ef2929;stroke:#280000;stroke-width:3.54880524;stroke-miterlimit:4;stroke-opacity:1;stroke-dasharray:none" id="path4250-71-6-49-1" d="M -26.118221,5.6643347 A 8.9379793,8.8680774 0 1 1 -12.540634,17.200906 8.9379793,8.8680774 0 1 1 -26.118221,5.6643347 z" />
          <path style="fill:url(#linearGradient3801-1-3-14-2);fill-opacity:1;stroke:#ef2929;stroke-width:3.54880428;stroke-miterlimit:4;stroke-opacity:1;stroke-dasharray:none" id="path4250-7-3-2-5-5" d="m -23.40227,7.9744858 a 5.3439706,5.3025298 0 1 1 8.11794,6.8981452 5.3439706,5.3025298 0 0 1 -8.11794,-6.8981452 z" />
        </g>
      </g>
    </g>
  </g>
</svg>
