<?xml version="1.0" encoding="UTF-8" standalone="no"?>
<!-- Created with Inkscape (http://www.inkscape.org/) -->

<svg
   width="64"
   height="64"
   id="svg2869"
   version="1.1"
   viewBox="0 0 64 64"
   xmlns:xlink="http://www.w3.org/1999/xlink"
   xmlns="http://www.w3.org/2000/svg"
   xmlns:svg="http://www.w3.org/2000/svg"
   xmlns:rdf="http://www.w3.org/1999/02/22-rdf-syntax-ns#"
   xmlns:cc="http://creativecommons.org/ns#"
   xmlns:dc="http://purl.org/dc/elements/1.1/">
  <defs
     id="defs2871">
    <linearGradient
       id="linearGradient5">
      <stop
         style="stop-color:#ef2929;stop-opacity:1;"
         offset="0"
         id="stop19" />
      <stop
         style="stop-color:#ef2929;stop-opacity:0;"
         offset="1"
         id="stop20" />
    </linearGradient>
    <linearGradient
       id="swatch18">
      <stop
         style="stop-color:#ef2929;stop-opacity:1;"
         offset="0"
         id="stop18" />
    </linearGradient>
    <linearGradient
       id="swatch15">
      <stop
         style="stop-color:#3d0000;stop-opacity:1;"
         offset="0"
         id="stop15" />
    </linearGradient>
    <linearGradient
       id="linearGradient5-1">
      <stop
         style="stop-color:#ef2929;stop-opacity:1;"
         offset="0"
         id="stop5" />
      <stop
         style="stop-color:#ef2929;stop-opacity:0;"
         offset="1"
         id="stop6" />
    </linearGradient>
    <linearGradient
       id="linearGradient3836-9">
      <stop
         style="stop-color:#a40000;stop-opacity:1"
         offset="0"
         id="stop3838-8" />
      <stop
         style="stop-color:#ef2929;stop-opacity:1"
         offset="1"
         id="stop3840-1" />
    </linearGradient>
    <linearGradient
       id="linearGradient3836-9-3">
      <stop
         style="stop-color:#a40000;stop-opacity:1"
         offset="0"
         id="stop3838-8-5" />
      <stop
         style="stop-color:#ef2929;stop-opacity:1"
         offset="1"
         id="stop3840-1-6" />
    </linearGradient>
    <linearGradient
       y2="5"
       x2="-22"
       y1="18"
       x1="-18"
       gradientUnits="userSpaceOnUse"
       id="linearGradient3082"
       xlink:href="#linearGradient3836-9-3" />
    <linearGradient
       id="linearGradient3836-9-7">
      <stop
         style="stop-color:#a40000;stop-opacity:1"
         offset="0"
         id="stop3838-8-0" />
      <stop
         style="stop-color:#ef2929;stop-opacity:1"
         offset="1"
         id="stop3840-1-9" />
    </linearGradient>
    <linearGradient
       y2="5"
       x2="-22"
       y1="18"
       x1="-18"
       gradientUnits="userSpaceOnUse"
       id="linearGradient3082-3"
       xlink:href="#linearGradient3836-9-7" />
    <linearGradient
       xlink:href="#linearGradient3836-9-3"
       id="linearGradient3801-1-3"
       gradientUnits="userSpaceOnUse"
       x1="-18"
       y1="18"
       x2="-22"
       y2="5"
       gradientTransform="matrix(0.76342439,0,0,0.75750425,-4.596389,2.7525637)" />
    <linearGradient
       xlink:href="#linearGradient3836-9-3"
       id="linearGradient3801-1-3-2"
       gradientUnits="userSpaceOnUse"
       x1="-18"
       y1="18"
       x2="-22"
       y2="5"
       gradientTransform="matrix(0.84956703,0,0,0.84301394,-2.927337,1.7790378)" />
    <linearGradient
       xlink:href="#linearGradient3836-9-3"
       id="linearGradient17"
       gradientUnits="userSpaceOnUse"
       gradientTransform="matrix(0.82607043,0,0,0.82533448,-4.0098079,1.346708)"
       x1="-18"
       y1="18"
       x2="-22"
       y2="5" />
    <linearGradient
       xlink:href="#linearGradient3836-9-3"
       id="linearGradient19"
       gradientUnits="userSpaceOnUse"
       gradientTransform="matrix(0.82607043,0,0,0.82533448,-4.0098079,1.346708)"
       x1="-18"
       y1="18"
       x2="-22"
       y2="5" />
    <linearGradient
       xlink:href="#linearGradient3836-9-3"
       id="linearGradient27"
       gradientUnits="userSpaceOnUse"
       gradientTransform="matrix(0.82607043,0,0,0.82533448,-4.0098079,1.346708)"
       x1="-18"
       y1="18"
       x2="-22"
       y2="5" />
    <linearGradient
       xlink:href="#linearGradient3836-9-3"
       id="linearGradient30"
       gradientUnits="userSpaceOnUse"
       gradientTransform="matrix(0.82607043,0,0,0.82533448,-4.0098079,1.346708)"
       x1="-18"
       y1="18"
       x2="-22"
       y2="5" />
    <linearGradient
       xlink:href="#linearGradient3836-9-3"
       id="linearGradient32"
       gradientUnits="userSpaceOnUse"
       gradientTransform="matrix(0.82607043,0,0,0.82533448,-4.0098079,1.346708)"
       x1="-18"
       y1="18"
       x2="-22"
       y2="5" />
    <linearGradient
       xlink:href="#linearGradient3836-9-3"
       id="linearGradient34"
       gradientUnits="userSpaceOnUse"
       gradientTransform="matrix(0.82607043,0,0,0.82533448,-4.0098079,1.346708)"
       x1="-18"
       y1="18"
       x2="-22"
       y2="5" />
  </defs>
  <metadata
     id="metadata2874">
    <rdf:RDF>
      <cc:Work
         rdf:about="">
        <dc:format>image/svg+xml</dc:format>
        <dc:type
           rdf:resource="http://purl.org/dc/dcmitype/StillImage" />
        <dc:creator>
          <cc:Agent>
            <dc:title>[maxwxyz]</dc:title>
          </cc:Agent>
        </dc:creator>
        <dc:relation>https://www.freecad.org/wiki/index.php?title=Artwork</dc:relation>
        <dc:publisher>
          <cc:Agent>
            <dc:title>FreeCAD</dc:title>
          </cc:Agent>
        </dc:publisher>
        <dc:identifier>FreeCAD/src/Mod/Sketcher/Gui/Resources/icons/Sketcher_CreateArc.svg</dc:identifier>
        <dc:rights>
          <cc:Agent>
            <dc:title>FreeCAD LGPL2+</dc:title>
          </cc:Agent>
        </dc:rights>
        <dc:date>2023-12-19</dc:date>
      </cc:Work>
    </rdf:RDF>
  </metadata>
  <g
     id="layer3"
     style="display:inline">
    <g
       id="g2"
       style="display:inline"
       transform="translate(54,-15)">
      <path
         style="fill:none;stroke:#151819;stroke-width:8;stroke-linecap:round;stroke-linejoin:round;stroke-dasharray:none;stroke-opacity:1;paint-order:markers fill stroke"
         d="M -44.480527,59.478741 -21.99793,26.480364"
         id="path1-0" />
      <path
         style="display:inline;fill:none;stroke:#d3d7cf;stroke-width:4;stroke-linecap:round;stroke-linejoin:round;stroke-dasharray:none;paint-order:markers fill stroke"
         d="M -44.480527,59.478741 -21.99793,26.480364"
         id="path1-7-9" />
      <path
         style="display:inline;fill:none;stroke:#ededed;stroke-width:2;stroke-linecap:round;stroke-linejoin:round;stroke-dasharray:none;stroke-opacity:1;paint-order:markers fill stroke"
         d="M -44.480527,58.478741 -21.99793,25.480364"
         id="path1-7-0-9" />
    </g>
    <g
       id="g25"
       style="display:inline"
       transform="matrix(-1,0,0,1,11.946121,-14.000776)">
      <path
         style="fill:none;stroke:#151819;stroke-width:8;stroke-linecap:round;stroke-linejoin:round;stroke-dasharray:none;stroke-opacity:1;paint-order:markers fill stroke"
         d="M -42.536459,58.478741 -21.99793,26.480364"
         id="path23" />
      <path
         style="display:inline;fill:none;stroke:#d3d7cf;stroke-width:4;stroke-linecap:round;stroke-linejoin:round;stroke-dasharray:none;paint-order:markers fill stroke"
         d="M -42.536459,58.478741 -21.99793,26.480364"
         id="path24" />
      <path
         style="display:inline;fill:none;stroke:#ededed;stroke-width:2;stroke-linecap:round;stroke-linejoin:round;stroke-dasharray:none;stroke-opacity:1;paint-order:markers fill stroke"
         d="M -42.536459,57.478741 -21.99793,25.480364"
         id="path25" />
    </g>
    <g
       id="g29"
       transform="matrix(1.0434784,0,0,0.97302431,-1.3913128,1.4836632)"
       style="stroke-width:0.992422">
      <path
         id="path28"
         style="display:inline;fill:none;stroke:#151819;stroke-width:7.93942;stroke-linecap:round;stroke-linejoin:round;paint-order:markers fill stroke"
         d="m 18.583339,32.537846 c 0,-6.116701 6.006846,-11.075266 13.416665,-11.075266 7.409819,0 13.416665,4.958565 13.416665,11.075266" />
      <path
         id="ellipse28"
         style="display:inline;fill:none;stroke:#d3d7cf;stroke-width:3.96968;stroke-linecap:round;stroke-linejoin:round;paint-order:markers fill stroke"
         d="m 18.583339,32.537846 c 0,-6.116701 6.006846,-11.075266 13.416665,-11.075266 7.409819,0 13.416665,4.958565 13.416665,11.075266" />
      <path
         id="ellipse29"
         style="display:inline;fill:none;stroke:#eeeeec;stroke-width:1.98484;stroke-linecap:round;stroke-linejoin:round;paint-order:markers fill stroke"
         d="m 17.973492,32.349118 c 0,-6.220933 6.279883,-11.263995 14.026512,-11.263995 7.746628,0 14.026512,5.043062 14.026512,11.263995" />
    </g>
    <g
       transform="matrix(0.77869459,0,0,0.77869445,47.548264,43.960488)"
       id="g3797-9-5-5-3"
       style="stroke-width:1.2842">
      <path
         style="fill:none;stroke:#2e0000;stroke-width:2.56841;stroke-miterlimit:4;stroke-dasharray:none;stroke-opacity:1"
         id="path4250-71-6-6-9"
         d="M -26.310778,5.3580033 A 8.3519646,8.3515832 0.02039876 1 1 -13.623399,16.222662 8.3519646,8.3515832 0.02039876 1 1 -26.310778,5.3580033 Z" />
      <path
         style="fill:url(#linearGradient17);fill-opacity:1;stroke:#ef2929;stroke-width:2.56842;stroke-miterlimit:4;stroke-dasharray:none;stroke-opacity:1"
         id="path4250-7-3-2-2-2"
         d="m -24.358888,7.0362241 a 5.782493,5.7773415 0 1 1 8.784093,7.5158349 5.782493,5.7773415 0 0 1 -8.784093,-7.5158349 z" />
    </g>
    <g
       transform="matrix(0.77869459,0,0,0.77869445,47.548264,1.0772156)"
       id="g19"
       style="stroke-width:1.2842">
      <path
         style="fill:none;stroke:#2e0000;stroke-width:2.56841;stroke-miterlimit:4;stroke-dasharray:none;stroke-opacity:1"
         id="path17"
         d="M -26.310778,5.3580033 A 8.3519646,8.3515832 0.02039876 1 1 -13.623399,16.222662 8.3519646,8.3515832 0.02039876 1 1 -26.310778,5.3580033 Z" />
      <path
         style="fill:url(#linearGradient19);fill-opacity:1;stroke:#ef2929;stroke-width:2.56842;stroke-miterlimit:4;stroke-dasharray:none;stroke-opacity:1"
         id="path18"
         d="m -24.358888,7.0362241 a 5.782493,5.7773415 0 1 1 8.784093,7.5158349 5.782493,5.7773415 0 0 1 -8.784093,-7.5158349 z" />
    </g>
    <g
       transform="matrix(0.77869459,0,0,0.77869445,70.030844,36.075593)"
       id="g27"
       style="stroke-width:1.2842">
      <path
         style="fill:none;stroke:#2e0000;stroke-width:2.56841;stroke-miterlimit:4;stroke-dasharray:none;stroke-opacity:1"
         id="path26"
         d="M -26.310778,5.3580033 A 8.3519646,8.3515832 0.02039876 1 1 -13.623399,16.222662 8.3519646,8.3515832 0.02039876 1 1 -26.310778,5.3580033 Z" />
      <path
         style="fill:url(#linearGradient27);fill-opacity:1;stroke:#ef2929;stroke-width:2.56842;stroke-miterlimit:4;stroke-dasharray:none;stroke-opacity:1"
         id="path27"
         d="m -24.358888,7.0362241 a 5.782493,5.7773415 0 1 1 8.784093,7.5158349 5.782493,5.7773415 0 0 1 -8.784093,-7.5158349 z" />
    </g>
    <g
       transform="matrix(0.77869459,0,0,0.77869445,25.065667,36.075593)"
       id="g30"
       style="stroke-width:1.2842">
      <path
         style="fill:none;stroke:#2e0000;stroke-width:2.56841;stroke-miterlimit:4;stroke-dasharray:none;stroke-opacity:1"
         id="path29"
         d="M -26.310778,5.3580033 A 8.3519646,8.3515832 0.02039876 1 1 -13.623399,16.222662 8.3519646,8.3515832 0.02039876 1 1 -26.310778,5.3580033 Z" />
      <path
         style="fill:url(#linearGradient30);fill-opacity:1;stroke:#ef2929;stroke-width:2.56842;stroke-miterlimit:4;stroke-dasharray:none;stroke-opacity:1"
         id="path30"
         d="m -24.358888,7.0362241 a 5.782493,5.7773415 0 1 1 8.784093,7.5158349 5.782493,5.7773415 0 0 1 -8.784093,-7.5158349 z" />
    </g>
    <g
       transform="matrix(0.77869459,0,0,0.77869445,60.915445,23.596852)"
       id="g32"
       style="stroke-width:1.2842">
      <path
         style="fill:none;stroke:#2e0000;stroke-width:2.56841;stroke-miterlimit:4;stroke-dasharray:none;stroke-opacity:1"
         id="path31"
         d="M -26.310778,5.3580033 A 8.3519646,8.3515832 0.02039876 1 1 -13.623399,16.222662 8.3519646,8.3515832 0.02039876 1 1 -26.310778,5.3580033 Z" />
      <path
         style="fill:url(#linearGradient32);fill-opacity:1;stroke:#ef2929;stroke-width:2.56842;stroke-miterlimit:4;stroke-dasharray:none;stroke-opacity:1"
         id="path32"
         d="m -24.358888,7.0362241 a 5.782493,5.7773415 0 1 1 8.784093,7.5158349 5.782493,5.7773415 0 0 1 -8.784093,-7.5158349 z" />
    </g>
    <g
       transform="matrix(0.77869459,0,0,0.77869445,34.181082,23.596852)"
       id="g34"
       style="stroke-width:1.2842">
      <path
         style="fill:none;stroke:#2e0000;stroke-width:2.56841;stroke-miterlimit:4;stroke-dasharray:none;stroke-opacity:1"
         id="path33"
         d="M -26.310778,5.3580033 A 8.3519646,8.3515832 0.02039876 1 1 -13.623399,16.222662 8.3519646,8.3515832 0.02039876 1 1 -26.310778,5.3580033 Z" />
      <path
         style="fill:url(#linearGradient34);fill-opacity:1;stroke:#ef2929;stroke-width:2.56842;stroke-miterlimit:4;stroke-dasharray:none;stroke-opacity:1"
         id="path34"
         d="m -24.358888,7.0362241 a 5.782493,5.7773415 0 1 1 8.784093,7.5158349 5.782493,5.7773415 0 0 1 -8.784093,-7.5158349 z" />
    </g>
  </g>
</svg>
