<?xml version="1.0" encoding="UTF-8" standalone="no"?>
<!-- Created with Inkscape (http://www.inkscape.org/) -->

<svg width="64" height="64" id="svg4564" version="1.1" xmlns:xlink="http://www.w3.org/1999/xlink" xmlns="http://www.w3.org/2000/svg" xmlns:svg="http://www.w3.org/2000/svg" xmlns:rdf="http://www.w3.org/1999/02/22-rdf-syntax-ns#" xmlns:cc="http://creativecommons.org/ns#" xmlns:dc="http://purl.org/dc/elements/1.1/">
  <defs id="defs4566">
    <linearGradient id="linearGradient3838">
      <stop style="stop-color:#3465a4;stop-opacity:1" offset="0" id="stop3840" />
      <stop style="stop-color:#729fcf;stop-opacity:1" offset="1" id="stop3842" />
    </linearGradient>
    <linearGradient id="linearGradient3830">
      <stop style="stop-color:#729fcf;stop-opacity:1" offset="0" id="stop3832" />
      <stop style="stop-color:#3465a4;stop-opacity:1" offset="1" id="stop3834" />
    </linearGradient>
    <radialGradient xlink:href="#linearGradient3144-3" id="radialGradient4572" gradientUnits="userSpaceOnUse" gradientTransform="matrix(1,0,0,0.6985294,0,202.82863)" cx="225.26402" cy="672.79736" fx="225.26402" fy="672.79736" r="34.345188" />
    <linearGradient id="linearGradient3144-3">
      <stop style="stop-color:#ffffff;stop-opacity:1" offset="0" id="stop3146-7" />
      <stop style="stop-color:#ffffff;stop-opacity:0" offset="1" id="stop3148-0" />
    </linearGradient>
    <radialGradient xlink:href="#linearGradient3144-0" id="radialGradient4574" gradientUnits="userSpaceOnUse" gradientTransform="matrix(1,0,0,0.6985294,0,202.82863)" cx="225.26402" cy="672.79736" fx="225.26402" fy="672.79736" r="34.345188" />
    <linearGradient id="linearGradient3144-0">
      <stop style="stop-color:#ffffff;stop-opacity:1" offset="0" id="stop3146-2" />
      <stop style="stop-color:#ffffff;stop-opacity:0" offset="1" id="stop3148-9" />
    </linearGradient>
    <linearGradient xlink:href="#linearGradient3830" id="linearGradient3836" x1="36" y1="1037.3622" x2="32" y2="1005.3622" gradientUnits="userSpaceOnUse" />
    <linearGradient xlink:href="#linearGradient3838" id="linearGradient3844" x1="36" y1="1039.3622" x2="32" y2="1003.3622" gradientUnits="userSpaceOnUse" />
    <radialGradient xlink:href="#linearGradient3144-3" id="radialGradient3846" gradientUnits="userSpaceOnUse" gradientTransform="matrix(1,0,0,0.6985294,0,202.82863)" cx="225.26402" cy="672.79736" fx="225.26402" fy="672.79736" r="34.345188" />
    <radialGradient xlink:href="#linearGradient3144-0" id="radialGradient3848" gradientUnits="userSpaceOnUse" gradientTransform="matrix(1,0,0,0.6985294,0,202.82863)" cx="225.26402" cy="672.79736" fx="225.26402" fy="672.79736" r="34.345188" />
    <linearGradient xlink:href="#linearGradient3836-0-6-4" id="linearGradient3801-1-3-7" gradientUnits="userSpaceOnUse" x1="-18" y1="18" x2="-22" y2="5" />
    <linearGradient id="linearGradient3836-0-6-4">
      <stop style="stop-color:#a40000;stop-opacity:1" offset="0" id="stop3838-2-7-0" />
      <stop style="stop-color:#ef2929;stop-opacity:1" offset="1" id="stop3840-5-5-9" />
    </linearGradient>
    <linearGradient xlink:href="#linearGradient3836-0-6" id="linearGradient3801-1-3" gradientUnits="userSpaceOnUse" x1="-18" y1="18" x2="-22" y2="5" />
    <linearGradient id="linearGradient3836-0-6">
      <stop style="stop-color:#a40000;stop-opacity:1" offset="0" id="stop3838-2-7" />
      <stop style="stop-color:#ef2929;stop-opacity:1" offset="1" id="stop3840-5-5" />
    </linearGradient>
    <linearGradient xlink:href="#linearGradient3836-0-6-4" id="linearGradient3801-1-3-5" gradientUnits="userSpaceOnUse" x1="-18" y1="18" x2="-22" y2="5" />
  </defs>
  <metadata id="metadata4569">
    <rdf:RDF>
      <cc:Work rdf:about="">
        <dc:format>image/svg+xml</dc:format>
        <dc:type rdf:resource="http://purl.org/dc/dcmitype/StillImage" />
        <dc:creator>
          <cc:Agent>
            <dc:title>[Abdullah Tahiri]</dc:title>
          </cc:Agent>
        </dc:creator>
        <dc:date>2015-05-24</dc:date>
        <dc:relation>http://www.freecad.org/wiki/index.php?title=Artwork</dc:relation>
        <dc:publisher>
          <cc:Agent>
            <dc:title>FreeCAD</dc:title>
          </cc:Agent>
        </dc:publisher>
        <dc:identifier>FreeCAD/src/Mod/Sketcher/Gui/Resources/icons/Sketcher_CreateSlot_Constr.svg</dc:identifier>
        <dc:rights>
          <cc:Agent>
            <dc:title>FreeCAD LGPL2+</dc:title>
          </cc:Agent>
        </dc:rights>
        <cc:license>https://www.gnu.org/copyleft/lesser.html</cc:license>
        <dc:contributor>
          <cc:Agent>
            <dc:title>[agryson] Alexander Gryson</dc:title>
          </cc:Agent>
        </dc:contributor>
      </cc:Work>
    </rdf:RDF>
  </metadata>
  <g id="layer1" transform="translate(0,-988.36218)">
    <path transform="matrix(0.84999999,0,0,0.85,5.1500002,995.01218)" style="fill:none;stroke:#0b1521;stroke-width:9.4117651;stroke-linecap:round;stroke-linejoin:miter;stroke-miterlimit:1.89999998;stroke-opacity:1" d="m 42.176471,11 c 11.045695,0 20,8.954305 20,20 0,11.045695 -8.954305,20 -20,20 m 0,-40 L 21,11 C 9.954305,11 1,19.954305 1,31 1,42.045695 9.954305,51 21,51 l 21.176471,0" id="path3016" />
    <path style="fill:none;stroke:#3465a4;stroke-width:4;stroke-linecap:round;stroke-linejoin:miter;stroke-miterlimit:1.89999998;stroke-opacity:1" d="m 41,1004.3622 c 9.388841,0 17,7.6111 17,17 0,9.3888 -7.611159,17 -17,17 m 0,-34 -18,0 c -9.388841,0 -17,7.6111 -17,17 0,9.3888 7.611159,17 17,17 l 18,0" id="path3016-3" />
    <path style="fill:none;stroke:url(#linearGradient3844);stroke-width:2;stroke-linecap:round;stroke-linejoin:miter;stroke-miterlimit:1.89999998;stroke-opacity:1" d="m 41.346154,1003.3622 c 9.749951,0 17.653847,8.0588 17.653847,17.9999 0,9.9411 -7.903896,18 -17.653847,18 m 0,-35.9999 -18.692307,0 c -9.749951,0 -17.6538467,8.0588 -17.6538467,17.9999 0,9.9411 7.9038957,18 17.6538467,18 l 18.692307,0" id="path3016-3-6" />
    <path style="fill:none;stroke:url(#linearGradient3836);stroke-width:2;stroke-linecap:round;stroke-linejoin:miter;stroke-miterlimit:1.89999998;stroke-opacity:1" d="m 40.653846,1005.3622 c 9.027732,0 16.346154,7.1634 16.346154,16 0,8.8365 -7.318422,16 -16.346154,16 m 0,-32 -17.307692,0 c -9.027732,0 -16.346154,7.1634 -16.346154,16 0,8.8365 7.318422,16 16.346154,16 l 17.307692,0" id="path3016-3-7" />
    <g transform="matrix(0.77869499,0,0,0.77869524,34.657885,980.86793)" id="g3827-1-3" style="stroke-width:1.2842">
      <g transform="translate(31.322131,40.570289)" id="g3797-9-5" style="stroke-width:1.2842">
        <path style="fill:#ef2929;stroke:#280000;stroke-width:2.5684;stroke-miterlimit:4;stroke-dasharray:none;stroke-opacity:1" id="path4250-71-6" d="M -26.156204,5.582626 A 8.993818,8.9934077 0.02042283 1 1 -12.493793,17.282241 A 8.993818,8.9934077 0.02042283 1 1 -26.156204,5.582626 Z" />
        <path style="fill:url(#linearGradient3801-1-3);fill-opacity:1;stroke:#ef2929;stroke-width:2.5684;stroke-miterlimit:4;stroke-dasharray:none;stroke-opacity:1" id="path4250-7-3-2" d="M -24.633588,6.893588 A 6.9999997,7.0000001 0 1 1 -14,16 A 6.9999997,7.0000001 0 0 1 -24.633588,6.893588 Z" />
      </g>
    </g>
    <g transform="matrix(0.77869499,0,0,0.77869524,10.657885,980.86793)" id="g3827-1-3-7" style="stroke-width:1.2842">
      <g transform="translate(31.322131,40.570289)" id="g3797-9-5-6" style="stroke-width:1.2842">
        <path style="fill:#ef2929;stroke:#280000;stroke-width:2.5684;stroke-miterlimit:4;stroke-dasharray:none;stroke-opacity:1" id="path4250-71-6-6" d="M -26.156204,5.582626 A 8.993818,8.9934077 0.02042283 1 1 -12.493793,17.282241 A 8.993818,8.9934077 0.02042283 1 1 -26.156204,5.582626 Z" />
        <path style="fill:url(#linearGradient3801-1-3-5);fill-opacity:1;stroke:#ef2929;stroke-width:2.5684;stroke-miterlimit:4;stroke-dasharray:none;stroke-opacity:1" id="path4250-7-3-2-2" d="M -24.633588,6.893588 A 6.9999997,7.0000001 0 1 1 -14,16 A 6.9999997,7.0000001 0 0 1 -24.633588,6.893588 Z" />
      </g>
    </g>
  </g>
</svg>
