<?xml version="1.0" encoding="UTF-8" standalone="no"?>
<svg width="54px" height="53px" viewBox="0 0 54 53" version="1.1" id="svg40" xmlns="http://www.w3.org/2000/svg" xmlns:svg="http://www.w3.org/2000/svg" xmlns:rdf="http://www.w3.org/1999/02/22-rdf-syntax-ns#" xmlns:cc="http://creativecommons.org/ns#" xmlns:dc="http://purl.org/dc/elements/1.1/">
  <!-- Generator: Sketch 41.2 (35397) - http://www.bohemiancoding.com/sketch -->
  <title id="title2">Sketcher_Extend</title>
  <desc id="desc4">Created with Sketch.</desc>
  <defs id="defs11">
    <linearGradient x1="59.3876761%" y1="96.828678%" x2="30.8167331%" y2="3.97343329%" id="linearGradient-1">
      <stop stop-color="#A40000" offset="0%" id="stop6" />
      <stop stop-color="#EF2929" offset="100%" id="stop8" />
    </linearGradient>
  </defs>
  <g id="Page-1" stroke="none" stroke-width="1" fill="none" fill-rule="evenodd">
    <g id="Sketcher_Extend">
      <g id="Group-4" transform="translate(-1.000000, 1.000000)">
        <g id="Group" transform="translate(19.946071, 33.544946) rotate(-45.000000) translate(-19.946071, -33.544946) translate(7.946071, 29.544946)">
          <path d="M-1.77635684e-14,4 C-1.77635684e-14,1.7891285 1.79418389,-3.55271368e-14 4.00658837,-3.55271368e-14 L19.9669397,-3.55271368e-14 C22.1797369,-3.55271368e-14 23.9735281,1.78314628 23.9735281,4 C23.9735281,6.2108715 22.1793442,8 19.9669397,8 L4.00658837,8 C1.79379116,8 -1.77635684e-14,6.21685372 -1.77635684e-14,4 Z" id="Rectangle" fill="#2E3436" />
          <path d="M2,4 C2,5.11227036 2.89838021,6 4.00658837,6 L19.9669397,6 C21.0765045,6 21.9735281,5.1045695 21.9735281,4 C21.9735281,2.88772964 21.0751478,2 19.9669397,2 L4.00658837,2 C2.89702351,2 2,2.8954305 2,4 Z" id="Path" fill="#FFFFFF" />
          <path d="M21.9735281,4 C21.9735281,5.1045695 21.0765045,6 19.9669397,6 L4.00658837,6 C2.89838021,6 2,5.11227036 2,4 L21.9735281,4 Z" id="Combined-Shape" fill="#D3D7CF" />
        </g>
        <g id="g23" transform="translate(34.949747, 18.242641) rotate(-45.000000) translate(-34.949747, -18.242641) translate(27.949747, 14.242641)">
          <path d="M-1.42108547e-14,4 C-1.42108547e-14,1.7894466 1.78426618,-7.10542736e-14 3.99961498,-7.10542736e-14 L10.000385,-7.10542736e-14 C12.210873,-7.10542736e-14 14,1.78471214 14,4 C14,6.2105534 12.2157338,8 10.000385,8 L3.99961498,8 C1.78912703,8 -1.42108547e-14,6.21528786 -1.42108547e-14,4 Z" id="path17" fill="#2E3436" />
          <path d="M2,4 C2,5.11227036 2.89525812,6 3.99961498,6 L10.000385,6 C11.1125667,6 12,5.1045695 12,4 C12,2.88772964 11.1047419,2 10.000385,2 L3.99961498,2 C2.88743329,2 2,2.8954305 2,4 Z" id="path19" fill="#FFFFFF" />
          <path d="M12,4 C12,5.1045695 11.1125667,6 10.000385,6 L3.99961498,6 C2.89525812,6 2,5.11227036 2,4 L12,4 Z" id="path21" fill="#D3D7CF" />
        </g>
        <g id="Group-3" transform="translate(12.875003, 40.616014) rotate(-45.000000) translate(-12.875003, -40.616014) translate(3.875003, 31.616014)">
          <path d="M2.16606743,3.14767407 C4.25550386,0.705124599 7.48972566,-0.43667377 10.649628,0.152667484 C13.8095303,0.742008738 16.4146703,2.97288409 17.4830689,6.00438924 C18.5514674,9.03589439 17.9206813,12.4071086 15.8284785,14.8472891 C13.7390421,17.2898386 10.5048203,18.431637 7.34491796,17.8422957 C4.18501566,17.2529545 1.57987559,15.0220791 0.511477066,11.990574 C-0.556921458,8.95906881 0.0738646607,5.58785463 2.16606743,3.14767407 Z" id="path4250-71-6" stroke="#280000" stroke-width="1.99999989" />
          <path d="M3.68082796,4.44988005 C5.30708261,2.54877926 7.82430039,1.66010996 10.283661,2.1188402 C12.7430216,2.57757043 14.7706034,4.31395477 15.6021457,6.67349413 C16.4336881,9.0330335 15.942763,11.6569831 14.314416,13.5562921 C11.7991128,16.4901495 7.38216396,16.8306417 4.44692233,14.316954 C1.5116807,11.8032663 1.16875677,7.38650532 3.68082796,4.44988005 L3.68082796,4.44988005 Z" id="path4250-7-3-2" stroke="#EF2929" stroke-width="1.99999953" fill="url(#linearGradient-1)" />
        </g>
        <g id="Group-2" transform="translate(29.000000, 0.192388)">
          <path d="M19.8045387,0.00466912047 C19.7396849,0.00156810219 19.6744268,0 19.6088004,0 L4.0070567,0 C1.79174221,0 0,1.7883754 0,4 C0,6.2169589 1.79410399,8 4.0070567,8 L16,8 L16,19.6088004 C16,21.8241149 17.7883754,23.6158571 20,23.6158571 C22.2169589,23.6158571 24,21.8217531 24,19.6088004 L24,4.0070567 C24,1.79174221 22.2116246,0 20,0 C19.9344553,0 19.8692899,0.00156822029 19.8045387,0.00466912047 Z" id="path28" fill="#2E3436" />
          <path d="M19.8047084,2.0093289 C19.8689245,2.00315745 19.9340678,2 20,2 C21.1045695,2 22,2.89382477 22,4.0070567 L22,19.6088004 C22,20.7172672 21.1122704,21.6158571 20,21.6158571 C18.8954305,21.6158571 18,20.7220324 18,19.6088004 L18,6 L4.0070567,6 C2.89858989,6 2,5.11227036 2,4 C2,2.8954305 2.89382477,2 4.0070567,2 L19.6088004,2 C19.674898,2 19.7402493,2.0031565 19.8047084,2.0093289 Z" id="path30" fill="#FFFFFF" />
          <path d="M30.8079286,10.8079286 C30.8079286,11.9124981 29.9141038,12.8079286 28.8008719,12.8079286 L13.1991281,12.8079286 C12.0906613,12.8079286 11.1920714,11.9201989 11.1920714,10.8079286 L30.8079286,10.8079286 Z" id="path32" fill="#D3D7CF" transform="translate(21.000000, 11.807929) scale(-1, 1) rotate(90.000000) translate(-21.000000, -11.807929) " />
          <path d="M17.9999931,6 L4.00918709,6 C2.8995437,6 2,5.11227036 2,4 L18,4 C17.9999954,4.00235176 17.9999931,4.00470399 17.9999931,4.0070567 L17.9999931,6 Z" id="path34" fill="#D3D7CF" />
        </g>
      </g>
    </g>
  </g>
  <metadata id="metadata859">
    <rdf:RDF>
      <cc:Work rdf:about="">
        <dc:title>Sketcher_Extend</dc:title>
      </cc:Work>
    </rdf:RDF>
  </metadata>
</svg>
