<?xml version="1.0" encoding="UTF-8" standalone="no"?>
<!-- Created with Inkscape (http://www.inkscape.org/) -->

<svg width="64px" height="64px" id="svg2918" version="1.1" xmlns:xlink="http://www.w3.org/1999/xlink" xmlns="http://www.w3.org/2000/svg" xmlns:svg="http://www.w3.org/2000/svg" xmlns:rdf="http://www.w3.org/1999/02/22-rdf-syntax-ns#" xmlns:cc="http://creativecommons.org/ns#" xmlns:dc="http://purl.org/dc/elements/1.1/">
  <defs id="defs2920">
    <linearGradient id="linearGradient3144">
      <stop style="stop-color:#ffffff;stop-opacity:1" offset="0" id="stop3146" />
      <stop style="stop-color:#ffffff;stop-opacity:0" offset="1" id="stop3148" />
    </linearGradient>
    <linearGradient id="linearGradient3144-3">
      <stop style="stop-color:#ffffff;stop-opacity:1" offset="0" id="stop3146-1" />
      <stop style="stop-color:#ffffff;stop-opacity:0" offset="1" id="stop3148-5" />
    </linearGradient>
    <radialGradient xlink:href="#linearGradient3144" id="radialGradient3958" gradientUnits="userSpaceOnUse" gradientTransform="matrix(1,0,0,0.6985294,0,202.82863)" cx="225.26402" cy="672.79736" fx="225.26402" fy="672.79736" r="34.345188" />
    <radialGradient xlink:href="#linearGradient3144-3" id="radialGradient3960" gradientUnits="userSpaceOnUse" gradientTransform="matrix(1,0,0,0.6985294,0,202.82863)" cx="225.26402" cy="672.79736" fx="225.26402" fy="672.79736" r="34.345188" />
    <radialGradient xlink:href="#linearGradient3144-3" id="radialGradient4041" gradientUnits="userSpaceOnUse" gradientTransform="matrix(1,0,0,0.6985294,0,202.82863)" cx="225.26402" cy="672.79736" fx="225.26402" fy="672.79736" r="34.345188" />
    <radialGradient xlink:href="#linearGradient3144" id="radialGradient4043" gradientUnits="userSpaceOnUse" gradientTransform="matrix(1,0,0,0.6985294,0,202.82863)" cx="225.26402" cy="672.79736" fx="225.26402" fy="672.79736" r="34.345188" />
    <radialGradient xlink:href="#linearGradient3144" id="radialGradient3033" gradientUnits="userSpaceOnUse" gradientTransform="matrix(1,0,0,0.6985294,0,202.82863)" cx="225.26402" cy="672.79736" fx="225.26402" fy="672.79736" r="34.345188" />
    <radialGradient xlink:href="#linearGradient3144" id="radialGradient3056" gradientUnits="userSpaceOnUse" gradientTransform="matrix(1,0,0,0.6985294,0,202.82863)" cx="225.26402" cy="672.79736" fx="225.26402" fy="672.79736" r="34.345188" />
    <radialGradient xlink:href="#linearGradient3144" id="radialGradient3068" gradientUnits="userSpaceOnUse" gradientTransform="matrix(1,0,0,0.6985294,0,202.82863)" cx="225.26402" cy="672.79736" fx="225.26402" fy="672.79736" r="34.345188" />
    <radialGradient xlink:href="#linearGradient3144-3" id="radialGradient3855" gradientUnits="userSpaceOnUse" gradientTransform="matrix(1,0,0,0.6985294,0,202.82863)" cx="225.26402" cy="672.79736" fx="225.26402" fy="672.79736" r="34.345188" />
    <radialGradient xlink:href="#linearGradient3144" id="radialGradient3877" gradientUnits="userSpaceOnUse" gradientTransform="matrix(0.91892149,0,0,0.63996913,366.5326,-2218.0799)" cx="225.26402" cy="672.79736" fx="225.26402" fy="672.79736" r="34.345188" />
    <linearGradient y2="5" x2="-22" y1="18" x1="-18" gradientUnits="userSpaceOnUse" id="linearGradient3203" xlink:href="#linearGradient3836-9-3-7-2-7" />
    <linearGradient id="linearGradient3836-9-3-7-2-7">
      <stop style="stop-color:#a40000;stop-opacity:1" offset="0" id="stop3838-8-5-4-4-6" />
      <stop style="stop-color:#ef2929;stop-opacity:1" offset="1" id="stop3840-1-6-0-5-1" />
    </linearGradient>
    <linearGradient xlink:href="#linearGradient3186" id="linearGradient3075" gradientUnits="userSpaceOnUse" x1="-18" y1="18" x2="-22" y2="5" />
    <linearGradient id="linearGradient3186">
      <stop id="stop3188" offset="0" style="stop-color:#4e9a06;stop-opacity:1" />
      <stop id="stop3190" offset="1" style="stop-color:#8ae234;stop-opacity:1" />
    </linearGradient>
    <linearGradient y2="5" x2="-22" y1="18" x1="-18" gradientUnits="userSpaceOnUse" id="linearGradient3292" xlink:href="#linearGradient3186" />
    <linearGradient y2="5" x2="-22" y1="18" x1="-18" gradientUnits="userSpaceOnUse" id="linearGradient3203-1" xlink:href="#linearGradient3836-9-3-7-2-7-7" />
    <linearGradient id="linearGradient3836-9-3-7-2-7-7">
      <stop style="stop-color:#a40000;stop-opacity:1" offset="0" id="stop3838-8-5-4-4-6-4" />
      <stop style="stop-color:#ef2929;stop-opacity:1" offset="1" id="stop3840-1-6-0-5-1-0" />
    </linearGradient>
    <linearGradient y2="5" x2="-22" y1="18" x1="-18" gradientUnits="userSpaceOnUse" id="linearGradient3079" xlink:href="#linearGradient3836-9-3-7-2-7-7" />
    <linearGradient y2="5" x2="-22" y1="18" x1="-18" gradientUnits="userSpaceOnUse" id="linearGradient3292-1" xlink:href="#linearGradient3186-7" />
    <linearGradient id="linearGradient3186-7">
      <stop id="stop3188-4" offset="0" style="stop-color:#4e9a06;stop-opacity:1" />
      <stop id="stop3190-0" offset="1" style="stop-color:#8ae234;stop-opacity:1" />
    </linearGradient>
    <linearGradient y2="5" x2="-22" y1="18" x1="-18" gradientUnits="userSpaceOnUse" id="linearGradient3052" xlink:href="#linearGradient3186-7" />
    <linearGradient y2="5" x2="-22" y1="18" x1="-18" gradientUnits="userSpaceOnUse" id="linearGradient3079-8" xlink:href="#linearGradient3836-9-3-7-2-7-7-2" />
    <linearGradient id="linearGradient3836-9-3-7-2-7-7-2">
      <stop style="stop-color:#a40000;stop-opacity:1" offset="0" id="stop3838-8-5-4-4-6-4-4" />
      <stop style="stop-color:#ef2929;stop-opacity:1" offset="1" id="stop3840-1-6-0-5-1-0-5" />
    </linearGradient>
    <linearGradient y2="5" x2="-22" y1="18" x1="-18" gradientUnits="userSpaceOnUse" id="linearGradient3092" xlink:href="#linearGradient3836-9-3-7-2-7-7-2" />
    <linearGradient y2="5" x2="-22" y1="18" x1="-18" gradientUnits="userSpaceOnUse" id="linearGradient3092-1" xlink:href="#linearGradient3836-9-3-7-2-7-7-2-1" />
    <linearGradient id="linearGradient3836-9-3-7-2-7-7-2-1">
      <stop style="stop-color:#a40000;stop-opacity:1" offset="0" id="stop3838-8-5-4-4-6-4-4-5" />
      <stop style="stop-color:#ef2929;stop-opacity:1" offset="1" id="stop3840-1-6-0-5-1-0-5-2" />
    </linearGradient>
    <linearGradient y2="5" x2="-22" y1="18" x1="-18" gradientUnits="userSpaceOnUse" id="linearGradient3132" xlink:href="#linearGradient3836-9-3-7-2-7-7-2-1" />
  </defs>
  <metadata id="metadata2923">
    <rdf:RDF>
      <cc:Work rdf:about="">
        <dc:format>image/svg+xml</dc:format>
        <dc:type rdf:resource="http://purl.org/dc/dcmitype/StillImage" />
        <dc:creator>
          <cc:Agent>
            <dc:title>[Abdullah Tahiri]</dc:title>
          </cc:Agent>
        </dc:creator>
        <dc:date>2016-09-03</dc:date>
        <dc:relation>http://www.freecad.org/wiki/index.php?title=Artwork</dc:relation>
        <dc:publisher>
          <cc:Agent>
            <dc:title>FreeCAD</dc:title>
          </cc:Agent>
        </dc:publisher>
        <dc:identifier>FreeCAD/src/Mod/Sketcher/Gui/Resources/icons/Sketcher_Hyperbolic_Arc.svg</dc:identifier>
        <dc:rights>
          <cc:Agent>
            <dc:title>FreeCAD LGPL2+</dc:title>
          </cc:Agent>
        </dc:rights>
        <cc:license>https://www.gnu.org/copyleft/lesser.html</cc:license>
        <dc:contributor>
          <cc:Agent>
            <dc:title>[agryson] Alexander Gryson</dc:title>
          </cc:Agent>
        </dc:contributor>
      </cc:Work>
    </rdf:RDF>
  </metadata>
  <g id="layer1">
    <g id="g4470" transform="matrix(0.1460346,0,0,0.1460346,-220.10298,-56.296235)">
      <g transform="matrix(-0.272555,1.070644,-0.62008436,-0.40296707,2229.857,490.31348)" id="g3177" />
      <g transform="matrix(-0.26379798,1.0762112,-0.62386014,-0.38785381,2179.3276,655.76224)" id="g3185" />
      <g id="g3784" transform="matrix(-0.585465,0.71342489,-0.70637362,-0.57712184,2400.1881,948.89093)" />
      <g id="g3857" transform="matrix(0.68313546,-0.73029169,0.73029169,0.68313546,103.26156,1448.3986)">
        <g transform="matrix(0.92220412,-0.03691994,0.03792293,0.9113265,18.012268,743.19749)" id="g3028">
          <g id="g3030" transform="translate(-10.941933,-540.84412)">
            <g id="g3032">
              <g id="g3034" transform="matrix(-0.9996843,0.02512527,-0.02512527,-0.9996843,2082.1146,1248.1357)" />
              <g id="g3036" transform="matrix(-0.9992315,0.03919708,-0.03919708,-0.9992315,1922.9598,1240.4934)" />
            </g>
          </g>
        </g>
      </g>
      <path style="fill:none;stroke:#2e3436;stroke-width:54.78153992;stroke-linecap:butt;stroke-linejoin:miter;stroke-opacity:1" d="m 1603.0652,467.6716 c 0,0 -10e-5,136.95384 116.4107,136.95384 116.4108,0 130.1062,-136.95384 130.1062,-136.95384" id="path3102" />
      <path style="fill:none;stroke:#d3d7cf;stroke-width:27.39076996;stroke-linecap:butt;stroke-linejoin:miter;stroke-opacity:1" d="m 1603.0652,467.6716 c 0,0 0,136.95385 116.4108,136.95385 116.4107,0 130.1061,-136.95385 130.1061,-136.95385" id="path3102-8" />
      <path style="fill:none;stroke:#ffffff;stroke-width:13.69538498;stroke-linecap:butt;stroke-linejoin:miter;stroke-opacity:1" d="m 1609.9129,460.82391 c 0,0 -6.8478,136.95384 109.563,136.95384 116.4107,0 123.2585,-136.95384 123.2585,-136.95384" id="path3102-2" />
      <g transform="matrix(6.8476923,0,0,6.8476923,1721.6818,389.36717)" id="g3797-7-2-9-5-4">
        <path style="fill:#ef2929;stroke:#280000;stroke-width:1.99999988;stroke-miterlimit:4;stroke-opacity:1;stroke-dasharray:none" id="path4250-6-9-4-1-2" d="M -26.156204,5.582626 A 8.993818,8.9934077 0.02042283 1 1 -12.493793,17.282241 8.993818,8.9934077 0.02042283 1 1 -26.156204,5.582626 z" />
        <path style="fill:url(#linearGradient3203);fill-opacity:1;stroke:#ef2929;stroke-width:1.99999952;stroke-miterlimit:4;stroke-opacity:1;stroke-dasharray:none" id="path4250-7-0-1-8-7-3" d="M -24.633588,6.893588 A 6.9999997,7.0000001 0 1 1 -14,16 6.9999997,7.0000001 0 0 1 -24.633588,6.893588 z" />
      </g>
      <g transform="matrix(6.8476923,0,0,6.8476923,1995.5895,389.40446)" id="g3797-7-2-9-5-4-9">
        <path style="fill:#ef2929;stroke:#280000;stroke-width:1.99999988;stroke-miterlimit:4;stroke-opacity:1;stroke-dasharray:none" id="path4250-6-9-4-1-2-4" d="M -26.156204,5.582626 A 8.993818,8.9934077 0.02042283 1 1 -12.493793,17.282241 8.993818,8.9934077 0.02042283 1 1 -26.156204,5.582626 z" />
        <path style="fill:url(#linearGradient3079);fill-opacity:1;stroke:#ef2929;stroke-width:1.99999952;stroke-miterlimit:4;stroke-opacity:1;stroke-dasharray:none" id="path4250-7-0-1-8-7-3-8" d="M -24.633588,6.893588 A 6.9999997,7.0000001 0 1 1 -14,16 6.9999997,7.0000001 0 0 1 -24.633588,6.893588 z" />
      </g>
      <g transform="matrix(6.8476923,0,0,6.8476923,1851.7879,663.27486)" id="g3797-7-2-9-5-4-9-5">
        <path style="fill:#ef2929;stroke:#280000;stroke-width:1.99999988;stroke-miterlimit:4;stroke-opacity:1;stroke-dasharray:none" id="path4250-6-9-4-1-2-4-1" d="M -26.156204,5.582626 A 8.993818,8.9934077 0.02042283 1 1 -12.493793,17.282241 8.993818,8.9934077 0.02042283 1 1 -26.156204,5.582626 z" />
        <path style="fill:url(#linearGradient3092);fill-opacity:1;stroke:#ef2929;stroke-width:1.99999952;stroke-miterlimit:4;stroke-opacity:1;stroke-dasharray:none" id="path4250-7-0-1-8-7-3-8-7" d="M -24.633588,6.893588 A 6.9999997,7.0000001 0 1 1 -14,16 6.9999997,7.0000001 0 0 1 -24.633588,6.893588 z" />
      </g>
      <g transform="matrix(6.8476923,0,0,6.8476923,1851.7879,526.32101)" id="g3797-7-2-9-5-4-9-5-7">
        <path style="fill:#ef2929;stroke:#280000;stroke-width:1.99999988;stroke-miterlimit:4;stroke-opacity:1;stroke-dasharray:none" id="path4250-6-9-4-1-2-4-1-6" d="M -26.156204,5.582626 A 8.993818,8.9934077 0.02042283 1 1 -12.493793,17.282241 8.993818,8.9934077 0.02042283 1 1 -26.156204,5.582626 z" />
        <path style="fill:url(#linearGradient3132);fill-opacity:1;stroke:#ef2929;stroke-width:1.99999952;stroke-miterlimit:4;stroke-opacity:1;stroke-dasharray:none" id="path4250-7-0-1-8-7-3-8-7-1" d="M -24.633588,6.893588 A 6.9999997,7.0000001 0 1 1 -14,16 6.9999997,7.0000001 0 0 1 -24.633588,6.893588 z" />
      </g>
    </g>
  </g>
</svg>
