<?xml version="1.0" encoding="UTF-8" standalone="no"?>
<!-- Created with Inkscape (http://www.inkscape.org/) -->

<svg
   width="64"
   height="64"
   id="svg2869"
   version="1.1"
   viewBox="0 0 64 64"
   xmlns:xlink="http://www.w3.org/1999/xlink"
   xmlns="http://www.w3.org/2000/svg"
   xmlns:svg="http://www.w3.org/2000/svg"
   xmlns:rdf="http://www.w3.org/1999/02/22-rdf-syntax-ns#"
   xmlns:cc="http://creativecommons.org/ns#"
   xmlns:dc="http://purl.org/dc/elements/1.1/">
  <defs
     id="defs2871">
    <linearGradient
       id="linearGradient5">
      <stop
         style="stop-color:#ef2929;stop-opacity:1;"
         offset="0"
         id="stop19" />
      <stop
         style="stop-color:#ef2929;stop-opacity:0;"
         offset="1"
         id="stop20" />
    </linearGradient>
    <linearGradient
       id="swatch18">
      <stop
         style="stop-color:#ef2929;stop-opacity:1;"
         offset="0"
         id="stop18" />
    </linearGradient>
    <linearGradient
       id="swatch15">
      <stop
         style="stop-color:#3d0000;stop-opacity:1;"
         offset="0"
         id="stop15" />
    </linearGradient>
    <linearGradient
       id="linearGradient5-1">
      <stop
         style="stop-color:#ef2929;stop-opacity:1;"
         offset="0"
         id="stop5" />
      <stop
         style="stop-color:#ef2929;stop-opacity:0;"
         offset="1"
         id="stop6" />
    </linearGradient>
    <linearGradient
       id="linearGradient3836-9">
      <stop
         style="stop-color:#a40000;stop-opacity:1"
         offset="0"
         id="stop3838-8" />
      <stop
         style="stop-color:#ef2929;stop-opacity:1"
         offset="1"
         id="stop3840-1" />
    </linearGradient>
    <linearGradient
       id="linearGradient3836-9-3">
      <stop
         style="stop-color:#a40000;stop-opacity:1"
         offset="0"
         id="stop3838-8-5" />
      <stop
         style="stop-color:#ef2929;stop-opacity:1"
         offset="1"
         id="stop3840-1-6" />
    </linearGradient>
    <linearGradient
       y2="5"
       x2="-22"
       y1="18"
       x1="-18"
       gradientUnits="userSpaceOnUse"
       id="linearGradient3082"
       xlink:href="#linearGradient3836-9-3" />
    <linearGradient
       id="linearGradient3836-9-7">
      <stop
         style="stop-color:#a40000;stop-opacity:1"
         offset="0"
         id="stop3838-8-0" />
      <stop
         style="stop-color:#ef2929;stop-opacity:1"
         offset="1"
         id="stop3840-1-9" />
    </linearGradient>
    <linearGradient
       y2="5"
       x2="-22"
       y1="18"
       x1="-18"
       gradientUnits="userSpaceOnUse"
       id="linearGradient3082-3"
       xlink:href="#linearGradient3836-9-7" />
    <linearGradient
       xlink:href="#linearGradient3836-9-3"
       id="linearGradient3801-1-3"
       gradientUnits="userSpaceOnUse"
       x1="-18"
       y1="18"
       x2="-22"
       y2="5"
       gradientTransform="matrix(0.76342439,0,0,0.75750425,-4.596389,2.7525637)" />
    <linearGradient
       xlink:href="#linearGradient3836-9-3"
       id="linearGradient3801-1-3-2"
       gradientUnits="userSpaceOnUse"
       x1="-18"
       y1="18"
       x2="-22"
       y2="5"
       gradientTransform="matrix(0.84956703,0,0,0.84301394,-2.927337,1.7790378)" />
    <linearGradient
       xlink:href="#linearGradient3836-9-3"
       id="linearGradient34"
       gradientUnits="userSpaceOnUse"
       gradientTransform="matrix(0.82607043,0,0,0.82533448,-4.0098079,1.346708)"
       x1="-18"
       y1="18"
       x2="-22"
       y2="5" />
    <linearGradient
       xlink:href="#linearGradient3838"
       id="linearGradient3844"
       x1="36"
       y1="1039.3622"
       x2="32"
       y2="1003.3622"
       gradientUnits="userSpaceOnUse"
       gradientTransform="translate(2.0563921e-6,-988.36218)" />
    <linearGradient
       id="linearGradient3838">
      <stop
         style="stop-color:#d3d7cf;stop-opacity:1;"
         offset="0"
         id="stop3840" />
      <stop
         style="stop-color:#ffffff;stop-opacity:1;"
         offset="1"
         id="stop3842" />
    </linearGradient>
    <linearGradient
       xlink:href="#linearGradient3830"
       id="linearGradient3836"
       x1="36"
       y1="1037.3622"
       x2="32"
       y2="1005.3622"
       gradientUnits="userSpaceOnUse"
       gradientTransform="translate(2.0563921e-6,-988.36218)" />
    <linearGradient
       id="linearGradient3830">
      <stop
         style="stop-color:#ffffff;stop-opacity:1;"
         offset="0"
         id="stop3832" />
      <stop
         style="stop-color:#d3d7cf;stop-opacity:1;"
         offset="1"
         id="stop3834" />
    </linearGradient>
    <linearGradient
       xlink:href="#linearGradient3836-9-3"
       id="linearGradient3"
       gradientUnits="userSpaceOnUse"
       gradientTransform="matrix(0.82607043,0,0,0.82533448,-4.0098079,1.346708)"
       x1="-18"
       y1="18"
       x2="-22"
       y2="5" />
  </defs>
  <metadata
     id="metadata2874">
    <rdf:RDF>
      <cc:Work
         rdf:about="">
        <dc:format>image/svg+xml</dc:format>
        <dc:type
           rdf:resource="http://purl.org/dc/dcmitype/StillImage" />
        <dc:creator>
          <cc:Agent>
            <dc:title>[maxwxyz]</dc:title>
          </cc:Agent>
        </dc:creator>
        <dc:relation>https://www.freecad.org/wiki/index.php?title=Artwork</dc:relation>
        <dc:publisher>
          <cc:Agent>
            <dc:title>FreeCAD</dc:title>
          </cc:Agent>
        </dc:publisher>
        <dc:identifier>FreeCAD/src/Mod/Sketcher/Gui/Resources/icons/Sketcher_CreateArc.svg</dc:identifier>
        <dc:rights>
          <cc:Agent>
            <dc:title>FreeCAD LGPL2+</dc:title>
          </cc:Agent>
        </dc:rights>
        <dc:date>2023-12-19</dc:date>
      </cc:Work>
    </rdf:RDF>
  </metadata>
  <g
     id="layer3"
     style="display:inline">
    <g
       id="g4"
       transform="translate(0,-1)">
      <path
         style="fill:none;stroke:#151819;stroke-width:8;stroke-linecap:round;stroke-linejoin:miter;stroke-miterlimit:1.9;stroke-opacity:1"
         d="m 41.000002,16 c 9.388841,0 17,7.611159 17,17 0,9.388841 -7.611159,17 -17,17 m 0,-34 h -18 c -9.388841,0 -16.9999997,7.611159 -16.9999997,17 0,9.388841 7.6111587,17 16.9999997,17 h 18"
         id="path3016" />
      <path
         style="fill:none;stroke:#d3d7cf;stroke-width:4;stroke-linecap:round;stroke-linejoin:miter;stroke-miterlimit:1.9;stroke-opacity:1"
         d="m 41.000002,16.00002 c 9.388841,0 17,7.6111 17,17 0,9.3888 -7.611159,17 -17,17 m 0,-34 h -18 c -9.388841,0 -16.9999999,7.6111 -16.9999999,17 0,9.3888 7.6111589,17 16.9999999,17 h 18"
         id="path3016-3" />
      <path
         style="fill:none;stroke:url(#linearGradient3844);stroke-width:2;stroke-linecap:round;stroke-linejoin:miter;stroke-miterlimit:1.9;stroke-opacity:1"
         d="m 41.346156,15.00002 c 9.749951,0 17.653847,8.0588 17.653847,17.9999 0,9.9411 -7.903896,18 -17.653847,18 m 0,-35.9999 H 22.653849 c -9.749951,0 -17.6538466,8.0588 -17.6538466,17.9999 0,9.9411 7.9038956,18 17.6538466,18 h 18.692307"
         id="path3016-3-6" />
      <path
         style="fill:none;stroke:url(#linearGradient3836);stroke-width:2;stroke-linecap:round;stroke-linejoin:miter;stroke-miterlimit:1.9;stroke-opacity:1"
         d="m 40.653848,17.00002 c 9.027732,0 16.346154,7.1634 16.346154,16 0,8.8365 -7.318422,16 -16.346154,16 m 0,-32 H 23.346156 c -9.027732,0 -16.3461539,7.1634 -16.3461539,16 0,8.8365 7.3184219,16 16.3461539,16 h 17.307692"
         id="path3016-3-7" />
    </g>
    <g
       transform="matrix(0.77869459,0,0,0.77869445,35.054208,23.594926)"
       id="g34"
       style="stroke-width:1.2842">
      <path
         style="fill:none;stroke:#2e0000;stroke-width:2.56841;stroke-miterlimit:4;stroke-dasharray:none;stroke-opacity:1"
         id="path33"
         d="M -26.310778,5.3580033 A 8.3519646,8.3515832 0.02039876 1 1 -13.623399,16.222662 8.3519646,8.3515832 0.02039876 1 1 -26.310778,5.3580033 Z" />
      <path
         style="fill:url(#linearGradient34);fill-opacity:1;stroke:#ef2929;stroke-width:2.56842;stroke-miterlimit:4;stroke-dasharray:none;stroke-opacity:1"
         id="path34"
         d="m -24.358888,7.0362241 a 5.782493,5.7773415 0 1 1 8.784093,7.5158349 5.782493,5.7773415 0 0 1 -8.784093,-7.5158349 z" />
    </g>
    <g
       transform="matrix(0.77869459,0,0,0.77869445,60.04232,23.60033)"
       id="g3"
       style="stroke-width:1.2842">
      <path
         style="fill:none;stroke:#2e0000;stroke-width:2.56841;stroke-miterlimit:4;stroke-dasharray:none;stroke-opacity:1"
         id="path2"
         d="M -26.310778,5.3580033 A 8.3519646,8.3515832 0.02039876 1 1 -13.623399,16.222662 8.3519646,8.3515832 0.02039876 1 1 -26.310778,5.3580033 Z" />
      <path
         style="fill:url(#linearGradient3);fill-opacity:1;stroke:#ef2929;stroke-width:2.56842;stroke-miterlimit:4;stroke-dasharray:none;stroke-opacity:1"
         id="path3"
         d="m -24.358888,7.0362241 a 5.782493,5.7773415 0 1 1 8.784093,7.5158349 5.782493,5.7773415 0 0 1 -8.784093,-7.5158349 z" />
    </g>
  </g>
</svg>
